<?xml version="1.0" encoding="UTF-8" standalone="no"?>
<!DOCTYPE svg PUBLIC "-//W3C//DTD SVG 1.1//EN"
 "http://www.w3.org/Graphics/SVG/1.1/DTD/svg11.dtd">
<!-- Generated by graphviz version 2.40.1 (20161225.0304)
 -->
<!-- Title: src/addrdb.h Pages: 1 -->
<svg width="1321pt" height="263pt"
 viewBox="0.00 0.00 1320.69 263.00" xmlns="http://www.w3.org/2000/svg" xmlns:xlink="http://www.w3.org/1999/xlink">
<g id="graph0" class="graph" transform="scale(1 1) rotate(0) translate(4 259)">
<title>src/addrdb.h</title>
<polygon fill="#ffffff" stroke="transparent" points="-4,4 -4,-259 1316.6882,-259 1316.6882,4 -4,4"/>
<!-- Node0 -->
<g id="node1" class="node">
<title>Node0</title>
<polygon fill="#bfbfbf" stroke="#000000" points="741.6882,-235.5 741.6882,-254.5 812.6882,-254.5 812.6882,-235.5 741.6882,-235.5"/>
<text text-anchor="middle" x="777.1882" y="-242.5" font-family="Helvetica,sans-Serif" font-size="10.00" fill="#000000">src/addrdb.h</text>
</g>
<!-- Node1 -->
<g id="node2" class="node">
<title>Node1</title>
<g id="a_node2"><a xlink:href="fs_8h.html" target="_top" xlink:title="fs.h">
<polygon fill="#ffffff" stroke="#000000" points="969.6882,-179.5 969.6882,-198.5 1002.6882,-198.5 1002.6882,-179.5 969.6882,-179.5"/>
<text text-anchor="middle" x="986.1882" y="-186.5" font-family="Helvetica,sans-Serif" font-size="10.00" fill="#000000">fs.h</text>
</a>
</g>
</g>
<!-- Node0&#45;&gt;Node1 -->
<g id="edge1" class="edge">
<title>Node0&#45;&gt;Node1</title>
<path fill="none" stroke="#191970" d="M813.1166,-235.3733C854.757,-224.216 922.4049,-206.0903 959.5943,-196.1256"/>
<polygon fill="#191970" stroke="#191970" points="960.9094,-199.3968 969.6628,-193.4278 959.0977,-192.6353 960.9094,-199.3968"/>
</g>
<!-- Node3 -->
<g id="node4" class="node">
<title>Node3</title>
<polygon fill="#ffffff" stroke="#bfbfbf" points="780.6882,-118 780.6882,-137 821.6882,-137 821.6882,-118 780.6882,-118"/>
<text text-anchor="middle" x="801.1882" y="-125" font-family="Helvetica,sans-Serif" font-size="10.00" fill="#000000">string</text>
</g>
<!-- Node0&#45;&gt;Node3 -->
<g id="edge31" class="edge">
<title>Node0&#45;&gt;Node3</title>
<path fill="none" stroke="#191970" d="M779.1522,-235.3845C783.0725,-216.1913 791.9383,-172.786 797.1508,-147.2663"/>
<polygon fill="#191970" stroke="#191970" points="800.6249,-147.7465 799.1971,-137.2484 793.7665,-146.3456 800.6249,-147.7465"/>
</g>
<!-- Node7 -->
<g id="node8" class="node">
<title>Node7</title>
<g id="a_node8"><a xlink:href="serialize_8h.html" target="_top" xlink:title="serialize.h">
<polygon fill="#ffffff" stroke="#000000" points="362.6882,-179.5 362.6882,-198.5 423.6882,-198.5 423.6882,-179.5 362.6882,-179.5"/>
<text text-anchor="middle" x="393.1882" y="-186.5" font-family="Helvetica,sans-Serif" font-size="10.00" fill="#000000">serialize.h</text>
</a>
</g>
</g>
<!-- Node0&#45;&gt;Node7 -->
<g id="edge7" class="edge">
<title>Node0&#45;&gt;Node7</title>
<path fill="none" stroke="#191970" d="M741.4072,-239.7819C669.8332,-229.3441 509.4365,-205.9529 433.9448,-194.9437"/>
<polygon fill="#191970" stroke="#191970" points="434.2746,-191.4548 423.8742,-193.475 433.2644,-198.3816 434.2746,-191.4548"/>
</g>
<!-- Node15 -->
<g id="node16" class="node">
<title>Node15</title>
<polygon fill="#ffffff" stroke="#bfbfbf" points="727.6882,-118 727.6882,-137 762.6882,-137 762.6882,-118 727.6882,-118"/>
<text text-anchor="middle" x="745.1882" y="-125" font-family="Helvetica,sans-Serif" font-size="10.00" fill="#000000">map</text>
</g>
<!-- Node0&#45;&gt;Node15 -->
<g id="edge32" class="edge">
<title>Node0&#45;&gt;Node15</title>
<path fill="none" stroke="#191970" d="M774.5695,-235.3845C769.319,-216.1053 757.4153,-172.3963 750.4782,-146.9241"/>
<polygon fill="#191970" stroke="#191970" points="753.8479,-145.9772 747.8431,-137.2484 747.0939,-147.8167 753.8479,-145.9772"/>
</g>
<!-- Node2 -->
<g id="node3" class="node">
<title>Node2</title>
<polygon fill="#ffffff" stroke="#bfbfbf" points="1141.1882,-118 1141.1882,-137 1187.1882,-137 1187.1882,-118 1141.1882,-118"/>
<text text-anchor="middle" x="1164.1882" y="-125" font-family="Helvetica,sans-Serif" font-size="10.00" fill="#000000">stdio.h</text>
</g>
<!-- Node1&#45;&gt;Node2 -->
<g id="edge2" class="edge">
<title>Node1&#45;&gt;Node2</title>
<path fill="none" stroke="#191970" d="M1003.106,-184.5364C1030.5979,-177.0911 1086.4969,-161.1516 1132.1882,-143 1133.5507,-142.4587 1134.9358,-141.8845 1136.3276,-141.288"/>
<polygon fill="#191970" stroke="#191970" points="1137.7869,-144.4694 1145.4411,-137.1439 1134.8893,-138.0973 1137.7869,-144.4694"/>
</g>
<!-- Node1&#45;&gt;Node3 -->
<g id="edge3" class="edge">
<title>Node1&#45;&gt;Node3</title>
<path fill="none" stroke="#191970" d="M969.5513,-185.1585C940.7874,-178.2768 880.142,-162.7058 831.1882,-143 829.9952,-142.5198 828.7863,-142.008 827.5731,-141.4737"/>
<polygon fill="#191970" stroke="#191970" points="828.9101,-138.2336 818.3779,-137.0835 825.8941,-144.5505 828.9101,-138.2336"/>
</g>
<!-- Node4 -->
<g id="node5" class="node">
<title>Node4</title>
<polygon fill="#ffffff" stroke="#bfbfbf" points="1205.6882,-118 1205.6882,-137 1312.6882,-137 1312.6882,-118 1205.6882,-118"/>
<text text-anchor="middle" x="1259.1882" y="-125" font-family="Helvetica,sans-Serif" font-size="10.00" fill="#000000">boost/filesystem.hpp</text>
</g>
<!-- Node1&#45;&gt;Node4 -->
<g id="edge4" class="edge">
<title>Node1&#45;&gt;Node4</title>
<path fill="none" stroke="#191970" d="M1002.8269,-185.5066C1038.385,-178.0078 1124.3908,-159.6929 1196.1882,-143 1201.1355,-141.8498 1206.2946,-140.6238 1211.4374,-139.3845"/>
<polygon fill="#191970" stroke="#191970" points="1212.3563,-142.7632 1221.2474,-137.0012 1210.7037,-135.961 1212.3563,-142.7632"/>
</g>
<!-- Node5 -->
<g id="node6" class="node">
<title>Node5</title>
<polygon fill="#ffffff" stroke="#bfbfbf" points="839.6882,-118 839.6882,-137 982.6882,-137 982.6882,-118 839.6882,-118"/>
<text text-anchor="middle" x="911.1882" y="-125" font-family="Helvetica,sans-Serif" font-size="10.00" fill="#000000">boost/filesystem/fstream.hpp</text>
</g>
<!-- Node1&#45;&gt;Node5 -->
<g id="edge5" class="edge">
<title>Node1&#45;&gt;Node5</title>
<path fill="none" stroke="#191970" d="M974.4695,-179.3906C962.8694,-169.8786 944.8903,-155.1357 931.0561,-143.7917"/>
<polygon fill="#191970" stroke="#191970" points="933.0242,-140.8792 923.0722,-137.2449 928.5856,-146.2921 933.0242,-140.8792"/>
</g>
<!-- Node6 -->
<g id="node7" class="node">
<title>Node6</title>
<polygon fill="#ffffff" stroke="#bfbfbf" points="1001.1882,-112.5 1001.1882,-142.5 1123.1882,-142.5 1123.1882,-112.5 1001.1882,-112.5"/>
<text text-anchor="start" x="1009.1882" y="-130.5" font-family="Helvetica,sans-Serif" font-size="10.00" fill="#000000">boost/filesystem/detail</text>
<text text-anchor="middle" x="1062.1882" y="-119.5" font-family="Helvetica,sans-Serif" font-size="10.00" fill="#000000">/utf8_codecvt_facet.hpp</text>
</g>
<!-- Node1&#45;&gt;Node6 -->
<g id="edge6" class="edge">
<title>Node1&#45;&gt;Node6</title>
<path fill="none" stroke="#191970" d="M998.0632,-179.3906C1008.0632,-171.2986 1022.7415,-159.4207 1035.532,-149.0705"/>
<polygon fill="#191970" stroke="#191970" points="1038.0245,-151.5559 1043.5965,-142.5446 1033.6212,-146.1144 1038.0245,-151.5559"/>
</g>
<!-- Node7&#45;&gt;Node3 -->
<g id="edge20" class="edge">
<title>Node7&#45;&gt;Node3</title>
<path fill="none" stroke="#191970" d="M423.7475,-186.7517C501.846,-180.7731 707.1649,-163.5292 772.1882,-143 773.6172,-142.5488 775.0581,-142.0272 776.4934,-141.4543"/>
<polygon fill="#191970" stroke="#191970" points="778.1336,-144.5509 785.6989,-137.1335 775.1593,-138.2142 778.1336,-144.5509"/>
</g>
<!-- Node8 -->
<g id="node9" class="node">
<title>Node8</title>
<g id="a_node9"><a xlink:href="endian_8h.html" target="_top" xlink:title="compat/endian.h">
<polygon fill="#ffffff" stroke="#000000" points="559.6882,-118 559.6882,-137 648.6882,-137 648.6882,-118 559.6882,-118"/>
<text text-anchor="middle" x="604.1882" y="-125" font-family="Helvetica,sans-Serif" font-size="10.00" fill="#000000">compat/endian.h</text>
</a>
</g>
</g>
<!-- Node7&#45;&gt;Node8 -->
<g id="edge8" class="edge">
<title>Node7&#45;&gt;Node8</title>
<path fill="none" stroke="#191970" d="M423.8694,-180.0574C460.1928,-169.4702 520.8951,-151.7774 561.7182,-139.8787"/>
<polygon fill="#191970" stroke="#191970" points="562.7648,-143.2194 571.3859,-137.0609 560.806,-136.499 562.7648,-143.2194"/>
</g>
<!-- Node10 -->
<g id="node11" class="node">
<title>Node10</title>
<polygon fill="#ffffff" stroke="#bfbfbf" points="618.6882,-.5 618.6882,-19.5 667.6882,-19.5 667.6882,-.5 618.6882,-.5"/>
<text text-anchor="middle" x="643.1882" y="-7.5" font-family="Helvetica,sans-Serif" font-size="10.00" fill="#000000">stdint.h</text>
</g>
<!-- Node7&#45;&gt;Node10 -->
<g id="edge19" class="edge">
<title>Node7&#45;&gt;Node10</title>
<path fill="none" stroke="#191970" d="M423.7073,-187.5082C485.4812,-183.8927 622.4141,-172.6672 657.1882,-143 687.6148,-117.0418 693.4768,-93.7229 680.1882,-56 676.3573,-45.125 668.748,-34.9246 661.421,-26.9061"/>
<polygon fill="#191970" stroke="#191970" points="663.8348,-24.3686 654.3384,-19.6707 658.8325,-29.2652 663.8348,-24.3686"/>
</g>
<!-- Node11 -->
<g id="node12" class="node">
<title>Node11</title>
<polygon fill="#ffffff" stroke="#bfbfbf" points="15.1882,-118 15.1882,-137 71.1882,-137 71.1882,-118 15.1882,-118"/>
<text text-anchor="middle" x="43.1882" y="-125" font-family="Helvetica,sans-Serif" font-size="10.00" fill="#000000">algorithm</text>
</g>
<!-- Node7&#45;&gt;Node11 -->
<g id="edge12" class="edge">
<title>Node7&#45;&gt;Node11</title>
<path fill="none" stroke="#191970" d="M362.4463,-187.0468C305.7448,-182.883 181.2555,-171.1143 80.1882,-143 77.8671,-142.3543 75.4976,-141.6001 73.1353,-140.7785"/>
<polygon fill="#191970" stroke="#191970" points="74.1965,-137.437 63.6062,-137.1267 71.6915,-143.9735 74.1965,-137.437"/>
</g>
<!-- Node12 -->
<g id="node13" class="node">
<title>Node12</title>
<polygon fill="#ffffff" stroke="#bfbfbf" points="233.1882,-56.5 233.1882,-75.5 285.1882,-75.5 285.1882,-56.5 233.1882,-56.5"/>
<text text-anchor="middle" x="259.1882" y="-63.5" font-family="Helvetica,sans-Serif" font-size="10.00" fill="#000000">assert.h</text>
</g>
<!-- Node7&#45;&gt;Node12 -->
<g id="edge13" class="edge">
<title>Node7&#45;&gt;Node12</title>
<path fill="none" stroke="#191970" d="M402.9706,-179.1649C417.1935,-163.6569 440.2237,-133.1175 424.1882,-112 422.1839,-109.3605 342.9171,-88.0798 294.9944,-75.4075"/>
<polygon fill="#191970" stroke="#191970" points="295.8452,-72.0123 285.2831,-72.8439 294.0585,-78.7804 295.8452,-72.0123"/>
</g>
<!-- Node13 -->
<g id="node14" class="node">
<title>Node13</title>
<polygon fill="#ffffff" stroke="#bfbfbf" points="89.6882,-118 89.6882,-137 118.6882,-137 118.6882,-118 89.6882,-118"/>
<text text-anchor="middle" x="104.1882" y="-125" font-family="Helvetica,sans-Serif" font-size="10.00" fill="#000000">ios</text>
</g>
<!-- Node7&#45;&gt;Node13 -->
<g id="edge14" class="edge">
<title>Node7&#45;&gt;Node13</title>
<path fill="none" stroke="#191970" d="M362.3197,-187.6309C311.7624,-184.5228 208.8621,-174.5372 128.1882,-143 127.3393,-142.6682 126.4887,-142.3041 125.6409,-141.9142"/>
<polygon fill="#191970" stroke="#191970" points="127.3165,-138.8412 116.8768,-137.0343 123.9111,-144.9571 127.3165,-138.8412"/>
</g>
<!-- Node14 -->
<g id="node15" class="node">
<title>Node14</title>
<polygon fill="#ffffff" stroke="#bfbfbf" points="137.1882,-118 137.1882,-137 177.1882,-137 177.1882,-118 137.1882,-118"/>
<text text-anchor="middle" x="157.1882" y="-125" font-family="Helvetica,sans-Serif" font-size="10.00" fill="#000000">limits</text>
</g>
<!-- Node7&#45;&gt;Node14 -->
<g id="edge15" class="edge">
<title>Node7&#45;&gt;Node14</title>
<path fill="none" stroke="#191970" d="M362.6282,-184.8726C321.5756,-178.7333 246.7738,-165.4429 186.1882,-143 184.9837,-142.5538 183.7669,-142.0663 182.5493,-141.5483"/>
<polygon fill="#191970" stroke="#191970" points="183.9198,-138.3238 173.3895,-137.1555 180.8928,-144.6356 183.9198,-138.3238"/>
</g>
<!-- Node7&#45;&gt;Node15 -->
<g id="edge16" class="edge">
<title>Node7&#45;&gt;Node15</title>
<path fill="none" stroke="#191970" d="M423.8668,-187.7242C481.6644,-184.6395 610.1406,-174.529 713.1882,-143 715.0476,-142.4311 716.9339,-141.7675 718.8124,-141.0412"/>
<polygon fill="#191970" stroke="#191970" points="720.2174,-144.2468 727.9781,-137.0342 717.4134,-137.833 720.2174,-144.2468"/>
</g>
<!-- Node16 -->
<g id="node17" class="node">
<title>Node16</title>
<polygon fill="#ffffff" stroke="#bfbfbf" points="195.1882,-118 195.1882,-137 247.1882,-137 247.1882,-118 195.1882,-118"/>
<text text-anchor="middle" x="221.1882" y="-125" font-family="Helvetica,sans-Serif" font-size="10.00" fill="#000000">memory</text>
</g>
<!-- Node7&#45;&gt;Node16 -->
<g id="edge17" class="edge">
<title>Node7&#45;&gt;Node16</title>
<path fill="none" stroke="#191970" d="M362.4258,-179.5729C334.4669,-170.7924 292.2057,-156.9872 256.1882,-143 254.5698,-142.3715 252.9172,-141.7099 251.2543,-141.0284"/>
<polygon fill="#191970" stroke="#191970" points="252.355,-137.6932 241.7828,-137.0011 249.6159,-144.1351 252.355,-137.6932"/>
</g>
<!-- Node17 -->
<g id="node18" class="node">
<title>Node17</title>
<polygon fill="#ffffff" stroke="#bfbfbf" points="265.1882,-118 265.1882,-137 295.1882,-137 295.1882,-118 265.1882,-118"/>
<text text-anchor="middle" x="280.1882" y="-125" font-family="Helvetica,sans-Serif" font-size="10.00" fill="#000000">set</text>
</g>
<!-- Node7&#45;&gt;Node17 -->
<g id="edge18" class="edge">
<title>Node7&#45;&gt;Node17</title>
<path fill="none" stroke="#191970" d="M373.4516,-179.4819C355.2201,-170.5298 327.5136,-156.518 304.1882,-143 303.8905,-142.8275 303.5913,-142.6529 303.2909,-142.4765"/>
<polygon fill="#191970" stroke="#191970" points="304.8664,-139.3363 294.5162,-137.0727 301.1957,-145.2967 304.8664,-139.3363"/>
</g>
<!-- Node18 -->
<g id="node19" class="node">
<title>Node18</title>
<polygon fill="#ffffff" stroke="#bfbfbf" points="64.6882,-56.5 64.6882,-75.5 113.6882,-75.5 113.6882,-56.5 64.6882,-56.5"/>
<text text-anchor="middle" x="89.1882" y="-63.5" font-family="Helvetica,sans-Serif" font-size="10.00" fill="#000000">string.h</text>
</g>
<!-- Node7&#45;&gt;Node18 -->
<g id="edge21" class="edge">
<title>Node7&#45;&gt;Node18</title>
<path fill="none" stroke="#191970" d="M362.4777,-187.6506C275.0826,-183.4985 29.777,-169.5587 6.1882,-143 -2.9611,-132.6987 -.805,-123.8711 6.1882,-112 16.7009,-94.1544 36.9052,-82.7426 54.747,-75.7493"/>
<polygon fill="#191970" stroke="#191970" points="56.11,-78.9787 64.3394,-72.3059 53.7449,-72.3904 56.11,-78.9787"/>
</g>
<!-- Node19 -->
<g id="node20" class="node">
<title>Node19</title>
<polygon fill="#ffffff" stroke="#bfbfbf" points="313.1882,-118 313.1882,-137 353.1882,-137 353.1882,-118 313.1882,-118"/>
<text text-anchor="middle" x="333.1882" y="-125" font-family="Helvetica,sans-Serif" font-size="10.00" fill="#000000">utility</text>
</g>
<!-- Node7&#45;&gt;Node19 -->
<g id="edge22" class="edge">
<title>Node7&#45;&gt;Node19</title>
<path fill="none" stroke="#191970" d="M383.8132,-179.3906C374.7083,-170.0581 360.6908,-155.6902 349.7125,-144.4374"/>
<polygon fill="#191970" stroke="#191970" points="352.1839,-141.9586 342.6954,-137.2449 347.1734,-146.8468 352.1839,-141.9586"/>
</g>
<!-- Node20 -->
<g id="node21" class="node">
<title>Node20</title>
<polygon fill="#ffffff" stroke="#bfbfbf" points="371.1882,-118 371.1882,-137 415.1882,-137 415.1882,-118 371.1882,-118"/>
<text text-anchor="middle" x="393.1882" y="-125" font-family="Helvetica,sans-Serif" font-size="10.00" fill="#000000">vector</text>
</g>
<!-- Node7&#45;&gt;Node20 -->
<g id="edge23" class="edge">
<title>Node7&#45;&gt;Node20</title>
<path fill="none" stroke="#191970" d="M393.1882,-179.3906C393.1882,-170.8657 393.1882,-158.1392 393.1882,-147.4235"/>
<polygon fill="#191970" stroke="#191970" points="396.6883,-147.2448 393.1882,-137.2449 389.6883,-147.2449 396.6883,-147.2448"/>
</g>
<!-- Node21 -->
<g id="node22" class="node">
<title>Node21</title>
<g id="a_node22"><a xlink:href="prevector_8h.html" target="_top" xlink:title="prevector.h">
<polygon fill="#ffffff" stroke="#000000" points="471.6882,-118 471.6882,-137 536.6882,-137 536.6882,-118 471.6882,-118"/>
<text text-anchor="middle" x="504.1882" y="-125" font-family="Helvetica,sans-Serif" font-size="10.00" fill="#000000">prevector.h</text>
</a>
</g>
</g>
<!-- Node7&#45;&gt;Node21 -->
<g id="edge24" class="edge">
<title>Node7&#45;&gt;Node21</title>
<path fill="none" stroke="#191970" d="M410.532,-179.3906C428.6155,-169.3713 457.1741,-153.5483 478.0047,-142.0071"/>
<polygon fill="#191970" stroke="#191970" points="479.9153,-144.9498 486.9662,-137.0419 476.5228,-138.8268 479.9153,-144.9498"/>
</g>
<!-- Node9 -->
<g id="node10" class="node">
<title>Node9</title>
<g id="a_node10"><a xlink:href="byteswap_8h.html" target="_top" xlink:title="compat/byteswap.h">
<polygon fill="#ffffff" stroke="#000000" points="553.1882,-56.5 553.1882,-75.5 655.1882,-75.5 655.1882,-56.5 553.1882,-56.5"/>
<text text-anchor="middle" x="604.1882" y="-63.5" font-family="Helvetica,sans-Serif" font-size="10.00" fill="#000000">compat/byteswap.h</text>
</a>
</g>
</g>
<!-- Node8&#45;&gt;Node9 -->
<g id="edge9" class="edge">
<title>Node8&#45;&gt;Node9</title>
<path fill="none" stroke="#191970" d="M604.1882,-117.8906C604.1882,-109.3657 604.1882,-96.6392 604.1882,-85.9235"/>
<polygon fill="#191970" stroke="#191970" points="607.6883,-85.7448 604.1882,-75.7449 600.6883,-85.7449 607.6883,-85.7448"/>
</g>
<!-- Node8&#45;&gt;Node10 -->
<g id="edge11" class="edge">
<title>Node8&#45;&gt;Node10</title>
<path fill="none" stroke="#191970" d="M622.1077,-117.9469C636.4687,-109.1758 655.5903,-94.7105 664.1882,-76 671.3678,-60.3758 663.9739,-41.613 656.0476,-28.0931"/>
<polygon fill="#191970" stroke="#191970" points="658.9926,-26.2017 650.6476,-19.6739 653.1004,-29.9809 658.9926,-26.2017"/>
</g>
<!-- Node9&#45;&gt;Node10 -->
<g id="edge10" class="edge">
<title>Node9&#45;&gt;Node10</title>
<path fill="none" stroke="#191970" d="M610.9815,-56.2455C616.4061,-48.4564 624.1543,-37.3308 630.6915,-27.9439"/>
<polygon fill="#191970" stroke="#191970" points="633.6299,-29.849 636.4728,-19.6427 627.8857,-25.8485 633.6299,-29.849"/>
</g>
<!-- Node21&#45;&gt;Node10 -->
<g id="edge27" class="edge">
<title>Node21&#45;&gt;Node10</title>
<path fill="none" stroke="#191970" d="M471.6439,-118.828C422.9797,-105.709 336.4577,-81.7351 332.1882,-76 326.8803,-68.8699 326.3808,-62.7295 332.1882,-56 350.0683,-35.2808 530.8276,-18.7916 608.2716,-12.622"/>
<polygon fill="#191970" stroke="#191970" points="608.7903,-16.0922 618.4859,-11.8206 608.2427,-9.1136 608.7903,-16.0922"/>
</g>
<!-- Node21&#45;&gt;Node12 -->
<g id="edge25" class="edge">
<title>Node21&#45;&gt;Node12</title>
<path fill="none" stroke="#191970" d="M476.4864,-117.8824C470.1774,-115.8268 463.4793,-113.7498 457.1882,-112 387.8004,-92.7 369.2389,-92.7349 299.1882,-76 297.935,-75.7006 296.6603,-75.3939 295.3732,-75.0823"/>
<polygon fill="#191970" stroke="#191970" points="295.9648,-71.6238 285.419,-72.6412 294.2975,-78.4223 295.9648,-71.6238"/>
</g>
<!-- Node21&#45;&gt;Node18 -->
<g id="edge28" class="edge">
<title>Node21&#45;&gt;Node18</title>
<path fill="none" stroke="#191970" d="M471.5659,-120.7588C457.0872,-117.8757 439.8206,-114.5857 424.1882,-112 315.1854,-93.9706 185.3983,-77.5891 124.2975,-70.1767"/>
<polygon fill="#191970" stroke="#191970" points="124.4014,-66.6639 114.0539,-68.9401 123.5624,-73.6134 124.4014,-66.6639"/>
</g>
<!-- Node22 -->
<g id="node23" class="node">
<title>Node22</title>
<polygon fill="#ffffff" stroke="#bfbfbf" points="341.1882,-56.5 341.1882,-75.5 389.1882,-75.5 389.1882,-56.5 341.1882,-56.5"/>
<text text-anchor="middle" x="365.1882" y="-63.5" font-family="Helvetica,sans-Serif" font-size="10.00" fill="#000000">stdlib.h</text>
</g>
<!-- Node21&#45;&gt;Node22 -->
<g id="edge26" class="edge">
<title>Node21&#45;&gt;Node22</title>
<path fill="none" stroke="#191970" d="M482.4695,-117.8906C459.3142,-107.6457 422.4441,-91.3326 396.2291,-79.7339"/>
<polygon fill="#191970" stroke="#191970" points="397.3155,-76.3874 386.7544,-75.5419 394.4832,-82.7888 397.3155,-76.3874"/>
</g>
<!-- Node23 -->
<g id="node24" class="node">
<title>Node23</title>
<polygon fill="#ffffff" stroke="#bfbfbf" points="407.6882,-56.5 407.6882,-75.5 454.6882,-75.5 454.6882,-56.5 407.6882,-56.5"/>
<text text-anchor="middle" x="431.1882" y="-63.5" font-family="Helvetica,sans-Serif" font-size="10.00" fill="#000000">iterator</text>
</g>
<!-- Node21&#45;&gt;Node23 -->
<g id="edge29" class="edge">
<title>Node21&#45;&gt;Node23</title>
<path fill="none" stroke="#191970" d="M492.782,-117.8906C481.4913,-108.3786 463.9915,-93.6357 450.5263,-82.2917"/>
<polygon fill="#191970" stroke="#191970" points="452.6581,-79.5111 442.7553,-75.7449 448.148,-84.8646 452.6581,-79.5111"/>
</g>
<!-- Node24 -->
<g id="node25" class="node">
<title>Node24</title>
<polygon fill="#ffffff" stroke="#bfbfbf" points="473.1882,-56.5 473.1882,-75.5 535.1882,-75.5 535.1882,-56.5 473.1882,-56.5"/>
<text text-anchor="middle" x="504.1882" y="-63.5" font-family="Helvetica,sans-Serif" font-size="10.00" fill="#000000">type_traits</text>
</g>
<!-- Node21&#45;&gt;Node24 -->
<g id="edge30" class="edge">
<title>Node21&#45;&gt;Node24</title>
<path fill="none" stroke="#191970" d="M504.1882,-117.8906C504.1882,-109.3657 504.1882,-96.6392 504.1882,-85.9235"/>
<polygon fill="#191970" stroke="#191970" points="507.6883,-85.7448 504.1882,-75.7449 500.6883,-85.7449 507.6883,-85.7448"/>
</g>
</g>
</svg>
