<?xml version="1.0" encoding="UTF-8" standalone="no"?>
<!DOCTYPE svg PUBLIC "-//W3C//DTD SVG 1.1//EN"
 "http://www.w3.org/Graphics/SVG/1.1/DTD/svg11.dtd">
<!-- Generated by graphviz version 2.40.1 (20161225.0304)
 -->
<!-- Title: src/assets/assetdb.cpp Pages: 1 -->
<svg width="2080pt" height="431pt"
 viewBox="0.00 0.00 2080.49 431.00" xmlns="http://www.w3.org/2000/svg" xmlns:xlink="http://www.w3.org/1999/xlink">
<g id="graph0" class="graph" transform="scale(1 1) rotate(0) translate(4 427)">
<title>src/assets/assetdb.cpp</title>
<polygon fill="#ffffff" stroke="transparent" points="-4,4 -4,-427 2076.4931,-427 2076.4931,4 -4,4"/>
<!-- Node0 -->
<g id="node1" class="node">
<title>Node0</title>
<polygon fill="#bfbfbf" stroke="#000000" points="1607.4931,-403.5 1607.4931,-422.5 1726.4931,-422.5 1726.4931,-403.5 1607.4931,-403.5"/>
<text text-anchor="middle" x="1666.9931" y="-410.5" font-family="Helvetica,sans-Serif" font-size="10.00" fill="#000000">src/assets/assetdb.cpp</text>
</g>
<!-- Node1 -->
<g id="node2" class="node">
<title>Node1</title>
<polygon fill="#ffffff" stroke="#bfbfbf" points="1066.9931,-347.5 1066.9931,-366.5 1104.9931,-366.5 1104.9931,-347.5 1066.9931,-347.5"/>
<text text-anchor="middle" x="1085.9931" y="-354.5" font-family="Helvetica,sans-Serif" font-size="10.00" fill="#000000">util.h</text>
</g>
<!-- Node0&#45;&gt;Node1 -->
<g id="edge1" class="edge">
<title>Node0&#45;&gt;Node1</title>
<path fill="none" stroke="#191970" d="M1607.3177,-409.9073C1484.5994,-403.2394 1207.6822,-386.5236 1114.9931,-367 1114.8921,-366.9787 1114.791,-366.9572 1114.6898,-366.9354"/>
<polygon fill="#191970" stroke="#191970" points="1115.7147,-363.587 1105.1475,-364.352 1113.8853,-370.3437 1115.7147,-363.587"/>
</g>
<!-- Node2 -->
<g id="node3" class="node">
<title>Node2</title>
<g id="a_node3"><a xlink:href="params_8h.html" target="_top" xlink:title="consensus/params.h">
<polygon fill="#ffffff" stroke="#000000" points="1257.4931,-235.5 1257.4931,-254.5 1364.4931,-254.5 1364.4931,-235.5 1257.4931,-235.5"/>
<text text-anchor="middle" x="1310.9931" y="-242.5" font-family="Helvetica,sans-Serif" font-size="10.00" fill="#000000">consensus/params.h</text>
</a>
</g>
</g>
<!-- Node0&#45;&gt;Node2 -->
<g id="edge2" class="edge">
<title>Node0&#45;&gt;Node2</title>
<path fill="none" stroke="#191970" d="M1607.3838,-405.0996C1566.2268,-398.2946 1510.8648,-386.4239 1464.9931,-367 1422.992,-349.2151 1414.6354,-339.4608 1378.9931,-311 1359.8636,-295.7249 1339.9987,-275.9095 1326.716,-261.9922"/>
<polygon fill="#191970" stroke="#191970" points="1329.1165,-259.4361 1319.7113,-254.5584 1324.0219,-264.2367 1329.1165,-259.4361"/>
</g>
<!-- Node15 -->
<g id="node15" class="node">
<title>Node15</title>
<g id="a_node15"><a xlink:href="ismine_8h.html" target="_top" xlink:title="script/ismine.h">
<polygon fill="#ffffff" stroke="#000000" points="1860.9931,-291.5 1860.9931,-310.5 1940.9931,-310.5 1940.9931,-291.5 1860.9931,-291.5"/>
<text text-anchor="middle" x="1900.9931" y="-298.5" font-family="Helvetica,sans-Serif" font-size="10.00" fill="#000000">script/ismine.h</text>
</a>
</g>
</g>
<!-- Node0&#45;&gt;Node15 -->
<g id="edge17" class="edge">
<title>Node0&#45;&gt;Node15</title>
<path fill="none" stroke="#191970" d="M1726.6723,-407.3198C1763.651,-401.5788 1810.8223,-390.0637 1846.9931,-367 1865.63,-355.1165 1880.8951,-334.6463 1890.3827,-319.6465"/>
<polygon fill="#191970" stroke="#191970" points="1893.5956,-321.096 1895.7604,-310.7247 1887.6005,-317.4824 1893.5956,-321.096"/>
</g>
<!-- Node35 -->
<g id="node19" class="node">
<title>Node35</title>
<g id="a_node19"><a xlink:href="tinyformat_8h.html" target="_top" xlink:title="tinyformat.h">
<polygon fill="#ffffff" stroke="#000000" points="1668.9931,-179.5 1668.9931,-198.5 1736.9931,-198.5 1736.9931,-179.5 1668.9931,-179.5"/>
<text text-anchor="middle" x="1702.9931" y="-186.5" font-family="Helvetica,sans-Serif" font-size="10.00" fill="#000000">tinyformat.h</text>
</a>
</g>
</g>
<!-- Node0&#45;&gt;Node35 -->
<g id="edge27" class="edge">
<title>Node0&#45;&gt;Node35</title>
<path fill="none" stroke="#191970" d="M1687.9513,-403.4526C1729.6708,-383.126 1822.1698,-331.1255 1857.9931,-255 1861.7779,-246.9571 1863.3097,-242.1236 1857.9931,-235 1844.6438,-217.1136 1788.0693,-203.6986 1747.1223,-196.1018"/>
<polygon fill="#191970" stroke="#191970" points="1747.5463,-192.622 1737.0846,-194.2966 1746.3072,-199.5114 1747.5463,-192.622"/>
</g>
<!-- Node39 -->
<g id="node24" class="node">
<title>Node39</title>
<g id="a_node24"><a xlink:href="assetdb_8h.html" target="_top" xlink:title="assetdb.h">
<polygon fill="#ffffff" stroke="#000000" points="1123.4931,-347.5 1123.4931,-366.5 1182.4931,-366.5 1182.4931,-347.5 1123.4931,-347.5"/>
<text text-anchor="middle" x="1152.9931" y="-354.5" font-family="Helvetica,sans-Serif" font-size="10.00" fill="#000000">assetdb.h</text>
</a>
</g>
</g>
<!-- Node0&#45;&gt;Node39 -->
<g id="edge33" class="edge">
<title>Node0&#45;&gt;Node39</title>
<path fill="none" stroke="#191970" d="M1607.2769,-406.494C1501.1651,-394.9331 1282.4913,-371.1088 1192.7533,-361.3319"/>
<polygon fill="#191970" stroke="#191970" points="1193.0358,-357.842 1182.7155,-360.2382 1192.2776,-364.8008 1193.0358,-357.842"/>
</g>
<!-- Node79 -->
<g id="node44" class="node">
<title>Node79</title>
<g id="a_node44"><a xlink:href="assets_8h.html" target="_top" xlink:title="assets.h">
<polygon fill="#ffffff" stroke="#000000" points="1473.9931,-347.5 1473.9931,-366.5 1527.9931,-366.5 1527.9931,-347.5 1473.9931,-347.5"/>
<text text-anchor="middle" x="1500.9931" y="-354.5" font-family="Helvetica,sans-Serif" font-size="10.00" fill="#000000">assets.h</text>
</a>
</g>
</g>
<!-- Node0&#45;&gt;Node79 -->
<g id="edge93" class="edge">
<title>Node0&#45;&gt;Node79</title>
<path fill="none" stroke="#191970" d="M1638.4567,-403.3733C1610.6397,-393.9892 1568.2103,-379.6757 1537.852,-369.4343"/>
<polygon fill="#191970" stroke="#191970" points="1538.6521,-366.0105 1528.0579,-366.1303 1536.4145,-372.6432 1538.6521,-366.0105"/>
</g>
<!-- Node83 -->
<g id="node49" class="node">
<title>Node83</title>
<polygon fill="#ffffff" stroke="#bfbfbf" points="1898.9931,-347.5 1898.9931,-366.5 1964.9931,-366.5 1964.9931,-347.5 1898.9931,-347.5"/>
<text text-anchor="middle" x="1931.9931" y="-354.5" font-family="Helvetica,sans-Serif" font-size="10.00" fill="#000000">validation.h</text>
</g>
<!-- Node0&#45;&gt;Node83 -->
<g id="edge109" class="edge">
<title>Node0&#45;&gt;Node83</title>
<path fill="none" stroke="#191970" d="M1712.5088,-403.419C1756.614,-394.1294 1825.3943,-379.6282 1884.9931,-367 1886.2555,-366.7325 1887.537,-366.4608 1888.8306,-366.1864"/>
<polygon fill="#191970" stroke="#191970" points="1889.8156,-369.5554 1898.8705,-364.0546 1888.3616,-362.7081 1889.8156,-369.5554"/>
</g>
<!-- Node84 -->
<g id="node50" class="node">
<title>Node84</title>
<polygon fill="#ffffff" stroke="#bfbfbf" points="1983.4931,-347.5 1983.4931,-366.5 2072.4931,-366.5 2072.4931,-347.5 1983.4931,-347.5"/>
<text text-anchor="middle" x="2027.9931" y="-354.5" font-family="Helvetica,sans-Serif" font-size="10.00" fill="#000000">boost/thread.hpp</text>
</g>
<!-- Node0&#45;&gt;Node84 -->
<g id="edge110" class="edge">
<title>Node0&#45;&gt;Node84</title>
<path fill="none" stroke="#191970" d="M1726.5161,-404.6997C1786.2591,-396.2289 1881.1858,-382.3908 1973.1822,-367.091"/>
<polygon fill="#191970" stroke="#191970" points="1973.9385,-370.5132 1983.2249,-365.4129 1972.7848,-363.6089 1973.9385,-370.5132"/>
</g>
<!-- Node3 -->
<g id="node4" class="node">
<title>Node3</title>
<g id="a_node4"><a xlink:href="uint256_8h.html" target="_top" xlink:title="uint256.h">
<polygon fill="#ffffff" stroke="#000000" points="1594.9931,-179.5 1594.9931,-198.5 1650.9931,-198.5 1650.9931,-179.5 1594.9931,-179.5"/>
<text text-anchor="middle" x="1622.9931" y="-186.5" font-family="Helvetica,sans-Serif" font-size="10.00" fill="#000000">uint256.h</text>
</a>
</g>
</g>
<!-- Node2&#45;&gt;Node3 -->
<g id="edge3" class="edge">
<title>Node2&#45;&gt;Node3</title>
<path fill="none" stroke="#191970" d="M1364.7181,-236.9009C1419.344,-228.4189 1506.3314,-214.2316 1580.9931,-199 1582.2324,-198.7472 1583.4909,-198.4842 1584.7605,-198.2136"/>
<polygon fill="#191970" stroke="#191970" points="1585.5808,-201.6167 1594.5821,-196.0287 1584.0606,-194.7838 1585.5808,-201.6167"/>
</g>
<!-- Node8 -->
<g id="node9" class="node">
<title>Node8</title>
<polygon fill="#ffffff" stroke="#bfbfbf" points="1302.4931,-118 1302.4931,-137 1343.4931,-137 1343.4931,-118 1302.4931,-118"/>
<text text-anchor="middle" x="1322.9931" y="-125" font-family="Helvetica,sans-Serif" font-size="10.00" fill="#000000">string</text>
</g>
<!-- Node2&#45;&gt;Node8 -->
<g id="edge16" class="edge">
<title>Node2&#45;&gt;Node8</title>
<path fill="none" stroke="#191970" d="M1311.9751,-235.3845C1313.9352,-216.1913 1318.3681,-172.786 1320.9744,-147.2663"/>
<polygon fill="#191970" stroke="#191970" points="1324.4633,-147.5523 1321.9975,-137.2484 1317.4995,-146.841 1324.4633,-147.5523"/>
</g>
<!-- Node14 -->
<g id="node14" class="node">
<title>Node14</title>
<polygon fill="#ffffff" stroke="#bfbfbf" points="1249.4931,-118 1249.4931,-137 1284.4931,-137 1284.4931,-118 1249.4931,-118"/>
<text text-anchor="middle" x="1266.9931" y="-125" font-family="Helvetica,sans-Serif" font-size="10.00" fill="#000000">map</text>
</g>
<!-- Node2&#45;&gt;Node14 -->
<g id="edge15" class="edge">
<title>Node2&#45;&gt;Node14</title>
<path fill="none" stroke="#191970" d="M1307.3924,-235.3845C1300.1729,-216.1053 1283.8053,-172.3963 1274.2668,-146.9241"/>
<polygon fill="#191970" stroke="#191970" points="1277.4282,-145.3859 1270.6435,-137.2484 1270.8727,-147.8407 1277.4282,-145.3859"/>
</g>
<!-- Node4 -->
<g id="node5" class="node">
<title>Node4</title>
<polygon fill="#ffffff" stroke="#bfbfbf" points="255.9931,-56.5 255.9931,-75.5 307.9931,-75.5 307.9931,-56.5 255.9931,-56.5"/>
<text text-anchor="middle" x="281.9931" y="-63.5" font-family="Helvetica,sans-Serif" font-size="10.00" fill="#000000">assert.h</text>
</g>
<!-- Node3&#45;&gt;Node4 -->
<g id="edge4" class="edge">
<title>Node3&#45;&gt;Node4</title>
<path fill="none" stroke="#191970" d="M1594.6875,-185.1392C1541.0905,-177.5436 1426.9362,-159.922 1390.9931,-143 1371.2733,-133.7159 1373.3757,-119.7208 1352.9931,-112 1259.1949,-76.4698 551.1722,-80.9626 450.9931,-76 405.102,-73.7267 352.2379,-70.5008 318.03,-68.3334"/>
<polygon fill="#191970" stroke="#191970" points="318.2433,-64.84 308.041,-67.697 317.7982,-71.8259 318.2433,-64.84"/>
</g>
<!-- Node5 -->
<g id="node6" class="node">
<title>Node5</title>
<polygon fill="#ffffff" stroke="#bfbfbf" points="1623.9931,-118 1623.9931,-137 1669.9931,-137 1669.9931,-118 1623.9931,-118"/>
<text text-anchor="middle" x="1646.9931" y="-125" font-family="Helvetica,sans-Serif" font-size="10.00" fill="#000000">cstring</text>
</g>
<!-- Node3&#45;&gt;Node5 -->
<g id="edge5" class="edge">
<title>Node3&#45;&gt;Node5</title>
<path fill="none" stroke="#191970" d="M1626.7431,-179.3906C1630.1399,-170.6862 1635.2462,-157.6015 1639.4811,-146.7494"/>
<polygon fill="#191970" stroke="#191970" points="1642.8152,-147.8331 1643.1902,-137.2449 1636.2942,-145.2882 1642.8152,-147.8331"/>
</g>
<!-- Node6 -->
<g id="node7" class="node">
<title>Node6</title>
<polygon fill="#ffffff" stroke="#bfbfbf" points="1688.4931,-118 1688.4931,-137 1747.4931,-137 1747.4931,-118 1688.4931,-118"/>
<text text-anchor="middle" x="1717.9931" y="-125" font-family="Helvetica,sans-Serif" font-size="10.00" fill="#000000">stdexcept</text>
</g>
<!-- Node3&#45;&gt;Node6 -->
<g id="edge6" class="edge">
<title>Node3&#45;&gt;Node6</title>
<path fill="none" stroke="#191970" d="M1637.8368,-179.3906C1653.0349,-169.5519 1676.8779,-154.1167 1694.6137,-142.6351"/>
<polygon fill="#191970" stroke="#191970" points="1696.7611,-145.4144 1703.2536,-137.0419 1692.957,-139.5382 1696.7611,-145.4144"/>
</g>
<!-- Node7 -->
<g id="node8" class="node">
<title>Node7</title>
<polygon fill="#ffffff" stroke="#bfbfbf" points="1476.4931,-.5 1476.4931,-19.5 1525.4931,-19.5 1525.4931,-.5 1476.4931,-.5"/>
<text text-anchor="middle" x="1500.9931" y="-7.5" font-family="Helvetica,sans-Serif" font-size="10.00" fill="#000000">stdint.h</text>
</g>
<!-- Node3&#45;&gt;Node7 -->
<g id="edge7" class="edge">
<title>Node3&#45;&gt;Node7</title>
<path fill="none" stroke="#191970" d="M1621.4045,-179.2737C1617.149,-155.7797 1603.5997,-95.0024 1571.9931,-56 1561.3242,-42.8347 1545.8507,-32.1928 1532.0703,-24.474"/>
<polygon fill="#191970" stroke="#191970" points="1533.355,-21.1936 1522.8804,-19.602 1530.0762,-27.3783 1533.355,-21.1936"/>
</g>
<!-- Node3&#45;&gt;Node8 -->
<g id="edge8" class="edge">
<title>Node3&#45;&gt;Node8</title>
<path fill="none" stroke="#191970" d="M1594.7161,-184.9875C1535.8856,-176.4934 1402.1207,-156.3792 1357.9931,-143 1355.8745,-142.3577 1353.7146,-141.62 1351.5601,-140.8228"/>
<polygon fill="#191970" stroke="#191970" points="1352.875,-137.5792 1342.293,-137.0565 1350.2394,-144.0641 1352.875,-137.5792"/>
</g>
<!-- Node9 -->
<g id="node10" class="node">
<title>Node9</title>
<polygon fill="#ffffff" stroke="#bfbfbf" points="721.9931,-118 721.9931,-137 765.9931,-137 765.9931,-118 721.9931,-118"/>
<text text-anchor="middle" x="743.9931" y="-125" font-family="Helvetica,sans-Serif" font-size="10.00" fill="#000000">vector</text>
</g>
<!-- Node3&#45;&gt;Node9 -->
<g id="edge9" class="edge">
<title>Node3&#45;&gt;Node9</title>
<path fill="none" stroke="#191970" d="M1594.9213,-184.6746C1580.8631,-182.657 1563.5624,-180.3979 1547.9931,-179 1376.7181,-163.6221 941.3923,-186.3926 774.9931,-143 773.0717,-142.4989 771.1305,-141.8695 769.2066,-141.1531"/>
<polygon fill="#191970" stroke="#191970" points="770.4635,-137.882 759.9023,-137.0383 767.6322,-144.2839 770.4635,-137.882"/>
</g>
<!-- Node10 -->
<g id="node11" class="node">
<title>Node10</title>
<g id="a_node11"><a xlink:href="common_8h.html" target="_top" xlink:title="crypto/common.h">
<polygon fill="#ffffff" stroke="#000000" points="1399.9931,-118 1399.9931,-137 1491.9931,-137 1491.9931,-118 1399.9931,-118"/>
<text text-anchor="middle" x="1445.9931" y="-125" font-family="Helvetica,sans-Serif" font-size="10.00" fill="#000000">crypto/common.h</text>
</a>
</g>
</g>
<!-- Node3&#45;&gt;Node10 -->
<g id="edge10" class="edge">
<title>Node3&#45;&gt;Node10</title>
<path fill="none" stroke="#191970" d="M1595.3368,-179.3906C1565.072,-168.8749 1516.4075,-151.966 1482.902,-140.3243"/>
<polygon fill="#191970" stroke="#191970" points="1484.0499,-137.0179 1473.4551,-137.0419 1481.7524,-143.6302 1484.0499,-137.0179"/>
</g>
<!-- Node10&#45;&gt;Node7 -->
<g id="edge11" class="edge">
<title>Node10&#45;&gt;Node7</title>
<path fill="none" stroke="#191970" d="M1450.494,-117.8845C1459.5586,-98.5192 1480.1607,-54.5055 1492.0601,-29.084"/>
<polygon fill="#191970" stroke="#191970" points="1495.3605,-30.2891 1496.43,-19.7484 1489.0206,-27.3215 1495.3605,-30.2891"/>
</g>
<!-- Node11 -->
<g id="node12" class="node">
<title>Node11</title>
<polygon fill="#ffffff" stroke="#bfbfbf" points="459.4931,-56.5 459.4931,-75.5 508.4931,-75.5 508.4931,-56.5 459.4931,-56.5"/>
<text text-anchor="middle" x="483.9931" y="-63.5" font-family="Helvetica,sans-Serif" font-size="10.00" fill="#000000">string.h</text>
</g>
<!-- Node10&#45;&gt;Node11 -->
<g id="edge12" class="edge">
<title>Node10&#45;&gt;Node11</title>
<path fill="none" stroke="#191970" d="M1413.8568,-117.9244C1404.9112,-115.6084 1395.139,-113.3999 1385.9931,-112 1214.1789,-85.7023 663.4585,-70.4536 518.9748,-66.8397"/>
<polygon fill="#191970" stroke="#191970" points="518.9868,-63.339 508.9032,-66.5903 518.8135,-70.3369 518.9868,-63.339"/>
</g>
<!-- Node12 -->
<g id="node13" class="node">
<title>Node12</title>
<g id="a_node13"><a xlink:href="endian_8h.html" target="_top" xlink:title="compat/endian.h">
<polygon fill="#ffffff" stroke="#ff0000" points="1364.4931,-56.5 1364.4931,-75.5 1453.4931,-75.5 1453.4931,-56.5 1364.4931,-56.5"/>
<text text-anchor="middle" x="1408.9931" y="-63.5" font-family="Helvetica,sans-Serif" font-size="10.00" fill="#000000">compat/endian.h</text>
</a>
</g>
</g>
<!-- Node10&#45;&gt;Node12 -->
<g id="edge13" class="edge">
<title>Node10&#45;&gt;Node12</title>
<path fill="none" stroke="#191970" d="M1440.2118,-117.8906C1434.8671,-109.0068 1426.7772,-95.5601 1420.1719,-84.5811"/>
<polygon fill="#191970" stroke="#191970" points="1423.0102,-82.5093 1414.8558,-75.7449 1417.012,-86.118 1423.0102,-82.5093"/>
</g>
<!-- Node12&#45;&gt;Node7 -->
<g id="edge14" class="edge">
<title>Node12&#45;&gt;Node7</title>
<path fill="none" stroke="#191970" d="M1425.0183,-56.2455C1439.1339,-47.6534 1459.9194,-35.0014 1476.183,-25.1018"/>
<polygon fill="#191970" stroke="#191970" points="1478.4294,-27.8319 1485.1515,-19.6427 1474.7897,-21.8525 1478.4294,-27.8319"/>
</g>
<!-- Node15&#45;&gt;Node7 -->
<g id="edge26" class="edge">
<title>Node15&#45;&gt;Node7</title>
<path fill="none" stroke="#191970" d="M1941.3678,-291.575C1988.7665,-277.8312 2060.9931,-247.3202 2060.9931,-189 2060.9931,-189 2060.9931,-189 2060.9931,-127.5 2060.9931,-61.949 1994.4947,-75.7607 1931.9931,-56 1858.1326,-32.6481 1624.3133,-17.1048 1535.591,-11.9139"/>
<polygon fill="#191970" stroke="#191970" points="1535.6961,-8.4142 1525.511,-11.3323 1535.2928,-15.4026 1535.6961,-8.4142"/>
</g>
<!-- Node16 -->
<g id="node16" class="node">
<title>Node16</title>
<g id="a_node16"><a xlink:href="standard_8h.html" target="_top" xlink:title="script/standard.h">
<polygon fill="#ffffff" stroke="#000000" points="1684.4931,-235.5 1684.4931,-254.5 1773.4931,-254.5 1773.4931,-235.5 1684.4931,-235.5"/>
<text text-anchor="middle" x="1728.9931" y="-242.5" font-family="Helvetica,sans-Serif" font-size="10.00" fill="#000000">script/standard.h</text>
</a>
</g>
</g>
<!-- Node15&#45;&gt;Node16 -->
<g id="edge18" class="edge">
<title>Node15&#45;&gt;Node16</title>
<path fill="none" stroke="#191970" d="M1871.4252,-291.3733C1842.8242,-282.0613 1799.3142,-267.8953 1767.9112,-257.671"/>
<polygon fill="#191970" stroke="#191970" points="1768.7674,-254.269 1758.1751,-254.5011 1766.6002,-260.9251 1768.7674,-254.269"/>
</g>
<!-- Node16&#45;&gt;Node3 -->
<g id="edge23" class="edge">
<title>Node16&#45;&gt;Node3</title>
<path fill="none" stroke="#191970" d="M1710.5293,-235.2455C1693.8856,-226.4527 1669.1938,-213.4079 1650.2739,-203.4125"/>
<polygon fill="#191970" stroke="#191970" points="1651.7222,-200.2193 1641.2453,-198.6427 1648.4523,-206.4086 1651.7222,-200.2193"/>
</g>
<!-- Node16&#45;&gt;Node7 -->
<g id="edge25" class="edge">
<title>Node16&#45;&gt;Node7</title>
<path fill="none" stroke="#191970" d="M1753.1439,-235.4382C1812.2239,-211.937 1959.6969,-152.5643 1965.9931,-143 1973.5688,-131.492 1974.6289,-122.7354 1965.9931,-112 1911.6373,-44.4287 1633.9288,-19.0979 1535.5757,-12.1612"/>
<polygon fill="#191970" stroke="#191970" points="1535.7742,-8.6667 1525.5584,-11.4751 1535.2958,-15.6504 1535.7742,-8.6667"/>
</g>
<!-- Node17 -->
<g id="node17" class="node">
<title>Node17</title>
<g id="a_node17"><a xlink:href="interpreter_8h.html" target="_top" xlink:title="script/interpreter.h">
<polygon fill="#ffffff" stroke="#ff0000" points="1443.4931,-179.5 1443.4931,-198.5 1538.4931,-198.5 1538.4931,-179.5 1443.4931,-179.5"/>
<text text-anchor="middle" x="1490.9931" y="-186.5" font-family="Helvetica,sans-Serif" font-size="10.00" fill="#000000">script/interpreter.h</text>
</a>
</g>
</g>
<!-- Node16&#45;&gt;Node17 -->
<g id="edge19" class="edge">
<title>Node16&#45;&gt;Node17</title>
<path fill="none" stroke="#191970" d="M1688.3498,-235.4369C1647.7036,-225.8731 1585.1018,-211.1432 1541.3343,-200.845"/>
<polygon fill="#191970" stroke="#191970" points="1542.0045,-197.4072 1531.4687,-198.5237 1540.4012,-204.2211 1542.0045,-197.4072"/>
</g>
<!-- Node34 -->
<g id="node18" class="node">
<title>Node34</title>
<polygon fill="#ffffff" stroke="#bfbfbf" points="1902.9931,-179.5 1902.9931,-198.5 1994.9931,-198.5 1994.9931,-179.5 1902.9931,-179.5"/>
<text text-anchor="middle" x="1948.9931" y="-186.5" font-family="Helvetica,sans-Serif" font-size="10.00" fill="#000000">boost/variant.hpp</text>
</g>
<!-- Node16&#45;&gt;Node34 -->
<g id="edge24" class="edge">
<title>Node16&#45;&gt;Node34</title>
<path fill="none" stroke="#191970" d="M1766.8124,-235.3733C1804.1869,-225.8598 1861.4655,-211.2797 1901.8002,-201.0127"/>
<polygon fill="#191970" stroke="#191970" points="1902.8397,-204.3598 1911.6672,-198.5011 1901.1129,-197.5761 1902.8397,-204.3598"/>
</g>
<!-- Node17&#45;&gt;Node7 -->
<g id="edge21" class="edge">
<title>Node17&#45;&gt;Node7</title>
<path fill="none" stroke="#191970" d="M1493.7552,-179.2293C1496.2157,-169.985 1499.6311,-155.6764 1500.9931,-143 1505.2904,-103.0026 1503.7387,-55.8477 1502.3088,-29.8016"/>
<polygon fill="#191970" stroke="#191970" points="1505.7963,-29.4883 1501.7013,-19.7169 1498.809,-29.9093 1505.7963,-29.4883"/>
</g>
<!-- Node17&#45;&gt;Node8 -->
<g id="edge22" class="edge">
<title>Node17&#45;&gt;Node8</title>
<path fill="none" stroke="#191970" d="M1461.1508,-179.4739C1434.0229,-170.6267 1393.005,-156.7793 1357.9931,-143 1356.3775,-142.3642 1354.7272,-141.6967 1353.0661,-141.0107"/>
<polygon fill="#191970" stroke="#191970" points="1354.1712,-137.6769 1343.6,-136.9695 1351.4228,-144.1148 1354.1712,-137.6769"/>
</g>
<!-- Node17&#45;&gt;Node9 -->
<g id="edge20" class="edge">
<title>Node17&#45;&gt;Node9</title>
<path fill="none" stroke="#191970" d="M1443.173,-188.3981C1304.0846,-186.2578 901.5556,-177.1978 774.9931,-143 773.2758,-142.536 771.5418,-141.9725 769.8178,-141.3386"/>
<polygon fill="#191970" stroke="#191970" points="770.8033,-137.9492 760.2393,-137.1418 767.9941,-144.3608 770.8033,-137.9492"/>
</g>
<!-- Node35&#45;&gt;Node6 -->
<g id="edge32" class="edge">
<title>Node35&#45;&gt;Node6</title>
<path fill="none" stroke="#191970" d="M1705.3368,-179.3906C1707.438,-170.776 1710.5856,-157.8708 1713.2161,-147.0858"/>
<polygon fill="#191970" stroke="#191970" points="1716.647,-147.7894 1715.6163,-137.2449 1709.8463,-146.1307 1716.647,-147.7894"/>
</g>
<!-- Node27 -->
<g id="node20" class="node">
<title>Node27</title>
<polygon fill="#ffffff" stroke="#bfbfbf" points="583.9931,-118 583.9931,-137 639.9931,-137 639.9931,-118 583.9931,-118"/>
<text text-anchor="middle" x="611.9931" y="-125" font-family="Helvetica,sans-Serif" font-size="10.00" fill="#000000">algorithm</text>
</g>
<!-- Node35&#45;&gt;Node27 -->
<g id="edge28" class="edge">
<title>Node35&#45;&gt;Node27</title>
<path fill="none" stroke="#191970" d="M1668.8351,-180.4298C1665.8577,-179.8734 1662.8802,-179.3835 1659.9931,-179 1437.141,-149.4013 868.5709,-191.2152 648.9931,-143 646.1871,-142.3839 643.3247,-141.5638 640.497,-140.6216"/>
<polygon fill="#191970" stroke="#191970" points="641.7397,-137.3497 631.1486,-137.0663 639.2513,-143.8925 641.7397,-137.3497"/>
</g>
<!-- Node36 -->
<g id="node21" class="node">
<title>Node36</title>
<polygon fill="#ffffff" stroke="#bfbfbf" points="1765.4931,-118 1765.4931,-137 1814.4931,-137 1814.4931,-118 1765.4931,-118"/>
<text text-anchor="middle" x="1789.9931" y="-125" font-family="Helvetica,sans-Serif" font-size="10.00" fill="#000000">cassert</text>
</g>
<!-- Node35&#45;&gt;Node36 -->
<g id="edge29" class="edge">
<title>Node35&#45;&gt;Node36</title>
<path fill="none" stroke="#191970" d="M1716.5868,-179.3906C1730.3774,-169.6421 1751.9403,-154.3994 1768.1341,-142.9521"/>
<polygon fill="#191970" stroke="#191970" points="1770.3493,-145.6723 1776.4948,-137.0419 1766.3087,-139.9563 1770.3493,-145.6723"/>
</g>
<!-- Node37 -->
<g id="node22" class="node">
<title>Node37</title>
<polygon fill="#ffffff" stroke="#bfbfbf" points="1832.9931,-118 1832.9931,-137 1886.9931,-137 1886.9931,-118 1832.9931,-118"/>
<text text-anchor="middle" x="1859.9931" y="-125" font-family="Helvetica,sans-Serif" font-size="10.00" fill="#000000">iostream</text>
</g>
<!-- Node35&#45;&gt;Node37 -->
<g id="edge30" class="edge">
<title>Node35&#45;&gt;Node37</title>
<path fill="none" stroke="#191970" d="M1729.0838,-179.4527C1753.6756,-170.3663 1791.4995,-156.1644 1823.9931,-143 1825.4121,-142.4251 1826.8598,-141.8315 1828.3201,-141.227"/>
<polygon fill="#191970" stroke="#191970" points="1830.1153,-144.2686 1837.9717,-137.1603 1827.3973,-137.8179 1830.1153,-144.2686"/>
</g>
<!-- Node38 -->
<g id="node23" class="node">
<title>Node38</title>
<polygon fill="#ffffff" stroke="#bfbfbf" points="1904.9931,-118 1904.9931,-137 1956.9931,-137 1956.9931,-118 1904.9931,-118"/>
<text text-anchor="middle" x="1930.9931" y="-125" font-family="Helvetica,sans-Serif" font-size="10.00" fill="#000000">sstream</text>
</g>
<!-- Node35&#45;&gt;Node38 -->
<g id="edge31" class="edge">
<title>Node35&#45;&gt;Node38</title>
<path fill="none" stroke="#191970" d="M1737.3389,-181.6076C1784.5238,-171.3155 1866.8641,-152.8291 1895.9931,-143 1897.8349,-142.3785 1899.7127,-141.6967 1901.5943,-140.9764"/>
<polygon fill="#191970" stroke="#191970" points="1902.9667,-144.1965 1910.8842,-137.1563 1900.3045,-137.7225 1902.9667,-144.1965"/>
</g>
<!-- Node39&#45;&gt;Node8 -->
<g id="edge58" class="edge">
<title>Node39&#45;&gt;Node8</title>
<path fill="none" stroke="#191970" d="M1160.0813,-347.4309C1186.0026,-312.4371 1275.9013,-191.0739 1309.8635,-145.2249"/>
<polygon fill="#191970" stroke="#191970" points="1312.7347,-147.2289 1315.8746,-137.11 1307.1098,-143.0623 1312.7347,-147.2289"/>
</g>
<!-- Node39&#45;&gt;Node14 -->
<g id="edge59" class="edge">
<title>Node39&#45;&gt;Node14</title>
<path fill="none" stroke="#191970" d="M1153.7509,-347.1871C1155.6336,-326.038 1161.5392,-274.8497 1176.9931,-235 1187.5208,-207.8528 1192.539,-201.5222 1210.9931,-179 1221.5332,-166.1364 1235.2513,-153.4688 1246.4719,-143.9159"/>
<polygon fill="#191970" stroke="#191970" points="1249.0188,-146.3501 1254.4716,-137.2662 1244.5441,-140.9671 1249.0188,-146.3501"/>
</g>
<!-- Node40 -->
<g id="node25" class="node">
<title>Node40</title>
<g id="a_node25"><a xlink:href="fs_8h.html" target="_top" xlink:title="fs.h">
<polygon fill="#ffffff" stroke="#000000" points="900.4931,-179.5 900.4931,-198.5 933.4931,-198.5 933.4931,-179.5 900.4931,-179.5"/>
<text text-anchor="middle" x="916.9931" y="-186.5" font-family="Helvetica,sans-Serif" font-size="10.00" fill="#000000">fs.h</text>
</a>
</g>
</g>
<!-- Node39&#45;&gt;Node40 -->
<g id="edge34" class="edge">
<title>Node39&#45;&gt;Node40</title>
<path fill="none" stroke="#191970" d="M1139.6285,-347.4862C1100.6156,-319.7144 986.623,-238.5671 938.6583,-204.4227"/>
<polygon fill="#191970" stroke="#191970" points="940.68,-201.5657 930.5036,-198.6177 936.6205,-207.2683 940.68,-201.5657"/>
</g>
<!-- Node26 -->
<g id="node30" class="node">
<title>Node26</title>
<g id="a_node30"><a xlink:href="serialize_8h.html" target="_top" xlink:title="serialize.h">
<polygon fill="#ffffff" stroke="#000000" points="380.4931,-179.5 380.4931,-198.5 441.4931,-198.5 441.4931,-179.5 380.4931,-179.5"/>
<text text-anchor="middle" x="410.9931" y="-186.5" font-family="Helvetica,sans-Serif" font-size="10.00" fill="#000000">serialize.h</text>
</a>
</g>
</g>
<!-- Node39&#45;&gt;Node26 -->
<g id="edge40" class="edge">
<title>Node39&#45;&gt;Node26</title>
<path fill="none" stroke="#191970" d="M1123.2926,-348.8381C1120.168,-348.1435 1117.0257,-347.512 1113.9931,-347 964.719,-321.7963 555.0586,-352.1945 438.9931,-255 425.1531,-243.4103 418.0079,-223.7694 414.4139,-208.9195"/>
<polygon fill="#191970" stroke="#191970" points="417.7558,-207.7959 412.3057,-198.7103 410.9004,-209.2115 417.7558,-207.7959"/>
</g>
<!-- Node45 -->
<g id="node37" class="node">
<title>Node45</title>
<g id="a_node37"><a xlink:href="dbwrapper_8h.html" target="_top" xlink:title="dbwrapper.h">
<polygon fill="#ffffff" stroke="#ff0000" points="802.9931,-291.5 802.9931,-310.5 872.9931,-310.5 872.9931,-291.5 802.9931,-291.5"/>
<text text-anchor="middle" x="837.9931" y="-298.5" font-family="Helvetica,sans-Serif" font-size="10.00" fill="#000000">dbwrapper.h</text>
</a>
</g>
</g>
<!-- Node39&#45;&gt;Node45 -->
<g id="edge60" class="edge">
<title>Node39&#45;&gt;Node45</title>
<path fill="none" stroke="#191970" d="M1123.2444,-349.0918C1120.1292,-348.3477 1117.0023,-347.6353 1113.9931,-347 1033.1729,-329.9363 937.949,-315.246 883.1131,-307.3045"/>
<polygon fill="#191970" stroke="#191970" points="883.4251,-303.8134 873.0287,-305.8543 882.4286,-310.7422 883.4251,-303.8134"/>
</g>
<!-- Node40&#45;&gt;Node8 -->
<g id="edge36" class="edge">
<title>Node40&#45;&gt;Node8</title>
<path fill="none" stroke="#191970" d="M933.5696,-181.8779C936.6568,-180.7665 939.8887,-179.7423 942.9931,-179 1095.5125,-142.5332 1144.0188,-188.8227 1293.9931,-143 1295.4603,-142.5517 1296.9391,-142.0267 1298.4109,-141.446"/>
<polygon fill="#191970" stroke="#191970" points="1300.2575,-144.4458 1307.824,-137.0297 1297.2842,-138.1086 1300.2575,-144.4458"/>
</g>
<!-- Node41 -->
<g id="node26" class="node">
<title>Node41</title>
<polygon fill="#ffffff" stroke="#bfbfbf" points="657.9931,-118 657.9931,-137 703.9931,-137 703.9931,-118 657.9931,-118"/>
<text text-anchor="middle" x="680.9931" y="-125" font-family="Helvetica,sans-Serif" font-size="10.00" fill="#000000">stdio.h</text>
</g>
<!-- Node40&#45;&gt;Node41 -->
<g id="edge35" class="edge">
<title>Node40&#45;&gt;Node41</title>
<path fill="none" stroke="#191970" d="M900.4206,-185.7738C858.3398,-177.5001 748.2061,-155.3147 712.9931,-143 711.3907,-142.4396 709.7633,-141.8208 708.1347,-141.1625"/>
<polygon fill="#191970" stroke="#191970" points="709.5216,-137.9488 698.9613,-137.0934 706.6832,-144.3475 709.5216,-137.9488"/>
</g>
<!-- Node42 -->
<g id="node27" class="node">
<title>Node42</title>
<polygon fill="#ffffff" stroke="#bfbfbf" points="924.4931,-118 924.4931,-137 1031.4931,-137 1031.4931,-118 924.4931,-118"/>
<text text-anchor="middle" x="977.9931" y="-125" font-family="Helvetica,sans-Serif" font-size="10.00" fill="#000000">boost/filesystem.hpp</text>
</g>
<!-- Node40&#45;&gt;Node42 -->
<g id="edge37" class="edge">
<title>Node40&#45;&gt;Node42</title>
<path fill="none" stroke="#191970" d="M926.5243,-179.3906C935.781,-170.0581 950.0321,-155.6902 961.1934,-144.4374"/>
<polygon fill="#191970" stroke="#191970" points="963.7702,-146.8095 968.3274,-137.2449 958.8003,-141.88 963.7702,-146.8095"/>
</g>
<!-- Node43 -->
<g id="node28" class="node">
<title>Node43</title>
<polygon fill="#ffffff" stroke="#bfbfbf" points="1049.4931,-118 1049.4931,-137 1192.4931,-137 1192.4931,-118 1049.4931,-118"/>
<text text-anchor="middle" x="1120.9931" y="-125" font-family="Helvetica,sans-Serif" font-size="10.00" fill="#000000">boost/filesystem/fstream.hpp</text>
</g>
<!-- Node40&#45;&gt;Node43 -->
<g id="edge38" class="edge">
<title>Node40&#45;&gt;Node43</title>
<path fill="none" stroke="#191970" d="M933.7001,-182.3326C936.774,-181.1749 939.9676,-180.0174 942.9931,-179 987.3093,-164.0971 1038.6774,-149.5169 1074.8071,-139.6962"/>
<polygon fill="#191970" stroke="#191970" points="1075.8345,-143.0441 1084.5749,-137.0561 1074.0081,-136.2866 1075.8345,-143.0441"/>
</g>
<!-- Node44 -->
<g id="node29" class="node">
<title>Node44</title>
<polygon fill="#ffffff" stroke="#bfbfbf" points="783.9931,-112.5 783.9931,-142.5 905.9931,-142.5 905.9931,-112.5 783.9931,-112.5"/>
<text text-anchor="start" x="791.9931" y="-130.5" font-family="Helvetica,sans-Serif" font-size="10.00" fill="#000000">boost/filesystem/detail</text>
<text text-anchor="middle" x="844.9931" y="-119.5" font-family="Helvetica,sans-Serif" font-size="10.00" fill="#000000">/utf8_codecvt_facet.hpp</text>
</g>
<!-- Node40&#45;&gt;Node44 -->
<g id="edge39" class="edge">
<title>Node40&#45;&gt;Node44</title>
<path fill="none" stroke="#191970" d="M905.7431,-179.3906C896.2694,-171.2986 882.3637,-159.4207 870.2463,-149.0705"/>
<polygon fill="#191970" stroke="#191970" points="872.4832,-146.3782 862.6063,-142.5446 867.9368,-151.7008 872.4832,-146.3782"/>
</g>
<!-- Node26&#45;&gt;Node4 -->
<g id="edge43" class="edge">
<title>Node26&#45;&gt;Node4</title>
<path fill="none" stroke="#191970" d="M380.3736,-183.183C343.4803,-175.4793 284.8314,-160.7718 271.9931,-143 259.834,-126.1686 265.927,-101.7157 272.71,-84.9062"/>
<polygon fill="#191970" stroke="#191970" points="275.9992,-86.1234 276.8655,-75.5641 269.6034,-83.2784 275.9992,-86.1234"/>
</g>
<!-- Node26&#45;&gt;Node7 -->
<g id="edge49" class="edge">
<title>Node26&#45;&gt;Node7</title>
<path fill="none" stroke="#191970" d="M380.2263,-185.4959C316.9179,-177.9765 176.8174,-159.6243 162.9931,-143 154.1838,-132.4065 156.4919,-124.1475 162.9931,-112 184.1649,-72.4401 204.2948,-69.7874 246.9931,-56 365.7085,-17.6664 1275.8871,-11.1043 1466.1824,-10.1475"/>
<polygon fill="#191970" stroke="#191970" points="1466.4569,-13.6463 1476.4398,-10.098 1466.423,-6.6464 1466.4569,-13.6463"/>
</g>
<!-- Node26&#45;&gt;Node8 -->
<g id="edge50" class="edge">
<title>Node26&#45;&gt;Node8</title>
<path fill="none" stroke="#191970" d="M441.5706,-188.198C587.6171,-184.2609 1210.5302,-166.2294 1293.9931,-143 1295.6567,-142.537 1297.3321,-141.9669 1298.9933,-141.3217"/>
<polygon fill="#191970" stroke="#191970" points="1300.5984,-144.4348 1308.1704,-137.0242 1297.6298,-138.0955 1300.5984,-144.4348"/>
</g>
<!-- Node26&#45;&gt;Node9 -->
<g id="edge53" class="edge">
<title>Node26&#45;&gt;Node9</title>
<path fill="none" stroke="#191970" d="M441.711,-187.4839C497.1163,-184.0604 616.9497,-173.4904 712.9931,-143 714.6491,-142.4743 716.3259,-141.8699 717.9978,-141.2114"/>
<polygon fill="#191970" stroke="#191970" points="719.6504,-144.3061 727.3398,-137.0175 716.7835,-137.9201 719.6504,-144.3061"/>
</g>
<!-- Node26&#45;&gt;Node11 -->
<g id="edge51" class="edge">
<title>Node26&#45;&gt;Node11</title>
<path fill="none" stroke="#191970" d="M405.444,-179.2315C397.4969,-163.8148 385.1717,-133.3982 397.9931,-112 409.1323,-93.4092 430.6313,-81.9093 449.346,-75.0571"/>
<polygon fill="#191970" stroke="#191970" points="450.7165,-78.2894 459.0903,-71.7988 448.4965,-71.6507 450.7165,-78.2894"/>
</g>
<!-- Node26&#45;&gt;Node12 -->
<g id="edge41" class="edge">
<title>Node26&#45;&gt;Node12</title>
<path fill="none" stroke="#191970" d="M410.221,-179.3186C409.4831,-162.5808 410.7255,-128.4512 430.9931,-112 467.0308,-82.7481 1153.7123,-69.9234 1354.372,-66.7906"/>
<polygon fill="#191970" stroke="#191970" points="1354.447,-70.29 1364.3918,-66.636 1354.3389,-63.2908 1354.447,-70.29"/>
</g>
<!-- Node26&#45;&gt;Node14 -->
<g id="edge46" class="edge">
<title>Node26&#45;&gt;Node14</title>
<path fill="none" stroke="#191970" d="M441.5774,-187.9424C568.1131,-183.4556 1051.0998,-165.2021 1201.9931,-143 1214.3835,-141.1769 1227.8826,-138.1351 1239.352,-135.2266"/>
<polygon fill="#191970" stroke="#191970" points="1240.4427,-138.5589 1249.2245,-132.6318 1238.6633,-131.7888 1240.4427,-138.5589"/>
</g>
<!-- Node26&#45;&gt;Node27 -->
<g id="edge42" class="edge">
<title>Node26&#45;&gt;Node27</title>
<path fill="none" stroke="#191970" d="M441.5665,-181.6264C474.7692,-173.3411 529.1939,-158.948 574.9931,-143 576.8676,-142.3473 578.7833,-141.6478 580.7078,-140.92"/>
<polygon fill="#191970" stroke="#191970" points="582.2501,-144.0735 590.2536,-137.1313 579.6677,-137.5673 582.2501,-144.0735"/>
</g>
<!-- Node28 -->
<g id="node31" class="node">
<title>Node28</title>
<polygon fill="#ffffff" stroke="#bfbfbf" points="86.4931,-118 86.4931,-137 115.4931,-137 115.4931,-118 86.4931,-118"/>
<text text-anchor="middle" x="100.9931" y="-125" font-family="Helvetica,sans-Serif" font-size="10.00" fill="#000000">ios</text>
</g>
<!-- Node26&#45;&gt;Node28 -->
<g id="edge44" class="edge">
<title>Node26&#45;&gt;Node28</title>
<path fill="none" stroke="#191970" d="M380.4452,-185.2852C317.6533,-177.4399 176.1124,-158.6198 129.9931,-143 128.3203,-142.4335 126.6282,-141.7775 124.9461,-141.0619"/>
<polygon fill="#191970" stroke="#191970" points="126.1449,-137.7528 115.6219,-136.5208 123.0798,-144.0461 126.1449,-137.7528"/>
</g>
<!-- Node29 -->
<g id="node32" class="node">
<title>Node29</title>
<polygon fill="#ffffff" stroke="#bfbfbf" points="439.9931,-118 439.9931,-137 479.9931,-137 479.9931,-118 439.9931,-118"/>
<text text-anchor="middle" x="459.9931" y="-125" font-family="Helvetica,sans-Serif" font-size="10.00" fill="#000000">limits</text>
</g>
<!-- Node26&#45;&gt;Node29 -->
<g id="edge45" class="edge">
<title>Node26&#45;&gt;Node29</title>
<path fill="none" stroke="#191970" d="M418.6493,-179.3906C425.942,-170.2376 437.0938,-156.2409 445.9783,-145.09"/>
<polygon fill="#191970" stroke="#191970" points="448.7348,-147.247 452.2289,-137.2449 443.26,-142.8849 448.7348,-147.247"/>
</g>
<!-- Node30 -->
<g id="node33" class="node">
<title>Node30</title>
<polygon fill="#ffffff" stroke="#bfbfbf" points="171.9931,-118 171.9931,-137 223.9931,-137 223.9931,-118 171.9931,-118"/>
<text text-anchor="middle" x="197.9931" y="-125" font-family="Helvetica,sans-Serif" font-size="10.00" fill="#000000">memory</text>
</g>
<!-- Node26&#45;&gt;Node30 -->
<g id="edge47" class="edge">
<title>Node26&#45;&gt;Node30</title>
<path fill="none" stroke="#191970" d="M380.3842,-181.9386C345.577,-173.6605 287.1959,-159.0209 237.9931,-143 235.7225,-142.2607 233.3933,-141.4634 231.0556,-140.6343"/>
<polygon fill="#191970" stroke="#191970" points="232.121,-137.2967 221.5277,-137.1137 229.6947,-143.8628 232.121,-137.2967"/>
</g>
<!-- Node31 -->
<g id="node34" class="node">
<title>Node31</title>
<polygon fill="#ffffff" stroke="#bfbfbf" points="535.9931,-118 535.9931,-137 565.9931,-137 565.9931,-118 535.9931,-118"/>
<text text-anchor="middle" x="550.9931" y="-125" font-family="Helvetica,sans-Serif" font-size="10.00" fill="#000000">set</text>
</g>
<!-- Node26&#45;&gt;Node31 -->
<g id="edge48" class="edge">
<title>Node26&#45;&gt;Node31</title>
<path fill="none" stroke="#191970" d="M432.8681,-179.3906C458.2357,-168.247 499.9465,-149.924 526.4129,-138.2977"/>
<polygon fill="#191970" stroke="#191970" points="527.9962,-141.4251 535.7441,-134.1987 525.1809,-135.0162 527.9962,-141.4251"/>
</g>
<!-- Node32 -->
<g id="node35" class="node">
<title>Node32</title>
<polygon fill="#ffffff" stroke="#bfbfbf" points="27.9931,-118 27.9931,-137 67.9931,-137 67.9931,-118 27.9931,-118"/>
<text text-anchor="middle" x="47.9931" y="-125" font-family="Helvetica,sans-Serif" font-size="10.00" fill="#000000">utility</text>
</g>
<!-- Node26&#45;&gt;Node32 -->
<g id="edge52" class="edge">
<title>Node26&#45;&gt;Node32</title>
<path fill="none" stroke="#191970" d="M380.3883,-188.2173C320.8056,-185.9488 185.6397,-177.136 77.9931,-143 76.5262,-142.5348 75.0447,-142.0021 73.567,-141.4205"/>
<polygon fill="#191970" stroke="#191970" points="74.6154,-138.0513 64.0659,-137.0728 71.7027,-144.4165 74.6154,-138.0513"/>
</g>
<!-- Node22 -->
<g id="node36" class="node">
<title>Node22</title>
<g id="a_node36"><a xlink:href="prevector_8h.html" target="_top" xlink:title="prevector.h">
<polygon fill="#ffffff" stroke="#ff0000" points="280.4931,-118 280.4931,-137 345.4931,-137 345.4931,-118 280.4931,-118"/>
<text text-anchor="middle" x="312.9931" y="-125" font-family="Helvetica,sans-Serif" font-size="10.00" fill="#000000">prevector.h</text>
</a>
</g>
</g>
<!-- Node26&#45;&gt;Node22 -->
<g id="edge54" class="edge">
<title>Node26&#45;&gt;Node22</title>
<path fill="none" stroke="#191970" d="M395.6806,-179.3906C379.9306,-169.5067 355.1808,-153.9749 336.8594,-142.4773"/>
<polygon fill="#191970" stroke="#191970" points="338.5288,-139.3929 328.1981,-137.0419 334.8079,-145.3221 338.5288,-139.3929"/>
</g>
<!-- Node22&#45;&gt;Node4 -->
<g id="edge55" class="edge">
<title>Node22&#45;&gt;Node4</title>
<path fill="none" stroke="#191970" d="M308.1493,-117.8906C303.7165,-109.0965 297.03,-95.8312 291.5272,-84.9145"/>
<polygon fill="#191970" stroke="#191970" points="294.5317,-83.0992 286.9051,-75.7449 288.2809,-86.25 294.5317,-83.0992"/>
</g>
<!-- Node22&#45;&gt;Node7 -->
<g id="edge56" class="edge">
<title>Node22&#45;&gt;Node7</title>
<path fill="none" stroke="#191970" d="M326.6566,-117.8155C350.5314,-101.5122 401.9816,-69.0858 450.9931,-56 550.7715,-29.3597 1295.2573,-13.8625 1466.1163,-10.6345"/>
<polygon fill="#191970" stroke="#191970" points="1466.373,-14.1304 1476.3057,-10.4437 1466.2419,-7.1316 1466.373,-14.1304"/>
</g>
<!-- Node22&#45;&gt;Node11 -->
<g id="edge57" class="edge">
<title>Node22&#45;&gt;Node11</title>
<path fill="none" stroke="#191970" d="M339.7118,-117.8906C369.4211,-107.2057 417.4829,-89.9203 449.8861,-78.2665"/>
<polygon fill="#191970" stroke="#191970" points="451.1765,-81.522 459.402,-74.8442 448.8075,-74.935 451.1765,-81.522"/>
</g>
<!-- Node45&#45;&gt;Node40 -->
<g id="edge64" class="edge">
<title>Node45&#45;&gt;Node40</title>
<path fill="none" stroke="#191970" d="M844.7286,-291.4509C857.9631,-272.688 887.5411,-230.7548 904.4674,-206.758"/>
<polygon fill="#191970" stroke="#191970" points="907.3707,-208.714 910.2746,-198.5249 901.6505,-204.6792 907.3707,-208.714"/>
</g>
<!-- Node45&#45;&gt;Node26 -->
<g id="edge65" class="edge">
<title>Node45&#45;&gt;Node26</title>
<path fill="none" stroke="#191970" d="M802.9454,-299.8266C722.1969,-296.6201 525.5741,-285.7918 467.9931,-255 447.6495,-244.1212 431.3296,-222.8103 421.4507,-207.3402"/>
<polygon fill="#191970" stroke="#191970" points="424.3327,-205.3427 416.1537,-198.6081 418.3477,-208.9732 424.3327,-205.3427"/>
</g>
<!-- Node46 -->
<g id="node38" class="node">
<title>Node46</title>
<g id="a_node38"><a xlink:href="clientversion_8h.html" target="_top" xlink:title="clientversion.h">
<polygon fill="#ffffff" stroke="#000000" points="763.9931,-179.5 763.9931,-198.5 843.9931,-198.5 843.9931,-179.5 763.9931,-179.5"/>
<text text-anchor="middle" x="803.9931" y="-186.5" font-family="Helvetica,sans-Serif" font-size="10.00" fill="#000000">clientversion.h</text>
</a>
</g>
</g>
<!-- Node45&#45;&gt;Node46 -->
<g id="edge61" class="edge">
<title>Node45&#45;&gt;Node46</title>
<path fill="none" stroke="#191970" d="M835.2672,-291.1282C831.6699,-278.1967 825.0798,-254.8343 818.9931,-235 816.32,-226.2896 813.2192,-216.7022 810.5331,-208.5448"/>
<polygon fill="#191970" stroke="#191970" points="813.7836,-207.2272 807.3116,-198.8389 807.14,-209.4324 813.7836,-207.2272"/>
</g>
<!-- Node47 -->
<g id="node39" class="node">
<title>Node47</title>
<g id="a_node39"><a xlink:href="streams_8h.html" target="_top" xlink:title="streams.h">
<polygon fill="#ffffff" stroke="#ff0000" points="550.9931,-235.5 550.9931,-254.5 610.9931,-254.5 610.9931,-235.5 550.9931,-235.5"/>
<text text-anchor="middle" x="580.9931" y="-242.5" font-family="Helvetica,sans-Serif" font-size="10.00" fill="#000000">streams.h</text>
</a>
</g>
</g>
<!-- Node45&#45;&gt;Node47 -->
<g id="edge66" class="edge">
<title>Node45&#45;&gt;Node47</title>
<path fill="none" stroke="#191970" d="M802.7972,-293.3309C755.3394,-282.9899 671.0431,-264.6218 621.1601,-253.7524"/>
<polygon fill="#191970" stroke="#191970" points="621.8795,-250.3271 611.3636,-251.6177 620.3892,-257.1666 621.8795,-250.3271"/>
</g>
<!-- Node50 -->
<g id="node40" class="node">
<title>Node50</title>
<g id="a_node40"><a xlink:href="util_8h.html" target="_top" xlink:title="util.h">
<polygon fill="#ffffff" stroke="#ff0000" points="1086.9931,-235.5 1086.9931,-254.5 1124.9931,-254.5 1124.9931,-235.5 1086.9931,-235.5"/>
<text text-anchor="middle" x="1105.9931" y="-242.5" font-family="Helvetica,sans-Serif" font-size="10.00" fill="#000000">util.h</text>
</a>
</g>
</g>
<!-- Node45&#45;&gt;Node50 -->
<g id="edge80" class="edge">
<title>Node45&#45;&gt;Node50</title>
<path fill="none" stroke="#191970" d="M873.0294,-293.679C926.4321,-282.5202 1027.2145,-261.4612 1076.8578,-251.088"/>
<polygon fill="#191970" stroke="#191970" points="1077.8479,-254.4567 1086.9206,-248.9853 1076.4161,-247.6047 1077.8479,-254.4567"/>
</g>
<!-- Node75 -->
<g id="node41" class="node">
<title>Node75</title>
<g id="a_node41"><a xlink:href="utilstrencodings_8h.html" target="_top" xlink:title="utilstrencodings.h">
<polygon fill="#ffffff" stroke="#000000" points="951.4931,-179.5 951.4931,-198.5 1044.4931,-198.5 1044.4931,-179.5 951.4931,-179.5"/>
<text text-anchor="middle" x="997.9931" y="-186.5" font-family="Helvetica,sans-Serif" font-size="10.00" fill="#000000">utilstrencodings.h</text>
</a>
</g>
</g>
<!-- Node45&#45;&gt;Node75 -->
<g id="edge87" class="edge">
<title>Node45&#45;&gt;Node75</title>
<path fill="none" stroke="#191970" d="M851.6346,-291.4509C879.3834,-272.0268 942.6069,-227.7703 976.1509,-204.2895"/>
<polygon fill="#191970" stroke="#191970" points="978.2009,-207.1269 984.3861,-198.5249 974.1866,-201.3922 978.2009,-207.1269"/>
</g>
<!-- Node76 -->
<g id="node42" class="node">
<title>Node76</title>
<g id="a_node42"><a xlink:href="version_8h.html" target="_top" xlink:title="version.h">
<polygon fill="#ffffff" stroke="#000000" points="476.9931,-235.5 476.9931,-254.5 532.9931,-254.5 532.9931,-235.5 476.9931,-235.5"/>
<text text-anchor="middle" x="504.9931" y="-242.5" font-family="Helvetica,sans-Serif" font-size="10.00" fill="#000000">version.h</text>
</a>
</g>
</g>
<!-- Node45&#45;&gt;Node76 -->
<g id="edge91" class="edge">
<title>Node45&#45;&gt;Node76</title>
<path fill="none" stroke="#191970" d="M802.6804,-296.7872C748.7486,-290.0766 642.481,-275.7678 543.1003,-255.0555"/>
<polygon fill="#191970" stroke="#191970" points="543.7046,-251.606 533.1973,-252.9651 542.2588,-258.4551 543.7046,-251.606"/>
</g>
<!-- Node77 -->
<g id="node43" class="node">
<title>Node77</title>
<polygon fill="#ffffff" stroke="#bfbfbf" points="740.4931,-235.5 740.4931,-254.5 809.4931,-254.5 809.4931,-235.5 740.4931,-235.5"/>
<text text-anchor="middle" x="774.9931" y="-242.5" font-family="Helvetica,sans-Serif" font-size="10.00" fill="#000000">leveldb/db.h</text>
</g>
<!-- Node45&#45;&gt;Node77 -->
<g id="edge92" class="edge">
<title>Node45&#45;&gt;Node77</title>
<path fill="none" stroke="#191970" d="M827.0193,-291.2455C817.8049,-283.0549 804.4399,-271.1749 793.5634,-261.5069"/>
<polygon fill="#191970" stroke="#191970" points="795.6405,-258.6704 785.8411,-254.6427 790.9899,-263.9023 795.6405,-258.6704"/>
</g>
<!-- Node46&#45;&gt;Node8 -->
<g id="edge62" class="edge">
<title>Node46&#45;&gt;Node8</title>
<path fill="none" stroke="#191970" d="M844.2755,-184.2182C859.2501,-182.4945 876.3897,-180.585 891.9931,-179 1070.4564,-160.8717 1122.106,-194.3088 1293.9931,-143 1295.4632,-142.5612 1296.9443,-142.0436 1298.4178,-141.4688"/>
<polygon fill="#191970" stroke="#191970" points="1300.2568,-144.4728 1307.8361,-137.0698 1297.2945,-138.1305 1300.2568,-144.4728"/>
</g>
<!-- Node46&#45;&gt;Node9 -->
<g id="edge63" class="edge">
<title>Node46&#45;&gt;Node9</title>
<path fill="none" stroke="#191970" d="M794.6181,-179.3906C785.5132,-170.0581 771.4957,-155.6902 760.5174,-144.4374"/>
<polygon fill="#191970" stroke="#191970" points="762.9888,-141.9586 753.5003,-137.2449 757.9783,-146.8468 762.9888,-141.9586"/>
</g>
<!-- Node47&#45;&gt;Node4 -->
<g id="edge69" class="edge">
<title>Node47&#45;&gt;Node4</title>
<path fill="none" stroke="#191970" d="M550.8603,-236.7792C547.8777,-236.1145 544.8849,-235.5057 541.9931,-235 425.75,-214.6746 85.8456,-240.2436 18.9931,-143 11.1878,-131.6464 10.1296,-122.5483 18.9931,-112 47.5226,-78.0475 180.3372,-69.1512 245.6017,-66.8233"/>
<polygon fill="#191970" stroke="#191970" points="245.9621,-70.3136 255.8439,-66.4924 245.736,-63.3172 245.9621,-70.3136"/>
</g>
<!-- Node47&#45;&gt;Node7 -->
<g id="edge74" class="edge">
<title>Node47&#45;&gt;Node7</title>
<path fill="none" stroke="#191970" d="M550.8705,-236.7189C547.8858,-236.0665 544.8898,-235.4769 541.9931,-235 437.1035,-217.7321 161.6013,-243.3491 64.9931,-199 23.2018,-179.8152 -18.2976,-149.0106 8.9931,-112 58.9678,-44.2262 106.9658,-70.0439 189.9931,-56 318.8512,-34.2039 1270.5912,-14.5127 1465.9899,-10.6743"/>
<polygon fill="#191970" stroke="#191970" points="1466.3209,-14.1686 1476.2506,-10.4737 1466.184,-7.17 1466.3209,-14.1686"/>
</g>
<!-- Node47&#45;&gt;Node8 -->
<g id="edge76" class="edge">
<title>Node47&#45;&gt;Node8</title>
<path fill="none" stroke="#191970" d="M611.097,-242.5976C701.2119,-235.3228 967.9013,-213.1665 1053.9931,-199 1162.0715,-181.2156 1191.4841,-181.5896 1293.9931,-143 1295.1952,-142.5475 1296.41,-142.0547 1297.626,-141.5324"/>
<polygon fill="#191970" stroke="#191970" points="1299.2891,-144.6162 1306.7798,-137.1235 1296.2515,-138.3096 1299.2891,-144.6162"/>
</g>
<!-- Node47&#45;&gt;Node9 -->
<g id="edge79" class="edge">
<title>Node47&#45;&gt;Node9</title>
<path fill="none" stroke="#191970" d="M594.3321,-235.3845C622.3902,-215.1585 687.7483,-168.0445 722.063,-143.3085"/>
<polygon fill="#191970" stroke="#191970" points="724.4044,-145.9353 730.4698,-137.2484 720.311,-140.2568 724.4044,-145.9353"/>
</g>
<!-- Node47&#45;&gt;Node11 -->
<g id="edge77" class="edge">
<title>Node47&#45;&gt;Node11</title>
<path fill="none" stroke="#191970" d="M575.7779,-235.3762C560.3172,-206.8455 514.5371,-122.3648 494.0737,-84.6024"/>
<polygon fill="#191970" stroke="#191970" points="497.0757,-82.7959 489.234,-75.6714 490.9212,-86.131 497.0757,-82.7959"/>
</g>
<!-- Node47&#45;&gt;Node14 -->
<g id="edge72" class="edge">
<title>Node47&#45;&gt;Node14</title>
<path fill="none" stroke="#191970" d="M600.5216,-235.4946C632.1311,-220.5949 696.8397,-192.093 754.9931,-179 949.4357,-135.2219 1005.1416,-174.2079 1201.9931,-143 1214.4501,-141.0251 1228.0497,-137.9321 1239.5746,-135.0269"/>
<polygon fill="#191970" stroke="#191970" points="1240.6867,-138.3542 1249.4833,-132.4491 1238.9242,-131.5797 1240.6867,-138.3542"/>
</g>
<!-- Node47&#45;&gt;Node27 -->
<g id="edge68" class="edge">
<title>Node47&#45;&gt;Node27</title>
<path fill="none" stroke="#191970" d="M583.5299,-235.3845C588.6164,-216.1053 600.1481,-172.3963 606.8684,-146.9241"/>
<polygon fill="#191970" stroke="#191970" points="610.2543,-147.8104 609.4212,-137.2484 603.4859,-146.0246 610.2543,-147.8104"/>
</g>
<!-- Node47&#45;&gt;Node41 -->
<g id="edge75" class="edge">
<title>Node47&#45;&gt;Node41</title>
<path fill="none" stroke="#191970" d="M589.1765,-235.3845C606.0238,-215.5889 644.7912,-170.0372 666.1698,-144.9173"/>
<polygon fill="#191970" stroke="#191970" points="668.8808,-147.1322 672.6966,-137.2484 663.55,-142.5954 668.8808,-147.1322"/>
</g>
<!-- Node47&#45;&gt;Node26 -->
<g id="edge67" class="edge">
<title>Node47&#45;&gt;Node26</title>
<path fill="none" stroke="#191970" d="M551.769,-235.3733C523.5006,-226.0613 480.4966,-211.8953 449.4587,-201.671"/>
<polygon fill="#191970" stroke="#191970" points="450.4288,-198.3056 439.8358,-198.5011 448.2386,-204.9542 450.4288,-198.3056"/>
</g>
<!-- Node47&#45;&gt;Node28 -->
<g id="edge70" class="edge">
<title>Node47&#45;&gt;Node28</title>
<path fill="none" stroke="#191970" d="M550.7904,-237.1213C547.8219,-236.3874 544.8516,-235.6688 541.9931,-235 359.3062,-192.2555 305.6445,-208.9407 129.9931,-143 128.3396,-142.3793 126.6622,-141.6822 124.9909,-140.9363"/>
<polygon fill="#191970" stroke="#191970" points="126.2064,-137.6323 115.6929,-136.322 123.0946,-143.9026 126.2064,-137.6323"/>
</g>
<!-- Node47&#45;&gt;Node29 -->
<g id="edge71" class="edge">
<title>Node47&#45;&gt;Node29</title>
<path fill="none" stroke="#191970" d="M552.5723,-235.3765C533.9664,-227.8851 510.189,-215.8992 493.9931,-199 479.9292,-184.3255 470.7684,-162.747 465.5388,-147.137"/>
<polygon fill="#191970" stroke="#191970" points="468.8377,-145.9576 462.5345,-137.4417 462.1513,-148.0296 468.8377,-145.9576"/>
</g>
<!-- Node47&#45;&gt;Node31 -->
<g id="edge73" class="edge">
<title>Node47&#45;&gt;Node31</title>
<path fill="none" stroke="#191970" d="M578.5381,-235.3845C573.6377,-216.1913 562.5555,-172.786 556.0398,-147.2663"/>
<polygon fill="#191970" stroke="#191970" points="559.3471,-146.0717 553.482,-137.2484 552.5647,-147.8034 559.3471,-146.0717"/>
</g>
<!-- Node47&#45;&gt;Node32 -->
<g id="edge78" class="edge">
<title>Node47&#45;&gt;Node32</title>
<path fill="none" stroke="#191970" d="M550.847,-236.8526C547.8671,-236.1731 544.8786,-235.5406 541.9931,-235 410,-210.2694 372.9208,-228.8613 241.9931,-199 166.9003,-181.8732 148.8448,-173.204 77.9931,-143 76.9684,-142.5632 75.9306,-142.1058 74.8873,-141.6334"/>
<polygon fill="#191970" stroke="#191970" points="76.0787,-138.3219 65.552,-137.1215 73.0325,-144.6244 76.0787,-138.3219"/>
</g>
<!-- Node50&#45;&gt;Node7 -->
<g id="edge84" class="edge">
<title>Node50&#45;&gt;Node7</title>
<path fill="none" stroke="#191970" d="M1125.1359,-243.7193C1208.1611,-238.0751 1533.5786,-214.9924 1547.9931,-199 1592.4437,-149.6833 1541.0528,-64.8263 1514.6951,-27.9645"/>
<polygon fill="#191970" stroke="#191970" points="1517.3483,-25.6643 1508.6069,-19.6778 1511.7071,-29.8089 1517.3483,-25.6643"/>
</g>
<!-- Node50&#45;&gt;Node8 -->
<g id="edge85" class="edge">
<title>Node50&#45;&gt;Node8</title>
<path fill="none" stroke="#191970" d="M1123.7511,-235.3845C1161.8349,-214.7631 1251.5364,-166.192 1296.4292,-141.8837"/>
<polygon fill="#191970" stroke="#191970" points="1298.1669,-144.9229 1305.294,-137.0836 1294.8338,-138.7674 1298.1669,-144.9229"/>
</g>
<!-- Node50&#45;&gt;Node9 -->
<g id="edge86" class="edge">
<title>Node50&#45;&gt;Node9</title>
<path fill="none" stroke="#191970" d="M1086.9282,-242.6125C1048.9699,-237.4897 961.6056,-223.8434 891.9931,-199 873.6467,-192.4526 870.5069,-187.5278 852.9931,-179 818.6654,-162.2851 809.4056,-159.5395 774.9931,-143 774.0169,-142.5308 773.0247,-142.051 772.0236,-141.5643"/>
<polygon fill="#191970" stroke="#191970" points="773.4818,-138.381 762.9643,-137.1029 770.3891,-144.6608 773.4818,-138.381"/>
</g>
<!-- Node50&#45;&gt;Node14 -->
<g id="edge83" class="edge">
<title>Node50&#45;&gt;Node14</title>
<path fill="none" stroke="#191970" d="M1107.7897,-235.0684C1110.8795,-220.7586 1118.5275,-194.3755 1134.9931,-179 1169.5178,-146.761 1191.4542,-161.3214 1234.9931,-143 1236.5969,-142.3251 1238.2354,-141.6109 1239.8817,-140.8743"/>
<polygon fill="#191970" stroke="#191970" points="1241.6214,-143.925 1249.2055,-136.5269 1238.6632,-137.5807 1241.6214,-143.925"/>
</g>
<!-- Node50&#45;&gt;Node35 -->
<g id="edge82" class="edge">
<title>Node50&#45;&gt;Node35</title>
<path fill="none" stroke="#191970" d="M1125.1171,-243.5787C1212.4523,-237.0663 1572.5068,-209.9786 1658.7147,-198.8517"/>
<polygon fill="#191970" stroke="#191970" points="1659.403,-202.2892 1668.8136,-197.422 1658.4217,-195.3583 1659.403,-202.2892"/>
</g>
<!-- Node50&#45;&gt;Node40 -->
<g id="edge81" class="edge">
<title>Node50&#45;&gt;Node40</title>
<path fill="none" stroke="#191970" d="M1086.7477,-240.183C1057.694,-232.7811 1000.7566,-217.7711 943.292,-198.8752"/>
<polygon fill="#191970" stroke="#191970" points="944.2881,-195.518 933.6946,-195.6839 942.0794,-202.1605 944.2881,-195.518"/>
</g>
<!-- Node75&#45;&gt;Node7 -->
<g id="edge88" class="edge">
<title>Node75&#45;&gt;Node7</title>
<path fill="none" stroke="#191970" d="M1044.9232,-179.5705C1100.6644,-168.1909 1187.9133,-149.744 1201.9931,-143 1221.9626,-133.4349 1222.2612,-123.8062 1240.9931,-112 1289.0866,-81.688 1303.2032,-77.0959 1355.9931,-56 1392.9582,-41.228 1436.6609,-27.9044 1466.3528,-19.4445"/>
<polygon fill="#191970" stroke="#191970" points="1467.5602,-22.7407 1476.2368,-16.6606 1465.6624,-16.0029 1467.5602,-22.7407"/>
</g>
<!-- Node75&#45;&gt;Node8 -->
<g id="edge89" class="edge">
<title>Node75&#45;&gt;Node8</title>
<path fill="none" stroke="#191970" d="M1044.6116,-181.306C1049.4669,-180.5201 1054.3294,-179.7395 1058.9931,-179 1163.3523,-162.453 1193.7418,-176.3815 1293.9931,-143 1295.4149,-142.5266 1296.85,-141.9873 1298.2808,-141.4006"/>
<polygon fill="#191970" stroke="#191970" points="1299.9397,-144.4874 1307.4725,-137.0371 1296.9377,-138.1638 1299.9397,-144.4874"/>
</g>
<!-- Node75&#45;&gt;Node9 -->
<g id="edge90" class="edge">
<title>Node75&#45;&gt;Node9</title>
<path fill="none" stroke="#191970" d="M951.344,-180.0491C890.9493,-168.3569 791.4512,-148.7024 774.9931,-143 773.3904,-142.4447 771.7649,-141.8238 770.1409,-141.1584"/>
<polygon fill="#191970" stroke="#191970" points="771.5788,-137.9674 761.0274,-137.0091 768.6782,-144.3382 771.5788,-137.9674"/>
</g>
<!-- Node79&#45;&gt;Node8 -->
<g id="edge104" class="edge">
<title>Node79&#45;&gt;Node8</title>
<path fill="none" stroke="#191970" d="M1487.1249,-347.4176C1475.1544,-338.7444 1457.8166,-325.1878 1444.9931,-311 1395.9634,-256.7542 1352.1396,-181.2211 1333.0787,-146.4257"/>
<polygon fill="#191970" stroke="#191970" points="1336.0159,-144.4994 1328.1768,-137.372 1329.8602,-147.8323 1336.0159,-144.4994"/>
</g>
<!-- Node79&#45;&gt;Node14 -->
<g id="edge106" class="edge">
<title>Node79&#45;&gt;Node14</title>
<path fill="none" stroke="#191970" d="M1473.6499,-355.3854C1419.7226,-350.5521 1300.4348,-331.3176 1248.9931,-255 1226.6127,-221.797 1244.3622,-172.6395 1257.042,-146.1078"/>
<polygon fill="#191970" stroke="#191970" points="1260.1922,-147.6339 1261.5592,-137.1276 1253.9387,-144.4883 1260.1922,-147.6339"/>
</g>
<!-- Node79&#45;&gt;Node35 -->
<g id="edge96" class="edge">
<title>Node79&#45;&gt;Node35</title>
<path fill="none" stroke="#191970" d="M1490.9562,-347.3984C1469.0789,-325.3287 1421.349,-270.1868 1450.9931,-235 1479.6381,-200.999 1599.1241,-207.4242 1658.7118,-198.8644"/>
<polygon fill="#191970" stroke="#191970" points="1659.496,-202.2812 1668.7645,-197.1485 1658.3182,-195.381 1659.496,-202.2812"/>
</g>
<!-- Node79&#45;&gt;Node31 -->
<g id="edge105" class="edge">
<title>Node79&#45;&gt;Node31</title>
<path fill="none" stroke="#191970" d="M1473.6407,-356.1484C1351.4313,-352.2186 858.5585,-334.9993 793.9931,-311 694.9464,-274.1839 602.4278,-182.9909 566.6256,-144.7796"/>
<polygon fill="#191970" stroke="#191970" points="568.8546,-142.0346 559.4974,-137.0654 563.7134,-146.7853 568.8546,-142.0346"/>
</g>
<!-- Node20 -->
<g id="node45" class="node">
<title>Node20</title>
<g id="a_node45"><a xlink:href="amount_8h.html" target="_top" xlink:title="amount.h">
<polygon fill="#ffffff" stroke="#000000" points="1791.4931,-235.5 1791.4931,-254.5 1848.4931,-254.5 1848.4931,-235.5 1791.4931,-235.5"/>
<text text-anchor="middle" x="1819.9931" y="-242.5" font-family="Helvetica,sans-Serif" font-size="10.00" fill="#000000">amount.h</text>
</a>
</g>
</g>
<!-- Node79&#45;&gt;Node20 -->
<g id="edge94" class="edge">
<title>Node79&#45;&gt;Node20</title>
<path fill="none" stroke="#191970" d="M1528.1394,-350.4486C1560.7568,-342.3232 1616.9676,-327.5103 1663.9931,-311 1708.81,-295.2651 1759.1742,-273.1124 1790.245,-258.904"/>
<polygon fill="#191970" stroke="#191970" points="1792.0023,-261.9482 1799.6235,-254.5883 1789.076,-255.5892 1792.0023,-261.9482"/>
</g>
<!-- Node80 -->
<g id="node46" class="node">
<title>Node80</title>
<g id="a_node46"><a xlink:href="assettypes_8h.html" target="_top" xlink:title="assettypes.h">
<polygon fill="#ffffff" stroke="#ff0000" points="1581.4931,-291.5 1581.4931,-310.5 1654.4931,-310.5 1654.4931,-291.5 1581.4931,-291.5"/>
<text text-anchor="middle" x="1617.9931" y="-298.5" font-family="Helvetica,sans-Serif" font-size="10.00" fill="#000000">assettypes.h</text>
</a>
</g>
</g>
<!-- Node79&#45;&gt;Node80 -->
<g id="edge97" class="edge">
<title>Node79&#45;&gt;Node80</title>
<path fill="none" stroke="#191970" d="M1521.1061,-347.3733C1539.8034,-338.4241 1567.8675,-324.9917 1588.9865,-314.8835"/>
<polygon fill="#191970" stroke="#191970" points="1590.6335,-317.9755 1598.1425,-310.5011 1587.6114,-311.6614 1590.6335,-317.9755"/>
</g>
<!-- Node81 -->
<g id="node47" class="node">
<title>Node81</title>
<polygon fill="#ffffff" stroke="#bfbfbf" points="1560.4931,-235.5 1560.4931,-254.5 1589.4931,-254.5 1589.4931,-235.5 1560.4931,-235.5"/>
<text text-anchor="middle" x="1574.9931" y="-242.5" font-family="Helvetica,sans-Serif" font-size="10.00" fill="#000000">list</text>
</g>
<!-- Node79&#45;&gt;Node81 -->
<g id="edge108" class="edge">
<title>Node79&#45;&gt;Node81</title>
<path fill="none" stroke="#191970" d="M1507.3023,-347.4509C1519.6446,-328.7707 1547.1613,-287.1238 1563.0499,-263.0761"/>
<polygon fill="#191970" stroke="#191970" points="1566.1074,-264.7977 1568.6998,-254.5249 1560.2671,-260.9388 1566.1074,-264.7977"/>
</g>
<!-- Node82 -->
<g id="node48" class="node">
<title>Node82</title>
<polygon fill="#ffffff" stroke="#bfbfbf" points="1459.4931,-235.5 1459.4931,-254.5 1542.4931,-254.5 1542.4931,-235.5 1459.4931,-235.5"/>
<text text-anchor="middle" x="1500.9931" y="-242.5" font-family="Helvetica,sans-Serif" font-size="10.00" fill="#000000">unordered_map</text>
</g>
<!-- Node79&#45;&gt;Node82 -->
<g id="edge107" class="edge">
<title>Node79&#45;&gt;Node82</title>
<path fill="none" stroke="#191970" d="M1500.9931,-347.4509C1500.9931,-329.184 1500.9931,-288.9553 1500.9931,-264.6976"/>
<polygon fill="#191970" stroke="#191970" points="1504.4932,-264.5249 1500.9931,-254.5249 1497.4932,-264.5249 1504.4932,-264.5249"/>
</g>
<!-- Node20&#45;&gt;Node7 -->
<g id="edge95" class="edge">
<title>Node20&#45;&gt;Node7</title>
<path fill="none" stroke="#191970" d="M1848.7593,-242.0648C1895.6,-236.6262 1985.0462,-223.2667 2003.9931,-199 2020.0455,-178.4405 2008.6897,-145.1805 1982.9931,-112 1954.147,-74.7527 1937.4588,-71.5646 1892.9931,-56 1827.3165,-33.0109 1619.1224,-17.546 1535.8805,-12.1361"/>
<polygon fill="#191970" stroke="#191970" points="1535.8803,-8.629 1525.6771,-11.4829 1535.433,-15.6147 1535.8803,-8.629"/>
</g>
<!-- Node80&#45;&gt;Node8 -->
<g id="edge98" class="edge">
<title>Node80&#45;&gt;Node8</title>
<path fill="none" stroke="#191970" d="M1618.1162,-291.365C1617.7478,-276.9405 1614.8228,-249.8445 1598.9931,-235 1544.559,-183.9538 1503.9532,-227.5182 1434.9931,-199 1400.3307,-184.6655 1364.5176,-159.6961 1342.9988,-143.3839"/>
<polygon fill="#191970" stroke="#191970" points="1345.0153,-140.5192 1334.9587,-137.1851 1340.7411,-146.0628 1345.0153,-140.5192"/>
</g>
<!-- Node80&#45;&gt;Node16 -->
<g id="edge103" class="edge">
<title>Node80&#45;&gt;Node16</title>
<path fill="none" stroke="#191970" d="M1637.0747,-291.3733C1654.7332,-282.4644 1681.1983,-269.1127 1701.2028,-259.0203"/>
<polygon fill="#191970" stroke="#191970" points="1702.8089,-262.1303 1710.1605,-254.5011 1699.6558,-255.8806 1702.8089,-262.1303"/>
</g>
<!-- Node80&#45;&gt;Node38 -->
<g id="edge99" class="edge">
<title>Node80&#45;&gt;Node38</title>
<path fill="none" stroke="#191970" d="M1624.3972,-291.2388C1634.0783,-277.141 1653.6933,-251.0196 1675.9931,-235 1719.0306,-204.0828 1847.3196,-163.9522 1895.9931,-143 1897.3665,-142.4088 1898.7689,-141.8018 1900.1845,-141.1863"/>
<polygon fill="#191970" stroke="#191970" points="1901.7994,-144.3 1909.5527,-137.0794 1898.9888,-137.8889 1901.7994,-144.3"/>
</g>
<!-- Node80&#45;&gt;Node20 -->
<g id="edge102" class="edge">
<title>Node80&#45;&gt;Node20</title>
<path fill="none" stroke="#191970" d="M1652.7181,-291.3733C1688.4967,-281.4544 1744.1413,-266.0282 1781.3075,-255.7247"/>
<polygon fill="#191970" stroke="#191970" points="1782.5669,-259.0076 1791.2684,-252.9633 1780.6968,-252.2621 1782.5669,-259.0076"/>
</g>
<!-- Node80&#45;&gt;Node81 -->
<g id="edge100" class="edge">
<title>Node80&#45;&gt;Node81</title>
<path fill="none" stroke="#191970" d="M1610.503,-291.2455C1604.4605,-283.3761 1595.8028,-272.101 1588.549,-262.6542"/>
<polygon fill="#191970" stroke="#191970" points="1591.2636,-260.4426 1582.3973,-254.6427 1585.7115,-264.7058 1591.2636,-260.4426"/>
</g>
<!-- Node80&#45;&gt;Node82 -->
<g id="edge101" class="edge">
<title>Node80&#45;&gt;Node82</title>
<path fill="none" stroke="#191970" d="M1597.8801,-291.3733C1579.1827,-282.4241 1551.1187,-268.9917 1529.9997,-258.8835"/>
<polygon fill="#191970" stroke="#191970" points="1531.3748,-255.6614 1520.8436,-254.5011 1528.3526,-261.9755 1531.3748,-255.6614"/>
</g>
</g>
</svg>
