<?xml version="1.0" encoding="UTF-8" standalone="no"?>
<!DOCTYPE svg PUBLIC "-//W3C//DTD SVG 1.1//EN"
 "http://www.w3.org/Graphics/SVG/1.1/DTD/svg11.dtd">
<!-- Generated by graphviz version 2.40.1 (20161225.0304)
 -->
<!-- Title: OrphanMessage Pages: 1 -->
<svg width="528pt" height="66pt"
 viewBox="0.00 0.00 528.00 66.00" xmlns="http://www.w3.org/2000/svg" xmlns:xlink="http://www.w3.org/1999/xlink">
<g id="graph0" class="graph" transform="scale(1 1) rotate(0) translate(4 62)">
<title>OrphanMessage</title>
<polygon fill="#ffffff" stroke="transparent" points="-4,4 -4,-62 524,-62 524,4 -4,4"/>
<!-- Node51 -->
<g id="node1" class="node">
<title>Node51</title>
<polygon fill="#bfbfbf" stroke="#000000" points="0,-19.5 0,-38.5 88,-38.5 88,-19.5 0,-19.5"/>
<text text-anchor="middle" x="44" y="-26.5" font-family="Helvetica,sans-Serif" font-size="10.00" fill="#000000">OrphanMessage</text>
</g>
<!-- Node51&#45;&gt;Node51 -->
<g id="edge5" class="edge">
<title>Node51&#45;&gt;Node51</title>
<path fill="none" stroke="#191970" d="M26.121,-38.7571C17.4232,-47.5653 23.3828,-57 44,-57 56.8857,-57 64.0459,-53.3146 65.4804,-48.4"/>
<polygon fill="#191970" stroke="#191970" points="68.6566,-46.9004 61.879,-38.7571 62.099,-49.3496 68.6566,-46.9004"/>
</g>
<!-- Node52 -->
<g id="node2" class="node">
<title>Node52</title>
<g id="a_node2"><a xlink:href="assets_2messages_8cpp.html#a5171637e3f89e086642cd12c49030dcd" target="_top" xlink:title="GetMessage">
<polygon fill="#ffffff" stroke="#000000" points="124,-19.5 124,-38.5 196,-38.5 196,-19.5 124,-19.5"/>
<text text-anchor="middle" x="160" y="-26.5" font-family="Helvetica,sans-Serif" font-size="10.00" fill="#000000">GetMessage</text>
</a>
</g>
</g>
<!-- Node51&#45;&gt;Node52 -->
<g id="edge1" class="edge">
<title>Node51&#45;&gt;Node52</title>
<path fill="none" stroke="#191970" d="M88.1855,-29C96.561,-29 105.3445,-29 113.7809,-29"/>
<polygon fill="#191970" stroke="#191970" points="113.8485,-32.5001 123.8484,-29 113.8484,-25.5001 113.8485,-32.5001"/>
</g>
<!-- Node53 -->
<g id="node3" class="node">
<title>Node53</title>
<g id="a_node3"><a xlink:href="class_c_out_point.html#ad7137376da4e1771c4c1067997dd1322" target="_top" xlink:title="COutPoint::ToSerializedString">
<polygon fill="#ffffff" stroke="#000000" points="232,-38.5 232,-57.5 380,-57.5 380,-38.5 232,-38.5"/>
<text text-anchor="middle" x="306" y="-45.5" font-family="Helvetica,sans-Serif" font-size="10.00" fill="#000000">COutPoint::ToSerializedString</text>
</a>
</g>
</g>
<!-- Node52&#45;&gt;Node53 -->
<g id="edge2" class="edge">
<title>Node52&#45;&gt;Node53</title>
<path fill="none" stroke="#191970" d="M196.0899,-33.6966C204.3376,-34.77 213.4383,-35.9543 222.7665,-37.1682"/>
<polygon fill="#191970" stroke="#191970" points="222.5801,-40.6734 232.9482,-38.4933 223.4835,-33.732 222.5801,-40.6734"/>
</g>
<!-- Node54 -->
<g id="node4" class="node">
<title>Node54</title>
<g id="a_node4"><a xlink:href="class_c_message_d_b.html#a78c75180edc4285ec8c67516522612e3" target="_top" xlink:title="CMessageDB::ReadMessage">
<polygon fill="#ffffff" stroke="#000000" points="232.5,-.5 232.5,-19.5 379.5,-19.5 379.5,-.5 232.5,-.5"/>
<text text-anchor="middle" x="306" y="-7.5" font-family="Helvetica,sans-Serif" font-size="10.00" fill="#000000">CMessageDB::ReadMessage</text>
</a>
</g>
</g>
<!-- Node52&#45;&gt;Node54 -->
<g id="edge3" class="edge">
<title>Node52&#45;&gt;Node54</title>
<path fill="none" stroke="#191970" d="M196.0899,-24.3034C204.3376,-23.23 213.4383,-22.0457 222.7665,-20.8318"/>
<polygon fill="#191970" stroke="#191970" points="223.4835,-24.268 232.9482,-19.5067 222.5801,-17.3266 223.4835,-24.268"/>
</g>
<!-- Node55 -->
<g id="node5" class="node">
<title>Node55</title>
<g id="a_node5"><a xlink:href="class_c_d_b_wrapper.html#a38084dd7b2870e6ac3082e7521d88a29" target="_top" xlink:title="CDBWrapper::Read">
<polygon fill="#ffffff" stroke="#000000" points="416,-.5 416,-19.5 520,-19.5 520,-.5 416,-.5"/>
<text text-anchor="middle" x="468" y="-7.5" font-family="Helvetica,sans-Serif" font-size="10.00" fill="#000000">CDBWrapper::Read</text>
</a>
</g>
</g>
<!-- Node54&#45;&gt;Node55 -->
<g id="edge4" class="edge">
<title>Node54&#45;&gt;Node55</title>
<path fill="none" stroke="#191970" d="M379.889,-10C388.5507,-10 397.3218,-10 405.8018,-10"/>
<polygon fill="#191970" stroke="#191970" points="405.9744,-13.5001 415.9743,-10 405.9743,-6.5001 405.9744,-13.5001"/>
</g>
</g>
</svg>
