<?xml version="1.0" encoding="UTF-8" standalone="no"?>
<!DOCTYPE svg PUBLIC "-//W3C//DTD SVG 1.1//EN"
 "http://www.w3.org/Graphics/SVG/1.1/DTD/svg11.dtd">
<!-- Generated by graphviz version 2.40.1 (20161225.0304)
 -->
<!-- Title: CreateAssetTransaction Pages: 1 -->
<svg width="853pt" height="987pt"
 viewBox="0.00 0.00 853.00 987.00" xmlns="http://www.w3.org/2000/svg" xmlns:xlink="http://www.w3.org/1999/xlink">
<g id="graph0" class="graph" transform="scale(1 1) rotate(0) translate(4 983)">
<title>CreateAssetTransaction</title>
<polygon fill="#ffffff" stroke="transparent" points="-4,4 -4,-983 849,-983 849,4 -4,4"/>
<!-- Node1232 -->
<g id="node1" class="node">
<title>Node1232</title>
<polygon fill="#bfbfbf" stroke="#000000" points="0,-395.5 0,-414.5 122,-414.5 122,-395.5 0,-395.5"/>
<text text-anchor="middle" x="61" y="-402.5" font-family="Helvetica,sans-Serif" font-size="10.00" fill="#000000">CreateAssetTransaction</text>
</g>
<!-- Node1233 -->
<g id="node2" class="node">
<title>Node1233</title>
<g id="a_node2"><a xlink:href="base58_8cpp.html#a69b845c325e6bf516251cd3a67fe1df7" target="_top" xlink:title="EncodeDestination">
<polygon fill="#ffffff" stroke="#000000" points="195.5,-921.5 195.5,-940.5 294.5,-940.5 294.5,-921.5 195.5,-921.5"/>
<text text-anchor="middle" x="245" y="-928.5" font-family="Helvetica,sans-Serif" font-size="10.00" fill="#000000">EncodeDestination</text>
</a>
</g>
</g>
<!-- Node1232&#45;&gt;Node1233 -->
<g id="edge1" class="edge">
<title>Node1232&#45;&gt;Node1233</title>
<path fill="none" stroke="#191970" d="M62.0078,-414.8781C68.3165,-475.2428 103.8665,-794.425 158,-874 171.1199,-893.286 193.1508,-907.6218 211.7594,-917.0927"/>
<polygon fill="#191970" stroke="#191970" points="210.3115,-920.2802 220.8385,-921.4767 213.3554,-913.9766 210.3115,-920.2802"/>
</g>
<!-- Node1248 -->
<g id="node7" class="node">
<title>Node1248</title>
<g id="a_node7"><a xlink:href="validation_8cpp.html#ac18640d1226903c568f1ff1e63b64774" target="_top" xlink:title="GetCurrentAssetCache">
<polygon fill="#ffffff" stroke="#000000" points="185.5,-731.5 185.5,-750.5 304.5,-750.5 304.5,-731.5 185.5,-731.5"/>
<text text-anchor="middle" x="245" y="-738.5" font-family="Helvetica,sans-Serif" font-size="10.00" fill="#000000">GetCurrentAssetCache</text>
</a>
</g>
</g>
<!-- Node1232&#45;&gt;Node1248 -->
<g id="edge6" class="edge">
<title>Node1232&#45;&gt;Node1248</title>
<path fill="none" stroke="#191970" d="M62.7288,-414.6941C71.431,-462.4645 111.8488,-672.3139 158,-717 163.0672,-721.9063 169.0424,-725.8292 175.4496,-728.9629"/>
<polygon fill="#191970" stroke="#191970" points="174.5154,-732.3666 185.0906,-733.012 177.226,-725.9127 174.5154,-732.3666"/>
</g>
<!-- Node1249 -->
<g id="node8" class="node">
<title>Node1249</title>
<g id="a_node8"><a xlink:href="assets_2assets_8cpp.html#a54fcab3b7b13175978a313553bcc4912" target="_top" xlink:title="ContextualCheckNewAsset">
<polygon fill="#ffffff" stroke="#000000" points="176,-539.5 176,-558.5 314,-558.5 314,-539.5 176,-539.5"/>
<text text-anchor="middle" x="245" y="-546.5" font-family="Helvetica,sans-Serif" font-size="10.00" fill="#000000">ContextualCheckNewAsset</text>
</a>
</g>
</g>
<!-- Node1232&#45;&gt;Node1249 -->
<g id="edge7" class="edge">
<title>Node1232&#45;&gt;Node1249</title>
<path fill="none" stroke="#191970" d="M65.5148,-414.6755C77.152,-438.4747 110.6103,-500.0947 158,-530 161.3606,-532.1207 164.9233,-534.0071 168.6138,-535.6848"/>
<polygon fill="#191970" stroke="#191970" points="167.4232,-538.9781 178.008,-539.44 170.0216,-532.4782 167.4232,-538.9781"/>
</g>
<!-- Node1252 -->
<g id="node11" class="node">
<title>Node1252</title>
<g id="a_node11"><a xlink:href="assets_2assets_8cpp.html#aa44077cc80b096517e8e63d9abf9bcfa" target="_top" xlink:title="IsAssetNameValid">
<polygon fill="#ffffff" stroke="#000000" points="747,-560.5 747,-579.5 845,-579.5 845,-560.5 747,-560.5"/>
<text text-anchor="middle" x="796" y="-567.5" font-family="Helvetica,sans-Serif" font-size="10.00" fill="#000000">IsAssetNameValid</text>
</a>
</g>
</g>
<!-- Node1232&#45;&gt;Node1252 -->
<g id="edge38" class="edge">
<title>Node1232&#45;&gt;Node1252</title>
<path fill="none" stroke="#191970" d="M62.5,-414.8282C68.1893,-448.6835 91.5838,-561.5841 158,-620 231.2648,-684.4396 271.4939,-669.6208 368,-684 518.8575,-706.4775 575.035,-742.1138 711,-673 747.3301,-654.5327 773.8444,-612.8637 786.8938,-588.5627"/>
<polygon fill="#191970" stroke="#191970" points="790.0364,-590.1052 791.5113,-579.6135 783.8156,-586.8955 790.0364,-590.1052"/>
</g>
<!-- Node1267 -->
<g id="node22" class="node">
<title>Node1267</title>
<g id="a_node22"><a xlink:href="base58_8cpp.html#a8a781e21ad4ecccd9c97c7d890ef7d6f" target="_top" xlink:title="DecodeDestination">
<polygon fill="#ffffff" stroke="#000000" points="195,-845.5 195,-864.5 295,-864.5 295,-845.5 195,-845.5"/>
<text text-anchor="middle" x="245" y="-852.5" font-family="Helvetica,sans-Serif" font-size="10.00" fill="#000000">DecodeDestination</text>
</a>
</g>
</g>
<!-- Node1232&#45;&gt;Node1267 -->
<g id="edge25" class="edge">
<title>Node1232&#45;&gt;Node1267</title>
<path fill="none" stroke="#191970" d="M62.4044,-414.6464C70.3911,-468.529 111.3812,-732.198 158,-798 171.4843,-817.033 193.5119,-831.3712 212.0277,-840.9064"/>
<polygon fill="#191970" stroke="#191970" points="210.5333,-844.0717 221.0535,-845.3275 213.6126,-837.7854 210.5333,-844.0717"/>
</g>
<!-- Node1270 -->
<g id="node26" class="node">
<title>Node1270</title>
<g id="a_node26"><a xlink:href="standard_8cpp.html#adb3a21e4afe9c672720b182ddc7cad7c" target="_top" xlink:title="Check whether a CTxDestination is a CNoDestination. ">
<polygon fill="#ffffff" stroke="#000000" points="197,-451.5 197,-470.5 293,-470.5 293,-451.5 197,-451.5"/>
<text text-anchor="middle" x="245" y="-458.5" font-family="Helvetica,sans-Serif" font-size="10.00" fill="#000000">IsValidDestination</text>
</a>
</g>
</g>
<!-- Node1232&#45;&gt;Node1270 -->
<g id="edge30" class="edge">
<title>Node1232&#45;&gt;Node1270</title>
<path fill="none" stroke="#191970" d="M83.4054,-414.6435C102.857,-422.7492 131.9182,-434.2251 158,-442 167.2368,-444.7535 177.1344,-447.2927 186.8232,-449.5586"/>
<polygon fill="#191970" stroke="#191970" points="186.2819,-453.0246 196.8079,-451.8187 187.8273,-446.1973 186.2819,-453.0246"/>
</g>
<!-- Node1271 -->
<g id="node27" class="node">
<title>Node1271</title>
<g id="a_node27"><a xlink:href="group___actions.html#ga35154f4813aaef32ab0f740111f68fb0" target="_top" xlink:title="RVN START. ">
<polygon fill="#ffffff" stroke="#000000" points="174.5,-490 174.5,-520 315.5,-520 315.5,-490 174.5,-490"/>
<text text-anchor="start" x="182.5" y="-508" font-family="Helvetica,sans-Serif" font-size="10.00" fill="#000000">CWallet::CreateNewChange</text>
<text text-anchor="middle" x="245" y="-497" font-family="Helvetica,sans-Serif" font-size="10.00" fill="#000000">Address</text>
</a>
</g>
</g>
<!-- Node1232&#45;&gt;Node1271 -->
<g id="edge31" class="edge">
<title>Node1232&#45;&gt;Node1271</title>
<path fill="none" stroke="#191970" d="M70.8692,-414.742C87.4795,-430.621 122.6815,-462.1038 158,-480 162.5275,-482.2941 167.2974,-484.4073 172.1764,-486.3487"/>
<polygon fill="#191970" stroke="#191970" points="171.0656,-489.6697 181.6585,-489.8727 173.5042,-483.1082 171.0656,-489.6697"/>
</g>
<!-- Node1281 -->
<g id="node33" class="node">
<title>Node1281</title>
<g id="a_node33"><a xlink:href="assets_2assets_8cpp.html#af95cbe060a64b5acafd13a047b7b4201" target="_top" xlink:title="Get the root name of an asset. ">
<polygon fill="#ffffff" stroke="#000000" points="404,-655.5 404,-674.5 491,-674.5 491,-655.5 404,-655.5"/>
<text text-anchor="middle" x="447.5" y="-662.5" font-family="Helvetica,sans-Serif" font-size="10.00" fill="#000000">GetParentName</text>
</a>
</g>
</g>
<!-- Node1232&#45;&gt;Node1281 -->
<g id="edge39" class="edge">
<title>Node1232&#45;&gt;Node1281</title>
<path fill="none" stroke="#191970" d="M64.1246,-414.6087C73.6368,-442.4039 104.8781,-523.7248 158,-568 226.8492,-625.3833 331.0449,-649.2804 393.8589,-658.8926"/>
<polygon fill="#191970" stroke="#191970" points="393.5503,-662.3846 403.9515,-660.3685 394.5632,-655.4583 393.5503,-662.3846"/>
</g>
<!-- Node1282 -->
<g id="node34" class="node">
<title>Node1282</title>
<g id="a_node34"><a xlink:href="assets_2assets_8cpp.html#a8fa417e13099076d2179c9e269efa87f" target="_top" xlink:title="GetBurnAmount">
<polygon fill="#ffffff" stroke="#000000" points="202,-395.5 202,-414.5 288,-414.5 288,-395.5 202,-395.5"/>
<text text-anchor="middle" x="245" y="-402.5" font-family="Helvetica,sans-Serif" font-size="10.00" fill="#000000">GetBurnAmount</text>
</a>
</g>
</g>
<!-- Node1232&#45;&gt;Node1282 -->
<g id="edge41" class="edge">
<title>Node1232&#45;&gt;Node1282</title>
<path fill="none" stroke="#191970" d="M122.0138,-405C144.5909,-405 169.9869,-405 191.8138,-405"/>
<polygon fill="#191970" stroke="#191970" points="191.8902,-408.5001 201.8901,-405 191.8901,-401.5001 191.8902,-408.5001"/>
</g>
<!-- Node1283 -->
<g id="node35" class="node">
<title>Node1283</title>
<g id="a_node35"><a xlink:href="standard_8cpp.html#ae40f28d3b46c21033f6ee1f1200d0321" target="_top" xlink:title="Generate a Raven scriptPubKey for the given CTxDestination. ">
<polygon fill="#ffffff" stroke="#000000" points="184,-357.5 184,-376.5 306,-376.5 306,-357.5 184,-357.5"/>
<text text-anchor="middle" x="245" y="-364.5" font-family="Helvetica,sans-Serif" font-size="10.00" fill="#000000">GetScriptForDestination</text>
</a>
</g>
</g>
<!-- Node1232&#45;&gt;Node1283 -->
<g id="edge43" class="edge">
<title>Node1232&#45;&gt;Node1283</title>
<path fill="none" stroke="#191970" d="M107.431,-395.411C132.1493,-390.3061 162.739,-383.9887 188.792,-378.6082"/>
<polygon fill="#191970" stroke="#191970" points="189.8175,-381.9703 198.9029,-376.5201 188.4017,-375.115 189.8175,-381.9703"/>
</g>
<!-- Node1284 -->
<g id="node36" class="node">
<title>Node1284</title>
<g id="a_node36"><a xlink:href="assets_2assets_8cpp.html#a4442ef13091cc85b6a32884ebdb0773b" target="_top" xlink:title="GetBurnAddress">
<polygon fill="#ffffff" stroke="#000000" points="200.5,-301.5 200.5,-320.5 289.5,-320.5 289.5,-301.5 200.5,-301.5"/>
<text text-anchor="middle" x="245" y="-308.5" font-family="Helvetica,sans-Serif" font-size="10.00" fill="#000000">GetBurnAddress</text>
</a>
</g>
</g>
<!-- Node1232&#45;&gt;Node1284 -->
<g id="edge44" class="edge">
<title>Node1232&#45;&gt;Node1284</title>
<path fill="none" stroke="#191970" d="M75.7862,-395.499C94.523,-383.6506 127.9967,-363.1161 158,-348 174.9943,-339.4381 194.4396,-331.0425 210.6303,-324.4186"/>
<polygon fill="#191970" stroke="#191970" points="212.2781,-327.5278 220.2398,-320.5376 209.6567,-321.0372 212.2781,-327.5278"/>
</g>
<!-- Node1285 -->
<g id="node37" class="node">
<title>Node1285</title>
<g id="a_node37"><a xlink:href="group___actions.html#gaa6522c2833bc0a84d216cf102b51ba05" target="_top" xlink:title="CWallet::GetBalance">
<polygon fill="#ffffff" stroke="#000000" points="190.5,-263.5 190.5,-282.5 299.5,-282.5 299.5,-263.5 190.5,-263.5"/>
<text text-anchor="middle" x="245" y="-270.5" font-family="Helvetica,sans-Serif" font-size="10.00" fill="#000000">CWallet::GetBalance</text>
</a>
</g>
</g>
<!-- Node1232&#45;&gt;Node1285 -->
<g id="edge46" class="edge">
<title>Node1232&#45;&gt;Node1285</title>
<path fill="none" stroke="#191970" d="M66.3293,-395.2825C79.0295,-373.1078 113.3795,-318.6395 158,-292 164.8892,-287.887 172.5607,-284.6607 180.4142,-282.1308"/>
<polygon fill="#191970" stroke="#191970" points="181.3913,-285.4917 190.0437,-279.3773 179.4667,-278.7615 181.3913,-285.4917"/>
</g>
<!-- Node1298 -->
<g id="node40" class="node">
<title>Node1298</title>
<g id="a_node40"><a xlink:href="class_c_wallet.html#a3f5728bc5d3962386439668b8f2ea7a4" target="_top" xlink:title="Inquire whether this wallet broadcasts transactions. ">
<polygon fill="#ffffff" stroke="#000000" points="158,-225.5 158,-244.5 332,-244.5 332,-225.5 158,-225.5"/>
<text text-anchor="middle" x="245" y="-232.5" font-family="Helvetica,sans-Serif" font-size="10.00" fill="#000000">CWallet::GetBroadcastTransactions</text>
</a>
</g>
</g>
<!-- Node1232&#45;&gt;Node1298 -->
<g id="edge49" class="edge">
<title>Node1232&#45;&gt;Node1298</title>
<path fill="none" stroke="#191970" d="M64.2009,-395.3581C73.7131,-368.2916 104.5273,-291.1669 158,-254 160.8801,-251.9981 163.9331,-250.2018 167.1056,-248.5904"/>
<polygon fill="#191970" stroke="#191970" points="168.5851,-251.7632 176.3187,-244.5215 165.7571,-245.3599 168.5851,-251.7632"/>
</g>
<!-- Node1299 -->
<g id="node41" class="node">
<title>Node1299</title>
<g id="a_node41"><a xlink:href="classprevector.html#af34b1eea43f461465aa29fe7ca67449d" target="_top" xlink:title="prevector::push_back">
<polygon fill="#ffffff" stroke="#000000" points="190,-769.5 190,-788.5 300,-788.5 300,-769.5 190,-769.5"/>
<text text-anchor="middle" x="245" y="-776.5" font-family="Helvetica,sans-Serif" font-size="10.00" fill="#000000">prevector::push_back</text>
</a>
</g>
</g>
<!-- Node1232&#45;&gt;Node1299 -->
<g id="edge50" class="edge">
<title>Node1232&#45;&gt;Node1299</title>
<path fill="none" stroke="#191970" d="M62.285,-414.6694C69.3482,-466.3741 105.067,-709.7359 158,-760 164.2851,-765.9682 171.9899,-770.2337 180.191,-773.2559"/>
<polygon fill="#191970" stroke="#191970" points="179.4043,-776.6754 189.991,-776.2601 181.456,-769.9829 179.4043,-776.6754"/>
</g>
<!-- Node1307 -->
<g id="node46" class="node">
<title>Node1307</title>
<g id="a_node46"><a xlink:href="class_c_asset_transfer.html#a56e100f5cff3a6c5f9c53108dad2f3fc" target="_top" xlink:title="CAssetTransfer::Construct\lTransaction">
<polygon fill="#ffffff" stroke="#000000" points="178,-176 178,-206 312,-206 312,-176 178,-176"/>
<text text-anchor="start" x="186" y="-194" font-family="Helvetica,sans-Serif" font-size="10.00" fill="#000000">CAssetTransfer::Construct</text>
<text text-anchor="middle" x="245" y="-183" font-family="Helvetica,sans-Serif" font-size="10.00" fill="#000000">Transaction</text>
</a>
</g>
</g>
<!-- Node1232&#45;&gt;Node1307 -->
<g id="edge57" class="edge">
<title>Node1232&#45;&gt;Node1307</title>
<path fill="none" stroke="#191970" d="M63.0534,-395.4557C70.2143,-364.5209 97.0388,-266.1313 158,-216 161.2773,-213.3049 164.8311,-210.9002 168.5665,-208.7546"/>
<polygon fill="#191970" stroke="#191970" points="170.2226,-211.8393 177.5677,-204.2039 167.0642,-205.5923 170.2226,-211.8393"/>
</g>
<!-- Node1308 -->
<g id="node47" class="node">
<title>Node1308</title>
<g id="a_node47"><a xlink:href="assets_2assets_8cpp.html#a52e020e05bc45321be500ff2abc719dd" target="_top" xlink:title="Verifies that this wallet owns the give asset. ">
<polygon fill="#ffffff" stroke="#000000" points="188.5,-137.5 188.5,-156.5 301.5,-156.5 301.5,-137.5 188.5,-137.5"/>
<text text-anchor="middle" x="245" y="-144.5" font-family="Helvetica,sans-Serif" font-size="10.00" fill="#000000">VerifyWalletHasAsset</text>
</a>
</g>
</g>
<!-- Node1232&#45;&gt;Node1308 -->
<g id="edge58" class="edge">
<title>Node1232&#45;&gt;Node1308</title>
<path fill="none" stroke="#191970" d="M61.7931,-395.4254C65.3335,-359.1717 83.0013,-229.1875 158,-166 164.0687,-160.8871 171.2012,-157.0606 178.7271,-154.2103"/>
<polygon fill="#191970" stroke="#191970" points="179.9682,-157.4879 188.4197,-151.0986 177.8285,-150.8229 179.9682,-157.4879"/>
</g>
<!-- Node1309 -->
<g id="node48" class="node">
<title>Node1309</title>
<g id="a_node48"><a xlink:href="class_c_null_asset_tx_verifier_string.html#a57fc68705ec93ed603cc0d852f965d55" target="_top" xlink:title="CNullAssetTxVerifierString\l::ConstructTransaction">
<polygon fill="#ffffff" stroke="#000000" points="178,-88 178,-118 312,-118 312,-88 178,-88"/>
<text text-anchor="start" x="186" y="-106" font-family="Helvetica,sans-Serif" font-size="10.00" fill="#000000">CNullAssetTxVerifierString</text>
<text text-anchor="middle" x="245" y="-95" font-family="Helvetica,sans-Serif" font-size="10.00" fill="#000000">::ConstructTransaction</text>
</a>
</g>
</g>
<!-- Node1232&#45;&gt;Node1309 -->
<g id="edge59" class="edge">
<title>Node1232&#45;&gt;Node1309</title>
<path fill="none" stroke="#191970" d="M61.3398,-395.486C63.2683,-356.2589 75.9519,-205.4983 158,-128 161.3025,-124.8807 164.9684,-122.147 168.8735,-119.7518"/>
<polygon fill="#191970" stroke="#191970" points="170.5691,-122.8142 177.7566,-115.0302 167.2837,-116.6331 170.5691,-122.8142"/>
</g>
<!-- Node1310 -->
<g id="node49" class="node">
<title>Node1310</title>
<g id="a_node49"><a xlink:href="group___actions.html#ga63f758b1ae68f0da04cebc617994ba5a" target="_top" xlink:title="RVN START. ">
<polygon fill="#ffffff" stroke="#000000" points="176,-39 176,-69 314,-69 314,-39 176,-39"/>
<text text-anchor="start" x="184" y="-57" font-family="Helvetica,sans-Serif" font-size="10.00" fill="#000000">CWallet::CreateTransaction</text>
<text text-anchor="middle" x="245" y="-46" font-family="Helvetica,sans-Serif" font-size="10.00" fill="#000000">WithAssets</text>
</a>
</g>
</g>
<!-- Node1232&#45;&gt;Node1310 -->
<g id="edge60" class="edge">
<title>Node1232&#45;&gt;Node1310</title>
<path fill="none" stroke="#191970" d="M62.5511,-395.4978C70.6891,-346.7469 109.9156,-125.1699 158,-78 160.7333,-75.3186 163.7376,-72.9305 166.9362,-70.804"/>
<polygon fill="#191970" stroke="#191970" points="168.8392,-73.7483 175.8042,-65.7647 165.3807,-67.6624 168.8392,-73.7483"/>
</g>
<!-- Node1311 -->
<g id="node50" class="node">
<title>Node1311</title>
<g id="a_node50"><a xlink:href="utilmoneystr_8cpp.html#a0043c9abedcbce2d7d1d2cacaf595c9e" target="_top" xlink:title="Money parsing/formatting utilities. ">
<polygon fill="#ffffff" stroke="#000000" points="206.5,-.5 206.5,-19.5 283.5,-19.5 283.5,-.5 206.5,-.5"/>
<text text-anchor="middle" x="245" y="-7.5" font-family="Helvetica,sans-Serif" font-size="10.00" fill="#000000">FormatMoney</text>
</a>
</g>
</g>
<!-- Node1232&#45;&gt;Node1311 -->
<g id="edge61" class="edge">
<title>Node1232&#45;&gt;Node1311</title>
<path fill="none" stroke="#191970" d="M62.112,-395.4723C68.5077,-342.296 102.2843,-82.6668 158,-29 168.2144,-19.1612 182.2798,-13.9339 196.1245,-11.2765"/>
<polygon fill="#191970" stroke="#191970" points="196.7443,-14.7227 206.1084,-9.7665 195.6975,-7.8014 196.7443,-14.7227"/>
</g>
<!-- Node1234 -->
<g id="node3" class="node">
<title>Node1234</title>
<g id="a_node3"><a xlink:href="class_c_raven_address.html#a3c442b9abc0cbfb0518e9b0c4744427c" target="_top" xlink:title="CRavenAddress::IsValid">
<polygon fill="#ffffff" stroke="#000000" points="385,-921.5 385,-940.5 510,-940.5 510,-921.5 385,-921.5"/>
<text text-anchor="middle" x="447.5" y="-928.5" font-family="Helvetica,sans-Serif" font-size="10.00" fill="#000000">CRavenAddress::IsValid</text>
</a>
</g>
</g>
<!-- Node1233&#45;&gt;Node1234 -->
<g id="edge2" class="edge">
<title>Node1233&#45;&gt;Node1234</title>
<path fill="none" stroke="#191970" d="M294.5371,-931C318.6246,-931 348.0498,-931 374.6347,-931"/>
<polygon fill="#191970" stroke="#191970" points="374.6676,-934.5001 384.6675,-931 374.6675,-927.5001 374.6676,-934.5001"/>
</g>
<!-- Node1236 -->
<g id="node5" class="node">
<title>Node1236</title>
<g id="a_node5"><a xlink:href="class_c_base58_data.html#a7dc91af403ca02694b3247b15604e220" target="_top" xlink:title="CBase58Data::ToString">
<polygon fill="#ffffff" stroke="#000000" points="387,-959.5 387,-978.5 508,-978.5 508,-959.5 387,-959.5"/>
<text text-anchor="middle" x="447.5" y="-966.5" font-family="Helvetica,sans-Serif" font-size="10.00" fill="#000000">CBase58Data::ToString</text>
</a>
</g>
</g>
<!-- Node1233&#45;&gt;Node1236 -->
<g id="edge4" class="edge">
<title>Node1233&#45;&gt;Node1236</title>
<path fill="none" stroke="#191970" d="M294.5371,-940.2958C322.2932,-945.5044 357.1368,-952.043 386.5552,-957.5635"/>
<polygon fill="#191970" stroke="#191970" points="386.2401,-961.0653 396.7141,-959.4698 387.5312,-954.1854 386.2401,-961.0653"/>
</g>
<!-- Node1235 -->
<g id="node4" class="node">
<title>Node1235</title>
<g id="a_node4"><a xlink:href="chainparams_8cpp.html#ace5c5b706d71a324a417dd2db394fd4a" target="_top" xlink:title="Return the currently selected parameters. ">
<polygon fill="#ffffff" stroke="#000000" points="612,-921.5 612,-940.5 662,-940.5 662,-921.5 612,-921.5"/>
<text text-anchor="middle" x="637" y="-928.5" font-family="Helvetica,sans-Serif" font-size="10.00" fill="#000000">Params</text>
</a>
</g>
</g>
<!-- Node1234&#45;&gt;Node1235 -->
<g id="edge3" class="edge">
<title>Node1234&#45;&gt;Node1235</title>
<path fill="none" stroke="#191970" d="M510.0746,-931C540.5848,-931 576.1458,-931 601.8521,-931"/>
<polygon fill="#191970" stroke="#191970" points="601.8772,-934.5001 611.8771,-931 601.8771,-927.5001 601.8772,-934.5001"/>
</g>
<!-- Node1237 -->
<g id="node6" class="node">
<title>Node1237</title>
<g id="a_node6"><a xlink:href="base58_8cpp.html#ace9a5807ee51604f33044339f073ec76" target="_top" xlink:title="Encode a byte vector into a base58&#45;encoded string, including checksum. ">
<polygon fill="#ffffff" stroke="#ff0000" points="581.5,-959.5 581.5,-978.5 692.5,-978.5 692.5,-959.5 581.5,-959.5"/>
<text text-anchor="middle" x="637" y="-966.5" font-family="Helvetica,sans-Serif" font-size="10.00" fill="#000000">EncodeBase58Check</text>
</a>
</g>
</g>
<!-- Node1236&#45;&gt;Node1237 -->
<g id="edge5" class="edge">
<title>Node1236&#45;&gt;Node1237</title>
<path fill="none" stroke="#191970" d="M508.2409,-969C528.3375,-969 550.7877,-969 571.2428,-969"/>
<polygon fill="#191970" stroke="#191970" points="571.4187,-972.5001 581.4187,-969 571.4186,-965.5001 571.4187,-972.5001"/>
</g>
<!-- Node1250 -->
<g id="node9" class="node">
<title>Node1250</title>
<g id="a_node9"><a xlink:href="validation_8cpp.html#a0e99fa19d4750df87e0a17fbed8b0ce8" target="_top" xlink:title="RVN START. ">
<polygon fill="#ffffff" stroke="#000000" points="395.5,-415.5 395.5,-434.5 499.5,-434.5 499.5,-415.5 395.5,-415.5"/>
<text text-anchor="middle" x="447.5" y="-422.5" font-family="Helvetica,sans-Serif" font-size="10.00" fill="#000000">AreAssetsDeployed</text>
</a>
</g>
</g>
<!-- Node1249&#45;&gt;Node1250 -->
<g id="edge8" class="edge">
<title>Node1249&#45;&gt;Node1250</title>
<path fill="none" stroke="#191970" d="M314.3244,-540.3322C320.6963,-537.6788 326.7268,-534.2974 332,-530 362.5386,-505.1124 338.4572,-475.0619 368,-449 373.2301,-444.3861 379.3224,-440.659 385.7642,-437.6482"/>
<polygon fill="#191970" stroke="#191970" points="387.4496,-440.7411 395.3926,-433.7298 384.8109,-434.2575 387.4496,-440.7411"/>
</g>
<!-- Node1251 -->
<g id="node10" class="node">
<title>Node1251</title>
<g id="a_node10"><a xlink:href="assets_2assets_8cpp.html#a502421abc8868b5f7ec7437b366d572e" target="_top" xlink:title="CheckNewAsset">
<polygon fill="#ffffff" stroke="#000000" points="402,-491.5 402,-510.5 493,-510.5 493,-491.5 402,-491.5"/>
<text text-anchor="middle" x="447.5" y="-498.5" font-family="Helvetica,sans-Serif" font-size="10.00" fill="#000000">CheckNewAsset</text>
</a>
</g>
</g>
<!-- Node1249&#45;&gt;Node1251 -->
<g id="edge9" class="edge">
<title>Node1249&#45;&gt;Node1251</title>
<path fill="none" stroke="#191970" d="M291.1657,-539.4209C304.3878,-536.5413 318.7947,-533.2733 332,-530 348.118,-526.0047 351.9219,-524.1529 368,-520 377.0812,-517.6544 386.7724,-515.2535 396.1533,-512.9822"/>
<polygon fill="#191970" stroke="#191970" points="397.2612,-516.3157 406.1673,-510.5772 395.6265,-509.5092 397.2612,-516.3157"/>
</g>
<!-- Node1253 -->
<g id="node12" class="node">
<title>Node1253</title>
<g id="a_node12"><a xlink:href="util_8h.html#aad133bb6103b53cebf03fd01e2f11ba1" target="_top" xlink:title="Translation function: Call Translate signal on UI interface, which returns a boost::optional result...">
<polygon fill="#ffffff" stroke="#000000" points="622.5,-389.5 622.5,-408.5 651.5,-408.5 651.5,-389.5 622.5,-389.5"/>
<text text-anchor="middle" x="637" y="-396.5" font-family="Helvetica,sans-Serif" font-size="10.00" fill="#000000">_</text>
</a>
</g>
</g>
<!-- Node1249&#45;&gt;Node1253 -->
<g id="edge18" class="edge">
<title>Node1249&#45;&gt;Node1253</title>
<path fill="none" stroke="#191970" d="M312.5045,-539.3812C319.3753,-536.921 326.0171,-533.8446 332,-530 354.4341,-515.5839 345.7081,-496.635 368,-482 428.7371,-442.125 457.8388,-466.2653 527,-444 557.3173,-434.2398 591.0665,-419.8892 613.0866,-410.0324"/>
<polygon fill="#191970" stroke="#191970" points="614.6563,-413.1638 622.3241,-405.8524 611.7705,-406.7863 614.6563,-413.1638"/>
</g>
<!-- Node1257 -->
<g id="node16" class="node">
<title>Node1257</title>
<g id="a_node16"><a xlink:href="class_c_assets_cache.html#a14f851cfa27dac74476f86c99c1b03f2" target="_top" xlink:title="Returns true if an asset with this name already exists. ">
<polygon fill="#ffffff" stroke="#000000" points="373,-606 373,-636 522,-636 522,-606 373,-606"/>
<text text-anchor="start" x="381" y="-624" font-family="Helvetica,sans-Serif" font-size="10.00" fill="#000000">CAssetsCache::CheckIfAsset</text>
<text text-anchor="middle" x="447.5" y="-613" font-family="Helvetica,sans-Serif" font-size="10.00" fill="#000000">Exists</text>
</a>
</g>
</g>
<!-- Node1249&#45;&gt;Node1257 -->
<g id="edge16" class="edge">
<title>Node1249&#45;&gt;Node1257</title>
<path fill="none" stroke="#191970" d="M271.8904,-558.561C303.2315,-569.7045 355.7578,-588.3806 395.2159,-602.4101"/>
<polygon fill="#191970" stroke="#191970" points="394.3505,-605.817 404.9452,-605.8694 396.6956,-599.2215 394.3505,-605.817"/>
</g>
<!-- Node1260 -->
<g id="node18" class="node">
<title>Node1260</title>
<g id="a_node18"><a xlink:href="validation_8cpp.html#a149d069990401daec0d9fef9f81c1c74" target="_top" xlink:title="AreMessagingDeployed">
<polygon fill="#ffffff" stroke="#000000" points="577,-579.5 577,-598.5 697,-598.5 697,-579.5 577,-579.5"/>
<text text-anchor="middle" x="637" y="-586.5" font-family="Helvetica,sans-Serif" font-size="10.00" fill="#000000">AreMessagingDeployed</text>
</a>
</g>
</g>
<!-- Node1249&#45;&gt;Node1260 -->
<g id="edge19" class="edge">
<title>Node1249&#45;&gt;Node1260</title>
<path fill="none" stroke="#191970" d="M314.1794,-556.0591C385.1975,-563.3059 495.1447,-574.525 566.6036,-581.8167"/>
<polygon fill="#191970" stroke="#191970" points="566.5546,-585.3298 576.8582,-582.8631 567.2652,-578.3659 566.5546,-585.3298"/>
</g>
<!-- Node1261 -->
<g id="node19" class="node">
<title>Node1261</title>
<g id="a_node19"><a xlink:href="assets_2assets_8cpp.html#aa2cbb008291be23f6ef30d12b7515496" target="_top" xlink:title="Check the Encoded hash and make sure it is either an IPFS hash or a OIP hash. ">
<polygon fill="#ffffff" stroke="#000000" points="406,-529.5 406,-548.5 489,-548.5 489,-529.5 406,-529.5"/>
<text text-anchor="middle" x="447.5" y="-536.5" font-family="Helvetica,sans-Serif" font-size="10.00" fill="#000000">CheckEncoded</text>
</a>
</g>
</g>
<!-- Node1249&#45;&gt;Node1261 -->
<g id="edge20" class="edge">
<title>Node1249&#45;&gt;Node1261</title>
<path fill="none" stroke="#191970" d="M314.1226,-545.5865C340.7901,-544.2696 370.7747,-542.7889 395.5498,-541.5654"/>
<polygon fill="#191970" stroke="#191970" points="396.0086,-545.0471 405.8238,-541.0581 395.6633,-538.0557 396.0086,-545.0471"/>
</g>
<!-- Node1251&#45;&gt;Node1252 -->
<g id="edge10" class="edge">
<title>Node1251&#45;&gt;Node1252</title>
<path fill="none" stroke="#191970" d="M485.7615,-491.4206C499.0591,-487.5778 513.9134,-482.6977 527,-477 543.9834,-469.6057 545.1187,-460.8342 563,-456 626.4982,-438.8333 652.208,-426.5006 711,-456 750.5442,-475.8417 776.3782,-523.7701 788.3185,-550.7379"/>
<polygon fill="#191970" stroke="#191970" points="785.223,-552.4046 792.3385,-560.2545 791.6713,-549.6807 785.223,-552.4046"/>
</g>
<!-- Node1251&#45;&gt;Node1253 -->
<g id="edge11" class="edge">
<title>Node1251&#45;&gt;Node1253</title>
<path fill="none" stroke="#191970" d="M493.3499,-492.9502C505.0844,-489.3965 517.1559,-484.2987 527,-477 550.1706,-459.8208 540.0062,-440.415 563,-423 577.4339,-412.0681 597.0442,-406.004 612.451,-402.7074"/>
<polygon fill="#191970" stroke="#191970" points="613.1536,-406.1367 622.3303,-400.8415 611.8544,-399.2583 613.1536,-406.1367"/>
</g>
<!-- Node1256 -->
<g id="node15" class="node">
<title>Node1256</title>
<g id="a_node15"><a xlink:href="assets_2assets_8cpp.html#a0322f60e3b096607eaa0221570e9fd58" target="_top" xlink:title="Check if an asset is an owner. ">
<polygon fill="#ffffff" stroke="#000000" points="578.5,-465.5 578.5,-484.5 695.5,-484.5 695.5,-465.5 578.5,-465.5"/>
<text text-anchor="middle" x="637" y="-472.5" font-family="Helvetica,sans-Serif" font-size="10.00" fill="#000000">IsAssetNameAnOwner</text>
</a>
</g>
</g>
<!-- Node1251&#45;&gt;Node1256 -->
<g id="edge14" class="edge">
<title>Node1251&#45;&gt;Node1256</title>
<path fill="none" stroke="#191970" d="M493.3727,-494.7061C515.8043,-491.6284 543.2689,-487.8602 568.152,-484.4462"/>
<polygon fill="#191970" stroke="#191970" points="568.8386,-487.8848 578.27,-483.0579 567.887,-480.9498 568.8386,-487.8848"/>
</g>
<!-- Node1254 -->
<g id="node13" class="node">
<title>Node1254</title>
<g id="a_node13"><a xlink:href="util_8h.html#a9ed616020f4ef9b1a261b222bbec78e2" target="_top" xlink:title="SetupEnvironment">
<polygon fill="#ffffff" stroke="#000000" points="747.5,-370.5 747.5,-389.5 844.5,-389.5 844.5,-370.5 747.5,-370.5"/>
<text text-anchor="middle" x="796" y="-377.5" font-family="Helvetica,sans-Serif" font-size="10.00" fill="#000000">SetupEnvironment</text>
</a>
</g>
</g>
<!-- Node1253&#45;&gt;Node1254 -->
<g id="edge12" class="edge">
<title>Node1253&#45;&gt;Node1254</title>
<path fill="none" stroke="#191970" d="M651.6733,-397.2466C671.0131,-394.9355 706.19,-390.732 736.9726,-387.0536"/>
<polygon fill="#191970" stroke="#191970" points="737.7002,-390.4916 747.2142,-385.8297 736.8695,-383.5411 737.7002,-390.4916"/>
</g>
<!-- Node1255 -->
<g id="node14" class="node">
<title>Node1255</title>
<g id="a_node14"><a xlink:href="util_8h.html#a66791919e137c59061e988d2d87ee9a1" target="_top" xlink:title="SetupNetworking">
<polygon fill="#ffffff" stroke="#000000" points="750,-408.5 750,-427.5 842,-427.5 842,-408.5 750,-408.5"/>
<text text-anchor="middle" x="796" y="-415.5" font-family="Helvetica,sans-Serif" font-size="10.00" fill="#000000">SetupNetworking</text>
</a>
</g>
</g>
<!-- Node1253&#45;&gt;Node1255 -->
<g id="edge13" class="edge">
<title>Node1253&#45;&gt;Node1255</title>
<path fill="none" stroke="#191970" d="M651.6733,-400.7534C671.5828,-403.1325 708.2761,-407.5173 739.6809,-411.27"/>
<polygon fill="#191970" stroke="#191970" points="739.3187,-414.7516 749.6634,-412.4629 740.1494,-407.801 739.3187,-414.7516"/>
</g>
<!-- Node1256&#45;&gt;Node1252 -->
<g id="edge15" class="edge">
<title>Node1256&#45;&gt;Node1252</title>
<path fill="none" stroke="#191970" d="M687.5831,-484.5231C695.6648,-487.0148 703.7457,-490.1265 711,-494 739.2122,-509.064 765.6695,-535.3843 781.3503,-552.7532"/>
<polygon fill="#191970" stroke="#191970" points="778.9092,-555.2772 788.143,-560.4722 784.1642,-550.6528 778.9092,-555.2772"/>
</g>
<!-- Node1258 -->
<g id="node17" class="node">
<title>Node1258</title>
<g id="a_node17"><a xlink:href="class_c_assets_d_b.html#a38162c2ca81726b81e20778d4129074c" target="_top" xlink:title="CAssetsDB::ReadAssetData">
<polygon fill="#ffffff" stroke="#ff0000" points="564.5,-617.5 564.5,-636.5 709.5,-636.5 709.5,-617.5 564.5,-617.5"/>
<text text-anchor="middle" x="637" y="-624.5" font-family="Helvetica,sans-Serif" font-size="10.00" fill="#000000">CAssetsDB::ReadAssetData</text>
</a>
</g>
</g>
<!-- Node1257&#45;&gt;Node1258 -->
<g id="edge17" class="edge">
<title>Node1257&#45;&gt;Node1258</title>
<path fill="none" stroke="#191970" d="M522.1234,-623.3627C532.6409,-623.6958 543.5053,-624.0397 554.1652,-624.3773"/>
<polygon fill="#191970" stroke="#191970" points="554.1991,-627.88 564.3049,-624.6983 554.4207,-620.8835 554.1991,-627.88"/>
</g>
<!-- Node1261&#45;&gt;Node1253 -->
<g id="edge24" class="edge">
<title>Node1261&#45;&gt;Node1253</title>
<path fill="none" stroke="#191970" d="M489.1028,-535.6288C502.2279,-532.93 516.126,-528.2065 527,-520 553.0497,-500.3404 541.6425,-480.6768 563,-456 577.6378,-439.0873 597.9839,-423.8526 613.6379,-413.3974"/>
<polygon fill="#191970" stroke="#191970" points="615.752,-416.1979 622.234,-407.8173 611.9405,-410.3265 615.752,-416.1979"/>
</g>
<!-- Node1261&#45;&gt;Node1260 -->
<g id="edge22" class="edge">
<title>Node1261&#45;&gt;Node1260</title>
<path fill="none" stroke="#191970" d="M482.6031,-548.528C505.4804,-554.7113 535.9909,-562.9083 563,-570 571.5754,-572.2516 580.7178,-574.6228 589.5463,-576.8976"/>
<polygon fill="#191970" stroke="#191970" points="588.7772,-580.3136 599.3338,-579.4134 590.52,-573.534 588.7772,-580.3136"/>
</g>
<!-- Node1262 -->
<g id="node20" class="node">
<title>Node1262</title>
<g id="a_node20"><a xlink:href="assets_2assets_8cpp.html#ab1ad26491b92ed7cd206887146119fab" target="_top" xlink:title="EncodeAssetData">
<polygon fill="#ffffff" stroke="#ff0000" points="589,-541.5 589,-560.5 685,-560.5 685,-541.5 589,-541.5"/>
<text text-anchor="middle" x="637" y="-548.5" font-family="Helvetica,sans-Serif" font-size="10.00" fill="#000000">EncodeAssetData</text>
</a>
</g>
</g>
<!-- Node1261&#45;&gt;Node1262 -->
<g id="edge21" class="edge">
<title>Node1261&#45;&gt;Node1262</title>
<path fill="none" stroke="#191970" d="M489.0866,-541.6335C515.4006,-543.2998 549.803,-545.4783 578.8074,-547.315"/>
<polygon fill="#191970" stroke="#191970" points="578.6181,-550.8099 588.8193,-547.949 579.0605,-543.8239 578.6181,-550.8099"/>
</g>
<!-- Node1265 -->
<g id="node21" class="node">
<title>Node1265</title>
<g id="a_node21"><a xlink:href="utilstrencodings_8cpp.html#a9f23401f4b871ed693f7a96a9ba40c58" target="_top" xlink:title="IsHex">
<polygon fill="#ffffff" stroke="#ff0000" points="615.5,-503.5 615.5,-522.5 658.5,-522.5 658.5,-503.5 615.5,-503.5"/>
<text text-anchor="middle" x="637" y="-510.5" font-family="Helvetica,sans-Serif" font-size="10.00" fill="#000000">IsHex</text>
</a>
</g>
</g>
<!-- Node1261&#45;&gt;Node1265 -->
<g id="edge23" class="edge">
<title>Node1261&#45;&gt;Node1265</title>
<path fill="none" stroke="#191970" d="M489.0866,-533.2942C524.1293,-528.4862 573.5167,-521.7101 605.3967,-517.3361"/>
<polygon fill="#191970" stroke="#191970" points="606.0596,-520.778 615.491,-515.9511 605.1081,-513.843 606.0596,-520.778"/>
</g>
<!-- Node1268 -->
<g id="node23" class="node">
<title>Node1268</title>
<g id="a_node23"><a xlink:href="class_c_raven_address.html#a5e7e76de59b448a766b7e0c7b959280e" target="_top" xlink:title="CRavenAddress::Get">
<polygon fill="#ffffff" stroke="#000000" points="392.5,-883.5 392.5,-902.5 502.5,-902.5 502.5,-883.5 392.5,-883.5"/>
<text text-anchor="middle" x="447.5" y="-890.5" font-family="Helvetica,sans-Serif" font-size="10.00" fill="#000000">CRavenAddress::Get</text>
</a>
</g>
</g>
<!-- Node1267&#45;&gt;Node1268 -->
<g id="edge26" class="edge">
<title>Node1267&#45;&gt;Node1268</title>
<path fill="none" stroke="#191970" d="M295.0562,-864.3933C322.7151,-869.5836 357.2907,-876.0718 386.5181,-881.5565"/>
<polygon fill="#191970" stroke="#191970" points="386.1391,-885.0464 396.6131,-883.4509 387.4302,-878.1665 386.1391,-885.0464"/>
</g>
<!-- Node1268&#45;&gt;Node1235 -->
<g id="edge28" class="edge">
<title>Node1268&#45;&gt;Node1235</title>
<path fill="none" stroke="#191970" d="M495.3189,-902.589C528.4699,-909.2367 571.8755,-917.9407 601.8637,-923.9542"/>
<polygon fill="#191970" stroke="#191970" points="601.3796,-927.4267 611.8726,-925.9613 602.7559,-920.5634 601.3796,-927.4267"/>
</g>
<!-- Node1241 -->
<g id="node24" class="node">
<title>Node1241</title>
<g id="a_node24"><a xlink:href="glibc__compat_8cpp.html#a0f46826ab0466591e136db24394923cf" target="_top" xlink:title="memcpy">
<polygon fill="#ffffff" stroke="#ff0000" points="610,-845.5 610,-864.5 664,-864.5 664,-845.5 610,-845.5"/>
<text text-anchor="middle" x="637" y="-852.5" font-family="Helvetica,sans-Serif" font-size="10.00" fill="#000000">memcpy</text>
</a>
</g>
</g>
<!-- Node1268&#45;&gt;Node1241 -->
<g id="edge27" class="edge">
<title>Node1268&#45;&gt;Node1241</title>
<path fill="none" stroke="#191970" d="M495.3189,-883.411C527.6853,-876.9206 569.8265,-868.4701 599.7121,-862.4772"/>
<polygon fill="#191970" stroke="#191970" points="600.6192,-865.8651 609.7358,-860.4672 599.2428,-859.0018 600.6192,-865.8651"/>
</g>
<!-- Node1269 -->
<g id="node25" class="node">
<title>Node1269</title>
<g id="a_node25"><a xlink:href="class_c_chain_params.html#a103c58eca4a26a71201882b3ed6c4cb4" target="_top" xlink:title="CChainParams::Base58Prefix">
<polygon fill="#ffffff" stroke="#000000" points="563,-883.5 563,-902.5 711,-902.5 711,-883.5 563,-883.5"/>
<text text-anchor="middle" x="637" y="-890.5" font-family="Helvetica,sans-Serif" font-size="10.00" fill="#000000">CChainParams::Base58Prefix</text>
</a>
</g>
</g>
<!-- Node1268&#45;&gt;Node1269 -->
<g id="edge29" class="edge">
<title>Node1268&#45;&gt;Node1269</title>
<path fill="none" stroke="#191970" d="M502.5658,-893C518.1311,-893 535.4404,-893 552.3186,-893"/>
<polygon fill="#191970" stroke="#191970" points="552.7525,-896.5001 562.7525,-893 552.7525,-889.5001 552.7525,-896.5001"/>
</g>
<!-- Node1271&#45;&gt;Node1253 -->
<g id="edge33" class="edge">
<title>Node1271&#45;&gt;Node1253</title>
<path fill="none" stroke="#191970" d="M315.8076,-491.4285C321.7345,-488.3534 327.2606,-484.5939 332,-480 369.5437,-443.6091 325.7484,-398.7998 368,-368 425.1048,-326.3729 456.9988,-358.3246 527,-368 557.2015,-372.1744 590.7791,-382.5067 612.7982,-390.1004"/>
<polygon fill="#191970" stroke="#191970" points="611.736,-393.437 622.3308,-393.4668 614.067,-386.8365 611.736,-393.437"/>
</g>
<!-- Node1272 -->
<g id="node28" class="node">
<title>Node1272</title>
<g id="a_node28"><a xlink:href="group___actions.html#gad2347fdc30dfbba5298f2386a219c13d" target="_top" xlink:title="CReserveKey::GetReservedKey">
<polygon fill="#ffffff" stroke="#000000" points="368,-377.5 368,-396.5 527,-396.5 527,-377.5 368,-377.5"/>
<text text-anchor="middle" x="447.5" y="-384.5" font-family="Helvetica,sans-Serif" font-size="10.00" fill="#000000">CReserveKey::GetReservedKey</text>
</a>
</g>
</g>
<!-- Node1271&#45;&gt;Node1272 -->
<g id="edge32" class="edge">
<title>Node1271&#45;&gt;Node1272</title>
<path fill="none" stroke="#191970" d="M315.5827,-490.4904C321.4832,-487.6045 327.0674,-484.1456 332,-480 359.9991,-456.4685 339.4761,-428.8924 368,-406 370.082,-404.329 372.2874,-402.801 374.5867,-401.404"/>
<polygon fill="#191970" stroke="#191970" points="376.5639,-404.3231 383.8589,-396.6398 373.3647,-398.0969 376.5639,-404.3231"/>
</g>
<!-- Node1273 -->
<g id="node29" class="node">
<title>Node1273</title>
<g id="a_node29"><a xlink:href="class_c_pub_key.html#a2675f7e6f72eff68e7a5227289feb021" target="_top" xlink:title="Get the KeyID of this public key (hash of its serialization) ">
<polygon fill="#ffffff" stroke="#000000" points="402,-301.5 402,-320.5 493,-320.5 493,-301.5 402,-301.5"/>
<text text-anchor="middle" x="447.5" y="-308.5" font-family="Helvetica,sans-Serif" font-size="10.00" fill="#000000">CPubKey::GetID</text>
</a>
</g>
</g>
<!-- Node1271&#45;&gt;Node1273 -->
<g id="edge34" class="edge">
<title>Node1271&#45;&gt;Node1273</title>
<path fill="none" stroke="#191970" d="M315.7196,-491.9822C321.7402,-488.8005 327.3095,-484.8647 332,-480 378.0888,-432.1993 322.2317,-383.1077 368,-335 374.6379,-328.0228 383.2243,-323.0527 392.2905,-319.5173"/>
<polygon fill="#191970" stroke="#191970" points="393.4719,-322.8129 401.8505,-316.3284 391.2569,-316.1726 393.4719,-322.8129"/>
</g>
<!-- Node1274 -->
<g id="node30" class="node">
<title>Node1274</title>
<g id="a_node30"><a xlink:href="class_c_key_i_d.html#a01dbd3c37820a2ffe89d106c6a7cf53d" target="_top" xlink:title="CKeyID::CKeyID">
<polygon fill="#ffffff" stroke="#000000" points="590.5,-263.5 590.5,-282.5 683.5,-282.5 683.5,-263.5 590.5,-263.5"/>
<text text-anchor="middle" x="637" y="-270.5" font-family="Helvetica,sans-Serif" font-size="10.00" fill="#000000">CKeyID::CKeyID</text>
</a>
</g>
</g>
<!-- Node1273&#45;&gt;Node1274 -->
<g id="edge35" class="edge">
<title>Node1273&#45;&gt;Node1274</title>
<path fill="none" stroke="#191970" d="M493.3727,-301.8013C519.5178,-296.5584 552.5005,-289.9445 580.2634,-284.3773"/>
<polygon fill="#191970" stroke="#191970" points="581.1167,-287.7759 590.2333,-282.378 579.7403,-280.9126 581.1167,-287.7759"/>
</g>
<!-- Node1275 -->
<g id="node31" class="node">
<title>Node1275</title>
<g id="a_node31"><a xlink:href="hash_8h.html#a4490f70ddae16e9e48460a0416a48a6b" target="_top" xlink:title="Compute the 160&#45;bit hash an object. ">
<polygon fill="#ffffff" stroke="#ff0000" points="609,-339.5 609,-358.5 665,-358.5 665,-339.5 609,-339.5"/>
<text text-anchor="middle" x="637" y="-346.5" font-family="Helvetica,sans-Serif" font-size="10.00" fill="#000000">Hash160</text>
</a>
</g>
</g>
<!-- Node1273&#45;&gt;Node1275 -->
<g id="edge36" class="edge">
<title>Node1273&#45;&gt;Node1275</title>
<path fill="none" stroke="#191970" d="M493.3727,-320.1987C525.7503,-326.6914 568.6138,-335.2867 599.0646,-341.3929"/>
<polygon fill="#191970" stroke="#191970" points="598.3894,-344.8271 608.8824,-343.3616 599.7658,-337.9637 598.3894,-344.8271"/>
</g>
<!-- Node1280 -->
<g id="node32" class="node">
<title>Node1280</title>
<g id="a_node32"><a xlink:href="classbase__blob.html#a00e7426a5d1ada51c635debf85f5a810" target="_top" xlink:title="base_blob\&lt; 160 \&gt;::size">
<polygon fill="#ffffff" stroke="#000000" points="577.5,-301.5 577.5,-320.5 696.5,-320.5 696.5,-301.5 577.5,-301.5"/>
<text text-anchor="middle" x="637" y="-308.5" font-family="Helvetica,sans-Serif" font-size="10.00" fill="#000000">base_blob&lt; 160 &gt;::size</text>
</a>
</g>
</g>
<!-- Node1273&#45;&gt;Node1280 -->
<g id="edge37" class="edge">
<title>Node1273&#45;&gt;Node1280</title>
<path fill="none" stroke="#191970" d="M493.3727,-311C515.5154,-311 542.5625,-311 567.1895,-311"/>
<polygon fill="#191970" stroke="#191970" points="567.2118,-314.5001 577.2117,-311 567.2117,-307.5001 567.2118,-314.5001"/>
</g>
<!-- Node1281&#45;&gt;Node1252 -->
<g id="edge40" class="edge">
<title>Node1281&#45;&gt;Node1252</title>
<path fill="none" stroke="#191970" d="M491.0011,-670.1865C544.9299,-674.7853 638.5738,-676.6869 711,-646 740.7611,-633.3902 767.1369,-605.9483 782.3386,-587.7244"/>
<polygon fill="#191970" stroke="#191970" points="785.3176,-589.6057 788.8695,-579.624 779.8682,-585.2121 785.3176,-589.6057"/>
</g>
<!-- Node1282&#45;&gt;Node1282 -->
<g id="edge42" class="edge">
<title>Node1282&#45;&gt;Node1282</title>
<path fill="none" stroke="#191970" d="M216.6403,-414.7571C202.8436,-423.5653 212.2969,-433 245,-433 267.4834,-433 278.9776,-428.5406 279.4826,-422.8913"/>
<polygon fill="#191970" stroke="#191970" points="282.1701,-420.6417 273.3597,-414.7571 276.5774,-424.8515 282.1701,-420.6417"/>
</g>
<!-- Node1284&#45;&gt;Node1284 -->
<g id="edge45" class="edge">
<title>Node1284&#45;&gt;Node1284</title>
<path fill="none" stroke="#191970" d="M216.6403,-320.7571C202.8436,-329.5653 212.2969,-339 245,-339 267.4834,-339 278.9776,-334.5406 279.4826,-328.8913"/>
<polygon fill="#191970" stroke="#191970" points="282.1701,-326.6417 273.3597,-320.7571 276.5774,-330.8515 282.1701,-326.6417"/>
</g>
<!-- Node1286 -->
<g id="node38" class="node">
<title>Node1286</title>
<g id="a_node38"><a xlink:href="group__map_wallet.html#ga71efb0d5b5def8ae00a1d74b8741bfcb" target="_top" xlink:title="CWalletTx::IsTrusted">
<polygon fill="#ffffff" stroke="#ff0000" points="392.5,-263.5 392.5,-282.5 502.5,-282.5 502.5,-263.5 392.5,-263.5"/>
<text text-anchor="middle" x="447.5" y="-270.5" font-family="Helvetica,sans-Serif" font-size="10.00" fill="#000000">CWalletTx::IsTrusted</text>
</a>
</g>
</g>
<!-- Node1285&#45;&gt;Node1286 -->
<g id="edge47" class="edge">
<title>Node1285&#45;&gt;Node1286</title>
<path fill="none" stroke="#191970" d="M299.5327,-273C324.9816,-273 355.4739,-273 382.1478,-273"/>
<polygon fill="#191970" stroke="#191970" points="382.1655,-276.5001 392.1655,-273 382.1654,-269.5001 382.1655,-276.5001"/>
</g>
<!-- Node1296 -->
<g id="node39" class="node">
<title>Node1296</title>
<g id="a_node39"><a xlink:href="group__map_wallet.html#gaf3c82ba365c720dd3d929b86bf432ef6" target="_top" xlink:title="CWalletTx::GetAvailableCredit">
<polygon fill="#ffffff" stroke="#ff0000" points="372,-225.5 372,-244.5 523,-244.5 523,-225.5 372,-225.5"/>
<text text-anchor="middle" x="447.5" y="-232.5" font-family="Helvetica,sans-Serif" font-size="10.00" fill="#000000">CWalletTx::GetAvailableCredit</text>
</a>
</g>
</g>
<!-- Node1285&#45;&gt;Node1296 -->
<g id="edge48" class="edge">
<title>Node1285&#45;&gt;Node1296</title>
<path fill="none" stroke="#191970" d="M295.8379,-263.46C323.4005,-258.2878 357.6547,-251.8599 386.6314,-246.4222"/>
<polygon fill="#191970" stroke="#191970" points="387.4583,-249.8283 396.6412,-244.5439 386.1672,-242.9484 387.4583,-249.8283"/>
</g>
<!-- Node1300 -->
<g id="node42" class="node">
<title>Node1300</title>
<g id="a_node42"><a xlink:href="classprevector.html#a626f7d206dbc24e5610631809762758b" target="_top" xlink:title="prevector::size">
<polygon fill="#ffffff" stroke="#ff0000" points="596.5,-769.5 596.5,-788.5 677.5,-788.5 677.5,-769.5 596.5,-769.5"/>
<text text-anchor="middle" x="637" y="-776.5" font-family="Helvetica,sans-Serif" font-size="10.00" fill="#000000">prevector::size</text>
</a>
</g>
</g>
<!-- Node1299&#45;&gt;Node1300 -->
<g id="edge51" class="edge">
<title>Node1299&#45;&gt;Node1300</title>
<path fill="none" stroke="#191970" d="M295.0672,-769.4866C317.3116,-765.721 343.8707,-761.8527 368,-760 438.4593,-754.5901 456.5916,-753.964 527,-760 546.5505,-761.676 567.8432,-764.9984 586.4417,-768.4027"/>
<polygon fill="#191970" stroke="#191970" points="585.9937,-771.8798 596.4689,-770.2924 587.2901,-765.0009 585.9937,-771.8798"/>
</g>
<!-- Node1302 -->
<g id="node43" class="node">
<title>Node1302</title>
<g id="a_node43"><a xlink:href="classprevector.html#a833f4c9e5c4804fb8ac57b708657af24" target="_top" xlink:title="prevector::capacity">
<polygon fill="#ffffff" stroke="#ff0000" points="397.5,-769.5 397.5,-788.5 497.5,-788.5 497.5,-769.5 397.5,-769.5"/>
<text text-anchor="middle" x="447.5" y="-776.5" font-family="Helvetica,sans-Serif" font-size="10.00" fill="#000000">prevector::capacity</text>
</a>
</g>
</g>
<!-- Node1299&#45;&gt;Node1302 -->
<g id="edge52" class="edge">
<title>Node1299&#45;&gt;Node1302</title>
<path fill="none" stroke="#191970" d="M300.0665,-779C326.9638,-779 359.3951,-779 386.984,-779"/>
<polygon fill="#191970" stroke="#191970" points="387.2991,-782.5001 397.299,-779 387.299,-775.5001 387.2991,-782.5001"/>
</g>
<!-- Node1303 -->
<g id="node44" class="node">
<title>Node1303</title>
<g id="a_node44"><a xlink:href="classprevector.html#a0e673654d3b7d8d6f79534e17f68741a" target="_top" xlink:title="prevector::change_capacity">
<polygon fill="#ffffff" stroke="#ff0000" points="379,-845.5 379,-864.5 516,-864.5 516,-845.5 379,-845.5"/>
<text text-anchor="middle" x="447.5" y="-852.5" font-family="Helvetica,sans-Serif" font-size="10.00" fill="#000000">prevector::change_capacity</text>
</a>
</g>
</g>
<!-- Node1299&#45;&gt;Node1303 -->
<g id="edge53" class="edge">
<title>Node1299&#45;&gt;Node1303</title>
<path fill="none" stroke="#191970" d="M262.8675,-788.6626C286.3943,-801.0602 329.3147,-822.5643 368,-836 375.352,-838.5534 383.2026,-840.8848 391.0008,-842.972"/>
<polygon fill="#191970" stroke="#191970" points="390.2533,-846.3935 400.809,-845.4837 391.9899,-839.6123 390.2533,-846.3935"/>
</g>
<!-- Node1306 -->
<g id="node45" class="node">
<title>Node1306</title>
<g id="a_node45"><a xlink:href="classprevector.html#a59f1d7bcbc751cfa0faddd7ffa184846" target="_top" xlink:title="prevector::item_ptr">
<polygon fill="#ffffff" stroke="#ff0000" points="398.5,-807.5 398.5,-826.5 496.5,-826.5 496.5,-807.5 398.5,-807.5"/>
<text text-anchor="middle" x="447.5" y="-814.5" font-family="Helvetica,sans-Serif" font-size="10.00" fill="#000000">prevector::item_ptr</text>
</a>
</g>
</g>
<!-- Node1299&#45;&gt;Node1306 -->
<g id="edge56" class="edge">
<title>Node1299&#45;&gt;Node1306</title>
<path fill="none" stroke="#191970" d="M295.8379,-788.54C323.9245,-793.8105 358.9595,-800.385 388.2783,-805.8868"/>
<polygon fill="#191970" stroke="#191970" points="387.9156,-809.3797 398.3896,-807.7842 389.2067,-802.4998 387.9156,-809.3797"/>
</g>
<!-- Node1303&#45;&gt;Node1241 -->
<g id="edge54" class="edge">
<title>Node1303&#45;&gt;Node1241</title>
<path fill="none" stroke="#191970" d="M516.1818,-855C544.4156,-855 575.998,-855 599.79,-855"/>
<polygon fill="#191970" stroke="#191970" points="599.8044,-858.5001 609.8044,-855 599.8043,-851.5001 599.8044,-858.5001"/>
</g>
<!-- Node1303&#45;&gt;Node1300 -->
<g id="edge55" class="edge">
<title>Node1303&#45;&gt;Node1300</title>
<path fill="none" stroke="#191970" d="M495.9894,-845.3996C506.3638,-842.7963 517.1585,-839.6633 527,-836 557.7286,-824.5619 590.8659,-806.5344 612.6472,-793.8209"/>
<polygon fill="#191970" stroke="#191970" points="614.7041,-796.6706 621.5263,-788.5645 611.1381,-790.647 614.7041,-796.6706"/>
</g>
</g>
</svg>
