<?xml version="1.0" encoding="UTF-8" standalone="no"?>
<!DOCTYPE svg PUBLIC "-//W3C//DTD SVG 1.1//EN"
 "http://www.w3.org/Graphics/SVG/1.1/DTD/svg11.dtd">
<!-- Generated by graphviz version 2.40.1 (20161225.0304)
 -->
<!-- Title: IsTypeCheckNameValid Pages: 1 -->
<svg width="799pt" height="272pt"
 viewBox="0.00 0.00 799.00 272.20" xmlns="http://www.w3.org/2000/svg" xmlns:xlink="http://www.w3.org/1999/xlink">
<g id="graph0" class="graph" transform="scale(1 1) rotate(0) translate(4 268.1986)">
<title>IsTypeCheckNameValid</title>
<polygon fill="#ffffff" stroke="transparent" points="-4,4 -4,-268.1986 795,-268.1986 795,4 -4,4"/>
<!-- Node3487 -->
<g id="node1" class="node">
<title>Node3487</title>
<polygon fill="#bfbfbf" stroke="#000000" points="0,-108.1986 0,-127.1986 123,-127.1986 123,-108.1986 0,-108.1986"/>
<text text-anchor="middle" x="61.5" y="-115.1986" font-family="Helvetica,sans-Serif" font-size="10.00" fill="#000000">IsTypeCheckNameValid</text>
</g>
<!-- Node3488 -->
<g id="node2" class="node">
<title>Node3488</title>
<g id="a_node2"><a xlink:href="class_c_assets_cache.html#a117ef717832c597298ad096e2dbc3299" target="_top" xlink:title="CAssetsCache::CacheToString">
<polygon fill="#ffffff" stroke="#000000" points="159,-152.1986 159,-171.1986 314,-171.1986 314,-152.1986 159,-152.1986"/>
<text text-anchor="middle" x="236.5" y="-159.1986" font-family="Helvetica,sans-Serif" font-size="10.00" fill="#000000">CAssetsCache::CacheToString</text>
</a>
</g>
</g>
<!-- Node3487&#45;&gt;Node3488 -->
<g id="edge1" class="edge">
<title>Node3487&#45;&gt;Node3488</title>
<path fill="none" stroke="#191970" d="M108.2315,-129.788C124.3122,-133.9196 142.4369,-138.5449 159,-142.6986 171.3622,-145.7988 184.8483,-149.1246 197.0538,-152.1134"/>
<polygon fill="#191970" stroke="#191970" points="109.072,-126.3904 98.5153,-127.2879 107.3276,-133.1695 109.072,-126.3904"/>
</g>
<!-- Node3489 -->
<g id="node3" class="node">
<title>Node3489</title>
<g id="a_node3"><a xlink:href="class_create_asset_dialog.html#ab2f436e4d04c3e1ddbf743fc3eafa958" target="_top" xlink:title="CreateAssetDialog::\lCheckFormState">
<polygon fill="#ffffff" stroke="#000000" points="184,-102.6986 184,-132.6986 289,-132.6986 289,-102.6986 184,-102.6986"/>
<text text-anchor="start" x="192" y="-120.6986" font-family="Helvetica,sans-Serif" font-size="10.00" fill="#000000">CreateAssetDialog::</text>
<text text-anchor="middle" x="236.5" y="-109.6986" font-family="Helvetica,sans-Serif" font-size="10.00" fill="#000000">CheckFormState</text>
</a>
</g>
</g>
<!-- Node3487&#45;&gt;Node3489 -->
<g id="edge2" class="edge">
<title>Node3487&#45;&gt;Node3489</title>
<path fill="none" stroke="#191970" d="M133.5453,-117.6986C150.3634,-117.6986 167.9682,-117.6986 183.7671,-117.6986"/>
<polygon fill="#191970" stroke="#191970" points="133.1985,-114.1987 123.1985,-117.6986 133.1984,-121.1987 133.1985,-114.1987"/>
</g>
<!-- Node3498 -->
<g id="node12" class="node">
<title>Node3498</title>
<g id="a_node12"><a xlink:href="class_create_asset_dialog.html#afe8c4424e900a322a391a036185052cc" target="_top" xlink:title="CreateAssetDialog::\lonNameChanged">
<polygon fill="#ffffff" stroke="#000000" points="184,-15.6986 184,-45.6986 289,-45.6986 289,-15.6986 184,-15.6986"/>
<text text-anchor="start" x="192" y="-33.6986" font-family="Helvetica,sans-Serif" font-size="10.00" fill="#000000">CreateAssetDialog::</text>
<text text-anchor="middle" x="236.5" y="-22.6986" font-family="Helvetica,sans-Serif" font-size="10.00" fill="#000000">onNameChanged</text>
</a>
</g>
</g>
<!-- Node3487&#45;&gt;Node3498 -->
<g id="edge14" class="edge">
<title>Node3487&#45;&gt;Node3498</title>
<path fill="none" stroke="#191970" d="M90.1431,-103.4589C122.0933,-87.5751 173.5628,-61.9874 206.1781,-45.7729"/>
<polygon fill="#191970" stroke="#191970" points="88.2931,-100.4699 80.8967,-108.0557 91.4093,-106.738 88.2931,-100.4699"/>
</g>
<!-- Node3490 -->
<g id="node4" class="node">
<title>Node3490</title>
<g id="a_node4"><a xlink:href="class_create_asset_dialog.html#ad83e1c6c6ea29e74543f4afd80dce1ea" target="_top" xlink:title="Helper Methods. ">
<polygon fill="#ffffff" stroke="#000000" points="365.5,-233.6986 365.5,-263.6986 470.5,-263.6986 470.5,-233.6986 365.5,-233.6986"/>
<text text-anchor="start" x="373.5" y="-251.6986" font-family="Helvetica,sans-Serif" font-size="10.00" fill="#000000">CreateAssetDialog::</text>
<text text-anchor="middle" x="418" y="-240.6986" font-family="Helvetica,sans-Serif" font-size="10.00" fill="#000000">setUpValues</text>
</a>
</g>
</g>
<!-- Node3489&#45;&gt;Node3490 -->
<g id="edge3" class="edge">
<title>Node3489&#45;&gt;Node3490</title>
<path fill="none" stroke="#191970" d="M298.8354,-132.3727C304.325,-135.2251 309.4968,-138.6313 314,-142.6986 343.5377,-169.3767 320.8285,-197.6205 350,-224.6986 354.496,-228.872 359.7622,-232.327 365.339,-235.1858"/>
<polygon fill="#191970" stroke="#191970" points="299.9117,-129.0178 289.3588,-128.0761 297.0211,-135.3931 299.9117,-129.0178"/>
</g>
<!-- Node3491 -->
<g id="node5" class="node">
<title>Node3491</title>
<g id="a_node5"><a xlink:href="class_create_asset_dialog.html#af95ab6bad7ceb28ec010d3bf90abd1cc" target="_top" xlink:title="CreateAssetDialog::\ltoggleIPFSText">
<polygon fill="#ffffff" stroke="#000000" points="365.5,-184.6986 365.5,-214.6986 470.5,-214.6986 470.5,-184.6986 365.5,-184.6986"/>
<text text-anchor="start" x="373.5" y="-202.6986" font-family="Helvetica,sans-Serif" font-size="10.00" fill="#000000">CreateAssetDialog::</text>
<text text-anchor="middle" x="418" y="-191.6986" font-family="Helvetica,sans-Serif" font-size="10.00" fill="#000000">toggleIPFSText</text>
</a>
</g>
</g>
<!-- Node3489&#45;&gt;Node3491 -->
<g id="edge4" class="edge">
<title>Node3489&#45;&gt;Node3491</title>
<path fill="none" stroke="#191970" d="M298.6998,-135.7114C303.9674,-137.8505 309.1351,-140.1797 314,-142.6986 331.7604,-151.8946 332.7388,-159.5966 350,-169.6986 359.3546,-175.1733 369.8915,-180.2852 379.8277,-184.683"/>
<polygon fill="#191970" stroke="#191970" points="299.7451,-132.364 289.1544,-132.0662 297.2478,-138.9035 299.7451,-132.364"/>
</g>
<!-- Node3494 -->
<g id="node8" class="node">
<title>Node3494</title>
<g id="a_node8"><a xlink:href="class_create_asset_dialog.html#a15a1a9145508ae601f890e808df4bd27" target="_top" xlink:title="CreateAssetDialog::\lcheckAvailabilityClicked">
<polygon fill="#ffffff" stroke="#000000" points="524.5,-140.6986 524.5,-170.6986 647.5,-170.6986 647.5,-140.6986 524.5,-140.6986"/>
<text text-anchor="start" x="532.5" y="-158.6986" font-family="Helvetica,sans-Serif" font-size="10.00" fill="#000000">CreateAssetDialog::</text>
<text text-anchor="middle" x="586" y="-147.6986" font-family="Helvetica,sans-Serif" font-size="10.00" fill="#000000">checkAvailabilityClicked</text>
</a>
</g>
</g>
<!-- Node3489&#45;&gt;Node3494 -->
<g id="edge7" class="edge">
<title>Node3489&#45;&gt;Node3494</title>
<path fill="none" stroke="#191970" d="M299.5139,-124.5499C363.2285,-131.4774 461.0759,-142.116 524.3119,-148.9915"/>
<polygon fill="#191970" stroke="#191970" points="299.5219,-121.0302 289.2021,-123.4287 298.7652,-127.9892 299.5219,-121.0302"/>
</g>
<!-- Node3495 -->
<g id="node9" class="node">
<title>Node3495</title>
<g id="a_node9"><a xlink:href="class_create_asset_dialog.html#ac9da60f170acd8f2bdc3f1af18933376" target="_top" xlink:title="CreateAssetDialog::\lonAddressNameChanged">
<polygon fill="#ffffff" stroke="#000000" points="522,-91.6986 522,-121.6986 650,-121.6986 650,-91.6986 522,-91.6986"/>
<text text-anchor="start" x="530" y="-109.6986" font-family="Helvetica,sans-Serif" font-size="10.00" fill="#000000">CreateAssetDialog::</text>
<text text-anchor="middle" x="586" y="-98.6986" font-family="Helvetica,sans-Serif" font-size="10.00" fill="#000000">onAddressNameChanged</text>
</a>
</g>
</g>
<!-- Node3489&#45;&gt;Node3495 -->
<g id="edge9" class="edge">
<title>Node3489&#45;&gt;Node3495</title>
<path fill="none" stroke="#191970" d="M299.3851,-115.7194C362.2832,-113.7398 458.538,-110.7103 521.8713,-108.717"/>
<polygon fill="#191970" stroke="#191970" points="299.087,-112.2269 289.2021,-116.0399 299.3073,-119.2235 299.087,-112.2269"/>
</g>
<!-- Node3496 -->
<g id="node10" class="node">
<title>Node3496</title>
<g id="a_node10"><a xlink:href="class_create_asset_dialog.html#af0bc8685461d2aa1ca30a4ba5da4a3dd" target="_top" xlink:title="CreateAssetDialog::\lonIPFSHashChanged">
<polygon fill="#ffffff" stroke="#000000" points="530,-42.6986 530,-72.6986 642,-72.6986 642,-42.6986 530,-42.6986"/>
<text text-anchor="start" x="538" y="-60.6986" font-family="Helvetica,sans-Serif" font-size="10.00" fill="#000000">CreateAssetDialog::</text>
<text text-anchor="middle" x="586" y="-49.6986" font-family="Helvetica,sans-Serif" font-size="10.00" fill="#000000">onIPFSHashChanged</text>
</a>
</g>
</g>
<!-- Node3489&#45;&gt;Node3496 -->
<g id="edge11" class="edge">
<title>Node3489&#45;&gt;Node3496</title>
<path fill="none" stroke="#191970" d="M299.4143,-106.8979C365.0589,-95.6284 467.0138,-78.1254 529.971,-67.3173"/>
<polygon fill="#191970" stroke="#191970" points="298.4657,-103.5094 289.2021,-108.651 299.6501,-110.4085 298.4657,-103.5094"/>
</g>
<!-- Node3497 -->
<g id="node11" class="node">
<title>Node3497</title>
<g id="a_node11"><a xlink:href="class_create_asset_dialog.html#a375f356987a8233f519de5ffd97dcf84" target="_top" xlink:title="CreateAssetDialog::\lonChangeAddressChanged">
<polygon fill="#ffffff" stroke="#000000" points="350,-20.6986 350,-50.6986 486,-50.6986 486,-20.6986 350,-20.6986"/>
<text text-anchor="start" x="358" y="-38.6986" font-family="Helvetica,sans-Serif" font-size="10.00" fill="#000000">CreateAssetDialog::</text>
<text text-anchor="middle" x="418" y="-27.6986" font-family="Helvetica,sans-Serif" font-size="10.00" fill="#000000">onChangeAddressChanged</text>
</a>
</g>
</g>
<!-- Node3489&#45;&gt;Node3497 -->
<g id="edge13" class="edge">
<title>Node3489&#45;&gt;Node3497</title>
<path fill="none" stroke="#191970" d="M278.366,-98.3469C299.7638,-88.4997 326.2366,-76.3835 350,-65.6986 360.9447,-60.7775 372.9116,-55.4727 383.7135,-50.7124"/>
<polygon fill="#191970" stroke="#191970" points="276.8435,-95.1947 269.2252,-102.5576 279.7722,-101.5526 276.8435,-95.1947"/>
</g>
<!-- Node3492 -->
<g id="node6" class="node">
<title>Node3492</title>
<g id="a_node6"><a xlink:href="class_create_asset_dialog.html#ad489dbbb54713a98847998d9721c7101" target="_top" xlink:title="SLOTS. ">
<polygon fill="#ffffff" stroke="#000000" points="533.5,-189.6986 533.5,-219.6986 638.5,-219.6986 638.5,-189.6986 533.5,-189.6986"/>
<text text-anchor="start" x="541.5" y="-207.6986" font-family="Helvetica,sans-Serif" font-size="10.00" fill="#000000">CreateAssetDialog::</text>
<text text-anchor="middle" x="586" y="-196.6986" font-family="Helvetica,sans-Serif" font-size="10.00" fill="#000000">ipfsStateChanged</text>
</a>
</g>
</g>
<!-- Node3491&#45;&gt;Node3492 -->
<g id="edge5" class="edge">
<title>Node3491&#45;&gt;Node3492</title>
<path fill="none" stroke="#191970" d="M480.7456,-201.566C498.1114,-202.0829 516.7744,-202.6383 533.4917,-203.1359"/>
<polygon fill="#191970" stroke="#191970" points="480.795,-198.0661 470.6953,-201.2669 480.5867,-205.063 480.795,-198.0661"/>
</g>
<!-- Node3493 -->
<g id="node7" class="node">
<title>Node3493</title>
<g id="a_node7"><a xlink:href="class_create_asset_dialog.html#a9700ac1a4c4659f6716fbdeff8260ff5" target="_top" xlink:title="CreateAssetDialog::\lCreateAssetDialog">
<polygon fill="#ffffff" stroke="#000000" points="686,-91.6986 686,-121.6986 791,-121.6986 791,-91.6986 686,-91.6986"/>
<text text-anchor="start" x="694" y="-109.6986" font-family="Helvetica,sans-Serif" font-size="10.00" fill="#000000">CreateAssetDialog::</text>
<text text-anchor="middle" x="738.5" y="-98.6986" font-family="Helvetica,sans-Serif" font-size="10.00" fill="#000000">CreateAssetDialog</text>
</a>
</g>
</g>
<!-- Node3492&#45;&gt;Node3493 -->
<g id="edge6" class="edge">
<title>Node3492&#45;&gt;Node3493</title>
<path fill="none" stroke="#191970" d="M641.204,-185.3967C644.228,-183.9084 647.1804,-182.3415 650,-180.6986 678.5528,-164.0615 707.0639,-138.1295 723.7257,-121.7958"/>
<polygon fill="#191970" stroke="#191970" points="639.6118,-182.2762 631.9778,-189.6229 642.527,-188.6403 639.6118,-182.2762"/>
</g>
<!-- Node3494&#45;&gt;Node3493 -->
<g id="edge8" class="edge">
<title>Node3494&#45;&gt;Node3493</title>
<path fill="none" stroke="#191970" d="M642.8267,-137.4395C658.9114,-132.2713 676.2315,-126.7062 691.6558,-121.7502"/>
<polygon fill="#191970" stroke="#191970" points="641.4493,-134.2058 632.9994,-140.5972 643.5907,-140.8702 641.4493,-134.2058"/>
</g>
<!-- Node3495&#45;&gt;Node3493 -->
<g id="edge10" class="edge">
<title>Node3495&#45;&gt;Node3493</title>
<path fill="none" stroke="#191970" d="M660.3275,-106.6986C668.9632,-106.6986 677.6317,-106.6986 685.8897,-106.6986"/>
<polygon fill="#191970" stroke="#191970" points="660.2318,-103.1987 650.2317,-106.6986 660.2317,-110.1987 660.2318,-103.1987"/>
</g>
<!-- Node3496&#45;&gt;Node3493 -->
<g id="edge12" class="edge">
<title>Node3496&#45;&gt;Node3493</title>
<path fill="none" stroke="#191970" d="M642.8267,-75.9577C658.9114,-81.1259 676.2315,-86.691 691.6558,-91.647"/>
<polygon fill="#191970" stroke="#191970" points="643.5907,-72.527 632.9994,-72.8 641.4493,-79.1914 643.5907,-72.527"/>
</g>
<!-- Node3498&#45;&gt;Node3493 -->
<g id="edge15" class="edge">
<title>Node3498&#45;&gt;Node3493</title>
<path fill="none" stroke="#191970" d="M299.0787,-16.3796C382.9471,-.3977 534.6058,17.0774 650,-33.6986 680.6269,-47.1751 709.1697,-74.4022 725.174,-91.5283"/>
<polygon fill="#191970" stroke="#191970" points="298.3342,-12.9588 289.1939,-18.3165 299.6803,-19.8282 298.3342,-12.9588"/>
</g>
</g>
</svg>
