<?xml version="1.0" encoding="UTF-8" standalone="no"?>
<!DOCTYPE svg PUBLIC "-//W3C//DTD SVG 1.1//EN"
 "http://www.w3.org/Graphics/SVG/1.1/DTD/svg11.dtd">
<!-- Generated by graphviz version 2.40.1 (20161225.0304)
 -->
<!-- Title: src/bench/bench.h Pages: 1 -->
<svg width="2077pt" height="95pt"
 viewBox="0.00 0.00 2076.50 95.00" xmlns="http://www.w3.org/2000/svg" xmlns:xlink="http://www.w3.org/1999/xlink">
<g id="graph0" class="graph" transform="scale(1 1) rotate(0) translate(4 91)">
<title>src/bench/bench.h</title>
<polygon fill="#ffffff" stroke="transparent" points="-4,4 -4,-91 2072.5,-91 2072.5,4 -4,4"/>
<!-- Node7 -->
<g id="node1" class="node">
<title>Node7</title>
<polygon fill="#bfbfbf" stroke="#000000" points="981,-67.5 981,-86.5 1078,-86.5 1078,-67.5 981,-67.5"/>
<text text-anchor="middle" x="1029.5" y="-74.5" font-family="Helvetica,sans-Serif" font-size="10.00" fill="#000000">src/bench/bench.h</text>
</g>
<!-- Node8 -->
<g id="node2" class="node">
<title>Node8</title>
<g id="a_node2"><a xlink:href="bench_2base58_8cpp.html" target="_top" xlink:title="src/bench/base58.cpp">
<polygon fill="#ffffff" stroke="#000000" points="0,-6 0,-25 113,-25 113,-6 0,-6"/>
<text text-anchor="middle" x="56.5" y="-13" font-family="Helvetica,sans-Serif" font-size="10.00" fill="#000000">src/bench/base58.cpp</text>
</a>
</g>
</g>
<!-- Node7&#45;&gt;Node8 -->
<g id="edge1" class="edge">
<title>Node7&#45;&gt;Node8</title>
<path fill="none" stroke="#191970" d="M970.6312,-75.43C796.5944,-70.5647 286.3874,-54.6322 121.5,-31 111.6239,-29.5845 101.0479,-27.3708 91.3566,-25.055"/>
<polygon fill="#191970" stroke="#191970" points="970.7771,-78.9353 980.8705,-75.7143 970.9715,-71.938 970.7771,-78.9353"/>
</g>
<!-- Node9 -->
<g id="node3" class="node">
<title>Node9</title>
<g id="a_node3"><a xlink:href="bench_8cpp.html" target="_top" xlink:title="src/bench/bench.cpp">
<polygon fill="#ffffff" stroke="#000000" points="131,-6 131,-25 238,-25 238,-6 131,-6"/>
<text text-anchor="middle" x="184.5" y="-13" font-family="Helvetica,sans-Serif" font-size="10.00" fill="#000000">src/bench/bench.cpp</text>
</a>
</g>
</g>
<!-- Node7&#45;&gt;Node9 -->
<g id="edge2" class="edge">
<title>Node7&#45;&gt;Node9</title>
<path fill="none" stroke="#191970" d="M970.5576,-74.9619C813.2606,-69.295 386.0592,-52.3536 246.5,-31 237.0679,-29.5568 226.9761,-27.334 217.7322,-25.0183"/>
<polygon fill="#191970" stroke="#191970" points="970.8471,-78.4744 980.966,-75.3345 971.0977,-71.4789 970.8471,-78.4744"/>
</g>
<!-- Node10 -->
<g id="node4" class="node">
<title>Node10</title>
<g id="a_node4"><a xlink:href="bench__raven_8cpp.html" target="_top" xlink:title="src/bench/bench_raven.cpp">
<polygon fill="#ffffff" stroke="#000000" points="256,-6 256,-25 393,-25 393,-6 256,-6"/>
<text text-anchor="middle" x="324.5" y="-13" font-family="Helvetica,sans-Serif" font-size="10.00" fill="#000000">src/bench/bench_raven.cpp</text>
</a>
</g>
</g>
<!-- Node7&#45;&gt;Node10 -->
<g id="edge3" class="edge">
<title>Node7&#45;&gt;Node10</title>
<path fill="none" stroke="#191970" d="M970.7998,-75.1594C859.3745,-71.1216 609.7284,-59.4697 401.5,-31 390.2863,-29.4668 378.2499,-27.2985 367.103,-25.068"/>
<polygon fill="#191970" stroke="#191970" points="970.7078,-78.6582 980.8258,-75.5155 970.9564,-71.6626 970.7078,-78.6582"/>
</g>
<!-- Node11 -->
<g id="node5" class="node">
<title>Node11</title>
<g id="a_node5"><a xlink:href="ccoins__caching_8cpp.html" target="_top" xlink:title="src/bench/ccoins_caching.cpp">
<polygon fill="#ffffff" stroke="#000000" points="411,-6 411,-25 560,-25 560,-6 411,-6"/>
<text text-anchor="middle" x="485.5" y="-13" font-family="Helvetica,sans-Serif" font-size="10.00" fill="#000000">src/bench/ccoins_caching.cpp</text>
</a>
</g>
</g>
<!-- Node7&#45;&gt;Node11 -->
<g id="edge4" class="edge">
<title>Node7&#45;&gt;Node11</title>
<path fill="none" stroke="#191970" d="M970.8563,-72.7575C883.0916,-66.0449 712.4887,-51.5904 568.5,-31 556.891,-29.3399 544.4322,-27.2037 532.7884,-25.0511"/>
<polygon fill="#191970" stroke="#191970" points="970.6486,-76.2517 980.8847,-73.5183 971.1782,-69.2718 970.6486,-76.2517"/>
</g>
<!-- Node12 -->
<g id="node6" class="node">
<title>Node12</title>
<g id="a_node6"><a xlink:href="checkblock_8cpp.html" target="_top" xlink:title="src/bench/checkblock.cpp">
<polygon fill="#ffffff" stroke="#000000" points="578,-6 578,-25 709,-25 709,-6 578,-6"/>
<text text-anchor="middle" x="643.5" y="-13" font-family="Helvetica,sans-Serif" font-size="10.00" fill="#000000">src/bench/checkblock.cpp</text>
</a>
</g>
</g>
<!-- Node7&#45;&gt;Node12 -->
<g id="edge5" class="edge">
<title>Node7&#45;&gt;Node12</title>
<path fill="none" stroke="#191970" d="M970.7922,-69.3314C908.1432,-60.9112 806.0646,-46.5112 718.5,-31 708.419,-29.2143 697.6172,-27.1005 687.4401,-25.0175"/>
<polygon fill="#191970" stroke="#191970" points="970.5034,-72.8239 980.8793,-70.6813 971.4319,-65.8857 970.5034,-72.8239"/>
</g>
<!-- Node13 -->
<g id="node7" class="node">
<title>Node13</title>
<g id="a_node7"><a xlink:href="checkqueue_8cpp.html" target="_top" xlink:title="src/bench/checkqueue.cpp">
<polygon fill="#ffffff" stroke="#000000" points="727.5,-6 727.5,-25 861.5,-25 861.5,-6 727.5,-6"/>
<text text-anchor="middle" x="794.5" y="-13" font-family="Helvetica,sans-Serif" font-size="10.00" fill="#000000">src/bench/checkqueue.cpp</text>
</a>
</g>
</g>
<!-- Node7&#45;&gt;Node13 -->
<g id="edge6" class="edge">
<title>Node7&#45;&gt;Node13</title>
<path fill="none" stroke="#191970" d="M983.3191,-64.9144C938.7206,-53.2428 872.0727,-35.8009 831.0464,-25.0643"/>
<polygon fill="#191970" stroke="#191970" points="982.4787,-68.3122 993.0391,-67.4581 984.251,-61.5403 982.4787,-68.3122"/>
</g>
<!-- Node14 -->
<g id="node8" class="node">
<title>Node14</title>
<g id="a_node8"><a xlink:href="coin__selection_8cpp.html" target="_top" xlink:title="src/bench/coin_selection.cpp">
<polygon fill="#ffffff" stroke="#000000" points="880,-6 880,-25 1023,-25 1023,-6 880,-6"/>
<text text-anchor="middle" x="951.5" y="-13" font-family="Helvetica,sans-Serif" font-size="10.00" fill="#000000">src/bench/coin_selection.cpp</text>
</a>
</g>
</g>
<!-- Node7&#45;&gt;Node14 -->
<g id="edge7" class="edge">
<title>Node7&#45;&gt;Node14</title>
<path fill="none" stroke="#191970" d="M1009.3964,-61.1491C994.9035,-49.722 975.8194,-34.6749 963.6019,-25.0419"/>
<polygon fill="#191970" stroke="#191970" points="1007.2927,-63.9475 1017.3125,-67.3906 1011.6268,-58.4506 1007.2927,-63.9475"/>
</g>
<!-- Node15 -->
<g id="node9" class="node">
<title>Node15</title>
<g id="a_node9"><a xlink:href="crypto__hash_8cpp.html" target="_top" xlink:title="src/bench/crypto_hash.cpp">
<polygon fill="#ffffff" stroke="#000000" points="1041.5,-6 1041.5,-25 1175.5,-25 1175.5,-6 1041.5,-6"/>
<text text-anchor="middle" x="1108.5" y="-13" font-family="Helvetica,sans-Serif" font-size="10.00" fill="#000000">src/bench/crypto_hash.cpp</text>
</a>
</g>
</g>
<!-- Node7&#45;&gt;Node15 -->
<g id="edge8" class="edge">
<title>Node7&#45;&gt;Node15</title>
<path fill="none" stroke="#191970" d="M1049.8613,-61.1491C1064.54,-49.722 1083.8688,-34.6749 1096.2429,-25.0419"/>
<polygon fill="#191970" stroke="#191970" points="1047.5846,-58.4859 1041.8438,-67.3906 1051.8846,-64.0095 1047.5846,-58.4859"/>
</g>
<!-- Node16 -->
<g id="node10" class="node">
<title>Node16</title>
<g id="a_node10"><a xlink:href="_examples_8cpp.html" target="_top" xlink:title="src/bench/Examples.cpp">
<polygon fill="#ffffff" stroke="#000000" points="1194,-6 1194,-25 1319,-25 1319,-6 1194,-6"/>
<text text-anchor="middle" x="1256.5" y="-13" font-family="Helvetica,sans-Serif" font-size="10.00" fill="#000000">src/bench/Examples.cpp</text>
</a>
</g>
</g>
<!-- Node7&#45;&gt;Node16 -->
<g id="edge9" class="edge">
<title>Node7&#45;&gt;Node16</title>
<path fill="none" stroke="#191970" d="M1074.6389,-64.7707C1117.7458,-53.092 1181.8197,-35.7328 1221.2803,-25.0419"/>
<polygon fill="#191970" stroke="#191970" points="1073.7055,-61.3974 1064.9688,-67.3906 1075.5361,-68.1538 1073.7055,-61.3974"/>
</g>
<!-- Node17 -->
<g id="node11" class="node">
<title>Node17</title>
<g id="a_node11"><a xlink:href="bench_2lockedpool_8cpp.html" target="_top" xlink:title="src/bench/lockedpool.cpp">
<polygon fill="#ffffff" stroke="#000000" points="1337.5,-6 1337.5,-25 1465.5,-25 1465.5,-6 1337.5,-6"/>
<text text-anchor="middle" x="1401.5" y="-13" font-family="Helvetica,sans-Serif" font-size="10.00" fill="#000000">src/bench/lockedpool.cpp</text>
</a>
</g>
</g>
<!-- Node7&#45;&gt;Node17 -->
<g id="edge10" class="edge">
<title>Node7&#45;&gt;Node17</title>
<path fill="none" stroke="#191970" d="M1088.1713,-68.9742C1148.5781,-60.4766 1245.3537,-46.2105 1328.5,-31 1338.3134,-29.2048 1348.8277,-27.0872 1358.7334,-25.0036"/>
<polygon fill="#191970" stroke="#191970" points="1087.4802,-65.5367 1078.0624,-70.3901 1088.4512,-72.4691 1087.4802,-65.5367"/>
</g>
<!-- Node18 -->
<g id="node12" class="node">
<title>Node18</title>
<g id="a_node12"><a xlink:href="mempool__eviction_8cpp.html" target="_top" xlink:title="src/bench/mempool_eviction.cpp">
<polygon fill="#ffffff" stroke="#000000" points="1483.5,-6 1483.5,-25 1643.5,-25 1643.5,-6 1483.5,-6"/>
<text text-anchor="middle" x="1563.5" y="-13" font-family="Helvetica,sans-Serif" font-size="10.00" fill="#000000">src/bench/mempool_eviction.cpp</text>
</a>
</g>
</g>
<!-- Node7&#45;&gt;Node18 -->
<g id="edge11" class="edge">
<title>Node7&#45;&gt;Node18</title>
<path fill="none" stroke="#191970" d="M1088.0327,-72.2537C1173.2676,-65.0467 1336.4394,-50.1343 1474.5,-31 1486.773,-29.299 1499.9468,-27.1718 1512.2966,-25.0434"/>
<polygon fill="#191970" stroke="#191970" points="1087.7032,-68.769 1078.0315,-73.0942 1088.2895,-75.7444 1087.7032,-68.769"/>
</g>
<!-- Node19 -->
<g id="node13" class="node">
<title>Node19</title>
<g id="a_node13"><a xlink:href="prevector__destructor_8cpp.html" target="_top" xlink:title="src/bench/prevector\l_destructor.cpp">
<polygon fill="#ffffff" stroke="#000000" points="1662,-.5 1662,-30.5 1765,-30.5 1765,-.5 1662,-.5"/>
<text text-anchor="start" x="1670" y="-18.5" font-family="Helvetica,sans-Serif" font-size="10.00" fill="#000000">src/bench/prevector</text>
<text text-anchor="middle" x="1713.5" y="-7.5" font-family="Helvetica,sans-Serif" font-size="10.00" fill="#000000">_destructor.cpp</text>
</a>
</g>
</g>
<!-- Node7&#45;&gt;Node19 -->
<g id="edge12" class="edge">
<title>Node7&#45;&gt;Node19</title>
<path fill="none" stroke="#191970" d="M1088.6324,-76.0744C1199.7812,-73.5749 1447.1706,-64.403 1652.5,-31 1655.5198,-30.5087 1658.6088,-29.9395 1661.7156,-29.3153"/>
<polygon fill="#191970" stroke="#191970" points="1088.2299,-72.5821 1078.3074,-76.296 1088.3802,-79.5805 1088.2299,-72.5821"/>
</g>
<!-- Node20 -->
<g id="node14" class="node">
<title>Node20</title>
<g id="a_node14"><a xlink:href="rollingbloom_8cpp.html" target="_top" xlink:title="src/bench/rollingbloom.cpp">
<polygon fill="#ffffff" stroke="#000000" points="1783,-6 1783,-25 1916,-25 1916,-6 1783,-6"/>
<text text-anchor="middle" x="1849.5" y="-13" font-family="Helvetica,sans-Serif" font-size="10.00" fill="#000000">src/bench/rollingbloom.cpp</text>
</a>
</g>
</g>
<!-- Node7&#45;&gt;Node20 -->
<g id="edge13" class="edge">
<title>Node7&#45;&gt;Node20</title>
<path fill="none" stroke="#191970" d="M1088.3198,-76.2045C1214.5485,-73.8762 1520.5706,-64.9039 1774.5,-31 1785.7022,-29.5043 1797.7338,-27.2931 1808.809,-25.0063"/>
<polygon fill="#191970" stroke="#191970" points="1088.0418,-72.7088 1078.1054,-76.3855 1088.1659,-79.7077 1088.0418,-72.7088"/>
</g>
<!-- Node21 -->
<g id="node15" class="node">
<title>Node21</title>
<g id="a_node15"><a xlink:href="verify__script_8cpp.html" target="_top" xlink:title="src/bench/verify_script.cpp">
<polygon fill="#ffffff" stroke="#000000" points="1934.5,-6 1934.5,-25 2068.5,-25 2068.5,-6 1934.5,-6"/>
<text text-anchor="middle" x="2001.5" y="-13" font-family="Helvetica,sans-Serif" font-size="10.00" fill="#000000">src/bench/verify_script.cpp</text>
</a>
</g>
</g>
<!-- Node7&#45;&gt;Node21 -->
<g id="edge14" class="edge">
<title>Node7&#45;&gt;Node21</title>
<path fill="none" stroke="#191970" d="M1088.1565,-75.1389C1260.3689,-69.4925 1762.6208,-51.672 1925.5,-31 1936.8551,-29.5589 1949.0483,-27.3659 1960.2712,-25.0793"/>
<polygon fill="#191970" stroke="#191970" points="1087.9018,-71.6453 1078.0213,-75.4697 1088.1302,-78.6416 1087.9018,-71.6453"/>
</g>
</g>
</svg>
