<?xml version="1.0" encoding="UTF-8" standalone="no"?>
<!DOCTYPE svg PUBLIC "-//W3C//DTD SVG 1.1//EN"
 "http://www.w3.org/Graphics/SVG/1.1/DTD/svg11.dtd">
<!-- Generated by graphviz version 2.40.1 (20161225.0304)
 -->
<!-- Title: getmempoolancestors Pages: 1 -->
<svg width="991pt" height="674pt"
 viewBox="0.00 0.00 991.00 674.00" xmlns="http://www.w3.org/2000/svg" xmlns:xlink="http://www.w3.org/1999/xlink">
<g id="graph0" class="graph" transform="scale(1 1) rotate(0) translate(4 670)">
<title>getmempoolancestors</title>
<polygon fill="#ffffff" stroke="transparent" points="-4,4 -4,-670 987,-670 987,4 -4,4"/>
<!-- Node364 -->
<g id="node1" class="node">
<title>Node364</title>
<polygon fill="#bfbfbf" stroke="#000000" points="0,-361.5 0,-380.5 113,-380.5 113,-361.5 0,-361.5"/>
<text text-anchor="middle" x="56.5" y="-368.5" font-family="Helvetica,sans-Serif" font-size="10.00" fill="#000000">getmempoolancestors</text>
</g>
<!-- Node365 -->
<g id="node2" class="node">
<title>Node365</title>
<g id="a_node2"><a xlink:href="class_uni_value.html#a5a7394aeb8d5584db7a90c2c041726b1" target="_top" xlink:title="UniValue::size">
<polygon fill="#ffffff" stroke="#000000" points="182,-589.5 182,-608.5 262,-608.5 262,-589.5 182,-589.5"/>
<text text-anchor="middle" x="222" y="-596.5" font-family="Helvetica,sans-Serif" font-size="10.00" fill="#000000">UniValue::size</text>
</a>
</g>
</g>
<!-- Node364&#45;&gt;Node365 -->
<g id="edge1" class="edge">
<title>Node364&#45;&gt;Node365</title>
<path fill="none" stroke="#191970" d="M57.7857,-380.6481C62.7383,-413.8659 83.6891,-524.4991 149,-580 155.5988,-585.6076 163.6591,-589.586 171.9857,-592.4027"/>
<polygon fill="#191970" stroke="#191970" points="171.2347,-595.8279 181.8111,-595.2036 173.1538,-589.0961 171.2347,-595.8279"/>
</g>
<!-- Node366 -->
<g id="node3" class="node">
<title>Node366</title>
<g id="a_node3"><a xlink:href="blockchain_8cpp.html#aef383bbd04d82da7e1c6c11fef52f887" target="_top" xlink:title="EntryDescriptionString">
<polygon fill="#ffffff" stroke="#000000" points="164.5,-551.5 164.5,-570.5 279.5,-570.5 279.5,-551.5 164.5,-551.5"/>
<text text-anchor="middle" x="222" y="-558.5" font-family="Helvetica,sans-Serif" font-size="10.00" fill="#000000">EntryDescriptionString</text>
</a>
</g>
</g>
<!-- Node364&#45;&gt;Node366 -->
<g id="edge2" class="edge">
<title>Node364&#45;&gt;Node366</title>
<path fill="none" stroke="#191970" d="M58.7673,-380.5061C66.205,-409.556 92.6821,-497.8583 149,-542 151.3191,-543.8177 153.7945,-545.4627 156.3807,-546.9512"/>
<polygon fill="#191970" stroke="#191970" points="155.0146,-550.1793 165.535,-551.4332 158.0928,-543.8924 155.0146,-550.1793"/>
</g>
<!-- Node367 -->
<g id="node4" class="node">
<title>Node367</title>
<g id="a_node4"><a xlink:href="server_8cpp.html#a26bafe3d526ee8cbc84b3c0b0dc3a43b" target="_top" xlink:title="HelpExampleCli">
<polygon fill="#ffffff" stroke="#000000" points="178.5,-513.5 178.5,-532.5 265.5,-532.5 265.5,-513.5 178.5,-513.5"/>
<text text-anchor="middle" x="222" y="-520.5" font-family="Helvetica,sans-Serif" font-size="10.00" fill="#000000">HelpExampleCli</text>
</a>
</g>
</g>
<!-- Node364&#45;&gt;Node367 -->
<g id="edge3" class="edge">
<title>Node364&#45;&gt;Node367</title>
<path fill="none" stroke="#191970" d="M60.4194,-380.8061C70.8396,-405.5746 101.7036,-471.0235 149,-504 154.9822,-508.171 161.8161,-511.4264 168.8481,-513.9672"/>
<polygon fill="#191970" stroke="#191970" points="167.9089,-517.3409 178.4985,-517.0079 170.0126,-510.6644 167.9089,-517.3409"/>
</g>
<!-- Node368 -->
<g id="node5" class="node">
<title>Node368</title>
<g id="a_node5"><a xlink:href="server_8cpp.html#a9ef4f8fb114508ceb861a0e8c3e0d26e" target="_top" xlink:title="HelpExampleRpc">
<polygon fill="#ffffff" stroke="#000000" points="175.5,-475.5 175.5,-494.5 268.5,-494.5 268.5,-475.5 175.5,-475.5"/>
<text text-anchor="middle" x="222" y="-482.5" font-family="Helvetica,sans-Serif" font-size="10.00" fill="#000000">HelpExampleRpc</text>
</a>
</g>
</g>
<!-- Node364&#45;&gt;Node368 -->
<g id="edge4" class="edge">
<title>Node364&#45;&gt;Node368</title>
<path fill="none" stroke="#191970" d="M63.1431,-380.7678C76.8368,-400.1264 110.1945,-443.4361 149,-466 154.1493,-468.9942 159.7733,-471.5241 165.5408,-473.6604"/>
<polygon fill="#191970" stroke="#191970" points="164.7306,-477.0788 175.3238,-476.8962 166.9288,-470.4329 164.7306,-477.0788"/>
</g>
<!-- Node369 -->
<g id="node6" class="node">
<title>Node369</title>
<g id="a_node6"><a xlink:href="class_uni_value.html#a3661be0f5580daceb23e5338e3a0df22" target="_top" xlink:title="UniValue::isNull">
<polygon fill="#ffffff" stroke="#000000" points="178.5,-437.5 178.5,-456.5 265.5,-456.5 265.5,-437.5 178.5,-437.5"/>
<text text-anchor="middle" x="222" y="-444.5" font-family="Helvetica,sans-Serif" font-size="10.00" fill="#000000">UniValue::isNull</text>
</a>
</g>
</g>
<!-- Node364&#45;&gt;Node369 -->
<g id="edge5" class="edge">
<title>Node364&#45;&gt;Node369</title>
<path fill="none" stroke="#191970" d="M69.3028,-380.616C86.5623,-393.163 118.6397,-415.0405 149,-428 155.2311,-430.6598 161.9251,-433.0205 168.6403,-435.0944"/>
<polygon fill="#191970" stroke="#191970" points="167.8639,-438.5132 178.4426,-437.9291 169.8086,-431.7888 167.8639,-438.5132"/>
</g>
<!-- Node370 -->
<g id="node7" class="node">
<title>Node370</title>
<g id="a_node7"><a xlink:href="class_uni_value.html#ae8a27d40aa1b1322ea95ff4fb2dec2b1" target="_top" xlink:title="UniValue::get_bool">
<polygon fill="#ffffff" stroke="#000000" points="172.5,-399.5 172.5,-418.5 271.5,-418.5 271.5,-399.5 172.5,-399.5"/>
<text text-anchor="middle" x="222" y="-406.5" font-family="Helvetica,sans-Serif" font-size="10.00" fill="#000000">UniValue::get_bool</text>
</a>
</g>
</g>
<!-- Node364&#45;&gt;Node370 -->
<g id="edge6" class="edge">
<title>Node364&#45;&gt;Node370</title>
<path fill="none" stroke="#191970" d="M98.2626,-380.589C120.2005,-385.6261 147.2803,-391.8438 170.508,-397.1771"/>
<polygon fill="#191970" stroke="#191970" points="170.008,-400.6533 180.5377,-399.4799 171.5746,-393.8308 170.008,-400.6533"/>
</g>
<!-- Node376 -->
<g id="node13" class="node">
<title>Node376</title>
<g id="a_node13"><a xlink:href="server_8cpp.html#adb231eaeb57d26011655ee8aaa5315e2" target="_top" xlink:title="Utilities: convert hex&#45;encoded Values (throws error if not hex). ">
<polygon fill="#ffffff" stroke="#000000" points="186,-361.5 186,-380.5 258,-380.5 258,-361.5 186,-361.5"/>
<text text-anchor="middle" x="222" y="-368.5" font-family="Helvetica,sans-Serif" font-size="10.00" fill="#000000">ParseHashV</text>
</a>
</g>
</g>
<!-- Node364&#45;&gt;Node376 -->
<g id="edge12" class="edge">
<title>Node364&#45;&gt;Node376</title>
<path fill="none" stroke="#191970" d="M113.4557,-371C133.7457,-371 156.3346,-371 175.6291,-371"/>
<polygon fill="#191970" stroke="#191970" points="175.6804,-374.5001 185.6803,-371 175.6803,-367.5001 175.6804,-374.5001"/>
</g>
<!-- Node382 -->
<g id="node19" class="node">
<title>Node382</title>
<g id="a_node19"><a xlink:href="rpc_2protocol_8cpp.html#a40b75d3d265c4a2e1d5fe3e129743884" target="_top" xlink:title="JSONRPCError">
<polygon fill="#ffffff" stroke="#000000" points="364,-323.5 364,-342.5 450,-342.5 450,-323.5 364,-323.5"/>
<text text-anchor="middle" x="407" y="-330.5" font-family="Helvetica,sans-Serif" font-size="10.00" fill="#000000">JSONRPCError</text>
</a>
</g>
</g>
<!-- Node364&#45;&gt;Node382 -->
<g id="edge46" class="edge">
<title>Node364&#45;&gt;Node382</title>
<path fill="none" stroke="#191970" d="M97.2855,-361.4395C113.3249,-357.9908 131.9497,-354.3688 149,-352 219.482,-342.2077 301.5443,-337.2586 353.8561,-334.9086"/>
<polygon fill="#191970" stroke="#191970" points="354.0706,-338.4027 363.9095,-334.4726 353.7672,-331.4093 354.0706,-338.4027"/>
</g>
<!-- Node413 -->
<g id="node43" class="node">
<title>Node413</title>
<g id="a_node43"><a xlink:href="class_uni_value.html#a944cd1b59b040cd24c9f46b55a68d49a" target="_top" xlink:title="UniValue::push_back">
<polygon fill="#ffffff" stroke="#000000" points="529.5,-285.5 529.5,-304.5 639.5,-304.5 639.5,-285.5 529.5,-285.5"/>
<text text-anchor="middle" x="584.5" y="-292.5" font-family="Helvetica,sans-Serif" font-size="10.00" fill="#000000">UniValue::push_back</text>
</a>
</g>
</g>
<!-- Node364&#45;&gt;Node413 -->
<g id="edge51" class="edge">
<title>Node364&#45;&gt;Node413</title>
<path fill="none" stroke="#191970" d="M75.8337,-361.4691C94.201,-352.8521 122.8237,-340.5441 149,-334 277.4421,-301.8895 433.0114,-295.43 519.1279,-294.5743"/>
<polygon fill="#191970" stroke="#191970" points="519.3063,-298.0731 529.2791,-294.4964 519.2525,-291.0733 519.3063,-298.0731"/>
</g>
<!-- Node415 -->
<g id="node45" class="node">
<title>Node415</title>
<g id="a_node45"><a xlink:href="class_c_tx_mem_pool.html#a8ae043194110fec37d5d8c810be7c9ec" target="_top" xlink:title="Try to calculate all in&#45;mempool ancestors of entry. ">
<polygon fill="#ffffff" stroke="#000000" points="149,-122 149,-152 295,-152 295,-122 149,-122"/>
<text text-anchor="start" x="157" y="-140" font-family="Helvetica,sans-Serif" font-size="10.00" fill="#000000">CTxMemPool::CalculateMem</text>
<text text-anchor="middle" x="222" y="-129" font-family="Helvetica,sans-Serif" font-size="10.00" fill="#000000">PoolAncestors</text>
</a>
</g>
</g>
<!-- Node364&#45;&gt;Node415 -->
<g id="edge47" class="edge">
<title>Node364&#45;&gt;Node415</title>
<path fill="none" stroke="#191970" d="M58.0191,-361.071C63.6143,-327.8824 86.1177,-219.6525 149,-162 150.7249,-160.4185 152.5543,-158.9365 154.466,-157.5477"/>
<polygon fill="#191970" stroke="#191970" points="156.6713,-160.2973 163.3049,-152.0363 152.9675,-154.3574 156.6713,-160.2973"/>
</g>
<!-- Node416 -->
<g id="node46" class="node">
<title>Node416</title>
<g id="a_node46"><a xlink:href="class_c_tx_mem_pool_entry.html#a2deed4202061edf8b040a3f554417c20" target="_top" xlink:title="CTxMemPoolEntry::GetTx">
<polygon fill="#ffffff" stroke="#000000" points="340.5,-187.5 340.5,-206.5 473.5,-206.5 473.5,-187.5 340.5,-187.5"/>
<text text-anchor="middle" x="407" y="-194.5" font-family="Helvetica,sans-Serif" font-size="10.00" fill="#000000">CTxMemPoolEntry::GetTx</text>
</a>
</g>
</g>
<!-- Node364&#45;&gt;Node416 -->
<g id="edge52" class="edge">
<title>Node364&#45;&gt;Node416</title>
<path fill="none" stroke="#191970" d="M60.6555,-361.336C71.4108,-337.5769 102.5981,-276.1339 149,-247 203.3603,-212.8694 275.8893,-201.1514 330.2015,-197.52"/>
<polygon fill="#191970" stroke="#191970" points="330.6892,-200.9974 340.4658,-196.9148 330.2771,-194.0095 330.6892,-200.9974"/>
</g>
<!-- Node419 -->
<g id="node49" class="node">
<title>Node419</title>
<g id="a_node49"><a xlink:href="class_c_transaction.html#a7efd1379de830341417c0bfa23a149aa" target="_top" xlink:title="CTransaction::GetHash">
<polygon fill="#ffffff" stroke="#000000" points="162,-171.5 162,-190.5 282,-190.5 282,-171.5 162,-171.5"/>
<text text-anchor="middle" x="222" y="-178.5" font-family="Helvetica,sans-Serif" font-size="10.00" fill="#000000">CTransaction::GetHash</text>
</a>
</g>
</g>
<!-- Node364&#45;&gt;Node419 -->
<g id="edge53" class="edge">
<title>Node364&#45;&gt;Node419</title>
<path fill="none" stroke="#191970" d="M59.2109,-361.1188C67.5532,-332.5528 95.5673,-249.1024 149,-205 153.9966,-200.8759 159.7244,-197.4529 165.7262,-194.6132"/>
<polygon fill="#191970" stroke="#191970" points="167.4344,-197.6931 175.3174,-190.6144 164.7406,-191.2322 167.4344,-197.6931"/>
</g>
<!-- Node420 -->
<g id="node50" class="node">
<title>Node420</title>
<g id="a_node50"><a xlink:href="blockchain_8cpp.html#a708ef83546c4df48041ae3414cc7379e" target="_top" xlink:title="entryToJSON">
<polygon fill="#ffffff" stroke="#000000" points="368.5,-247.5 368.5,-266.5 445.5,-266.5 445.5,-247.5 368.5,-247.5"/>
<text text-anchor="middle" x="407" y="-254.5" font-family="Helvetica,sans-Serif" font-size="10.00" fill="#000000">entryToJSON</text>
</a>
</g>
</g>
<!-- Node364&#45;&gt;Node420 -->
<g id="edge54" class="edge">
<title>Node364&#45;&gt;Node420</title>
<path fill="none" stroke="#191970" d="M62.9952,-361.2227C76.4231,-341.9416 109.3263,-299.3023 149,-281 216.3992,-249.9074 304.0951,-248.925 357.925,-252.1554"/>
<polygon fill="#191970" stroke="#191970" points="358.0105,-255.669 368.2234,-252.85 358.4816,-248.6849 358.0105,-255.669"/>
</g>
<!-- Node371 -->
<g id="node8" class="node">
<title>Node371</title>
<g id="a_node8"><a xlink:href="class_uni_value.html#acb5c848d20cb741dbe65e28bc513baa8" target="_top" xlink:title="UniValue::getBool">
<polygon fill="#ffffff" stroke="#000000" points="359.5,-532.5 359.5,-551.5 454.5,-551.5 454.5,-532.5 359.5,-532.5"/>
<text text-anchor="middle" x="407" y="-539.5" font-family="Helvetica,sans-Serif" font-size="10.00" fill="#000000">UniValue::getBool</text>
</a>
</g>
</g>
<!-- Node370&#45;&gt;Node371 -->
<g id="edge7" class="edge">
<title>Node370&#45;&gt;Node371</title>
<path fill="none" stroke="#191970" d="M271.5651,-415.6274C280.0203,-418.4366 288.2414,-422.4046 295,-428 323.7895,-451.8349 304.854,-477.2918 331,-504 341.214,-514.4336 354.8905,-522.4796 367.8253,-528.4247"/>
<polygon fill="#191970" stroke="#191970" points="366.4829,-531.6573 377.0526,-532.3864 369.2446,-525.225 366.4829,-531.6573"/>
</g>
<!-- Node372 -->
<g id="node9" class="node">
<title>Node372</title>
<g id="a_node9"><a xlink:href="class_uni_value.html#a1491167609f899d0c7773749b5047969" target="_top" xlink:title="UniValue::isTrue">
<polygon fill="#ffffff" stroke="#000000" points="540,-570.5 540,-589.5 629,-589.5 629,-570.5 540,-570.5"/>
<text text-anchor="middle" x="584.5" y="-577.5" font-family="Helvetica,sans-Serif" font-size="10.00" fill="#000000">UniValue::isTrue</text>
</a>
</g>
</g>
<!-- Node371&#45;&gt;Node372 -->
<g id="edge8" class="edge">
<title>Node371&#45;&gt;Node372</title>
<path fill="none" stroke="#191970" d="M451.7907,-551.589C475.5303,-556.6713 504.8839,-562.9554 529.9437,-568.3203"/>
<polygon fill="#191970" stroke="#191970" points="529.5202,-571.8089 540.0313,-570.4799 530.9856,-564.964 529.5202,-571.8089"/>
</g>
<!-- Node373 -->
<g id="node10" class="node">
<title>Node373</title>
<g id="a_node10"><a xlink:href="class_uni_value.html#ad89a12ad112b2d9a55ec1b27a6b77046" target="_top" xlink:title="UniValue::getObjMap">
<polygon fill="#ffffff" stroke="#000000" points="529.5,-532.5 529.5,-551.5 639.5,-551.5 639.5,-532.5 529.5,-532.5"/>
<text text-anchor="middle" x="584.5" y="-539.5" font-family="Helvetica,sans-Serif" font-size="10.00" fill="#000000">UniValue::getObjMap</text>
</a>
</g>
</g>
<!-- Node371&#45;&gt;Node373 -->
<g id="edge9" class="edge">
<title>Node371&#45;&gt;Node373</title>
<path fill="none" stroke="#191970" d="M454.5667,-542C474.4246,-542 497.8169,-542 519.2412,-542"/>
<polygon fill="#191970" stroke="#191970" points="519.2502,-545.5001 529.2502,-542 519.2501,-538.5001 519.2502,-545.5001"/>
</g>
<!-- Node374 -->
<g id="node11" class="node">
<title>Node374</title>
<g id="a_node11"><a xlink:href="class_uni_value.html#a0cb48f1dc383f4c12f71ada714ea3f68" target="_top" xlink:title="UniValue::checkObject">
<polygon fill="#ffffff" stroke="#000000" points="526,-494.5 526,-513.5 643,-513.5 643,-494.5 526,-494.5"/>
<text text-anchor="middle" x="584.5" y="-501.5" font-family="Helvetica,sans-Serif" font-size="10.00" fill="#000000">UniValue::checkObject</text>
</a>
</g>
</g>
<!-- Node371&#45;&gt;Node374 -->
<g id="edge10" class="edge">
<title>Node371&#45;&gt;Node374</title>
<path fill="none" stroke="#191970" d="M451.7907,-532.411C475.5303,-527.3287 504.8839,-521.0446 529.9437,-515.6797"/>
<polygon fill="#191970" stroke="#191970" points="530.9856,-519.036 540.0313,-513.5201 529.5202,-512.1911 530.9856,-519.036"/>
</g>
<!-- Node375 -->
<g id="node12" class="node">
<title>Node375</title>
<g id="a_node12"><a xlink:href="class_uni_value.html#a998b72bd7f758e01416e1b53eaa6d94c" target="_top" xlink:title="UniValue::operator[]">
<polygon fill="#ffffff" stroke="#000000" points="532.5,-608.5 532.5,-627.5 636.5,-627.5 636.5,-608.5 532.5,-608.5"/>
<text text-anchor="middle" x="584.5" y="-615.5" font-family="Helvetica,sans-Serif" font-size="10.00" fill="#000000">UniValue::operator[]</text>
</a>
</g>
</g>
<!-- Node371&#45;&gt;Node375 -->
<g id="edge11" class="edge">
<title>Node371&#45;&gt;Node375</title>
<path fill="none" stroke="#191970" d="M423.2457,-551.5014C444.6427,-563.7247 483.6968,-585.0406 519,-599 524.8529,-601.3143 531.0992,-603.4867 537.3233,-605.4764"/>
<polygon fill="#191970" stroke="#191970" points="536.4392,-608.866 547.0257,-608.4467 538.4883,-602.1726 536.4392,-608.866"/>
</g>
<!-- Node377 -->
<g id="node14" class="node">
<title>Node377</title>
<g id="a_node14"><a xlink:href="class_uni_value.html#a8abe13a4663ccfda54ae2440ed445c5a" target="_top" xlink:title="UniValue::isStr">
<polygon fill="#ffffff" stroke="#000000" points="365.5,-399.5 365.5,-418.5 448.5,-418.5 448.5,-399.5 365.5,-399.5"/>
<text text-anchor="middle" x="407" y="-406.5" font-family="Helvetica,sans-Serif" font-size="10.00" fill="#000000">UniValue::isStr</text>
</a>
</g>
</g>
<!-- Node376&#45;&gt;Node377 -->
<g id="edge13" class="edge">
<title>Node376&#45;&gt;Node377</title>
<path fill="none" stroke="#191970" d="M258.109,-378.417C285.7898,-384.1028 324.3653,-392.0264 355.3153,-398.3837"/>
<polygon fill="#191970" stroke="#191970" points="354.9926,-401.8904 365.4923,-400.4741 356.401,-395.0335 354.9926,-401.8904"/>
</g>
<!-- Node378 -->
<g id="node15" class="node">
<title>Node378</title>
<g id="a_node15"><a xlink:href="class_uni_value.html#a087ea6ccec615333371fa1aaf83ab7df" target="_top" xlink:title="UniValue::get_str">
<polygon fill="#ffffff" stroke="#000000" points="361,-361.5 361,-380.5 453,-380.5 453,-361.5 361,-361.5"/>
<text text-anchor="middle" x="407" y="-368.5" font-family="Helvetica,sans-Serif" font-size="10.00" fill="#000000">UniValue::get_str</text>
</a>
</g>
</g>
<!-- Node376&#45;&gt;Node378 -->
<g id="edge14" class="edge">
<title>Node376&#45;&gt;Node378</title>
<path fill="none" stroke="#191970" d="M258.109,-371C284.3525,-371 320.3888,-371 350.4353,-371"/>
<polygon fill="#191970" stroke="#191970" points="350.7874,-374.5001 360.7874,-371 350.7874,-367.5001 350.7874,-374.5001"/>
</g>
<!-- Node380 -->
<g id="node17" class="node">
<title>Node380</title>
<g id="a_node17"><a xlink:href="utilstrencodings_8cpp.html#a9f23401f4b871ed693f7a96a9ba40c58" target="_top" xlink:title="IsHex">
<polygon fill="#ffffff" stroke="#000000" points="385.5,-475.5 385.5,-494.5 428.5,-494.5 428.5,-475.5 385.5,-475.5"/>
<text text-anchor="middle" x="407" y="-482.5" font-family="Helvetica,sans-Serif" font-size="10.00" fill="#000000">IsHex</text>
</a>
</g>
</g>
<!-- Node376&#45;&gt;Node380 -->
<g id="edge16" class="edge">
<title>Node376&#45;&gt;Node380</title>
<path fill="none" stroke="#191970" d="M258.2979,-374.1069C271.0319,-376.735 284.7108,-381.4816 295,-390 323.7895,-413.8349 302.0958,-442.3043 331,-466 343.3568,-476.1302 360.3784,-480.964 375.1807,-483.2292"/>
<polygon fill="#191970" stroke="#191970" points="375.1226,-486.7473 385.4684,-484.4637 375.9567,-479.7971 375.1226,-486.7473"/>
</g>
<!-- Node376&#45;&gt;Node382 -->
<g id="edge18" class="edge">
<title>Node376&#45;&gt;Node382</title>
<path fill="none" stroke="#191970" d="M258.109,-363.583C285.3174,-357.9943 323.0519,-350.2434 353.7242,-343.9431"/>
<polygon fill="#191970" stroke="#191970" points="354.7388,-347.3079 363.83,-341.8673 353.3303,-340.451 354.7388,-347.3079"/>
</g>
<!-- Node414 -->
<g id="node44" class="node">
<title>Node414</title>
<g id="a_node44"><a xlink:href="classbase__blob.html#a5ec1f681a2830f4e180fe664c0eb4dd0" target="_top" xlink:title="base_blob::SetHex">
<polygon fill="#ffffff" stroke="#000000" points="357,-437.5 357,-456.5 457,-456.5 457,-437.5 357,-437.5"/>
<text text-anchor="middle" x="407" y="-444.5" font-family="Helvetica,sans-Serif" font-size="10.00" fill="#000000">base_blob::SetHex</text>
</a>
</g>
</g>
<!-- Node376&#45;&gt;Node414 -->
<g id="edge45" class="edge">
<title>Node376&#45;&gt;Node414</title>
<path fill="none" stroke="#191970" d="M258.0963,-376.2335C270.3906,-379.0711 283.837,-383.4065 295,-390 315.0312,-401.8316 310.912,-416.2652 331,-428 336.0406,-430.9445 341.5273,-433.4358 347.169,-435.543"/>
<polygon fill="#191970" stroke="#191970" points="346.1646,-438.8975 356.7582,-438.739 348.3779,-432.2566 346.1646,-438.8975"/>
</g>
<!-- Node379 -->
<g id="node16" class="node">
<title>Node379</title>
<g id="a_node16"><a xlink:href="class_uni_value.html#a4c9a5fa9114affbf31f6e346c032be12" target="_top" xlink:title="UniValue::getValStr">
<polygon fill="#ffffff" stroke="#000000" points="533,-361.5 533,-380.5 636,-380.5 636,-361.5 533,-361.5"/>
<text text-anchor="middle" x="584.5" y="-368.5" font-family="Helvetica,sans-Serif" font-size="10.00" fill="#000000">UniValue::getValStr</text>
</a>
</g>
</g>
<!-- Node378&#45;&gt;Node379 -->
<g id="edge15" class="edge">
<title>Node378&#45;&gt;Node379</title>
<path fill="none" stroke="#191970" d="M453.1727,-371C474.373,-371 499.8214,-371 522.6481,-371"/>
<polygon fill="#191970" stroke="#191970" points="522.9268,-374.5001 532.9268,-371 522.9268,-367.5001 522.9268,-374.5001"/>
</g>
<!-- Node381 -->
<g id="node18" class="node">
<title>Node381</title>
<g id="a_node18"><a xlink:href="utilstrencodings_8cpp.html#aa59e8a8c5a39cb5041f93bb95dd02119" target="_top" xlink:title="HexDigit">
<polygon fill="#ffffff" stroke="#000000" points="557,-456.5 557,-475.5 612,-475.5 612,-456.5 557,-456.5"/>
<text text-anchor="middle" x="584.5" y="-463.5" font-family="Helvetica,sans-Serif" font-size="10.00" fill="#000000">HexDigit</text>
</a>
</g>
</g>
<!-- Node380&#45;&gt;Node381 -->
<g id="edge17" class="edge">
<title>Node380&#45;&gt;Node381</title>
<path fill="none" stroke="#191970" d="M428.765,-482.6702C458.0862,-479.5316 510.7286,-473.8967 546.6172,-470.0551"/>
<polygon fill="#191970" stroke="#191970" points="547.1462,-473.5185 556.7169,-468.974 546.4011,-466.5583 547.1462,-473.5185"/>
</g>
<!-- Node383 -->
<g id="node20" class="node">
<title>Node383</title>
<g id="a_node20"><a xlink:href="util_8h.html#a96c5fc7111f69f7dcaba992d95d13e03" target="_top" xlink:title="error">
<polygon fill="#ffffff" stroke="#000000" points="566.5,-323.5 566.5,-342.5 602.5,-342.5 602.5,-323.5 566.5,-323.5"/>
<text text-anchor="middle" x="584.5" y="-330.5" font-family="Helvetica,sans-Serif" font-size="10.00" fill="#000000">error</text>
</a>
</g>
</g>
<!-- Node382&#45;&gt;Node383 -->
<g id="edge19" class="edge">
<title>Node382&#45;&gt;Node383</title>
<path fill="none" stroke="#191970" d="M450.4214,-333C483.3661,-333 527.702,-333 556.197,-333"/>
<polygon fill="#191970" stroke="#191970" points="556.2856,-336.5001 566.2856,-333 556.2855,-329.5001 556.2856,-336.5001"/>
</g>
<!-- Node382&#45;&gt;Node413 -->
<g id="edge44" class="edge">
<title>Node382&#45;&gt;Node413</title>
<path fill="none" stroke="#191970" d="M450.4214,-323.7042C474.4321,-318.5638 504.4936,-312.1281 530.0634,-306.654"/>
<polygon fill="#191970" stroke="#191970" points="530.9383,-310.0461 539.984,-304.5302 529.4728,-303.2012 530.9383,-310.0461"/>
</g>
<!-- Node384 -->
<g id="node21" class="node">
<title>Node384</title>
<g id="a_node21"><a xlink:href="util_8h.html#afd4c3002b2797c0560adddb6af3ca1da" target="_top" xlink:title="Send a string to the log output. ">
<polygon fill="#ffffff" stroke="#000000" points="715.5,-646.5 715.5,-665.5 780.5,-665.5 780.5,-646.5 715.5,-646.5"/>
<text text-anchor="middle" x="748" y="-653.5" font-family="Helvetica,sans-Serif" font-size="10.00" fill="#000000">LogPrintStr</text>
</a>
</g>
</g>
<!-- Node383&#45;&gt;Node384 -->
<g id="edge20" class="edge">
<title>Node383&#45;&gt;Node384</title>
<path fill="none" stroke="#191970" d="M602.6564,-333.1069C617.6843,-334.2392 638.3859,-338.4072 650,-352 732.9366,-449.0668 603.7955,-539.3124 686,-637 691.1477,-643.1172 698.2105,-647.3027 705.7297,-650.1574"/>
<polygon fill="#191970" stroke="#191970" points="704.8022,-653.5336 715.3885,-653.1068 706.8467,-646.8388 704.8022,-653.5336"/>
</g>
<!-- Node385 -->
<g id="node22" class="node">
<title>Node385</title>
<g id="a_node22"><a xlink:href="namespacetinyformat.html#a05144619d8b16e2b31b2594ca9c6bf1d" target="_top" xlink:title="Format list of arguments to the stream according to given format string. ">
<polygon fill="#ffffff" stroke="#000000" points="701,-608.5 701,-627.5 795,-627.5 795,-608.5 701,-608.5"/>
<text text-anchor="middle" x="748" y="-615.5" font-family="Helvetica,sans-Serif" font-size="10.00" fill="#000000">tinyformat::format</text>
</a>
</g>
</g>
<!-- Node383&#45;&gt;Node385 -->
<g id="edge21" class="edge">
<title>Node383&#45;&gt;Node385</title>
<path fill="none" stroke="#191970" d="M602.5912,-333.1631C617.5784,-334.3306 638.2567,-338.5186 650,-352 722.8665,-435.6518 613.7645,-514.8027 686,-599 687.7639,-601.056 689.744,-602.8933 691.884,-604.535"/>
<polygon fill="#191970" stroke="#191970" points="690.4459,-607.756 700.8121,-609.9453 694.0737,-601.7694 690.4459,-607.756"/>
</g>
<!-- Node394 -->
<g id="node25" class="node">
<title>Node394</title>
<g id="a_node25"><a xlink:href="util_8h.html#aaada8c5faa502eb0c33fc01294955db8" target="_top" xlink:title="PrintExceptionContinue">
<polygon fill="#ffffff" stroke="#000000" points="688.5,-570.5 688.5,-589.5 807.5,-589.5 807.5,-570.5 688.5,-570.5"/>
<text text-anchor="middle" x="748" y="-577.5" font-family="Helvetica,sans-Serif" font-size="10.00" fill="#000000">PrintExceptionContinue</text>
</a>
</g>
</g>
<!-- Node383&#45;&gt;Node394 -->
<g id="edge24" class="edge">
<title>Node383&#45;&gt;Node394</title>
<path fill="none" stroke="#191970" d="M602.5038,-333.2403C617.4363,-334.456 638.0835,-338.6714 650,-352 712.8234,-422.2678 623.7067,-490.2618 686,-561 687.1765,-562.336 688.4442,-563.5794 689.7873,-564.7366"/>
<polygon fill="#191970" stroke="#191970" points="687.9605,-567.7271 698.1953,-570.4658 691.9022,-561.9424 687.9605,-567.7271"/>
</g>
<!-- Node395 -->
<g id="node26" class="node">
<title>Node395</title>
<g id="a_node26"><a xlink:href="util_8h.html#af0e69a29ba128b74030ad8a213f2037a" target="_top" xlink:title="FileCommit">
<polygon fill="#ffffff" stroke="#000000" points="714.5,-532.5 714.5,-551.5 781.5,-551.5 781.5,-532.5 714.5,-532.5"/>
<text text-anchor="middle" x="748" y="-539.5" font-family="Helvetica,sans-Serif" font-size="10.00" fill="#000000">FileCommit</text>
</a>
</g>
</g>
<!-- Node383&#45;&gt;Node395 -->
<g id="edge25" class="edge">
<title>Node383&#45;&gt;Node395</title>
<path fill="none" stroke="#191970" d="M602.6765,-333.3784C617.5086,-334.6951 637.92,-338.9805 650,-352 702.8254,-408.934 633.6042,-465.6704 686,-523 691.0649,-528.5418 697.6983,-532.4857 704.7393,-535.2881"/>
<polygon fill="#191970" stroke="#191970" points="703.8923,-538.6927 714.4842,-538.4449 706.0496,-532.0334 703.8923,-538.6927"/>
</g>
<!-- Node396 -->
<g id="node27" class="node">
<title>Node396</title>
<g id="a_node27"><a xlink:href="util_8h.html#acb8d6b822bc1bfa609bf43bbac1a0d44" target="_top" xlink:title="TruncateFile">
<polygon fill="#ffffff" stroke="#000000" points="712.5,-494.5 712.5,-513.5 783.5,-513.5 783.5,-494.5 712.5,-494.5"/>
<text text-anchor="middle" x="748" y="-501.5" font-family="Helvetica,sans-Serif" font-size="10.00" fill="#000000">TruncateFile</text>
</a>
</g>
</g>
<!-- Node383&#45;&gt;Node396 -->
<g id="edge26" class="edge">
<title>Node383&#45;&gt;Node396</title>
<path fill="none" stroke="#191970" d="M602.7838,-333.5866C617.4772,-335.042 637.6379,-339.4135 650,-352 692.9108,-395.6896 643.4189,-440.989 686,-485 690.7335,-489.8925 696.6901,-493.5338 703.0278,-496.242"/>
<polygon fill="#191970" stroke="#191970" points="701.8931,-499.553 712.4879,-499.5792 704.2218,-492.9518 701.8931,-499.553"/>
</g>
<!-- Node397 -->
<g id="node28" class="node">
<title>Node397</title>
<g id="a_node28"><a xlink:href="util_8h.html#a756a5c49a4bb607d16d9842f8f3ede4f" target="_top" xlink:title="this function tries to raise the file descriptor limit to the requested number. ">
<polygon fill="#ffffff" stroke="#000000" points="686,-456.5 686,-475.5 810,-475.5 810,-456.5 686,-456.5"/>
<text text-anchor="middle" x="748" y="-463.5" font-family="Helvetica,sans-Serif" font-size="10.00" fill="#000000">RaiseFileDescriptorLimit</text>
</a>
</g>
</g>
<!-- Node383&#45;&gt;Node397 -->
<g id="edge27" class="edge">
<title>Node383&#45;&gt;Node397</title>
<path fill="none" stroke="#191970" d="M602.7617,-333.945C617.2438,-335.6206 637.1239,-340.1137 650,-352 683.1771,-382.6268 653.0542,-416.1247 686,-447 687.6686,-448.5637 689.4627,-449.9989 691.3519,-451.3161"/>
<polygon fill="#191970" stroke="#191970" points="689.7353,-454.4237 700.1501,-456.3685 693.2212,-448.3534 689.7353,-454.4237"/>
</g>
<!-- Node398 -->
<g id="node29" class="node">
<title>Node398</title>
<g id="a_node29"><a xlink:href="util_8h.html#a91c763bffc49cf7ed8d45cc44870e55c" target="_top" xlink:title="this function tries to make a particular range of a file allocated (corresponding to disk space) it i...">
<polygon fill="#ffffff" stroke="#000000" points="700,-418.5 700,-437.5 796,-437.5 796,-418.5 700,-418.5"/>
<text text-anchor="middle" x="748" y="-425.5" font-family="Helvetica,sans-Serif" font-size="10.00" fill="#000000">AllocateFileRange</text>
</a>
</g>
</g>
<!-- Node383&#45;&gt;Node398 -->
<g id="edge28" class="edge">
<title>Node383&#45;&gt;Node398</title>
<path fill="none" stroke="#191970" d="M602.7353,-334.7535C616.8235,-336.8899 636.1851,-341.6085 650,-352 673.9451,-370.0114 662.191,-390.8091 686,-409 688.4699,-410.8871 691.1281,-412.5881 693.9054,-414.1213"/>
<polygon fill="#191970" stroke="#191970" points="692.5596,-417.3564 703.0959,-418.4688 695.553,-411.0287 692.5596,-417.3564"/>
</g>
<!-- Node399 -->
<g id="node30" class="node">
<title>Node399</title>
<g id="a_node30"><a xlink:href="util_8h.html#a579657da2b55b131ecd453bf1b0d2314" target="_top" xlink:title="RenameOver">
<polygon fill="#ffffff" stroke="#000000" points="711,-380.5 711,-399.5 785,-399.5 785,-380.5 711,-380.5"/>
<text text-anchor="middle" x="748" y="-387.5" font-family="Helvetica,sans-Serif" font-size="10.00" fill="#000000">RenameOver</text>
</a>
</g>
</g>
<!-- Node383&#45;&gt;Node399 -->
<g id="edge29" class="edge">
<title>Node383&#45;&gt;Node399</title>
<path fill="none" stroke="#191970" d="M602.6244,-337.2007C615.9632,-340.5446 634.4111,-345.7016 650,-352 666.7743,-358.7773 669.2771,-364.0968 686,-371 691.4665,-373.2566 697.3002,-375.3871 703.1202,-377.3483"/>
<polygon fill="#191970" stroke="#191970" points="702.2431,-380.7429 712.8347,-380.4813 704.3917,-374.0807 702.2431,-380.7429"/>
</g>
<!-- Node400 -->
<g id="node31" class="node">
<title>Node400</title>
<g id="a_node31"><a xlink:href="util_8h.html#a9042a919d837da9d97311a0c460c597c" target="_top" xlink:title="Ignores exceptions thrown by Boost&#39;s create_directories if the requested directory exists...">
<polygon fill="#ffffff" stroke="#000000" points="694.5,-342.5 694.5,-361.5 801.5,-361.5 801.5,-342.5 694.5,-342.5"/>
<text text-anchor="middle" x="748" y="-349.5" font-family="Helvetica,sans-Serif" font-size="10.00" fill="#000000">TryCreateDirectories</text>
</a>
</g>
</g>
<!-- Node383&#45;&gt;Node400 -->
<g id="edge30" class="edge">
<title>Node383&#45;&gt;Node400</title>
<path fill="none" stroke="#191970" d="M602.6221,-335.1059C622.2568,-337.3876 654.7072,-341.1586 683.9738,-344.5596"/>
<polygon fill="#191970" stroke="#191970" points="683.8295,-348.0664 694.1667,-345.7441 684.6376,-341.1131 683.8295,-348.0664"/>
</g>
<!-- Node401 -->
<g id="node32" class="node">
<title>Node401</title>
<g id="a_node32"><a xlink:href="util_8h.html#a15cb85964fe08c264605537f44570d3c" target="_top" xlink:title="GetDefaultDataDir">
<polygon fill="#ffffff" stroke="#000000" points="699,-304.5 699,-323.5 797,-323.5 797,-304.5 699,-304.5"/>
<text text-anchor="middle" x="748" y="-311.5" font-family="Helvetica,sans-Serif" font-size="10.00" fill="#000000">GetDefaultDataDir</text>
</a>
</g>
</g>
<!-- Node383&#45;&gt;Node401 -->
<g id="edge31" class="edge">
<title>Node383&#45;&gt;Node401</title>
<path fill="none" stroke="#191970" d="M602.6221,-330.8941C623.3136,-328.4895 658.2376,-324.4311 688.6694,-320.8947"/>
<polygon fill="#191970" stroke="#191970" points="689.2614,-324.3495 698.7905,-319.7185 688.4533,-317.3963 689.2614,-324.3495"/>
</g>
<!-- Node402 -->
<g id="node33" class="node">
<title>Node402</title>
<g id="a_node33"><a xlink:href="util_8h.html#abb63dfb710832aefb746933af05198d4" target="_top" xlink:title="GetDataDir">
<polygon fill="#ffffff" stroke="#000000" points="715,-266.5 715,-285.5 781,-285.5 781,-266.5 715,-266.5"/>
<text text-anchor="middle" x="748" y="-273.5" font-family="Helvetica,sans-Serif" font-size="10.00" fill="#000000">GetDataDir</text>
</a>
</g>
</g>
<!-- Node383&#45;&gt;Node402 -->
<g id="edge32" class="edge">
<title>Node383&#45;&gt;Node402</title>
<path fill="none" stroke="#191970" d="M602.6244,-328.7993C615.9632,-325.4554 634.4111,-320.2984 650,-314 666.7743,-307.2227 669.2771,-301.9032 686,-295 692.0096,-292.5192 698.4629,-290.1908 704.854,-288.0723"/>
<polygon fill="#191970" stroke="#191970" points="706.3005,-291.2853 714.7731,-284.9242 704.1829,-284.6133 706.3005,-291.2853"/>
</g>
<!-- Node403 -->
<g id="node34" class="node">
<title>Node403</title>
<g id="a_node34"><a xlink:href="util_8h.html#abfb50dfe077aced7591f2aba601f605d" target="_top" xlink:title="ClearDatadirCache">
<polygon fill="#ffffff" stroke="#000000" points="698,-228.5 698,-247.5 798,-247.5 798,-228.5 698,-228.5"/>
<text text-anchor="middle" x="748" y="-235.5" font-family="Helvetica,sans-Serif" font-size="10.00" fill="#000000">ClearDatadirCache</text>
</a>
</g>
</g>
<!-- Node383&#45;&gt;Node403 -->
<g id="edge33" class="edge">
<title>Node383&#45;&gt;Node403</title>
<path fill="none" stroke="#191970" d="M602.7353,-331.2465C616.8235,-329.1101 636.1851,-324.3915 650,-314 673.9451,-295.9886 662.191,-275.1909 686,-257 688.4699,-255.1129 691.1281,-253.4119 693.9054,-251.8787"/>
<polygon fill="#191970" stroke="#191970" points="695.553,-254.9713 703.0959,-247.5312 692.5596,-248.6436 695.553,-254.9713"/>
</g>
<!-- Node404 -->
<g id="node35" class="node">
<title>Node404</title>
<g id="a_node35"><a xlink:href="util_8h.html#aa634f312705d4811dfa2a5392bddf6cf" target="_top" xlink:title="GetConfigFile">
<polygon fill="#ffffff" stroke="#000000" points="709.5,-190.5 709.5,-209.5 786.5,-209.5 786.5,-190.5 709.5,-190.5"/>
<text text-anchor="middle" x="748" y="-197.5" font-family="Helvetica,sans-Serif" font-size="10.00" fill="#000000">GetConfigFile</text>
</a>
</g>
</g>
<!-- Node383&#45;&gt;Node404 -->
<g id="edge34" class="edge">
<title>Node383&#45;&gt;Node404</title>
<path fill="none" stroke="#191970" d="M602.7617,-332.055C617.2438,-330.3794 637.1239,-325.8863 650,-314 683.1771,-283.3732 653.0542,-249.8753 686,-219 690.0559,-215.199 694.8537,-212.1574 699.9562,-209.7237"/>
<polygon fill="#191970" stroke="#191970" points="701.3837,-212.9225 709.3755,-205.9667 698.7904,-206.4206 701.3837,-212.9225"/>
</g>
<!-- Node406 -->
<g id="node37" class="node">
<title>Node406</title>
<g id="a_node37"><a xlink:href="util_8h.html#aa0172eabeecce5061826cb19990fbde2" target="_top" xlink:title="GetPidFile">
<polygon fill="#ffffff" stroke="#000000" points="717,-38.5 717,-57.5 779,-57.5 779,-38.5 717,-38.5"/>
<text text-anchor="middle" x="748" y="-45.5" font-family="Helvetica,sans-Serif" font-size="10.00" fill="#000000">GetPidFile</text>
</a>
</g>
</g>
<!-- Node383&#45;&gt;Node406 -->
<g id="edge36" class="edge">
<title>Node383&#45;&gt;Node406</title>
<path fill="none" stroke="#191970" d="M602.5912,-332.8369C617.5784,-331.6694 638.2567,-327.4814 650,-314 722.8665,-230.3482 613.7645,-151.1973 686,-67 691.4721,-60.6218 699.0246,-56.3477 706.9791,-53.4931"/>
<polygon fill="#191970" stroke="#191970" points="708.1302,-56.8038 716.7682,-50.6689 706.1898,-50.0781 708.1302,-56.8038"/>
</g>
<!-- Node408 -->
<g id="node39" class="node">
<title>Node408</title>
<g id="a_node39"><a xlink:href="util_8h.html#a1c0f9b041628dcb399a023bc9913f41d" target="_top" xlink:title="CreatePidFile">
<polygon fill="#ffffff" stroke="#ff0000" points="710,-114.5 710,-133.5 786,-133.5 786,-114.5 710,-114.5"/>
<text text-anchor="middle" x="748" y="-121.5" font-family="Helvetica,sans-Serif" font-size="10.00" fill="#000000">CreatePidFile</text>
</a>
</g>
</g>
<!-- Node383&#45;&gt;Node408 -->
<g id="edge39" class="edge">
<title>Node383&#45;&gt;Node408</title>
<path fill="none" stroke="#191970" d="M602.6765,-332.6216C617.5086,-331.3049 637.92,-327.0195 650,-314 702.8254,-257.066 633.6042,-200.3296 686,-143 690.0384,-138.5813 695.0739,-135.1785 700.5181,-132.5602"/>
<polygon fill="#191970" stroke="#191970" points="701.9324,-135.7652 709.9624,-128.8536 699.3749,-129.2491 701.9324,-135.7652"/>
</g>
<!-- Node410 -->
<g id="node40" class="node">
<title>Node410</title>
<g id="a_node40"><a xlink:href="util_8h.html#a1e755e72104d3ca393efc1cc3f41952a" target="_top" xlink:title="OpenDebugLog">
<polygon fill="#ffffff" stroke="#000000" points="706,-76.5 706,-95.5 790,-95.5 790,-76.5 706,-76.5"/>
<text text-anchor="middle" x="748" y="-83.5" font-family="Helvetica,sans-Serif" font-size="10.00" fill="#000000">OpenDebugLog</text>
</a>
</g>
</g>
<!-- Node383&#45;&gt;Node410 -->
<g id="edge40" class="edge">
<title>Node383&#45;&gt;Node410</title>
<path fill="none" stroke="#191970" d="M602.5038,-332.7597C617.4363,-331.544 638.0835,-327.3286 650,-314 712.8234,-243.7322 623.7067,-175.7382 686,-105 689.054,-101.532 692.7226,-98.6876 696.7302,-96.3561"/>
<polygon fill="#191970" stroke="#191970" points="698.3767,-99.4495 705.938,-92.028 695.399,-93.1145 698.3767,-99.4495"/>
</g>
<!-- Node411 -->
<g id="node41" class="node">
<title>Node411</title>
<g id="a_node41"><a xlink:href="util_8h.html#a37fca7e305fe0caa306b23fdb37f88e2" target="_top" xlink:title="ShrinkDebugFile">
<polygon fill="#ffffff" stroke="#ff0000" points="703.5,-152.5 703.5,-171.5 792.5,-171.5 792.5,-152.5 703.5,-152.5"/>
<text text-anchor="middle" x="748" y="-159.5" font-family="Helvetica,sans-Serif" font-size="10.00" fill="#000000">ShrinkDebugFile</text>
</a>
</g>
</g>
<!-- Node383&#45;&gt;Node411 -->
<g id="edge41" class="edge">
<title>Node383&#45;&gt;Node411</title>
<path fill="none" stroke="#191970" d="M602.7838,-332.4134C617.4772,-330.958 637.6379,-326.5865 650,-314 692.9108,-270.3104 643.4189,-225.011 686,-181 688.4622,-178.4551 691.2552,-176.2488 694.2607,-174.3362"/>
<polygon fill="#191970" stroke="#191970" points="695.9399,-177.408 703.1949,-169.6868 692.7084,-171.1985 695.9399,-177.408"/>
</g>
<!-- Node412 -->
<g id="node42" class="node">
<title>Node412</title>
<g id="a_node42"><a xlink:href="util_8h.html#aa803aa631ab8b4bd79fa9d7b2172bf9a" target="_top" xlink:title="runCommand">
<polygon fill="#ffffff" stroke="#000000" points="710.5,-.5 710.5,-19.5 785.5,-19.5 785.5,-.5 710.5,-.5"/>
<text text-anchor="middle" x="748" y="-7.5" font-family="Helvetica,sans-Serif" font-size="10.00" fill="#000000">runCommand</text>
</a>
</g>
</g>
<!-- Node383&#45;&gt;Node412 -->
<g id="edge43" class="edge">
<title>Node383&#45;&gt;Node412</title>
<path fill="none" stroke="#191970" d="M602.6564,-332.8931C617.6843,-331.7608 638.3859,-327.5928 650,-314 732.9366,-216.9332 603.7955,-126.6876 686,-29 689.9471,-24.3095 695.0202,-20.7547 700.5617,-18.0648"/>
<polygon fill="#191970" stroke="#191970" points="702.1653,-21.1964 710.2138,-14.3064 699.6253,-14.6735 702.1653,-21.1964"/>
</g>
<!-- Node386 -->
<g id="node23" class="node">
<title>Node386</title>
<g id="a_node23"><a xlink:href="namespacetinyformat.html#a86ed74eb3ed66a662e96220d877da964" target="_top" xlink:title="Format list of arguments to the stream according to the given format string. ">
<polygon fill="#ffffff" stroke="#ff0000" points="865,-627.5 865,-646.5 964,-646.5 964,-627.5 865,-627.5"/>
<text text-anchor="middle" x="914.5" y="-634.5" font-family="Helvetica,sans-Serif" font-size="10.00" fill="#000000">tinyformat::vformat</text>
</a>
</g>
</g>
<!-- Node385&#45;&gt;Node386 -->
<g id="edge22" class="edge">
<title>Node385&#45;&gt;Node386</title>
<path fill="none" stroke="#191970" d="M795.2669,-623.3938C813.7697,-625.5052 835.209,-627.9518 854.7631,-630.1832"/>
<polygon fill="#191970" stroke="#191970" points="854.4588,-633.6711 864.7912,-631.3275 855.2525,-626.7162 854.4588,-633.6711"/>
</g>
<!-- Node393 -->
<g id="node24" class="node">
<title>Node393</title>
<g id="a_node24"><a xlink:href="namespacetinyformat.html#a37afaa5249c69dacd619269358f06f69" target="_top" xlink:title="Make type&#45;agnostic format list from list of template arguments. ">
<polygon fill="#ffffff" stroke="#000000" points="846,-589.5 846,-608.5 983,-608.5 983,-589.5 846,-589.5"/>
<text text-anchor="middle" x="914.5" y="-596.5" font-family="Helvetica,sans-Serif" font-size="10.00" fill="#000000">tinyformat::makeFormatList</text>
</a>
</g>
</g>
<!-- Node385&#45;&gt;Node393 -->
<g id="edge23" class="edge">
<title>Node385&#45;&gt;Node393</title>
<path fill="none" stroke="#191970" d="M795.2669,-612.6062C807.9546,-611.1583 822.0231,-609.5529 835.9177,-607.9673"/>
<polygon fill="#191970" stroke="#191970" points="836.4435,-611.4302 845.9822,-606.8189 835.6498,-604.4753 836.4435,-611.4302"/>
</g>
<!-- Node405 -->
<g id="node36" class="node">
<title>Node405</title>
<g id="a_node36"><a xlink:href="util_8cpp.html#a7ebe0bd091f7334aaead43904601e008" target="_top" xlink:title="GetDataDir">
<polygon fill="#ffffff" stroke="#000000" points="881.5,-152.5 881.5,-171.5 947.5,-171.5 947.5,-152.5 881.5,-152.5"/>
<text text-anchor="middle" x="914.5" y="-159.5" font-family="Helvetica,sans-Serif" font-size="10.00" fill="#000000">GetDataDir</text>
</a>
</g>
</g>
<!-- Node404&#45;&gt;Node405 -->
<g id="edge35" class="edge">
<title>Node404&#45;&gt;Node405</title>
<path fill="none" stroke="#191970" d="M786.6169,-191.1865C811.9746,-185.3992 845.1762,-177.8217 871.3939,-171.838"/>
<polygon fill="#191970" stroke="#191970" points="872.4603,-175.1847 881.4308,-169.5473 870.9027,-168.3602 872.4603,-175.1847"/>
</g>
<!-- Node406&#45;&gt;Node405 -->
<g id="edge38" class="edge">
<title>Node406&#45;&gt;Node405</title>
<path fill="none" stroke="#191970" d="M779.0592,-54.6307C789.3105,-57.5604 800.5102,-61.5968 810,-67 846.6798,-87.8843 881.283,-123.6396 900.016,-144.8221"/>
<polygon fill="#191970" stroke="#191970" points="897.4085,-147.1574 906.6049,-152.4183 902.6964,-142.5707 897.4085,-147.1574"/>
</g>
<!-- Node407 -->
<g id="node38" class="node">
<title>Node407</title>
<g id="a_node38"><a xlink:href="class_args_manager.html#adb5d644d273b3a259f792affcdca8283" target="_top" xlink:title="Return string argument or default value. ">
<polygon fill="#ffffff" stroke="#000000" points="859,-38.5 859,-57.5 970,-57.5 970,-38.5 859,-38.5"/>
<text text-anchor="middle" x="914.5" y="-45.5" font-family="Helvetica,sans-Serif" font-size="10.00" fill="#000000">ArgsManager::GetArg</text>
</a>
</g>
</g>
<!-- Node406&#45;&gt;Node407 -->
<g id="edge37" class="edge">
<title>Node406&#45;&gt;Node407</title>
<path fill="none" stroke="#191970" d="M779.3174,-48C798.8523,-48 824.7394,-48 848.6282,-48"/>
<polygon fill="#191970" stroke="#191970" points="848.7197,-51.5001 858.7197,-48 848.7196,-44.5001 848.7197,-51.5001"/>
</g>
<!-- Node411&#45;&gt;Node405 -->
<g id="edge42" class="edge">
<title>Node411&#45;&gt;Node405</title>
<path fill="none" stroke="#191970" d="M792.6189,-162C816.9527,-162 846.9446,-162 871.0875,-162"/>
<polygon fill="#191970" stroke="#191970" points="871.3841,-165.5001 881.3841,-162 871.3841,-158.5001 871.3841,-165.5001"/>
</g>
<!-- Node415&#45;&gt;Node416 -->
<g id="edge48" class="edge">
<title>Node415&#45;&gt;Node416</title>
<path fill="none" stroke="#191970" d="M268.6833,-152.1405C299.3236,-162.0779 338.9371,-174.9255 367.9129,-184.3231"/>
<polygon fill="#191970" stroke="#191970" points="367.0942,-187.737 377.6862,-187.4928 369.2538,-181.0784 367.0942,-187.737"/>
</g>
<!-- Node417 -->
<g id="node47" class="node">
<title>Node417</title>
<g id="a_node47"><a xlink:href="class_c_tx_mem_pool_entry.html#a89325fcaa8efbd1d6fe68c39d7d676b0" target="_top" xlink:title="CTxMemPoolEntry::GetTxSize">
<polygon fill="#ffffff" stroke="#000000" points="331,-127.5 331,-146.5 483,-146.5 483,-127.5 331,-127.5"/>
<text text-anchor="middle" x="407" y="-134.5" font-family="Helvetica,sans-Serif" font-size="10.00" fill="#000000">CTxMemPoolEntry::GetTxSize</text>
</a>
</g>
</g>
<!-- Node415&#45;&gt;Node417 -->
<g id="edge49" class="edge">
<title>Node415&#45;&gt;Node417</title>
<path fill="none" stroke="#191970" d="M295.1169,-137C303.5376,-137 312.1826,-137 320.7557,-137"/>
<polygon fill="#191970" stroke="#191970" points="320.7689,-140.5001 330.7689,-137 320.7688,-133.5001 320.7689,-140.5001"/>
</g>
<!-- Node418 -->
<g id="node48" class="node">
<title>Node418</title>
<g id="a_node48"><a xlink:href="policy_8cpp.html#a657a593ec90452062582ccf893a8488d" target="_top" xlink:title="Compute the virtual transaction size (weight reinterpreted as bytes). ">
<polygon fill="#ffffff" stroke="#000000" points="519,-127.5 519,-146.5 650,-146.5 650,-127.5 519,-127.5"/>
<text text-anchor="middle" x="584.5" y="-134.5" font-family="Helvetica,sans-Serif" font-size="10.00" fill="#000000">GetVirtualTransactionSize</text>
</a>
</g>
</g>
<!-- Node417&#45;&gt;Node418 -->
<g id="edge50" class="edge">
<title>Node417&#45;&gt;Node418</title>
<path fill="none" stroke="#191970" d="M483.0484,-137C491.5441,-137 500.1984,-137 508.6911,-137"/>
<polygon fill="#191970" stroke="#191970" points="508.9488,-140.5001 518.9487,-137 508.9487,-133.5001 508.9488,-140.5001"/>
</g>
<!-- Node420&#45;&gt;Node413 -->
<g id="edge55" class="edge">
<title>Node420&#45;&gt;Node413</title>
<path fill="none" stroke="#191970" d="M445.5149,-265.2454C470.3058,-270.5528 502.8943,-277.5295 530.2838,-283.3931"/>
<polygon fill="#191970" stroke="#191970" points="529.6042,-286.8269 540.1153,-285.4979 531.0696,-279.982 529.6042,-286.8269"/>
</g>
</g>
</svg>
