<?xml version="1.0" encoding="UTF-8" standalone="no"?>
<!DOCTYPE svg PUBLIC "-//W3C//DTD SVG 1.1//EN"
 "http://www.w3.org/Graphics/SVG/1.1/DTD/svg11.dtd">
<!-- Generated by graphviz version 2.40.1 (20161225.0304)
 -->
<!-- Title: src/primitives/block.cpp Pages: 1 -->
<svg width="1530pt" height="420pt"
 viewBox="0.00 0.00 1529.50 420.00" xmlns="http://www.w3.org/2000/svg" xmlns:xlink="http://www.w3.org/1999/xlink">
<g id="graph0" class="graph" transform="scale(1 1) rotate(0) translate(4 416)">
<title>src/primitives/block.cpp</title>
<polygon fill="#ffffff" stroke="transparent" points="-4,4 -4,-416 1525.5,-416 1525.5,4 -4,4"/>
<!-- Node0 -->
<g id="node1" class="node">
<title>Node0</title>
<polygon fill="#bfbfbf" stroke="#000000" points="981,-392.5 981,-411.5 1101,-411.5 1101,-392.5 981,-392.5"/>
<text text-anchor="middle" x="1041" y="-399.5" font-family="Helvetica,sans-Serif" font-size="10.00" fill="#000000">src/primitives/block.cpp</text>
</g>
<!-- Node1 -->
<g id="node2" class="node">
<title>Node1</title>
<g id="a_node2"><a xlink:href="block_8h.html" target="_top" xlink:title="primitives/block.h">
<polygon fill="#ffffff" stroke="#000000" points="730.5,-336.5 730.5,-355.5 823.5,-355.5 823.5,-336.5 730.5,-336.5"/>
<text text-anchor="middle" x="777" y="-343.5" font-family="Helvetica,sans-Serif" font-size="10.00" fill="#000000">primitives/block.h</text>
</a>
</g>
</g>
<!-- Node0&#45;&gt;Node1 -->
<g id="edge1" class="edge">
<title>Node0&#45;&gt;Node1</title>
<path fill="none" stroke="#191970" d="M995.9167,-392.4369C950.5454,-382.8127 880.5114,-367.957 831.9234,-357.6504"/>
<polygon fill="#191970" stroke="#191970" points="832.4059,-354.175 821.8973,-355.5237 830.9534,-361.0226 832.4059,-354.175"/>
</g>
<!-- Node6 -->
<g id="node7" class="node">
<title>Node6</title>
<g id="a_node7"><a xlink:href="common_8h.html" target="_top" xlink:title="crypto/common.h">
<polygon fill="#ffffff" stroke="#000000" points="251,-168.5 251,-187.5 343,-187.5 343,-168.5 251,-168.5"/>
<text text-anchor="middle" x="297" y="-175.5" font-family="Helvetica,sans-Serif" font-size="10.00" fill="#000000">crypto/common.h</text>
</a>
</g>
</g>
<!-- Node0&#45;&gt;Node6 -->
<g id="edge67" class="edge">
<title>Node0&#45;&gt;Node6</title>
<path fill="none" stroke="#191970" d="M1018.0807,-392.4778C947.5938,-363.5014 727.336,-275.2531 538,-224 475.6236,-207.1148 402.5405,-194.0876 353.3465,-186.2757"/>
<polygon fill="#191970" stroke="#191970" points="353.6456,-182.78 343.2241,-184.6884 352.5611,-189.6954 353.6456,-182.78"/>
</g>
<!-- Node29 -->
<g id="node30" class="node">
<title>Node29</title>
<polygon fill="#ffffff" stroke="#bfbfbf" points="1018,-336.5 1018,-355.5 1064,-355.5 1064,-336.5 1018,-336.5"/>
<text text-anchor="middle" x="1041" y="-343.5" font-family="Helvetica,sans-Serif" font-size="10.00" fill="#000000">hash.h</text>
</g>
<!-- Node0&#45;&gt;Node29 -->
<g id="edge56" class="edge">
<title>Node0&#45;&gt;Node29</title>
<path fill="none" stroke="#191970" d="M1041,-392.2455C1041,-384.9382 1041,-374.6944 1041,-365.7046"/>
<polygon fill="#191970" stroke="#191970" points="1044.5001,-365.6426 1041,-355.6427 1037.5001,-365.6427 1044.5001,-365.6426"/>
</g>
<!-- Node30 -->
<g id="node31" class="node">
<title>Node30</title>
<g id="a_node31"><a xlink:href="tinyformat_8h.html" target="_top" xlink:title="tinyformat.h">
<polygon fill="#ffffff" stroke="#000000" points="1182,-224.5 1182,-243.5 1250,-243.5 1250,-224.5 1182,-224.5"/>
<text text-anchor="middle" x="1216" y="-231.5" font-family="Helvetica,sans-Serif" font-size="10.00" fill="#000000">tinyformat.h</text>
</a>
</g>
</g>
<!-- Node0&#45;&gt;Node30 -->
<g id="edge57" class="edge">
<title>Node0&#45;&gt;Node30</title>
<path fill="none" stroke="#191970" d="M1050.9102,-392.4862C1079.4119,-365.1246 1161.8825,-285.9528 1198.3268,-250.9663"/>
<polygon fill="#191970" stroke="#191970" points="1200.9726,-253.2781 1205.7626,-243.8279 1196.1248,-248.2284 1200.9726,-253.2781"/>
</g>
<!-- Node34 -->
<g id="node35" class="node">
<title>Node34</title>
<g id="a_node35"><a xlink:href="utilstrencodings_8h.html" target="_top" xlink:title="utilstrencodings.h">
<polygon fill="#ffffff" stroke="#000000" points="1428.5,-168.5 1428.5,-187.5 1521.5,-187.5 1521.5,-168.5 1428.5,-168.5"/>
<text text-anchor="middle" x="1475" y="-175.5" font-family="Helvetica,sans-Serif" font-size="10.00" fill="#000000">utilstrencodings.h</text>
</a>
</g>
</g>
<!-- Node0&#45;&gt;Node34 -->
<g id="edge63" class="edge">
<title>Node0&#45;&gt;Node34</title>
<path fill="none" stroke="#191970" d="M1059.6484,-392.375C1128.0925,-357.0491 1365.7155,-234.4049 1447.2708,-192.3118"/>
<polygon fill="#191970" stroke="#191970" points="1449.1401,-195.2858 1456.421,-187.5891 1445.9296,-189.0654 1449.1401,-195.2858"/>
</g>
<!-- Node2 -->
<g id="node3" class="node">
<title>Node2</title>
<g id="a_node3"><a xlink:href="transaction_8h.html" target="_top" xlink:title="primitives/transaction.h">
<polygon fill="#ffffff" stroke="#000000" points="489,-280.5 489,-299.5 607,-299.5 607,-280.5 489,-280.5"/>
<text text-anchor="middle" x="548" y="-287.5" font-family="Helvetica,sans-Serif" font-size="10.00" fill="#000000">primitives/transaction.h</text>
</a>
</g>
</g>
<!-- Node1&#45;&gt;Node2 -->
<g id="edge2" class="edge">
<title>Node1&#45;&gt;Node2</title>
<path fill="none" stroke="#191970" d="M737.8937,-336.4369C698.8668,-326.8932 638.8035,-312.2052 596.7038,-301.9101"/>
<polygon fill="#191970" stroke="#191970" points="597.4902,-298.4993 586.945,-299.5237 595.8274,-305.299 597.4902,-298.4993"/>
</g>
<!-- Node15 -->
<g id="node16" class="node">
<title>Node15</title>
<g id="a_node16"><a xlink:href="serialize_8h.html" target="_top" xlink:title="serialize.h">
<polygon fill="#ffffff" stroke="#000000" points="605.5,-168.5 605.5,-187.5 666.5,-187.5 666.5,-168.5 605.5,-168.5"/>
<text text-anchor="middle" x="636" y="-175.5" font-family="Helvetica,sans-Serif" font-size="10.00" fill="#000000">serialize.h</text>
</a>
</g>
</g>
<!-- Node1&#45;&gt;Node15 -->
<g id="edge54" class="edge">
<title>Node1&#45;&gt;Node15</title>
<path fill="none" stroke="#191970" d="M769.0152,-336.4862C746.244,-309.3545 680.7169,-231.2798 650.9876,-195.8576"/>
<polygon fill="#191970" stroke="#191970" points="653.3581,-193.2376 644.2484,-187.8279 647.9962,-197.7377 653.3581,-193.2376"/>
</g>
<!-- Node27 -->
<g id="node28" class="node">
<title>Node27</title>
<g id="a_node28"><a xlink:href="uint256_8h.html" target="_top" xlink:title="uint256.h">
<polygon fill="#ffffff" stroke="#000000" points="946,-224.5 946,-243.5 1002,-243.5 1002,-224.5 946,-224.5"/>
<text text-anchor="middle" x="974" y="-231.5" font-family="Helvetica,sans-Serif" font-size="10.00" fill="#000000">uint256.h</text>
</a>
</g>
</g>
<!-- Node1&#45;&gt;Node27 -->
<g id="edge55" class="edge">
<title>Node1&#45;&gt;Node27</title>
<path fill="none" stroke="#191970" d="M793.7961,-336.4509C828.3253,-316.8201 907.467,-271.8259 948.4125,-248.5472"/>
<polygon fill="#191970" stroke="#191970" points="950.283,-251.51 957.2464,-243.5249 946.8233,-245.4247 950.283,-251.51"/>
</g>
<!-- Node3 -->
<g id="node4" class="node">
<title>Node3</title>
<polygon fill="#ffffff" stroke="#bfbfbf" points="243.5,-.5 243.5,-19.5 292.5,-19.5 292.5,-.5 243.5,-.5"/>
<text text-anchor="middle" x="268" y="-7.5" font-family="Helvetica,sans-Serif" font-size="10.00" fill="#000000">stdint.h</text>
</g>
<!-- Node2&#45;&gt;Node3 -->
<g id="edge3" class="edge">
<title>Node2&#45;&gt;Node3</title>
<path fill="none" stroke="#191970" d="M488.8337,-284.0892C347.133,-269.1379 0,-227.4632 0,-178 0,-178 0,-178 0,-122 0,-83.8166 22.336,-75.7746 55,-56 84.596,-38.0827 180.6259,-22.2872 233.0553,-14.7274"/>
<polygon fill="#191970" stroke="#191970" points="233.8249,-18.1534 243.2346,-13.2842 232.8423,-11.2227 233.8249,-18.1534"/>
</g>
<!-- Node4 -->
<g id="node5" class="node">
<title>Node4</title>
<g id="a_node5"><a xlink:href="amount_8h.html" target="_top" xlink:title="amount.h">
<polygon fill="#ffffff" stroke="#000000" points="28.5,-168.5 28.5,-187.5 85.5,-187.5 85.5,-168.5 28.5,-168.5"/>
<text text-anchor="middle" x="57" y="-175.5" font-family="Helvetica,sans-Serif" font-size="10.00" fill="#000000">amount.h</text>
</a>
</g>
</g>
<!-- Node2&#45;&gt;Node4 -->
<g id="edge4" class="edge">
<title>Node2&#45;&gt;Node4</title>
<path fill="none" stroke="#191970" d="M505.6747,-280.4321C426.1652,-262.4433 249.0598,-222.3012 100,-188 98.5528,-187.667 97.0784,-187.3271 95.5891,-186.9833"/>
<polygon fill="#191970" stroke="#191970" points="96.2086,-183.5342 85.6768,-184.6885 94.6297,-190.3538 96.2086,-183.5342"/>
</g>
<!-- Node5 -->
<g id="node6" class="node">
<title>Node5</title>
<g id="a_node6"><a xlink:href="script_8h.html" target="_top" xlink:title="script/script.h">
<polygon fill="#ffffff" stroke="#000000" points="453,-224.5 453,-243.5 529,-243.5 529,-224.5 453,-224.5"/>
<text text-anchor="middle" x="491" y="-231.5" font-family="Helvetica,sans-Serif" font-size="10.00" fill="#000000">script/script.h</text>
</a>
</g>
</g>
<!-- Node2&#45;&gt;Node5 -->
<g id="edge6" class="edge">
<title>Node2&#45;&gt;Node5</title>
<path fill="none" stroke="#191970" d="M538.0714,-280.2455C529.8162,-272.1352 517.8791,-260.4075 508.0918,-250.7919"/>
<polygon fill="#191970" stroke="#191970" points="510.4011,-248.1542 500.8149,-243.6427 505.4954,-253.1476 510.4011,-248.1542"/>
</g>
<!-- Node2&#45;&gt;Node15 -->
<g id="edge45" class="edge">
<title>Node2&#45;&gt;Node15</title>
<path fill="none" stroke="#191970" d="M555.5028,-280.4509C570.3101,-261.6054 603.4833,-219.3849 622.2957,-195.4419"/>
<polygon fill="#191970" stroke="#191970" points="625.09,-197.5505 628.5162,-187.5249 619.5858,-193.2257 625.09,-197.5505"/>
</g>
<!-- Node2&#45;&gt;Node27 -->
<g id="edge46" class="edge">
<title>Node2&#45;&gt;Node27</title>
<path fill="none" stroke="#191970" d="M607.2335,-282.2134C695.92,-270.5551 860.7598,-248.886 935.446,-239.0681"/>
<polygon fill="#191970" stroke="#191970" points="936.3328,-242.4817 945.7913,-237.7082 935.4204,-235.5415 936.3328,-242.4817"/>
</g>
<!-- Node4&#45;&gt;Node3 -->
<g id="edge5" class="edge">
<title>Node4&#45;&gt;Node3</title>
<path fill="none" stroke="#191970" d="M54.7818,-168.297C50.1969,-145.5244 42.3507,-88.1536 71,-56 92.2131,-32.1922 182.4482,-19.015 233.1162,-13.3659"/>
<polygon fill="#191970" stroke="#191970" points="233.7194,-16.8213 243.2885,-12.2736 232.972,-9.8613 233.7194,-16.8213"/>
</g>
<!-- Node5&#45;&gt;Node3 -->
<g id="edge41" class="edge">
<title>Node5&#45;&gt;Node3</title>
<path fill="none" stroke="#191970" d="M452.8059,-230.5502C387.8144,-224.1871 258.8756,-209.2806 219,-188 188.7675,-171.8657 186.2369,-159.6548 166,-132 144.4572,-102.5607 113.8366,-85.7132 135,-56 146.643,-39.6534 198.1146,-25.3434 233.5014,-17.1879"/>
<polygon fill="#191970" stroke="#191970" points="234.4644,-20.559 243.4568,-14.9566 232.9334,-13.7285 234.4644,-20.559"/>
</g>
<!-- Node5&#45;&gt;Node4 -->
<g id="edge36" class="edge">
<title>Node5&#45;&gt;Node4</title>
<path fill="none" stroke="#191970" d="M452.7762,-230.9273C382.5553,-224.9669 228.4361,-210.4177 100,-188 98.5371,-187.7447 97.0494,-187.4707 95.5489,-187.1824"/>
<polygon fill="#191970" stroke="#191970" points="96.0927,-183.7207 85.5902,-185.1168 94.671,-190.5749 96.0927,-183.7207"/>
</g>
<!-- Node5&#45;&gt;Node6 -->
<g id="edge7" class="edge">
<title>Node5&#45;&gt;Node6</title>
<path fill="none" stroke="#191970" d="M457.6502,-224.3733C424.972,-214.9404 375.0382,-200.5265 339.523,-190.2747"/>
<polygon fill="#191970" stroke="#191970" points="340.493,-186.9119 329.9146,-187.5011 338.5516,-193.6373 340.493,-186.9119"/>
</g>
<!-- Node7 -->
<g id="node8" class="node">
<title>Node7</title>
<polygon fill="#ffffff" stroke="#bfbfbf" points="151.5,-56.5 151.5,-75.5 200.5,-75.5 200.5,-56.5 151.5,-56.5"/>
<text text-anchor="middle" x="176" y="-63.5" font-family="Helvetica,sans-Serif" font-size="10.00" fill="#000000">string.h</text>
</g>
<!-- Node5&#45;&gt;Node7 -->
<g id="edge42" class="edge">
<title>Node5&#45;&gt;Node7</title>
<path fill="none" stroke="#191970" d="M452.772,-230.9206C391.5907,-225.3457 275.1801,-211.8859 242,-188 206.9584,-162.7741 188.6266,-113.0389 180.7872,-85.5"/>
<polygon fill="#191970" stroke="#191970" points="184.0812,-84.2677 178.1281,-75.5035 177.3164,-86.0672 184.0812,-84.2677"/>
</g>
<!-- Node10 -->
<g id="node11" class="node">
<title>Node10</title>
<g id="a_node11"><a xlink:href="prevector_8h.html" target="_top" xlink:title="prevector.h">
<polygon fill="#ffffff" stroke="#000000" points="349.5,-112.5 349.5,-131.5 414.5,-131.5 414.5,-112.5 349.5,-112.5"/>
<text text-anchor="middle" x="382" y="-119.5" font-family="Helvetica,sans-Serif" font-size="10.00" fill="#000000">prevector.h</text>
</a>
</g>
</g>
<!-- Node5&#45;&gt;Node10 -->
<g id="edge14" class="edge">
<title>Node5&#45;&gt;Node10</title>
<path fill="none" stroke="#191970" d="M475.4172,-224.425C462.195,-215.8573 443.1705,-202.4496 429,-188 414.7555,-173.4749 401.6052,-154.297 392.859,-140.3592"/>
<polygon fill="#191970" stroke="#191970" points="395.7492,-138.3765 387.5482,-131.6687 389.7762,-142.0267 395.7492,-138.3765"/>
</g>
<!-- Node11 -->
<g id="node12" class="node">
<title>Node11</title>
<polygon fill="#ffffff" stroke="#bfbfbf" points="627,-56.5 627,-75.5 679,-75.5 679,-56.5 627,-56.5"/>
<text text-anchor="middle" x="653" y="-63.5" font-family="Helvetica,sans-Serif" font-size="10.00" fill="#000000">assert.h</text>
</g>
<!-- Node5&#45;&gt;Node11 -->
<g id="edge37" class="edge">
<title>Node5&#45;&gt;Node11</title>
<path fill="none" stroke="#191970" d="M483.7871,-224.2679C468.172,-201.924 434.7577,-146.245 462,-112 504.3946,-58.7079 545.4204,-90.7322 616.8575,-75.965"/>
<polygon fill="#191970" stroke="#191970" points="617.7207,-79.3577 626.6664,-73.681 616.1332,-72.5401 617.7207,-79.3577"/>
</g>
<!-- Node5&#45;&gt;Node15 -->
<g id="edge21" class="edge">
<title>Node5&#45;&gt;Node15</title>
<path fill="none" stroke="#191970" d="M515.9264,-224.3733C539.6202,-215.2226 575.4511,-201.3844 601.8068,-191.2057"/>
<polygon fill="#191970" stroke="#191970" points="603.3314,-194.3689 611.3989,-187.5011 600.8094,-187.8389 603.3314,-194.3689"/>
</g>
<!-- Node18 -->
<g id="node19" class="node">
<title>Node18</title>
<polygon fill="#ffffff" stroke="#bfbfbf" points="471,-112.5 471,-131.5 511,-131.5 511,-112.5 471,-112.5"/>
<text text-anchor="middle" x="491" y="-119.5" font-family="Helvetica,sans-Serif" font-size="10.00" fill="#000000">limits</text>
</g>
<!-- Node5&#45;&gt;Node18 -->
<g id="edge39" class="edge">
<title>Node5&#45;&gt;Node18</title>
<path fill="none" stroke="#191970" d="M491,-224.4509C491,-206.184 491,-165.9553 491,-141.6976"/>
<polygon fill="#191970" stroke="#191970" points="494.5001,-141.5249 491,-131.5249 487.5001,-141.5249 494.5001,-141.5249"/>
</g>
<!-- Node22 -->
<g id="node23" class="node">
<title>Node22</title>
<polygon fill="#ffffff" stroke="#bfbfbf" points="994.5,-112.5 994.5,-131.5 1035.5,-131.5 1035.5,-112.5 994.5,-112.5"/>
<text text-anchor="middle" x="1015" y="-119.5" font-family="Helvetica,sans-Serif" font-size="10.00" fill="#000000">string</text>
</g>
<!-- Node5&#45;&gt;Node22 -->
<g id="edge43" class="edge">
<title>Node5&#45;&gt;Node22</title>
<path fill="none" stroke="#191970" d="M529.2969,-226.5491C566.9325,-218.7335 625.7248,-205.1981 675,-188 695.2812,-180.9214 698.359,-173.9482 719,-168 830.6124,-135.836 866.8819,-157.7543 984.7313,-131.6304"/>
<polygon fill="#191970" stroke="#191970" points="985.5197,-135.0405 994.4884,-129.4003 983.9599,-128.2165 985.5197,-135.0405"/>
</g>
<!-- Node24 -->
<g id="node25" class="node">
<title>Node24</title>
<polygon fill="#ffffff" stroke="#bfbfbf" points="1054,-112.5 1054,-131.5 1098,-131.5 1098,-112.5 1054,-112.5"/>
<text text-anchor="middle" x="1076" y="-119.5" font-family="Helvetica,sans-Serif" font-size="10.00" fill="#000000">vector</text>
</g>
<!-- Node5&#45;&gt;Node24 -->
<g id="edge44" class="edge">
<title>Node5&#45;&gt;Node24</title>
<path fill="none" stroke="#191970" d="M529.1312,-228.9602C573.6169,-222.414 648.9825,-209.2413 711,-188 730.1808,-181.4305 732.5607,-173.7597 752,-168 874.7248,-131.638 914.9196,-158.8643 1043.9327,-131.8544"/>
<polygon fill="#191970" stroke="#191970" points="1044.7538,-135.2578 1053.7879,-129.7229 1043.274,-128.416 1044.7538,-135.2578"/>
</g>
<!-- Node25 -->
<g id="node26" class="node">
<title>Node25</title>
<polygon fill="#ffffff" stroke="#bfbfbf" points="761.5,-168.5 761.5,-187.5 806.5,-187.5 806.5,-168.5 761.5,-168.5"/>
<text text-anchor="middle" x="784" y="-175.5" font-family="Helvetica,sans-Serif" font-size="10.00" fill="#000000">climits</text>
</g>
<!-- Node5&#45;&gt;Node25 -->
<g id="edge38" class="edge">
<title>Node5&#45;&gt;Node25</title>
<path fill="none" stroke="#191970" d="M529.3736,-228.1631C579.6221,-220.2785 670.337,-205.2139 747,-188 748.4608,-187.672 749.9506,-187.3244 751.4531,-186.9632"/>
<polygon fill="#191970" stroke="#191970" points="752.5463,-190.2968 761.3786,-184.4452 750.825,-183.5117 752.5463,-190.2968"/>
</g>
<!-- Node26 -->
<g id="node27" class="node">
<title>Node26</title>
<polygon fill="#ffffff" stroke="#bfbfbf" points="886.5,-168.5 886.5,-187.5 945.5,-187.5 945.5,-168.5 886.5,-168.5"/>
<text text-anchor="middle" x="916" y="-175.5" font-family="Helvetica,sans-Serif" font-size="10.00" fill="#000000">stdexcept</text>
</g>
<!-- Node5&#45;&gt;Node26 -->
<g id="edge40" class="edge">
<title>Node5&#45;&gt;Node26</title>
<path fill="none" stroke="#191970" d="M529.0899,-228.9811C609.1329,-218.4343 794.1381,-194.0571 875.9028,-183.2834"/>
<polygon fill="#191970" stroke="#191970" points="876.8158,-186.6934 886.2729,-181.917 875.9013,-179.7534 876.8158,-186.6934"/>
</g>
<!-- Node6&#45;&gt;Node3 -->
<g id="edge8" class="edge">
<title>Node6&#45;&gt;Node3</title>
<path fill="none" stroke="#191970" d="M265.5828,-168.4184C227.6054,-154.872 165.8262,-126.023 142,-76 123.3213,-36.7843 189.797,-20.2997 233.2257,-13.8232"/>
<polygon fill="#191970" stroke="#191970" points="233.7423,-17.2852 243.1705,-12.452 232.7861,-10.3508 233.7423,-17.2852"/>
</g>
<!-- Node6&#45;&gt;Node7 -->
<g id="edge9" class="edge">
<title>Node6&#45;&gt;Node7</title>
<path fill="none" stroke="#191970" d="M281.4934,-168.3429C268.0325,-159.6218 248.3477,-146.0369 233,-132 216.687,-117.0803 200.4394,-97.7087 189.4897,-83.8174"/>
<polygon fill="#191970" stroke="#191970" points="192.002,-81.3453 183.1117,-75.5822 186.4677,-85.6315 192.002,-81.3453"/>
</g>
<!-- Node8 -->
<g id="node9" class="node">
<title>Node8</title>
<g id="a_node9"><a xlink:href="endian_8h.html" target="_top" xlink:title="compat/endian.h">
<polygon fill="#ffffff" stroke="#000000" points="242.5,-112.5 242.5,-131.5 331.5,-131.5 331.5,-112.5 242.5,-112.5"/>
<text text-anchor="middle" x="287" y="-119.5" font-family="Helvetica,sans-Serif" font-size="10.00" fill="#000000">compat/endian.h</text>
</a>
</g>
</g>
<!-- Node6&#45;&gt;Node8 -->
<g id="edge10" class="edge">
<title>Node6&#45;&gt;Node8</title>
<path fill="none" stroke="#191970" d="M295.2581,-168.2455C293.9533,-160.9382 292.124,-150.6944 290.5187,-141.7046"/>
<polygon fill="#191970" stroke="#191970" points="293.9254,-140.8717 288.7219,-131.6427 287.0344,-142.1022 293.9254,-140.8717"/>
</g>
<!-- Node8&#45;&gt;Node3 -->
<g id="edge13" class="edge">
<title>Node8&#45;&gt;Node3</title>
<path fill="none" stroke="#191970" d="M275.26,-112.4549C265.869,-104.0029 253.4091,-90.7442 248,-76 242.1599,-60.0809 248.9027,-41.5757 256.0934,-28.218"/>
<polygon fill="#191970" stroke="#191970" points="259.1636,-29.9022 261.2351,-19.5118 253.1362,-26.3425 259.1636,-29.9022"/>
</g>
<!-- Node9 -->
<g id="node10" class="node">
<title>Node9</title>
<g id="a_node10"><a xlink:href="byteswap_8h.html" target="_top" xlink:title="compat/byteswap.h">
<polygon fill="#ffffff" stroke="#000000" points="257,-56.5 257,-75.5 359,-75.5 359,-56.5 257,-56.5"/>
<text text-anchor="middle" x="308" y="-63.5" font-family="Helvetica,sans-Serif" font-size="10.00" fill="#000000">compat/byteswap.h</text>
</a>
</g>
</g>
<!-- Node8&#45;&gt;Node9 -->
<g id="edge11" class="edge">
<title>Node8&#45;&gt;Node9</title>
<path fill="none" stroke="#191970" d="M290.6579,-112.2455C293.4584,-104.7776 297.409,-94.2427 300.8324,-85.1137"/>
<polygon fill="#191970" stroke="#191970" points="304.1499,-86.2349 304.384,-75.6427 297.5955,-83.777 304.1499,-86.2349"/>
</g>
<!-- Node9&#45;&gt;Node3 -->
<g id="edge12" class="edge">
<title>Node9&#45;&gt;Node3</title>
<path fill="none" stroke="#191970" d="M301.0325,-56.2455C295.4689,-48.4564 287.522,-37.3308 280.8171,-27.9439"/>
<polygon fill="#191970" stroke="#191970" points="283.5481,-25.7457 274.8876,-19.6427 277.852,-29.8144 283.5481,-25.7457"/>
</g>
<!-- Node10&#45;&gt;Node3 -->
<g id="edge17" class="edge">
<title>Node10&#45;&gt;Node3</title>
<path fill="none" stroke="#191970" d="M382.5117,-112.3576C382.7378,-98.4079 381.1644,-72.469 368,-56 351.755,-35.677 324.5048,-23.96 302.5501,-17.4433"/>
<polygon fill="#191970" stroke="#191970" points="303.463,-14.0646 292.8939,-14.8029 301.6166,-20.8167 303.463,-14.0646"/>
</g>
<!-- Node10&#45;&gt;Node7 -->
<g id="edge18" class="edge">
<title>Node10&#45;&gt;Node7</title>
<path fill="none" stroke="#191970" d="M349.3587,-113.1266C311.4504,-102.8215 249.1861,-85.8952 210.5017,-75.3791"/>
<polygon fill="#191970" stroke="#191970" points="211.298,-71.9686 200.73,-72.7227 209.4617,-78.7235 211.298,-71.9686"/>
</g>
<!-- Node10&#45;&gt;Node11 -->
<g id="edge15" class="edge">
<title>Node10&#45;&gt;Node11</title>
<path fill="none" stroke="#191970" d="M414.5973,-114.97C419.423,-113.9567 424.3386,-112.9397 429,-112 509.7132,-95.7285 533.0889,-95.7407 616.7459,-76.1459"/>
<polygon fill="#191970" stroke="#191970" points="617.7689,-79.5005 626.6936,-73.7909 616.1562,-72.6888 617.7689,-79.5005"/>
</g>
<!-- Node12 -->
<g id="node13" class="node">
<title>Node12</title>
<polygon fill="#ffffff" stroke="#bfbfbf" points="415,-56.5 415,-75.5 463,-75.5 463,-56.5 415,-56.5"/>
<text text-anchor="middle" x="439" y="-63.5" font-family="Helvetica,sans-Serif" font-size="10.00" fill="#000000">stdlib.h</text>
</g>
<!-- Node10&#45;&gt;Node12 -->
<g id="edge16" class="edge">
<title>Node10&#45;&gt;Node12</title>
<path fill="none" stroke="#191970" d="M391.9286,-112.2455C400.1838,-104.1352 412.1209,-92.4075 421.9082,-82.7919"/>
<polygon fill="#191970" stroke="#191970" points="424.5046,-85.1476 429.1851,-75.6427 419.5989,-80.1542 424.5046,-85.1476"/>
</g>
<!-- Node13 -->
<g id="node14" class="node">
<title>Node13</title>
<polygon fill="#ffffff" stroke="#bfbfbf" points="481.5,-56.5 481.5,-75.5 528.5,-75.5 528.5,-56.5 481.5,-56.5"/>
<text text-anchor="middle" x="505" y="-63.5" font-family="Helvetica,sans-Serif" font-size="10.00" fill="#000000">iterator</text>
</g>
<!-- Node10&#45;&gt;Node13 -->
<g id="edge19" class="edge">
<title>Node10&#45;&gt;Node13</title>
<path fill="none" stroke="#191970" d="M403.1445,-112.3733C422.8892,-103.3838 452.5698,-89.8706 474.8055,-79.7471"/>
<polygon fill="#191970" stroke="#191970" points="476.4806,-82.8302 484.1315,-75.5011 473.58,-76.4594 476.4806,-82.8302"/>
</g>
<!-- Node14 -->
<g id="node15" class="node">
<title>Node14</title>
<polygon fill="#ffffff" stroke="#bfbfbf" points="547,-56.5 547,-75.5 609,-75.5 609,-56.5 547,-56.5"/>
<text text-anchor="middle" x="578" y="-63.5" font-family="Helvetica,sans-Serif" font-size="10.00" fill="#000000">type_traits</text>
</g>
<!-- Node10&#45;&gt;Node14 -->
<g id="edge20" class="edge">
<title>Node10&#45;&gt;Node14</title>
<path fill="none" stroke="#191970" d="M414.806,-112.6269C448.3753,-103.0356 500.6226,-88.1078 536.9221,-77.7366"/>
<polygon fill="#191970" stroke="#191970" points="538.055,-81.053 546.7087,-74.9404 536.1319,-74.3223 538.055,-81.053"/>
</g>
<!-- Node15&#45;&gt;Node3 -->
<g id="edge30" class="edge">
<title>Node15&#45;&gt;Node3</title>
<path fill="none" stroke="#191970" d="M632.8746,-168.3629C629.0996,-154.8714 624.3716,-129.9907 634,-112 647.6105,-86.5686 674.3895,-101.4314 688,-76 692.1943,-68.1629 693.9334,-62.6187 688,-56 662.4267,-27.4729 398.8745,-14.8711 302.798,-11.2007"/>
<polygon fill="#191970" stroke="#191970" points="302.8439,-7.7001 292.7204,-10.8252 302.5831,-14.6952 302.8439,-7.7001"/>
</g>
<!-- Node15&#45;&gt;Node7 -->
<g id="edge32" class="edge">
<title>Node15&#45;&gt;Node7</title>
<path fill="none" stroke="#191970" d="M623.2234,-168.4996C602.6561,-153.7404 560.4094,-125.5906 520,-112 404.4186,-73.1275 368.8369,-92.3878 248,-76 235.813,-74.3472 222.4708,-72.5036 210.6189,-70.854"/>
<polygon fill="#191970" stroke="#191970" points="211.0415,-67.3792 200.6538,-69.464 210.0743,-74.312 211.0415,-67.3792"/>
</g>
<!-- Node15&#45;&gt;Node8 -->
<g id="edge22" class="edge">
<title>Node15&#45;&gt;Node8</title>
<path fill="none" stroke="#191970" d="M605.2661,-173.5581C553.1151,-165.9485 443.7289,-149.6758 341.3934,-132.2015"/>
<polygon fill="#191970" stroke="#191970" points="341.962,-128.7479 331.5142,-130.5069 340.7785,-135.6472 341.962,-128.7479"/>
</g>
<!-- Node15&#45;&gt;Node10 -->
<g id="edge35" class="edge">
<title>Node15&#45;&gt;Node10</title>
<path fill="none" stroke="#191970" d="M605.3617,-171.2451C560.3055,-161.3115 475.9951,-142.7233 424.8326,-131.4434"/>
<polygon fill="#191970" stroke="#191970" points="425.273,-127.9565 414.7539,-129.2213 423.7658,-134.7924 425.273,-127.9565"/>
</g>
<!-- Node15&#45;&gt;Node11 -->
<g id="edge24" class="edge">
<title>Node15&#45;&gt;Node11</title>
<path fill="none" stroke="#191970" d="M624.6743,-168.3565C611.2308,-155.6718 591.7305,-132.5759 601,-112 606.5697,-99.6369 617.2863,-89.2563 627.5506,-81.5033"/>
<polygon fill="#191970" stroke="#191970" points="629.7618,-84.2277 635.9433,-75.623 625.7451,-78.4948 629.7618,-84.2277"/>
</g>
<!-- Node16 -->
<g id="node17" class="node">
<title>Node16</title>
<polygon fill="#ffffff" stroke="#bfbfbf" points="920,-112.5 920,-131.5 976,-131.5 976,-112.5 920,-112.5"/>
<text text-anchor="middle" x="948" y="-119.5" font-family="Helvetica,sans-Serif" font-size="10.00" fill="#000000">algorithm</text>
</g>
<!-- Node15&#45;&gt;Node16 -->
<g id="edge23" class="edge">
<title>Node15&#45;&gt;Node16</title>
<path fill="none" stroke="#191970" d="M666.932,-170.8557C671.635,-169.848 676.4391,-168.8628 681,-168 779.4867,-149.3688 808.0292,-153.2553 909.7208,-132.09"/>
<polygon fill="#191970" stroke="#191970" points="910.7344,-135.4532 919.7951,-129.9619 909.2876,-128.6043 910.7344,-135.4532"/>
</g>
<!-- Node17 -->
<g id="node18" class="node">
<title>Node17</title>
<polygon fill="#ffffff" stroke="#bfbfbf" points="643.5,-112.5 643.5,-131.5 672.5,-131.5 672.5,-112.5 643.5,-112.5"/>
<text text-anchor="middle" x="658" y="-119.5" font-family="Helvetica,sans-Serif" font-size="10.00" fill="#000000">ios</text>
</g>
<!-- Node15&#45;&gt;Node17 -->
<g id="edge25" class="edge">
<title>Node15&#45;&gt;Node17</title>
<path fill="none" stroke="#191970" d="M639.8321,-168.2455C642.7659,-160.7776 646.9047,-150.2427 650.491,-141.1137"/>
<polygon fill="#191970" stroke="#191970" points="653.8129,-142.23 654.2118,-131.6427 647.2976,-139.6704 653.8129,-142.23"/>
</g>
<!-- Node15&#45;&gt;Node18 -->
<g id="edge26" class="edge">
<title>Node15&#45;&gt;Node18</title>
<path fill="none" stroke="#191970" d="M611.0736,-168.3733C586.0874,-158.7234 547.604,-143.8608 520.9685,-133.5741"/>
<polygon fill="#191970" stroke="#191970" points="521.9827,-130.2138 511.3932,-129.876 519.4607,-136.7437 521.9827,-130.2138"/>
</g>
<!-- Node19 -->
<g id="node20" class="node">
<title>Node19</title>
<polygon fill="#ffffff" stroke="#bfbfbf" points="690.5,-112.5 690.5,-131.5 725.5,-131.5 725.5,-112.5 690.5,-112.5"/>
<text text-anchor="middle" x="708" y="-119.5" font-family="Helvetica,sans-Serif" font-size="10.00" fill="#000000">map</text>
</g>
<!-- Node15&#45;&gt;Node19 -->
<g id="edge27" class="edge">
<title>Node15&#45;&gt;Node19</title>
<path fill="none" stroke="#191970" d="M648.5414,-168.2455C659.2787,-159.8943 674.9473,-147.7076 687.5047,-137.9408"/>
<polygon fill="#191970" stroke="#191970" points="689.8575,-140.5449 695.6023,-131.6427 685.5599,-135.0194 689.8575,-140.5449"/>
</g>
<!-- Node20 -->
<g id="node21" class="node">
<title>Node20</title>
<polygon fill="#ffffff" stroke="#bfbfbf" points="744,-112.5 744,-131.5 796,-131.5 796,-112.5 744,-112.5"/>
<text text-anchor="middle" x="770" y="-119.5" font-family="Helvetica,sans-Serif" font-size="10.00" fill="#000000">memory</text>
</g>
<!-- Node15&#45;&gt;Node20 -->
<g id="edge28" class="edge">
<title>Node15&#45;&gt;Node20</title>
<path fill="none" stroke="#191970" d="M659.0354,-168.3733C680.7388,-159.3032 713.4618,-145.6279 737.755,-135.4755"/>
<polygon fill="#191970" stroke="#191970" points="739.3881,-138.5865 747.2652,-131.5011 736.6889,-132.1278 739.3881,-138.5865"/>
</g>
<!-- Node21 -->
<g id="node22" class="node">
<title>Node21</title>
<polygon fill="#ffffff" stroke="#bfbfbf" points="814,-112.5 814,-131.5 844,-131.5 844,-112.5 814,-112.5"/>
<text text-anchor="middle" x="829" y="-119.5" font-family="Helvetica,sans-Serif" font-size="10.00" fill="#000000">set</text>
</g>
<!-- Node15&#45;&gt;Node21 -->
<g id="edge29" class="edge">
<title>Node15&#45;&gt;Node21</title>
<path fill="none" stroke="#191970" d="M666.5806,-170.9371C698.7765,-163.2272 751.046,-149.9364 804.2827,-131.9399"/>
<polygon fill="#191970" stroke="#191970" points="805.5554,-135.2036 813.8782,-128.6476 803.2836,-128.5825 805.5554,-135.2036"/>
</g>
<!-- Node15&#45;&gt;Node22 -->
<g id="edge31" class="edge">
<title>Node15&#45;&gt;Node22</title>
<path fill="none" stroke="#191970" d="M666.9045,-170.7025C671.6113,-169.7158 676.4238,-168.7774 681,-168 811.9898,-145.7479 850.4268,-160.9166 984.6656,-131.633"/>
<polygon fill="#191970" stroke="#191970" points="985.497,-135.0337 994.499,-129.4467 983.9777,-128.2006 985.497,-135.0337"/>
</g>
<!-- Node23 -->
<g id="node24" class="node">
<title>Node23</title>
<polygon fill="#ffffff" stroke="#bfbfbf" points="862,-112.5 862,-131.5 902,-131.5 902,-112.5 862,-112.5"/>
<text text-anchor="middle" x="882" y="-119.5" font-family="Helvetica,sans-Serif" font-size="10.00" fill="#000000">utility</text>
</g>
<!-- Node15&#45;&gt;Node23 -->
<g id="edge33" class="edge">
<title>Node15&#45;&gt;Node23</title>
<path fill="none" stroke="#191970" d="M666.9742,-171.0642C671.6714,-170.0276 676.4626,-168.979 681,-168 754.2129,-152.204 775.9469,-152.699 851.7843,-132.0852"/>
<polygon fill="#191970" stroke="#191970" points="853.1083,-135.3509 861.8202,-129.3215 851.2498,-128.6022 853.1083,-135.3509"/>
</g>
<!-- Node15&#45;&gt;Node24 -->
<g id="edge34" class="edge">
<title>Node15&#45;&gt;Node24</title>
<path fill="none" stroke="#191970" d="M666.7365,-174.2231C682.3795,-172.3197 701.6982,-169.9975 719,-168 860.5552,-151.6571 900.6736,-162.0403 1043.7662,-131.8991"/>
<polygon fill="#191970" stroke="#191970" points="1044.7472,-135.2686 1053.7952,-129.7565 1043.2847,-128.4231 1044.7472,-135.2686"/>
</g>
<!-- Node27&#45;&gt;Node3 -->
<g id="edge50" class="edge">
<title>Node27&#45;&gt;Node3</title>
<path fill="none" stroke="#191970" d="M999.8896,-224.3696C1048.9515,-204.747 1147.121,-158.0816 1107,-112 1053.1907,-50.1965 454.4327,-18.5859 302.7567,-11.5352"/>
<polygon fill="#191970" stroke="#191970" points="302.7724,-8.0323 292.6223,-11.0699 302.4513,-15.0249 302.7724,-8.0323"/>
</g>
<!-- Node27&#45;&gt;Node6 -->
<g id="edge53" class="edge">
<title>Node27&#45;&gt;Node6</title>
<path fill="none" stroke="#191970" d="M945.8265,-228.2847C937.2428,-226.7037 927.7607,-225.1172 919,-224 711.4111,-197.5279 462.7553,-184.8085 353.3523,-180.1642"/>
<polygon fill="#191970" stroke="#191970" points="353.3432,-176.6609 343.2057,-179.7398 353.0506,-183.6547 353.3432,-176.6609"/>
</g>
<!-- Node27&#45;&gt;Node11 -->
<g id="edge47" class="edge">
<title>Node27&#45;&gt;Node11</title>
<path fill="none" stroke="#191970" d="M999.6556,-224.3937C1048.8489,-204.63 1148.0738,-157.4458 1107,-112 1079.135,-81.169 791.956,-69.9756 689.2638,-66.9407"/>
<polygon fill="#191970" stroke="#191970" points="689.1702,-63.4366 679.074,-66.6486 688.9696,-70.4338 689.1702,-63.4366"/>
</g>
<!-- Node27&#45;&gt;Node22 -->
<g id="edge51" class="edge">
<title>Node27&#45;&gt;Node22</title>
<path fill="none" stroke="#191970" d="M977.5621,-224.1542C982.2347,-211.2506 990.6979,-187.9185 998,-168 1001.2556,-159.1194 1004.8871,-149.2837 1007.9551,-140.9942"/>
<polygon fill="#191970" stroke="#191970" points="1011.2769,-142.1025 1011.4692,-131.5094 1004.7129,-139.6705 1011.2769,-142.1025"/>
</g>
<!-- Node27&#45;&gt;Node24 -->
<g id="edge52" class="edge">
<title>Node27&#45;&gt;Node24</title>
<path fill="none" stroke="#191970" d="M982.6965,-224.4509C999.9347,-205.5227 1038.6479,-163.014 1060.4014,-139.1279"/>
<polygon fill="#191970" stroke="#191970" points="1063.1799,-141.275 1067.3255,-131.5249 1058.0045,-136.5617 1063.1799,-141.275"/>
</g>
<!-- Node27&#45;&gt;Node26 -->
<g id="edge49" class="edge">
<title>Node27&#45;&gt;Node26</title>
<path fill="none" stroke="#191970" d="M963.8972,-224.2455C955.4972,-216.1352 943.3506,-204.4075 933.3916,-194.7919"/>
<polygon fill="#191970" stroke="#191970" points="935.6122,-192.0707 925.9871,-187.6427 930.75,-197.1066 935.6122,-192.0707"/>
</g>
<!-- Node28 -->
<g id="node29" class="node">
<title>Node28</title>
<polygon fill="#ffffff" stroke="#bfbfbf" points="1116,-168.5 1116,-187.5 1162,-187.5 1162,-168.5 1116,-168.5"/>
<text text-anchor="middle" x="1139" y="-175.5" font-family="Helvetica,sans-Serif" font-size="10.00" fill="#000000">cstring</text>
</g>
<!-- Node27&#45;&gt;Node28 -->
<g id="edge48" class="edge">
<title>Node27&#45;&gt;Node28</title>
<path fill="none" stroke="#191970" d="M1002.3645,-224.3733C1031.1728,-214.5959 1075.7487,-199.4671 1106.0924,-189.1686"/>
<polygon fill="#191970" stroke="#191970" points="1107.4493,-192.4043 1115.7939,-185.876 1105.1996,-185.7756 1107.4493,-192.4043"/>
</g>
<!-- Node30&#45;&gt;Node16 -->
<g id="edge58" class="edge">
<title>Node30&#45;&gt;Node16</title>
<path fill="none" stroke="#191970" d="M1212.1797,-224.1207C1205.9359,-209.377 1192.0878,-181.8698 1171,-168 1103.262,-123.4476 1069.5758,-148.9289 986.1057,-132.008"/>
<polygon fill="#191970" stroke="#191970" points="986.7443,-128.5651 976.2284,-129.8563 985.2542,-135.4047 986.7443,-128.5651"/>
</g>
<!-- Node30&#45;&gt;Node26 -->
<g id="edge62" class="edge">
<title>Node30&#45;&gt;Node26</title>
<path fill="none" stroke="#191970" d="M1181.8783,-227.6306C1125.9564,-217.1919 1015.0939,-196.4975 955.7248,-185.4153"/>
<polygon fill="#191970" stroke="#191970" points="956.0834,-181.9218 945.6109,-183.5274 954.7989,-188.803 956.0834,-181.9218"/>
</g>
<!-- Node31 -->
<g id="node32" class="node">
<title>Node31</title>
<polygon fill="#ffffff" stroke="#bfbfbf" points="1218.5,-168.5 1218.5,-187.5 1267.5,-187.5 1267.5,-168.5 1218.5,-168.5"/>
<text text-anchor="middle" x="1243" y="-175.5" font-family="Helvetica,sans-Serif" font-size="10.00" fill="#000000">cassert</text>
</g>
<!-- Node30&#45;&gt;Node31 -->
<g id="edge59" class="edge">
<title>Node30&#45;&gt;Node31</title>
<path fill="none" stroke="#191970" d="M1220.703,-224.2455C1224.3424,-216.6973 1229.4924,-206.0158 1233.9262,-196.8197"/>
<polygon fill="#191970" stroke="#191970" points="1237.1605,-198.1704 1238.3509,-187.6427 1230.8551,-195.1303 1237.1605,-198.1704"/>
</g>
<!-- Node32 -->
<g id="node33" class="node">
<title>Node32</title>
<polygon fill="#ffffff" stroke="#bfbfbf" points="1286,-168.5 1286,-187.5 1340,-187.5 1340,-168.5 1286,-168.5"/>
<text text-anchor="middle" x="1313" y="-175.5" font-family="Helvetica,sans-Serif" font-size="10.00" fill="#000000">iostream</text>
</g>
<!-- Node30&#45;&gt;Node32 -->
<g id="edge60" class="edge">
<title>Node30&#45;&gt;Node32</title>
<path fill="none" stroke="#191970" d="M1232.8961,-224.2455C1247.918,-215.5731 1270.1043,-202.7645 1287.321,-192.825"/>
<polygon fill="#191970" stroke="#191970" points="1289.3871,-195.6737 1296.2975,-187.6427 1285.8872,-189.6114 1289.3871,-195.6737"/>
</g>
<!-- Node33 -->
<g id="node34" class="node">
<title>Node33</title>
<polygon fill="#ffffff" stroke="#bfbfbf" points="1358,-168.5 1358,-187.5 1410,-187.5 1410,-168.5 1358,-168.5"/>
<text text-anchor="middle" x="1384" y="-175.5" font-family="Helvetica,sans-Serif" font-size="10.00" fill="#000000">sstream</text>
</g>
<!-- Node30&#45;&gt;Node33 -->
<g id="edge61" class="edge">
<title>Node30&#45;&gt;Node33</title>
<path fill="none" stroke="#191970" d="M1244.8802,-224.3733C1273.578,-214.8073 1317.6431,-200.119 1348.4696,-189.8435"/>
<polygon fill="#191970" stroke="#191970" points="1349.5967,-193.1572 1357.9767,-186.6744 1347.3831,-186.5164 1349.5967,-193.1572"/>
</g>
<!-- Node34&#45;&gt;Node3 -->
<g id="edge64" class="edge">
<title>Node34&#45;&gt;Node3</title>
<path fill="none" stroke="#191970" d="M1455.2146,-168.4193C1404.3582,-144.3251 1264.3337,-81.3302 1140,-56 975.6789,-22.5233 444.1193,-12.553 302.7825,-10.4624"/>
<polygon fill="#191970" stroke="#191970" points="302.5936,-6.9594 292.5441,-10.3148 302.4926,-13.9587 302.5936,-6.9594"/>
</g>
<!-- Node34&#45;&gt;Node22 -->
<g id="edge65" class="edge">
<title>Node34&#45;&gt;Node22</title>
<path fill="none" stroke="#191970" d="M1428.2937,-169.3687C1425.1529,-168.8781 1422.0332,-168.4161 1419,-168 1256.7903,-145.7471 1210.173,-165.8079 1045.7806,-131.7096"/>
<polygon fill="#191970" stroke="#191970" points="1046.3215,-128.2467 1035.8143,-129.6066 1044.8762,-135.0959 1046.3215,-128.2467"/>
</g>
<!-- Node34&#45;&gt;Node24 -->
<g id="edge66" class="edge">
<title>Node34&#45;&gt;Node24</title>
<path fill="none" stroke="#191970" d="M1428.2745,-169.4998C1425.1383,-168.9775 1422.0249,-168.4727 1419,-168 1305.0419,-150.1923 1169.113,-133.2246 1108.2487,-125.8511"/>
<polygon fill="#191970" stroke="#191970" points="1108.4658,-122.352 1098.1184,-124.6286 1107.6271,-129.3016 1108.4658,-122.352"/>
</g>
</g>
</svg>
