<?xml version="1.0" encoding="UTF-8" standalone="no"?>
<!DOCTYPE svg PUBLIC "-//W3C//DTD SVG 1.1//EN"
 "http://www.w3.org/Graphics/SVG/1.1/DTD/svg11.dtd">
<!-- Generated by graphviz version 2.40.1 (20161225.0304)
 -->
<!-- Title: AssetControlDialog::lockCoin Pages: 1 -->
<svg width="645pt" height="154pt"
 viewBox="0.00 0.00 645.00 153.50" xmlns="http://www.w3.org/2000/svg" xmlns:xlink="http://www.w3.org/1999/xlink">
<g id="graph0" class="graph" transform="scale(1 1) rotate(0) translate(4 149.5)">
<title>AssetControlDialog::lockCoin</title>
<polygon fill="#ffffff" stroke="transparent" points="-4,4 -4,-149.5 641,-149.5 641,4 -4,4"/>
<!-- Node374 -->
<g id="node1" class="node">
<title>Node374</title>
<polygon fill="#bfbfbf" stroke="#000000" points="0,-63.5 0,-93.5 101,-93.5 101,-63.5 0,-63.5"/>
<text text-anchor="start" x="8" y="-81.5" font-family="Helvetica,sans-Serif" font-size="10.00" fill="#000000">AssetControlDialog</text>
<text text-anchor="middle" x="50.5" y="-70.5" font-family="Helvetica,sans-Serif" font-size="10.00" fill="#000000">::lockCoin</text>
</g>
<!-- Node375 -->
<g id="node2" class="node">
<title>Node375</title>
<g id="a_node2"><a xlink:href="uint256_8h.html#a52e679560cc1ebf68f878ed69e38f259" target="_top" xlink:title="uint256S">
<polygon fill="#ffffff" stroke="#000000" points="185,-126 185,-145 240,-145 240,-126 185,-126"/>
<text text-anchor="middle" x="212.5" y="-133" font-family="Helvetica,sans-Serif" font-size="10.00" fill="#000000">uint256S</text>
</a>
</g>
</g>
<!-- Node374&#45;&gt;Node375 -->
<g id="edge1" class="edge">
<title>Node374&#45;&gt;Node375</title>
<path fill="none" stroke="#191970" d="M81.2292,-93.5014C97.5376,-101.0767 118.0701,-110.0112 137,-116.5 149.1867,-120.6774 162.7644,-124.3779 175.0082,-127.3776"/>
<polygon fill="#191970" stroke="#191970" points="174.3816,-130.826 184.9193,-129.7276 175.9966,-124.0148 174.3816,-130.826"/>
</g>
<!-- Node377 -->
<g id="node4" class="node">
<title>Node377</title>
<g id="a_node4"><a xlink:href="class_wallet_model.html#a9bb6c954dc3cf27e25ced65375fa02f0" target="_top" xlink:title="WalletModel::lockCoin">
<polygon fill="#ffffff" stroke="#000000" points="155,-88 155,-107 270,-107 270,-88 155,-88"/>
<text text-anchor="middle" x="212.5" y="-95" font-family="Helvetica,sans-Serif" font-size="10.00" fill="#000000">WalletModel::lockCoin</text>
</a>
</g>
</g>
<!-- Node374&#45;&gt;Node377 -->
<g id="edge3" class="edge">
<title>Node374&#45;&gt;Node377</title>
<path fill="none" stroke="#191970" d="M101.3133,-84.4596C115.1103,-86.0777 130.2708,-87.8558 144.8393,-89.5645"/>
<polygon fill="#191970" stroke="#191970" points="144.4669,-93.0447 154.8065,-90.7335 145.2823,-86.0924 144.4669,-93.0447"/>
</g>
<!-- Node379 -->
<g id="node6" class="node">
<title>Node379</title>
<g id="a_node6"><a xlink:href="class_platform_style.html#a3f4ff8b7a2054cbd4283e67208523035" target="_top" xlink:title="Colorize an icon (given filename) with the icon color. ">
<polygon fill="#ffffff" stroke="#000000" points="137,-50 137,-69 288,-69 288,-50 137,-50"/>
<text text-anchor="middle" x="212.5" y="-57" font-family="Helvetica,sans-Serif" font-size="10.00" fill="#000000">PlatformStyle::SingleColorIcon</text>
</a>
</g>
</g>
<!-- Node374&#45;&gt;Node379 -->
<g id="edge5" class="edge">
<title>Node374&#45;&gt;Node379</title>
<path fill="none" stroke="#191970" d="M101.3133,-72.5404C109.45,-71.5861 118.0609,-70.5762 126.7449,-69.5577"/>
<polygon fill="#191970" stroke="#191970" points="127.4246,-73.0021 136.9488,-68.3609 126.6091,-66.0497 127.4246,-73.0021"/>
</g>
<!-- Node381 -->
<g id="node8" class="node">
<title>Node381</title>
<g id="a_node8"><a xlink:href="class_asset_control_dialog.html#ae58871f3528177a1b0a132abdff9ac9b" target="_top" xlink:title="AssetControlDialog\l::updateLabelLocked">
<polygon fill="#ffffff" stroke="#000000" points="159,-.5 159,-30.5 266,-30.5 266,-.5 159,-.5"/>
<text text-anchor="start" x="167" y="-18.5" font-family="Helvetica,sans-Serif" font-size="10.00" fill="#000000">AssetControlDialog</text>
<text text-anchor="middle" x="212.5" y="-7.5" font-family="Helvetica,sans-Serif" font-size="10.00" fill="#000000">::updateLabelLocked</text>
</a>
</g>
</g>
<!-- Node374&#45;&gt;Node381 -->
<g id="edge7" class="edge">
<title>Node374&#45;&gt;Node381</title>
<path fill="none" stroke="#191970" d="M83.0577,-63.3298C99.1432,-56.0581 118.9328,-47.4421 137,-40.5 142.8362,-38.2575 148.97,-36.0262 155.1134,-33.8722"/>
<polygon fill="#191970" stroke="#191970" points="156.4176,-37.1248 164.7339,-30.5605 154.1392,-30.506 156.4176,-37.1248"/>
</g>
<!-- Node376 -->
<g id="node3" class="node">
<title>Node376</title>
<g id="a_node3"><a xlink:href="classbase__blob.html#a5ec1f681a2830f4e180fe664c0eb4dd0" target="_top" xlink:title="base_blob::SetHex">
<polygon fill="#ffffff" stroke="#000000" points="347,-126 347,-145 447,-145 447,-126 347,-126"/>
<text text-anchor="middle" x="397" y="-133" font-family="Helvetica,sans-Serif" font-size="10.00" fill="#000000">base_blob::SetHex</text>
</a>
</g>
</g>
<!-- Node375&#45;&gt;Node376 -->
<g id="edge2" class="edge">
<title>Node375&#45;&gt;Node376</title>
<path fill="none" stroke="#191970" d="M240.1215,-135.5C265.52,-135.5 304.0536,-135.5 336.5738,-135.5"/>
<polygon fill="#191970" stroke="#191970" points="336.8968,-139.0001 346.8968,-135.5 336.8967,-132.0001 336.8968,-139.0001"/>
</g>
<!-- Node378 -->
<g id="node5" class="node">
<title>Node378</title>
<g id="a_node5"><a xlink:href="group___actions.html#gad8843dc88ae40c44b9ef301167b7fbf5" target="_top" xlink:title="CWallet::LockCoin">
<polygon fill="#ffffff" stroke="#000000" points="347.5,-88 347.5,-107 446.5,-107 446.5,-88 347.5,-88"/>
<text text-anchor="middle" x="397" y="-95" font-family="Helvetica,sans-Serif" font-size="10.00" fill="#000000">CWallet::LockCoin</text>
</a>
</g>
</g>
<!-- Node377&#45;&gt;Node378 -->
<g id="edge4" class="edge">
<title>Node377&#45;&gt;Node378</title>
<path fill="none" stroke="#191970" d="M270.118,-97.5C291.4766,-97.5 315.7326,-97.5 337.2748,-97.5"/>
<polygon fill="#191970" stroke="#191970" points="337.2834,-101.0001 347.2834,-97.5 337.2833,-94.0001 337.2834,-101.0001"/>
</g>
<!-- Node380 -->
<g id="node7" class="node">
<title>Node380</title>
<g id="a_node7"><a xlink:href="class_platform_style.html#a76949291f8dfc8b7a34f90cf119ed8e4" target="_top" xlink:title="PlatformStyle::SingleColor">
<polygon fill="#ffffff" stroke="#000000" points="331,-50 331,-69 463,-69 463,-50 331,-50"/>
<text text-anchor="middle" x="397" y="-57" font-family="Helvetica,sans-Serif" font-size="10.00" fill="#000000">PlatformStyle::SingleColor</text>
</a>
</g>
</g>
<!-- Node379&#45;&gt;Node380 -->
<g id="edge6" class="edge">
<title>Node379&#45;&gt;Node380</title>
<path fill="none" stroke="#191970" d="M288.0756,-59.5C298.8598,-59.5 309.9586,-59.5 320.7556,-59.5"/>
<polygon fill="#191970" stroke="#191970" points="320.9948,-63.0001 330.9948,-59.5 320.9947,-56.0001 320.9948,-63.0001"/>
</g>
<!-- Node382 -->
<g id="node9" class="node">
<title>Node382</title>
<g id="a_node9"><a xlink:href="class_wallet_model.html#a367977352d1ef183ec2cb6b508a85bc2" target="_top" xlink:title="WalletModel::listLockedCoins">
<polygon fill="#ffffff" stroke="#000000" points="324,-6 324,-25 470,-25 470,-6 324,-6"/>
<text text-anchor="middle" x="397" y="-13" font-family="Helvetica,sans-Serif" font-size="10.00" fill="#000000">WalletModel::listLockedCoins</text>
</a>
</g>
</g>
<!-- Node381&#45;&gt;Node382 -->
<g id="edge8" class="edge">
<title>Node381&#45;&gt;Node382</title>
<path fill="none" stroke="#191970" d="M266.361,-15.5C281.1064,-15.5 297.4444,-15.5 313.4315,-15.5"/>
<polygon fill="#191970" stroke="#191970" points="313.8665,-19.0001 323.8665,-15.5 313.8664,-12.0001 313.8665,-19.0001"/>
</g>
<!-- Node383 -->
<g id="node10" class="node">
<title>Node383</title>
<g id="a_node10"><a xlink:href="group___actions.html#gabac00de35ce680659ef9943a1a916531" target="_top" xlink:title="CWallet::ListLockedCoins">
<polygon fill="#ffffff" stroke="#000000" points="506,-6 506,-25 637,-25 637,-6 506,-6"/>
<text text-anchor="middle" x="571.5" y="-13" font-family="Helvetica,sans-Serif" font-size="10.00" fill="#000000">CWallet::ListLockedCoins</text>
</a>
</g>
</g>
<!-- Node382&#45;&gt;Node383 -->
<g id="edge9" class="edge">
<title>Node382&#45;&gt;Node383</title>
<path fill="none" stroke="#191970" d="M470.2452,-15.5C478.6664,-15.5 487.2663,-15.5 495.72,-15.5"/>
<polygon fill="#191970" stroke="#191970" points="495.9374,-19.0001 505.9374,-15.5 495.9373,-12.0001 495.9374,-19.0001"/>
</g>
</g>
</svg>
