<?xml version="1.0" encoding="UTF-8" standalone="no"?>
<!DOCTYPE svg PUBLIC "-//W3C//DTD SVG 1.1//EN"
 "http://www.w3.org/Graphics/SVG/1.1/DTD/svg11.dtd">
<!-- Generated by graphviz version 2.40.1 (20161225.0304)
 -->
<!-- Title: UnitDisplayStatusBarControl::createContextMenu Pages: 1 -->
<svg width="513pt" height="204pt"
 viewBox="0.00 0.00 513.00 203.50" xmlns="http://www.w3.org/2000/svg" xmlns:xlink="http://www.w3.org/1999/xlink">
<g id="graph0" class="graph" transform="scale(1 1) rotate(0) translate(4 199.5)">
<title>UnitDisplayStatusBarControl::createContextMenu</title>
<polygon fill="#ffffff" stroke="transparent" points="-4,4 -4,-199.5 509,-199.5 509,4 -4,4"/>
<!-- Node9 -->
<g id="node1" class="node">
<title>Node9</title>
<polygon fill="#bfbfbf" stroke="#000000" points="0,-88.5 0,-118.5 143,-118.5 143,-88.5 0,-88.5"/>
<text text-anchor="start" x="8" y="-106.5" font-family="Helvetica,sans-Serif" font-size="10.00" fill="#000000">UnitDisplayStatusBarControl</text>
<text text-anchor="middle" x="71.5" y="-95.5" font-family="Helvetica,sans-Serif" font-size="10.00" fill="#000000">::createContextMenu</text>
</g>
<!-- Node10 -->
<g id="node2" class="node">
<title>Node10</title>
<g id="a_node2"><a xlink:href="class_raven_units.html#a52174845724f666a3f26f4c6c7e907ad" target="_top" xlink:title="Get list of units, for drop&#45;down box. ">
<polygon fill="#ffffff" stroke="#000000" points="182.5,-176 182.5,-195 318.5,-195 318.5,-176 182.5,-176"/>
<text text-anchor="middle" x="250.5" y="-183" font-family="Helvetica,sans-Serif" font-size="10.00" fill="#000000">RavenUnits::availableUnits</text>
</a>
</g>
</g>
<!-- Node9&#45;&gt;Node10 -->
<g id="edge1" class="edge">
<title>Node9&#45;&gt;Node10</title>
<path fill="none" stroke="#191970" d="M93.2315,-118.6159C114.3219,-132.6989 147.6518,-153.4337 179,-166.5 184.8351,-168.9321 191.0694,-171.1314 197.3337,-173.0974"/>
<polygon fill="#191970" stroke="#191970" points="196.5675,-176.5204 207.1493,-175.9948 198.5493,-169.8068 196.5675,-176.5204"/>
</g>
<!-- Node11 -->
<g id="node3" class="node">
<title>Node11</title>
<g id="a_node3"><a xlink:href="class_raven_units.html#a357d3a6cb01154a8da132d435c7fd436" target="_top" xlink:title="Short name. ">
<polygon fill="#ffffff" stroke="#000000" points="201.5,-138 201.5,-157 299.5,-157 299.5,-138 201.5,-138"/>
<text text-anchor="middle" x="250.5" y="-145" font-family="Helvetica,sans-Serif" font-size="10.00" fill="#000000">RavenUnits::name</text>
</a>
</g>
</g>
<!-- Node9&#45;&gt;Node11 -->
<g id="edge2" class="edge">
<title>Node9&#45;&gt;Node11</title>
<path fill="none" stroke="#191970" d="M132.601,-118.5192C155.246,-124.0856 180.5969,-130.3171 201.9719,-135.5713"/>
<polygon fill="#191970" stroke="#191970" points="201.2553,-138.9993 211.8018,-137.9876 202.9263,-132.2016 201.2553,-138.9993"/>
</g>
<!-- Node12 -->
<g id="node4" class="node">
<title>Node12</title>
<g id="a_node4"><a xlink:href="class_platform_style.html#a7dc4348099a7576c8376a60a437401d0" target="_top" xlink:title="PlatformStyle::DarkOrange\lColor">
<polygon fill="#ffffff" stroke="#000000" points="183.5,-88.5 183.5,-118.5 317.5,-118.5 317.5,-88.5 183.5,-88.5"/>
<text text-anchor="start" x="191.5" y="-106.5" font-family="Helvetica,sans-Serif" font-size="10.00" fill="#000000">PlatformStyle::DarkOrange</text>
<text text-anchor="middle" x="250.5" y="-95.5" font-family="Helvetica,sans-Serif" font-size="10.00" fill="#000000">Color</text>
</a>
</g>
</g>
<!-- Node9&#45;&gt;Node12 -->
<g id="edge3" class="edge">
<title>Node9&#45;&gt;Node12</title>
<path fill="none" stroke="#191970" d="M143.0172,-103.5C153.023,-103.5 163.3416,-103.5 173.4444,-103.5"/>
<polygon fill="#191970" stroke="#191970" points="173.4557,-107.0001 183.4557,-103.5 173.4556,-100.0001 173.4557,-107.0001"/>
</g>
<!-- Node13 -->
<g id="node5" class="node">
<title>Node13</title>
<g id="a_node5"><a xlink:href="class_platform_style.html#ad9c6683d8af86105edcb53970b689afb" target="_top" xlink:title="PlatformStyle::TextColor">
<polygon fill="#ffffff" stroke="#000000" points="188,-50 188,-69 313,-69 313,-50 188,-50"/>
<text text-anchor="middle" x="250.5" y="-57" font-family="Helvetica,sans-Serif" font-size="10.00" fill="#000000">PlatformStyle::TextColor</text>
</a>
</g>
</g>
<!-- Node9&#45;&gt;Node13 -->
<g id="edge4" class="edge">
<title>Node9&#45;&gt;Node13</title>
<path fill="none" stroke="#191970" d="M132.601,-88.4808C155.246,-82.9144 180.5969,-76.6829 201.9719,-71.4287"/>
<polygon fill="#191970" stroke="#191970" points="202.9263,-74.7984 211.8018,-69.0124 201.2553,-68.0007 202.9263,-74.7984"/>
</g>
<!-- Node14 -->
<g id="node6" class="node">
<title>Node14</title>
<g id="a_node6"><a xlink:href="class_unit_display_status_bar_control.html#a8989bed2d30e0e376046356adc216a12" target="_top" xlink:title="Tells underlying optionsModel to update its current display unit. ">
<polygon fill="#ffffff" stroke="#000000" points="179,-.5 179,-30.5 322,-30.5 322,-.5 179,-.5"/>
<text text-anchor="start" x="187" y="-18.5" font-family="Helvetica,sans-Serif" font-size="10.00" fill="#000000">UnitDisplayStatusBarControl</text>
<text text-anchor="middle" x="250.5" y="-7.5" font-family="Helvetica,sans-Serif" font-size="10.00" fill="#000000">::onMenuSelection</text>
</a>
</g>
</g>
<!-- Node9&#45;&gt;Node14 -->
<g id="edge5" class="edge">
<title>Node9&#45;&gt;Node14</title>
<path fill="none" stroke="#191970" d="M94.2847,-88.3919C115.5786,-74.7021 148.568,-54.5759 179,-40.5 183.6547,-38.347 188.5507,-36.2698 193.5062,-34.2952"/>
<polygon fill="#191970" stroke="#191970" points="194.9776,-37.4796 203.0619,-30.6316 192.4717,-30.9435 194.9776,-37.4796"/>
</g>
<!-- Node15 -->
<g id="node7" class="node">
<title>Node15</title>
<g id="a_node7"><a xlink:href="class_options_model.html#a42efacc748130848acc20247a7ed4617" target="_top" xlink:title="Updates current unit in memory, settings and emits displayUnitChanged(newUnit) signal. ">
<polygon fill="#ffffff" stroke="#000000" points="358,-6 358,-25 505,-25 505,-6 358,-6"/>
<text text-anchor="middle" x="431.5" y="-13" font-family="Helvetica,sans-Serif" font-size="10.00" fill="#000000">OptionsModel::setDisplayUnit</text>
</a>
</g>
</g>
<!-- Node14&#45;&gt;Node15 -->
<g id="edge6" class="edge">
<title>Node14&#45;&gt;Node15</title>
<path fill="none" stroke="#191970" d="M322.036,-15.5C330.4877,-15.5 339.1703,-15.5 347.771,-15.5"/>
<polygon fill="#191970" stroke="#191970" points="347.8111,-19.0001 357.811,-15.5 347.811,-12.0001 347.8111,-19.0001"/>
</g>
</g>
</svg>
