<?xml version="1.0" encoding="UTF-8" standalone="no"?>
<!DOCTYPE svg PUBLIC "-//W3C//DTD SVG 1.1//EN"
 "http://www.w3.org/Graphics/SVG/1.1/DTD/svg11.dtd">
<!-- Generated by graphviz version 2.40.1 (20161225.0304)
 -->
<!-- Title: CWalletDB::VerifyEnvironment Pages: 1 -->
<svg width="609pt" height="180pt"
 viewBox="0.00 0.00 609.00 180.00" xmlns="http://www.w3.org/2000/svg" xmlns:xlink="http://www.w3.org/1999/xlink">
<g id="graph0" class="graph" transform="scale(1 1) rotate(0) translate(4 176)">
<title>CWalletDB::VerifyEnvironment</title>
<polygon fill="#ffffff" stroke="transparent" points="-4,4 -4,-176 605,-176 605,4 -4,4"/>
<!-- Node206 -->
<g id="node1" class="node">
<title>Node206</title>
<polygon fill="#bfbfbf" stroke="#000000" points="0,-57.5 0,-76.5 152,-76.5 152,-57.5 0,-57.5"/>
<text text-anchor="middle" x="76" y="-64.5" font-family="Helvetica,sans-Serif" font-size="10.00" fill="#000000">CWalletDB::VerifyEnvironment</text>
</g>
<!-- Node207 -->
<g id="node2" class="node">
<title>Node207</title>
<g id="a_node2"><a xlink:href="class_c_d_b.html#aa5a0775b1bcb7fe902cb9776cd89252e" target="_top" xlink:title="CDB::VerifyEnvironment">
<polygon fill="#ffffff" stroke="#000000" points="188,-57.5 188,-76.5 313,-76.5 313,-57.5 188,-57.5"/>
<text text-anchor="middle" x="250.5" y="-64.5" font-family="Helvetica,sans-Serif" font-size="10.00" fill="#000000">CDB::VerifyEnvironment</text>
</a>
</g>
</g>
<!-- Node206&#45;&gt;Node207 -->
<g id="edge1" class="edge">
<title>Node206&#45;&gt;Node207</title>
<path fill="none" stroke="#191970" d="M152.0306,-67C160.519,-67 169.1515,-67 177.5994,-67"/>
<polygon fill="#191970" stroke="#191970" points="177.7904,-70.5001 187.7904,-67 177.7904,-63.5001 177.7904,-70.5001"/>
</g>
<!-- Node208 -->
<g id="node3" class="node">
<title>Node208</title>
<g id="a_node3"><a xlink:href="util_8h.html#aad133bb6103b53cebf03fd01e2f11ba1" target="_top" xlink:title="Translation function: Call Translate signal on UI interface, which returns a boost::optional result...">
<polygon fill="#ffffff" stroke="#000000" points="377,-114.5 377,-133.5 406,-133.5 406,-114.5 377,-114.5"/>
<text text-anchor="middle" x="391.5" y="-121.5" font-family="Helvetica,sans-Serif" font-size="10.00" fill="#000000">_</text>
</a>
</g>
</g>
<!-- Node207&#45;&gt;Node208 -->
<g id="edge2" class="edge">
<title>Node207&#45;&gt;Node208</title>
<path fill="none" stroke="#191970" d="M274.1002,-76.5405C299.9847,-87.0045 341.3062,-103.7089 367.3909,-114.2538"/>
<polygon fill="#191970" stroke="#191970" points="366.3185,-117.5954 376.9014,-118.0984 368.9421,-111.1056 366.3185,-117.5954"/>
</g>
<!-- Node211 -->
<g id="node6" class="node">
<title>Node211</title>
<g id="a_node6"><a xlink:href="class_c_d_b_env.html#a7bf81c4e6a41d70e042b22ec9932b9ca" target="_top" xlink:title="CDBEnv::Open">
<polygon fill="#ffffff" stroke="#000000" points="349,-76.5 349,-95.5 434,-95.5 434,-76.5 349,-76.5"/>
<text text-anchor="middle" x="391.5" y="-83.5" font-family="Helvetica,sans-Serif" font-size="10.00" fill="#000000">CDBEnv::Open</text>
</a>
</g>
</g>
<!-- Node207&#45;&gt;Node211 -->
<g id="edge5" class="edge">
<title>Node207&#45;&gt;Node211</title>
<path fill="none" stroke="#191970" d="M313.1658,-75.4443C321.7413,-76.5999 330.4733,-77.7765 338.8459,-78.9048"/>
<polygon fill="#191970" stroke="#191970" points="338.4678,-82.3854 348.8456,-80.2522 339.4026,-75.4481 338.4678,-82.3854"/>
</g>
<!-- Node214 -->
<g id="node9" class="node">
<title>Node214</title>
<g id="a_node9"><a xlink:href="utiltime_8cpp.html#a46fac5fba8ba905b5f9acb364f5d8c6f" target="_top" xlink:title="GetTimeMicros() and GetTimeMillis() both return the system time, but in different units...">
<polygon fill="#ffffff" stroke="#000000" points="364.5,-38.5 364.5,-57.5 418.5,-57.5 418.5,-38.5 364.5,-38.5"/>
<text text-anchor="middle" x="391.5" y="-45.5" font-family="Helvetica,sans-Serif" font-size="10.00" fill="#000000">GetTime</text>
</a>
</g>
</g>
<!-- Node207&#45;&gt;Node214 -->
<g id="edge8" class="edge">
<title>Node207&#45;&gt;Node214</title>
<path fill="none" stroke="#191970" d="M313.1658,-58.5557C327.1863,-56.6664 341.6252,-54.7207 354.2276,-53.0225"/>
<polygon fill="#191970" stroke="#191970" points="354.8891,-56.4651 364.332,-51.6609 353.9542,-49.5278 354.8891,-56.4651"/>
</g>
<!-- Node215 -->
<g id="node10" class="node">
<title>Node215</title>
<g id="a_node10"><a xlink:href="util_8cpp.html#a7ebe0bd091f7334aaead43904601e008" target="_top" xlink:title="GetDataDir">
<polygon fill="#ffffff" stroke="#000000" points="358.5,-.5 358.5,-19.5 424.5,-19.5 424.5,-.5 358.5,-.5"/>
<text text-anchor="middle" x="391.5" y="-7.5" font-family="Helvetica,sans-Serif" font-size="10.00" fill="#000000">GetDataDir</text>
</a>
</g>
</g>
<!-- Node207&#45;&gt;Node215 -->
<g id="edge9" class="edge">
<title>Node207&#45;&gt;Node215</title>
<path fill="none" stroke="#191970" d="M274.1002,-57.4595C297.1796,-48.1295 332.5313,-33.8384 358.4126,-23.3758"/>
<polygon fill="#191970" stroke="#191970" points="359.8635,-26.5645 367.8228,-19.5716 357.2399,-20.0747 359.8635,-26.5645"/>
</g>
<!-- Node209 -->
<g id="node4" class="node">
<title>Node209</title>
<g id="a_node4"><a xlink:href="util_8h.html#a9ed616020f4ef9b1a261b222bbec78e2" target="_top" xlink:title="SetupEnvironment">
<polygon fill="#ffffff" stroke="#000000" points="487,-152.5 487,-171.5 584,-171.5 584,-152.5 487,-152.5"/>
<text text-anchor="middle" x="535.5" y="-159.5" font-family="Helvetica,sans-Serif" font-size="10.00" fill="#000000">SetupEnvironment</text>
</a>
</g>
</g>
<!-- Node208&#45;&gt;Node209 -->
<g id="edge3" class="edge">
<title>Node208&#45;&gt;Node209</title>
<path fill="none" stroke="#191970" d="M406.0999,-127.8528C425.48,-132.967 460.6048,-142.236 489.3733,-149.8277"/>
<polygon fill="#191970" stroke="#191970" points="488.6856,-153.266 499.2477,-152.4334 490.4718,-146.4977 488.6856,-153.266"/>
</g>
<!-- Node210 -->
<g id="node5" class="node">
<title>Node210</title>
<g id="a_node5"><a xlink:href="util_8h.html#a66791919e137c59061e988d2d87ee9a1" target="_top" xlink:title="SetupNetworking">
<polygon fill="#ffffff" stroke="#000000" points="489.5,-114.5 489.5,-133.5 581.5,-133.5 581.5,-114.5 489.5,-114.5"/>
<text text-anchor="middle" x="535.5" y="-121.5" font-family="Helvetica,sans-Serif" font-size="10.00" fill="#000000">SetupNetworking</text>
</a>
</g>
</g>
<!-- Node208&#45;&gt;Node210 -->
<g id="edge4" class="edge">
<title>Node208&#45;&gt;Node210</title>
<path fill="none" stroke="#191970" d="M406.0999,-124C423.2062,-124 452.5794,-124 479.0205,-124"/>
<polygon fill="#191970" stroke="#191970" points="479.3596,-127.5001 489.3596,-124 479.3596,-120.5001 479.3596,-127.5001"/>
</g>
<!-- Node212 -->
<g id="node7" class="node">
<title>Node212</title>
<g id="a_node7"><a xlink:href="util_8cpp.html#a9042a919d837da9d97311a0c460c597c" target="_top" xlink:title="Ignores exceptions thrown by Boost&#39;s create_directories if the requested directory exists...">
<polygon fill="#ffffff" stroke="#000000" points="482,-76.5 482,-95.5 589,-95.5 589,-76.5 482,-76.5"/>
<text text-anchor="middle" x="535.5" y="-83.5" font-family="Helvetica,sans-Serif" font-size="10.00" fill="#000000">TryCreateDirectories</text>
</a>
</g>
</g>
<!-- Node211&#45;&gt;Node212 -->
<g id="edge6" class="edge">
<title>Node211&#45;&gt;Node212</title>
<path fill="none" stroke="#191970" d="M434.3149,-86C446.0899,-86 459.1186,-86 471.7993,-86"/>
<polygon fill="#191970" stroke="#191970" points="471.8638,-89.5001 481.8637,-86 471.8637,-82.5001 471.8638,-89.5001"/>
</g>
<!-- Node213 -->
<g id="node8" class="node">
<title>Node213</title>
<g id="a_node8"><a xlink:href="class_args_manager.html#af81c6e2a9dcd6b12557a2387fd67b2a6" target="_top" xlink:title="Return boolean argument or default value. ">
<polygon fill="#ffffff" stroke="#000000" points="470,-38.5 470,-57.5 601,-57.5 601,-38.5 470,-38.5"/>
<text text-anchor="middle" x="535.5" y="-45.5" font-family="Helvetica,sans-Serif" font-size="10.00" fill="#000000">ArgsManager::GetBoolArg</text>
</a>
</g>
</g>
<!-- Node211&#45;&gt;Node213 -->
<g id="edge7" class="edge">
<title>Node211&#45;&gt;Node213</title>
<path fill="none" stroke="#191970" d="M427.8373,-76.411C446.5829,-71.4642 469.6432,-65.3789 489.6066,-60.1108"/>
<polygon fill="#191970" stroke="#191970" points="490.6481,-63.4558 499.424,-57.5201 488.8619,-56.6875 490.6481,-63.4558"/>
</g>
</g>
</svg>
