<?xml version="1.0" encoding="UTF-8" standalone="no"?>
<!DOCTYPE svg PUBLIC "-//W3C//DTD SVG 1.1//EN"
 "http://www.w3.org/Graphics/SVG/1.1/DTD/svg11.dtd">
<!-- Generated by graphviz version 2.40.1 (20161225.0304)
 -->
<!-- Title: CKeyStore::AddCScript Pages: 1 -->
<svg width="751pt" height="104pt"
 viewBox="0.00 0.00 751.00 104.00" xmlns="http://www.w3.org/2000/svg" xmlns:xlink="http://www.w3.org/1999/xlink">
<g id="graph0" class="graph" transform="scale(1 1) rotate(0) translate(4 100)">
<title>CKeyStore::AddCScript</title>
<polygon fill="#ffffff" stroke="transparent" points="-4,4 -4,-100 747,-100 747,4 -4,4"/>
<!-- Node23 -->
<g id="node1" class="node">
<title>Node23</title>
<polygon fill="#bfbfbf" stroke="#000000" points="0,-57.5 0,-76.5 121,-76.5 121,-57.5 0,-57.5"/>
<text text-anchor="middle" x="60.5" y="-64.5" font-family="Helvetica,sans-Serif" font-size="10.00" fill="#000000">CKeyStore::AddCScript</text>
</g>
<!-- Node24 -->
<g id="node2" class="node">
<title>Node24</title>
<g id="a_node2"><a xlink:href="class_c_key_store.html#a9bfaef2bcd6effc467a96043f44044a0" target="_top" xlink:title="CKeyStore::~CKeyStore">
<polygon fill="#ffffff" stroke="#000000" points="158.5,-76.5 158.5,-95.5 283.5,-95.5 283.5,-76.5 158.5,-76.5"/>
<text text-anchor="middle" x="221" y="-83.5" font-family="Helvetica,sans-Serif" font-size="10.00" fill="#000000">CKeyStore::~CKeyStore</text>
</a>
</g>
</g>
<!-- Node23&#45;&gt;Node24 -->
<g id="edge1" class="edge">
<title>Node23&#45;&gt;Node24</title>
<path fill="none" stroke="#191970" d="M131.273,-75.3781C140.2971,-76.4464 149.4833,-77.5338 158.3666,-78.5854"/>
<polygon fill="#191970" stroke="#191970" points="131.5203,-71.883 121.1782,-74.1831 130.6973,-78.8345 131.5203,-71.883"/>
</g>
<!-- Node25 -->
<g id="node3" class="node">
<title>Node25</title>
<g id="a_node3"><a xlink:href="class_c_basic_key_store.html#a6374547f3c9f1afcaac52812e58375ef" target="_top" xlink:title="CBasicKeyStore::GetKey">
<polygon fill="#ffffff" stroke="#000000" points="157,-38.5 157,-57.5 285,-57.5 285,-38.5 157,-38.5"/>
<text text-anchor="middle" x="221" y="-45.5" font-family="Helvetica,sans-Serif" font-size="10.00" fill="#000000">CBasicKeyStore::GetKey</text>
</a>
</g>
</g>
<!-- Node23&#45;&gt;Node25 -->
<g id="edge2" class="edge">
<title>Node23&#45;&gt;Node25</title>
<path fill="none" stroke="#191970" d="M131.3835,-58.6088C139.828,-57.6091 148.4128,-56.5929 156.757,-55.6051"/>
<polygon fill="#191970" stroke="#191970" points="130.6973,-55.1655 121.1782,-59.8169 131.5203,-62.117 130.6973,-55.1655"/>
</g>
<!-- Node26 -->
<g id="node4" class="node">
<title>Node26</title>
<g id="a_node4"><a xlink:href="class_c_crypto_key_store.html#a01b3cbe18b296f2c51e6fe4137f24c4b" target="_top" xlink:title="CCryptoKeyStore::GetKey">
<polygon fill="#ffffff" stroke="#000000" points="321,-38.5 321,-57.5 454,-57.5 454,-38.5 321,-38.5"/>
<text text-anchor="middle" x="387.5" y="-45.5" font-family="Helvetica,sans-Serif" font-size="10.00" fill="#000000">CCryptoKeyStore::GetKey</text>
</a>
</g>
</g>
<!-- Node25&#45;&gt;Node26 -->
<g id="edge3" class="edge">
<title>Node25&#45;&gt;Node26</title>
<path fill="none" stroke="#191970" d="M295.5579,-48C303.9754,-48 312.5128,-48 320.8207,-48"/>
<polygon fill="#191970" stroke="#191970" points="295.3733,-44.5001 285.3732,-48 295.3732,-51.5001 295.3733,-44.5001"/>
</g>
<!-- Node27 -->
<g id="node5" class="node">
<title>Node27</title>
<g id="a_node5"><a xlink:href="class_wallet_model.html#a426cbfbcbbc4e9693998f0b4b6de3f53" target="_top" xlink:title="WalletModel::getPrivKey">
<polygon fill="#ffffff" stroke="#000000" points="490,-76.5 490,-95.5 615,-95.5 615,-76.5 490,-76.5"/>
<text text-anchor="middle" x="552.5" y="-83.5" font-family="Helvetica,sans-Serif" font-size="10.00" fill="#000000">WalletModel::getPrivKey</text>
</a>
</g>
</g>
<!-- Node26&#45;&gt;Node27 -->
<g id="edge4" class="edge">
<title>Node26&#45;&gt;Node27</title>
<path fill="none" stroke="#191970" d="M439.154,-59.8961C462.3465,-65.2374 489.3383,-71.4537 511.1629,-76.4799"/>
<polygon fill="#191970" stroke="#191970" points="439.6669,-56.4226 429.1365,-57.589 438.0959,-63.2441 439.6669,-56.4226"/>
</g>
<!-- Node28 -->
<g id="node6" class="node">
<title>Node28</title>
<g id="a_node6"><a xlink:href="rpcwallet_8cpp.html#ab3f51d8e8fe414dbf91c37485e481ae3" target="_top" xlink:title="dumpprivkey">
<polygon fill="#ffffff" stroke="#000000" points="516.5,-38.5 516.5,-57.5 588.5,-57.5 588.5,-38.5 516.5,-38.5"/>
<text text-anchor="middle" x="552.5" y="-45.5" font-family="Helvetica,sans-Serif" font-size="10.00" fill="#000000">dumpprivkey</text>
</a>
</g>
</g>
<!-- Node26&#45;&gt;Node28 -->
<g id="edge5" class="edge">
<title>Node26&#45;&gt;Node28</title>
<path fill="none" stroke="#191970" d="M464.1989,-48C482.423,-48 501.0265,-48 516.4287,-48"/>
<polygon fill="#191970" stroke="#191970" points="464.1362,-44.5001 454.1362,-48 464.1362,-51.5001 464.1362,-44.5001"/>
</g>
<!-- Node30 -->
<g id="node8" class="node">
<title>Node30</title>
<g id="a_node8"><a xlink:href="rpcwallet_8cpp.html#a8b18eac056b0261feaa2381f30b3e9d8" target="_top" xlink:title="signmessage">
<polygon fill="#ffffff" stroke="#000000" points="515.5,-.5 515.5,-19.5 589.5,-19.5 589.5,-.5 515.5,-.5"/>
<text text-anchor="middle" x="552.5" y="-7.5" font-family="Helvetica,sans-Serif" font-size="10.00" fill="#000000">signmessage</text>
</a>
</g>
</g>
<!-- Node26&#45;&gt;Node30 -->
<g id="edge7" class="edge">
<title>Node26&#45;&gt;Node30</title>
<path fill="none" stroke="#191970" d="M439.0817,-36.1206C463.8083,-30.426 492.8672,-23.7336 515.3808,-18.5487"/>
<polygon fill="#191970" stroke="#191970" points="438.0959,-32.7559 429.1365,-38.411 439.6669,-39.5774 438.0959,-32.7559"/>
</g>
<!-- Node29 -->
<g id="node7" class="node">
<title>Node29</title>
<g id="a_node7"><a xlink:href="rpcwallet_8cpp.html#a151535abf7394b299deb8d0a333de70b" target="_top" xlink:title="rescanblockchain">
<polygon fill="#ffffff" stroke="#000000" points="651,-38.5 651,-57.5 743,-57.5 743,-38.5 651,-38.5"/>
<text text-anchor="middle" x="697" y="-45.5" font-family="Helvetica,sans-Serif" font-size="10.00" fill="#000000">rescanblockchain</text>
</a>
</g>
</g>
<!-- Node28&#45;&gt;Node29 -->
<g id="edge6" class="edge">
<title>Node28&#45;&gt;Node29</title>
<path fill="none" stroke="#191970" d="M598.6872,-48C615.4114,-48 634.287,-48 650.9954,-48"/>
<polygon fill="#191970" stroke="#191970" points="598.5907,-44.5001 588.5907,-48 598.5907,-51.5001 598.5907,-44.5001"/>
</g>
</g>
</svg>
