<?xml version="1.0" encoding="UTF-8" standalone="no"?>
<!DOCTYPE svg PUBLIC "-//W3C//DTD SVG 1.1//EN"
 "http://www.w3.org/Graphics/SVG/1.1/DTD/svg11.dtd">
<!-- Generated by graphviz version 2.40.1 (20161225.0304)
 -->
<!-- Title: CWallet::IsScanning Pages: 1 -->
<svg width="347pt" height="28pt"
 viewBox="0.00 0.00 347.00 28.00" xmlns="http://www.w3.org/2000/svg" xmlns:xlink="http://www.w3.org/1999/xlink">
<g id="graph0" class="graph" transform="scale(1 1) rotate(0) translate(4 24)">
<title>CWallet::IsScanning</title>
<polygon fill="#ffffff" stroke="transparent" points="-4,4 -4,-24 343,-24 343,4 -4,4"/>
<!-- Node168 -->
<g id="node1" class="node">
<title>Node168</title>
<polygon fill="#bfbfbf" stroke="#000000" points="0,-.5 0,-19.5 107,-19.5 107,-.5 0,-.5"/>
<text text-anchor="middle" x="53.5" y="-7.5" font-family="Helvetica,sans-Serif" font-size="10.00" fill="#000000">CWallet::IsScanning</text>
</g>
<!-- Node169 -->
<g id="node2" class="node">
<title>Node169</title>
<g id="a_node2"><a xlink:href="rpcwallet_8cpp.html#a9df6d8c784683e22309cb2627d21b1f2" target="_top" xlink:title="abortrescan">
<polygon fill="#ffffff" stroke="#000000" points="143,-.5 143,-19.5 211,-19.5 211,-.5 143,-.5"/>
<text text-anchor="middle" x="177" y="-7.5" font-family="Helvetica,sans-Serif" font-size="10.00" fill="#000000">abortrescan</text>
</a>
</g>
</g>
<!-- Node168&#45;&gt;Node169 -->
<g id="edge1" class="edge">
<title>Node168&#45;&gt;Node169</title>
<path fill="none" stroke="#191970" d="M117.5666,-10C126.3157,-10 135.0026,-10 142.9236,-10"/>
<polygon fill="#191970" stroke="#191970" points="117.3097,-6.5001 107.3096,-10 117.3096,-13.5001 117.3097,-6.5001"/>
</g>
<!-- Node170 -->
<g id="node3" class="node">
<title>Node170</title>
<g id="a_node3"><a xlink:href="rpcwallet_8cpp.html#a151535abf7394b299deb8d0a333de70b" target="_top" xlink:title="rescanblockchain">
<polygon fill="#ffffff" stroke="#000000" points="247,-.5 247,-19.5 339,-19.5 339,-.5 247,-.5"/>
<text text-anchor="middle" x="293" y="-7.5" font-family="Helvetica,sans-Serif" font-size="10.00" fill="#000000">rescanblockchain</text>
</a>
</g>
</g>
<!-- Node169&#45;&gt;Node170 -->
<g id="edge2" class="edge">
<title>Node169&#45;&gt;Node170</title>
<path fill="none" stroke="#191970" d="M221.3746,-10C229.6337,-10 238.2836,-10 246.6015,-10"/>
<polygon fill="#191970" stroke="#191970" points="221.1765,-6.5001 211.1764,-10 221.1764,-13.5001 221.1765,-6.5001"/>
</g>
</g>
</svg>
