<?xml version="1.0" encoding="UTF-8" standalone="no"?>
<!DOCTYPE svg PUBLIC "-//W3C//DTD SVG 1.1//EN"
 "http://www.w3.org/Graphics/SVG/1.1/DTD/svg11.dtd">
<!-- Generated by graphviz version 2.40.1 (20161225.0304)
 -->
<!-- Title: SignVerifyMessageDialog::setAddress_VM Pages: 1 -->
<svg width="1066pt" height="94pt"
 viewBox="0.00 0.00 1066.00 93.50" xmlns="http://www.w3.org/2000/svg" xmlns:xlink="http://www.w3.org/1999/xlink">
<g id="graph0" class="graph" transform="scale(1 1) rotate(0) translate(4 89.5)">
<title>SignVerifyMessageDialog::setAddress_VM</title>
<polygon fill="#ffffff" stroke="transparent" points="-4,4 -4,-89.5 1062,-89.5 1062,4 -4,4"/>
<!-- Node111 -->
<g id="node1" class="node">
<title>Node111</title>
<polygon fill="#bfbfbf" stroke="#000000" points="0,-24.5 0,-54.5 129,-54.5 129,-24.5 0,-24.5"/>
<text text-anchor="start" x="8" y="-42.5" font-family="Helvetica,sans-Serif" font-size="10.00" fill="#000000">SignVerifyMessageDialog</text>
<text text-anchor="middle" x="64.5" y="-31.5" font-family="Helvetica,sans-Serif" font-size="10.00" fill="#000000">::setAddress_VM</text>
</g>
<!-- Node112 -->
<g id="node2" class="node">
<title>Node112</title>
<g id="a_node2"><a xlink:href="class_sign_verify_message_dialog.html#a90ceb00084c68da5e9c481ba0841d976" target="_top" xlink:title="SignVerifyMessageDialog\l::on_addressBookButton\l_VM_clicked">
<polygon fill="#ffffff" stroke="#000000" points="187,-44 187,-85 316,-85 316,-44 187,-44"/>
<text text-anchor="start" x="195" y="-73" font-family="Helvetica,sans-Serif" font-size="10.00" fill="#000000">SignVerifyMessageDialog</text>
<text text-anchor="start" x="195" y="-62" font-family="Helvetica,sans-Serif" font-size="10.00" fill="#000000">::on_addressBookButton</text>
<text text-anchor="middle" x="251.5" y="-51" font-family="Helvetica,sans-Serif" font-size="10.00" fill="#000000">_VM_clicked</text>
</a>
</g>
</g>
<!-- Node111&#45;&gt;Node112 -->
<g id="edge1" class="edge">
<title>Node111&#45;&gt;Node112</title>
<path fill="none" stroke="#191970" d="M139.335,-49.5047C155.0759,-51.6091 171.5525,-53.8118 186.8808,-55.8611"/>
<polygon fill="#191970" stroke="#191970" points="139.4923,-45.9946 129.1166,-48.1386 138.5646,-52.9329 139.4923,-45.9946"/>
</g>
<!-- Node113 -->
<g id="node3" class="node">
<title>Node113</title>
<g id="a_node3"><a xlink:href="class_wallet_view.html#a0a23aaaf87d3aec5ae8b1b8320d66796" target="_top" xlink:title="Show Sign/Verify Message dialog and switch to verify message tab. ">
<polygon fill="#ffffff" stroke="#000000" points="165,-6 165,-25 338,-25 338,-6 165,-6"/>
<text text-anchor="middle" x="251.5" y="-13" font-family="Helvetica,sans-Serif" font-size="10.00" fill="#000000">WalletView::gotoVerifyMessageTab</text>
</a>
</g>
</g>
<!-- Node111&#45;&gt;Node113 -->
<g id="edge2" class="edge">
<title>Node111&#45;&gt;Node113</title>
<path fill="none" stroke="#191970" d="M139.0759,-29.9288C151.6443,-28.3157 164.6889,-26.6415 177.249,-25.0295"/>
<polygon fill="#191970" stroke="#191970" points="138.5897,-26.4624 129.1166,-31.207 139.4809,-33.4054 138.5897,-26.4624"/>
</g>
<!-- Node114 -->
<g id="node4" class="node">
<title>Node114</title>
<g id="a_node4"><a xlink:href="class_wallet_frame.html#af5cce5026575d013cb9d6933ebe7aa98" target="_top" xlink:title="Show Sign/Verify Message dialog and switch to verify message tab. ">
<polygon fill="#ffffff" stroke="#000000" points="374,-6 374,-25 553,-25 553,-6 374,-6"/>
<text text-anchor="middle" x="463.5" y="-13" font-family="Helvetica,sans-Serif" font-size="10.00" fill="#000000">WalletFrame::gotoVerifyMessageTab</text>
</a>
</g>
</g>
<!-- Node113&#45;&gt;Node114 -->
<g id="edge3" class="edge">
<title>Node113&#45;&gt;Node114</title>
<path fill="none" stroke="#191970" d="M348.0498,-15.5C356.6257,-15.5 365.2847,-15.5 373.8,-15.5"/>
<polygon fill="#191970" stroke="#191970" points="348.0343,-12.0001 338.0343,-15.5 348.0343,-19.0001 348.0343,-12.0001"/>
</g>
<!-- Node115 -->
<g id="node5" class="node">
<title>Node115</title>
<g id="a_node5"><a xlink:href="class_raven_g_u_i.html#ae7206842e6ed9672aad4da7dc841f5f1" target="_top" xlink:title="Show help message dialog. ">
<polygon fill="#ffffff" stroke="#000000" points="589,-.5 589,-30.5 741,-30.5 741,-.5 589,-.5"/>
<text text-anchor="start" x="597" y="-18.5" font-family="Helvetica,sans-Serif" font-size="10.00" fill="#000000">RavenGUI::showHelpMessage</text>
<text text-anchor="middle" x="665" y="-7.5" font-family="Helvetica,sans-Serif" font-size="10.00" fill="#000000">Clicked</text>
</a>
</g>
</g>
<!-- Node114&#45;&gt;Node115 -->
<g id="edge4" class="edge">
<title>Node114&#45;&gt;Node115</title>
<path fill="none" stroke="#191970" d="M563.1999,-15.5C571.8595,-15.5 580.5295,-15.5 588.9539,-15.5"/>
<polygon fill="#191970" stroke="#191970" points="563.0543,-12.0001 553.0543,-15.5 563.0543,-19.0001 563.0543,-12.0001"/>
</g>
<!-- Node116 -->
<g id="node6" class="node">
<title>Node116</title>
<g id="a_node6"><a xlink:href="class_raven_g_u_i.html#a6e65b4f2b8a82b4ab99b77fe9d43a500" target="_top" xlink:title="Create the main UI actions. ">
<polygon fill="#ffffff" stroke="#000000" points="777,-6 777,-25 906,-25 906,-6 777,-6"/>
<text text-anchor="middle" x="841.5" y="-13" font-family="Helvetica,sans-Serif" font-size="10.00" fill="#000000">RavenGUI::createActions</text>
</a>
</g>
</g>
<!-- Node115&#45;&gt;Node116 -->
<g id="edge5" class="edge">
<title>Node115&#45;&gt;Node116</title>
<path fill="none" stroke="#191970" d="M751.2606,-15.5C759.9152,-15.5 768.5953,-15.5 776.9677,-15.5"/>
<polygon fill="#191970" stroke="#191970" points="751.1326,-12.0001 741.1325,-15.5 751.1325,-19.0001 751.1326,-12.0001"/>
</g>
<!-- Node117 -->
<g id="node7" class="node">
<title>Node117</title>
<g id="a_node7"><a xlink:href="class_raven_g_u_i.html#af82cbe028fc29d0ea71074eced806071" target="_top" xlink:title="RavenGUI::RavenGUI">
<polygon fill="#ffffff" stroke="#000000" points="942,-6 942,-25 1058,-25 1058,-6 942,-6"/>
<text text-anchor="middle" x="1000" y="-13" font-family="Helvetica,sans-Serif" font-size="10.00" fill="#000000">RavenGUI::RavenGUI</text>
</a>
</g>
</g>
<!-- Node116&#45;&gt;Node117 -->
<g id="edge6" class="edge">
<title>Node116&#45;&gt;Node117</title>
<path fill="none" stroke="#191970" d="M916.6646,-15.5C925.1053,-15.5 933.608,-15.5 941.7883,-15.5"/>
<polygon fill="#191970" stroke="#191970" points="916.4254,-12.0001 906.4253,-15.5 916.4253,-19.0001 916.4254,-12.0001"/>
</g>
</g>
</svg>
