<?xml version="1.0" encoding="UTF-8" standalone="no"?>
<!DOCTYPE svg PUBLIC "-//W3C//DTD SVG 1.1//EN"
 "http://www.w3.org/Graphics/SVG/1.1/DTD/svg11.dtd">
<!-- Generated by graphviz version 2.40.1 (20161225.0304)
 -->
<!-- Title: CHashWriter::GetHash Pages: 1 -->
<svg width="476pt" height="202pt"
 viewBox="0.00 0.00 476.00 202.00" xmlns="http://www.w3.org/2000/svg" xmlns:xlink="http://www.w3.org/1999/xlink">
<g id="graph0" class="graph" transform="scale(1 1) rotate(0) translate(4 198)">
<title>CHashWriter::GetHash</title>
<polygon fill="#ffffff" stroke="transparent" points="-4,4 -4,-198 472,-198 472,4 -4,4"/>
<!-- Node10 -->
<g id="node1" class="node">
<title>Node10</title>
<polygon fill="#bfbfbf" stroke="#000000" points="0,-76.5 0,-95.5 119,-95.5 119,-76.5 0,-76.5"/>
<text text-anchor="middle" x="59.5" y="-83.5" font-family="Helvetica,sans-Serif" font-size="10.00" fill="#000000">CHashWriter::GetHash</text>
</g>
<!-- Node11 -->
<g id="node2" class="node">
<title>Node11</title>
<g id="a_node2"><a xlink:href="class_sign_verify_message_dialog.html#ae37dec200b27f23c409221511447ae1e" target="_top" xlink:title="SignVerifyMessageDialog\l::on_verifyMessageButton\l_VM_clicked">
<polygon fill="#ffffff" stroke="#000000" points="155,-152.5 155,-193.5 286,-193.5 286,-152.5 155,-152.5"/>
<text text-anchor="start" x="163" y="-181.5" font-family="Helvetica,sans-Serif" font-size="10.00" fill="#000000">SignVerifyMessageDialog</text>
<text text-anchor="start" x="163" y="-170.5" font-family="Helvetica,sans-Serif" font-size="10.00" fill="#000000">::on_verifyMessageButton</text>
<text text-anchor="middle" x="220.5" y="-159.5" font-family="Helvetica,sans-Serif" font-size="10.00" fill="#000000">_VM_clicked</text>
</a>
</g>
</g>
<!-- Node10&#45;&gt;Node11 -->
<g id="edge1" class="edge">
<title>Node10&#45;&gt;Node11</title>
<path fill="none" stroke="#191970" d="M83.0492,-101.0319C102.1324,-112.9735 129.882,-129.8016 155,-143 161.0896,-146.1998 167.586,-149.4095 174.0332,-152.477"/>
<polygon fill="#191970" stroke="#191970" points="84.7534,-97.9688 74.4268,-95.5995 81.0219,-103.8914 84.7534,-97.9688"/>
</g>
<!-- Node12 -->
<g id="node3" class="node">
<title>Node12</title>
<g id="a_node3"><a xlink:href="misc_8cpp.html#a0b6a5eab4e4ad2898bdc4dfb0be1da73" target="_top" xlink:title="verifymessage">
<polygon fill="#ffffff" stroke="#000000" points="180.5,-114.5 180.5,-133.5 260.5,-133.5 260.5,-114.5 180.5,-114.5"/>
<text text-anchor="middle" x="220.5" y="-121.5" font-family="Helvetica,sans-Serif" font-size="10.00" fill="#000000">verifymessage</text>
</a>
</g>
</g>
<!-- Node10&#45;&gt;Node12 -->
<g id="edge2" class="edge">
<title>Node10&#45;&gt;Node12</title>
<path fill="none" stroke="#191970" d="M109.94,-97.9051C132.6604,-103.2677 159.1115,-109.5108 180.4436,-114.5457"/>
<polygon fill="#191970" stroke="#191970" points="110.6637,-94.4798 100.1271,-95.589 109.0557,-101.2926 110.6637,-94.4798"/>
</g>
<!-- Node13 -->
<g id="node4" class="node">
<title>Node13</title>
<g id="a_node4"><a xlink:href="misc_8cpp.html#a7cc5c728930b938ed47704a71c0d0b02" target="_top" xlink:title="signmessagewithprivkey">
<polygon fill="#ffffff" stroke="#000000" points="158.5,-76.5 158.5,-95.5 282.5,-95.5 282.5,-76.5 158.5,-76.5"/>
<text text-anchor="middle" x="220.5" y="-83.5" font-family="Helvetica,sans-Serif" font-size="10.00" fill="#000000">signmessagewithprivkey</text>
</a>
</g>
</g>
<!-- Node10&#45;&gt;Node13 -->
<g id="edge3" class="edge">
<title>Node10&#45;&gt;Node13</title>
<path fill="none" stroke="#191970" d="M129.6958,-86C139.2324,-86 148.9652,-86 158.3468,-86"/>
<polygon fill="#191970" stroke="#191970" points="129.4505,-82.5001 119.4505,-86 129.4504,-89.5001 129.4505,-82.5001"/>
</g>
<!-- Node14 -->
<g id="node5" class="node">
<title>Node14</title>
<g id="a_node5"><a xlink:href="interpreter_8h.html#a749017a9362e0080519b52d70368b0e2" target="_top" xlink:title="SignatureHash">
<polygon fill="#ffffff" stroke="#000000" points="180,-38.5 180,-57.5 261,-57.5 261,-38.5 180,-38.5"/>
<text text-anchor="middle" x="220.5" y="-45.5" font-family="Helvetica,sans-Serif" font-size="10.00" fill="#000000">SignatureHash</text>
</a>
</g>
</g>
<!-- Node10&#45;&gt;Node14 -->
<g id="edge4" class="edge">
<title>Node10&#45;&gt;Node14</title>
<path fill="none" stroke="#191970" d="M109.9018,-74.1039C132.532,-68.7626 158.8695,-62.5463 180.165,-57.5201"/>
<polygon fill="#191970" stroke="#191970" points="109.0557,-70.7074 100.1271,-76.411 110.6637,-77.5202 109.0557,-70.7074"/>
</g>
<!-- Node17 -->
<g id="node8" class="node">
<title>Node17</title>
<g id="a_node8"><a xlink:href="rpcwallet_8cpp.html#a8b18eac056b0261feaa2381f30b3e9d8" target="_top" xlink:title="signmessage">
<polygon fill="#ffffff" stroke="#000000" points="183.5,-.5 183.5,-19.5 257.5,-19.5 257.5,-.5 183.5,-.5"/>
<text text-anchor="middle" x="220.5" y="-7.5" font-family="Helvetica,sans-Serif" font-size="10.00" fill="#000000">signmessage</text>
</a>
</g>
</g>
<!-- Node10&#45;&gt;Node17 -->
<g id="edge7" class="edge">
<title>Node10&#45;&gt;Node17</title>
<path fill="none" stroke="#191970" d="M81.5765,-70.5982C100.3942,-58.0249 128.5231,-40.5145 155,-29 163.9035,-25.128 173.8235,-21.787 183.1953,-19.0343"/>
<polygon fill="#191970" stroke="#191970" points="79.4446,-67.815 73.1347,-76.326 83.3749,-73.6075 79.4446,-67.815"/>
</g>
<!-- Node15 -->
<g id="node6" class="node">
<title>Node15</title>
<g id="a_node6"><a xlink:href="class_transaction_signature_checker.html#a6b890d261f895567a9ecfd28a1be0314" target="_top" xlink:title="TransactionSignatureChecker\l::CheckSig">
<polygon fill="#ffffff" stroke="#000000" points="322,-57 322,-87 468,-87 468,-57 322,-57"/>
<text text-anchor="start" x="330" y="-75" font-family="Helvetica,sans-Serif" font-size="10.00" fill="#000000">TransactionSignatureChecker</text>
<text text-anchor="middle" x="395" y="-64" font-family="Helvetica,sans-Serif" font-size="10.00" fill="#000000">::CheckSig</text>
</a>
</g>
</g>
<!-- Node14&#45;&gt;Node15 -->
<g id="edge5" class="edge">
<title>Node14&#45;&gt;Node15</title>
<path fill="none" stroke="#191970" d="M271.4652,-55.0095C287.2262,-57.1772 304.9094,-59.6093 321.8623,-61.941"/>
<polygon fill="#191970" stroke="#191970" points="271.7962,-51.5222 261.4125,-53.6269 270.8423,-58.4569 271.7962,-51.5222"/>
</g>
<!-- Node16 -->
<g id="node7" class="node">
<title>Node16</title>
<g id="a_node7"><a xlink:href="class_transaction_signature_creator.html#a9cb1b4bd531ab19a1257abd9b639b7c8" target="_top" xlink:title="Create a singular (non&#45;script) signature. ">
<polygon fill="#ffffff" stroke="#000000" points="324.5,-8 324.5,-38 465.5,-38 465.5,-8 324.5,-8"/>
<text text-anchor="start" x="332.5" y="-26" font-family="Helvetica,sans-Serif" font-size="10.00" fill="#000000">TransactionSignatureCreator</text>
<text text-anchor="middle" x="395" y="-15" font-family="Helvetica,sans-Serif" font-size="10.00" fill="#000000">::CreateSig</text>
</a>
</g>
</g>
<!-- Node14&#45;&gt;Node16 -->
<g id="edge6" class="edge">
<title>Node14&#45;&gt;Node16</title>
<path fill="none" stroke="#191970" d="M271.4023,-40.7074C287.9303,-38.3395 306.5773,-35.668 324.2816,-33.1316"/>
<polygon fill="#191970" stroke="#191970" points="270.815,-37.2557 261.4125,-42.1386 271.8078,-44.185 270.815,-37.2557"/>
</g>
</g>
</svg>
