<?xml version="1.0" encoding="UTF-8" standalone="no"?>
<!DOCTYPE svg PUBLIC "-//W3C//DTD SVG 1.1//EN"
 "http://www.w3.org/Graphics/SVG/1.1/DTD/svg11.dtd">
<!-- Generated by graphviz version 2.40.1 (20161225.0304)
 -->
<!-- Title: ReissueAssetDialog::hideMessage Pages: 1 -->
<svg width="574pt" height="230pt"
 viewBox="0.00 0.00 574.00 230.00" xmlns="http://www.w3.org/2000/svg" xmlns:xlink="http://www.w3.org/1999/xlink">
<g id="graph0" class="graph" transform="scale(1 1) rotate(0) translate(4 226)">
<title>ReissueAssetDialog::hideMessage</title>
<polygon fill="#ffffff" stroke="transparent" points="-4,4 -4,-226 570,-226 570,4 -4,4"/>
<!-- Node770 -->
<g id="node1" class="node">
<title>Node770</title>
<polygon fill="#bfbfbf" stroke="#000000" points="0,-120.5 0,-150.5 106,-150.5 106,-120.5 0,-120.5"/>
<text text-anchor="start" x="8" y="-138.5" font-family="Helvetica,sans-Serif" font-size="10.00" fill="#000000">ReissueAssetDialog</text>
<text text-anchor="middle" x="53" y="-127.5" font-family="Helvetica,sans-Serif" font-size="10.00" fill="#000000">::hideMessage</text>
</g>
<!-- Node771 -->
<g id="node2" class="node">
<title>Node771</title>
<g id="a_node2"><a xlink:href="class_reissue_asset_dialog.html#aa720c37b57893f599810b5a5bc1601df" target="_top" xlink:title="Helper Methods. ">
<polygon fill="#ffffff" stroke="#000000" points="142,-191.5 142,-221.5 248,-221.5 248,-191.5 142,-191.5"/>
<text text-anchor="start" x="150" y="-209.5" font-family="Helvetica,sans-Serif" font-size="10.00" fill="#000000">ReissueAssetDialog</text>
<text text-anchor="middle" x="195" y="-198.5" font-family="Helvetica,sans-Serif" font-size="10.00" fill="#000000">::setUpValues</text>
</a>
</g>
</g>
<!-- Node770&#45;&gt;Node771 -->
<g id="edge1" class="edge">
<title>Node770&#45;&gt;Node771</title>
<path fill="none" stroke="#191970" d="M89.4717,-155.4C105.4749,-163.9653 124.554,-173.9532 142,-182.5 148.0774,-185.4773 154.604,-188.5401 160.9284,-191.4398"/>
<polygon fill="#191970" stroke="#191970" points="90.9053,-152.197 80.4404,-150.5429 87.5898,-158.362 90.9053,-152.197"/>
</g>
<!-- Node772 -->
<g id="node3" class="node">
<title>Node772</title>
<g id="a_node3"><a xlink:href="class_reissue_asset_dialog.html#aa2f4601a131610b59d3d28fea1edceb2" target="_top" xlink:title="ReissueAssetDialog\l::checkIPFSHash">
<polygon fill="#ffffff" stroke="#000000" points="142,-142.5 142,-172.5 248,-172.5 248,-142.5 142,-142.5"/>
<text text-anchor="start" x="150" y="-160.5" font-family="Helvetica,sans-Serif" font-size="10.00" fill="#000000">ReissueAssetDialog</text>
<text text-anchor="middle" x="195" y="-149.5" font-family="Helvetica,sans-Serif" font-size="10.00" fill="#000000">::checkIPFSHash</text>
</a>
</g>
</g>
<!-- Node770&#45;&gt;Node772 -->
<g id="edge2" class="edge">
<title>Node770&#45;&gt;Node772</title>
<path fill="none" stroke="#191970" d="M116.2378,-145.2974C124.8064,-146.6249 133.5275,-147.9761 141.8941,-149.2723"/>
<polygon fill="#191970" stroke="#191970" points="116.6976,-141.827 106.2796,-143.7546 115.6258,-148.7444 116.6976,-141.827"/>
</g>
<!-- Node775 -->
<g id="node6" class="node">
<title>Node775</title>
<g id="a_node6"><a xlink:href="class_reissue_asset_dialog.html#aa065ab07d6b3a10cca44ce96febfff94" target="_top" xlink:title="ReissueAssetDialog\l::onAddressNameChanged">
<polygon fill="#ffffff" stroke="#000000" points="284,-98.5 284,-128.5 418,-128.5 418,-98.5 284,-98.5"/>
<text text-anchor="start" x="292" y="-116.5" font-family="Helvetica,sans-Serif" font-size="10.00" fill="#000000">ReissueAssetDialog</text>
<text text-anchor="middle" x="351" y="-105.5" font-family="Helvetica,sans-Serif" font-size="10.00" fill="#000000">::onAddressNameChanged</text>
</a>
</g>
</g>
<!-- Node770&#45;&gt;Node775 -->
<g id="edge5" class="edge">
<title>Node770&#45;&gt;Node775</title>
<path fill="none" stroke="#191970" d="M116.4772,-130.8138C165.6808,-127.1813 233.6965,-122.16 283.8139,-118.46"/>
<polygon fill="#191970" stroke="#191970" points="115.9916,-127.34 106.2764,-131.5668 116.507,-134.321 115.9916,-127.34"/>
</g>
<!-- Node776 -->
<g id="node7" class="node">
<title>Node776</title>
<g id="a_node7"><a xlink:href="class_reissue_asset_dialog.html#aafd6ecc466cab83a381e1fad50708853" target="_top" xlink:title="ReissueAssetDialog\l::clear">
<polygon fill="#ffffff" stroke="#000000" points="142,-49.5 142,-79.5 248,-79.5 248,-49.5 142,-49.5"/>
<text text-anchor="start" x="150" y="-67.5" font-family="Helvetica,sans-Serif" font-size="10.00" fill="#000000">ReissueAssetDialog</text>
<text text-anchor="middle" x="195" y="-56.5" font-family="Helvetica,sans-Serif" font-size="10.00" fill="#000000">::clear</text>
</a>
</g>
</g>
<!-- Node770&#45;&gt;Node776 -->
<g id="edge7" class="edge">
<title>Node770&#45;&gt;Node776</title>
<path fill="none" stroke="#191970" d="M92.2543,-115.8728C115.2173,-104.3914 143.7592,-90.1204 164.9289,-79.5356"/>
<polygon fill="#191970" stroke="#191970" points="90.4936,-112.84 83.1145,-120.4427 93.6241,-119.101 90.4936,-112.84"/>
</g>
<!-- Node773 -->
<g id="node4" class="node">
<title>Node773</title>
<g id="a_node4"><a xlink:href="class_reissue_asset_dialog.html#a8170ce5c542f2d0a33dd5d5ead816671" target="_top" xlink:title="ReissueAssetDialog\l::onIPFSHashChanged">
<polygon fill="#ffffff" stroke="#000000" points="292,-147.5 292,-177.5 410,-177.5 410,-147.5 292,-147.5"/>
<text text-anchor="start" x="300" y="-165.5" font-family="Helvetica,sans-Serif" font-size="10.00" fill="#000000">ReissueAssetDialog</text>
<text text-anchor="middle" x="351" y="-154.5" font-family="Helvetica,sans-Serif" font-size="10.00" fill="#000000">::onIPFSHashChanged</text>
</a>
</g>
</g>
<!-- Node772&#45;&gt;Node773 -->
<g id="edge3" class="edge">
<title>Node772&#45;&gt;Node773</title>
<path fill="none" stroke="#191970" d="M258.2874,-159.5284C269.3723,-159.8837 280.8685,-160.2522 291.8363,-160.6037"/>
<polygon fill="#191970" stroke="#191970" points="258.3571,-156.029 248.25,-159.2067 258.1327,-163.0254 258.3571,-156.029"/>
</g>
<!-- Node774 -->
<g id="node5" class="node">
<title>Node774</title>
<g id="a_node5"><a xlink:href="class_reissue_asset_dialog.html#aee7cca850e09ac4cbedb7175feea7038" target="_top" xlink:title="ReissueAssetDialog\l::ReissueAssetDialog">
<polygon fill="#ffffff" stroke="#000000" points="454,-98.5 454,-128.5 566,-128.5 566,-98.5 454,-98.5"/>
<text text-anchor="start" x="462" y="-116.5" font-family="Helvetica,sans-Serif" font-size="10.00" fill="#000000">ReissueAssetDialog</text>
<text text-anchor="middle" x="510" y="-105.5" font-family="Helvetica,sans-Serif" font-size="10.00" fill="#000000">::ReissueAssetDialog</text>
</a>
</g>
</g>
<!-- Node773&#45;&gt;Node774 -->
<g id="edge4" class="edge">
<title>Node773&#45;&gt;Node774</title>
<path fill="none" stroke="#191970" d="M409.7746,-144.3871C426.6782,-139.1778 444.9257,-133.5543 461.1592,-128.5516"/>
<polygon fill="#191970" stroke="#191970" points="408.5283,-141.1086 400.0026,-147.3986 410.5899,-147.7982 408.5283,-141.1086"/>
</g>
<!-- Node775&#45;&gt;Node774 -->
<g id="edge6" class="edge">
<title>Node775&#45;&gt;Node774</title>
<path fill="none" stroke="#191970" d="M428.4911,-113.5C437.0943,-113.5 445.7289,-113.5 453.9915,-113.5"/>
<polygon fill="#191970" stroke="#191970" points="428.4303,-110.0001 418.4303,-113.5 428.4303,-117.0001 428.4303,-110.0001"/>
</g>
<!-- Node777 -->
<g id="node8" class="node">
<title>Node777</title>
<g id="a_node8"><a xlink:href="class_reissue_asset_dialog.html#a8d382efad25b258bf68627fde8b67c3d" target="_top" xlink:title="ReissueAssetDialog\l::onClearButtonClicked">
<polygon fill="#ffffff" stroke="#000000" points="292,-49.5 292,-79.5 410,-79.5 410,-49.5 292,-49.5"/>
<text text-anchor="start" x="300" y="-67.5" font-family="Helvetica,sans-Serif" font-size="10.00" fill="#000000">ReissueAssetDialog</text>
<text text-anchor="middle" x="351" y="-56.5" font-family="Helvetica,sans-Serif" font-size="10.00" fill="#000000">::onClearButtonClicked</text>
</a>
</g>
</g>
<!-- Node776&#45;&gt;Node777 -->
<g id="edge8" class="edge">
<title>Node776&#45;&gt;Node777</title>
<path fill="none" stroke="#191970" d="M258.2874,-64.5C269.3723,-64.5 280.8685,-64.5 291.8363,-64.5"/>
<polygon fill="#191970" stroke="#191970" points="258.2501,-61.0001 248.25,-64.5 258.25,-68.0001 258.2501,-61.0001"/>
</g>
<!-- Node778 -->
<g id="node9" class="node">
<title>Node778</title>
<g id="a_node9"><a xlink:href="class_reissue_asset_dialog.html#ae74a27a150a383c12e0360eaf597251c" target="_top" xlink:title="ReissueAssetDialog\l::focusReissueAsset">
<polygon fill="#ffffff" stroke="#000000" points="297,-.5 297,-30.5 405,-30.5 405,-.5 297,-.5"/>
<text text-anchor="start" x="305" y="-18.5" font-family="Helvetica,sans-Serif" font-size="10.00" fill="#000000">ReissueAssetDialog</text>
<text text-anchor="middle" x="351" y="-7.5" font-family="Helvetica,sans-Serif" font-size="10.00" fill="#000000">::focusReissueAsset</text>
</a>
</g>
</g>
<!-- Node776&#45;&gt;Node778 -->
<g id="edge10" class="edge">
<title>Node776&#45;&gt;Node778</title>
<path fill="none" stroke="#191970" d="M252.6656,-46.3871C269.2503,-41.1778 287.1535,-35.5543 303.0807,-30.5516"/>
<polygon fill="#191970" stroke="#191970" points="251.5696,-43.0627 243.0781,-49.3986 253.6674,-49.741 251.5696,-43.0627"/>
</g>
<!-- Node777&#45;&gt;Node774 -->
<g id="edge9" class="edge">
<title>Node777&#45;&gt;Node774</title>
<path fill="none" stroke="#191970" d="M409.7746,-82.6129C426.6782,-87.8222 444.9257,-93.4457 461.1592,-98.4484"/>
<polygon fill="#191970" stroke="#191970" points="410.5899,-79.2018 400.0026,-79.6014 408.5283,-85.8914 410.5899,-79.2018"/>
</g>
</g>
</svg>
