<?xml version="1.0" encoding="UTF-8" standalone="no"?>
<!DOCTYPE svg PUBLIC "-//W3C//DTD SVG 1.1//EN"
 "http://www.w3.org/Graphics/SVG/1.1/DTD/svg11.dtd">
<!-- Generated by graphviz version 2.40.1 (20161225.0304)
 -->
<!-- Title: PlatformStyle::SendEntriesBackGroundColor Pages: 1 -->
<svg width="520pt" height="127pt"
 viewBox="0.00 0.00 520.00 127.00" xmlns="http://www.w3.org/2000/svg" xmlns:xlink="http://www.w3.org/1999/xlink">
<g id="graph0" class="graph" transform="scale(1 1) rotate(0) translate(4 123)">
<title>PlatformStyle::SendEntriesBackGroundColor</title>
<polygon fill="#ffffff" stroke="transparent" points="-4,4 -4,-123 516,-123 516,4 -4,4"/>
<!-- Node99 -->
<g id="node1" class="node">
<title>Node99</title>
<polygon fill="#bfbfbf" stroke="#000000" points="0,-44.5 0,-74.5 135,-74.5 135,-44.5 0,-44.5"/>
<text text-anchor="start" x="8" y="-62.5" font-family="Helvetica,sans-Serif" font-size="10.00" fill="#000000">PlatformStyle::SendEntries</text>
<text text-anchor="middle" x="67.5" y="-51.5" font-family="Helvetica,sans-Serif" font-size="10.00" fill="#000000">BackGroundColor</text>
</g>
<!-- Node100 -->
<g id="node2" class="node">
<title>Node100</title>
<g id="a_node2"><a xlink:href="class_platform_style.html#a67b6942f6dcf2ca765f8af2d6f377ce8" target="_top" xlink:title="PlatformStyle::getUseExtra\lSpacing">
<polygon fill="#ffffff" stroke="#000000" points="171,-44.5 171,-74.5 308,-74.5 308,-44.5 171,-44.5"/>
<text text-anchor="start" x="179" y="-62.5" font-family="Helvetica,sans-Serif" font-size="10.00" fill="#000000">PlatformStyle::getUseExtra</text>
<text text-anchor="middle" x="239.5" y="-51.5" font-family="Helvetica,sans-Serif" font-size="10.00" fill="#000000">Spacing</text>
</a>
</g>
</g>
<!-- Node99&#45;&gt;Node100 -->
<g id="edge1" class="edge">
<title>Node99&#45;&gt;Node100</title>
<path fill="none" stroke="#191970" d="M145.6699,-59.5C154.0837,-59.5 162.5982,-59.5 170.8877,-59.5"/>
<polygon fill="#191970" stroke="#191970" points="145.479,-56.0001 135.479,-59.5 145.4789,-63.0001 145.479,-56.0001"/>
</g>
<!-- Node101 -->
<g id="node3" class="node">
<title>Node101</title>
<g id="a_node3"><a xlink:href="class_send_assets_entry.html#adceb9d1df4a80a3c8948ffc1352e4f02" target="_top" xlink:title="SendAssetsEntry::SendAssets\lEntry">
<polygon fill="#ffffff" stroke="#000000" points="352,-88.5 352,-118.5 504,-118.5 504,-88.5 352,-88.5"/>
<text text-anchor="start" x="360" y="-106.5" font-family="Helvetica,sans-Serif" font-size="10.00" fill="#000000">SendAssetsEntry::SendAssets</text>
<text text-anchor="middle" x="428" y="-95.5" font-family="Helvetica,sans-Serif" font-size="10.00" fill="#000000">Entry</text>
</a>
</g>
</g>
<!-- Node99&#45;&gt;Node101 -->
<g id="edge5" class="edge">
<title>Node99&#45;&gt;Node101</title>
<path fill="none" stroke="#191970" d="M135.1041,-76.7111C147.0057,-79.3008 159.3209,-81.7019 171,-83.5 231.3764,-92.7956 300.4336,-97.8644 351.7489,-100.5711"/>
<polygon fill="#191970" stroke="#191970" points="135.7501,-73.2691 125.2271,-74.5005 134.2212,-80.1001 135.7501,-73.2691"/>
</g>
<!-- Node102 -->
<g id="node4" class="node">
<title>Node102</title>
<g id="a_node4"><a xlink:href="class_send_coins_entry.html#a6eae20cd564011773931fc724f4d787c" target="_top" xlink:title="SendCoinsEntry::SendCoins\lEntry">
<polygon fill="#ffffff" stroke="#000000" points="357,-.5 357,-30.5 499,-30.5 499,-.5 357,-.5"/>
<text text-anchor="start" x="365" y="-18.5" font-family="Helvetica,sans-Serif" font-size="10.00" fill="#000000">SendCoinsEntry::SendCoins</text>
<text text-anchor="middle" x="428" y="-7.5" font-family="Helvetica,sans-Serif" font-size="10.00" fill="#000000">Entry</text>
</a>
</g>
</g>
<!-- Node99&#45;&gt;Node102 -->
<g id="edge6" class="edge">
<title>Node99&#45;&gt;Node102</title>
<path fill="none" stroke="#191970" d="M132.5196,-42.0849C145.2071,-39.1726 158.4629,-36.4641 171,-34.5 233.323,-24.7362 304.9568,-19.964 356.7387,-17.6468"/>
<polygon fill="#191970" stroke="#191970" points="131.4183,-38.7486 122.4909,-44.4539 133.0277,-45.5611 131.4183,-38.7486"/>
</g>
<!-- Node100&#45;&gt;Node101 -->
<g id="edge2" class="edge">
<title>Node100&#45;&gt;Node101</title>
<path fill="none" stroke="#191970" d="M313.9442,-76.8769C330.3709,-80.7112 347.6383,-84.7418 363.6264,-88.4738"/>
<polygon fill="#191970" stroke="#191970" points="314.3776,-73.384 303.8438,-74.5192 312.7864,-80.2008 314.3776,-73.384"/>
</g>
<!-- Node100&#45;&gt;Node102 -->
<g id="edge3" class="edge">
<title>Node100&#45;&gt;Node102</title>
<path fill="none" stroke="#191970" d="M313.9442,-42.1231C330.3709,-38.2888 347.6383,-34.2582 363.6264,-30.5262"/>
<polygon fill="#191970" stroke="#191970" points="312.7864,-38.7992 303.8438,-44.4808 314.3776,-45.616 312.7864,-38.7992"/>
</g>
<!-- Node103 -->
<g id="node5" class="node">
<title>Node103</title>
<g id="a_node5"><a xlink:href="class_transaction_view.html#a6bad80e62c684ad1e77250510c9323aa" target="_top" xlink:title="TransactionView::TransactionView">
<polygon fill="#ffffff" stroke="#000000" points="344,-50 344,-69 512,-69 512,-50 344,-50"/>
<text text-anchor="middle" x="428" y="-57" font-family="Helvetica,sans-Serif" font-size="10.00" fill="#000000">TransactionView::TransactionView</text>
</a>
</g>
</g>
<!-- Node100&#45;&gt;Node103 -->
<g id="edge4" class="edge">
<title>Node100&#45;&gt;Node103</title>
<path fill="none" stroke="#191970" d="M318.2491,-59.5C326.6652,-59.5 335.2509,-59.5 343.7277,-59.5"/>
<polygon fill="#191970" stroke="#191970" points="318.0861,-56.0001 308.0861,-59.5 318.086,-63.0001 318.0861,-56.0001"/>
</g>
</g>
</svg>
