<?xml version="1.0" encoding="UTF-8" standalone="no"?>
<!DOCTYPE svg PUBLIC "-//W3C//DTD SVG 1.1//EN"
 "http://www.w3.org/Graphics/SVG/1.1/DTD/svg11.dtd">
<!-- Generated by graphviz version 2.40.1 (20161225.0304)
 -->
<!-- Title: CoinControlDialog::setModel Pages: 1 -->
<svg width="476pt" height="137pt"
 viewBox="0.00 0.00 476.00 137.00" xmlns="http://www.w3.org/2000/svg" xmlns:xlink="http://www.w3.org/1999/xlink">
<g id="graph0" class="graph" transform="scale(1 1) rotate(0) translate(4 133)">
<title>CoinControlDialog::setModel</title>
<polygon fill="#ffffff" stroke="transparent" points="-4,4 -4,-133 472,-133 472,4 -4,4"/>
<!-- Node456 -->
<g id="node1" class="node">
<title>Node456</title>
<polygon fill="#bfbfbf" stroke="#000000" points="0,-49.5 0,-79.5 102,-79.5 102,-49.5 0,-49.5"/>
<text text-anchor="start" x="8" y="-67.5" font-family="Helvetica,sans-Serif" font-size="10.00" fill="#000000">CoinControlDialog::</text>
<text text-anchor="middle" x="51" y="-56.5" font-family="Helvetica,sans-Serif" font-size="10.00" fill="#000000">setModel</text>
</g>
<!-- Node457 -->
<g id="node2" class="node">
<title>Node457</title>
<g id="a_node2"><a xlink:href="class_create_asset_dialog.html#a48181a6ef7b33bc3cbe27313f7e2a16a" target="_top" xlink:title="CreateAssetDialog::\lcoinControlButtonClicked">
<polygon fill="#ffffff" stroke="#000000" points="148,-98.5 148,-128.5 276,-128.5 276,-98.5 148,-98.5"/>
<text text-anchor="start" x="156" y="-116.5" font-family="Helvetica,sans-Serif" font-size="10.00" fill="#000000">CreateAssetDialog::</text>
<text text-anchor="middle" x="212" y="-105.5" font-family="Helvetica,sans-Serif" font-size="10.00" fill="#000000">coinControlButtonClicked</text>
</a>
</g>
</g>
<!-- Node456&#45;&gt;Node457 -->
<g id="edge1" class="edge">
<title>Node456&#45;&gt;Node457</title>
<path fill="none" stroke="#191970" d="M110.5139,-82.6129C127.6301,-87.8222 146.1072,-93.4457 162.5448,-98.4484"/>
<polygon fill="#191970" stroke="#191970" points="111.2049,-79.1648 100.619,-79.6014 109.1667,-85.8615 111.2049,-79.1648"/>
</g>
<!-- Node459 -->
<g id="node4" class="node">
<title>Node459</title>
<g id="a_node4"><a xlink:href="class_reissue_asset_dialog.html#aa6ab6d2f84e4c3c305da572e856a1462" target="_top" xlink:title="ReissueAssetDialog\l::coinControlButtonClicked">
<polygon fill="#ffffff" stroke="#000000" points="145,-49.5 145,-79.5 279,-79.5 279,-49.5 145,-49.5"/>
<text text-anchor="start" x="153" y="-67.5" font-family="Helvetica,sans-Serif" font-size="10.00" fill="#000000">ReissueAssetDialog</text>
<text text-anchor="middle" x="212" y="-56.5" font-family="Helvetica,sans-Serif" font-size="10.00" fill="#000000">::coinControlButtonClicked</text>
</a>
</g>
</g>
<!-- Node456&#45;&gt;Node459 -->
<g id="edge3" class="edge">
<title>Node456&#45;&gt;Node459</title>
<path fill="none" stroke="#191970" d="M112.4099,-64.5C123.045,-64.5 134.1518,-64.5 144.9283,-64.5"/>
<polygon fill="#191970" stroke="#191970" points="112.3841,-61.0001 102.3841,-64.5 112.384,-68.0001 112.3841,-61.0001"/>
</g>
<!-- Node461 -->
<g id="node6" class="node">
<title>Node461</title>
<g id="a_node6"><a xlink:href="class_send_coins_dialog.html#a59d757d9e4bea5b380eb480fd79cfb49" target="_top" xlink:title="SendCoinsDialog::coinControl\lButtonClicked">
<polygon fill="#ffffff" stroke="#000000" points="138,-.5 138,-30.5 286,-30.5 286,-.5 138,-.5"/>
<text text-anchor="start" x="146" y="-18.5" font-family="Helvetica,sans-Serif" font-size="10.00" fill="#000000">SendCoinsDialog::coinControl</text>
<text text-anchor="middle" x="212" y="-7.5" font-family="Helvetica,sans-Serif" font-size="10.00" fill="#000000">ButtonClicked</text>
</a>
</g>
</g>
<!-- Node456&#45;&gt;Node461 -->
<g id="edge5" class="edge">
<title>Node456&#45;&gt;Node461</title>
<path fill="none" stroke="#191970" d="M110.5139,-46.3871C127.6301,-41.1778 146.1072,-35.5543 162.5448,-30.5516"/>
<polygon fill="#191970" stroke="#191970" points="109.1667,-43.1385 100.619,-49.3986 111.2049,-49.8352 109.1667,-43.1385"/>
</g>
<!-- Node458 -->
<g id="node3" class="node">
<title>Node458</title>
<g id="a_node3"><a xlink:href="class_create_asset_dialog.html#a9700ac1a4c4659f6716fbdeff8260ff5" target="_top" xlink:title="CreateAssetDialog::\lCreateAssetDialog">
<polygon fill="#ffffff" stroke="#000000" points="342.5,-98.5 342.5,-128.5 447.5,-128.5 447.5,-98.5 342.5,-98.5"/>
<text text-anchor="start" x="350.5" y="-116.5" font-family="Helvetica,sans-Serif" font-size="10.00" fill="#000000">CreateAssetDialog::</text>
<text text-anchor="middle" x="395" y="-105.5" font-family="Helvetica,sans-Serif" font-size="10.00" fill="#000000">CreateAssetDialog</text>
</a>
</g>
</g>
<!-- Node457&#45;&gt;Node458 -->
<g id="edge2" class="edge">
<title>Node457&#45;&gt;Node458</title>
<path fill="none" stroke="#191970" d="M286.035,-113.5C304.8585,-113.5 324.7063,-113.5 342.23,-113.5"/>
<polygon fill="#191970" stroke="#191970" points="286.0046,-110.0001 276.0045,-113.5 286.0045,-117.0001 286.0046,-110.0001"/>
</g>
<!-- Node460 -->
<g id="node5" class="node">
<title>Node460</title>
<g id="a_node5"><a xlink:href="class_reissue_asset_dialog.html#aee7cca850e09ac4cbedb7175feea7038" target="_top" xlink:title="ReissueAssetDialog\l::ReissueAssetDialog">
<polygon fill="#ffffff" stroke="#000000" points="339,-49.5 339,-79.5 451,-79.5 451,-49.5 339,-49.5"/>
<text text-anchor="start" x="347" y="-67.5" font-family="Helvetica,sans-Serif" font-size="10.00" fill="#000000">ReissueAssetDialog</text>
<text text-anchor="middle" x="395" y="-56.5" font-family="Helvetica,sans-Serif" font-size="10.00" fill="#000000">::ReissueAssetDialog</text>
</a>
</g>
</g>
<!-- Node459&#45;&gt;Node460 -->
<g id="edge4" class="edge">
<title>Node459&#45;&gt;Node460</title>
<path fill="none" stroke="#191970" d="M289.3246,-64.5C305.9049,-64.5 323.1217,-64.5 338.7256,-64.5"/>
<polygon fill="#191970" stroke="#191970" points="289.1034,-61.0001 279.1033,-64.5 289.1033,-68.0001 289.1034,-61.0001"/>
</g>
<!-- Node462 -->
<g id="node7" class="node">
<title>Node462</title>
<g id="a_node7"><a xlink:href="class_send_coins_dialog.html#affacd36b4df87a68e2fe706ef388c0a6" target="_top" xlink:title="SendCoinsDialog::SendCoins\lDialog">
<polygon fill="#ffffff" stroke="#000000" points="322,-.5 322,-30.5 468,-30.5 468,-.5 322,-.5"/>
<text text-anchor="start" x="330" y="-18.5" font-family="Helvetica,sans-Serif" font-size="10.00" fill="#000000">SendCoinsDialog::SendCoins</text>
<text text-anchor="middle" x="395" y="-7.5" font-family="Helvetica,sans-Serif" font-size="10.00" fill="#000000">Dialog</text>
</a>
</g>
</g>
<!-- Node461&#45;&gt;Node462 -->
<g id="edge6" class="edge">
<title>Node461&#45;&gt;Node462</title>
<path fill="none" stroke="#191970" d="M296.1935,-15.5C304.7819,-15.5 313.4568,-15.5 321.9129,-15.5"/>
<polygon fill="#191970" stroke="#191970" points="296.1693,-12.0001 286.1693,-15.5 296.1693,-19.0001 296.1693,-12.0001"/>
</g>
</g>
</svg>
