<?xml version="1.0" encoding="UTF-8" standalone="no"?>
<!DOCTYPE svg PUBLIC "-//W3C//DTD SVG 1.1//EN"
 "http://www.w3.org/Graphics/SVG/1.1/DTD/svg11.dtd">
<!-- Generated by graphviz version 2.40.1 (20161225.0304)
 -->
<!-- Title: RPCConsole::setNetworkActive Pages: 1 -->
<svg width="548pt" height="66pt"
 viewBox="0.00 0.00 548.00 66.00" xmlns="http://www.w3.org/2000/svg" xmlns:xlink="http://www.w3.org/1999/xlink">
<g id="graph0" class="graph" transform="scale(1 1) rotate(0) translate(4 62)">
<title>RPCConsole::setNetworkActive</title>
<polygon fill="#ffffff" stroke="transparent" points="-4,4 -4,-62 544,-62 544,4 -4,4"/>
<!-- Node371 -->
<g id="node1" class="node">
<title>Node371</title>
<polygon fill="#bfbfbf" stroke="#000000" points="0,-19.5 0,-38.5 158,-38.5 158,-19.5 0,-19.5"/>
<text text-anchor="middle" x="79" y="-26.5" font-family="Helvetica,sans-Serif" font-size="10.00" fill="#000000">RPCConsole::setNetworkActive</text>
</g>
<!-- Node372 -->
<g id="node2" class="node">
<title>Node372</title>
<g id="a_node2"><a xlink:href="class_r_p_c_console.html#a62c423db4ed102ce48dc650e15e49a96" target="_top" xlink:title="Update UI with latest network info from model. ">
<polygon fill="#ffffff" stroke="#000000" points="194,-14 194,-44 340,-44 340,-14 194,-14"/>
<text text-anchor="start" x="202" y="-32" font-family="Helvetica,sans-Serif" font-size="10.00" fill="#000000">RPCConsole::updateNetwork</text>
<text text-anchor="middle" x="267" y="-21" font-family="Helvetica,sans-Serif" font-size="10.00" fill="#000000">State</text>
</a>
</g>
</g>
<!-- Node371&#45;&gt;Node372 -->
<g id="edge1" class="edge">
<title>Node371&#45;&gt;Node372</title>
<path fill="none" stroke="#191970" d="M158.184,-29C166.6025,-29 175.1835,-29 183.6479,-29"/>
<polygon fill="#191970" stroke="#191970" points="183.8959,-32.5001 193.8959,-29 183.8959,-25.5001 183.8959,-32.5001"/>
</g>
<!-- Node373 -->
<g id="node3" class="node">
<title>Node373</title>
<g id="a_node3"><a xlink:href="class_client_model.html#ab1a71928e2ff3902e854d301f4cfe6ef" target="_top" xlink:title="Return number of connections, default is in&#45; and outbound (total) ">
<polygon fill="#ffffff" stroke="#000000" points="376,-38.5 376,-57.5 540,-57.5 540,-38.5 376,-38.5"/>
<text text-anchor="middle" x="458" y="-45.5" font-family="Helvetica,sans-Serif" font-size="10.00" fill="#000000">ClientModel::getNumConnections</text>
</a>
</g>
</g>
<!-- Node372&#45;&gt;Node373 -->
<g id="edge2" class="edge">
<title>Node372&#45;&gt;Node373</title>
<path fill="none" stroke="#191970" d="M340.0265,-36.2644C348.4284,-37.1002 357.0765,-37.9605 365.6898,-38.8173"/>
<polygon fill="#191970" stroke="#191970" points="365.4711,-42.3127 375.7685,-39.8199 366.1641,-35.3471 365.4711,-42.3127"/>
</g>
<!-- Node374 -->
<g id="node4" class="node">
<title>Node374</title>
<g id="a_node4"><a xlink:href="class_client_model.html#aa8f8839642703f13b476d09b7a616bd7" target="_top" xlink:title="Return true if network activity in core is enabled. ">
<polygon fill="#ffffff" stroke="#000000" points="382,-.5 382,-19.5 534,-19.5 534,-.5 382,-.5"/>
<text text-anchor="middle" x="458" y="-7.5" font-family="Helvetica,sans-Serif" font-size="10.00" fill="#000000">ClientModel::getNetworkActive</text>
</a>
</g>
</g>
<!-- Node372&#45;&gt;Node374 -->
<g id="edge3" class="edge">
<title>Node372&#45;&gt;Node374</title>
<path fill="none" stroke="#191970" d="M340.0265,-21.7356C350.4014,-20.7035 361.1515,-19.6341 371.7483,-18.58"/>
<polygon fill="#191970" stroke="#191970" points="372.2395,-22.0485 381.8439,-17.5757 371.5465,-15.0829 372.2395,-22.0485"/>
</g>
</g>
</svg>
