<?xml version="1.0" encoding="UTF-8" standalone="no"?>
<!DOCTYPE svg PUBLIC "-//W3C//DTD SVG 1.1//EN"
 "http://www.w3.org/Graphics/SVG/1.1/DTD/svg11.dtd">
<!-- Generated by graphviz version 2.40.1 (20161225.0304)
 -->
<!-- Title: WalletModel::getAssetTableModel Pages: 1 -->
<svg width="1364pt" height="88pt"
 viewBox="0.00 0.00 1364.00 88.00" xmlns="http://www.w3.org/2000/svg" xmlns:xlink="http://www.w3.org/1999/xlink">
<g id="graph0" class="graph" transform="scale(1 1) rotate(0) translate(4 84)">
<title>WalletModel::getAssetTableModel</title>
<polygon fill="#ffffff" stroke="transparent" points="-4,4 -4,-84 1360,-84 1360,4 -4,4"/>
<!-- Node240 -->
<g id="node1" class="node">
<title>Node240</title>
<polygon fill="#bfbfbf" stroke="#000000" points="0,-27.5 0,-57.5 140,-57.5 140,-27.5 0,-27.5"/>
<text text-anchor="start" x="8" y="-45.5" font-family="Helvetica,sans-Serif" font-size="10.00" fill="#000000">WalletModel::getAssetTable</text>
<text text-anchor="middle" x="70" y="-34.5" font-family="Helvetica,sans-Serif" font-size="10.00" fill="#000000">Model</text>
</g>
<!-- Node241 -->
<g id="node2" class="node">
<title>Node241</title>
<g id="a_node2"><a xlink:href="class_overview_page.html#a2ed52a3a87e9c74fee38fa873c9bc71f" target="_top" xlink:title="OverviewPage::setWalletModel">
<polygon fill="#ffffff" stroke="#000000" points="176,-33 176,-52 330,-52 330,-33 176,-33"/>
<text text-anchor="middle" x="253" y="-40" font-family="Helvetica,sans-Serif" font-size="10.00" fill="#000000">OverviewPage::setWalletModel</text>
</a>
</g>
</g>
<!-- Node240&#45;&gt;Node241 -->
<g id="edge1" class="edge">
<title>Node240&#45;&gt;Node241</title>
<path fill="none" stroke="#191970" d="M150.4716,-42.5C158.9368,-42.5 167.5298,-42.5 175.955,-42.5"/>
<polygon fill="#191970" stroke="#191970" points="150.2292,-39.0001 140.2292,-42.5 150.2292,-46.0001 150.2292,-39.0001"/>
</g>
<!-- Node242 -->
<g id="node3" class="node">
<title>Node242</title>
<g id="a_node3"><a xlink:href="class_wallet_view.html#a0a37ff693a4f9c1e5ddc23f9cd3913be" target="_top" xlink:title="Set the wallet model. ">
<polygon fill="#ffffff" stroke="#000000" points="366,-33 366,-52 506,-52 506,-33 366,-33"/>
<text text-anchor="middle" x="436" y="-40" font-family="Helvetica,sans-Serif" font-size="10.00" fill="#000000">WalletView::setWalletModel</text>
</a>
</g>
</g>
<!-- Node241&#45;&gt;Node242 -->
<g id="edge2" class="edge">
<title>Node241&#45;&gt;Node242</title>
<path fill="none" stroke="#191970" d="M340.194,-42.5C348.8472,-42.5 357.5519,-42.5 365.9975,-42.5"/>
<polygon fill="#191970" stroke="#191970" points="340.0781,-39.0001 330.0781,-42.5 340.0781,-46.0001 340.0781,-39.0001"/>
</g>
<!-- Node243 -->
<g id="node4" class="node">
<title>Node243</title>
<g id="a_node4"><a xlink:href="class_wallet_frame.html#aa199c3f27654199d84c365cf86167d86" target="_top" xlink:title="WalletFrame::addWallet">
<polygon fill="#ffffff" stroke="#000000" points="542,-33 542,-52 664,-52 664,-33 542,-33"/>
<text text-anchor="middle" x="603" y="-40" font-family="Helvetica,sans-Serif" font-size="10.00" fill="#000000">WalletFrame::addWallet</text>
</a>
</g>
</g>
<!-- Node242&#45;&gt;Node243 -->
<g id="edge3" class="edge">
<title>Node242&#45;&gt;Node243</title>
<path fill="none" stroke="#191970" d="M516.6091,-42.5C525.064,-42.5 533.5584,-42.5 541.7451,-42.5"/>
<polygon fill="#191970" stroke="#191970" points="516.3391,-39.0001 506.339,-42.5 516.339,-46.0001 516.3391,-39.0001"/>
</g>
<!-- Node244 -->
<g id="node5" class="node">
<title>Node244</title>
<g id="a_node5"><a xlink:href="class_raven_g_u_i.html#a174a3e75c334c5930d3261a2955c3725" target="_top" xlink:title="Set the client model. ">
<polygon fill="#ffffff" stroke="#000000" points="700,-33 700,-52 834,-52 834,-33 700,-33"/>
<text text-anchor="middle" x="767" y="-40" font-family="Helvetica,sans-Serif" font-size="10.00" fill="#000000">RavenGUI::setClientModel</text>
</a>
</g>
</g>
<!-- Node243&#45;&gt;Node244 -->
<g id="edge4" class="edge">
<title>Node243&#45;&gt;Node244</title>
<path fill="none" stroke="#191970" d="M674.303,-42.5C682.7776,-42.5 691.4074,-42.5 699.8217,-42.5"/>
<polygon fill="#191970" stroke="#191970" points="674.0676,-39.0001 664.0675,-42.5 674.0675,-46.0001 674.0676,-39.0001"/>
</g>
<!-- Node245 -->
<g id="node6" class="node">
<title>Node245</title>
<g id="a_node6"><a xlink:href="class_raven_application.html#a60123f611cc210870fa67974cb2c804c" target="_top" xlink:title="Request core shutdown. ">
<polygon fill="#ffffff" stroke="#000000" points="1225,-49.5 1225,-79.5 1356,-79.5 1356,-49.5 1225,-49.5"/>
<text text-anchor="start" x="1233" y="-67.5" font-family="Helvetica,sans-Serif" font-size="10.00" fill="#000000">RavenApplication::request</text>
<text text-anchor="middle" x="1290.5" y="-56.5" font-family="Helvetica,sans-Serif" font-size="10.00" fill="#000000">Shutdown</text>
</a>
</g>
</g>
<!-- Node244&#45;&gt;Node245 -->
<g id="edge5" class="edge">
<title>Node244&#45;&gt;Node245</title>
<path fill="none" stroke="#191970" d="M844.1333,-45.7415C947.2203,-50.0737 1128.1346,-57.6766 1224.9629,-61.7458"/>
<polygon fill="#191970" stroke="#191970" points="844.238,-42.2429 834.0999,-45.3199 843.944,-49.2367 844.238,-42.2429"/>
</g>
<!-- Node246 -->
<g id="node7" class="node">
<title>Node246</title>
<g id="a_node7"><a xlink:href="class_raven_application.html#a1a3dcf33ba44507984b2a04e7ebf1542" target="_top" xlink:title="RavenApplication::initialize\lResult">
<polygon fill="#ffffff" stroke="#000000" points="870,-5.5 870,-35.5 1004,-35.5 1004,-5.5 870,-5.5"/>
<text text-anchor="start" x="878" y="-23.5" font-family="Helvetica,sans-Serif" font-size="10.00" fill="#000000">RavenApplication::initialize</text>
<text text-anchor="middle" x="937" y="-12.5" font-family="Helvetica,sans-Serif" font-size="10.00" fill="#000000">Result</text>
</a>
</g>
</g>
<!-- Node244&#45;&gt;Node246 -->
<g id="edge6" class="edge">
<title>Node244&#45;&gt;Node246</title>
<path fill="none" stroke="#191970" d="M844.146,-32.5164C852.6879,-31.411 861.3366,-30.2917 869.7428,-29.2039"/>
<polygon fill="#191970" stroke="#191970" points="843.6566,-29.0505 834.1885,-33.805 844.555,-35.9926 843.6566,-29.0505"/>
</g>
<!-- Node247 -->
<g id="node8" class="node">
<title>Node247</title>
<g id="a_node8"><a xlink:href="class_raven_application.html#aecfdce3a245b959def5dd35e5cfb192e" target="_top" xlink:title="RavenApplication::startThread">
<polygon fill="#ffffff" stroke="#000000" points="1040,-11 1040,-30 1189,-30 1189,-11 1040,-11"/>
<text text-anchor="middle" x="1114.5" y="-18" font-family="Helvetica,sans-Serif" font-size="10.00" fill="#000000">RavenApplication::startThread</text>
</a>
</g>
</g>
<!-- Node246&#45;&gt;Node247 -->
<g id="edge7" class="edge">
<title>Node246&#45;&gt;Node247</title>
<path fill="none" stroke="#191970" d="M1014.3486,-20.5C1022.821,-20.5 1031.4344,-20.5 1039.873,-20.5"/>
<polygon fill="#191970" stroke="#191970" points="1014.1052,-17.0001 1004.1051,-20.5 1014.1051,-24.0001 1014.1052,-17.0001"/>
</g>
<!-- Node247&#45;&gt;Node245 -->
<g id="edge9" class="edge">
<title>Node247&#45;&gt;Node245</title>
<path fill="none" stroke="#191970" d="M1162.6046,-32.5261C1183.4811,-37.7453 1208.1576,-43.9144 1230.2385,-49.4346"/>
<polygon fill="#191970" stroke="#191970" points="1163.2397,-29.0773 1152.6894,-30.0473 1161.5419,-35.8683 1163.2397,-29.0773"/>
</g>
<!-- Node248 -->
<g id="node9" class="node">
<title>Node248</title>
<g id="a_node9"><a xlink:href="class_raven_application.html#a63a2032fef875fb81f26c212f69d000d" target="_top" xlink:title="Request core initialization. ">
<polygon fill="#ffffff" stroke="#000000" points="1225,-.5 1225,-30.5 1356,-30.5 1356,-.5 1225,-.5"/>
<text text-anchor="start" x="1233" y="-18.5" font-family="Helvetica,sans-Serif" font-size="10.00" fill="#000000">RavenApplication::request</text>
<text text-anchor="middle" x="1290.5" y="-7.5" font-family="Helvetica,sans-Serif" font-size="10.00" fill="#000000">Initialize</text>
</a>
</g>
</g>
<!-- Node247&#45;&gt;Node248 -->
<g id="edge8" class="edge">
<title>Node247&#45;&gt;Node248</title>
<path fill="none" stroke="#191970" d="M1199.2384,-18.0927C1207.8743,-17.8473 1216.5522,-17.6008 1224.9387,-17.3625"/>
<polygon fill="#191970" stroke="#191970" points="1199.0364,-14.5969 1189.1398,-18.3795 1199.2352,-21.5941 1199.0364,-14.5969"/>
</g>
</g>
</svg>
