<?xml version="1.0" encoding="UTF-8" standalone="no"?>
<!DOCTYPE svg PUBLIC "-//W3C//DTD SVG 1.1//EN"
 "http://www.w3.org/Graphics/SVG/1.1/DTD/svg11.dtd">
<!-- Generated by graphviz version 2.40.1 (20161225.0304)
 -->
<!-- Title: CompareTxMemPoolEntryByScore::operator() Pages: 1 -->
<svg width="556pt" height="142pt"
 viewBox="0.00 0.00 556.00 142.00" xmlns="http://www.w3.org/2000/svg" xmlns:xlink="http://www.w3.org/1999/xlink">
<g id="graph0" class="graph" transform="scale(1 1) rotate(0) translate(4 138)">
<title>CompareTxMemPoolEntryByScore::operator()</title>
<polygon fill="#ffffff" stroke="transparent" points="-4,4 -4,-138 552,-138 552,4 -4,4"/>
<!-- Node0 -->
<g id="node1" class="node">
<title>Node0</title>
<polygon fill="#bfbfbf" stroke="#000000" points="0,-52 0,-82 170,-82 170,-52 0,-52"/>
<text text-anchor="start" x="8" y="-70" font-family="Helvetica,sans-Serif" font-size="10.00" fill="#000000">CompareTxMemPoolEntryByScore</text>
<text text-anchor="middle" x="85" y="-59" font-family="Helvetica,sans-Serif" font-size="10.00" fill="#000000">::operator()</text>
</g>
<!-- Node1 -->
<g id="node2" class="node">
<title>Node1</title>
<g id="a_node2"><a xlink:href="class_c_tx_mem_pool_entry.html#adad4f014c99cf9fc2f23e274cd0c2132" target="_top" xlink:title="CTxMemPoolEntry::GetModifiedFee">
<polygon fill="#ffffff" stroke="#000000" points="206,-114.5 206,-133.5 381,-133.5 381,-114.5 206,-114.5"/>
<text text-anchor="middle" x="293.5" y="-121.5" font-family="Helvetica,sans-Serif" font-size="10.00" fill="#000000">CTxMemPoolEntry::GetModifiedFee</text>
</a>
</g>
</g>
<!-- Node0&#45;&gt;Node1 -->
<g id="edge1" class="edge">
<title>Node0&#45;&gt;Node1</title>
<path fill="none" stroke="#191970" d="M129.5398,-82.0481C152.2763,-89.4587 180.4595,-98.2314 206,-105 215.5792,-107.5386 225.8137,-109.9912 235.783,-112.243"/>
<polygon fill="#191970" stroke="#191970" points="235.1095,-115.6786 245.6298,-114.4238 236.6232,-108.8442 235.1095,-115.6786"/>
</g>
<!-- Node2 -->
<g id="node3" class="node">
<title>Node2</title>
<g id="a_node3"><a xlink:href="class_c_tx_mem_pool_entry.html#a89325fcaa8efbd1d6fe68c39d7d676b0" target="_top" xlink:title="CTxMemPoolEntry::GetTxSize">
<polygon fill="#ffffff" stroke="#000000" points="217.5,-76.5 217.5,-95.5 369.5,-95.5 369.5,-76.5 217.5,-76.5"/>
<text text-anchor="middle" x="293.5" y="-83.5" font-family="Helvetica,sans-Serif" font-size="10.00" fill="#000000">CTxMemPoolEntry::GetTxSize</text>
</a>
</g>
</g>
<!-- Node0&#45;&gt;Node2 -->
<g id="edge2" class="edge">
<title>Node0&#45;&gt;Node2</title>
<path fill="none" stroke="#191970" d="M170.1057,-74.7554C182.3336,-75.8697 194.9254,-77.0172 207.1767,-78.1336"/>
<polygon fill="#191970" stroke="#191970" points="207.0958,-81.6407 217.3722,-79.0627 207.7312,-74.6695 207.0958,-81.6407"/>
</g>
<!-- Node4 -->
<g id="node5" class="node">
<title>Node4</title>
<g id="a_node5"><a xlink:href="class_c_tx_mem_pool_entry.html#a2deed4202061edf8b040a3f554417c20" target="_top" xlink:title="CTxMemPoolEntry::GetTx">
<polygon fill="#ffffff" stroke="#000000" points="227,-38.5 227,-57.5 360,-57.5 360,-38.5 227,-38.5"/>
<text text-anchor="middle" x="293.5" y="-45.5" font-family="Helvetica,sans-Serif" font-size="10.00" fill="#000000">CTxMemPoolEntry::GetTx</text>
</a>
</g>
</g>
<!-- Node0&#45;&gt;Node4 -->
<g id="edge4" class="edge">
<title>Node0&#45;&gt;Node4</title>
<path fill="none" stroke="#191970" d="M170.1057,-59.2446C185.4759,-57.8439 201.4211,-56.3909 216.5422,-55.0129"/>
<polygon fill="#191970" stroke="#191970" points="217.2208,-58.4657 226.8619,-54.0725 216.5855,-51.4946 217.2208,-58.4657"/>
</g>
<!-- Node5 -->
<g id="node6" class="node">
<title>Node5</title>
<g id="a_node6"><a xlink:href="class_c_transaction.html#a7efd1379de830341417c0bfa23a149aa" target="_top" xlink:title="CTransaction::GetHash">
<polygon fill="#ffffff" stroke="#000000" points="233.5,-.5 233.5,-19.5 353.5,-19.5 353.5,-.5 233.5,-.5"/>
<text text-anchor="middle" x="293.5" y="-7.5" font-family="Helvetica,sans-Serif" font-size="10.00" fill="#000000">CTransaction::GetHash</text>
</a>
</g>
</g>
<!-- Node0&#45;&gt;Node5 -->
<g id="edge5" class="edge">
<title>Node0&#45;&gt;Node5</title>
<path fill="none" stroke="#191970" d="M129.5398,-51.9519C152.2763,-44.5413 180.4595,-35.7686 206,-29 215.5792,-26.4614 225.8137,-24.0088 235.783,-21.757"/>
<polygon fill="#191970" stroke="#191970" points="236.6232,-25.1558 245.6298,-19.5762 235.1095,-18.3214 236.6232,-25.1558"/>
</g>
<!-- Node3 -->
<g id="node4" class="node">
<title>Node3</title>
<g id="a_node4"><a xlink:href="policy_8cpp.html#a657a593ec90452062582ccf893a8488d" target="_top" xlink:title="Compute the virtual transaction size (weight reinterpreted as bytes). ">
<polygon fill="#ffffff" stroke="#000000" points="417,-76.5 417,-95.5 548,-95.5 548,-76.5 417,-76.5"/>
<text text-anchor="middle" x="482.5" y="-83.5" font-family="Helvetica,sans-Serif" font-size="10.00" fill="#000000">GetVirtualTransactionSize</text>
</a>
</g>
</g>
<!-- Node2&#45;&gt;Node3 -->
<g id="edge3" class="edge">
<title>Node2&#45;&gt;Node3</title>
<path fill="none" stroke="#191970" d="M369.5566,-86C381.8174,-86 394.5092,-86 406.7625,-86"/>
<polygon fill="#191970" stroke="#191970" points="406.9331,-89.5001 416.9331,-86 406.9331,-82.5001 406.9331,-89.5001"/>
</g>
</g>
</svg>
