<?xml version="1.0" encoding="UTF-8" standalone="no"?>
<!DOCTYPE svg PUBLIC "-//W3C//DTD SVG 1.1//EN"
 "http://www.w3.org/Graphics/SVG/1.1/DTD/svg11.dtd">
<!-- Generated by graphviz version 2.40.1 (20161225.0304)
 -->
<!-- Title: CConnman::DumpData Pages: 1 -->
<svg width="420pt" height="66pt"
 viewBox="0.00 0.00 420.00 66.00" xmlns="http://www.w3.org/2000/svg" xmlns:xlink="http://www.w3.org/1999/xlink">
<g id="graph0" class="graph" transform="scale(1 1) rotate(0) translate(4 62)">
<title>CConnman::DumpData</title>
<polygon fill="#ffffff" stroke="transparent" points="-4,4 -4,-62 416,-62 416,4 -4,4"/>
<!-- Node298 -->
<g id="node1" class="node">
<title>Node298</title>
<polygon fill="#bfbfbf" stroke="#000000" points="0,-19.5 0,-38.5 119,-38.5 119,-19.5 0,-19.5"/>
<text text-anchor="middle" x="59.5" y="-26.5" font-family="Helvetica,sans-Serif" font-size="10.00" fill="#000000">CConnman::DumpData</text>
</g>
<!-- Node299 -->
<g id="node2" class="node">
<title>Node299</title>
<g id="a_node2"><a xlink:href="class_c_connman.html#aa4709e5604e0f4369dada0a211493565" target="_top" xlink:title="CConnman::Start">
<polygon fill="#ffffff" stroke="#000000" points="155,-38.5 155,-57.5 248,-57.5 248,-38.5 155,-38.5"/>
<text text-anchor="middle" x="201.5" y="-45.5" font-family="Helvetica,sans-Serif" font-size="10.00" fill="#000000">CConnman::Start</text>
</a>
</g>
</g>
<!-- Node298&#45;&gt;Node299 -->
<g id="edge1" class="edge">
<title>Node298&#45;&gt;Node299</title>
<path fill="none" stroke="#191970" d="M129.3565,-38.347C137.9498,-39.4968 146.5653,-40.6496 154.6996,-41.738"/>
<polygon fill="#191970" stroke="#191970" points="129.6851,-34.8599 119.3092,-37.0026 128.7567,-41.798 129.6851,-34.8599"/>
</g>
<!-- Node300 -->
<g id="node3" class="node">
<title>Node300</title>
<g id="a_node3"><a xlink:href="class_c_connman.html#a289dca0ee65310fcfc5b552249fc0401" target="_top" xlink:title="CConnman::Stop">
<polygon fill="#ffffff" stroke="#000000" points="155.5,-.5 155.5,-19.5 247.5,-19.5 247.5,-.5 155.5,-.5"/>
<text text-anchor="middle" x="201.5" y="-7.5" font-family="Helvetica,sans-Serif" font-size="10.00" fill="#000000">CConnman::Stop</text>
</a>
</g>
</g>
<!-- Node298&#45;&gt;Node300 -->
<g id="edge2" class="edge">
<title>Node298&#45;&gt;Node300</title>
<path fill="none" stroke="#191970" d="M129.4858,-19.6357C138.1895,-18.4711 146.9134,-17.3038 155.1344,-16.2038"/>
<polygon fill="#191970" stroke="#191970" points="128.7567,-16.202 119.3092,-20.9974 129.6851,-23.1401 128.7567,-16.202"/>
</g>
<!-- Node301 -->
<g id="node4" class="node">
<title>Node301</title>
<g id="a_node4"><a xlink:href="class_c_connman.html#ab4bc83003310d960423d963148d5c9ec" target="_top" xlink:title="CConnman::~CConnman">
<polygon fill="#ffffff" stroke="#000000" points="284,-.5 284,-19.5 412,-19.5 412,-.5 284,-.5"/>
<text text-anchor="middle" x="348" y="-7.5" font-family="Helvetica,sans-Serif" font-size="10.00" fill="#000000">CConnman::~CConnman</text>
</a>
</g>
</g>
<!-- Node300&#45;&gt;Node301 -->
<g id="edge3" class="edge">
<title>Node300&#45;&gt;Node301</title>
<path fill="none" stroke="#191970" d="M257.9606,-10C266.401,-10 275.1557,-10 283.743,-10"/>
<polygon fill="#191970" stroke="#191970" points="257.8536,-6.5001 247.8535,-10 257.8535,-13.5001 257.8536,-6.5001"/>
</g>
</g>
</svg>
