<?xml version="1.0" encoding="UTF-8" standalone="no"?>
<!DOCTYPE svg PUBLIC "-//W3C//DTD SVG 1.1//EN"
 "http://www.w3.org/Graphics/SVG/1.1/DTD/svg11.dtd">
<!-- Generated by graphviz version 2.40.1 (20161225.0304)
 -->
<!-- Title: WalletModel::validateAddress Pages: 1 -->
<svg width="674pt" height="208pt"
 viewBox="0.00 0.00 674.00 207.50" xmlns="http://www.w3.org/2000/svg" xmlns:xlink="http://www.w3.org/1999/xlink">
<g id="graph0" class="graph" transform="scale(1 1) rotate(0) translate(4 203.5)">
<title>WalletModel::validateAddress</title>
<polygon fill="#ffffff" stroke="transparent" points="-4,4 -4,-203.5 670,-203.5 670,4 -4,4"/>
<!-- Node1416 -->
<g id="node1" class="node">
<title>Node1416</title>
<polygon fill="#bfbfbf" stroke="#000000" points="0,-57.5 0,-76.5 146,-76.5 146,-57.5 0,-57.5"/>
<text text-anchor="middle" x="73" y="-64.5" font-family="Helvetica,sans-Serif" font-size="10.00" fill="#000000">WalletModel::validateAddress</text>
</g>
<!-- Node1417 -->
<g id="node2" class="node">
<title>Node1417</title>
<g id="a_node2"><a xlink:href="class_address_table_model.html#aa72edd2a093a6e9318639d69d3a23488" target="_top" xlink:title="AddressTableModel::\laddRow">
<polygon fill="#ffffff" stroke="#000000" points="207.5,-120 207.5,-150 316.5,-150 316.5,-120 207.5,-120"/>
<text text-anchor="start" x="215.5" y="-138" font-family="Helvetica,sans-Serif" font-size="10.00" fill="#000000">AddressTableModel::</text>
<text text-anchor="middle" x="262" y="-127" font-family="Helvetica,sans-Serif" font-size="10.00" fill="#000000">addRow</text>
</a>
</g>
</g>
<!-- Node1416&#45;&gt;Node1417 -->
<g id="edge1" class="edge">
<title>Node1416&#45;&gt;Node1417</title>
<path fill="none" stroke="#191970" d="M109.4276,-80.1062C141.0989,-91.5012 186.9829,-108.0097 220.1537,-119.9442"/>
<polygon fill="#191970" stroke="#191970" points="110.2727,-76.6907 99.6782,-76.5985 107.9028,-83.2773 110.2727,-76.6907"/>
</g>
<!-- Node1422 -->
<g id="node7" class="node">
<title>Node1422</title>
<g id="a_node7"><a xlink:href="class_send_assets_entry.html#aa9294e7c8c528e1971305d86b1c65558" target="_top" xlink:title="SendAssetsEntry::validate">
<polygon fill="#ffffff" stroke="#000000" points="195.5,-76.5 195.5,-95.5 328.5,-95.5 328.5,-76.5 195.5,-76.5"/>
<text text-anchor="middle" x="262" y="-83.5" font-family="Helvetica,sans-Serif" font-size="10.00" fill="#000000">SendAssetsEntry::validate</text>
</a>
</g>
</g>
<!-- Node1416&#45;&gt;Node1422 -->
<g id="edge6" class="edge">
<title>Node1416&#45;&gt;Node1422</title>
<path fill="none" stroke="#191970" d="M156.0398,-75.3479C169.1729,-76.6682 182.6057,-78.0186 195.3034,-79.295"/>
<polygon fill="#191970" stroke="#191970" points="156.3723,-71.8638 146.0723,-74.3459 155.6721,-78.8287 156.3723,-71.8638"/>
</g>
<!-- Node1424 -->
<g id="node9" class="node">
<title>Node1424</title>
<g id="a_node9"><a xlink:href="class_send_coins_entry.html#ab77df95fe77e9a001190cd4dabe0dfec" target="_top" xlink:title="SendCoinsEntry::validate">
<polygon fill="#ffffff" stroke="#000000" points="198,-38.5 198,-57.5 326,-57.5 326,-38.5 198,-38.5"/>
<text text-anchor="middle" x="262" y="-45.5" font-family="Helvetica,sans-Serif" font-size="10.00" fill="#000000">SendCoinsEntry::validate</text>
</a>
</g>
</g>
<!-- Node1416&#45;&gt;Node1424 -->
<g id="edge8" class="edge">
<title>Node1416&#45;&gt;Node1424</title>
<path fill="none" stroke="#191970" d="M156.1487,-58.6411C170.0924,-57.2394 184.3707,-55.804 197.7454,-54.4595"/>
<polygon fill="#191970" stroke="#191970" points="155.6721,-55.1713 146.0723,-59.6541 156.3723,-62.1362 155.6721,-55.1713"/>
</g>
<!-- Node1426 -->
<g id="node11" class="node">
<title>Node1426</title>
<g id="a_node11"><a xlink:href="class_wallet_model.html#aa56ac200db13d7121cedb40ebd43ba2f" target="_top" xlink:title="WalletModel::prepareTransaction">
<polygon fill="#ffffff" stroke="#000000" points="182,-.5 182,-19.5 342,-19.5 342,-.5 182,-.5"/>
<text text-anchor="middle" x="262" y="-7.5" font-family="Helvetica,sans-Serif" font-size="10.00" fill="#000000">WalletModel::prepareTransaction</text>
</a>
</g>
</g>
<!-- Node1416&#45;&gt;Node1426 -->
<g id="edge10" class="edge">
<title>Node1416&#45;&gt;Node1426</title>
<path fill="none" stroke="#191970" d="M107.8751,-53.8198C129.124,-46.0458 156.9247,-36.3278 182,-29 193.6468,-25.5964 206.379,-22.3584 218.1918,-19.5512"/>
<polygon fill="#191970" stroke="#191970" points="106.4792,-50.6042 98.3093,-57.3499 108.9027,-57.1713 106.4792,-50.6042"/>
</g>
<!-- Node1418 -->
<g id="node3" class="node">
<title>Node1418</title>
<g id="a_node3"><a xlink:href="class_edit_address_dialog.html#a8494a551799cd1f4c253e557424c206c" target="_top" xlink:title="EditAddressDialog::\lsaveCurrentRow">
<polygon fill="#ffffff" stroke="#000000" points="399,-169 399,-199 503,-199 503,-169 399,-169"/>
<text text-anchor="start" x="407" y="-187" font-family="Helvetica,sans-Serif" font-size="10.00" fill="#000000">EditAddressDialog::</text>
<text text-anchor="middle" x="451" y="-176" font-family="Helvetica,sans-Serif" font-size="10.00" fill="#000000">saveCurrentRow</text>
</a>
</g>
</g>
<!-- Node1417&#45;&gt;Node1418 -->
<g id="edge2" class="edge">
<title>Node1417&#45;&gt;Node1418</title>
<path fill="none" stroke="#191970" d="M326.5642,-151.7389C350.099,-157.8405 376.3963,-164.6583 398.7313,-170.4489"/>
<polygon fill="#191970" stroke="#191970" points="327.225,-148.2945 316.6666,-149.1728 325.4682,-155.0705 327.225,-148.2945"/>
</g>
<!-- Node1420 -->
<g id="node5" class="node">
<title>Node1420</title>
<g id="a_node5"><a xlink:href="class_receive_coins_dialog.html#a9db8de31f6889288cb22c061aa51e0cd" target="_top" xlink:title="ReceiveCoinsDialog\l::on_receiveButton_clicked">
<polygon fill="#ffffff" stroke="#000000" points="384,-120 384,-150 518,-150 518,-120 384,-120"/>
<text text-anchor="start" x="392" y="-138" font-family="Helvetica,sans-Serif" font-size="10.00" fill="#000000">ReceiveCoinsDialog</text>
<text text-anchor="middle" x="451" y="-127" font-family="Helvetica,sans-Serif" font-size="10.00" fill="#000000">::on_receiveButton_clicked</text>
</a>
</g>
</g>
<!-- Node1417&#45;&gt;Node1420 -->
<g id="edge4" class="edge">
<title>Node1417&#45;&gt;Node1420</title>
<path fill="none" stroke="#191970" d="M326.6919,-135C345.085,-135 365.1564,-135 383.7003,-135"/>
<polygon fill="#191970" stroke="#191970" points="326.6667,-131.5001 316.6666,-135 326.6666,-138.5001 326.6667,-131.5001"/>
</g>
<!-- Node1419 -->
<g id="node4" class="node">
<title>Node1419</title>
<g id="a_node4"><a xlink:href="class_edit_address_dialog.html#ac52b71129806bccf6533d0e9441393b6" target="_top" xlink:title="EditAddressDialog::\laccept">
<polygon fill="#ffffff" stroke="#000000" points="561,-169 561,-199 665,-199 665,-169 561,-169"/>
<text text-anchor="start" x="569" y="-187" font-family="Helvetica,sans-Serif" font-size="10.00" fill="#000000">EditAddressDialog::</text>
<text text-anchor="middle" x="613" y="-176" font-family="Helvetica,sans-Serif" font-size="10.00" fill="#000000">accept</text>
</a>
</g>
</g>
<!-- Node1418&#45;&gt;Node1419 -->
<g id="edge3" class="edge">
<title>Node1418&#45;&gt;Node1419</title>
<path fill="none" stroke="#191970" d="M513.3186,-184C529.0519,-184 545.7798,-184 560.9482,-184"/>
<polygon fill="#191970" stroke="#191970" points="513.1496,-180.5001 503.1495,-184 513.1495,-187.5001 513.1496,-180.5001"/>
</g>
<!-- Node1421 -->
<g id="node6" class="node">
<title>Node1421</title>
<g id="a_node6"><a xlink:href="class_receive_coins_dialog.html#abcf17b510c473bf3e94ef12f7f5cfc10" target="_top" xlink:title="ReceiveCoinsDialog\l::keyPressEvent">
<polygon fill="#ffffff" stroke="#000000" points="560,-120 560,-150 666,-150 666,-120 560,-120"/>
<text text-anchor="start" x="568" y="-138" font-family="Helvetica,sans-Serif" font-size="10.00" fill="#000000">ReceiveCoinsDialog</text>
<text text-anchor="middle" x="613" y="-127" font-family="Helvetica,sans-Serif" font-size="10.00" fill="#000000">::keyPressEvent</text>
</a>
</g>
</g>
<!-- Node1420&#45;&gt;Node1421 -->
<g id="edge5" class="edge">
<title>Node1420&#45;&gt;Node1421</title>
<path fill="none" stroke="#191970" d="M528.4746,-135C539.1431,-135 549.8934,-135 559.9832,-135"/>
<polygon fill="#191970" stroke="#191970" points="528.2952,-131.5001 518.2952,-135 528.2952,-138.5001 528.2952,-131.5001"/>
</g>
<!-- Node1423 -->
<g id="node8" class="node">
<title>Node1423</title>
<g id="a_node8"><a xlink:href="class_assets_dialog.html#a72ea3a7ceb18986cfed5f3654c61eebe" target="_top" xlink:title="AssetsDialog::on_sendButton\l_clicked">
<polygon fill="#ffffff" stroke="#000000" points="378,-71 378,-101 524,-101 524,-71 378,-71"/>
<text text-anchor="start" x="386" y="-89" font-family="Helvetica,sans-Serif" font-size="10.00" fill="#000000">AssetsDialog::on_sendButton</text>
<text text-anchor="middle" x="451" y="-78" font-family="Helvetica,sans-Serif" font-size="10.00" fill="#000000">_clicked</text>
</a>
</g>
</g>
<!-- Node1422&#45;&gt;Node1423 -->
<g id="edge7" class="edge">
<title>Node1422&#45;&gt;Node1423</title>
<path fill="none" stroke="#191970" d="M338.8583,-86C351.7521,-86 365.1002,-86 377.896,-86"/>
<polygon fill="#191970" stroke="#191970" points="338.6344,-82.5001 328.6343,-86 338.6343,-89.5001 338.6344,-82.5001"/>
</g>
<!-- Node1425 -->
<g id="node10" class="node">
<title>Node1425</title>
<g id="a_node10"><a xlink:href="class_send_coins_dialog.html#a2cab7cf9ea5040b9e2189297f7d3c764" target="_top" xlink:title="SendCoinsDialog::on\l_sendButton_clicked">
<polygon fill="#ffffff" stroke="#000000" points="396.5,-22 396.5,-52 505.5,-52 505.5,-22 396.5,-22"/>
<text text-anchor="start" x="404.5" y="-40" font-family="Helvetica,sans-Serif" font-size="10.00" fill="#000000">SendCoinsDialog::on</text>
<text text-anchor="middle" x="451" y="-29" font-family="Helvetica,sans-Serif" font-size="10.00" fill="#000000">_sendButton_clicked</text>
</a>
</g>
</g>
<!-- Node1424&#45;&gt;Node1425 -->
<g id="edge9" class="edge">
<title>Node1424&#45;&gt;Node1425</title>
<path fill="none" stroke="#191970" d="M336.2799,-43.6768C356.3191,-42.5105 377.6309,-41.2702 396.3785,-40.179"/>
<polygon fill="#191970" stroke="#191970" points="336.0302,-40.1853 326.2505,-44.2606 336.437,-47.1735 336.0302,-40.1853"/>
</g>
</g>
</svg>
