<?xml version="1.0" encoding="UTF-8" standalone="no"?>
<!DOCTYPE svg PUBLIC "-//W3C//DTD SVG 1.1//EN"
 "http://www.w3.org/Graphics/SVG/1.1/DTD/svg11.dtd">
<!-- Generated by graphviz version 2.40.1 (20161225.0304)
 -->
<!-- Title: CreateAssetDialog::setBalance Pages: 1 -->
<svg width="1421pt" height="88pt"
 viewBox="0.00 0.00 1421.00 88.00" xmlns="http://www.w3.org/2000/svg" xmlns:xlink="http://www.w3.org/1999/xlink">
<g id="graph0" class="graph" transform="scale(1 1) rotate(0) translate(4 84)">
<title>CreateAssetDialog::setBalance</title>
<polygon fill="#ffffff" stroke="transparent" points="-4,4 -4,-84 1417,-84 1417,4 -4,4"/>
<!-- Node1243 -->
<g id="node1" class="node">
<title>Node1243</title>
<polygon fill="#bfbfbf" stroke="#000000" points="0,-27.5 0,-57.5 105,-57.5 105,-27.5 0,-27.5"/>
<text text-anchor="start" x="8" y="-45.5" font-family="Helvetica,sans-Serif" font-size="10.00" fill="#000000">CreateAssetDialog::</text>
<text text-anchor="middle" x="52.5" y="-34.5" font-family="Helvetica,sans-Serif" font-size="10.00" fill="#000000">setBalance</text>
</g>
<!-- Node1244 -->
<g id="node2" class="node">
<title>Node1244</title>
<g id="a_node2"><a xlink:href="class_create_asset_dialog.html#affceaf7b5ffeeda6f20ecb354ff4e7f8" target="_top" xlink:title="CreateAssetDialog::\lsetModel">
<polygon fill="#ffffff" stroke="#000000" points="282,-27.5 282,-57.5 387,-57.5 387,-27.5 282,-27.5"/>
<text text-anchor="start" x="290" y="-45.5" font-family="Helvetica,sans-Serif" font-size="10.00" fill="#000000">CreateAssetDialog::</text>
<text text-anchor="middle" x="334.5" y="-34.5" font-family="Helvetica,sans-Serif" font-size="10.00" fill="#000000">setModel</text>
</a>
</g>
</g>
<!-- Node1243&#45;&gt;Node1244 -->
<g id="edge1" class="edge">
<title>Node1243&#45;&gt;Node1244</title>
<path fill="none" stroke="#191970" d="M115.3925,-44.0963C123.9965,-44.2635 132.7159,-44.4064 141,-44.5 187.6637,-45.0272 199.3363,-45.0272 246,-44.5 257.5256,-44.3698 269.894,-44.1442 281.622,-43.8903"/>
<polygon fill="#191970" stroke="#191970" points="115.4479,-40.5968 105.378,-43.8903 115.3038,-47.5953 115.4479,-40.5968"/>
</g>
<!-- Node1252 -->
<g id="node10" class="node">
<title>Node1252</title>
<g id="a_node10"><a xlink:href="class_create_asset_dialog.html#a14c45db711ab138f4c2e52fa81c5f50a" target="_top" xlink:title="CreateAssetDialog::\lupdateDisplayUnit">
<polygon fill="#ffffff" stroke="#000000" points="141,-5.5 141,-35.5 246,-35.5 246,-5.5 141,-5.5"/>
<text text-anchor="start" x="149" y="-23.5" font-family="Helvetica,sans-Serif" font-size="10.00" fill="#000000">CreateAssetDialog::</text>
<text text-anchor="middle" x="193.5" y="-12.5" font-family="Helvetica,sans-Serif" font-size="10.00" fill="#000000">updateDisplayUnit</text>
</a>
</g>
</g>
<!-- Node1243&#45;&gt;Node1252 -->
<g id="edge10" class="edge">
<title>Node1243&#45;&gt;Node1252</title>
<path fill="none" stroke="#191970" d="M115.0504,-32.7404C123.6995,-31.3909 132.5102,-30.0161 140.953,-28.6988"/>
<polygon fill="#191970" stroke="#191970" points="114.3441,-29.3081 105.0032,-34.308 115.4233,-36.2245 114.3441,-29.3081"/>
</g>
<!-- Node1245 -->
<g id="node3" class="node">
<title>Node1245</title>
<g id="a_node3"><a xlink:href="class_wallet_view.html#a0a37ff693a4f9c1e5ddc23f9cd3913be" target="_top" xlink:title="Set the wallet model. ">
<polygon fill="#ffffff" stroke="#000000" points="423,-33 423,-52 563,-52 563,-33 423,-33"/>
<text text-anchor="middle" x="493" y="-40" font-family="Helvetica,sans-Serif" font-size="10.00" fill="#000000">WalletView::setWalletModel</text>
</a>
</g>
</g>
<!-- Node1244&#45;&gt;Node1245 -->
<g id="edge2" class="edge">
<title>Node1244&#45;&gt;Node1245</title>
<path fill="none" stroke="#191970" d="M397.3775,-42.5C405.7837,-42.5 414.4468,-42.5 422.9659,-42.5"/>
<polygon fill="#191970" stroke="#191970" points="397.2782,-39.0001 387.2782,-42.5 397.2782,-46.0001 397.2782,-39.0001"/>
</g>
<!-- Node1246 -->
<g id="node4" class="node">
<title>Node1246</title>
<g id="a_node4"><a xlink:href="class_wallet_frame.html#aa199c3f27654199d84c365cf86167d86" target="_top" xlink:title="WalletFrame::addWallet">
<polygon fill="#ffffff" stroke="#000000" points="599,-33 599,-52 721,-52 721,-33 599,-33"/>
<text text-anchor="middle" x="660" y="-40" font-family="Helvetica,sans-Serif" font-size="10.00" fill="#000000">WalletFrame::addWallet</text>
</a>
</g>
</g>
<!-- Node1245&#45;&gt;Node1246 -->
<g id="edge3" class="edge">
<title>Node1245&#45;&gt;Node1246</title>
<path fill="none" stroke="#191970" d="M573.6091,-42.5C582.064,-42.5 590.5584,-42.5 598.7451,-42.5"/>
<polygon fill="#191970" stroke="#191970" points="573.3391,-39.0001 563.339,-42.5 573.339,-46.0001 573.3391,-39.0001"/>
</g>
<!-- Node1247 -->
<g id="node5" class="node">
<title>Node1247</title>
<g id="a_node5"><a xlink:href="class_raven_g_u_i.html#a174a3e75c334c5930d3261a2955c3725" target="_top" xlink:title="Set the client model. ">
<polygon fill="#ffffff" stroke="#000000" points="757,-33 757,-52 891,-52 891,-33 757,-33"/>
<text text-anchor="middle" x="824" y="-40" font-family="Helvetica,sans-Serif" font-size="10.00" fill="#000000">RavenGUI::setClientModel</text>
</a>
</g>
</g>
<!-- Node1246&#45;&gt;Node1247 -->
<g id="edge4" class="edge">
<title>Node1246&#45;&gt;Node1247</title>
<path fill="none" stroke="#191970" d="M731.303,-42.5C739.7776,-42.5 748.4074,-42.5 756.8217,-42.5"/>
<polygon fill="#191970" stroke="#191970" points="731.0676,-39.0001 721.0675,-42.5 731.0675,-46.0001 731.0676,-39.0001"/>
</g>
<!-- Node1248 -->
<g id="node6" class="node">
<title>Node1248</title>
<g id="a_node6"><a xlink:href="class_raven_application.html#a60123f611cc210870fa67974cb2c804c" target="_top" xlink:title="Request core shutdown. ">
<polygon fill="#ffffff" stroke="#000000" points="1282,-49.5 1282,-79.5 1413,-79.5 1413,-49.5 1282,-49.5"/>
<text text-anchor="start" x="1290" y="-67.5" font-family="Helvetica,sans-Serif" font-size="10.00" fill="#000000">RavenApplication::request</text>
<text text-anchor="middle" x="1347.5" y="-56.5" font-family="Helvetica,sans-Serif" font-size="10.00" fill="#000000">Shutdown</text>
</a>
</g>
</g>
<!-- Node1247&#45;&gt;Node1248 -->
<g id="edge5" class="edge">
<title>Node1247&#45;&gt;Node1248</title>
<path fill="none" stroke="#191970" d="M901.1333,-45.7415C1004.2203,-50.0737 1185.1346,-57.6766 1281.9629,-61.7458"/>
<polygon fill="#191970" stroke="#191970" points="901.238,-42.2429 891.0999,-45.3199 900.944,-49.2367 901.238,-42.2429"/>
</g>
<!-- Node1249 -->
<g id="node7" class="node">
<title>Node1249</title>
<g id="a_node7"><a xlink:href="class_raven_application.html#a1a3dcf33ba44507984b2a04e7ebf1542" target="_top" xlink:title="RavenApplication::initialize\lResult">
<polygon fill="#ffffff" stroke="#000000" points="927,-5.5 927,-35.5 1061,-35.5 1061,-5.5 927,-5.5"/>
<text text-anchor="start" x="935" y="-23.5" font-family="Helvetica,sans-Serif" font-size="10.00" fill="#000000">RavenApplication::initialize</text>
<text text-anchor="middle" x="994" y="-12.5" font-family="Helvetica,sans-Serif" font-size="10.00" fill="#000000">Result</text>
</a>
</g>
</g>
<!-- Node1247&#45;&gt;Node1249 -->
<g id="edge6" class="edge">
<title>Node1247&#45;&gt;Node1249</title>
<path fill="none" stroke="#191970" d="M901.146,-32.5164C909.6879,-31.411 918.3366,-30.2917 926.7428,-29.2039"/>
<polygon fill="#191970" stroke="#191970" points="900.6566,-29.0505 891.1885,-33.805 901.555,-35.9926 900.6566,-29.0505"/>
</g>
<!-- Node1250 -->
<g id="node8" class="node">
<title>Node1250</title>
<g id="a_node8"><a xlink:href="class_raven_application.html#aecfdce3a245b959def5dd35e5cfb192e" target="_top" xlink:title="RavenApplication::startThread">
<polygon fill="#ffffff" stroke="#000000" points="1097,-11 1097,-30 1246,-30 1246,-11 1097,-11"/>
<text text-anchor="middle" x="1171.5" y="-18" font-family="Helvetica,sans-Serif" font-size="10.00" fill="#000000">RavenApplication::startThread</text>
</a>
</g>
</g>
<!-- Node1249&#45;&gt;Node1250 -->
<g id="edge7" class="edge">
<title>Node1249&#45;&gt;Node1250</title>
<path fill="none" stroke="#191970" d="M1071.3486,-20.5C1079.821,-20.5 1088.4344,-20.5 1096.873,-20.5"/>
<polygon fill="#191970" stroke="#191970" points="1071.1052,-17.0001 1061.1051,-20.5 1071.1051,-24.0001 1071.1052,-17.0001"/>
</g>
<!-- Node1250&#45;&gt;Node1248 -->
<g id="edge9" class="edge">
<title>Node1250&#45;&gt;Node1248</title>
<path fill="none" stroke="#191970" d="M1219.6046,-32.5261C1240.4811,-37.7453 1265.1576,-43.9144 1287.2385,-49.4346"/>
<polygon fill="#191970" stroke="#191970" points="1220.2397,-29.0773 1209.6894,-30.0473 1218.5419,-35.8683 1220.2397,-29.0773"/>
</g>
<!-- Node1251 -->
<g id="node9" class="node">
<title>Node1251</title>
<g id="a_node9"><a xlink:href="class_raven_application.html#a63a2032fef875fb81f26c212f69d000d" target="_top" xlink:title="Request core initialization. ">
<polygon fill="#ffffff" stroke="#000000" points="1282,-.5 1282,-30.5 1413,-30.5 1413,-.5 1282,-.5"/>
<text text-anchor="start" x="1290" y="-18.5" font-family="Helvetica,sans-Serif" font-size="10.00" fill="#000000">RavenApplication::request</text>
<text text-anchor="middle" x="1347.5" y="-7.5" font-family="Helvetica,sans-Serif" font-size="10.00" fill="#000000">Initialize</text>
</a>
</g>
</g>
<!-- Node1250&#45;&gt;Node1251 -->
<g id="edge8" class="edge">
<title>Node1250&#45;&gt;Node1251</title>
<path fill="none" stroke="#191970" d="M1256.2384,-18.0927C1264.8743,-17.8473 1273.5522,-17.6008 1281.9387,-17.3625"/>
<polygon fill="#191970" stroke="#191970" points="1256.0364,-14.5969 1246.1398,-18.3795 1256.2352,-21.5941 1256.0364,-14.5969"/>
</g>
<!-- Node1252&#45;&gt;Node1244 -->
<g id="edge11" class="edge">
<title>Node1252&#45;&gt;Node1244</title>
<path fill="none" stroke="#191970" d="M256.0504,-30.2596C264.6995,-31.6091 273.5102,-32.9839 281.953,-34.3012"/>
<polygon fill="#191970" stroke="#191970" points="256.4233,-26.7755 246.0032,-28.692 255.3441,-33.6919 256.4233,-26.7755"/>
</g>
</g>
</svg>
