<?xml version="1.0" encoding="UTF-8" standalone="no"?>
<!DOCTYPE svg PUBLIC "-//W3C//DTD SVG 1.1//EN"
 "http://www.w3.org/Graphics/SVG/1.1/DTD/svg11.dtd">
<!-- Generated by graphviz version 2.40.1 (20161225.0304)
 -->
<!-- Title: RPCConsole::fontSmaller Pages: 1 -->
<svg width="1043pt" height="142pt"
 viewBox="0.00 0.00 1043.00 142.00" xmlns="http://www.w3.org/2000/svg" xmlns:xlink="http://www.w3.org/1999/xlink">
<g id="graph0" class="graph" transform="scale(1 1) rotate(0) translate(4 138)">
<title>RPCConsole::fontSmaller</title>
<polygon fill="#ffffff" stroke="transparent" points="-4,4 -4,-138 1039,-138 1039,4 -4,4"/>
<!-- Node127 -->
<g id="node1" class="node">
<title>Node127</title>
<polygon fill="#bfbfbf" stroke="#000000" points="0,-65.5 0,-84.5 130,-84.5 130,-65.5 0,-65.5"/>
<text text-anchor="middle" x="65" y="-72.5" font-family="Helvetica,sans-Serif" font-size="10.00" fill="#000000">RPCConsole::fontSmaller</text>
</g>
<!-- Node128 -->
<g id="node2" class="node">
<title>Node128</title>
<g id="a_node2"><a xlink:href="class_r_p_c_console.html#a385a3c3b75604e379ce4ed26b697cb36" target="_top" xlink:title="RPCConsole::setFontSize">
<polygon fill="#ffffff" stroke="#000000" points="166,-65.5 166,-84.5 299,-84.5 299,-65.5 166,-65.5"/>
<text text-anchor="middle" x="232.5" y="-72.5" font-family="Helvetica,sans-Serif" font-size="10.00" fill="#000000">RPCConsole::setFontSize</text>
</a>
</g>
</g>
<!-- Node127&#45;&gt;Node128 -->
<g id="edge1" class="edge">
<title>Node127&#45;&gt;Node128</title>
<path fill="none" stroke="#191970" d="M130.2395,-75C138.5333,-75 147.082,-75 155.5378,-75"/>
<polygon fill="#191970" stroke="#191970" points="155.7826,-78.5001 165.7825,-75 155.7825,-71.5001 155.7826,-78.5001"/>
</g>
<!-- Node129 -->
<g id="node3" class="node">
<title>Node129</title>
<g id="a_node3"><a xlink:href="rpcconsole_8cpp.html#aa2dbbb8d07fa94117835608f55f0318a" target="_top" xlink:title="FONT_RANGE">
<polygon fill="#ffffff" stroke="#000000" points="343,-84.5 343,-103.5 428,-103.5 428,-84.5 343,-84.5"/>
<text text-anchor="middle" x="385.5" y="-91.5" font-family="Helvetica,sans-Serif" font-size="10.00" fill="#000000">FONT_RANGE</text>
</a>
</g>
</g>
<!-- Node128&#45;&gt;Node129 -->
<g id="edge2" class="edge">
<title>Node128&#45;&gt;Node129</title>
<path fill="none" stroke="#191970" d="M299.1629,-83.2784C310.3916,-84.6728 321.9077,-86.1029 332.7219,-87.4459"/>
<polygon fill="#191970" stroke="#191970" points="332.4877,-90.9436 342.8428,-88.7027 333.3504,-83.9969 332.4877,-90.9436"/>
</g>
<!-- Node130 -->
<g id="node4" class="node">
<title>Node130</title>
<g id="a_node4"><a xlink:href="class_r_p_c_console.html#a8ce64bac6c4420afacee4d2ead446649" target="_top" xlink:title="RPCConsole::clear">
<polygon fill="#ffffff" stroke="#000000" points="335,-46.5 335,-65.5 436,-65.5 436,-46.5 335,-46.5"/>
<text text-anchor="middle" x="385.5" y="-53.5" font-family="Helvetica,sans-Serif" font-size="10.00" fill="#000000">RPCConsole::clear</text>
</a>
</g>
</g>
<!-- Node128&#45;&gt;Node130 -->
<g id="edge3" class="edge">
<title>Node128&#45;&gt;Node130</title>
<path fill="none" stroke="#191970" d="M299.1629,-66.7216C307.636,-65.6694 316.2728,-64.5968 324.6481,-63.5568"/>
<polygon fill="#191970" stroke="#191970" points="325.2136,-67.0135 334.706,-62.3078 324.3509,-60.0669 325.2136,-67.0135"/>
</g>
<!-- Node131 -->
<g id="node5" class="node">
<title>Node131</title>
<g id="a_node5"><a xlink:href="class_platform_style.html#adecebc4670880700203340d322351f89" target="_top" xlink:title="Colorize an image (given filename) with the icon color. ">
<polygon fill="#ffffff" stroke="#000000" points="472,-101 472,-131 604,-131 604,-101 472,-101"/>
<text text-anchor="start" x="480" y="-119" font-family="Helvetica,sans-Serif" font-size="10.00" fill="#000000">PlatformStyle::SingleColor</text>
<text text-anchor="middle" x="538" y="-108" font-family="Helvetica,sans-Serif" font-size="10.00" fill="#000000">Image</text>
</a>
</g>
</g>
<!-- Node130&#45;&gt;Node131 -->
<g id="edge4" class="edge">
<title>Node130&#45;&gt;Node131</title>
<path fill="none" stroke="#191970" d="M411.233,-65.5551C419.1875,-68.5427 427.9684,-71.8754 436,-75 454.3092,-82.1231 474.386,-90.1468 491.8485,-97.1952"/>
<polygon fill="#191970" stroke="#191970" points="490.6703,-100.4941 501.2531,-100.9988 493.2948,-94.0047 490.6703,-100.4941"/>
</g>
<!-- Node133 -->
<g id="node7" class="node">
<title>Node133</title>
<g id="a_node7"><a xlink:href="namespace_g_u_i_util.html#af6b9624383a5313a5d856c59913b599b" target="_top" xlink:title="GUIUtil::fixedPitchFont">
<polygon fill="#ffffff" stroke="#000000" points="478.5,-46.5 478.5,-65.5 597.5,-65.5 597.5,-46.5 478.5,-46.5"/>
<text text-anchor="middle" x="538" y="-53.5" font-family="Helvetica,sans-Serif" font-size="10.00" fill="#000000">GUIUtil::fixedPitchFont</text>
</a>
</g>
</g>
<!-- Node130&#45;&gt;Node133 -->
<g id="edge6" class="edge">
<title>Node130&#45;&gt;Node133</title>
<path fill="none" stroke="#191970" d="M436.2803,-56C446.5234,-56 457.4593,-56 468.2219,-56"/>
<polygon fill="#191970" stroke="#191970" points="468.4595,-59.5001 478.4594,-56 468.4594,-52.5001 468.4595,-59.5001"/>
</g>
<!-- Node139 -->
<g id="node13" class="node">
<title>Node139</title>
<g id="a_node13"><a xlink:href="class_r_p_c_console.html#ad7a93a587a78b0080a930bd325460b20" target="_top" xlink:title="Append the message to the message widget. ">
<polygon fill="#ffffff" stroke="#000000" points="478,-8.5 478,-27.5 598,-27.5 598,-8.5 478,-8.5"/>
<text text-anchor="middle" x="538" y="-15.5" font-family="Helvetica,sans-Serif" font-size="10.00" fill="#000000">RPCConsole::message</text>
</a>
</g>
</g>
<!-- Node130&#45;&gt;Node139 -->
<g id="edge12" class="edge">
<title>Node130&#45;&gt;Node139</title>
<path fill="none" stroke="#191970" d="M423.9822,-46.411C444.0156,-41.4191 468.7023,-35.2676 489.976,-29.9666"/>
<polygon fill="#191970" stroke="#191970" points="490.9375,-33.3341 499.7945,-27.5201 489.245,-26.5418 490.9375,-33.3341"/>
</g>
<!-- Node132 -->
<g id="node6" class="node">
<title>Node132</title>
<g id="a_node6"><a xlink:href="class_platform_style.html#a76949291f8dfc8b7a34f90cf119ed8e4" target="_top" xlink:title="PlatformStyle::SingleColor">
<polygon fill="#ffffff" stroke="#000000" points="648,-114.5 648,-133.5 780,-133.5 780,-114.5 648,-114.5"/>
<text text-anchor="middle" x="714" y="-121.5" font-family="Helvetica,sans-Serif" font-size="10.00" fill="#000000">PlatformStyle::SingleColor</text>
</a>
</g>
</g>
<!-- Node131&#45;&gt;Node132 -->
<g id="edge5" class="edge">
<title>Node131&#45;&gt;Node132</title>
<path fill="none" stroke="#191970" d="M604.0366,-119.0017C615.0145,-119.5007 626.4795,-120.0218 637.6871,-120.5312"/>
<polygon fill="#191970" stroke="#191970" points="637.7374,-124.037 647.886,-120.9948 638.0553,-117.0443 637.7374,-124.037"/>
</g>
<!-- Node134 -->
<g id="node8" class="node">
<title>Node134</title>
<g id="a_node8"><a xlink:href="class_c_chain_params.html#a103c58eca4a26a71201882b3ed6c4cb4" target="_top" xlink:title="CChainParams::Base58Prefix">
<polygon fill="#ffffff" stroke="#000000" points="640,-76.5 640,-95.5 788,-95.5 788,-76.5 640,-76.5"/>
<text text-anchor="middle" x="714" y="-83.5" font-family="Helvetica,sans-Serif" font-size="10.00" fill="#000000">CChainParams::Base58Prefix</text>
</a>
</g>
</g>
<!-- Node133&#45;&gt;Node134 -->
<g id="edge7" class="edge">
<title>Node133&#45;&gt;Node134</title>
<path fill="none" stroke="#191970" d="M594.1714,-65.5747C611.2429,-68.4846 630.1613,-71.7093 647.8271,-74.7205"/>
<polygon fill="#191970" stroke="#191970" points="647.6143,-78.2347 658.0603,-76.4648 648.7906,-71.3342 647.6143,-78.2347"/>
</g>
<!-- Node135 -->
<g id="node9" class="node">
<title>Node135</title>
<g id="a_node9"><a xlink:href="base58_8cpp.html#a8d6f0e9d5df175b4966dcede31dc90ad" target="_top" xlink:title="Why base&#45;58 instead of standard base&#45;64 encoding? ">
<polygon fill="#ffffff" stroke="#000000" points="672.5,-38.5 672.5,-57.5 755.5,-57.5 755.5,-38.5 672.5,-38.5"/>
<text text-anchor="middle" x="714" y="-45.5" font-family="Helvetica,sans-Serif" font-size="10.00" fill="#000000">EncodeBase58</text>
</a>
</g>
</g>
<!-- Node133&#45;&gt;Node135 -->
<g id="edge8" class="edge">
<title>Node133&#45;&gt;Node135</title>
<path fill="none" stroke="#191970" d="M597.5856,-53.2916C618.4763,-52.342 641.7603,-51.2836 661.982,-50.3645"/>
<polygon fill="#191970" stroke="#191970" points="662.4179,-53.8483 672.2486,-49.8978 662.1,-46.8556 662.4179,-53.8483"/>
</g>
<!-- Node136 -->
<g id="node10" class="node">
<title>Node136</title>
<g id="a_node10"><a xlink:href="base58_8cpp.html#a32169f8eb6ebcce6412b675f9d23d878" target="_top" xlink:title="IsValidDestinationString">
<polygon fill="#ffffff" stroke="#000000" points="653,-.5 653,-19.5 775,-19.5 775,-.5 653,-.5"/>
<text text-anchor="middle" x="714" y="-7.5" font-family="Helvetica,sans-Serif" font-size="10.00" fill="#000000">IsValidDestinationString</text>
</a>
</g>
</g>
<!-- Node133&#45;&gt;Node136 -->
<g id="edge9" class="edge">
<title>Node133&#45;&gt;Node136</title>
<path fill="none" stroke="#191970" d="M573.8586,-46.4383C593.4022,-41.2445 618.0202,-34.7307 640,-29 648.6726,-26.7388 657.9223,-24.3476 666.8404,-22.0526"/>
<polygon fill="#191970" stroke="#191970" points="667.9054,-25.3927 676.7199,-19.5143 666.1635,-18.6129 667.9054,-25.3927"/>
</g>
<!-- Node137 -->
<g id="node11" class="node">
<title>Node137</title>
<g id="a_node11"><a xlink:href="class_c_raven_address.html#a3c442b9abc0cbfb0518e9b0c4744427c" target="_top" xlink:title="CRavenAddress::IsValid">
<polygon fill="#ffffff" stroke="#000000" points="824,-.5 824,-19.5 949,-19.5 949,-.5 824,-.5"/>
<text text-anchor="middle" x="886.5" y="-7.5" font-family="Helvetica,sans-Serif" font-size="10.00" fill="#000000">CRavenAddress::IsValid</text>
</a>
</g>
</g>
<!-- Node136&#45;&gt;Node137 -->
<g id="edge10" class="edge">
<title>Node136&#45;&gt;Node137</title>
<path fill="none" stroke="#191970" d="M775.3028,-10C787.7579,-10 800.9724,-10 813.7789,-10"/>
<polygon fill="#191970" stroke="#191970" points="813.9396,-13.5001 823.9396,-10 813.9396,-6.5001 813.9396,-13.5001"/>
</g>
<!-- Node138 -->
<g id="node12" class="node">
<title>Node138</title>
<g id="a_node12"><a xlink:href="chainparams_8cpp.html#ace5c5b706d71a324a417dd2db394fd4a" target="_top" xlink:title="Return the currently selected parameters. ">
<polygon fill="#ffffff" stroke="#000000" points="985,-.5 985,-19.5 1035,-19.5 1035,-.5 985,-.5"/>
<text text-anchor="middle" x="1010" y="-7.5" font-family="Helvetica,sans-Serif" font-size="10.00" fill="#000000">Params</text>
</a>
</g>
</g>
<!-- Node137&#45;&gt;Node138 -->
<g id="edge11" class="edge">
<title>Node137&#45;&gt;Node138</title>
<path fill="none" stroke="#191970" d="M949.3354,-10C958.119,-10 966.8734,-10 974.8872,-10"/>
<polygon fill="#191970" stroke="#191970" points="974.9359,-13.5001 984.9359,-10 974.9358,-6.5001 974.9359,-13.5001"/>
</g>
</g>
</svg>
