<?xml version="1.0" encoding="UTF-8" standalone="no"?>
<!DOCTYPE svg PUBLIC "-//W3C//DTD SVG 1.1//EN"
 "http://www.w3.org/Graphics/SVG/1.1/DTD/svg11.dtd">
<!-- Generated by graphviz version 2.40.1 (20161225.0304)
 -->
<!-- Title: SendCoinsDialog::updateCoinControlState Pages: 1 -->
<svg width="1847pt" height="329pt"
 viewBox="0.00 0.00 1847.00 329.00" xmlns="http://www.w3.org/2000/svg" xmlns:xlink="http://www.w3.org/1999/xlink">
<g id="graph0" class="graph" transform="scale(1 1) rotate(0) translate(4 325)">
<title>SendCoinsDialog::updateCoinControlState</title>
<polygon fill="#ffffff" stroke="transparent" points="-4,4 -4,-325 1843,-325 1843,4 -4,4"/>
<!-- Node994 -->
<g id="node1" class="node">
<title>Node994</title>
<polygon fill="#bfbfbf" stroke="#000000" points="0,-181.5 0,-211.5 148,-211.5 148,-181.5 0,-181.5"/>
<text text-anchor="start" x="8" y="-199.5" font-family="Helvetica,sans-Serif" font-size="10.00" fill="#000000">SendCoinsDialog::updateCoin</text>
<text text-anchor="middle" x="74" y="-188.5" font-family="Helvetica,sans-Serif" font-size="10.00" fill="#000000">ControlState</text>
</g>
<!-- Node995 -->
<g id="node2" class="node">
<title>Node995</title>
<g id="a_node2"><a xlink:href="class_send_coins_dialog.html#ac42a9db733fbb2e06882660400c49517" target="_top" xlink:title="SendCoinsDialog::updateSmart\lFeeLabel">
<polygon fill="#ffffff" stroke="#000000" points="184,-246.5 184,-276.5 338,-276.5 338,-246.5 184,-246.5"/>
<text text-anchor="start" x="192" y="-264.5" font-family="Helvetica,sans-Serif" font-size="10.00" fill="#000000">SendCoinsDialog::updateSmart</text>
<text text-anchor="middle" x="261" y="-253.5" font-family="Helvetica,sans-Serif" font-size="10.00" fill="#000000">FeeLabel</text>
</a>
</g>
</g>
<!-- Node994&#45;&gt;Node995 -->
<g id="edge1" class="edge">
<title>Node994&#45;&gt;Node995</title>
<path fill="none" stroke="#191970" d="M126.8274,-214.8625C155.4864,-224.8241 190.4777,-236.9869 217.5401,-246.3936"/>
<polygon fill="#191970" stroke="#191970" points="127.9664,-211.553 117.3716,-211.5757 125.6681,-218.165 127.9664,-211.553"/>
</g>
<!-- Node1007 -->
<g id="node14" class="node">
<title>Node1007</title>
<g id="a_node14"><a xlink:href="class_send_coins_dialog.html#ae4f429aabcaf309aa314b90049be2a74" target="_top" xlink:title="SendCoinsDialog::coinControl\lUpdateLabels">
<polygon fill="#ffffff" stroke="#000000" points="187,-140.5 187,-170.5 335,-170.5 335,-140.5 187,-140.5"/>
<text text-anchor="start" x="195" y="-158.5" font-family="Helvetica,sans-Serif" font-size="10.00" fill="#000000">SendCoinsDialog::coinControl</text>
<text text-anchor="middle" x="261" y="-147.5" font-family="Helvetica,sans-Serif" font-size="10.00" fill="#000000">UpdateLabels</text>
</a>
</g>
</g>
<!-- Node994&#45;&gt;Node1007 -->
<g id="edge15" class="edge">
<title>Node994&#45;&gt;Node1007</title>
<path fill="none" stroke="#191970" d="M152.5953,-179.2679C165.8333,-176.3654 179.4805,-173.3733 192.4382,-170.5323"/>
<polygon fill="#191970" stroke="#191970" points="151.5884,-175.9054 142.5701,-181.4659 153.0876,-182.743 151.5884,-175.9054"/>
</g>
<!-- Node996 -->
<g id="node3" class="node">
<title>Node996</title>
<g id="a_node3"><a xlink:href="class_send_coins_dialog.html#a360a23c02bd0e581b78603ccb863eb79" target="_top" xlink:title="SendCoinsDialog::setClient\lModel">
<polygon fill="#ffffff" stroke="#000000" points="395,-290.5 395,-320.5 532,-320.5 532,-290.5 395,-290.5"/>
<text text-anchor="start" x="403" y="-308.5" font-family="Helvetica,sans-Serif" font-size="10.00" fill="#000000">SendCoinsDialog::setClient</text>
<text text-anchor="middle" x="463.5" y="-297.5" font-family="Helvetica,sans-Serif" font-size="10.00" fill="#000000">Model</text>
</a>
</g>
</g>
<!-- Node995&#45;&gt;Node996 -->
<g id="edge2" class="edge">
<title>Node995&#45;&gt;Node996</title>
<path fill="none" stroke="#191970" d="M340.0304,-278.672C358.0757,-282.593 377.1115,-286.7292 394.6889,-290.5484"/>
<polygon fill="#191970" stroke="#191970" points="340.6378,-275.2224 330.1226,-276.5192 339.1514,-282.0628 340.6378,-275.2224"/>
</g>
<!-- Node1004 -->
<g id="node11" class="node">
<title>Node1004</title>
<g id="a_node11"><a xlink:href="class_send_coins_dialog.html#a74815ad8502b126200b6fd2e59e9f042" target="_top" xlink:title="SendCoinsDialog::updateDisplayUnit">
<polygon fill="#ffffff" stroke="#000000" points="374,-252 374,-271 553,-271 553,-252 374,-252"/>
<text text-anchor="middle" x="463.5" y="-259" font-family="Helvetica,sans-Serif" font-size="10.00" fill="#000000">SendCoinsDialog::updateDisplayUnit</text>
</a>
</g>
</g>
<!-- Node995&#45;&gt;Node1004 -->
<g id="edge11" class="edge">
<title>Node995&#45;&gt;Node1004</title>
<path fill="none" stroke="#191970" d="M348.3114,-261.5C356.7211,-261.5 365.2616,-261.5 373.6948,-261.5"/>
<polygon fill="#191970" stroke="#191970" points="348.1343,-258.0001 338.1342,-261.5 348.1342,-265.0001 348.1343,-258.0001"/>
</g>
<!-- Node997 -->
<g id="node4" class="node">
<title>Node997</title>
<g id="a_node4"><a xlink:href="class_wallet_view.html#a46d9a8d93adfdcc29cae9ff0d44c313e" target="_top" xlink:title="Set the client model. ">
<polygon fill="#ffffff" stroke="#000000" points="594.5,-269 594.5,-288 731.5,-288 731.5,-269 594.5,-269"/>
<text text-anchor="middle" x="663" y="-276" font-family="Helvetica,sans-Serif" font-size="10.00" fill="#000000">WalletView::setClientModel</text>
</a>
</g>
</g>
<!-- Node996&#45;&gt;Node997 -->
<g id="edge3" class="edge">
<title>Node996&#45;&gt;Node997</title>
<path fill="none" stroke="#191970" d="M542.1653,-294.8536C559.3641,-292.5259 577.4392,-290.0797 594.2169,-287.809"/>
<polygon fill="#191970" stroke="#191970" points="541.5968,-291.3985 532.1566,-296.2081 542.5357,-298.3353 541.5968,-291.3985"/>
</g>
<!-- Node998 -->
<g id="node5" class="node">
<title>Node998</title>
<g id="a_node5"><a xlink:href="class_wallet_frame.html#aa199c3f27654199d84c365cf86167d86" target="_top" xlink:title="WalletFrame::addWallet">
<polygon fill="#ffffff" stroke="#000000" points="985,-237 985,-256 1107,-256 1107,-237 985,-237"/>
<text text-anchor="middle" x="1046" y="-244" font-family="Helvetica,sans-Serif" font-size="10.00" fill="#000000">WalletFrame::addWallet</text>
</a>
</g>
</g>
<!-- Node997&#45;&gt;Node998 -->
<g id="edge4" class="edge">
<title>Node997&#45;&gt;Node998</title>
<path fill="none" stroke="#191970" d="M741.9384,-273.0355C794.4226,-269.2753 864.8662,-263.9855 927,-258.5 945.8225,-256.8383 966.3,-254.8416 984.8775,-252.9581"/>
<polygon fill="#191970" stroke="#191970" points="741.4143,-269.5639 731.6888,-273.7667 741.9125,-276.5461 741.4143,-269.5639"/>
</g>
<!-- Node999 -->
<g id="node6" class="node">
<title>Node999</title>
<g id="a_node6"><a xlink:href="class_raven_g_u_i.html#a174a3e75c334c5930d3261a2955c3725" target="_top" xlink:title="Set the client model. ">
<polygon fill="#ffffff" stroke="#000000" points="1168,-237 1168,-256 1302,-256 1302,-237 1168,-237"/>
<text text-anchor="middle" x="1235" y="-244" font-family="Helvetica,sans-Serif" font-size="10.00" fill="#000000">RavenGUI::setClientModel</text>
</a>
</g>
</g>
<!-- Node998&#45;&gt;Node999 -->
<g id="edge5" class="edge">
<title>Node998&#45;&gt;Node999</title>
<path fill="none" stroke="#191970" d="M1117.283,-246.5C1133.8779,-246.5 1151.491,-246.5 1167.898,-246.5"/>
<polygon fill="#191970" stroke="#191970" points="1117.1019,-243.0001 1107.1019,-246.5 1117.1018,-250.0001 1117.1019,-243.0001"/>
</g>
<!-- Node1000 -->
<g id="node7" class="node">
<title>Node1000</title>
<g id="a_node7"><a xlink:href="class_raven_application.html#a60123f611cc210870fa67974cb2c804c" target="_top" xlink:title="Request core shutdown. ">
<polygon fill="#ffffff" stroke="#000000" points="1708,-228.5 1708,-258.5 1839,-258.5 1839,-228.5 1708,-228.5"/>
<text text-anchor="start" x="1716" y="-246.5" font-family="Helvetica,sans-Serif" font-size="10.00" fill="#000000">RavenApplication::request</text>
<text text-anchor="middle" x="1773.5" y="-235.5" font-family="Helvetica,sans-Serif" font-size="10.00" fill="#000000">Shutdown</text>
</a>
</g>
</g>
<!-- Node999&#45;&gt;Node1000 -->
<g id="edge6" class="edge">
<title>Node999&#45;&gt;Node1000</title>
<path fill="none" stroke="#191970" d="M1312.1242,-246.0703C1418.3229,-245.4787 1607.7552,-244.4234 1707.6535,-243.8668"/>
<polygon fill="#191970" stroke="#191970" points="1312.0929,-242.5704 1302.1126,-246.1261 1312.132,-249.5703 1312.0929,-242.5704"/>
</g>
<!-- Node1001 -->
<g id="node8" class="node">
<title>Node1001</title>
<g id="a_node8"><a xlink:href="class_raven_application.html#a1a3dcf33ba44507984b2a04e7ebf1542" target="_top" xlink:title="RavenApplication::initialize\lResult">
<polygon fill="#ffffff" stroke="#000000" points="1347,-272.5 1347,-302.5 1481,-302.5 1481,-272.5 1347,-272.5"/>
<text text-anchor="start" x="1355" y="-290.5" font-family="Helvetica,sans-Serif" font-size="10.00" fill="#000000">RavenApplication::initialize</text>
<text text-anchor="middle" x="1414" y="-279.5" font-family="Helvetica,sans-Serif" font-size="10.00" fill="#000000">Result</text>
</a>
</g>
</g>
<!-- Node999&#45;&gt;Node1001 -->
<g id="edge7" class="edge">
<title>Node999&#45;&gt;Node1001</title>
<path fill="none" stroke="#191970" d="M1286.305,-258.2514C1305.5785,-262.666 1327.7608,-267.7469 1348.1731,-272.4223"/>
<polygon fill="#191970" stroke="#191970" points="1287.0452,-254.8304 1276.5161,-256.0093 1285.4822,-261.6537 1287.0452,-254.8304"/>
</g>
<!-- Node1002 -->
<g id="node9" class="node">
<title>Node1002</title>
<g id="a_node9"><a xlink:href="class_raven_application.html#aecfdce3a245b959def5dd35e5cfb192e" target="_top" xlink:title="RavenApplication::startThread">
<polygon fill="#ffffff" stroke="#000000" points="1523,-278 1523,-297 1672,-297 1672,-278 1523,-278"/>
<text text-anchor="middle" x="1597.5" y="-285" font-family="Helvetica,sans-Serif" font-size="10.00" fill="#000000">RavenApplication::startThread</text>
</a>
</g>
</g>
<!-- Node1001&#45;&gt;Node1002 -->
<g id="edge8" class="edge">
<title>Node1001&#45;&gt;Node1002</title>
<path fill="none" stroke="#191970" d="M1491.0393,-287.5C1501.5875,-287.5 1512.4019,-287.5 1522.9054,-287.5"/>
<polygon fill="#191970" stroke="#191970" points="1491.0267,-284.0001 1481.0266,-287.5 1491.0266,-291.0001 1491.0267,-284.0001"/>
</g>
<!-- Node1002&#45;&gt;Node1000 -->
<g id="edge10" class="edge">
<title>Node1002&#45;&gt;Node1000</title>
<path fill="none" stroke="#191970" d="M1645.6046,-275.4739C1666.4811,-270.2547 1691.1576,-264.0856 1713.2385,-258.5654"/>
<polygon fill="#191970" stroke="#191970" points="1644.5419,-272.1317 1635.6894,-277.9527 1646.2397,-278.9227 1644.5419,-272.1317"/>
</g>
<!-- Node1003 -->
<g id="node10" class="node">
<title>Node1003</title>
<g id="a_node10"><a xlink:href="class_raven_application.html#a63a2032fef875fb81f26c212f69d000d" target="_top" xlink:title="Request core initialization. ">
<polygon fill="#ffffff" stroke="#000000" points="1708,-277.5 1708,-307.5 1839,-307.5 1839,-277.5 1708,-277.5"/>
<text text-anchor="start" x="1716" y="-295.5" font-family="Helvetica,sans-Serif" font-size="10.00" fill="#000000">RavenApplication::request</text>
<text text-anchor="middle" x="1773.5" y="-284.5" font-family="Helvetica,sans-Serif" font-size="10.00" fill="#000000">Initialize</text>
</a>
</g>
</g>
<!-- Node1002&#45;&gt;Node1003 -->
<g id="edge9" class="edge">
<title>Node1002&#45;&gt;Node1003</title>
<path fill="none" stroke="#191970" d="M1682.2384,-289.9073C1690.8743,-290.1527 1699.5522,-290.3992 1707.9387,-290.6375"/>
<polygon fill="#191970" stroke="#191970" points="1682.2352,-286.4059 1672.1398,-289.6205 1682.0364,-293.4031 1682.2352,-286.4059"/>
</g>
<!-- Node1005 -->
<g id="node12" class="node">
<title>Node1005</title>
<g id="a_node12"><a xlink:href="class_send_coins_dialog.html#a73a6c1b1850a334ee652ac167713a2aa" target="_top" xlink:title="SendCoinsDialog::setModel">
<polygon fill="#ffffff" stroke="#000000" points="594,-228 594,-247 732,-247 732,-228 594,-228"/>
<text text-anchor="middle" x="663" y="-235" font-family="Helvetica,sans-Serif" font-size="10.00" fill="#000000">SendCoinsDialog::setModel</text>
</a>
</g>
</g>
<!-- Node1004&#45;&gt;Node1005 -->
<g id="edge12" class="edge">
<title>Node1004&#45;&gt;Node1005</title>
<path fill="none" stroke="#191970" d="M552.6578,-250.7742C566.5118,-249.1076 580.6414,-247.4078 593.9614,-245.8054"/>
<polygon fill="#191970" stroke="#191970" points="552.1446,-247.3107 542.6342,-251.9801 552.9807,-254.2606 552.1446,-247.3107"/>
</g>
<!-- Node1006 -->
<g id="node13" class="node">
<title>Node1006</title>
<g id="a_node13"><a xlink:href="class_wallet_view.html#a0a37ff693a4f9c1e5ddc23f9cd3913be" target="_top" xlink:title="Set the wallet model. ">
<polygon fill="#ffffff" stroke="#000000" points="780,-230 780,-249 920,-249 920,-230 780,-230"/>
<text text-anchor="middle" x="850" y="-237" font-family="Helvetica,sans-Serif" font-size="10.00" fill="#000000">WalletView::setWalletModel</text>
</a>
</g>
</g>
<!-- Node1005&#45;&gt;Node1006 -->
<g id="edge13" class="edge">
<title>Node1005&#45;&gt;Node1006</title>
<path fill="none" stroke="#191970" d="M742.4622,-238.3499C754.9164,-238.4831 767.7107,-238.6199 779.9338,-238.7506"/>
<polygon fill="#191970" stroke="#191970" points="742.1375,-234.8463 732.1006,-238.239 742.0626,-241.8459 742.1375,-234.8463"/>
</g>
<!-- Node1006&#45;&gt;Node998 -->
<g id="edge14" class="edge">
<title>Node1006&#45;&gt;Node998</title>
<path fill="none" stroke="#191970" d="M930.2133,-242.3648C948.4116,-243.0147 967.4567,-243.6949 984.7235,-244.3116"/>
<polygon fill="#191970" stroke="#191970" points="930.3255,-238.8666 920.2069,-242.0074 930.0756,-245.8622 930.3255,-238.8666"/>
</g>
<!-- Node1007&#45;&gt;Node1005 -->
<g id="edge16" class="edge">
<title>Node1007&#45;&gt;Node1005</title>
<path fill="none" stroke="#191970" d="M298.531,-175.1109C320.0559,-185.4988 347.909,-197.5194 374,-204.5 447.5416,-224.1759 534.6857,-232.1221 593.9105,-235.3301"/>
<polygon fill="#191970" stroke="#191970" points="299.9352,-171.9011 289.4171,-170.6281 296.8456,-178.1824 299.9352,-171.9011"/>
</g>
<!-- Node1008 -->
<g id="node15" class="node">
<title>Node1008</title>
<g id="a_node15"><a xlink:href="class_send_coins_dialog.html#a3d680a76b967641115c6ff2fa83fb62a" target="_top" xlink:title="SendCoinsDialog::addEntry">
<polygon fill="#ffffff" stroke="#000000" points="594.5,-107 594.5,-126 731.5,-126 731.5,-107 594.5,-107"/>
<text text-anchor="middle" x="663" y="-114" font-family="Helvetica,sans-Serif" font-size="10.00" fill="#000000">SendCoinsDialog::addEntry</text>
</a>
</g>
</g>
<!-- Node1007&#45;&gt;Node1008 -->
<g id="edge17" class="edge">
<title>Node1007&#45;&gt;Node1008</title>
<path fill="none" stroke="#191970" d="M295.7234,-135.5999C317.4485,-124.3175 346.4519,-111.3225 374,-105.5 455.547,-88.2646 552.8539,-98.0065 611.1939,-106.9866"/>
<polygon fill="#191970" stroke="#191970" points="294.067,-132.5165 286.8837,-140.3044 297.3557,-138.6959 294.067,-132.5165"/>
</g>
<!-- Node1021 -->
<g id="node28" class="node">
<title>Node1021</title>
<g id="a_node28"><a xlink:href="class_send_coins_dialog.html#a3b834c739f7d02d8086a2bf58525c5f0" target="_top" xlink:title="SendCoinsDialog::updateTabs\lAndLabels">
<polygon fill="#ffffff" stroke="#000000" points="389,-115.5 389,-145.5 538,-145.5 538,-115.5 389,-115.5"/>
<text text-anchor="start" x="397" y="-133.5" font-family="Helvetica,sans-Serif" font-size="10.00" fill="#000000">SendCoinsDialog::updateTabs</text>
<text text-anchor="middle" x="463.5" y="-122.5" font-family="Helvetica,sans-Serif" font-size="10.00" fill="#000000">AndLabels</text>
</a>
</g>
</g>
<!-- Node1007&#45;&gt;Node1021 -->
<g id="edge32" class="edge">
<title>Node1007&#45;&gt;Node1021</title>
<path fill="none" stroke="#191970" d="M345.2024,-145.1046C359.7055,-143.3141 374.6892,-141.4643 388.9165,-139.7078"/>
<polygon fill="#191970" stroke="#191970" points="344.7495,-141.6339 335.2537,-146.3329 345.6072,-148.5812 344.7495,-141.6339"/>
</g>
<!-- Node1022 -->
<g id="node29" class="node">
<title>Node1022</title>
<g id="a_node29"><a xlink:href="class_send_coins_dialog.html#af13ddd00abec4f060632d887b5e838a3" target="_top" xlink:title="SendCoinsDialog::coinControl\lFeatureChanged">
<polygon fill="#ffffff" stroke="#000000" points="389.5,-164.5 389.5,-194.5 537.5,-194.5 537.5,-164.5 389.5,-164.5"/>
<text text-anchor="start" x="397.5" y="-182.5" font-family="Helvetica,sans-Serif" font-size="10.00" fill="#000000">SendCoinsDialog::coinControl</text>
<text text-anchor="middle" x="463.5" y="-171.5" font-family="Helvetica,sans-Serif" font-size="10.00" fill="#000000">FeatureChanged</text>
</a>
</g>
</g>
<!-- Node1007&#45;&gt;Node1022 -->
<g id="edge37" class="edge">
<title>Node1007&#45;&gt;Node1022</title>
<path fill="none" stroke="#191970" d="M345.2671,-165.4872C359.8653,-167.2174 374.9484,-169.005 389.2553,-170.7006"/>
<polygon fill="#191970" stroke="#191970" points="345.5961,-162.0018 335.2537,-164.3004 344.7722,-168.9531 345.5961,-162.0018"/>
</g>
<!-- Node1023 -->
<g id="node30" class="node">
<title>Node1023</title>
<g id="a_node30"><a xlink:href="class_send_coins_dialog.html#a59d757d9e4bea5b380eb480fd79cfb49" target="_top" xlink:title="SendCoinsDialog::coinControl\lButtonClicked">
<polygon fill="#ffffff" stroke="#000000" points="589,-3.5 589,-33.5 737,-33.5 737,-3.5 589,-3.5"/>
<text text-anchor="start" x="597" y="-21.5" font-family="Helvetica,sans-Serif" font-size="10.00" fill="#000000">SendCoinsDialog::coinControl</text>
<text text-anchor="middle" x="663" y="-10.5" font-family="Helvetica,sans-Serif" font-size="10.00" fill="#000000">ButtonClicked</text>
</a>
</g>
</g>
<!-- Node1007&#45;&gt;Node1023 -->
<g id="edge39" class="edge">
<title>Node1007&#45;&gt;Node1023</title>
<path fill="none" stroke="#191970" d="M292.548,-135.0019C314.6286,-121.3933 345.2132,-103.9856 374,-92.5 444.7139,-64.2859 529.5085,-44.0741 588.8966,-31.9775"/>
<polygon fill="#191970" stroke="#191970" points="290.5586,-132.1178 283.9326,-140.385 294.2679,-138.0543 290.5586,-132.1178"/>
</g>
<!-- Node1009 -->
<g id="node16" class="node">
<title>Node1009</title>
<g id="a_node16"><a xlink:href="class_send_coins_dialog.html#affacd36b4df87a68e2fe706ef388c0a6" target="_top" xlink:title="SendCoinsDialog::SendCoins\lDialog">
<polygon fill="#ffffff" stroke="#000000" points="973,-.5 973,-30.5 1119,-30.5 1119,-.5 973,-.5"/>
<text text-anchor="start" x="981" y="-18.5" font-family="Helvetica,sans-Serif" font-size="10.00" fill="#000000">SendCoinsDialog::SendCoins</text>
<text text-anchor="middle" x="1046" y="-7.5" font-family="Helvetica,sans-Serif" font-size="10.00" fill="#000000">Dialog</text>
</a>
</g>
</g>
<!-- Node1008&#45;&gt;Node1009 -->
<g id="edge18" class="edge">
<title>Node1008&#45;&gt;Node1009</title>
<path fill="none" stroke="#191970" d="M686.4155,-101.5576C708.0496,-88.4478 741.5094,-69.8987 773,-59.5 809.0702,-47.589 904.8664,-33.5904 972.7643,-24.6366"/>
<polygon fill="#191970" stroke="#191970" points="684.3056,-98.7468 677.6328,-106.9763 687.9812,-104.7042 684.3056,-98.7468"/>
</g>
<!-- Node1010 -->
<g id="node17" class="node">
<title>Node1010</title>
<g id="a_node17"><a xlink:href="class_send_coins_dialog.html#a127bddff45f49ff5e6e263efe218ae26" target="_top" xlink:title="SendCoinsDialog::clear">
<polygon fill="#ffffff" stroke="#000000" points="790.5,-69 790.5,-88 909.5,-88 909.5,-69 790.5,-69"/>
<text text-anchor="middle" x="850" y="-76" font-family="Helvetica,sans-Serif" font-size="10.00" fill="#000000">SendCoinsDialog::clear</text>
</a>
</g>
</g>
<!-- Node1008&#45;&gt;Node1010 -->
<g id="edge19" class="edge">
<title>Node1008&#45;&gt;Node1010</title>
<path fill="none" stroke="#191970" d="M720.131,-104.8905C746.7267,-99.486 777.9731,-93.1365 803.1513,-88.0201"/>
<polygon fill="#191970" stroke="#191970" points="719.2907,-101.4896 710.188,-106.911 720.6847,-108.3494 719.2907,-101.4896"/>
</g>
<!-- Node1013 -->
<g id="node20" class="node">
<title>Node1013</title>
<g id="a_node20"><a xlink:href="class_send_coins_dialog.html#aabd82a79bd2358493f36425f1d62136b" target="_top" xlink:title="SendCoinsDialog::removeEntry">
<polygon fill="#ffffff" stroke="#000000" points="773,-145 773,-164 927,-164 927,-145 773,-145"/>
<text text-anchor="middle" x="850" y="-152" font-family="Helvetica,sans-Serif" font-size="10.00" fill="#000000">SendCoinsDialog::removeEntry</text>
</a>
</g>
</g>
<!-- Node1008&#45;&gt;Node1013 -->
<g id="edge23" class="edge">
<title>Node1008&#45;&gt;Node1013</title>
<path fill="none" stroke="#191970" d="M741.79,-125.8356C772.2236,-131.7081 804.7899,-138.989 826.1531,-144.9684"/>
<polygon fill="#191970" stroke="#191970" points="742.0464,-122.3221 731.5701,-123.902 740.745,-129.2001 742.0464,-122.3221"/>
</g>
<!-- Node1014 -->
<g id="node21" class="node">
<title>Node1014</title>
<g id="a_node21"><a xlink:href="class_send_coins_dialog.html#a920b2dbf121ca3cfac2adc56e96295f8" target="_top" xlink:title="SendCoinsDialog::setAddress">
<polygon fill="#ffffff" stroke="#000000" points="776,-107 776,-126 924,-126 924,-107 776,-107"/>
<text text-anchor="middle" x="850" y="-114" font-family="Helvetica,sans-Serif" font-size="10.00" fill="#000000">SendCoinsDialog::setAddress</text>
</a>
</g>
</g>
<!-- Node1008&#45;&gt;Node1014 -->
<g id="edge25" class="edge">
<title>Node1008&#45;&gt;Node1014</title>
<path fill="none" stroke="#191970" d="M741.805,-116.5C753.0599,-116.5 764.6063,-116.5 775.7695,-116.5"/>
<polygon fill="#191970" stroke="#191970" points="741.5701,-113.0001 731.5701,-116.5 741.57,-120.0001 741.5701,-113.0001"/>
</g>
<!-- Node1016 -->
<g id="node23" class="node">
<title>Node1016</title>
<g id="a_node23"><a xlink:href="class_send_coins_dialog.html#a4440d15ced5d217baaad33a17d56b409" target="_top" xlink:title="SendCoinsDialog::pasteEntry">
<polygon fill="#ffffff" stroke="#000000" points="777,-183 777,-202 923,-202 923,-183 777,-183"/>
<text text-anchor="middle" x="850" y="-190" font-family="Helvetica,sans-Serif" font-size="10.00" fill="#000000">SendCoinsDialog::pasteEntry</text>
</a>
</g>
</g>
<!-- Node1008&#45;&gt;Node1016 -->
<g id="edge27" class="edge">
<title>Node1008&#45;&gt;Node1016</title>
<path fill="none" stroke="#191970" d="M687.3735,-131.2657C709.1682,-143.9433 742.3135,-161.9494 773,-173.5 782.7936,-177.1864 793.5587,-180.3586 803.8552,-182.9969"/>
<polygon fill="#191970" stroke="#191970" points="688.8799,-128.0908 678.4883,-126.0257 685.324,-134.1204 688.8799,-128.0908"/>
</g>
<!-- Node1010&#45;&gt;Node1009 -->
<g id="edge20" class="edge">
<title>Node1010&#45;&gt;Node1009</title>
<path fill="none" stroke="#191970" d="M892.1014,-65.951C903.4801,-62.4035 915.7553,-58.4337 927,-54.5 943.2044,-48.8313 946.7686,-46.091 963,-40.5 972.8178,-37.1182 983.3729,-33.7432 993.5547,-30.6171"/>
<polygon fill="#191970" stroke="#191970" points="890.9059,-62.6569 882.3812,-68.9482 892.9685,-69.3461 890.9059,-62.6569"/>
</g>
<!-- Node1011 -->
<g id="node18" class="node">
<title>Node1011</title>
<g id="a_node18"><a xlink:href="class_send_coins_dialog.html#a4879553d77d29f522ac92ac04580f4ad" target="_top" xlink:title="SendCoinsDialog::reject">
<polygon fill="#ffffff" stroke="#000000" points="985,-50 985,-69 1107,-69 1107,-50 985,-50"/>
<text text-anchor="middle" x="1046" y="-57" font-family="Helvetica,sans-Serif" font-size="10.00" fill="#000000">SendCoinsDialog::reject</text>
</a>
</g>
</g>
<!-- Node1010&#45;&gt;Node1011 -->
<g id="edge21" class="edge">
<title>Node1010&#45;&gt;Node1011</title>
<path fill="none" stroke="#191970" d="M919.5823,-71.7548C940.9328,-69.6851 964.2532,-67.4244 984.9855,-65.4147"/>
<polygon fill="#191970" stroke="#191970" points="919.2204,-68.2734 909.6048,-72.722 919.8958,-75.2407 919.2204,-68.2734"/>
</g>
<!-- Node1012 -->
<g id="node19" class="node">
<title>Node1012</title>
<g id="a_node19"><a xlink:href="class_send_coins_dialog.html#af2185c3d29e43d37c30669f0def46060" target="_top" xlink:title="SendCoinsDialog::accept">
<polygon fill="#ffffff" stroke="#000000" points="982,-88 982,-107 1110,-107 1110,-88 982,-88"/>
<text text-anchor="middle" x="1046" y="-95" font-family="Helvetica,sans-Serif" font-size="10.00" fill="#000000">SendCoinsDialog::accept</text>
</a>
</g>
</g>
<!-- Node1010&#45;&gt;Node1012 -->
<g id="edge22" class="edge">
<title>Node1010&#45;&gt;Node1012</title>
<path fill="none" stroke="#191970" d="M919.7068,-85.2573C939.9731,-87.2219 962.0051,-89.3576 981.9086,-91.2871"/>
<polygon fill="#191970" stroke="#191970" points="919.8958,-81.7593 909.6048,-84.278 919.2204,-88.7266 919.8958,-81.7593"/>
</g>
<!-- Node1013&#45;&gt;Node1008 -->
<g id="edge24" class="edge">
<title>Node1013&#45;&gt;Node1008</title>
<path fill="none" stroke="#191970" d="M762.4833,-143.4536C734.7892,-137.9399 706.3922,-131.4909 687.0642,-126.0924"/>
<polygon fill="#191970" stroke="#191970" points="762.1507,-146.9547 772.6365,-145.4389 763.4941,-140.0848 762.1507,-146.9547"/>
</g>
<!-- Node1015 -->
<g id="node22" class="node">
<title>Node1015</title>
<g id="a_node22"><a xlink:href="class_wallet_view.html#a2a70c2b00b097dd7b83b6915bb037ea3" target="_top" xlink:title="Switch to send coins page. ">
<polygon fill="#ffffff" stroke="#000000" points="965.5,-126 965.5,-145 1126.5,-145 1126.5,-126 965.5,-126"/>
<text text-anchor="middle" x="1046" y="-133" font-family="Helvetica,sans-Serif" font-size="10.00" fill="#000000">WalletView::gotoSendCoinsPage</text>
</a>
</g>
</g>
<!-- Node1014&#45;&gt;Node1015 -->
<g id="edge26" class="edge">
<title>Node1014&#45;&gt;Node1015</title>
<path fill="none" stroke="#191970" d="M934.2836,-124.6703C944.5535,-125.6659 955.0283,-126.6813 965.245,-127.6717"/>
<polygon fill="#191970" stroke="#191970" points="934.3903,-121.1644 924.0992,-123.6831 933.7148,-128.1317 934.3903,-121.1644"/>
</g>
<!-- Node1017 -->
<g id="node24" class="node">
<title>Node1017</title>
<g id="a_node24"><a xlink:href="class_send_coins_dialog.html#a82ed6a3badadaa523415e1924ebd292a" target="_top" xlink:title="SendCoinsDialog::handlePayment\lRequest">
<polygon fill="#ffffff" stroke="#000000" points="963,-177.5 963,-207.5 1129,-207.5 1129,-177.5 963,-177.5"/>
<text text-anchor="start" x="971" y="-195.5" font-family="Helvetica,sans-Serif" font-size="10.00" fill="#000000">SendCoinsDialog::handlePayment</text>
<text text-anchor="middle" x="1046" y="-184.5" font-family="Helvetica,sans-Serif" font-size="10.00" fill="#000000">Request</text>
</a>
</g>
</g>
<!-- Node1016&#45;&gt;Node1017 -->
<g id="edge28" class="edge">
<title>Node1016&#45;&gt;Node1017</title>
<path fill="none" stroke="#191970" d="M933.3754,-192.5C943.1657,-192.5 953.1551,-192.5 962.9411,-192.5"/>
<polygon fill="#191970" stroke="#191970" points="933.2619,-189.0001 923.2619,-192.5 933.2619,-196.0001 933.2619,-189.0001"/>
</g>
<!-- Node1018 -->
<g id="node25" class="node">
<title>Node1018</title>
<g id="a_node25"><a xlink:href="class_wallet_view.html#a0ae21d91a9d7755026ce2a6846cef68d" target="_top" xlink:title="WalletView::handlePayment\lRequest">
<polygon fill="#ffffff" stroke="#000000" points="1165,-177.5 1165,-207.5 1305,-207.5 1305,-177.5 1165,-177.5"/>
<text text-anchor="start" x="1173" y="-195.5" font-family="Helvetica,sans-Serif" font-size="10.00" fill="#000000">WalletView::handlePayment</text>
<text text-anchor="middle" x="1235" y="-184.5" font-family="Helvetica,sans-Serif" font-size="10.00" fill="#000000">Request</text>
</a>
</g>
</g>
<!-- Node1017&#45;&gt;Node1018 -->
<g id="edge29" class="edge">
<title>Node1017&#45;&gt;Node1018</title>
<path fill="none" stroke="#191970" d="M1139.2411,-192.5C1147.8374,-192.5 1156.4476,-192.5 1164.7871,-192.5"/>
<polygon fill="#191970" stroke="#191970" points="1139.1732,-189.0001 1129.1732,-192.5 1139.1732,-196.0001 1139.1732,-189.0001"/>
</g>
<!-- Node1019 -->
<g id="node26" class="node">
<title>Node1019</title>
<g id="a_node26"><a xlink:href="class_wallet_frame.html#aa8c5b10f2240df164795619ca41c619c" target="_top" xlink:title="WalletFrame::handlePayment\lRequest">
<polygon fill="#ffffff" stroke="#000000" points="1341,-177.5 1341,-207.5 1487,-207.5 1487,-177.5 1341,-177.5"/>
<text text-anchor="start" x="1349" y="-195.5" font-family="Helvetica,sans-Serif" font-size="10.00" fill="#000000">WalletFrame::handlePayment</text>
<text text-anchor="middle" x="1414" y="-184.5" font-family="Helvetica,sans-Serif" font-size="10.00" fill="#000000">Request</text>
</a>
</g>
</g>
<!-- Node1018&#45;&gt;Node1019 -->
<g id="edge30" class="edge">
<title>Node1018&#45;&gt;Node1019</title>
<path fill="none" stroke="#191970" d="M1315.4336,-192.5C1323.858,-192.5 1332.3906,-192.5 1340.7288,-192.5"/>
<polygon fill="#191970" stroke="#191970" points="1315.2318,-189.0001 1305.2318,-192.5 1315.2318,-196.0001 1315.2318,-189.0001"/>
</g>
<!-- Node1020 -->
<g id="node27" class="node">
<title>Node1020</title>
<g id="a_node27"><a xlink:href="class_raven_g_u_i.html#a6d7d2d398b230d83e37ea8b22acd4d9a" target="_top" xlink:title="RavenGUI::eventFilter">
<polygon fill="#ffffff" stroke="#000000" points="1540,-183 1540,-202 1655,-202 1655,-183 1540,-183"/>
<text text-anchor="middle" x="1597.5" y="-190" font-family="Helvetica,sans-Serif" font-size="10.00" fill="#000000">RavenGUI::eventFilter</text>
</a>
</g>
</g>
<!-- Node1019&#45;&gt;Node1020 -->
<g id="edge31" class="edge">
<title>Node1019&#45;&gt;Node1020</title>
<path fill="none" stroke="#191970" d="M1497.4474,-192.5C1511.8192,-192.5 1526.465,-192.5 1539.9586,-192.5"/>
<polygon fill="#191970" stroke="#191970" points="1497.0514,-189.0001 1487.0513,-192.5 1497.0513,-196.0001 1497.0514,-189.0001"/>
</g>
<!-- Node1021&#45;&gt;Node1008 -->
<g id="edge34" class="edge">
<title>Node1021&#45;&gt;Node1008</title>
<path fill="none" stroke="#191970" d="M548.1368,-124.5606C563.5887,-123.4762 579.5359,-122.3571 594.4487,-121.3106"/>
<polygon fill="#191970" stroke="#191970" points="547.8006,-121.0755 538.0701,-125.267 548.2906,-128.0583 547.8006,-121.0755"/>
</g>
<!-- Node1021&#45;&gt;Node1010 -->
<g id="edge33" class="edge">
<title>Node1021&#45;&gt;Node1010</title>
<path fill="none" stroke="#191970" d="M521.9379,-112.7419C542.9054,-107.0085 566.8414,-101.1874 589,-97.5 657.4566,-86.1082 737.1428,-81.5464 790.2853,-79.7197"/>
<polygon fill="#191970" stroke="#191970" points="520.9117,-109.3944 512.2183,-115.4505 522.7908,-116.1375 520.9117,-109.3944"/>
</g>
<!-- Node1021&#45;&gt;Node1013 -->
<g id="edge35" class="edge">
<title>Node1021&#45;&gt;Node1013</title>
<path fill="none" stroke="#191970" d="M548.1201,-135.7545C615.0655,-139.9116 707.7711,-145.6682 772.7294,-149.7018"/>
<polygon fill="#191970" stroke="#191970" points="548.2188,-132.254 538.0211,-135.1274 547.7849,-139.2406 548.2188,-132.254"/>
</g>
<!-- Node1021&#45;&gt;Node1016 -->
<g id="edge36" class="edge">
<title>Node1021&#45;&gt;Node1016</title>
<path fill="none" stroke="#191970" d="M538.8897,-147.7247C555.3573,-151.2055 572.7272,-154.663 589,-157.5 652.1668,-168.5126 724.4585,-177.9636 776.9178,-184.2587"/>
<polygon fill="#191970" stroke="#191970" points="539.2817,-144.2294 528.7707,-145.5597 537.8171,-151.0745 539.2817,-144.2294"/>
</g>
<!-- Node1022&#45;&gt;Node1005 -->
<g id="edge38" class="edge">
<title>Node1022&#45;&gt;Node1005</title>
<path fill="none" stroke="#191970" d="M525.1568,-197.4253C559.7742,-207.4895 601.5946,-219.6478 630.0278,-227.9141"/>
<polygon fill="#191970" stroke="#191970" points="525.7152,-193.9428 515.1357,-194.5119 523.761,-200.6645 525.7152,-193.9428"/>
</g>
<!-- Node1023&#45;&gt;Node1009 -->
<g id="edge40" class="edge">
<title>Node1023&#45;&gt;Node1009</title>
<path fill="none" stroke="#191970" d="M747.4799,-17.8383C814.9685,-17.3096 908.5776,-16.5764 972.8822,-16.0727"/>
<polygon fill="#191970" stroke="#191970" points="747.2726,-14.3397 737.3004,-17.918 747.3275,-21.3395 747.2726,-14.3397"/>
</g>
</g>
</svg>
