<?xml version="1.0" encoding="UTF-8" standalone="no"?>
<!DOCTYPE svg PUBLIC "-//W3C//DTD SVG 1.1//EN"
 "http://www.w3.org/Graphics/SVG/1.1/DTD/svg11.dtd">
<!-- Generated by graphviz version 2.40.1 (20161225.0304)
 -->
<!-- Title: UniValue::write Pages: 1 -->
<svg width="482pt" height="180pt"
 viewBox="0.00 0.00 482.00 180.00" xmlns="http://www.w3.org/2000/svg" xmlns:xlink="http://www.w3.org/1999/xlink">
<g id="graph0" class="graph" transform="scale(1 1) rotate(0) translate(4 176)">
<title>UniValue::write</title>
<polygon fill="#ffffff" stroke="transparent" points="-4,4 -4,-176 478,-176 478,4 -4,4"/>
<!-- Node1749 -->
<g id="node1" class="node">
<title>Node1749</title>
<polygon fill="#bfbfbf" stroke="#000000" points="0,-76.5 0,-95.5 83,-95.5 83,-76.5 0,-76.5"/>
<text text-anchor="middle" x="41.5" y="-83.5" font-family="Helvetica,sans-Serif" font-size="10.00" fill="#000000">UniValue::write</text>
</g>
<!-- Node1750 -->
<g id="node2" class="node">
<title>Node1750</title>
<g id="a_node2"><a xlink:href="rpc_2protocol_8h.html#a2fdb4c40b8481244f300c15abe90c6bd" target="_top" xlink:title="JSONRPCReply">
<polygon fill="#ffffff" stroke="#000000" points="169,-152.5 169,-171.5 260,-171.5 260,-152.5 169,-152.5"/>
<text text-anchor="middle" x="214.5" y="-159.5" font-family="Helvetica,sans-Serif" font-size="10.00" fill="#000000">JSONRPCReply</text>
</a>
</g>
</g>
<!-- Node1749&#45;&gt;Node1750 -->
<g id="edge1" class="edge">
<title>Node1749&#45;&gt;Node1750</title>
<path fill="none" stroke="#191970" d="M59.4293,-102.7807C74.2777,-115.7412 96.5155,-133.0864 119,-143 134.468,-149.82 152.4238,-154.211 168.5636,-157.0301"/>
<polygon fill="#191970" stroke="#191970" points="61.3738,-99.8228 51.5948,-95.7458 56.697,-105.0312 61.3738,-99.8228"/>
</g>
<!-- Node1751 -->
<g id="node3" class="node">
<title>Node1751</title>
<g id="a_node3"><a xlink:href="class_r_p_c_console.html#a73e7d739fedc4059aa1566a2ea591d03" target="_top" xlink:title="Split shell command line into a list of arguments and optionally execute the command(s). ">
<polygon fill="#ffffff" stroke="#000000" points="119,-114.5 119,-133.5 310,-133.5 310,-114.5 119,-114.5"/>
<text text-anchor="middle" x="214.5" y="-121.5" font-family="Helvetica,sans-Serif" font-size="10.00" fill="#000000">RPCConsole::RPCParseCommandLine</text>
</a>
</g>
</g>
<!-- Node1749&#45;&gt;Node1751 -->
<g id="edge2" class="edge">
<title>Node1749&#45;&gt;Node1751</title>
<path fill="none" stroke="#191970" d="M88.6567,-97.9121C98.6555,-100.3394 109.1611,-102.8163 119,-105 133.6879,-108.2599 149.7057,-111.5496 164.3535,-114.4543"/>
<polygon fill="#191970" stroke="#191970" points="89.4159,-94.4947 78.8703,-95.5142 87.75,-101.2936 89.4159,-94.4947"/>
</g>
<!-- Node1753 -->
<g id="node5" class="node">
<title>Node1753</title>
<g id="a_node5"><a xlink:href="class_r_p_c_executor.html#a26e314b5c74eef7a5d310578e1cdb1eb" target="_top" xlink:title="RPCExecutor::request">
<polygon fill="#ffffff" stroke="#000000" points="156.5,-76.5 156.5,-95.5 272.5,-95.5 272.5,-76.5 156.5,-76.5"/>
<text text-anchor="middle" x="214.5" y="-83.5" font-family="Helvetica,sans-Serif" font-size="10.00" fill="#000000">RPCExecutor::request</text>
</a>
</g>
</g>
<!-- Node1749&#45;&gt;Node1753 -->
<g id="edge4" class="edge">
<title>Node1749&#45;&gt;Node1753</title>
<path fill="none" stroke="#191970" d="M93.4503,-86C113.2684,-86 135.982,-86 156.3407,-86"/>
<polygon fill="#191970" stroke="#191970" points="93.3785,-82.5001 83.3785,-86 93.3784,-89.5001 93.3785,-82.5001"/>
</g>
<!-- Node1754 -->
<g id="node6" class="node">
<title>Node1754</title>
<g id="a_node6"><a xlink:href="class_uni_value.html#aa3a8cff070423090606906fade4bc7f4" target="_top" xlink:title="UniValue::pushKV">
<polygon fill="#ffffff" stroke="#000000" points="166,-38.5 166,-57.5 263,-57.5 263,-38.5 166,-38.5"/>
<text text-anchor="middle" x="214.5" y="-45.5" font-family="Helvetica,sans-Serif" font-size="10.00" fill="#000000">UniValue::pushKV</text>
</a>
</g>
</g>
<!-- Node1749&#45;&gt;Node1754 -->
<g id="edge5" class="edge">
<title>Node1749&#45;&gt;Node1754</title>
<path fill="none" stroke="#191970" d="M88.6567,-74.0879C98.6555,-71.6606 109.1611,-69.1837 119,-67 134.183,-63.6302 150.787,-60.2286 165.8299,-57.2533"/>
<polygon fill="#191970" stroke="#191970" points="87.75,-70.7064 78.8703,-76.4858 89.4159,-77.5053 87.75,-70.7064"/>
</g>
<!-- Node1755 -->
<g id="node7" class="node">
<title>Node1755</title>
<g id="a_node7"><a xlink:href="test__json_8cpp.html#a0ddf1224851353fc92bfbff6f499fa97" target="_top" xlink:title="main">
<polygon fill="#ffffff" stroke="#000000" points="195.5,-.5 195.5,-19.5 233.5,-19.5 233.5,-.5 195.5,-.5"/>
<text text-anchor="middle" x="214.5" y="-7.5" font-family="Helvetica,sans-Serif" font-size="10.00" fill="#000000">main</text>
</a>
</g>
</g>
<!-- Node1749&#45;&gt;Node1755 -->
<g id="edge6" class="edge">
<title>Node1749&#45;&gt;Node1755</title>
<path fill="none" stroke="#191970" d="M59.4293,-69.2193C74.2777,-56.2588 96.5155,-38.9136 119,-29 144.0582,-17.9516 175.6453,-13.2778 195.4635,-11.335"/>
<polygon fill="#191970" stroke="#191970" points="56.697,-66.9688 51.5948,-76.2542 61.3738,-72.1772 56.697,-66.9688"/>
</g>
<!-- Node1752 -->
<g id="node4" class="node">
<title>Node1752</title>
<g id="a_node4"><a xlink:href="class_r_p_c_console.html#a2ab27700348f83acaee6ceb7c22225f8" target="_top" xlink:title="RPCConsole::on_lineEdit\l_returnPressed">
<polygon fill="#ffffff" stroke="#000000" points="346,-109 346,-139 474,-139 474,-109 346,-109"/>
<text text-anchor="start" x="354" y="-127" font-family="Helvetica,sans-Serif" font-size="10.00" fill="#000000">RPCConsole::on_lineEdit</text>
<text text-anchor="middle" x="410" y="-116" font-family="Helvetica,sans-Serif" font-size="10.00" fill="#000000">_returnPressed</text>
</a>
</g>
</g>
<!-- Node1751&#45;&gt;Node1752 -->
<g id="edge3" class="edge">
<title>Node1751&#45;&gt;Node1752</title>
<path fill="none" stroke="#191970" d="M320.4424,-124C329.1088,-124 337.6888,-124 345.9072,-124"/>
<polygon fill="#191970" stroke="#191970" points="320.2455,-120.5001 310.2455,-124 320.2455,-127.5001 320.2455,-120.5001"/>
</g>
</g>
</svg>
