<?xml version="1.0" encoding="UTF-8" standalone="no"?>
<!DOCTYPE svg PUBLIC "-//W3C//DTD SVG 1.1//EN"
 "http://www.w3.org/Graphics/SVG/1.1/DTD/svg11.dtd">
<!-- Generated by graphviz version 2.40.1 (20161225.0304)
 -->
<!-- Title: ReceiveCoinsDialog Pages: 1 -->
<svg width="1840pt" height="676pt"
 viewBox="0.00 0.00 1840.00 676.02" xmlns="http://www.w3.org/2000/svg" xmlns:xlink="http://www.w3.org/1999/xlink">
<g id="graph0" class="graph" transform="scale(1 1) rotate(0) translate(4 672.0222)">
<title>ReceiveCoinsDialog</title>
<polygon fill="#ffffff" stroke="transparent" points="-4,4 -4,-672.0222 1836,-672.0222 1836,4 -4,4"/>
<!-- Node2 -->
<g id="node1" class="node">
<title>Node2</title>
<polygon fill="#bfbfbf" stroke="#000000" points="1533,-525.5222 1533,-544.5222 1639,-544.5222 1639,-525.5222 1533,-525.5222"/>
<text text-anchor="middle" x="1586" y="-532.5222" font-family="Helvetica,sans-Serif" font-size="10.00" fill="#000000">ReceiveCoinsDialog</text>
</g>
<!-- Node3 -->
<g id="node2" class="node">
<title>Node3</title>
<polygon fill="#ffffff" stroke="#bfbfbf" points="1254,-648.5222 1254,-667.5222 1306,-667.5222 1306,-648.5222 1254,-648.5222"/>
<text text-anchor="middle" x="1280" y="-655.5222" font-family="Helvetica,sans-Serif" font-size="10.00" fill="#000000">QDialog</text>
</g>
<!-- Node3&#45;&gt;Node2 -->
<g id="edge1" class="edge">
<title>Node3&#45;&gt;Node2</title>
<path fill="none" stroke="#191970" d="M1316.3121,-659.649C1361.4164,-660.1613 1439.5487,-656.0047 1498,-626.0222 1536.132,-606.4625 1567.2312,-563.9012 1579.8869,-544.7286"/>
<polygon fill="#191970" stroke="#191970" points="1316.1958,-656.1461 1306.1282,-659.4467 1316.0567,-663.1448 1316.1958,-656.1461"/>
</g>
<!-- Node4 -->
<g id="node3" class="node">
<title>Node4</title>
<g id="a_node3"><a xlink:href="class_g_u_i_util_1_1_table_view_last_column_resizing_fixer.html" target="_top" xlink:title="Makes a QTableView last column feel as if it was being resized from its left border. ">
<polygon fill="#ffffff" stroke="#000000" points="1203,-599.0222 1203,-629.0222 1357,-629.0222 1357,-599.0222 1203,-599.0222"/>
<text text-anchor="start" x="1211" y="-617.0222" font-family="Helvetica,sans-Serif" font-size="10.00" fill="#000000">GUIUtil::TableViewLastColumn</text>
<text text-anchor="middle" x="1280" y="-606.0222" font-family="Helvetica,sans-Serif" font-size="10.00" fill="#000000">ResizingFixer</text>
</a>
</g>
</g>
<!-- Node4&#45;&gt;Node2 -->
<g id="edge2" class="edge">
<title>Node4&#45;&gt;Node2</title>
<path fill="none" stroke="#9a32cd" stroke-dasharray="5,2" d="M1367.3236,-612.0269C1407.9454,-608.9873 1456.3704,-602.2999 1498,-588.0222 1527.5226,-577.8969 1557.8047,-556.8478 1574.012,-544.5414"/>
<polygon fill="#9a32cd" stroke="#9a32cd" points="1366.91,-608.547 1357.1731,-612.7235 1367.3893,-615.5306 1366.91,-608.547"/>
<text text-anchor="middle" x="1436.5" y="-614.0222" font-family="Helvetica,sans-Serif" font-size="10.00" fill="#000000"> columnResizingFixer</text>
</g>
<!-- Node5 -->
<g id="node4" class="node">
<title>Node5</title>
<polygon fill="#ffffff" stroke="#bfbfbf" points="1041,-597.5222 1041,-616.5222 1094,-616.5222 1094,-597.5222 1041,-597.5222"/>
<text text-anchor="middle" x="1067.5" y="-604.5222" font-family="Helvetica,sans-Serif" font-size="10.00" fill="#000000">QObject</text>
</g>
<!-- Node5&#45;&gt;Node4 -->
<g id="edge3" class="edge">
<title>Node5&#45;&gt;Node4</title>
<path fill="none" stroke="#191970" d="M1104.5808,-608.2437C1131.5999,-609.1337 1169.1736,-610.3715 1202.618,-611.4732"/>
<polygon fill="#191970" stroke="#191970" points="1104.5231,-604.74 1094.4133,-607.9088 1104.2926,-611.7362 1104.5231,-604.74"/>
</g>
<!-- Node7 -->
<g id="node6" class="node">
<title>Node7</title>
<g id="a_node6"><a xlink:href="class_wallet_model.html" target="_top" xlink:title="Interface to Raven wallet from Qt view code. ">
<polygon fill="#ffffff" stroke="#000000" points="1244.5,-258.5222 1244.5,-277.5222 1315.5,-277.5222 1315.5,-258.5222 1244.5,-258.5222"/>
<text text-anchor="middle" x="1280" y="-265.5222" font-family="Helvetica,sans-Serif" font-size="10.00" fill="#000000">WalletModel</text>
</a>
</g>
</g>
<!-- Node5&#45;&gt;Node7 -->
<g id="edge6" class="edge">
<title>Node5&#45;&gt;Node7</title>
<path fill="none" stroke="#191970" d="M1079.1404,-588.4523C1118.3011,-525.9794 1244.4641,-324.7125 1273.8446,-277.8419"/>
<polygon fill="#191970" stroke="#191970" points="1075.9763,-586.9103 1073.6305,-597.2422 1081.9073,-590.6282 1075.9763,-586.9103"/>
</g>
<!-- Node6 -->
<g id="node5" class="node">
<title>Node6</title>
<g id="a_node5"><a xlink:href="class_platform_style.html" target="_top" xlink:title="PlatformStyle">
<polygon fill="#ffffff" stroke="#000000" points="1242,-496.5222 1242,-515.5222 1318,-515.5222 1318,-496.5222 1242,-496.5222"/>
<text text-anchor="middle" x="1280" y="-503.5222" font-family="Helvetica,sans-Serif" font-size="10.00" fill="#000000">PlatformStyle</text>
</a>
</g>
</g>
<!-- Node6&#45;&gt;Node2 -->
<g id="edge4" class="edge">
<title>Node6&#45;&gt;Node2</title>
<path fill="none" stroke="#9a32cd" stroke-dasharray="5,2" d="M1328.3899,-511.9109C1343.3252,-513.6516 1359.8326,-515.4975 1375,-517.0222 1428.5906,-522.4094 1489.9451,-527.5256 1532.6271,-530.9167"/>
<polygon fill="#9a32cd" stroke="#9a32cd" points="1328.6776,-508.4207 1318.337,-510.728 1327.8594,-515.3728 1328.6776,-508.4207"/>
<text text-anchor="middle" x="1436.5" y="-530.0222" font-family="Helvetica,sans-Serif" font-size="10.00" fill="#000000"> platformStyle</text>
</g>
<!-- Node8 -->
<g id="node7" class="node">
<title>Node8</title>
<g id="a_node7"><a xlink:href="class_transaction_table_model.html" target="_top" xlink:title="UI model for the transaction table of a wallet. ">
<polygon fill="#ffffff" stroke="#000000" points="1527,-440.5222 1527,-459.5222 1645,-459.5222 1645,-440.5222 1527,-440.5222"/>
<text text-anchor="middle" x="1586" y="-447.5222" font-family="Helvetica,sans-Serif" font-size="10.00" fill="#000000">TransactionTableModel</text>
</a>
</g>
</g>
<!-- Node6&#45;&gt;Node8 -->
<g id="edge31" class="edge">
<title>Node6&#45;&gt;Node8</title>
<path fill="none" stroke="#9a32cd" stroke-dasharray="5,2" d="M1311.1042,-492.7536C1329.3882,-485.4978 1353.1374,-476.9982 1375,-472.0222 1425.4565,-460.5382 1484.0849,-455.033 1526.7171,-452.4031"/>
<polygon fill="#9a32cd" stroke="#9a32cd" points="1309.7711,-489.5173 1301.8183,-496.5176 1312.4007,-496.0047 1309.7711,-489.5173"/>
<text text-anchor="middle" x="1436.5" y="-475.0222" font-family="Helvetica,sans-Serif" font-size="10.00" fill="#000000"> platformStyle</text>
</g>
<!-- Node7&#45;&gt;Node2 -->
<g id="edge5" class="edge">
<title>Node7&#45;&gt;Node2</title>
<path fill="none" stroke="#9a32cd" stroke-dasharray="5,2" d="M1291.3565,-286.6057C1307.7385,-314.0608 1338.1038,-367.4612 1357,-416.0222 1368.1814,-444.7571 1352.2037,-462.2606 1375,-483.0222 1416.0016,-520.3642 1444.3203,-490.0923 1498,-504.0222 1520.2638,-509.7997 1544.9044,-518.7058 1562.4349,-525.4921"/>
<polygon fill="#9a32cd" stroke="#9a32cd" points="1294.1611,-284.4787 1286.0008,-277.7215 1288.1662,-288.0927 1294.1611,-284.4787"/>
<text text-anchor="middle" x="1436.5" y="-507.0222" font-family="Helvetica,sans-Serif" font-size="10.00" fill="#000000"> model</text>
</g>
<!-- Node7&#45;&gt;Node8 -->
<g id="edge32" class="edge">
<title>Node7&#45;&gt;Node8</title>
<path fill="none" stroke="#9a32cd" stroke-dasharray="5,2" d="M1293.4744,-285.419C1310.257,-305.7756 1340.9065,-338.8746 1375,-356.0222 1424.6839,-381.0111 1447.4921,-355.7437 1498,-379.0222 1531.16,-394.3052 1562.589,-424.8605 1577.2974,-440.4278"/>
<polygon fill="#9a32cd" stroke="#9a32cd" points="1296.1521,-283.1635 1287.1613,-277.5585 1290.6944,-287.5469 1296.1521,-283.1635"/>
<text text-anchor="middle" x="1436.5" y="-382.0222" font-family="Helvetica,sans-Serif" font-size="10.00" fill="#000000"> walletModel</text>
</g>
<!-- Node28 -->
<g id="node27" class="node">
<title>Node28</title>
<g id="a_node27"><a xlink:href="class_address_table_model.html" target="_top" xlink:title="Qt model of the address book in the core. ">
<polygon fill="#ffffff" stroke="#000000" points="1534.5,-148.5222 1534.5,-167.5222 1637.5,-167.5222 1637.5,-148.5222 1534.5,-148.5222"/>
<text text-anchor="middle" x="1586" y="-155.5222" font-family="Helvetica,sans-Serif" font-size="10.00" fill="#000000">AddressTableModel</text>
</a>
</g>
</g>
<!-- Node7&#45;&gt;Node28 -->
<g id="edge39" class="edge">
<title>Node7&#45;&gt;Node28</title>
<path fill="none" stroke="#9a32cd" stroke-dasharray="5,2" d="M1314.3634,-254.8593C1332.3448,-248.0994 1354.7712,-239.8679 1375,-233.0222 1429.1968,-214.6813 1444.2298,-214.5785 1498,-195.0222 1521.2069,-186.5818 1547.2105,-175.4324 1564.8936,-167.5868"/>
<polygon fill="#9a32cd" stroke="#9a32cd" points="1312.9906,-251.6365 1304.8733,-258.4453 1315.4649,-258.1846 1312.9906,-251.6365"/>
<text text-anchor="middle" x="1436.5" y="-236.0222" font-family="Helvetica,sans-Serif" font-size="10.00" fill="#000000"> walletModel</text>
</g>
<!-- Node30 -->
<g id="node29" class="node">
<title>Node30</title>
<g id="a_node29"><a xlink:href="class_recent_requests_table_model.html" target="_top" xlink:title="Model for list of recently generated payment requests / raven: URIs. ">
<polygon fill="#ffffff" stroke="#000000" points="1516,-241.5222 1516,-260.5222 1656,-260.5222 1656,-241.5222 1516,-241.5222"/>
<text text-anchor="middle" x="1586" y="-248.5222" font-family="Helvetica,sans-Serif" font-size="10.00" fill="#000000">RecentRequestsTableModel</text>
</a>
</g>
</g>
<!-- Node7&#45;&gt;Node30 -->
<g id="edge43" class="edge">
<title>Node7&#45;&gt;Node30</title>
<path fill="none" stroke="#9a32cd" stroke-dasharray="5,2" d="M1325.6857,-268.4673C1369.8471,-268.5451 1438.6062,-267.7378 1498,-263.0222 1505.9928,-262.3876 1514.3694,-261.5157 1522.6441,-260.5291"/>
<polygon fill="#9a32cd" stroke="#9a32cd" points="1325.5682,-264.9669 1315.5564,-268.433 1325.5445,-271.9669 1325.5682,-264.9669"/>
<text text-anchor="middle" x="1436.5" y="-271.0222" font-family="Helvetica,sans-Serif" font-size="10.00" fill="#000000"> walletModel</text>
</g>
<!-- Node31 -->
<g id="node30" class="node">
<title>Node31</title>
<g id="a_node30"><a xlink:href="class_asset_table_model.html" target="_top" xlink:title="Models assets portion of wallet as table of owned assets. ">
<polygon fill="#ffffff" stroke="#000000" points="1540,-30.5222 1540,-49.5222 1632,-49.5222 1632,-30.5222 1540,-30.5222"/>
<text text-anchor="middle" x="1586" y="-37.5222" font-family="Helvetica,sans-Serif" font-size="10.00" fill="#000000">AssetTableModel</text>
</a>
</g>
</g>
<!-- Node7&#45;&gt;Node31 -->
<g id="edge46" class="edge">
<title>Node7&#45;&gt;Node31</title>
<path fill="none" stroke="#9a32cd" stroke-dasharray="5,2" d="M1296.6318,-250.9961C1314.5377,-231.614 1342.4107,-198.1905 1357,-164.0222 1375.5926,-120.4781 1340.2087,-91.1367 1375,-59.0222 1420.6746,-16.8617 1497.9996,-22.0859 1545.2813,-30.506"/>
<polygon fill="#9a32cd" stroke="#9a32cd" points="1293.957,-248.7308 1289.6358,-258.4043 1299.0464,-253.5369 1293.957,-248.7308"/>
<text text-anchor="middle" x="1436.5" y="-62.0222" font-family="Helvetica,sans-Serif" font-size="10.00" fill="#000000"> walletModel</text>
</g>
<!-- Node8&#45;&gt;Node7 -->
<g id="edge7" class="edge">
<title>Node8&#45;&gt;Node7</title>
<path fill="none" stroke="#9a32cd" stroke-dasharray="5,2" d="M1575.9136,-431.4079C1561.8299,-407.3367 1533.9126,-366.0185 1498,-345.0222 1449.9892,-316.9527 1427.2259,-341.1375 1375,-322.0222 1344.001,-310.6762 1311.2536,-289.807 1293.4554,-277.6018"/>
<polygon fill="#9a32cd" stroke="#9a32cd" points="1572.9611,-433.297 1580.9318,-440.2769 1579.0535,-429.8498 1572.9611,-433.297"/>
<text text-anchor="middle" x="1436.5" y="-348.0222" font-family="Helvetica,sans-Serif" font-size="10.00" fill="#000000"> transactionTableModel</text>
</g>
<!-- Node10 -->
<g id="node9" class="node">
<title>Node10</title>
<g id="a_node9"><a xlink:href="class_transaction_table_priv.html" target="_top" xlink:title="TransactionTablePriv">
<polygon fill="#ffffff" stroke="#000000" points="1723,-474.5222 1723,-493.5222 1832,-493.5222 1832,-474.5222 1723,-474.5222"/>
<text text-anchor="middle" x="1777.5" y="-481.5222" font-family="Helvetica,sans-Serif" font-size="10.00" fill="#000000">TransactionTablePriv</text>
</a>
</g>
</g>
<!-- Node8&#45;&gt;Node10 -->
<g id="edge10" class="edge">
<title>Node8&#45;&gt;Node10</title>
<path fill="none" stroke="#9a32cd" stroke-dasharray="5,2" d="M1649.7019,-461.3322C1673.7619,-465.604 1700.8737,-470.4175 1723.9149,-474.5084"/>
<polygon fill="#9a32cd" stroke="#9a32cd" points="1650.056,-457.8404 1639.5981,-459.5383 1648.8322,-464.7326 1650.056,-457.8404"/>
<text text-anchor="middle" x="1689.5" y="-474.0222" font-family="Helvetica,sans-Serif" font-size="10.00" fill="#000000"> parent</text>
</g>
<!-- Node9 -->
<g id="node8" class="node">
<title>Node9</title>
<polygon fill="#ffffff" stroke="#bfbfbf" points="1224.5,-135.5222 1224.5,-154.5222 1335.5,-154.5222 1335.5,-135.5222 1224.5,-135.5222"/>
<text text-anchor="middle" x="1280" y="-142.5222" font-family="Helvetica,sans-Serif" font-size="10.00" fill="#000000">QAbstractTableModel</text>
</g>
<!-- Node9&#45;&gt;Node8 -->
<g id="edge8" class="edge">
<title>Node9&#45;&gt;Node8</title>
<path fill="none" stroke="#191970" d="M1294.3788,-162.7075C1310.5274,-182.9493 1337.0785,-217.3953 1357,-249.0222 1366.1128,-263.4895 1361.9942,-271.9229 1375,-283.0222 1418.9399,-320.5212 1451.7776,-290.3757 1498,-325.0222 1541.1097,-357.3356 1571.1845,-417.0019 1581.7895,-440.3225"/>
<polygon fill="#191970" stroke="#191970" points="1296.9421,-160.3099 1287.9483,-154.7096 1291.4867,-164.6961 1296.9421,-160.3099"/>
</g>
<!-- Node9&#45;&gt;Node28 -->
<g id="edge35" class="edge">
<title>Node9&#45;&gt;Node28</title>
<path fill="none" stroke="#191970" d="M1305.8503,-130.8119C1324.4608,-121.423 1350.5024,-109.9693 1375,-105.0222 1428.585,-94.2012 1445.3291,-90.3859 1498,-105.0222 1528.4149,-113.474 1558.8395,-135.5748 1574.7207,-148.4103"/>
<polygon fill="#191970" stroke="#191970" points="1304.1057,-127.774 1296.8432,-135.4881 1307.3311,-133.9867 1304.1057,-127.774"/>
</g>
<!-- Node9&#45;&gt;Node30 -->
<g id="edge42" class="edge">
<title>Node9&#45;&gt;Node30</title>
<path fill="none" stroke="#191970" d="M1325.1338,-157.2299C1340.8833,-161.402 1358.6954,-166.0222 1375,-170.0222 1429.4506,-183.3804 1445.996,-177.0725 1498,-198.0222 1526.4536,-209.4847 1556.3973,-229.4695 1572.9843,-241.3504"/>
<polygon fill="#191970" stroke="#191970" points="1325.6825,-153.7541 1315.1186,-154.564 1323.8818,-160.5186 1325.6825,-153.7541"/>
</g>
<!-- Node9&#45;&gt;Node31 -->
<g id="edge45" class="edge">
<title>Node9&#45;&gt;Node31</title>
<path fill="none" stroke="#191970" d="M1305.4247,-129.6103C1322.3083,-118.1566 1343.7298,-101.0839 1357,-81.0222 1372.3597,-57.8017 1352.6635,-37.6412 1375,-21.0222 1432.9841,22.1198 1526.2697,-12.1623 1566.5007,-30.4286"/>
<polygon fill="#191970" stroke="#191970" points="1303.0511,-126.9801 1296.5924,-135.3786 1306.8788,-132.8409 1303.0511,-126.9801"/>
</g>
<!-- Node10&#45;&gt;Node8 -->
<g id="edge9" class="edge">
<title>Node10&#45;&gt;Node8</title>
<path fill="none" stroke="#9a32cd" stroke-dasharray="5,2" d="M1752.6143,-469.552C1739.0269,-462.4738 1721.6242,-454.7009 1705,-451.0222 1685.8362,-446.7815 1664.5079,-445.5505 1645.2607,-445.6794"/>
<polygon fill="#9a32cd" stroke="#9a32cd" points="1751.3087,-472.8255 1761.768,-474.5149 1754.6451,-466.6717 1751.3087,-472.8255"/>
<text text-anchor="middle" x="1689.5" y="-454.0222" font-family="Helvetica,sans-Serif" font-size="10.00" fill="#000000"> priv</text>
</g>
<!-- Node11 -->
<g id="node10" class="node">
<title>Node11</title>
<g id="a_node10"><a xlink:href="class_c_wallet.html" target="_top" xlink:title="A CWallet is an extension of a keystore, which also maintains a set of transactions and balances...">
<polygon fill="#ffffff" stroke="#000000" points="1041.5,-382.5222 1041.5,-401.5222 1093.5,-401.5222 1093.5,-382.5222 1041.5,-382.5222"/>
<text text-anchor="middle" x="1067.5" y="-389.5222" font-family="Helvetica,sans-Serif" font-size="10.00" fill="#000000">CWallet</text>
</a>
</g>
</g>
<!-- Node11&#45;&gt;Node7 -->
<g id="edge51" class="edge">
<title>Node11&#45;&gt;Node7</title>
<path fill="none" stroke="#9a32cd" stroke-dasharray="5,2" d="M1092.474,-377.4491C1136.473,-351.7745 1226.6411,-299.1587 1263.6227,-277.5788"/>
<polygon fill="#9a32cd" stroke="#9a32cd" points="1090.6947,-374.435 1083.8217,-382.498 1094.2227,-380.481 1090.6947,-374.435"/>
<text text-anchor="middle" x="1154.5" y="-361.0222" font-family="Helvetica,sans-Serif" font-size="10.00" fill="#000000"> wallet</text>
</g>
<!-- Node11&#45;&gt;Node8 -->
<g id="edge33" class="edge">
<title>Node11&#45;&gt;Node8</title>
<path fill="none" stroke="#9a32cd" stroke-dasharray="5,2" d="M1103.919,-401.8841C1110.564,-403.4439 1117.4625,-404.9073 1124,-406.0222 1267.5597,-430.5061 1438.7105,-442.3507 1526.9244,-447.1984"/>
<polygon fill="#9a32cd" stroke="#9a32cd" points="1104.3205,-398.3787 1093.7741,-399.3898 1102.6492,-405.1762 1104.3205,-398.3787"/>
<text text-anchor="middle" x="1280" y="-437.0222" font-family="Helvetica,sans-Serif" font-size="10.00" fill="#000000"> wallet</text>
</g>
<!-- Node11&#45;&gt;Node10 -->
<g id="edge11" class="edge">
<title>Node11&#45;&gt;Node10</title>
<path fill="none" stroke="#9a32cd" stroke-dasharray="5,2" d="M1079.6274,-410.2137C1100.705,-440.1188 1147.224,-498.9476 1203,-525.0222 1294.3803,-567.7415 1558.5525,-580.0854 1656,-554.0222 1700.2129,-542.1971 1745.0139,-509.9886 1765.6949,-493.7122"/>
<polygon fill="#9a32cd" stroke="#9a32cd" points="1082.2511,-407.8523 1073.6986,-401.5988 1076.4847,-411.8208 1082.2511,-407.8523"/>
<text text-anchor="middle" x="1436.5" y="-570.0222" font-family="Helvetica,sans-Serif" font-size="10.00" fill="#000000"> wallet</text>
</g>
<!-- Node11&#45;&gt;Node28 -->
<g id="edge40" class="edge">
<title>Node11&#45;&gt;Node28</title>
<path fill="none" stroke="#9a32cd" stroke-dasharray="5,2" d="M1070.6344,-372.451C1080.0447,-320.6923 1113.1669,-179.7523 1203,-115.0222 1309.6958,-38.1416 1373.2396,-50.4354 1498,-92.0222 1531.698,-103.2549 1562.8832,-133.006 1577.4181,-148.4363"/>
<polygon fill="#9a32cd" stroke="#9a32cd" points="1067.1796,-371.8899 1068.9329,-382.3386 1074.0782,-373.0771 1067.1796,-371.8899"/>
<text text-anchor="middle" x="1280" y="-118.0222" font-family="Helvetica,sans-Serif" font-size="10.00" fill="#000000"> wallet</text>
</g>
<!-- Node29 -->
<g id="node28" class="node">
<title>Node29</title>
<g id="a_node28"><a xlink:href="class_address_table_priv.html" target="_top" xlink:title="AddressTablePriv">
<polygon fill="#ffffff" stroke="#000000" points="1730.5,-182.5222 1730.5,-201.5222 1824.5,-201.5222 1824.5,-182.5222 1730.5,-182.5222"/>
<text text-anchor="middle" x="1777.5" y="-189.5222" font-family="Helvetica,sans-Serif" font-size="10.00" fill="#000000">AddressTablePriv</text>
</a>
</g>
</g>
<!-- Node11&#45;&gt;Node29 -->
<g id="edge38" class="edge">
<title>Node11&#45;&gt;Node29</title>
<path fill="none" stroke="#9a32cd" stroke-dasharray="5,2" d="M1103.7283,-394.6338C1193.676,-400.6746 1425.1799,-413.3883 1498,-390.0222 1620.8715,-350.5959 1736.2641,-235.7423 1768.5711,-201.6629"/>
<polygon fill="#9a32cd" stroke="#9a32cd" points="1103.944,-391.1404 1093.7285,-393.9502 1103.4665,-398.1241 1103.944,-391.1404"/>
<text text-anchor="middle" x="1436.5" y="-406.0222" font-family="Helvetica,sans-Serif" font-size="10.00" fill="#000000"> wallet</text>
</g>
<!-- Node12 -->
<g id="node11" class="node">
<title>Node12</title>
<g id="a_node11"><a xlink:href="class_c_crypto_key_store.html" target="_top" xlink:title="Keystore which keeps the private keys encrypted. ">
<polygon fill="#ffffff" stroke="#000000" points="802.5,-397.5222 802.5,-416.5222 896.5,-416.5222 896.5,-397.5222 802.5,-397.5222"/>
<text text-anchor="middle" x="849.5" y="-404.5222" font-family="Helvetica,sans-Serif" font-size="10.00" fill="#000000">CCryptoKeyStore</text>
</a>
</g>
</g>
<!-- Node12&#45;&gt;Node11 -->
<g id="edge12" class="edge">
<title>Node12&#45;&gt;Node11</title>
<path fill="none" stroke="#191970" d="M906.718,-403.0852C950.2978,-400.0866 1008.2641,-396.0981 1041.364,-393.8206"/>
<polygon fill="#191970" stroke="#191970" points="906.2705,-399.6076 896.5344,-403.7859 906.7511,-406.5911 906.2705,-399.6076"/>
</g>
<!-- Node13 -->
<g id="node12" class="node">
<title>Node13</title>
<g id="a_node12"><a xlink:href="class_c_basic_key_store.html" target="_top" xlink:title="Basic key store, that keeps keys in an address&#45;&gt;secret map. ">
<polygon fill="#ffffff" stroke="#000000" points="628,-359.5222 628,-378.5222 717,-378.5222 717,-359.5222 628,-359.5222"/>
<text text-anchor="middle" x="672.5" y="-366.5222" font-family="Helvetica,sans-Serif" font-size="10.00" fill="#000000">CBasicKeyStore</text>
</a>
</g>
</g>
<!-- Node13&#45;&gt;Node12 -->
<g id="edge13" class="edge">
<title>Node13&#45;&gt;Node12</title>
<path fill="none" stroke="#191970" d="M727.1726,-377.0886C743.8817,-379.8685 762.2615,-383.2452 779,-387.0222 792.0311,-389.9626 806.2327,-393.8555 818.4524,-397.4249"/>
<polygon fill="#191970" stroke="#191970" points="727.4466,-373.5872 717.0144,-375.4365 726.3229,-380.4964 727.4466,-373.5872"/>
</g>
<!-- Node14 -->
<g id="node13" class="node">
<title>Node14</title>
<g id="a_node13"><a xlink:href="class_c_key_store.html" target="_top" xlink:title="A virtual base class for key stores. ">
<polygon fill="#ffffff" stroke="#000000" points="501,-359.5222 501,-378.5222 566,-378.5222 566,-359.5222 501,-359.5222"/>
<text text-anchor="middle" x="533.5" y="-366.5222" font-family="Helvetica,sans-Serif" font-size="10.00" fill="#000000">CKeyStore</text>
</a>
</g>
</g>
<!-- Node14&#45;&gt;Node13 -->
<g id="edge14" class="edge">
<title>Node14&#45;&gt;Node13</title>
<path fill="none" stroke="#191970" d="M576.4181,-369.0222C592.7092,-369.0222 611.2947,-369.0222 627.7507,-369.0222"/>
<polygon fill="#191970" stroke="#191970" points="576.0894,-365.5223 566.0893,-369.0222 576.0893,-372.5223 576.0894,-365.5223"/>
</g>
<!-- Node15 -->
<g id="node14" class="node">
<title>Node15</title>
<g id="a_node14"><a xlink:href="class_c_critical_section.html" target="_top" xlink:title="Wrapped boost mutex: supports recursive locking, but no waiting TODO: We should move away from using ...">
<polygon fill="#ffffff" stroke="#000000" points="313.5,-359.5222 313.5,-378.5222 401.5,-378.5222 401.5,-359.5222 313.5,-359.5222"/>
<text text-anchor="middle" x="357.5" y="-366.5222" font-family="Helvetica,sans-Serif" font-size="10.00" fill="#000000">CCriticalSection</text>
</a>
</g>
</g>
<!-- Node15&#45;&gt;Node11 -->
<g id="edge20" class="edge">
<title>Node15&#45;&gt;Node11</title>
<path fill="none" stroke="#9a32cd" stroke-dasharray="5,2" d="M378.3919,-353.3196C410.1366,-331.0649 473.2181,-293.0222 533.5,-293.0222 533.5,-293.0222 533.5,-293.0222 849.5,-293.0222 922.274,-293.0222 948.4151,-282.8849 1011,-320.0222 1036.5527,-335.185 1054.9221,-366.614 1062.9679,-382.4546"/>
<polygon fill="#9a32cd" stroke="#9a32cd" points="376.0158,-350.7172 369.9399,-359.3968 380.1023,-356.4006 376.0158,-350.7172"/>
<text text-anchor="middle" x="672.5" y="-296.0222" font-family="Helvetica,sans-Serif" font-size="10.00" fill="#000000"> cs_wallet</text>
</g>
<!-- Node15&#45;&gt;Node14 -->
<g id="edge15" class="edge">
<title>Node15&#45;&gt;Node14</title>
<path fill="none" stroke="#9a32cd" stroke-dasharray="5,2" d="M411.9342,-369.0222C441.0192,-369.0222 475.8584,-369.0222 500.7696,-369.0222"/>
<polygon fill="#9a32cd" stroke="#9a32cd" points="411.9123,-365.5223 401.9122,-369.0222 411.9122,-372.5223 411.9123,-365.5223"/>
<text text-anchor="middle" x="453" y="-372.0222" font-family="Helvetica,sans-Serif" font-size="10.00" fill="#000000"> cs_KeyStore</text>
</g>
<!-- Node26 -->
<g id="node25" class="node">
<title>Node26</title>
<g id="a_node25"><a xlink:href="class_c_d_b_env.html" target="_top" xlink:title="CDBEnv">
<polygon fill="#ffffff" stroke="#000000" points="505.5,-397.5222 505.5,-416.5222 561.5,-416.5222 561.5,-397.5222 505.5,-397.5222"/>
<text text-anchor="middle" x="533.5" y="-404.5222" font-family="Helvetica,sans-Serif" font-size="10.00" fill="#000000">CDBEnv</text>
</a>
</g>
</g>
<!-- Node15&#45;&gt;Node26 -->
<g id="edge28" class="edge">
<title>Node15&#45;&gt;Node26</title>
<path fill="none" stroke="#9a32cd" stroke-dasharray="5,2" d="M411.7085,-380.7263C442.6672,-387.4106 480.2048,-395.5153 505.3507,-400.9445"/>
<polygon fill="#9a32cd" stroke="#9a32cd" points="412.4257,-377.3006 401.9122,-378.6112 410.9483,-384.1429 412.4257,-377.3006"/>
<text text-anchor="middle" x="453" y="-398.0222" font-family="Helvetica,sans-Serif" font-size="10.00" fill="#000000"> cs_db</text>
</g>
<!-- Node16 -->
<g id="node15" class="node">
<title>Node16</title>
<polygon fill="#ffffff" stroke="#bfbfbf" points="156,-354.0222 156,-384.0222 273,-384.0222 273,-354.0222 156,-354.0222"/>
<text text-anchor="start" x="164" y="-372.0222" font-family="Helvetica,sans-Serif" font-size="10.00" fill="#000000">AnnotatedMixin&lt; boost</text>
<text text-anchor="middle" x="214.5" y="-361.0222" font-family="Helvetica,sans-Serif" font-size="10.00" fill="#000000">::recursive_mutex &gt;</text>
</g>
<!-- Node16&#45;&gt;Node15 -->
<g id="edge16" class="edge">
<title>Node16&#45;&gt;Node15</title>
<path fill="none" stroke="#191970" d="M283.2288,-369.0222C293.4374,-369.0222 303.7215,-369.0222 313.247,-369.0222"/>
<polygon fill="#191970" stroke="#191970" points="283.0762,-365.5223 273.0762,-369.0222 283.0761,-372.5223 283.0762,-365.5223"/>
</g>
<!-- Node17 -->
<g id="node16" class="node">
<title>Node17</title>
<polygon fill="#ffffff" stroke="#bfbfbf" points="0,-359.5222 0,-378.5222 119,-378.5222 119,-359.5222 0,-359.5222"/>
<text text-anchor="middle" x="59.5" y="-366.5222" font-family="Helvetica,sans-Serif" font-size="10.00" fill="#000000">boost::recursive_mutex</text>
</g>
<!-- Node17&#45;&gt;Node16 -->
<g id="edge17" class="edge">
<title>Node17&#45;&gt;Node16</title>
<path fill="none" stroke="#191970" d="M129.6022,-369.0222C138.3424,-369.0222 147.2093,-369.0222 155.7527,-369.0222"/>
<polygon fill="#191970" stroke="#191970" points="129.4271,-365.5223 119.427,-369.0222 129.427,-372.5223 129.4271,-365.5223"/>
</g>
<!-- Node18 -->
<g id="node17" class="node">
<title>Node18</title>
<g id="a_node17"><a xlink:href="class_c_validation_interface.html" target="_top" xlink:title="CValidationInterface">
<polygon fill="#ffffff" stroke="#000000" points="797,-359.5222 797,-378.5222 902,-378.5222 902,-359.5222 797,-359.5222"/>
<text text-anchor="middle" x="849.5" y="-366.5222" font-family="Helvetica,sans-Serif" font-size="10.00" fill="#000000">CValidationInterface</text>
</a>
</g>
</g>
<!-- Node18&#45;&gt;Node11 -->
<g id="edge18" class="edge">
<title>Node18&#45;&gt;Node11</title>
<path fill="none" stroke="#191970" d="M912.3238,-375.6504C955.1276,-380.1664 1009.586,-385.912 1041.2955,-389.2575"/>
<polygon fill="#191970" stroke="#191970" points="912.5838,-372.1585 902.2717,-374.5899 911.8493,-379.1199 912.5838,-372.1585"/>
</g>
<!-- Node19 -->
<g id="node18" class="node">
<title>Node19</title>
<g id="a_node18"><a xlink:href="class_c_fee_rate.html" target="_top" xlink:title="Fee rate in satoshis per kilobyte: CAmount / kB. ">
<polygon fill="#ffffff" stroke="#000000" points="818.5,-321.5222 818.5,-340.5222 880.5,-340.5222 880.5,-321.5222 818.5,-321.5222"/>
<text text-anchor="middle" x="849.5" y="-328.5222" font-family="Helvetica,sans-Serif" font-size="10.00" fill="#000000">CFeeRate</text>
</a>
</g>
</g>
<!-- Node19&#45;&gt;Node11 -->
<g id="edge19" class="edge">
<title>Node19&#45;&gt;Node11</title>
<path fill="none" stroke="#9a32cd" stroke-dasharray="5,2" d="M890.6324,-325.4589C924.3482,-322.6487 972.5946,-322.7181 1011,-339.0222 1032.7886,-348.2721 1051.3229,-369.8541 1060.7791,-382.4396"/>
<polygon fill="#9a32cd" stroke="#9a32cd" points="890.2853,-321.976 880.6623,-326.4087 890.9492,-328.9445 890.2853,-321.976"/>
<text text-anchor="middle" x="965.5" y="-364.0222" font-family="Helvetica,sans-Serif" font-size="10.00" fill="#000000"> m_discard_rate</text>
<text text-anchor="middle" x="965.5" y="-353.0222" font-family="Helvetica,sans-Serif" font-size="10.00" fill="#000000">minTxFee</text>
<text text-anchor="middle" x="965.5" y="-342.0222" font-family="Helvetica,sans-Serif" font-size="10.00" fill="#000000">fallbackFee</text>
</g>
<!-- Node20 -->
<g id="node19" class="node">
<title>Node20</title>
<g id="a_node19"><a xlink:href="class_c_h_d_chain.html" target="_top" xlink:title="CHDChain">
<polygon fill="#ffffff" stroke="#000000" points="817,-473.5222 817,-492.5222 882,-492.5222 882,-473.5222 817,-473.5222"/>
<text text-anchor="middle" x="849.5" y="-480.5222" font-family="Helvetica,sans-Serif" font-size="10.00" fill="#000000">CHDChain</text>
</a>
</g>
</g>
<!-- Node20&#45;&gt;Node11 -->
<g id="edge21" class="edge">
<title>Node20&#45;&gt;Node11</title>
<path fill="none" stroke="#9a32cd" stroke-dasharray="5,2" d="M892.3297,-479.9081C926.2384,-475.9717 973.9011,-467.0797 1011,-447.0222 1031.9529,-435.6941 1050.5245,-414.3565 1060.2722,-401.8494"/>
<polygon fill="#9a32cd" stroke="#9a32cd" points="891.8485,-476.4395 882.2748,-480.9775 892.5889,-483.4002 891.8485,-476.4395"/>
<text text-anchor="middle" x="965.5" y="-478.0222" font-family="Helvetica,sans-Serif" font-size="10.00" fill="#000000"> hdChain</text>
</g>
<!-- Node21 -->
<g id="node20" class="node">
<title>Node21</title>
<g id="a_node20"><a xlink:href="class_c_key_i_d.html" target="_top" xlink:title="A reference to a CKey: the Hash160 of its serialized public key. ">
<polygon fill="#ffffff" stroke="#000000" points="646.5,-473.5222 646.5,-492.5222 698.5,-492.5222 698.5,-473.5222 646.5,-473.5222"/>
<text text-anchor="middle" x="672.5" y="-480.5222" font-family="Helvetica,sans-Serif" font-size="10.00" fill="#000000">CKeyID</text>
</a>
</g>
</g>
<!-- Node21&#45;&gt;Node20 -->
<g id="edge22" class="edge">
<title>Node21&#45;&gt;Node20</title>
<path fill="none" stroke="#9a32cd" stroke-dasharray="5,2" d="M708.8175,-483.0222C740.5988,-483.0222 786.3467,-483.0222 816.955,-483.0222"/>
<polygon fill="#9a32cd" stroke="#9a32cd" points="708.617,-479.5223 698.617,-483.0222 708.6169,-486.5223 708.617,-479.5223"/>
<text text-anchor="middle" x="760.5" y="-486.0222" font-family="Helvetica,sans-Serif" font-size="10.00" fill="#000000"> seed_id</text>
</g>
<!-- Node22 -->
<g id="node21" class="node">
<title>Node22</title>
<g id="a_node21"><a xlink:href="classuint160.html" target="_top" xlink:title="160&#45;bit opaque blob. ">
<polygon fill="#ffffff" stroke="#000000" points="509.5,-473.5222 509.5,-492.5222 557.5,-492.5222 557.5,-473.5222 509.5,-473.5222"/>
<text text-anchor="middle" x="533.5" y="-480.5222" font-family="Helvetica,sans-Serif" font-size="10.00" fill="#000000">uint160</text>
</a>
</g>
</g>
<!-- Node22&#45;&gt;Node21 -->
<g id="edge23" class="edge">
<title>Node22&#45;&gt;Node21</title>
<path fill="none" stroke="#191970" d="M567.8966,-483.0222C592.1052,-483.0222 624.0192,-483.0222 646.202,-483.0222"/>
<polygon fill="#191970" stroke="#191970" points="567.712,-479.5223 557.712,-483.0222 567.7119,-486.5223 567.712,-479.5223"/>
</g>
<!-- Node23 -->
<g id="node22" class="node">
<title>Node23</title>
<g id="a_node22"><a xlink:href="classbase__blob.html" target="_top" xlink:title="base_blob\&lt; 160 \&gt;">
<polygon fill="#ffffff" stroke="#000000" points="310,-473.5222 310,-492.5222 405,-492.5222 405,-473.5222 310,-473.5222"/>
<text text-anchor="middle" x="357.5" y="-480.5222" font-family="Helvetica,sans-Serif" font-size="10.00" fill="#000000">base_blob&lt; 160 &gt;</text>
</a>
</g>
</g>
<!-- Node23&#45;&gt;Node22 -->
<g id="edge24" class="edge">
<title>Node23&#45;&gt;Node22</title>
<path fill="none" stroke="#191970" d="M415.2321,-483.0222C447.0814,-483.0222 484.9541,-483.0222 509.1045,-483.0222"/>
<polygon fill="#191970" stroke="#191970" points="415.1282,-479.5223 405.1281,-483.0222 415.1281,-486.5223 415.1282,-479.5223"/>
</g>
<!-- Node24 -->
<g id="node23" class="node">
<title>Node24</title>
<g id="a_node23"><a xlink:href="class_c_wallet_d_b.html" target="_top" xlink:title="Access to the wallet database. ">
<polygon fill="#ffffff" stroke="#000000" points="816.5,-435.5222 816.5,-454.5222 882.5,-454.5222 882.5,-435.5222 816.5,-435.5222"/>
<text text-anchor="middle" x="849.5" y="-442.5222" font-family="Helvetica,sans-Serif" font-size="10.00" fill="#000000">CWalletDB</text>
</a>
</g>
</g>
<!-- Node24&#45;&gt;Node11 -->
<g id="edge25" class="edge">
<title>Node24&#45;&gt;Node11</title>
<path fill="none" stroke="#9a32cd" stroke-dasharray="5,2" d="M892.8071,-438.3808C925.5838,-432.8884 971.5399,-424.1871 1011,-413.0222 1022.177,-409.8598 1034.2836,-405.4917 1044.4124,-401.558"/>
<polygon fill="#9a32cd" stroke="#9a32cd" points="891.953,-434.9741 882.6533,-440.0503 893.0887,-441.8814 891.953,-434.9741"/>
<text text-anchor="middle" x="965.5" y="-435.0222" font-family="Helvetica,sans-Serif" font-size="10.00" fill="#000000"> pwalletdbEncryption</text>
</g>
<!-- Node25 -->
<g id="node24" class="node">
<title>Node25</title>
<g id="a_node24"><a xlink:href="class_c_d_b.html" target="_top" xlink:title="RAII class that provides access to a Berkeley database. ">
<polygon fill="#ffffff" stroke="#000000" points="653.5,-397.5222 653.5,-416.5222 691.5,-416.5222 691.5,-397.5222 653.5,-397.5222"/>
<text text-anchor="middle" x="672.5" y="-404.5222" font-family="Helvetica,sans-Serif" font-size="10.00" fill="#000000">CDB</text>
</a>
</g>
</g>
<!-- Node25&#45;&gt;Node24 -->
<g id="edge26" class="edge">
<title>Node25&#45;&gt;Node24</title>
<path fill="none" stroke="#9a32cd" stroke-dasharray="5,2" d="M701.7142,-413.2942C733.2667,-420.0682 783.434,-430.8385 816.4169,-437.9196"/>
<polygon fill="#9a32cd" stroke="#9a32cd" points="702.291,-409.8383 691.779,-411.1612 700.8216,-416.6824 702.291,-409.8383"/>
<text text-anchor="middle" x="760.5" y="-432.0222" font-family="Helvetica,sans-Serif" font-size="10.00" fill="#000000"> batch</text>
</g>
<!-- Node26&#45;&gt;Node25 -->
<g id="edge27" class="edge">
<title>Node26&#45;&gt;Node25</title>
<path fill="none" stroke="#9a32cd" stroke-dasharray="5,2" d="M571.725,-407.0222C598.2171,-407.0222 632.3695,-407.0222 653.3368,-407.0222"/>
<polygon fill="#9a32cd" stroke="#9a32cd" points="571.6288,-403.5223 561.6287,-407.0222 571.6287,-410.5223 571.6288,-403.5223"/>
<text text-anchor="middle" x="593.5" y="-410.0222" font-family="Helvetica,sans-Serif" font-size="10.00" fill="#000000"> env</text>
</g>
<!-- Node27 -->
<g id="node26" class="node">
<title>Node27</title>
<g id="a_node26"><a xlink:href="class_c_wallet_d_b_wrapper.html" target="_top" xlink:title="An instance of this class represents one database. ">
<polygon fill="#ffffff" stroke="#000000" points="621,-435.5222 621,-454.5222 724,-454.5222 724,-435.5222 621,-435.5222"/>
<text text-anchor="middle" x="672.5" y="-442.5222" font-family="Helvetica,sans-Serif" font-size="10.00" fill="#000000">CWalletDBWrapper</text>
</a>
</g>
</g>
<!-- Node26&#45;&gt;Node27 -->
<g id="edge30" class="edge">
<title>Node26&#45;&gt;Node27</title>
<path fill="none" stroke="#9a32cd" stroke-dasharray="5,2" d="M571.3582,-417.5424C575.6217,-418.7197 579.9036,-419.8989 584,-421.0222 601.5022,-425.8214 620.9664,-431.1056 637.1743,-435.4911"/>
<polygon fill="#9a32cd" stroke="#9a32cd" points="572.1107,-414.1192 561.5395,-414.8257 570.244,-420.8657 572.1107,-414.1192"/>
<text text-anchor="middle" x="593.5" y="-428.0222" font-family="Helvetica,sans-Serif" font-size="10.00" fill="#000000"> env</text>
</g>
<!-- Node27&#45;&gt;Node24 -->
<g id="edge29" class="edge">
<title>Node27&#45;&gt;Node24</title>
<path fill="none" stroke="#9a32cd" stroke-dasharray="5,2" d="M734.533,-445.0222C762.1166,-445.0222 793.4782,-445.0222 816.4704,-445.0222"/>
<polygon fill="#9a32cd" stroke="#9a32cd" points="734.1716,-441.5223 724.1715,-445.0222 734.1715,-448.5223 734.1716,-441.5223"/>
<text text-anchor="middle" x="760.5" y="-448.0222" font-family="Helvetica,sans-Serif" font-size="10.00" fill="#000000"> m_dbw</text>
</g>
<!-- Node28&#45;&gt;Node7 -->
<g id="edge34" class="edge">
<title>Node28&#45;&gt;Node7</title>
<path fill="none" stroke="#9a32cd" stroke-dasharray="5,2" d="M1524.1185,-156.1287C1480.6256,-157.0272 1422.0419,-162.8273 1375,-184.0222 1336.2601,-201.4766 1301.9371,-240.3565 1287.3899,-258.4356"/>
<polygon fill="#9a32cd" stroke="#9a32cd" points="1524.3187,-159.6266 1534.2742,-156.0017 1524.2311,-152.6271 1524.3187,-159.6266"/>
<text text-anchor="middle" x="1436.5" y="-187.0222" font-family="Helvetica,sans-Serif" font-size="10.00" fill="#000000"> addressTableModel</text>
</g>
<!-- Node28&#45;&gt;Node29 -->
<g id="edge37" class="edge">
<title>Node28&#45;&gt;Node29</title>
<path fill="none" stroke="#9a32cd" stroke-dasharray="5,2" d="M1647.6404,-168.9662C1674.4962,-173.7343 1705.4704,-179.2337 1730.4311,-183.6653"/>
<polygon fill="#9a32cd" stroke="#9a32cd" points="1648.0283,-165.4804 1637.5704,-167.1783 1646.8045,-172.3726 1648.0283,-165.4804"/>
<text text-anchor="middle" x="1689.5" y="-182.0222" font-family="Helvetica,sans-Serif" font-size="10.00" fill="#000000"> parent</text>
</g>
<!-- Node29&#45;&gt;Node28 -->
<g id="edge36" class="edge">
<title>Node29&#45;&gt;Node28</title>
<path fill="none" stroke="#9a32cd" stroke-dasharray="5,2" d="M1752.6143,-177.552C1739.0269,-170.4738 1721.6242,-162.7009 1705,-159.0222 1683.3146,-154.2236 1658.8578,-153.2787 1637.7809,-153.7972"/>
<polygon fill="#9a32cd" stroke="#9a32cd" points="1751.3087,-180.8255 1761.768,-182.5149 1754.6451,-174.6717 1751.3087,-180.8255"/>
<text text-anchor="middle" x="1689.5" y="-162.0222" font-family="Helvetica,sans-Serif" font-size="10.00" fill="#000000"> priv</text>
</g>
<!-- Node30&#45;&gt;Node7 -->
<g id="edge41" class="edge">
<title>Node30&#45;&gt;Node7</title>
<path fill="none" stroke="#9a32cd" stroke-dasharray="5,2" d="M1505.4555,-248.3482C1466.0574,-247.8184 1417.9759,-248.3259 1375,-252.0222 1355.3367,-253.7134 1333.6165,-257.245 1315.9133,-260.561"/>
<polygon fill="#9a32cd" stroke="#9a32cd" points="1505.4832,-251.8489 1515.5377,-248.5087 1505.5947,-244.8498 1505.4832,-251.8489"/>
<text text-anchor="middle" x="1436.5" y="-255.0222" font-family="Helvetica,sans-Serif" font-size="10.00" fill="#000000"> recentRequestsTableModel</text>
</g>
<!-- Node31&#45;&gt;Node7 -->
<g id="edge44" class="edge">
<title>Node31&#45;&gt;Node7</title>
<path fill="none" stroke="#9a32cd" stroke-dasharray="5,2" d="M1546.5778,-52.9493C1501.6755,-69.0251 1427.718,-99.7311 1375,-143.0222 1363.9408,-152.1038 1307.0989,-230.4 1287.0284,-258.2444"/>
<polygon fill="#9a32cd" stroke="#9a32cd" points="1547.9703,-56.1699 1556.2454,-49.5538 1545.6506,-49.5654 1547.9703,-56.1699"/>
<text text-anchor="middle" x="1436.5" y="-146.0222" font-family="Helvetica,sans-Serif" font-size="10.00" fill="#000000"> assetTableModel</text>
</g>
<!-- Node32 -->
<g id="node31" class="node">
<title>Node32</title>
<g id="a_node31"><a xlink:href="class_asset_table_priv.html" target="_top" xlink:title="AssetTablePriv">
<polygon fill="#ffffff" stroke="#000000" points="1736,-30.5222 1736,-49.5222 1819,-49.5222 1819,-30.5222 1736,-30.5222"/>
<text text-anchor="middle" x="1777.5" y="-37.5222" font-family="Helvetica,sans-Serif" font-size="10.00" fill="#000000">AssetTablePriv</text>
</a>
</g>
</g>
<!-- Node31&#45;&gt;Node32 -->
<g id="edge48" class="edge">
<title>Node31&#45;&gt;Node32</title>
<path fill="none" stroke="#9a32cd" stroke-dasharray="5,2" d="M1642.6431,-40.0222C1672.5158,-40.0222 1708.5207,-40.0222 1735.8109,-40.0222"/>
<polygon fill="#9a32cd" stroke="#9a32cd" points="1642.3568,-36.5223 1632.3568,-40.0222 1642.3568,-43.5223 1642.3568,-36.5223"/>
<text text-anchor="middle" x="1689.5" y="-43.0222" font-family="Helvetica,sans-Serif" font-size="10.00" fill="#000000"> parent</text>
</g>
<!-- Node32&#45;&gt;Node31 -->
<g id="edge47" class="edge">
<title>Node32&#45;&gt;Node31</title>
<path fill="none" stroke="#9a32cd" stroke-dasharray="5,2" d="M1731.8414,-28.3699C1722.9934,-26.5602 1713.7514,-24.9764 1705,-24.0222 1677.2314,-20.9945 1645.9287,-25.5202 1622.3998,-30.5214"/>
<polygon fill="#9a32cd" stroke="#9a32cd" points="1731.1022,-31.7908 1741.6165,-30.4874 1732.5843,-24.9495 1731.1022,-31.7908"/>
<text text-anchor="middle" x="1689.5" y="-27.0222" font-family="Helvetica,sans-Serif" font-size="10.00" fill="#000000"> priv</text>
</g>
<!-- Node33 -->
<g id="node32" class="node">
<title>Node33</title>
<g id="a_node32"><a xlink:href="class_options_model.html" target="_top" xlink:title="Interface from Qt to configuration data structure for Raven client. ">
<polygon fill="#ffffff" stroke="#000000" points="1029,-30.5222 1029,-49.5222 1106,-49.5222 1106,-30.5222 1029,-30.5222"/>
<text text-anchor="middle" x="1067.5" y="-37.5222" font-family="Helvetica,sans-Serif" font-size="10.00" fill="#000000">OptionsModel</text>
</a>
</g>
</g>
<!-- Node33&#45;&gt;Node7 -->
<g id="edge49" class="edge">
<title>Node33&#45;&gt;Node7</title>
<path fill="none" stroke="#9a32cd" stroke-dasharray="5,2" d="M1083.3362,-57.0135C1125.323,-102.0628 1238.5029,-223.4982 1271.1019,-258.475"/>
<polygon fill="#9a32cd" stroke="#9a32cd" points="1085.7388,-54.4579 1076.3603,-49.5288 1080.618,-59.2305 1085.7388,-54.4579"/>
<text text-anchor="middle" x="1154.5" y="-164.0222" font-family="Helvetica,sans-Serif" font-size="10.00" fill="#000000"> optionsModel</text>
</g>
<!-- Node34 -->
<g id="node33" class="node">
<title>Node34</title>
<polygon fill="#ffffff" stroke="#bfbfbf" points="798,-30.5222 798,-49.5222 901,-49.5222 901,-30.5222 798,-30.5222"/>
<text text-anchor="middle" x="849.5" y="-37.5222" font-family="Helvetica,sans-Serif" font-size="10.00" fill="#000000">QAbstractListModel</text>
</g>
<!-- Node34&#45;&gt;Node33 -->
<g id="edge50" class="edge">
<title>Node34&#45;&gt;Node33</title>
<path fill="none" stroke="#191970" d="M911.5443,-40.0222C949.2945,-40.0222 996.3346,-40.0222 1028.8262,-40.0222"/>
<polygon fill="#191970" stroke="#191970" points="911.163,-36.5223 901.163,-40.0222 911.1629,-43.5223 911.163,-36.5223"/>
</g>
</g>
</svg>
