<?xml version="1.0" encoding="UTF-8" standalone="no"?>
<!DOCTYPE svg PUBLIC "-//W3C//DTD SVG 1.1//EN"
 "http://www.w3.org/Graphics/SVG/1.1/DTD/svg11.dtd">
<!-- Generated by graphviz version 2.40.1 (20161225.0304)
 -->
<!-- Title: CDBEnv::CheckpointLSN Pages: 1 -->
<svg width="497pt" height="126pt"
 viewBox="0.00 0.00 497.00 126.00" xmlns="http://www.w3.org/2000/svg" xmlns:xlink="http://www.w3.org/1999/xlink">
<g id="graph0" class="graph" transform="scale(1 1) rotate(0) translate(4 122)">
<title>CDBEnv::CheckpointLSN</title>
<polygon fill="#ffffff" stroke="transparent" points="-4,4 -4,-122 493,-122 493,4 -4,4"/>
<!-- Node7 -->
<g id="node1" class="node">
<title>Node7</title>
<polygon fill="#bfbfbf" stroke="#000000" points="0,-38.5 0,-57.5 131,-57.5 131,-38.5 0,-38.5"/>
<text text-anchor="middle" x="65.5" y="-45.5" font-family="Helvetica,sans-Serif" font-size="10.00" fill="#000000">CDBEnv::CheckpointLSN</text>
</g>
<!-- Node8 -->
<g id="node2" class="node">
<title>Node8</title>
<g id="a_node2"><a xlink:href="class_c_d_b.html#aeb3bc2ee8657b51f1d844b9f8320929d" target="_top" xlink:title="CDB::Rewrite">
<polygon fill="#ffffff" stroke="#000000" points="199,-76.5 199,-95.5 277,-95.5 277,-76.5 199,-76.5"/>
<text text-anchor="middle" x="238" y="-83.5" font-family="Helvetica,sans-Serif" font-size="10.00" fill="#000000">CDB::Rewrite</text>
</a>
</g>
</g>
<!-- Node7&#45;&gt;Node8 -->
<g id="edge1" class="edge">
<title>Node7&#45;&gt;Node8</title>
<path fill="none" stroke="#191970" d="M119.0447,-59.7954C144.8719,-65.4848 175.2919,-72.186 198.9042,-77.3876"/>
<polygon fill="#191970" stroke="#191970" points="119.5479,-56.3224 109.029,-57.589 118.0419,-63.1584 119.5479,-56.3224"/>
</g>
<!-- Node11 -->
<g id="node5" class="node">
<title>Node11</title>
<g id="a_node5"><a xlink:href="class_c_d_b.html#a6f15db23c7ad577023ca1bb66fd8cc9b" target="_top" xlink:title="CDB::PeriodicFlush">
<polygon fill="#ffffff" stroke="#000000" points="186,-38.5 186,-57.5 290,-57.5 290,-38.5 186,-38.5"/>
<text text-anchor="middle" x="238" y="-45.5" font-family="Helvetica,sans-Serif" font-size="10.00" fill="#000000">CDB::PeriodicFlush</text>
</a>
</g>
</g>
<!-- Node7&#45;&gt;Node11 -->
<g id="edge4" class="edge">
<title>Node7&#45;&gt;Node11</title>
<path fill="none" stroke="#191970" d="M141.495,-48C156.4851,-48 171.8943,-48 185.8769,-48"/>
<polygon fill="#191970" stroke="#191970" points="141.207,-44.5001 131.2069,-48 141.2069,-51.5001 141.207,-44.5001"/>
</g>
<!-- Node12 -->
<g id="node6" class="node">
<title>Node12</title>
<g id="a_node6"><a xlink:href="class_c_wallet_d_b_wrapper.html#aae43ddc4f6aa72de2ca771ebd7c9eddb" target="_top" xlink:title="Back up the entire database to a file. ">
<polygon fill="#ffffff" stroke="#000000" points="167,-.5 167,-19.5 309,-19.5 309,-.5 167,-.5"/>
<text text-anchor="middle" x="238" y="-7.5" font-family="Helvetica,sans-Serif" font-size="10.00" fill="#000000">CWalletDBWrapper::Backup</text>
</a>
</g>
</g>
<!-- Node7&#45;&gt;Node12 -->
<g id="edge5" class="edge">
<title>Node7&#45;&gt;Node12</title>
<path fill="none" stroke="#191970" d="M118.8505,-36.2474C143.242,-30.8742 171.7627,-24.5914 194.784,-19.5201"/>
<polygon fill="#191970" stroke="#191970" points="118.0419,-32.8416 109.029,-38.411 119.5479,-39.6776 118.0419,-32.8416"/>
</g>
<!-- Node9 -->
<g id="node3" class="node">
<title>Node9</title>
<g id="a_node3"><a xlink:href="class_c_wallet_d_b_wrapper.html#afa0fb423fa37ea30660c0ae3dbd9d40d" target="_top" xlink:title="Rewrite the entire database on disk, with the exception of key pszSkip if non&#45;zero. ">
<polygon fill="#ffffff" stroke="#000000" points="345.5,-98.5 345.5,-117.5 488.5,-117.5 488.5,-98.5 345.5,-98.5"/>
<text text-anchor="middle" x="417" y="-105.5" font-family="Helvetica,sans-Serif" font-size="10.00" fill="#000000">CWalletDBWrapper::Rewrite</text>
</a>
</g>
</g>
<!-- Node8&#45;&gt;Node9 -->
<g id="edge2" class="edge">
<title>Node8&#45;&gt;Node9</title>
<path fill="none" stroke="#191970" d="M287.2271,-92.0503C305.1786,-94.2566 325.8612,-96.7986 345.3641,-99.1956"/>
<polygon fill="#191970" stroke="#191970" points="287.6346,-88.5741 277.2823,-90.828 286.7806,-95.5218 287.6346,-88.5741"/>
</g>
<!-- Node10 -->
<g id="node4" class="node">
<title>Node10</title>
<g id="a_node4"><a xlink:href="class_c_wallet_d_b_wrapper.html#ab8036e4ace0d2937a75c02c1f8bf3a06" target="_top" xlink:title="Create DB handle to real database. ">
<polygon fill="#ffffff" stroke="#000000" points="345,-49 345,-79 489,-79 489,-49 345,-49"/>
<text text-anchor="start" x="353" y="-67" font-family="Helvetica,sans-Serif" font-size="10.00" fill="#000000">CWalletDBWrapper::CWallet</text>
<text text-anchor="middle" x="417" y="-56" font-family="Helvetica,sans-Serif" font-size="10.00" fill="#000000">DBWrapper</text>
</a>
</g>
</g>
<!-- Node8&#45;&gt;Node10 -->
<g id="edge3" class="edge">
<title>Node8&#45;&gt;Node10</title>
<path fill="none" stroke="#191970" d="M287.3692,-79.9323C305.0672,-77.7571 325.4054,-75.2574 344.6453,-72.8928"/>
<polygon fill="#191970" stroke="#191970" points="286.7806,-76.4782 277.2823,-81.172 287.6346,-83.4259 286.7806,-76.4782"/>
</g>
</g>
</svg>
