<?xml version="1.0" encoding="UTF-8" standalone="no"?>
<!DOCTYPE svg PUBLIC "-//W3C//DTD SVG 1.1//EN"
 "http://www.w3.org/Graphics/SVG/1.1/DTD/svg11.dtd">
<!-- Generated by graphviz version 2.40.1 (20161225.0304)
 -->
<!-- Title: WalletModelTransaction::reassignAmounts Pages: 1 -->
<svg width="278pt" height="88pt"
 viewBox="0.00 0.00 278.00 88.00" xmlns="http://www.w3.org/2000/svg" xmlns:xlink="http://www.w3.org/1999/xlink">
<g id="graph0" class="graph" transform="scale(1 1) rotate(0) translate(4 84)">
<title>WalletModelTransaction::reassignAmounts</title>
<polygon fill="#ffffff" stroke="transparent" points="-4,4 -4,-84 274,-84 274,4 -4,4"/>
<!-- Node26 -->
<g id="node1" class="node">
<title>Node26</title>
<polygon fill="#bfbfbf" stroke="#000000" points="0,-24.5 0,-54.5 122,-54.5 122,-24.5 0,-24.5"/>
<text text-anchor="start" x="8" y="-42.5" font-family="Helvetica,sans-Serif" font-size="10.00" fill="#000000">WalletModelTransaction</text>
<text text-anchor="middle" x="61" y="-31.5" font-family="Helvetica,sans-Serif" font-size="10.00" fill="#000000">::reassignAmounts</text>
</g>
<!-- Node27 -->
<g id="node2" class="node">
<title>Node27</title>
<g id="a_node2"><a xlink:href="class_payment_request_plus.html#aa3d8c57af7c7bc4ffbc31da32e5a40a6" target="_top" xlink:title="PaymentRequestPlus\l::IsInitialized">
<polygon fill="#ffffff" stroke="#000000" points="158,-49.5 158,-79.5 270,-79.5 270,-49.5 158,-49.5"/>
<text text-anchor="start" x="166" y="-67.5" font-family="Helvetica,sans-Serif" font-size="10.00" fill="#000000">PaymentRequestPlus</text>
<text text-anchor="middle" x="214" y="-56.5" font-family="Helvetica,sans-Serif" font-size="10.00" fill="#000000">::IsInitialized</text>
</a>
</g>
</g>
<!-- Node26&#45;&gt;Node27 -->
<g id="edge1" class="edge">
<title>Node26&#45;&gt;Node27</title>
<path fill="none" stroke="#191970" d="M122.3494,-49.5244C130.624,-50.8765 139.145,-52.2688 147.5039,-53.6346"/>
<polygon fill="#191970" stroke="#191970" points="147.1585,-57.1245 157.5921,-55.283 148.2874,-50.2161 147.1585,-57.1245"/>
</g>
<!-- Node28 -->
<g id="node3" class="node">
<title>Node28</title>
<g id="a_node3"><a xlink:href="class_payment_request_plus.html#ab0ebee8009c066b45811fe59a07da230" target="_top" xlink:title="PaymentRequestPlus\l::getDetails">
<polygon fill="#ffffff" stroke="#000000" points="158,-.5 158,-30.5 270,-30.5 270,-.5 158,-.5"/>
<text text-anchor="start" x="166" y="-18.5" font-family="Helvetica,sans-Serif" font-size="10.00" fill="#000000">PaymentRequestPlus</text>
<text text-anchor="middle" x="214" y="-7.5" font-family="Helvetica,sans-Serif" font-size="10.00" fill="#000000">::getDetails</text>
</a>
</g>
</g>
<!-- Node26&#45;&gt;Node28 -->
<g id="edge2" class="edge">
<title>Node26&#45;&gt;Node28</title>
<path fill="none" stroke="#191970" d="M122.3494,-29.8766C130.624,-28.5786 139.145,-27.242 147.5039,-25.9308"/>
<polygon fill="#191970" stroke="#191970" points="148.2553,-29.3558 157.5921,-24.3483 147.1705,-22.4403 148.2553,-29.3558"/>
</g>
</g>
</svg>
