<?xml version="1.0" encoding="UTF-8" standalone="no"?>
<!DOCTYPE svg PUBLIC "-//W3C//DTD SVG 1.1//EN"
 "http://www.w3.org/Graphics/SVG/1.1/DTD/svg11.dtd">
<!-- Generated by graphviz version 2.40.1 (20161225.0304)
 -->
<!-- Title: CNode::GetLocalServices Pages: 1 -->
<svg width="256pt" height="66pt"
 viewBox="0.00 0.00 256.00 66.00" xmlns="http://www.w3.org/2000/svg" xmlns:xlink="http://www.w3.org/1999/xlink">
<g id="graph0" class="graph" transform="scale(1 1) rotate(0) translate(4 62)">
<title>CNode::GetLocalServices</title>
<polygon fill="#ffffff" stroke="transparent" points="-4,4 -4,-62 252,-62 252,4 -4,4"/>
<!-- Node53 -->
<g id="node1" class="node">
<title>Node53</title>
<polygon fill="#bfbfbf" stroke="#000000" points="0,-19.5 0,-38.5 131,-38.5 131,-19.5 0,-19.5"/>
<text text-anchor="middle" x="65.5" y="-26.5" font-family="Helvetica,sans-Serif" font-size="10.00" fill="#000000">CNode::GetLocalServices</text>
</g>
<!-- Node54 -->
<g id="node2" class="node">
<title>Node54</title>
<g id="a_node2"><a xlink:href="net_8h.html#a0cde2b3256757536c42c0bd3037847d1" target="_top" xlink:title="AdvertiseLocal">
<polygon fill="#ffffff" stroke="#000000" points="167,-38.5 167,-57.5 248,-57.5 248,-38.5 167,-38.5"/>
<text text-anchor="middle" x="207.5" y="-45.5" font-family="Helvetica,sans-Serif" font-size="10.00" fill="#000000">AdvertiseLocal</text>
</a>
</g>
</g>
<!-- Node53&#45;&gt;Node54 -->
<g id="edge1" class="edge">
<title>Node53&#45;&gt;Node54</title>
<path fill="none" stroke="#191970" d="M141.1295,-39.1194C150.0057,-40.3071 158.7851,-41.4818 166.9095,-42.5689"/>
<polygon fill="#191970" stroke="#191970" points="141.4723,-35.6342 131.0964,-37.777 140.5439,-42.5724 141.4723,-35.6342"/>
</g>
<!-- Node55 -->
<g id="node3" class="node">
<title>Node55</title>
<g id="a_node3"><a xlink:href="net__processing_8cpp.html#a6822dbdf3785682a698b49487d3031ad" target="_top" xlink:title="GetFetchFlags">
<polygon fill="#ffffff" stroke="#000000" points="167,-.5 167,-19.5 248,-19.5 248,-.5 167,-.5"/>
<text text-anchor="middle" x="207.5" y="-7.5" font-family="Helvetica,sans-Serif" font-size="10.00" fill="#000000">GetFetchFlags</text>
</a>
</g>
</g>
<!-- Node53&#45;&gt;Node55 -->
<g id="edge2" class="edge">
<title>Node53&#45;&gt;Node55</title>
<path fill="none" stroke="#191970" d="M141.1295,-18.8806C150.0057,-17.6929 158.7851,-16.5182 166.9095,-15.4311"/>
<polygon fill="#191970" stroke="#191970" points="140.5439,-15.4276 131.0964,-20.223 141.4723,-22.3658 140.5439,-15.4276"/>
</g>
</g>
</svg>
