<?xml version="1.0" encoding="UTF-8" standalone="no"?>
<!DOCTYPE svg PUBLIC "-//W3C//DTD SVG 1.1//EN"
 "http://www.w3.org/Graphics/SVG/1.1/DTD/svg11.dtd">
<!-- Generated by graphviz version 2.40.1 (20161225.0304)
 -->
<!-- Title: base_uint::bits Pages: 1 -->
<svg width="445pt" height="66pt"
 viewBox="0.00 0.00 445.00 66.00" xmlns="http://www.w3.org/2000/svg" xmlns:xlink="http://www.w3.org/1999/xlink">
<g id="graph0" class="graph" transform="scale(1 1) rotate(0) translate(4 62)">
<title>base_uint::bits</title>
<polygon fill="#ffffff" stroke="transparent" points="-4,4 -4,-62 441,-62 441,4 -4,4"/>
<!-- Node10 -->
<g id="node1" class="node">
<title>Node10</title>
<polygon fill="#bfbfbf" stroke="#000000" points="0,-19.5 0,-38.5 80,-38.5 80,-19.5 0,-19.5"/>
<text text-anchor="middle" x="40" y="-26.5" font-family="Helvetica,sans-Serif" font-size="10.00" fill="#000000">base_uint::bits</text>
</g>
<!-- Node10&#45;&gt;Node10 -->
<g id="edge2" class="edge">
<title>Node10&#45;&gt;Node10</title>
<path fill="none" stroke="#191970" d="M12.0009,-47.6539C13.1712,-52.9368 22.5043,-57 40,-57 66.6602,-57 74.3666,-47.5653 63.1194,-38.7571"/>
<polygon fill="#191970" stroke="#191970" points="15.1403,-49.208 16.8806,-38.7571 9.0029,-45.8417 15.1403,-49.208"/>
</g>
<!-- Node11 -->
<g id="node2" class="node">
<title>Node11</title>
<g id="a_node2"><a xlink:href="classbase__uint.html#ad6fa7e22ab995247c0bf298069732e1d" target="_top" xlink:title="base_uint\&lt; 256 \&gt;::operator/=">
<polygon fill="#ffffff" stroke="#000000" points="118.5,-38.5 118.5,-57.5 261.5,-57.5 261.5,-38.5 118.5,-38.5"/>
<text text-anchor="middle" x="190" y="-45.5" font-family="Helvetica,sans-Serif" font-size="10.00" fill="#000000">base_uint&lt; 256 &gt;::operator/=</text>
</a>
</g>
</g>
<!-- Node10&#45;&gt;Node11 -->
<g id="edge1" class="edge">
<title>Node10&#45;&gt;Node11</title>
<path fill="none" stroke="#191970" d="M90.1771,-35.3558C99.2512,-36.5052 108.8718,-37.7238 118.4184,-38.933"/>
<polygon fill="#191970" stroke="#191970" points="90.5578,-31.8761 80.1972,-34.0917 89.6781,-38.8206 90.5578,-31.8761"/>
</g>
<!-- Node12 -->
<g id="node3" class="node">
<title>Node12</title>
<g id="a_node3"><a xlink:href="chain_8h.html#a6f922f61b23b0fc46182f8ab457af736" target="_top" xlink:title="Return the time it would take to redo the work difference between from and to, assuming the current h...">
<polygon fill="#ffffff" stroke="#000000" points="116,-.5 116,-19.5 264,-19.5 264,-.5 116,-.5"/>
<text text-anchor="middle" x="190" y="-7.5" font-family="Helvetica,sans-Serif" font-size="10.00" fill="#000000">GetBlockProofEquivalentTime</text>
</a>
</g>
</g>
<!-- Node10&#45;&gt;Node12 -->
<g id="edge3" class="edge">
<title>Node10&#45;&gt;Node12</title>
<path fill="none" stroke="#191970" d="M90.3192,-22.6262C98.5246,-21.5869 107.1737,-20.4913 115.8085,-19.3976"/>
<polygon fill="#191970" stroke="#191970" points="89.6781,-19.1794 80.1972,-23.9083 90.5578,-26.1239 89.6781,-19.1794"/>
</g>
<!-- Node13 -->
<g id="node4" class="node">
<title>Node13</title>
<g id="a_node4"><a xlink:href="class_c_block_index.html#a076aff906933e9d75a37aa9b81c01384" target="_top" xlink:title="Raise the validity level of this block index entry. ">
<polygon fill="#ffffff" stroke="#000000" points="300,-.5 300,-19.5 437,-19.5 437,-.5 300,-.5"/>
<text text-anchor="middle" x="368.5" y="-7.5" font-family="Helvetica,sans-Serif" font-size="10.00" fill="#000000">CBlockIndex::RaiseValidity</text>
</a>
</g>
</g>
<!-- Node12&#45;&gt;Node13 -->
<g id="edge4" class="edge">
<title>Node12&#45;&gt;Node13</title>
<path fill="none" stroke="#191970" d="M274.157,-10C282.7228,-10 291.3513,-10 299.7256,-10"/>
<polygon fill="#191970" stroke="#191970" points="274.1494,-6.5001 264.1493,-10 274.1493,-13.5001 274.1494,-6.5001"/>
</g>
</g>
</svg>
