<?xml version="1.0" encoding="UTF-8" standalone="no"?>
<!DOCTYPE svg PUBLIC "-//W3C//DTD SVG 1.1//EN"
 "http://www.w3.org/Graphics/SVG/1.1/DTD/svg11.dtd">
<!-- Generated by graphviz version 2.40.1 (20161225.0304)
 -->
<!-- Title: ClientModel::setNetworkActive Pages: 1 -->
<svg width="508pt" height="28pt"
 viewBox="0.00 0.00 508.00 28.00" xmlns="http://www.w3.org/2000/svg" xmlns:xlink="http://www.w3.org/1999/xlink">
<g id="graph0" class="graph" transform="scale(1 1) rotate(0) translate(4 24)">
<title>ClientModel::setNetworkActive</title>
<polygon fill="#ffffff" stroke="transparent" points="-4,4 -4,-24 504,-24 504,4 -4,4"/>
<!-- Node258 -->
<g id="node1" class="node">
<title>Node258</title>
<polygon fill="#bfbfbf" stroke="#000000" points="0,-.5 0,-19.5 152,-19.5 152,-.5 0,-.5"/>
<text text-anchor="middle" x="76" y="-7.5" font-family="Helvetica,sans-Serif" font-size="10.00" fill="#000000">ClientModel::setNetworkActive</text>
</g>
<!-- Node259 -->
<g id="node2" class="node">
<title>Node259</title>
<g id="a_node2"><a xlink:href="class_raven_g_u_i.html#aab12f19da99f8df63d65a9c4ca669eed" target="_top" xlink:title="Toggle networking. ">
<polygon fill="#ffffff" stroke="#000000" points="188,-.5 188,-19.5 348,-19.5 348,-.5 188,-.5"/>
<text text-anchor="middle" x="268" y="-7.5" font-family="Helvetica,sans-Serif" font-size="10.00" fill="#000000">RavenGUI::toggleNetworkActive</text>
</a>
</g>
</g>
<!-- Node258&#45;&gt;Node259 -->
<g id="edge1" class="edge">
<title>Node258&#45;&gt;Node259</title>
<path fill="none" stroke="#191970" d="M162.4136,-10C170.8758,-10 179.4384,-10 187.8348,-10"/>
<polygon fill="#191970" stroke="#191970" points="162.1593,-6.5001 152.1592,-10 162.1592,-13.5001 162.1593,-6.5001"/>
</g>
<!-- Node260 -->
<g id="node3" class="node">
<title>Node260</title>
<g id="a_node3"><a xlink:href="class_raven_g_u_i.html#af82cbe028fc29d0ea71074eced806071" target="_top" xlink:title="RavenGUI::RavenGUI">
<polygon fill="#ffffff" stroke="#000000" points="384,-.5 384,-19.5 500,-19.5 500,-.5 384,-.5"/>
<text text-anchor="middle" x="442" y="-7.5" font-family="Helvetica,sans-Serif" font-size="10.00" fill="#000000">RavenGUI::RavenGUI</text>
</a>
</g>
</g>
<!-- Node259&#45;&gt;Node260 -->
<g id="edge2" class="edge">
<title>Node259&#45;&gt;Node260</title>
<path fill="none" stroke="#191970" d="M358.3054,-10C366.9784,-10 375.6076,-10 383.8474,-10"/>
<polygon fill="#191970" stroke="#191970" points="358.1246,-6.5001 348.1245,-10 358.1245,-13.5001 358.1246,-6.5001"/>
</g>
</g>
</svg>
