<?xml version="1.0" encoding="UTF-8" standalone="no"?>
<!DOCTYPE svg PUBLIC "-//W3C//DTD SVG 1.1//EN"
 "http://www.w3.org/Graphics/SVG/1.1/DTD/svg11.dtd">
<!-- Generated by graphviz version 2.40.1 (20161225.0304)
 -->
<!-- Title: CCoinsViewCache::FetchCoin Pages: 1 -->
<svg width="1107pt" height="736pt"
 viewBox="0.00 0.00 1107.00 735.50" xmlns="http://www.w3.org/2000/svg" xmlns:xlink="http://www.w3.org/1999/xlink">
<g id="graph0" class="graph" transform="scale(1 1) rotate(0) translate(4 731.5)">
<title>CCoinsViewCache::FetchCoin</title>
<polygon fill="#ffffff" stroke="transparent" points="-4,4 -4,-731.5 1103,-731.5 1103,4 -4,4"/>
<!-- Node212 -->
<g id="node1" class="node">
<title>Node212</title>
<polygon fill="#bfbfbf" stroke="#000000" points="0,-341.5 0,-360.5 151,-360.5 151,-341.5 0,-341.5"/>
<text text-anchor="middle" x="75.5" y="-348.5" font-family="Helvetica,sans-Serif" font-size="10.00" fill="#000000">CCoinsViewCache::FetchCoin</text>
</g>
<!-- Node213 -->
<g id="node2" class="node">
<title>Node213</title>
<g id="a_node2"><a xlink:href="class_c_coins_view_cache.html#aaeb452bec99d4fa667fec4c0df25dedf" target="_top" xlink:title="Retrieve the Coin (unspent transaction output) for a given outpoint. ">
<polygon fill="#ffffff" stroke="#000000" points="195.5,-658.5 195.5,-677.5 337.5,-677.5 337.5,-658.5 195.5,-658.5"/>
<text text-anchor="middle" x="266.5" y="-665.5" font-family="Helvetica,sans-Serif" font-size="10.00" fill="#000000">CCoinsViewCache::GetCoin</text>
</a>
</g>
</g>
<!-- Node212&#45;&gt;Node213 -->
<g id="edge1" class="edge">
<title>Node212&#45;&gt;Node213</title>
<path fill="none" stroke="#191970" d="M86.6848,-369.5633C122.5392,-429.0703 233.8281,-613.7749 260.6434,-658.2799"/>
<polygon fill="#191970" stroke="#191970" points="89.5845,-367.5939 81.4257,-360.8348 83.5887,-371.2065 89.5845,-367.5939"/>
</g>
<!-- Node216 -->
<g id="node5" class="node">
<title>Node216</title>
<g id="a_node5"><a xlink:href="class_c_coins_view_cache.html#ad9ccb571fa3a311828efcee46c13bd65" target="_top" xlink:title="Spend a coin. ">
<polygon fill="#ffffff" stroke="#000000" points="189.5,-240.5 189.5,-259.5 343.5,-259.5 343.5,-240.5 189.5,-240.5"/>
<text text-anchor="middle" x="266.5" y="-247.5" font-family="Helvetica,sans-Serif" font-size="10.00" fill="#000000">CCoinsViewCache::SpendCoin</text>
</a>
</g>
</g>
<!-- Node212&#45;&gt;Node216 -->
<g id="edge4" class="edge">
<title>Node212&#45;&gt;Node216</title>
<path fill="none" stroke="#191970" d="M102.7938,-336.5672C142.4198,-315.6131 214.8104,-277.3333 248.4398,-259.5502"/>
<polygon fill="#191970" stroke="#191970" points="100.6728,-333.7294 93.4688,-341.4982 103.9451,-339.9175 100.6728,-333.7294"/>
</g>
<!-- Node219 -->
<g id="node8" class="node">
<title>Node219</title>
<g id="a_node8"><a xlink:href="class_c_coins_view_cache.html#afd0144ded5ce891084aabff29141f8b2" target="_top" xlink:title="Return a reference to Coin in the cache, or a pruned one if not found. ">
<polygon fill="#ffffff" stroke="#000000" points="187,-411.5 187,-430.5 346,-430.5 346,-411.5 187,-411.5"/>
<text text-anchor="middle" x="266.5" y="-418.5" font-family="Helvetica,sans-Serif" font-size="10.00" fill="#000000">CCoinsViewCache::AccessCoin</text>
</a>
</g>
</g>
<!-- Node212&#45;&gt;Node219 -->
<g id="edge7" class="edge">
<title>Node212&#45;&gt;Node219</title>
<path fill="none" stroke="#191970" d="M111.192,-364.0808C148.7218,-377.8352 206.8758,-399.1482 240.3529,-411.4173"/>
<polygon fill="#191970" stroke="#191970" points="112.251,-360.7413 101.6573,-360.5864 109.8421,-367.3138 112.251,-360.7413"/>
</g>
<!-- Node232 -->
<g id="node21" class="node">
<title>Node232</title>
<g id="a_node21"><a xlink:href="class_c_coins_view_cache.html#af097128dca85eb8f94b864015d839d46" target="_top" xlink:title="Just check whether a given outpoint is unspent. ">
<polygon fill="#ffffff" stroke="#000000" points="192,-114.5 192,-133.5 341,-133.5 341,-114.5 192,-114.5"/>
<text text-anchor="middle" x="266.5" y="-121.5" font-family="Helvetica,sans-Serif" font-size="10.00" fill="#000000">CCoinsViewCache::HaveCoin</text>
</a>
</g>
</g>
<!-- Node212&#45;&gt;Node232 -->
<g id="edge20" class="edge">
<title>Node212&#45;&gt;Node232</title>
<path fill="none" stroke="#191970" d="M90.2517,-333.4679C128.3171,-288.2279 228.9246,-168.6576 258.3235,-133.7176"/>
<polygon fill="#191970" stroke="#191970" points="87.4672,-331.3409 83.707,-341.2461 92.8234,-335.8477 87.4672,-331.3409"/>
</g>
<!-- Node214 -->
<g id="node3" class="node">
<title>Node214</title>
<g id="a_node3"><a xlink:href="class_transaction_desc.html#a1de402b439b16ee501487b6cadb979ce" target="_top" xlink:title="TransactionDesc::CreateDebug\lString">
<polygon fill="#ffffff" stroke="#000000" points="383.5,-697 383.5,-727 538.5,-727 538.5,-697 383.5,-697"/>
<text text-anchor="start" x="391.5" y="-715" font-family="Helvetica,sans-Serif" font-size="10.00" fill="#000000">TransactionDesc::CreateDebug</text>
<text text-anchor="middle" x="461" y="-704" font-family="Helvetica,sans-Serif" font-size="10.00" fill="#000000">String</text>
</a>
</g>
</g>
<!-- Node213&#45;&gt;Node214 -->
<g id="edge2" class="edge">
<title>Node213&#45;&gt;Node214</title>
<path fill="none" stroke="#191970" d="M318.7196,-679.8132C341.9877,-685.0769 369.6695,-691.3391 394.4042,-696.9346"/>
<polygon fill="#191970" stroke="#191970" points="319.2294,-676.3401 308.7036,-677.5473 317.6849,-683.1676 319.2294,-676.3401"/>
</g>
<!-- Node215 -->
<g id="node4" class="node">
<title>Node215</title>
<g id="a_node4"><a xlink:href="blockchain_8cpp.html#a0d3ec9ae23b08828dd7ca646766ca637" target="_top" xlink:title="gettxout">
<polygon fill="#ffffff" stroke="#000000" points="435,-658.5 435,-677.5 487,-677.5 487,-658.5 435,-658.5"/>
<text text-anchor="middle" x="461" y="-665.5" font-family="Helvetica,sans-Serif" font-size="10.00" fill="#000000">gettxout</text>
</a>
</g>
</g>
<!-- Node213&#45;&gt;Node215 -->
<g id="edge3" class="edge">
<title>Node213&#45;&gt;Node215</title>
<path fill="none" stroke="#191970" d="M347.578,-668C378.7802,-668 412.2677,-668 434.7025,-668"/>
<polygon fill="#191970" stroke="#191970" points="347.5446,-664.5001 337.5446,-668 347.5445,-671.5001 347.5446,-664.5001"/>
</g>
<!-- Node217 -->
<g id="node6" class="node">
<title>Node217</title>
<g id="a_node6"><a xlink:href="validation_8h.html#a91b5ac61688f4e264fa71d1caf138340" target="_top" xlink:title="UpdateCoins">
<polygon fill="#ffffff" stroke="#000000" points="610.5,-152.5 610.5,-171.5 684.5,-171.5 684.5,-152.5 610.5,-152.5"/>
<text text-anchor="middle" x="647.5" y="-159.5" font-family="Helvetica,sans-Serif" font-size="10.00" fill="#000000">UpdateCoins</text>
</a>
</g>
</g>
<!-- Node216&#45;&gt;Node217 -->
<g id="edge5" class="edge">
<title>Node216&#45;&gt;Node217</title>
<path fill="none" stroke="#191970" d="M310.0952,-237.7391C331.6644,-231.816 358.1307,-224.7616 382,-219 463.1154,-199.4204 558.9837,-179.6673 610.4278,-169.3405"/>
<polygon fill="#191970" stroke="#191970" points="308.9536,-234.4233 300.2457,-240.4584 310.8166,-241.1708 308.9536,-234.4233"/>
</g>
<!-- Node218 -->
<g id="node7" class="node">
<title>Node218</title>
<g id="a_node7"><a xlink:href="validation_8h.html#ae9afb0553a9927e26785f4e4806a9892" target="_top" xlink:title="Apply the effects of this transaction on the UTXO set represented by view. ">
<polygon fill="#ffffff" stroke="#000000" points="795,-152.5 795,-171.5 869,-171.5 869,-152.5 795,-152.5"/>
<text text-anchor="middle" x="832" y="-159.5" font-family="Helvetica,sans-Serif" font-size="10.00" fill="#000000">UpdateCoins</text>
</a>
</g>
</g>
<!-- Node217&#45;&gt;Node218 -->
<g id="edge6" class="edge">
<title>Node217&#45;&gt;Node218</title>
<path fill="none" stroke="#191970" d="M694.9895,-162C726.0222,-162 765.9747,-162 794.7192,-162"/>
<polygon fill="#191970" stroke="#191970" points="694.8364,-158.5001 684.8363,-162 694.8363,-165.5001 694.8364,-158.5001"/>
</g>
<!-- Node220 -->
<g id="node9" class="node">
<title>Node220</title>
<g id="a_node9"><a xlink:href="rpc_2assets_8cpp.html#ab794b426301153b69c4003257372e732" target="_top" xlink:title="CheckRestrictedAssetTransfer\lInputs">
<polygon fill="#ffffff" stroke="#000000" points="385,-343 385,-373 537,-373 537,-343 385,-343"/>
<text text-anchor="start" x="393" y="-361" font-family="Helvetica,sans-Serif" font-size="10.00" fill="#000000">CheckRestrictedAssetTransfer</text>
<text text-anchor="middle" x="461" y="-350" font-family="Helvetica,sans-Serif" font-size="10.00" fill="#000000">Inputs</text>
</a>
</g>
</g>
<!-- Node219&#45;&gt;Node220 -->
<g id="edge8" class="edge">
<title>Node219&#45;&gt;Node220</title>
<path fill="none" stroke="#191970" d="M304.9376,-408.2327C327.3879,-400.806 356.2756,-391.3018 382,-383 391.994,-379.7748 402.7121,-376.3561 412.9287,-373.1165"/>
<polygon fill="#191970" stroke="#191970" points="303.8178,-404.9165 295.4249,-411.3826 306.0183,-411.5617 303.8178,-404.9165"/>
</g>
<!-- Node221 -->
<g id="node10" class="node">
<title>Node221</title>
<g id="a_node10"><a xlink:href="class_c_coins_view_cache.html#a1a8cd6069fba96939ffcb1bd36ffb921" target="_top" xlink:title="Amount of ravens coming in to a transaction Note that lightweight clients may not know anything besid...">
<polygon fill="#ffffff" stroke="#000000" points="383.5,-304.5 383.5,-323.5 538.5,-323.5 538.5,-304.5 383.5,-304.5"/>
<text text-anchor="middle" x="461" y="-311.5" font-family="Helvetica,sans-Serif" font-size="10.00" fill="#000000">CCoinsViewCache::GetValueIn</text>
</a>
</g>
</g>
<!-- Node219&#45;&gt;Node221 -->
<g id="edge9" class="edge">
<title>Node219&#45;&gt;Node221</title>
<path fill="none" stroke="#191970" d="M283.3157,-404.504C304.5484,-384.6017 343.0327,-351.5143 382,-333 390.0271,-329.1861 398.8877,-326.0987 407.6855,-323.6112"/>
<polygon fill="#191970" stroke="#191970" points="280.8772,-401.993 276.0577,-411.4282 285.7091,-407.0579 280.8772,-401.993"/>
</g>
<!-- Node222 -->
<g id="node11" class="node">
<title>Node222</title>
<g id="a_node11"><a xlink:href="tx__verify_8h.html#a312fadbeec896d49437733e986f3df04" target="_top" xlink:title="Count ECDSA signature operations in pay&#45;to&#45;script&#45;hash inputs. ">
<polygon fill="#ffffff" stroke="#000000" points="405,-266.5 405,-285.5 517,-285.5 517,-266.5 405,-266.5"/>
<text text-anchor="middle" x="461" y="-273.5" font-family="Helvetica,sans-Serif" font-size="10.00" fill="#000000">GetP2SHSigOpCount</text>
</a>
</g>
</g>
<!-- Node219&#45;&gt;Node222 -->
<g id="edge10" class="edge">
<title>Node219&#45;&gt;Node222</title>
<path fill="none" stroke="#191970" d="M278.0615,-402.5963C296.515,-374.8122 335.344,-322.4895 382,-295 389.0491,-290.8467 396.9592,-287.6001 404.9783,-285.0625"/>
<polygon fill="#191970" stroke="#191970" points="274.909,-401.025 272.4046,-411.3196 280.7822,-404.8337 274.909,-401.025"/>
</g>
<!-- Node223 -->
<g id="node12" class="node">
<title>Node223</title>
<g id="a_node12"><a xlink:href="policy_8h.html#a791e33e18bea9861e449e6ebcfce8890" target="_top" xlink:title="Check for standard transaction types. ">
<polygon fill="#ffffff" stroke="#000000" points="412,-228.5 412,-247.5 510,-247.5 510,-228.5 412,-228.5"/>
<text text-anchor="middle" x="461" y="-235.5" font-family="Helvetica,sans-Serif" font-size="10.00" fill="#000000">AreInputsStandard</text>
</a>
</g>
</g>
<!-- Node219&#45;&gt;Node223 -->
<g id="edge11" class="edge">
<title>Node219&#45;&gt;Node223</title>
<path fill="none" stroke="#191970" d="M274.3625,-401.9971C289.6792,-367.4362 326.9131,-294.4141 382,-257 390.8687,-250.9765 401.4343,-246.8549 411.9075,-244.0368"/>
<polygon fill="#191970" stroke="#191970" points="271.0517,-400.8368 270.3172,-411.4061 277.4825,-403.6017 271.0517,-400.8368"/>
</g>
<!-- Node224 -->
<g id="node13" class="node">
<title>Node224</title>
<g id="a_node13"><a xlink:href="policy_8h.html#a8a73d04fc7e2d36b2acc4d6eb0cc2993" target="_top" xlink:title="Check if the transaction is over standard P2WSH resources limit: 3600bytes witnessScript size...">
<polygon fill="#ffffff" stroke="#000000" points="411,-582.5 411,-601.5 511,-601.5 511,-582.5 411,-582.5"/>
<text text-anchor="middle" x="461" y="-589.5" font-family="Helvetica,sans-Serif" font-size="10.00" fill="#000000">IsWitnessStandard</text>
</a>
</g>
</g>
<!-- Node219&#45;&gt;Node224 -->
<g id="edge12" class="edge">
<title>Node219&#45;&gt;Node224</title>
<path fill="none" stroke="#191970" d="M275.4219,-439.9585C291.7577,-472.5115 329.6667,-538.8237 382,-573 390.622,-578.6306 400.7505,-582.5949 410.8254,-585.3855"/>
<polygon fill="#191970" stroke="#191970" points="278.4154,-438.112 270.8852,-430.6591 272.1242,-441.1812 278.4154,-438.112"/>
</g>
<!-- Node225 -->
<g id="node14" class="node">
<title>Node225</title>
<g id="a_node14"><a xlink:href="rawtransaction_8cpp.html#a266f1646e146bdb9faca1a701de9a9f2" target="_top" xlink:title="combinerawtransaction">
<polygon fill="#ffffff" stroke="#000000" points="402.5,-544.5 402.5,-563.5 519.5,-563.5 519.5,-544.5 402.5,-544.5"/>
<text text-anchor="middle" x="461" y="-551.5" font-family="Helvetica,sans-Serif" font-size="10.00" fill="#000000">combinerawtransaction</text>
</a>
</g>
</g>
<!-- Node219&#45;&gt;Node225 -->
<g id="edge13" class="edge">
<title>Node219&#45;&gt;Node225</title>
<path fill="none" stroke="#191970" d="M279.3394,-438.7447C298.6681,-464.1103 337.7256,-510.3832 382,-535 389.0274,-538.9073 396.8419,-542.0166 404.7447,-544.4895"/>
<polygon fill="#191970" stroke="#191970" points="282.1339,-436.6372 273.3492,-430.7143 276.523,-440.8226 282.1339,-436.6372"/>
</g>
<!-- Node226 -->
<g id="node15" class="node">
<title>Node226</title>
<g id="a_node15"><a xlink:href="rawtransaction_8cpp.html#a5b2abfea4548c97e780cfae39f9ac11b" target="_top" xlink:title="signrawtransaction">
<polygon fill="#ffffff" stroke="#000000" points="412,-506.5 412,-525.5 510,-525.5 510,-506.5 412,-506.5"/>
<text text-anchor="middle" x="461" y="-513.5" font-family="Helvetica,sans-Serif" font-size="10.00" fill="#000000">signrawtransaction</text>
</a>
</g>
</g>
<!-- Node219&#45;&gt;Node226 -->
<g id="edge14" class="edge">
<title>Node219&#45;&gt;Node226</title>
<path fill="none" stroke="#191970" d="M286.0976,-436.9846C308.1449,-454.2018 345.6417,-481.2406 382,-497 391.3188,-501.0392 401.6449,-504.3093 411.6744,-506.9234"/>
<polygon fill="#191970" stroke="#191970" points="288.1823,-434.1708 278.1733,-430.6967 283.8313,-439.6543 288.1823,-434.1708"/>
</g>
<!-- Node227 -->
<g id="node16" class="node">
<title>Node227</title>
<g id="a_node16"><a xlink:href="class_c_tx_mem_pool.html#a16884a575b85f500781477a487a9b1dd" target="_top" xlink:title="CTxMemPool::addAddressIndex">
<polygon fill="#ffffff" stroke="#000000" points="382,-468.5 382,-487.5 540,-487.5 540,-468.5 382,-468.5"/>
<text text-anchor="middle" x="461" y="-475.5" font-family="Helvetica,sans-Serif" font-size="10.00" fill="#000000">CTxMemPool::addAddressIndex</text>
</a>
</g>
</g>
<!-- Node219&#45;&gt;Node227 -->
<g id="edge15" class="edge">
<title>Node219&#45;&gt;Node227</title>
<path fill="none" stroke="#191970" d="M302.9181,-433.8295C325.5373,-441.5861 355.2916,-451.4084 382,-459 393.8049,-462.3554 406.7102,-465.6246 418.6045,-468.4786"/>
<polygon fill="#191970" stroke="#191970" points="303.9728,-430.491 293.3781,-430.5357 301.6882,-437.1077 303.9728,-430.491"/>
</g>
<!-- Node228 -->
<g id="node17" class="node">
<title>Node228</title>
<g id="a_node17"><a xlink:href="class_c_tx_mem_pool.html#a2c4f1513000ff34c3fe341e6674b2bd9" target="_top" xlink:title="CTxMemPool::addSpentIndex">
<polygon fill="#ffffff" stroke="#000000" points="387,-430.5 387,-449.5 535,-449.5 535,-430.5 387,-430.5"/>
<text text-anchor="middle" x="461" y="-437.5" font-family="Helvetica,sans-Serif" font-size="10.00" fill="#000000">CTxMemPool::addSpentIndex</text>
</a>
</g>
</g>
<!-- Node219&#45;&gt;Node228 -->
<g id="edge16" class="edge">
<title>Node219&#45;&gt;Node228</title>
<path fill="none" stroke="#191970" d="M356.3131,-429.7735C366.5077,-430.7694 376.812,-431.776 386.7742,-432.7492"/>
<polygon fill="#191970" stroke="#191970" points="356.4647,-426.2718 346.1718,-428.7828 355.7841,-433.2386 356.4647,-426.2718"/>
</g>
<!-- Node229 -->
<g id="node18" class="node">
<title>Node229</title>
<g id="a_node18"><a xlink:href="class_c_tx_mem_pool.html#acf12e024f4d6d5c0437227bc419c28fb" target="_top" xlink:title="CTxMemPool::removeForReorg">
<polygon fill="#ffffff" stroke="#000000" points="383.5,-620.5 383.5,-639.5 538.5,-639.5 538.5,-620.5 383.5,-620.5"/>
<text text-anchor="middle" x="461" y="-627.5" font-family="Helvetica,sans-Serif" font-size="10.00" fill="#000000">CTxMemPool::removeForReorg</text>
</a>
</g>
</g>
<!-- Node219&#45;&gt;Node229 -->
<g id="edge17" class="edge">
<title>Node219&#45;&gt;Node229</title>
<path fill="none" stroke="#191970" d="M272.566,-440.3015C285.7853,-479.0712 320.9991,-566.4946 382,-611 387.356,-614.9077 393.4082,-618.0209 399.7204,-620.4997"/>
<polygon fill="#191970" stroke="#191970" points="275.8678,-439.1378 269.4176,-430.7327 269.2185,-441.3256 275.8678,-439.1378"/>
</g>
<!-- Node231 -->
<g id="node20" class="node">
<title>Node231</title>
<g id="a_node20"><a xlink:href="validation_8cpp.html#adb3030dc3fb35c34bb10776e7d391d1a" target="_top" xlink:title="Check whether all inputs of this transaction are valid (no double spends, scripts &amp; sigs...">
<polygon fill="#ffffff" stroke="#000000" points="425,-392.5 425,-411.5 497,-411.5 497,-392.5 425,-392.5"/>
<text text-anchor="middle" x="461" y="-399.5" font-family="Helvetica,sans-Serif" font-size="10.00" fill="#000000">CheckInputs</text>
</a>
</g>
</g>
<!-- Node219&#45;&gt;Node231 -->
<g id="edge19" class="edge">
<title>Node219&#45;&gt;Node231</title>
<path fill="none" stroke="#191970" d="M356.1489,-412.2425C380.413,-409.8723 405.312,-407.44 424.7545,-405.5407"/>
<polygon fill="#191970" stroke="#191970" points="355.7841,-408.7614 346.1718,-413.2172 356.4647,-415.7282 355.7841,-408.7614"/>
</g>
<!-- Node230 -->
<g id="node19" class="node">
<title>Node230</title>
<g id="a_node19"><a xlink:href="validation_8cpp.html#aaa1204b724d7b62f09ef22df4c6a592d" target="_top" xlink:title="UpdateMempoolForReorg">
<polygon fill="#ffffff" stroke="#000000" points="583.5,-620.5 583.5,-639.5 711.5,-639.5 711.5,-620.5 583.5,-620.5"/>
<text text-anchor="middle" x="647.5" y="-627.5" font-family="Helvetica,sans-Serif" font-size="10.00" fill="#000000">UpdateMempoolForReorg</text>
</a>
</g>
</g>
<!-- Node229&#45;&gt;Node230 -->
<g id="edge18" class="edge">
<title>Node229&#45;&gt;Node230</title>
<path fill="none" stroke="#191970" d="M548.9297,-630C560.5756,-630 572.3325,-630 583.4707,-630"/>
<polygon fill="#191970" stroke="#191970" points="548.7423,-626.5001 538.7423,-630 548.7423,-633.5001 548.7423,-626.5001"/>
</g>
<!-- Node233 -->
<g id="node22" class="node">
<title>Node233</title>
<g id="a_node22"><a xlink:href="coins_8h.html#a1f92a68675031d50db78224a057be854" target="_top" xlink:title="Utility function to add all of a transaction&#39;s outputs to a cache. ">
<polygon fill="#ffffff" stroke="#000000" points="431.5,-76.5 431.5,-95.5 490.5,-95.5 490.5,-76.5 431.5,-76.5"/>
<text text-anchor="middle" x="461" y="-83.5" font-family="Helvetica,sans-Serif" font-size="10.00" fill="#000000">AddCoins</text>
</a>
</g>
</g>
<!-- Node232&#45;&gt;Node233 -->
<g id="edge21" class="edge">
<title>Node232&#45;&gt;Node233</title>
<path fill="none" stroke="#191970" d="M325.4298,-112.4867C360.3865,-105.6571 403.2065,-97.2913 431.2496,-91.8124"/>
<polygon fill="#191970" stroke="#191970" points="324.4728,-109.1074 315.3295,-114.46 325.8151,-115.9775 324.4728,-109.1074"/>
</g>
<!-- Node235 -->
<g id="node24" class="node">
<title>Node235</title>
<g id="a_node24"><a xlink:href="class_c_coins_view_cache.html#a5b1abd71c95dc7be2523b9c28839ec29" target="_top" xlink:title="Check whether all prevouts of the transaction are present in the UTXO set represented by this view...">
<polygon fill="#ffffff" stroke="#000000" points="383,-38.5 383,-57.5 539,-57.5 539,-38.5 383,-38.5"/>
<text text-anchor="middle" x="461" y="-45.5" font-family="Helvetica,sans-Serif" font-size="10.00" fill="#000000">CCoinsViewCache::HaveInputs</text>
</a>
</g>
</g>
<!-- Node232&#45;&gt;Node235 -->
<g id="edge24" class="edge">
<title>Node232&#45;&gt;Node235</title>
<path fill="none" stroke="#191970" d="M291.5603,-109.5978C314.4873,-96.9198 349.6595,-78.7038 382,-67 392.081,-63.3517 403.1391,-60.1951 413.7056,-57.5597"/>
<polygon fill="#191970" stroke="#191970" points="289.8361,-106.5519 282.8205,-114.4912 293.2559,-112.6597 289.8361,-106.5519"/>
</g>
<!-- Node240 -->
<g id="node29" class="node">
<title>Node240</title>
<g id="a_node29"><a xlink:href="class_c_tx_mem_pool.html#ab30fadfa811829e79accca41da6a8328" target="_top" xlink:title="If sanity&#45;checking is turned on, check makes sure the pool is consistent (does not contain two transa...">
<polygon fill="#ffffff" stroke="#000000" points="406.5,-152.5 406.5,-171.5 515.5,-171.5 515.5,-152.5 406.5,-152.5"/>
<text text-anchor="middle" x="461" y="-159.5" font-family="Helvetica,sans-Serif" font-size="10.00" fill="#000000">CTxMemPool::check</text>
</a>
</g>
</g>
<!-- Node232&#45;&gt;Node240 -->
<g id="edge29" class="edge">
<title>Node232&#45;&gt;Node240</title>
<path fill="none" stroke="#191970" d="M325.3076,-135.4894C353.0594,-140.9114 385.7891,-147.3058 412.1504,-152.4561"/>
<polygon fill="#191970" stroke="#191970" points="325.8151,-132.0225 315.3295,-133.54 324.4728,-138.8926 325.8151,-132.0225"/>
</g>
<!-- Node241 -->
<g id="node30" class="node">
<title>Node241</title>
<g id="a_node30"><a xlink:href="validation_8cpp.html#a4eb74c7b0135bd677315175c4056f890" target="_top" xlink:title="Restore the UTXO in a Coin at a given COutPoint. ">
<polygon fill="#ffffff" stroke="#000000" points="419,-114.5 419,-133.5 503,-133.5 503,-114.5 419,-114.5"/>
<text text-anchor="middle" x="461" y="-121.5" font-family="Helvetica,sans-Serif" font-size="10.00" fill="#000000">ApplyTxInUndo</text>
</a>
</g>
</g>
<!-- Node232&#45;&gt;Node241 -->
<g id="edge30" class="edge">
<title>Node232&#45;&gt;Node241</title>
<path fill="none" stroke="#191970" d="M351.433,-124C374.7955,-124 399.1218,-124 418.9012,-124"/>
<polygon fill="#191970" stroke="#191970" points="351.1426,-120.5001 341.1425,-124 351.1425,-127.5001 351.1426,-120.5001"/>
</g>
<!-- Node233&#45;&gt;Node217 -->
<g id="edge23" class="edge">
<title>Node233&#45;&gt;Node217</title>
<path fill="none" stroke="#191970" d="M500.6913,-93.4935C513.4488,-96.4427 527.5077,-100.2724 540,-105 574.5748,-118.0844 612.1141,-139.9161 632.4081,-152.4216"/>
<polygon fill="#191970" stroke="#191970" points="501.3122,-90.0465 490.7938,-91.3167 499.8085,-96.8831 501.3122,-90.0465"/>
</g>
<!-- Node234 -->
<g id="node23" class="node">
<title>Node234</title>
<g id="a_node23"><a xlink:href="class_c_coins_view_cache.html#a4533d27d1d8d744080545f7cea5b8e7c" target="_top" xlink:title="Get a cursor to iterate over the whole state. ">
<polygon fill="#ffffff" stroke="#000000" points="580,-76.5 580,-95.5 715,-95.5 715,-76.5 580,-76.5"/>
<text text-anchor="middle" x="647.5" y="-83.5" font-family="Helvetica,sans-Serif" font-size="10.00" fill="#000000">CCoinsViewCache::Cursor</text>
</a>
</g>
</g>
<!-- Node233&#45;&gt;Node234 -->
<g id="edge22" class="edge">
<title>Node233&#45;&gt;Node234</title>
<path fill="none" stroke="#191970" d="M500.6196,-86C523.6175,-86 553.2088,-86 579.7973,-86"/>
<polygon fill="#191970" stroke="#191970" points="500.5515,-82.5001 490.5515,-86 500.5514,-89.5001 500.5515,-82.5001"/>
</g>
<!-- Node236 -->
<g id="node25" class="node">
<title>Node236</title>
<g id="a_node25"><a xlink:href="namespace_consensus.html#a71d434a6ed8cd5fe5cd096c2eea58a07" target="_top" xlink:title="Check whether all inputs of this transaction are valid (no double spends and amounts) This does not m...">
<polygon fill="#ffffff" stroke="#000000" points="578,-.5 578,-19.5 717,-19.5 717,-.5 578,-.5"/>
<text text-anchor="middle" x="647.5" y="-7.5" font-family="Helvetica,sans-Serif" font-size="10.00" fill="#000000">Consensus::CheckTxInputs</text>
</a>
</g>
</g>
<!-- Node235&#45;&gt;Node236 -->
<g id="edge25" class="edge">
<title>Node235&#45;&gt;Node236</title>
<path fill="none" stroke="#191970" d="M517.9782,-36.3905C544.5028,-30.986 575.6657,-24.6365 600.7766,-19.5201"/>
<polygon fill="#191970" stroke="#191970" points="517.1617,-32.9849 508.0618,-38.411 518.5593,-39.8439 517.1617,-32.9849"/>
</g>
<!-- Node237 -->
<g id="node26" class="node">
<title>Node237</title>
<g id="a_node26"><a xlink:href="namespace_consensus.html#a3a65a6b28f9d889e647b6f52b335df05" target="_top" xlink:title="RVN START. ">
<polygon fill="#ffffff" stroke="#000000" points="576,-38.5 576,-57.5 719,-57.5 719,-38.5 576,-38.5"/>
<text text-anchor="middle" x="647.5" y="-45.5" font-family="Helvetica,sans-Serif" font-size="10.00" fill="#000000">Consensus::CheckTxAssets</text>
</a>
</g>
</g>
<!-- Node235&#45;&gt;Node237 -->
<g id="edge26" class="edge">
<title>Node235&#45;&gt;Node237</title>
<path fill="none" stroke="#191970" d="M549.0639,-48C558.0065,-48 567.0128,-48 575.7527,-48"/>
<polygon fill="#191970" stroke="#191970" points="549.0122,-44.5001 539.0122,-48 549.0121,-51.5001 549.0122,-44.5001"/>
</g>
<!-- Node238 -->
<g id="node27" class="node">
<title>Node238</title>
<g id="a_node27"><a xlink:href="class_c_tx_mem_pool.html#ad140b39a0be43b4c0ca1872ba7323351" target="_top" xlink:title="Called when a block is connected. ">
<polygon fill="#ffffff" stroke="#000000" points="755,-38.5 755,-57.5 909,-57.5 909,-38.5 755,-38.5"/>
<text text-anchor="middle" x="832" y="-45.5" font-family="Helvetica,sans-Serif" font-size="10.00" fill="#000000">CTxMemPool::removeForBlock</text>
</a>
</g>
</g>
<!-- Node237&#45;&gt;Node238 -->
<g id="edge27" class="edge">
<title>Node237&#45;&gt;Node238</title>
<path fill="none" stroke="#191970" d="M729.1042,-48C737.6936,-48 746.4077,-48 754.9433,-48"/>
<polygon fill="#191970" stroke="#191970" points="729.0966,-44.5001 719.0966,-48 729.0966,-51.5001 729.0966,-44.5001"/>
</g>
<!-- Node239 -->
<g id="node28" class="node">
<title>Node239</title>
<g id="a_node28"><a xlink:href="class_c_tx_mem_pool.html#af0d277f190f134638cb0aa18e2099094" target="_top" xlink:title="Called when a block is connected. ">
<polygon fill="#ffffff" stroke="#000000" points="945,-38.5 945,-57.5 1099,-57.5 1099,-38.5 945,-38.5"/>
<text text-anchor="middle" x="1022" y="-45.5" font-family="Helvetica,sans-Serif" font-size="10.00" fill="#000000">CTxMemPool::removeForBlock</text>
</a>
</g>
</g>
<!-- Node238&#45;&gt;Node239 -->
<g id="edge28" class="edge">
<title>Node238&#45;&gt;Node239</title>
<path fill="none" stroke="#191970" d="M919.0622,-48C927.6771,-48 936.3797,-48 944.884,-48"/>
<polygon fill="#191970" stroke="#191970" points="919.0064,-44.5001 909.0064,-48 919.0063,-51.5001 919.0064,-44.5001"/>
</g>
</g>
</svg>
