<?xml version="1.0" encoding="UTF-8" standalone="no"?>
<!DOCTYPE svg PUBLIC "-//W3C//DTD SVG 1.1//EN"
 "http://www.w3.org/Graphics/SVG/1.1/DTD/svg11.dtd">
<!-- Generated by graphviz version 2.40.1 (20161225.0304)
 -->
<!-- Title: CreateAssetDialog::clear Pages: 1 -->
<svg width="402pt" height="137pt"
 viewBox="0.00 0.00 402.00 137.00" xmlns="http://www.w3.org/2000/svg" xmlns:xlink="http://www.w3.org/1999/xlink">
<g id="graph0" class="graph" transform="scale(1 1) rotate(0) translate(4 133)">
<title>CreateAssetDialog::clear</title>
<polygon fill="#ffffff" stroke="transparent" points="-4,4 -4,-133 398,-133 398,4 -4,4"/>
<!-- Node385 -->
<g id="node1" class="node">
<title>Node385</title>
<polygon fill="#bfbfbf" stroke="#000000" points="0,-73.5 0,-103.5 105,-103.5 105,-73.5 0,-73.5"/>
<text text-anchor="start" x="8" y="-91.5" font-family="Helvetica,sans-Serif" font-size="10.00" fill="#000000">CreateAssetDialog::</text>
<text text-anchor="middle" x="52.5" y="-80.5" font-family="Helvetica,sans-Serif" font-size="10.00" fill="#000000">clear</text>
</g>
<!-- Node386 -->
<g id="node2" class="node">
<title>Node386</title>
<g id="a_node2"><a xlink:href="class_create_asset_dialog.html#a0b95e3f6dd2fd1ed869b3db1bf7937f4" target="_top" xlink:title="CreateAssetDialog::\lonClearButtonClicked">
<polygon fill="#ffffff" stroke="#000000" points="141,-98.5 141,-128.5 253,-128.5 253,-98.5 141,-98.5"/>
<text text-anchor="start" x="149" y="-116.5" font-family="Helvetica,sans-Serif" font-size="10.00" fill="#000000">CreateAssetDialog::</text>
<text text-anchor="middle" x="197" y="-105.5" font-family="Helvetica,sans-Serif" font-size="10.00" fill="#000000">onClearButtonClicked</text>
</a>
</g>
</g>
<!-- Node385&#45;&gt;Node386 -->
<g id="edge1" class="edge">
<title>Node385&#45;&gt;Node386</title>
<path fill="none" stroke="#191970" d="M115.0258,-99.3176C123.5992,-100.8009 132.3586,-102.3164 140.8093,-103.7784"/>
<polygon fill="#191970" stroke="#191970" points="115.5269,-95.8524 105.0766,-97.5963 114.3335,-102.7499 115.5269,-95.8524"/>
</g>
<!-- Node388 -->
<g id="node4" class="node">
<title>Node388</title>
<g id="a_node4"><a xlink:href="class_create_asset_dialog.html#a093dbb5a197e9fbe2bab3e7529f65340" target="_top" xlink:title="CreateAssetDialog::\lselectTypeName">
<polygon fill="#ffffff" stroke="#000000" points="144.5,-49.5 144.5,-79.5 249.5,-79.5 249.5,-49.5 144.5,-49.5"/>
<text text-anchor="start" x="152.5" y="-67.5" font-family="Helvetica,sans-Serif" font-size="10.00" fill="#000000">CreateAssetDialog::</text>
<text text-anchor="middle" x="197" y="-56.5" font-family="Helvetica,sans-Serif" font-size="10.00" fill="#000000">selectTypeName</text>
</a>
</g>
</g>
<!-- Node385&#45;&gt;Node388 -->
<g id="edge3" class="edge">
<title>Node385&#45;&gt;Node388</title>
<path fill="none" stroke="#191970" d="M115.0841,-78.1054C124.7987,-76.4919 134.7507,-74.839 144.2204,-73.2662"/>
<polygon fill="#191970" stroke="#191970" points="114.368,-74.6763 105.0766,-79.7676 115.5149,-81.5817 114.368,-74.6763"/>
</g>
<!-- Node387 -->
<g id="node3" class="node">
<title>Node387</title>
<g id="a_node3"><a xlink:href="class_create_asset_dialog.html#a9700ac1a4c4659f6716fbdeff8260ff5" target="_top" xlink:title="CreateAssetDialog::\lCreateAssetDialog">
<polygon fill="#ffffff" stroke="#000000" points="289,-98.5 289,-128.5 394,-128.5 394,-98.5 289,-98.5"/>
<text text-anchor="start" x="297" y="-116.5" font-family="Helvetica,sans-Serif" font-size="10.00" fill="#000000">CreateAssetDialog::</text>
<text text-anchor="middle" x="341.5" y="-105.5" font-family="Helvetica,sans-Serif" font-size="10.00" fill="#000000">CreateAssetDialog</text>
</a>
</g>
</g>
<!-- Node386&#45;&gt;Node387 -->
<g id="edge2" class="edge">
<title>Node386&#45;&gt;Node387</title>
<path fill="none" stroke="#191970" d="M263.2877,-113.5C271.8811,-113.5 280.5878,-113.5 288.917,-113.5"/>
<polygon fill="#191970" stroke="#191970" points="263.2813,-110.0001 253.2812,-113.5 263.2812,-117.0001 263.2813,-110.0001"/>
</g>
<!-- Node389 -->
<g id="node5" class="node">
<title>Node389</title>
<g id="a_node5"><a xlink:href="class_create_asset_dialog.html#a9900289907248e0b67e838f4a2db2f6e" target="_top" xlink:title="CreateAssetDialog::\lfocusSubAsset">
<polygon fill="#ffffff" stroke="#000000" points="289,-49.5 289,-79.5 394,-79.5 394,-49.5 289,-49.5"/>
<text text-anchor="start" x="297" y="-67.5" font-family="Helvetica,sans-Serif" font-size="10.00" fill="#000000">CreateAssetDialog::</text>
<text text-anchor="middle" x="341.5" y="-56.5" font-family="Helvetica,sans-Serif" font-size="10.00" fill="#000000">focusSubAsset</text>
</a>
</g>
</g>
<!-- Node388&#45;&gt;Node389 -->
<g id="edge4" class="edge">
<title>Node388&#45;&gt;Node389</title>
<path fill="none" stroke="#191970" d="M259.5841,-64.5C269.2987,-64.5 279.2507,-64.5 288.7204,-64.5"/>
<polygon fill="#191970" stroke="#191970" points="259.5766,-61.0001 249.5766,-64.5 259.5765,-68.0001 259.5766,-61.0001"/>
</g>
<!-- Node390 -->
<g id="node6" class="node">
<title>Node390</title>
<g id="a_node6"><a xlink:href="class_create_asset_dialog.html#abbaaae0c6a41b5888e86f17c2e1e4ac2" target="_top" xlink:title="CreateAssetDialog::\lfocusUniqueAsset">
<polygon fill="#ffffff" stroke="#000000" points="289,-.5 289,-30.5 394,-30.5 394,-.5 289,-.5"/>
<text text-anchor="start" x="297" y="-18.5" font-family="Helvetica,sans-Serif" font-size="10.00" fill="#000000">CreateAssetDialog::</text>
<text text-anchor="middle" x="341.5" y="-7.5" font-family="Helvetica,sans-Serif" font-size="10.00" fill="#000000">focusUniqueAsset</text>
</a>
</g>
</g>
<!-- Node388&#45;&gt;Node390 -->
<g id="edge5" class="edge">
<title>Node388&#45;&gt;Node390</title>
<path fill="none" stroke="#191970" d="M251.2307,-46.1104C266.2761,-41.0084 282.4352,-35.5289 296.8645,-30.6359"/>
<polygon fill="#191970" stroke="#191970" points="249.8802,-42.8725 241.5338,-49.3986 252.1282,-49.5017 249.8802,-42.8725"/>
</g>
</g>
</svg>
