<?xml version="1.0" encoding="UTF-8" standalone="no"?>
<!DOCTYPE svg PUBLIC "-//W3C//DTD SVG 1.1//EN"
 "http://www.w3.org/Graphics/SVG/1.1/DTD/svg11.dtd">
<!-- Generated by graphviz version 2.40.1 (20161225.0304)
 -->
<!-- Title: CreateAssetDialog::onIPFSHashChanged Pages: 1 -->
<svg width="261pt" height="39pt"
 viewBox="0.00 0.00 261.00 39.00" xmlns="http://www.w3.org/2000/svg" xmlns:xlink="http://www.w3.org/1999/xlink">
<g id="graph0" class="graph" transform="scale(1 1) rotate(0) translate(4 35)">
<title>CreateAssetDialog::onIPFSHashChanged</title>
<polygon fill="#ffffff" stroke="transparent" points="-4,4 -4,-35 257,-35 257,4 -4,4"/>
<!-- Node1141 -->
<g id="node1" class="node">
<title>Node1141</title>
<polygon fill="#bfbfbf" stroke="#000000" points="0,-.5 0,-30.5 112,-30.5 112,-.5 0,-.5"/>
<text text-anchor="start" x="8" y="-18.5" font-family="Helvetica,sans-Serif" font-size="10.00" fill="#000000">CreateAssetDialog::</text>
<text text-anchor="middle" x="56" y="-7.5" font-family="Helvetica,sans-Serif" font-size="10.00" fill="#000000">onIPFSHashChanged</text>
</g>
<!-- Node1142 -->
<g id="node2" class="node">
<title>Node1142</title>
<g id="a_node2"><a xlink:href="class_create_asset_dialog.html#a9700ac1a4c4659f6716fbdeff8260ff5" target="_top" xlink:title="CreateAssetDialog::\lCreateAssetDialog">
<polygon fill="#ffffff" stroke="#000000" points="148,-.5 148,-30.5 253,-30.5 253,-.5 148,-.5"/>
<text text-anchor="start" x="156" y="-18.5" font-family="Helvetica,sans-Serif" font-size="10.00" fill="#000000">CreateAssetDialog::</text>
<text text-anchor="middle" x="200.5" y="-7.5" font-family="Helvetica,sans-Serif" font-size="10.00" fill="#000000">CreateAssetDialog</text>
</a>
</g>
</g>
<!-- Node1141&#45;&gt;Node1142 -->
<g id="edge1" class="edge">
<title>Node1141&#45;&gt;Node1142</title>
<path fill="none" stroke="#191970" d="M122.2877,-15.5C130.8811,-15.5 139.5878,-15.5 147.917,-15.5"/>
<polygon fill="#191970" stroke="#191970" points="122.2813,-12.0001 112.2812,-15.5 122.2812,-19.0001 122.2813,-12.0001"/>
</g>
</g>
</svg>
