<?xml version="1.0" encoding="UTF-8" standalone="no"?>
<!DOCTYPE svg PUBLIC "-//W3C//DTD SVG 1.1//EN"
 "http://www.w3.org/Graphics/SVG/1.1/DTD/svg11.dtd">
<!-- Generated by graphviz version 2.40.1 (20161225.0304)
 -->
<!-- Title: CRavenAddress::Set Pages: 1 -->
<svg width="462pt" height="85pt"
 viewBox="0.00 0.00 462.00 85.00" xmlns="http://www.w3.org/2000/svg" xmlns:xlink="http://www.w3.org/1999/xlink">
<g id="graph0" class="graph" transform="scale(1 1) rotate(0) translate(4 81)">
<title>CRavenAddress::Set</title>
<polygon fill="#ffffff" stroke="transparent" points="-4,4 -4,-81 458,-81 458,4 -4,4"/>
<!-- Node403 -->
<g id="node1" class="node">
<title>Node403</title>
<polygon fill="#bfbfbf" stroke="#000000" points="0,-19.5 0,-38.5 110,-38.5 110,-19.5 0,-19.5"/>
<text text-anchor="middle" x="55" y="-26.5" font-family="Helvetica,sans-Serif" font-size="10.00" fill="#000000">CRavenAddress::Set</text>
</g>
<!-- Node404 -->
<g id="node2" class="node">
<title>Node404</title>
<g id="a_node2"><a xlink:href="class_c_base58_data.html#afab1c06a0a4f631fd889434a2bc48c27" target="_top" xlink:title="CBase58Data::SetData">
<polygon fill="#ffffff" stroke="#000000" points="146,-38.5 146,-57.5 266,-57.5 266,-38.5 146,-38.5"/>
<text text-anchor="middle" x="206" y="-45.5" font-family="Helvetica,sans-Serif" font-size="10.00" fill="#000000">CBase58Data::SetData</text>
</a>
</g>
</g>
<!-- Node403&#45;&gt;Node404 -->
<g id="edge1" class="edge">
<title>Node403&#45;&gt;Node404</title>
<path fill="none" stroke="#191970" d="M110.3694,-35.967C118.6576,-37.0099 127.2949,-38.0967 135.8405,-39.172"/>
<polygon fill="#191970" stroke="#191970" points="135.4451,-42.6497 145.8038,-40.4256 136.319,-35.7045 135.4451,-42.6497"/>
</g>
<!-- Node408 -->
<g id="node6" class="node">
<title>Node408</title>
<g id="a_node6"><a xlink:href="chainparams_8cpp.html#ace5c5b706d71a324a417dd2db394fd4a" target="_top" xlink:title="Return the currently selected parameters. ">
<polygon fill="#ffffff" stroke="#000000" points="181,-.5 181,-19.5 231,-19.5 231,-.5 181,-.5"/>
<text text-anchor="middle" x="206" y="-7.5" font-family="Helvetica,sans-Serif" font-size="10.00" fill="#000000">Params</text>
</a>
</g>
</g>
<!-- Node403&#45;&gt;Node408 -->
<g id="edge5" class="edge">
<title>Node403&#45;&gt;Node408</title>
<path fill="none" stroke="#191970" d="M110.3694,-22.033C130.4927,-19.5009 152.6744,-16.7098 170.6044,-14.4538"/>
<polygon fill="#191970" stroke="#191970" points="171.1375,-17.9144 180.6222,-13.1932 170.2635,-10.9691 171.1375,-17.9144"/>
</g>
<!-- Node405 -->
<g id="node3" class="node">
<title>Node405</title>
<g id="a_node3"><a xlink:href="glibc__compat_8cpp.html#a0f46826ab0466591e136db24394923cf" target="_top" xlink:title="memcpy">
<polygon fill="#ffffff" stroke="#000000" points="302,-38.5 302,-57.5 356,-57.5 356,-38.5 302,-38.5"/>
<text text-anchor="middle" x="329" y="-45.5" font-family="Helvetica,sans-Serif" font-size="10.00" fill="#000000">memcpy</text>
</a>
</g>
</g>
<!-- Node404&#45;&gt;Node405 -->
<g id="edge2" class="edge">
<title>Node404&#45;&gt;Node405</title>
<path fill="none" stroke="#191970" d="M266.0587,-48C274.7934,-48 283.567,-48 291.674,-48"/>
<polygon fill="#191970" stroke="#191970" points="291.8882,-51.5001 301.8882,-48 291.8882,-44.5001 291.8882,-51.5001"/>
</g>
<!-- Node406 -->
<g id="node4" class="node">
<title>Node406</title>
<g id="a_node4"><a xlink:href="glibc__compat_8cpp.html#a9778d49e9029dd75bc53ecbbf9f5e9a1" target="_top" xlink:title="memmove">
<polygon fill="#ffffff" stroke="#000000" points="392,-57.5 392,-76.5 454,-76.5 454,-57.5 392,-57.5"/>
<text text-anchor="middle" x="423" y="-64.5" font-family="Helvetica,sans-Serif" font-size="10.00" fill="#000000">memmove</text>
</a>
</g>
</g>
<!-- Node405&#45;&gt;Node406 -->
<g id="edge3" class="edge">
<title>Node405&#45;&gt;Node406</title>
<path fill="none" stroke="#191970" d="M356.1887,-53.4956C364.217,-55.1183 373.1892,-56.9319 381.8881,-58.6901"/>
<polygon fill="#191970" stroke="#191970" points="381.4061,-62.1634 391.9013,-60.7141 382.793,-55.3022 381.4061,-62.1634"/>
</g>
<!-- Node407 -->
<g id="node5" class="node">
<title>Node407</title>
<g id="a_node5"><a xlink:href="glibc__compat_8cpp.html#a424ac71631da5ada2976630ff67051d1" target="_top" xlink:title="__chk_fail">
<polygon fill="#ffffff" stroke="#000000" points="392.5,-19.5 392.5,-38.5 453.5,-38.5 453.5,-19.5 392.5,-19.5"/>
<text text-anchor="middle" x="423" y="-26.5" font-family="Helvetica,sans-Serif" font-size="10.00" fill="#000000">__chk_fail</text>
</a>
</g>
</g>
<!-- Node405&#45;&gt;Node407 -->
<g id="edge4" class="edge">
<title>Node405&#45;&gt;Node407</title>
<path fill="none" stroke="#191970" d="M356.1887,-42.5044C364.383,-40.8481 373.5608,-38.993 382.4275,-37.2008"/>
<polygon fill="#191970" stroke="#191970" points="383.1288,-40.6299 392.2371,-35.218 381.7419,-33.7687 383.1288,-40.6299"/>
</g>
</g>
</svg>
