<?xml version="1.0" encoding="UTF-8" standalone="no"?>
<!DOCTYPE svg PUBLIC "-//W3C//DTD SVG 1.1//EN"
 "http://www.w3.org/Graphics/SVG/1.1/DTD/svg11.dtd">
<!-- Generated by graphviz version 2.40.1 (20161225.0304)
 -->
<!-- Title: RavenGUI::setNumConnections Pages: 1 -->
<svg width="858pt" height="88pt"
 viewBox="0.00 0.00 858.00 88.00" xmlns="http://www.w3.org/2000/svg" xmlns:xlink="http://www.w3.org/1999/xlink">
<g id="graph0" class="graph" transform="scale(1 1) rotate(0) translate(4 84)">
<title>RavenGUI::setNumConnections</title>
<polygon fill="#ffffff" stroke="transparent" points="-4,4 -4,-84 854,-84 854,4 -4,4"/>
<!-- Node785 -->
<g id="node1" class="node">
<title>Node785</title>
<polygon fill="#bfbfbf" stroke="#000000" points="0,-33 0,-52 158,-52 158,-33 0,-33"/>
<text text-anchor="middle" x="79" y="-40" font-family="Helvetica,sans-Serif" font-size="10.00" fill="#000000">RavenGUI::setNumConnections</text>
</g>
<!-- Node786 -->
<g id="node2" class="node">
<title>Node786</title>
<g id="a_node2"><a xlink:href="class_raven_g_u_i.html#a174a3e75c334c5930d3261a2955c3725" target="_top" xlink:title="Set the client model. ">
<polygon fill="#ffffff" stroke="#000000" points="194,-33 194,-52 328,-52 328,-33 194,-33"/>
<text text-anchor="middle" x="261" y="-40" font-family="Helvetica,sans-Serif" font-size="10.00" fill="#000000">RavenGUI::setClientModel</text>
</a>
</g>
</g>
<!-- Node785&#45;&gt;Node786 -->
<g id="edge1" class="edge">
<title>Node785&#45;&gt;Node786</title>
<path fill="none" stroke="#191970" d="M168.118,-42.5C176.7327,-42.5 185.37,-42.5 193.7208,-42.5"/>
<polygon fill="#191970" stroke="#191970" points="168.0339,-39.0001 158.0338,-42.5 168.0338,-46.0001 168.0339,-39.0001"/>
</g>
<!-- Node787 -->
<g id="node3" class="node">
<title>Node787</title>
<g id="a_node3"><a xlink:href="class_raven_application.html#a60123f611cc210870fa67974cb2c804c" target="_top" xlink:title="Request core shutdown. ">
<polygon fill="#ffffff" stroke="#000000" points="719,-49.5 719,-79.5 850,-79.5 850,-49.5 719,-49.5"/>
<text text-anchor="start" x="727" y="-67.5" font-family="Helvetica,sans-Serif" font-size="10.00" fill="#000000">RavenApplication::request</text>
<text text-anchor="middle" x="784.5" y="-56.5" font-family="Helvetica,sans-Serif" font-size="10.00" fill="#000000">Shutdown</text>
</a>
</g>
</g>
<!-- Node786&#45;&gt;Node787 -->
<g id="edge2" class="edge">
<title>Node786&#45;&gt;Node787</title>
<path fill="none" stroke="#191970" d="M338.1333,-45.7415C441.2203,-50.0737 622.1346,-57.6766 718.9629,-61.7458"/>
<polygon fill="#191970" stroke="#191970" points="338.238,-42.2429 328.0999,-45.3199 337.944,-49.2367 338.238,-42.2429"/>
</g>
<!-- Node788 -->
<g id="node4" class="node">
<title>Node788</title>
<g id="a_node4"><a xlink:href="class_raven_application.html#a1a3dcf33ba44507984b2a04e7ebf1542" target="_top" xlink:title="RavenApplication::initialize\lResult">
<polygon fill="#ffffff" stroke="#000000" points="364,-5.5 364,-35.5 498,-35.5 498,-5.5 364,-5.5"/>
<text text-anchor="start" x="372" y="-23.5" font-family="Helvetica,sans-Serif" font-size="10.00" fill="#000000">RavenApplication::initialize</text>
<text text-anchor="middle" x="431" y="-12.5" font-family="Helvetica,sans-Serif" font-size="10.00" fill="#000000">Result</text>
</a>
</g>
</g>
<!-- Node786&#45;&gt;Node788 -->
<g id="edge3" class="edge">
<title>Node786&#45;&gt;Node788</title>
<path fill="none" stroke="#191970" d="M338.146,-32.5164C346.6879,-31.411 355.3366,-30.2917 363.7428,-29.2039"/>
<polygon fill="#191970" stroke="#191970" points="337.6566,-29.0505 328.1885,-33.805 338.555,-35.9926 337.6566,-29.0505"/>
</g>
<!-- Node789 -->
<g id="node5" class="node">
<title>Node789</title>
<g id="a_node5"><a xlink:href="class_raven_application.html#aecfdce3a245b959def5dd35e5cfb192e" target="_top" xlink:title="RavenApplication::startThread">
<polygon fill="#ffffff" stroke="#000000" points="534,-11 534,-30 683,-30 683,-11 534,-11"/>
<text text-anchor="middle" x="608.5" y="-18" font-family="Helvetica,sans-Serif" font-size="10.00" fill="#000000">RavenApplication::startThread</text>
</a>
</g>
</g>
<!-- Node788&#45;&gt;Node789 -->
<g id="edge4" class="edge">
<title>Node788&#45;&gt;Node789</title>
<path fill="none" stroke="#191970" d="M508.3486,-20.5C516.821,-20.5 525.4344,-20.5 533.873,-20.5"/>
<polygon fill="#191970" stroke="#191970" points="508.1052,-17.0001 498.1051,-20.5 508.1051,-24.0001 508.1052,-17.0001"/>
</g>
<!-- Node789&#45;&gt;Node787 -->
<g id="edge6" class="edge">
<title>Node789&#45;&gt;Node787</title>
<path fill="none" stroke="#191970" d="M656.6046,-32.5261C677.4811,-37.7453 702.1576,-43.9144 724.2385,-49.4346"/>
<polygon fill="#191970" stroke="#191970" points="657.2397,-29.0773 646.6894,-30.0473 655.5419,-35.8683 657.2397,-29.0773"/>
</g>
<!-- Node790 -->
<g id="node6" class="node">
<title>Node790</title>
<g id="a_node6"><a xlink:href="class_raven_application.html#a63a2032fef875fb81f26c212f69d000d" target="_top" xlink:title="Request core initialization. ">
<polygon fill="#ffffff" stroke="#000000" points="719,-.5 719,-30.5 850,-30.5 850,-.5 719,-.5"/>
<text text-anchor="start" x="727" y="-18.5" font-family="Helvetica,sans-Serif" font-size="10.00" fill="#000000">RavenApplication::request</text>
<text text-anchor="middle" x="784.5" y="-7.5" font-family="Helvetica,sans-Serif" font-size="10.00" fill="#000000">Initialize</text>
</a>
</g>
</g>
<!-- Node789&#45;&gt;Node790 -->
<g id="edge5" class="edge">
<title>Node789&#45;&gt;Node790</title>
<path fill="none" stroke="#191970" d="M693.2384,-18.0927C701.8743,-17.8473 710.5522,-17.6008 718.9387,-17.3625"/>
<polygon fill="#191970" stroke="#191970" points="693.0364,-14.5969 683.1398,-18.3795 693.2352,-21.5941 693.0364,-14.5969"/>
</g>
</g>
</svg>
