<?xml version="1.0" encoding="UTF-8" standalone="no"?>
<!DOCTYPE svg PUBLIC "-//W3C//DTD SVG 1.1//EN"
 "http://www.w3.org/Graphics/SVG/1.1/DTD/svg11.dtd">
<!-- Generated by graphviz version 2.40.1 (20161225.0304)
 -->
<!-- Title: SendCoinsEntry::on_addressBookButton_clicked Pages: 1 -->
<svg width="1418pt" height="159pt"
 viewBox="0.00 0.00 1418.00 158.50" xmlns="http://www.w3.org/2000/svg" xmlns:xlink="http://www.w3.org/1999/xlink">
<g id="graph0" class="graph" transform="scale(1 1) rotate(0) translate(4 154.5)">
<title>SendCoinsEntry::on_addressBookButton_clicked</title>
<polygon fill="#ffffff" stroke="transparent" points="-4,4 -4,-154.5 1414,-154.5 1414,4 -4,4"/>
<!-- Node98 -->
<g id="node1" class="node">
<title>Node98</title>
<polygon fill="#bfbfbf" stroke="#000000" points="0,-49.5 0,-79.5 143,-79.5 143,-49.5 0,-49.5"/>
<text text-anchor="start" x="8" y="-67.5" font-family="Helvetica,sans-Serif" font-size="10.00" fill="#000000">SendCoinsEntry::on</text>
<text text-anchor="middle" x="71.5" y="-56.5" font-family="Helvetica,sans-Serif" font-size="10.00" fill="#000000">_addressBookButton_clicked</text>
</g>
<!-- Node99 -->
<g id="node2" class="node">
<title>Node99</title>
<g id="a_node2"><a xlink:href="class_address_book_page.html#a1282cda9cb0300ee04c472ec4c9949f3" target="_top" xlink:title="AddressBookPage::setModel">
<polygon fill="#ffffff" stroke="#000000" points="182.5,-99 182.5,-118 325.5,-118 325.5,-99 182.5,-99"/>
<text text-anchor="middle" x="254" y="-106" font-family="Helvetica,sans-Serif" font-size="10.00" fill="#000000">AddressBookPage::setModel</text>
</a>
</g>
</g>
<!-- Node98&#45;&gt;Node99 -->
<g id="edge1" class="edge">
<title>Node98&#45;&gt;Node99</title>
<path fill="none" stroke="#191970" d="M133.7957,-79.5192C156.9879,-85.1108 182.9641,-91.3735 204.8186,-96.6426"/>
<polygon fill="#191970" stroke="#191970" points="204.0033,-100.0462 214.5451,-98.9876 205.644,-93.2412 204.0033,-100.0462"/>
</g>
<!-- Node111 -->
<g id="node14" class="node">
<title>Node111</title>
<g id="a_node14"><a xlink:href="class_wallet_model.html#a89ed202e2dbc04aaa70d72872b95b351" target="_top" xlink:title="WalletModel::getAddressTable\lModel">
<polygon fill="#ffffff" stroke="#000000" points="179,-49.5 179,-79.5 329,-79.5 329,-49.5 179,-49.5"/>
<text text-anchor="start" x="187" y="-67.5" font-family="Helvetica,sans-Serif" font-size="10.00" fill="#000000">WalletModel::getAddressTable</text>
<text text-anchor="middle" x="254" y="-56.5" font-family="Helvetica,sans-Serif" font-size="10.00" fill="#000000">Model</text>
</a>
</g>
</g>
<!-- Node98&#45;&gt;Node111 -->
<g id="edge13" class="edge">
<title>Node98&#45;&gt;Node111</title>
<path fill="none" stroke="#191970" d="M143.105,-64.5C151.5744,-64.5 160.2808,-64.5 168.9134,-64.5"/>
<polygon fill="#191970" stroke="#191970" points="168.9947,-68.0001 178.9946,-64.5 168.9946,-61.0001 168.9947,-68.0001"/>
</g>
<!-- Node112 -->
<g id="node15" class="node">
<title>Node112</title>
<g id="a_node15"><a xlink:href="class_address_book_page.html#a4f6d802c63539ac335b138cca0b913d2" target="_top" xlink:title="AddressBookPage::getReturn\lValue">
<polygon fill="#ffffff" stroke="#000000" points="181,-.5 181,-30.5 327,-30.5 327,-.5 181,-.5"/>
<text text-anchor="start" x="189" y="-18.5" font-family="Helvetica,sans-Serif" font-size="10.00" fill="#000000">AddressBookPage::getReturn</text>
<text text-anchor="middle" x="254" y="-7.5" font-family="Helvetica,sans-Serif" font-size="10.00" fill="#000000">Value</text>
</a>
</g>
</g>
<!-- Node98&#45;&gt;Node112 -->
<g id="edge14" class="edge">
<title>Node98&#45;&gt;Node112</title>
<path fill="none" stroke="#191970" d="M127.7452,-49.3986C146.8289,-44.2747 168.3203,-38.5044 188.0885,-33.1968"/>
<polygon fill="#191970" stroke="#191970" points="189.1902,-36.525 197.9406,-30.5516 187.375,-29.7645 189.1902,-36.525"/>
</g>
<!-- Node100 -->
<g id="node3" class="node">
<title>Node100</title>
<g id="a_node3"><a xlink:href="class_address_book_page.html#a9df2b5984c8b4ab2c4b5eade1aab8f3e" target="_top" xlink:title="Set button states based on selected tab and selection. ">
<polygon fill="#ffffff" stroke="#000000" points="368.5,-117.5 368.5,-147.5 511.5,-147.5 511.5,-117.5 368.5,-117.5"/>
<text text-anchor="start" x="376.5" y="-135.5" font-family="Helvetica,sans-Serif" font-size="10.00" fill="#000000">AddressBookPage::selection</text>
<text text-anchor="middle" x="440" y="-124.5" font-family="Helvetica,sans-Serif" font-size="10.00" fill="#000000">Changed</text>
</a>
</g>
</g>
<!-- Node99&#45;&gt;Node100 -->
<g id="edge2" class="edge">
<title>Node99&#45;&gt;Node100</title>
<path fill="none" stroke="#191970" d="M325.6464,-117.7447C336.3807,-119.1298 347.5162,-120.5666 358.438,-121.9759"/>
<polygon fill="#191970" stroke="#191970" points="358.0248,-125.4515 368.3905,-123.2601 358.9206,-118.509 358.0248,-125.4515"/>
</g>
<!-- Node101 -->
<g id="node4" class="node">
<title>Node101</title>
<g id="a_node4"><a xlink:href="class_address_book_page.html#ab62ba5d31e2d64c4d901da58d6b32a59" target="_top" xlink:title="New entry/entries were added to address table. ">
<polygon fill="#ffffff" stroke="#000000" points="365,-68.5 365,-98.5 515,-98.5 515,-68.5 365,-68.5"/>
<text text-anchor="start" x="373" y="-86.5" font-family="Helvetica,sans-Serif" font-size="10.00" fill="#000000">AddressBookPage::selectNew</text>
<text text-anchor="middle" x="440" y="-75.5" font-family="Helvetica,sans-Serif" font-size="10.00" fill="#000000">Address</text>
</a>
</g>
</g>
<!-- Node99&#45;&gt;Node101 -->
<g id="edge3" class="edge">
<title>Node99&#45;&gt;Node101</title>
<path fill="none" stroke="#191970" d="M324.8492,-98.9773C334.6279,-97.6629 344.7535,-96.302 354.7584,-94.9572"/>
<polygon fill="#191970" stroke="#191970" points="355.2613,-98.4212 364.7059,-93.6202 354.3288,-91.4836 355.2613,-98.4212"/>
</g>
<!-- Node102 -->
<g id="node5" class="node">
<title>Node102</title>
<g id="a_node5"><a xlink:href="class_address_table_model.html#a74e9123471948255f87271c823c82854" target="_top" xlink:title="AddressTableModel::\lindex">
<polygon fill="#ffffff" stroke="#000000" points="551,-68.5 551,-98.5 660,-98.5 660,-68.5 551,-68.5"/>
<text text-anchor="start" x="559" y="-86.5" font-family="Helvetica,sans-Serif" font-size="10.00" fill="#000000">AddressTableModel::</text>
<text text-anchor="middle" x="605.5" y="-75.5" font-family="Helvetica,sans-Serif" font-size="10.00" fill="#000000">index</text>
</a>
</g>
</g>
<!-- Node101&#45;&gt;Node102 -->
<g id="edge4" class="edge">
<title>Node101&#45;&gt;Node102</title>
<path fill="none" stroke="#191970" d="M515.0023,-83.5C523.5148,-83.5 532.1376,-83.5 540.5061,-83.5"/>
<polygon fill="#191970" stroke="#191970" points="540.5634,-87.0001 550.5633,-83.5 540.5633,-80.0001 540.5634,-87.0001"/>
</g>
<!-- Node103 -->
<g id="node6" class="node">
<title>Node103</title>
<g id="a_node6"><a xlink:href="class_address_table_model.html#a79b07007c147962c0119310ebd4931c1" target="_top" xlink:title="AddressTableModel::data">
<polygon fill="#ffffff" stroke="#000000" points="696,-93 696,-112 824,-112 824,-93 696,-93"/>
<text text-anchor="middle" x="760" y="-100" font-family="Helvetica,sans-Serif" font-size="10.00" fill="#000000">AddressTableModel::data</text>
</a>
</g>
</g>
<!-- Node102&#45;&gt;Node103 -->
<g id="edge5" class="edge">
<title>Node102&#45;&gt;Node103</title>
<path fill="none" stroke="#191970" d="M660.4059,-90.2522C668.6348,-91.2642 677.2338,-92.3216 685.7832,-93.373"/>
<polygon fill="#191970" stroke="#191970" points="685.419,-96.8545 695.7714,-94.6013 686.2734,-89.9068 685.419,-96.8545"/>
</g>
<!-- Node110 -->
<g id="node13" class="node">
<title>Node110</title>
<g id="a_node13"><a xlink:href="class_address_table_priv.html#af311eb7d0189a74a508d7ad0f563f307" target="_top" xlink:title="AddressTablePriv::index">
<polygon fill="#ffffff" stroke="#000000" points="698.5,-55 698.5,-74 821.5,-74 821.5,-55 698.5,-55"/>
<text text-anchor="middle" x="760" y="-62" font-family="Helvetica,sans-Serif" font-size="10.00" fill="#000000">AddressTablePriv::index</text>
</a>
</g>
</g>
<!-- Node102&#45;&gt;Node110 -->
<g id="edge12" class="edge">
<title>Node102&#45;&gt;Node110</title>
<path fill="none" stroke="#191970" d="M660.4059,-76.7478C669.4507,-75.6355 678.9425,-74.4682 688.3241,-73.3145"/>
<polygon fill="#191970" stroke="#191970" points="688.9366,-76.7656 698.4346,-72.0712 688.0821,-69.818 688.9366,-76.7656"/>
</g>
<!-- Node104 -->
<g id="node7" class="node">
<title>Node104</title>
<g id="a_node7"><a xlink:href="namespace_g_u_i_util.html#af6b9624383a5313a5d856c59913b599b" target="_top" xlink:title="GUIUtil::fixedPitchFont">
<polygon fill="#ffffff" stroke="#000000" points="860,-93 860,-112 979,-112 979,-93 860,-93"/>
<text text-anchor="middle" x="919.5" y="-100" font-family="Helvetica,sans-Serif" font-size="10.00" fill="#000000">GUIUtil::fixedPitchFont</text>
</a>
</g>
</g>
<!-- Node103&#45;&gt;Node104 -->
<g id="edge6" class="edge">
<title>Node103&#45;&gt;Node104</title>
<path fill="none" stroke="#191970" d="M824.415,-102.5C832.7131,-102.5 841.2413,-102.5 849.6219,-102.5"/>
<polygon fill="#191970" stroke="#191970" points="849.7457,-106.0001 859.7456,-102.5 849.7456,-99.0001 849.7457,-106.0001"/>
</g>
<!-- Node105 -->
<g id="node8" class="node">
<title>Node105</title>
<g id="a_node8"><a xlink:href="class_c_chain_params.html#a103c58eca4a26a71201882b3ed6c4cb4" target="_top" xlink:title="CChainParams::Base58Prefix">
<polygon fill="#ffffff" stroke="#000000" points="1015,-131 1015,-150 1163,-150 1163,-131 1015,-131"/>
<text text-anchor="middle" x="1089" y="-138" font-family="Helvetica,sans-Serif" font-size="10.00" fill="#000000">CChainParams::Base58Prefix</text>
</a>
</g>
</g>
<!-- Node104&#45;&gt;Node105 -->
<g id="edge7" class="edge">
<title>Node104&#45;&gt;Node105</title>
<path fill="none" stroke="#191970" d="M962.272,-112.089C984.8409,-117.1487 1012.7232,-123.3996 1036.5833,-128.7488"/>
<polygon fill="#191970" stroke="#191970" points="1036.0121,-132.2075 1046.5356,-130.9799 1037.5435,-125.3771 1036.0121,-132.2075"/>
</g>
<!-- Node106 -->
<g id="node9" class="node">
<title>Node106</title>
<g id="a_node9"><a xlink:href="base58_8cpp.html#a8d6f0e9d5df175b4966dcede31dc90ad" target="_top" xlink:title="Why base&#45;58 instead of standard base&#45;64 encoding? ">
<polygon fill="#ffffff" stroke="#000000" points="1047.5,-93 1047.5,-112 1130.5,-112 1130.5,-93 1047.5,-93"/>
<text text-anchor="middle" x="1089" y="-100" font-family="Helvetica,sans-Serif" font-size="10.00" fill="#000000">EncodeBase58</text>
</a>
</g>
</g>
<!-- Node104&#45;&gt;Node106 -->
<g id="edge8" class="edge">
<title>Node104&#45;&gt;Node106</title>
<path fill="none" stroke="#191970" d="M979.2594,-102.5C998.1506,-102.5 1018.8612,-102.5 1037.1516,-102.5"/>
<polygon fill="#191970" stroke="#191970" points="1037.322,-106.0001 1047.3219,-102.5 1037.3219,-99.0001 1037.322,-106.0001"/>
</g>
<!-- Node107 -->
<g id="node10" class="node">
<title>Node107</title>
<g id="a_node10"><a xlink:href="base58_8cpp.html#a32169f8eb6ebcce6412b675f9d23d878" target="_top" xlink:title="IsValidDestinationString">
<polygon fill="#ffffff" stroke="#000000" points="1028,-55 1028,-74 1150,-74 1150,-55 1028,-55"/>
<text text-anchor="middle" x="1089" y="-62" font-family="Helvetica,sans-Serif" font-size="10.00" fill="#000000">IsValidDestinationString</text>
</a>
</g>
</g>
<!-- Node104&#45;&gt;Node107 -->
<g id="edge9" class="edge">
<title>Node104&#45;&gt;Node107</title>
<path fill="none" stroke="#191970" d="M962.272,-92.911C984.8409,-87.8513 1012.7232,-81.6004 1036.5833,-76.2512"/>
<polygon fill="#191970" stroke="#191970" points="1037.5435,-79.6229 1046.5356,-74.0201 1036.0121,-72.7925 1037.5435,-79.6229"/>
</g>
<!-- Node108 -->
<g id="node11" class="node">
<title>Node108</title>
<g id="a_node11"><a xlink:href="class_c_raven_address.html#a3c442b9abc0cbfb0518e9b0c4744427c" target="_top" xlink:title="CRavenAddress::IsValid">
<polygon fill="#ffffff" stroke="#000000" points="1199,-55 1199,-74 1324,-74 1324,-55 1199,-55"/>
<text text-anchor="middle" x="1261.5" y="-62" font-family="Helvetica,sans-Serif" font-size="10.00" fill="#000000">CRavenAddress::IsValid</text>
</a>
</g>
</g>
<!-- Node107&#45;&gt;Node108 -->
<g id="edge10" class="edge">
<title>Node107&#45;&gt;Node108</title>
<path fill="none" stroke="#191970" d="M1150.3028,-64.5C1162.7579,-64.5 1175.9724,-64.5 1188.7789,-64.5"/>
<polygon fill="#191970" stroke="#191970" points="1188.9396,-68.0001 1198.9396,-64.5 1188.9396,-61.0001 1188.9396,-68.0001"/>
</g>
<!-- Node109 -->
<g id="node12" class="node">
<title>Node109</title>
<g id="a_node12"><a xlink:href="chainparams_8cpp.html#ace5c5b706d71a324a417dd2db394fd4a" target="_top" xlink:title="Return the currently selected parameters. ">
<polygon fill="#ffffff" stroke="#000000" points="1360,-55 1360,-74 1410,-74 1410,-55 1360,-55"/>
<text text-anchor="middle" x="1385" y="-62" font-family="Helvetica,sans-Serif" font-size="10.00" fill="#000000">Params</text>
</a>
</g>
</g>
<!-- Node108&#45;&gt;Node109 -->
<g id="edge11" class="edge">
<title>Node108&#45;&gt;Node109</title>
<path fill="none" stroke="#191970" d="M1324.3354,-64.5C1333.119,-64.5 1341.8734,-64.5 1349.8872,-64.5"/>
<polygon fill="#191970" stroke="#191970" points="1349.9359,-68.0001 1359.9359,-64.5 1349.9358,-61.0001 1349.9359,-68.0001"/>
</g>
</g>
</svg>
