<?xml version="1.0" encoding="UTF-8" standalone="no"?>
<!DOCTYPE svg PUBLIC "-//W3C//DTD SVG 1.1//EN"
 "http://www.w3.org/Graphics/SVG/1.1/DTD/svg11.dtd">
<!-- Generated by graphviz version 2.40.1 (20161225.0304)
 -->
<!-- Title: CWalletDB::WriteAccountingEntry Pages: 1 -->
<svg width="337pt" height="66pt"
 viewBox="0.00 0.00 337.00 66.00" xmlns="http://www.w3.org/2000/svg" xmlns:xlink="http://www.w3.org/1999/xlink">
<g id="graph0" class="graph" transform="scale(1 1) rotate(0) translate(4 62)">
<title>CWalletDB::WriteAccountingEntry</title>
<polygon fill="#ffffff" stroke="transparent" points="-4,4 -4,-62 333,-62 333,4 -4,4"/>
<!-- Node226 -->
<g id="node1" class="node">
<title>Node226</title>
<polygon fill="#bfbfbf" stroke="#000000" points="0,-14 0,-44 144,-44 144,-14 0,-14"/>
<text text-anchor="start" x="8" y="-32" font-family="Helvetica,sans-Serif" font-size="10.00" fill="#000000">CWalletDB::WriteAccounting</text>
<text text-anchor="middle" x="72" y="-21" font-family="Helvetica,sans-Serif" font-size="10.00" fill="#000000">Entry</text>
</g>
<!-- Node227 -->
<g id="node2" class="node">
<title>Node227</title>
<g id="a_node2"><a xlink:href="group__map_wallet.html#gada917e14d6336f1336b9cf0e98c9a6f2" target="_top" xlink:title="CWallet::ReorderTransactions">
<polygon fill="#ffffff" stroke="#000000" points="180,-38.5 180,-57.5 329,-57.5 329,-38.5 180,-38.5"/>
<text text-anchor="middle" x="254.5" y="-45.5" font-family="Helvetica,sans-Serif" font-size="10.00" fill="#000000">CWallet::ReorderTransactions</text>
</a>
</g>
</g>
<!-- Node226&#45;&gt;Node227 -->
<g id="edge1" class="edge">
<title>Node226&#45;&gt;Node227</title>
<path fill="none" stroke="#191970" d="M154.1353,-37.5511C162.7175,-38.4446 171.4083,-39.3494 179.9001,-40.2334"/>
<polygon fill="#191970" stroke="#191970" points="154.4375,-34.0637 144.1288,-36.5093 153.7126,-41.0261 154.4375,-34.0637"/>
</g>
<!-- Node228 -->
<g id="node3" class="node">
<title>Node228</title>
<g id="a_node3"><a xlink:href="group___actions.html#gaef3b0cf9a7a3956f79d92c9b92890e85" target="_top" xlink:title="CWallet::AddAccountingEntry">
<polygon fill="#ffffff" stroke="#000000" points="181,-.5 181,-19.5 328,-19.5 328,-.5 181,-.5"/>
<text text-anchor="middle" x="254.5" y="-7.5" font-family="Helvetica,sans-Serif" font-size="10.00" fill="#000000">CWallet::AddAccountingEntry</text>
</a>
</g>
</g>
<!-- Node226&#45;&gt;Node228 -->
<g id="edge2" class="edge">
<title>Node226&#45;&gt;Node228</title>
<path fill="none" stroke="#191970" d="M154.1044,-20.4521C163.0002,-19.526 172.0132,-18.5877 180.8004,-17.6728"/>
<polygon fill="#191970" stroke="#191970" points="153.7126,-16.9739 144.1288,-21.4907 154.4375,-23.9363 153.7126,-16.9739"/>
</g>
</g>
</svg>
