<?xml version="1.0" encoding="UTF-8" standalone="no"?>
<!DOCTYPE svg PUBLIC "-//W3C//DTD SVG 1.1//EN"
 "http://www.w3.org/Graphics/SVG/1.1/DTD/svg11.dtd">
<!-- Generated by graphviz version 2.40.1 (20161225.0304)
 -->
<!-- Title: RPCConsole::updateNetworkState Pages: 1 -->
<svg width="354pt" height="66pt"
 viewBox="0.00 0.00 354.00 66.00" xmlns="http://www.w3.org/2000/svg" xmlns:xlink="http://www.w3.org/1999/xlink">
<g id="graph0" class="graph" transform="scale(1 1) rotate(0) translate(4 62)">
<title>RPCConsole::updateNetworkState</title>
<polygon fill="#ffffff" stroke="transparent" points="-4,4 -4,-62 350,-62 350,4 -4,4"/>
<!-- Node473 -->
<g id="node1" class="node">
<title>Node473</title>
<polygon fill="#bfbfbf" stroke="#000000" points="0,-14 0,-44 146,-44 146,-14 0,-14"/>
<text text-anchor="start" x="8" y="-32" font-family="Helvetica,sans-Serif" font-size="10.00" fill="#000000">RPCConsole::updateNetwork</text>
<text text-anchor="middle" x="73" y="-21" font-family="Helvetica,sans-Serif" font-size="10.00" fill="#000000">State</text>
</g>
<!-- Node474 -->
<g id="node2" class="node">
<title>Node474</title>
<g id="a_node2"><a xlink:href="class_client_model.html#ab1a71928e2ff3902e854d301f4cfe6ef" target="_top" xlink:title="Return number of connections, default is in&#45; and outbound (total) ">
<polygon fill="#ffffff" stroke="#000000" points="182,-38.5 182,-57.5 346,-57.5 346,-38.5 182,-38.5"/>
<text text-anchor="middle" x="264" y="-45.5" font-family="Helvetica,sans-Serif" font-size="10.00" fill="#000000">ClientModel::getNumConnections</text>
</a>
</g>
</g>
<!-- Node473&#45;&gt;Node474 -->
<g id="edge1" class="edge">
<title>Node473&#45;&gt;Node474</title>
<path fill="none" stroke="#191970" d="M146.0265,-36.2644C154.4284,-37.1002 163.0765,-37.9605 171.6898,-38.8173"/>
<polygon fill="#191970" stroke="#191970" points="171.4711,-42.3127 181.7685,-39.8199 172.1641,-35.3471 171.4711,-42.3127"/>
</g>
<!-- Node475 -->
<g id="node3" class="node">
<title>Node475</title>
<g id="a_node3"><a xlink:href="class_client_model.html#aa8f8839642703f13b476d09b7a616bd7" target="_top" xlink:title="Return true if network activity in core is enabled. ">
<polygon fill="#ffffff" stroke="#000000" points="188,-.5 188,-19.5 340,-19.5 340,-.5 188,-.5"/>
<text text-anchor="middle" x="264" y="-7.5" font-family="Helvetica,sans-Serif" font-size="10.00" fill="#000000">ClientModel::getNetworkActive</text>
</a>
</g>
</g>
<!-- Node473&#45;&gt;Node475 -->
<g id="edge2" class="edge">
<title>Node473&#45;&gt;Node475</title>
<path fill="none" stroke="#191970" d="M146.0265,-21.7356C156.4014,-20.7035 167.1515,-19.6341 177.7483,-18.58"/>
<polygon fill="#191970" stroke="#191970" points="178.2395,-22.0485 187.8439,-17.5757 177.5465,-15.0829 178.2395,-22.0485"/>
</g>
</g>
</svg>
