<?xml version="1.0" encoding="UTF-8" standalone="no"?>
<!DOCTYPE svg PUBLIC "-//W3C//DTD SVG 1.1//EN"
 "http://www.w3.org/Graphics/SVG/1.1/DTD/svg11.dtd">
<!-- Generated by graphviz version 2.40.1 (20161225.0304)
 -->
<!-- Title: CRollingBloomFilter::contains Pages: 1 -->
<svg width="846pt" height="72pt"
 viewBox="0.00 0.00 846.00 71.50" xmlns="http://www.w3.org/2000/svg" xmlns:xlink="http://www.w3.org/1999/xlink">
<g id="graph0" class="graph" transform="scale(1 1) rotate(0) translate(4 67.5)">
<title>CRollingBloomFilter::contains</title>
<polygon fill="#ffffff" stroke="transparent" points="-4,4 -4,-67.5 842,-67.5 842,4 -4,4"/>
<!-- Node5 -->
<g id="node1" class="node">
<title>Node5</title>
<polygon fill="#bfbfbf" stroke="#000000" points="0,-19.5 0,-49.5 104,-49.5 104,-19.5 0,-19.5"/>
<text text-anchor="start" x="8" y="-37.5" font-family="Helvetica,sans-Serif" font-size="10.00" fill="#000000">CRollingBloomFilter</text>
<text text-anchor="middle" x="52" y="-26.5" font-family="Helvetica,sans-Serif" font-size="10.00" fill="#000000">::contains</text>
</g>
<!-- Node6 -->
<g id="node2" class="node">
<title>Node6</title>
<g id="a_node2"><a xlink:href="class_c_node.html#a1f39037c55bed93b832bcbef00597ca5" target="_top" xlink:title="CNode::PushAddress">
<polygon fill="#ffffff" stroke="#000000" points="142,-44 142,-63 254,-63 254,-44 142,-44"/>
<text text-anchor="middle" x="198" y="-51" font-family="Helvetica,sans-Serif" font-size="10.00" fill="#000000">CNode::PushAddress</text>
</a>
</g>
</g>
<!-- Node5&#45;&gt;Node6 -->
<g id="edge1" class="edge">
<title>Node5&#45;&gt;Node6</title>
<path fill="none" stroke="#191970" d="M114.3861,-42.6187C123.4329,-43.7961 132.7018,-45.0023 141.6211,-46.163"/>
<polygon fill="#191970" stroke="#191970" points="114.6651,-39.1256 104.297,-41.3058 113.7617,-46.0671 114.6651,-39.1256"/>
</g>
<!-- Node8 -->
<g id="node4" class="node">
<title>Node8</title>
<g id="a_node4"><a xlink:href="class_c_node.html#a7cef2333aa8776127a7e7fcab659eb6a" target="_top" xlink:title="CNode::PushInventory">
<polygon fill="#ffffff" stroke="#000000" points="140,-6 140,-25 256,-25 256,-6 140,-6"/>
<text text-anchor="middle" x="198" y="-13" font-family="Helvetica,sans-Serif" font-size="10.00" fill="#000000">CNode::PushInventory</text>
</a>
</g>
</g>
<!-- Node5&#45;&gt;Node8 -->
<g id="edge3" class="edge">
<title>Node5&#45;&gt;Node8</title>
<path fill="none" stroke="#191970" d="M114.4591,-26.3718C122.8937,-25.2741 131.5201,-24.1515 139.875,-23.0642"/>
<polygon fill="#191970" stroke="#191970" points="113.7617,-22.9329 104.297,-27.6942 114.6651,-29.8744 113.7617,-22.9329"/>
</g>
<!-- Node7 -->
<g id="node3" class="node">
<title>Node7</title>
<g id="a_node3"><a xlink:href="net_8h.html#a0cde2b3256757536c42c0bd3037847d1" target="_top" xlink:title="AdvertiseLocal">
<polygon fill="#ffffff" stroke="#000000" points="338,-44 338,-63 419,-63 419,-44 338,-44"/>
<text text-anchor="middle" x="378.5" y="-51" font-family="Helvetica,sans-Serif" font-size="10.00" fill="#000000">AdvertiseLocal</text>
</a>
</g>
</g>
<!-- Node6&#45;&gt;Node7 -->
<g id="edge2" class="edge">
<title>Node6&#45;&gt;Node7</title>
<path fill="none" stroke="#191970" d="M264.1626,-53.5C288.8641,-53.5 316.1631,-53.5 337.8903,-53.5"/>
<polygon fill="#191970" stroke="#191970" points="264.1219,-50.0001 254.1219,-53.5 264.1219,-57.0001 264.1219,-50.0001"/>
</g>
<!-- Node9 -->
<g id="node5" class="node">
<title>Node9</title>
<g id="a_node5"><a xlink:href="group__map_wallet.html#ga88bcacf1a2426b9be5364f848dc92b53" target="_top" xlink:title="CWalletTx::RelayWalletTransaction">
<polygon fill="#ffffff" stroke="#000000" points="292,-6 292,-25 465,-25 465,-6 292,-6"/>
<text text-anchor="middle" x="378.5" y="-13" font-family="Helvetica,sans-Serif" font-size="10.00" fill="#000000">CWalletTx::RelayWalletTransaction</text>
</a>
</g>
</g>
<!-- Node8&#45;&gt;Node9 -->
<g id="edge4" class="edge">
<title>Node8&#45;&gt;Node9</title>
<path fill="none" stroke="#191970" d="M266.2025,-15.5C274.6086,-15.5 283.2866,-15.5 291.9198,-15.5"/>
<polygon fill="#191970" stroke="#191970" points="266.1049,-12.0001 256.1049,-15.5 266.1049,-19.0001 266.1049,-12.0001"/>
</g>
<!-- Node10 -->
<g id="node6" class="node">
<title>Node10</title>
<g id="a_node6"><a xlink:href="group__map_wallet.html#ga5660023a09ecf8107cb2b3df8d3d0e40" target="_top" xlink:title="CWallet::ResendWalletTransactions\lBefore">
<polygon fill="#ffffff" stroke="#000000" points="501,-.5 501,-30.5 677,-30.5 677,-.5 501,-.5"/>
<text text-anchor="start" x="509" y="-18.5" font-family="Helvetica,sans-Serif" font-size="10.00" fill="#000000">CWallet::ResendWalletTransactions</text>
<text text-anchor="middle" x="589" y="-7.5" font-family="Helvetica,sans-Serif" font-size="10.00" fill="#000000">Before</text>
</a>
</g>
</g>
<!-- Node9&#45;&gt;Node10 -->
<g id="edge5" class="edge">
<title>Node9&#45;&gt;Node10</title>
<path fill="none" stroke="#191970" d="M475.0433,-15.5C483.6155,-15.5 492.2653,-15.5 500.763,-15.5"/>
<polygon fill="#191970" stroke="#191970" points="475.0297,-12.0001 465.0297,-15.5 475.0296,-19.0001 475.0297,-12.0001"/>
</g>
<!-- Node11 -->
<g id="node7" class="node">
<title>Node11</title>
<g id="a_node7"><a xlink:href="rpcwallet_8cpp.html#a97fa26e107f9d641d0af46cba7e3c1b5" target="_top" xlink:title="resendwallettransactions">
<polygon fill="#ffffff" stroke="#000000" points="713,-6 713,-25 838,-25 838,-6 713,-6"/>
<text text-anchor="middle" x="775.5" y="-13" font-family="Helvetica,sans-Serif" font-size="10.00" fill="#000000">resendwallettransactions</text>
</a>
</g>
</g>
<!-- Node10&#45;&gt;Node11 -->
<g id="edge6" class="edge">
<title>Node10&#45;&gt;Node11</title>
<path fill="none" stroke="#191970" d="M687.2571,-15.5C695.9348,-15.5 704.5545,-15.5 712.8145,-15.5"/>
<polygon fill="#191970" stroke="#191970" points="687.0617,-12.0001 677.0617,-15.5 687.0617,-19.0001 687.0617,-12.0001"/>
</g>
</g>
</svg>
