<?xml version="1.0" encoding="UTF-8" standalone="no"?>
<!DOCTYPE svg PUBLIC "-//W3C//DTD SVG 1.1//EN"
 "http://www.w3.org/Graphics/SVG/1.1/DTD/svg11.dtd">
<!-- Generated by graphviz version 2.40.1 (20161225.0304)
 -->
<!-- Title: CPubKey::end Pages: 1 -->
<svg width="872pt" height="329pt"
 viewBox="0.00 0.00 872.00 328.50" xmlns="http://www.w3.org/2000/svg" xmlns:xlink="http://www.w3.org/1999/xlink">
<g id="graph0" class="graph" transform="scale(1 1) rotate(0) translate(4 324.5)">
<title>CPubKey::end</title>
<polygon fill="#ffffff" stroke="transparent" points="-4,4 -4,-324.5 868,-324.5 868,4 -4,4"/>
<!-- Node78 -->
<g id="node1" class="node">
<title>Node78</title>
<polygon fill="#bfbfbf" stroke="#000000" points="0,-117.5 0,-136.5 80,-136.5 80,-117.5 0,-117.5"/>
<text text-anchor="middle" x="40" y="-124.5" font-family="Helvetica,sans-Serif" font-size="10.00" fill="#000000">CPubKey::end</text>
</g>
<!-- Node79 -->
<g id="node2" class="node">
<title>Node79</title>
<g id="a_node2"><a xlink:href="class_c_key.html#ae79008cec2eb799a2efd37e010996acf" target="_top" xlink:title="Derive BIP32 child key. ">
<polygon fill="#ffffff" stroke="#000000" points="141.5,-251.5 141.5,-270.5 217.5,-270.5 217.5,-251.5 141.5,-251.5"/>
<text text-anchor="middle" x="179.5" y="-258.5" font-family="Helvetica,sans-Serif" font-size="10.00" fill="#000000">CKey::Derive</text>
</a>
</g>
</g>
<!-- Node78&#45;&gt;Node79 -->
<g id="edge1" class="edge">
<title>Node78&#45;&gt;Node79</title>
<path fill="none" stroke="#191970" d="M57.554,-143.8619C87.1704,-172.3106 146.1231,-228.939 169.5584,-251.4504"/>
<polygon fill="#191970" stroke="#191970" points="59.669,-141.0403 50.0325,-136.6369 54.8197,-146.0886 59.669,-141.0403"/>
</g>
<!-- Node83 -->
<g id="node6" class="node">
<title>Node83</title>
<g id="a_node6"><a xlink:href="class_c_pub_key.html#ac28722f47ab8a613bf9982608d13aa1f" target="_top" xlink:title="Derive BIP32 child pubkey. ">
<polygon fill="#ffffff" stroke="#000000" points="133,-136.5 133,-155.5 226,-155.5 226,-136.5 133,-136.5"/>
<text text-anchor="middle" x="179.5" y="-143.5" font-family="Helvetica,sans-Serif" font-size="10.00" fill="#000000">CPubKey::Derive</text>
</a>
</g>
</g>
<!-- Node78&#45;&gt;Node83 -->
<g id="edge6" class="edge">
<title>Node78&#45;&gt;Node83</title>
<path fill="none" stroke="#191970" d="M90.6419,-133.8975C104.4286,-135.7752 119.2945,-137.8 132.8485,-139.646"/>
<polygon fill="#191970" stroke="#191970" points="90.7301,-130.3772 80.3492,-132.4956 89.7853,-137.3132 90.7301,-130.3772"/>
</g>
<!-- Node84 -->
<g id="node7" class="node">
<title>Node84</title>
<g id="a_node7"><a xlink:href="standard_8h.html#a918dcaa16c3228c31ca9878bed066c65" target="_top" xlink:title="Generate a P2PK script for the given pubkey. ">
<polygon fill="#ffffff" stroke="#000000" points="116,-98.5 116,-117.5 243,-117.5 243,-98.5 116,-98.5"/>
<text text-anchor="middle" x="179.5" y="-105.5" font-family="Helvetica,sans-Serif" font-size="10.00" fill="#000000">GetScriptForRawPubKey</text>
</a>
</g>
</g>
<!-- Node78&#45;&gt;Node84 -->
<g id="edge7" class="edge">
<title>Node78&#45;&gt;Node84</title>
<path fill="none" stroke="#191970" d="M90.5227,-120.1188C98.748,-118.9985 107.3603,-117.8255 115.8511,-116.669"/>
<polygon fill="#191970" stroke="#191970" points="89.7853,-116.6868 80.3492,-121.5044 90.7301,-123.6228 89.7853,-116.6868"/>
</g>
<!-- Node95 -->
<g id="node18" class="node">
<title>Node95</title>
<g id="a_node18"><a xlink:href="class_c_wallet_d_b.html#a7ebef5e0c7f604aa2159ba96d527e3a2" target="_top" xlink:title="CWalletDB::WriteKey">
<polygon fill="#ffffff" stroke="#000000" points="123,-41.5 123,-60.5 236,-60.5 236,-41.5 123,-41.5"/>
<text text-anchor="middle" x="179.5" y="-48.5" font-family="Helvetica,sans-Serif" font-size="10.00" fill="#000000">CWalletDB::WriteKey</text>
</a>
</g>
</g>
<!-- Node78&#45;&gt;Node95 -->
<g id="edge20" class="edge">
<title>Node78&#45;&gt;Node95</title>
<path fill="none" stroke="#191970" d="M66.5328,-112.5449C94.5577,-97.2768 137.9443,-73.6397 161.9757,-60.5473"/>
<polygon fill="#191970" stroke="#191970" points="64.7747,-109.5169 57.6678,-117.3745 68.1236,-115.6639 64.7747,-109.5169"/>
</g>
<!-- Node80 -->
<g id="node3" class="node">
<title>Node80</title>
<g id="a_node3"><a xlink:href="class_c_key.html#a96b017433a65335775cf3807d73f85ce" target="_top" xlink:title="Check whether the public key corresponding to this private key is (to be) compressed. ">
<polygon fill="#ffffff" stroke="#000000" points="305.5,-251.5 305.5,-270.5 416.5,-270.5 416.5,-251.5 305.5,-251.5"/>
<text text-anchor="middle" x="361" y="-258.5" font-family="Helvetica,sans-Serif" font-size="10.00" fill="#000000">CKey::IsCompressed</text>
</a>
</g>
</g>
<!-- Node79&#45;&gt;Node80 -->
<g id="edge2" class="edge">
<title>Node79&#45;&gt;Node80</title>
<path fill="none" stroke="#191970" d="M227.7896,-254.955C251.6754,-254.1002 280.6277,-254.0227 305.4313,-254.7227"/>
<polygon fill="#191970" stroke="#191970" points="227.3925,-251.4685 217.5483,-255.3855 227.6866,-258.4623 227.3925,-251.4685"/>
</g>
<!-- Node80&#45;&gt;Node79 -->
<g id="edge4" class="edge">
<title>Node80&#45;&gt;Node79</title>
<path fill="none" stroke="#191970" d="M295.2181,-267.5176C269.1185,-268.015 240.0313,-267.714 217.5483,-266.6145"/>
<polygon fill="#191970" stroke="#191970" points="295.5164,-271.0117 305.4313,-267.2773 295.3517,-264.0136 295.5164,-271.0117"/>
</g>
<!-- Node81 -->
<g id="node4" class="node">
<title>Node81</title>
<g id="a_node4"><a xlink:href="class_c_raven_secret.html#a9e28a7dea8650427bb1635a98551685f" target="_top" xlink:title="CRavenSecret::SetKey">
<polygon fill="#ffffff" stroke="#000000" points="490,-251.5 490,-270.5 609,-270.5 609,-251.5 490,-251.5"/>
<text text-anchor="middle" x="549.5" y="-258.5" font-family="Helvetica,sans-Serif" font-size="10.00" fill="#000000">CRavenSecret::SetKey</text>
</a>
</g>
</g>
<!-- Node80&#45;&gt;Node81 -->
<g id="edge3" class="edge">
<title>Node80&#45;&gt;Node81</title>
<path fill="none" stroke="#191970" d="M426.7319,-261C447.2241,-261 469.7019,-261 489.7603,-261"/>
<polygon fill="#191970" stroke="#191970" points="426.5367,-257.5001 416.5367,-261 426.5367,-264.5001 426.5367,-257.5001"/>
</g>
<!-- Node82 -->
<g id="node5" class="node">
<title>Node82</title>
<g id="a_node5"><a xlink:href="class_transaction_signature_creator.html#a9cb1b4bd531ab19a1257abd9b639b7c8" target="_top" xlink:title="Create a singular (non&#45;script) signature. ">
<polygon fill="#ffffff" stroke="#000000" points="479,-290 479,-320 620,-320 620,-290 479,-290"/>
<text text-anchor="start" x="487" y="-308" font-family="Helvetica,sans-Serif" font-size="10.00" fill="#000000">TransactionSignatureCreator</text>
<text text-anchor="middle" x="549.5" y="-297" font-family="Helvetica,sans-Serif" font-size="10.00" fill="#000000">::CreateSig</text>
</a>
</g>
</g>
<!-- Node80&#45;&gt;Node82 -->
<g id="edge5" class="edge">
<title>Node80&#45;&gt;Node82</title>
<path fill="none" stroke="#191970" d="M411.9123,-272.884C434.3996,-278.1331 461.0944,-284.3642 484.9586,-289.9346"/>
<polygon fill="#191970" stroke="#191970" points="412.4355,-269.4122 401.9017,-270.5473 410.8443,-276.2289 412.4355,-269.4122"/>
</g>
<!-- Node85 -->
<g id="node8" class="node">
<title>Node85</title>
<g id="a_node8"><a xlink:href="rpcwallet_8cpp.html#a1e79cb342ad4f0bf7b02a2b1e18af7ff" target="_top" xlink:title="importpubkey">
<polygon fill="#ffffff" stroke="#000000" points="658.5,-145.5 658.5,-164.5 733.5,-164.5 733.5,-145.5 658.5,-145.5"/>
<text text-anchor="middle" x="696" y="-152.5" font-family="Helvetica,sans-Serif" font-size="10.00" fill="#000000">importpubkey</text>
</a>
</g>
</g>
<!-- Node84&#45;&gt;Node85 -->
<g id="edge8" class="edge">
<title>Node84&#45;&gt;Node85</title>
<path fill="none" stroke="#191970" d="M236.6492,-122.3163C238.8873,-123.7328 241.0183,-125.2894 243,-127 271.5975,-151.6848 247.1283,-183.718 279,-204 411.5278,-288.3358 616.428,-195.9619 677.9428,-164.6234"/>
<polygon fill="#191970" stroke="#191970" points="238.0515,-119.0987 227.5752,-117.5182 234.7793,-125.2868 238.0515,-119.0987"/>
</g>
<!-- Node87 -->
<g id="node10" class="node">
<title>Node87</title>
<g id="a_node10"><a xlink:href="rpcdump_8cpp.html#a0ccf80d09e7c16fb3035c4b81bf4a4d8" target="_top" xlink:title="ProcessImport">
<polygon fill="#ffffff" stroke="#000000" points="656,-38.5 656,-57.5 736,-57.5 736,-38.5 656,-38.5"/>
<text text-anchor="middle" x="696" y="-45.5" font-family="Helvetica,sans-Serif" font-size="10.00" fill="#000000">ProcessImport</text>
</a>
</g>
</g>
<!-- Node84&#45;&gt;Node87 -->
<g id="edge10" class="edge">
<title>Node84&#45;&gt;Node87</title>
<path fill="none" stroke="#191970" d="M206.4205,-93.9222C225.9838,-84.443 253.4093,-72.6741 279,-67 414.4913,-36.9581 580.6173,-41.2298 655.7282,-45.2894"/>
<polygon fill="#191970" stroke="#191970" points="204.6235,-90.9068 197.2248,-98.4903 207.7378,-97.1759 204.6235,-90.9068"/>
</g>
<!-- Node89 -->
<g id="node12" class="node">
<title>Node89</title>
<g id="a_node12"><a xlink:href="wallet__tests_8cpp.html#a18f5413234b045359bb13823303fd222" target="_top" xlink:title="BOOST_FIXTURE_TEST_CASE">
<polygon fill="#ffffff" stroke="#000000" points="279,-76.5 279,-95.5 443,-95.5 443,-76.5 279,-76.5"/>
<text text-anchor="middle" x="361" y="-83.5" font-family="Helvetica,sans-Serif" font-size="10.00" fill="#000000">BOOST_FIXTURE_TEST_CASE</text>
</a>
</g>
</g>
<!-- Node84&#45;&gt;Node89 -->
<g id="edge12" class="edge">
<title>Node84&#45;&gt;Node89</title>
<path fill="none" stroke="#191970" d="M253.166,-99.0708C262.8069,-97.9022 272.7147,-96.7013 282.4327,-95.5233"/>
<polygon fill="#191970" stroke="#191970" points="252.741,-95.5966 243.2349,-100.2746 253.5834,-102.5457 252.741,-95.5966"/>
</g>
<!-- Node90 -->
<g id="node13" class="node">
<title>Node90</title>
<g id="a_node13"><a xlink:href="class_list_coins_testing_setup.html#adadca010ddbfc563e99928862ade6027" target="_top" xlink:title="ListCoinsTestingSetup\l::ListCoinsTestingSetup">
<polygon fill="#ffffff" stroke="#000000" points="300,-164 300,-194 422,-194 422,-164 300,-164"/>
<text text-anchor="start" x="308" y="-182" font-family="Helvetica,sans-Serif" font-size="10.00" fill="#000000">ListCoinsTestingSetup</text>
<text text-anchor="middle" x="361" y="-171" font-family="Helvetica,sans-Serif" font-size="10.00" fill="#000000">::ListCoinsTestingSetup</text>
</a>
</g>
</g>
<!-- Node84&#45;&gt;Node90 -->
<g id="edge13" class="edge">
<title>Node84&#45;&gt;Node90</title>
<path fill="none" stroke="#191970" d="M229.3749,-120.9719C234.0742,-122.7719 238.688,-124.7776 243,-127 261.0175,-136.2862 260.9547,-145.768 279,-155 285.6027,-158.378 292.7543,-161.352 299.9885,-163.9509"/>
<polygon fill="#191970" stroke="#191970" points="230.2731,-117.5777 219.6783,-117.5622 227.951,-124.1813 230.2731,-117.5777"/>
</g>
<!-- Node91 -->
<g id="node14" class="node">
<title>Node91</title>
<g id="a_node14"><a xlink:href="class_list_coins_testing_setup.html#a8ce37c5d8d073c901b91153f83c47ee8" target="_top" xlink:title="ListCoinsTestingSetup\l::AddTx">
<polygon fill="#ffffff" stroke="#000000" points="303,-115 303,-145 419,-145 419,-115 303,-115"/>
<text text-anchor="start" x="311" y="-133" font-family="Helvetica,sans-Serif" font-size="10.00" fill="#000000">ListCoinsTestingSetup</text>
<text text-anchor="middle" x="361" y="-122" font-family="Helvetica,sans-Serif" font-size="10.00" fill="#000000">::AddTx</text>
</a>
</g>
</g>
<!-- Node84&#45;&gt;Node91 -->
<g id="edge14" class="edge">
<title>Node84&#45;&gt;Node91</title>
<path fill="none" stroke="#191970" d="M253.3821,-116.9554C269.8717,-118.9541 287.1314,-121.0462 302.879,-122.955"/>
<polygon fill="#191970" stroke="#191970" points="253.5834,-113.4543 243.2349,-115.7254 252.741,-120.4034 253.5834,-113.4543"/>
</g>
<!-- Node92 -->
<g id="node15" class="node">
<title>Node92</title>
<g id="a_node15"><a xlink:href="group__map_wallet.html#gacc1f62c9141576557cb98551cf78dc67" target="_top" xlink:title="CWallet::AddKeyPubKeyWithDB">
<polygon fill="#ffffff" stroke="#000000" points="280.5,-.5 280.5,-19.5 441.5,-19.5 441.5,-.5 280.5,-.5"/>
<text text-anchor="middle" x="361" y="-7.5" font-family="Helvetica,sans-Serif" font-size="10.00" fill="#000000">CWallet::AddKeyPubKeyWithDB</text>
</a>
</g>
</g>
<!-- Node84&#45;&gt;Node92 -->
<g id="edge15" class="edge">
<title>Node84&#45;&gt;Node92</title>
<path fill="none" stroke="#191970" d="M206.8816,-93.5826C218.4513,-86.999 231.8083,-78.7277 243,-70 260.8431,-56.0851 259.5351,-45.5376 279,-34 289.4633,-27.798 301.6368,-23.1067 313.3513,-19.5947"/>
<polygon fill="#191970" stroke="#191970" points="205.1072,-90.5645 198.0617,-98.4772 208.5039,-96.6852 205.1072,-90.5645"/>
</g>
<!-- Node86 -->
<g id="node9" class="node">
<title>Node86</title>
<g id="a_node9"><a xlink:href="rpcwallet_8cpp.html#a151535abf7394b299deb8d0a333de70b" target="_top" xlink:title="rescanblockchain">
<polygon fill="#ffffff" stroke="#000000" points="772,-.5 772,-19.5 864,-19.5 864,-.5 772,-.5"/>
<text text-anchor="middle" x="818" y="-7.5" font-family="Helvetica,sans-Serif" font-size="10.00" fill="#000000">rescanblockchain</text>
</a>
</g>
</g>
<!-- Node85&#45;&gt;Node86 -->
<g id="edge9" class="edge">
<title>Node85&#45;&gt;Node86</title>
<path fill="none" stroke="#191970" d="M703.0394,-135.8446C713.9247,-108.6475 737.2772,-58.8376 772,-29 776.3252,-25.2833 781.4777,-22.2202 786.7435,-19.7206"/>
<polygon fill="#191970" stroke="#191970" points="699.6948,-134.7906 699.3662,-145.3804 706.2269,-137.3069 699.6948,-134.7906"/>
</g>
<!-- Node88 -->
<g id="node11" class="node">
<title>Node88</title>
<g id="a_node11"><a xlink:href="wallet__tests_8cpp.html#af0e3c9469f1d8f368d3d5f38e5580367" target="_top" xlink:title="importmulti">
<polygon fill="#ffffff" stroke="#000000" points="785.5,-38.5 785.5,-57.5 850.5,-57.5 850.5,-38.5 785.5,-38.5"/>
<text text-anchor="middle" x="818" y="-45.5" font-family="Helvetica,sans-Serif" font-size="10.00" fill="#000000">importmulti</text>
</a>
</g>
</g>
<!-- Node87&#45;&gt;Node88 -->
<g id="edge11" class="edge">
<title>Node87&#45;&gt;Node88</title>
<path fill="none" stroke="#191970" d="M746.6256,-48C759.7558,-48 773.5467,-48 785.4678,-48"/>
<polygon fill="#191970" stroke="#191970" points="746.2855,-44.5001 736.2855,-48 746.2854,-51.5001 746.2855,-44.5001"/>
</g>
<!-- Node93 -->
<g id="node16" class="node">
<title>Node93</title>
<g id="a_node16"><a xlink:href="group__map_wallet.html#gac5f2eb553d4a59b1ff7fadacb7e981d8" target="_top" xlink:title="Adds a key to the store, and saves it to disk. ">
<polygon fill="#ffffff" stroke="#000000" points="486,-.5 486,-19.5 613,-19.5 613,-.5 486,-.5"/>
<text text-anchor="middle" x="549.5" y="-7.5" font-family="Helvetica,sans-Serif" font-size="10.00" fill="#000000">CWallet::AddKeyPubKey</text>
</a>
</g>
</g>
<!-- Node92&#45;&gt;Node93 -->
<g id="edge16" class="edge">
<title>Node92&#45;&gt;Node93</title>
<path fill="none" stroke="#191970" d="M451.8655,-10C463.403,-10 475.0082,-10 485.9884,-10"/>
<polygon fill="#191970" stroke="#191970" points="451.7613,-6.5001 441.7613,-10 451.7612,-13.5001 451.7613,-6.5001"/>
</g>
<!-- Node93&#45;&gt;Node87 -->
<g id="edge19" class="edge">
<title>Node93&#45;&gt;Node87</title>
<path fill="none" stroke="#191970" d="M596.1954,-22.1121C616.5986,-27.4044 640.1808,-33.5213 659.2977,-38.4799"/>
<polygon fill="#191970" stroke="#191970" points="597.0266,-18.712 586.4681,-19.589 595.269,-25.4877 597.0266,-18.712"/>
</g>
<!-- Node94 -->
<g id="node17" class="node">
<title>Node94</title>
<g id="a_node17"><a xlink:href="rpcwallet_8cpp.html#a2f46e2bb304dda9a197b5a68db6106f7" target="_top" xlink:title="importprivkey">
<polygon fill="#ffffff" stroke="#000000" points="658.5,-.5 658.5,-19.5 733.5,-19.5 733.5,-.5 658.5,-.5"/>
<text text-anchor="middle" x="696" y="-7.5" font-family="Helvetica,sans-Serif" font-size="10.00" fill="#000000">importprivkey</text>
</a>
</g>
</g>
<!-- Node93&#45;&gt;Node94 -->
<g id="edge17" class="edge">
<title>Node93&#45;&gt;Node94</title>
<path fill="none" stroke="#191970" d="M623.5032,-10C635.6402,-10 647.7497,-10 658.4985,-10"/>
<polygon fill="#191970" stroke="#191970" points="623.3309,-6.5001 613.3309,-10 623.3308,-13.5001 623.3309,-6.5001"/>
</g>
<!-- Node94&#45;&gt;Node86 -->
<g id="edge18" class="edge">
<title>Node94&#45;&gt;Node86</title>
<path fill="none" stroke="#191970" d="M743.752,-10C752.9451,-10 762.5599,-10 771.7058,-10"/>
<polygon fill="#191970" stroke="#191970" points="743.5995,-6.5001 733.5995,-10 743.5995,-13.5001 743.5995,-6.5001"/>
</g>
<!-- Node95&#45;&gt;Node92 -->
<g id="edge21" class="edge">
<title>Node95&#45;&gt;Node92</title>
<path fill="none" stroke="#191970" d="M231.5006,-39.2533C259.1798,-33.0007 292.7803,-25.4105 318.8183,-19.5286"/>
<polygon fill="#191970" stroke="#191970" points="230.5789,-35.8732 221.5959,-41.4907 232.1214,-42.7012 230.5789,-35.8732"/>
</g>
</g>
</svg>
