<?xml version="1.0" encoding="UTF-8" standalone="no"?>
<!DOCTYPE svg PUBLIC "-//W3C//DTD SVG 1.1//EN"
 "http://www.w3.org/Graphics/SVG/1.1/DTD/svg11.dtd">
<!-- Generated by graphviz version 2.40.1 (20161225.0304)
 -->
<!-- Title: CCoinsView::GetHeadBlocks Pages: 1 -->
<svg width="339pt" height="78pt"
 viewBox="0.00 0.00 339.00 77.50" xmlns="http://www.w3.org/2000/svg" xmlns:xlink="http://www.w3.org/1999/xlink">
<g id="graph0" class="graph" transform="scale(1 1) rotate(0) translate(4 73.5)">
<title>CCoinsView::GetHeadBlocks</title>
<polygon fill="#ffffff" stroke="transparent" points="-4,4 -4,-73.5 335,-73.5 335,4 -4,4"/>
<!-- Node58 -->
<g id="node1" class="node">
<title>Node58</title>
<polygon fill="#bfbfbf" stroke="#000000" points="0,-22.5 0,-41.5 146,-41.5 146,-22.5 0,-22.5"/>
<text text-anchor="middle" x="73" y="-29.5" font-family="Helvetica,sans-Serif" font-size="10.00" fill="#000000">CCoinsView::GetHeadBlocks</text>
</g>
<!-- Node59 -->
<g id="node2" class="node">
<title>Node59</title>
<g id="a_node2"><a xlink:href="class_c_coins_view_backed.html#af4a5c921fd3e6abe7c3d2ca9e7dd8a2d" target="_top" xlink:title="Retrieve the range of blocks that may have been only partially written. ">
<polygon fill="#ffffff" stroke="#000000" points="182,-39 182,-69 331,-69 331,-39 182,-39"/>
<text text-anchor="start" x="190" y="-57" font-family="Helvetica,sans-Serif" font-size="10.00" fill="#000000">CCoinsViewBacked::GetHead</text>
<text text-anchor="middle" x="256.5" y="-46" font-family="Helvetica,sans-Serif" font-size="10.00" fill="#000000">Blocks</text>
</a>
</g>
</g>
<!-- Node58&#45;&gt;Node59 -->
<g id="edge1" class="edge">
<title>Node58&#45;&gt;Node59</title>
<path fill="none" stroke="#191970" d="M156.086,-41.9613C164.6898,-42.9928 173.3961,-44.0366 181.8987,-45.056"/>
<polygon fill="#191970" stroke="#191970" points="156.3969,-38.4736 146.0513,-40.7582 155.5635,-45.4238 156.3969,-38.4736"/>
</g>
<!-- Node60 -->
<g id="node3" class="node">
<title>Node60</title>
<g id="a_node3"><a xlink:href="validation_8h.html#ad16a624dfed17bddcd0901c6d32212ab" target="_top" xlink:title="Replay blocks that aren&#39;t fully applied to the database. ">
<polygon fill="#ffffff" stroke="#000000" points="218,-.5 218,-19.5 295,-19.5 295,-.5 218,-.5"/>
<text text-anchor="middle" x="256.5" y="-7.5" font-family="Helvetica,sans-Serif" font-size="10.00" fill="#000000">ReplayBlocks</text>
</a>
</g>
</g>
<!-- Node58&#45;&gt;Node60 -->
<g id="edge2" class="edge">
<title>Node58&#45;&gt;Node60</title>
<path fill="none" stroke="#191970" d="M156.2215,-22.0225C177.7677,-19.4393 199.9467,-16.7802 217.9503,-14.6218"/>
<polygon fill="#191970" stroke="#191970" points="155.5635,-18.5762 146.0513,-23.2418 156.3969,-25.5264 155.5635,-18.5762"/>
</g>
</g>
</svg>
