<?xml version="1.0" encoding="UTF-8" standalone="no"?>
<!DOCTYPE svg PUBLIC "-//W3C//DTD SVG 1.1//EN"
 "http://www.w3.org/Graphics/SVG/1.1/DTD/svg11.dtd">
<!-- Generated by graphviz version 2.40.1 (20161225.0304)
 -->
<!-- Title: CWallet::LoadKey Pages: 1 -->
<svg width="1273pt" height="151pt"
 viewBox="0.00 0.00 1273.00 151.00" xmlns="http://www.w3.org/2000/svg" xmlns:xlink="http://www.w3.org/1999/xlink">
<g id="graph0" class="graph" transform="scale(1 1) rotate(0) translate(4 147)">
<title>CWallet::LoadKey</title>
<polygon fill="#ffffff" stroke="transparent" points="-4,4 -4,-147 1269,-147 1269,4 -4,4"/>
<!-- Node175 -->
<g id="node1" class="node">
<title>Node175</title>
<polygon fill="#bfbfbf" stroke="#000000" points="0,-47.5 0,-66.5 96,-66.5 96,-47.5 0,-47.5"/>
<text text-anchor="middle" x="48" y="-54.5" font-family="Helvetica,sans-Serif" font-size="10.00" fill="#000000">CWallet::LoadKey</text>
</g>
<!-- Node176 -->
<g id="node2" class="node">
<title>Node176</title>
<g id="a_node2"><a xlink:href="class_c_crypto_key_store.html#a4a2d6d44d1c5e844cf0166d286f5eb18" target="_top" xlink:title="Add a key to the store. ">
<polygon fill="#ffffff" stroke="#000000" points="132,-47.5 132,-66.5 301,-66.5 301,-47.5 132,-47.5"/>
<text text-anchor="middle" x="216.5" y="-54.5" font-family="Helvetica,sans-Serif" font-size="10.00" fill="#000000">CCryptoKeyStore::AddKeyPubKey</text>
</a>
</g>
</g>
<!-- Node175&#45;&gt;Node176 -->
<g id="edge1" class="edge">
<title>Node175&#45;&gt;Node176</title>
<path fill="none" stroke="#191970" d="M96.2853,-57C104.4109,-57 113.086,-57 121.9148,-57"/>
<polygon fill="#191970" stroke="#191970" points="121.927,-60.5001 131.927,-57 121.927,-53.5001 121.927,-60.5001"/>
</g>
<!-- Node177 -->
<g id="node3" class="node">
<title>Node177</title>
<g id="a_node3"><a xlink:href="class_c_basic_key_store.html#a62dbf1659066ca8d3da145843ba44815" target="_top" xlink:title="Add a key to the store. ">
<polygon fill="#ffffff" stroke="#000000" points="337,-85.5 337,-104.5 501,-104.5 501,-85.5 337,-85.5"/>
<text text-anchor="middle" x="419" y="-92.5" font-family="Helvetica,sans-Serif" font-size="10.00" fill="#000000">CBasicKeyStore::AddKeyPubKey</text>
</a>
</g>
</g>
<!-- Node176&#45;&gt;Node177 -->
<g id="edge2" class="edge">
<title>Node176&#45;&gt;Node177</title>
<path fill="none" stroke="#191970" d="M267.3379,-66.54C294.9005,-71.7122 329.1547,-78.1401 358.1314,-83.5778"/>
<polygon fill="#191970" stroke="#191970" points="357.6672,-87.0516 368.1412,-85.4561 358.9583,-80.1717 357.6672,-87.0516"/>
</g>
<!-- Node191 -->
<g id="node17" class="node">
<title>Node191</title>
<g id="a_node17"><a xlink:href="class_c_key.html#ab8dee0ad9d933304a22284ee40040847" target="_top" xlink:title="CKey::begin">
<polygon fill="#ffffff" stroke="#000000" points="383.5,-47.5 383.5,-66.5 454.5,-66.5 454.5,-47.5 383.5,-47.5"/>
<text text-anchor="middle" x="419" y="-54.5" font-family="Helvetica,sans-Serif" font-size="10.00" fill="#000000">CKey::begin</text>
</a>
</g>
</g>
<!-- Node176&#45;&gt;Node191 -->
<g id="edge17" class="edge">
<title>Node176&#45;&gt;Node191</title>
<path fill="none" stroke="#191970" d="M301.2049,-57C325.8866,-57 351.9165,-57 373.2123,-57"/>
<polygon fill="#191970" stroke="#191970" points="373.2596,-60.5001 383.2596,-57 373.2595,-53.5001 373.2596,-60.5001"/>
</g>
<!-- Node192 -->
<g id="node18" class="node">
<title>Node192</title>
<g id="a_node18"><a xlink:href="class_c_key.html#a41c700c4a732672e4b7cc60d811dbf41" target="_top" xlink:title="CKey::end">
<polygon fill="#ffffff" stroke="#000000" points="387.5,-9.5 387.5,-28.5 450.5,-28.5 450.5,-9.5 387.5,-9.5"/>
<text text-anchor="middle" x="419" y="-16.5" font-family="Helvetica,sans-Serif" font-size="10.00" fill="#000000">CKey::end</text>
</a>
</g>
</g>
<!-- Node176&#45;&gt;Node192 -->
<g id="edge18" class="edge">
<title>Node176&#45;&gt;Node192</title>
<path fill="none" stroke="#191970" d="M267.3379,-47.46C301.3785,-41.0722 345.6256,-32.769 377.5325,-26.7815"/>
<polygon fill="#191970" stroke="#191970" points="378.2468,-30.2087 387.4297,-24.9243 376.9557,-23.3288 378.2468,-30.2087"/>
</g>
<!-- Node178 -->
<g id="node4" class="node">
<title>Node178</title>
<g id="a_node4"><a xlink:href="class_c_pub_key.html#a2675f7e6f72eff68e7a5227289feb021" target="_top" xlink:title="Get the KeyID of this public key (hash of its serialization) ">
<polygon fill="#ffffff" stroke="#000000" points="537,-85.5 537,-104.5 628,-104.5 628,-85.5 537,-85.5"/>
<text text-anchor="middle" x="582.5" y="-92.5" font-family="Helvetica,sans-Serif" font-size="10.00" fill="#000000">CPubKey::GetID</text>
</a>
</g>
</g>
<!-- Node177&#45;&gt;Node178 -->
<g id="edge3" class="edge">
<title>Node177&#45;&gt;Node178</title>
<path fill="none" stroke="#191970" d="M501.229,-95C509.8396,-95 518.4432,-95 526.6575,-95"/>
<polygon fill="#191970" stroke="#191970" points="526.8254,-98.5001 536.8254,-95 526.8253,-91.5001 526.8254,-98.5001"/>
</g>
<!-- Node179 -->
<g id="node5" class="node">
<title>Node179</title>
<g id="a_node5"><a xlink:href="class_c_key_i_d.html#a01dbd3c37820a2ffe89d106c6a7cf53d" target="_top" xlink:title="CKeyID::CKeyID">
<polygon fill="#ffffff" stroke="#000000" points="677,-123.5 677,-142.5 770,-142.5 770,-123.5 677,-123.5"/>
<text text-anchor="middle" x="723.5" y="-130.5" font-family="Helvetica,sans-Serif" font-size="10.00" fill="#000000">CKeyID::CKeyID</text>
</a>
</g>
</g>
<!-- Node178&#45;&gt;Node179 -->
<g id="edge4" class="edge">
<title>Node178&#45;&gt;Node179</title>
<path fill="none" stroke="#191970" d="M618.0803,-104.589C636.282,-109.4944 658.6384,-115.5196 678.0723,-120.7571"/>
<polygon fill="#191970" stroke="#191970" points="677.3648,-124.1912 687.9311,-123.4141 679.1864,-117.4324 677.3648,-124.1912"/>
</g>
<!-- Node180 -->
<g id="node6" class="node">
<title>Node180</title>
<g id="a_node6"><a xlink:href="hash_8h.html#a4490f70ddae16e9e48460a0416a48a6b" target="_top" xlink:title="Compute the 160&#45;bit hash an object. ">
<polygon fill="#ffffff" stroke="#000000" points="695.5,-85.5 695.5,-104.5 751.5,-104.5 751.5,-85.5 695.5,-85.5"/>
<text text-anchor="middle" x="723.5" y="-92.5" font-family="Helvetica,sans-Serif" font-size="10.00" fill="#000000">Hash160</text>
</a>
</g>
</g>
<!-- Node178&#45;&gt;Node180 -->
<g id="edge5" class="edge">
<title>Node178&#45;&gt;Node180</title>
<path fill="none" stroke="#191970" d="M628.2787,-95C646.5247,-95 667.3003,-95 684.7797,-95"/>
<polygon fill="#191970" stroke="#191970" points="685.1852,-98.5001 695.1851,-95 685.1851,-91.5001 685.1852,-98.5001"/>
</g>
<!-- Node190 -->
<g id="node16" class="node">
<title>Node190</title>
<g id="a_node16"><a xlink:href="classbase__blob.html#a00e7426a5d1ada51c635debf85f5a810" target="_top" xlink:title="base_blob\&lt; 160 \&gt;::size">
<polygon fill="#ffffff" stroke="#000000" points="664,-47.5 664,-66.5 783,-66.5 783,-47.5 664,-47.5"/>
<text text-anchor="middle" x="723.5" y="-54.5" font-family="Helvetica,sans-Serif" font-size="10.00" fill="#000000">base_blob&lt; 160 &gt;::size</text>
</a>
</g>
</g>
<!-- Node178&#45;&gt;Node190 -->
<g id="edge16" class="edge">
<title>Node178&#45;&gt;Node190</title>
<path fill="none" stroke="#191970" d="M618.0803,-85.411C636.282,-80.5056 658.6384,-74.4804 678.0723,-69.2429"/>
<polygon fill="#191970" stroke="#191970" points="679.1864,-72.5676 687.9311,-66.5859 677.3648,-65.8088 679.1864,-72.5676"/>
</g>
<!-- Node181 -->
<g id="node7" class="node">
<title>Node181</title>
<g id="a_node7"><a xlink:href="class_c_hash160.html#af56cdd9443013eb68b246aa8450217f2" target="_top" xlink:title="CHash160::Write">
<polygon fill="#ffffff" stroke="#000000" points="824.5,-104.5 824.5,-123.5 916.5,-123.5 916.5,-104.5 824.5,-104.5"/>
<text text-anchor="middle" x="870.5" y="-111.5" font-family="Helvetica,sans-Serif" font-size="10.00" fill="#000000">CHash160::Write</text>
</a>
</g>
</g>
<!-- Node180&#45;&gt;Node181 -->
<g id="edge6" class="edge">
<title>Node180&#45;&gt;Node181</title>
<path fill="none" stroke="#191970" d="M751.8431,-98.6634C769.561,-100.9535 792.9949,-103.9823 814.3547,-106.7431"/>
<polygon fill="#191970" stroke="#191970" points="813.9499,-110.2198 824.316,-108.0306 814.8472,-103.2776 813.9499,-110.2198"/>
</g>
<!-- Node186 -->
<g id="node12" class="node">
<title>Node186</title>
<g id="a_node12"><a xlink:href="class_c_hash160.html#a9bb08e1772002ae1a5d85017ba7952ee" target="_top" xlink:title="CHash160::Finalize">
<polygon fill="#ffffff" stroke="#000000" points="819,-47.5 819,-66.5 922,-66.5 922,-47.5 819,-47.5"/>
<text text-anchor="middle" x="870.5" y="-54.5" font-family="Helvetica,sans-Serif" font-size="10.00" fill="#000000">CHash160::Finalize</text>
</a>
</g>
</g>
<!-- Node180&#45;&gt;Node186 -->
<g id="edge11" class="edge">
<title>Node180&#45;&gt;Node186</title>
<path fill="none" stroke="#191970" d="M751.8431,-87.6732C772.2106,-82.4081 800.1314,-75.1905 823.7721,-69.0793"/>
<polygon fill="#191970" stroke="#191970" points="824.8015,-72.4283 833.6073,-66.5369 823.0495,-65.6511 824.8015,-72.4283"/>
</g>
<!-- Node182 -->
<g id="node8" class="node">
<title>Node182</title>
<g id="a_node8"><a xlink:href="class_c_s_h_a256.html#a9d7de520a562655da85349372820c883" target="_top" xlink:title="CSHA256::Write">
<polygon fill="#ffffff" stroke="#000000" points="972.5,-114.5 972.5,-133.5 1062.5,-133.5 1062.5,-114.5 972.5,-114.5"/>
<text text-anchor="middle" x="1017.5" y="-121.5" font-family="Helvetica,sans-Serif" font-size="10.00" fill="#000000">CSHA256::Write</text>
</a>
</g>
</g>
<!-- Node181&#45;&gt;Node182 -->
<g id="edge7" class="edge">
<title>Node181&#45;&gt;Node182</title>
<path fill="none" stroke="#191970" d="M916.6084,-117.1366C931.0434,-118.1186 947.1233,-119.2125 962.1281,-120.2332"/>
<polygon fill="#191970" stroke="#191970" points="962.0963,-123.739 972.3108,-120.9259 962.5715,-116.7552 962.0963,-123.739"/>
</g>
<!-- Node183 -->
<g id="node9" class="node">
<title>Node183</title>
<g id="a_node9"><a xlink:href="glibc__compat_8cpp.html#a0f46826ab0466591e136db24394923cf" target="_top" xlink:title="memcpy">
<polygon fill="#ffffff" stroke="#000000" points="1113,-76.5 1113,-95.5 1167,-95.5 1167,-76.5 1113,-76.5"/>
<text text-anchor="middle" x="1140" y="-83.5" font-family="Helvetica,sans-Serif" font-size="10.00" fill="#000000">memcpy</text>
</a>
</g>
</g>
<!-- Node182&#45;&gt;Node183 -->
<g id="edge8" class="edge">
<title>Node182&#45;&gt;Node183</title>
<path fill="none" stroke="#191970" d="M1048.4119,-114.411C1065.0018,-109.2647 1085.5644,-102.8861 1103.0003,-97.4775"/>
<polygon fill="#191970" stroke="#191970" points="1104.3373,-100.7273 1112.8513,-94.4216 1102.2633,-94.0416 1104.3373,-100.7273"/>
</g>
<!-- Node184 -->
<g id="node10" class="node">
<title>Node184</title>
<g id="a_node10"><a xlink:href="glibc__compat_8cpp.html#a9778d49e9029dd75bc53ecbbf9f5e9a1" target="_top" xlink:title="memmove">
<polygon fill="#ffffff" stroke="#000000" points="1203,-95.5 1203,-114.5 1265,-114.5 1265,-95.5 1203,-95.5"/>
<text text-anchor="middle" x="1234" y="-102.5" font-family="Helvetica,sans-Serif" font-size="10.00" fill="#000000">memmove</text>
</a>
</g>
</g>
<!-- Node183&#45;&gt;Node184 -->
<g id="edge9" class="edge">
<title>Node183&#45;&gt;Node184</title>
<path fill="none" stroke="#191970" d="M1167.1887,-91.4956C1175.217,-93.1183 1184.1892,-94.9319 1192.8881,-96.6901"/>
<polygon fill="#191970" stroke="#191970" points="1192.4061,-100.1634 1202.9013,-98.7141 1193.793,-93.3022 1192.4061,-100.1634"/>
</g>
<!-- Node185 -->
<g id="node11" class="node">
<title>Node185</title>
<g id="a_node11"><a xlink:href="glibc__compat_8cpp.html#a424ac71631da5ada2976630ff67051d1" target="_top" xlink:title="__chk_fail">
<polygon fill="#ffffff" stroke="#000000" points="1203.5,-57.5 1203.5,-76.5 1264.5,-76.5 1264.5,-57.5 1203.5,-57.5"/>
<text text-anchor="middle" x="1234" y="-64.5" font-family="Helvetica,sans-Serif" font-size="10.00" fill="#000000">__chk_fail</text>
</a>
</g>
</g>
<!-- Node183&#45;&gt;Node185 -->
<g id="edge10" class="edge">
<title>Node183&#45;&gt;Node185</title>
<path fill="none" stroke="#191970" d="M1167.1887,-80.5044C1175.383,-78.8481 1184.5608,-76.993 1193.4275,-75.2008"/>
<polygon fill="#191970" stroke="#191970" points="1194.1288,-78.6299 1203.2371,-73.218 1192.7419,-71.7687 1194.1288,-78.6299"/>
</g>
<!-- Node187 -->
<g id="node13" class="node">
<title>Node187</title>
<g id="a_node13"><a xlink:href="class_c_s_h_a256.html#a4259230be0caefa590bc324fc12b9b90" target="_top" xlink:title="CSHA256::Finalize">
<polygon fill="#ffffff" stroke="#000000" points="967,-76.5 967,-95.5 1068,-95.5 1068,-76.5 967,-76.5"/>
<text text-anchor="middle" x="1017.5" y="-83.5" font-family="Helvetica,sans-Serif" font-size="10.00" fill="#000000">CSHA256::Finalize</text>
</a>
</g>
</g>
<!-- Node186&#45;&gt;Node187 -->
<g id="edge12" class="edge">
<title>Node186&#45;&gt;Node187</title>
<path fill="none" stroke="#191970" d="M919.0407,-66.5761C931.8359,-69.1003 945.7762,-71.8504 959.0346,-74.466"/>
<polygon fill="#191970" stroke="#191970" points="958.5219,-77.9323 969.0103,-76.434 959.8768,-71.0646 958.5219,-77.9323"/>
</g>
<!-- Node188 -->
<g id="node14" class="node">
<title>Node188</title>
<g id="a_node14"><a xlink:href="class_c_r_i_p_e_m_d160.html#a221143b9d94af623d07c4f4ba1bf6007" target="_top" xlink:title="CRIPEMD160::Write">
<polygon fill="#ffffff" stroke="#000000" points="963,-38.5 963,-57.5 1072,-57.5 1072,-38.5 963,-38.5"/>
<text text-anchor="middle" x="1017.5" y="-45.5" font-family="Helvetica,sans-Serif" font-size="10.00" fill="#000000">CRIPEMD160::Write</text>
</a>
</g>
</g>
<!-- Node186&#45;&gt;Node188 -->
<g id="edge13" class="edge">
<title>Node186&#45;&gt;Node188</title>
<path fill="none" stroke="#191970" d="M922.3267,-53.8269C932.184,-53.2234 942.6124,-52.585 952.8112,-51.9605"/>
<polygon fill="#191970" stroke="#191970" points="953.1364,-55.4473 962.9038,-51.3426 952.7086,-48.4604 953.1364,-55.4473"/>
</g>
<!-- Node189 -->
<g id="node15" class="node">
<title>Node189</title>
<g id="a_node15"><a xlink:href="class_c_r_i_p_e_m_d160.html#a2a11566fbf9d1339b819833313fc4e51" target="_top" xlink:title="CRIPEMD160::Finalize">
<polygon fill="#ffffff" stroke="#000000" points="958,-.5 958,-19.5 1077,-19.5 1077,-.5 958,-.5"/>
<text text-anchor="middle" x="1017.5" y="-7.5" font-family="Helvetica,sans-Serif" font-size="10.00" fill="#000000">CRIPEMD160::Finalize</text>
</a>
</g>
</g>
<!-- Node186&#45;&gt;Node189 -->
<g id="edge15" class="edge">
<title>Node186&#45;&gt;Node189</title>
<path fill="none" stroke="#191970" d="M900.4663,-47.4058C917.3617,-41.9977 938.8575,-35.1192 958,-29 964.4539,-26.9369 971.302,-24.749 977.9673,-22.6202"/>
<polygon fill="#191970" stroke="#191970" points="979.0736,-25.9411 987.5349,-19.5648 976.9441,-19.2729 979.0736,-25.9411"/>
</g>
<!-- Node188&#45;&gt;Node183 -->
<g id="edge14" class="edge">
<title>Node188&#45;&gt;Node183</title>
<path fill="none" stroke="#191970" d="M1048.4119,-57.589C1065.0018,-62.7353 1085.5644,-69.1139 1103.0003,-74.5225"/>
<polygon fill="#191970" stroke="#191970" points="1102.2633,-77.9584 1112.8513,-77.5784 1104.3373,-71.2727 1102.2633,-77.9584"/>
</g>
<!-- Node193 -->
<g id="node19" class="node">
<title>Node193</title>
<g id="a_node19"><a xlink:href="class_c_key.html#a468a9a8cd148ab4a43e7d76bbdc78abe" target="_top" xlink:title="Simple read&#45;only vector&#45;like interface. ">
<polygon fill="#ffffff" stroke="#000000" points="550,-9.5 550,-28.5 615,-28.5 615,-9.5 550,-9.5"/>
<text text-anchor="middle" x="582.5" y="-16.5" font-family="Helvetica,sans-Serif" font-size="10.00" fill="#000000">CKey::size</text>
</a>
</g>
</g>
<!-- Node192&#45;&gt;Node193 -->
<g id="edge19" class="edge">
<title>Node192&#45;&gt;Node193</title>
<path fill="none" stroke="#191970" d="M450.5244,-19C475.8677,-19 511.7254,-19 539.6693,-19"/>
<polygon fill="#191970" stroke="#191970" points="539.9533,-22.5001 549.9532,-19 539.9532,-15.5001 539.9533,-22.5001"/>
</g>
</g>
</svg>
