<?xml version="1.0" encoding="UTF-8" standalone="no"?>
<!DOCTYPE svg PUBLIC "-//W3C//DTD SVG 1.1//EN"
 "http://www.w3.org/Graphics/SVG/1.1/DTD/svg11.dtd">
<!-- Generated by graphviz version 2.40.1 (20161225.0304)
 -->
<!-- Title: RavenGUI::createActions Pages: 1 -->
<svg width="1126pt" height="736pt"
 viewBox="0.00 0.00 1126.00 735.50" xmlns="http://www.w3.org/2000/svg" xmlns:xlink="http://www.w3.org/1999/xlink">
<g id="graph0" class="graph" transform="scale(1 1) rotate(0) translate(4 731.5)">
<title>RavenGUI::createActions</title>
<polygon fill="#ffffff" stroke="transparent" points="-4,4 -4,-731.5 1122,-731.5 1122,4 -4,4"/>
<!-- Node112 -->
<g id="node1" class="node">
<title>Node112</title>
<polygon fill="#bfbfbf" stroke="#000000" points="0,-487.5 0,-506.5 129,-506.5 129,-487.5 0,-487.5"/>
<text text-anchor="middle" x="64.5" y="-494.5" font-family="Helvetica,sans-Serif" font-size="10.00" fill="#000000">RavenGUI::createActions</text>
</g>
<!-- Node113 -->
<g id="node2" class="node">
<title>Node113</title>
<g id="a_node2"><a xlink:href="class_platform_style.html#ad69b335b46b2f3d8e50d4f199846114a" target="_top" xlink:title="Set icon with two states on and off. ">
<polygon fill="#ffffff" stroke="#000000" points="177,-697 177,-727 309,-727 309,-697 177,-697"/>
<text text-anchor="start" x="185" y="-715" font-family="Helvetica,sans-Serif" font-size="10.00" fill="#000000">PlatformStyle::SingleColor</text>
<text text-anchor="middle" x="243" y="-704" font-family="Helvetica,sans-Serif" font-size="10.00" fill="#000000">IconOnOff</text>
</a>
</g>
</g>
<!-- Node112&#45;&gt;Node113 -->
<g id="edge1" class="edge">
<title>Node112&#45;&gt;Node113</title>
<path fill="none" stroke="#191970" d="M66.7841,-506.5239C74.6833,-537.405 103.7788,-635.725 165,-687 167.0032,-688.6777 169.1207,-690.2434 171.3257,-691.7045"/>
<polygon fill="#191970" stroke="#191970" points="169.7987,-694.8645 180.2083,-696.8372 173.301,-688.8035 169.7987,-694.8645"/>
</g>
<!-- Node114 -->
<g id="node3" class="node">
<title>Node114</title>
<g id="a_node3"><a xlink:href="class_platform_style.html#ac3c91893b60a84a98155b7b9603918bd" target="_top" xlink:title="Colorize an icon (given filename) with the text color. ">
<polygon fill="#ffffff" stroke="#000000" points="171.5,-658.5 171.5,-677.5 314.5,-677.5 314.5,-658.5 171.5,-658.5"/>
<text text-anchor="middle" x="243" y="-665.5" font-family="Helvetica,sans-Serif" font-size="10.00" fill="#000000">PlatformStyle::TextColorIcon</text>
</a>
</g>
</g>
<!-- Node112&#45;&gt;Node114 -->
<g id="edge2" class="edge">
<title>Node112&#45;&gt;Node114</title>
<path fill="none" stroke="#191970" d="M67.9493,-506.6437C78.1542,-533.7261 110.9114,-610.9732 165,-649 167.7364,-650.9238 170.6453,-652.654 173.6703,-654.2098"/>
<polygon fill="#191970" stroke="#191970" points="172.4775,-657.5097 183.0371,-658.3736 175.321,-651.1132 172.4775,-657.5097"/>
</g>
<!-- Node116 -->
<g id="node5" class="node">
<title>Node116</title>
<g id="a_node5"><a xlink:href="class_platform_style.html#a3f4ff8b7a2054cbd4283e67208523035" target="_top" xlink:title="Colorize an icon (given filename) with the icon color. ">
<polygon fill="#ffffff" stroke="#000000" points="167.5,-620.5 167.5,-639.5 318.5,-639.5 318.5,-620.5 167.5,-620.5"/>
<text text-anchor="middle" x="243" y="-627.5" font-family="Helvetica,sans-Serif" font-size="10.00" fill="#000000">PlatformStyle::SingleColorIcon</text>
</a>
</g>
</g>
<!-- Node112&#45;&gt;Node116 -->
<g id="edge4" class="edge">
<title>Node112&#45;&gt;Node116</title>
<path fill="none" stroke="#191970" d="M70.7829,-506.7439C84.9728,-527.9761 121.6625,-578.6951 165,-606 171.9882,-610.4029 179.8386,-614.0452 187.796,-617.0448"/>
<polygon fill="#191970" stroke="#191970" points="186.91,-620.4415 197.5047,-620.393 189.1922,-613.8239 186.91,-620.4415"/>
</g>
<!-- Node118 -->
<g id="node7" class="node">
<title>Node118</title>
<g id="a_node7"><a xlink:href="class_raven_g_u_i.html#af33662f5a5604298177f56a15160cae3" target="_top" xlink:title="Show window if hidden, unminimize when minimized, rise when obscured or show if hidden and fToggleHid...">
<polygon fill="#ffffff" stroke="#000000" points="362.5,-582.5 362.5,-601.5 536.5,-601.5 536.5,-582.5 362.5,-582.5"/>
<text text-anchor="middle" x="449.5" y="-589.5" font-family="Helvetica,sans-Serif" font-size="10.00" fill="#000000">RavenGUI::showNormalIfMinimized</text>
</a>
</g>
</g>
<!-- Node112&#45;&gt;Node118 -->
<g id="edge6" class="edge">
<title>Node112&#45;&gt;Node118</title>
<path fill="none" stroke="#191970" d="M73.3306,-506.653C89.5613,-523.6451 126.0589,-558.4722 165,-573 224.4899,-595.1939 295.7876,-599.9175 352.1262,-599.1058"/>
<polygon fill="#191970" stroke="#191970" points="352.5398,-602.5981 362.4655,-598.8928 352.3955,-595.5996 352.5398,-602.5981"/>
</g>
<!-- Node121 -->
<g id="node10" class="node">
<title>Node121</title>
<g id="a_node10"><a xlink:href="class_raven_g_u_i.html#af516a00949b2606ef29f0e6f2a7c2404" target="_top" xlink:title="Show about dialog. ">
<polygon fill="#ffffff" stroke="#000000" points="180,-506.5 180,-525.5 306,-525.5 306,-506.5 180,-506.5"/>
<text text-anchor="middle" x="243" y="-513.5" font-family="Helvetica,sans-Serif" font-size="10.00" fill="#000000">RavenGUI::aboutClicked</text>
</a>
</g>
</g>
<!-- Node112&#45;&gt;Node121 -->
<g id="edge9" class="edge">
<title>Node112&#45;&gt;Node121</title>
<path fill="none" stroke="#191970" d="M129.195,-503.8863C142.3135,-505.2827 156.1996,-506.7607 169.5938,-508.1865"/>
<polygon fill="#191970" stroke="#191970" points="169.4054,-511.6861 179.7197,-509.2643 170.1463,-504.7254 169.4054,-511.6861"/>
</g>
<!-- Node122 -->
<g id="node11" class="node">
<title>Node122</title>
<g id="a_node11"><a xlink:href="class_raven_g_u_i.html#a18e94f625f9327f3718c02f3a2d4d21c" target="_top" xlink:title="Show configuration dialog. ">
<polygon fill="#ffffff" stroke="#000000" points="176,-468.5 176,-487.5 310,-487.5 310,-468.5 176,-468.5"/>
<text text-anchor="middle" x="243" y="-475.5" font-family="Helvetica,sans-Serif" font-size="10.00" fill="#000000">RavenGUI::optionsClicked</text>
</a>
</g>
</g>
<!-- Node112&#45;&gt;Node122 -->
<g id="edge10" class="edge">
<title>Node112&#45;&gt;Node122</title>
<path fill="none" stroke="#191970" d="M129.195,-490.1137C141.043,-488.8526 153.517,-487.5248 165.6894,-486.2291"/>
<polygon fill="#191970" stroke="#191970" points="166.2495,-489.6894 175.8228,-485.1505 165.5085,-482.7287 166.2495,-489.6894"/>
</g>
<!-- Node138 -->
<g id="node24" class="node">
<title>Node138</title>
<g id="a_node24"><a xlink:href="class_raven_g_u_i.html#af2d98960f72ef6a38c95e12b91f3e970" target="_top" xlink:title="Simply calls showNormalIfMinimized(true) for use in SLOT() macro. ">
<polygon fill="#ffffff" stroke="#000000" points="180,-544.5 180,-563.5 306,-563.5 306,-544.5 180,-544.5"/>
<text text-anchor="middle" x="243" y="-551.5" font-family="Helvetica,sans-Serif" font-size="10.00" fill="#000000">RavenGUI::toggleHidden</text>
</a>
</g>
</g>
<!-- Node112&#45;&gt;Node138 -->
<g id="edge26" class="edge">
<title>Node112&#45;&gt;Node138</title>
<path fill="none" stroke="#191970" d="M87.3725,-506.5674C107.5631,-514.7909 137.9148,-526.6152 165,-535 173.0385,-537.4885 181.6238,-539.86 190.0508,-542.0313"/>
<polygon fill="#191970" stroke="#191970" points="189.2775,-545.4457 199.8286,-544.4832 190.9802,-538.6559 189.2775,-545.4457"/>
</g>
<!-- Node139 -->
<g id="node25" class="node">
<title>Node139</title>
<g id="a_node25"><a xlink:href="class_raven_g_u_i.html#ae7206842e6ed9672aad4da7dc841f5f1" target="_top" xlink:title="Show help message dialog. ">
<polygon fill="#ffffff" stroke="#000000" points="167,-311 167,-341 319,-341 319,-311 167,-311"/>
<text text-anchor="start" x="175" y="-329" font-family="Helvetica,sans-Serif" font-size="10.00" fill="#000000">RavenGUI::showHelpMessage</text>
<text text-anchor="middle" x="243" y="-318" font-family="Helvetica,sans-Serif" font-size="10.00" fill="#000000">Clicked</text>
</a>
</g>
</g>
<!-- Node112&#45;&gt;Node139 -->
<g id="edge28" class="edge">
<title>Node112&#45;&gt;Node139</title>
<path fill="none" stroke="#191970" d="M74.6084,-487.3163C102.4033,-460.6893 180.5173,-385.8574 219.8124,-348.2133"/>
<polygon fill="#191970" stroke="#191970" points="222.3275,-350.6508 227.1275,-341.2056 217.4851,-345.596 222.3275,-350.6508"/>
</g>
<!-- Node158 -->
<g id="node44" class="node">
<title>Node158</title>
<g id="a_node44"><a xlink:href="class_raven_g_u_i.html#aa0af55f9858339e2c34cec6e832624a9" target="_top" xlink:title="Show debug window. ">
<polygon fill="#ffffff" stroke="#000000" points="371.5,-76.5 371.5,-95.5 527.5,-95.5 527.5,-76.5 371.5,-76.5"/>
<text text-anchor="middle" x="449.5" y="-83.5" font-family="Helvetica,sans-Serif" font-size="10.00" fill="#000000">RavenGUI::showDebugWindow</text>
</a>
</g>
</g>
<!-- Node112&#45;&gt;Node158 -->
<g id="edge49" class="edge">
<title>Node112&#45;&gt;Node158</title>
<path fill="none" stroke="#191970" d="M68.3706,-487.0868C80.2146,-457.395 118.0322,-367.207 165,-302 167.233,-298.8998 353.6478,-106.8331 357,-105 361.1849,-102.7115 365.6132,-100.6978 370.1757,-98.9259"/>
<polygon fill="#191970" stroke="#191970" points="371.3972,-102.2069 379.6941,-95.6181 369.0993,-95.5948 371.3972,-102.2069"/>
</g>
<!-- Node159 -->
<g id="node45" class="node">
<title>Node159</title>
<g id="a_node45"><a xlink:href="class_raven_g_u_i.html#a25c1bfd7b105a3b12c5ca6f977fdb895" target="_top" xlink:title="Show debug window and set focus to the wallet repair tab. ">
<polygon fill="#ffffff" stroke="#000000" points="168.5,-112.5 168.5,-131.5 317.5,-131.5 317.5,-112.5 168.5,-112.5"/>
<text text-anchor="middle" x="243" y="-119.5" font-family="Helvetica,sans-Serif" font-size="10.00" fill="#000000">RavenGUI::showWalletRepair</text>
</a>
</g>
</g>
<!-- Node112&#45;&gt;Node159 -->
<g id="edge50" class="edge">
<title>Node112&#45;&gt;Node159</title>
<path fill="none" stroke="#191970" d="M66.4924,-487.299C74.497,-449.7019 106.7227,-310.7439 165,-211 181.4483,-182.848 207.4778,-155.3981 224.8888,-138.5981"/>
<polygon fill="#191970" stroke="#191970" points="227.3586,-141.0797 232.2167,-131.6643 222.5474,-135.9951 227.3586,-141.0797"/>
</g>
<!-- Node161 -->
<g id="node47" class="node">
<title>Node161</title>
<g id="a_node47"><a xlink:href="class_raven_g_u_i.html#aee6029ecc46cd969e016af6cbe8f02c9" target="_top" xlink:title="Get restart command&#45;line parameters and request restart. ">
<polygon fill="#ffffff" stroke="#000000" points="178,-8.5 178,-27.5 308,-27.5 308,-8.5 178,-8.5"/>
<text text-anchor="middle" x="243" y="-15.5" font-family="Helvetica,sans-Serif" font-size="10.00" fill="#000000">RavenGUI::handleRestart</text>
</a>
</g>
</g>
<!-- Node112&#45;&gt;Node161 -->
<g id="edge53" class="edge">
<title>Node112&#45;&gt;Node161</title>
<path fill="none" stroke="#191970" d="M65.548,-487.176C71.9737,-428.5266 107.6723,-124.7853 165,-54 172.9992,-44.1231 184.3161,-36.8326 195.8556,-31.5012"/>
<polygon fill="#191970" stroke="#191970" points="197.2247,-34.7224 205.0985,-27.6335 194.5225,-28.265 197.2247,-34.7224"/>
</g>
<!-- Node164 -->
<g id="node50" class="node">
<title>Node164</title>
<g id="a_node50"><a xlink:href="class_raven_g_u_i.html#a29f511a021f3fca1940d3c559b686c9f" target="_top" xlink:title="Show debug window and set focus to the console. ">
<polygon fill="#ffffff" stroke="#000000" points="165,-63 165,-93 321,-93 321,-63 165,-63"/>
<text text-anchor="start" x="173" y="-81" font-family="Helvetica,sans-Serif" font-size="10.00" fill="#000000">RavenGUI::showDebugWindow</text>
<text text-anchor="middle" x="243" y="-70" font-family="Helvetica,sans-Serif" font-size="10.00" fill="#000000">ActivateConsole</text>
</a>
</g>
</g>
<!-- Node112&#45;&gt;Node164 -->
<g id="edge56" class="edge">
<title>Node112&#45;&gt;Node164</title>
<path fill="none" stroke="#191970" d="M65.6775,-487.4625C72.5747,-433.04 109.3557,-162.112 165,-103 166.2397,-101.6831 167.5487,-100.4353 168.9172,-99.253"/>
<polygon fill="#191970" stroke="#191970" points="171.2775,-101.8657 177.3348,-93.1731 167.1789,-96.1911 171.2775,-101.8657"/>
</g>
<!-- Node115 -->
<g id="node4" class="node">
<title>Node115</title>
<g id="a_node4"><a xlink:href="class_platform_style.html#ad9c6683d8af86105edcb53970b689afb" target="_top" xlink:title="PlatformStyle::TextColor">
<polygon fill="#ffffff" stroke="#000000" points="387,-658.5 387,-677.5 512,-677.5 512,-658.5 387,-658.5"/>
<text text-anchor="middle" x="449.5" y="-665.5" font-family="Helvetica,sans-Serif" font-size="10.00" fill="#000000">PlatformStyle::TextColor</text>
</a>
</g>
</g>
<!-- Node114&#45;&gt;Node115 -->
<g id="edge3" class="edge">
<title>Node114&#45;&gt;Node115</title>
<path fill="none" stroke="#191970" d="M314.6441,-668C334.7739,-668 356.6775,-668 376.8645,-668"/>
<polygon fill="#191970" stroke="#191970" points="376.9324,-671.5001 386.9324,-668 376.9324,-664.5001 376.9324,-671.5001"/>
</g>
<!-- Node117 -->
<g id="node6" class="node">
<title>Node117</title>
<g id="a_node6"><a xlink:href="class_platform_style.html#a76949291f8dfc8b7a34f90cf119ed8e4" target="_top" xlink:title="PlatformStyle::SingleColor">
<polygon fill="#ffffff" stroke="#000000" points="383.5,-620.5 383.5,-639.5 515.5,-639.5 515.5,-620.5 383.5,-620.5"/>
<text text-anchor="middle" x="449.5" y="-627.5" font-family="Helvetica,sans-Serif" font-size="10.00" fill="#000000">PlatformStyle::SingleColor</text>
</a>
</g>
</g>
<!-- Node116&#45;&gt;Node117 -->
<g id="edge5" class="edge">
<title>Node116&#45;&gt;Node117</title>
<path fill="none" stroke="#191970" d="M318.7204,-630C336.4254,-630 355.2954,-630 373.0327,-630"/>
<polygon fill="#191970" stroke="#191970" points="373.3278,-633.5001 383.3278,-630 373.3278,-626.5001 373.3278,-633.5001"/>
</g>
<!-- Node119 -->
<g id="node8" class="node">
<title>Node119</title>
<g id="a_node8"><a xlink:href="namespace_g_u_i_util.html#a0b7266e2b8e7de5f5fd1c7ddb9e5b637" target="_top" xlink:title="GUIUtil::isObscured">
<polygon fill="#ffffff" stroke="#000000" points="612,-634.5 612,-653.5 717,-653.5 717,-634.5 612,-634.5"/>
<text text-anchor="middle" x="664.5" y="-641.5" font-family="Helvetica,sans-Serif" font-size="10.00" fill="#000000">GUIUtil::isObscured</text>
</a>
</g>
</g>
<!-- Node118&#45;&gt;Node119 -->
<g id="edge7" class="edge">
<title>Node118&#45;&gt;Node119</title>
<path fill="none" stroke="#191970" d="M498.5875,-601.5068C512.6455,-604.3852 527.9624,-607.6707 542,-611 568.6281,-617.3153 598.265,-625.274 621.7175,-631.7932"/>
<polygon fill="#191970" stroke="#191970" points="620.79,-635.168 631.3631,-634.49 622.6749,-628.4265 620.79,-635.168"/>
</g>
<!-- Node120 -->
<g id="node9" class="node">
<title>Node120</title>
<g id="a_node9"><a xlink:href="namespace_g_u_i_util.html#ab2e7ef0aa9a1ad3f86d67a3f596b6fc4" target="_top" xlink:title="GUIUtil::checkPoint">
<polygon fill="#ffffff" stroke="#000000" points="802,-634.5 802,-653.5 906,-653.5 906,-634.5 802,-634.5"/>
<text text-anchor="middle" x="854" y="-641.5" font-family="Helvetica,sans-Serif" font-size="10.00" fill="#000000">GUIUtil::checkPoint</text>
</a>
</g>
</g>
<!-- Node119&#45;&gt;Node120 -->
<g id="edge8" class="edge">
<title>Node119&#45;&gt;Node120</title>
<path fill="none" stroke="#191970" d="M717.0347,-644C740.1327,-644 767.438,-644 791.5668,-644"/>
<polygon fill="#191970" stroke="#191970" points="791.6917,-647.5001 801.6916,-644 791.6916,-640.5001 791.6917,-647.5001"/>
</g>
<!-- Node123 -->
<g id="node12" class="node">
<title>Node123</title>
<g id="a_node12"><a xlink:href="class_client_model.html#ae8da1e2eabfbbcc49a7eed821908bdb6" target="_top" xlink:title="ClientModel::getOptionsModel">
<polygon fill="#ffffff" stroke="#000000" points="375.5,-544.5 375.5,-563.5 523.5,-563.5 523.5,-544.5 375.5,-544.5"/>
<text text-anchor="middle" x="449.5" y="-551.5" font-family="Helvetica,sans-Serif" font-size="10.00" fill="#000000">ClientModel::getOptionsModel</text>
</a>
</g>
</g>
<!-- Node122&#45;&gt;Node123 -->
<g id="edge11" class="edge">
<title>Node122&#45;&gt;Node123</title>
<path fill="none" stroke="#191970" d="M299.4832,-487.6318C306.9874,-490.0826 314.3693,-493.1534 321,-497 341.1234,-508.6741 336.6678,-523.6936 357,-535 361.1685,-537.3181 365.5843,-539.3546 370.1373,-541.1438"/>
<polygon fill="#191970" stroke="#191970" points="369.0454,-544.4698 379.6402,-544.4796 371.3639,-537.8649 369.0454,-544.4698"/>
</g>
<!-- Node124 -->
<g id="node13" class="node">
<title>Node124</title>
<g id="a_node13"><a xlink:href="class_options_dialog.html#a11e902a52cb7472497d14e70cd9399d9" target="_top" xlink:title="OptionsDialog::setModel">
<polygon fill="#ffffff" stroke="#000000" points="387.5,-506.5 387.5,-525.5 511.5,-525.5 511.5,-506.5 387.5,-506.5"/>
<text text-anchor="middle" x="449.5" y="-513.5" font-family="Helvetica,sans-Serif" font-size="10.00" fill="#000000">OptionsDialog::setModel</text>
</a>
</g>
</g>
<!-- Node122&#45;&gt;Node124 -->
<g id="edge12" class="edge">
<title>Node122&#45;&gt;Node124</title>
<path fill="none" stroke="#191970" d="M294.8421,-487.54C322.9491,-492.7122 357.8799,-499.1401 387.4291,-504.5778"/>
<polygon fill="#191970" stroke="#191970" points="387.1682,-508.0884 397.6365,-506.4561 388.4351,-501.204 387.1682,-508.0884"/>
</g>
<!-- Node125 -->
<g id="node14" class="node">
<title>Node125</title>
<g id="a_node14"><a xlink:href="class_options_model.html#a1e3f972be7ce33bc6ea3cab32d436a83" target="_top" xlink:title="OptionsModel::isRestartRequired">
<polygon fill="#ffffff" stroke="#000000" points="957,-552.5 957,-571.5 1118,-571.5 1118,-552.5 957,-552.5"/>
<text text-anchor="middle" x="1037.5" y="-559.5" font-family="Helvetica,sans-Serif" font-size="10.00" fill="#000000">OptionsModel::isRestartRequired</text>
</a>
</g>
</g>
<!-- Node124&#45;&gt;Node125 -->
<g id="edge13" class="edge">
<title>Node124&#45;&gt;Node125</title>
<path fill="none" stroke="#191970" d="M511.8075,-522.0049C522.4517,-524.8826 532.9726,-529.0348 542,-535 565.4517,-550.4965 553.1015,-573.9544 578,-587 720.6849,-661.7602 923.6482,-603.2496 1003.4288,-575.0222"/>
<polygon fill="#191970" stroke="#191970" points="1004.7556,-578.2644 1012.975,-571.5793 1002.3807,-571.6795 1004.7556,-578.2644"/>
</g>
<!-- Node126 -->
<g id="node15" class="node">
<title>Node126</title>
<g id="a_node15"><a xlink:href="class_options_dialog.html#a866e74896ea7dacdc99b5e0af4fd5b38" target="_top" xlink:title="OptionsDialog::showRestart\lWarning">
<polygon fill="#ffffff" stroke="#000000" points="594.5,-547 594.5,-577 734.5,-577 734.5,-547 594.5,-547"/>
<text text-anchor="start" x="602.5" y="-565" font-family="Helvetica,sans-Serif" font-size="10.00" fill="#000000">OptionsDialog::showRestart</text>
<text text-anchor="middle" x="664.5" y="-554" font-family="Helvetica,sans-Serif" font-size="10.00" fill="#000000">Warning</text>
</a>
</g>
</g>
<!-- Node124&#45;&gt;Node126 -->
<g id="edge14" class="edge">
<title>Node124&#45;&gt;Node126</title>
<path fill="none" stroke="#191970" d="M496.5844,-525.5353C511.1524,-528.5222 527.2479,-531.8593 542,-535 556.6773,-538.1247 572.3285,-541.5235 587.3659,-544.8223"/>
<polygon fill="#191970" stroke="#191970" points="586.6243,-548.2428 597.1426,-546.9718 588.1275,-541.4061 586.6243,-548.2428"/>
</g>
<!-- Node128 -->
<g id="node17" class="node">
<title>Node128</title>
<g id="a_node17"><a xlink:href="class_options_model.html#ac5d555492fa4d6bba68d00e798efca50" target="_top" xlink:title="OptionsModel::getOverridden\lByCommandLine">
<polygon fill="#ffffff" stroke="#000000" points="593,-498 593,-528 736,-528 736,-498 593,-498"/>
<text text-anchor="start" x="601" y="-516" font-family="Helvetica,sans-Serif" font-size="10.00" fill="#000000">OptionsModel::getOverridden</text>
<text text-anchor="middle" x="664.5" y="-505" font-family="Helvetica,sans-Serif" font-size="10.00" fill="#000000">ByCommandLine</text>
</a>
</g>
</g>
<!-- Node124&#45;&gt;Node128 -->
<g id="edge18" class="edge">
<title>Node124&#45;&gt;Node128</title>
<path fill="none" stroke="#191970" d="M511.6869,-515.1323C533.9328,-514.8219 559.3475,-514.4672 582.9803,-514.1375"/>
<polygon fill="#191970" stroke="#191970" points="583.035,-517.6372 592.9851,-513.9979 582.9372,-510.6378 583.035,-517.6372"/>
</g>
<!-- Node130 -->
<g id="node19" class="node">
<title>Node130</title>
<g id="a_node19"><a xlink:href="class_options_dialog.html#a2088ec5bbb90ec27675f441e750e55b8" target="_top" xlink:title="OptionsDialog::setMapper">
<polygon fill="#ffffff" stroke="#000000" points="599.5,-459.5 599.5,-478.5 729.5,-478.5 729.5,-459.5 599.5,-459.5"/>
<text text-anchor="middle" x="664.5" y="-466.5" font-family="Helvetica,sans-Serif" font-size="10.00" fill="#000000">OptionsDialog::setMapper</text>
</a>
</g>
</g>
<!-- Node124&#45;&gt;Node130 -->
<g id="edge21" class="edge">
<title>Node124&#45;&gt;Node130</title>
<path fill="none" stroke="#191970" d="M497.0752,-506.4378C511.5178,-503.4784 527.4204,-500.1632 542,-497 555.6239,-494.0442 586.1763,-487.061 613.3589,-480.8084"/>
<polygon fill="#191970" stroke="#191970" points="614.2236,-484.201 623.1835,-478.5467 612.6532,-477.3794 614.2236,-484.201"/>
</g>
<!-- Node131 -->
<g id="node20" class="node">
<title>Node131</title>
<g id="a_node20"><a xlink:href="class_options_dialog.html#a44ffc21aae73b251333b75907aa8ff8c" target="_top" xlink:title="OptionsDialog::updateDefault\lProxyNets">
<polygon fill="#ffffff" stroke="#000000" points="592,-394 592,-424 737,-424 737,-394 592,-394"/>
<text text-anchor="start" x="600" y="-412" font-family="Helvetica,sans-Serif" font-size="10.00" fill="#000000">OptionsDialog::updateDefault</text>
<text text-anchor="middle" x="664.5" y="-401" font-family="Helvetica,sans-Serif" font-size="10.00" fill="#000000">ProxyNets</text>
</a>
</g>
</g>
<!-- Node124&#45;&gt;Node131 -->
<g id="edge22" class="edge">
<title>Node124&#45;&gt;Node131</title>
<path fill="none" stroke="#191970" d="M511.5748,-509.6336C522.2427,-506.7927 532.8318,-502.7464 542,-497 564.2951,-483.026 557.5384,-466.5429 578,-450 588.5044,-441.5074 601.0584,-434.2745 613.3016,-428.3575"/>
<polygon fill="#191970" stroke="#191970" points="614.9463,-431.4534 622.5643,-424.0902 612.0173,-425.0956 614.9463,-431.4534"/>
</g>
<!-- Node127 -->
<g id="node16" class="node">
<title>Node127</title>
<g id="a_node16"><a xlink:href="class_options_dialog.html#acd07b7058fd097bea5beb5cdd6fc1ad9" target="_top" xlink:title="OptionsDialog::clearStatus\lLabel">
<polygon fill="#ffffff" stroke="#000000" points="787,-547 787,-577 921,-577 921,-547 787,-547"/>
<text text-anchor="start" x="795" y="-565" font-family="Helvetica,sans-Serif" font-size="10.00" fill="#000000">OptionsDialog::clearStatus</text>
<text text-anchor="middle" x="854" y="-554" font-family="Helvetica,sans-Serif" font-size="10.00" fill="#000000">Label</text>
</a>
</g>
</g>
<!-- Node126&#45;&gt;Node127 -->
<g id="edge15" class="edge">
<title>Node126&#45;&gt;Node127</title>
<path fill="none" stroke="#191970" d="M734.5244,-555.4586C748.2685,-555.2218 762.759,-555.1866 776.7247,-555.3531"/>
<polygon fill="#191970" stroke="#191970" points="776.7296,-558.8535 786.783,-555.51 776.8389,-551.8543 776.7296,-558.8535"/>
</g>
<!-- Node127&#45;&gt;Node125 -->
<g id="edge16" class="edge">
<title>Node127&#45;&gt;Node125</title>
<path fill="none" stroke="#191970" d="M921.0266,-562C929.4155,-562 938.1024,-562 946.777,-562"/>
<polygon fill="#191970" stroke="#191970" points="946.936,-565.5001 956.936,-562 946.936,-558.5001 946.936,-565.5001"/>
</g>
<!-- Node127&#45;&gt;Node126 -->
<g id="edge17" class="edge">
<title>Node127&#45;&gt;Node126</title>
<path fill="none" stroke="#191970" d="M786.783,-568.49C773.1469,-568.7544 758.6775,-568.8171 744.646,-568.6782"/>
<polygon fill="#191970" stroke="#191970" points="744.5708,-565.177 734.5244,-568.5414 744.4762,-572.1763 744.5708,-565.177"/>
</g>
<!-- Node128&#45;&gt;Node125 -->
<g id="edge20" class="edge">
<title>Node128&#45;&gt;Node125</title>
<path fill="none" stroke="#191970" d="M713.2367,-497.9522C765.5841,-484.1917 850.7188,-468.7996 921,-489 959.4776,-500.0593 997.5471,-527.9654 1019.2246,-545.894"/>
<polygon fill="#191970" stroke="#191970" points="1017.0615,-548.6486 1026.9534,-552.4435 1021.5871,-543.3082 1017.0615,-548.6486"/>
</g>
<!-- Node129 -->
<g id="node18" class="node">
<title>Node129</title>
<g id="a_node18"><a xlink:href="class_options_model.html#af25171526a18c4746132ff199e0b1d71" target="_top" xlink:title="OptionsModel::setRestart\lRequired">
<polygon fill="#ffffff" stroke="#000000" points="790,-498 790,-528 918,-528 918,-498 790,-498"/>
<text text-anchor="start" x="798" y="-516" font-family="Helvetica,sans-Serif" font-size="10.00" fill="#000000">OptionsModel::setRestart</text>
<text text-anchor="middle" x="854" y="-505" font-family="Helvetica,sans-Serif" font-size="10.00" fill="#000000">Required</text>
</a>
</g>
</g>
<!-- Node128&#45;&gt;Node129 -->
<g id="edge19" class="edge">
<title>Node128&#45;&gt;Node129</title>
<path fill="none" stroke="#191970" d="M736.1418,-513C750.3109,-513 765.2143,-513 779.4763,-513"/>
<polygon fill="#191970" stroke="#191970" points="779.7283,-516.5001 789.7283,-513 779.7283,-509.5001 779.7283,-516.5001"/>
</g>
<!-- Node132 -->
<g id="node21" class="node">
<title>Node132</title>
<g id="a_node21"><a xlink:href="netbase_8cpp.html#a4e67b39fc1769663260d791d2f4d049d" target="_top" xlink:title="GetProxy">
<polygon fill="#ffffff" stroke="#000000" points="825,-421.5 825,-440.5 883,-440.5 883,-421.5 825,-421.5"/>
<text text-anchor="middle" x="854" y="-428.5" font-family="Helvetica,sans-Serif" font-size="10.00" fill="#000000">GetProxy</text>
</a>
</g>
</g>
<!-- Node131&#45;&gt;Node132 -->
<g id="edge23" class="edge">
<title>Node131&#45;&gt;Node132</title>
<path fill="none" stroke="#191970" d="M737.2237,-417.4429C763.5343,-420.4974 792.2439,-423.8304 814.6124,-426.4273"/>
<polygon fill="#191970" stroke="#191970" points="814.3913,-429.9251 824.7282,-427.6017 815.1986,-422.9718 814.3913,-429.9251"/>
</g>
<!-- Node133 -->
<g id="node22" class="node">
<title>Node133</title>
<g id="a_node22"><a xlink:href="class_c_net_addr.html#a0c8d9b5ed3824546ff4dccca3b28b073" target="_top" xlink:title="CNetAddr::ToStringIP">
<polygon fill="#ffffff" stroke="#ff0000" points="797.5,-383.5 797.5,-402.5 910.5,-402.5 910.5,-383.5 797.5,-383.5"/>
<text text-anchor="middle" x="854" y="-390.5" font-family="Helvetica,sans-Serif" font-size="10.00" fill="#000000">CNetAddr::ToStringIP</text>
</a>
</g>
</g>
<!-- Node131&#45;&gt;Node133 -->
<g id="edge24" class="edge">
<title>Node131&#45;&gt;Node133</title>
<path fill="none" stroke="#191970" d="M737.2237,-402.8597C753.5771,-401.479 770.8573,-400.02 786.9656,-398.6599"/>
<polygon fill="#191970" stroke="#191970" points="787.6903,-402.1113 797.3603,-397.7822 787.1013,-395.1361 787.6903,-402.1113"/>
</g>
<!-- Node137 -->
<g id="node23" class="node">
<title>Node137</title>
<g id="a_node23"><a xlink:href="class_c_service.html#a95d6f24b6a613fca24734ba4e38ef3dc" target="_top" xlink:title="CService::ToStringPort">
<polygon fill="#ffffff" stroke="#000000" points="795,-345.5 795,-364.5 913,-364.5 913,-345.5 795,-345.5"/>
<text text-anchor="middle" x="854" y="-352.5" font-family="Helvetica,sans-Serif" font-size="10.00" fill="#000000">CService::ToStringPort</text>
</a>
</g>
</g>
<!-- Node131&#45;&gt;Node137 -->
<g id="edge25" class="edge">
<title>Node131&#45;&gt;Node137</title>
<path fill="none" stroke="#191970" d="M716.9517,-393.9892C738.6325,-387.7909 764.0248,-380.5398 787,-374 794.6041,-371.8355 802.6949,-369.5371 810.5278,-367.3145"/>
<polygon fill="#191970" stroke="#191970" points="811.5899,-370.6513 820.2554,-364.5554 809.6798,-363.917 811.5899,-370.6513"/>
</g>
<!-- Node138&#45;&gt;Node118 -->
<g id="edge27" class="edge">
<title>Node138&#45;&gt;Node118</title>
<path fill="none" stroke="#191970" d="M294.8421,-563.54C322.9491,-568.7122 357.8799,-575.1401 387.4291,-580.5778"/>
<polygon fill="#191970" stroke="#191970" points="387.1682,-584.0884 397.6365,-582.4561 388.4351,-577.204 387.1682,-584.0884"/>
</g>
<!-- Node140 -->
<g id="node26" class="node">
<title>Node140</title>
<g id="a_node26"><a xlink:href="class_open_u_r_i_dialog.html#a38f9f110ae47996eff920171aea9400b" target="_top" xlink:title="OpenURIDialog::getURI">
<polygon fill="#ffffff" stroke="#000000" points="388,-316.5 388,-335.5 511,-335.5 511,-316.5 388,-316.5"/>
<text text-anchor="middle" x="449.5" y="-323.5" font-family="Helvetica,sans-Serif" font-size="10.00" fill="#000000">OpenURIDialog::getURI</text>
</a>
</g>
</g>
<!-- Node139&#45;&gt;Node140 -->
<g id="edge29" class="edge">
<title>Node139&#45;&gt;Node140</title>
<path fill="none" stroke="#191970" d="M319.0132,-326C338.2169,-326 358.7743,-326 377.7597,-326"/>
<polygon fill="#191970" stroke="#191970" points="377.8268,-329.5001 387.8267,-326 377.8267,-322.5001 377.8268,-329.5001"/>
</g>
<!-- Node141 -->
<g id="node27" class="node">
<title>Node141</title>
<g id="a_node27"><a xlink:href="class_wallet_frame.html#a44a96de92558a91a95142943484c88e8" target="_top" xlink:title="Switch to overview (home) page. ">
<polygon fill="#ffffff" stroke="#000000" points="369,-278.5 369,-297.5 530,-297.5 530,-278.5 369,-278.5"/>
<text text-anchor="middle" x="449.5" y="-285.5" font-family="Helvetica,sans-Serif" font-size="10.00" fill="#000000">WalletFrame::gotoOverviewPage</text>
</a>
</g>
</g>
<!-- Node139&#45;&gt;Node141 -->
<g id="edge30" class="edge">
<title>Node139&#45;&gt;Node141</title>
<path fill="none" stroke="#191970" d="M319.0132,-312.0121C341.6484,-307.8468 366.1645,-303.3353 387.7701,-299.3595"/>
<polygon fill="#191970" stroke="#191970" points="388.5958,-302.7664 397.7972,-297.5143 387.3289,-295.882 388.5958,-302.7664"/>
</g>
<!-- Node142 -->
<g id="node28" class="node">
<title>Node142</title>
<g id="a_node28"><a xlink:href="class_wallet_frame.html#a31071d5befc21c99718a8b31e1e403ee" target="_top" xlink:title="Switch to history (transactions) page. ">
<polygon fill="#ffffff" stroke="#000000" points="374,-240.5 374,-259.5 525,-259.5 525,-240.5 374,-240.5"/>
<text text-anchor="middle" x="449.5" y="-247.5" font-family="Helvetica,sans-Serif" font-size="10.00" fill="#000000">WalletFrame::gotoHistoryPage</text>
</a>
</g>
</g>
<!-- Node139&#45;&gt;Node142 -->
<g id="edge31" class="edge">
<title>Node139&#45;&gt;Node142</title>
<path fill="none" stroke="#191970" d="M268.4192,-310.867C290.985,-298.0307 325.2148,-279.9981 357,-269 364.7102,-266.3322 372.9183,-263.9836 381.1394,-261.9309"/>
<polygon fill="#191970" stroke="#191970" points="382.2115,-265.2742 391.1412,-259.5723 380.6048,-258.461 382.2115,-265.2742"/>
</g>
<!-- Node143 -->
<g id="node29" class="node">
<title>Node143</title>
<g id="a_node29"><a xlink:href="class_wallet_frame.html#af13b99dcec7b866d405aadd533bb7b9d" target="_top" xlink:title="Switch to receive coins page. ">
<polygon fill="#ffffff" stroke="#000000" points="383,-191 383,-221 516,-221 516,-191 383,-191"/>
<text text-anchor="start" x="391" y="-209" font-family="Helvetica,sans-Serif" font-size="10.00" fill="#000000">WalletFrame::gotoReceive</text>
<text text-anchor="middle" x="449.5" y="-198" font-family="Helvetica,sans-Serif" font-size="10.00" fill="#000000">CoinsPage</text>
</a>
</g>
</g>
<!-- Node139&#45;&gt;Node143 -->
<g id="edge32" class="edge">
<title>Node139&#45;&gt;Node143</title>
<path fill="none" stroke="#191970" d="M256.9681,-310.8067C277.0904,-289.8169 316.3104,-252.1499 357,-231 362.2007,-228.2967 367.7221,-225.864 373.3773,-223.6786"/>
<polygon fill="#191970" stroke="#191970" points="374.7578,-226.9018 382.9881,-220.23 372.3936,-220.3131 374.7578,-226.9018"/>
</g>
<!-- Node144 -->
<g id="node30" class="node">
<title>Node144</title>
<g id="a_node30"><a xlink:href="class_wallet_frame.html#a6c97ac7f36c595b1c1f4b7fd1c1dc880" target="_top" xlink:title="Switch to send coins page. ">
<polygon fill="#ffffff" stroke="#000000" points="366,-152.5 366,-171.5 533,-171.5 533,-152.5 366,-152.5"/>
<text text-anchor="middle" x="449.5" y="-159.5" font-family="Helvetica,sans-Serif" font-size="10.00" fill="#000000">WalletFrame::gotoSendCoinsPage</text>
</a>
</g>
</g>
<!-- Node139&#45;&gt;Node144 -->
<g id="edge33" class="edge">
<title>Node139&#45;&gt;Node144</title>
<path fill="none" stroke="#191970" d="M257.9113,-310.959C274.2509,-294.1268 300.8205,-265.7045 321,-239 339.0642,-215.0947 332.4445,-199.1699 357,-182 360.4841,-179.5638 364.2088,-177.4158 368.09,-175.5226"/>
<polygon fill="#191970" stroke="#191970" points="369.5678,-178.6974 377.3903,-171.5518 366.8191,-172.2596 369.5678,-178.6974"/>
</g>
<!-- Node145 -->
<g id="node31" class="node">
<title>Node145</title>
<g id="a_node31"><a xlink:href="class_wallet_frame.html#a386b4f2e20af7d13a688662cd3f9e1fc" target="_top" xlink:title="Show Sign/Verify Message dialog and switch to sign message tab. ">
<polygon fill="#ffffff" stroke="#000000" points="363,-114.5 363,-133.5 536,-133.5 536,-114.5 363,-114.5"/>
<text text-anchor="middle" x="449.5" y="-121.5" font-family="Helvetica,sans-Serif" font-size="10.00" fill="#000000">WalletFrame::gotoSignMessageTab</text>
</a>
</g>
</g>
<!-- Node139&#45;&gt;Node145 -->
<g id="edge34" class="edge">
<title>Node139&#45;&gt;Node145</title>
<path fill="none" stroke="#191970" d="M259.9372,-310.7922C277.2567,-294.4787 303.9678,-267.1048 321,-239 344.617,-200.0297 322.3631,-172.6096 357,-143 358.7719,-141.4853 360.6323,-140.0802 362.5659,-138.7773"/>
<polygon fill="#191970" stroke="#191970" points="364.5171,-141.6937 371.4656,-133.6956 361.0461,-135.6148 364.5171,-141.6937"/>
</g>
<!-- Node151 -->
<g id="node37" class="node">
<title>Node151</title>
<g id="a_node37"><a xlink:href="class_wallet_frame.html#af5cce5026575d013cb9d6933ebe7aa98" target="_top" xlink:title="Show Sign/Verify Message dialog and switch to verify message tab. ">
<polygon fill="#ffffff" stroke="#000000" points="360,-468.5 360,-487.5 539,-487.5 539,-468.5 360,-468.5"/>
<text text-anchor="middle" x="449.5" y="-475.5" font-family="Helvetica,sans-Serif" font-size="10.00" fill="#000000">WalletFrame::gotoVerifyMessageTab</text>
</a>
</g>
</g>
<!-- Node139&#45;&gt;Node151 -->
<g id="edge40" class="edge">
<title>Node139&#45;&gt;Node151</title>
<path fill="none" stroke="#191970" d="M251.3795,-341.2241C267.7203,-369.3685 306.6907,-429.3619 357,-459 360.6549,-461.1532 364.516,-463.0652 368.5042,-464.7628"/>
<polygon fill="#191970" stroke="#191970" points="367.4118,-468.0915 378.0036,-468.3474 369.8832,-461.5422 367.4118,-468.0915"/>
</g>
<!-- Node155 -->
<g id="node41" class="node">
<title>Node155</title>
<g id="a_node41"><a xlink:href="class_wallet_frame.html#a0e53b0a75e1a1a097a40a5daf64dd438" target="_top" xlink:title="RVN START. ">
<polygon fill="#ffffff" stroke="#000000" points="374.5,-430.5 374.5,-449.5 524.5,-449.5 524.5,-430.5 374.5,-430.5"/>
<text text-anchor="middle" x="449.5" y="-437.5" font-family="Helvetica,sans-Serif" font-size="10.00" fill="#000000">WalletFrame::gotoAssetsPage</text>
</a>
</g>
</g>
<!-- Node139&#45;&gt;Node155 -->
<g id="edge46" class="edge">
<title>Node139&#45;&gt;Node155</title>
<path fill="none" stroke="#191970" d="M256.4589,-341.1846C276.2688,-362.5207 315.4484,-400.9968 357,-421 362.2047,-423.5056 367.729,-425.6814 373.3863,-427.5707"/>
<polygon fill="#191970" stroke="#191970" points="372.4142,-430.9333 382.9997,-430.4875 374.4466,-424.2348 372.4142,-430.9333"/>
</g>
<!-- Node156 -->
<g id="node42" class="node">
<title>Node156</title>
<g id="a_node42"><a xlink:href="class_wallet_frame.html#a097bce60cc79931d1a5e73ebb5529f17" target="_top" xlink:title="WalletFrame::gotoCreateAssetsPage">
<polygon fill="#ffffff" stroke="#000000" points="360,-392.5 360,-411.5 539,-411.5 539,-392.5 360,-392.5"/>
<text text-anchor="middle" x="449.5" y="-399.5" font-family="Helvetica,sans-Serif" font-size="10.00" fill="#000000">WalletFrame::gotoCreateAssetsPage</text>
</a>
</g>
</g>
<!-- Node139&#45;&gt;Node156 -->
<g id="edge47" class="edge">
<title>Node139&#45;&gt;Node156</title>
<path fill="none" stroke="#191970" d="M268.4192,-341.133C290.985,-353.9693 325.2148,-372.0019 357,-383 364.7102,-385.6678 372.9183,-388.0164 381.1394,-390.0691"/>
<polygon fill="#191970" stroke="#191970" points="380.6048,-393.539 391.1412,-392.4277 382.2115,-386.7258 380.6048,-393.539"/>
</g>
<!-- Node157 -->
<g id="node43" class="node">
<title>Node157</title>
<g id="a_node43"><a xlink:href="class_wallet_frame.html#a07e475ae45d6492773c2becd803174aa" target="_top" xlink:title="WalletFrame::gotoManageAssetsPage">
<polygon fill="#ffffff" stroke="#000000" points="357,-354.5 357,-373.5 542,-373.5 542,-354.5 357,-354.5"/>
<text text-anchor="middle" x="449.5" y="-361.5" font-family="Helvetica,sans-Serif" font-size="10.00" fill="#000000">WalletFrame::gotoManageAssetsPage</text>
</a>
</g>
</g>
<!-- Node139&#45;&gt;Node157 -->
<g id="edge48" class="edge">
<title>Node139&#45;&gt;Node157</title>
<path fill="none" stroke="#191970" d="M319.0132,-339.9879C341.6484,-344.1532 366.1645,-348.6647 387.7701,-352.6405"/>
<polygon fill="#191970" stroke="#191970" points="387.3289,-356.118 397.7972,-354.4857 388.5958,-349.2336 387.3289,-356.118"/>
</g>
<!-- Node146 -->
<g id="node32" class="node">
<title>Node146</title>
<g id="a_node32"><a xlink:href="class_wallet_frame.html#a026798332d142b693e4f1820185d3f1c" target="_top" xlink:title="WalletFrame::currentWalletView">
<polygon fill="#ffffff" stroke="#000000" points="585.5,-183.5 585.5,-202.5 743.5,-202.5 743.5,-183.5 585.5,-183.5"/>
<text text-anchor="middle" x="664.5" y="-190.5" font-family="Helvetica,sans-Serif" font-size="10.00" fill="#000000">WalletFrame::currentWalletView</text>
</a>
</g>
</g>
<!-- Node145&#45;&gt;Node146 -->
<g id="edge35" class="edge">
<title>Node145&#45;&gt;Node146</title>
<path fill="none" stroke="#191970" d="M504.7021,-133.5968C517.0833,-136.2303 530.0788,-139.3768 542,-143 574.5962,-152.9069 610.5395,-168.1168 635.0111,-179.16"/>
<polygon fill="#191970" stroke="#191970" points="633.5648,-182.3472 644.1153,-183.3154 636.4713,-175.9791 633.5648,-182.3472"/>
</g>
<!-- Node147 -->
<g id="node33" class="node">
<title>Node147</title>
<g id="a_node33"><a xlink:href="class_wallet_view.html#a6443ddcb872a1743a61102a3dcd2d560" target="_top" xlink:title="Show Sign/Verify Message dialog and switch to sign message tab. ">
<polygon fill="#ffffff" stroke="#000000" points="581,-115.5 581,-134.5 748,-134.5 748,-115.5 581,-115.5"/>
<text text-anchor="middle" x="664.5" y="-122.5" font-family="Helvetica,sans-Serif" font-size="10.00" fill="#000000">WalletView::gotoSignMessageTab</text>
</a>
</g>
</g>
<!-- Node145&#45;&gt;Node147 -->
<g id="edge36" class="edge">
<title>Node145&#45;&gt;Node147</title>
<path fill="none" stroke="#191970" d="M536.0194,-124.4024C547.481,-124.4557 559.2736,-124.5106 570.8485,-124.5644"/>
<polygon fill="#191970" stroke="#191970" points="570.9342,-128.0647 580.9504,-124.6114 570.9668,-121.0648 570.9342,-128.0647"/>
</g>
<!-- Node148 -->
<g id="node34" class="node">
<title>Node148</title>
<g id="a_node34"><a xlink:href="class_sign_verify_message_dialog.html#ad1479ca27c2fd7d6fd1160c41660ea84" target="_top" xlink:title="SignVerifyMessageDialog\l::setModel">
<polygon fill="#ffffff" stroke="#000000" points="789.5,-182 789.5,-212 918.5,-212 918.5,-182 789.5,-182"/>
<text text-anchor="start" x="797.5" y="-200" font-family="Helvetica,sans-Serif" font-size="10.00" fill="#000000">SignVerifyMessageDialog</text>
<text text-anchor="middle" x="854" y="-189" font-family="Helvetica,sans-Serif" font-size="10.00" fill="#000000">::setModel</text>
</a>
</g>
</g>
<!-- Node147&#45;&gt;Node148 -->
<g id="edge37" class="edge">
<title>Node147&#45;&gt;Node148</title>
<path fill="none" stroke="#191970" d="M689.6641,-134.561C718.8689,-145.6573 767.7313,-164.2224 804.6024,-178.2315"/>
<polygon fill="#191970" stroke="#191970" points="803.586,-181.5894 814.1771,-181.8694 806.0723,-175.0458 803.586,-181.5894"/>
</g>
<!-- Node149 -->
<g id="node35" class="node">
<title>Node149</title>
<g id="a_node35"><a xlink:href="class_sign_verify_message_dialog.html#a3b06ea85a2640312e0074d8dabce6416" target="_top" xlink:title="SignVerifyMessageDialog\l::showTab_SM">
<polygon fill="#ffffff" stroke="#000000" points="789.5,-112 789.5,-142 918.5,-142 918.5,-112 789.5,-112"/>
<text text-anchor="start" x="797.5" y="-130" font-family="Helvetica,sans-Serif" font-size="10.00" fill="#000000">SignVerifyMessageDialog</text>
<text text-anchor="middle" x="854" y="-119" font-family="Helvetica,sans-Serif" font-size="10.00" fill="#000000">::showTab_SM</text>
</a>
</g>
</g>
<!-- Node147&#45;&gt;Node149 -->
<g id="edge38" class="edge">
<title>Node147&#45;&gt;Node149</title>
<path fill="none" stroke="#191970" d="M748.1691,-125.8831C758.5054,-125.9921 769.0201,-126.1031 779.2119,-126.2107"/>
<polygon fill="#191970" stroke="#191970" points="779.2412,-129.7111 789.2776,-126.3169 779.3152,-122.7115 779.2412,-129.7111"/>
</g>
<!-- Node150 -->
<g id="node36" class="node">
<title>Node150</title>
<g id="a_node36"><a xlink:href="class_sign_verify_message_dialog.html#a5fc13a7072e3667c91d7e984da09eac2" target="_top" xlink:title="SignVerifyMessageDialog\l::setAddress_SM">
<polygon fill="#ffffff" stroke="#000000" points="789.5,-63 789.5,-93 918.5,-93 918.5,-63 789.5,-63"/>
<text text-anchor="start" x="797.5" y="-81" font-family="Helvetica,sans-Serif" font-size="10.00" fill="#000000">SignVerifyMessageDialog</text>
<text text-anchor="middle" x="854" y="-70" font-family="Helvetica,sans-Serif" font-size="10.00" fill="#000000">::setAddress_SM</text>
</a>
</g>
</g>
<!-- Node147&#45;&gt;Node150 -->
<g id="edge39" class="edge">
<title>Node147&#45;&gt;Node150</title>
<path fill="none" stroke="#191970" d="M702.8482,-115.4888C725.9651,-109.7554 756.1245,-102.2752 783.4172,-95.506"/>
<polygon fill="#191970" stroke="#191970" points="784.461,-98.8533 793.3243,-93.0488 782.7758,-92.0591 784.461,-98.8533"/>
</g>
<!-- Node151&#45;&gt;Node146 -->
<g id="edge41" class="edge">
<title>Node151&#45;&gt;Node146</title>
<path fill="none" stroke="#191970" d="M529.5984,-468.4294C534.1342,-465.8592 538.3311,-462.7499 542,-459 604.2453,-395.3801 532.3073,-338.3816 578,-262 592.0473,-238.518 617.2423,-219.8054 636.8306,-207.8245"/>
<polygon fill="#191970" stroke="#191970" points="638.7978,-210.7282 645.6489,-202.6465 635.2534,-204.6919 638.7978,-210.7282"/>
</g>
<!-- Node152 -->
<g id="node38" class="node">
<title>Node152</title>
<g id="a_node38"><a xlink:href="class_wallet_view.html#a0a23aaaf87d3aec5ae8b1b8320d66796" target="_top" xlink:title="Show Sign/Verify Message dialog and switch to verify message tab. ">
<polygon fill="#ffffff" stroke="#000000" points="578,-271.5 578,-290.5 751,-290.5 751,-271.5 578,-271.5"/>
<text text-anchor="middle" x="664.5" y="-278.5" font-family="Helvetica,sans-Serif" font-size="10.00" fill="#000000">WalletView::gotoVerifyMessageTab</text>
</a>
</g>
</g>
<!-- Node151&#45;&gt;Node152 -->
<g id="edge42" class="edge">
<title>Node151&#45;&gt;Node152</title>
<path fill="none" stroke="#191970" d="M525.7866,-468.4444C531.5819,-465.9265 537.0796,-462.8211 542,-459 570.8866,-436.5669 558.1623,-415.7269 578,-385 599.2713,-352.0526 629.5983,-317.8359 648.1155,-298.0255"/>
<polygon fill="#191970" stroke="#191970" points="650.7158,-300.3698 655.0422,-290.6985 645.629,-295.5609 650.7158,-300.3698"/>
</g>
<!-- Node152&#45;&gt;Node148 -->
<g id="edge43" class="edge">
<title>Node152&#45;&gt;Node148</title>
<path fill="none" stroke="#191970" d="M686.2381,-271.3641C716.4409,-257.9761 771.7578,-233.4556 810.5912,-216.2419"/>
<polygon fill="#191970" stroke="#191970" points="812.3599,-219.2864 820.0836,-212.0342 809.5231,-212.8869 812.3599,-219.2864"/>
</g>
<!-- Node153 -->
<g id="node39" class="node">
<title>Node153</title>
<g id="a_node39"><a xlink:href="class_sign_verify_message_dialog.html#a6db3c37d3f5a3c070daed2c731cc79d5" target="_top" xlink:title="SignVerifyMessageDialog\l::showTab_VM">
<polygon fill="#ffffff" stroke="#000000" points="789.5,-242 789.5,-272 918.5,-272 918.5,-242 789.5,-242"/>
<text text-anchor="start" x="797.5" y="-260" font-family="Helvetica,sans-Serif" font-size="10.00" fill="#000000">SignVerifyMessageDialog</text>
<text text-anchor="middle" x="854" y="-249" font-family="Helvetica,sans-Serif" font-size="10.00" fill="#000000">::showTab_VM</text>
</a>
</g>
</g>
<!-- Node152&#45;&gt;Node153 -->
<g id="edge44" class="edge">
<title>Node152&#45;&gt;Node153</title>
<path fill="none" stroke="#191970" d="M739.6676,-271.4801C752.632,-269.8382 766.1079,-268.1315 779.0662,-266.4903"/>
<polygon fill="#191970" stroke="#191970" points="779.8468,-269.9195 789.3278,-265.1907 778.9672,-262.975 779.8468,-269.9195"/>
</g>
<!-- Node154 -->
<g id="node40" class="node">
<title>Node154</title>
<g id="a_node40"><a xlink:href="class_sign_verify_message_dialog.html#af30557fd4bc0aa57940d0f20e34c04ec" target="_top" xlink:title="SignVerifyMessageDialog\l::setAddress_VM">
<polygon fill="#ffffff" stroke="#000000" points="789.5,-291 789.5,-321 918.5,-321 918.5,-291 789.5,-291"/>
<text text-anchor="start" x="797.5" y="-309" font-family="Helvetica,sans-Serif" font-size="10.00" fill="#000000">SignVerifyMessageDialog</text>
<text text-anchor="middle" x="854" y="-298" font-family="Helvetica,sans-Serif" font-size="10.00" fill="#000000">::setAddress_VM</text>
</a>
</g>
</g>
<!-- Node152&#45;&gt;Node154 -->
<g id="edge45" class="edge">
<title>Node152&#45;&gt;Node154</title>
<path fill="none" stroke="#191970" d="M736.6824,-290.5227C750.654,-292.366 765.3207,-294.3009 779.3689,-296.1542"/>
<polygon fill="#191970" stroke="#191970" points="779.0981,-299.6487 789.47,-297.4868 780.0137,-292.7089 779.0981,-299.6487"/>
</g>
<!-- Node159&#45;&gt;Node158 -->
<g id="edge52" class="edge">
<title>Node159&#45;&gt;Node158</title>
<path fill="none" stroke="#191970" d="M297.5256,-112.4943C324.2376,-107.8375 356.5952,-102.1965 384.5763,-97.3184"/>
<polygon fill="#191970" stroke="#191970" points="385.4182,-100.7245 394.6685,-95.559 384.216,-93.8285 385.4182,-100.7245"/>
</g>
<!-- Node160 -->
<g id="node46" class="node">
<title>Node160</title>
<g id="a_node46"><a xlink:href="class_r_p_c_console.html#ae786f91271c0310f900bd208cc39b197" target="_top" xlink:title="set which tab has the focus (is visible) ">
<polygon fill="#ffffff" stroke="#000000" points="381,-38.5 381,-57.5 518,-57.5 518,-38.5 381,-38.5"/>
<text text-anchor="middle" x="449.5" y="-45.5" font-family="Helvetica,sans-Serif" font-size="10.00" fill="#000000">RPCConsole::setTabFocus</text>
</a>
</g>
</g>
<!-- Node159&#45;&gt;Node160 -->
<g id="edge51" class="edge">
<title>Node159&#45;&gt;Node160</title>
<path fill="none" stroke="#191970" d="M298.5676,-112.4641C306.3668,-109.9948 314.0749,-106.8933 321,-103 340.724,-91.911 337.0778,-77.7287 357,-67 361.4859,-64.5842 366.2459,-62.475 371.1473,-60.6334"/>
<polygon fill="#191970" stroke="#191970" points="372.3527,-63.9207 380.7124,-57.4118 370.1183,-57.2868 372.3527,-63.9207"/>
</g>
<!-- Node162 -->
<g id="node48" class="node">
<title>Node162</title>
<g id="a_node48"><a xlink:href="init_8cpp.html#a6f201ca9fe6b594f1985c12b4482ea5a" target="_top" xlink:title="ShutdownRequested">
<polygon fill="#ffffff" stroke="#000000" points="396,-.5 396,-19.5 503,-19.5 503,-.5 396,-.5"/>
<text text-anchor="middle" x="449.5" y="-7.5" font-family="Helvetica,sans-Serif" font-size="10.00" fill="#000000">ShutdownRequested</text>
</a>
</g>
</g>
<!-- Node161&#45;&gt;Node162 -->
<g id="edge54" class="edge">
<title>Node161&#45;&gt;Node162</title>
<path fill="none" stroke="#191970" d="M308.0545,-15.4797C332.7774,-14.5219 360.9016,-13.4324 385.524,-12.4785"/>
<polygon fill="#191970" stroke="#191970" points="385.985,-15.9634 395.842,-12.0788 385.7139,-8.9686 385.985,-15.9634"/>
</g>
<!-- Node163 -->
<g id="node49" class="node">
<title>Node163</title>
<g id="a_node49"><a xlink:href="init_8cpp.html#ad099182cc3731bd097628912ebe4cc7d" target="_top" xlink:title="fRequestShutdown">
<polygon fill="#ffffff" stroke="#000000" points="614.5,-.5 614.5,-19.5 714.5,-19.5 714.5,-.5 614.5,-.5"/>
<text text-anchor="middle" x="664.5" y="-7.5" font-family="Helvetica,sans-Serif" font-size="10.00" fill="#000000">fRequestShutdown</text>
</a>
</g>
</g>
<!-- Node162&#45;&gt;Node163 -->
<g id="edge55" class="edge">
<title>Node162&#45;&gt;Node163</title>
<path fill="none" stroke="#191970" d="M503.199,-10C533.9504,-10 572.6158,-10 604.3811,-10"/>
<polygon fill="#191970" stroke="#191970" points="604.4333,-13.5001 614.4333,-10 604.4332,-6.5001 604.4333,-13.5001"/>
</g>
<!-- Node164&#45;&gt;Node158 -->
<g id="edge58" class="edge">
<title>Node164&#45;&gt;Node158</title>
<path fill="none" stroke="#191970" d="M321.0688,-81.0245C334.1748,-81.5322 347.8572,-82.0623 361.1994,-82.5792"/>
<polygon fill="#191970" stroke="#191970" points="361.1928,-86.0814 371.3208,-82.9713 361.4638,-79.0867 361.1928,-86.0814"/>
</g>
<!-- Node164&#45;&gt;Node160 -->
<g id="edge57" class="edge">
<title>Node164&#45;&gt;Node160</title>
<path fill="none" stroke="#191970" d="M321.0688,-66.6583C338.3498,-64.1477 356.6331,-61.4916 373.8171,-58.9951"/>
<polygon fill="#191970" stroke="#191970" points="374.399,-62.4474 383.7919,-57.546 373.3925,-55.5201 374.399,-62.4474"/>
</g>
</g>
</svg>
