<?xml version="1.0" encoding="UTF-8" standalone="no"?>
<!DOCTYPE svg PUBLIC "-//W3C//DTD SVG 1.1//EN"
 "http://www.w3.org/Graphics/SVG/1.1/DTD/svg11.dtd">
<!-- Generated by graphviz version 2.40.1 (20161225.0304)
 -->
<!-- Title: CKeyStore::AddKey Pages: 1 -->
<svg width="596pt" height="242pt"
 viewBox="0.00 0.00 596.00 241.50" xmlns="http://www.w3.org/2000/svg" xmlns:xlink="http://www.w3.org/1999/xlink">
<g id="graph0" class="graph" transform="scale(1 1) rotate(0) translate(4 237.5)">
<title>CKeyStore::AddKey</title>
<polygon fill="#ffffff" stroke="transparent" points="-4,4 -4,-237.5 592,-237.5 592,4 -4,4"/>
<!-- Node31 -->
<g id="node1" class="node">
<title>Node31</title>
<polygon fill="#bfbfbf" stroke="#000000" points="0,-117.5 0,-136.5 105,-136.5 105,-117.5 0,-117.5"/>
<text text-anchor="middle" x="52.5" y="-124.5" font-family="Helvetica,sans-Serif" font-size="10.00" fill="#000000">CKeyStore::AddKey</text>
</g>
<!-- Node32 -->
<g id="node2" class="node">
<title>Node32</title>
<g id="a_node2"><a xlink:href="class_c_key_store.html#a1956e4f5860ded321d6f697047d8236a" target="_top" xlink:title="Add a key to the store. ">
<polygon fill="#ffffff" stroke="#000000" points="141,-136.5 141,-155.5 281,-155.5 281,-136.5 141,-136.5"/>
<text text-anchor="middle" x="211" y="-143.5" font-family="Helvetica,sans-Serif" font-size="10.00" fill="#000000">CKeyStore::AddKeyPubKey</text>
</a>
</g>
</g>
<!-- Node31&#45;&gt;Node32 -->
<g id="edge1" class="edge">
<title>Node31&#45;&gt;Node32</title>
<path fill="none" stroke="#191970" d="M105.2782,-133.3267C113.4985,-134.3121 122.148,-135.349 130.8125,-136.3876"/>
<polygon fill="#191970" stroke="#191970" points="130.6204,-139.8896 140.9659,-137.6047 131.4536,-132.9393 130.6204,-139.8896"/>
</g>
<!-- Node33 -->
<g id="node3" class="node">
<title>Node33</title>
<g id="a_node3"><a xlink:href="class_c_key.html#aa1085c59603a62db6ec776300f250337" target="_top" xlink:title="Compute the public key from a private key. ">
<polygon fill="#ffffff" stroke="#000000" points="162,-98.5 162,-117.5 260,-117.5 260,-98.5 162,-98.5"/>
<text text-anchor="middle" x="211" y="-105.5" font-family="Helvetica,sans-Serif" font-size="10.00" fill="#000000">CKey::GetPubKey</text>
</a>
</g>
</g>
<!-- Node31&#45;&gt;Node33 -->
<g id="edge2" class="edge">
<title>Node31&#45;&gt;Node33</title>
<path fill="none" stroke="#191970" d="M105.2782,-120.6733C120.1315,-118.8928 136.3865,-116.9442 151.5986,-115.1207"/>
<polygon fill="#191970" stroke="#191970" points="152.4211,-118.5472 161.9334,-113.8818 151.5879,-111.597 152.4211,-118.5472"/>
</g>
<!-- Node34 -->
<g id="node4" class="node">
<title>Node34</title>
<g id="a_node4"><a xlink:href="secp256k1_8h.html#a7438071aa8a6dc4697abe4f4659f2161" target="_top" xlink:title="Compute the public key for a secret key. ">
<polygon fill="#ffffff" stroke="#000000" points="317,-203 317,-233 433,-233 433,-203 317,-203"/>
<text text-anchor="start" x="325" y="-221" font-family="Helvetica,sans-Serif" font-size="10.00" fill="#000000">secp256k1_ec_pubkey</text>
<text text-anchor="middle" x="375" y="-210" font-family="Helvetica,sans-Serif" font-size="10.00" fill="#000000">_create</text>
</a>
</g>
</g>
<!-- Node33&#45;&gt;Node34 -->
<g id="edge3" class="edge">
<title>Node33&#45;&gt;Node34</title>
<path fill="none" stroke="#191970" d="M260.1136,-115.8622C267.6063,-118.5537 274.8719,-122.1625 281,-127 307.2264,-147.7032 292.3076,-170.4894 317,-193 318.7118,-194.5605 320.536,-196.0338 322.4425,-197.4235"/>
<polygon fill="#191970" stroke="#191970" points="320.9136,-200.5981 331.2341,-202.9933 324.6598,-194.6849 320.9136,-200.5981"/>
</g>
<!-- Node35 -->
<g id="node5" class="node">
<title>Node35</title>
<g id="a_node5"><a xlink:href="class_c_key.html#ab8dee0ad9d933304a22284ee40040847" target="_top" xlink:title="CKey::begin">
<polygon fill="#ffffff" stroke="#000000" points="339.5,-164.5 339.5,-183.5 410.5,-183.5 410.5,-164.5 339.5,-164.5"/>
<text text-anchor="middle" x="375" y="-171.5" font-family="Helvetica,sans-Serif" font-size="10.00" fill="#000000">CKey::begin</text>
</a>
</g>
</g>
<!-- Node33&#45;&gt;Node35 -->
<g id="edge4" class="edge">
<title>Node33&#45;&gt;Node35</title>
<path fill="none" stroke="#191970" d="M256.4117,-117.5022C264.8086,-120.0417 273.3388,-123.1752 281,-127 299.1353,-136.054 299.1039,-145.4819 317,-155 321.0022,-157.1286 325.2866,-159.0764 329.647,-160.8443"/>
<polygon fill="#191970" stroke="#191970" points="328.6417,-164.205 339.2342,-164.4278 331.0925,-157.6481 328.6417,-164.205"/>
</g>
<!-- Node36 -->
<g id="node6" class="node">
<title>Node36</title>
<g id="a_node6"><a xlink:href="secp256k1_8h.html#a34977bf00322e510e881160c421836d7" target="_top" xlink:title="Serialize a pubkey object into a serialized byte sequence. ">
<polygon fill="#ffffff" stroke="#000000" points="317,-115 317,-145 433,-145 433,-115 317,-115"/>
<text text-anchor="start" x="325" y="-133" font-family="Helvetica,sans-Serif" font-size="10.00" fill="#000000">secp256k1_ec_pubkey</text>
<text text-anchor="middle" x="375" y="-122" font-family="Helvetica,sans-Serif" font-size="10.00" fill="#000000">_serialize</text>
</a>
</g>
</g>
<!-- Node33&#45;&gt;Node36 -->
<g id="edge5" class="edge">
<title>Node33&#45;&gt;Node36</title>
<path fill="none" stroke="#191970" d="M260.2054,-114.6007C274.8334,-116.563 291.1283,-118.7489 306.7394,-120.8431"/>
<polygon fill="#191970" stroke="#191970" points="306.4984,-124.342 316.875,-122.2027 307.4291,-117.4042 306.4984,-124.342"/>
</g>
<!-- Node37 -->
<g id="node7" class="node">
<title>Node37</title>
<g id="a_node7"><a xlink:href="class_c_pub_key.html#a859ab9909d68092d6d4fc739237ab358" target="_top" xlink:title="CPubKey::begin">
<polygon fill="#ffffff" stroke="#000000" points="331,-76.5 331,-95.5 419,-95.5 419,-76.5 331,-76.5"/>
<text text-anchor="middle" x="375" y="-83.5" font-family="Helvetica,sans-Serif" font-size="10.00" fill="#000000">CPubKey::begin</text>
</a>
</g>
</g>
<!-- Node33&#45;&gt;Node37 -->
<g id="edge6" class="edge">
<title>Node33&#45;&gt;Node37</title>
<path fill="none" stroke="#191970" d="M260.2054,-101.3993C279.3275,-98.8341 301.2983,-95.8868 320.8662,-93.2618"/>
<polygon fill="#191970" stroke="#191970" points="321.4063,-96.7208 330.8521,-91.9223 320.4755,-89.783 321.4063,-96.7208"/>
</g>
<!-- Node38 -->
<g id="node8" class="node">
<title>Node38</title>
<g id="a_node8"><a xlink:href="class_c_pub_key.html#a6bb28fcf0a5f799c69f5b7269363b309" target="_top" xlink:title="Simple read&#45;only vector&#45;like interface to the pubkey data. ">
<polygon fill="#ffffff" stroke="#000000" points="333.5,-38.5 333.5,-57.5 416.5,-57.5 416.5,-38.5 333.5,-38.5"/>
<text text-anchor="middle" x="375" y="-45.5" font-family="Helvetica,sans-Serif" font-size="10.00" fill="#000000">CPubKey::size</text>
</a>
</g>
</g>
<!-- Node33&#45;&gt;Node38 -->
<g id="edge7" class="edge">
<title>Node33&#45;&gt;Node38</title>
<path fill="none" stroke="#191970" d="M234.8621,-98.3577C256.2584,-89.8108 288.5676,-77.1479 317,-67 322.7537,-64.9464 328.8578,-62.8541 334.8624,-60.8447"/>
<polygon fill="#191970" stroke="#191970" points="336.3978,-64.0235 344.7947,-57.5626 334.2015,-57.377 336.3978,-64.0235"/>
</g>
<!-- Node39 -->
<g id="node9" class="node">
<title>Node39</title>
<g id="a_node9"><a xlink:href="class_c_pub_key.html#a4fa94293cf8577fd039b9a133f6c7f30" target="_top" xlink:title="CPubKey::IsValid">
<polygon fill="#ffffff" stroke="#000000" points="327.5,-.5 327.5,-19.5 422.5,-19.5 422.5,-.5 327.5,-.5"/>
<text text-anchor="middle" x="375" y="-7.5" font-family="Helvetica,sans-Serif" font-size="10.00" fill="#000000">CPubKey::IsValid</text>
</a>
</g>
</g>
<!-- Node33&#45;&gt;Node39 -->
<g id="edge8" class="edge">
<title>Node33&#45;&gt;Node39</title>
<path fill="none" stroke="#191970" d="M221.3564,-98.4448C239.4855,-82.1604 278.6978,-48.8686 317,-29 321.0783,-26.8845 325.4389,-24.9405 329.8693,-23.1707"/>
<polygon fill="#191970" stroke="#191970" points="331.4304,-26.3251 339.5969,-19.5754 329.0036,-19.7592 331.4304,-26.3251"/>
</g>
<!-- Node40 -->
<g id="node10" class="node">
<title>Node40</title>
<g id="a_node10"><a xlink:href="classbase__blob.html#a00e7426a5d1ada51c635debf85f5a810" target="_top" xlink:title="base_blob\&lt; 160 \&gt;::size">
<polygon fill="#ffffff" stroke="#000000" points="469,-.5 469,-19.5 588,-19.5 588,-.5 469,-.5"/>
<text text-anchor="middle" x="528.5" y="-7.5" font-family="Helvetica,sans-Serif" font-size="10.00" fill="#000000">base_blob&lt; 160 &gt;::size</text>
</a>
</g>
</g>
<!-- Node39&#45;&gt;Node40 -->
<g id="edge9" class="edge">
<title>Node39&#45;&gt;Node40</title>
<path fill="none" stroke="#191970" d="M422.7269,-10C434.1405,-10 446.5583,-10 458.7394,-10"/>
<polygon fill="#191970" stroke="#191970" points="458.8886,-13.5001 468.8885,-10 458.8885,-6.5001 458.8886,-13.5001"/>
</g>
</g>
</svg>
