<?xml version="1.0" encoding="UTF-8" standalone="no"?>
<!DOCTYPE svg PUBLIC "-//W3C//DTD SVG 1.1//EN"
 "http://www.w3.org/Graphics/SVG/1.1/DTD/svg11.dtd">
<!-- Generated by graphviz version 2.40.1 (20161225.0304)
 -->
<!-- Title: CScriptCheck::GetScriptError Pages: 1 -->
<svg width="896pt" height="1087pt"
 viewBox="0.00 0.00 896.00 1087.00" xmlns="http://www.w3.org/2000/svg" xmlns:xlink="http://www.w3.org/1999/xlink">
<g id="graph0" class="graph" transform="scale(1 1) rotate(0) translate(4 1083)">
<title>CScriptCheck::GetScriptError</title>
<polygon fill="#ffffff" stroke="transparent" points="-4,4 -4,-1083 892,-1083 892,4 -4,4"/>
<!-- Node6 -->
<g id="node1" class="node">
<title>Node6</title>
<polygon fill="#bfbfbf" stroke="#000000" points="0,-247.5 0,-266.5 146,-266.5 146,-247.5 0,-247.5"/>
<text text-anchor="middle" x="73" y="-254.5" font-family="Helvetica,sans-Serif" font-size="10.00" fill="#000000">CScriptCheck::GetScriptError</text>
</g>
<!-- Node7 -->
<g id="node2" class="node">
<title>Node7</title>
<g id="a_node2"><a xlink:href="util_8h.html#a96c5fc7111f69f7dcaba992d95d13e03" target="_top" xlink:title="error">
<polygon fill="#ffffff" stroke="#000000" points="456.5,-675.5 456.5,-694.5 492.5,-694.5 492.5,-675.5 456.5,-675.5"/>
<text text-anchor="middle" x="474.5" y="-682.5" font-family="Helvetica,sans-Serif" font-size="10.00" fill="#000000">error</text>
</a>
</g>
</g>
<!-- Node6&#45;&gt;Node7 -->
<g id="edge1" class="edge">
<title>Node6&#45;&gt;Node7</title>
<path fill="none" stroke="#191970" d="M74.7758,-266.7193C84.2588,-317.6212 130.4297,-553.0471 182,-603 220.3059,-640.1045 380.6396,-669.7604 446.289,-680.5793"/>
<polygon fill="#191970" stroke="#191970" points="445.9039,-684.0625 456.3354,-682.2091 447.0249,-677.1528 445.9039,-684.0625"/>
</g>
<!-- Node37 -->
<g id="node25" class="node">
<title>Node37</title>
<g id="a_node25"><a xlink:href="validation_8h.html#a8404f26b97eec49682f6c6b64a3c8930" target="_top" xlink:title="Initializes the script&#45;execution cache. ">
<polygon fill="#ffffff" stroke="#000000" points="206,-361.5 206,-380.5 334,-380.5 334,-361.5 206,-361.5"/>
<text text-anchor="middle" x="270" y="-368.5" font-family="Helvetica,sans-Serif" font-size="10.00" fill="#000000">InitScriptExecutionCache</text>
</a>
</g>
</g>
<!-- Node6&#45;&gt;Node37 -->
<g id="edge26" class="edge">
<title>Node6&#45;&gt;Node37</title>
<path fill="none" stroke="#191970" d="M84.8985,-266.5023C104.3959,-281.7898 144.7164,-312.2305 182,-333 198.7344,-342.3222 218.2116,-350.9439 234.5817,-357.6103"/>
<polygon fill="#191970" stroke="#191970" points="233.7356,-361.041 244.3206,-361.4972 236.3304,-354.5397 233.7356,-361.041"/>
</g>
<!-- Node38 -->
<g id="node26" class="node">
<title>Node38</title>
<g id="a_node26"><a xlink:href="validation_8h.html#a4c6cdf4538a494d1394a44398bb2feea" target="_top" xlink:title="GetTimestampIndex">
<polygon fill="#ffffff" stroke="#000000" points="217.5,-675.5 217.5,-694.5 322.5,-694.5 322.5,-675.5 217.5,-675.5"/>
<text text-anchor="middle" x="270" y="-682.5" font-family="Helvetica,sans-Serif" font-size="10.00" fill="#000000">GetTimestampIndex</text>
</a>
</g>
</g>
<!-- Node6&#45;&gt;Node38 -->
<g id="edge28" class="edge">
<title>Node6&#45;&gt;Node38</title>
<path fill="none" stroke="#191970" d="M74.4236,-266.5596C82.7196,-321.1121 126.3855,-592.7381 182,-653 189.5126,-661.1404 199.2606,-667.2145 209.5217,-671.7454"/>
<polygon fill="#191970" stroke="#191970" points="208.4528,-675.0859 219.04,-675.4877 211.0142,-668.5713 208.4528,-675.0859"/>
</g>
<!-- Node41 -->
<g id="node28" class="node">
<title>Node41</title>
<g id="a_node28"><a xlink:href="validation_8h.html#ae88ea23b2e483753f7e055283007dd77" target="_top" xlink:title="GetSpentIndex">
<polygon fill="#ffffff" stroke="#000000" points="229,-304.5 229,-323.5 311,-323.5 311,-304.5 229,-304.5"/>
<text text-anchor="middle" x="270" y="-311.5" font-family="Helvetica,sans-Serif" font-size="10.00" fill="#000000">GetSpentIndex</text>
</a>
</g>
</g>
<!-- Node6&#45;&gt;Node41 -->
<g id="edge31" class="edge">
<title>Node6&#45;&gt;Node41</title>
<path fill="none" stroke="#191970" d="M97.8322,-266.6372C119.7467,-274.9054 152.675,-286.7562 182,-295 193.8727,-298.3376 206.7868,-301.4229 218.9723,-304.0942"/>
<polygon fill="#191970" stroke="#191970" points="218.4872,-307.5695 228.998,-306.2372 219.9505,-300.7241 218.4872,-307.5695"/>
</g>
<!-- Node45 -->
<g id="node31" class="node">
<title>Node45</title>
<g id="a_node31"><a xlink:href="validation_8h.html#acd71a89f63e749fdeda555af65198583" target="_top" xlink:title="HashOnchainActive">
<polygon fill="#ffffff" stroke="#000000" points="218,-266.5 218,-285.5 322,-285.5 322,-266.5 218,-266.5"/>
<text text-anchor="middle" x="270" y="-273.5" font-family="Helvetica,sans-Serif" font-size="10.00" fill="#000000">HashOnchainActive</text>
</a>
</g>
</g>
<!-- Node6&#45;&gt;Node45 -->
<g id="edge34" class="edge">
<title>Node6&#45;&gt;Node45</title>
<path fill="none" stroke="#191970" d="M146.0756,-264.0479C166.4033,-266.0084 188.2818,-268.1185 207.9141,-270.012"/>
<polygon fill="#191970" stroke="#191970" points="207.6658,-273.5042 217.9557,-270.9805 208.3379,-266.5366 207.6658,-273.5042"/>
</g>
<!-- Node47 -->
<g id="node33" class="node">
<title>Node47</title>
<g id="a_node33"><a xlink:href="validation_8h.html#a4a74aecce43b67fc73af8ce39fd61c72" target="_top" xlink:title="GetAddressIndex">
<polygon fill="#ffffff" stroke="#000000" points="224,-574.5 224,-593.5 316,-593.5 316,-574.5 224,-574.5"/>
<text text-anchor="middle" x="270" y="-581.5" font-family="Helvetica,sans-Serif" font-size="10.00" fill="#000000">GetAddressIndex</text>
</a>
</g>
</g>
<!-- Node6&#45;&gt;Node47 -->
<g id="edge36" class="edge">
<title>Node6&#45;&gt;Node47</title>
<path fill="none" stroke="#191970" d="M74.9738,-266.5659C82.8635,-302.9552 114.9995,-434.986 182,-520 198.3796,-540.7834 223.1818,-557.9842 242.285,-569.3005"/>
<polygon fill="#191970" stroke="#191970" points="240.7261,-572.441 251.1433,-574.3729 244.2046,-566.3664 240.7261,-572.441"/>
</g>
<!-- Node49 -->
<g id="node35" class="node">
<title>Node49</title>
<g id="a_node35"><a xlink:href="validation_8h.html#afa4dcf096e631f5e03f302a3f839c967" target="_top" xlink:title="GetAddressUnspent">
<polygon fill="#ffffff" stroke="#000000" points="217.5,-491.5 217.5,-510.5 322.5,-510.5 322.5,-491.5 217.5,-491.5"/>
<text text-anchor="middle" x="270" y="-498.5" font-family="Helvetica,sans-Serif" font-size="10.00" fill="#000000">GetAddressUnspent</text>
</a>
</g>
</g>
<!-- Node6&#45;&gt;Node49 -->
<g id="edge39" class="edge">
<title>Node6&#45;&gt;Node49</title>
<path fill="none" stroke="#191970" d="M80.7226,-266.5651C110.3231,-303.2276 216.8247,-435.1382 255.6821,-483.2662"/>
<polygon fill="#191970" stroke="#191970" points="253.1115,-485.6539 262.1167,-491.2359 258.558,-481.2566 253.1115,-485.6539"/>
</g>
<!-- Node51 -->
<g id="node37" class="node">
<title>Node51</title>
<g id="a_node37"><a xlink:href="validation_8h.html#a578c1df234b05798180f0235d469a5ba" target="_top" xlink:title="Functions for disk access for blocks. ">
<polygon fill="#ffffff" stroke="#000000" points="216.5,-228.5 216.5,-247.5 323.5,-247.5 323.5,-228.5 216.5,-228.5"/>
<text text-anchor="middle" x="270" y="-235.5" font-family="Helvetica,sans-Serif" font-size="10.00" fill="#000000">ReadBlockFromDisk</text>
</a>
</g>
</g>
<!-- Node6&#45;&gt;Node51 -->
<g id="edge42" class="edge">
<title>Node6&#45;&gt;Node51</title>
<path fill="none" stroke="#191970" d="M146.0756,-249.9521C165.846,-248.0453 187.0832,-245.997 206.2943,-244.1442"/>
<polygon fill="#191970" stroke="#191970" points="206.8179,-247.61 216.4357,-243.1661 206.1459,-240.6424 206.8179,-247.61"/>
</g>
<!-- Node56 -->
<g id="node40" class="node">
<title>Node56</title>
<g id="a_node40"><a xlink:href="validation_8h.html#adf3a2eef0a7ce0071f4d00a4ddf26943" target="_top" xlink:title="Functions for validating blocks and updating the block tree. ">
<polygon fill="#ffffff" stroke="#000000" points="235,-190.5 235,-209.5 305,-209.5 305,-190.5 235,-190.5"/>
<text text-anchor="middle" x="270" y="-197.5" font-family="Helvetica,sans-Serif" font-size="10.00" fill="#000000">CheckBlock</text>
</a>
</g>
</g>
<!-- Node6&#45;&gt;Node56 -->
<g id="edge45" class="edge">
<title>Node6&#45;&gt;Node56</title>
<path fill="none" stroke="#191970" d="M97.8322,-247.3628C119.7467,-239.0946 152.675,-227.2438 182,-219 195.8029,-215.1197 211.0133,-211.5807 224.8501,-208.6365"/>
<polygon fill="#191970" stroke="#191970" points="225.5643,-212.0629 234.6429,-206.6014 224.14,-205.2094 225.5643,-212.0629"/>
</g>
<!-- Node57 -->
<g id="node41" class="node">
<title>Node57</title>
<g id="a_node41"><a xlink:href="validation_8h.html#a12c39e969c9077605ae8a91730fb78d3" target="_top" xlink:title="Check a block is completely valid from start to finish (only works on top of our current best block...">
<polygon fill="#ffffff" stroke="#000000" points="223.5,-114.5 223.5,-133.5 316.5,-133.5 316.5,-114.5 223.5,-114.5"/>
<text text-anchor="middle" x="270" y="-121.5" font-family="Helvetica,sans-Serif" font-size="10.00" fill="#000000">TestBlockValidity</text>
</a>
</g>
</g>
<!-- Node6&#45;&gt;Node57 -->
<g id="edge46" class="edge">
<title>Node6&#45;&gt;Node57</title>
<path fill="none" stroke="#191970" d="M79.281,-247.1972C94.1673,-224.8276 133.971,-169.88 182,-143 191.607,-137.6233 202.5895,-133.767 213.4631,-131.0014"/>
<polygon fill="#191970" stroke="#191970" points="214.3964,-134.3788 223.376,-128.7559 212.8498,-127.5517 214.3964,-134.3788"/>
</g>
<!-- Node60 -->
<g id="node44" class="node">
<title>Node60</title>
<g id="a_node44"><a xlink:href="validation_8h.html#acb0226867d001d0edd267f2e4842bace" target="_top" xlink:title="Check whether witness commitments are required for block. ">
<polygon fill="#ffffff" stroke="#000000" points="222,-76.5 222,-95.5 318,-95.5 318,-76.5 222,-76.5"/>
<text text-anchor="middle" x="270" y="-83.5" font-family="Helvetica,sans-Serif" font-size="10.00" fill="#000000">IsWitnessEnabled</text>
</a>
</g>
</g>
<!-- Node6&#45;&gt;Node60 -->
<g id="edge49" class="edge">
<title>Node6&#45;&gt;Node60</title>
<path fill="none" stroke="#191970" d="M76.935,-247.2758C88.5136,-219.9816 125.2557,-142.2309 182,-105 190.9128,-99.1521 201.3227,-95.0716 211.7993,-92.2318"/>
<polygon fill="#191970" stroke="#191970" points="212.8865,-95.5716 221.8177,-89.8721 211.2816,-88.7581 212.8865,-95.5716"/>
</g>
<!-- Node61 -->
<g id="node45" class="node">
<title>Node61</title>
<g id="a_node45"><a xlink:href="validation_8h.html#a2e51de180124822c526ac8f82777fa32" target="_top" xlink:title="When there are blocks in the active chain with missing data, rewind the chainstate and remove them fr...">
<polygon fill="#ffffff" stroke="#000000" points="221,-152.5 221,-171.5 319,-171.5 319,-152.5 221,-152.5"/>
<text text-anchor="middle" x="270" y="-159.5" font-family="Helvetica,sans-Serif" font-size="10.00" fill="#000000">RewindBlockIndex</text>
</a>
</g>
</g>
<!-- Node6&#45;&gt;Node61 -->
<g id="edge50" class="edge">
<title>Node6&#45;&gt;Node61</title>
<path fill="none" stroke="#191970" d="M83.5698,-247.4275C102.0916,-231.1876 142.2372,-198.3181 182,-181 191.1352,-177.0213 201.1777,-173.8459 211.1092,-171.3205"/>
<polygon fill="#191970" stroke="#191970" points="212.0309,-174.6994 220.966,-169.0061 210.4307,-167.8848 212.0309,-174.6994"/>
</g>
<!-- Node65 -->
<g id="node49" class="node">
<title>Node65</title>
<g id="a_node49"><a xlink:href="validation_8h.html#a916ce43a2b2658298882c4eb461d1110" target="_top" xlink:title="Update uncommitted block structures (currently: only the witness nonce). ">
<polygon fill="#ffffff" stroke="#000000" points="182,-38.5 182,-57.5 358,-57.5 358,-38.5 182,-38.5"/>
<text text-anchor="middle" x="270" y="-45.5" font-family="Helvetica,sans-Serif" font-size="10.00" fill="#000000">UpdateUncommittedBlockStructures</text>
</a>
</g>
</g>
<!-- Node6&#45;&gt;Node65 -->
<g id="edge55" class="edge">
<title>Node6&#45;&gt;Node65</title>
<path fill="none" stroke="#191970" d="M75.5341,-247.2141C84.2752,-215.5305 116.3038,-115.0308 182,-67 184.5668,-65.1234 187.2815,-63.425 190.1041,-61.8884"/>
<polygon fill="#191970" stroke="#191970" points="191.8701,-64.9261 199.438,-57.5115 188.8981,-58.5883 191.8701,-64.9261"/>
</g>
<!-- Node66 -->
<g id="node50" class="node">
<title>Node66</title>
<g id="a_node50"><a xlink:href="validation_8h.html#a743ca389dc886ef8ec875ce8d08ec97e" target="_top" xlink:title="Produce the necessary coinbase commitment for a block (modifies the hash, don&#39;t call for mined blocks...">
<polygon fill="#ffffff" stroke="#000000" points="193,-.5 193,-19.5 347,-19.5 347,-.5 193,-.5"/>
<text text-anchor="middle" x="270" y="-7.5" font-family="Helvetica,sans-Serif" font-size="10.00" fill="#000000">GenerateCoinbaseCommitment</text>
</a>
</g>
</g>
<!-- Node6&#45;&gt;Node66 -->
<g id="edge56" class="edge">
<title>Node6&#45;&gt;Node66</title>
<path fill="none" stroke="#191970" d="M74.5316,-247.3402C80.6791,-211.941 106.9564,-88.3005 182,-29 184.0924,-27.3466 186.2968,-25.8291 188.589,-24.4369"/>
<polygon fill="#191970" stroke="#191970" points="190.5401,-27.3682 197.8141,-19.6649 187.3239,-21.1508 190.5401,-27.3682"/>
</g>
<!-- Node8 -->
<g id="node3" class="node">
<title>Node8</title>
<g id="a_node3"><a xlink:href="util_8h.html#afd4c3002b2797c0560adddb6af3ca1da" target="_top" xlink:title="Send a string to the log output. ">
<polygon fill="#ffffff" stroke="#000000" points="620.5,-945.5 620.5,-964.5 685.5,-964.5 685.5,-945.5 620.5,-945.5"/>
<text text-anchor="middle" x="653" y="-952.5" font-family="Helvetica,sans-Serif" font-size="10.00" fill="#000000">LogPrintStr</text>
</a>
</g>
</g>
<!-- Node7&#45;&gt;Node8 -->
<g id="edge2" class="edge">
<title>Node7&#45;&gt;Node8</title>
<path fill="none" stroke="#191970" d="M492.7209,-684.1471C511.1997,-684.3503 539.2534,-687.7871 555,-705 625.1346,-781.6654 522.9547,-857.4743 591,-936 596.1838,-941.9822 603.1972,-946.1117 610.6441,-948.9547"/>
<polygon fill="#191970" stroke="#191970" points="609.6158,-952.3002 620.2035,-951.9107 611.6838,-945.6126 609.6158,-952.3002"/>
</g>
<!-- Node9 -->
<g id="node4" class="node">
<title>Node9</title>
<g id="a_node4"><a xlink:href="namespacetinyformat.html#a05144619d8b16e2b31b2594ca9c6bf1d" target="_top" xlink:title="Format list of arguments to the stream according to given format string. ">
<polygon fill="#ffffff" stroke="#000000" points="606,-907.5 606,-926.5 700,-926.5 700,-907.5 606,-907.5"/>
<text text-anchor="middle" x="653" y="-914.5" font-family="Helvetica,sans-Serif" font-size="10.00" fill="#000000">tinyformat::format</text>
</a>
</g>
</g>
<!-- Node7&#45;&gt;Node9 -->
<g id="edge3" class="edge">
<title>Node7&#45;&gt;Node9</title>
<path fill="none" stroke="#191970" d="M492.6178,-684.2428C511.0126,-684.524 538.9986,-688.0237 555,-705 614.85,-768.4965 532.881,-832.9153 591,-898 592.8043,-900.0206 594.8172,-901.8292 596.9836,-903.4478"/>
<polygon fill="#191970" stroke="#191970" points="595.5983,-906.696 605.983,-908.7957 599.1743,-900.6783 595.5983,-906.696"/>
</g>
<!-- Node18 -->
<g id="node7" class="node">
<title>Node18</title>
<g id="a_node7"><a xlink:href="util_8h.html#aaada8c5faa502eb0c33fc01294955db8" target="_top" xlink:title="PrintExceptionContinue">
<polygon fill="#ffffff" stroke="#000000" points="593.5,-869.5 593.5,-888.5 712.5,-888.5 712.5,-869.5 593.5,-869.5"/>
<text text-anchor="middle" x="653" y="-876.5" font-family="Helvetica,sans-Serif" font-size="10.00" fill="#000000">PrintExceptionContinue</text>
</a>
</g>
</g>
<!-- Node7&#45;&gt;Node18 -->
<g id="edge6" class="edge">
<title>Node7&#45;&gt;Node18</title>
<path fill="none" stroke="#191970" d="M492.8085,-684.3939C511.0863,-684.8292 538.7317,-688.4808 555,-705 604.6243,-755.3896 542.7503,-808.2927 591,-860 592.2409,-861.3298 593.5721,-862.5675 594.9773,-863.7193"/>
<polygon fill="#191970" stroke="#191970" points="593.4323,-866.8902 603.7203,-869.4216 597.2564,-861.027 593.4323,-866.8902"/>
</g>
<!-- Node19 -->
<g id="node8" class="node">
<title>Node19</title>
<g id="a_node8"><a xlink:href="util_8h.html#af0e69a29ba128b74030ad8a213f2037a" target="_top" xlink:title="FileCommit">
<polygon fill="#ffffff" stroke="#000000" points="619.5,-831.5 619.5,-850.5 686.5,-850.5 686.5,-831.5 619.5,-831.5"/>
<text text-anchor="middle" x="653" y="-838.5" font-family="Helvetica,sans-Serif" font-size="10.00" fill="#000000">FileCommit</text>
</a>
</g>
</g>
<!-- Node7&#45;&gt;Node19 -->
<g id="edge7" class="edge">
<title>Node7&#45;&gt;Node19</title>
<path fill="none" stroke="#191970" d="M492.5729,-684.6343C510.663,-685.261 538.1613,-689.0626 555,-705 594.5137,-742.3988 552.5074,-783.551 591,-822 596.2022,-827.1963 602.7855,-830.9779 609.7067,-833.7284"/>
<polygon fill="#191970" stroke="#191970" points="608.6629,-837.0695 619.2559,-836.876 610.8542,-830.4213 608.6629,-837.0695"/>
</g>
<!-- Node20 -->
<g id="node9" class="node">
<title>Node20</title>
<g id="a_node9"><a xlink:href="util_8h.html#acb8d6b822bc1bfa609bf43bbac1a0d44" target="_top" xlink:title="TruncateFile">
<polygon fill="#ffffff" stroke="#000000" points="617.5,-793.5 617.5,-812.5 688.5,-812.5 688.5,-793.5 617.5,-793.5"/>
<text text-anchor="middle" x="653" y="-800.5" font-family="Helvetica,sans-Serif" font-size="10.00" fill="#000000">TruncateFile</text>
</a>
</g>
</g>
<!-- Node7&#45;&gt;Node20 -->
<g id="edge8" class="edge">
<title>Node7&#45;&gt;Node20</title>
<path fill="none" stroke="#191970" d="M492.829,-685.1352C510.6015,-686.195 537.39,-690.3659 555,-705 584.6756,-729.6607 561.9991,-758.5493 591,-784 595.8311,-788.2397 601.5911,-791.5333 607.6254,-794.092"/>
<polygon fill="#191970" stroke="#191970" points="606.6451,-797.4586 617.2396,-797.5382 609.0071,-790.8691 606.6451,-797.4586"/>
</g>
<!-- Node21 -->
<g id="node10" class="node">
<title>Node21</title>
<g id="a_node10"><a xlink:href="util_8h.html#a756a5c49a4bb607d16d9842f8f3ede4f" target="_top" xlink:title="this function tries to raise the file descriptor limit to the requested number. ">
<polygon fill="#ffffff" stroke="#000000" points="591,-755.5 591,-774.5 715,-774.5 715,-755.5 591,-755.5"/>
<text text-anchor="middle" x="653" y="-762.5" font-family="Helvetica,sans-Serif" font-size="10.00" fill="#000000">RaiseFileDescriptorLimit</text>
</a>
</g>
</g>
<!-- Node7&#45;&gt;Node21 -->
<g id="edge9" class="edge">
<title>Node7&#45;&gt;Node21</title>
<path fill="none" stroke="#191970" d="M492.6412,-686.3848C509.7867,-688.3843 535.6886,-693.2428 555,-705 575.7129,-717.6104 570.6341,-732.8365 591,-746 594.1644,-748.0453 597.5612,-749.8806 601.0754,-751.5258"/>
<polygon fill="#191970" stroke="#191970" points="599.9945,-754.8662 610.5732,-755.4505 602.6678,-748.3967 599.9945,-754.8662"/>
</g>
<!-- Node22 -->
<g id="node11" class="node">
<title>Node22</title>
<g id="a_node11"><a xlink:href="util_8h.html#a91c763bffc49cf7ed8d45cc44870e55c" target="_top" xlink:title="this function tries to make a particular range of a file allocated (corresponding to disk space) it i...">
<polygon fill="#ffffff" stroke="#000000" points="605,-717.5 605,-736.5 701,-736.5 701,-717.5 605,-717.5"/>
<text text-anchor="middle" x="653" y="-724.5" font-family="Helvetica,sans-Serif" font-size="10.00" fill="#000000">AllocateFileRange</text>
</a>
</g>
</g>
<!-- Node7&#45;&gt;Node22 -->
<g id="edge10" class="edge">
<title>Node7&#45;&gt;Node22</title>
<path fill="none" stroke="#191970" d="M492.5978,-689.2583C518.1178,-695.263 565.6623,-706.4499 602.389,-715.0915"/>
<polygon fill="#191970" stroke="#191970" points="601.8978,-718.5715 612.4337,-717.455 603.5012,-711.7576 601.8978,-718.5715"/>
</g>
<!-- Node23 -->
<g id="node12" class="node">
<title>Node23</title>
<g id="a_node12"><a xlink:href="util_8h.html#a579657da2b55b131ecd453bf1b0d2314" target="_top" xlink:title="RenameOver">
<polygon fill="#ffffff" stroke="#000000" points="616,-679.5 616,-698.5 690,-698.5 690,-679.5 616,-679.5"/>
<text text-anchor="middle" x="653" y="-686.5" font-family="Helvetica,sans-Serif" font-size="10.00" fill="#000000">RenameOver</text>
</a>
</g>
</g>
<!-- Node7&#45;&gt;Node23 -->
<g id="edge11" class="edge">
<title>Node7&#45;&gt;Node23</title>
<path fill="none" stroke="#191970" d="M492.5978,-685.4056C518.928,-685.9956 568.7032,-687.111 605.853,-687.9435"/>
<polygon fill="#191970" stroke="#191970" points="605.8905,-691.4451 615.9664,-688.1701 606.0474,-684.4469 605.8905,-691.4451"/>
</g>
<!-- Node24 -->
<g id="node13" class="node">
<title>Node24</title>
<g id="a_node13"><a xlink:href="util_8h.html#a9042a919d837da9d97311a0c460c597c" target="_top" xlink:title="Ignores exceptions thrown by Boost&#39;s create_directories if the requested directory exists...">
<polygon fill="#ffffff" stroke="#000000" points="599.5,-641.5 599.5,-660.5 706.5,-660.5 706.5,-641.5 599.5,-641.5"/>
<text text-anchor="middle" x="653" y="-648.5" font-family="Helvetica,sans-Serif" font-size="10.00" fill="#000000">TryCreateDirectories</text>
</a>
</g>
</g>
<!-- Node7&#45;&gt;Node24 -->
<g id="edge12" class="edge">
<title>Node7&#45;&gt;Node24</title>
<path fill="none" stroke="#191970" d="M492.5978,-681.5528C515.9113,-677.1121 557.6055,-669.1704 592.6414,-662.4969"/>
<polygon fill="#191970" stroke="#191970" points="593.6297,-665.8716 602.7981,-660.5623 592.3198,-658.9953 593.6297,-665.8716"/>
</g>
<!-- Node25 -->
<g id="node14" class="node">
<title>Node25</title>
<g id="a_node14"><a xlink:href="util_8h.html#a15cb85964fe08c264605537f44570d3c" target="_top" xlink:title="GetDefaultDataDir">
<polygon fill="#ffffff" stroke="#000000" points="604,-603.5 604,-622.5 702,-622.5 702,-603.5 604,-603.5"/>
<text text-anchor="middle" x="653" y="-610.5" font-family="Helvetica,sans-Serif" font-size="10.00" fill="#000000">GetDefaultDataDir</text>
</a>
</g>
</g>
<!-- Node7&#45;&gt;Node25 -->
<g id="edge13" class="edge">
<title>Node7&#45;&gt;Node25</title>
<path fill="none" stroke="#191970" d="M492.75,-675.8035C515.4242,-664.5873 555.4679,-645.462 591,-632 596.8725,-629.7751 603.1295,-627.6177 609.3246,-625.604"/>
<polygon fill="#191970" stroke="#191970" points="610.4611,-628.9156 618.9446,-622.5689 608.3549,-622.2399 610.4611,-628.9156"/>
</g>
<!-- Node26 -->
<g id="node15" class="node">
<title>Node26</title>
<g id="a_node15"><a xlink:href="util_8h.html#abb63dfb710832aefb746933af05198d4" target="_top" xlink:title="GetDataDir">
<polygon fill="#ffffff" stroke="#000000" points="620,-565.5 620,-584.5 686,-584.5 686,-565.5 620,-565.5"/>
<text text-anchor="middle" x="653" y="-572.5" font-family="Helvetica,sans-Serif" font-size="10.00" fill="#000000">GetDataDir</text>
</a>
</g>
</g>
<!-- Node7&#45;&gt;Node26 -->
<g id="edge14" class="edge">
<title>Node7&#45;&gt;Node26</title>
<path fill="none" stroke="#191970" d="M484.2124,-675.3367C503.1627,-656.9852 547.0702,-616.8839 591,-594 597.0375,-590.8549 603.682,-588.1356 610.3099,-585.8163"/>
<polygon fill="#191970" stroke="#191970" points="611.4992,-589.1102 619.936,-582.7015 609.3442,-582.4502 611.4992,-589.1102"/>
</g>
<!-- Node27 -->
<g id="node16" class="node">
<title>Node27</title>
<g id="a_node16"><a xlink:href="util_8h.html#abfb50dfe077aced7591f2aba601f605d" target="_top" xlink:title="ClearDatadirCache">
<polygon fill="#ffffff" stroke="#000000" points="603,-527.5 603,-546.5 703,-546.5 703,-527.5 603,-527.5"/>
<text text-anchor="middle" x="653" y="-534.5" font-family="Helvetica,sans-Serif" font-size="10.00" fill="#000000">ClearDatadirCache</text>
</a>
</g>
</g>
<!-- Node7&#45;&gt;Node27 -->
<g id="edge15" class="edge">
<title>Node7&#45;&gt;Node27</title>
<path fill="none" stroke="#191970" d="M486.1881,-675.3874C502.565,-661.6154 532.8191,-635.0472 555,-609 573.4619,-587.32 568.0877,-572.9083 591,-556 593.627,-554.0614 596.4544,-552.3182 599.4031,-550.751"/>
<polygon fill="#191970" stroke="#191970" points="600.9071,-553.9118 608.5342,-546.558 597.9859,-547.5505 600.9071,-553.9118"/>
</g>
<!-- Node28 -->
<g id="node17" class="node">
<title>Node28</title>
<g id="a_node17"><a xlink:href="util_8h.html#aa634f312705d4811dfa2a5392bddf6cf" target="_top" xlink:title="GetConfigFile">
<polygon fill="#ffffff" stroke="#000000" points="614.5,-451.5 614.5,-470.5 691.5,-470.5 691.5,-451.5 614.5,-451.5"/>
<text text-anchor="middle" x="653" y="-458.5" font-family="Helvetica,sans-Serif" font-size="10.00" fill="#000000">GetConfigFile</text>
</a>
</g>
</g>
<!-- Node7&#45;&gt;Node28 -->
<g id="edge16" class="edge">
<title>Node7&#45;&gt;Node28</title>
<path fill="none" stroke="#191970" d="M488.6667,-675.4149C506.7382,-662.4513 537.7156,-637.6302 555,-609 585.7639,-558.0422 549.4442,-522.6172 591,-480 594.9298,-475.9698 599.6896,-472.7892 604.8053,-470.2799"/>
<polygon fill="#191970" stroke="#191970" points="606.3322,-473.438 614.2956,-466.4498 603.7124,-466.9467 606.3322,-473.438"/>
</g>
<!-- Node30 -->
<g id="node19" class="node">
<title>Node30</title>
<g id="a_node19"><a xlink:href="util_8h.html#aa0172eabeecce5061826cb19990fbde2" target="_top" xlink:title="GetPidFile">
<polygon fill="#ffffff" stroke="#000000" points="622,-413.5 622,-432.5 684,-432.5 684,-413.5 622,-413.5"/>
<text text-anchor="middle" x="653" y="-420.5" font-family="Helvetica,sans-Serif" font-size="10.00" fill="#000000">GetPidFile</text>
</a>
</g>
</g>
<!-- Node7&#45;&gt;Node30 -->
<g id="edge18" class="edge">
<title>Node7&#45;&gt;Node30</title>
<path fill="none" stroke="#191970" d="M489.2504,-675.3483C507.6508,-662.4909 538.674,-637.9669 555,-609 592.2799,-542.8551 539.6422,-497.9224 591,-442 596.6303,-435.8692 604.1802,-431.6949 612.0711,-428.8584"/>
<polygon fill="#191970" stroke="#191970" points="613.1466,-432.1905 621.7593,-426.0202 611.1786,-425.4728 613.1466,-432.1905"/>
</g>
<!-- Node32 -->
<g id="node21" class="node">
<title>Node32</title>
<g id="a_node21"><a xlink:href="util_8h.html#a1c0f9b041628dcb399a023bc9913f41d" target="_top" xlink:title="CreatePidFile">
<polygon fill="#ffffff" stroke="#ff0000" points="615,-1059.5 615,-1078.5 691,-1078.5 691,-1059.5 615,-1059.5"/>
<text text-anchor="middle" x="653" y="-1066.5" font-family="Helvetica,sans-Serif" font-size="10.00" fill="#000000">CreatePidFile</text>
</a>
</g>
</g>
<!-- Node7&#45;&gt;Node32 -->
<g id="edge21" class="edge">
<title>Node7&#45;&gt;Node32</title>
<path fill="none" stroke="#191970" d="M492.5554,-683.9871C511.1751,-684.021 539.5997,-687.2854 555,-705 656.1466,-821.3463 493.0222,-930.9729 591,-1050 594.8502,-1054.6774 599.8213,-1058.2279 605.2719,-1060.9186"/>
<polygon fill="#191970" stroke="#191970" points="604.198,-1064.2576 614.7843,-1064.6822 606.7734,-1057.7486 604.198,-1064.2576"/>
</g>
<!-- Node34 -->
<g id="node22" class="node">
<title>Node34</title>
<g id="a_node22"><a xlink:href="util_8h.html#a1e755e72104d3ca393efc1cc3f41952a" target="_top" xlink:title="OpenDebugLog">
<polygon fill="#ffffff" stroke="#000000" points="611,-1021.5 611,-1040.5 695,-1040.5 695,-1021.5 611,-1021.5"/>
<text text-anchor="middle" x="653" y="-1028.5" font-family="Helvetica,sans-Serif" font-size="10.00" fill="#000000">OpenDebugLog</text>
</a>
</g>
</g>
<!-- Node7&#45;&gt;Node34 -->
<g id="edge22" class="edge">
<title>Node7&#45;&gt;Node34</title>
<path fill="none" stroke="#191970" d="M492.5107,-684.0261C511.0932,-684.0927 539.487,-687.384 555,-705 645.7928,-808.1007 503.0157,-906.4924 591,-1012 594.0012,-1015.599 597.6656,-1018.5299 601.6982,-1020.9148"/>
<polygon fill="#191970" stroke="#191970" points="600.4631,-1024.2023 610.9997,-1025.3113 603.4544,-1017.8736 600.4631,-1024.2023"/>
</g>
<!-- Node35 -->
<g id="node23" class="node">
<title>Node35</title>
<g id="a_node23"><a xlink:href="util_8h.html#a37fca7e305fe0caa306b23fdb37f88e2" target="_top" xlink:title="ShrinkDebugFile">
<polygon fill="#ffffff" stroke="#ff0000" points="608.5,-489.5 608.5,-508.5 697.5,-508.5 697.5,-489.5 608.5,-489.5"/>
<text text-anchor="middle" x="653" y="-496.5" font-family="Helvetica,sans-Serif" font-size="10.00" fill="#000000">ShrinkDebugFile</text>
</a>
</g>
</g>
<!-- Node7&#45;&gt;Node35 -->
<g id="edge23" class="edge">
<title>Node7&#45;&gt;Node35</title>
<path fill="none" stroke="#191970" d="M487.9116,-675.3526C505.4445,-662.1367 536.1352,-636.8469 555,-609 579.3943,-572.9907 559.0493,-547.5111 591,-518 593.481,-515.7084 596.232,-513.693 599.1556,-511.9205"/>
<polygon fill="#191970" stroke="#191970" points="600.9853,-514.9181 608.3468,-507.2984 597.8404,-508.6643 600.9853,-514.9181"/>
</g>
<!-- Node36 -->
<g id="node24" class="node">
<title>Node36</title>
<g id="a_node24"><a xlink:href="util_8h.html#aa803aa631ab8b4bd79fa9d7b2172bf9a" target="_top" xlink:title="runCommand">
<polygon fill="#ffffff" stroke="#000000" points="615.5,-983.5 615.5,-1002.5 690.5,-1002.5 690.5,-983.5 615.5,-983.5"/>
<text text-anchor="middle" x="653" y="-990.5" font-family="Helvetica,sans-Serif" font-size="10.00" fill="#000000">runCommand</text>
</a>
</g>
</g>
<!-- Node7&#45;&gt;Node36 -->
<g id="edge25" class="edge">
<title>Node7&#45;&gt;Node36</title>
<path fill="none" stroke="#191970" d="M492.7963,-684.0788C511.3367,-684.2263 539.4399,-687.6184 555,-705 635.4531,-794.8712 512.9955,-881.9955 591,-974 594.9644,-978.6759 600.0475,-982.2223 605.5939,-984.9081"/>
<polygon fill="#191970" stroke="#191970" points="604.6613,-988.3007 615.2499,-988.663 607.1984,-981.7766 604.6613,-988.3007"/>
</g>
<!-- Node10 -->
<g id="node5" class="node">
<title>Node10</title>
<g id="a_node5"><a xlink:href="namespacetinyformat.html#a86ed74eb3ed66a662e96220d877da964" target="_top" xlink:title="Format list of arguments to the stream according to the given format string. ">
<polygon fill="#ffffff" stroke="#ff0000" points="770,-926.5 770,-945.5 869,-945.5 869,-926.5 770,-926.5"/>
<text text-anchor="middle" x="819.5" y="-933.5" font-family="Helvetica,sans-Serif" font-size="10.00" fill="#000000">tinyformat::vformat</text>
</a>
</g>
</g>
<!-- Node9&#45;&gt;Node10 -->
<g id="edge4" class="edge">
<title>Node9&#45;&gt;Node10</title>
<path fill="none" stroke="#191970" d="M700.2669,-922.3938C718.7697,-924.5052 740.209,-926.9518 759.7631,-929.1832"/>
<polygon fill="#191970" stroke="#191970" points="759.4588,-932.6711 769.7912,-930.3275 760.2525,-925.7162 759.4588,-932.6711"/>
</g>
<!-- Node17 -->
<g id="node6" class="node">
<title>Node17</title>
<g id="a_node6"><a xlink:href="namespacetinyformat.html#a37afaa5249c69dacd619269358f06f69" target="_top" xlink:title="Make type&#45;agnostic format list from list of template arguments. ">
<polygon fill="#ffffff" stroke="#000000" points="751,-888.5 751,-907.5 888,-907.5 888,-888.5 751,-888.5"/>
<text text-anchor="middle" x="819.5" y="-895.5" font-family="Helvetica,sans-Serif" font-size="10.00" fill="#000000">tinyformat::makeFormatList</text>
</a>
</g>
</g>
<!-- Node9&#45;&gt;Node17 -->
<g id="edge5" class="edge">
<title>Node9&#45;&gt;Node17</title>
<path fill="none" stroke="#191970" d="M700.2669,-911.6062C712.9546,-910.1583 727.0231,-908.5529 740.9177,-906.9673"/>
<polygon fill="#191970" stroke="#191970" points="741.4435,-910.4302 750.9822,-905.8189 740.6498,-903.4753 741.4435,-910.4302"/>
</g>
<!-- Node29 -->
<g id="node18" class="node">
<title>Node29</title>
<g id="a_node18"><a xlink:href="util_8cpp.html#a7ebe0bd091f7334aaead43904601e008" target="_top" xlink:title="GetDataDir">
<polygon fill="#ffffff" stroke="#000000" points="786.5,-451.5 786.5,-470.5 852.5,-470.5 852.5,-451.5 786.5,-451.5"/>
<text text-anchor="middle" x="819.5" y="-458.5" font-family="Helvetica,sans-Serif" font-size="10.00" fill="#000000">GetDataDir</text>
</a>
</g>
</g>
<!-- Node28&#45;&gt;Node29 -->
<g id="edge17" class="edge">
<title>Node28&#45;&gt;Node29</title>
<path fill="none" stroke="#191970" d="M691.6169,-461C716.9746,-461 750.1762,-461 776.3939,-461"/>
<polygon fill="#191970" stroke="#191970" points="776.4308,-464.5001 786.4308,-461 776.4308,-457.5001 776.4308,-464.5001"/>
</g>
<!-- Node30&#45;&gt;Node29 -->
<g id="edge20" class="edge">
<title>Node30&#45;&gt;Node29</title>
<path fill="none" stroke="#191970" d="M684.3174,-430.1475C710.3555,-436.0902 747.6789,-444.6084 776.5137,-451.1893"/>
<polygon fill="#191970" stroke="#191970" points="775.7983,-454.616 786.3265,-453.4289 777.3559,-447.7915 775.7983,-454.616"/>
</g>
<!-- Node31 -->
<g id="node20" class="node">
<title>Node31</title>
<g id="a_node20"><a xlink:href="class_args_manager.html#adb5d644d273b3a259f792affcdca8283" target="_top" xlink:title="Return string argument or default value. ">
<polygon fill="#ffffff" stroke="#000000" points="764,-394.5 764,-413.5 875,-413.5 875,-394.5 764,-394.5"/>
<text text-anchor="middle" x="819.5" y="-401.5" font-family="Helvetica,sans-Serif" font-size="10.00" fill="#000000">ArgsManager::GetArg</text>
</a>
</g>
</g>
<!-- Node30&#45;&gt;Node31 -->
<g id="edge19" class="edge">
<title>Node30&#45;&gt;Node31</title>
<path fill="none" stroke="#191970" d="M684.3174,-419.4262C703.8523,-417.197 729.7394,-414.243 753.6282,-411.5169"/>
<polygon fill="#191970" stroke="#191970" points="754.181,-414.9766 763.7197,-410.3653 753.3873,-408.0218 754.181,-414.9766"/>
</g>
<!-- Node35&#45;&gt;Node29 -->
<g id="edge24" class="edge">
<title>Node35&#45;&gt;Node29</title>
<path fill="none" stroke="#191970" d="M695.015,-489.411C719.9082,-483.7297 751.3821,-476.5464 776.4539,-470.8243"/>
<polygon fill="#191970" stroke="#191970" points="777.4478,-474.1876 786.4183,-468.5502 775.8902,-467.3631 777.4478,-474.1876"/>
</g>
<!-- Node37&#45;&gt;Node31 -->
<g id="edge27" class="edge">
<title>Node37&#45;&gt;Node31</title>
<path fill="none" stroke="#191970" d="M334.1101,-374.8501C439.1836,-381.1603 646.9768,-393.6392 753.3581,-400.0279"/>
<polygon fill="#191970" stroke="#191970" points="753.4487,-403.5395 763.6406,-400.6454 753.8684,-396.5521 753.4487,-403.5395"/>
</g>
<!-- Node38&#45;&gt;Node7 -->
<g id="edge29" class="edge">
<title>Node38&#45;&gt;Node7</title>
<path fill="none" stroke="#191970" d="M322.6638,-685C361.8328,-685 413.8108,-685 445.6693,-685"/>
<polygon fill="#191970" stroke="#191970" points="446.0451,-688.5001 456.045,-685 446.045,-681.5001 446.0451,-688.5001"/>
</g>
<!-- Node39 -->
<g id="node27" class="node">
<title>Node39</title>
<g id="a_node27"><a xlink:href="class_c_block_tree_d_b.html#af50da61aa7b96723006663691fdb50c5" target="_top" xlink:title="CBlockTreeDB::ReadTimestamp\lIndex">
<polygon fill="#ffffff" stroke="#ff0000" points="394,-714 394,-744 555,-744 555,-714 394,-714"/>
<text text-anchor="start" x="402" y="-732" font-family="Helvetica,sans-Serif" font-size="10.00" fill="#000000">CBlockTreeDB::ReadTimestamp</text>
<text text-anchor="middle" x="474.5" y="-721" font-family="Helvetica,sans-Serif" font-size="10.00" fill="#000000">Index</text>
</a>
</g>
</g>
<!-- Node38&#45;&gt;Node39 -->
<g id="edge30" class="edge">
<title>Node38&#45;&gt;Node39</title>
<path fill="none" stroke="#191970" d="M314.3735,-694.5473C337.8089,-699.5897 367.2925,-705.9334 394.5529,-711.7987"/>
<polygon fill="#191970" stroke="#191970" points="393.9678,-715.2528 404.4803,-713.9346 395.4403,-708.4094 393.9678,-715.2528"/>
</g>
<!-- Node42 -->
<g id="node29" class="node">
<title>Node42</title>
<g id="a_node29"><a xlink:href="class_c_tx_mem_pool.html#ad5ae2f4442200f4d80e7b3aa61ec0435" target="_top" xlink:title="CTxMemPool::getSpentIndex">
<polygon fill="#ffffff" stroke="#000000" points="401.5,-304.5 401.5,-323.5 547.5,-323.5 547.5,-304.5 401.5,-304.5"/>
<text text-anchor="middle" x="474.5" y="-311.5" font-family="Helvetica,sans-Serif" font-size="10.00" fill="#000000">CTxMemPool::getSpentIndex</text>
</a>
</g>
</g>
<!-- Node41&#45;&gt;Node42 -->
<g id="edge32" class="edge">
<title>Node41&#45;&gt;Node42</title>
<path fill="none" stroke="#191970" d="M311.3836,-314C334.3554,-314 363.7715,-314 391.2822,-314"/>
<polygon fill="#191970" stroke="#191970" points="391.3161,-317.5001 401.3161,-314 391.316,-310.5001 391.3161,-317.5001"/>
</g>
<!-- Node43 -->
<g id="node30" class="node">
<title>Node43</title>
<g id="a_node30"><a xlink:href="class_c_block_tree_d_b.html#acca1254c911a40dafe2c977058cdf852" target="_top" xlink:title="CBlockTreeDB::ReadSpentIndex">
<polygon fill="#ffffff" stroke="#ff0000" points="394,-342.5 394,-361.5 555,-361.5 555,-342.5 394,-342.5"/>
<text text-anchor="middle" x="474.5" y="-349.5" font-family="Helvetica,sans-Serif" font-size="10.00" fill="#000000">CBlockTreeDB::ReadSpentIndex</text>
</a>
</g>
</g>
<!-- Node41&#45;&gt;Node43 -->
<g id="edge33" class="edge">
<title>Node41&#45;&gt;Node43</title>
<path fill="none" stroke="#191970" d="M311.3836,-321.6899C340.5757,-327.1143 380.1745,-334.4725 413.0453,-340.5805"/>
<polygon fill="#191970" stroke="#191970" points="412.5404,-344.0466 423.0115,-342.4325 413.8193,-337.1644 412.5404,-344.0466"/>
</g>
<!-- Node46 -->
<g id="node32" class="node">
<title>Node46</title>
<g id="a_node32"><a xlink:href="class_c_chain.html#af1786dc229c215dea7f727c11df2c8dc" target="_top" xlink:title="Efficiently check whether a block is present in this chain. ">
<polygon fill="#ffffff" stroke="#000000" points="427,-266.5 427,-285.5 522,-285.5 522,-266.5 427,-266.5"/>
<text text-anchor="middle" x="474.5" y="-273.5" font-family="Helvetica,sans-Serif" font-size="10.00" fill="#000000">CChain::Contains</text>
</a>
</g>
</g>
<!-- Node45&#45;&gt;Node46 -->
<g id="edge35" class="edge">
<title>Node45&#45;&gt;Node46</title>
<path fill="none" stroke="#191970" d="M322.1331,-276C350.9258,-276 386.7624,-276 416.4457,-276"/>
<polygon fill="#191970" stroke="#191970" points="416.6668,-279.5001 426.6668,-276 416.6668,-272.5001 416.6668,-279.5001"/>
</g>
<!-- Node47&#45;&gt;Node7 -->
<g id="edge37" class="edge">
<title>Node47&#45;&gt;Node7</title>
<path fill="none" stroke="#191970" d="M291.0919,-593.543C308.9885,-601.7079 335.2991,-613.8714 358,-625 388.8812,-640.1388 423.9153,-658.3207 447.429,-670.6727"/>
<polygon fill="#191970" stroke="#191970" points="445.9719,-673.861 456.451,-675.423 449.2332,-667.6671 445.9719,-673.861"/>
</g>
<!-- Node48 -->
<g id="node34" class="node">
<title>Node48</title>
<g id="a_node34"><a xlink:href="class_c_block_tree_d_b.html#a2136d3b3c23b790859918eb9077bc8f9" target="_top" xlink:title="CBlockTreeDB::ReadAddress\lIndex">
<polygon fill="#ffffff" stroke="#ff0000" points="400.5,-569 400.5,-599 548.5,-599 548.5,-569 400.5,-569"/>
<text text-anchor="start" x="408.5" y="-587" font-family="Helvetica,sans-Serif" font-size="10.00" fill="#000000">CBlockTreeDB::ReadAddress</text>
<text text-anchor="middle" x="474.5" y="-576" font-family="Helvetica,sans-Serif" font-size="10.00" fill="#000000">Index</text>
</a>
</g>
</g>
<!-- Node47&#45;&gt;Node48 -->
<g id="edge38" class="edge">
<title>Node47&#45;&gt;Node48</title>
<path fill="none" stroke="#191970" d="M316.1488,-584C338.0924,-584 365.0287,-584 390.4205,-584"/>
<polygon fill="#191970" stroke="#191970" points="390.4354,-587.5001 400.4353,-584 390.4353,-580.5001 390.4354,-587.5001"/>
</g>
<!-- Node49&#45;&gt;Node7 -->
<g id="edge40" class="edge">
<title>Node49&#45;&gt;Node7</title>
<path fill="none" stroke="#191970" d="M285.5412,-510.5549C303.8747,-522.2075 334.7917,-543.0768 358,-565 376.3677,-582.3507 376.7782,-590.5114 394,-609 414.1519,-630.6344 439.1518,-653.7103 455.8971,-668.6838"/>
<polygon fill="#191970" stroke="#191970" points="453.5951,-671.3203 463.3971,-675.3417 458.2423,-666.0854 453.5951,-671.3203"/>
</g>
<!-- Node50 -->
<g id="node36" class="node">
<title>Node50</title>
<g id="a_node36"><a xlink:href="class_c_block_tree_d_b.html#a9ad390358757d9f2320f4c0ca0142385" target="_top" xlink:title="CBlockTreeDB::ReadAddress\lUnspentIndex">
<polygon fill="#ffffff" stroke="#ff0000" points="400.5,-486 400.5,-516 548.5,-516 548.5,-486 400.5,-486"/>
<text text-anchor="start" x="408.5" y="-504" font-family="Helvetica,sans-Serif" font-size="10.00" fill="#000000">CBlockTreeDB::ReadAddress</text>
<text text-anchor="middle" x="474.5" y="-493" font-family="Helvetica,sans-Serif" font-size="10.00" fill="#000000">UnspentIndex</text>
</a>
</g>
</g>
<!-- Node49&#45;&gt;Node50 -->
<g id="edge41" class="edge">
<title>Node49&#45;&gt;Node50</title>
<path fill="none" stroke="#191970" d="M322.6638,-501C343.2815,-501 367.4482,-501 390.3615,-501"/>
<polygon fill="#191970" stroke="#191970" points="390.4359,-504.5001 400.4359,-501 390.4359,-497.5001 390.4359,-504.5001"/>
</g>
<!-- Node52 -->
<g id="node38" class="node">
<title>Node52</title>
<g id="a_node38"><a xlink:href="class_c_block.html#a0410d7ba8d60679c4cf364b82ffffea5" target="_top" xlink:title="CBlock::SetNull">
<polygon fill="#ffffff" stroke="#ff0000" points="431,-190.5 431,-209.5 518,-209.5 518,-190.5 431,-190.5"/>
<text text-anchor="middle" x="474.5" y="-197.5" font-family="Helvetica,sans-Serif" font-size="10.00" fill="#000000">CBlock::SetNull</text>
</a>
</g>
</g>
<!-- Node51&#45;&gt;Node52 -->
<g id="edge43" class="edge">
<title>Node51&#45;&gt;Node52</title>
<path fill="none" stroke="#191970" d="M321.34,-228.46C351.6349,-222.8307 389.9348,-215.7138 420.656,-210.0052"/>
<polygon fill="#191970" stroke="#191970" points="421.5692,-213.3955 430.7615,-208.1275 420.2903,-206.5134 421.5692,-213.3955"/>
</g>
<!-- Node55 -->
<g id="node39" class="node">
<title>Node55</title>
<g id="a_node39"><a xlink:href="validation_8cpp.html#a0d81388930a4ccb6a69b9abdd1ef5097" target="_top" xlink:title="Open a block file (blk?????.dat) ">
<polygon fill="#ffffff" stroke="#000000" points="434.5,-228.5 434.5,-247.5 514.5,-247.5 514.5,-228.5 434.5,-228.5"/>
<text text-anchor="middle" x="474.5" y="-235.5" font-family="Helvetica,sans-Serif" font-size="10.00" fill="#000000">OpenBlockFile</text>
</a>
</g>
</g>
<!-- Node51&#45;&gt;Node55 -->
<g id="edge44" class="edge">
<title>Node51&#45;&gt;Node55</title>
<path fill="none" stroke="#191970" d="M323.73,-238C354.8819,-238 393.8559,-238 424.3738,-238"/>
<polygon fill="#191970" stroke="#191970" points="424.3757,-241.5001 434.3757,-238 424.3756,-234.5001 424.3757,-241.5001"/>
</g>
<!-- Node58 -->
<g id="node42" class="node">
<title>Node58</title>
<g id="a_node42"><a xlink:href="class_c_chain.html#a578545bde95163bee37b1be28e7b2755" target="_top" xlink:title="Returns the index entry for the tip of this chain, or nullptr if none. ">
<polygon fill="#ffffff" stroke="#000000" points="440,-38.5 440,-57.5 509,-57.5 509,-38.5 440,-38.5"/>
<text text-anchor="middle" x="474.5" y="-45.5" font-family="Helvetica,sans-Serif" font-size="10.00" fill="#000000">CChain::Tip</text>
</a>
</g>
</g>
<!-- Node57&#45;&gt;Node58 -->
<g id="edge47" class="edge">
<title>Node57&#45;&gt;Node58</title>
<path fill="none" stroke="#191970" d="M316.6439,-119.2796C330.5784,-116.4885 345.4682,-112.0515 358,-105 378.2751,-93.5915 373.835,-78.602 394,-67 404.8908,-60.7339 417.7411,-56.5316 429.9391,-53.7144"/>
<polygon fill="#191970" stroke="#191970" points="430.8805,-57.0943 439.9747,-51.6587 429.4758,-50.2367 430.8805,-57.0943"/>
</g>
<!-- Node59 -->
<g id="node43" class="node">
<title>Node59</title>
<g id="a_node43"><a xlink:href="validation_8cpp.html#ac18640d1226903c568f1ff1e63b64774" target="_top" xlink:title="GetCurrentAssetCache">
<polygon fill="#ffffff" stroke="#000000" points="415,-.5 415,-19.5 534,-19.5 534,-.5 415,-.5"/>
<text text-anchor="middle" x="474.5" y="-7.5" font-family="Helvetica,sans-Serif" font-size="10.00" fill="#000000">GetCurrentAssetCache</text>
</a>
</g>
</g>
<!-- Node57&#45;&gt;Node59 -->
<g id="edge48" class="edge">
<title>Node57&#45;&gt;Node59</title>
<path fill="none" stroke="#191970" d="M316.8347,-121.8558C331.2487,-119.2221 346.3665,-114.2268 358,-105 387.2834,-81.7746 364.9401,-52.5045 394,-29 397.5501,-26.1286 401.4601,-23.6774 405.586,-21.5863"/>
<polygon fill="#191970" stroke="#191970" points="407.1146,-24.7386 414.9071,-17.5603 404.339,-18.3124 407.1146,-24.7386"/>
</g>
<!-- Node61&#45;&gt;Node58 -->
<g id="edge54" class="edge">
<title>Node61&#45;&gt;Node58</title>
<path fill="none" stroke="#191970" d="M319.1158,-159.4201C332.8304,-156.6846 346.9788,-151.7412 358,-143 387.2834,-119.7746 364.9401,-90.5045 394,-67 404.1312,-58.8056 417.1944,-54.0332 429.8381,-51.2864"/>
<polygon fill="#191970" stroke="#191970" points="430.6013,-54.7054 439.8242,-49.4911 429.3627,-47.8158 430.6013,-54.7054"/>
</g>
<!-- Node62 -->
<g id="node46" class="node">
<title>Node62</title>
<g id="a_node46"><a xlink:href="class_c_chain.html#ad4758bc8872ce065a9579f77c3171d40" target="_top" xlink:title="Return the maximal height in the chain. ">
<polygon fill="#ffffff" stroke="#000000" points="432.5,-152.5 432.5,-171.5 516.5,-171.5 516.5,-152.5 432.5,-152.5"/>
<text text-anchor="middle" x="474.5" y="-159.5" font-family="Helvetica,sans-Serif" font-size="10.00" fill="#000000">CChain::Height</text>
</a>
</g>
</g>
<!-- Node61&#45;&gt;Node62 -->
<g id="edge51" class="edge">
<title>Node61&#45;&gt;Node62</title>
<path fill="none" stroke="#191970" d="M319.2431,-162C350.2485,-162 390.2419,-162 421.8723,-162"/>
<polygon fill="#191970" stroke="#191970" points="422.2535,-165.5001 432.2534,-162 422.2534,-158.5001 422.2535,-165.5001"/>
</g>
<!-- Node63 -->
<g id="node47" class="node">
<title>Node63</title>
<g id="a_node47"><a xlink:href="validation_8cpp.html#acb0226867d001d0edd267f2e4842bace" target="_top" xlink:title="Check whether witness commitments are required for block. ">
<polygon fill="#ffffff" stroke="#000000" points="426.5,-114.5 426.5,-133.5 522.5,-133.5 522.5,-114.5 426.5,-114.5"/>
<text text-anchor="middle" x="474.5" y="-121.5" font-family="Helvetica,sans-Serif" font-size="10.00" fill="#000000">IsWitnessEnabled</text>
</a>
</g>
</g>
<!-- Node61&#45;&gt;Node63 -->
<g id="edge52" class="edge">
<title>Node61&#45;&gt;Node63</title>
<path fill="none" stroke="#191970" d="M319.2431,-152.8497C348.4434,-147.4237 385.6156,-140.5164 416.2662,-134.821"/>
<polygon fill="#191970" stroke="#191970" points="417.1975,-138.2079 426.3898,-132.9398 415.9186,-131.3257 417.1975,-138.2079"/>
</g>
<!-- Node64 -->
<g id="node48" class="node">
<title>Node64</title>
<g id="a_node48"><a xlink:href="class_c_chain_params.html#aa366d4f63c8d16d625336dca61ca65e5" target="_top" xlink:title="CChainParams::GetConsensus">
<polygon fill="#ffffff" stroke="#000000" points="397,-76.5 397,-95.5 552,-95.5 552,-76.5 397,-76.5"/>
<text text-anchor="middle" x="474.5" y="-83.5" font-family="Helvetica,sans-Serif" font-size="10.00" fill="#000000">CChainParams::GetConsensus</text>
</a>
</g>
</g>
<!-- Node61&#45;&gt;Node64 -->
<g id="edge53" class="edge">
<title>Node61&#45;&gt;Node64</title>
<path fill="none" stroke="#191970" d="M319.3815,-156.7123C332.5106,-153.8987 346.2855,-149.5916 358,-143 378.2751,-131.5915 373.835,-116.602 394,-105 397.8857,-102.7644 402.0208,-100.7914 406.2867,-99.0504"/>
<polygon fill="#191970" stroke="#191970" points="407.5854,-102.3025 415.7886,-95.5973 405.1945,-95.7234 407.5854,-102.3025"/>
</g>
</g>
</svg>
