<?xml version="1.0" encoding="UTF-8" standalone="no"?>
<!DOCTYPE svg PUBLIC "-//W3C//DTD SVG 1.1//EN"
 "http://www.w3.org/Graphics/SVG/1.1/DTD/svg11.dtd">
<!-- Generated by graphviz version 2.40.1 (20161225.0304)
 -->
<!-- Title: SendCoinsDialog::updateSmartFeeLabel Pages: 1 -->
<svg width="1222pt" height="601pt"
 viewBox="0.00 0.00 1222.00 600.83" xmlns="http://www.w3.org/2000/svg" xmlns:xlink="http://www.w3.org/1999/xlink">
<g id="graph0" class="graph" transform="scale(1 1) rotate(0) translate(4 596.8255)">
<title>SendCoinsDialog::updateSmartFeeLabel</title>
<polygon fill="#ffffff" stroke="transparent" points="-4,4 -4,-596.8255 1218,-596.8255 1218,4 -4,4"/>
<!-- Node1130 -->
<g id="node1" class="node">
<title>Node1130</title>
<polygon fill="#bfbfbf" stroke="#000000" points="0,-444.8255 0,-474.8255 154,-474.8255 154,-444.8255 0,-444.8255"/>
<text text-anchor="start" x="8" y="-462.8255" font-family="Helvetica,sans-Serif" font-size="10.00" fill="#000000">SendCoinsDialog::updateSmart</text>
<text text-anchor="middle" x="77" y="-451.8255" font-family="Helvetica,sans-Serif" font-size="10.00" fill="#000000">FeeLabel</text>
</g>
<!-- Node1131 -->
<g id="node2" class="node">
<title>Node1131</title>
<g id="a_node2"><a xlink:href="class_wallet_model.html#a96d53e56b3f8f07537ea2523f7a7d300" target="_top" xlink:title="WalletModel::getOptionsModel">
<polygon fill="#ffffff" stroke="#000000" points="374,-573.3255 374,-592.3255 524,-592.3255 524,-573.3255 374,-573.3255"/>
<text text-anchor="middle" x="449" y="-580.3255" font-family="Helvetica,sans-Serif" font-size="10.00" fill="#000000">WalletModel::getOptionsModel</text>
</a>
</g>
</g>
<!-- Node1130&#45;&gt;Node1131 -->
<g id="edge1" class="edge">
<title>Node1130&#45;&gt;Node1131</title>
<path fill="none" stroke="#191970" d="M87.3879,-474.9587C105.1429,-499.3885 143.9105,-546.7982 190,-566.8255 244.4245,-590.4746 311.4103,-594.0233 363.623,-591.8952"/>
<polygon fill="#191970" stroke="#191970" points="364.042,-595.3791 373.8604,-591.3982 363.7024,-588.3873 364.042,-595.3791"/>
</g>
<!-- Node1132 -->
<g id="node3" class="node">
<title>Node1132</title>
<g id="a_node3"><a xlink:href="class_send_coins_dialog.html#a91c32dd9656813960ca6d076adedd1e0" target="_top" xlink:title="SendCoinsDialog::updateCoin\lControlState">
<polygon fill="#ffffff" stroke="#000000" points="190,-400.8255 190,-430.8255 338,-430.8255 338,-400.8255 190,-400.8255"/>
<text text-anchor="start" x="198" y="-418.8255" font-family="Helvetica,sans-Serif" font-size="10.00" fill="#000000">SendCoinsDialog::updateCoin</text>
<text text-anchor="middle" x="264" y="-407.8255" font-family="Helvetica,sans-Serif" font-size="10.00" fill="#000000">ControlState</text>
</a>
</g>
</g>
<!-- Node1130&#45;&gt;Node1132 -->
<g id="edge2" class="edge">
<title>Node1130&#45;&gt;Node1132</title>
<path fill="none" stroke="#191970" d="M140.8318,-444.8062C156.691,-441.0746 173.8207,-437.0441 190.1178,-433.2095"/>
<polygon fill="#191970" stroke="#191970" points="191.2061,-436.5491 200.1386,-430.8517 189.6028,-429.7352 191.2061,-436.5491"/>
</g>
<!-- Node1134 -->
<g id="node5" class="node">
<title>Node1134</title>
<g id="a_node5"><a xlink:href="wallet_2fees_8cpp.html#a6530b4650c4167b2365741b937bd09af" target="_top" xlink:title="Estimate the minimum fee considering user set parameters and the required fee. ">
<polygon fill="#ffffff" stroke="#000000" points="219.5,-286.3255 219.5,-305.3255 308.5,-305.3255 308.5,-286.3255 219.5,-286.3255"/>
<text text-anchor="middle" x="264" y="-293.3255" font-family="Helvetica,sans-Serif" font-size="10.00" fill="#000000">GetMinimumFee</text>
</a>
</g>
</g>
<!-- Node1130&#45;&gt;Node1134 -->
<g id="edge4" class="edge">
<title>Node1130&#45;&gt;Node1134</title>
<path fill="none" stroke="#191970" d="M93.2984,-444.7685C115.1116,-424.6967 155.1027,-388.1766 190,-357.8255 208.1833,-342.011 229.2845,-324.4031 244.29,-312.005"/>
<polygon fill="#191970" stroke="#191970" points="246.8616,-314.4211 252.3525,-305.3601 242.4096,-309.0193 246.8616,-314.4211"/>
</g>
<!-- Node1147 -->
<g id="node18" class="node">
<title>Node1147</title>
<g id="a_node18"><a xlink:href="class_c_fee_rate.html#ac772be79983433d442d6b871d2fb6e11" target="_top" xlink:title="Return the fee in satoshis for a size of 1000 bytes. ">
<polygon fill="#ffffff" stroke="#000000" points="566,-324.3255 566,-343.3255 688,-343.3255 688,-324.3255 566,-324.3255"/>
<text text-anchor="middle" x="627" y="-331.3255" font-family="Helvetica,sans-Serif" font-size="10.00" fill="#000000">CFeeRate::GetFeePerK</text>
</a>
</g>
</g>
<!-- Node1130&#45;&gt;Node1147 -->
<g id="edge32" class="edge">
<title>Node1130&#45;&gt;Node1147</title>
<path fill="none" stroke="#191970" d="M96.1313,-444.7839C117.6394,-428.7514 154.2471,-404.031 190,-391.8255 331.4382,-343.5405 376.2102,-375.0601 524,-352.8255 538.6828,-350.6165 554.4783,-347.8836 569.1828,-345.1858"/>
<polygon fill="#191970" stroke="#191970" points="569.9697,-348.5995 579.1614,-343.3305 568.6901,-341.7175 569.9697,-348.5995"/>
</g>
<!-- Node1149 -->
<g id="node20" class="node">
<title>Node1149</title>
<g id="a_node20"><a xlink:href="class_raven_units.html#ad61d958c9c19db002368eec18bf1527c" target="_top" xlink:title="Format as string (with unit) ">
<polygon fill="#ffffff" stroke="#000000" points="379,-521.3255 379,-540.3255 519,-540.3255 519,-521.3255 379,-521.3255"/>
<text text-anchor="middle" x="449" y="-528.3255" font-family="Helvetica,sans-Serif" font-size="10.00" fill="#000000">RavenUnits::formatWithUnit</text>
</a>
</g>
</g>
<!-- Node1130&#45;&gt;Node1149 -->
<g id="edge24" class="edge">
<title>Node1130&#45;&gt;Node1149</title>
<path fill="none" stroke="#191970" d="M154.0786,-474.5367C223.8723,-487.8576 325.2578,-507.208 389.1281,-519.3983"/>
<polygon fill="#191970" stroke="#191970" points="388.5673,-522.8544 399.0462,-521.2913 389.8797,-515.9785 388.5673,-522.8544"/>
</g>
<!-- Node1156 -->
<g id="node27" class="node">
<title>Node1156</title>
<g id="a_node27"><a xlink:href="class_options_model.html#a00a1f0842f764f64086e7d5d42bbce63" target="_top" xlink:title="OptionsModel::getDisplayUnit">
<polygon fill="#ffffff" stroke="#000000" points="375.5,-461.3255 375.5,-480.3255 522.5,-480.3255 522.5,-461.3255 375.5,-461.3255"/>
<text text-anchor="middle" x="449" y="-468.3255" font-family="Helvetica,sans-Serif" font-size="10.00" fill="#000000">OptionsModel::getDisplayUnit</text>
</a>
</g>
</g>
<!-- Node1130&#45;&gt;Node1156 -->
<g id="edge31" class="edge">
<title>Node1130&#45;&gt;Node1156</title>
<path fill="none" stroke="#191970" d="M154.0786,-462.1047C215.5642,-463.9228 301.568,-466.4659 364.8409,-468.3369"/>
<polygon fill="#191970" stroke="#191970" points="365.0895,-471.8457 375.1887,-468.6429 365.2965,-464.8488 365.0895,-471.8457"/>
</g>
<!-- Node1157 -->
<g id="node28" class="node">
<title>Node1157</title>
<g id="a_node28"><a xlink:href="class_send_coins_dialog.html#a454df839e09d247a1df5d7994ba3208e" target="_top" xlink:title="SendCoinsDialog::updateFee\lMinimizedLabel">
<polygon fill="#ffffff" stroke="#000000" points="192,-526.8255 192,-556.8255 336,-556.8255 336,-526.8255 192,-526.8255"/>
<text text-anchor="start" x="200" y="-544.8255" font-family="Helvetica,sans-Serif" font-size="10.00" fill="#000000">SendCoinsDialog::updateFee</text>
<text text-anchor="middle" x="264" y="-533.8255" font-family="Helvetica,sans-Serif" font-size="10.00" fill="#000000">MinimizedLabel</text>
</a>
</g>
</g>
<!-- Node1130&#45;&gt;Node1157 -->
<g id="edge33" class="edge">
<title>Node1130&#45;&gt;Node1157</title>
<path fill="none" stroke="#191970" d="M108.9702,-475.015C131.5023,-485.6028 162.4488,-499.9091 190,-511.8255 198.503,-515.5032 207.6094,-519.3051 216.4248,-522.9159"/>
<polygon fill="#191970" stroke="#191970" points="215.252,-526.2173 225.8338,-526.7439 217.89,-519.7334 215.252,-526.2173"/>
</g>
<!-- Node1133 -->
<g id="node4" class="node">
<title>Node1133</title>
<g id="a_node4"><a xlink:href="policy_2fees_8cpp.html#a71cff9731ecdee1cef8bfc2c12dc3842" target="_top" xlink:title="getConfTargetForIndex">
<polygon fill="#ffffff" stroke="#000000" points="390.5,-406.3255 390.5,-425.3255 507.5,-425.3255 507.5,-406.3255 390.5,-406.3255"/>
<text text-anchor="middle" x="449" y="-413.3255" font-family="Helvetica,sans-Serif" font-size="10.00" fill="#000000">getConfTargetForIndex</text>
</a>
</g>
</g>
<!-- Node1132&#45;&gt;Node1133 -->
<g id="edge3" class="edge">
<title>Node1132&#45;&gt;Node1133</title>
<path fill="none" stroke="#191970" d="M338.1806,-415.8255C352.0388,-415.8255 366.4685,-415.8255 380.1572,-415.8255"/>
<polygon fill="#191970" stroke="#191970" points="380.4589,-419.3256 390.4589,-415.8255 380.4589,-412.3256 380.4589,-419.3256"/>
</g>
<!-- Node1135 -->
<g id="node6" class="node">
<title>Node1135</title>
<g id="a_node6"><a xlink:href="class_c_fee_rate.html#a1173705aceba99303d6485d1c2f3f9a8" target="_top" xlink:title="Return the fee in satoshis for the given size in bytes. ">
<polygon fill="#ffffff" stroke="#000000" points="745.5,-286.3255 745.5,-305.3255 845.5,-305.3255 845.5,-286.3255 745.5,-286.3255"/>
<text text-anchor="middle" x="795.5" y="-293.3255" font-family="Helvetica,sans-Serif" font-size="10.00" fill="#000000">CFeeRate::GetFee</text>
</a>
</g>
</g>
<!-- Node1134&#45;&gt;Node1135 -->
<g id="edge5" class="edge">
<title>Node1134&#45;&gt;Node1135</title>
<path fill="none" stroke="#191970" d="M308.7307,-286.3134C328.6157,-282.5479 352.3737,-278.6795 374,-276.8255 515.7025,-264.6775 552.3861,-263.6851 694,-276.8255 710.4005,-278.3473 728.1024,-281.224 744.0591,-284.287"/>
<polygon fill="#191970" stroke="#191970" points="743.7713,-287.7982 754.2617,-286.3145 745.1357,-280.9325 743.7713,-287.7982"/>
</g>
<!-- Node1136 -->
<g id="node7" class="node">
<title>Node1136</title>
<g id="a_node7"><a xlink:href="class_c_block_policy_estimator.html#af766877edc815e15192134ff3401658c" target="_top" xlink:title="Estimate feerate needed to get be included in a block within confTarget blocks. ">
<polygon fill="#ffffff" stroke="#000000" points="390,-149.8255 390,-179.8255 508,-179.8255 508,-149.8255 390,-149.8255"/>
<text text-anchor="start" x="398" y="-167.8255" font-family="Helvetica,sans-Serif" font-size="10.00" fill="#000000">CBlockPolicyEstimator</text>
<text text-anchor="middle" x="449" y="-156.8255" font-family="Helvetica,sans-Serif" font-size="10.00" fill="#000000">::estimateSmartFee</text>
</a>
</g>
</g>
<!-- Node1134&#45;&gt;Node1136 -->
<g id="edge6" class="edge">
<title>Node1134&#45;&gt;Node1136</title>
<path fill="none" stroke="#191970" d="M277.6035,-286.1927C307.3625,-265.1202 378.8224,-214.5188 419.4514,-185.7491"/>
<polygon fill="#191970" stroke="#191970" points="421.4886,-188.5952 427.6271,-179.9598 417.4433,-182.8824 421.4886,-188.5952"/>
</g>
<!-- Node1145 -->
<g id="node16" class="node">
<title>Node1145</title>
<g id="a_node16"><a xlink:href="class_c_tx_mem_pool.html#a232651541c3393c81153ffc289e7b71d" target="_top" xlink:title="The minimum fee to get into the mempool, which may itself not be enough for larger&#45;sized transactions...">
<polygon fill="#ffffff" stroke="#000000" points="383.5,-286.3255 383.5,-305.3255 514.5,-305.3255 514.5,-286.3255 383.5,-286.3255"/>
<text text-anchor="middle" x="449" y="-293.3255" font-family="Helvetica,sans-Serif" font-size="10.00" fill="#000000">CTxMemPool::GetMinFee</text>
</a>
</g>
</g>
<!-- Node1134&#45;&gt;Node1145 -->
<g id="edge19" class="edge">
<title>Node1134&#45;&gt;Node1145</title>
<path fill="none" stroke="#191970" d="M308.7833,-295.8255C328.0774,-295.8255 351.1855,-295.8255 373.0237,-295.8255"/>
<polygon fill="#191970" stroke="#191970" points="373.2836,-299.3256 383.2835,-295.8255 373.2835,-292.3256 373.2836,-299.3256"/>
</g>
<!-- Node1148 -->
<g id="node19" class="node">
<title>Node1148</title>
<g id="a_node19"><a xlink:href="class_args_manager.html#adb5d644d273b3a259f792affcdca8283" target="_top" xlink:title="Return string argument or default value. ">
<polygon fill="#ffffff" stroke="#000000" points="393.5,-324.3255 393.5,-343.3255 504.5,-343.3255 504.5,-324.3255 393.5,-324.3255"/>
<text text-anchor="middle" x="449" y="-331.3255" font-family="Helvetica,sans-Serif" font-size="10.00" fill="#000000">ArgsManager::GetArg</text>
</a>
</g>
</g>
<!-- Node1134&#45;&gt;Node1148 -->
<g id="edge23" class="edge">
<title>Node1134&#45;&gt;Node1148</title>
<path fill="none" stroke="#191970" d="M308.7833,-305.0242C334.006,-310.2051 365.747,-316.7249 392.6478,-322.2504"/>
<polygon fill="#191970" stroke="#191970" points="392.1974,-325.7309 402.6971,-324.3146 393.6058,-318.8741 392.1974,-325.7309"/>
</g>
<!-- Node1137 -->
<g id="node8" class="node">
<title>Node1137</title>
<g id="a_node8"><a xlink:href="class_tx_confirm_stats.html#a34b67526e2ceea1b81d8669e3faf6a42" target="_top" xlink:title="Return the max number of confirms we&#39;re tracking. ">
<polygon fill="#ffffff" stroke="#000000" points="897,-141.3255 897,-160.3255 1063,-160.3255 1063,-141.3255 897,-141.3255"/>
<text text-anchor="middle" x="980" y="-148.3255" font-family="Helvetica,sans-Serif" font-size="10.00" fill="#000000">TxConfirmStats::GetMaxConfirms</text>
</a>
</g>
</g>
<!-- Node1136&#45;&gt;Node1137 -->
<g id="edge7" class="edge">
<title>Node1136&#45;&gt;Node1137</title>
<path fill="none" stroke="#191970" d="M465.1544,-149.5409C485.8054,-130.6487 523.2953,-98.4732 560,-77.8255 630.3633,-38.2436 650.5723,-28.2813 730,-13.8255 787.2813,-3.4003 808.0247,10.329 861,-13.8255 914.8014,-38.3567 953.6777,-100.5571 970.5946,-132.0062"/>
<polygon fill="#191970" stroke="#191970" points="967.5818,-133.7986 975.3065,-141.0497 973.7897,-130.564 967.5818,-133.7986"/>
</g>
<!-- Node1139 -->
<g id="node10" class="node">
<title>Node1139</title>
<g id="a_node10"><a xlink:href="class_c_block_policy_estimator.html#ae6b52f035c5946e6f29af903400c4972" target="_top" xlink:title="Calculation of highest target that reasonable estimate can be provided for. ">
<polygon fill="#ffffff" stroke="#000000" points="568,-86.8255 568,-116.8255 686,-116.8255 686,-86.8255 568,-86.8255"/>
<text text-anchor="start" x="576" y="-104.8255" font-family="Helvetica,sans-Serif" font-size="10.00" fill="#000000">CBlockPolicyEstimator</text>
<text text-anchor="middle" x="627" y="-93.8255" font-family="Helvetica,sans-Serif" font-size="10.00" fill="#000000">::MaxUsableEstimate</text>
</a>
</g>
</g>
<!-- Node1136&#45;&gt;Node1139 -->
<g id="edge9" class="edge">
<title>Node1136&#45;&gt;Node1139</title>
<path fill="none" stroke="#191970" d="M491.6354,-149.7354C516.6427,-140.8845 548.4256,-129.6355 574.9093,-120.2621"/>
<polygon fill="#191970" stroke="#191970" points="576.1452,-123.5375 584.4043,-116.9015 573.8096,-116.9386 576.1452,-123.5375"/>
</g>
<!-- Node1142 -->
<g id="node13" class="node">
<title>Node1142</title>
<g id="a_node13"><a xlink:href="class_c_block_policy_estimator.html#ad6be71975c32281e23234c14068e009f" target="_top" xlink:title="Helper for estimateSmartFee. ">
<polygon fill="#ffffff" stroke="#000000" points="566.5,-149.8255 566.5,-179.8255 687.5,-179.8255 687.5,-149.8255 566.5,-149.8255"/>
<text text-anchor="start" x="574.5" y="-167.8255" font-family="Helvetica,sans-Serif" font-size="10.00" fill="#000000">CBlockPolicyEstimator</text>
<text text-anchor="middle" x="627" y="-156.8255" font-family="Helvetica,sans-Serif" font-size="10.00" fill="#000000">::estimateCombinedFee</text>
</a>
</g>
</g>
<!-- Node1136&#45;&gt;Node1142 -->
<g id="edge13" class="edge">
<title>Node1136&#45;&gt;Node1142</title>
<path fill="none" stroke="#191970" d="M508.2714,-164.8255C523.6192,-164.8255 540.2996,-164.8255 556.1742,-164.8255"/>
<polygon fill="#191970" stroke="#191970" points="556.4676,-168.3256 566.4676,-164.8255 556.4676,-161.3256 556.4676,-168.3256"/>
</g>
<!-- Node1144 -->
<g id="node15" class="node">
<title>Node1144</title>
<g id="a_node15"><a xlink:href="class_c_block_policy_estimator.html#ac5707c649c1c5989a314a4e0be0e72ac" target="_top" xlink:title="Helper for estimateSmartFee. ">
<polygon fill="#ffffff" stroke="#000000" points="560,-198.8255 560,-228.8255 694,-228.8255 694,-198.8255 560,-198.8255"/>
<text text-anchor="start" x="568" y="-216.8255" font-family="Helvetica,sans-Serif" font-size="10.00" fill="#000000">CBlockPolicyEstimator</text>
<text text-anchor="middle" x="627" y="-205.8255" font-family="Helvetica,sans-Serif" font-size="10.00" fill="#000000">::estimateConservativeFee</text>
</a>
</g>
</g>
<!-- Node1136&#45;&gt;Node1144 -->
<g id="edge17" class="edge">
<title>Node1136&#45;&gt;Node1144</title>
<path fill="none" stroke="#191970" d="M503.8583,-179.9269C522.3865,-185.0274 543.2416,-190.7684 562.4495,-196.056"/>
<polygon fill="#191970" stroke="#191970" points="561.7525,-199.4942 572.3228,-198.7739 563.6104,-192.7453 561.7525,-199.4942"/>
</g>
<!-- Node1138 -->
<g id="node9" class="node">
<title>Node1138</title>
<g id="a_node9"><a xlink:href="class_tx_confirm_stats.html#a8aacab502acae6b278ede7c68c168dc8" target="_top" xlink:title="Write state of estimation data to a file. ">
<polygon fill="#ffffff" stroke="#000000" points="1099,-141.3255 1099,-160.3255 1214,-160.3255 1214,-141.3255 1099,-141.3255"/>
<text text-anchor="middle" x="1156.5" y="-148.3255" font-family="Helvetica,sans-Serif" font-size="10.00" fill="#000000">TxConfirmStats::Write</text>
</a>
</g>
</g>
<!-- Node1137&#45;&gt;Node1138 -->
<g id="edge8" class="edge">
<title>Node1137&#45;&gt;Node1138</title>
<path fill="none" stroke="#191970" d="M1063.0817,-150.8255C1071.6631,-150.8255 1080.3099,-150.8255 1088.6961,-150.8255"/>
<polygon fill="#191970" stroke="#191970" points="1088.7741,-154.3256 1098.7741,-150.8255 1088.7741,-147.3256 1088.7741,-154.3256"/>
</g>
<!-- Node1139&#45;&gt;Node1137 -->
<g id="edge10" class="edge">
<title>Node1139&#45;&gt;Node1137</title>
<path fill="none" stroke="#191970" d="M686.0843,-110.027C745.0493,-118.2119 836.0121,-130.8385 901.12,-139.8761"/>
<polygon fill="#191970" stroke="#191970" points="900.9523,-143.3863 911.3386,-141.2946 901.9148,-136.4528 900.9523,-143.3863"/>
</g>
<!-- Node1140 -->
<g id="node11" class="node">
<title>Node1140</title>
<g id="a_node11"><a xlink:href="class_c_block_policy_estimator.html#ad870b8402333d44c86c35ce1f40e21d7" target="_top" xlink:title="Number of blocks of data recorded while fee estimates have been running. ">
<polygon fill="#ffffff" stroke="#000000" points="736.5,-23.8255 736.5,-53.8255 854.5,-53.8255 854.5,-23.8255 736.5,-23.8255"/>
<text text-anchor="start" x="744.5" y="-41.8255" font-family="Helvetica,sans-Serif" font-size="10.00" fill="#000000">CBlockPolicyEstimator</text>
<text text-anchor="middle" x="795.5" y="-30.8255" font-family="Helvetica,sans-Serif" font-size="10.00" fill="#000000">::BlockSpan</text>
</a>
</g>
</g>
<!-- Node1139&#45;&gt;Node1140 -->
<g id="edge11" class="edge">
<title>Node1139&#45;&gt;Node1140</title>
<path fill="none" stroke="#191970" d="M667.3599,-86.7354C690.8249,-77.9622 720.5918,-66.8327 745.5285,-57.5092"/>
<polygon fill="#191970" stroke="#191970" points="747.0367,-60.682 755.1777,-53.9015 744.5852,-54.1253 747.0367,-60.682"/>
</g>
<!-- Node1141 -->
<g id="node12" class="node">
<title>Node1141</title>
<g id="a_node12"><a xlink:href="class_c_block_policy_estimator.html#a12176ac3e097524b3e7e24a7515d7ea3" target="_top" xlink:title="Number of blocks of recorded fee estimate data represented in saved data file. ">
<polygon fill="#ffffff" stroke="#000000" points="736.5,-72.8255 736.5,-102.8255 854.5,-102.8255 854.5,-72.8255 736.5,-72.8255"/>
<text text-anchor="start" x="744.5" y="-90.8255" font-family="Helvetica,sans-Serif" font-size="10.00" fill="#000000">CBlockPolicyEstimator</text>
<text text-anchor="middle" x="795.5" y="-79.8255" font-family="Helvetica,sans-Serif" font-size="10.00" fill="#000000">::HistoricalBlockSpan</text>
</a>
</g>
</g>
<!-- Node1139&#45;&gt;Node1141 -->
<g id="edge12" class="edge">
<title>Node1139&#45;&gt;Node1141</title>
<path fill="none" stroke="#191970" d="M686.4068,-96.8896C699.318,-95.8169 713.0841,-94.6731 726.3355,-93.5721"/>
<polygon fill="#191970" stroke="#191970" points="726.67,-97.0564 736.3459,-92.7404 726.0904,-90.0805 726.67,-97.0564"/>
</g>
<!-- Node1142&#45;&gt;Node1137 -->
<g id="edge16" class="edge">
<title>Node1142&#45;&gt;Node1137</title>
<path fill="none" stroke="#191970" d="M687.6829,-162.4188C742.3013,-160.2526 823.4119,-157.0358 886.3461,-154.5398"/>
<polygon fill="#191970" stroke="#191970" points="886.8267,-158.0236 896.6801,-154.13 886.5492,-151.0291 886.8267,-158.0236"/>
</g>
<!-- Node1143 -->
<g id="node14" class="node">
<title>Node1143</title>
<g id="a_node14"><a xlink:href="class_tx_confirm_stats.html#aace5d830fdfac5626e7769dee5fe6f11" target="_top" xlink:title="Calculate a feerate estimate. ">
<polygon fill="#ffffff" stroke="#000000" points="730,-198.8255 730,-228.8255 861,-228.8255 861,-198.8255 730,-198.8255"/>
<text text-anchor="start" x="738" y="-216.8255" font-family="Helvetica,sans-Serif" font-size="10.00" fill="#000000">TxConfirmStats::Estimate</text>
<text text-anchor="middle" x="795.5" y="-205.8255" font-family="Helvetica,sans-Serif" font-size="10.00" fill="#000000">MedianVal</text>
</a>
</g>
</g>
<!-- Node1142&#45;&gt;Node1143 -->
<g id="edge14" class="edge">
<title>Node1142&#45;&gt;Node1143</title>
<path fill="none" stroke="#191970" d="M678.9305,-179.9269C696.3089,-184.9806 715.8498,-190.6631 733.8938,-195.9103"/>
<polygon fill="#191970" stroke="#191970" points="733.1614,-199.3423 743.741,-198.7739 735.1161,-192.6207 733.1614,-199.3423"/>
</g>
<!-- Node1143&#45;&gt;Node1137 -->
<g id="edge15" class="edge">
<title>Node1143&#45;&gt;Node1137</title>
<path fill="none" stroke="#191970" d="M839.6923,-198.7354C871.0123,-188.0408 912.5859,-173.8449 942.3337,-163.6871"/>
<polygon fill="#191970" stroke="#191970" points="943.6044,-166.9517 951.9369,-160.408 941.3424,-160.3273 943.6044,-166.9517"/>
</g>
<!-- Node1144&#45;&gt;Node1143 -->
<g id="edge18" class="edge">
<title>Node1144&#45;&gt;Node1143</title>
<path fill="none" stroke="#191970" d="M694.0798,-213.8255C702.4314,-213.8255 711.0181,-213.8255 719.4925,-213.8255"/>
<polygon fill="#191970" stroke="#191970" points="719.7503,-217.3256 729.7503,-213.8255 719.7503,-210.3256 719.7503,-217.3256"/>
</g>
<!-- Node1146 -->
<g id="node17" class="node">
<title>Node1146</title>
<g id="a_node17"><a xlink:href="utiltime_8cpp.html#a46fac5fba8ba905b5f9acb364f5d8c6f" target="_top" xlink:title="GetTimeMicros() and GetTimeMillis() both return the system time, but in different units...">
<polygon fill="#ffffff" stroke="#000000" points="600,-286.3255 600,-305.3255 654,-305.3255 654,-286.3255 600,-286.3255"/>
<text text-anchor="middle" x="627" y="-293.3255" font-family="Helvetica,sans-Serif" font-size="10.00" fill="#000000">GetTime</text>
</a>
</g>
</g>
<!-- Node1145&#45;&gt;Node1146 -->
<g id="edge20" class="edge">
<title>Node1145&#45;&gt;Node1146</title>
<path fill="none" stroke="#191970" d="M514.5223,-295.8255C539.9084,-295.8255 568.0391,-295.8255 589.8177,-295.8255"/>
<polygon fill="#191970" stroke="#191970" points="589.9589,-299.3256 599.9588,-295.8255 589.9588,-292.3256 589.9589,-299.3256"/>
</g>
<!-- Node1145&#45;&gt;Node1147 -->
<g id="edge21" class="edge">
<title>Node1145&#45;&gt;Node1147</title>
<path fill="none" stroke="#191970" d="M493.9169,-305.4145C517.8292,-310.5193 547.4214,-316.8368 572.6249,-322.2173"/>
<polygon fill="#191970" stroke="#191970" points="571.8957,-325.6404 582.4061,-324.3054 573.3572,-318.7947 571.8957,-325.6404"/>
</g>
<!-- Node1147&#45;&gt;Node1135 -->
<g id="edge22" class="edge">
<title>Node1147&#45;&gt;Node1135</title>
<path fill="none" stroke="#191970" d="M669.5197,-324.2365C691.9554,-319.1768 719.6732,-312.9259 743.3925,-307.5767"/>
<polygon fill="#191970" stroke="#191970" points="744.3011,-310.9598 753.2861,-305.3455 742.7611,-304.1313 744.3011,-310.9598"/>
</g>
<!-- Node1150 -->
<g id="node21" class="node">
<title>Node1150</title>
<g id="a_node21"><a xlink:href="class_raven_units.html#ad41cc41215cd361cdc458aec1cd05786" target="_top" xlink:title="Format as string. ">
<polygon fill="#ffffff" stroke="#000000" points="576,-502.3255 576,-521.3255 678,-521.3255 678,-502.3255 576,-502.3255"/>
<text text-anchor="middle" x="627" y="-509.3255" font-family="Helvetica,sans-Serif" font-size="10.00" fill="#000000">RavenUnits::format</text>
</a>
</g>
</g>
<!-- Node1149&#45;&gt;Node1150 -->
<g id="edge25" class="edge">
<title>Node1149&#45;&gt;Node1150</title>
<path fill="none" stroke="#191970" d="M519.0948,-523.3435C534.5088,-521.6981 550.7159,-519.9682 565.7493,-518.3635"/>
<polygon fill="#191970" stroke="#191970" points="566.3733,-521.8168 575.9453,-517.2751 565.6303,-514.8564 566.3733,-521.8168"/>
</g>
<!-- Node1155 -->
<g id="node26" class="node">
<title>Node1155</title>
<g id="a_node26"><a xlink:href="class_raven_units.html#a357d3a6cb01154a8da132d435c7fd436" target="_top" xlink:title="Short name. ">
<polygon fill="#ffffff" stroke="#000000" points="578,-540.3255 578,-559.3255 676,-559.3255 676,-540.3255 578,-540.3255"/>
<text text-anchor="middle" x="627" y="-547.3255" font-family="Helvetica,sans-Serif" font-size="10.00" fill="#000000">RavenUnits::name</text>
</a>
</g>
</g>
<!-- Node1149&#45;&gt;Node1155 -->
<g id="edge30" class="edge">
<title>Node1149&#45;&gt;Node1155</title>
<path fill="none" stroke="#191970" d="M519.0948,-538.3075C535.2156,-540.0283 552.204,-541.8416 567.8099,-543.5074"/>
<polygon fill="#191970" stroke="#191970" points="567.5275,-546.9971 577.8425,-544.5783 568.2705,-540.0366 567.5275,-546.9971"/>
</g>
<!-- Node1151 -->
<g id="node22" class="node">
<title>Node1151</title>
<g id="a_node22"><a xlink:href="class_raven_units.html#a559a7cae18b466371401f02d6407c9c5" target="_top" xlink:title="Is unit ID valid? ">
<polygon fill="#ffffff" stroke="#000000" points="748,-521.3255 748,-540.3255 843,-540.3255 843,-521.3255 748,-521.3255"/>
<text text-anchor="middle" x="795.5" y="-528.3255" font-family="Helvetica,sans-Serif" font-size="10.00" fill="#000000">RavenUnits::valid</text>
</a>
</g>
</g>
<!-- Node1150&#45;&gt;Node1151 -->
<g id="edge26" class="edge">
<title>Node1150&#45;&gt;Node1151</title>
<path fill="none" stroke="#191970" d="M678.0128,-517.5777C696.9019,-519.7076 718.4456,-522.1368 737.8815,-524.3284"/>
<polygon fill="#191970" stroke="#191970" points="737.4987,-527.8074 747.828,-525.45 738.2831,-520.8515 737.4987,-527.8074"/>
</g>
<!-- Node1152 -->
<g id="node23" class="node">
<title>Node1152</title>
<g id="a_node23"><a xlink:href="class_raven_units.html#aea6fad621ac4f75381406d5ca415f78e" target="_top" xlink:title="Number of Satoshis (1e&#45;8) per unit for assets. ">
<polygon fill="#ffffff" stroke="#000000" points="733,-483.3255 733,-502.3255 858,-502.3255 858,-483.3255 733,-483.3255"/>
<text text-anchor="middle" x="795.5" y="-490.3255" font-family="Helvetica,sans-Serif" font-size="10.00" fill="#000000">RavenUnits::factorAsset</text>
</a>
</g>
</g>
<!-- Node1150&#45;&gt;Node1152 -->
<g id="edge27" class="edge">
<title>Node1150&#45;&gt;Node1152</title>
<path fill="none" stroke="#191970" d="M678.0128,-506.0733C692.0217,-504.4937 707.4906,-502.7494 722.477,-501.0595"/>
<polygon fill="#191970" stroke="#191970" points="723.2064,-504.4996 732.7512,-499.901 722.422,-497.5436 723.2064,-504.4996"/>
</g>
<!-- Node1153 -->
<g id="node24" class="node">
<title>Node1153</title>
<g id="a_node24"><a xlink:href="class_raven_units.html#a56c9ff217422454061562a0612bf61ec" target="_top" xlink:title="Number of Satoshis (1e&#45;8) per unit. ">
<polygon fill="#ffffff" stroke="#000000" points="746,-445.3255 746,-464.3255 845,-464.3255 845,-445.3255 746,-445.3255"/>
<text text-anchor="middle" x="795.5" y="-452.3255" font-family="Helvetica,sans-Serif" font-size="10.00" fill="#000000">RavenUnits::factor</text>
</a>
</g>
</g>
<!-- Node1150&#45;&gt;Node1153 -->
<g id="edge28" class="edge">
<title>Node1150&#45;&gt;Node1153</title>
<path fill="none" stroke="#191970" d="M651.385,-502.2719C672.1477,-494.2719 702.8423,-482.7615 730,-473.8255 736.8818,-471.5611 744.2158,-469.2937 751.3926,-467.1541"/>
<polygon fill="#191970" stroke="#191970" points="752.4145,-470.5019 761.0246,-464.328 750.4437,-463.7851 752.4145,-470.5019"/>
</g>
<!-- Node1154 -->
<g id="node25" class="node">
<title>Node1154</title>
<g id="a_node25"><a xlink:href="class_raven_units.html#ab3396a763c2ca8042f331f32904b0580" target="_top" xlink:title="Number of decimals left. ">
<polygon fill="#ffffff" stroke="#000000" points="739,-559.3255 739,-578.3255 852,-578.3255 852,-559.3255 739,-559.3255"/>
<text text-anchor="middle" x="795.5" y="-566.3255" font-family="Helvetica,sans-Serif" font-size="10.00" fill="#000000">RavenUnits::decimals</text>
</a>
</g>
</g>
<!-- Node1150&#45;&gt;Node1154 -->
<g id="edge29" class="edge">
<title>Node1150&#45;&gt;Node1154</title>
<path fill="none" stroke="#191970" d="M666.0806,-521.4207C675.3585,-524.105 685.1332,-527.274 694,-530.8255 710.7945,-537.5524 713.2257,-543.0482 730,-549.8255 735.7635,-552.1541 741.9178,-554.3267 748.0602,-556.3094"/>
<polygon fill="#191970" stroke="#191970" points="747.0576,-559.6628 757.6449,-559.2637 749.1196,-552.9733 747.0576,-559.6628"/>
</g>
<!-- Node1157&#45;&gt;Node1131 -->
<g id="edge34" class="edge">
<title>Node1157&#45;&gt;Node1131</title>
<path fill="none" stroke="#191970" d="M331.8367,-556.8596C353.0091,-561.5518 376.0413,-566.6562 396.0371,-571.0878"/>
<polygon fill="#191970" stroke="#191970" points="395.3679,-574.5243 405.8884,-573.271 396.8826,-567.6901 395.3679,-574.5243"/>
</g>
<!-- Node1157&#45;&gt;Node1149 -->
<g id="edge35" class="edge">
<title>Node1157&#45;&gt;Node1149</title>
<path fill="none" stroke="#191970" d="M336.0556,-537.5411C346.7424,-536.9057 357.8125,-536.2474 368.6558,-535.6027"/>
<polygon fill="#191970" stroke="#191970" points="369.188,-539.0773 378.9626,-534.9899 368.7724,-532.0897 369.188,-539.0773"/>
</g>
<!-- Node1157&#45;&gt;Node1156 -->
<g id="edge36" class="edge">
<title>Node1157&#45;&gt;Node1156</title>
<path fill="none" stroke="#191970" d="M303.2337,-526.7682C336.1569,-514.1328 382.7368,-496.2562 414.3134,-484.1376"/>
<polygon fill="#191970" stroke="#191970" points="415.92,-487.27 424.002,-480.4193 413.4119,-480.7348 415.92,-487.27"/>
</g>
</g>
</svg>
