<?xml version="1.0" encoding="UTF-8" standalone="no"?>
<!DOCTYPE svg PUBLIC "-//W3C//DTD SVG 1.1//EN"
 "http://www.w3.org/Graphics/SVG/1.1/DTD/svg11.dtd">
<!-- Generated by graphviz version 2.40.1 (20161225.0304)
 -->
<!-- Title: CChainParams::IssueQualifierAssetBurnAddress Pages: 1 -->
<svg width="473pt" height="39pt"
 viewBox="0.00 0.00 473.00 39.00" xmlns="http://www.w3.org/2000/svg" xmlns:xlink="http://www.w3.org/1999/xlink">
<g id="graph0" class="graph" transform="scale(1 1) rotate(0) translate(4 35)">
<title>CChainParams::IssueQualifierAssetBurnAddress</title>
<polygon fill="#ffffff" stroke="transparent" points="-4,4 -4,-35 469,-35 469,4 -4,4"/>
<!-- Node272 -->
<g id="node1" class="node">
<title>Node272</title>
<polygon fill="#bfbfbf" stroke="#000000" points="0,-.5 0,-30.5 149,-30.5 149,-.5 0,-.5"/>
<text text-anchor="start" x="8" y="-18.5" font-family="Helvetica,sans-Serif" font-size="10.00" fill="#000000">CChainParams::IssueQualifier</text>
<text text-anchor="middle" x="74.5" y="-7.5" font-family="Helvetica,sans-Serif" font-size="10.00" fill="#000000">AssetBurnAddress</text>
</g>
<!-- Node273 -->
<g id="node2" class="node">
<title>Node273</title>
<g id="a_node2"><a xlink:href="assets_8h.html#a40b0579846255b204489d91fecfee1eb" target="_top" xlink:title="Functions to be used to get access to the burn address for a given asset type issuance. ">
<polygon fill="#ffffff" stroke="#000000" points="185,-6 185,-25 274,-25 274,-6 185,-6"/>
<text text-anchor="middle" x="229.5" y="-13" font-family="Helvetica,sans-Serif" font-size="10.00" fill="#000000">GetBurnAddress</text>
</a>
</g>
</g>
<!-- Node272&#45;&gt;Node273 -->
<g id="edge1" class="edge">
<title>Node272&#45;&gt;Node273</title>
<path fill="none" stroke="#191970" d="M159.4604,-15.5C168.1095,-15.5 176.6334,-15.5 184.596,-15.5"/>
<polygon fill="#191970" stroke="#191970" points="159.2759,-12.0001 149.2759,-15.5 159.2759,-19.0001 159.2759,-12.0001"/>
</g>
<!-- Node274 -->
<g id="node3" class="node">
<title>Node274</title>
<g id="a_node3"><a xlink:href="class_c_assets_cache.html#a117ef717832c597298ad096e2dbc3299" target="_top" xlink:title="CAssetsCache::CacheToString">
<polygon fill="#ffffff" stroke="#000000" points="310,-6 310,-25 465,-25 465,-6 310,-6"/>
<text text-anchor="middle" x="387.5" y="-13" font-family="Helvetica,sans-Serif" font-size="10.00" fill="#000000">CAssetsCache::CacheToString</text>
</a>
</g>
</g>
<!-- Node273&#45;&gt;Node274 -->
<g id="edge2" class="edge">
<title>Node273&#45;&gt;Node274</title>
<path fill="none" stroke="#191970" d="M284.5325,-15.5C292.754,-15.5 301.3579,-15.5 309.9392,-15.5"/>
<polygon fill="#191970" stroke="#191970" points="284.3539,-12.0001 274.3538,-15.5 284.3538,-19.0001 284.3539,-12.0001"/>
</g>
</g>
</svg>
