<?xml version="1.0" encoding="UTF-8" standalone="no"?>
<!DOCTYPE svg PUBLIC "-//W3C//DTD SVG 1.1//EN"
 "http://www.w3.org/Graphics/SVG/1.1/DTD/svg11.dtd">
<!-- Generated by graphviz version 2.40.1 (20161225.0304)
 -->
<!-- Title: CBlockPolicyEstimator::estimateRawFee Pages: 1 -->
<svg width="384pt" height="78pt"
 viewBox="0.00 0.00 384.00 77.50" xmlns="http://www.w3.org/2000/svg" xmlns:xlink="http://www.w3.org/1999/xlink">
<g id="graph0" class="graph" transform="scale(1 1) rotate(0) translate(4 73.5)">
<title>CBlockPolicyEstimator::estimateRawFee</title>
<polygon fill="#ffffff" stroke="transparent" points="-4,4 -4,-73.5 380,-73.5 380,4 -4,4"/>
<!-- Node115 -->
<g id="node1" class="node">
<title>Node115</title>
<polygon fill="#bfbfbf" stroke="#000000" points="0,-17 0,-47 118,-47 118,-17 0,-17"/>
<text text-anchor="start" x="8" y="-35" font-family="Helvetica,sans-Serif" font-size="10.00" fill="#000000">CBlockPolicyEstimator</text>
<text text-anchor="middle" x="59" y="-24" font-family="Helvetica,sans-Serif" font-size="10.00" fill="#000000">::estimateRawFee</text>
</g>
<!-- Node116 -->
<g id="node2" class="node">
<title>Node116</title>
<g id="a_node2"><a xlink:href="class_c_block_policy_estimator.html#afc9f48173aaac7ca0cd2460d4ed348f6" target="_top" xlink:title="DEPRECATED. ">
<polygon fill="#ffffff" stroke="#000000" points="154,-39 154,-69 272,-69 272,-39 154,-39"/>
<text text-anchor="start" x="162" y="-57" font-family="Helvetica,sans-Serif" font-size="10.00" fill="#000000">CBlockPolicyEstimator</text>
<text text-anchor="middle" x="213" y="-46" font-family="Helvetica,sans-Serif" font-size="10.00" fill="#000000">::estimateFee</text>
</a>
</g>
</g>
<!-- Node115&#45;&gt;Node116 -->
<g id="edge1" class="edge">
<title>Node115&#45;&gt;Node116</title>
<path fill="none" stroke="#191970" d="M128.0892,-41.8699C136.6724,-43.0961 145.3881,-44.3412 153.8037,-45.5434"/>
<polygon fill="#191970" stroke="#191970" points="128.4945,-38.3923 118.1,-40.4429 127.5045,-45.322 128.4945,-38.3923"/>
</g>
<!-- Node118 -->
<g id="node4" class="node">
<title>Node118</title>
<g id="a_node4"><a xlink:href="mining_8cpp.html#af9521f9858269fec01965f9bb1563dcc" target="_top" xlink:title="estimaterawfee">
<polygon fill="#ffffff" stroke="#000000" points="171.5,-.5 171.5,-19.5 254.5,-19.5 254.5,-.5 171.5,-.5"/>
<text text-anchor="middle" x="213" y="-7.5" font-family="Helvetica,sans-Serif" font-size="10.00" fill="#000000">estimaterawfee</text>
</a>
</g>
</g>
<!-- Node115&#45;&gt;Node118 -->
<g id="edge3" class="edge">
<title>Node115&#45;&gt;Node118</title>
<path fill="none" stroke="#191970" d="M128.2352,-22.1093C143.0029,-19.9996 158.1554,-17.8349 171.4902,-15.93"/>
<polygon fill="#191970" stroke="#191970" points="127.5045,-18.678 118.1,-23.5571 128.4945,-25.6077 127.5045,-18.678"/>
</g>
<!-- Node117 -->
<g id="node3" class="node">
<title>Node117</title>
<g id="a_node3"><a xlink:href="mining_8cpp.html#a9337f53fdcee55966dff25f5935d9126" target="_top" xlink:title="estimatefee">
<polygon fill="#ffffff" stroke="#000000" points="308,-44.5 308,-63.5 376,-63.5 376,-44.5 308,-44.5"/>
<text text-anchor="middle" x="342" y="-51.5" font-family="Helvetica,sans-Serif" font-size="10.00" fill="#000000">estimatefee</text>
</a>
</g>
</g>
<!-- Node116&#45;&gt;Node117 -->
<g id="edge2" class="edge">
<title>Node116&#45;&gt;Node117</title>
<path fill="none" stroke="#191970" d="M282.2324,-54C291.0924,-54 299.8326,-54 307.7796,-54"/>
<polygon fill="#191970" stroke="#191970" points="282.2143,-50.5001 272.2143,-54 282.2142,-57.5001 282.2143,-50.5001"/>
</g>
</g>
</svg>
