<?xml version="1.0" encoding="UTF-8" standalone="no"?>
<!DOCTYPE svg PUBLIC "-//W3C//DTD SVG 1.1//EN"
 "http://www.w3.org/Graphics/SVG/1.1/DTD/svg11.dtd">
<!-- Generated by graphviz version 2.40.1 (20161225.0304)
 -->
<!-- Title: CreateAssetDialog::setupFeeControl Pages: 1 -->
<svg width="284pt" height="116pt"
 viewBox="0.00 0.00 284.00 115.50" xmlns="http://www.w3.org/2000/svg" xmlns:xlink="http://www.w3.org/1999/xlink">
<g id="graph0" class="graph" transform="scale(1 1) rotate(0) translate(4 111.5)">
<title>CreateAssetDialog::setupFeeControl</title>
<polygon fill="#ffffff" stroke="transparent" points="-4,4 -4,-111.5 280,-111.5 280,4 -4,4"/>
<!-- Node1408 -->
<g id="node1" class="node">
<title>Node1408</title>
<polygon fill="#bfbfbf" stroke="#000000" points="0,-33 0,-63 105,-63 105,-33 0,-33"/>
<text text-anchor="start" x="8" y="-51" font-family="Helvetica,sans-Serif" font-size="10.00" fill="#000000">CreateAssetDialog::</text>
<text text-anchor="middle" x="52.5" y="-40" font-family="Helvetica,sans-Serif" font-size="10.00" fill="#000000">setupFeeControl</text>
</g>
<!-- Node1409 -->
<g id="node2" class="node">
<title>Node1409</title>
<g id="a_node2"><a xlink:href="class_platform_style.html#a4e298def69a98d6a39236f24570878bb" target="_top" xlink:title="PlatformStyle::WidgetBack\lGroundColor">
<polygon fill="#ffffff" stroke="#000000" points="141,-77 141,-107 276,-107 276,-77 141,-77"/>
<text text-anchor="start" x="149" y="-95" font-family="Helvetica,sans-Serif" font-size="10.00" fill="#000000">PlatformStyle::WidgetBack</text>
<text text-anchor="middle" x="208.5" y="-84" font-family="Helvetica,sans-Serif" font-size="10.00" fill="#000000">GroundColor</text>
</a>
</g>
</g>
<!-- Node1408&#45;&gt;Node1409 -->
<g id="edge1" class="edge">
<title>Node1408&#45;&gt;Node1409</title>
<path fill="none" stroke="#191970" d="M105.3145,-62.8964C118.1341,-66.5122 131.9705,-70.4148 145.219,-74.1515"/>
<polygon fill="#191970" stroke="#191970" points="144.6345,-77.6231 155.2091,-76.9692 146.5347,-70.886 144.6345,-77.6231"/>
</g>
<!-- Node1410 -->
<g id="node3" class="node">
<title>Node1410</title>
<g id="a_node3"><a xlink:href="namespace_g_u_i_util.html#ae5e1dcf10da1e70457dbfd0634bad52a" target="_top" xlink:title="GUIUtil::getShadowEffect">
<polygon fill="#ffffff" stroke="#000000" points="143,-38.5 143,-57.5 274,-57.5 274,-38.5 143,-38.5"/>
<text text-anchor="middle" x="208.5" y="-45.5" font-family="Helvetica,sans-Serif" font-size="10.00" fill="#000000">GUIUtil::getShadowEffect</text>
</a>
</g>
</g>
<!-- Node1408&#45;&gt;Node1410 -->
<g id="edge2" class="edge">
<title>Node1408&#45;&gt;Node1410</title>
<path fill="none" stroke="#191970" d="M105.3145,-48C114.1427,-48 123.453,-48 132.7215,-48"/>
<polygon fill="#191970" stroke="#191970" points="132.7376,-51.5001 142.7376,-48 132.7376,-44.5001 132.7376,-51.5001"/>
</g>
<!-- Node1411 -->
<g id="node4" class="node">
<title>Node1411</title>
<g id="a_node4"><a xlink:href="namespace_g_u_i_util.html#a8be38945b1ea26b68f766eabac8c4a2a" target="_top" xlink:title="GUIUtil::getSubLabelFont">
<polygon fill="#ffffff" stroke="#000000" points="144,-.5 144,-19.5 273,-19.5 273,-.5 144,-.5"/>
<text text-anchor="middle" x="208.5" y="-7.5" font-family="Helvetica,sans-Serif" font-size="10.00" fill="#000000">GUIUtil::getSubLabelFont</text>
</a>
</g>
</g>
<!-- Node1408&#45;&gt;Node1411 -->
<g id="edge3" class="edge">
<title>Node1408&#45;&gt;Node1411</title>
<path fill="none" stroke="#191970" d="M105.3145,-35.1349C122.7526,-30.8872 142.0721,-26.1812 159.2341,-22.0007"/>
<polygon fill="#191970" stroke="#191970" points="160.1715,-25.3748 169.059,-19.6074 158.5147,-18.5736 160.1715,-25.3748"/>
</g>
</g>
</svg>
