<?xml version="1.0" encoding="UTF-8" standalone="no"?>
<!DOCTYPE svg PUBLIC "-//W3C//DTD SVG 1.1//EN"
 "http://www.w3.org/Graphics/SVG/1.1/DTD/svg11.dtd">
<!-- Generated by graphviz version 2.40.1 (20161225.0304)
 -->
<!-- Title: ReissueAssetDialog::setDisplayedDataToNone Pages: 1 -->
<svg width="587pt" height="159pt"
 viewBox="0.00 0.00 587.00 159.00" xmlns="http://www.w3.org/2000/svg" xmlns:xlink="http://www.w3.org/1999/xlink">
<g id="graph0" class="graph" transform="scale(1 1) rotate(0) translate(4 155)">
<title>ReissueAssetDialog::setDisplayedDataToNone</title>
<polygon fill="#ffffff" stroke="transparent" points="-4,4 -4,-155 583,-155 583,4 -4,4"/>
<!-- Node1350 -->
<g id="node1" class="node">
<title>Node1350</title>
<polygon fill="#bfbfbf" stroke="#000000" points="0,-71.5 0,-101.5 135,-101.5 135,-71.5 0,-71.5"/>
<text text-anchor="start" x="8" y="-89.5" font-family="Helvetica,sans-Serif" font-size="10.00" fill="#000000">ReissueAssetDialog</text>
<text text-anchor="middle" x="67.5" y="-78.5" font-family="Helvetica,sans-Serif" font-size="10.00" fill="#000000">::setDisplayedDataToNone</text>
</g>
<!-- Node1351 -->
<g id="node2" class="node">
<title>Node1351</title>
<g id="a_node2"><a xlink:href="class_reissue_asset_dialog.html#aa720c37b57893f599810b5a5bc1601df" target="_top" xlink:title="Helper Methods. ">
<polygon fill="#ffffff" stroke="#000000" points="171,-120.5 171,-150.5 277,-150.5 277,-120.5 171,-120.5"/>
<text text-anchor="start" x="179" y="-138.5" font-family="Helvetica,sans-Serif" font-size="10.00" fill="#000000">ReissueAssetDialog</text>
<text text-anchor="middle" x="224" y="-127.5" font-family="Helvetica,sans-Serif" font-size="10.00" fill="#000000">::setUpValues</text>
</a>
</g>
</g>
<!-- Node1350&#45;&gt;Node1351 -->
<g id="edge1" class="edge">
<title>Node1350&#45;&gt;Node1351</title>
<path fill="none" stroke="#191970" d="M125.3504,-104.6129C141.9883,-109.8222 159.9489,-115.4457 175.9271,-120.4484"/>
<polygon fill="#191970" stroke="#191970" points="126.3211,-101.2494 115.7322,-101.6014 124.2295,-107.9296 126.3211,-101.2494"/>
</g>
<!-- Node1352 -->
<g id="node3" class="node">
<title>Node1352</title>
<g id="a_node3"><a xlink:href="class_reissue_asset_dialog.html#a8c5e97e2a387224aad484305355c42cf" target="_top" xlink:title="SLOTS. ">
<polygon fill="#ffffff" stroke="#000000" points="171,-71.5 171,-101.5 277,-101.5 277,-71.5 171,-71.5"/>
<text text-anchor="start" x="179" y="-89.5" font-family="Helvetica,sans-Serif" font-size="10.00" fill="#000000">ReissueAssetDialog</text>
<text text-anchor="middle" x="224" y="-78.5" font-family="Helvetica,sans-Serif" font-size="10.00" fill="#000000">::onAssetSelected</text>
</a>
</g>
</g>
<!-- Node1350&#45;&gt;Node1352 -->
<g id="edge2" class="edge">
<title>Node1350&#45;&gt;Node1352</title>
<path fill="none" stroke="#191970" d="M145.3233,-86.5C153.9428,-86.5 162.5692,-86.5 170.7842,-86.5"/>
<polygon fill="#191970" stroke="#191970" points="145.233,-83.0001 135.233,-86.5 145.2329,-90.0001 145.233,-83.0001"/>
</g>
<!-- Node1355 -->
<g id="node6" class="node">
<title>Node1355</title>
<g id="a_node6"><a xlink:href="class_reissue_asset_dialog.html#aafd6ecc466cab83a381e1fad50708853" target="_top" xlink:title="ReissueAssetDialog\l::clear">
<polygon fill="#ffffff" stroke="#000000" points="171,-22.5 171,-52.5 277,-52.5 277,-22.5 171,-22.5"/>
<text text-anchor="start" x="179" y="-40.5" font-family="Helvetica,sans-Serif" font-size="10.00" fill="#000000">ReissueAssetDialog</text>
<text text-anchor="middle" x="224" y="-29.5" font-family="Helvetica,sans-Serif" font-size="10.00" fill="#000000">::clear</text>
</a>
</g>
</g>
<!-- Node1350&#45;&gt;Node1355 -->
<g id="edge5" class="edge">
<title>Node1350&#45;&gt;Node1355</title>
<path fill="none" stroke="#191970" d="M125.3504,-68.3871C141.9883,-63.1778 159.9489,-57.5543 175.9271,-52.5516"/>
<polygon fill="#191970" stroke="#191970" points="124.2295,-65.0704 115.7322,-71.3986 126.3211,-71.7506 124.2295,-65.0704"/>
</g>
<!-- Node1353 -->
<g id="node4" class="node">
<title>Node1353</title>
<g id="a_node4"><a xlink:href="class_reissue_asset_dialog.html#aee7cca850e09ac4cbedb7175feea7038" target="_top" xlink:title="ReissueAssetDialog\l::ReissueAssetDialog">
<polygon fill="#ffffff" stroke="#000000" points="467,-46.5 467,-76.5 579,-76.5 579,-46.5 467,-46.5"/>
<text text-anchor="start" x="475" y="-64.5" font-family="Helvetica,sans-Serif" font-size="10.00" fill="#000000">ReissueAssetDialog</text>
<text text-anchor="middle" x="523" y="-53.5" font-family="Helvetica,sans-Serif" font-size="10.00" fill="#000000">::ReissueAssetDialog</text>
</a>
</g>
</g>
<!-- Node1352&#45;&gt;Node1353 -->
<g id="edge3" class="edge">
<title>Node1352&#45;&gt;Node1353</title>
<path fill="none" stroke="#191970" d="M287.2257,-92.6882C328.398,-95.4239 383.1521,-96.62 431,-89.5 448.3394,-86.9198 466.9321,-81.7458 482.833,-76.5398"/>
<polygon fill="#191970" stroke="#191970" points="287.2869,-89.1837 277.0632,-91.9636 286.789,-96.166 287.2869,-89.1837"/>
</g>
<!-- Node1354 -->
<g id="node5" class="node">
<title>Node1354</title>
<g id="a_node5"><a xlink:href="class_reissue_asset_dialog.html#ae74a27a150a383c12e0360eaf597251c" target="_top" xlink:title="ReissueAssetDialog\l::focusReissueAsset">
<polygon fill="#ffffff" stroke="#000000" points="318,-49.5 318,-79.5 426,-79.5 426,-49.5 318,-49.5"/>
<text text-anchor="start" x="326" y="-67.5" font-family="Helvetica,sans-Serif" font-size="10.00" fill="#000000">ReissueAssetDialog</text>
<text text-anchor="middle" x="372" y="-56.5" font-family="Helvetica,sans-Serif" font-size="10.00" fill="#000000">::focusReissueAsset</text>
</a>
</g>
</g>
<!-- Node1352&#45;&gt;Node1354 -->
<g id="edge4" class="edge">
<title>Node1352&#45;&gt;Node1354</title>
<path fill="none" stroke="#191970" d="M287.1208,-77.1172C297.3526,-75.5962 307.8682,-74.0331 317.8617,-72.5476"/>
<polygon fill="#191970" stroke="#191970" points="286.39,-73.6873 277.0134,-78.6196 287.4193,-80.6112 286.39,-73.6873"/>
</g>
<!-- Node1355&#45;&gt;Node1354 -->
<g id="edge8" class="edge">
<title>Node1355&#45;&gt;Node1354</title>
<path fill="none" stroke="#191970" d="M287.1208,-49.0153C297.3526,-50.8819 307.8682,-52.8003 317.8617,-54.6234"/>
<polygon fill="#191970" stroke="#191970" points="287.4792,-45.523 277.0134,-47.1714 286.2228,-52.4093 287.4792,-45.523"/>
</g>
<!-- Node1356 -->
<g id="node7" class="node">
<title>Node1356</title>
<g id="a_node7"><a xlink:href="class_reissue_asset_dialog.html#a8d382efad25b258bf68627fde8b67c3d" target="_top" xlink:title="ReissueAssetDialog\l::onClearButtonClicked">
<polygon fill="#ffffff" stroke="#000000" points="313,-.5 313,-30.5 431,-30.5 431,-.5 313,-.5"/>
<text text-anchor="start" x="321" y="-18.5" font-family="Helvetica,sans-Serif" font-size="10.00" fill="#000000">ReissueAssetDialog</text>
<text text-anchor="middle" x="372" y="-7.5" font-family="Helvetica,sans-Serif" font-size="10.00" fill="#000000">::onClearButtonClicked</text>
</a>
</g>
</g>
<!-- Node1355&#45;&gt;Node1356 -->
<g id="edge6" class="edge">
<title>Node1355&#45;&gt;Node1356</title>
<path fill="none" stroke="#191970" d="M286.961,-28.1409C295.5383,-26.8659 304.318,-25.5608 312.8252,-24.2963"/>
<polygon fill="#191970" stroke="#191970" points="286.39,-24.6873 277.0134,-29.6196 287.4193,-31.6112 286.39,-24.6873"/>
</g>
<!-- Node1356&#45;&gt;Node1353 -->
<g id="edge7" class="edge">
<title>Node1356&#45;&gt;Node1353</title>
<path fill="none" stroke="#191970" d="M431.0578,-33.4911C445.1691,-37.7899 460.0857,-42.3341 473.7039,-46.4826"/>
<polygon fill="#191970" stroke="#191970" points="432.029,-30.1282 421.443,-30.5621 429.9891,-36.8244 432.029,-30.1282"/>
</g>
</g>
</svg>
