<?xml version="1.0" encoding="UTF-8" standalone="no"?>
<!DOCTYPE svg PUBLIC "-//W3C//DTD SVG 1.1//EN"
 "http://www.w3.org/Graphics/SVG/1.1/DTD/svg11.dtd">
<!-- Generated by graphviz version 2.40.1 (20161225.0304)
 -->
<!-- Title: WalletModel::listAssets Pages: 1 -->
<svg width="921pt" height="223pt"
 viewBox="0.00 0.00 921.00 223.00" xmlns="http://www.w3.org/2000/svg" xmlns:xlink="http://www.w3.org/1999/xlink">
<g id="graph0" class="graph" transform="scale(1 1) rotate(0) translate(4 219)">
<title>WalletModel::listAssets</title>
<polygon fill="#ffffff" stroke="transparent" points="-4,4 -4,-219 917,-219 917,4 -4,4"/>
<!-- Node1021 -->
<g id="node1" class="node">
<title>Node1021</title>
<polygon fill="#bfbfbf" stroke="#000000" points="0,-99 0,-118 120,-118 120,-99 0,-99"/>
<text text-anchor="middle" x="60" y="-106" font-family="Helvetica,sans-Serif" font-size="10.00" fill="#000000">WalletModel::listAssets</text>
</g>
<!-- Node1022 -->
<g id="node2" class="node">
<title>Node1022</title>
<g id="a_node2"><a xlink:href="class_asset_control_dialog.html#a35356054e1ff12c3cc49e4b7c505be18" target="_top" xlink:title="AssetControlDialog\l::updateView">
<polygon fill="#ffffff" stroke="#000000" points="156,-93.5 156,-123.5 257,-123.5 257,-93.5 156,-93.5"/>
<text text-anchor="start" x="164" y="-111.5" font-family="Helvetica,sans-Serif" font-size="10.00" fill="#000000">AssetControlDialog</text>
<text text-anchor="middle" x="206.5" y="-100.5" font-family="Helvetica,sans-Serif" font-size="10.00" fill="#000000">::updateView</text>
</a>
</g>
</g>
<!-- Node1021&#45;&gt;Node1022 -->
<g id="edge1" class="edge">
<title>Node1021&#45;&gt;Node1022</title>
<path fill="none" stroke="#191970" d="M130.0954,-108.5C138.7344,-108.5 147.4319,-108.5 155.7063,-108.5"/>
<polygon fill="#191970" stroke="#191970" points="130.0099,-105.0001 120.0099,-108.5 130.0098,-112.0001 130.0099,-105.0001"/>
</g>
<!-- Node1023 -->
<g id="node3" class="node">
<title>Node1023</title>
<g id="a_node3"><a xlink:href="class_asset_control_dialog.html#a4a1447fea96b2bbc38758ea998cf4085" target="_top" xlink:title="AssetControlDialog\l::setModel">
<polygon fill="#ffffff" stroke="#000000" points="446.5,-184.5 446.5,-214.5 547.5,-214.5 547.5,-184.5 446.5,-184.5"/>
<text text-anchor="start" x="454.5" y="-202.5" font-family="Helvetica,sans-Serif" font-size="10.00" fill="#000000">AssetControlDialog</text>
<text text-anchor="middle" x="497" y="-191.5" font-family="Helvetica,sans-Serif" font-size="10.00" fill="#000000">::setModel</text>
</a>
</g>
</g>
<!-- Node1022&#45;&gt;Node1023 -->
<g id="edge2" class="edge">
<title>Node1022&#45;&gt;Node1023</title>
<path fill="none" stroke="#191970" d="M227.4508,-130.9677C243.6986,-146.8392 267.6576,-167.0717 293,-177.5 342.413,-197.8333 403.958,-201.8916 446.4532,-201.7663"/>
<polygon fill="#191970" stroke="#191970" points="229.652,-128.2173 220.1217,-123.5886 224.6854,-133.1502 229.652,-128.2173"/>
</g>
<!-- Node1026 -->
<g id="node6" class="node">
<title>Node1026</title>
<g id="a_node6"><a xlink:href="class_asset_control_dialog.html#a95edb752c6942fd6ccb2012b85cee862" target="_top" xlink:title="AssetControlDialog\l::radioTreeMode">
<polygon fill="#ffffff" stroke="#000000" points="446.5,-86.5 446.5,-116.5 547.5,-116.5 547.5,-86.5 446.5,-86.5"/>
<text text-anchor="start" x="454.5" y="-104.5" font-family="Helvetica,sans-Serif" font-size="10.00" fill="#000000">AssetControlDialog</text>
<text text-anchor="middle" x="497" y="-93.5" font-family="Helvetica,sans-Serif" font-size="10.00" fill="#000000">::radioTreeMode</text>
</a>
</g>
</g>
<!-- Node1022&#45;&gt;Node1026 -->
<g id="edge5" class="edge">
<title>Node1022&#45;&gt;Node1026</title>
<path fill="none" stroke="#191970" d="M267.4045,-107.0324C320.5299,-105.7523 396.6905,-103.9171 446.4921,-102.7171"/>
<polygon fill="#191970" stroke="#191970" points="267.014,-103.5407 257.1012,-107.2807 267.1827,-110.5387 267.014,-103.5407"/>
</g>
<!-- Node1028 -->
<g id="node8" class="node">
<title>Node1028</title>
<g id="a_node8"><a xlink:href="class_asset_control_dialog.html#a3e83a2121791ed9747e9f2871f3b27fe" target="_top" xlink:title="AssetControlDialog\l::radioListMode">
<polygon fill="#ffffff" stroke="#000000" points="293,-.5 293,-30.5 394,-30.5 394,-.5 293,-.5"/>
<text text-anchor="start" x="301" y="-18.5" font-family="Helvetica,sans-Serif" font-size="10.00" fill="#000000">AssetControlDialog</text>
<text text-anchor="middle" x="343.5" y="-7.5" font-family="Helvetica,sans-Serif" font-size="10.00" fill="#000000">::radioListMode</text>
</a>
</g>
</g>
<!-- Node1022&#45;&gt;Node1028 -->
<g id="edge7" class="edge">
<title>Node1022&#45;&gt;Node1028</title>
<path fill="none" stroke="#191970" d="M231.2994,-86.7544C248.0647,-72.6305 271.0654,-54.3423 293,-40.5 298.5431,-37.0019 304.6437,-33.6225 310.6305,-30.5392"/>
<polygon fill="#191970" stroke="#191970" points="228.942,-84.1649 223.6021,-93.3156 233.483,-89.4921 228.942,-84.1649"/>
</g>
<!-- Node1029 -->
<g id="node9" class="node">
<title>Node1029</title>
<g id="a_node9"><a xlink:href="class_asset_control_dialog.html#a23d6eb759e1dbe885b3b2c48e72c65bd" target="_top" xlink:title="AssetControlDialog\l::updateAssetList">
<polygon fill="#ffffff" stroke="#000000" points="293,-137.5 293,-167.5 394,-167.5 394,-137.5 293,-137.5"/>
<text text-anchor="start" x="301" y="-155.5" font-family="Helvetica,sans-Serif" font-size="10.00" fill="#000000">AssetControlDialog</text>
<text text-anchor="middle" x="343.5" y="-144.5" font-family="Helvetica,sans-Serif" font-size="10.00" fill="#000000">::updateAssetList</text>
</a>
</g>
</g>
<!-- Node1022&#45;&gt;Node1029 -->
<g id="edge9" class="edge">
<title>Node1022&#45;&gt;Node1029</title>
<path fill="none" stroke="#191970" d="M262.9236,-126.6215C274.0797,-130.2044 285.677,-133.9291 296.4812,-137.3991"/>
<polygon fill="#191970" stroke="#191970" points="263.8557,-123.2448 253.2645,-123.5192 261.7152,-129.9095 263.8557,-123.2448"/>
</g>
<!-- Node1031 -->
<g id="node11" class="node">
<title>Node1031</title>
<g id="a_node11"><a xlink:href="class_asset_control_dialog.html#ae2b4162c5cfe2f0fe907bc007597feef" target="_top" xlink:title="AssetControlDialog\l::onAssetSelected">
<polygon fill="#ffffff" stroke="#000000" points="293,-49.5 293,-79.5 394,-79.5 394,-49.5 293,-49.5"/>
<text text-anchor="start" x="301" y="-67.5" font-family="Helvetica,sans-Serif" font-size="10.00" fill="#000000">AssetControlDialog</text>
<text text-anchor="middle" x="343.5" y="-56.5" font-family="Helvetica,sans-Serif" font-size="10.00" fill="#000000">::onAssetSelected</text>
</a>
</g>
</g>
<!-- Node1022&#45;&gt;Node1031 -->
<g id="edge13" class="edge">
<title>Node1022&#45;&gt;Node1031</title>
<path fill="none" stroke="#191970" d="M262.9236,-90.3785C274.0797,-86.7956 285.677,-83.0709 296.4812,-79.6009"/>
<polygon fill="#191970" stroke="#191970" points="261.7152,-87.0905 253.2645,-93.4808 263.8557,-93.7552 261.7152,-87.0905"/>
</g>
<!-- Node1024 -->
<g id="node4" class="node">
<title>Node1024</title>
<g id="a_node4"><a xlink:href="class_assets_dialog.html#a316ed7dfcd069b3f9f3f255e78f79d4e" target="_top" xlink:title="AssetsDialog::assetControl\lButtonClicked">
<polygon fill="#ffffff" stroke="#000000" points="600,-184.5 600,-214.5 737,-214.5 737,-184.5 600,-184.5"/>
<text text-anchor="start" x="608" y="-202.5" font-family="Helvetica,sans-Serif" font-size="10.00" fill="#000000">AssetsDialog::assetControl</text>
<text text-anchor="middle" x="668.5" y="-191.5" font-family="Helvetica,sans-Serif" font-size="10.00" fill="#000000">ButtonClicked</text>
</a>
</g>
</g>
<!-- Node1023&#45;&gt;Node1024 -->
<g id="edge3" class="edge">
<title>Node1023&#45;&gt;Node1024</title>
<path fill="none" stroke="#191970" d="M557.7546,-199.5C571.3973,-199.5 585.9649,-199.5 599.9022,-199.5"/>
<polygon fill="#191970" stroke="#191970" points="557.5281,-196.0001 547.5281,-199.5 557.528,-203.0001 557.5281,-196.0001"/>
</g>
<!-- Node1025 -->
<g id="node5" class="node">
<title>Node1025</title>
<g id="a_node5"><a xlink:href="class_assets_dialog.html#a30fbc86bb864b098526e6c6f2f2a6761" target="_top" xlink:title="AssetsDialog::AssetsDialog">
<polygon fill="#ffffff" stroke="#000000" points="773,-190 773,-209 913,-209 913,-190 773,-190"/>
<text text-anchor="middle" x="843" y="-197" font-family="Helvetica,sans-Serif" font-size="10.00" fill="#000000">AssetsDialog::AssetsDialog</text>
</a>
</g>
</g>
<!-- Node1024&#45;&gt;Node1025 -->
<g id="edge4" class="edge">
<title>Node1024&#45;&gt;Node1025</title>
<path fill="none" stroke="#191970" d="M747.4852,-199.5C755.9643,-199.5 764.5484,-199.5 772.9134,-199.5"/>
<polygon fill="#191970" stroke="#191970" points="747.2166,-196.0001 737.2165,-199.5 747.2165,-203.0001 747.2166,-196.0001"/>
</g>
<!-- Node1027 -->
<g id="node7" class="node">
<title>Node1027</title>
<g id="a_node7"><a xlink:href="class_asset_control_dialog.html#acaafd2a83fa87e3cf4b6748e25a1346a" target="_top" xlink:title="AssetControlDialog\l::AssetControlDialog">
<polygon fill="#ffffff" stroke="#000000" points="615,-64.5 615,-94.5 722,-94.5 722,-64.5 615,-64.5"/>
<text text-anchor="start" x="623" y="-82.5" font-family="Helvetica,sans-Serif" font-size="10.00" fill="#000000">AssetControlDialog</text>
<text text-anchor="middle" x="668.5" y="-71.5" font-family="Helvetica,sans-Serif" font-size="10.00" fill="#000000">::AssetControlDialog</text>
</a>
</g>
</g>
<!-- Node1026&#45;&gt;Node1027 -->
<g id="edge6" class="edge">
<title>Node1026&#45;&gt;Node1027</title>
<path fill="none" stroke="#191970" d="M557.6676,-93.7176C576.2843,-91.3294 596.6305,-88.7194 614.7509,-86.3949"/>
<polygon fill="#191970" stroke="#191970" points="557.0014,-90.2743 547.5281,-95.0183 557.8922,-97.2174 557.0014,-90.2743"/>
</g>
<!-- Node1028&#45;&gt;Node1027 -->
<g id="edge8" class="edge">
<title>Node1028&#45;&gt;Node1027</title>
<path fill="none" stroke="#191970" d="M404.4631,-27.505C465.019,-39.4299 556.9651,-57.5362 614.8329,-68.9317"/>
<polygon fill="#191970" stroke="#191970" points="404.7691,-23.9982 394.2813,-25.5 403.4166,-30.8663 404.7691,-23.9982"/>
</g>
<!-- Node1029&#45;&gt;Node1023 -->
<g id="edge10" class="edge">
<title>Node1029&#45;&gt;Node1023</title>
<path fill="none" stroke="#191970" d="M402.2391,-170.4853C417.33,-175.1059 433.4055,-180.0281 447.9485,-184.481"/>
<polygon fill="#191970" stroke="#191970" points="403.077,-167.0815 392.4904,-167.5003 401.0275,-173.7747 403.077,-167.0815"/>
</g>
<!-- Node1030 -->
<g id="node10" class="node">
<title>Node1030</title>
<g id="a_node10"><a xlink:href="class_asset_control_dialog.html#a30bbfa2cb3fb3a09b968bb3a5e9e0eec" target="_top" xlink:title="AssetControlDialog\l::viewAdministratorClicked">
<polygon fill="#ffffff" stroke="#000000" points="430,-135.5 430,-165.5 564,-165.5 564,-135.5 430,-135.5"/>
<text text-anchor="start" x="438" y="-153.5" font-family="Helvetica,sans-Serif" font-size="10.00" fill="#000000">AssetControlDialog</text>
<text text-anchor="middle" x="497" y="-142.5" font-family="Helvetica,sans-Serif" font-size="10.00" fill="#000000">::viewAdministratorClicked</text>
</a>
</g>
</g>
<!-- Node1029&#45;&gt;Node1030 -->
<g id="edge11" class="edge">
<title>Node1029&#45;&gt;Node1030</title>
<path fill="none" stroke="#191970" d="M404.2983,-151.7078C412.7204,-151.5981 421.4106,-151.4849 429.9387,-151.3738"/>
<polygon fill="#191970" stroke="#191970" points="404.1406,-148.2095 394.1871,-151.8396 404.2318,-155.2089 404.1406,-148.2095"/>
</g>
<!-- Node1030&#45;&gt;Node1027 -->
<g id="edge12" class="edge">
<title>Node1030&#45;&gt;Node1027</title>
<path fill="none" stroke="#191970" d="M550.3222,-131.8306C554.9657,-130.0745 559.5775,-128.2834 564,-126.5 588.722,-116.5306 616.1948,-104.1206 636.7651,-94.5564"/>
<polygon fill="#191970" stroke="#191970" points="548.9502,-128.6065 540.7967,-135.372 551.3896,-135.1677 548.9502,-128.6065"/>
</g>
<!-- Node1031&#45;&gt;Node1027 -->
<g id="edge14" class="edge">
<title>Node1031&#45;&gt;Node1027</title>
<path fill="none" stroke="#191970" d="M404.4631,-67.3137C465.019,-70.1086 556.9651,-74.3522 614.8329,-77.0231"/>
<polygon fill="#191970" stroke="#191970" points="404.432,-63.8086 394.2813,-66.8438 404.1092,-70.8012 404.432,-63.8086"/>
</g>
</g>
</svg>
