<?xml version="1.0" encoding="UTF-8" standalone="no"?>
<!DOCTYPE svg PUBLIC "-//W3C//DTD SVG 1.1//EN"
 "http://www.w3.org/Graphics/SVG/1.1/DTD/svg11.dtd">
<!-- Generated by graphviz version 2.40.1 (20161225.0304)
 -->
<!-- Title: WalletModel::sendAssets Pages: 1 -->
<svg width="1079pt" height="838pt"
 viewBox="0.00 0.00 1079.00 838.00" xmlns="http://www.w3.org/2000/svg" xmlns:xlink="http://www.w3.org/1999/xlink">
<g id="graph0" class="graph" transform="scale(1 1) rotate(0) translate(4 834)">
<title>WalletModel::sendAssets</title>
<polygon fill="#ffffff" stroke="transparent" points="-4,4 -4,-834 1075,-834 1075,4 -4,4"/>
<!-- Node1302 -->
<g id="node1" class="node">
<title>Node1302</title>
<polygon fill="#bfbfbf" stroke="#000000" points="0,-275.5 0,-294.5 128,-294.5 128,-275.5 0,-275.5"/>
<text text-anchor="middle" x="64" y="-282.5" font-family="Helvetica,sans-Serif" font-size="10.00" fill="#000000">WalletModel::sendAssets</text>
</g>
<!-- Node1303 -->
<g id="node2" class="node">
<title>Node1303</title>
<g id="a_node2"><a xlink:href="util_8h.html#a96c5fc7111f69f7dcaba992d95d13e03" target="_top" xlink:title="error">
<polygon fill="#ffffff" stroke="#000000" points="204,-468.5 204,-487.5 240,-487.5 240,-468.5 204,-468.5"/>
<text text-anchor="middle" x="222" y="-475.5" font-family="Helvetica,sans-Serif" font-size="10.00" fill="#000000">error</text>
</a>
</g>
</g>
<!-- Node1302&#45;&gt;Node1303 -->
<g id="edge1" class="edge">
<title>Node1302&#45;&gt;Node1303</title>
<path fill="none" stroke="#191970" d="M71.8352,-294.5709C96.8436,-325.119 175.0171,-420.6095 207.5596,-460.3608"/>
<polygon fill="#191970" stroke="#191970" points="205.0746,-462.8506 214.1175,-468.3713 210.4911,-458.4164 205.0746,-462.8506"/>
</g>
<!-- Node1333 -->
<g id="node32" class="node">
<title>Node1333</title>
<g id="a_node32"><a xlink:href="assets_2assets_8cpp.html#ac85f60493840a888d3cc36a218881457" target="_top" xlink:title="Send any type of asset transaction to the network. ">
<polygon fill="#ffffff" stroke="#000000" points="164,-82.5 164,-101.5 280,-101.5 280,-82.5 164,-82.5"/>
<text text-anchor="middle" x="222" y="-89.5" font-family="Helvetica,sans-Serif" font-size="10.00" fill="#000000">SendAssetTransaction</text>
</a>
</g>
</g>
<!-- Node1302&#45;&gt;Node1333 -->
<g id="edge34" class="edge">
<title>Node1302&#45;&gt;Node1333</title>
<path fill="none" stroke="#191970" d="M71.8352,-275.4291C96.8436,-244.881 175.0171,-149.3905 207.5596,-109.6392"/>
<polygon fill="#191970" stroke="#191970" points="210.4911,-111.5836 214.1175,-101.6287 205.0746,-107.1494 210.4911,-111.5836"/>
</g>
<!-- Node1304 -->
<g id="node3" class="node">
<title>Node1304</title>
<g id="a_node3"><a xlink:href="util_8h.html#afd4c3002b2797c0560adddb6af3ca1da" target="_top" xlink:title="Send a string to the log output. ">
<polygon fill="#ffffff" stroke="#000000" points="355,-506.5 355,-525.5 420,-525.5 420,-506.5 355,-506.5"/>
<text text-anchor="middle" x="387.5" y="-513.5" font-family="Helvetica,sans-Serif" font-size="10.00" fill="#000000">LogPrintStr</text>
</a>
</g>
</g>
<!-- Node1303&#45;&gt;Node1304 -->
<g id="edge2" class="edge">
<title>Node1303&#45;&gt;Node1304</title>
<path fill="none" stroke="#191970" d="M240.0265,-482.139C264.9292,-487.8569 310.6236,-498.3486 344.5741,-506.1439"/>
<polygon fill="#191970" stroke="#191970" points="344.1678,-509.6416 354.6975,-508.4683 345.7343,-502.8191 344.1678,-509.6416"/>
</g>
<!-- Node1305 -->
<g id="node4" class="node">
<title>Node1305</title>
<g id="a_node4"><a xlink:href="namespacetinyformat.html#a05144619d8b16e2b31b2594ca9c6bf1d" target="_top" xlink:title="Format list of arguments to the stream according to given format string. ">
<polygon fill="#ffffff" stroke="#000000" points="340.5,-468.5 340.5,-487.5 434.5,-487.5 434.5,-468.5 340.5,-468.5"/>
<text text-anchor="middle" x="387.5" y="-475.5" font-family="Helvetica,sans-Serif" font-size="10.00" fill="#000000">tinyformat::format</text>
</a>
</g>
</g>
<!-- Node1303&#45;&gt;Node1305 -->
<g id="edge3" class="edge">
<title>Node1303&#45;&gt;Node1305</title>
<path fill="none" stroke="#191970" d="M240.0265,-478C261.5713,-478 298.6786,-478 330.2794,-478"/>
<polygon fill="#191970" stroke="#191970" points="330.3192,-481.5001 340.3192,-478 330.3191,-474.5001 330.3192,-481.5001"/>
</g>
<!-- Node1314 -->
<g id="node13" class="node">
<title>Node1314</title>
<g id="a_node13"><a xlink:href="util_8h.html#aaada8c5faa502eb0c33fc01294955db8" target="_top" xlink:title="PrintExceptionContinue">
<polygon fill="#ffffff" stroke="#000000" points="328,-430.5 328,-449.5 447,-449.5 447,-430.5 328,-430.5"/>
<text text-anchor="middle" x="387.5" y="-437.5" font-family="Helvetica,sans-Serif" font-size="10.00" fill="#000000">PrintExceptionContinue</text>
</a>
</g>
</g>
<!-- Node1303&#45;&gt;Node1314 -->
<g id="edge12" class="edge">
<title>Node1303&#45;&gt;Node1314</title>
<path fill="none" stroke="#191970" d="M240.0265,-473.861C262.8793,-468.6138 303.2417,-459.3463 335.9694,-451.8318"/>
<polygon fill="#191970" stroke="#191970" points="336.8903,-455.2115 345.8534,-449.5624 335.3237,-448.389 336.8903,-455.2115"/>
</g>
<!-- Node1315 -->
<g id="node14" class="node">
<title>Node1315</title>
<g id="a_node14"><a xlink:href="util_8h.html#af0e69a29ba128b74030ad8a213f2037a" target="_top" xlink:title="FileCommit">
<polygon fill="#ffffff" stroke="#000000" points="354,-392.5 354,-411.5 421,-411.5 421,-392.5 354,-392.5"/>
<text text-anchor="middle" x="387.5" y="-399.5" font-family="Helvetica,sans-Serif" font-size="10.00" fill="#000000">FileCommit</text>
</a>
</g>
</g>
<!-- Node1303&#45;&gt;Node1315 -->
<g id="edge13" class="edge">
<title>Node1303&#45;&gt;Node1315</title>
<path fill="none" stroke="#191970" d="M235.0469,-468.4204C252.6266,-455.9137 285.2686,-434.0806 316,-421 324.7656,-417.269 334.454,-414.105 343.7945,-411.4927"/>
<polygon fill="#191970" stroke="#191970" points="344.9553,-414.8064 353.7334,-408.8738 343.1716,-408.0374 344.9553,-414.8064"/>
</g>
<!-- Node1316 -->
<g id="node15" class="node">
<title>Node1316</title>
<g id="a_node15"><a xlink:href="util_8h.html#acb8d6b822bc1bfa609bf43bbac1a0d44" target="_top" xlink:title="TruncateFile">
<polygon fill="#ffffff" stroke="#000000" points="352,-354.5 352,-373.5 423,-373.5 423,-354.5 352,-354.5"/>
<text text-anchor="middle" x="387.5" y="-361.5" font-family="Helvetica,sans-Serif" font-size="10.00" fill="#000000">TruncateFile</text>
</a>
</g>
</g>
<!-- Node1303&#45;&gt;Node1316 -->
<g id="edge14" class="edge">
<title>Node1303&#45;&gt;Node1316</title>
<path fill="none" stroke="#191970" d="M228.8,-468.2529C242.8041,-448.9314 276.8537,-405.6853 316,-383 323.9978,-378.3653 333.1496,-374.8348 342.1746,-372.1541"/>
<polygon fill="#191970" stroke="#191970" points="343.0998,-375.5297 351.8571,-369.5666 341.2925,-368.767 343.0998,-375.5297"/>
</g>
<!-- Node1317 -->
<g id="node16" class="node">
<title>Node1317</title>
<g id="a_node16"><a xlink:href="util_8h.html#a756a5c49a4bb607d16d9842f8f3ede4f" target="_top" xlink:title="this function tries to raise the file descriptor limit to the requested number. ">
<polygon fill="#ffffff" stroke="#000000" points="325.5,-316.5 325.5,-335.5 449.5,-335.5 449.5,-316.5 325.5,-316.5"/>
<text text-anchor="middle" x="387.5" y="-323.5" font-family="Helvetica,sans-Serif" font-size="10.00" fill="#000000">RaiseFileDescriptorLimit</text>
</a>
</g>
</g>
<!-- Node1303&#45;&gt;Node1317 -->
<g id="edge15" class="edge">
<title>Node1303&#45;&gt;Node1317</title>
<path fill="none" stroke="#191970" d="M226.0395,-468.2078C236.7614,-443.472 268.4115,-378.0934 316,-345 318.8817,-342.996 321.963,-341.2034 325.1684,-339.5998"/>
<polygon fill="#191970" stroke="#191970" points="326.6886,-342.7555 334.4676,-335.5626 323.901,-336.3345 326.6886,-342.7555"/>
</g>
<!-- Node1318 -->
<g id="node17" class="node">
<title>Node1318</title>
<g id="a_node17"><a xlink:href="util_8h.html#a91c763bffc49cf7ed8d45cc44870e55c" target="_top" xlink:title="this function tries to make a particular range of a file allocated (corresponding to disk space) it i...">
<polygon fill="#ffffff" stroke="#000000" points="339.5,-278.5 339.5,-297.5 435.5,-297.5 435.5,-278.5 339.5,-278.5"/>
<text text-anchor="middle" x="387.5" y="-285.5" font-family="Helvetica,sans-Serif" font-size="10.00" fill="#000000">AllocateFileRange</text>
</a>
</g>
</g>
<!-- Node1303&#45;&gt;Node1318 -->
<g id="edge16" class="edge">
<title>Node1303&#45;&gt;Node1318</title>
<path fill="none" stroke="#191970" d="M224.474,-468.0896C232.3509,-438.6526 259.7042,-351.0493 316,-307 320.1299,-303.7685 324.7612,-301.0844 329.6288,-298.8555"/>
<polygon fill="#191970" stroke="#191970" points="331.1743,-302.0092 339.2112,-295.1056 328.6233,-295.4905 331.1743,-302.0092"/>
</g>
<!-- Node1319 -->
<g id="node18" class="node">
<title>Node1319</title>
<g id="a_node18"><a xlink:href="util_8h.html#a579657da2b55b131ecd453bf1b0d2314" target="_top" xlink:title="RenameOver">
<polygon fill="#ffffff" stroke="#000000" points="350.5,-240.5 350.5,-259.5 424.5,-259.5 424.5,-240.5 350.5,-240.5"/>
<text text-anchor="middle" x="387.5" y="-247.5" font-family="Helvetica,sans-Serif" font-size="10.00" fill="#000000">RenameOver</text>
</a>
</g>
</g>
<!-- Node1303&#45;&gt;Node1319 -->
<g id="edge17" class="edge">
<title>Node1303&#45;&gt;Node1319</title>
<path fill="none" stroke="#191970" d="M223.3695,-468.3607C228.6082,-435.1715 250.49,-324.6206 316,-269 323.0464,-263.0173 331.7818,-258.8968 340.6997,-256.0642"/>
<polygon fill="#191970" stroke="#191970" points="341.6247,-259.4399 350.3768,-253.469 339.8114,-252.6788 341.6247,-259.4399"/>
</g>
<!-- Node1320 -->
<g id="node19" class="node">
<title>Node1320</title>
<g id="a_node19"><a xlink:href="util_8h.html#a9042a919d837da9d97311a0c460c597c" target="_top" xlink:title="Ignores exceptions thrown by Boost&#39;s create_directories if the requested directory exists...">
<polygon fill="#ffffff" stroke="#000000" points="334,-202.5 334,-221.5 441,-221.5 441,-202.5 334,-202.5"/>
<text text-anchor="middle" x="387.5" y="-209.5" font-family="Helvetica,sans-Serif" font-size="10.00" fill="#000000">TryCreateDirectories</text>
</a>
</g>
</g>
<!-- Node1303&#45;&gt;Node1320 -->
<g id="edge18" class="edge">
<title>Node1303&#45;&gt;Node1320</title>
<path fill="none" stroke="#191970" d="M222.625,-468.48C225.5595,-431.8126 241.1839,-298.4195 316,-231 318.6567,-228.6059 321.5813,-226.5079 324.6842,-224.6698"/>
<polygon fill="#191970" stroke="#191970" points="326.4143,-227.7189 333.8259,-220.148 323.3107,-221.4444 326.4143,-227.7189"/>
</g>
<!-- Node1321 -->
<g id="node20" class="node">
<title>Node1321</title>
<g id="a_node20"><a xlink:href="util_8h.html#a15cb85964fe08c264605537f44570d3c" target="_top" xlink:title="GetDefaultDataDir">
<polygon fill="#ffffff" stroke="#000000" points="338.5,-164.5 338.5,-183.5 436.5,-183.5 436.5,-164.5 338.5,-164.5"/>
<text text-anchor="middle" x="387.5" y="-171.5" font-family="Helvetica,sans-Serif" font-size="10.00" fill="#000000">GetDefaultDataDir</text>
</a>
</g>
</g>
<!-- Node1303&#45;&gt;Node1321 -->
<g id="edge19" class="edge">
<title>Node1303&#45;&gt;Node1321</title>
<path fill="none" stroke="#191970" d="M223.9252,-468.2435C233.0585,-422.8937 273.3523,-233.2086 316,-193 319.8155,-189.4027 324.2327,-186.4695 328.9625,-184.0802"/>
<polygon fill="#191970" stroke="#191970" points="330.5069,-187.2276 338.3675,-180.124 327.7927,-180.7752 330.5069,-187.2276"/>
</g>
<!-- Node1322 -->
<g id="node21" class="node">
<title>Node1322</title>
<g id="a_node21"><a xlink:href="util_8h.html#abb63dfb710832aefb746933af05198d4" target="_top" xlink:title="GetDataDir">
<polygon fill="#ffffff" stroke="#000000" points="354.5,-810.5 354.5,-829.5 420.5,-829.5 420.5,-810.5 354.5,-810.5"/>
<text text-anchor="middle" x="387.5" y="-817.5" font-family="Helvetica,sans-Serif" font-size="10.00" fill="#000000">GetDataDir</text>
</a>
</g>
</g>
<!-- Node1303&#45;&gt;Node1322 -->
<g id="edge20" class="edge">
<title>Node1303&#45;&gt;Node1322</title>
<path fill="none" stroke="#191970" d="M223.52,-487.7126C231.3473,-536.5406 268.5811,-754.6811 316,-801 323.7287,-808.5494 334.098,-813.189 344.5381,-816.0159"/>
<polygon fill="#191970" stroke="#191970" points="343.9668,-819.4738 354.4855,-818.2066 345.4723,-812.6377 343.9668,-819.4738"/>
</g>
<!-- Node1323 -->
<g id="node22" class="node">
<title>Node1323</title>
<g id="a_node22"><a xlink:href="util_8h.html#abfb50dfe077aced7591f2aba601f605d" target="_top" xlink:title="ClearDatadirCache">
<polygon fill="#ffffff" stroke="#000000" points="337.5,-772.5 337.5,-791.5 437.5,-791.5 437.5,-772.5 337.5,-772.5"/>
<text text-anchor="middle" x="387.5" y="-779.5" font-family="Helvetica,sans-Serif" font-size="10.00" fill="#000000">ClearDatadirCache</text>
</a>
</g>
</g>
<!-- Node1303&#45;&gt;Node1323 -->
<g id="edge21" class="edge">
<title>Node1303&#45;&gt;Node1323</title>
<path fill="none" stroke="#191970" d="M223.9252,-487.7565C233.0585,-533.1063 273.3523,-722.7914 316,-763 319.5512,-766.3481 323.6236,-769.1209 327.9842,-771.4154"/>
<polygon fill="#191970" stroke="#191970" points="326.7011,-774.6745 337.2649,-775.4845 329.5119,-768.2636 326.7011,-774.6745"/>
</g>
<!-- Node1324 -->
<g id="node23" class="node">
<title>Node1324</title>
<g id="a_node23"><a xlink:href="util_8h.html#aa634f312705d4811dfa2a5392bddf6cf" target="_top" xlink:title="GetConfigFile">
<polygon fill="#ffffff" stroke="#000000" points="349,-696.5 349,-715.5 426,-715.5 426,-696.5 349,-696.5"/>
<text text-anchor="middle" x="387.5" y="-703.5" font-family="Helvetica,sans-Serif" font-size="10.00" fill="#000000">GetConfigFile</text>
</a>
</g>
</g>
<!-- Node1303&#45;&gt;Node1324 -->
<g id="edge22" class="edge">
<title>Node1303&#45;&gt;Node1324</title>
<path fill="none" stroke="#191970" d="M223.3695,-487.6393C228.6082,-520.8285 250.49,-631.3794 316,-687 322.615,-692.6164 330.7185,-696.5917 339.0641,-699.4009"/>
<polygon fill="#191970" stroke="#191970" points="338.3219,-702.8284 348.8976,-702.1914 340.233,-696.0943 338.3219,-702.8284"/>
</g>
<!-- Node1326 -->
<g id="node25" class="node">
<title>Node1326</title>
<g id="a_node25"><a xlink:href="util_8h.html#aa0172eabeecce5061826cb19990fbde2" target="_top" xlink:title="GetPidFile">
<polygon fill="#ffffff" stroke="#000000" points="356.5,-734.5 356.5,-753.5 418.5,-753.5 418.5,-734.5 356.5,-734.5"/>
<text text-anchor="middle" x="387.5" y="-741.5" font-family="Helvetica,sans-Serif" font-size="10.00" fill="#000000">GetPidFile</text>
</a>
</g>
</g>
<!-- Node1303&#45;&gt;Node1326 -->
<g id="edge24" class="edge">
<title>Node1303&#45;&gt;Node1326</title>
<path fill="none" stroke="#191970" d="M222.625,-487.52C225.5595,-524.1874 241.1839,-657.5805 316,-725 324.401,-732.5704 335.4809,-737.1809 346.4033,-739.972"/>
<polygon fill="#191970" stroke="#191970" points="345.802,-743.4221 356.3085,-742.0565 347.2436,-736.5721 345.802,-743.4221"/>
</g>
<!-- Node1328 -->
<g id="node27" class="node">
<title>Node1328</title>
<g id="a_node27"><a xlink:href="util_8h.html#a1c0f9b041628dcb399a023bc9913f41d" target="_top" xlink:title="CreatePidFile">
<polygon fill="#ffffff" stroke="#000000" points="349.5,-620.5 349.5,-639.5 425.5,-639.5 425.5,-620.5 349.5,-620.5"/>
<text text-anchor="middle" x="387.5" y="-627.5" font-family="Helvetica,sans-Serif" font-size="10.00" fill="#000000">CreatePidFile</text>
</a>
</g>
</g>
<!-- Node1303&#45;&gt;Node1328 -->
<g id="edge27" class="edge">
<title>Node1303&#45;&gt;Node1328</title>
<path fill="none" stroke="#191970" d="M226.0395,-487.7922C236.7614,-512.528 268.4115,-577.9066 316,-611 323.0486,-615.9017 331.291,-619.539 339.6232,-622.238"/>
<polygon fill="#191970" stroke="#191970" points="338.8047,-625.6437 349.3797,-624.995 340.7083,-618.9075 338.8047,-625.6437"/>
</g>
<!-- Node1330 -->
<g id="node29" class="node">
<title>Node1330</title>
<g id="a_node29"><a xlink:href="util_8h.html#a1e755e72104d3ca393efc1cc3f41952a" target="_top" xlink:title="OpenDebugLog">
<polygon fill="#ffffff" stroke="#000000" points="345.5,-582.5 345.5,-601.5 429.5,-601.5 429.5,-582.5 345.5,-582.5"/>
<text text-anchor="middle" x="387.5" y="-589.5" font-family="Helvetica,sans-Serif" font-size="10.00" fill="#000000">OpenDebugLog</text>
</a>
</g>
</g>
<!-- Node1303&#45;&gt;Node1330 -->
<g id="edge29" class="edge">
<title>Node1303&#45;&gt;Node1330</title>
<path fill="none" stroke="#191970" d="M228.8,-487.7471C242.8041,-507.0686 276.8537,-550.3147 316,-573 321.9732,-576.4615 328.59,-579.307 335.317,-581.6426"/>
<polygon fill="#191970" stroke="#191970" points="334.6011,-585.0852 345.1894,-584.712 336.6794,-578.4008 334.6011,-585.0852"/>
</g>
<!-- Node1331 -->
<g id="node30" class="node">
<title>Node1331</title>
<g id="a_node30"><a xlink:href="util_8h.html#a37fca7e305fe0caa306b23fdb37f88e2" target="_top" xlink:title="ShrinkDebugFile">
<polygon fill="#ffffff" stroke="#000000" points="343,-658.5 343,-677.5 432,-677.5 432,-658.5 343,-658.5"/>
<text text-anchor="middle" x="387.5" y="-665.5" font-family="Helvetica,sans-Serif" font-size="10.00" fill="#000000">ShrinkDebugFile</text>
</a>
</g>
</g>
<!-- Node1303&#45;&gt;Node1331 -->
<g id="edge30" class="edge">
<title>Node1303&#45;&gt;Node1331</title>
<path fill="none" stroke="#191970" d="M224.474,-487.9104C232.3509,-517.3474 259.7042,-604.9507 316,-649 321.1115,-652.9995 326.9908,-656.1604 333.1358,-658.6579"/>
<polygon fill="#191970" stroke="#191970" points="332.3437,-662.0878 342.9386,-662.0616 334.6399,-655.4751 332.3437,-662.0878"/>
</g>
<!-- Node1332 -->
<g id="node31" class="node">
<title>Node1332</title>
<g id="a_node31"><a xlink:href="util_8h.html#aa803aa631ab8b4bd79fa9d7b2172bf9a" target="_top" xlink:title="runCommand">
<polygon fill="#ffffff" stroke="#000000" points="350,-544.5 350,-563.5 425,-563.5 425,-544.5 350,-544.5"/>
<text text-anchor="middle" x="387.5" y="-551.5" font-family="Helvetica,sans-Serif" font-size="10.00" fill="#000000">runCommand</text>
</a>
</g>
</g>
<!-- Node1303&#45;&gt;Node1332 -->
<g id="edge33" class="edge">
<title>Node1303&#45;&gt;Node1332</title>
<path fill="none" stroke="#191970" d="M235.0469,-487.5796C252.6266,-500.0863 285.2686,-521.9194 316,-535 323.5617,-538.2186 331.81,-541.0152 339.9294,-543.3997"/>
<polygon fill="#191970" stroke="#191970" points="339.1433,-546.8136 349.7144,-546.1045 341.0084,-540.0666 339.1433,-546.8136"/>
</g>
<!-- Node1306 -->
<g id="node5" class="node">
<title>Node1306</title>
<g id="a_node5"><a xlink:href="namespacetinyformat.html#a86ed74eb3ed66a662e96220d877da964" target="_top" xlink:title="Format list of arguments to the stream according to the given format string. ">
<polygon fill="#ffffff" stroke="#000000" points="514,-449.5 514,-468.5 613,-468.5 613,-449.5 514,-449.5"/>
<text text-anchor="middle" x="563.5" y="-456.5" font-family="Helvetica,sans-Serif" font-size="10.00" fill="#000000">tinyformat::vformat</text>
</a>
</g>
</g>
<!-- Node1305&#45;&gt;Node1306 -->
<g id="edge4" class="edge">
<title>Node1305&#45;&gt;Node1306</title>
<path fill="none" stroke="#191970" d="M434.6648,-472.9083C455.8567,-470.6206 481.1082,-467.8946 503.6173,-465.4646"/>
<polygon fill="#191970" stroke="#191970" points="504.1753,-468.9248 513.7418,-464.3716 503.4239,-461.9652 504.1753,-468.9248"/>
</g>
<!-- Node1313 -->
<g id="node12" class="node">
<title>Node1313</title>
<g id="a_node12"><a xlink:href="namespacetinyformat.html#a37afaa5249c69dacd619269358f06f69" target="_top" xlink:title="Make type&#45;agnostic format list from list of template arguments. ">
<polygon fill="#ffffff" stroke="#000000" points="495,-487.5 495,-506.5 632,-506.5 632,-487.5 495,-487.5"/>
<text text-anchor="middle" x="563.5" y="-494.5" font-family="Helvetica,sans-Serif" font-size="10.00" fill="#000000">tinyformat::makeFormatList</text>
</a>
</g>
</g>
<!-- Node1305&#45;&gt;Node1313 -->
<g id="edge11" class="edge">
<title>Node1305&#45;&gt;Node1313</title>
<path fill="none" stroke="#191970" d="M434.6648,-483.0917C450.0711,-484.7548 467.6229,-486.6496 484.7068,-488.4939"/>
<polygon fill="#191970" stroke="#191970" points="484.3738,-491.9782 494.6917,-489.5718 485.1252,-485.0187 484.3738,-491.9782"/>
</g>
<!-- Node1307 -->
<g id="node6" class="node">
<title>Node1307</title>
<g id="a_node6"><a xlink:href="namespacetinyformat_1_1detail.html#a079a316938c0e8693efbeb0183b1390d" target="_top" xlink:title="tinyformat::detail\l::formatImpl">
<polygon fill="#ffffff" stroke="#000000" points="668,-444 668,-474 757,-474 757,-444 668,-444"/>
<text text-anchor="start" x="676" y="-462" font-family="Helvetica,sans-Serif" font-size="10.00" fill="#000000">tinyformat::detail</text>
<text text-anchor="middle" x="712.5" y="-451" font-family="Helvetica,sans-Serif" font-size="10.00" fill="#000000">::formatImpl</text>
</a>
</g>
</g>
<!-- Node1306&#45;&gt;Node1307 -->
<g id="edge5" class="edge">
<title>Node1306&#45;&gt;Node1307</title>
<path fill="none" stroke="#191970" d="M613.1148,-459C627.2842,-459 642.8105,-459 657.2923,-459"/>
<polygon fill="#191970" stroke="#191970" points="657.6183,-462.5001 667.6183,-459 657.6183,-455.5001 657.6183,-462.5001"/>
</g>
<!-- Node1308 -->
<g id="node7" class="node">
<title>Node1308</title>
<g id="a_node7"><a xlink:href="namespacetinyformat_1_1detail.html#ad3d636b9f85202b515c8940b7fcb62a6" target="_top" xlink:title="tinyformat::detail\l::printFormatStringLiteral">
<polygon fill="#ffffff" stroke="#000000" points="795.5,-493 795.5,-523 919.5,-523 919.5,-493 795.5,-493"/>
<text text-anchor="start" x="803.5" y="-511" font-family="Helvetica,sans-Serif" font-size="10.00" fill="#000000">tinyformat::detail</text>
<text text-anchor="middle" x="857.5" y="-500" font-family="Helvetica,sans-Serif" font-size="10.00" fill="#000000">::printFormatStringLiteral</text>
</a>
</g>
</g>
<!-- Node1307&#45;&gt;Node1308 -->
<g id="edge6" class="edge">
<title>Node1307&#45;&gt;Node1308</title>
<path fill="none" stroke="#191970" d="M757.1879,-474.1014C771.659,-478.9917 787.8725,-484.4707 802.9752,-489.5744"/>
<polygon fill="#191970" stroke="#191970" points="802.1158,-492.9783 812.71,-492.8641 804.3569,-486.3468 802.1158,-492.9783"/>
</g>
<!-- Node1309 -->
<g id="node8" class="node">
<title>Node1309</title>
<g id="a_node8"><a xlink:href="namespacetinyformat_1_1detail.html#a681e8ceb825485cc5e3b057c11e4b1b5" target="_top" xlink:title="tinyformat::detail\l::streamStateFromFormat">
<polygon fill="#ffffff" stroke="#000000" points="793,-444 793,-474 922,-474 922,-444 793,-444"/>
<text text-anchor="start" x="801" y="-462" font-family="Helvetica,sans-Serif" font-size="10.00" fill="#000000">tinyformat::detail</text>
<text text-anchor="middle" x="857.5" y="-451" font-family="Helvetica,sans-Serif" font-size="10.00" fill="#000000">::streamStateFromFormat</text>
</a>
</g>
</g>
<!-- Node1307&#45;&gt;Node1309 -->
<g id="edge7" class="edge">
<title>Node1307&#45;&gt;Node1309</title>
<path fill="none" stroke="#191970" d="M757.1879,-459C765.3219,-459 774.0064,-459 782.7346,-459"/>
<polygon fill="#191970" stroke="#191970" points="782.9707,-462.5001 792.9707,-459 782.9706,-455.5001 782.9707,-462.5001"/>
</g>
<!-- Node1312 -->
<g id="node11" class="node">
<title>Node1312</title>
<g id="a_node11"><a xlink:href="classtinyformat_1_1detail_1_1_format_arg.html#acbf435711bbe4a4da7fc81758d7108a9" target="_top" xlink:title="tinyformat::detail\l::FormatArg::format">
<polygon fill="#ffffff" stroke="#000000" points="806.5,-395 806.5,-425 908.5,-425 908.5,-395 806.5,-395"/>
<text text-anchor="start" x="814.5" y="-413" font-family="Helvetica,sans-Serif" font-size="10.00" fill="#000000">tinyformat::detail</text>
<text text-anchor="middle" x="857.5" y="-402" font-family="Helvetica,sans-Serif" font-size="10.00" fill="#000000">::FormatArg::format</text>
</a>
</g>
</g>
<!-- Node1307&#45;&gt;Node1312 -->
<g id="edge10" class="edge">
<title>Node1307&#45;&gt;Node1312</title>
<path fill="none" stroke="#191970" d="M757.1879,-443.8986C771.659,-439.0083 787.8725,-433.5293 802.9752,-428.4256"/>
<polygon fill="#191970" stroke="#191970" points="804.3569,-431.6532 812.71,-425.1359 802.1158,-425.0217 804.3569,-431.6532"/>
</g>
<!-- Node1310 -->
<g id="node9" class="node">
<title>Node1310</title>
<g id="a_node9"><a xlink:href="namespacetinyformat_1_1detail.html#a67285e0adb9f4164f9fc30a3eb11c771" target="_top" xlink:title="tinyformat::detail\l::parseIntAndAdvance">
<polygon fill="#ffffff" stroke="#000000" points="958,-468 958,-498 1071,-498 1071,-468 958,-468"/>
<text text-anchor="start" x="966" y="-486" font-family="Helvetica,sans-Serif" font-size="10.00" fill="#000000">tinyformat::detail</text>
<text text-anchor="middle" x="1014.5" y="-475" font-family="Helvetica,sans-Serif" font-size="10.00" fill="#000000">::parseIntAndAdvance</text>
</a>
</g>
</g>
<!-- Node1309&#45;&gt;Node1310 -->
<g id="edge8" class="edge">
<title>Node1309&#45;&gt;Node1310</title>
<path fill="none" stroke="#191970" d="M922.2643,-468.9003C930.7639,-470.1996 939.4852,-471.5328 948.0128,-472.8363"/>
<polygon fill="#191970" stroke="#191970" points="947.4954,-476.2978 957.9095,-474.3492 948.5533,-469.3782 947.4954,-476.2978"/>
</g>
<!-- Node1311 -->
<g id="node10" class="node">
<title>Node1311</title>
<g id="a_node10"><a xlink:href="classtinyformat_1_1detail_1_1_format_arg.html#a91b69f66ce9dc8ca2914dce8985d7a1a" target="_top" xlink:title="tinyformat::detail\l::FormatArg::toInt">
<polygon fill="#ffffff" stroke="#000000" points="967.5,-419 967.5,-449 1061.5,-449 1061.5,-419 967.5,-419"/>
<text text-anchor="start" x="975.5" y="-437" font-family="Helvetica,sans-Serif" font-size="10.00" fill="#000000">tinyformat::detail</text>
<text text-anchor="middle" x="1014.5" y="-426" font-family="Helvetica,sans-Serif" font-size="10.00" fill="#000000">::FormatArg::toInt</text>
</a>
</g>
</g>
<!-- Node1309&#45;&gt;Node1311 -->
<g id="edge9" class="edge">
<title>Node1309&#45;&gt;Node1311</title>
<path fill="none" stroke="#191970" d="M922.2643,-448.6872C933.7757,-446.8542 945.6938,-444.9564 956.9865,-443.1582"/>
<polygon fill="#191970" stroke="#191970" points="957.8268,-446.5686 967.152,-441.5395 956.726,-439.6557 957.8268,-446.5686"/>
</g>
<!-- Node1325 -->
<g id="node24" class="node">
<title>Node1325</title>
<g id="a_node24"><a xlink:href="util_8cpp.html#a7ebe0bd091f7334aaead43904601e008" target="_top" xlink:title="GetDataDir">
<polygon fill="#ffffff" stroke="#000000" points="530.5,-696.5 530.5,-715.5 596.5,-715.5 596.5,-696.5 530.5,-696.5"/>
<text text-anchor="middle" x="563.5" y="-703.5" font-family="Helvetica,sans-Serif" font-size="10.00" fill="#000000">GetDataDir</text>
</a>
</g>
</g>
<!-- Node1324&#45;&gt;Node1325 -->
<g id="edge23" class="edge">
<title>Node1324&#45;&gt;Node1325</title>
<path fill="none" stroke="#191970" d="M426.1239,-706C453.8812,-706 491.3289,-706 520.1157,-706"/>
<polygon fill="#191970" stroke="#191970" points="520.2956,-709.5001 530.2956,-706 520.2955,-702.5001 520.2956,-709.5001"/>
</g>
<!-- Node1326&#45;&gt;Node1325 -->
<g id="edge26" class="edge">
<title>Node1326&#45;&gt;Node1325</title>
<path fill="none" stroke="#191970" d="M418.5601,-737.2938C446.877,-731.18 488.9787,-722.0898 520.5199,-715.2798"/>
<polygon fill="#191970" stroke="#191970" points="521.3225,-718.6872 530.3586,-713.1555 519.8451,-711.8449 521.3225,-718.6872"/>
</g>
<!-- Node1327 -->
<g id="node26" class="node">
<title>Node1327</title>
<g id="a_node26"><a xlink:href="class_args_manager.html#adb5d644d273b3a259f792affcdca8283" target="_top" xlink:title="Return string argument or default value. ">
<polygon fill="#ffffff" stroke="#000000" points="508,-734.5 508,-753.5 619,-753.5 619,-734.5 508,-734.5"/>
<text text-anchor="middle" x="563.5" y="-741.5" font-family="Helvetica,sans-Serif" font-size="10.00" fill="#000000">ArgsManager::GetArg</text>
</a>
</g>
</g>
<!-- Node1326&#45;&gt;Node1327 -->
<g id="edge25" class="edge">
<title>Node1326&#45;&gt;Node1327</title>
<path fill="none" stroke="#191970" d="M418.5601,-744C440.4363,-744 470.5398,-744 497.6452,-744"/>
<polygon fill="#191970" stroke="#191970" points="497.8635,-747.5001 507.8635,-744 497.8634,-740.5001 497.8635,-747.5001"/>
</g>
<!-- Node1329 -->
<g id="node28" class="node">
<title>Node1329</title>
<g id="a_node28"><a xlink:href="namespacefsbridge.html#a19c84cec4ae9accfbc88a83e48f7ee92" target="_top" xlink:title="fsbridge::fopen">
<polygon fill="#ffffff" stroke="#000000" points="523,-639.5 523,-658.5 604,-658.5 604,-639.5 523,-639.5"/>
<text text-anchor="middle" x="563.5" y="-646.5" font-family="Helvetica,sans-Serif" font-size="10.00" fill="#000000">fsbridge::fopen</text>
</a>
</g>
</g>
<!-- Node1328&#45;&gt;Node1329 -->
<g id="edge28" class="edge">
<title>Node1328&#45;&gt;Node1329</title>
<path fill="none" stroke="#191970" d="M425.6894,-634.1227C451.1491,-636.8712 484.9029,-640.5151 512.6327,-643.5086"/>
<polygon fill="#191970" stroke="#191970" points="512.6177,-647.0273 522.9356,-644.6209 513.3691,-640.0677 512.6177,-647.0273"/>
</g>
<!-- Node1331&#45;&gt;Node1325 -->
<g id="edge31" class="edge">
<title>Node1331&#45;&gt;Node1325</title>
<path fill="none" stroke="#191970" d="M431.9122,-677.589C459.0917,-683.4573 493.6928,-690.928 520.5919,-696.7357"/>
<polygon fill="#191970" stroke="#191970" points="519.9791,-700.184 530.4926,-698.8734 521.4565,-693.3417 519.9791,-700.184"/>
</g>
<!-- Node1331&#45;&gt;Node1329 -->
<g id="edge32" class="edge">
<title>Node1331&#45;&gt;Node1329</title>
<path fill="none" stroke="#191970" d="M432.3676,-663.1563C456.8939,-660.5086 487.3587,-657.2198 512.7498,-654.4787"/>
<polygon fill="#191970" stroke="#191970" points="513.3604,-657.9332 522.927,-653.38 512.609,-650.9737 513.3604,-657.9332"/>
</g>
<!-- Node1334 -->
<g id="node33" class="node">
<title>Node1334</title>
<g id="a_node33"><a xlink:href="group___actions.html#ga1aefbf0f18f0f6dc3247bc413934f56b" target="_top" xlink:title="RVN END. ">
<polygon fill="#ffffff" stroke="#000000" points="316,-126.5 316,-145.5 459,-145.5 459,-126.5 316,-126.5"/>
<text text-anchor="middle" x="387.5" y="-133.5" font-family="Helvetica,sans-Serif" font-size="10.00" fill="#000000">CWallet::CommitTransaction</text>
</a>
</g>
</g>
<!-- Node1333&#45;&gt;Node1334 -->
<g id="edge35" class="edge">
<title>Node1333&#45;&gt;Node1334</title>
<path fill="none" stroke="#191970" d="M257.911,-101.5473C282.5263,-108.0916 315.3863,-116.8278 341.8572,-123.8654"/>
<polygon fill="#191970" stroke="#191970" points="341.0955,-127.2844 351.659,-126.4713 342.8941,-120.5194 341.0955,-127.2844"/>
</g>
<!-- Node1337 -->
<g id="node36" class="node">
<title>Node1337</title>
<g id="a_node36"><a xlink:href="class_c_validation_state.html#a8fa9612cb40c3c8592f7cd29b5931ccd" target="_top" xlink:title="CValidationState::GetReject\lReason">
<polygon fill="#ffffff" stroke="#000000" points="317.5,-77 317.5,-107 457.5,-107 457.5,-77 317.5,-77"/>
<text text-anchor="start" x="325.5" y="-95" font-family="Helvetica,sans-Serif" font-size="10.00" fill="#000000">CValidationState::GetReject</text>
<text text-anchor="middle" x="387.5" y="-84" font-family="Helvetica,sans-Serif" font-size="10.00" fill="#000000">Reason</text>
</a>
</g>
</g>
<!-- Node1333&#45;&gt;Node1337 -->
<g id="edge38" class="edge">
<title>Node1333&#45;&gt;Node1337</title>
<path fill="none" stroke="#191970" d="M280.3491,-92C289.0716,-92 298.1914,-92 307.2706,-92"/>
<polygon fill="#191970" stroke="#191970" points="307.4809,-95.5001 317.4808,-92 307.4808,-88.5001 307.4809,-95.5001"/>
</g>
<!-- Node1338 -->
<g id="node37" class="node">
<title>Node1338</title>
<g id="a_node37"><a xlink:href="class_c_merkle_tx.html#a20142f81e7ff0242db646e63e0a973b3" target="_top" xlink:title="CMerkleTx::GetHash">
<polygon fill="#ffffff" stroke="#000000" points="332.5,-38.5 332.5,-57.5 442.5,-57.5 442.5,-38.5 332.5,-38.5"/>
<text text-anchor="middle" x="387.5" y="-45.5" font-family="Helvetica,sans-Serif" font-size="10.00" fill="#000000">CMerkleTx::GetHash</text>
</a>
</g>
</g>
<!-- Node1333&#45;&gt;Node1338 -->
<g id="edge39" class="edge">
<title>Node1333&#45;&gt;Node1338</title>
<path fill="none" stroke="#191970" d="M258.1558,-82.3822C275.6303,-77.7343 296.9057,-72.0761 316,-67 324.2972,-64.7942 333.1362,-62.445 341.6683,-60.1775"/>
<polygon fill="#191970" stroke="#191970" points="342.7268,-63.5178 351.4925,-57.5669 340.929,-56.7526 342.7268,-63.5178"/>
</g>
<!-- Node1339 -->
<g id="node38" class="node">
<title>Node1339</title>
<g id="a_node38"><a xlink:href="classbase__blob.html#ad7263503f949fb3c6c520ebb1f28e378" target="_top" xlink:title="base_blob::GetHex">
<polygon fill="#ffffff" stroke="#000000" points="337,-.5 337,-19.5 438,-19.5 438,-.5 337,-.5"/>
<text text-anchor="middle" x="387.5" y="-7.5" font-family="Helvetica,sans-Serif" font-size="10.00" fill="#000000">base_blob::GetHex</text>
</a>
</g>
</g>
<!-- Node1333&#45;&gt;Node1339 -->
<g id="edge40" class="edge">
<title>Node1333&#45;&gt;Node1339</title>
<path fill="none" stroke="#191970" d="M233.4172,-82.4953C250.4002,-68.8052 283.785,-43.5836 316,-29 321.3221,-26.5907 327.0101,-24.4378 332.7659,-22.5262"/>
<polygon fill="#191970" stroke="#191970" points="333.9404,-25.8267 342.4641,-19.5342 331.8767,-19.1378 333.9404,-25.8267"/>
</g>
<!-- Node1335 -->
<g id="node34" class="node">
<title>Node1335</title>
<g id="a_node34"><a xlink:href="group___actions.html#ga493d06f41ca9571f2a42c8581a3952d8" target="_top" xlink:title="CReserveKey::KeepKey">
<polygon fill="#ffffff" stroke="#000000" points="501.5,-145.5 501.5,-164.5 625.5,-164.5 625.5,-145.5 501.5,-145.5"/>
<text text-anchor="middle" x="563.5" y="-152.5" font-family="Helvetica,sans-Serif" font-size="10.00" fill="#000000">CReserveKey::KeepKey</text>
</a>
</g>
</g>
<!-- Node1334&#45;&gt;Node1335 -->
<g id="edge36" class="edge">
<title>Node1334&#45;&gt;Node1335</title>
<path fill="none" stroke="#191970" d="M459.0859,-143.728C469.6876,-144.8725 480.6188,-146.0526 491.2343,-147.1986"/>
<polygon fill="#191970" stroke="#191970" points="490.9763,-150.691 501.2942,-148.2846 491.7277,-143.7314 490.9763,-150.691"/>
</g>
<!-- Node1336 -->
<g id="node35" class="node">
<title>Node1336</title>
<g id="a_node35"><a xlink:href="class_c_wallet_tx.html#ab0ee7347584bff886dc24b9f63ff023c" target="_top" xlink:title="CWalletTx::BindWallet">
<polygon fill="#ffffff" stroke="#000000" points="505.5,-107.5 505.5,-126.5 621.5,-126.5 621.5,-107.5 505.5,-107.5"/>
<text text-anchor="middle" x="563.5" y="-114.5" font-family="Helvetica,sans-Serif" font-size="10.00" fill="#000000">CWalletTx::BindWallet</text>
</a>
</g>
</g>
<!-- Node1334&#45;&gt;Node1336 -->
<g id="edge37" class="edge">
<title>Node1334&#45;&gt;Node1336</title>
<path fill="none" stroke="#191970" d="M459.0859,-128.272C471.0103,-126.9847 483.3516,-125.6524 495.1916,-124.3742"/>
<polygon fill="#191970" stroke="#191970" points="495.8777,-127.8206 505.4443,-123.2674 495.1263,-120.861 495.8777,-127.8206"/>
</g>
</g>
</svg>
