<?xml version="1.0" encoding="UTF-8" standalone="no"?>
<!DOCTYPE svg PUBLIC "-//W3C//DTD SVG 1.1//EN"
 "http://www.w3.org/Graphics/SVG/1.1/DTD/svg11.dtd">
<!-- Generated by graphviz version 2.40.1 (20161225.0304)
 -->
<!-- Title: CChainParams::IssueSubQualifierAssetBurnAddress Pages: 1 -->
<svg width="491pt" height="39pt"
 viewBox="0.00 0.00 491.00 39.00" xmlns="http://www.w3.org/2000/svg" xmlns:xlink="http://www.w3.org/1999/xlink">
<g id="graph0" class="graph" transform="scale(1 1) rotate(0) translate(4 35)">
<title>CChainParams::IssueSubQualifierAssetBurnAddress</title>
<polygon fill="#ffffff" stroke="transparent" points="-4,4 -4,-35 487,-35 487,4 -4,4"/>
<!-- Node299 -->
<g id="node1" class="node">
<title>Node299</title>
<polygon fill="#bfbfbf" stroke="#000000" points="0,-.5 0,-30.5 167,-30.5 167,-.5 0,-.5"/>
<text text-anchor="start" x="8" y="-18.5" font-family="Helvetica,sans-Serif" font-size="10.00" fill="#000000">CChainParams::IssueSubQualifier</text>
<text text-anchor="middle" x="83.5" y="-7.5" font-family="Helvetica,sans-Serif" font-size="10.00" fill="#000000">AssetBurnAddress</text>
</g>
<!-- Node300 -->
<g id="node2" class="node">
<title>Node300</title>
<g id="a_node2"><a xlink:href="assets_8h.html#a40b0579846255b204489d91fecfee1eb" target="_top" xlink:title="Functions to be used to get access to the burn address for a given asset type issuance. ">
<polygon fill="#ffffff" stroke="#000000" points="203,-6 203,-25 292,-25 292,-6 203,-6"/>
<text text-anchor="middle" x="247.5" y="-13" font-family="Helvetica,sans-Serif" font-size="10.00" fill="#000000">GetBurnAddress</text>
</a>
</g>
</g>
<!-- Node299&#45;&gt;Node300 -->
<g id="edge1" class="edge">
<title>Node299&#45;&gt;Node300</title>
<path fill="none" stroke="#191970" d="M177.6248,-15.5C186.2646,-15.5 194.7208,-15.5 202.5982,-15.5"/>
<polygon fill="#191970" stroke="#191970" points="177.4218,-12.0001 167.4217,-15.5 177.4217,-19.0001 177.4218,-12.0001"/>
</g>
<!-- Node301 -->
<g id="node3" class="node">
<title>Node301</title>
<g id="a_node3"><a xlink:href="class_c_assets_cache.html#a117ef717832c597298ad096e2dbc3299" target="_top" xlink:title="CAssetsCache::CacheToString">
<polygon fill="#ffffff" stroke="#000000" points="328,-6 328,-25 483,-25 483,-6 328,-6"/>
<text text-anchor="middle" x="405.5" y="-13" font-family="Helvetica,sans-Serif" font-size="10.00" fill="#000000">CAssetsCache::CacheToString</text>
</a>
</g>
</g>
<!-- Node300&#45;&gt;Node301 -->
<g id="edge2" class="edge">
<title>Node300&#45;&gt;Node301</title>
<path fill="none" stroke="#191970" d="M302.5325,-15.5C310.754,-15.5 319.3579,-15.5 327.9392,-15.5"/>
<polygon fill="#191970" stroke="#191970" points="302.3539,-12.0001 292.3538,-15.5 302.3538,-19.0001 302.3539,-12.0001"/>
</g>
</g>
</svg>
