<?xml version="1.0" encoding="UTF-8" standalone="no"?>
<!DOCTYPE svg PUBLIC "-//W3C//DTD SVG 1.1//EN"
 "http://www.w3.org/Graphics/SVG/1.1/DTD/svg11.dtd">
<!-- Generated by graphviz version 2.40.1 (20161225.0304)
 -->
<!-- Title: CTransaction::IsNewAsset Pages: 1 -->
<svg width="460pt" height="209pt"
 viewBox="0.00 0.00 460.00 209.00" xmlns="http://www.w3.org/2000/svg" xmlns:xlink="http://www.w3.org/1999/xlink">
<g id="graph0" class="graph" transform="scale(1 1) rotate(0) translate(4 205)">
<title>CTransaction::IsNewAsset</title>
<polygon fill="#ffffff" stroke="transparent" points="-4,4 -4,-205 456,-205 456,4 -4,4"/>
<!-- Node94 -->
<g id="node1" class="node">
<title>Node94</title>
<polygon fill="#bfbfbf" stroke="#000000" points="0,-84.5 0,-103.5 135,-103.5 135,-84.5 0,-84.5"/>
<text text-anchor="middle" x="67.5" y="-91.5" font-family="Helvetica,sans-Serif" font-size="10.00" fill="#000000">CTransaction::IsNewAsset</text>
</g>
<!-- Node95 -->
<g id="node2" class="node">
<title>Node95</title>
<g id="a_node2"><a xlink:href="assets_2assets_8cpp.html#a43c3b1ec45d04f238c64199742ef2260" target="_top" xlink:title="issue asset scripts to make sure script meets the standards ">
<polygon fill="#ffffff" stroke="#000000" points="191,-154.5 191,-173.5 292,-173.5 292,-154.5 191,-154.5"/>
<text text-anchor="middle" x="241.5" y="-161.5" font-family="Helvetica,sans-Serif" font-size="10.00" fill="#000000">CheckIssueDataTx</text>
</a>
</g>
</g>
<!-- Node94&#45;&gt;Node95 -->
<g id="edge1" class="edge">
<title>Node94&#45;&gt;Node95</title>
<path fill="none" stroke="#191970" d="M87.0634,-103.671C107.6709,-113.671 141.2027,-129.415 171,-141 180.2621,-144.601 190.3481,-148.1215 199.9191,-151.2826"/>
<polygon fill="#191970" stroke="#191970" points="199.0586,-154.6829 209.6506,-154.435 201.2159,-148.0235 199.0586,-154.6829"/>
</g>
<!-- Node97 -->
<g id="node4" class="node">
<title>Node97</title>
<g id="a_node4"><a xlink:href="assets_2assets_8cpp.html#aec0d9276d4ea752c30ce47119691085c" target="_top" xlink:title="CheckOwnerDataTx">
<polygon fill="#ffffff" stroke="#000000" points="188.5,-112.5 188.5,-131.5 294.5,-131.5 294.5,-112.5 188.5,-112.5"/>
<text text-anchor="middle" x="241.5" y="-119.5" font-family="Helvetica,sans-Serif" font-size="10.00" fill="#000000">CheckOwnerDataTx</text>
</a>
</g>
</g>
<!-- Node94&#45;&gt;Node97 -->
<g id="edge4" class="edge">
<title>Node94&#45;&gt;Node97</title>
<path fill="none" stroke="#191970" d="M126.8943,-103.5577C143.4447,-106.221 161.482,-109.1235 178.2456,-111.8211"/>
<polygon fill="#191970" stroke="#191970" points="178.065,-115.337 188.494,-113.4703 179.1771,-108.4259 178.065,-115.337"/>
</g>
<!-- Node99 -->
<g id="node6" class="node">
<title>Node99</title>
<g id="a_node6"><a xlink:href="assets_2assets_8cpp.html#a9ea2e070a8aaa69fbbe700a6addbc93f" target="_top" xlink:title="Check script and see if it matches the unquie issuance template. ">
<polygon fill="#ffffff" stroke="#000000" points="178,-56.5 178,-75.5 305,-75.5 305,-56.5 178,-56.5"/>
<text text-anchor="middle" x="241.5" y="-63.5" font-family="Helvetica,sans-Serif" font-size="10.00" fill="#000000">IsScriptNewUniqueAsset</text>
</a>
</g>
</g>
<!-- Node94&#45;&gt;Node99 -->
<g id="edge7" class="edge">
<title>Node94&#45;&gt;Node99</title>
<path fill="none" stroke="#191970" d="M126.8943,-84.4423C141.4526,-82.0996 157.1614,-79.5717 172.1418,-77.1611"/>
<polygon fill="#191970" stroke="#191970" points="173.0565,-80.559 182.3734,-75.5146 171.9443,-73.6479 173.0565,-80.559"/>
</g>
<!-- Node100 -->
<g id="node7" class="node">
<title>Node100</title>
<g id="a_node7"><a xlink:href="assets_2assets_8cpp.html#ae57e5c2b41269a2abba633538f8c927d" target="_top" xlink:title="Check script and see if it matches the restricted issueance template. ">
<polygon fill="#ffffff" stroke="#000000" points="171,-.5 171,-19.5 312,-19.5 312,-.5 171,-.5"/>
<text text-anchor="middle" x="241.5" y="-7.5" font-family="Helvetica,sans-Serif" font-size="10.00" fill="#000000">IsScriptNewRestrictedAsset</text>
</a>
</g>
</g>
<!-- Node94&#45;&gt;Node100 -->
<g id="edge9" class="edge">
<title>Node94&#45;&gt;Node100</title>
<path fill="none" stroke="#191970" d="M87.46,-84.3641C118.1396,-69.5533 177.0408,-41.1182 212.4511,-24.0236"/>
<polygon fill="#191970" stroke="#191970" points="214.2889,-27.023 221.7728,-19.5235 211.2456,-20.7191 214.2889,-27.023"/>
</g>
<!-- Node96 -->
<g id="node3" class="node">
<title>Node96</title>
<g id="a_node3"><a xlink:href="assets_2assets_8cpp.html#ac84c0956bcb6810989cbf6a37a345548" target="_top" xlink:title="Check script and see if it matches the asset issuance template. ">
<polygon fill="#ffffff" stroke="#000000" points="352,-163.5 352,-182.5 448,-182.5 448,-163.5 352,-163.5"/>
<text text-anchor="middle" x="400" y="-170.5" font-family="Helvetica,sans-Serif" font-size="10.00" fill="#000000">IsScriptNewAsset</text>
</a>
</g>
</g>
<!-- Node95&#45;&gt;Node96 -->
<g id="edge2" class="edge">
<title>Node95&#45;&gt;Node96</title>
<path fill="none" stroke="#191970" d="M292.0862,-166.8724C307.7674,-167.7628 325.1791,-168.7515 341.3591,-169.6702"/>
<polygon fill="#191970" stroke="#191970" points="341.6008,-173.1895 351.7832,-170.2621 341.9977,-166.2008 341.6008,-173.1895"/>
</g>
<!-- Node96&#45;&gt;Node96 -->
<g id="edge3" class="edge">
<title>Node96&#45;&gt;Node96</title>
<path fill="none" stroke="#191970" d="M375.6476,-182.7571C363.8005,-191.5653 371.918,-201 400,-201 418.4288,-201 428.2596,-196.9368 429.4924,-191.6539"/>
<polygon fill="#191970" stroke="#191970" points="432.3855,-189.665 424.3524,-182.7571 426.3243,-193.1668 432.3855,-189.665"/>
</g>
<!-- Node98 -->
<g id="node5" class="node">
<title>Node98</title>
<g id="a_node5"><a xlink:href="assets_2assets_8cpp.html#a948242fe5cf1a7fc2b5c74c2eff8a671" target="_top" xlink:title="Check script and see if it matches the owner issuance template. ">
<polygon fill="#ffffff" stroke="#000000" points="348,-107.5 348,-126.5 452,-126.5 452,-107.5 348,-107.5"/>
<text text-anchor="middle" x="400" y="-114.5" font-family="Helvetica,sans-Serif" font-size="10.00" fill="#000000">IsScriptOwnerAsset</text>
</a>
</g>
</g>
<!-- Node97&#45;&gt;Node98 -->
<g id="edge5" class="edge">
<title>Node97&#45;&gt;Node98</title>
<path fill="none" stroke="#191970" d="M294.7191,-120.3212C308.5415,-119.8851 323.5523,-119.4116 337.7925,-118.9624"/>
<polygon fill="#191970" stroke="#191970" points="338.1128,-122.4541 347.9974,-118.6405 337.892,-115.4576 338.1128,-122.4541"/>
</g>
<!-- Node98&#45;&gt;Node98 -->
<g id="edge6" class="edge">
<title>Node98&#45;&gt;Node98</title>
<path fill="none" stroke="#191970" d="M375.6476,-126.7571C363.8005,-135.5653 371.918,-145 400,-145 418.4288,-145 428.2596,-140.9368 429.4924,-135.6539"/>
<polygon fill="#191970" stroke="#191970" points="432.3855,-133.665 424.3524,-126.7571 426.3243,-137.1668 432.3855,-133.665"/>
</g>
<!-- Node99&#45;&gt;Node99 -->
<g id="edge8" class="edge">
<title>Node99&#45;&gt;Node99</title>
<path fill="none" stroke="#191970" d="M217.1476,-75.7571C205.3005,-84.5653 213.418,-94 241.5,-94 259.9288,-94 269.7596,-89.9368 270.9924,-84.6539"/>
<polygon fill="#191970" stroke="#191970" points="273.8855,-82.665 265.8524,-75.7571 267.8243,-86.1668 273.8855,-82.665"/>
</g>
<!-- Node100&#45;&gt;Node100 -->
<g id="edge10" class="edge">
<title>Node100&#45;&gt;Node100</title>
<path fill="none" stroke="#191970" d="M217.1476,-19.7571C205.3005,-28.5653 213.418,-38 241.5,-38 259.9288,-38 269.7596,-33.9368 270.9924,-28.6539"/>
<polygon fill="#191970" stroke="#191970" points="273.8855,-26.665 265.8524,-19.7571 267.8243,-30.1668 273.8855,-26.665"/>
</g>
</g>
</svg>
