<?xml version="1.0" encoding="UTF-8" standalone="no"?>
<!DOCTYPE svg PUBLIC "-//W3C//DTD SVG 1.1//EN"
 "http://www.w3.org/Graphics/SVG/1.1/DTD/svg11.dtd">
<!-- Generated by graphviz version 2.40.1 (20161225.0304)
 -->
<!-- Title: TxConfirmStats::resizeInMemoryCounters Pages: 1 -->
<svg width="487pt" height="39pt"
 viewBox="0.00 0.00 487.00 39.00" xmlns="http://www.w3.org/2000/svg" xmlns:xlink="http://www.w3.org/1999/xlink">
<g id="graph0" class="graph" transform="scale(1 1) rotate(0) translate(4 35)">
<title>TxConfirmStats::resizeInMemoryCounters</title>
<polygon fill="#ffffff" stroke="transparent" points="-4,4 -4,-35 483,-35 483,4 -4,4"/>
<!-- Node113 -->
<g id="node1" class="node">
<title>Node113</title>
<polygon fill="#bfbfbf" stroke="#000000" points="0,-.5 0,-30.5 126,-30.5 126,-.5 0,-.5"/>
<text text-anchor="start" x="8" y="-18.5" font-family="Helvetica,sans-Serif" font-size="10.00" fill="#000000">TxConfirmStats::resizeIn</text>
<text text-anchor="middle" x="63" y="-7.5" font-family="Helvetica,sans-Serif" font-size="10.00" fill="#000000">MemoryCounters</text>
</g>
<!-- Node114 -->
<g id="node2" class="node">
<title>Node114</title>
<g id="a_node2"><a xlink:href="class_tx_confirm_stats.html#a34b67526e2ceea1b81d8669e3faf6a42" target="_top" xlink:title="Return the max number of confirms we&#39;re tracking. ">
<polygon fill="#ffffff" stroke="#000000" points="162,-6 162,-25 328,-25 328,-6 162,-6"/>
<text text-anchor="middle" x="245" y="-13" font-family="Helvetica,sans-Serif" font-size="10.00" fill="#000000">TxConfirmStats::GetMaxConfirms</text>
</a>
</g>
</g>
<!-- Node113&#45;&gt;Node114 -->
<g id="edge1" class="edge">
<title>Node113&#45;&gt;Node114</title>
<path fill="none" stroke="#191970" d="M126.144,-15.5C134.4088,-15.5 143.0128,-15.5 151.6451,-15.5"/>
<polygon fill="#191970" stroke="#191970" points="151.773,-19.0001 161.773,-15.5 151.773,-12.0001 151.773,-19.0001"/>
</g>
<!-- Node115 -->
<g id="node3" class="node">
<title>Node115</title>
<g id="a_node3"><a xlink:href="class_tx_confirm_stats.html#a8aacab502acae6b278ede7c68c168dc8" target="_top" xlink:title="Write state of estimation data to a file. ">
<polygon fill="#ffffff" stroke="#000000" points="364,-6 364,-25 479,-25 479,-6 364,-6"/>
<text text-anchor="middle" x="421.5" y="-13" font-family="Helvetica,sans-Serif" font-size="10.00" fill="#000000">TxConfirmStats::Write</text>
</a>
</g>
</g>
<!-- Node114&#45;&gt;Node115 -->
<g id="edge2" class="edge">
<title>Node114&#45;&gt;Node115</title>
<path fill="none" stroke="#191970" d="M328.0817,-15.5C336.6631,-15.5 345.3099,-15.5 353.6961,-15.5"/>
<polygon fill="#191970" stroke="#191970" points="353.7741,-19.0001 363.7741,-15.5 353.7741,-12.0001 353.7741,-19.0001"/>
</g>
</g>
</svg>
