<?xml version="1.0" encoding="UTF-8" standalone="no"?>
<!DOCTYPE svg PUBLIC "-//W3C//DTD SVG 1.1//EN"
 "http://www.w3.org/Graphics/SVG/1.1/DTD/svg11.dtd">
<!-- Generated by graphviz version 2.40.1 (20161225.0304)
 -->
<!-- Title: CWalletDB::WriteAccount Pages: 1 -->
<svg width="593pt" height="66pt"
 viewBox="0.00 0.00 593.00 66.00" xmlns="http://www.w3.org/2000/svg" xmlns:xlink="http://www.w3.org/1999/xlink">
<g id="graph0" class="graph" transform="scale(1 1) rotate(0) translate(4 62)">
<title>CWalletDB::WriteAccount</title>
<polygon fill="#ffffff" stroke="transparent" points="-4,4 -4,-62 589,-62 589,4 -4,4"/>
<!-- Node219 -->
<g id="node1" class="node">
<title>Node219</title>
<polygon fill="#bfbfbf" stroke="#000000" points="0,-19.5 0,-38.5 131,-38.5 131,-19.5 0,-19.5"/>
<text text-anchor="middle" x="65.5" y="-26.5" font-family="Helvetica,sans-Serif" font-size="10.00" fill="#000000">CWalletDB::WriteAccount</text>
</g>
<!-- Node220 -->
<g id="node2" class="node">
<title>Node220</title>
<g id="a_node2"><a xlink:href="group__map_wallet.html#ga5f7245634960710d25795021dee8109d" target="_top" xlink:title="CWallet::GetAccountPubkey">
<polygon fill="#ffffff" stroke="#000000" points="167,-19.5 167,-38.5 310,-38.5 310,-19.5 167,-19.5"/>
<text text-anchor="middle" x="238.5" y="-26.5" font-family="Helvetica,sans-Serif" font-size="10.00" fill="#000000">CWallet::GetAccountPubkey</text>
</a>
</g>
</g>
<!-- Node219&#45;&gt;Node220 -->
<g id="edge1" class="edge">
<title>Node219&#45;&gt;Node220</title>
<path fill="none" stroke="#191970" d="M141.5259,-29C149.9011,-29 158.4093,-29 166.7302,-29"/>
<polygon fill="#191970" stroke="#191970" points="141.3974,-25.5001 131.3974,-29 141.3974,-32.5001 141.3974,-25.5001"/>
</g>
<!-- Node221 -->
<g id="node3" class="node">
<title>Node221</title>
<g id="a_node3"><a xlink:href="rpcwallet_8cpp.html#ab19bc7a532955f6da81600c3e1b0baa3" target="_top" xlink:title="GetAccountAddress">
<polygon fill="#ffffff" stroke="#000000" points="346,-19.5 346,-38.5 450,-38.5 450,-19.5 346,-19.5"/>
<text text-anchor="middle" x="398" y="-26.5" font-family="Helvetica,sans-Serif" font-size="10.00" fill="#000000">GetAccountAddress</text>
</a>
</g>
</g>
<!-- Node220&#45;&gt;Node221 -->
<g id="edge2" class="edge">
<title>Node220&#45;&gt;Node221</title>
<path fill="none" stroke="#191970" d="M320.3968,-29C328.99,-29 337.5499,-29 345.6771,-29"/>
<polygon fill="#191970" stroke="#191970" points="320.3179,-25.5001 310.3178,-29 320.3178,-32.5001 320.3179,-25.5001"/>
</g>
<!-- Node222 -->
<g id="node4" class="node">
<title>Node222</title>
<g id="a_node4"><a xlink:href="rpcwallet_8cpp.html#a333562390545ba33b4dfd2bb0c76cb0e" target="_top" xlink:title="getaccountaddress">
<polygon fill="#ffffff" stroke="#000000" points="486,-38.5 486,-57.5 585,-57.5 585,-38.5 486,-38.5"/>
<text text-anchor="middle" x="535.5" y="-45.5" font-family="Helvetica,sans-Serif" font-size="10.00" fill="#000000">getaccountaddress</text>
</a>
</g>
</g>
<!-- Node221&#45;&gt;Node222 -->
<g id="edge3" class="edge">
<title>Node221&#45;&gt;Node222</title>
<path fill="none" stroke="#191970" d="M460.3631,-37.6174C468.9515,-38.8042 477.6741,-40.0095 485.9884,-41.1584"/>
<polygon fill="#191970" stroke="#191970" points="460.7601,-34.1391 450.3751,-36.2373 459.8019,-41.0732 460.7601,-34.1391"/>
</g>
<!-- Node223 -->
<g id="node5" class="node">
<title>Node223</title>
<g id="a_node5"><a xlink:href="rpcwallet_8cpp.html#afac2373870d7a69caeec7f1d0abd5a06" target="_top" xlink:title="setaccount">
<polygon fill="#ffffff" stroke="#000000" points="503,-.5 503,-19.5 568,-19.5 568,-.5 503,-.5"/>
<text text-anchor="middle" x="535.5" y="-7.5" font-family="Helvetica,sans-Serif" font-size="10.00" fill="#000000">setaccount</text>
</a>
</g>
</g>
<!-- Node221&#45;&gt;Node223 -->
<g id="edge4" class="edge">
<title>Node221&#45;&gt;Node223</title>
<path fill="none" stroke="#191970" d="M460.4067,-20.3765C475.0336,-18.3554 490.0466,-16.2808 502.7673,-14.5231"/>
<polygon fill="#191970" stroke="#191970" points="459.8019,-16.9268 450.3751,-21.7627 460.7601,-23.8609 459.8019,-16.9268"/>
</g>
</g>
</svg>
