<?xml version="1.0" encoding="UTF-8" standalone="no"?>
<!DOCTYPE svg PUBLIC "-//W3C//DTD SVG 1.1//EN"
 "http://www.w3.org/Graphics/SVG/1.1/DTD/svg11.dtd">
<!-- Generated by graphviz version 2.40.1 (20161225.0304)
 -->
<!-- Title: TxConfirmStats::EstimateMedianVal Pages: 1 -->
<svg width="492pt" height="39pt"
 viewBox="0.00 0.00 492.00 39.00" xmlns="http://www.w3.org/2000/svg" xmlns:xlink="http://www.w3.org/1999/xlink">
<g id="graph0" class="graph" transform="scale(1 1) rotate(0) translate(4 35)">
<title>TxConfirmStats::EstimateMedianVal</title>
<polygon fill="#ffffff" stroke="transparent" points="-4,4 -4,-35 488,-35 488,4 -4,4"/>
<!-- Node10 -->
<g id="node1" class="node">
<title>Node10</title>
<polygon fill="#bfbfbf" stroke="#000000" points="0,-.5 0,-30.5 131,-30.5 131,-.5 0,-.5"/>
<text text-anchor="start" x="8" y="-18.5" font-family="Helvetica,sans-Serif" font-size="10.00" fill="#000000">TxConfirmStats::Estimate</text>
<text text-anchor="middle" x="65.5" y="-7.5" font-family="Helvetica,sans-Serif" font-size="10.00" fill="#000000">MedianVal</text>
</g>
<!-- Node11 -->
<g id="node2" class="node">
<title>Node11</title>
<g id="a_node2"><a xlink:href="class_tx_confirm_stats.html#a34b67526e2ceea1b81d8669e3faf6a42" target="_top" xlink:title="Return the max number of confirms we&#39;re tracking. ">
<polygon fill="#ffffff" stroke="#000000" points="167,-6 167,-25 333,-25 333,-6 167,-6"/>
<text text-anchor="middle" x="250" y="-13" font-family="Helvetica,sans-Serif" font-size="10.00" fill="#000000">TxConfirmStats::GetMaxConfirms</text>
</a>
</g>
</g>
<!-- Node10&#45;&gt;Node11 -->
<g id="edge1" class="edge">
<title>Node10&#45;&gt;Node11</title>
<path fill="none" stroke="#191970" d="M131.0673,-15.5C139.4051,-15.5 148.0611,-15.5 156.7291,-15.5"/>
<polygon fill="#191970" stroke="#191970" points="156.8919,-19.0001 166.8918,-15.5 156.8918,-12.0001 156.8919,-19.0001"/>
</g>
<!-- Node12 -->
<g id="node3" class="node">
<title>Node12</title>
<g id="a_node3"><a xlink:href="class_tx_confirm_stats.html#a8aacab502acae6b278ede7c68c168dc8" target="_top" xlink:title="Write state of estimation data to a file. ">
<polygon fill="#ffffff" stroke="#000000" points="369,-6 369,-25 484,-25 484,-6 369,-6"/>
<text text-anchor="middle" x="426.5" y="-13" font-family="Helvetica,sans-Serif" font-size="10.00" fill="#000000">TxConfirmStats::Write</text>
</a>
</g>
</g>
<!-- Node11&#45;&gt;Node12 -->
<g id="edge2" class="edge">
<title>Node11&#45;&gt;Node12</title>
<path fill="none" stroke="#191970" d="M333.0817,-15.5C341.6631,-15.5 350.3099,-15.5 358.6961,-15.5"/>
<polygon fill="#191970" stroke="#191970" points="358.7741,-19.0001 368.7741,-15.5 358.7741,-12.0001 358.7741,-19.0001"/>
</g>
</g>
</svg>
