<?xml version="1.0" encoding="UTF-8" standalone="no"?>
<!DOCTYPE svg PUBLIC "-//W3C//DTD SVG 1.1//EN"
 "http://www.w3.org/Graphics/SVG/1.1/DTD/svg11.dtd">
<!-- Generated by graphviz version 2.40.1 (20161225.0304)
 -->
<!-- Title: RPCConsole::buildParameterlist Pages: 1 -->
<svg width="270pt" height="104pt"
 viewBox="0.00 0.00 270.00 104.00" xmlns="http://www.w3.org/2000/svg" xmlns:xlink="http://www.w3.org/1999/xlink">
<g id="graph0" class="graph" transform="scale(1 1) rotate(0) translate(4 100)">
<title>RPCConsole::buildParameterlist</title>
<polygon fill="#ffffff" stroke="transparent" points="-4,4 -4,-100 266,-100 266,4 -4,4"/>
<!-- Node53 -->
<g id="node1" class="node">
<title>Node53</title>
<polygon fill="#bfbfbf" stroke="#000000" points="0,-38.5 0,-57.5 158,-57.5 158,-38.5 0,-38.5"/>
<text text-anchor="middle" x="79" y="-45.5" font-family="Helvetica,sans-Serif" font-size="10.00" fill="#000000">RPCConsole::buildParameterlist</text>
</g>
<!-- Node54 -->
<g id="node2" class="node">
<title>Node54</title>
<g id="a_node2"><a xlink:href="rpcconsole_8cpp.html#af007bb2ea31fde5ef557de07fbbec40f" target="_top" xlink:title="RESCAN">
<polygon fill="#ffffff" stroke="#000000" points="198.5,-76.5 198.5,-95.5 257.5,-95.5 257.5,-76.5 198.5,-76.5"/>
<text text-anchor="middle" x="228" y="-83.5" font-family="Helvetica,sans-Serif" font-size="10.00" fill="#000000">RESCAN</text>
</a>
</g>
</g>
<!-- Node53&#45;&gt;Node54 -->
<g id="edge1" class="edge">
<title>Node53&#45;&gt;Node54</title>
<path fill="none" stroke="#191970" d="M116.599,-57.589C138.5788,-63.1946 166.2916,-70.2623 188.5777,-75.946"/>
<polygon fill="#191970" stroke="#191970" points="187.8406,-79.37 198.3954,-78.4498 189.5705,-72.5871 187.8406,-79.37"/>
</g>
<!-- Node55 -->
<g id="node3" class="node">
<title>Node55</title>
<g id="a_node3"><a xlink:href="rpcconsole_8cpp.html#a24cf492047fa76d0994be667ce8fbb1d" target="_top" xlink:title="ZAPTXES1">
<polygon fill="#ffffff" stroke="#000000" points="194,-38.5 194,-57.5 262,-57.5 262,-38.5 194,-38.5"/>
<text text-anchor="middle" x="228" y="-45.5" font-family="Helvetica,sans-Serif" font-size="10.00" fill="#000000">ZAPTXES1</text>
</a>
</g>
</g>
<!-- Node53&#45;&gt;Node55 -->
<g id="edge2" class="edge">
<title>Node53&#45;&gt;Node55</title>
<path fill="none" stroke="#191970" d="M158.2988,-48C166.9971,-48 175.6077,-48 183.6539,-48"/>
<polygon fill="#191970" stroke="#191970" points="183.8661,-51.5001 193.866,-48 183.866,-44.5001 183.8661,-51.5001"/>
</g>
<!-- Node56 -->
<g id="node4" class="node">
<title>Node56</title>
<g id="a_node4"><a xlink:href="rpcconsole_8cpp.html#adeb5e7f9d8eef5f2bdf8d575ebc2a66a" target="_top" xlink:title="REINDEX">
<polygon fill="#ffffff" stroke="#000000" points="197,-.5 197,-19.5 259,-19.5 259,-.5 197,-.5"/>
<text text-anchor="middle" x="228" y="-7.5" font-family="Helvetica,sans-Serif" font-size="10.00" fill="#000000">REINDEX</text>
</a>
</g>
</g>
<!-- Node53&#45;&gt;Node56 -->
<g id="edge3" class="edge">
<title>Node53&#45;&gt;Node56</title>
<path fill="none" stroke="#191970" d="M116.599,-38.411C138.1302,-32.9198 165.1628,-26.0256 187.2066,-20.4037"/>
<polygon fill="#191970" stroke="#191970" points="188.1212,-23.7825 196.9461,-17.9198 186.3913,-16.9997 188.1212,-23.7825"/>
</g>
</g>
</svg>
