<?xml version="1.0" encoding="UTF-8" standalone="no"?>
<!DOCTYPE svg PUBLIC "-//W3C//DTD SVG 1.1//EN"
 "http://www.w3.org/Graphics/SVG/1.1/DTD/svg11.dtd">
<!-- Generated by graphviz version 2.40.1 (20161225.0304)
 -->
<!-- Title: CConnman::ThreadDNSAddressSeed Pages: 1 -->
<svg width="357pt" height="66pt"
 viewBox="0.00 0.00 357.00 66.00" xmlns="http://www.w3.org/2000/svg" xmlns:xlink="http://www.w3.org/1999/xlink">
<g id="graph0" class="graph" transform="scale(1 1) rotate(0) translate(4 62)">
<title>CConnman::ThreadDNSAddressSeed</title>
<polygon fill="#ffffff" stroke="transparent" points="-4,4 -4,-62 353,-62 353,4 -4,4"/>
<!-- Node944 -->
<g id="node1" class="node">
<title>Node944</title>
<polygon fill="#bfbfbf" stroke="#000000" points="0,-19.5 0,-38.5 182,-38.5 182,-19.5 0,-19.5"/>
<text text-anchor="middle" x="91" y="-26.5" font-family="Helvetica,sans-Serif" font-size="10.00" fill="#000000">CConnman::ThreadDNSAddressSeed</text>
</g>
<!-- Node945 -->
<g id="node2" class="node">
<title>Node945</title>
<g id="a_node2"><a xlink:href="class_c_addr_man.html#a244508e8463c4fdfd8b085fcb3b5a225" target="_top" xlink:title="Return the number of (unique) addresses in all tables. ">
<polygon fill="#ffffff" stroke="#000000" points="240,-38.5 240,-57.5 327,-57.5 327,-38.5 240,-38.5"/>
<text text-anchor="middle" x="283.5" y="-45.5" font-family="Helvetica,sans-Serif" font-size="10.00" fill="#000000">CAddrMan::size</text>
</a>
</g>
</g>
<!-- Node944&#45;&gt;Node945 -->
<g id="edge1" class="edge">
<title>Node944&#45;&gt;Node945</title>
<path fill="none" stroke="#191970" d="M182.1764,-37.9992C198.2852,-39.5892 214.5841,-41.1979 229.2614,-42.6466"/>
<polygon fill="#191970" stroke="#191970" points="229.3408,-46.1713 239.6363,-43.6706 230.0284,-39.2052 229.3408,-46.1713"/>
</g>
<!-- Node946 -->
<g id="node3" class="node">
<title>Node946</title>
<g id="a_node3"><a xlink:href="class_args_manager.html#af81c6e2a9dcd6b12557a2387fd67b2a6" target="_top" xlink:title="Return boolean argument or default value. ">
<polygon fill="#ffffff" stroke="#000000" points="218,-.5 218,-19.5 349,-19.5 349,-.5 218,-.5"/>
<text text-anchor="middle" x="283.5" y="-7.5" font-family="Helvetica,sans-Serif" font-size="10.00" fill="#000000">ArgsManager::GetBoolArg</text>
</a>
</g>
</g>
<!-- Node944&#45;&gt;Node946 -->
<g id="edge2" class="edge">
<title>Node944&#45;&gt;Node946</title>
<path fill="none" stroke="#191970" d="M182.1764,-20.0008C190.7433,-19.1552 199.3639,-18.3043 207.7658,-17.4751"/>
<polygon fill="#191970" stroke="#191970" points="208.2796,-20.9414 217.8875,-16.476 207.592,-13.9753 208.2796,-20.9414"/>
</g>
</g>
</svg>
