<?xml version="1.0" encoding="UTF-8" standalone="no"?>
<!DOCTYPE svg PUBLIC "-//W3C//DTD SVG 1.1//EN"
 "http://www.w3.org/Graphics/SVG/1.1/DTD/svg11.dtd">
<!-- Generated by graphviz version 2.40.1 (20161225.0304)
 -->
<!-- Title: indirectmap::clear Pages: 1 -->
<svg width="558pt" height="66pt"
 viewBox="0.00 0.00 558.00 66.00" xmlns="http://www.w3.org/2000/svg" xmlns:xlink="http://www.w3.org/1999/xlink">
<g id="graph0" class="graph" transform="scale(1 1) rotate(0) translate(4 62)">
<title>indirectmap::clear</title>
<polygon fill="#ffffff" stroke="transparent" points="-4,4 -4,-62 554,-62 554,4 -4,4"/>
<!-- Node9 -->
<g id="node1" class="node">
<title>Node9</title>
<polygon fill="#bfbfbf" stroke="#000000" points="0,-19.5 0,-38.5 94,-38.5 94,-19.5 0,-19.5"/>
<text text-anchor="middle" x="47" y="-26.5" font-family="Helvetica,sans-Serif" font-size="10.00" fill="#000000">indirectmap::clear</text>
</g>
<!-- Node10 -->
<g id="node2" class="node">
<title>Node10</title>
<g id="a_node2"><a xlink:href="class_c_tx_mem_pool.html#a2d04be1a3e144d466d45a5f1ec48f62c" target="_top" xlink:title="CTxMemPool::_clear">
<polygon fill="#ffffff" stroke="#000000" points="130,-19.5 130,-38.5 239,-38.5 239,-19.5 130,-19.5"/>
<text text-anchor="middle" x="184.5" y="-26.5" font-family="Helvetica,sans-Serif" font-size="10.00" fill="#000000">CTxMemPool::_clear</text>
</a>
</g>
</g>
<!-- Node9&#45;&gt;Node10 -->
<g id="edge1" class="edge">
<title>Node9&#45;&gt;Node10</title>
<path fill="none" stroke="#191970" d="M104.3377,-29C112.6722,-29 121.237,-29 129.5234,-29"/>
<polygon fill="#191970" stroke="#191970" points="104.3197,-25.5001 94.3197,-29 104.3197,-32.5001 104.3197,-25.5001"/>
</g>
<!-- Node11 -->
<g id="node3" class="node">
<title>Node11</title>
<g id="a_node3"><a xlink:href="class_c_tx_mem_pool.html#a0235036dd3120f920f48ed02dd29de5f" target="_top" xlink:title="Create a new CTxMemPool. ">
<polygon fill="#ffffff" stroke="#000000" points="275,-38.5 275,-57.5 418,-57.5 418,-38.5 275,-38.5"/>
<text text-anchor="middle" x="346.5" y="-45.5" font-family="Helvetica,sans-Serif" font-size="10.00" fill="#000000">CTxMemPool::CTxMemPool</text>
</a>
</g>
</g>
<!-- Node10&#45;&gt;Node11 -->
<g id="edge2" class="edge">
<title>Node10&#45;&gt;Node11</title>
<path fill="none" stroke="#191970" d="M249.3846,-36.6099C257.732,-37.5889 266.3174,-38.5959 274.7665,-39.5868"/>
<polygon fill="#191970" stroke="#191970" points="249.6855,-33.1213 239.3458,-35.4325 248.87,-40.0736 249.6855,-33.1213"/>
</g>
<!-- Node12 -->
<g id="node4" class="node">
<title>Node12</title>
<g id="a_node4"><a xlink:href="class_c_tx_mem_pool.html#a6dba6bce4139392751321438a29b6b09" target="_top" xlink:title="CTxMemPool::clear">
<polygon fill="#ffffff" stroke="#000000" points="294.5,-.5 294.5,-19.5 398.5,-19.5 398.5,-.5 294.5,-.5"/>
<text text-anchor="middle" x="346.5" y="-7.5" font-family="Helvetica,sans-Serif" font-size="10.00" fill="#000000">CTxMemPool::clear</text>
</a>
</g>
</g>
<!-- Node10&#45;&gt;Node12 -->
<g id="edge3" class="edge">
<title>Node10&#45;&gt;Node12</title>
<path fill="none" stroke="#191970" d="M249.5356,-21.3724C264.466,-19.6213 280.1499,-17.7818 294.4482,-16.1048"/>
<polygon fill="#191970" stroke="#191970" points="248.87,-17.9264 239.3458,-22.5675 249.6855,-24.8787 248.87,-17.9264"/>
</g>
<!-- Node13 -->
<g id="node5" class="node">
<title>Node13</title>
<g id="a_node5"><a xlink:href="validation_8h.html#ac98b87e479f71b7be2b990a10c4ebc2d" target="_top" xlink:title="Unload database information. ">
<polygon fill="#ffffff" stroke="#000000" points="454,-.5 454,-19.5 550,-19.5 550,-.5 454,-.5"/>
<text text-anchor="middle" x="502" y="-7.5" font-family="Helvetica,sans-Serif" font-size="10.00" fill="#000000">UnloadBlockIndex</text>
</a>
</g>
</g>
<!-- Node12&#45;&gt;Node13 -->
<g id="edge4" class="edge">
<title>Node12&#45;&gt;Node13</title>
<path fill="none" stroke="#191970" d="M408.9208,-10C423.8907,-10 439.6502,-10 453.8588,-10"/>
<polygon fill="#191970" stroke="#191970" points="408.7119,-6.5001 398.7118,-10 408.7118,-13.5001 408.7119,-6.5001"/>
</g>
</g>
</svg>
