<?xml version="1.0" encoding="UTF-8" standalone="no"?>
<!DOCTYPE svg PUBLIC "-//W3C//DTD SVG 1.1//EN"
 "http://www.w3.org/Graphics/SVG/1.1/DTD/svg11.dtd">
<!-- Generated by graphviz version 2.40.1 (20161225.0304)
 -->
<!-- Title: SendCoinsDialog::updateSmartFeeLabel Pages: 1 -->
<svg width="1577pt" height="88pt"
 viewBox="0.00 0.00 1577.00 88.00" xmlns="http://www.w3.org/2000/svg" xmlns:xlink="http://www.w3.org/1999/xlink">
<g id="graph0" class="graph" transform="scale(1 1) rotate(0) translate(4 84)">
<title>SendCoinsDialog::updateSmartFeeLabel</title>
<polygon fill="#ffffff" stroke="transparent" points="-4,4 -4,-84 1573,-84 1573,4 -4,4"/>
<!-- Node1158 -->
<g id="node1" class="node">
<title>Node1158</title>
<polygon fill="#bfbfbf" stroke="#000000" points="0,-27.5 0,-57.5 154,-57.5 154,-27.5 0,-27.5"/>
<text text-anchor="start" x="8" y="-45.5" font-family="Helvetica,sans-Serif" font-size="10.00" fill="#000000">SendCoinsDialog::updateSmart</text>
<text text-anchor="middle" x="77" y="-34.5" font-family="Helvetica,sans-Serif" font-size="10.00" fill="#000000">FeeLabel</text>
</g>
<!-- Node1159 -->
<g id="node2" class="node">
<title>Node1159</title>
<g id="a_node2"><a xlink:href="class_send_coins_dialog.html#a360a23c02bd0e581b78603ccb863eb79" target="_top" xlink:title="SendCoinsDialog::setClient\lModel">
<polygon fill="#ffffff" stroke="#000000" points="211,-49.5 211,-79.5 348,-79.5 348,-49.5 211,-49.5"/>
<text text-anchor="start" x="219" y="-67.5" font-family="Helvetica,sans-Serif" font-size="10.00" fill="#000000">SendCoinsDialog::setClient</text>
<text text-anchor="middle" x="279.5" y="-56.5" font-family="Helvetica,sans-Serif" font-size="10.00" fill="#000000">Model</text>
</a>
</g>
</g>
<!-- Node1158&#45;&gt;Node1159 -->
<g id="edge1" class="edge">
<title>Node1158&#45;&gt;Node1159</title>
<path fill="none" stroke="#191970" d="M164.2927,-51.9837C179.874,-53.6764 195.9048,-55.4181 210.871,-57.044"/>
<polygon fill="#191970" stroke="#191970" points="164.4538,-48.4806 154.1342,-50.88 163.6977,-55.4397 164.4538,-48.4806"/>
</g>
<!-- Node1167 -->
<g id="node10" class="node">
<title>Node1167</title>
<g id="a_node10"><a xlink:href="class_send_coins_dialog.html#a74815ad8502b126200b6fd2e59e9f042" target="_top" xlink:title="SendCoinsDialog::updateDisplayUnit">
<polygon fill="#ffffff" stroke="#000000" points="190,-11 190,-30 369,-30 369,-11 190,-11"/>
<text text-anchor="middle" x="279.5" y="-18" font-family="Helvetica,sans-Serif" font-size="10.00" fill="#000000">SendCoinsDialog::updateDisplayUnit</text>
</a>
</g>
</g>
<!-- Node1158&#45;&gt;Node1167 -->
<g id="edge10" class="edge">
<title>Node1158&#45;&gt;Node1167</title>
<path fill="none" stroke="#191970" d="M164.3167,-33.0137C173.4072,-32.0261 182.6504,-31.0219 191.7457,-30.0338"/>
<polygon fill="#191970" stroke="#191970" points="163.6977,-29.5603 154.1342,-34.12 164.4538,-36.5194 163.6977,-29.5603"/>
</g>
<!-- Node1160 -->
<g id="node3" class="node">
<title>Node1160</title>
<g id="a_node3"><a xlink:href="class_wallet_view.html#a46d9a8d93adfdcc29cae9ff0d44c313e" target="_top" xlink:title="Set the client model. ">
<polygon fill="#ffffff" stroke="#000000" points="580.5,-52 580.5,-71 717.5,-71 717.5,-52 580.5,-52"/>
<text text-anchor="middle" x="649" y="-59" font-family="Helvetica,sans-Serif" font-size="10.00" fill="#000000">WalletView::setClientModel</text>
</a>
</g>
</g>
<!-- Node1159&#45;&gt;Node1160 -->
<g id="edge2" class="edge">
<title>Node1159&#45;&gt;Node1160</title>
<path fill="none" stroke="#191970" d="M358.4795,-63.8588C424.445,-63.3232 517.5396,-62.5673 580.4207,-62.0568"/>
<polygon fill="#191970" stroke="#191970" points="358.1054,-60.3616 348.1342,-63.9428 358.1623,-67.3614 358.1054,-60.3616"/>
</g>
<!-- Node1161 -->
<g id="node4" class="node">
<title>Node1161</title>
<g id="a_node4"><a xlink:href="class_wallet_frame.html#aa199c3f27654199d84c365cf86167d86" target="_top" xlink:title="WalletFrame::addWallet">
<polygon fill="#ffffff" stroke="#000000" points="755,-33 755,-52 877,-52 877,-33 755,-33"/>
<text text-anchor="middle" x="816" y="-40" font-family="Helvetica,sans-Serif" font-size="10.00" fill="#000000">WalletFrame::addWallet</text>
</a>
</g>
</g>
<!-- Node1160&#45;&gt;Node1161 -->
<g id="edge3" class="edge">
<title>Node1160&#45;&gt;Node1161</title>
<path fill="none" stroke="#191970" d="M727.9874,-52.5134C736.9774,-51.4906 746.0374,-50.4598 754.7488,-49.4687"/>
<polygon fill="#191970" stroke="#191970" points="727.4297,-49.0542 717.8895,-53.6623 728.221,-56.0093 727.4297,-49.0542"/>
</g>
<!-- Node1162 -->
<g id="node5" class="node">
<title>Node1162</title>
<g id="a_node5"><a xlink:href="class_raven_g_u_i.html#a174a3e75c334c5930d3261a2955c3725" target="_top" xlink:title="Set the client model. ">
<polygon fill="#ffffff" stroke="#000000" points="913,-33 913,-52 1047,-52 1047,-33 913,-33"/>
<text text-anchor="middle" x="980" y="-40" font-family="Helvetica,sans-Serif" font-size="10.00" fill="#000000">RavenGUI::setClientModel</text>
</a>
</g>
</g>
<!-- Node1161&#45;&gt;Node1162 -->
<g id="edge4" class="edge">
<title>Node1161&#45;&gt;Node1162</title>
<path fill="none" stroke="#191970" d="M887.303,-42.5C895.7776,-42.5 904.4074,-42.5 912.8217,-42.5"/>
<polygon fill="#191970" stroke="#191970" points="887.0676,-39.0001 877.0675,-42.5 887.0675,-46.0001 887.0676,-39.0001"/>
</g>
<!-- Node1163 -->
<g id="node6" class="node">
<title>Node1163</title>
<g id="a_node6"><a xlink:href="class_raven_application.html#a60123f611cc210870fa67974cb2c804c" target="_top" xlink:title="Request core shutdown. ">
<polygon fill="#ffffff" stroke="#000000" points="1438,-49.5 1438,-79.5 1569,-79.5 1569,-49.5 1438,-49.5"/>
<text text-anchor="start" x="1446" y="-67.5" font-family="Helvetica,sans-Serif" font-size="10.00" fill="#000000">RavenApplication::request</text>
<text text-anchor="middle" x="1503.5" y="-56.5" font-family="Helvetica,sans-Serif" font-size="10.00" fill="#000000">Shutdown</text>
</a>
</g>
</g>
<!-- Node1162&#45;&gt;Node1163 -->
<g id="edge5" class="edge">
<title>Node1162&#45;&gt;Node1163</title>
<path fill="none" stroke="#191970" d="M1057.1333,-45.7415C1160.2203,-50.0737 1341.1346,-57.6766 1437.9629,-61.7458"/>
<polygon fill="#191970" stroke="#191970" points="1057.238,-42.2429 1047.0999,-45.3199 1056.944,-49.2367 1057.238,-42.2429"/>
</g>
<!-- Node1164 -->
<g id="node7" class="node">
<title>Node1164</title>
<g id="a_node7"><a xlink:href="class_raven_application.html#a1a3dcf33ba44507984b2a04e7ebf1542" target="_top" xlink:title="RavenApplication::initialize\lResult">
<polygon fill="#ffffff" stroke="#000000" points="1083,-5.5 1083,-35.5 1217,-35.5 1217,-5.5 1083,-5.5"/>
<text text-anchor="start" x="1091" y="-23.5" font-family="Helvetica,sans-Serif" font-size="10.00" fill="#000000">RavenApplication::initialize</text>
<text text-anchor="middle" x="1150" y="-12.5" font-family="Helvetica,sans-Serif" font-size="10.00" fill="#000000">Result</text>
</a>
</g>
</g>
<!-- Node1162&#45;&gt;Node1164 -->
<g id="edge6" class="edge">
<title>Node1162&#45;&gt;Node1164</title>
<path fill="none" stroke="#191970" d="M1057.146,-32.5164C1065.6879,-31.411 1074.3366,-30.2917 1082.7428,-29.2039"/>
<polygon fill="#191970" stroke="#191970" points="1056.6566,-29.0505 1047.1885,-33.805 1057.555,-35.9926 1056.6566,-29.0505"/>
</g>
<!-- Node1165 -->
<g id="node8" class="node">
<title>Node1165</title>
<g id="a_node8"><a xlink:href="class_raven_application.html#aecfdce3a245b959def5dd35e5cfb192e" target="_top" xlink:title="RavenApplication::startThread">
<polygon fill="#ffffff" stroke="#000000" points="1253,-11 1253,-30 1402,-30 1402,-11 1253,-11"/>
<text text-anchor="middle" x="1327.5" y="-18" font-family="Helvetica,sans-Serif" font-size="10.00" fill="#000000">RavenApplication::startThread</text>
</a>
</g>
</g>
<!-- Node1164&#45;&gt;Node1165 -->
<g id="edge7" class="edge">
<title>Node1164&#45;&gt;Node1165</title>
<path fill="none" stroke="#191970" d="M1227.3486,-20.5C1235.821,-20.5 1244.4344,-20.5 1252.873,-20.5"/>
<polygon fill="#191970" stroke="#191970" points="1227.1052,-17.0001 1217.1051,-20.5 1227.1051,-24.0001 1227.1052,-17.0001"/>
</g>
<!-- Node1165&#45;&gt;Node1163 -->
<g id="edge9" class="edge">
<title>Node1165&#45;&gt;Node1163</title>
<path fill="none" stroke="#191970" d="M1375.6046,-32.5261C1396.4811,-37.7453 1421.1576,-43.9144 1443.2385,-49.4346"/>
<polygon fill="#191970" stroke="#191970" points="1376.2397,-29.0773 1365.6894,-30.0473 1374.5419,-35.8683 1376.2397,-29.0773"/>
</g>
<!-- Node1166 -->
<g id="node9" class="node">
<title>Node1166</title>
<g id="a_node9"><a xlink:href="class_raven_application.html#a63a2032fef875fb81f26c212f69d000d" target="_top" xlink:title="Request core initialization. ">
<polygon fill="#ffffff" stroke="#000000" points="1438,-.5 1438,-30.5 1569,-30.5 1569,-.5 1438,-.5"/>
<text text-anchor="start" x="1446" y="-18.5" font-family="Helvetica,sans-Serif" font-size="10.00" fill="#000000">RavenApplication::request</text>
<text text-anchor="middle" x="1503.5" y="-7.5" font-family="Helvetica,sans-Serif" font-size="10.00" fill="#000000">Initialize</text>
</a>
</g>
</g>
<!-- Node1165&#45;&gt;Node1166 -->
<g id="edge8" class="edge">
<title>Node1165&#45;&gt;Node1166</title>
<path fill="none" stroke="#191970" d="M1412.2384,-18.0927C1420.8743,-17.8473 1429.5522,-17.6008 1437.9387,-17.3625"/>
<polygon fill="#191970" stroke="#191970" points="1412.0364,-14.5969 1402.1398,-18.3795 1412.2352,-21.5941 1412.0364,-14.5969"/>
</g>
<!-- Node1168 -->
<g id="node11" class="node">
<title>Node1168</title>
<g id="a_node11"><a xlink:href="class_send_coins_dialog.html#a73a6c1b1850a334ee652ac167713a2aa" target="_top" xlink:title="SendCoinsDialog::setModel">
<polygon fill="#ffffff" stroke="#000000" points="405,-14 405,-33 543,-33 543,-14 405,-14"/>
<text text-anchor="middle" x="474" y="-21" font-family="Helvetica,sans-Serif" font-size="10.00" fill="#000000">SendCoinsDialog::setModel</text>
</a>
</g>
</g>
<!-- Node1167&#45;&gt;Node1168 -->
<g id="edge11" class="edge">
<title>Node1167&#45;&gt;Node1168</title>
<path fill="none" stroke="#191970" d="M379.2643,-22.0388C387.9568,-22.1729 396.6225,-22.3065 404.9833,-22.4355"/>
<polygon fill="#191970" stroke="#191970" points="379.1173,-18.5362 369.0645,-21.8815 379.0093,-25.5354 379.1173,-18.5362"/>
</g>
<!-- Node1169 -->
<g id="node12" class="node">
<title>Node1169</title>
<g id="a_node12"><a xlink:href="class_wallet_view.html#a0a37ff693a4f9c1e5ddc23f9cd3913be" target="_top" xlink:title="Set the wallet model. ">
<polygon fill="#ffffff" stroke="#000000" points="579,-14 579,-33 719,-33 719,-14 579,-14"/>
<text text-anchor="middle" x="649" y="-21" font-family="Helvetica,sans-Serif" font-size="10.00" fill="#000000">WalletView::setWalletModel</text>
</a>
</g>
</g>
<!-- Node1168&#45;&gt;Node1169 -->
<g id="edge12" class="edge">
<title>Node1168&#45;&gt;Node1169</title>
<path fill="none" stroke="#191970" d="M553.1693,-23.5C561.751,-23.5 570.4407,-23.5 578.9039,-23.5"/>
<polygon fill="#191970" stroke="#191970" points="553.1647,-20.0001 543.1646,-23.5 553.1646,-27.0001 553.1647,-20.0001"/>
</g>
<!-- Node1169&#45;&gt;Node1161 -->
<g id="edge13" class="edge">
<title>Node1169&#45;&gt;Node1161</title>
<path fill="none" stroke="#191970" d="M729.3304,-32.6394C737.8773,-33.6118 746.4685,-34.5892 754.7451,-35.5309"/>
<polygon fill="#191970" stroke="#191970" points="729.6706,-29.1556 719.339,-31.5026 728.8792,-36.1107 729.6706,-29.1556"/>
</g>
</g>
</svg>
