<?xml version="1.0" encoding="UTF-8" standalone="no"?>
<!DOCTYPE svg PUBLIC "-//W3C//DTD SVG 1.1//EN"
 "http://www.w3.org/Graphics/SVG/1.1/DTD/svg11.dtd">
<!-- Generated by graphviz version 2.40.1 (20161225.0304)
 -->
<!-- Title: CreateAssetDialog::on_buttonMinimizeFee_clicked Pages: 1 -->
<svg width="774pt" height="159pt"
 viewBox="0.00 0.00 774.00 158.50" xmlns="http://www.w3.org/2000/svg" xmlns:xlink="http://www.w3.org/1999/xlink">
<g id="graph0" class="graph" transform="scale(1 1) rotate(0) translate(4 154.5)">
<title>CreateAssetDialog::on_buttonMinimizeFee_clicked</title>
<polygon fill="#ffffff" stroke="transparent" points="-4,4 -4,-154.5 770,-154.5 770,4 -4,4"/>
<!-- Node875 -->
<g id="node1" class="node">
<title>Node875</title>
<polygon fill="#bfbfbf" stroke="#000000" points="0,-19 0,-60 115,-60 115,-19 0,-19"/>
<text text-anchor="start" x="8" y="-48" font-family="Helvetica,sans-Serif" font-size="10.00" fill="#000000">CreateAssetDialog::</text>
<text text-anchor="start" x="8" y="-37" font-family="Helvetica,sans-Serif" font-size="10.00" fill="#000000">on_buttonMinimizeFee</text>
<text text-anchor="middle" x="57.5" y="-26" font-family="Helvetica,sans-Serif" font-size="10.00" fill="#000000">_clicked</text>
</g>
<!-- Node876 -->
<g id="node2" class="node">
<title>Node876</title>
<g id="a_node2"><a xlink:href="class_create_asset_dialog.html#a54172e6e984d91e890502daa91a36f84" target="_top" xlink:title="CreateAssetDialog::\lupdateFeeMinimizedLabel">
<polygon fill="#ffffff" stroke="#000000" points="151,-49.5 151,-79.5 281,-79.5 281,-49.5 151,-49.5"/>
<text text-anchor="start" x="159" y="-67.5" font-family="Helvetica,sans-Serif" font-size="10.00" fill="#000000">CreateAssetDialog::</text>
<text text-anchor="middle" x="216" y="-56.5" font-family="Helvetica,sans-Serif" font-size="10.00" fill="#000000">updateFeeMinimizedLabel</text>
</a>
</g>
</g>
<!-- Node875&#45;&gt;Node876 -->
<g id="edge1" class="edge">
<title>Node875&#45;&gt;Node876</title>
<path fill="none" stroke="#191970" d="M115.1705,-48.5963C123.5046,-49.9108 132.1834,-51.2797 140.7983,-52.6385"/>
<polygon fill="#191970" stroke="#191970" points="140.4342,-56.1243 150.8575,-54.2252 141.5249,-49.2098 140.4342,-56.1243"/>
</g>
<!-- Node886 -->
<g id="node12" class="node">
<title>Node886</title>
<g id="a_node12"><a xlink:href="class_create_asset_dialog.html#a5402717c3ea3a108f981b56b8b1ae584" target="_top" xlink:title="CreateAssetDialog::\lminimizeFeeSection">
<polygon fill="#ffffff" stroke="#000000" points="163.5,-.5 163.5,-30.5 268.5,-30.5 268.5,-.5 163.5,-.5"/>
<text text-anchor="start" x="171.5" y="-18.5" font-family="Helvetica,sans-Serif" font-size="10.00" fill="#000000">CreateAssetDialog::</text>
<text text-anchor="middle" x="216" y="-7.5" font-family="Helvetica,sans-Serif" font-size="10.00" fill="#000000">minimizeFeeSection</text>
</a>
</g>
</g>
<!-- Node875&#45;&gt;Node886 -->
<g id="edge11" class="edge">
<title>Node875&#45;&gt;Node886</title>
<path fill="none" stroke="#191970" d="M115.1705,-30.7676C127.6025,-28.8851 140.8015,-26.8865 153.4111,-24.9772"/>
<polygon fill="#191970" stroke="#191970" points="154.0082,-28.4268 163.3715,-23.469 152.9601,-21.5057 154.0082,-28.4268"/>
</g>
<!-- Node877 -->
<g id="node3" class="node">
<title>Node877</title>
<g id="a_node3"><a xlink:href="class_wallet_model.html#a96d53e56b3f8f07537ea2523f7a7d300" target="_top" xlink:title="WalletModel::getOptionsModel">
<polygon fill="#ffffff" stroke="#000000" points="317,-93 317,-112 467,-112 467,-93 317,-93"/>
<text text-anchor="middle" x="392" y="-100" font-family="Helvetica,sans-Serif" font-size="10.00" fill="#000000">WalletModel::getOptionsModel</text>
</a>
</g>
</g>
<!-- Node876&#45;&gt;Node877 -->
<g id="edge2" class="edge">
<title>Node876&#45;&gt;Node877</title>
<path fill="none" stroke="#191970" d="M281.0359,-78.5418C299.7041,-82.5725 319.8547,-86.9232 337.7956,-90.7968"/>
<polygon fill="#191970" stroke="#191970" points="337.2793,-94.2659 347.7928,-92.9553 338.7567,-87.4236 337.2793,-94.2659"/>
</g>
<!-- Node878 -->
<g id="node4" class="node">
<title>Node878</title>
<g id="a_node4"><a xlink:href="class_raven_units.html#ad61d958c9c19db002368eec18bf1527c" target="_top" xlink:title="Format as string (with unit) ">
<polygon fill="#ffffff" stroke="#000000" points="322,-55 322,-74 462,-74 462,-55 322,-55"/>
<text text-anchor="middle" x="392" y="-62" font-family="Helvetica,sans-Serif" font-size="10.00" fill="#000000">RavenUnits::formatWithUnit</text>
</a>
</g>
</g>
<!-- Node876&#45;&gt;Node878 -->
<g id="edge3" class="edge">
<title>Node876&#45;&gt;Node878</title>
<path fill="none" stroke="#191970" d="M281.0359,-64.5C291.0239,-64.5 301.4362,-64.5 311.7075,-64.5"/>
<polygon fill="#191970" stroke="#191970" points="311.9107,-68.0001 321.9107,-64.5 311.9107,-61.0001 311.9107,-68.0001"/>
</g>
<!-- Node885 -->
<g id="node11" class="node">
<title>Node885</title>
<g id="a_node11"><a xlink:href="class_options_model.html#a00a1f0842f764f64086e7d5d42bbce63" target="_top" xlink:title="OptionsModel::getDisplayUnit">
<polygon fill="#ffffff" stroke="#000000" points="318.5,-17 318.5,-36 465.5,-36 465.5,-17 318.5,-17"/>
<text text-anchor="middle" x="392" y="-24" font-family="Helvetica,sans-Serif" font-size="10.00" fill="#000000">OptionsModel::getDisplayUnit</text>
</a>
</g>
</g>
<!-- Node876&#45;&gt;Node885 -->
<g id="edge10" class="edge">
<title>Node876&#45;&gt;Node885</title>
<path fill="none" stroke="#191970" d="M281.0359,-50.4582C299.7041,-46.4275 319.8547,-42.0768 337.7956,-38.2032"/>
<polygon fill="#191970" stroke="#191970" points="338.7567,-41.5764 347.7928,-36.0447 337.2793,-34.7341 338.7567,-41.5764"/>
</g>
<!-- Node879 -->
<g id="node5" class="node">
<title>Node879</title>
<g id="a_node5"><a xlink:href="class_raven_units.html#ad41cc41215cd361cdc458aec1cd05786" target="_top" xlink:title="Format as string. ">
<polygon fill="#ffffff" stroke="#000000" points="503,-74 503,-93 605,-93 605,-74 503,-74"/>
<text text-anchor="middle" x="554" y="-81" font-family="Helvetica,sans-Serif" font-size="10.00" fill="#000000">RavenUnits::format</text>
</a>
</g>
</g>
<!-- Node878&#45;&gt;Node879 -->
<g id="edge4" class="edge">
<title>Node878&#45;&gt;Node879</title>
<path fill="none" stroke="#191970" d="M462.1134,-72.7232C472.268,-73.9141 482.6551,-75.1324 492.6205,-76.3012"/>
<polygon fill="#191970" stroke="#191970" points="492.4859,-79.8093 502.8256,-77.4981 493.3014,-72.8569 492.4859,-79.8093"/>
</g>
<!-- Node884 -->
<g id="node10" class="node">
<title>Node884</title>
<g id="a_node10"><a xlink:href="class_raven_units.html#a357d3a6cb01154a8da132d435c7fd436" target="_top" xlink:title="Short name. ">
<polygon fill="#ffffff" stroke="#000000" points="505,-36 505,-55 603,-55 603,-36 505,-36"/>
<text text-anchor="middle" x="554" y="-43" font-family="Helvetica,sans-Serif" font-size="10.00" fill="#000000">RavenUnits::name</text>
</a>
</g>
</g>
<!-- Node878&#45;&gt;Node884 -->
<g id="edge9" class="edge">
<title>Node878&#45;&gt;Node884</title>
<path fill="none" stroke="#191970" d="M462.1134,-56.2768C473.0002,-55 484.1542,-53.6918 494.7694,-52.4468"/>
<polygon fill="#191970" stroke="#191970" points="495.2313,-55.9167 504.7555,-51.2756 494.4158,-48.9644 495.2313,-55.9167"/>
</g>
<!-- Node880 -->
<g id="node6" class="node">
<title>Node880</title>
<g id="a_node6"><a xlink:href="class_raven_units.html#a559a7cae18b466371401f02d6407c9c5" target="_top" xlink:title="Is unit ID valid? ">
<polygon fill="#ffffff" stroke="#000000" points="656,-131 656,-150 751,-150 751,-131 656,-131"/>
<text text-anchor="middle" x="703.5" y="-138" font-family="Helvetica,sans-Serif" font-size="10.00" fill="#000000">RavenUnits::valid</text>
</a>
</g>
</g>
<!-- Node879&#45;&gt;Node880 -->
<g id="edge5" class="edge">
<title>Node879&#45;&gt;Node880</title>
<path fill="none" stroke="#191970" d="M574.1175,-93.0862C591.5776,-101.2122 617.6506,-112.885 641,-121.5 647.0049,-123.7156 653.3998,-125.8777 659.7208,-127.9023"/>
<polygon fill="#191970" stroke="#191970" points="658.9379,-131.3242 669.5264,-130.9584 661.0208,-124.6413 658.9379,-131.3242"/>
</g>
<!-- Node881 -->
<g id="node7" class="node">
<title>Node881</title>
<g id="a_node7"><a xlink:href="class_raven_units.html#aea6fad621ac4f75381406d5ca415f78e" target="_top" xlink:title="Number of Satoshis (1e&#45;8) per unit for assets. ">
<polygon fill="#ffffff" stroke="#000000" points="641,-93 641,-112 766,-112 766,-93 641,-93"/>
<text text-anchor="middle" x="703.5" y="-100" font-family="Helvetica,sans-Serif" font-size="10.00" fill="#000000">RavenUnits::factorAsset</text>
</a>
</g>
</g>
<!-- Node879&#45;&gt;Node881 -->
<g id="edge6" class="edge">
<title>Node879&#45;&gt;Node881</title>
<path fill="none" stroke="#191970" d="M605.0313,-89.9856C613.2997,-91.0364 622.0002,-92.1422 630.6662,-93.2435"/>
<polygon fill="#191970" stroke="#191970" points="630.4342,-96.7421 640.7957,-94.5309 631.3168,-89.798 630.4342,-96.7421"/>
</g>
<!-- Node882 -->
<g id="node8" class="node">
<title>Node882</title>
<g id="a_node8"><a xlink:href="class_raven_units.html#a56c9ff217422454061562a0612bf61ec" target="_top" xlink:title="Number of Satoshis (1e&#45;8) per unit. ">
<polygon fill="#ffffff" stroke="#000000" points="654,-55 654,-74 753,-74 753,-55 654,-55"/>
<text text-anchor="middle" x="703.5" y="-62" font-family="Helvetica,sans-Serif" font-size="10.00" fill="#000000">RavenUnits::factor</text>
</a>
</g>
</g>
<!-- Node879&#45;&gt;Node882 -->
<g id="edge7" class="edge">
<title>Node879&#45;&gt;Node882</title>
<path fill="none" stroke="#191970" d="M605.0313,-77.0144C617.5126,-75.4282 630.9782,-73.7168 643.8241,-72.0842"/>
<polygon fill="#191970" stroke="#191970" points="644.4839,-75.5286 653.9628,-70.7957 643.6013,-68.5845 644.4839,-75.5286"/>
</g>
<!-- Node883 -->
<g id="node9" class="node">
<title>Node883</title>
<g id="a_node9"><a xlink:href="class_raven_units.html#ab3396a763c2ca8042f331f32904b0580" target="_top" xlink:title="Number of decimals left. ">
<polygon fill="#ffffff" stroke="#000000" points="647,-17 647,-36 760,-36 760,-17 647,-17"/>
<text text-anchor="middle" x="703.5" y="-24" font-family="Helvetica,sans-Serif" font-size="10.00" fill="#000000">RavenUnits::decimals</text>
</a>
</g>
</g>
<!-- Node879&#45;&gt;Node883 -->
<g id="edge8" class="edge">
<title>Node879&#45;&gt;Node883</title>
<path fill="none" stroke="#191970" d="M581.5245,-73.985C589.2047,-71.1311 597.4979,-67.8603 605,-64.5 621.511,-57.1044 624.2694,-52.3845 641,-45.5 646.4422,-43.2606 652.246,-41.1484 658.0413,-39.2038"/>
<polygon fill="#191970" stroke="#191970" points="659.2692,-42.4857 667.7209,-36.0967 657.1297,-35.8206 659.2692,-42.4857"/>
</g>
</g>
</svg>
