<?xml version="1.0" encoding="UTF-8" standalone="no"?>
<!DOCTYPE svg PUBLIC "-//W3C//DTD SVG 1.1//EN"
 "http://www.w3.org/Graphics/SVG/1.1/DTD/svg11.dtd">
<!-- Generated by graphviz version 2.40.1 (20161225.0304)
 -->
<!-- Title: PeerTableModel::getRowByNodeId Pages: 1 -->
<svg width="1224pt" height="88pt"
 viewBox="0.00 0.00 1224.00 88.00" xmlns="http://www.w3.org/2000/svg" xmlns:xlink="http://www.w3.org/1999/xlink">
<g id="graph0" class="graph" transform="scale(1 1) rotate(0) translate(4 84)">
<title>PeerTableModel::getRowByNodeId</title>
<polygon fill="#ffffff" stroke="transparent" points="-4,4 -4,-84 1220,-84 1220,4 -4,4"/>
<!-- Node27 -->
<g id="node1" class="node">
<title>Node27</title>
<polygon fill="#bfbfbf" stroke="#000000" points="0,-27.5 0,-57.5 139,-57.5 139,-27.5 0,-27.5"/>
<text text-anchor="start" x="8" y="-45.5" font-family="Helvetica,sans-Serif" font-size="10.00" fill="#000000">PeerTableModel::getRowBy</text>
<text text-anchor="middle" x="69.5" y="-34.5" font-family="Helvetica,sans-Serif" font-size="10.00" fill="#000000">NodeId</text>
</g>
<!-- Node28 -->
<g id="node2" class="node">
<title>Node28</title>
<g id="a_node2"><a xlink:href="class_r_p_c_console.html#af952ebc6484c8f7d1262fa0bceed41bf" target="_top" xlink:title="Handle updated peer information. ">
<polygon fill="#ffffff" stroke="#000000" points="175,-52 175,-71 342,-71 342,-52 175,-52"/>
<text text-anchor="middle" x="258.5" y="-59" font-family="Helvetica,sans-Serif" font-size="10.00" fill="#000000">RPCConsole::peerLayoutChanged</text>
</a>
</g>
</g>
<!-- Node27&#45;&gt;Node28 -->
<g id="edge1" class="edge">
<title>Node27&#45;&gt;Node28</title>
<path fill="none" stroke="#191970" d="M149.0416,-50.4962C157.6155,-51.3582 166.358,-52.237 174.977,-53.1035"/>
<polygon fill="#191970" stroke="#191970" points="149.3714,-47.0118 139.0714,-49.494 148.6712,-53.9767 149.3714,-47.0118"/>
</g>
<!-- Node35 -->
<g id="node9" class="node">
<title>Node35</title>
<g id="a_node9"><a xlink:href="class_r_p_c_console.html#aacaf485583b6342c5e1877e7582f95c5" target="_top" xlink:title="Ban a selected node on the Peers tab. ">
<polygon fill="#ffffff" stroke="#000000" points="179.5,-14 179.5,-33 337.5,-33 337.5,-14 179.5,-14"/>
<text text-anchor="middle" x="258.5" y="-21" font-family="Helvetica,sans-Serif" font-size="10.00" fill="#000000">RPCConsole::banSelectedNode</text>
</a>
</g>
</g>
<!-- Node27&#45;&gt;Node35 -->
<g id="edge9" class="edge">
<title>Node27&#45;&gt;Node35</title>
<path fill="none" stroke="#191970" d="M149.2834,-34.4794C159.1774,-33.4848 169.2921,-32.468 179.1792,-31.4741"/>
<polygon fill="#191970" stroke="#191970" points="148.6712,-31.0233 139.0714,-35.506 149.3714,-37.9882 148.6712,-31.0233"/>
</g>
<!-- Node29 -->
<g id="node3" class="node">
<title>Node29</title>
<g id="a_node3"><a xlink:href="class_r_p_c_console.html#a355349a33664a07628e9ca22a60f5fa7" target="_top" xlink:title="RPCConsole::setClientModel">
<polygon fill="#ffffff" stroke="#000000" points="378,-33 378,-52 524,-52 524,-33 378,-33"/>
<text text-anchor="middle" x="451" y="-40" font-family="Helvetica,sans-Serif" font-size="10.00" fill="#000000">RPCConsole::setClientModel</text>
</a>
</g>
</g>
<!-- Node28&#45;&gt;Node29 -->
<g id="edge2" class="edge">
<title>Node28&#45;&gt;Node29</title>
<path fill="none" stroke="#191970" d="M352.1556,-52.2561C360.7518,-51.4076 369.3757,-50.5564 377.7527,-49.7296"/>
<polygon fill="#191970" stroke="#191970" points="351.7013,-48.7838 342.0935,-53.2492 352.3889,-55.75 351.7013,-48.7838"/>
</g>
<!-- Node30 -->
<g id="node4" class="node">
<title>Node30</title>
<g id="a_node4"><a xlink:href="class_raven_g_u_i.html#a174a3e75c334c5930d3261a2955c3725" target="_top" xlink:title="Set the client model. ">
<polygon fill="#ffffff" stroke="#000000" points="560,-33 560,-52 694,-52 694,-33 560,-33"/>
<text text-anchor="middle" x="627" y="-40" font-family="Helvetica,sans-Serif" font-size="10.00" fill="#000000">RavenGUI::setClientModel</text>
</a>
</g>
</g>
<!-- Node29&#45;&gt;Node30 -->
<g id="edge3" class="edge">
<title>Node29&#45;&gt;Node30</title>
<path fill="none" stroke="#191970" d="M534.1395,-42.5C542.7235,-42.5 551.3692,-42.5 559.7488,-42.5"/>
<polygon fill="#191970" stroke="#191970" points="534.1109,-39.0001 524.1108,-42.5 534.1108,-46.0001 534.1109,-39.0001"/>
</g>
<!-- Node31 -->
<g id="node5" class="node">
<title>Node31</title>
<g id="a_node5"><a xlink:href="class_raven_application.html#a60123f611cc210870fa67974cb2c804c" target="_top" xlink:title="Request core shutdown. ">
<polygon fill="#ffffff" stroke="#000000" points="1085,-49.5 1085,-79.5 1216,-79.5 1216,-49.5 1085,-49.5"/>
<text text-anchor="start" x="1093" y="-67.5" font-family="Helvetica,sans-Serif" font-size="10.00" fill="#000000">RavenApplication::request</text>
<text text-anchor="middle" x="1150.5" y="-56.5" font-family="Helvetica,sans-Serif" font-size="10.00" fill="#000000">Shutdown</text>
</a>
</g>
</g>
<!-- Node30&#45;&gt;Node31 -->
<g id="edge4" class="edge">
<title>Node30&#45;&gt;Node31</title>
<path fill="none" stroke="#191970" d="M704.1333,-45.7415C807.2203,-50.0737 988.1346,-57.6766 1084.9629,-61.7458"/>
<polygon fill="#191970" stroke="#191970" points="704.238,-42.2429 694.0999,-45.3199 703.944,-49.2367 704.238,-42.2429"/>
</g>
<!-- Node32 -->
<g id="node6" class="node">
<title>Node32</title>
<g id="a_node6"><a xlink:href="class_raven_application.html#a1a3dcf33ba44507984b2a04e7ebf1542" target="_top" xlink:title="RavenApplication::initialize\lResult">
<polygon fill="#ffffff" stroke="#000000" points="730,-5.5 730,-35.5 864,-35.5 864,-5.5 730,-5.5"/>
<text text-anchor="start" x="738" y="-23.5" font-family="Helvetica,sans-Serif" font-size="10.00" fill="#000000">RavenApplication::initialize</text>
<text text-anchor="middle" x="797" y="-12.5" font-family="Helvetica,sans-Serif" font-size="10.00" fill="#000000">Result</text>
</a>
</g>
</g>
<!-- Node30&#45;&gt;Node32 -->
<g id="edge5" class="edge">
<title>Node30&#45;&gt;Node32</title>
<path fill="none" stroke="#191970" d="M704.146,-32.5164C712.6879,-31.411 721.3366,-30.2917 729.7428,-29.2039"/>
<polygon fill="#191970" stroke="#191970" points="703.6566,-29.0505 694.1885,-33.805 704.555,-35.9926 703.6566,-29.0505"/>
</g>
<!-- Node33 -->
<g id="node7" class="node">
<title>Node33</title>
<g id="a_node7"><a xlink:href="class_raven_application.html#aecfdce3a245b959def5dd35e5cfb192e" target="_top" xlink:title="RavenApplication::startThread">
<polygon fill="#ffffff" stroke="#000000" points="900,-11 900,-30 1049,-30 1049,-11 900,-11"/>
<text text-anchor="middle" x="974.5" y="-18" font-family="Helvetica,sans-Serif" font-size="10.00" fill="#000000">RavenApplication::startThread</text>
</a>
</g>
</g>
<!-- Node32&#45;&gt;Node33 -->
<g id="edge6" class="edge">
<title>Node32&#45;&gt;Node33</title>
<path fill="none" stroke="#191970" d="M874.3486,-20.5C882.821,-20.5 891.4344,-20.5 899.873,-20.5"/>
<polygon fill="#191970" stroke="#191970" points="874.1052,-17.0001 864.1051,-20.5 874.1051,-24.0001 874.1052,-17.0001"/>
</g>
<!-- Node33&#45;&gt;Node31 -->
<g id="edge8" class="edge">
<title>Node33&#45;&gt;Node31</title>
<path fill="none" stroke="#191970" d="M1022.6046,-32.5261C1043.4811,-37.7453 1068.1576,-43.9144 1090.2385,-49.4346"/>
<polygon fill="#191970" stroke="#191970" points="1023.2397,-29.0773 1012.6894,-30.0473 1021.5419,-35.8683 1023.2397,-29.0773"/>
</g>
<!-- Node34 -->
<g id="node8" class="node">
<title>Node34</title>
<g id="a_node8"><a xlink:href="class_raven_application.html#a63a2032fef875fb81f26c212f69d000d" target="_top" xlink:title="Request core initialization. ">
<polygon fill="#ffffff" stroke="#000000" points="1085,-.5 1085,-30.5 1216,-30.5 1216,-.5 1085,-.5"/>
<text text-anchor="start" x="1093" y="-18.5" font-family="Helvetica,sans-Serif" font-size="10.00" fill="#000000">RavenApplication::request</text>
<text text-anchor="middle" x="1150.5" y="-7.5" font-family="Helvetica,sans-Serif" font-size="10.00" fill="#000000">Initialize</text>
</a>
</g>
</g>
<!-- Node33&#45;&gt;Node34 -->
<g id="edge7" class="edge">
<title>Node33&#45;&gt;Node34</title>
<path fill="none" stroke="#191970" d="M1059.2384,-18.0927C1067.8743,-17.8473 1076.5522,-17.6008 1084.9387,-17.3625"/>
<polygon fill="#191970" stroke="#191970" points="1059.0364,-14.5969 1049.1398,-18.3795 1059.2352,-21.5941 1059.0364,-14.5969"/>
</g>
<!-- Node35&#45;&gt;Node29 -->
<g id="edge10" class="edge">
<title>Node35&#45;&gt;Node29</title>
<path fill="none" stroke="#191970" d="M347.6533,-32.2995C357.7274,-33.2939 367.9057,-34.2985 377.7435,-35.2695"/>
<polygon fill="#191970" stroke="#191970" points="347.9259,-28.8095 337.6305,-31.3103 347.2383,-35.7757 347.9259,-28.8095"/>
</g>
</g>
</svg>
