<?xml version="1.0" encoding="UTF-8" standalone="no"?>
<!DOCTYPE svg PUBLIC "-//W3C//DTD SVG 1.1//EN"
 "http://www.w3.org/Graphics/SVG/1.1/DTD/svg11.dtd">
<!-- Generated by graphviz version 2.40.1 (20161225.0304)
 -->
<!-- Title: OverviewPage::setWalletModel Pages: 1 -->
<svg width="1188pt" height="88pt"
 viewBox="0.00 0.00 1188.00 88.00" xmlns="http://www.w3.org/2000/svg" xmlns:xlink="http://www.w3.org/1999/xlink">
<g id="graph0" class="graph" transform="scale(1 1) rotate(0) translate(4 84)">
<title>OverviewPage::setWalletModel</title>
<polygon fill="#ffffff" stroke="transparent" points="-4,4 -4,-84 1184,-84 1184,4 -4,4"/>
<!-- Node142 -->
<g id="node1" class="node">
<title>Node142</title>
<polygon fill="#bfbfbf" stroke="#000000" points="0,-33 0,-52 154,-52 154,-33 0,-33"/>
<text text-anchor="middle" x="77" y="-40" font-family="Helvetica,sans-Serif" font-size="10.00" fill="#000000">OverviewPage::setWalletModel</text>
</g>
<!-- Node143 -->
<g id="node2" class="node">
<title>Node143</title>
<g id="a_node2"><a xlink:href="class_wallet_view.html#a0a37ff693a4f9c1e5ddc23f9cd3913be" target="_top" xlink:title="Set the wallet model. ">
<polygon fill="#ffffff" stroke="#000000" points="190,-33 190,-52 330,-52 330,-33 190,-33"/>
<text text-anchor="middle" x="260" y="-40" font-family="Helvetica,sans-Serif" font-size="10.00" fill="#000000">WalletView::setWalletModel</text>
</a>
</g>
</g>
<!-- Node142&#45;&gt;Node143 -->
<g id="edge1" class="edge">
<title>Node142&#45;&gt;Node143</title>
<path fill="none" stroke="#191970" d="M164.194,-42.5C172.8472,-42.5 181.5519,-42.5 189.9975,-42.5"/>
<polygon fill="#191970" stroke="#191970" points="164.0781,-39.0001 154.0781,-42.5 164.0781,-46.0001 164.0781,-39.0001"/>
</g>
<!-- Node144 -->
<g id="node3" class="node">
<title>Node144</title>
<g id="a_node3"><a xlink:href="class_wallet_frame.html#aa199c3f27654199d84c365cf86167d86" target="_top" xlink:title="WalletFrame::addWallet">
<polygon fill="#ffffff" stroke="#000000" points="366,-33 366,-52 488,-52 488,-33 366,-33"/>
<text text-anchor="middle" x="427" y="-40" font-family="Helvetica,sans-Serif" font-size="10.00" fill="#000000">WalletFrame::addWallet</text>
</a>
</g>
</g>
<!-- Node143&#45;&gt;Node144 -->
<g id="edge2" class="edge">
<title>Node143&#45;&gt;Node144</title>
<path fill="none" stroke="#191970" d="M340.6091,-42.5C349.064,-42.5 357.5584,-42.5 365.7451,-42.5"/>
<polygon fill="#191970" stroke="#191970" points="340.3391,-39.0001 330.339,-42.5 340.339,-46.0001 340.3391,-39.0001"/>
</g>
<!-- Node145 -->
<g id="node4" class="node">
<title>Node145</title>
<g id="a_node4"><a xlink:href="class_raven_g_u_i.html#a174a3e75c334c5930d3261a2955c3725" target="_top" xlink:title="Set the client model. ">
<polygon fill="#ffffff" stroke="#000000" points="524,-33 524,-52 658,-52 658,-33 524,-33"/>
<text text-anchor="middle" x="591" y="-40" font-family="Helvetica,sans-Serif" font-size="10.00" fill="#000000">RavenGUI::setClientModel</text>
</a>
</g>
</g>
<!-- Node144&#45;&gt;Node145 -->
<g id="edge3" class="edge">
<title>Node144&#45;&gt;Node145</title>
<path fill="none" stroke="#191970" d="M498.303,-42.5C506.7776,-42.5 515.4074,-42.5 523.8217,-42.5"/>
<polygon fill="#191970" stroke="#191970" points="498.0676,-39.0001 488.0675,-42.5 498.0675,-46.0001 498.0676,-39.0001"/>
</g>
<!-- Node146 -->
<g id="node5" class="node">
<title>Node146</title>
<g id="a_node5"><a xlink:href="class_raven_application.html#a60123f611cc210870fa67974cb2c804c" target="_top" xlink:title="Request core shutdown. ">
<polygon fill="#ffffff" stroke="#000000" points="1049,-49.5 1049,-79.5 1180,-79.5 1180,-49.5 1049,-49.5"/>
<text text-anchor="start" x="1057" y="-67.5" font-family="Helvetica,sans-Serif" font-size="10.00" fill="#000000">RavenApplication::request</text>
<text text-anchor="middle" x="1114.5" y="-56.5" font-family="Helvetica,sans-Serif" font-size="10.00" fill="#000000">Shutdown</text>
</a>
</g>
</g>
<!-- Node145&#45;&gt;Node146 -->
<g id="edge4" class="edge">
<title>Node145&#45;&gt;Node146</title>
<path fill="none" stroke="#191970" d="M668.1333,-45.7415C771.2203,-50.0737 952.1346,-57.6766 1048.9629,-61.7458"/>
<polygon fill="#191970" stroke="#191970" points="668.238,-42.2429 658.0999,-45.3199 667.944,-49.2367 668.238,-42.2429"/>
</g>
<!-- Node147 -->
<g id="node6" class="node">
<title>Node147</title>
<g id="a_node6"><a xlink:href="class_raven_application.html#a1a3dcf33ba44507984b2a04e7ebf1542" target="_top" xlink:title="RavenApplication::initialize\lResult">
<polygon fill="#ffffff" stroke="#000000" points="694,-5.5 694,-35.5 828,-35.5 828,-5.5 694,-5.5"/>
<text text-anchor="start" x="702" y="-23.5" font-family="Helvetica,sans-Serif" font-size="10.00" fill="#000000">RavenApplication::initialize</text>
<text text-anchor="middle" x="761" y="-12.5" font-family="Helvetica,sans-Serif" font-size="10.00" fill="#000000">Result</text>
</a>
</g>
</g>
<!-- Node145&#45;&gt;Node147 -->
<g id="edge5" class="edge">
<title>Node145&#45;&gt;Node147</title>
<path fill="none" stroke="#191970" d="M668.146,-32.5164C676.6879,-31.411 685.3366,-30.2917 693.7428,-29.2039"/>
<polygon fill="#191970" stroke="#191970" points="667.6566,-29.0505 658.1885,-33.805 668.555,-35.9926 667.6566,-29.0505"/>
</g>
<!-- Node148 -->
<g id="node7" class="node">
<title>Node148</title>
<g id="a_node7"><a xlink:href="class_raven_application.html#aecfdce3a245b959def5dd35e5cfb192e" target="_top" xlink:title="RavenApplication::startThread">
<polygon fill="#ffffff" stroke="#000000" points="864,-11 864,-30 1013,-30 1013,-11 864,-11"/>
<text text-anchor="middle" x="938.5" y="-18" font-family="Helvetica,sans-Serif" font-size="10.00" fill="#000000">RavenApplication::startThread</text>
</a>
</g>
</g>
<!-- Node147&#45;&gt;Node148 -->
<g id="edge6" class="edge">
<title>Node147&#45;&gt;Node148</title>
<path fill="none" stroke="#191970" d="M838.3486,-20.5C846.821,-20.5 855.4344,-20.5 863.873,-20.5"/>
<polygon fill="#191970" stroke="#191970" points="838.1052,-17.0001 828.1051,-20.5 838.1051,-24.0001 838.1052,-17.0001"/>
</g>
<!-- Node148&#45;&gt;Node146 -->
<g id="edge8" class="edge">
<title>Node148&#45;&gt;Node146</title>
<path fill="none" stroke="#191970" d="M986.6046,-32.5261C1007.4811,-37.7453 1032.1576,-43.9144 1054.2385,-49.4346"/>
<polygon fill="#191970" stroke="#191970" points="987.2397,-29.0773 976.6894,-30.0473 985.5419,-35.8683 987.2397,-29.0773"/>
</g>
<!-- Node149 -->
<g id="node8" class="node">
<title>Node149</title>
<g id="a_node8"><a xlink:href="class_raven_application.html#a63a2032fef875fb81f26c212f69d000d" target="_top" xlink:title="Request core initialization. ">
<polygon fill="#ffffff" stroke="#000000" points="1049,-.5 1049,-30.5 1180,-30.5 1180,-.5 1049,-.5"/>
<text text-anchor="start" x="1057" y="-18.5" font-family="Helvetica,sans-Serif" font-size="10.00" fill="#000000">RavenApplication::request</text>
<text text-anchor="middle" x="1114.5" y="-7.5" font-family="Helvetica,sans-Serif" font-size="10.00" fill="#000000">Initialize</text>
</a>
</g>
</g>
<!-- Node148&#45;&gt;Node149 -->
<g id="edge7" class="edge">
<title>Node148&#45;&gt;Node149</title>
<path fill="none" stroke="#191970" d="M1023.2384,-18.0927C1031.8743,-17.8473 1040.5522,-17.6008 1048.9387,-17.3625"/>
<polygon fill="#191970" stroke="#191970" points="1023.0364,-14.5969 1013.1398,-18.3795 1023.2352,-21.5941 1023.0364,-14.5969"/>
</g>
</g>
</svg>
