<?xml version="1.0" encoding="UTF-8" standalone="no"?>
<!DOCTYPE svg PUBLIC "-//W3C//DTD SVG 1.1//EN"
 "http://www.w3.org/Graphics/SVG/1.1/DTD/svg11.dtd">
<!-- Generated by graphviz version 2.40.1 (20161225.0304)
 -->
<!-- Title: AddressTablePriv::index Pages: 1 -->
<svg width="1695pt" height="369pt"
 viewBox="0.00 0.00 1695.00 369.00" xmlns="http://www.w3.org/2000/svg" xmlns:xlink="http://www.w3.org/1999/xlink">
<g id="graph0" class="graph" transform="scale(1 1) rotate(0) translate(4 365)">
<title>AddressTablePriv::index</title>
<polygon fill="#ffffff" stroke="transparent" points="-4,4 -4,-365 1691,-365 1691,4 -4,4"/>
<!-- Node3 -->
<g id="node1" class="node">
<title>Node3</title>
<polygon fill="#bfbfbf" stroke="#000000" points="0,-72 0,-91 123,-91 123,-72 0,-72"/>
<text text-anchor="middle" x="61.5" y="-79" font-family="Helvetica,sans-Serif" font-size="10.00" fill="#000000">AddressTablePriv::index</text>
</g>
<!-- Node4 -->
<g id="node2" class="node">
<title>Node4</title>
<g id="a_node2"><a xlink:href="class_address_table_model.html#a74e9123471948255f87271c823c82854" target="_top" xlink:title="AddressTableModel::\lindex">
<polygon fill="#ffffff" stroke="#000000" points="159,-66.5 159,-96.5 268,-96.5 268,-66.5 159,-66.5"/>
<text text-anchor="start" x="167" y="-84.5" font-family="Helvetica,sans-Serif" font-size="10.00" fill="#000000">AddressTableModel::</text>
<text text-anchor="middle" x="213.5" y="-73.5" font-family="Helvetica,sans-Serif" font-size="10.00" fill="#000000">index</text>
</a>
</g>
</g>
<!-- Node3&#45;&gt;Node4 -->
<g id="edge1" class="edge">
<title>Node3&#45;&gt;Node4</title>
<path fill="none" stroke="#191970" d="M133.5334,-81.5C141.9523,-81.5 150.4364,-81.5 158.5708,-81.5"/>
<polygon fill="#191970" stroke="#191970" points="133.3243,-78.0001 123.3242,-81.5 133.3242,-85.0001 133.3243,-78.0001"/>
</g>
<!-- Node5 -->
<g id="node3" class="node">
<title>Node5</title>
<g id="a_node3"><a xlink:href="class_address_book_page.html#ab62ba5d31e2d64c4d901da58d6b32a59" target="_top" xlink:title="New entry/entries were added to address table. ">
<polygon fill="#ffffff" stroke="#000000" points="304,-164.5 304,-194.5 454,-194.5 454,-164.5 304,-164.5"/>
<text text-anchor="start" x="312" y="-182.5" font-family="Helvetica,sans-Serif" font-size="10.00" fill="#000000">AddressBookPage::selectNew</text>
<text text-anchor="middle" x="379" y="-171.5" font-family="Helvetica,sans-Serif" font-size="10.00" fill="#000000">Address</text>
</a>
</g>
</g>
<!-- Node4&#45;&gt;Node5 -->
<g id="edge2" class="edge">
<title>Node4&#45;&gt;Node5</title>
<path fill="none" stroke="#191970" d="M247.861,-101.8467C279.3176,-120.4735 325.1561,-147.6166 353.4743,-164.3851"/>
<polygon fill="#191970" stroke="#191970" points="249.3846,-98.6813 238.9967,-96.5977 245.818,-104.7046 249.3846,-98.6813"/>
</g>
<!-- Node20 -->
<g id="node18" class="node">
<title>Node20</title>
<g id="a_node18"><a xlink:href="class_address_table_model.html#a0beb94d838781d9055e393b37bf68f83" target="_top" xlink:title="AddressTableModel::\llookupAddress">
<polygon fill="#ffffff" stroke="#000000" points="324.5,-88.5 324.5,-118.5 433.5,-118.5 433.5,-88.5 324.5,-88.5"/>
<text text-anchor="start" x="332.5" y="-106.5" font-family="Helvetica,sans-Serif" font-size="10.00" fill="#000000">AddressTableModel::</text>
<text text-anchor="middle" x="379" y="-95.5" font-family="Helvetica,sans-Serif" font-size="10.00" fill="#000000">lookupAddress</text>
</a>
</g>
</g>
<!-- Node4&#45;&gt;Node20 -->
<g id="edge18" class="edge">
<title>Node4&#45;&gt;Node20</title>
<path fill="none" stroke="#191970" d="M278.0675,-90.083C293.3875,-92.1195 309.5822,-94.2723 324.4078,-96.243"/>
<polygon fill="#191970" stroke="#191970" points="278.5236,-86.6129 268.1496,-88.7646 277.6011,-93.5519 278.5236,-86.6129"/>
</g>
<!-- Node21 -->
<g id="node19" class="node">
<title>Node21</title>
<g id="a_node19"><a xlink:href="class_transaction_view.html#a18817639384e53f94fc1ad956d7263d9" target="_top" xlink:title="TransactionView::editLabel">
<polygon fill="#ffffff" stroke="#000000" points="494.5,-50 494.5,-69 628.5,-69 628.5,-50 494.5,-50"/>
<text text-anchor="middle" x="561.5" y="-57" font-family="Helvetica,sans-Serif" font-size="10.00" fill="#000000">TransactionView::editLabel</text>
</a>
</g>
</g>
<!-- Node4&#45;&gt;Node21 -->
<g id="edge22" class="edge">
<title>Node4&#45;&gt;Node21</title>
<path fill="none" stroke="#191970" d="M278.2383,-77.4074C339.7644,-73.5178 431.9045,-67.6928 494.2479,-63.7516"/>
<polygon fill="#191970" stroke="#191970" points="278.017,-73.9143 268.2578,-78.0383 278.4588,-80.9003 278.017,-73.9143"/>
</g>
<!-- Node23 -->
<g id="node21" class="node">
<title>Node23</title>
<g id="a_node21"><a xlink:href="class_address_table_model.html#a42cbcc82a8752c4af3b75fd62e8c7a40" target="_top" xlink:title="Notify listeners that data changed. ">
<polygon fill="#ffffff" stroke="#000000" points="324.5,-.5 324.5,-30.5 433.5,-30.5 433.5,-.5 324.5,-.5"/>
<text text-anchor="start" x="332.5" y="-18.5" font-family="Helvetica,sans-Serif" font-size="10.00" fill="#000000">AddressTableModel::</text>
<text text-anchor="middle" x="379" y="-7.5" font-family="Helvetica,sans-Serif" font-size="10.00" fill="#000000">emitDataChanged</text>
</a>
</g>
</g>
<!-- Node4&#45;&gt;Node23 -->
<g id="edge21" class="edge">
<title>Node4&#45;&gt;Node23</title>
<path fill="none" stroke="#191970" d="M260.9366,-62.5827C286.4103,-52.424 317.3796,-40.0737 341.2076,-30.5713"/>
<polygon fill="#191970" stroke="#191970" points="259.4612,-59.403 251.469,-66.3583 262.0542,-65.905 259.4612,-59.403"/>
</g>
<!-- Node6 -->
<g id="node4" class="node">
<title>Node6</title>
<g id="a_node4"><a xlink:href="class_address_book_page.html#a1282cda9cb0300ee04c472ec4c9949f3" target="_top" xlink:title="AddressBookPage::setModel">
<polygon fill="#ffffff" stroke="#000000" points="490,-183 490,-202 633,-202 633,-183 490,-183"/>
<text text-anchor="middle" x="561.5" y="-190" font-family="Helvetica,sans-Serif" font-size="10.00" fill="#000000">AddressBookPage::setModel</text>
</a>
</g>
</g>
<!-- Node5&#45;&gt;Node6 -->
<g id="edge3" class="edge">
<title>Node5&#45;&gt;Node6</title>
<path fill="none" stroke="#191970" d="M464.0444,-185.558C472.6282,-186.1694 481.2856,-186.7861 489.7109,-187.3863"/>
<polygon fill="#191970" stroke="#191970" points="464.2432,-182.0633 454.0198,-184.8439 463.7458,-189.0456 464.2432,-182.0633"/>
</g>
<!-- Node7 -->
<g id="node5" class="node">
<title>Node7</title>
<g id="a_node5"><a xlink:href="class_receive_coins_dialog.html#a9db8de31f6889288cb22c061aa51e0cd" target="_top" xlink:title="ReceiveCoinsDialog\l::on_receiveButton_clicked">
<polygon fill="#ffffff" stroke="#000000" points="686,-330.5 686,-360.5 820,-360.5 820,-330.5 686,-330.5"/>
<text text-anchor="start" x="694" y="-348.5" font-family="Helvetica,sans-Serif" font-size="10.00" fill="#000000">ReceiveCoinsDialog</text>
<text text-anchor="middle" x="753" y="-337.5" font-family="Helvetica,sans-Serif" font-size="10.00" fill="#000000">::on_receiveButton_clicked</text>
</a>
</g>
</g>
<!-- Node6&#45;&gt;Node7 -->
<g id="edge4" class="edge">
<title>Node6&#45;&gt;Node7</title>
<path fill="none" stroke="#191970" d="M571.9745,-211.1229C588.7716,-239.2793 624.4186,-292.4711 669,-321.5 674.2111,-324.8932 679.9076,-327.815 685.8004,-330.3296"/>
<polygon fill="#191970" stroke="#191970" points="574.8891,-209.1726 566.8355,-202.2884 568.8383,-212.6923 574.8891,-209.1726"/>
</g>
<!-- Node9 -->
<g id="node7" class="node">
<title>Node9</title>
<g id="a_node7"><a xlink:href="class_send_assets_entry.html#a52b0035d055fea740f0001a3120d06f0" target="_top" xlink:title="SendAssetsEntry::on\l_addressBookButton_clicked">
<polygon fill="#ffffff" stroke="#000000" points="681.5,-281.5 681.5,-311.5 824.5,-311.5 824.5,-281.5 681.5,-281.5"/>
<text text-anchor="start" x="689.5" y="-299.5" font-family="Helvetica,sans-Serif" font-size="10.00" fill="#000000">SendAssetsEntry::on</text>
<text text-anchor="middle" x="753" y="-288.5" font-family="Helvetica,sans-Serif" font-size="10.00" fill="#000000">_addressBookButton_clicked</text>
</a>
</g>
</g>
<!-- Node6&#45;&gt;Node9 -->
<g id="edge6" class="edge">
<title>Node6&#45;&gt;Node9</title>
<path fill="none" stroke="#191970" d="M579.1392,-208.8294C599.4091,-226.7921 634.3558,-255.3772 669,-272.5 675.7984,-275.8601 683.1455,-278.8232 690.5677,-281.4162"/>
<polygon fill="#191970" stroke="#191970" points="581.4077,-206.1622 571.636,-202.0676 576.7215,-211.3621 581.4077,-206.1622"/>
</g>
<!-- Node10 -->
<g id="node8" class="node">
<title>Node10</title>
<g id="a_node8"><a xlink:href="class_send_coins_entry.html#ac661741d286d9f3db32f78bd22125cb0" target="_top" xlink:title="SendCoinsEntry::on\l_addressBookButton_clicked">
<polygon fill="#ffffff" stroke="#000000" points="681.5,-232.5 681.5,-262.5 824.5,-262.5 824.5,-232.5 681.5,-232.5"/>
<text text-anchor="start" x="689.5" y="-250.5" font-family="Helvetica,sans-Serif" font-size="10.00" fill="#000000">SendCoinsEntry::on</text>
<text text-anchor="middle" x="753" y="-239.5" font-family="Helvetica,sans-Serif" font-size="10.00" fill="#000000">_addressBookButton_clicked</text>
</a>
</g>
</g>
<!-- Node6&#45;&gt;Node10 -->
<g id="edge7" class="edge">
<title>Node6&#45;&gt;Node10</title>
<path fill="none" stroke="#191970" d="M604.5085,-204.8523C632.9337,-213.0162 670.3723,-223.7688 700.5452,-232.4346"/>
<polygon fill="#191970" stroke="#191970" points="605.4344,-201.4768 594.8568,-202.0803 603.502,-208.2048 605.4344,-201.4768"/>
</g>
<!-- Node11 -->
<g id="node9" class="node">
<title>Node11</title>
<g id="a_node9"><a xlink:href="class_sign_verify_message_dialog.html#a792a3bd647958c8ae74286c5ab3cf205" target="_top" xlink:title="SignVerifyMessageDialog\l::on_addressBookButton\l_SM_clicked">
<polygon fill="#ffffff" stroke="#000000" points="688.5,-172 688.5,-213 817.5,-213 817.5,-172 688.5,-172"/>
<text text-anchor="start" x="696.5" y="-201" font-family="Helvetica,sans-Serif" font-size="10.00" fill="#000000">SignVerifyMessageDialog</text>
<text text-anchor="start" x="696.5" y="-190" font-family="Helvetica,sans-Serif" font-size="10.00" fill="#000000">::on_addressBookButton</text>
<text text-anchor="middle" x="753" y="-179" font-family="Helvetica,sans-Serif" font-size="10.00" fill="#000000">_SM_clicked</text>
</a>
</g>
</g>
<!-- Node6&#45;&gt;Node11 -->
<g id="edge8" class="edge">
<title>Node6&#45;&gt;Node11</title>
<path fill="none" stroke="#191970" d="M643.4106,-192.5C658.4676,-192.5 673.991,-192.5 688.4489,-192.5"/>
<polygon fill="#191970" stroke="#191970" points="643.0799,-189.0001 633.0799,-192.5 643.0798,-196.0001 643.0799,-189.0001"/>
</g>
<!-- Node12 -->
<g id="node10" class="node">
<title>Node12</title>
<g id="a_node10"><a xlink:href="class_sign_verify_message_dialog.html#a90ceb00084c68da5e9c481ba0841d976" target="_top" xlink:title="SignVerifyMessageDialog\l::on_addressBookButton\l_VM_clicked">
<polygon fill="#ffffff" stroke="#000000" points="688.5,-112 688.5,-153 817.5,-153 817.5,-112 688.5,-112"/>
<text text-anchor="start" x="696.5" y="-141" font-family="Helvetica,sans-Serif" font-size="10.00" fill="#000000">SignVerifyMessageDialog</text>
<text text-anchor="start" x="696.5" y="-130" font-family="Helvetica,sans-Serif" font-size="10.00" fill="#000000">::on_addressBookButton</text>
<text text-anchor="middle" x="753" y="-119" font-family="Helvetica,sans-Serif" font-size="10.00" fill="#000000">_VM_clicked</text>
</a>
</g>
</g>
<!-- Node6&#45;&gt;Node12 -->
<g id="edge9" class="edge">
<title>Node6&#45;&gt;Node12</title>
<path fill="none" stroke="#191970" d="M601.4009,-179.9984C626.5174,-172.129 659.5163,-161.7899 688.3118,-152.7678"/>
<polygon fill="#191970" stroke="#191970" points="600.3399,-176.663 591.8437,-182.9928 602.4328,-183.3428 600.3399,-176.663"/>
</g>
<!-- Node13 -->
<g id="node11" class="node">
<title>Node13</title>
<g id="a_node11"><a xlink:href="class_wallet_view.html#a0a37ff693a4f9c1e5ddc23f9cd3913be" target="_top" xlink:title="Set the wallet model. ">
<polygon fill="#ffffff" stroke="#000000" points="683,-74 683,-93 823,-93 823,-74 683,-74"/>
<text text-anchor="middle" x="753" y="-81" font-family="Helvetica,sans-Serif" font-size="10.00" fill="#000000">WalletView::setWalletModel</text>
</a>
</g>
</g>
<!-- Node6&#45;&gt;Node13 -->
<g id="edge10" class="edge">
<title>Node6&#45;&gt;Node13</title>
<path fill="none" stroke="#191970" d="M576.757,-175.5263C596.1555,-155.0259 631.6416,-120.9968 669,-102.5 676.7716,-98.6521 685.3335,-95.5726 693.9286,-93.1107"/>
<polygon fill="#191970" stroke="#191970" points="574.1468,-173.1937 569.9156,-182.907 579.2806,-177.9524 574.1468,-173.1937"/>
</g>
<!-- Node8 -->
<g id="node6" class="node">
<title>Node8</title>
<g id="a_node6"><a xlink:href="class_receive_coins_dialog.html#abcf17b510c473bf3e94ef12f7f5cfc10" target="_top" xlink:title="ReceiveCoinsDialog\l::keyPressEvent">
<polygon fill="#ffffff" stroke="#000000" points="881,-330.5 881,-360.5 987,-360.5 987,-330.5 881,-330.5"/>
<text text-anchor="start" x="889" y="-348.5" font-family="Helvetica,sans-Serif" font-size="10.00" fill="#000000">ReceiveCoinsDialog</text>
<text text-anchor="middle" x="934" y="-337.5" font-family="Helvetica,sans-Serif" font-size="10.00" fill="#000000">::keyPressEvent</text>
</a>
</g>
</g>
<!-- Node7&#45;&gt;Node8 -->
<g id="edge5" class="edge">
<title>Node7&#45;&gt;Node8</title>
<path fill="none" stroke="#191970" d="M830.587,-345.5C847.5277,-345.5 865.0846,-345.5 880.8174,-345.5"/>
<polygon fill="#191970" stroke="#191970" points="830.1405,-342.0001 820.1405,-345.5 830.1405,-349.0001 830.1405,-342.0001"/>
</g>
<!-- Node14 -->
<g id="node12" class="node">
<title>Node14</title>
<g id="a_node12"><a xlink:href="class_wallet_frame.html#aa199c3f27654199d84c365cf86167d86" target="_top" xlink:title="WalletFrame::addWallet">
<polygon fill="#ffffff" stroke="#000000" points="873,-74 873,-93 995,-93 995,-74 873,-74"/>
<text text-anchor="middle" x="934" y="-81" font-family="Helvetica,sans-Serif" font-size="10.00" fill="#000000">WalletFrame::addWallet</text>
</a>
</g>
</g>
<!-- Node13&#45;&gt;Node14 -->
<g id="edge11" class="edge">
<title>Node13&#45;&gt;Node14</title>
<path fill="none" stroke="#191970" d="M833.3263,-83.5C846.6189,-83.5 860.2082,-83.5 872.9272,-83.5"/>
<polygon fill="#191970" stroke="#191970" points="833.2384,-80.0001 823.2384,-83.5 833.2384,-87.0001 833.2384,-80.0001"/>
</g>
<!-- Node15 -->
<g id="node13" class="node">
<title>Node15</title>
<g id="a_node13"><a xlink:href="class_raven_g_u_i.html#a174a3e75c334c5930d3261a2955c3725" target="_top" xlink:title="Set the client model. ">
<polygon fill="#ffffff" stroke="#000000" points="1031,-74 1031,-93 1165,-93 1165,-74 1031,-74"/>
<text text-anchor="middle" x="1098" y="-81" font-family="Helvetica,sans-Serif" font-size="10.00" fill="#000000">RavenGUI::setClientModel</text>
</a>
</g>
</g>
<!-- Node14&#45;&gt;Node15 -->
<g id="edge12" class="edge">
<title>Node14&#45;&gt;Node15</title>
<path fill="none" stroke="#191970" d="M1005.303,-83.5C1013.7776,-83.5 1022.4074,-83.5 1030.8217,-83.5"/>
<polygon fill="#191970" stroke="#191970" points="1005.0676,-80.0001 995.0675,-83.5 1005.0675,-87.0001 1005.0676,-80.0001"/>
</g>
<!-- Node16 -->
<g id="node14" class="node">
<title>Node16</title>
<g id="a_node14"><a xlink:href="class_raven_application.html#a60123f611cc210870fa67974cb2c804c" target="_top" xlink:title="Request core shutdown. ">
<polygon fill="#ffffff" stroke="#000000" points="1556,-90.5 1556,-120.5 1687,-120.5 1687,-90.5 1556,-90.5"/>
<text text-anchor="start" x="1564" y="-108.5" font-family="Helvetica,sans-Serif" font-size="10.00" fill="#000000">RavenApplication::request</text>
<text text-anchor="middle" x="1621.5" y="-97.5" font-family="Helvetica,sans-Serif" font-size="10.00" fill="#000000">Shutdown</text>
</a>
</g>
</g>
<!-- Node15&#45;&gt;Node16 -->
<g id="edge13" class="edge">
<title>Node15&#45;&gt;Node16</title>
<path fill="none" stroke="#191970" d="M1175.1333,-86.7415C1278.2203,-91.0737 1459.1346,-98.6766 1555.9629,-102.7458"/>
<polygon fill="#191970" stroke="#191970" points="1175.238,-83.2429 1165.0999,-86.3199 1174.944,-90.2367 1175.238,-83.2429"/>
</g>
<!-- Node17 -->
<g id="node15" class="node">
<title>Node17</title>
<g id="a_node15"><a xlink:href="class_raven_application.html#a1a3dcf33ba44507984b2a04e7ebf1542" target="_top" xlink:title="RavenApplication::initialize\lResult">
<polygon fill="#ffffff" stroke="#000000" points="1201,-46.5 1201,-76.5 1335,-76.5 1335,-46.5 1201,-46.5"/>
<text text-anchor="start" x="1209" y="-64.5" font-family="Helvetica,sans-Serif" font-size="10.00" fill="#000000">RavenApplication::initialize</text>
<text text-anchor="middle" x="1268" y="-53.5" font-family="Helvetica,sans-Serif" font-size="10.00" fill="#000000">Result</text>
</a>
</g>
</g>
<!-- Node15&#45;&gt;Node17 -->
<g id="edge14" class="edge">
<title>Node15&#45;&gt;Node17</title>
<path fill="none" stroke="#191970" d="M1175.146,-73.5164C1183.6879,-72.411 1192.3366,-71.2917 1200.7428,-70.2039"/>
<polygon fill="#191970" stroke="#191970" points="1174.6566,-70.0505 1165.1885,-74.805 1175.555,-76.9926 1174.6566,-70.0505"/>
</g>
<!-- Node18 -->
<g id="node16" class="node">
<title>Node18</title>
<g id="a_node16"><a xlink:href="class_raven_application.html#aecfdce3a245b959def5dd35e5cfb192e" target="_top" xlink:title="RavenApplication::startThread">
<polygon fill="#ffffff" stroke="#000000" points="1371,-52 1371,-71 1520,-71 1520,-52 1371,-52"/>
<text text-anchor="middle" x="1445.5" y="-59" font-family="Helvetica,sans-Serif" font-size="10.00" fill="#000000">RavenApplication::startThread</text>
</a>
</g>
</g>
<!-- Node17&#45;&gt;Node18 -->
<g id="edge15" class="edge">
<title>Node17&#45;&gt;Node18</title>
<path fill="none" stroke="#191970" d="M1345.3486,-61.5C1353.821,-61.5 1362.4344,-61.5 1370.873,-61.5"/>
<polygon fill="#191970" stroke="#191970" points="1345.1052,-58.0001 1335.1051,-61.5 1345.1051,-65.0001 1345.1052,-58.0001"/>
</g>
<!-- Node18&#45;&gt;Node16 -->
<g id="edge17" class="edge">
<title>Node18&#45;&gt;Node16</title>
<path fill="none" stroke="#191970" d="M1493.6046,-73.5261C1514.4811,-78.7453 1539.1576,-84.9144 1561.2385,-90.4346"/>
<polygon fill="#191970" stroke="#191970" points="1494.2397,-70.0773 1483.6894,-71.0473 1492.5419,-76.8683 1494.2397,-70.0773"/>
</g>
<!-- Node19 -->
<g id="node17" class="node">
<title>Node19</title>
<g id="a_node17"><a xlink:href="class_raven_application.html#a63a2032fef875fb81f26c212f69d000d" target="_top" xlink:title="Request core initialization. ">
<polygon fill="#ffffff" stroke="#000000" points="1556,-41.5 1556,-71.5 1687,-71.5 1687,-41.5 1556,-41.5"/>
<text text-anchor="start" x="1564" y="-59.5" font-family="Helvetica,sans-Serif" font-size="10.00" fill="#000000">RavenApplication::request</text>
<text text-anchor="middle" x="1621.5" y="-48.5" font-family="Helvetica,sans-Serif" font-size="10.00" fill="#000000">Initialize</text>
</a>
</g>
</g>
<!-- Node18&#45;&gt;Node19 -->
<g id="edge16" class="edge">
<title>Node18&#45;&gt;Node19</title>
<path fill="none" stroke="#191970" d="M1530.2384,-59.0927C1538.8743,-58.8473 1547.5522,-58.6008 1555.9387,-58.3625"/>
<polygon fill="#191970" stroke="#191970" points="1530.0364,-55.5969 1520.1398,-59.3795 1530.2352,-62.5941 1530.0364,-55.5969"/>
</g>
<!-- Node20&#45;&gt;Node21 -->
<g id="edge19" class="edge">
<title>Node20&#45;&gt;Node21</title>
<path fill="none" stroke="#191970" d="M443.5865,-87.9285C469.6964,-81.6335 498.9991,-74.5687 521.8616,-69.0567"/>
<polygon fill="#191970" stroke="#191970" points="442.6571,-84.5522 433.756,-90.2985 444.2978,-91.3572 442.6571,-84.5522"/>
</g>
<!-- Node22 -->
<g id="node20" class="node">
<title>Node22</title>
<g id="a_node20"><a xlink:href="class_transaction_view.html#a6bad80e62c684ad1e77250510c9323aa" target="_top" xlink:title="TransactionView::TransactionView">
<polygon fill="#ffffff" stroke="#000000" points="669,-36 669,-55 837,-55 837,-36 669,-36"/>
<text text-anchor="middle" x="753" y="-43" font-family="Helvetica,sans-Serif" font-size="10.00" fill="#000000">TransactionView::TransactionView</text>
</a>
</g>
</g>
<!-- Node21&#45;&gt;Node22 -->
<g id="edge20" class="edge">
<title>Node21&#45;&gt;Node22</title>
<path fill="none" stroke="#191970" d="M638.8829,-53.8428C648.7207,-53.1236 658.8272,-52.3847 668.7658,-51.6581"/>
<polygon fill="#191970" stroke="#191970" points="638.4646,-50.3639 628.7465,-54.5838 638.9751,-57.3453 638.4646,-50.3639"/>
</g>
</g>
</svg>
