<?xml version="1.0" encoding="UTF-8" standalone="no"?>
<!DOCTYPE svg PUBLIC "-//W3C//DTD SVG 1.1//EN"
 "http://www.w3.org/Graphics/SVG/1.1/DTD/svg11.dtd">
<!-- Generated by graphviz version 2.40.1 (20161225.0304)
 -->
<!-- Title: ClientModel::getOptionsModel Pages: 1 -->
<svg width="848pt" height="195pt"
 viewBox="0.00 0.00 848.00 194.50" xmlns="http://www.w3.org/2000/svg" xmlns:xlink="http://www.w3.org/1999/xlink">
<g id="graph0" class="graph" transform="scale(1 1) rotate(0) translate(4 190.5)">
<title>ClientModel::getOptionsModel</title>
<polygon fill="#ffffff" stroke="transparent" points="-4,4 -4,-190.5 844,-190.5 844,4 -4,4"/>
<!-- Node142 -->
<g id="node1" class="node">
<title>Node142</title>
<polygon fill="#bfbfbf" stroke="#000000" points="0,-57.5 0,-76.5 148,-76.5 148,-57.5 0,-57.5"/>
<text text-anchor="middle" x="74" y="-64.5" font-family="Helvetica,sans-Serif" font-size="10.00" fill="#000000">ClientModel::getOptionsModel</text>
</g>
<!-- Node143 -->
<g id="node2" class="node">
<title>Node143</title>
<g id="a_node2"><a xlink:href="class_raven_g_u_i.html#a174a3e75c334c5930d3261a2955c3725" target="_top" xlink:title="Set the client model. ">
<polygon fill="#ffffff" stroke="#000000" points="184,-117.5 184,-136.5 318,-136.5 318,-117.5 184,-117.5"/>
<text text-anchor="middle" x="251" y="-124.5" font-family="Helvetica,sans-Serif" font-size="10.00" fill="#000000">RavenGUI::setClientModel</text>
</a>
</g>
</g>
<!-- Node142&#45;&gt;Node143 -->
<g id="edge1" class="edge">
<title>Node142&#45;&gt;Node143</title>
<path fill="none" stroke="#191970" d="M111.1698,-79.9993C132.4629,-87.4063 159.7016,-96.8143 184,-105 196.2984,-109.1431 209.8992,-113.6271 221.6153,-117.4593"/>
<polygon fill="#191970" stroke="#191970" points="112.1306,-76.6278 101.5358,-76.6436 109.828,-83.2383 112.1306,-76.6278"/>
</g>
<!-- Node148 -->
<g id="node7" class="node">
<title>Node148</title>
<g id="a_node7"><a xlink:href="class_raven_g_u_i.html#a18e94f625f9327f3718c02f3a2d4d21c" target="_top" xlink:title="Show configuration dialog. ">
<polygon fill="#ffffff" stroke="#000000" points="184,-76.5 184,-95.5 318,-95.5 318,-76.5 184,-76.5"/>
<text text-anchor="middle" x="251" y="-83.5" font-family="Helvetica,sans-Serif" font-size="10.00" fill="#000000">RavenGUI::optionsClicked</text>
</a>
</g>
</g>
<!-- Node142&#45;&gt;Node148 -->
<g id="edge7" class="edge">
<title>Node142&#45;&gt;Node148</title>
<path fill="none" stroke="#191970" d="M158.0943,-76.0271C166.6989,-76.9507 175.3592,-77.8804 183.7487,-78.7809"/>
<polygon fill="#191970" stroke="#191970" points="158.3548,-72.535 148.0384,-74.9476 157.6077,-79.495 158.3548,-72.535"/>
</g>
<!-- Node151 -->
<g id="node10" class="node">
<title>Node151</title>
<g id="a_node10"><a xlink:href="class_raven_g_u_i.html#aad53e7f24651741fc062507f4945ee96" target="_top" xlink:title="RavenGUI::changeEvent">
<polygon fill="#ffffff" stroke="#000000" points="188,-38.5 188,-57.5 314,-57.5 314,-38.5 188,-38.5"/>
<text text-anchor="middle" x="251" y="-45.5" font-family="Helvetica,sans-Serif" font-size="10.00" fill="#000000">RavenGUI::changeEvent</text>
</a>
</g>
</g>
<!-- Node142&#45;&gt;Node151 -->
<g id="edge10" class="edge">
<title>Node142&#45;&gt;Node151</title>
<path fill="none" stroke="#191970" d="M158.0494,-57.9777C168.1053,-56.8983 178.2381,-55.8106 187.9265,-54.7706"/>
<polygon fill="#191970" stroke="#191970" points="157.6077,-54.505 148.0384,-59.0524 158.3548,-61.465 157.6077,-54.505"/>
</g>
<!-- Node152 -->
<g id="node11" class="node">
<title>Node152</title>
<g id="a_node11"><a xlink:href="class_raven_g_u_i.html#a7be726b68a4fd9c7078660674bdc8883" target="_top" xlink:title="RavenGUI::closeEvent">
<polygon fill="#ffffff" stroke="#000000" points="192,-.5 192,-19.5 310,-19.5 310,-.5 192,-.5"/>
<text text-anchor="middle" x="251" y="-7.5" font-family="Helvetica,sans-Serif" font-size="10.00" fill="#000000">RavenGUI::closeEvent</text>
</a>
</g>
</g>
<!-- Node142&#45;&gt;Node152 -->
<g id="edge11" class="edge">
<title>Node142&#45;&gt;Node152</title>
<path fill="none" stroke="#191970" d="M110.1817,-53.9262C131.5573,-46.3466 159.2064,-36.7913 184,-29 194.2657,-25.7741 205.4915,-22.4947 215.769,-19.589"/>
<polygon fill="#191970" stroke="#191970" points="108.7792,-50.7103 100.5342,-57.3639 111.1289,-57.3042 108.7792,-50.7103"/>
</g>
<!-- Node144 -->
<g id="node3" class="node">
<title>Node144</title>
<g id="a_node3"><a xlink:href="class_raven_application.html#a60123f611cc210870fa67974cb2c804c" target="_top" xlink:title="Request core shutdown. ">
<polygon fill="#ffffff" stroke="#000000" points="709,-156 709,-186 840,-186 840,-156 709,-156"/>
<text text-anchor="start" x="717" y="-174" font-family="Helvetica,sans-Serif" font-size="10.00" fill="#000000">RavenApplication::request</text>
<text text-anchor="middle" x="774.5" y="-163" font-family="Helvetica,sans-Serif" font-size="10.00" fill="#000000">Shutdown</text>
</a>
</g>
</g>
<!-- Node143&#45;&gt;Node144 -->
<g id="edge2" class="edge">
<title>Node143&#45;&gt;Node144</title>
<path fill="none" stroke="#191970" d="M293.0507,-139.1516C311.5803,-143.9994 333.7109,-149.107 354,-152 478.6163,-169.7688 625.9087,-172.228 708.9445,-171.9352"/>
<polygon fill="#191970" stroke="#191970" points="293.7268,-135.7094 283.1616,-136.5009 291.9144,-142.4707 293.7268,-135.7094"/>
</g>
<!-- Node145 -->
<g id="node4" class="node">
<title>Node145</title>
<g id="a_node4"><a xlink:href="class_raven_application.html#a1a3dcf33ba44507984b2a04e7ebf1542" target="_top" xlink:title="RavenApplication::initialize\lResult">
<polygon fill="#ffffff" stroke="#000000" points="354,-112 354,-142 488,-142 488,-112 354,-112"/>
<text text-anchor="start" x="362" y="-130" font-family="Helvetica,sans-Serif" font-size="10.00" fill="#000000">RavenApplication::initialize</text>
<text text-anchor="middle" x="421" y="-119" font-family="Helvetica,sans-Serif" font-size="10.00" fill="#000000">Result</text>
</a>
</g>
</g>
<!-- Node143&#45;&gt;Node145 -->
<g id="edge3" class="edge">
<title>Node143&#45;&gt;Node145</title>
<path fill="none" stroke="#191970" d="M328.4246,-127C336.8759,-127 345.4279,-127 353.7428,-127"/>
<polygon fill="#191970" stroke="#191970" points="328.1885,-123.5001 318.1885,-127 328.1885,-130.5001 328.1885,-123.5001"/>
</g>
<!-- Node146 -->
<g id="node5" class="node">
<title>Node146</title>
<g id="a_node5"><a xlink:href="class_raven_application.html#aecfdce3a245b959def5dd35e5cfb192e" target="_top" xlink:title="RavenApplication::startThread">
<polygon fill="#ffffff" stroke="#000000" points="524,-117.5 524,-136.5 673,-136.5 673,-117.5 524,-117.5"/>
<text text-anchor="middle" x="598.5" y="-124.5" font-family="Helvetica,sans-Serif" font-size="10.00" fill="#000000">RavenApplication::startThread</text>
</a>
</g>
</g>
<!-- Node145&#45;&gt;Node146 -->
<g id="edge4" class="edge">
<title>Node145&#45;&gt;Node146</title>
<path fill="none" stroke="#191970" d="M498.3486,-127C506.821,-127 515.4344,-127 523.873,-127"/>
<polygon fill="#191970" stroke="#191970" points="498.1052,-123.5001 488.1051,-127 498.1051,-130.5001 498.1052,-123.5001"/>
</g>
<!-- Node146&#45;&gt;Node144 -->
<g id="edge6" class="edge">
<title>Node146&#45;&gt;Node144</title>
<path fill="none" stroke="#191970" d="M646.6046,-139.0261C667.4811,-144.2453 692.1576,-150.4144 714.2385,-155.9346"/>
<polygon fill="#191970" stroke="#191970" points="647.2397,-135.5773 636.6894,-136.5473 645.5419,-142.3683 647.2397,-135.5773"/>
</g>
<!-- Node147 -->
<g id="node6" class="node">
<title>Node147</title>
<g id="a_node6"><a xlink:href="class_raven_application.html#a63a2032fef875fb81f26c212f69d000d" target="_top" xlink:title="Request core initialization. ">
<polygon fill="#ffffff" stroke="#000000" points="709,-107 709,-137 840,-137 840,-107 709,-107"/>
<text text-anchor="start" x="717" y="-125" font-family="Helvetica,sans-Serif" font-size="10.00" fill="#000000">RavenApplication::request</text>
<text text-anchor="middle" x="774.5" y="-114" font-family="Helvetica,sans-Serif" font-size="10.00" fill="#000000">Initialize</text>
</a>
</g>
</g>
<!-- Node146&#45;&gt;Node147 -->
<g id="edge5" class="edge">
<title>Node146&#45;&gt;Node147</title>
<path fill="none" stroke="#191970" d="M683.2384,-124.5927C691.8743,-124.3473 700.5522,-124.1008 708.9387,-123.8625"/>
<polygon fill="#191970" stroke="#191970" points="683.0364,-121.0969 673.1398,-124.8795 683.2352,-128.0941 683.0364,-121.0969"/>
</g>
<!-- Node149 -->
<g id="node8" class="node">
<title>Node149</title>
<g id="a_node8"><a xlink:href="class_raven_g_u_i.html#a6e65b4f2b8a82b4ab99b77fe9d43a500" target="_top" xlink:title="Create the main UI actions. ">
<polygon fill="#ffffff" stroke="#000000" points="356.5,-73.5 356.5,-92.5 485.5,-92.5 485.5,-73.5 356.5,-73.5"/>
<text text-anchor="middle" x="421" y="-80.5" font-family="Helvetica,sans-Serif" font-size="10.00" fill="#000000">RavenGUI::createActions</text>
</a>
</g>
</g>
<!-- Node148&#45;&gt;Node149 -->
<g id="edge8" class="edge">
<title>Node148&#45;&gt;Node149</title>
<path fill="none" stroke="#191970" d="M328.2654,-84.6365C337.6175,-84.4715 347.0955,-84.3042 356.2415,-84.1428"/>
<polygon fill="#191970" stroke="#191970" points="328.1252,-81.1383 318.1885,-84.8143 328.2487,-88.1372 328.1252,-81.1383"/>
</g>
<!-- Node150 -->
<g id="node9" class="node">
<title>Node150</title>
<g id="a_node9"><a xlink:href="class_raven_g_u_i.html#af82cbe028fc29d0ea71074eced806071" target="_top" xlink:title="RavenGUI::RavenGUI">
<polygon fill="#ffffff" stroke="#000000" points="540.5,-73.5 540.5,-92.5 656.5,-92.5 656.5,-73.5 540.5,-73.5"/>
<text text-anchor="middle" x="598.5" y="-80.5" font-family="Helvetica,sans-Serif" font-size="10.00" fill="#000000">RavenGUI::RavenGUI</text>
</a>
</g>
</g>
<!-- Node149&#45;&gt;Node150 -->
<g id="edge9" class="edge">
<title>Node149&#45;&gt;Node150</title>
<path fill="none" stroke="#191970" d="M495.8048,-83C510.724,-83 526.1824,-83 540.4365,-83"/>
<polygon fill="#191970" stroke="#191970" points="495.5837,-79.5001 485.5837,-83 495.5837,-86.5001 495.5837,-79.5001"/>
</g>
</g>
</svg>
