<?xml version="1.0" encoding="UTF-8" standalone="no"?>
<!DOCTYPE svg PUBLIC "-//W3C//DTD SVG 1.1//EN"
 "http://www.w3.org/Graphics/SVG/1.1/DTD/svg11.dtd">
<!-- Generated by graphviz version 2.40.1 (20161225.0304)
 -->
<!-- Title: CCoinControl::UnSelectAll Pages: 1 -->
<svg width="455pt" height="186pt"
 viewBox="0.00 0.00 455.00 186.00" xmlns="http://www.w3.org/2000/svg" xmlns:xlink="http://www.w3.org/1999/xlink">
<g id="graph0" class="graph" transform="scale(1 1) rotate(0) translate(4 182)">
<title>CCoinControl::UnSelectAll</title>
<polygon fill="#ffffff" stroke="transparent" points="-4,4 -4,-182 451,-182 451,4 -4,4"/>
<!-- Node194 -->
<g id="node1" class="node">
<title>Node194</title>
<polygon fill="#bfbfbf" stroke="#000000" points="0,-79 0,-98 134,-98 134,-79 0,-79"/>
<text text-anchor="middle" x="67" y="-86" font-family="Helvetica,sans-Serif" font-size="10.00" fill="#000000">CCoinControl::UnSelectAll</text>
</g>
<!-- Node195 -->
<g id="node2" class="node">
<title>Node195</title>
<g id="a_node2"><a xlink:href="class_asset_control_dialog.html#a2be8cae81e2851c32815a6a52856f637" target="_top" xlink:title="AssetControlDialog\l::buttonSelectAllClicked">
<polygon fill="#ffffff" stroke="#000000" points="176,-147.5 176,-177.5 298,-177.5 298,-147.5 176,-147.5"/>
<text text-anchor="start" x="184" y="-165.5" font-family="Helvetica,sans-Serif" font-size="10.00" fill="#000000">AssetControlDialog</text>
<text text-anchor="middle" x="237" y="-154.5" font-family="Helvetica,sans-Serif" font-size="10.00" fill="#000000">::buttonSelectAllClicked</text>
</a>
</g>
</g>
<!-- Node194&#45;&gt;Node195 -->
<g id="edge1" class="edge">
<title>Node194&#45;&gt;Node195</title>
<path fill="none" stroke="#191970" d="M94.4135,-102.8099C114.9553,-113.2858 143.8987,-127.5276 170,-138.5 177.2897,-141.5644 185.1221,-144.5967 192.7702,-147.4212"/>
<polygon fill="#191970" stroke="#191970" points="95.8249,-99.6002 85.3306,-98.144 92.6262,-105.8267 95.8249,-99.6002"/>
</g>
<!-- Node197 -->
<g id="node4" class="node">
<title>Node197</title>
<g id="a_node4"><a xlink:href="class_asset_control_dialog.html#a30bbfa2cb3fb3a09b968bb3a5e9e0eec" target="_top" xlink:title="AssetControlDialog\l::viewAdministratorClicked">
<polygon fill="#ffffff" stroke="#000000" points="170,-98.5 170,-128.5 304,-128.5 304,-98.5 170,-98.5"/>
<text text-anchor="start" x="178" y="-116.5" font-family="Helvetica,sans-Serif" font-size="10.00" fill="#000000">AssetControlDialog</text>
<text text-anchor="middle" x="237" y="-105.5" font-family="Helvetica,sans-Serif" font-size="10.00" fill="#000000">::viewAdministratorClicked</text>
</a>
</g>
</g>
<!-- Node194&#45;&gt;Node197 -->
<g id="edge3" class="edge">
<title>Node194&#45;&gt;Node197</title>
<path fill="none" stroke="#191970" d="M141.8084,-99.5012C151.1541,-100.8756 160.6665,-102.2745 169.8849,-103.6301"/>
<polygon fill="#191970" stroke="#191970" points="142.1575,-96.015 131.7547,-98.0227 141.139,-102.9405 142.1575,-96.015"/>
</g>
<!-- Node198 -->
<g id="node5" class="node">
<title>Node198</title>
<g id="a_node5"><a xlink:href="class_asset_control_dialog.html#ae2b4162c5cfe2f0fe907bc007597feef" target="_top" xlink:title="AssetControlDialog\l::onAssetSelected">
<polygon fill="#ffffff" stroke="#000000" points="186.5,-49.5 186.5,-79.5 287.5,-79.5 287.5,-49.5 186.5,-49.5"/>
<text text-anchor="start" x="194.5" y="-67.5" font-family="Helvetica,sans-Serif" font-size="10.00" fill="#000000">AssetControlDialog</text>
<text text-anchor="middle" x="237" y="-56.5" font-family="Helvetica,sans-Serif" font-size="10.00" fill="#000000">::onAssetSelected</text>
</a>
</g>
</g>
<!-- Node194&#45;&gt;Node198 -->
<g id="edge5" class="edge">
<title>Node194&#45;&gt;Node198</title>
<path fill="none" stroke="#191970" d="M144.4534,-77.5654C158.6506,-75.5611 173.1308,-73.5168 186.293,-71.6586"/>
<polygon fill="#191970" stroke="#191970" points="143.601,-74.1509 134.1885,-79.0146 144.5796,-81.0822 143.601,-74.1509"/>
</g>
<!-- Node199 -->
<g id="node6" class="node">
<title>Node199</title>
<g id="a_node6"><a xlink:href="class_coin_control_dialog.html#ae106a71c5b87ac8bea8c52e7c4f4a129" target="_top" xlink:title="CoinControlDialog::\lbuttonSelectAllClicked">
<polygon fill="#ffffff" stroke="#000000" points="179,-.5 179,-30.5 295,-30.5 295,-.5 179,-.5"/>
<text text-anchor="start" x="187" y="-18.5" font-family="Helvetica,sans-Serif" font-size="10.00" fill="#000000">CoinControlDialog::</text>
<text text-anchor="middle" x="237" y="-7.5" font-family="Helvetica,sans-Serif" font-size="10.00" fill="#000000">buttonSelectAllClicked</text>
</a>
</g>
</g>
<!-- Node194&#45;&gt;Node199 -->
<g id="edge7" class="edge">
<title>Node194&#45;&gt;Node199</title>
<path fill="none" stroke="#191970" d="M95.6521,-74.4056C116.1685,-64.4963 144.5513,-51.1581 170,-40.5 178.0161,-37.1428 186.6579,-33.7524 194.9838,-30.5979"/>
<polygon fill="#191970" stroke="#191970" points="94.0056,-71.3143 86.5394,-78.8313 97.0637,-77.6109 94.0056,-71.3143"/>
</g>
<!-- Node196 -->
<g id="node3" class="node">
<title>Node196</title>
<g id="a_node3"><a xlink:href="class_asset_control_dialog.html#acaafd2a83fa87e3cf4b6748e25a1346a" target="_top" xlink:title="AssetControlDialog\l::AssetControlDialog">
<polygon fill="#ffffff" stroke="#000000" points="340,-98.5 340,-128.5 447,-128.5 447,-98.5 340,-98.5"/>
<text text-anchor="start" x="348" y="-116.5" font-family="Helvetica,sans-Serif" font-size="10.00" fill="#000000">AssetControlDialog</text>
<text text-anchor="middle" x="393.5" y="-105.5" font-family="Helvetica,sans-Serif" font-size="10.00" fill="#000000">::AssetControlDialog</text>
</a>
</g>
</g>
<!-- Node195&#45;&gt;Node196 -->
<g id="edge2" class="edge">
<title>Node195&#45;&gt;Node196</title>
<path fill="none" stroke="#191970" d="M294.8504,-144.3871C311.4883,-139.1778 329.4489,-133.5543 345.4271,-128.5516"/>
<polygon fill="#191970" stroke="#191970" points="293.7295,-141.0704 285.2322,-147.3986 295.8211,-147.7506 293.7295,-141.0704"/>
</g>
<!-- Node197&#45;&gt;Node196 -->
<g id="edge4" class="edge">
<title>Node197&#45;&gt;Node196</title>
<path fill="none" stroke="#191970" d="M314.4011,-113.5C323.0512,-113.5 331.7151,-113.5 339.9699,-113.5"/>
<polygon fill="#191970" stroke="#191970" points="314.2784,-110.0001 304.2783,-113.5 314.2783,-117.0001 314.2784,-110.0001"/>
</g>
<!-- Node198&#45;&gt;Node196 -->
<g id="edge6" class="edge">
<title>Node198&#45;&gt;Node196</title>
<path fill="none" stroke="#191970" d="M294.8504,-82.6129C311.4883,-87.8222 329.4489,-93.4457 345.4271,-98.4484"/>
<polygon fill="#191970" stroke="#191970" points="295.8211,-79.2494 285.2322,-79.6014 293.7295,-85.9296 295.8211,-79.2494"/>
</g>
<!-- Node200 -->
<g id="node7" class="node">
<title>Node200</title>
<g id="a_node7"><a xlink:href="class_coin_control_dialog.html#a3cec3ece6aa5eec3e7829e042356a659" target="_top" xlink:title="CoinControlDialog::\lCoinControlDialog">
<polygon fill="#ffffff" stroke="#000000" points="342.5,-.5 342.5,-30.5 444.5,-30.5 444.5,-.5 342.5,-.5"/>
<text text-anchor="start" x="350.5" y="-18.5" font-family="Helvetica,sans-Serif" font-size="10.00" fill="#000000">CoinControlDialog::</text>
<text text-anchor="middle" x="393.5" y="-7.5" font-family="Helvetica,sans-Serif" font-size="10.00" fill="#000000">CoinControlDialog</text>
</a>
</g>
</g>
<!-- Node199&#45;&gt;Node200 -->
<g id="edge8" class="edge">
<title>Node199&#45;&gt;Node200</title>
<path fill="none" stroke="#191970" d="M305.5589,-15.5C317.9267,-15.5 330.6225,-15.5 342.3846,-15.5"/>
<polygon fill="#191970" stroke="#191970" points="305.2749,-12.0001 295.2748,-15.5 305.2748,-19.0001 305.2749,-12.0001"/>
</g>
</g>
</svg>
