<?xml version="1.0" encoding="UTF-8" standalone="no"?>
<!DOCTYPE svg PUBLIC "-//W3C//DTD SVG 1.1//EN"
 "http://www.w3.org/Graphics/SVG/1.1/DTD/svg11.dtd">
<!-- Generated by graphviz version 2.40.1 (20161225.0304)
 -->
<!-- Title: CBlockIndex::GetBlockHash Pages: 1 -->
<svg width="554pt" height="595pt"
 viewBox="0.00 0.00 554.00 594.50" xmlns="http://www.w3.org/2000/svg" xmlns:xlink="http://www.w3.org/1999/xlink">
<g id="graph0" class="graph" transform="scale(1 1) rotate(0) translate(4 590.5)">
<title>CBlockIndex::GetBlockHash</title>
<polygon fill="#ffffff" stroke="transparent" points="-4,4 -4,-590.5 550,-590.5 550,4 -4,4"/>
<!-- Node27 -->
<g id="node1" class="node">
<title>Node27</title>
<polygon fill="#bfbfbf" stroke="#000000" points="0,-289 0,-308 143,-308 143,-289 0,-289"/>
<text text-anchor="middle" x="71.5" y="-296" font-family="Helvetica,sans-Serif" font-size="10.00" fill="#000000">CBlockIndex::GetBlockHash</text>
</g>
<!-- Node28 -->
<g id="node2" class="node">
<title>Node28</title>
<g id="a_node2"><a xlink:href="class_c_chain.html#a677f034f599fd3bdf447e2b064e3cc5f" target="_top" xlink:title="Return a CBlockLocator that refers to a block in this chain (by default the tip). ...">
<polygon fill="#ffffff" stroke="#000000" points="206,-567 206,-586 310,-586 310,-567 206,-567"/>
<text text-anchor="middle" x="258" y="-574" font-family="Helvetica,sans-Serif" font-size="10.00" fill="#000000">CChain::GetLocator</text>
</a>
</g>
</g>
<!-- Node27&#45;&gt;Node28 -->
<g id="edge1" class="edge">
<title>Node27&#45;&gt;Node28</title>
<path fill="none" stroke="#191970" d="M73.6425,-318.1389C80.021,-366.6671 103.419,-492.9684 179,-557.5 186.6169,-564.0034 196.0854,-568.3609 205.7927,-571.2625"/>
<polygon fill="#191970" stroke="#191970" points="77.0963,-317.5453 72.4185,-308.039 70.1471,-318.3875 77.0963,-317.5453"/>
</g>
<!-- Node29 -->
<g id="node3" class="node">
<title>Node29</title>
<g id="a_node3"><a xlink:href="class_c_block_index.html#a29df6a3c3195ff87c650348a27959fa2" target="_top" xlink:title="CBlockIndex::GetBlockHeader">
<polygon fill="#ffffff" stroke="#000000" points="182.5,-529 182.5,-548 333.5,-548 333.5,-529 182.5,-529"/>
<text text-anchor="middle" x="258" y="-536" font-family="Helvetica,sans-Serif" font-size="10.00" fill="#000000">CBlockIndex::GetBlockHeader</text>
</a>
</g>
</g>
<!-- Node27&#45;&gt;Node29 -->
<g id="edge2" class="edge">
<title>Node27&#45;&gt;Node29</title>
<path fill="none" stroke="#191970" d="M75.1857,-318.1699C84.3952,-361.6183 112.6146,-466.1404 179,-519.5 183.8378,-523.3885 189.3463,-526.5016 195.1521,-528.991"/>
<polygon fill="#191970" stroke="#191970" points="78.6011,-317.4007 73.2001,-308.2859 71.7382,-318.7794 78.6011,-317.4007"/>
</g>
<!-- Node30 -->
<g id="node4" class="node">
<title>Node30</title>
<g id="a_node4"><a xlink:href="class_peer_logic_validation.html#a91f72d94f777c7af376dbaddd98aaf3f" target="_top" xlink:title="Notifies listeners of updated block chain tip. ">
<polygon fill="#ffffff" stroke="#000000" points="206.5,-479.5 206.5,-509.5 309.5,-509.5 309.5,-479.5 206.5,-479.5"/>
<text text-anchor="start" x="214.5" y="-497.5" font-family="Helvetica,sans-Serif" font-size="10.00" fill="#000000">PeerLogicValidation</text>
<text text-anchor="middle" x="258" y="-486.5" font-family="Helvetica,sans-Serif" font-size="10.00" fill="#000000">::UpdatedBlockTip</text>
</a>
</g>
</g>
<!-- Node27&#45;&gt;Node30 -->
<g id="edge3" class="edge">
<title>Node27&#45;&gt;Node30</title>
<path fill="none" stroke="#191970" d="M78.4757,-317.9305C92.1721,-353.3397 125.9471,-428.4927 179,-469.5 186.9673,-475.6584 196.4842,-480.3181 206.1075,-483.8383"/>
<polygon fill="#191970" stroke="#191970" points="81.6541,-316.4376 74.8706,-308.2992 75.0983,-318.8915 81.6541,-316.4376"/>
</g>
<!-- Node31 -->
<g id="node5" class="node">
<title>Node31</title>
<g id="a_node5"><a xlink:href="blockchain_8cpp.html#a1b6e8c94fd69cfdd8b47fef0c28aa606" target="_top" xlink:title="getbestblockhash">
<polygon fill="#ffffff" stroke="#000000" points="211.5,-441 211.5,-460 304.5,-460 304.5,-441 211.5,-441"/>
<text text-anchor="middle" x="258" y="-448" font-family="Helvetica,sans-Serif" font-size="10.00" fill="#000000">getbestblockhash</text>
</a>
</g>
</g>
<!-- Node27&#45;&gt;Node31 -->
<g id="edge4" class="edge">
<title>Node27&#45;&gt;Node31</title>
<path fill="none" stroke="#191970" d="M81.4328,-317.5151C97.7266,-346.7549 132.9739,-402.4172 179,-431.5 188.6594,-437.6035 200.1151,-441.7468 211.2634,-444.5593"/>
<polygon fill="#191970" stroke="#191970" points="84.3145,-315.4865 76.4733,-308.3614 78.1598,-318.8212 84.3145,-315.4865"/>
</g>
<!-- Node32 -->
<g id="node6" class="node">
<title>Node32</title>
<g id="a_node6"><a xlink:href="blockchain_8cpp.html#a5a5c513f66f688445d8f24ae430ca37d" target="_top" xlink:title="getblockhash">
<polygon fill="#ffffff" stroke="#000000" points="221,-403 221,-422 295,-422 295,-403 221,-403"/>
<text text-anchor="middle" x="258" y="-410" font-family="Helvetica,sans-Serif" font-size="10.00" fill="#000000">getblockhash</text>
</a>
</g>
</g>
<!-- Node27&#45;&gt;Node32 -->
<g id="edge5" class="edge">
<title>Node27&#45;&gt;Node32</title>
<path fill="none" stroke="#191970" d="M86.3031,-316.0285C105.4738,-337.5739 140.9668,-373.705 179,-393.5 191.8884,-400.208 207.1942,-404.5939 220.8858,-407.4403"/>
<polygon fill="#191970" stroke="#191970" points="88.7713,-313.5333 79.5638,-308.2918 83.493,-318.1312 88.7713,-313.5333"/>
</g>
<!-- Node33 -->
<g id="node7" class="node">
<title>Node33</title>
<g id="a_node7"><a xlink:href="mining_8cpp.html#a39d592ef311818f32e6081ec6be2f462" target="_top" xlink:title="getblocktemplate">
<polygon fill="#ffffff" stroke="#000000" points="212.5,-365 212.5,-384 303.5,-384 303.5,-365 212.5,-365"/>
<text text-anchor="middle" x="258" y="-372" font-family="Helvetica,sans-Serif" font-size="10.00" fill="#000000">getblocktemplate</text>
</a>
</g>
</g>
<!-- Node27&#45;&gt;Node33 -->
<g id="edge6" class="edge">
<title>Node27&#45;&gt;Node33</title>
<path fill="none" stroke="#191970" d="M95.2563,-313.3407C116.5147,-326.067 148.8821,-344.1022 179,-355.5 189.5546,-359.4943 201.2274,-362.8476 212.2888,-365.5705"/>
<polygon fill="#191970" stroke="#191970" points="96.9559,-310.278 86.5919,-308.0784 93.3221,-316.261 96.9559,-310.278"/>
</g>
<!-- Node34 -->
<g id="node8" class="node">
<title>Node34</title>
<g id="a_node8"><a xlink:href="validation_8h.html#aee79e45a0b167f9b312f83a23880cfbc" target="_top" xlink:title="ReadBlockFromDisk">
<polygon fill="#ffffff" stroke="#000000" points="204.5,-327 204.5,-346 311.5,-346 311.5,-327 204.5,-327"/>
<text text-anchor="middle" x="258" y="-334" font-family="Helvetica,sans-Serif" font-size="10.00" fill="#000000">ReadBlockFromDisk</text>
</a>
</g>
</g>
<!-- Node27&#45;&gt;Node34 -->
<g id="edge7" class="edge">
<title>Node27&#45;&gt;Node34</title>
<path fill="none" stroke="#191970" d="M128.4782,-310.1095C155.0028,-315.514 186.1657,-321.8635 211.2766,-326.9799"/>
<polygon fill="#191970" stroke="#191970" points="129.0593,-306.6561 118.5618,-308.089 127.6617,-313.5151 129.0593,-306.6561"/>
</g>
<!-- Node35 -->
<g id="node9" class="node">
<title>Node35</title>
<g id="a_node9"><a xlink:href="validation_8h.html#aa597978e5628b461b272c75aa28eb531" target="_top" xlink:title="Update the chain tip based on database information. ">
<polygon fill="#ffffff" stroke="#000000" points="219.5,-289 219.5,-308 296.5,-308 296.5,-289 219.5,-289"/>
<text text-anchor="middle" x="258" y="-296" font-family="Helvetica,sans-Serif" font-size="10.00" fill="#000000">LoadChainTip</text>
</a>
</g>
</g>
<!-- Node27&#45;&gt;Node35 -->
<g id="edge8" class="edge">
<title>Node27&#45;&gt;Node35</title>
<path fill="none" stroke="#191970" d="M153.2227,-298.5C176.2696,-298.5 200.2705,-298.5 219.4773,-298.5"/>
<polygon fill="#191970" stroke="#191970" points="153.0724,-295.0001 143.0724,-298.5 153.0724,-302.0001 153.0724,-295.0001"/>
</g>
<!-- Node36 -->
<g id="node10" class="node">
<title>Node36</title>
<g id="a_node10"><a xlink:href="class_c_verify_d_b.html#af12e07230f20d23cf01d417d0e785c49" target="_top" xlink:title="CVerifyDB::VerifyDB">
<polygon fill="#ffffff" stroke="#000000" points="203,-251 203,-270 313,-270 313,-251 203,-251"/>
<text text-anchor="middle" x="258" y="-258" font-family="Helvetica,sans-Serif" font-size="10.00" fill="#000000">CVerifyDB::VerifyDB</text>
</a>
</g>
</g>
<!-- Node27&#45;&gt;Node36 -->
<g id="edge9" class="edge">
<title>Node27&#45;&gt;Node36</title>
<path fill="none" stroke="#191970" d="M128.4782,-286.8905C155.0028,-281.486 186.1657,-275.1365 211.2766,-270.0201"/>
<polygon fill="#191970" stroke="#191970" points="127.6617,-283.4849 118.5618,-288.911 129.0593,-290.3439 127.6617,-283.4849"/>
</g>
<!-- Node37 -->
<g id="node11" class="node">
<title>Node37</title>
<g id="a_node11"><a xlink:href="validation_8h.html#ad16a624dfed17bddcd0901c6d32212ab" target="_top" xlink:title="Replay blocks that aren&#39;t fully applied to the database. ">
<polygon fill="#ffffff" stroke="#000000" points="219.5,-213 219.5,-232 296.5,-232 296.5,-213 219.5,-213"/>
<text text-anchor="middle" x="258" y="-220" font-family="Helvetica,sans-Serif" font-size="10.00" fill="#000000">ReplayBlocks</text>
</a>
</g>
</g>
<!-- Node27&#45;&gt;Node37 -->
<g id="edge10" class="edge">
<title>Node27&#45;&gt;Node37</title>
<path fill="none" stroke="#191970" d="M95.2563,-283.6593C116.5147,-270.933 148.8821,-252.8978 179,-241.5 191.7974,-236.657 206.2388,-232.7562 219.2411,-229.779"/>
<polygon fill="#191970" stroke="#191970" points="93.3221,-280.739 86.5919,-288.9216 96.9559,-286.722 93.3221,-280.739"/>
</g>
<!-- Node38 -->
<g id="node12" class="node">
<title>Node38</title>
<g id="a_node12"><a xlink:href="rpcwallet_8cpp.html#aec8812106a8f22a37c1b81b202e8c897" target="_top" xlink:title="listsinceblock">
<polygon fill="#ffffff" stroke="#000000" points="220,-175 220,-194 296,-194 296,-175 220,-175"/>
<text text-anchor="middle" x="258" y="-182" font-family="Helvetica,sans-Serif" font-size="10.00" fill="#000000">listsinceblock</text>
</a>
</g>
</g>
<!-- Node27&#45;&gt;Node38 -->
<g id="edge11" class="edge">
<title>Node27&#45;&gt;Node38</title>
<path fill="none" stroke="#191970" d="M86.3031,-280.9715C105.4738,-259.4261 140.9668,-223.295 179,-203.5 191.513,-196.9874 206.3047,-192.6636 219.6855,-189.8123"/>
<polygon fill="#191970" stroke="#191970" points="83.493,-278.8688 79.5638,-288.7082 88.7713,-283.4667 83.493,-278.8688"/>
</g>
<!-- Node39 -->
<g id="node13" class="node">
<title>Node39</title>
<g id="a_node13"><a xlink:href="group__map_wallet.html#gaaff18c86fed4579e64d5431a402d4a40" target="_top" xlink:title="Add a transaction to the wallet, or update it. ">
<polygon fill="#ffffff" stroke="#000000" points="373,-118 373,-137 546,-137 546,-118 373,-118"/>
<text text-anchor="middle" x="459.5" y="-125" font-family="Helvetica,sans-Serif" font-size="10.00" fill="#000000">CWallet::AddToWalletIfInvolvingMe</text>
</a>
</g>
</g>
<!-- Node27&#45;&gt;Node39 -->
<g id="edge12" class="edge">
<title>Node27&#45;&gt;Node39</title>
<path fill="none" stroke="#191970" d="M80.6561,-279.7403C96.2834,-249.9541 131.12,-192.4611 179,-165.5 211.3296,-147.2953 303.1107,-137.3457 372.9612,-132.2464"/>
<polygon fill="#191970" stroke="#191970" points="77.5152,-278.1953 76.1017,-288.6955 83.7547,-281.3686 77.5152,-278.1953"/>
</g>
<!-- Node40 -->
<g id="node14" class="node">
<title>Node40</title>
<g id="a_node14"><a xlink:href="class_c_merkle_tx.html#adbb1594ba8678ec9f156e4559ba0e0e0" target="_top" xlink:title="CMerkleTx::SetMerkleBranch">
<polygon fill="#ffffff" stroke="#000000" points="185,-99 185,-118 331,-118 331,-99 185,-99"/>
<text text-anchor="middle" x="258" y="-106" font-family="Helvetica,sans-Serif" font-size="10.00" fill="#000000">CMerkleTx::SetMerkleBranch</text>
</a>
</g>
</g>
<!-- Node27&#45;&gt;Node40 -->
<g id="edge13" class="edge">
<title>Node27&#45;&gt;Node40</title>
<path fill="none" stroke="#191970" d="M78.5927,-279.5783C92.4804,-245.1072 126.5563,-171.999 179,-132.5 187.3584,-126.2047 197.3738,-121.5481 207.4214,-118.1076"/>
<polygon fill="#191970" stroke="#191970" points="75.3082,-278.3675 74.9329,-288.9557 81.8291,-280.9126 75.3082,-278.3675"/>
</g>
<!-- Node41 -->
<g id="node15" class="node">
<title>Node41</title>
<g id="a_node15"><a xlink:href="class_c_z_m_q_publish_hash_block_notifier.html#ae55bb8b55b8f61339acbf6225b757d27" target="_top" xlink:title="CZMQPublishHashBlockNotifier\l::NotifyBlock">
<polygon fill="#ffffff" stroke="#000000" points="179,-49.5 179,-79.5 337,-79.5 337,-49.5 179,-49.5"/>
<text text-anchor="start" x="187" y="-67.5" font-family="Helvetica,sans-Serif" font-size="10.00" fill="#000000">CZMQPublishHashBlockNotifier</text>
<text text-anchor="middle" x="258" y="-56.5" font-family="Helvetica,sans-Serif" font-size="10.00" fill="#000000">::NotifyBlock</text>
</a>
</g>
</g>
<!-- Node27&#45;&gt;Node41 -->
<g id="edge15" class="edge">
<title>Node27&#45;&gt;Node41</title>
<path fill="none" stroke="#191970" d="M76.07,-279.1146C86.7631,-238.0024 117.3098,-141.5779 179,-89.5 183.6168,-85.6025 188.8452,-82.311 194.3601,-79.5315"/>
<polygon fill="#191970" stroke="#191970" points="72.6407,-278.4015 73.6208,-288.9509 79.4333,-280.0929 72.6407,-278.4015"/>
</g>
<!-- Node42 -->
<g id="node16" class="node">
<title>Node42</title>
<g id="a_node16"><a xlink:href="class_c_z_m_q_publish_raw_block_notifier.html#ab97fec1e14be818d03022f9271b9443c" target="_top" xlink:title="CZMQPublishRawBlockNotifier\l::NotifyBlock">
<polygon fill="#ffffff" stroke="#000000" points="180.5,-.5 180.5,-30.5 335.5,-30.5 335.5,-.5 180.5,-.5"/>
<text text-anchor="start" x="188.5" y="-18.5" font-family="Helvetica,sans-Serif" font-size="10.00" fill="#000000">CZMQPublishRawBlockNotifier</text>
<text text-anchor="middle" x="258" y="-7.5" font-family="Helvetica,sans-Serif" font-size="10.00" fill="#000000">::NotifyBlock</text>
</a>
</g>
</g>
<!-- Node27&#45;&gt;Node42 -->
<g id="edge16" class="edge">
<title>Node27&#45;&gt;Node42</title>
<path fill="none" stroke="#191970" d="M74.0008,-278.932C81.1533,-231.0864 106.0999,-107.2309 179,-40.5 183.2445,-36.6147 188.0913,-33.3332 193.2486,-30.5617"/>
<polygon fill="#191970" stroke="#191970" points="70.5248,-278.5171 72.6081,-288.9051 77.4576,-279.4853 70.5248,-278.5171"/>
</g>
<!-- Node40&#45;&gt;Node39 -->
<g id="edge14" class="edge">
<title>Node40&#45;&gt;Node39</title>
<path fill="none" stroke="#191970" d="M341.286,-116.3533C351.6426,-117.3298 362.253,-118.3303 372.6616,-119.3118"/>
<polygon fill="#191970" stroke="#191970" points="341.3155,-112.8406 331.031,-115.3863 340.6583,-119.8097 341.3155,-112.8406"/>
</g>
</g>
</svg>
