<?xml version="1.0" encoding="UTF-8" standalone="no"?>
<!DOCTYPE svg PUBLIC "-//W3C//DTD SVG 1.1//EN"
 "http://www.w3.org/Graphics/SVG/1.1/DTD/svg11.dtd">
<!-- Generated by graphviz version 2.40.1 (20161225.0304)
 -->
<!-- Title: WalletFrame::gotoReceiveCoinsPage Pages: 1 -->
<svg width="646pt" height="39pt"
 viewBox="0.00 0.00 646.00 39.00" xmlns="http://www.w3.org/2000/svg" xmlns:xlink="http://www.w3.org/1999/xlink">
<g id="graph0" class="graph" transform="scale(1 1) rotate(0) translate(4 35)">
<title>WalletFrame::gotoReceiveCoinsPage</title>
<polygon fill="#ffffff" stroke="transparent" points="-4,4 -4,-35 642,-35 642,4 -4,4"/>
<!-- Node413 -->
<g id="node1" class="node">
<title>Node413</title>
<polygon fill="#bfbfbf" stroke="#000000" points="0,-.5 0,-30.5 133,-30.5 133,-.5 0,-.5"/>
<text text-anchor="start" x="8" y="-18.5" font-family="Helvetica,sans-Serif" font-size="10.00" fill="#000000">WalletFrame::gotoReceive</text>
<text text-anchor="middle" x="66.5" y="-7.5" font-family="Helvetica,sans-Serif" font-size="10.00" fill="#000000">CoinsPage</text>
</g>
<!-- Node414 -->
<g id="node2" class="node">
<title>Node414</title>
<g id="a_node2"><a xlink:href="class_raven_g_u_i.html#ae7206842e6ed9672aad4da7dc841f5f1" target="_top" xlink:title="Show help message dialog. ">
<polygon fill="#ffffff" stroke="#000000" points="169,-.5 169,-30.5 321,-30.5 321,-.5 169,-.5"/>
<text text-anchor="start" x="177" y="-18.5" font-family="Helvetica,sans-Serif" font-size="10.00" fill="#000000">RavenGUI::showHelpMessage</text>
<text text-anchor="middle" x="245" y="-7.5" font-family="Helvetica,sans-Serif" font-size="10.00" fill="#000000">Clicked</text>
</a>
</g>
</g>
<!-- Node413&#45;&gt;Node414 -->
<g id="edge1" class="edge">
<title>Node413&#45;&gt;Node414</title>
<path fill="none" stroke="#191970" d="M143.383,-15.5C151.7919,-15.5 160.3501,-15.5 168.7513,-15.5"/>
<polygon fill="#191970" stroke="#191970" points="143.2207,-12.0001 133.2206,-15.5 143.2206,-19.0001 143.2207,-12.0001"/>
</g>
<!-- Node415 -->
<g id="node3" class="node">
<title>Node415</title>
<g id="a_node3"><a xlink:href="class_raven_g_u_i.html#a6e65b4f2b8a82b4ab99b77fe9d43a500" target="_top" xlink:title="Create the main UI actions. ">
<polygon fill="#ffffff" stroke="#000000" points="357,-6 357,-25 486,-25 486,-6 357,-6"/>
<text text-anchor="middle" x="421.5" y="-13" font-family="Helvetica,sans-Serif" font-size="10.00" fill="#000000">RavenGUI::createActions</text>
</a>
</g>
</g>
<!-- Node414&#45;&gt;Node415 -->
<g id="edge2" class="edge">
<title>Node414&#45;&gt;Node415</title>
<path fill="none" stroke="#191970" d="M331.2606,-15.5C339.9152,-15.5 348.5953,-15.5 356.9677,-15.5"/>
<polygon fill="#191970" stroke="#191970" points="331.1326,-12.0001 321.1325,-15.5 331.1325,-19.0001 331.1326,-12.0001"/>
</g>
<!-- Node416 -->
<g id="node4" class="node">
<title>Node416</title>
<g id="a_node4"><a xlink:href="class_raven_g_u_i.html#af82cbe028fc29d0ea71074eced806071" target="_top" xlink:title="RavenGUI::RavenGUI">
<polygon fill="#ffffff" stroke="#000000" points="522,-6 522,-25 638,-25 638,-6 522,-6"/>
<text text-anchor="middle" x="580" y="-13" font-family="Helvetica,sans-Serif" font-size="10.00" fill="#000000">RavenGUI::RavenGUI</text>
</a>
</g>
</g>
<!-- Node415&#45;&gt;Node416 -->
<g id="edge3" class="edge">
<title>Node415&#45;&gt;Node416</title>
<path fill="none" stroke="#191970" d="M496.6646,-15.5C505.1053,-15.5 513.608,-15.5 521.7883,-15.5"/>
<polygon fill="#191970" stroke="#191970" points="496.4254,-12.0001 486.4253,-15.5 496.4253,-19.0001 496.4254,-12.0001"/>
</g>
</g>
</svg>
