<?xml version="1.0" encoding="UTF-8" standalone="no"?>
<!DOCTYPE svg PUBLIC "-//W3C//DTD SVG 1.1//EN"
 "http://www.w3.org/Graphics/SVG/1.1/DTD/svg11.dtd">
<!-- Generated by graphviz version 2.40.1 (20161225.0304)
 -->
<!-- Title: CMessageDB::WriteFlag Pages: 1 -->
<svg width="554pt" height="28pt"
 viewBox="0.00 0.00 554.00 28.00" xmlns="http://www.w3.org/2000/svg" xmlns:xlink="http://www.w3.org/1999/xlink">
<g id="graph0" class="graph" transform="scale(1 1) rotate(0) translate(4 24)">
<title>CMessageDB::WriteFlag</title>
<polygon fill="#ffffff" stroke="transparent" points="-4,4 -4,-24 550,-24 550,4 -4,4"/>
<!-- Node72 -->
<g id="node1" class="node">
<title>Node72</title>
<polygon fill="#bfbfbf" stroke="#000000" points="0,-.5 0,-19.5 126,-19.5 126,-.5 0,-.5"/>
<text text-anchor="middle" x="63" y="-7.5" font-family="Helvetica,sans-Serif" font-size="10.00" fill="#000000">CMessageDB::WriteFlag</text>
</g>
<!-- Node73 -->
<g id="node2" class="node">
<title>Node73</title>
<g id="a_node2"><a xlink:href="class_c_d_b_wrapper.html#a6600aa8c2b30880dd7e032ea21f74aed" target="_top" xlink:title="CDBWrapper::Write">
<polygon fill="#ffffff" stroke="#000000" points="162,-.5 162,-19.5 266,-19.5 266,-.5 162,-.5"/>
<text text-anchor="middle" x="214" y="-7.5" font-family="Helvetica,sans-Serif" font-size="10.00" fill="#000000">CDBWrapper::Write</text>
</a>
</g>
</g>
<!-- Node72&#45;&gt;Node73 -->
<g id="edge1" class="edge">
<title>Node72&#45;&gt;Node73</title>
<path fill="none" stroke="#191970" d="M126.1627,-10C134.5511,-10 143.1485,-10 151.5252,-10"/>
<polygon fill="#191970" stroke="#191970" points="151.6047,-13.5001 161.6047,-10 151.6047,-6.5001 151.6047,-13.5001"/>
</g>
<!-- Node74 -->
<g id="node3" class="node">
<title>Node74</title>
<g id="a_node3"><a xlink:href="class_c_d_b_batch.html#a91b5d889a8d7e56c4f0bbf446e246111" target="_top" xlink:title="CDBBatch::Write">
<polygon fill="#ffffff" stroke="#000000" points="302,-.5 302,-19.5 395,-19.5 395,-.5 302,-.5"/>
<text text-anchor="middle" x="348.5" y="-7.5" font-family="Helvetica,sans-Serif" font-size="10.00" fill="#000000">CDBBatch::Write</text>
</a>
</g>
</g>
<!-- Node73&#45;&gt;Node74 -->
<g id="edge2" class="edge">
<title>Node73&#45;&gt;Node74</title>
<path fill="none" stroke="#191970" d="M266.0012,-10C274.4099,-10 283.1543,-10 291.6703,-10"/>
<polygon fill="#191970" stroke="#191970" points="291.9066,-13.5001 301.9066,-10 291.9066,-6.5001 291.9066,-13.5001"/>
</g>
<!-- Node75 -->
<g id="node4" class="node">
<title>Node75</title>
<g id="a_node4"><a xlink:href="class_c_data_stream.html#a5542e71bd7af2ab7cd7be0f381d39cb5" target="_top" xlink:title="CDataStream::reserve">
<polygon fill="#ffffff" stroke="#000000" points="431,-.5 431,-19.5 546,-19.5 546,-.5 431,-.5"/>
<text text-anchor="middle" x="488.5" y="-7.5" font-family="Helvetica,sans-Serif" font-size="10.00" fill="#000000">CDataStream::reserve</text>
</a>
</g>
</g>
<!-- Node74&#45;&gt;Node75 -->
<g id="edge3" class="edge">
<title>Node74&#45;&gt;Node75</title>
<path fill="none" stroke="#191970" d="M395.118,-10C403.3507,-10 412.0709,-10 420.7451,-10"/>
<polygon fill="#191970" stroke="#191970" points="420.8748,-13.5001 430.8748,-10 420.8747,-6.5001 420.8748,-13.5001"/>
</g>
</g>
</svg>
