<?xml version="1.0" encoding="UTF-8" standalone="no"?>
<!DOCTYPE svg PUBLIC "-//W3C//DTD SVG 1.1//EN"
 "http://www.w3.org/Graphics/SVG/1.1/DTD/svg11.dtd">
<!-- Generated by graphviz version 2.40.1 (20161225.0304)
 -->
<!-- Title: AssetsDialog::setMinimumFee Pages: 1 -->
<svg width="439pt" height="66pt"
 viewBox="0.00 0.00 439.00 66.00" xmlns="http://www.w3.org/2000/svg" xmlns:xlink="http://www.w3.org/1999/xlink">
<g id="graph0" class="graph" transform="scale(1 1) rotate(0) translate(4 62)">
<title>AssetsDialog::setMinimumFee</title>
<polygon fill="#ffffff" stroke="transparent" points="-4,4 -4,-62 435,-62 435,4 -4,4"/>
<!-- Node2472 -->
<g id="node1" class="node">
<title>Node2472</title>
<polygon fill="#bfbfbf" stroke="#000000" points="0,-19.5 0,-38.5 151,-38.5 151,-19.5 0,-19.5"/>
<text text-anchor="middle" x="75.5" y="-26.5" font-family="Helvetica,sans-Serif" font-size="10.00" fill="#000000">AssetsDialog::setMinimumFee</text>
</g>
<!-- Node2473 -->
<g id="node2" class="node">
<title>Node2473</title>
<g id="a_node2"><a xlink:href="wallet_2fees_8cpp.html#a506203ce29cebfc014fe8a48f5b05606" target="_top" xlink:title="Return the minimum required fee taking into account the floating relay fee and user set minimum trans...">
<polygon fill="#ffffff" stroke="#000000" points="187,-19.5 187,-38.5 275,-38.5 275,-19.5 187,-19.5"/>
<text text-anchor="middle" x="231" y="-26.5" font-family="Helvetica,sans-Serif" font-size="10.00" fill="#000000">GetRequiredFee</text>
</a>
</g>
</g>
<!-- Node2472&#45;&gt;Node2473 -->
<g id="edge1" class="edge">
<title>Node2472&#45;&gt;Node2473</title>
<path fill="none" stroke="#191970" d="M151.4279,-29C159.9927,-29 168.587,-29 176.7948,-29"/>
<polygon fill="#191970" stroke="#191970" points="176.9533,-32.5001 186.9532,-29 176.9532,-25.5001 176.9533,-32.5001"/>
</g>
<!-- Node2474 -->
<g id="node3" class="node">
<title>Node2474</title>
<g id="a_node3"><a xlink:href="validation_8cpp.html#a149d069990401daec0d9fef9f81c1c74" target="_top" xlink:title="AreMessagingDeployed">
<polygon fill="#ffffff" stroke="#000000" points="311,-38.5 311,-57.5 431,-57.5 431,-38.5 311,-38.5"/>
<text text-anchor="middle" x="371" y="-45.5" font-family="Helvetica,sans-Serif" font-size="10.00" fill="#000000">AreMessagingDeployed</text>
</a>
</g>
</g>
<!-- Node2473&#45;&gt;Node2474 -->
<g id="edge2" class="edge">
<title>Node2473&#45;&gt;Node2474</title>
<path fill="none" stroke="#191970" d="M275.2969,-35.0117C283.4154,-36.1135 292.0695,-37.288 300.7292,-38.4633"/>
<polygon fill="#191970" stroke="#191970" points="300.4859,-41.9622 310.8657,-39.8389 301.4273,-35.0258 300.4859,-41.9622"/>
</g>
<!-- Node2475 -->
<g id="node4" class="node">
<title>Node2475</title>
<g id="a_node4"><a xlink:href="class_c_fee_rate.html#a1173705aceba99303d6485d1c2f3f9a8" target="_top" xlink:title="Return the fee in satoshis for the given size in bytes. ">
<polygon fill="#ffffff" stroke="#000000" points="321,-.5 321,-19.5 421,-19.5 421,-.5 321,-.5"/>
<text text-anchor="middle" x="371" y="-7.5" font-family="Helvetica,sans-Serif" font-size="10.00" fill="#000000">CFeeRate::GetFee</text>
</a>
</g>
</g>
<!-- Node2473&#45;&gt;Node2475 -->
<g id="edge3" class="edge">
<title>Node2473&#45;&gt;Node2475</title>
<path fill="none" stroke="#191970" d="M275.2969,-22.9883C286.4495,-21.4747 298.613,-19.824 310.413,-18.2225"/>
<polygon fill="#191970" stroke="#191970" points="311.2161,-21.6457 320.6546,-16.8326 310.2747,-14.7093 311.2161,-21.6457"/>
</g>
</g>
</svg>
