<?xml version="1.0" encoding="UTF-8" standalone="no"?>
<!DOCTYPE svg PUBLIC "-//W3C//DTD SVG 1.1//EN"
 "http://www.w3.org/Graphics/SVG/1.1/DTD/svg11.dtd">
<!-- Generated by graphviz version 2.40.1 (20161225.0304)
 -->
<!-- Title: CreateAssetDialog::feeControlFeatureChanged Pages: 1 -->
<svg width="1309pt" height="88pt"
 viewBox="0.00 0.00 1309.00 88.00" xmlns="http://www.w3.org/2000/svg" xmlns:xlink="http://www.w3.org/1999/xlink">
<g id="graph0" class="graph" transform="scale(1 1) rotate(0) translate(4 84)">
<title>CreateAssetDialog::feeControlFeatureChanged</title>
<polygon fill="#ffffff" stroke="transparent" points="-4,4 -4,-84 1305,-84 1305,4 -4,4"/>
<!-- Node665 -->
<g id="node1" class="node">
<title>Node665</title>
<polygon fill="#bfbfbf" stroke="#000000" points="0,-27.5 0,-57.5 134,-57.5 134,-27.5 0,-27.5"/>
<text text-anchor="start" x="8" y="-45.5" font-family="Helvetica,sans-Serif" font-size="10.00" fill="#000000">CreateAssetDialog::</text>
<text text-anchor="middle" x="67" y="-34.5" font-family="Helvetica,sans-Serif" font-size="10.00" fill="#000000">feeControlFeatureChanged</text>
</g>
<!-- Node666 -->
<g id="node2" class="node">
<title>Node666</title>
<g id="a_node2"><a xlink:href="class_create_asset_dialog.html#affceaf7b5ffeeda6f20ecb354ff4e7f8" target="_top" xlink:title="CreateAssetDialog::\lsetModel">
<polygon fill="#ffffff" stroke="#000000" points="170,-27.5 170,-57.5 275,-57.5 275,-27.5 170,-27.5"/>
<text text-anchor="start" x="178" y="-45.5" font-family="Helvetica,sans-Serif" font-size="10.00" fill="#000000">CreateAssetDialog::</text>
<text text-anchor="middle" x="222.5" y="-34.5" font-family="Helvetica,sans-Serif" font-size="10.00" fill="#000000">setModel</text>
</a>
</g>
</g>
<!-- Node665&#45;&gt;Node666 -->
<g id="edge1" class="edge">
<title>Node665&#45;&gt;Node666</title>
<path fill="none" stroke="#191970" d="M144.326,-42.5C152.8905,-42.5 161.4618,-42.5 169.6242,-42.5"/>
<polygon fill="#191970" stroke="#191970" points="144.3002,-39.0001 134.3002,-42.5 144.3001,-46.0001 144.3002,-39.0001"/>
</g>
<!-- Node667 -->
<g id="node3" class="node">
<title>Node667</title>
<g id="a_node3"><a xlink:href="class_wallet_view.html#a0a37ff693a4f9c1e5ddc23f9cd3913be" target="_top" xlink:title="Set the wallet model. ">
<polygon fill="#ffffff" stroke="#000000" points="311,-33 311,-52 451,-52 451,-33 311,-33"/>
<text text-anchor="middle" x="381" y="-40" font-family="Helvetica,sans-Serif" font-size="10.00" fill="#000000">WalletView::setWalletModel</text>
</a>
</g>
</g>
<!-- Node666&#45;&gt;Node667 -->
<g id="edge2" class="edge">
<title>Node666&#45;&gt;Node667</title>
<path fill="none" stroke="#191970" d="M285.3775,-42.5C293.7837,-42.5 302.4468,-42.5 310.9659,-42.5"/>
<polygon fill="#191970" stroke="#191970" points="285.2782,-39.0001 275.2782,-42.5 285.2782,-46.0001 285.2782,-39.0001"/>
</g>
<!-- Node668 -->
<g id="node4" class="node">
<title>Node668</title>
<g id="a_node4"><a xlink:href="class_wallet_frame.html#aa199c3f27654199d84c365cf86167d86" target="_top" xlink:title="WalletFrame::addWallet">
<polygon fill="#ffffff" stroke="#000000" points="487,-33 487,-52 609,-52 609,-33 487,-33"/>
<text text-anchor="middle" x="548" y="-40" font-family="Helvetica,sans-Serif" font-size="10.00" fill="#000000">WalletFrame::addWallet</text>
</a>
</g>
</g>
<!-- Node667&#45;&gt;Node668 -->
<g id="edge3" class="edge">
<title>Node667&#45;&gt;Node668</title>
<path fill="none" stroke="#191970" d="M461.6091,-42.5C470.064,-42.5 478.5584,-42.5 486.7451,-42.5"/>
<polygon fill="#191970" stroke="#191970" points="461.3391,-39.0001 451.339,-42.5 461.339,-46.0001 461.3391,-39.0001"/>
</g>
<!-- Node669 -->
<g id="node5" class="node">
<title>Node669</title>
<g id="a_node5"><a xlink:href="class_raven_g_u_i.html#a174a3e75c334c5930d3261a2955c3725" target="_top" xlink:title="Set the client model. ">
<polygon fill="#ffffff" stroke="#000000" points="645,-33 645,-52 779,-52 779,-33 645,-33"/>
<text text-anchor="middle" x="712" y="-40" font-family="Helvetica,sans-Serif" font-size="10.00" fill="#000000">RavenGUI::setClientModel</text>
</a>
</g>
</g>
<!-- Node668&#45;&gt;Node669 -->
<g id="edge4" class="edge">
<title>Node668&#45;&gt;Node669</title>
<path fill="none" stroke="#191970" d="M619.303,-42.5C627.7776,-42.5 636.4074,-42.5 644.8217,-42.5"/>
<polygon fill="#191970" stroke="#191970" points="619.0676,-39.0001 609.0675,-42.5 619.0675,-46.0001 619.0676,-39.0001"/>
</g>
<!-- Node670 -->
<g id="node6" class="node">
<title>Node670</title>
<g id="a_node6"><a xlink:href="class_raven_application.html#a60123f611cc210870fa67974cb2c804c" target="_top" xlink:title="Request core shutdown. ">
<polygon fill="#ffffff" stroke="#000000" points="1170,-49.5 1170,-79.5 1301,-79.5 1301,-49.5 1170,-49.5"/>
<text text-anchor="start" x="1178" y="-67.5" font-family="Helvetica,sans-Serif" font-size="10.00" fill="#000000">RavenApplication::request</text>
<text text-anchor="middle" x="1235.5" y="-56.5" font-family="Helvetica,sans-Serif" font-size="10.00" fill="#000000">Shutdown</text>
</a>
</g>
</g>
<!-- Node669&#45;&gt;Node670 -->
<g id="edge5" class="edge">
<title>Node669&#45;&gt;Node670</title>
<path fill="none" stroke="#191970" d="M789.1333,-45.7415C892.2203,-50.0737 1073.1346,-57.6766 1169.9629,-61.7458"/>
<polygon fill="#191970" stroke="#191970" points="789.238,-42.2429 779.0999,-45.3199 788.944,-49.2367 789.238,-42.2429"/>
</g>
<!-- Node671 -->
<g id="node7" class="node">
<title>Node671</title>
<g id="a_node7"><a xlink:href="class_raven_application.html#a1a3dcf33ba44507984b2a04e7ebf1542" target="_top" xlink:title="RavenApplication::initialize\lResult">
<polygon fill="#ffffff" stroke="#000000" points="815,-5.5 815,-35.5 949,-35.5 949,-5.5 815,-5.5"/>
<text text-anchor="start" x="823" y="-23.5" font-family="Helvetica,sans-Serif" font-size="10.00" fill="#000000">RavenApplication::initialize</text>
<text text-anchor="middle" x="882" y="-12.5" font-family="Helvetica,sans-Serif" font-size="10.00" fill="#000000">Result</text>
</a>
</g>
</g>
<!-- Node669&#45;&gt;Node671 -->
<g id="edge6" class="edge">
<title>Node669&#45;&gt;Node671</title>
<path fill="none" stroke="#191970" d="M789.146,-32.5164C797.6879,-31.411 806.3366,-30.2917 814.7428,-29.2039"/>
<polygon fill="#191970" stroke="#191970" points="788.6566,-29.0505 779.1885,-33.805 789.555,-35.9926 788.6566,-29.0505"/>
</g>
<!-- Node672 -->
<g id="node8" class="node">
<title>Node672</title>
<g id="a_node8"><a xlink:href="class_raven_application.html#aecfdce3a245b959def5dd35e5cfb192e" target="_top" xlink:title="RavenApplication::startThread">
<polygon fill="#ffffff" stroke="#000000" points="985,-11 985,-30 1134,-30 1134,-11 985,-11"/>
<text text-anchor="middle" x="1059.5" y="-18" font-family="Helvetica,sans-Serif" font-size="10.00" fill="#000000">RavenApplication::startThread</text>
</a>
</g>
</g>
<!-- Node671&#45;&gt;Node672 -->
<g id="edge7" class="edge">
<title>Node671&#45;&gt;Node672</title>
<path fill="none" stroke="#191970" d="M959.3486,-20.5C967.821,-20.5 976.4344,-20.5 984.873,-20.5"/>
<polygon fill="#191970" stroke="#191970" points="959.1052,-17.0001 949.1051,-20.5 959.1051,-24.0001 959.1052,-17.0001"/>
</g>
<!-- Node672&#45;&gt;Node670 -->
<g id="edge9" class="edge">
<title>Node672&#45;&gt;Node670</title>
<path fill="none" stroke="#191970" d="M1107.6046,-32.5261C1128.4811,-37.7453 1153.1576,-43.9144 1175.2385,-49.4346"/>
<polygon fill="#191970" stroke="#191970" points="1108.2397,-29.0773 1097.6894,-30.0473 1106.5419,-35.8683 1108.2397,-29.0773"/>
</g>
<!-- Node673 -->
<g id="node9" class="node">
<title>Node673</title>
<g id="a_node9"><a xlink:href="class_raven_application.html#a63a2032fef875fb81f26c212f69d000d" target="_top" xlink:title="Request core initialization. ">
<polygon fill="#ffffff" stroke="#000000" points="1170,-.5 1170,-30.5 1301,-30.5 1301,-.5 1170,-.5"/>
<text text-anchor="start" x="1178" y="-18.5" font-family="Helvetica,sans-Serif" font-size="10.00" fill="#000000">RavenApplication::request</text>
<text text-anchor="middle" x="1235.5" y="-7.5" font-family="Helvetica,sans-Serif" font-size="10.00" fill="#000000">Initialize</text>
</a>
</g>
</g>
<!-- Node672&#45;&gt;Node673 -->
<g id="edge8" class="edge">
<title>Node672&#45;&gt;Node673</title>
<path fill="none" stroke="#191970" d="M1144.2384,-18.0927C1152.8743,-17.8473 1161.5522,-17.6008 1169.9387,-17.3625"/>
<polygon fill="#191970" stroke="#191970" points="1144.0364,-14.5969 1134.1398,-18.3795 1144.2352,-21.5941 1144.0364,-14.5969"/>
</g>
</g>
</svg>
