<?xml version="1.0" encoding="UTF-8" standalone="no"?>
<!DOCTYPE svg PUBLIC "-//W3C//DTD SVG 1.1//EN"
 "http://www.w3.org/Graphics/SVG/1.1/DTD/svg11.dtd">
<!-- Generated by graphviz version 2.40.1 (20161225.0304)
 -->
<!-- Title: CWalletDB::FindWalletTx Pages: 1 -->
<svg width="717pt" height="66pt"
 viewBox="0.00 0.00 717.00 66.00" xmlns="http://www.w3.org/2000/svg" xmlns:xlink="http://www.w3.org/1999/xlink">
<g id="graph0" class="graph" transform="scale(1 1) rotate(0) translate(4 62)">
<title>CWalletDB::FindWalletTx</title>
<polygon fill="#ffffff" stroke="transparent" points="-4,4 -4,-62 713,-62 713,4 -4,4"/>
<!-- Node60 -->
<g id="node1" class="node">
<title>Node60</title>
<polygon fill="#bfbfbf" stroke="#000000" points="0,-19.5 0,-38.5 130,-38.5 130,-19.5 0,-19.5"/>
<text text-anchor="middle" x="65" y="-26.5" font-family="Helvetica,sans-Serif" font-size="10.00" fill="#000000">CWalletDB::FindWalletTx</text>
</g>
<!-- Node61 -->
<g id="node2" class="node">
<title>Node61</title>
<g id="a_node2"><a xlink:href="class_c_wallet_d_b.html#ac83c75bb46cc6dff3d325b5a1d7f6338" target="_top" xlink:title="CWalletDB::ZapSelectTx">
<polygon fill="#ffffff" stroke="#000000" points="166,-38.5 166,-57.5 294,-57.5 294,-38.5 166,-38.5"/>
<text text-anchor="middle" x="230" y="-45.5" font-family="Helvetica,sans-Serif" font-size="10.00" fill="#000000">CWalletDB::ZapSelectTx</text>
</a>
</g>
</g>
<!-- Node60&#45;&gt;Node61 -->
<g id="edge1" class="edge">
<title>Node60&#45;&gt;Node61</title>
<path fill="none" stroke="#191970" d="M140.1861,-37.6578C148.7425,-38.6431 157.4048,-39.6405 165.8007,-40.6074"/>
<polygon fill="#191970" stroke="#191970" points="140.5471,-34.1763 130.2124,-36.5093 139.7463,-41.1304 140.5471,-34.1763"/>
</g>
<!-- Node65 -->
<g id="node6" class="node">
<title>Node65</title>
<g id="a_node6"><a xlink:href="class_c_wallet_d_b.html#a05d6694fd2f244f18e2fcec83d2eedb1" target="_top" xlink:title="CWalletDB::ZapWalletTx">
<polygon fill="#ffffff" stroke="#000000" points="166,-.5 166,-19.5 294,-19.5 294,-.5 166,-.5"/>
<text text-anchor="middle" x="230" y="-7.5" font-family="Helvetica,sans-Serif" font-size="10.00" fill="#000000">CWalletDB::ZapWalletTx</text>
</a>
</g>
</g>
<!-- Node60&#45;&gt;Node65 -->
<g id="edge5" class="edge">
<title>Node60&#45;&gt;Node65</title>
<path fill="none" stroke="#191970" d="M140.1861,-20.3422C148.7425,-19.3569 157.4048,-18.3595 165.8007,-17.3926"/>
<polygon fill="#191970" stroke="#191970" points="139.7463,-16.8696 130.2124,-21.4907 140.5471,-23.8237 139.7463,-16.8696"/>
</g>
<!-- Node62 -->
<g id="node3" class="node">
<title>Node62</title>
<g id="a_node3"><a xlink:href="group___actions.html#ga42dbc5dd23b06ef48d4a2434036c18b0" target="_top" xlink:title="CWallet::ZapSelectTx">
<polygon fill="#ffffff" stroke="#000000" points="330,-38.5 330,-57.5 443,-57.5 443,-38.5 330,-38.5"/>
<text text-anchor="middle" x="386.5" y="-45.5" font-family="Helvetica,sans-Serif" font-size="10.00" fill="#000000">CWallet::ZapSelectTx</text>
</a>
</g>
</g>
<!-- Node61&#45;&gt;Node62 -->
<g id="edge2" class="edge">
<title>Node61&#45;&gt;Node62</title>
<path fill="none" stroke="#191970" d="M304.158,-48C312.768,-48 321.4443,-48 329.7683,-48"/>
<polygon fill="#191970" stroke="#191970" points="304.1061,-44.5001 294.1061,-48 304.1061,-51.5001 304.1061,-44.5001"/>
</g>
<!-- Node63 -->
<g id="node4" class="node">
<title>Node63</title>
<g id="a_node4"><a xlink:href="rpcwallet_8cpp.html#a85478b0b9837a3e5467dce66fcb5ffb0" target="_top" xlink:title="removeprunedfunds">
<polygon fill="#ffffff" stroke="#000000" points="479,-38.5 479,-57.5 581,-57.5 581,-38.5 479,-38.5"/>
<text text-anchor="middle" x="530" y="-45.5" font-family="Helvetica,sans-Serif" font-size="10.00" fill="#000000">removeprunedfunds</text>
</a>
</g>
</g>
<!-- Node62&#45;&gt;Node63 -->
<g id="edge3" class="edge">
<title>Node62&#45;&gt;Node63</title>
<path fill="none" stroke="#191970" d="M453.234,-48C461.8318,-48 470.5261,-48 478.8199,-48"/>
<polygon fill="#191970" stroke="#191970" points="453.215,-44.5001 443.215,-48 453.215,-51.5001 453.215,-44.5001"/>
</g>
<!-- Node64 -->
<g id="node5" class="node">
<title>Node64</title>
<g id="a_node5"><a xlink:href="rpcwallet_8cpp.html#a151535abf7394b299deb8d0a333de70b" target="_top" xlink:title="rescanblockchain">
<polygon fill="#ffffff" stroke="#000000" points="617,-38.5 617,-57.5 709,-57.5 709,-38.5 617,-38.5"/>
<text text-anchor="middle" x="663" y="-45.5" font-family="Helvetica,sans-Serif" font-size="10.00" fill="#000000">rescanblockchain</text>
</a>
</g>
</g>
<!-- Node63&#45;&gt;Node64 -->
<g id="edge4" class="edge">
<title>Node63&#45;&gt;Node64</title>
<path fill="none" stroke="#191970" d="M591.0564,-48C599.6658,-48 608.3978,-48 616.6698,-48"/>
<polygon fill="#191970" stroke="#191970" points="591.0409,-44.5001 581.0409,-48 591.0409,-51.5001 591.0409,-44.5001"/>
</g>
<!-- Node66 -->
<g id="node7" class="node">
<title>Node66</title>
<g id="a_node7"><a xlink:href="group___actions.html#ga71d4b810d6fce19efd455ded3e450a1b" target="_top" xlink:title="CWallet::ZapWalletTx">
<polygon fill="#ffffff" stroke="#000000" points="330,-.5 330,-19.5 443,-19.5 443,-.5 330,-.5"/>
<text text-anchor="middle" x="386.5" y="-7.5" font-family="Helvetica,sans-Serif" font-size="10.00" fill="#000000">CWallet::ZapWalletTx</text>
</a>
</g>
</g>
<!-- Node65&#45;&gt;Node66 -->
<g id="edge6" class="edge">
<title>Node65&#45;&gt;Node66</title>
<path fill="none" stroke="#191970" d="M304.158,-10C312.768,-10 321.4443,-10 329.7683,-10"/>
<polygon fill="#191970" stroke="#191970" points="304.1061,-6.5001 294.1061,-10 304.1061,-13.5001 304.1061,-6.5001"/>
</g>
</g>
</svg>
