<?xml version="1.0" encoding="UTF-8" standalone="no"?>
<!DOCTYPE svg PUBLIC "-//W3C//DTD SVG 1.1//EN"
 "http://www.w3.org/Graphics/SVG/1.1/DTD/svg11.dtd">
<!-- Generated by graphviz version 2.40.1 (20161225.0304)
 -->
<!-- Title: SendCoinsDialog::addEntry Pages: 1 -->
<svg width="1046pt" height="203pt"
 viewBox="0.00 0.00 1046.00 203.00" xmlns="http://www.w3.org/2000/svg" xmlns:xlink="http://www.w3.org/1999/xlink">
<g id="graph0" class="graph" transform="scale(1 1) rotate(0) translate(4 199)">
<title>SendCoinsDialog::addEntry</title>
<polygon fill="#ffffff" stroke="transparent" points="-4,4 -4,-199 1042,-199 1042,4 -4,4"/>
<!-- Node202 -->
<g id="node1" class="node">
<title>Node202</title>
<polygon fill="#bfbfbf" stroke="#000000" points="0,-88 0,-107 137,-107 137,-88 0,-88"/>
<text text-anchor="middle" x="68.5" y="-95" font-family="Helvetica,sans-Serif" font-size="10.00" fill="#000000">SendCoinsDialog::addEntry</text>
</g>
<!-- Node203 -->
<g id="node2" class="node">
<title>Node203</title>
<g id="a_node2"><a xlink:href="class_send_coins_dialog.html#affacd36b4df87a68e2fe706ef388c0a6" target="_top" xlink:title="SendCoinsDialog::SendCoins\lDialog">
<polygon fill="#ffffff" stroke="#000000" points="373,-164.5 373,-194.5 519,-194.5 519,-164.5 373,-164.5"/>
<text text-anchor="start" x="381" y="-182.5" font-family="Helvetica,sans-Serif" font-size="10.00" fill="#000000">SendCoinsDialog::SendCoins</text>
<text text-anchor="middle" x="446" y="-171.5" font-family="Helvetica,sans-Serif" font-size="10.00" fill="#000000">Dialog</text>
</a>
</g>
</g>
<!-- Node202&#45;&gt;Node203 -->
<g id="edge1" class="edge">
<title>Node202&#45;&gt;Node203</title>
<path fill="none" stroke="#191970" d="M90.4058,-112.9301C110.7734,-126.404 142.4816,-145.2154 173,-154.5 238.6822,-174.4825 317.0227,-179.8833 372.9018,-180.7908"/>
<polygon fill="#191970" stroke="#191970" points="92.1343,-109.8737 81.8907,-107.1683 88.2114,-115.6712 92.1343,-109.8737"/>
</g>
<!-- Node204 -->
<g id="node3" class="node">
<title>Node204</title>
<g id="a_node3"><a xlink:href="class_send_coins_dialog.html#a127bddff45f49ff5e6e263efe218ae26" target="_top" xlink:title="SendCoinsDialog::clear">
<polygon fill="#ffffff" stroke="#000000" points="190.5,-126 190.5,-145 309.5,-145 309.5,-126 190.5,-126"/>
<text text-anchor="middle" x="250" y="-133" font-family="Helvetica,sans-Serif" font-size="10.00" fill="#000000">SendCoinsDialog::clear</text>
</a>
</g>
</g>
<!-- Node202&#45;&gt;Node204 -->
<g id="edge2" class="edge">
<title>Node202&#45;&gt;Node204</title>
<path fill="none" stroke="#191970" d="M124.2921,-109.181C150.0312,-114.5699 180.1992,-120.8861 204.5292,-125.9799"/>
<polygon fill="#191970" stroke="#191970" points="124.8052,-105.7126 114.3001,-107.089 123.3706,-112.564 124.8052,-105.7126"/>
</g>
<!-- Node207 -->
<g id="node6" class="node">
<title>Node207</title>
<g id="a_node6"><a xlink:href="class_send_coins_dialog.html#aabd82a79bd2358493f36425f1d62136b" target="_top" xlink:title="SendCoinsDialog::removeEntry">
<polygon fill="#ffffff" stroke="#000000" points="173,-88 173,-107 327,-107 327,-88 173,-88"/>
<text text-anchor="middle" x="250" y="-95" font-family="Helvetica,sans-Serif" font-size="10.00" fill="#000000">SendCoinsDialog::removeEntry</text>
</a>
</g>
</g>
<!-- Node202&#45;&gt;Node207 -->
<g id="edge6" class="edge">
<title>Node202&#45;&gt;Node207</title>
<path fill="none" stroke="#191970" d="M147.3253,-90.8021C155.7673,-90.728 164.3495,-90.733 172.7727,-90.8171"/>
<polygon fill="#191970" stroke="#191970" points="147.0721,-87.3049 137.1174,-90.9317 147.161,-94.3043 147.0721,-87.3049"/>
</g>
<!-- Node208 -->
<g id="node7" class="node">
<title>Node208</title>
<g id="a_node7"><a xlink:href="class_send_coins_dialog.html#a920b2dbf121ca3cfac2adc56e96295f8" target="_top" xlink:title="SendCoinsDialog::setAddress">
<polygon fill="#ffffff" stroke="#000000" points="176,-50 176,-69 324,-69 324,-50 176,-50"/>
<text text-anchor="middle" x="250" y="-57" font-family="Helvetica,sans-Serif" font-size="10.00" fill="#000000">SendCoinsDialog::setAddress</text>
</a>
</g>
</g>
<!-- Node202&#45;&gt;Node208 -->
<g id="edge8" class="edge">
<title>Node202&#45;&gt;Node208</title>
<path fill="none" stroke="#191970" d="M124.2921,-85.819C150.0312,-80.4301 180.1992,-74.1139 204.5292,-69.0201"/>
<polygon fill="#191970" stroke="#191970" points="123.3706,-82.436 114.3001,-87.911 124.8052,-89.2874 123.3706,-82.436"/>
</g>
<!-- Node210 -->
<g id="node9" class="node">
<title>Node210</title>
<g id="a_node9"><a xlink:href="class_send_coins_dialog.html#a4440d15ced5d217baaad33a17d56b409" target="_top" xlink:title="SendCoinsDialog::pasteEntry">
<polygon fill="#ffffff" stroke="#000000" points="177,-9 177,-28 323,-28 323,-9 177,-9"/>
<text text-anchor="middle" x="250" y="-16" font-family="Helvetica,sans-Serif" font-size="10.00" fill="#000000">SendCoinsDialog::pasteEntry</text>
</a>
</g>
</g>
<!-- Node202&#45;&gt;Node210 -->
<g id="edge10" class="edge">
<title>Node202&#45;&gt;Node210</title>
<path fill="none" stroke="#191970" d="M92.2903,-82.5421C113.0006,-70.0098 144.1449,-52.3213 173,-40.5 184.836,-35.651 198.1094,-31.4459 210.2586,-28.0482"/>
<polygon fill="#191970" stroke="#191970" points="90.2507,-79.6871 83.5547,-87.8978 93.9094,-85.6548 90.2507,-79.6871"/>
</g>
<!-- Node204&#45;&gt;Node203 -->
<g id="edge3" class="edge">
<title>Node204&#45;&gt;Node203</title>
<path fill="none" stroke="#191970" d="M302.3071,-147.2424C325.8196,-152.5207 353.8534,-158.814 378.8907,-164.4346"/>
<polygon fill="#191970" stroke="#191970" points="303.0529,-143.8228 292.5291,-145.0473 301.5196,-150.6528 303.0529,-143.8228"/>
</g>
<!-- Node205 -->
<g id="node4" class="node">
<title>Node205</title>
<g id="a_node4"><a xlink:href="class_send_coins_dialog.html#a4879553d77d29f522ac92ac04580f4ad" target="_top" xlink:title="SendCoinsDialog::reject">
<polygon fill="#ffffff" stroke="#000000" points="385,-126 385,-145 507,-145 507,-126 385,-126"/>
<text text-anchor="middle" x="446" y="-133" font-family="Helvetica,sans-Serif" font-size="10.00" fill="#000000">SendCoinsDialog::reject</text>
</a>
</g>
</g>
<!-- Node204&#45;&gt;Node205 -->
<g id="edge4" class="edge">
<title>Node204&#45;&gt;Node205</title>
<path fill="none" stroke="#191970" d="M319.8723,-135.5C341.1438,-135.5 364.347,-135.5 384.9855,-135.5"/>
<polygon fill="#191970" stroke="#191970" points="319.6048,-132.0001 309.6048,-135.5 319.6047,-139.0001 319.6048,-132.0001"/>
</g>
<!-- Node206 -->
<g id="node5" class="node">
<title>Node206</title>
<g id="a_node5"><a xlink:href="class_send_coins_dialog.html#af2185c3d29e43d37c30669f0def46060" target="_top" xlink:title="SendCoinsDialog::accept">
<polygon fill="#ffffff" stroke="#000000" points="382,-88 382,-107 510,-107 510,-88 382,-88"/>
<text text-anchor="middle" x="446" y="-95" font-family="Helvetica,sans-Serif" font-size="10.00" fill="#000000">SendCoinsDialog::accept</text>
</a>
</g>
</g>
<!-- Node204&#45;&gt;Node206 -->
<g id="edge5" class="edge">
<title>Node204&#45;&gt;Node206</title>
<path fill="none" stroke="#191970" d="M309.2612,-124.0106C337.227,-118.5886 370.2091,-112.1942 396.7737,-107.0439"/>
<polygon fill="#191970" stroke="#191970" points="308.3571,-120.6206 299.2061,-125.96 309.6895,-127.4927 308.3571,-120.6206"/>
</g>
<!-- Node207&#45;&gt;Node202 -->
<g id="edge7" class="edge">
<title>Node207&#45;&gt;Node202</title>
<path fill="none" stroke="#191970" d="M162.7198,-104.2456C154.1242,-104.2674 145.487,-104.2083 137.1174,-104.0683"/>
<polygon fill="#191970" stroke="#191970" points="162.7948,-107.7453 172.7727,-104.1829 162.751,-100.7454 162.7948,-107.7453"/>
</g>
<!-- Node209 -->
<g id="node8" class="node">
<title>Node209</title>
<g id="a_node8"><a xlink:href="class_wallet_view.html#a2a70c2b00b097dd7b83b6915bb037ea3" target="_top" xlink:title="Switch to send coins page. ">
<polygon fill="#ffffff" stroke="#000000" points="365.5,-50 365.5,-69 526.5,-69 526.5,-50 365.5,-50"/>
<text text-anchor="middle" x="446" y="-57" font-family="Helvetica,sans-Serif" font-size="10.00" fill="#000000">WalletView::gotoSendCoinsPage</text>
</a>
</g>
</g>
<!-- Node208&#45;&gt;Node209 -->
<g id="edge9" class="edge">
<title>Node208&#45;&gt;Node209</title>
<path fill="none" stroke="#191970" d="M334.2836,-59.5C344.5535,-59.5 355.0283,-59.5 365.245,-59.5"/>
<polygon fill="#191970" stroke="#191970" points="334.0992,-56.0001 324.0992,-59.5 334.0992,-63.0001 334.0992,-56.0001"/>
</g>
<!-- Node211 -->
<g id="node10" class="node">
<title>Node211</title>
<g id="a_node10"><a xlink:href="class_send_coins_dialog.html#a82ed6a3badadaa523415e1924ebd292a" target="_top" xlink:title="SendCoinsDialog::handlePayment\lRequest">
<polygon fill="#ffffff" stroke="#000000" points="363,-.5 363,-30.5 529,-30.5 529,-.5 363,-.5"/>
<text text-anchor="start" x="371" y="-18.5" font-family="Helvetica,sans-Serif" font-size="10.00" fill="#000000">SendCoinsDialog::handlePayment</text>
<text text-anchor="middle" x="446" y="-7.5" font-family="Helvetica,sans-Serif" font-size="10.00" fill="#000000">Request</text>
</a>
</g>
</g>
<!-- Node210&#45;&gt;Node211 -->
<g id="edge11" class="edge">
<title>Node210&#45;&gt;Node211</title>
<path fill="none" stroke="#191970" d="M333.3754,-17.2238C343.1657,-17.074 353.1551,-16.9211 362.9411,-16.7713"/>
<polygon fill="#191970" stroke="#191970" points="333.2071,-13.7259 323.2619,-17.3786 333.3143,-20.7251 333.2071,-13.7259"/>
</g>
<!-- Node212 -->
<g id="node11" class="node">
<title>Node212</title>
<g id="a_node11"><a xlink:href="class_wallet_view.html#a0ae21d91a9d7755026ce2a6846cef68d" target="_top" xlink:title="WalletView::handlePayment\lRequest">
<polygon fill="#ffffff" stroke="#000000" points="565,-.5 565,-30.5 705,-30.5 705,-.5 565,-.5"/>
<text text-anchor="start" x="573" y="-18.5" font-family="Helvetica,sans-Serif" font-size="10.00" fill="#000000">WalletView::handlePayment</text>
<text text-anchor="middle" x="635" y="-7.5" font-family="Helvetica,sans-Serif" font-size="10.00" fill="#000000">Request</text>
</a>
</g>
</g>
<!-- Node211&#45;&gt;Node212 -->
<g id="edge12" class="edge">
<title>Node211&#45;&gt;Node212</title>
<path fill="none" stroke="#191970" d="M539.2411,-15.5C547.8374,-15.5 556.4476,-15.5 564.7871,-15.5"/>
<polygon fill="#191970" stroke="#191970" points="539.1732,-12.0001 529.1732,-15.5 539.1732,-19.0001 539.1732,-12.0001"/>
</g>
<!-- Node213 -->
<g id="node12" class="node">
<title>Node213</title>
<g id="a_node12"><a xlink:href="class_wallet_frame.html#aa8c5b10f2240df164795619ca41c619c" target="_top" xlink:title="WalletFrame::handlePayment\lRequest">
<polygon fill="#ffffff" stroke="#000000" points="741,-.5 741,-30.5 887,-30.5 887,-.5 741,-.5"/>
<text text-anchor="start" x="749" y="-18.5" font-family="Helvetica,sans-Serif" font-size="10.00" fill="#000000">WalletFrame::handlePayment</text>
<text text-anchor="middle" x="814" y="-7.5" font-family="Helvetica,sans-Serif" font-size="10.00" fill="#000000">Request</text>
</a>
</g>
</g>
<!-- Node212&#45;&gt;Node213 -->
<g id="edge13" class="edge">
<title>Node212&#45;&gt;Node213</title>
<path fill="none" stroke="#191970" d="M715.4336,-15.5C723.858,-15.5 732.3906,-15.5 740.7288,-15.5"/>
<polygon fill="#191970" stroke="#191970" points="715.2318,-12.0001 705.2318,-15.5 715.2318,-19.0001 715.2318,-12.0001"/>
</g>
<!-- Node214 -->
<g id="node13" class="node">
<title>Node214</title>
<g id="a_node13"><a xlink:href="class_raven_g_u_i.html#a6d7d2d398b230d83e37ea8b22acd4d9a" target="_top" xlink:title="RavenGUI::eventFilter">
<polygon fill="#ffffff" stroke="#000000" points="923,-6 923,-25 1038,-25 1038,-6 923,-6"/>
<text text-anchor="middle" x="980.5" y="-13" font-family="Helvetica,sans-Serif" font-size="10.00" fill="#000000">RavenGUI::eventFilter</text>
</a>
</g>
</g>
<!-- Node213&#45;&gt;Node214 -->
<g id="edge14" class="edge">
<title>Node213&#45;&gt;Node214</title>
<path fill="none" stroke="#191970" d="M897.1749,-15.5C905.837,-15.5 914.5001,-15.5 922.7893,-15.5"/>
<polygon fill="#191970" stroke="#191970" points="897.0294,-12.0001 887.0293,-15.5 897.0293,-19.0001 897.0294,-12.0001"/>
</g>
</g>
</svg>
