<?xml version="1.0" encoding="UTF-8" standalone="no"?>
<!DOCTYPE svg PUBLIC "-//W3C//DTD SVG 1.1//EN"
 "http://www.w3.org/Graphics/SVG/1.1/DTD/svg11.dtd">
<!-- Generated by graphviz version 2.40.1 (20161225.0304)
 -->
<!-- Title: TransactionView::editLabel Pages: 1 -->
<svg width="1223pt" height="313pt"
 viewBox="0.00 0.00 1223.00 313.00" xmlns="http://www.w3.org/2000/svg" xmlns:xlink="http://www.w3.org/1999/xlink">
<g id="graph0" class="graph" transform="scale(1 1) rotate(0) translate(4 309)">
<title>TransactionView::editLabel</title>
<polygon fill="#ffffff" stroke="transparent" points="-4,4 -4,-309 1219,-309 1219,4 -4,4"/>
<!-- Node464 -->
<g id="node1" class="node">
<title>Node464</title>
<polygon fill="#bfbfbf" stroke="#000000" points="0,-148 0,-167 134,-167 134,-148 0,-148"/>
<text text-anchor="middle" x="67" y="-155" font-family="Helvetica,sans-Serif" font-size="10.00" fill="#000000">TransactionView::editLabel</text>
</g>
<!-- Node465 -->
<g id="node2" class="node">
<title>Node465</title>
<g id="a_node2"><a xlink:href="class_wallet_model.html#a89ed202e2dbc04aaa70d72872b95b351" target="_top" xlink:title="WalletModel::getAddressTable\lModel">
<polygon fill="#ffffff" stroke="#000000" points="170,-274.5 170,-304.5 320,-304.5 320,-274.5 170,-274.5"/>
<text text-anchor="start" x="178" y="-292.5" font-family="Helvetica,sans-Serif" font-size="10.00" fill="#000000">WalletModel::getAddressTable</text>
<text text-anchor="middle" x="245" y="-281.5" font-family="Helvetica,sans-Serif" font-size="10.00" fill="#000000">Model</text>
</a>
</g>
</g>
<!-- Node464&#45;&gt;Node465 -->
<g id="edge1" class="edge">
<title>Node464&#45;&gt;Node465</title>
<path fill="none" stroke="#191970" d="M74.5246,-167.2244C90.2894,-187.0283 128.7544,-232.4469 170,-259.5 176.0465,-263.4659 182.6999,-267.0513 189.4704,-270.2485"/>
<polygon fill="#191970" stroke="#191970" points="188.1702,-273.5007 198.7295,-274.367 191.0151,-267.1049 188.1702,-273.5007"/>
</g>
<!-- Node466 -->
<g id="node3" class="node">
<title>Node466</title>
<g id="a_node3"><a xlink:href="class_address_table_model.html#a79b07007c147962c0119310ebd4931c1" target="_top" xlink:title="AddressTableModel::data">
<polygon fill="#ffffff" stroke="#000000" points="501,-233 501,-252 629,-252 629,-233 501,-233"/>
<text text-anchor="middle" x="565" y="-240" font-family="Helvetica,sans-Serif" font-size="10.00" fill="#000000">AddressTableModel::data</text>
</a>
</g>
</g>
<!-- Node464&#45;&gt;Node466 -->
<g id="edge2" class="edge">
<title>Node464&#45;&gt;Node466</title>
<path fill="none" stroke="#191970" d="M77.3872,-167.2174C94.892,-182.8867 132.0845,-213.2182 170,-225.5 277.3953,-260.2881 409.8299,-257.3938 490.8052,-250.8766"/>
<polygon fill="#191970" stroke="#191970" points="491.237,-254.3527 500.9068,-250.0232 490.6476,-247.3775 491.237,-254.3527"/>
</g>
<!-- Node473 -->
<g id="node10" class="node">
<title>Node473</title>
<g id="a_node10"><a xlink:href="class_address_table_model.html#a0beb94d838781d9055e393b37bf68f83" target="_top" xlink:title="AddressTableModel::\llookupAddress">
<polygon fill="#ffffff" stroke="#000000" points="190.5,-186.5 190.5,-216.5 299.5,-216.5 299.5,-186.5 190.5,-186.5"/>
<text text-anchor="start" x="198.5" y="-204.5" font-family="Helvetica,sans-Serif" font-size="10.00" fill="#000000">AddressTableModel::</text>
<text text-anchor="middle" x="245" y="-193.5" font-family="Helvetica,sans-Serif" font-size="10.00" fill="#000000">lookupAddress</text>
</a>
</g>
</g>
<!-- Node464&#45;&gt;Node473 -->
<g id="edge9" class="edge">
<title>Node464&#45;&gt;Node473</title>
<path fill="none" stroke="#191970" d="M105.6233,-167.0473C127.4678,-172.4471 155.3494,-179.3392 180.4266,-185.538"/>
<polygon fill="#191970" stroke="#191970" points="179.6964,-188.9628 190.2441,-187.9648 181.3763,-182.1674 179.6964,-188.9628"/>
</g>
<!-- Node474 -->
<g id="node11" class="node">
<title>Node474</title>
<g id="a_node11"><a xlink:href="class_address_table_model.html#a74e9123471948255f87271c823c82854" target="_top" xlink:title="AddressTableModel::\lindex">
<polygon fill="#ffffff" stroke="#000000" points="356,-186.5 356,-216.5 465,-216.5 465,-186.5 356,-186.5"/>
<text text-anchor="start" x="364" y="-204.5" font-family="Helvetica,sans-Serif" font-size="10.00" fill="#000000">AddressTableModel::</text>
<text text-anchor="middle" x="410.5" y="-193.5" font-family="Helvetica,sans-Serif" font-size="10.00" fill="#000000">index</text>
</a>
</g>
</g>
<!-- Node464&#45;&gt;Node474 -->
<g id="edge13" class="edge">
<title>Node464&#45;&gt;Node474</title>
<path fill="none" stroke="#191970" d="M134.0221,-158.9857C185.2708,-160.9762 257.5104,-165.6291 320,-176.5 330.6969,-178.3609 341.9541,-180.9459 352.7559,-183.7522"/>
<polygon fill="#191970" stroke="#191970" points="351.953,-187.1605 362.5188,-186.3772 353.7706,-180.4006 351.953,-187.1605"/>
</g>
<!-- Node476 -->
<g id="node13" class="node">
<title>Node476</title>
<g id="a_node13"><a xlink:href="class_edit_address_dialog.html#a57d26af2c34bd45c06596e9b3fc9a446" target="_top" xlink:title="EditAddressDialog::\lsetModel">
<polygon fill="#ffffff" stroke="#000000" points="193,-98.5 193,-128.5 297,-128.5 297,-98.5 193,-98.5"/>
<text text-anchor="start" x="201" y="-116.5" font-family="Helvetica,sans-Serif" font-size="10.00" fill="#000000">EditAddressDialog::</text>
<text text-anchor="middle" x="245" y="-105.5" font-family="Helvetica,sans-Serif" font-size="10.00" fill="#000000">setModel</text>
</a>
</g>
</g>
<!-- Node464&#45;&gt;Node476 -->
<g id="edge14" class="edge">
<title>Node464&#45;&gt;Node476</title>
<path fill="none" stroke="#191970" d="M105.6233,-147.9527C128.1899,-142.3744 157.1994,-135.2035 182.9041,-128.8496"/>
<polygon fill="#191970" stroke="#191970" points="184.075,-132.1655 192.9429,-126.368 182.3952,-125.3701 184.075,-132.1655"/>
</g>
<!-- Node477 -->
<g id="node14" class="node">
<title>Node477</title>
<g id="a_node14"><a xlink:href="class_edit_address_dialog.html#a45d90d6f757fb4b20788710c8533036b" target="_top" xlink:title="EditAddressDialog::\lloadRow">
<polygon fill="#ffffff" stroke="#000000" points="193,-49.5 193,-79.5 297,-79.5 297,-49.5 193,-49.5"/>
<text text-anchor="start" x="201" y="-67.5" font-family="Helvetica,sans-Serif" font-size="10.00" fill="#000000">EditAddressDialog::</text>
<text text-anchor="middle" x="245" y="-56.5" font-family="Helvetica,sans-Serif" font-size="10.00" fill="#000000">loadRow</text>
</a>
</g>
</g>
<!-- Node464&#45;&gt;Node477 -->
<g id="edge15" class="edge">
<title>Node464&#45;&gt;Node477</title>
<path fill="none" stroke="#191970" d="M79.0015,-147.8077C97.5479,-133.2248 134.7264,-105.5379 170,-88.5 174.2394,-86.4523 178.6954,-84.5212 183.2331,-82.7124"/>
<polygon fill="#191970" stroke="#191970" points="184.4967,-85.9765 192.6186,-79.1732 182.0268,-79.4268 184.4967,-85.9765"/>
</g>
<!-- Node478 -->
<g id="node15" class="node">
<title>Node478</title>
<g id="a_node15"><a xlink:href="class_edit_address_dialog.html#afcaca5a8e493b9493d2ca2430f7ac5eb" target="_top" xlink:title="EditAddressDialog::\lsetAddress">
<polygon fill="#ffffff" stroke="#000000" points="193,-.5 193,-30.5 297,-30.5 297,-.5 193,-.5"/>
<text text-anchor="start" x="201" y="-18.5" font-family="Helvetica,sans-Serif" font-size="10.00" fill="#000000">EditAddressDialog::</text>
<text text-anchor="middle" x="245" y="-7.5" font-family="Helvetica,sans-Serif" font-size="10.00" fill="#000000">setAddress</text>
</a>
</g>
</g>
<!-- Node464&#45;&gt;Node478 -->
<g id="edge16" class="edge">
<title>Node464&#45;&gt;Node478</title>
<path fill="none" stroke="#191970" d="M72.6881,-147.9909C86.5048,-125.6964 124.0969,-69.6685 170,-39.5 174.2468,-36.7089 178.8416,-34.2224 183.5937,-32.0108"/>
<polygon fill="#191970" stroke="#191970" points="185.027,-35.2049 192.8764,-28.0888 182.3026,-28.7568 185.027,-35.2049"/>
</g>
<!-- Node467 -->
<g id="node4" class="node">
<title>Node467</title>
<g id="a_node4"><a xlink:href="namespace_g_u_i_util.html#af6b9624383a5313a5d856c59913b599b" target="_top" xlink:title="GUIUtil::fixedPitchFont">
<polygon fill="#ffffff" stroke="#000000" points="665,-233 665,-252 784,-252 784,-233 665,-233"/>
<text text-anchor="middle" x="724.5" y="-240" font-family="Helvetica,sans-Serif" font-size="10.00" fill="#000000">GUIUtil::fixedPitchFont</text>
</a>
</g>
</g>
<!-- Node466&#45;&gt;Node467 -->
<g id="edge3" class="edge">
<title>Node466&#45;&gt;Node467</title>
<path fill="none" stroke="#191970" d="M629.415,-242.5C637.7131,-242.5 646.2413,-242.5 654.6219,-242.5"/>
<polygon fill="#191970" stroke="#191970" points="654.7457,-246.0001 664.7456,-242.5 654.7456,-239.0001 654.7457,-246.0001"/>
</g>
<!-- Node468 -->
<g id="node5" class="node">
<title>Node468</title>
<g id="a_node5"><a xlink:href="class_c_chain_params.html#a103c58eca4a26a71201882b3ed6c4cb4" target="_top" xlink:title="CChainParams::Base58Prefix">
<polygon fill="#ffffff" stroke="#000000" points="820,-271 820,-290 968,-290 968,-271 820,-271"/>
<text text-anchor="middle" x="894" y="-278" font-family="Helvetica,sans-Serif" font-size="10.00" fill="#000000">CChainParams::Base58Prefix</text>
</a>
</g>
</g>
<!-- Node467&#45;&gt;Node468 -->
<g id="edge4" class="edge">
<title>Node467&#45;&gt;Node468</title>
<path fill="none" stroke="#191970" d="M767.272,-252.089C789.8409,-257.1487 817.7232,-263.3996 841.5833,-268.7488"/>
<polygon fill="#191970" stroke="#191970" points="841.0121,-272.2075 851.5356,-270.9799 842.5435,-265.3771 841.0121,-272.2075"/>
</g>
<!-- Node469 -->
<g id="node6" class="node">
<title>Node469</title>
<g id="a_node6"><a xlink:href="base58_8cpp.html#a8d6f0e9d5df175b4966dcede31dc90ad" target="_top" xlink:title="Why base&#45;58 instead of standard base&#45;64 encoding? ">
<polygon fill="#ffffff" stroke="#000000" points="852.5,-233 852.5,-252 935.5,-252 935.5,-233 852.5,-233"/>
<text text-anchor="middle" x="894" y="-240" font-family="Helvetica,sans-Serif" font-size="10.00" fill="#000000">EncodeBase58</text>
</a>
</g>
</g>
<!-- Node467&#45;&gt;Node469 -->
<g id="edge5" class="edge">
<title>Node467&#45;&gt;Node469</title>
<path fill="none" stroke="#191970" d="M784.2594,-242.5C803.1506,-242.5 823.8612,-242.5 842.1516,-242.5"/>
<polygon fill="#191970" stroke="#191970" points="842.322,-246.0001 852.3219,-242.5 842.3219,-239.0001 842.322,-246.0001"/>
</g>
<!-- Node470 -->
<g id="node7" class="node">
<title>Node470</title>
<g id="a_node7"><a xlink:href="base58_8cpp.html#a32169f8eb6ebcce6412b675f9d23d878" target="_top" xlink:title="IsValidDestinationString">
<polygon fill="#ffffff" stroke="#000000" points="833,-195 833,-214 955,-214 955,-195 833,-195"/>
<text text-anchor="middle" x="894" y="-202" font-family="Helvetica,sans-Serif" font-size="10.00" fill="#000000">IsValidDestinationString</text>
</a>
</g>
</g>
<!-- Node467&#45;&gt;Node470 -->
<g id="edge6" class="edge">
<title>Node467&#45;&gt;Node470</title>
<path fill="none" stroke="#191970" d="M767.272,-232.911C789.8409,-227.8513 817.7232,-221.6004 841.5833,-216.2512"/>
<polygon fill="#191970" stroke="#191970" points="842.5435,-219.6229 851.5356,-214.0201 841.0121,-212.7925 842.5435,-219.6229"/>
</g>
<!-- Node471 -->
<g id="node8" class="node">
<title>Node471</title>
<g id="a_node8"><a xlink:href="class_c_raven_address.html#a3c442b9abc0cbfb0518e9b0c4744427c" target="_top" xlink:title="CRavenAddress::IsValid">
<polygon fill="#ffffff" stroke="#000000" points="1004,-195 1004,-214 1129,-214 1129,-195 1004,-195"/>
<text text-anchor="middle" x="1066.5" y="-202" font-family="Helvetica,sans-Serif" font-size="10.00" fill="#000000">CRavenAddress::IsValid</text>
</a>
</g>
</g>
<!-- Node470&#45;&gt;Node471 -->
<g id="edge7" class="edge">
<title>Node470&#45;&gt;Node471</title>
<path fill="none" stroke="#191970" d="M955.3028,-204.5C967.7579,-204.5 980.9724,-204.5 993.7789,-204.5"/>
<polygon fill="#191970" stroke="#191970" points="993.9396,-208.0001 1003.9396,-204.5 993.9396,-201.0001 993.9396,-208.0001"/>
</g>
<!-- Node472 -->
<g id="node9" class="node">
<title>Node472</title>
<g id="a_node9"><a xlink:href="chainparams_8cpp.html#ace5c5b706d71a324a417dd2db394fd4a" target="_top" xlink:title="Return the currently selected parameters. ">
<polygon fill="#ffffff" stroke="#000000" points="1165,-195 1165,-214 1215,-214 1215,-195 1165,-195"/>
<text text-anchor="middle" x="1190" y="-202" font-family="Helvetica,sans-Serif" font-size="10.00" fill="#000000">Params</text>
</a>
</g>
</g>
<!-- Node471&#45;&gt;Node472 -->
<g id="edge8" class="edge">
<title>Node471&#45;&gt;Node472</title>
<path fill="none" stroke="#191970" d="M1129.3354,-204.5C1138.119,-204.5 1146.8734,-204.5 1154.8872,-204.5"/>
<polygon fill="#191970" stroke="#191970" points="1154.9359,-208.0001 1164.9359,-204.5 1154.9358,-201.0001 1154.9359,-208.0001"/>
</g>
<!-- Node473&#45;&gt;Node474 -->
<g id="edge10" class="edge">
<title>Node473&#45;&gt;Node474</title>
<path fill="none" stroke="#191970" d="M299.6496,-201.5C314.3375,-201.5 330.3657,-201.5 345.5539,-201.5"/>
<polygon fill="#191970" stroke="#191970" points="345.9079,-205.0001 355.9078,-201.5 345.9078,-198.0001 345.9079,-205.0001"/>
</g>
<!-- Node474&#45;&gt;Node466 -->
<g id="edge11" class="edge">
<title>Node474&#45;&gt;Node466</title>
<path fill="none" stroke="#191970" d="M465.4059,-216.0705C482.9316,-220.7213 502.136,-225.8177 518.9645,-230.2835"/>
<polygon fill="#191970" stroke="#191970" points="518.5362,-233.7909 529.0994,-232.973 520.3317,-227.0251 518.5362,-233.7909"/>
</g>
<!-- Node475 -->
<g id="node12" class="node">
<title>Node475</title>
<g id="a_node12"><a xlink:href="class_address_table_priv.html#af311eb7d0189a74a508d7ad0f563f307" target="_top" xlink:title="AddressTablePriv::index">
<polygon fill="#ffffff" stroke="#000000" points="503.5,-192 503.5,-211 626.5,-211 626.5,-192 503.5,-192"/>
<text text-anchor="middle" x="565" y="-199" font-family="Helvetica,sans-Serif" font-size="10.00" fill="#000000">AddressTablePriv::index</text>
</a>
</g>
</g>
<!-- Node474&#45;&gt;Node475 -->
<g id="edge12" class="edge">
<title>Node474&#45;&gt;Node475</title>
<path fill="none" stroke="#191970" d="M465.4059,-201.5C474.4507,-201.5 483.9425,-201.5 493.3241,-201.5"/>
<polygon fill="#191970" stroke="#191970" points="493.4346,-205.0001 503.4346,-201.5 493.4345,-198.0001 493.4346,-205.0001"/>
</g>
</g>
</svg>
