<?xml version="1.0" encoding="UTF-8" standalone="no"?>
<!DOCTYPE svg PUBLIC "-//W3C//DTD SVG 1.1//EN"
 "http://www.w3.org/Graphics/SVG/1.1/DTD/svg11.dtd">
<!-- Generated by graphviz version 2.40.1 (20161225.0304)
 -->
<!-- Title: CChainParams::IssueRestrictedAssetBurnAmount Pages: 1 -->
<svg width="662pt" height="53pt"
 viewBox="0.00 0.00 662.00 52.50" xmlns="http://www.w3.org/2000/svg" xmlns:xlink="http://www.w3.org/1999/xlink">
<g id="graph0" class="graph" transform="scale(1 1) rotate(0) translate(4 48.5)">
<title>CChainParams::IssueRestrictedAssetBurnAmount</title>
<polygon fill="#ffffff" stroke="transparent" points="-4,4 -4,-48.5 658,-48.5 658,4 -4,4"/>
<!-- Node285 -->
<g id="node1" class="node">
<title>Node285</title>
<polygon fill="#bfbfbf" stroke="#000000" points="0,-.5 0,-30.5 158,-30.5 158,-.5 0,-.5"/>
<text text-anchor="start" x="8" y="-18.5" font-family="Helvetica,sans-Serif" font-size="10.00" fill="#000000">CChainParams::IssueRestricted</text>
<text text-anchor="middle" x="79" y="-7.5" font-family="Helvetica,sans-Serif" font-size="10.00" fill="#000000">AssetBurnAmount</text>
</g>
<!-- Node286 -->
<g id="node2" class="node">
<title>Node286</title>
<g id="a_node2"><a xlink:href="assets_8h.html#a69a6cfe54b552b330459e0e8d4163000" target="_top" xlink:title="GetIssueRestrictedAssetBurn\lAmount">
<polygon fill="#ffffff" stroke="#000000" points="194,-.5 194,-30.5 341,-30.5 341,-.5 194,-.5"/>
<text text-anchor="start" x="202" y="-18.5" font-family="Helvetica,sans-Serif" font-size="10.00" fill="#000000">GetIssueRestrictedAssetBurn</text>
<text text-anchor="middle" x="267.5" y="-7.5" font-family="Helvetica,sans-Serif" font-size="10.00" fill="#000000">Amount</text>
</a>
</g>
</g>
<!-- Node285&#45;&gt;Node286 -->
<g id="edge1" class="edge">
<title>Node285&#45;&gt;Node286</title>
<path fill="none" stroke="#191970" d="M168.2136,-15.5C176.8474,-15.5 185.5377,-15.5 193.9937,-15.5"/>
<polygon fill="#191970" stroke="#191970" points="168.1217,-12.0001 158.1216,-15.5 168.1216,-19.0001 168.1217,-12.0001"/>
</g>
<!-- Node287 -->
<g id="node3" class="node">
<title>Node287</title>
<g id="a_node3"><a xlink:href="assets_8h.html#a7b00531a831520d94381648ee9ff8622" target="_top" xlink:title="GetBurnAmount">
<polygon fill="#ffffff" stroke="#000000" points="377,-25 377,-44 463,-44 463,-25 377,-25"/>
<text text-anchor="middle" x="420" y="-32" font-family="Helvetica,sans-Serif" font-size="10.00" fill="#000000">GetBurnAmount</text>
</a>
</g>
</g>
<!-- Node286&#45;&gt;Node287 -->
<g id="edge2" class="edge">
<title>Node286&#45;&gt;Node287</title>
<path fill="none" stroke="#191970" d="M351.0616,-25.911C359.8845,-27.0102 368.5756,-28.093 376.6566,-29.0998"/>
<polygon fill="#191970" stroke="#191970" points="351.4259,-22.4294 341.0698,-24.6661 350.5604,-29.3757 351.4259,-22.4294"/>
</g>
<!-- Node288 -->
<g id="node4" class="node">
<title>Node288</title>
<g id="a_node4"><a xlink:href="class_c_assets_cache.html#a117ef717832c597298ad096e2dbc3299" target="_top" xlink:title="CAssetsCache::CacheToString">
<polygon fill="#ffffff" stroke="#000000" points="499,-6 499,-25 654,-25 654,-6 499,-6"/>
<text text-anchor="middle" x="576.5" y="-13" font-family="Helvetica,sans-Serif" font-size="10.00" fill="#000000">CAssetsCache::CacheToString</text>
</a>
</g>
</g>
<!-- Node286&#45;&gt;Node288 -->
<g id="edge4" class="edge">
<title>Node286&#45;&gt;Node288</title>
<path fill="none" stroke="#191970" d="M351.3571,-15.5C397.3197,-15.5 453.912,-15.5 498.8593,-15.5"/>
<polygon fill="#191970" stroke="#191970" points="351.1207,-12.0001 341.1206,-15.5 351.1206,-19.0001 351.1207,-12.0001"/>
</g>
<!-- Node287&#45;&gt;Node288 -->
<g id="edge3" class="edge">
<title>Node287&#45;&gt;Node288</title>
<path fill="none" stroke="#191970" d="M473.3735,-28.0201C481.621,-27.0189 490.28,-25.9676 498.9279,-24.9177"/>
<polygon fill="#191970" stroke="#191970" points="472.6838,-24.5781 463.1786,-29.2579 473.5276,-31.5271 472.6838,-24.5781"/>
</g>
</g>
</svg>
