<?xml version="1.0" encoding="UTF-8" standalone="no"?>
<!DOCTYPE svg PUBLIC "-//W3C//DTD SVG 1.1//EN"
 "http://www.w3.org/Graphics/SVG/1.1/DTD/svg11.dtd">
<!-- Generated by graphviz version 2.40.1 (20161225.0304)
 -->
<!-- Title: RPCConsole::peerSelected Pages: 1 -->
<svg width="1019pt" height="88pt"
 viewBox="0.00 0.00 1019.00 88.00" xmlns="http://www.w3.org/2000/svg" xmlns:xlink="http://www.w3.org/1999/xlink">
<g id="graph0" class="graph" transform="scale(1 1) rotate(0) translate(4 84)">
<title>RPCConsole::peerSelected</title>
<polygon fill="#ffffff" stroke="transparent" points="-4,4 -4,-84 1015,-84 1015,4 -4,4"/>
<!-- Node245 -->
<g id="node1" class="node">
<title>Node245</title>
<polygon fill="#bfbfbf" stroke="#000000" points="0,-33 0,-52 137,-52 137,-33 0,-33"/>
<text text-anchor="middle" x="68.5" y="-40" font-family="Helvetica,sans-Serif" font-size="10.00" fill="#000000">RPCConsole::peerSelected</text>
</g>
<!-- Node246 -->
<g id="node2" class="node">
<title>Node246</title>
<g id="a_node2"><a xlink:href="class_r_p_c_console.html#a355349a33664a07628e9ca22a60f5fa7" target="_top" xlink:title="RPCConsole::setClientModel">
<polygon fill="#ffffff" stroke="#000000" points="173,-33 173,-52 319,-52 319,-33 173,-33"/>
<text text-anchor="middle" x="246" y="-40" font-family="Helvetica,sans-Serif" font-size="10.00" fill="#000000">RPCConsole::setClientModel</text>
</a>
</g>
</g>
<!-- Node245&#45;&gt;Node246 -->
<g id="edge1" class="edge">
<title>Node245&#45;&gt;Node246</title>
<path fill="none" stroke="#191970" d="M147.3805,-42.5C155.854,-42.5 164.4489,-42.5 172.8513,-42.5"/>
<polygon fill="#191970" stroke="#191970" points="147.1262,-39.0001 137.1261,-42.5 147.1261,-46.0001 147.1262,-39.0001"/>
</g>
<!-- Node247 -->
<g id="node3" class="node">
<title>Node247</title>
<g id="a_node3"><a xlink:href="class_raven_g_u_i.html#a174a3e75c334c5930d3261a2955c3725" target="_top" xlink:title="Set the client model. ">
<polygon fill="#ffffff" stroke="#000000" points="355,-33 355,-52 489,-52 489,-33 355,-33"/>
<text text-anchor="middle" x="422" y="-40" font-family="Helvetica,sans-Serif" font-size="10.00" fill="#000000">RavenGUI::setClientModel</text>
</a>
</g>
</g>
<!-- Node246&#45;&gt;Node247 -->
<g id="edge2" class="edge">
<title>Node246&#45;&gt;Node247</title>
<path fill="none" stroke="#191970" d="M329.1395,-42.5C337.7235,-42.5 346.3692,-42.5 354.7488,-42.5"/>
<polygon fill="#191970" stroke="#191970" points="329.1109,-39.0001 319.1108,-42.5 329.1108,-46.0001 329.1109,-39.0001"/>
</g>
<!-- Node248 -->
<g id="node4" class="node">
<title>Node248</title>
<g id="a_node4"><a xlink:href="class_raven_application.html#a60123f611cc210870fa67974cb2c804c" target="_top" xlink:title="Request core shutdown. ">
<polygon fill="#ffffff" stroke="#000000" points="880,-49.5 880,-79.5 1011,-79.5 1011,-49.5 880,-49.5"/>
<text text-anchor="start" x="888" y="-67.5" font-family="Helvetica,sans-Serif" font-size="10.00" fill="#000000">RavenApplication::request</text>
<text text-anchor="middle" x="945.5" y="-56.5" font-family="Helvetica,sans-Serif" font-size="10.00" fill="#000000">Shutdown</text>
</a>
</g>
</g>
<!-- Node247&#45;&gt;Node248 -->
<g id="edge3" class="edge">
<title>Node247&#45;&gt;Node248</title>
<path fill="none" stroke="#191970" d="M499.1333,-45.7415C602.2203,-50.0737 783.1346,-57.6766 879.9629,-61.7458"/>
<polygon fill="#191970" stroke="#191970" points="499.238,-42.2429 489.0999,-45.3199 498.944,-49.2367 499.238,-42.2429"/>
</g>
<!-- Node249 -->
<g id="node5" class="node">
<title>Node249</title>
<g id="a_node5"><a xlink:href="class_raven_application.html#a1a3dcf33ba44507984b2a04e7ebf1542" target="_top" xlink:title="RavenApplication::initialize\lResult">
<polygon fill="#ffffff" stroke="#000000" points="525,-5.5 525,-35.5 659,-35.5 659,-5.5 525,-5.5"/>
<text text-anchor="start" x="533" y="-23.5" font-family="Helvetica,sans-Serif" font-size="10.00" fill="#000000">RavenApplication::initialize</text>
<text text-anchor="middle" x="592" y="-12.5" font-family="Helvetica,sans-Serif" font-size="10.00" fill="#000000">Result</text>
</a>
</g>
</g>
<!-- Node247&#45;&gt;Node249 -->
<g id="edge4" class="edge">
<title>Node247&#45;&gt;Node249</title>
<path fill="none" stroke="#191970" d="M499.146,-32.5164C507.6879,-31.411 516.3366,-30.2917 524.7428,-29.2039"/>
<polygon fill="#191970" stroke="#191970" points="498.6566,-29.0505 489.1885,-33.805 499.555,-35.9926 498.6566,-29.0505"/>
</g>
<!-- Node250 -->
<g id="node6" class="node">
<title>Node250</title>
<g id="a_node6"><a xlink:href="class_raven_application.html#aecfdce3a245b959def5dd35e5cfb192e" target="_top" xlink:title="RavenApplication::startThread">
<polygon fill="#ffffff" stroke="#000000" points="695,-11 695,-30 844,-30 844,-11 695,-11"/>
<text text-anchor="middle" x="769.5" y="-18" font-family="Helvetica,sans-Serif" font-size="10.00" fill="#000000">RavenApplication::startThread</text>
</a>
</g>
</g>
<!-- Node249&#45;&gt;Node250 -->
<g id="edge5" class="edge">
<title>Node249&#45;&gt;Node250</title>
<path fill="none" stroke="#191970" d="M669.3486,-20.5C677.821,-20.5 686.4344,-20.5 694.873,-20.5"/>
<polygon fill="#191970" stroke="#191970" points="669.1052,-17.0001 659.1051,-20.5 669.1051,-24.0001 669.1052,-17.0001"/>
</g>
<!-- Node250&#45;&gt;Node248 -->
<g id="edge7" class="edge">
<title>Node250&#45;&gt;Node248</title>
<path fill="none" stroke="#191970" d="M817.6046,-32.5261C838.4811,-37.7453 863.1576,-43.9144 885.2385,-49.4346"/>
<polygon fill="#191970" stroke="#191970" points="818.2397,-29.0773 807.6894,-30.0473 816.5419,-35.8683 818.2397,-29.0773"/>
</g>
<!-- Node251 -->
<g id="node7" class="node">
<title>Node251</title>
<g id="a_node7"><a xlink:href="class_raven_application.html#a63a2032fef875fb81f26c212f69d000d" target="_top" xlink:title="Request core initialization. ">
<polygon fill="#ffffff" stroke="#000000" points="880,-.5 880,-30.5 1011,-30.5 1011,-.5 880,-.5"/>
<text text-anchor="start" x="888" y="-18.5" font-family="Helvetica,sans-Serif" font-size="10.00" fill="#000000">RavenApplication::request</text>
<text text-anchor="middle" x="945.5" y="-7.5" font-family="Helvetica,sans-Serif" font-size="10.00" fill="#000000">Initialize</text>
</a>
</g>
</g>
<!-- Node250&#45;&gt;Node251 -->
<g id="edge6" class="edge">
<title>Node250&#45;&gt;Node251</title>
<path fill="none" stroke="#191970" d="M854.2384,-18.0927C862.8743,-17.8473 871.5522,-17.6008 879.9387,-17.3625"/>
<polygon fill="#191970" stroke="#191970" points="854.0364,-14.5969 844.1398,-18.3795 854.2352,-21.5941 854.0364,-14.5969"/>
</g>
</g>
</svg>
