<?xml version="1.0" encoding="UTF-8" standalone="no"?>
<!DOCTYPE svg PUBLIC "-//W3C//DTD SVG 1.1//EN"
 "http://www.w3.org/Graphics/SVG/1.1/DTD/svg11.dtd">
<!-- Generated by graphviz version 2.40.1 (20161225.0304)
 -->
<!-- Title: ValueFromAmount Pages: 1 -->
<svg width="399pt" height="66pt"
 viewBox="0.00 0.00 399.00 66.00" xmlns="http://www.w3.org/2000/svg" xmlns:xlink="http://www.w3.org/1999/xlink">
<g id="graph0" class="graph" transform="scale(1 1) rotate(0) translate(4 62)">
<title>ValueFromAmount</title>
<polygon fill="#ffffff" stroke="transparent" points="-4,4 -4,-62 395,-62 395,4 -4,4"/>
<!-- Node258 -->
<g id="node1" class="node">
<title>Node258</title>
<polygon fill="#bfbfbf" stroke="#000000" points="0,-19.5 0,-38.5 98,-38.5 98,-19.5 0,-19.5"/>
<text text-anchor="middle" x="49" y="-26.5" font-family="Helvetica,sans-Serif" font-size="10.00" fill="#000000">ValueFromAmount</text>
</g>
<!-- Node259 -->
<g id="node2" class="node">
<title>Node259</title>
<g id="a_node2"><a xlink:href="core__write_8cpp.html#abc2098ba1668716081af5f153e059569" target="_top" xlink:title="ValueFromAmount">
<polygon fill="#ffffff" stroke="#000000" points="134,-19.5 134,-38.5 232,-38.5 232,-19.5 134,-19.5"/>
<text text-anchor="middle" x="183" y="-26.5" font-family="Helvetica,sans-Serif" font-size="10.00" fill="#000000">ValueFromAmount</text>
</a>
</g>
</g>
<!-- Node258&#45;&gt;Node259 -->
<g id="edge1" class="edge">
<title>Node258&#45;&gt;Node259</title>
<path fill="none" stroke="#191970" d="M98.1358,-29C106.4198,-29 115.097,-29 123.6082,-29"/>
<polygon fill="#191970" stroke="#191970" points="123.8702,-32.5001 133.8702,-29 123.8701,-25.5001 123.8702,-32.5001"/>
</g>
<!-- Node260 -->
<g id="node3" class="node">
<title>Node260</title>
<g id="a_node3"><a xlink:href="class_uni_value.html#aa554610302e7e028dcdc78dcdf87d410" target="_top" xlink:title="UniValue::UniValue">
<polygon fill="#ffffff" stroke="#000000" points="278.5,-38.5 278.5,-57.5 380.5,-57.5 380.5,-38.5 278.5,-38.5"/>
<text text-anchor="middle" x="329.5" y="-45.5" font-family="Helvetica,sans-Serif" font-size="10.00" fill="#000000">UniValue::UniValue</text>
</a>
</g>
</g>
<!-- Node259&#45;&gt;Node260 -->
<g id="edge2" class="edge">
<title>Node259&#45;&gt;Node260</title>
<path fill="none" stroke="#191970" d="M232.1899,-35.3796C243.8144,-36.8872 256.3483,-38.5127 268.4276,-40.0793"/>
<polygon fill="#191970" stroke="#191970" points="268.0702,-43.5622 278.4374,-41.3775 268.9706,-36.6204 268.0702,-43.5622"/>
</g>
<!-- Node261 -->
<g id="node4" class="node">
<title>Node261</title>
<g id="a_node4"><a xlink:href="core__write_8cpp.html#adf3de7349a7c8d2c30da429c92e4c881" target="_top" xlink:title="ValueFromAmountString">
<polygon fill="#ffffff" stroke="#000000" points="268,-.5 268,-19.5 391,-19.5 391,-.5 268,-.5"/>
<text text-anchor="middle" x="329.5" y="-7.5" font-family="Helvetica,sans-Serif" font-size="10.00" fill="#000000">ValueFromAmountString</text>
</a>
</g>
</g>
<!-- Node259&#45;&gt;Node261 -->
<g id="edge3" class="edge">
<title>Node259&#45;&gt;Node261</title>
<path fill="none" stroke="#191970" d="M232.1899,-22.6204C240.4348,-21.5511 249.1373,-20.4225 257.8105,-19.2976"/>
<polygon fill="#191970" stroke="#191970" points="258.4828,-22.7398 267.9496,-17.9826 257.5824,-15.798 258.4828,-22.7398"/>
</g>
</g>
</svg>
