<?xml version="1.0" encoding="UTF-8" standalone="no"?>
<!DOCTYPE svg PUBLIC "-//W3C//DTD SVG 1.1//EN"
 "http://www.w3.org/Graphics/SVG/1.1/DTD/svg11.dtd">
<!-- Generated by graphviz version 2.40.1 (20161225.0304)
 -->
<!-- Title: src/core_memusage.h Pages: 1 -->
<svg width="1519pt" height="420pt"
 viewBox="0.00 0.00 1519.00 420.00" xmlns="http://www.w3.org/2000/svg" xmlns:xlink="http://www.w3.org/1999/xlink">
<g id="graph0" class="graph" transform="scale(1 1) rotate(0) translate(4 416)">
<title>src/core_memusage.h</title>
<polygon fill="#ffffff" stroke="transparent" points="-4,4 -4,-416 1515,-416 1515,4 -4,4"/>
<!-- Node0 -->
<g id="node1" class="node">
<title>Node0</title>
<polygon fill="#bfbfbf" stroke="#000000" points="622.5,-392.5 622.5,-411.5 735.5,-411.5 735.5,-392.5 622.5,-392.5"/>
<text text-anchor="middle" x="679" y="-399.5" font-family="Helvetica,sans-Serif" font-size="10.00" fill="#000000">src/core_memusage.h</text>
</g>
<!-- Node1 -->
<g id="node2" class="node">
<title>Node1</title>
<g id="a_node2"><a xlink:href="transaction_8h.html" target="_top" xlink:title="primitives/transaction.h">
<polygon fill="#ffffff" stroke="#000000" points="533,-280.5 533,-299.5 651,-299.5 651,-280.5 533,-280.5"/>
<text text-anchor="middle" x="592" y="-287.5" font-family="Helvetica,sans-Serif" font-size="10.00" fill="#000000">primitives/transaction.h</text>
</a>
</g>
</g>
<!-- Node0&#45;&gt;Node1 -->
<g id="edge1" class="edge">
<title>Node0&#45;&gt;Node1</title>
<path fill="none" stroke="#191970" d="M664.43,-392.4414C652.3982,-383.9812 635.4903,-370.718 624,-356 612.8847,-341.7625 604.2629,-323.0402 598.7837,-309.174"/>
<polygon fill="#191970" stroke="#191970" points="602.008,-307.8039 595.2171,-299.6716 595.4544,-310.2638 602.008,-307.8039"/>
</g>
<!-- Node28 -->
<g id="node29" class="node">
<title>Node28</title>
<g id="a_node29"><a xlink:href="block_8h.html" target="_top" xlink:title="primitives/block.h">
<polygon fill="#ffffff" stroke="#000000" points="632.5,-336.5 632.5,-355.5 725.5,-355.5 725.5,-336.5 632.5,-336.5"/>
<text text-anchor="middle" x="679" y="-343.5" font-family="Helvetica,sans-Serif" font-size="10.00" fill="#000000">primitives/block.h</text>
</a>
</g>
</g>
<!-- Node0&#45;&gt;Node28 -->
<g id="edge53" class="edge">
<title>Node0&#45;&gt;Node28</title>
<path fill="none" stroke="#191970" d="M679,-392.2455C679,-384.9382 679,-374.6944 679,-365.7046"/>
<polygon fill="#191970" stroke="#191970" points="682.5001,-365.6426 679,-355.6427 675.5001,-365.6427 682.5001,-365.6426"/>
</g>
<!-- Node29 -->
<g id="node30" class="node">
<title>Node29</title>
<g id="a_node30"><a xlink:href="memusage_8h.html" target="_top" xlink:title="memusage.h">
<polygon fill="#ffffff" stroke="#000000" points="1264.5,-168.5 1264.5,-187.5 1337.5,-187.5 1337.5,-168.5 1264.5,-168.5"/>
<text text-anchor="middle" x="1301" y="-175.5" font-family="Helvetica,sans-Serif" font-size="10.00" fill="#000000">memusage.h</text>
</a>
</g>
</g>
<!-- Node0&#45;&gt;Node29 -->
<g id="edge57" class="edge">
<title>Node0&#45;&gt;Node29</title>
<path fill="none" stroke="#191970" d="M705.7266,-392.375C804.816,-356.69 1151.3226,-231.9031 1264.7528,-191.0537"/>
<polygon fill="#191970" stroke="#191970" points="1266.1504,-194.2704 1274.373,-187.5891 1263.7786,-187.6845 1266.1504,-194.2704"/>
</g>
<!-- Node2 -->
<g id="node3" class="node">
<title>Node2</title>
<polygon fill="#ffffff" stroke="#bfbfbf" points="226.5,-.5 226.5,-19.5 275.5,-19.5 275.5,-.5 226.5,-.5"/>
<text text-anchor="middle" x="251" y="-7.5" font-family="Helvetica,sans-Serif" font-size="10.00" fill="#000000">stdint.h</text>
</g>
<!-- Node1&#45;&gt;Node2 -->
<g id="edge2" class="edge">
<title>Node1&#45;&gt;Node2</title>
<path fill="none" stroke="#191970" d="M532.7996,-284.9919C382.8679,-271.517 0,-231.8368 0,-178 0,-178 0,-178 0,-122 0,-77.5978 35.7943,-76.8439 75,-56 120.431,-31.8464 179.3181,-19.8053 216.1347,-14.2422"/>
<polygon fill="#191970" stroke="#191970" points="216.955,-17.6605 226.3581,-12.7787 215.963,-10.7312 216.955,-17.6605"/>
</g>
<!-- Node3 -->
<g id="node4" class="node">
<title>Node3</title>
<g id="a_node4"><a xlink:href="amount_8h.html" target="_top" xlink:title="amount.h">
<polygon fill="#ffffff" stroke="#000000" points="28.5,-168.5 28.5,-187.5 85.5,-187.5 85.5,-168.5 28.5,-168.5"/>
<text text-anchor="middle" x="57" y="-175.5" font-family="Helvetica,sans-Serif" font-size="10.00" fill="#000000">amount.h</text>
</a>
</g>
</g>
<!-- Node1&#45;&gt;Node3 -->
<g id="edge3" class="edge">
<title>Node1&#45;&gt;Node3</title>
<path fill="none" stroke="#191970" d="M544.0781,-280.4637C456.0022,-262.8481 262.5139,-223.7375 100,-188 98.5497,-187.6811 97.0725,-187.3531 95.581,-187.0194"/>
<polygon fill="#191970" stroke="#191970" points="96.1862,-183.5677 85.6593,-184.7661 94.6359,-190.3939 96.1862,-183.5677"/>
</g>
<!-- Node4 -->
<g id="node5" class="node">
<title>Node4</title>
<g id="a_node5"><a xlink:href="script_8h.html" target="_top" xlink:title="script/script.h">
<polygon fill="#ffffff" stroke="#000000" points="499,-224.5 499,-243.5 575,-243.5 575,-224.5 499,-224.5"/>
<text text-anchor="middle" x="537" y="-231.5" font-family="Helvetica,sans-Serif" font-size="10.00" fill="#000000">script/script.h</text>
</a>
</g>
</g>
<!-- Node1&#45;&gt;Node4 -->
<g id="edge5" class="edge">
<title>Node1&#45;&gt;Node4</title>
<path fill="none" stroke="#191970" d="M582.4197,-280.2455C574.4542,-272.1352 562.9359,-260.4075 553.4921,-250.7919"/>
<polygon fill="#191970" stroke="#191970" points="555.9747,-248.3247 546.4705,-243.6427 550.9805,-253.2297 555.9747,-248.3247"/>
</g>
<!-- Node14 -->
<g id="node15" class="node">
<title>Node14</title>
<g id="a_node15"><a xlink:href="serialize_8h.html" target="_top" xlink:title="serialize.h">
<polygon fill="#ffffff" stroke="#000000" points="598.5,-168.5 598.5,-187.5 659.5,-187.5 659.5,-168.5 598.5,-168.5"/>
<text text-anchor="middle" x="629" y="-175.5" font-family="Helvetica,sans-Serif" font-size="10.00" fill="#000000">serialize.h</text>
</a>
</g>
</g>
<!-- Node1&#45;&gt;Node14 -->
<g id="edge44" class="edge">
<title>Node1&#45;&gt;Node14</title>
<path fill="none" stroke="#191970" d="M595.1546,-280.4509C601.2438,-262.0186 614.7202,-221.2254 622.709,-197.043"/>
<polygon fill="#191970" stroke="#191970" points="626.0398,-198.1181 625.8534,-187.5249 619.3931,-195.9223 626.0398,-198.1181"/>
</g>
<!-- Node26 -->
<g id="node27" class="node">
<title>Node26</title>
<g id="a_node27"><a xlink:href="uint256_8h.html" target="_top" xlink:title="uint256.h">
<polygon fill="#ffffff" stroke="#000000" points="894,-224.5 894,-243.5 950,-243.5 950,-224.5 894,-224.5"/>
<text text-anchor="middle" x="922" y="-231.5" font-family="Helvetica,sans-Serif" font-size="10.00" fill="#000000">uint256.h</text>
</a>
</g>
</g>
<!-- Node1&#45;&gt;Node26 -->
<g id="edge45" class="edge">
<title>Node1&#45;&gt;Node26</title>
<path fill="none" stroke="#191970" d="M648.3541,-280.4369C715.421,-269.0558 825.5981,-250.3591 883.5754,-240.5205"/>
<polygon fill="#191970" stroke="#191970" points="884.4979,-243.9141 893.7714,-238.7903 883.3267,-237.0128 884.4979,-243.9141"/>
</g>
<!-- Node3&#45;&gt;Node2 -->
<g id="edge4" class="edge">
<title>Node3&#45;&gt;Node2</title>
<path fill="none" stroke="#191970" d="M56.9115,-168.2079C57.2543,-145.2426 61.3998,-87.4857 93,-56 110.3512,-38.7117 175.3425,-23.9457 216.371,-16.0793"/>
<polygon fill="#191970" stroke="#191970" points="217.0573,-19.5117 226.2421,-14.2306 215.7687,-12.6313 217.0573,-19.5117"/>
</g>
<!-- Node4&#45;&gt;Node2 -->
<g id="edge40" class="edge">
<title>Node4&#45;&gt;Node2</title>
<path fill="none" stroke="#191970" d="M498.8584,-232.4947C402.8586,-228.3161 157.1503,-215.0561 133,-188 109.9343,-162.159 50.0181,-190.2574 153,-56 168.5039,-35.7876 195.0607,-24.0836 216.621,-17.5443"/>
<polygon fill="#191970" stroke="#191970" points="217.7313,-20.8684 226.4249,-14.8128 215.8524,-14.1252 217.7313,-20.8684"/>
</g>
<!-- Node4&#45;&gt;Node3 -->
<g id="edge35" class="edge">
<title>Node4&#45;&gt;Node3</title>
<path fill="none" stroke="#191970" d="M498.7903,-231.5736C422.5587,-226.3816 246.3221,-212.6184 100,-188 98.5356,-187.7536 97.0465,-187.4872 95.545,-187.2053"/>
<polygon fill="#191970" stroke="#191970" points="96.0805,-183.7425 85.5818,-185.1661 94.6768,-190.6003 96.0805,-183.7425"/>
</g>
<!-- Node5 -->
<g id="node6" class="node">
<title>Node5</title>
<g id="a_node6"><a xlink:href="common_8h.html" target="_top" xlink:title="crypto/common.h">
<polygon fill="#ffffff" stroke="#000000" points="142,-168.5 142,-187.5 234,-187.5 234,-168.5 142,-168.5"/>
<text text-anchor="middle" x="188" y="-175.5" font-family="Helvetica,sans-Serif" font-size="10.00" fill="#000000">crypto/common.h</text>
</a>
</g>
</g>
<!-- Node4&#45;&gt;Node5 -->
<g id="edge6" class="edge">
<title>Node4&#45;&gt;Node5</title>
<path fill="none" stroke="#191970" d="M498.6523,-227.9875C443.2891,-219.2864 337.758,-202.623 248,-188 246.7395,-187.7946 245.4641,-187.5864 244.1782,-187.3759"/>
<polygon fill="#191970" stroke="#191970" points="244.6177,-183.9012 234.1822,-185.7319 243.4816,-190.8085 244.6177,-183.9012"/>
</g>
<!-- Node6 -->
<g id="node7" class="node">
<title>Node6</title>
<polygon fill="#ffffff" stroke="#bfbfbf" points="173.5,-56.5 173.5,-75.5 222.5,-75.5 222.5,-56.5 173.5,-56.5"/>
<text text-anchor="middle" x="198" y="-63.5" font-family="Helvetica,sans-Serif" font-size="10.00" fill="#000000">string.h</text>
</g>
<!-- Node4&#45;&gt;Node6 -->
<g id="edge41" class="edge">
<title>Node4&#45;&gt;Node6</title>
<path fill="none" stroke="#191970" d="M498.6394,-228.9335C438.2666,-219.301 319.8489,-193.5247 241,-132 225.0564,-119.5594 213.1845,-99.4693 206.0001,-84.7179"/>
<polygon fill="#191970" stroke="#191970" points="209.1316,-83.1498 201.7828,-75.5179 202.7683,-86.0669 209.1316,-83.1498"/>
</g>
<!-- Node9 -->
<g id="node10" class="node">
<title>Node9</title>
<g id="a_node10"><a xlink:href="prevector_8h.html" target="_top" xlink:title="prevector.h">
<polygon fill="#ffffff" stroke="#000000" points="433.5,-112.5 433.5,-131.5 498.5,-131.5 498.5,-112.5 433.5,-112.5"/>
<text text-anchor="middle" x="466" y="-119.5" font-family="Helvetica,sans-Serif" font-size="10.00" fill="#000000">prevector.h</text>
</a>
</g>
</g>
<!-- Node4&#45;&gt;Node9 -->
<g id="edge13" class="edge">
<title>Node4&#45;&gt;Node9</title>
<path fill="none" stroke="#191970" d="M530.9466,-224.4509C519.1046,-205.7707 492.7035,-164.1238 477.459,-140.0761"/>
<polygon fill="#191970" stroke="#191970" points="480.3483,-138.0969 472.0381,-131.5249 474.4362,-141.8448 480.3483,-138.0969"/>
</g>
<!-- Node10 -->
<g id="node11" class="node">
<title>Node10</title>
<polygon fill="#ffffff" stroke="#bfbfbf" points="583,-56.5 583,-75.5 635,-75.5 635,-56.5 583,-56.5"/>
<text text-anchor="middle" x="609" y="-63.5" font-family="Helvetica,sans-Serif" font-size="10.00" fill="#000000">assert.h</text>
</g>
<!-- Node4&#45;&gt;Node10 -->
<g id="edge36" class="edge">
<title>Node4&#45;&gt;Node10</title>
<path fill="none" stroke="#191970" d="M515.9984,-224.4868C474.7434,-204.516 390.0542,-156.3946 425,-112 465.2457,-60.8724 504.4373,-90.4052 572.8137,-75.9905"/>
<polygon fill="#191970" stroke="#191970" points="573.7384,-79.3683 582.6588,-73.6519 572.1206,-72.5578 573.7384,-79.3683"/>
</g>
<!-- Node4&#45;&gt;Node14 -->
<g id="edge20" class="edge">
<title>Node4&#45;&gt;Node14</title>
<path fill="none" stroke="#191970" d="M553.0252,-224.2455C567.1408,-215.6534 587.9263,-203.0014 604.1899,-193.1018"/>
<polygon fill="#191970" stroke="#191970" points="606.4363,-195.8319 613.1585,-187.6427 602.7966,-189.8525 606.4363,-195.8319"/>
</g>
<!-- Node17 -->
<g id="node18" class="node">
<title>Node17</title>
<polygon fill="#ffffff" stroke="#bfbfbf" points="517,-112.5 517,-131.5 557,-131.5 557,-112.5 517,-112.5"/>
<text text-anchor="middle" x="537" y="-119.5" font-family="Helvetica,sans-Serif" font-size="10.00" fill="#000000">limits</text>
</g>
<!-- Node4&#45;&gt;Node17 -->
<g id="edge38" class="edge">
<title>Node4&#45;&gt;Node17</title>
<path fill="none" stroke="#191970" d="M537,-224.4509C537,-206.184 537,-165.9553 537,-141.6976"/>
<polygon fill="#191970" stroke="#191970" points="540.5001,-141.5249 537,-131.5249 533.5001,-141.5249 540.5001,-141.5249"/>
</g>
<!-- Node21 -->
<g id="node22" class="node">
<title>Node21</title>
<polygon fill="#ffffff" stroke="#bfbfbf" points="901.5,-112.5 901.5,-131.5 942.5,-131.5 942.5,-112.5 901.5,-112.5"/>
<text text-anchor="middle" x="922" y="-119.5" font-family="Helvetica,sans-Serif" font-size="10.00" fill="#000000">string</text>
</g>
<!-- Node4&#45;&gt;Node21 -->
<g id="edge42" class="edge">
<title>Node4&#45;&gt;Node21</title>
<path fill="none" stroke="#191970" d="M567.2001,-224.4304C594.163,-215.6614 634.5922,-201.9564 669,-188 688.5316,-180.0777 691.9689,-174.5576 712,-168 786.5065,-143.6088 811.2217,-152.1881 891.3868,-131.8533"/>
<polygon fill="#191970" stroke="#191970" points="892.6543,-135.1397 901.445,-129.2259 890.8851,-128.367 892.6543,-135.1397"/>
</g>
<!-- Node23 -->
<g id="node24" class="node">
<title>Node23</title>
<polygon fill="#ffffff" stroke="#bfbfbf" points="1062,-112.5 1062,-131.5 1106,-131.5 1106,-112.5 1062,-112.5"/>
<text text-anchor="middle" x="1084" y="-119.5" font-family="Helvetica,sans-Serif" font-size="10.00" fill="#000000">vector</text>
</g>
<!-- Node4&#45;&gt;Node23 -->
<g id="edge43" class="edge">
<title>Node4&#45;&gt;Node23</title>
<path fill="none" stroke="#191970" d="M575.0737,-225.5323C609.3183,-217.4428 660.7423,-204.1147 704,-188 723.3743,-180.7825 726.1334,-173.7251 746,-168 874.9134,-130.8501 916.805,-159.7995 1051.9008,-131.8504"/>
<polygon fill="#191970" stroke="#191970" points="1052.7429,-135.2496 1061.7913,-129.738 1051.2808,-128.4039 1052.7429,-135.2496"/>
</g>
<!-- Node24 -->
<g id="node25" class="node">
<title>Node24</title>
<polygon fill="#ffffff" stroke="#bfbfbf" points="754.5,-168.5 754.5,-187.5 799.5,-187.5 799.5,-168.5 754.5,-168.5"/>
<text text-anchor="middle" x="777" y="-175.5" font-family="Helvetica,sans-Serif" font-size="10.00" fill="#000000">climits</text>
</g>
<!-- Node4&#45;&gt;Node24 -->
<g id="edge37" class="edge">
<title>Node4&#45;&gt;Node24</title>
<path fill="none" stroke="#191970" d="M575.2734,-225.8189C616.1667,-216.963 682.8336,-202.1958 740,-188 741.453,-187.6392 742.9365,-187.2645 744.4337,-186.8813"/>
<polygon fill="#191970" stroke="#191970" points="745.5556,-190.2055 754.3401,-184.2824 743.7793,-183.4346 745.5556,-190.2055"/>
</g>
<!-- Node25 -->
<g id="node26" class="node">
<title>Node25</title>
<polygon fill="#ffffff" stroke="#bfbfbf" points="828.5,-168.5 828.5,-187.5 887.5,-187.5 887.5,-168.5 828.5,-168.5"/>
<text text-anchor="middle" x="858" y="-175.5" font-family="Helvetica,sans-Serif" font-size="10.00" fill="#000000">stdexcept</text>
</g>
<!-- Node4&#45;&gt;Node25 -->
<g id="edge39" class="edge">
<title>Node4&#45;&gt;Node25</title>
<path fill="none" stroke="#191970" d="M575.3608,-227.9315C628.0948,-219.4937 725.9028,-203.5013 809,-188 812.0593,-187.4293 815.2225,-186.8224 818.4005,-186.2006"/>
<polygon fill="#191970" stroke="#191970" points="819.3694,-189.5764 828.4927,-184.1898 818.0016,-182.7113 819.3694,-189.5764"/>
</g>
<!-- Node5&#45;&gt;Node2 -->
<g id="edge7" class="edge">
<title>Node5&#45;&gt;Node2</title>
<path fill="none" stroke="#191970" d="M181.8589,-168.3492C168.9015,-146.6419 141.7213,-92.9807 164,-56 175.4121,-37.057 197.5252,-25.5099 216.6006,-18.7226"/>
<polygon fill="#191970" stroke="#191970" points="217.7984,-22.0136 226.2262,-15.5932 215.634,-15.3566 217.7984,-22.0136"/>
</g>
<!-- Node5&#45;&gt;Node6 -->
<g id="edge8" class="edge">
<title>Node5&#45;&gt;Node6</title>
<path fill="none" stroke="#191970" d="M188.8526,-168.4509C190.4836,-150.184 194.0754,-109.9553 196.2413,-85.6976"/>
<polygon fill="#191970" stroke="#191970" points="199.7463,-85.7966 197.1496,-75.5249 192.774,-85.174 199.7463,-85.7966"/>
</g>
<!-- Node7 -->
<g id="node8" class="node">
<title>Node7</title>
<g id="a_node8"><a xlink:href="endian_8h.html" target="_top" xlink:title="compat/endian.h">
<polygon fill="#ffffff" stroke="#000000" points="249.5,-112.5 249.5,-131.5 338.5,-131.5 338.5,-112.5 249.5,-112.5"/>
<text text-anchor="middle" x="294" y="-119.5" font-family="Helvetica,sans-Serif" font-size="10.00" fill="#000000">compat/endian.h</text>
</a>
</g>
</g>
<!-- Node5&#45;&gt;Node7 -->
<g id="edge9" class="edge">
<title>Node5&#45;&gt;Node7</title>
<path fill="none" stroke="#191970" d="M206.4638,-168.2455C223.1074,-159.4527 247.7993,-146.4079 266.7192,-136.4125"/>
<polygon fill="#191970" stroke="#191970" points="268.5408,-139.4086 275.7478,-131.6427 265.2709,-133.2193 268.5408,-139.4086"/>
</g>
<!-- Node7&#45;&gt;Node2 -->
<g id="edge12" class="edge">
<title>Node7&#45;&gt;Node2</title>
<path fill="none" stroke="#191970" d="M288.2642,-112.3987C282.9902,-103.2742 275.2199,-89.0465 270,-76 263.9097,-60.7781 258.8805,-42.8677 255.5295,-29.5482"/>
<polygon fill="#191970" stroke="#191970" points="258.876,-28.4961 253.1229,-19.5994 252.0722,-30.142 258.876,-28.4961"/>
</g>
<!-- Node8 -->
<g id="node9" class="node">
<title>Node8</title>
<g id="a_node9"><a xlink:href="byteswap_8h.html" target="_top" xlink:title="compat/byteswap.h">
<polygon fill="#ffffff" stroke="#000000" points="279,-56.5 279,-75.5 381,-75.5 381,-56.5 279,-56.5"/>
<text text-anchor="middle" x="330" y="-63.5" font-family="Helvetica,sans-Serif" font-size="10.00" fill="#000000">compat/byteswap.h</text>
</a>
</g>
</g>
<!-- Node7&#45;&gt;Node8 -->
<g id="edge10" class="edge">
<title>Node7&#45;&gt;Node8</title>
<path fill="none" stroke="#191970" d="M300.2707,-112.2455C305.2264,-104.5367 312.283,-93.5598 318.2776,-84.2348"/>
<polygon fill="#191970" stroke="#191970" points="321.3376,-85.9471 323.8011,-75.6427 315.4494,-82.1618 321.3376,-85.9471"/>
</g>
<!-- Node8&#45;&gt;Node2 -->
<g id="edge11" class="edge">
<title>Node8&#45;&gt;Node2</title>
<path fill="none" stroke="#191970" d="M316.2393,-56.2455C304.3448,-47.814 286.935,-35.4729 273.0915,-25.6598"/>
<polygon fill="#191970" stroke="#191970" points="274.7854,-22.5704 264.6031,-19.6427 270.7372,-28.2811 274.7854,-22.5704"/>
</g>
<!-- Node9&#45;&gt;Node2 -->
<g id="edge16" class="edge">
<title>Node9&#45;&gt;Node2</title>
<path fill="none" stroke="#191970" d="M457.111,-112.1164C443.8059,-97.8664 417.3392,-71.557 390,-56 356.8455,-37.1339 314.7955,-24.5792 285.6727,-17.4195"/>
<polygon fill="#191970" stroke="#191970" points="286.1063,-13.9254 275.5686,-15.0241 284.4915,-20.7366 286.1063,-13.9254"/>
</g>
<!-- Node9&#45;&gt;Node6 -->
<g id="edge17" class="edge">
<title>Node9&#45;&gt;Node6</title>
<path fill="none" stroke="#191970" d="M433.3879,-115.0418C428.5644,-114.0182 423.6532,-112.9793 419,-112 353.1019,-98.1315 276.0997,-82.156 232.5894,-73.1502"/>
<polygon fill="#191970" stroke="#191970" points="233.0366,-69.6687 222.5348,-71.0698 231.6182,-76.5235 233.0366,-69.6687"/>
</g>
<!-- Node9&#45;&gt;Node10 -->
<g id="edge14" class="edge">
<title>Node9&#45;&gt;Node10</title>
<path fill="none" stroke="#191970" d="M490.5826,-112.3733C513.9496,-103.2226 549.2862,-89.3844 575.2784,-79.2057"/>
<polygon fill="#191970" stroke="#191970" points="576.703,-82.4066 584.7382,-75.5011 574.1505,-75.8886 576.703,-82.4066"/>
</g>
<!-- Node11 -->
<g id="node12" class="node">
<title>Node11</title>
<polygon fill="#ffffff" stroke="#bfbfbf" points="653,-56.5 653,-75.5 701,-75.5 701,-56.5 653,-56.5"/>
<text text-anchor="middle" x="677" y="-63.5" font-family="Helvetica,sans-Serif" font-size="10.00" fill="#000000">stdlib.h</text>
</g>
<!-- Node9&#45;&gt;Node11 -->
<g id="edge15" class="edge">
<title>Node9&#45;&gt;Node11</title>
<path fill="none" stroke="#191970" d="M498.5891,-114.0077C532.4088,-105.6191 587.0549,-91.8019 643.1389,-76.1651"/>
<polygon fill="#191970" stroke="#191970" points="644.1989,-79.5029 652.8831,-73.4337 642.3096,-72.7627 644.1989,-79.5029"/>
</g>
<!-- Node12 -->
<g id="node13" class="node">
<title>Node12</title>
<polygon fill="#ffffff" stroke="#bfbfbf" points="437.5,-56.5 437.5,-75.5 484.5,-75.5 484.5,-56.5 437.5,-56.5"/>
<text text-anchor="middle" x="461" y="-63.5" font-family="Helvetica,sans-Serif" font-size="10.00" fill="#000000">iterator</text>
</g>
<!-- Node9&#45;&gt;Node12 -->
<g id="edge18" class="edge">
<title>Node9&#45;&gt;Node12</title>
<path fill="none" stroke="#191970" d="M465.1291,-112.2455C464.4766,-104.9382 463.562,-94.6944 462.7593,-85.7046"/>
<polygon fill="#191970" stroke="#191970" points="466.2365,-85.2918 461.861,-75.6427 459.2642,-85.9143 466.2365,-85.2918"/>
</g>
<!-- Node13 -->
<g id="node14" class="node">
<title>Node13</title>
<polygon fill="#ffffff" stroke="#bfbfbf" points="503,-56.5 503,-75.5 565,-75.5 565,-56.5 503,-56.5"/>
<text text-anchor="middle" x="534" y="-63.5" font-family="Helvetica,sans-Serif" font-size="10.00" fill="#000000">type_traits</text>
</g>
<!-- Node9&#45;&gt;Node13 -->
<g id="edge19" class="edge">
<title>Node9&#45;&gt;Node13</title>
<path fill="none" stroke="#191970" d="M477.8447,-112.2455C487.888,-103.9746 502.4995,-91.9416 514.3004,-82.2232"/>
<polygon fill="#191970" stroke="#191970" points="516.7967,-84.7015 522.291,-75.6427 512.3467,-79.298 516.7967,-84.7015"/>
</g>
<!-- Node14&#45;&gt;Node2 -->
<g id="edge29" class="edge">
<title>Node14&#45;&gt;Node2</title>
<path fill="none" stroke="#191970" d="M628.4413,-168.4639C628.1273,-154.6467 629.4599,-128.8713 642,-112 662.3996,-84.5548 692.3614,-105.2961 710,-76 714.5849,-68.3848 715.9638,-62.5913 710,-56 681.652,-24.669 388.1317,-13.7341 285.8884,-10.8592"/>
<polygon fill="#191970" stroke="#191970" points="285.8639,-7.3574 275.7723,-10.5837 285.6733,-14.3548 285.8639,-7.3574"/>
</g>
<!-- Node14&#45;&gt;Node6 -->
<g id="edge31" class="edge">
<title>Node14&#45;&gt;Node6</title>
<path fill="none" stroke="#191970" d="M598.4458,-171.7198C558.4308,-163.3559 486.1713,-147.7738 425,-132 356.238,-114.2689 276.7308,-90.3569 232.4136,-76.7185"/>
<polygon fill="#191970" stroke="#191970" points="233.3071,-73.3314 222.7196,-73.7262 231.2424,-80.02 233.3071,-73.3314"/>
</g>
<!-- Node14&#45;&gt;Node7 -->
<g id="edge21" class="edge">
<title>Node14&#45;&gt;Node7</title>
<path fill="none" stroke="#191970" d="M598.3829,-172.8819C541.7295,-163.4115 419.8494,-143.0375 348.6986,-131.1436"/>
<polygon fill="#191970" stroke="#191970" points="349.023,-127.6494 338.5828,-129.4526 347.8688,-134.5536 349.023,-127.6494"/>
</g>
<!-- Node14&#45;&gt;Node9 -->
<g id="edge34" class="edge">
<title>Node14&#45;&gt;Node9</title>
<path fill="none" stroke="#191970" d="M600.9793,-168.3733C573.9922,-159.1016 532.9983,-145.0178 503.2689,-134.804"/>
<polygon fill="#191970" stroke="#191970" points="504.2497,-131.4403 493.6551,-131.5011 501.9752,-138.0605 504.2497,-131.4403"/>
</g>
<!-- Node14&#45;&gt;Node10 -->
<g id="edge23" class="edge">
<title>Node14&#45;&gt;Node10</title>
<path fill="none" stroke="#191970" d="M623.3055,-168.1646C618.4137,-159.1092 611.7308,-145.1298 609,-132 605.8239,-116.7291 606.0255,-99.0373 606.9107,-85.8169"/>
<polygon fill="#191970" stroke="#191970" points="610.4262,-85.7866 607.7969,-75.5232 603.452,-85.1861 610.4262,-85.7866"/>
</g>
<!-- Node15 -->
<g id="node16" class="node">
<title>Node15</title>
<polygon fill="#ffffff" stroke="#bfbfbf" points="651,-112.5 651,-131.5 707,-131.5 707,-112.5 651,-112.5"/>
<text text-anchor="middle" x="679" y="-119.5" font-family="Helvetica,sans-Serif" font-size="10.00" fill="#000000">algorithm</text>
</g>
<!-- Node14&#45;&gt;Node15 -->
<g id="edge22" class="edge">
<title>Node14&#45;&gt;Node15</title>
<path fill="none" stroke="#191970" d="M637.7093,-168.2455C644.8073,-160.2958 655.0084,-148.8706 663.495,-139.3656"/>
<polygon fill="#191970" stroke="#191970" points="666.3411,-141.4331 670.3905,-131.6427 661.1195,-136.771 666.3411,-141.4331"/>
</g>
<!-- Node16 -->
<g id="node17" class="node">
<title>Node16</title>
<polygon fill="#ffffff" stroke="#bfbfbf" points="725.5,-112.5 725.5,-131.5 754.5,-131.5 754.5,-112.5 725.5,-112.5"/>
<text text-anchor="middle" x="740" y="-119.5" font-family="Helvetica,sans-Serif" font-size="10.00" fill="#000000">ios</text>
</g>
<!-- Node14&#45;&gt;Node16 -->
<g id="edge24" class="edge">
<title>Node14&#45;&gt;Node16</title>
<path fill="none" stroke="#191970" d="M648.0816,-168.3733C667.0244,-158.8165 696.1013,-144.1471 716.466,-133.873"/>
<polygon fill="#191970" stroke="#191970" points="718.0595,-136.9893 725.4111,-129.3601 714.9065,-130.7396 718.0595,-136.9893"/>
</g>
<!-- Node14&#45;&gt;Node17 -->
<g id="edge25" class="edge">
<title>Node14&#45;&gt;Node17</title>
<path fill="none" stroke="#191970" d="M612.9748,-168.2455C598.8592,-159.6534 578.0737,-147.0014 561.8101,-137.1018"/>
<polygon fill="#191970" stroke="#191970" points="563.2034,-133.8525 552.8415,-131.6427 559.5637,-139.8319 563.2034,-133.8525"/>
</g>
<!-- Node18 -->
<g id="node19" class="node">
<title>Node18</title>
<polygon fill="#ffffff" stroke="#bfbfbf" points="960.5,-112.5 960.5,-131.5 995.5,-131.5 995.5,-112.5 960.5,-112.5"/>
<text text-anchor="middle" x="978" y="-119.5" font-family="Helvetica,sans-Serif" font-size="10.00" fill="#000000">map</text>
</g>
<!-- Node14&#45;&gt;Node18 -->
<g id="edge26" class="edge">
<title>Node14&#45;&gt;Node18</title>
<path fill="none" stroke="#191970" d="M659.5534,-174.0487C729.3314,-164.9716 897.9089,-142.7258 950.4372,-131.7199"/>
<polygon fill="#191970" stroke="#191970" points="951.3275,-135.1063 960.2711,-129.4262 949.7374,-128.2892 951.3275,-135.1063"/>
</g>
<!-- Node19 -->
<g id="node20" class="node">
<title>Node19</title>
<polygon fill="#ffffff" stroke="#bfbfbf" points="773,-112.5 773,-131.5 825,-131.5 825,-112.5 773,-112.5"/>
<text text-anchor="middle" x="799" y="-119.5" font-family="Helvetica,sans-Serif" font-size="10.00" fill="#000000">memory</text>
</g>
<!-- Node14&#45;&gt;Node19 -->
<g id="edge27" class="edge">
<title>Node14&#45;&gt;Node19</title>
<path fill="none" stroke="#191970" d="M658.224,-168.3733C687.3491,-158.7791 732.1164,-144.0323 763.3223,-133.7527"/>
<polygon fill="#191970" stroke="#191970" points="764.5377,-137.0374 772.9406,-130.5843 762.3475,-130.3888 764.5377,-137.0374"/>
</g>
<!-- Node20 -->
<g id="node21" class="node">
<title>Node20</title>
<polygon fill="#ffffff" stroke="#bfbfbf" points="1014,-112.5 1014,-131.5 1044,-131.5 1044,-112.5 1014,-112.5"/>
<text text-anchor="middle" x="1029" y="-119.5" font-family="Helvetica,sans-Serif" font-size="10.00" fill="#000000">set</text>
</g>
<!-- Node14&#45;&gt;Node20 -->
<g id="edge28" class="edge">
<title>Node14&#45;&gt;Node20</title>
<path fill="none" stroke="#191970" d="M659.697,-174.3002C740.1767,-164.5938 954.0494,-138.7558 1003.9876,-130.8551"/>
<polygon fill="#191970" stroke="#191970" points="1004.7938,-134.2652 1013.9819,-128.9898 1003.5095,-127.384 1004.7938,-134.2652"/>
</g>
<!-- Node14&#45;&gt;Node21 -->
<g id="edge30" class="edge">
<title>Node14&#45;&gt;Node21</title>
<path fill="none" stroke="#191970" d="M659.9386,-170.8901C664.6407,-169.8776 669.4428,-168.882 674,-168 767.3052,-149.9428 794.9113,-155.2231 891.5774,-131.7607"/>
<polygon fill="#191970" stroke="#191970" points="892.599,-135.1137 901.469,-129.3193 890.9216,-128.3176 892.599,-135.1137"/>
</g>
<!-- Node22 -->
<g id="node23" class="node">
<title>Node22</title>
<polygon fill="#ffffff" stroke="#bfbfbf" points="843,-112.5 843,-131.5 883,-131.5 883,-112.5 843,-112.5"/>
<text text-anchor="middle" x="863" y="-119.5" font-family="Helvetica,sans-Serif" font-size="10.00" fill="#000000">utility</text>
</g>
<!-- Node14&#45;&gt;Node22 -->
<g id="edge32" class="edge">
<title>Node14&#45;&gt;Node22</title>
<path fill="none" stroke="#191970" d="M659.8027,-171.1344C708.7486,-160.2193 801.3997,-139.5337 833.0866,-131.795"/>
<polygon fill="#191970" stroke="#191970" points="834.0027,-135.1733 842.8096,-129.2836 832.252,-128.3957 834.0027,-135.1733"/>
</g>
<!-- Node14&#45;&gt;Node23 -->
<g id="edge33" class="edge">
<title>Node14&#45;&gt;Node23</title>
<path fill="none" stroke="#191970" d="M659.7325,-174.188C675.3745,-172.2755 694.6935,-169.956 712,-168 860.1802,-151.2526 902.116,-163.031 1051.7818,-131.8841"/>
<polygon fill="#191970" stroke="#191970" points="1052.7366,-135.2597 1061.7981,-129.7696 1051.2907,-128.4107 1052.7366,-135.2597"/>
</g>
<!-- Node26&#45;&gt;Node2 -->
<g id="edge49" class="edge">
<title>Node26&#45;&gt;Node2</title>
<path fill="none" stroke="#191970" d="M950.1685,-228.297C1015.4635,-213.8926 1167.7018,-172.8097 1115,-112 1059.6946,-48.1861 441.6819,-18.0255 286.29,-11.419"/>
<polygon fill="#191970" stroke="#191970" points="286.0533,-7.9061 275.9153,-10.9839 285.7599,-14.8999 286.0533,-7.9061"/>
</g>
<!-- Node26&#45;&gt;Node5 -->
<g id="edge52" class="edge">
<title>Node26&#45;&gt;Node5</title>
<path fill="none" stroke="#191970" d="M893.6761,-231.839C784.8439,-223.5358 392.2724,-193.5848 244.6514,-182.3222"/>
<polygon fill="#191970" stroke="#191970" points="244.6906,-178.8151 234.4533,-181.5441 244.158,-185.7948 244.6906,-178.8151"/>
</g>
<!-- Node26&#45;&gt;Node10 -->
<g id="edge46" class="edge">
<title>Node26&#45;&gt;Node10</title>
<path fill="none" stroke="#191970" d="M950.424,-228.068C1016.2864,-213.1551 1169.6892,-171.0288 1115,-112 1080.9315,-75.2281 729.431,-84.3017 645.2785,-75.4823"/>
<polygon fill="#191970" stroke="#191970" points="645.6209,-71.9966 635.2395,-74.1124 644.6744,-78.9324 645.6209,-71.9966"/>
</g>
<!-- Node26&#45;&gt;Node21 -->
<g id="edge50" class="edge">
<title>Node26&#45;&gt;Node21</title>
<path fill="none" stroke="#191970" d="M922,-224.4509C922,-206.184 922,-165.9553 922,-141.6976"/>
<polygon fill="#191970" stroke="#191970" points="925.5001,-141.5249 922,-131.5249 918.5001,-141.5249 925.5001,-141.5249"/>
</g>
<!-- Node26&#45;&gt;Node23 -->
<g id="edge51" class="edge">
<title>Node26&#45;&gt;Node23</title>
<path fill="none" stroke="#191970" d="M935.812,-224.4509C963.9077,-205.0268 1027.9215,-160.7703 1061.8848,-137.2895"/>
<polygon fill="#191970" stroke="#191970" points="1063.9877,-140.0907 1070.2229,-131.5249 1060.0069,-134.3328 1063.9877,-140.0907"/>
</g>
<!-- Node26&#45;&gt;Node25 -->
<g id="edge48" class="edge">
<title>Node26&#45;&gt;Node25</title>
<path fill="none" stroke="#191970" d="M910.8521,-224.2455C901.4913,-216.0549 887.9142,-204.1749 876.8651,-194.5069"/>
<polygon fill="#191970" stroke="#191970" points="878.8508,-191.5937 869.0202,-187.6427 874.2412,-196.8618 878.8508,-191.5937"/>
</g>
<!-- Node27 -->
<g id="node28" class="node">
<title>Node27</title>
<polygon fill="#ffffff" stroke="#bfbfbf" points="1200,-168.5 1200,-187.5 1246,-187.5 1246,-168.5 1200,-168.5"/>
<text text-anchor="middle" x="1223" y="-175.5" font-family="Helvetica,sans-Serif" font-size="10.00" fill="#000000">cstring</text>
</g>
<!-- Node26&#45;&gt;Node27 -->
<g id="edge47" class="edge">
<title>Node26&#45;&gt;Node27</title>
<path fill="none" stroke="#191970" d="M950.2976,-229.9387C998.8037,-222.7836 1100.8368,-206.8866 1186,-188 1187.279,-187.7164 1188.58,-187.4172 1189.8922,-187.1066"/>
<polygon fill="#191970" stroke="#191970" points="1191.143,-190.4012 1199.988,-184.5688 1189.4364,-183.6124 1191.143,-190.4012"/>
</g>
<!-- Node28&#45;&gt;Node1 -->
<g id="edge54" class="edge">
<title>Node28&#45;&gt;Node1</title>
<path fill="none" stroke="#191970" d="M663.8458,-336.2455C650.4973,-327.6534 630.8414,-315.0014 615.4617,-305.1018"/>
<polygon fill="#191970" stroke="#191970" points="617.2836,-302.1121 606.9806,-299.6427 613.4949,-307.9982 617.2836,-302.1121"/>
</g>
<!-- Node28&#45;&gt;Node14 -->
<g id="edge55" class="edge">
<title>Node28&#45;&gt;Node14</title>
<path fill="none" stroke="#191970" d="M676.2125,-336.1468C672.5485,-323.2354 665.8865,-299.8946 660,-280 651.4537,-251.1159 641.2447,-217.7323 634.9412,-197.2443"/>
<polygon fill="#191970" stroke="#191970" points="638.2431,-196.0742 631.9533,-187.5484 631.5535,-198.1357 638.2431,-196.0742"/>
</g>
<!-- Node28&#45;&gt;Node26 -->
<g id="edge56" class="edge">
<title>Node28&#45;&gt;Node26</title>
<path fill="none" stroke="#191970" d="M699.718,-336.4509C742.7582,-316.6135 841.9926,-270.8758 892.0169,-247.8194"/>
<polygon fill="#191970" stroke="#191970" points="893.7177,-250.8894 901.3344,-243.5249 890.7875,-244.5322 893.7177,-250.8894"/>
</g>
<!-- Node29&#45;&gt;Node11 -->
<g id="edge59" class="edge">
<title>Node29&#45;&gt;Node11</title>
<path fill="none" stroke="#191970" d="M1286.1687,-168.4133C1260.1005,-151.7479 1206.8556,-118.579 1186,-112 1097.0091,-83.9276 810.6432,-70.9321 711.3136,-67.1891"/>
<polygon fill="#191970" stroke="#191970" points="711.3415,-63.6878 701.2192,-66.8165 711.0833,-70.6831 711.3415,-63.6878"/>
</g>
<!-- Node29&#45;&gt;Node18 -->
<g id="edge60" class="edge">
<title>Node29&#45;&gt;Node18</title>
<path fill="none" stroke="#191970" d="M1264.3885,-169.7954C1261.2187,-169.1597 1258.0562,-168.5515 1255,-168 1147.6558,-148.6286 1115.6034,-159.0181 1005.3888,-131.6029"/>
<polygon fill="#191970" stroke="#191970" points="1006.1025,-128.1732 995.549,-129.1078 1004.3819,-134.9585 1006.1025,-128.1732"/>
</g>
<!-- Node29&#45;&gt;Node20 -->
<g id="edge61" class="edge">
<title>Node29&#45;&gt;Node20</title>
<path fill="none" stroke="#191970" d="M1264.3676,-169.9061C1261.2023,-169.2463 1258.0466,-168.6024 1255,-168 1168.5974,-150.9155 1142.286,-157.2149 1053.699,-131.691"/>
<polygon fill="#191970" stroke="#191970" points="1054.6356,-128.3182 1044.0545,-128.8591 1052.6634,-135.0347 1054.6356,-128.3182"/>
</g>
<!-- Node29&#45;&gt;Node23 -->
<g id="edge62" class="edge">
<title>Node29&#45;&gt;Node23</title>
<path fill="none" stroke="#191970" d="M1264.1889,-168.5004C1222.5636,-157.7583 1155.4582,-140.4408 1115.9516,-130.2456"/>
<polygon fill="#191970" stroke="#191970" points="1116.6169,-126.8027 1106.0595,-127.6928 1114.8677,-133.5806 1116.6169,-126.8027"/>
</g>
<!-- Node30 -->
<g id="node31" class="node">
<title>Node30</title>
<g id="a_node31"><a xlink:href="indirectmap_8h.html" target="_top" xlink:title="indirectmap.h">
<polygon fill="#ffffff" stroke="#000000" points="1238.5,-112.5 1238.5,-131.5 1313.5,-131.5 1313.5,-112.5 1238.5,-112.5"/>
<text text-anchor="middle" x="1276" y="-119.5" font-family="Helvetica,sans-Serif" font-size="10.00" fill="#000000">indirectmap.h</text>
</a>
</g>
</g>
<!-- Node29&#45;&gt;Node30 -->
<g id="edge58" class="edge">
<title>Node29&#45;&gt;Node30</title>
<path fill="none" stroke="#191970" d="M1296.6453,-168.2455C1293.2756,-160.6973 1288.507,-150.0158 1284.4017,-140.8197"/>
<polygon fill="#191970" stroke="#191970" points="1287.5773,-139.3473 1280.3048,-131.6427 1281.1853,-142.2009 1287.5773,-139.3473"/>
</g>
<!-- Node31 -->
<g id="node32" class="node">
<title>Node31</title>
<polygon fill="#ffffff" stroke="#bfbfbf" points="1331.5,-112.5 1331.5,-131.5 1414.5,-131.5 1414.5,-112.5 1331.5,-112.5"/>
<text text-anchor="middle" x="1373" y="-119.5" font-family="Helvetica,sans-Serif" font-size="10.00" fill="#000000">unordered_map</text>
</g>
<!-- Node29&#45;&gt;Node31 -->
<g id="edge63" class="edge">
<title>Node29&#45;&gt;Node31</title>
<path fill="none" stroke="#191970" d="M1313.5414,-168.2455C1324.2787,-159.8943 1339.9473,-147.7076 1352.5047,-137.9408"/>
<polygon fill="#191970" stroke="#191970" points="1354.8575,-140.5449 1360.6023,-131.6427 1350.5599,-135.0194 1354.8575,-140.5449"/>
</g>
<!-- Node32 -->
<g id="node33" class="node">
<title>Node32</title>
<polygon fill="#ffffff" stroke="#bfbfbf" points="1433,-112.5 1433,-131.5 1511,-131.5 1511,-112.5 1433,-112.5"/>
<text text-anchor="middle" x="1472" y="-119.5" font-family="Helvetica,sans-Serif" font-size="10.00" fill="#000000">unordered_set</text>
</g>
<!-- Node29&#45;&gt;Node32 -->
<g id="edge64" class="edge">
<title>Node29&#45;&gt;Node32</title>
<path fill="none" stroke="#191970" d="M1330.3959,-168.3733C1358.8307,-159.0613 1402.0877,-144.8953 1433.3081,-134.671"/>
<polygon fill="#191970" stroke="#191970" points="1434.5736,-137.9396 1442.9876,-131.5011 1432.395,-131.2872 1434.5736,-137.9396"/>
</g>
</g>
</svg>
