<?xml version="1.0" encoding="UTF-8" standalone="no"?>
<!DOCTYPE svg PUBLIC "-//W3C//DTD SVG 1.1//EN"
 "http://www.w3.org/Graphics/SVG/1.1/DTD/svg11.dtd">
<!-- Generated by graphviz version 2.40.1 (20161225.0304)
 -->
<!-- Title: CWallet::CommitTransaction Pages: 1 -->
<svg width="501pt" height="173pt"
 viewBox="0.00 0.00 501.00 172.50" xmlns="http://www.w3.org/2000/svg" xmlns:xlink="http://www.w3.org/1999/xlink">
<g id="graph0" class="graph" transform="scale(1 1) rotate(0) translate(4 168.5)">
<title>CWallet::CommitTransaction</title>
<polygon fill="#ffffff" stroke="transparent" points="-4,4 -4,-168.5 497,-168.5 497,4 -4,4"/>
<!-- Node67 -->
<g id="node1" class="node">
<title>Node67</title>
<polygon fill="#bfbfbf" stroke="#000000" points="0,-50 0,-69 143,-69 143,-50 0,-50"/>
<text text-anchor="middle" x="71.5" y="-57" font-family="Helvetica,sans-Serif" font-size="10.00" fill="#000000">CWallet::CommitTransaction</text>
</g>
<!-- Node68 -->
<g id="node2" class="node">
<title>Node68</title>
<g id="a_node2"><a xlink:href="assets_8h.html#ac85f60493840a888d3cc36a218881457" target="_top" xlink:title="Send any type of asset transaction to the network. ">
<polygon fill="#ffffff" stroke="#000000" points="182.5,-88 182.5,-107 298.5,-107 298.5,-88 182.5,-88"/>
<text text-anchor="middle" x="240.5" y="-95" font-family="Helvetica,sans-Serif" font-size="10.00" fill="#000000">SendAssetTransaction</text>
</a>
</g>
</g>
<!-- Node67&#45;&gt;Node68 -->
<g id="edge1" class="edge">
<title>Node67&#45;&gt;Node68</title>
<path fill="none" stroke="#191970" d="M124.0869,-71.3243C147.9129,-76.6816 175.7069,-82.9311 198.1608,-87.9799"/>
<polygon fill="#191970" stroke="#191970" points="124.6701,-67.8681 114.1458,-69.089 123.1344,-74.6976 124.6701,-67.8681"/>
</g>
<!-- Node73 -->
<g id="node7" class="node">
<title>Node73</title>
<g id="a_node7"><a xlink:href="class_wallet_model.html#a53443aca544c824550f21e5f87e4ec39" target="_top" xlink:title="WalletModel::sendCoins">
<polygon fill="#ffffff" stroke="#000000" points="179,-50 179,-69 302,-69 302,-50 179,-50"/>
<text text-anchor="middle" x="240.5" y="-57" font-family="Helvetica,sans-Serif" font-size="10.00" fill="#000000">WalletModel::sendCoins</text>
</a>
</g>
</g>
<!-- Node67&#45;&gt;Node73 -->
<g id="edge6" class="edge">
<title>Node67&#45;&gt;Node73</title>
<path fill="none" stroke="#191970" d="M153.2514,-59.5C161.8715,-59.5 170.5298,-59.5 178.867,-59.5"/>
<polygon fill="#191970" stroke="#191970" points="153.1712,-56.0001 143.1712,-59.5 153.1712,-63.0001 153.1712,-56.0001"/>
</g>
<!-- Node74 -->
<g id="node8" class="node">
<title>Node74</title>
<g id="a_node8"><a xlink:href="class_list_coins_testing_setup.html#a8ce37c5d8d073c901b91153f83c47ee8" target="_top" xlink:title="ListCoinsTestingSetup\l::AddTx">
<polygon fill="#ffffff" stroke="#000000" points="182.5,-.5 182.5,-30.5 298.5,-30.5 298.5,-.5 182.5,-.5"/>
<text text-anchor="start" x="190.5" y="-18.5" font-family="Helvetica,sans-Serif" font-size="10.00" fill="#000000">ListCoinsTestingSetup</text>
<text text-anchor="middle" x="240.5" y="-7.5" font-family="Helvetica,sans-Serif" font-size="10.00" fill="#000000">::AddTx</text>
</a>
</g>
</g>
<!-- Node67&#45;&gt;Node74 -->
<g id="edge7" class="edge">
<title>Node67&#45;&gt;Node74</title>
<path fill="none" stroke="#191970" d="M117.9649,-47.4026C137.9529,-42.1987 161.5289,-36.0605 182.6353,-30.5654"/>
<polygon fill="#191970" stroke="#191970" points="116.966,-44.0459 108.1705,-49.9527 118.7297,-50.8201 116.966,-44.0459"/>
</g>
<!-- Node69 -->
<g id="node3" class="node">
<title>Node69</title>
<g id="a_node3"><a xlink:href="rpc_2assets_8cpp.html#a27b33a27533950c7953c056f0a1d9852" target="_top" xlink:title="issueunique">
<polygon fill="#ffffff" stroke="#000000" points="381.5,-145 381.5,-164 449.5,-164 449.5,-145 381.5,-145"/>
<text text-anchor="middle" x="415.5" y="-152" font-family="Helvetica,sans-Serif" font-size="10.00" fill="#000000">issueunique</text>
</a>
</g>
</g>
<!-- Node68&#45;&gt;Node69 -->
<g id="edge2" class="edge">
<title>Node68&#45;&gt;Node69</title>
<path fill="none" stroke="#191970" d="M271.9874,-110.9853C290.9036,-118.7805 315.5773,-128.4155 338,-135.5 352.0022,-139.924 367.6961,-143.9419 381.28,-147.1315"/>
<polygon fill="#191970" stroke="#191970" points="273.2396,-107.7154 262.6627,-107.0998 270.5472,-114.1769 273.2396,-107.7154"/>
</g>
<!-- Node70 -->
<g id="node4" class="node">
<title>Node70</title>
<g id="a_node4"><a xlink:href="class_c_assets_cache.html#a117ef717832c597298ad096e2dbc3299" target="_top" xlink:title="CAssetsCache::CacheToString">
<polygon fill="#ffffff" stroke="#000000" points="338,-107 338,-126 493,-126 493,-107 338,-107"/>
<text text-anchor="middle" x="415.5" y="-114" font-family="Helvetica,sans-Serif" font-size="10.00" fill="#000000">CAssetsCache::CacheToString</text>
</a>
</g>
</g>
<!-- Node68&#45;&gt;Node70 -->
<g id="edge3" class="edge">
<title>Node68&#45;&gt;Node70</title>
<path fill="none" stroke="#191970" d="M308.9244,-104.9289C318.4146,-105.9593 328.2196,-107.0238 337.8627,-108.0708"/>
<polygon fill="#191970" stroke="#191970" points="309.0919,-101.4266 298.7725,-103.8267 308.3362,-108.3857 309.0919,-101.4266"/>
</g>
<!-- Node71 -->
<g id="node5" class="node">
<title>Node71</title>
<g id="a_node5"><a xlink:href="rpc_2messages_8cpp.html#afbf85f977e967b7e42be145fb402b9fd" target="_top" xlink:title="sendmessage">
<polygon fill="#ffffff" stroke="#000000" points="377,-69 377,-88 454,-88 454,-69 377,-69"/>
<text text-anchor="middle" x="415.5" y="-76" font-family="Helvetica,sans-Serif" font-size="10.00" fill="#000000">sendmessage</text>
</a>
</g>
</g>
<!-- Node68&#45;&gt;Node71 -->
<g id="edge4" class="edge">
<title>Node68&#45;&gt;Node71</title>
<path fill="none" stroke="#191970" d="M308.8595,-90.0781C331.9062,-87.5759 356.8158,-84.8714 376.7602,-82.706"/>
<polygon fill="#191970" stroke="#191970" points="308.3362,-86.6143 298.7725,-91.1733 309.0919,-93.5734 308.3362,-86.6143"/>
</g>
<!-- Node72 -->
<g id="node6" class="node">
<title>Node72</title>
<g id="a_node6"><a xlink:href="class_wallet_model.html#a1c12ea47660aeb523c9f3a414b0d0ce9" target="_top" xlink:title="WalletModel::sendAssets">
<polygon fill="#ffffff" stroke="#000000" points="351.5,-31 351.5,-50 479.5,-50 479.5,-31 351.5,-31"/>
<text text-anchor="middle" x="415.5" y="-38" font-family="Helvetica,sans-Serif" font-size="10.00" fill="#000000">WalletModel::sendAssets</text>
</a>
</g>
</g>
<!-- Node68&#45;&gt;Node72 -->
<g id="edge5" class="edge">
<title>Node68&#45;&gt;Node72</title>
<path fill="none" stroke="#191970" d="M285.0155,-84.8285C290.7889,-82.8705 296.5763,-80.7461 302,-78.5 318.715,-71.5777 321.0874,-65.9243 338,-59.5 347.7128,-55.8105 358.3865,-52.6521 368.6242,-50.0302"/>
<polygon fill="#191970" stroke="#191970" points="283.8085,-81.5404 275.379,-87.9586 285.9712,-88.198 283.8085,-81.5404"/>
</g>
</g>
</svg>
