<?xml version="1.0" encoding="UTF-8" standalone="no"?>
<!DOCTYPE svg PUBLIC "-//W3C//DTD SVG 1.1//EN"
 "http://www.w3.org/Graphics/SVG/1.1/DTD/svg11.dtd">
<!-- Generated by graphviz version 2.40.1 (20161225.0304)
 -->
<!-- Title: CWallet::AddCScript Pages: 1 -->
<svg width="783pt" height="208pt"
 viewBox="0.00 0.00 783.00 208.00" xmlns="http://www.w3.org/2000/svg" xmlns:xlink="http://www.w3.org/1999/xlink">
<g id="graph0" class="graph" transform="scale(1 1) rotate(0) translate(4 204)">
<title>CWallet::AddCScript</title>
<polygon fill="#ffffff" stroke="transparent" points="-4,4 -4,-204 779,-204 779,4 -4,4"/>
<!-- Node42 -->
<g id="node1" class="node">
<title>Node42</title>
<polygon fill="#bfbfbf" stroke="#000000" points="0,-142.5 0,-161.5 108,-161.5 108,-142.5 0,-142.5"/>
<text text-anchor="middle" x="54" y="-149.5" font-family="Helvetica,sans-Serif" font-size="10.00" fill="#000000">CWallet::AddCScript</text>
</g>
<!-- Node43 -->
<g id="node2" class="node">
<title>Node43</title>
<g id="a_node2"><a xlink:href="class_c_basic_key_store.html#a45baa35575b5818f6782266e0f4731e6" target="_top" xlink:title="Support for BIP 0013 : see https://github.com/raven/bips/blob/master/bip&#45;0013.mediawiki. ">
<polygon fill="#ffffff" stroke="#000000" points="144,-180.5 144,-199.5 290,-199.5 290,-180.5 144,-180.5"/>
<text text-anchor="middle" x="217" y="-187.5" font-family="Helvetica,sans-Serif" font-size="10.00" fill="#000000">CBasicKeyStore::AddCScript</text>
</a>
</g>
</g>
<!-- Node42&#45;&gt;Node43 -->
<g id="edge1" class="edge">
<title>Node42&#45;&gt;Node43</title>
<path fill="none" stroke="#191970" d="M95.1318,-161.589C116.7383,-166.6261 143.409,-172.8438 166.2858,-178.1771"/>
<polygon fill="#191970" stroke="#191970" points="165.6305,-181.6181 176.164,-180.4799 167.2198,-174.8009 165.6305,-181.6181"/>
</g>
<!-- Node46 -->
<g id="node5" class="node">
<title>Node46</title>
<g id="a_node5"><a xlink:href="class_c_wallet_d_b.html#a8c69e48e2305775898658e0a4f4616c9" target="_top" xlink:title="CWalletDB::WriteCScript">
<polygon fill="#ffffff" stroke="#000000" points="153,-142.5 153,-161.5 281,-161.5 281,-142.5 153,-142.5"/>
<text text-anchor="middle" x="217" y="-149.5" font-family="Helvetica,sans-Serif" font-size="10.00" fill="#000000">CWalletDB::WriteCScript</text>
</a>
</g>
</g>
<!-- Node42&#45;&gt;Node46 -->
<g id="edge4" class="edge">
<title>Node42&#45;&gt;Node46</title>
<path fill="none" stroke="#191970" d="M108.2766,-152C119.3075,-152 131.09,-152 142.6775,-152"/>
<polygon fill="#191970" stroke="#191970" points="142.7865,-155.5001 152.7865,-152 142.7864,-148.5001 142.7865,-155.5001"/>
</g>
<!-- Node48 -->
<g id="node7" class="node">
<title>Node48</title>
<g id="a_node7"><a xlink:href="hash_8h.html#a4490f70ddae16e9e48460a0416a48a6b" target="_top" xlink:title="Compute the 160&#45;bit hash an object. ">
<polygon fill="#ffffff" stroke="#000000" points="189,-104.5 189,-123.5 245,-123.5 245,-104.5 189,-104.5"/>
<text text-anchor="middle" x="217" y="-111.5" font-family="Helvetica,sans-Serif" font-size="10.00" fill="#000000">Hash160</text>
</a>
</g>
</g>
<!-- Node42&#45;&gt;Node48 -->
<g id="edge6" class="edge">
<title>Node42&#45;&gt;Node48</title>
<path fill="none" stroke="#191970" d="M95.1318,-142.411C120.9108,-136.4012 153.8988,-128.7107 179.0512,-122.847"/>
<polygon fill="#191970" stroke="#191970" points="180.0177,-126.2156 188.9619,-120.5365 178.4284,-119.3984 180.0177,-126.2156"/>
</g>
<!-- Node44 -->
<g id="node3" class="node">
<title>Node44</title>
<g id="a_node3"><a xlink:href="classprevector.html#a626f7d206dbc24e5610631809762758b" target="_top" xlink:title="prevector::size">
<polygon fill="#ffffff" stroke="#000000" points="338.5,-180.5 338.5,-199.5 419.5,-199.5 419.5,-180.5 338.5,-180.5"/>
<text text-anchor="middle" x="379" y="-187.5" font-family="Helvetica,sans-Serif" font-size="10.00" fill="#000000">prevector::size</text>
</a>
</g>
</g>
<!-- Node43&#45;&gt;Node44 -->
<g id="edge2" class="edge">
<title>Node43&#45;&gt;Node44</title>
<path fill="none" stroke="#191970" d="M290.4161,-190C303.1071,-190 316.0486,-190 327.9797,-190"/>
<polygon fill="#191970" stroke="#191970" points="328.1729,-193.5001 338.1729,-190 328.1728,-186.5001 328.1729,-193.5001"/>
</g>
<!-- Node45 -->
<g id="node4" class="node">
<title>Node45</title>
<g id="a_node4"><a xlink:href="classprevector.html#a933e204a7e29c6bbc85479d023c00ff8" target="_top" xlink:title="prevector::is_direct">
<polygon fill="#ffffff" stroke="#000000" points="477.5,-180.5 477.5,-199.5 577.5,-199.5 577.5,-180.5 477.5,-180.5"/>
<text text-anchor="middle" x="527.5" y="-187.5" font-family="Helvetica,sans-Serif" font-size="10.00" fill="#000000">prevector::is_direct</text>
</a>
</g>
</g>
<!-- Node44&#45;&gt;Node45 -->
<g id="edge3" class="edge">
<title>Node44&#45;&gt;Node45</title>
<path fill="none" stroke="#191970" d="M419.5783,-190C434.2307,-190 451.1027,-190 467.0877,-190"/>
<polygon fill="#191970" stroke="#191970" points="467.4317,-193.5001 477.4317,-190 467.4317,-186.5001 467.4317,-193.5001"/>
</g>
<!-- Node47 -->
<g id="node6" class="node">
<title>Node47</title>
<g id="a_node6"><a xlink:href="class_c_wallet_d_b.html#a33ec32231db801e91a98afb26acf3e6a" target="_top" xlink:title="CWalletDB::WriteIC">
<polygon fill="#ffffff" stroke="#000000" points="326,-142.5 326,-161.5 432,-161.5 432,-142.5 326,-142.5"/>
<text text-anchor="middle" x="379" y="-149.5" font-family="Helvetica,sans-Serif" font-size="10.00" fill="#000000">CWalletDB::WriteIC</text>
</a>
</g>
</g>
<!-- Node46&#45;&gt;Node47 -->
<g id="edge5" class="edge">
<title>Node46&#45;&gt;Node47</title>
<path fill="none" stroke="#191970" d="M281.0267,-152C292.4024,-152 304.2458,-152 315.6039,-152"/>
<polygon fill="#191970" stroke="#191970" points="315.8711,-155.5001 325.871,-152 315.871,-148.5001 315.8711,-155.5001"/>
</g>
<!-- Node49 -->
<g id="node8" class="node">
<title>Node49</title>
<g id="a_node8"><a xlink:href="class_c_hash160.html#af56cdd9443013eb68b246aa8450217f2" target="_top" xlink:title="CHash160::Write">
<polygon fill="#ffffff" stroke="#000000" points="333,-104.5 333,-123.5 425,-123.5 425,-104.5 333,-104.5"/>
<text text-anchor="middle" x="379" y="-111.5" font-family="Helvetica,sans-Serif" font-size="10.00" fill="#000000">CHash160::Write</text>
</a>
</g>
</g>
<!-- Node48&#45;&gt;Node49 -->
<g id="edge7" class="edge">
<title>Node48&#45;&gt;Node49</title>
<path fill="none" stroke="#191970" d="M245.2182,-114C266.506,-114 296.4087,-114 322.5458,-114"/>
<polygon fill="#191970" stroke="#191970" points="322.7264,-117.5001 332.7264,-114 322.7263,-110.5001 322.7264,-117.5001"/>
</g>
<!-- Node54 -->
<g id="node13" class="node">
<title>Node54</title>
<g id="a_node13"><a xlink:href="class_c_hash160.html#a9bb08e1772002ae1a5d85017ba7952ee" target="_top" xlink:title="CHash160::Finalize">
<polygon fill="#ffffff" stroke="#000000" points="327.5,-57.5 327.5,-76.5 430.5,-76.5 430.5,-57.5 327.5,-57.5"/>
<text text-anchor="middle" x="379" y="-64.5" font-family="Helvetica,sans-Serif" font-size="10.00" fill="#000000">CHash160::Finalize</text>
</a>
</g>
</g>
<!-- Node48&#45;&gt;Node54 -->
<g id="edge12" class="edge">
<title>Node48&#45;&gt;Node54</title>
<path fill="none" stroke="#191970" d="M245.2182,-105.8132C270.3566,-98.52 307.5084,-87.7414 336.2863,-79.3923"/>
<polygon fill="#191970" stroke="#191970" points="337.4539,-82.6979 346.0827,-76.5501 335.5035,-75.9751 337.4539,-82.6979"/>
</g>
<!-- Node50 -->
<g id="node9" class="node">
<title>Node50</title>
<g id="a_node9"><a xlink:href="class_c_s_h_a256.html#a9d7de520a562655da85349372820c883" target="_top" xlink:title="CSHA256::Write">
<polygon fill="#ffffff" stroke="#000000" points="482.5,-114.5 482.5,-133.5 572.5,-133.5 572.5,-114.5 482.5,-114.5"/>
<text text-anchor="middle" x="527.5" y="-121.5" font-family="Helvetica,sans-Serif" font-size="10.00" fill="#000000">CSHA256::Write</text>
</a>
</g>
</g>
<!-- Node49&#45;&gt;Node50 -->
<g id="edge8" class="edge">
<title>Node49&#45;&gt;Node50</title>
<path fill="none" stroke="#191970" d="M425.1723,-117.1092C440.1187,-118.1157 456.8451,-119.2421 472.374,-120.2878"/>
<polygon fill="#191970" stroke="#191970" points="472.1624,-123.7814 482.375,-120.9613 472.6328,-116.7972 472.1624,-123.7814"/>
</g>
<!-- Node51 -->
<g id="node10" class="node">
<title>Node51</title>
<g id="a_node10"><a xlink:href="glibc__compat_8cpp.html#a0f46826ab0466591e136db24394923cf" target="_top" xlink:title="memcpy">
<polygon fill="#ffffff" stroke="#000000" points="623,-76.5 623,-95.5 677,-95.5 677,-76.5 623,-76.5"/>
<text text-anchor="middle" x="650" y="-83.5" font-family="Helvetica,sans-Serif" font-size="10.00" fill="#000000">memcpy</text>
</a>
</g>
</g>
<!-- Node50&#45;&gt;Node51 -->
<g id="edge9" class="edge">
<title>Node50&#45;&gt;Node51</title>
<path fill="none" stroke="#191970" d="M558.4119,-114.411C575.0018,-109.2647 595.5644,-102.8861 613.0003,-97.4775"/>
<polygon fill="#191970" stroke="#191970" points="614.3373,-100.7273 622.8513,-94.4216 612.2633,-94.0416 614.3373,-100.7273"/>
</g>
<!-- Node52 -->
<g id="node11" class="node">
<title>Node52</title>
<g id="a_node11"><a xlink:href="glibc__compat_8cpp.html#a9778d49e9029dd75bc53ecbbf9f5e9a1" target="_top" xlink:title="memmove">
<polygon fill="#ffffff" stroke="#000000" points="713,-95.5 713,-114.5 775,-114.5 775,-95.5 713,-95.5"/>
<text text-anchor="middle" x="744" y="-102.5" font-family="Helvetica,sans-Serif" font-size="10.00" fill="#000000">memmove</text>
</a>
</g>
</g>
<!-- Node51&#45;&gt;Node52 -->
<g id="edge10" class="edge">
<title>Node51&#45;&gt;Node52</title>
<path fill="none" stroke="#191970" d="M677.1887,-91.4956C685.217,-93.1183 694.1892,-94.9319 702.8881,-96.6901"/>
<polygon fill="#191970" stroke="#191970" points="702.4061,-100.1634 712.9013,-98.7141 703.793,-93.3022 702.4061,-100.1634"/>
</g>
<!-- Node53 -->
<g id="node12" class="node">
<title>Node53</title>
<g id="a_node12"><a xlink:href="glibc__compat_8cpp.html#a424ac71631da5ada2976630ff67051d1" target="_top" xlink:title="__chk_fail">
<polygon fill="#ffffff" stroke="#000000" points="713.5,-57.5 713.5,-76.5 774.5,-76.5 774.5,-57.5 713.5,-57.5"/>
<text text-anchor="middle" x="744" y="-64.5" font-family="Helvetica,sans-Serif" font-size="10.00" fill="#000000">__chk_fail</text>
</a>
</g>
</g>
<!-- Node51&#45;&gt;Node53 -->
<g id="edge11" class="edge">
<title>Node51&#45;&gt;Node53</title>
<path fill="none" stroke="#191970" d="M677.1887,-80.5044C685.383,-78.8481 694.5608,-76.993 703.4275,-75.2008"/>
<polygon fill="#191970" stroke="#191970" points="704.1288,-78.6299 713.2371,-73.218 702.7419,-71.7687 704.1288,-78.6299"/>
</g>
<!-- Node55 -->
<g id="node14" class="node">
<title>Node55</title>
<g id="a_node14"><a xlink:href="class_c_s_h_a256.html#a4259230be0caefa590bc324fc12b9b90" target="_top" xlink:title="CSHA256::Finalize">
<polygon fill="#ffffff" stroke="#000000" points="477,-76.5 477,-95.5 578,-95.5 578,-76.5 477,-76.5"/>
<text text-anchor="middle" x="527.5" y="-83.5" font-family="Helvetica,sans-Serif" font-size="10.00" fill="#000000">CSHA256::Finalize</text>
</a>
</g>
</g>
<!-- Node54&#45;&gt;Node55 -->
<g id="edge13" class="edge">
<title>Node54&#45;&gt;Node55</title>
<path fill="none" stroke="#191970" d="M430.5213,-73.592C442.2361,-75.0908 454.7862,-76.6966 466.8414,-78.239"/>
<polygon fill="#191970" stroke="#191970" points="466.4589,-81.7185 476.8222,-79.516 467.3473,-74.7751 466.4589,-81.7185"/>
</g>
<!-- Node56 -->
<g id="node15" class="node">
<title>Node56</title>
<g id="a_node15"><a xlink:href="class_c_r_i_p_e_m_d160.html#a221143b9d94af623d07c4f4ba1bf6007" target="_top" xlink:title="CRIPEMD160::Write">
<polygon fill="#ffffff" stroke="#000000" points="473,-38.5 473,-57.5 582,-57.5 582,-38.5 473,-38.5"/>
<text text-anchor="middle" x="527.5" y="-45.5" font-family="Helvetica,sans-Serif" font-size="10.00" fill="#000000">CRIPEMD160::Write</text>
</a>
</g>
</g>
<!-- Node54&#45;&gt;Node56 -->
<g id="edge14" class="edge">
<title>Node54&#45;&gt;Node56</title>
<path fill="none" stroke="#191970" d="M430.5213,-60.408C440.8689,-59.0841 451.8683,-57.6768 462.6026,-56.3034"/>
<polygon fill="#191970" stroke="#191970" points="463.3083,-59.7417 472.7832,-55.0008 462.4199,-52.7983 463.3083,-59.7417"/>
</g>
<!-- Node57 -->
<g id="node16" class="node">
<title>Node57</title>
<g id="a_node16"><a xlink:href="class_c_r_i_p_e_m_d160.html#a2a11566fbf9d1339b819833313fc4e51" target="_top" xlink:title="CRIPEMD160::Finalize">
<polygon fill="#ffffff" stroke="#000000" points="468,-.5 468,-19.5 587,-19.5 587,-.5 468,-.5"/>
<text text-anchor="middle" x="527.5" y="-7.5" font-family="Helvetica,sans-Serif" font-size="10.00" fill="#000000">CRIPEMD160::Finalize</text>
</a>
</g>
</g>
<!-- Node54&#45;&gt;Node57 -->
<g id="edge16" class="edge">
<title>Node54&#45;&gt;Node57</title>
<path fill="none" stroke="#191970" d="M399.9924,-57.3717C417.8853,-49.3261 444.3816,-37.7908 468,-29 473.8689,-26.8156 480.1179,-24.6498 486.2767,-22.6055"/>
<polygon fill="#191970" stroke="#191970" points="487.3837,-25.926 495.8131,-19.5076 485.2209,-19.2684 487.3837,-25.926"/>
</g>
<!-- Node56&#45;&gt;Node51 -->
<g id="edge15" class="edge">
<title>Node56&#45;&gt;Node51</title>
<path fill="none" stroke="#191970" d="M558.4119,-57.589C575.0018,-62.7353 595.5644,-69.1139 613.0003,-74.5225"/>
<polygon fill="#191970" stroke="#191970" points="612.2633,-77.9584 622.8513,-77.5784 614.3373,-71.2727 612.2633,-77.9584"/>
</g>
</g>
</svg>
