<?xml version="1.0" encoding="UTF-8" standalone="no"?>
<!DOCTYPE svg PUBLIC "-//W3C//DTD SVG 1.1//EN"
 "http://www.w3.org/Graphics/SVG/1.1/DTD/svg11.dtd">
<!-- Generated by graphviz version 2.40.1 (20161225.0304)
 -->
<!-- Title: CWallet::CreateTransaction Pages: 1 -->
<svg width="342pt" height="78pt"
 viewBox="0.00 0.00 342.00 77.50" xmlns="http://www.w3.org/2000/svg" xmlns:xlink="http://www.w3.org/1999/xlink">
<g id="graph0" class="graph" transform="scale(1 1) rotate(0) translate(4 73.5)">
<title>CWallet::CreateTransaction</title>
<polygon fill="#ffffff" stroke="transparent" points="-4,4 -4,-73.5 338,-73.5 338,4 -4,4"/>
<!-- Node107 -->
<g id="node1" class="node">
<title>Node107</title>
<polygon fill="#bfbfbf" stroke="#000000" points="0,-28 0,-47 138,-47 138,-28 0,-28"/>
<text text-anchor="middle" x="69" y="-35" font-family="Helvetica,sans-Serif" font-size="10.00" fill="#000000">CWallet::CreateTransaction</text>
</g>
<!-- Node108 -->
<g id="node2" class="node">
<title>Node108</title>
<g id="a_node2"><a xlink:href="class_wallet_model.html#aa56ac200db13d7121cedb40ebd43ba2f" target="_top" xlink:title="WalletModel::prepareTransaction">
<polygon fill="#ffffff" stroke="#000000" points="174,-50 174,-69 334,-69 334,-50 174,-50"/>
<text text-anchor="middle" x="254" y="-57" font-family="Helvetica,sans-Serif" font-size="10.00" fill="#000000">WalletModel::prepareTransaction</text>
</a>
</g>
</g>
<!-- Node107&#45;&gt;Node108 -->
<g id="edge1" class="edge">
<title>Node107&#45;&gt;Node108</title>
<path fill="none" stroke="#191970" d="M148.1303,-46.9101C156.7087,-47.9302 165.4438,-48.969 174.032,-49.9903"/>
<polygon fill="#191970" stroke="#191970" points="148.4936,-43.4287 138.1503,-45.7233 147.667,-50.3797 148.4936,-43.4287"/>
</g>
<!-- Node109 -->
<g id="node3" class="node">
<title>Node109</title>
<g id="a_node3"><a xlink:href="class_list_coins_testing_setup.html#a8ce37c5d8d073c901b91153f83c47ee8" target="_top" xlink:title="ListCoinsTestingSetup\l::AddTx">
<polygon fill="#ffffff" stroke="#000000" points="196,-.5 196,-30.5 312,-30.5 312,-.5 196,-.5"/>
<text text-anchor="start" x="204" y="-18.5" font-family="Helvetica,sans-Serif" font-size="10.00" fill="#000000">ListCoinsTestingSetup</text>
<text text-anchor="middle" x="254" y="-7.5" font-family="Helvetica,sans-Serif" font-size="10.00" fill="#000000">::AddTx</text>
</a>
</g>
</g>
<!-- Node107&#45;&gt;Node109 -->
<g id="edge2" class="edge">
<title>Node107&#45;&gt;Node109</title>
<path fill="none" stroke="#191970" d="M148.501,-28.0458C164.3973,-26.1555 180.8163,-24.2029 195.8293,-22.4176"/>
<polygon fill="#191970" stroke="#191970" points="147.667,-24.6203 138.1503,-29.2767 148.4936,-31.5713 147.667,-24.6203"/>
</g>
</g>
</svg>
