<?xml version="1.0" encoding="UTF-8" standalone="no"?>
<!DOCTYPE svg PUBLIC "-//W3C//DTD SVG 1.1//EN"
 "http://www.w3.org/Graphics/SVG/1.1/DTD/svg11.dtd">
<!-- Generated by graphviz version 2.40.1 (20161225.0304)
 -->
<!-- Title: CWallet::ResendWalletTransactionsBefore Pages: 1 -->
<svg width="701pt" height="110pt"
 viewBox="0.00 0.00 701.00 109.50" xmlns="http://www.w3.org/2000/svg" xmlns:xlink="http://www.w3.org/1999/xlink">
<g id="graph0" class="graph" transform="scale(1 1) rotate(0) translate(4 105.5)">
<title>CWallet::ResendWalletTransactionsBefore</title>
<polygon fill="#ffffff" stroke="transparent" points="-4,4 -4,-105.5 697,-105.5 697,4 -4,4"/>
<!-- Node1191 -->
<g id="node1" class="node">
<title>Node1191</title>
<polygon fill="#bfbfbf" stroke="#000000" points="0,-19.5 0,-49.5 176,-49.5 176,-19.5 0,-19.5"/>
<text text-anchor="start" x="8" y="-37.5" font-family="Helvetica,sans-Serif" font-size="10.00" fill="#000000">CWallet::ResendWalletTransactions</text>
<text text-anchor="middle" x="88" y="-26.5" font-family="Helvetica,sans-Serif" font-size="10.00" fill="#000000">Before</text>
</g>
<!-- Node1192 -->
<g id="node2" class="node">
<title>Node1192</title>
<g id="a_node2"><a xlink:href="group__map_wallet.html#ga88bcacf1a2426b9be5364f848dc92b53" target="_top" xlink:title="CWalletTx::RelayWalletTransaction">
<polygon fill="#ffffff" stroke="#000000" points="212,-44 212,-63 385,-63 385,-44 212,-44"/>
<text text-anchor="middle" x="298.5" y="-51" font-family="Helvetica,sans-Serif" font-size="10.00" fill="#000000">CWalletTx::RelayWalletTransaction</text>
</a>
</g>
</g>
<!-- Node1191&#45;&gt;Node1192 -->
<g id="edge1" class="edge">
<title>Node1191&#45;&gt;Node1192</title>
<path fill="none" stroke="#191970" d="M176.0513,-42.4476C184.5537,-43.2151 193.21,-43.9964 201.7901,-44.7708"/>
<polygon fill="#191970" stroke="#191970" points="201.5394,-48.2624 211.8136,-45.6756 202.1687,-41.2907 201.5394,-48.2624"/>
</g>
<!-- Node1198 -->
<g id="node8" class="node">
<title>Node1198</title>
<g id="a_node8"><a xlink:href="class_c_merkle_tx.html#a20142f81e7ff0242db646e63e0a973b3" target="_top" xlink:title="CMerkleTx::GetHash">
<polygon fill="#ffffff" stroke="#000000" points="243.5,-6 243.5,-25 353.5,-25 353.5,-6 243.5,-6"/>
<text text-anchor="middle" x="298.5" y="-13" font-family="Helvetica,sans-Serif" font-size="10.00" fill="#000000">CMerkleTx::GetHash</text>
</a>
</g>
</g>
<!-- Node1191&#45;&gt;Node1198 -->
<g id="edge7" class="edge">
<title>Node1191&#45;&gt;Node1198</title>
<path fill="none" stroke="#191970" d="M176.0513,-26.5524C195.164,-24.8272 215.0545,-23.0319 233.109,-21.4023"/>
<polygon fill="#191970" stroke="#191970" points="233.5746,-24.8746 243.2194,-20.4897 232.9452,-17.9029 233.5746,-24.8746"/>
</g>
<!-- Node1193 -->
<g id="node3" class="node">
<title>Node1193</title>
<g id="a_node3"><a xlink:href="validation_8cpp.html#a9a88e9131d75562055e3ff8d233959ab" target="_top" xlink:title="(try to) add transaction to memory pool plTxnReplaced will be appended to with all transactions repla...">
<polygon fill="#ffffff" stroke="#000000" points="430.5,-82 430.5,-101 543.5,-101 543.5,-82 430.5,-82"/>
<text text-anchor="middle" x="487" y="-89" font-family="Helvetica,sans-Serif" font-size="10.00" fill="#000000">AcceptToMemoryPool</text>
</a>
</g>
</g>
<!-- Node1192&#45;&gt;Node1193 -->
<g id="edge2" class="edge">
<title>Node1192&#45;&gt;Node1193</title>
<path fill="none" stroke="#191970" d="M346.0665,-63.089C371.5014,-68.2165 403.0046,-74.5672 429.7714,-79.9632"/>
<polygon fill="#191970" stroke="#191970" points="429.2811,-83.4347 439.7755,-81.9799 430.6644,-76.5727 429.2811,-83.4347"/>
</g>
<!-- Node1195 -->
<g id="node5" class="node">
<title>Node1195</title>
<g id="a_node5"><a xlink:href="class_c_connman.html#aec1d86d7a6bd9e10544b93ccb56adf0d" target="_top" xlink:title="CConnman::ForEachNode">
<polygon fill="#ffffff" stroke="#000000" points="421,-44 421,-63 553,-63 553,-44 421,-44"/>
<text text-anchor="middle" x="487" y="-51" font-family="Helvetica,sans-Serif" font-size="10.00" fill="#000000">CConnman::ForEachNode</text>
</a>
</g>
</g>
<!-- Node1192&#45;&gt;Node1195 -->
<g id="edge4" class="edge">
<title>Node1192&#45;&gt;Node1195</title>
<path fill="none" stroke="#191970" d="M385.0263,-53.5C393.5584,-53.5 402.1755,-53.5 410.5954,-53.5"/>
<polygon fill="#191970" stroke="#191970" points="410.7491,-57.0001 420.749,-53.5 410.749,-50.0001 410.7491,-57.0001"/>
</g>
<!-- Node1196 -->
<g id="node6" class="node">
<title>Node1196</title>
<g id="a_node6"><a xlink:href="class_c_node.html#a7cef2333aa8776127a7e7fcab659eb6a" target="_top" xlink:title="CNode::PushInventory">
<polygon fill="#ffffff" stroke="#000000" points="429,-6 429,-25 545,-25 545,-6 429,-6"/>
<text text-anchor="middle" x="487" y="-13" font-family="Helvetica,sans-Serif" font-size="10.00" fill="#000000">CNode::PushInventory</text>
</a>
</g>
</g>
<!-- Node1192&#45;&gt;Node1196 -->
<g id="edge5" class="edge">
<title>Node1192&#45;&gt;Node1196</title>
<path fill="none" stroke="#191970" d="M346.0665,-43.911C371.5014,-38.7835 403.0046,-32.4328 429.7714,-27.0368"/>
<polygon fill="#191970" stroke="#191970" points="430.6644,-30.4273 439.7755,-25.0201 429.2811,-23.5653 430.6644,-30.4273"/>
</g>
<!-- Node1194 -->
<g id="node4" class="node">
<title>Node1194</title>
<g id="a_node4"><a xlink:href="chainparams_8cpp.html#ace5c5b706d71a324a417dd2db394fd4a" target="_top" xlink:title="Return the currently selected parameters. ">
<polygon fill="#ffffff" stroke="#000000" points="616,-82 616,-101 666,-101 666,-82 616,-82"/>
<text text-anchor="middle" x="641" y="-89" font-family="Helvetica,sans-Serif" font-size="10.00" fill="#000000">Params</text>
</a>
</g>
</g>
<!-- Node1193&#45;&gt;Node1194 -->
<g id="edge3" class="edge">
<title>Node1193&#45;&gt;Node1194</title>
<path fill="none" stroke="#191970" d="M543.9064,-91.5C564.5342,-91.5 587.2306,-91.5 605.4893,-91.5"/>
<polygon fill="#191970" stroke="#191970" points="605.6779,-95.0001 615.6779,-91.5 605.6778,-88.0001 605.6779,-95.0001"/>
</g>
<!-- Node1197 -->
<g id="node7" class="node">
<title>Node1197</title>
<g id="a_node7"><a xlink:href="class_c_rolling_bloom_filter.html#a4f7d6161274b03c63be50aadb1fe46b7" target="_top" xlink:title="CRollingBloomFilter\l::contains">
<polygon fill="#ffffff" stroke="#000000" points="589,-.5 589,-30.5 693,-30.5 693,-.5 589,-.5"/>
<text text-anchor="start" x="597" y="-18.5" font-family="Helvetica,sans-Serif" font-size="10.00" fill="#000000">CRollingBloomFilter</text>
<text text-anchor="middle" x="641" y="-7.5" font-family="Helvetica,sans-Serif" font-size="10.00" fill="#000000">::contains</text>
</a>
</g>
</g>
<!-- Node1196&#45;&gt;Node1197 -->
<g id="edge6" class="edge">
<title>Node1196&#45;&gt;Node1197</title>
<path fill="none" stroke="#191970" d="M545.2208,-15.5C556.1766,-15.5 567.6725,-15.5 578.7458,-15.5"/>
<polygon fill="#191970" stroke="#191970" points="578.7687,-19.0001 588.7686,-15.5 578.7686,-12.0001 578.7687,-19.0001"/>
</g>
</g>
</svg>
