<?xml version="1.0" encoding="UTF-8" standalone="no"?>
<!DOCTYPE svg PUBLIC "-//W3C//DTD SVG 1.1//EN"
 "http://www.w3.org/Graphics/SVG/1.1/DTD/svg11.dtd">
<!-- Generated by graphviz version 2.40.1 (20161225.0304)
 -->
<!-- Title: CWallet::AbandonTransaction Pages: 1 -->
<svg width="738pt" height="66pt"
 viewBox="0.00 0.00 738.00 66.00" xmlns="http://www.w3.org/2000/svg" xmlns:xlink="http://www.w3.org/1999/xlink">
<g id="graph0" class="graph" transform="scale(1 1) rotate(0) translate(4 62)">
<title>CWallet::AbandonTransaction</title>
<polygon fill="#ffffff" stroke="transparent" points="-4,4 -4,-62 734,-62 734,4 -4,4"/>
<!-- Node8 -->
<g id="node1" class="node">
<title>Node8</title>
<polygon fill="#bfbfbf" stroke="#000000" points="0,-19.5 0,-38.5 147,-38.5 147,-19.5 0,-19.5"/>
<text text-anchor="middle" x="73.5" y="-26.5" font-family="Helvetica,sans-Serif" font-size="10.00" fill="#000000">CWallet::AbandonTransaction</text>
</g>
<!-- Node9 -->
<g id="node2" class="node">
<title>Node9</title>
<g id="a_node2"><a xlink:href="class_wallet_model.html#aa05a3b7df11ede4f82538049a638a636" target="_top" xlink:title="WalletModel::abandonTransaction">
<polygon fill="#ffffff" stroke="#000000" points="183,-38.5 183,-57.5 347,-57.5 347,-38.5 183,-38.5"/>
<text text-anchor="middle" x="265" y="-45.5" font-family="Helvetica,sans-Serif" font-size="10.00" fill="#000000">WalletModel::abandonTransaction</text>
</a>
</g>
</g>
<!-- Node8&#45;&gt;Node9 -->
<g id="edge1" class="edge">
<title>Node8&#45;&gt;Node9</title>
<path fill="none" stroke="#191970" d="M157.226,-37.307C165.7765,-38.1554 174.4569,-39.0166 182.9887,-39.8631"/>
<polygon fill="#191970" stroke="#191970" points="157.5617,-33.8232 147.265,-36.3187 156.8705,-40.789 157.5617,-33.8232"/>
</g>
<!-- Node12 -->
<g id="node5" class="node">
<title>Node12</title>
<g id="a_node5"><a xlink:href="rpcwallet_8cpp.html#a73a22f105401f2ef12bdd66d8995e9cf" target="_top" xlink:title="abandontransaction">
<polygon fill="#ffffff" stroke="#000000" points="214.5,-.5 214.5,-19.5 315.5,-19.5 315.5,-.5 214.5,-.5"/>
<text text-anchor="middle" x="265" y="-7.5" font-family="Helvetica,sans-Serif" font-size="10.00" fill="#000000">abandontransaction</text>
</a>
</g>
</g>
<!-- Node8&#45;&gt;Node12 -->
<g id="edge4" class="edge">
<title>Node8&#45;&gt;Node12</title>
<path fill="none" stroke="#191970" d="M157.3542,-20.6803C176.7965,-18.7513 196.9035,-16.7563 214.4013,-15.0202"/>
<polygon fill="#191970" stroke="#191970" points="156.8705,-17.211 147.265,-21.6813 157.5617,-24.1768 156.8705,-17.211"/>
</g>
<!-- Node10 -->
<g id="node3" class="node">
<title>Node10</title>
<g id="a_node3"><a xlink:href="class_transaction_view.html#a8dc3e9fc910cec4f6764d84c21941180" target="_top" xlink:title="TransactionView::abandonTx">
<polygon fill="#ffffff" stroke="#000000" points="383,-38.5 383,-57.5 526,-57.5 526,-38.5 383,-38.5"/>
<text text-anchor="middle" x="454.5" y="-45.5" font-family="Helvetica,sans-Serif" font-size="10.00" fill="#000000">TransactionView::abandonTx</text>
</a>
</g>
</g>
<!-- Node9&#45;&gt;Node10 -->
<g id="edge2" class="edge">
<title>Node9&#45;&gt;Node10</title>
<path fill="none" stroke="#191970" d="M357.1065,-48C365.7287,-48 374.3801,-48 382.7748,-48"/>
<polygon fill="#191970" stroke="#191970" points="357.0153,-44.5001 347.0153,-48 357.0153,-51.5001 357.0153,-44.5001"/>
</g>
<!-- Node11 -->
<g id="node4" class="node">
<title>Node11</title>
<g id="a_node4"><a xlink:href="class_transaction_view.html#a6bad80e62c684ad1e77250510c9323aa" target="_top" xlink:title="TransactionView::TransactionView">
<polygon fill="#ffffff" stroke="#000000" points="562,-38.5 562,-57.5 730,-57.5 730,-38.5 562,-38.5"/>
<text text-anchor="middle" x="646" y="-45.5" font-family="Helvetica,sans-Serif" font-size="10.00" fill="#000000">TransactionView::TransactionView</text>
</a>
</g>
</g>
<!-- Node10&#45;&gt;Node11 -->
<g id="edge3" class="edge">
<title>Node10&#45;&gt;Node11</title>
<path fill="none" stroke="#191970" d="M536.3242,-48C544.7983,-48 553.4211,-48 561.9193,-48"/>
<polygon fill="#191970" stroke="#191970" points="536.0799,-44.5001 526.0799,-48 536.0798,-51.5001 536.0799,-44.5001"/>
</g>
</g>
</svg>
