<?xml version="1.0" encoding="UTF-8" standalone="no"?>
<!DOCTYPE svg PUBLIC "-//W3C//DTD SVG 1.1//EN"
 "http://www.w3.org/Graphics/SVG/1.1/DTD/svg11.dtd">
<!-- Generated by graphviz version 2.40.1 (20161225.0304)
 -->
<!-- Title: CWallet::KeepKey Pages: 1 -->
<svg width="403pt" height="28pt"
 viewBox="0.00 0.00 403.00 28.00" xmlns="http://www.w3.org/2000/svg" xmlns:xlink="http://www.w3.org/1999/xlink">
<g id="graph0" class="graph" transform="scale(1 1) rotate(0) translate(4 24)">
<title>CWallet::KeepKey</title>
<polygon fill="#ffffff" stroke="transparent" points="-4,4 -4,-24 399,-24 399,4 -4,4"/>
<!-- Node668 -->
<g id="node1" class="node">
<title>Node668</title>
<polygon fill="#bfbfbf" stroke="#000000" points="0,-.5 0,-19.5 98,-19.5 98,-.5 0,-.5"/>
<text text-anchor="middle" x="49" y="-7.5" font-family="Helvetica,sans-Serif" font-size="10.00" fill="#000000">CWallet::KeepKey</text>
</g>
<!-- Node669 -->
<g id="node2" class="node">
<title>Node669</title>
<g id="a_node2"><a xlink:href="class_c_wallet_d_b.html#ac78d839fbda5164c4134ab67911139ca" target="_top" xlink:title="CWalletDB::ErasePool">
<polygon fill="#ffffff" stroke="#000000" points="134,-.5 134,-19.5 251,-19.5 251,-.5 134,-.5"/>
<text text-anchor="middle" x="192.5" y="-7.5" font-family="Helvetica,sans-Serif" font-size="10.00" fill="#000000">CWalletDB::ErasePool</text>
</a>
</g>
</g>
<!-- Node668&#45;&gt;Node669 -->
<g id="edge1" class="edge">
<title>Node668&#45;&gt;Node669</title>
<path fill="none" stroke="#191970" d="M98.3846,-10C106.6008,-10 115.2518,-10 123.8436,-10"/>
<polygon fill="#191970" stroke="#191970" points="123.8727,-13.5001 133.8727,-10 123.8727,-6.5001 123.8727,-13.5001"/>
</g>
<!-- Node670 -->
<g id="node3" class="node">
<title>Node670</title>
<g id="a_node3"><a xlink:href="class_c_wallet_d_b.html#a15d5972c3688ef35f875bafcbb4dff32" target="_top" xlink:title="CWalletDB::EraseIC">
<polygon fill="#ffffff" stroke="#000000" points="287,-.5 287,-19.5 395,-19.5 395,-.5 287,-.5"/>
<text text-anchor="middle" x="341" y="-7.5" font-family="Helvetica,sans-Serif" font-size="10.00" fill="#000000">CWalletDB::EraseIC</text>
</a>
</g>
</g>
<!-- Node669&#45;&gt;Node670 -->
<g id="edge2" class="edge">
<title>Node669&#45;&gt;Node670</title>
<path fill="none" stroke="#191970" d="M251.1911,-10C259.4908,-10 268.062,-10 276.4643,-10"/>
<polygon fill="#191970" stroke="#191970" points="276.6,-13.5001 286.5999,-10 276.5999,-6.5001 276.6,-13.5001"/>
</g>
</g>
</svg>
