<?xml version="1.0" encoding="UTF-8" standalone="no"?>
<!DOCTYPE svg PUBLIC "-//W3C//DTD SVG 1.1//EN"
 "http://www.w3.org/Graphics/SVG/1.1/DTD/svg11.dtd">
<!-- Generated by graphviz version 2.40.1 (20161225.0304)
 -->
<!-- Title: CWallet::ListCoins Pages: 1 -->
<svg width="949pt" height="186pt"
 viewBox="0.00 0.00 949.00 186.00" xmlns="http://www.w3.org/2000/svg" xmlns:xlink="http://www.w3.org/1999/xlink">
<g id="graph0" class="graph" transform="scale(1 1) rotate(0) translate(4 182)">
<title>CWallet::ListCoins</title>
<polygon fill="#ffffff" stroke="transparent" points="-4,4 -4,-182 945,-182 945,4 -4,4"/>
<!-- Node783 -->
<g id="node1" class="node">
<title>Node783</title>
<polygon fill="#bfbfbf" stroke="#000000" points="0,-36 0,-55 99,-55 99,-36 0,-36"/>
<text text-anchor="middle" x="49.5" y="-43" font-family="Helvetica,sans-Serif" font-size="10.00" fill="#000000">CWallet::ListCoins</text>
</g>
<!-- Node784 -->
<g id="node2" class="node">
<title>Node784</title>
<g id="a_node2"><a xlink:href="class_wallet_model.html#ae5ce26bba42701b45de766ef11cc9a47" target="_top" xlink:title="WalletModel::listCoins">
<polygon fill="#ffffff" stroke="#000000" points="159.5,-55 159.5,-74 274.5,-74 274.5,-55 159.5,-55"/>
<text text-anchor="middle" x="217" y="-62" font-family="Helvetica,sans-Serif" font-size="10.00" fill="#000000">WalletModel::listCoins</text>
</a>
</g>
</g>
<!-- Node783&#45;&gt;Node784 -->
<g id="edge1" class="edge">
<title>Node783&#45;&gt;Node784</title>
<path fill="none" stroke="#191970" d="M109.2692,-52.2798C125.5924,-54.1314 143.2429,-56.1335 159.4402,-57.9708"/>
<polygon fill="#191970" stroke="#191970" points="109.6328,-48.7987 99.302,-51.1492 108.8438,-55.7541 109.6328,-48.7987"/>
</g>
<!-- Node796 -->
<g id="node14" class="node">
<title>Node796</title>
<g id="a_node14"><a xlink:href="wallet__tests_8cpp.html#ad94db8992665684c9f644686dab4d618" target="_top" xlink:title="BOOST_FIXTURE_TEST_CASE">
<polygon fill="#ffffff" stroke="#000000" points="135,-17 135,-36 299,-36 299,-17 135,-17"/>
<text text-anchor="middle" x="217" y="-24" font-family="Helvetica,sans-Serif" font-size="10.00" fill="#000000">BOOST_FIXTURE_TEST_CASE</text>
</a>
</g>
</g>
<!-- Node783&#45;&gt;Node796 -->
<g id="edge14" class="edge">
<title>Node783&#45;&gt;Node796</title>
<path fill="none" stroke="#191970" d="M109.4955,-38.6945C117.7041,-37.7634 126.2446,-36.7946 134.7643,-35.8282"/>
<polygon fill="#191970" stroke="#191970" points="108.8438,-35.2459 99.302,-39.8508 109.6328,-42.2013 108.8438,-35.2459"/>
</g>
<!-- Node785 -->
<g id="node3" class="node">
<title>Node785</title>
<g id="a_node3"><a xlink:href="class_coin_control_dialog.html#aadea33050e5c1efd5eae8d2fcfa721f9" target="_top" xlink:title="CoinControlDialog::\lupdateView">
<polygon fill="#ffffff" stroke="#000000" points="335,-49.5 335,-79.5 437,-79.5 437,-49.5 335,-49.5"/>
<text text-anchor="start" x="343" y="-67.5" font-family="Helvetica,sans-Serif" font-size="10.00" fill="#000000">CoinControlDialog::</text>
<text text-anchor="middle" x="386" y="-56.5" font-family="Helvetica,sans-Serif" font-size="10.00" fill="#000000">updateView</text>
</a>
</g>
</g>
<!-- Node784&#45;&gt;Node785 -->
<g id="edge2" class="edge">
<title>Node784&#45;&gt;Node785</title>
<path fill="none" stroke="#191970" d="M284.9098,-64.5C301.552,-64.5 319.0879,-64.5 334.7963,-64.5"/>
<polygon fill="#191970" stroke="#191970" points="284.6876,-61.0001 274.6875,-64.5 284.6875,-68.0001 284.6876,-61.0001"/>
</g>
<!-- Node786 -->
<g id="node4" class="node">
<title>Node786</title>
<g id="a_node4"><a xlink:href="class_coin_control_dialog.html#a4c34a48574814089c54f763a22f5317a" target="_top" xlink:title="CoinControlDialog::\lsetModel">
<polygon fill="#ffffff" stroke="#000000" points="473,-98.5 473,-128.5 575,-128.5 575,-98.5 473,-98.5"/>
<text text-anchor="start" x="481" y="-116.5" font-family="Helvetica,sans-Serif" font-size="10.00" fill="#000000">CoinControlDialog::</text>
<text text-anchor="middle" x="524" y="-105.5" font-family="Helvetica,sans-Serif" font-size="10.00" fill="#000000">setModel</text>
</a>
</g>
</g>
<!-- Node785&#45;&gt;Node786 -->
<g id="edge3" class="edge">
<title>Node785&#45;&gt;Node786</title>
<path fill="none" stroke="#191970" d="M438.202,-83.0355C452.4537,-88.0959 467.7233,-93.5177 481.3723,-98.3641"/>
<polygon fill="#191970" stroke="#191970" points="439.1253,-79.6493 428.5306,-79.6014 436.783,-86.2458 439.1253,-79.6493"/>
</g>
<!-- Node793 -->
<g id="node11" class="node">
<title>Node793</title>
<g id="a_node11"><a xlink:href="class_coin_control_dialog.html#a1990d478f3ffba666c358a4f1bd395ec" target="_top" xlink:title="CoinControlDialog::\lradioTreeMode">
<polygon fill="#ffffff" stroke="#000000" points="473,-49.5 473,-79.5 575,-79.5 575,-49.5 473,-49.5"/>
<text text-anchor="start" x="481" y="-67.5" font-family="Helvetica,sans-Serif" font-size="10.00" fill="#000000">CoinControlDialog::</text>
<text text-anchor="middle" x="524" y="-56.5" font-family="Helvetica,sans-Serif" font-size="10.00" fill="#000000">radioTreeMode</text>
</a>
</g>
</g>
<!-- Node785&#45;&gt;Node793 -->
<g id="edge10" class="edge">
<title>Node785&#45;&gt;Node793</title>
<path fill="none" stroke="#191970" d="M447.4957,-64.5C455.872,-64.5 464.3977,-64.5 472.571,-64.5"/>
<polygon fill="#191970" stroke="#191970" points="447.3861,-61.0001 437.3861,-64.5 447.3861,-68.0001 447.3861,-61.0001"/>
</g>
<!-- Node795 -->
<g id="node13" class="node">
<title>Node795</title>
<g id="a_node13"><a xlink:href="class_coin_control_dialog.html#a775c6d290cb63667a434b09072094533" target="_top" xlink:title="CoinControlDialog::\lradioListMode">
<polygon fill="#ffffff" stroke="#000000" points="473,-.5 473,-30.5 575,-30.5 575,-.5 473,-.5"/>
<text text-anchor="start" x="481" y="-18.5" font-family="Helvetica,sans-Serif" font-size="10.00" fill="#000000">CoinControlDialog::</text>
<text text-anchor="middle" x="524" y="-7.5" font-family="Helvetica,sans-Serif" font-size="10.00" fill="#000000">radioListMode</text>
</a>
</g>
</g>
<!-- Node785&#45;&gt;Node795 -->
<g id="edge12" class="edge">
<title>Node785&#45;&gt;Node795</title>
<path fill="none" stroke="#191970" d="M438.202,-45.9645C452.4537,-40.9041 467.7233,-35.4823 481.3723,-30.6359"/>
<polygon fill="#191970" stroke="#191970" points="436.783,-42.7542 428.5306,-49.3986 439.1253,-49.3507 436.783,-42.7542"/>
</g>
<!-- Node787 -->
<g id="node5" class="node">
<title>Node787</title>
<g id="a_node5"><a xlink:href="class_create_asset_dialog.html#a48181a6ef7b33bc3cbe27313f7e2a16a" target="_top" xlink:title="CreateAssetDialog::\lcoinControlButtonClicked">
<polygon fill="#ffffff" stroke="#000000" points="621,-147.5 621,-177.5 749,-177.5 749,-147.5 621,-147.5"/>
<text text-anchor="start" x="629" y="-165.5" font-family="Helvetica,sans-Serif" font-size="10.00" fill="#000000">CreateAssetDialog::</text>
<text text-anchor="middle" x="685" y="-154.5" font-family="Helvetica,sans-Serif" font-size="10.00" fill="#000000">coinControlButtonClicked</text>
</a>
</g>
</g>
<!-- Node786&#45;&gt;Node787 -->
<g id="edge4" class="edge">
<title>Node786&#45;&gt;Node787</title>
<path fill="none" stroke="#191970" d="M583.5139,-131.6129C600.6301,-136.8222 619.1072,-142.4457 635.5448,-147.4484"/>
<polygon fill="#191970" stroke="#191970" points="584.2049,-128.1648 573.619,-128.6014 582.1667,-134.8615 584.2049,-128.1648"/>
</g>
<!-- Node789 -->
<g id="node7" class="node">
<title>Node789</title>
<g id="a_node7"><a xlink:href="class_reissue_asset_dialog.html#aa6ab6d2f84e4c3c305da572e856a1462" target="_top" xlink:title="ReissueAssetDialog\l::coinControlButtonClicked">
<polygon fill="#ffffff" stroke="#000000" points="618,-98.5 618,-128.5 752,-128.5 752,-98.5 618,-98.5"/>
<text text-anchor="start" x="626" y="-116.5" font-family="Helvetica,sans-Serif" font-size="10.00" fill="#000000">ReissueAssetDialog</text>
<text text-anchor="middle" x="685" y="-105.5" font-family="Helvetica,sans-Serif" font-size="10.00" fill="#000000">::coinControlButtonClicked</text>
</a>
</g>
</g>
<!-- Node786&#45;&gt;Node789 -->
<g id="edge6" class="edge">
<title>Node786&#45;&gt;Node789</title>
<path fill="none" stroke="#191970" d="M585.4099,-113.5C596.045,-113.5 607.1518,-113.5 617.9283,-113.5"/>
<polygon fill="#191970" stroke="#191970" points="585.3841,-110.0001 575.3841,-113.5 585.384,-117.0001 585.3841,-110.0001"/>
</g>
<!-- Node791 -->
<g id="node9" class="node">
<title>Node791</title>
<g id="a_node9"><a xlink:href="class_send_coins_dialog.html#a59d757d9e4bea5b380eb480fd79cfb49" target="_top" xlink:title="SendCoinsDialog::coinControl\lButtonClicked">
<polygon fill="#ffffff" stroke="#000000" points="611,-49.5 611,-79.5 759,-79.5 759,-49.5 611,-49.5"/>
<text text-anchor="start" x="619" y="-67.5" font-family="Helvetica,sans-Serif" font-size="10.00" fill="#000000">SendCoinsDialog::coinControl</text>
<text text-anchor="middle" x="685" y="-56.5" font-family="Helvetica,sans-Serif" font-size="10.00" fill="#000000">ButtonClicked</text>
</a>
</g>
</g>
<!-- Node786&#45;&gt;Node791 -->
<g id="edge8" class="edge">
<title>Node786&#45;&gt;Node791</title>
<path fill="none" stroke="#191970" d="M583.5139,-95.3871C600.6301,-90.1778 619.1072,-84.5543 635.5448,-79.5516"/>
<polygon fill="#191970" stroke="#191970" points="582.1667,-92.1385 573.619,-98.3986 584.2049,-98.8352 582.1667,-92.1385"/>
</g>
<!-- Node788 -->
<g id="node6" class="node">
<title>Node788</title>
<g id="a_node6"><a xlink:href="class_create_asset_dialog.html#a9700ac1a4c4659f6716fbdeff8260ff5" target="_top" xlink:title="CreateAssetDialog::\lCreateAssetDialog">
<polygon fill="#ffffff" stroke="#000000" points="815.5,-147.5 815.5,-177.5 920.5,-177.5 920.5,-147.5 815.5,-147.5"/>
<text text-anchor="start" x="823.5" y="-165.5" font-family="Helvetica,sans-Serif" font-size="10.00" fill="#000000">CreateAssetDialog::</text>
<text text-anchor="middle" x="868" y="-154.5" font-family="Helvetica,sans-Serif" font-size="10.00" fill="#000000">CreateAssetDialog</text>
</a>
</g>
</g>
<!-- Node787&#45;&gt;Node788 -->
<g id="edge5" class="edge">
<title>Node787&#45;&gt;Node788</title>
<path fill="none" stroke="#191970" d="M759.035,-162.5C777.8585,-162.5 797.7063,-162.5 815.23,-162.5"/>
<polygon fill="#191970" stroke="#191970" points="759.0046,-159.0001 749.0045,-162.5 759.0045,-166.0001 759.0046,-159.0001"/>
</g>
<!-- Node790 -->
<g id="node8" class="node">
<title>Node790</title>
<g id="a_node8"><a xlink:href="class_reissue_asset_dialog.html#aee7cca850e09ac4cbedb7175feea7038" target="_top" xlink:title="ReissueAssetDialog\l::ReissueAssetDialog">
<polygon fill="#ffffff" stroke="#000000" points="812,-98.5 812,-128.5 924,-128.5 924,-98.5 812,-98.5"/>
<text text-anchor="start" x="820" y="-116.5" font-family="Helvetica,sans-Serif" font-size="10.00" fill="#000000">ReissueAssetDialog</text>
<text text-anchor="middle" x="868" y="-105.5" font-family="Helvetica,sans-Serif" font-size="10.00" fill="#000000">::ReissueAssetDialog</text>
</a>
</g>
</g>
<!-- Node789&#45;&gt;Node790 -->
<g id="edge7" class="edge">
<title>Node789&#45;&gt;Node790</title>
<path fill="none" stroke="#191970" d="M762.3246,-113.5C778.9049,-113.5 796.1217,-113.5 811.7256,-113.5"/>
<polygon fill="#191970" stroke="#191970" points="762.1034,-110.0001 752.1033,-113.5 762.1033,-117.0001 762.1034,-110.0001"/>
</g>
<!-- Node792 -->
<g id="node10" class="node">
<title>Node792</title>
<g id="a_node10"><a xlink:href="class_send_coins_dialog.html#affacd36b4df87a68e2fe706ef388c0a6" target="_top" xlink:title="SendCoinsDialog::SendCoins\lDialog">
<polygon fill="#ffffff" stroke="#000000" points="795,-49.5 795,-79.5 941,-79.5 941,-49.5 795,-49.5"/>
<text text-anchor="start" x="803" y="-67.5" font-family="Helvetica,sans-Serif" font-size="10.00" fill="#000000">SendCoinsDialog::SendCoins</text>
<text text-anchor="middle" x="868" y="-56.5" font-family="Helvetica,sans-Serif" font-size="10.00" fill="#000000">Dialog</text>
</a>
</g>
</g>
<!-- Node791&#45;&gt;Node792 -->
<g id="edge9" class="edge">
<title>Node791&#45;&gt;Node792</title>
<path fill="none" stroke="#191970" d="M769.1935,-64.5C777.7819,-64.5 786.4568,-64.5 794.9129,-64.5"/>
<polygon fill="#191970" stroke="#191970" points="769.1693,-61.0001 759.1693,-64.5 769.1693,-68.0001 769.1693,-61.0001"/>
</g>
<!-- Node794 -->
<g id="node12" class="node">
<title>Node794</title>
<g id="a_node12"><a xlink:href="class_coin_control_dialog.html#a3cec3ece6aa5eec3e7829e042356a659" target="_top" xlink:title="CoinControlDialog::\lCoinControlDialog">
<polygon fill="#ffffff" stroke="#000000" points="634,-.5 634,-30.5 736,-30.5 736,-.5 634,-.5"/>
<text text-anchor="start" x="642" y="-18.5" font-family="Helvetica,sans-Serif" font-size="10.00" fill="#000000">CoinControlDialog::</text>
<text text-anchor="middle" x="685" y="-7.5" font-family="Helvetica,sans-Serif" font-size="10.00" fill="#000000">CoinControlDialog</text>
</a>
</g>
</g>
<!-- Node793&#45;&gt;Node794 -->
<g id="edge11" class="edge">
<title>Node793&#45;&gt;Node794</title>
<path fill="none" stroke="#191970" d="M583.5139,-46.3871C600.6301,-41.1778 619.1072,-35.5543 635.5448,-30.5516"/>
<polygon fill="#191970" stroke="#191970" points="582.1667,-43.1385 573.619,-49.3986 584.2049,-49.8352 582.1667,-43.1385"/>
</g>
<!-- Node795&#45;&gt;Node794 -->
<g id="edge13" class="edge">
<title>Node795&#45;&gt;Node794</title>
<path fill="none" stroke="#191970" d="M585.6606,-15.5C601.5694,-15.5 618.5183,-15.5 633.8279,-15.5"/>
<polygon fill="#191970" stroke="#191970" points="585.3841,-12.0001 575.3841,-15.5 585.384,-19.0001 585.3841,-12.0001"/>
</g>
</g>
</svg>
