<?xml version="1.0" encoding="UTF-8" standalone="no"?>
<!DOCTYPE svg PUBLIC "-//W3C//DTD SVG 1.1//EN"
 "http://www.w3.org/Graphics/SVG/1.1/DTD/svg11.dtd">
<!-- Generated by graphviz version 2.40.1 (20161225.0304)
 -->
<!-- Title: qt_mac_set_dock_menu Pages: 1 -->
<svg width="1317pt" height="99pt"
 viewBox="0.00 0.00 1317.00 98.50" xmlns="http://www.w3.org/2000/svg" xmlns:xlink="http://www.w3.org/1999/xlink">
<g id="graph0" class="graph" transform="scale(1 1) rotate(0) translate(4 94.5)">
<title>qt_mac_set_dock_menu</title>
<polygon fill="#ffffff" stroke="transparent" points="-4,4 -4,-94.5 1313,-94.5 1313,4 -4,4"/>
<!-- Node14 -->
<g id="node1" class="node">
<title>Node14</title>
<polygon fill="#bfbfbf" stroke="#000000" points="0,-52 0,-71 123,-71 123,-52 0,-52"/>
<text text-anchor="middle" x="61.5" y="-59" font-family="Helvetica,sans-Serif" font-size="10.00" fill="#000000">qt_mac_set_dock_menu</text>
</g>
<!-- Node15 -->
<g id="node2" class="node">
<title>Node15</title>
<g id="a_node2"><a xlink:href="class_mac_dock_icon_handler.html#ab44913b8dabec96186b74bc6f6896c46" target="_top" xlink:title="MacDockIconHandler\l::MacDockIconHandler">
<polygon fill="#ffffff" stroke="#000000" points="159,-46.5 159,-76.5 276,-76.5 276,-46.5 159,-46.5"/>
<text text-anchor="start" x="167" y="-64.5" font-family="Helvetica,sans-Serif" font-size="10.00" fill="#000000">MacDockIconHandler</text>
<text text-anchor="middle" x="217.5" y="-53.5" font-family="Helvetica,sans-Serif" font-size="10.00" fill="#000000">::MacDockIconHandler</text>
</a>
</g>
</g>
<!-- Node14&#45;&gt;Node15 -->
<g id="edge1" class="edge">
<title>Node14&#45;&gt;Node15</title>
<path fill="none" stroke="#191970" d="M133.1696,-61.5C141.7621,-61.5 150.4577,-61.5 158.8356,-61.5"/>
<polygon fill="#191970" stroke="#191970" points="133.1554,-58.0001 123.1553,-61.5 133.1553,-65.0001 133.1554,-58.0001"/>
</g>
<!-- Node16 -->
<g id="node3" class="node">
<title>Node16</title>
<g id="a_node3"><a xlink:href="class_mac_dock_icon_handler.html#afd3ef7126d0b6ef02eaf85e5455fe6f4" target="_top" xlink:title="MacDockIconHandler\l::instance">
<polygon fill="#ffffff" stroke="#000000" points="312,-46.5 312,-76.5 423,-76.5 423,-46.5 312,-46.5"/>
<text text-anchor="start" x="320" y="-64.5" font-family="Helvetica,sans-Serif" font-size="10.00" fill="#000000">MacDockIconHandler</text>
<text text-anchor="middle" x="367.5" y="-53.5" font-family="Helvetica,sans-Serif" font-size="10.00" fill="#000000">::instance</text>
</a>
</g>
</g>
<!-- Node15&#45;&gt;Node16 -->
<g id="edge2" class="edge">
<title>Node15&#45;&gt;Node16</title>
<path fill="none" stroke="#191970" d="M286.5684,-61.5C295.0075,-61.5 303.5474,-61.5 311.7571,-61.5"/>
<polygon fill="#191970" stroke="#191970" points="286.3535,-58.0001 276.3535,-61.5 286.3534,-65.0001 286.3535,-58.0001"/>
</g>
<!-- Node17 -->
<g id="node4" class="node">
<title>Node17</title>
<g id="a_node4"><a xlink:href="class_raven_g_u_i.html#af82cbe028fc29d0ea71074eced806071" target="_top" xlink:title="RavenGUI::RavenGUI">
<polygon fill="#ffffff" stroke="#000000" points="480,-71 480,-90 596,-90 596,-71 480,-71"/>
<text text-anchor="middle" x="538" y="-78" font-family="Helvetica,sans-Serif" font-size="10.00" fill="#000000">RavenGUI::RavenGUI</text>
</a>
</g>
</g>
<!-- Node16&#45;&gt;Node17 -->
<g id="edge3" class="edge">
<title>Node16&#45;&gt;Node17</title>
<path fill="none" stroke="#191970" d="M433.2922,-68.8317C448.6852,-70.547 464.9724,-72.362 479.9977,-74.0364"/>
<polygon fill="#191970" stroke="#191970" points="433.6542,-65.3504 423.3281,-67.7213 432.8789,-72.3074 433.6542,-65.3504"/>
</g>
<!-- Node18 -->
<g id="node5" class="node">
<title>Node18</title>
<g id="a_node5"><a xlink:href="class_raven_g_u_i.html#a992e4d8e9a7a80cd6e8d4b6fb272ffd2" target="_top" xlink:title="Create system tray menu (or setup the dock menu) ">
<polygon fill="#ffffff" stroke="#000000" points="459,-33 459,-52 617,-52 617,-33 459,-33"/>
<text text-anchor="middle" x="538" y="-40" font-family="Helvetica,sans-Serif" font-size="10.00" fill="#000000">RavenGUI::createTrayIconMenu</text>
</a>
</g>
</g>
<!-- Node16&#45;&gt;Node18 -->
<g id="edge4" class="edge">
<title>Node16&#45;&gt;Node18</title>
<path fill="none" stroke="#191970" d="M433.358,-54.161C441.7062,-53.2307 450.3164,-52.2712 458.8449,-51.3208"/>
<polygon fill="#191970" stroke="#191970" points="432.8789,-50.6926 423.3281,-55.2787 433.6542,-57.6496 432.8789,-50.6926"/>
</g>
<!-- Node19 -->
<g id="node6" class="node">
<title>Node19</title>
<g id="a_node6"><a xlink:href="class_raven_g_u_i.html#a174a3e75c334c5930d3261a2955c3725" target="_top" xlink:title="Set the client model. ">
<polygon fill="#ffffff" stroke="#000000" points="653,-33 653,-52 787,-52 787,-33 653,-33"/>
<text text-anchor="middle" x="720" y="-40" font-family="Helvetica,sans-Serif" font-size="10.00" fill="#000000">RavenGUI::setClientModel</text>
</a>
</g>
</g>
<!-- Node18&#45;&gt;Node19 -->
<g id="edge5" class="edge">
<title>Node18&#45;&gt;Node19</title>
<path fill="none" stroke="#191970" d="M627.118,-42.5C635.7327,-42.5 644.37,-42.5 652.7208,-42.5"/>
<polygon fill="#191970" stroke="#191970" points="627.0339,-39.0001 617.0338,-42.5 627.0338,-46.0001 627.0339,-39.0001"/>
</g>
<!-- Node20 -->
<g id="node7" class="node">
<title>Node20</title>
<g id="a_node7"><a xlink:href="class_raven_application.html#a60123f611cc210870fa67974cb2c804c" target="_top" xlink:title="Request core shutdown. ">
<polygon fill="#ffffff" stroke="#000000" points="1178,-49.5 1178,-79.5 1309,-79.5 1309,-49.5 1178,-49.5"/>
<text text-anchor="start" x="1186" y="-67.5" font-family="Helvetica,sans-Serif" font-size="10.00" fill="#000000">RavenApplication::request</text>
<text text-anchor="middle" x="1243.5" y="-56.5" font-family="Helvetica,sans-Serif" font-size="10.00" fill="#000000">Shutdown</text>
</a>
</g>
</g>
<!-- Node19&#45;&gt;Node20 -->
<g id="edge6" class="edge">
<title>Node19&#45;&gt;Node20</title>
<path fill="none" stroke="#191970" d="M797.1333,-45.7415C900.2203,-50.0737 1081.1346,-57.6766 1177.9629,-61.7458"/>
<polygon fill="#191970" stroke="#191970" points="797.238,-42.2429 787.0999,-45.3199 796.944,-49.2367 797.238,-42.2429"/>
</g>
<!-- Node21 -->
<g id="node8" class="node">
<title>Node21</title>
<g id="a_node8"><a xlink:href="class_raven_application.html#a1a3dcf33ba44507984b2a04e7ebf1542" target="_top" xlink:title="RavenApplication::initialize\lResult">
<polygon fill="#ffffff" stroke="#000000" points="823,-5.5 823,-35.5 957,-35.5 957,-5.5 823,-5.5"/>
<text text-anchor="start" x="831" y="-23.5" font-family="Helvetica,sans-Serif" font-size="10.00" fill="#000000">RavenApplication::initialize</text>
<text text-anchor="middle" x="890" y="-12.5" font-family="Helvetica,sans-Serif" font-size="10.00" fill="#000000">Result</text>
</a>
</g>
</g>
<!-- Node19&#45;&gt;Node21 -->
<g id="edge7" class="edge">
<title>Node19&#45;&gt;Node21</title>
<path fill="none" stroke="#191970" d="M797.146,-32.5164C805.6879,-31.411 814.3366,-30.2917 822.7428,-29.2039"/>
<polygon fill="#191970" stroke="#191970" points="796.6566,-29.0505 787.1885,-33.805 797.555,-35.9926 796.6566,-29.0505"/>
</g>
<!-- Node22 -->
<g id="node9" class="node">
<title>Node22</title>
<g id="a_node9"><a xlink:href="class_raven_application.html#aecfdce3a245b959def5dd35e5cfb192e" target="_top" xlink:title="RavenApplication::startThread">
<polygon fill="#ffffff" stroke="#000000" points="993,-11 993,-30 1142,-30 1142,-11 993,-11"/>
<text text-anchor="middle" x="1067.5" y="-18" font-family="Helvetica,sans-Serif" font-size="10.00" fill="#000000">RavenApplication::startThread</text>
</a>
</g>
</g>
<!-- Node21&#45;&gt;Node22 -->
<g id="edge8" class="edge">
<title>Node21&#45;&gt;Node22</title>
<path fill="none" stroke="#191970" d="M967.3486,-20.5C975.821,-20.5 984.4344,-20.5 992.873,-20.5"/>
<polygon fill="#191970" stroke="#191970" points="967.1052,-17.0001 957.1051,-20.5 967.1051,-24.0001 967.1052,-17.0001"/>
</g>
<!-- Node22&#45;&gt;Node20 -->
<g id="edge10" class="edge">
<title>Node22&#45;&gt;Node20</title>
<path fill="none" stroke="#191970" d="M1115.6046,-32.5261C1136.4811,-37.7453 1161.1576,-43.9144 1183.2385,-49.4346"/>
<polygon fill="#191970" stroke="#191970" points="1116.2397,-29.0773 1105.6894,-30.0473 1114.5419,-35.8683 1116.2397,-29.0773"/>
</g>
<!-- Node23 -->
<g id="node10" class="node">
<title>Node23</title>
<g id="a_node10"><a xlink:href="class_raven_application.html#a63a2032fef875fb81f26c212f69d000d" target="_top" xlink:title="Request core initialization. ">
<polygon fill="#ffffff" stroke="#000000" points="1178,-.5 1178,-30.5 1309,-30.5 1309,-.5 1178,-.5"/>
<text text-anchor="start" x="1186" y="-18.5" font-family="Helvetica,sans-Serif" font-size="10.00" fill="#000000">RavenApplication::request</text>
<text text-anchor="middle" x="1243.5" y="-7.5" font-family="Helvetica,sans-Serif" font-size="10.00" fill="#000000">Initialize</text>
</a>
</g>
</g>
<!-- Node22&#45;&gt;Node23 -->
<g id="edge9" class="edge">
<title>Node22&#45;&gt;Node23</title>
<path fill="none" stroke="#191970" d="M1152.2384,-18.0927C1160.8743,-17.8473 1169.5522,-17.6008 1177.9387,-17.3625"/>
<polygon fill="#191970" stroke="#191970" points="1152.0364,-14.5969 1142.1398,-18.3795 1152.2352,-21.5941 1152.0364,-14.5969"/>
</g>
</g>
</svg>
