<?xml version="1.0" encoding="UTF-8" standalone="no"?>
<!DOCTYPE svg PUBLIC "-//W3C//DTD SVG 1.1//EN"
 "http://www.w3.org/Graphics/SVG/1.1/DTD/svg11.dtd">
<!-- Generated by graphviz version 2.40.1 (20161225.0304)
 -->
<!-- Title: src/memusage.h Pages: 1 -->
<svg width="512pt" height="84pt"
 viewBox="0.00 0.00 511.50 84.00" xmlns="http://www.w3.org/2000/svg" xmlns:xlink="http://www.w3.org/1999/xlink">
<g id="graph0" class="graph" transform="scale(1 1) rotate(0) translate(4 80)">
<title>src/memusage.h</title>
<polygon fill="#ffffff" stroke="transparent" points="-4,4 -4,-80 507.5,-80 507.5,4 -4,4"/>
<!-- Node0 -->
<g id="node1" class="node">
<title>Node0</title>
<polygon fill="#bfbfbf" stroke="#000000" points="184,-56.5 184,-75.5 273,-75.5 273,-56.5 184,-56.5"/>
<text text-anchor="middle" x="228.5" y="-63.5" font-family="Helvetica,sans-Serif" font-size="10.00" fill="#000000">src/memusage.h</text>
</g>
<!-- Node1 -->
<g id="node2" class="node">
<title>Node1</title>
<g id="a_node2"><a xlink:href="indirectmap_8h.html" target="_top" xlink:title="indirectmap.h">
<polygon fill="#ffffff" stroke="#000000" points="0,-.5 0,-19.5 75,-19.5 75,-.5 0,-.5"/>
<text text-anchor="middle" x="37.5" y="-7.5" font-family="Helvetica,sans-Serif" font-size="10.00" fill="#000000">indirectmap.h</text>
</a>
</g>
</g>
<!-- Node0&#45;&gt;Node1 -->
<g id="edge1" class="edge">
<title>Node0&#45;&gt;Node1</title>
<path fill="none" stroke="#191970" d="M195.6659,-56.3733C163.6305,-46.9807 114.7513,-32.6496 79.8145,-22.4064"/>
<polygon fill="#191970" stroke="#191970" points="80.4864,-18.9561 69.9056,-19.5011 78.5169,-25.6733 80.4864,-18.9561"/>
</g>
<!-- Node2 -->
<g id="node3" class="node">
<title>Node2</title>
<polygon fill="#ffffff" stroke="#bfbfbf" points="93.5,-.5 93.5,-19.5 141.5,-19.5 141.5,-.5 93.5,-.5"/>
<text text-anchor="middle" x="117.5" y="-7.5" font-family="Helvetica,sans-Serif" font-size="10.00" fill="#000000">stdlib.h</text>
</g>
<!-- Node0&#45;&gt;Node2 -->
<g id="edge2" class="edge">
<title>Node0&#45;&gt;Node2</title>
<path fill="none" stroke="#191970" d="M209.4184,-56.3733C191.7598,-47.4644 165.2947,-34.1127 145.2902,-24.0203"/>
<polygon fill="#191970" stroke="#191970" points="146.8372,-20.8806 136.3326,-19.5011 143.6842,-27.1303 146.8372,-20.8806"/>
</g>
<!-- Node3 -->
<g id="node4" class="node">
<title>Node3</title>
<polygon fill="#ffffff" stroke="#bfbfbf" points="160,-.5 160,-19.5 195,-19.5 195,-.5 160,-.5"/>
<text text-anchor="middle" x="177.5" y="-7.5" font-family="Helvetica,sans-Serif" font-size="10.00" fill="#000000">map</text>
</g>
<!-- Node0&#45;&gt;Node3 -->
<g id="edge3" class="edge">
<title>Node0&#45;&gt;Node3</title>
<path fill="none" stroke="#191970" d="M219.6165,-56.2455C212.3034,-48.2155 201.7609,-36.6394 193.0533,-27.0781"/>
<polygon fill="#191970" stroke="#191970" points="195.6028,-24.6795 186.2817,-19.6427 190.4273,-29.3928 195.6028,-24.6795"/>
</g>
<!-- Node4 -->
<g id="node5" class="node">
<title>Node4</title>
<polygon fill="#ffffff" stroke="#bfbfbf" points="213.5,-.5 213.5,-19.5 243.5,-19.5 243.5,-.5 213.5,-.5"/>
<text text-anchor="middle" x="228.5" y="-7.5" font-family="Helvetica,sans-Serif" font-size="10.00" fill="#000000">set</text>
</g>
<!-- Node0&#45;&gt;Node4 -->
<g id="edge4" class="edge">
<title>Node0&#45;&gt;Node4</title>
<path fill="none" stroke="#191970" d="M228.5,-56.2455C228.5,-48.9382 228.5,-38.6944 228.5,-29.7046"/>
<polygon fill="#191970" stroke="#191970" points="232.0001,-29.6426 228.5,-19.6427 225.0001,-29.6427 232.0001,-29.6426"/>
</g>
<!-- Node5 -->
<g id="node6" class="node">
<title>Node5</title>
<polygon fill="#ffffff" stroke="#bfbfbf" points="261.5,-.5 261.5,-19.5 305.5,-19.5 305.5,-.5 261.5,-.5"/>
<text text-anchor="middle" x="283.5" y="-7.5" font-family="Helvetica,sans-Serif" font-size="10.00" fill="#000000">vector</text>
</g>
<!-- Node0&#45;&gt;Node5 -->
<g id="edge5" class="edge">
<title>Node0&#45;&gt;Node5</title>
<path fill="none" stroke="#191970" d="M238.0803,-56.2455C246.0458,-48.1352 257.5641,-36.4075 267.0079,-26.7919"/>
<polygon fill="#191970" stroke="#191970" points="269.5195,-29.2297 274.0295,-19.6427 264.5253,-24.3247 269.5195,-29.2297"/>
</g>
<!-- Node6 -->
<g id="node7" class="node">
<title>Node6</title>
<polygon fill="#ffffff" stroke="#bfbfbf" points="324,-.5 324,-19.5 407,-19.5 407,-.5 324,-.5"/>
<text text-anchor="middle" x="365.5" y="-7.5" font-family="Helvetica,sans-Serif" font-size="10.00" fill="#000000">unordered_map</text>
</g>
<!-- Node0&#45;&gt;Node6 -->
<g id="edge6" class="edge">
<title>Node0&#45;&gt;Node6</title>
<path fill="none" stroke="#191970" d="M252.0511,-56.3733C274.3391,-47.2629 307.9937,-33.5062 332.8637,-23.3404"/>
<polygon fill="#191970" stroke="#191970" points="334.3239,-26.5247 342.2562,-19.5011 331.6753,-20.0451 334.3239,-26.5247"/>
</g>
<!-- Node7 -->
<g id="node8" class="node">
<title>Node7</title>
<polygon fill="#ffffff" stroke="#bfbfbf" points="425.5,-.5 425.5,-19.5 503.5,-19.5 503.5,-.5 425.5,-.5"/>
<text text-anchor="middle" x="464.5" y="-7.5" font-family="Helvetica,sans-Serif" font-size="10.00" fill="#000000">unordered_set</text>
</g>
<!-- Node0&#45;&gt;Node7 -->
<g id="edge7" class="edge">
<title>Node0&#45;&gt;Node7</title>
<path fill="none" stroke="#191970" d="M268.8017,-56.4369C309.3507,-46.8151 371.9353,-31.9645 415.3688,-21.6583"/>
<polygon fill="#191970" stroke="#191970" points="416.2287,-25.0515 425.1504,-19.3372 414.6125,-18.2406 416.2287,-25.0515"/>
</g>
</g>
</svg>
