<?xml version="1.0" encoding="UTF-8" standalone="no"?>
<!DOCTYPE svg PUBLIC "-//W3C//DTD SVG 1.1//EN"
 "http://www.w3.org/Graphics/SVG/1.1/DTD/svg11.dtd">
<!-- Generated by graphviz version 2.40.1 (20161225.0304)
 -->
<!-- Title: BlockWitnessMerkleRoot Pages: 1 -->
<svg width="279pt" height="66pt"
 viewBox="0.00 0.00 279.00 66.00" xmlns="http://www.w3.org/2000/svg" xmlns:xlink="http://www.w3.org/1999/xlink">
<g id="graph0" class="graph" transform="scale(1 1) rotate(0) translate(4 62)">
<title>BlockWitnessMerkleRoot</title>
<polygon fill="#ffffff" stroke="transparent" points="-4,4 -4,-62 275,-62 275,4 -4,4"/>
<!-- Node6 -->
<g id="node1" class="node">
<title>Node6</title>
<polygon fill="#bfbfbf" stroke="#000000" points="0,-19.5 0,-38.5 128,-38.5 128,-19.5 0,-19.5"/>
<text text-anchor="middle" x="64" y="-26.5" font-family="Helvetica,sans-Serif" font-size="10.00" fill="#000000">BlockWitnessMerkleRoot</text>
</g>
<!-- Node7 -->
<g id="node2" class="node">
<title>Node7</title>
<g id="a_node2"><a xlink:href="classbase__blob.html#aa340be5328d911272eded433d03f30a3" target="_top" xlink:title="base_blob::SetNull">
<polygon fill="#ffffff" stroke="#000000" points="168,-38.5 168,-57.5 267,-57.5 267,-38.5 168,-38.5"/>
<text text-anchor="middle" x="217.5" y="-45.5" font-family="Helvetica,sans-Serif" font-size="10.00" fill="#000000">base_blob::SetNull</text>
</a>
</g>
</g>
<!-- Node6&#45;&gt;Node7 -->
<g id="edge1" class="edge">
<title>Node6&#45;&gt;Node7</title>
<path fill="none" stroke="#191970" d="M128.2084,-36.9476C137.8615,-38.1425 147.7867,-39.371 157.3507,-40.5548"/>
<polygon fill="#191970" stroke="#191970" points="157.2026,-44.0631 167.5569,-41.8181 158.0626,-37.1161 157.2026,-44.0631"/>
</g>
<!-- Node8 -->
<g id="node3" class="node">
<title>Node8</title>
<g id="a_node3"><a xlink:href="merkle_8cpp.html#a72cae6e3250784fe5ba63714c20c73c1" target="_top" xlink:title="ComputeMerkleRoot">
<polygon fill="#ffffff" stroke="#000000" points="164,-.5 164,-19.5 271,-19.5 271,-.5 164,-.5"/>
<text text-anchor="middle" x="217.5" y="-7.5" font-family="Helvetica,sans-Serif" font-size="10.00" fill="#000000">ComputeMerkleRoot</text>
</a>
</g>
</g>
<!-- Node6&#45;&gt;Node8 -->
<g id="edge2" class="edge">
<title>Node6&#45;&gt;Node8</title>
<path fill="none" stroke="#191970" d="M128.2084,-21.0524C136.619,-20.0113 145.236,-18.9447 153.6408,-17.9044"/>
<polygon fill="#191970" stroke="#191970" points="154.265,-21.3539 163.7592,-16.6519 153.405,-14.407 154.265,-21.3539"/>
</g>
</g>
</svg>
