<?xml version="1.0" encoding="UTF-8" standalone="no"?>
<!DOCTYPE svg PUBLIC "-//W3C//DTD SVG 1.1//EN"
 "http://www.w3.org/Graphics/SVG/1.1/DTD/svg11.dtd">
<!-- Generated by graphviz version 2.40.1 (20161225.0304)
 -->
<!-- Title: src/assets/messages.h Pages: 1 -->
<svg width="1104pt" height="308pt"
 viewBox="0.00 0.00 1104.00 308.00" xmlns="http://www.w3.org/2000/svg" xmlns:xlink="http://www.w3.org/1999/xlink">
<g id="graph0" class="graph" transform="scale(1 1) rotate(0) translate(4 304)">
<title>src/assets/messages.h</title>
<polygon fill="#ffffff" stroke="transparent" points="-4,4 -4,-304 1100.0033,-304 1100.0033,4 -4,4"/>
<!-- Node0 -->
<g id="node1" class="node">
<title>Node0</title>
<polygon fill="#bfbfbf" stroke="#000000" points="354.5033,-280.5 354.5033,-299.5 473.5033,-299.5 473.5033,-280.5 354.5033,-280.5"/>
<text text-anchor="middle" x="414.0033" y="-287.5" font-family="Helvetica,sans-Serif" font-size="10.00" fill="#000000">src/assets/messages.h</text>
</g>
<!-- Node1 -->
<g id="node2" class="node">
<title>Node1</title>
<g id="a_node2"><a xlink:href="uint256_8h.html" target="_top" xlink:title="uint256.h">
<polygon fill="#ffffff" stroke="#000000" points="210.0033,-224.5 210.0033,-243.5 266.0033,-243.5 266.0033,-224.5 210.0033,-224.5"/>
<text text-anchor="middle" x="238.0033" y="-231.5" font-family="Helvetica,sans-Serif" font-size="10.00" fill="#000000">uint256.h</text>
</a>
</g>
</g>
<!-- Node0&#45;&gt;Node1 -->
<g id="edge1" class="edge">
<title>Node0&#45;&gt;Node1</title>
<path fill="none" stroke="#191970" d="M383.7478,-280.3733C353.8206,-270.851 307.9406,-256.2528 275.6682,-245.9843"/>
<polygon fill="#191970" stroke="#191970" points="276.7127,-242.6438 266.1222,-242.9469 274.5902,-249.3143 276.7127,-242.6438"/>
</g>
<!-- Node12 -->
<g id="node13" class="node">
<title>Node12</title>
<g id="a_node13"><a xlink:href="serialize_8h.html" target="_top" xlink:title="serialize.h">
<polygon fill="#ffffff" stroke="#000000" points="597.5033,-224.5 597.5033,-243.5 658.5033,-243.5 658.5033,-224.5 597.5033,-224.5"/>
<text text-anchor="middle" x="628.0033" y="-231.5" font-family="Helvetica,sans-Serif" font-size="10.00" fill="#000000">serialize.h</text>
</a>
</g>
</g>
<!-- Node0&#45;&gt;Node12 -->
<g id="edge15" class="edge">
<title>Node0&#45;&gt;Node12</title>
<path fill="none" stroke="#191970" d="M450.7912,-280.3733C488.8283,-270.4196 548.0596,-254.9199 587.4335,-244.6164"/>
<polygon fill="#191970" stroke="#191970" points="588.4492,-247.9685 597.2374,-242.0509 586.677,-241.1966 588.4492,-247.9685"/>
</g>
<!-- Node2 -->
<g id="node3" class="node">
<title>Node2</title>
<polygon fill="#ffffff" stroke="#bfbfbf" points="645.0033,-112.5 645.0033,-131.5 697.0033,-131.5 697.0033,-112.5 645.0033,-112.5"/>
<text text-anchor="middle" x="671.0033" y="-119.5" font-family="Helvetica,sans-Serif" font-size="10.00" fill="#000000">assert.h</text>
</g>
<!-- Node1&#45;&gt;Node2 -->
<g id="edge2" class="edge">
<title>Node1&#45;&gt;Node2</title>
<path fill="none" stroke="#191970" d="M243.0246,-224.3874C251.3822,-209.4743 269.663,-181.1175 294.0033,-168 308.9214,-159.9603 543.0665,-135.1619 634.6665,-125.7107"/>
<polygon fill="#191970" stroke="#191970" points="635.2649,-129.1677 644.854,-124.6623 634.5482,-122.2045 635.2649,-129.1677"/>
</g>
<!-- Node3 -->
<g id="node4" class="node">
<title>Node3</title>
<polygon fill="#ffffff" stroke="#bfbfbf" points="13.0033,-168.5 13.0033,-187.5 59.0033,-187.5 59.0033,-168.5 13.0033,-168.5"/>
<text text-anchor="middle" x="36.0033" y="-175.5" font-family="Helvetica,sans-Serif" font-size="10.00" fill="#000000">cstring</text>
</g>
<!-- Node1&#45;&gt;Node3 -->
<g id="edge3" class="edge">
<title>Node1&#45;&gt;Node3</title>
<path fill="none" stroke="#191970" d="M209.9345,-226.76C178.0005,-218.4457 124.0719,-204.1715 68.6693,-188.1195"/>
<polygon fill="#191970" stroke="#191970" points="69.6229,-184.7519 59.0432,-185.3166 67.6659,-191.4728 69.6229,-184.7519"/>
</g>
<!-- Node4 -->
<g id="node5" class="node">
<title>Node4</title>
<polygon fill="#ffffff" stroke="#bfbfbf" points="77.5033,-168.5 77.5033,-187.5 136.5033,-187.5 136.5033,-168.5 77.5033,-168.5"/>
<text text-anchor="middle" x="107.0033" y="-175.5" font-family="Helvetica,sans-Serif" font-size="10.00" fill="#000000">stdexcept</text>
</g>
<!-- Node1&#45;&gt;Node4 -->
<g id="edge4" class="edge">
<title>Node1&#45;&gt;Node4</title>
<path fill="none" stroke="#191970" d="M215.4836,-224.3733C194.2661,-215.3032 162.2757,-201.6279 138.5265,-191.4755"/>
<polygon fill="#191970" stroke="#191970" points="139.8,-188.2136 129.2292,-187.5011 137.0485,-194.6502 139.8,-188.2136"/>
</g>
<!-- Node5 -->
<g id="node6" class="node">
<title>Node5</title>
<polygon fill="#ffffff" stroke="#bfbfbf" points="305.5033,-.5 305.5033,-19.5 354.5033,-19.5 354.5033,-.5 305.5033,-.5"/>
<text text-anchor="middle" x="330.0033" y="-7.5" font-family="Helvetica,sans-Serif" font-size="10.00" fill="#000000">stdint.h</text>
</g>
<!-- Node1&#45;&gt;Node5 -->
<g id="edge5" class="edge">
<title>Node1&#45;&gt;Node5</title>
<path fill="none" stroke="#191970" d="M209.7143,-232.7678C153.252,-229.6529 29.7787,-219.3356 4.0033,-188 -1.6434,-181.1351 -.7164,-175.5324 4.0033,-168 69.438,-63.5713 225.6868,-26.4399 295.3984,-14.7652"/>
<polygon fill="#191970" stroke="#191970" points="296.1037,-18.197 305.4262,-13.1629 294.9992,-11.2847 296.1037,-18.197"/>
</g>
<!-- Node6 -->
<g id="node7" class="node">
<title>Node6</title>
<polygon fill="#ffffff" stroke="#bfbfbf" points="365.5033,-168.5 365.5033,-187.5 406.5033,-187.5 406.5033,-168.5 365.5033,-168.5"/>
<text text-anchor="middle" x="386.0033" y="-175.5" font-family="Helvetica,sans-Serif" font-size="10.00" fill="#000000">string</text>
</g>
<!-- Node1&#45;&gt;Node6 -->
<g id="edge6" class="edge">
<title>Node1&#45;&gt;Node6</title>
<path fill="none" stroke="#191970" d="M263.4454,-224.3733C289.0609,-214.6809 328.5746,-199.7298 355.7733,-189.4384"/>
<polygon fill="#191970" stroke="#191970" points="357.074,-192.6885 365.1882,-185.876 354.5967,-186.1415 357.074,-192.6885"/>
</g>
<!-- Node7 -->
<g id="node8" class="node">
<title>Node7</title>
<polygon fill="#ffffff" stroke="#bfbfbf" points="303.0033,-168.5 303.0033,-187.5 347.0033,-187.5 347.0033,-168.5 303.0033,-168.5"/>
<text text-anchor="middle" x="325.0033" y="-175.5" font-family="Helvetica,sans-Serif" font-size="10.00" fill="#000000">vector</text>
</g>
<!-- Node1&#45;&gt;Node7 -->
<g id="edge7" class="edge">
<title>Node1&#45;&gt;Node7</title>
<path fill="none" stroke="#191970" d="M253.1576,-224.2455C266.506,-215.6534 286.1619,-203.0014 301.5416,-193.1018"/>
<polygon fill="#191970" stroke="#191970" points="303.5084,-195.9982 310.0227,-187.6427 299.7197,-190.1121 303.5084,-195.9982"/>
</g>
<!-- Node8 -->
<g id="node9" class="node">
<title>Node8</title>
<g id="a_node9"><a xlink:href="common_8h.html" target="_top" xlink:title="crypto/common.h">
<polygon fill="#ffffff" stroke="#000000" points="155.0033,-168.5 155.0033,-187.5 247.0033,-187.5 247.0033,-168.5 155.0033,-168.5"/>
<text text-anchor="middle" x="201.0033" y="-175.5" font-family="Helvetica,sans-Serif" font-size="10.00" fill="#000000">crypto/common.h</text>
</a>
</g>
</g>
<!-- Node1&#45;&gt;Node8 -->
<g id="edge8" class="edge">
<title>Node1&#45;&gt;Node8</title>
<path fill="none" stroke="#191970" d="M231.5584,-224.2455C226.4651,-216.5367 219.2125,-205.5598 213.0513,-196.2348"/>
<polygon fill="#191970" stroke="#191970" points="215.8072,-194.0566 207.3744,-187.6427 209.9668,-197.9155 215.8072,-194.0566"/>
</g>
<!-- Node8&#45;&gt;Node5 -->
<g id="edge9" class="edge">
<title>Node8&#45;&gt;Node5</title>
<path fill="none" stroke="#191970" d="M208.3085,-168.4862C229.1418,-141.3545 289.0921,-63.2798 316.2912,-27.8576"/>
<polygon fill="#191970" stroke="#191970" points="319.1426,-29.891 322.4569,-19.8279 313.5906,-25.6278 319.1426,-29.891"/>
</g>
<!-- Node9 -->
<g id="node10" class="node">
<title>Node9</title>
<polygon fill="#ffffff" stroke="#bfbfbf" points="501.5033,-112.5 501.5033,-131.5 550.5033,-131.5 550.5033,-112.5 501.5033,-112.5"/>
<text text-anchor="middle" x="526.0033" y="-119.5" font-family="Helvetica,sans-Serif" font-size="10.00" fill="#000000">string.h</text>
</g>
<!-- Node8&#45;&gt;Node9 -->
<g id="edge10" class="edge">
<title>Node8&#45;&gt;Node9</title>
<path fill="none" stroke="#191970" d="M247.2227,-170.036C313.186,-158.6701 432.8311,-138.0543 491.5787,-127.9316"/>
<polygon fill="#191970" stroke="#191970" points="492.2167,-131.3734 501.4772,-126.226 491.028,-124.475 492.2167,-131.3734"/>
</g>
<!-- Node10 -->
<g id="node11" class="node">
<title>Node10</title>
<g id="a_node11"><a xlink:href="endian_8h.html" target="_top" xlink:title="compat/endian.h">
<polygon fill="#ffffff" stroke="#000000" points="275.5033,-112.5 275.5033,-131.5 364.5033,-131.5 364.5033,-112.5 275.5033,-112.5"/>
<text text-anchor="middle" x="320.0033" y="-119.5" font-family="Helvetica,sans-Serif" font-size="10.00" fill="#000000">compat/endian.h</text>
</a>
</g>
</g>
<!-- Node8&#45;&gt;Node10 -->
<g id="edge11" class="edge">
<title>Node8&#45;&gt;Node10</title>
<path fill="none" stroke="#191970" d="M221.4601,-168.3733C240.4771,-159.4241 269.0209,-145.9917 290.5009,-135.8835"/>
<polygon fill="#191970" stroke="#191970" points="292.2555,-138.926 299.8134,-131.5011 289.2749,-132.5923 292.2555,-138.926"/>
</g>
<!-- Node10&#45;&gt;Node5 -->
<g id="edge14" class="edge">
<title>Node10&#45;&gt;Node5</title>
<path fill="none" stroke="#191970" d="M316.3187,-112.1C311.9925,-99.1379 305.8971,-75.7426 310.0033,-56 311.9448,-46.6655 315.8837,-36.9017 319.7565,-28.783"/>
<polygon fill="#191970" stroke="#191970" points="322.8936,-30.3353 324.3089,-19.8354 316.6547,-27.161 322.8936,-30.3353"/>
</g>
<!-- Node11 -->
<g id="node12" class="node">
<title>Node11</title>
<g id="a_node12"><a xlink:href="byteswap_8h.html" target="_top" xlink:title="compat/byteswap.h">
<polygon fill="#ffffff" stroke="#000000" points="319.0033,-56.5 319.0033,-75.5 421.0033,-75.5 421.0033,-56.5 319.0033,-56.5"/>
<text text-anchor="middle" x="370.0033" y="-63.5" font-family="Helvetica,sans-Serif" font-size="10.00" fill="#000000">compat/byteswap.h</text>
</a>
</g>
</g>
<!-- Node10&#45;&gt;Node11 -->
<g id="edge12" class="edge">
<title>Node10&#45;&gt;Node11</title>
<path fill="none" stroke="#191970" d="M328.7127,-112.2455C335.8106,-104.2958 346.0117,-92.8706 354.4983,-83.3656"/>
<polygon fill="#191970" stroke="#191970" points="357.3444,-85.4331 361.3938,-75.6427 352.1228,-80.771 357.3444,-85.4331"/>
</g>
<!-- Node11&#45;&gt;Node5 -->
<g id="edge13" class="edge">
<title>Node11&#45;&gt;Node5</title>
<path fill="none" stroke="#191970" d="M363.0358,-56.2455C357.4722,-48.4564 349.5253,-37.3308 342.8204,-27.9439"/>
<polygon fill="#191970" stroke="#191970" points="345.5514,-25.7457 336.8909,-19.6427 339.8553,-29.8144 345.5514,-25.7457"/>
</g>
<!-- Node12&#45;&gt;Node2 -->
<g id="edge18" class="edge">
<title>Node12&#45;&gt;Node2</title>
<path fill="none" stroke="#191970" d="M633.7391,-224.3987C639.0131,-215.2742 646.7834,-201.0465 652.0033,-188 658.0936,-172.7781 663.1228,-154.8677 666.4739,-141.5482"/>
<polygon fill="#191970" stroke="#191970" points="669.9311,-142.142 668.8804,-131.5994 663.1273,-140.4961 669.9311,-142.142"/>
</g>
<!-- Node12&#45;&gt;Node5 -->
<g id="edge24" class="edge">
<title>Node12&#45;&gt;Node5</title>
<path fill="none" stroke="#191970" d="M597.4448,-226.4677C573.8214,-219.4825 541.3225,-207.2241 518.0033,-188 463.5986,-143.1493 483.6135,-101.7974 430.0033,-56 410.8988,-39.6796 385.0392,-27.9893 364.4033,-20.4781"/>
<polygon fill="#191970" stroke="#191970" points="365.3398,-17.0984 354.745,-17.1246 363.0437,-23.7111 365.3398,-17.0984"/>
</g>
<!-- Node12&#45;&gt;Node6 -->
<g id="edge25" class="edge">
<title>Node12&#45;&gt;Node6</title>
<path fill="none" stroke="#191970" d="M597.3546,-227.7857C556.8295,-219.4327 483.2709,-203.799 421.0033,-188 419.5485,-187.6309 418.0624,-187.2442 416.5633,-186.8463"/>
<polygon fill="#191970" stroke="#191970" points="417.2463,-183.4043 406.6761,-184.1274 415.3901,-190.1537 417.2463,-183.4043"/>
</g>
<!-- Node12&#45;&gt;Node7 -->
<g id="edge28" class="edge">
<title>Node12&#45;&gt;Node7</title>
<path fill="none" stroke="#191970" d="M597.2503,-230.1552C546.7054,-223.5297 443.0832,-208.6562 357.0033,-188 356.9043,-187.9762 356.8051,-187.9523 356.7058,-187.9283"/>
<polygon fill="#191970" stroke="#191970" points="357.8427,-184.61 347.276,-185.3812 356.0173,-191.3678 357.8427,-184.61"/>
</g>
<!-- Node12&#45;&gt;Node9 -->
<g id="edge26" class="edge">
<title>Node12&#45;&gt;Node9</title>
<path fill="none" stroke="#191970" d="M597.3388,-228.2738C574.714,-222.313 545.3065,-210.5504 530.0033,-188 520.9497,-174.6588 520.6265,-156.09 522.1791,-142.0457"/>
<polygon fill="#191970" stroke="#191970" points="525.673,-142.3474 523.6955,-131.9387 518.7504,-141.3087 525.673,-142.3474"/>
</g>
<!-- Node12&#45;&gt;Node10 -->
<g id="edge16" class="edge">
<title>Node12&#45;&gt;Node10</title>
<path fill="none" stroke="#191970" d="M597.2691,-227.3681C563.004,-219.5772 506.1985,-205.4701 459.0033,-188 453.4315,-185.9375 388.4627,-154.8616 349.351,-136.0976"/>
<polygon fill="#191970" stroke="#191970" points="350.5462,-132.789 340.0163,-131.6175 347.5173,-139.0998 350.5462,-132.789"/>
</g>
<!-- Node13 -->
<g id="node14" class="node">
<title>Node13</title>
<polygon fill="#ffffff" stroke="#bfbfbf" points="539.0033,-168.5 539.0033,-187.5 595.0033,-187.5 595.0033,-168.5 539.0033,-168.5"/>
<text text-anchor="middle" x="567.0033" y="-175.5" font-family="Helvetica,sans-Serif" font-size="10.00" fill="#000000">algorithm</text>
</g>
<!-- Node12&#45;&gt;Node13 -->
<g id="edge17" class="edge">
<title>Node12&#45;&gt;Node13</title>
<path fill="none" stroke="#191970" d="M617.3779,-224.2455C608.456,-216.0549 595.5153,-204.1749 584.9841,-194.5069"/>
<polygon fill="#191970" stroke="#191970" points="587.2405,-191.8271 577.5069,-187.6427 582.5065,-196.9837 587.2405,-191.8271"/>
</g>
<!-- Node14 -->
<g id="node15" class="node">
<title>Node14</title>
<polygon fill="#ffffff" stroke="#bfbfbf" points="613.5033,-168.5 613.5033,-187.5 642.5033,-187.5 642.5033,-168.5 613.5033,-168.5"/>
<text text-anchor="middle" x="628.0033" y="-175.5" font-family="Helvetica,sans-Serif" font-size="10.00" fill="#000000">ios</text>
</g>
<!-- Node12&#45;&gt;Node14 -->
<g id="edge19" class="edge">
<title>Node12&#45;&gt;Node14</title>
<path fill="none" stroke="#191970" d="M628.0033,-224.2455C628.0033,-216.9382 628.0033,-206.6944 628.0033,-197.7046"/>
<polygon fill="#191970" stroke="#191970" points="631.5034,-197.6426 628.0033,-187.6427 624.5034,-197.6427 631.5034,-197.6426"/>
</g>
<!-- Node15 -->
<g id="node16" class="node">
<title>Node15</title>
<polygon fill="#ffffff" stroke="#bfbfbf" points="699.0033,-168.5 699.0033,-187.5 739.0033,-187.5 739.0033,-168.5 699.0033,-168.5"/>
<text text-anchor="middle" x="719.0033" y="-175.5" font-family="Helvetica,sans-Serif" font-size="10.00" fill="#000000">limits</text>
</g>
<!-- Node12&#45;&gt;Node15 -->
<g id="edge20" class="edge">
<title>Node12&#45;&gt;Node15</title>
<path fill="none" stroke="#191970" d="M643.8543,-224.2455C657.8165,-215.6534 678.3761,-203.0014 694.4629,-193.1018"/>
<polygon fill="#191970" stroke="#191970" points="696.6517,-195.8645 703.334,-187.6427 692.983,-189.9029 696.6517,-195.8645"/>
</g>
<!-- Node16 -->
<g id="node17" class="node">
<title>Node16</title>
<polygon fill="#ffffff" stroke="#bfbfbf" points="757.5033,-168.5 757.5033,-187.5 792.5033,-187.5 792.5033,-168.5 757.5033,-168.5"/>
<text text-anchor="middle" x="775.0033" y="-175.5" font-family="Helvetica,sans-Serif" font-size="10.00" fill="#000000">map</text>
</g>
<!-- Node12&#45;&gt;Node16 -->
<g id="edge21" class="edge">
<title>Node12&#45;&gt;Node16</title>
<path fill="none" stroke="#191970" d="M653.2735,-224.3733C679.6234,-214.3352 720.7798,-198.6566 747.8204,-188.3554"/>
<polygon fill="#191970" stroke="#191970" points="749.3336,-191.5244 757.4325,-184.6936 746.8416,-184.983 749.3336,-191.5244"/>
</g>
<!-- Node17 -->
<g id="node18" class="node">
<title>Node17</title>
<polygon fill="#ffffff" stroke="#bfbfbf" points="811.0033,-168.5 811.0033,-187.5 863.0033,-187.5 863.0033,-168.5 811.0033,-168.5"/>
<text text-anchor="middle" x="837.0033" y="-175.5" font-family="Helvetica,sans-Serif" font-size="10.00" fill="#000000">memory</text>
</g>
<!-- Node12&#45;&gt;Node17 -->
<g id="edge22" class="edge">
<title>Node12&#45;&gt;Node17</title>
<path fill="none" stroke="#191970" d="M658.5415,-226.1225C691.3552,-217.6151 745.2883,-203.5093 800.6606,-188.3351"/>
<polygon fill="#191970" stroke="#191970" points="801.9306,-191.6159 810.6458,-185.5913 800.0758,-184.8661 801.9306,-191.6159"/>
</g>
<!-- Node18 -->
<g id="node19" class="node">
<title>Node18</title>
<polygon fill="#ffffff" stroke="#bfbfbf" points="881.0033,-168.5 881.0033,-187.5 911.0033,-187.5 911.0033,-168.5 881.0033,-168.5"/>
<text text-anchor="middle" x="896.0033" y="-175.5" font-family="Helvetica,sans-Serif" font-size="10.00" fill="#000000">set</text>
</g>
<!-- Node12&#45;&gt;Node18 -->
<g id="edge23" class="edge">
<title>Node12&#45;&gt;Node18</title>
<path fill="none" stroke="#191970" d="M658.5382,-230.3255C703.3986,-224.4819 789.7478,-211.5408 871.0544,-187.7861"/>
<polygon fill="#191970" stroke="#191970" points="872.3603,-191.049 880.9417,-184.8354 870.3584,-184.3414 872.3603,-191.049"/>
</g>
<!-- Node19 -->
<g id="node20" class="node">
<title>Node19</title>
<polygon fill="#ffffff" stroke="#bfbfbf" points="929.0033,-168.5 929.0033,-187.5 969.0033,-187.5 969.0033,-168.5 929.0033,-168.5"/>
<text text-anchor="middle" x="949.0033" y="-175.5" font-family="Helvetica,sans-Serif" font-size="10.00" fill="#000000">utility</text>
</g>
<!-- Node12&#45;&gt;Node19 -->
<g id="edge27" class="edge">
<title>Node12&#45;&gt;Node19</title>
<path fill="none" stroke="#191970" d="M658.6219,-230.9697C710.4599,-225.4558 818.8532,-212.2715 918.8944,-187.9233"/>
<polygon fill="#191970" stroke="#191970" points="919.994,-191.2568 928.8582,-185.4537 918.3098,-184.4624 919.994,-191.2568"/>
</g>
<!-- Node20 -->
<g id="node21" class="node">
<title>Node20</title>
<g id="a_node21"><a xlink:href="prevector_8h.html" target="_top" xlink:title="prevector.h">
<polygon fill="#ffffff" stroke="#000000" points="987.5033,-168.5 987.5033,-187.5 1052.5033,-187.5 1052.5033,-168.5 987.5033,-168.5"/>
<text text-anchor="middle" x="1020.0033" y="-175.5" font-family="Helvetica,sans-Serif" font-size="10.00" fill="#000000">prevector.h</text>
</a>
</g>
</g>
<!-- Node12&#45;&gt;Node20 -->
<g id="edge29" class="edge">
<title>Node12&#45;&gt;Node20</title>
<path fill="none" stroke="#191970" d="M658.5996,-231.051C718.0337,-225.0927 853.3877,-210.4021 977.0381,-188.0189"/>
<polygon fill="#191970" stroke="#191970" points="977.8509,-191.4284 987.0564,-186.1835 976.5894,-184.543 977.8509,-191.4284"/>
</g>
<!-- Node20&#45;&gt;Node2 -->
<g id="edge30" class="edge">
<title>Node20&#45;&gt;Node2</title>
<path fill="none" stroke="#191970" d="M987.5032,-169.9736C984.3011,-169.2696 981.094,-168.5984 978.0033,-168 880.6231,-149.1469 764.587,-133.6265 707.0507,-126.3911"/>
<polygon fill="#191970" stroke="#191970" points="707.3624,-122.903 697.0059,-125.1376 706.4955,-129.8491 707.3624,-122.903"/>
</g>
<!-- Node20&#45;&gt;Node5 -->
<g id="edge32" class="edge">
<title>Node20&#45;&gt;Node5</title>
<path fill="none" stroke="#191970" d="M1020.2457,-168.2336C1020.033,-153.6375 1017.3086,-126.3204 1001.0033,-112 904.7613,-27.4739 488.0243,-12.9503 364.582,-10.4924"/>
<polygon fill="#191970" stroke="#191970" points="364.6142,-6.9925 354.5512,-10.3068 364.4847,-13.9913 364.6142,-6.9925"/>
</g>
<!-- Node20&#45;&gt;Node9 -->
<g id="edge33" class="edge">
<title>Node20&#45;&gt;Node9</title>
<path fill="none" stroke="#191970" d="M987.0727,-169.7242C984.0173,-169.0881 980.9595,-168.5001 978.0033,-168 937.2012,-161.0976 659.561,-134.6007 560.7922,-125.2724"/>
<polygon fill="#191970" stroke="#191970" points="561.0127,-121.7777 550.7281,-124.3229 560.3551,-128.7468 561.0127,-121.7777"/>
</g>
<!-- Node21 -->
<g id="node22" class="node">
<title>Node21</title>
<polygon fill="#ffffff" stroke="#bfbfbf" points="1048.0033,-112.5 1048.0033,-131.5 1096.0033,-131.5 1096.0033,-112.5 1048.0033,-112.5"/>
<text text-anchor="middle" x="1072.0033" y="-119.5" font-family="Helvetica,sans-Serif" font-size="10.00" fill="#000000">stdlib.h</text>
</g>
<!-- Node20&#45;&gt;Node21 -->
<g id="edge31" class="edge">
<title>Node20&#45;&gt;Node21</title>
<path fill="none" stroke="#191970" d="M1029.061,-168.2455C1036.5175,-160.2155 1047.2667,-148.6394 1056.145,-139.0781"/>
<polygon fill="#191970" stroke="#191970" points="1058.8096,-141.3522 1063.0494,-131.6427 1053.6801,-136.589 1058.8096,-141.3522"/>
</g>
<!-- Node22 -->
<g id="node23" class="node">
<title>Node22</title>
<polygon fill="#ffffff" stroke="#bfbfbf" points="864.5033,-112.5 864.5033,-131.5 911.5033,-131.5 911.5033,-112.5 864.5033,-112.5"/>
<text text-anchor="middle" x="888.0033" y="-119.5" font-family="Helvetica,sans-Serif" font-size="10.00" fill="#000000">iterator</text>
</g>
<!-- Node20&#45;&gt;Node22 -->
<g id="edge34" class="edge">
<title>Node20&#45;&gt;Node22</title>
<path fill="none" stroke="#191970" d="M997.3117,-168.3733C975.9322,-159.3032 943.6976,-145.6279 919.7671,-135.4755"/>
<polygon fill="#191970" stroke="#191970" points="920.9716,-132.1846 910.3988,-131.5011 918.2377,-138.6287 920.9716,-132.1846"/>
</g>
<!-- Node23 -->
<g id="node24" class="node">
<title>Node23</title>
<polygon fill="#ffffff" stroke="#bfbfbf" points="930.0033,-112.5 930.0033,-131.5 992.0033,-131.5 992.0033,-112.5 930.0033,-112.5"/>
<text text-anchor="middle" x="961.0033" y="-119.5" font-family="Helvetica,sans-Serif" font-size="10.00" fill="#000000">type_traits</text>
</g>
<!-- Node20&#45;&gt;Node23 -->
<g id="edge35" class="edge">
<title>Node20&#45;&gt;Node23</title>
<path fill="none" stroke="#191970" d="M1009.7263,-168.2455C1001.1815,-160.1352 988.8255,-148.4075 978.6948,-138.7919"/>
<polygon fill="#191970" stroke="#191970" points="980.8252,-135.9884 971.1626,-131.6427 976.0061,-141.0655 980.8252,-135.9884"/>
</g>
</g>
</svg>
