<?xml version="1.0" encoding="UTF-8" standalone="no"?>
<!DOCTYPE svg PUBLIC "-//W3C//DTD SVG 1.1//EN"
 "http://www.w3.org/Graphics/SVG/1.1/DTD/svg11.dtd">
<!-- Generated by graphviz version 2.40.1 (20161225.0304)
 -->
<!-- Title: GenerateRavens Pages: 1 -->
<svg width="588pt" height="85pt"
 viewBox="0.00 0.00 588.00 85.00" xmlns="http://www.w3.org/2000/svg" xmlns:xlink="http://www.w3.org/1999/xlink">
<g id="graph0" class="graph" transform="scale(1 1) rotate(0) translate(4 81)">
<title>GenerateRavens</title>
<polygon fill="#ffffff" stroke="transparent" points="-4,4 -4,-81 584,-81 584,4 -4,4"/>
<!-- Node3 -->
<g id="node1" class="node">
<title>Node3</title>
<polygon fill="#bfbfbf" stroke="#000000" points="0,-19.5 0,-38.5 90,-38.5 90,-19.5 0,-19.5"/>
<text text-anchor="middle" x="45" y="-26.5" font-family="Helvetica,sans-Serif" font-size="10.00" fill="#000000">GenerateRavens</text>
</g>
<!-- Node4 -->
<g id="node2" class="node">
<title>Node4</title>
<g id="a_node2"><a xlink:href="init_8h.html#a5cb3db83cb0ba2e421f651a1ee1f2cfe" target="_top" xlink:title="Preparing steps before shutting down or restarting the wallet. ">
<polygon fill="#ffffff" stroke="#000000" points="126,-19.5 126,-38.5 220,-38.5 220,-19.5 126,-19.5"/>
<text text-anchor="middle" x="173" y="-26.5" font-family="Helvetica,sans-Serif" font-size="10.00" fill="#000000">PrepareShutdown</text>
</a>
</g>
</g>
<!-- Node3&#45;&gt;Node4 -->
<g id="edge1" class="edge">
<title>Node3&#45;&gt;Node4</title>
<path fill="none" stroke="#191970" d="M100.2985,-29C108.7538,-29 117.4155,-29 125.6785,-29"/>
<polygon fill="#191970" stroke="#191970" points="100.128,-25.5001 90.128,-29 100.128,-32.5001 100.128,-25.5001"/>
</g>
<!-- Node5 -->
<g id="node3" class="node">
<title>Node5</title>
<g id="a_node3"><a xlink:href="init_8h.html#ac5f038c2b480cf9ef5e19e3eba8dbaf9" target="_top" xlink:title="Shutdown is split into 2 parts: Part 1: shut down everything but the main wallet instance (done in Pr...">
<polygon fill="#ffffff" stroke="#000000" points="276,-38.5 276,-57.5 336,-57.5 336,-38.5 276,-38.5"/>
<text text-anchor="middle" x="306" y="-45.5" font-family="Helvetica,sans-Serif" font-size="10.00" fill="#000000">Shutdown</text>
</a>
</g>
</g>
<!-- Node4&#45;&gt;Node5 -->
<g id="edge2" class="edge">
<title>Node4&#45;&gt;Node5</title>
<path fill="none" stroke="#191970" d="M230.4204,-37.2029C246.0807,-39.4401 262.4256,-41.7751 275.893,-43.699"/>
<polygon fill="#191970" stroke="#191970" points="230.6598,-33.7017 220.2653,-35.7522 229.6698,-40.6313 230.6598,-33.7017"/>
</g>
<!-- Node9 -->
<g id="node7" class="node">
<title>Node9</title>
<g id="a_node7"><a xlink:href="class_raven_core.html#ab35cedbe16324f62d058e964b03cac69" target="_top" xlink:title="RavenCore::restart">
<polygon fill="#ffffff" stroke="#000000" points="256,-.5 256,-19.5 356,-19.5 356,-.5 256,-.5"/>
<text text-anchor="middle" x="306" y="-7.5" font-family="Helvetica,sans-Serif" font-size="10.00" fill="#000000">RavenCore::restart</text>
</a>
</g>
</g>
<!-- Node4&#45;&gt;Node9 -->
<g id="edge6" class="edge">
<title>Node4&#45;&gt;Node9</title>
<path fill="none" stroke="#191970" d="M230.4096,-20.7986C238.8373,-19.5947 247.4636,-18.3623 255.7332,-17.181"/>
<polygon fill="#191970" stroke="#191970" points="229.6698,-17.3687 220.2653,-22.2478 230.6598,-24.2983 229.6698,-17.3687"/>
</g>
<!-- Node6 -->
<g id="node4" class="node">
<title>Node6</title>
<g id="a_node4"><a xlink:href="class_raven_core.html#a0b62b17932fa72d2ac40d4d81b2a432d" target="_top" xlink:title="RavenCore::shutdown">
<polygon fill="#ffffff" stroke="#000000" points="392,-57.5 392,-76.5 506,-76.5 506,-57.5 392,-57.5"/>
<text text-anchor="middle" x="449" y="-64.5" font-family="Helvetica,sans-Serif" font-size="10.00" fill="#000000">RavenCore::shutdown</text>
</a>
</g>
</g>
<!-- Node5&#45;&gt;Node6 -->
<g id="edge3" class="edge">
<title>Node5&#45;&gt;Node6</title>
<path fill="none" stroke="#191970" d="M346.6475,-53.4007C360.7082,-55.2689 376.7384,-57.3988 391.8725,-59.4096"/>
<polygon fill="#191970" stroke="#191970" points="346.7005,-49.8771 336.3266,-52.0294 345.7785,-56.8161 346.7005,-49.8771"/>
</g>
<!-- Node7 -->
<g id="node5" class="node">
<title>Node7</title>
<g id="a_node5"><a xlink:href="ravend_8cpp.html#ac59316b767e6984e1285f0531275286b" target="_top" xlink:title="AppInit">
<polygon fill="#ffffff" stroke="#000000" points="425.5,-19.5 425.5,-38.5 472.5,-38.5 472.5,-19.5 425.5,-19.5"/>
<text text-anchor="middle" x="449" y="-26.5" font-family="Helvetica,sans-Serif" font-size="10.00" fill="#000000">AppInit</text>
</a>
</g>
</g>
<!-- Node5&#45;&gt;Node7 -->
<g id="edge4" class="edge">
<title>Node5&#45;&gt;Node7</title>
<path fill="none" stroke="#191970" d="M346.4377,-42.6272C371.9077,-39.243 403.9055,-34.9916 425.3263,-32.1455"/>
<polygon fill="#191970" stroke="#191970" points="345.7785,-39.1839 336.3266,-43.9706 346.7005,-46.1229 345.7785,-39.1839"/>
</g>
<!-- Node8 -->
<g id="node6" class="node">
<title>Node8</title>
<g id="a_node6"><a xlink:href="ravend_8cpp.html#a0ddf1224851353fc92bfbff6f499fa97" target="_top" xlink:title="main">
<polygon fill="#ffffff" stroke="#000000" points="542,-19.5 542,-38.5 580,-38.5 580,-19.5 542,-19.5"/>
<text text-anchor="middle" x="561" y="-26.5" font-family="Helvetica,sans-Serif" font-size="10.00" fill="#000000">main</text>
</a>
</g>
</g>
<!-- Node7&#45;&gt;Node8 -->
<g id="edge5" class="edge">
<title>Node7&#45;&gt;Node8</title>
<path fill="none" stroke="#191970" d="M482.9552,-29C502.2177,-29 525.6211,-29 541.7465,-29"/>
<polygon fill="#191970" stroke="#191970" points="482.7524,-25.5001 472.7523,-29 482.7523,-32.5001 482.7524,-25.5001"/>
</g>
</g>
</svg>
