<?xml version="1.0" encoding="UTF-8" standalone="no"?>
<!DOCTYPE svg PUBLIC "-//W3C//DTD SVG 1.1//EN"
 "http://www.w3.org/Graphics/SVG/1.1/DTD/svg11.dtd">
<!-- Generated by graphviz version 2.40.1 (20161225.0304)
 -->
<!-- Title: UpdateTime Pages: 1 -->
<svg width="459pt" height="104pt"
 viewBox="0.00 0.00 459.00 104.00" xmlns="http://www.w3.org/2000/svg" xmlns:xlink="http://www.w3.org/1999/xlink">
<g id="graph0" class="graph" transform="scale(1 1) rotate(0) translate(4 100)">
<title>UpdateTime</title>
<polygon fill="#ffffff" stroke="transparent" points="-4,4 -4,-100 455,-100 455,4 -4,4"/>
<!-- Node15 -->
<g id="node1" class="node">
<title>Node15</title>
<polygon fill="#bfbfbf" stroke="#000000" points="0,-38.5 0,-57.5 70,-57.5 70,-38.5 0,-38.5"/>
<text text-anchor="middle" x="35" y="-45.5" font-family="Helvetica,sans-Serif" font-size="10.00" fill="#000000">UpdateTime</text>
</g>
<!-- Node16 -->
<g id="node2" class="node">
<title>Node16</title>
<g id="a_node2"><a xlink:href="class_c_block_index.html#aa9bd0ab02cf8b9c866618cee3a5a0583" target="_top" xlink:title="CBlockIndex::GetMedianTimePast">
<polygon fill="#ffffff" stroke="#000000" points="106,-76.5 106,-95.5 274,-95.5 274,-76.5 106,-76.5"/>
<text text-anchor="middle" x="190" y="-83.5" font-family="Helvetica,sans-Serif" font-size="10.00" fill="#000000">CBlockIndex::GetMedianTimePast</text>
</a>
</g>
</g>
<!-- Node15&#45;&gt;Node16 -->
<g id="edge1" class="edge">
<title>Node15&#45;&gt;Node16</title>
<path fill="none" stroke="#191970" d="M69.5982,-57.5487C81.1495,-60.6592 94.1071,-64.0649 106,-67 115.7984,-69.4182 126.2696,-71.8822 136.3776,-74.1996"/>
<polygon fill="#191970" stroke="#191970" points="135.7991,-77.6573 146.3262,-76.461 137.3508,-70.8314 135.7991,-77.6573"/>
</g>
<!-- Node18 -->
<g id="node4" class="node">
<title>Node18</title>
<g id="a_node4"><a xlink:href="timedata_8cpp.html#a09f81b9c7650f898cf3cf305b87547e6" target="_top" xlink:title="GetAdjustedTime">
<polygon fill="#ffffff" stroke="#000000" points="144,-38.5 144,-57.5 236,-57.5 236,-38.5 144,-38.5"/>
<text text-anchor="middle" x="190" y="-45.5" font-family="Helvetica,sans-Serif" font-size="10.00" fill="#000000">GetAdjustedTime</text>
</a>
</g>
</g>
<!-- Node15&#45;&gt;Node18 -->
<g id="edge3" class="edge">
<title>Node15&#45;&gt;Node18</title>
<path fill="none" stroke="#191970" d="M70.1719,-48C88.901,-48 112.3878,-48 133.5939,-48"/>
<polygon fill="#191970" stroke="#191970" points="133.7901,-51.5001 143.7901,-48 133.79,-44.5001 133.7901,-51.5001"/>
</g>
<!-- Node21 -->
<g id="node7" class="node">
<title>Node21</title>
<g id="a_node7"><a xlink:href="pow_8cpp.html#a444323ddc75c2b90f484fa9b9da31dc8" target="_top" xlink:title="GetNextWorkRequired">
<polygon fill="#ffffff" stroke="#000000" points="132,-.5 132,-19.5 248,-19.5 248,-.5 132,-.5"/>
<text text-anchor="middle" x="190" y="-7.5" font-family="Helvetica,sans-Serif" font-size="10.00" fill="#000000">GetNextWorkRequired</text>
</a>
</g>
</g>
<!-- Node15&#45;&gt;Node21 -->
<g id="edge6" class="edge">
<title>Node15&#45;&gt;Node21</title>
<path fill="none" stroke="#191970" d="M69.5982,-38.4513C81.1495,-35.3408 94.1071,-31.9351 106,-29 115.7984,-26.5818 126.2696,-24.1178 136.3776,-21.8004"/>
<polygon fill="#191970" stroke="#191970" points="137.3508,-25.1686 146.3262,-19.539 135.7991,-18.3427 137.3508,-25.1686"/>
</g>
<!-- Node17 -->
<g id="node3" class="node">
<title>Node17</title>
<g id="a_node3"><a xlink:href="class_c_block_index.html#a9fe0d4463c07c466f66252e8eec25f5c" target="_top" xlink:title="CBlockIndex::GetBlockTime">
<polygon fill="#ffffff" stroke="#000000" points="310,-76.5 310,-95.5 451,-95.5 451,-76.5 310,-76.5"/>
<text text-anchor="middle" x="380.5" y="-83.5" font-family="Helvetica,sans-Serif" font-size="10.00" fill="#000000">CBlockIndex::GetBlockTime</text>
</a>
</g>
</g>
<!-- Node16&#45;&gt;Node17 -->
<g id="edge2" class="edge">
<title>Node16&#45;&gt;Node17</title>
<path fill="none" stroke="#191970" d="M274.1106,-86C282.6139,-86 291.2373,-86 299.7046,-86"/>
<polygon fill="#191970" stroke="#191970" points="299.9371,-89.5001 309.937,-86 299.937,-82.5001 299.9371,-89.5001"/>
</g>
<!-- Node19 -->
<g id="node5" class="node">
<title>Node19</title>
<g id="a_node5"><a xlink:href="utiltime_8cpp.html#a46fac5fba8ba905b5f9acb364f5d8c6f" target="_top" xlink:title="GetTimeMicros() and GetTimeMillis() both return the system time, but in different units...">
<polygon fill="#ffffff" stroke="#000000" points="353.5,-38.5 353.5,-57.5 407.5,-57.5 407.5,-38.5 353.5,-38.5"/>
<text text-anchor="middle" x="380.5" y="-45.5" font-family="Helvetica,sans-Serif" font-size="10.00" fill="#000000">GetTime</text>
</a>
</g>
</g>
<!-- Node18&#45;&gt;Node19 -->
<g id="edge4" class="edge">
<title>Node18&#45;&gt;Node19</title>
<path fill="none" stroke="#191970" d="M236.1147,-48C268.9157,-48 312.4221,-48 343.0745,-48"/>
<polygon fill="#191970" stroke="#191970" points="343.342,-51.5001 353.342,-48 343.342,-44.5001 343.342,-51.5001"/>
</g>
<!-- Node20 -->
<g id="node6" class="node">
<title>Node20</title>
<g id="a_node6"><a xlink:href="timedata_8cpp.html#a50ca5344c75631267633f15cfe5e983e" target="_top" xlink:title="&quot;Never go to sea with two chronometers; take one or three.&quot; Our three time sources are: ...">
<polygon fill="#ffffff" stroke="#000000" points="340,-.5 340,-19.5 421,-19.5 421,-.5 340,-.5"/>
<text text-anchor="middle" x="380.5" y="-7.5" font-family="Helvetica,sans-Serif" font-size="10.00" fill="#000000">GetTimeOffset</text>
</a>
</g>
</g>
<!-- Node18&#45;&gt;Node20 -->
<g id="edge5" class="edge">
<title>Node18&#45;&gt;Node20</title>
<path fill="none" stroke="#191970" d="M236.1147,-38.8013C264.4832,-33.1425 300.8591,-25.8864 330.0018,-20.0731"/>
<polygon fill="#191970" stroke="#191970" points="330.8612,-23.4707 339.9833,-18.0821 329.4918,-16.606 330.8612,-23.4707"/>
</g>
</g>
</svg>
