<?xml version="1.0" encoding="UTF-8" standalone="no"?>
<!DOCTYPE svg PUBLIC "-//W3C//DTD SVG 1.1//EN"
 "http://www.w3.org/Graphics/SVG/1.1/DTD/svg11.dtd">
<!-- Generated by graphviz version 2.40.1 (20161225.0304)
 -->
<!-- Title: getgenerate Pages: 1 -->
<svg width="243pt" height="142pt"
 viewBox="0.00 0.00 243.00 142.00" xmlns="http://www.w3.org/2000/svg" xmlns:xlink="http://www.w3.org/1999/xlink">
<g id="graph0" class="graph" transform="scale(1 1) rotate(0) translate(4 138)">
<title>getgenerate</title>
<polygon fill="#ffffff" stroke="transparent" points="-4,4 -4,-138 239,-138 239,4 -4,4"/>
<!-- Node464 -->
<g id="node1" class="node">
<title>Node464</title>
<polygon fill="#bfbfbf" stroke="#000000" points="0,-57.5 0,-76.5 68,-76.5 68,-57.5 0,-57.5"/>
<text text-anchor="middle" x="34" y="-64.5" font-family="Helvetica,sans-Serif" font-size="10.00" fill="#000000">getgenerate</text>
</g>
<!-- Node465 -->
<g id="node2" class="node">
<title>Node465</title>
<g id="a_node2"><a xlink:href="class_uni_value.html#a5a7394aeb8d5584db7a90c2c041726b1" target="_top" xlink:title="UniValue::size">
<polygon fill="#ffffff" stroke="#000000" points="129.5,-114.5 129.5,-133.5 209.5,-133.5 209.5,-114.5 129.5,-114.5"/>
<text text-anchor="middle" x="169.5" y="-121.5" font-family="Helvetica,sans-Serif" font-size="10.00" fill="#000000">UniValue::size</text>
</a>
</g>
</g>
<!-- Node464&#45;&gt;Node465 -->
<g id="edge1" class="edge">
<title>Node464&#45;&gt;Node465</title>
<path fill="none" stroke="#191970" d="M49.3727,-76.5996C63.2492,-84.9567 84.4305,-96.9596 104,-105 109.5427,-107.2773 115.4538,-109.3967 121.371,-111.3318"/>
<polygon fill="#191970" stroke="#191970" points="120.6828,-114.783 131.2711,-114.4094 122.7609,-108.0985 120.6828,-114.783"/>
</g>
<!-- Node466 -->
<g id="node3" class="node">
<title>Node466</title>
<g id="a_node3"><a xlink:href="server_8cpp.html#a26bafe3d526ee8cbc84b3c0b0dc3a43b" target="_top" xlink:title="HelpExampleCli">
<polygon fill="#ffffff" stroke="#000000" points="126,-76.5 126,-95.5 213,-95.5 213,-76.5 126,-76.5"/>
<text text-anchor="middle" x="169.5" y="-83.5" font-family="Helvetica,sans-Serif" font-size="10.00" fill="#000000">HelpExampleCli</text>
</a>
</g>
</g>
<!-- Node464&#45;&gt;Node466 -->
<g id="edge2" class="edge">
<title>Node464&#45;&gt;Node466</title>
<path fill="none" stroke="#191970" d="M68.1924,-71.7945C82.534,-73.8055 99.5597,-76.1929 115.5208,-78.431"/>
<polygon fill="#191970" stroke="#191970" points="115.4277,-81.9521 125.8169,-79.8747 116.3998,-75.0199 115.4277,-81.9521"/>
</g>
<!-- Node467 -->
<g id="node4" class="node">
<title>Node467</title>
<g id="a_node4"><a xlink:href="server_8cpp.html#a9ef4f8fb114508ceb861a0e8c3e0d26e" target="_top" xlink:title="HelpExampleRpc">
<polygon fill="#ffffff" stroke="#000000" points="123,-38.5 123,-57.5 216,-57.5 216,-38.5 123,-38.5"/>
<text text-anchor="middle" x="169.5" y="-45.5" font-family="Helvetica,sans-Serif" font-size="10.00" fill="#000000">HelpExampleRpc</text>
</a>
</g>
</g>
<!-- Node464&#45;&gt;Node467 -->
<g id="edge3" class="edge">
<title>Node464&#45;&gt;Node467</title>
<path fill="none" stroke="#191970" d="M68.1924,-62.2055C81.6331,-60.3208 97.4311,-58.1056 112.501,-55.9925"/>
<polygon fill="#191970" stroke="#191970" points="113.3626,-59.406 122.7797,-54.5512 112.3905,-52.4738 113.3626,-59.406"/>
</g>
<!-- Node468 -->
<g id="node5" class="node">
<title>Node468</title>
<g id="a_node5"><a xlink:href="class_args_manager.html#af81c6e2a9dcd6b12557a2387fd67b2a6" target="_top" xlink:title="Return boolean argument or default value. ">
<polygon fill="#ffffff" stroke="#000000" points="104,-.5 104,-19.5 235,-19.5 235,-.5 104,-.5"/>
<text text-anchor="middle" x="169.5" y="-7.5" font-family="Helvetica,sans-Serif" font-size="10.00" fill="#000000">ArgsManager::GetBoolArg</text>
</a>
</g>
</g>
<!-- Node464&#45;&gt;Node468 -->
<g id="edge4" class="edge">
<title>Node464&#45;&gt;Node468</title>
<path fill="none" stroke="#191970" d="M49.3727,-57.4004C63.2492,-49.0433 84.4305,-37.0404 104,-29 109.5427,-26.7227 115.4538,-24.6033 121.371,-22.6682"/>
<polygon fill="#191970" stroke="#191970" points="122.7609,-25.9015 131.2711,-19.5906 120.6828,-19.217 122.7609,-25.9015"/>
</g>
</g>
</svg>
