<?xml version="1.0" encoding="UTF-8" standalone="no"?>
<!DOCTYPE svg PUBLIC "-//W3C//DTD SVG 1.1//EN"
 "http://www.w3.org/Graphics/SVG/1.1/DTD/svg11.dtd">
<!-- Generated by graphviz version 2.40.1 (20161225.0304)
 -->
<!-- Title: getaddresstxids Pages: 1 -->
<svg width="779pt" height="750pt"
 viewBox="0.00 0.00 779.00 750.00" xmlns="http://www.w3.org/2000/svg" xmlns:xlink="http://www.w3.org/1999/xlink">
<g id="graph0" class="graph" transform="scale(1 1) rotate(0) translate(4 746)">
<title>getaddresstxids</title>
<polygon fill="#ffffff" stroke="transparent" points="-4,4 -4,-746 775,-746 775,4 -4,4"/>
<!-- Node267 -->
<g id="node1" class="node">
<title>Node267</title>
<polygon fill="#bfbfbf" stroke="#000000" points="0,-380.5 0,-399.5 86,-399.5 86,-380.5 0,-380.5"/>
<text text-anchor="middle" x="43" y="-387.5" font-family="Helvetica,sans-Serif" font-size="10.00" fill="#000000">getaddresstxids</text>
</g>
<!-- Node268 -->
<g id="node2" class="node">
<title>Node268</title>
<g id="a_node2"><a xlink:href="class_uni_value.html#a5a7394aeb8d5584db7a90c2c041726b1" target="_top" xlink:title="UniValue::size">
<polygon fill="#ffffff" stroke="#000000" points="148.5,-608.5 148.5,-627.5 228.5,-627.5 228.5,-608.5 148.5,-608.5"/>
<text text-anchor="middle" x="188.5" y="-615.5" font-family="Helvetica,sans-Serif" font-size="10.00" fill="#000000">UniValue::size</text>
</a>
</g>
</g>
<!-- Node267&#45;&gt;Node268 -->
<g id="edge1" class="edge">
<title>Node267&#45;&gt;Node268</title>
<path fill="none" stroke="#191970" d="M43.6676,-399.5577C46.4913,-432.4804 60.344,-542.2654 122,-599 126.8127,-603.4285 132.5878,-606.8327 138.6981,-609.4479"/>
<polygon fill="#191970" stroke="#191970" points="137.8909,-612.876 148.4855,-612.9419 140.2444,-606.2835 137.8909,-612.876"/>
</g>
<!-- Node269 -->
<g id="node3" class="node">
<title>Node269</title>
<g id="a_node3"><a xlink:href="server_8cpp.html#a26bafe3d526ee8cbc84b3c0b0dc3a43b" target="_top" xlink:title="HelpExampleCli">
<polygon fill="#ffffff" stroke="#000000" points="145,-570.5 145,-589.5 232,-589.5 232,-570.5 145,-570.5"/>
<text text-anchor="middle" x="188.5" y="-577.5" font-family="Helvetica,sans-Serif" font-size="10.00" fill="#000000">HelpExampleCli</text>
</a>
</g>
</g>
<!-- Node267&#45;&gt;Node269 -->
<g id="edge2" class="edge">
<title>Node267&#45;&gt;Node269</title>
<path fill="none" stroke="#191970" d="M44.6065,-399.8332C49.9065,-429.0547 69.5885,-516.1184 122,-561 126.0015,-564.4266 130.5847,-567.2367 135.4327,-569.5411"/>
<polygon fill="#191970" stroke="#191970" points="134.4145,-572.9037 144.9987,-573.3781 137.0205,-566.4068 134.4145,-572.9037"/>
</g>
<!-- Node270 -->
<g id="node4" class="node">
<title>Node270</title>
<g id="a_node4"><a xlink:href="server_8cpp.html#a9ef4f8fb114508ceb861a0e8c3e0d26e" target="_top" xlink:title="HelpExampleRpc">
<polygon fill="#ffffff" stroke="#000000" points="142,-532.5 142,-551.5 235,-551.5 235,-532.5 142,-532.5"/>
<text text-anchor="middle" x="188.5" y="-539.5" font-family="Helvetica,sans-Serif" font-size="10.00" fill="#000000">HelpExampleRpc</text>
</a>
</g>
</g>
<!-- Node267&#45;&gt;Node270 -->
<g id="edge3" class="edge">
<title>Node267&#45;&gt;Node270</title>
<path fill="none" stroke="#191970" d="M45.9645,-399.7312C53.9655,-424.3239 78.3904,-489.3944 122,-523 125.2248,-525.485 128.7619,-527.6451 132.472,-529.5226"/>
<polygon fill="#191970" stroke="#191970" points="131.4037,-532.8739 141.9714,-533.6321 134.1831,-526.4493 131.4037,-532.8739"/>
</g>
<!-- Node271 -->
<g id="node5" class="node">
<title>Node271</title>
<g id="a_node5"><a xlink:href="misc_8cpp.html#a74d1497f1e0ccd2a1da8ed34c0280eea" target="_top" xlink:title="getAddressesFromParams">
<polygon fill="#ffffff" stroke="#000000" points="122,-494.5 122,-513.5 255,-513.5 255,-494.5 122,-494.5"/>
<text text-anchor="middle" x="188.5" y="-501.5" font-family="Helvetica,sans-Serif" font-size="10.00" fill="#000000">getAddressesFromParams</text>
</a>
</g>
</g>
<!-- Node267&#45;&gt;Node271 -->
<g id="edge4" class="edge">
<title>Node267&#45;&gt;Node271</title>
<path fill="none" stroke="#191970" d="M48.9748,-399.5624C60.7804,-417.7214 88.8459,-457.3971 122,-480 128.1356,-484.1829 135.0852,-487.7292 142.1215,-490.7061"/>
<polygon fill="#191970" stroke="#191970" points="141.1127,-494.0688 151.7017,-494.4189 143.6423,-487.5418 141.1127,-494.0688"/>
</g>
<!-- Node277 -->
<g id="node11" class="node">
<title>Node277</title>
<g id="a_node11"><a xlink:href="rpc_2protocol_8cpp.html#a40b75d3d265c4a2e1d5fe3e129743884" target="_top" xlink:title="JSONRPCError">
<polygon fill="#ffffff" stroke="#000000" points="324,-380.5 324,-399.5 410,-399.5 410,-380.5 324,-380.5"/>
<text text-anchor="middle" x="367" y="-387.5" font-family="Helvetica,sans-Serif" font-size="10.00" fill="#000000">JSONRPCError</text>
</a>
</g>
</g>
<!-- Node267&#45;&gt;Node277 -->
<g id="edge34" class="edge">
<title>Node267&#45;&gt;Node277</title>
<path fill="none" stroke="#191970" d="M86.0247,-390C144.7262,-390 249.8775,-390 313.5621,-390"/>
<polygon fill="#191970" stroke="#191970" points="313.7974,-393.5001 323.7974,-390 313.7973,-386.5001 313.7974,-393.5001"/>
</g>
<!-- Node309 -->
<g id="node32" class="node">
<title>Node309</title>
<g id="a_node32"><a xlink:href="univalue_8h.html#a33625d562f1ef5f44ceb171d5c8f2a85" target="_top" xlink:title="find_value">
<polygon fill="#ffffff" stroke="#000000" points="336.5,-456.5 336.5,-475.5 397.5,-475.5 397.5,-456.5 336.5,-456.5"/>
<text text-anchor="middle" x="367" y="-463.5" font-family="Helvetica,sans-Serif" font-size="10.00" fill="#000000">find_value</text>
</a>
</g>
</g>
<!-- Node267&#45;&gt;Node309 -->
<g id="edge37" class="edge">
<title>Node267&#45;&gt;Node309</title>
<path fill="none" stroke="#191970" d="M61.0182,-399.5493C76.7168,-407.4841 100.3035,-418.4917 122,-425 192.0408,-446.0102 276.7797,-457.175 326.0202,-462.3194"/>
<polygon fill="#191970" stroke="#191970" points="325.9645,-465.8316 336.2661,-463.3561 326.6693,-458.8672 325.9645,-465.8316"/>
</g>
<!-- Node312 -->
<g id="node35" class="node">
<title>Node312</title>
<g id="a_node35"><a xlink:href="class_uni_value.html#af1a6df88c2bee59a863dd6f8d12e9be5" target="_top" xlink:title="UniValue::isObject">
<polygon fill="#ffffff" stroke="#000000" points="318,-418.5 318,-437.5 416,-437.5 416,-418.5 318,-418.5"/>
<text text-anchor="middle" x="367" y="-425.5" font-family="Helvetica,sans-Serif" font-size="10.00" fill="#000000">UniValue::isObject</text>
</a>
</g>
</g>
<!-- Node267&#45;&gt;Node312 -->
<g id="edge35" class="edge">
<title>Node267&#45;&gt;Node312</title>
<path fill="none" stroke="#191970" d="M86.3672,-398.3107C97.9183,-400.3529 110.4085,-402.4076 122,-404 185.0487,-412.6613 257.6441,-419.3668 307.3479,-423.4612"/>
<polygon fill="#191970" stroke="#191970" points="307.3441,-426.9724 317.595,-424.2951 307.9119,-419.9954 307.3441,-426.9724"/>
</g>
<!-- Node313 -->
<g id="node36" class="node">
<title>Node313</title>
<g id="a_node36"><a xlink:href="class_uni_value.html#a49a6ac464f3c2d918e7379d3203c7337" target="_top" xlink:title="UniValue::get_obj">
<polygon fill="#ffffff" stroke="#000000" points="141.5,-304.5 141.5,-323.5 235.5,-323.5 235.5,-304.5 141.5,-304.5"/>
<text text-anchor="middle" x="188.5" y="-311.5" font-family="Helvetica,sans-Serif" font-size="10.00" fill="#000000">UniValue::get_obj</text>
</a>
</g>
</g>
<!-- Node267&#45;&gt;Node313 -->
<g id="edge38" class="edge">
<title>Node267&#45;&gt;Node313</title>
<path fill="none" stroke="#191970" d="M53.7241,-380.3716C68.232,-367.8108 95.3708,-345.918 122,-333 126.674,-330.7326 131.6676,-328.6889 136.7393,-326.8581"/>
<polygon fill="#191970" stroke="#191970" points="138.1446,-330.0791 146.525,-323.5968 135.9314,-323.4381 138.1446,-330.0791"/>
</g>
<!-- Node314 -->
<g id="node37" class="node">
<title>Node314</title>
<g id="a_node37"><a xlink:href="class_uni_value.html#ac5271a9bb4ece86f00052bb5603eaa78" target="_top" xlink:title="UniValue::isNum">
<polygon fill="#ffffff" stroke="#000000" points="143,-266.5 143,-285.5 234,-285.5 234,-266.5 143,-266.5"/>
<text text-anchor="middle" x="188.5" y="-273.5" font-family="Helvetica,sans-Serif" font-size="10.00" fill="#000000">UniValue::isNum</text>
</a>
</g>
</g>
<!-- Node267&#45;&gt;Node314 -->
<g id="edge39" class="edge">
<title>Node267&#45;&gt;Node314</title>
<path fill="none" stroke="#191970" d="M48.3501,-380.2797C59.4638,-361.0064 86.9591,-317.8425 122,-295 125.5645,-292.6763 129.4165,-290.6319 133.408,-288.834"/>
<polygon fill="#191970" stroke="#191970" points="134.8979,-292.0084 142.9052,-285.0705 132.3191,-285.5007 134.8979,-292.0084"/>
</g>
<!-- Node315 -->
<g id="node38" class="node">
<title>Node315</title>
<g id="a_node38"><a xlink:href="class_uni_value.html#af45edc6e67eaa6d1f271ce18e435a376" target="_top" xlink:title="UniValue::get_int">
<polygon fill="#ffffff" stroke="#000000" points="142.5,-228.5 142.5,-247.5 234.5,-247.5 234.5,-228.5 142.5,-228.5"/>
<text text-anchor="middle" x="188.5" y="-235.5" font-family="Helvetica,sans-Serif" font-size="10.00" fill="#000000">UniValue::get_int</text>
</a>
</g>
</g>
<!-- Node267&#45;&gt;Node315 -->
<g id="edge40" class="edge">
<title>Node267&#45;&gt;Node315</title>
<path fill="none" stroke="#191970" d="M45.9645,-380.2688C53.9655,-355.6761 78.3904,-290.6056 122,-257 125.3704,-254.4028 129.082,-252.1605 132.9757,-250.2247"/>
<polygon fill="#191970" stroke="#191970" points="134.4912,-253.3835 142.3167,-246.2412 131.7453,-246.9445 134.4912,-253.3835"/>
</g>
<!-- Node318 -->
<g id="node41" class="node">
<title>Node318</title>
<g id="a_node41"><a xlink:href="class_uni_value.html#ae8a27d40aa1b1322ea95ff4fb2dec2b1" target="_top" xlink:title="UniValue::get_bool">
<polygon fill="#ffffff" stroke="#000000" points="139,-190.5 139,-209.5 238,-209.5 238,-190.5 139,-190.5"/>
<text text-anchor="middle" x="188.5" y="-197.5" font-family="Helvetica,sans-Serif" font-size="10.00" fill="#000000">UniValue::get_bool</text>
</a>
</g>
</g>
<!-- Node267&#45;&gt;Node318 -->
<g id="edge43" class="edge">
<title>Node267&#45;&gt;Node318</title>
<path fill="none" stroke="#191970" d="M44.6065,-380.1668C49.9065,-350.9453 69.5885,-263.8816 122,-219 124.3855,-216.9572 126.9777,-215.1335 129.7096,-213.5055"/>
<polygon fill="#191970" stroke="#191970" points="131.4507,-216.548 138.8274,-208.9431 128.3182,-210.288 131.4507,-216.548"/>
</g>
<!-- Node324 -->
<g id="node47" class="node">
<title>Node324</title>
<g id="a_node47"><a xlink:href="validation_8cpp.html#a0e99fa19d4750df87e0a17fbed8b0ce8" target="_top" xlink:title="RVN START. ">
<polygon fill="#ffffff" stroke="#000000" points="136.5,-152.5 136.5,-171.5 240.5,-171.5 240.5,-152.5 136.5,-152.5"/>
<text text-anchor="middle" x="188.5" y="-159.5" font-family="Helvetica,sans-Serif" font-size="10.00" fill="#000000">AreAssetsDeployed</text>
</a>
</g>
</g>
<!-- Node267&#45;&gt;Node324 -->
<g id="edge49" class="edge">
<title>Node267&#45;&gt;Node324</title>
<path fill="none" stroke="#191970" d="M43.6676,-380.4423C46.4913,-347.5196 60.344,-237.7346 122,-181 123.7229,-179.4146 125.5693,-177.9604 127.5101,-176.6268"/>
<polygon fill="#191970" stroke="#191970" points="129.5578,-179.4896 136.5363,-171.5177 126.1096,-173.3978 129.5578,-179.4896"/>
</g>
<!-- Node325 -->
<g id="node48" class="node">
<title>Node325</title>
<g id="a_node48"><a xlink:href="validation_8cpp.html#a3c27137cbe4d0f8c3920bbe095e2845e" target="_top" xlink:title="GetAddressIndex">
<polygon fill="#ffffff" stroke="#000000" points="142.5,-342.5 142.5,-361.5 234.5,-361.5 234.5,-342.5 142.5,-342.5"/>
<text text-anchor="middle" x="188.5" y="-349.5" font-family="Helvetica,sans-Serif" font-size="10.00" fill="#000000">GetAddressIndex</text>
</a>
</g>
</g>
<!-- Node267&#45;&gt;Node325 -->
<g id="edge50" class="edge">
<title>Node267&#45;&gt;Node325</title>
<path fill="none" stroke="#191970" d="M79.7158,-380.411C98.6566,-375.4642 121.9572,-369.3789 142.1285,-364.1108"/>
<polygon fill="#191970" stroke="#191970" points="143.2572,-367.4335 152.0482,-361.5201 141.4883,-360.6606 143.2572,-367.4335"/>
</g>
<!-- Node272 -->
<g id="node6" class="node">
<title>Node272</title>
<g id="a_node6"><a xlink:href="class_c_raven_address.html#ada9c22fa221ef8dfb033caaf070bf5ca" target="_top" xlink:title="CRavenAddress::GetIndexKey">
<polygon fill="#ffffff" stroke="#000000" points="291,-532.5 291,-551.5 443,-551.5 443,-532.5 291,-532.5"/>
<text text-anchor="middle" x="367" y="-539.5" font-family="Helvetica,sans-Serif" font-size="10.00" fill="#000000">CRavenAddress::GetIndexKey</text>
</a>
</g>
</g>
<!-- Node271&#45;&gt;Node272 -->
<g id="edge5" class="edge">
<title>Node271&#45;&gt;Node272</title>
<path fill="none" stroke="#191970" d="M233.5431,-513.589C257.5225,-518.6939 287.1979,-525.0113 312.4721,-530.3918"/>
<polygon fill="#191970" stroke="#191970" points="311.7712,-533.821 322.2808,-532.4799 313.2288,-526.9744 311.7712,-533.821"/>
</g>
<!-- Node271&#45;&gt;Node277 -->
<g id="edge10" class="edge">
<title>Node271&#45;&gt;Node277</title>
<path fill="none" stroke="#191970" d="M196.0988,-494.2256C211.6999,-474.8552 249.3936,-431.5254 291,-409 298.1425,-405.1331 306.0884,-402.0364 314.0742,-399.561"/>
<polygon fill="#191970" stroke="#191970" points="315.0992,-402.9086 323.7836,-396.8396 313.21,-396.1683 315.0992,-402.9086"/>
</g>
<!-- Node271&#45;&gt;Node309 -->
<g id="edge31" class="edge">
<title>Node271&#45;&gt;Node309</title>
<path fill="none" stroke="#191970" d="M233.5431,-494.411C262.0245,-488.3477 298.5413,-480.5738 326.175,-474.691"/>
<polygon fill="#191970" stroke="#191970" points="327.2437,-478.042 336.2957,-472.5365 325.7861,-471.1955 327.2437,-478.042"/>
</g>
<!-- Node310 -->
<g id="node33" class="node">
<title>Node310</title>
<g id="a_node33"><a xlink:href="class_uni_value.html#a1d2e9479d4fb330a73e0fd41197aec35" target="_top" xlink:title="UniValue::isArray">
<polygon fill="#ffffff" stroke="#000000" points="320.5,-494.5 320.5,-513.5 413.5,-513.5 413.5,-494.5 320.5,-494.5"/>
<text text-anchor="middle" x="367" y="-501.5" font-family="Helvetica,sans-Serif" font-size="10.00" fill="#000000">UniValue::isArray</text>
</a>
</g>
</g>
<!-- Node271&#45;&gt;Node310 -->
<g id="edge32" class="edge">
<title>Node271&#45;&gt;Node310</title>
<path fill="none" stroke="#191970" d="M255.2206,-504C273.349,-504 292.8043,-504 310.3199,-504"/>
<polygon fill="#191970" stroke="#191970" points="310.384,-507.5001 320.384,-504 310.3839,-500.5001 310.384,-507.5001"/>
</g>
<!-- Node311 -->
<g id="node34" class="node">
<title>Node311</title>
<g id="a_node34"><a xlink:href="class_uni_value.html#a60de76689de98b6c97ca723e280becf8" target="_top" xlink:title="UniValue::getValues">
<polygon fill="#ffffff" stroke="#000000" points="314,-570.5 314,-589.5 420,-589.5 420,-570.5 314,-570.5"/>
<text text-anchor="middle" x="367" y="-577.5" font-family="Helvetica,sans-Serif" font-size="10.00" fill="#000000">UniValue::getValues</text>
</a>
</g>
</g>
<!-- Node271&#45;&gt;Node311 -->
<g id="edge33" class="edge">
<title>Node271&#45;&gt;Node311</title>
<path fill="none" stroke="#191970" d="M234.2226,-513.5436C241.4532,-516.0328 248.6355,-519.1384 255,-523 274.8897,-535.0679 270.912,-549.2652 291,-561 295.1836,-563.444 299.6747,-565.5757 304.3065,-567.4347"/>
<polygon fill="#191970" stroke="#191970" points="303.3638,-570.8144 313.9584,-570.8803 305.7173,-564.2219 303.3638,-570.8144"/>
</g>
<!-- Node273 -->
<g id="node7" class="node">
<title>Node273</title>
<g id="a_node7"><a xlink:href="chainparams_8cpp.html#ace5c5b706d71a324a417dd2db394fd4a" target="_top" xlink:title="Return the currently selected parameters. ">
<polygon fill="#ffffff" stroke="#000000" points="520,-532.5 520,-551.5 570,-551.5 570,-532.5 520,-532.5"/>
<text text-anchor="middle" x="545" y="-539.5" font-family="Helvetica,sans-Serif" font-size="10.00" fill="#000000">Params</text>
</a>
</g>
</g>
<!-- Node272&#45;&gt;Node273 -->
<g id="edge6" class="edge">
<title>Node272&#45;&gt;Node273</title>
<path fill="none" stroke="#191970" d="M443.0043,-542C466.2848,-542 490.7776,-542 509.9254,-542"/>
<polygon fill="#191970" stroke="#191970" points="509.9715,-545.5001 519.9715,-542 509.9714,-538.5001 509.9715,-545.5001"/>
</g>
<!-- Node274 -->
<g id="node8" class="node">
<title>Node274</title>
<g id="a_node8"><a xlink:href="glibc__compat_8cpp.html#a0f46826ab0466591e136db24394923cf" target="_top" xlink:title="memcpy">
<polygon fill="#ffffff" stroke="#000000" points="518,-684.5 518,-703.5 572,-703.5 572,-684.5 518,-684.5"/>
<text text-anchor="middle" x="545" y="-691.5" font-family="Helvetica,sans-Serif" font-size="10.00" fill="#000000">memcpy</text>
</a>
</g>
</g>
<!-- Node272&#45;&gt;Node274 -->
<g id="edge7" class="edge">
<title>Node272&#45;&gt;Node274</title>
<path fill="none" stroke="#191970" d="M423.6028,-551.5746C430.4409,-554.0318 437.0873,-557.1197 443,-561 487.6122,-590.2775 520.6491,-645.8556 535.8026,-675.0319"/>
<polygon fill="#191970" stroke="#191970" points="532.7795,-676.8105 540.4064,-684.1645 539.0302,-673.6594 532.7795,-676.8105"/>
</g>
<!-- Node275 -->
<g id="node9" class="node">
<title>Node275</title>
<g id="a_node9"><a xlink:href="glibc__compat_8cpp.html#a9778d49e9029dd75bc53ecbbf9f5e9a1" target="_top" xlink:title="memmove">
<polygon fill="#ffffff" stroke="#000000" points="678,-722.5 678,-741.5 740,-741.5 740,-722.5 678,-722.5"/>
<text text-anchor="middle" x="709" y="-729.5" font-family="Helvetica,sans-Serif" font-size="10.00" fill="#000000">memmove</text>
</a>
</g>
</g>
<!-- Node274&#45;&gt;Node275 -->
<g id="edge8" class="edge">
<title>Node274&#45;&gt;Node275</title>
<path fill="none" stroke="#191970" d="M572.0813,-700.2749C598.2374,-706.3355 638.1906,-715.5929 668.1989,-722.5461"/>
<polygon fill="#191970" stroke="#191970" points="667.4281,-725.9601 677.9601,-724.8078 669.0082,-719.1408 667.4281,-725.9601"/>
</g>
<!-- Node276 -->
<g id="node10" class="node">
<title>Node276</title>
<g id="a_node10"><a xlink:href="glibc__compat_8cpp.html#a424ac71631da5ada2976630ff67051d1" target="_top" xlink:title="__chk_fail">
<polygon fill="#ffffff" stroke="#000000" points="678.5,-684.5 678.5,-703.5 739.5,-703.5 739.5,-684.5 678.5,-684.5"/>
<text text-anchor="middle" x="709" y="-691.5" font-family="Helvetica,sans-Serif" font-size="10.00" fill="#000000">__chk_fail</text>
</a>
</g>
</g>
<!-- Node274&#45;&gt;Node276 -->
<g id="edge9" class="edge">
<title>Node274&#45;&gt;Node276</title>
<path fill="none" stroke="#191970" d="M572.0813,-694C598.205,-694 638.0918,-694 668.0875,-694"/>
<polygon fill="#191970" stroke="#191970" points="668.2461,-697.5001 678.2461,-694 668.2461,-690.5001 668.2461,-697.5001"/>
</g>
<!-- Node278 -->
<g id="node12" class="node">
<title>Node278</title>
<g id="a_node12"><a xlink:href="util_8h.html#a96c5fc7111f69f7dcaba992d95d13e03" target="_top" xlink:title="error">
<polygon fill="#ffffff" stroke="#000000" points="527,-342.5 527,-361.5 563,-361.5 563,-342.5 527,-342.5"/>
<text text-anchor="middle" x="545" y="-349.5" font-family="Helvetica,sans-Serif" font-size="10.00" fill="#000000">error</text>
</a>
</g>
</g>
<!-- Node277&#45;&gt;Node278 -->
<g id="edge11" class="edge">
<title>Node277&#45;&gt;Node278</title>
<path fill="none" stroke="#191970" d="M410.0888,-380.8013C443.2612,-373.7195 488.1515,-364.1362 516.8486,-358.0098"/>
<polygon fill="#191970" stroke="#191970" points="517.588,-361.4309 526.6369,-355.9202 516.1265,-354.5852 517.588,-361.4309"/>
</g>
<!-- Node308 -->
<g id="node31" class="node">
<title>Node308</title>
<g id="a_node31"><a xlink:href="class_uni_value.html#a944cd1b59b040cd24c9f46b55a68d49a" target="_top" xlink:title="UniValue::push_back">
<polygon fill="#ffffff" stroke="#000000" points="490,-399.5 490,-418.5 600,-418.5 600,-399.5 490,-399.5"/>
<text text-anchor="middle" x="545" y="-406.5" font-family="Helvetica,sans-Serif" font-size="10.00" fill="#000000">UniValue::push_back</text>
</a>
</g>
</g>
<!-- Node277&#45;&gt;Node308 -->
<g id="edge30" class="edge">
<title>Node277&#45;&gt;Node308</title>
<path fill="none" stroke="#191970" d="M410.0888,-394.5994C430.9719,-396.8285 456.4988,-399.5532 479.7062,-402.0304"/>
<polygon fill="#191970" stroke="#191970" points="479.5191,-405.5303 489.8341,-403.1115 480.2621,-398.5698 479.5191,-405.5303"/>
</g>
<!-- Node279 -->
<g id="node13" class="node">
<title>Node279</title>
<g id="a_node13"><a xlink:href="util_8h.html#afd4c3002b2797c0560adddb6af3ca1da" target="_top" xlink:title="Send a string to the log output. ">
<polygon fill="#ffffff" stroke="#000000" points="676.5,-418.5 676.5,-437.5 741.5,-437.5 741.5,-418.5 676.5,-418.5"/>
<text text-anchor="middle" x="709" y="-425.5" font-family="Helvetica,sans-Serif" font-size="10.00" fill="#000000">LogPrintStr</text>
</a>
</g>
</g>
<!-- Node278&#45;&gt;Node279 -->
<g id="edge12" class="edge">
<title>Node278&#45;&gt;Node279</title>
<path fill="none" stroke="#191970" d="M561.7624,-361.624C588.4105,-376.8847 638.3246,-405.2965 647,-409 653.2609,-411.6728 660.0233,-414.143 666.7009,-416.3572"/>
<polygon fill="#191970" stroke="#191970" points="665.7655,-419.7322 676.3554,-419.4118 667.8771,-413.0582 665.7655,-419.7322"/>
</g>
<!-- Node280 -->
<g id="node14" class="node">
<title>Node280</title>
<g id="a_node14"><a xlink:href="namespacetinyformat.html#a05144619d8b16e2b31b2594ca9c6bf1d" target="_top" xlink:title="Format list of arguments to the stream according to given format string. ">
<polygon fill="#ffffff" stroke="#ff0000" points="662,-380.5 662,-399.5 756,-399.5 756,-380.5 662,-380.5"/>
<text text-anchor="middle" x="709" y="-387.5" font-family="Helvetica,sans-Serif" font-size="10.00" fill="#000000">tinyformat::format</text>
</a>
</g>
</g>
<!-- Node278&#45;&gt;Node280 -->
<g id="edge13" class="edge">
<title>Node278&#45;&gt;Node280</title>
<path fill="none" stroke="#191970" d="M563.1775,-356.2119C585.9267,-361.483 625.8272,-370.7283 658.146,-378.2168"/>
<polygon fill="#191970" stroke="#191970" points="657.3732,-381.6304 667.9052,-380.478 658.9534,-374.811 657.3732,-381.6304"/>
</g>
<!-- Node289 -->
<g id="node15" class="node">
<title>Node289</title>
<g id="a_node15"><a xlink:href="util_8h.html#aaada8c5faa502eb0c33fc01294955db8" target="_top" xlink:title="PrintExceptionContinue">
<polygon fill="#ffffff" stroke="#000000" points="649.5,-342.5 649.5,-361.5 768.5,-361.5 768.5,-342.5 649.5,-342.5"/>
<text text-anchor="middle" x="709" y="-349.5" font-family="Helvetica,sans-Serif" font-size="10.00" fill="#000000">PrintExceptionContinue</text>
</a>
</g>
</g>
<!-- Node278&#45;&gt;Node289 -->
<g id="edge14" class="edge">
<title>Node278&#45;&gt;Node289</title>
<path fill="none" stroke="#191970" d="M563.1775,-352C581.5979,-352 611.2633,-352 639.0435,-352"/>
<polygon fill="#191970" stroke="#191970" points="639.1687,-355.5001 649.1687,-352 639.1686,-348.5001 639.1687,-355.5001"/>
</g>
<!-- Node290 -->
<g id="node16" class="node">
<title>Node290</title>
<g id="a_node16"><a xlink:href="util_8h.html#af0e69a29ba128b74030ad8a213f2037a" target="_top" xlink:title="FileCommit">
<polygon fill="#ffffff" stroke="#000000" points="675.5,-304.5 675.5,-323.5 742.5,-323.5 742.5,-304.5 675.5,-304.5"/>
<text text-anchor="middle" x="709" y="-311.5" font-family="Helvetica,sans-Serif" font-size="10.00" fill="#000000">FileCommit</text>
</a>
</g>
</g>
<!-- Node278&#45;&gt;Node290 -->
<g id="edge15" class="edge">
<title>Node278&#45;&gt;Node290</title>
<path fill="none" stroke="#191970" d="M563.1775,-347.7881C587.665,-342.1142 632.0251,-331.8357 665.4108,-324.0999"/>
<polygon fill="#191970" stroke="#191970" points="666.4336,-327.4558 675.3854,-321.7887 664.8534,-320.6364 666.4336,-327.4558"/>
</g>
<!-- Node291 -->
<g id="node17" class="node">
<title>Node291</title>
<g id="a_node17"><a xlink:href="util_8h.html#acb8d6b822bc1bfa609bf43bbac1a0d44" target="_top" xlink:title="TruncateFile">
<polygon fill="#ffffff" stroke="#000000" points="673.5,-266.5 673.5,-285.5 744.5,-285.5 744.5,-266.5 673.5,-266.5"/>
<text text-anchor="middle" x="709" y="-273.5" font-family="Helvetica,sans-Serif" font-size="10.00" fill="#000000">TruncateFile</text>
</a>
</g>
</g>
<!-- Node278&#45;&gt;Node291 -->
<g id="edge16" class="edge">
<title>Node278&#45;&gt;Node291</title>
<path fill="none" stroke="#191970" d="M563.1776,-347.0784C576.9102,-342.9054 595.9063,-336.1374 611,-327 629.313,-315.9137 628.3379,-305.488 647,-295 652.2185,-292.0673 657.9438,-289.5331 663.7404,-287.3586"/>
<polygon fill="#191970" stroke="#191970" points="665.1532,-290.5747 673.486,-284.0314 662.8915,-283.9501 665.1532,-290.5747"/>
</g>
<!-- Node292 -->
<g id="node18" class="node">
<title>Node292</title>
<g id="a_node18"><a xlink:href="util_8h.html#a756a5c49a4bb607d16d9842f8f3ede4f" target="_top" xlink:title="this function tries to raise the file descriptor limit to the requested number. ">
<polygon fill="#ffffff" stroke="#000000" points="647,-228.5 647,-247.5 771,-247.5 771,-228.5 647,-228.5"/>
<text text-anchor="middle" x="709" y="-235.5" font-family="Helvetica,sans-Serif" font-size="10.00" fill="#000000">RaiseFileDescriptorLimit</text>
</a>
</g>
</g>
<!-- Node278&#45;&gt;Node292 -->
<g id="edge17" class="edge">
<title>Node278&#45;&gt;Node292</title>
<path fill="none" stroke="#191970" d="M563.1066,-348.8551C577.5284,-345.5472 597.474,-339.0787 611,-327 637.0942,-303.6978 620.1655,-279.4457 647,-257 649.0401,-255.2936 651.2317,-253.7402 653.5294,-252.3264"/>
<polygon fill="#191970" stroke="#191970" points="655.5381,-255.2286 662.8222,-247.535 652.3301,-249.0069 655.5381,-255.2286"/>
</g>
<!-- Node293 -->
<g id="node19" class="node">
<title>Node293</title>
<g id="a_node19"><a xlink:href="util_8h.html#a91c763bffc49cf7ed8d45cc44870e55c" target="_top" xlink:title="this function tries to make a particular range of a file allocated (corresponding to disk space) it i...">
<polygon fill="#ffffff" stroke="#000000" points="661,-190.5 661,-209.5 757,-209.5 757,-190.5 661,-190.5"/>
<text text-anchor="middle" x="709" y="-197.5" font-family="Helvetica,sans-Serif" font-size="10.00" fill="#000000">AllocateFileRange</text>
</a>
</g>
</g>
<!-- Node278&#45;&gt;Node293 -->
<g id="edge18" class="edge">
<title>Node278&#45;&gt;Node293</title>
<path fill="none" stroke="#191970" d="M563.0277,-349.5088C577.7976,-346.5603 598.2687,-340.2555 611,-327 646.0483,-290.5087 610.7894,-254.3382 647,-219 648.6366,-217.4028 650.4038,-215.9395 652.2706,-214.5988"/>
<polygon fill="#191970" stroke="#191970" points="654.1482,-217.5551 660.9972,-209.4716 650.6022,-211.5198 654.1482,-217.5551"/>
</g>
<!-- Node294 -->
<g id="node20" class="node">
<title>Node294</title>
<g id="a_node20"><a xlink:href="util_8h.html#a579657da2b55b131ecd453bf1b0d2314" target="_top" xlink:title="RenameOver">
<polygon fill="#ffffff" stroke="#000000" points="672,-152.5 672,-171.5 746,-171.5 746,-152.5 672,-152.5"/>
<text text-anchor="middle" x="709" y="-159.5" font-family="Helvetica,sans-Serif" font-size="10.00" fill="#000000">RenameOver</text>
</a>
</g>
</g>
<!-- Node278&#45;&gt;Node294 -->
<g id="edge19" class="edge">
<title>Node278&#45;&gt;Node294</title>
<path fill="none" stroke="#191970" d="M563.0075,-349.8206C577.9704,-347.0557 598.7276,-340.8457 611,-327 655.3305,-276.9862 601.0745,-229.5532 647,-181 651.2126,-176.5464 656.4383,-173.1277 662.0554,-170.5053"/>
<polygon fill="#191970" stroke="#191970" points="663.6719,-173.6348 671.7685,-166.8014 661.1777,-167.0942 663.6719,-173.6348"/>
</g>
<!-- Node295 -->
<g id="node21" class="node">
<title>Node295</title>
<g id="a_node21"><a xlink:href="util_8h.html#a9042a919d837da9d97311a0c460c597c" target="_top" xlink:title="Ignores exceptions thrown by Boost&#39;s create_directories if the requested directory exists...">
<polygon fill="#ffffff" stroke="#000000" points="655.5,-114.5 655.5,-133.5 762.5,-133.5 762.5,-114.5 655.5,-114.5"/>
<text text-anchor="middle" x="709" y="-121.5" font-family="Helvetica,sans-Serif" font-size="10.00" fill="#000000">TryCreateDirectories</text>
</a>
</g>
</g>
<!-- Node278&#45;&gt;Node295 -->
<g id="edge20" class="edge">
<title>Node278&#45;&gt;Node295</title>
<path fill="none" stroke="#191970" d="M563.1789,-349.9688C578.249,-347.2967 599.0673,-341.1395 611,-327 664.7427,-263.3186 591.225,-204.9092 647,-143 648.1915,-141.6774 649.4724,-140.4457 650.8271,-139.2987"/>
<polygon fill="#191970" stroke="#191970" points="652.9379,-142.0972 659.2836,-133.6129 649.0321,-136.2881 652.9379,-142.0972"/>
</g>
<!-- Node296 -->
<g id="node22" class="node">
<title>Node296</title>
<g id="a_node22"><a xlink:href="util_8h.html#a15cb85964fe08c264605537f44570d3c" target="_top" xlink:title="GetDefaultDataDir">
<polygon fill="#ffffff" stroke="#000000" points="660,-76.5 660,-95.5 758,-95.5 758,-76.5 660,-76.5"/>
<text text-anchor="middle" x="709" y="-83.5" font-family="Helvetica,sans-Serif" font-size="10.00" fill="#000000">GetDefaultDataDir</text>
</a>
</g>
</g>
<!-- Node278&#45;&gt;Node296 -->
<g id="edge21" class="edge">
<title>Node278&#45;&gt;Node296</title>
<path fill="none" stroke="#191970" d="M563.2955,-350.0656C578.4385,-347.454 599.2982,-341.3312 611,-327 674.2187,-249.5758 581.3093,-180.3382 647,-105 648.3318,-103.4726 649.7828,-102.0661 651.3297,-100.771"/>
<polygon fill="#191970" stroke="#191970" points="653.3579,-103.6257 659.7551,-95.1802 649.4875,-97.793 653.3579,-103.6257"/>
</g>
<!-- Node297 -->
<g id="node23" class="node">
<title>Node297</title>
<g id="a_node23"><a xlink:href="util_8h.html#abb63dfb710832aefb746933af05198d4" target="_top" xlink:title="GetDataDir">
<polygon fill="#ffffff" stroke="#000000" points="676,-38.5 676,-57.5 742,-57.5 742,-38.5 676,-38.5"/>
<text text-anchor="middle" x="709" y="-45.5" font-family="Helvetica,sans-Serif" font-size="10.00" fill="#000000">GetDataDir</text>
</a>
</g>
</g>
<!-- Node278&#45;&gt;Node297 -->
<g id="edge22" class="edge">
<title>Node278&#45;&gt;Node297</title>
<path fill="none" stroke="#191970" d="M563.0786,-350.1841C578.2982,-347.6448 599.3887,-341.5616 611,-327 683.7305,-235.7894 571.3565,-155.8096 647,-67 651.9685,-61.1667 658.6776,-57.0922 665.8506,-54.2535"/>
<polygon fill="#191970" stroke="#191970" points="667.3248,-57.4579 675.7995,-51.0995 665.2094,-50.7852 667.3248,-57.4579"/>
</g>
<!-- Node298 -->
<g id="node24" class="node">
<title>Node298</title>
<g id="a_node24"><a xlink:href="util_8h.html#abfb50dfe077aced7591f2aba601f605d" target="_top" xlink:title="ClearDatadirCache">
<polygon fill="#ffffff" stroke="#000000" points="659,-.5 659,-19.5 759,-19.5 759,-.5 659,-.5"/>
<text text-anchor="middle" x="709" y="-7.5" font-family="Helvetica,sans-Serif" font-size="10.00" fill="#000000">ClearDatadirCache</text>
</a>
</g>
</g>
<!-- Node278&#45;&gt;Node298 -->
<g id="edge23" class="edge">
<title>Node278&#45;&gt;Node298</title>
<path fill="none" stroke="#191970" d="M563.1414,-350.2338C578.4013,-347.7263 599.5156,-341.6619 611,-327 693.2642,-221.9755 561.3808,-131.3078 647,-29 648.1425,-27.6348 649.3804,-26.3658 650.6975,-25.1863"/>
<polygon fill="#191970" stroke="#191970" points="652.8207,-27.9722 658.9956,-19.3628 648.7996,-22.2424 652.8207,-27.9722"/>
</g>
<!-- Node299 -->
<g id="node25" class="node">
<title>Node299</title>
<g id="a_node25"><a xlink:href="util_8h.html#aa634f312705d4811dfa2a5392bddf6cf" target="_top" xlink:title="GetConfigFile">
<polygon fill="#ffffff" stroke="#ff0000" points="670.5,-646.5 670.5,-665.5 747.5,-665.5 747.5,-646.5 670.5,-646.5"/>
<text text-anchor="middle" x="709" y="-653.5" font-family="Helvetica,sans-Serif" font-size="10.00" fill="#000000">GetConfigFile</text>
</a>
</g>
</g>
<!-- Node278&#45;&gt;Node299 -->
<g id="edge24" class="edge">
<title>Node278&#45;&gt;Node299</title>
<path fill="none" stroke="#191970" d="M563.2373,-357.4871C578.5588,-363.095 599.7094,-373.3742 611,-390 673.3249,-481.7756 574.7645,-552.8027 647,-637 650.8508,-641.4885 655.7319,-644.9349 661.0582,-647.5779"/>
<polygon fill="#191970" stroke="#191970" points="659.7554,-650.8264 670.3393,-651.3097 662.3669,-644.3317 659.7554,-650.8264"/>
</g>
<!-- Node301 -->
<g id="node26" class="node">
<title>Node301</title>
<g id="a_node26"><a xlink:href="util_8h.html#aa0172eabeecce5061826cb19990fbde2" target="_top" xlink:title="GetPidFile">
<polygon fill="#ffffff" stroke="#ff0000" points="678,-608.5 678,-627.5 740,-627.5 740,-608.5 678,-608.5"/>
<text text-anchor="middle" x="709" y="-615.5" font-family="Helvetica,sans-Serif" font-size="10.00" fill="#000000">GetPidFile</text>
</a>
</g>
</g>
<!-- Node278&#45;&gt;Node301 -->
<g id="edge25" class="edge">
<title>Node278&#45;&gt;Node301</title>
<path fill="none" stroke="#191970" d="M563.1314,-357.5601C578.385,-363.2147 599.4955,-373.5214 611,-390 664.9568,-467.2853 584.7067,-528.2618 647,-599 652.5541,-605.307 660.1408,-609.5513 668.1025,-612.3997"/>
<polygon fill="#191970" stroke="#191970" points="667.31,-615.8138 677.8885,-615.2265 669.2526,-609.0887 667.31,-615.8138"/>
</g>
<!-- Node303 -->
<g id="node27" class="node">
<title>Node303</title>
<g id="a_node27"><a xlink:href="util_8h.html#a1c0f9b041628dcb399a023bc9913f41d" target="_top" xlink:title="CreatePidFile">
<polygon fill="#ffffff" stroke="#ff0000" points="671,-570.5 671,-589.5 747,-589.5 747,-570.5 671,-570.5"/>
<text text-anchor="middle" x="709" y="-577.5" font-family="Helvetica,sans-Serif" font-size="10.00" fill="#000000">CreatePidFile</text>
</a>
</g>
</g>
<!-- Node278&#45;&gt;Node303 -->
<g id="edge26" class="edge">
<title>Node278&#45;&gt;Node303</title>
<path fill="none" stroke="#191970" d="M563.2817,-357.7801C578.4161,-363.5259 599.2709,-373.8436 611,-390 656.6274,-452.8501 594.6042,-503.6704 647,-561 651.0384,-565.4187 656.0739,-568.8215 661.5181,-571.4398"/>
<polygon fill="#191970" stroke="#191970" points="660.3749,-574.7509 670.9624,-575.1464 662.9324,-568.2348 660.3749,-574.7509"/>
</g>
<!-- Node305 -->
<g id="node28" class="node">
<title>Node305</title>
<g id="a_node28"><a xlink:href="util_8h.html#a1e755e72104d3ca393efc1cc3f41952a" target="_top" xlink:title="OpenDebugLog">
<polygon fill="#ffffff" stroke="#000000" points="667,-532.5 667,-551.5 751,-551.5 751,-532.5 667,-532.5"/>
<text text-anchor="middle" x="709" y="-539.5" font-family="Helvetica,sans-Serif" font-size="10.00" fill="#000000">OpenDebugLog</text>
</a>
</g>
</g>
<!-- Node278&#45;&gt;Node305 -->
<g id="edge27" class="edge">
<title>Node278&#45;&gt;Node305</title>
<path fill="none" stroke="#191970" d="M563.0524,-357.9517C578.0433,-363.8047 598.8165,-374.1835 611,-390 648.3702,-438.5138 604.4189,-478.989 647,-523 650.0383,-526.1403 653.5804,-528.7651 657.4038,-530.9586"/>
<polygon fill="#191970" stroke="#191970" points="656.1908,-534.2555 666.7306,-535.3334 659.1634,-527.918 656.1908,-534.2555"/>
</g>
<!-- Node306 -->
<g id="node29" class="node">
<title>Node306</title>
<g id="a_node29"><a xlink:href="util_8h.html#a37fca7e305fe0caa306b23fdb37f88e2" target="_top" xlink:title="ShrinkDebugFile">
<polygon fill="#ffffff" stroke="#ff0000" points="664.5,-494.5 664.5,-513.5 753.5,-513.5 753.5,-494.5 664.5,-494.5"/>
<text text-anchor="middle" x="709" y="-501.5" font-family="Helvetica,sans-Serif" font-size="10.00" fill="#000000">ShrinkDebugFile</text>
</a>
</g>
</g>
<!-- Node278&#45;&gt;Node306 -->
<g id="edge28" class="edge">
<title>Node278&#45;&gt;Node306</title>
<path fill="none" stroke="#191970" d="M563.2584,-358.5047C577.9658,-364.5879 598.2287,-374.9998 611,-390 640.2708,-424.3793 614.0542,-454.1247 647,-485 649.4644,-487.3095 652.2026,-489.3386 655.1166,-491.1214"/>
<polygon fill="#191970" stroke="#191970" points="653.7855,-494.3704 664.2882,-495.7645 656.9472,-488.1251 653.7855,-494.3704"/>
</g>
<!-- Node307 -->
<g id="node30" class="node">
<title>Node307</title>
<g id="a_node30"><a xlink:href="util_8h.html#aa803aa631ab8b4bd79fa9d7b2172bf9a" target="_top" xlink:title="runCommand">
<polygon fill="#ffffff" stroke="#000000" points="671.5,-456.5 671.5,-475.5 746.5,-475.5 746.5,-456.5 671.5,-456.5"/>
<text text-anchor="middle" x="709" y="-463.5" font-family="Helvetica,sans-Serif" font-size="10.00" fill="#000000">runCommand</text>
</a>
</g>
</g>
<!-- Node278&#45;&gt;Node307 -->
<g id="edge29" class="edge">
<title>Node278&#45;&gt;Node307</title>
<path fill="none" stroke="#191970" d="M563.0804,-359.4805C577.2977,-366.0089 596.9784,-376.5406 611,-390 632.6159,-410.7492 623.191,-428.8091 647,-447 651.417,-450.3747 656.4365,-453.1544 661.6618,-455.4432"/>
<polygon fill="#191970" stroke="#191970" points="660.6125,-458.7883 671.204,-459.055 663.0906,-452.2416 660.6125,-458.7883"/>
</g>
<!-- Node312&#45;&gt;Node308 -->
<g id="edge36" class="edge">
<title>Node312&#45;&gt;Node308</title>
<path fill="none" stroke="#191970" d="M416.1105,-422.7579C435.7427,-420.6623 458.6399,-418.2182 479.6431,-415.9763"/>
<polygon fill="#191970" stroke="#191970" points="480.207,-419.4361 489.779,-414.8944 479.464,-412.4756 480.207,-419.4361"/>
</g>
<!-- Node316 -->
<g id="node39" class="node">
<title>Node316</title>
<g id="a_node39"><a xlink:href="utilstrencodings_8cpp.html#a880a215d9e931432b095084c756a49bb" target="_top" xlink:title="Convert string to signed 32&#45;bit integer with strict parse error feedback. ">
<polygon fill="#ffffff" stroke="#000000" points="335,-216.5 335,-235.5 399,-235.5 399,-216.5 335,-216.5"/>
<text text-anchor="middle" x="367" y="-223.5" font-family="Helvetica,sans-Serif" font-size="10.00" fill="#000000">ParseInt32</text>
</a>
</g>
</g>
<!-- Node315&#45;&gt;Node316 -->
<g id="edge41" class="edge">
<title>Node315&#45;&gt;Node316</title>
<path fill="none" stroke="#191970" d="M234.9328,-234.8785C262.6555,-233.0148 297.6014,-230.6655 324.5812,-228.8517"/>
<polygon fill="#191970" stroke="#191970" points="325.126,-232.323 334.8687,-228.1601 324.6564,-225.3388 325.126,-232.323"/>
</g>
<!-- Node317 -->
<g id="node40" class="node">
<title>Node317</title>
<g id="a_node40"><a xlink:href="class_uni_value.html#a4c9a5fa9114affbf31f6e346c032be12" target="_top" xlink:title="UniValue::getValStr">
<polygon fill="#ffffff" stroke="#000000" points="315.5,-254.5 315.5,-273.5 418.5,-273.5 418.5,-254.5 315.5,-254.5"/>
<text text-anchor="middle" x="367" y="-261.5" font-family="Helvetica,sans-Serif" font-size="10.00" fill="#000000">UniValue::getValStr</text>
</a>
</g>
</g>
<!-- Node315&#45;&gt;Node317 -->
<g id="edge42" class="edge">
<title>Node315&#45;&gt;Node317</title>
<path fill="none" stroke="#191970" d="M234.9328,-244.7633C256.4386,-247.8958 282.2913,-251.6615 305.3998,-255.0274"/>
<polygon fill="#191970" stroke="#191970" points="305.0555,-258.5141 315.4556,-256.4921 306.0645,-251.5872 305.0555,-258.5141"/>
</g>
<!-- Node319 -->
<g id="node42" class="node">
<title>Node319</title>
<g id="a_node42"><a xlink:href="class_uni_value.html#acb5c848d20cb741dbe65e28bc513baa8" target="_top" xlink:title="UniValue::getBool">
<polygon fill="#ffffff" stroke="#000000" points="319.5,-178.5 319.5,-197.5 414.5,-197.5 414.5,-178.5 319.5,-178.5"/>
<text text-anchor="middle" x="367" y="-185.5" font-family="Helvetica,sans-Serif" font-size="10.00" fill="#000000">UniValue::getBool</text>
</a>
</g>
</g>
<!-- Node318&#45;&gt;Node319 -->
<g id="edge44" class="edge">
<title>Node318&#45;&gt;Node319</title>
<path fill="none" stroke="#191970" d="M238.2222,-196.6573C260.2286,-195.1779 286.253,-193.4284 309.1267,-191.8906"/>
<polygon fill="#191970" stroke="#191970" points="309.6461,-195.3637 319.3888,-191.2008 309.1765,-188.3795 309.6461,-195.3637"/>
</g>
<!-- Node320 -->
<g id="node43" class="node">
<title>Node320</title>
<g id="a_node43"><a xlink:href="class_uni_value.html#a1491167609f899d0c7773749b5047969" target="_top" xlink:title="UniValue::isTrue">
<polygon fill="#ffffff" stroke="#000000" points="500.5,-121.5 500.5,-140.5 589.5,-140.5 589.5,-121.5 500.5,-121.5"/>
<text text-anchor="middle" x="545" y="-128.5" font-family="Helvetica,sans-Serif" font-size="10.00" fill="#000000">UniValue::isTrue</text>
</a>
</g>
</g>
<!-- Node319&#45;&gt;Node320 -->
<g id="edge45" class="edge">
<title>Node319&#45;&gt;Node320</title>
<path fill="none" stroke="#191970" d="M394.0419,-178.4289C416.6542,-170.5211 449.8057,-159.1493 479,-150 486.0401,-147.7937 493.5327,-145.5439 500.8477,-143.4006"/>
<polygon fill="#191970" stroke="#191970" points="502.0235,-146.704 510.6536,-140.558 500.0745,-139.9808 502.0235,-146.704"/>
</g>
<!-- Node321 -->
<g id="node44" class="node">
<title>Node321</title>
<g id="a_node44"><a xlink:href="class_uni_value.html#ad89a12ad112b2d9a55ec1b27a6b77046" target="_top" xlink:title="UniValue::getObjMap">
<polygon fill="#ffffff" stroke="#000000" points="490,-235.5 490,-254.5 600,-254.5 600,-235.5 490,-235.5"/>
<text text-anchor="middle" x="545" y="-242.5" font-family="Helvetica,sans-Serif" font-size="10.00" fill="#000000">UniValue::getObjMap</text>
</a>
</g>
</g>
<!-- Node319&#45;&gt;Node321 -->
<g id="edge46" class="edge">
<title>Node319&#45;&gt;Node321</title>
<path fill="none" stroke="#191970" d="M412.9648,-197.5985C423.0046,-200.2165 433.4727,-203.3561 443,-207 459.8979,-213.4629 462.2188,-219.2397 479,-226 484.8065,-228.3391 491.0072,-230.518 497.1962,-232.5038"/>
<polygon fill="#191970" stroke="#191970" points="496.2672,-235.8797 506.8538,-235.461 498.3167,-229.1865 496.2672,-235.8797"/>
</g>
<!-- Node322 -->
<g id="node45" class="node">
<title>Node322</title>
<g id="a_node45"><a xlink:href="class_uni_value.html#a0cb48f1dc383f4c12f71ada714ea3f68" target="_top" xlink:title="UniValue::checkObject">
<polygon fill="#ffffff" stroke="#000000" points="486.5,-197.5 486.5,-216.5 603.5,-216.5 603.5,-197.5 486.5,-197.5"/>
<text text-anchor="middle" x="545" y="-204.5" font-family="Helvetica,sans-Serif" font-size="10.00" fill="#000000">UniValue::checkObject</text>
</a>
</g>
</g>
<!-- Node319&#45;&gt;Node322 -->
<g id="edge47" class="edge">
<title>Node319&#45;&gt;Node322</title>
<path fill="none" stroke="#191970" d="M414.7007,-193.0917C433.6394,-195.1132 455.7839,-197.4769 476.3877,-199.6762"/>
<polygon fill="#191970" stroke="#191970" points="476.0428,-203.1592 486.3578,-200.7404 476.7858,-196.1987 476.0428,-203.1592"/>
</g>
<!-- Node323 -->
<g id="node46" class="node">
<title>Node323</title>
<g id="a_node46"><a xlink:href="class_uni_value.html#a998b72bd7f758e01416e1b53eaa6d94c" target="_top" xlink:title="UniValue::operator[]">
<polygon fill="#ffffff" stroke="#000000" points="493,-159.5 493,-178.5 597,-178.5 597,-159.5 493,-159.5"/>
<text text-anchor="middle" x="545" y="-166.5" font-family="Helvetica,sans-Serif" font-size="10.00" fill="#000000">UniValue::operator[]</text>
</a>
</g>
</g>
<!-- Node319&#45;&gt;Node323 -->
<g id="edge48" class="edge">
<title>Node319&#45;&gt;Node323</title>
<path fill="none" stroke="#191970" d="M414.7007,-182.9083C435.5976,-180.6778 460.3976,-178.0306 482.7243,-175.6474"/>
<polygon fill="#191970" stroke="#191970" points="483.2136,-179.1152 492.7856,-174.5734 482.4706,-172.1547 483.2136,-179.1152"/>
</g>
<!-- Node325&#45;&gt;Node278 -->
<g id="edge51" class="edge">
<title>Node325&#45;&gt;Node278</title>
<path fill="none" stroke="#191970" d="M234.7407,-352C309.7418,-352 455.6813,-352 516.9025,-352"/>
<polygon fill="#191970" stroke="#191970" points="516.98,-355.5001 526.98,-352 516.98,-348.5001 516.98,-355.5001"/>
</g>
<!-- Node326 -->
<g id="node49" class="node">
<title>Node326</title>
<g id="a_node49"><a xlink:href="class_c_block_tree_d_b.html#a2136d3b3c23b790859918eb9077bc8f9" target="_top" xlink:title="CBlockTreeDB::ReadAddress\lIndex">
<polygon fill="#ffffff" stroke="#000000" points="293,-293 293,-323 441,-323 441,-293 293,-293"/>
<text text-anchor="start" x="301" y="-311" font-family="Helvetica,sans-Serif" font-size="10.00" fill="#000000">CBlockTreeDB::ReadAddress</text>
<text text-anchor="middle" x="367" y="-300" font-family="Helvetica,sans-Serif" font-size="10.00" fill="#000000">Index</text>
</a>
</g>
</g>
<!-- Node325&#45;&gt;Node326 -->
<g id="edge52" class="edge">
<title>Node325&#45;&gt;Node326</title>
<path fill="none" stroke="#191970" d="M227.2318,-342.4527C247.3288,-337.4988 272.5215,-331.2888 295.9632,-325.5105"/>
<polygon fill="#191970" stroke="#191970" points="297.0109,-328.8571 305.8826,-323.0654 295.3355,-322.0605 297.0109,-328.8571"/>
</g>
<!-- Node327 -->
<g id="node50" class="node">
<title>Node327</title>
<g id="a_node50"><a xlink:href="class_c_d_b_wrapper.html#a086e9b6d6756642cb5d60778ea948c8f" target="_top" xlink:title="CDBWrapper::NewIterator">
<polygon fill="#ffffff" stroke="#000000" points="479,-298.5 479,-317.5 611,-317.5 611,-298.5 479,-298.5"/>
<text text-anchor="middle" x="545" y="-305.5" font-family="Helvetica,sans-Serif" font-size="10.00" fill="#000000">CDBWrapper::NewIterator</text>
</a>
</g>
</g>
<!-- Node326&#45;&gt;Node327 -->
<g id="edge53" class="edge">
<title>Node326&#45;&gt;Node327</title>
<path fill="none" stroke="#191970" d="M441.1991,-308C450.2786,-308 459.5695,-308 468.6795,-308"/>
<polygon fill="#191970" stroke="#191970" points="468.8671,-311.5001 478.8671,-308 468.8671,-304.5001 468.8671,-311.5001"/>
</g>
</g>
</svg>
