<?xml version="1.0" encoding="UTF-8" standalone="no"?>
<!DOCTYPE svg PUBLIC "-//W3C//DTD SVG 1.1//EN"
 "http://www.w3.org/Graphics/SVG/1.1/DTD/svg11.dtd">
<!-- Generated by graphviz version 2.40.1 (20161225.0304)
 -->
<!-- Title: GUIUtil::parseRavenURI Pages: 1 -->
<svg width="296pt" height="66pt"
 viewBox="0.00 0.00 296.00 66.00" xmlns="http://www.w3.org/2000/svg" xmlns:xlink="http://www.w3.org/1999/xlink">
<g id="graph0" class="graph" transform="scale(1 1) rotate(0) translate(4 62)">
<title>GUIUtil::parseRavenURI</title>
<polygon fill="#ffffff" stroke="transparent" points="-4,4 -4,-62 292,-62 292,4 -4,4"/>
<!-- Node427 -->
<g id="node1" class="node">
<title>Node427</title>
<polygon fill="#bfbfbf" stroke="#000000" points="0,-19.5 0,-38.5 126,-38.5 126,-19.5 0,-19.5"/>
<text text-anchor="middle" x="63" y="-26.5" font-family="Helvetica,sans-Serif" font-size="10.00" fill="#000000">GUIUtil::parseRavenURI</text>
</g>
<!-- Node428 -->
<g id="node2" class="node">
<title>Node428</title>
<g id="a_node2"><a xlink:href="namespace_g_u_i_util.html#a62c5849ffd735b22e57c8a492d75c77a" target="_top" xlink:title="GUIUtil::parseRavenURI">
<polygon fill="#ffffff" stroke="#000000" points="162,-38.5 162,-57.5 288,-57.5 288,-38.5 162,-38.5"/>
<text text-anchor="middle" x="225" y="-45.5" font-family="Helvetica,sans-Serif" font-size="10.00" fill="#000000">GUIUtil::parseRavenURI</text>
</a>
</g>
</g>
<!-- Node427&#45;&gt;Node428 -->
<g id="edge1" class="edge">
<title>Node427&#45;&gt;Node428</title>
<path fill="none" stroke="#191970" d="M136.0937,-37.5727C144.6759,-38.5793 153.3775,-39.5998 161.8084,-40.5886"/>
<polygon fill="#191970" stroke="#191970" points="136.437,-34.0891 126.0973,-36.4003 135.6215,-41.0414 136.437,-34.0891"/>
</g>
<!-- Node429 -->
<g id="node3" class="node">
<title>Node429</title>
<g id="a_node3"><a xlink:href="class_open_u_r_i_dialog.html#a3c0c5b376623e9570cc17e23778c239c" target="_top" xlink:title="OpenURIDialog::accept">
<polygon fill="#ffffff" stroke="#000000" points="164.5,-.5 164.5,-19.5 285.5,-19.5 285.5,-.5 164.5,-.5"/>
<text text-anchor="middle" x="225" y="-7.5" font-family="Helvetica,sans-Serif" font-size="10.00" fill="#000000">OpenURIDialog::accept</text>
</a>
</g>
</g>
<!-- Node427&#45;&gt;Node429 -->
<g id="edge2" class="edge">
<title>Node427&#45;&gt;Node429</title>
<path fill="none" stroke="#191970" d="M136.2549,-20.4084C145.6895,-19.3018 155.2656,-18.1787 164.4648,-17.0998"/>
<polygon fill="#191970" stroke="#191970" points="135.6215,-16.9586 126.0973,-21.5997 136.437,-23.9109 135.6215,-16.9586"/>
</g>
</g>
</svg>
