<?xml version="1.0" encoding="UTF-8" standalone="no"?>
<!DOCTYPE svg PUBLIC "-//W3C//DTD SVG 1.1//EN"
 "http://www.w3.org/Graphics/SVG/1.1/DTD/svg11.dtd">
<!-- Generated by graphviz version 2.40.1 (20161225.0304)
 -->
<!-- Title: GUIUtil::formatRavenURI Pages: 1 -->
<svg width="437pt" height="142pt"
 viewBox="0.00 0.00 437.00 142.00" xmlns="http://www.w3.org/2000/svg" xmlns:xlink="http://www.w3.org/1999/xlink">
<g id="graph0" class="graph" transform="scale(1 1) rotate(0) translate(4 138)">
<title>GUIUtil::formatRavenURI</title>
<polygon fill="#ffffff" stroke="transparent" points="-4,4 -4,-138 433,-138 433,4 -4,4"/>
<!-- Node198 -->
<g id="node1" class="node">
<title>Node198</title>
<polygon fill="#bfbfbf" stroke="#000000" points="0,-57.5 0,-76.5 130,-76.5 130,-57.5 0,-57.5"/>
<text text-anchor="middle" x="65" y="-64.5" font-family="Helvetica,sans-Serif" font-size="10.00" fill="#000000">GUIUtil::formatRavenURI</text>
</g>
<!-- Node199 -->
<g id="node2" class="node">
<title>Node199</title>
<g id="a_node2"><a xlink:href="class_raven_units.html#ad41cc41215cd361cdc458aec1cd05786" target="_top" xlink:title="Format as string. ">
<polygon fill="#ffffff" stroke="#000000" points="166,-57.5 166,-76.5 268,-76.5 268,-57.5 166,-57.5"/>
<text text-anchor="middle" x="217" y="-64.5" font-family="Helvetica,sans-Serif" font-size="10.00" fill="#000000">RavenUnits::format</text>
</a>
</g>
</g>
<!-- Node198&#45;&gt;Node199 -->
<g id="edge1" class="edge">
<title>Node198&#45;&gt;Node199</title>
<path fill="none" stroke="#191970" d="M130.3438,-67C138.8101,-67 147.4563,-67 155.851,-67"/>
<polygon fill="#191970" stroke="#191970" points="155.9369,-70.5001 165.9369,-67 155.9369,-63.5001 155.9369,-70.5001"/>
</g>
<!-- Node200 -->
<g id="node3" class="node">
<title>Node200</title>
<g id="a_node3"><a xlink:href="class_raven_units.html#a559a7cae18b466371401f02d6407c9c5" target="_top" xlink:title="Is unit ID valid? ">
<polygon fill="#ffffff" stroke="#000000" points="319,-114.5 319,-133.5 414,-133.5 414,-114.5 319,-114.5"/>
<text text-anchor="middle" x="366.5" y="-121.5" font-family="Helvetica,sans-Serif" font-size="10.00" fill="#000000">RavenUnits::valid</text>
</a>
</g>
</g>
<!-- Node199&#45;&gt;Node200 -->
<g id="edge2" class="edge">
<title>Node199&#45;&gt;Node200</title>
<path fill="none" stroke="#191970" d="M237.1175,-76.5862C254.5776,-84.7122 280.6506,-96.385 304,-105 310.0049,-107.2156 316.3998,-109.3777 322.7208,-111.4023"/>
<polygon fill="#191970" stroke="#191970" points="321.9379,-114.8242 332.5264,-114.4584 324.0208,-108.1413 321.9379,-114.8242"/>
</g>
<!-- Node201 -->
<g id="node4" class="node">
<title>Node201</title>
<g id="a_node4"><a xlink:href="class_raven_units.html#aea6fad621ac4f75381406d5ca415f78e" target="_top" xlink:title="Number of Satoshis (1e&#45;8) per unit for assets. ">
<polygon fill="#ffffff" stroke="#000000" points="304,-76.5 304,-95.5 429,-95.5 429,-76.5 304,-76.5"/>
<text text-anchor="middle" x="366.5" y="-83.5" font-family="Helvetica,sans-Serif" font-size="10.00" fill="#000000">RavenUnits::factorAsset</text>
</a>
</g>
</g>
<!-- Node199&#45;&gt;Node201 -->
<g id="edge3" class="edge">
<title>Node199&#45;&gt;Node201</title>
<path fill="none" stroke="#191970" d="M268.0313,-73.4856C276.2997,-74.5364 285.0002,-75.6422 293.6662,-76.7435"/>
<polygon fill="#191970" stroke="#191970" points="293.4342,-80.2421 303.7957,-78.0309 294.3168,-73.298 293.4342,-80.2421"/>
</g>
<!-- Node202 -->
<g id="node5" class="node">
<title>Node202</title>
<g id="a_node5"><a xlink:href="class_raven_units.html#a56c9ff217422454061562a0612bf61ec" target="_top" xlink:title="Number of Satoshis (1e&#45;8) per unit. ">
<polygon fill="#ffffff" stroke="#000000" points="317,-38.5 317,-57.5 416,-57.5 416,-38.5 317,-38.5"/>
<text text-anchor="middle" x="366.5" y="-45.5" font-family="Helvetica,sans-Serif" font-size="10.00" fill="#000000">RavenUnits::factor</text>
</a>
</g>
</g>
<!-- Node199&#45;&gt;Node202 -->
<g id="edge4" class="edge">
<title>Node199&#45;&gt;Node202</title>
<path fill="none" stroke="#191970" d="M268.0313,-60.5144C280.5126,-58.9282 293.9782,-57.2168 306.8241,-55.5842"/>
<polygon fill="#191970" stroke="#191970" points="307.4839,-59.0286 316.9628,-54.2957 306.6013,-52.0845 307.4839,-59.0286"/>
</g>
<!-- Node203 -->
<g id="node6" class="node">
<title>Node203</title>
<g id="a_node6"><a xlink:href="class_raven_units.html#ab3396a763c2ca8042f331f32904b0580" target="_top" xlink:title="Number of decimals left. ">
<polygon fill="#ffffff" stroke="#000000" points="310,-.5 310,-19.5 423,-19.5 423,-.5 310,-.5"/>
<text text-anchor="middle" x="366.5" y="-7.5" font-family="Helvetica,sans-Serif" font-size="10.00" fill="#000000">RavenUnits::decimals</text>
</a>
</g>
</g>
<!-- Node199&#45;&gt;Node203 -->
<g id="edge5" class="edge">
<title>Node199&#45;&gt;Node203</title>
<path fill="none" stroke="#191970" d="M237.1175,-57.4138C254.5776,-49.2878 280.6506,-37.615 304,-29 310.0049,-26.7844 316.3998,-24.6223 322.7208,-22.5977"/>
<polygon fill="#191970" stroke="#191970" points="324.0208,-25.8587 332.5264,-19.5416 321.9379,-19.1758 324.0208,-25.8587"/>
</g>
</g>
</svg>
