<?xml version="1.0" encoding="UTF-8" standalone="no"?>
<!DOCTYPE svg PUBLIC "-//W3C//DTD SVG 1.1//EN"
 "http://www.w3.org/Graphics/SVG/1.1/DTD/svg11.dtd">
<!-- Generated by graphviz version 2.40.1 (20161225.0304)
 -->
<!-- Title: SetSocketNoDelay Pages: 1 -->
<svg width="1326pt" height="110pt"
 viewBox="0.00 0.00 1326.00 109.50" xmlns="http://www.w3.org/2000/svg" xmlns:xlink="http://www.w3.org/1999/xlink">
<g id="graph0" class="graph" transform="scale(1 1) rotate(0) translate(4 105.5)">
<title>SetSocketNoDelay</title>
<polygon fill="#ffffff" stroke="transparent" points="-4,4 -4,-105.5 1322,-105.5 1322,4 -4,4"/>
<!-- Node308 -->
<g id="node1" class="node">
<title>Node308</title>
<polygon fill="#bfbfbf" stroke="#000000" points="0,-44 0,-63 101,-63 101,-44 0,-44"/>
<text text-anchor="middle" x="50.5" y="-51" font-family="Helvetica,sans-Serif" font-size="10.00" fill="#000000">SetSocketNoDelay</text>
</g>
<!-- Node309 -->
<g id="node2" class="node">
<title>Node309</title>
<g id="a_node2"><a xlink:href="netbase_8h.html#ac4d702700b01312baccffa6f36703800" target="_top" xlink:title="ConnectSocketDirectly">
<polygon fill="#ffffff" stroke="#000000" points="137,-44 137,-63 255,-63 255,-44 137,-44"/>
<text text-anchor="middle" x="196" y="-51" font-family="Helvetica,sans-Serif" font-size="10.00" fill="#000000">ConnectSocketDirectly</text>
</a>
</g>
</g>
<!-- Node308&#45;&gt;Node309 -->
<g id="edge1" class="edge">
<title>Node308&#45;&gt;Node309</title>
<path fill="none" stroke="#191970" d="M111.5072,-53.5C119.9154,-53.5 128.5386,-53.5 136.9114,-53.5"/>
<polygon fill="#191970" stroke="#191970" points="111.3889,-50.0001 101.3888,-53.5 111.3888,-57.0001 111.3889,-50.0001"/>
</g>
<!-- Node310 -->
<g id="node3" class="node">
<title>Node310</title>
<g id="a_node3"><a xlink:href="class_c_connman.html#ac810542ffa683d5dde5e5524b5ce2e4e" target="_top" xlink:title="CConnman::ConnectNode">
<polygon fill="#ffffff" stroke="#000000" points="441,-44 441,-63 573,-63 573,-44 441,-44"/>
<text text-anchor="middle" x="507" y="-51" font-family="Helvetica,sans-Serif" font-size="10.00" fill="#000000">CConnman::ConnectNode</text>
</a>
</g>
</g>
<!-- Node309&#45;&gt;Node310 -->
<g id="edge2" class="edge">
<title>Node309&#45;&gt;Node310</title>
<path fill="none" stroke="#191970" d="M265.4524,-53.5C317.8992,-53.5 389.4067,-53.5 440.9929,-53.5"/>
<polygon fill="#191970" stroke="#191970" points="265.2288,-50.0001 255.2288,-53.5 265.2287,-57.0001 265.2288,-50.0001"/>
</g>
<!-- Node316 -->
<g id="node9" class="node">
<title>Node316</title>
<g id="a_node9"><a xlink:href="netbase_8h.html#ab0050e9d599c152605bab7ef97566d9e" target="_top" xlink:title="ConnectThroughProxy">
<polygon fill="#ffffff" stroke="#000000" points="291,-25 291,-44 405,-44 405,-25 291,-25"/>
<text text-anchor="middle" x="348" y="-32" font-family="Helvetica,sans-Serif" font-size="10.00" fill="#000000">ConnectThroughProxy</text>
</a>
</g>
</g>
<!-- Node309&#45;&gt;Node316 -->
<g id="edge10" class="edge">
<title>Node309&#45;&gt;Node316</title>
<path fill="none" stroke="#191970" d="M265.1548,-44.8556C273.7007,-43.7874 282.3629,-42.7046 290.7045,-41.6619"/>
<polygon fill="#191970" stroke="#191970" points="264.691,-41.3863 255.2024,-46.0997 265.5593,-48.3322 264.691,-41.3863"/>
</g>
<!-- Node311 -->
<g id="node4" class="node">
<title>Node311</title>
<g id="a_node4"><a xlink:href="class_c_connman.html#a3bd6aed18096f954c24c80b32c876da5" target="_top" xlink:title="CConnman::OpenNetworkConnection">
<polygon fill="#ffffff" stroke="#000000" points="609,-44 609,-63 791,-63 791,-44 609,-44"/>
<text text-anchor="middle" x="700" y="-51" font-family="Helvetica,sans-Serif" font-size="10.00" fill="#000000">CConnman::OpenNetworkConnection</text>
</a>
</g>
</g>
<!-- Node310&#45;&gt;Node311 -->
<g id="edge3" class="edge">
<title>Node310&#45;&gt;Node311</title>
<path fill="none" stroke="#191970" d="M583.2269,-53.5C591.5897,-53.5 600.1652,-53.5 608.6866,-53.5"/>
<polygon fill="#191970" stroke="#191970" points="583.1497,-50.0001 573.1496,-53.5 583.1496,-57.0001 583.1497,-50.0001"/>
</g>
<!-- Node312 -->
<g id="node5" class="node">
<title>Node312</title>
<g id="a_node5"><a xlink:href="class_c_connman.html#a161f1b41271db1a10cec61a825524b5d" target="_top" xlink:title="CConnman::ProcessOneShot">
<polygon fill="#ffffff" stroke="#000000" points="827,-82 827,-101 973,-101 973,-82 827,-82"/>
<text text-anchor="middle" x="900" y="-89" font-family="Helvetica,sans-Serif" font-size="10.00" fill="#000000">CConnman::ProcessOneShot</text>
</a>
</g>
</g>
<!-- Node311&#45;&gt;Node312 -->
<g id="edge4" class="edge">
<title>Node311&#45;&gt;Node312</title>
<path fill="none" stroke="#191970" d="M760.0954,-64.9181C788.7118,-70.3552 822.5434,-76.7832 849.7691,-81.9561"/>
<polygon fill="#191970" stroke="#191970" points="760.6879,-61.4682 750.2103,-63.04 759.3812,-68.3451 760.6879,-61.4682"/>
</g>
<!-- Node313 -->
<g id="node6" class="node">
<title>Node313</title>
<g id="a_node6"><a xlink:href="class_c_connman.html#ac4c8cf5142f88565e789f3b173d89b3e" target="_top" xlink:title="CConnman::ThreadOpenConnections">
<polygon fill="#ffffff" stroke="#000000" points="1009,-50 1009,-69 1189,-69 1189,-50 1009,-50"/>
<text text-anchor="middle" x="1099" y="-57" font-family="Helvetica,sans-Serif" font-size="10.00" fill="#000000">CConnman::ThreadOpenConnections</text>
</a>
</g>
</g>
<!-- Node311&#45;&gt;Node313 -->
<g id="edge7" class="edge">
<title>Node311&#45;&gt;Node313</title>
<path fill="none" stroke="#191970" d="M801.1382,-55.0209C865.0644,-55.9822 946.9619,-57.2137 1008.6969,-58.1421"/>
<polygon fill="#191970" stroke="#191970" points="801.0901,-51.5199 791.0385,-54.869 800.9847,-58.5191 801.0901,-51.5199"/>
</g>
<!-- Node315 -->
<g id="node8" class="node">
<title>Node315</title>
<g id="a_node8"><a xlink:href="class_c_connman.html#a0b787caf95e52a346a2b31a580d60a62" target="_top" xlink:title="CConnman::ThreadOpenAdded\lConnections">
<polygon fill="#ffffff" stroke="#000000" points="1022.5,-.5 1022.5,-30.5 1175.5,-30.5 1175.5,-.5 1022.5,-.5"/>
<text text-anchor="start" x="1030.5" y="-18.5" font-family="Helvetica,sans-Serif" font-size="10.00" fill="#000000">CConnman::ThreadOpenAdded</text>
<text text-anchor="middle" x="1099" y="-7.5" font-family="Helvetica,sans-Serif" font-size="10.00" fill="#000000">Connections</text>
</a>
</g>
</g>
<!-- Node311&#45;&gt;Node315 -->
<g id="edge8" class="edge">
<title>Node311&#45;&gt;Node315</title>
<path fill="none" stroke="#191970" d="M801.0338,-43.8777C869.8436,-37.3244 959.5121,-28.7846 1022.4377,-22.7916"/>
<polygon fill="#191970" stroke="#191970" points="800.6616,-40.3972 791.0385,-44.8297 801.3254,-47.3657 800.6616,-40.3972"/>
</g>
<!-- Node312&#45;&gt;Node313 -->
<g id="edge5" class="edge">
<title>Node312&#45;&gt;Node313</title>
<path fill="none" stroke="#191970" d="M969.1967,-80.3729C992.1807,-76.677 1017.5496,-72.5976 1039.7166,-69.033"/>
<polygon fill="#191970" stroke="#191970" points="968.4852,-76.9422 959.1678,-81.9856 969.5966,-83.8535 968.4852,-76.9422"/>
</g>
<!-- Node314 -->
<g id="node7" class="node">
<title>Node314</title>
<g id="a_node7"><a xlink:href="class_c_connman.html#aa4709e5604e0f4369dada0a211493565" target="_top" xlink:title="CConnman::Start">
<polygon fill="#ffffff" stroke="#000000" points="1225,-28 1225,-47 1318,-47 1318,-28 1225,-28"/>
<text text-anchor="middle" x="1271.5" y="-35" font-family="Helvetica,sans-Serif" font-size="10.00" fill="#000000">CConnman::Start</text>
</a>
</g>
</g>
<!-- Node313&#45;&gt;Node314 -->
<g id="edge6" class="edge">
<title>Node313&#45;&gt;Node314</title>
<path fill="none" stroke="#191970" d="M1183.846,-48.6791C1197.8791,-46.8893 1211.9617,-45.0933 1224.6075,-43.4805"/>
<polygon fill="#191970" stroke="#191970" points="1183.1346,-45.2414 1173.6577,-49.9784 1184.0202,-52.1851 1183.1346,-45.2414"/>
</g>
<!-- Node315&#45;&gt;Node314 -->
<g id="edge9" class="edge">
<title>Node315&#45;&gt;Node314</title>
<path fill="none" stroke="#191970" d="M1185.9033,-26.5833C1199.3137,-28.2936 1212.7031,-30.0013 1224.7746,-31.5408"/>
<polygon fill="#191970" stroke="#191970" points="1186.0281,-23.071 1175.6656,-25.2776 1185.1424,-30.0147 1186.0281,-23.071"/>
</g>
<!-- Node316&#45;&gt;Node310 -->
<g id="edge11" class="edge">
<title>Node316&#45;&gt;Node310</title>
<path fill="none" stroke="#191970" d="M415.495,-42.5654C423.8639,-43.5655 432.4145,-44.5873 440.7642,-45.585"/>
<polygon fill="#191970" stroke="#191970" points="415.7473,-39.0708 405.4026,-41.3594 414.9167,-46.0213 415.7473,-39.0708"/>
</g>
</g>
</svg>
