<?xml version="1.0" encoding="UTF-8" standalone="no"?>
<!DOCTYPE svg PUBLIC "-//W3C//DTD SVG 1.1//EN"
 "http://www.w3.org/Graphics/SVG/1.1/DTD/svg11.dtd">
<!-- Generated by graphviz version 2.40.1 (20161225.0304)
 -->
<!-- Title: src/qt/overviewpage.h Pages: 1 -->
<svg width="410pt" height="140pt"
 viewBox="0.00 0.00 409.50 140.00" xmlns="http://www.w3.org/2000/svg" xmlns:xlink="http://www.w3.org/1999/xlink">
<g id="graph0" class="graph" transform="scale(1 1) rotate(0) translate(4 136)">
<title>src/qt/overviewpage.h</title>
<polygon fill="#ffffff" stroke="transparent" points="-4,4 -4,-136 405.5,-136 405.5,4 -4,4"/>
<!-- Node0 -->
<g id="node1" class="node">
<title>Node0</title>
<polygon fill="#bfbfbf" stroke="#000000" points="181,-112.5 181,-131.5 294,-131.5 294,-112.5 181,-112.5"/>
<text text-anchor="middle" x="237.5" y="-119.5" font-family="Helvetica,sans-Serif" font-size="10.00" fill="#000000">src/qt/overviewpage.h</text>
</g>
<!-- Node1 -->
<g id="node2" class="node">
<title>Node1</title>
<g id="a_node2"><a xlink:href="amount_8h.html" target="_top" xlink:title="amount.h">
<polygon fill="#ffffff" stroke="#000000" points="0,-56.5 0,-75.5 57,-75.5 57,-56.5 0,-56.5"/>
<text text-anchor="middle" x="28.5" y="-63.5" font-family="Helvetica,sans-Serif" font-size="10.00" fill="#000000">amount.h</text>
</a>
</g>
</g>
<!-- Node0&#45;&gt;Node1 -->
<g id="edge1" class="edge">
<title>Node0&#45;&gt;Node1</title>
<path fill="none" stroke="#191970" d="M201.5716,-112.3733C164.0736,-102.3259 105.485,-86.6276 67.0412,-76.3268"/>
<polygon fill="#191970" stroke="#191970" points="67.8122,-72.91 57.247,-73.7026 66.0004,-79.6715 67.8122,-72.91"/>
</g>
<!-- Node3 -->
<g id="node4" class="node">
<title>Node3</title>
<polygon fill="#ffffff" stroke="#bfbfbf" points="75.5,-56.5 75.5,-75.5 191.5,-75.5 191.5,-56.5 75.5,-56.5"/>
<text text-anchor="middle" x="133.5" y="-63.5" font-family="Helvetica,sans-Serif" font-size="10.00" fill="#000000">QSortFilterProxyModel</text>
</g>
<!-- Node0&#45;&gt;Node3 -->
<g id="edge3" class="edge">
<title>Node0&#45;&gt;Node3</title>
<path fill="none" stroke="#191970" d="M219.3846,-112.2455C203.055,-103.4527 178.829,-90.4079 160.2661,-80.4125"/>
<polygon fill="#191970" stroke="#191970" points="161.8719,-77.3021 151.4078,-75.6427 158.5532,-83.4654 161.8719,-77.3021"/>
</g>
<!-- Node4 -->
<g id="node5" class="node">
<title>Node4</title>
<polygon fill="#ffffff" stroke="#bfbfbf" points="210,-56.5 210,-75.5 265,-75.5 265,-56.5 210,-56.5"/>
<text text-anchor="middle" x="237.5" y="-63.5" font-family="Helvetica,sans-Serif" font-size="10.00" fill="#000000">QWidget</text>
</g>
<!-- Node0&#45;&gt;Node4 -->
<g id="edge4" class="edge">
<title>Node0&#45;&gt;Node4</title>
<path fill="none" stroke="#191970" d="M237.5,-112.2455C237.5,-104.9382 237.5,-94.6944 237.5,-85.7046"/>
<polygon fill="#191970" stroke="#191970" points="241.0001,-85.6426 237.5,-75.6427 234.0001,-85.6427 241.0001,-85.6426"/>
</g>
<!-- Node5 -->
<g id="node6" class="node">
<title>Node5</title>
<polygon fill="#ffffff" stroke="#bfbfbf" points="283.5,-56.5 283.5,-75.5 331.5,-75.5 331.5,-56.5 283.5,-56.5"/>
<text text-anchor="middle" x="307.5" y="-63.5" font-family="Helvetica,sans-Serif" font-size="10.00" fill="#000000">QMenu</text>
</g>
<!-- Node0&#45;&gt;Node5 -->
<g id="edge5" class="edge">
<title>Node0&#45;&gt;Node5</title>
<path fill="none" stroke="#191970" d="M249.6931,-112.2455C260.1321,-103.8943 275.3655,-91.7076 287.574,-81.9408"/>
<polygon fill="#191970" stroke="#191970" points="289.8244,-84.6227 295.4467,-75.6427 285.4515,-79.1566 289.8244,-84.6227"/>
</g>
<!-- Node6 -->
<g id="node7" class="node">
<title>Node6</title>
<polygon fill="#ffffff" stroke="#bfbfbf" points="349.5,-56.5 349.5,-75.5 401.5,-75.5 401.5,-56.5 349.5,-56.5"/>
<text text-anchor="middle" x="375.5" y="-63.5" font-family="Helvetica,sans-Serif" font-size="10.00" fill="#000000">memory</text>
</g>
<!-- Node0&#45;&gt;Node6 -->
<g id="edge6" class="edge">
<title>Node0&#45;&gt;Node6</title>
<path fill="none" stroke="#191970" d="M261.223,-112.3733C283.6737,-103.2629 317.5739,-89.5062 342.6255,-79.3404"/>
<polygon fill="#191970" stroke="#191970" points="344.1365,-82.5045 352.0865,-75.5011 341.5043,-76.0182 344.1365,-82.5045"/>
</g>
<!-- Node2 -->
<g id="node3" class="node">
<title>Node2</title>
<polygon fill="#ffffff" stroke="#bfbfbf" points="4,-.5 4,-19.5 53,-19.5 53,-.5 4,-.5"/>
<text text-anchor="middle" x="28.5" y="-7.5" font-family="Helvetica,sans-Serif" font-size="10.00" fill="#000000">stdint.h</text>
</g>
<!-- Node1&#45;&gt;Node2 -->
<g id="edge2" class="edge">
<title>Node1&#45;&gt;Node2</title>
<path fill="none" stroke="#191970" d="M28.5,-56.2455C28.5,-48.9382 28.5,-38.6944 28.5,-29.7046"/>
<polygon fill="#191970" stroke="#191970" points="32.0001,-29.6426 28.5,-19.6427 25.0001,-29.6427 32.0001,-29.6426"/>
</g>
</g>
</svg>
