<?xml version="1.0" encoding="UTF-8" standalone="no"?>
<!DOCTYPE svg PUBLIC "-//W3C//DTD SVG 1.1//EN"
 "http://www.w3.org/Graphics/SVG/1.1/DTD/svg11.dtd">
<!-- Generated by graphviz version 2.40.1 (20161225.0304)
 -->
<!-- Title: listassets Pages: 1 -->
<svg width="1001pt" height="921pt"
 viewBox="0.00 0.00 1001.00 921.00" xmlns="http://www.w3.org/2000/svg" xmlns:xlink="http://www.w3.org/1999/xlink">
<g id="graph0" class="graph" transform="scale(1 1) rotate(0) translate(4 917)">
<title>listassets</title>
<polygon fill="#ffffff" stroke="transparent" points="-4,4 -4,-917 997,-917 997,4 -4,4"/>
<!-- Node1230 -->
<g id="node1" class="node">
<title>Node1230</title>
<polygon fill="#bfbfbf" stroke="#000000" points="0,-741.5 0,-760.5 59,-760.5 59,-741.5 0,-741.5"/>
<text text-anchor="middle" x="29.5" y="-748.5" font-family="Helvetica,sans-Serif" font-size="10.00" fill="#000000">listassets</text>
</g>
<!-- Node1231 -->
<g id="node2" class="node">
<title>Node1231</title>
<g id="a_node2"><a xlink:href="validation_8cpp.html#a0e99fa19d4750df87e0a17fbed8b0ce8" target="_top" xlink:title="RVN START. ">
<polygon fill="#ffffff" stroke="#000000" points="256,-893.5 256,-912.5 360,-912.5 360,-893.5 256,-893.5"/>
<text text-anchor="middle" x="308" y="-900.5" font-family="Helvetica,sans-Serif" font-size="10.00" fill="#000000">AreAssetsDeployed</text>
</a>
</g>
</g>
<!-- Node1230&#45;&gt;Node1231 -->
<g id="edge1" class="edge">
<title>Node1230&#45;&gt;Node1231</title>
<path fill="none" stroke="#191970" d="M38.3059,-760.8636C50.0677,-773.4786 72.096,-795.2174 95,-808 144.5912,-835.6766 167.7703,-817.6854 217,-846 235.815,-856.8215 234.8054,-867.165 253,-879 258.8676,-882.8167 265.4437,-886.2831 271.9523,-889.3202"/>
<polygon fill="#191970" stroke="#191970" points="270.7865,-892.631 281.3493,-893.4536 273.6049,-886.2235 270.7865,-892.631"/>
</g>
<!-- Node1232 -->
<g id="node3" class="node">
<title>Node1232</title>
<g id="a_node3"><a xlink:href="class_uni_value.html#a5a7394aeb8d5584db7a90c2c041726b1" target="_top" xlink:title="UniValue::size">
<polygon fill="#ffffff" stroke="#000000" points="116,-855.5 116,-874.5 196,-874.5 196,-855.5 116,-855.5"/>
<text text-anchor="middle" x="156" y="-862.5" font-family="Helvetica,sans-Serif" font-size="10.00" fill="#000000">UniValue::size</text>
</a>
</g>
</g>
<!-- Node1230&#45;&gt;Node1232 -->
<g id="edge2" class="edge">
<title>Node1230&#45;&gt;Node1232</title>
<path fill="none" stroke="#191970" d="M34.0875,-760.5237C43.2498,-778.6165 65.4957,-818.184 95,-841 100.3228,-845.1162 106.4408,-848.6113 112.7026,-851.5525"/>
<polygon fill="#191970" stroke="#191970" points="111.3324,-854.7731 121.9041,-855.4734 114.0765,-848.3334 111.3324,-854.7731"/>
</g>
<!-- Node1233 -->
<g id="node4" class="node">
<title>Node1233</title>
<g id="a_node4"><a xlink:href="rpc_2assets_8cpp.html#a41e81a808809b12fd795b404d39ac60a" target="_top" xlink:title="AssetActivationWarning">
<polygon fill="#ffffff" stroke="#000000" points="95,-893.5 95,-912.5 217,-912.5 217,-893.5 95,-893.5"/>
<text text-anchor="middle" x="156" y="-900.5" font-family="Helvetica,sans-Serif" font-size="10.00" fill="#000000">AssetActivationWarning</text>
</a>
</g>
</g>
<!-- Node1230&#45;&gt;Node1233 -->
<g id="edge3" class="edge">
<title>Node1230&#45;&gt;Node1233</title>
<path fill="none" stroke="#191970" d="M31.4887,-760.649C37.0216,-785.0489 54.9022,-849.7041 95,-884 96.9914,-885.7033 99.1348,-887.254 101.3852,-888.6658"/>
<polygon fill="#191970" stroke="#191970" points="100.0189,-891.9016 110.4997,-893.4516 103.2731,-885.7039 100.0189,-891.9016"/>
</g>
<!-- Node1234 -->
<g id="node5" class="node">
<title>Node1234</title>
<g id="a_node5"><a xlink:href="server_8cpp.html#a9ef4f8fb114508ceb861a0e8c3e0d26e" target="_top" xlink:title="HelpExampleRpc">
<polygon fill="#ffffff" stroke="#000000" points="109.5,-779.5 109.5,-798.5 202.5,-798.5 202.5,-779.5 109.5,-779.5"/>
<text text-anchor="middle" x="156" y="-786.5" font-family="Helvetica,sans-Serif" font-size="10.00" fill="#000000">HelpExampleRpc</text>
</a>
</g>
</g>
<!-- Node1230&#45;&gt;Node1234 -->
<g id="edge5" class="edge">
<title>Node1230&#45;&gt;Node1234</title>
<path fill="none" stroke="#191970" d="M59.1586,-759.9093C75.6718,-764.8698 96.4882,-771.1229 114.5859,-776.5594"/>
<polygon fill="#191970" stroke="#191970" points="113.7317,-779.9573 124.3159,-779.4822 115.7456,-773.2532 113.7317,-779.9573"/>
</g>
<!-- Node1235 -->
<g id="node6" class="node">
<title>Node1235</title>
<g id="a_node6"><a xlink:href="server_8cpp.html#a26bafe3d526ee8cbc84b3c0b0dc3a43b" target="_top" xlink:title="HelpExampleCli">
<polygon fill="#ffffff" stroke="#000000" points="112.5,-741.5 112.5,-760.5 199.5,-760.5 199.5,-741.5 112.5,-741.5"/>
<text text-anchor="middle" x="156" y="-748.5" font-family="Helvetica,sans-Serif" font-size="10.00" fill="#000000">HelpExampleCli</text>
</a>
</g>
</g>
<!-- Node1230&#45;&gt;Node1235 -->
<g id="edge6" class="edge">
<title>Node1230&#45;&gt;Node1235</title>
<path fill="none" stroke="#191970" d="M59.1586,-751C71.9748,-751 87.3831,-751 102.1007,-751"/>
<polygon fill="#191970" stroke="#191970" points="102.1392,-754.5001 112.1392,-751 102.1391,-747.5001 102.1392,-754.5001"/>
</g>
<!-- Node1236 -->
<g id="node7" class="node">
<title>Node1236</title>
<g id="a_node7"><a xlink:href="safemode_8cpp.html#aa7985a8405eaf7b4b8e269dc39be5e30" target="_top" xlink:title="ObserveSafeMode">
<polygon fill="#ffffff" stroke="#000000" points="107,-703.5 107,-722.5 205,-722.5 205,-703.5 107,-703.5"/>
<text text-anchor="middle" x="156" y="-710.5" font-family="Helvetica,sans-Serif" font-size="10.00" fill="#000000">ObserveSafeMode</text>
</a>
</g>
</g>
<!-- Node1230&#45;&gt;Node1236 -->
<g id="edge7" class="edge">
<title>Node1230&#45;&gt;Node1236</title>
<path fill="none" stroke="#191970" d="M59.1586,-742.0907C75.6718,-737.1302 96.4882,-730.8771 114.5859,-725.4406"/>
<polygon fill="#191970" stroke="#191970" points="115.7456,-728.7468 124.3159,-722.5178 113.7317,-722.0427 115.7456,-728.7468"/>
</g>
<!-- Node1242 -->
<g id="node13" class="node">
<title>Node1242</title>
<g id="a_node13"><a xlink:href="rpc_2protocol_8cpp.html#a40b75d3d265c4a2e1d5fe3e129743884" target="_top" xlink:title="JSONRPCError">
<polygon fill="#ffffff" stroke="#000000" points="113,-589.5 113,-608.5 199,-608.5 199,-589.5 113,-589.5"/>
<text text-anchor="middle" x="156" y="-596.5" font-family="Helvetica,sans-Serif" font-size="10.00" fill="#000000">JSONRPCError</text>
</a>
</g>
</g>
<!-- Node1230&#45;&gt;Node1242 -->
<g id="edge14" class="edge">
<title>Node1230&#45;&gt;Node1242</title>
<path fill="none" stroke="#191970" d="M37.4131,-741.4917C58.2673,-716.4338 114.9578,-648.3155 141.6884,-616.1965"/>
<polygon fill="#191970" stroke="#191970" points="144.3832,-618.43 148.0898,-608.5047 139.0027,-613.9521 144.3832,-618.43"/>
</g>
<!-- Node1274 -->
<g id="node43" class="node">
<title>Node1274</title>
<g id="a_node43"><a xlink:href="class_uni_value.html#a087ea6ccec615333371fa1aaf83ab7df" target="_top" xlink:title="UniValue::get_str">
<polygon fill="#ffffff" stroke="#000000" points="110,-494.5 110,-513.5 202,-513.5 202,-494.5 110,-494.5"/>
<text text-anchor="middle" x="156" y="-501.5" font-family="Helvetica,sans-Serif" font-size="10.00" fill="#000000">UniValue::get_str</text>
</a>
</g>
</g>
<!-- Node1230&#45;&gt;Node1274 -->
<g id="edge47" class="edge">
<title>Node1230&#45;&gt;Node1274</title>
<path fill="none" stroke="#191970" d="M32.0729,-741.2678C39.4156,-714.3927 62.0823,-637.3493 95,-580 107.6494,-557.9623 126.4518,-535.6245 139.834,-520.9237"/>
<polygon fill="#191970" stroke="#191970" points="142.4005,-523.3035 146.6374,-513.5927 137.2695,-518.5418 142.4005,-523.3035"/>
</g>
<!-- Node1276 -->
<g id="node45" class="node">
<title>Node1276</title>
<g id="a_node45"><a xlink:href="class_uni_value.html#ae8a27d40aa1b1322ea95ff4fb2dec2b1" target="_top" xlink:title="UniValue::get_bool">
<polygon fill="#ffffff" stroke="#000000" points="106.5,-285.5 106.5,-304.5 205.5,-304.5 205.5,-285.5 106.5,-285.5"/>
<text text-anchor="middle" x="156" y="-292.5" font-family="Helvetica,sans-Serif" font-size="10.00" fill="#000000">UniValue::get_bool</text>
</a>
</g>
</g>
<!-- Node1230&#45;&gt;Node1276 -->
<g id="edge49" class="edge">
<title>Node1230&#45;&gt;Node1276</title>
<path fill="none" stroke="#191970" d="M31.6388,-741.2742C39.3663,-706.3815 66.8709,-584.2979 95,-485 112.8076,-422.1377 137.4827,-348.7818 149.2429,-314.5083"/>
<polygon fill="#191970" stroke="#191970" points="152.6336,-315.4114 152.5822,-304.8166 146.0154,-313.131 152.6336,-315.4114"/>
</g>
<!-- Node1233&#45;&gt;Node1231 -->
<g id="edge4" class="edge">
<title>Node1233&#45;&gt;Node1231</title>
<path fill="none" stroke="#191970" d="M217.3861,-903C226.6052,-903 236.1224,-903 245.3672,-903"/>
<polygon fill="#191970" stroke="#191970" points="245.6587,-906.5001 255.6586,-903 245.6586,-899.5001 245.6587,-906.5001"/>
</g>
<!-- Node1237 -->
<g id="node8" class="node">
<title>Node1237</title>
<g id="a_node8"><a xlink:href="warnings_8cpp.html#a6918ffd0d632afc0c0495696bc99aa00" target="_top" xlink:title="Format a string that describes several potential problems detected by the core. ">
<polygon fill="#ffffff" stroke="#000000" points="271,-817.5 271,-836.5 345,-836.5 345,-817.5 271,-817.5"/>
<text text-anchor="middle" x="308" y="-824.5" font-family="Helvetica,sans-Serif" font-size="10.00" fill="#000000">GetWarnings</text>
</a>
</g>
</g>
<!-- Node1236&#45;&gt;Node1237 -->
<g id="edge8" class="edge">
<title>Node1236&#45;&gt;Node1237</title>
<path fill="none" stroke="#191970" d="M196.9626,-722.6087C203.9205,-725.1112 210.8701,-728.2043 217,-732 250.1315,-752.5154 279.5232,-787.8852 295.4423,-809.1949"/>
<polygon fill="#191970" stroke="#191970" points="292.6922,-811.3639 301.4115,-817.3825 298.3485,-807.2401 292.6922,-811.3639"/>
</g>
<!-- Node1241 -->
<g id="node12" class="node">
<title>Node1241</title>
<g id="a_node12"><a xlink:href="class_args_manager.html#af81c6e2a9dcd6b12557a2387fd67b2a6" target="_top" xlink:title="Return boolean argument or default value. ">
<polygon fill="#ffffff" stroke="#000000" points="399,-874.5 399,-893.5 530,-893.5 530,-874.5 399,-874.5"/>
<text text-anchor="middle" x="464.5" y="-881.5" font-family="Helvetica,sans-Serif" font-size="10.00" fill="#000000">ArgsManager::GetBoolArg</text>
</a>
</g>
</g>
<!-- Node1236&#45;&gt;Node1241 -->
<g id="edge13" class="edge">
<title>Node1236&#45;&gt;Node1241</title>
<path fill="none" stroke="#191970" d="M203.2951,-722.5057C208.3492,-724.9762 213.0707,-728.0861 217,-732 254.6444,-769.4968 213.1015,-810.9113 253,-846 272.993,-863.5829 336.4403,-873.3719 388.6703,-878.5921"/>
<polygon fill="#191970" stroke="#191970" points="388.6625,-882.1073 398.9506,-879.5762 389.3296,-875.1391 388.6625,-882.1073"/>
</g>
<!-- Node1238 -->
<g id="node9" class="node">
<title>Node1238</title>
<g id="a_node9"><a xlink:href="util_8h.html#aad133bb6103b53cebf03fd01e2f11ba1" target="_top" xlink:title="Translation function: Call Translate signal on UI interface, which returns a boost::optional result...">
<polygon fill="#ffffff" stroke="#000000" points="450,-836.5 450,-855.5 479,-855.5 479,-836.5 450,-836.5"/>
<text text-anchor="middle" x="464.5" y="-843.5" font-family="Helvetica,sans-Serif" font-size="10.00" fill="#000000">_</text>
</a>
</g>
</g>
<!-- Node1237&#45;&gt;Node1238 -->
<g id="edge9" class="edge">
<title>Node1237&#45;&gt;Node1238</title>
<path fill="none" stroke="#191970" d="M345.0883,-831.5027C374.3518,-835.0555 414.3521,-839.9118 439.8104,-843.0025"/>
<polygon fill="#191970" stroke="#191970" points="439.4081,-846.4793 449.7571,-844.2101 440.2518,-839.5303 439.4081,-846.4793"/>
</g>
<!-- Node1237&#45;&gt;Node1241 -->
<g id="edge12" class="edge">
<title>Node1237&#45;&gt;Node1241</title>
<path fill="none" stroke="#191970" d="M330.0929,-836.5644C352.5464,-846.2235 385.8405,-860.3605 399,-865 405.4522,-867.2748 412.3286,-869.4906 419.1091,-871.5582"/>
<polygon fill="#191970" stroke="#191970" points="418.3312,-874.9783 428.9139,-874.4711 420.3248,-868.2681 418.3312,-874.9783"/>
</g>
<!-- Node1239 -->
<g id="node10" class="node">
<title>Node1239</title>
<g id="a_node10"><a xlink:href="util_8h.html#a9ed616020f4ef9b1a261b222bbec78e2" target="_top" xlink:title="SetupEnvironment">
<polygon fill="#ffffff" stroke="#000000" points="586,-836.5 586,-855.5 683,-855.5 683,-836.5 586,-836.5"/>
<text text-anchor="middle" x="634.5" y="-843.5" font-family="Helvetica,sans-Serif" font-size="10.00" fill="#000000">SetupEnvironment</text>
</a>
</g>
</g>
<!-- Node1238&#45;&gt;Node1239 -->
<g id="edge10" class="edge">
<title>Node1238&#45;&gt;Node1239</title>
<path fill="none" stroke="#191970" d="M479.289,-846C500.5925,-846 541.1281,-846 575.432,-846"/>
<polygon fill="#191970" stroke="#191970" points="575.8498,-849.5001 585.8497,-846 575.8497,-842.5001 575.8498,-849.5001"/>
</g>
<!-- Node1240 -->
<g id="node11" class="node">
<title>Node1240</title>
<g id="a_node11"><a xlink:href="util_8h.html#a66791919e137c59061e988d2d87ee9a1" target="_top" xlink:title="SetupNetworking">
<polygon fill="#ffffff" stroke="#000000" points="588.5,-874.5 588.5,-893.5 680.5,-893.5 680.5,-874.5 588.5,-874.5"/>
<text text-anchor="middle" x="634.5" y="-881.5" font-family="Helvetica,sans-Serif" font-size="10.00" fill="#000000">SetupNetworking</text>
</a>
</g>
</g>
<!-- Node1238&#45;&gt;Node1240 -->
<g id="edge11" class="edge">
<title>Node1238&#45;&gt;Node1240</title>
<path fill="none" stroke="#191970" d="M479.289,-849.3058C501.9576,-854.3729 546.4019,-864.3075 581.9428,-872.2519"/>
<polygon fill="#191970" stroke="#191970" points="581.1829,-875.6684 591.7056,-874.4342 582.71,-868.8369 581.1829,-875.6684"/>
</g>
<!-- Node1243 -->
<g id="node14" class="node">
<title>Node1243</title>
<g id="a_node14"><a xlink:href="util_8h.html#a96c5fc7111f69f7dcaba992d95d13e03" target="_top" xlink:title="error">
<polygon fill="#ffffff" stroke="#000000" points="290,-513.5 290,-532.5 326,-532.5 326,-513.5 290,-513.5"/>
<text text-anchor="middle" x="308" y="-520.5" font-family="Helvetica,sans-Serif" font-size="10.00" fill="#000000">error</text>
</a>
</g>
</g>
<!-- Node1242&#45;&gt;Node1243 -->
<g id="edge15" class="edge">
<title>Node1242&#45;&gt;Node1243</title>
<path fill="none" stroke="#191970" d="M175.2509,-589.3745C201.9219,-576.0391 250.2562,-551.8719 280.6603,-536.6699"/>
<polygon fill="#191970" stroke="#191970" points="282.4725,-539.6769 289.8515,-532.0742 279.342,-533.4159 282.4725,-539.6769"/>
</g>
<!-- Node1273 -->
<g id="node42" class="node">
<title>Node1273</title>
<g id="a_node42"><a xlink:href="class_uni_value.html#a944cd1b59b040cd24c9f46b55a68d49a" target="_top" xlink:title="UniValue::push_back">
<polygon fill="#ffffff" stroke="#000000" points="253,-589.5 253,-608.5 363,-608.5 363,-589.5 253,-589.5"/>
<text text-anchor="middle" x="308" y="-596.5" font-family="Helvetica,sans-Serif" font-size="10.00" fill="#000000">UniValue::push_back</text>
</a>
</g>
</g>
<!-- Node1242&#45;&gt;Node1273 -->
<g id="edge46" class="edge">
<title>Node1242&#45;&gt;Node1273</title>
<path fill="none" stroke="#191970" d="M199.1505,-599C212.6999,-599 227.9742,-599 242.7014,-599"/>
<polygon fill="#191970" stroke="#191970" points="242.782,-602.5001 252.7819,-599 242.7819,-595.5001 242.782,-602.5001"/>
</g>
<!-- Node1244 -->
<g id="node15" class="node">
<title>Node1244</title>
<g id="a_node15"><a xlink:href="util_8h.html#afd4c3002b2797c0560adddb6af3ca1da" target="_top" xlink:title="Send a string to the log output. ">
<polygon fill="#ffffff" stroke="#000000" points="432,-570.5 432,-589.5 497,-589.5 497,-570.5 432,-570.5"/>
<text text-anchor="middle" x="464.5" y="-577.5" font-family="Helvetica,sans-Serif" font-size="10.00" fill="#000000">LogPrintStr</text>
</a>
</g>
</g>
<!-- Node1243&#45;&gt;Node1244 -->
<g id="edge16" class="edge">
<title>Node1243&#45;&gt;Node1244</title>
<path fill="none" stroke="#191970" d="M326.2362,-531.3342C344.4406,-539.4821 373.3268,-551.9488 399,-561 406.459,-563.6297 414.4848,-566.1806 422.2739,-568.5149"/>
<polygon fill="#191970" stroke="#191970" points="421.3726,-571.8978 431.953,-571.3454 423.3374,-565.1792 421.3726,-571.8978"/>
</g>
<!-- Node1245 -->
<g id="node16" class="node">
<title>Node1245</title>
<g id="a_node16"><a xlink:href="namespacetinyformat.html#a05144619d8b16e2b31b2594ca9c6bf1d" target="_top" xlink:title="Format list of arguments to the stream according to given format string. ">
<polygon fill="#ffffff" stroke="#000000" points="417.5,-532.5 417.5,-551.5 511.5,-551.5 511.5,-532.5 417.5,-532.5"/>
<text text-anchor="middle" x="464.5" y="-539.5" font-family="Helvetica,sans-Serif" font-size="10.00" fill="#000000">tinyformat::format</text>
</a>
</g>
</g>
<!-- Node1243&#45;&gt;Node1245 -->
<g id="edge17" class="edge">
<title>Node1243&#45;&gt;Node1245</title>
<path fill="none" stroke="#191970" d="M326.2588,-525.2167C346.0071,-527.6143 378.4956,-531.5586 407.0163,-535.0212"/>
<polygon fill="#191970" stroke="#191970" points="406.9646,-538.5405 417.3135,-536.2713 407.8083,-531.5915 406.9646,-538.5405"/>
</g>
<!-- Node1254 -->
<g id="node23" class="node">
<title>Node1254</title>
<g id="a_node23"><a xlink:href="util_8h.html#aaada8c5faa502eb0c33fc01294955db8" target="_top" xlink:title="PrintExceptionContinue">
<polygon fill="#ffffff" stroke="#000000" points="405,-494.5 405,-513.5 524,-513.5 524,-494.5 405,-494.5"/>
<text text-anchor="middle" x="464.5" y="-501.5" font-family="Helvetica,sans-Serif" font-size="10.00" fill="#000000">PrintExceptionContinue</text>
</a>
</g>
</g>
<!-- Node1243&#45;&gt;Node1254 -->
<g id="edge24" class="edge">
<title>Node1243&#45;&gt;Node1254</title>
<path fill="none" stroke="#191970" d="M326.2588,-520.7833C343.2713,-518.7179 369.7386,-515.5046 394.9791,-512.4402"/>
<polygon fill="#191970" stroke="#191970" points="395.4356,-515.9106 404.9408,-511.2308 394.5919,-508.9616 395.4356,-515.9106"/>
</g>
<!-- Node1255 -->
<g id="node24" class="node">
<title>Node1255</title>
<g id="a_node24"><a xlink:href="util_8h.html#af0e69a29ba128b74030ad8a213f2037a" target="_top" xlink:title="FileCommit">
<polygon fill="#ffffff" stroke="#000000" points="431,-456.5 431,-475.5 498,-475.5 498,-456.5 431,-456.5"/>
<text text-anchor="middle" x="464.5" y="-463.5" font-family="Helvetica,sans-Serif" font-size="10.00" fill="#000000">FileCommit</text>
</a>
</g>
</g>
<!-- Node1243&#45;&gt;Node1255 -->
<g id="edge25" class="edge">
<title>Node1243&#45;&gt;Node1255</title>
<path fill="none" stroke="#191970" d="M326.0988,-517.5194C336.9561,-514.0423 350.9508,-509.2244 363,-504 379.5986,-496.8031 382.2257,-491.7773 399,-485 406.0226,-482.1627 413.6253,-479.557 421.0798,-477.2443"/>
<polygon fill="#191970" stroke="#191970" points="422.1428,-480.5798 430.7329,-474.378 420.1502,-473.8694 422.1428,-480.5798"/>
</g>
<!-- Node1256 -->
<g id="node25" class="node">
<title>Node1256</title>
<g id="a_node25"><a xlink:href="util_8h.html#acb8d6b822bc1bfa609bf43bbac1a0d44" target="_top" xlink:title="TruncateFile">
<polygon fill="#ffffff" stroke="#000000" points="429,-418.5 429,-437.5 500,-437.5 500,-418.5 429,-418.5"/>
<text text-anchor="middle" x="464.5" y="-425.5" font-family="Helvetica,sans-Serif" font-size="10.00" fill="#000000">TruncateFile</text>
</a>
</g>
</g>
<!-- Node1243&#45;&gt;Node1256 -->
<g id="edge26" class="edge">
<title>Node1243&#45;&gt;Node1256</title>
<path fill="none" stroke="#191970" d="M326.0822,-519.955C337.6001,-517.2902 352.3106,-512.4696 363,-504 386.4847,-485.3923 375.0549,-465.0114 399,-447 404.9198,-442.5471 411.8581,-439.136 418.9636,-436.5232"/>
<polygon fill="#191970" stroke="#191970" points="420.2086,-439.8001 428.6764,-433.4325 418.0859,-433.1296 420.2086,-439.8001"/>
</g>
<!-- Node1257 -->
<g id="node26" class="node">
<title>Node1257</title>
<g id="a_node26"><a xlink:href="util_8h.html#a756a5c49a4bb607d16d9842f8f3ede4f" target="_top" xlink:title="this function tries to raise the file descriptor limit to the requested number. ">
<polygon fill="#ffffff" stroke="#000000" points="402.5,-380.5 402.5,-399.5 526.5,-399.5 526.5,-380.5 402.5,-380.5"/>
<text text-anchor="middle" x="464.5" y="-387.5" font-family="Helvetica,sans-Serif" font-size="10.00" fill="#000000">RaiseFileDescriptorLimit</text>
</a>
</g>
</g>
<!-- Node1243&#45;&gt;Node1257 -->
<g id="edge27" class="edge">
<title>Node1243&#45;&gt;Node1257</title>
<path fill="none" stroke="#191970" d="M326.1672,-520.7497C338.0164,-518.4041 353.0697,-513.6405 363,-504 395.3965,-472.5487 365.8229,-439.6268 399,-409 400.6965,-407.4339 402.5146,-405.9961 404.4259,-404.6763"/>
<polygon fill="#191970" stroke="#191970" points="406.359,-407.6032 413.3152,-399.6118 402.8938,-401.521 406.359,-407.6032"/>
</g>
<!-- Node1258 -->
<g id="node27" class="node">
<title>Node1258</title>
<g id="a_node27"><a xlink:href="util_8h.html#a91c763bffc49cf7ed8d45cc44870e55c" target="_top" xlink:title="this function tries to make a particular range of a file allocated (corresponding to disk space) it i...">
<polygon fill="#ffffff" stroke="#000000" points="416.5,-342.5 416.5,-361.5 512.5,-361.5 512.5,-342.5 416.5,-342.5"/>
<text text-anchor="middle" x="464.5" y="-349.5" font-family="Helvetica,sans-Serif" font-size="10.00" fill="#000000">AllocateFileRange</text>
</a>
</g>
</g>
<!-- Node1243&#45;&gt;Node1258 -->
<g id="edge28" class="edge">
<title>Node1243&#45;&gt;Node1258</title>
<path fill="none" stroke="#191970" d="M326.2187,-521.1052C338.2454,-518.9138 353.4843,-514.1886 363,-504 404.7988,-459.2453 356.0892,-414.6896 399,-371 401.4812,-368.4737 404.2766,-366.2784 407.279,-364.3712"/>
<polygon fill="#191970" stroke="#191970" points="408.9478,-367.4483 416.1989,-359.7235 405.7132,-361.2405 408.9478,-367.4483"/>
</g>
<!-- Node1259 -->
<g id="node28" class="node">
<title>Node1259</title>
<g id="a_node28"><a xlink:href="util_8h.html#a579657da2b55b131ecd453bf1b0d2314" target="_top" xlink:title="RenameOver">
<polygon fill="#ffffff" stroke="#000000" points="427.5,-304.5 427.5,-323.5 501.5,-323.5 501.5,-304.5 427.5,-304.5"/>
<text text-anchor="middle" x="464.5" y="-311.5" font-family="Helvetica,sans-Serif" font-size="10.00" fill="#000000">RenameOver</text>
</a>
</g>
</g>
<!-- Node1243&#45;&gt;Node1259 -->
<g id="edge29" class="edge">
<title>Node1243&#45;&gt;Node1259</title>
<path fill="none" stroke="#191970" d="M326.1429,-521.3205C338.2943,-519.2272 353.7109,-514.5307 363,-504 414.3771,-445.7558 346.1746,-389.934 399,-333 404.0937,-327.5101 410.6688,-323.5732 417.6823,-320.7569"/>
<polygon fill="#191970" stroke="#191970" points="419.0043,-324.007 427.4199,-317.5706 416.8273,-317.3541 419.0043,-324.007"/>
</g>
<!-- Node1260 -->
<g id="node29" class="node">
<title>Node1260</title>
<g id="a_node29"><a xlink:href="util_8h.html#a9042a919d837da9d97311a0c460c597c" target="_top" xlink:title="Ignores exceptions thrown by Boost&#39;s create_directories if the requested directory exists...">
<polygon fill="#ffffff" stroke="#000000" points="411,-266.5 411,-285.5 518,-285.5 518,-266.5 411,-266.5"/>
<text text-anchor="middle" x="464.5" y="-273.5" font-family="Helvetica,sans-Serif" font-size="10.00" fill="#000000">TryCreateDirectories</text>
</a>
</g>
</g>
<!-- Node1243&#45;&gt;Node1260 -->
<g id="edge30" class="edge">
<title>Node1243&#45;&gt;Node1260</title>
<path fill="none" stroke="#191970" d="M326.0028,-521.4705C338.2511,-519.4494 353.8414,-514.7774 363,-504 424.0368,-432.1748 336.1766,-365.2678 399,-295 400.1936,-293.6649 401.4748,-292.4213 402.8291,-291.263"/>
<polygon fill="#191970" stroke="#191970" points="404.9792,-294.0336 411.2836,-285.5186 401.0452,-288.2436 404.9792,-294.0336"/>
</g>
<!-- Node1261 -->
<g id="node30" class="node">
<title>Node1261</title>
<g id="a_node30"><a xlink:href="util_8h.html#a15cb85964fe08c264605537f44570d3c" target="_top" xlink:title="GetDefaultDataDir">
<polygon fill="#ffffff" stroke="#000000" points="415.5,-228.5 415.5,-247.5 513.5,-247.5 513.5,-228.5 415.5,-228.5"/>
<text text-anchor="middle" x="464.5" y="-235.5" font-family="Helvetica,sans-Serif" font-size="10.00" fill="#000000">GetDefaultDataDir</text>
</a>
</g>
</g>
<!-- Node1243&#45;&gt;Node1261 -->
<g id="edge31" class="edge">
<title>Node1243&#45;&gt;Node1261</title>
<path fill="none" stroke="#191970" d="M326.089,-521.5429C338.378,-519.5558 353.9815,-514.8948 363,-504 433.7402,-418.5425 326.1335,-340.6518 399,-257 401.2164,-254.4555 403.7512,-252.242 406.5059,-250.3175"/>
<polygon fill="#191970" stroke="#191970" points="408.3212,-253.3123 415.3315,-245.3683 404.8974,-247.2068 408.3212,-253.3123"/>
</g>
<!-- Node1262 -->
<g id="node31" class="node">
<title>Node1262</title>
<g id="a_node31"><a xlink:href="util_8h.html#abb63dfb710832aefb746933af05198d4" target="_top" xlink:title="GetDataDir">
<polygon fill="#ffffff" stroke="#000000" points="431.5,-190.5 431.5,-209.5 497.5,-209.5 497.5,-190.5 431.5,-190.5"/>
<text text-anchor="middle" x="464.5" y="-197.5" font-family="Helvetica,sans-Serif" font-size="10.00" fill="#000000">GetDataDir</text>
</a>
</g>
</g>
<!-- Node1243&#45;&gt;Node1262 -->
<g id="edge32" class="edge">
<title>Node1243&#45;&gt;Node1262</title>
<path fill="none" stroke="#191970" d="M326.1533,-521.5956C338.4725,-519.6333 354.0858,-514.9804 363,-504 443.4698,-404.8786 316.0634,-316.0668 399,-219 404.8677,-212.1325 413.0551,-207.6708 421.6584,-204.7909"/>
<polygon fill="#191970" stroke="#191970" points="422.6941,-208.1369 431.4472,-202.1675 420.882,-201.3755 422.6941,-208.1369"/>
</g>
<!-- Node1263 -->
<g id="node32" class="node">
<title>Node1263</title>
<g id="a_node32"><a xlink:href="util_8h.html#abfb50dfe077aced7591f2aba601f605d" target="_top" xlink:title="ClearDatadirCache">
<polygon fill="#ffffff" stroke="#000000" points="414.5,-152.5 414.5,-171.5 514.5,-171.5 514.5,-152.5 414.5,-152.5"/>
<text text-anchor="middle" x="464.5" y="-159.5" font-family="Helvetica,sans-Serif" font-size="10.00" fill="#000000">ClearDatadirCache</text>
</a>
</g>
</g>
<!-- Node1243&#45;&gt;Node1263 -->
<g id="edge33" class="edge">
<title>Node1243&#45;&gt;Node1263</title>
<path fill="none" stroke="#191970" d="M326.203,-521.6356C338.5457,-519.6922 354.1665,-515.0454 363,-504 453.2163,-391.1939 305.9759,-291.5021 399,-181 400.9302,-178.7072 403.119,-176.682 405.4965,-174.894"/>
<polygon fill="#191970" stroke="#191970" points="407.4203,-177.8217 414.2049,-169.6842 403.8265,-171.8146 407.4203,-177.8217"/>
</g>
<!-- Node1264 -->
<g id="node33" class="node">
<title>Node1264</title>
<g id="a_node33"><a xlink:href="util_8h.html#aa634f312705d4811dfa2a5392bddf6cf" target="_top" xlink:title="GetConfigFile">
<polygon fill="#ffffff" stroke="#000000" points="426,-760.5 426,-779.5 503,-779.5 503,-760.5 426,-760.5"/>
<text text-anchor="middle" x="464.5" y="-767.5" font-family="Helvetica,sans-Serif" font-size="10.00" fill="#000000">GetConfigFile</text>
</a>
</g>
</g>
<!-- Node1243&#45;&gt;Node1264 -->
<g id="edge34" class="edge">
<title>Node1243&#45;&gt;Node1264</title>
<path fill="none" stroke="#191970" d="M321.0542,-532.8343C333.7856,-543.1551 352.6933,-560.5609 363,-580 399.3815,-648.6177 346.1746,-694.066 399,-751 403.7074,-756.0735 409.68,-759.8208 416.0946,-762.5828"/>
<polygon fill="#191970" stroke="#191970" points="415.1182,-765.9495 425.7131,-765.9644 417.44,-759.3457 415.1182,-765.9495"/>
</g>
<!-- Node1266 -->
<g id="node35" class="node">
<title>Node1266</title>
<g id="a_node35"><a xlink:href="util_8h.html#aa0172eabeecce5061826cb19990fbde2" target="_top" xlink:title="GetPidFile">
<polygon fill="#ffffff" stroke="#000000" points="433.5,-798.5 433.5,-817.5 495.5,-817.5 495.5,-798.5 433.5,-798.5"/>
<text text-anchor="middle" x="464.5" y="-805.5" font-family="Helvetica,sans-Serif" font-size="10.00" fill="#000000">GetPidFile</text>
</a>
</g>
</g>
<!-- Node1243&#45;&gt;Node1266 -->
<g id="edge36" class="edge">
<title>Node1243&#45;&gt;Node1266</title>
<path fill="none" stroke="#191970" d="M321.2063,-532.7554C334.056,-543.0149 353.0539,-560.374 363,-580 405.6085,-664.0765 336.1766,-718.7322 399,-789 405.375,-796.1304 414.2488,-800.6527 423.4095,-803.5029"/>
<polygon fill="#191970" stroke="#191970" points="422.8081,-806.96 433.3579,-805.9836 424.5018,-800.168 422.8081,-806.96"/>
</g>
<!-- Node1268 -->
<g id="node37" class="node">
<title>Node1268</title>
<g id="a_node37"><a xlink:href="util_8h.html#a1c0f9b041628dcb399a023bc9913f41d" target="_top" xlink:title="CreatePidFile">
<polygon fill="#ffffff" stroke="#000000" points="426.5,-646.5 426.5,-665.5 502.5,-665.5 502.5,-646.5 426.5,-646.5"/>
<text text-anchor="middle" x="464.5" y="-653.5" font-family="Helvetica,sans-Serif" font-size="10.00" fill="#000000">CreatePidFile</text>
</a>
</g>
</g>
<!-- Node1243&#45;&gt;Node1268 -->
<g id="edge39" class="edge">
<title>Node1243&#45;&gt;Node1268</title>
<path fill="none" stroke="#191970" d="M318.3879,-532.5231C329.9645,-543.4069 348.9064,-562.0427 363,-580 381.499,-603.5704 375.0549,-618.9886 399,-637 404.2161,-640.9235 410.2229,-644.0383 416.438,-646.5107"/>
<polygon fill="#191970" stroke="#191970" points="415.6977,-649.9569 426.2924,-649.8911 417.9691,-643.3357 415.6977,-649.9569"/>
</g>
<!-- Node1270 -->
<g id="node39" class="node">
<title>Node1270</title>
<g id="a_node39"><a xlink:href="util_8h.html#a1e755e72104d3ca393efc1cc3f41952a" target="_top" xlink:title="OpenDebugLog">
<polygon fill="#ffffff" stroke="#000000" points="422.5,-684.5 422.5,-703.5 506.5,-703.5 506.5,-684.5 422.5,-684.5"/>
<text text-anchor="middle" x="464.5" y="-691.5" font-family="Helvetica,sans-Serif" font-size="10.00" fill="#000000">OpenDebugLog</text>
</a>
</g>
</g>
<!-- Node1243&#45;&gt;Node1270 -->
<g id="edge41" class="edge">
<title>Node1243&#45;&gt;Node1270</title>
<path fill="none" stroke="#191970" d="M319.977,-532.8007C332.2174,-543.3558 351.0745,-561.1834 363,-580 387.1708,-618.1378 365.8229,-644.3732 399,-675 403.0781,-678.7647 407.8589,-681.7877 412.9482,-684.2145"/>
<polygon fill="#191970" stroke="#191970" points="411.7721,-687.5135 422.3571,-687.9701 414.3672,-681.0123 411.7721,-687.5135"/>
</g>
<!-- Node1271 -->
<g id="node40" class="node">
<title>Node1271</title>
<g id="a_node40"><a xlink:href="util_8h.html#a37fca7e305fe0caa306b23fdb37f88e2" target="_top" xlink:title="ShrinkDebugFile">
<polygon fill="#ffffff" stroke="#000000" points="420,-722.5 420,-741.5 509,-741.5 509,-722.5 420,-722.5"/>
<text text-anchor="middle" x="464.5" y="-729.5" font-family="Helvetica,sans-Serif" font-size="10.00" fill="#000000">ShrinkDebugFile</text>
</a>
</g>
</g>
<!-- Node1243&#45;&gt;Node1271 -->
<g id="edge42" class="edge">
<title>Node1243&#45;&gt;Node1271</title>
<path fill="none" stroke="#191970" d="M320.3552,-532.5738C332.9039,-542.9439 352.0093,-560.6225 363,-580 393.2122,-633.2667 356.0892,-669.3104 399,-713 402.3991,-716.4608 406.3877,-719.3004 410.6902,-721.6292"/>
<polygon fill="#191970" stroke="#191970" points="409.3156,-724.8484 419.874,-725.727 412.168,-718.4559 409.3156,-724.8484"/>
</g>
<!-- Node1272 -->
<g id="node41" class="node">
<title>Node1272</title>
<g id="a_node41"><a xlink:href="util_8h.html#aa803aa631ab8b4bd79fa9d7b2172bf9a" target="_top" xlink:title="runCommand">
<polygon fill="#ffffff" stroke="#000000" points="427,-608.5 427,-627.5 502,-627.5 502,-608.5 427,-608.5"/>
<text text-anchor="middle" x="464.5" y="-615.5" font-family="Helvetica,sans-Serif" font-size="10.00" fill="#000000">runCommand</text>
</a>
</g>
</g>
<!-- Node1243&#45;&gt;Node1272 -->
<g id="edge45" class="edge">
<title>Node1243&#45;&gt;Node1272</title>
<path fill="none" stroke="#191970" d="M316.8635,-532.6461C332.1269,-548.6994 365.0209,-580.9164 399,-599 404.6246,-601.9934 410.7788,-604.5679 416.9913,-606.7673"/>
<polygon fill="#191970" stroke="#191970" points="416.1424,-610.1712 426.7343,-609.9211 418.2982,-603.5115 416.1424,-610.1712"/>
</g>
<!-- Node1246 -->
<g id="node17" class="node">
<title>Node1246</title>
<g id="a_node17"><a xlink:href="namespacetinyformat.html#a86ed74eb3ed66a662e96220d877da964" target="_top" xlink:title="Format list of arguments to the stream according to the given format string. ">
<polygon fill="#ffffff" stroke="#000000" points="585,-551.5 585,-570.5 684,-570.5 684,-551.5 585,-551.5"/>
<text text-anchor="middle" x="634.5" y="-558.5" font-family="Helvetica,sans-Serif" font-size="10.00" fill="#000000">tinyformat::vformat</text>
</a>
</g>
</g>
<!-- Node1245&#45;&gt;Node1246 -->
<g id="edge18" class="edge">
<title>Node1245&#45;&gt;Node1246</title>
<path fill="none" stroke="#191970" d="M511.8545,-547.2926C531.2691,-549.4624 553.9672,-551.9993 574.5222,-554.2966"/>
<polygon fill="#191970" stroke="#191970" points="574.4038,-557.8051 584.7307,-555.4376 575.1814,-550.8484 574.4038,-557.8051"/>
</g>
<!-- Node1253 -->
<g id="node22" class="node">
<title>Node1253</title>
<g id="a_node22"><a xlink:href="namespacetinyformat.html#a37afaa5249c69dacd619269358f06f69" target="_top" xlink:title="Make type&#45;agnostic format list from list of template arguments. ">
<polygon fill="#ffffff" stroke="#000000" points="566,-513.5 566,-532.5 703,-532.5 703,-513.5 566,-513.5"/>
<text text-anchor="middle" x="634.5" y="-520.5" font-family="Helvetica,sans-Serif" font-size="10.00" fill="#000000">tinyformat::makeFormatList</text>
</a>
</g>
</g>
<!-- Node1245&#45;&gt;Node1253 -->
<g id="edge23" class="edge">
<title>Node1245&#45;&gt;Node1253</title>
<path fill="none" stroke="#191970" d="M511.8545,-536.7074C525.4246,-535.1908 540.599,-533.4948 555.5244,-531.8267"/>
<polygon fill="#191970" stroke="#191970" points="556.2454,-535.268 565.7948,-530.6788 555.4679,-528.3113 556.2454,-535.268"/>
</g>
<!-- Node1247 -->
<g id="node18" class="node">
<title>Node1247</title>
<g id="a_node18"><a xlink:href="namespacetinyformat_1_1detail.html#a079a316938c0e8693efbeb0183b1390d" target="_top" xlink:title="tinyformat::detail\l::formatImpl">
<polygon fill="#ffffff" stroke="#000000" points="739,-546 739,-576 828,-576 828,-546 739,-546"/>
<text text-anchor="start" x="747" y="-564" font-family="Helvetica,sans-Serif" font-size="10.00" fill="#000000">tinyformat::detail</text>
<text text-anchor="middle" x="783.5" y="-553" font-family="Helvetica,sans-Serif" font-size="10.00" fill="#000000">::formatImpl</text>
</a>
</g>
</g>
<!-- Node1246&#45;&gt;Node1247 -->
<g id="edge19" class="edge">
<title>Node1246&#45;&gt;Node1247</title>
<path fill="none" stroke="#191970" d="M684.1148,-561C698.2842,-561 713.8105,-561 728.2923,-561"/>
<polygon fill="#191970" stroke="#191970" points="728.6183,-564.5001 738.6183,-561 728.6183,-557.5001 728.6183,-564.5001"/>
</g>
<!-- Node1248 -->
<g id="node19" class="node">
<title>Node1248</title>
<g id="a_node19"><a xlink:href="namespacetinyformat_1_1detail.html#ad3d636b9f85202b515c8940b7fcb62a6" target="_top" xlink:title="tinyformat::detail\l::printFormatStringLiteral">
<polygon fill="#ffffff" stroke="#000000" points="866.5,-595 866.5,-625 990.5,-625 990.5,-595 866.5,-595"/>
<text text-anchor="start" x="874.5" y="-613" font-family="Helvetica,sans-Serif" font-size="10.00" fill="#000000">tinyformat::detail</text>
<text text-anchor="middle" x="928.5" y="-602" font-family="Helvetica,sans-Serif" font-size="10.00" fill="#000000">::printFormatStringLiteral</text>
</a>
</g>
</g>
<!-- Node1247&#45;&gt;Node1248 -->
<g id="edge20" class="edge">
<title>Node1247&#45;&gt;Node1248</title>
<path fill="none" stroke="#191970" d="M828.1879,-576.1014C842.659,-580.9917 858.8725,-586.4707 873.9752,-591.5744"/>
<polygon fill="#191970" stroke="#191970" points="873.1158,-594.9783 883.71,-594.8641 875.3569,-588.3468 873.1158,-594.9783"/>
</g>
<!-- Node1249 -->
<g id="node20" class="node">
<title>Node1249</title>
<g id="a_node20"><a xlink:href="namespacetinyformat_1_1detail.html#a681e8ceb825485cc5e3b057c11e4b1b5" target="_top" xlink:title="tinyformat::detail\l::streamStateFromFormat">
<polygon fill="#ffffff" stroke="#ff0000" points="864,-546 864,-576 993,-576 993,-546 864,-546"/>
<text text-anchor="start" x="872" y="-564" font-family="Helvetica,sans-Serif" font-size="10.00" fill="#000000">tinyformat::detail</text>
<text text-anchor="middle" x="928.5" y="-553" font-family="Helvetica,sans-Serif" font-size="10.00" fill="#000000">::streamStateFromFormat</text>
</a>
</g>
</g>
<!-- Node1247&#45;&gt;Node1249 -->
<g id="edge21" class="edge">
<title>Node1247&#45;&gt;Node1249</title>
<path fill="none" stroke="#191970" d="M828.1879,-561C836.3219,-561 845.0064,-561 853.7346,-561"/>
<polygon fill="#191970" stroke="#191970" points="853.9707,-564.5001 863.9707,-561 853.9706,-557.5001 853.9707,-564.5001"/>
</g>
<!-- Node1252 -->
<g id="node21" class="node">
<title>Node1252</title>
<g id="a_node21"><a xlink:href="classtinyformat_1_1detail_1_1_format_arg.html#acbf435711bbe4a4da7fc81758d7108a9" target="_top" xlink:title="tinyformat::detail\l::FormatArg::format">
<polygon fill="#ffffff" stroke="#000000" points="877.5,-497 877.5,-527 979.5,-527 979.5,-497 877.5,-497"/>
<text text-anchor="start" x="885.5" y="-515" font-family="Helvetica,sans-Serif" font-size="10.00" fill="#000000">tinyformat::detail</text>
<text text-anchor="middle" x="928.5" y="-504" font-family="Helvetica,sans-Serif" font-size="10.00" fill="#000000">::FormatArg::format</text>
</a>
</g>
</g>
<!-- Node1247&#45;&gt;Node1252 -->
<g id="edge22" class="edge">
<title>Node1247&#45;&gt;Node1252</title>
<path fill="none" stroke="#191970" d="M828.1879,-545.8986C842.659,-541.0083 858.8725,-535.5293 873.9752,-530.4256"/>
<polygon fill="#191970" stroke="#191970" points="875.3569,-533.6532 883.71,-527.1359 873.1158,-527.0217 875.3569,-533.6532"/>
</g>
<!-- Node1265 -->
<g id="node34" class="node">
<title>Node1265</title>
<g id="a_node34"><a xlink:href="util_8cpp.html#a7ebe0bd091f7334aaead43904601e008" target="_top" xlink:title="GetDataDir">
<polygon fill="#ffffff" stroke="#000000" points="601.5,-760.5 601.5,-779.5 667.5,-779.5 667.5,-760.5 601.5,-760.5"/>
<text text-anchor="middle" x="634.5" y="-767.5" font-family="Helvetica,sans-Serif" font-size="10.00" fill="#000000">GetDataDir</text>
</a>
</g>
</g>
<!-- Node1264&#45;&gt;Node1265 -->
<g id="edge35" class="edge">
<title>Node1264&#45;&gt;Node1265</title>
<path fill="none" stroke="#191970" d="M503.0756,-770C529.3091,-770 564.0529,-770 591.2285,-770"/>
<polygon fill="#191970" stroke="#191970" points="591.2397,-773.5001 601.2397,-770 591.2397,-766.5001 591.2397,-773.5001"/>
</g>
<!-- Node1266&#45;&gt;Node1265 -->
<g id="edge38" class="edge">
<title>Node1266&#45;&gt;Node1265</title>
<path fill="none" stroke="#191970" d="M495.6806,-801.0302C522.5188,-795.0311 561.5175,-786.3137 591.3508,-779.6451"/>
<polygon fill="#191970" stroke="#191970" points="592.4904,-782.9768 601.486,-777.3796 590.9633,-776.1454 592.4904,-782.9768"/>
</g>
<!-- Node1267 -->
<g id="node36" class="node">
<title>Node1267</title>
<g id="a_node36"><a xlink:href="class_args_manager.html#adb5d644d273b3a259f792affcdca8283" target="_top" xlink:title="Return string argument or default value. ">
<polygon fill="#ffffff" stroke="#000000" points="579,-798.5 579,-817.5 690,-817.5 690,-798.5 579,-798.5"/>
<text text-anchor="middle" x="634.5" y="-805.5" font-family="Helvetica,sans-Serif" font-size="10.00" fill="#000000">ArgsManager::GetArg</text>
</a>
</g>
</g>
<!-- Node1266&#45;&gt;Node1267 -->
<g id="edge37" class="edge">
<title>Node1266&#45;&gt;Node1267</title>
<path fill="none" stroke="#191970" d="M495.6806,-808C516.0684,-808 543.4739,-808 568.548,-808"/>
<polygon fill="#191970" stroke="#191970" points="568.7548,-811.5001 578.7547,-808 568.7547,-804.5001 568.7548,-811.5001"/>
</g>
<!-- Node1269 -->
<g id="node38" class="node">
<title>Node1269</title>
<g id="a_node38"><a xlink:href="namespacefsbridge.html#a19c84cec4ae9accfbc88a83e48f7ee92" target="_top" xlink:title="fsbridge::fopen">
<polygon fill="#ffffff" stroke="#000000" points="594,-684.5 594,-703.5 675,-703.5 675,-684.5 594,-684.5"/>
<text text-anchor="middle" x="634.5" y="-691.5" font-family="Helvetica,sans-Serif" font-size="10.00" fill="#000000">fsbridge::fopen</text>
</a>
</g>
</g>
<!-- Node1268&#45;&gt;Node1269 -->
<g id="edge40" class="edge">
<title>Node1268&#45;&gt;Node1269</title>
<path fill="none" stroke="#191970" d="M502.6513,-664.5279C526.5902,-669.879 557.7388,-676.8416 583.7493,-682.6557"/>
<polygon fill="#191970" stroke="#191970" points="583.2842,-686.1381 593.8069,-684.9039 584.8113,-679.3067 583.2842,-686.1381"/>
</g>
<!-- Node1271&#45;&gt;Node1265 -->
<g id="edge43" class="edge">
<title>Node1271&#45;&gt;Node1265</title>
<path fill="none" stroke="#191970" d="M507.3982,-741.589C533.1013,-747.3344 565.6758,-754.6158 591.4126,-760.3687"/>
<polygon fill="#191970" stroke="#191970" points="590.7455,-763.8059 601.2682,-762.5717 592.2725,-756.9745 590.7455,-763.8059"/>
</g>
<!-- Node1271&#45;&gt;Node1269 -->
<g id="edge44" class="edge">
<title>Node1271&#45;&gt;Node1269</title>
<path fill="none" stroke="#191970" d="M507.3982,-722.411C530.7398,-717.1935 559.7483,-710.7092 584.1564,-705.2533"/>
<polygon fill="#191970" stroke="#191970" points="584.9607,-708.66 593.9563,-703.0627 583.4336,-701.8285 584.9607,-708.66"/>
</g>
<!-- Node1275 -->
<g id="node44" class="node">
<title>Node1275</title>
<g id="a_node44"><a xlink:href="class_uni_value.html#a4c9a5fa9114affbf31f6e346c032be12" target="_top" xlink:title="UniValue::getValStr">
<polygon fill="#ffffff" stroke="#000000" points="256.5,-475.5 256.5,-494.5 359.5,-494.5 359.5,-475.5 256.5,-475.5"/>
<text text-anchor="middle" x="308" y="-482.5" font-family="Helvetica,sans-Serif" font-size="10.00" fill="#000000">UniValue::getValStr</text>
</a>
</g>
</g>
<!-- Node1274&#45;&gt;Node1275 -->
<g id="edge48" class="edge">
<title>Node1274&#45;&gt;Node1275</title>
<path fill="none" stroke="#191970" d="M202.0175,-498.2478C215.9324,-496.5084 231.4444,-494.5695 246.2137,-492.7233"/>
<polygon fill="#191970" stroke="#191970" points="246.8025,-496.177 256.2912,-491.4636 245.9342,-489.2311 246.8025,-496.177"/>
</g>
<!-- Node1277 -->
<g id="node46" class="node">
<title>Node1277</title>
<g id="a_node46"><a xlink:href="class_uni_value.html#acb5c848d20cb741dbe65e28bc513baa8" target="_top" xlink:title="UniValue::getBool">
<polygon fill="#ffffff" stroke="#000000" points="260.5,-76.5 260.5,-95.5 355.5,-95.5 355.5,-76.5 260.5,-76.5"/>
<text text-anchor="middle" x="308" y="-83.5" font-family="Helvetica,sans-Serif" font-size="10.00" fill="#000000">UniValue::getBool</text>
</a>
</g>
</g>
<!-- Node1276&#45;&gt;Node1277 -->
<g id="edge50" class="edge">
<title>Node1276&#45;&gt;Node1277</title>
<path fill="none" stroke="#191970" d="M162.9261,-285.4766C186.5169,-253.0393 263.9863,-146.5188 294.997,-103.8791"/>
<polygon fill="#191970" stroke="#191970" points="297.982,-105.7253 301.0332,-95.5793 292.3209,-101.6081 297.982,-105.7253"/>
</g>
<!-- Node1278 -->
<g id="node47" class="node">
<title>Node1278</title>
<g id="a_node47"><a xlink:href="class_uni_value.html#a1491167609f899d0c7773749b5047969" target="_top" xlink:title="UniValue::isTrue">
<polygon fill="#ffffff" stroke="#000000" points="420,-114.5 420,-133.5 509,-133.5 509,-114.5 420,-114.5"/>
<text text-anchor="middle" x="464.5" y="-121.5" font-family="Helvetica,sans-Serif" font-size="10.00" fill="#000000">UniValue::isTrue</text>
</a>
</g>
</g>
<!-- Node1277&#45;&gt;Node1278 -->
<g id="edge51" class="edge">
<title>Node1277&#45;&gt;Node1278</title>
<path fill="none" stroke="#191970" d="M347.4916,-95.589C368.1434,-100.6035 393.614,-106.7881 415.5125,-112.1053"/>
<polygon fill="#191970" stroke="#191970" points="414.7489,-115.5215 425.2924,-114.4799 416.4007,-108.7191 414.7489,-115.5215"/>
</g>
<!-- Node1279 -->
<g id="node48" class="node">
<title>Node1279</title>
<g id="a_node48"><a xlink:href="class_uni_value.html#ad89a12ad112b2d9a55ec1b27a6b77046" target="_top" xlink:title="UniValue::getObjMap">
<polygon fill="#ffffff" stroke="#000000" points="409.5,-76.5 409.5,-95.5 519.5,-95.5 519.5,-76.5 409.5,-76.5"/>
<text text-anchor="middle" x="464.5" y="-83.5" font-family="Helvetica,sans-Serif" font-size="10.00" fill="#000000">UniValue::getObjMap</text>
</a>
</g>
</g>
<!-- Node1277&#45;&gt;Node1279 -->
<g id="edge52" class="edge">
<title>Node1277&#45;&gt;Node1279</title>
<path fill="none" stroke="#191970" d="M355.8055,-86C369.4042,-86 384.4563,-86 398.9156,-86"/>
<polygon fill="#191970" stroke="#191970" points="399.3102,-89.5001 409.3102,-86 399.3102,-82.5001 399.3102,-89.5001"/>
</g>
<!-- Node1280 -->
<g id="node49" class="node">
<title>Node1280</title>
<g id="a_node49"><a xlink:href="class_uni_value.html#a0cb48f1dc383f4c12f71ada714ea3f68" target="_top" xlink:title="UniValue::checkObject">
<polygon fill="#ffffff" stroke="#000000" points="406,-38.5 406,-57.5 523,-57.5 523,-38.5 406,-38.5"/>
<text text-anchor="middle" x="464.5" y="-45.5" font-family="Helvetica,sans-Serif" font-size="10.00" fill="#000000">UniValue::checkObject</text>
</a>
</g>
</g>
<!-- Node1277&#45;&gt;Node1280 -->
<g id="edge53" class="edge">
<title>Node1277&#45;&gt;Node1280</title>
<path fill="none" stroke="#191970" d="M347.4916,-76.411C368.1434,-71.3965 393.614,-65.2119 415.5125,-59.8947"/>
<polygon fill="#191970" stroke="#191970" points="416.4007,-63.2809 425.2924,-57.5201 414.7489,-56.4785 416.4007,-63.2809"/>
</g>
<!-- Node1281 -->
<g id="node50" class="node">
<title>Node1281</title>
<g id="a_node50"><a xlink:href="class_uni_value.html#a998b72bd7f758e01416e1b53eaa6d94c" target="_top" xlink:title="UniValue::operator[]">
<polygon fill="#ffffff" stroke="#000000" points="412.5,-.5 412.5,-19.5 516.5,-19.5 516.5,-.5 412.5,-.5"/>
<text text-anchor="middle" x="464.5" y="-7.5" font-family="Helvetica,sans-Serif" font-size="10.00" fill="#000000">UniValue::operator[]</text>
</a>
</g>
</g>
<!-- Node1277&#45;&gt;Node1281 -->
<g id="edge54" class="edge">
<title>Node1277&#45;&gt;Node1281</title>
<path fill="none" stroke="#191970" d="M320.623,-76.4956C337.6334,-64.0722 369.2246,-42.3311 399,-29 404.1331,-26.7018 409.6164,-24.6023 415.1432,-22.7069"/>
<polygon fill="#191970" stroke="#191970" points="416.622,-25.9081 425.072,-19.5168 414.4807,-19.2436 416.622,-25.9081"/>
</g>
</g>
</svg>
