<?xml version="1.0" encoding="UTF-8" standalone="no"?>
<!DOCTYPE svg PUBLIC "-//W3C//DTD SVG 1.1//EN"
 "http://www.w3.org/Graphics/SVG/1.1/DTD/svg11.dtd">
<!-- Generated by graphviz version 2.40.1 (20161225.0304)
 -->
<!-- Title: setnetworkactive Pages: 1 -->
<svg width="1152pt" height="826pt"
 viewBox="0.00 0.00 1152.00 826.00" xmlns="http://www.w3.org/2000/svg" xmlns:xlink="http://www.w3.org/1999/xlink">
<g id="graph0" class="graph" transform="scale(1 1) rotate(0) translate(4 822)">
<title>setnetworkactive</title>
<polygon fill="#ffffff" stroke="transparent" points="-4,4 -4,-822 1148,-822 1148,4 -4,4"/>
<!-- Node405 -->
<g id="node1" class="node">
<title>Node405</title>
<polygon fill="#bfbfbf" stroke="#000000" points="0,-342.5 0,-361.5 91,-361.5 91,-342.5 0,-342.5"/>
<text text-anchor="middle" x="45.5" y="-349.5" font-family="Helvetica,sans-Serif" font-size="10.00" fill="#000000">setnetworkactive</text>
</g>
<!-- Node406 -->
<g id="node2" class="node">
<title>Node406</title>
<g id="a_node2"><a xlink:href="class_uni_value.html#a5a7394aeb8d5584db7a90c2c041726b1" target="_top" xlink:title="UniValue::size">
<polygon fill="#ffffff" stroke="#000000" points="136.5,-380.5 136.5,-399.5 216.5,-399.5 216.5,-380.5 136.5,-380.5"/>
<text text-anchor="middle" x="176.5" y="-387.5" font-family="Helvetica,sans-Serif" font-size="10.00" fill="#000000">UniValue::size</text>
</a>
</g>
</g>
<!-- Node405&#45;&gt;Node406 -->
<g id="edge1" class="edge">
<title>Node405&#45;&gt;Node406</title>
<path fill="none" stroke="#191970" d="M78.5568,-361.589C95.3125,-366.4494 115.8577,-372.4091 133.7965,-377.6127"/>
<polygon fill="#191970" stroke="#191970" points="132.8745,-380.9895 143.4537,-380.4141 134.8247,-374.2666 132.8745,-380.9895"/>
</g>
<!-- Node407 -->
<g id="node3" class="node">
<title>Node407</title>
<g id="a_node3"><a xlink:href="rpc_2protocol_8cpp.html#a40b75d3d265c4a2e1d5fe3e129743884" target="_top" xlink:title="JSONRPCError">
<polygon fill="#ffffff" stroke="#000000" points="133.5,-342.5 133.5,-361.5 219.5,-361.5 219.5,-342.5 133.5,-342.5"/>
<text text-anchor="middle" x="176.5" y="-349.5" font-family="Helvetica,sans-Serif" font-size="10.00" fill="#000000">JSONRPCError</text>
</a>
</g>
</g>
<!-- Node405&#45;&gt;Node407 -->
<g id="edge2" class="edge">
<title>Node405&#45;&gt;Node407</title>
<path fill="none" stroke="#191970" d="M91.3174,-352C101.4994,-352 112.3809,-352 122.8452,-352"/>
<polygon fill="#191970" stroke="#191970" points="123.1291,-355.5001 133.129,-352 123.129,-348.5001 123.1291,-355.5001"/>
</g>
<!-- Node439 -->
<g id="node35" class="node">
<title>Node439</title>
<g id="a_node35"><a xlink:href="class_uni_value.html#ae8a27d40aa1b1322ea95ff4fb2dec2b1" target="_top" xlink:title="UniValue::get_bool">
<polygon fill="#ffffff" stroke="#000000" points="127,-152.5 127,-171.5 226,-171.5 226,-152.5 127,-152.5"/>
<text text-anchor="middle" x="176.5" y="-159.5" font-family="Helvetica,sans-Serif" font-size="10.00" fill="#000000">UniValue::get_bool</text>
</a>
</g>
</g>
<!-- Node405&#45;&gt;Node439 -->
<g id="edge37" class="edge">
<title>Node405&#45;&gt;Node439</title>
<path fill="none" stroke="#191970" d="M52.1764,-342.3167C72.9323,-312.2127 136.5689,-219.9153 163.8583,-180.3353"/>
<polygon fill="#191970" stroke="#191970" points="166.8851,-182.1113 169.6799,-171.8917 161.1221,-178.1378 166.8851,-182.1113"/>
</g>
<!-- Node408 -->
<g id="node4" class="node">
<title>Node408</title>
<g id="a_node4"><a xlink:href="util_8h.html#a96c5fc7111f69f7dcaba992d95d13e03" target="_top" xlink:title="error">
<polygon fill="#ffffff" stroke="#000000" points="299,-456.5 299,-475.5 335,-475.5 335,-456.5 299,-456.5"/>
<text text-anchor="middle" x="317" y="-463.5" font-family="Helvetica,sans-Serif" font-size="10.00" fill="#000000">error</text>
</a>
</g>
</g>
<!-- Node407&#45;&gt;Node408 -->
<g id="edge3" class="edge">
<title>Node407&#45;&gt;Node408</title>
<path fill="none" stroke="#191970" d="M207.6417,-361.5432C213.9744,-364.1364 220.404,-367.2799 226,-371 258.2859,-392.4631 287.7663,-427.2323 303.9662,-448.2245"/>
<polygon fill="#191970" stroke="#191970" points="301.2451,-450.429 310.0654,-456.2987 306.8306,-446.2098 301.2451,-450.429"/>
</g>
<!-- Node438 -->
<g id="node34" class="node">
<title>Node438</title>
<g id="a_node34"><a xlink:href="class_uni_value.html#a944cd1b59b040cd24c9f46b55a68d49a" target="_top" xlink:title="UniValue::push_back">
<polygon fill="#ffffff" stroke="#000000" points="262,-342.5 262,-361.5 372,-361.5 372,-342.5 262,-342.5"/>
<text text-anchor="middle" x="317" y="-349.5" font-family="Helvetica,sans-Serif" font-size="10.00" fill="#000000">UniValue::push_back</text>
</a>
</g>
</g>
<!-- Node407&#45;&gt;Node438 -->
<g id="edge36" class="edge">
<title>Node407&#45;&gt;Node438</title>
<path fill="none" stroke="#191970" d="M219.8011,-352C229.8829,-352 240.8375,-352 251.6374,-352"/>
<polygon fill="#191970" stroke="#191970" points="251.911,-355.5001 261.9109,-352 251.9109,-348.5001 251.911,-355.5001"/>
</g>
<!-- Node409 -->
<g id="node5" class="node">
<title>Node409</title>
<g id="a_node5"><a xlink:href="util_8h.html#afd4c3002b2797c0560adddb6af3ca1da" target="_top" xlink:title="Send a string to the log output. ">
<polygon fill="#ffffff" stroke="#000000" points="437.5,-494.5 437.5,-513.5 502.5,-513.5 502.5,-494.5 437.5,-494.5"/>
<text text-anchor="middle" x="470" y="-501.5" font-family="Helvetica,sans-Serif" font-size="10.00" fill="#000000">LogPrintStr</text>
</a>
</g>
</g>
<!-- Node408&#45;&gt;Node409 -->
<g id="edge4" class="edge">
<title>Node408&#45;&gt;Node409</title>
<path fill="none" stroke="#191970" d="M335.1519,-470.5083C357.7672,-476.1252 397.1321,-485.9021 427.5117,-493.4473"/>
<polygon fill="#191970" stroke="#191970" points="426.8839,-496.8977 437.4327,-495.9114 428.5712,-490.1041 426.8839,-496.8977"/>
</g>
<!-- Node410 -->
<g id="node6" class="node">
<title>Node410</title>
<g id="a_node6"><a xlink:href="namespacetinyformat.html#a05144619d8b16e2b31b2594ca9c6bf1d" target="_top" xlink:title="Format list of arguments to the stream according to given format string. ">
<polygon fill="#ffffff" stroke="#000000" points="423,-456.5 423,-475.5 517,-475.5 517,-456.5 423,-456.5"/>
<text text-anchor="middle" x="470" y="-463.5" font-family="Helvetica,sans-Serif" font-size="10.00" fill="#000000">tinyformat::format</text>
</a>
</g>
</g>
<!-- Node408&#45;&gt;Node410 -->
<g id="edge5" class="edge">
<title>Node408&#45;&gt;Node410</title>
<path fill="none" stroke="#191970" d="M335.1519,-466C354.1733,-466 385.0438,-466 412.451,-466"/>
<polygon fill="#191970" stroke="#191970" points="412.7536,-469.5001 422.7535,-466 412.7535,-462.5001 412.7536,-469.5001"/>
</g>
<!-- Node419 -->
<g id="node15" class="node">
<title>Node419</title>
<g id="a_node15"><a xlink:href="util_8h.html#aaada8c5faa502eb0c33fc01294955db8" target="_top" xlink:title="PrintExceptionContinue">
<polygon fill="#ffffff" stroke="#000000" points="410.5,-418.5 410.5,-437.5 529.5,-437.5 529.5,-418.5 410.5,-418.5"/>
<text text-anchor="middle" x="470" y="-425.5" font-family="Helvetica,sans-Serif" font-size="10.00" fill="#000000">PrintExceptionContinue</text>
</a>
</g>
</g>
<!-- Node408&#45;&gt;Node419 -->
<g id="edge14" class="edge">
<title>Node408&#45;&gt;Node419</title>
<path fill="none" stroke="#191970" d="M335.1519,-461.4917C356.416,-456.2104 392.4879,-447.2514 421.9755,-439.9276"/>
<polygon fill="#191970" stroke="#191970" points="422.8309,-443.3216 431.6924,-437.5143 421.1436,-436.528 422.8309,-443.3216"/>
</g>
<!-- Node420 -->
<g id="node16" class="node">
<title>Node420</title>
<g id="a_node16"><a xlink:href="util_8h.html#af0e69a29ba128b74030ad8a213f2037a" target="_top" xlink:title="FileCommit">
<polygon fill="#ffffff" stroke="#000000" points="436.5,-380.5 436.5,-399.5 503.5,-399.5 503.5,-380.5 436.5,-380.5"/>
<text text-anchor="middle" x="470" y="-387.5" font-family="Helvetica,sans-Serif" font-size="10.00" fill="#000000">FileCommit</text>
</a>
</g>
</g>
<!-- Node408&#45;&gt;Node420 -->
<g id="edge15" class="edge">
<title>Node408&#45;&gt;Node420</title>
<path fill="none" stroke="#191970" d="M329.947,-456.3501C347.0588,-443.9664 378.4953,-422.4771 408,-409 413.8465,-406.3294 420.1691,-403.905 426.4645,-401.7498"/>
<polygon fill="#191970" stroke="#191970" points="427.8208,-404.9899 436.2627,-398.5879 425.671,-398.3282 427.8208,-404.9899"/>
</g>
<!-- Node421 -->
<g id="node17" class="node">
<title>Node421</title>
<g id="a_node17"><a xlink:href="util_8h.html#acb8d6b822bc1bfa609bf43bbac1a0d44" target="_top" xlink:title="TruncateFile">
<polygon fill="#ffffff" stroke="#000000" points="434.5,-342.5 434.5,-361.5 505.5,-361.5 505.5,-342.5 434.5,-342.5"/>
<text text-anchor="middle" x="470" y="-349.5" font-family="Helvetica,sans-Serif" font-size="10.00" fill="#000000">TruncateFile</text>
</a>
</g>
</g>
<!-- Node408&#45;&gt;Node421 -->
<g id="edge16" class="edge">
<title>Node408&#45;&gt;Node421</title>
<path fill="none" stroke="#191970" d="M323.5793,-456.3677C337.13,-437.2526 370.0818,-394.3593 408,-371 413.0966,-367.8603 418.7507,-365.2051 424.511,-362.9687"/>
<polygon fill="#191970" stroke="#191970" points="425.9309,-366.1806 434.2254,-359.5888 423.6306,-359.5693 425.9309,-366.1806"/>
</g>
<!-- Node422 -->
<g id="node18" class="node">
<title>Node422</title>
<g id="a_node18"><a xlink:href="util_8h.html#a756a5c49a4bb607d16d9842f8f3ede4f" target="_top" xlink:title="this function tries to raise the file descriptor limit to the requested number. ">
<polygon fill="#ffffff" stroke="#000000" points="408,-304.5 408,-323.5 532,-323.5 532,-304.5 408,-304.5"/>
<text text-anchor="middle" x="470" y="-311.5" font-family="Helvetica,sans-Serif" font-size="10.00" fill="#000000">RaiseFileDescriptorLimit</text>
</a>
</g>
</g>
<!-- Node408&#45;&gt;Node422 -->
<g id="edge17" class="edge">
<title>Node408&#45;&gt;Node422</title>
<path fill="none" stroke="#191970" d="M322.4662,-456.3462C338.2597,-428.7517 384.3332,-350.4032 408,-333 410.6302,-331.0659 413.4602,-329.3261 416.4108,-327.7615"/>
<polygon fill="#191970" stroke="#191970" points="417.914,-330.9228 425.546,-323.574 414.997,-324.5595 417.914,-330.9228"/>
</g>
<!-- Node423 -->
<g id="node19" class="node">
<title>Node423</title>
<g id="a_node19"><a xlink:href="util_8h.html#a91c763bffc49cf7ed8d45cc44870e55c" target="_top" xlink:title="this function tries to make a particular range of a file allocated (corresponding to disk space) it i...">
<polygon fill="#ffffff" stroke="#000000" points="422,-266.5 422,-285.5 518,-285.5 518,-266.5 422,-266.5"/>
<text text-anchor="middle" x="470" y="-273.5" font-family="Helvetica,sans-Serif" font-size="10.00" fill="#000000">AllocateFileRange</text>
</a>
</g>
</g>
<!-- Node408&#45;&gt;Node423 -->
<g id="edge18" class="edge">
<title>Node408&#45;&gt;Node423</title>
<path fill="none" stroke="#191970" d="M322.8886,-456.4374C333.2556,-439.4725 355.2527,-402.8889 372,-371 389.378,-337.9101 379.7264,-319.4446 408,-295 409.9747,-293.2927 412.1004,-291.7388 414.3334,-290.3245"/>
<polygon fill="#191970" stroke="#191970" points="416.1857,-293.3042 423.3865,-285.5326 412.9109,-287.1175 416.1857,-293.3042"/>
</g>
<!-- Node424 -->
<g id="node20" class="node">
<title>Node424</title>
<g id="a_node20"><a xlink:href="util_8h.html#a579657da2b55b131ecd453bf1b0d2314" target="_top" xlink:title="RenameOver">
<polygon fill="#ffffff" stroke="#000000" points="433,-228.5 433,-247.5 507,-247.5 507,-228.5 433,-228.5"/>
<text text-anchor="middle" x="470" y="-235.5" font-family="Helvetica,sans-Serif" font-size="10.00" fill="#000000">RenameOver</text>
</a>
</g>
</g>
<!-- Node408&#45;&gt;Node424 -->
<g id="edge19" class="edge">
<title>Node408&#45;&gt;Node424</title>
<path fill="none" stroke="#191970" d="M323.5202,-456.3913C334.658,-439.6498 357.5432,-403.7824 372,-371 393.4391,-322.3844 370.2697,-294.4104 408,-257 412.302,-252.7345 417.5349,-249.4227 423.1173,-246.8521"/>
<polygon fill="#191970" stroke="#191970" points="424.6394,-250.0178 432.7394,-243.1884 422.1485,-243.476 424.6394,-250.0178"/>
</g>
<!-- Node425 -->
<g id="node21" class="node">
<title>Node425</title>
<g id="a_node21"><a xlink:href="util_8h.html#a9042a919d837da9d97311a0c460c597c" target="_top" xlink:title="Ignores exceptions thrown by Boost&#39;s create_directories if the requested directory exists...">
<polygon fill="#ffffff" stroke="#000000" points="416.5,-190.5 416.5,-209.5 523.5,-209.5 523.5,-190.5 416.5,-190.5"/>
<text text-anchor="middle" x="470" y="-197.5" font-family="Helvetica,sans-Serif" font-size="10.00" fill="#000000">TryCreateDirectories</text>
</a>
</g>
</g>
<!-- Node408&#45;&gt;Node425 -->
<g id="edge20" class="edge">
<title>Node408&#45;&gt;Node425</title>
<path fill="none" stroke="#191970" d="M323.7766,-456.4988C335.3015,-439.9196 358.7545,-404.2902 372,-371 397.6656,-306.4939 360.5257,-269.6552 408,-219 409.2438,-217.6729 410.5775,-216.4376 411.9849,-215.2878"/>
<polygon fill="#191970" stroke="#191970" points="414.2633,-217.9811 420.7371,-209.5941 410.4461,-212.1134 414.2633,-217.9811"/>
</g>
<!-- Node426 -->
<g id="node22" class="node">
<title>Node426</title>
<g id="a_node22"><a xlink:href="util_8h.html#a15cb85964fe08c264605537f44570d3c" target="_top" xlink:title="GetDefaultDataDir">
<polygon fill="#ffffff" stroke="#000000" points="421,-152.5 421,-171.5 519,-171.5 519,-152.5 421,-152.5"/>
<text text-anchor="middle" x="470" y="-159.5" font-family="Helvetica,sans-Serif" font-size="10.00" fill="#000000">GetDefaultDataDir</text>
</a>
</g>
</g>
<!-- Node408&#45;&gt;Node426 -->
<g id="edge21" class="edge">
<title>Node408&#45;&gt;Node426</title>
<path fill="none" stroke="#191970" d="M324.1257,-456.2958C335.9568,-439.6969 359.5784,-404.4031 372,-371 401.9569,-290.4429 350.6627,-245.0258 408,-181 409.3519,-179.4904 410.8202,-178.0992 412.3818,-176.8171"/>
<polygon fill="#191970" stroke="#191970" points="414.4061,-179.6754 420.8613,-171.2741 410.576,-173.8162 414.4061,-179.6754"/>
</g>
<!-- Node427 -->
<g id="node23" class="node">
<title>Node427</title>
<g id="a_node23"><a xlink:href="util_8h.html#abb63dfb710832aefb746933af05198d4" target="_top" xlink:title="GetDataDir">
<polygon fill="#ffffff" stroke="#000000" points="437,-798.5 437,-817.5 503,-817.5 503,-798.5 437,-798.5"/>
<text text-anchor="middle" x="470" y="-805.5" font-family="Helvetica,sans-Serif" font-size="10.00" fill="#000000">GetDataDir</text>
</a>
</g>
</g>
<!-- Node408&#45;&gt;Node427 -->
<g id="edge22" class="edge">
<title>Node408&#45;&gt;Node427</title>
<path fill="none" stroke="#191970" d="M318.4593,-475.6753C325.9772,-524.3215 361.7778,-741.7142 408,-789 413.248,-794.3688 419.9691,-798.2297 427.0396,-801.0042"/>
<polygon fill="#191970" stroke="#191970" points="426.2007,-804.4112 436.7924,-804.1536 428.3519,-797.7499 426.2007,-804.4112"/>
</g>
<!-- Node428 -->
<g id="node24" class="node">
<title>Node428</title>
<g id="a_node24"><a xlink:href="util_8h.html#abfb50dfe077aced7591f2aba601f605d" target="_top" xlink:title="ClearDatadirCache">
<polygon fill="#ffffff" stroke="#000000" points="420,-760.5 420,-779.5 520,-779.5 520,-760.5 420,-760.5"/>
<text text-anchor="middle" x="470" y="-767.5" font-family="Helvetica,sans-Serif" font-size="10.00" fill="#000000">ClearDatadirCache</text>
</a>
</g>
</g>
<!-- Node408&#45;&gt;Node428 -->
<g id="edge23" class="edge">
<title>Node408&#45;&gt;Node428</title>
<path fill="none" stroke="#191970" d="M318.8518,-475.7184C327.6395,-520.8963 366.4408,-709.9243 408,-751 409.4713,-752.4542 411.0508,-753.7975 412.7154,-755.0384"/>
<polygon fill="#191970" stroke="#191970" points="411.271,-758.2547 421.6405,-760.428 414.8895,-752.2625 411.271,-758.2547"/>
</g>
<!-- Node429 -->
<g id="node25" class="node">
<title>Node429</title>
<g id="a_node25"><a xlink:href="util_8h.html#aa634f312705d4811dfa2a5392bddf6cf" target="_top" xlink:title="GetConfigFile">
<polygon fill="#ffffff" stroke="#000000" points="431.5,-684.5 431.5,-703.5 508.5,-703.5 508.5,-684.5 431.5,-684.5"/>
<text text-anchor="middle" x="470" y="-691.5" font-family="Helvetica,sans-Serif" font-size="10.00" fill="#000000">GetConfigFile</text>
</a>
</g>
</g>
<!-- Node408&#45;&gt;Node429 -->
<g id="edge24" class="edge">
<title>Node408&#45;&gt;Node429</title>
<path fill="none" stroke="#191970" d="M318.3001,-475.5437C323.2877,-508.4206 344.2301,-618.0741 408,-675 412.0943,-678.6549 416.8775,-681.6067 421.9389,-683.9908"/>
<polygon fill="#191970" stroke="#191970" points="420.6754,-687.2549 431.261,-687.6982 423.2623,-680.7504 420.6754,-687.2549"/>
</g>
<!-- Node431 -->
<g id="node27" class="node">
<title>Node431</title>
<g id="a_node27"><a xlink:href="util_8h.html#aa0172eabeecce5061826cb19990fbde2" target="_top" xlink:title="GetPidFile">
<polygon fill="#ffffff" stroke="#000000" points="439,-722.5 439,-741.5 501,-741.5 501,-722.5 439,-722.5"/>
<text text-anchor="middle" x="470" y="-729.5" font-family="Helvetica,sans-Serif" font-size="10.00" fill="#000000">GetPidFile</text>
</a>
</g>
</g>
<!-- Node408&#45;&gt;Node431 -->
<g id="edge26" class="edge">
<title>Node408&#45;&gt;Node431</title>
<path fill="none" stroke="#191970" d="M317.5967,-475.6776C320.3862,-512.359 335.2905,-644.2266 408,-713 413.8658,-718.5483 421.311,-722.479 428.9904,-725.2631"/>
<polygon fill="#191970" stroke="#191970" points="428.1564,-728.6674 438.7414,-728.2119 430.1826,-721.9671 428.1564,-728.6674"/>
</g>
<!-- Node433 -->
<g id="node29" class="node">
<title>Node433</title>
<g id="a_node29"><a xlink:href="util_8h.html#a1c0f9b041628dcb399a023bc9913f41d" target="_top" xlink:title="CreatePidFile">
<polygon fill="#ffffff" stroke="#000000" points="432,-608.5 432,-627.5 508,-627.5 508,-608.5 432,-608.5"/>
<text text-anchor="middle" x="470" y="-615.5" font-family="Helvetica,sans-Serif" font-size="10.00" fill="#000000">CreatePidFile</text>
</a>
</g>
</g>
<!-- Node408&#45;&gt;Node433 -->
<g id="edge29" class="edge">
<title>Node408&#45;&gt;Node433</title>
<path fill="none" stroke="#191970" d="M320.8943,-475.6869C331.2358,-500.1757 361.7934,-565.0222 408,-599 412.2557,-602.1294 417.0343,-604.75 422.001,-606.943"/>
<polygon fill="#191970" stroke="#191970" points="421.1059,-610.348 431.6963,-610.655 423.6088,-603.8108 421.1059,-610.348"/>
</g>
<!-- Node435 -->
<g id="node31" class="node">
<title>Node435</title>
<g id="a_node31"><a xlink:href="util_8h.html#a1e755e72104d3ca393efc1cc3f41952a" target="_top" xlink:title="OpenDebugLog">
<polygon fill="#ffffff" stroke="#000000" points="428,-570.5 428,-589.5 512,-589.5 512,-570.5 428,-570.5"/>
<text text-anchor="middle" x="470" y="-577.5" font-family="Helvetica,sans-Serif" font-size="10.00" fill="#000000">OpenDebugLog</text>
</a>
</g>
</g>
<!-- Node408&#45;&gt;Node435 -->
<g id="edge31" class="edge">
<title>Node408&#45;&gt;Node435</title>
<path fill="none" stroke="#191970" d="M323.5793,-475.6323C337.13,-494.7474 370.0818,-537.6407 408,-561 411.4072,-563.099 415.0636,-564.9814 418.8343,-566.6669"/>
<polygon fill="#191970" stroke="#191970" points="417.7805,-570.0145 428.3658,-570.4623 420.3701,-563.5111 417.7805,-570.0145"/>
</g>
<!-- Node436 -->
<g id="node32" class="node">
<title>Node436</title>
<g id="a_node32"><a xlink:href="util_8h.html#a37fca7e305fe0caa306b23fdb37f88e2" target="_top" xlink:title="ShrinkDebugFile">
<polygon fill="#ffffff" stroke="#000000" points="425.5,-646.5 425.5,-665.5 514.5,-665.5 514.5,-646.5 425.5,-646.5"/>
<text text-anchor="middle" x="470" y="-653.5" font-family="Helvetica,sans-Serif" font-size="10.00" fill="#000000">ShrinkDebugFile</text>
</a>
</g>
</g>
<!-- Node408&#45;&gt;Node436 -->
<g id="edge32" class="edge">
<title>Node408&#45;&gt;Node436</title>
<path fill="none" stroke="#191970" d="M319.3721,-475.809C326.9336,-504.9627 353.2537,-591.8566 408,-637 410.5623,-639.1129 413.3574,-640.9911 416.2976,-642.6607"/>
<polygon fill="#191970" stroke="#191970" points="414.9367,-645.8899 425.4657,-647.0696 417.9705,-639.5814 414.9367,-645.8899"/>
</g>
<!-- Node437 -->
<g id="node33" class="node">
<title>Node437</title>
<g id="a_node33"><a xlink:href="util_8h.html#aa803aa631ab8b4bd79fa9d7b2172bf9a" target="_top" xlink:title="runCommand">
<polygon fill="#ffffff" stroke="#000000" points="432.5,-532.5 432.5,-551.5 507.5,-551.5 507.5,-532.5 432.5,-532.5"/>
<text text-anchor="middle" x="470" y="-539.5" font-family="Helvetica,sans-Serif" font-size="10.00" fill="#000000">runCommand</text>
</a>
</g>
</g>
<!-- Node408&#45;&gt;Node437 -->
<g id="edge35" class="edge">
<title>Node408&#45;&gt;Node437</title>
<path fill="none" stroke="#191970" d="M329.947,-475.6499C347.0588,-488.0336 378.4953,-509.5229 408,-523 412.9281,-525.2511 418.1944,-527.3272 423.4977,-529.2147"/>
<polygon fill="#191970" stroke="#191970" points="422.4243,-532.5462 433.0182,-532.4054 424.6487,-525.9091 422.4243,-532.5462"/>
</g>
<!-- Node411 -->
<g id="node7" class="node">
<title>Node411</title>
<g id="a_node7"><a xlink:href="namespacetinyformat.html#a86ed74eb3ed66a662e96220d877da964" target="_top" xlink:title="Format list of arguments to the stream according to the given format string. ">
<polygon fill="#ffffff" stroke="#000000" points="587,-437.5 587,-456.5 686,-456.5 686,-437.5 587,-437.5"/>
<text text-anchor="middle" x="636.5" y="-444.5" font-family="Helvetica,sans-Serif" font-size="10.00" fill="#000000">tinyformat::vformat</text>
</a>
</g>
</g>
<!-- Node410&#45;&gt;Node411 -->
<g id="edge6" class="edge">
<title>Node410&#45;&gt;Node411</title>
<path fill="none" stroke="#191970" d="M517.2669,-460.6062C535.7697,-458.4948 557.209,-456.0482 576.7631,-453.8168"/>
<polygon fill="#191970" stroke="#191970" points="577.2525,-457.2838 586.7912,-452.6725 576.4588,-450.3289 577.2525,-457.2838"/>
</g>
<!-- Node418 -->
<g id="node14" class="node">
<title>Node418</title>
<g id="a_node14"><a xlink:href="namespacetinyformat.html#a37afaa5249c69dacd619269358f06f69" target="_top" xlink:title="Make type&#45;agnostic format list from list of template arguments. ">
<polygon fill="#ffffff" stroke="#000000" points="568,-475.5 568,-494.5 705,-494.5 705,-475.5 568,-475.5"/>
<text text-anchor="middle" x="636.5" y="-482.5" font-family="Helvetica,sans-Serif" font-size="10.00" fill="#000000">tinyformat::makeFormatList</text>
</a>
</g>
</g>
<!-- Node410&#45;&gt;Node418 -->
<g id="edge13" class="edge">
<title>Node410&#45;&gt;Node418</title>
<path fill="none" stroke="#191970" d="M517.2669,-471.3938C529.9546,-472.8417 544.0231,-474.4471 557.9177,-476.0327"/>
<polygon fill="#191970" stroke="#191970" points="557.6498,-479.5247 567.9822,-477.1811 558.4435,-472.5698 557.6498,-479.5247"/>
</g>
<!-- Node412 -->
<g id="node8" class="node">
<title>Node412</title>
<g id="a_node8"><a xlink:href="namespacetinyformat_1_1detail.html#a079a316938c0e8693efbeb0183b1390d" target="_top" xlink:title="tinyformat::detail\l::formatImpl">
<polygon fill="#ffffff" stroke="#000000" points="741,-432 741,-462 830,-462 830,-432 741,-432"/>
<text text-anchor="start" x="749" y="-450" font-family="Helvetica,sans-Serif" font-size="10.00" fill="#000000">tinyformat::detail</text>
<text text-anchor="middle" x="785.5" y="-439" font-family="Helvetica,sans-Serif" font-size="10.00" fill="#000000">::formatImpl</text>
</a>
</g>
</g>
<!-- Node411&#45;&gt;Node412 -->
<g id="edge7" class="edge">
<title>Node411&#45;&gt;Node412</title>
<path fill="none" stroke="#191970" d="M686.1148,-447C700.2842,-447 715.8105,-447 730.2923,-447"/>
<polygon fill="#191970" stroke="#191970" points="730.6183,-450.5001 740.6183,-447 730.6183,-443.5001 730.6183,-450.5001"/>
</g>
<!-- Node413 -->
<g id="node9" class="node">
<title>Node413</title>
<g id="a_node9"><a xlink:href="namespacetinyformat_1_1detail.html#ad3d636b9f85202b515c8940b7fcb62a6" target="_top" xlink:title="tinyformat::detail\l::printFormatStringLiteral">
<polygon fill="#ffffff" stroke="#000000" points="868.5,-481 868.5,-511 992.5,-511 992.5,-481 868.5,-481"/>
<text text-anchor="start" x="876.5" y="-499" font-family="Helvetica,sans-Serif" font-size="10.00" fill="#000000">tinyformat::detail</text>
<text text-anchor="middle" x="930.5" y="-488" font-family="Helvetica,sans-Serif" font-size="10.00" fill="#000000">::printFormatStringLiteral</text>
</a>
</g>
</g>
<!-- Node412&#45;&gt;Node413 -->
<g id="edge8" class="edge">
<title>Node412&#45;&gt;Node413</title>
<path fill="none" stroke="#191970" d="M830.1879,-462.1014C844.659,-466.9917 860.8725,-472.4707 875.9752,-477.5744"/>
<polygon fill="#191970" stroke="#191970" points="875.1158,-480.9783 885.71,-480.8641 877.3569,-474.3468 875.1158,-480.9783"/>
</g>
<!-- Node414 -->
<g id="node10" class="node">
<title>Node414</title>
<g id="a_node10"><a xlink:href="namespacetinyformat_1_1detail.html#a681e8ceb825485cc5e3b057c11e4b1b5" target="_top" xlink:title="tinyformat::detail\l::streamStateFromFormat">
<polygon fill="#ffffff" stroke="#000000" points="866,-432 866,-462 995,-462 995,-432 866,-432"/>
<text text-anchor="start" x="874" y="-450" font-family="Helvetica,sans-Serif" font-size="10.00" fill="#000000">tinyformat::detail</text>
<text text-anchor="middle" x="930.5" y="-439" font-family="Helvetica,sans-Serif" font-size="10.00" fill="#000000">::streamStateFromFormat</text>
</a>
</g>
</g>
<!-- Node412&#45;&gt;Node414 -->
<g id="edge9" class="edge">
<title>Node412&#45;&gt;Node414</title>
<path fill="none" stroke="#191970" d="M830.1879,-447C838.3219,-447 847.0064,-447 855.7346,-447"/>
<polygon fill="#191970" stroke="#191970" points="855.9707,-450.5001 865.9707,-447 855.9706,-443.5001 855.9707,-450.5001"/>
</g>
<!-- Node417 -->
<g id="node13" class="node">
<title>Node417</title>
<g id="a_node13"><a xlink:href="classtinyformat_1_1detail_1_1_format_arg.html#acbf435711bbe4a4da7fc81758d7108a9" target="_top" xlink:title="tinyformat::detail\l::FormatArg::format">
<polygon fill="#ffffff" stroke="#000000" points="879.5,-383 879.5,-413 981.5,-413 981.5,-383 879.5,-383"/>
<text text-anchor="start" x="887.5" y="-401" font-family="Helvetica,sans-Serif" font-size="10.00" fill="#000000">tinyformat::detail</text>
<text text-anchor="middle" x="930.5" y="-390" font-family="Helvetica,sans-Serif" font-size="10.00" fill="#000000">::FormatArg::format</text>
</a>
</g>
</g>
<!-- Node412&#45;&gt;Node417 -->
<g id="edge12" class="edge">
<title>Node412&#45;&gt;Node417</title>
<path fill="none" stroke="#191970" d="M830.1879,-431.8986C844.659,-427.0083 860.8725,-421.5293 875.9752,-416.4256"/>
<polygon fill="#191970" stroke="#191970" points="877.3569,-419.6532 885.71,-413.1359 875.1158,-413.0217 877.3569,-419.6532"/>
</g>
<!-- Node415 -->
<g id="node11" class="node">
<title>Node415</title>
<g id="a_node11"><a xlink:href="namespacetinyformat_1_1detail.html#a67285e0adb9f4164f9fc30a3eb11c771" target="_top" xlink:title="tinyformat::detail\l::parseIntAndAdvance">
<polygon fill="#ffffff" stroke="#000000" points="1031,-456 1031,-486 1144,-486 1144,-456 1031,-456"/>
<text text-anchor="start" x="1039" y="-474" font-family="Helvetica,sans-Serif" font-size="10.00" fill="#000000">tinyformat::detail</text>
<text text-anchor="middle" x="1087.5" y="-463" font-family="Helvetica,sans-Serif" font-size="10.00" fill="#000000">::parseIntAndAdvance</text>
</a>
</g>
</g>
<!-- Node414&#45;&gt;Node415 -->
<g id="edge10" class="edge">
<title>Node414&#45;&gt;Node415</title>
<path fill="none" stroke="#191970" d="M995.2643,-456.9003C1003.7639,-458.1996 1012.4852,-459.5328 1021.0128,-460.8363"/>
<polygon fill="#191970" stroke="#191970" points="1020.4954,-464.2978 1030.9095,-462.3492 1021.5533,-457.3782 1020.4954,-464.2978"/>
</g>
<!-- Node416 -->
<g id="node12" class="node">
<title>Node416</title>
<g id="a_node12"><a xlink:href="classtinyformat_1_1detail_1_1_format_arg.html#a91b69f66ce9dc8ca2914dce8985d7a1a" target="_top" xlink:title="tinyformat::detail\l::FormatArg::toInt">
<polygon fill="#ffffff" stroke="#000000" points="1040.5,-407 1040.5,-437 1134.5,-437 1134.5,-407 1040.5,-407"/>
<text text-anchor="start" x="1048.5" y="-425" font-family="Helvetica,sans-Serif" font-size="10.00" fill="#000000">tinyformat::detail</text>
<text text-anchor="middle" x="1087.5" y="-414" font-family="Helvetica,sans-Serif" font-size="10.00" fill="#000000">::FormatArg::toInt</text>
</a>
</g>
</g>
<!-- Node414&#45;&gt;Node416 -->
<g id="edge11" class="edge">
<title>Node414&#45;&gt;Node416</title>
<path fill="none" stroke="#191970" d="M995.2643,-436.6872C1006.7757,-434.8542 1018.6938,-432.9564 1029.9865,-431.1582"/>
<polygon fill="#191970" stroke="#191970" points="1030.8268,-434.5686 1040.152,-429.5395 1029.726,-427.6557 1030.8268,-434.5686"/>
</g>
<!-- Node430 -->
<g id="node26" class="node">
<title>Node430</title>
<g id="a_node26"><a xlink:href="util_8cpp.html#a7ebe0bd091f7334aaead43904601e008" target="_top" xlink:title="GetDataDir">
<polygon fill="#ffffff" stroke="#000000" points="603.5,-684.5 603.5,-703.5 669.5,-703.5 669.5,-684.5 603.5,-684.5"/>
<text text-anchor="middle" x="636.5" y="-691.5" font-family="Helvetica,sans-Serif" font-size="10.00" fill="#000000">GetDataDir</text>
</a>
</g>
</g>
<!-- Node429&#45;&gt;Node430 -->
<g id="edge25" class="edge">
<title>Node429&#45;&gt;Node430</title>
<path fill="none" stroke="#191970" d="M508.6169,-694C533.9746,-694 567.1762,-694 593.3939,-694"/>
<polygon fill="#191970" stroke="#191970" points="593.4308,-697.5001 603.4308,-694 593.4308,-690.5001 593.4308,-697.5001"/>
</g>
<!-- Node431&#45;&gt;Node430 -->
<g id="edge28" class="edge">
<title>Node431&#45;&gt;Node430</title>
<path fill="none" stroke="#191970" d="M501.3174,-724.8525C527.3555,-718.9098 564.6789,-710.3916 593.5137,-703.8107"/>
<polygon fill="#191970" stroke="#191970" points="594.3559,-707.2085 603.3265,-701.5711 592.7983,-700.384 594.3559,-707.2085"/>
</g>
<!-- Node432 -->
<g id="node28" class="node">
<title>Node432</title>
<g id="a_node28"><a xlink:href="class_args_manager.html#adb5d644d273b3a259f792affcdca8283" target="_top" xlink:title="Return string argument or default value. ">
<polygon fill="#ffffff" stroke="#000000" points="581,-722.5 581,-741.5 692,-741.5 692,-722.5 581,-722.5"/>
<text text-anchor="middle" x="636.5" y="-729.5" font-family="Helvetica,sans-Serif" font-size="10.00" fill="#000000">ArgsManager::GetArg</text>
</a>
</g>
</g>
<!-- Node431&#45;&gt;Node432 -->
<g id="edge27" class="edge">
<title>Node431&#45;&gt;Node432</title>
<path fill="none" stroke="#191970" d="M501.3174,-732C520.8523,-732 546.7394,-732 570.6282,-732"/>
<polygon fill="#191970" stroke="#191970" points="570.7197,-735.5001 580.7197,-732 570.7196,-728.5001 570.7197,-735.5001"/>
</g>
<!-- Node434 -->
<g id="node30" class="node">
<title>Node434</title>
<g id="a_node30"><a xlink:href="namespacefsbridge.html#a19c84cec4ae9accfbc88a83e48f7ee92" target="_top" xlink:title="fsbridge::fopen">
<polygon fill="#ffffff" stroke="#000000" points="596,-627.5 596,-646.5 677,-646.5 677,-627.5 596,-627.5"/>
<text text-anchor="middle" x="636.5" y="-634.5" font-family="Helvetica,sans-Serif" font-size="10.00" fill="#000000">fsbridge::fopen</text>
</a>
</g>
</g>
<!-- Node433&#45;&gt;Node434 -->
<g id="edge30" class="edge">
<title>Node433&#45;&gt;Node434</title>
<path fill="none" stroke="#191970" d="M508.1985,-622.359C531.2349,-624.9878 560.8575,-628.3681 585.8339,-631.2183"/>
<polygon fill="#191970" stroke="#191970" points="585.5312,-634.7064 595.8635,-632.3628 586.3249,-627.7515 585.5312,-634.7064"/>
</g>
<!-- Node436&#45;&gt;Node430 -->
<g id="edge33" class="edge">
<title>Node436&#45;&gt;Node430</title>
<path fill="none" stroke="#191970" d="M512.015,-665.589C536.9082,-671.2703 568.3821,-678.4536 593.4539,-684.1757"/>
<polygon fill="#191970" stroke="#191970" points="592.8902,-687.6369 603.4183,-686.4498 594.4478,-680.8124 592.8902,-687.6369"/>
</g>
<!-- Node436&#45;&gt;Node434 -->
<g id="edge34" class="edge">
<title>Node436&#45;&gt;Node434</title>
<path fill="none" stroke="#191970" d="M514.6189,-650.9083C536.5047,-648.4109 562.9673,-645.3911 585.6351,-642.8044"/>
<polygon fill="#191970" stroke="#191970" points="586.2142,-646.2611 595.7529,-641.6498 585.4205,-639.3063 586.2142,-646.2611"/>
</g>
<!-- Node440 -->
<g id="node36" class="node">
<title>Node440</title>
<g id="a_node36"><a xlink:href="class_uni_value.html#acb5c848d20cb741dbe65e28bc513baa8" target="_top" xlink:title="UniValue::getBool">
<polygon fill="#ffffff" stroke="#000000" points="269.5,-76.5 269.5,-95.5 364.5,-95.5 364.5,-76.5 269.5,-76.5"/>
<text text-anchor="middle" x="317" y="-83.5" font-family="Helvetica,sans-Serif" font-size="10.00" fill="#000000">UniValue::getBool</text>
</a>
</g>
</g>
<!-- Node439&#45;&gt;Node440 -->
<g id="edge38" class="edge">
<title>Node439&#45;&gt;Node440</title>
<path fill="none" stroke="#191970" d="M194.2944,-152.3745C218.5754,-139.2403 262.2809,-115.599 290.445,-100.3642"/>
<polygon fill="#191970" stroke="#191970" points="292.2196,-103.3836 299.3501,-95.5473 288.8892,-97.2267 292.2196,-103.3836"/>
</g>
<!-- Node441 -->
<g id="node37" class="node">
<title>Node441</title>
<g id="a_node37"><a xlink:href="class_uni_value.html#a1491167609f899d0c7773749b5047969" target="_top" xlink:title="UniValue::isTrue">
<polygon fill="#ffffff" stroke="#000000" points="425.5,-114.5 425.5,-133.5 514.5,-133.5 514.5,-114.5 425.5,-114.5"/>
<text text-anchor="middle" x="470" y="-121.5" font-family="Helvetica,sans-Serif" font-size="10.00" fill="#000000">UniValue::isTrue</text>
</a>
</g>
</g>
<!-- Node440&#45;&gt;Node441 -->
<g id="edge39" class="edge">
<title>Node440&#45;&gt;Node441</title>
<path fill="none" stroke="#191970" d="M355.6084,-95.589C375.7074,-100.5809 400.4751,-106.7324 421.8185,-112.0334"/>
<polygon fill="#191970" stroke="#191970" points="421.1204,-115.4662 431.6693,-114.4799 422.8078,-108.6726 421.1204,-115.4662"/>
</g>
<!-- Node442 -->
<g id="node38" class="node">
<title>Node442</title>
<g id="a_node38"><a xlink:href="class_uni_value.html#ad89a12ad112b2d9a55ec1b27a6b77046" target="_top" xlink:title="UniValue::getObjMap">
<polygon fill="#ffffff" stroke="#000000" points="415,-76.5 415,-95.5 525,-95.5 525,-76.5 415,-76.5"/>
<text text-anchor="middle" x="470" y="-83.5" font-family="Helvetica,sans-Serif" font-size="10.00" fill="#000000">UniValue::getObjMap</text>
</a>
</g>
</g>
<!-- Node440&#45;&gt;Node442 -->
<g id="edge40" class="edge">
<title>Node440&#45;&gt;Node442</title>
<path fill="none" stroke="#191970" d="M364.5715,-86C377.2939,-86 391.2681,-86 404.7641,-86"/>
<polygon fill="#191970" stroke="#191970" points="404.9628,-89.5001 414.9628,-86 404.9627,-82.5001 404.9628,-89.5001"/>
</g>
<!-- Node443 -->
<g id="node39" class="node">
<title>Node443</title>
<g id="a_node39"><a xlink:href="class_uni_value.html#a0cb48f1dc383f4c12f71ada714ea3f68" target="_top" xlink:title="UniValue::checkObject">
<polygon fill="#ffffff" stroke="#000000" points="411.5,-38.5 411.5,-57.5 528.5,-57.5 528.5,-38.5 411.5,-38.5"/>
<text text-anchor="middle" x="470" y="-45.5" font-family="Helvetica,sans-Serif" font-size="10.00" fill="#000000">UniValue::checkObject</text>
</a>
</g>
</g>
<!-- Node440&#45;&gt;Node443 -->
<g id="edge41" class="edge">
<title>Node440&#45;&gt;Node443</title>
<path fill="none" stroke="#191970" d="M355.6084,-76.411C375.7074,-71.4191 400.4751,-65.2676 421.8185,-59.9666"/>
<polygon fill="#191970" stroke="#191970" points="422.8078,-63.3274 431.6693,-57.5201 421.1204,-56.5338 422.8078,-63.3274"/>
</g>
<!-- Node444 -->
<g id="node40" class="node">
<title>Node444</title>
<g id="a_node40"><a xlink:href="class_uni_value.html#a998b72bd7f758e01416e1b53eaa6d94c" target="_top" xlink:title="UniValue::operator[]">
<polygon fill="#ffffff" stroke="#000000" points="418,-.5 418,-19.5 522,-19.5 522,-.5 418,-.5"/>
<text text-anchor="middle" x="470" y="-7.5" font-family="Helvetica,sans-Serif" font-size="10.00" fill="#000000">UniValue::operator[]</text>
</a>
</g>
</g>
<!-- Node440&#45;&gt;Node444 -->
<g id="edge42" class="edge">
<title>Node440&#45;&gt;Node444</title>
<path fill="none" stroke="#191970" d="M329.947,-76.3501C347.0588,-63.9664 378.4953,-42.4771 408,-29 412.9281,-26.7489 418.1944,-24.6728 423.4977,-22.7853"/>
<polygon fill="#191970" stroke="#191970" points="424.6487,-26.0909 433.0182,-19.5946 422.4243,-19.4538 424.6487,-26.0909"/>
</g>
</g>
</svg>
