<?xml version="1.0" encoding="UTF-8" standalone="no"?>
<!DOCTYPE svg PUBLIC "-//W3C//DTD SVG 1.1//EN"
 "http://www.w3.org/Graphics/SVG/1.1/DTD/svg11.dtd">
<!-- Generated by graphviz version 2.40.1 (20161225.0304)
 -->
<!-- Title: listbanned Pages: 1 -->
<svg width="1116pt" height="674pt"
 viewBox="0.00 0.00 1116.00 674.00" xmlns="http://www.w3.org/2000/svg" xmlns:xlink="http://www.w3.org/1999/xlink">
<g id="graph0" class="graph" transform="scale(1 1) rotate(0) translate(4 670)">
<title>listbanned</title>
<polygon fill="#ffffff" stroke="transparent" points="-4,4 -4,-670 1112,-670 1112,4 -4,4"/>
<!-- Node278 -->
<g id="node1" class="node">
<title>Node278</title>
<polygon fill="#bfbfbf" stroke="#000000" points="0,-361.5 0,-380.5 61,-380.5 61,-361.5 0,-361.5"/>
<text text-anchor="middle" x="30.5" y="-368.5" font-family="Helvetica,sans-Serif" font-size="10.00" fill="#000000">listbanned</text>
</g>
<!-- Node279 -->
<g id="node2" class="node">
<title>Node279</title>
<g id="a_node2"><a xlink:href="class_uni_value.html#a5a7394aeb8d5584db7a90c2c041726b1" target="_top" xlink:title="UniValue::size">
<polygon fill="#ffffff" stroke="#000000" points="103.5,-437.5 103.5,-456.5 183.5,-456.5 183.5,-437.5 103.5,-437.5"/>
<text text-anchor="middle" x="143.5" y="-444.5" font-family="Helvetica,sans-Serif" font-size="10.00" fill="#000000">UniValue::size</text>
</a>
</g>
</g>
<!-- Node278&#45;&gt;Node279 -->
<g id="edge1" class="edge">
<title>Node278&#45;&gt;Node279</title>
<path fill="none" stroke="#191970" d="M39.6476,-380.5535C51.8132,-392.8331 74.4198,-414.2098 97,-428 99.9933,-429.8281 103.1938,-431.5507 106.4625,-433.1559"/>
<polygon fill="#191970" stroke="#191970" points="105.1865,-436.4202 115.7397,-437.3588 108.0752,-430.044 105.1865,-436.4202"/>
</g>
<!-- Node280 -->
<g id="node3" class="node">
<title>Node280</title>
<g id="a_node3"><a xlink:href="server_8cpp.html#a26bafe3d526ee8cbc84b3c0b0dc3a43b" target="_top" xlink:title="HelpExampleCli">
<polygon fill="#ffffff" stroke="#000000" points="100,-399.5 100,-418.5 187,-418.5 187,-399.5 100,-399.5"/>
<text text-anchor="middle" x="143.5" y="-406.5" font-family="Helvetica,sans-Serif" font-size="10.00" fill="#000000">HelpExampleCli</text>
</a>
</g>
</g>
<!-- Node278&#45;&gt;Node280 -->
<g id="edge2" class="edge">
<title>Node278&#45;&gt;Node280</title>
<path fill="none" stroke="#191970" d="M59.0147,-380.589C73.0666,-385.3144 90.2082,-391.0789 105.3696,-396.1774"/>
<polygon fill="#191970" stroke="#191970" points="104.4004,-399.544 114.9945,-399.4141 106.6317,-392.9091 104.4004,-399.544"/>
</g>
<!-- Node281 -->
<g id="node4" class="node">
<title>Node281</title>
<g id="a_node4"><a xlink:href="server_8cpp.html#a9ef4f8fb114508ceb861a0e8c3e0d26e" target="_top" xlink:title="HelpExampleRpc">
<polygon fill="#ffffff" stroke="#000000" points="97,-361.5 97,-380.5 190,-380.5 190,-361.5 97,-361.5"/>
<text text-anchor="middle" x="143.5" y="-368.5" font-family="Helvetica,sans-Serif" font-size="10.00" fill="#000000">HelpExampleRpc</text>
</a>
</g>
</g>
<!-- Node278&#45;&gt;Node281 -->
<g id="edge3" class="edge">
<title>Node278&#45;&gt;Node281</title>
<path fill="none" stroke="#191970" d="M61.0794,-371C68.9719,-371 77.7259,-371 86.4961,-371"/>
<polygon fill="#191970" stroke="#191970" points="86.7484,-374.5001 96.7484,-371 86.7484,-367.5001 86.7484,-374.5001"/>
</g>
<!-- Node282 -->
<g id="node5" class="node">
<title>Node282</title>
<g id="a_node5"><a xlink:href="rpc_2protocol_8cpp.html#a40b75d3d265c4a2e1d5fe3e129743884" target="_top" xlink:title="JSONRPCError">
<polygon fill="#ffffff" stroke="#000000" points="100.5,-323.5 100.5,-342.5 186.5,-342.5 186.5,-323.5 100.5,-323.5"/>
<text text-anchor="middle" x="143.5" y="-330.5" font-family="Helvetica,sans-Serif" font-size="10.00" fill="#000000">JSONRPCError</text>
</a>
</g>
</g>
<!-- Node278&#45;&gt;Node282 -->
<g id="edge4" class="edge">
<title>Node278&#45;&gt;Node282</title>
<path fill="none" stroke="#191970" d="M59.0147,-361.411C73.0666,-356.6856 90.2082,-350.9211 105.3696,-345.8226"/>
<polygon fill="#191970" stroke="#191970" points="106.6317,-349.0909 114.9945,-342.5859 104.4004,-342.456 106.6317,-349.0909"/>
</g>
<!-- Node313 -->
<g id="node36" class="node">
<title>Node313</title>
<g id="a_node36"><a xlink:href="class_uni_value.html#a944cd1b59b040cd24c9f46b55a68d49a" target="_top" xlink:title="UniValue::push_back">
<polygon fill="#ffffff" stroke="#000000" points="226,-285.5 226,-304.5 336,-304.5 336,-285.5 226,-285.5"/>
<text text-anchor="middle" x="281" y="-292.5" font-family="Helvetica,sans-Serif" font-size="10.00" fill="#000000">UniValue::push_back</text>
</a>
</g>
</g>
<!-- Node278&#45;&gt;Node313 -->
<g id="edge39" class="edge">
<title>Node278&#45;&gt;Node313</title>
<path fill="none" stroke="#191970" d="M38.3325,-361.3253C49.6956,-348.0675 72.1313,-324.6836 97,-314 134.0609,-298.0786 179.0476,-293.2066 215.2616,-292.3743"/>
<polygon fill="#191970" stroke="#191970" points="215.7595,-295.8682 225.7134,-292.2391 215.6689,-288.8688 215.7595,-295.8682"/>
</g>
<!-- Node283 -->
<g id="node6" class="node">
<title>Node283</title>
<g id="a_node6"><a xlink:href="util_8h.html#a96c5fc7111f69f7dcaba992d95d13e03" target="_top" xlink:title="error">
<polygon fill="#ffffff" stroke="#000000" points="263,-323.5 263,-342.5 299,-342.5 299,-323.5 263,-323.5"/>
<text text-anchor="middle" x="281" y="-330.5" font-family="Helvetica,sans-Serif" font-size="10.00" fill="#000000">error</text>
</a>
</g>
</g>
<!-- Node282&#45;&gt;Node283 -->
<g id="edge5" class="edge">
<title>Node282&#45;&gt;Node283</title>
<path fill="none" stroke="#191970" d="M186.6286,-333C208.1918,-333 233.679,-333 252.7276,-333"/>
<polygon fill="#191970" stroke="#191970" points="252.8508,-336.5001 262.8508,-333 252.8508,-329.5001 252.8508,-336.5001"/>
</g>
<!-- Node282&#45;&gt;Node313 -->
<g id="edge38" class="edge">
<title>Node282&#45;&gt;Node313</title>
<path fill="none" stroke="#191970" d="M178.1971,-323.411C195.8656,-318.5281 217.5485,-312.5357 236.439,-307.315"/>
<polygon fill="#191970" stroke="#191970" points="237.6077,-310.6233 246.314,-304.5859 235.743,-303.8762 237.6077,-310.6233"/>
</g>
<!-- Node284 -->
<g id="node7" class="node">
<title>Node284</title>
<g id="a_node7"><a xlink:href="util_8h.html#afd4c3002b2797c0560adddb6af3ca1da" target="_top" xlink:title="Send a string to the log output. ">
<polygon fill="#ffffff" stroke="#000000" points="401.5,-646.5 401.5,-665.5 466.5,-665.5 466.5,-646.5 401.5,-646.5"/>
<text text-anchor="middle" x="434" y="-653.5" font-family="Helvetica,sans-Serif" font-size="10.00" fill="#000000">LogPrintStr</text>
</a>
</g>
</g>
<!-- Node283&#45;&gt;Node284 -->
<g id="edge6" class="edge">
<title>Node283&#45;&gt;Node284</title>
<path fill="none" stroke="#191970" d="M282.6485,-342.7265C290.7949,-389.7245 328.1236,-592.837 372,-637 377.346,-642.3809 384.1724,-646.2455 391.3299,-649.0192"/>
<polygon fill="#191970" stroke="#191970" points="390.5964,-652.459 401.1872,-652.1654 392.7249,-645.7905 390.5964,-652.459"/>
</g>
<!-- Node285 -->
<g id="node8" class="node">
<title>Node285</title>
<g id="a_node8"><a xlink:href="namespacetinyformat.html#a05144619d8b16e2b31b2594ca9c6bf1d" target="_top" xlink:title="Format list of arguments to the stream according to given format string. ">
<polygon fill="#ffffff" stroke="#000000" points="387,-608.5 387,-627.5 481,-627.5 481,-608.5 387,-608.5"/>
<text text-anchor="middle" x="434" y="-615.5" font-family="Helvetica,sans-Serif" font-size="10.00" fill="#000000">tinyformat::format</text>
</a>
</g>
</g>
<!-- Node283&#45;&gt;Node285 -->
<g id="edge7" class="edge">
<title>Node283&#45;&gt;Node285</title>
<path fill="none" stroke="#191970" d="M281.304,-342.608C283.0447,-380.8955 294.6822,-524.137 372,-599 373.8754,-600.8159 375.9197,-602.4586 378.087,-603.9448"/>
<polygon fill="#191970" stroke="#191970" points="376.5266,-607.0828 386.9582,-608.9355 379.9588,-600.9819 376.5266,-607.0828"/>
</g>
<!-- Node294 -->
<g id="node17" class="node">
<title>Node294</title>
<g id="a_node17"><a xlink:href="util_8h.html#aaada8c5faa502eb0c33fc01294955db8" target="_top" xlink:title="PrintExceptionContinue">
<polygon fill="#ffffff" stroke="#000000" points="374.5,-570.5 374.5,-589.5 493.5,-589.5 493.5,-570.5 374.5,-570.5"/>
<text text-anchor="middle" x="434" y="-577.5" font-family="Helvetica,sans-Serif" font-size="10.00" fill="#000000">PrintExceptionContinue</text>
</a>
</g>
</g>
<!-- Node283&#45;&gt;Node294 -->
<g id="edge16" class="edge">
<title>Node283&#45;&gt;Node294</title>
<path fill="none" stroke="#191970" d="M281.9555,-342.9005C285.8854,-378.0891 303.9658,-498.352 372,-561 373.7159,-562.58 375.5601,-564.0287 377.5007,-565.3571"/>
<polygon fill="#191970" stroke="#191970" points="376.0966,-568.5833 386.5268,-570.4438 379.5333,-562.485 376.0966,-568.5833"/>
</g>
<!-- Node295 -->
<g id="node18" class="node">
<title>Node295</title>
<g id="a_node18"><a xlink:href="util_8h.html#af0e69a29ba128b74030ad8a213f2037a" target="_top" xlink:title="FileCommit">
<polygon fill="#ffffff" stroke="#000000" points="400.5,-532.5 400.5,-551.5 467.5,-551.5 467.5,-532.5 400.5,-532.5"/>
<text text-anchor="middle" x="434" y="-539.5" font-family="Helvetica,sans-Serif" font-size="10.00" fill="#000000">FileCommit</text>
</a>
</g>
</g>
<!-- Node283&#45;&gt;Node295 -->
<g id="edge17" class="edge">
<title>Node283&#45;&gt;Node295</title>
<path fill="none" stroke="#191970" d="M282.7546,-342.541C288.9462,-373.4746 312.682,-471.9372 372,-523 377.3312,-527.5893 383.7536,-531.0702 390.4169,-533.7104"/>
<polygon fill="#191970" stroke="#191970" points="389.6588,-537.1477 400.2527,-537.0082 391.8841,-530.5108 389.6588,-537.1477"/>
</g>
<!-- Node296 -->
<g id="node19" class="node">
<title>Node296</title>
<g id="a_node19"><a xlink:href="util_8h.html#acb8d6b822bc1bfa609bf43bbac1a0d44" target="_top" xlink:title="TruncateFile">
<polygon fill="#ffffff" stroke="#000000" points="398.5,-494.5 398.5,-513.5 469.5,-513.5 469.5,-494.5 398.5,-494.5"/>
<text text-anchor="middle" x="434" y="-501.5" font-family="Helvetica,sans-Serif" font-size="10.00" fill="#000000">TruncateFile</text>
</a>
</g>
</g>
<!-- Node283&#45;&gt;Node296 -->
<g id="edge18" class="edge">
<title>Node283&#45;&gt;Node296</title>
<path fill="none" stroke="#191970" d="M284.0858,-342.8673C293.038,-369.8651 321.6325,-445.5569 372,-485 377.0024,-488.9174 382.8125,-492.031 388.831,-494.5048"/>
<polygon fill="#191970" stroke="#191970" points="387.7793,-497.8454 398.3741,-497.8891 390.1191,-491.2479 387.7793,-497.8454"/>
</g>
<!-- Node297 -->
<g id="node20" class="node">
<title>Node297</title>
<g id="a_node20"><a xlink:href="util_8h.html#a756a5c49a4bb607d16d9842f8f3ede4f" target="_top" xlink:title="this function tries to raise the file descriptor limit to the requested number. ">
<polygon fill="#ffffff" stroke="#000000" points="372,-456.5 372,-475.5 496,-475.5 496,-456.5 372,-456.5"/>
<text text-anchor="middle" x="434" y="-463.5" font-family="Helvetica,sans-Serif" font-size="10.00" fill="#000000">RaiseFileDescriptorLimit</text>
</a>
</g>
</g>
<!-- Node283&#45;&gt;Node297 -->
<g id="edge19" class="edge">
<title>Node283&#45;&gt;Node297</title>
<path fill="none" stroke="#191970" d="M285.9679,-342.5611C297.8158,-364.4225 329.9103,-418.3748 372,-447 374.928,-448.9913 378.0724,-450.7802 381.3359,-452.3862"/>
<polygon fill="#191970" stroke="#191970" points="380.1983,-455.7069 390.7674,-456.4446 382.9652,-449.2769 380.1983,-455.7069"/>
</g>
<!-- Node298 -->
<g id="node21" class="node">
<title>Node298</title>
<g id="a_node21"><a xlink:href="util_8h.html#a91c763bffc49cf7ed8d45cc44870e55c" target="_top" xlink:title="this function tries to make a particular range of a file allocated (corresponding to disk space) it i...">
<polygon fill="#ffffff" stroke="#000000" points="386,-418.5 386,-437.5 482,-437.5 482,-418.5 386,-418.5"/>
<text text-anchor="middle" x="434" y="-425.5" font-family="Helvetica,sans-Serif" font-size="10.00" fill="#000000">AllocateFileRange</text>
</a>
</g>
</g>
<!-- Node283&#45;&gt;Node298 -->
<g id="edge20" class="edge">
<title>Node283&#45;&gt;Node298</title>
<path fill="none" stroke="#191970" d="M289.8934,-342.5905C305.2007,-358.5619 338.1578,-390.6614 372,-409 376.0057,-411.1706 380.2942,-413.1298 384.6762,-414.89"/>
<polygon fill="#191970" stroke="#191970" points="383.7509,-418.2785 394.3446,-418.4309 386.1582,-411.7054 383.7509,-418.2785"/>
</g>
<!-- Node299 -->
<g id="node22" class="node">
<title>Node299</title>
<g id="a_node22"><a xlink:href="util_8h.html#a579657da2b55b131ecd453bf1b0d2314" target="_top" xlink:title="RenameOver">
<polygon fill="#ffffff" stroke="#000000" points="397,-380.5 397,-399.5 471,-399.5 471,-380.5 397,-380.5"/>
<text text-anchor="middle" x="434" y="-387.5" font-family="Helvetica,sans-Serif" font-size="10.00" fill="#000000">RenameOver</text>
</a>
</g>
</g>
<!-- Node283&#45;&gt;Node299 -->
<g id="edge21" class="edge">
<title>Node283&#45;&gt;Node299</title>
<path fill="none" stroke="#191970" d="M299.2658,-341.2511C317.4928,-349.336 346.3956,-361.756 372,-371 378.0457,-373.1827 384.4785,-375.3368 390.8251,-377.3666"/>
<polygon fill="#191970" stroke="#191970" points="390.0706,-380.7977 400.6594,-380.4401 392.1587,-374.1164 390.0706,-380.7977"/>
</g>
<!-- Node300 -->
<g id="node23" class="node">
<title>Node300</title>
<g id="a_node23"><a xlink:href="util_8h.html#a9042a919d837da9d97311a0c460c597c" target="_top" xlink:title="Ignores exceptions thrown by Boost&#39;s create_directories if the requested directory exists...">
<polygon fill="#ffffff" stroke="#000000" points="380.5,-342.5 380.5,-361.5 487.5,-361.5 487.5,-342.5 380.5,-342.5"/>
<text text-anchor="middle" x="434" y="-349.5" font-family="Helvetica,sans-Serif" font-size="10.00" fill="#000000">TryCreateDirectories</text>
</a>
</g>
</g>
<!-- Node283&#45;&gt;Node300 -->
<g id="edge22" class="edge">
<title>Node283&#45;&gt;Node300</title>
<path fill="none" stroke="#191970" d="M299.1519,-335.2542C316.7618,-337.441 344.5274,-340.889 370.2986,-344.0894"/>
<polygon fill="#191970" stroke="#191970" points="370.0725,-347.5881 380.4276,-345.3472 370.9352,-340.6414 370.0725,-347.5881"/>
</g>
<!-- Node301 -->
<g id="node24" class="node">
<title>Node301</title>
<g id="a_node24"><a xlink:href="util_8h.html#a15cb85964fe08c264605537f44570d3c" target="_top" xlink:title="GetDefaultDataDir">
<polygon fill="#ffffff" stroke="#000000" points="385,-304.5 385,-323.5 483,-323.5 483,-304.5 385,-304.5"/>
<text text-anchor="middle" x="434" y="-311.5" font-family="Helvetica,sans-Serif" font-size="10.00" fill="#000000">GetDefaultDataDir</text>
</a>
</g>
</g>
<!-- Node283&#45;&gt;Node301 -->
<g id="edge23" class="edge">
<title>Node283&#45;&gt;Node301</title>
<path fill="none" stroke="#191970" d="M299.1519,-330.7458C317.7522,-328.436 347.6826,-324.7191 374.6256,-321.3733"/>
<polygon fill="#191970" stroke="#191970" points="375.2833,-324.8186 384.7757,-320.1128 374.4205,-317.872 375.2833,-324.8186"/>
</g>
<!-- Node302 -->
<g id="node25" class="node">
<title>Node302</title>
<g id="a_node25"><a xlink:href="util_8h.html#abb63dfb710832aefb746933af05198d4" target="_top" xlink:title="GetDataDir">
<polygon fill="#ffffff" stroke="#000000" points="401,-266.5 401,-285.5 467,-285.5 467,-266.5 401,-266.5"/>
<text text-anchor="middle" x="434" y="-273.5" font-family="Helvetica,sans-Serif" font-size="10.00" fill="#000000">GetDataDir</text>
</a>
</g>
</g>
<!-- Node283&#45;&gt;Node302 -->
<g id="edge24" class="edge">
<title>Node283&#45;&gt;Node302</title>
<path fill="none" stroke="#191970" d="M299.0988,-327.5194C309.9561,-324.0423 323.9508,-319.2244 336,-314 352.5986,-306.8031 355.2771,-301.9032 372,-295 378.0096,-292.5192 384.4629,-290.1908 390.854,-288.0723"/>
<polygon fill="#191970" stroke="#191970" points="392.3005,-291.2853 400.7731,-284.9242 390.1829,-284.6133 392.3005,-291.2853"/>
</g>
<!-- Node303 -->
<g id="node26" class="node">
<title>Node303</title>
<g id="a_node26"><a xlink:href="util_8h.html#abfb50dfe077aced7591f2aba601f605d" target="_top" xlink:title="ClearDatadirCache">
<polygon fill="#ffffff" stroke="#000000" points="384,-228.5 384,-247.5 484,-247.5 484,-228.5 384,-228.5"/>
<text text-anchor="middle" x="434" y="-235.5" font-family="Helvetica,sans-Serif" font-size="10.00" fill="#000000">ClearDatadirCache</text>
</a>
</g>
</g>
<!-- Node283&#45;&gt;Node303 -->
<g id="edge25" class="edge">
<title>Node283&#45;&gt;Node303</title>
<path fill="none" stroke="#191970" d="M299.0822,-329.955C310.6001,-327.2902 325.3106,-322.4696 336,-314 359.4847,-295.3923 348.191,-275.1909 372,-257 374.4699,-255.1129 377.1281,-253.4119 379.9054,-251.8787"/>
<polygon fill="#191970" stroke="#191970" points="381.553,-254.9713 389.0959,-247.5312 378.5596,-248.6436 381.553,-254.9713"/>
</g>
<!-- Node304 -->
<g id="node27" class="node">
<title>Node304</title>
<g id="a_node27"><a xlink:href="util_8h.html#aa634f312705d4811dfa2a5392bddf6cf" target="_top" xlink:title="GetConfigFile">
<polygon fill="#ffffff" stroke="#000000" points="395.5,-152.5 395.5,-171.5 472.5,-171.5 472.5,-152.5 395.5,-152.5"/>
<text text-anchor="middle" x="434" y="-159.5" font-family="Helvetica,sans-Serif" font-size="10.00" fill="#000000">GetConfigFile</text>
</a>
</g>
</g>
<!-- Node283&#45;&gt;Node304 -->
<g id="edge26" class="edge">
<title>Node283&#45;&gt;Node304</title>
<path fill="none" stroke="#191970" d="M299.2187,-331.1052C311.2454,-328.9138 326.4843,-324.1886 336,-314 377.7988,-269.2453 329.4189,-225.011 372,-181 375.914,-176.9545 380.6643,-173.7645 385.7747,-171.2501"/>
<polygon fill="#191970" stroke="#191970" points="387.3009,-174.4084 395.2599,-167.4151 384.677,-167.9188 387.3009,-174.4084"/>
</g>
<!-- Node306 -->
<g id="node29" class="node">
<title>Node306</title>
<g id="a_node29"><a xlink:href="util_8h.html#aa0172eabeecce5061826cb19990fbde2" target="_top" xlink:title="GetPidFile">
<polygon fill="#ffffff" stroke="#000000" points="403,-190.5 403,-209.5 465,-209.5 465,-190.5 403,-190.5"/>
<text text-anchor="middle" x="434" y="-197.5" font-family="Helvetica,sans-Serif" font-size="10.00" fill="#000000">GetPidFile</text>
</a>
</g>
</g>
<!-- Node283&#45;&gt;Node306 -->
<g id="edge28" class="edge">
<title>Node283&#45;&gt;Node306</title>
<path fill="none" stroke="#191970" d="M299.1672,-330.7497C311.0164,-328.4041 326.0697,-323.6405 336,-314 368.3965,-282.5487 339.0542,-249.8753 372,-219 377.8914,-213.4789 385.3478,-209.5601 393.0301,-206.7791"/>
<polygon fill="#191970" stroke="#191970" points="394.2223,-210.0751 402.7809,-203.8301 392.1959,-203.3749 394.2223,-210.0751"/>
</g>
<!-- Node308 -->
<g id="node31" class="node">
<title>Node308</title>
<g id="a_node31"><a xlink:href="util_8h.html#a1c0f9b041628dcb399a023bc9913f41d" target="_top" xlink:title="CreatePidFile">
<polygon fill="#ffffff" stroke="#000000" points="396,-38.5 396,-57.5 472,-57.5 472,-38.5 396,-38.5"/>
<text text-anchor="middle" x="434" y="-45.5" font-family="Helvetica,sans-Serif" font-size="10.00" fill="#000000">CreatePidFile</text>
</a>
</g>
</g>
<!-- Node283&#45;&gt;Node308 -->
<g id="edge31" class="edge">
<title>Node283&#45;&gt;Node308</title>
<path fill="none" stroke="#191970" d="M299.089,-331.5429C311.378,-329.5558 326.9815,-324.8948 336,-314 406.7402,-228.5425 299.7645,-151.1973 372,-67 375.9447,-62.4021 380.9706,-58.8976 386.4488,-56.2301"/>
<polygon fill="#191970" stroke="#191970" points="387.9554,-59.3987 395.9841,-52.4857 385.3968,-52.8831 387.9554,-59.3987"/>
</g>
<!-- Node310 -->
<g id="node33" class="node">
<title>Node310</title>
<g id="a_node33"><a xlink:href="util_8h.html#a1e755e72104d3ca393efc1cc3f41952a" target="_top" xlink:title="OpenDebugLog">
<polygon fill="#ffffff" stroke="#000000" points="392,-76.5 392,-95.5 476,-95.5 476,-76.5 392,-76.5"/>
<text text-anchor="middle" x="434" y="-83.5" font-family="Helvetica,sans-Serif" font-size="10.00" fill="#000000">OpenDebugLog</text>
</a>
</g>
</g>
<!-- Node283&#45;&gt;Node310 -->
<g id="edge33" class="edge">
<title>Node283&#45;&gt;Node310</title>
<path fill="none" stroke="#191970" d="M299.0028,-331.4705C311.2511,-329.4494 326.8414,-324.7774 336,-314 397.0368,-242.1748 309.7067,-175.7382 372,-105 375.054,-101.532 378.7226,-98.6876 382.7302,-96.3561"/>
<polygon fill="#191970" stroke="#191970" points="384.3767,-99.4495 391.938,-92.028 381.399,-93.1145 384.3767,-99.4495"/>
</g>
<!-- Node311 -->
<g id="node34" class="node">
<title>Node311</title>
<g id="a_node34"><a xlink:href="util_8h.html#a37fca7e305fe0caa306b23fdb37f88e2" target="_top" xlink:title="ShrinkDebugFile">
<polygon fill="#ffffff" stroke="#000000" points="389.5,-114.5 389.5,-133.5 478.5,-133.5 478.5,-114.5 389.5,-114.5"/>
<text text-anchor="middle" x="434" y="-121.5" font-family="Helvetica,sans-Serif" font-size="10.00" fill="#000000">ShrinkDebugFile</text>
</a>
</g>
</g>
<!-- Node283&#45;&gt;Node311 -->
<g id="edge34" class="edge">
<title>Node283&#45;&gt;Node311</title>
<path fill="none" stroke="#191970" d="M299.1429,-331.3205C311.2943,-329.2272 326.7109,-324.5307 336,-314 387.3771,-255.7558 319.6042,-200.3296 372,-143 374.428,-140.3434 377.2165,-138.0539 380.2375,-136.0814"/>
<polygon fill="#191970" stroke="#191970" points="382.0502,-139.0824 389.261,-131.3199 378.7833,-132.8914 382.0502,-139.0824"/>
</g>
<!-- Node312 -->
<g id="node35" class="node">
<title>Node312</title>
<g id="a_node35"><a xlink:href="util_8h.html#aa803aa631ab8b4bd79fa9d7b2172bf9a" target="_top" xlink:title="runCommand">
<polygon fill="#ffffff" stroke="#000000" points="396.5,-.5 396.5,-19.5 471.5,-19.5 471.5,-.5 396.5,-.5"/>
<text text-anchor="middle" x="434" y="-7.5" font-family="Helvetica,sans-Serif" font-size="10.00" fill="#000000">runCommand</text>
</a>
</g>
</g>
<!-- Node283&#45;&gt;Node312 -->
<g id="edge37" class="edge">
<title>Node283&#45;&gt;Node312</title>
<path fill="none" stroke="#191970" d="M299.1533,-331.5956C311.4725,-329.6333 327.0858,-324.9804 336,-314 416.4698,-214.8786 289.7955,-126.6876 372,-29 375.9471,-24.3095 381.0202,-20.7547 386.5617,-18.0648"/>
<polygon fill="#191970" stroke="#191970" points="388.1653,-21.1964 396.2138,-14.3064 385.6253,-14.6735 388.1653,-21.1964"/>
</g>
<!-- Node286 -->
<g id="node9" class="node">
<title>Node286</title>
<g id="a_node9"><a xlink:href="namespacetinyformat.html#a86ed74eb3ed66a662e96220d877da964" target="_top" xlink:title="Format list of arguments to the stream according to the given format string. ">
<polygon fill="#ffffff" stroke="#000000" points="551,-589.5 551,-608.5 650,-608.5 650,-589.5 551,-589.5"/>
<text text-anchor="middle" x="600.5" y="-596.5" font-family="Helvetica,sans-Serif" font-size="10.00" fill="#000000">tinyformat::vformat</text>
</a>
</g>
</g>
<!-- Node285&#45;&gt;Node286 -->
<g id="edge8" class="edge">
<title>Node285&#45;&gt;Node286</title>
<path fill="none" stroke="#191970" d="M481.2669,-612.6062C499.7697,-610.4948 521.209,-608.0482 540.7631,-605.8168"/>
<polygon fill="#191970" stroke="#191970" points="541.2525,-609.2838 550.7912,-604.6725 540.4588,-602.3289 541.2525,-609.2838"/>
</g>
<!-- Node293 -->
<g id="node16" class="node">
<title>Node293</title>
<g id="a_node16"><a xlink:href="namespacetinyformat.html#a37afaa5249c69dacd619269358f06f69" target="_top" xlink:title="Make type&#45;agnostic format list from list of template arguments. ">
<polygon fill="#ffffff" stroke="#000000" points="532,-627.5 532,-646.5 669,-646.5 669,-627.5 532,-627.5"/>
<text text-anchor="middle" x="600.5" y="-634.5" font-family="Helvetica,sans-Serif" font-size="10.00" fill="#000000">tinyformat::makeFormatList</text>
</a>
</g>
</g>
<!-- Node285&#45;&gt;Node293 -->
<g id="edge15" class="edge">
<title>Node285&#45;&gt;Node293</title>
<path fill="none" stroke="#191970" d="M481.2669,-623.3938C493.9546,-624.8417 508.0231,-626.4471 521.9177,-628.0327"/>
<polygon fill="#191970" stroke="#191970" points="521.6498,-631.5247 531.9822,-629.1811 522.4435,-624.5698 521.6498,-631.5247"/>
</g>
<!-- Node287 -->
<g id="node10" class="node">
<title>Node287</title>
<g id="a_node10"><a xlink:href="namespacetinyformat_1_1detail.html#a079a316938c0e8693efbeb0183b1390d" target="_top" xlink:title="tinyformat::detail\l::formatImpl">
<polygon fill="#ffffff" stroke="#000000" points="705,-584 705,-614 794,-614 794,-584 705,-584"/>
<text text-anchor="start" x="713" y="-602" font-family="Helvetica,sans-Serif" font-size="10.00" fill="#000000">tinyformat::detail</text>
<text text-anchor="middle" x="749.5" y="-591" font-family="Helvetica,sans-Serif" font-size="10.00" fill="#000000">::formatImpl</text>
</a>
</g>
</g>
<!-- Node286&#45;&gt;Node287 -->
<g id="edge9" class="edge">
<title>Node286&#45;&gt;Node287</title>
<path fill="none" stroke="#191970" d="M650.1148,-599C664.2842,-599 679.8105,-599 694.2923,-599"/>
<polygon fill="#191970" stroke="#191970" points="694.6183,-602.5001 704.6183,-599 694.6183,-595.5001 694.6183,-602.5001"/>
</g>
<!-- Node288 -->
<g id="node11" class="node">
<title>Node288</title>
<g id="a_node11"><a xlink:href="namespacetinyformat_1_1detail.html#ad3d636b9f85202b515c8940b7fcb62a6" target="_top" xlink:title="tinyformat::detail\l::printFormatStringLiteral">
<polygon fill="#ffffff" stroke="#000000" points="832.5,-633 832.5,-663 956.5,-663 956.5,-633 832.5,-633"/>
<text text-anchor="start" x="840.5" y="-651" font-family="Helvetica,sans-Serif" font-size="10.00" fill="#000000">tinyformat::detail</text>
<text text-anchor="middle" x="894.5" y="-640" font-family="Helvetica,sans-Serif" font-size="10.00" fill="#000000">::printFormatStringLiteral</text>
</a>
</g>
</g>
<!-- Node287&#45;&gt;Node288 -->
<g id="edge10" class="edge">
<title>Node287&#45;&gt;Node288</title>
<path fill="none" stroke="#191970" d="M794.1879,-614.1014C808.659,-618.9917 824.8725,-624.4707 839.9752,-629.5744"/>
<polygon fill="#191970" stroke="#191970" points="839.1158,-632.9783 849.71,-632.8641 841.3569,-626.3468 839.1158,-632.9783"/>
</g>
<!-- Node289 -->
<g id="node12" class="node">
<title>Node289</title>
<g id="a_node12"><a xlink:href="namespacetinyformat_1_1detail.html#a681e8ceb825485cc5e3b057c11e4b1b5" target="_top" xlink:title="tinyformat::detail\l::streamStateFromFormat">
<polygon fill="#ffffff" stroke="#000000" points="830,-584 830,-614 959,-614 959,-584 830,-584"/>
<text text-anchor="start" x="838" y="-602" font-family="Helvetica,sans-Serif" font-size="10.00" fill="#000000">tinyformat::detail</text>
<text text-anchor="middle" x="894.5" y="-591" font-family="Helvetica,sans-Serif" font-size="10.00" fill="#000000">::streamStateFromFormat</text>
</a>
</g>
</g>
<!-- Node287&#45;&gt;Node289 -->
<g id="edge11" class="edge">
<title>Node287&#45;&gt;Node289</title>
<path fill="none" stroke="#191970" d="M794.1879,-599C802.3219,-599 811.0064,-599 819.7346,-599"/>
<polygon fill="#191970" stroke="#191970" points="819.9707,-602.5001 829.9707,-599 819.9706,-595.5001 819.9707,-602.5001"/>
</g>
<!-- Node292 -->
<g id="node15" class="node">
<title>Node292</title>
<g id="a_node15"><a xlink:href="classtinyformat_1_1detail_1_1_format_arg.html#acbf435711bbe4a4da7fc81758d7108a9" target="_top" xlink:title="tinyformat::detail\l::FormatArg::format">
<polygon fill="#ffffff" stroke="#000000" points="843.5,-535 843.5,-565 945.5,-565 945.5,-535 843.5,-535"/>
<text text-anchor="start" x="851.5" y="-553" font-family="Helvetica,sans-Serif" font-size="10.00" fill="#000000">tinyformat::detail</text>
<text text-anchor="middle" x="894.5" y="-542" font-family="Helvetica,sans-Serif" font-size="10.00" fill="#000000">::FormatArg::format</text>
</a>
</g>
</g>
<!-- Node287&#45;&gt;Node292 -->
<g id="edge14" class="edge">
<title>Node287&#45;&gt;Node292</title>
<path fill="none" stroke="#191970" d="M794.1879,-583.8986C808.659,-579.0083 824.8725,-573.5293 839.9752,-568.4256"/>
<polygon fill="#191970" stroke="#191970" points="841.3569,-571.6532 849.71,-565.1359 839.1158,-565.0217 841.3569,-571.6532"/>
</g>
<!-- Node290 -->
<g id="node13" class="node">
<title>Node290</title>
<g id="a_node13"><a xlink:href="namespacetinyformat_1_1detail.html#a67285e0adb9f4164f9fc30a3eb11c771" target="_top" xlink:title="tinyformat::detail\l::parseIntAndAdvance">
<polygon fill="#ffffff" stroke="#000000" points="995,-608 995,-638 1108,-638 1108,-608 995,-608"/>
<text text-anchor="start" x="1003" y="-626" font-family="Helvetica,sans-Serif" font-size="10.00" fill="#000000">tinyformat::detail</text>
<text text-anchor="middle" x="1051.5" y="-615" font-family="Helvetica,sans-Serif" font-size="10.00" fill="#000000">::parseIntAndAdvance</text>
</a>
</g>
</g>
<!-- Node289&#45;&gt;Node290 -->
<g id="edge12" class="edge">
<title>Node289&#45;&gt;Node290</title>
<path fill="none" stroke="#191970" d="M959.2643,-608.9003C967.7639,-610.1996 976.4852,-611.5328 985.0128,-612.8363"/>
<polygon fill="#191970" stroke="#191970" points="984.4954,-616.2978 994.9095,-614.3492 985.5533,-609.3782 984.4954,-616.2978"/>
</g>
<!-- Node291 -->
<g id="node14" class="node">
<title>Node291</title>
<g id="a_node14"><a xlink:href="classtinyformat_1_1detail_1_1_format_arg.html#a91b69f66ce9dc8ca2914dce8985d7a1a" target="_top" xlink:title="tinyformat::detail\l::FormatArg::toInt">
<polygon fill="#ffffff" stroke="#000000" points="1004.5,-559 1004.5,-589 1098.5,-589 1098.5,-559 1004.5,-559"/>
<text text-anchor="start" x="1012.5" y="-577" font-family="Helvetica,sans-Serif" font-size="10.00" fill="#000000">tinyformat::detail</text>
<text text-anchor="middle" x="1051.5" y="-566" font-family="Helvetica,sans-Serif" font-size="10.00" fill="#000000">::FormatArg::toInt</text>
</a>
</g>
</g>
<!-- Node289&#45;&gt;Node291 -->
<g id="edge13" class="edge">
<title>Node289&#45;&gt;Node291</title>
<path fill="none" stroke="#191970" d="M959.2643,-588.6872C970.7757,-586.8542 982.6938,-584.9564 993.9865,-583.1582"/>
<polygon fill="#191970" stroke="#191970" points="994.8268,-586.5686 1004.152,-581.5395 993.726,-579.6557 994.8268,-586.5686"/>
</g>
<!-- Node305 -->
<g id="node28" class="node">
<title>Node305</title>
<g id="a_node28"><a xlink:href="util_8cpp.html#a7ebe0bd091f7334aaead43904601e008" target="_top" xlink:title="GetDataDir">
<polygon fill="#ffffff" stroke="#000000" points="567.5,-152.5 567.5,-171.5 633.5,-171.5 633.5,-152.5 567.5,-152.5"/>
<text text-anchor="middle" x="600.5" y="-159.5" font-family="Helvetica,sans-Serif" font-size="10.00" fill="#000000">GetDataDir</text>
</a>
</g>
</g>
<!-- Node304&#45;&gt;Node305 -->
<g id="edge27" class="edge">
<title>Node304&#45;&gt;Node305</title>
<path fill="none" stroke="#191970" d="M472.6169,-162C497.9746,-162 531.1762,-162 557.3939,-162"/>
<polygon fill="#191970" stroke="#191970" points="557.4308,-165.5001 567.4308,-162 557.4308,-158.5001 557.4308,-165.5001"/>
</g>
<!-- Node306&#45;&gt;Node305 -->
<g id="edge30" class="edge">
<title>Node306&#45;&gt;Node305</title>
<path fill="none" stroke="#191970" d="M465.3174,-192.8525C491.3555,-186.9098 528.6789,-178.3916 557.5137,-171.8107"/>
<polygon fill="#191970" stroke="#191970" points="558.3559,-175.2085 567.3265,-169.5711 556.7983,-168.384 558.3559,-175.2085"/>
</g>
<!-- Node307 -->
<g id="node30" class="node">
<title>Node307</title>
<g id="a_node30"><a xlink:href="class_args_manager.html#adb5d644d273b3a259f792affcdca8283" target="_top" xlink:title="Return string argument or default value. ">
<polygon fill="#ffffff" stroke="#000000" points="545,-190.5 545,-209.5 656,-209.5 656,-190.5 545,-190.5"/>
<text text-anchor="middle" x="600.5" y="-197.5" font-family="Helvetica,sans-Serif" font-size="10.00" fill="#000000">ArgsManager::GetArg</text>
</a>
</g>
</g>
<!-- Node306&#45;&gt;Node307 -->
<g id="edge29" class="edge">
<title>Node306&#45;&gt;Node307</title>
<path fill="none" stroke="#191970" d="M465.3174,-200C484.8523,-200 510.7394,-200 534.6282,-200"/>
<polygon fill="#191970" stroke="#191970" points="534.7197,-203.5001 544.7197,-200 534.7196,-196.5001 534.7197,-203.5001"/>
</g>
<!-- Node309 -->
<g id="node32" class="node">
<title>Node309</title>
<g id="a_node32"><a xlink:href="namespacefsbridge.html#a19c84cec4ae9accfbc88a83e48f7ee92" target="_top" xlink:title="fsbridge::fopen">
<polygon fill="#ffffff" stroke="#000000" points="560,-76.5 560,-95.5 641,-95.5 641,-76.5 560,-76.5"/>
<text text-anchor="middle" x="600.5" y="-83.5" font-family="Helvetica,sans-Serif" font-size="10.00" fill="#000000">fsbridge::fopen</text>
</a>
</g>
</g>
<!-- Node308&#45;&gt;Node309 -->
<g id="edge32" class="edge">
<title>Node308&#45;&gt;Node309</title>
<path fill="none" stroke="#191970" d="M472.1985,-56.718C495.2349,-61.9755 524.8575,-68.7362 549.8339,-74.4366"/>
<polygon fill="#191970" stroke="#191970" points="549.3354,-77.9127 559.8635,-76.7256 550.893,-71.0882 549.3354,-77.9127"/>
</g>
<!-- Node311&#45;&gt;Node305 -->
<g id="edge35" class="edge">
<title>Node311&#45;&gt;Node305</title>
<path fill="none" stroke="#191970" d="M476.015,-133.589C500.9082,-139.2703 532.3821,-146.4536 557.4539,-152.1757"/>
<polygon fill="#191970" stroke="#191970" points="556.8902,-155.6369 567.4183,-154.4498 558.4478,-148.8124 556.8902,-155.6369"/>
</g>
<!-- Node311&#45;&gt;Node309 -->
<g id="edge36" class="edge">
<title>Node311&#45;&gt;Node309</title>
<path fill="none" stroke="#191970" d="M476.015,-114.411C498.5216,-109.2744 526.4076,-102.91 550.0776,-97.5078"/>
<polygon fill="#191970" stroke="#191970" points="550.9654,-100.8953 559.9359,-95.2579 549.4078,-94.0708 550.9654,-100.8953"/>
</g>
</g>
</svg>
