<?xml version="1.0" encoding="UTF-8" standalone="no"?>
<!DOCTYPE svg PUBLIC "-//W3C//DTD SVG 1.1//EN"
 "http://www.w3.org/Graphics/SVG/1.1/DTD/svg11.dtd">
<!-- Generated by graphviz version 2.40.1 (20161225.0304)
 -->
<!-- Title: ImportScript Pages: 1 -->
<svg width="802pt" height="1092pt"
 viewBox="0.00 0.00 802.00 1092.00" xmlns="http://www.w3.org/2000/svg" xmlns:xlink="http://www.w3.org/1999/xlink">
<g id="graph0" class="graph" transform="scale(1 1) rotate(0) translate(4 1088)">
<title>ImportScript</title>
<polygon fill="#ffffff" stroke="transparent" points="-4,4 -4,-1088 798,-1088 798,4 -4,4"/>
<!-- Node957 -->
<g id="node1" class="node">
<title>Node957</title>
<polygon fill="#bfbfbf" stroke="#000000" points="0,-266.5 0,-285.5 70,-285.5 70,-266.5 0,-266.5"/>
<text text-anchor="middle" x="35" y="-273.5" font-family="Helvetica,sans-Serif" font-size="10.00" fill="#000000">ImportScript</text>
</g>
<!-- Node958 -->
<g id="node2" class="node">
<title>Node958</title>
<g id="a_node2"><a xlink:href="ismine_8cpp.html#a60a6865dd5664b8e9878a5380ca3e359" target="_top" xlink:title="IsMine">
<polygon fill="#ffffff" stroke="#000000" points="166.5,-456.5 166.5,-475.5 212.5,-475.5 212.5,-456.5 166.5,-456.5"/>
<text text-anchor="middle" x="189.5" y="-463.5" font-family="Helvetica,sans-Serif" font-size="10.00" fill="#000000">IsMine</text>
</a>
</g>
</g>
<!-- Node957&#45;&gt;Node958 -->
<g id="edge1" class="edge">
<title>Node957&#45;&gt;Node958</title>
<path fill="none" stroke="#191970" d="M35.954,-285.5251C39.3995,-314.6298 53.9,-403.0728 106,-447 119.9308,-458.7455 139.6616,-463.5994 156.4459,-465.4684"/>
<polygon fill="#191970" stroke="#191970" points="156.1865,-468.9588 166.4374,-466.2814 156.7542,-461.9819 156.1865,-468.9588"/>
</g>
<!-- Node959 -->
<g id="node3" class="node">
<title>Node959</title>
<g id="a_node3"><a xlink:href="rpc_2protocol_8cpp.html#a40b75d3d265c4a2e1d5fe3e129743884" target="_top" xlink:title="JSONRPCError">
<polygon fill="#ffffff" stroke="#000000" points="146.5,-418.5 146.5,-437.5 232.5,-437.5 232.5,-418.5 146.5,-418.5"/>
<text text-anchor="middle" x="189.5" y="-425.5" font-family="Helvetica,sans-Serif" font-size="10.00" fill="#000000">JSONRPCError</text>
</a>
</g>
</g>
<!-- Node957&#45;&gt;Node959 -->
<g id="edge3" class="edge">
<title>Node957&#45;&gt;Node959</title>
<path fill="none" stroke="#191970" d="M37.253,-285.8554C43.4787,-310.7397 63.3521,-376.4379 106,-409 114.7757,-415.7003 125.4869,-420.1121 136.2721,-422.9993"/>
<polygon fill="#191970" stroke="#191970" points="135.6172,-426.4396 146.1443,-425.2441 137.1693,-419.6139 135.6172,-426.4396"/>
</g>
<!-- Node991 -->
<g id="node24" class="node">
<title>Node991</title>
<g id="a_node24"><a xlink:href="group__map_wallet.html#ga26fd9a9f48230daf346500d2afb6115e" target="_top" xlink:title="CWallet::MarkDirty">
<polygon fill="#ffffff" stroke="#000000" points="139,-380.5 139,-399.5 240,-399.5 240,-380.5 139,-380.5"/>
<text text-anchor="middle" x="189.5" y="-387.5" font-family="Helvetica,sans-Serif" font-size="10.00" fill="#000000">CWallet::MarkDirty</text>
</a>
</g>
</g>
<!-- Node957&#45;&gt;Node991 -->
<g id="edge24" class="edge">
<title>Node957&#45;&gt;Node991</title>
<path fill="none" stroke="#191970" d="M39.296,-285.5849C48.5198,-305.0033 72.1626,-349.0065 106,-371 112.9124,-375.4929 120.7481,-378.9309 128.7828,-381.5601"/>
<polygon fill="#191970" stroke="#191970" points="128.0561,-384.9927 138.6333,-384.3827 129.9843,-378.2635 128.0561,-384.9927"/>
</g>
<!-- Node992 -->
<g id="node25" class="node">
<title>Node992</title>
<g id="a_node25"><a xlink:href="class_c_basic_key_store.html#aefbc267bb1305990d70969a7e64a1cdf" target="_top" xlink:title="CBasicKeyStore::HaveWatchOnly">
<polygon fill="#ffffff" stroke="#000000" points="106,-342.5 106,-361.5 273,-361.5 273,-342.5 106,-342.5"/>
<text text-anchor="middle" x="189.5" y="-349.5" font-family="Helvetica,sans-Serif" font-size="10.00" fill="#000000">CBasicKeyStore::HaveWatchOnly</text>
</a>
</g>
</g>
<!-- Node957&#45;&gt;Node992 -->
<g id="edge25" class="edge">
<title>Node957&#45;&gt;Node992</title>
<path fill="none" stroke="#191970" d="M44.1285,-285.6743C56.7852,-298.494 80.9501,-320.8966 106,-333 111.0199,-335.4255 116.3608,-337.5481 121.8211,-339.4045"/>
<polygon fill="#191970" stroke="#191970" points="121.1471,-342.8594 131.7347,-342.4664 123.2129,-336.1711 121.1471,-342.8594"/>
</g>
<!-- Node993 -->
<g id="node26" class="node">
<title>Node993</title>
<g id="a_node26"><a xlink:href="group__map_wallet.html#ga2d402c76bf62238a13c8b04ab1a72e66" target="_top" xlink:title="Private version of AddWatchOnly method which does not accept a timestamp, and which will reset the wa...">
<polygon fill="#ffffff" stroke="#000000" points="127.5,-304.5 127.5,-323.5 251.5,-323.5 251.5,-304.5 127.5,-304.5"/>
<text text-anchor="middle" x="189.5" y="-311.5" font-family="Helvetica,sans-Serif" font-size="10.00" fill="#000000">CWallet::AddWatchOnly</text>
</a>
</g>
</g>
<!-- Node957&#45;&gt;Node993 -->
<g id="edge26" class="edge">
<title>Node957&#45;&gt;Node993</title>
<path fill="none" stroke="#191970" d="M69.6004,-285.5397C81.1519,-288.6496 94.109,-292.0572 106,-295 115.7414,-297.4108 126.1509,-299.8712 136.1989,-302.1875"/>
<polygon fill="#191970" stroke="#191970" points="135.5597,-305.6316 146.0883,-304.4485 137.12,-298.8077 135.5597,-305.6316"/>
</g>
<!-- Node995 -->
<g id="node28" class="node">
<title>Node995</title>
<g id="a_node28"><a xlink:href="class_c_basic_key_store.html#ad7d3983c6d1f1396896d4304b6437028" target="_top" xlink:title="CBasicKeyStore::HaveCScript">
<polygon fill="#ffffff" stroke="#000000" points="113.5,-266.5 113.5,-285.5 265.5,-285.5 265.5,-266.5 113.5,-266.5"/>
<text text-anchor="middle" x="189.5" y="-273.5" font-family="Helvetica,sans-Serif" font-size="10.00" fill="#000000">CBasicKeyStore::HaveCScript</text>
</a>
</g>
</g>
<!-- Node957&#45;&gt;Node995 -->
<g id="edge28" class="edge">
<title>Node957&#45;&gt;Node995</title>
<path fill="none" stroke="#191970" d="M70.0584,-276C80.0432,-276 91.3844,-276 103.0088,-276"/>
<polygon fill="#191970" stroke="#191970" points="103.2702,-279.5001 113.2702,-276 103.2701,-272.5001 103.2702,-279.5001"/>
</g>
<!-- Node996 -->
<g id="node29" class="node">
<title>Node996</title>
<g id="a_node29"><a xlink:href="group__map_wallet.html#ga15df27607f4dde9f262e0f030c9414b5" target="_top" xlink:title="Support for BIP 0013 : see https://github.com/raven/bips/blob/master/bip&#45;0013.mediawiki. ">
<polygon fill="#ffffff" stroke="#000000" points="335.5,-304.5 335.5,-323.5 443.5,-323.5 443.5,-304.5 335.5,-304.5"/>
<text text-anchor="middle" x="389.5" y="-311.5" font-family="Helvetica,sans-Serif" font-size="10.00" fill="#000000">CWallet::AddCScript</text>
</a>
</g>
</g>
<!-- Node957&#45;&gt;Node996 -->
<g id="edge29" class="edge">
<title>Node957&#45;&gt;Node996</title>
<path fill="none" stroke="#191970" d="M60.5849,-266.4159C105.6056,-251.1529 201.0329,-226.0446 273,-257 294.3713,-266.1925 288.835,-283.398 309,-295 314.1828,-297.982 319.8095,-300.4966 325.5984,-302.6169"/>
<polygon fill="#191970" stroke="#191970" points="324.8519,-306.0548 335.4442,-305.826 327.0212,-299.3993 324.8519,-306.0548"/>
</g>
<!-- Node1012 -->
<g id="node37" class="node">
<title>Node1012</title>
<g id="a_node37"><a xlink:href="rpcdump_8cpp.html#a8a2b851d3a0b2951b027e64cf5856e03" target="_top" xlink:title="ImportAddress">
<polygon fill="#ffffff" stroke="#000000" points="149.5,-76.5 149.5,-95.5 229.5,-95.5 229.5,-76.5 149.5,-76.5"/>
<text text-anchor="middle" x="189.5" y="-83.5" font-family="Helvetica,sans-Serif" font-size="10.00" fill="#000000">ImportAddress</text>
</a>
</g>
</g>
<!-- Node957&#45;&gt;Node1012 -->
<g id="edge37" class="edge">
<title>Node957&#45;&gt;Node1012</title>
<path fill="none" stroke="#191970" d="M38.8569,-266.2874C49.3008,-246.7855 79.152,-205.1031 106,-172 126.0313,-147.3018 150.1208,-120.1453 167.2666,-102.8452"/>
<polygon fill="#191970" stroke="#191970" points="169.9293,-105.136 174.6162,-95.6343 165.0269,-100.1393 169.9293,-105.136"/>
</g>
<!-- Node1015 -->
<g id="node40" class="node">
<title>Node1015</title>
<g id="a_node40"><a xlink:href="group___actions.html#ga53e5528d7005608594e73f500bc5bb8f" target="_top" xlink:title="CWallet::SetAddressBook">
<polygon fill="#ffffff" stroke="#000000" points="324,-.5 324,-19.5 455,-19.5 455,-.5 324,-.5"/>
<text text-anchor="middle" x="389.5" y="-7.5" font-family="Helvetica,sans-Serif" font-size="10.00" fill="#000000">CWallet::SetAddressBook</text>
</a>
</g>
</g>
<!-- Node957&#45;&gt;Node1015 -->
<g id="edge59" class="edge">
<title>Node957&#45;&gt;Node1015</title>
<path fill="none" stroke="#191970" d="M36.9386,-266.4139C44.6583,-229.1769 74.3328,-94.8227 106,-67 162.715,-17.1704 250.6231,-6.2139 313.5078,-5.6552"/>
<polygon fill="#191970" stroke="#191970" points="313.7684,-9.1553 323.7679,-5.6537 313.7673,-2.1553 313.7684,-9.1553"/>
</g>
<!-- Node1016 -->
<g id="node41" class="node">
<title>Node1016</title>
<g id="a_node41"><a xlink:href="standard_8cpp.html#a951f7e601746ae076afdf3169ecca2fc" target="_top" xlink:title="Parse a standard scriptPubKey for the destination address. ">
<polygon fill="#ffffff" stroke="#000000" points="140.5,-190.5 140.5,-209.5 238.5,-209.5 238.5,-190.5 140.5,-190.5"/>
<text text-anchor="middle" x="189.5" y="-197.5" font-family="Helvetica,sans-Serif" font-size="10.00" fill="#000000">ExtractDestination</text>
</a>
</g>
</g>
<!-- Node957&#45;&gt;Node1016 -->
<g id="edge42" class="edge">
<title>Node957&#45;&gt;Node1016</title>
<path fill="none" stroke="#191970" d="M45.7592,-266.2101C59.0225,-254.6159 82.6802,-235.4381 106,-224 115.3388,-219.4194 125.7054,-215.5651 135.8685,-212.3782"/>
<polygon fill="#191970" stroke="#191970" points="136.914,-215.7189 145.5098,-209.5252 134.9277,-209.0066 136.914,-215.7189"/>
</g>
<!-- Node958&#45;&gt;Node958 -->
<g id="edge2" class="edge">
<title>Node958&#45;&gt;Node958</title>
<path fill="none" stroke="#191970" d="M166.1519,-475.4669C154.0454,-484.3568 161.8281,-494 189.5,-494 208.092,-494 217.7058,-489.6469 218.3413,-484.0939"/>
<polygon fill="#191970" stroke="#191970" points="221.1715,-482.0223 212.8481,-475.4669 215.2669,-485.782 221.1715,-482.0223"/>
</g>
<!-- Node960 -->
<g id="node4" class="node">
<title>Node960</title>
<g id="a_node4"><a xlink:href="util_8h.html#a96c5fc7111f69f7dcaba992d95d13e03" target="_top" xlink:title="error">
<polygon fill="#ffffff" stroke="#000000" points="371.5,-722.5 371.5,-741.5 407.5,-741.5 407.5,-722.5 371.5,-722.5"/>
<text text-anchor="middle" x="389.5" y="-729.5" font-family="Helvetica,sans-Serif" font-size="10.00" fill="#000000">error</text>
</a>
</g>
</g>
<!-- Node959&#45;&gt;Node960 -->
<g id="edge4" class="edge">
<title>Node959&#45;&gt;Node960</title>
<path fill="none" stroke="#191970" d="M232.5284,-429.9334C246.7425,-432.4837 261.7735,-437.4817 273,-447 357.1486,-518.3452 381.3364,-659.8958 387.5509,-712.0778"/>
<polygon fill="#191970" stroke="#191970" points="384.104,-712.7547 388.6707,-722.3148 391.0625,-711.9935 384.104,-712.7547"/>
</g>
<!-- Node990 -->
<g id="node23" class="node">
<title>Node990</title>
<g id="a_node23"><a xlink:href="class_uni_value.html#a944cd1b59b040cd24c9f46b55a68d49a" target="_top" xlink:title="UniValue::push_back">
<polygon fill="#ffffff" stroke="#000000" points="334.5,-418.5 334.5,-437.5 444.5,-437.5 444.5,-418.5 334.5,-418.5"/>
<text text-anchor="middle" x="389.5" y="-425.5" font-family="Helvetica,sans-Serif" font-size="10.00" fill="#000000">UniValue::push_back</text>
</a>
</g>
</g>
<!-- Node959&#45;&gt;Node990 -->
<g id="edge23" class="edge">
<title>Node959&#45;&gt;Node990</title>
<path fill="none" stroke="#191970" d="M232.897,-428C259.5142,-428 294.1089,-428 324.0111,-428"/>
<polygon fill="#191970" stroke="#191970" points="324.3715,-431.5001 334.3715,-428 324.3714,-424.5001 324.3715,-431.5001"/>
</g>
<!-- Node961 -->
<g id="node5" class="node">
<title>Node961</title>
<g id="a_node5"><a xlink:href="util_8h.html#afd4c3002b2797c0560adddb6af3ca1da" target="_top" xlink:title="Send a string to the log output. ">
<polygon fill="#ffffff" stroke="#000000" points="546.5,-722.5 546.5,-741.5 611.5,-741.5 611.5,-722.5 546.5,-722.5"/>
<text text-anchor="middle" x="579" y="-729.5" font-family="Helvetica,sans-Serif" font-size="10.00" fill="#000000">LogPrintStr</text>
</a>
</g>
</g>
<!-- Node960&#45;&gt;Node961 -->
<g id="edge5" class="edge">
<title>Node960&#45;&gt;Node961</title>
<path fill="none" stroke="#191970" d="M407.6701,-732C437.0707,-732 495.8537,-732 536.2957,-732"/>
<polygon fill="#191970" stroke="#191970" points="536.4087,-735.5001 546.4086,-732 536.4086,-728.5001 536.4087,-735.5001"/>
</g>
<!-- Node962 -->
<g id="node6" class="node">
<title>Node962</title>
<g id="a_node6"><a xlink:href="namespacetinyformat.html#a05144619d8b16e2b31b2594ca9c6bf1d" target="_top" xlink:title="Format list of arguments to the stream according to given format string. ">
<polygon fill="#ffffff" stroke="#ff0000" points="532,-684.5 532,-703.5 626,-703.5 626,-684.5 532,-684.5"/>
<text text-anchor="middle" x="579" y="-691.5" font-family="Helvetica,sans-Serif" font-size="10.00" fill="#000000">tinyformat::format</text>
</a>
</g>
</g>
<!-- Node960&#45;&gt;Node962 -->
<g id="edge6" class="edge">
<title>Node960&#45;&gt;Node962</title>
<path fill="none" stroke="#191970" d="M407.6701,-728.3564C433.6917,-723.1383 482.7303,-713.3047 521.6978,-705.4907"/>
<polygon fill="#191970" stroke="#191970" points="522.7629,-708.8469 531.8796,-703.449 521.3866,-701.9835 522.7629,-708.8469"/>
</g>
<!-- Node971 -->
<g id="node7" class="node">
<title>Node971</title>
<g id="a_node7"><a xlink:href="util_8h.html#aaada8c5faa502eb0c33fc01294955db8" target="_top" xlink:title="PrintExceptionContinue">
<polygon fill="#ffffff" stroke="#000000" points="519.5,-646.5 519.5,-665.5 638.5,-665.5 638.5,-646.5 519.5,-646.5"/>
<text text-anchor="middle" x="579" y="-653.5" font-family="Helvetica,sans-Serif" font-size="10.00" fill="#000000">PrintExceptionContinue</text>
</a>
</g>
</g>
<!-- Node960&#45;&gt;Node971 -->
<g id="edge7" class="edge">
<title>Node960&#45;&gt;Node971</title>
<path fill="none" stroke="#191970" d="M406.3932,-722.3916C428.6442,-710.0527 469.2614,-688.6119 506,-675 512.518,-672.585 519.4714,-670.3547 526.3993,-668.3363"/>
<polygon fill="#191970" stroke="#191970" points="527.7809,-671.585 536.4777,-665.5338 525.9055,-664.8408 527.7809,-671.585"/>
</g>
<!-- Node972 -->
<g id="node8" class="node">
<title>Node972</title>
<g id="a_node8"><a xlink:href="util_8h.html#af0e69a29ba128b74030ad8a213f2037a" target="_top" xlink:title="FileCommit">
<polygon fill="#ffffff" stroke="#000000" points="545.5,-608.5 545.5,-627.5 612.5,-627.5 612.5,-608.5 545.5,-608.5"/>
<text text-anchor="middle" x="579" y="-615.5" font-family="Helvetica,sans-Serif" font-size="10.00" fill="#000000">FileCommit</text>
</a>
</g>
</g>
<!-- Node960&#45;&gt;Node972 -->
<g id="edge8" class="edge">
<title>Node960&#45;&gt;Node972</title>
<path fill="none" stroke="#191970" d="M398.4606,-722.3097C416.7749,-703.0903 460.6125,-660.0186 506,-637 515.1101,-632.3797 525.4457,-628.8111 535.4142,-626.0821"/>
<polygon fill="#191970" stroke="#191970" points="536.3545,-629.4548 545.2014,-623.6253 534.6501,-622.6654 536.3545,-629.4548"/>
</g>
<!-- Node973 -->
<g id="node9" class="node">
<title>Node973</title>
<g id="a_node9"><a xlink:href="util_8h.html#acb8d6b822bc1bfa609bf43bbac1a0d44" target="_top" xlink:title="TruncateFile">
<polygon fill="#ffffff" stroke="#000000" points="543.5,-570.5 543.5,-589.5 614.5,-589.5 614.5,-570.5 543.5,-570.5"/>
<text text-anchor="middle" x="579" y="-577.5" font-family="Helvetica,sans-Serif" font-size="10.00" fill="#000000">TruncateFile</text>
</a>
</g>
</g>
<!-- Node960&#45;&gt;Node973 -->
<g id="edge9" class="edge">
<title>Node960&#45;&gt;Node973</title>
<path fill="none" stroke="#191970" d="M395.1533,-722.2031C409.9593,-697.456 452.4534,-632.0533 506,-599 514.2707,-593.8946 523.8816,-590.1525 533.3604,-587.4124"/>
<polygon fill="#191970" stroke="#191970" points="534.3133,-590.7813 543.1288,-584.9044 532.5725,-584.0012 534.3133,-590.7813"/>
</g>
<!-- Node974 -->
<g id="node10" class="node">
<title>Node974</title>
<g id="a_node10"><a xlink:href="util_8h.html#a756a5c49a4bb607d16d9842f8f3ede4f" target="_top" xlink:title="this function tries to raise the file descriptor limit to the requested number. ">
<polygon fill="#ffffff" stroke="#000000" points="517,-532.5 517,-551.5 641,-551.5 641,-532.5 517,-532.5"/>
<text text-anchor="middle" x="579" y="-539.5" font-family="Helvetica,sans-Serif" font-size="10.00" fill="#000000">RaiseFileDescriptorLimit</text>
</a>
</g>
</g>
<!-- Node960&#45;&gt;Node974 -->
<g id="edge10" class="edge">
<title>Node960&#45;&gt;Node974</title>
<path fill="none" stroke="#191970" d="M393.1239,-722.4686C404.7035,-693.346 443.7402,-604.8567 506,-561 508.7301,-559.0769 511.6406,-557.3484 514.6685,-555.7948"/>
<polygon fill="#191970" stroke="#191970" points="516.3183,-558.8919 524.0414,-551.639 513.481,-552.4927 516.3183,-558.8919"/>
</g>
<!-- Node975 -->
<g id="node11" class="node">
<title>Node975</title>
<g id="a_node11"><a xlink:href="util_8h.html#a91c763bffc49cf7ed8d45cc44870e55c" target="_top" xlink:title="this function tries to make a particular range of a file allocated (corresponding to disk space) it i...">
<polygon fill="#ffffff" stroke="#000000" points="531,-494.5 531,-513.5 627,-513.5 627,-494.5 531,-494.5"/>
<text text-anchor="middle" x="579" y="-501.5" font-family="Helvetica,sans-Serif" font-size="10.00" fill="#000000">AllocateFileRange</text>
</a>
</g>
</g>
<!-- Node960&#45;&gt;Node975 -->
<g id="edge11" class="edge">
<title>Node960&#45;&gt;Node975</title>
<path fill="none" stroke="#191970" d="M391.9459,-722.3082C400.8839,-688.9476 435.0299,-577.9043 506,-523 510.6449,-519.4066 515.9025,-516.489 521.4157,-514.1209"/>
<polygon fill="#191970" stroke="#191970" points="522.7018,-517.3771 530.872,-510.6318 520.2787,-510.8098 522.7018,-517.3771"/>
</g>
<!-- Node976 -->
<g id="node12" class="node">
<title>Node976</title>
<g id="a_node12"><a xlink:href="util_8h.html#a579657da2b55b131ecd453bf1b0d2314" target="_top" xlink:title="RenameOver">
<polygon fill="#ffffff" stroke="#000000" points="542,-456.5 542,-475.5 616,-475.5 616,-456.5 542,-456.5"/>
<text text-anchor="middle" x="579" y="-463.5" font-family="Helvetica,sans-Serif" font-size="10.00" fill="#000000">RenameOver</text>
</a>
</g>
</g>
<!-- Node960&#45;&gt;Node976 -->
<g id="edge12" class="edge">
<title>Node960&#45;&gt;Node976</title>
<path fill="none" stroke="#191970" d="M391.0441,-722.4198C397.5092,-685.5314 425.8921,-551.4331 506,-485 513.4816,-478.7955 522.7609,-474.5916 532.1667,-471.7498"/>
<polygon fill="#191970" stroke="#191970" points="533.1203,-475.1187 541.9443,-469.2546 531.3893,-468.3361 533.1203,-475.1187"/>
</g>
<!-- Node977 -->
<g id="node13" class="node">
<title>Node977</title>
<g id="a_node13"><a xlink:href="util_8h.html#a9042a919d837da9d97311a0c460c597c" target="_top" xlink:title="Ignores exceptions thrown by Boost&#39;s create_directories if the requested directory exists...">
<polygon fill="#ffffff" stroke="#000000" points="525.5,-418.5 525.5,-437.5 632.5,-437.5 632.5,-418.5 525.5,-418.5"/>
<text text-anchor="middle" x="579" y="-425.5" font-family="Helvetica,sans-Serif" font-size="10.00" fill="#000000">TryCreateDirectories</text>
</a>
</g>
</g>
<!-- Node960&#45;&gt;Node977 -->
<g id="edge13" class="edge">
<title>Node960&#45;&gt;Node977</title>
<path fill="none" stroke="#191970" d="M390.3926,-722.3883C394.6656,-682.0773 416.6832,-525.1298 506,-447 509.0726,-444.3123 512.4792,-441.9974 516.0931,-440.0044"/>
<polygon fill="#191970" stroke="#191970" points="517.8244,-443.0599 525.4305,-435.6843 514.8851,-436.7068 517.8244,-443.0599"/>
</g>
<!-- Node978 -->
<g id="node14" class="node">
<title>Node978</title>
<g id="a_node14"><a xlink:href="util_8h.html#a15cb85964fe08c264605537f44570d3c" target="_top" xlink:title="GetDefaultDataDir">
<polygon fill="#ffffff" stroke="#000000" points="530,-1064.5 530,-1083.5 628,-1083.5 628,-1064.5 530,-1064.5"/>
<text text-anchor="middle" x="579" y="-1071.5" font-family="Helvetica,sans-Serif" font-size="10.00" fill="#000000">GetDefaultDataDir</text>
</a>
</g>
</g>
<!-- Node960&#45;&gt;Node978 -->
<g id="edge14" class="edge">
<title>Node960&#45;&gt;Node978</title>
<path fill="none" stroke="#191970" d="M389.882,-741.66C392.1441,-785.2025 407.3578,-964.9975 506,-1055 510.172,-1058.8066 515.0099,-1061.8698 520.1711,-1064.3322"/>
<polygon fill="#191970" stroke="#191970" points="519.151,-1067.6934 529.7362,-1068.1462 521.7438,-1061.1912 519.151,-1067.6934"/>
</g>
<!-- Node979 -->
<g id="node15" class="node">
<title>Node979</title>
<g id="a_node15"><a xlink:href="util_8h.html#abb63dfb710832aefb746933af05198d4" target="_top" xlink:title="GetDataDir">
<polygon fill="#ffffff" stroke="#000000" points="546,-1026.5 546,-1045.5 612,-1045.5 612,-1026.5 546,-1026.5"/>
<text text-anchor="middle" x="579" y="-1033.5" font-family="Helvetica,sans-Serif" font-size="10.00" fill="#000000">GetDataDir</text>
</a>
</g>
</g>
<!-- Node960&#45;&gt;Node979 -->
<g id="edge15" class="edge">
<title>Node960&#45;&gt;Node979</title>
<path fill="none" stroke="#191970" d="M390.3926,-741.6117C394.6656,-781.9227 416.6832,-938.8702 506,-1017 514.3768,-1024.3276 525.2368,-1028.884 536.0082,-1031.7015"/>
<polygon fill="#191970" stroke="#191970" points="535.2863,-1035.1263 545.8015,-1033.8299 536.7729,-1028.286 535.2863,-1035.1263"/>
</g>
<!-- Node980 -->
<g id="node16" class="node">
<title>Node980</title>
<g id="a_node16"><a xlink:href="util_8h.html#abfb50dfe077aced7591f2aba601f605d" target="_top" xlink:title="ClearDatadirCache">
<polygon fill="#ffffff" stroke="#000000" points="529,-988.5 529,-1007.5 629,-1007.5 629,-988.5 529,-988.5"/>
<text text-anchor="middle" x="579" y="-995.5" font-family="Helvetica,sans-Serif" font-size="10.00" fill="#000000">ClearDatadirCache</text>
</a>
</g>
</g>
<!-- Node960&#45;&gt;Node980 -->
<g id="edge16" class="edge">
<title>Node960&#45;&gt;Node980</title>
<path fill="none" stroke="#191970" d="M391.0441,-741.5802C397.5092,-778.4686 425.8921,-912.5669 506,-979 509.9928,-982.3112 514.4977,-985.0527 519.2605,-987.3213"/>
<polygon fill="#191970" stroke="#191970" points="518.0881,-990.6225 528.6709,-991.127 520.7125,-984.1331 518.0881,-990.6225"/>
</g>
<!-- Node981 -->
<g id="node17" class="node">
<title>Node981</title>
<g id="a_node17"><a xlink:href="util_8h.html#aa634f312705d4811dfa2a5392bddf6cf" target="_top" xlink:title="GetConfigFile">
<polygon fill="#ffffff" stroke="#ff0000" points="540.5,-950.5 540.5,-969.5 617.5,-969.5 617.5,-950.5 540.5,-950.5"/>
<text text-anchor="middle" x="579" y="-957.5" font-family="Helvetica,sans-Serif" font-size="10.00" fill="#000000">GetConfigFile</text>
</a>
</g>
</g>
<!-- Node960&#45;&gt;Node981 -->
<g id="edge17" class="edge">
<title>Node960&#45;&gt;Node981</title>
<path fill="none" stroke="#191970" d="M391.9459,-741.6918C400.8839,-775.0524 435.0299,-886.0957 506,-941 513.1495,-946.531 521.7505,-950.4607 530.5005,-953.2505"/>
<polygon fill="#191970" stroke="#191970" points="529.8051,-956.6885 540.3735,-955.9404 531.6453,-949.9347 529.8051,-956.6885"/>
</g>
<!-- Node983 -->
<g id="node18" class="node">
<title>Node983</title>
<g id="a_node18"><a xlink:href="util_8h.html#aa0172eabeecce5061826cb19990fbde2" target="_top" xlink:title="GetPidFile">
<polygon fill="#ffffff" stroke="#ff0000" points="548,-912.5 548,-931.5 610,-931.5 610,-912.5 548,-912.5"/>
<text text-anchor="middle" x="579" y="-919.5" font-family="Helvetica,sans-Serif" font-size="10.00" fill="#000000">GetPidFile</text>
</a>
</g>
</g>
<!-- Node960&#45;&gt;Node983 -->
<g id="edge18" class="edge">
<title>Node960&#45;&gt;Node983</title>
<path fill="none" stroke="#191970" d="M393.1239,-741.5314C404.7035,-770.654 443.7402,-859.1433 506,-903 515.3446,-909.5825 526.8029,-913.885 537.8474,-916.6972"/>
<polygon fill="#191970" stroke="#191970" points="537.2833,-920.1567 547.8014,-918.8834 538.785,-913.3196 537.2833,-920.1567"/>
</g>
<!-- Node985 -->
<g id="node19" class="node">
<title>Node985</title>
<g id="a_node19"><a xlink:href="util_8h.html#a1c0f9b041628dcb399a023bc9913f41d" target="_top" xlink:title="CreatePidFile">
<polygon fill="#ffffff" stroke="#ff0000" points="541,-874.5 541,-893.5 617,-893.5 617,-874.5 541,-874.5"/>
<text text-anchor="middle" x="579" y="-881.5" font-family="Helvetica,sans-Serif" font-size="10.00" fill="#000000">CreatePidFile</text>
</a>
</g>
</g>
<!-- Node960&#45;&gt;Node985 -->
<g id="edge19" class="edge">
<title>Node960&#45;&gt;Node985</title>
<path fill="none" stroke="#191970" d="M395.1533,-741.7969C409.9593,-766.544 452.4534,-831.9467 506,-865 513.6108,-869.698 522.3565,-873.2416 531.0897,-875.9124"/>
<polygon fill="#191970" stroke="#191970" points="530.3156,-879.3289 540.8834,-878.5719 532.1501,-872.5735 530.3156,-879.3289"/>
</g>
<!-- Node987 -->
<g id="node20" class="node">
<title>Node987</title>
<g id="a_node20"><a xlink:href="util_8h.html#a1e755e72104d3ca393efc1cc3f41952a" target="_top" xlink:title="OpenDebugLog">
<polygon fill="#ffffff" stroke="#000000" points="537,-836.5 537,-855.5 621,-855.5 621,-836.5 537,-836.5"/>
<text text-anchor="middle" x="579" y="-843.5" font-family="Helvetica,sans-Serif" font-size="10.00" fill="#000000">OpenDebugLog</text>
</a>
</g>
</g>
<!-- Node960&#45;&gt;Node987 -->
<g id="edge20" class="edge">
<title>Node960&#45;&gt;Node987</title>
<path fill="none" stroke="#191970" d="M398.4606,-741.6903C416.7749,-760.9097 460.6125,-803.9814 506,-827 512.5844,-830.3393 519.8089,-833.1293 527.0724,-835.45"/>
<polygon fill="#191970" stroke="#191970" points="526.3646,-838.8894 536.9447,-838.3311 528.3257,-832.1697 526.3646,-838.8894"/>
</g>
<!-- Node988 -->
<g id="node21" class="node">
<title>Node988</title>
<g id="a_node21"><a xlink:href="util_8h.html#a37fca7e305fe0caa306b23fdb37f88e2" target="_top" xlink:title="ShrinkDebugFile">
<polygon fill="#ffffff" stroke="#ff0000" points="534.5,-798.5 534.5,-817.5 623.5,-817.5 623.5,-798.5 534.5,-798.5"/>
<text text-anchor="middle" x="579" y="-805.5" font-family="Helvetica,sans-Serif" font-size="10.00" fill="#000000">ShrinkDebugFile</text>
</a>
</g>
</g>
<!-- Node960&#45;&gt;Node988 -->
<g id="edge21" class="edge">
<title>Node960&#45;&gt;Node988</title>
<path fill="none" stroke="#191970" d="M406.3932,-741.6084C428.6442,-753.9473 469.2614,-775.3881 506,-789 512.518,-791.415 519.4714,-793.6453 526.3993,-795.6637"/>
<polygon fill="#191970" stroke="#191970" points="525.9055,-799.1592 536.4777,-798.4662 527.7809,-792.415 525.9055,-799.1592"/>
</g>
<!-- Node989 -->
<g id="node22" class="node">
<title>Node989</title>
<g id="a_node22"><a xlink:href="util_8h.html#aa803aa631ab8b4bd79fa9d7b2172bf9a" target="_top" xlink:title="runCommand">
<polygon fill="#ffffff" stroke="#000000" points="541.5,-760.5 541.5,-779.5 616.5,-779.5 616.5,-760.5 541.5,-760.5"/>
<text text-anchor="middle" x="579" y="-767.5" font-family="Helvetica,sans-Serif" font-size="10.00" fill="#000000">runCommand</text>
</a>
</g>
</g>
<!-- Node960&#45;&gt;Node989 -->
<g id="edge22" class="edge">
<title>Node960&#45;&gt;Node989</title>
<path fill="none" stroke="#191970" d="M407.6701,-735.6436C435.9375,-741.312 491.366,-752.427 531.5405,-760.4831"/>
<polygon fill="#191970" stroke="#191970" points="530.9069,-763.9256 541.3999,-762.4601 532.2832,-757.0622 530.9069,-763.9256"/>
</g>
<!-- Node994 -->
<g id="node27" class="node">
<title>Node994</title>
<g id="a_node27"><a xlink:href="class_c_basic_key_store.html#af5641504058ae079925af7d00e513a77" target="_top" xlink:title="Support for Watch&#45;only addresses. ">
<polygon fill="#ffffff" stroke="#000000" points="309,-342.5 309,-361.5 470,-361.5 470,-342.5 309,-342.5"/>
<text text-anchor="middle" x="389.5" y="-349.5" font-family="Helvetica,sans-Serif" font-size="10.00" fill="#000000">CBasicKeyStore::AddWatchOnly</text>
</a>
</g>
</g>
<!-- Node993&#45;&gt;Node994 -->
<g id="edge27" class="edge">
<title>Node993&#45;&gt;Node994</title>
<path fill="none" stroke="#191970" d="M239.7103,-323.54C266.9326,-328.7122 300.7639,-335.1401 329.3829,-340.5778"/>
<polygon fill="#191970" stroke="#191970" points="328.7915,-344.0279 339.2691,-342.4561 330.0981,-337.1509 328.7915,-344.0279"/>
</g>
<!-- Node997 -->
<g id="node30" class="node">
<title>Node997</title>
<g id="a_node30"><a xlink:href="class_c_basic_key_store.html#a45baa35575b5818f6782266e0f4731e6" target="_top" xlink:title="Support for BIP 0013 : see https://github.com/raven/bips/blob/master/bip&#45;0013.mediawiki. ">
<polygon fill="#ffffff" stroke="#000000" points="506,-304.5 506,-323.5 652,-323.5 652,-304.5 506,-304.5"/>
<text text-anchor="middle" x="579" y="-311.5" font-family="Helvetica,sans-Serif" font-size="10.00" fill="#000000">CBasicKeyStore::AddCScript</text>
</a>
</g>
</g>
<!-- Node996&#45;&gt;Node997 -->
<g id="edge30" class="edge">
<title>Node996&#45;&gt;Node997</title>
<path fill="none" stroke="#191970" d="M443.5495,-314C459.7359,-314 477.8789,-314 495.4959,-314"/>
<polygon fill="#191970" stroke="#191970" points="495.7889,-317.5001 505.7889,-314 495.7889,-310.5001 495.7889,-317.5001"/>
</g>
<!-- Node1000 -->
<g id="node32" class="node">
<title>Node1000</title>
<g id="a_node32"><a xlink:href="class_c_wallet_d_b.html#a8c69e48e2305775898658e0a4f4616c9" target="_top" xlink:title="CWalletDB::WriteCScript">
<polygon fill="#ffffff" stroke="#000000" points="515,-380.5 515,-399.5 643,-399.5 643,-380.5 515,-380.5"/>
<text text-anchor="middle" x="579" y="-387.5" font-family="Helvetica,sans-Serif" font-size="10.00" fill="#000000">CWalletDB::WriteCScript</text>
</a>
</g>
</g>
<!-- Node996&#45;&gt;Node1000 -->
<g id="edge32" class="edge">
<title>Node996&#45;&gt;Node1000</title>
<path fill="none" stroke="#191970" d="M443.5558,-322.174C452.7381,-324.8293 461.9097,-328.3452 470,-333 490.165,-344.602 485.9688,-359.1684 506,-371 509.6787,-373.1729 513.6054,-375.1005 517.6572,-376.8101"/>
<polygon fill="#191970" stroke="#191970" points="516.6879,-380.1845 527.2802,-380.4163 519.1444,-373.6297 516.6879,-380.1845"/>
</g>
<!-- Node1002 -->
<g id="node34" class="node">
<title>Node1002</title>
<g id="a_node34"><a xlink:href="hash_8h.html#a4490f70ddae16e9e48460a0416a48a6b" target="_top" xlink:title="Compute the 160&#45;bit hash an object. ">
<polygon fill="#ffffff" stroke="#000000" points="551,-342.5 551,-361.5 607,-361.5 607,-342.5 551,-342.5"/>
<text text-anchor="middle" x="579" y="-349.5" font-family="Helvetica,sans-Serif" font-size="10.00" fill="#000000">Hash160</text>
</a>
</g>
</g>
<!-- Node996&#45;&gt;Node1002 -->
<g id="edge34" class="edge">
<title>Node996&#45;&gt;Node1002</title>
<path fill="none" stroke="#191970" d="M437.3189,-323.589C469.3911,-330.0204 511.0611,-338.3764 540.8941,-344.3587"/>
<polygon fill="#191970" stroke="#191970" points="540.4245,-347.8342 550.9175,-346.3687 541.8009,-340.9708 540.4245,-347.8342"/>
</g>
<!-- Node998 -->
<g id="node31" class="node">
<title>Node998</title>
<g id="a_node31"><a xlink:href="classprevector.html#a626f7d206dbc24e5610631809762758b" target="_top" xlink:title="prevector::size">
<polygon fill="#ffffff" stroke="#ff0000" points="700.5,-228.5 700.5,-247.5 781.5,-247.5 781.5,-228.5 700.5,-228.5"/>
<text text-anchor="middle" x="741" y="-235.5" font-family="Helvetica,sans-Serif" font-size="10.00" fill="#000000">prevector::size</text>
</a>
</g>
</g>
<!-- Node997&#45;&gt;Node998 -->
<g id="edge31" class="edge">
<title>Node997&#45;&gt;Node998</title>
<path fill="none" stroke="#191970" d="M624.9217,-304.4088C634.0715,-301.8444 643.4805,-298.7244 652,-295 677.0543,-284.0472 703.0984,-266.5307 720.4899,-253.8038"/>
<polygon fill="#191970" stroke="#191970" points="722.8225,-256.4304 728.7447,-247.6452 718.6366,-250.8198 722.8225,-256.4304"/>
</g>
<!-- Node1001 -->
<g id="node33" class="node">
<title>Node1001</title>
<g id="a_node33"><a xlink:href="class_c_wallet_d_b.html#a33ec32231db801e91a98afb26acf3e6a" target="_top" xlink:title="CWalletDB::WriteIC">
<polygon fill="#ffffff" stroke="#000000" points="688,-380.5 688,-399.5 794,-399.5 794,-380.5 688,-380.5"/>
<text text-anchor="middle" x="741" y="-387.5" font-family="Helvetica,sans-Serif" font-size="10.00" fill="#000000">CWalletDB::WriteIC</text>
</a>
</g>
</g>
<!-- Node1000&#45;&gt;Node1001 -->
<g id="edge33" class="edge">
<title>Node1000&#45;&gt;Node1001</title>
<path fill="none" stroke="#191970" d="M643.0267,-390C654.4024,-390 666.2458,-390 677.6039,-390"/>
<polygon fill="#191970" stroke="#191970" points="677.8711,-393.5001 687.871,-390 677.871,-386.5001 677.8711,-393.5001"/>
</g>
<!-- Node1003 -->
<g id="node35" class="node">
<title>Node1003</title>
<g id="a_node35"><a xlink:href="class_c_hash160.html#af56cdd9443013eb68b246aa8450217f2" target="_top" xlink:title="CHash160::Write">
<polygon fill="#ffffff" stroke="#ff0000" points="695,-342.5 695,-361.5 787,-361.5 787,-342.5 695,-342.5"/>
<text text-anchor="middle" x="741" y="-349.5" font-family="Helvetica,sans-Serif" font-size="10.00" fill="#000000">CHash160::Write</text>
</a>
</g>
</g>
<!-- Node1002&#45;&gt;Node1003 -->
<g id="edge35" class="edge">
<title>Node1002&#45;&gt;Node1003</title>
<path fill="none" stroke="#191970" d="M607.2182,-352C628.506,-352 658.4087,-352 684.5458,-352"/>
<polygon fill="#191970" stroke="#191970" points="684.7264,-355.5001 694.7264,-352 684.7263,-348.5001 684.7264,-355.5001"/>
</g>
<!-- Node1008 -->
<g id="node36" class="node">
<title>Node1008</title>
<g id="a_node36"><a xlink:href="class_c_hash160.html#a9bb08e1772002ae1a5d85017ba7952ee" target="_top" xlink:title="CHash160::Finalize">
<polygon fill="#ffffff" stroke="#ff0000" points="689.5,-304.5 689.5,-323.5 792.5,-323.5 792.5,-304.5 689.5,-304.5"/>
<text text-anchor="middle" x="741" y="-311.5" font-family="Helvetica,sans-Serif" font-size="10.00" fill="#000000">CHash160::Finalize</text>
</a>
</g>
</g>
<!-- Node1002&#45;&gt;Node1008 -->
<g id="edge36" class="edge">
<title>Node1002&#45;&gt;Node1008</title>
<path fill="none" stroke="#191970" d="M607.2182,-345.3809C630.1477,-340.0024 663.072,-332.2794 690.5198,-325.841"/>
<polygon fill="#191970" stroke="#191970" points="691.4194,-329.2251 700.3558,-323.5338 689.8207,-322.4101 691.4194,-329.2251"/>
</g>
<!-- Node1012&#45;&gt;Node957 -->
<g id="edge39" class="edge">
<title>Node1012&#45;&gt;Node957</title>
<path fill="none" stroke="#191970" d="M184.4493,-95.7463C171.1984,-114.762 134.4935,-154.868 106,-190 87.163,-213.2256 66.8477,-240.6746 52.7941,-258.4363"/>
<polygon fill="#191970" stroke="#191970" points="49.9906,-256.3371 46.432,-266.3165 55.4371,-260.7344 49.9906,-256.3371"/>
</g>
<!-- Node1013 -->
<g id="node38" class="node">
<title>Node1013</title>
<g id="a_node38"><a xlink:href="standard_8cpp.html#ae40f28d3b46c21033f6ee1f1200d0321" target="_top" xlink:title="Generate a Raven scriptPubKey for the given CTxDestination. ">
<polygon fill="#ffffff" stroke="#000000" points="328.5,-76.5 328.5,-95.5 450.5,-95.5 450.5,-76.5 328.5,-76.5"/>
<text text-anchor="middle" x="389.5" y="-83.5" font-family="Helvetica,sans-Serif" font-size="10.00" fill="#000000">GetScriptForDestination</text>
</a>
</g>
</g>
<!-- Node1012&#45;&gt;Node1013 -->
<g id="edge38" class="edge">
<title>Node1012&#45;&gt;Node1013</title>
<path fill="none" stroke="#191970" d="M229.973,-86C255.1925,-86 288.3539,-86 317.9061,-86"/>
<polygon fill="#191970" stroke="#191970" points="318.1896,-89.5001 328.1896,-86 318.1896,-82.5001 318.1896,-89.5001"/>
</g>
<!-- Node1014 -->
<g id="node39" class="node">
<title>Node1014</title>
<g id="a_node39"><a xlink:href="standard_8cpp.html#adb3a21e4afe9c672720b182ddc7cad7c" target="_top" xlink:title="Check whether a CTxDestination is a CNoDestination. ">
<polygon fill="#ffffff" stroke="#000000" points="341.5,-38.5 341.5,-57.5 437.5,-57.5 437.5,-38.5 341.5,-38.5"/>
<text text-anchor="middle" x="389.5" y="-45.5" font-family="Helvetica,sans-Serif" font-size="10.00" fill="#000000">IsValidDestination</text>
</a>
</g>
</g>
<!-- Node1012&#45;&gt;Node1014 -->
<g id="edge40" class="edge">
<title>Node1012&#45;&gt;Node1014</title>
<path fill="none" stroke="#191970" d="M229.973,-78.3101C259.1433,-72.7678 298.9387,-65.2066 331.4846,-59.0229"/>
<polygon fill="#191970" stroke="#191970" points="332.1616,-62.457 341.3325,-57.1518 330.855,-55.58 332.1616,-62.457"/>
</g>
<!-- Node1012&#45;&gt;Node1015 -->
<g id="edge41" class="edge">
<title>Node1012&#45;&gt;Node1015</title>
<path fill="none" stroke="#191970" d="M206.8153,-76.289C229.6253,-63.8391 271.2733,-42.2785 309,-29 316.1578,-26.4807 323.7906,-24.1919 331.3974,-22.1458"/>
<polygon fill="#191970" stroke="#191970" points="332.5226,-25.4706 341.3401,-19.5967 330.7841,-18.6898 332.5226,-25.4706"/>
</g>
<!-- Node1017 -->
<g id="node42" class="node">
<title>Node1017</title>
<g id="a_node42"><a xlink:href="standard_8cpp.html#a81899059ee66f695aaf96a07d5e2ebdc" target="_top" xlink:title="Parse a scriptPubKey and identify script type for standard scripts. ">
<polygon fill="#ffffff" stroke="#ff0000" points="367.5,-228.5 367.5,-247.5 411.5,-247.5 411.5,-228.5 367.5,-228.5"/>
<text text-anchor="middle" x="389.5" y="-235.5" font-family="Helvetica,sans-Serif" font-size="10.00" fill="#000000">Solver</text>
</a>
</g>
</g>
<!-- Node1016&#45;&gt;Node1017 -->
<g id="edge43" class="edge">
<title>Node1016&#45;&gt;Node1017</title>
<path fill="none" stroke="#191970" d="M238.6817,-209.3445C275.6749,-216.3732 325.3051,-225.803 357.3473,-231.891"/>
<polygon fill="#191970" stroke="#191970" points="357.0183,-235.391 367.4959,-233.8192 358.325,-228.5141 357.0183,-235.391"/>
</g>
<!-- Node1036 -->
<g id="node47" class="node">
<title>Node1036</title>
<g id="a_node47"><a xlink:href="classuint160.html#a66918f25b891415f2a9bbbb1dfdbedbd" target="_top" xlink:title="uint160::uint160">
<polygon fill="#ffffff" stroke="#000000" points="536,-76.5 536,-95.5 622,-95.5 622,-76.5 536,-76.5"/>
<text text-anchor="middle" x="579" y="-83.5" font-family="Helvetica,sans-Serif" font-size="10.00" fill="#000000">uint160::uint160</text>
</a>
</g>
</g>
<!-- Node1016&#45;&gt;Node1036 -->
<g id="edge57" class="edge">
<title>Node1016&#45;&gt;Node1036</title>
<path fill="none" stroke="#191970" d="M238.6738,-191.3169C313.456,-177.9149 449.3116,-152.722 470,-143 488.5948,-134.2618 488.1925,-124.2477 506,-114 515.9983,-108.2463 527.4033,-103.2269 538.1791,-99.0885"/>
<polygon fill="#191970" stroke="#191970" points="539.66,-102.2733 547.8399,-95.5398 537.2463,-95.7025 539.66,-102.2733"/>
</g>
<!-- Node1037 -->
<g id="node48" class="node">
<title>Node1037</title>
<g id="a_node48"><a xlink:href="class_c_pub_key.html#a4fa94293cf8577fd039b9a133f6c7f30" target="_top" xlink:title="CPubKey::IsValid">
<polygon fill="#ffffff" stroke="#ff0000" points="342,-114.5 342,-133.5 437,-133.5 437,-114.5 342,-114.5"/>
<text text-anchor="middle" x="389.5" y="-121.5" font-family="Helvetica,sans-Serif" font-size="10.00" fill="#000000">CPubKey::IsValid</text>
</a>
</g>
</g>
<!-- Node1016&#45;&gt;Node1037 -->
<g id="edge54" class="edge">
<title>Node1016&#45;&gt;Node1037</title>
<path fill="none" stroke="#191970" d="M209.4966,-190.4123C232.9882,-179.3575 273.2946,-161.0371 309,-148 320.231,-143.8992 332.5247,-139.9635 344.0485,-136.5078"/>
<polygon fill="#191970" stroke="#191970" points="345.3245,-139.7808 353.9313,-133.6024 343.3501,-133.0651 345.3245,-139.7808"/>
</g>
<!-- Node1039 -->
<g id="node49" class="node">
<title>Node1039</title>
<g id="a_node49"><a xlink:href="class_c_pub_key.html#a2675f7e6f72eff68e7a5227289feb021" target="_top" xlink:title="Get the KeyID of this public key (hash of its serialization) ">
<polygon fill="#ffffff" stroke="#ff0000" points="344,-266.5 344,-285.5 435,-285.5 435,-266.5 344,-266.5"/>
<text text-anchor="middle" x="389.5" y="-273.5" font-family="Helvetica,sans-Serif" font-size="10.00" fill="#000000">CPubKey::GetID</text>
</a>
</g>
</g>
<!-- Node1016&#45;&gt;Node1039 -->
<g id="edge55" class="edge">
<title>Node1016&#45;&gt;Node1039</title>
<path fill="none" stroke="#191970" d="M236.9621,-209.5537C249.1586,-213.091 261.9479,-217.8046 273,-224 291.9333,-234.6132 289.817,-246.8451 309,-257 316.7456,-261.1003 325.3733,-264.3254 334.0224,-266.8596"/>
<polygon fill="#191970" stroke="#191970" points="333.1877,-270.2591 343.7506,-269.437 334.9805,-263.4926 333.1877,-270.2591"/>
</g>
<!-- Node1041 -->
<g id="node50" class="node">
<title>Node1041</title>
<g id="a_node50"><a xlink:href="class_c_script_i_d.html#a116da5a7e94e2abb66011c33705d58e7" target="_top" xlink:title="CScriptID::CScriptID">
<polygon fill="#ffffff" stroke="#000000" points="334.5,-190.5 334.5,-209.5 444.5,-209.5 444.5,-190.5 334.5,-190.5"/>
<text text-anchor="middle" x="389.5" y="-197.5" font-family="Helvetica,sans-Serif" font-size="10.00" fill="#000000">CScriptID::CScriptID</text>
</a>
</g>
</g>
<!-- Node1016&#45;&gt;Node1041 -->
<g id="edge58" class="edge">
<title>Node1016&#45;&gt;Node1041</title>
<path fill="none" stroke="#191970" d="M238.6817,-200C264.4342,-200 296.3107,-200 324.1146,-200"/>
<polygon fill="#191970" stroke="#191970" points="324.155,-203.5001 334.155,-200 324.155,-196.5001 324.155,-203.5001"/>
</g>
<!-- Node1017&#45;&gt;Node998 -->
<g id="edge52" class="edge">
<title>Node1017&#45;&gt;Node998</title>
<path fill="none" stroke="#191970" d="M411.7026,-233.2804C435.0468,-228.5772 472.9099,-221.6806 506,-219 570.677,-213.7605 587.4696,-212.1887 652,-219 666.0232,-220.4802 681.086,-223.2376 694.7591,-226.2019"/>
<polygon fill="#191970" stroke="#191970" points="694.3786,-229.7039 704.9038,-228.4912 695.9196,-222.8757 694.3786,-229.7039"/>
</g>
<!-- Node1018 -->
<g id="node43" class="node">
<title>Node1018</title>
<g id="a_node43"><a xlink:href="class_c_script.html#a0c3729c606d318923dc06f95d85a0971" target="_top" xlink:title="CScript::IsPayToScriptHash">
<polygon fill="#ffffff" stroke="#000000" points="508.5,-266.5 508.5,-285.5 649.5,-285.5 649.5,-266.5 508.5,-266.5"/>
<text text-anchor="middle" x="579" y="-273.5" font-family="Helvetica,sans-Serif" font-size="10.00" fill="#000000">CScript::IsPayToScriptHash</text>
</a>
</g>
</g>
<!-- Node1017&#45;&gt;Node1018 -->
<g id="edge44" class="edge">
<title>Node1017&#45;&gt;Node1018</title>
<path fill="none" stroke="#191970" d="M411.6089,-242.4335C438.2924,-247.7842 484.1852,-256.987 521.1763,-264.4048"/>
<polygon fill="#191970" stroke="#191970" points="520.8573,-267.9104 531.3503,-266.4449 522.2337,-261.047 520.8573,-267.9104"/>
</g>
<!-- Node1019 -->
<g id="node44" class="node">
<title>Node1019</title>
<g id="a_node44"><a xlink:href="classprevector.html#aa9210cbe708412a70868d6e0bca844c9" target="_top" xlink:title="prevector::begin">
<polygon fill="#ffffff" stroke="#ff0000" points="698,-133.5 698,-152.5 784,-152.5 784,-133.5 698,-133.5"/>
<text text-anchor="middle" x="741" y="-140.5" font-family="Helvetica,sans-Serif" font-size="10.00" fill="#000000">prevector::begin</text>
</a>
</g>
</g>
<!-- Node1017&#45;&gt;Node1019 -->
<g id="edge46" class="edge">
<title>Node1017&#45;&gt;Node1019</title>
<path fill="none" stroke="#191970" d="M411.5705,-237.8445C429.1526,-236.6271 453.4761,-232.365 470,-219 499.0599,-195.4955 474.4172,-162.9866 506,-143 565.3459,-105.444 651.1369,-118.3952 700.9748,-130.9101"/>
<polygon fill="#191970" stroke="#191970" points="700.182,-134.3205 710.7429,-133.4738 701.9591,-127.5498 700.182,-134.3205"/>
</g>
<!-- Node1024 -->
<g id="node45" class="node">
<title>Node1024</title>
<g id="a_node45"><a xlink:href="class_c_script.html#ab23f32dfecc865f0d64467a4d8a5e1fc" target="_top" xlink:title="CScript::IsAssetScript">
<polygon fill="#ffffff" stroke="#000000" points="521.5,-228.5 521.5,-247.5 636.5,-247.5 636.5,-228.5 521.5,-228.5"/>
<text text-anchor="middle" x="579" y="-235.5" font-family="Helvetica,sans-Serif" font-size="10.00" fill="#000000">CScript::IsAssetScript</text>
</a>
</g>
</g>
<!-- Node1017&#45;&gt;Node1024 -->
<g id="edge47" class="edge">
<title>Node1017&#45;&gt;Node1024</title>
<path fill="none" stroke="#191970" d="M411.6089,-238C435.9569,-238 476.2986,-238 511.2773,-238"/>
<polygon fill="#191970" stroke="#191970" points="511.4585,-241.5001 521.4585,-238 511.4585,-234.5001 511.4585,-241.5001"/>
</g>
<!-- Node1025 -->
<g id="node46" class="node">
<title>Node1025</title>
<g id="a_node46"><a xlink:href="class_c_script.html#ae6f2ab1af6361c5772f62b28b19f5eae" target="_top" xlink:title="CScript::IsWitnessProgram">
<polygon fill="#ffffff" stroke="#ff0000" points="510.5,-152.5 510.5,-171.5 647.5,-171.5 647.5,-152.5 510.5,-152.5"/>
<text text-anchor="middle" x="579" y="-159.5" font-family="Helvetica,sans-Serif" font-size="10.00" fill="#000000">CScript::IsWitnessProgram</text>
</a>
</g>
</g>
<!-- Node1017&#45;&gt;Node1025 -->
<g id="edge49" class="edge">
<title>Node1017&#45;&gt;Node1025</title>
<path fill="none" stroke="#191970" d="M411.7484,-235.8272C428.5384,-233.4768 451.7247,-228.6743 470,-219 489.183,-208.8451 487.2704,-196.9687 506,-186 513.4469,-181.6388 521.7914,-177.9493 530.1044,-174.8704"/>
<polygon fill="#191970" stroke="#191970" points="531.4782,-178.099 539.793,-171.5329 529.1983,-171.4807 531.4782,-178.099"/>
</g>
<!-- Node1017&#45;&gt;Node1036 -->
<g id="edge53" class="edge">
<title>Node1017&#45;&gt;Node1036</title>
<path fill="none" stroke="#191970" d="M411.6664,-238.3929C429.5434,-237.5202 454.2256,-233.4553 470,-219 507.6137,-184.5315 469.9001,-146.0508 506,-110 511.7716,-104.2362 518.9503,-99.8566 526.5347,-96.5288"/>
<polygon fill="#191970" stroke="#191970" points="527.8113,-99.788 535.9199,-92.9689 525.3286,-93.243 527.8113,-99.788"/>
</g>
<!-- Node1018&#45;&gt;Node998 -->
<g id="edge45" class="edge">
<title>Node1018&#45;&gt;Node998</title>
<path fill="none" stroke="#191970" d="M619.8794,-266.411C641.3534,-261.3739 667.8605,-255.1562 690.597,-249.8229"/>
<polygon fill="#191970" stroke="#191970" points="691.4781,-253.2113 700.4145,-247.5201 689.8795,-246.3963 691.4781,-253.2113"/>
</g>
<!-- Node1024&#45;&gt;Node998 -->
<g id="edge48" class="edge">
<title>Node1024&#45;&gt;Node998</title>
<path fill="none" stroke="#191970" d="M636.5713,-238C654.0439,-238 673.108,-238 690.1088,-238"/>
<polygon fill="#191970" stroke="#191970" points="690.395,-241.5001 700.3949,-238 690.3949,-234.5001 690.395,-241.5001"/>
</g>
<!-- Node1025&#45;&gt;Node998 -->
<g id="edge50" class="edge">
<title>Node1025&#45;&gt;Node998</title>
<path fill="none" stroke="#191970" d="M612.9984,-171.5389C625.4836,-175.4663 639.5927,-180.4115 652,-186 675.482,-196.5768 700.689,-211.6953 718.2607,-222.9065"/>
<polygon fill="#191970" stroke="#191970" points="716.4065,-225.8756 726.7039,-228.3684 720.2086,-219.9981 716.4065,-225.8756"/>
</g>
<!-- Node1025&#45;&gt;Node1019 -->
<g id="edge51" class="edge">
<title>Node1025&#45;&gt;Node1019</title>
<path fill="none" stroke="#191970" d="M647.7026,-153.9423C661.0396,-152.3781 674.832,-150.7604 687.5878,-149.2644"/>
<polygon fill="#191970" stroke="#191970" points="688.0428,-152.7351 697.567,-148.094 687.2274,-145.7828 688.0428,-152.7351"/>
</g>
<!-- Node1039&#45;&gt;Node1002 -->
<g id="edge56" class="edge">
<title>Node1039&#45;&gt;Node1002</title>
<path fill="none" stroke="#191970" d="M435.1079,-281.9593C446.9916,-284.7735 459.4204,-288.913 470,-295 490.165,-306.602 485.9688,-321.1684 506,-333 516.5526,-339.233 529.1456,-343.4479 540.8769,-346.2874"/>
<polygon fill="#191970" stroke="#191970" points="540.3786,-349.7603 550.8915,-348.4447 541.8528,-342.9172 540.3786,-349.7603"/>
</g>
</g>
</svg>
