<?xml version="1.0" encoding="UTF-8" standalone="no"?>
<!DOCTYPE svg PUBLIC "-//W3C//DTD SVG 1.1//EN"
 "http://www.w3.org/Graphics/SVG/1.1/DTD/svg11.dtd">
<!-- Generated by graphviz version 2.40.1 (20161225.0304)
 -->
<!-- Title: ListTransactions Pages: 1 -->
<svg width="382pt" height="160pt"
 viewBox="0.00 0.00 382.00 160.00" xmlns="http://www.w3.org/2000/svg" xmlns:xlink="http://www.w3.org/1999/xlink">
<g id="graph0" class="graph" transform="scale(1 1) rotate(0) translate(4 156)">
<title>ListTransactions</title>
<polygon fill="#ffffff" stroke="transparent" points="-4,4 -4,-156 378,-156 378,4 -4,4"/>
<!-- Node3051 -->
<g id="node1" class="node">
<title>Node3051</title>
<polygon fill="#bfbfbf" stroke="#000000" points="0,-66.5 0,-85.5 89,-85.5 89,-66.5 0,-66.5"/>
<text text-anchor="middle" x="44.5" y="-73.5" font-family="Helvetica,sans-Serif" font-size="10.00" fill="#000000">ListTransactions</text>
</g>
<!-- Node3052 -->
<g id="node2" class="node">
<title>Node3052</title>
<g id="a_node2"><a xlink:href="rpcwallet_8cpp.html#a2f22b75dcfcae06a164564b9d7c37b04" target="_top" xlink:title="List transactions based on the given criteria. ">
<polygon fill="#ffffff" stroke="#000000" points="125,-66.5 125,-85.5 214,-85.5 214,-66.5 125,-66.5"/>
<text text-anchor="middle" x="169.5" y="-73.5" font-family="Helvetica,sans-Serif" font-size="10.00" fill="#000000">ListTransactions</text>
</a>
</g>
</g>
<!-- Node3051&#45;&gt;Node3052 -->
<g id="edge1" class="edge">
<title>Node3051&#45;&gt;Node3052</title>
<path fill="none" stroke="#191970" d="M89.2748,-76C97.4426,-76 106.0507,-76 114.475,-76"/>
<polygon fill="#191970" stroke="#191970" points="114.6177,-79.5001 124.6177,-76 114.6176,-72.5001 114.6177,-79.5001"/>
</g>
<!-- Node3053 -->
<g id="node3" class="node">
<title>Node3053</title>
<g id="a_node3"><a xlink:href="group__map_wallet.html#ga75c673700a9d5fa2b0ab63bfd094b045" target="_top" xlink:title="CWalletTx::GetAmounts">
<polygon fill="#ffffff" stroke="#000000" points="250,-132.5 250,-151.5 374,-151.5 374,-132.5 250,-132.5"/>
<text text-anchor="middle" x="312" y="-139.5" font-family="Helvetica,sans-Serif" font-size="10.00" fill="#000000">CWalletTx::GetAmounts</text>
</a>
</g>
</g>
<!-- Node3052&#45;&gt;Node3053 -->
<g id="edge2" class="edge">
<title>Node3052&#45;&gt;Node3053</title>
<path fill="none" stroke="#191970" d="M183.5124,-85.5325C199.1703,-95.8574 225.5417,-112.2848 250,-123 255.0915,-125.2306 260.5253,-127.3075 265.98,-129.2071"/>
<polygon fill="#191970" stroke="#191970" points="265.1585,-132.6215 275.7516,-132.4296 267.351,-125.9737 265.1585,-132.6215"/>
</g>
<!-- Node3054 -->
<g id="node4" class="node">
<title>Node3054</title>
<g id="a_node4"><a xlink:href="class_c_wallet_tx.html#a4b4fdec025af8171852c3eece1c2508f" target="_top" xlink:title="CWalletTx::IsFromMe">
<polygon fill="#ffffff" stroke="#000000" points="255.5,-94.5 255.5,-113.5 368.5,-113.5 368.5,-94.5 255.5,-94.5"/>
<text text-anchor="middle" x="312" y="-101.5" font-family="Helvetica,sans-Serif" font-size="10.00" fill="#000000">CWalletTx::IsFromMe</text>
</a>
</g>
</g>
<!-- Node3052&#45;&gt;Node3054 -->
<g id="edge3" class="edge">
<title>Node3052&#45;&gt;Node3054</title>
<path fill="none" stroke="#191970" d="M214.1969,-84.7826C226.6851,-87.2364 240.4433,-89.9397 253.5973,-92.5244"/>
<polygon fill="#191970" stroke="#191970" points="253.0202,-95.9778 263.5074,-94.4716 254.3699,-89.1092 253.0202,-95.9778"/>
</g>
<!-- Node3055 -->
<g id="node5" class="node">
<title>Node3055</title>
<g id="a_node5"><a xlink:href="ismine_8cpp.html#a60a6865dd5664b8e9878a5380ca3e359" target="_top" xlink:title="IsMine">
<polygon fill="#ffffff" stroke="#000000" points="289,-38.5 289,-57.5 335,-57.5 335,-38.5 289,-38.5"/>
<text text-anchor="middle" x="312" y="-45.5" font-family="Helvetica,sans-Serif" font-size="10.00" fill="#000000">IsMine</text>
</a>
</g>
</g>
<!-- Node3052&#45;&gt;Node3055 -->
<g id="edge4" class="edge">
<title>Node3052&#45;&gt;Node3055</title>
<path fill="none" stroke="#191970" d="M214.1969,-67.2174C235.2299,-63.0846 259.8655,-58.244 279.1495,-54.4548"/>
<polygon fill="#191970" stroke="#191970" points="279.8387,-57.8864 288.9763,-52.524 278.489,-51.0178 279.8387,-57.8864"/>
</g>
<!-- Node3056 -->
<g id="node6" class="node">
<title>Node3056</title>
<g id="a_node6"><a xlink:href="class_uni_value.html#a944cd1b59b040cd24c9f46b55a68d49a" target="_top" xlink:title="UniValue::push_back">
<polygon fill="#ffffff" stroke="#000000" points="257,-.5 257,-19.5 367,-19.5 367,-.5 257,-.5"/>
<text text-anchor="middle" x="312" y="-7.5" font-family="Helvetica,sans-Serif" font-size="10.00" fill="#000000">UniValue::push_back</text>
</a>
</g>
</g>
<!-- Node3052&#45;&gt;Node3056 -->
<g id="edge6" class="edge">
<title>Node3052&#45;&gt;Node3056</title>
<path fill="none" stroke="#191970" d="M183.5124,-66.4675C199.1703,-56.1426 225.5417,-39.7152 250,-29 255.0915,-26.7694 260.5253,-24.6925 265.98,-22.7929"/>
<polygon fill="#191970" stroke="#191970" points="267.351,-26.0263 275.7516,-19.5704 265.1585,-19.3785 267.351,-26.0263"/>
</g>
<!-- Node3055&#45;&gt;Node3055 -->
<g id="edge5" class="edge">
<title>Node3055&#45;&gt;Node3055</title>
<path fill="none" stroke="#191970" d="M290.1137,-57.7571C279.4663,-66.5653 286.7617,-76 312,-76 328.5626,-76 337.3979,-71.9368 338.5059,-66.6539"/>
<polygon fill="#191970" stroke="#191970" points="341.6008,-65.0192 333.8863,-57.7571 335.3883,-68.2449 341.6008,-65.0192"/>
</g>
</g>
</svg>
