<?xml version="1.0" encoding="UTF-8" standalone="no"?>
<!DOCTYPE svg PUBLIC "-//W3C//DTD SVG 1.1//EN"
 "http://www.w3.org/Graphics/SVG/1.1/DTD/svg11.dtd">
<!-- Generated by graphviz version 2.40.1 (20161225.0304)
 -->
<!-- Title: AmountFromTransferScript Pages: 1 -->
<svg width="497pt" height="53pt"
 viewBox="0.00 0.00 497.00 52.50" xmlns="http://www.w3.org/2000/svg" xmlns:xlink="http://www.w3.org/1999/xlink">
<g id="graph0" class="graph" transform="scale(1 1) rotate(0) translate(4 48.5)">
<title>AmountFromTransferScript</title>
<polygon fill="#ffffff" stroke="transparent" points="-4,4 -4,-48.5 493,-48.5 493,4 -4,4"/>
<!-- Node39 -->
<g id="node1" class="node">
<title>Node39</title>
<polygon fill="#bfbfbf" stroke="#000000" points="0,-6 0,-25 134,-25 134,-6 0,-6"/>
<text text-anchor="middle" x="67" y="-13" font-family="Helvetica,sans-Serif" font-size="10.00" fill="#000000">AmountFromTransferScript</text>
</g>
<!-- Node40 -->
<g id="node2" class="node">
<title>Node40</title>
<g id="a_node2"><a xlink:href="script_8h.html#a740e5dd842489c18bb405131dfe8f206" target="_top" xlink:title="These are needed because script.h and script.cpp do not have access to asset.h and asset...">
<polygon fill="#ffffff" stroke="#000000" points="170,-25 170,-44 310,-44 310,-25 170,-25"/>
<text text-anchor="middle" x="240" y="-32" font-family="Helvetica,sans-Serif" font-size="10.00" fill="#000000">GetAssetAmountFromScript</text>
</a>
</g>
</g>
<!-- Node39&#45;&gt;Node40 -->
<g id="edge1" class="edge">
<title>Node39&#45;&gt;Node40</title>
<path fill="none" stroke="#191970" d="M144.3236,-23.9922C152.857,-24.9294 161.5108,-25.8798 169.948,-26.8064"/>
<polygon fill="#191970" stroke="#191970" points="144.704,-20.513 134.3817,-22.9003 143.9398,-27.4712 144.704,-20.513"/>
</g>
<!-- Node41 -->
<g id="node3" class="node">
<title>Node41</title>
<g id="a_node3"><a xlink:href="class_c_reserve_script.html#a9adba723b91ee92c62d88b120c71e8dd" target="_top" xlink:title="CReserveScript::~CReserve\lScript">
<polygon fill="#ffffff" stroke="#000000" points="346,-.5 346,-30.5 489,-30.5 489,-.5 346,-.5"/>
<text text-anchor="start" x="354" y="-18.5" font-family="Helvetica,sans-Serif" font-size="10.00" fill="#000000">CReserveScript::~CReserve</text>
<text text-anchor="middle" x="417.5" y="-7.5" font-family="Helvetica,sans-Serif" font-size="10.00" fill="#000000">Script</text>
</a>
</g>
</g>
<!-- Node39&#45;&gt;Node41 -->
<g id="edge3" class="edge">
<title>Node39&#45;&gt;Node41</title>
<path fill="none" stroke="#191970" d="M144.3568,-15.5C204.4394,-15.5 287.1235,-15.5 345.7394,-15.5"/>
<polygon fill="#191970" stroke="#191970" points="144.1652,-12.0001 134.1652,-15.5 144.1652,-19.0001 144.1652,-12.0001"/>
</g>
<!-- Node40&#45;&gt;Node41 -->
<g id="edge2" class="edge">
<title>Node40&#45;&gt;Node41</title>
<path fill="none" stroke="#191970" d="M320.1341,-25.9223C328.6956,-25.0058 337.365,-24.0778 345.8196,-23.1728"/>
<polygon fill="#191970" stroke="#191970" points="319.7233,-22.4461 310.1527,-26.9907 320.4684,-29.4064 319.7233,-22.4461"/>
</g>
</g>
</svg>
