<?xml version="1.0" encoding="UTF-8" standalone="no"?>
<!DOCTYPE svg PUBLIC "-//W3C//DTD SVG 1.1//EN"
 "http://www.w3.org/Graphics/SVG/1.1/DTD/svg11.dtd">
<!-- Generated by graphviz version 2.40.1 (20161225.0304)
 -->
<!-- Title: secp256k1_ec_seckey_verify Pages: 1 -->
<svg width="922pt" height="382pt"
 viewBox="0.00 0.00 922.00 382.00" xmlns="http://www.w3.org/2000/svg" xmlns:xlink="http://www.w3.org/1999/xlink">
<g id="graph0" class="graph" transform="scale(1 1) rotate(0) translate(4 378)">
<title>secp256k1_ec_seckey_verify</title>
<polygon fill="#ffffff" stroke="transparent" points="-4,4 -4,-378 918,-378 918,4 -4,4"/>
<!-- Node168 -->
<g id="node1" class="node">
<title>Node168</title>
<polygon fill="#bfbfbf" stroke="#000000" points="0,-147 0,-177 116,-177 116,-147 0,-147"/>
<text text-anchor="start" x="8" y="-165" font-family="Helvetica,sans-Serif" font-size="10.00" fill="#000000">secp256k1_ec_seckey</text>
<text text-anchor="middle" x="58" y="-154" font-family="Helvetica,sans-Serif" font-size="10.00" fill="#000000">_verify</text>
</g>
<!-- Node169 -->
<g id="node2" class="node">
<title>Node169</title>
<g id="a_node2"><a xlink:href="class_c_key.html#acec869bc75fa8f4d619ab025d367a97c" target="_top" xlink:title="Check whether the 32&#45;byte array pointed to by vch is valid keydata. ">
<polygon fill="#ffffff" stroke="#000000" points="182,-171.5 182,-190.5 258,-190.5 258,-171.5 182,-171.5"/>
<text text-anchor="middle" x="220" y="-178.5" font-family="Helvetica,sans-Serif" font-size="10.00" fill="#000000">CKey::Check</text>
</a>
</g>
</g>
<!-- Node168&#45;&gt;Node169 -->
<g id="edge1" class="edge">
<title>Node168&#45;&gt;Node169</title>
<path fill="none" stroke="#191970" d="M126.13,-169.9906C145.0856,-172.2137 165.0063,-174.5501 181.5954,-176.4958"/>
<polygon fill="#191970" stroke="#191970" points="126.3678,-166.4945 116.0281,-168.8058 125.5523,-173.4469 126.3678,-166.4945"/>
</g>
<!-- Node189 -->
<g id="node22" class="node">
<title>Node189</title>
<g id="a_node22"><a xlink:href="tests_8c.html#a32498e86a99a258f68cd4b1176f47966" target="_top" xlink:title="run_eckey_edge_case_test">
<polygon fill="#ffffff" stroke="#000000" points="152,-133.5 152,-152.5 288,-152.5 288,-133.5 152,-133.5"/>
<text text-anchor="middle" x="220" y="-140.5" font-family="Helvetica,sans-Serif" font-size="10.00" fill="#000000">run_eckey_edge_case_test</text>
</a>
</g>
</g>
<!-- Node168&#45;&gt;Node189 -->
<g id="edge22" class="edge">
<title>Node168&#45;&gt;Node189</title>
<path fill="none" stroke="#191970" d="M125.9728,-154.0279C134.5426,-153.0228 143.3122,-151.9942 151.8843,-150.9889"/>
<polygon fill="#191970" stroke="#191970" points="125.5523,-150.5531 116.0281,-155.1942 126.3678,-157.5055 125.5523,-150.5531"/>
</g>
<!-- Node170 -->
<g id="node3" class="node">
<title>Node170</title>
<g id="a_node3"><a xlink:href="class_c_key.html#a9d12ed9d297e4286250fd7ea6b59e1a5" target="_top" xlink:title="Generate a new private key using a cryptographic PRNG. ">
<polygon fill="#ffffff" stroke="#000000" points="324,-202.5 324,-221.5 433,-221.5 433,-202.5 324,-202.5"/>
<text text-anchor="middle" x="378.5" y="-209.5" font-family="Helvetica,sans-Serif" font-size="10.00" fill="#000000">CKey::MakeNewKey</text>
</a>
</g>
</g>
<!-- Node169&#45;&gt;Node170 -->
<g id="edge2" class="edge">
<title>Node169&#45;&gt;Node170</title>
<path fill="none" stroke="#191970" d="M268.2476,-190.4364C287.7152,-194.244 310.1459,-198.6311 329.6717,-202.45"/>
<polygon fill="#191970" stroke="#191970" points="268.8543,-186.9889 258.3684,-188.5042 267.5106,-193.8587 268.8543,-186.9889"/>
</g>
<!-- Node180 -->
<g id="node13" class="node">
<title>Node180</title>
<g id="a_node13"><a xlink:href="class_c_key.html#aaa13d5f08456bba094210c5eeabf64c8" target="_top" xlink:title="Initialize using begin and end iterators to byte data. ">
<polygon fill="#ffffff" stroke="#000000" points="347.5,-139.5 347.5,-158.5 409.5,-158.5 409.5,-139.5 347.5,-139.5"/>
<text text-anchor="middle" x="378.5" y="-146.5" font-family="Helvetica,sans-Serif" font-size="10.00" fill="#000000">CKey::Set</text>
</a>
</g>
</g>
<!-- Node169&#45;&gt;Node180 -->
<g id="edge13" class="edge">
<title>Node169&#45;&gt;Node180</title>
<path fill="none" stroke="#191970" d="M268.3025,-171.2481C294.0118,-166.0576 324.8761,-159.8263 347.3923,-155.2804"/>
<polygon fill="#191970" stroke="#191970" points="267.478,-167.8438 258.3684,-173.2537 268.8633,-174.7054 267.478,-167.8438"/>
</g>
<!-- Node171 -->
<g id="node4" class="node">
<title>Node171</title>
<g id="a_node4"><a xlink:href="key_8h.html#a55cc40f04bf887c1000667caccb0684a" target="_top" xlink:title="Check that required EC support is available at runtime. ">
<polygon fill="#ffffff" stroke="#000000" points="482.5,-316.5 482.5,-335.5 595.5,-335.5 595.5,-316.5 482.5,-316.5"/>
<text text-anchor="middle" x="539" y="-323.5" font-family="Helvetica,sans-Serif" font-size="10.00" fill="#000000">ECC_InitSanityCheck</text>
</a>
</g>
</g>
<!-- Node170&#45;&gt;Node171 -->
<g id="edge3" class="edge">
<title>Node170&#45;&gt;Node171</title>
<path fill="none" stroke="#191970" d="M400.1393,-227.3699C433.7071,-251.2125 497.3659,-296.4281 525.2899,-316.262"/>
<polygon fill="#191970" stroke="#191970" points="402.0876,-224.4608 391.9081,-221.5235 398.0341,-230.1677 402.0876,-224.4608"/>
</g>
<!-- Node174 -->
<g id="node7" class="node">
<title>Node174</title>
<g id="a_node7"><a xlink:href="class_c_key.html#a96b017433a65335775cf3807d73f85ce" target="_top" xlink:title="Check whether the public key corresponding to this private key is (to be) compressed. ">
<polygon fill="#ffffff" stroke="#000000" points="483.5,-240.5 483.5,-259.5 594.5,-259.5 594.5,-240.5 483.5,-240.5"/>
<text text-anchor="middle" x="539" y="-247.5" font-family="Helvetica,sans-Serif" font-size="10.00" fill="#000000">CKey::IsCompressed</text>
</a>
</g>
</g>
<!-- Node170&#45;&gt;Node174 -->
<g id="edge6" class="edge">
<title>Node170&#45;&gt;Node174</title>
<path fill="none" stroke="#191970" d="M428.7453,-223.8961C451.3052,-229.2374 477.5609,-235.4537 498.7903,-240.4799"/>
<polygon fill="#191970" stroke="#191970" points="429.5383,-220.4871 419.0009,-221.589 427.9255,-227.2988 429.5383,-220.4871"/>
</g>
<!-- Node178 -->
<g id="node11" class="node">
<title>Node178</title>
<g id="a_node11"><a xlink:href="group__map_wallet.html#gac0cc4cfc56a39f38926fb3d0f5bb3773" target="_top" xlink:title="keystore implementation Generate a new key ">
<polygon fill="#ffffff" stroke="#000000" points="471.5,-202.5 471.5,-221.5 606.5,-221.5 606.5,-202.5 471.5,-202.5"/>
<text text-anchor="middle" x="539" y="-209.5" font-family="Helvetica,sans-Serif" font-size="10.00" fill="#000000">CWallet::GenerateNewKey</text>
</a>
</g>
</g>
<!-- Node170&#45;&gt;Node178 -->
<g id="edge11" class="edge">
<title>Node170&#45;&gt;Node178</title>
<path fill="none" stroke="#191970" d="M443.5142,-212C452.7014,-212 462.1651,-212 471.3996,-212"/>
<polygon fill="#191970" stroke="#191970" points="443.2861,-208.5001 433.2861,-212 443.2861,-215.5001 443.2861,-208.5001"/>
</g>
<!-- Node179 -->
<g id="node12" class="node">
<title>Node179</title>
<g id="a_node12"><a xlink:href="group__map_wallet.html#ga35c26d9e81464f04a45375647c251d67" target="_top" xlink:title="CWallet::GenerateNewSeed">
<polygon fill="#ffffff" stroke="#000000" points="469,-164.5 469,-183.5 609,-183.5 609,-164.5 469,-164.5"/>
<text text-anchor="middle" x="539" y="-171.5" font-family="Helvetica,sans-Serif" font-size="10.00" fill="#000000">CWallet::GenerateNewSeed</text>
</a>
</g>
</g>
<!-- Node170&#45;&gt;Node179 -->
<g id="edge12" class="edge">
<title>Node170&#45;&gt;Node179</title>
<path fill="none" stroke="#191970" d="M428.7453,-200.1039C451.3052,-194.7626 477.5609,-188.5463 498.7903,-183.5201"/>
<polygon fill="#191970" stroke="#191970" points="427.9255,-196.7012 419.0009,-202.411 429.5383,-203.5129 427.9255,-196.7012"/>
</g>
<!-- Node172 -->
<g id="node5" class="node">
<title>Node172</title>
<g id="a_node5"><a xlink:href="init_8cpp.html#a878797b40fb8eb0d7f330a41d7742d11" target="_top" xlink:title="Sanity checks Ensure that Raven is running in a usable environment with all necessary library support...">
<polygon fill="#ffffff" stroke="#000000" points="672.5,-354.5 672.5,-373.5 758.5,-373.5 758.5,-354.5 672.5,-354.5"/>
<text text-anchor="middle" x="715.5" y="-361.5" font-family="Helvetica,sans-Serif" font-size="10.00" fill="#000000">InitSanityCheck</text>
</a>
</g>
</g>
<!-- Node171&#45;&gt;Node172 -->
<g id="edge4" class="edge">
<title>Node171&#45;&gt;Node172</title>
<path fill="none" stroke="#191970" d="M593.4068,-337.7136C618.8351,-343.1883 648.6816,-349.6142 672.4996,-354.7421"/>
<polygon fill="#191970" stroke="#191970" points="594.0511,-334.2722 583.5384,-335.589 592.5777,-341.1154 594.0511,-334.2722"/>
</g>
<!-- Node173 -->
<g id="node6" class="node">
<title>Node173</title>
<g id="a_node6"><a xlink:href="struct_c_ext_key.html#aff923572d1c4e4708790cb0ecc922a24" target="_top" xlink:title="CExtKey::Unserialize">
<polygon fill="#ffffff" stroke="#000000" points="660,-316.5 660,-335.5 771,-335.5 771,-316.5 660,-316.5"/>
<text text-anchor="middle" x="715.5" y="-323.5" font-family="Helvetica,sans-Serif" font-size="10.00" fill="#000000">CExtKey::Unserialize</text>
</a>
</g>
</g>
<!-- Node171&#45;&gt;Node173 -->
<g id="edge5" class="edge">
<title>Node171&#45;&gt;Node173</title>
<path fill="none" stroke="#191970" d="M606.1234,-326C623.9063,-326 642.9051,-326 659.9949,-326"/>
<polygon fill="#191970" stroke="#191970" points="605.8173,-322.5001 595.8172,-326 605.8172,-329.5001 605.8173,-322.5001"/>
</g>
<!-- Node175 -->
<g id="node8" class="node">
<title>Node175</title>
<g id="a_node8"><a xlink:href="class_c_raven_secret.html#a9e28a7dea8650427bb1635a98551685f" target="_top" xlink:title="CRavenSecret::SetKey">
<polygon fill="#ffffff" stroke="#000000" points="656,-278.5 656,-297.5 775,-297.5 775,-278.5 656,-278.5"/>
<text text-anchor="middle" x="715.5" y="-285.5" font-family="Helvetica,sans-Serif" font-size="10.00" fill="#000000">CRavenSecret::SetKey</text>
</a>
</g>
</g>
<!-- Node174&#45;&gt;Node175 -->
<g id="edge7" class="edge">
<title>Node174&#45;&gt;Node175</title>
<path fill="none" stroke="#191970" d="M593.5876,-261.7526C618.5447,-267.1258 647.7268,-273.4086 671.2819,-278.4799"/>
<polygon fill="#191970" stroke="#191970" points="594.0511,-258.2722 583.5384,-259.589 592.5777,-265.1154 594.0511,-258.2722"/>
</g>
<!-- Node176 -->
<g id="node9" class="node">
<title>Node176</title>
<g id="a_node9"><a xlink:href="class_c_key.html#ae79008cec2eb799a2efd37e010996acf" target="_top" xlink:title="Derive BIP32 child key. ">
<polygon fill="#ffffff" stroke="#000000" points="677.5,-240.5 677.5,-259.5 753.5,-259.5 753.5,-240.5 677.5,-240.5"/>
<text text-anchor="middle" x="715.5" y="-247.5" font-family="Helvetica,sans-Serif" font-size="10.00" fill="#000000">CKey::Derive</text>
</a>
</g>
</g>
<!-- Node174&#45;&gt;Node176 -->
<g id="edge8" class="edge">
<title>Node174&#45;&gt;Node176</title>
<path fill="none" stroke="#191970" d="M605.1143,-243.4424C629.4732,-243.0107 656.2374,-243.3055 677.3108,-244.3268"/>
<polygon fill="#191970" stroke="#191970" points="604.765,-239.9492 594.8457,-243.6719 604.9214,-246.9475 604.765,-239.9492"/>
</g>
<!-- Node177 -->
<g id="node10" class="node">
<title>Node177</title>
<g id="a_node10"><a xlink:href="class_transaction_signature_creator.html#a9cb1b4bd531ab19a1257abd9b639b7c8" target="_top" xlink:title="Create a singular (non&#45;script) signature. ">
<polygon fill="#ffffff" stroke="#000000" points="645,-191 645,-221 786,-221 786,-191 645,-191"/>
<text text-anchor="start" x="653" y="-209" font-family="Helvetica,sans-Serif" font-size="10.00" fill="#000000">TransactionSignatureCreator</text>
<text text-anchor="middle" x="715.5" y="-198" font-family="Helvetica,sans-Serif" font-size="10.00" fill="#000000">::CreateSig</text>
</a>
</g>
</g>
<!-- Node174&#45;&gt;Node177 -->
<g id="edge10" class="edge">
<title>Node174&#45;&gt;Node177</title>
<path fill="none" stroke="#191970" d="M587.2412,-237.9739C608.1771,-232.7547 632.9236,-226.5856 655.0673,-221.0654"/>
<polygon fill="#191970" stroke="#191970" points="586.1543,-234.6376 577.2979,-240.4527 587.8476,-241.4298 586.1543,-234.6376"/>
</g>
<!-- Node176&#45;&gt;Node174 -->
<g id="edge9" class="edge">
<title>Node176&#45;&gt;Node174</title>
<path fill="none" stroke="#191970" d="M667.0467,-256.0987C644.696,-256.8824 618.0373,-256.9588 594.8457,-256.3281"/>
<polygon fill="#191970" stroke="#191970" points="667.4644,-259.5845 677.3108,-255.6732 667.1744,-252.5905 667.4644,-259.5845"/>
</g>
<!-- Node181 -->
<g id="node14" class="node">
<title>Node181</title>
<g id="a_node14"><a xlink:href="class_c_raven_secret.html#a405628c52ebefb1c2baa9030b2204efa" target="_top" xlink:title="CRavenSecret::GetKey">
<polygon fill="#ffffff" stroke="#000000" points="479,-95.5 479,-114.5 599,-114.5 599,-95.5 479,-95.5"/>
<text text-anchor="middle" x="539" y="-102.5" font-family="Helvetica,sans-Serif" font-size="10.00" fill="#000000">CRavenSecret::GetKey</text>
</a>
</g>
</g>
<!-- Node180&#45;&gt;Node181 -->
<g id="edge14" class="edge">
<title>Node180&#45;&gt;Node181</title>
<path fill="none" stroke="#191970" d="M419.811,-137.6749C445.9401,-130.5118 479.3386,-121.3558 504.1298,-114.5594"/>
<polygon fill="#191970" stroke="#191970" points="418.5458,-134.3925 409.827,-140.4119 420.3966,-141.1434 418.5458,-134.3925"/>
</g>
<!-- Node182 -->
<g id="node15" class="node">
<title>Node182</title>
<g id="a_node15"><a xlink:href="misc_8cpp.html#a7cc5c728930b938ed47704a71c0d0b02" target="_top" xlink:title="signmessagewithprivkey">
<polygon fill="#ffffff" stroke="#000000" points="653.5,-152.5 653.5,-171.5 777.5,-171.5 777.5,-152.5 653.5,-152.5"/>
<text text-anchor="middle" x="715.5" y="-159.5" font-family="Helvetica,sans-Serif" font-size="10.00" fill="#000000">signmessagewithprivkey</text>
</a>
</g>
</g>
<!-- Node181&#45;&gt;Node182 -->
<g id="edge15" class="edge">
<title>Node181&#45;&gt;Node182</title>
<path fill="none" stroke="#191970" d="M573.6563,-118.2251C594.2466,-125.8812 620.9529,-135.4629 645,-143 655.5236,-146.2984 667.0367,-149.5493 677.6514,-152.4041"/>
<polygon fill="#191970" stroke="#191970" points="574.6705,-114.8676 564.0781,-114.6388 572.2158,-121.4232 574.6705,-114.8676"/>
</g>
<!-- Node183 -->
<g id="node16" class="node">
<title>Node183</title>
<g id="a_node16"><a xlink:href="rawtransaction_8cpp.html#a5b2abfea4548c97e780cfae39f9ac11b" target="_top" xlink:title="signrawtransaction">
<polygon fill="#ffffff" stroke="#000000" points="666.5,-114.5 666.5,-133.5 764.5,-133.5 764.5,-114.5 666.5,-114.5"/>
<text text-anchor="middle" x="715.5" y="-121.5" font-family="Helvetica,sans-Serif" font-size="10.00" fill="#000000">signrawtransaction</text>
</a>
</g>
</g>
<!-- Node181&#45;&gt;Node183 -->
<g id="edge16" class="edge">
<title>Node181&#45;&gt;Node183</title>
<path fill="none" stroke="#191970" d="M609.3994,-112.5784C628.4773,-114.6321 648.7166,-116.8109 666.3468,-118.7087"/>
<polygon fill="#191970" stroke="#191970" points="609.5648,-109.0761 599.2476,-111.4856 608.8156,-116.0359 609.5648,-109.0761"/>
</g>
<!-- Node184 -->
<g id="node17" class="node">
<title>Node184</title>
<g id="a_node17"><a xlink:href="rpcwallet_8cpp.html#a2f46e2bb304dda9a197b5a68db6106f7" target="_top" xlink:title="importprivkey">
<polygon fill="#ffffff" stroke="#000000" points="678,-76.5 678,-95.5 753,-95.5 753,-76.5 678,-76.5"/>
<text text-anchor="middle" x="715.5" y="-83.5" font-family="Helvetica,sans-Serif" font-size="10.00" fill="#000000">importprivkey</text>
</a>
</g>
</g>
<!-- Node181&#45;&gt;Node184 -->
<g id="edge17" class="edge">
<title>Node181&#45;&gt;Node184</title>
<path fill="none" stroke="#191970" d="M609.4861,-97.4123C632.8557,-94.8966 657.959,-92.1942 677.8689,-90.0509"/>
<polygon fill="#191970" stroke="#191970" points="608.8156,-93.9641 599.2476,-98.5144 609.5648,-100.9239 608.8156,-93.9641"/>
</g>
<!-- Node186 -->
<g id="node19" class="node">
<title>Node186</title>
<g id="a_node19"><a xlink:href="wallet__tests_8cpp.html#a8c64ef6e0ced69002923098229448758" target="_top" xlink:title="importwallet">
<polygon fill="#ffffff" stroke="#000000" points="681,-38.5 681,-57.5 750,-57.5 750,-38.5 681,-38.5"/>
<text text-anchor="middle" x="715.5" y="-45.5" font-family="Helvetica,sans-Serif" font-size="10.00" fill="#000000">importwallet</text>
</a>
</g>
</g>
<!-- Node181&#45;&gt;Node186 -->
<g id="edge19" class="edge">
<title>Node181&#45;&gt;Node186</title>
<path fill="none" stroke="#191970" d="M573.6563,-91.7749C594.2466,-84.1188 620.9529,-74.5371 645,-67 656.6122,-63.3604 669.4293,-59.7786 680.9147,-56.7231"/>
<polygon fill="#191970" stroke="#191970" points="572.2158,-88.5768 564.0781,-95.3612 574.6705,-95.1324 572.2158,-88.5768"/>
</g>
<!-- Node187 -->
<g id="node20" class="node">
<title>Node187</title>
<g id="a_node20"><a xlink:href="rpcdump_8cpp.html#a0ccf80d09e7c16fb3035c4b81bf4a4d8" target="_top" xlink:title="ProcessImport">
<polygon fill="#ffffff" stroke="#000000" points="675.5,-.5 675.5,-19.5 755.5,-19.5 755.5,-.5 675.5,-.5"/>
<text text-anchor="middle" x="715.5" y="-7.5" font-family="Helvetica,sans-Serif" font-size="10.00" fill="#000000">ProcessImport</text>
</a>
</g>
</g>
<!-- Node181&#45;&gt;Node187 -->
<g id="edge20" class="edge">
<title>Node181&#45;&gt;Node187</title>
<path fill="none" stroke="#191970" d="M557.3668,-88.6538C577.534,-71.5011 611.5195,-44.8701 645,-29 654.5073,-24.4934 665.2605,-20.9119 675.4524,-18.1292"/>
<polygon fill="#191970" stroke="#191970" points="554.8825,-86.175 549.6115,-95.3656 559.4634,-91.468 554.8825,-86.175"/>
</g>
<!-- Node185 -->
<g id="node18" class="node">
<title>Node185</title>
<g id="a_node18"><a xlink:href="rpcwallet_8cpp.html#a151535abf7394b299deb8d0a333de70b" target="_top" xlink:title="rescanblockchain">
<polygon fill="#ffffff" stroke="#000000" points="822,-76.5 822,-95.5 914,-95.5 914,-76.5 822,-76.5"/>
<text text-anchor="middle" x="868" y="-83.5" font-family="Helvetica,sans-Serif" font-size="10.00" fill="#000000">rescanblockchain</text>
</a>
</g>
</g>
<!-- Node184&#45;&gt;Node185 -->
<g id="edge18" class="edge">
<title>Node184&#45;&gt;Node185</title>
<path fill="none" stroke="#191970" d="M763.2557,-86C781.9172,-86 803.2382,-86 821.7518,-86"/>
<polygon fill="#191970" stroke="#191970" points="763.1967,-82.5001 753.1966,-86 763.1966,-89.5001 763.1967,-82.5001"/>
</g>
<!-- Node188 -->
<g id="node21" class="node">
<title>Node188</title>
<g id="a_node21"><a xlink:href="wallet__tests_8cpp.html#af0e3c9469f1d8f368d3d5f38e5580367" target="_top" xlink:title="importmulti">
<polygon fill="#ffffff" stroke="#000000" points="835.5,-.5 835.5,-19.5 900.5,-19.5 900.5,-.5 835.5,-.5"/>
<text text-anchor="middle" x="868" y="-7.5" font-family="Helvetica,sans-Serif" font-size="10.00" fill="#000000">importmulti</text>
</a>
</g>
</g>
<!-- Node187&#45;&gt;Node188 -->
<g id="edge21" class="edge">
<title>Node187&#45;&gt;Node188</title>
<path fill="none" stroke="#191970" d="M765.8024,-10C788.6969,-10 815.1349,-10 835.3843,-10"/>
<polygon fill="#191970" stroke="#191970" points="765.5676,-6.5001 755.5676,-10 765.5675,-13.5001 765.5676,-6.5001"/>
</g>
</g>
</svg>
