<?xml version="1.0" encoding="UTF-8" standalone="no"?>
<!DOCTYPE svg PUBLIC "-//W3C//DTD SVG 1.1//EN"
 "http://www.w3.org/Graphics/SVG/1.1/DTD/svg11.dtd">
<!-- Generated by graphviz version 2.40.1 (20161225.0304)
 -->
<!-- Title: src/secp256k1/src/hash.h Pages: 1 -->
<svg width="1212pt" height="296pt"
 viewBox="0.00 0.00 1211.50 296.00" xmlns="http://www.w3.org/2000/svg" xmlns:xlink="http://www.w3.org/1999/xlink">
<g id="graph0" class="graph" transform="scale(1 1) rotate(0) translate(4 292)">
<title>src/secp256k1/src/hash.h</title>
<polygon fill="#ffffff" stroke="transparent" points="-4,4 -4,-292 1207.5,-292 1207.5,4 -4,4"/>
<!-- Node3 -->
<g id="node1" class="node">
<title>Node3</title>
<polygon fill="#bfbfbf" stroke="#000000" points="598.5,-268.5 598.5,-287.5 727.5,-287.5 727.5,-268.5 598.5,-268.5"/>
<text text-anchor="middle" x="663" y="-275.5" font-family="Helvetica,sans-Serif" font-size="10.00" fill="#000000">src/secp256k1/src/hash.h</text>
</g>
<!-- Node4 -->
<g id="node2" class="node">
<title>Node4</title>
<g id="a_node2"><a xlink:href="assettypes_8cpp.html" target="_top" xlink:title="src/assets/assettypes.cpp">
<polygon fill="#ffffff" stroke="#000000" points="0,-207 0,-226 132,-226 132,-207 0,-207"/>
<text text-anchor="middle" x="66" y="-214" font-family="Helvetica,sans-Serif" font-size="10.00" fill="#000000">src/assets/assettypes.cpp</text>
</a>
</g>
</g>
<!-- Node3&#45;&gt;Node4 -->
<g id="edge1" class="edge">
<title>Node3&#45;&gt;Node4</title>
<path fill="none" stroke="#191970" d="M588.2678,-274.1441C486.6465,-268.2796 299.3795,-255.2643 141,-232 130.213,-230.4155 118.6415,-228.2558 107.8947,-226.0519"/>
<polygon fill="#191970" stroke="#191970" points="588.2472,-277.6485 598.4302,-274.7232 588.6455,-270.6599 588.2472,-277.6485"/>
</g>
<!-- Node5 -->
<g id="node3" class="node">
<title>Node5</title>
<g id="a_node3"><a xlink:href="crypto__hash_8cpp.html" target="_top" xlink:title="src/bench/crypto_hash.cpp">
<polygon fill="#ffffff" stroke="#000000" points="150,-207 150,-226 284,-226 284,-207 150,-207"/>
<text text-anchor="middle" x="217" y="-214" font-family="Helvetica,sans-Serif" font-size="10.00" fill="#000000">src/bench/crypto_hash.cpp</text>
</a>
</g>
</g>
<!-- Node3&#45;&gt;Node5 -->
<g id="edge2" class="edge">
<title>Node3&#45;&gt;Node5</title>
<path fill="none" stroke="#191970" d="M588.0051,-270.4004C513.0842,-262.4034 394.7325,-248.6722 293,-232 282.5019,-230.2795 271.2456,-228.1449 260.6987,-226.0154"/>
<polygon fill="#191970" stroke="#191970" points="587.9689,-273.9161 598.2823,-271.4905 588.7073,-266.9552 587.9689,-273.9161"/>
</g>
<!-- Node6 -->
<g id="node4" class="node">
<title>Node6</title>
<g id="a_node4"><a xlink:href="merkle_8cpp.html" target="_top" xlink:title="src/consensus/merkle.cpp">
<polygon fill="#ffffff" stroke="#000000" points="302.5,-207 302.5,-226 433.5,-226 433.5,-207 302.5,-207"/>
<text text-anchor="middle" x="368" y="-214" font-family="Helvetica,sans-Serif" font-size="10.00" fill="#000000">src/consensus/merkle.cpp</text>
</a>
</g>
</g>
<!-- Node3&#45;&gt;Node6 -->
<g id="edge3" class="edge">
<title>Node3&#45;&gt;Node6</title>
<path fill="none" stroke="#191970" d="M607.132,-266.3529C551.1572,-254.6836 466.0276,-236.9363 413.8775,-226.0643"/>
<polygon fill="#191970" stroke="#191970" points="606.7261,-269.8435 617.2299,-268.4581 608.1547,-262.9908 606.7261,-269.8435"/>
</g>
<!-- Node7 -->
<g id="node5" class="node">
<title>Node7</title>
<g id="a_node5"><a xlink:href="block_8cpp.html" target="_top" xlink:title="src/primitives/block.cpp">
<polygon fill="#ffffff" stroke="#000000" points="452,-207 452,-226 572,-226 572,-207 452,-207"/>
<text text-anchor="middle" x="512" y="-214" font-family="Helvetica,sans-Serif" font-size="10.00" fill="#000000">src/primitives/block.cpp</text>
</a>
</g>
</g>
<!-- Node3&#45;&gt;Node7 -->
<g id="edge4" class="edge">
<title>Node3&#45;&gt;Node7</title>
<path fill="none" stroke="#191970" d="M629.8427,-264.4955C601.2692,-252.858 560.7377,-236.3501 535.4281,-226.0419"/>
<polygon fill="#191970" stroke="#191970" points="628.8247,-267.86 639.4063,-268.3906 631.4651,-261.3771 628.8247,-267.86"/>
</g>
<!-- Node8 -->
<g id="node6" class="node">
<title>Node8</title>
<g id="a_node6"><a xlink:href="transaction_8cpp.html" target="_top" xlink:title="src/primitives/transaction.cpp">
<polygon fill="#ffffff" stroke="#000000" points="590.5,-207 590.5,-226 735.5,-226 735.5,-207 590.5,-207"/>
<text text-anchor="middle" x="663" y="-214" font-family="Helvetica,sans-Serif" font-size="10.00" fill="#000000">src/primitives/transaction.cpp</text>
</a>
</g>
</g>
<!-- Node3&#45;&gt;Node8 -->
<g id="edge5" class="edge">
<title>Node3&#45;&gt;Node8</title>
<path fill="none" stroke="#191970" d="M663,-258.2462C663,-247.5519 663,-234.814 663,-226.2449"/>
<polygon fill="#191970" stroke="#191970" points="659.5001,-258.3906 663,-268.3906 666.5001,-258.3907 659.5001,-258.3906"/>
</g>
<!-- Node9 -->
<g id="node7" class="node">
<title>Node9</title>
<g id="a_node7"><a xlink:href="blockchain_8cpp.html" target="_top" xlink:title="src/rpc/blockchain.cpp">
<polygon fill="#ffffff" stroke="#000000" points="753.5,-207 753.5,-226 868.5,-226 868.5,-207 753.5,-207"/>
<text text-anchor="middle" x="811" y="-214" font-family="Helvetica,sans-Serif" font-size="10.00" fill="#000000">src/rpc/blockchain.cpp</text>
</a>
</g>
</g>
<!-- Node3&#45;&gt;Node9 -->
<g id="edge6" class="edge">
<title>Node3&#45;&gt;Node9</title>
<path fill="none" stroke="#191970" d="M695.4985,-264.4955C723.5044,-252.858 763.2306,-236.3501 788.0374,-226.0419"/>
<polygon fill="#191970" stroke="#191970" points="694.0164,-261.3212 686.125,-268.3906 696.7025,-267.7853 694.0164,-261.3212"/>
</g>
<!-- Node10 -->
<g id="node8" class="node">
<title>Node10</title>
<g id="a_node8"><a xlink:href="hash__impl_8h.html" target="_top" xlink:title="src/secp256k1/src/hash\l_impl.h">
<polygon fill="#ffffff" stroke="#000000" points="886.5,-201.5 886.5,-231.5 1007.5,-231.5 1007.5,-201.5 886.5,-201.5"/>
<text text-anchor="start" x="894.5" y="-219.5" font-family="Helvetica,sans-Serif" font-size="10.00" fill="#000000">src/secp256k1/src/hash</text>
<text text-anchor="middle" x="947" y="-208.5" font-family="Helvetica,sans-Serif" font-size="10.00" fill="#000000">_impl.h</text>
</a>
</g>
</g>
<!-- Node3&#45;&gt;Node10 -->
<g id="edge7" class="edge">
<title>Node3&#45;&gt;Node10</title>
<path fill="none" stroke="#191970" d="M717.7222,-266.3346C760.9721,-257.0914 822.8636,-243.812 877,-232 880.0403,-231.3366 883.1543,-230.655 886.2987,-229.9651"/>
<polygon fill="#191970" stroke="#191970" points="716.7414,-262.9651 707.6933,-268.4771 718.2039,-269.8106 716.7414,-262.9651"/>
</g>
<!-- Node17 -->
<g id="node15" class="node">
<title>Node17</title>
<g id="a_node15"><a xlink:href="testrand__impl_8h.html" target="_top" xlink:title="src/secp256k1/src/testrand\l_impl.h">
<polygon fill="#ffffff" stroke="#000000" points="1068.5,-67.5 1068.5,-97.5 1203.5,-97.5 1203.5,-67.5 1068.5,-67.5"/>
<text text-anchor="start" x="1076.5" y="-85.5" font-family="Helvetica,sans-Serif" font-size="10.00" fill="#000000">src/secp256k1/src/testrand</text>
<text text-anchor="middle" x="1136" y="-74.5" font-family="Helvetica,sans-Serif" font-size="10.00" fill="#000000">_impl.h</text>
</a>
</g>
</g>
<!-- Node3&#45;&gt;Node17 -->
<g id="edge16" class="edge">
<title>Node3&#45;&gt;Node17</title>
<path fill="none" stroke="#191970" d="M737.9066,-274.8231C827.3484,-269.9081 970.6833,-258.1431 1017,-232 1046.1058,-215.5714 1103.1181,-132.3836 1126.0737,-97.7084"/>
<polygon fill="#191970" stroke="#191970" points="737.6137,-271.3337 727.8143,-275.3613 737.9865,-278.3237 737.6137,-271.3337"/>
</g>
<!-- Node18 -->
<g id="node16" class="node">
<title>Node18</title>
<g id="a_node16"><a xlink:href="db_8cpp.html" target="_top" xlink:title="src/wallet/db.cpp">
<polygon fill="#ffffff" stroke="#000000" points="1064.5,-207 1064.5,-226 1155.5,-226 1155.5,-207 1064.5,-207"/>
<text text-anchor="middle" x="1110" y="-214" font-family="Helvetica,sans-Serif" font-size="10.00" fill="#000000">src/wallet/db.cpp</text>
</a>
</g>
</g>
<!-- Node3&#45;&gt;Node18 -->
<g id="edge19" class="edge">
<title>Node3&#45;&gt;Node18</title>
<path fill="none" stroke="#191970" d="M738.0214,-272.0948C816.3204,-265.2294 942.4457,-252.1897 1050,-232 1058.5649,-230.3922 1067.7166,-228.2501 1076.2263,-226.0728"/>
<polygon fill="#191970" stroke="#191970" points="737.431,-268.6327 727.7702,-272.9823 738.0348,-275.6066 737.431,-268.6327"/>
</g>
<!-- Node11 -->
<g id="node9" class="node">
<title>Node11</title>
<g id="a_node9"><a xlink:href="bench__internal_8c.html" target="_top" xlink:title="src/secp256k1/src/bench\l_internal.c">
<polygon fill="#ffffff" stroke="#000000" points="724,-.5 724,-30.5 850,-30.5 850,-.5 724,-.5"/>
<text text-anchor="start" x="732" y="-18.5" font-family="Helvetica,sans-Serif" font-size="10.00" fill="#000000">src/secp256k1/src/bench</text>
<text text-anchor="middle" x="787" y="-7.5" font-family="Helvetica,sans-Serif" font-size="10.00" fill="#000000">_internal.c</text>
</a>
</g>
</g>
<!-- Node10&#45;&gt;Node11 -->
<g id="edge8" class="edge">
<title>Node10&#45;&gt;Node11</title>
<path fill="none" stroke="#191970" d="M876.5333,-199.0649C852.7541,-191.0953 826.9526,-179.9997 806,-165 774.902,-142.7373 764.725,-134.0665 752,-98 747.4159,-85.0072 747.9487,-80.1687 752,-67 756.1323,-53.5678 765.0933,-40.4972 772.9133,-30.8848"/>
<polygon fill="#191970" stroke="#191970" points="875.6374,-202.4533 886.2288,-202.183 877.7806,-195.7894 875.6374,-202.4533"/>
</g>
<!-- Node12 -->
<g id="node10" class="node">
<title>Node12</title>
<g id="a_node10"><a xlink:href="ecmult__gen__impl_8h.html" target="_top" xlink:title="src/secp256k1/src/ecmult\l_gen_impl.h">
<polygon fill="#ffffff" stroke="#000000" points="815.5,-134.5 815.5,-164.5 944.5,-164.5 944.5,-134.5 815.5,-134.5"/>
<text text-anchor="start" x="823.5" y="-152.5" font-family="Helvetica,sans-Serif" font-size="10.00" fill="#000000">src/secp256k1/src/ecmult</text>
<text text-anchor="middle" x="880" y="-141.5" font-family="Helvetica,sans-Serif" font-size="10.00" fill="#000000">_gen_impl.h</text>
</a>
</g>
</g>
<!-- Node10&#45;&gt;Node12 -->
<g id="edge9" class="edge">
<title>Node10&#45;&gt;Node12</title>
<path fill="none" stroke="#191970" d="M924.7113,-194.2113C915.0009,-184.5009 903.8698,-173.3698 895.1432,-164.6432"/>
<polygon fill="#191970" stroke="#191970" points="922.2507,-196.7004 931.7967,-201.2967 927.2004,-191.7507 922.2507,-196.7004"/>
</g>
<!-- Node13 -->
<g id="node11" class="node">
<title>Node13</title>
<g id="a_node11"><a xlink:href="secp256k1_8c.html" target="_top" xlink:title="src/secp256k1/src/secp256k1.c">
<polygon fill="#ffffff" stroke="#000000" points="895.5,-73 895.5,-92 1050.5,-92 1050.5,-73 895.5,-73"/>
<text text-anchor="middle" x="973" y="-80" font-family="Helvetica,sans-Serif" font-size="10.00" fill="#000000">src/secp256k1/src/secp256k1.c</text>
</a>
</g>
</g>
<!-- Node10&#45;&gt;Node13 -->
<g id="edge15" class="edge">
<title>Node10&#45;&gt;Node13</title>
<path fill="none" stroke="#191970" d="M951.8981,-191.2559C957.7235,-161.2327 967.1583,-112.6073 971.1365,-92.1042"/>
<polygon fill="#191970" stroke="#191970" points="948.4009,-190.9054 949.932,-201.389 955.2728,-192.2388 948.4009,-190.9054"/>
</g>
<!-- Node12&#45;&gt;Node13 -->
<g id="edge10" class="edge">
<title>Node12&#45;&gt;Node13</title>
<path fill="none" stroke="#191970" d="M909.5494,-128.2117C926.4103,-116.0646 946.7159,-101.4358 959.7371,-92.055"/>
<polygon fill="#191970" stroke="#191970" points="907.171,-125.6115 901.1031,-134.2967 911.2627,-131.2911 907.171,-125.6115"/>
</g>
<!-- Node16 -->
<g id="node14" class="node">
<title>Node16</title>
<g id="a_node14"><a xlink:href="gen__context_8c.html" target="_top" xlink:title="src/secp256k1/src/gen\l_context.c">
<polygon fill="#ffffff" stroke="#000000" points="761,-67.5 761,-97.5 877,-97.5 877,-67.5 761,-67.5"/>
<text text-anchor="start" x="769" y="-85.5" font-family="Helvetica,sans-Serif" font-size="10.00" fill="#000000">src/secp256k1/src/gen</text>
<text text-anchor="middle" x="819" y="-74.5" font-family="Helvetica,sans-Serif" font-size="10.00" fill="#000000">_context.c</text>
</a>
</g>
</g>
<!-- Node12&#45;&gt;Node16 -->
<g id="edge14" class="edge">
<title>Node12&#45;&gt;Node16</title>
<path fill="none" stroke="#191970" d="M859.1858,-126.6385C850.4699,-117.0653 840.5765,-106.1987 832.7871,-97.6432"/>
<polygon fill="#191970" stroke="#191970" points="856.8379,-129.2585 866.1582,-134.2967 862.014,-124.5459 856.8379,-129.2585"/>
</g>
<!-- Node13&#45;&gt;Node11 -->
<g id="edge11" class="edge">
<title>Node13&#45;&gt;Node11</title>
<path fill="none" stroke="#191970" d="M936.8009,-69.4605C905.8107,-58.2974 861.1822,-42.2216 828.7022,-30.5218"/>
<polygon fill="#191970" stroke="#191970" points="935.7563,-72.8044 946.3507,-72.9005 938.1287,-66.2186 935.7563,-72.8044"/>
</g>
<!-- Node14 -->
<g id="node12" class="node">
<title>Node14</title>
<g id="a_node12"><a xlink:href="tests_8c.html" target="_top" xlink:title="src/secp256k1/src/tests.c">
<polygon fill="#ffffff" stroke="#000000" points="1066,-6 1066,-25 1196,-25 1196,-6 1066,-6"/>
<text text-anchor="middle" x="1131" y="-13" font-family="Helvetica,sans-Serif" font-size="10.00" fill="#000000">src/secp256k1/src/tests.c</text>
</a>
</g>
</g>
<!-- Node13&#45;&gt;Node14 -->
<g id="edge12" class="edge">
<title>Node13&#45;&gt;Node14</title>
<path fill="none" stroke="#191970" d="M1005.0437,-68.9118C1035.753,-55.8895 1081.3209,-36.5664 1108.4044,-25.0817"/>
<polygon fill="#191970" stroke="#191970" points="1003.4776,-65.7742 995.6375,-72.9005 1006.2104,-72.2187 1003.4776,-65.7742"/>
</g>
<!-- Node15 -->
<g id="node13" class="node">
<title>Node15</title>
<g id="a_node13"><a xlink:href="tests__exhaustive_8c.html" target="_top" xlink:title="src/secp256k1/src/tests\l_exhaustive.c">
<polygon fill="#ffffff" stroke="#000000" points="917,-.5 917,-30.5 1039,-30.5 1039,-.5 917,-.5"/>
<text text-anchor="start" x="925" y="-18.5" font-family="Helvetica,sans-Serif" font-size="10.00" fill="#000000">src/secp256k1/src/tests</text>
<text text-anchor="middle" x="978" y="-7.5" font-family="Helvetica,sans-Serif" font-size="10.00" fill="#000000">_exhaustive.c</text>
</a>
</g>
</g>
<!-- Node13&#45;&gt;Node15 -->
<g id="edge13" class="edge">
<title>Node13&#45;&gt;Node15</title>
<path fill="none" stroke="#191970" d="M974.472,-62.7758C975.2415,-52.4641 976.1684,-40.0437 976.879,-30.5218"/>
<polygon fill="#191970" stroke="#191970" points="970.9704,-62.6678 973.7164,-72.9005 977.951,-63.1888 970.9704,-62.6678"/>
</g>
<!-- Node17&#45;&gt;Node14 -->
<g id="edge17" class="edge">
<title>Node17&#45;&gt;Node14</title>
<path fill="none" stroke="#191970" d="M1134.106,-57.1199C1133.2692,-45.9072 1132.3361,-33.4031 1131.7131,-25.055"/>
<polygon fill="#191970" stroke="#191970" points="1130.6308,-57.5849 1134.8654,-67.2967 1137.6114,-57.0639 1130.6308,-57.5849"/>
</g>
<!-- Node17&#45;&gt;Node15 -->
<g id="edge18" class="edge">
<title>Node17&#45;&gt;Node15</title>
<path fill="none" stroke="#191970" d="M1091.0798,-63.4516C1066.5252,-53.0392 1036.5364,-40.3224 1013.6129,-30.6017"/>
<polygon fill="#191970" stroke="#191970" points="1089.9688,-66.7821 1100.5417,-67.4639 1092.7017,-60.3376 1089.9688,-66.7821"/>
</g>
</g>
</svg>
