<?xml version="1.0" encoding="UTF-8" standalone="no"?>
<!DOCTYPE svg PUBLIC "-//W3C//DTD SVG 1.1//EN"
 "http://www.w3.org/Graphics/SVG/1.1/DTD/svg11.dtd">
<!-- Generated by graphviz version 2.40.1 (20161225.0304)
 -->
<!-- Title: sph_fugue512_close Pages: 1 -->
<svg width="742pt" height="388pt"
 viewBox="0.00 0.00 742.00 388.32" xmlns="http://www.w3.org/2000/svg" xmlns:xlink="http://www.w3.org/1999/xlink">
<g id="graph0" class="graph" transform="scale(1 1) rotate(0) translate(4 384.3184)">
<title>sph_fugue512_close</title>
<polygon fill="#ffffff" stroke="transparent" points="-4,4 -4,-384.3184 738,-384.3184 738,4 -4,4"/>
<!-- Node46 -->
<g id="node1" class="node">
<title>Node46</title>
<polygon fill="#bfbfbf" stroke="#000000" points="0,-183.5 0,-202.5 106,-202.5 106,-183.5 0,-183.5"/>
<text text-anchor="middle" x="53" y="-190.5" font-family="Helvetica,sans-Serif" font-size="10.00" fill="#000000">sph_fugue512_close</text>
</g>
<!-- Node47 -->
<g id="node2" class="node">
<title>Node47</title>
<g id="a_node2"><a xlink:href="hash_8h.html#ae235360a54ec41155191de749170ab61" target="_top" xlink:title="HashX16R">
<polygon fill="#ffffff" stroke="#000000" points="142,-183.5 142,-202.5 207,-202.5 207,-183.5 142,-183.5"/>
<text text-anchor="middle" x="174.5" y="-190.5" font-family="Helvetica,sans-Serif" font-size="10.00" fill="#000000">HashX16R</text>
</a>
</g>
</g>
<!-- Node46&#45;&gt;Node47 -->
<g id="edge1" class="edge">
<title>Node46&#45;&gt;Node47</title>
<path fill="none" stroke="#191970" d="M116.5649,-193C125.3229,-193 134.0026,-193 141.8741,-193"/>
<polygon fill="#191970" stroke="#191970" points="116.2917,-189.5001 106.2917,-193 116.2916,-196.5001 116.2917,-189.5001"/>
</g>
<!-- Node48 -->
<g id="node3" class="node">
<title>Node48</title>
<g id="a_node3"><a xlink:href="class_c_block_header.html#af0239f86a13f622a826e9eea66b2d7f3" target="_top" xlink:title="CBlockHeader::GetHash">
<polygon fill="#ffffff" stroke="#000000" points="243,-183.5 243,-202.5 368,-202.5 368,-183.5 243,-183.5"/>
<text text-anchor="middle" x="305.5" y="-190.5" font-family="Helvetica,sans-Serif" font-size="10.00" fill="#000000">CBlockHeader::GetHash</text>
</a>
</g>
</g>
<!-- Node47&#45;&gt;Node48 -->
<g id="edge2" class="edge">
<title>Node47&#45;&gt;Node48</title>
<path fill="none" stroke="#191970" d="M217.2515,-193C225.4365,-193 234.1627,-193 242.8229,-193"/>
<polygon fill="#191970" stroke="#191970" points="217.2189,-189.5001 207.2189,-193 217.2189,-196.5001 217.2189,-189.5001"/>
</g>
<!-- Node49 -->
<g id="node4" class="node">
<title>Node49</title>
<g id="a_node4"><a xlink:href="class_partially_downloaded_block.html#ae31ee4302e77d9757aae8b96df99486a" target="_top" xlink:title="PartiallyDownloadedBlock\l::FillBlock">
<polygon fill="#ffffff" stroke="#000000" points="603,-331 603,-361 734,-361 734,-331 603,-331"/>
<text text-anchor="start" x="611" y="-349" font-family="Helvetica,sans-Serif" font-size="10.00" fill="#000000">PartiallyDownloadedBlock</text>
<text text-anchor="middle" x="668.5" y="-338" font-family="Helvetica,sans-Serif" font-size="10.00" fill="#000000">::FillBlock</text>
</a>
</g>
</g>
<!-- Node48&#45;&gt;Node49 -->
<g id="edge3" class="edge">
<title>Node48&#45;&gt;Node49</title>
<path fill="none" stroke="#191970" d="M310.4644,-212.6654C320.8084,-248.9471 348.4651,-325.5731 404,-357 473.1988,-396.1592 569.663,-377.3688 624.94,-361.0681"/>
<polygon fill="#191970" stroke="#191970" points="313.7851,-211.5368 307.7983,-202.7955 307.0273,-213.3623 313.7851,-211.5368"/>
</g>
<!-- Node50 -->
<g id="node5" class="node">
<title>Node50</title>
<g id="a_node5"><a xlink:href="class_c_disk_block_index.html#acc607a9082c558d7301077631b66122b" target="_top" xlink:title="CDiskBlockIndex::GetBlockHash">
<polygon fill="#ffffff" stroke="#000000" points="404,-328.5 404,-347.5 567,-347.5 567,-328.5 404,-328.5"/>
<text text-anchor="middle" x="485.5" y="-335.5" font-family="Helvetica,sans-Serif" font-size="10.00" fill="#000000">CDiskBlockIndex::GetBlockHash</text>
</a>
</g>
</g>
<!-- Node48&#45;&gt;Node50 -->
<g id="edge4" class="edge">
<title>Node48&#45;&gt;Node50</title>
<path fill="none" stroke="#191970" d="M314.8322,-211.8258C329.6991,-239.7747 361.4784,-291.8551 404,-319 410.1231,-322.9088 416.9633,-326.0156 424.007,-328.4844"/>
<polygon fill="#191970" stroke="#191970" points="317.826,-209.9949 310.1316,-202.7116 311.6047,-213.2035 317.826,-209.9949"/>
</g>
<!-- Node51 -->
<g id="node6" class="node">
<title>Node51</title>
<g id="a_node6"><a xlink:href="class_peer_logic_validation.html#a124965d7310e0df08cc027d4e1cbbe7b" target="_top" xlink:title="Notifies listeners of a block validation result. ">
<polygon fill="#ffffff" stroke="#000000" points="434,-279 434,-309 537,-309 537,-279 434,-279"/>
<text text-anchor="start" x="442" y="-297" font-family="Helvetica,sans-Serif" font-size="10.00" fill="#000000">PeerLogicValidation</text>
<text text-anchor="middle" x="485.5" y="-286" font-family="Helvetica,sans-Serif" font-size="10.00" fill="#000000">::BlockChecked</text>
</a>
</g>
</g>
<!-- Node48&#45;&gt;Node51 -->
<g id="edge5" class="edge">
<title>Node48&#45;&gt;Node51</title>
<path fill="none" stroke="#191970" d="M322.709,-209.431C341.3878,-226.4697 372.7499,-252.8339 404,-269 413.3331,-273.8281 423.7582,-277.9012 433.9517,-281.2665"/>
<polygon fill="#191970" stroke="#191970" points="325.0007,-206.7827 315.2913,-202.5426 320.2373,-211.9121 325.0007,-206.7827"/>
</g>
<!-- Node52 -->
<g id="node7" class="node">
<title>Node52</title>
<g id="a_node7"><a xlink:href="class_c_block.html#a0e8a98f10831c00ae76b3a831c4804e5" target="_top" xlink:title="CBlock::ToString">
<polygon fill="#ffffff" stroke="#000000" points="439.5,-240.5 439.5,-259.5 531.5,-259.5 531.5,-240.5 439.5,-240.5"/>
<text text-anchor="middle" x="485.5" y="-247.5" font-family="Helvetica,sans-Serif" font-size="10.00" fill="#000000">CBlock::ToString</text>
</a>
</g>
</g>
<!-- Node48&#45;&gt;Node52 -->
<g id="edge6" class="edge">
<title>Node48&#45;&gt;Node52</title>
<path fill="none" stroke="#191970" d="M337.2941,-206.562C356.3986,-214.384 381.3252,-224.0202 404,-231 415.3863,-234.5049 427.8402,-237.7139 439.5095,-240.457"/>
<polygon fill="#191970" stroke="#191970" points="338.4553,-203.2547 327.8771,-202.6607 335.7761,-209.7217 338.4553,-203.2547"/>
</g>
<!-- Node53 -->
<g id="node8" class="node">
<title>Node53</title>
<g id="a_node8"><a xlink:href="class_c_block_header.html#afb875dba7ce6e26c01509244e3cd950f" target="_top" xlink:title="CBlockHeader::IsNull">
<polygon fill="#ffffff" stroke="#000000" points="429.5,-202.5 429.5,-221.5 541.5,-221.5 541.5,-202.5 429.5,-202.5"/>
<text text-anchor="middle" x="485.5" y="-209.5" font-family="Helvetica,sans-Serif" font-size="10.00" fill="#000000">CBlockHeader::IsNull</text>
</a>
</g>
</g>
<!-- Node48&#45;&gt;Node53 -->
<g id="edge7" class="edge">
<title>Node48&#45;&gt;Node53</title>
<path fill="none" stroke="#191970" d="M378.6081,-200.717C395.5274,-202.5029 413.2728,-204.376 429.3354,-206.0715"/>
<polygon fill="#191970" stroke="#191970" points="378.5148,-197.1878 368.2026,-199.6186 377.7799,-204.1491 378.5148,-197.1878"/>
</g>
<!-- Node56 -->
<g id="node11" class="node">
<title>Node56</title>
<g id="a_node11"><a xlink:href="mining_8h.html#a4910d289954727eb7c4c24a6b3c50c55" target="_top" xlink:title="Generate blocks (mine) ">
<polygon fill="#ffffff" stroke="#000000" points="443.5,-164.5 443.5,-183.5 527.5,-183.5 527.5,-164.5 443.5,-164.5"/>
<text text-anchor="middle" x="485.5" y="-171.5" font-family="Helvetica,sans-Serif" font-size="10.00" fill="#000000">generateBlocks</text>
</a>
</g>
</g>
<!-- Node48&#45;&gt;Node56 -->
<g id="edge11" class="edge">
<title>Node48&#45;&gt;Node56</title>
<path fill="none" stroke="#191970" d="M378.249,-185.3209C400.3803,-182.9849 423.9575,-180.4962 443.3535,-178.4488"/>
<polygon fill="#191970" stroke="#191970" points="377.7799,-181.8509 368.2026,-186.3814 378.5148,-188.8122 377.7799,-181.8509"/>
</g>
<!-- Node59 -->
<g id="node14" class="node">
<title>Node59</title>
<g id="a_node14"><a xlink:href="mining_8cpp.html#a39d592ef311818f32e6081ec6be2f462" target="_top" xlink:title="getblocktemplate">
<polygon fill="#ffffff" stroke="#000000" points="440,-126.5 440,-145.5 531,-145.5 531,-126.5 440,-126.5"/>
<text text-anchor="middle" x="485.5" y="-133.5" font-family="Helvetica,sans-Serif" font-size="10.00" fill="#000000">getblocktemplate</text>
</a>
</g>
</g>
<!-- Node48&#45;&gt;Node59 -->
<g id="edge14" class="edge">
<title>Node48&#45;&gt;Node59</title>
<path fill="none" stroke="#191970" d="M337.2941,-179.438C356.3986,-171.616 381.3252,-161.9798 404,-155 415.5252,-151.4523 428.1441,-148.2078 439.936,-145.4429"/>
<polygon fill="#191970" stroke="#191970" points="335.7761,-176.2783 327.8771,-183.3393 338.4553,-182.7453 335.7761,-176.2783"/>
</g>
<!-- Node60 -->
<g id="node15" class="node">
<title>Node60</title>
<g id="a_node15"><a xlink:href="classsubmitblock___state_catcher.html#a89abec4d0d8ea6b2cd651439e3a4f45f" target="_top" xlink:title="Notifies listeners of a block validation result. ">
<polygon fill="#ffffff" stroke="#000000" points="419.5,-77 419.5,-107 551.5,-107 551.5,-77 419.5,-77"/>
<text text-anchor="start" x="427.5" y="-95" font-family="Helvetica,sans-Serif" font-size="10.00" fill="#000000">submitblock_StateCatcher</text>
<text text-anchor="middle" x="485.5" y="-84" font-family="Helvetica,sans-Serif" font-size="10.00" fill="#000000">::BlockChecked</text>
</a>
</g>
</g>
<!-- Node48&#45;&gt;Node60 -->
<g id="edge15" class="edge">
<title>Node48&#45;&gt;Node60</title>
<path fill="none" stroke="#191970" d="M322.709,-176.569C341.3878,-159.5303 372.7499,-133.1661 404,-117 411.2299,-113.2599 419.1151,-109.9729 427.0402,-107.117"/>
<polygon fill="#191970" stroke="#191970" points="320.2373,-174.0879 315.2913,-183.4574 325.0007,-179.2173 320.2373,-174.0879"/>
</g>
<!-- Node61 -->
<g id="node16" class="node">
<title>Node61</title>
<g id="a_node16"><a xlink:href="validation_8h.html#aee79e45a0b167f9b312f83a23880cfbc" target="_top" xlink:title="ReadBlockFromDisk">
<polygon fill="#ffffff" stroke="#000000" points="432,-38.5 432,-57.5 539,-57.5 539,-38.5 432,-38.5"/>
<text text-anchor="middle" x="485.5" y="-45.5" font-family="Helvetica,sans-Serif" font-size="10.00" fill="#000000">ReadBlockFromDisk</text>
</a>
</g>
</g>
<!-- Node48&#45;&gt;Node61 -->
<g id="edge16" class="edge">
<title>Node48&#45;&gt;Node61</title>
<path fill="none" stroke="#191970" d="M314.9116,-174.3856C329.8814,-146.739 361.7923,-95.1748 404,-68 412.3298,-62.6369 421.9848,-58.7119 431.6732,-55.8393"/>
<polygon fill="#191970" stroke="#191970" points="311.7284,-172.9192 310.1752,-183.3996 317.925,-176.1753 311.7284,-172.9192"/>
</g>
<!-- Node62 -->
<g id="node17" class="node">
<title>Node62</title>
<g id="a_node17"><a xlink:href="validation_8h.html#a0c24c7dfe29eb0ea62f868e79f818493" target="_top" xlink:title="Ensures we have a genesis block in the block tree, possibly writing one to disk. ">
<polygon fill="#ffffff" stroke="#000000" points="436.5,-.5 436.5,-19.5 534.5,-19.5 534.5,-.5 436.5,-.5"/>
<text text-anchor="middle" x="485.5" y="-7.5" font-family="Helvetica,sans-Serif" font-size="10.00" fill="#000000">LoadGenesisBlock</text>
</a>
</g>
</g>
<!-- Node48&#45;&gt;Node62 -->
<g id="edge17" class="edge">
<title>Node48&#45;&gt;Node62</title>
<path fill="none" stroke="#191970" d="M311.5203,-173.5433C323.3176,-138.7949 352.8846,-66.2286 404,-29 413.3952,-22.1572 424.8774,-17.7357 436.2247,-14.8904"/>
<polygon fill="#191970" stroke="#191970" points="308.0778,-172.8114 308.3096,-183.4037 314.7339,-174.9787 308.0778,-172.8114"/>
</g>
<!-- Node53&#45;&gt;Node49 -->
<g id="edge10" class="edge">
<title>Node53&#45;&gt;Node49</title>
<path fill="none" stroke="#191970" d="M551.1555,-222.3481C556.7789,-224.6814 562.1594,-227.5284 567,-231 591.6545,-248.6819 583.3369,-265.8946 603,-289 616.4822,-304.8425 634.4625,-320.1683 648.1735,-330.9309"/>
<polygon fill="#191970" stroke="#191970" points="552.1094,-218.9719 541.5149,-218.8865 549.7438,-225.56 552.1094,-218.9719"/>
</g>
<!-- Node54 -->
<g id="node9" class="node">
<title>Node54</title>
<g id="a_node9"><a xlink:href="class_partially_downloaded_block.html#a04e1b3207e547c972e002c1ec472da1f" target="_top" xlink:title="PartiallyDownloadedBlock\l::InitData">
<polygon fill="#ffffff" stroke="#000000" points="603,-249 603,-279 734,-279 734,-249 603,-249"/>
<text text-anchor="start" x="611" y="-267" font-family="Helvetica,sans-Serif" font-size="10.00" fill="#000000">PartiallyDownloadedBlock</text>
<text text-anchor="middle" x="668.5" y="-256" font-family="Helvetica,sans-Serif" font-size="10.00" fill="#000000">::InitData</text>
</a>
</g>
</g>
<!-- Node53&#45;&gt;Node54 -->
<g id="edge8" class="edge">
<title>Node53&#45;&gt;Node54</title>
<path fill="none" stroke="#191970" d="M539.5189,-223.9095C548.7226,-226.1337 558.1608,-228.5376 567,-231 586.1885,-236.3455 607.1596,-243.0207 625.0326,-248.9662"/>
<polygon fill="#191970" stroke="#191970" points="540.2013,-220.4743 529.6635,-221.5721 538.5859,-227.2853 540.2013,-220.4743"/>
</g>
<!-- Node55 -->
<g id="node10" class="node">
<title>Node55</title>
<g id="a_node10"><a xlink:href="class_partially_downloaded_block.html#ad8f41f80c9aba45402fc1033a478a97b" target="_top" xlink:title="PartiallyDownloadedBlock\l::IsTxAvailable">
<polygon fill="#ffffff" stroke="#000000" points="603,-200 603,-230 734,-230 734,-200 603,-200"/>
<text text-anchor="start" x="611" y="-218" font-family="Helvetica,sans-Serif" font-size="10.00" fill="#000000">PartiallyDownloadedBlock</text>
<text text-anchor="middle" x="668.5" y="-207" font-family="Helvetica,sans-Serif" font-size="10.00" fill="#000000">::IsTxAvailable</text>
</a>
</g>
</g>
<!-- Node53&#45;&gt;Node55 -->
<g id="edge9" class="edge">
<title>Node53&#45;&gt;Node55</title>
<path fill="none" stroke="#191970" d="M552.0595,-213.0911C568.6582,-213.3632 586.4424,-213.6548 602.99,-213.9261"/>
<polygon fill="#191970" stroke="#191970" points="551.9553,-209.5891 541.8993,-212.9246 551.8405,-216.5881 551.9553,-209.5891"/>
</g>
<!-- Node57 -->
<g id="node12" class="node">
<title>Node57</title>
<g id="a_node12"><a xlink:href="mining_8cpp.html#a16cf276c50111f451fdbd5dfbe3c8a6b" target="_top" xlink:title="generatetoaddress">
<polygon fill="#ffffff" stroke="#000000" points="620,-161.5 620,-180.5 717,-180.5 717,-161.5 620,-161.5"/>
<text text-anchor="middle" x="668.5" y="-168.5" font-family="Helvetica,sans-Serif" font-size="10.00" fill="#000000">generatetoaddress</text>
</a>
</g>
</g>
<!-- Node56&#45;&gt;Node57 -->
<g id="edge12" class="edge">
<title>Node56&#45;&gt;Node57</title>
<path fill="none" stroke="#191970" d="M538.2571,-173.1351C563.9649,-172.7137 594.6771,-172.2102 619.8198,-171.798"/>
<polygon fill="#191970" stroke="#191970" points="537.8851,-169.6407 527.9438,-173.3042 537.9999,-176.6397 537.8851,-169.6407"/>
</g>
<!-- Node58 -->
<g id="node13" class="node">
<title>Node58</title>
<g id="a_node13"><a xlink:href="rpcwallet_8cpp.html#a236a42206aa464fbb10bae6e6243092b" target="_top" xlink:title="generate">
<polygon fill="#ffffff" stroke="#000000" points="641.5,-123.5 641.5,-142.5 695.5,-142.5 695.5,-123.5 641.5,-123.5"/>
<text text-anchor="middle" x="668.5" y="-130.5" font-family="Helvetica,sans-Serif" font-size="10.00" fill="#000000">generate</text>
</a>
</g>
</g>
<!-- Node56&#45;&gt;Node58 -->
<g id="edge13" class="edge">
<title>Node56&#45;&gt;Node58</title>
<path fill="none" stroke="#191970" d="M538.1042,-162.2144C571.8243,-154.6596 614.2039,-145.1647 641.3253,-139.0883"/>
<polygon fill="#191970" stroke="#191970" points="536.9367,-158.8891 527.9438,-164.4907 538.4672,-165.7197 536.9367,-158.8891"/>
</g>
<!-- Node63 -->
<g id="node18" class="node">
<title>Node63</title>
<g id="a_node18"><a xlink:href="init_8cpp.html#a2dd42c68a25e6632cdb9c7b03aed8503" target="_top" xlink:title="ThreadImport">
<polygon fill="#ffffff" stroke="#000000" points="631.5,-.5 631.5,-19.5 705.5,-19.5 705.5,-.5 631.5,-.5"/>
<text text-anchor="middle" x="668.5" y="-7.5" font-family="Helvetica,sans-Serif" font-size="10.00" fill="#000000">ThreadImport</text>
</a>
</g>
</g>
<!-- Node62&#45;&gt;Node63 -->
<g id="edge18" class="edge">
<title>Node62&#45;&gt;Node63</title>
<path fill="none" stroke="#191970" d="M544.7747,-10C573.2029,-10 606.3891,-10 631.2311,-10"/>
<polygon fill="#191970" stroke="#191970" points="544.5407,-6.5001 534.5406,-10 544.5406,-13.5001 544.5407,-6.5001"/>
</g>
</g>
</svg>
