<?xml version="1.0" encoding="UTF-8" standalone="no"?>
<!DOCTYPE svg PUBLIC "-//W3C//DTD SVG 1.1//EN"
 "http://www.w3.org/Graphics/SVG/1.1/DTD/svg11.dtd">
<!-- Generated by graphviz version 2.40.1 (20161225.0304)
 -->
<!-- Title: src/crypto/sph_types.h Pages: 1 -->
<svg width="2563pt" height="252pt"
 viewBox="0.00 0.00 2563.00 252.00" xmlns="http://www.w3.org/2000/svg" xmlns:xlink="http://www.w3.org/1999/xlink">
<g id="graph0" class="graph" transform="scale(1 1) rotate(0) translate(4 248)">
<title>src/crypto/sph_types.h</title>
<polygon fill="#ffffff" stroke="transparent" points="-4,4 -4,-248 2559,-248 2559,4 -4,4"/>
<!-- Node2 -->
<g id="node1" class="node">
<title>Node2</title>
<polygon fill="#bfbfbf" stroke="#000000" points="1081,-224.5 1081,-243.5 1197,-243.5 1197,-224.5 1081,-224.5"/>
<text text-anchor="middle" x="1139" y="-231.5" font-family="Helvetica,sans-Serif" font-size="10.00" fill="#000000">src/crypto/sph_types.h</text>
</g>
<!-- Node3 -->
<g id="node2" class="node">
<title>Node3</title>
<g id="a_node2"><a xlink:href="sph__blake_8h.html" target="_top" xlink:title="BLAKE interface. ">
<polygon fill="#ffffff" stroke="#000000" points="0,-168.5 0,-187.5 116,-187.5 116,-168.5 0,-168.5"/>
<text text-anchor="middle" x="58" y="-175.5" font-family="Helvetica,sans-Serif" font-size="10.00" fill="#000000">src/crypto/sph_blake.h</text>
</a>
</g>
</g>
<!-- Node2&#45;&gt;Node3 -->
<g id="edge1" class="edge">
<title>Node2&#45;&gt;Node3</title>
<path fill="none" stroke="#191970" d="M1070.4277,-233.3191C906.5935,-231.1629 479.6311,-222.4169 125,-188 122.0736,-187.716 119.0797,-187.3921 116.0596,-187.0388"/>
<polygon fill="#191970" stroke="#191970" points="1070.7912,-236.8239 1080.835,-233.4518 1070.8805,-229.8245 1070.7912,-236.8239"/>
</g>
<!-- Node152 -->
<g id="node17" class="node">
<title>Node152</title>
<g id="a_node17"><a xlink:href="sph__bmw_8h.html" target="_top" xlink:title="BMW interface. ">
<polygon fill="#ffffff" stroke="#000000" points="134.5,-168.5 134.5,-187.5 247.5,-187.5 247.5,-168.5 134.5,-168.5"/>
<text text-anchor="middle" x="191" y="-175.5" font-family="Helvetica,sans-Serif" font-size="10.00" fill="#000000">src/crypto/sph_bmw.h</text>
</a>
</g>
</g>
<!-- Node2&#45;&gt;Node152 -->
<g id="edge20" class="edge">
<title>Node2&#45;&gt;Node152</title>
<path fill="none" stroke="#191970" d="M1070.4768,-232.7173C921.9212,-229.434 559.2283,-218.7023 257,-188 254.0023,-187.6955 250.9326,-187.3496 247.8367,-186.9741"/>
<polygon fill="#191970" stroke="#191970" points="1070.7254,-236.2234 1080.7989,-232.941 1070.8772,-229.2251 1070.7254,-236.2234"/>
</g>
<!-- Node154 -->
<g id="node19" class="node">
<title>Node154</title>
<g id="a_node19"><a xlink:href="sph__groestl_8h.html" target="_top" xlink:title="Groestl interface. ">
<polygon fill="#ffffff" stroke="#000000" points="266,-168.5 266,-187.5 388,-187.5 388,-168.5 266,-168.5"/>
<text text-anchor="middle" x="327" y="-175.5" font-family="Helvetica,sans-Serif" font-size="10.00" fill="#000000">src/crypto/sph_groestl.h</text>
</a>
</g>
</g>
<!-- Node2&#45;&gt;Node154 -->
<g id="edge23" class="edge">
<title>Node2&#45;&gt;Node154</title>
<path fill="none" stroke="#191970" d="M1070.384,-231.5815C939.2784,-226.5537 644.2106,-213.2799 397,-188 394.069,-187.7003 391.0723,-187.3689 388.0481,-187.0143"/>
<polygon fill="#191970" stroke="#191970" points="1070.545,-235.09 1080.6706,-231.9719 1070.8105,-228.095 1070.545,-235.09"/>
</g>
<!-- Node156 -->
<g id="node21" class="node">
<title>Node156</title>
<g id="a_node21"><a xlink:href="sph__jh_8h.html" target="_top" xlink:title="JH interface. ">
<polygon fill="#ffffff" stroke="#000000" points="406,-168.5 406,-187.5 506,-187.5 506,-168.5 406,-168.5"/>
<text text-anchor="middle" x="456" y="-175.5" font-family="Helvetica,sans-Serif" font-size="10.00" fill="#000000">src/crypto/sph_jh.h</text>
</a>
</g>
</g>
<!-- Node2&#45;&gt;Node156 -->
<g id="edge26" class="edge">
<title>Node2&#45;&gt;Node156</title>
<path fill="none" stroke="#191970" d="M1070.6848,-231.0754C955.6798,-225.6797 716.2419,-212.4168 515,-188 512.1122,-187.6496 509.1503,-187.2563 506.1651,-186.8335"/>
<polygon fill="#191970" stroke="#191970" points="1070.6017,-234.5752 1080.7532,-231.5425 1070.9262,-227.5827 1070.6017,-234.5752"/>
</g>
<!-- Node158 -->
<g id="node23" class="node">
<title>Node158</title>
<g id="a_node23"><a xlink:href="sph__keccak_8h.html" target="_top" xlink:title="Keccak interface. ">
<polygon fill="#ffffff" stroke="#000000" points="524,-168.5 524,-187.5 648,-187.5 648,-168.5 524,-168.5"/>
<text text-anchor="middle" x="586" y="-175.5" font-family="Helvetica,sans-Serif" font-size="10.00" fill="#000000">src/crypto/sph_keccak.h</text>
</a>
</g>
</g>
<!-- Node2&#45;&gt;Node158 -->
<g id="edge29" class="edge">
<title>Node2&#45;&gt;Node158</title>
<path fill="none" stroke="#191970" d="M1070.4867,-228.4334C976.9372,-220.6108 804.0487,-205.3636 657,-188 654.1567,-187.6643 651.2512,-187.3081 648.3176,-186.938"/>
<polygon fill="#191970" stroke="#191970" points="1070.4114,-231.9391 1080.6675,-229.2815 1070.9926,-224.9633 1070.4114,-231.9391"/>
</g>
<!-- Node160 -->
<g id="node25" class="node">
<title>Node160</title>
<g id="a_node25"><a xlink:href="sph__skein_8h.html" target="_top" xlink:title="Skein interface. ">
<polygon fill="#ffffff" stroke="#000000" points="666,-168.5 666,-187.5 782,-187.5 782,-168.5 666,-168.5"/>
<text text-anchor="middle" x="724" y="-175.5" font-family="Helvetica,sans-Serif" font-size="10.00" fill="#000000">src/crypto/sph_skein.h</text>
</a>
</g>
</g>
<!-- Node2&#45;&gt;Node160 -->
<g id="edge32" class="edge">
<title>Node2&#45;&gt;Node160</title>
<path fill="none" stroke="#191970" d="M1070.7284,-225.3186C1000.5288,-216.3115 888.0632,-201.6576 791,-188 788.0885,-187.5903 785.1067,-187.1653 782.096,-186.7318"/>
<polygon fill="#191970" stroke="#191970" points="1070.4084,-228.8061 1080.7722,-226.6058 1071.2983,-221.8629 1070.4084,-228.8061"/>
</g>
<!-- Node162 -->
<g id="node27" class="node">
<title>Node162</title>
<g id="a_node27"><a xlink:href="sph__luffa_8h.html" target="_top" xlink:title="Luffa interface. ">
<polygon fill="#ffffff" stroke="#000000" points="800.5,-168.5 800.5,-187.5 911.5,-187.5 911.5,-168.5 800.5,-168.5"/>
<text text-anchor="middle" x="856" y="-175.5" font-family="Helvetica,sans-Serif" font-size="10.00" fill="#000000">src/crypto/sph_luffa.h</text>
</a>
</g>
</g>
<!-- Node2&#45;&gt;Node162 -->
<g id="edge35" class="edge">
<title>Node2&#45;&gt;Node162</title>
<path fill="none" stroke="#191970" d="M1080.5634,-222.4366C1028.3911,-212.1127 952.8961,-197.1738 904.1285,-187.5237"/>
<polygon fill="#191970" stroke="#191970" points="1080.1829,-225.9291 1090.6721,-224.4369 1081.5418,-219.0622 1080.1829,-225.9291"/>
</g>
<!-- Node164 -->
<g id="node29" class="node">
<title>Node164</title>
<g id="a_node29"><a xlink:href="sph__cubehash_8h.html" target="_top" xlink:title="CubeHash interface. ">
<polygon fill="#ffffff" stroke="#000000" points="930,-168.5 930,-187.5 1064,-187.5 1064,-168.5 930,-168.5"/>
<text text-anchor="middle" x="997" y="-175.5" font-family="Helvetica,sans-Serif" font-size="10.00" fill="#000000">src/crypto/sph_cubehash.h</text>
</a>
</g>
</g>
<!-- Node2&#45;&gt;Node164 -->
<g id="edge38" class="edge">
<title>Node2&#45;&gt;Node164</title>
<path fill="none" stroke="#191970" d="M1105.1585,-220.6541C1079.2634,-210.4419 1044.1862,-196.6086 1021.0921,-187.5011"/>
<polygon fill="#191970" stroke="#191970" points="1104.0025,-223.9605 1114.5893,-224.3733 1106.5707,-217.4486 1104.0025,-223.9605"/>
</g>
<!-- Node166 -->
<g id="node31" class="node">
<title>Node166</title>
<g id="a_node31"><a xlink:href="sph__shavite_8h.html" target="_top" xlink:title="SHAvite&#45;3 interface. ">
<polygon fill="#ffffff" stroke="#000000" points="1625,-168.5 1625,-187.5 1749,-187.5 1749,-168.5 1625,-168.5"/>
<text text-anchor="middle" x="1687" y="-175.5" font-family="Helvetica,sans-Serif" font-size="10.00" fill="#000000">src/crypto/sph_shavite.h</text>
</a>
</g>
</g>
<!-- Node2&#45;&gt;Node166 -->
<g id="edge41" class="edge">
<title>Node2&#45;&gt;Node166</title>
<path fill="none" stroke="#191970" d="M1207.4137,-228.2903C1299.9652,-220.3602 1470.1563,-205.0498 1615,-188 1618.2587,-187.6164 1621.5981,-187.2076 1624.9683,-186.7826"/>
<polygon fill="#191970" stroke="#191970" points="1207.0038,-224.8125 1197.3379,-229.1508 1207.5995,-231.7871 1207.0038,-224.8125"/>
</g>
<!-- Node168 -->
<g id="node33" class="node">
<title>Node168</title>
<g id="a_node33"><a xlink:href="sph__simd_8h.html" target="_top" xlink:title="SIMD interface. ">
<polygon fill="#ffffff" stroke="#000000" points="1082.5,-168.5 1082.5,-187.5 1195.5,-187.5 1195.5,-168.5 1082.5,-168.5"/>
<text text-anchor="middle" x="1139" y="-175.5" font-family="Helvetica,sans-Serif" font-size="10.00" fill="#000000">src/crypto/sph_simd.h</text>
</a>
</g>
</g>
<!-- Node2&#45;&gt;Node168 -->
<g id="edge44" class="edge">
<title>Node2&#45;&gt;Node168</title>
<path fill="none" stroke="#191970" d="M1139,-214.1575C1139,-205.155 1139,-194.9199 1139,-187.6427"/>
<polygon fill="#191970" stroke="#191970" points="1135.5001,-214.2455 1139,-224.2455 1142.5001,-214.2456 1135.5001,-214.2455"/>
</g>
<!-- Node170 -->
<g id="node35" class="node">
<title>Node170</title>
<g id="a_node35"><a xlink:href="sph__echo_8h.html" target="_top" xlink:title="ECHO interface. ">
<polygon fill="#ffffff" stroke="#000000" points="1767.5,-168.5 1767.5,-187.5 1880.5,-187.5 1880.5,-168.5 1767.5,-168.5"/>
<text text-anchor="middle" x="1824" y="-175.5" font-family="Helvetica,sans-Serif" font-size="10.00" fill="#000000">src/crypto/sph_echo.h</text>
</a>
</g>
</g>
<!-- Node2&#45;&gt;Node170 -->
<g id="edge47" class="edge">
<title>Node2&#45;&gt;Node170</title>
<path fill="none" stroke="#191970" d="M1207.1677,-230.6364C1321.3567,-224.6209 1558.4238,-210.5019 1758,-188 1760.9942,-187.6624 1764.061,-187.2902 1767.1547,-186.894"/>
<polygon fill="#191970" stroke="#191970" points="1206.9725,-227.1417 1197.1688,-231.1589 1207.3379,-234.1322 1206.9725,-227.1417"/>
</g>
<!-- Node172 -->
<g id="node37" class="node">
<title>Node172</title>
<g id="a_node37"><a xlink:href="sph__hamsi_8h.html" target="_top" xlink:title="Hamsi interface. ">
<polygon fill="#ffffff" stroke="#000000" points="1213.5,-168.5 1213.5,-187.5 1332.5,-187.5 1332.5,-168.5 1213.5,-168.5"/>
<text text-anchor="middle" x="1273" y="-175.5" font-family="Helvetica,sans-Serif" font-size="10.00" fill="#000000">src/crypto/sph_hamsi.h</text>
</a>
</g>
</g>
<!-- Node2&#45;&gt;Node172 -->
<g id="edge50" class="edge">
<title>Node2&#45;&gt;Node172</title>
<path fill="none" stroke="#191970" d="M1171.5828,-220.3833C1195.9536,-210.1985 1228.6642,-196.5284 1250.2652,-187.5011"/>
<polygon fill="#191970" stroke="#191970" points="1169.9125,-217.2879 1162.0354,-224.3733 1172.6117,-223.7466 1169.9125,-217.2879"/>
</g>
<!-- Node174 -->
<g id="node39" class="node">
<title>Node174</title>
<g id="a_node39"><a xlink:href="sph__fugue_8h.html" target="_top" xlink:title="src/crypto/sph_fugue.h">
<polygon fill="#ffffff" stroke="#000000" points="1351,-168.5 1351,-187.5 1467,-187.5 1467,-168.5 1351,-168.5"/>
<text text-anchor="middle" x="1409" y="-175.5" font-family="Helvetica,sans-Serif" font-size="10.00" fill="#000000">src/crypto/sph_fugue.h</text>
</a>
</g>
</g>
<!-- Node2&#45;&gt;Node174 -->
<g id="edge53" class="edge">
<title>Node2&#45;&gt;Node174</title>
<path fill="none" stroke="#191970" d="M1195.0636,-222.372C1244.828,-212.0505 1316.6519,-197.1537 1363.0823,-187.5237"/>
<polygon fill="#191970" stroke="#191970" points="1194.1887,-218.9789 1185.1079,-224.4369 1195.6103,-225.833 1194.1887,-218.9789"/>
</g>
<!-- Node176 -->
<g id="node41" class="node">
<title>Node176</title>
<g id="a_node41"><a xlink:href="sph__shabal_8h.html" target="_top" xlink:title="Shabal interface. ">
<polygon fill="#ffffff" stroke="#000000" points="1485.5,-168.5 1485.5,-187.5 1606.5,-187.5 1606.5,-168.5 1485.5,-168.5"/>
<text text-anchor="middle" x="1546" y="-175.5" font-family="Helvetica,sans-Serif" font-size="10.00" fill="#000000">src/crypto/sph_shabal.h</text>
</a>
</g>
</g>
<!-- Node2&#45;&gt;Node176 -->
<g id="edge56" class="edge">
<title>Node2&#45;&gt;Node176</title>
<path fill="none" stroke="#191970" d="M1207.3267,-224.8006C1275.4209,-215.6026 1382.9652,-200.9948 1476,-188 1479.0395,-187.5754 1482.153,-187.1385 1485.2969,-186.6955"/>
<polygon fill="#191970" stroke="#191970" points="1206.6008,-221.3668 1197.1591,-226.1734 1207.5375,-228.3038 1206.6008,-221.3668"/>
</g>
<!-- Node178 -->
<g id="node43" class="node">
<title>Node178</title>
<g id="a_node43"><a xlink:href="sph__whirlpool_8h.html" target="_top" xlink:title="WHIRLPOOL interface. ">
<polygon fill="#ffffff" stroke="#000000" points="2035.5,-168.5 2035.5,-187.5 2166.5,-187.5 2166.5,-168.5 2035.5,-168.5"/>
<text text-anchor="middle" x="2101" y="-175.5" font-family="Helvetica,sans-Serif" font-size="10.00" fill="#000000">src/crypto/sph_whirlpool.h</text>
</a>
</g>
</g>
<!-- Node2&#45;&gt;Node178 -->
<g id="edge59" class="edge">
<title>Node2&#45;&gt;Node178</title>
<path fill="none" stroke="#191970" d="M1207.5957,-232.3291C1356.7413,-228.2822 1721.6085,-216.1394 2026,-188 2029.0085,-187.7219 2032.0817,-187.413 2035.1839,-187.0812"/>
<polygon fill="#191970" stroke="#191970" points="1207.1364,-228.8401 1197.2338,-232.6066 1207.3239,-235.8375 1207.1364,-228.8401"/>
</g>
<!-- Node180 -->
<g id="node47" class="node">
<title>Node180</title>
<g id="a_node47"><a xlink:href="sph__sha2_8h.html" target="_top" xlink:title="SHA&#45;224, SHA&#45;256, SHA&#45;384 and SHA&#45;512 interface. ">
<polygon fill="#ffffff" stroke="#000000" points="2242.5,-168.5 2242.5,-187.5 2355.5,-187.5 2355.5,-168.5 2242.5,-168.5"/>
<text text-anchor="middle" x="2299" y="-175.5" font-family="Helvetica,sans-Serif" font-size="10.00" fill="#000000">src/crypto/sph_sha2.h</text>
</a>
</g>
</g>
<!-- Node2&#45;&gt;Node180 -->
<g id="edge64" class="edge">
<title>Node2&#45;&gt;Node180</title>
<path fill="none" stroke="#191970" d="M1207.2253,-231.8231C1373.0569,-226.3461 1810.4545,-210.7852 2175,-188 2196.9867,-186.6258 2221.1381,-184.7591 2242.2387,-183.0106"/>
<polygon fill="#191970" stroke="#191970" points="1207.0489,-228.3269 1197.1694,-232.1539 1207.2791,-235.3232 1207.0489,-228.3269"/>
</g>
<!-- Node183 -->
<g id="node50" class="node">
<title>Node183</title>
<g id="a_node50"><a xlink:href="aes__helper_8c.html" target="_top" xlink:title="src/crypto/aes_helper.c">
<polygon fill="#ffffff" stroke="#000000" points="1898.5,-168.5 1898.5,-187.5 2017.5,-187.5 2017.5,-168.5 1898.5,-168.5"/>
<text text-anchor="middle" x="1958" y="-175.5" font-family="Helvetica,sans-Serif" font-size="10.00" fill="#000000">src/crypto/aes_helper.c</text>
</a>
</g>
</g>
<!-- Node2&#45;&gt;Node183 -->
<g id="edge68" class="edge">
<title>Node2&#45;&gt;Node183</title>
<path fill="none" stroke="#191970" d="M1207.3588,-231.7C1339.38,-226.8391 1638.52,-213.7875 1889,-188 1892.0102,-187.6901 1895.0904,-187.3454 1898.1984,-186.9755"/>
<polygon fill="#191970" stroke="#191970" points="1206.8709,-228.2154 1197.0049,-232.077 1207.1256,-235.2107 1206.8709,-228.2154"/>
</g>
<!-- Node4 -->
<g id="node3" class="node">
<title>Node4</title>
<g id="a_node3"><a xlink:href="hash_8h.html" target="_top" xlink:title="src/hash.h">
<polygon fill="#ffffff" stroke="#ff0000" points="1023,-112.5 1023,-131.5 1085,-131.5 1085,-112.5 1023,-112.5"/>
<text text-anchor="middle" x="1054" y="-119.5" font-family="Helvetica,sans-Serif" font-size="10.00" fill="#000000">src/hash.h</text>
</a>
</g>
</g>
<!-- Node3&#45;&gt;Node4 -->
<g id="edge2" class="edge">
<title>Node3&#45;&gt;Node4</title>
<path fill="none" stroke="#191970" d="M126.3026,-167.9866C520.0265,-131.7458 625.209,-186.5988 1013,-132 1016.1923,-131.5505 1019.4984,-130.9602 1022.7849,-130.2906"/>
<polygon fill="#191970" stroke="#191970" points="125.6888,-164.5286 116.0579,-168.944 126.3402,-171.4982 125.6888,-164.5286"/>
</g>
<!-- Node151 -->
<g id="node16" class="node">
<title>Node151</title>
<g id="a_node16"><a xlink:href="blake_8c.html" target="_top" xlink:title="src/crypto/blake.c">
<polygon fill="#ffffff" stroke="#000000" points="10.5,-112.5 10.5,-131.5 105.5,-131.5 105.5,-112.5 10.5,-112.5"/>
<text text-anchor="middle" x="58" y="-119.5" font-family="Helvetica,sans-Serif" font-size="10.00" fill="#000000">src/crypto/blake.c</text>
</a>
</g>
</g>
<!-- Node3&#45;&gt;Node151 -->
<g id="edge19" class="edge">
<title>Node3&#45;&gt;Node151</title>
<path fill="none" stroke="#191970" d="M58,-158.1575C58,-149.155 58,-138.9199 58,-131.6427"/>
<polygon fill="#191970" stroke="#191970" points="54.5001,-158.2455 58,-168.2455 61.5001,-158.2456 54.5001,-158.2455"/>
</g>
<!-- Node5 -->
<g id="node4" class="node">
<title>Node5</title>
<g id="a_node4"><a xlink:href="addrdb_8cpp.html" target="_top" xlink:title="src/addrdb.cpp">
<polygon fill="#ffffff" stroke="#000000" points="577.5,-56.5 577.5,-75.5 658.5,-75.5 658.5,-56.5 577.5,-56.5"/>
<text text-anchor="middle" x="618" y="-63.5" font-family="Helvetica,sans-Serif" font-size="10.00" fill="#000000">src/addrdb.cpp</text>
</a>
</g>
</g>
<!-- Node4&#45;&gt;Node5 -->
<g id="edge3" class="edge">
<title>Node4&#45;&gt;Node5</title>
<path fill="none" stroke="#191970" d="M1012.4706,-112.1502C858.8522,-86.2003 816.5306,-98.9811 667,-76 664.2539,-75.578 661.4287,-75.1052 658.5871,-74.6009"/>
<polygon fill="#191970" stroke="#191970" points="1012.3042,-115.6728 1022.7524,-113.9163 1013.4893,-108.7738 1012.3042,-115.6728"/>
</g>
<!-- Node6 -->
<g id="node5" class="node">
<title>Node6</title>
<g id="a_node5"><a xlink:href="addrman_8cpp.html" target="_top" xlink:title="src/addrman.cpp">
<polygon fill="#ffffff" stroke="#000000" points="676.5,-56.5 676.5,-75.5 765.5,-75.5 765.5,-56.5 676.5,-56.5"/>
<text text-anchor="middle" x="721" y="-63.5" font-family="Helvetica,sans-Serif" font-size="10.00" fill="#000000">src/addrman.cpp</text>
</a>
</g>
</g>
<!-- Node4&#45;&gt;Node6 -->
<g id="edge4" class="edge">
<title>Node4&#45;&gt;Node6</title>
<path fill="none" stroke="#191970" d="M1012.7366,-112.0976C908.5349,-91.622 880.3046,-92.2484 780,-76 775.385,-75.2524 770.5695,-74.4587 765.7665,-73.6581"/>
<polygon fill="#191970" stroke="#191970" points="1012.2325,-115.5657 1022.7223,-114.0781 1013.5943,-108.6994 1012.2325,-115.5657"/>
</g>
<!-- Node7 -->
<g id="node6" class="node">
<title>Node7</title>
<g id="a_node6"><a xlink:href="pubkey_8h.html" target="_top" xlink:title="src/pubkey.h">
<polygon fill="#ffffff" stroke="#ff0000" points="822.5,-56.5 822.5,-75.5 895.5,-75.5 895.5,-56.5 822.5,-56.5"/>
<text text-anchor="middle" x="859" y="-63.5" font-family="Helvetica,sans-Serif" font-size="10.00" fill="#000000">src/pubkey.h</text>
</a>
</g>
</g>
<!-- Node4&#45;&gt;Node7 -->
<g id="edge5" class="edge">
<title>Node4&#45;&gt;Node7</title>
<path fill="none" stroke="#191970" d="M1012.9852,-110.2214C977.0826,-99.9109 925.582,-85.121 892.2103,-75.5373"/>
<polygon fill="#191970" stroke="#191970" points="1012.0923,-113.6064 1022.6699,-113.0026 1014.0245,-106.8783 1012.0923,-113.6064"/>
</g>
<!-- Node97 -->
<g id="node7" class="node">
<title>Node97</title>
<g id="a_node7"><a xlink:href="compressor_8cpp.html" target="_top" xlink:title="src/compressor.cpp">
<polygon fill="#ffffff" stroke="#000000" points="748.5,-.5 748.5,-19.5 851.5,-19.5 851.5,-.5 748.5,-.5"/>
<text text-anchor="middle" x="800" y="-7.5" font-family="Helvetica,sans-Serif" font-size="10.00" fill="#000000">src/compressor.cpp</text>
</a>
</g>
</g>
<!-- Node4&#45;&gt;Node97 -->
<g id="edge13" class="edge">
<title>Node4&#45;&gt;Node97</title>
<path fill="none" stroke="#191970" d="M1012.8258,-112.2463C921.3912,-96.3106 875.1845,-137.1737 813,-76 797.8479,-61.0942 797.6696,-34.0241 798.8325,-19.6196"/>
<polygon fill="#191970" stroke="#191970" points="1012.2229,-115.6945 1022.7058,-114.1586 1013.5531,-108.8221 1012.2229,-115.6945"/>
</g>
<!-- Node98 -->
<g id="node8" class="node">
<title>Node98</title>
<g id="a_node8"><a xlink:href="hash_8cpp.html" target="_top" xlink:title="src/hash.cpp">
<polygon fill="#ffffff" stroke="#000000" points="875.5,-.5 875.5,-19.5 948.5,-19.5 948.5,-.5 875.5,-.5"/>
<text text-anchor="middle" x="912" y="-7.5" font-family="Helvetica,sans-Serif" font-size="10.00" fill="#000000">src/hash.cpp</text>
</a>
</g>
</g>
<!-- Node4&#45;&gt;Node98 -->
<g id="edge14" class="edge">
<title>Node4&#45;&gt;Node98</title>
<path fill="none" stroke="#191970" d="M1014.7407,-109.1235C987.3408,-99.5179 953.8169,-86.328 943,-76 926.5191,-60.2641 917.8885,-34.0274 914.2167,-19.8363"/>
<polygon fill="#191970" stroke="#191970" points="1013.9103,-112.5392 1024.505,-112.4883 1016.1909,-105.9212 1013.9103,-112.5392"/>
</g>
<!-- Node12 -->
<g id="node9" class="node">
<title>Node12</title>
<g id="a_node9"><a xlink:href="base58_8cpp.html" target="_top" xlink:title="src/base58.cpp">
<polygon fill="#ffffff" stroke="#000000" points="952.5,-56.5 952.5,-75.5 1035.5,-75.5 1035.5,-56.5 952.5,-56.5"/>
<text text-anchor="middle" x="994" y="-63.5" font-family="Helvetica,sans-Serif" font-size="10.00" fill="#000000">src/base58.cpp</text>
</a>
</g>
</g>
<!-- Node4&#45;&gt;Node12 -->
<g id="edge8" class="edge">
<title>Node4&#45;&gt;Node12</title>
<path fill="none" stroke="#191970" d="M1036.1722,-105.3607C1025.7922,-95.6727 1013.0709,-83.7995 1004.3314,-75.6427"/>
<polygon fill="#191970" stroke="#191970" points="1033.8501,-107.981 1043.5488,-112.2455 1038.6263,-102.8636 1033.8501,-107.981"/>
</g>
<!-- Node103 -->
<g id="node10" class="node">
<title>Node103</title>
<g id="a_node10"><a xlink:href="blockencodings_8cpp.html" target="_top" xlink:title="src/blockencodings.cpp">
<polygon fill="#ffffff" stroke="#000000" points="1053.5,-56.5 1053.5,-75.5 1172.5,-75.5 1172.5,-56.5 1053.5,-56.5"/>
<text text-anchor="middle" x="1113" y="-63.5" font-family="Helvetica,sans-Serif" font-size="10.00" fill="#000000">src/blockencodings.cpp</text>
</a>
</g>
</g>
<!-- Node4&#45;&gt;Node103 -->
<g id="edge9" class="edge">
<title>Node4&#45;&gt;Node103</title>
<path fill="none" stroke="#191970" d="M1071.5307,-105.3607C1081.7377,-95.6727 1094.2469,-83.7995 1102.8408,-75.6427"/>
<polygon fill="#191970" stroke="#191970" points="1069.1206,-102.8227 1064.277,-112.2455 1073.9396,-107.8998 1069.1206,-102.8227"/>
</g>
<!-- Node104 -->
<g id="node11" class="node">
<title>Node104</title>
<g id="a_node11"><a xlink:href="coins_8h.html" target="_top" xlink:title="src/coins.h">
<polygon fill="#ffffff" stroke="#ff0000" points="1190.5,-56.5 1190.5,-75.5 1255.5,-75.5 1255.5,-56.5 1190.5,-56.5"/>
<text text-anchor="middle" x="1223" y="-63.5" font-family="Helvetica,sans-Serif" font-size="10.00" fill="#000000">src/coins.h</text>
</a>
</g>
</g>
<!-- Node4&#45;&gt;Node104 -->
<g id="edge10" class="edge">
<title>Node4&#45;&gt;Node104</title>
<path fill="none" stroke="#191970" d="M1092.6573,-109.1905C1123.6193,-98.9309 1166.3574,-84.7691 1194.327,-75.5011"/>
<polygon fill="#191970" stroke="#191970" points="1091.4437,-105.9054 1083.0521,-112.3733 1093.6455,-112.5501 1091.4437,-105.9054"/>
</g>
<!-- Node86 -->
<g id="node12" class="node">
<title>Node86</title>
<g id="a_node12"><a xlink:href="miner_8cpp.html" target="_top" xlink:title="src/miner.cpp">
<polygon fill="#ffffff" stroke="#000000" points="1246,-.5 1246,-19.5 1322,-19.5 1322,-.5 1246,-.5"/>
<text text-anchor="middle" x="1284" y="-7.5" font-family="Helvetica,sans-Serif" font-size="10.00" fill="#000000">src/miner.cpp</text>
</a>
</g>
</g>
<!-- Node4&#45;&gt;Node86 -->
<g id="edge18" class="edge">
<title>Node4&#45;&gt;Node86</title>
<path fill="none" stroke="#191970" d="M1095.5051,-111.9022C1172.3898,-97.2429 1209.4376,-126.0833 1264,-76 1280.0531,-61.2647 1283.3894,-34.1226 1283.9768,-19.6624"/>
<polygon fill="#191970" stroke="#191970" points="1094.4786,-108.5416 1085.4169,-114.0314 1095.9242,-115.3907 1094.4786,-108.5416"/>
</g>
<!-- Node137 -->
<g id="node13" class="node">
<title>Node137</title>
<g id="a_node13"><a xlink:href="bloom_8cpp.html" target="_top" xlink:title="src/bloom.cpp">
<polygon fill="#ffffff" stroke="#000000" points="1312,-56.5 1312,-75.5 1390,-75.5 1390,-56.5 1312,-56.5"/>
<text text-anchor="middle" x="1351" y="-63.5" font-family="Helvetica,sans-Serif" font-size="10.00" fill="#000000">src/bloom.cpp</text>
</a>
</g>
</g>
<!-- Node4&#45;&gt;Node137 -->
<g id="edge12" class="edge">
<title>Node4&#45;&gt;Node137</title>
<path fill="none" stroke="#191970" d="M1095.2522,-111.8371C1185.7251,-92.7846 1210.5251,-91.9701 1298,-76 1302.5136,-75.176 1307.2411,-74.301 1311.9352,-73.4248"/>
<polygon fill="#191970" stroke="#191970" points="1094.4495,-108.4294 1085.3944,-113.9299 1095.9033,-115.2768 1094.4495,-108.4294"/>
</g>
<!-- Node138 -->
<g id="node14" class="node">
<title>Node138</title>
<g id="a_node14"><a xlink:href="net_8h.html" target="_top" xlink:title="src/net.h">
<polygon fill="#ffffff" stroke="#ff0000" points="1408.5,-56.5 1408.5,-75.5 1463.5,-75.5 1463.5,-56.5 1408.5,-56.5"/>
<text text-anchor="middle" x="1436" y="-63.5" font-family="Helvetica,sans-Serif" font-size="10.00" fill="#000000">src/net.h</text>
</a>
</g>
</g>
<!-- Node4&#45;&gt;Node138 -->
<g id="edge15" class="edge">
<title>Node4&#45;&gt;Node138</title>
<path fill="none" stroke="#191970" d="M1095.2358,-111.9711C1230.0356,-88.0539 1268.1197,-101.2695 1399,-76 1402.0054,-75.4197 1405.1253,-74.7251 1408.2217,-73.976"/>
<polygon fill="#191970" stroke="#191970" points="1094.5773,-108.5333 1085.3604,-113.7584 1095.8239,-115.4214 1094.5773,-108.5333"/>
</g>
<!-- Node126 -->
<g id="node15" class="node">
<title>Node126</title>
<g id="a_node15"><a xlink:href="merkleblock_8cpp.html" target="_top" xlink:title="src/merkleblock.cpp">
<polygon fill="#ffffff" stroke="#000000" points="1482,-56.5 1482,-75.5 1586,-75.5 1586,-56.5 1482,-56.5"/>
<text text-anchor="middle" x="1534" y="-63.5" font-family="Helvetica,sans-Serif" font-size="10.00" fill="#000000">src/merkleblock.cpp</text>
</a>
</g>
</g>
<!-- Node4&#45;&gt;Node126 -->
<g id="edge17" class="edge">
<title>Node4&#45;&gt;Node126</title>
<path fill="none" stroke="#191970" d="M1095.4535,-111.9689C1262.1051,-83.9876 1307.8776,-97.0285 1472,-76 1475.2444,-75.5843 1478.5798,-75.1287 1481.9404,-74.6483"/>
<polygon fill="#191970" stroke="#191970" points="1094.6185,-108.5606 1085.3484,-113.6905 1095.7942,-115.4612 1094.6185,-108.5606"/>
</g>
<!-- Node7&#45;&gt;Node97 -->
<g id="edge6" class="edge">
<title>Node7&#45;&gt;Node97</title>
<path fill="none" stroke="#191970" d="M841.4693,-49.3607C831.2623,-39.6727 818.7531,-27.7995 810.1592,-19.6427"/>
<polygon fill="#191970" stroke="#191970" points="839.0604,-51.8998 848.723,-56.2455 843.8794,-46.8227 839.0604,-51.8998"/>
</g>
<!-- Node7&#45;&gt;Node98 -->
<g id="edge7" class="edge">
<title>Node7&#45;&gt;Node98</title>
<path fill="none" stroke="#191970" d="M875.2896,-48.7884C884.3562,-39.2085 895.3054,-27.6396 902.8739,-19.6427"/>
<polygon fill="#191970" stroke="#191970" points="872.5637,-46.5767 868.2319,-56.2455 877.6478,-51.3884 872.5637,-46.5767"/>
</g>
<!-- Node104&#45;&gt;Node86 -->
<g id="edge11" class="edge">
<title>Node104&#45;&gt;Node86</title>
<path fill="none" stroke="#191970" d="M1241.1249,-49.3607C1251.678,-39.6727 1264.6112,-27.7995 1273.4964,-19.6427"/>
<polygon fill="#191970" stroke="#191970" points="1238.625,-46.9045 1233.6254,-56.2455 1243.3589,-52.0611 1238.625,-46.9045"/>
</g>
<!-- Node138&#45;&gt;Node86 -->
<g id="edge16" class="edge">
<title>Node138&#45;&gt;Node86</title>
<path fill="none" stroke="#191970" d="M1400.141,-52.7888C1372.3877,-42.5639 1334.6181,-28.6488 1309.7888,-19.5011"/>
<polygon fill="#191970" stroke="#191970" points="1399.2768,-56.2003 1409.8703,-56.3733 1401.6968,-49.6319 1399.2768,-56.2003"/>
</g>
<!-- Node152&#45;&gt;Node4 -->
<g id="edge21" class="edge">
<title>Node152&#45;&gt;Node4</title>
<path fill="none" stroke="#191970" d="M257.8376,-168.0287C593.4831,-135.6364 683.3235,-179.6048 1013,-132 1016.1907,-131.5393 1019.4957,-130.9415 1022.7816,-130.2674"/>
<polygon fill="#191970" stroke="#191970" points="257.4457,-164.5503 247.835,-169.0095 258.1289,-171.5169 257.4457,-164.5503"/>
</g>
<!-- Node153 -->
<g id="node18" class="node">
<title>Node153</title>
<g id="a_node18"><a xlink:href="bmw_8c.html" target="_top" xlink:title="src/crypto/bmw.c">
<polygon fill="#ffffff" stroke="#000000" points="145,-112.5 145,-131.5 237,-131.5 237,-112.5 145,-112.5"/>
<text text-anchor="middle" x="191" y="-119.5" font-family="Helvetica,sans-Serif" font-size="10.00" fill="#000000">src/crypto/bmw.c</text>
</a>
</g>
</g>
<!-- Node152&#45;&gt;Node153 -->
<g id="edge22" class="edge">
<title>Node152&#45;&gt;Node153</title>
<path fill="none" stroke="#191970" d="M191,-158.1575C191,-149.155 191,-138.9199 191,-131.6427"/>
<polygon fill="#191970" stroke="#191970" points="187.5001,-158.2455 191,-168.2455 194.5001,-158.2456 187.5001,-158.2455"/>
</g>
<!-- Node154&#45;&gt;Node4 -->
<g id="edge24" class="edge">
<title>Node154&#45;&gt;Node4</title>
<path fill="none" stroke="#191970" d="M398.2744,-167.96C671.6565,-141.3563 745.0964,-172.1618 1013,-132 1016.1881,-131.5221 1019.4915,-130.913 1022.7764,-130.232"/>
<polygon fill="#191970" stroke="#191970" points="397.6532,-164.5044 388.0468,-168.9729 398.3431,-171.4703 397.6532,-164.5044"/>
</g>
<!-- Node155 -->
<g id="node20" class="node">
<title>Node155</title>
<g id="a_node20"><a xlink:href="groestl_8c.html" target="_top" xlink:title="src/crypto/groestl.c">
<polygon fill="#ffffff" stroke="#000000" points="276.5,-112.5 276.5,-131.5 377.5,-131.5 377.5,-112.5 276.5,-112.5"/>
<text text-anchor="middle" x="327" y="-119.5" font-family="Helvetica,sans-Serif" font-size="10.00" fill="#000000">src/crypto/groestl.c</text>
</a>
</g>
</g>
<!-- Node154&#45;&gt;Node155 -->
<g id="edge25" class="edge">
<title>Node154&#45;&gt;Node155</title>
<path fill="none" stroke="#191970" d="M327,-158.1575C327,-149.155 327,-138.9199 327,-131.6427"/>
<polygon fill="#191970" stroke="#191970" points="323.5001,-158.2455 327,-168.2455 330.5001,-158.2456 323.5001,-158.2455"/>
</g>
<!-- Node156&#45;&gt;Node4 -->
<g id="edge27" class="edge">
<title>Node156&#45;&gt;Node4</title>
<path fill="none" stroke="#191970" d="M516.1257,-167.9764C737.0614,-142.1472 796.9848,-165.9075 1013,-132 1016.1848,-131.5001 1019.4859,-130.8766 1022.7694,-130.1868"/>
<polygon fill="#191970" stroke="#191970" points="515.6809,-164.5046 506.1645,-169.1616 516.508,-171.4555 515.6809,-164.5046"/>
</g>
<!-- Node157 -->
<g id="node22" class="node">
<title>Node157</title>
<g id="a_node22"><a xlink:href="jh_8c.html" target="_top" xlink:title="src/crypto/jh.c">
<polygon fill="#ffffff" stroke="#000000" points="416.5,-112.5 416.5,-131.5 495.5,-131.5 495.5,-112.5 416.5,-112.5"/>
<text text-anchor="middle" x="456" y="-119.5" font-family="Helvetica,sans-Serif" font-size="10.00" fill="#000000">src/crypto/jh.c</text>
</a>
</g>
</g>
<!-- Node156&#45;&gt;Node157 -->
<g id="edge28" class="edge">
<title>Node156&#45;&gt;Node157</title>
<path fill="none" stroke="#191970" d="M456,-158.1575C456,-149.155 456,-138.9199 456,-131.6427"/>
<polygon fill="#191970" stroke="#191970" points="452.5001,-158.2455 456,-168.2455 459.5001,-158.2456 452.5001,-158.2455"/>
</g>
<!-- Node158&#45;&gt;Node4 -->
<g id="edge30" class="edge">
<title>Node158&#45;&gt;Node4</title>
<path fill="none" stroke="#191970" d="M658.4114,-167.8781C816.6247,-149.3012 859.4778,-158.3541 1013,-132 1016.1773,-131.4546 1019.4736,-130.8012 1022.7541,-130.0932"/>
<polygon fill="#191970" stroke="#191970" points="657.835,-164.422 648.32,-169.0819 658.6642,-171.3727 657.835,-164.422"/>
</g>
<!-- Node159 -->
<g id="node24" class="node">
<title>Node159</title>
<g id="a_node24"><a xlink:href="keccak_8c.html" target="_top" xlink:title="src/crypto/keccak.c">
<polygon fill="#ffffff" stroke="#000000" points="534.5,-112.5 534.5,-131.5 637.5,-131.5 637.5,-112.5 534.5,-112.5"/>
<text text-anchor="middle" x="586" y="-119.5" font-family="Helvetica,sans-Serif" font-size="10.00" fill="#000000">src/crypto/keccak.c</text>
</a>
</g>
</g>
<!-- Node158&#45;&gt;Node159 -->
<g id="edge31" class="edge">
<title>Node158&#45;&gt;Node159</title>
<path fill="none" stroke="#191970" d="M586,-158.1575C586,-149.155 586,-138.9199 586,-131.6427"/>
<polygon fill="#191970" stroke="#191970" points="582.5001,-158.2455 586,-168.2455 589.5001,-158.2456 582.5001,-158.2455"/>
</g>
<!-- Node160&#45;&gt;Node4 -->
<g id="edge33" class="edge">
<title>Node160&#45;&gt;Node4</title>
<path fill="none" stroke="#191970" d="M792.4681,-167.7601C864.186,-156.9163 971.9957,-140.2496 1013,-132 1016.1604,-131.3642 1019.4456,-130.6515 1022.7194,-129.9072"/>
<polygon fill="#191970" stroke="#191970" points="791.5264,-164.3625 782.1609,-169.3161 792.5713,-171.2841 791.5264,-164.3625"/>
</g>
<!-- Node161 -->
<g id="node26" class="node">
<title>Node161</title>
<g id="a_node26"><a xlink:href="skein_8c.html" target="_top" xlink:title="src/crypto/skein.c">
<polygon fill="#ffffff" stroke="#000000" points="669.5,-112.5 669.5,-131.5 764.5,-131.5 764.5,-112.5 669.5,-112.5"/>
<text text-anchor="middle" x="717" y="-119.5" font-family="Helvetica,sans-Serif" font-size="10.00" fill="#000000">src/crypto/skein.c</text>
</a>
</g>
</g>
<!-- Node160&#45;&gt;Node161 -->
<g id="edge34" class="edge">
<title>Node160&#45;&gt;Node161</title>
<path fill="none" stroke="#191970" d="M721.5197,-158.1575C720.3944,-149.155 719.115,-138.9199 718.2053,-131.6427"/>
<polygon fill="#191970" stroke="#191970" points="718.0673,-158.7569 722.7807,-168.2455 725.0132,-157.8886 718.0673,-158.7569"/>
</g>
<!-- Node162&#45;&gt;Node4 -->
<g id="edge36" class="edge">
<title>Node162&#45;&gt;Node4</title>
<path fill="none" stroke="#191970" d="M900.1023,-165.5266C937.311,-155.003 989.6492,-140.2002 1022.6886,-130.8557"/>
<polygon fill="#191970" stroke="#191970" points="898.7074,-162.2838 890.0374,-168.3733 900.6125,-169.0196 898.7074,-162.2838"/>
</g>
<!-- Node163 -->
<g id="node28" class="node">
<title>Node163</title>
<g id="a_node28"><a xlink:href="luffa_8c.html" target="_top" xlink:title="src/crypto/luffa.c">
<polygon fill="#ffffff" stroke="#000000" points="783,-112.5 783,-131.5 873,-131.5 873,-112.5 783,-112.5"/>
<text text-anchor="middle" x="828" y="-119.5" font-family="Helvetica,sans-Serif" font-size="10.00" fill="#000000">src/crypto/luffa.c</text>
</a>
</g>
</g>
<!-- Node162&#45;&gt;Node163 -->
<g id="edge37" class="edge">
<title>Node162&#45;&gt;Node163</title>
<path fill="none" stroke="#191970" d="M846.5219,-159.0437C841.9165,-149.8331 836.5799,-139.1598 832.8213,-131.6427"/>
<polygon fill="#191970" stroke="#191970" points="843.5201,-160.8665 851.1228,-168.2455 849.7811,-157.736 843.5201,-160.8665"/>
</g>
<!-- Node164&#45;&gt;Node4 -->
<g id="edge39" class="edge">
<title>Node164&#45;&gt;Node4</title>
<path fill="none" stroke="#191970" d="M1014.2271,-161.0751C1024.0341,-151.4402 1035.964,-139.7196 1044.1851,-131.6427"/>
<polygon fill="#191970" stroke="#191970" points="1011.6091,-158.7406 1006.9286,-168.2455 1016.5149,-163.734 1011.6091,-158.7406"/>
</g>
<!-- Node165 -->
<g id="node30" class="node">
<title>Node165</title>
<g id="a_node30"><a xlink:href="cubehash_8c.html" target="_top" xlink:title="src/crypto/cubehash.c">
<polygon fill="#ffffff" stroke="#000000" points="891.5,-112.5 891.5,-131.5 1004.5,-131.5 1004.5,-112.5 891.5,-112.5"/>
<text text-anchor="middle" x="948" y="-119.5" font-family="Helvetica,sans-Serif" font-size="10.00" fill="#000000">src/crypto/cubehash.c</text>
</a>
</g>
</g>
<!-- Node164&#45;&gt;Node165 -->
<g id="edge40" class="edge">
<title>Node164&#45;&gt;Node165</title>
<path fill="none" stroke="#191970" d="M981.6878,-160.5004C973.3553,-150.9775 963.3647,-139.5596 956.4373,-131.6427"/>
<polygon fill="#191970" stroke="#191970" points="979.2457,-163.0245 988.4649,-168.2455 984.5138,-158.415 979.2457,-163.0245"/>
</g>
<!-- Node166&#45;&gt;Node4 -->
<g id="edge42" class="edge">
<title>Node166&#45;&gt;Node4</title>
<path fill="none" stroke="#191970" d="M1615.3062,-168.0319C1615.2041,-168.0212 1615.102,-168.0106 1615,-168 1384.1343,-144.0204 1323.2535,-168.2876 1094,-132 1091.1719,-131.5524 1088.2511,-131.0005 1085.3355,-130.3878"/>
<polygon fill="#191970" stroke="#191970" points="1614.6543,-171.4808 1624.9803,-169.1094 1615.4292,-164.5238 1614.6543,-171.4808"/>
</g>
<!-- Node167 -->
<g id="node32" class="node">
<title>Node167</title>
<g id="a_node32"><a xlink:href="shavite_8c.html" target="_top" xlink:title="src/crypto/shavite.c">
<polygon fill="#ffffff" stroke="#000000" points="1645.5,-112.5 1645.5,-131.5 1748.5,-131.5 1748.5,-112.5 1645.5,-112.5"/>
<text text-anchor="middle" x="1697" y="-119.5" font-family="Helvetica,sans-Serif" font-size="10.00" fill="#000000">src/crypto/shavite.c</text>
</a>
</g>
</g>
<!-- Node166&#45;&gt;Node167 -->
<g id="edge43" class="edge">
<title>Node166&#45;&gt;Node167</title>
<path fill="none" stroke="#191970" d="M1690.5433,-158.1575C1692.1509,-149.155 1693.9786,-138.9199 1695.2781,-131.6427"/>
<polygon fill="#191970" stroke="#191970" points="1687.0544,-157.786 1688.7419,-168.2455 1693.9454,-159.0166 1687.0544,-157.786"/>
</g>
<!-- Node168&#45;&gt;Node4 -->
<g id="edge45" class="edge">
<title>Node168&#45;&gt;Node4</title>
<path fill="none" stroke="#191970" d="M1115.4581,-162.49C1100.461,-152.6096 1081.5027,-140.1194 1068.6362,-131.6427"/>
<polygon fill="#191970" stroke="#191970" points="1113.9179,-165.6666 1124.1941,-168.2455 1117.7691,-159.8212 1113.9179,-165.6666"/>
</g>
<!-- Node169 -->
<g id="node34" class="node">
<title>Node169</title>
<g id="a_node34"><a xlink:href="simd_8c.html" target="_top" xlink:title="src/crypto/simd.c">
<polygon fill="#ffffff" stroke="#000000" points="1103,-112.5 1103,-131.5 1195,-131.5 1195,-112.5 1103,-112.5"/>
<text text-anchor="middle" x="1149" y="-119.5" font-family="Helvetica,sans-Serif" font-size="10.00" fill="#000000">src/crypto/simd.c</text>
</a>
</g>
</g>
<!-- Node168&#45;&gt;Node169 -->
<g id="edge46" class="edge">
<title>Node168&#45;&gt;Node169</title>
<path fill="none" stroke="#191970" d="M1142.5433,-158.1575C1144.1509,-149.155 1145.9786,-138.9199 1147.2781,-131.6427"/>
<polygon fill="#191970" stroke="#191970" points="1139.0544,-157.786 1140.7419,-168.2455 1145.9454,-159.0166 1139.0544,-157.786"/>
</g>
<!-- Node170&#45;&gt;Node4 -->
<g id="edge48" class="edge">
<title>Node170&#45;&gt;Node4</title>
<path fill="none" stroke="#191970" d="M1757.0332,-168.0081C1462.2261,-138.6759 1382.9627,-175.5457 1094,-132 1091.1687,-131.5733 1088.2456,-131.0359 1085.3286,-130.4326"/>
<polygon fill="#191970" stroke="#191970" points="1756.8609,-171.5085 1767.1625,-169.0334 1757.5659,-164.544 1756.8609,-171.5085"/>
</g>
<!-- Node171 -->
<g id="node36" class="node">
<title>Node171</title>
<g id="a_node36"><a xlink:href="echo_8c.html" target="_top" xlink:title="src/crypto/echo.c">
<polygon fill="#ffffff" stroke="#000000" points="1778,-112.5 1778,-131.5 1870,-131.5 1870,-112.5 1778,-112.5"/>
<text text-anchor="middle" x="1824" y="-119.5" font-family="Helvetica,sans-Serif" font-size="10.00" fill="#000000">src/crypto/echo.c</text>
</a>
</g>
</g>
<!-- Node170&#45;&gt;Node171 -->
<g id="edge49" class="edge">
<title>Node170&#45;&gt;Node171</title>
<path fill="none" stroke="#191970" d="M1824,-158.1575C1824,-149.155 1824,-138.9199 1824,-131.6427"/>
<polygon fill="#191970" stroke="#191970" points="1820.5001,-158.2455 1824,-168.2455 1827.5001,-158.2456 1820.5001,-158.2455"/>
</g>
<!-- Node172&#45;&gt;Node4 -->
<g id="edge51" class="edge">
<title>Node172&#45;&gt;Node4</title>
<path fill="none" stroke="#191970" d="M1225.5001,-165.8539C1182.9482,-154.9731 1121.7653,-139.3281 1085.1421,-129.9633"/>
<polygon fill="#191970" stroke="#191970" points="1224.7972,-169.2867 1235.3526,-168.3733 1226.5314,-162.5049 1224.7972,-169.2867"/>
</g>
<!-- Node173 -->
<g id="node38" class="node">
<title>Node173</title>
<g id="a_node38"><a xlink:href="sph__hamsi_8c.html" target="_top" xlink:title="src/crypto/sph_hamsi.c">
<polygon fill="#ffffff" stroke="#000000" points="1213.5,-112.5 1213.5,-131.5 1332.5,-131.5 1332.5,-112.5 1213.5,-112.5"/>
<text text-anchor="middle" x="1273" y="-119.5" font-family="Helvetica,sans-Serif" font-size="10.00" fill="#000000">src/crypto/sph_hamsi.c</text>
</a>
</g>
</g>
<!-- Node172&#45;&gt;Node173 -->
<g id="edge52" class="edge">
<title>Node172&#45;&gt;Node173</title>
<path fill="none" stroke="#191970" d="M1273,-158.1575C1273,-149.155 1273,-138.9199 1273,-131.6427"/>
<polygon fill="#191970" stroke="#191970" points="1269.5001,-158.2455 1273,-168.2455 1276.5001,-158.2456 1269.5001,-158.2455"/>
</g>
<!-- Node174&#45;&gt;Node4 -->
<g id="edge54" class="edge">
<title>Node174&#45;&gt;Node4</title>
<path fill="none" stroke="#191970" d="M1340.8222,-167.9886C1229.5597,-151.999 1199.7559,-152.8718 1094,-132 1091.1909,-131.4456 1088.2831,-130.8203 1085.376,-130.1598"/>
<polygon fill="#191970" stroke="#191970" points="1340.3632,-171.4586 1350.7622,-169.4306 1341.3683,-164.5311 1340.3632,-171.4586"/>
</g>
<!-- Node175 -->
<g id="node40" class="node">
<title>Node175</title>
<g id="a_node40"><a xlink:href="sph__fugue_8c.html" target="_top" xlink:title="src/crypto/sph_fugue.c">
<polygon fill="#ffffff" stroke="#000000" points="1351,-112.5 1351,-131.5 1467,-131.5 1467,-112.5 1351,-112.5"/>
<text text-anchor="middle" x="1409" y="-119.5" font-family="Helvetica,sans-Serif" font-size="10.00" fill="#000000">src/crypto/sph_fugue.c</text>
</a>
</g>
</g>
<!-- Node174&#45;&gt;Node175 -->
<g id="edge55" class="edge">
<title>Node174&#45;&gt;Node175</title>
<path fill="none" stroke="#191970" d="M1409,-158.1575C1409,-149.155 1409,-138.9199 1409,-131.6427"/>
<polygon fill="#191970" stroke="#191970" points="1405.5001,-158.2455 1409,-168.2455 1412.5001,-158.2456 1405.5001,-158.2455"/>
</g>
<!-- Node176&#45;&gt;Node4 -->
<g id="edge57" class="edge">
<title>Node176&#45;&gt;Node4</title>
<path fill="none" stroke="#191970" d="M1475.2542,-167.9741C1304.9122,-148.4093 1258.8862,-160.214 1094,-132 1091.1778,-131.5171 1088.2609,-130.9409 1085.3479,-130.3125"/>
<polygon fill="#191970" stroke="#191970" points="1474.9784,-171.4656 1485.3169,-169.1495 1475.7905,-164.5129 1474.9784,-171.4656"/>
</g>
<!-- Node177 -->
<g id="node42" class="node">
<title>Node177</title>
<g id="a_node42"><a xlink:href="sph__shabal_8c.html" target="_top" xlink:title="src/crypto/sph_shabal.c">
<polygon fill="#ffffff" stroke="#000000" points="1485.5,-112.5 1485.5,-131.5 1606.5,-131.5 1606.5,-112.5 1485.5,-112.5"/>
<text text-anchor="middle" x="1546" y="-119.5" font-family="Helvetica,sans-Serif" font-size="10.00" fill="#000000">src/crypto/sph_shabal.c</text>
</a>
</g>
</g>
<!-- Node176&#45;&gt;Node177 -->
<g id="edge58" class="edge">
<title>Node176&#45;&gt;Node177</title>
<path fill="none" stroke="#191970" d="M1546,-158.1575C1546,-149.155 1546,-138.9199 1546,-131.6427"/>
<polygon fill="#191970" stroke="#191970" points="1542.5001,-158.2455 1546,-168.2455 1549.5001,-158.2456 1542.5001,-158.2455"/>
</g>
<!-- Node178&#45;&gt;Node4 -->
<g id="edge60" class="edge">
<title>Node178&#45;&gt;Node4</title>
<path fill="none" stroke="#191970" d="M2025.0444,-168.0103C1611.2162,-133.4951 1501.0648,-190.1089 1094,-132 1091.1655,-131.5954 1088.2402,-131.073 1085.3217,-130.4797"/>
<polygon fill="#191970" stroke="#191970" points="2024.9286,-171.5129 2035.1883,-168.8694 2025.5194,-164.5379 2024.9286,-171.5129"/>
</g>
<!-- Node179 -->
<g id="node44" class="node">
<title>Node179</title>
<g id="a_node44"><a xlink:href="sph__whirlpool_8c.html" target="_top" xlink:title="src/crypto/sph_whirlpool.c">
<polygon fill="#ffffff" stroke="#000000" points="1888.5,-112.5 1888.5,-131.5 2019.5,-131.5 2019.5,-112.5 1888.5,-112.5"/>
<text text-anchor="middle" x="1954" y="-119.5" font-family="Helvetica,sans-Serif" font-size="10.00" fill="#000000">src/crypto/sph_whirlpool.c</text>
</a>
</g>
</g>
<!-- Node178&#45;&gt;Node179 -->
<g id="edge61" class="edge">
<title>Node178&#45;&gt;Node179</title>
<path fill="none" stroke="#191970" d="M2066.3206,-164.7888C2039.4802,-154.5639 2002.953,-140.6488 1978.9404,-131.5011"/>
<polygon fill="#191970" stroke="#191970" points="2065.1389,-168.0839 2075.7298,-168.3733 2067.6309,-161.5425 2065.1389,-168.0839"/>
</g>
<!-- Node109 -->
<g id="node45" class="node">
<title>Node109</title>
<g id="a_node45"><a xlink:href="whirlpool_8c.html" target="_top" xlink:title="src/crypto/whirlpool.c">
<polygon fill="#ffffff" stroke="#000000" points="2038,-112.5 2038,-131.5 2148,-131.5 2148,-112.5 2038,-112.5"/>
<text text-anchor="middle" x="2093" y="-119.5" font-family="Helvetica,sans-Serif" font-size="10.00" fill="#000000">src/crypto/whirlpool.c</text>
</a>
</g>
</g>
<!-- Node178&#45;&gt;Node109 -->
<g id="edge62" class="edge">
<title>Node178&#45;&gt;Node109</title>
<path fill="none" stroke="#191970" d="M2098.1654,-158.1575C2096.8793,-149.155 2095.4171,-138.9199 2094.3775,-131.6427"/>
<polygon fill="#191970" stroke="#191970" points="2094.7274,-158.8411 2099.6065,-168.2455 2101.657,-157.851 2094.7274,-158.8411"/>
</g>
<!-- Node110 -->
<g id="node46" class="node">
<title>Node110</title>
<g id="a_node46"><a xlink:href="whirlpoolx_8c.html" target="_top" xlink:title="src/crypto/whirlpoolx.c">
<polygon fill="#ffffff" stroke="#000000" points="2166.5,-112.5 2166.5,-131.5 2281.5,-131.5 2281.5,-112.5 2166.5,-112.5"/>
<text text-anchor="middle" x="2224" y="-119.5" font-family="Helvetica,sans-Serif" font-size="10.00" fill="#000000">src/crypto/whirlpoolx.c</text>
</a>
</g>
</g>
<!-- Node178&#45;&gt;Node110 -->
<g id="edge63" class="edge">
<title>Node178&#45;&gt;Node110</title>
<path fill="none" stroke="#191970" d="M2131.5065,-164.1109C2153.8112,-153.9559 2183.4799,-140.4482 2203.1315,-131.5011"/>
<polygon fill="#191970" stroke="#191970" points="2129.7953,-161.0442 2122.1445,-168.3733 2132.6959,-167.415 2129.7953,-161.0442"/>
</g>
<!-- Node180&#45;&gt;Node4 -->
<g id="edge65" class="edge">
<title>Node180&#45;&gt;Node4</title>
<path fill="none" stroke="#191970" d="M2232.1523,-172.0276C2213.6518,-170.5331 2193.5574,-169.0567 2175,-168 1695.0666,-140.6716 1570.0654,-198.6678 1094,-132 1091.1644,-131.6029 1088.2384,-131.0858 1085.3194,-130.4958"/>
<polygon fill="#191970" stroke="#191970" points="2231.9935,-175.5262 2242.2466,-172.8571 2232.5669,-168.5497 2231.9935,-175.5262"/>
</g>
<!-- Node181 -->
<g id="node48" class="node">
<title>Node181</title>
<g id="a_node48"><a xlink:href="sph__sha2_8c.html" target="_top" xlink:title="src/crypto/sph_sha2.c">
<polygon fill="#ffffff" stroke="#000000" points="2299.5,-112.5 2299.5,-131.5 2412.5,-131.5 2412.5,-112.5 2299.5,-112.5"/>
<text text-anchor="middle" x="2356" y="-119.5" font-family="Helvetica,sans-Serif" font-size="10.00" fill="#000000">src/crypto/sph_sha2.c</text>
</a>
</g>
</g>
<!-- Node180&#45;&gt;Node181 -->
<g id="edge66" class="edge">
<title>Node180&#45;&gt;Node181</title>
<path fill="none" stroke="#191970" d="M2316.2271,-161.0751C2326.0341,-151.4402 2337.964,-139.7196 2346.1851,-131.6427"/>
<polygon fill="#191970" stroke="#191970" points="2313.6091,-158.7406 2308.9286,-168.2455 2318.5149,-163.734 2313.6091,-158.7406"/>
</g>
<!-- Node182 -->
<g id="node49" class="node">
<title>Node182</title>
<g id="a_node49"><a xlink:href="sph__sha512_8c.html" target="_top" xlink:title="src/crypto/sph_sha512.c">
<polygon fill="#ffffff" stroke="#000000" points="2431,-112.5 2431,-131.5 2555,-131.5 2555,-112.5 2431,-112.5"/>
<text text-anchor="middle" x="2493" y="-119.5" font-family="Helvetica,sans-Serif" font-size="10.00" fill="#000000">src/crypto/sph_sha512.c</text>
</a>
</g>
</g>
<!-- Node180&#45;&gt;Node182 -->
<g id="edge67" class="edge">
<title>Node180&#45;&gt;Node182</title>
<path fill="none" stroke="#191970" d="M2341.998,-165.5882C2377.6408,-155.2996 2427.5614,-140.8895 2460.0854,-131.5011"/>
<polygon fill="#191970" stroke="#191970" points="2340.9868,-162.2371 2332.3498,-168.3733 2342.9282,-168.9625 2340.9868,-162.2371"/>
</g>
<!-- Node183&#45;&gt;Node167 -->
<g id="edge70" class="edge">
<title>Node183&#45;&gt;Node167</title>
<path fill="none" stroke="#191970" d="M1903.5036,-166.3073C1855.4098,-155.9883 1786.1762,-141.1336 1741.3871,-131.5237"/>
<polygon fill="#191970" stroke="#191970" points="1902.9173,-169.7611 1913.4291,-168.4369 1904.3859,-162.9168 1902.9173,-169.7611"/>
</g>
<!-- Node183&#45;&gt;Node171 -->
<g id="edge69" class="edge">
<title>Node183&#45;&gt;Node171</title>
<path fill="none" stroke="#191970" d="M1925.4172,-164.3833C1901.0464,-154.1985 1868.3358,-140.5284 1846.7348,-131.5011"/>
<polygon fill="#191970" stroke="#191970" points="1924.3883,-167.7466 1934.9646,-168.3733 1927.0875,-161.2879 1924.3883,-167.7466"/>
</g>
</g>
</svg>
