<?xml version="1.0" encoding="UTF-8" standalone="no"?>
<!DOCTYPE svg PUBLIC "-//W3C//DTD SVG 1.1//EN"
 "http://www.w3.org/Graphics/SVG/1.1/DTD/svg11.dtd">
<!-- Generated by graphviz version 2.40.1 (20161225.0304)
 -->
<!-- Title: GetScriptForWitness Pages: 1 -->
<svg width="1232pt" height="700pt"
 viewBox="0.00 0.00 1232.00 700.06" xmlns="http://www.w3.org/2000/svg" xmlns:xlink="http://www.w3.org/1999/xlink">
<g id="graph0" class="graph" transform="scale(1 1) rotate(0) translate(4 696.0588)">
<title>GetScriptForWitness</title>
<polygon fill="#ffffff" stroke="transparent" points="-4,4 -4,-696.0588 1228,-696.0588 1228,4 -4,4"/>
<!-- Node287 -->
<g id="node1" class="node">
<title>Node287</title>
<polygon fill="#bfbfbf" stroke="#000000" points="0,-133.5 0,-152.5 108,-152.5 108,-133.5 0,-133.5"/>
<text text-anchor="middle" x="54" y="-140.5" font-family="Helvetica,sans-Serif" font-size="10.00" fill="#000000">GetScriptForWitness</text>
</g>
<!-- Node288 -->
<g id="node2" class="node">
<title>Node288</title>
<g id="a_node2"><a xlink:href="standard_8cpp.html#a81899059ee66f695aaf96a07d5e2ebdc" target="_top" xlink:title="Parse a scriptPubKey and identify script type for standard scripts. ">
<polygon fill="#ffffff" stroke="#000000" points="181.5,-437.5 181.5,-456.5 225.5,-456.5 225.5,-437.5 181.5,-437.5"/>
<text text-anchor="middle" x="203.5" y="-444.5" font-family="Helvetica,sans-Serif" font-size="10.00" fill="#000000">Solver</text>
</a>
</g>
</g>
<!-- Node287&#45;&gt;Node288 -->
<g id="edge1" class="edge">
<title>Node287&#45;&gt;Node288</title>
<path fill="none" stroke="#191970" d="M58.8048,-152.7703C80.0686,-196.009 165.9063,-370.5552 194.3175,-428.328"/>
<polygon fill="#191970" stroke="#191970" points="191.2338,-429.9886 198.7876,-437.4177 197.5153,-426.8995 191.2338,-429.9886"/>
</g>
<!-- Node290 -->
<g id="node4" class="node">
<title>Node290</title>
<g id="a_node4"><a xlink:href="classprevector.html#a626f7d206dbc24e5610631809762758b" target="_top" xlink:title="prevector::size">
<polygon fill="#ffffff" stroke="#000000" points="986.5,-418.5 986.5,-437.5 1067.5,-437.5 1067.5,-418.5 986.5,-418.5"/>
<text text-anchor="middle" x="1027" y="-425.5" font-family="Helvetica,sans-Serif" font-size="10.00" fill="#000000">prevector::size</text>
</a>
</g>
</g>
<!-- Node287&#45;&gt;Node290 -->
<g id="edge56" class="edge">
<title>Node287&#45;&gt;Node290</title>
<path fill="none" stroke="#191970" d="M61.7097,-152.5697C75.9301,-169.4298 108.1327,-204.0548 144,-219 232.3441,-255.8113 262.7934,-238 358.5,-238 358.5,-238 358.5,-238 699.5,-238 809.7825,-238 855.2545,-225.6464 941,-295 970.0599,-318.5045 956.4791,-339.7617 977,-371 986.4453,-385.3782 999.2774,-399.931 1009.5769,-410.7331"/>
<polygon fill="#191970" stroke="#191970" points="1007.372,-413.485 1016.8612,-418.1973 1012.3818,-408.596 1007.372,-413.485"/>
</g>
<!-- Node313 -->
<g id="node27" class="node">
<title>Node313</title>
<g id="a_node27"><a xlink:href="class_c_hash160.html#af56cdd9443013eb68b246aa8450217f2" target="_top" xlink:title="CHash160::Write">
<polygon fill="#ffffff" stroke="#000000" points="157.5,-190.5 157.5,-209.5 249.5,-209.5 249.5,-190.5 157.5,-190.5"/>
<text text-anchor="middle" x="203.5" y="-197.5" font-family="Helvetica,sans-Serif" font-size="10.00" fill="#000000">CHash160::Write</text>
</a>
</g>
</g>
<!-- Node287&#45;&gt;Node313 -->
<g id="edge46" class="edge">
<title>Node287&#45;&gt;Node313</title>
<path fill="none" stroke="#191970" d="M79.0229,-152.5405C103.6014,-161.9116 141.307,-176.2876 168.78,-186.7623"/>
<polygon fill="#191970" stroke="#191970" points="167.8046,-190.1361 178.3954,-190.4284 170.2984,-183.5954 167.8046,-190.1361"/>
</g>
<!-- Node314 -->
<g id="node28" class="node">
<title>Node314</title>
<g id="a_node28"><a xlink:href="class_c_s_h_a256.html#a9d7de520a562655da85349372820c883" target="_top" xlink:title="CSHA256::Write">
<polygon fill="#ffffff" stroke="#000000" points="313.5,-152.5 313.5,-171.5 403.5,-171.5 403.5,-152.5 313.5,-152.5"/>
<text text-anchor="middle" x="358.5" y="-159.5" font-family="Helvetica,sans-Serif" font-size="10.00" fill="#000000">CSHA256::Write</text>
</a>
</g>
</g>
<!-- Node287&#45;&gt;Node314 -->
<g id="edge55" class="edge">
<title>Node287&#45;&gt;Node314</title>
<path fill="none" stroke="#191970" d="M108.0876,-146.3749C163.111,-149.8082 247.9535,-155.1022 303.3551,-158.5591"/>
<polygon fill="#191970" stroke="#191970" points="303.1448,-162.0527 313.3434,-159.1823 303.5808,-155.0663 303.1448,-162.0527"/>
</g>
<!-- Node315 -->
<g id="node29" class="node">
<title>Node315</title>
<g id="a_node29"><a xlink:href="classbase__blob.html#a00e7426a5d1ada51c635debf85f5a810" target="_top" xlink:title="base_blob\&lt; 160 \&gt;::size">
<polygon fill="#ffffff" stroke="#000000" points="144,-114.5 144,-133.5 263,-133.5 263,-114.5 144,-114.5"/>
<text text-anchor="middle" x="203.5" y="-121.5" font-family="Helvetica,sans-Serif" font-size="10.00" fill="#000000">base_blob&lt; 160 &gt;::size</text>
</a>
</g>
</g>
<!-- Node287&#45;&gt;Node315 -->
<g id="edge49" class="edge">
<title>Node287&#45;&gt;Node315</title>
<path fill="none" stroke="#191970" d="M108.3958,-136.0868C116.6768,-135.0344 125.3185,-133.9361 133.8704,-132.8492"/>
<polygon fill="#191970" stroke="#191970" points="134.3624,-136.315 143.8413,-131.582 133.4798,-129.3708 134.3624,-136.315"/>
</g>
<!-- Node316 -->
<g id="node30" class="node">
<title>Node316</title>
<g id="a_node30"><a xlink:href="class_c_hash160.html#a9bb08e1772002ae1a5d85017ba7952ee" target="_top" xlink:title="CHash160::Finalize">
<polygon fill="#ffffff" stroke="#000000" points="152,-76.5 152,-95.5 255,-95.5 255,-76.5 152,-76.5"/>
<text text-anchor="middle" x="203.5" y="-83.5" font-family="Helvetica,sans-Serif" font-size="10.00" fill="#000000">CHash160::Finalize</text>
</a>
</g>
</g>
<!-- Node287&#45;&gt;Node316 -->
<g id="edge50" class="edge">
<title>Node287&#45;&gt;Node316</title>
<path fill="none" stroke="#191970" d="M75.24,-133.39C93.3412,-125.3557 120.1392,-113.8264 144,-105 149.8733,-102.8274 156.1246,-100.6681 162.2845,-98.6267"/>
<polygon fill="#191970" stroke="#191970" points="163.3909,-101.9474 171.8217,-95.5308 161.2296,-95.2894 163.3909,-101.9474"/>
</g>
<!-- Node320 -->
<g id="node34" class="node">
<title>Node320</title>
<g id="a_node34"><a xlink:href="classbase__blob.html#aeee68e00ceeacf49086e98b661e017ff" target="_top" xlink:title="base_blob::begin">
<polygon fill="#ffffff" stroke="#000000" points="158.5,-38.5 158.5,-57.5 248.5,-57.5 248.5,-38.5 158.5,-38.5"/>
<text text-anchor="middle" x="203.5" y="-45.5" font-family="Helvetica,sans-Serif" font-size="10.00" fill="#000000">base_blob::begin</text>
</a>
</g>
</g>
<!-- Node287&#45;&gt;Node320 -->
<g id="edge57" class="edge">
<title>Node287&#45;&gt;Node320</title>
<path fill="none" stroke="#191970" d="M62.7966,-133.4464C77.9371,-117.5295 110.534,-85.5081 144,-67 147.895,-64.8459 152.0707,-62.8941 156.3368,-61.1351"/>
<polygon fill="#191970" stroke="#191970" points="157.6237,-64.3905 165.7469,-57.5887 155.155,-57.8402 157.6237,-64.3905"/>
</g>
<!-- Node321 -->
<g id="node35" class="node">
<title>Node321</title>
<g id="a_node35"><a xlink:href="script_8h.html#a54e10bc63d490dd5d39d245102b81359" target="_top" xlink:title="ToByteVector">
<polygon fill="#ffffff" stroke="#000000" points="165,-.5 165,-19.5 242,-19.5 242,-.5 165,-.5"/>
<text text-anchor="middle" x="203.5" y="-7.5" font-family="Helvetica,sans-Serif" font-size="10.00" fill="#000000">ToByteVector</text>
</a>
</g>
</g>
<!-- Node287&#45;&gt;Node321 -->
<g id="edge58" class="edge">
<title>Node287&#45;&gt;Node321</title>
<path fill="none" stroke="#191970" d="M58.9081,-133.4715C70.6148,-111.6787 102.3351,-57.8607 144,-29 147.5099,-26.5687 151.3477,-24.4359 155.3295,-22.5672"/>
<polygon fill="#191970" stroke="#191970" points="156.8807,-25.7136 164.7951,-18.67 154.2157,-19.2408 156.8807,-25.7136"/>
</g>
<!-- Node289 -->
<g id="node3" class="node">
<title>Node289</title>
<g id="a_node3"><a xlink:href="class_c_script.html#a0c3729c606d318923dc06f95d85a0971" target="_top" xlink:title="CScript::IsPayToScriptHash">
<polygon fill="#ffffff" stroke="#000000" points="454,-646.5 454,-665.5 595,-665.5 595,-646.5 454,-646.5"/>
<text text-anchor="middle" x="524.5" y="-653.5" font-family="Helvetica,sans-Serif" font-size="10.00" fill="#000000">CScript::IsPayToScriptHash</text>
</a>
</g>
</g>
<!-- Node288&#45;&gt;Node289 -->
<g id="edge2" class="edge">
<title>Node288&#45;&gt;Node289</title>
<path fill="none" stroke="#191970" d="M205.2136,-456.7772C211.32,-488.3896 235.1664,-588.3154 299,-632 340.7599,-660.5784 397.4294,-666.51 443.5108,-665.3313"/>
<polygon fill="#191970" stroke="#191970" points="443.9109,-668.8189 453.7735,-664.9486 443.65,-661.8238 443.9109,-668.8189"/>
</g>
<!-- Node288&#45;&gt;Node290 -->
<g id="edge21" class="edge">
<title>Node288&#45;&gt;Node290</title>
<path fill="none" stroke="#191970" d="M207.6236,-456.6265C218.5627,-480.9075 250.8171,-544.8513 299,-575 385.4919,-629.1192 422.4719,-618 524.5,-618 524.5,-618 524.5,-618 699.5,-618 807.3621,-618 857.0905,-661.7747 941,-594 981.675,-561.1463 950.6138,-527.1398 977,-482 985.2209,-467.9363 997.6555,-454.4866 1008.0674,-444.5278"/>
<polygon fill="#191970" stroke="#191970" points="1010.5559,-446.994 1015.5319,-437.6404 1005.809,-441.8494 1010.5559,-446.994"/>
</g>
<!-- Node292 -->
<g id="node6" class="node">
<title>Node292</title>
<g id="a_node6"><a xlink:href="classprevector.html#aa9210cbe708412a70868d6e0bca844c9" target="_top" xlink:title="prevector::begin">
<polygon fill="#ffffff" stroke="#000000" points="829.5,-532.5 829.5,-551.5 915.5,-551.5 915.5,-532.5 829.5,-532.5"/>
<text text-anchor="middle" x="872.5" y="-539.5" font-family="Helvetica,sans-Serif" font-size="10.00" fill="#000000">prevector::begin</text>
</a>
</g>
</g>
<!-- Node288&#45;&gt;Node292 -->
<g id="edge5" class="edge">
<title>Node288&#45;&gt;Node292</title>
<path fill="none" stroke="#191970" d="M209.7403,-456.725C223.2418,-476.8308 257.3345,-522.7802 299,-543 479.165,-630.4322 730.2393,-579.861 829.5875,-554.1671"/>
<polygon fill="#191970" stroke="#191970" points="830.7775,-557.4731 839.5552,-551.5399 828.9934,-550.7042 830.7775,-557.4731"/>
</g>
<!-- Node297 -->
<g id="node11" class="node">
<title>Node297</title>
<g id="a_node11"><a xlink:href="class_c_script.html#ab23f32dfecc865f0d64467a4d8a5e1fc" target="_top" xlink:title="CScript::IsAssetScript">
<polygon fill="#ffffff" stroke="#000000" points="467,-532.5 467,-551.5 582,-551.5 582,-532.5 467,-532.5"/>
<text text-anchor="middle" x="524.5" y="-539.5" font-family="Helvetica,sans-Serif" font-size="10.00" fill="#000000">CScript::IsAssetScript</text>
</a>
</g>
</g>
<!-- Node288&#45;&gt;Node297 -->
<g id="edge11" class="edge">
<title>Node288&#45;&gt;Node297</title>
<path fill="none" stroke="#191970" d="M212.7315,-456.6277C228.646,-472.5327 263.0178,-503.9334 299,-518 349.4529,-537.7237 410.8139,-543.1785 456.7824,-544.005"/>
<polygon fill="#191970" stroke="#191970" points="456.8986,-547.5064 466.9367,-544.1173 456.9761,-540.5068 456.8986,-547.5064"/>
</g>
<!-- Node298 -->
<g id="node12" class="node">
<title>Node298</title>
<g id="a_node12"><a xlink:href="class_c_script.html#ae6f2ab1af6361c5772f62b28b19f5eae" target="_top" xlink:title="CScript::IsWitnessProgram">
<polygon fill="#ffffff" stroke="#000000" points="631,-494.5 631,-513.5 768,-513.5 768,-494.5 631,-494.5"/>
<text text-anchor="middle" x="699.5" y="-501.5" font-family="Helvetica,sans-Serif" font-size="10.00" fill="#000000">CScript::IsWitnessProgram</text>
</a>
</g>
</g>
<!-- Node288&#45;&gt;Node298 -->
<g id="edge13" class="edge">
<title>Node288&#45;&gt;Node298</title>
<path fill="none" stroke="#191970" d="M225.7868,-456.6486C244.8409,-464.4208 273.1925,-474.8685 299,-480 409.0675,-501.8857 539.219,-505.7301 620.582,-505.573"/>
<polygon fill="#191970" stroke="#191970" points="620.7627,-509.0724 630.7485,-505.532 620.7344,-502.0725 620.7627,-509.0724"/>
</g>
<!-- Node299 -->
<g id="node13" class="node">
<title>Node299</title>
<g id="a_node13"><a xlink:href="class_c_script.html#a7f975fca06b3e9a17da8ba23c7647e2e" target="_top" xlink:title="Encode/decode small integers: ">
<polygon fill="#ffffff" stroke="#000000" points="814.5,-456.5 814.5,-475.5 930.5,-475.5 930.5,-456.5 814.5,-456.5"/>
<text text-anchor="middle" x="872.5" y="-463.5" font-family="Helvetica,sans-Serif" font-size="10.00" fill="#000000">CScript::DecodeOP_N</text>
</a>
</g>
</g>
<!-- Node288&#45;&gt;Node299 -->
<g id="edge45" class="edge">
<title>Node288&#45;&gt;Node299</title>
<path fill="none" stroke="#191970" d="M225.8753,-448.3482C245.224,-449.4718 273.9486,-451.0386 299,-452 481.4603,-459.0021 696.7169,-463.1553 804.2151,-464.9489"/>
<polygon fill="#191970" stroke="#191970" points="804.2205,-468.4494 814.277,-465.1151 804.3362,-461.4503 804.2205,-468.4494"/>
</g>
<!-- Node300 -->
<g id="node14" class="node">
<title>Node300</title>
<g id="a_node14"><a xlink:href="classprevector.html#aab7f6e13a3cac85cc340fc6b90c5365c" target="_top" xlink:title="prevector::end">
<polygon fill="#ffffff" stroke="#000000" points="833,-418.5 833,-437.5 912,-437.5 912,-418.5 833,-418.5"/>
<text text-anchor="middle" x="872.5" y="-425.5" font-family="Helvetica,sans-Serif" font-size="10.00" fill="#000000">prevector::end</text>
</a>
</g>
</g>
<!-- Node288&#45;&gt;Node300 -->
<g id="edge42" class="edge">
<title>Node288&#45;&gt;Node300</title>
<path fill="none" stroke="#191970" d="M225.7588,-446.3678C320.1111,-443.6882 688.3577,-433.2298 822.9164,-429.4082"/>
<polygon fill="#191970" stroke="#191970" points="823.0516,-432.9059 832.9482,-429.1233 822.8528,-425.9087 823.0516,-432.9059"/>
</g>
<!-- Node301 -->
<g id="node15" class="node">
<title>Node301</title>
<g id="a_node15"><a xlink:href="class_c_script.html#a090905f875fa5a40e616b319de8e973f" target="_top" xlink:title="Called by IsStandardTx and P2SH/BIP62 VerifyScript (which makes it consensus&#45;critical). ">
<polygon fill="#ffffff" stroke="#000000" points="305,-380.5 305,-399.5 412,-399.5 412,-380.5 305,-380.5"/>
<text text-anchor="middle" x="358.5" y="-387.5" font-family="Helvetica,sans-Serif" font-size="10.00" fill="#000000">CScript::IsPushOnly</text>
</a>
</g>
</g>
<!-- Node288&#45;&gt;Node301 -->
<g id="edge22" class="edge">
<title>Node288&#45;&gt;Node301</title>
<path fill="none" stroke="#191970" d="M225.7077,-438.8333C251.0525,-429.5129 292.8593,-414.1389 322.7952,-403.1302"/>
<polygon fill="#191970" stroke="#191970" points="324.2739,-406.3156 332.4514,-399.5792 321.8578,-399.7458 324.2739,-406.3156"/>
</g>
<!-- Node302 -->
<g id="node16" class="node">
<title>Node302</title>
<g id="a_node16"><a xlink:href="class_c_script.html#a94635ed93d8d244ec3acfa83f9ecfe5f" target="_top" xlink:title="CScript::GetOp">
<polygon fill="#ffffff" stroke="#000000" points="482.5,-342.5 482.5,-361.5 566.5,-361.5 566.5,-342.5 482.5,-342.5"/>
<text text-anchor="middle" x="524.5" y="-349.5" font-family="Helvetica,sans-Serif" font-size="10.00" fill="#000000">CScript::GetOp</text>
</a>
</g>
</g>
<!-- Node288&#45;&gt;Node302 -->
<g id="edge43" class="edge">
<title>Node288&#45;&gt;Node302</title>
<path fill="none" stroke="#191970" d="M211.8091,-437.4138C227.1021,-420.5276 261.5843,-385.8628 299,-371 355.01,-348.7509 424.8632,-346.3436 471.859,-347.9879"/>
<polygon fill="#191970" stroke="#191970" points="471.9741,-351.4959 482.1138,-348.4237 472.2714,-344.5022 471.9741,-351.4959"/>
</g>
<!-- Node303 -->
<g id="node17" class="node">
<title>Node303</title>
<g id="a_node17"><a xlink:href="class_c_script.html#a7b2baf842621f07c4939408acf63377c" target="_top" xlink:title="CScript::clear">
<polygon fill="#ffffff" stroke="#000000" points="320,-304.5 320,-323.5 397,-323.5 397,-304.5 320,-304.5"/>
<text text-anchor="middle" x="358.5" y="-311.5" font-family="Helvetica,sans-Serif" font-size="10.00" fill="#000000">CScript::clear</text>
</a>
</g>
</g>
<!-- Node288&#45;&gt;Node303 -->
<g id="edge25" class="edge">
<title>Node288&#45;&gt;Node303</title>
<path fill="none" stroke="#191970" d="M209.7298,-437.1909C223.4654,-416.2714 258.3799,-366.8374 299,-338 304.6751,-333.9711 311.1246,-330.4791 317.6323,-327.502"/>
<polygon fill="#191970" stroke="#191970" points="319.2664,-330.6117 327.1251,-323.506 316.5505,-324.16 319.2664,-330.6117"/>
</g>
<!-- Node312 -->
<g id="node26" class="node">
<title>Node312</title>
<g id="a_node26"><a xlink:href="classuint160.html#a66918f25b891415f2a9bbbb1dfdbedbd" target="_top" xlink:title="uint160::uint160">
<polygon fill="#ffffff" stroke="#000000" points="315.5,-266.5 315.5,-285.5 401.5,-285.5 401.5,-266.5 315.5,-266.5"/>
<text text-anchor="middle" x="358.5" y="-273.5" font-family="Helvetica,sans-Serif" font-size="10.00" fill="#000000">uint160::uint160</text>
</a>
</g>
</g>
<!-- Node288&#45;&gt;Node312 -->
<g id="edge44" class="edge">
<title>Node288&#45;&gt;Node312</title>
<path fill="none" stroke="#191970" d="M206.9099,-437.1615C216.7433,-410.2376 247.7687,-334.7169 299,-295 301.33,-293.1937 303.8361,-291.5568 306.4548,-290.0736"/>
<polygon fill="#191970" stroke="#191970" points="308.2218,-293.1068 315.6989,-285.6006 305.1729,-286.8057 308.2218,-293.1068"/>
</g>
<!-- Node289&#45;&gt;Node290 -->
<g id="edge3" class="edge">
<title>Node289&#45;&gt;Node290</title>
<path fill="none" stroke="#191970" d="M556.4425,-665.5439C632.883,-686.2422 828.3438,-726.1989 941,-632 993.5958,-588.0214 944.6584,-542.4522 977,-482 984.5885,-467.8157 996.807,-454.5218 1007.2657,-444.6734"/>
<polygon fill="#191970" stroke="#191970" points="1009.7388,-447.156 1014.8147,-437.8562 1005.0473,-441.9608 1009.7388,-447.156"/>
</g>
<!-- Node291 -->
<g id="node5" class="node">
<title>Node291</title>
<g id="a_node5"><a xlink:href="classprevector.html#a933e204a7e29c6bbc85479d023c00ff8" target="_top" xlink:title="prevector::is_direct">
<polygon fill="#ffffff" stroke="#000000" points="1118.5,-337.5 1118.5,-356.5 1218.5,-356.5 1218.5,-337.5 1118.5,-337.5"/>
<text text-anchor="middle" x="1168.5" y="-344.5" font-family="Helvetica,sans-Serif" font-size="10.00" fill="#000000">prevector::is_direct</text>
</a>
</g>
</g>
<!-- Node290&#45;&gt;Node291 -->
<g id="edge4" class="edge">
<title>Node290&#45;&gt;Node291</title>
<path fill="none" stroke="#191970" d="M1043.7876,-418.3902C1068.2547,-404.3843 1113.9201,-378.2436 1142.683,-361.7787"/>
<polygon fill="#191970" stroke="#191970" points="1144.7944,-364.6029 1151.7343,-356.5973 1141.3168,-358.5278 1144.7944,-364.6029"/>
</g>
<!-- Node293 -->
<g id="node7" class="node">
<title>Node293</title>
<g id="a_node7"><a xlink:href="classprevector_1_1iterator.html#ae9dd2b5e8d96f866e4b05d6b7535f285" target="_top" xlink:title="prevector::iterator\l::iterator">
<polygon fill="#ffffff" stroke="#000000" points="980.5,-492 980.5,-522 1073.5,-522 1073.5,-492 980.5,-492"/>
<text text-anchor="start" x="988.5" y="-510" font-family="Helvetica,sans-Serif" font-size="10.00" fill="#000000">prevector::iterator</text>
<text text-anchor="middle" x="1027" y="-499" font-family="Helvetica,sans-Serif" font-size="10.00" fill="#000000">::iterator</text>
</a>
</g>
</g>
<!-- Node292&#45;&gt;Node293 -->
<g id="edge6" class="edge">
<title>Node292&#45;&gt;Node293</title>
<path fill="none" stroke="#191970" d="M914.7178,-532.4361C931.9851,-528.5244 952.2151,-523.9416 970.7108,-519.7516"/>
<polygon fill="#191970" stroke="#191970" points="971.5082,-523.1597 980.4878,-517.5367 969.9616,-516.3327 971.5082,-523.1597"/>
</g>
<!-- Node294 -->
<g id="node8" class="node">
<title>Node294</title>
<g id="a_node8"><a xlink:href="classprevector.html#a59f1d7bcbc751cfa0faddd7ffa184846" target="_top" xlink:title="prevector::item_ptr">
<polygon fill="#ffffff" stroke="#000000" points="978,-342.5 978,-361.5 1076,-361.5 1076,-342.5 978,-342.5"/>
<text text-anchor="middle" x="1027" y="-349.5" font-family="Helvetica,sans-Serif" font-size="10.00" fill="#000000">prevector::item_ptr</text>
</a>
</g>
</g>
<!-- Node292&#45;&gt;Node294 -->
<g id="edge7" class="edge">
<title>Node292&#45;&gt;Node294</title>
<path fill="none" stroke="#191970" d="M887.4925,-532.4094C902.5783,-522.154 925.7365,-504.684 941,-485 963.9031,-455.4638 956.4791,-440.2383 977,-409 986.4453,-394.6218 999.2774,-380.069 1009.5769,-369.2669"/>
<polygon fill="#191970" stroke="#191970" points="1012.3818,-371.404 1016.8612,-361.8027 1007.372,-366.515 1012.3818,-371.404"/>
</g>
<!-- Node294&#45;&gt;Node291 -->
<g id="edge8" class="edge">
<title>Node294&#45;&gt;Node291</title>
<path fill="none" stroke="#191970" d="M1076.0927,-350.2653C1086.376,-349.9019 1097.3348,-349.5147 1107.9781,-349.1386"/>
<polygon fill="#191970" stroke="#191970" points="1108.1834,-352.6336 1118.0535,-348.7826 1107.9361,-345.638 1108.1834,-352.6336"/>
</g>
<!-- Node295 -->
<g id="node9" class="node">
<title>Node295</title>
<g id="a_node9"><a xlink:href="classprevector.html#a20150a43dd87c33f0e855a55bd3418e8" target="_top" xlink:title="prevector::direct_ptr">
<polygon fill="#ffffff" stroke="#000000" points="1116.5,-294.5 1116.5,-313.5 1220.5,-313.5 1220.5,-294.5 1116.5,-294.5"/>
<text text-anchor="middle" x="1168.5" y="-301.5" font-family="Helvetica,sans-Serif" font-size="10.00" fill="#000000">prevector::direct_ptr</text>
</a>
</g>
</g>
<!-- Node294&#45;&gt;Node295 -->
<g id="edge9" class="edge">
<title>Node294&#45;&gt;Node295</title>
<path fill="none" stroke="#191970" d="M1055.2946,-342.4018C1076.8889,-335.0766 1106.8567,-324.9108 1130.5346,-316.8787"/>
<polygon fill="#191970" stroke="#191970" points="1131.9089,-320.1085 1140.2545,-313.5815 1129.6601,-313.4795 1131.9089,-320.1085"/>
</g>
<!-- Node296 -->
<g id="node10" class="node">
<title>Node296</title>
<g id="a_node10"><a xlink:href="classprevector.html#ae3343cc65be9fd678b4a6f8305624de6" target="_top" xlink:title="prevector::indirect_ptr">
<polygon fill="#ffffff" stroke="#000000" points="1113,-247.5 1113,-266.5 1224,-266.5 1224,-247.5 1113,-247.5"/>
<text text-anchor="middle" x="1168.5" y="-254.5" font-family="Helvetica,sans-Serif" font-size="10.00" fill="#000000">prevector::indirect_ptr</text>
</a>
</g>
</g>
<!-- Node294&#45;&gt;Node296 -->
<g id="edge10" class="edge">
<title>Node294&#45;&gt;Node296</title>
<path fill="none" stroke="#191970" d="M1060.128,-342.4535C1066.0621,-339.9181 1071.9548,-336.7974 1077,-333 1098.3058,-316.9633 1092.5574,-302.1234 1113,-285 1119.3407,-279.6888 1126.8592,-275.0482 1134.2819,-271.1526"/>
<polygon fill="#191970" stroke="#191970" points="1136.0941,-274.1625 1143.537,-266.6223 1133.0165,-267.8753 1136.0941,-274.1625"/>
</g>
<!-- Node297&#45;&gt;Node290 -->
<g id="edge12" class="edge">
<title>Node297&#45;&gt;Node290</title>
<path fill="none" stroke="#191970" d="M547.6274,-551.5853C614.7884,-577.7673 813.1573,-643.2334 941,-561 973.4511,-540.1262 955.6206,-514.1202 977,-482 986.1391,-468.2696 998.7755,-454.6552 1009.0581,-444.5314"/>
<polygon fill="#191970" stroke="#191970" points="1011.569,-446.9728 1016.3655,-437.5259 1006.7247,-441.9197 1011.569,-446.9728"/>
</g>
<!-- Node298&#45;&gt;Node290 -->
<g id="edge14" class="edge">
<title>Node298&#45;&gt;Node290</title>
<path fill="none" stroke="#191970" d="M768.2403,-507.6428C817.6088,-508.1109 885.0361,-504.2888 941,-485 966.8134,-476.103 992.3767,-457.5926 1008.8361,-444.0712"/>
<polygon fill="#191970" stroke="#191970" points="1011.1917,-446.6629 1016.5665,-437.5325 1006.6711,-441.3183 1011.1917,-446.6629"/>
</g>
<!-- Node298&#45;&gt;Node292 -->
<g id="edge16" class="edge">
<title>Node298&#45;&gt;Node292</title>
<path fill="none" stroke="#191970" d="M743.1552,-513.589C766.3809,-518.6906 795.12,-525.0032 819.6053,-530.3815"/>
<polygon fill="#191970" stroke="#191970" points="818.94,-533.8187 829.4581,-532.5457 820.4418,-526.9817 818.94,-533.8187"/>
</g>
<!-- Node298&#45;&gt;Node299 -->
<g id="edge15" class="edge">
<title>Node298&#45;&gt;Node299</title>
<path fill="none" stroke="#191970" d="M743.1552,-494.411C766.2929,-489.3287 794.9024,-483.0446 819.3268,-477.6797"/>
<polygon fill="#191970" stroke="#191970" points="820.1425,-481.084 829.1587,-475.5201 818.6406,-474.247 820.1425,-481.084"/>
</g>
<!-- Node298&#45;&gt;Node300 -->
<g id="edge17" class="edge">
<title>Node298&#45;&gt;Node300</title>
<path fill="none" stroke="#191970" d="M714.5386,-494.3582C734.3737,-481.983 770.6733,-460.5031 804,-447 810.005,-444.5669 816.428,-442.3327 822.8448,-440.3181"/>
<polygon fill="#191970" stroke="#191970" points="824.2768,-443.5437 832.8626,-437.3361 822.2796,-436.8346 824.2768,-443.5437"/>
</g>
<!-- Node300&#45;&gt;Node290 -->
<g id="edge20" class="edge">
<title>Node300&#45;&gt;Node290</title>
<path fill="none" stroke="#191970" d="M912.2876,-428C931.7151,-428 955.3136,-428 976.0437,-428"/>
<polygon fill="#191970" stroke="#191970" points="976.2712,-431.5001 986.2712,-428 976.2712,-424.5001 976.2712,-431.5001"/>
</g>
<!-- Node300&#45;&gt;Node293 -->
<g id="edge18" class="edge">
<title>Node300&#45;&gt;Node293</title>
<path fill="none" stroke="#191970" d="M912.0864,-436.5298C921.7762,-439.2781 931.9551,-442.7433 941,-447 962.742,-457.2322 984.9259,-472.8633 1001.3162,-485.606"/>
<polygon fill="#191970" stroke="#191970" points="999.3173,-488.4878 1009.3262,-491.9623 1003.6686,-483.0045 999.3173,-488.4878"/>
</g>
<!-- Node300&#45;&gt;Node294 -->
<g id="edge19" class="edge">
<title>Node300&#45;&gt;Node294</title>
<path fill="none" stroke="#191970" d="M892.0675,-418.3745C919.0002,-405.1261 967.6659,-381.187 998.603,-365.9687"/>
<polygon fill="#191970" stroke="#191970" points="1000.1631,-369.1019 1007.5913,-361.5473 997.0733,-362.8207 1000.1631,-369.1019"/>
</g>
<!-- Node301&#45;&gt;Node300 -->
<g id="edge23" class="edge">
<title>Node301&#45;&gt;Node300</title>
<path fill="none" stroke="#191970" d="M412.2597,-391.8709C490.6236,-394.8881 640.7546,-401.7648 768,-414 785.9727,-415.7282 805.61,-418.2031 822.9607,-420.5927"/>
<polygon fill="#191970" stroke="#191970" points="822.4934,-424.0614 832.8824,-421.9836 823.4652,-417.1291 822.4934,-424.0614"/>
</g>
<!-- Node301&#45;&gt;Node302 -->
<g id="edge24" class="edge">
<title>Node301&#45;&gt;Node302</title>
<path fill="none" stroke="#191970" d="M400.3888,-380.411C422.393,-375.3739 449.5545,-369.1562 472.8524,-363.8229"/>
<polygon fill="#191970" stroke="#191970" points="473.9456,-367.1633 482.9124,-361.5201 472.3835,-360.3398 473.9456,-367.1633"/>
</g>
<!-- Node304 -->
<g id="node18" class="node">
<title>Node304</title>
<g id="a_node18"><a xlink:href="classprevector.html#a412f07b8bf5485dabe2fe9d6d5dfe763" target="_top" xlink:title="prevector::clear">
<polygon fill="#ffffff" stroke="#000000" points="482.5,-304.5 482.5,-323.5 566.5,-323.5 566.5,-304.5 482.5,-304.5"/>
<text text-anchor="middle" x="524.5" y="-311.5" font-family="Helvetica,sans-Serif" font-size="10.00" fill="#000000">prevector::clear</text>
</a>
</g>
</g>
<!-- Node303&#45;&gt;Node304 -->
<g id="edge26" class="edge">
<title>Node303&#45;&gt;Node304</title>
<path fill="none" stroke="#191970" d="M397.001,-314C419.377,-314 447.8791,-314 472.2578,-314"/>
<polygon fill="#191970" stroke="#191970" points="472.4235,-317.5001 482.4234,-314 472.4234,-310.5001 472.4235,-317.5001"/>
</g>
<!-- Node305 -->
<g id="node19" class="node">
<title>Node305</title>
<g id="a_node19"><a xlink:href="classprevector.html#ad2d97a45e0d2872260e868a540d31860" target="_top" xlink:title="prevector::resize">
<polygon fill="#ffffff" stroke="#000000" points="655,-304.5 655,-323.5 744,-323.5 744,-304.5 655,-304.5"/>
<text text-anchor="middle" x="699.5" y="-311.5" font-family="Helvetica,sans-Serif" font-size="10.00" fill="#000000">prevector::resize</text>
</a>
</g>
</g>
<!-- Node304&#45;&gt;Node305 -->
<g id="edge27" class="edge">
<title>Node304&#45;&gt;Node305</title>
<path fill="none" stroke="#191970" d="M566.8626,-314C590.245,-314 619.5493,-314 644.6625,-314"/>
<polygon fill="#191970" stroke="#191970" points="644.7775,-317.5001 654.7774,-314 644.7774,-310.5001 644.7775,-317.5001"/>
</g>
<!-- Node305&#45;&gt;Node290 -->
<g id="edge28" class="edge">
<title>Node305&#45;&gt;Node290</title>
<path fill="none" stroke="#191970" d="M723.4588,-323.5243C744.5659,-331.8302 776.1923,-344.0698 804,-354 867.7499,-376.7652 942.5572,-401.1116 987.2975,-415.423"/>
<polygon fill="#191970" stroke="#191970" points="986.3242,-418.7863 996.915,-418.4929 988.4529,-412.1177 986.3242,-418.7863"/>
</g>
<!-- Node305&#45;&gt;Node294 -->
<g id="edge30" class="edge">
<title>Node305&#45;&gt;Node294</title>
<path fill="none" stroke="#191970" d="M744.1028,-323.0718C762.5762,-326.578 784.2594,-330.3705 804,-333 859.206,-340.3537 922.5004,-345.429 967.5193,-348.472"/>
<polygon fill="#191970" stroke="#191970" points="967.4848,-351.9773 977.6944,-349.1462 967.9477,-344.9926 967.4848,-351.9773"/>
</g>
<!-- Node305&#45;&gt;Node300 -->
<g id="edge31" class="edge">
<title>Node305&#45;&gt;Node300</title>
<path fill="none" stroke="#191970" d="M710.09,-323.5166C734.5196,-345.412 793.5309,-397.9502 804,-404 811.3714,-408.2597 819.623,-411.9427 827.7769,-415.0566"/>
<polygon fill="#191970" stroke="#191970" points="826.6508,-418.371 837.2453,-418.4511 829.0132,-411.7816 826.6508,-418.371"/>
</g>
<!-- Node306 -->
<g id="node20" class="node">
<title>Node306</title>
<g id="a_node20"><a xlink:href="classprevector.html#a780af143deebcaaecb164fa1a2d98156" target="_top" xlink:title="prevector::erase">
<polygon fill="#ffffff" stroke="#000000" points="829,-304.5 829,-323.5 916,-323.5 916,-304.5 829,-304.5"/>
<text text-anchor="middle" x="872.5" y="-311.5" font-family="Helvetica,sans-Serif" font-size="10.00" fill="#000000">prevector::erase</text>
</a>
</g>
</g>
<!-- Node305&#45;&gt;Node306 -->
<g id="edge29" class="edge">
<title>Node305&#45;&gt;Node306</title>
<path fill="none" stroke="#191970" d="M744.0518,-314C766.9155,-314 794.9382,-314 818.9689,-314"/>
<polygon fill="#191970" stroke="#191970" points="818.9966,-317.5001 828.9966,-314 818.9966,-310.5001 818.9966,-317.5001"/>
</g>
<!-- Node307 -->
<g id="node21" class="node">
<title>Node307</title>
<g id="a_node21"><a xlink:href="classprevector.html#a833f4c9e5c4804fb8ac57b708657af24" target="_top" xlink:title="prevector::capacity">
<polygon fill="#ffffff" stroke="#000000" points="977,-304.5 977,-323.5 1077,-323.5 1077,-304.5 977,-304.5"/>
<text text-anchor="middle" x="1027" y="-311.5" font-family="Helvetica,sans-Serif" font-size="10.00" fill="#000000">prevector::capacity</text>
</a>
</g>
</g>
<!-- Node305&#45;&gt;Node307 -->
<g id="edge32" class="edge">
<title>Node305&#45;&gt;Node307</title>
<path fill="none" stroke="#191970" d="M741.9713,-304.4886C760.8578,-300.7233 783.4309,-296.8547 804,-295 864.6429,-289.5318 880.4706,-288.3933 941,-295 954.5663,-296.4807 969.1261,-299.2384 982.3378,-302.2026"/>
<polygon fill="#191970" stroke="#191970" points="981.6053,-305.6256 992.1393,-304.4919 983.1975,-298.8091 981.6053,-305.6256"/>
</g>
<!-- Node308 -->
<g id="node22" class="node">
<title>Node308</title>
<g id="a_node22"><a xlink:href="classprevector.html#a0e673654d3b7d8d6f79534e17f68741a" target="_top" xlink:title="prevector::change_capacity">
<polygon fill="#ffffff" stroke="#000000" points="804,-190.5 804,-209.5 941,-209.5 941,-190.5 804,-190.5"/>
<text text-anchor="middle" x="872.5" y="-197.5" font-family="Helvetica,sans-Serif" font-size="10.00" fill="#000000">prevector::change_capacity</text>
</a>
</g>
</g>
<!-- Node305&#45;&gt;Node308 -->
<g id="edge34" class="edge">
<title>Node305&#45;&gt;Node308</title>
<path fill="none" stroke="#191970" d="M713.9523,-304.4765C743.898,-284.7435 812.9492,-239.2416 849.2441,-215.3247"/>
<polygon fill="#191970" stroke="#191970" points="851.2978,-218.163 857.7221,-209.738 847.4461,-212.3179 851.2978,-218.163"/>
</g>
<!-- Node307&#45;&gt;Node291 -->
<g id="edge33" class="edge">
<title>Node307&#45;&gt;Node291</title>
<path fill="none" stroke="#191970" d="M1067.9277,-323.545C1083.4741,-327.1706 1101.3719,-331.3447 1117.7203,-335.1574"/>
<polygon fill="#191970" stroke="#191970" points="1117.1307,-338.6137 1127.6643,-337.4765 1118.7206,-331.7967 1117.1307,-338.6137"/>
</g>
<!-- Node308&#45;&gt;Node290 -->
<g id="edge41" class="edge">
<title>Node308&#45;&gt;Node290</title>
<path fill="none" stroke="#191970" d="M919.7511,-209.5535C927.7087,-212.9872 935.2413,-217.6548 941,-224 986.2053,-273.8089 945.9317,-311.3409 977,-371 984.9259,-386.2198 997.7449,-400.7195 1008.4185,-411.2858"/>
<polygon fill="#191970" stroke="#191970" points="1006.058,-413.8711 1015.7107,-418.2387 1010.8884,-408.8049 1006.058,-413.8711"/>
</g>
<!-- Node308&#45;&gt;Node291 -->
<g id="edge35" class="edge">
<title>Node308&#45;&gt;Node291</title>
<path fill="none" stroke="#191970" d="M909.4424,-209.5732C920.0817,-213.2061 931.3985,-217.9643 941,-224 960.1568,-236.0423 957.8413,-247.9608 977,-260 1016.8696,-285.0539 1035.6506,-272.472 1077,-295 1094.7995,-304.6975 1095.5584,-312.6727 1113,-323 1119.3965,-326.7874 1126.5008,-330.3159 1133.432,-333.4389"/>
<polygon fill="#191970" stroke="#191970" points="1132.1249,-336.6867 1142.6935,-337.4324 1134.8966,-330.2588 1132.1249,-336.6867"/>
</g>
<!-- Node308&#45;&gt;Node295 -->
<g id="edge37" class="edge">
<title>Node308&#45;&gt;Node295</title>
<path fill="none" stroke="#191970" d="M909.2023,-209.5065C950.5235,-220.5815 1019.4141,-240.17 1077,-262 1098.6507,-270.2075 1122.395,-281.1669 1140.2689,-289.8326"/>
<polygon fill="#191970" stroke="#191970" points="1139.0245,-293.1204 1149.5443,-294.3788 1142.1053,-286.8348 1139.0245,-293.1204"/>
</g>
<!-- Node308&#45;&gt;Node296 -->
<g id="edge36" class="edge">
<title>Node308&#45;&gt;Node296</title>
<path fill="none" stroke="#191970" d="M941.3481,-204.127C981.3391,-207.5026 1032.4641,-213.5026 1077,-224 1097.3351,-228.7931 1119.3856,-236.6608 1136.7442,-243.5118"/>
<polygon fill="#191970" stroke="#191970" points="1135.7907,-246.9012 1146.374,-247.3972 1138.41,-240.4097 1135.7907,-246.9012"/>
</g>
<!-- Node309 -->
<g id="node23" class="node">
<title>Node309</title>
<g id="a_node23"><a xlink:href="glibc__compat_8cpp.html#a0f46826ab0466591e136db24394923cf" target="_top" xlink:title="memcpy">
<polygon fill="#ffffff" stroke="#000000" points="1000,-152.5 1000,-171.5 1054,-171.5 1054,-152.5 1000,-152.5"/>
<text text-anchor="middle" x="1027" y="-159.5" font-family="Helvetica,sans-Serif" font-size="10.00" fill="#000000">memcpy</text>
</a>
</g>
</g>
<!-- Node308&#45;&gt;Node309 -->
<g id="edge38" class="edge">
<title>Node308&#45;&gt;Node309</title>
<path fill="none" stroke="#191970" d="M911.4869,-190.411C935.4708,-184.512 966.038,-176.9939 989.7031,-171.1734"/>
<polygon fill="#191970" stroke="#191970" points="990.8373,-174.4988 999.712,-168.7116 989.1654,-167.7014 990.8373,-174.4988"/>
</g>
<!-- Node310 -->
<g id="node24" class="node">
<title>Node310</title>
<g id="a_node24"><a xlink:href="glibc__compat_8cpp.html#a9778d49e9029dd75bc53ecbbf9f5e9a1" target="_top" xlink:title="memmove">
<polygon fill="#ffffff" stroke="#000000" points="1137.5,-190.5 1137.5,-209.5 1199.5,-209.5 1199.5,-190.5 1137.5,-190.5"/>
<text text-anchor="middle" x="1168.5" y="-197.5" font-family="Helvetica,sans-Serif" font-size="10.00" fill="#000000">memmove</text>
</a>
</g>
</g>
<!-- Node309&#45;&gt;Node310 -->
<g id="edge39" class="edge">
<title>Node309&#45;&gt;Node310</title>
<path fill="none" stroke="#191970" d="M1054.2826,-169.3268C1075.0827,-174.9127 1104.0664,-182.6963 1127.6317,-189.0248"/>
<polygon fill="#191970" stroke="#191970" points="1126.7941,-192.4238 1137.3597,-191.6372 1128.6097,-185.6633 1126.7941,-192.4238"/>
</g>
<!-- Node311 -->
<g id="node25" class="node">
<title>Node311</title>
<g id="a_node25"><a xlink:href="glibc__compat_8cpp.html#a424ac71631da5ada2976630ff67051d1" target="_top" xlink:title="__chk_fail">
<polygon fill="#ffffff" stroke="#000000" points="1138,-152.5 1138,-171.5 1199,-171.5 1199,-152.5 1138,-152.5"/>
<text text-anchor="middle" x="1168.5" y="-159.5" font-family="Helvetica,sans-Serif" font-size="10.00" fill="#000000">__chk_fail</text>
</a>
</g>
</g>
<!-- Node309&#45;&gt;Node311 -->
<g id="edge40" class="edge">
<title>Node309&#45;&gt;Node311</title>
<path fill="none" stroke="#191970" d="M1054.2826,-162C1075.1297,-162 1104.1976,-162 1127.7915,-162"/>
<polygon fill="#191970" stroke="#191970" points="1127.862,-165.5001 1137.862,-162 1127.8619,-158.5001 1127.862,-165.5001"/>
</g>
<!-- Node313&#45;&gt;Node314 -->
<g id="edge47" class="edge">
<title>Node313&#45;&gt;Node314</title>
<path fill="none" stroke="#191970" d="M242.613,-190.411C262.9748,-185.4191 288.0663,-179.2676 309.6887,-173.9666"/>
<polygon fill="#191970" stroke="#191970" points="310.7892,-177.3006 319.6682,-171.5201 309.1224,-170.5019 310.7892,-177.3006"/>
</g>
<!-- Node314&#45;&gt;Node309 -->
<g id="edge48" class="edge">
<title>Node314&#45;&gt;Node309</title>
<path fill="none" stroke="#191970" d="M403.6614,-162C528.2415,-162 875.0995,-162 989.7104,-162"/>
<polygon fill="#191970" stroke="#191970" points="989.7516,-165.5001 999.7515,-162 989.7515,-158.5001 989.7516,-165.5001"/>
</g>
<!-- Node317 -->
<g id="node31" class="node">
<title>Node317</title>
<g id="a_node31"><a xlink:href="class_c_s_h_a256.html#a4259230be0caefa590bc324fc12b9b90" target="_top" xlink:title="CSHA256::Finalize">
<polygon fill="#ffffff" stroke="#000000" points="308,-114.5 308,-133.5 409,-133.5 409,-114.5 308,-114.5"/>
<text text-anchor="middle" x="358.5" y="-121.5" font-family="Helvetica,sans-Serif" font-size="10.00" fill="#000000">CSHA256::Finalize</text>
</a>
</g>
</g>
<!-- Node316&#45;&gt;Node317 -->
<g id="edge51" class="edge">
<title>Node316&#45;&gt;Node317</title>
<path fill="none" stroke="#191970" d="M242.613,-95.589C262.9748,-100.5809 288.0663,-106.7324 309.6887,-112.0334"/>
<polygon fill="#191970" stroke="#191970" points="309.1224,-115.4981 319.6682,-114.4799 310.7892,-108.6994 309.1224,-115.4981"/>
</g>
<!-- Node318 -->
<g id="node32" class="node">
<title>Node318</title>
<g id="a_node32"><a xlink:href="class_c_r_i_p_e_m_d160.html#a221143b9d94af623d07c4f4ba1bf6007" target="_top" xlink:title="CRIPEMD160::Write">
<polygon fill="#ffffff" stroke="#000000" points="645,-86.5 645,-105.5 754,-105.5 754,-86.5 645,-86.5"/>
<text text-anchor="middle" x="699.5" y="-93.5" font-family="Helvetica,sans-Serif" font-size="10.00" fill="#000000">CRIPEMD160::Write</text>
</a>
</g>
</g>
<!-- Node316&#45;&gt;Node318 -->
<g id="edge52" class="edge">
<title>Node316&#45;&gt;Node318</title>
<path fill="none" stroke="#191970" d="M255.177,-87.0419C346.2403,-88.8778 535.0584,-92.6846 634.695,-94.6934"/>
<polygon fill="#191970" stroke="#191970" points="634.8613,-98.1974 644.9299,-94.8998 635.0025,-91.1988 634.8613,-98.1974"/>
</g>
<!-- Node319 -->
<g id="node33" class="node">
<title>Node319</title>
<g id="a_node33"><a xlink:href="class_c_r_i_p_e_m_d160.html#a2a11566fbf9d1339b819833313fc4e51" target="_top" xlink:title="CRIPEMD160::Finalize">
<polygon fill="#ffffff" stroke="#000000" points="299,-38.5 299,-57.5 418,-57.5 418,-38.5 299,-38.5"/>
<text text-anchor="middle" x="358.5" y="-45.5" font-family="Helvetica,sans-Serif" font-size="10.00" fill="#000000">CRIPEMD160::Finalize</text>
</a>
</g>
</g>
<!-- Node316&#45;&gt;Node319 -->
<g id="edge54" class="edge">
<title>Node316&#45;&gt;Node319</title>
<path fill="none" stroke="#191970" d="M242.613,-76.411C262.9748,-71.4191 288.0663,-65.2676 309.6887,-59.9666"/>
<polygon fill="#191970" stroke="#191970" points="310.7892,-63.3006 319.6682,-57.5201 309.1224,-56.5019 310.7892,-63.3006"/>
</g>
<!-- Node318&#45;&gt;Node309 -->
<g id="edge53" class="edge">
<title>Node318&#45;&gt;Node309</title>
<path fill="none" stroke="#191970" d="M746.7715,-105.5265C812.4438,-118.7612 929.9397,-142.4398 989.7745,-154.4981"/>
<polygon fill="#191970" stroke="#191970" points="989.4105,-157.995 999.9049,-156.5396 990.7934,-151.133 989.4105,-157.995"/>
</g>
</g>
</svg>
