<?xml version="1.0" encoding="UTF-8" standalone="no"?>
<!DOCTYPE svg PUBLIC "-//W3C//DTD SVG 1.1//EN"
 "http://www.w3.org/Graphics/SVG/1.1/DTD/svg11.dtd">
<!-- Generated by graphviz version 2.40.1 (20161225.0304)
 -->
<!-- Title: CSpentIndexKey::SetNull Pages: 1 -->
<svg width="344pt" height="78pt"
 viewBox="0.00 0.00 344.00 77.50" xmlns="http://www.w3.org/2000/svg" xmlns:xlink="http://www.w3.org/1999/xlink">
<g id="graph0" class="graph" transform="scale(1 1) rotate(0) translate(4 73.5)">
<title>CSpentIndexKey::SetNull</title>
<polygon fill="#ffffff" stroke="transparent" points="-4,4 -4,-73.5 340,-73.5 340,4 -4,4"/>
<!-- Node10 -->
<g id="node1" class="node">
<title>Node10</title>
<polygon fill="#bfbfbf" stroke="#000000" points="0,-28 0,-47 129,-47 129,-28 0,-28"/>
<text text-anchor="middle" x="64.5" y="-35" font-family="Helvetica,sans-Serif" font-size="10.00" fill="#000000">CSpentIndexKey::SetNull</text>
</g>
<!-- Node11 -->
<g id="node2" class="node">
<title>Node11</title>
<g id="a_node2"><a xlink:href="struct_c_spent_index_key.html#a06486e70f11c6184e27247cc17fc37c1" target="_top" xlink:title="CSpentIndexKey::CSpentIndexKey">
<polygon fill="#ffffff" stroke="#000000" points="165,-50 165,-69 336,-69 336,-50 165,-50"/>
<text text-anchor="middle" x="250.5" y="-57" font-family="Helvetica,sans-Serif" font-size="10.00" fill="#000000">CSpentIndexKey::CSpentIndexKey</text>
</a>
</g>
</g>
<!-- Node10&#45;&gt;Node11 -->
<g id="edge1" class="edge">
<title>Node10&#45;&gt;Node11</title>
<path fill="none" stroke="#191970" d="M139.0873,-46.3222C149.2641,-47.5259 159.7473,-48.7658 170.0227,-49.9812"/>
<polygon fill="#191970" stroke="#191970" points="139.3737,-42.8317 129.0318,-45.1328 138.5514,-49.7833 139.3737,-42.8317"/>
</g>
<!-- Node12 -->
<g id="node3" class="node">
<title>Node12</title>
<g id="a_node3"><a xlink:href="struct_c_spent_index_value.html#a5f7902635cf2cb54ffc48b1f83405753" target="_top" xlink:title="CSpentIndexValue::CSpent\lIndexValue">
<polygon fill="#ffffff" stroke="#000000" points="182,-.5 182,-30.5 319,-30.5 319,-.5 182,-.5"/>
<text text-anchor="start" x="190" y="-18.5" font-family="Helvetica,sans-Serif" font-size="10.00" fill="#000000">CSpentIndexValue::CSpent</text>
<text text-anchor="middle" x="250.5" y="-7.5" font-family="Helvetica,sans-Serif" font-size="10.00" fill="#000000">IndexValue</text>
</a>
</g>
</g>
<!-- Node10&#45;&gt;Node12 -->
<g id="edge2" class="edge">
<title>Node10&#45;&gt;Node12</title>
<path fill="none" stroke="#191970" d="M139.1959,-28.665C153.324,-26.9939 168.039,-25.2535 181.9659,-23.6062"/>
<polygon fill="#191970" stroke="#191970" points="138.5514,-25.2167 129.0318,-29.8672 139.3737,-32.1683 138.5514,-25.2167"/>
</g>
</g>
</svg>
