<?xml version="1.0" encoding="UTF-8" standalone="no"?>
<!DOCTYPE svg PUBLIC "-//W3C//DTD SVG 1.1//EN"
 "http://www.w3.org/Graphics/SVG/1.1/DTD/svg11.dtd">
<!-- Generated by graphviz version 2.40.1 (20161225.0304)
 -->
<!-- Title: CAssetCacheReissueAsset::CAssetCacheReissueAsset Pages: 1 -->
<svg width="1549pt" height="824pt"
 viewBox="0.00 0.00 1549.00 823.50" xmlns="http://www.w3.org/2000/svg" xmlns:xlink="http://www.w3.org/1999/xlink">
<g id="graph0" class="graph" transform="scale(1 1) rotate(0) translate(4 819.5)">
<title>CAssetCacheReissueAsset::CAssetCacheReissueAsset</title>
<polygon fill="#ffffff" stroke="transparent" points="-4,4 -4,-819.5 1545,-819.5 1545,4 -4,4"/>
<!-- Node0 -->
<g id="node1" class="node">
<title>Node0</title>
<polygon fill="#bfbfbf" stroke="#000000" points="0,-204 0,-234 146,-234 146,-204 0,-204"/>
<text text-anchor="start" x="8" y="-222" font-family="Helvetica,sans-Serif" font-size="10.00" fill="#000000">CAssetCacheReissueAsset</text>
<text text-anchor="middle" x="73" y="-211" font-family="Helvetica,sans-Serif" font-size="10.00" fill="#000000">::CAssetCacheReissueAsset</text>
</g>
<!-- Node1 -->
<g id="node2" class="node">
<title>Node1</title>
<g id="a_node2"><a xlink:href="rpc_2assets_8cpp.html#ada9eee324855c73e13fbf6d9bd44b77e" target="_top" xlink:title="reissue">
<polygon fill="#ffffff" stroke="#000000" points="182,-209.5 182,-228.5 230,-228.5 230,-209.5 182,-209.5"/>
<text text-anchor="middle" x="206" y="-216.5" font-family="Helvetica,sans-Serif" font-size="10.00" fill="#000000">reissue</text>
</a>
</g>
</g>
<!-- Node0&#45;&gt;Node1 -->
<g id="edge1" class="edge">
<title>Node0&#45;&gt;Node1</title>
<path fill="none" stroke="#191970" d="M146.1143,-219C154.995,-219 163.7168,-219 171.6377,-219"/>
<polygon fill="#191970" stroke="#191970" points="171.8822,-222.5001 181.8822,-219 171.8821,-215.5001 171.8822,-222.5001"/>
</g>
<!-- Node2 -->
<g id="node3" class="node">
<title>Node2</title>
<g id="a_node3"><a xlink:href="validation_8cpp.html#a0e99fa19d4750df87e0a17fbed8b0ce8" target="_top" xlink:title="RVN START. ">
<polygon fill="#ffffff" stroke="#000000" points="480,-342.5 480,-361.5 584,-361.5 584,-342.5 480,-342.5"/>
<text text-anchor="middle" x="532" y="-349.5" font-family="Helvetica,sans-Serif" font-size="10.00" fill="#000000">AreAssetsDeployed</text>
</a>
</g>
</g>
<!-- Node1&#45;&gt;Node2 -->
<g id="edge2" class="edge">
<title>Node1&#45;&gt;Node2</title>
<path fill="none" stroke="#191970" d="M208.2884,-228.5526C215.8371,-259.1807 240.9017,-353.9243 266,-371 338.2822,-420.1774 448.6563,-386.469 501.6006,-365.3945"/>
<polygon fill="#191970" stroke="#191970" points="503.1703,-368.5338 511.096,-361.5028 500.5156,-362.0567 503.1703,-368.5338"/>
</g>
<!-- Node3 -->
<g id="node4" class="node">
<title>Node3</title>
<g id="a_node4"><a xlink:href="class_uni_value.html#a5a7394aeb8d5584db7a90c2c041726b1" target="_top" xlink:title="UniValue::size">
<polygon fill="#ffffff" stroke="#000000" points="306,-342.5 306,-361.5 386,-361.5 386,-342.5 306,-342.5"/>
<text text-anchor="middle" x="346" y="-349.5" font-family="Helvetica,sans-Serif" font-size="10.00" fill="#000000">UniValue::size</text>
</a>
</g>
</g>
<!-- Node1&#45;&gt;Node3 -->
<g id="edge3" class="edge">
<title>Node1&#45;&gt;Node3</title>
<path fill="none" stroke="#191970" d="M208.1997,-228.7095C213.7489,-250.883 230.4792,-305.4464 266,-333 274.5478,-339.6305 285.0451,-344.0004 295.5889,-346.8671"/>
<polygon fill="#191970" stroke="#191970" points="295.1199,-350.3505 305.6499,-349.1797 296.6881,-343.5284 295.1199,-350.3505"/>
</g>
<!-- Node4 -->
<g id="node5" class="node">
<title>Node4</title>
<g id="a_node5"><a xlink:href="rpc_2assets_8cpp.html#a41e81a808809b12fd795b404d39ac60a" target="_top" xlink:title="AssetActivationWarning">
<polygon fill="#ffffff" stroke="#000000" points="285,-304.5 285,-323.5 407,-323.5 407,-304.5 285,-304.5"/>
<text text-anchor="middle" x="346" y="-311.5" font-family="Helvetica,sans-Serif" font-size="10.00" fill="#000000">AssetActivationWarning</text>
</a>
</g>
</g>
<!-- Node1&#45;&gt;Node4 -->
<g id="edge4" class="edge">
<title>Node1&#45;&gt;Node4</title>
<path fill="none" stroke="#191970" d="M210.8114,-228.6404C219.4868,-244.9829 239.3557,-278.0028 266,-295 269.3566,-297.1413 272.9314,-299.0415 276.637,-300.7278"/>
<polygon fill="#191970" stroke="#191970" points="275.4828,-304.0356 286.0677,-304.4942 278.0791,-297.5349 275.4828,-304.0356"/>
</g>
<!-- Node5 -->
<g id="node6" class="node">
<title>Node5</title>
<g id="a_node6"><a xlink:href="server_8cpp.html#a26bafe3d526ee8cbc84b3c0b0dc3a43b" target="_top" xlink:title="HelpExampleCli">
<polygon fill="#ffffff" stroke="#000000" points="302.5,-266.5 302.5,-285.5 389.5,-285.5 389.5,-266.5 302.5,-266.5"/>
<text text-anchor="middle" x="346" y="-273.5" font-family="Helvetica,sans-Serif" font-size="10.00" fill="#000000">HelpExampleCli</text>
</a>
</g>
</g>
<!-- Node1&#45;&gt;Node5 -->
<g id="edge6" class="edge">
<title>Node1&#45;&gt;Node5</title>
<path fill="none" stroke="#191970" d="M218.6517,-228.7783C230.3439,-237.3719 248.5023,-249.6253 266,-257 274.4046,-260.5422 283.5969,-263.4998 292.6604,-265.944"/>
<polygon fill="#191970" stroke="#191970" points="291.8492,-269.3489 302.4013,-268.398 293.5593,-262.561 291.8492,-269.3489"/>
</g>
<!-- Node6 -->
<g id="node7" class="node">
<title>Node6</title>
<g id="a_node7"><a xlink:href="server_8cpp.html#a9ef4f8fb114508ceb861a0e8c3e0d26e" target="_top" xlink:title="HelpExampleRpc">
<polygon fill="#ffffff" stroke="#000000" points="299.5,-228.5 299.5,-247.5 392.5,-247.5 392.5,-228.5 299.5,-228.5"/>
<text text-anchor="middle" x="346" y="-235.5" font-family="Helvetica,sans-Serif" font-size="10.00" fill="#000000">HelpExampleRpc</text>
</a>
</g>
</g>
<!-- Node1&#45;&gt;Node6 -->
<g id="edge7" class="edge">
<title>Node1&#45;&gt;Node6</title>
<path fill="none" stroke="#191970" d="M230.0669,-222.2662C246.393,-224.4819 268.6875,-227.5076 289.3658,-230.3139"/>
<polygon fill="#191970" stroke="#191970" points="288.974,-233.7928 299.3539,-231.6695 289.9155,-226.8564 288.974,-233.7928"/>
</g>
<!-- Node7 -->
<g id="node8" class="node">
<title>Node7</title>
<g id="a_node8"><a xlink:href="rpcwallet_8cpp.html#a1de07aa72f31cf1b1a3ea94307b7b566" target="_top" xlink:title="Figures out what wallet, if any, to use for a JSONRPCRequest. ">
<polygon fill="#ffffff" stroke="#000000" points="266,-190.5 266,-209.5 426,-209.5 426,-190.5 266,-190.5"/>
<text text-anchor="middle" x="346" y="-197.5" font-family="Helvetica,sans-Serif" font-size="10.00" fill="#000000">GetWalletForJSONRPCRequest</text>
</a>
</g>
</g>
<!-- Node1&#45;&gt;Node7 -->
<g id="edge8" class="edge">
<title>Node1&#45;&gt;Node7</title>
<path fill="none" stroke="#191970" d="M230.0669,-215.7338C240.284,-214.3472 252.8386,-212.6433 265.8717,-210.8746"/>
<polygon fill="#191970" stroke="#191970" points="266.4622,-214.3266 275.9007,-209.5135 265.5208,-207.3902 266.4622,-214.3266"/>
</g>
<!-- Node8 -->
<g id="node9" class="node">
<title>Node8</title>
<g id="a_node9"><a xlink:href="rpcwallet_8cpp.html#ae44c9e4546fdf6e182276fada0126649" target="_top" xlink:title="EnsureWalletIsAvailable">
<polygon fill="#ffffff" stroke="#000000" points="284.5,-152.5 284.5,-171.5 407.5,-171.5 407.5,-152.5 284.5,-152.5"/>
<text text-anchor="middle" x="346" y="-159.5" font-family="Helvetica,sans-Serif" font-size="10.00" fill="#000000">EnsureWalletIsAvailable</text>
</a>
</g>
</g>
<!-- Node1&#45;&gt;Node8 -->
<g id="edge9" class="edge">
<title>Node1&#45;&gt;Node8</title>
<path fill="none" stroke="#191970" d="M218.6517,-209.2217C230.3439,-200.6281 248.5023,-188.3747 266,-181 271.8702,-178.5259 278.1248,-176.337 284.4514,-174.4091"/>
<polygon fill="#191970" stroke="#191970" points="285.7388,-177.6822 294.4074,-171.5908 283.8322,-170.9469 285.7388,-177.6822"/>
</g>
<!-- Node41 -->
<g id="node41" class="node">
<title>Node41</title>
<g id="a_node41"><a xlink:href="safemode_8cpp.html#aa7985a8405eaf7b4b8e269dc39be5e30" target="_top" xlink:title="ObserveSafeMode">
<polygon fill="#ffffff" stroke="#000000" points="297,-76.5 297,-95.5 395,-95.5 395,-76.5 297,-76.5"/>
<text text-anchor="middle" x="346" y="-83.5" font-family="Helvetica,sans-Serif" font-size="10.00" fill="#000000">ObserveSafeMode</text>
</a>
</g>
</g>
<!-- Node1&#45;&gt;Node41 -->
<g id="edge44" class="edge">
<title>Node1&#45;&gt;Node41</title>
<path fill="none" stroke="#191970" d="M208.1997,-209.2905C213.7489,-187.117 230.4792,-132.5536 266,-105 272.2654,-100.1399 279.5783,-96.4944 287.1892,-93.7651"/>
<polygon fill="#191970" stroke="#191970" points="288.399,-97.055 296.9325,-90.7757 286.3457,-90.3629 288.399,-97.055"/>
</g>
<!-- Node47 -->
<g id="node47" class="node">
<title>Node47</title>
<g id="a_node47"><a xlink:href="rpcwallet_8cpp.html#a4eb48c19268ebfbfc0e9b6d7904e877f" target="_top" xlink:title="EnsureWalletIsUnlocked">
<polygon fill="#ffffff" stroke="#000000" points="283.5,-114.5 283.5,-133.5 408.5,-133.5 408.5,-114.5 283.5,-114.5"/>
<text text-anchor="middle" x="346" y="-121.5" font-family="Helvetica,sans-Serif" font-size="10.00" fill="#000000">EnsureWalletIsUnlocked</text>
</a>
</g>
</g>
<!-- Node1&#45;&gt;Node47 -->
<g id="edge51" class="edge">
<title>Node1&#45;&gt;Node47</title>
<path fill="none" stroke="#191970" d="M210.8114,-209.3596C219.4868,-193.0171 239.3557,-159.9972 266,-143 269.3566,-140.8587 272.9314,-138.9585 276.637,-137.2722"/>
<polygon fill="#191970" stroke="#191970" points="278.0791,-140.4651 286.0677,-133.5058 275.4828,-133.9644 278.0791,-140.4651"/>
</g>
<!-- Node49 -->
<g id="node49" class="node">
<title>Node49</title>
<g id="a_node49"><a xlink:href="class_uni_value.html#a087ea6ccec615333371fa1aaf83ab7df" target="_top" xlink:title="UniValue::get_str">
<polygon fill="#ffffff" stroke="#000000" points="300,-19.5 300,-38.5 392,-38.5 392,-19.5 300,-19.5"/>
<text text-anchor="middle" x="346" y="-26.5" font-family="Helvetica,sans-Serif" font-size="10.00" fill="#000000">UniValue::get_str</text>
</a>
</g>
</g>
<!-- Node1&#45;&gt;Node49 -->
<g id="edge54" class="edge">
<title>Node1&#45;&gt;Node49</title>
<path fill="none" stroke="#191970" d="M207.3455,-209.1411C211.4192,-182.8052 225.8985,-109.9034 266,-67 276.0541,-56.2434 289.78,-48.217 303.024,-42.3835"/>
<polygon fill="#191970" stroke="#191970" points="304.5814,-45.5284 312.5232,-38.5156 301.9416,-39.0452 304.5814,-45.5284"/>
</g>
<!-- Node4&#45;&gt;Node2 -->
<g id="edge5" class="edge">
<title>Node4&#45;&gt;Node2</title>
<path fill="none" stroke="#191970" d="M392.9357,-323.589C418.0332,-328.7165 449.1186,-335.0672 475.5304,-340.4632"/>
<polygon fill="#191970" stroke="#191970" points="474.9036,-343.9074 485.4019,-342.4799 476.3048,-337.049 474.9036,-343.9074"/>
</g>
<!-- Node9 -->
<g id="node10" class="node">
<title>Node9</title>
<g id="a_node10"><a xlink:href="rpc_2protocol_8cpp.html#a40b75d3d265c4a2e1d5fe3e129743884" target="_top" xlink:title="JSONRPCError">
<polygon fill="#ffffff" stroke="#000000" points="489,-152.5 489,-171.5 575,-171.5 575,-152.5 489,-152.5"/>
<text text-anchor="middle" x="532" y="-159.5" font-family="Helvetica,sans-Serif" font-size="10.00" fill="#000000">JSONRPCError</text>
</a>
</g>
</g>
<!-- Node8&#45;&gt;Node9 -->
<g id="edge10" class="edge">
<title>Node8&#45;&gt;Node9</title>
<path fill="none" stroke="#191970" d="M407.677,-162C430.6821,-162 456.5825,-162 478.7645,-162"/>
<polygon fill="#191970" stroke="#191970" points="478.9975,-165.5001 488.9975,-162 478.9974,-158.5001 478.9975,-165.5001"/>
</g>
<!-- Node10 -->
<g id="node11" class="node">
<title>Node10</title>
<g id="a_node11"><a xlink:href="util_8h.html#a96c5fc7111f69f7dcaba992d95d13e03" target="_top" xlink:title="error">
<polygon fill="#ffffff" stroke="#000000" points="685.5,-418.5 685.5,-437.5 721.5,-437.5 721.5,-418.5 685.5,-418.5"/>
<text text-anchor="middle" x="703.5" y="-425.5" font-family="Helvetica,sans-Serif" font-size="10.00" fill="#000000">error</text>
</a>
</g>
</g>
<!-- Node9&#45;&gt;Node10 -->
<g id="edge11" class="edge">
<title>Node9&#45;&gt;Node10</title>
<path fill="none" stroke="#191970" d="M538.3072,-171.7825C563.6803,-211.1368 658.5289,-358.2488 691.8427,-409.9192"/>
<polygon fill="#191970" stroke="#191970" points="688.9559,-411.901 697.3163,-418.409 694.8392,-408.1078 688.9559,-411.901"/>
</g>
<!-- Node40 -->
<g id="node40" class="node">
<title>Node40</title>
<g id="a_node40"><a xlink:href="class_uni_value.html#a944cd1b59b040cd24c9f46b55a68d49a" target="_top" xlink:title="UniValue::push_back">
<polygon fill="#ffffff" stroke="#000000" points="648.5,-152.5 648.5,-171.5 758.5,-171.5 758.5,-152.5 648.5,-152.5"/>
<text text-anchor="middle" x="703.5" y="-159.5" font-family="Helvetica,sans-Serif" font-size="10.00" fill="#000000">UniValue::push_back</text>
</a>
</g>
</g>
<!-- Node9&#45;&gt;Node40 -->
<g id="edge43" class="edge">
<title>Node9&#45;&gt;Node40</title>
<path fill="none" stroke="#191970" d="M575.2767,-162C594.2931,-162 617.0378,-162 638.0557,-162"/>
<polygon fill="#191970" stroke="#191970" points="638.211,-165.5001 648.211,-162 638.211,-158.5001 638.211,-165.5001"/>
</g>
<!-- Node11 -->
<g id="node12" class="node">
<title>Node11</title>
<g id="a_node12"><a xlink:href="util_8h.html#afd4c3002b2797c0560adddb6af3ca1da" target="_top" xlink:title="Send a string to the log output. ">
<polygon fill="#ffffff" stroke="#000000" points="834.5,-684.5 834.5,-703.5 899.5,-703.5 899.5,-684.5 834.5,-684.5"/>
<text text-anchor="middle" x="867" y="-691.5" font-family="Helvetica,sans-Serif" font-size="10.00" fill="#000000">LogPrintStr</text>
</a>
</g>
</g>
<!-- Node10&#45;&gt;Node11 -->
<g id="edge12" class="edge">
<title>Node10&#45;&gt;Node11</title>
<path fill="none" stroke="#191970" d="M704.5455,-437.7012C709.0292,-474.4679 729.9629,-606.6035 805,-675 810.5486,-680.0575 817.4136,-683.7694 824.5328,-686.4936"/>
<polygon fill="#191970" stroke="#191970" points="823.7071,-689.9044 834.2984,-689.6297 825.8475,-683.2396 823.7071,-689.9044"/>
</g>
<!-- Node12 -->
<g id="node13" class="node">
<title>Node12</title>
<g id="a_node13"><a xlink:href="namespacetinyformat.html#a05144619d8b16e2b31b2594ca9c6bf1d" target="_top" xlink:title="Format list of arguments to the stream according to given format string. ">
<polygon fill="#ffffff" stroke="#000000" points="820,-760.5 820,-779.5 914,-779.5 914,-760.5 820,-760.5"/>
<text text-anchor="middle" x="867" y="-767.5" font-family="Helvetica,sans-Serif" font-size="10.00" fill="#000000">tinyformat::format</text>
</a>
</g>
</g>
<!-- Node10&#45;&gt;Node12 -->
<g id="edge13" class="edge">
<title>Node10&#45;&gt;Node12</title>
<path fill="none" stroke="#191970" d="M705.2899,-437.6861C714.4676,-486.3847 757.6579,-703.9931 805,-751 806.8524,-752.8393 808.8779,-754.5013 811.0299,-756.003"/>
<polygon fill="#191970" stroke="#191970" points="809.4383,-759.1244 819.8591,-761.0365 812.9052,-753.0432 809.4383,-759.1244"/>
</g>
<!-- Node21 -->
<g id="node21" class="node">
<title>Node21</title>
<g id="a_node21"><a xlink:href="util_8h.html#aaada8c5faa502eb0c33fc01294955db8" target="_top" xlink:title="PrintExceptionContinue">
<polygon fill="#ffffff" stroke="#000000" points="807.5,-608.5 807.5,-627.5 926.5,-627.5 926.5,-608.5 807.5,-608.5"/>
<text text-anchor="middle" x="867" y="-615.5" font-family="Helvetica,sans-Serif" font-size="10.00" fill="#000000">PrintExceptionContinue</text>
</a>
</g>
</g>
<!-- Node10&#45;&gt;Node21 -->
<g id="edge21" class="edge">
<title>Node10&#45;&gt;Node21</title>
<path fill="none" stroke="#191970" d="M706.4977,-437.8204C715.9146,-467.0059 747.7334,-553.9795 805,-599 807.3232,-600.8264 809.8219,-602.4781 812.4356,-603.9716"/>
<polygon fill="#191970" stroke="#191970" points="811.1537,-607.24 821.6776,-608.4643 814.2142,-600.9444 811.1537,-607.24"/>
</g>
<!-- Node22 -->
<g id="node22" class="node">
<title>Node22</title>
<g id="a_node22"><a xlink:href="util_8h.html#af0e69a29ba128b74030ad8a213f2037a" target="_top" xlink:title="FileCommit">
<polygon fill="#ffffff" stroke="#000000" points="833.5,-570.5 833.5,-589.5 900.5,-589.5 900.5,-570.5 833.5,-570.5"/>
<text text-anchor="middle" x="867" y="-577.5" font-family="Helvetica,sans-Serif" font-size="10.00" fill="#000000">FileCommit</text>
</a>
</g>
</g>
<!-- Node10&#45;&gt;Node22 -->
<g id="edge22" class="edge">
<title>Node10&#45;&gt;Node22</title>
<path fill="none" stroke="#191970" d="M708.1615,-437.6818C720.4419,-462.1586 756.1312,-526.9794 805,-561 810.6491,-564.9327 817.1363,-568.0707 823.7391,-570.5692"/>
<polygon fill="#191970" stroke="#191970" points="822.8179,-573.9513 833.4115,-573.7903 825.0297,-567.3099 822.8179,-573.9513"/>
</g>
<!-- Node23 -->
<g id="node23" class="node">
<title>Node23</title>
<g id="a_node23"><a xlink:href="util_8h.html#acb8d6b822bc1bfa609bf43bbac1a0d44" target="_top" xlink:title="TruncateFile">
<polygon fill="#ffffff" stroke="#000000" points="831.5,-532.5 831.5,-551.5 902.5,-551.5 902.5,-532.5 831.5,-532.5"/>
<text text-anchor="middle" x="867" y="-539.5" font-family="Helvetica,sans-Serif" font-size="10.00" fill="#000000">TruncateFile</text>
</a>
</g>
</g>
<!-- Node10&#45;&gt;Node23 -->
<g id="edge23" class="edge">
<title>Node10&#45;&gt;Node23</title>
<path fill="none" stroke="#191970" d="M711.1048,-437.5941C726.6978,-456.6406 764.27,-499.4166 805,-523 810.1804,-525.9995 815.8835,-528.5727 821.6687,-530.7672"/>
<polygon fill="#191970" stroke="#191970" points="820.8099,-534.1729 831.4046,-534.1114 823.084,-527.5525 820.8099,-534.1729"/>
</g>
<!-- Node24 -->
<g id="node24" class="node">
<title>Node24</title>
<g id="a_node24"><a xlink:href="util_8h.html#a756a5c49a4bb607d16d9842f8f3ede4f" target="_top" xlink:title="this function tries to raise the file descriptor limit to the requested number. ">
<polygon fill="#ffffff" stroke="#000000" points="805,-494.5 805,-513.5 929,-513.5 929,-494.5 805,-494.5"/>
<text text-anchor="middle" x="867" y="-501.5" font-family="Helvetica,sans-Serif" font-size="10.00" fill="#000000">RaiseFileDescriptorLimit</text>
</a>
</g>
</g>
<!-- Node10&#45;&gt;Node24 -->
<g id="edge24" class="edge">
<title>Node10&#45;&gt;Node24</title>
<path fill="none" stroke="#191970" d="M718.12,-437.538C737.3999,-449.8008 772.6728,-471.1595 805,-485 810.1747,-487.2155 815.6931,-489.2903 821.2236,-491.195"/>
<polygon fill="#191970" stroke="#191970" points="820.5273,-494.6497 831.1199,-494.4331 822.7042,-487.9968 820.5273,-494.6497"/>
</g>
<!-- Node25 -->
<g id="node25" class="node">
<title>Node25</title>
<g id="a_node25"><a xlink:href="util_8h.html#a91c763bffc49cf7ed8d45cc44870e55c" target="_top" xlink:title="this function tries to make a particular range of a file allocated (corresponding to disk space) it i...">
<polygon fill="#ffffff" stroke="#000000" points="819,-456.5 819,-475.5 915,-475.5 915,-456.5 819,-456.5"/>
<text text-anchor="middle" x="867" y="-463.5" font-family="Helvetica,sans-Serif" font-size="10.00" fill="#000000">AllocateFileRange</text>
</a>
</g>
</g>
<!-- Node10&#45;&gt;Node25 -->
<g id="edge25" class="edge">
<title>Node10&#45;&gt;Node25</title>
<path fill="none" stroke="#191970" d="M721.6221,-432.2119C744.2042,-437.4603 783.7382,-446.6486 815.884,-454.1198"/>
<polygon fill="#191970" stroke="#191970" points="815.4977,-457.6233 826.0305,-456.478 817.0825,-450.805 815.4977,-457.6233"/>
</g>
<!-- Node26 -->
<g id="node26" class="node">
<title>Node26</title>
<g id="a_node26"><a xlink:href="util_8h.html#a579657da2b55b131ecd453bf1b0d2314" target="_top" xlink:title="RenameOver">
<polygon fill="#ffffff" stroke="#000000" points="830,-418.5 830,-437.5 904,-437.5 904,-418.5 830,-418.5"/>
<text text-anchor="middle" x="867" y="-425.5" font-family="Helvetica,sans-Serif" font-size="10.00" fill="#000000">RenameOver</text>
</a>
</g>
</g>
<!-- Node10&#45;&gt;Node26 -->
<g id="edge26" class="edge">
<title>Node10&#45;&gt;Node26</title>
<path fill="none" stroke="#191970" d="M721.6221,-428C745.1044,-428 786.9173,-428 819.6919,-428"/>
<polygon fill="#191970" stroke="#191970" points="819.9808,-431.5001 829.9807,-428 819.9807,-424.5001 819.9808,-431.5001"/>
</g>
<!-- Node27 -->
<g id="node27" class="node">
<title>Node27</title>
<g id="a_node27"><a xlink:href="util_8h.html#a9042a919d837da9d97311a0c460c597c" target="_top" xlink:title="Ignores exceptions thrown by Boost&#39;s create_directories if the requested directory exists...">
<polygon fill="#ffffff" stroke="#000000" points="813.5,-380.5 813.5,-399.5 920.5,-399.5 920.5,-380.5 813.5,-380.5"/>
<text text-anchor="middle" x="867" y="-387.5" font-family="Helvetica,sans-Serif" font-size="10.00" fill="#000000">TryCreateDirectories</text>
</a>
</g>
</g>
<!-- Node10&#45;&gt;Node27 -->
<g id="edge27" class="edge">
<title>Node10&#45;&gt;Node27</title>
<path fill="none" stroke="#191970" d="M721.6221,-423.7881C744.2042,-418.5397 783.7382,-409.3514 815.884,-401.8802"/>
<polygon fill="#191970" stroke="#191970" points="817.0825,-405.195 826.0305,-399.522 815.4977,-398.3767 817.0825,-405.195"/>
</g>
<!-- Node28 -->
<g id="node28" class="node">
<title>Node28</title>
<g id="a_node28"><a xlink:href="util_8h.html#a15cb85964fe08c264605537f44570d3c" target="_top" xlink:title="GetDefaultDataDir">
<polygon fill="#ffffff" stroke="#000000" points="818,-342.5 818,-361.5 916,-361.5 916,-342.5 818,-342.5"/>
<text text-anchor="middle" x="867" y="-349.5" font-family="Helvetica,sans-Serif" font-size="10.00" fill="#000000">GetDefaultDataDir</text>
</a>
</g>
</g>
<!-- Node10&#45;&gt;Node28 -->
<g id="edge28" class="edge">
<title>Node10&#45;&gt;Node28</title>
<path fill="none" stroke="#191970" d="M718.12,-418.462C737.3999,-406.1992 772.6728,-384.8405 805,-371 810.1747,-368.7845 815.6931,-366.7097 821.2236,-364.805"/>
<polygon fill="#191970" stroke="#191970" points="822.7042,-368.0032 831.1199,-361.5669 820.5273,-361.3503 822.7042,-368.0032"/>
</g>
<!-- Node29 -->
<g id="node29" class="node">
<title>Node29</title>
<g id="a_node29"><a xlink:href="util_8h.html#abb63dfb710832aefb746933af05198d4" target="_top" xlink:title="GetDataDir">
<polygon fill="#ffffff" stroke="#000000" points="834,-304.5 834,-323.5 900,-323.5 900,-304.5 834,-304.5"/>
<text text-anchor="middle" x="867" y="-311.5" font-family="Helvetica,sans-Serif" font-size="10.00" fill="#000000">GetDataDir</text>
</a>
</g>
</g>
<!-- Node10&#45;&gt;Node29 -->
<g id="edge29" class="edge">
<title>Node10&#45;&gt;Node29</title>
<path fill="none" stroke="#191970" d="M711.1048,-418.4059C726.6978,-399.3594 764.27,-356.5834 805,-333 810.9567,-329.551 817.6046,-326.6656 824.2738,-324.2715"/>
<polygon fill="#191970" stroke="#191970" points="825.5593,-327.5338 833.9821,-321.1068 823.3897,-320.8785 825.5593,-327.5338"/>
</g>
<!-- Node30 -->
<g id="node30" class="node">
<title>Node30</title>
<g id="a_node30"><a xlink:href="util_8h.html#abfb50dfe077aced7591f2aba601f605d" target="_top" xlink:title="ClearDatadirCache">
<polygon fill="#ffffff" stroke="#000000" points="817,-266.5 817,-285.5 917,-285.5 917,-266.5 817,-266.5"/>
<text text-anchor="middle" x="867" y="-273.5" font-family="Helvetica,sans-Serif" font-size="10.00" fill="#000000">ClearDatadirCache</text>
</a>
</g>
</g>
<!-- Node10&#45;&gt;Node30 -->
<g id="edge30" class="edge">
<title>Node10&#45;&gt;Node30</title>
<path fill="none" stroke="#191970" d="M708.1615,-418.3182C720.4419,-393.8414 756.1312,-329.0206 805,-295 807.8585,-293.01 810.9315,-291.2236 814.1256,-289.6204"/>
<polygon fill="#191970" stroke="#191970" points="815.6142,-292.7895 823.3697,-285.5713 812.8056,-286.3776 815.6142,-292.7895"/>
</g>
<!-- Node31 -->
<g id="node31" class="node">
<title>Node31</title>
<g id="a_node31"><a xlink:href="util_8h.html#aa634f312705d4811dfa2a5392bddf6cf" target="_top" xlink:title="GetConfigFile">
<polygon fill="#ffffff" stroke="#000000" points="828.5,-190.5 828.5,-209.5 905.5,-209.5 905.5,-190.5 828.5,-190.5"/>
<text text-anchor="middle" x="867" y="-197.5" font-family="Helvetica,sans-Serif" font-size="10.00" fill="#000000">GetConfigFile</text>
</a>
</g>
</g>
<!-- Node10&#45;&gt;Node31 -->
<g id="edge31" class="edge">
<title>Node10&#45;&gt;Node31</title>
<path fill="none" stroke="#191970" d="M705.312,-418.4371C712.0574,-385.4973 738.8133,-275.6632 805,-219 809.1691,-215.4308 813.9987,-212.5319 819.0861,-210.1775"/>
<polygon fill="#191970" stroke="#191970" points="820.4098,-213.418 828.4347,-206.5005 817.8475,-206.9037 820.4098,-213.418"/>
</g>
<!-- Node33 -->
<g id="node33" class="node">
<title>Node33</title>
<g id="a_node33"><a xlink:href="util_8h.html#aa0172eabeecce5061826cb19990fbde2" target="_top" xlink:title="GetPidFile">
<polygon fill="#ffffff" stroke="#000000" points="836,-152.5 836,-171.5 898,-171.5 898,-152.5 836,-152.5"/>
<text text-anchor="middle" x="867" y="-159.5" font-family="Helvetica,sans-Serif" font-size="10.00" fill="#000000">GetPidFile</text>
</a>
</g>
</g>
<!-- Node10&#45;&gt;Node33 -->
<g id="edge33" class="edge">
<title>Node10&#45;&gt;Node33</title>
<path fill="none" stroke="#191970" d="M704.5455,-418.2988C709.0292,-381.5321 729.9629,-249.3965 805,-181 810.9672,-175.5609 818.457,-171.6781 826.1479,-168.9066"/>
<polygon fill="#191970" stroke="#191970" points="827.34,-172.2027 835.898,-165.9567 825.3129,-165.5026 827.34,-172.2027"/>
</g>
<!-- Node35 -->
<g id="node35" class="node">
<title>Node35</title>
<g id="a_node35"><a xlink:href="util_8h.html#a1c0f9b041628dcb399a023bc9913f41d" target="_top" xlink:title="CreatePidFile">
<polygon fill="#ffffff" stroke="#000000" points="829,-646.5 829,-665.5 905,-665.5 905,-646.5 829,-646.5"/>
<text text-anchor="middle" x="867" y="-653.5" font-family="Helvetica,sans-Serif" font-size="10.00" fill="#000000">CreatePidFile</text>
</a>
</g>
</g>
<!-- Node10&#45;&gt;Node35 -->
<g id="edge36" class="edge">
<title>Node10&#45;&gt;Node35</title>
<path fill="none" stroke="#191970" d="M705.312,-437.5629C712.0574,-470.5027 738.8133,-580.3368 805,-637 809.2226,-640.615 814.1227,-643.5423 819.2819,-645.9128"/>
<polygon fill="#191970" stroke="#191970" points="818.1696,-649.2356 828.7579,-649.6064 820.7118,-642.7136 818.1696,-649.2356"/>
</g>
<!-- Node37 -->
<g id="node37" class="node">
<title>Node37</title>
<g id="a_node37"><a xlink:href="util_8h.html#a1e755e72104d3ca393efc1cc3f41952a" target="_top" xlink:title="OpenDebugLog">
<polygon fill="#ffffff" stroke="#000000" points="825,-114.5 825,-133.5 909,-133.5 909,-114.5 825,-114.5"/>
<text text-anchor="middle" x="867" y="-121.5" font-family="Helvetica,sans-Serif" font-size="10.00" fill="#000000">OpenDebugLog</text>
</a>
</g>
</g>
<!-- Node10&#45;&gt;Node37 -->
<g id="edge38" class="edge">
<title>Node10&#45;&gt;Node37</title>
<path fill="none" stroke="#191970" d="M703.952,-418.2476C706.3505,-378.0307 720.915,-223.4024 805,-143 808.1123,-140.024 811.6787,-137.5131 815.494,-135.3949"/>
<polygon fill="#191970" stroke="#191970" points="817.1332,-138.4933 824.7515,-131.1305 814.2045,-132.1354 817.1332,-138.4933"/>
</g>
<!-- Node38 -->
<g id="node38" class="node">
<title>Node38</title>
<g id="a_node38"><a xlink:href="util_8h.html#a37fca7e305fe0caa306b23fdb37f88e2" target="_top" xlink:title="ShrinkDebugFile">
<polygon fill="#ffffff" stroke="#000000" points="822.5,-228.5 822.5,-247.5 911.5,-247.5 911.5,-228.5 822.5,-228.5"/>
<text text-anchor="middle" x="867" y="-235.5" font-family="Helvetica,sans-Serif" font-size="10.00" fill="#000000">ShrinkDebugFile</text>
</a>
</g>
</g>
<!-- Node10&#45;&gt;Node38 -->
<g id="edge39" class="edge">
<title>Node10&#45;&gt;Node38</title>
<path fill="none" stroke="#191970" d="M706.4977,-418.1796C715.9146,-388.9941 747.7334,-302.0205 805,-257 807.5666,-254.9822 810.3474,-253.1778 813.2608,-251.5642"/>
<polygon fill="#191970" stroke="#191970" points="814.7788,-254.718 822.3177,-247.2738 811.782,-248.392 814.7788,-254.718"/>
</g>
<!-- Node39 -->
<g id="node39" class="node">
<title>Node39</title>
<g id="a_node39"><a xlink:href="util_8h.html#aa803aa631ab8b4bd79fa9d7b2172bf9a" target="_top" xlink:title="runCommand">
<polygon fill="#ffffff" stroke="#000000" points="829.5,-722.5 829.5,-741.5 904.5,-741.5 904.5,-722.5 829.5,-722.5"/>
<text text-anchor="middle" x="867" y="-729.5" font-family="Helvetica,sans-Serif" font-size="10.00" fill="#000000">runCommand</text>
</a>
</g>
</g>
<!-- Node10&#45;&gt;Node39 -->
<g id="edge42" class="edge">
<title>Node10&#45;&gt;Node39</title>
<path fill="none" stroke="#191970" d="M703.952,-437.7524C706.3505,-477.9693 720.915,-632.5976 805,-713 809.2744,-717.0872 814.4052,-720.297 819.8609,-722.8174"/>
<polygon fill="#191970" stroke="#191970" points="818.666,-726.1078 829.2556,-726.4415 821.1854,-719.5769 818.666,-726.1078"/>
</g>
<!-- Node13 -->
<g id="node14" class="node">
<title>Node13</title>
<g id="a_node14"><a xlink:href="namespacetinyformat.html#a86ed74eb3ed66a662e96220d877da964" target="_top" xlink:title="Format list of arguments to the stream according to the given format string. ">
<polygon fill="#ffffff" stroke="#000000" points="984,-741.5 984,-760.5 1083,-760.5 1083,-741.5 984,-741.5"/>
<text text-anchor="middle" x="1033.5" y="-748.5" font-family="Helvetica,sans-Serif" font-size="10.00" fill="#000000">tinyformat::vformat</text>
</a>
</g>
</g>
<!-- Node12&#45;&gt;Node13 -->
<g id="edge14" class="edge">
<title>Node12&#45;&gt;Node13</title>
<path fill="none" stroke="#191970" d="M914.2669,-764.6062C932.7697,-762.4948 954.209,-760.0482 973.7631,-757.8168"/>
<polygon fill="#191970" stroke="#191970" points="974.2525,-761.2838 983.7912,-756.6725 973.4588,-754.3289 974.2525,-761.2838"/>
</g>
<!-- Node20 -->
<g id="node20" class="node">
<title>Node20</title>
<g id="a_node20"><a xlink:href="namespacetinyformat.html#a37afaa5249c69dacd619269358f06f69" target="_top" xlink:title="Make type&#45;agnostic format list from list of template arguments. ">
<polygon fill="#ffffff" stroke="#000000" points="965,-779.5 965,-798.5 1102,-798.5 1102,-779.5 965,-779.5"/>
<text text-anchor="middle" x="1033.5" y="-786.5" font-family="Helvetica,sans-Serif" font-size="10.00" fill="#000000">tinyformat::makeFormatList</text>
</a>
</g>
</g>
<!-- Node12&#45;&gt;Node20 -->
<g id="edge20" class="edge">
<title>Node12&#45;&gt;Node20</title>
<path fill="none" stroke="#191970" d="M914.2669,-775.3938C926.9546,-776.8417 941.0231,-778.4471 954.9177,-780.0327"/>
<polygon fill="#191970" stroke="#191970" points="954.6498,-783.5247 964.9822,-781.1811 955.4435,-776.5698 954.6498,-783.5247"/>
</g>
<!-- Node14 -->
<g id="node15" class="node">
<title>Node14</title>
<g id="a_node15"><a xlink:href="namespacetinyformat_1_1detail.html#a079a316938c0e8693efbeb0183b1390d" target="_top" xlink:title="tinyformat::detail\l::formatImpl">
<polygon fill="#ffffff" stroke="#000000" points="1138,-736 1138,-766 1227,-766 1227,-736 1138,-736"/>
<text text-anchor="start" x="1146" y="-754" font-family="Helvetica,sans-Serif" font-size="10.00" fill="#000000">tinyformat::detail</text>
<text text-anchor="middle" x="1182.5" y="-743" font-family="Helvetica,sans-Serif" font-size="10.00" fill="#000000">::formatImpl</text>
</a>
</g>
</g>
<!-- Node13&#45;&gt;Node14 -->
<g id="edge15" class="edge">
<title>Node13&#45;&gt;Node14</title>
<path fill="none" stroke="#191970" d="M1083.1148,-751C1097.2842,-751 1112.8105,-751 1127.2923,-751"/>
<polygon fill="#191970" stroke="#191970" points="1127.6183,-754.5001 1137.6183,-751 1127.6183,-747.5001 1127.6183,-754.5001"/>
</g>
<!-- Node15 -->
<g id="node16" class="node">
<title>Node15</title>
<g id="a_node16"><a xlink:href="namespacetinyformat_1_1detail.html#ad3d636b9f85202b515c8940b7fcb62a6" target="_top" xlink:title="tinyformat::detail\l::printFormatStringLiteral">
<polygon fill="#ffffff" stroke="#000000" points="1265.5,-785 1265.5,-815 1389.5,-815 1389.5,-785 1265.5,-785"/>
<text text-anchor="start" x="1273.5" y="-803" font-family="Helvetica,sans-Serif" font-size="10.00" fill="#000000">tinyformat::detail</text>
<text text-anchor="middle" x="1327.5" y="-792" font-family="Helvetica,sans-Serif" font-size="10.00" fill="#000000">::printFormatStringLiteral</text>
</a>
</g>
</g>
<!-- Node14&#45;&gt;Node15 -->
<g id="edge16" class="edge">
<title>Node14&#45;&gt;Node15</title>
<path fill="none" stroke="#191970" d="M1227.1879,-766.1014C1241.659,-770.9917 1257.8725,-776.4707 1272.9752,-781.5744"/>
<polygon fill="#191970" stroke="#191970" points="1272.1158,-784.9783 1282.71,-784.8641 1274.3569,-778.3468 1272.1158,-784.9783"/>
</g>
<!-- Node16 -->
<g id="node17" class="node">
<title>Node16</title>
<g id="a_node17"><a xlink:href="namespacetinyformat_1_1detail.html#a681e8ceb825485cc5e3b057c11e4b1b5" target="_top" xlink:title="tinyformat::detail\l::streamStateFromFormat">
<polygon fill="#ffffff" stroke="#ff0000" points="1263,-736 1263,-766 1392,-766 1392,-736 1263,-736"/>
<text text-anchor="start" x="1271" y="-754" font-family="Helvetica,sans-Serif" font-size="10.00" fill="#000000">tinyformat::detail</text>
<text text-anchor="middle" x="1327.5" y="-743" font-family="Helvetica,sans-Serif" font-size="10.00" fill="#000000">::streamStateFromFormat</text>
</a>
</g>
</g>
<!-- Node14&#45;&gt;Node16 -->
<g id="edge17" class="edge">
<title>Node14&#45;&gt;Node16</title>
<path fill="none" stroke="#191970" d="M1227.1879,-751C1235.3219,-751 1244.0064,-751 1252.7346,-751"/>
<polygon fill="#191970" stroke="#191970" points="1252.9707,-754.5001 1262.9707,-751 1252.9706,-747.5001 1252.9707,-754.5001"/>
</g>
<!-- Node19 -->
<g id="node19" class="node">
<title>Node19</title>
<g id="a_node19"><a xlink:href="classtinyformat_1_1detail_1_1_format_arg.html#acbf435711bbe4a4da7fc81758d7108a9" target="_top" xlink:title="tinyformat::detail\l::FormatArg::format">
<polygon fill="#ffffff" stroke="#000000" points="1276.5,-687 1276.5,-717 1378.5,-717 1378.5,-687 1276.5,-687"/>
<text text-anchor="start" x="1284.5" y="-705" font-family="Helvetica,sans-Serif" font-size="10.00" fill="#000000">tinyformat::detail</text>
<text text-anchor="middle" x="1327.5" y="-694" font-family="Helvetica,sans-Serif" font-size="10.00" fill="#000000">::FormatArg::format</text>
</a>
</g>
</g>
<!-- Node14&#45;&gt;Node19 -->
<g id="edge19" class="edge">
<title>Node14&#45;&gt;Node19</title>
<path fill="none" stroke="#191970" d="M1227.1879,-735.8986C1241.659,-731.0083 1257.8725,-725.5293 1272.9752,-720.4256"/>
<polygon fill="#191970" stroke="#191970" points="1274.3569,-723.6532 1282.71,-717.1359 1272.1158,-717.0217 1274.3569,-723.6532"/>
</g>
<!-- Node17 -->
<g id="node18" class="node">
<title>Node17</title>
<g id="a_node18"><a xlink:href="namespacetinyformat_1_1detail.html#a67285e0adb9f4164f9fc30a3eb11c771" target="_top" xlink:title="tinyformat::detail\l::parseIntAndAdvance">
<polygon fill="#ffffff" stroke="#000000" points="1428,-736 1428,-766 1541,-766 1541,-736 1428,-736"/>
<text text-anchor="start" x="1436" y="-754" font-family="Helvetica,sans-Serif" font-size="10.00" fill="#000000">tinyformat::detail</text>
<text text-anchor="middle" x="1484.5" y="-743" font-family="Helvetica,sans-Serif" font-size="10.00" fill="#000000">::parseIntAndAdvance</text>
</a>
</g>
</g>
<!-- Node16&#45;&gt;Node17 -->
<g id="edge18" class="edge">
<title>Node16&#45;&gt;Node17</title>
<path fill="none" stroke="#191970" d="M1392.2643,-751C1400.6715,-751 1409.2956,-751 1417.7346,-751"/>
<polygon fill="#191970" stroke="#191970" points="1417.9096,-754.5001 1427.9095,-751 1417.9095,-747.5001 1417.9096,-754.5001"/>
</g>
<!-- Node32 -->
<g id="node32" class="node">
<title>Node32</title>
<g id="a_node32"><a xlink:href="util_8cpp.html#a7ebe0bd091f7334aaead43904601e008" target="_top" xlink:title="GetDataDir">
<polygon fill="#ffffff" stroke="#000000" points="1000.5,-190.5 1000.5,-209.5 1066.5,-209.5 1066.5,-190.5 1000.5,-190.5"/>
<text text-anchor="middle" x="1033.5" y="-197.5" font-family="Helvetica,sans-Serif" font-size="10.00" fill="#000000">GetDataDir</text>
</a>
</g>
</g>
<!-- Node31&#45;&gt;Node32 -->
<g id="edge32" class="edge">
<title>Node31&#45;&gt;Node32</title>
<path fill="none" stroke="#191970" d="M905.6169,-200C930.9746,-200 964.1762,-200 990.3939,-200"/>
<polygon fill="#191970" stroke="#191970" points="990.4308,-203.5001 1000.4308,-200 990.4308,-196.5001 990.4308,-203.5001"/>
</g>
<!-- Node33&#45;&gt;Node32 -->
<g id="edge35" class="edge">
<title>Node33&#45;&gt;Node32</title>
<path fill="none" stroke="#191970" d="M898.3174,-169.1475C924.3555,-175.0902 961.6789,-183.6084 990.5137,-190.1893"/>
<polygon fill="#191970" stroke="#191970" points="989.7983,-193.616 1000.3265,-192.4289 991.3559,-186.7915 989.7983,-193.616"/>
</g>
<!-- Node34 -->
<g id="node34" class="node">
<title>Node34</title>
<g id="a_node34"><a xlink:href="class_args_manager.html#adb5d644d273b3a259f792affcdca8283" target="_top" xlink:title="Return string argument or default value. ">
<polygon fill="#ffffff" stroke="#000000" points="978,-152.5 978,-171.5 1089,-171.5 1089,-152.5 978,-152.5"/>
<text text-anchor="middle" x="1033.5" y="-159.5" font-family="Helvetica,sans-Serif" font-size="10.00" fill="#000000">ArgsManager::GetArg</text>
</a>
</g>
</g>
<!-- Node33&#45;&gt;Node34 -->
<g id="edge34" class="edge">
<title>Node33&#45;&gt;Node34</title>
<path fill="none" stroke="#191970" d="M898.3174,-162C917.8523,-162 943.7394,-162 967.6282,-162"/>
<polygon fill="#191970" stroke="#191970" points="967.7197,-165.5001 977.7197,-162 967.7196,-158.5001 967.7197,-165.5001"/>
</g>
<!-- Node36 -->
<g id="node36" class="node">
<title>Node36</title>
<g id="a_node36"><a xlink:href="namespacefsbridge.html#a19c84cec4ae9accfbc88a83e48f7ee92" target="_top" xlink:title="fsbridge::fopen">
<polygon fill="#ffffff" stroke="#000000" points="993,-437.5 993,-456.5 1074,-456.5 1074,-437.5 993,-437.5"/>
<text text-anchor="middle" x="1033.5" y="-444.5" font-family="Helvetica,sans-Serif" font-size="10.00" fill="#000000">fsbridge::fopen</text>
</a>
</g>
</g>
<!-- Node35&#45;&gt;Node36 -->
<g id="edge37" class="edge">
<title>Node35&#45;&gt;Node36</title>
<path fill="none" stroke="#191970" d="M905.0348,-649.3579C913.5534,-646.568 922.0993,-642.6107 929,-637 985.8924,-590.7426 1016.7052,-504.8886 1028.1897,-466.4679"/>
<polygon fill="#191970" stroke="#191970" points="1031.6386,-467.1378 1031.0321,-456.5603 1024.91,-465.2073 1031.6386,-467.1378"/>
</g>
<!-- Node38&#45;&gt;Node32 -->
<g id="edge40" class="edge">
<title>Node38&#45;&gt;Node32</title>
<path fill="none" stroke="#191970" d="M909.015,-228.411C933.9082,-222.7297 965.3821,-215.5464 990.4539,-209.8243"/>
<polygon fill="#191970" stroke="#191970" points="991.4478,-213.1876 1000.4183,-207.5502 989.8902,-206.3631 991.4478,-213.1876"/>
</g>
<!-- Node38&#45;&gt;Node36 -->
<g id="edge41" class="edge">
<title>Node38&#45;&gt;Node36</title>
<path fill="none" stroke="#191970" d="M911.8025,-247.1236C917.9805,-249.6527 923.9337,-252.8807 929,-257 985.8924,-303.2574 1016.7052,-389.1114 1028.1897,-427.5321"/>
<polygon fill="#191970" stroke="#191970" points="1024.91,-428.7927 1031.0321,-437.4397 1031.6386,-426.8622 1024.91,-428.7927"/>
</g>
<!-- Node42 -->
<g id="node42" class="node">
<title>Node42</title>
<g id="a_node42"><a xlink:href="warnings_8cpp.html#a6918ffd0d632afc0c0495696bc99aa00" target="_top" xlink:title="Format a string that describes several potential problems detected by the core. ">
<polygon fill="#ffffff" stroke="#000000" points="495,-76.5 495,-95.5 569,-95.5 569,-76.5 495,-76.5"/>
<text text-anchor="middle" x="532" y="-83.5" font-family="Helvetica,sans-Serif" font-size="10.00" fill="#000000">GetWarnings</text>
</a>
</g>
</g>
<!-- Node41&#45;&gt;Node42 -->
<g id="edge45" class="edge">
<title>Node41&#45;&gt;Node42</title>
<path fill="none" stroke="#191970" d="M395.3563,-86C423.0316,-86 457.3755,-86 484.7085,-86"/>
<polygon fill="#191970" stroke="#191970" points="484.8124,-89.5001 494.8124,-86 484.8124,-82.5001 484.8124,-89.5001"/>
</g>
<!-- Node46 -->
<g id="node46" class="node">
<title>Node46</title>
<g id="a_node46"><a xlink:href="class_args_manager.html#af81c6e2a9dcd6b12557a2387fd67b2a6" target="_top" xlink:title="Return boolean argument or default value. ">
<polygon fill="#ffffff" stroke="#000000" points="638,-38.5 638,-57.5 769,-57.5 769,-38.5 638,-38.5"/>
<text text-anchor="middle" x="703.5" y="-45.5" font-family="Helvetica,sans-Serif" font-size="10.00" fill="#000000">ArgsManager::GetBoolArg</text>
</a>
</g>
</g>
<!-- Node41&#45;&gt;Node46 -->
<g id="edge50" class="edge">
<title>Node41&#45;&gt;Node46</title>
<path fill="none" stroke="#191970" d="M395.2595,-76.9952C415.8327,-73.4784 440.0185,-69.6602 462,-67 517.235,-60.3156 579.8752,-55.4658 627.5165,-52.3396"/>
<polygon fill="#191970" stroke="#191970" points="627.9986,-55.8158 637.7525,-51.6792 627.5479,-48.8304 627.9986,-55.8158"/>
</g>
<!-- Node43 -->
<g id="node43" class="node">
<title>Node43</title>
<g id="a_node43"><a xlink:href="util_8h.html#aad133bb6103b53cebf03fd01e2f11ba1" target="_top" xlink:title="Translation function: Call Translate signal on UI interface, which returns a boost::optional result...">
<polygon fill="#ffffff" stroke="#000000" points="689,-76.5 689,-95.5 718,-95.5 718,-76.5 689,-76.5"/>
<text text-anchor="middle" x="703.5" y="-83.5" font-family="Helvetica,sans-Serif" font-size="10.00" fill="#000000">_</text>
</a>
</g>
</g>
<!-- Node42&#45;&gt;Node43 -->
<g id="edge46" class="edge">
<title>Node42&#45;&gt;Node43</title>
<path fill="none" stroke="#191970" d="M569.2129,-86C602.4078,-86 650.072,-86 678.7836,-86"/>
<polygon fill="#191970" stroke="#191970" points="678.79,-89.5001 688.7899,-86 678.7899,-82.5001 678.79,-89.5001"/>
</g>
<!-- Node42&#45;&gt;Node46 -->
<g id="edge49" class="edge">
<title>Node42&#45;&gt;Node46</title>
<path fill="none" stroke="#191970" d="M569.2129,-77.7546C593.0608,-72.4705 624.3767,-65.5317 650.7679,-59.6841"/>
<polygon fill="#191970" stroke="#191970" points="651.6096,-63.0825 660.6157,-57.5021 650.0953,-56.2483 651.6096,-63.0825"/>
</g>
<!-- Node44 -->
<g id="node44" class="node">
<title>Node44</title>
<g id="a_node44"><a xlink:href="util_8h.html#a9ed616020f4ef9b1a261b222bbec78e2" target="_top" xlink:title="SetupEnvironment">
<polygon fill="#ffffff" stroke="#000000" points="818.5,-76.5 818.5,-95.5 915.5,-95.5 915.5,-76.5 818.5,-76.5"/>
<text text-anchor="middle" x="867" y="-83.5" font-family="Helvetica,sans-Serif" font-size="10.00" fill="#000000">SetupEnvironment</text>
</a>
</g>
</g>
<!-- Node43&#45;&gt;Node44 -->
<g id="edge47" class="edge">
<title>Node43&#45;&gt;Node44</title>
<path fill="none" stroke="#191970" d="M718.0095,-86C738.1081,-86 775.6047,-86 807.9513,-86"/>
<polygon fill="#191970" stroke="#191970" points="808.2439,-89.5001 818.2439,-86 808.2438,-82.5001 808.2439,-89.5001"/>
</g>
<!-- Node45 -->
<g id="node45" class="node">
<title>Node45</title>
<g id="a_node45"><a xlink:href="util_8h.html#a66791919e137c59061e988d2d87ee9a1" target="_top" xlink:title="SetupNetworking">
<polygon fill="#ffffff" stroke="#000000" points="821,-38.5 821,-57.5 913,-57.5 913,-38.5 821,-38.5"/>
<text text-anchor="middle" x="867" y="-45.5" font-family="Helvetica,sans-Serif" font-size="10.00" fill="#000000">SetupNetworking</text>
</a>
</g>
</g>
<!-- Node43&#45;&gt;Node45 -->
<g id="edge48" class="edge">
<title>Node43&#45;&gt;Node45</title>
<path fill="none" stroke="#191970" d="M718.0095,-82.6278C739.847,-77.5524 782.2233,-67.7035 816.2168,-59.8028"/>
<polygon fill="#191970" stroke="#191970" points="817.0627,-63.1996 826.0107,-57.5266 815.478,-56.3813 817.0627,-63.1996"/>
</g>
<!-- Node47&#45;&gt;Node9 -->
<g id="edge53" class="edge">
<title>Node47&#45;&gt;Node9</title>
<path fill="none" stroke="#191970" d="M392.9357,-133.589C419.0829,-138.9309 451.7294,-145.6006 478.8191,-151.1351"/>
<polygon fill="#191970" stroke="#191970" points="478.406,-154.6229 488.9042,-153.1955 479.8072,-147.7646 478.406,-154.6229"/>
</g>
<!-- Node48 -->
<g id="node48" class="node">
<title>Node48</title>
<g id="a_node48"><a xlink:href="class_c_crypto_key_store.html#a52919fa284a3aa10f1b4bd6018b6dbee" target="_top" xlink:title="CCryptoKeyStore::IsLocked">
<polygon fill="#ffffff" stroke="#000000" points="462,-114.5 462,-133.5 602,-133.5 602,-114.5 462,-114.5"/>
<text text-anchor="middle" x="532" y="-121.5" font-family="Helvetica,sans-Serif" font-size="10.00" fill="#000000">CCryptoKeyStore::IsLocked</text>
</a>
</g>
</g>
<!-- Node47&#45;&gt;Node48 -->
<g id="edge52" class="edge">
<title>Node47&#45;&gt;Node48</title>
<path fill="none" stroke="#191970" d="M408.7118,-124C422.4601,-124 437.1997,-124 451.5346,-124"/>
<polygon fill="#191970" stroke="#191970" points="451.8812,-127.5001 461.8812,-124 451.8812,-120.5001 451.8812,-127.5001"/>
</g>
<!-- Node50 -->
<g id="node50" class="node">
<title>Node50</title>
<g id="a_node50"><a xlink:href="class_uni_value.html#a4c9a5fa9114affbf31f6e346c032be12" target="_top" xlink:title="UniValue::getValStr">
<polygon fill="#ffffff" stroke="#000000" points="480.5,-.5 480.5,-19.5 583.5,-19.5 583.5,-.5 480.5,-.5"/>
<text text-anchor="middle" x="532" y="-7.5" font-family="Helvetica,sans-Serif" font-size="10.00" fill="#000000">UniValue::getValStr</text>
</a>
</g>
</g>
<!-- Node49&#45;&gt;Node50 -->
<g id="edge55" class="edge">
<title>Node49&#45;&gt;Node50</title>
<path fill="none" stroke="#191970" d="M392.4559,-24.2545C415.9096,-21.8587 444.6845,-18.9193 469.9993,-16.3334"/>
<polygon fill="#191970" stroke="#191970" points="470.6502,-19.7852 480.2427,-15.287 469.9388,-12.8215 470.6502,-19.7852"/>
</g>
</g>
</svg>
