<?xml version="1.0" encoding="UTF-8" standalone="no"?>
<!DOCTYPE svg PUBLIC "-//W3C//DTD SVG 1.1//EN"
 "http://www.w3.org/Graphics/SVG/1.1/DTD/svg11.dtd">
<!-- Generated by graphviz version 2.40.1 (20161225.0304)
 -->
<!-- Title: src/timedata.h Pages: 1 -->
<svg width="2977pt" height="364pt"
 viewBox="0.00 0.00 2976.58 364.00" xmlns="http://www.w3.org/2000/svg" xmlns:xlink="http://www.w3.org/1999/xlink">
<g id="graph0" class="graph" transform="scale(1 1) rotate(0) translate(4 360)">
<title>src/timedata.h</title>
<polygon fill="#ffffff" stroke="transparent" points="-4,4 -4,-360 2972.5773,-360 2972.5773,4 -4,4"/>
<!-- Node5 -->
<g id="node1" class="node">
<title>Node5</title>
<polygon fill="#bfbfbf" stroke="#000000" points="2292.0773,-336.5 2292.0773,-355.5 2371.0773,-355.5 2371.0773,-336.5 2292.0773,-336.5"/>
<text text-anchor="middle" x="2331.5773" y="-343.5" font-family="Helvetica,sans-Serif" font-size="10.00" fill="#000000">src/timedata.h</text>
</g>
<!-- Node6 -->
<g id="node2" class="node">
<title>Node6</title>
<g id="a_node2"><a xlink:href="addrman_8h.html" target="_top" xlink:title="src/addrman.h">
<polygon fill="#ffffff" stroke="#000000" points="203.0773,-280.5 203.0773,-299.5 282.0773,-299.5 282.0773,-280.5 203.0773,-280.5"/>
<text text-anchor="middle" x="242.5773" y="-287.5" font-family="Helvetica,sans-Serif" font-size="10.00" fill="#000000">src/addrman.h</text>
</a>
</g>
</g>
<!-- Node5&#45;&gt;Node6 -->
<g id="edge1" class="edge">
<title>Node5&#45;&gt;Node6</title>
<path fill="none" stroke="#191970" d="M2281.5398,-344.6586C1992.6827,-336.9152 542.2082,-298.0322 282.4371,-291.0685"/>
<polygon fill="#191970" stroke="#191970" points="2281.6219,-348.162 2291.7121,-344.9313 2281.8096,-341.1645 2281.6219,-348.162"/>
</g>
<!-- Node9 -->
<g id="node5" class="node">
<title>Node9</title>
<g id="a_node5"><a xlink:href="init_8cpp.html" target="_top" xlink:title="src/init.cpp">
<polygon fill="#ffffff" stroke="#000000" points="43.0773,-112.5 43.0773,-131.5 108.0773,-131.5 108.0773,-112.5 43.0773,-112.5"/>
<text text-anchor="middle" x="75.5773" y="-119.5" font-family="Helvetica,sans-Serif" font-size="10.00" fill="#000000">src/init.cpp</text>
</a>
</g>
</g>
<!-- Node5&#45;&gt;Node9 -->
<g id="edge48" class="edge">
<title>Node5&#45;&gt;Node9</title>
<path fill="none" stroke="#191970" d="M2281.4544,-345.8006C1979.1822,-344.4812 405.1962,-335.9196 193.5773,-300 114.3169,-286.5465 75.403,-303.7161 21.5773,-244 -1.3178,-218.5993 -6.2457,-198.3152 9.5773,-168 18.4311,-151.0371 36.7105,-139.0558 51.7914,-131.5822"/>
<polygon fill="#191970" stroke="#191970" points="2281.6513,-349.3014 2291.6663,-345.8445 2281.6815,-342.3014 2281.6513,-349.3014"/>
</g>
<!-- Node20 -->
<g id="node16" class="node">
<title>Node20</title>
<g id="a_node16"><a xlink:href="rpc_2net_8cpp.html" target="_top" xlink:title="src/rpc/net.cpp">
<polygon fill="#ffffff" stroke="#000000" points="1795.5773,-112.5 1795.5773,-131.5 1877.5773,-131.5 1877.5773,-112.5 1795.5773,-112.5"/>
<text text-anchor="middle" x="1836.5773" y="-119.5" font-family="Helvetica,sans-Serif" font-size="10.00" fill="#000000">src/rpc/net.cpp</text>
</a>
</g>
</g>
<!-- Node5&#45;&gt;Node20 -->
<g id="edge55" class="edge">
<title>Node5&#45;&gt;Node20</title>
<path fill="none" stroke="#191970" d="M2357.4966,-331.5272C2373.4468,-322.5598 2394.272,-310.742 2412.5773,-300 2427.3686,-291.3201 2430.5619,-288.2861 2445.5773,-280 2529.3977,-233.7445 2695.2837,-237.6283 2629.5773,-168 2603.5491,-140.4182 2036.6063,-126.2705 1877.6683,-122.8368"/>
<polygon fill="#191970" stroke="#191970" points="2355.7337,-328.503 2348.7245,-336.448 2359.1584,-334.608 2355.7337,-328.503"/>
</g>
<!-- Node21 -->
<g id="node17" class="node">
<title>Node21</title>
<g id="a_node17"><a xlink:href="miner_8cpp.html" target="_top" xlink:title="src/miner.cpp">
<polygon fill="#ffffff" stroke="#000000" points="1817.5773,-168.5 1817.5773,-187.5 1893.5773,-187.5 1893.5773,-168.5 1817.5773,-168.5"/>
<text text-anchor="middle" x="1855.5773" y="-175.5" font-family="Helvetica,sans-Serif" font-size="10.00" fill="#000000">src/miner.cpp</text>
</a>
</g>
</g>
<!-- Node5&#45;&gt;Node21 -->
<g id="edge49" class="edge">
<title>Node5&#45;&gt;Node21</title>
<path fill="none" stroke="#191970" d="M2291.3837,-333.4153C2262.8773,-324.3837 2223.7678,-311.7778 2189.5773,-300 2073.4263,-259.9889 1936.0299,-208.4624 1880.6038,-187.5006"/>
<polygon fill="#191970" stroke="#191970" points="2290.4092,-336.7779 2300.9991,-336.4536 2292.5184,-330.1032 2290.4092,-336.7779"/>
</g>
<!-- Node29 -->
<g id="node25" class="node">
<title>Node29</title>
<g id="a_node25"><a xlink:href="rpc_2assets_8cpp.html" target="_top" xlink:title="src/rpc/assets.cpp">
<polygon fill="#ffffff" stroke="#000000" points="1911.5773,-168.5 1911.5773,-187.5 2009.5773,-187.5 2009.5773,-168.5 1911.5773,-168.5"/>
<text text-anchor="middle" x="1960.5773" y="-175.5" font-family="Helvetica,sans-Serif" font-size="10.00" fill="#000000">src/rpc/assets.cpp</text>
</a>
</g>
</g>
<!-- Node5&#45;&gt;Node29 -->
<g id="edge52" class="edge">
<title>Node5&#45;&gt;Node29</title>
<path fill="none" stroke="#191970" d="M2301.4543,-332.3594C2228.6377,-299.3858 2044.4616,-215.9853 1981.8163,-187.6177"/>
<polygon fill="#191970" stroke="#191970" points="2300.0144,-335.5494 2310.5678,-336.4862 2302.902,-329.1728 2300.0144,-335.5494"/>
</g>
<!-- Node30 -->
<g id="node26" class="node">
<title>Node30</title>
<g id="a_node26"><a xlink:href="rpc_2messages_8cpp.html" target="_top" xlink:title="src/rpc/messages.cpp">
<polygon fill="#ffffff" stroke="#000000" points="2028.0773,-168.5 2028.0773,-187.5 2141.0773,-187.5 2141.0773,-168.5 2028.0773,-168.5"/>
<text text-anchor="middle" x="2084.5773" y="-175.5" font-family="Helvetica,sans-Serif" font-size="10.00" fill="#000000">src/rpc/messages.cpp</text>
</a>
</g>
</g>
<!-- Node5&#45;&gt;Node30 -->
<g id="edge53" class="edge">
<title>Node5&#45;&gt;Node30</title>
<path fill="none" stroke="#191970" d="M2309.0893,-330.7045C2259.0611,-296.6772 2139.7439,-215.5222 2098.7176,-187.6177"/>
<polygon fill="#191970" stroke="#191970" points="2307.3527,-333.7562 2317.5898,-336.4862 2311.2896,-327.9681 2307.3527,-333.7562"/>
</g>
<!-- Node32 -->
<g id="node28" class="node">
<title>Node32</title>
<g id="a_node28"><a xlink:href="misc_8cpp.html" target="_top" xlink:title="src/rpc/misc.cpp">
<polygon fill="#ffffff" stroke="#000000" points="2159.0773,-168.5 2159.0773,-187.5 2248.0773,-187.5 2248.0773,-168.5 2159.0773,-168.5"/>
<text text-anchor="middle" x="2203.5773" y="-175.5" font-family="Helvetica,sans-Serif" font-size="10.00" fill="#000000">src/rpc/misc.cpp</text>
</a>
</g>
</g>
<!-- Node5&#45;&gt;Node32 -->
<g id="edge54" class="edge">
<title>Node5&#45;&gt;Node32</title>
<path fill="none" stroke="#191970" d="M2317.9387,-328.0993C2291.0385,-292.7928 2231.9446,-215.232 2211.0652,-187.8279"/>
<polygon fill="#191970" stroke="#191970" points="2315.4843,-330.6531 2324.3287,-336.4862 2321.0523,-326.4107 2315.4843,-330.6531"/>
</g>
<!-- Node35 -->
<g id="node31" class="node">
<title>Node35</title>
<g id="a_node31"><a xlink:href="validation_8cpp.html" target="_top" xlink:title="src/validation.cpp">
<polygon fill="#ffffff" stroke="#000000" points="2266.0773,-168.5 2266.0773,-187.5 2359.0773,-187.5 2359.0773,-168.5 2266.0773,-168.5"/>
<text text-anchor="middle" x="2312.5773" y="-175.5" font-family="Helvetica,sans-Serif" font-size="10.00" fill="#000000">src/validation.cpp</text>
</a>
</g>
</g>
<!-- Node5&#45;&gt;Node35 -->
<g id="edge58" class="edge">
<title>Node5&#45;&gt;Node35</title>
<path fill="none" stroke="#191970" d="M2329.3448,-326.2601C2325.2629,-290.1669 2316.7353,-214.7656 2313.6888,-187.8279"/>
<polygon fill="#191970" stroke="#191970" points="2325.8997,-326.9429 2330.5014,-336.4862 2332.8553,-326.1562 2325.8997,-326.9429"/>
</g>
<!-- Node38 -->
<g id="node34" class="node">
<title>Node38</title>
<g id="a_node34"><a xlink:href="rpcwallet_8cpp.html" target="_top" xlink:title="src/wallet/rpcwallet.cpp">
<polygon fill="#ffffff" stroke="#000000" points="2377.0773,-168.5 2377.0773,-187.5 2496.0773,-187.5 2496.0773,-168.5 2377.0773,-168.5"/>
<text text-anchor="middle" x="2436.5773" y="-175.5" font-family="Helvetica,sans-Serif" font-size="10.00" fill="#000000">src/wallet/rpcwallet.cpp</text>
</a>
</g>
</g>
<!-- Node5&#45;&gt;Node38 -->
<g id="edge59" class="edge">
<title>Node5&#45;&gt;Node38</title>
<path fill="none" stroke="#191970" d="M2334.8265,-326.2422C2339.8208,-300.6179 2351.3479,-255.4832 2374.5773,-224 2386.1158,-208.3617 2404.4739,-195.6812 2418.2246,-187.6248"/>
<polygon fill="#191970" stroke="#191970" points="2331.356,-325.7657 2333.0218,-336.2288 2338.2444,-327.0106 2331.356,-325.7657"/>
</g>
<!-- Node39 -->
<g id="node35" class="node">
<title>Node39</title>
<g id="a_node35"><a xlink:href="wallet_8cpp.html" target="_top" xlink:title="src/wallet/wallet.cpp">
<polygon fill="#ffffff" stroke="#000000" points="2514.5773,-168.5 2514.5773,-187.5 2620.5773,-187.5 2620.5773,-168.5 2514.5773,-168.5"/>
<text text-anchor="middle" x="2567.5773" y="-175.5" font-family="Helvetica,sans-Serif" font-size="10.00" fill="#000000">src/wallet/wallet.cpp</text>
</a>
</g>
</g>
<!-- Node5&#45;&gt;Node39 -->
<g id="edge60" class="edge">
<title>Node5&#45;&gt;Node39</title>
<path fill="none" stroke="#191970" d="M2350.22,-329.9004C2366.3662,-316.1794 2390.5311,-296.1712 2412.5773,-280 2461.9298,-243.7992 2523.4053,-205.1481 2551.8232,-187.6247"/>
<polygon fill="#191970" stroke="#191970" points="2347.8872,-327.29 2342.5612,-336.4489 2352.4363,-332.6104 2347.8872,-327.29"/>
</g>
<!-- Node41 -->
<g id="node37" class="node">
<title>Node41</title>
<g id="a_node37"><a xlink:href="transactiondesc_8cpp.html" target="_top" xlink:title="src/qt/transactiondesc.cpp">
<polygon fill="#ffffff" stroke="#000000" points="2454.5773,-280.5 2454.5773,-299.5 2586.5773,-299.5 2586.5773,-280.5 2454.5773,-280.5"/>
<text text-anchor="middle" x="2520.5773" y="-287.5" font-family="Helvetica,sans-Serif" font-size="10.00" fill="#000000">src/qt/transactiondesc.cpp</text>
</a>
</g>
</g>
<!-- Node5&#45;&gt;Node41 -->
<g id="edge50" class="edge">
<title>Node5&#45;&gt;Node41</title>
<path fill="none" stroke="#191970" d="M2373.913,-333.4561C2408.6067,-323.1765 2456.9607,-308.8494 2488.511,-299.5011"/>
<polygon fill="#191970" stroke="#191970" points="2372.6612,-330.1765 2364.0676,-336.3733 2374.6499,-336.8881 2372.6612,-330.1765"/>
</g>
<!-- Node42 -->
<g id="node38" class="node">
<title>Node42</title>
<g id="a_node38"><a xlink:href="transactionrecord_8cpp.html" target="_top" xlink:title="src/qt/transactionrecord.cpp">
<polygon fill="#ffffff" stroke="#000000" points="2604.5773,-280.5 2604.5773,-299.5 2742.5773,-299.5 2742.5773,-280.5 2604.5773,-280.5"/>
<text text-anchor="middle" x="2673.5773" y="-287.5" font-family="Helvetica,sans-Serif" font-size="10.00" fill="#000000">src/qt/transactionrecord.cpp</text>
</a>
</g>
</g>
<!-- Node5&#45;&gt;Node42 -->
<g id="edge51" class="edge">
<title>Node5&#45;&gt;Node42</title>
<path fill="none" stroke="#191970" d="M2381.0823,-337.8939C2443.1396,-327.7325 2549.3512,-310.3411 2615.2759,-299.5464"/>
<polygon fill="#191970" stroke="#191970" points="2380.4462,-334.4514 2371.1432,-339.5214 2381.5774,-341.3594 2380.4462,-334.4514"/>
</g>
<!-- Node43 -->
<g id="node39" class="node">
<title>Node43</title>
<g id="a_node39"><a xlink:href="timedata_8cpp.html" target="_top" xlink:title="src/timedata.cpp">
<polygon fill="#ffffff" stroke="#000000" points="2761.0773,-280.5 2761.0773,-299.5 2850.0773,-299.5 2850.0773,-280.5 2761.0773,-280.5"/>
<text text-anchor="middle" x="2805.5773" y="-287.5" font-family="Helvetica,sans-Serif" font-size="10.00" fill="#000000">src/timedata.cpp</text>
</a>
</g>
</g>
<!-- Node5&#45;&gt;Node43 -->
<g id="edge56" class="edge">
<title>Node5&#45;&gt;Node43</title>
<path fill="none" stroke="#191970" d="M2381.4989,-341.7377C2460.3365,-334.7355 2618.4013,-319.5966 2751.5773,-300 2754.5958,-299.5558 2757.7035,-299.0665 2760.8308,-298.5501"/>
<polygon fill="#191970" stroke="#191970" points="2381.0222,-338.266 2371.3685,-342.6313 2381.6374,-345.239 2381.0222,-338.266"/>
</g>
<!-- Node44 -->
<g id="node40" class="node">
<title>Node44</title>
<g id="a_node40"><a xlink:href="txmempool_8cpp.html" target="_top" xlink:title="src/txmempool.cpp">
<polygon fill="#ffffff" stroke="#000000" points="2868.5773,-280.5 2868.5773,-299.5 2968.5773,-299.5 2968.5773,-280.5 2868.5773,-280.5"/>
<text text-anchor="middle" x="2918.5773" y="-287.5" font-family="Helvetica,sans-Serif" font-size="10.00" fill="#000000">src/txmempool.cpp</text>
</a>
</g>
</g>
<!-- Node5&#45;&gt;Node44 -->
<g id="edge57" class="edge">
<title>Node5&#45;&gt;Node44</title>
<path fill="none" stroke="#191970" d="M2381.1468,-343.0259C2474.8496,-337.1059 2684.2963,-322.4522 2859.5773,-300 2862.4627,-299.6304 2865.4227,-299.222 2868.4065,-298.7878"/>
<polygon fill="#191970" stroke="#191970" points="2380.8663,-339.5365 2371.1046,-343.6548 2381.3039,-346.5228 2380.8663,-339.5365"/>
</g>
<!-- Node7 -->
<g id="node3" class="node">
<title>Node7</title>
<g id="a_node3"><a xlink:href="addrdb_8cpp.html" target="_top" xlink:title="src/addrdb.cpp">
<polygon fill="#ffffff" stroke="#000000" points="62.0773,-224.5 62.0773,-243.5 143.0773,-243.5 143.0773,-224.5 62.0773,-224.5"/>
<text text-anchor="middle" x="102.5773" y="-231.5" font-family="Helvetica,sans-Serif" font-size="10.00" fill="#000000">src/addrdb.cpp</text>
</a>
</g>
</g>
<!-- Node6&#45;&gt;Node7 -->
<g id="edge2" class="edge">
<title>Node6&#45;&gt;Node7</title>
<path fill="none" stroke="#191970" d="M209.2125,-276.6541C183.6821,-266.4419 149.0989,-252.6086 126.3301,-243.5011"/>
<polygon fill="#191970" stroke="#191970" points="207.9258,-279.909 218.5105,-280.3733 210.5256,-273.4096 207.9258,-279.909"/>
</g>
<!-- Node8 -->
<g id="node4" class="node">
<title>Node8</title>
<g id="a_node4"><a xlink:href="addrman_8cpp.html" target="_top" xlink:title="src/addrman.cpp">
<polygon fill="#ffffff" stroke="#000000" points="161.0773,-224.5 161.0773,-243.5 250.0773,-243.5 250.0773,-224.5 161.0773,-224.5"/>
<text text-anchor="middle" x="205.5773" y="-231.5" font-family="Helvetica,sans-Serif" font-size="10.00" fill="#000000">src/addrman.cpp</text>
</a>
</g>
</g>
<!-- Node6&#45;&gt;Node8 -->
<g id="edge3" class="edge">
<title>Node6&#45;&gt;Node8</title>
<path fill="none" stroke="#191970" d="M230.4397,-271.6296C224.2681,-262.2887 217.0207,-251.3197 211.9484,-243.6427"/>
<polygon fill="#191970" stroke="#191970" points="227.6996,-273.8316 236.1324,-280.2455 233.54,-269.9728 227.6996,-273.8316"/>
</g>
<!-- Node6&#45;&gt;Node9 -->
<g id="edge4" class="edge">
<title>Node6&#45;&gt;Node9</title>
<path fill="none" stroke="#191970" d="M192.6311,-283.5425C141.6281,-276.0648 66.8652,-262.3798 44.5773,-244 17.1439,-221.3769 4.3814,-200.1478 19.5773,-168 27.2124,-151.8476 43.6073,-139.4611 56.6949,-131.6324"/>
<polygon fill="#191970" stroke="#191970" points="192.4142,-287.047 202.8092,-284.9991 193.4059,-280.1176 192.4142,-287.047"/>
</g>
<!-- Node10 -->
<g id="node6" class="node">
<title>Node10</title>
<g id="a_node6"><a xlink:href="net_8h.html" target="_top" xlink:title="src/net.h">
<polygon fill="#ffffff" stroke="#000000" points="1350.0773,-224.5 1350.0773,-243.5 1405.0773,-243.5 1405.0773,-224.5 1350.0773,-224.5"/>
<text text-anchor="middle" x="1377.5773" y="-231.5" font-family="Helvetica,sans-Serif" font-size="10.00" fill="#000000">src/net.h</text>
</a>
</g>
</g>
<!-- Node6&#45;&gt;Node10 -->
<g id="edge5" class="edge">
<title>Node6&#45;&gt;Node10</title>
<path fill="none" stroke="#191970" d="M292.5833,-287.5327C488.3609,-277.8732 1199.396,-242.7913 1349.5938,-235.3807"/>
<polygon fill="#191970" stroke="#191970" points="292.1224,-284.0511 282.3071,-288.0398 292.4674,-291.0426 292.1224,-284.0511"/>
</g>
<!-- Node13 -->
<g id="node9" class="node">
<title>Node13</title>
<g id="a_node9"><a xlink:href="net__processing_8cpp.html" target="_top" xlink:title="src/net_processing.cpp">
<polygon fill="#ffffff" stroke="#000000" points="1279.5773,-112.5 1279.5773,-131.5 1397.5773,-131.5 1397.5773,-112.5 1279.5773,-112.5"/>
<text text-anchor="middle" x="1338.5773" y="-119.5" font-family="Helvetica,sans-Serif" font-size="10.00" fill="#000000">src/net_processing.cpp</text>
</a>
</g>
</g>
<!-- Node6&#45;&gt;Node13 -->
<g id="edge46" class="edge">
<title>Node6&#45;&gt;Node13</title>
<path fill="none" stroke="#191970" d="M254.7675,-271.7031C262.7349,-257.2376 269.7778,-237.3275 258.5773,-224 197.5355,-151.3655 -13.3017,-236.2776 52.5773,-168 74.1491,-145.6428 1029.6745,-127.4 1279.3839,-123.0084"/>
<polygon fill="#191970" stroke="#191970" points="251.7505,-269.9286 249.5807,-280.2989 257.7439,-273.5451 251.7505,-269.9286"/>
</g>
<!-- Node22 -->
<g id="node18" class="node">
<title>Node22</title>
<g id="a_node18"><a xlink:href="net_8cpp.html" target="_top" xlink:title="src/net.cpp">
<polygon fill="#ffffff" stroke="#000000" points="62.0773,-168.5 62.0773,-187.5 127.0773,-187.5 127.0773,-168.5 62.0773,-168.5"/>
<text text-anchor="middle" x="94.5773" y="-175.5" font-family="Helvetica,sans-Serif" font-size="10.00" fill="#000000">src/net.cpp</text>
</a>
</g>
</g>
<!-- Node6&#45;&gt;Node22 -->
<g id="edge45" class="edge">
<title>Node6&#45;&gt;Node22</title>
<path fill="none" stroke="#191970" d="M193.0087,-284.8892C142.673,-278.5555 69.7565,-265.8346 52.5773,-244 37.7127,-225.1071 63.4808,-200.7887 80.8002,-187.5789"/>
<polygon fill="#191970" stroke="#191970" points="192.7165,-288.3793 203.065,-286.1082 193.5589,-281.4302 192.7165,-288.3793"/>
</g>
<!-- Node40 -->
<g id="node36" class="node">
<title>Node40</title>
<g id="a_node36"><a xlink:href="db_8cpp.html" target="_top" xlink:title="src/wallet/db.cpp">
<polygon fill="#ffffff" stroke="#000000" points="1423.0773,-224.5 1423.0773,-243.5 1514.0773,-243.5 1514.0773,-224.5 1423.0773,-224.5"/>
<text text-anchor="middle" x="1468.5773" y="-231.5" font-family="Helvetica,sans-Serif" font-size="10.00" fill="#000000">src/wallet/db.cpp</text>
</a>
</g>
</g>
<!-- Node6&#45;&gt;Node40 -->
<g id="edge47" class="edge">
<title>Node6&#45;&gt;Node40</title>
<path fill="none" stroke="#191970" d="M292.4617,-288.9759C486.4978,-284.8474 1191.1656,-268.4649 1413.5773,-244 1416.6644,-243.6604 1419.839,-243.2495 1423.0311,-242.7904"/>
<polygon fill="#191970" stroke="#191970" points="292.2001,-285.4806 282.2764,-289.1913 292.3482,-292.479 292.2001,-285.4806"/>
</g>
<!-- Node10&#45;&gt;Node9 -->
<g id="edge7" class="edge">
<title>Node10&#45;&gt;Node9</title>
<path fill="none" stroke="#191970" d="M1339.9371,-233.775C1148.5039,-232.4686 287.5845,-224.5873 174.5773,-188 155.9075,-181.9554 110.4173,-148.5277 88.2024,-131.6933"/>
<polygon fill="#191970" stroke="#191970" points="1340.0441,-237.2757 1350.0671,-233.8422 1340.0906,-230.2759 1340.0441,-237.2757"/>
</g>
<!-- Node11 -->
<g id="node7" class="node">
<title>Node11</title>
<g id="a_node7"><a xlink:href="assets_2assets_8cpp.html" target="_top" xlink:title="src/assets/assets.cpp">
<polygon fill="#ffffff" stroke="#000000" points="1192.0773,-168.5 1192.0773,-187.5 1305.0773,-187.5 1305.0773,-168.5 1192.0773,-168.5"/>
<text text-anchor="middle" x="1248.5773" y="-175.5" font-family="Helvetica,sans-Serif" font-size="10.00" fill="#000000">src/assets/assets.cpp</text>
</a>
</g>
</g>
<!-- Node10&#45;&gt;Node11 -->
<g id="edge6" class="edge">
<title>Node10&#45;&gt;Node11</title>
<path fill="none" stroke="#191970" d="M1346.2103,-220.3833C1322.7489,-210.1985 1291.2588,-196.5284 1270.4638,-187.5011"/>
<polygon fill="#191970" stroke="#191970" points="1344.8347,-223.6017 1355.4014,-224.3733 1347.6222,-217.1806 1344.8347,-223.6017"/>
</g>
<!-- Node12 -->
<g id="node8" class="node">
<title>Node12</title>
<g id="a_node8"><a xlink:href="net__processing_8h.html" target="_top" xlink:title="src/net_processing.h">
<polygon fill="#ffffff" stroke="#000000" points="1540.0773,-168.5 1540.0773,-187.5 1647.0773,-187.5 1647.0773,-168.5 1540.0773,-168.5"/>
<text text-anchor="middle" x="1593.5773" y="-175.5" font-family="Helvetica,sans-Serif" font-size="10.00" fill="#000000">src/net_processing.h</text>
</a>
</g>
</g>
<!-- Node10&#45;&gt;Node12 -->
<g id="edge8" class="edge">
<title>Node10&#45;&gt;Node12</title>
<path fill="none" stroke="#191970" d="M1414.7988,-223.7077C1468.6776,-209.3922 1520.8278,-196.1814 1555.2434,-187.5515"/>
<polygon fill="#191970" stroke="#191970" points="1413.8405,-220.3409 1405.0787,-226.2975 1415.6427,-227.1049 1413.8405,-220.3409"/>
</g>
<!-- Node10&#45;&gt;Node13 -->
<g id="edge20" class="edge">
<title>Node10&#45;&gt;Node13</title>
<path fill="none" stroke="#191970" d="M1365.9226,-215.4859C1361.2041,-207.3151 1356.0595,-197.4389 1352.5773,-188 1345.4421,-168.6588 1341.5006,-144.7164 1339.734,-131.6412"/>
<polygon fill="#191970" stroke="#191970" points="1362.9887,-217.3987 1371.1409,-224.1659 1368.9881,-213.792 1362.9887,-217.3987"/>
</g>
<!-- Node14 -->
<g id="node10" class="node">
<title>Node14</title>
<g id="a_node10"><a xlink:href="peertablemodel_8h.html" target="_top" xlink:title="src/qt/peertablemodel.h">
<polygon fill="#ffffff" stroke="#000000" points="1620.0773,-112.5 1620.0773,-131.5 1739.0773,-131.5 1739.0773,-112.5 1620.0773,-112.5"/>
<text text-anchor="middle" x="1679.5773" y="-119.5" font-family="Helvetica,sans-Serif" font-size="10.00" fill="#000000">src/qt/peertablemodel.h</text>
</a>
</g>
</g>
<!-- Node10&#45;&gt;Node14 -->
<g id="edge27" class="edge">
<title>Node10&#45;&gt;Node14</title>
<path fill="none" stroke="#191970" d="M1415.2819,-224.161C1489.6077,-213.5995 1650.6003,-232.3911 1689.5773,-188 1703.3409,-172.3246 1692.8056,-146.0633 1685.3372,-131.8522"/>
<polygon fill="#191970" stroke="#191970" points="1414.6564,-220.717 1405.3912,-225.8557 1415.8386,-227.6165 1414.6564,-220.717"/>
</g>
<!-- Node15 -->
<g id="node11" class="node">
<title>Node15</title>
<g id="a_node11"><a xlink:href="clientmodel_8cpp.html" target="_top" xlink:title="src/qt/clientmodel.cpp">
<polygon fill="#ffffff" stroke="#000000" points="1509.0773,-56.5 1509.0773,-75.5 1622.0773,-75.5 1622.0773,-56.5 1509.0773,-56.5"/>
<text text-anchor="middle" x="1565.5773" y="-63.5" font-family="Helvetica,sans-Serif" font-size="10.00" fill="#000000">src/qt/clientmodel.cpp</text>
</a>
</g>
</g>
<!-- Node10&#45;&gt;Node15 -->
<g id="edge28" class="edge">
<title>Node10&#45;&gt;Node15</title>
<path fill="none" stroke="#191970" d="M1415.4331,-224.1126C1482.0273,-214.2272 1621.8761,-227.0855 1655.5773,-188 1661.3819,-181.268 1659.4279,-176.0116 1655.5773,-168 1644.4823,-144.9154 1627.984,-150.7885 1610.5773,-132 1593.8007,-113.8915 1578.5984,-89.0568 1570.8919,-75.6043"/>
<polygon fill="#191970" stroke="#191970" points="1414.6296,-220.7007 1405.4016,-225.9059 1415.8615,-227.5915 1414.6296,-220.7007"/>
</g>
<!-- Node17 -->
<g id="node13" class="node">
<title>Node17</title>
<g id="a_node13"><a xlink:href="rpcconsole_8h.html" target="_top" xlink:title="src/qt/rpcconsole.h">
<polygon fill="#ffffff" stroke="#000000" points="1787.5773,-56.5 1787.5773,-75.5 1887.5773,-75.5 1887.5773,-56.5 1787.5773,-56.5"/>
<text text-anchor="middle" x="1837.5773" y="-63.5" font-family="Helvetica,sans-Serif" font-size="10.00" fill="#000000">src/qt/rpcconsole.h</text>
</a>
</g>
</g>
<!-- Node10&#45;&gt;Node17 -->
<g id="edge31" class="edge">
<title>Node10&#45;&gt;Node17</title>
<path fill="none" stroke="#191970" d="M1415.2822,-223.9472C1544.9791,-200.508 1591.5979,-243.1607 1707.5773,-188 1751.5755,-167.0741 1750.9278,-145.2091 1786.5773,-112 1800.1878,-99.3213 1816.1487,-85.0132 1826.5414,-75.7696"/>
<polygon fill="#191970" stroke="#191970" points="1414.5544,-220.5228 1405.3867,-225.8337 1415.8653,-227.399 1414.5544,-220.5228"/>
</g>
<!-- Node10&#45;&gt;Node20 -->
<g id="edge37" class="edge">
<title>Node10&#45;&gt;Node20</title>
<path fill="none" stroke="#191970" d="M1415.2528,-223.9855C1570.3741,-197.1803 1625.2717,-251.5707 1765.5773,-188 1793.7835,-175.2201 1818.122,-146.7156 1829.5813,-131.6927"/>
<polygon fill="#191970" stroke="#191970" points="1414.5903,-220.5485 1405.3759,-225.7778 1415.8402,-227.436 1414.5903,-220.5485"/>
</g>
<!-- Node10&#45;&gt;Node21 -->
<g id="edge18" class="edge">
<title>Node10&#45;&gt;Node21</title>
<path fill="none" stroke="#191970" d="M1415.2222,-223.9579C1586.5553,-193.3026 1634.4328,-212.0117 1803.5773,-188 1808.0373,-187.3669 1812.695,-186.6097 1817.3114,-185.7993"/>
<polygon fill="#191970" stroke="#191970" points="1414.5828,-220.5167 1405.3708,-225.7501 1415.8358,-227.4036 1414.5828,-220.5167"/>
</g>
<!-- Node10&#45;&gt;Node22 -->
<g id="edge19" class="edge">
<title>Node10&#45;&gt;Node22</title>
<path fill="none" stroke="#191970" d="M1339.9646,-233.4749C1159.5991,-230.8232 382.1154,-217.8388 141.5773,-188 136.9411,-187.4249 132.0843,-186.6229 127.3251,-185.7207"/>
<polygon fill="#191970" stroke="#191970" points="1339.9738,-236.9753 1350.0236,-233.6211 1340.0756,-229.9761 1339.9738,-236.9753"/>
</g>
<!-- Node23 -->
<g id="node19" class="node">
<title>Node23</title>
<g id="a_node19"><a xlink:href="netmessagemaker_8h.html" target="_top" xlink:title="src/netmessagemaker.h">
<polygon fill="#ffffff" stroke="#000000" points="1361.5773,-168.5 1361.5773,-187.5 1483.5773,-187.5 1483.5773,-168.5 1361.5773,-168.5"/>
<text text-anchor="middle" x="1422.5773" y="-175.5" font-family="Helvetica,sans-Serif" font-size="10.00" fill="#000000">src/netmessagemaker.h</text>
</a>
</g>
</g>
<!-- Node10&#45;&gt;Node23 -->
<g id="edge21" class="edge">
<title>Node10&#45;&gt;Node23</title>
<path fill="none" stroke="#191970" d="M1391.8719,-216.2112C1399.4769,-206.7472 1408.5312,-195.4797 1414.8287,-187.6427"/>
<polygon fill="#191970" stroke="#191970" points="1388.9514,-214.2581 1385.4157,-224.2455 1394.408,-218.6428 1388.9514,-214.2581"/>
</g>
<!-- Node24 -->
<g id="node20" class="node">
<title>Node24</title>
<g id="a_node20"><a xlink:href="bantablemodel_8h.html" target="_top" xlink:title="src/qt/bantablemodel.h">
<polygon fill="#ffffff" stroke="#000000" points="1437.5773,-112.5 1437.5773,-131.5 1553.5773,-131.5 1553.5773,-112.5 1437.5773,-112.5"/>
<text text-anchor="middle" x="1495.5773" y="-119.5" font-family="Helvetica,sans-Serif" font-size="10.00" fill="#000000">src/qt/bantablemodel.h</text>
</a>
</g>
</g>
<!-- Node10&#45;&gt;Node24 -->
<g id="edge23" class="edge">
<title>Node10&#45;&gt;Node24</title>
<path fill="none" stroke="#191970" d="M1414.6411,-221.4317C1446.3862,-210.3066 1487.7372,-194.8105 1492.5773,-188 1504.5375,-171.1708 1501.1618,-145.3782 1498.1034,-131.5472"/>
<polygon fill="#191970" stroke="#191970" points="1413.4461,-218.1416 1405.1486,-224.7296 1415.7434,-224.7539 1413.4461,-218.1416"/>
</g>
<!-- Node26 -->
<g id="node22" class="node">
<title>Node26</title>
<g id="a_node22"><a xlink:href="optionsmodel_8cpp.html" target="_top" xlink:title="src/qt/optionsmodel.cpp">
<polygon fill="#ffffff" stroke="#000000" points="184.0773,-168.5 184.0773,-187.5 305.0773,-187.5 305.0773,-168.5 184.0773,-168.5"/>
<text text-anchor="middle" x="244.5773" y="-175.5" font-family="Helvetica,sans-Serif" font-size="10.00" fill="#000000">src/qt/optionsmodel.cpp</text>
</a>
</g>
</g>
<!-- Node10&#45;&gt;Node26 -->
<g id="edge29" class="edge">
<title>Node10&#45;&gt;Node26</title>
<path fill="none" stroke="#191970" d="M1339.9429,-233.7425C1202.4058,-232.5107 714.1145,-225.5863 313.5773,-188 310.8055,-187.7399 307.9748,-187.4458 305.1181,-187.1259"/>
<polygon fill="#191970" stroke="#191970" points="1339.941,-237.2425 1349.9703,-233.8276 1340.0004,-230.2427 1339.941,-237.2425"/>
</g>
<!-- Node27 -->
<g id="node23" class="node">
<title>Node27</title>
<g id="a_node23"><a xlink:href="raven_8cpp.html" target="_top" xlink:title="src/qt/raven.cpp">
<polygon fill="#ffffff" stroke="#000000" points="323.0773,-168.5 323.0773,-187.5 410.0773,-187.5 410.0773,-168.5 323.0773,-168.5"/>
<text text-anchor="middle" x="366.5773" y="-175.5" font-family="Helvetica,sans-Serif" font-size="10.00" fill="#000000">src/qt/raven.cpp</text>
</a>
</g>
</g>
<!-- Node10&#45;&gt;Node27 -->
<g id="edge30" class="edge">
<title>Node10&#45;&gt;Node27</title>
<path fill="none" stroke="#191970" d="M1339.3609,-232.8934C1184.292,-228.2906 601.6204,-209.8779 418.5773,-188 415.8389,-187.6727 413.0281,-187.2848 410.1996,-186.8549"/>
<polygon fill="#191970" stroke="#191970" points="1339.6766,-236.4041 1349.7755,-233.2007 1339.8832,-229.4072 1339.6766,-236.4041"/>
</g>
<!-- Node28 -->
<g id="node24" class="node">
<title>Node28</title>
<g id="a_node24"><a xlink:href="walletmodel_8cpp.html" target="_top" xlink:title="src/qt/walletmodel.cpp">
<polygon fill="#ffffff" stroke="#000000" points="428.0773,-168.5 428.0773,-187.5 543.0773,-187.5 543.0773,-168.5 428.0773,-168.5"/>
<text text-anchor="middle" x="485.5773" y="-175.5" font-family="Helvetica,sans-Serif" font-size="10.00" fill="#000000">src/qt/walletmodel.cpp</text>
</a>
</g>
</g>
<!-- Node10&#45;&gt;Node28 -->
<g id="edge32" class="edge">
<title>Node10&#45;&gt;Node28</title>
<path fill="none" stroke="#191970" d="M1339.8158,-233.1701C1222.5956,-230.3215 854.6309,-219.326 551.5773,-188 548.8107,-187.714 545.9827,-187.3938 543.1292,-187.0482"/>
<polygon fill="#191970" stroke="#191970" points="1339.971,-236.6747 1350.0514,-233.4135 1340.1374,-229.6767 1339.971,-236.6747"/>
</g>
<!-- Node10&#45;&gt;Node29 -->
<g id="edge33" class="edge">
<title>Node10&#45;&gt;Node29</title>
<path fill="none" stroke="#191970" d="M1415.3717,-223.9706C1630.0674,-187.4873 1689.5526,-214.1428 1902.5773,-188 1905.4171,-187.6515 1908.3295,-187.2596 1911.2646,-186.838"/>
<polygon fill="#191970" stroke="#191970" points="1414.6206,-220.5484 1405.3614,-225.6979 1415.811,-227.4464 1414.6206,-220.5484"/>
</g>
<!-- Node10&#45;&gt;Node30 -->
<g id="edge34" class="edge">
<title>Node10&#45;&gt;Node30</title>
<path fill="none" stroke="#191970" d="M1415.2962,-224.0121C1681.0479,-180.5871 1753.9637,-215.861 2018.5773,-188 2021.5739,-187.6845 2024.6426,-187.3299 2027.7379,-186.9475"/>
<polygon fill="#191970" stroke="#191970" points="1414.6485,-220.5716 1405.3547,-225.6583 1415.7922,-227.4776 1414.6485,-220.5716"/>
</g>
<!-- Node31 -->
<g id="node27" class="node">
<title>Node31</title>
<g id="a_node27"><a xlink:href="mining_8cpp.html" target="_top" xlink:title="src/rpc/mining.cpp">
<polygon fill="#ffffff" stroke="#000000" points="561.0773,-168.5 561.0773,-187.5 658.0773,-187.5 658.0773,-168.5 561.0773,-168.5"/>
<text text-anchor="middle" x="609.5773" y="-175.5" font-family="Helvetica,sans-Serif" font-size="10.00" fill="#000000">src/rpc/mining.cpp</text>
</a>
</g>
</g>
<!-- Node10&#45;&gt;Node31 -->
<g id="edge35" class="edge">
<title>Node10&#45;&gt;Node31</title>
<path fill="none" stroke="#191970" d="M1339.8652,-232.9647C1233.7131,-229.7475 923.445,-218.2598 667.5773,-188 664.5331,-187.64 661.4059,-187.227 658.2569,-186.7785"/>
<polygon fill="#191970" stroke="#191970" points="1339.97,-236.4693 1350.0694,-233.2673 1340.1775,-229.4723 1339.97,-236.4693"/>
</g>
<!-- Node10&#45;&gt;Node32 -->
<g id="edge36" class="edge">
<title>Node10&#45;&gt;Node32</title>
<path fill="none" stroke="#191970" d="M1415.4724,-224.0081C1738.718,-172.9507 1827.6114,-225.514 2149.5773,-188 2152.6078,-187.6469 2155.7245,-187.2258 2158.8583,-186.7593"/>
<polygon fill="#191970" stroke="#191970" points="1414.6708,-220.5918 1405.3498,-225.6286 1415.7774,-227.5038 1414.6708,-220.5918"/>
</g>
<!-- Node33 -->
<g id="node29" class="node">
<title>Node33</title>
<g id="a_node29"><a xlink:href="rawtransaction_8cpp.html" target="_top" xlink:title="src/rpc/rawtransaction.cpp">
<polygon fill="#ffffff" stroke="#000000" points="676.5773,-168.5 676.5773,-187.5 808.5773,-187.5 808.5773,-168.5 676.5773,-168.5"/>
<text text-anchor="middle" x="742.5773" y="-175.5" font-family="Helvetica,sans-Serif" font-size="10.00" fill="#000000">src/rpc/rawtransaction.cpp</text>
</a>
</g>
</g>
<!-- Node10&#45;&gt;Node33 -->
<g id="edge38" class="edge">
<title>Node10&#45;&gt;Node33</title>
<path fill="none" stroke="#191970" d="M1339.8157,-231.5605C1249.4623,-225.5791 1013.7305,-209.1195 817.5773,-188 814.704,-187.6906 811.7706,-187.3606 808.8088,-187.0157"/>
<polygon fill="#191970" stroke="#191970" points="1339.6444,-235.0567 1349.8528,-232.2213 1340.1044,-228.0718 1339.6444,-235.0567"/>
</g>
<!-- Node34 -->
<g id="node30" class="node">
<title>Node34</title>
<g id="a_node30"><a xlink:href="torcontrol_8cpp.html" target="_top" xlink:title="src/torcontrol.cpp">
<polygon fill="#ffffff" stroke="#000000" points="826.5773,-168.5 826.5773,-187.5 918.5773,-187.5 918.5773,-168.5 826.5773,-168.5"/>
<text text-anchor="middle" x="872.5773" y="-175.5" font-family="Helvetica,sans-Serif" font-size="10.00" fill="#000000">src/torcontrol.cpp</text>
</a>
</g>
</g>
<!-- Node10&#45;&gt;Node34 -->
<g id="edge39" class="edge">
<title>Node10&#45;&gt;Node34</title>
<path fill="none" stroke="#191970" d="M1339.5896,-231.1234C1261.9607,-225.0233 1079.6276,-209.5607 927.5773,-188 924.6946,-187.5912 921.7322,-187.1409 918.7484,-186.6645"/>
<polygon fill="#191970" stroke="#191970" points="1339.5928,-234.6341 1349.8345,-231.9216 1340.1366,-227.6553 1339.5928,-234.6341"/>
</g>
<!-- Node10&#45;&gt;Node35 -->
<g id="edge40" class="edge">
<title>Node10&#45;&gt;Node35</title>
<path fill="none" stroke="#191970" d="M1415.2664,-224.053C1785.7602,-166.5449 1887.0993,-228.6928 2256.5773,-188 2259.6205,-187.6648 2262.7478,-187.2642 2265.8943,-186.8189"/>
<polygon fill="#191970" stroke="#191970" points="1414.6827,-220.6016 1405.347,-225.6111 1415.769,-227.5169 1414.6827,-220.6016"/>
</g>
<!-- Node36 -->
<g id="node32" class="node">
<title>Node36</title>
<g id="a_node32"><a xlink:href="feebumper_8cpp.html" target="_top" xlink:title="src/wallet/feebumper.cpp">
<polygon fill="#ffffff" stroke="#000000" points="936.5773,-168.5 936.5773,-187.5 1062.5773,-187.5 1062.5773,-168.5 936.5773,-168.5"/>
<text text-anchor="middle" x="999.5773" y="-175.5" font-family="Helvetica,sans-Serif" font-size="10.00" fill="#000000">src/wallet/feebumper.cpp</text>
</a>
</g>
</g>
<!-- Node10&#45;&gt;Node36 -->
<g id="edge41" class="edge">
<title>Node10&#45;&gt;Node36</title>
<path fill="none" stroke="#191970" d="M1339.6006,-228.3738C1274.7303,-218.7634 1141.9377,-199.0904 1062.8635,-187.3757"/>
<polygon fill="#191970" stroke="#191970" points="1339.3771,-231.8788 1349.7821,-229.8822 1340.403,-224.9544 1339.3771,-231.8788"/>
</g>
<!-- Node37 -->
<g id="node33" class="node">
<title>Node37</title>
<g id="a_node33"><a xlink:href="wallet_2init_8cpp.html" target="_top" xlink:title="src/wallet/init.cpp">
<polygon fill="#ffffff" stroke="#000000" points="1081.0773,-168.5 1081.0773,-187.5 1174.0773,-187.5 1174.0773,-168.5 1081.0773,-168.5"/>
<text text-anchor="middle" x="1127.5773" y="-175.5" font-family="Helvetica,sans-Serif" font-size="10.00" fill="#000000">src/wallet/init.cpp</text>
</a>
</g>
</g>
<!-- Node10&#45;&gt;Node37 -->
<g id="edge42" class="edge">
<title>Node10&#45;&gt;Node37</title>
<path fill="none" stroke="#191970" d="M1340.0826,-225.6012C1294.4831,-215.3869 1217.7095,-198.1896 1169.9931,-187.5011"/>
<polygon fill="#191970" stroke="#191970" points="1339.3445,-229.0225 1349.8678,-227.7931 1340.8746,-222.1918 1339.3445,-229.0225"/>
</g>
<!-- Node10&#45;&gt;Node38 -->
<g id="edge43" class="edge">
<title>Node10&#45;&gt;Node38</title>
<path fill="none" stroke="#191970" d="M1415.3067,-224.0555C1834.6079,-159.8276 1948.3255,-226.1822 2367.5773,-188 2370.5909,-187.7255 2373.674,-187.4093 2376.7842,-187.0621"/>
<polygon fill="#191970" stroke="#191970" points="1414.6919,-220.6089 1405.3448,-225.5971 1415.7625,-227.5266 1414.6919,-220.6089"/>
</g>
<!-- Node10&#45;&gt;Node39 -->
<g id="edge44" class="edge">
<title>Node10&#45;&gt;Node39</title>
<path fill="none" stroke="#191970" d="M1415.2963,-224.0673C1894.9121,-151.6931 2024.9229,-233.8021 2504.5773,-188 2507.7744,-187.6947 2511.0555,-187.3303 2514.3607,-186.924"/>
<polygon fill="#191970" stroke="#191970" points="1414.7015,-220.6174 1405.3428,-225.5838 1415.7559,-227.5375 1414.7015,-220.6174"/>
</g>
<!-- Node12&#45;&gt;Node9 -->
<g id="edge9" class="edge">
<title>Node12&#45;&gt;Node9</title>
<path fill="none" stroke="#191970" d="M1529.7085,-171.0304C1517.3987,-169.87 1504.5967,-168.7892 1492.5773,-168 939.6532,-131.6928 263.3906,-123.6689 108.3114,-122.2616"/>
<polygon fill="#191970" stroke="#191970" points="1529.6137,-174.5375 1539.9049,-172.0191 1530.2894,-167.5702 1529.6137,-174.5375"/>
</g>
<!-- Node12&#45;&gt;Node13 -->
<g id="edge10" class="edge">
<title>Node12&#45;&gt;Node13</title>
<path fill="none" stroke="#191970" d="M1540.0386,-166.2425C1493.0626,-155.9262 1425.6119,-141.1135 1381.944,-131.5237"/>
<polygon fill="#191970" stroke="#191970" points="1539.513,-169.7104 1550.031,-168.4369 1541.0145,-162.8733 1539.513,-169.7104"/>
</g>
<!-- Node12&#45;&gt;Node14 -->
<g id="edge11" class="edge">
<title>Node12&#45;&gt;Node14</title>
<path fill="none" stroke="#191970" d="M1616.9678,-162.769C1632.2072,-152.8456 1651.6283,-140.1994 1664.7689,-131.6427"/>
<polygon fill="#191970" stroke="#191970" points="1615.0275,-159.8558 1608.5574,-168.2455 1618.8472,-165.7218 1615.0275,-159.8558"/>
</g>
<!-- Node12&#45;&gt;Node20 -->
<g id="edge17" class="edge">
<title>Node12&#45;&gt;Node20</title>
<path fill="none" stroke="#191970" d="M1644.8784,-166.1775C1689.6313,-155.8641 1753.7257,-141.0934 1795.2514,-131.5237"/>
<polygon fill="#191970" stroke="#191970" points="1644.033,-162.7805 1635.0744,-168.4369 1645.605,-169.6017 1644.033,-162.7805"/>
</g>
<!-- Node14&#45;&gt;Node15 -->
<g id="edge12" class="edge">
<title>Node14&#45;&gt;Node15</title>
<path fill="none" stroke="#191970" d="M1650.7452,-107.8368C1630.1378,-97.7139 1602.9692,-84.3679 1584.9189,-75.5011"/>
<polygon fill="#191970" stroke="#191970" points="1649.4613,-111.1056 1659.98,-112.3733 1652.5477,-104.8227 1649.4613,-111.1056"/>
</g>
<!-- Node16 -->
<g id="node12" class="node">
<title>Node16</title>
<g id="a_node12"><a xlink:href="peertablemodel_8cpp.html" target="_top" xlink:title="src/qt/peertablemodel.cpp">
<polygon fill="#ffffff" stroke="#000000" points="1640.0773,-56.5 1640.0773,-75.5 1769.0773,-75.5 1769.0773,-56.5 1640.0773,-56.5"/>
<text text-anchor="middle" x="1704.5773" y="-63.5" font-family="Helvetica,sans-Serif" font-size="10.00" fill="#000000">src/qt/peertablemodel.cpp</text>
</a>
</g>
</g>
<!-- Node14&#45;&gt;Node16 -->
<g id="edge13" class="edge">
<title>Node14&#45;&gt;Node16</title>
<path fill="none" stroke="#191970" d="M1688.04,-103.0437C1692.1518,-93.8331 1696.9167,-83.1598 1700.2726,-75.6427"/>
<polygon fill="#191970" stroke="#191970" points="1684.8126,-101.6874 1683.932,-112.2455 1691.2045,-104.541 1684.8126,-101.6874"/>
</g>
<!-- Node14&#45;&gt;Node17 -->
<g id="edge14" class="edge">
<title>Node14&#45;&gt;Node17</title>
<path fill="none" stroke="#191970" d="M1716.4728,-108.9231C1745.356,-98.686 1784.8479,-84.6889 1810.7706,-75.5011"/>
<polygon fill="#191970" stroke="#191970" points="1714.9947,-105.7336 1706.7385,-112.3733 1717.3332,-112.3314 1714.9947,-105.7336"/>
</g>
<!-- Node18 -->
<g id="node14" class="node">
<title>Node18</title>
<g id="a_node14"><a xlink:href="ravengui_8cpp.html" target="_top" xlink:title="src/qt/ravengui.cpp">
<polygon fill="#ffffff" stroke="#000000" points="1787.5773,-.5 1787.5773,-19.5 1887.5773,-19.5 1887.5773,-.5 1787.5773,-.5"/>
<text text-anchor="middle" x="1837.5773" y="-7.5" font-family="Helvetica,sans-Serif" font-size="10.00" fill="#000000">src/qt/ravengui.cpp</text>
</a>
</g>
</g>
<!-- Node17&#45;&gt;Node18 -->
<g id="edge15" class="edge">
<title>Node17&#45;&gt;Node18</title>
<path fill="none" stroke="#191970" d="M1837.5773,-46.1575C1837.5773,-37.155 1837.5773,-26.9199 1837.5773,-19.6427"/>
<polygon fill="#191970" stroke="#191970" points="1834.0774,-46.2455 1837.5773,-56.2455 1841.0774,-46.2456 1834.0774,-46.2455"/>
</g>
<!-- Node19 -->
<g id="node15" class="node">
<title>Node19</title>
<g id="a_node15"><a xlink:href="rpcconsole_8cpp.html" target="_top" xlink:title="src/qt/rpcconsole.cpp">
<polygon fill="#ffffff" stroke="#000000" points="1470.5773,-.5 1470.5773,-19.5 1580.5773,-19.5 1580.5773,-.5 1470.5773,-.5"/>
<text text-anchor="middle" x="1525.5773" y="-7.5" font-family="Helvetica,sans-Serif" font-size="10.00" fill="#000000">src/qt/rpcconsole.cpp</text>
</a>
</g>
</g>
<!-- Node17&#45;&gt;Node19 -->
<g id="edge16" class="edge">
<title>Node17&#45;&gt;Node19</title>
<path fill="none" stroke="#191970" d="M1777.3984,-55.1986C1719.8214,-44.8643 1633.8199,-29.4282 1578.7138,-19.5373"/>
<polygon fill="#191970" stroke="#191970" points="1776.9881,-58.6809 1787.4491,-57.0026 1778.2248,-51.791 1776.9881,-58.6809"/>
</g>
<!-- Node23&#45;&gt;Node13 -->
<g id="edge22" class="edge">
<title>Node23&#45;&gt;Node13</title>
<path fill="none" stroke="#191970" d="M1399.3124,-162.49C1384.4918,-152.6096 1365.7564,-140.1194 1353.0413,-131.6427"/>
<polygon fill="#191970" stroke="#191970" points="1397.6837,-165.6107 1407.9456,-168.2455 1401.5666,-159.7863 1397.6837,-165.6107"/>
</g>
<!-- Node24&#45;&gt;Node15 -->
<g id="edge25" class="edge">
<title>Node24&#45;&gt;Node15</title>
<path fill="none" stroke="#191970" d="M1515.6673,-105.928C1527.9027,-96.1397 1543.128,-83.9595 1553.524,-75.6427"/>
<polygon fill="#191970" stroke="#191970" points="1513.3927,-103.2655 1507.7704,-112.2455 1517.7655,-108.7316 1513.3927,-103.2655"/>
</g>
<!-- Node24&#45;&gt;Node19 -->
<g id="edge26" class="edge">
<title>Node24&#45;&gt;Node19</title>
<path fill="none" stroke="#191970" d="M1427.5859,-113.2761C1381.0076,-104.3741 1331.6391,-87.2765 1355.5773,-56 1369.6076,-37.6687 1426.2322,-24.9585 1470.3218,-17.616"/>
<polygon fill="#191970" stroke="#191970" points="1426.9934,-116.7256 1437.4554,-115.0534 1428.2341,-109.8364 1426.9934,-116.7256"/>
</g>
<!-- Node25 -->
<g id="node21" class="node">
<title>Node25</title>
<g id="a_node21"><a xlink:href="bantablemodel_8cpp.html" target="_top" xlink:title="src/qt/bantablemodel.cpp">
<polygon fill="#ffffff" stroke="#000000" points="1364.5773,-56.5 1364.5773,-75.5 1490.5773,-75.5 1490.5773,-56.5 1364.5773,-56.5"/>
<text text-anchor="middle" x="1427.5773" y="-63.5" font-family="Helvetica,sans-Serif" font-size="10.00" fill="#000000">src/qt/bantablemodel.cpp</text>
</a>
</g>
</g>
<!-- Node24&#45;&gt;Node25 -->
<g id="edge24" class="edge">
<title>Node24&#45;&gt;Node25</title>
<path fill="none" stroke="#191970" d="M1475.7177,-105.645C1463.8916,-95.9058 1449.2882,-83.8795 1439.2863,-75.6427"/>
<polygon fill="#191970" stroke="#191970" points="1473.7883,-108.5902 1483.7326,-112.2455 1478.2383,-103.1867 1473.7883,-108.5902"/>
</g>
</g>
</svg>
