<?xml version="1.0" encoding="UTF-8" standalone="no"?>
<!DOCTYPE svg PUBLIC "-//W3C//DTD SVG 1.1//EN"
 "http://www.w3.org/Graphics/SVG/1.1/DTD/svg11.dtd">
<!-- Generated by graphviz version 2.40.1 (20161225.0304)
 -->
<!-- Title: src/qt/transactiondesc.h Pages: 1 -->
<svg width="316pt" height="84pt"
 viewBox="0.00 0.00 316.00 84.00" xmlns="http://www.w3.org/2000/svg" xmlns:xlink="http://www.w3.org/1999/xlink">
<g id="graph0" class="graph" transform="scale(1 1) rotate(0) translate(4 80)">
<title>src/qt/transactiondesc.h</title>
<polygon fill="#ffffff" stroke="transparent" points="-4,4 -4,-80 312,-80 312,4 -4,4"/>
<!-- Node3 -->
<g id="node1" class="node">
<title>Node3</title>
<polygon fill="#bfbfbf" stroke="#000000" points="86,-56.5 86,-75.5 208,-75.5 208,-56.5 86,-56.5"/>
<text text-anchor="middle" x="147" y="-63.5" font-family="Helvetica,sans-Serif" font-size="10.00" fill="#000000">src/qt/transactiondesc.h</text>
</g>
<!-- Node4 -->
<g id="node2" class="node">
<title>Node4</title>
<g id="a_node2"><a xlink:href="transactiondesc_8cpp.html" target="_top" xlink:title="src/qt/transactiondesc.cpp">
<polygon fill="#ffffff" stroke="#000000" points="0,-.5 0,-19.5 132,-19.5 132,-.5 0,-.5"/>
<text text-anchor="middle" x="66" y="-7.5" font-family="Helvetica,sans-Serif" font-size="10.00" fill="#000000">src/qt/transactiondesc.cpp</text>
</a>
</g>
</g>
<!-- Node3&#45;&gt;Node4 -->
<g id="edge1" class="edge">
<title>Node3&#45;&gt;Node4</title>
<path fill="none" stroke="#191970" d="M124.566,-50.49C110.2746,-40.6096 92.2084,-28.1194 79.9474,-19.6427"/>
<polygon fill="#191970" stroke="#191970" points="122.6749,-53.4376 132.8909,-56.2455 126.6557,-47.6797 122.6749,-53.4376"/>
</g>
<!-- Node5 -->
<g id="node3" class="node">
<title>Node5</title>
<g id="a_node3"><a xlink:href="transactiontablemodel_8cpp.html" target="_top" xlink:title="src/qt/transactiontablemodel.cpp">
<polygon fill="#ffffff" stroke="#000000" points="150,-.5 150,-19.5 308,-19.5 308,-.5 150,-.5"/>
<text text-anchor="middle" x="229" y="-7.5" font-family="Helvetica,sans-Serif" font-size="10.00" fill="#000000">src/qt/transactiontablemodel.cpp</text>
</a>
</g>
</g>
<!-- Node3&#45;&gt;Node5 -->
<g id="edge2" class="edge">
<title>Node3&#45;&gt;Node5</title>
<path fill="none" stroke="#191970" d="M169.711,-50.49C184.1788,-40.6096 202.468,-28.1194 214.8804,-19.6427"/>
<polygon fill="#191970" stroke="#191970" points="167.5675,-47.7156 161.2833,-56.2455 171.5152,-53.4962 167.5675,-47.7156"/>
</g>
</g>
</svg>
