<?xml version="1.0" encoding="UTF-8" standalone="no"?>
<!DOCTYPE svg PUBLIC "-//W3C//DTD SVG 1.1//EN"
 "http://www.w3.org/Graphics/SVG/1.1/DTD/svg11.dtd">
<!-- Generated by graphviz version 2.40.1 (20161225.0304)
 -->
<!-- Title: src/txmempool.cpp Pages: 1 -->
<svg width="3508pt" height="319pt"
 viewBox="0.00 0.00 3507.91 319.00" xmlns="http://www.w3.org/2000/svg" xmlns:xlink="http://www.w3.org/1999/xlink">
<g id="graph0" class="graph" transform="scale(1 1) rotate(0) translate(4 315)">
<title>src/txmempool.cpp</title>
<polygon fill="#ffffff" stroke="transparent" points="-4,4 -4,-315 3503.9078,-315 3503.9078,4 -4,4"/>
<!-- Node0 -->
<g id="node1" class="node">
<title>Node0</title>
<polygon fill="#bfbfbf" stroke="#000000" points="1704.9078,-291.5 1704.9078,-310.5 1804.9078,-310.5 1804.9078,-291.5 1704.9078,-291.5"/>
<text text-anchor="middle" x="1754.9078" y="-298.5" font-family="Helvetica,sans-Serif" font-size="10.00" fill="#000000">src/txmempool.cpp</text>
</g>
<!-- Node1 -->
<g id="node2" class="node">
<title>Node1</title>
<g id="a_node2"><a xlink:href="txmempool_8h.html" target="_top" xlink:title="txmempool.h">
<polygon fill="#ffffff" stroke="#000000" points="1896.4078,-235.5 1896.4078,-254.5 1969.4078,-254.5 1969.4078,-235.5 1896.4078,-235.5"/>
<text text-anchor="middle" x="1932.9078" y="-242.5" font-family="Helvetica,sans-Serif" font-size="10.00" fill="#000000">txmempool.h</text>
</a>
</g>
</g>
<!-- Node0&#45;&gt;Node1 -->
<g id="edge1" class="edge">
<title>Node0&#45;&gt;Node1</title>
<path fill="none" stroke="#191970" d="M1785.5071,-291.3733C1815.2339,-282.021 1860.5237,-267.7725 1893.0534,-257.5385"/>
<polygon fill="#191970" stroke="#191970" points="1894.2191,-260.8409 1902.7078,-254.5011 1892.1184,-254.1636 1894.2191,-260.8409"/>
</g>
<!-- Node39 -->
<g id="node15" class="node">
<title>Node39</title>
<g id="a_node15"><a xlink:href="hash_8h.html" target="_top" xlink:title="hash.h">
<polygon fill="#ffffff" stroke="#ff0000" points="1596.9078,-112.5 1596.9078,-131.5 1642.9078,-131.5 1642.9078,-112.5 1596.9078,-112.5"/>
<text text-anchor="middle" x="1619.9078" y="-119.5" font-family="Helvetica,sans-Serif" font-size="10.00" fill="#000000">hash.h</text>
</a>
</g>
</g>
<!-- Node0&#45;&gt;Node39 -->
<g id="edge132" class="edge">
<title>Node0&#45;&gt;Node39</title>
<path fill="none" stroke="#191970" d="M1725.7557,-291.4393C1688.9666,-277.613 1627.3111,-248.1575 1600.9078,-199 1590.9802,-180.5169 1599.6021,-156.757 1608.2087,-140.5502"/>
<polygon fill="#191970" stroke="#191970" points="1611.4353,-141.9611 1613.3996,-131.5499 1605.3716,-138.4638 1611.4353,-141.9611"/>
</g>
<!-- Node119 -->
<g id="node29" class="node">
<title>Node119</title>
<g id="a_node29"><a xlink:href="consensus_8h.html" target="_top" xlink:title="consensus/consensus.h">
<polygon fill="#ffffff" stroke="#000000" points="3174.9078,-112.5 3174.9078,-131.5 3296.9078,-131.5 3296.9078,-112.5 3174.9078,-112.5"/>
<text text-anchor="middle" x="3235.9078" y="-119.5" font-family="Helvetica,sans-Serif" font-size="10.00" fill="#000000">consensus/consensus.h</text>
</a>
</g>
</g>
<!-- Node0&#45;&gt;Node119 -->
<g id="edge45" class="edge">
<title>Node0&#45;&gt;Node119</title>
<path fill="none" stroke="#191970" d="M1804.9295,-300.6666C2042.6919,-298.9111 3052.7012,-289.4686 3188.9078,-255 3242.8603,-241.3467 3271.6492,-246.3415 3300.9078,-199 3308.1512,-187.2799 3307.2391,-180.2369 3300.9078,-168 3293.8532,-154.365 3280.6883,-143.9036 3268.0415,-136.4282"/>
<polygon fill="#191970" stroke="#191970" points="3269.4744,-133.2231 3259.019,-131.5099 3266.1241,-139.3692 3269.4744,-133.2231"/>
</g>
<!-- Node120 -->
<g id="node31" class="node">
<title>Node120</title>
<g id="a_node31"><a xlink:href="tx__verify_8h.html" target="_top" xlink:title="consensus/tx_verify.h">
<polygon fill="#ffffff" stroke="#000000" points="2029.4078,-112.5 2029.4078,-131.5 2142.4078,-131.5 2142.4078,-112.5 2029.4078,-112.5"/>
<text text-anchor="middle" x="2085.9078" y="-119.5" font-family="Helvetica,sans-Serif" font-size="10.00" fill="#000000">consensus/tx_verify.h</text>
</a>
</g>
</g>
<!-- Node0&#45;&gt;Node120 -->
<g id="edge48" class="edge">
<title>Node0&#45;&gt;Node120</title>
<path fill="none" stroke="#191970" d="M1805.0504,-300.1084C2007.7684,-295.9947 2759.2014,-275.6403 2828.9078,-199 2838.1782,-188.8075 2838.3444,-178.0389 2828.9078,-168 2805.9108,-143.5352 2330.5122,-128.4746 2152.4583,-123.6739"/>
<polygon fill="#191970" stroke="#191970" points="2152.5205,-120.1744 2142.4305,-123.4059 2152.3334,-127.1719 2152.5205,-120.1744"/>
</g>
<!-- Node121 -->
<g id="node32" class="node">
<title>Node121</title>
<g id="a_node32"><a xlink:href="consensus_2validation_8h.html" target="_top" xlink:title="consensus/validation.h">
<polygon fill="#ffffff" stroke="#000000" points="3034.9078,-235.5 3034.9078,-254.5 3150.9078,-254.5 3150.9078,-235.5 3034.9078,-235.5"/>
<text text-anchor="middle" x="3092.9078" y="-242.5" font-family="Helvetica,sans-Serif" font-size="10.00" fill="#000000">consensus/validation.h</text>
</a>
</g>
</g>
<!-- Node0&#45;&gt;Node121 -->
<g id="edge54" class="edge">
<title>Node0&#45;&gt;Node121</title>
<path fill="none" stroke="#191970" d="M1804.9903,-299.7023C1969.7366,-295.3008 2509.8047,-279.8169 2955.9078,-255 2978.2108,-253.7593 3002.5334,-252.0878 3024.4121,-250.4668"/>
<polygon fill="#191970" stroke="#191970" points="3024.8951,-253.9405 3034.6054,-249.7024 3024.3716,-246.9601 3024.8951,-253.9405"/>
</g>
<!-- Node122 -->
<g id="node34" class="node">
<title>Node122</title>
<g id="a_node34"><a xlink:href="validation_8h.html" target="_top" xlink:title="validation.h">
<polygon fill="#ffffff" stroke="#ff0000" points="794.9078,-235.5 794.9078,-254.5 860.9078,-254.5 860.9078,-235.5 794.9078,-235.5"/>
<text text-anchor="middle" x="827.9078" y="-242.5" font-family="Helvetica,sans-Serif" font-size="10.00" fill="#000000">validation.h</text>
</a>
</g>
</g>
<!-- Node0&#45;&gt;Node122 -->
<g id="edge61" class="edge">
<title>Node0&#45;&gt;Node122</title>
<path fill="none" stroke="#191970" d="M1704.7396,-297.9693C1541.1346,-288.086 1024.8071,-256.8947 871.3381,-247.6236"/>
<polygon fill="#191970" stroke="#191970" points="871.5356,-244.1293 861.3427,-247.0198 871.1135,-251.1165 871.5356,-244.1293"/>
</g>
<!-- Node134 -->
<g id="node43" class="node">
<title>Node134</title>
<g id="a_node43"><a xlink:href="policy_8h.html" target="_top" xlink:title="policy/policy.h">
<polygon fill="#ffffff" stroke="#ff0000" points="3196.4078,-174 3196.4078,-193 3275.4078,-193 3275.4078,-174 3196.4078,-174"/>
<text text-anchor="middle" x="3235.9078" y="-181" font-family="Helvetica,sans-Serif" font-size="10.00" fill="#000000">policy/policy.h</text>
</a>
</g>
</g>
<!-- Node0&#45;&gt;Node134 -->
<g id="edge89" class="edge">
<title>Node0&#45;&gt;Node134</title>
<path fill="none" stroke="#191970" d="M1805.2421,-300.3483C2048.8302,-297.0682 3096.2049,-281.4699 3159.9078,-255 3186.69,-243.8715 3209.6971,-218.6993 3223.1767,-201.4006"/>
<polygon fill="#191970" stroke="#191970" points="3226.134,-203.2905 3229.3268,-193.1882 3220.531,-199.0945 3226.134,-203.2905"/>
</g>
<!-- Node135 -->
<g id="node44" class="node">
<title>Node135</title>
<g id="a_node44"><a xlink:href="policy_2fees_8h.html" target="_top" xlink:title="policy/fees.h">
<polygon fill="#ffffff" stroke="#ff0000" points="1296.9078,-174 1296.9078,-193 1368.9078,-193 1368.9078,-174 1296.9078,-174"/>
<text text-anchor="middle" x="1332.9078" y="-181" font-family="Helvetica,sans-Serif" font-size="10.00" fill="#000000">policy/fees.h</text>
</a>
</g>
</g>
<!-- Node0&#45;&gt;Node135 -->
<g id="edge93" class="edge">
<title>Node0&#45;&gt;Node135</title>
<path fill="none" stroke="#191970" d="M1704.7415,-299.7842C1616.0771,-296.8284 1436.0152,-286.9632 1382.9078,-255 1362.8101,-242.904 1348.731,-219.2784 1340.7433,-202.4984"/>
<polygon fill="#191970" stroke="#191970" points="1343.8231,-200.8107 1336.5576,-193.0994 1337.4285,-203.6584 1343.8231,-200.8107"/>
</g>
<!-- Node137 -->
<g id="node45" class="node">
<title>Node137</title>
<g id="a_node45"><a xlink:href="reverse__iterator_8h.html" target="_top" xlink:title="reverse_iterator.h">
<polygon fill="#ffffff" stroke="#000000" points="3407.9078,-235.5 3407.9078,-254.5 3499.9078,-254.5 3499.9078,-235.5 3407.9078,-235.5"/>
<text text-anchor="middle" x="3453.9078" y="-242.5" font-family="Helvetica,sans-Serif" font-size="10.00" fill="#000000">reverse_iterator.h</text>
</a>
</g>
</g>
<!-- Node0&#45;&gt;Node137 -->
<g id="edge101" class="edge">
<title>Node0&#45;&gt;Node137</title>
<path fill="none" stroke="#191970" d="M1805.1557,-300.5191C2044.9247,-298.0819 3074.2723,-285.9744 3393.9078,-255 3395.179,-254.8768 3396.464,-254.743 3397.7586,-254.5997"/>
<polygon fill="#191970" stroke="#191970" points="3398.3182,-258.057 3407.8044,-253.3387 3397.4463,-251.1115 3398.3182,-258.057"/>
</g>
<!-- Node82 -->
<g id="node46" class="node">
<title>Node82</title>
<g id="a_node46"><a xlink:href="streams_8h.html" target="_top" xlink:title="streams.h">
<polygon fill="#ffffff" stroke="#ff0000" points="1106.9078,-112.5 1106.9078,-131.5 1166.9078,-131.5 1166.9078,-112.5 1106.9078,-112.5"/>
<text text-anchor="middle" x="1136.9078" y="-119.5" font-family="Helvetica,sans-Serif" font-size="10.00" fill="#000000">streams.h</text>
</a>
</g>
</g>
<!-- Node0&#45;&gt;Node82 -->
<g id="edge102" class="edge">
<title>Node0&#45;&gt;Node82</title>
<path fill="none" stroke="#191970" d="M1704.5674,-297.8626C1612.3751,-291.6754 1420.0924,-276.6007 1356.9078,-255 1276.367,-227.4658 1193.7324,-167.1443 1156.8215,-138.167"/>
<polygon fill="#191970" stroke="#191970" points="1158.8577,-135.3145 1148.8505,-131.8351 1154.5037,-140.7957 1158.8577,-135.3145"/>
</g>
<!-- Node138 -->
<g id="node47" class="node">
<title>Node138</title>
<g id="a_node47"><a xlink:href="timedata_8h.html" target="_top" xlink:title="timedata.h">
<polygon fill="#ffffff" stroke="#ff0000" points="1298.9078,-112.5 1298.9078,-131.5 1360.9078,-131.5 1360.9078,-112.5 1298.9078,-112.5"/>
<text text-anchor="middle" x="1329.9078" y="-119.5" font-family="Helvetica,sans-Serif" font-size="10.00" fill="#000000">timedata.h</text>
</a>
</g>
</g>
<!-- Node0&#45;&gt;Node138 -->
<g id="edge110" class="edge">
<title>Node0&#45;&gt;Node138</title>
<path fill="none" stroke="#191970" d="M1704.8873,-292.3122C1637.325,-279.1457 1514.5878,-250.0956 1420.9078,-199 1405.2806,-190.4765 1369.5653,-158.6395 1347.8152,-138.6695"/>
<polygon fill="#191970" stroke="#191970" points="1349.9557,-135.8821 1340.234,-131.6702 1345.2072,-141.0253 1349.9557,-135.8821"/>
</g>
<!-- Node85 -->
<g id="node48" class="node">
<title>Node85</title>
<g id="a_node48"><a xlink:href="util_8h.html" target="_top" xlink:title="util.h">
<polygon fill="#ffffff" stroke="#ff0000" points="125.9078,-174 125.9078,-193 163.9078,-193 163.9078,-174 125.9078,-174"/>
<text text-anchor="middle" x="144.9078" y="-181" font-family="Helvetica,sans-Serif" font-size="10.00" fill="#000000">util.h</text>
</a>
</g>
</g>
<!-- Node0&#45;&gt;Node85 -->
<g id="edge114" class="edge">
<title>Node0&#45;&gt;Node85</title>
<path fill="none" stroke="#191970" d="M1704.6675,-299.5828C1561.1592,-295.3262 1137.1303,-281.2953 785.9078,-255 542.208,-236.7547 481.1404,-231.3397 238.9078,-199 217.0156,-196.0772 192.3859,-191.9862 173.8312,-188.741"/>
<polygon fill="#191970" stroke="#191970" points="174.397,-185.2868 163.9401,-186.9907 173.1772,-192.1798 174.397,-185.2868"/>
</g>
<!-- Node105 -->
<g id="node49" class="node">
<title>Node105</title>
<g id="a_node49"><a xlink:href="utiltime_8h.html" target="_top" xlink:title="utiltime.h">
<polygon fill="#ffffff" stroke="#000000" points="864.9078,-56.5 864.9078,-75.5 920.9078,-75.5 920.9078,-56.5 864.9078,-56.5"/>
<text text-anchor="middle" x="892.9078" y="-63.5" font-family="Helvetica,sans-Serif" font-size="10.00" fill="#000000">utiltime.h</text>
</a>
</g>
</g>
<!-- Node0&#45;&gt;Node105 -->
<g id="edge131" class="edge">
<title>Node0&#45;&gt;Node105</title>
<path fill="none" stroke="#191970" d="M1704.7416,-299.9462C1621.049,-297.2833 1448.0926,-287.9128 1305.9078,-255 1151.7925,-219.3255 1108.8399,-211.2072 971.9078,-132 948.4125,-118.4094 924.9902,-97.715 909.8236,-83.129"/>
<polygon fill="#191970" stroke="#191970" points="911.8858,-80.2486 902.299,-75.738 906.9805,-85.2425 911.8858,-80.2486"/>
</g>
<!-- Node139 -->
<g id="node50" class="node">
<title>Node139</title>
<g id="a_node50"><a xlink:href="utilmoneystr_8h.html" target="_top" xlink:title="utilmoneystr.h">
<polygon fill="#ffffff" stroke="#000000" points="3314.9078,-112.5 3314.9078,-131.5 3392.9078,-131.5 3392.9078,-112.5 3314.9078,-112.5"/>
<text text-anchor="middle" x="3353.9078" y="-119.5" font-family="Helvetica,sans-Serif" font-size="10.00" fill="#000000">utilmoneystr.h</text>
</a>
</g>
</g>
<!-- Node0&#45;&gt;Node139 -->
<g id="edge127" class="edge">
<title>Node0&#45;&gt;Node139</title>
<path fill="none" stroke="#191970" d="M1805.094,-300.2756C2056.6088,-296.5398 3170.6647,-278.7083 3239.9078,-255 3279.9419,-241.2926 3289.8104,-231.5015 3316.9078,-199 3331.243,-181.8059 3341.5364,-158.1198 3347.5707,-141.5741"/>
<polygon fill="#191970" stroke="#191970" points="3350.9651,-142.4671 3350.9208,-131.8724 3344.3484,-140.1823 3350.9651,-142.4671"/>
</g>
<!-- Node2 -->
<g id="node3" class="node">
<title>Node2</title>
<polygon fill="#ffffff" stroke="#bfbfbf" points="2024.9078,-174 2024.9078,-193 2076.9078,-193 2076.9078,-174 2024.9078,-174"/>
<text text-anchor="middle" x="2050.9078" y="-181" font-family="Helvetica,sans-Serif" font-size="10.00" fill="#000000">memory</text>
</g>
<!-- Node1&#45;&gt;Node2 -->
<g id="edge2" class="edge">
<title>Node1&#45;&gt;Node2</title>
<path fill="none" stroke="#191970" d="M1951.3453,-235.3906C1970.7425,-225.2811 2001.4768,-209.2628 2023.6695,-197.6962"/>
<polygon fill="#191970" stroke="#191970" points="2025.3496,-200.7675 2032.5998,-193.0419 2022.1143,-194.56 2025.3496,-200.7675"/>
</g>
<!-- Node3 -->
<g id="node4" class="node">
<title>Node3</title>
<polygon fill="#ffffff" stroke="#bfbfbf" points="1510.9078,-56.5 1510.9078,-75.5 1540.9078,-75.5 1540.9078,-56.5 1510.9078,-56.5"/>
<text text-anchor="middle" x="1525.9078" y="-63.5" font-family="Helvetica,sans-Serif" font-size="10.00" fill="#000000">set</text>
</g>
<!-- Node1&#45;&gt;Node3 -->
<g id="edge3" class="edge">
<title>Node1&#45;&gt;Node3</title>
<path fill="none" stroke="#191970" d="M1896.0901,-238.8474C1849.5926,-230.562 1772.7679,-215.0022 1748.9078,-199 1709.0414,-172.263 1724.2777,-139.4629 1684.9078,-112 1663.1492,-96.8221 1590.0649,-79.6089 1551.0114,-71.192"/>
<polygon fill="#191970" stroke="#191970" points="1551.4785,-67.7133 1540.9696,-69.0603 1550.0248,-74.5607 1551.4785,-67.7133"/>
</g>
<!-- Node4 -->
<g id="node5" class="node">
<title>Node4</title>
<polygon fill="#ffffff" stroke="#bfbfbf" points="939.4078,-56.5 939.4078,-75.5 974.4078,-75.5 974.4078,-56.5 939.4078,-56.5"/>
<text text-anchor="middle" x="956.9078" y="-63.5" font-family="Helvetica,sans-Serif" font-size="10.00" fill="#000000">map</text>
</g>
<!-- Node1&#45;&gt;Node4 -->
<g id="edge4" class="edge">
<title>Node1&#45;&gt;Node4</title>
<path fill="none" stroke="#191970" d="M1896.0922,-243.266C1777.5208,-237.5414 1406.4372,-218.4955 1287.9078,-199 1233.9784,-190.1298 1222.1367,-180.3993 1168.9078,-168 1091.5719,-149.9851 1058.0065,-178.8694 993.9078,-132 978.3783,-120.6447 968.5078,-100.6814 962.904,-85.6754"/>
<polygon fill="#191970" stroke="#191970" points="966.0867,-84.1627 959.5577,-75.8188 959.4583,-86.4131 966.0867,-84.1627"/>
</g>
<!-- Node5 -->
<g id="node6" class="node">
<title>Node5</title>
<polygon fill="#ffffff" stroke="#bfbfbf" points="1314.9078,-56.5 1314.9078,-75.5 1358.9078,-75.5 1358.9078,-56.5 1314.9078,-56.5"/>
<text text-anchor="middle" x="1336.9078" y="-63.5" font-family="Helvetica,sans-Serif" font-size="10.00" fill="#000000">vector</text>
</g>
<!-- Node1&#45;&gt;Node5 -->
<g id="edge5" class="edge">
<title>Node1&#45;&gt;Node5</title>
<path fill="none" stroke="#191970" d="M1896.3078,-240.302C1842.9939,-232.9392 1747.1407,-217.5847 1717.9078,-199 1676.95,-172.9613 1693.6996,-136.678 1651.9078,-112 1604.3784,-83.9339 1439.2465,-71.6605 1368.9688,-67.6217"/>
<polygon fill="#191970" stroke="#191970" points="1369.1031,-64.1239 1358.9244,-67.0638 1368.7148,-71.1131 1369.1031,-64.1239"/>
</g>
<!-- Node6 -->
<g id="node7" class="node">
<title>Node6</title>
<polygon fill="#ffffff" stroke="#bfbfbf" points="1256.9078,-56.5 1256.9078,-75.5 1296.9078,-75.5 1296.9078,-56.5 1256.9078,-56.5"/>
<text text-anchor="middle" x="1276.9078" y="-63.5" font-family="Helvetica,sans-Serif" font-size="10.00" fill="#000000">utility</text>
</g>
<!-- Node1&#45;&gt;Node6 -->
<g id="edge6" class="edge">
<title>Node1&#45;&gt;Node6</title>
<path fill="none" stroke="#191970" d="M1896.1607,-243.5748C1804.1028,-239.6223 1565.7048,-226.921 1491.9078,-199 1429.6199,-175.4335 1427.049,-146.206 1369.9078,-112 1349.2447,-99.6306 1324.7991,-87.6349 1306.1575,-78.9961"/>
<polygon fill="#191970" stroke="#191970" points="1307.5385,-75.7791 1296.9889,-74.8004 1304.6256,-82.1442 1307.5385,-75.7791"/>
</g>
<!-- Node7 -->
<g id="node8" class="node">
<title>Node7</title>
<polygon fill="#ffffff" stroke="#bfbfbf" points="1096.4078,-.5 1096.4078,-19.5 1137.4078,-19.5 1137.4078,-.5 1096.4078,-.5"/>
<text text-anchor="middle" x="1116.9078" y="-7.5" font-family="Helvetica,sans-Serif" font-size="10.00" fill="#000000">string</text>
</g>
<!-- Node1&#45;&gt;Node7 -->
<g id="edge7" class="edge">
<title>Node1&#45;&gt;Node7</title>
<path fill="none" stroke="#191970" d="M1942.2159,-235.2567C1960.1529,-216.6742 1999.2065,-177.1966 2015.9078,-168 2073.1686,-136.4693 2189.2387,-165.66 2151.9078,-112 2111.0307,-53.2427 2071.0075,-70.4701 2000.9078,-56 1916.0204,-38.4773 1294.2082,-16.1139 1147.7452,-11.0504"/>
<polygon fill="#191970" stroke="#191970" points="1147.7729,-7.5494 1137.6584,-10.7031 1147.532,-14.5452 1147.7729,-7.5494"/>
</g>
<!-- Node8 -->
<g id="node9" class="node">
<title>Node8</title>
<g id="a_node9"><a xlink:href="addressindex_8h.html" target="_top" xlink:title="addressindex.h">
<polygon fill="#ffffff" stroke="#ff0000" points="1757.4078,-174 1757.4078,-193 1840.4078,-193 1840.4078,-174 1757.4078,-174"/>
<text text-anchor="middle" x="1798.9078" y="-181" font-family="Helvetica,sans-Serif" font-size="10.00" fill="#000000">addressindex.h</text>
</a>
</g>
</g>
<!-- Node1&#45;&gt;Node8 -->
<g id="edge8" class="edge">
<title>Node1&#45;&gt;Node8</title>
<path fill="none" stroke="#191970" d="M1911.9703,-235.3906C1889.648,-225.1457 1854.1041,-208.8326 1828.8321,-197.2339"/>
<polygon fill="#191970" stroke="#191970" points="1830.2467,-194.0322 1819.6983,-193.0419 1827.3269,-200.3942 1830.2467,-194.0322"/>
</g>
<!-- Node18 -->
<g id="node10" class="node">
<title>Node18</title>
<g id="a_node10"><a xlink:href="amount_8h.html" target="_top" xlink:title="amount.h">
<polygon fill="#ffffff" stroke="#000000" points="1896.4078,-56.5 1896.4078,-75.5 1953.4078,-75.5 1953.4078,-56.5 1896.4078,-56.5"/>
<text text-anchor="middle" x="1924.9078" y="-63.5" font-family="Helvetica,sans-Serif" font-size="10.00" fill="#000000">amount.h</text>
</a>
</g>
</g>
<!-- Node1&#45;&gt;Node18 -->
<g id="edge13" class="edge">
<title>Node1&#45;&gt;Node18</title>
<path fill="none" stroke="#191970" d="M1969.4438,-244.4692C2131.6063,-241.9386 2779.573,-229.9157 2808.9078,-199 2929.8747,-71.5143 2187.5084,-187.9448 2020.9078,-132 1990.1481,-121.6708 1960.2396,-98.3679 1942.1956,-82.4085"/>
<polygon fill="#191970" stroke="#191970" points="1944.533,-79.8033 1934.7795,-75.6655 1939.8238,-84.9825 1944.533,-79.8033"/>
</g>
<!-- Node29 -->
<g id="node12" class="node">
<title>Node29</title>
<g id="a_node12"><a xlink:href="spentindex_8h.html" target="_top" xlink:title="spentindex.h">
<polygon fill="#ffffff" stroke="#ff0000" points="1896.9078,-174 1896.9078,-193 1968.9078,-193 1968.9078,-174 1896.9078,-174"/>
<text text-anchor="middle" x="1932.9078" y="-181" font-family="Helvetica,sans-Serif" font-size="10.00" fill="#000000">spentindex.h</text>
</a>
</g>
</g>
<!-- Node1&#45;&gt;Node29 -->
<g id="edge11" class="edge">
<title>Node1&#45;&gt;Node29</title>
<path fill="none" stroke="#191970" d="M1932.9078,-235.3906C1932.9078,-226.8657 1932.9078,-214.1392 1932.9078,-203.4235"/>
<polygon fill="#191970" stroke="#191970" points="1936.4079,-203.2448 1932.9078,-193.2449 1929.4079,-203.2449 1936.4079,-203.2448"/>
</g>
<!-- Node30 -->
<g id="node13" class="node">
<title>Node30</title>
<g id="a_node13"><a xlink:href="coins_8h.html" target="_top" xlink:title="coins.h">
<polygon fill="#ffffff" stroke="#ff0000" points="1500.9078,-174 1500.9078,-193 1548.9078,-193 1548.9078,-174 1500.9078,-174"/>
<text text-anchor="middle" x="1524.9078" y="-181" font-family="Helvetica,sans-Serif" font-size="10.00" fill="#000000">coins.h</text>
</a>
</g>
</g>
<!-- Node1&#45;&gt;Node30 -->
<g id="edge14" class="edge">
<title>Node1&#45;&gt;Node30</title>
<path fill="none" stroke="#191970" d="M1895.9433,-240.6566C1834.5104,-233.2638 1707.5905,-217.2505 1600.9078,-199 1587.1876,-196.6528 1572.1565,-193.6741 1559.1099,-190.9564"/>
<polygon fill="#191970" stroke="#191970" points="1559.6427,-187.4918 1549.1353,-188.85 1558.1963,-194.3408 1559.6427,-187.4918"/>
</g>
<!-- Node31 -->
<g id="node14" class="node">
<title>Node31</title>
<g id="a_node14"><a xlink:href="transaction_8h.html" target="_top" xlink:title="primitives/transaction.h">
<polygon fill="#ffffff" stroke="#ff0000" points="2943.9078,-112.5 2943.9078,-131.5 3061.9078,-131.5 3061.9078,-112.5 2943.9078,-112.5"/>
<text text-anchor="middle" x="3002.9078" y="-119.5" font-family="Helvetica,sans-Serif" font-size="10.00" fill="#000000">primitives/transaction.h</text>
</a>
</g>
</g>
<!-- Node1&#45;&gt;Node31 -->
<g id="edge36" class="edge">
<title>Node1&#45;&gt;Node31</title>
<path fill="none" stroke="#191970" d="M1969.4307,-244.132C2130.3769,-240.1793 2772.1882,-223.0318 2858.9078,-199 2905.7895,-186.0081 2954.5229,-155.8355 2981.5604,-137.3528"/>
<polygon fill="#191970" stroke="#191970" points="2983.6548,-140.1594 2989.8639,-131.5746 2979.6565,-134.4137 2983.6548,-140.1594"/>
</g>
<!-- Node36 -->
<g id="node20" class="node">
<title>Node36</title>
<g id="a_node20"><a xlink:href="indirectmap_8h.html" target="_top" xlink:title="indirectmap.h">
<polygon fill="#ffffff" stroke="#000000" points="2095.4078,-174 2095.4078,-193 2170.4078,-193 2170.4078,-174 2095.4078,-174"/>
<text text-anchor="middle" x="2132.9078" y="-181" font-family="Helvetica,sans-Serif" font-size="10.00" fill="#000000">indirectmap.h</text>
</a>
</g>
</g>
<!-- Node1&#45;&gt;Node36 -->
<g id="edge32" class="edge">
<title>Node1&#45;&gt;Node36</title>
<path fill="none" stroke="#191970" d="M1965.5174,-235.468C1996.5455,-226.334 2044.5067,-212.0479 2085.9078,-199 2088.6735,-198.1284 2091.5269,-197.2172 2094.3967,-196.292"/>
<polygon fill="#191970" stroke="#191970" points="2095.688,-199.5525 2104.114,-193.1296 2093.5217,-192.8961 2095.688,-199.5525"/>
</g>
<!-- Node112 -->
<g id="node21" class="node">
<title>Node112</title>
<g id="a_node21"><a xlink:href="feerate_8h.html" target="_top" xlink:title="policy/feerate.h">
<polygon fill="#ffffff" stroke="#ff0000" points="1813.4078,-112.5 1813.4078,-131.5 1896.4078,-131.5 1896.4078,-112.5 1813.4078,-112.5"/>
<text text-anchor="middle" x="1854.9078" y="-119.5" font-family="Helvetica,sans-Serif" font-size="10.00" fill="#000000">policy/feerate.h</text>
</a>
</g>
</g>
<!-- Node1&#45;&gt;Node112 -->
<g id="edge33" class="edge">
<title>Node1&#45;&gt;Node112</title>
<path fill="none" stroke="#191970" d="M1921.3371,-235.381C1911.4444,-226.6843 1897.3507,-213.1138 1887.9078,-199 1875.817,-180.9284 1866.5936,-157.7039 1861.012,-141.5081"/>
<polygon fill="#191970" stroke="#191970" points="1864.1912,-139.972 1857.7392,-131.5682 1857.5423,-142.1613 1864.1912,-139.972"/>
</g>
<!-- Node100 -->
<g id="node22" class="node">
<title>Node100</title>
<g id="a_node22"><a xlink:href="sync_8h.html" target="_top" xlink:title="sync.h">
<polygon fill="#ffffff" stroke="#ff0000" points="774.9078,-112.5 774.9078,-131.5 820.9078,-131.5 820.9078,-112.5 774.9078,-112.5"/>
<text text-anchor="middle" x="797.9078" y="-119.5" font-family="Helvetica,sans-Serif" font-size="10.00" fill="#000000">sync.h</text>
</a>
</g>
</g>
<!-- Node1&#45;&gt;Node100 -->
<g id="edge37" class="edge">
<title>Node1&#45;&gt;Node100</title>
<path fill="none" stroke="#191970" d="M1896.0573,-243.6536C1793.9383,-239.6736 1498.7601,-226.4837 1254.9078,-199 1068.5654,-177.998 1018.5589,-174.7611 831.139,-131.7811"/>
<polygon fill="#191970" stroke="#191970" points="831.7671,-128.3343 821.2369,-129.5029 830.1976,-135.156 831.7671,-128.3343"/>
</g>
<!-- Node113 -->
<g id="node23" class="node">
<title>Node113</title>
<g id="a_node23"><a xlink:href="random_8h.html" target="_top" xlink:title="random.h">
<polygon fill="#ffffff" stroke="#ff0000" points="2543.4078,-112.5 2543.4078,-131.5 2600.4078,-131.5 2600.4078,-112.5 2543.4078,-112.5"/>
<text text-anchor="middle" x="2571.9078" y="-119.5" font-family="Helvetica,sans-Serif" font-size="10.00" fill="#000000">random.h</text>
</a>
</g>
</g>
<!-- Node1&#45;&gt;Node113 -->
<g id="edge38" class="edge">
<title>Node1&#45;&gt;Node113</title>
<path fill="none" stroke="#191970" d="M1969.4214,-244.5417C2135.3255,-242.285 2811.3553,-231.1377 2841.9078,-199 2851.4008,-189.0145 2850.7945,-178.5287 2841.9078,-168 2827.1757,-150.5457 2682.4661,-133.3796 2611.1827,-125.9012"/>
<polygon fill="#191970" stroke="#191970" points="2611.1201,-122.3761 2600.8128,-124.8273 2610.3991,-129.3388 2611.1201,-122.3761"/>
</g>
<!-- Node115 -->
<g id="node24" class="node">
<title>Node115</title>
<polygon fill="#ffffff" stroke="#bfbfbf" points="2188.4078,-174 2188.4078,-193 2345.4078,-193 2345.4078,-174 2188.4078,-174"/>
<text text-anchor="middle" x="2266.9078" y="-181" font-family="Helvetica,sans-Serif" font-size="10.00" fill="#000000">boost/multi_index_container.hpp</text>
</g>
<!-- Node1&#45;&gt;Node115 -->
<g id="edge40" class="edge">
<title>Node1&#45;&gt;Node115</title>
<path fill="none" stroke="#191970" d="M1969.6071,-238.2425C2026.3805,-227.7887 2136.149,-207.5769 2205.2503,-194.8531"/>
<polygon fill="#191970" stroke="#191970" points="2205.9385,-198.2853 2215.1393,-193.0322 2204.6708,-191.401 2205.9385,-198.2853"/>
</g>
<!-- Node116 -->
<g id="node25" class="node">
<title>Node116</title>
<polygon fill="#ffffff" stroke="#bfbfbf" points="2363.9078,-168.5 2363.9078,-198.5 2491.9078,-198.5 2491.9078,-168.5 2363.9078,-168.5"/>
<text text-anchor="start" x="2371.9078" y="-186.5" font-family="Helvetica,sans-Serif" font-size="10.00" fill="#000000">boost/multi_index/hashed</text>
<text text-anchor="middle" x="2427.9078" y="-175.5" font-family="Helvetica,sans-Serif" font-size="10.00" fill="#000000">_index.hpp</text>
</g>
<!-- Node1&#45;&gt;Node116 -->
<g id="edge41" class="edge">
<title>Node1&#45;&gt;Node116</title>
<path fill="none" stroke="#191970" d="M1969.4818,-242.2604C2041.2214,-236.6184 2205.5872,-222.3697 2353.6994,-199.0941"/>
<polygon fill="#191970" stroke="#191970" points="2354.5555,-202.502 2363.8819,-197.4754 2353.4564,-195.5888 2354.5555,-202.502"/>
</g>
<!-- Node117 -->
<g id="node26" class="node">
<title>Node117</title>
<polygon fill="#ffffff" stroke="#bfbfbf" points="2509.9078,-168.5 2509.9078,-198.5 2637.9078,-198.5 2637.9078,-168.5 2509.9078,-168.5"/>
<text text-anchor="start" x="2517.9078" y="-186.5" font-family="Helvetica,sans-Serif" font-size="10.00" fill="#000000">boost/multi_index/ordered</text>
<text text-anchor="middle" x="2573.9078" y="-175.5" font-family="Helvetica,sans-Serif" font-size="10.00" fill="#000000">_index.hpp</text>
</g>
<!-- Node1&#45;&gt;Node117 -->
<g id="edge42" class="edge">
<title>Node1&#45;&gt;Node117</title>
<path fill="none" stroke="#191970" d="M1969.6395,-243.6604C2058.8174,-240.0594 2293.9497,-228.4754 2499.8077,-199.0377"/>
<polygon fill="#191970" stroke="#191970" points="2500.5022,-202.4737 2509.8975,-197.577 2499.4992,-195.546 2500.5022,-202.4737"/>
</g>
<!-- Node118 -->
<g id="node27" class="node">
<title>Node118</title>
<polygon fill="#ffffff" stroke="#bfbfbf" points="2656.4078,-168.5 2656.4078,-198.5 2799.4078,-198.5 2799.4078,-168.5 2656.4078,-168.5"/>
<text text-anchor="start" x="2664.4078" y="-186.5" font-family="Helvetica,sans-Serif" font-size="10.00" fill="#000000">boost/multi_index/sequenced</text>
<text text-anchor="middle" x="2727.9078" y="-175.5" font-family="Helvetica,sans-Serif" font-size="10.00" fill="#000000">_index.hpp</text>
</g>
<!-- Node1&#45;&gt;Node118 -->
<g id="edge43" class="edge">
<title>Node1&#45;&gt;Node118</title>
<path fill="none" stroke="#191970" d="M1969.4704,-244.2532C2073.615,-241.7848 2380.8286,-232.1337 2645.7939,-199.0323"/>
<polygon fill="#191970" stroke="#191970" points="2646.5112,-202.4696 2655.9936,-197.7437 2645.6337,-195.5248 2646.5112,-202.4696"/>
</g>
<!-- Node108 -->
<g id="node28" class="node">
<title>Node108</title>
<polygon fill="#ffffff" stroke="#bfbfbf" points="591.4078,-112.5 591.4078,-131.5 718.4078,-131.5 718.4078,-112.5 591.4078,-112.5"/>
<text text-anchor="middle" x="654.9078" y="-119.5" font-family="Helvetica,sans-Serif" font-size="10.00" fill="#000000">boost/signals2/signal.hpp</text>
</g>
<!-- Node1&#45;&gt;Node108 -->
<g id="edge44" class="edge">
<title>Node1&#45;&gt;Node108</title>
<path fill="none" stroke="#191970" d="M1896.0967,-243.2792C1794.0786,-238.3426 1499.134,-222.9345 1254.9078,-199 1064.6738,-180.3568 841.6569,-149.3017 728.6296,-132.9071"/>
<polygon fill="#191970" stroke="#191970" points="729.0998,-129.4388 718.7002,-131.4635 728.0926,-136.3659 729.0998,-129.4388"/>
</g>
<!-- Node8&#45;&gt;Node18 -->
<g id="edge9" class="edge">
<title>Node8&#45;&gt;Node18</title>
<path fill="none" stroke="#191970" d="M1836.5051,-173.94C1859.6033,-166.2278 1888.0844,-153.1068 1905.9078,-132 1916.8341,-119.0608 1921.4849,-100.1635 1923.4602,-85.9022"/>
<polygon fill="#191970" stroke="#191970" points="1926.9721,-85.973 1924.5397,-75.6612 1920.0106,-85.2392 1926.9721,-85.973"/>
</g>
<!-- Node13 -->
<g id="node11" class="node">
<title>Node13</title>
<polygon fill="#ffffff" stroke="#bfbfbf" points="1544.4078,-.5 1544.4078,-19.5 1593.4078,-19.5 1593.4078,-.5 1544.4078,-.5"/>
<text text-anchor="middle" x="1568.9078" y="-7.5" font-family="Helvetica,sans-Serif" font-size="10.00" fill="#000000">stdint.h</text>
</g>
<!-- Node18&#45;&gt;Node13 -->
<g id="edge10" class="edge">
<title>Node18&#45;&gt;Node13</title>
<path fill="none" stroke="#191970" d="M1896.3766,-61.5119C1831.7179,-51.3409 1674.1968,-26.5623 1603.8454,-15.4958"/>
<polygon fill="#191970" stroke="#191970" points="1604.1469,-12.0003 1593.7245,-13.9038 1603.0591,-18.9152 1604.1469,-12.0003"/>
</g>
<!-- Node29&#45;&gt;Node18 -->
<g id="edge12" class="edge">
<title>Node29&#45;&gt;Node18</title>
<path fill="none" stroke="#191970" d="M1935.1483,-173.7399C1937.9958,-159.932 1942.1713,-133.9317 1938.9078,-112 1937.5751,-103.0439 1934.8584,-93.419 1932.1697,-85.3"/>
<polygon fill="#191970" stroke="#191970" points="1935.4014,-83.9402 1928.7702,-75.6772 1928.8011,-86.272 1935.4014,-83.9402"/>
</g>
<!-- Node30&#45;&gt;Node13 -->
<g id="edge21" class="edge">
<title>Node30&#45;&gt;Node13</title>
<path fill="none" stroke="#191970" d="M1529.2662,-173.8046C1533.7197,-163.5824 1540.5789,-146.9231 1544.9078,-132 1555.1874,-96.5631 1562.4393,-54.0587 1566.1239,-29.723"/>
<polygon fill="#191970" stroke="#191970" points="1569.6162,-30.0301 1567.6039,-19.6282 1562.6902,-29.0146 1569.6162,-30.0301"/>
</g>
<!-- Node30&#45;&gt;Node31 -->
<g id="edge15" class="edge">
<title>Node30&#45;&gt;Node31</title>
<path fill="none" stroke="#191970" d="M1549.0896,-181.5686C1590.1442,-178.3474 1676.1136,-171.8527 1748.9078,-168 2200.4469,-144.102 2744.1077,-128.7177 2933.6961,-123.751"/>
<polygon fill="#191970" stroke="#191970" points="2933.893,-127.2471 2943.7983,-123.4874 2933.7104,-120.2495 2933.893,-127.2471"/>
</g>
<!-- Node30&#45;&gt;Node39 -->
<g id="edge18" class="edge">
<title>Node30&#45;&gt;Node39</title>
<path fill="none" stroke="#191970" d="M1539.7516,-173.8906C1554.9496,-164.0519 1578.7927,-148.6167 1596.5284,-137.1351"/>
<polygon fill="#191970" stroke="#191970" points="1598.6758,-139.9144 1605.1683,-131.5419 1594.8717,-134.0382 1598.6758,-139.9144"/>
</g>
<!-- Node64 -->
<g id="node17" class="node">
<title>Node64</title>
<g id="a_node17"><a xlink:href="assets_8h.html" target="_top" xlink:title="assets/assets.h">
<polygon fill="#ffffff" stroke="#ff0000" points="1416.9078,-112.5 1416.9078,-131.5 1502.9078,-131.5 1502.9078,-112.5 1416.9078,-112.5"/>
<text text-anchor="middle" x="1459.9078" y="-119.5" font-family="Helvetica,sans-Serif" font-size="10.00" fill="#000000">assets/assets.h</text>
</a>
</g>
</g>
<!-- Node30&#45;&gt;Node64 -->
<g id="edge22" class="edge">
<title>Node30&#45;&gt;Node64</title>
<path fill="none" stroke="#191970" d="M1514.7516,-173.8906C1504.8879,-164.5581 1489.7023,-150.1902 1477.8091,-138.9374"/>
<polygon fill="#191970" stroke="#191970" points="1479.8767,-136.0753 1470.2073,-131.7449 1475.0657,-141.1601 1479.8767,-136.0753"/>
</g>
<!-- Node74 -->
<g id="node18" class="node">
<title>Node74</title>
<g id="a_node18"><a xlink:href="assetdb_8h.html" target="_top" xlink:title="assets/assetdb.h">
<polygon fill="#ffffff" stroke="#ff0000" points="352.9078,-112.5 352.9078,-131.5 444.9078,-131.5 444.9078,-112.5 352.9078,-112.5"/>
<text text-anchor="middle" x="398.9078" y="-119.5" font-family="Helvetica,sans-Serif" font-size="10.00" fill="#000000">assets/assetdb.h</text>
</a>
</g>
</g>
<!-- Node30&#45;&gt;Node74 -->
<g id="edge27" class="edge">
<title>Node30&#45;&gt;Node74</title>
<path fill="none" stroke="#191970" d="M1500.7593,-180.4711C1471.6679,-176.934 1421.2901,-171.1652 1377.9078,-168 984.8499,-139.3221 884.9359,-161.083 491.9078,-132 480.0149,-131.12 467.2922,-129.9219 455.1944,-128.6607"/>
<polygon fill="#191970" stroke="#191970" points="455.527,-125.1764 445.2112,-127.5921 454.7819,-132.1366 455.527,-125.1764"/>
</g>
<!-- Node31&#45;&gt;Node18 -->
<g id="edge17" class="edge">
<title>Node31&#45;&gt;Node18</title>
<path fill="none" stroke="#191970" d="M2943.5968,-113.4187C2938.9705,-112.8889 2934.3665,-112.4066 2929.9078,-112 2554.7891,-77.7927 2098.465,-68.5743 1963.9652,-66.5185"/>
<polygon fill="#191970" stroke="#191970" points="1963.8048,-63.0158 1953.754,-66.3669 1963.7009,-70.0151 1963.8048,-63.0158"/>
</g>
<!-- Node31&#45;&gt;Node13 -->
<g id="edge16" class="edge">
<title>Node31&#45;&gt;Node13</title>
<path fill="none" stroke="#191970" d="M2943.5826,-113.5635C2938.9595,-113.0007 2934.3601,-112.4713 2929.9078,-112 2403.5356,-56.2757 1759.465,-20.1347 1603.9131,-11.8311"/>
<polygon fill="#191970" stroke="#191970" points="1603.7375,-8.317 1593.5659,-11.2815 1603.3662,-15.3071 1603.7375,-8.317"/>
</g>
<!-- Node39&#45;&gt;Node5 -->
<g id="edge20" class="edge">
<title>Node39&#45;&gt;Node5</title>
<path fill="none" stroke="#191970" d="M1596.7487,-117.4173C1546.4177,-107.4578 1426.957,-83.8189 1369.2339,-72.3967"/>
<polygon fill="#191970" stroke="#191970" points="1369.694,-68.9199 1359.2048,-70.4121 1368.3351,-75.7868 1369.694,-68.9199"/>
</g>
<!-- Node44 -->
<g id="node16" class="node">
<title>Node44</title>
<g id="a_node16"><a xlink:href="version_8h.html" target="_top" xlink:title="version.h">
<polygon fill="#ffffff" stroke="#000000" points="1596.9078,-56.5 1596.9078,-75.5 1652.9078,-75.5 1652.9078,-56.5 1596.9078,-56.5"/>
<text text-anchor="middle" x="1624.9078" y="-63.5" font-family="Helvetica,sans-Serif" font-size="10.00" fill="#000000">version.h</text>
</a>
</g>
</g>
<!-- Node39&#45;&gt;Node44 -->
<g id="edge19" class="edge">
<title>Node39&#45;&gt;Node44</title>
<path fill="none" stroke="#191970" d="M1620.7787,-112.2455C1621.4312,-104.9382 1622.3458,-94.6944 1623.1485,-85.7046"/>
<polygon fill="#191970" stroke="#191970" points="1626.6436,-85.9143 1624.0469,-75.6427 1619.6713,-85.2918 1626.6436,-85.9143"/>
</g>
<!-- Node64&#45;&gt;Node3 -->
<g id="edge25" class="edge">
<title>Node64&#45;&gt;Node3</title>
<path fill="none" stroke="#191970" d="M1471.4041,-112.2455C1481.152,-103.9746 1495.3337,-91.9416 1506.7876,-82.2232"/>
<polygon fill="#191970" stroke="#191970" points="1509.1825,-84.7813 1514.5432,-75.6427 1504.6537,-79.4437 1509.1825,-84.7813"/>
</g>
<!-- Node64&#45;&gt;Node4 -->
<g id="edge26" class="edge">
<title>Node64&#45;&gt;Node4</title>
<path fill="none" stroke="#191970" d="M1416.587,-117.177C1315.7843,-105.9544 1067.7752,-78.3431 984.6062,-69.0837"/>
<polygon fill="#191970" stroke="#191970" points="984.7548,-65.5787 974.4289,-67.9507 983.9802,-72.5357 984.7548,-65.5787"/>
</g>
<!-- Node64&#45;&gt;Node7 -->
<g id="edge24" class="edge">
<title>Node64&#45;&gt;Node7</title>
<path fill="none" stroke="#191970" d="M1449.808,-112.3921C1433.8019,-97.7489 1401.0159,-70.0673 1367.9078,-56 1293.0409,-24.1897 1196.4465,-14.3467 1147.8061,-11.3236"/>
<polygon fill="#191970" stroke="#191970" points="1147.8047,-7.8181 1137.6231,-10.7482 1147.4097,-14.8069 1147.8047,-7.8181"/>
</g>
<!-- Node64&#45;&gt;Node18 -->
<g id="edge23" class="edge">
<title>Node64&#45;&gt;Node18</title>
<path fill="none" stroke="#191970" d="M1503.2363,-116.7819C1593.3812,-105.9258 1799.8778,-81.0574 1886.0351,-70.6814"/>
<polygon fill="#191970" stroke="#191970" points="1886.6608,-74.1315 1896.1705,-69.4608 1885.8238,-67.1817 1886.6608,-74.1315"/>
</g>
<!-- Node74&#45;&gt;Node4 -->
<g id="edge31" class="edge">
<title>Node74&#45;&gt;Node4</title>
<path fill="none" stroke="#191970" d="M445.0359,-113.8873C449.7136,-113.1921 454.3999,-112.5468 458.9078,-112 664.0674,-87.1128 722.9862,-119.8391 929.4557,-75.4554"/>
<polygon fill="#191970" stroke="#191970" points="930.3776,-78.8367 939.4003,-73.2831 928.8837,-71.9979 930.3776,-78.8367"/>
</g>
<!-- Node74&#45;&gt;Node7 -->
<g id="edge30" class="edge">
<title>Node74&#45;&gt;Node7</title>
<path fill="none" stroke="#191970" d="M445.0869,-114.2492C449.7544,-113.4821 454.4245,-112.7211 458.9078,-112 700.4093,-73.158 992.2166,-28.8414 1086.1821,-14.6361"/>
<polygon fill="#191970" stroke="#191970" points="1086.7857,-18.0847 1096.1505,-13.1299 1085.7398,-11.1633 1086.7857,-18.0847"/>
</g>
<!-- Node75 -->
<g id="node19" class="node">
<title>Node75</title>
<g id="a_node19"><a xlink:href="fs_8h.html" target="_top" xlink:title="fs.h">
<polygon fill="#ffffff" stroke="#ff0000" points="120.4078,-56.5 120.4078,-75.5 153.4078,-75.5 153.4078,-56.5 120.4078,-56.5"/>
<text text-anchor="middle" x="136.9078" y="-63.5" font-family="Helvetica,sans-Serif" font-size="10.00" fill="#000000">fs.h</text>
</a>
</g>
</g>
<!-- Node74&#45;&gt;Node75 -->
<g id="edge28" class="edge">
<title>Node74&#45;&gt;Node75</title>
<path fill="none" stroke="#191970" d="M354.1661,-112.4369C299.3673,-100.7242 208.3176,-81.2632 163.4978,-71.6834"/>
<polygon fill="#191970" stroke="#191970" points="164.163,-68.2465 153.6522,-69.579 162.6998,-75.0919 164.163,-68.2465"/>
</g>
<!-- Node75&#45;&gt;Node7 -->
<g id="edge29" class="edge">
<title>Node75&#45;&gt;Node7</title>
<path fill="none" stroke="#191970" d="M153.7047,-65.0324C184.7496,-63.2446 253.2092,-59.3045 310.9078,-56 613.2651,-38.6835 979.4307,-17.8273 1086.2785,-11.7437"/>
<polygon fill="#191970" stroke="#191970" points="1086.5716,-15.2327 1096.3564,-11.1699 1086.1736,-8.2441 1086.5716,-15.2327"/>
</g>
<!-- Node112&#45;&gt;Node7 -->
<g id="edge35" class="edge">
<title>Node112&#45;&gt;Node7</title>
<path fill="none" stroke="#191970" d="M1832.8282,-112.4502C1797.482,-97.6232 1725.6768,-69.3822 1661.9078,-56 1562.2696,-35.0904 1247.1572,-16.9347 1147.462,-11.5904"/>
<polygon fill="#191970" stroke="#191970" points="1147.6147,-8.0937 1137.443,-11.0577 1147.243,-15.0838 1147.6147,-8.0937"/>
</g>
<!-- Node112&#45;&gt;Node18 -->
<g id="edge34" class="edge">
<title>Node112&#45;&gt;Node18</title>
<path fill="none" stroke="#191970" d="M1867.1009,-112.2455C1877.5399,-103.8943 1892.7733,-91.7076 1904.9818,-81.9408"/>
<polygon fill="#191970" stroke="#191970" points="1907.2322,-84.6227 1912.8545,-75.6427 1902.8593,-79.1566 1907.2322,-84.6227"/>
</g>
<!-- Node113&#45;&gt;Node13 -->
<g id="edge39" class="edge">
<title>Node113&#45;&gt;Node13</title>
<path fill="none" stroke="#191970" d="M2543.1521,-117.806C2466.5199,-106.7174 2250.9531,-76.1004 2070.9078,-56 1895.6871,-36.4382 1685.3696,-19.1779 1603.7011,-12.7108"/>
<polygon fill="#191970" stroke="#191970" points="1603.7379,-9.2029 1593.4936,-11.9057 1603.1875,-16.1812 1603.7379,-9.2029"/>
</g>
<!-- Node119&#45;&gt;Node13 -->
<g id="edge47" class="edge">
<title>Node119&#45;&gt;Node13</title>
<path fill="none" stroke="#191970" d="M3174.7499,-115.2398C3163.8187,-114.1039 3152.5304,-112.9779 3141.9078,-112 2822.2929,-82.5757 2742.1808,-77.0878 2421.9078,-56 2104.403,-35.0945 1719.9476,-16.9201 1603.7791,-11.583"/>
<polygon fill="#191970" stroke="#191970" points="1603.8436,-8.0824 1593.6939,-11.121 1603.5232,-15.075 1603.8436,-8.0824"/>
</g>
<!-- Node21 -->
<g id="node30" class="node">
<title>Node21</title>
<polygon fill="#ffffff" stroke="#bfbfbf" points="3214.9078,-56.5 3214.9078,-75.5 3262.9078,-75.5 3262.9078,-56.5 3214.9078,-56.5"/>
<text text-anchor="middle" x="3238.9078" y="-63.5" font-family="Helvetica,sans-Serif" font-size="10.00" fill="#000000">stdlib.h</text>
</g>
<!-- Node119&#45;&gt;Node21 -->
<g id="edge46" class="edge">
<title>Node119&#45;&gt;Node21</title>
<path fill="none" stroke="#191970" d="M3236.4304,-112.2455C3236.8218,-104.9382 3237.3706,-94.6944 3237.8522,-85.7046"/>
<polygon fill="#191970" stroke="#191970" points="3241.3512,-85.8156 3238.3912,-75.6427 3234.3612,-85.4411 3241.3512,-85.8156"/>
</g>
<!-- Node120&#45;&gt;Node3 -->
<g id="edge53" class="edge">
<title>Node120&#45;&gt;Node3</title>
<path fill="none" stroke="#191970" d="M2029.3854,-118.0336C1936.8829,-111.261 1747.4784,-96.2147 1587.9078,-76 1575.7764,-74.4632 1562.3744,-72.3535 1551.1437,-70.468"/>
<polygon fill="#191970" stroke="#191970" points="1551.6015,-66.9955 1541.1538,-68.7548 1550.4183,-73.8948 1551.6015,-66.9955"/>
</g>
<!-- Node120&#45;&gt;Node5 -->
<g id="edge51" class="edge">
<title>Node120&#45;&gt;Node5</title>
<path fill="none" stroke="#191970" d="M2029.304,-117.7679C1881.0822,-106.6859 1485.0585,-77.0767 1369.1811,-68.413"/>
<polygon fill="#191970" stroke="#191970" points="1369.3968,-64.9194 1359.1637,-67.664 1368.8749,-71.8999 1369.3968,-64.9194"/>
</g>
<!-- Node120&#45;&gt;Node7 -->
<g id="edge52" class="edge">
<title>Node120&#45;&gt;Node7</title>
<path fill="none" stroke="#191970" d="M2072.7338,-112.3793C2051.0871,-97.182 2006.0758,-68.1054 1962.9078,-56 1883.2803,-33.6704 1290.6728,-15.0735 1147.8224,-10.8835"/>
<polygon fill="#191970" stroke="#191970" points="1147.6882,-7.3782 1137.5905,-10.5856 1147.4844,-14.3753 1147.6882,-7.3782"/>
</g>
<!-- Node120&#45;&gt;Node18 -->
<g id="edge49" class="edge">
<title>Node120&#45;&gt;Node18</title>
<path fill="none" stroke="#191970" d="M2058.2309,-112.3733C2031.575,-103.1016 1991.084,-89.0178 1961.7194,-78.804"/>
<polygon fill="#191970" stroke="#191970" points="1962.8184,-75.4807 1952.2235,-75.5011 1960.5187,-82.0921 1962.8184,-75.4807"/>
</g>
<!-- Node120&#45;&gt;Node13 -->
<g id="edge50" class="edge">
<title>Node120&#45;&gt;Node13</title>
<path fill="none" stroke="#191970" d="M2083.435,-112.4C2079.0445,-97.5041 2068.3625,-69.1706 2047.9078,-56 2010.7653,-32.0844 1708.0077,-16.2862 1603.9084,-11.5179"/>
<polygon fill="#191970" stroke="#191970" points="1603.7712,-8.0082 1593.6233,-11.0532 1603.4551,-15.001 1603.7712,-8.0082"/>
</g>
<!-- Node121&#45;&gt;Node7 -->
<g id="edge55" class="edge">
<title>Node121&#45;&gt;Node7</title>
<path fill="none" stroke="#191970" d="M3102.844,-235.4913C3111.0838,-226.8654 3122.1845,-213.3368 3126.9078,-199 3131.219,-185.9141 3132.1803,-180.729 3126.9078,-168 3120.1729,-151.7405 3086.9725,-119.187 3070.9078,-112 3045.5121,-100.6386 2098.6914,-57.4478 2070.9078,-56 1707.9977,-37.0894 1267.2808,-16.8443 1147.9471,-11.4089"/>
<polygon fill="#191970" stroke="#191970" points="1147.8714,-7.902 1137.7226,-10.9437 1147.5531,-14.8947 1147.8714,-7.902"/>
</g>
<!-- Node121&#45;&gt;Node31 -->
<g id="edge58" class="edge">
<title>Node121&#45;&gt;Node31</title>
<path fill="none" stroke="#191970" d="M3099.6838,-235.1543C3109.4441,-219.6318 3124.837,-189.0728 3110.9078,-168 3100.4776,-152.2206 3083.4146,-141.8364 3065.8992,-135.0096"/>
<polygon fill="#191970" stroke="#191970" points="3066.7559,-131.6004 3056.1611,-131.5712 3064.4253,-138.201 3066.7559,-131.6004"/>
</g>
<!-- Node121&#45;&gt;Node44 -->
<g id="edge56" class="edge">
<title>Node121&#45;&gt;Node44</title>
<path fill="none" stroke="#191970" d="M3064.5713,-235.4635C3018.8474,-220.2346 2925.831,-189.9118 2845.9078,-168 2741.9429,-139.4969 2716.6571,-127.024 2609.9078,-112 2562.2756,-105.2962 1838.8689,-74.8996 1663.1508,-67.5861"/>
<polygon fill="#191970" stroke="#191970" points="1663.2148,-64.0859 1653.078,-67.1672 1662.9239,-71.0798 1663.2148,-64.0859"/>
</g>
<!-- Node121&#45;&gt;Node119 -->
<g id="edge57" class="edge">
<title>Node121&#45;&gt;Node119</title>
<path fill="none" stroke="#191970" d="M3151.3014,-238.9092C3201.5414,-232.3212 3268.4571,-219.8576 3284.9078,-199 3300.6203,-179.0784 3277.5063,-153.9531 3257.9895,-137.9279"/>
<polygon fill="#191970" stroke="#191970" points="3260.0033,-135.0596 3249.9691,-131.6588 3255.6924,-140.5747 3260.0033,-135.0596"/>
</g>
<!-- Node34 -->
<g id="node33" class="node">
<title>Node34</title>
<g id="a_node33"><a xlink:href="block_8h.html" target="_top" xlink:title="primitives/block.h">
<polygon fill="#ffffff" stroke="#ff0000" points="3008.4078,-174 3008.4078,-193 3101.4078,-193 3101.4078,-174 3008.4078,-174"/>
<text text-anchor="middle" x="3054.9078" y="-181" font-family="Helvetica,sans-Serif" font-size="10.00" fill="#000000">primitives/block.h</text>
</a>
</g>
</g>
<!-- Node121&#45;&gt;Node34 -->
<g id="edge59" class="edge">
<title>Node121&#45;&gt;Node34</title>
<path fill="none" stroke="#191970" d="M3086.9703,-235.3906C3081.4811,-226.5068 3073.1726,-213.0601 3066.3888,-202.0811"/>
<polygon fill="#191970" stroke="#191970" points="3069.1629,-199.9122 3060.929,-193.2449 3063.208,-203.5917 3069.1629,-199.9122"/>
</g>
<!-- Node34&#45;&gt;Node31 -->
<g id="edge60" class="edge">
<title>Node34&#45;&gt;Node31</title>
<path fill="none" stroke="#191970" d="M3046.7828,-173.8906C3039.0436,-164.7376 3027.2091,-150.7409 3017.7806,-139.59"/>
<polygon fill="#191970" stroke="#191970" points="3020.2767,-137.1213 3011.1474,-131.7449 3014.9314,-141.6409 3020.2767,-137.1213"/>
</g>
<!-- Node122&#45;&gt;Node3 -->
<g id="edge80" class="edge">
<title>Node122&#45;&gt;Node3</title>
<path fill="none" stroke="#191970" d="M860.931,-243.8759C964.149,-240.1058 1279.6543,-226.5678 1377.9078,-199 1442.0173,-181.0123 1471.1841,-184.6798 1511.9078,-132 1522.0828,-118.8378 1525.2768,-99.9649 1526.1041,-85.7695"/>
<polygon fill="#191970" stroke="#191970" points="1529.6074,-85.6675 1526.3483,-75.5864 1522.6094,-85.4996 1529.6074,-85.6675"/>
</g>
<!-- Node122&#45;&gt;Node4 -->
<g id="edge79" class="edge">
<title>Node122&#45;&gt;Node4</title>
<path fill="none" stroke="#191970" d="M794.7139,-242.551C715.8987,-236.4256 522.5263,-219.4546 501.9078,-199 474.2767,-171.5886 465.5376,-140.6265 491.9078,-112 523.4411,-77.7686 849.4571,-85.6962 929.445,-74.9901"/>
<polygon fill="#191970" stroke="#191970" points="930.1401,-78.4219 939.3969,-73.268 928.9466,-71.5244 930.1401,-78.4219"/>
</g>
<!-- Node122&#45;&gt;Node5 -->
<g id="edge84" class="edge">
<title>Node122&#45;&gt;Node5</title>
<path fill="none" stroke="#191970" d="M861.1076,-241.7108C928.9307,-234.7042 1081.0995,-217.4343 1129.9078,-199 1205.7961,-170.338 1283.0051,-111.0104 1317.8142,-82.2867"/>
<polygon fill="#191970" stroke="#191970" points="1320.2921,-84.7773 1325.7238,-75.6807 1315.805,-79.4046 1320.2921,-84.7773"/>
</g>
<!-- Node122&#45;&gt;Node6 -->
<g id="edge83" class="edge">
<title>Node122&#45;&gt;Node6</title>
<path fill="none" stroke="#191970" d="M861.0887,-241.1353C922.5219,-233.6695 1051.4921,-216.4555 1092.9078,-199 1110.9977,-191.3757 1212.3616,-115.074 1256.437,-81.6014"/>
<polygon fill="#191970" stroke="#191970" points="1258.6049,-84.3499 1264.4466,-75.511 1254.3679,-78.7778 1258.6049,-84.3499"/>
</g>
<!-- Node122&#45;&gt;Node7 -->
<g id="edge82" class="edge">
<title>Node122&#45;&gt;Node7</title>
<path fill="none" stroke="#191970" d="M794.8651,-242.6653C702.0248,-235.9251 443.3373,-215.842 408.9078,-199 365.5506,-177.7908 312.6231,-148.7552 343.9078,-112 393.0271,-54.2915 947.7,-19.495 1085.8769,-11.6837"/>
<polygon fill="#191970" stroke="#191970" points="1086.3791,-15.1612 1096.1682,-11.1085 1085.9885,-8.1721 1086.3791,-15.1612"/>
</g>
<!-- Node122&#45;&gt;Node8 -->
<g id="edge75" class="edge">
<title>Node122&#45;&gt;Node8</title>
<path fill="none" stroke="#191970" d="M861.3546,-244.303C1004.7297,-241.1639 1568.0268,-227.2452 1742.9078,-199 1748.3229,-198.1254 1753.964,-196.9231 1759.4909,-195.5717"/>
<polygon fill="#191970" stroke="#191970" points="1760.456,-198.937 1769.2424,-193.0168 1758.6818,-192.1656 1760.456,-198.937"/>
</g>
<!-- Node122&#45;&gt;Node18 -->
<g id="edge62" class="edge">
<title>Node122&#45;&gt;Node18</title>
<path fill="none" stroke="#191970" d="M861.1409,-244.1601C985.3222,-240.8274 1421.9321,-227.3152 1557.9078,-199 1591.8122,-191.9398 1805.5526,-111.3608 1890.3283,-79.1684"/>
<polygon fill="#191970" stroke="#191970" points="1891.6678,-82.4036 1899.7724,-75.5797 1889.1813,-75.8602 1891.6678,-82.4036"/>
</g>
<!-- Node122&#45;&gt;Node13 -->
<g id="edge81" class="edge">
<title>Node122&#45;&gt;Node13</title>
<path fill="none" stroke="#191970" d="M860.9568,-237.1977C888.9569,-229.7742 929.5881,-217.0485 961.9078,-199 1049.3027,-150.1955 1043.5895,-94.6922 1135.9078,-56 1207.7623,-25.8845 1444.6147,-14.4436 1534.1834,-11.1286"/>
<polygon fill="#191970" stroke="#191970" points="1534.4871,-14.62 1544.3553,-10.7639 1534.2362,-7.6245 1534.4871,-14.62"/>
</g>
<!-- Node122&#45;&gt;Node29 -->
<g id="edge74" class="edge">
<title>Node122&#45;&gt;Node29</title>
<path fill="none" stroke="#191970" d="M861.0131,-244.133C1013.7834,-240.0367 1651.6321,-221.8626 1849.9078,-199 1861.8467,-197.6234 1874.6512,-195.5388 1886.5425,-193.3409"/>
<polygon fill="#191970" stroke="#191970" points="1887.5485,-196.712 1896.7126,-191.3951 1886.233,-189.8367 1887.5485,-196.712"/>
</g>
<!-- Node122&#45;&gt;Node30 -->
<g id="edge63" class="edge">
<title>Node122&#45;&gt;Node30</title>
<path fill="none" stroke="#191970" d="M861.0936,-244.073C977.37,-240.6089 1365.8451,-227.1535 1486.9078,-199 1489.7054,-198.3494 1492.5642,-197.5194 1495.3956,-196.5825"/>
<polygon fill="#191970" stroke="#191970" points="1496.6335,-199.8564 1504.7874,-193.0914 1494.1945,-193.295 1496.6335,-199.8564"/>
</g>
<!-- Node122&#45;&gt;Node64 -->
<g id="edge86" class="edge">
<title>Node122&#45;&gt;Node64</title>
<path fill="none" stroke="#191970" d="M794.669,-241.52C767.8762,-236.7681 731.8153,-225.5362 713.9078,-199 706.2008,-187.5794 704.4361,-178.0057 713.9078,-168 764.0914,-114.9869 1297.159,-138.033 1369.9078,-132 1381.662,-131.0252 1394.2564,-129.7629 1406.1891,-128.4654"/>
<polygon fill="#191970" stroke="#191970" points="1406.9154,-131.9063 1416.4672,-127.3224 1406.1416,-124.9492 1406.9154,-131.9063"/>
</g>
<!-- Node122&#45;&gt;Node74 -->
<g id="edge87" class="edge">
<title>Node122&#45;&gt;Node74</title>
<path fill="none" stroke="#191970" d="M794.8866,-242.9168C705.9171,-237.0541 465.9431,-219.4985 436.9078,-199 417.7571,-185.4799 407.7953,-159.5153 402.9596,-141.4965"/>
<polygon fill="#191970" stroke="#191970" points="406.3525,-140.6356 400.6243,-131.7229 399.5442,-142.2625 406.3525,-140.6356"/>
</g>
<!-- Node122&#45;&gt;Node75 -->
<g id="edge64" class="edge">
<title>Node122&#45;&gt;Node75</title>
<path fill="none" stroke="#191970" d="M794.8764,-243.808C663.4893,-238.938 181.9197,-219.8205 116.9078,-199 58.2077,-180.2009 -26.5482,-162.4181 8.9078,-112 20.7971,-95.0935 76.2783,-79.7994 110.1751,-71.8178"/>
<polygon fill="#191970" stroke="#191970" points="111.3729,-75.1342 120.3395,-69.4906 109.8105,-68.3108 111.3729,-75.1342"/>
</g>
<!-- Node122&#45;&gt;Node112 -->
<g id="edge69" class="edge">
<title>Node122&#45;&gt;Node112</title>
<path fill="none" stroke="#191970" d="M860.9268,-244.6549C996.3275,-243.0144 1509.3034,-234.5335 1666.9078,-199 1682.8344,-195.4092 1774.0682,-156.7328 1823.3434,-135.6017"/>
<polygon fill="#191970" stroke="#191970" points="1824.7966,-138.7868 1832.6042,-131.625 1822.0345,-132.3547 1824.7966,-138.7868"/>
</g>
<!-- Node122&#45;&gt;Node100 -->
<g id="edge71" class="edge">
<title>Node122&#45;&gt;Node100</title>
<path fill="none" stroke="#191970" d="M794.7352,-243.7858C734.3643,-240.8038 610.3207,-230.8577 583.9078,-199 498.6301,-96.1431 513.5318,-190.5241 760.9078,-132 762.1826,-131.6984 763.4802,-131.384 764.7895,-131.0607"/>
<polygon fill="#191970" stroke="#191970" points="766.0595,-134.348 774.8726,-128.4676 764.316,-127.5686 766.0595,-134.348"/>
</g>
<!-- Node123 -->
<g id="node35" class="node">
<title>Node123</title>
<g id="a_node35"><a xlink:href="protocol_8h.html" target="_top" xlink:title="protocol.h">
<polygon fill="#ffffff" stroke="#ff0000" points="839.4078,-112.5 839.4078,-131.5 898.4078,-131.5 898.4078,-112.5 839.4078,-112.5"/>
<text text-anchor="middle" x="868.9078" y="-119.5" font-family="Helvetica,sans-Serif" font-size="10.00" fill="#000000">protocol.h</text>
</a>
</g>
</g>
<!-- Node122&#45;&gt;Node123 -->
<g id="edge65" class="edge">
<title>Node122&#45;&gt;Node123</title>
<path fill="none" stroke="#191970" d="M861.0564,-236.5719C892.3699,-227.8605 935.9823,-213.5223 945.9078,-199 953.6821,-187.6252 952.7076,-179.9829 945.9078,-168 937.5862,-153.3352 922.5284,-142.8463 907.9217,-135.6244"/>
<polygon fill="#191970" stroke="#191970" points="909.0166,-132.278 898.4635,-131.3393 906.1278,-138.6542 909.0166,-132.278"/>
</g>
<!-- Node72 -->
<g id="node36" class="node">
<title>Node72</title>
<g id="a_node36"><a xlink:href="script__error_8h.html" target="_top" xlink:title="script_error.h">
<polygon fill="#ffffff" stroke="#000000" points="592.9078,-174 592.9078,-193 666.9078,-193 666.9078,-174 592.9078,-174"/>
<text text-anchor="middle" x="629.9078" y="-181" font-family="Helvetica,sans-Serif" font-size="10.00" fill="#000000">script_error.h</text>
</a>
</g>
</g>
<!-- Node122&#45;&gt;Node72 -->
<g id="edge70" class="edge">
<title>Node122&#45;&gt;Node72</title>
<path fill="none" stroke="#191970" d="M796.9703,-235.3906C762.8242,-224.7846 707.7405,-207.6753 670.2343,-196.0257"/>
<polygon fill="#191970" stroke="#191970" points="671.2162,-192.6658 660.6281,-193.0419 669.1398,-199.3507 671.2162,-192.6658"/>
</g>
<!-- Node125 -->
<g id="node37" class="node">
<title>Node125</title>
<g id="a_node37"><a xlink:href="versionbits_8h.html" target="_top" xlink:title="versionbits.h">
<polygon fill="#ffffff" stroke="#ff0000" points="500.9078,-112.5 500.9078,-131.5 572.9078,-131.5 572.9078,-112.5 500.9078,-112.5"/>
<text text-anchor="middle" x="536.9078" y="-119.5" font-family="Helvetica,sans-Serif" font-size="10.00" fill="#000000">versionbits.h</text>
</a>
</g>
</g>
<!-- Node122&#45;&gt;Node125 -->
<g id="edge72" class="edge">
<title>Node122&#45;&gt;Node125</title>
<path fill="none" stroke="#191970" d="M794.7832,-242.5858C717.6536,-236.629 531.2069,-220.1655 512.9078,-199 498.5356,-182.3766 510.8043,-157.197 522.4515,-140.199"/>
<polygon fill="#191970" stroke="#191970" points="525.591,-141.8368 528.6851,-131.7038 519.9473,-137.6956 525.591,-141.8368"/>
</g>
<!-- Node130 -->
<g id="node38" class="node">
<title>Node130</title>
<g id="a_node38"><a xlink:href="timestampindex_8h.html" target="_top" xlink:title="timestampindex.h">
<polygon fill="#ffffff" stroke="#ff0000" points="722.9078,-174 722.9078,-193 816.9078,-193 816.9078,-174 722.9078,-174"/>
<text text-anchor="middle" x="769.9078" y="-181" font-family="Helvetica,sans-Serif" font-size="10.00" fill="#000000">timestampindex.h</text>
</a>
</g>
</g>
<!-- Node122&#45;&gt;Node130 -->
<g id="edge76" class="edge">
<title>Node122&#45;&gt;Node130</title>
<path fill="none" stroke="#191970" d="M818.8453,-235.3906C810.1285,-226.1478 796.7538,-211.966 786.1882,-200.7628"/>
<polygon fill="#191970" stroke="#191970" points="788.5054,-198.1186 779.0981,-193.2449 783.4129,-202.9213 788.5054,-198.1186"/>
</g>
<!-- Node25 -->
<g id="node39" class="node">
<title>Node25</title>
<polygon fill="#ffffff" stroke="#bfbfbf" points="1144.9078,-56.5 1144.9078,-75.5 1200.9078,-75.5 1200.9078,-56.5 1144.9078,-56.5"/>
<text text-anchor="middle" x="1172.9078" y="-63.5" font-family="Helvetica,sans-Serif" font-size="10.00" fill="#000000">algorithm</text>
</g>
<!-- Node122&#45;&gt;Node25 -->
<g id="edge77" class="edge">
<title>Node122&#45;&gt;Node25</title>
<path fill="none" stroke="#191970" d="M794.8685,-241.8552C725.2188,-234.8924 568.4294,-217.3336 552.9078,-199 544.0053,-188.4847 544.2021,-178.6789 552.9078,-168 603.0819,-106.4537 653.145,-158.7564 727.9078,-132 745.877,-125.5691 747.6666,-117.6129 765.9078,-112 834.4016,-90.9241 1047.3359,-74.5207 1134.8073,-68.4969"/>
<polygon fill="#191970" stroke="#191970" points="1135.0953,-71.9855 1144.8344,-67.8141 1134.6197,-65.0017 1135.0953,-71.9855"/>
</g>
<!-- Node107 -->
<g id="node40" class="node">
<title>Node107</title>
<polygon fill="#ffffff" stroke="#bfbfbf" points="173.4078,-112.5 173.4078,-131.5 232.4078,-131.5 232.4078,-112.5 173.4078,-112.5"/>
<text text-anchor="middle" x="202.9078" y="-119.5" font-family="Helvetica,sans-Serif" font-size="10.00" fill="#000000">exception</text>
</g>
<!-- Node122&#45;&gt;Node107 -->
<g id="edge78" class="edge">
<title>Node122&#45;&gt;Node107</title>
<path fill="none" stroke="#191970" d="M794.8671,-243.4815C684.1361,-238.2175 330.487,-219.9253 283.9078,-199 255.0093,-186.0176 230.023,-158.2715 215.7147,-139.8763"/>
<polygon fill="#191970" stroke="#191970" points="218.381,-137.5982 209.5779,-131.7027 212.7831,-141.8011 218.381,-137.5982"/>
</g>
<!-- Node106 -->
<g id="node41" class="node">
<title>Node106</title>
<polygon fill="#ffffff" stroke="#bfbfbf" points="250.9078,-112.5 250.9078,-131.5 296.9078,-131.5 296.9078,-112.5 250.9078,-112.5"/>
<text text-anchor="middle" x="273.9078" y="-119.5" font-family="Helvetica,sans-Serif" font-size="10.00" fill="#000000">atomic</text>
</g>
<!-- Node122&#45;&gt;Node106 -->
<g id="edge85" class="edge">
<title>Node122&#45;&gt;Node106</title>
<path fill="none" stroke="#191970" d="M794.6851,-243.9347C686.7522,-240.2159 350.6311,-226.5156 310.9078,-199 291.6339,-185.6493 282.0548,-159.4246 277.5467,-141.3169"/>
<polygon fill="#191970" stroke="#191970" points="280.9583,-140.5342 275.3985,-131.5154 274.1207,-142.0329 280.9583,-140.5342"/>
</g>
<!-- Node131 -->
<g id="node42" class="node">
<title>Node131</title>
<g id="a_node42"><a xlink:href="messages_8h.html" target="_top" xlink:title="assets/messages.h">
<polygon fill="#ffffff" stroke="#ff0000" points="834.9078,-174 834.9078,-193 936.9078,-193 936.9078,-174 834.9078,-174"/>
<text text-anchor="middle" x="885.9078" y="-181" font-family="Helvetica,sans-Serif" font-size="10.00" fill="#000000">assets/messages.h</text>
</a>
</g>
</g>
<!-- Node122&#45;&gt;Node131 -->
<g id="edge88" class="edge">
<title>Node122&#45;&gt;Node131</title>
<path fill="none" stroke="#191970" d="M836.9703,-235.3906C845.6871,-226.1478 859.0618,-211.966 869.6274,-200.7628"/>
<polygon fill="#191970" stroke="#191970" points="872.4028,-202.9213 876.7175,-193.2449 867.3102,-198.1186 872.4028,-202.9213"/>
</g>
<!-- Node123&#45;&gt;Node7 -->
<g id="edge68" class="edge">
<title>Node123&#45;&gt;Node7</title>
<path fill="none" stroke="#191970" d="M862.578,-112.2607C854.3115,-98.1904 842.3949,-72.1027 855.9078,-56 884.9853,-21.3496 1023.3666,-12.7902 1085.993,-10.6838"/>
<polygon fill="#191970" stroke="#191970" points="1086.176,-14.1799 1096.0656,-10.3792 1085.9643,-7.1831 1086.176,-14.1799"/>
</g>
<!-- Node123&#45;&gt;Node13 -->
<g id="edge67" class="edge">
<title>Node123&#45;&gt;Node13</title>
<path fill="none" stroke="#191970" d="M891.6523,-112.3902C927.6889,-97.6138 1000.4407,-69.6001 1064.9078,-56 1155.0112,-36.9916 1435.4585,-18.2715 1534.1352,-12.1114"/>
<polygon fill="#191970" stroke="#191970" points="1534.4155,-15.6008 1544.1797,-11.4886 1533.9823,-8.6142 1534.4155,-15.6008"/>
</g>
<!-- Node123&#45;&gt;Node44 -->
<g id="edge66" class="edge">
<title>Node123&#45;&gt;Node44</title>
<path fill="none" stroke="#191970" d="M898.5022,-120.6906C993.3849,-116.345 1298.472,-101.2273 1549.9078,-76 1561.9377,-74.793 1575.012,-73.1613 1586.8246,-71.5663"/>
<polygon fill="#191970" stroke="#191970" points="1587.3955,-75.0208 1596.8227,-70.1857 1586.4379,-68.0866 1587.3955,-75.0208"/>
</g>
<!-- Node125&#45;&gt;Node4 -->
<g id="edge73" class="edge">
<title>Node125&#45;&gt;Node4</title>
<path fill="none" stroke="#191970" d="M572.9955,-113.7596C576.3376,-113.116 579.6798,-112.5167 582.9078,-112 732.7196,-88.0204 777.0129,-110.2066 929.2014,-75.5761"/>
<polygon fill="#191970" stroke="#191970" points="930.4349,-78.8829 939.3841,-73.2118 928.8516,-72.0643 930.4349,-78.8829"/>
</g>
<!-- Node134&#45;&gt;Node7 -->
<g id="edge92" class="edge">
<title>Node134&#45;&gt;Node7</title>
<path fill="none" stroke="#191970" d="M3222.4712,-173.8076C3199.4768,-157.795 3150.5366,-126.1796 3103.9078,-112 2850.2082,-34.8509 2774.5439,-72.8281 2509.9078,-56 2231.8441,-38.318 1326.762,-15.223 1147.8095,-10.7634"/>
<polygon fill="#191970" stroke="#191970" points="1147.8468,-7.2633 1137.7629,-10.5136 1147.6728,-14.2611 1147.8468,-7.2633"/>
</g>
<!-- Node134&#45;&gt;Node112 -->
<g id="edge91" class="edge">
<title>Node134&#45;&gt;Node112</title>
<path fill="none" stroke="#191970" d="M3196.3119,-177.6616C3171.7743,-174.2746 3139.5758,-170.2462 3110.9078,-168 2627.6802,-130.1378 2505.0904,-154.5753 2020.9078,-132 1982.6526,-130.2163 1939.4744,-127.5963 1906.7453,-125.4855"/>
<polygon fill="#191970" stroke="#191970" points="1906.7116,-121.9761 1896.5056,-124.8198 1906.2574,-128.9613 1906.7116,-121.9761"/>
</g>
<!-- Node134&#45;&gt;Node119 -->
<g id="edge90" class="edge">
<title>Node134&#45;&gt;Node119</title>
<path fill="none" stroke="#191970" d="M3235.9078,-173.8906C3235.9078,-165.3657 3235.9078,-152.6392 3235.9078,-141.9235"/>
<polygon fill="#191970" stroke="#191970" points="3239.4079,-141.7448 3235.9078,-131.7449 3232.4079,-141.7449 3239.4079,-141.7448"/>
</g>
<!-- Node135&#45;&gt;Node4 -->
<g id="edge98" class="edge">
<title>Node135&#45;&gt;Node4</title>
<path fill="none" stroke="#191970" d="M1304.8279,-173.927C1297.7349,-171.7496 1290.0915,-169.6076 1282.9078,-168 1170.7838,-142.9084 1130.4738,-181.754 1026.9078,-132 1003.7505,-120.875 983.1506,-99.2927 970.3947,-83.8353"/>
<polygon fill="#191970" stroke="#191970" points="972.7897,-81.2229 963.8306,-75.5673 967.3074,-85.5755 972.7897,-81.2229"/>
</g>
<!-- Node135&#45;&gt;Node5 -->
<g id="edge100" class="edge">
<title>Node135&#45;&gt;Node5</title>
<path fill="none" stroke="#191970" d="M1320.0394,-173.8016C1304.0555,-160.4827 1280.0253,-135.5004 1289.9078,-112 1294.9057,-100.1153 1304.6392,-89.765 1313.9581,-81.908"/>
<polygon fill="#191970" stroke="#191970" points="1316.2035,-84.5951 1321.9113,-75.6692 1311.883,-79.0874 1316.2035,-84.5951"/>
</g>
<!-- Node135&#45;&gt;Node7 -->
<g id="edge99" class="edge">
<title>Node135&#45;&gt;Node7</title>
<path fill="none" stroke="#191970" d="M1303.9752,-173.9477C1297.1095,-171.8434 1289.7824,-169.729 1282.9078,-168 1201.6732,-147.5687 1151.1819,-196.6403 1097.9078,-132 1073.4884,-102.3707 1092.5418,-54.4785 1106.1886,-28.3846"/>
<polygon fill="#191970" stroke="#191970" points="1109.3032,-29.9841 1111.0522,-19.5346 1103.1686,-26.6127 1109.3032,-29.9841"/>
</g>
<!-- Node135&#45;&gt;Node18 -->
<g id="edge94" class="edge">
<title>Node135&#45;&gt;Node18</title>
<path fill="none" stroke="#191970" d="M1368.9506,-178.606C1428.2247,-170.3508 1549.8903,-152.5349 1651.9078,-132 1736.1596,-115.0411 1833.8026,-90.1498 1886.4624,-76.2872"/>
<polygon fill="#191970" stroke="#191970" points="1887.6033,-79.6059 1896.3773,-73.6673 1885.815,-72.8382 1887.6033,-79.6059"/>
</g>
<!-- Node135&#45;&gt;Node112 -->
<g id="edge95" class="edge">
<title>Node135&#45;&gt;Node112</title>
<path fill="none" stroke="#191970" d="M1369.1994,-179.2243C1460.0443,-168.5213 1697.5034,-140.5448 1803.0483,-128.1099"/>
<polygon fill="#191970" stroke="#191970" points="1803.6213,-131.5667 1813.1431,-126.9206 1802.8022,-124.6148 1803.6213,-131.5667"/>
</g>
<!-- Node135&#45;&gt;Node100 -->
<g id="edge97" class="edge">
<title>Node135&#45;&gt;Node100</title>
<path fill="none" stroke="#191970" d="M1296.6381,-182.1657C1215.0128,-178.6547 1010.6864,-167.0245 831.0894,-131.641"/>
<polygon fill="#191970" stroke="#191970" points="831.6946,-128.1928 821.2024,-129.6637 830.3218,-135.0569 831.6946,-128.1928"/>
</g>
<!-- Node135&#45;&gt;Node113 -->
<g id="edge96" class="edge">
<title>Node135&#45;&gt;Node113</title>
<path fill="none" stroke="#191970" d="M1369.1714,-179.3959C1401.368,-175.8881 1449.7151,-170.9529 1491.9078,-168 1898.3344,-139.5558 2392.1186,-126.2737 2532.8179,-122.8935"/>
<polygon fill="#191970" stroke="#191970" points="2533.1738,-126.3861 2543.0877,-122.6494 2533.0074,-119.3881 2533.1738,-126.3861"/>
</g>
<!-- Node82&#45;&gt;Node3 -->
<g id="edge105" class="edge">
<title>Node82&#45;&gt;Node3</title>
<path fill="none" stroke="#191970" d="M1167.1083,-117.6524C1241.4948,-106.9438 1432.4674,-79.4516 1500.9779,-69.5889"/>
<polygon fill="#191970" stroke="#191970" points="1501.4861,-73.0519 1510.8853,-68.1626 1500.4886,-66.1233 1501.4861,-73.0519"/>
</g>
<!-- Node82&#45;&gt;Node4 -->
<g id="edge104" class="edge">
<title>Node82&#45;&gt;Node4</title>
<path fill="none" stroke="#191970" d="M1106.7799,-112.6269C1072.6435,-102.0067 1017.4761,-84.8435 984.4483,-74.5682"/>
<polygon fill="#191970" stroke="#191970" points="985.146,-71.1198 974.5577,-71.4911 983.0665,-77.8038 985.146,-71.1198"/>
</g>
<!-- Node82&#45;&gt;Node5 -->
<g id="edge109" class="edge">
<title>Node82&#45;&gt;Node5</title>
<path fill="none" stroke="#191970" d="M1166.9438,-114.2734C1198.9083,-105.9526 1251.1735,-92.068 1304.905,-76.2107"/>
<polygon fill="#191970" stroke="#191970" points="1306.0049,-79.5352 1314.5952,-73.3339 1304.0126,-72.8247 1306.0049,-79.5352"/>
</g>
<!-- Node82&#45;&gt;Node6 -->
<g id="edge108" class="edge">
<title>Node82&#45;&gt;Node6</title>
<path fill="none" stroke="#191970" d="M1160.9747,-112.3733C1184.8549,-102.8211 1221.5045,-88.1613 1247.1879,-77.888"/>
<polygon fill="#191970" stroke="#191970" points="1248.7957,-81.0145 1256.7805,-74.0509 1246.1959,-74.5152 1248.7957,-81.0145"/>
</g>
<!-- Node82&#45;&gt;Node7 -->
<g id="edge107" class="edge">
<title>Node82&#45;&gt;Node7</title>
<path fill="none" stroke="#191970" d="M1135.2026,-112.4509C1131.9259,-94.1013 1124.6919,-53.5908 1120.3666,-29.3693"/>
<polygon fill="#191970" stroke="#191970" points="1123.8122,-28.7539 1118.6087,-19.5249 1116.9212,-29.9845 1123.8122,-28.7539"/>
</g>
<!-- Node82&#45;&gt;Node13 -->
<g id="edge106" class="edge">
<title>Node82&#45;&gt;Node13</title>
<path fill="none" stroke="#191970" d="M1152.3488,-112.3592C1180.3964,-94.9163 1237.76,-59.5826 1247.9078,-56 1300.1702,-37.5491 1461.9234,-20.2693 1533.8311,-13.2735"/>
<polygon fill="#191970" stroke="#191970" points="1534.5493,-16.7206 1544.168,-12.2786 1533.8786,-9.7528 1534.5493,-16.7206"/>
</g>
<!-- Node82&#45;&gt;Node25 -->
<g id="edge103" class="edge">
<title>Node82&#45;&gt;Node25</title>
<path fill="none" stroke="#191970" d="M1143.1785,-112.2455C1148.1342,-104.5367 1155.1908,-93.5598 1161.1854,-84.2348"/>
<polygon fill="#191970" stroke="#191970" points="1164.2455,-85.9471 1166.7089,-75.6427 1158.3572,-82.1618 1164.2455,-85.9471"/>
</g>
<!-- Node138&#45;&gt;Node5 -->
<g id="edge113" class="edge">
<title>Node138&#45;&gt;Node5</title>
<path fill="none" stroke="#191970" d="M1331.1271,-112.2455C1332.0405,-104.9382 1333.321,-94.6944 1334.4447,-85.7046"/>
<polygon fill="#191970" stroke="#191970" points="1337.935,-85.9996 1335.7025,-75.6427 1330.9891,-85.1313 1337.935,-85.9996"/>
</g>
<!-- Node138&#45;&gt;Node13 -->
<g id="edge112" class="edge">
<title>Node138&#45;&gt;Node13</title>
<path fill="none" stroke="#191970" d="M1350.2848,-112.4509C1392.6165,-92.6135 1490.2174,-46.8758 1539.4183,-23.8194"/>
<polygon fill="#191970" stroke="#191970" points="1541.0125,-26.9376 1548.5824,-19.5249 1538.0421,-20.599 1541.0125,-26.9376"/>
</g>
<!-- Node138&#45;&gt;Node25 -->
<g id="edge111" class="edge">
<title>Node138&#45;&gt;Node25</title>
<path fill="none" stroke="#191970" d="M1302.9185,-112.3733C1277.0379,-103.1419 1237.783,-89.1402 1209.1789,-78.9375"/>
<polygon fill="#191970" stroke="#191970" points="1210.1395,-75.5642 1199.5449,-75.5011 1207.7878,-82.1573 1210.1395,-75.5642"/>
</g>
<!-- Node85&#45;&gt;Node4 -->
<g id="edge122" class="edge">
<title>Node85&#45;&gt;Node4</title>
<path fill="none" stroke="#191970" d="M138.392,-173.7064C129.0938,-158.4002 114.8252,-128.8235 130.9078,-112 190.4573,-49.707 803.9636,-90.9666 928.8855,-75.1203"/>
<polygon fill="#191970" stroke="#191970" points="929.8119,-78.5161 939.1248,-73.4644 928.6943,-71.6059 929.8119,-78.5161"/>
</g>
<!-- Node85&#45;&gt;Node5 -->
<g id="edge125" class="edge">
<title>Node85&#45;&gt;Node5</title>
<path fill="none" stroke="#191970" d="M144.2058,-173.9731C143.6317,-158.2045 145.101,-126.9393 163.9078,-112 211.9605,-73.8291 1176.0643,-85.9578 1304.5361,-75.168"/>
<polygon fill="#191970" stroke="#191970" points="1305.22,-78.6119 1314.7449,-73.9723 1304.4056,-71.6594 1305.22,-78.6119"/>
</g>
<!-- Node85&#45;&gt;Node7 -->
<g id="edge124" class="edge">
<title>Node85&#45;&gt;Node7</title>
<path fill="none" stroke="#191970" d="M125.6438,-181.488C82.0068,-176.0807 -18.5345,-158.3726 8.9078,-112 35.2461,-67.4931 61.1193,-69.9882 110.9078,-56 206.6553,-29.0995 926.9463,-13.6782 1085.9204,-10.5818"/>
<polygon fill="#191970" stroke="#191970" points="1086.4495,-14.0723 1096.3802,-10.3802 1086.3145,-7.0736 1086.4495,-14.0723"/>
</g>
<!-- Node85&#45;&gt;Node13 -->
<g id="edge123" class="edge">
<title>Node85&#45;&gt;Node13</title>
<path fill="none" stroke="#191970" d="M126.273,-173.7901C101.7651,-159.8223 64.0163,-133.3867 83.9078,-112 142.48,-49.0251 770.1059,-61.8797 855.9078,-56 1116.4659,-38.1449 1430.7264,-18.5439 1534.1031,-12.1467"/>
<polygon fill="#191970" stroke="#191970" points="1534.5094,-15.6283 1544.2743,-11.5177 1534.0774,-8.6416 1534.5094,-15.6283"/>
</g>
<!-- Node85&#45;&gt;Node75 -->
<g id="edge115" class="edge">
<title>Node85&#45;&gt;Node75</title>
<path fill="none" stroke="#191970" d="M125.6051,-182.186C96.3106,-179.032 41.4462,-168.323 16.9078,-132 -8.0004,-95.1296 67.6346,-76.8955 110.1256,-69.7538"/>
<polygon fill="#191970" stroke="#191970" points="110.8018,-73.1905 120.1329,-68.1725 109.7092,-66.2763 110.8018,-73.1905"/>
</g>
<!-- Node85&#45;&gt;Node100 -->
<g id="edge116" class="edge">
<title>Node85&#45;&gt;Node100</title>
<path fill="none" stroke="#191970" d="M164.0698,-182.1838C237.3542,-177.0701 506.8531,-157.5345 727.9078,-132 739.859,-130.6195 752.9182,-128.8305 764.4858,-127.148"/>
<polygon fill="#191970" stroke="#191970" points="765.2359,-130.5752 774.6151,-125.6477 764.2101,-123.6508 765.2359,-130.5752"/>
</g>
<!-- Node85&#45;&gt;Node108 -->
<g id="edge126" class="edge">
<title>Node85&#45;&gt;Node108</title>
<path fill="none" stroke="#191970" d="M164.0918,-181.3698C223.966,-174.6937 412.9162,-153.4184 581.1858,-132.0724"/>
<polygon fill="#191970" stroke="#191970" points="581.7374,-135.5306 591.2159,-130.7968 580.8542,-128.5865 581.7374,-135.5306"/>
</g>
<!-- Node85&#45;&gt;Node107 -->
<g id="edge121" class="edge">
<title>Node85&#45;&gt;Node107</title>
<path fill="none" stroke="#191970" d="M153.9703,-173.8906C162.6871,-164.6478 176.0618,-150.466 186.6274,-139.2628"/>
<polygon fill="#191970" stroke="#191970" points="189.4028,-141.4213 193.7175,-131.7449 184.3102,-136.6186 189.4028,-141.4213"/>
</g>
<!-- Node85&#45;&gt;Node106 -->
<g id="edge120" class="edge">
<title>Node85&#45;&gt;Node106</title>
<path fill="none" stroke="#191970" d="M163.9422,-174.4255C185.2261,-164.2785 219.9489,-147.7246 244.6803,-135.9341"/>
<polygon fill="#191970" stroke="#191970" points="246.4256,-138.9794 253.9461,-131.5166 243.4132,-132.6608 246.4256,-138.9794"/>
</g>
<!-- Node85&#45;&gt;Node105 -->
<g id="edge117" class="edge">
<title>Node85&#45;&gt;Node105</title>
<path fill="none" stroke="#191970" d="M129.2224,-173.8866C107.7271,-159.5786 73.8355,-132.2004 92.9078,-112 119.3407,-84.0036 698.4822,-70.0251 854.4919,-66.759"/>
<polygon fill="#191970" stroke="#191970" points="854.6383,-70.2568 864.5638,-66.5508 854.4936,-63.2583 854.6383,-70.2568"/>
</g>
<!-- Node105&#45;&gt;Node7 -->
<g id="edge119" class="edge">
<title>Node105&#45;&gt;Node7</title>
<path fill="none" stroke="#191970" d="M921.1174,-58.5265C924.4161,-57.6674 927.735,-56.8098 930.9078,-56 985.472,-42.0741 1049.2087,-26.4505 1086.1258,-17.4643"/>
<polygon fill="#191970" stroke="#191970" points="1087.3497,-20.7687 1096.2397,-15.0051 1085.6958,-13.9669 1087.3497,-20.7687"/>
</g>
<!-- Node105&#45;&gt;Node13 -->
<g id="edge118" class="edge">
<title>Node105&#45;&gt;Node13</title>
<path fill="none" stroke="#191970" d="M921.0037,-57.9858C924.3228,-57.2237 927.6776,-56.5367 930.9078,-56 1048.6938,-36.4294 1418.7619,-17.2803 1534.1769,-11.6532"/>
<polygon fill="#191970" stroke="#191970" points="1534.4074,-15.1462 1544.2262,-11.1661 1534.0685,-8.1544 1534.4074,-15.1462"/>
</g>
<!-- Node139&#45;&gt;Node7 -->
<g id="edge129" class="edge">
<title>Node139&#45;&gt;Node7</title>
<path fill="none" stroke="#191970" d="M3345.5952,-112.0048C3332.0417,-96.5675 3303.5034,-67.5054 3271.9078,-56 3181.2653,-22.9929 1632.349,-22.1508 1535.9078,-20 1390.8995,-16.7661 1217.6725,-12.5053 1148.0914,-10.7776"/>
<polygon fill="#191970" stroke="#191970" points="1147.9181,-7.2723 1137.8342,-10.5226 1147.7441,-14.2701 1147.9181,-7.2723"/>
</g>
<!-- Node139&#45;&gt;Node18 -->
<g id="edge130" class="edge">
<title>Node139&#45;&gt;Node18</title>
<path fill="none" stroke="#191970" d="M3314.7059,-113.2597C3311.7384,-112.774 3308.7814,-112.3446 3305.9078,-112 3035.4836,-79.5718 2158.2629,-68.4798 1963.465,-66.3871"/>
<polygon fill="#191970" stroke="#191970" points="1963.4504,-62.8869 1953.4139,-66.2807 1963.3762,-69.8865 1963.4504,-62.8869"/>
</g>
<!-- Node139&#45;&gt;Node13 -->
<g id="edge128" class="edge">
<title>Node139&#45;&gt;Node13</title>
<path fill="none" stroke="#191970" d="M3351.9733,-112.2574C3348.3995,-97.1663 3339.1935,-68.5699 3318.9078,-56 3281.0814,-32.561 1846.9997,-13.499 1603.7846,-10.4315"/>
<polygon fill="#191970" stroke="#191970" points="1603.7788,-6.9312 1593.7357,-10.3053 1603.6909,-13.9307 1603.7788,-6.9312"/>
</g>
</g>
</svg>
