<?xml version="1.0" encoding="UTF-8" standalone="no"?>
<!DOCTYPE svg PUBLIC "-//W3C//DTD SVG 1.1//EN"
 "http://www.w3.org/Graphics/SVG/1.1/DTD/svg11.dtd">
<!-- Generated by graphviz version 2.40.1 (20161225.0304)
 -->
<!-- Title: src/util.h Pages: 1 -->
<svg width="2559pt" height="151pt"
 viewBox="0.00 0.00 2559.00 151.00" xmlns="http://www.w3.org/2000/svg" xmlns:xlink="http://www.w3.org/1999/xlink">
<g id="graph0" class="graph" transform="scale(1 1) rotate(0) translate(4 147)">
<title>src/util.h</title>
<polygon fill="#ffffff" stroke="transparent" points="-4,4 -4,-147 2555,-147 2555,4 -4,4"/>
<!-- Node0 -->
<g id="node1" class="node">
<title>Node0</title>
<polygon fill="#bfbfbf" stroke="#000000" points="1948.5,-123.5 1948.5,-142.5 2002.5,-142.5 2002.5,-123.5 1948.5,-123.5"/>
<text text-anchor="middle" x="1975.5" y="-130.5" font-family="Helvetica,sans-Serif" font-size="10.00" fill="#000000">src/util.h</text>
</g>
<!-- Node1 -->
<g id="node2" class="node">
<title>Node1</title>
<g id="a_node2"><a xlink:href="compat_8h.html" target="_top" xlink:title="compat.h">
<polygon fill="#ffffff" stroke="#000000" points="563,-67.5 563,-86.5 620,-86.5 620,-67.5 563,-67.5"/>
<text text-anchor="middle" x="591.5" y="-74.5" font-family="Helvetica,sans-Serif" font-size="10.00" fill="#000000">compat.h</text>
</a>
</g>
</g>
<!-- Node0&#45;&gt;Node1 -->
<g id="edge1" class="edge">
<title>Node0&#45;&gt;Node1</title>
<path fill="none" stroke="#191970" d="M1948.4746,-131.9065C1776.3685,-124.9427 834.0948,-86.816 630.3537,-78.5721"/>
<polygon fill="#191970" stroke="#191970" points="630.2686,-75.0659 620.1352,-78.1587 629.9855,-82.0602 630.2686,-75.0659"/>
</g>
<!-- Node16 -->
<g id="node17" class="node">
<title>Node16</title>
<g id="a_node17"><a xlink:href="fs_8h.html" target="_top" xlink:title="fs.h">
<polygon fill="#ffffff" stroke="#000000" points="1415,-67.5 1415,-86.5 1448,-86.5 1448,-67.5 1415,-67.5"/>
<text text-anchor="middle" x="1431.5" y="-74.5" font-family="Helvetica,sans-Serif" font-size="10.00" fill="#000000">fs.h</text>
</a>
</g>
</g>
<!-- Node0&#45;&gt;Node16 -->
<g id="edge16" class="edge">
<title>Node0&#45;&gt;Node16</title>
<path fill="none" stroke="#191970" d="M1948.1501,-130.1846C1854.9819,-120.5937 1550.6594,-89.2664 1458.3108,-79.7599"/>
<polygon fill="#191970" stroke="#191970" points="1458.4339,-76.2542 1448.128,-78.7117 1457.717,-83.2174 1458.4339,-76.2542"/>
</g>
<!-- Node18 -->
<g id="node19" class="node">
<title>Node18</title>
<polygon fill="#ffffff" stroke="#bfbfbf" points="1094,-6 1094,-25 1135,-25 1135,-6 1094,-6"/>
<text text-anchor="middle" x="1114.5" y="-13" font-family="Helvetica,sans-Serif" font-size="10.00" fill="#000000">string</text>
</g>
<!-- Node0&#45;&gt;Node18 -->
<g id="edge40" class="edge">
<title>Node0&#45;&gt;Node18</title>
<path fill="none" stroke="#191970" d="M1948.4521,-132.3431C1808.7059,-128.8448 1173.6888,-111.6347 1140.5,-87 1124.3855,-75.0388 1118.2406,-52.0899 1115.9076,-35.4091"/>
<polygon fill="#191970" stroke="#191970" points="1119.348,-34.6556 1114.8258,-25.0744 1112.386,-35.3844 1119.348,-34.6556"/>
</g>
<!-- Node22 -->
<g id="node23" class="node">
<title>Node22</title>
<g id="a_node23"><a xlink:href="sync_8h.html" target="_top" xlink:title="sync.h">
<polygon fill="#ffffff" stroke="#000000" points="1915.5,-67.5 1915.5,-86.5 1961.5,-86.5 1961.5,-67.5 1915.5,-67.5"/>
<text text-anchor="middle" x="1938.5" y="-74.5" font-family="Helvetica,sans-Serif" font-size="10.00" fill="#000000">sync.h</text>
</a>
</g>
</g>
<!-- Node0&#45;&gt;Node22 -->
<g id="edge22" class="edge">
<title>Node0&#45;&gt;Node22</title>
<path fill="none" stroke="#191970" d="M1969.0551,-123.2455C1963.9618,-115.5367 1956.7092,-104.5598 1950.548,-95.2348"/>
<polygon fill="#191970" stroke="#191970" points="1953.3038,-93.0566 1944.8711,-86.6427 1947.4635,-96.9155 1953.3038,-93.0566"/>
</g>
<!-- Node27 -->
<g id="node28" class="node">
<title>Node27</title>
<g id="a_node28"><a xlink:href="tinyformat_8h.html" target="_top" xlink:title="tinyformat.h">
<polygon fill="#ffffff" stroke="#000000" points="1979.5,-67.5 1979.5,-86.5 2047.5,-86.5 2047.5,-67.5 1979.5,-67.5"/>
<text text-anchor="middle" x="2013.5" y="-74.5" font-family="Helvetica,sans-Serif" font-size="10.00" fill="#000000">tinyformat.h</text>
</a>
</g>
</g>
<!-- Node0&#45;&gt;Node27 -->
<g id="edge27" class="edge">
<title>Node0&#45;&gt;Node27</title>
<path fill="none" stroke="#191970" d="M1982.1191,-123.2455C1987.4046,-115.4564 1994.9541,-104.3308 2001.3238,-94.9439"/>
<polygon fill="#191970" stroke="#191970" points="2004.2379,-96.8827 2006.9568,-86.6427 1998.4455,-92.9522 2004.2379,-96.8827"/>
</g>
<!-- Node33 -->
<g id="node34" class="node">
<title>Node33</title>
<g id="a_node34"><a xlink:href="utiltime_8h.html" target="_top" xlink:title="utiltime.h">
<polygon fill="#ffffff" stroke="#000000" points="1149.5,-67.5 1149.5,-86.5 1205.5,-86.5 1205.5,-67.5 1149.5,-67.5"/>
<text text-anchor="middle" x="1177.5" y="-74.5" font-family="Helvetica,sans-Serif" font-size="10.00" fill="#000000">utiltime.h</text>
</a>
</g>
</g>
<!-- Node0&#45;&gt;Node33 -->
<g id="edge33" class="edge">
<title>Node0&#45;&gt;Node33</title>
<path fill="none" stroke="#191970" d="M1948.3287,-131.6097C1854.4962,-126.726 1535.4278,-109.4317 1272.5,-87 1253.8897,-85.4123 1233.2672,-83.2861 1216.0049,-81.4025"/>
<polygon fill="#191970" stroke="#191970" points="1216.063,-77.8877 1205.739,-80.268 1215.2941,-84.8453 1216.063,-77.8877"/>
</g>
<!-- Node34 -->
<g id="node35" class="node">
<title>Node34</title>
<polygon fill="#ffffff" stroke="#bfbfbf" points="1153,-6 1153,-25 1202,-25 1202,-6 1153,-6"/>
<text text-anchor="middle" x="1177.5" y="-13" font-family="Helvetica,sans-Serif" font-size="10.00" fill="#000000">stdint.h</text>
</g>
<!-- Node0&#45;&gt;Node34 -->
<g id="edge39" class="edge">
<title>Node0&#45;&gt;Node34</title>
<path fill="none" stroke="#191970" d="M1948.2499,-132.7312C1865.7684,-131.5064 1611.8115,-124.7074 1405.5,-87 1317.2198,-70.8651 1295.6662,-62.1413 1211.5,-31 1209.8687,-30.3964 1208.2061,-29.7492 1206.5368,-29.0742"/>
<polygon fill="#191970" stroke="#191970" points="1207.6413,-25.7396 1197.0714,-25.0134 1204.8814,-32.1726 1207.6413,-25.7396"/>
</g>
<!-- Node35 -->
<g id="node36" class="node">
<title>Node35</title>
<polygon fill="#ffffff" stroke="#bfbfbf" points="2065.5,-67.5 2065.5,-86.5 2111.5,-86.5 2111.5,-67.5 2065.5,-67.5"/>
<text text-anchor="middle" x="2088.5" y="-74.5" font-family="Helvetica,sans-Serif" font-size="10.00" fill="#000000">atomic</text>
</g>
<!-- Node0&#45;&gt;Node35 -->
<g id="edge36" class="edge">
<title>Node0&#45;&gt;Node35</title>
<path fill="none" stroke="#191970" d="M1994.9254,-123.3733C2012.9021,-114.4644 2039.8441,-101.1127 2060.209,-91.0203"/>
<polygon fill="#191970" stroke="#191970" points="2061.9222,-94.0776 2069.3281,-86.5011 2058.8139,-87.8055 2061.9222,-94.0776"/>
</g>
<!-- Node36 -->
<g id="node37" class="node">
<title>Node36</title>
<polygon fill="#ffffff" stroke="#bfbfbf" points="2130,-67.5 2130,-86.5 2189,-86.5 2189,-67.5 2130,-67.5"/>
<text text-anchor="middle" x="2159.5" y="-74.5" font-family="Helvetica,sans-Serif" font-size="10.00" fill="#000000">exception</text>
</g>
<!-- Node0&#45;&gt;Node36 -->
<g id="edge37" class="edge">
<title>Node0&#45;&gt;Node36</title>
<path fill="none" stroke="#191970" d="M2002.6498,-124.737C2033.5847,-115.3221 2084.4228,-99.8496 2119.8046,-89.0812"/>
<polygon fill="#191970" stroke="#191970" points="2121.249,-92.3002 2129.7967,-86.0401 2119.2108,-85.6035 2121.249,-92.3002"/>
</g>
<!-- Node37 -->
<g id="node38" class="node">
<title>Node37</title>
<polygon fill="#ffffff" stroke="#bfbfbf" points="2207,-67.5 2207,-86.5 2242,-86.5 2242,-67.5 2207,-67.5"/>
<text text-anchor="middle" x="2224.5" y="-74.5" font-family="Helvetica,sans-Serif" font-size="10.00" fill="#000000">map</text>
</g>
<!-- Node0&#45;&gt;Node37 -->
<g id="edge38" class="edge">
<title>Node0&#45;&gt;Node37</title>
<path fill="none" stroke="#191970" d="M2002.624,-128.8785C2043.1386,-122.4081 2121.9312,-108.6133 2196.6884,-87.2055"/>
<polygon fill="#191970" stroke="#191970" points="2198.11,-90.4367 2206.7295,-84.2759 2196.1494,-83.7169 2198.11,-90.4367"/>
</g>
<!-- Node38 -->
<g id="node39" class="node">
<title>Node38</title>
<polygon fill="#ffffff" stroke="#bfbfbf" points="2260.5,-67.5 2260.5,-86.5 2304.5,-86.5 2304.5,-67.5 2260.5,-67.5"/>
<text text-anchor="middle" x="2282.5" y="-74.5" font-family="Helvetica,sans-Serif" font-size="10.00" fill="#000000">vector</text>
</g>
<!-- Node0&#45;&gt;Node38 -->
<g id="edge41" class="edge">
<title>Node0&#45;&gt;Node38</title>
<path fill="none" stroke="#191970" d="M2002.7991,-129.8022C2050.9979,-123.8678 2154.4128,-109.8436 2250.4,-86.9916"/>
<polygon fill="#191970" stroke="#191970" points="2251.3643,-90.3594 2260.2608,-84.6059 2249.7182,-83.5556 2251.3643,-90.3594"/>
</g>
<!-- Node39 -->
<g id="node40" class="node">
<title>Node39</title>
<polygon fill="#ffffff" stroke="#bfbfbf" points="2323,-67.5 2323,-86.5 2450,-86.5 2450,-67.5 2323,-67.5"/>
<text text-anchor="middle" x="2386.5" y="-74.5" font-family="Helvetica,sans-Serif" font-size="10.00" fill="#000000">boost/signals2/signal.hpp</text>
</g>
<!-- Node0&#45;&gt;Node39 -->
<g id="edge42" class="edge">
<title>Node0&#45;&gt;Node39</title>
<path fill="none" stroke="#191970" d="M2002.6646,-129.3113C2058.4927,-121.7285 2190.428,-103.7995 2312.5269,-87.1319"/>
<polygon fill="#191970" stroke="#191970" points="2313.3646,-90.5501 2322.7992,-85.7295 2312.4176,-83.6145 2313.3646,-90.5501"/>
</g>
<!-- Node2 -->
<g id="node3" class="node">
<title>Node2</title>
<polygon fill="#ffffff" stroke="#bfbfbf" points="835.5,-6 835.5,-25 897.5,-25 897.5,-6 835.5,-6"/>
<text text-anchor="middle" x="866.5" y="-13" font-family="Helvetica,sans-Serif" font-size="10.00" fill="#000000">sys/fcntl.h</text>
</g>
<!-- Node1&#45;&gt;Node2 -->
<g id="edge2" class="edge">
<title>Node1&#45;&gt;Node2</title>
<path fill="none" stroke="#191970" d="M620.3217,-72.9256C664.8535,-66.2754 752.8367,-51.7196 825.5,-31 828.2443,-30.2175 831.0643,-29.3316 833.8791,-28.3895"/>
<polygon fill="#191970" stroke="#191970" points="835.0599,-31.6844 843.3107,-25.0379 832.716,-25.0884 835.0599,-31.6844"/>
</g>
<!-- Node3 -->
<g id="node4" class="node">
<title>Node3</title>
<polygon fill="#ffffff" stroke="#bfbfbf" points="916,-6 916,-25 987,-25 987,-6 916,-6"/>
<text text-anchor="middle" x="951.5" y="-13" font-family="Helvetica,sans-Serif" font-size="10.00" fill="#000000">sys/mman.h</text>
</g>
<!-- Node1&#45;&gt;Node3 -->
<g id="edge3" class="edge">
<title>Node1&#45;&gt;Node3</title>
<path fill="none" stroke="#191970" d="M620.0765,-74.6285C675.7914,-69.6102 802.581,-56.2504 906.5,-31 909.8949,-30.1751 913.3959,-29.1999 916.8754,-28.1465"/>
<polygon fill="#191970" stroke="#191970" points="918.0788,-31.4359 926.5182,-25.0307 915.9265,-24.775 918.0788,-31.4359"/>
</g>
<!-- Node4 -->
<g id="node5" class="node">
<title>Node4</title>
<polygon fill="#ffffff" stroke="#bfbfbf" points="1005.5,-6 1005.5,-25 1075.5,-25 1075.5,-6 1005.5,-6"/>
<text text-anchor="middle" x="1040.5" y="-13" font-family="Helvetica,sans-Serif" font-size="10.00" fill="#000000">sys/select.h</text>
</g>
<!-- Node1&#45;&gt;Node4 -->
<g id="edge4" class="edge">
<title>Node1&#45;&gt;Node4</title>
<path fill="none" stroke="#191970" d="M620.2671,-75.8791C686.9811,-72.8141 857.1091,-62.3169 995.5,-31 999.0964,-30.1862 1002.8064,-29.1851 1006.481,-28.0867"/>
<polygon fill="#191970" stroke="#191970" points="1007.5774,-31.4107 1016.0233,-25.0141 1005.4318,-24.7477 1007.5774,-31.4107"/>
</g>
<!-- Node5 -->
<g id="node6" class="node">
<title>Node5</title>
<polygon fill="#ffffff" stroke="#bfbfbf" points="0,-6 0,-25 73,-25 73,-6 0,-6"/>
<text text-anchor="middle" x="36.5" y="-13" font-family="Helvetica,sans-Serif" font-size="10.00" fill="#000000">sys/socket.h</text>
</g>
<!-- Node1&#45;&gt;Node5 -->
<g id="edge5" class="edge">
<title>Node1&#45;&gt;Node5</title>
<path fill="none" stroke="#191970" d="M562.7234,-75.2916C469.3536,-69.6086 175.5098,-50.588 82.5,-31 78.82,-30.225 75.0253,-29.2492 71.2675,-28.1662"/>
<polygon fill="#191970" stroke="#191970" points="72.1003,-24.7595 61.5114,-25.1131 70.0097,-31.44 72.1003,-24.7595"/>
</g>
<!-- Node6 -->
<g id="node7" class="node">
<title>Node6</title>
<polygon fill="#ffffff" stroke="#bfbfbf" points="91.5,-6 91.5,-25 159.5,-25 159.5,-6 91.5,-6"/>
<text text-anchor="middle" x="125.5" y="-13" font-family="Helvetica,sans-Serif" font-size="10.00" fill="#000000">sys/types.h</text>
</g>
<!-- Node1&#45;&gt;Node6 -->
<g id="edge6" class="edge">
<title>Node1&#45;&gt;Node6</title>
<path fill="none" stroke="#191970" d="M562.8948,-76.2264C494.0905,-73.8624 314.2453,-64.6866 168.5,-31 165.2527,-30.2494 161.9135,-29.328 158.6,-28.3118"/>
<polygon fill="#191970" stroke="#191970" points="159.4478,-24.905 148.854,-25.0558 157.2296,-31.5442 159.4478,-24.905"/>
</g>
<!-- Node7 -->
<g id="node8" class="node">
<title>Node7</title>
<polygon fill="#ffffff" stroke="#bfbfbf" points="178,-6 178,-25 225,-25 225,-6 178,-6"/>
<text text-anchor="middle" x="201.5" y="-13" font-family="Helvetica,sans-Serif" font-size="10.00" fill="#000000">net/if.h</text>
</g>
<!-- Node1&#45;&gt;Node7 -->
<g id="edge7" class="edge">
<title>Node1&#45;&gt;Node7</title>
<path fill="none" stroke="#191970" d="M562.5421,-76.4251C500.7873,-74.522 352.1133,-66.3222 233.5,-31 231.6364,-30.445 229.7469,-29.792 227.8661,-29.0733"/>
<polygon fill="#191970" stroke="#191970" points="229.2611,-25.8634 218.695,-25.0845 226.4692,-32.2825 229.2611,-25.8634"/>
</g>
<!-- Node8 -->
<g id="node9" class="node">
<title>Node8</title>
<polygon fill="#ffffff" stroke="#bfbfbf" points="243,-6 243,-25 308,-25 308,-6 243,-6"/>
<text text-anchor="middle" x="275.5" y="-13" font-family="Helvetica,sans-Serif" font-size="10.00" fill="#000000">netinet/in.h</text>
</g>
<!-- Node1&#45;&gt;Node8 -->
<g id="edge8" class="edge">
<title>Node1&#45;&gt;Node8</title>
<path fill="none" stroke="#191970" d="M562.5996,-74.0508C512.0553,-68.4773 404.5945,-54.774 316.5,-31 313.7449,-30.2565 310.9172,-29.3982 308.0973,-28.4747"/>
<polygon fill="#191970" stroke="#191970" points="309.2514,-25.1705 298.6566,-25.1559 306.9298,-31.7744 309.2514,-25.1705"/>
</g>
<!-- Node9 -->
<g id="node10" class="node">
<title>Node9</title>
<polygon fill="#ffffff" stroke="#bfbfbf" points="326,-6 326,-25 397,-25 397,-6 326,-6"/>
<text text-anchor="middle" x="361.5" y="-13" font-family="Helvetica,sans-Serif" font-size="10.00" fill="#000000">netinet/tcp.h</text>
</g>
<!-- Node1&#45;&gt;Node9 -->
<g id="edge9" class="edge">
<title>Node1&#45;&gt;Node9</title>
<path fill="none" stroke="#191970" d="M562.7662,-70.6814C526.2101,-62.454 461.244,-47.2 406.5,-31 403.5832,-30.1369 400.5748,-29.2015 397.5614,-28.2324"/>
<polygon fill="#191970" stroke="#191970" points="398.6189,-24.8957 388.0255,-25.0699 396.4154,-31.5399 398.6189,-24.8957"/>
</g>
<!-- Node10 -->
<g id="node11" class="node">
<title>Node10</title>
<polygon fill="#ffffff" stroke="#bfbfbf" points="415.5,-6 415.5,-25 477.5,-25 477.5,-6 415.5,-6"/>
<text text-anchor="middle" x="446.5" y="-13" font-family="Helvetica,sans-Serif" font-size="10.00" fill="#000000">arpa/inet.h</text>
</g>
<!-- Node1&#45;&gt;Node10 -->
<g id="edge10" class="edge">
<title>Node1&#45;&gt;Node10</title>
<path fill="none" stroke="#191970" d="M568.8438,-67.3906C544.5826,-57.1005 505.8882,-40.6888 478.52,-29.0809"/>
<polygon fill="#191970" stroke="#191970" points="479.57,-25.7245 468.9972,-25.0419 476.8367,-32.1688 479.57,-25.7245"/>
</g>
<!-- Node11 -->
<g id="node12" class="node">
<title>Node11</title>
<polygon fill="#ffffff" stroke="#bfbfbf" points="495.5,-6 495.5,-25 549.5,-25 549.5,-6 495.5,-6"/>
<text text-anchor="middle" x="522.5" y="-13" font-family="Helvetica,sans-Serif" font-size="10.00" fill="#000000">ifaddrs.h</text>
</g>
<!-- Node1&#45;&gt;Node11 -->
<g id="edge11" class="edge">
<title>Node1&#45;&gt;Node11</title>
<path fill="none" stroke="#191970" d="M580.7188,-67.3906C570.1474,-57.9683 553.8175,-43.4134 541.1397,-32.1137"/>
<polygon fill="#191970" stroke="#191970" points="543.2272,-29.2858 533.4333,-25.2449 538.5696,-34.5114 543.2272,-29.2858"/>
</g>
<!-- Node12 -->
<g id="node13" class="node">
<title>Node12</title>
<polygon fill="#ffffff" stroke="#bfbfbf" points="567.5,-6 567.5,-25 615.5,-25 615.5,-6 567.5,-6"/>
<text text-anchor="middle" x="591.5" y="-13" font-family="Helvetica,sans-Serif" font-size="10.00" fill="#000000">limits.h</text>
</g>
<!-- Node1&#45;&gt;Node12 -->
<g id="edge12" class="edge">
<title>Node1&#45;&gt;Node12</title>
<path fill="none" stroke="#191970" d="M591.5,-67.3906C591.5,-58.8657 591.5,-46.1392 591.5,-35.4235"/>
<polygon fill="#191970" stroke="#191970" points="595.0001,-35.2448 591.5,-25.2449 588.0001,-35.2449 595.0001,-35.2448"/>
</g>
<!-- Node13 -->
<g id="node14" class="node">
<title>Node13</title>
<polygon fill="#ffffff" stroke="#bfbfbf" points="634,-6 634,-25 683,-25 683,-6 634,-6"/>
<text text-anchor="middle" x="658.5" y="-13" font-family="Helvetica,sans-Serif" font-size="10.00" fill="#000000">netdb.h</text>
</g>
<!-- Node1&#45;&gt;Node13 -->
<g id="edge13" class="edge">
<title>Node1&#45;&gt;Node13</title>
<path fill="none" stroke="#191970" d="M601.9688,-67.3906C612.2337,-57.9683 628.0903,-43.4134 640.4006,-32.1137"/>
<polygon fill="#191970" stroke="#191970" points="642.8834,-34.5856 647.8837,-25.2449 638.1499,-29.4287 642.8834,-34.5856"/>
</g>
<!-- Node14 -->
<g id="node15" class="node">
<title>Node14</title>
<polygon fill="#ffffff" stroke="#bfbfbf" points="701,-6 701,-25 752,-25 752,-6 701,-6"/>
<text text-anchor="middle" x="726.5" y="-13" font-family="Helvetica,sans-Serif" font-size="10.00" fill="#000000">unistd.h</text>
</g>
<!-- Node1&#45;&gt;Node14 -->
<g id="edge14" class="edge">
<title>Node1&#45;&gt;Node14</title>
<path fill="none" stroke="#191970" d="M612.5938,-67.3906C635.0827,-57.1457 670.8918,-40.8326 696.3524,-29.2339"/>
<polygon fill="#191970" stroke="#191970" points="697.9052,-32.3727 705.5544,-25.0419 695.0032,-26.0025 697.9052,-32.3727"/>
</g>
<!-- Node15 -->
<g id="node16" class="node">
<title>Node15</title>
<polygon fill="#ffffff" stroke="#bfbfbf" points="770,-6 770,-25 817,-25 817,-6 770,-6"/>
<text text-anchor="middle" x="793.5" y="-13" font-family="Helvetica,sans-Serif" font-size="10.00" fill="#000000">errno.h</text>
</g>
<!-- Node1&#45;&gt;Node15 -->
<g id="edge15" class="edge">
<title>Node1&#45;&gt;Node15</title>
<path fill="none" stroke="#191970" d="M620.0779,-70.8189C654.0671,-63.1038 712.2695,-48.7385 760.5,-31 762.0928,-30.4142 763.714,-29.781 765.3401,-29.1169"/>
<polygon fill="#191970" stroke="#191970" points="766.7868,-32.3043 774.5444,-25.0883 763.98,-25.8917 766.7868,-32.3043"/>
</g>
<!-- Node17 -->
<g id="node18" class="node">
<title>Node17</title>
<polygon fill="#ffffff" stroke="#bfbfbf" points="1360.5,-6 1360.5,-25 1406.5,-25 1406.5,-6 1360.5,-6"/>
<text text-anchor="middle" x="1383.5" y="-13" font-family="Helvetica,sans-Serif" font-size="10.00" fill="#000000">stdio.h</text>
</g>
<!-- Node16&#45;&gt;Node17 -->
<g id="edge17" class="edge">
<title>Node16&#45;&gt;Node17</title>
<path fill="none" stroke="#191970" d="M1424,-67.3906C1416.9262,-58.3273 1406.1458,-44.5149 1397.4854,-33.4188"/>
<polygon fill="#191970" stroke="#191970" points="1400.0176,-30.9746 1391.1057,-25.2449 1394.4994,-35.2815 1400.0176,-30.9746"/>
</g>
<!-- Node16&#45;&gt;Node18 -->
<g id="edge18" class="edge">
<title>Node16&#45;&gt;Node18</title>
<path fill="none" stroke="#191970" d="M1414.8035,-76.2635C1369.829,-73.8731 1242.8378,-64.4294 1143.5,-31 1142.0797,-30.522 1140.6458,-29.9791 1139.216,-29.3896"/>
<polygon fill="#191970" stroke="#191970" points="1140.5609,-26.1536 1130.0272,-25.0174 1137.5533,-32.4745 1140.5609,-26.1536"/>
</g>
<!-- Node19 -->
<g id="node20" class="node">
<title>Node19</title>
<polygon fill="#ffffff" stroke="#bfbfbf" points="1425,-6 1425,-25 1532,-25 1532,-6 1425,-6"/>
<text text-anchor="middle" x="1478.5" y="-13" font-family="Helvetica,sans-Serif" font-size="10.00" fill="#000000">boost/filesystem.hpp</text>
</g>
<!-- Node16&#45;&gt;Node19 -->
<g id="edge19" class="edge">
<title>Node16&#45;&gt;Node19</title>
<path fill="none" stroke="#191970" d="M1438.8438,-67.3906C1445.7702,-58.3273 1456.326,-44.5149 1464.806,-33.4188"/>
<polygon fill="#191970" stroke="#191970" points="1467.7615,-35.3155 1471.0527,-25.2449 1462.1997,-31.065 1467.7615,-35.3155"/>
</g>
<!-- Node20 -->
<g id="node21" class="node">
<title>Node20</title>
<polygon fill="#ffffff" stroke="#bfbfbf" points="1550,-6 1550,-25 1693,-25 1693,-6 1550,-6"/>
<text text-anchor="middle" x="1621.5" y="-13" font-family="Helvetica,sans-Serif" font-size="10.00" fill="#000000">boost/filesystem/fstream.hpp</text>
</g>
<!-- Node16&#45;&gt;Node20 -->
<g id="edge20" class="edge">
<title>Node16&#45;&gt;Node20</title>
<path fill="none" stroke="#191970" d="M1448.0289,-71.6499C1477.722,-62.0387 1540.8448,-41.6068 1582.1984,-28.2213"/>
<polygon fill="#191970" stroke="#191970" points="1583.5165,-31.4735 1591.9526,-25.064 1581.3607,-24.8137 1583.5165,-31.4735"/>
</g>
<!-- Node21 -->
<g id="node22" class="node">
<title>Node21</title>
<polygon fill="#ffffff" stroke="#bfbfbf" points="1220.5,-.5 1220.5,-30.5 1342.5,-30.5 1342.5,-.5 1220.5,-.5"/>
<text text-anchor="start" x="1228.5" y="-18.5" font-family="Helvetica,sans-Serif" font-size="10.00" fill="#000000">boost/filesystem/detail</text>
<text text-anchor="middle" x="1281.5" y="-7.5" font-family="Helvetica,sans-Serif" font-size="10.00" fill="#000000">/utf8_codecvt_facet.hpp</text>
</g>
<!-- Node16&#45;&gt;Node21 -->
<g id="edge21" class="edge">
<title>Node16&#45;&gt;Node21</title>
<path fill="none" stroke="#191970" d="M1414.8743,-70.1834C1393.9502,-61.6046 1357.1625,-46.5216 1327.5156,-34.3664"/>
<polygon fill="#191970" stroke="#191970" points="1328.7504,-31.09 1318.1701,-30.5348 1326.0949,-37.5667 1328.7504,-31.09"/>
</g>
<!-- Node23 -->
<g id="node24" class="node">
<title>Node23</title>
<g id="a_node24"><a xlink:href="threadsafety_8h.html" target="_top" xlink:title="threadsafety.h">
<polygon fill="#ffffff" stroke="#000000" points="1842,-6 1842,-25 1921,-25 1921,-6 1842,-6"/>
<text text-anchor="middle" x="1881.5" y="-13" font-family="Helvetica,sans-Serif" font-size="10.00" fill="#000000">threadsafety.h</text>
</a>
</g>
</g>
<!-- Node22&#45;&gt;Node23 -->
<g id="edge23" class="edge">
<title>Node22&#45;&gt;Node23</title>
<path fill="none" stroke="#191970" d="M1929.5938,-67.3906C1921.0272,-58.1478 1907.8831,-43.966 1897.4997,-32.7628"/>
<polygon fill="#191970" stroke="#191970" points="1899.8965,-30.2 1890.5318,-25.2449 1894.7625,-34.9584 1899.8965,-30.2"/>
</g>
<!-- Node24 -->
<g id="node25" class="node">
<title>Node24</title>
<polygon fill="#ffffff" stroke="#bfbfbf" points="1939,-.5 1939,-30.5 2052,-30.5 2052,-.5 1939,-.5"/>
<text text-anchor="start" x="1947" y="-18.5" font-family="Helvetica,sans-Serif" font-size="10.00" fill="#000000">boost/thread/condition</text>
<text text-anchor="middle" x="1995.5" y="-7.5" font-family="Helvetica,sans-Serif" font-size="10.00" fill="#000000">_variable.hpp</text>
</g>
<!-- Node22&#45;&gt;Node24 -->
<g id="edge24" class="edge">
<title>Node22&#45;&gt;Node24</title>
<path fill="none" stroke="#191970" d="M1947.4063,-67.3906C1954.6919,-59.5298 1965.2887,-48.0964 1974.6823,-37.9612"/>
<polygon fill="#191970" stroke="#191970" points="1977.3256,-40.2581 1981.5562,-30.5446 1972.1915,-35.4997 1977.3256,-40.2581"/>
</g>
<!-- Node25 -->
<g id="node26" class="node">
<title>Node25</title>
<polygon fill="#ffffff" stroke="#bfbfbf" points="2070,-6 2070,-25 2189,-25 2189,-6 2070,-6"/>
<text text-anchor="middle" x="2129.5" y="-13" font-family="Helvetica,sans-Serif" font-size="10.00" fill="#000000">boost/thread/mutex.hpp</text>
</g>
<!-- Node22&#45;&gt;Node25 -->
<g id="edge25" class="edge">
<title>Node22&#45;&gt;Node25</title>
<path fill="none" stroke="#191970" d="M1961.5391,-69.5817C1993.326,-59.3466 2051.0952,-40.7455 2089.8856,-28.2554"/>
<polygon fill="#191970" stroke="#191970" points="2091.3519,-31.4603 2099.7979,-25.0638 2089.2064,-24.7972 2091.3519,-31.4603"/>
</g>
<!-- Node26 -->
<g id="node27" class="node">
<title>Node26</title>
<polygon fill="#ffffff" stroke="#bfbfbf" points="1711,-.5 1711,-30.5 1824,-30.5 1824,-.5 1711,-.5"/>
<text text-anchor="start" x="1719" y="-18.5" font-family="Helvetica,sans-Serif" font-size="10.00" fill="#000000">boost/thread/recursive</text>
<text text-anchor="middle" x="1767.5" y="-7.5" font-family="Helvetica,sans-Serif" font-size="10.00" fill="#000000">_mutex.hpp</text>
</g>
<!-- Node22&#45;&gt;Node26 -->
<g id="edge26" class="edge">
<title>Node22&#45;&gt;Node26</title>
<path fill="none" stroke="#191970" d="M1915.4382,-68.7058C1890.901,-59.8811 1851.2784,-45.6308 1819.212,-34.0982"/>
<polygon fill="#191970" stroke="#191970" points="1820.1225,-30.7062 1809.5281,-30.6154 1817.7535,-37.2932 1820.1225,-30.7062"/>
</g>
<!-- Node28 -->
<g id="node29" class="node">
<title>Node28</title>
<polygon fill="#ffffff" stroke="#bfbfbf" points="2427.5,-6 2427.5,-25 2483.5,-25 2483.5,-6 2427.5,-6"/>
<text text-anchor="middle" x="2455.5" y="-13" font-family="Helvetica,sans-Serif" font-size="10.00" fill="#000000">algorithm</text>
</g>
<!-- Node27&#45;&gt;Node28 -->
<g id="edge28" class="edge">
<title>Node27&#45;&gt;Node28</title>
<path fill="none" stroke="#191970" d="M2047.6877,-68.6289C2050.6586,-68.0293 2053.6265,-67.475 2056.5,-67 2216.0181,-40.6332 2261.7608,-70.6742 2418.5,-31 2420.9812,-30.372 2423.5125,-29.6048 2426.0284,-28.7514"/>
<polygon fill="#191970" stroke="#191970" points="2427.4132,-31.9695 2435.517,-25.1446 2424.9259,-25.4262 2427.4132,-31.9695"/>
</g>
<!-- Node29 -->
<g id="node30" class="node">
<title>Node29</title>
<polygon fill="#ffffff" stroke="#bfbfbf" points="2502,-6 2502,-25 2551,-25 2551,-6 2502,-6"/>
<text text-anchor="middle" x="2526.5" y="-13" font-family="Helvetica,sans-Serif" font-size="10.00" fill="#000000">cassert</text>
</g>
<!-- Node27&#45;&gt;Node29 -->
<g id="edge29" class="edge">
<title>Node27&#45;&gt;Node29</title>
<path fill="none" stroke="#191970" d="M2047.6792,-68.5765C2050.652,-67.9883 2053.6226,-67.4509 2056.5,-67 2248.593,-36.8984 2304.3531,-80.0569 2492.5,-31 2494.6932,-30.4282 2496.9209,-29.7237 2499.1331,-28.9335"/>
<polygon fill="#191970" stroke="#191970" points="2500.6483,-32.0952 2508.575,-25.0654 2497.9946,-25.6176 2500.6483,-32.0952"/>
</g>
<!-- Node30 -->
<g id="node31" class="node">
<title>Node30</title>
<polygon fill="#ffffff" stroke="#bfbfbf" points="2207.5,-6 2207.5,-25 2261.5,-25 2261.5,-6 2207.5,-6"/>
<text text-anchor="middle" x="2234.5" y="-13" font-family="Helvetica,sans-Serif" font-size="10.00" fill="#000000">iostream</text>
</g>
<!-- Node27&#45;&gt;Node30 -->
<g id="edge30" class="edge">
<title>Node27&#45;&gt;Node30</title>
<path fill="none" stroke="#191970" d="M2047.7684,-68.799C2097.2255,-56.9144 2184.2695,-35.7971 2198.5,-31 2200.3861,-30.3642 2202.3112,-29.6713 2204.2417,-28.9428"/>
<polygon fill="#191970" stroke="#191970" points="2205.815,-32.0824 2213.7844,-25.101 2203.2008,-25.5889 2205.815,-32.0824"/>
</g>
<!-- Node31 -->
<g id="node32" class="node">
<title>Node31</title>
<polygon fill="#ffffff" stroke="#bfbfbf" points="2279.5,-6 2279.5,-25 2331.5,-25 2331.5,-6 2279.5,-6"/>
<text text-anchor="middle" x="2305.5" y="-13" font-family="Helvetica,sans-Serif" font-size="10.00" fill="#000000">sstream</text>
</g>
<!-- Node27&#45;&gt;Node31 -->
<g id="edge31" class="edge">
<title>Node27&#45;&gt;Node31</title>
<path fill="none" stroke="#191970" d="M2047.7261,-68.8394C2050.6887,-68.194 2053.6442,-67.5717 2056.5,-67 2151.0711,-48.0676 2178.129,-58.7439 2270.5,-31 2272.6202,-30.3632 2274.7813,-29.6296 2276.9368,-28.8353"/>
<polygon fill="#191970" stroke="#191970" points="2278.2548,-32.0777 2286.2057,-25.0754 2275.6235,-25.5911 2278.2548,-32.0777"/>
</g>
<!-- Node32 -->
<g id="node33" class="node">
<title>Node32</title>
<polygon fill="#ffffff" stroke="#bfbfbf" points="2350,-6 2350,-25 2409,-25 2409,-6 2350,-6"/>
<text text-anchor="middle" x="2379.5" y="-13" font-family="Helvetica,sans-Serif" font-size="10.00" fill="#000000">stdexcept</text>
</g>
<!-- Node27&#45;&gt;Node32 -->
<g id="edge32" class="edge">
<title>Node27&#45;&gt;Node32</title>
<path fill="none" stroke="#191970" d="M2047.7022,-68.7131C2050.6699,-68.0952 2053.6331,-67.5137 2056.5,-67 2181.7379,-44.5607 2217.2923,-62.7478 2340.5,-31 2343.2781,-30.2841 2346.1242,-29.4218 2348.9518,-28.475"/>
<polygon fill="#191970" stroke="#191970" points="2350.1849,-31.7508 2358.3675,-25.0205 2347.7738,-25.1791 2350.1849,-31.7508"/>
</g>
<!-- Node33&#45;&gt;Node18 -->
<g id="edge35" class="edge">
<title>Node33&#45;&gt;Node18</title>
<path fill="none" stroke="#191970" d="M1167.6563,-67.3906C1158.0961,-58.0581 1143.3777,-43.6902 1131.8505,-32.4374"/>
<polygon fill="#191970" stroke="#191970" points="1134.0832,-29.7257 1124.4825,-25.2449 1129.1934,-34.7348 1134.0832,-29.7257"/>
</g>
<!-- Node33&#45;&gt;Node34 -->
<g id="edge34" class="edge">
<title>Node33&#45;&gt;Node34</title>
<path fill="none" stroke="#191970" d="M1177.5,-67.3906C1177.5,-58.8657 1177.5,-46.1392 1177.5,-35.4235"/>
<polygon fill="#191970" stroke="#191970" points="1181.0001,-35.2448 1177.5,-25.2449 1174.0001,-35.2449 1181.0001,-35.2448"/>
</g>
</g>
</svg>
