<?xml version="1.0" encoding="UTF-8" standalone="no"?>
<!DOCTYPE svg PUBLIC "-//W3C//DTD SVG 1.1//EN"
 "http://www.w3.org/Graphics/SVG/1.1/DTD/svg11.dtd">
<!-- Generated by graphviz version 2.40.1 (20161225.0304)
 -->
<!-- Title: DecodeBase64 Pages: 1 -->
<svg width="258pt" height="126pt"
 viewBox="0.00 0.00 258.00 126.00" xmlns="http://www.w3.org/2000/svg" xmlns:xlink="http://www.w3.org/1999/xlink">
<g id="graph0" class="graph" transform="scale(1 1) rotate(0) translate(4 122)">
<title>DecodeBase64</title>
<polygon fill="#ffffff" stroke="transparent" points="-4,4 -4,-122 254,-122 254,4 -4,4"/>
<!-- Node19 -->
<g id="node1" class="node">
<title>Node19</title>
<polygon fill="#bfbfbf" stroke="#000000" points="0,-38.5 0,-57.5 83,-57.5 83,-38.5 0,-38.5"/>
<text text-anchor="middle" x="41.5" y="-45.5" font-family="Helvetica,sans-Serif" font-size="10.00" fill="#000000">DecodeBase64</text>
</g>
<!-- Node20 -->
<g id="node2" class="node">
<title>Node20</title>
<g id="a_node2"><a xlink:href="class_sign_verify_message_dialog.html#ae37dec200b27f23c409221511447ae1e" target="_top" xlink:title="SignVerifyMessageDialog\l::on_verifyMessageButton\l_VM_clicked">
<polygon fill="#ffffff" stroke="#000000" points="119,-76.5 119,-117.5 250,-117.5 250,-76.5 119,-76.5"/>
<text text-anchor="start" x="127" y="-105.5" font-family="Helvetica,sans-Serif" font-size="10.00" fill="#000000">SignVerifyMessageDialog</text>
<text text-anchor="start" x="127" y="-94.5" font-family="Helvetica,sans-Serif" font-size="10.00" fill="#000000">::on_verifyMessageButton</text>
<text text-anchor="middle" x="184.5" y="-83.5" font-family="Helvetica,sans-Serif" font-size="10.00" fill="#000000">_VM_clicked</text>
</a>
</g>
</g>
<!-- Node19&#45;&gt;Node20 -->
<g id="edge1" class="edge">
<title>Node19&#45;&gt;Node20</title>
<path fill="none" stroke="#191970" d="M79.079,-60.8767C92.952,-65.6304 109.0426,-71.144 124.4112,-76.4101"/>
<polygon fill="#191970" stroke="#191970" points="80.0059,-57.4946 69.4113,-57.564 77.7368,-64.1166 80.0059,-57.4946"/>
</g>
<!-- Node21 -->
<g id="node3" class="node">
<title>Node21</title>
<g id="a_node3"><a xlink:href="misc_8cpp.html#a0b6a5eab4e4ad2898bdc4dfb0be1da73" target="_top" xlink:title="verifymessage">
<polygon fill="#ffffff" stroke="#000000" points="144.5,-38.5 144.5,-57.5 224.5,-57.5 224.5,-38.5 144.5,-38.5"/>
<text text-anchor="middle" x="184.5" y="-45.5" font-family="Helvetica,sans-Serif" font-size="10.00" fill="#000000">verifymessage</text>
</a>
</g>
</g>
<!-- Node19&#45;&gt;Node21 -->
<g id="edge2" class="edge">
<title>Node19&#45;&gt;Node21</title>
<path fill="none" stroke="#191970" d="M93.4675,-48C110.2665,-48 128.6234,-48 144.4243,-48"/>
<polygon fill="#191970" stroke="#191970" points="93.246,-44.5001 83.2459,-48 93.2459,-51.5001 93.246,-44.5001"/>
</g>
<!-- Node22 -->
<g id="node4" class="node">
<title>Node22</title>
<g id="a_node4"><a xlink:href="utilstrencodings_8h.html#abe1060fd27543de8bf9806678f4e91eb" target="_top" xlink:title="DecodeBase64">
<polygon fill="#ffffff" stroke="#000000" points="143,-.5 143,-19.5 226,-19.5 226,-.5 143,-.5"/>
<text text-anchor="middle" x="184.5" y="-7.5" font-family="Helvetica,sans-Serif" font-size="10.00" fill="#000000">DecodeBase64</text>
</a>
</g>
</g>
<!-- Node19&#45;&gt;Node22 -->
<g id="edge3" class="edge">
<title>Node19&#45;&gt;Node22</title>
<path fill="none" stroke="#191970" d="M87.3133,-35.8258C107.0871,-30.5713 129.8838,-24.5134 148.4266,-19.5859"/>
<polygon fill="#191970" stroke="#191970" points="86.3506,-32.4601 77.5849,-38.411 88.1484,-39.2253 86.3506,-32.4601"/>
</g>
</g>
</svg>
