<?xml version="1.0" encoding="UTF-8" standalone="no"?>
<!DOCTYPE svg PUBLIC "-//W3C//DTD SVG 1.1//EN"
 "http://www.w3.org/Graphics/SVG/1.1/DTD/svg11.dtd">
<!-- Generated by graphviz version 2.40.1 (20161225.0304)
 -->
<!-- Title: src/validationinterface.h Pages: 1 -->
<svg width="4006pt" height="218pt"
 viewBox="0.00 0.00 4006.00 218.00" xmlns="http://www.w3.org/2000/svg" xmlns:xlink="http://www.w3.org/1999/xlink">
<g id="graph0" class="graph" transform="scale(1 1) rotate(0) translate(4 214)">
<title>src/validationinterface.h</title>
<polygon fill="#ffffff" stroke="transparent" points="-4,4 -4,-214 4002,-214 4002,4 -4,4"/>
<!-- Node28 -->
<g id="node1" class="node">
<title>Node28</title>
<polygon fill="#bfbfbf" stroke="#000000" points="2015.5,-190.5 2015.5,-209.5 2135.5,-209.5 2135.5,-190.5 2015.5,-190.5"/>
<text text-anchor="middle" x="2075.5" y="-197.5" font-family="Helvetica,sans-Serif" font-size="10.00" fill="#000000">src/validationinterface.h</text>
</g>
<!-- Node29 -->
<g id="node2" class="node">
<title>Node29</title>
<g id="a_node2"><a xlink:href="net__processing_8h.html" target="_top" xlink:title="src/net_processing.h">
<polygon fill="#ffffff" stroke="#000000" points="226,-134.5 226,-153.5 333,-153.5 333,-134.5 226,-134.5"/>
<text text-anchor="middle" x="279.5" y="-141.5" font-family="Helvetica,sans-Serif" font-size="10.00" fill="#000000">src/net_processing.h</text>
</a>
</g>
</g>
<!-- Node28&#45;&gt;Node29 -->
<g id="edge1" class="edge">
<title>Node28&#45;&gt;Node29</title>
<path fill="none" stroke="#191970" d="M2005.4335,-197.8153C1712.9098,-188.6943 592.3432,-153.7546 333.2071,-145.6746"/>
<polygon fill="#191970" stroke="#191970" points="2005.3831,-201.3153 2015.4873,-198.1288 2005.6013,-194.3187 2005.3831,-201.3153"/>
</g>
<!-- Node30 -->
<g id="node3" class="node">
<title>Node30</title>
<g id="a_node3"><a xlink:href="init_8cpp.html" target="_top" xlink:title="src/init.cpp">
<polygon fill="#ffffff" stroke="#000000" points="0,-73 0,-92 65,-92 65,-73 0,-73"/>
<text text-anchor="middle" x="32.5" y="-80" font-family="Helvetica,sans-Serif" font-size="10.00" fill="#000000">src/init.cpp</text>
</a>
</g>
</g>
<!-- Node28&#45;&gt;Node30 -->
<g id="edge9" class="edge">
<title>Node28&#45;&gt;Node30</title>
<path fill="none" stroke="#191970" d="M2004.8075,-199.1097C1671.8745,-194.8111 272.598,-175.5289 182.5,-154 129.4686,-141.3282 72.9825,-108.3954 47.048,-92.0251"/>
<polygon fill="#191970" stroke="#191970" points="2005.2288,-202.6153 2015.2731,-199.2444 2005.319,-195.6158 2005.2288,-202.6153"/>
</g>
<!-- Node31 -->
<g id="node4" class="node">
<title>Node31</title>
<g id="a_node4"><a xlink:href="net__processing_8cpp.html" target="_top" xlink:title="src/net_processing.cpp">
<polygon fill="#ffffff" stroke="#000000" points="83.5,-73 83.5,-92 201.5,-92 201.5,-73 83.5,-73"/>
<text text-anchor="middle" x="142.5" y="-80" font-family="Helvetica,sans-Serif" font-size="10.00" fill="#000000">src/net_processing.cpp</text>
</a>
</g>
</g>
<!-- Node28&#45;&gt;Node31 -->
<g id="edge61" class="edge">
<title>Node28&#45;&gt;Node31</title>
<path fill="none" stroke="#191970" d="M2005.0705,-199.6876C1675.7674,-198.0452 300.3456,-189.1018 216.5,-154 185.5202,-141.0303 160.1333,-108.5494 148.8323,-92.2091"/>
<polygon fill="#191970" stroke="#191970" points="2005.4078,-203.1892 2015.425,-199.7385 2005.4424,-196.1893 2005.4078,-203.1892"/>
</g>
<!-- Node39 -->
<g id="node10" class="node">
<title>Node39</title>
<g id="a_node10"><a xlink:href="miner_8cpp.html" target="_top" xlink:title="src/miner.cpp">
<polygon fill="#ffffff" stroke="#000000" points="457.5,-73 457.5,-92 533.5,-92 533.5,-73 457.5,-73"/>
<text text-anchor="middle" x="495.5" y="-80" font-family="Helvetica,sans-Serif" font-size="10.00" fill="#000000">src/miner.cpp</text>
</a>
</g>
</g>
<!-- Node28&#45;&gt;Node39 -->
<g id="edge10" class="edge">
<title>Node28&#45;&gt;Node39</title>
<path fill="none" stroke="#191970" d="M2005.1522,-197.6738C1743.7382,-188.6641 828.6293,-153.7696 542.5,-98 535.2474,-96.5864 527.5635,-94.3733 520.5565,-92.0574"/>
<polygon fill="#191970" stroke="#191970" points="2005.1623,-201.1761 2015.2764,-198.021 2005.4023,-194.1802 2005.1623,-201.1761"/>
</g>
<!-- Node40 -->
<g id="node11" class="node">
<title>Node40</title>
<g id="a_node11"><a xlink:href="wallet_8h.html" target="_top" xlink:title="src/wallet/wallet.h">
<polygon fill="#ffffff" stroke="#000000" points="2028,-134.5 2028,-153.5 2123,-153.5 2123,-134.5 2028,-134.5"/>
<text text-anchor="middle" x="2075.5" y="-141.5" font-family="Helvetica,sans-Serif" font-size="10.00" fill="#000000">src/wallet/wallet.h</text>
</a>
</g>
</g>
<!-- Node28&#45;&gt;Node40 -->
<g id="edge11" class="edge">
<title>Node28&#45;&gt;Node40</title>
<path fill="none" stroke="#191970" d="M2075.5,-180.1575C2075.5,-171.155 2075.5,-160.9199 2075.5,-153.6427"/>
<polygon fill="#191970" stroke="#191970" points="2072.0001,-180.2455 2075.5,-190.2455 2079.0001,-180.2456 2072.0001,-180.2455"/>
</g>
<!-- Node61 -->
<g id="node32" class="node">
<title>Node61</title>
<g id="a_node32"><a xlink:href="validation_8cpp.html" target="_top" xlink:title="src/validation.cpp">
<polygon fill="#ffffff" stroke="#000000" points="3710,-73 3710,-92 3803,-92 3803,-73 3710,-73"/>
<text text-anchor="middle" x="3756.5" y="-80" font-family="Helvetica,sans-Serif" font-size="10.00" fill="#000000">src/validation.cpp</text>
</a>
</g>
</g>
<!-- Node28&#45;&gt;Node61 -->
<g id="edge63" class="edge">
<title>Node28&#45;&gt;Node61</title>
<path fill="none" stroke="#191970" d="M2095.5807,-183.9721C2118.3578,-166.1749 2154.4178,-139.2496 2170.5,-134 2329.9352,-81.9566 3512.8224,-116.6195 3679.5,-98 3691.4257,-96.6678 3704.2511,-94.4199 3715.9485,-92.0434"/>
<polygon fill="#191970" stroke="#191970" points="2093.2604,-181.3444 2087.5708,-190.282 2097.5921,-186.8432 2093.2604,-181.3444"/>
</g>
<!-- Node76 -->
<g id="node47" class="node">
<title>Node76</title>
<g id="a_node47"><a xlink:href="mining_8cpp.html" target="_top" xlink:title="src/rpc/mining.cpp">
<polygon fill="#ffffff" stroke="#000000" points="2180,-134.5 2180,-153.5 2277,-153.5 2277,-134.5 2180,-134.5"/>
<text text-anchor="middle" x="2228.5" y="-141.5" font-family="Helvetica,sans-Serif" font-size="10.00" fill="#000000">src/rpc/mining.cpp</text>
</a>
</g>
</g>
<!-- Node28&#45;&gt;Node76 -->
<g id="edge62" class="edge">
<title>Node28&#45;&gt;Node76</title>
<path fill="none" stroke="#191970" d="M2111.2279,-186.9231C2139.1971,-176.686 2177.4393,-162.6889 2202.5416,-153.5011"/>
<polygon fill="#191970" stroke="#191970" points="2109.9894,-183.6493 2101.8016,-190.3733 2112.3954,-190.2228 2109.9894,-183.6493"/>
</g>
<!-- Node77 -->
<g id="node48" class="node">
<title>Node77</title>
<g id="a_node48"><a xlink:href="validationinterface_8cpp.html" target="_top" xlink:title="src/validationinterface.cpp">
<polygon fill="#ffffff" stroke="#000000" points="2295,-134.5 2295,-153.5 2426,-153.5 2426,-134.5 2295,-134.5"/>
<text text-anchor="middle" x="2360.5" y="-141.5" font-family="Helvetica,sans-Serif" font-size="10.00" fill="#000000">src/validationinterface.cpp</text>
</a>
</g>
</g>
<!-- Node28&#45;&gt;Node77 -->
<g id="edge64" class="edge">
<title>Node28&#45;&gt;Node77</title>
<path fill="none" stroke="#191970" d="M2134.0215,-188.501C2186.5737,-178.175 2262.8168,-163.1939 2312.0313,-153.5237"/>
<polygon fill="#191970" stroke="#191970" points="2133.3069,-185.0744 2124.1694,-190.4369 2134.6566,-191.9431 2133.3069,-185.0744"/>
</g>
<!-- Node78 -->
<g id="node49" class="node">
<title>Node78</title>
<g id="a_node49"><a xlink:href="zmqnotificationinterface_8h.html" target="_top" xlink:title="src/zmq/zmqnotificationinterface.h">
<polygon fill="#ffffff" stroke="#000000" points="3135,-134.5 3135,-153.5 3302,-153.5 3302,-134.5 3135,-134.5"/>
<text text-anchor="middle" x="3218.5" y="-141.5" font-family="Helvetica,sans-Serif" font-size="10.00" fill="#000000">src/zmq/zmqnotificationinterface.h</text>
</a>
</g>
</g>
<!-- Node28&#45;&gt;Node78 -->
<g id="edge65" class="edge">
<title>Node28&#45;&gt;Node78</title>
<path fill="none" stroke="#191970" d="M2145.8505,-196.5533C2346.1597,-186.7393 2918.975,-158.6749 3134.8365,-148.099"/>
<polygon fill="#191970" stroke="#191970" points="2145.5606,-193.0632 2135.7439,-197.0484 2145.9032,-200.0548 2145.5606,-193.0632"/>
</g>
<!-- Node29&#45;&gt;Node30 -->
<g id="edge2" class="edge">
<title>Node29&#45;&gt;Node30</title>
<path fill="none" stroke="#191970" d="M218.1968,-132.4624C177.172,-124.2004 122.168,-112.0763 74.5,-98 68.6858,-96.2831 62.5155,-94.1734 56.746,-92.0698"/>
<polygon fill="#191970" stroke="#191970" points="217.5562,-135.9035 228.0475,-134.4262 218.9248,-129.0386 217.5562,-135.9035"/>
</g>
<!-- Node29&#45;&gt;Node31 -->
<g id="edge3" class="edge">
<title>Node29&#45;&gt;Node31</title>
<path fill="none" stroke="#191970" d="M248.7352,-130.1895C222.8513,-118.5701 186.5185,-102.2601 163.7559,-92.0419"/>
<polygon fill="#191970" stroke="#191970" points="247.5374,-133.4883 258.0938,-134.3906 250.4042,-127.1022 247.5374,-133.4883"/>
</g>
<!-- Node32 -->
<g id="node5" class="node">
<title>Node32</title>
<g id="a_node5"><a xlink:href="peertablemodel_8h.html" target="_top" xlink:title="src/qt/peertablemodel.h">
<polygon fill="#ffffff" stroke="#000000" points="220,-73 220,-92 339,-92 339,-73 220,-73"/>
<text text-anchor="middle" x="279.5" y="-80" font-family="Helvetica,sans-Serif" font-size="10.00" fill="#000000">src/qt/peertablemodel.h</text>
</a>
</g>
</g>
<!-- Node29&#45;&gt;Node32 -->
<g id="edge4" class="edge">
<title>Node29&#45;&gt;Node32</title>
<path fill="none" stroke="#191970" d="M279.5,-124.2462C279.5,-113.5519 279.5,-100.814 279.5,-92.2449"/>
<polygon fill="#191970" stroke="#191970" points="276.0001,-124.3906 279.5,-134.3906 283.0001,-124.3907 276.0001,-124.3906"/>
</g>
<!-- Node38 -->
<g id="node9" class="node">
<title>Node38</title>
<g id="a_node9"><a xlink:href="rpc_2net_8cpp.html" target="_top" xlink:title="src/rpc/net.cpp">
<polygon fill="#ffffff" stroke="#000000" points="357.5,-73 357.5,-92 439.5,-92 439.5,-73 357.5,-73"/>
<text text-anchor="middle" x="398.5" y="-80" font-family="Helvetica,sans-Serif" font-size="10.00" fill="#000000">src/rpc/net.cpp</text>
</a>
</g>
</g>
<!-- Node29&#45;&gt;Node38 -->
<g id="edge8" class="edge">
<title>Node29&#45;&gt;Node38</title>
<path fill="none" stroke="#191970" d="M307.1188,-129.7264C329.5379,-118.1401 360.5263,-102.1251 380.0368,-92.0419"/>
<polygon fill="#191970" stroke="#191970" points="305.3706,-126.6901 298.0938,-134.3906 308.5844,-132.9087 305.3706,-126.6901"/>
</g>
<!-- Node33 -->
<g id="node6" class="node">
<title>Node33</title>
<g id="a_node6"><a xlink:href="clientmodel_8cpp.html" target="_top" xlink:title="src/qt/clientmodel.cpp">
<polygon fill="#ffffff" stroke="#000000" points="348,-6 348,-25 461,-25 461,-6 348,-6"/>
<text text-anchor="middle" x="404.5" y="-13" font-family="Helvetica,sans-Serif" font-size="10.00" fill="#000000">src/qt/clientmodel.cpp</text>
</a>
</g>
</g>
<!-- Node32&#45;&gt;Node33 -->
<g id="edge5" class="edge">
<title>Node32&#45;&gt;Node33</title>
<path fill="none" stroke="#191970" d="M306.4449,-68.0575C330.7002,-55.0567 365.6607,-36.3179 386.6238,-25.0817"/>
<polygon fill="#191970" stroke="#191970" points="304.5697,-65.0915 297.4095,-72.9005 307.8767,-71.2611 304.5697,-65.0915"/>
</g>
<!-- Node34 -->
<g id="node7" class="node">
<title>Node34</title>
<g id="a_node7"><a xlink:href="peertablemodel_8cpp.html" target="_top" xlink:title="src/qt/peertablemodel.cpp">
<polygon fill="#ffffff" stroke="#000000" points="82,-6 82,-25 211,-25 211,-6 82,-6"/>
<text text-anchor="middle" x="146.5" y="-13" font-family="Helvetica,sans-Serif" font-size="10.00" fill="#000000">src/qt/peertablemodel.cpp</text>
</a>
</g>
</g>
<!-- Node32&#45;&gt;Node34 -->
<g id="edge6" class="edge">
<title>Node32&#45;&gt;Node34</title>
<path fill="none" stroke="#191970" d="M251.5131,-68.4013C225.6826,-55.389 188.0224,-36.4173 165.5203,-25.0817"/>
<polygon fill="#191970" stroke="#191970" points="249.9389,-71.5273 260.4443,-72.9005 253.0882,-65.2757 249.9389,-71.5273"/>
</g>
<!-- Node35 -->
<g id="node8" class="node">
<title>Node35</title>
<g id="a_node8"><a xlink:href="rpcconsole_8h.html" target="_top" xlink:title="src/qt/rpcconsole.h">
<polygon fill="#ffffff" stroke="#ff0000" points="229.5,-6 229.5,-25 329.5,-25 329.5,-6 229.5,-6"/>
<text text-anchor="middle" x="279.5" y="-13" font-family="Helvetica,sans-Serif" font-size="10.00" fill="#000000">src/qt/rpcconsole.h</text>
</a>
</g>
</g>
<!-- Node32&#45;&gt;Node35 -->
<g id="edge7" class="edge">
<title>Node32&#45;&gt;Node35</title>
<path fill="none" stroke="#191970" d="M279.5,-62.6079C279.5,-50.214 279.5,-34.8263 279.5,-25.0817"/>
<polygon fill="#191970" stroke="#191970" points="276.0001,-62.9005 279.5,-72.9005 283.0001,-62.9006 276.0001,-62.9005"/>
</g>
<!-- Node40&#45;&gt;Node39 -->
<g id="edge17" class="edge">
<title>Node40&#45;&gt;Node39</title>
<path fill="none" stroke="#191970" d="M2017.838,-143.2532C1756.5019,-139.7358 689.5975,-123.8984 542.5,-98 535.0536,-96.689 527.1729,-94.4477 520.0363,-92.0707"/>
<polygon fill="#191970" stroke="#191970" points="2017.8307,-146.7534 2027.8766,-143.3876 2017.9244,-139.754 2017.8307,-146.7534"/>
</g>
<!-- Node41 -->
<g id="node12" class="node">
<title>Node41</title>
<g id="a_node12"><a xlink:href="assets_2assets_8cpp.html" target="_top" xlink:title="src/assets/assets.cpp">
<polygon fill="#ffffff" stroke="#000000" points="2762,-6 2762,-25 2875,-25 2875,-6 2762,-6"/>
<text text-anchor="middle" x="2818.5" y="-13" font-family="Helvetica,sans-Serif" font-size="10.00" fill="#000000">src/assets/assets.cpp</text>
</a>
</g>
</g>
<!-- Node40&#45;&gt;Node41 -->
<g id="edge12" class="edge">
<title>Node40&#45;&gt;Node41</title>
<path fill="none" stroke="#191970" d="M2133.0806,-134.4876C2134.5677,-134.3145 2136.0428,-134.1514 2137.5,-134 2179.7088,-129.6144 2871.2088,-128.7058 2900.5,-98 2926.1478,-71.1135 2872.5656,-40.2567 2840.3968,-25.0265"/>
<polygon fill="#191970" stroke="#191970" points="2132.63,-131.0166 2123.1553,-135.7579 2133.5187,-137.96 2132.63,-131.0166"/>
</g>
<!-- Node42 -->
<g id="node13" class="node">
<title>Node42</title>
<g id="a_node13"><a xlink:href="assets_2messages_8cpp.html" target="_top" xlink:title="src/assets/messages.cpp">
<polygon fill="#ffffff" stroke="#000000" points="2948,-73 2948,-92 3077,-92 3077,-73 2948,-73"/>
<text text-anchor="middle" x="3012.5" y="-80" font-family="Helvetica,sans-Serif" font-size="10.00" fill="#000000">src/assets/messages.cpp</text>
</a>
</g>
</g>
<!-- Node40&#45;&gt;Node42 -->
<g id="edge13" class="edge">
<title>Node40&#45;&gt;Node42</title>
<path fill="none" stroke="#191970" d="M2133.0802,-134.4837C2134.5674,-134.3118 2136.0426,-134.15 2137.5,-134 2489.7787,-97.7451 2581.8849,-140.2079 2933.5,-98 2945.4343,-96.5674 2958.2658,-94.3481 2970.0447,-92.0323"/>
<polygon fill="#191970" stroke="#191970" points="2132.6317,-131.0125 2123.1543,-135.7484 2133.5165,-137.9564 2132.6317,-131.0125"/>
</g>
<!-- Node43 -->
<g id="node14" class="node">
<title>Node43</title>
<g id="a_node14"><a xlink:href="coin__selection_8cpp.html" target="_top" xlink:title="src/bench/coin_selection.cpp">
<polygon fill="#ffffff" stroke="#000000" points="3095,-73 3095,-92 3238,-92 3238,-73 3095,-73"/>
<text text-anchor="middle" x="3166.5" y="-80" font-family="Helvetica,sans-Serif" font-size="10.00" fill="#000000">src/bench/coin_selection.cpp</text>
</a>
</g>
</g>
<!-- Node40&#45;&gt;Node43 -->
<g id="edge14" class="edge">
<title>Node40&#45;&gt;Node43</title>
<path fill="none" stroke="#191970" d="M2133.0788,-134.4694C2134.5664,-134.3017 2136.0421,-134.1447 2137.5,-134 2557.518,-92.318 2667.1898,-146.2847 3086.5,-98 3098.7272,-96.592 3111.8833,-94.3508 3123.9247,-92.0054"/>
<polygon fill="#191970" stroke="#191970" points="2132.6381,-130.9972 2123.1507,-135.7132 2133.5083,-137.9429 2132.6381,-130.9972"/>
</g>
<!-- Node44 -->
<g id="node15" class="node">
<title>Node44</title>
<g id="a_node15"><a xlink:href="coins_8cpp.html" target="_top" xlink:title="src/coins.cpp">
<polygon fill="#ffffff" stroke="#000000" points="3256,-73 3256,-92 3331,-92 3331,-73 3256,-73"/>
<text text-anchor="middle" x="3293.5" y="-80" font-family="Helvetica,sans-Serif" font-size="10.00" fill="#000000">src/coins.cpp</text>
</a>
</g>
</g>
<!-- Node40&#45;&gt;Node44 -->
<g id="edge15" class="edge">
<title>Node40&#45;&gt;Node44</title>
<path fill="none" stroke="#191970" d="M2133.0777,-134.4587C2134.5656,-134.2941 2136.0417,-134.1407 2137.5,-134 2383.156,-110.3029 3004.6344,-141.8717 3247.5,-98 3254.7979,-96.6817 3262.514,-94.4382 3269.4985,-92.0613"/>
<polygon fill="#191970" stroke="#191970" points="2132.643,-130.9857 2123.1481,-135.6865 2133.5021,-137.9327 2132.643,-130.9857"/>
</g>
<!-- Node45 -->
<g id="node16" class="node">
<title>Node45</title>
<g id="a_node16"><a xlink:href="tx__verify_8cpp.html" target="_top" xlink:title="src/consensus/tx_verify.cpp">
<polygon fill="#ffffff" stroke="#000000" points="3349.5,-73 3349.5,-92 3489.5,-92 3489.5,-73 3349.5,-73"/>
<text text-anchor="middle" x="3419.5" y="-80" font-family="Helvetica,sans-Serif" font-size="10.00" fill="#000000">src/consensus/tx_verify.cpp</text>
</a>
</g>
</g>
<!-- Node40&#45;&gt;Node45 -->
<g id="edge16" class="edge">
<title>Node40&#45;&gt;Node45</title>
<path fill="none" stroke="#191970" d="M2133.0773,-134.4537C2134.5653,-134.2907 2136.0415,-134.1388 2137.5,-134 2669.9984,-83.3058 2808.9352,-157.6933 3340.5,-98 3352.5838,-96.643 3365.5785,-94.4182 3377.4692,-92.0721"/>
<polygon fill="#191970" stroke="#191970" points="2132.6452,-130.9804 2123.147,-135.6744 2133.4993,-137.9281 2132.6452,-130.9804"/>
</g>
<!-- Node46 -->
<g id="node17" class="node">
<title>Node46</title>
<g id="a_node17"><a xlink:href="addresstablemodel_8cpp.html" target="_top" xlink:title="src/qt/addresstablemodel.cpp">
<polygon fill="#ffffff" stroke="#000000" points="3508,-73 3508,-92 3653,-92 3653,-73 3508,-73"/>
<text text-anchor="middle" x="3580.5" y="-80" font-family="Helvetica,sans-Serif" font-size="10.00" fill="#000000">src/qt/addresstablemodel.cpp</text>
</a>
</g>
</g>
<!-- Node40&#45;&gt;Node46 -->
<g id="edge18" class="edge">
<title>Node40&#45;&gt;Node46</title>
<path fill="none" stroke="#191970" d="M2133.0766,-134.4469C2134.5648,-134.2859 2136.0413,-134.1363 2137.5,-134 2739.9755,-77.6989 2896.8364,-162.4012 3498.5,-98 3511.1772,-96.643 3524.8283,-94.3875 3537.2857,-92.0114"/>
<polygon fill="#191970" stroke="#191970" points="2132.6483,-130.9731 2123.1454,-135.6576 2133.4955,-137.9217 2132.6483,-130.9731"/>
</g>
<!-- Node47 -->
<g id="node18" class="node">
<title>Node47</title>
<g id="a_node18"><a xlink:href="assetcontroldialog_8cpp.html" target="_top" xlink:title="src/qt/assetcontroldialog.cpp">
<polygon fill="#ffffff" stroke="#000000" points="3251.5,-6 3251.5,-25 3393.5,-25 3393.5,-6 3251.5,-6"/>
<text text-anchor="middle" x="3322.5" y="-13" font-family="Helvetica,sans-Serif" font-size="10.00" fill="#000000">src/qt/assetcontroldialog.cpp</text>
</a>
</g>
</g>
<!-- Node40&#45;&gt;Node47 -->
<g id="edge19" class="edge">
<title>Node40&#45;&gt;Node47</title>
<path fill="none" stroke="#191970" d="M2133.0761,-134.4413C2134.5645,-134.2819 2136.0411,-134.1342 2137.5,-134 2179.6947,-130.1174 3632.8935,-128.3137 3662.5,-98 3672.1267,-88.1434 3671.4833,-77.4464 3662.5,-67 3645.2024,-46.885 3488.0106,-29.8748 3393.5311,-21.3554"/>
<polygon fill="#191970" stroke="#191970" points="2132.6509,-130.9672 2123.1441,-135.6438 2133.4923,-137.9164 2132.6509,-130.9672"/>
</g>
<!-- Node48 -->
<g id="node19" class="node">
<title>Node48</title>
<g id="a_node19"><a xlink:href="assettablemodel_8cpp.html" target="_top" xlink:title="src/qt/assettablemodel.cpp">
<polygon fill="#ffffff" stroke="#000000" points="551.5,-73 551.5,-92 685.5,-92 685.5,-73 551.5,-73"/>
<text text-anchor="middle" x="618.5" y="-80" font-family="Helvetica,sans-Serif" font-size="10.00" fill="#000000">src/qt/assettablemodel.cpp</text>
</a>
</g>
</g>
<!-- Node40&#45;&gt;Node48 -->
<g id="edge20" class="edge">
<title>Node40&#45;&gt;Node48</title>
<path fill="none" stroke="#191970" d="M2017.7658,-143.2685C1791.0099,-140.2098 961.0845,-127.2206 699.5,-98 687.1206,-96.6171 673.8004,-94.384 661.6085,-92.0383"/>
<polygon fill="#191970" stroke="#191970" points="2017.7434,-146.7685 2027.7894,-143.4026 2017.8371,-139.7691 2017.7434,-146.7685"/>
</g>
<!-- Node49 -->
<g id="node20" class="node">
<title>Node49</title>
<g id="a_node20"><a xlink:href="coincontroldialog_8cpp.html" target="_top" xlink:title="src/qt/coincontroldialog.cpp">
<polygon fill="#ffffff" stroke="#000000" points="654.5,-6 654.5,-25 790.5,-25 790.5,-6 654.5,-6"/>
<text text-anchor="middle" x="722.5" y="-13" font-family="Helvetica,sans-Serif" font-size="10.00" fill="#000000">src/qt/coincontroldialog.cpp</text>
</a>
</g>
</g>
<!-- Node40&#45;&gt;Node49 -->
<g id="edge21" class="edge">
<title>Node40&#45;&gt;Node49</title>
<path fill="none" stroke="#191970" d="M2017.5051,-143.6725C1769.9975,-142.0585 812.3311,-133.5321 759.5,-98 734.491,-81.18 726.183,-43.1837 723.5921,-25.2369"/>
<polygon fill="#191970" stroke="#191970" points="2017.7039,-147.1737 2027.7261,-143.7378 2017.7487,-140.1739 2017.7039,-147.1737"/>
</g>
<!-- Node50 -->
<g id="node21" class="node">
<title>Node50</title>
<g id="a_node21"><a xlink:href="createassetdialog_8cpp.html" target="_top" xlink:title="src/qt/createassetdialog.cpp">
<polygon fill="#ffffff" stroke="#000000" points="817.5,-6 817.5,-25 957.5,-25 957.5,-6 817.5,-6"/>
<text text-anchor="middle" x="887.5" y="-13" font-family="Helvetica,sans-Serif" font-size="10.00" fill="#000000">src/qt/createassetdialog.cpp</text>
</a>
</g>
</g>
<!-- Node40&#45;&gt;Node50 -->
<g id="edge22" class="edge">
<title>Node40&#45;&gt;Node50</title>
<path fill="none" stroke="#191970" d="M2017.2857,-143.0398C1766.8016,-138.7732 792.4498,-120.7371 770.5,-98 739.8592,-66.2601 807.956,-38.8729 852.5996,-25.0613"/>
<polygon fill="#191970" stroke="#191970" points="2017.5683,-146.545 2027.6263,-143.2151 2017.6871,-139.546 2017.5683,-146.545"/>
</g>
<!-- Node51 -->
<g id="node22" class="node">
<title>Node51</title>
<g id="a_node22"><a xlink:href="paymentserver_8cpp.html" target="_top" xlink:title="src/qt/paymentserver.cpp">
<polygon fill="#ffffff" stroke="#000000" points="779.5,-73 779.5,-92 907.5,-92 907.5,-73 779.5,-73"/>
<text text-anchor="middle" x="843.5" y="-80" font-family="Helvetica,sans-Serif" font-size="10.00" fill="#000000">src/qt/paymentserver.cpp</text>
</a>
</g>
</g>
<!-- Node40&#45;&gt;Node51 -->
<g id="edge23" class="edge">
<title>Node40&#45;&gt;Node51</title>
<path fill="none" stroke="#191970" d="M2017.6029,-142.8906C1814.8187,-138.8178 1137.2694,-123.5799 921.5,-98 909.709,-96.6022 897.0375,-94.3942 885.4077,-92.0783"/>
<polygon fill="#191970" stroke="#191970" points="2017.677,-146.3927 2027.7448,-143.093 2017.8167,-139.3941 2017.677,-146.3927"/>
</g>
<!-- Node52 -->
<g id="node23" class="node">
<title>Node52</title>
<g id="a_node23"><a xlink:href="reissueassetdialog_8cpp.html" target="_top" xlink:title="src/qt/reissueassetdialog.cpp">
<polygon fill="#ffffff" stroke="#000000" points="1010.5,-6 1010.5,-25 1154.5,-25 1154.5,-6 1010.5,-6"/>
<text text-anchor="middle" x="1082.5" y="-13" font-family="Helvetica,sans-Serif" font-size="10.00" fill="#000000">src/qt/reissueassetdialog.cpp</text>
</a>
</g>
</g>
<!-- Node40&#45;&gt;Node52 -->
<g id="edge24" class="edge">
<title>Node40&#45;&gt;Node52</title>
<path fill="none" stroke="#191970" d="M2017.4546,-143.8196C1792.8759,-142.8415 991.5929,-136.6462 954.5,-98 922.4622,-64.6206 994.0405,-38.3248 1042.5436,-25.0262"/>
<polygon fill="#191970" stroke="#191970" points="2017.693,-147.3205 2027.7076,-143.8623 2017.7223,-140.3206 2017.693,-147.3205"/>
</g>
<!-- Node53 -->
<g id="node24" class="node">
<title>Node53</title>
<g id="a_node24"><a xlink:href="signverifymessagedialog_8cpp.html" target="_top" xlink:title="src/qt/signverifymessagedialog.cpp">
<polygon fill="#ffffff" stroke="#000000" points="963.5,-73 963.5,-92 1133.5,-92 1133.5,-73 963.5,-73"/>
<text text-anchor="middle" x="1048.5" y="-80" font-family="Helvetica,sans-Serif" font-size="10.00" fill="#000000">src/qt/signverifymessagedialog.cpp</text>
</a>
</g>
</g>
<!-- Node40&#45;&gt;Node53 -->
<g id="edge25" class="edge">
<title>Node40&#45;&gt;Node53</title>
<path fill="none" stroke="#191970" d="M2017.6478,-143.4406C1870.9053,-141.5245 1472.4211,-133.2177 1142.5,-98 1128.5206,-96.5078 1113.4614,-94.2977 1099.5805,-92.0109"/>
<polygon fill="#191970" stroke="#191970" points="2017.7306,-146.9418 2027.7738,-143.5678 2017.8186,-139.9424 2017.7306,-146.9418"/>
</g>
<!-- Node54 -->
<g id="node25" class="node">
<title>Node54</title>
<g id="a_node25"><a xlink:href="transactiondesc_8cpp.html" target="_top" xlink:title="src/qt/transactiondesc.cpp">
<polygon fill="#ffffff" stroke="#000000" points="1151.5,-73 1151.5,-92 1283.5,-92 1283.5,-73 1151.5,-73"/>
<text text-anchor="middle" x="1217.5" y="-80" font-family="Helvetica,sans-Serif" font-size="10.00" fill="#000000">src/qt/transactiondesc.cpp</text>
</a>
</g>
</g>
<!-- Node40&#45;&gt;Node54 -->
<g id="edge26" class="edge">
<title>Node40&#45;&gt;Node54</title>
<path fill="none" stroke="#191970" d="M2017.4579,-143.4647C1887.21,-141.6359 1561.9546,-133.5675 1292.5,-98 1281.2956,-96.521 1269.2633,-94.3154 1258.188,-92.0287"/>
<polygon fill="#191970" stroke="#191970" points="2017.5599,-146.9663 2027.6057,-143.5999 2017.6532,-139.9669 2017.5599,-146.9663"/>
</g>
<!-- Node55 -->
<g id="node26" class="node">
<title>Node55</title>
<g id="a_node26"><a xlink:href="transactionrecord_8cpp.html" target="_top" xlink:title="src/qt/transactionrecord.cpp">
<polygon fill="#ffffff" stroke="#000000" points="1301.5,-73 1301.5,-92 1439.5,-92 1439.5,-73 1301.5,-73"/>
<text text-anchor="middle" x="1370.5" y="-80" font-family="Helvetica,sans-Serif" font-size="10.00" fill="#000000">src/qt/transactionrecord.cpp</text>
</a>
</g>
</g>
<!-- Node40&#45;&gt;Node55 -->
<g id="edge27" class="edge">
<title>Node40&#45;&gt;Node55</title>
<path fill="none" stroke="#191970" d="M2017.4036,-142.1239C1906.4169,-138.0123 1656.7465,-126.2213 1448.5,-98 1437.1444,-96.4611 1424.9531,-94.2908 1413.6615,-92.0602"/>
<polygon fill="#191970" stroke="#191970" points="2017.5848,-145.6327 2027.7053,-142.4981 2017.839,-138.6373 2017.5848,-145.6327"/>
</g>
<!-- Node56 -->
<g id="node27" class="node">
<title>Node56</title>
<g id="a_node27"><a xlink:href="transactiontablemodel_8cpp.html" target="_top" xlink:title="src/qt/transactiontablemodel.cpp">
<polygon fill="#ffffff" stroke="#000000" points="1457.5,-73 1457.5,-92 1615.5,-92 1615.5,-73 1457.5,-73"/>
<text text-anchor="middle" x="1536.5" y="-80" font-family="Helvetica,sans-Serif" font-size="10.00" fill="#000000">src/qt/transactiontablemodel.cpp</text>
</a>
</g>
</g>
<!-- Node40&#45;&gt;Node56 -->
<g id="edge28" class="edge">
<title>Node40&#45;&gt;Node56</title>
<path fill="none" stroke="#191970" d="M2017.8791,-139.2141C1932.7636,-131.8827 1768.4946,-116.7322 1629.5,-98 1616.6847,-96.2729 1602.9225,-94.1357 1590.0181,-92.0059"/>
<polygon fill="#191970" stroke="#191970" points="2017.5974,-142.7027 2027.8597,-140.0691 2018.1949,-135.7282 2017.5974,-142.7027"/>
</g>
<!-- Node57 -->
<g id="node28" class="node">
<title>Node57</title>
<g id="a_node28"><a xlink:href="walletmodel_8cpp.html" target="_top" xlink:title="src/qt/walletmodel.cpp">
<polygon fill="#ffffff" stroke="#000000" points="1190,-6 1190,-25 1305,-25 1305,-6 1190,-6"/>
<text text-anchor="middle" x="1247.5" y="-13" font-family="Helvetica,sans-Serif" font-size="10.00" fill="#000000">src/qt/walletmodel.cpp</text>
</a>
</g>
</g>
<!-- Node40&#45;&gt;Node57 -->
<g id="edge29" class="edge">
<title>Node40&#45;&gt;Node57</title>
<path fill="none" stroke="#191970" d="M2017.6976,-141.5896C1919.6378,-136.8349 1725.2174,-124.3399 1662.5,-98 1642.4044,-89.5603 1644.5758,-75.4868 1624.5,-67 1496.7429,-12.9922 1451.1694,-54.6682 1314.5,-31 1304.9711,-29.3498 1294.7647,-27.1921 1285.2634,-25.0133"/>
<polygon fill="#191970" stroke="#191970" points="2017.5817,-145.0879 2027.7363,-142.0655 2017.9133,-138.0957 2017.5817,-145.0879"/>
</g>
<!-- Node58 -->
<g id="node29" class="node">
<title>Node58</title>
<g id="a_node29"><a xlink:href="walletmodeltransaction_8cpp.html" target="_top" xlink:title="src/qt/walletmodeltransaction.cpp">
<polygon fill="#ffffff" stroke="#000000" points="1672,-73 1672,-92 1835,-92 1835,-73 1672,-73"/>
<text text-anchor="middle" x="1753.5" y="-80" font-family="Helvetica,sans-Serif" font-size="10.00" fill="#000000">src/qt/walletmodeltransaction.cpp</text>
</a>
</g>
</g>
<!-- Node40&#45;&gt;Node58 -->
<g id="edge30" class="edge">
<title>Node40&#45;&gt;Node58</title>
<path fill="none" stroke="#191970" d="M2018.1206,-133.0409C1957.0382,-121.3745 1861.3562,-103.0999 1803.327,-92.0166"/>
<polygon fill="#191970" stroke="#191970" points="2017.5087,-136.4872 2027.9878,-134.9255 2018.822,-129.6115 2017.5087,-136.4872"/>
</g>
<!-- Node59 -->
<g id="node30" class="node">
<title>Node59</title>
<g id="a_node30"><a xlink:href="rpc_2assets_8cpp.html" target="_top" xlink:title="src/rpc/assets.cpp">
<polygon fill="#ffffff" stroke="#000000" points="1323.5,-6 1323.5,-25 1421.5,-25 1421.5,-6 1323.5,-6"/>
<text text-anchor="middle" x="1372.5" y="-13" font-family="Helvetica,sans-Serif" font-size="10.00" fill="#000000">src/rpc/assets.cpp</text>
</a>
</g>
</g>
<!-- Node40&#45;&gt;Node59 -->
<g id="edge31" class="edge">
<title>Node40&#45;&gt;Node59</title>
<path fill="none" stroke="#191970" d="M2017.8353,-138.4525C1976.8145,-132.6801 1921.4201,-121.0764 1877.5,-98 1859.3974,-88.4885 1862.229,-75.2096 1843.5,-67 1674.7484,6.9699 1611.968,-62.9061 1430.5,-31 1421.8771,-29.4839 1412.6684,-27.2939 1404.1866,-25.0355"/>
<polygon fill="#191970" stroke="#191970" points="2017.5644,-141.9472 2027.9389,-139.7978 2018.4884,-135.0084 2017.5644,-141.9472"/>
</g>
<!-- Node60 -->
<g id="node31" class="node">
<title>Node60</title>
<g id="a_node31"><a xlink:href="rpc_2messages_8cpp.html" target="_top" xlink:title="src/rpc/messages.cpp">
<polygon fill="#ffffff" stroke="#000000" points="1440,-6 1440,-25 1553,-25 1553,-6 1440,-6"/>
<text text-anchor="middle" x="1496.5" y="-13" font-family="Helvetica,sans-Serif" font-size="10.00" fill="#000000">src/rpc/messages.cpp</text>
</a>
</g>
</g>
<!-- Node40&#45;&gt;Node60 -->
<g id="edge32" class="edge">
<title>Node40&#45;&gt;Node60</title>
<path fill="none" stroke="#191970" d="M2018.9467,-132.0766C1988.8037,-124.5325 1951.6242,-113.2875 1920.5,-98 1899.3534,-87.6133 1899.4736,-75.4984 1877.5,-67 1745.6636,-16.0118 1700.7243,-55.4384 1561.5,-31 1552.2446,-29.3754 1542.3388,-27.2271 1533.1207,-25.0492"/>
<polygon fill="#191970" stroke="#191970" points="2018.3365,-135.5301 2028.8805,-134.4936 2019.9914,-128.7286 2018.3365,-135.5301"/>
</g>
<!-- Node40&#45;&gt;Node61 -->
<g id="edge33" class="edge">
<title>Node40&#45;&gt;Node61</title>
<path fill="none" stroke="#191970" d="M2133.076,-134.4403C2134.5644,-134.2813 2136.041,-134.1339 2137.5,-134 2482.3657,-102.3537 3352.3816,-144.9425 3695.5,-98 3705.0269,-96.6966 3715.212,-94.4578 3724.4771,-92.0806"/>
<polygon fill="#191970" stroke="#191970" points="2132.6514,-130.9661 2123.1439,-135.6414 2133.4918,-137.9155 2132.6514,-130.9661"/>
</g>
<!-- Node62 -->
<g id="node33" class="node">
<title>Node62</title>
<g id="a_node33"><a xlink:href="coincontrol_8h.html" target="_top" xlink:title="src/wallet/coincontrol.h">
<polygon fill="#ffffff" stroke="#000000" points="1930,-73 1930,-92 2047,-92 2047,-73 1930,-73"/>
<text text-anchor="middle" x="1988.5" y="-80" font-family="Helvetica,sans-Serif" font-size="10.00" fill="#000000">src/wallet/coincontrol.h</text>
</a>
</g>
</g>
<!-- Node40&#45;&gt;Node62 -->
<g id="edge34" class="edge">
<title>Node40&#45;&gt;Node62</title>
<path fill="none" stroke="#191970" d="M2053.5287,-128.4685C2037.3101,-117.0037 2015.7529,-101.765 2001.9983,-92.0419"/>
<polygon fill="#191970" stroke="#191970" points="2051.7201,-131.4763 2061.9063,-134.3906 2055.7608,-125.7602 2051.7201,-131.4763"/>
</g>
<!-- Node66 -->
<g id="node37" class="node">
<title>Node66</title>
<g id="a_node37"><a xlink:href="feebumper_8cpp.html" target="_top" xlink:title="src/wallet/feebumper.cpp">
<polygon fill="#ffffff" stroke="#000000" points="2012.5,-6 2012.5,-25 2138.5,-25 2138.5,-6 2012.5,-6"/>
<text text-anchor="middle" x="2075.5" y="-13" font-family="Helvetica,sans-Serif" font-size="10.00" fill="#000000">src/wallet/feebumper.cpp</text>
</a>
</g>
</g>
<!-- Node40&#45;&gt;Node66 -->
<g id="edge51" class="edge">
<title>Node40&#45;&gt;Node66</title>
<path fill="none" stroke="#191970" d="M2075.5,-124.1733C2075.5,-96.2236 2075.5,-46.3037 2075.5,-25.2705"/>
<polygon fill="#191970" stroke="#191970" points="2072.0001,-124.3416 2075.5,-134.3416 2079.0001,-124.3416 2072.0001,-124.3416"/>
</g>
<!-- Node67 -->
<g id="node38" class="node">
<title>Node67</title>
<g id="a_node38"><a xlink:href="wallet_2fees_8cpp.html" target="_top" xlink:title="src/wallet/fees.cpp">
<polygon fill="#ffffff" stroke="#000000" points="2157,-6 2157,-25 2256,-25 2256,-6 2157,-6"/>
<text text-anchor="middle" x="2206.5" y="-13" font-family="Helvetica,sans-Serif" font-size="10.00" fill="#000000">src/wallet/fees.cpp</text>
</a>
</g>
</g>
<!-- Node40&#45;&gt;Node67 -->
<g id="edge52" class="edge">
<title>Node40&#45;&gt;Node67</title>
<path fill="none" stroke="#191970" d="M2088.1647,-125.7456C2099.9447,-109.423 2118.4937,-85.3209 2137.5,-67 2154.5041,-50.6091 2176.8023,-34.8334 2191.3824,-25.157"/>
<polygon fill="#191970" stroke="#191970" points="2084.9891,-124.173 2082.0587,-134.3545 2090.6988,-128.2226 2084.9891,-124.173"/>
</g>
<!-- Node68 -->
<g id="node39" class="node">
<title>Node68</title>
<g id="a_node39"><a xlink:href="rpcwallet_8cpp.html" target="_top" xlink:title="src/wallet/rpcwallet.cpp">
<polygon fill="#ffffff" stroke="#000000" points="2274,-6 2274,-25 2393,-25 2393,-6 2274,-6"/>
<text text-anchor="middle" x="2333.5" y="-13" font-family="Helvetica,sans-Serif" font-size="10.00" fill="#000000">src/wallet/rpcwallet.cpp</text>
</a>
</g>
</g>
<!-- Node40&#45;&gt;Node68 -->
<g id="edge55" class="edge">
<title>Node40&#45;&gt;Node68</title>
<path fill="none" stroke="#191970" d="M2097.0504,-128.3862C2109.058,-119.593 2124.222,-108.333 2137.5,-98 2154.7011,-84.6141 2156.3691,-77.4436 2175.5,-67 2211.9656,-47.0933 2257.3996,-33.2867 2290.1746,-25.0162"/>
<polygon fill="#191970" stroke="#191970" points="2094.9532,-125.5837 2088.9369,-134.3046 2099.0785,-131.239 2094.9532,-125.5837"/>
</g>
<!-- Node69 -->
<g id="node40" class="node">
<title>Node69</title>
<g id="a_node40"><a xlink:href="wallet__tests_8cpp.html" target="_top" xlink:title="src/wallet/test/wallet\l_tests.cpp">
<polygon fill="#ffffff" stroke="#000000" points="2411,-.5 2411,-30.5 2518,-30.5 2518,-.5 2411,-.5"/>
<text text-anchor="start" x="2419" y="-18.5" font-family="Helvetica,sans-Serif" font-size="10.00" fill="#000000">src/wallet/test/wallet</text>
<text text-anchor="middle" x="2464.5" y="-7.5" font-family="Helvetica,sans-Serif" font-size="10.00" fill="#000000">_tests.cpp</text>
</a>
</g>
</g>
<!-- Node40&#45;&gt;Node69 -->
<g id="edge58" class="edge">
<title>Node40&#45;&gt;Node69</title>
<path fill="none" stroke="#191970" d="M2107.2628,-130.2963C2126.0712,-121.7731 2150.1289,-110.1498 2170.5,-98 2190.7342,-85.9319 2191.864,-76.3245 2213.5,-67 2291.627,-33.3295 2318.389,-49.1685 2401.5,-31 2404.5811,-30.3265 2407.7418,-29.6148 2410.9279,-28.8815"/>
<polygon fill="#191970" stroke="#191970" points="2105.6545,-127.1813 2097.953,-134.4571 2108.5108,-133.5721 2105.6545,-127.1813"/>
</g>
<!-- Node70 -->
<g id="node41" class="node">
<title>Node70</title>
<g id="a_node41"><a xlink:href="wallet_8cpp.html" target="_top" xlink:title="src/wallet/wallet.cpp">
<polygon fill="#ffffff" stroke="#000000" points="2536.5,-6 2536.5,-25 2642.5,-25 2642.5,-6 2536.5,-6"/>
<text text-anchor="middle" x="2589.5" y="-13" font-family="Helvetica,sans-Serif" font-size="10.00" fill="#000000">src/wallet/wallet.cpp</text>
</a>
</g>
</g>
<!-- Node40&#45;&gt;Node70 -->
<g id="edge59" class="edge">
<title>Node40&#45;&gt;Node70</title>
<path fill="none" stroke="#191970" d="M2122.2921,-131.5754C2148.0001,-123.7756 2179.9603,-112.4472 2206.5,-98 2226.2545,-87.2465 2225.7281,-75.6257 2246.5,-67 2362.3752,-18.8819 2403.1619,-54.0247 2526.5,-31 2535.3579,-29.3464 2544.832,-27.2126 2553.6721,-25.0603"/>
<polygon fill="#191970" stroke="#191970" points="2121.0109,-128.3043 2112.4122,-134.494 2122.9941,-135.0175 2121.0109,-128.3043"/>
</g>
<!-- Node71 -->
<g id="node42" class="node">
<title>Node71</title>
<g id="a_node42"><a xlink:href="wallet_2init_8cpp.html" target="_top" xlink:title="src/wallet/init.cpp">
<polygon fill="#ffffff" stroke="#000000" points="2256,-73 2256,-92 2349,-92 2349,-73 2256,-73"/>
<text text-anchor="middle" x="2302.5" y="-80" font-family="Helvetica,sans-Serif" font-size="10.00" fill="#000000">src/wallet/init.cpp</text>
</a>
</g>
</g>
<!-- Node40&#45;&gt;Node71 -->
<g id="edge53" class="edge">
<title>Node40&#45;&gt;Node71</title>
<path fill="none" stroke="#191970" d="M2120.6389,-131.7707C2163.7458,-120.092 2227.8197,-102.7328 2267.2803,-92.0419"/>
<polygon fill="#191970" stroke="#191970" points="2119.7055,-128.3974 2110.9688,-134.3906 2121.5361,-135.1538 2119.7055,-128.3974"/>
</g>
<!-- Node72 -->
<g id="node43" class="node">
<title>Node72</title>
<g id="a_node43"><a xlink:href="rpcdump_8cpp.html" target="_top" xlink:title="src/wallet/rpcdump.cpp">
<polygon fill="#ffffff" stroke="#000000" points="2367.5,-73 2367.5,-92 2485.5,-92 2485.5,-73 2367.5,-73"/>
<text text-anchor="middle" x="2426.5" y="-80" font-family="Helvetica,sans-Serif" font-size="10.00" fill="#000000">src/wallet/rpcdump.cpp</text>
</a>
</g>
</g>
<!-- Node40&#45;&gt;Node72 -->
<g id="edge54" class="edge">
<title>Node40&#45;&gt;Node72</title>
<path fill="none" stroke="#191970" d="M2133.4612,-134.6354C2212.7686,-121.8088 2346.5909,-100.1131 2357.5,-98 2366.6608,-96.2255 2376.4636,-94.1386 2385.72,-92.081"/>
<polygon fill="#191970" stroke="#191970" points="2132.4377,-131.2554 2123.1247,-136.3069 2133.5552,-138.1656 2132.4377,-131.2554"/>
</g>
<!-- Node73 -->
<g id="node44" class="node">
<title>Node73</title>
<g id="a_node44"><a xlink:href="accounting__tests_8cpp.html" target="_top" xlink:title="src/wallet/test/accounting\l_tests.cpp">
<polygon fill="#ffffff" stroke="#000000" points="2503.5,-67.5 2503.5,-97.5 2631.5,-97.5 2631.5,-67.5 2503.5,-67.5"/>
<text text-anchor="start" x="2511.5" y="-85.5" font-family="Helvetica,sans-Serif" font-size="10.00" fill="#000000">src/wallet/test/accounting</text>
<text text-anchor="middle" x="2567.5" y="-74.5" font-family="Helvetica,sans-Serif" font-size="10.00" fill="#000000">_tests.cpp</text>
</a>
</g>
</g>
<!-- Node40&#45;&gt;Node73 -->
<g id="edge56" class="edge">
<title>Node40&#45;&gt;Node73</title>
<path fill="none" stroke="#191970" d="M2133.0929,-134.5921C2134.5763,-134.388 2136.0473,-134.1902 2137.5,-134 2295.6214,-113.2944 2336.937,-122.5973 2494.5,-98 2497.4443,-97.5404 2500.4487,-97.0382 2503.4788,-96.5049"/>
<polygon fill="#191970" stroke="#191970" points="2132.586,-131.1289 2123.1856,-136.0158 2133.5818,-138.0577 2132.586,-131.1289"/>
</g>
<!-- Node74 -->
<g id="node45" class="node">
<title>Node74</title>
<g id="a_node45"><a xlink:href="wallet__test__fixture_8cpp.html" target="_top" xlink:title="src/wallet/test/wallet\l_test_fixture.cpp">
<polygon fill="#ffffff" stroke="#000000" points="2650,-67.5 2650,-97.5 2757,-97.5 2757,-67.5 2650,-67.5"/>
<text text-anchor="start" x="2658" y="-85.5" font-family="Helvetica,sans-Serif" font-size="10.00" fill="#000000">src/wallet/test/wallet</text>
<text text-anchor="middle" x="2703.5" y="-74.5" font-family="Helvetica,sans-Serif" font-size="10.00" fill="#000000">_test_fixture.cpp</text>
</a>
</g>
</g>
<!-- Node40&#45;&gt;Node74 -->
<g id="edge57" class="edge">
<title>Node40&#45;&gt;Node74</title>
<path fill="none" stroke="#191970" d="M2133.0859,-134.5352C2134.5714,-134.348 2136.0447,-134.1691 2137.5,-134 2360.1294,-108.1305 2419.1063,-132.8985 2640.5,-98 2643.5041,-97.5265 2646.5753,-96.9804 2649.6661,-96.3824"/>
<polygon fill="#191970" stroke="#191970" points="2132.6094,-131.0677 2123.1682,-135.8755 2133.5469,-138.0046 2132.6094,-131.0677"/>
</g>
<!-- Node75 -->
<g id="node46" class="node">
<title>Node75</title>
<g id="a_node46"><a xlink:href="walletdb_8cpp.html" target="_top" xlink:title="src/wallet/walletdb.cpp">
<polygon fill="#ffffff" stroke="#000000" points="2775.5,-73 2775.5,-92 2891.5,-92 2891.5,-73 2775.5,-73"/>
<text text-anchor="middle" x="2833.5" y="-80" font-family="Helvetica,sans-Serif" font-size="10.00" fill="#000000">src/wallet/walletdb.cpp</text>
</a>
</g>
</g>
<!-- Node40&#45;&gt;Node75 -->
<g id="edge60" class="edge">
<title>Node40&#45;&gt;Node75</title>
<path fill="none" stroke="#191970" d="M2133.0827,-134.5074C2134.5692,-134.3284 2136.0435,-134.1588 2137.5,-134 2415.4227,-103.7018 2488.6928,-137.2022 2765.5,-98 2775.6904,-96.5568 2786.6104,-94.3632 2796.652,-92.0766"/>
<polygon fill="#191970" stroke="#191970" points="2132.6213,-131.0379 2123.1605,-135.8068 2133.5303,-137.9786 2132.6213,-131.0379"/>
</g>
<!-- Node62&#45;&gt;Node41 -->
<g id="edge35" class="edge">
<title>Node62&#45;&gt;Node41</title>
<path fill="none" stroke="#191970" d="M2057.2368,-77.5027C2177.6708,-68.6706 2434.6547,-49.4841 2651.5,-31 2688.2008,-27.8716 2729.4081,-24.0502 2761.7068,-20.9846"/>
<polygon fill="#191970" stroke="#191970" points="2056.7763,-74.027 2047.0588,-78.2483 2057.2878,-81.0083 2056.7763,-74.027"/>
</g>
<!-- Node62&#45;&gt;Node47 -->
<g id="edge36" class="edge">
<title>Node62&#45;&gt;Node47</title>
<path fill="none" stroke="#191970" d="M2057.2541,-78.1411C2109.224,-74.9017 2182.3347,-70.4629 2246.5,-67 2625.1308,-46.5661 3078.9391,-26.1957 3251.3481,-18.6054"/>
<polygon fill="#191970" stroke="#191970" points="2056.9132,-74.6555 2047.1509,-78.7723 2057.3497,-81.6419 2056.9132,-74.6555"/>
</g>
<!-- Node62&#45;&gt;Node49 -->
<g id="edge38" class="edge">
<title>Node62&#45;&gt;Node49</title>
<path fill="none" stroke="#191970" d="M1919.5812,-74.1116C1895.54,-71.4567 1868.3593,-68.7587 1843.5,-67 1384.3694,-34.5174 1266.1682,-79.9469 808.5,-31 795.376,-29.5964 781.2397,-27.3567 768.295,-25.0112"/>
<polygon fill="#191970" stroke="#191970" points="1919.3486,-77.6074 1929.6764,-75.2439 1920.1288,-70.651 1919.3486,-77.6074"/>
</g>
<!-- Node62&#45;&gt;Node50 -->
<g id="edge39" class="edge">
<title>Node62&#45;&gt;Node50</title>
<path fill="none" stroke="#191970" d="M1919.573,-74.224C1895.5311,-71.5785 1868.3521,-68.8577 1843.5,-67 1469.978,-39.0794 1374.5839,-64.2671 1001.5,-31 984.6889,-29.501 966.5552,-27.3028 949.8037,-25.0303"/>
<polygon fill="#191970" stroke="#191970" points="1919.3422,-77.7199 1929.6686,-75.3504 1920.1184,-70.7631 1919.3422,-77.7199"/>
</g>
<!-- Node62&#45;&gt;Node52 -->
<g id="edge40" class="edge">
<title>Node62&#45;&gt;Node52</title>
<path fill="none" stroke="#191970" d="M1919.5604,-74.3866C1895.5174,-71.7546 1868.341,-69.0008 1843.5,-67 1549.3518,-43.3086 1473.9583,-62.0914 1180.5,-31 1166.1112,-29.4755 1150.6138,-27.2827 1136.2845,-25.0242"/>
<polygon fill="#191970" stroke="#191970" points="1919.3322,-77.8826 1929.6567,-75.5046 1920.1027,-70.9252 1919.3322,-77.8826"/>
</g>
<!-- Node62&#45;&gt;Node57 -->
<g id="edge43" class="edge">
<title>Node62&#45;&gt;Node57</title>
<path fill="none" stroke="#191970" d="M1919.8645,-74.6148C1895.7414,-71.9889 1868.4371,-69.1805 1843.5,-67 1608.7409,-46.4722 1547.591,-65.6672 1314.5,-31 1304.4621,-29.5071 1293.7036,-27.2968 1283.8097,-25.01"/>
<polygon fill="#191970" stroke="#191970" points="1919.6698,-78.1144 1929.992,-75.7267 1920.4337,-71.1562 1919.6698,-78.1144"/>
</g>
<!-- Node62&#45;&gt;Node59 -->
<g id="edge44" class="edge">
<title>Node62&#45;&gt;Node59</title>
<path fill="none" stroke="#191970" d="M1919.7815,-72.2667C1905.808,-70.3655 1891.196,-68.5065 1877.5,-67 1679.3849,-45.2087 1626.9114,-64.8673 1430.5,-31 1421.8722,-29.5123 1412.6617,-27.3321 1404.1799,-25.074"/>
<polygon fill="#191970" stroke="#191970" points="1919.4362,-75.7522 1929.8212,-73.6542 1920.3945,-68.8181 1919.4362,-75.7522"/>
</g>
<!-- Node62&#45;&gt;Node60 -->
<g id="edge45" class="edge">
<title>Node62&#45;&gt;Node60</title>
<path fill="none" stroke="#191970" d="M1937.4529,-70.9309C1930.1094,-69.4797 1922.6281,-68.1159 1915.5,-67 1759.2581,-42.5412 1717.4258,-57.3996 1561.5,-31 1552.1206,-29.412 1542.0808,-27.251 1532.7661,-25.047"/>
<polygon fill="#191970" stroke="#191970" points="1936.8371,-74.3773 1947.3352,-72.9487 1938.2376,-67.5188 1936.8371,-74.3773"/>
</g>
<!-- Node63 -->
<g id="node34" class="node">
<title>Node63</title>
<g id="a_node34"><a xlink:href="assetsdialog_8cpp.html" target="_top" xlink:title="src/qt/assetsdialog.cpp">
<polygon fill="#ffffff" stroke="#000000" points="1722.5,-6 1722.5,-25 1840.5,-25 1840.5,-6 1722.5,-6"/>
<text text-anchor="middle" x="1781.5" y="-13" font-family="Helvetica,sans-Serif" font-size="10.00" fill="#000000">src/qt/assetsdialog.cpp</text>
</a>
</g>
</g>
<!-- Node62&#45;&gt;Node63 -->
<g id="edge37" class="edge">
<title>Node62&#45;&gt;Node63</title>
<path fill="none" stroke="#191970" d="M1949.1034,-69.7484C1908.8814,-56.7297 1847.3539,-36.815 1811.103,-25.0817"/>
<polygon fill="#191970" stroke="#191970" points="1948.2501,-73.151 1958.8419,-72.9005 1950.4057,-66.4911 1948.2501,-73.151"/>
</g>
<!-- Node64 -->
<g id="node35" class="node">
<title>Node64</title>
<g id="a_node35"><a xlink:href="sendassetsentry_8cpp.html" target="_top" xlink:title="src/qt/sendassetsentry.cpp">
<polygon fill="#ffffff" stroke="#000000" points="1859,-6 1859,-25 1994,-25 1994,-6 1859,-6"/>
<text text-anchor="middle" x="1926.5" y="-13" font-family="Helvetica,sans-Serif" font-size="10.00" fill="#000000">src/qt/sendassetsentry.cpp</text>
</a>
</g>
</g>
<!-- Node62&#45;&gt;Node64 -->
<g id="edge41" class="edge">
<title>Node62&#45;&gt;Node64</title>
<path fill="none" stroke="#191970" d="M1972.5047,-65.2147C1960.6842,-52.441 1945.0282,-35.5224 1935.3666,-25.0817"/>
<polygon fill="#191970" stroke="#191970" points="1970.2561,-67.9381 1979.6169,-72.9005 1975.3939,-63.1837 1970.2561,-67.9381"/>
</g>
<!-- Node65 -->
<g id="node36" class="node">
<title>Node65</title>
<g id="a_node36"><a xlink:href="sendcoinsdialog_8cpp.html" target="_top" xlink:title="src/qt/sendcoinsdialog.cpp">
<polygon fill="#ffffff" stroke="#000000" points="1571,-6 1571,-25 1704,-25 1704,-6 1571,-6"/>
<text text-anchor="middle" x="1637.5" y="-13" font-family="Helvetica,sans-Serif" font-size="10.00" fill="#000000">src/qt/sendcoinsdialog.cpp</text>
</a>
</g>
</g>
<!-- Node62&#45;&gt;Node65 -->
<g id="edge42" class="edge">
<title>Node62&#45;&gt;Node65</title>
<path fill="none" stroke="#191970" d="M1934.5479,-70.8363C1928.1346,-69.5114 1921.6753,-68.2055 1915.5,-67 1825.9972,-49.5274 1803.0723,-48.113 1713.5,-31 1703.7121,-29.13 1693.2326,-27.046 1683.279,-25.0279"/>
<polygon fill="#191970" stroke="#191970" points="1934.0367,-74.3049 1944.5409,-72.9221 1935.467,-67.4526 1934.0367,-74.3049"/>
</g>
<!-- Node62&#45;&gt;Node66 -->
<g id="edge46" class="edge">
<title>Node62&#45;&gt;Node66</title>
<path fill="none" stroke="#191970" d="M2009.0737,-66.6559C2025.8458,-53.7395 2048.9843,-35.9201 2063.0581,-25.0817"/>
<polygon fill="#191970" stroke="#191970" points="2006.7523,-64.026 2000.965,-72.9005 2011.0234,-69.572 2006.7523,-64.026"/>
</g>
<!-- Node62&#45;&gt;Node67 -->
<g id="edge47" class="edge">
<title>Node62&#45;&gt;Node67</title>
<path fill="none" stroke="#191970" d="M2029.4529,-69.9136C2071.8,-56.8986 2136.9849,-36.8647 2175.3239,-25.0817"/>
<polygon fill="#191970" stroke="#191970" points="2028.2646,-66.6171 2019.7341,-72.9005 2030.3211,-73.3082 2028.2646,-66.6171"/>
</g>
<!-- Node62&#45;&gt;Node68 -->
<g id="edge48" class="edge">
<title>Node62&#45;&gt;Node68</title>
<path fill="none" stroke="#191970" d="M2052.9514,-71.1604C2108.9699,-61.1407 2192.2462,-45.8514 2264.5,-31 2273.5197,-29.146 2283.1767,-27.048 2292.3235,-25.0081"/>
<polygon fill="#191970" stroke="#191970" points="2052.0471,-67.7664 2042.8175,-72.9687 2053.2768,-74.6576 2052.0471,-67.7664"/>
</g>
<!-- Node62&#45;&gt;Node69 -->
<g id="edge49" class="edge">
<title>Node62&#45;&gt;Node69</title>
<path fill="none" stroke="#191970" d="M2057.2881,-76.4109C2139.5699,-68.5546 2281.2802,-53.2055 2401.5,-31 2404.6014,-30.4272 2407.778,-29.7942 2410.9763,-29.1211"/>
<polygon fill="#191970" stroke="#191970" points="2056.9344,-72.9286 2047.3084,-77.3548 2057.5936,-79.8975 2056.9344,-72.9286"/>
</g>
<!-- Node62&#45;&gt;Node70 -->
<g id="edge50" class="edge">
<title>Node62&#45;&gt;Node70</title>
<path fill="none" stroke="#191970" d="M2057.6058,-77.1489C2181.8182,-67.3199 2438.1005,-46.0231 2526.5,-31 2535.7167,-29.4337 2545.5794,-27.2537 2554.7003,-25.0226"/>
<polygon fill="#191970" stroke="#191970" points="2057.1435,-73.6744 2047.4498,-77.9502 2057.6942,-80.6527 2057.1435,-73.6744"/>
</g>
<!-- Node79 -->
<g id="node50" class="node">
<title>Node79</title>
<g id="a_node50"><a xlink:href="zmqnotificationinterface_8cpp.html" target="_top" xlink:title="src/zmq/zmqnotificationinterface.cpp">
<polygon fill="#ffffff" stroke="#000000" points="3821,-73 3821,-92 3998,-92 3998,-73 3821,-73"/>
<text text-anchor="middle" x="3909.5" y="-80" font-family="Helvetica,sans-Serif" font-size="10.00" fill="#000000">src/zmq/zmqnotificationinterface.cpp</text>
</a>
</g>
</g>
<!-- Node78&#45;&gt;Node79 -->
<g id="edge66" class="edge">
<title>Node78&#45;&gt;Node79</title>
<path fill="none" stroke="#191970" d="M3312.3471,-139.0918C3429.6202,-132.416 3636.3404,-118.8607 3812.5,-98 3826.3025,-96.3655 3841.1479,-94.2008 3854.9733,-92.0091"/>
<polygon fill="#191970" stroke="#191970" points="3312.1107,-135.5995 3302.324,-139.658 3312.5055,-142.5883 3312.1107,-135.5995"/>
</g>
</g>
</svg>
