<?xml version="1.0" encoding="UTF-8" standalone="no"?>
<!DOCTYPE svg PUBLIC "-//W3C//DTD SVG 1.1//EN"
 "http://www.w3.org/Graphics/SVG/1.1/DTD/svg11.dtd">
<!-- Generated by graphviz version 2.40.1 (20161225.0304)
 -->
<!-- Title: GetDiscardRate Pages: 1 -->
<svg width="940pt" height="270pt"
 viewBox="0.00 0.00 940.00 270.30" xmlns="http://www.w3.org/2000/svg" xmlns:xlink="http://www.w3.org/1999/xlink">
<g id="graph0" class="graph" transform="scale(1 1) rotate(0) translate(4 266.2994)">
<title>GetDiscardRate</title>
<polygon fill="#ffffff" stroke="transparent" points="-4,4 -4,-266.2994 936,-266.2994 936,4 -4,4"/>
<!-- Node0 -->
<g id="node1" class="node">
<title>Node0</title>
<polygon fill="#bfbfbf" stroke="#000000" points="0,-167 0,-186 87,-186 87,-167 0,-167"/>
<text text-anchor="middle" x="43.5" y="-174" font-family="Helvetica,sans-Serif" font-size="10.00" fill="#000000">GetDiscardRate</text>
</g>
<!-- Node1 -->
<g id="node2" class="node">
<title>Node1</title>
<g id="a_node2"><a xlink:href="class_c_block_policy_estimator.html#af7992aa4746772a4547b2f30965d26fb" target="_top" xlink:title="Calculation of highest target that estimates are tracked for. ">
<polygon fill="#ffffff" stroke="#000000" points="123,-221.5 123,-251.5 242,-251.5 242,-221.5 123,-221.5"/>
<text text-anchor="start" x="131" y="-239.5" font-family="Helvetica,sans-Serif" font-size="10.00" fill="#000000">CBlockPolicyEstimator</text>
<text text-anchor="middle" x="182.5" y="-228.5" font-family="Helvetica,sans-Serif" font-size="10.00" fill="#000000">::HighestTargetTracked</text>
</a>
</g>
</g>
<!-- Node0&#45;&gt;Node1 -->
<g id="edge1" class="edge">
<title>Node0&#45;&gt;Node1</title>
<path fill="none" stroke="#191970" d="M65.525,-186.0072C84.9881,-194.4085 113.9665,-206.9172 138.2104,-217.3822"/>
<polygon fill="#191970" stroke="#191970" points="137.0132,-220.6775 147.5814,-221.4272 139.7874,-214.2507 137.0132,-220.6775"/>
</g>
<!-- Node4 -->
<g id="node5" class="node">
<title>Node4</title>
<g id="a_node5"><a xlink:href="class_c_block_policy_estimator.html#af766877edc815e15192134ff3401658c" target="_top" xlink:title="Estimate feerate needed to get be included in a block within confTarget blocks. ">
<polygon fill="#ffffff" stroke="#000000" points="123.5,-137.5 123.5,-167.5 241.5,-167.5 241.5,-137.5 123.5,-137.5"/>
<text text-anchor="start" x="131.5" y="-155.5" font-family="Helvetica,sans-Serif" font-size="10.00" fill="#000000">CBlockPolicyEstimator</text>
<text text-anchor="middle" x="182.5" y="-144.5" font-family="Helvetica,sans-Serif" font-size="10.00" fill="#000000">::estimateSmartFee</text>
</a>
</g>
</g>
<!-- Node0&#45;&gt;Node4 -->
<g id="edge4" class="edge">
<title>Node0&#45;&gt;Node4</title>
<path fill="none" stroke="#191970" d="M87.0991,-168.9721C95.4291,-167.5338 104.3383,-165.9955 113.2423,-164.4582"/>
<polygon fill="#191970" stroke="#191970" points="114.0031,-167.8787 123.2617,-162.7282 112.812,-160.9807 114.0031,-167.8787"/>
</g>
<!-- Node2 -->
<g id="node3" class="node">
<title>Node2</title>
<g id="a_node3"><a xlink:href="class_tx_confirm_stats.html#a34b67526e2ceea1b81d8669e3faf6a42" target="_top" xlink:title="Return the max number of confirms we&#39;re tracking. ">
<polygon fill="#ffffff" stroke="#000000" points="615,-187 615,-206 781,-206 781,-187 615,-187"/>
<text text-anchor="middle" x="698" y="-194" font-family="Helvetica,sans-Serif" font-size="10.00" fill="#000000">TxConfirmStats::GetMaxConfirms</text>
</a>
</g>
</g>
<!-- Node1&#45;&gt;Node2 -->
<g id="edge2" class="edge">
<title>Node1&#45;&gt;Node2</title>
<path fill="none" stroke="#191970" d="M242.0402,-246.8983C320.2778,-258.6162 461.5338,-273.0444 579,-248.5 613.1387,-241.3668 649.4697,-223.868 672.879,-211.1349"/>
<polygon fill="#191970" stroke="#191970" points="674.7426,-214.1033 681.7795,-206.1828 671.3392,-207.9863 674.7426,-214.1033"/>
</g>
<!-- Node3 -->
<g id="node4" class="node">
<title>Node3</title>
<g id="a_node4"><a xlink:href="class_tx_confirm_stats.html#a8aacab502acae6b278ede7c68c168dc8" target="_top" xlink:title="Write state of estimation data to a file. ">
<polygon fill="#ffffff" stroke="#000000" points="817,-187 817,-206 932,-206 932,-187 817,-187"/>
<text text-anchor="middle" x="874.5" y="-194" font-family="Helvetica,sans-Serif" font-size="10.00" fill="#000000">TxConfirmStats::Write</text>
</a>
</g>
</g>
<!-- Node2&#45;&gt;Node3 -->
<g id="edge3" class="edge">
<title>Node2&#45;&gt;Node3</title>
<path fill="none" stroke="#191970" d="M781.0817,-196.5C789.6631,-196.5 798.3099,-196.5 806.6961,-196.5"/>
<polygon fill="#191970" stroke="#191970" points="806.7741,-200.0001 816.7741,-196.5 806.7741,-193.0001 806.7741,-200.0001"/>
</g>
<!-- Node4&#45;&gt;Node2 -->
<g id="edge5" class="edge">
<title>Node4&#45;&gt;Node2</title>
<path fill="none" stroke="#191970" d="M234.7434,-167.5751C248.7085,-171.22 263.8535,-174.8296 278,-177.5 409.7461,-202.3693 444.9284,-198.0633 579,-197.5 587.3158,-197.4651 595.9583,-197.4164 604.6193,-197.3592"/>
<polygon fill="#191970" stroke="#191970" points="604.8013,-200.8581 614.7766,-197.2884 604.7524,-193.8582 604.8013,-200.8581"/>
</g>
<!-- Node5 -->
<g id="node6" class="node">
<title>Node5</title>
<g id="a_node6"><a xlink:href="class_c_block_policy_estimator.html#ae6b52f035c5946e6f29af903400c4972" target="_top" xlink:title="Calculation of highest target that reasonable estimate can be provided for. ">
<polygon fill="#ffffff" stroke="#000000" points="286,-137.5 286,-167.5 404,-167.5 404,-137.5 286,-137.5"/>
<text text-anchor="start" x="294" y="-155.5" font-family="Helvetica,sans-Serif" font-size="10.00" fill="#000000">CBlockPolicyEstimator</text>
<text text-anchor="middle" x="345" y="-144.5" font-family="Helvetica,sans-Serif" font-size="10.00" fill="#000000">::MaxUsableEstimate</text>
</a>
</g>
</g>
<!-- Node4&#45;&gt;Node5 -->
<g id="edge6" class="edge">
<title>Node4&#45;&gt;Node5</title>
<path fill="none" stroke="#191970" d="M241.6259,-152.5C252.673,-152.5 264.3108,-152.5 275.6338,-152.5"/>
<polygon fill="#191970" stroke="#191970" points="275.9181,-156.0001 285.9181,-152.5 275.9181,-149.0001 275.9181,-156.0001"/>
</g>
<!-- Node8 -->
<g id="node9" class="node">
<title>Node8</title>
<g id="a_node9"><a xlink:href="class_c_block_policy_estimator.html#ad6be71975c32281e23234c14068e009f" target="_top" xlink:title="Helper for estimateSmartFee. ">
<polygon fill="#ffffff" stroke="#000000" points="284.5,-49.5 284.5,-79.5 405.5,-79.5 405.5,-49.5 284.5,-49.5"/>
<text text-anchor="start" x="292.5" y="-67.5" font-family="Helvetica,sans-Serif" font-size="10.00" fill="#000000">CBlockPolicyEstimator</text>
<text text-anchor="middle" x="345" y="-56.5" font-family="Helvetica,sans-Serif" font-size="10.00" fill="#000000">::estimateCombinedFee</text>
</a>
</g>
</g>
<!-- Node4&#45;&gt;Node8 -->
<g id="edge10" class="edge">
<title>Node4&#45;&gt;Node8</title>
<path fill="none" stroke="#191970" d="M210.4347,-137.3723C237.4908,-122.7204 278.6686,-100.421 308.3458,-84.3497"/>
<polygon fill="#191970" stroke="#191970" points="310.0317,-87.417 317.1583,-79.5773 306.6982,-81.2616 310.0317,-87.417"/>
</g>
<!-- Node10 -->
<g id="node11" class="node">
<title>Node10</title>
<g id="a_node11"><a xlink:href="class_c_block_policy_estimator.html#ac5707c649c1c5989a314a4e0be0e72ac" target="_top" xlink:title="Helper for estimateSmartFee. ">
<polygon fill="#ffffff" stroke="#000000" points="278,-.5 278,-30.5 412,-30.5 412,-.5 278,-.5"/>
<text text-anchor="start" x="286" y="-18.5" font-family="Helvetica,sans-Serif" font-size="10.00" fill="#000000">CBlockPolicyEstimator</text>
<text text-anchor="middle" x="345" y="-7.5" font-family="Helvetica,sans-Serif" font-size="10.00" fill="#000000">::estimateConservativeFee</text>
</a>
</g>
</g>
<!-- Node4&#45;&gt;Node10 -->
<g id="edge14" class="edge">
<title>Node4&#45;&gt;Node10</title>
<path fill="none" stroke="#191970" d="M191.4535,-137.4962C206.4706,-113.5373 238.9577,-66.5875 278,-39.5 280.1319,-38.0209 282.3648,-36.623 284.6679,-35.3029"/>
<polygon fill="#191970" stroke="#191970" points="286.541,-38.2754 293.8335,-30.5897 283.3398,-32.0502 286.541,-38.2754"/>
</g>
<!-- Node5&#45;&gt;Node2 -->
<g id="edge7" class="edge">
<title>Node5&#45;&gt;Node2</title>
<path fill="none" stroke="#191970" d="M399.7248,-167.5282C415.2272,-171.3081 432.1879,-174.9972 448,-177.5 499.4691,-185.6469 557.4719,-190.3292 604.642,-193.0057"/>
<polygon fill="#191970" stroke="#191970" points="604.6675,-196.5122 614.8436,-193.563 605.0494,-189.5226 604.6675,-196.5122"/>
</g>
<!-- Node6 -->
<g id="node7" class="node">
<title>Node6</title>
<g id="a_node7"><a xlink:href="class_c_block_policy_estimator.html#ad870b8402333d44c86c35ce1f40e21d7" target="_top" xlink:title="Number of blocks of data recorded while fee estimates have been running. ">
<polygon fill="#ffffff" stroke="#000000" points="454.5,-137.5 454.5,-167.5 572.5,-167.5 572.5,-137.5 454.5,-137.5"/>
<text text-anchor="start" x="462.5" y="-155.5" font-family="Helvetica,sans-Serif" font-size="10.00" fill="#000000">CBlockPolicyEstimator</text>
<text text-anchor="middle" x="513.5" y="-144.5" font-family="Helvetica,sans-Serif" font-size="10.00" fill="#000000">::BlockSpan</text>
</a>
</g>
</g>
<!-- Node5&#45;&gt;Node6 -->
<g id="edge8" class="edge">
<title>Node5&#45;&gt;Node6</title>
<path fill="none" stroke="#191970" d="M404.4068,-152.5C417.318,-152.5 431.0841,-152.5 444.3355,-152.5"/>
<polygon fill="#191970" stroke="#191970" points="444.3459,-156.0001 454.3459,-152.5 444.3458,-149.0001 444.3459,-156.0001"/>
</g>
<!-- Node7 -->
<g id="node8" class="node">
<title>Node7</title>
<g id="a_node8"><a xlink:href="class_c_block_policy_estimator.html#a12176ac3e097524b3e7e24a7515d7ea3" target="_top" xlink:title="Number of blocks of recorded fee estimate data represented in saved data file. ">
<polygon fill="#ffffff" stroke="#000000" points="454.5,-88.5 454.5,-118.5 572.5,-118.5 572.5,-88.5 454.5,-88.5"/>
<text text-anchor="start" x="462.5" y="-106.5" font-family="Helvetica,sans-Serif" font-size="10.00" fill="#000000">CBlockPolicyEstimator</text>
<text text-anchor="middle" x="513.5" y="-95.5" font-family="Helvetica,sans-Serif" font-size="10.00" fill="#000000">::HistoricalBlockSpan</text>
</a>
</g>
</g>
<!-- Node5&#45;&gt;Node7 -->
<g id="edge9" class="edge">
<title>Node5&#45;&gt;Node7</title>
<path fill="none" stroke="#191970" d="M396.9305,-137.3986C414.3089,-132.3449 433.8498,-126.6624 451.8938,-121.4152"/>
<polygon fill="#191970" stroke="#191970" points="453.1161,-124.7048 461.741,-118.5516 451.1614,-117.9832 453.1161,-124.7048"/>
</g>
<!-- Node8&#45;&gt;Node2 -->
<g id="edge13" class="edge">
<title>Node8&#45;&gt;Node2</title>
<path fill="none" stroke="#191970" d="M405.9313,-57.0914C454.854,-53.7446 524.1852,-54.9903 579,-79.5 627.2656,-101.0813 667.1879,-151.3458 686.1366,-178.435"/>
<polygon fill="#191970" stroke="#191970" points="683.423,-180.6684 691.9436,-186.9652 689.2094,-176.7292 683.423,-180.6684"/>
</g>
<!-- Node9 -->
<g id="node10" class="node">
<title>Node9</title>
<g id="a_node10"><a xlink:href="class_tx_confirm_stats.html#aace5d830fdfac5626e7769dee5fe6f11" target="_top" xlink:title="Calculate a feerate estimate. ">
<polygon fill="#ffffff" stroke="#000000" points="448,-.5 448,-30.5 579,-30.5 579,-.5 448,-.5"/>
<text text-anchor="start" x="456" y="-18.5" font-family="Helvetica,sans-Serif" font-size="10.00" fill="#000000">TxConfirmStats::Estimate</text>
<text text-anchor="middle" x="513.5" y="-7.5" font-family="Helvetica,sans-Serif" font-size="10.00" fill="#000000">MedianVal</text>
</a>
</g>
</g>
<!-- Node8&#45;&gt;Node9 -->
<g id="edge11" class="edge">
<title>Node8&#45;&gt;Node9</title>
<path fill="none" stroke="#191970" d="M396.9305,-49.3986C414.3089,-44.3449 433.8498,-38.6624 451.8938,-33.4152"/>
<polygon fill="#191970" stroke="#191970" points="453.1161,-36.7048 461.741,-30.5516 451.1614,-29.9832 453.1161,-36.7048"/>
</g>
<!-- Node9&#45;&gt;Node2 -->
<g id="edge12" class="edge">
<title>Node9&#45;&gt;Node2</title>
<path fill="none" stroke="#191970" d="M554.3705,-30.5874C562.9515,-34.7249 571.6265,-39.701 579,-45.5 628.0047,-84.0405 668.8496,-146.7266 687.3539,-177.8063"/>
<polygon fill="#191970" stroke="#191970" points="684.4924,-179.8468 692.5587,-186.7159 690.5365,-176.3158 684.4924,-179.8468"/>
</g>
<!-- Node10&#45;&gt;Node9 -->
<g id="edge15" class="edge">
<title>Node10&#45;&gt;Node9</title>
<path fill="none" stroke="#191970" d="M412.0798,-15.5C420.4314,-15.5 429.0181,-15.5 437.4925,-15.5"/>
<polygon fill="#191970" stroke="#191970" points="437.7503,-19.0001 447.7503,-15.5 437.7503,-12.0001 437.7503,-19.0001"/>
</g>
</g>
</svg>
