<?xml version="1.0" encoding="UTF-8" standalone="no"?>
<!DOCTYPE svg PUBLIC "-//W3C//DTD SVG 1.1//EN"
 "http://www.w3.org/Graphics/SVG/1.1/DTD/svg11.dtd">
<!-- Generated by graphviz version 2.40.1 (20161225.0304)
 -->
<!-- Title: src/qt/walletframe.cpp Pages: 1 -->
<svg width="715pt" height="196pt"
 viewBox="0.00 0.00 714.50 196.00" xmlns="http://www.w3.org/2000/svg" xmlns:xlink="http://www.w3.org/1999/xlink">
<g id="graph0" class="graph" transform="scale(1 1) rotate(0) translate(4 192)">
<title>src/qt/walletframe.cpp</title>
<polygon fill="#ffffff" stroke="transparent" points="-4,4 -4,-192 710.5,-192 710.5,4 -4,4"/>
<!-- Node0 -->
<g id="node1" class="node">
<title>Node0</title>
<polygon fill="#bfbfbf" stroke="#000000" points="379.5,-168.5 379.5,-187.5 492.5,-187.5 492.5,-168.5 379.5,-168.5"/>
<text text-anchor="middle" x="436" y="-175.5" font-family="Helvetica,sans-Serif" font-size="10.00" fill="#000000">src/qt/walletframe.cpp</text>
</g>
<!-- Node1 -->
<g id="node2" class="node">
<title>Node1</title>
<g id="a_node2"><a xlink:href="walletframe_8h.html" target="_top" xlink:title="walletframe.h">
<polygon fill="#ffffff" stroke="#000000" points="54.5,-112.5 54.5,-131.5 129.5,-131.5 129.5,-112.5 54.5,-112.5"/>
<text text-anchor="middle" x="92" y="-119.5" font-family="Helvetica,sans-Serif" font-size="10.00" fill="#000000">walletframe.h</text>
</a>
</g>
</g>
<!-- Node0&#45;&gt;Node1 -->
<g id="edge1" class="edge">
<title>Node0&#45;&gt;Node1</title>
<path fill="none" stroke="#191970" d="M379.1954,-168.7527C312.3112,-157.8646 202.4166,-139.9748 139.7392,-129.7715"/>
<polygon fill="#191970" stroke="#191970" points="140.1584,-126.2937 129.7259,-128.1414 139.0336,-133.2028 140.1584,-126.2937"/>
</g>
<!-- Node4 -->
<g id="node5" class="node">
<title>Node4</title>
<g id="a_node5"><a xlink:href="ravengui_8h.html" target="_top" xlink:title="ravengui.h">
<polygon fill="#ffffff" stroke="#000000" points="320,-112.5 320,-131.5 382,-131.5 382,-112.5 320,-112.5"/>
<text text-anchor="middle" x="351" y="-119.5" font-family="Helvetica,sans-Serif" font-size="10.00" fill="#000000">ravengui.h</text>
</a>
</g>
</g>
<!-- Node0&#45;&gt;Node4 -->
<g id="edge4" class="edge">
<title>Node0&#45;&gt;Node4</title>
<path fill="none" stroke="#191970" d="M421.1941,-168.2455C408.2744,-159.7337 389.3069,-147.2375 374.3448,-137.3801"/>
<polygon fill="#191970" stroke="#191970" points="375.9124,-134.2216 365.6362,-131.6427 372.0613,-140.067 375.9124,-134.2216"/>
</g>
<!-- Node7 -->
<g id="node8" class="node">
<title>Node7</title>
<polygon fill="#ffffff" stroke="#bfbfbf" points="131.5,-56.5 131.5,-75.5 178.5,-75.5 178.5,-56.5 131.5,-56.5"/>
<text text-anchor="middle" x="155" y="-63.5" font-family="Helvetica,sans-Serif" font-size="10.00" fill="#000000">QLabel</text>
</g>
<!-- Node0&#45;&gt;Node7 -->
<g id="edge19" class="edge">
<title>Node0&#45;&gt;Node7</title>
<path fill="none" stroke="#191970" d="M409.0377,-168.4968C383.6266,-159.4416 344.548,-145.2608 311,-132 267.3205,-114.7344 217.4225,-93.3229 186.0669,-79.659"/>
<polygon fill="#191970" stroke="#191970" points="187.1344,-76.3059 176.5695,-75.51 184.3321,-82.7206 187.1344,-76.3059"/>
</g>
<!-- Node12 -->
<g id="node13" class="node">
<title>Node12</title>
<g id="a_node13"><a xlink:href="walletview_8h.html" target="_top" xlink:title="walletview.h">
<polygon fill="#ffffff" stroke="#000000" points="400.5,-112.5 400.5,-131.5 471.5,-131.5 471.5,-112.5 400.5,-112.5"/>
<text text-anchor="middle" x="436" y="-119.5" font-family="Helvetica,sans-Serif" font-size="10.00" fill="#000000">walletview.h</text>
</a>
</g>
</g>
<!-- Node0&#45;&gt;Node12 -->
<g id="edge13" class="edge">
<title>Node0&#45;&gt;Node12</title>
<path fill="none" stroke="#191970" d="M436,-168.2455C436,-160.9382 436,-150.6944 436,-141.7046"/>
<polygon fill="#191970" stroke="#191970" points="439.5001,-141.6426 436,-131.6427 432.5001,-141.6427 439.5001,-141.6426"/>
</g>
<!-- Node14 -->
<g id="node15" class="node">
<title>Node14</title>
<polygon fill="#ffffff" stroke="#bfbfbf" points="489.5,-112.5 489.5,-131.5 538.5,-131.5 538.5,-112.5 489.5,-112.5"/>
<text text-anchor="middle" x="514" y="-119.5" font-family="Helvetica,sans-Serif" font-size="10.00" fill="#000000">cassert</text>
</g>
<!-- Node0&#45;&gt;Node14 -->
<g id="edge16" class="edge">
<title>Node0&#45;&gt;Node14</title>
<path fill="none" stroke="#191970" d="M449.5866,-168.2455C461.3305,-159.814 478.5199,-147.4729 492.1882,-137.6598"/>
<polygon fill="#191970" stroke="#191970" points="494.4871,-140.3179 500.5691,-131.6427 490.4046,-134.6316 494.4871,-140.3179"/>
</g>
<!-- Node15 -->
<g id="node16" class="node">
<title>Node15</title>
<polygon fill="#ffffff" stroke="#bfbfbf" points="556.5,-112.5 556.5,-131.5 599.5,-131.5 599.5,-112.5 556.5,-112.5"/>
<text text-anchor="middle" x="578" y="-119.5" font-family="Helvetica,sans-Serif" font-size="10.00" fill="#000000">cstdio</text>
</g>
<!-- Node0&#45;&gt;Node15 -->
<g id="edge17" class="edge">
<title>Node0&#45;&gt;Node15</title>
<path fill="none" stroke="#191970" d="M460.4107,-168.3733C484.3174,-158.9453 520.8414,-144.5414 546.8345,-134.2906"/>
<polygon fill="#191970" stroke="#191970" points="548.214,-137.509 556.2327,-130.5843 545.6459,-130.9971 548.214,-137.509"/>
</g>
<!-- Node16 -->
<g id="node17" class="node">
<title>Node16</title>
<polygon fill="#ffffff" stroke="#bfbfbf" points="618,-112.5 618,-131.5 696,-131.5 696,-112.5 618,-112.5"/>
<text text-anchor="middle" x="657" y="-119.5" font-family="Helvetica,sans-Serif" font-size="10.00" fill="#000000">QHBoxLayout</text>
</g>
<!-- Node0&#45;&gt;Node16 -->
<g id="edge18" class="edge">
<title>Node0&#45;&gt;Node16</title>
<path fill="none" stroke="#191970" d="M473.7401,-168.4369C511.2448,-158.9335 568.8799,-144.3291 609.4824,-134.0407"/>
<polygon fill="#191970" stroke="#191970" points="610.5816,-137.3728 619.4155,-131.5237 608.8621,-130.5873 610.5816,-137.3728"/>
</g>
<!-- Node2 -->
<g id="node3" class="node">
<title>Node2</title>
<polygon fill="#ffffff" stroke="#bfbfbf" points="0,-56.5 0,-75.5 52,-75.5 52,-56.5 0,-56.5"/>
<text text-anchor="middle" x="26" y="-63.5" font-family="Helvetica,sans-Serif" font-size="10.00" fill="#000000">QFrame</text>
</g>
<!-- Node1&#45;&gt;Node2 -->
<g id="edge2" class="edge">
<title>Node1&#45;&gt;Node2</title>
<path fill="none" stroke="#191970" d="M80.5037,-112.2455C70.7558,-103.9746 56.5741,-91.9416 45.1202,-82.2232"/>
<polygon fill="#191970" stroke="#191970" points="47.2541,-79.4437 37.3646,-75.6427 42.7253,-84.7813 47.2541,-79.4437"/>
</g>
<!-- Node3 -->
<g id="node4" class="node">
<title>Node3</title>
<polygon fill="#ffffff" stroke="#bfbfbf" points="70.5,-56.5 70.5,-75.5 113.5,-75.5 113.5,-56.5 70.5,-56.5"/>
<text text-anchor="middle" x="92" y="-63.5" font-family="Helvetica,sans-Serif" font-size="10.00" fill="#000000">QMap</text>
</g>
<!-- Node1&#45;&gt;Node3 -->
<g id="edge3" class="edge">
<title>Node1&#45;&gt;Node3</title>
<path fill="none" stroke="#191970" d="M92,-112.2455C92,-104.9382 92,-94.6944 92,-85.7046"/>
<polygon fill="#191970" stroke="#191970" points="95.5001,-85.6426 92,-75.6427 88.5001,-85.6427 95.5001,-85.6426"/>
</g>
<!-- Node4&#45;&gt;Node3 -->
<g id="edge9" class="edge">
<title>Node4&#45;&gt;Node3</title>
<path fill="none" stroke="#191970" d="M319.9776,-117.0213C277.5048,-109.9339 198.7538,-95.8275 123.2065,-76.0944"/>
<polygon fill="#191970" stroke="#191970" points="124.0966,-72.7096 113.5337,-73.5317 122.3038,-79.4761 124.0966,-72.7096"/>
</g>
<!-- Node5 -->
<g id="node6" class="node">
<title>Node5</title>
<g id="a_node6"><a xlink:href="amount_8h.html" target="_top" xlink:title="amount.h">
<polygon fill="#ffffff" stroke="#000000" points="540.5,-56.5 540.5,-75.5 597.5,-75.5 597.5,-56.5 540.5,-56.5"/>
<text text-anchor="middle" x="569" y="-63.5" font-family="Helvetica,sans-Serif" font-size="10.00" fill="#000000">amount.h</text>
</a>
</g>
</g>
<!-- Node4&#45;&gt;Node5 -->
<g id="edge5" class="edge">
<title>Node4&#45;&gt;Node5</title>
<path fill="none" stroke="#191970" d="M382.1037,-114.2468C416.2185,-105.7097 472.8412,-91.4433 530.3437,-76.4106"/>
<polygon fill="#191970" stroke="#191970" points="531.5416,-79.715 540.3282,-73.7949 529.7676,-72.9435 531.5416,-79.715"/>
</g>
<!-- Node4&#45;&gt;Node7 -->
<g id="edge7" class="edge">
<title>Node4&#45;&gt;Node7</title>
<path fill="none" stroke="#191970" d="M319.7008,-113.3591C288.7725,-104.7782 239.8741,-91.0991 188.412,-76.083"/>
<polygon fill="#191970" stroke="#191970" points="189.3573,-72.7129 178.7768,-73.2645 187.3919,-79.4313 189.3573,-72.7129"/>
</g>
<!-- Node8 -->
<g id="node9" class="node">
<title>Node8</title>
<polygon fill="#ffffff" stroke="#bfbfbf" points="311,-56.5 311,-75.5 391,-75.5 391,-56.5 311,-56.5"/>
<text text-anchor="middle" x="351" y="-63.5" font-family="Helvetica,sans-Serif" font-size="10.00" fill="#000000">QMainWindow</text>
</g>
<!-- Node4&#45;&gt;Node8 -->
<g id="edge8" class="edge">
<title>Node4&#45;&gt;Node8</title>
<path fill="none" stroke="#191970" d="M351,-112.2455C351,-104.9382 351,-94.6944 351,-85.7046"/>
<polygon fill="#191970" stroke="#191970" points="354.5001,-85.6426 351,-75.6427 347.5001,-85.6427 354.5001,-85.6426"/>
</g>
<!-- Node9 -->
<g id="node10" class="node">
<title>Node9</title>
<polygon fill="#ffffff" stroke="#bfbfbf" points="409,-56.5 409,-75.5 457,-75.5 457,-56.5 409,-56.5"/>
<text text-anchor="middle" x="433" y="-63.5" font-family="Helvetica,sans-Serif" font-size="10.00" fill="#000000">QMenu</text>
</g>
<!-- Node4&#45;&gt;Node9 -->
<g id="edge10" class="edge">
<title>Node4&#45;&gt;Node9</title>
<path fill="none" stroke="#191970" d="M365.2833,-112.2455C377.747,-103.7337 396.0451,-91.2375 410.4792,-81.3801"/>
<polygon fill="#191970" stroke="#191970" points="412.5962,-84.1726 418.8804,-75.6427 408.6485,-78.392 412.5962,-84.1726"/>
</g>
<!-- Node10 -->
<g id="node11" class="node">
<title>Node10</title>
<polygon fill="#ffffff" stroke="#bfbfbf" points="475.5,-56.5 475.5,-75.5 522.5,-75.5 522.5,-56.5 475.5,-56.5"/>
<text text-anchor="middle" x="499" y="-63.5" font-family="Helvetica,sans-Serif" font-size="10.00" fill="#000000">QPoint</text>
</g>
<!-- Node4&#45;&gt;Node10 -->
<g id="edge11" class="edge">
<title>Node4&#45;&gt;Node10</title>
<path fill="none" stroke="#191970" d="M376.4421,-112.3733C401.1743,-103.0151 438.8627,-88.7547 465.9135,-78.5192"/>
<polygon fill="#191970" stroke="#191970" points="467.2404,-81.7594 475.3546,-74.9469 464.7631,-75.2124 467.2404,-81.7594"/>
</g>
<!-- Node11 -->
<g id="node12" class="node">
<title>Node11</title>
<polygon fill="#ffffff" stroke="#bfbfbf" points="197,-56.5 197,-75.5 293,-75.5 293,-56.5 197,-56.5"/>
<text text-anchor="middle" x="245" y="-63.5" font-family="Helvetica,sans-Serif" font-size="10.00" fill="#000000">QSystemTrayIcon</text>
</g>
<!-- Node4&#45;&gt;Node11 -->
<g id="edge12" class="edge">
<title>Node4&#45;&gt;Node11</title>
<path fill="none" stroke="#191970" d="M332.5362,-112.2455C315.8926,-103.4527 291.2007,-90.4079 272.2808,-80.4125"/>
<polygon fill="#191970" stroke="#191970" points="273.7291,-77.2193 263.2522,-75.6427 270.4592,-83.4086 273.7291,-77.2193"/>
</g>
<!-- Node6 -->
<g id="node7" class="node">
<title>Node6</title>
<polygon fill="#ffffff" stroke="#bfbfbf" points="544.5,-.5 544.5,-19.5 593.5,-19.5 593.5,-.5 544.5,-.5"/>
<text text-anchor="middle" x="569" y="-7.5" font-family="Helvetica,sans-Serif" font-size="10.00" fill="#000000">stdint.h</text>
</g>
<!-- Node5&#45;&gt;Node6 -->
<g id="edge6" class="edge">
<title>Node5&#45;&gt;Node6</title>
<path fill="none" stroke="#191970" d="M569,-56.2455C569,-48.9382 569,-38.6944 569,-29.7046"/>
<polygon fill="#191970" stroke="#191970" points="572.5001,-29.6426 569,-19.6427 565.5001,-29.6427 572.5001,-29.6426"/>
</g>
<!-- Node12&#45;&gt;Node5 -->
<g id="edge14" class="edge">
<title>Node12&#45;&gt;Node5</title>
<path fill="none" stroke="#191970" d="M458.8635,-112.3733C480.405,-103.3032 512.8838,-89.6279 536.9956,-79.4755"/>
<polygon fill="#191970" stroke="#191970" points="538.5767,-82.6075 546.4348,-75.5011 535.8603,-76.156 538.5767,-82.6075"/>
</g>
<!-- Node13 -->
<g id="node14" class="node">
<title>Node13</title>
<polygon fill="#ffffff" stroke="#bfbfbf" points="615.5,-56.5 615.5,-75.5 706.5,-75.5 706.5,-56.5 615.5,-56.5"/>
<text text-anchor="middle" x="661" y="-63.5" font-family="Helvetica,sans-Serif" font-size="10.00" fill="#000000">QStackedWidget</text>
</g>
<!-- Node12&#45;&gt;Node13 -->
<g id="edge15" class="edge">
<title>Node12&#45;&gt;Node13</title>
<path fill="none" stroke="#191970" d="M471.6519,-113.1266C509.738,-103.6474 570.3331,-88.566 612.6872,-78.0245"/>
<polygon fill="#191970" stroke="#191970" points="613.6423,-81.3937 622.5009,-75.582 611.9516,-74.6009 613.6423,-81.3937"/>
</g>
</g>
</svg>
