<?xml version="1.0" encoding="UTF-8" standalone="no"?>
<!DOCTYPE svg PUBLIC "-//W3C//DTD SVG 1.1//EN"
 "http://www.w3.org/Graphics/SVG/1.1/DTD/svg11.dtd">
<!-- Generated by graphviz version 2.40.1 (20161225.0304)
 -->
<!-- Title: GetWarnings Pages: 1 -->
<svg width="382pt" height="85pt"
 viewBox="0.00 0.00 382.00 85.00" xmlns="http://www.w3.org/2000/svg" xmlns:xlink="http://www.w3.org/1999/xlink">
<g id="graph0" class="graph" transform="scale(1 1) rotate(0) translate(4 81)">
<title>GetWarnings</title>
<polygon fill="#ffffff" stroke="transparent" points="-4,4 -4,-81 378,-81 378,4 -4,4"/>
<!-- Node2 -->
<g id="node1" class="node">
<title>Node2</title>
<polygon fill="#bfbfbf" stroke="#000000" points="0,-19.5 0,-38.5 74,-38.5 74,-19.5 0,-19.5"/>
<text text-anchor="middle" x="37" y="-26.5" font-family="Helvetica,sans-Serif" font-size="10.00" fill="#000000">GetWarnings</text>
</g>
<!-- Node3 -->
<g id="node2" class="node">
<title>Node3</title>
<g id="a_node2"><a xlink:href="util_8h.html#aad133bb6103b53cebf03fd01e2f11ba1" target="_top" xlink:title="Translation function: Call Translate signal on UI interface, which returns a boost::optional result...">
<polygon fill="#ffffff" stroke="#000000" points="161,-38.5 161,-57.5 190,-57.5 190,-38.5 161,-38.5"/>
<text text-anchor="middle" x="175.5" y="-45.5" font-family="Helvetica,sans-Serif" font-size="10.00" fill="#000000">_</text>
</a>
</g>
</g>
<!-- Node2&#45;&gt;Node3 -->
<g id="edge1" class="edge">
<title>Node2&#45;&gt;Node3</title>
<path fill="none" stroke="#191970" d="M74.1155,-34.0917C98.4067,-37.424 129.476,-41.6862 150.7807,-44.6089"/>
<polygon fill="#191970" stroke="#191970" points="150.561,-48.1115 160.9439,-46.0031 151.5124,-41.1764 150.561,-48.1115"/>
</g>
<!-- Node6 -->
<g id="node5" class="node">
<title>Node6</title>
<g id="a_node5"><a xlink:href="class_args_manager.html#af81c6e2a9dcd6b12557a2387fd67b2a6" target="_top" xlink:title="Return boolean argument or default value. ">
<polygon fill="#ffffff" stroke="#000000" points="110,-.5 110,-19.5 241,-19.5 241,-.5 110,-.5"/>
<text text-anchor="middle" x="175.5" y="-7.5" font-family="Helvetica,sans-Serif" font-size="10.00" fill="#000000">ArgsManager::GetBoolArg</text>
</a>
</g>
</g>
<!-- Node2&#45;&gt;Node6 -->
<g id="edge4" class="edge">
<title>Node2&#45;&gt;Node6</title>
<path fill="none" stroke="#191970" d="M74.1155,-23.9083C82.1495,-22.8062 90.925,-21.6023 99.8435,-20.3789"/>
<polygon fill="#191970" stroke="#191970" points="100.51,-23.8203 109.9415,-18.9936 99.5586,-16.8853 100.51,-23.8203"/>
</g>
<!-- Node4 -->
<g id="node3" class="node">
<title>Node4</title>
<g id="a_node3"><a xlink:href="util_8h.html#a9ed616020f4ef9b1a261b222bbec78e2" target="_top" xlink:title="SetupEnvironment">
<polygon fill="#ffffff" stroke="#000000" points="277,-57.5 277,-76.5 374,-76.5 374,-57.5 277,-57.5"/>
<text text-anchor="middle" x="325.5" y="-64.5" font-family="Helvetica,sans-Serif" font-size="10.00" fill="#000000">SetupEnvironment</text>
</a>
</g>
</g>
<!-- Node3&#45;&gt;Node4 -->
<g id="edge2" class="edge">
<title>Node3&#45;&gt;Node4</title>
<path fill="none" stroke="#191970" d="M190.1557,-49.8564C207.8827,-52.1018 238.8132,-56.0197 266.6344,-59.5437"/>
<polygon fill="#191970" stroke="#191970" points="266.3529,-63.0359 276.7135,-60.8204 267.2326,-56.0914 266.3529,-63.0359"/>
</g>
<!-- Node5 -->
<g id="node4" class="node">
<title>Node5</title>
<g id="a_node4"><a xlink:href="util_8h.html#a66791919e137c59061e988d2d87ee9a1" target="_top" xlink:title="SetupNetworking">
<polygon fill="#ffffff" stroke="#000000" points="279.5,-19.5 279.5,-38.5 371.5,-38.5 371.5,-19.5 279.5,-19.5"/>
<text text-anchor="middle" x="325.5" y="-26.5" font-family="Helvetica,sans-Serif" font-size="10.00" fill="#000000">SetupNetworking</text>
</a>
</g>
</g>
<!-- Node3&#45;&gt;Node5 -->
<g id="edge3" class="edge">
<title>Node3&#45;&gt;Node5</title>
<path fill="none" stroke="#191970" d="M190.1557,-46.1436C208.408,-43.8317 240.6577,-39.7467 269.0988,-36.1441"/>
<polygon fill="#191970" stroke="#191970" points="269.8909,-39.5719 279.3718,-34.8429 269.0112,-32.6274 269.8909,-39.5719"/>
</g>
</g>
</svg>
