<?xml version="1.0" encoding="UTF-8" standalone="no"?>
<!DOCTYPE svg PUBLIC "-//W3C//DTD SVG 1.1//EN"
 "http://www.w3.org/Graphics/SVG/1.1/DTD/svg11.dtd">
<!-- Generated by graphviz version 2.40.1 (20161225.0304)
 -->
<!-- Title: CheckTransferOwnerTx Pages: 1 -->
<svg width="277pt" height="46pt"
 viewBox="0.00 0.00 277.00 46.00" xmlns="http://www.w3.org/2000/svg" xmlns:xlink="http://www.w3.org/1999/xlink">
<g id="graph0" class="graph" transform="scale(1 1) rotate(0) translate(4 42)">
<title>CheckTransferOwnerTx</title>
<polygon fill="#ffffff" stroke="transparent" points="-4,4 -4,-42 273,-42 273,4 -4,4"/>
<!-- Node564 -->
<g id="node1" class="node">
<title>Node564</title>
<polygon fill="#bfbfbf" stroke="#000000" points="0,-.5 0,-19.5 121,-19.5 121,-.5 0,-.5"/>
<text text-anchor="middle" x="60.5" y="-7.5" font-family="Helvetica,sans-Serif" font-size="10.00" fill="#000000">CheckTransferOwnerTx</text>
</g>
<!-- Node565 -->
<g id="node2" class="node">
<title>Node565</title>
<g id="a_node2"><a xlink:href="assets_2assets_8cpp.html#a21dcedb000e18885658ab383e0a1d3aa" target="_top" xlink:title="Check script and see if it matches the transfer asset template. ">
<polygon fill="#ffffff" stroke="#000000" points="157,-.5 157,-19.5 269,-19.5 269,-.5 157,-.5"/>
<text text-anchor="middle" x="213" y="-7.5" font-family="Helvetica,sans-Serif" font-size="10.00" fill="#000000">IsScriptTransferAsset</text>
</a>
</g>
</g>
<!-- Node564&#45;&gt;Node565 -->
<g id="edge1" class="edge">
<title>Node564&#45;&gt;Node565</title>
<path fill="none" stroke="#191970" d="M121.2102,-10C129.5955,-10 138.2426,-10 146.7224,-10"/>
<polygon fill="#191970" stroke="#191970" points="146.9539,-13.5001 156.9539,-10 146.9538,-6.5001 146.9539,-13.5001"/>
</g>
<!-- Node565&#45;&gt;Node565 -->
<g id="edge2" class="edge">
<title>Node565&#45;&gt;Node565</title>
<path fill="none" stroke="#191970" d="M189.5724,-19.7571C178.1752,-28.5653 185.9844,-38 213,-38 230.729,-38 240.1865,-33.9368 241.3725,-28.6539"/>
<polygon fill="#191970" stroke="#191970" points="244.3449,-26.7974 236.4276,-19.7571 238.2265,-30.1981 244.3449,-26.7974"/>
</g>
</g>
</svg>
