<?xml version="1.0" encoding="UTF-8" standalone="no"?>
<!DOCTYPE svg PUBLIC "-//W3C//DTD SVG 1.1//EN"
 "http://www.w3.org/Graphics/SVG/1.1/DTD/svg11.dtd">
<!-- Generated by graphviz version 2.40.1 (20161225.0304)
 -->
<!-- Title: src/qt/assetsdialog.cpp Pages: 1 -->
<svg width="3002pt" height="196pt"
 viewBox="0.00 0.00 3001.50 196.00" xmlns="http://www.w3.org/2000/svg" xmlns:xlink="http://www.w3.org/1999/xlink">
<g id="graph0" class="graph" transform="scale(1 1) rotate(0) translate(4 192)">
<title>src/qt/assetsdialog.cpp</title>
<polygon fill="#ffffff" stroke="transparent" points="-4,4 -4,-192 2997.5,-192 2997.5,4 -4,4"/>
<!-- Node0 -->
<g id="node1" class="node">
<title>Node0</title>
<polygon fill="#bfbfbf" stroke="#000000" points="1334.5,-168.5 1334.5,-187.5 1452.5,-187.5 1452.5,-168.5 1334.5,-168.5"/>
<text text-anchor="middle" x="1393.5" y="-175.5" font-family="Helvetica,sans-Serif" font-size="10.00" fill="#000000">src/qt/assetsdialog.cpp</text>
</g>
<!-- Node1 -->
<g id="node2" class="node">
<title>Node1</title>
<g id="a_node2"><a xlink:href="assetsdialog_8h.html" target="_top" xlink:title="assetsdialog.h">
<polygon fill="#ffffff" stroke="#000000" points="636.5,-112.5 636.5,-131.5 716.5,-131.5 716.5,-112.5 636.5,-112.5"/>
<text text-anchor="middle" x="676.5" y="-119.5" font-family="Helvetica,sans-Serif" font-size="10.00" fill="#000000">assetsdialog.h</text>
</a>
</g>
</g>
<!-- Node0&#45;&gt;Node1 -->
<g id="edge1" class="edge">
<title>Node0&#45;&gt;Node1</title>
<path fill="none" stroke="#191970" d="M1334.2976,-176.1538C1218.1212,-172.0318 952.2729,-160.1352 730.5,-132 729.2231,-131.838 727.9307,-131.6653 726.628,-131.4834"/>
<polygon fill="#191970" stroke="#191970" points="726.9396,-127.9904 716.525,-129.9364 725.88,-134.9098 726.9396,-127.9904"/>
</g>
<!-- Node2 -->
<g id="node3" class="node">
<title>Node2</title>
<g id="a_node3"><a xlink:href="walletmodel_8h.html" target="_top" xlink:title="walletmodel.h">
<polygon fill="#ffffff" stroke="#ff0000" points="359,-56.5 359,-75.5 436,-75.5 436,-56.5 359,-56.5"/>
<text text-anchor="middle" x="397.5" y="-63.5" font-family="Helvetica,sans-Serif" font-size="10.00" fill="#000000">walletmodel.h</text>
</a>
</g>
</g>
<!-- Node0&#45;&gt;Node2 -->
<g id="edge48" class="edge">
<title>Node0&#45;&gt;Node2</title>
<path fill="none" stroke="#191970" d="M1334.4258,-176.9116C1090.7183,-172.2842 175.2115,-153.4947 154.5,-132 148.3323,-125.5991 148.8292,-118.845 154.5,-112 178.6314,-82.872 284.6514,-72.0491 348.4101,-68.1318"/>
<polygon fill="#191970" stroke="#191970" points="348.863,-71.6116 358.6441,-67.5399 348.4587,-64.6233 348.863,-71.6116"/>
</g>
<!-- Node97 -->
<g id="node6" class="node">
<title>Node97</title>
<polygon fill="#ffffff" stroke="#bfbfbf" points="681,-56.5 681,-75.5 762,-75.5 762,-56.5 681,-56.5"/>
<text text-anchor="middle" x="721.5" y="-63.5" font-family="Helvetica,sans-Serif" font-size="10.00" fill="#000000">QMessageBox</text>
</g>
<!-- Node0&#45;&gt;Node97 -->
<g id="edge75" class="edge">
<title>Node0&#45;&gt;Node97</title>
<path fill="none" stroke="#191970" d="M1334.3808,-175.4314C1194.2603,-169.0552 850.0432,-151.5958 801.5,-132 775.3389,-121.4393 751.2327,-99.0814 736.4664,-83.3237"/>
<polygon fill="#191970" stroke="#191970" points="738.9423,-80.8437 729.6345,-75.7825 733.7546,-85.5434 738.9423,-80.8437"/>
</g>
<!-- Node98 -->
<g id="node8" class="node">
<title>Node98</title>
<polygon fill="#ffffff" stroke="#bfbfbf" points="614,-56.5 614,-75.5 663,-75.5 663,-56.5 614,-56.5"/>
<text text-anchor="middle" x="638.5" y="-63.5" font-family="Helvetica,sans-Serif" font-size="10.00" fill="#000000">QTimer</text>
</g>
<!-- Node0&#45;&gt;Node98 -->
<g id="edge79" class="edge">
<title>Node0&#45;&gt;Node98</title>
<path fill="none" stroke="#191970" d="M1334.4884,-176.6818C1199.6122,-173.1832 872.2781,-161.8054 766.5,-132 761.1567,-130.4944 701.6046,-99.3034 665.6424,-80.3466"/>
<polygon fill="#191970" stroke="#191970" points="667.0998,-77.1583 656.6221,-75.5876 663.8334,-83.3495 667.0998,-77.1583"/>
</g>
<!-- Node99 -->
<g id="node9" class="node">
<title>Node99</title>
<g id="a_node9"><a xlink:href="sendcoinsdialog_8h.html" target="_top" xlink:title="sendcoinsdialog.h">
<polygon fill="#ffffff" stroke="#000000" points="523,-112.5 523,-131.5 618,-131.5 618,-112.5 523,-112.5"/>
<text text-anchor="middle" x="570.5" y="-119.5" font-family="Helvetica,sans-Serif" font-size="10.00" fill="#000000">sendcoinsdialog.h</text>
</a>
</g>
</g>
<!-- Node0&#45;&gt;Node99 -->
<g id="edge8" class="edge">
<title>Node0&#45;&gt;Node99</title>
<path fill="none" stroke="#191970" d="M1334.1917,-176.7334C1206.8087,-173.5165 897.4924,-163.0458 627.9988,-131.9178"/>
<polygon fill="#191970" stroke="#191970" points="628.3646,-128.4368 618.0264,-130.7543 627.5534,-135.3897 628.3646,-128.4368"/>
</g>
<!-- Node100 -->
<g id="node10" class="node">
<title>Node100</title>
<polygon fill="#ffffff" stroke="#bfbfbf" points="1802.5,-112.5 1802.5,-131.5 1894.5,-131.5 1894.5,-112.5 1802.5,-112.5"/>
<text text-anchor="middle" x="1848.5" y="-119.5" font-family="Helvetica,sans-Serif" font-size="10.00" fill="#000000">ui_assetsdialog.h</text>
</g>
<!-- Node0&#45;&gt;Node100 -->
<g id="edge14" class="edge">
<title>Node0&#45;&gt;Node100</title>
<path fill="none" stroke="#191970" d="M1452.6222,-172.4207C1528.7577,-164.9644 1665.3945,-150.667 1792.0556,-132.1367"/>
<polygon fill="#191970" stroke="#191970" points="1792.9407,-135.5441 1802.3227,-130.6219 1791.9189,-128.619 1792.9407,-135.5441"/>
</g>
<!-- Node101 -->
<g id="node11" class="node">
<title>Node101</title>
<g id="a_node11"><a xlink:href="addresstablemodel_8h.html" target="_top" xlink:title="addresstablemodel.h">
<polygon fill="#ffffff" stroke="#000000" points="1555,-112.5 1555,-131.5 1662,-131.5 1662,-112.5 1555,-112.5"/>
<text text-anchor="middle" x="1608.5" y="-119.5" font-family="Helvetica,sans-Serif" font-size="10.00" fill="#000000">addresstablemodel.h</text>
</a>
</g>
</g>
<!-- Node0&#45;&gt;Node101 -->
<g id="edge15" class="edge">
<title>Node0&#45;&gt;Node101</title>
<path fill="none" stroke="#191970" d="M1430.4598,-168.3733C1466.9075,-158.8799 1522.7246,-144.3415 1562.1289,-134.0781"/>
<polygon fill="#191970" stroke="#191970" points="1563.2276,-137.4087 1572.0225,-131.5011 1561.4631,-130.6348 1563.2276,-137.4087"/>
</g>
<!-- Node104 -->
<g id="node14" class="node">
<title>Node104</title>
<g id="a_node14"><a xlink:href="ravenunits_8h.html" target="_top" xlink:title="ravenunits.h">
<polygon fill="#ffffff" stroke="#000000" points="978.5,-112.5 978.5,-131.5 1048.5,-131.5 1048.5,-112.5 978.5,-112.5"/>
<text text-anchor="middle" x="1013.5" y="-119.5" font-family="Helvetica,sans-Serif" font-size="10.00" fill="#000000">ravenunits.h</text>
</a>
</g>
</g>
<!-- Node0&#45;&gt;Node104 -->
<g id="edge18" class="edge">
<title>Node0&#45;&gt;Node104</title>
<path fill="none" stroke="#191970" d="M1334.3779,-171.4912C1269.1745,-163.9573 1160.9765,-150.4084 1058.4139,-132.0392"/>
<polygon fill="#191970" stroke="#191970" points="1058.9712,-128.5832 1048.5078,-130.2465 1057.7247,-135.4714 1058.9712,-128.5832"/>
</g>
<!-- Node106 -->
<g id="node17" class="node">
<title>Node106</title>
<g id="a_node17"><a xlink:href="clientmodel_8h.html" target="_top" xlink:title="clientmodel.h">
<polygon fill="#ffffff" stroke="#000000" points="33.5,-112.5 33.5,-131.5 107.5,-131.5 107.5,-112.5 33.5,-112.5"/>
<text text-anchor="middle" x="70.5" y="-119.5" font-family="Helvetica,sans-Serif" font-size="10.00" fill="#000000">clientmodel.h</text>
</a>
</g>
</g>
<!-- Node0&#45;&gt;Node106 -->
<g id="edge22" class="edge">
<title>Node0&#45;&gt;Node106</title>
<path fill="none" stroke="#191970" d="M1334.3064,-177.0975C1116.6679,-173.5863 361.0523,-159.6427 121.5,-132 120.2395,-131.8546 118.9637,-131.6949 117.6779,-131.5231"/>
<polygon fill="#191970" stroke="#191970" points="118.1318,-128.0519 107.7176,-130 117.0736,-134.9714 118.1318,-128.0519"/>
</g>
<!-- Node109 -->
<g id="node20" class="node">
<title>Node109</title>
<g id="a_node20"><a xlink:href="assetcontroldialog_8h.html" target="_top" xlink:title="assetcontroldialog.h">
<polygon fill="#ffffff" stroke="#000000" points="1680.5,-112.5 1680.5,-131.5 1784.5,-131.5 1784.5,-112.5 1680.5,-112.5"/>
<text text-anchor="middle" x="1732.5" y="-119.5" font-family="Helvetica,sans-Serif" font-size="10.00" fill="#000000">assetcontroldialog.h</text>
</a>
</g>
</g>
<!-- Node0&#45;&gt;Node109 -->
<g id="edge26" class="edge">
<title>Node0&#45;&gt;Node109</title>
<path fill="none" stroke="#191970" d="M1451.391,-168.4369C1512.2965,-158.3758 1607.8112,-142.5976 1670.2937,-132.276"/>
<polygon fill="#191970" stroke="#191970" points="1671.1143,-135.6879 1680.4102,-130.6048 1669.9734,-128.7815 1671.1143,-135.6879"/>
</g>
<!-- Node115 -->
<g id="node27" class="node">
<title>Node115</title>
<g id="a_node27"><a xlink:href="guiutil_8h.html" target="_top" xlink:title="guiutil.h">
<polygon fill="#ffffff" stroke="#ff0000" points="810.5,-112.5 810.5,-131.5 860.5,-131.5 860.5,-112.5 810.5,-112.5"/>
<text text-anchor="middle" x="835.5" y="-119.5" font-family="Helvetica,sans-Serif" font-size="10.00" fill="#000000">guiutil.h</text>
</a>
</g>
</g>
<!-- Node0&#45;&gt;Node115 -->
<g id="edge36" class="edge">
<title>Node0&#45;&gt;Node115</title>
<path fill="none" stroke="#191970" d="M1334.4341,-176.6264C1238.7096,-173.5676 1043.785,-163.8827 870.6713,-131.88"/>
<polygon fill="#191970" stroke="#191970" points="871.0894,-128.3974 860.6151,-129.9909 869.7969,-135.277 871.0894,-128.3974"/>
</g>
<!-- Node126 -->
<g id="node28" class="node">
<title>Node126</title>
<g id="a_node28"><a xlink:href="optionsmodel_8h.html" target="_top" xlink:title="optionsmodel.h">
<polygon fill="#ffffff" stroke="#000000" points="1067,-112.5 1067,-131.5 1150,-131.5 1150,-112.5 1067,-112.5"/>
<text text-anchor="middle" x="1108.5" y="-119.5" font-family="Helvetica,sans-Serif" font-size="10.00" fill="#000000">optionsmodel.h</text>
</a>
</g>
</g>
<!-- Node0&#45;&gt;Node126 -->
<g id="edge41" class="edge">
<title>Node0&#45;&gt;Node126</title>
<path fill="none" stroke="#191970" d="M1344.8306,-168.4369C1293.4095,-158.3331 1212.6446,-142.4635 1160.1299,-132.1448"/>
<polygon fill="#191970" stroke="#191970" points="1160.5079,-128.6522 1150.0207,-130.1584 1159.1582,-135.5209 1160.5079,-128.6522"/>
</g>
<!-- Node127 -->
<g id="node29" class="node">
<title>Node127</title>
<g id="a_node29"><a xlink:href="platformstyle_8h.html" target="_top" xlink:title="platformstyle.h">
<polygon fill="#ffffff" stroke="#ff0000" points="879,-112.5 879,-131.5 960,-131.5 960,-112.5 879,-112.5"/>
<text text-anchor="middle" x="919.5" y="-119.5" font-family="Helvetica,sans-Serif" font-size="10.00" fill="#000000">platformstyle.h</text>
</a>
</g>
</g>
<!-- Node0&#45;&gt;Node127 -->
<g id="edge44" class="edge">
<title>Node0&#45;&gt;Node127</title>
<path fill="none" stroke="#191970" d="M1334.2935,-173.2582C1254.1406,-166.4659 1106.4641,-152.6353 970.3045,-131.9985"/>
<polygon fill="#191970" stroke="#191970" points="970.5198,-128.4908 960.1052,-130.4365 969.46,-135.4101 970.5198,-128.4908"/>
</g>
<!-- Node130 -->
<g id="node30" class="node">
<title>Node130</title>
<g id="a_node30"><a xlink:href="sendassetsentry_8h.html" target="_top" xlink:title="sendassetsentry.h">
<polygon fill="#ffffff" stroke="#ff0000" points="164,-112.5 164,-131.5 261,-131.5 261,-112.5 164,-112.5"/>
<text text-anchor="middle" x="212.5" y="-119.5" font-family="Helvetica,sans-Serif" font-size="10.00" fill="#000000">sendassetsentry.h</text>
</a>
</g>
</g>
<!-- Node0&#45;&gt;Node130 -->
<g id="edge46" class="edge">
<title>Node0&#45;&gt;Node130</title>
<path fill="none" stroke="#191970" d="M1334.4702,-176.5953C1136.9856,-171.7393 499.5163,-154.7614 271.3952,-131.9204"/>
<polygon fill="#191970" stroke="#191970" points="271.4771,-128.4102 261.1701,-130.8631 270.7571,-135.3731 271.4771,-128.4102"/>
</g>
<!-- Node132 -->
<g id="node31" class="node">
<title>Node132</title>
<g id="a_node31"><a xlink:href="assettablemodel_8h.html" target="_top" xlink:title="assettablemodel.h">
<polygon fill="#ffffff" stroke="#000000" points="1440.5,-112.5 1440.5,-131.5 1536.5,-131.5 1536.5,-112.5 1440.5,-112.5"/>
<text text-anchor="middle" x="1488.5" y="-119.5" font-family="Helvetica,sans-Serif" font-size="10.00" fill="#000000">assettablemodel.h</text>
</a>
</g>
</g>
<!-- Node0&#45;&gt;Node132 -->
<g id="edge49" class="edge">
<title>Node0&#45;&gt;Node132</title>
<path fill="none" stroke="#191970" d="M1410.0477,-168.2455C1424.7599,-159.5731 1446.4888,-146.7645 1463.3505,-136.825"/>
<polygon fill="#191970" stroke="#191970" points="1465.3046,-139.736 1472.1419,-131.6427 1461.7498,-133.7057 1465.3046,-139.736"/>
</g>
<!-- Node5 -->
<g id="node32" class="node">
<title>Node5</title>
<g id="a_node32"><a xlink:href="base58_8h.html" target="_top" xlink:title="base58.h">
<polygon fill="#ffffff" stroke="#ff0000" points="1950.5,-112.5 1950.5,-131.5 2006.5,-131.5 2006.5,-112.5 1950.5,-112.5"/>
<text text-anchor="middle" x="1978.5" y="-119.5" font-family="Helvetica,sans-Serif" font-size="10.00" fill="#000000">base58.h</text>
</a>
</g>
</g>
<!-- Node0&#45;&gt;Node5 -->
<g id="edge53" class="edge">
<title>Node0&#45;&gt;Node5</title>
<path fill="none" stroke="#191970" d="M1452.5069,-175.8859C1552.5987,-171.6569 1761.8173,-160.0339 1936.5,-132 1937.7489,-131.7996 1939.0156,-131.5821 1940.2924,-131.3507"/>
<polygon fill="#191970" stroke="#191970" points="1941.0415,-134.7702 1950.1487,-129.3564 1939.6532,-127.9092 1941.0415,-134.7702"/>
</g>
<!-- Node6 -->
<g id="node33" class="node">
<title>Node6</title>
<g id="a_node33"><a xlink:href="chainparams_8h.html" target="_top" xlink:title="chainparams.h">
<polygon fill="#ffffff" stroke="#ff0000" points="2237.5,-56.5 2237.5,-75.5 2317.5,-75.5 2317.5,-56.5 2237.5,-56.5"/>
<text text-anchor="middle" x="2277.5" y="-63.5" font-family="Helvetica,sans-Serif" font-size="10.00" fill="#000000">chainparams.h</text>
</a>
</g>
</g>
<!-- Node0&#45;&gt;Node6 -->
<g id="edge55" class="edge">
<title>Node0&#45;&gt;Node6</title>
<path fill="none" stroke="#191970" d="M1452.8562,-175.5717C1568.6214,-170.3562 1820.4787,-156.5231 1903.5,-132 1921.8035,-126.5935 1923.2935,-117.7245 1941.5,-112 2061.0223,-74.4201 2099.6901,-95.7185 2227.2789,-76.0583"/>
<polygon fill="#191970" stroke="#191970" points="2228.1119,-79.4698 2237.4348,-74.4366 2227.008,-72.5573 2228.1119,-79.4698"/>
</g>
<!-- Node133 -->
<g id="node34" class="node">
<title>Node133</title>
<g id="a_node34"><a xlink:href="coincontrol_8h.html" target="_top" xlink:title="wallet/coincontrol.h">
<polygon fill="#ffffff" stroke="#ff0000" points="1207,-112.5 1207,-131.5 1308,-131.5 1308,-112.5 1207,-112.5"/>
<text text-anchor="middle" x="1257.5" y="-119.5" font-family="Helvetica,sans-Serif" font-size="10.00" fill="#000000">wallet/coincontrol.h</text>
</a>
</g>
</g>
<!-- Node0&#45;&gt;Node133 -->
<g id="edge56" class="edge">
<title>Node0&#45;&gt;Node133</title>
<path fill="none" stroke="#191970" d="M1370.1208,-168.3733C1347.9955,-159.2629 1314.5866,-145.5062 1289.8981,-135.3404"/>
<polygon fill="#191970" stroke="#191970" points="1291.1536,-132.0723 1280.5742,-131.5011 1288.4883,-138.5451 1291.1536,-132.0723"/>
</g>
<!-- Node135 -->
<g id="node35" class="node">
<title>Node135</title>
<g id="a_node35"><a xlink:href="policy_2fees_8h.html" target="_top" xlink:title="policy/fees.h">
<polygon fill="#ffffff" stroke="#ff0000" points="1122.5,-56.5 1122.5,-75.5 1194.5,-75.5 1194.5,-56.5 1122.5,-56.5"/>
<text text-anchor="middle" x="1158.5" y="-63.5" font-family="Helvetica,sans-Serif" font-size="10.00" fill="#000000">policy/fees.h</text>
</a>
</g>
</g>
<!-- Node0&#45;&gt;Node135 -->
<g id="edge63" class="edge">
<title>Node0&#45;&gt;Node135</title>
<path fill="none" stroke="#191970" d="M1334.3092,-169.3427C1284.8471,-161.1731 1219.0454,-147.835 1197.5,-132 1181.6413,-120.3445 1171.0909,-100.1325 1165.0076,-85.1381"/>
<polygon fill="#191970" stroke="#191970" points="1168.2814,-83.9 1161.4995,-75.7602 1161.7252,-86.3526 1168.2814,-83.9"/>
</g>
<!-- Node166 -->
<g id="node36" class="node">
<title>Node166</title>
<polygon fill="#ffffff" stroke="#bfbfbf" points="2024.5,-112.5 2024.5,-131.5 2090.5,-131.5 2090.5,-112.5 2024.5,-112.5"/>
<text text-anchor="middle" x="2057.5" y="-119.5" font-family="Helvetica,sans-Serif" font-size="10.00" fill="#000000">validation.h</text>
</g>
<!-- Node0&#45;&gt;Node166 -->
<g id="edge59" class="edge">
<title>Node0&#45;&gt;Node166</title>
<path fill="none" stroke="#191970" d="M1452.5996,-176.7718C1561.812,-173.8186 1802.6428,-164.1136 2014.0792,-132.0014"/>
<polygon fill="#191970" stroke="#191970" points="2014.7736,-135.4358 2024.1248,-130.4553 2013.7087,-128.5173 2014.7736,-135.4358"/>
</g>
<!-- Node149 -->
<g id="node37" class="node">
<title>Node149</title>
<g id="a_node37"><a xlink:href="ui__interface_8h.html" target="_top" xlink:title="ui_interface.h">
<polygon fill="#ffffff" stroke="#ff0000" points="2109,-112.5 2109,-131.5 2184,-131.5 2184,-112.5 2109,-112.5"/>
<text text-anchor="middle" x="2146.5" y="-119.5" font-family="Helvetica,sans-Serif" font-size="10.00" fill="#000000">ui_interface.h</text>
</a>
</g>
</g>
<!-- Node0&#45;&gt;Node149 -->
<g id="edge60" class="edge">
<title>Node0&#45;&gt;Node149</title>
<path fill="none" stroke="#191970" d="M1452.832,-177.026C1572.9368,-174.4276 1853.5167,-165.1786 2098.6997,-131.9034"/>
<polygon fill="#191970" stroke="#191970" points="2099.4438,-135.3342 2108.8745,-130.5058 2098.4912,-128.3993 2099.4438,-135.3342"/>
</g>
<!-- Node167 -->
<g id="node38" class="node">
<title>Node167</title>
<g id="a_node38"><a xlink:href="txmempool_8h.html" target="_top" xlink:title="txmempool.h">
<polygon fill="#ffffff" stroke="#ff0000" points="1213,-56.5 1213,-75.5 1286,-75.5 1286,-56.5 1213,-56.5"/>
<text text-anchor="middle" x="1249.5" y="-63.5" font-family="Helvetica,sans-Serif" font-size="10.00" fill="#000000">txmempool.h</text>
</a>
</g>
</g>
<!-- Node0&#45;&gt;Node167 -->
<g id="edge61" class="edge">
<title>Node0&#45;&gt;Node167</title>
<path fill="none" stroke="#191970" d="M1382.84,-168.2236C1368.2522,-154.9953 1341.0723,-130.88 1316.5,-112 1302.4097,-101.1737 1285.9681,-89.8669 1272.8986,-81.1724"/>
<polygon fill="#191970" stroke="#191970" points="1274.7348,-78.1908 1264.4595,-75.6085 1270.8817,-84.035 1274.7348,-78.1908"/>
</g>
<!-- Node188 -->
<g id="node39" class="node">
<title>Node188</title>
<g id="a_node39"><a xlink:href="wallet_2fees_8h.html" target="_top" xlink:title="wallet/fees.h">
<polygon fill="#ffffff" stroke="#000000" points="1304.5,-56.5 1304.5,-75.5 1376.5,-75.5 1376.5,-56.5 1304.5,-56.5"/>
<text text-anchor="middle" x="1340.5" y="-63.5" font-family="Helvetica,sans-Serif" font-size="10.00" fill="#000000">wallet/fees.h</text>
</a>
</g>
</g>
<!-- Node0&#45;&gt;Node188 -->
<g id="edge64" class="edge">
<title>Node0&#45;&gt;Node188</title>
<path fill="none" stroke="#191970" d="M1388.9812,-168.4509C1380.2197,-149.936 1360.7815,-108.8591 1349.3579,-84.7187"/>
<polygon fill="#191970" stroke="#191970" points="1352.4484,-83.0668 1345.0073,-75.5249 1346.1211,-86.061 1352.4484,-83.0668"/>
</g>
<!-- Node189 -->
<g id="node40" class="node">
<title>Node189</title>
<g id="a_node40"><a xlink:href="createassetdialog_8h.html" target="_top" xlink:title="createassetdialog.h">
<polygon fill="#ffffff" stroke="#000000" points="404,-112.5 404,-131.5 505,-131.5 505,-112.5 404,-112.5"/>
<text text-anchor="middle" x="454.5" y="-119.5" font-family="Helvetica,sans-Serif" font-size="10.00" fill="#000000">createassetdialog.h</text>
</a>
</g>
</g>
<!-- Node0&#45;&gt;Node189 -->
<g id="edge66" class="edge">
<title>Node0&#45;&gt;Node189</title>
<path fill="none" stroke="#191970" d="M1334.3457,-177.2669C1193.8899,-175.0183 829.18,-166.199 515.4967,-132.1124"/>
<polygon fill="#191970" stroke="#191970" points="515.6185,-128.6049 505.2964,-130.993 514.8549,-135.5631 515.6185,-128.6049"/>
</g>
<!-- Node190 -->
<g id="node41" class="node">
<title>Node190</title>
<g id="a_node41"><a xlink:href="reissueassetdialog_8h.html" target="_top" xlink:title="reissueassetdialog.h">
<polygon fill="#ffffff" stroke="#000000" points="279.5,-112.5 279.5,-131.5 385.5,-131.5 385.5,-112.5 279.5,-112.5"/>
<text text-anchor="middle" x="332.5" y="-119.5" font-family="Helvetica,sans-Serif" font-size="10.00" fill="#000000">reissueassetdialog.h</text>
</a>
</g>
</g>
<!-- Node0&#45;&gt;Node190 -->
<g id="edge69" class="edge">
<title>Node0&#45;&gt;Node190</title>
<path fill="none" stroke="#191970" d="M1334.4925,-177.6254C1181.2584,-176.1505 758.0004,-168.8753 395.7085,-132.007"/>
<polygon fill="#191970" stroke="#191970" points="395.8524,-128.5034 385.5471,-130.9634 395.1372,-135.4668 395.8524,-128.5034"/>
</g>
<!-- Node191 -->
<g id="node42" class="node">
<title>Node191</title>
<g id="a_node42"><a xlink:href="guiconstants_8h.html" target="_top" xlink:title="guiconstants.h">
<polygon fill="#ffffff" stroke="#000000" points="2202.5,-112.5 2202.5,-131.5 2282.5,-131.5 2282.5,-112.5 2202.5,-112.5"/>
<text text-anchor="middle" x="2242.5" y="-119.5" font-family="Helvetica,sans-Serif" font-size="10.00" fill="#000000">guiconstants.h</text>
</a>
</g>
</g>
<!-- Node0&#45;&gt;Node191 -->
<g id="edge72" class="edge">
<title>Node0&#45;&gt;Node191</title>
<path fill="none" stroke="#191970" d="M1452.985,-177.4996C1584.6118,-175.7621 1910.5221,-167.9924 2192.4571,-131.9525"/>
<polygon fill="#191970" stroke="#191970" points="2192.9988,-135.4117 2202.4675,-130.6585 2192.1013,-128.4694 2192.9988,-135.4117"/>
</g>
<!-- Node192 -->
<g id="node43" class="node">
<title>Node192</title>
<polygon fill="#ffffff" stroke="#bfbfbf" points="2300.5,-112.5 2300.5,-131.5 2446.5,-131.5 2446.5,-112.5 2300.5,-112.5"/>
<text text-anchor="middle" x="2373.5" y="-119.5" font-family="Helvetica,sans-Serif" font-size="10.00" fill="#000000">QGraphicsDropShadowEffect</text>
</g>
<!-- Node0&#45;&gt;Node192 -->
<g id="edge73" class="edge">
<title>Node0&#45;&gt;Node192</title>
<path fill="none" stroke="#191970" d="M1452.7015,-176.4046C1595.1029,-172.2572 1968.2194,-159.551 2290.2179,-132.0557"/>
<polygon fill="#191970" stroke="#191970" points="2290.5458,-135.5405 2300.209,-131.1964 2289.9458,-128.5663 2290.5458,-135.5405"/>
</g>
<!-- Node193 -->
<g id="node44" class="node">
<title>Node193</title>
<polygon fill="#ffffff" stroke="#bfbfbf" points="2464.5,-112.5 2464.5,-131.5 2540.5,-131.5 2540.5,-112.5 2464.5,-112.5"/>
<text text-anchor="middle" x="2502.5" y="-119.5" font-family="Helvetica,sans-Serif" font-size="10.00" fill="#000000">QFontMetrics</text>
</g>
<!-- Node0&#45;&gt;Node193 -->
<g id="edge74" class="edge">
<title>Node0&#45;&gt;Node193</title>
<path fill="none" stroke="#191970" d="M1452.6981,-176.7335C1643.1334,-172.4586 2239.5102,-157.4582 2454.137,-131.9297"/>
<polygon fill="#191970" stroke="#191970" points="2454.8751,-135.3653 2464.3713,-130.667 2454.0179,-128.4179 2454.8751,-135.3653"/>
</g>
<!-- Node194 -->
<g id="node45" class="node">
<title>Node194</title>
<polygon fill="#ffffff" stroke="#bfbfbf" points="2558.5,-112.5 2558.5,-131.5 2622.5,-131.5 2622.5,-112.5 2558.5,-112.5"/>
<text text-anchor="middle" x="2590.5" y="-119.5" font-family="Helvetica,sans-Serif" font-size="10.00" fill="#000000">QScrollBar</text>
</g>
<!-- Node0&#45;&gt;Node194 -->
<g id="edge76" class="edge">
<title>Node0&#45;&gt;Node194</title>
<path fill="none" stroke="#191970" d="M1452.5474,-177.2066C1654.0561,-174.2594 2314.5726,-162.5648 2548.2526,-131.8558"/>
<polygon fill="#191970" stroke="#191970" points="2548.9532,-135.2927 2558.3885,-130.4735 2548.0073,-128.3569 2548.9532,-135.2927"/>
</g>
<!-- Node195 -->
<g id="node46" class="node">
<title>Node195</title>
<polygon fill="#ffffff" stroke="#bfbfbf" points="2640.5,-112.5 2640.5,-131.5 2700.5,-131.5 2700.5,-112.5 2640.5,-112.5"/>
<text text-anchor="middle" x="2670.5" y="-119.5" font-family="Helvetica,sans-Serif" font-size="10.00" fill="#000000">QSettings</text>
</g>
<!-- Node0&#45;&gt;Node195 -->
<g id="edge77" class="edge">
<title>Node0&#45;&gt;Node195</title>
<path fill="none" stroke="#191970" d="M1452.6339,-177.4778C1663.6359,-175.3569 2379.8076,-165.8842 2630.252,-131.8276"/>
<polygon fill="#191970" stroke="#191970" points="2630.9822,-135.2594 2640.3954,-130.3972 2630.0047,-128.328 2630.9822,-135.2594"/>
</g>
<!-- Node196 -->
<g id="node47" class="node">
<title>Node196</title>
<polygon fill="#ffffff" stroke="#bfbfbf" points="2719,-112.5 2719,-131.5 2808,-131.5 2808,-112.5 2719,-112.5"/>
<text text-anchor="middle" x="2763.5" y="-119.5" font-family="Helvetica,sans-Serif" font-size="10.00" fill="#000000">QTextDocument</text>
</g>
<!-- Node0&#45;&gt;Node196 -->
<g id="edge78" class="edge">
<title>Node0&#45;&gt;Node196</title>
<path fill="none" stroke="#191970" d="M1452.8108,-177.0959C1672.5563,-173.5667 2440.947,-159.5841 2708.708,-131.8832"/>
<polygon fill="#191970" stroke="#191970" points="2709.2143,-135.3491 2718.7865,-130.8078 2708.4716,-128.3886 2709.2143,-135.3491"/>
</g>
<!-- Node197 -->
<g id="node48" class="node">
<title>Node197</title>
<g id="a_node48"><a xlink:href="policy_8h.html" target="_top" xlink:title="policy/policy.h">
<polygon fill="#ffffff" stroke="#ff0000" points="2826,-112.5 2826,-131.5 2905,-131.5 2905,-112.5 2826,-112.5"/>
<text text-anchor="middle" x="2865.5" y="-119.5" font-family="Helvetica,sans-Serif" font-size="10.00" fill="#000000">policy/policy.h</text>
</a>
</g>
</g>
<!-- Node0&#45;&gt;Node197 -->
<g id="edge80" class="edge">
<title>Node0&#45;&gt;Node197</title>
<path fill="none" stroke="#191970" d="M1452.832,-177.4529C1684.1871,-175.1097 2526.8034,-164.5659 2815.7323,-131.9964"/>
<polygon fill="#191970" stroke="#191970" points="2816.2462,-135.4603 2825.7749,-130.8285 2815.4375,-128.5072 2816.2462,-135.4603"/>
</g>
<!-- Node199 -->
<g id="node49" class="node">
<title>Node199</title>
<g id="a_node49"><a xlink:href="core__io_8h.html" target="_top" xlink:title="core_io.h">
<polygon fill="#ffffff" stroke="#ff0000" points="1394.5,-56.5 1394.5,-75.5 1450.5,-75.5 1450.5,-56.5 1394.5,-56.5"/>
<text text-anchor="middle" x="1422.5" y="-63.5" font-family="Helvetica,sans-Serif" font-size="10.00" fill="#000000">core_io.h</text>
</a>
</g>
</g>
<!-- Node0&#45;&gt;Node199 -->
<g id="edge81" class="edge">
<title>Node0&#45;&gt;Node199</title>
<path fill="none" stroke="#191970" d="M1395.9725,-168.4509C1400.7238,-150.1013 1411.2131,-109.5908 1417.4847,-85.3693"/>
<polygon fill="#191970" stroke="#191970" points="1420.9153,-86.083 1420.0337,-75.5249 1414.1388,-84.3283 1420.9153,-86.083"/>
</g>
<!-- Node200 -->
<g id="node50" class="node">
<title>Node200</title>
<g id="a_node50"><a xlink:href="mining_8h.html" target="_top" xlink:title="rpc/mining.h">
<polygon fill="#ffffff" stroke="#ff0000" points="2923.5,-112.5 2923.5,-131.5 2993.5,-131.5 2993.5,-112.5 2923.5,-112.5"/>
<text text-anchor="middle" x="2958.5" y="-119.5" font-family="Helvetica,sans-Serif" font-size="10.00" fill="#000000">rpc/mining.h</text>
</a>
</g>
</g>
<!-- Node0&#45;&gt;Node200 -->
<g id="edge83" class="edge">
<title>Node0&#45;&gt;Node200</title>
<path fill="none" stroke="#191970" d="M1452.7,-177.7379C1693.8216,-176.4372 2603.357,-169.2022 2912.7553,-131.9528"/>
<polygon fill="#191970" stroke="#191970" points="2913.5716,-135.3783 2923.0636,-130.6719 2912.7083,-128.4318 2913.5716,-135.3783"/>
</g>
<!-- Node1&#45;&gt;Node2 -->
<g id="edge2" class="edge">
<title>Node1&#45;&gt;Node2</title>
<path fill="none" stroke="#191970" d="M636.229,-113.9169C586.0428,-103.8437 500.3314,-86.64 446.4191,-75.8189"/>
<polygon fill="#191970" stroke="#191970" points="446.9028,-72.3462 436.4096,-73.8098 445.5252,-79.2094 446.9028,-72.3462"/>
</g>
<!-- Node96 -->
<g id="node5" class="node">
<title>Node96</title>
<polygon fill="#ffffff" stroke="#bfbfbf" points="543.5,-56.5 543.5,-75.5 595.5,-75.5 595.5,-56.5 543.5,-56.5"/>
<text text-anchor="middle" x="569.5" y="-63.5" font-family="Helvetica,sans-Serif" font-size="10.00" fill="#000000">QDialog</text>
</g>
<!-- Node1&#45;&gt;Node96 -->
<g id="edge4" class="edge">
<title>Node1&#45;&gt;Node96</title>
<path fill="none" stroke="#191970" d="M657.862,-112.2455C641.0614,-103.4527 616.1366,-90.4079 597.0382,-80.4125"/>
<polygon fill="#191970" stroke="#191970" points="598.4073,-77.1787 587.9244,-75.6427 595.1614,-83.3807 598.4073,-77.1787"/>
</g>
<!-- Node1&#45;&gt;Node97 -->
<g id="edge5" class="edge">
<title>Node1&#45;&gt;Node97</title>
<path fill="none" stroke="#191970" d="M684.3384,-112.2455C690.662,-104.3761 699.7224,-93.101 707.3136,-83.6542"/>
<polygon fill="#191970" stroke="#191970" points="710.2158,-85.6302 713.7514,-75.6427 704.7592,-81.2454 710.2158,-85.6302"/>
</g>
<!-- Node93 -->
<g id="node7" class="node">
<title>Node93</title>
<polygon fill="#ffffff" stroke="#bfbfbf" points="856.5,-56.5 856.5,-75.5 906.5,-75.5 906.5,-56.5 856.5,-56.5"/>
<text text-anchor="middle" x="881.5" y="-63.5" font-family="Helvetica,sans-Serif" font-size="10.00" fill="#000000">QString</text>
</g>
<!-- Node1&#45;&gt;Node93 -->
<g id="edge6" class="edge">
<title>Node1&#45;&gt;Node93</title>
<path fill="none" stroke="#191970" d="M711.7408,-112.3733C749.411,-102.0828 808.7813,-85.8646 846.3981,-75.5888"/>
<polygon fill="#191970" stroke="#191970" points="847.6708,-78.8695 856.395,-72.8579 845.8262,-72.1169 847.6708,-78.8695"/>
</g>
<!-- Node1&#45;&gt;Node98 -->
<g id="edge7" class="edge">
<title>Node1&#45;&gt;Node98</title>
<path fill="none" stroke="#191970" d="M669.8809,-112.2455C664.5954,-104.4564 657.0459,-93.3308 650.6762,-83.9439"/>
<polygon fill="#191970" stroke="#191970" points="653.5545,-81.9522 645.0432,-75.6427 647.7621,-85.8827 653.5545,-81.9522"/>
</g>
<!-- Node95 -->
<g id="node4" class="node">
<title>Node95</title>
<polygon fill="#ffffff" stroke="#bfbfbf" points="371,-.5 371,-19.5 424,-19.5 424,-.5 371,-.5"/>
<text text-anchor="middle" x="397.5" y="-7.5" font-family="Helvetica,sans-Serif" font-size="10.00" fill="#000000">QObject</text>
</g>
<!-- Node2&#45;&gt;Node95 -->
<g id="edge3" class="edge">
<title>Node2&#45;&gt;Node95</title>
<path fill="none" stroke="#191970" d="M397.5,-56.2455C397.5,-48.9382 397.5,-38.6944 397.5,-29.7046"/>
<polygon fill="#191970" stroke="#191970" points="401.0001,-29.6426 397.5,-19.6427 394.0001,-29.6427 401.0001,-29.6426"/>
</g>
<!-- Node99&#45;&gt;Node2 -->
<g id="edge9" class="edge">
<title>Node99&#45;&gt;Node2</title>
<path fill="none" stroke="#191970" d="M540.7602,-112.3733C511.993,-103.0613 468.23,-88.8953 436.6444,-78.671"/>
<polygon fill="#191970" stroke="#191970" points="437.4436,-75.251 426.8517,-75.5011 435.2878,-81.9107 437.4436,-75.251"/>
</g>
<!-- Node99&#45;&gt;Node96 -->
<g id="edge10" class="edge">
<title>Node99&#45;&gt;Node96</title>
<path fill="none" stroke="#191970" d="M570.3258,-112.2455C570.1953,-104.9382 570.0124,-94.6944 569.8519,-85.7046"/>
<polygon fill="#191970" stroke="#191970" points="573.3503,-85.5786 569.6722,-75.6427 566.3514,-85.7036 573.3503,-85.5786"/>
</g>
<!-- Node99&#45;&gt;Node97 -->
<g id="edge11" class="edge">
<title>Node99&#45;&gt;Node97</title>
<path fill="none" stroke="#191970" d="M596.4578,-112.3733C621.2407,-103.1822 658.7746,-89.2624 686.254,-79.0713"/>
<polygon fill="#191970" stroke="#191970" points="687.7219,-82.26 695.8809,-75.5011 685.2879,-75.6968 687.7219,-82.26"/>
</g>
<!-- Node99&#45;&gt;Node93 -->
<g id="edge12" class="edge">
<title>Node99&#45;&gt;Node93</title>
<path fill="none" stroke="#191970" d="M618.0727,-113.4338C680.8956,-102.1217 790.0945,-82.4589 846.1183,-72.371"/>
<polygon fill="#191970" stroke="#191970" points="847.0397,-75.7614 856.2611,-70.5446 845.7991,-68.8722 847.0397,-75.7614"/>
</g>
<!-- Node99&#45;&gt;Node98 -->
<g id="edge13" class="edge">
<title>Node99&#45;&gt;Node98</title>
<path fill="none" stroke="#191970" d="M582.3447,-112.2455C592.388,-103.9746 606.9995,-91.9416 618.8004,-82.2232"/>
<polygon fill="#191970" stroke="#191970" points="621.2967,-84.7015 626.791,-75.6427 616.8467,-79.298 621.2967,-84.7015"/>
</g>
<!-- Node102 -->
<g id="node12" class="node">
<title>Node102</title>
<polygon fill="#ffffff" stroke="#bfbfbf" points="1507,-56.5 1507,-75.5 1618,-75.5 1618,-56.5 1507,-56.5"/>
<text text-anchor="middle" x="1562.5" y="-63.5" font-family="Helvetica,sans-Serif" font-size="10.00" fill="#000000">QAbstractTableModel</text>
</g>
<!-- Node101&#45;&gt;Node102 -->
<g id="edge16" class="edge">
<title>Node101&#45;&gt;Node102</title>
<path fill="none" stroke="#191970" d="M1600.4874,-112.2455C1594.0232,-104.3761 1584.7615,-93.101 1577.0017,-83.6542"/>
<polygon fill="#191970" stroke="#191970" points="1579.4727,-81.1484 1570.4208,-75.6427 1574.0636,-85.5916 1579.4727,-81.1484"/>
</g>
<!-- Node103 -->
<g id="node13" class="node">
<title>Node103</title>
<polygon fill="#ffffff" stroke="#bfbfbf" points="1636,-56.5 1636,-75.5 1701,-75.5 1701,-56.5 1636,-56.5"/>
<text text-anchor="middle" x="1668.5" y="-63.5" font-family="Helvetica,sans-Serif" font-size="10.00" fill="#000000">QStringList</text>
</g>
<!-- Node101&#45;&gt;Node103 -->
<g id="edge17" class="edge">
<title>Node101&#45;&gt;Node103</title>
<path fill="none" stroke="#191970" d="M1618.9512,-112.2455C1627.7269,-104.0549 1640.4554,-92.1749 1650.814,-82.5069"/>
<polygon fill="#191970" stroke="#191970" points="1653.2461,-85.0246 1658.1686,-75.6427 1648.4699,-79.9072 1653.2461,-85.0246"/>
</g>
<!-- Node104&#45;&gt;Node93 -->
<g id="edge21" class="edge">
<title>Node104&#45;&gt;Node93</title>
<path fill="none" stroke="#191970" d="M990.8084,-112.3733C969.4289,-103.3032 937.1943,-89.6279 913.2638,-79.4755"/>
<polygon fill="#191970" stroke="#191970" points="914.4683,-76.1846 903.8955,-75.5011 911.7344,-82.6287 914.4683,-76.1846"/>
</g>
<!-- Node24 -->
<g id="node15" class="node">
<title>Node24</title>
<g id="a_node15"><a xlink:href="amount_8h.html" target="_top" xlink:title="amount.h">
<polygon fill="#ffffff" stroke="#ff0000" points="1221,-.5 1221,-19.5 1278,-19.5 1278,-.5 1221,-.5"/>
<text text-anchor="middle" x="1249.5" y="-7.5" font-family="Helvetica,sans-Serif" font-size="10.00" fill="#000000">amount.h</text>
</a>
</g>
</g>
<!-- Node104&#45;&gt;Node24 -->
<g id="edge19" class="edge">
<title>Node104&#45;&gt;Node24</title>
<path fill="none" stroke="#191970" d="M993.5802,-112.3219C969.989,-99.5998 935.971,-76.4635 953.5,-56 970.04,-36.691 1134.0289,-20.0401 1210.5502,-13.2533"/>
<polygon fill="#191970" stroke="#191970" points="1211.0857,-16.7199 1220.7427,-12.3618 1210.4758,-9.7465 1211.0857,-16.7199"/>
</g>
<!-- Node105 -->
<g id="node16" class="node">
<title>Node105</title>
<polygon fill="#ffffff" stroke="#bfbfbf" points="963,-56.5 963,-75.5 1066,-75.5 1066,-56.5 963,-56.5"/>
<text text-anchor="middle" x="1014.5" y="-63.5" font-family="Helvetica,sans-Serif" font-size="10.00" fill="#000000">QAbstractListModel</text>
</g>
<!-- Node104&#45;&gt;Node105 -->
<g id="edge20" class="edge">
<title>Node104&#45;&gt;Node105</title>
<path fill="none" stroke="#191970" d="M1013.6742,-112.2455C1013.8047,-104.9382 1013.9876,-94.6944 1014.1481,-85.7046"/>
<polygon fill="#191970" stroke="#191970" points="1017.6486,-85.7036 1014.3278,-75.6427 1010.6497,-85.5786 1017.6486,-85.7036"/>
</g>
<!-- Node106&#45;&gt;Node95 -->
<g id="edge23" class="edge">
<title>Node106&#45;&gt;Node95</title>
<path fill="none" stroke="#191970" d="M98.3798,-112.4509C157.4366,-92.2236 295.1146,-45.0678 361.0441,-22.4864"/>
<polygon fill="#191970" stroke="#191970" points="362.2836,-25.7616 370.61,-19.21 360.0154,-19.1392 362.2836,-25.7616"/>
</g>
<!-- Node107 -->
<g id="node18" class="node">
<title>Node107</title>
<polygon fill="#ffffff" stroke="#bfbfbf" points="0,-56.5 0,-75.5 67,-75.5 67,-56.5 0,-56.5"/>
<text text-anchor="middle" x="33.5" y="-63.5" font-family="Helvetica,sans-Serif" font-size="10.00" fill="#000000">QDateTime</text>
</g>
<!-- Node106&#45;&gt;Node107 -->
<g id="edge24" class="edge">
<title>Node106&#45;&gt;Node107</title>
<path fill="none" stroke="#191970" d="M64.0551,-112.2455C58.9618,-104.5367 51.7092,-93.5598 45.548,-84.2348"/>
<polygon fill="#191970" stroke="#191970" points="48.3038,-82.0566 39.8711,-75.6427 42.4635,-85.9155 48.3038,-82.0566"/>
</g>
<!-- Node108 -->
<g id="node19" class="node">
<title>Node108</title>
<polygon fill="#ffffff" stroke="#bfbfbf" points="85.5,-56.5 85.5,-75.5 131.5,-75.5 131.5,-56.5 85.5,-56.5"/>
<text text-anchor="middle" x="108.5" y="-63.5" font-family="Helvetica,sans-Serif" font-size="10.00" fill="#000000">atomic</text>
</g>
<!-- Node106&#45;&gt;Node108 -->
<g id="edge25" class="edge">
<title>Node106&#45;&gt;Node108</title>
<path fill="none" stroke="#191970" d="M77.1191,-112.2455C82.4046,-104.4564 89.9541,-93.3308 96.3238,-83.9439"/>
<polygon fill="#191970" stroke="#191970" points="99.2379,-85.8827 101.9568,-75.6427 93.4455,-81.9522 99.2379,-85.8827"/>
</g>
<!-- Node109&#45;&gt;Node96 -->
<g id="edge30" class="edge">
<title>Node109&#45;&gt;Node96</title>
<path fill="none" stroke="#191970" d="M1680.4665,-113.1192C1677.0996,-112.6957 1673.7556,-112.3162 1670.5,-112 1202.0136,-66.4915 1074.5891,-148.4896 605.7993,-75.8138"/>
<polygon fill="#191970" stroke="#191970" points="606.1398,-72.3246 595.7188,-74.2355 605.057,-79.2403 606.1398,-72.3246"/>
</g>
<!-- Node109&#45;&gt;Node93 -->
<g id="edge34" class="edge">
<title>Node109&#45;&gt;Node93</title>
<path fill="none" stroke="#191970" d="M1680.4602,-113.1816C1677.0948,-112.7428 1673.7529,-112.3429 1670.5,-112 1353.1905,-78.5467 1271.1569,-105.9757 953.5,-76 941.5719,-74.8744 928.5887,-73.2084 916.9735,-71.5575"/>
<polygon fill="#191970" stroke="#191970" points="917.1623,-68.0479 906.7606,-70.0617 916.1478,-74.974 917.1623,-68.0479"/>
</g>
<!-- Node109&#45;&gt;Node24 -->
<g id="edge27" class="edge">
<title>Node109&#45;&gt;Node24</title>
<path fill="none" stroke="#191970" d="M1732.1931,-112.0711C1731.1515,-97.2626 1726.8433,-69.6719 1709.5,-56 1676.7082,-30.15 1393.2567,-15.9298 1288.3384,-11.5135"/>
<polygon fill="#191970" stroke="#191970" points="1288.3139,-8.0096 1278.1778,-11.0931 1288.0245,-15.0036 1288.3139,-8.0096"/>
</g>
<!-- Node110 -->
<g id="node21" class="node">
<title>Node110</title>
<polygon fill="#ffffff" stroke="#bfbfbf" points="1758,-56.5 1758,-75.5 1847,-75.5 1847,-56.5 1758,-56.5"/>
<text text-anchor="middle" x="1802.5" y="-63.5" font-family="Helvetica,sans-Serif" font-size="10.00" fill="#000000">QAbstractButton</text>
</g>
<!-- Node109&#45;&gt;Node110 -->
<g id="edge28" class="edge">
<title>Node109&#45;&gt;Node110</title>
<path fill="none" stroke="#191970" d="M1744.6931,-112.2455C1755.1321,-103.8943 1770.3655,-91.7076 1782.574,-81.9408"/>
<polygon fill="#191970" stroke="#191970" points="1784.8244,-84.6227 1790.4467,-75.6427 1780.4515,-79.1566 1784.8244,-84.6227"/>
</g>
<!-- Node111 -->
<g id="node22" class="node">
<title>Node111</title>
<polygon fill="#ffffff" stroke="#bfbfbf" points="1865.5,-56.5 1865.5,-75.5 1917.5,-75.5 1917.5,-56.5 1865.5,-56.5"/>
<text text-anchor="middle" x="1891.5" y="-63.5" font-family="Helvetica,sans-Serif" font-size="10.00" fill="#000000">QAction</text>
</g>
<!-- Node109&#45;&gt;Node111 -->
<g id="edge29" class="edge">
<title>Node109&#45;&gt;Node111</title>
<path fill="none" stroke="#191970" d="M1759.8331,-112.3733C1786.2817,-103.058 1826.5223,-88.8852 1855.5542,-78.6602"/>
<polygon fill="#191970" stroke="#191970" points="1857.0453,-81.8458 1865.3147,-75.2225 1854.7199,-75.2433 1857.0453,-81.8458"/>
</g>
<!-- Node92 -->
<g id="node23" class="node">
<title>Node92</title>
<polygon fill="#ffffff" stroke="#bfbfbf" points="1935.5,-56.5 1935.5,-75.5 1975.5,-75.5 1975.5,-56.5 1935.5,-56.5"/>
<text text-anchor="middle" x="1955.5" y="-63.5" font-family="Helvetica,sans-Serif" font-size="10.00" fill="#000000">QList</text>
</g>
<!-- Node109&#45;&gt;Node92 -->
<g id="edge31" class="edge">
<title>Node109&#45;&gt;Node92</title>
<path fill="none" stroke="#191970" d="M1778.3033,-112.4842C1815.6658,-104.42 1869.964,-92.0165 1925.6289,-76.0572"/>
<polygon fill="#191970" stroke="#191970" points="1926.6714,-79.3992 1935.3005,-73.2519 1924.7213,-72.6763 1926.6714,-79.3992"/>
</g>
<!-- Node112 -->
<g id="node24" class="node">
<title>Node112</title>
<polygon fill="#ffffff" stroke="#bfbfbf" points="1993.5,-56.5 1993.5,-75.5 2041.5,-75.5 2041.5,-56.5 1993.5,-56.5"/>
<text text-anchor="middle" x="2017.5" y="-63.5" font-family="Helvetica,sans-Serif" font-size="10.00" fill="#000000">QMenu</text>
</g>
<!-- Node109&#45;&gt;Node112 -->
<g id="edge32" class="edge">
<title>Node109&#45;&gt;Node112</title>
<path fill="none" stroke="#191970" d="M1784.6271,-113.2046C1842.7966,-103.2716 1934.2548,-87.2747 1983.5779,-75.9736"/>
<polygon fill="#191970" stroke="#191970" points="1984.513,-79.349 1993.4363,-73.6372 1982.8986,-72.5377 1984.513,-79.349"/>
</g>
<!-- Node113 -->
<g id="node25" class="node">
<title>Node113</title>
<polygon fill="#ffffff" stroke="#bfbfbf" points="2060,-56.5 2060,-75.5 2107,-75.5 2107,-56.5 2060,-56.5"/>
<text text-anchor="middle" x="2083.5" y="-63.5" font-family="Helvetica,sans-Serif" font-size="10.00" fill="#000000">QPoint</text>
</g>
<!-- Node109&#45;&gt;Node113 -->
<g id="edge33" class="edge">
<title>Node109&#45;&gt;Node113</title>
<path fill="none" stroke="#191970" d="M1784.7308,-113.3554C1787.6964,-112.8902 1790.6354,-112.4354 1793.5,-112 1904.41,-95.1433 1936.1388,-100.4812 2050.0203,-75.8079"/>
<polygon fill="#191970" stroke="#191970" points="2050.8069,-79.2187 2059.8231,-73.6548 2049.3051,-72.3817 2050.8069,-79.2187"/>
</g>
<!-- Node114 -->
<g id="node26" class="node">
<title>Node114</title>
<polygon fill="#ffffff" stroke="#bfbfbf" points="2125.5,-56.5 2125.5,-75.5 2219.5,-75.5 2219.5,-56.5 2125.5,-56.5"/>
<text text-anchor="middle" x="2172.5" y="-63.5" font-family="Helvetica,sans-Serif" font-size="10.00" fill="#000000">QTreeWidgetItem</text>
</g>
<!-- Node109&#45;&gt;Node114 -->
<g id="edge35" class="edge">
<title>Node109&#45;&gt;Node114</title>
<path fill="none" stroke="#191970" d="M1784.7167,-113.2584C1787.686,-112.8179 1790.6295,-112.395 1793.5,-112 1933.382,-92.752 1971.834,-96.5218 2115.4163,-76.0754"/>
<polygon fill="#191970" stroke="#191970" points="2116.083,-79.5157 2125.4826,-74.6271 2115.086,-72.587 2116.083,-79.5157"/>
</g>
<!-- Node115&#45;&gt;Node95 -->
<g id="edge39" class="edge">
<title>Node115&#45;&gt;Node95</title>
<path fill="none" stroke="#191970" d="M829.2662,-112.3786C819.0097,-97.4535 797.0433,-69.0805 770.5,-56 711.8376,-27.0914 516.3307,-15.2507 434.2647,-11.4738"/>
<polygon fill="#191970" stroke="#191970" points="434.2941,-7.9717 424.1481,-11.0229 433.9823,-14.9648 434.2941,-7.9717"/>
</g>
<!-- Node115&#45;&gt;Node97 -->
<g id="edge38" class="edge">
<title>Node115&#45;&gt;Node97</title>
<path fill="none" stroke="#191970" d="M815.9027,-112.3733C797.7669,-103.4644 770.5865,-90.1127 750.0413,-80.0203"/>
<polygon fill="#191970" stroke="#191970" points="751.3603,-76.7688 740.8416,-75.5011 748.2739,-83.0517 751.3603,-76.7688"/>
</g>
<!-- Node115&#45;&gt;Node93 -->
<g id="edge40" class="edge">
<title>Node115&#45;&gt;Node93</title>
<path fill="none" stroke="#191970" d="M843.5126,-112.2455C849.9768,-104.3761 859.2385,-93.101 866.9983,-83.6542"/>
<polygon fill="#191970" stroke="#191970" points="869.9364,-85.5916 873.5792,-75.6427 864.5273,-81.1484 869.9364,-85.5916"/>
</g>
<!-- Node115&#45;&gt;Node24 -->
<g id="edge37" class="edge">
<title>Node115&#45;&gt;Node24</title>
<path fill="none" stroke="#191970" d="M834.0496,-112.2751C832.4891,-97.7331 832.0263,-70.4858 847.5,-56 873.7593,-31.4171 1115.334,-16.7248 1210.8733,-11.8328"/>
<polygon fill="#191970" stroke="#191970" points="1211.1717,-15.3223 1220.9831,-11.324 1210.8198,-8.3312 1211.1717,-15.3223"/>
</g>
<!-- Node126&#45;&gt;Node24 -->
<g id="edge42" class="edge">
<title>Node126&#45;&gt;Node24</title>
<path fill="none" stroke="#191970" d="M1106.2067,-112.3231C1103.497,-98.3305 1100.8162,-72.3387 1113.5,-56 1125.6376,-40.365 1175.0607,-26.4247 1210.8337,-18.0941"/>
<polygon fill="#191970" stroke="#191970" points="1212.0003,-21.4186 1220.9795,-15.7949 1210.4532,-14.5917 1212.0003,-21.4186"/>
</g>
<!-- Node126&#45;&gt;Node105 -->
<g id="edge43" class="edge">
<title>Node126&#45;&gt;Node105</title>
<path fill="none" stroke="#191970" d="M1092.1264,-112.2455C1077.5692,-103.5731 1056.069,-90.7645 1039.3848,-80.825"/>
<polygon fill="#191970" stroke="#191970" points="1041.0683,-77.7539 1030.6859,-75.6427 1037.4856,-83.7676 1041.0683,-77.7539"/>
</g>
<!-- Node127&#45;&gt;Node93 -->
<g id="edge45" class="edge">
<title>Node127&#45;&gt;Node93</title>
<path fill="none" stroke="#191970" d="M912.8809,-112.2455C907.5954,-104.4564 900.0459,-93.3308 893.6762,-83.9439"/>
<polygon fill="#191970" stroke="#191970" points="896.5545,-81.9522 888.0432,-75.6427 890.7621,-85.8827 896.5545,-81.9522"/>
</g>
<!-- Node130&#45;&gt;Node2 -->
<g id="edge47" class="edge">
<title>Node130&#45;&gt;Node2</title>
<path fill="none" stroke="#191970" d="M244.3026,-112.3733C275.3317,-102.9807 322.6754,-88.6496 356.5147,-78.4064"/>
<polygon fill="#191970" stroke="#191970" points="357.5553,-81.7483 366.1124,-75.5011 355.5272,-75.0485 357.5553,-81.7483"/>
</g>
<!-- Node132&#45;&gt;Node102 -->
<g id="edge51" class="edge">
<title>Node132&#45;&gt;Node102</title>
<path fill="none" stroke="#191970" d="M1501.3898,-112.2455C1512.4254,-103.8943 1528.5292,-91.7076 1541.4353,-81.9408"/>
<polygon fill="#191970" stroke="#191970" points="1543.8959,-84.4681 1549.7579,-75.6427 1539.6717,-78.8862 1543.8959,-84.4681"/>
</g>
<!-- Node132&#45;&gt;Node103 -->
<g id="edge52" class="edge">
<title>Node132&#45;&gt;Node103</title>
<path fill="none" stroke="#191970" d="M1519.4431,-112.3733C1549.5039,-103.021 1595.3026,-88.7725 1628.1978,-78.5385"/>
<polygon fill="#191970" stroke="#191970" points="1629.4519,-81.8139 1637.9607,-75.5011 1627.3723,-75.1299 1629.4519,-81.8139"/>
</g>
<!-- Node132&#45;&gt;Node24 -->
<g id="edge50" class="edge">
<title>Node132&#45;&gt;Node24</title>
<path fill="none" stroke="#191970" d="M1487.0489,-112.2618C1484.3456,-97.7025 1477.1225,-70.4328 1459.5,-56 1433.7159,-34.8828 1341.7025,-20.8419 1288.416,-14.2815"/>
<polygon fill="#191970" stroke="#191970" points="1288.6517,-10.7848 1278.3061,-13.0693 1287.8183,-17.735 1288.6517,-10.7848"/>
</g>
<!-- Node5&#45;&gt;Node6 -->
<g id="edge54" class="edge">
<title>Node5&#45;&gt;Node6</title>
<path fill="none" stroke="#191970" d="M2006.7127,-114.0739C2009.6702,-113.3333 2012.64,-112.6266 2015.5,-112 2106.1705,-92.1335 2132.3929,-93.4838 2227.3755,-76.1503"/>
<polygon fill="#191970" stroke="#191970" points="2228.2124,-79.555 2237.4103,-74.2967 2226.9409,-72.6715 2228.2124,-79.555"/>
</g>
<!-- Node133&#45;&gt;Node135 -->
<g id="edge57" class="edge">
<title>Node133&#45;&gt;Node135</title>
<path fill="none" stroke="#191970" d="M1240.2555,-112.2455C1224.9239,-103.5731 1202.2801,-90.7645 1184.7084,-80.825"/>
<polygon fill="#191970" stroke="#191970" points="1185.9741,-77.5198 1175.5469,-75.6427 1182.5276,-83.6126 1185.9741,-77.5198"/>
</g>
<!-- Node135&#45;&gt;Node24 -->
<g id="edge58" class="edge">
<title>Node135&#45;&gt;Node24</title>
<path fill="none" stroke="#191970" d="M1174.351,-56.2455C1188.3132,-47.6534 1208.8728,-35.0014 1224.9596,-25.1018"/>
<polygon fill="#191970" stroke="#191970" points="1227.1484,-27.8645 1233.8307,-19.6427 1223.4797,-21.9029 1227.1484,-27.8645"/>
</g>
<!-- Node167&#45;&gt;Node24 -->
<g id="edge62" class="edge">
<title>Node167&#45;&gt;Node24</title>
<path fill="none" stroke="#191970" d="M1249.5,-56.2455C1249.5,-48.9382 1249.5,-38.6944 1249.5,-29.7046"/>
<polygon fill="#191970" stroke="#191970" points="1253.0001,-29.6426 1249.5,-19.6427 1246.0001,-29.6427 1253.0001,-29.6426"/>
</g>
<!-- Node188&#45;&gt;Node24 -->
<g id="edge65" class="edge">
<title>Node188&#45;&gt;Node24</title>
<path fill="none" stroke="#191970" d="M1324.649,-56.2455C1310.6868,-47.6534 1290.1272,-35.0014 1274.0404,-25.1018"/>
<polygon fill="#191970" stroke="#191970" points="1275.5203,-21.9029 1265.1693,-19.6427 1271.8516,-27.8645 1275.5203,-21.9029"/>
</g>
<!-- Node189&#45;&gt;Node2 -->
<g id="edge67" class="edge">
<title>Node189&#45;&gt;Node2</title>
<path fill="none" stroke="#191970" d="M444.5714,-112.2455C436.3162,-104.1352 424.3791,-92.4075 414.5918,-82.7919"/>
<polygon fill="#191970" stroke="#191970" points="416.9011,-80.1542 407.3149,-75.6427 411.9954,-85.1476 416.9011,-80.1542"/>
</g>
<!-- Node189&#45;&gt;Node96 -->
<g id="edge68" class="edge">
<title>Node189&#45;&gt;Node96</title>
<path fill="none" stroke="#191970" d="M474.2692,-112.3733C492.6469,-103.4241 520.2312,-89.9917 540.9893,-79.8835"/>
<polygon fill="#191970" stroke="#191970" points="542.5304,-83.026 549.9888,-75.5011 539.4657,-76.7325 542.5304,-83.026"/>
</g>
<!-- Node190&#45;&gt;Node2 -->
<g id="edge70" class="edge">
<title>Node190&#45;&gt;Node2</title>
<path fill="none" stroke="#191970" d="M343.8221,-112.2455C353.4223,-103.9746 367.3892,-91.9416 378.6695,-82.2232"/>
<polygon fill="#191970" stroke="#191970" points="381.016,-84.8214 386.3076,-75.6427 376.447,-79.5182 381.016,-84.8214"/>
</g>
<!-- Node190&#45;&gt;Node96 -->
<g id="edge71" class="edge">
<title>Node190&#45;&gt;Node96</title>
<path fill="none" stroke="#191970" d="M372.9725,-112.4369C418.1362,-101.7653 490.5211,-84.6617 533.6968,-74.4598"/>
<polygon fill="#191970" stroke="#191970" points="534.5615,-77.852 543.4886,-72.1461 532.9517,-71.0396 534.5615,-77.852"/>
</g>
<!-- Node199&#45;&gt;Node24 -->
<g id="edge82" class="edge">
<title>Node199&#45;&gt;Node24</title>
<path fill="none" stroke="#191970" d="M1394.3195,-56.878C1365.3386,-47.4969 1320.0093,-32.8238 1287.7904,-22.3946"/>
<polygon fill="#191970" stroke="#191970" points="1288.8368,-19.0546 1278.2449,-19.3047 1286.681,-25.7143 1288.8368,-19.0546"/>
</g>
</g>
</svg>
