<?xml version="1.0" encoding="UTF-8" standalone="no"?>
<!DOCTYPE svg PUBLIC "-//W3C//DTD SVG 1.1//EN"
 "http://www.w3.org/Graphics/SVG/1.1/DTD/svg11.dtd">
<!-- Generated by graphviz version 2.40.1 (20161225.0304)
 -->
<!-- Title: getblock Pages: 1 -->
<svg width="683pt" height="978pt"
 viewBox="0.00 0.00 683.00 978.00" xmlns="http://www.w3.org/2000/svg" xmlns:xlink="http://www.w3.org/1999/xlink">
<g id="graph0" class="graph" transform="scale(1 1) rotate(0) translate(4 974)">
<title>getblock</title>
<polygon fill="#ffffff" stroke="transparent" points="-4,4 -4,-974 679,-974 679,4 -4,4"/>
<!-- Node35 -->
<g id="node1" class="node">
<title>Node35</title>
<polygon fill="#bfbfbf" stroke="#000000" points="0,-741.5 0,-760.5 53,-760.5 53,-741.5 0,-741.5"/>
<text text-anchor="middle" x="26.5" y="-748.5" font-family="Helvetica,sans-Serif" font-size="10.00" fill="#000000">getblock</text>
</g>
<!-- Node36 -->
<g id="node2" class="node">
<title>Node36</title>
<g id="a_node2"><a xlink:href="class_uni_value.html#a5a7394aeb8d5584db7a90c2c041726b1" target="_top" xlink:title="UniValue::size">
<polygon fill="#ffffff" stroke="#000000" points="102.5,-950.5 102.5,-969.5 182.5,-969.5 182.5,-950.5 102.5,-950.5"/>
<text text-anchor="middle" x="142.5" y="-957.5" font-family="Helvetica,sans-Serif" font-size="10.00" fill="#000000">UniValue::size</text>
</a>
</g>
</g>
<!-- Node35&#45;&gt;Node36 -->
<g id="edge1" class="edge">
<title>Node35&#45;&gt;Node36</title>
<path fill="none" stroke="#191970" d="M26.8231,-760.8025C28.3702,-791.6931 37.3162,-888.0899 89,-941 90.4205,-942.4542 91.9594,-943.7975 93.5884,-945.0382"/>
<polygon fill="#191970" stroke="#191970" points="92.001,-948.1707 102.353,-950.4261 95.6669,-942.2074 92.001,-948.1707"/>
</g>
<!-- Node37 -->
<g id="node3" class="node">
<title>Node37</title>
<g id="a_node3"><a xlink:href="server_8cpp.html#a26bafe3d526ee8cbc84b3c0b0dc3a43b" target="_top" xlink:title="HelpExampleCli">
<polygon fill="#ffffff" stroke="#000000" points="99,-912.5 99,-931.5 186,-931.5 186,-912.5 99,-912.5"/>
<text text-anchor="middle" x="142.5" y="-919.5" font-family="Helvetica,sans-Serif" font-size="10.00" fill="#000000">HelpExampleCli</text>
</a>
</g>
</g>
<!-- Node35&#45;&gt;Node37 -->
<g id="edge2" class="edge">
<title>Node35&#45;&gt;Node37</title>
<path fill="none" stroke="#191970" d="M27.735,-760.7108C31.6235,-787.3084 46.022,-862.0724 89,-903 90.6528,-904.574 92.4444,-906.0187 94.3361,-907.3446"/>
<polygon fill="#191970" stroke="#191970" points="92.7403,-910.4646 103.1512,-912.4299 96.2382,-904.4012 92.7403,-910.4646"/>
</g>
<!-- Node38 -->
<g id="node4" class="node">
<title>Node38</title>
<g id="a_node4"><a xlink:href="server_8cpp.html#a9ef4f8fb114508ceb861a0e8c3e0d26e" target="_top" xlink:title="HelpExampleRpc">
<polygon fill="#ffffff" stroke="#000000" points="96,-874.5 96,-893.5 189,-893.5 189,-874.5 96,-874.5"/>
<text text-anchor="middle" x="142.5" y="-881.5" font-family="Helvetica,sans-Serif" font-size="10.00" fill="#000000">HelpExampleRpc</text>
</a>
</g>
</g>
<!-- Node35&#45;&gt;Node38 -->
<g id="edge3" class="edge">
<title>Node35&#45;&gt;Node38</title>
<path fill="none" stroke="#191970" d="M29.2294,-760.7778C35.815,-782.6174 54.6274,-835.7371 89,-865 90.9701,-866.6772 93.0987,-868.2103 95.3325,-869.611"/>
<polygon fill="#191970" stroke="#191970" points="93.8815,-872.8029 104.3578,-874.3835 97.1538,-866.6148 93.8815,-872.8029"/>
</g>
<!-- Node39 -->
<g id="node5" class="node">
<title>Node39</title>
<g id="a_node5"><a xlink:href="class_uni_value.html#a087ea6ccec615333371fa1aaf83ab7df" target="_top" xlink:title="UniValue::get_str">
<polygon fill="#ffffff" stroke="#000000" points="96.5,-836.5 96.5,-855.5 188.5,-855.5 188.5,-836.5 96.5,-836.5"/>
<text text-anchor="middle" x="142.5" y="-843.5" font-family="Helvetica,sans-Serif" font-size="10.00" fill="#000000">UniValue::get_str</text>
</a>
</g>
</g>
<!-- Node35&#45;&gt;Node39 -->
<g id="edge4" class="edge">
<title>Node35&#45;&gt;Node39</title>
<path fill="none" stroke="#191970" d="M31.9748,-760.588C41.555,-776.5556 62.851,-808.6497 89,-827 91.7028,-828.8967 94.6144,-830.6224 97.6338,-832.1893"/>
<polygon fill="#191970" stroke="#191970" points="96.3643,-835.4572 106.9147,-836.4261 99.2713,-829.0893 96.3643,-835.4572"/>
</g>
<!-- Node41 -->
<g id="node7" class="node">
<title>Node41</title>
<g id="a_node7"><a xlink:href="uint256_8h.html#a52e679560cc1ebf68f878ed69e38f259" target="_top" xlink:title="uint256S">
<polygon fill="#ffffff" stroke="#000000" points="115,-760.5 115,-779.5 170,-779.5 170,-760.5 115,-760.5"/>
<text text-anchor="middle" x="142.5" y="-767.5" font-family="Helvetica,sans-Serif" font-size="10.00" fill="#000000">uint256S</text>
</a>
</g>
</g>
<!-- Node35&#45;&gt;Node41 -->
<g id="edge6" class="edge">
<title>Node35&#45;&gt;Node41</title>
<path fill="none" stroke="#191970" d="M53.1127,-755.359C68.4011,-757.8631 87.853,-761.0492 104.7044,-763.8093"/>
<polygon fill="#191970" stroke="#191970" points="104.3661,-767.3005 114.8003,-765.463 105.4976,-760.3925 104.3661,-767.3005"/>
</g>
<!-- Node43 -->
<g id="node9" class="node">
<title>Node43</title>
<g id="a_node9"><a xlink:href="class_uni_value.html#a3661be0f5580daceb23e5338e3a0df22" target="_top" xlink:title="UniValue::isNull">
<polygon fill="#ffffff" stroke="#000000" points="99,-722.5 99,-741.5 186,-741.5 186,-722.5 99,-722.5"/>
<text text-anchor="middle" x="142.5" y="-729.5" font-family="Helvetica,sans-Serif" font-size="10.00" fill="#000000">UniValue::isNull</text>
</a>
</g>
</g>
<!-- Node35&#45;&gt;Node43 -->
<g id="edge8" class="edge">
<title>Node35&#45;&gt;Node43</title>
<path fill="none" stroke="#191970" d="M53.1127,-746.641C63.6687,-744.912 76.2095,-742.8579 88.5088,-740.8434"/>
<polygon fill="#191970" stroke="#191970" points="89.4318,-744.2389 98.7345,-739.1685 88.3002,-737.331 89.4318,-744.2389"/>
</g>
<!-- Node44 -->
<g id="node10" class="node">
<title>Node44</title>
<g id="a_node10"><a xlink:href="class_uni_value.html#ac5271a9bb4ece86f00052bb5603eaa78" target="_top" xlink:title="UniValue::isNum">
<polygon fill="#ffffff" stroke="#000000" points="97,-684.5 97,-703.5 188,-703.5 188,-684.5 97,-684.5"/>
<text text-anchor="middle" x="142.5" y="-691.5" font-family="Helvetica,sans-Serif" font-size="10.00" fill="#000000">UniValue::isNum</text>
</a>
</g>
</g>
<!-- Node35&#45;&gt;Node44 -->
<g id="edge9" class="edge">
<title>Node35&#45;&gt;Node44</title>
<path fill="none" stroke="#191970" d="M40.4327,-741.3843C52.8023,-733.1299 71.5673,-721.2873 89,-713 93.3341,-710.9396 97.9547,-708.9757 102.5962,-707.1461"/>
<polygon fill="#191970" stroke="#191970" points="103.935,-710.3821 112.0675,-703.5913 101.4753,-703.8285 103.935,-710.3821"/>
</g>
<!-- Node45 -->
<g id="node11" class="node">
<title>Node45</title>
<g id="a_node11"><a xlink:href="class_uni_value.html#af45edc6e67eaa6d1f271ce18e435a376" target="_top" xlink:title="UniValue::get_int">
<polygon fill="#ffffff" stroke="#000000" points="96.5,-798.5 96.5,-817.5 188.5,-817.5 188.5,-798.5 96.5,-798.5"/>
<text text-anchor="middle" x="142.5" y="-805.5" font-family="Helvetica,sans-Serif" font-size="10.00" fill="#000000">UniValue::get_int</text>
</a>
</g>
</g>
<!-- Node35&#45;&gt;Node45 -->
<g id="edge10" class="edge">
<title>Node35&#45;&gt;Node45</title>
<path fill="none" stroke="#191970" d="M40.4327,-760.6157C52.8023,-768.8701 71.5673,-780.7127 89,-789 93.3341,-791.0604 97.9547,-793.0243 102.5962,-794.8539"/>
<polygon fill="#191970" stroke="#191970" points="101.4753,-798.1715 112.0675,-798.4087 103.935,-791.6179 101.4753,-798.1715"/>
</g>
<!-- Node47 -->
<g id="node13" class="node">
<title>Node47</title>
<g id="a_node13"><a xlink:href="class_uni_value.html#ae8a27d40aa1b1322ea95ff4fb2dec2b1" target="_top" xlink:title="UniValue::get_bool">
<polygon fill="#ffffff" stroke="#000000" points="93,-646.5 93,-665.5 192,-665.5 192,-646.5 93,-646.5"/>
<text text-anchor="middle" x="142.5" y="-653.5" font-family="Helvetica,sans-Serif" font-size="10.00" fill="#000000">UniValue::get_bool</text>
</a>
</g>
</g>
<!-- Node35&#45;&gt;Node47 -->
<g id="edge13" class="edge">
<title>Node35&#45;&gt;Node47</title>
<path fill="none" stroke="#191970" d="M31.9748,-741.412C41.555,-725.4444 62.851,-693.3503 89,-675 91.7028,-673.1033 94.6144,-671.3776 97.6338,-669.8107"/>
<polygon fill="#191970" stroke="#191970" points="99.2713,-672.9107 106.9147,-665.5739 96.3643,-666.5428 99.2713,-672.9107"/>
</g>
<!-- Node53 -->
<g id="node19" class="node">
<title>Node53</title>
<g id="a_node19"><a xlink:href="rpc_2protocol_8cpp.html#a40b75d3d265c4a2e1d5fe3e129743884" target="_top" xlink:title="JSONRPCError">
<polygon fill="#ffffff" stroke="#000000" points="99.5,-399.5 99.5,-418.5 185.5,-418.5 185.5,-399.5 99.5,-399.5"/>
<text text-anchor="middle" x="142.5" y="-406.5" font-family="Helvetica,sans-Serif" font-size="10.00" fill="#000000">JSONRPCError</text>
</a>
</g>
</g>
<!-- Node35&#45;&gt;Node53 -->
<g id="edge19" class="edge">
<title>Node35&#45;&gt;Node53</title>
<path fill="none" stroke="#191970" d="M29.7236,-741.496C45.4622,-695.0942 114.3465,-492.0044 135.9769,-428.232"/>
<polygon fill="#191970" stroke="#191970" points="139.3394,-429.2145 139.237,-418.6201 132.7103,-426.966 139.3394,-429.2145"/>
</g>
<!-- Node85 -->
<g id="node45" class="node">
<title>Node85</title>
<g id="a_node45"><a xlink:href="validation_8cpp.html#a578c1df234b05798180f0235d469a5ba" target="_top" xlink:title="Functions for disk access for blocks. ">
<polygon fill="#ffffff" stroke="#000000" points="89,-342.5 89,-361.5 196,-361.5 196,-342.5 89,-342.5"/>
<text text-anchor="middle" x="142.5" y="-349.5" font-family="Helvetica,sans-Serif" font-size="10.00" fill="#000000">ReadBlockFromDisk</text>
</a>
</g>
</g>
<!-- Node35&#45;&gt;Node85 -->
<g id="edge48" class="edge">
<title>Node35&#45;&gt;Node85</title>
<path fill="none" stroke="#191970" d="M27.1921,-741.1905C30.9675,-689.7692 50.341,-451.3457 89,-390 94.9378,-380.5776 104.1422,-372.8102 113.2525,-366.8078"/>
<polygon fill="#191970" stroke="#191970" points="115.1112,-369.7739 121.8486,-361.5973 111.4827,-363.7878 115.1112,-369.7739"/>
</g>
<!-- Node90 -->
<g id="node50" class="node">
<title>Node90</title>
<g id="a_node50"><a xlink:href="chainparams_8cpp.html#ace5c5b706d71a324a417dd2db394fd4a" target="_top" xlink:title="Return the currently selected parameters. ">
<polygon fill="#ffffff" stroke="#000000" points="117.5,-304.5 117.5,-323.5 167.5,-323.5 167.5,-304.5 117.5,-304.5"/>
<text text-anchor="middle" x="142.5" y="-311.5" font-family="Helvetica,sans-Serif" font-size="10.00" fill="#000000">Params</text>
</a>
</g>
</g>
<!-- Node35&#45;&gt;Node90 -->
<g id="edge53" class="edge">
<title>Node35&#45;&gt;Node90</title>
<path fill="none" stroke="#191970" d="M26.6365,-741.327C27.6204,-684.8781 35.2368,-398.2758 89,-333 93.8251,-327.1417 100.5877,-323.0886 107.6858,-320.2848"/>
<polygon fill="#191970" stroke="#191970" points="108.9563,-323.5534 117.4224,-317.1835 106.8318,-316.8836 108.9563,-323.5534"/>
</g>
<!-- Node40 -->
<g id="node6" class="node">
<title>Node40</title>
<g id="a_node6"><a xlink:href="class_uni_value.html#a4c9a5fa9114affbf31f6e346c032be12" target="_top" xlink:title="UniValue::getValStr">
<polygon fill="#ffffff" stroke="#000000" points="235.5,-836.5 235.5,-855.5 338.5,-855.5 338.5,-836.5 235.5,-836.5"/>
<text text-anchor="middle" x="287" y="-843.5" font-family="Helvetica,sans-Serif" font-size="10.00" fill="#000000">UniValue::getValStr</text>
</a>
</g>
</g>
<!-- Node39&#45;&gt;Node40 -->
<g id="edge5" class="edge">
<title>Node39&#45;&gt;Node40</title>
<path fill="none" stroke="#191970" d="M188.618,-846C200.233,-846 212.8893,-846 225.1388,-846"/>
<polygon fill="#191970" stroke="#191970" points="225.3009,-849.5001 235.3009,-846 225.3008,-842.5001 225.3009,-849.5001"/>
</g>
<!-- Node42 -->
<g id="node8" class="node">
<title>Node42</title>
<g id="a_node8"><a xlink:href="classbase__blob.html#a5ec1f681a2830f4e180fe664c0eb4dd0" target="_top" xlink:title="base_blob::SetHex">
<polygon fill="#ffffff" stroke="#000000" points="237,-760.5 237,-779.5 337,-779.5 337,-760.5 237,-760.5"/>
<text text-anchor="middle" x="287" y="-767.5" font-family="Helvetica,sans-Serif" font-size="10.00" fill="#000000">base_blob::SetHex</text>
</a>
</g>
</g>
<!-- Node41&#45;&gt;Node42 -->
<g id="edge7" class="edge">
<title>Node41&#45;&gt;Node42</title>
<path fill="none" stroke="#191970" d="M170.0195,-770C186.0575,-770 206.9436,-770 226.6217,-770"/>
<polygon fill="#191970" stroke="#191970" points="226.7699,-773.5001 236.7699,-770 226.7698,-766.5001 226.7699,-773.5001"/>
</g>
<!-- Node45&#45;&gt;Node40 -->
<g id="edge12" class="edge">
<title>Node45&#45;&gt;Node40</title>
<path fill="none" stroke="#191970" d="M178.9635,-817.589C197.7741,-822.5358 220.9146,-828.6211 240.9472,-833.8892"/>
<polygon fill="#191970" stroke="#191970" points="240.2374,-837.3215 250.7988,-836.4799 242.0177,-830.5517 240.2374,-837.3215"/>
</g>
<!-- Node46 -->
<g id="node12" class="node">
<title>Node46</title>
<g id="a_node12"><a xlink:href="utilstrencodings_8cpp.html#a880a215d9e931432b095084c756a49bb" target="_top" xlink:title="Convert string to signed 32&#45;bit integer with strict parse error feedback. ">
<polygon fill="#ffffff" stroke="#000000" points="255,-798.5 255,-817.5 319,-817.5 319,-798.5 255,-798.5"/>
<text text-anchor="middle" x="287" y="-805.5" font-family="Helvetica,sans-Serif" font-size="10.00" fill="#000000">ParseInt32</text>
</a>
</g>
</g>
<!-- Node45&#45;&gt;Node46 -->
<g id="edge11" class="edge">
<title>Node45&#45;&gt;Node46</title>
<path fill="none" stroke="#191970" d="M188.618,-808C206.4019,-808 226.6269,-808 244.095,-808"/>
<polygon fill="#191970" stroke="#191970" points="244.5686,-811.5001 254.5686,-808 244.5685,-804.5001 244.5686,-811.5001"/>
</g>
<!-- Node48 -->
<g id="node14" class="node">
<title>Node48</title>
<g id="a_node14"><a xlink:href="class_uni_value.html#acb5c848d20cb741dbe65e28bc513baa8" target="_top" xlink:title="UniValue::getBool">
<polygon fill="#ffffff" stroke="#000000" points="239.5,-722.5 239.5,-741.5 334.5,-741.5 334.5,-722.5 239.5,-722.5"/>
<text text-anchor="middle" x="287" y="-729.5" font-family="Helvetica,sans-Serif" font-size="10.00" fill="#000000">UniValue::getBool</text>
</a>
</g>
</g>
<!-- Node47&#45;&gt;Node48 -->
<g id="edge14" class="edge">
<title>Node47&#45;&gt;Node48</title>
<path fill="none" stroke="#191970" d="M172.9648,-665.5241C180.6197,-668.2675 188.7237,-671.4814 196,-675 220.7244,-686.9559 247.1286,-704.0278 265.0913,-716.368"/>
<polygon fill="#191970" stroke="#191970" points="263.4555,-719.494 273.6616,-722.3377 267.4565,-713.75 263.4555,-719.494"/>
</g>
<!-- Node49 -->
<g id="node15" class="node">
<title>Node49</title>
<g id="a_node15"><a xlink:href="class_uni_value.html#a1491167609f899d0c7773749b5047969" target="_top" xlink:title="UniValue::isTrue">
<polygon fill="#ffffff" stroke="#000000" points="395.5,-722.5 395.5,-741.5 484.5,-741.5 484.5,-722.5 395.5,-722.5"/>
<text text-anchor="middle" x="440" y="-729.5" font-family="Helvetica,sans-Serif" font-size="10.00" fill="#000000">UniValue::isTrue</text>
</a>
</g>
</g>
<!-- Node48&#45;&gt;Node49 -->
<g id="edge15" class="edge">
<title>Node48&#45;&gt;Node49</title>
<path fill="none" stroke="#191970" d="M334.5715,-732C350.6259,-732 368.6738,-732 385.2387,-732"/>
<polygon fill="#191970" stroke="#191970" points="385.33,-735.5001 395.3299,-732 385.3299,-728.5001 385.33,-735.5001"/>
</g>
<!-- Node50 -->
<g id="node16" class="node">
<title>Node50</title>
<g id="a_node16"><a xlink:href="class_uni_value.html#ad89a12ad112b2d9a55ec1b27a6b77046" target="_top" xlink:title="UniValue::getObjMap">
<polygon fill="#ffffff" stroke="#000000" points="385,-836.5 385,-855.5 495,-855.5 495,-836.5 385,-836.5"/>
<text text-anchor="middle" x="440" y="-843.5" font-family="Helvetica,sans-Serif" font-size="10.00" fill="#000000">UniValue::getObjMap</text>
</a>
</g>
</g>
<!-- Node48&#45;&gt;Node50 -->
<g id="edge16" class="edge">
<title>Node48&#45;&gt;Node50</title>
<path fill="none" stroke="#191970" d="M327.2592,-741.6284C332.6054,-744.0845 337.711,-747.1577 342,-751 369.8384,-775.9392 349.7264,-802.5554 378,-827 379.9747,-828.7073 382.1004,-830.2612 384.3334,-831.6755"/>
<polygon fill="#191970" stroke="#191970" points="382.9109,-834.8825 393.3865,-836.4674 386.1857,-828.6958 382.9109,-834.8825"/>
</g>
<!-- Node51 -->
<g id="node17" class="node">
<title>Node51</title>
<g id="a_node17"><a xlink:href="class_uni_value.html#a0cb48f1dc383f4c12f71ada714ea3f68" target="_top" xlink:title="UniValue::checkObject">
<polygon fill="#ffffff" stroke="#000000" points="381.5,-798.5 381.5,-817.5 498.5,-817.5 498.5,-798.5 381.5,-798.5"/>
<text text-anchor="middle" x="440" y="-805.5" font-family="Helvetica,sans-Serif" font-size="10.00" fill="#000000">UniValue::checkObject</text>
</a>
</g>
</g>
<!-- Node48&#45;&gt;Node51 -->
<g id="edge17" class="edge">
<title>Node48&#45;&gt;Node51</title>
<path fill="none" stroke="#191970" d="M322.7882,-741.5582C329.4447,-744.1027 336.1409,-747.2237 342,-751 361.5547,-763.6035 358.2262,-776.7431 378,-789 381.4014,-791.1084 385.0536,-792.9976 388.8214,-794.6878"/>
<polygon fill="#191970" stroke="#191970" points="387.7631,-798.0339 398.3481,-798.491 390.3585,-791.5328 387.7631,-798.0339"/>
</g>
<!-- Node52 -->
<g id="node18" class="node">
<title>Node52</title>
<g id="a_node18"><a xlink:href="class_uni_value.html#a998b72bd7f758e01416e1b53eaa6d94c" target="_top" xlink:title="UniValue::operator[]">
<polygon fill="#ffffff" stroke="#000000" points="388,-760.5 388,-779.5 492,-779.5 492,-760.5 388,-760.5"/>
<text text-anchor="middle" x="440" y="-767.5" font-family="Helvetica,sans-Serif" font-size="10.00" fill="#000000">UniValue::operator[]</text>
</a>
</g>
</g>
<!-- Node48&#45;&gt;Node52 -->
<g id="edge18" class="edge">
<title>Node48&#45;&gt;Node52</title>
<path fill="none" stroke="#191970" d="M325.6084,-741.589C345.7074,-746.5809 370.4751,-752.7324 391.8185,-758.0334"/>
<polygon fill="#191970" stroke="#191970" points="391.1204,-761.4662 401.6693,-760.4799 392.8078,-754.6726 391.1204,-761.4662"/>
</g>
<!-- Node54 -->
<g id="node20" class="node">
<title>Node54</title>
<g id="a_node20"><a xlink:href="util_8h.html#a96c5fc7111f69f7dcaba992d95d13e03" target="_top" xlink:title="error">
<polygon fill="#ffffff" stroke="#000000" points="269,-399.5 269,-418.5 305,-418.5 305,-399.5 269,-399.5"/>
<text text-anchor="middle" x="287" y="-406.5" font-family="Helvetica,sans-Serif" font-size="10.00" fill="#000000">error</text>
</a>
</g>
</g>
<!-- Node53&#45;&gt;Node54 -->
<g id="edge20" class="edge">
<title>Node53&#45;&gt;Node54</title>
<path fill="none" stroke="#191970" d="M185.8548,-409C209.4992,-409 238.0868,-409 258.8292,-409"/>
<polygon fill="#191970" stroke="#191970" points="258.8932,-412.5001 268.8932,-409 258.8932,-405.5001 258.8932,-412.5001"/>
</g>
<!-- Node84 -->
<g id="node44" class="node">
<title>Node84</title>
<g id="a_node44"><a xlink:href="class_uni_value.html#a944cd1b59b040cd24c9f46b55a68d49a" target="_top" xlink:title="UniValue::push_back">
<polygon fill="#ffffff" stroke="#000000" points="232,-361.5 232,-380.5 342,-380.5 342,-361.5 232,-361.5"/>
<text text-anchor="middle" x="287" y="-368.5" font-family="Helvetica,sans-Serif" font-size="10.00" fill="#000000">UniValue::push_back</text>
</a>
</g>
</g>
<!-- Node53&#45;&gt;Node84 -->
<g id="edge47" class="edge">
<title>Node53&#45;&gt;Node84</title>
<path fill="none" stroke="#191970" d="M178.9635,-399.411C197.7741,-394.4642 220.9146,-388.3789 240.9472,-383.1108"/>
<polygon fill="#191970" stroke="#191970" points="242.0177,-386.4483 250.7988,-380.5201 240.2374,-379.6785 242.0177,-386.4483"/>
</g>
<!-- Node55 -->
<g id="node21" class="node">
<title>Node55</title>
<g id="a_node21"><a xlink:href="util_8h.html#afd4c3002b2797c0560adddb6af3ca1da" target="_top" xlink:title="Send a string to the log output. ">
<polygon fill="#ffffff" stroke="#000000" points="407.5,-494.5 407.5,-513.5 472.5,-513.5 472.5,-494.5 407.5,-494.5"/>
<text text-anchor="middle" x="440" y="-501.5" font-family="Helvetica,sans-Serif" font-size="10.00" fill="#000000">LogPrintStr</text>
</a>
</g>
</g>
<!-- Node54&#45;&gt;Node55 -->
<g id="edge21" class="edge">
<title>Node54&#45;&gt;Node55</title>
<path fill="none" stroke="#191970" d="M295.8934,-418.5905C311.2007,-434.5619 344.1578,-466.6614 378,-485 384.1183,-488.3154 390.8966,-491.1375 397.6596,-493.5112"/>
<polygon fill="#191970" stroke="#191970" points="396.8869,-496.9393 407.4784,-496.6733 399.0327,-490.2763 396.8869,-496.9393"/>
</g>
<!-- Node56 -->
<g id="node22" class="node">
<title>Node56</title>
<g id="a_node22"><a xlink:href="namespacetinyformat.html#a05144619d8b16e2b31b2594ca9c6bf1d" target="_top" xlink:title="Format list of arguments to the stream according to given format string. ">
<polygon fill="#ffffff" stroke="#000000" points="393,-38.5 393,-57.5 487,-57.5 487,-38.5 393,-38.5"/>
<text text-anchor="middle" x="440" y="-45.5" font-family="Helvetica,sans-Serif" font-size="10.00" fill="#000000">tinyformat::format</text>
</a>
</g>
</g>
<!-- Node54&#45;&gt;Node56 -->
<g id="edge22" class="edge">
<title>Node54&#45;&gt;Node56</title>
<path fill="none" stroke="#191970" d="M305.203,-407.6356C317.5457,-405.6922 333.1665,-401.0454 342,-390 432.2163,-277.1939 285.8093,-178.1984 378,-67 379.8861,-64.725 382.0374,-62.7167 384.3795,-60.9445"/>
<polygon fill="#191970" stroke="#191970" points="386.2006,-63.9335 392.9702,-55.7834 382.5957,-57.9331 386.2006,-63.9335"/>
</g>
<!-- Node65 -->
<g id="node25" class="node">
<title>Node65</title>
<g id="a_node25"><a xlink:href="util_8h.html#aaada8c5faa502eb0c33fc01294955db8" target="_top" xlink:title="PrintExceptionContinue">
<polygon fill="#ffffff" stroke="#000000" points="380.5,-418.5 380.5,-437.5 499.5,-437.5 499.5,-418.5 380.5,-418.5"/>
<text text-anchor="middle" x="440" y="-425.5" font-family="Helvetica,sans-Serif" font-size="10.00" fill="#000000">PrintExceptionContinue</text>
</a>
</g>
</g>
<!-- Node54&#45;&gt;Node65 -->
<g id="edge25" class="edge">
<title>Node54&#45;&gt;Node65</title>
<path fill="none" stroke="#191970" d="M305.1519,-411.2542C321.3592,-413.2668 346.169,-416.3478 370.1091,-419.3207"/>
<polygon fill="#191970" stroke="#191970" points="369.9331,-422.8257 380.2882,-420.5848 370.7958,-415.879 369.9331,-422.8257"/>
</g>
<!-- Node66 -->
<g id="node26" class="node">
<title>Node66</title>
<g id="a_node26"><a xlink:href="util_8h.html#af0e69a29ba128b74030ad8a213f2037a" target="_top" xlink:title="FileCommit">
<polygon fill="#ffffff" stroke="#000000" points="406.5,-380.5 406.5,-399.5 473.5,-399.5 473.5,-380.5 406.5,-380.5"/>
<text text-anchor="middle" x="440" y="-387.5" font-family="Helvetica,sans-Serif" font-size="10.00" fill="#000000">FileCommit</text>
</a>
</g>
</g>
<!-- Node54&#45;&gt;Node66 -->
<g id="edge26" class="edge">
<title>Node54&#45;&gt;Node66</title>
<path fill="none" stroke="#191970" d="M305.1519,-406.7458C327.3856,-403.9848 365.8086,-399.2133 395.9665,-395.4682"/>
<polygon fill="#191970" stroke="#191970" points="396.7565,-398.8971 406.2489,-394.1913 395.8938,-391.9504 396.7565,-398.8971"/>
</g>
<!-- Node67 -->
<g id="node27" class="node">
<title>Node67</title>
<g id="a_node27"><a xlink:href="util_8h.html#acb8d6b822bc1bfa609bf43bbac1a0d44" target="_top" xlink:title="TruncateFile">
<polygon fill="#ffffff" stroke="#000000" points="404.5,-342.5 404.5,-361.5 475.5,-361.5 475.5,-342.5 404.5,-342.5"/>
<text text-anchor="middle" x="440" y="-349.5" font-family="Helvetica,sans-Serif" font-size="10.00" fill="#000000">TruncateFile</text>
</a>
</g>
</g>
<!-- Node54&#45;&gt;Node67 -->
<g id="edge27" class="edge">
<title>Node54&#45;&gt;Node67</title>
<path fill="none" stroke="#191970" d="M305.0988,-403.5194C315.9561,-400.0423 329.9508,-395.2244 342,-390 358.5986,-382.8031 361.2771,-377.9032 378,-371 383.4665,-368.7434 389.3002,-366.6129 395.1202,-364.6517"/>
<polygon fill="#191970" stroke="#191970" points="396.3917,-367.9193 404.8347,-361.5187 394.2431,-361.2571 396.3917,-367.9193"/>
</g>
<!-- Node68 -->
<g id="node28" class="node">
<title>Node68</title>
<g id="a_node28"><a xlink:href="util_8h.html#a756a5c49a4bb607d16d9842f8f3ede4f" target="_top" xlink:title="this function tries to raise the file descriptor limit to the requested number. ">
<polygon fill="#ffffff" stroke="#000000" points="378,-304.5 378,-323.5 502,-323.5 502,-304.5 378,-304.5"/>
<text text-anchor="middle" x="440" y="-311.5" font-family="Helvetica,sans-Serif" font-size="10.00" fill="#000000">RaiseFileDescriptorLimit</text>
</a>
</g>
</g>
<!-- Node54&#45;&gt;Node68 -->
<g id="edge28" class="edge">
<title>Node54&#45;&gt;Node68</title>
<path fill="none" stroke="#191970" d="M305.0822,-405.955C316.6001,-403.2902 331.3106,-398.4696 342,-390 365.4847,-371.3923 354.191,-351.1909 378,-333 380.4699,-331.1129 383.1281,-329.4119 385.9054,-327.8787"/>
<polygon fill="#191970" stroke="#191970" points="387.553,-330.9713 395.0959,-323.5312 384.5596,-324.6436 387.553,-330.9713"/>
</g>
<!-- Node69 -->
<g id="node29" class="node">
<title>Node69</title>
<g id="a_node29"><a xlink:href="util_8h.html#a91c763bffc49cf7ed8d45cc44870e55c" target="_top" xlink:title="this function tries to make a particular range of a file allocated (corresponding to disk space) it i...">
<polygon fill="#ffffff" stroke="#000000" points="392,-266.5 392,-285.5 488,-285.5 488,-266.5 392,-266.5"/>
<text text-anchor="middle" x="440" y="-273.5" font-family="Helvetica,sans-Serif" font-size="10.00" fill="#000000">AllocateFileRange</text>
</a>
</g>
</g>
<!-- Node54&#45;&gt;Node69 -->
<g id="edge29" class="edge">
<title>Node54&#45;&gt;Node69</title>
<path fill="none" stroke="#191970" d="M305.1672,-406.7497C317.0164,-404.4041 332.0697,-399.6405 342,-390 374.3965,-358.5487 345.0542,-325.8753 378,-295 379.6686,-293.4363 381.4627,-292.0011 383.3519,-290.6839"/>
<polygon fill="#191970" stroke="#191970" points="385.2212,-293.6466 392.1501,-285.6315 381.7353,-287.5763 385.2212,-293.6466"/>
</g>
<!-- Node70 -->
<g id="node30" class="node">
<title>Node70</title>
<g id="a_node30"><a xlink:href="util_8h.html#a579657da2b55b131ecd453bf1b0d2314" target="_top" xlink:title="RenameOver">
<polygon fill="#ffffff" stroke="#000000" points="403,-228.5 403,-247.5 477,-247.5 477,-228.5 403,-228.5"/>
<text text-anchor="middle" x="440" y="-235.5" font-family="Helvetica,sans-Serif" font-size="10.00" fill="#000000">RenameOver</text>
</a>
</g>
</g>
<!-- Node54&#45;&gt;Node70 -->
<g id="edge30" class="edge">
<title>Node54&#45;&gt;Node70</title>
<path fill="none" stroke="#191970" d="M305.2187,-407.1052C317.2454,-404.9138 332.4843,-400.1886 342,-390 383.7988,-345.2453 335.4189,-301.011 378,-257 382.2626,-252.5942 387.517,-249.2031 393.1484,-246.5943"/>
<polygon fill="#191970" stroke="#191970" points="394.767,-249.7236 402.873,-242.9014 392.2819,-243.1796 394.767,-249.7236"/>
</g>
<!-- Node71 -->
<g id="node31" class="node">
<title>Node71</title>
<g id="a_node31"><a xlink:href="util_8h.html#a9042a919d837da9d97311a0c460c597c" target="_top" xlink:title="Ignores exceptions thrown by Boost&#39;s create_directories if the requested directory exists...">
<polygon fill="#ffffff" stroke="#000000" points="386.5,-190.5 386.5,-209.5 493.5,-209.5 493.5,-190.5 386.5,-190.5"/>
<text text-anchor="middle" x="440" y="-197.5" font-family="Helvetica,sans-Serif" font-size="10.00" fill="#000000">TryCreateDirectories</text>
</a>
</g>
</g>
<!-- Node54&#45;&gt;Node71 -->
<g id="edge31" class="edge">
<title>Node54&#45;&gt;Node71</title>
<path fill="none" stroke="#191970" d="M305.1429,-407.3205C317.2943,-405.2272 332.7109,-400.5307 342,-390 393.3771,-331.7558 325.6042,-276.3296 378,-219 379.2271,-217.6574 380.5462,-216.4086 381.9409,-215.2471"/>
<polygon fill="#191970" stroke="#191970" points="384.2228,-217.9345 390.6398,-209.5041 380.3661,-212.0928 384.2228,-217.9345"/>
</g>
<!-- Node72 -->
<g id="node32" class="node">
<title>Node72</title>
<g id="a_node32"><a xlink:href="util_8h.html#a15cb85964fe08c264605537f44570d3c" target="_top" xlink:title="GetDefaultDataDir">
<polygon fill="#ffffff" stroke="#000000" points="391,-152.5 391,-171.5 489,-171.5 489,-152.5 391,-152.5"/>
<text text-anchor="middle" x="440" y="-159.5" font-family="Helvetica,sans-Serif" font-size="10.00" fill="#000000">GetDefaultDataDir</text>
</a>
</g>
</g>
<!-- Node54&#45;&gt;Node72 -->
<g id="edge32" class="edge">
<title>Node54&#45;&gt;Node72</title>
<path fill="none" stroke="#191970" d="M305.0028,-407.4705C317.2511,-405.4494 332.8414,-400.7774 342,-390 403.0368,-318.1748 315.7067,-251.7382 378,-181 379.3393,-179.4792 380.7967,-178.0783 382.3491,-176.788"/>
<polygon fill="#191970" stroke="#191970" points="384.3759,-179.644 390.7946,-171.2148 380.5203,-173.8014 384.3759,-179.644"/>
</g>
<!-- Node73 -->
<g id="node33" class="node">
<title>Node73</title>
<g id="a_node33"><a xlink:href="util_8h.html#abb63dfb710832aefb746933af05198d4" target="_top" xlink:title="GetDataDir">
<polygon fill="#ffffff" stroke="#000000" points="407,-114.5 407,-133.5 473,-133.5 473,-114.5 407,-114.5"/>
<text text-anchor="middle" x="440" y="-121.5" font-family="Helvetica,sans-Serif" font-size="10.00" fill="#000000">GetDataDir</text>
</a>
</g>
</g>
<!-- Node54&#45;&gt;Node73 -->
<g id="edge33" class="edge">
<title>Node54&#45;&gt;Node73</title>
<path fill="none" stroke="#191970" d="M305.089,-407.5429C317.378,-405.5558 332.9815,-400.8948 342,-390 412.7402,-304.5425 305.7645,-227.1973 378,-143 382.9893,-137.1845 389.7082,-133.1183 396.8842,-130.2822"/>
<polygon fill="#191970" stroke="#191970" points="398.3586,-133.4866 406.8337,-127.1287 396.2435,-126.8138 398.3586,-133.4866"/>
</g>
<!-- Node74 -->
<g id="node34" class="node">
<title>Node74</title>
<g id="a_node34"><a xlink:href="util_8h.html#abfb50dfe077aced7591f2aba601f605d" target="_top" xlink:title="ClearDatadirCache">
<polygon fill="#ffffff" stroke="#000000" points="390,-76.5 390,-95.5 490,-95.5 490,-76.5 390,-76.5"/>
<text text-anchor="middle" x="440" y="-83.5" font-family="Helvetica,sans-Serif" font-size="10.00" fill="#000000">ClearDatadirCache</text>
</a>
</g>
</g>
<!-- Node54&#45;&gt;Node74 -->
<g id="edge34" class="edge">
<title>Node54&#45;&gt;Node74</title>
<path fill="none" stroke="#191970" d="M305.1533,-407.5956C317.4725,-405.6333 333.0858,-400.9804 342,-390 422.4698,-290.8786 295.7955,-202.6876 378,-105 379.0193,-103.7887 380.1138,-102.6531 381.272,-101.5886"/>
<polygon fill="#191970" stroke="#191970" points="383.6239,-104.2096 389.7215,-95.5453 379.5516,-98.516 383.6239,-104.2096"/>
</g>
<!-- Node75 -->
<g id="node35" class="node">
<title>Node75</title>
<g id="a_node35"><a xlink:href="util_8h.html#aa634f312705d4811dfa2a5392bddf6cf" target="_top" xlink:title="GetConfigFile">
<polygon fill="#ffffff" stroke="#000000" points="401.5,-646.5 401.5,-665.5 478.5,-665.5 478.5,-646.5 401.5,-646.5"/>
<text text-anchor="middle" x="440" y="-653.5" font-family="Helvetica,sans-Serif" font-size="10.00" fill="#000000">GetConfigFile</text>
</a>
</g>
</g>
<!-- Node54&#45;&gt;Node75 -->
<g id="edge35" class="edge">
<title>Node54&#45;&gt;Node75</title>
<path fill="none" stroke="#191970" d="M287.9555,-418.9005C291.8854,-454.0891 309.9658,-574.352 378,-637 382.0891,-640.7653 386.9072,-643.785 392.021,-646.2066"/>
<polygon fill="#191970" stroke="#191970" points="390.8658,-649.5137 401.4516,-649.9514 393.4492,-643.0078 390.8658,-649.5137"/>
</g>
<!-- Node77 -->
<g id="node37" class="node">
<title>Node77</title>
<g id="a_node37"><a xlink:href="util_8h.html#aa0172eabeecce5061826cb19990fbde2" target="_top" xlink:title="GetPidFile">
<polygon fill="#ffffff" stroke="#000000" points="409,-684.5 409,-703.5 471,-703.5 471,-684.5 409,-684.5"/>
<text text-anchor="middle" x="440" y="-691.5" font-family="Helvetica,sans-Serif" font-size="10.00" fill="#000000">GetPidFile</text>
</a>
</g>
</g>
<!-- Node54&#45;&gt;Node77 -->
<g id="edge37" class="edge">
<title>Node54&#45;&gt;Node77</title>
<path fill="none" stroke="#191970" d="M287.304,-418.608C289.0447,-456.8955 300.6822,-600.137 378,-675 383.9225,-680.7345 391.5297,-684.743 399.3732,-687.5436"/>
<polygon fill="#191970" stroke="#191970" points="398.3775,-690.8989 408.9603,-690.3956 400.3735,-684.1895 398.3775,-690.8989"/>
</g>
<!-- Node79 -->
<g id="node39" class="node">
<title>Node79</title>
<g id="a_node39"><a xlink:href="util_8h.html#a1c0f9b041628dcb399a023bc9913f41d" target="_top" xlink:title="CreatePidFile">
<polygon fill="#ffffff" stroke="#000000" points="402,-456.5 402,-475.5 478,-475.5 478,-456.5 402,-456.5"/>
<text text-anchor="middle" x="440" y="-463.5" font-family="Helvetica,sans-Serif" font-size="10.00" fill="#000000">CreatePidFile</text>
</a>
</g>
</g>
<!-- Node54&#45;&gt;Node79 -->
<g id="edge40" class="edge">
<title>Node54&#45;&gt;Node79</title>
<path fill="none" stroke="#191970" d="M305.2658,-417.2511C323.4928,-425.336 352.3956,-437.756 378,-447 384.0457,-449.1827 390.4785,-451.3368 396.8251,-453.3666"/>
<polygon fill="#191970" stroke="#191970" points="396.0706,-456.7977 406.6594,-456.4401 398.1587,-450.1164 396.0706,-456.7977"/>
</g>
<!-- Node81 -->
<g id="node41" class="node">
<title>Node81</title>
<g id="a_node41"><a xlink:href="util_8h.html#a1e755e72104d3ca393efc1cc3f41952a" target="_top" xlink:title="OpenDebugLog">
<polygon fill="#ffffff" stroke="#000000" points="398,-570.5 398,-589.5 482,-589.5 482,-570.5 398,-570.5"/>
<text text-anchor="middle" x="440" y="-577.5" font-family="Helvetica,sans-Serif" font-size="10.00" fill="#000000">OpenDebugLog</text>
</a>
</g>
</g>
<!-- Node54&#45;&gt;Node81 -->
<g id="edge42" class="edge">
<title>Node54&#45;&gt;Node81</title>
<path fill="none" stroke="#191970" d="M290.0858,-418.8673C299.038,-445.8651 327.6325,-521.5569 378,-561 381.1992,-563.5053 384.7287,-565.6819 388.4319,-567.5726"/>
<polygon fill="#191970" stroke="#191970" points="387.3401,-570.9149 397.9053,-571.7079 390.1407,-564.4995 387.3401,-570.9149"/>
</g>
<!-- Node82 -->
<g id="node42" class="node">
<title>Node82</title>
<g id="a_node42"><a xlink:href="util_8h.html#a37fca7e305fe0caa306b23fdb37f88e2" target="_top" xlink:title="ShrinkDebugFile">
<polygon fill="#ffffff" stroke="#000000" points="395.5,-608.5 395.5,-627.5 484.5,-627.5 484.5,-608.5 395.5,-608.5"/>
<text text-anchor="middle" x="440" y="-615.5" font-family="Helvetica,sans-Serif" font-size="10.00" fill="#000000">ShrinkDebugFile</text>
</a>
</g>
</g>
<!-- Node54&#45;&gt;Node82 -->
<g id="edge43" class="edge">
<title>Node54&#45;&gt;Node82</title>
<path fill="none" stroke="#191970" d="M288.7546,-418.541C294.9462,-449.4746 318.682,-547.9372 378,-599 380.517,-601.1667 383.2772,-603.0863 386.1911,-604.7871"/>
<polygon fill="#191970" stroke="#191970" points="384.7855,-607.996 395.3046,-609.2608 387.8702,-601.7123 384.7855,-607.996"/>
</g>
<!-- Node83 -->
<g id="node43" class="node">
<title>Node83</title>
<g id="a_node43"><a xlink:href="util_8h.html#aa803aa631ab8b4bd79fa9d7b2172bf9a" target="_top" xlink:title="runCommand">
<polygon fill="#ffffff" stroke="#000000" points="402.5,-532.5 402.5,-551.5 477.5,-551.5 477.5,-532.5 402.5,-532.5"/>
<text text-anchor="middle" x="440" y="-539.5" font-family="Helvetica,sans-Serif" font-size="10.00" fill="#000000">runCommand</text>
</a>
</g>
</g>
<!-- Node54&#45;&gt;Node83 -->
<g id="edge46" class="edge">
<title>Node54&#45;&gt;Node83</title>
<path fill="none" stroke="#191970" d="M291.9679,-418.5611C303.8158,-440.4225 335.9103,-494.3748 378,-523 382.5382,-526.0864 387.5963,-528.6864 392.8117,-530.8732"/>
<polygon fill="#191970" stroke="#191970" points="391.6979,-534.1929 402.2911,-534.3791 394.1261,-527.6275 391.6979,-534.1929"/>
</g>
<!-- Node57 -->
<g id="node23" class="node">
<title>Node57</title>
<g id="a_node23"><a xlink:href="namespacetinyformat.html#a86ed74eb3ed66a662e96220d877da964" target="_top" xlink:title="Format list of arguments to the stream according to the given format string. ">
<polygon fill="#ffffff" stroke="#ff0000" points="557,-38.5 557,-57.5 656,-57.5 656,-38.5 557,-38.5"/>
<text text-anchor="middle" x="606.5" y="-45.5" font-family="Helvetica,sans-Serif" font-size="10.00" fill="#000000">tinyformat::vformat</text>
</a>
</g>
</g>
<!-- Node56&#45;&gt;Node57 -->
<g id="edge23" class="edge">
<title>Node56&#45;&gt;Node57</title>
<path fill="none" stroke="#191970" d="M487.2669,-48C505.7697,-48 527.209,-48 546.7631,-48"/>
<polygon fill="#191970" stroke="#191970" points="546.7912,-51.5001 556.7912,-48 546.7911,-44.5001 546.7912,-51.5001"/>
</g>
<!-- Node64 -->
<g id="node24" class="node">
<title>Node64</title>
<g id="a_node24"><a xlink:href="namespacetinyformat.html#a37afaa5249c69dacd619269358f06f69" target="_top" xlink:title="Make type&#45;agnostic format list from list of template arguments. ">
<polygon fill="#ffffff" stroke="#000000" points="538,-76.5 538,-95.5 675,-95.5 675,-76.5 538,-76.5"/>
<text text-anchor="middle" x="606.5" y="-83.5" font-family="Helvetica,sans-Serif" font-size="10.00" fill="#000000">tinyformat::makeFormatList</text>
</a>
</g>
</g>
<!-- Node56&#45;&gt;Node64 -->
<g id="edge24" class="edge">
<title>Node56&#45;&gt;Node64</title>
<path fill="none" stroke="#191970" d="M482.015,-57.589C504.1844,-62.6487 531.5732,-68.8996 555.011,-74.2488"/>
<polygon fill="#191970" stroke="#191970" points="554.259,-77.6671 564.7871,-76.4799 555.8166,-70.8425 554.259,-77.6671"/>
</g>
<!-- Node76 -->
<g id="node36" class="node">
<title>Node76</title>
<g id="a_node36"><a xlink:href="util_8cpp.html#a7ebe0bd091f7334aaead43904601e008" target="_top" xlink:title="GetDataDir">
<polygon fill="#ffffff" stroke="#000000" points="573.5,-646.5 573.5,-665.5 639.5,-665.5 639.5,-646.5 573.5,-646.5"/>
<text text-anchor="middle" x="606.5" y="-653.5" font-family="Helvetica,sans-Serif" font-size="10.00" fill="#000000">GetDataDir</text>
</a>
</g>
</g>
<!-- Node75&#45;&gt;Node76 -->
<g id="edge36" class="edge">
<title>Node75&#45;&gt;Node76</title>
<path fill="none" stroke="#191970" d="M478.6169,-656C503.9746,-656 537.1762,-656 563.3939,-656"/>
<polygon fill="#191970" stroke="#191970" points="563.4308,-659.5001 573.4308,-656 563.4308,-652.5001 563.4308,-659.5001"/>
</g>
<!-- Node77&#45;&gt;Node76 -->
<g id="edge39" class="edge">
<title>Node77&#45;&gt;Node76</title>
<path fill="none" stroke="#191970" d="M471.3174,-686.8525C497.3555,-680.9098 534.6789,-672.3916 563.5137,-665.8107"/>
<polygon fill="#191970" stroke="#191970" points="564.3559,-669.2085 573.3265,-663.5711 562.7983,-662.384 564.3559,-669.2085"/>
</g>
<!-- Node78 -->
<g id="node38" class="node">
<title>Node78</title>
<g id="a_node38"><a xlink:href="class_args_manager.html#adb5d644d273b3a259f792affcdca8283" target="_top" xlink:title="Return string argument or default value. ">
<polygon fill="#ffffff" stroke="#000000" points="551,-684.5 551,-703.5 662,-703.5 662,-684.5 551,-684.5"/>
<text text-anchor="middle" x="606.5" y="-691.5" font-family="Helvetica,sans-Serif" font-size="10.00" fill="#000000">ArgsManager::GetArg</text>
</a>
</g>
</g>
<!-- Node77&#45;&gt;Node78 -->
<g id="edge38" class="edge">
<title>Node77&#45;&gt;Node78</title>
<path fill="none" stroke="#191970" d="M471.3174,-694C490.8523,-694 516.7394,-694 540.6282,-694"/>
<polygon fill="#191970" stroke="#191970" points="540.7197,-697.5001 550.7197,-694 540.7196,-690.5001 540.7197,-697.5001"/>
</g>
<!-- Node80 -->
<g id="node40" class="node">
<title>Node80</title>
<g id="a_node40"><a xlink:href="namespacefsbridge.html#a19c84cec4ae9accfbc88a83e48f7ee92" target="_top" xlink:title="fsbridge::fopen">
<polygon fill="#ffffff" stroke="#000000" points="566,-532.5 566,-551.5 647,-551.5 647,-532.5 566,-532.5"/>
<text text-anchor="middle" x="606.5" y="-539.5" font-family="Helvetica,sans-Serif" font-size="10.00" fill="#000000">fsbridge::fopen</text>
</a>
</g>
</g>
<!-- Node79&#45;&gt;Node80 -->
<g id="edge41" class="edge">
<title>Node79&#45;&gt;Node80</title>
<path fill="none" stroke="#191970" d="M475.524,-475.5383C484.3019,-478.2617 493.5951,-481.4627 502,-485 530.7411,-497.0959 561.9057,-514.7352 582.652,-527.1809"/>
<polygon fill="#191970" stroke="#191970" points="581.0405,-530.2971 591.4048,-532.4952 584.6734,-524.3136 581.0405,-530.2971"/>
</g>
<!-- Node82&#45;&gt;Node76 -->
<g id="edge44" class="edge">
<title>Node82&#45;&gt;Node76</title>
<path fill="none" stroke="#191970" d="M482.015,-627.589C506.9082,-633.2703 538.3821,-640.4536 563.4539,-646.1757"/>
<polygon fill="#191970" stroke="#191970" points="562.8902,-649.6369 573.4183,-648.4498 564.4478,-642.8124 562.8902,-649.6369"/>
</g>
<!-- Node82&#45;&gt;Node80 -->
<g id="edge45" class="edge">
<title>Node82&#45;&gt;Node80</title>
<path fill="none" stroke="#191970" d="M475.524,-608.4617C484.3019,-605.7383 493.5951,-602.5373 502,-599 530.7411,-586.9041 561.9057,-569.2648 582.652,-556.8191"/>
<polygon fill="#191970" stroke="#191970" points="584.6734,-559.6864 591.4048,-551.5048 581.0405,-553.7029 584.6734,-559.6864"/>
</g>
<!-- Node86 -->
<g id="node46" class="node">
<title>Node86</title>
<g id="a_node46"><a xlink:href="class_c_block.html#a0410d7ba8d60679c4cf364b82ffffea5" target="_top" xlink:title="CBlock::SetNull">
<polygon fill="#ffffff" stroke="#000000" points="243.5,-323.5 243.5,-342.5 330.5,-342.5 330.5,-323.5 243.5,-323.5"/>
<text text-anchor="middle" x="287" y="-330.5" font-family="Helvetica,sans-Serif" font-size="10.00" fill="#000000">CBlock::SetNull</text>
</a>
</g>
</g>
<!-- Node85&#45;&gt;Node86 -->
<g id="edge49" class="edge">
<title>Node85&#45;&gt;Node86</title>
<path fill="none" stroke="#191970" d="M196.3065,-344.9251C208.2223,-343.3583 220.8553,-341.6972 232.7872,-340.1283"/>
<polygon fill="#191970" stroke="#191970" points="233.5983,-343.5519 243.0567,-338.778 232.6857,-336.6116 233.5983,-343.5519"/>
</g>
<!-- Node89 -->
<g id="node49" class="node">
<title>Node89</title>
<g id="a_node49"><a xlink:href="validation_8cpp.html#a0d81388930a4ccb6a69b9abdd1ef5097" target="_top" xlink:title="Open a block file (blk?????.dat) ">
<polygon fill="#ffffff" stroke="#000000" points="247,-285.5 247,-304.5 327,-304.5 327,-285.5 247,-285.5"/>
<text text-anchor="middle" x="287" y="-292.5" font-family="Helvetica,sans-Serif" font-size="10.00" fill="#000000">OpenBlockFile</text>
</a>
</g>
</g>
<!-- Node85&#45;&gt;Node89 -->
<g id="edge52" class="edge">
<title>Node85&#45;&gt;Node89</title>
<path fill="none" stroke="#191970" d="M171.6743,-342.4973C179.6528,-339.6672 188.2376,-336.4055 196,-333 212.5674,-325.7315 215.4014,-321.1969 232,-314 236.8008,-311.9184 241.9105,-309.9014 247.0076,-308.0079"/>
<polygon fill="#191970" stroke="#191970" points="248.4742,-311.2005 256.7093,-304.5347 246.1148,-304.6101 248.4742,-311.2005"/>
</g>
<!-- Node87 -->
<g id="node47" class="node">
<title>Node87</title>
<g id="a_node47"><a xlink:href="class_c_block_header.html#ae39c04a4357417d98954a51f53beb78a" target="_top" xlink:title="CBlockHeader::SetNull">
<polygon fill="#ffffff" stroke="#000000" points="380.5,-.5 380.5,-19.5 499.5,-19.5 499.5,-.5 380.5,-.5"/>
<text text-anchor="middle" x="440" y="-7.5" font-family="Helvetica,sans-Serif" font-size="10.00" fill="#000000">CBlockHeader::SetNull</text>
</a>
</g>
</g>
<!-- Node86&#45;&gt;Node87 -->
<g id="edge50" class="edge">
<title>Node86&#45;&gt;Node87</title>
<path fill="none" stroke="#191970" d="M330.6066,-323.36C334.9394,-320.9111 338.88,-317.8431 342,-314 422.4698,-214.8786 295.7955,-126.6876 378,-29 379.0193,-27.7887 380.1138,-26.6531 381.272,-25.5886"/>
<polygon fill="#191970" stroke="#191970" points="383.6239,-28.2096 389.7215,-19.5453 379.5516,-22.516 383.6239,-28.2096"/>
</g>
<!-- Node88 -->
<g id="node48" class="node">
<title>Node88</title>
<g id="a_node48"><a xlink:href="classbase__blob.html#aa340be5328d911272eded433d03f30a3" target="_top" xlink:title="base_blob::SetNull">
<polygon fill="#ffffff" stroke="#000000" points="557,-.5 557,-19.5 656,-19.5 656,-.5 557,-.5"/>
<text text-anchor="middle" x="606.5" y="-7.5" font-family="Helvetica,sans-Serif" font-size="10.00" fill="#000000">base_blob::SetNull</text>
</a>
</g>
</g>
<!-- Node87&#45;&gt;Node88 -->
<g id="edge51" class="edge">
<title>Node87&#45;&gt;Node88</title>
<path fill="none" stroke="#191970" d="M499.64,-10C514.8789,-10 531.2685,-10 546.5241,-10"/>
<polygon fill="#191970" stroke="#191970" points="546.8766,-13.5001 556.8765,-10 546.8765,-6.5001 546.8766,-13.5001"/>
</g>
</g>
</svg>
