<?xml version="1.0" encoding="UTF-8" standalone="no"?>
<!DOCTYPE svg PUBLIC "-//W3C//DTD SVG 1.1//EN"
 "http://www.w3.org/Graphics/SVG/1.1/DTD/svg11.dtd">
<!-- Generated by graphviz version 2.40.1 (20161225.0304)
 -->
<!-- Title: waitforblock Pages: 1 -->
<svg width="345pt" height="256pt"
 viewBox="0.00 0.00 345.00 256.00" xmlns="http://www.w3.org/2000/svg" xmlns:xlink="http://www.w3.org/1999/xlink">
<g id="graph0" class="graph" transform="scale(1 1) rotate(0) translate(4 252)">
<title>waitforblock</title>
<polygon fill="#ffffff" stroke="transparent" points="-4,4 -4,-252 341,-252 341,4 -4,4"/>
<!-- Node839 -->
<g id="node1" class="node">
<title>Node839</title>
<polygon fill="#bfbfbf" stroke="#000000" points="0,-114.5 0,-133.5 69,-133.5 69,-114.5 0,-114.5"/>
<text text-anchor="middle" x="34.5" y="-121.5" font-family="Helvetica,sans-Serif" font-size="10.00" fill="#000000">waitforblock</text>
</g>
<!-- Node840 -->
<g id="node2" class="node">
<title>Node840</title>
<g id="a_node2"><a xlink:href="class_uni_value.html#a5a7394aeb8d5584db7a90c2c041726b1" target="_top" xlink:title="UniValue::size">
<polygon fill="#ffffff" stroke="#000000" points="111.5,-228.5 111.5,-247.5 191.5,-247.5 191.5,-228.5 111.5,-228.5"/>
<text text-anchor="middle" x="151.5" y="-235.5" font-family="Helvetica,sans-Serif" font-size="10.00" fill="#000000">UniValue::size</text>
</a>
</g>
</g>
<!-- Node839&#45;&gt;Node840 -->
<g id="edge1" class="edge">
<title>Node839&#45;&gt;Node840</title>
<path fill="none" stroke="#191970" d="M39.3643,-133.7181C49.2682,-152.6084 73.5263,-194.5664 105,-219 107.2603,-220.7547 109.7052,-222.3718 112.2501,-223.8577"/>
<polygon fill="#191970" stroke="#191970" points="110.668,-226.9797 121.1654,-228.4133 113.8533,-220.7463 110.668,-226.9797"/>
</g>
<!-- Node841 -->
<g id="node3" class="node">
<title>Node841</title>
<g id="a_node3"><a xlink:href="server_8cpp.html#a26bafe3d526ee8cbc84b3c0b0dc3a43b" target="_top" xlink:title="HelpExampleCli">
<polygon fill="#ffffff" stroke="#000000" points="108,-190.5 108,-209.5 195,-209.5 195,-190.5 108,-190.5"/>
<text text-anchor="middle" x="151.5" y="-197.5" font-family="Helvetica,sans-Serif" font-size="10.00" fill="#000000">HelpExampleCli</text>
</a>
</g>
</g>
<!-- Node839&#45;&gt;Node841 -->
<g id="edge2" class="edge">
<title>Node839&#45;&gt;Node841</title>
<path fill="none" stroke="#191970" d="M44.3096,-133.5083C57.3278,-145.7389 81.4246,-167.0629 105,-181 108.1905,-182.8862 111.6033,-184.6697 115.0766,-186.3327"/>
<polygon fill="#191970" stroke="#191970" points="113.7419,-189.5697 124.3008,-190.4411 116.5899,-183.1752 113.7419,-189.5697"/>
</g>
<!-- Node842 -->
<g id="node4" class="node">
<title>Node842</title>
<g id="a_node4"><a xlink:href="server_8cpp.html#a9ef4f8fb114508ceb861a0e8c3e0d26e" target="_top" xlink:title="HelpExampleRpc">
<polygon fill="#ffffff" stroke="#000000" points="105,-152.5 105,-171.5 198,-171.5 198,-152.5 105,-152.5"/>
<text text-anchor="middle" x="151.5" y="-159.5" font-family="Helvetica,sans-Serif" font-size="10.00" fill="#000000">HelpExampleRpc</text>
</a>
</g>
</g>
<!-- Node839&#45;&gt;Node842 -->
<g id="edge3" class="edge">
<title>Node839&#45;&gt;Node842</title>
<path fill="none" stroke="#191970" d="M64.024,-133.589C78.7119,-138.3594 96.6601,-144.1888 112.4678,-149.3229"/>
<polygon fill="#191970" stroke="#191970" points="111.3933,-152.6538 121.9854,-152.4141 113.5556,-145.9961 111.3933,-152.6538"/>
</g>
<!-- Node843 -->
<g id="node5" class="node">
<title>Node843</title>
<g id="a_node5"><a xlink:href="uint256_8h.html#a52e679560cc1ebf68f878ed69e38f259" target="_top" xlink:title="uint256S">
<polygon fill="#ffffff" stroke="#000000" points="124,-114.5 124,-133.5 179,-133.5 179,-114.5 124,-114.5"/>
<text text-anchor="middle" x="151.5" y="-121.5" font-family="Helvetica,sans-Serif" font-size="10.00" fill="#000000">uint256S</text>
</a>
</g>
</g>
<!-- Node839&#45;&gt;Node843 -->
<g id="edge4" class="edge">
<title>Node839&#45;&gt;Node843</title>
<path fill="none" stroke="#191970" d="M69.2871,-124C83.2717,-124 99.4326,-124 113.7055,-124"/>
<polygon fill="#191970" stroke="#191970" points="113.7066,-127.5001 123.7066,-124 113.7065,-120.5001 113.7066,-127.5001"/>
</g>
<!-- Node845 -->
<g id="node7" class="node">
<title>Node845</title>
<g id="a_node7"><a xlink:href="class_uni_value.html#a087ea6ccec615333371fa1aaf83ab7df" target="_top" xlink:title="UniValue::get_str">
<polygon fill="#ffffff" stroke="#000000" points="105.5,-76.5 105.5,-95.5 197.5,-95.5 197.5,-76.5 105.5,-76.5"/>
<text text-anchor="middle" x="151.5" y="-83.5" font-family="Helvetica,sans-Serif" font-size="10.00" fill="#000000">UniValue::get_str</text>
</a>
</g>
</g>
<!-- Node839&#45;&gt;Node845 -->
<g id="edge6" class="edge">
<title>Node839&#45;&gt;Node845</title>
<path fill="none" stroke="#191970" d="M64.024,-114.411C78.7119,-109.6406 96.6601,-103.8112 112.4678,-98.6771"/>
<polygon fill="#191970" stroke="#191970" points="113.5556,-102.0039 121.9854,-95.5859 111.3933,-95.3462 113.5556,-102.0039"/>
</g>
<!-- Node847 -->
<g id="node9" class="node">
<title>Node847</title>
<g id="a_node9"><a xlink:href="class_uni_value.html#a3661be0f5580daceb23e5338e3a0df22" target="_top" xlink:title="UniValue::isNull">
<polygon fill="#ffffff" stroke="#000000" points="108,-38.5 108,-57.5 195,-57.5 195,-38.5 108,-38.5"/>
<text text-anchor="middle" x="151.5" y="-45.5" font-family="Helvetica,sans-Serif" font-size="10.00" fill="#000000">UniValue::isNull</text>
</a>
</g>
</g>
<!-- Node839&#45;&gt;Node847 -->
<g id="edge8" class="edge">
<title>Node839&#45;&gt;Node847</title>
<path fill="none" stroke="#191970" d="M44.3096,-114.4917C57.3278,-102.2611 81.4246,-80.9371 105,-67 108.1905,-65.1138 111.6033,-63.3303 115.0766,-61.6673"/>
<polygon fill="#191970" stroke="#191970" points="116.5899,-64.8248 124.3008,-57.5589 113.7419,-58.4303 116.5899,-64.8248"/>
</g>
<!-- Node848 -->
<g id="node10" class="node">
<title>Node848</title>
<g id="a_node10"><a xlink:href="class_uni_value.html#af45edc6e67eaa6d1f271ce18e435a376" target="_top" xlink:title="UniValue::get_int">
<polygon fill="#ffffff" stroke="#000000" points="105.5,-.5 105.5,-19.5 197.5,-19.5 197.5,-.5 105.5,-.5"/>
<text text-anchor="middle" x="151.5" y="-7.5" font-family="Helvetica,sans-Serif" font-size="10.00" fill="#000000">UniValue::get_int</text>
</a>
</g>
</g>
<!-- Node839&#45;&gt;Node848 -->
<g id="edge9" class="edge">
<title>Node839&#45;&gt;Node848</title>
<path fill="none" stroke="#191970" d="M39.3643,-114.2819C49.2682,-95.3916 73.5263,-53.4336 105,-29 107.2603,-27.2453 109.7052,-25.6282 112.2501,-24.1423"/>
<polygon fill="#191970" stroke="#191970" points="113.8533,-27.2537 121.1654,-19.5867 110.668,-21.0203 113.8533,-27.2537"/>
</g>
<!-- Node844 -->
<g id="node6" class="node">
<title>Node844</title>
<g id="a_node6"><a xlink:href="classbase__blob.html#a5ec1f681a2830f4e180fe664c0eb4dd0" target="_top" xlink:title="base_blob::SetHex">
<polygon fill="#ffffff" stroke="#000000" points="235.5,-114.5 235.5,-133.5 335.5,-133.5 335.5,-114.5 235.5,-114.5"/>
<text text-anchor="middle" x="285.5" y="-121.5" font-family="Helvetica,sans-Serif" font-size="10.00" fill="#000000">base_blob::SetHex</text>
</a>
</g>
</g>
<!-- Node843&#45;&gt;Node844 -->
<g id="edge5" class="edge">
<title>Node843&#45;&gt;Node844</title>
<path fill="none" stroke="#191970" d="M179.2649,-124C192.5335,-124 208.9719,-124 224.9205,-124"/>
<polygon fill="#191970" stroke="#191970" points="225.2922,-127.5001 235.2921,-124 225.2921,-120.5001 225.2922,-127.5001"/>
</g>
<!-- Node846 -->
<g id="node8" class="node">
<title>Node846</title>
<g id="a_node8"><a xlink:href="class_uni_value.html#a4c9a5fa9114affbf31f6e346c032be12" target="_top" xlink:title="UniValue::getValStr">
<polygon fill="#ffffff" stroke="#000000" points="234,-57.5 234,-76.5 337,-76.5 337,-57.5 234,-57.5"/>
<text text-anchor="middle" x="285.5" y="-64.5" font-family="Helvetica,sans-Serif" font-size="10.00" fill="#000000">UniValue::getValStr</text>
</a>
</g>
</g>
<!-- Node845&#45;&gt;Node846 -->
<g id="edge7" class="edge">
<title>Node845&#45;&gt;Node846</title>
<path fill="none" stroke="#191970" d="M197.6152,-79.4613C205.9949,-78.2731 214.8589,-77.0163 223.6061,-75.776"/>
<polygon fill="#191970" stroke="#191970" points="224.3754,-79.202 233.785,-74.3327 223.3926,-72.2713 224.3754,-79.202"/>
</g>
<!-- Node848&#45;&gt;Node846 -->
<g id="edge11" class="edge">
<title>Node848&#45;&gt;Node846</title>
<path fill="none" stroke="#191970" d="M175.197,-19.5663C182.5215,-22.5544 190.6065,-25.8845 198,-29 216.882,-36.9566 237.9497,-46.0978 254.6805,-53.4204"/>
<polygon fill="#191970" stroke="#191970" points="253.4171,-56.6881 263.9809,-57.499 256.2285,-50.2774 253.4171,-56.6881"/>
</g>
<!-- Node849 -->
<g id="node11" class="node">
<title>Node849</title>
<g id="a_node11"><a xlink:href="utilstrencodings_8cpp.html#a880a215d9e931432b095084c756a49bb" target="_top" xlink:title="Convert string to signed 32&#45;bit integer with strict parse error feedback. ">
<polygon fill="#ffffff" stroke="#000000" points="253.5,-.5 253.5,-19.5 317.5,-19.5 317.5,-.5 253.5,-.5"/>
<text text-anchor="middle" x="285.5" y="-7.5" font-family="Helvetica,sans-Serif" font-size="10.00" fill="#000000">ParseInt32</text>
</a>
</g>
</g>
<!-- Node848&#45;&gt;Node849 -->
<g id="edge10" class="edge">
<title>Node848&#45;&gt;Node849</title>
<path fill="none" stroke="#191970" d="M197.6152,-10C212.3577,-10 228.5992,-10 243.0668,-10"/>
<polygon fill="#191970" stroke="#191970" points="243.2412,-13.5001 253.2411,-10 243.2411,-6.5001 243.2412,-13.5001"/>
</g>
</g>
</svg>
