<?xml version="1.0" encoding="UTF-8" standalone="no"?>
<!DOCTYPE svg PUBLIC "-//W3C//DTD SVG 1.1//EN"
 "http://www.w3.org/Graphics/SVG/1.1/DTD/svg11.dtd">
<!-- Generated by graphviz version 2.40.1 (20161225.0304)
 -->
<!-- Title: entryToJSON Pages: 1 -->
<svg width="368pt" height="142pt"
 viewBox="0.00 0.00 368.00 142.00" xmlns="http://www.w3.org/2000/svg" xmlns:xlink="http://www.w3.org/1999/xlink">
<g id="graph0" class="graph" transform="scale(1 1) rotate(0) translate(4 138)">
<title>entryToJSON</title>
<polygon fill="#ffffff" stroke="transparent" points="-4,4 -4,-138 364,-138 364,4 -4,4"/>
<!-- Node21 -->
<g id="node1" class="node">
<title>Node21</title>
<polygon fill="#bfbfbf" stroke="#000000" points="0,-57.5 0,-76.5 77,-76.5 77,-57.5 0,-57.5"/>
<text text-anchor="middle" x="38.5" y="-64.5" font-family="Helvetica,sans-Serif" font-size="10.00" fill="#000000">entryToJSON</text>
</g>
<!-- Node22 -->
<g id="node2" class="node">
<title>Node22</title>
<g id="a_node2"><a xlink:href="blockchain_8h.html#a3b8a8939a31de29ceb0ea581341eeb92" target="_top" xlink:title="Mempool to JSON. ">
<polygon fill="#ffffff" stroke="#000000" points="128,-114.5 128,-133.5 223,-133.5 223,-114.5 128,-114.5"/>
<text text-anchor="middle" x="175.5" y="-121.5" font-family="Helvetica,sans-Serif" font-size="10.00" fill="#000000">mempoolToJSON</text>
</a>
</g>
</g>
<!-- Node21&#45;&gt;Node22 -->
<g id="edge1" class="edge">
<title>Node21&#45;&gt;Node22</title>
<path fill="none" stroke="#191970" d="M64.349,-81.6109C78.4473,-89.2128 96.3704,-98.2924 113,-105 121.6245,-108.4787 131.1364,-111.6783 140.0824,-114.4206"/>
<polygon fill="#191970" stroke="#191970" points="65.7141,-78.3679 55.2625,-76.6314 62.35,-84.5066 65.7141,-78.3679"/>
</g>
<!-- Node24 -->
<g id="node4" class="node">
<title>Node24</title>
<g id="a_node4"><a xlink:href="blockchain_8cpp.html#a0dbc687da2b478fac18d9776272961d5" target="_top" xlink:title="getmempoolancestors">
<polygon fill="#ffffff" stroke="#000000" points="119,-76.5 119,-95.5 232,-95.5 232,-76.5 119,-76.5"/>
<text text-anchor="middle" x="175.5" y="-83.5" font-family="Helvetica,sans-Serif" font-size="10.00" fill="#000000">getmempoolancestors</text>
</a>
</g>
</g>
<!-- Node21&#45;&gt;Node24 -->
<g id="edge3" class="edge">
<title>Node21&#45;&gt;Node24</title>
<path fill="none" stroke="#191970" d="M87.0579,-73.7343C97.347,-75.1613 108.2937,-76.6794 118.8529,-78.1438"/>
<polygon fill="#191970" stroke="#191970" points="87.4127,-70.2501 77.0267,-72.3431 86.4511,-77.1837 87.4127,-70.2501"/>
</g>
<!-- Node25 -->
<g id="node5" class="node">
<title>Node25</title>
<g id="a_node5"><a xlink:href="blockchain_8cpp.html#a926e1fc050c32fd678ba2da9688a469c" target="_top" xlink:title="getmempooldescendants">
<polygon fill="#ffffff" stroke="#000000" points="113,-38.5 113,-57.5 238,-57.5 238,-38.5 113,-38.5"/>
<text text-anchor="middle" x="175.5" y="-45.5" font-family="Helvetica,sans-Serif" font-size="10.00" fill="#000000">getmempooldescendants</text>
</a>
</g>
</g>
<!-- Node21&#45;&gt;Node25 -->
<g id="edge4" class="edge">
<title>Node21&#45;&gt;Node25</title>
<path fill="none" stroke="#191970" d="M86.9972,-60.2741C95.3804,-59.1115 104.2018,-57.8881 112.8956,-56.6824"/>
<polygon fill="#191970" stroke="#191970" points="86.4511,-56.8163 77.0267,-61.6569 87.4127,-63.7499 86.4511,-56.8163"/>
</g>
<!-- Node26 -->
<g id="node6" class="node">
<title>Node26</title>
<g id="a_node6"><a xlink:href="blockchain_8cpp.html#a946b42e9757376845ac252c3905b3579" target="_top" xlink:title="getmempoolentry">
<polygon fill="#ffffff" stroke="#000000" points="129.5,-.5 129.5,-19.5 221.5,-19.5 221.5,-.5 129.5,-.5"/>
<text text-anchor="middle" x="175.5" y="-7.5" font-family="Helvetica,sans-Serif" font-size="10.00" fill="#000000">getmempoolentry</text>
</a>
</g>
</g>
<!-- Node21&#45;&gt;Node26 -->
<g id="edge5" class="edge">
<title>Node21&#45;&gt;Node26</title>
<path fill="none" stroke="#191970" d="M64.349,-52.3891C78.4473,-44.7872 96.3704,-35.7076 113,-29 121.6245,-25.5213 131.1364,-22.3217 140.0824,-19.5794"/>
<polygon fill="#191970" stroke="#191970" points="62.35,-49.4934 55.2625,-57.3686 65.7141,-55.6321 62.35,-49.4934"/>
</g>
<!-- Node23 -->
<g id="node3" class="node">
<title>Node23</title>
<g id="a_node3"><a xlink:href="blockchain_8cpp.html#a7b5e90844b26b98c7691d3215144391d" target="_top" xlink:title="getrawmempool">
<polygon fill="#ffffff" stroke="#000000" points="274,-114.5 274,-133.5 360,-133.5 360,-114.5 274,-114.5"/>
<text text-anchor="middle" x="317" y="-121.5" font-family="Helvetica,sans-Serif" font-size="10.00" fill="#000000">getrawmempool</text>
</a>
</g>
</g>
<!-- Node22&#45;&gt;Node23 -->
<g id="edge2" class="edge">
<title>Node22&#45;&gt;Node23</title>
<path fill="none" stroke="#191970" d="M233.1889,-124C246.7113,-124 260.8932,-124 273.6651,-124"/>
<polygon fill="#191970" stroke="#191970" points="233.0111,-120.5001 223.0111,-124 233.0111,-127.5001 233.0111,-120.5001"/>
</g>
</g>
</svg>
