<?xml version="1.0" encoding="UTF-8" standalone="no"?>
<!DOCTYPE svg PUBLIC "-//W3C//DTD SVG 1.1//EN"
 "http://www.w3.org/Graphics/SVG/1.1/DTD/svg11.dtd">
<!-- Generated by graphviz version 2.40.1 (20161225.0304)
 -->
<!-- Title: src/bloom.h Pages: 1 -->
<svg width="2979pt" height="308pt"
 viewBox="0.00 0.00 2978.66 308.00" xmlns="http://www.w3.org/2000/svg" xmlns:xlink="http://www.w3.org/1999/xlink">
<g id="graph0" class="graph" transform="scale(1 1) rotate(0) translate(4 304)">
<title>src/bloom.h</title>
<polygon fill="#ffffff" stroke="transparent" points="-4,4 -4,-304 2974.658,-304 2974.658,4 -4,4"/>
<!-- Node20 -->
<g id="node1" class="node">
<title>Node20</title>
<polygon fill="#bfbfbf" stroke="#000000" points="1162.658,-280.5 1162.658,-299.5 1230.658,-299.5 1230.658,-280.5 1162.658,-280.5"/>
<text text-anchor="middle" x="1196.658" y="-287.5" font-family="Helvetica,sans-Serif" font-size="10.00" fill="#000000">src/bloom.h</text>
</g>
<!-- Node21 -->
<g id="node2" class="node">
<title>Node21</title>
<g id="a_node2"><a xlink:href="crypto__hash_8cpp.html" target="_top" xlink:title="src/bench/crypto_hash.cpp">
<polygon fill="#ffffff" stroke="#000000" points="853.658,-224.5 853.658,-243.5 987.658,-243.5 987.658,-224.5 853.658,-224.5"/>
<text text-anchor="middle" x="920.658" y="-231.5" font-family="Helvetica,sans-Serif" font-size="10.00" fill="#000000">src/bench/crypto_hash.cpp</text>
</a>
</g>
</g>
<!-- Node20&#45;&gt;Node21 -->
<g id="edge1" class="edge">
<title>Node20&#45;&gt;Node21</title>
<path fill="none" stroke="#191970" d="M1152.5593,-281.0524C1101.9721,-270.7884 1019.3618,-254.0269 967.6071,-243.5259"/>
<polygon fill="#191970" stroke="#191970" points="1152.0419,-284.5187 1162.5382,-283.0771 1153.4339,-277.6585 1152.0419,-284.5187"/>
</g>
<!-- Node22 -->
<g id="node3" class="node">
<title>Node22</title>
<g id="a_node3"><a xlink:href="rollingbloom_8cpp.html" target="_top" xlink:title="src/bench/rollingbloom.cpp">
<polygon fill="#ffffff" stroke="#000000" points="1006.158,-224.5 1006.158,-243.5 1139.158,-243.5 1139.158,-224.5 1006.158,-224.5"/>
<text text-anchor="middle" x="1072.658" y="-231.5" font-family="Helvetica,sans-Serif" font-size="10.00" fill="#000000">src/bench/rollingbloom.cpp</text>
</a>
</g>
</g>
<!-- Node20&#45;&gt;Node22 -->
<g id="edge2" class="edge">
<title>Node20&#45;&gt;Node22</title>
<path fill="none" stroke="#191970" d="M1166.2056,-276.2473C1143.6859,-266.0771 1113.5964,-252.4883 1093.6962,-243.5011"/>
<polygon fill="#191970" stroke="#191970" points="1164.7874,-279.4471 1175.3417,-280.3733 1167.6685,-273.0675 1164.7874,-279.4471"/>
</g>
<!-- Node23 -->
<g id="node4" class="node">
<title>Node23</title>
<g id="a_node4"><a xlink:href="bloom_8cpp.html" target="_top" xlink:title="src/bloom.cpp">
<polygon fill="#ffffff" stroke="#000000" points="1157.658,-224.5 1157.658,-243.5 1235.658,-243.5 1235.658,-224.5 1157.658,-224.5"/>
<text text-anchor="middle" x="1196.658" y="-231.5" font-family="Helvetica,sans-Serif" font-size="10.00" fill="#000000">src/bloom.cpp</text>
</a>
</g>
</g>
<!-- Node20&#45;&gt;Node23 -->
<g id="edge3" class="edge">
<title>Node20&#45;&gt;Node23</title>
<path fill="none" stroke="#191970" d="M1196.658,-270.1575C1196.658,-261.155 1196.658,-250.9199 1196.658,-243.6427"/>
<polygon fill="#191970" stroke="#191970" points="1193.1581,-270.2455 1196.658,-280.2455 1200.1581,-270.2456 1193.1581,-270.2455"/>
</g>
<!-- Node24 -->
<g id="node5" class="node">
<title>Node24</title>
<g id="a_node5"><a xlink:href="net_8h.html" target="_top" xlink:title="src/net.h">
<polygon fill="#ffffff" stroke="#000000" points="1254.158,-224.5 1254.158,-243.5 1309.158,-243.5 1309.158,-224.5 1254.158,-224.5"/>
<text text-anchor="middle" x="1281.658" y="-231.5" font-family="Helvetica,sans-Serif" font-size="10.00" fill="#000000">src/net.h</text>
</a>
</g>
</g>
<!-- Node20&#45;&gt;Node24 -->
<g id="edge4" class="edge">
<title>Node20&#45;&gt;Node24</title>
<path fill="none" stroke="#191970" d="M1220.1999,-274.49C1235.197,-264.6096 1254.1554,-252.1194 1267.0218,-243.6427"/>
<polygon fill="#191970" stroke="#191970" points="1217.889,-271.8212 1211.4639,-280.2455 1221.7401,-277.6666 1217.889,-271.8212"/>
</g>
<!-- Node55 -->
<g id="node36" class="node">
<title>Node55</title>
<g id="a_node36"><a xlink:href="merkleblock_8h.html" target="_top" xlink:title="src/merkleblock.h">
<polygon fill="#ffffff" stroke="#000000" points="2655.658,-224.5 2655.658,-243.5 2749.658,-243.5 2749.658,-224.5 2655.658,-224.5"/>
<text text-anchor="middle" x="2702.658" y="-231.5" font-family="Helvetica,sans-Serif" font-size="10.00" fill="#000000">src/merkleblock.h</text>
</a>
</g>
</g>
<!-- Node20&#45;&gt;Node55 -->
<g id="edge44" class="edge">
<title>Node20&#45;&gt;Node55</title>
<path fill="none" stroke="#191970" d="M1241.1296,-288.3463C1460.8646,-280.1756 2429.1237,-244.1713 2655.2973,-235.7611"/>
<polygon fill="#191970" stroke="#191970" points="1240.8056,-284.8559 1230.9426,-288.7251 1241.0657,-291.851 1240.8056,-284.8559"/>
</g>
<!-- Node25 -->
<g id="node6" class="node">
<title>Node25</title>
<g id="a_node6"><a xlink:href="assets_2assets_8cpp.html" target="_top" xlink:title="src/assets/assets.cpp">
<polygon fill="#ffffff" stroke="#000000" points="2195.158,-168.5 2195.158,-187.5 2308.158,-187.5 2308.158,-168.5 2195.158,-168.5"/>
<text text-anchor="middle" x="2251.658" y="-175.5" font-family="Helvetica,sans-Serif" font-size="10.00" fill="#000000">src/assets/assets.cpp</text>
</a>
</g>
</g>
<!-- Node24&#45;&gt;Node25 -->
<g id="edge5" class="edge">
<title>Node24&#45;&gt;Node25</title>
<path fill="none" stroke="#191970" d="M1319.6314,-233.4196C1444.1141,-231.2284 1851.0434,-221.7784 2185.658,-188 2188.656,-187.6974 2191.7257,-187.3531 2194.8218,-186.9787"/>
<polygon fill="#191970" stroke="#191970" points="1319.4142,-229.9227 1309.4755,-233.5931 1319.5339,-236.9217 1319.4142,-229.9227"/>
</g>
<!-- Node26 -->
<g id="node7" class="node">
<title>Node26</title>
<g id="a_node7"><a xlink:href="init_8cpp.html" target="_top" xlink:title="src/init.cpp">
<polygon fill="#ffffff" stroke="#000000" points="543.158,-112.5 543.158,-131.5 608.158,-131.5 608.158,-112.5 543.158,-112.5"/>
<text text-anchor="middle" x="575.658" y="-119.5" font-family="Helvetica,sans-Serif" font-size="10.00" fill="#000000">src/init.cpp</text>
</a>
</g>
</g>
<!-- Node24&#45;&gt;Node26 -->
<g id="edge6" class="edge">
<title>Node24&#45;&gt;Node26</title>
<path fill="none" stroke="#191970" d="M1243.8838,-224.5502C1138.0446,-213.7805 655.2528,-229.297 599.658,-188 581.649,-174.6225 577.1295,-146.3794 576.0118,-131.5509"/>
<polygon fill="#191970" stroke="#191970" points="1243.549,-228.0359 1253.913,-225.8362 1244.4393,-221.0927 1243.549,-228.0359"/>
</g>
<!-- Node27 -->
<g id="node8" class="node">
<title>Node27</title>
<g id="a_node8"><a xlink:href="net__processing_8h.html" target="_top" xlink:title="src/net_processing.h">
<polygon fill="#ffffff" stroke="#000000" points="444.158,-168.5 444.158,-187.5 551.158,-187.5 551.158,-168.5 444.158,-168.5"/>
<text text-anchor="middle" x="497.658" y="-175.5" font-family="Helvetica,sans-Serif" font-size="10.00" fill="#000000">src/net_processing.h</text>
</a>
</g>
</g>
<!-- Node24&#45;&gt;Node27 -->
<g id="edge7" class="edge">
<title>Node24&#45;&gt;Node27</title>
<path fill="none" stroke="#191970" d="M1243.634,-224.1937C944.4209,-177.239 862.9882,-217.6796 565.658,-188 561.0274,-187.5378 556.2294,-186.9843 551.4226,-186.3781"/>
<polygon fill="#191970" stroke="#191970" points="1243.4889,-227.7145 1253.9143,-225.8277 1244.5877,-220.8013 1243.4889,-227.7145"/>
</g>
<!-- Node28 -->
<g id="node9" class="node">
<title>Node28</title>
<g id="a_node9"><a xlink:href="net__processing_8cpp.html" target="_top" xlink:title="src/net_processing.cpp">
<polygon fill="#ffffff" stroke="#000000" points="2348.658,-112.5 2348.658,-131.5 2466.658,-131.5 2466.658,-112.5 2348.658,-112.5"/>
<text text-anchor="middle" x="2407.658" y="-119.5" font-family="Helvetica,sans-Serif" font-size="10.00" fill="#000000">src/net_processing.cpp</text>
</a>
</g>
</g>
<!-- Node24&#45;&gt;Node28 -->
<g id="edge19" class="edge">
<title>Node24&#45;&gt;Node28</title>
<path fill="none" stroke="#191970" d="M1319.5965,-233.2323C1519.002,-229.1098 2437.4606,-209.0029 2457.658,-188 2475.3942,-169.5565 2444.2931,-144.8527 2423.6943,-131.511"/>
<polygon fill="#191970" stroke="#191970" points="1319.2562,-229.7385 1309.3303,-233.4435 1319.4003,-236.737 1319.2562,-229.7385"/>
</g>
<!-- Node29 -->
<g id="node10" class="node">
<title>Node29</title>
<g id="a_node10"><a xlink:href="peertablemodel_8h.html" target="_top" xlink:title="src/qt/peertablemodel.h">
<polygon fill="#ffffff" stroke="#000000" points="294.158,-112.5 294.158,-131.5 413.158,-131.5 413.158,-112.5 294.158,-112.5"/>
<text text-anchor="middle" x="353.658" y="-119.5" font-family="Helvetica,sans-Serif" font-size="10.00" fill="#000000">src/qt/peertablemodel.h</text>
</a>
</g>
</g>
<!-- Node24&#45;&gt;Node29 -->
<g id="edge26" class="edge">
<title>Node24&#45;&gt;Node29</title>
<path fill="none" stroke="#191970" d="M1243.7785,-224.7699C1125.7968,-216.5319 285.7077,-226.413 248.658,-188 224.1443,-162.5842 274.1308,-142.646 313.2246,-131.5978"/>
<polygon fill="#191970" stroke="#191970" points="1243.6256,-228.2718 1253.9223,-225.7763 1244.3167,-221.306 1243.6256,-228.2718"/>
</g>
<!-- Node30 -->
<g id="node11" class="node">
<title>Node30</title>
<g id="a_node11"><a xlink:href="clientmodel_8cpp.html" target="_top" xlink:title="src/qt/clientmodel.cpp">
<polygon fill="#ffffff" stroke="#000000" points="158.158,-56.5 158.158,-75.5 271.158,-75.5 271.158,-56.5 158.158,-56.5"/>
<text text-anchor="middle" x="214.658" y="-63.5" font-family="Helvetica,sans-Serif" font-size="10.00" fill="#000000">src/qt/clientmodel.cpp</text>
</a>
</g>
</g>
<!-- Node24&#45;&gt;Node30 -->
<g id="edge27" class="edge">
<title>Node24&#45;&gt;Node30</title>
<path fill="none" stroke="#191970" d="M1243.6908,-224.7481C1124.7331,-216.2232 278.5739,-223.1753 237.658,-188 204.316,-159.336 209.5076,-98.8841 212.9924,-75.5081"/>
<polygon fill="#191970" stroke="#191970" points="1243.6229,-228.2587 1253.9225,-225.7751 1244.3221,-221.2937 1243.6229,-228.2587"/>
</g>
<!-- Node32 -->
<g id="node13" class="node">
<title>Node32</title>
<g id="a_node13"><a xlink:href="rpcconsole_8h.html" target="_top" xlink:title="src/qt/rpcconsole.h">
<polygon fill="#ffffff" stroke="#000000" points="436.658,-56.5 436.658,-75.5 536.658,-75.5 536.658,-56.5 436.658,-56.5"/>
<text text-anchor="middle" x="486.658" y="-63.5" font-family="Helvetica,sans-Serif" font-size="10.00" fill="#000000">src/qt/rpcconsole.h</text>
</a>
</g>
</g>
<!-- Node24&#45;&gt;Node32 -->
<g id="edge30" class="edge">
<title>Node24&#45;&gt;Node32</title>
<path fill="none" stroke="#191970" d="M1319.4739,-233.2419C1520.2199,-229.1322 2452.7825,-208.9356 2473.658,-188 2497.5165,-164.0729 2499.273,-136.1674 2475.658,-112 2440.7308,-76.2556 842.4623,-67.5417 536.8637,-66.2012"/>
<polygon fill="#191970" stroke="#191970" points="1319.3371,-229.7439 1309.4105,-233.447 1319.4798,-236.7425 1319.3371,-229.7439"/>
</g>
<!-- Node35 -->
<g id="node16" class="node">
<title>Node35</title>
<g id="a_node16"><a xlink:href="rpc_2net_8cpp.html" target="_top" xlink:title="src/rpc/net.cpp">
<polygon fill="#ffffff" stroke="#000000" points="435.658,-112.5 435.658,-131.5 517.658,-131.5 517.658,-112.5 435.658,-112.5"/>
<text text-anchor="middle" x="476.658" y="-119.5" font-family="Helvetica,sans-Serif" font-size="10.00" fill="#000000">src/rpc/net.cpp</text>
</a>
</g>
</g>
<!-- Node24&#45;&gt;Node35 -->
<g id="edge36" class="edge">
<title>Node24&#45;&gt;Node35</title>
<path fill="none" stroke="#191970" d="M1243.8614,-224.7761C1126.8711,-216.5683 294.3671,-226.0724 257.658,-188 251.4883,-181.6011 252.0558,-174.9012 257.658,-168 260.4815,-164.5218 372.9867,-142.1641 435.6111,-129.9466"/>
<polygon fill="#191970" stroke="#191970" points="1243.6247,-228.2698 1253.9222,-225.7773 1244.3179,-221.3042 1243.6247,-228.2698"/>
</g>
<!-- Node36 -->
<g id="node17" class="node">
<title>Node36</title>
<g id="a_node17"><a xlink:href="miner_8cpp.html" target="_top" xlink:title="src/miner.cpp">
<polygon fill="#ffffff" stroke="#000000" points="266.658,-168.5 266.658,-187.5 342.658,-187.5 342.658,-168.5 266.658,-168.5"/>
<text text-anchor="middle" x="304.658" y="-175.5" font-family="Helvetica,sans-Serif" font-size="10.00" fill="#000000">src/miner.cpp</text>
</a>
</g>
</g>
<!-- Node24&#45;&gt;Node36 -->
<g id="edge17" class="edge">
<title>Node24&#45;&gt;Node36</title>
<path fill="none" stroke="#191970" d="M1243.9842,-224.2747C850.6943,-165.064 743.1655,-236.223 352.658,-188 349.4478,-187.6036 346.1329,-187.1045 342.8153,-186.542"/>
<polygon fill="#191970" stroke="#191970" points="1243.5072,-227.7424 1253.9204,-225.7891 1244.5619,-220.8223 1243.5072,-227.7424"/>
</g>
<!-- Node37 -->
<g id="node18" class="node">
<title>Node37</title>
<g id="a_node18"><a xlink:href="net_8cpp.html" target="_top" xlink:title="src/net.cpp">
<polygon fill="#ffffff" stroke="#000000" points="361.158,-168.5 361.158,-187.5 426.158,-187.5 426.158,-168.5 361.158,-168.5"/>
<text text-anchor="middle" x="393.658" y="-175.5" font-family="Helvetica,sans-Serif" font-size="10.00" fill="#000000">src/net.cpp</text>
</a>
</g>
</g>
<!-- Node24&#45;&gt;Node37 -->
<g id="edge18" class="edge">
<title>Node24&#45;&gt;Node37</title>
<path fill="none" stroke="#191970" d="M1243.8313,-224.2453C887.1973,-169.9889 788.786,-237.4418 435.658,-188 432.6888,-187.5843 429.6221,-187.0543 426.5608,-186.456"/>
<polygon fill="#191970" stroke="#191970" points="1243.5016,-227.7358 1253.9184,-225.8017 1244.5691,-220.8177 1243.5016,-227.7358"/>
</g>
<!-- Node38 -->
<g id="node19" class="node">
<title>Node38</title>
<g id="a_node19"><a xlink:href="netmessagemaker_8h.html" target="_top" xlink:title="src/netmessagemaker.h">
<polygon fill="#ffffff" stroke="#000000" points="2326.658,-168.5 2326.658,-187.5 2448.658,-187.5 2448.658,-168.5 2326.658,-168.5"/>
<text text-anchor="middle" x="2387.658" y="-175.5" font-family="Helvetica,sans-Serif" font-size="10.00" fill="#000000">src/netmessagemaker.h</text>
</a>
</g>
</g>
<!-- Node24&#45;&gt;Node38 -->
<g id="edge20" class="edge">
<title>Node24&#45;&gt;Node38</title>
<path fill="none" stroke="#191970" d="M1319.6118,-233.6496C1455.2883,-232.1135 1928.8891,-224.3129 2317.658,-188 2320.5916,-187.726 2323.5903,-187.4155 2326.6162,-187.0777"/>
<polygon fill="#191970" stroke="#191970" points="1319.3022,-230.1527 1309.3408,-233.7611 1319.3782,-237.1523 1319.3022,-230.1527"/>
</g>
<!-- Node39 -->
<g id="node20" class="node">
<title>Node39</title>
<g id="a_node20"><a xlink:href="bantablemodel_8h.html" target="_top" xlink:title="src/qt/bantablemodel.h">
<polygon fill="#ffffff" stroke="#000000" points="18.658,-112.5 18.658,-131.5 134.658,-131.5 134.658,-112.5 18.658,-112.5"/>
<text text-anchor="middle" x="76.658" y="-119.5" font-family="Helvetica,sans-Serif" font-size="10.00" fill="#000000">src/qt/bantablemodel.h</text>
</a>
</g>
</g>
<!-- Node24&#45;&gt;Node39 -->
<g id="edge22" class="edge">
<title>Node24&#45;&gt;Node39</title>
<path fill="none" stroke="#191970" d="M1243.6107,-224.4526C1084.1275,-207.2587 258.8285,-232.9505 148.658,-188 119.769,-176.213 95.2127,-147.2741 83.6849,-131.9284"/>
<polygon fill="#191970" stroke="#191970" points="1243.5617,-227.9745 1253.9238,-225.7662 1244.4463,-221.0306 1243.5617,-227.9745"/>
</g>
<!-- Node41 -->
<g id="node22" class="node">
<title>Node41</title>
<g id="a_node22"><a xlink:href="optionsmodel_8cpp.html" target="_top" xlink:title="src/qt/optionsmodel.cpp">
<polygon fill="#ffffff" stroke="#000000" points="608.158,-168.5 608.158,-187.5 729.158,-187.5 729.158,-168.5 608.158,-168.5"/>
<text text-anchor="middle" x="668.658" y="-175.5" font-family="Helvetica,sans-Serif" font-size="10.00" fill="#000000">src/qt/optionsmodel.cpp</text>
</a>
</g>
</g>
<!-- Node24&#45;&gt;Node41 -->
<g id="edge28" class="edge">
<title>Node24&#45;&gt;Node41</title>
<path fill="none" stroke="#191970" d="M1243.8395,-224.1897C1020.5769,-187.1511 959.555,-211.6063 738.658,-188 735.6064,-187.6739 732.4832,-187.3161 729.3315,-186.9359"/>
<polygon fill="#191970" stroke="#191970" points="1243.4632,-227.6755 1253.9053,-225.8827 1244.6243,-220.7725 1243.4632,-227.6755"/>
</g>
<!-- Node42 -->
<g id="node23" class="node">
<title>Node42</title>
<g id="a_node23"><a xlink:href="raven_8cpp.html" target="_top" xlink:title="src/qt/raven.cpp">
<polygon fill="#ffffff" stroke="#000000" points="747.158,-168.5 747.158,-187.5 834.158,-187.5 834.158,-168.5 747.158,-168.5"/>
<text text-anchor="middle" x="790.658" y="-175.5" font-family="Helvetica,sans-Serif" font-size="10.00" fill="#000000">src/qt/raven.cpp</text>
</a>
</g>
</g>
<!-- Node24&#45;&gt;Node42 -->
<g id="edge29" class="edge">
<title>Node24&#45;&gt;Node42</title>
<path fill="none" stroke="#191970" d="M1243.9809,-224.1805C1066.7442,-193.248 1017.6936,-212.1725 843.658,-188 840.5974,-187.5749 837.4451,-187.0932 834.2757,-186.5766"/>
<polygon fill="#191970" stroke="#191970" points="1243.4379,-227.6387 1253.8955,-225.9391 1244.6605,-220.7463 1243.4379,-227.6387"/>
</g>
<!-- Node43 -->
<g id="node24" class="node">
<title>Node43</title>
<g id="a_node24"><a xlink:href="walletmodel_8cpp.html" target="_top" xlink:title="src/qt/walletmodel.cpp">
<polygon fill="#ffffff" stroke="#000000" points="852.158,-168.5 852.158,-187.5 967.158,-187.5 967.158,-168.5 852.158,-168.5"/>
<text text-anchor="middle" x="909.658" y="-175.5" font-family="Helvetica,sans-Serif" font-size="10.00" fill="#000000">src/qt/walletmodel.cpp</text>
</a>
</g>
</g>
<!-- Node24&#45;&gt;Node43 -->
<g id="edge31" class="edge">
<title>Node24&#45;&gt;Node43</title>
<path fill="none" stroke="#191970" d="M1244.0186,-224.0941C1125.1369,-200.499 1092.5115,-204.4261 976.658,-188 973.6305,-187.5707 970.5269,-187.1255 967.3938,-186.672"/>
<polygon fill="#191970" stroke="#191970" points="1243.3767,-227.535 1253.8701,-226.0726 1244.755,-220.6721 1243.3767,-227.535"/>
</g>
<!-- Node44 -->
<g id="node25" class="node">
<title>Node44</title>
<g id="a_node25"><a xlink:href="rpc_2assets_8cpp.html" target="_top" xlink:title="src/rpc/assets.cpp">
<polygon fill="#ffffff" stroke="#000000" points="985.658,-168.5 985.658,-187.5 1083.658,-187.5 1083.658,-168.5 985.658,-168.5"/>
<text text-anchor="middle" x="1034.658" y="-175.5" font-family="Helvetica,sans-Serif" font-size="10.00" fill="#000000">src/rpc/assets.cpp</text>
</a>
</g>
</g>
<!-- Node24&#45;&gt;Node44 -->
<g id="edge32" class="edge">
<title>Node24&#45;&gt;Node44</title>
<path fill="none" stroke="#191970" d="M1243.8917,-223.8969C1182.1112,-208.9036 1121.5866,-195.9339 1081.1005,-187.5006"/>
<polygon fill="#191970" stroke="#191970" points="1243.2701,-227.3479 1253.8149,-226.3202 1244.9308,-220.5477 1243.2701,-227.3479"/>
</g>
<!-- Node45 -->
<g id="node26" class="node">
<title>Node45</title>
<g id="a_node26"><a xlink:href="rpc_2messages_8cpp.html" target="_top" xlink:title="src/rpc/messages.cpp">
<polygon fill="#ffffff" stroke="#000000" points="1102.158,-168.5 1102.158,-187.5 1215.158,-187.5 1215.158,-168.5 1102.158,-168.5"/>
<text text-anchor="middle" x="1158.658" y="-175.5" font-family="Helvetica,sans-Serif" font-size="10.00" fill="#000000">src/rpc/messages.cpp</text>
</a>
</g>
</g>
<!-- Node24&#45;&gt;Node45 -->
<g id="edge33" class="edge">
<title>Node24&#45;&gt;Node45</title>
<path fill="none" stroke="#191970" d="M1251.1516,-220.1109C1228.8468,-209.9559 1199.1781,-196.4482 1179.5266,-187.5011"/>
<polygon fill="#191970" stroke="#191970" points="1249.9622,-223.415 1260.5136,-224.3733 1252.8627,-217.0442 1249.9622,-223.415"/>
</g>
<!-- Node46 -->
<g id="node27" class="node">
<title>Node46</title>
<g id="a_node27"><a xlink:href="mining_8cpp.html" target="_top" xlink:title="src/rpc/mining.cpp">
<polygon fill="#ffffff" stroke="#000000" points="1233.158,-168.5 1233.158,-187.5 1330.158,-187.5 1330.158,-168.5 1233.158,-168.5"/>
<text text-anchor="middle" x="1281.658" y="-175.5" font-family="Helvetica,sans-Serif" font-size="10.00" fill="#000000">src/rpc/mining.cpp</text>
</a>
</g>
</g>
<!-- Node24&#45;&gt;Node46 -->
<g id="edge34" class="edge">
<title>Node24&#45;&gt;Node46</title>
<path fill="none" stroke="#191970" d="M1281.658,-214.1575C1281.658,-205.155 1281.658,-194.9199 1281.658,-187.6427"/>
<polygon fill="#191970" stroke="#191970" points="1278.1581,-214.2455 1281.658,-224.2455 1285.1581,-214.2456 1278.1581,-214.2455"/>
</g>
<!-- Node47 -->
<g id="node28" class="node">
<title>Node47</title>
<g id="a_node28"><a xlink:href="misc_8cpp.html" target="_top" xlink:title="src/rpc/misc.cpp">
<polygon fill="#ffffff" stroke="#000000" points="1348.158,-168.5 1348.158,-187.5 1437.158,-187.5 1437.158,-168.5 1348.158,-168.5"/>
<text text-anchor="middle" x="1392.658" y="-175.5" font-family="Helvetica,sans-Serif" font-size="10.00" fill="#000000">src/rpc/misc.cpp</text>
</a>
</g>
</g>
<!-- Node24&#45;&gt;Node47 -->
<g id="edge35" class="edge">
<title>Node24&#45;&gt;Node47</title>
<path fill="none" stroke="#191970" d="M1309.7314,-219.8368C1329.7965,-209.7139 1356.2502,-196.3679 1373.8255,-187.5011"/>
<polygon fill="#191970" stroke="#191970" points="1308.0912,-216.7441 1300.7396,-224.3733 1311.2443,-222.9938 1308.0912,-216.7441"/>
</g>
<!-- Node48 -->
<g id="node29" class="node">
<title>Node48</title>
<g id="a_node29"><a xlink:href="rawtransaction_8cpp.html" target="_top" xlink:title="src/rpc/rawtransaction.cpp">
<polygon fill="#ffffff" stroke="#000000" points="2542.658,-168.5 2542.658,-187.5 2674.658,-187.5 2674.658,-168.5 2542.658,-168.5"/>
<text text-anchor="middle" x="2608.658" y="-175.5" font-family="Helvetica,sans-Serif" font-size="10.00" fill="#000000">src/rpc/rawtransaction.cpp</text>
</a>
</g>
</g>
<!-- Node24&#45;&gt;Node48 -->
<g id="edge37" class="edge">
<title>Node24&#45;&gt;Node48</title>
<path fill="none" stroke="#191970" d="M1319.5629,-233.8102C1471.6876,-232.7929 2052.606,-226.4595 2528.658,-188 2533.1225,-187.6393 2537.7209,-187.2126 2542.3499,-186.7419"/>
<polygon fill="#191970" stroke="#191970" points="1319.3359,-230.3114 1309.3583,-233.8746 1319.3802,-237.3113 1319.3359,-230.3114"/>
</g>
<!-- Node49 -->
<g id="node30" class="node">
<title>Node49</title>
<g id="a_node30"><a xlink:href="torcontrol_8cpp.html" target="_top" xlink:title="src/torcontrol.cpp">
<polygon fill="#ffffff" stroke="#000000" points="1455.658,-168.5 1455.658,-187.5 1547.658,-187.5 1547.658,-168.5 1455.658,-168.5"/>
<text text-anchor="middle" x="1501.658" y="-175.5" font-family="Helvetica,sans-Serif" font-size="10.00" fill="#000000">src/torcontrol.cpp</text>
</a>
</g>
</g>
<!-- Node24&#45;&gt;Node49 -->
<g id="edge38" class="edge">
<title>Node24&#45;&gt;Node49</title>
<path fill="none" stroke="#191970" d="M1319.2711,-224.4258C1359.7239,-214.1287 1423.6663,-197.8524 1464.0984,-187.5606"/>
<polygon fill="#191970" stroke="#191970" points="1318.3488,-221.0489 1309.5212,-226.9076 1320.0756,-227.8325 1318.3488,-221.0489"/>
</g>
<!-- Node50 -->
<g id="node31" class="node">
<title>Node50</title>
<g id="a_node31"><a xlink:href="validation_8cpp.html" target="_top" xlink:title="src/validation.cpp">
<polygon fill="#ffffff" stroke="#000000" points="1566.158,-168.5 1566.158,-187.5 1659.158,-187.5 1659.158,-168.5 1566.158,-168.5"/>
<text text-anchor="middle" x="1612.658" y="-175.5" font-family="Helvetica,sans-Serif" font-size="10.00" fill="#000000">src/validation.cpp</text>
</a>
</g>
</g>
<!-- Node24&#45;&gt;Node50 -->
<g id="edge39" class="edge">
<title>Node24&#45;&gt;Node50</title>
<path fill="none" stroke="#191970" d="M1319.3507,-227.8294C1372.354,-219.1218 1471.9186,-202.6529 1556.658,-188 1559.6748,-187.4783 1562.7822,-186.9364 1565.9139,-186.3867"/>
<polygon fill="#191970" stroke="#191970" points="1318.69,-224.3909 1309.3891,-229.4646 1319.824,-231.2985 1318.69,-224.3909"/>
</g>
<!-- Node51 -->
<g id="node32" class="node">
<title>Node51</title>
<g id="a_node32"><a xlink:href="feebumper_8cpp.html" target="_top" xlink:title="src/wallet/feebumper.cpp">
<polygon fill="#ffffff" stroke="#000000" points="1677.658,-168.5 1677.658,-187.5 1803.658,-187.5 1803.658,-168.5 1677.658,-168.5"/>
<text text-anchor="middle" x="1740.658" y="-175.5" font-family="Helvetica,sans-Serif" font-size="10.00" fill="#000000">src/wallet/feebumper.cpp</text>
</a>
</g>
</g>
<!-- Node24&#45;&gt;Node51 -->
<g id="edge40" class="edge">
<title>Node24&#45;&gt;Node51</title>
<path fill="none" stroke="#191970" d="M1319.3626,-229.7681C1388.6077,-221.9404 1540.681,-204.4915 1668.658,-188 1671.5368,-187.629 1674.4795,-187.244 1677.4514,-186.8504"/>
<polygon fill="#191970" stroke="#191970" points="1318.9122,-226.2966 1309.3678,-230.896 1319.6973,-233.2524 1318.9122,-226.2966"/>
</g>
<!-- Node52 -->
<g id="node33" class="node">
<title>Node52</title>
<g id="a_node33"><a xlink:href="wallet_2init_8cpp.html" target="_top" xlink:title="src/wallet/init.cpp">
<polygon fill="#ffffff" stroke="#000000" points="1822.158,-168.5 1822.158,-187.5 1915.158,-187.5 1915.158,-168.5 1822.158,-168.5"/>
<text text-anchor="middle" x="1868.658" y="-175.5" font-family="Helvetica,sans-Serif" font-size="10.00" fill="#000000">src/wallet/init.cpp</text>
</a>
</g>
</g>
<!-- Node24&#45;&gt;Node52 -->
<g id="edge41" class="edge">
<title>Node24&#45;&gt;Node52</title>
<path fill="none" stroke="#191970" d="M1319.6029,-231.8931C1406.8988,-226.7885 1628.6122,-212.3539 1812.658,-188 1815.6932,-187.5984 1818.8144,-187.1474 1821.9563,-186.6649"/>
<polygon fill="#191970" stroke="#191970" points="1319.1751,-228.4119 1309.3938,-232.4832 1319.5791,-235.4002 1319.1751,-228.4119"/>
</g>
<!-- Node53 -->
<g id="node34" class="node">
<title>Node53</title>
<g id="a_node34"><a xlink:href="rpcwallet_8cpp.html" target="_top" xlink:title="src/wallet/rpcwallet.cpp">
<polygon fill="#ffffff" stroke="#000000" points="1933.158,-168.5 1933.158,-187.5 2052.158,-187.5 2052.158,-168.5 1933.158,-168.5"/>
<text text-anchor="middle" x="1992.658" y="-175.5" font-family="Helvetica,sans-Serif" font-size="10.00" fill="#000000">src/wallet/rpcwallet.cpp</text>
</a>
</g>
</g>
<!-- Node24&#45;&gt;Node53 -->
<g id="edge42" class="edge">
<title>Node24&#45;&gt;Node53</title>
<path fill="none" stroke="#191970" d="M1319.442,-232.2835C1418.7904,-227.5566 1695.4761,-213.0142 1924.658,-188 1927.3863,-187.7022 1930.1733,-187.3772 1932.9863,-187.0323"/>
<polygon fill="#191970" stroke="#191970" points="1319.1236,-228.7945 1309.2993,-232.7611 1319.4529,-235.7868 1319.1236,-228.7945"/>
</g>
<!-- Node54 -->
<g id="node35" class="node">
<title>Node54</title>
<g id="a_node35"><a xlink:href="wallet_8cpp.html" target="_top" xlink:title="src/wallet/wallet.cpp">
<polygon fill="#ffffff" stroke="#000000" points="2070.658,-168.5 2070.658,-187.5 2176.658,-187.5 2176.658,-168.5 2070.658,-168.5"/>
<text text-anchor="middle" x="2123.658" y="-175.5" font-family="Helvetica,sans-Serif" font-size="10.00" fill="#000000">src/wallet/wallet.cpp</text>
</a>
</g>
</g>
<!-- Node24&#45;&gt;Node54 -->
<g id="edge43" class="edge">
<title>Node24&#45;&gt;Node54</title>
<path fill="none" stroke="#191970" d="M1319.5919,-233.1205C1432.7228,-230.2061 1777.5442,-219.2094 2061.658,-188 2064.5843,-187.6786 2067.5829,-187.3137 2070.6061,-186.9181"/>
<polygon fill="#191970" stroke="#191970" points="1319.2855,-229.627 1309.3768,-233.3777 1319.4618,-236.6247 1319.2855,-229.627"/>
</g>
<!-- Node27&#45;&gt;Node26 -->
<g id="edge8" class="edge">
<title>Node27&#45;&gt;Node26</title>
<path fill="none" stroke="#191970" d="M519.6516,-162.2097C533.351,-152.3743 550.5317,-140.0394 562.2272,-131.6427"/>
<polygon fill="#191970" stroke="#191970" points="517.3266,-159.5703 511.2446,-168.2455 521.4091,-165.2566 517.3266,-159.5703"/>
</g>
<!-- Node27&#45;&gt;Node28 -->
<g id="edge9" class="edge">
<title>Node27&#45;&gt;Node28</title>
<path fill="none" stroke="#191970" d="M561.3534,-171.0396C574.0306,-169.8563 587.2562,-168.7647 599.658,-168 951.4442,-146.3089 2076.667,-127.2858 2348.2511,-122.9328"/>
<polygon fill="#191970" stroke="#191970" points="560.9492,-167.5622 551.3303,-172.0037 561.6195,-174.53 560.9492,-167.5622"/>
</g>
<!-- Node27&#45;&gt;Node29 -->
<g id="edge10" class="edge">
<title>Node27&#45;&gt;Node29</title>
<path fill="none" stroke="#191970" d="M463.3399,-164.6541C437.0801,-154.4419 401.5089,-140.6086 378.0895,-131.5011"/>
<polygon fill="#191970" stroke="#191970" points="462.3149,-168.0108 472.9036,-168.3733 464.8521,-161.4867 462.3149,-168.0108"/>
</g>
<!-- Node27&#45;&gt;Node35 -->
<g id="edge16" class="edge">
<title>Node27&#45;&gt;Node35</title>
<path fill="none" stroke="#191970" d="M490.439,-158.7493C487.0104,-149.6064 483.063,-139.0798 480.274,-131.6427"/>
<polygon fill="#191970" stroke="#191970" points="487.2117,-160.1112 494.0001,-168.2455 493.766,-157.6533 487.2117,-160.1112"/>
</g>
<!-- Node29&#45;&gt;Node30 -->
<g id="edge11" class="edge">
<title>Node29&#45;&gt;Node30</title>
<path fill="none" stroke="#191970" d="M320.196,-108.5189C294.8812,-98.3201 260.7478,-84.5685 238.2412,-75.5011"/>
<polygon fill="#191970" stroke="#191970" points="319.1796,-111.8827 329.7631,-112.3733 321.7955,-105.3899 319.1796,-111.8827"/>
</g>
<!-- Node31 -->
<g id="node12" class="node">
<title>Node31</title>
<g id="a_node12"><a xlink:href="peertablemodel_8cpp.html" target="_top" xlink:title="src/qt/peertablemodel.cpp">
<polygon fill="#ffffff" stroke="#000000" points="289.158,-56.5 289.158,-75.5 418.158,-75.5 418.158,-56.5 289.158,-56.5"/>
<text text-anchor="middle" x="353.658" y="-63.5" font-family="Helvetica,sans-Serif" font-size="10.00" fill="#000000">src/qt/peertablemodel.cpp</text>
</a>
</g>
</g>
<!-- Node29&#45;&gt;Node31 -->
<g id="edge12" class="edge">
<title>Node29&#45;&gt;Node31</title>
<path fill="none" stroke="#191970" d="M353.658,-102.1575C353.658,-93.155 353.658,-82.9199 353.658,-75.6427"/>
<polygon fill="#191970" stroke="#191970" points="350.1581,-102.2455 353.658,-112.2455 357.1581,-102.2456 350.1581,-102.2455"/>
</g>
<!-- Node29&#45;&gt;Node32 -->
<g id="edge13" class="edge">
<title>Node29&#45;&gt;Node32</title>
<path fill="none" stroke="#191970" d="M385.9977,-108.3833C410.1866,-98.1985 442.6531,-84.5284 464.0929,-75.5011"/>
<polygon fill="#191970" stroke="#191970" points="384.3797,-105.2669 376.5216,-112.3733 387.0961,-111.7184 384.3797,-105.2669"/>
</g>
<!-- Node33 -->
<g id="node14" class="node">
<title>Node33</title>
<g id="a_node14"><a xlink:href="ravengui_8cpp.html" target="_top" xlink:title="src/qt/ravengui.cpp">
<polygon fill="#ffffff" stroke="#000000" points="436.658,-.5 436.658,-19.5 536.658,-19.5 536.658,-.5 436.658,-.5"/>
<text text-anchor="middle" x="486.658" y="-7.5" font-family="Helvetica,sans-Serif" font-size="10.00" fill="#000000">src/qt/ravengui.cpp</text>
</a>
</g>
</g>
<!-- Node32&#45;&gt;Node33 -->
<g id="edge14" class="edge">
<title>Node32&#45;&gt;Node33</title>
<path fill="none" stroke="#191970" d="M486.658,-46.1575C486.658,-37.155 486.658,-26.9199 486.658,-19.6427"/>
<polygon fill="#191970" stroke="#191970" points="483.1581,-46.2455 486.658,-56.2455 490.1581,-46.2456 483.1581,-46.2455"/>
</g>
<!-- Node34 -->
<g id="node15" class="node">
<title>Node34</title>
<g id="a_node15"><a xlink:href="rpcconsole_8cpp.html" target="_top" xlink:title="src/qt/rpcconsole.cpp">
<polygon fill="#ffffff" stroke="#000000" points="119.658,-.5 119.658,-19.5 229.658,-19.5 229.658,-.5 119.658,-.5"/>
<text text-anchor="middle" x="174.658" y="-7.5" font-family="Helvetica,sans-Serif" font-size="10.00" fill="#000000">src/qt/rpcconsole.cpp</text>
</a>
</g>
</g>
<!-- Node32&#45;&gt;Node34 -->
<g id="edge15" class="edge">
<title>Node32&#45;&gt;Node34</title>
<path fill="none" stroke="#191970" d="M426.4791,-55.1986C368.9021,-44.8643 282.9006,-29.4282 227.7945,-19.5373"/>
<polygon fill="#191970" stroke="#191970" points="426.0688,-58.6809 436.5298,-57.0026 427.3055,-51.791 426.0688,-58.6809"/>
</g>
<!-- Node38&#45;&gt;Node28 -->
<g id="edge21" class="edge">
<title>Node38&#45;&gt;Node28</title>
<path fill="none" stroke="#191970" d="M2394.5333,-158.7493C2397.7986,-149.6064 2401.5581,-139.0798 2404.2142,-131.6427"/>
<polygon fill="#191970" stroke="#191970" points="2391.2091,-157.6509 2391.1418,-168.2455 2397.8013,-160.0053 2391.2091,-157.6509"/>
</g>
<!-- Node39&#45;&gt;Node30 -->
<g id="edge24" class="edge">
<title>Node39&#45;&gt;Node30</title>
<path fill="none" stroke="#191970" d="M109.8794,-108.5189C135.012,-98.3201 168.8999,-84.5685 191.2446,-75.5011"/>
<polygon fill="#191970" stroke="#191970" points="108.3311,-105.3699 100.3811,-112.3733 110.9633,-111.8562 108.3311,-105.3699"/>
</g>
<!-- Node39&#45;&gt;Node34 -->
<g id="edge25" class="edge">
<title>Node39&#45;&gt;Node34</title>
<path fill="none" stroke="#191970" d="M42.608,-108.1607C17.092,-95.7459 -10.9463,-76.3879 4.658,-56 18.6884,-37.6687 75.3129,-24.9585 119.4025,-17.616"/>
<polygon fill="#191970" stroke="#191970" points="41.2629,-111.3947 51.8091,-112.4095 44.1976,-105.0395 41.2629,-111.3947"/>
</g>
<!-- Node40 -->
<g id="node21" class="node">
<title>Node40</title>
<g id="a_node21"><a xlink:href="bantablemodel_8cpp.html" target="_top" xlink:title="src/qt/bantablemodel.cpp">
<polygon fill="#ffffff" stroke="#000000" points="13.658,-56.5 13.658,-75.5 139.658,-75.5 139.658,-56.5 13.658,-56.5"/>
<text text-anchor="middle" x="76.658" y="-63.5" font-family="Helvetica,sans-Serif" font-size="10.00" fill="#000000">src/qt/bantablemodel.cpp</text>
</a>
</g>
</g>
<!-- Node39&#45;&gt;Node40 -->
<g id="edge23" class="edge">
<title>Node39&#45;&gt;Node40</title>
<path fill="none" stroke="#191970" d="M76.658,-102.1575C76.658,-93.155 76.658,-82.9199 76.658,-75.6427"/>
<polygon fill="#191970" stroke="#191970" points="73.1581,-102.2455 76.658,-112.2455 80.1581,-102.2456 73.1581,-102.2455"/>
</g>
<!-- Node55&#45;&gt;Node28 -->
<g id="edge46" class="edge">
<title>Node55&#45;&gt;Node28</title>
<path fill="none" stroke="#191970" d="M2702.321,-214.0322C2700.9497,-199.1564 2696.5695,-179.5041 2683.658,-168 2652.4212,-140.1678 2538.2666,-128.9639 2466.9188,-124.6121"/>
<polygon fill="#191970" stroke="#191970" points="2698.8393,-214.4665 2702.8746,-224.2627 2705.8291,-214.0882 2698.8393,-214.4665"/>
</g>
<!-- Node55&#45;&gt;Node48 -->
<g id="edge47" class="edge">
<title>Node55&#45;&gt;Node48</title>
<path fill="none" stroke="#191970" d="M2677.5575,-219.0465C2660.832,-209.0824 2639.3412,-196.2794 2624.844,-187.6427"/>
<polygon fill="#191970" stroke="#191970" points="2675.9021,-222.1343 2686.2845,-224.2455 2679.4848,-216.1206 2675.9021,-222.1343"/>
</g>
<!-- Node56 -->
<g id="node37" class="node">
<title>Node56</title>
<g id="a_node37"><a xlink:href="merkleblock_8cpp.html" target="_top" xlink:title="src/merkleblock.cpp">
<polygon fill="#ffffff" stroke="#000000" points="2866.658,-168.5 2866.658,-187.5 2970.658,-187.5 2970.658,-168.5 2866.658,-168.5"/>
<text text-anchor="middle" x="2918.658" y="-175.5" font-family="Helvetica,sans-Serif" font-size="10.00" fill="#000000">src/merkleblock.cpp</text>
</a>
</g>
</g>
<!-- Node55&#45;&gt;Node56 -->
<g id="edge45" class="edge">
<title>Node55&#45;&gt;Node56</title>
<path fill="none" stroke="#191970" d="M2749.518,-221.8511C2789.2654,-211.5462 2845.489,-196.9697 2882.0109,-187.5011"/>
<polygon fill="#191970" stroke="#191970" points="2748.5913,-218.4756 2739.7898,-224.3733 2750.3481,-225.2516 2748.5913,-218.4756"/>
</g>
<!-- Node57 -->
<g id="node38" class="node">
<title>Node57</title>
<g id="a_node38"><a xlink:href="rpcdump_8cpp.html" target="_top" xlink:title="src/wallet/rpcdump.cpp">
<polygon fill="#ffffff" stroke="#000000" points="2730.658,-168.5 2730.658,-187.5 2848.658,-187.5 2848.658,-168.5 2730.658,-168.5"/>
<text text-anchor="middle" x="2789.658" y="-175.5" font-family="Helvetica,sans-Serif" font-size="10.00" fill="#000000">src/wallet/rpcdump.cpp</text>
</a>
</g>
</g>
<!-- Node55&#45;&gt;Node57 -->
<g id="edge48" class="edge">
<title>Node55&#45;&gt;Node57</title>
<path fill="none" stroke="#191970" d="M2726.3205,-218.769C2741.7371,-208.8456 2761.384,-196.1994 2774.6775,-187.6427"/>
<polygon fill="#191970" stroke="#191970" points="2724.3266,-215.89 2717.8123,-224.2455 2728.1153,-221.7761 2724.3266,-215.89"/>
</g>
</g>
</svg>
