<?xml version="1.0" encoding="UTF-8" standalone="no"?>
<!DOCTYPE svg PUBLIC "-//W3C//DTD SVG 1.1//EN"
 "http://www.w3.org/Graphics/SVG/1.1/DTD/svg11.dtd">
<!-- Generated by graphviz version 2.40.1 (20161225.0304)
 -->
<!-- Title: CDiskBlockIndex::GetBlockHash Pages: 1 -->
<svg width="859pt" height="1358pt"
 viewBox="0.00 0.00 859.00 1358.00" xmlns="http://www.w3.org/2000/svg" xmlns:xlink="http://www.w3.org/1999/xlink">
<g id="graph0" class="graph" transform="scale(1 1) rotate(0) translate(4 1354)">
<title>CDiskBlockIndex::GetBlockHash</title>
<polygon fill="#ffffff" stroke="transparent" points="-4,4 -4,-1354 855,-1354 855,4 -4,4"/>
<!-- Node4 -->
<g id="node1" class="node">
<title>Node4</title>
<polygon fill="#bfbfbf" stroke="#000000" points="0,-665.5 0,-684.5 163,-684.5 163,-665.5 0,-665.5"/>
<text text-anchor="middle" x="81.5" y="-672.5" font-family="Helvetica,sans-Serif" font-size="10.00" fill="#000000">CDiskBlockIndex::GetBlockHash</text>
</g>
<!-- Node5 -->
<g id="node2" class="node">
<title>Node5</title>
<g id="a_node2"><a xlink:href="class_c_block_header.html#af0239f86a13f622a826e9eea66b2d7f3" target="_top" xlink:title="CBlockHeader::GetHash">
<polygon fill="#ffffff" stroke="#000000" points="199,-665.5 199,-684.5 324,-684.5 324,-665.5 199,-665.5"/>
<text text-anchor="middle" x="261.5" y="-672.5" font-family="Helvetica,sans-Serif" font-size="10.00" fill="#000000">CBlockHeader::GetHash</text>
</a>
</g>
</g>
<!-- Node4&#45;&gt;Node5 -->
<g id="edge1" class="edge">
<title>Node4&#45;&gt;Node5</title>
<path fill="none" stroke="#191970" d="M163.0735,-675C171.6043,-675 180.2371,-675 188.6615,-675"/>
<polygon fill="#191970" stroke="#191970" points="188.8132,-678.5001 198.8132,-675 188.8132,-671.5001 188.8132,-678.5001"/>
</g>
<!-- Node6 -->
<g id="node3" class="node">
<title>Node6</title>
<g id="a_node3"><a xlink:href="hash_8h.html#ae235360a54ec41155191de749170ab61" target="_top" xlink:title="HashX16R">
<polygon fill="#ffffff" stroke="#000000" points="360,-665.5 360,-684.5 425,-684.5 425,-665.5 360,-665.5"/>
<text text-anchor="middle" x="392.5" y="-672.5" font-family="Helvetica,sans-Serif" font-size="10.00" fill="#000000">HashX16R</text>
</a>
</g>
</g>
<!-- Node5&#45;&gt;Node6 -->
<g id="edge2" class="edge">
<title>Node5&#45;&gt;Node6</title>
<path fill="none" stroke="#191970" d="M324.3141,-675C332.9942,-675 341.7373,-675 349.9322,-675"/>
<polygon fill="#191970" stroke="#191970" points="349.9734,-678.5001 359.9733,-675 349.9733,-671.5001 349.9734,-678.5001"/>
</g>
<!-- Node7 -->
<g id="node4" class="node">
<title>Node7</title>
<g id="a_node4"><a xlink:href="hash_8h.html#a11b13e0d71722496589d1bdc9970b5b5" target="_top" xlink:title="GetHashSelection">
<polygon fill="#ffffff" stroke="#000000" points="475,-1330.5 475,-1349.5 571,-1349.5 571,-1330.5 475,-1330.5"/>
<text text-anchor="middle" x="523" y="-1337.5" font-family="Helvetica,sans-Serif" font-size="10.00" fill="#000000">GetHashSelection</text>
</a>
</g>
</g>
<!-- Node6&#45;&gt;Node7 -->
<g id="edge3" class="edge">
<title>Node6&#45;&gt;Node7</title>
<path fill="none" stroke="#191970" d="M392.8934,-684.778C396.0754,-761.8281 418.5782,-1269.5521 461,-1321 462.513,-1322.8349 464.1985,-1324.4964 466.0177,-1326.0005"/>
<polygon fill="#191970" stroke="#191970" points="464.4328,-1329.1438 474.73,-1331.6378 468.2356,-1323.2668 464.4328,-1329.1438"/>
</g>
<!-- Node9 -->
<g id="node6" class="node">
<title>Node9</title>
<g id="a_node6"><a xlink:href="groestl_8c.html#aae8e752e52ba49c4b4d3201138db4e21" target="_top" xlink:title="Initialize a Groestl&#45;512 context. ">
<polygon fill="#ffffff" stroke="#000000" points="472.5,-1292.5 472.5,-1311.5 573.5,-1311.5 573.5,-1292.5 472.5,-1292.5"/>
<text text-anchor="middle" x="523" y="-1299.5" font-family="Helvetica,sans-Serif" font-size="10.00" fill="#000000">sph_groestl512_init</text>
</a>
</g>
</g>
<!-- Node6&#45;&gt;Node9 -->
<g id="edge5" class="edge">
<title>Node6&#45;&gt;Node9</title>
<path fill="none" stroke="#191970" d="M392.956,-684.67C396.5306,-758.7542 420.9714,-1234.777 461,-1283 462.0112,-1284.2182 463.0983,-1285.3598 464.2501,-1286.4297"/>
<polygon fill="#191970" stroke="#191970" points="462.5097,-1289.4898 472.6682,-1292.4993 466.6037,-1283.8118 462.5097,-1289.4898"/>
</g>
<!-- Node10 -->
<g id="node7" class="node">
<title>Node10</title>
<g id="a_node7"><a xlink:href="groestl_8c.html#a6234cab162aecb29f261f0131f1aaf0b" target="_top" xlink:title="Process some data bytes. ">
<polygon fill="#ffffff" stroke="#000000" points="481.5,-1254.5 481.5,-1273.5 564.5,-1273.5 564.5,-1254.5 481.5,-1254.5"/>
<text text-anchor="middle" x="523" y="-1261.5" font-family="Helvetica,sans-Serif" font-size="10.00" fill="#000000">sph_groestl512</text>
</a>
</g>
</g>
<!-- Node6&#45;&gt;Node10 -->
<g id="edge6" class="edge">
<title>Node6&#45;&gt;Node10</title>
<path fill="none" stroke="#191970" d="M393.0232,-684.5141C397.0021,-755.4248 423.3533,-1199.9869 461,-1245 464.1305,-1248.7431 467.9783,-1251.7633 472.2107,-1254.1982"/>
<polygon fill="#191970" stroke="#191970" points="470.7865,-1257.3957 481.3319,-1258.418 473.7257,-1251.0426 470.7865,-1257.3957"/>
</g>
<!-- Node11 -->
<g id="node8" class="node">
<title>Node11</title>
<g id="a_node8"><a xlink:href="groestl_8c.html#a4e6cdfd9e3ceefe1421d858aba818106" target="_top" xlink:title="Terminate the current Groestl&#45;512 computation and output the result into the provided buffer...">
<polygon fill="#ffffff" stroke="#000000" points="467.5,-1216.5 467.5,-1235.5 578.5,-1235.5 578.5,-1216.5 467.5,-1216.5"/>
<text text-anchor="middle" x="523" y="-1223.5" font-family="Helvetica,sans-Serif" font-size="10.00" fill="#000000">sph_groestl512_close</text>
</a>
</g>
</g>
<!-- Node6&#45;&gt;Node11 -->
<g id="edge7" class="edge">
<title>Node6&#45;&gt;Node11</title>
<path fill="none" stroke="#191970" d="M393.1235,-684.7439C397.61,-753.5977 425.7988,-1165.2706 461,-1207 462.0208,-1208.2101 463.1165,-1209.3446 464.2759,-1210.4081"/>
<polygon fill="#191970" stroke="#191970" points="462.5591,-1213.483 472.731,-1216.4467 466.6274,-1207.7866 462.5591,-1213.483"/>
</g>
<!-- Node12 -->
<g id="node9" class="node">
<title>Node12</title>
<g id="a_node9"><a xlink:href="jh_8c.html#a88105066d99c97dcf65545f5c1d4bfe3" target="_top" xlink:title="Initialize a JH&#45;512 context. ">
<polygon fill="#ffffff" stroke="#000000" points="483.5,-1178.5 483.5,-1197.5 562.5,-1197.5 562.5,-1178.5 483.5,-1178.5"/>
<text text-anchor="middle" x="523" y="-1185.5" font-family="Helvetica,sans-Serif" font-size="10.00" fill="#000000">sph_jh512_init</text>
</a>
</g>
</g>
<!-- Node6&#45;&gt;Node12 -->
<g id="edge8" class="edge">
<title>Node6&#45;&gt;Node12</title>
<path fill="none" stroke="#191970" d="M393.2348,-684.8857C398.2502,-751.2568 428.2226,-1130.5253 461,-1169 464.6048,-1173.2313 469.1254,-1176.5372 474.0744,-1179.1173"/>
<polygon fill="#191970" stroke="#191970" points="472.7658,-1182.3638 483.3402,-1183.0206 475.4834,-1175.9129 472.7658,-1182.3638"/>
</g>
<!-- Node13 -->
<g id="node10" class="node">
<title>Node13</title>
<g id="a_node10"><a xlink:href="jh_8c.html#a13f33e8600ec764f8b1f34c73da667c9" target="_top" xlink:title="Process some data bytes. ">
<polygon fill="#ffffff" stroke="#000000" points="492.5,-1140.5 492.5,-1159.5 553.5,-1159.5 553.5,-1140.5 492.5,-1140.5"/>
<text text-anchor="middle" x="523" y="-1147.5" font-family="Helvetica,sans-Serif" font-size="10.00" fill="#000000">sph_jh512</text>
</a>
</g>
</g>
<!-- Node6&#45;&gt;Node13 -->
<g id="edge9" class="edge">
<title>Node6&#45;&gt;Node13</title>
<path fill="none" stroke="#191970" d="M392.6,-684.8014C393.4057,-744.6688 400.5097,-1060.8041 461,-1131 466.652,-1137.5588 474.5035,-1141.8916 482.723,-1144.744"/>
<polygon fill="#191970" stroke="#191970" points="481.8581,-1148.1363 492.4312,-1147.457 483.7422,-1141.3946 481.8581,-1148.1363"/>
</g>
<!-- Node14 -->
<g id="node11" class="node">
<title>Node14</title>
<g id="a_node11"><a xlink:href="jh_8c.html#ad2d77c0326724c0a85719348bec9a672" target="_top" xlink:title="Terminate the current JH&#45;512 computation and output the result into the provided buffer. ">
<polygon fill="#ffffff" stroke="#000000" points="478.5,-1102.5 478.5,-1121.5 567.5,-1121.5 567.5,-1102.5 478.5,-1102.5"/>
<text text-anchor="middle" x="523" y="-1109.5" font-family="Helvetica,sans-Serif" font-size="10.00" fill="#000000">sph_jh512_close</text>
</a>
</g>
</g>
<!-- Node6&#45;&gt;Node14 -->
<g id="edge10" class="edge">
<title>Node6&#45;&gt;Node14</title>
<path fill="none" stroke="#191970" d="M392.7441,-684.7159C394.3599,-741.4094 405.2478,-1029.1676 461,-1093 463.4786,-1095.8379 466.3689,-1098.2585 469.5208,-1100.3224"/>
<polygon fill="#191970" stroke="#191970" points="467.8945,-1103.4216 478.372,-1104.9942 471.1621,-1097.231 467.8945,-1103.4216"/>
</g>
<!-- Node15 -->
<g id="node12" class="node">
<title>Node15</title>
<g id="a_node12"><a xlink:href="keccak_8c.html#a84f1e9fe46fe6ce80c6b8dced5892c9a" target="_top" xlink:title="Initialize a Keccak&#45;512 context. ">
<polygon fill="#ffffff" stroke="#000000" points="471.5,-1064.5 471.5,-1083.5 574.5,-1083.5 574.5,-1064.5 471.5,-1064.5"/>
<text text-anchor="middle" x="523" y="-1071.5" font-family="Helvetica,sans-Serif" font-size="10.00" fill="#000000">sph_keccak512_init</text>
</a>
</g>
</g>
<!-- Node6&#45;&gt;Node15 -->
<g id="edge11" class="edge">
<title>Node6&#45;&gt;Node15</title>
<path fill="none" stroke="#191970" d="M392.9086,-684.5232C395.3763,-737.6891 409.9383,-997.4684 461,-1055 462.1817,-1056.3314 463.4539,-1057.5708 464.801,-1058.7245"/>
<polygon fill="#191970" stroke="#191970" points="462.9851,-1061.722 473.2257,-1064.4389 466.9145,-1055.9289 462.9851,-1061.722"/>
</g>
<!-- Node16 -->
<g id="node13" class="node">
<title>Node16</title>
<g id="a_node13"><a xlink:href="keccak_8c.html#a008a64465822dbd2900686f161feb31b" target="_top" xlink:title="Process some data bytes. ">
<polygon fill="#ffffff" stroke="#000000" points="480.5,-1026.5 480.5,-1045.5 565.5,-1045.5 565.5,-1026.5 480.5,-1026.5"/>
<text text-anchor="middle" x="523" y="-1033.5" font-family="Helvetica,sans-Serif" font-size="10.00" fill="#000000">sph_keccak512</text>
</a>
</g>
</g>
<!-- Node6&#45;&gt;Node16 -->
<g id="edge12" class="edge">
<title>Node6&#45;&gt;Node16</title>
<path fill="none" stroke="#191970" d="M393.1167,-684.542C396.5324,-734.5246 414.6798,-965.8157 461,-1017 463.9319,-1020.2398 467.4,-1022.934 471.1741,-1025.1735"/>
<polygon fill="#191970" stroke="#191970" points="469.8983,-1028.4434 480.428,-1029.6166 472.9282,-1022.1331 469.8983,-1028.4434"/>
</g>
<!-- Node17 -->
<g id="node14" class="node">
<title>Node17</title>
<g id="a_node14"><a xlink:href="keccak_8c.html#abb8c404657c19eec855f28750b70a3c0" target="_top" xlink:title="Terminate the current Keccak&#45;512 computation and output the result into the provided buffer...">
<polygon fill="#ffffff" stroke="#000000" points="466.5,-988.5 466.5,-1007.5 579.5,-1007.5 579.5,-988.5 466.5,-988.5"/>
<text text-anchor="middle" x="523" y="-995.5" font-family="Helvetica,sans-Serif" font-size="10.00" fill="#000000">sph_keccak512_close</text>
</a>
</g>
</g>
<!-- Node6&#45;&gt;Node17 -->
<g id="edge13" class="edge">
<title>Node6&#45;&gt;Node17</title>
<path fill="none" stroke="#191970" d="M393.3894,-684.6988C397.8732,-731.5672 419.4392,-934.166 461,-979 462.2365,-980.3339 463.5639,-981.5751 464.9658,-982.73"/>
<polygon fill="#191970" stroke="#191970" points="463.4113,-985.8957 473.6948,-988.4453 467.2457,-980.0393 463.4113,-985.8957"/>
</g>
<!-- Node19 -->
<g id="node16" class="node">
<title>Node19</title>
<g id="a_node16"><a xlink:href="luffa_8c.html#ac3dafb6e61b453015ce1d8aeedad99bc" target="_top" xlink:title="Initialize a Luffa&#45;512 context. ">
<polygon fill="#ffffff" stroke="#000000" points="478,-.5 478,-19.5 568,-19.5 568,-.5 478,-.5"/>
<text text-anchor="middle" x="523" y="-7.5" font-family="Helvetica,sans-Serif" font-size="10.00" fill="#000000">sph_luffa512_init</text>
</a>
</g>
</g>
<!-- Node6&#45;&gt;Node19 -->
<g id="edge15" class="edge">
<title>Node6&#45;&gt;Node19</title>
<path fill="none" stroke="#191970" d="M392.8934,-665.222C396.0754,-588.1719 418.5782,-80.4479 461,-29 463.2896,-26.2232 465.9743,-23.8436 468.9196,-21.8054"/>
<polygon fill="#191970" stroke="#191970" points="470.7255,-24.8066 477.7986,-16.9185 467.3502,-18.6741 470.7255,-24.8066"/>
</g>
<!-- Node23 -->
<g id="node20" class="node">
<title>Node23</title>
<g id="a_node20"><a xlink:href="luffa_8c.html#a283df58d0ff588f049437ba196d55baf" target="_top" xlink:title="Process some data bytes. ">
<polygon fill="#ffffff" stroke="#000000" points="487,-912.5 487,-931.5 559,-931.5 559,-912.5 487,-912.5"/>
<text text-anchor="middle" x="523" y="-919.5" font-family="Helvetica,sans-Serif" font-size="10.00" fill="#000000">sph_luffa512</text>
</a>
</g>
</g>
<!-- Node6&#45;&gt;Node23 -->
<g id="edge19" class="edge">
<title>Node6&#45;&gt;Node23</title>
<path fill="none" stroke="#191970" d="M394.1382,-684.5382C401.0189,-723.5643 428.7219,-870.5437 461,-903 465.5846,-907.6099 471.2558,-911.1068 477.2902,-913.7583"/>
<polygon fill="#191970" stroke="#191970" points="476.3735,-917.1489 486.9676,-917.2675 478.7598,-910.5681 476.3735,-917.1489"/>
</g>
<!-- Node24 -->
<g id="node21" class="node">
<title>Node24</title>
<g id="a_node21"><a xlink:href="luffa_8c.html#a8f6bedbac9188807f44a00ae283ded14" target="_top" xlink:title="Terminate the current Luffa&#45;512 computation and output the result into the provided buffer...">
<polygon fill="#ffffff" stroke="#000000" points="472.5,-950.5 472.5,-969.5 573.5,-969.5 573.5,-950.5 472.5,-950.5"/>
<text text-anchor="middle" x="523" y="-957.5" font-family="Helvetica,sans-Serif" font-size="10.00" fill="#000000">sph_luffa512_close</text>
</a>
</g>
</g>
<!-- Node6&#45;&gt;Node24 -->
<g id="edge20" class="edge">
<title>Node6&#45;&gt;Node24</title>
<path fill="none" stroke="#191970" d="M393.7136,-684.6197C399.3295,-727.6906 424.0991,-902.3876 461,-941 462.4001,-942.465 463.9098,-943.8179 465.5068,-945.0673"/>
<polygon fill="#191970" stroke="#191970" points="463.7891,-948.1218 474.1158,-950.4905 467.5202,-942.199 463.7891,-948.1218"/>
</g>
<!-- Node26 -->
<g id="node23" class="node">
<title>Node26</title>
<g id="a_node23"><a xlink:href="cubehash_8c.html#a5f59b7878edb26c01da43141f158b6eb" target="_top" xlink:title="Initialize a CubeHash&#45;512 context. ">
<polygon fill="#ffffff" stroke="#000000" points="466.5,-836.5 466.5,-855.5 579.5,-855.5 579.5,-836.5 466.5,-836.5"/>
<text text-anchor="middle" x="523" y="-843.5" font-family="Helvetica,sans-Serif" font-size="10.00" fill="#000000">sph_cubehash512_init</text>
</a>
</g>
</g>
<!-- Node6&#45;&gt;Node26 -->
<g id="edge22" class="edge">
<title>Node6&#45;&gt;Node26</title>
<path fill="none" stroke="#191970" d="M394.0577,-684.8291C398.8413,-711.729 415.832,-787.194 461,-827 462.9215,-828.6934 464.9911,-830.2359 467.1673,-831.6408"/>
<polygon fill="#191970" stroke="#191970" points="465.5392,-834.7393 476.0019,-836.4069 468.8628,-828.5786 465.5392,-834.7393"/>
</g>
<!-- Node27 -->
<g id="node24" class="node">
<title>Node27</title>
<g id="a_node24"><a xlink:href="cubehash_8c.html#ad63e5eeb1d5d272d84be5272d281e44e" target="_top" xlink:title="Process some data bytes. ">
<polygon fill="#ffffff" stroke="#000000" points="475.5,-798.5 475.5,-817.5 570.5,-817.5 570.5,-798.5 475.5,-798.5"/>
<text text-anchor="middle" x="523" y="-805.5" font-family="Helvetica,sans-Serif" font-size="10.00" fill="#000000">sph_cubehash512</text>
</a>
</g>
</g>
<!-- Node6&#45;&gt;Node27 -->
<g id="edge23" class="edge">
<title>Node6&#45;&gt;Node27</title>
<path fill="none" stroke="#191970" d="M395.5639,-684.5667C403.0612,-706.4398 424.4373,-760.415 461,-789 463.3282,-790.8202 465.8307,-792.4668 468.4475,-793.9564"/>
<polygon fill="#191970" stroke="#191970" points="467.1715,-797.2274 477.6968,-798.4398 470.2249,-790.9284 467.1715,-797.2274"/>
</g>
<!-- Node28 -->
<g id="node25" class="node">
<title>Node28</title>
<g id="a_node25"><a xlink:href="cubehash_8c.html#a8450930057421f35b61795e8101e44d1" target="_top" xlink:title="Terminate the current CubeHash&#45;512 computation and output the result into the provided buffer...">
<polygon fill="#ffffff" stroke="#000000" points="461,-874.5 461,-893.5 585,-893.5 585,-874.5 461,-874.5"/>
<text text-anchor="middle" x="523" y="-881.5" font-family="Helvetica,sans-Serif" font-size="10.00" fill="#000000">sph_cubehash512_close</text>
</a>
</g>
</g>
<!-- Node6&#45;&gt;Node28 -->
<g id="edge24" class="edge">
<title>Node6&#45;&gt;Node28</title>
<path fill="none" stroke="#191970" d="M393.0712,-684.9209C395.4113,-716.1629 406.9191,-813.4885 461,-865 462.6559,-866.5772 464.4393,-868.0237 466.3196,-869.3504"/>
<polygon fill="#191970" stroke="#191970" points="464.6822,-872.4467 475.0893,-874.4329 468.1923,-866.3903 464.6822,-872.4467"/>
</g>
<!-- Node30 -->
<g id="node27" class="node">
<title>Node30</title>
<g id="a_node27"><a xlink:href="shavite_8c.html#aa2c7b79f7fda3cde0d0086b13304645b" target="_top" xlink:title="Initialize a SHAvite&#45;512 context. ">
<polygon fill="#ffffff" stroke="#000000" points="471.5,-722.5 471.5,-741.5 574.5,-741.5 574.5,-722.5 471.5,-722.5"/>
<text text-anchor="middle" x="523" y="-729.5" font-family="Helvetica,sans-Serif" font-size="10.00" fill="#000000">sph_shavite512_init</text>
</a>
</g>
</g>
<!-- Node6&#45;&gt;Node30 -->
<g id="edge26" class="edge">
<title>Node6&#45;&gt;Node30</title>
<path fill="none" stroke="#191970" d="M407.5437,-684.5514C421.123,-692.8768 441.8506,-704.8604 461,-713 466.1804,-715.202 471.7024,-717.2686 477.2348,-719.1688"/>
<polygon fill="#191970" stroke="#191970" points="476.5404,-722.6239 487.133,-722.4025 478.7143,-715.97 476.5404,-722.6239"/>
</g>
<!-- Node31 -->
<g id="node28" class="node">
<title>Node31</title>
<g id="a_node28"><a xlink:href="shavite_8c.html#a17ebbdb9a0c3d75d0ff0440f05129b7e" target="_top" xlink:title="Process some data bytes. ">
<polygon fill="#ffffff" stroke="#000000" points="480.5,-684.5 480.5,-703.5 565.5,-703.5 565.5,-684.5 480.5,-684.5"/>
<text text-anchor="middle" x="523" y="-691.5" font-family="Helvetica,sans-Serif" font-size="10.00" fill="#000000">sph_shavite512</text>
</a>
</g>
</g>
<!-- Node6&#45;&gt;Node31 -->
<g id="edge27" class="edge">
<title>Node6&#45;&gt;Node31</title>
<path fill="none" stroke="#191970" d="M425.094,-679.7455C438.8423,-681.7472 455.1966,-684.1282 470.5638,-686.3656"/>
<polygon fill="#191970" stroke="#191970" points="470.0825,-689.8324 480.4824,-687.8097 471.091,-682.9054 470.0825,-689.8324"/>
</g>
<!-- Node32 -->
<g id="node29" class="node">
<title>Node32</title>
<g id="a_node29"><a xlink:href="shavite_8c.html#ade0688e75cf0cf367af9b510d8618a75" target="_top" xlink:title="Terminate the current SHAvite&#45;512 computation and output the result into the provided buffer...">
<polygon fill="#ffffff" stroke="#000000" points="466.5,-646.5 466.5,-665.5 579.5,-665.5 579.5,-646.5 466.5,-646.5"/>
<text text-anchor="middle" x="523" y="-653.5" font-family="Helvetica,sans-Serif" font-size="10.00" fill="#000000">sph_shavite512_close</text>
</a>
</g>
</g>
<!-- Node6&#45;&gt;Node32 -->
<g id="edge28" class="edge">
<title>Node6&#45;&gt;Node32</title>
<path fill="none" stroke="#191970" d="M425.094,-670.2545C434.6889,-668.8576 445.5531,-667.2758 456.4652,-665.6871"/>
<polygon fill="#191970" stroke="#191970" points="457.0736,-669.1355 466.465,-664.2312 456.065,-662.2085 457.0736,-669.1355"/>
</g>
<!-- Node33 -->
<g id="node30" class="node">
<title>Node33</title>
<g id="a_node30"><a xlink:href="simd_8c.html#a77710618946f707ff6d97661d220aefb" target="_top" xlink:title="Initialize an SIMD&#45;512 context. ">
<polygon fill="#ffffff" stroke="#000000" points="477,-608.5 477,-627.5 569,-627.5 569,-608.5 477,-608.5"/>
<text text-anchor="middle" x="523" y="-615.5" font-family="Helvetica,sans-Serif" font-size="10.00" fill="#000000">sph_simd512_init</text>
</a>
</g>
</g>
<!-- Node6&#45;&gt;Node33 -->
<g id="edge29" class="edge">
<title>Node6&#45;&gt;Node33</title>
<path fill="none" stroke="#191970" d="M407.5437,-665.4486C421.123,-657.1232 441.8506,-645.1396 461,-637 466.1804,-634.798 471.7024,-632.7314 477.2348,-630.8312"/>
<polygon fill="#191970" stroke="#191970" points="478.7143,-634.03 487.133,-627.5975 476.5404,-627.3761 478.7143,-634.03"/>
</g>
<!-- Node34 -->
<g id="node31" class="node">
<title>Node34</title>
<g id="a_node31"><a xlink:href="simd_8c.html#a36b145a2e11afe26421e76885a1bd4ac" target="_top" xlink:title="Process some data bytes. ">
<polygon fill="#ffffff" stroke="#000000" points="486,-570.5 486,-589.5 560,-589.5 560,-570.5 486,-570.5"/>
<text text-anchor="middle" x="523" y="-577.5" font-family="Helvetica,sans-Serif" font-size="10.00" fill="#000000">sph_simd512</text>
</a>
</g>
</g>
<!-- Node6&#45;&gt;Node34 -->
<g id="edge30" class="edge">
<title>Node6&#45;&gt;Node34</title>
<path fill="none" stroke="#191970" d="M398.6412,-665.3029C409.3486,-649.1744 432.9867,-616.8495 461,-599 465.6879,-596.013 470.8738,-593.4714 476.1912,-591.3145"/>
<polygon fill="#191970" stroke="#191970" points="477.6093,-594.5237 485.8256,-587.8346 475.2312,-587.94 477.6093,-594.5237"/>
</g>
<!-- Node35 -->
<g id="node32" class="node">
<title>Node35</title>
<g id="a_node32"><a xlink:href="simd_8c.html#aa78bffcf6682d82c71564f11967898a5" target="_top" xlink:title="Terminate the current SIMD&#45;512 computation and output the result into the provided buffer...">
<polygon fill="#ffffff" stroke="#000000" points="471.5,-760.5 471.5,-779.5 574.5,-779.5 574.5,-760.5 471.5,-760.5"/>
<text text-anchor="middle" x="523" y="-767.5" font-family="Helvetica,sans-Serif" font-size="10.00" fill="#000000">sph_simd512_close</text>
</a>
</g>
</g>
<!-- Node6&#45;&gt;Node35 -->
<g id="edge31" class="edge">
<title>Node6&#45;&gt;Node35</title>
<path fill="none" stroke="#191970" d="M398.6412,-684.6971C409.3486,-700.8256 432.9867,-733.1505 461,-751 464.1777,-753.0247 467.5842,-754.8448 471.1054,-756.4791"/>
<polygon fill="#191970" stroke="#191970" points="470.0357,-759.8234 480.6156,-760.3844 472.6947,-753.3481 470.0357,-759.8234"/>
</g>
<!-- Node37 -->
<g id="node34" class="node">
<title>Node37</title>
<g id="a_node34"><a xlink:href="echo_8c.html#acf769c25dbacfe1ed188b80b24392a20" target="_top" xlink:title="Initialize an ECHO&#45;512 context. ">
<polygon fill="#ffffff" stroke="#000000" points="477,-494.5 477,-513.5 569,-513.5 569,-494.5 477,-494.5"/>
<text text-anchor="middle" x="523" y="-501.5" font-family="Helvetica,sans-Serif" font-size="10.00" fill="#000000">sph_echo512_init</text>
</a>
</g>
</g>
<!-- Node6&#45;&gt;Node37 -->
<g id="edge33" class="edge">
<title>Node6&#45;&gt;Node37</title>
<path fill="none" stroke="#191970" d="M394.0577,-665.1709C398.8413,-638.271 415.832,-562.806 461,-523 463.1775,-521.081 465.5453,-519.3558 468.0428,-517.8048"/>
<polygon fill="#191970" stroke="#191970" points="469.6896,-520.8935 476.9469,-513.1745 466.46,-514.683 469.6896,-520.8935"/>
</g>
<!-- Node38 -->
<g id="node35" class="node">
<title>Node38</title>
<g id="a_node35"><a xlink:href="echo_8c.html#a41854b5910e1f10be467d9e3203ce9c1" target="_top" xlink:title="Process some data bytes. ">
<polygon fill="#ffffff" stroke="#000000" points="486,-456.5 486,-475.5 560,-475.5 560,-456.5 486,-456.5"/>
<text text-anchor="middle" x="523" y="-463.5" font-family="Helvetica,sans-Serif" font-size="10.00" fill="#000000">sph_echo512</text>
</a>
</g>
</g>
<!-- Node6&#45;&gt;Node38 -->
<g id="edge34" class="edge">
<title>Node6&#45;&gt;Node38</title>
<path fill="none" stroke="#191970" d="M393.0712,-665.0791C395.4113,-633.8371 406.9191,-536.5115 461,-485 465.3867,-480.8217 470.6688,-477.5604 476.2759,-475.0153"/>
<polygon fill="#191970" stroke="#191970" points="477.8006,-478.1808 485.9185,-471.3727 475.3269,-471.6325 477.8006,-478.1808"/>
</g>
<!-- Node39 -->
<g id="node36" class="node">
<title>Node39</title>
<g id="a_node36"><a xlink:href="echo_8c.html#a8dbdbbc5895338333994cb4dd963739e" target="_top" xlink:title="Terminate the current ECHO&#45;512 computation and output the result into the provided buffer...">
<polygon fill="#ffffff" stroke="#000000" points="471.5,-418.5 471.5,-437.5 574.5,-437.5 574.5,-418.5 471.5,-418.5"/>
<text text-anchor="middle" x="523" y="-425.5" font-family="Helvetica,sans-Serif" font-size="10.00" fill="#000000">sph_echo512_close</text>
</a>
</g>
</g>
<!-- Node6&#45;&gt;Node39 -->
<g id="edge35" class="edge">
<title>Node6&#45;&gt;Node39</title>
<path fill="none" stroke="#191970" d="M394.1382,-665.4618C401.0189,-626.4357 428.7219,-479.4563 461,-447 462.4587,-445.5332 464.0275,-444.1791 465.6829,-442.9291"/>
<polygon fill="#191970" stroke="#191970" points="467.8597,-445.7011 474.5748,-437.5061 464.2149,-439.7248 467.8597,-445.7011"/>
</g>
<!-- Node40 -->
<g id="node37" class="node">
<title>Node40</title>
<g id="a_node37"><a xlink:href="sph__hamsi_8c.html#a944219639062ac292f6289983111818f" target="_top" xlink:title="Initialize a Hamsi&#45;512 context. ">
<polygon fill="#ffffff" stroke="#000000" points="474,-380.5 474,-399.5 572,-399.5 572,-380.5 474,-380.5"/>
<text text-anchor="middle" x="523" y="-387.5" font-family="Helvetica,sans-Serif" font-size="10.00" fill="#000000">sph_hamsi512_init</text>
</a>
</g>
</g>
<!-- Node6&#45;&gt;Node40 -->
<g id="edge36" class="edge">
<title>Node6&#45;&gt;Node40</title>
<path fill="none" stroke="#191970" d="M393.7136,-665.3803C399.3295,-622.3094 424.0991,-447.6124 461,-409 462.4001,-407.535 463.9098,-406.1821 465.5068,-404.9327"/>
<polygon fill="#191970" stroke="#191970" points="467.5202,-407.801 474.1158,-399.5095 463.7891,-401.8782 467.5202,-407.801"/>
</g>
<!-- Node41 -->
<g id="node38" class="node">
<title>Node41</title>
<g id="a_node38"><a xlink:href="sph__hamsi_8c.html#a25781ec63c4c66ea13f349c8f1179101" target="_top" xlink:title="Process some data bytes. ">
<polygon fill="#ffffff" stroke="#000000" points="483,-342.5 483,-361.5 563,-361.5 563,-342.5 483,-342.5"/>
<text text-anchor="middle" x="523" y="-349.5" font-family="Helvetica,sans-Serif" font-size="10.00" fill="#000000">sph_hamsi512</text>
</a>
</g>
</g>
<!-- Node6&#45;&gt;Node41 -->
<g id="edge37" class="edge">
<title>Node6&#45;&gt;Node41</title>
<path fill="none" stroke="#191970" d="M393.3894,-665.3012C397.8732,-618.4328 419.4392,-415.834 461,-371 464.5445,-367.1763 468.8357,-364.1143 473.4874,-361.6634"/>
<polygon fill="#191970" stroke="#191970" points="474.975,-364.8336 482.7756,-357.6641 472.2067,-358.4043 474.975,-364.8336"/>
</g>
<!-- Node42 -->
<g id="node39" class="node">
<title>Node42</title>
<g id="a_node39"><a xlink:href="sph__hamsi_8c.html#aa8a3ba0d049862aa412d546807227c3d" target="_top" xlink:title="Terminate the current Hamsi&#45;512 computation and output the result into the provided buffer...">
<polygon fill="#ffffff" stroke="#000000" points="469,-304.5 469,-323.5 577,-323.5 577,-304.5 469,-304.5"/>
<text text-anchor="middle" x="523" y="-311.5" font-family="Helvetica,sans-Serif" font-size="10.00" fill="#000000">sph_hamsi512_close</text>
</a>
</g>
</g>
<!-- Node6&#45;&gt;Node42 -->
<g id="edge38" class="edge">
<title>Node6&#45;&gt;Node42</title>
<path fill="none" stroke="#191970" d="M393.1167,-665.458C396.5324,-615.4754 414.6798,-384.1843 461,-333 462.1945,-331.6801 463.478,-330.4507 464.8349,-329.3058"/>
<polygon fill="#191970" stroke="#191970" points="466.9448,-332.105 473.301,-323.6286 463.0461,-326.2912 466.9448,-332.105"/>
</g>
<!-- Node43 -->
<g id="node40" class="node">
<title>Node43</title>
<g id="a_node40"><a xlink:href="sph__fugue_8c.html#a0d32c7e06d12c554635df7d2c5f4f10d" target="_top" xlink:title="sph_fugue512_init">
<polygon fill="#ffffff" stroke="#000000" points="475.5,-266.5 475.5,-285.5 570.5,-285.5 570.5,-266.5 475.5,-266.5"/>
<text text-anchor="middle" x="523" y="-273.5" font-family="Helvetica,sans-Serif" font-size="10.00" fill="#000000">sph_fugue512_init</text>
</a>
</g>
</g>
<!-- Node6&#45;&gt;Node43 -->
<g id="edge39" class="edge">
<title>Node6&#45;&gt;Node43</title>
<path fill="none" stroke="#191970" d="M392.9086,-665.4768C395.3763,-612.3109 409.9383,-352.5316 461,-295 462.7328,-293.0476 464.6604,-291.293 466.7332,-289.7165"/>
<polygon fill="#191970" stroke="#191970" points="468.621,-292.6648 475.3435,-284.4759 464.9816,-286.6853 468.621,-292.6648"/>
</g>
<!-- Node44 -->
<g id="node41" class="node">
<title>Node44</title>
<g id="a_node41"><a xlink:href="sph__fugue_8c.html#a086be8cea9dcc673c0732ba0d6474e09" target="_top" xlink:title="sph_fugue512">
<polygon fill="#ffffff" stroke="#000000" points="484.5,-228.5 484.5,-247.5 561.5,-247.5 561.5,-228.5 484.5,-228.5"/>
<text text-anchor="middle" x="523" y="-235.5" font-family="Helvetica,sans-Serif" font-size="10.00" fill="#000000">sph_fugue512</text>
</a>
</g>
</g>
<!-- Node6&#45;&gt;Node44 -->
<g id="edge40" class="edge">
<title>Node6&#45;&gt;Node44</title>
<path fill="none" stroke="#191970" d="M392.7441,-665.2841C394.3599,-608.5906 405.2478,-320.8324 461,-257 464.8904,-252.5458 469.7948,-249.1196 475.1332,-246.487"/>
<polygon fill="#191970" stroke="#191970" points="476.4438,-249.7324 484.4249,-242.7644 473.8405,-243.2345 476.4438,-249.7324"/>
</g>
<!-- Node45 -->
<g id="node42" class="node">
<title>Node45</title>
<g id="a_node42"><a xlink:href="sph__fugue_8c.html#a111107ff11db33c70fadb8adf32418c4" target="_top" xlink:title="sph_fugue512_close">
<polygon fill="#ffffff" stroke="#000000" points="470,-190.5 470,-209.5 576,-209.5 576,-190.5 470,-190.5"/>
<text text-anchor="middle" x="523" y="-197.5" font-family="Helvetica,sans-Serif" font-size="10.00" fill="#000000">sph_fugue512_close</text>
</a>
</g>
</g>
<!-- Node6&#45;&gt;Node45 -->
<g id="edge41" class="edge">
<title>Node6&#45;&gt;Node45</title>
<path fill="none" stroke="#191970" d="M392.6,-665.1986C393.4057,-605.3312 400.5097,-289.1959 461,-219 462.0335,-217.8007 463.1405,-216.6758 464.3099,-215.6208"/>
<polygon fill="#191970" stroke="#191970" points="466.6585,-218.2473 472.8137,-209.6238 462.6243,-212.5268 466.6585,-218.2473"/>
</g>
<!-- Node46 -->
<g id="node43" class="node">
<title>Node46</title>
<g id="a_node43"><a xlink:href="sph__shabal_8c.html#a4753c4c0b11ec86ab2f690d2069307fc" target="_top" xlink:title="Initialize a Shabal&#45;512 context. ">
<polygon fill="#ffffff" stroke="#000000" points="473,-152.5 473,-171.5 573,-171.5 573,-152.5 473,-152.5"/>
<text text-anchor="middle" x="523" y="-159.5" font-family="Helvetica,sans-Serif" font-size="10.00" fill="#000000">sph_shabal512_init</text>
</a>
</g>
</g>
<!-- Node6&#45;&gt;Node46 -->
<g id="edge42" class="edge">
<title>Node6&#45;&gt;Node46</title>
<path fill="none" stroke="#191970" d="M393.2348,-665.1143C398.2502,-598.7432 428.2226,-219.4747 461,-181 462.0267,-179.7949 463.1276,-178.6648 464.2916,-177.6052"/>
<polygon fill="#191970" stroke="#191970" points="466.6419,-180.229 472.7693,-171.5858 462.5893,-174.5214 466.6419,-180.229"/>
</g>
<!-- Node47 -->
<g id="node44" class="node">
<title>Node47</title>
<g id="a_node44"><a xlink:href="sph__shabal_8c.html#a87fcddc3e75f86e3a867a88f89e715a3" target="_top" xlink:title="Process some data bytes. ">
<polygon fill="#ffffff" stroke="#000000" points="482,-114.5 482,-133.5 564,-133.5 564,-114.5 482,-114.5"/>
<text text-anchor="middle" x="523" y="-121.5" font-family="Helvetica,sans-Serif" font-size="10.00" fill="#000000">sph_shabal512</text>
</a>
</g>
</g>
<!-- Node6&#45;&gt;Node47 -->
<g id="edge43" class="edge">
<title>Node6&#45;&gt;Node47</title>
<path fill="none" stroke="#191970" d="M393.1235,-665.2561C397.61,-596.4023 425.7988,-184.7294 461,-143 464.1894,-139.2191 468.1104,-136.1763 472.4178,-133.7297"/>
<polygon fill="#191970" stroke="#191970" points="474.046,-136.834 481.6916,-129.4995 471.1409,-130.4653 474.046,-136.834"/>
</g>
<!-- Node48 -->
<g id="node45" class="node">
<title>Node48</title>
<g id="a_node45"><a xlink:href="sph__shabal_8c.html#aea62f0484af908e431613cd40eed05ad" target="_top" xlink:title="Terminate the current Shabal&#45;512 computation and output the result into the provided buffer...">
<polygon fill="#ffffff" stroke="#000000" points="468,-76.5 468,-95.5 578,-95.5 578,-76.5 468,-76.5"/>
<text text-anchor="middle" x="523" y="-83.5" font-family="Helvetica,sans-Serif" font-size="10.00" fill="#000000">sph_shabal512_close</text>
</a>
</g>
</g>
<!-- Node6&#45;&gt;Node48 -->
<g id="edge44" class="edge">
<title>Node6&#45;&gt;Node48</title>
<path fill="none" stroke="#191970" d="M393.0232,-665.4859C397.0021,-594.5752 423.3533,-150.0131 461,-105 462.0157,-103.7856 463.1068,-102.6473 464.2622,-101.5803"/>
<polygon fill="#191970" stroke="#191970" points="466.6148,-104.2 472.6976,-95.5252 462.5328,-98.5133 466.6148,-104.2"/>
</g>
<!-- Node49 -->
<g id="node46" class="node">
<title>Node49</title>
<g id="a_node46"><a xlink:href="sph__whirlpool_8c.html#a67b7a02583e8a878f83c8a485c350719" target="_top" xlink:title="sph_whirlpool_init">
<polygon fill="#ffffff" stroke="#000000" points="476,-38.5 476,-57.5 570,-57.5 570,-38.5 476,-38.5"/>
<text text-anchor="middle" x="523" y="-45.5" font-family="Helvetica,sans-Serif" font-size="10.00" fill="#000000">sph_whirlpool_init</text>
</a>
</g>
</g>
<!-- Node6&#45;&gt;Node49 -->
<g id="edge45" class="edge">
<title>Node6&#45;&gt;Node49</title>
<path fill="none" stroke="#191970" d="M392.956,-665.33C396.5306,-591.2458 420.9714,-115.223 461,-67 462.8875,-64.7261 465.0398,-62.7187 467.3828,-60.9472"/>
<polygon fill="#191970" stroke="#191970" points="469.2039,-63.9362 475.9755,-55.7878 465.6005,-57.9349 469.2039,-63.9362"/>
</g>
<!-- Node50 -->
<g id="node47" class="node">
<title>Node50</title>
<g id="a_node47"><a xlink:href="classuint512.html#a90ae45972cae81e4e2d941ebe927b65c" target="_top" xlink:title="uint512::trim256">
<polygon fill="#ffffff" stroke="#000000" points="480,-532.5 480,-551.5 566,-551.5 566,-532.5 480,-532.5"/>
<text text-anchor="middle" x="523" y="-539.5" font-family="Helvetica,sans-Serif" font-size="10.00" fill="#000000">uint512::trim256</text>
</a>
</g>
</g>
<!-- Node6&#45;&gt;Node50 -->
<g id="edge46" class="edge">
<title>Node6&#45;&gt;Node50</title>
<path fill="none" stroke="#191970" d="M395.5639,-665.4333C403.0612,-643.5602 424.4373,-589.585 461,-561 463.9684,-558.6793 467.2204,-556.6406 470.631,-554.8499"/>
<polygon fill="#191970" stroke="#191970" points="472.2568,-557.9566 479.944,-550.6656 469.3879,-551.5714 472.2568,-557.9566"/>
</g>
<!-- Node8 -->
<g id="node5" class="node">
<title>Node8</title>
<g id="a_node5"><a xlink:href="classuint256.html#a679709bc6e2e2074001d6d9876b4af99" target="_top" xlink:title="uint256::GetNibble">
<polygon fill="#ffffff" stroke="#000000" points="638,-1330.5 638,-1349.5 736,-1349.5 736,-1330.5 638,-1330.5"/>
<text text-anchor="middle" x="687" y="-1337.5" font-family="Helvetica,sans-Serif" font-size="10.00" fill="#000000">uint256::GetNibble</text>
</a>
</g>
</g>
<!-- Node7&#45;&gt;Node8 -->
<g id="edge4" class="edge">
<title>Node7&#45;&gt;Node8</title>
<path fill="none" stroke="#191970" d="M571.3184,-1340C589.0165,-1340 609.2482,-1340 627.7909,-1340"/>
<polygon fill="#191970" stroke="#191970" points="627.8918,-1343.5001 637.8918,-1340 627.8918,-1336.5001 627.8918,-1343.5001"/>
</g>
<!-- Node18 -->
<g id="node15" class="node">
<title>Node18</title>
<g id="a_node15"><a xlink:href="keccak_8c.html#a9b1cadf5ab3346f0b056aa4b6871708b" target="_top" xlink:title="Add a few additional bits (0 to 7) to the current computation, then terminate it and output the resul...">
<polygon fill="#ffffff" stroke="#000000" points="626,-988 626,-1018 748,-1018 748,-988 626,-988"/>
<text text-anchor="start" x="634" y="-1006" font-family="Helvetica,sans-Serif" font-size="10.00" fill="#000000">sph_keccak512_addbits</text>
<text text-anchor="middle" x="687" y="-995" font-family="Helvetica,sans-Serif" font-size="10.00" fill="#000000">_and_close</text>
</a>
</g>
</g>
<!-- Node17&#45;&gt;Node18 -->
<g id="edge14" class="edge">
<title>Node17&#45;&gt;Node18</title>
<path fill="none" stroke="#191970" d="M579.899,-999.7347C591.3476,-1000.0838 603.5186,-1000.4548 615.3941,-1000.8169"/>
<polygon fill="#191970" stroke="#191970" points="615.6263,-1004.3255 625.7284,-1001.132 615.8397,-997.3288 615.6263,-1004.3255"/>
</g>
<!-- Node20 -->
<g id="node17" class="node">
<title>Node20</title>
<g id="a_node17"><a xlink:href="glibc__compat_8cpp.html#a0f46826ab0466591e136db24394923cf" target="_top" xlink:title="memcpy">
<polygon fill="#ffffff" stroke="#000000" points="660,-266.5 660,-285.5 714,-285.5 714,-266.5 660,-266.5"/>
<text text-anchor="middle" x="687" y="-273.5" font-family="Helvetica,sans-Serif" font-size="10.00" fill="#000000">memcpy</text>
</a>
</g>
</g>
<!-- Node19&#45;&gt;Node20 -->
<g id="edge16" class="edge">
<title>Node19&#45;&gt;Node20</title>
<path fill="none" stroke="#191970" d="M568.2274,-18.6297C574.3468,-21.227 580.1705,-24.6055 585,-29 654.4255,-92.1716 677.8237,-209.7656 684.5839,-256.3053"/>
<polygon fill="#191970" stroke="#191970" points="681.1265,-256.8561 685.9333,-266.2977 688.0635,-255.9193 681.1265,-256.8561"/>
</g>
<!-- Node21 -->
<g id="node18" class="node">
<title>Node21</title>
<g id="a_node18"><a xlink:href="glibc__compat_8cpp.html#a9778d49e9029dd75bc53ecbbf9f5e9a1" target="_top" xlink:title="memmove">
<polygon fill="#ffffff" stroke="#000000" points="789,-285.5 789,-304.5 851,-304.5 851,-285.5 789,-285.5"/>
<text text-anchor="middle" x="820" y="-292.5" font-family="Helvetica,sans-Serif" font-size="10.00" fill="#000000">memmove</text>
</a>
</g>
</g>
<!-- Node20&#45;&gt;Node21 -->
<g id="edge17" class="edge">
<title>Node20&#45;&gt;Node21</title>
<path fill="none" stroke="#191970" d="M714.2355,-279.8908C732.7837,-282.5405 757.6813,-286.0973 778.6603,-289.0943"/>
<polygon fill="#191970" stroke="#191970" points="778.2048,-292.5647 788.5993,-290.5142 779.1948,-285.6351 778.2048,-292.5647"/>
</g>
<!-- Node22 -->
<g id="node19" class="node">
<title>Node22</title>
<g id="a_node19"><a xlink:href="glibc__compat_8cpp.html#a424ac71631da5ada2976630ff67051d1" target="_top" xlink:title="__chk_fail">
<polygon fill="#ffffff" stroke="#000000" points="789.5,-247.5 789.5,-266.5 850.5,-266.5 850.5,-247.5 789.5,-247.5"/>
<text text-anchor="middle" x="820" y="-254.5" font-family="Helvetica,sans-Serif" font-size="10.00" fill="#000000">__chk_fail</text>
</a>
</g>
</g>
<!-- Node20&#45;&gt;Node22 -->
<g id="edge18" class="edge">
<title>Node20&#45;&gt;Node22</title>
<path fill="none" stroke="#191970" d="M714.2355,-272.1092C732.9143,-269.4408 758.0323,-265.8525 779.1029,-262.8424"/>
<polygon fill="#191970" stroke="#191970" points="779.6711,-266.2969 789.0756,-261.4178 778.6811,-259.3672 779.6711,-266.2969"/>
</g>
<!-- Node25 -->
<g id="node22" class="node">
<title>Node25</title>
<g id="a_node22"><a xlink:href="luffa_8c.html#ae90ba5d9f84893d81432ad353930bd2f" target="_top" xlink:title="Add a few additional bits (0 to 7) to the current computation, then terminate it and output the resul...">
<polygon fill="#ffffff" stroke="#000000" points="632.5,-939 632.5,-969 741.5,-969 741.5,-939 632.5,-939"/>
<text text-anchor="start" x="640.5" y="-957" font-family="Helvetica,sans-Serif" font-size="10.00" fill="#000000">sph_luffa512_addbits</text>
<text text-anchor="middle" x="687" y="-946" font-family="Helvetica,sans-Serif" font-size="10.00" fill="#000000">_and_close</text>
</a>
</g>
</g>
<!-- Node24&#45;&gt;Node25 -->
<g id="edge21" class="edge">
<title>Node24&#45;&gt;Node25</title>
<path fill="none" stroke="#191970" d="M573.5436,-958.1508C588.83,-957.5916 605.8355,-956.9694 621.931,-956.3806"/>
<polygon fill="#191970" stroke="#191970" points="622.4841,-959.8628 632.3494,-955.9994 622.2281,-952.8675 622.4841,-959.8628"/>
</g>
<!-- Node29 -->
<g id="node26" class="node">
<title>Node29</title>
<g id="a_node26"><a xlink:href="cubehash_8c.html#aecc593c4125e80af4b82bb1b43495448" target="_top" xlink:title="Add a few additional bits (0 to 7) to the current computation, then terminate it and output the resul...">
<polygon fill="#ffffff" stroke="#000000" points="621,-869 621,-899 753,-899 753,-869 621,-869"/>
<text text-anchor="start" x="629" y="-887" font-family="Helvetica,sans-Serif" font-size="10.00" fill="#000000">sph_cubehash512_addbits</text>
<text text-anchor="middle" x="687" y="-876" font-family="Helvetica,sans-Serif" font-size="10.00" fill="#000000">_and_close</text>
</a>
</g>
</g>
<!-- Node28&#45;&gt;Node29 -->
<g id="edge25" class="edge">
<title>Node28&#45;&gt;Node29</title>
<path fill="none" stroke="#191970" d="M585.0014,-884C593.4116,-884 602.1207,-884 610.7447,-884"/>
<polygon fill="#191970" stroke="#191970" points="610.8064,-887.5001 620.8064,-884 610.8064,-880.5001 610.8064,-887.5001"/>
</g>
<!-- Node36 -->
<g id="node33" class="node">
<title>Node36</title>
<g id="a_node33"><a xlink:href="simd_8c.html#ae5bfea91cae0a59cb44915da184e635b" target="_top" xlink:title="Add a few additional bits (0 to 7) to the current computation, then terminate it and output the resul...">
<polygon fill="#ffffff" stroke="#000000" points="631.5,-755 631.5,-785 742.5,-785 742.5,-755 631.5,-755"/>
<text text-anchor="start" x="639.5" y="-773" font-family="Helvetica,sans-Serif" font-size="10.00" fill="#000000">sph_simd512_addbits</text>
<text text-anchor="middle" x="687" y="-762" font-family="Helvetica,sans-Serif" font-size="10.00" fill="#000000">_and_close</text>
</a>
</g>
</g>
<!-- Node35&#45;&gt;Node36 -->
<g id="edge32" class="edge">
<title>Node35&#45;&gt;Node36</title>
<path fill="none" stroke="#191970" d="M574.8906,-770C589.6707,-770 605.9662,-770 621.4463,-770"/>
<polygon fill="#191970" stroke="#191970" points="621.4771,-773.5001 631.4771,-770 621.477,-766.5001 621.4771,-773.5001"/>
</g>
<!-- Node50&#45;&gt;Node20 -->
<g id="edge47" class="edge">
<title>Node50&#45;&gt;Node20</title>
<path fill="none" stroke="#191970" d="M566.0001,-534.277C572.9266,-531.5737 579.5876,-527.9249 585,-523 654.4255,-459.8284 677.8237,-342.2344 684.5839,-295.6947"/>
<polygon fill="#191970" stroke="#191970" points="688.0635,-296.0807 685.9333,-285.7023 681.1265,-295.1439 688.0635,-296.0807"/>
</g>
</g>
</svg>
