<?xml version="1.0" encoding="UTF-8" standalone="no"?>
<!DOCTYPE svg PUBLIC "-//W3C//DTD SVG 1.1//EN"
 "http://www.w3.org/Graphics/SVG/1.1/DTD/svg11.dtd">
<!-- Generated by graphviz version 2.40.1 (20161225.0304)
 -->
<!-- Title: CRavenAddress::Set Pages: 1 -->
<svg width="456pt" height="180pt"
 viewBox="0.00 0.00 456.00 180.00" xmlns="http://www.w3.org/2000/svg" xmlns:xlink="http://www.w3.org/1999/xlink">
<g id="graph0" class="graph" transform="scale(1 1) rotate(0) translate(4 176)">
<title>CRavenAddress::Set</title>
<polygon fill="#ffffff" stroke="transparent" points="-4,4 -4,-176 452,-176 452,4 -4,4"/>
<!-- Node396 -->
<g id="node1" class="node">
<title>Node396</title>
<polygon fill="#bfbfbf" stroke="#000000" points="0,-76.5 0,-95.5 110,-95.5 110,-76.5 0,-76.5"/>
<text text-anchor="middle" x="55" y="-83.5" font-family="Helvetica,sans-Serif" font-size="10.00" fill="#000000">CRavenAddress::Set</text>
</g>
<!-- Node397 -->
<g id="node2" class="node">
<title>Node397</title>
<g id="a_node2"><a xlink:href="class_c_base58_data.html#ad89d6bd7afa8d831dffce12803c5f58d" target="_top" xlink:title="CBase58Data::CompareTo">
<polygon fill="#ffffff" stroke="#000000" points="146,-76.5 146,-95.5 281,-95.5 281,-76.5 146,-76.5"/>
<text text-anchor="middle" x="213.5" y="-83.5" font-family="Helvetica,sans-Serif" font-size="10.00" fill="#000000">CBase58Data::CompareTo</text>
</a>
</g>
</g>
<!-- Node396&#45;&gt;Node397 -->
<g id="edge1" class="edge">
<title>Node396&#45;&gt;Node397</title>
<path fill="none" stroke="#191970" d="M120.5012,-86C128.8601,-86 137.4295,-86 145.822,-86"/>
<polygon fill="#191970" stroke="#191970" points="120.4356,-82.5001 110.4356,-86 120.4356,-89.5001 120.4356,-82.5001"/>
</g>
<!-- Node398 -->
<g id="node3" class="node">
<title>Node398</title>
<g id="a_node3"><a xlink:href="class_c_base58_data.html#a2e7a634c3a008adf3f74d72ed9dbd68c" target="_top" xlink:title="CBase58Data::operator==">
<polygon fill="#ffffff" stroke="#000000" points="317,-152.5 317,-171.5 448,-171.5 448,-152.5 317,-152.5"/>
<text text-anchor="middle" x="382.5" y="-159.5" font-family="Helvetica,sans-Serif" font-size="10.00" fill="#000000">CBase58Data::operator==</text>
</a>
</g>
</g>
<!-- Node397&#45;&gt;Node398 -->
<g id="edge2" class="edge">
<title>Node397&#45;&gt;Node398</title>
<path fill="none" stroke="#191970" d="M237.0546,-100.9435C257.5617,-113.4668 288.4052,-131.1501 317,-143 325.6412,-146.581 335.1868,-149.7612 344.2556,-152.447"/>
<polygon fill="#191970" stroke="#191970" points="238.7505,-97.877 228.405,-95.5921 235.0676,-103.8299 238.7505,-97.877"/>
</g>
<!-- Node399 -->
<g id="node4" class="node">
<title>Node399</title>
<g id="a_node4"><a xlink:href="class_c_base58_data.html#a1d99c2d0a82cbe648ba2a99e41386486" target="_top" xlink:title="CBase58Data::operator\&lt;=">
<polygon fill="#ffffff" stroke="#000000" points="317,-114.5 317,-133.5 448,-133.5 448,-114.5 317,-114.5"/>
<text text-anchor="middle" x="382.5" y="-121.5" font-family="Helvetica,sans-Serif" font-size="10.00" fill="#000000">CBase58Data::operator&lt;=</text>
</a>
</g>
</g>
<!-- Node397&#45;&gt;Node399 -->
<g id="edge3" class="edge">
<title>Node397&#45;&gt;Node399</title>
<path fill="none" stroke="#191970" d="M266.0869,-97.8243C289.9129,-103.1816 317.7069,-109.4311 340.1608,-114.4799"/>
<polygon fill="#191970" stroke="#191970" points="266.6701,-94.3681 256.1458,-95.589 265.1344,-101.1976 266.6701,-94.3681"/>
</g>
<!-- Node400 -->
<g id="node5" class="node">
<title>Node400</title>
<g id="a_node5"><a xlink:href="class_c_base58_data.html#a0cac1805398e2b09a498ba884c7a0057" target="_top" xlink:title="CBase58Data::operator\&gt;=">
<polygon fill="#ffffff" stroke="#000000" points="317,-76.5 317,-95.5 448,-95.5 448,-76.5 317,-76.5"/>
<text text-anchor="middle" x="382.5" y="-83.5" font-family="Helvetica,sans-Serif" font-size="10.00" fill="#000000">CBase58Data::operator&gt;=</text>
</a>
</g>
</g>
<!-- Node397&#45;&gt;Node400 -->
<g id="edge4" class="edge">
<title>Node397&#45;&gt;Node400</title>
<path fill="none" stroke="#191970" d="M291.2681,-86C299.8439,-86 308.5127,-86 316.9183,-86"/>
<polygon fill="#191970" stroke="#191970" points="291.265,-82.5001 281.265,-86 291.265,-89.5001 291.265,-82.5001"/>
</g>
<!-- Node401 -->
<g id="node6" class="node">
<title>Node401</title>
<g id="a_node6"><a xlink:href="class_c_base58_data.html#a7377c5628c43551ca22af1c0dfbaebae" target="_top" xlink:title="CBase58Data::operator\&lt;">
<polygon fill="#ffffff" stroke="#000000" points="320,-38.5 320,-57.5 445,-57.5 445,-38.5 320,-38.5"/>
<text text-anchor="middle" x="382.5" y="-45.5" font-family="Helvetica,sans-Serif" font-size="10.00" fill="#000000">CBase58Data::operator&lt;</text>
</a>
</g>
</g>
<!-- Node397&#45;&gt;Node401 -->
<g id="edge5" class="edge">
<title>Node397&#45;&gt;Node401</title>
<path fill="none" stroke="#191970" d="M266.0869,-74.1757C289.9129,-68.8184 317.7069,-62.5689 340.1608,-57.5201"/>
<polygon fill="#191970" stroke="#191970" points="265.1344,-70.8024 256.1458,-76.411 266.6701,-77.6319 265.1344,-70.8024"/>
</g>
<!-- Node402 -->
<g id="node7" class="node">
<title>Node402</title>
<g id="a_node7"><a xlink:href="class_c_base58_data.html#a7d8052eacc8de55a0f4ec91306dfbec3" target="_top" xlink:title="CBase58Data::operator\&gt;">
<polygon fill="#ffffff" stroke="#000000" points="320,-.5 320,-19.5 445,-19.5 445,-.5 320,-.5"/>
<text text-anchor="middle" x="382.5" y="-7.5" font-family="Helvetica,sans-Serif" font-size="10.00" fill="#000000">CBase58Data::operator&gt;</text>
</a>
</g>
</g>
<!-- Node397&#45;&gt;Node402 -->
<g id="edge6" class="edge">
<title>Node397&#45;&gt;Node402</title>
<path fill="none" stroke="#191970" d="M237.0546,-71.0565C257.5617,-58.5332 288.4052,-40.8499 317,-29 325.6412,-25.419 335.1868,-22.2388 344.2556,-19.553"/>
<polygon fill="#191970" stroke="#191970" points="235.0676,-68.1701 228.405,-76.4079 238.7505,-74.123 235.0676,-68.1701"/>
</g>
</g>
</svg>
