<?xml version="1.0" encoding="UTF-8" standalone="no"?>
<!DOCTYPE svg PUBLIC "-//W3C//DTD SVG 1.1//EN"
 "http://www.w3.org/Graphics/SVG/1.1/DTD/svg11.dtd">
<!-- Generated by graphviz version 2.40.1 (20161225.0304)
 -->
<!-- Title: RavenUnits::formatHtmlWithUnit Pages: 1 -->
<svg width="859pt" height="204pt"
 viewBox="0.00 0.00 859.00 204.00" xmlns="http://www.w3.org/2000/svg" xmlns:xlink="http://www.w3.org/1999/xlink">
<g id="graph0" class="graph" transform="scale(1 1) rotate(0) translate(4 200)">
<title>RavenUnits::formatHtmlWithUnit</title>
<polygon fill="#ffffff" stroke="transparent" points="-4,4 -4,-200 855,-200 855,4 -4,4"/>
<!-- Node522 -->
<g id="node1" class="node">
<title>Node522</title>
<polygon fill="#bfbfbf" stroke="#000000" points="0,-69 0,-88 161,-88 161,-69 0,-69"/>
<text text-anchor="middle" x="80.5" y="-76" font-family="Helvetica,sans-Serif" font-size="10.00" fill="#000000">RavenUnits::formatHtmlWithUnit</text>
</g>
<!-- Node523 -->
<g id="node2" class="node">
<title>Node523</title>
<g id="a_node2"><a xlink:href="class_receive_request_dialog.html#a8e1c0ee2fbacf42b4dc7ea05986c86c9" target="_top" xlink:title="ReceiveRequestDialog\l::update">
<polygon fill="#ffffff" stroke="#000000" points="217.5,-126.5 217.5,-156.5 334.5,-156.5 334.5,-126.5 217.5,-126.5"/>
<text text-anchor="start" x="225.5" y="-144.5" font-family="Helvetica,sans-Serif" font-size="10.00" fill="#000000">ReceiveRequestDialog</text>
<text text-anchor="middle" x="276" y="-133.5" font-family="Helvetica,sans-Serif" font-size="10.00" fill="#000000">::update</text>
</a>
</g>
</g>
<!-- Node522&#45;&gt;Node523 -->
<g id="edge1" class="edge">
<title>Node522&#45;&gt;Node523</title>
<path fill="none" stroke="#191970" d="M119.9647,-91.2175C151.5402,-101.3927 195.8972,-115.6868 229.2505,-126.435"/>
<polygon fill="#191970" stroke="#191970" points="120.7838,-87.8043 110.1922,-88.0683 118.6367,-94.4669 120.7838,-87.8043"/>
</g>
<!-- Node528 -->
<g id="node7" class="node">
<title>Node528</title>
<g id="a_node7"><a xlink:href="class_transaction_desc.html#ab7c9dbb2048aae121dd9d75df86e64f4" target="_top" xlink:title="TransactionDesc::toHTML">
<polygon fill="#ffffff" stroke="#000000" points="391,-69 391,-88 523,-88 523,-69 391,-69"/>
<text text-anchor="middle" x="457" y="-76" font-family="Helvetica,sans-Serif" font-size="10.00" fill="#000000">TransactionDesc::toHTML</text>
</a>
</g>
</g>
<!-- Node522&#45;&gt;Node528 -->
<g id="edge7" class="edge">
<title>Node522&#45;&gt;Node528</title>
<path fill="none" stroke="#191970" d="M171.4991,-78.5C239.1611,-78.5 329.9306,-78.5 390.7906,-78.5"/>
<polygon fill="#191970" stroke="#191970" points="171.2687,-75.0001 161.2687,-78.5 171.2687,-82.0001 171.2687,-75.0001"/>
</g>
<!-- Node530 -->
<g id="node9" class="node">
<title>Node530</title>
<g id="a_node9"><a xlink:href="class_transaction_desc.html#a8d08b3fa41ef42a3048f3c684ed1d90b" target="_top" xlink:title="TransactionDesc::toAssetHTML">
<polygon fill="#ffffff" stroke="#000000" points="197,-50 197,-69 355,-69 355,-50 197,-50"/>
<text text-anchor="middle" x="276" y="-57" font-family="Helvetica,sans-Serif" font-size="10.00" fill="#000000">TransactionDesc::toAssetHTML</text>
</a>
</g>
</g>
<!-- Node522&#45;&gt;Node530 -->
<g id="edge9" class="edge">
<title>Node522&#45;&gt;Node530</title>
<path fill="none" stroke="#191970" d="M171.151,-69.6899C179.7158,-68.8575 188.3536,-68.0181 196.7997,-67.1972"/>
<polygon fill="#191970" stroke="#191970" points="170.7606,-66.2113 161.146,-70.6623 171.4377,-73.1785 170.7606,-66.2113"/>
</g>
<!-- Node531 -->
<g id="node10" class="node">
<title>Node531</title>
<g id="a_node10"><a xlink:href="class_transaction_desc.html#a1de402b439b16ee501487b6cadb979ce" target="_top" xlink:title="TransactionDesc::CreateDebug\lString">
<polygon fill="#ffffff" stroke="#000000" points="198.5,-.5 198.5,-30.5 353.5,-30.5 353.5,-.5 198.5,-.5"/>
<text text-anchor="start" x="206.5" y="-18.5" font-family="Helvetica,sans-Serif" font-size="10.00" fill="#000000">TransactionDesc::CreateDebug</text>
<text text-anchor="middle" x="276" y="-7.5" font-family="Helvetica,sans-Serif" font-size="10.00" fill="#000000">String</text>
</a>
</g>
</g>
<!-- Node522&#45;&gt;Node531 -->
<g id="edge11" class="edge">
<title>Node522&#45;&gt;Node531</title>
<path fill="none" stroke="#191970" d="M119.2787,-65.7565C141.926,-58.3378 171.0639,-48.8336 197,-40.5 207.1351,-37.2435 218.0118,-33.7807 228.3546,-30.5031"/>
<polygon fill="#191970" stroke="#191970" points="118.0944,-62.4614 109.6823,-68.9025 120.275,-69.1131 118.0944,-62.4614"/>
</g>
<!-- Node524 -->
<g id="node3" class="node">
<title>Node524</title>
<g id="a_node3"><a xlink:href="class_receive_request_dialog.html#ad57b3bf409346660842360836fd8569d" target="_top" xlink:title="ReceiveRequestDialog\l::setModel">
<polygon fill="#ffffff" stroke="#000000" points="398.5,-165.5 398.5,-195.5 515.5,-195.5 515.5,-165.5 398.5,-165.5"/>
<text text-anchor="start" x="406.5" y="-183.5" font-family="Helvetica,sans-Serif" font-size="10.00" fill="#000000">ReceiveRequestDialog</text>
<text text-anchor="middle" x="457" y="-172.5" font-family="Helvetica,sans-Serif" font-size="10.00" fill="#000000">::setModel</text>
</a>
</g>
</g>
<!-- Node523&#45;&gt;Node524 -->
<g id="edge2" class="edge">
<title>Node523&#45;&gt;Node524</title>
<path fill="none" stroke="#191970" d="M344.9503,-156.3567C362.5104,-160.1404 381.2199,-164.1717 398.2198,-167.8347"/>
<polygon fill="#191970" stroke="#191970" points="345.2784,-152.8471 334.7655,-154.1622 343.8039,-159.6901 345.2784,-152.8471"/>
</g>
<!-- Node527 -->
<g id="node6" class="node">
<title>Node527</title>
<g id="a_node6"><a xlink:href="class_receive_request_dialog.html#a43344270ef71e68ad9c7a931cc0ca9ed" target="_top" xlink:title="ReceiveRequestDialog\l::setInfo">
<polygon fill="#ffffff" stroke="#000000" points="398.5,-116.5 398.5,-146.5 515.5,-146.5 515.5,-116.5 398.5,-116.5"/>
<text text-anchor="start" x="406.5" y="-134.5" font-family="Helvetica,sans-Serif" font-size="10.00" fill="#000000">ReceiveRequestDialog</text>
<text text-anchor="middle" x="457" y="-123.5" font-family="Helvetica,sans-Serif" font-size="10.00" fill="#000000">::setInfo</text>
</a>
</g>
</g>
<!-- Node523&#45;&gt;Node527 -->
<g id="edge5" class="edge">
<title>Node523&#45;&gt;Node527</title>
<path fill="none" stroke="#191970" d="M344.9503,-137.6906C362.5104,-136.7204 381.2199,-135.6867 398.2198,-134.7475"/>
<polygon fill="#191970" stroke="#191970" points="344.5572,-134.2069 334.7655,-138.2533 344.9434,-141.1962 344.5572,-134.2069"/>
</g>
<!-- Node525 -->
<g id="node4" class="node">
<title>Node525</title>
<g id="a_node4"><a xlink:href="class_receive_coins_dialog.html#a5eabd6106c8e3b275305b84c0303f314" target="_top" xlink:title="ReceiveCoinsDialog\l::on_recentRequestsView\l_doubleClicked">
<polygon fill="#ffffff" stroke="#000000" points="559,-132 559,-173 688,-173 688,-132 559,-132"/>
<text text-anchor="start" x="567" y="-161" font-family="Helvetica,sans-Serif" font-size="10.00" fill="#000000">ReceiveCoinsDialog</text>
<text text-anchor="start" x="567" y="-150" font-family="Helvetica,sans-Serif" font-size="10.00" fill="#000000">::on_recentRequestsView</text>
<text text-anchor="middle" x="623.5" y="-139" font-family="Helvetica,sans-Serif" font-size="10.00" fill="#000000">_doubleClicked</text>
</a>
</g>
</g>
<!-- Node524&#45;&gt;Node525 -->
<g id="edge3" class="edge">
<title>Node524&#45;&gt;Node525</title>
<path fill="none" stroke="#191970" d="M525.6541,-168.9546C536.6228,-167.11 547.9404,-165.2067 558.813,-163.3783"/>
<polygon fill="#191970" stroke="#191970" points="524.9827,-165.5182 515.7017,-170.6282 526.1437,-172.4213 524.9827,-165.5182"/>
</g>
<!-- Node526 -->
<g id="node5" class="node">
<title>Node526</title>
<g id="a_node5"><a xlink:href="class_receive_coins_dialog.html#a56df78045de75af55f4c4045ad4b7fcd" target="_top" xlink:title="ReceiveCoinsDialog\l::on_showRequestButton\l_clicked">
<polygon fill="#ffffff" stroke="#000000" points="724,-132 724,-173 851,-173 851,-132 724,-132"/>
<text text-anchor="start" x="732" y="-161" font-family="Helvetica,sans-Serif" font-size="10.00" fill="#000000">ReceiveCoinsDialog</text>
<text text-anchor="start" x="732" y="-150" font-family="Helvetica,sans-Serif" font-size="10.00" fill="#000000">::on_showRequestButton</text>
<text text-anchor="middle" x="787.5" y="-139" font-family="Helvetica,sans-Serif" font-size="10.00" fill="#000000">_clicked</text>
</a>
</g>
</g>
<!-- Node525&#45;&gt;Node526 -->
<g id="edge4" class="edge">
<title>Node525&#45;&gt;Node526</title>
<path fill="none" stroke="#191970" d="M698.5867,-152.5C707.0664,-152.5 715.6455,-152.5 723.9576,-152.5"/>
<polygon fill="#191970" stroke="#191970" points="698.3172,-149.0001 688.3171,-152.5 698.3171,-156.0001 698.3172,-149.0001"/>
</g>
<!-- Node527&#45;&gt;Node525 -->
<g id="edge6" class="edge">
<title>Node527&#45;&gt;Node525</title>
<path fill="none" stroke="#191970" d="M525.6541,-140.1591C536.6228,-141.5425 547.9404,-142.97 558.813,-144.3413"/>
<polygon fill="#191970" stroke="#191970" points="526.0611,-136.6828 515.7017,-138.9038 525.1851,-143.6277 526.0611,-136.6828"/>
</g>
<!-- Node529 -->
<g id="node8" class="node">
<title>Node529</title>
<g id="a_node8"><a xlink:href="class_transaction_table_priv.html#ab08d44e16bf6dd95b5b83959b3013780" target="_top" xlink:title="TransactionTablePriv\l::describe">
<polygon fill="#ffffff" stroke="#000000" points="569,-63.5 569,-93.5 678,-93.5 678,-63.5 569,-63.5"/>
<text text-anchor="start" x="577" y="-81.5" font-family="Helvetica,sans-Serif" font-size="10.00" fill="#000000">TransactionTablePriv</text>
<text text-anchor="middle" x="623.5" y="-70.5" font-family="Helvetica,sans-Serif" font-size="10.00" fill="#000000">::describe</text>
</a>
</g>
</g>
<!-- Node528&#45;&gt;Node529 -->
<g id="edge8" class="edge">
<title>Node528&#45;&gt;Node529</title>
<path fill="none" stroke="#191970" d="M533.3124,-78.5C545.3322,-78.5 557.5463,-78.5 568.943,-78.5"/>
<polygon fill="#191970" stroke="#191970" points="533.2837,-75.0001 523.2836,-78.5 533.2836,-82.0001 533.2837,-75.0001"/>
</g>
<!-- Node530&#45;&gt;Node528 -->
<g id="edge10" class="edge">
<title>Node530&#45;&gt;Node528</title>
<path fill="none" stroke="#191970" d="M365.2032,-68.8639C373.8096,-69.7673 382.4316,-70.6724 390.7578,-71.5464"/>
<polygon fill="#191970" stroke="#191970" points="365.4367,-65.3692 355.1259,-67.806 364.7059,-72.331 365.4367,-65.3692"/>
</g>
</g>
</svg>
