<?xml version="1.0" encoding="UTF-8" standalone="no"?>
<!DOCTYPE svg PUBLIC "-//W3C//DTD SVG 1.1//EN"
 "http://www.w3.org/Graphics/SVG/1.1/DTD/svg11.dtd">
<!-- Generated by graphviz version 2.40.1 (20161225.0304)
 -->
<!-- Title: RavenApplication::requestedInitialize Pages: 1 -->
<svg width="502pt" height="88pt"
 viewBox="0.00 0.00 502.00 88.00" xmlns="http://www.w3.org/2000/svg" xmlns:xlink="http://www.w3.org/1999/xlink">
<g id="graph0" class="graph" transform="scale(1 1) rotate(0) translate(4 84)">
<title>RavenApplication::requestedInitialize</title>
<polygon fill="#ffffff" stroke="transparent" points="-4,4 -4,-84 498,-84 498,4 -4,4"/>
<!-- Node479 -->
<g id="node1" class="node">
<title>Node479</title>
<polygon fill="#bfbfbf" stroke="#000000" points="0,-30.5 0,-60.5 142,-60.5 142,-30.5 0,-30.5"/>
<text text-anchor="start" x="8" y="-48.5" font-family="Helvetica,sans-Serif" font-size="10.00" fill="#000000">RavenApplication::requested</text>
<text text-anchor="middle" x="71" y="-37.5" font-family="Helvetica,sans-Serif" font-size="10.00" fill="#000000">Initialize</text>
</g>
<!-- Node480 -->
<g id="node2" class="node">
<title>Node480</title>
<g id="a_node2"><a xlink:href="class_raven_application.html#aecfdce3a245b959def5dd35e5cfb192e" target="_top" xlink:title="RavenApplication::startThread">
<polygon fill="#ffffff" stroke="#000000" points="178,-17 178,-36 327,-36 327,-17 178,-17"/>
<text text-anchor="middle" x="252.5" y="-24" font-family="Helvetica,sans-Serif" font-size="10.00" fill="#000000">RavenApplication::startThread</text>
</a>
</g>
</g>
<!-- Node479&#45;&gt;Node480 -->
<g id="edge1" class="edge">
<title>Node479&#45;&gt;Node480</title>
<path fill="none" stroke="#191970" d="M152.1903,-37.0007C160.7504,-36.1046 169.4253,-35.1965 177.9056,-34.3088"/>
<polygon fill="#191970" stroke="#191970" points="151.7939,-33.523 142.2127,-38.0452 152.5228,-40.485 151.7939,-33.523"/>
</g>
<!-- Node481 -->
<g id="node3" class="node">
<title>Node481</title>
<g id="a_node3"><a xlink:href="class_raven_application.html#a63a2032fef875fb81f26c212f69d000d" target="_top" xlink:title="Request core initialization. ">
<polygon fill="#ffffff" stroke="#000000" points="363,-49.5 363,-79.5 494,-79.5 494,-49.5 363,-49.5"/>
<text text-anchor="start" x="371" y="-67.5" font-family="Helvetica,sans-Serif" font-size="10.00" fill="#000000">RavenApplication::request</text>
<text text-anchor="middle" x="428.5" y="-56.5" font-family="Helvetica,sans-Serif" font-size="10.00" fill="#000000">Initialize</text>
</a>
</g>
</g>
<!-- Node479&#45;&gt;Node481 -->
<g id="edge4" class="edge">
<title>Node479&#45;&gt;Node481</title>
<path fill="none" stroke="#191970" d="M152.0824,-49.8093C215.8734,-53.1996 303.6119,-57.8626 362.9973,-61.0187"/>
<polygon fill="#191970" stroke="#191970" points="152.2296,-46.3123 142.0579,-49.2765 151.8581,-53.3024 152.2296,-46.3123"/>
</g>
<!-- Node480&#45;&gt;Node481 -->
<g id="edge2" class="edge">
<title>Node480&#45;&gt;Node481</title>
<path fill="none" stroke="#191970" d="M307.0327,-38.2741C324.6804,-42.0844 344.4383,-46.3503 362.8077,-50.3164"/>
<polygon fill="#191970" stroke="#191970" points="307.4257,-34.7784 296.9122,-36.089 305.9483,-41.6207 307.4257,-34.7784"/>
</g>
<!-- Node482 -->
<g id="node4" class="node">
<title>Node482</title>
<g id="a_node4"><a xlink:href="class_raven_application.html#a60123f611cc210870fa67974cb2c804c" target="_top" xlink:title="Request core shutdown. ">
<polygon fill="#ffffff" stroke="#000000" points="363,-.5 363,-30.5 494,-30.5 494,-.5 363,-.5"/>
<text text-anchor="start" x="371" y="-18.5" font-family="Helvetica,sans-Serif" font-size="10.00" fill="#000000">RavenApplication::request</text>
<text text-anchor="middle" x="428.5" y="-7.5" font-family="Helvetica,sans-Serif" font-size="10.00" fill="#000000">Shutdown</text>
</a>
</g>
</g>
<!-- Node480&#45;&gt;Node482 -->
<g id="edge3" class="edge">
<title>Node480&#45;&gt;Node482</title>
<path fill="none" stroke="#191970" d="M337.2384,-21.2038C345.8743,-20.6641 354.5522,-20.1217 362.9387,-19.5976"/>
<polygon fill="#191970" stroke="#191970" points="336.902,-17.718 327.1398,-21.835 337.3387,-24.7043 336.902,-17.718"/>
</g>
</g>
</svg>
