<?xml version="1.0" encoding="UTF-8" standalone="no"?>
<!DOCTYPE svg PUBLIC "-//W3C//DTD SVG 1.1//EN"
 "http://www.w3.org/Graphics/SVG/1.1/DTD/svg11.dtd">
<!-- Generated by graphviz version 2.40.1 (20161225.0304)
 -->
<!-- Title: MacDockIconHandler::instance Pages: 1 -->
<svg width="1005pt" height="99pt"
 viewBox="0.00 0.00 1005.00 98.50" xmlns="http://www.w3.org/2000/svg" xmlns:xlink="http://www.w3.org/1999/xlink">
<g id="graph0" class="graph" transform="scale(1 1) rotate(0) translate(4 94.5)">
<title>MacDockIconHandler::instance</title>
<polygon fill="#ffffff" stroke="transparent" points="-4,4 -4,-94.5 1001,-94.5 1001,4 -4,4"/>
<!-- Node63 -->
<g id="node1" class="node">
<title>Node63</title>
<polygon fill="#bfbfbf" stroke="#000000" points="0,-46.5 0,-76.5 111,-76.5 111,-46.5 0,-46.5"/>
<text text-anchor="start" x="8" y="-64.5" font-family="Helvetica,sans-Serif" font-size="10.00" fill="#000000">MacDockIconHandler</text>
<text text-anchor="middle" x="55.5" y="-53.5" font-family="Helvetica,sans-Serif" font-size="10.00" fill="#000000">::instance</text>
</g>
<!-- Node64 -->
<g id="node2" class="node">
<title>Node64</title>
<g id="a_node2"><a xlink:href="class_raven_g_u_i.html#af82cbe028fc29d0ea71074eced806071" target="_top" xlink:title="RavenGUI::RavenGUI">
<polygon fill="#ffffff" stroke="#000000" points="168,-71 168,-90 284,-90 284,-71 168,-71"/>
<text text-anchor="middle" x="226" y="-78" font-family="Helvetica,sans-Serif" font-size="10.00" fill="#000000">RavenGUI::RavenGUI</text>
</a>
</g>
</g>
<!-- Node63&#45;&gt;Node64 -->
<g id="edge1" class="edge">
<title>Node63&#45;&gt;Node64</title>
<path fill="none" stroke="#191970" d="M121.2922,-68.8317C136.6852,-70.547 152.9724,-72.362 167.9977,-74.0364"/>
<polygon fill="#191970" stroke="#191970" points="121.6542,-65.3504 111.3281,-67.7213 120.8789,-72.3074 121.6542,-65.3504"/>
</g>
<!-- Node65 -->
<g id="node3" class="node">
<title>Node65</title>
<g id="a_node3"><a xlink:href="class_raven_g_u_i.html#a992e4d8e9a7a80cd6e8d4b6fb272ffd2" target="_top" xlink:title="Create system tray menu (or setup the dock menu) ">
<polygon fill="#ffffff" stroke="#000000" points="147,-33 147,-52 305,-52 305,-33 147,-33"/>
<text text-anchor="middle" x="226" y="-40" font-family="Helvetica,sans-Serif" font-size="10.00" fill="#000000">RavenGUI::createTrayIconMenu</text>
</a>
</g>
</g>
<!-- Node63&#45;&gt;Node65 -->
<g id="edge2" class="edge">
<title>Node63&#45;&gt;Node65</title>
<path fill="none" stroke="#191970" d="M121.358,-54.161C129.7062,-53.2307 138.3164,-52.2712 146.8449,-51.3208"/>
<polygon fill="#191970" stroke="#191970" points="120.8789,-50.6926 111.3281,-55.2787 121.6542,-57.6496 120.8789,-50.6926"/>
</g>
<!-- Node66 -->
<g id="node4" class="node">
<title>Node66</title>
<g id="a_node4"><a xlink:href="class_raven_g_u_i.html#a174a3e75c334c5930d3261a2955c3725" target="_top" xlink:title="Set the client model. ">
<polygon fill="#ffffff" stroke="#000000" points="341,-33 341,-52 475,-52 475,-33 341,-33"/>
<text text-anchor="middle" x="408" y="-40" font-family="Helvetica,sans-Serif" font-size="10.00" fill="#000000">RavenGUI::setClientModel</text>
</a>
</g>
</g>
<!-- Node65&#45;&gt;Node66 -->
<g id="edge3" class="edge">
<title>Node65&#45;&gt;Node66</title>
<path fill="none" stroke="#191970" d="M315.118,-42.5C323.7327,-42.5 332.37,-42.5 340.7208,-42.5"/>
<polygon fill="#191970" stroke="#191970" points="315.0339,-39.0001 305.0338,-42.5 315.0338,-46.0001 315.0339,-39.0001"/>
</g>
<!-- Node67 -->
<g id="node5" class="node">
<title>Node67</title>
<g id="a_node5"><a xlink:href="class_raven_application.html#a60123f611cc210870fa67974cb2c804c" target="_top" xlink:title="Request core shutdown. ">
<polygon fill="#ffffff" stroke="#000000" points="866,-49.5 866,-79.5 997,-79.5 997,-49.5 866,-49.5"/>
<text text-anchor="start" x="874" y="-67.5" font-family="Helvetica,sans-Serif" font-size="10.00" fill="#000000">RavenApplication::request</text>
<text text-anchor="middle" x="931.5" y="-56.5" font-family="Helvetica,sans-Serif" font-size="10.00" fill="#000000">Shutdown</text>
</a>
</g>
</g>
<!-- Node66&#45;&gt;Node67 -->
<g id="edge4" class="edge">
<title>Node66&#45;&gt;Node67</title>
<path fill="none" stroke="#191970" d="M485.1333,-45.7415C588.2203,-50.0737 769.1346,-57.6766 865.9629,-61.7458"/>
<polygon fill="#191970" stroke="#191970" points="485.238,-42.2429 475.0999,-45.3199 484.944,-49.2367 485.238,-42.2429"/>
</g>
<!-- Node68 -->
<g id="node6" class="node">
<title>Node68</title>
<g id="a_node6"><a xlink:href="class_raven_application.html#a1a3dcf33ba44507984b2a04e7ebf1542" target="_top" xlink:title="RavenApplication::initialize\lResult">
<polygon fill="#ffffff" stroke="#000000" points="511,-5.5 511,-35.5 645,-35.5 645,-5.5 511,-5.5"/>
<text text-anchor="start" x="519" y="-23.5" font-family="Helvetica,sans-Serif" font-size="10.00" fill="#000000">RavenApplication::initialize</text>
<text text-anchor="middle" x="578" y="-12.5" font-family="Helvetica,sans-Serif" font-size="10.00" fill="#000000">Result</text>
</a>
</g>
</g>
<!-- Node66&#45;&gt;Node68 -->
<g id="edge5" class="edge">
<title>Node66&#45;&gt;Node68</title>
<path fill="none" stroke="#191970" d="M485.146,-32.5164C493.6879,-31.411 502.3366,-30.2917 510.7428,-29.2039"/>
<polygon fill="#191970" stroke="#191970" points="484.6566,-29.0505 475.1885,-33.805 485.555,-35.9926 484.6566,-29.0505"/>
</g>
<!-- Node69 -->
<g id="node7" class="node">
<title>Node69</title>
<g id="a_node7"><a xlink:href="class_raven_application.html#aecfdce3a245b959def5dd35e5cfb192e" target="_top" xlink:title="RavenApplication::startThread">
<polygon fill="#ffffff" stroke="#000000" points="681,-11 681,-30 830,-30 830,-11 681,-11"/>
<text text-anchor="middle" x="755.5" y="-18" font-family="Helvetica,sans-Serif" font-size="10.00" fill="#000000">RavenApplication::startThread</text>
</a>
</g>
</g>
<!-- Node68&#45;&gt;Node69 -->
<g id="edge6" class="edge">
<title>Node68&#45;&gt;Node69</title>
<path fill="none" stroke="#191970" d="M655.3486,-20.5C663.821,-20.5 672.4344,-20.5 680.873,-20.5"/>
<polygon fill="#191970" stroke="#191970" points="655.1052,-17.0001 645.1051,-20.5 655.1051,-24.0001 655.1052,-17.0001"/>
</g>
<!-- Node69&#45;&gt;Node67 -->
<g id="edge8" class="edge">
<title>Node69&#45;&gt;Node67</title>
<path fill="none" stroke="#191970" d="M803.6046,-32.5261C824.4811,-37.7453 849.1576,-43.9144 871.2385,-49.4346"/>
<polygon fill="#191970" stroke="#191970" points="804.2397,-29.0773 793.6894,-30.0473 802.5419,-35.8683 804.2397,-29.0773"/>
</g>
<!-- Node70 -->
<g id="node8" class="node">
<title>Node70</title>
<g id="a_node8"><a xlink:href="class_raven_application.html#a63a2032fef875fb81f26c212f69d000d" target="_top" xlink:title="Request core initialization. ">
<polygon fill="#ffffff" stroke="#000000" points="866,-.5 866,-30.5 997,-30.5 997,-.5 866,-.5"/>
<text text-anchor="start" x="874" y="-18.5" font-family="Helvetica,sans-Serif" font-size="10.00" fill="#000000">RavenApplication::request</text>
<text text-anchor="middle" x="931.5" y="-7.5" font-family="Helvetica,sans-Serif" font-size="10.00" fill="#000000">Initialize</text>
</a>
</g>
</g>
<!-- Node69&#45;&gt;Node70 -->
<g id="edge7" class="edge">
<title>Node69&#45;&gt;Node70</title>
<path fill="none" stroke="#191970" d="M840.2384,-18.0927C848.8743,-17.8473 857.5522,-17.6008 865.9387,-17.3625"/>
<polygon fill="#191970" stroke="#191970" points="840.0364,-14.5969 830.1398,-18.3795 840.2352,-21.5941 840.0364,-14.5969"/>
</g>
</g>
</svg>
