<?xml version="1.0" encoding="UTF-8" standalone="no"?>
<!DOCTYPE svg PUBLIC "-//W3C//DTD SVG 1.1//EN"
 "http://www.w3.org/Graphics/SVG/1.1/DTD/svg11.dtd">
<!-- Generated by graphviz version 2.40.1 (20161225.0304)
 -->
<!-- Title: CPubKey::Set Pages: 1 -->
<svg width="577pt" height="165pt"
 viewBox="0.00 0.00 577.00 164.50" xmlns="http://www.w3.org/2000/svg" xmlns:xlink="http://www.w3.org/1999/xlink">
<g id="graph0" class="graph" transform="scale(1 1) rotate(0) translate(4 160.5)">
<title>CPubKey::Set</title>
<polygon fill="#ffffff" stroke="transparent" points="-4,4 -4,-160.5 573,-160.5 573,4 -4,4"/>
<!-- Node550 -->
<g id="node1" class="node">
<title>Node550</title>
<polygon fill="#bfbfbf" stroke="#000000" points="0,-57.5 0,-76.5 80,-76.5 80,-57.5 0,-57.5"/>
<text text-anchor="middle" x="40" y="-64.5" font-family="Helvetica,sans-Serif" font-size="10.00" fill="#000000">CPubKey::Set</text>
</g>
<!-- Node551 -->
<g id="node2" class="node">
<title>Node551</title>
<g id="a_node2"><a xlink:href="class_c_script_compressor.html#a19a67455a106e2e0528bc97cb60d2391" target="_top" xlink:title="CScriptCompressor::\lIsToPubKey">
<polygon fill="#ffffff" stroke="#000000" points="132,-120 132,-150 241,-150 241,-120 132,-120"/>
<text text-anchor="start" x="140" y="-138" font-family="Helvetica,sans-Serif" font-size="10.00" fill="#000000">CScriptCompressor::</text>
<text text-anchor="middle" x="186.5" y="-127" font-family="Helvetica,sans-Serif" font-size="10.00" fill="#000000">IsToPubKey</text>
</a>
</g>
</g>
<!-- Node550&#45;&gt;Node551 -->
<g id="edge1" class="edge">
<title>Node550&#45;&gt;Node551</title>
<path fill="none" stroke="#191970" d="M67.5745,-81.2975C81.9143,-88.6025 99.7891,-97.5067 116,-105 126.8667,-110.023 138.8063,-115.2221 149.7213,-119.8527"/>
<polygon fill="#191970" stroke="#191970" points="68.7715,-77.9781 58.2757,-76.5327 65.5793,-84.2079 68.7715,-77.9781"/>
</g>
<!-- Node554 -->
<g id="node5" class="node">
<title>Node554</title>
<g id="a_node5"><a xlink:href="class_c_pub_key.html#a169505e735a02db385486b0affeb565c" target="_top" xlink:title="Recover a public key from a compact signature. ">
<polygon fill="#ffffff" stroke="#000000" points="116,-76.5 116,-95.5 257,-95.5 257,-76.5 116,-76.5"/>
<text text-anchor="middle" x="186.5" y="-83.5" font-family="Helvetica,sans-Serif" font-size="10.00" fill="#000000">CPubKey::RecoverCompact</text>
</a>
</g>
</g>
<!-- Node550&#45;&gt;Node554 -->
<g id="edge4" class="edge">
<title>Node550&#45;&gt;Node554</title>
<path fill="none" stroke="#191970" d="M90.221,-73.5133C98.4773,-74.5841 107.1681,-75.7112 115.8113,-76.8322"/>
<polygon fill="#191970" stroke="#191970" points="90.3989,-70.0071 80.0318,-72.1918 89.4985,-76.949 90.3989,-70.0071"/>
</g>
<!-- Node557 -->
<g id="node8" class="node">
<title>Node557</title>
<g id="a_node8"><a xlink:href="class_c_pub_key.html#a572689418fecf47b300a11519bc3da36" target="_top" xlink:title="Turn this public key into an uncompressed public key. ">
<polygon fill="#ffffff" stroke="#000000" points="126.5,-38.5 126.5,-57.5 246.5,-57.5 246.5,-38.5 126.5,-38.5"/>
<text text-anchor="middle" x="186.5" y="-45.5" font-family="Helvetica,sans-Serif" font-size="10.00" fill="#000000">CPubKey::Decompress</text>
</a>
</g>
</g>
<!-- Node550&#45;&gt;Node557 -->
<g id="edge7" class="edge">
<title>Node550&#45;&gt;Node557</title>
<path fill="none" stroke="#191970" d="M90.0593,-60.5077C101.7676,-58.9892 114.3573,-57.3564 126.4505,-55.788"/>
<polygon fill="#191970" stroke="#191970" points="89.4985,-57.051 80.0318,-61.8082 90.3989,-63.9929 89.4985,-57.051"/>
</g>
<!-- Node558 -->
<g id="node9" class="node">
<title>Node558</title>
<g id="a_node9"><a xlink:href="class_c_pub_key.html#ac28722f47ab8a613bf9982608d13aa1f" target="_top" xlink:title="Derive BIP32 child pubkey. ">
<polygon fill="#ffffff" stroke="#000000" points="140,-.5 140,-19.5 233,-19.5 233,-.5 140,-.5"/>
<text text-anchor="middle" x="186.5" y="-7.5" font-family="Helvetica,sans-Serif" font-size="10.00" fill="#000000">CPubKey::Derive</text>
</a>
</g>
</g>
<!-- Node550&#45;&gt;Node558 -->
<g id="edge8" class="edge">
<title>Node550&#45;&gt;Node558</title>
<path fill="none" stroke="#191970" d="M65.6204,-52.5757C80.0905,-44.8438 98.6947,-35.582 116,-29 125.3601,-25.4399 135.657,-22.2677 145.4211,-19.583"/>
<polygon fill="#191970" stroke="#191970" points="63.8765,-49.54 56.7637,-57.3923 67.2208,-55.6895 63.8765,-49.54"/>
</g>
<!-- Node552 -->
<g id="node3" class="node">
<title>Node552</title>
<g id="a_node3"><a xlink:href="class_c_script_compressor.html#a563ba251e7720841b4d5fc30ebd736e6" target="_top" xlink:title="CScriptCompressor::\lCompress">
<polygon fill="#ffffff" stroke="#000000" points="304,-126 304,-156 413,-156 413,-126 304,-126"/>
<text text-anchor="start" x="312" y="-144" font-family="Helvetica,sans-Serif" font-size="10.00" fill="#000000">CScriptCompressor::</text>
<text text-anchor="middle" x="358.5" y="-133" font-family="Helvetica,sans-Serif" font-size="10.00" fill="#000000">Compress</text>
</a>
</g>
</g>
<!-- Node551&#45;&gt;Node552 -->
<g id="edge2" class="edge">
<title>Node551&#45;&gt;Node552</title>
<path fill="none" stroke="#191970" d="M251.4034,-137.2641C268.6788,-137.8667 287.1645,-138.5116 303.8316,-139.093"/>
<polygon fill="#191970" stroke="#191970" points="251.5108,-133.7658 241.3948,-136.9149 251.2666,-140.7615 251.5108,-133.7658"/>
</g>
<!-- Node553 -->
<g id="node4" class="node">
<title>Node553</title>
<g id="a_node4"><a xlink:href="class_c_script_compressor.html#a4d2053a76ce3bbac8e2e94969319fe99" target="_top" xlink:title="CScriptCompressor::\lSerialize">
<polygon fill="#ffffff" stroke="#000000" points="460,-126 460,-156 569,-156 569,-126 460,-126"/>
<text text-anchor="start" x="468" y="-144" font-family="Helvetica,sans-Serif" font-size="10.00" fill="#000000">CScriptCompressor::</text>
<text text-anchor="middle" x="514.5" y="-133" font-family="Helvetica,sans-Serif" font-size="10.00" fill="#000000">Serialize</text>
</a>
</g>
</g>
<!-- Node552&#45;&gt;Node553 -->
<g id="edge3" class="edge">
<title>Node552&#45;&gt;Node553</title>
<path fill="none" stroke="#191970" d="M423.1969,-141C435.4217,-141 448.0957,-141 459.9696,-141"/>
<polygon fill="#191970" stroke="#191970" points="423.0613,-137.5001 413.0612,-141 423.0612,-144.5001 423.0613,-137.5001"/>
</g>
<!-- Node555 -->
<g id="node6" class="node">
<title>Node555</title>
<g id="a_node6"><a xlink:href="class_sign_verify_message_dialog.html#ae37dec200b27f23c409221511447ae1e" target="_top" xlink:title="SignVerifyMessageDialog\l::on_verifyMessageButton\l_VM_clicked">
<polygon fill="#ffffff" stroke="#000000" points="293,-65.5 293,-106.5 424,-106.5 424,-65.5 293,-65.5"/>
<text text-anchor="start" x="301" y="-94.5" font-family="Helvetica,sans-Serif" font-size="10.00" fill="#000000">SignVerifyMessageDialog</text>
<text text-anchor="start" x="301" y="-83.5" font-family="Helvetica,sans-Serif" font-size="10.00" fill="#000000">::on_verifyMessageButton</text>
<text text-anchor="middle" x="358.5" y="-72.5" font-family="Helvetica,sans-Serif" font-size="10.00" fill="#000000">_VM_clicked</text>
</a>
</g>
</g>
<!-- Node554&#45;&gt;Node555 -->
<g id="edge5" class="edge">
<title>Node554&#45;&gt;Node555</title>
<path fill="none" stroke="#191970" d="M267.7184,-86C276.1782,-86 284.6999,-86 292.9547,-86"/>
<polygon fill="#191970" stroke="#191970" points="267.452,-82.5001 257.452,-86 267.452,-89.5001 267.452,-82.5001"/>
</g>
<!-- Node556 -->
<g id="node7" class="node">
<title>Node556</title>
<g id="a_node7"><a xlink:href="misc_8cpp.html#a0b6a5eab4e4ad2898bdc4dfb0be1da73" target="_top" xlink:title="verifymessage">
<polygon fill="#ffffff" stroke="#000000" points="318.5,-27.5 318.5,-46.5 398.5,-46.5 398.5,-27.5 318.5,-27.5"/>
<text text-anchor="middle" x="358.5" y="-34.5" font-family="Helvetica,sans-Serif" font-size="10.00" fill="#000000">verifymessage</text>
</a>
</g>
</g>
<!-- Node554&#45;&gt;Node556 -->
<g id="edge6" class="edge">
<title>Node554&#45;&gt;Node556</title>
<path fill="none" stroke="#191970" d="M232.5638,-73.8225C240.7176,-71.5995 249.1182,-69.2656 257,-67 273.0792,-62.3782 276.9656,-60.775 293,-56 303.44,-52.891 314.8356,-49.5627 325.1516,-46.5743"/>
<polygon fill="#191970" stroke="#191970" points="231.5302,-70.4763 222.7918,-76.4671 233.3589,-77.2332 231.5302,-70.4763"/>
</g>
</g>
</svg>
