<?xml version="1.0" encoding="UTF-8" standalone="no"?>
<!DOCTYPE svg PUBLIC "-//W3C//DTD SVG 1.1//EN"
 "http://www.w3.org/Graphics/SVG/1.1/DTD/svg11.dtd">
<!-- Generated by graphviz version 2.40.1 (20161225.0304)
 -->
<!-- Title: CService::ToStringPort Pages: 1 -->
<svg width="1829pt" height="446pt"
 viewBox="0.00 0.00 1829.00 446.00" xmlns="http://www.w3.org/2000/svg" xmlns:xlink="http://www.w3.org/1999/xlink">
<g id="graph0" class="graph" transform="scale(1 1) rotate(0) translate(4 442)">
<title>CService::ToStringPort</title>
<polygon fill="#ffffff" stroke="transparent" points="-4,4 -4,-442 1825,-442 1825,4 -4,4"/>
<!-- Node164 -->
<g id="node1" class="node">
<title>Node164</title>
<polygon fill="#bfbfbf" stroke="#000000" points="0,-114.5 0,-133.5 118,-133.5 118,-114.5 0,-114.5"/>
<text text-anchor="middle" x="59" y="-121.5" font-family="Helvetica,sans-Serif" font-size="10.00" fill="#000000">CService::ToStringPort</text>
</g>
<!-- Node165 -->
<g id="node2" class="node">
<title>Node165</title>
<g id="a_node2"><a xlink:href="class_c_service.html#a224204c838b12eeb49ca7eabe6f75004" target="_top" xlink:title="CService::ToStringIPPort">
<polygon fill="#ffffff" stroke="#000000" points="162.5,-228.5 162.5,-247.5 290.5,-247.5 290.5,-228.5 162.5,-228.5"/>
<text text-anchor="middle" x="226.5" y="-235.5" font-family="Helvetica,sans-Serif" font-size="10.00" fill="#000000">CService::ToStringIPPort</text>
</a>
</g>
</g>
<!-- Node164&#45;&gt;Node165 -->
<g id="edge1" class="edge">
<title>Node164&#45;&gt;Node165</title>
<path fill="none" stroke="#191970" d="M81.583,-139.3699C116.6149,-163.2125 183.05,-208.4281 212.1919,-228.262"/>
<polygon fill="#191970" stroke="#191970" points="83.2291,-136.2566 72.9929,-133.5235 79.2906,-142.0435 83.2291,-136.2566"/>
</g>
<!-- Node194 -->
<g id="node31" class="node">
<title>Node194</title>
<g id="a_node31"><a xlink:href="class_options_dialog.html#a44ffc21aae73b251333b75907aa8ff8c" target="_top" xlink:title="OptionsDialog::updateDefault\lProxyNets">
<polygon fill="#ffffff" stroke="#000000" points="154,-87 154,-117 299,-117 299,-87 154,-87"/>
<text text-anchor="start" x="162" y="-105" font-family="Helvetica,sans-Serif" font-size="10.00" fill="#000000">OptionsDialog::updateDefault</text>
<text text-anchor="middle" x="226.5" y="-94" font-family="Helvetica,sans-Serif" font-size="10.00" fill="#000000">ProxyNets</text>
</a>
</g>
</g>
<!-- Node164&#45;&gt;Node194 -->
<g id="edge37" class="edge">
<title>Node164&#45;&gt;Node194</title>
<path fill="none" stroke="#191970" d="M127.9712,-114.9411C136.521,-113.8181 145.2831,-112.6673 153.8855,-111.5374"/>
<polygon fill="#191970" stroke="#191970" points="127.5133,-111.4711 118.0542,-116.2436 128.4249,-118.4115 127.5133,-111.4711"/>
</g>
<!-- Node166 -->
<g id="node3" class="node">
<title>Node166</title>
<g id="a_node3"><a xlink:href="class_c_addr_man.html#a03fcc7109b5f014760dc50a81f68c5ec" target="_top" xlink:title="Add a single address. ">
<polygon fill="#ffffff" stroke="#000000" points="361.5,-342.5 361.5,-361.5 447.5,-361.5 447.5,-342.5 361.5,-342.5"/>
<text text-anchor="middle" x="404.5" y="-349.5" font-family="Helvetica,sans-Serif" font-size="10.00" fill="#000000">CAddrMan::Add</text>
</a>
</g>
</g>
<!-- Node165&#45;&gt;Node166 -->
<g id="edge2" class="edge">
<title>Node165&#45;&gt;Node166</title>
<path fill="none" stroke="#191970" d="M250.0253,-253.0667C287.125,-276.8273 358.1945,-322.3437 389.295,-342.262"/>
<polygon fill="#191970" stroke="#191970" points="251.6787,-249.9694 241.37,-247.5235 247.9034,-255.8641 251.6787,-249.9694"/>
</g>
<!-- Node168 -->
<g id="node5" class="node">
<title>Node168</title>
<g id="a_node5"><a xlink:href="class_c_service.html#a225473158bc07c87a6a862160d73cfea" target="_top" xlink:title="CService::ToString">
<polygon fill="#ffffff" stroke="#000000" points="354.5,-228.5 354.5,-247.5 454.5,-247.5 454.5,-228.5 354.5,-228.5"/>
<text text-anchor="middle" x="404.5" y="-235.5" font-family="Helvetica,sans-Serif" font-size="10.00" fill="#000000">CService::ToString</text>
</a>
</g>
</g>
<!-- Node165&#45;&gt;Node168 -->
<g id="edge4" class="edge">
<title>Node165&#45;&gt;Node168</title>
<path fill="none" stroke="#191970" d="M300.7494,-238C318.8435,-238 337.7745,-238 354.4374,-238"/>
<polygon fill="#191970" stroke="#191970" points="300.5106,-234.5001 290.5106,-238 300.5106,-241.5001 300.5106,-234.5001"/>
</g>
<!-- Node167 -->
<g id="node4" class="node">
<title>Node167</title>
<g id="a_node4"><a xlink:href="class_c_connman.html#a47d9024273a8c421fa7de641c30e9081" target="_top" xlink:title="CConnman::AddNewAddresses">
<polygon fill="#ffffff" stroke="#000000" points="510,-418.5 510,-437.5 666,-437.5 666,-418.5 510,-418.5"/>
<text text-anchor="middle" x="588" y="-425.5" font-family="Helvetica,sans-Serif" font-size="10.00" fill="#000000">CConnman::AddNewAddresses</text>
</a>
</g>
</g>
<!-- Node166&#45;&gt;Node167 -->
<g id="edge3" class="edge">
<title>Node166&#45;&gt;Node167</title>
<path fill="none" stroke="#191970" d="M428.0644,-367.0153C448.9108,-379.7336 480.5121,-397.6595 510,-409 519.6265,-412.7022 530.2051,-415.8516 540.3811,-418.4585"/>
<polygon fill="#191970" stroke="#191970" points="429.6337,-363.8704 419.2893,-361.5806 425.948,-369.8215 429.6337,-363.8704"/>
</g>
<!-- Node169 -->
<g id="node6" class="node">
<title>Node169</title>
<g id="a_node6"><a xlink:href="class_c_addr_man.html#a33ec6a4584cf4b17af821e6e35216459" target="_top" xlink:title="Mark an entry &quot;good&quot;, possibly moving it from &quot;new&quot; to &quot;tried&quot;. ">
<polygon fill="#ffffff" stroke="#000000" points="539,-380.5 539,-399.5 637,-399.5 637,-380.5 539,-380.5"/>
<text text-anchor="middle" x="588" y="-387.5" font-family="Helvetica,sans-Serif" font-size="10.00" fill="#000000">CAddrMan::Good_</text>
</a>
</g>
</g>
<!-- Node168&#45;&gt;Node169 -->
<g id="edge5" class="edge">
<title>Node168&#45;&gt;Node169</title>
<path fill="none" stroke="#191970" d="M417.708,-255.9431C443.2407,-290.4315 497.9245,-363.2674 510,-371 518.6857,-376.5619 528.8674,-380.4959 538.9545,-383.2784"/>
<polygon fill="#191970" stroke="#191970" points="420.3689,-253.6545 411.6126,-247.6898 414.738,-257.8131 420.3689,-253.6545"/>
</g>
<!-- Node170 -->
<g id="node7" class="node">
<title>Node170</title>
<g id="a_node7"><a xlink:href="net_8h.html#a0cde2b3256757536c42c0bd3037847d1" target="_top" xlink:title="AdvertiseLocal">
<polygon fill="#ffffff" stroke="#000000" points="547.5,-342.5 547.5,-361.5 628.5,-361.5 628.5,-342.5 547.5,-342.5"/>
<text text-anchor="middle" x="588" y="-349.5" font-family="Helvetica,sans-Serif" font-size="10.00" fill="#000000">AdvertiseLocal</text>
</a>
</g>
</g>
<!-- Node168&#45;&gt;Node170 -->
<g id="edge6" class="edge">
<title>Node168&#45;&gt;Node170</title>
<path fill="none" stroke="#191970" d="M418.9661,-255.5208C437.7164,-277.0581 472.483,-313.1809 510,-333 521.4611,-339.0545 534.8889,-343.2176 547.3419,-346.0643"/>
<polygon fill="#191970" stroke="#191970" points="421.5265,-253.1291 412.3769,-247.7872 416.1982,-257.6689 421.5265,-253.1291"/>
</g>
<!-- Node171 -->
<g id="node8" class="node">
<title>Node171</title>
<g id="a_node8"><a xlink:href="net_8h.html#a337d6af198a6b0d75f830e56da9b91e9" target="_top" xlink:title="AddLocal">
<polygon fill="#ffffff" stroke="#000000" points="559.5,-304.5 559.5,-323.5 616.5,-323.5 616.5,-304.5 559.5,-304.5"/>
<text text-anchor="middle" x="588" y="-311.5" font-family="Helvetica,sans-Serif" font-size="10.00" fill="#000000">AddLocal</text>
</a>
</g>
</g>
<!-- Node168&#45;&gt;Node171 -->
<g id="edge7" class="edge">
<title>Node168&#45;&gt;Node171</title>
<path fill="none" stroke="#191970" d="M430.6109,-252.3268C451.6444,-263.5089 482.1887,-278.9491 510,-290 526.0635,-296.3829 544.5312,-302.1328 559.4634,-306.4033"/>
<polygon fill="#191970" stroke="#191970" points="432.1261,-249.1677 421.6602,-247.5197 428.814,-255.3346 432.1261,-249.1677"/>
</g>
<!-- Node177 -->
<g id="node14" class="node">
<title>Node177</title>
<g id="a_node14"><a xlink:href="net_8h.html#a040c40f60af5f50a128fc1aac4cb5ebd" target="_top" xlink:title="RemoveLocal">
<polygon fill="#ffffff" stroke="#000000" points="549.5,-76.5 549.5,-95.5 626.5,-95.5 626.5,-76.5 549.5,-76.5"/>
<text text-anchor="middle" x="588" y="-83.5" font-family="Helvetica,sans-Serif" font-size="10.00" fill="#000000">RemoveLocal</text>
</a>
</g>
</g>
<!-- Node168&#45;&gt;Node177 -->
<g id="edge13" class="edge">
<title>Node168&#45;&gt;Node177</title>
<path fill="none" stroke="#191970" d="M414.8005,-219.6285C431.3127,-191.8319 466.3325,-139.2365 510,-110 521.6554,-102.1964 535.961,-96.8392 549.1241,-93.2032"/>
<polygon fill="#191970" stroke="#191970" points="411.7336,-217.9402 409.7479,-228.3473 417.7902,-221.45 411.7336,-217.9402"/>
</g>
<!-- Node182 -->
<g id="node19" class="node">
<title>Node182</title>
<g id="a_node19"><a xlink:href="class_c_connman.html#ac810542ffa683d5dde5e5524b5ce2e4e" target="_top" xlink:title="CConnman::ConnectNode">
<polygon fill="#ffffff" stroke="#000000" points="926.5,-190.5 926.5,-209.5 1058.5,-209.5 1058.5,-190.5 926.5,-190.5"/>
<text text-anchor="middle" x="992.5" y="-197.5" font-family="Helvetica,sans-Serif" font-size="10.00" fill="#000000">CConnman::ConnectNode</text>
</a>
</g>
</g>
<!-- Node168&#45;&gt;Node182 -->
<g id="edge18" class="edge">
<title>Node168&#45;&gt;Node182</title>
<path fill="none" stroke="#191970" d="M465.0556,-236.1645C554.4176,-233.1688 726.8214,-226.2937 873,-214 890.2764,-212.547 908.9117,-210.5646 926.2087,-208.5487"/>
<polygon fill="#191970" stroke="#191970" points="464.7173,-232.6737 454.8384,-236.5022 464.9486,-239.6698 464.7173,-232.6737"/>
</g>
<!-- Node187 -->
<g id="node24" class="node">
<title>Node187</title>
<g id="a_node24"><a xlink:href="class_c_node.html#a331888bc15bb49775451d951735e4b6a" target="_top" xlink:title="May not be called more than once. ">
<polygon fill="#ffffff" stroke="#000000" points="532,-38.5 532,-57.5 644,-57.5 644,-38.5 532,-38.5"/>
<text text-anchor="middle" x="588" y="-45.5" font-family="Helvetica,sans-Serif" font-size="10.00" fill="#000000">CNode::SetAddrLocal</text>
</a>
</g>
</g>
<!-- Node168&#45;&gt;Node187 -->
<g id="edge26" class="edge">
<title>Node168&#45;&gt;Node187</title>
<path fill="none" stroke="#191970" d="M415.3963,-219.5066C440.8976,-176.342 502.8513,-72.1955 510,-67 516.5392,-62.2475 524.1192,-58.6731 531.9326,-55.9871"/>
<polygon fill="#191970" stroke="#191970" points="412.3432,-217.7936 410.2753,-228.1847 418.3718,-221.3512 412.3432,-217.7936"/>
</g>
<!-- Node188 -->
<g id="node25" class="node">
<title>Node188</title>
<g id="a_node25"><a xlink:href="class_c_connman.html#afe88b51d85f5b77fd38cd0be1d177891" target="_top" xlink:title="CConnman::AcceptConnection">
<polygon fill="#ffffff" stroke="#000000" points="711.5,-266.5 711.5,-285.5 863.5,-285.5 863.5,-266.5 711.5,-266.5"/>
<text text-anchor="middle" x="787.5" y="-273.5" font-family="Helvetica,sans-Serif" font-size="10.00" fill="#000000">CConnman::AcceptConnection</text>
</a>
</g>
</g>
<!-- Node168&#45;&gt;Node188 -->
<g id="edge27" class="edge">
<title>Node168&#45;&gt;Node188</title>
<path fill="none" stroke="#191970" d="M464.679,-246.4685C479.4816,-248.4183 495.3009,-250.3899 510,-252 578.0182,-259.4505 655.6249,-265.997 711.4397,-270.3627"/>
<polygon fill="#191970" stroke="#191970" points="464.9947,-242.9797 454.6197,-245.1268 464.0692,-249.9182 464.9947,-242.9797"/>
</g>
<!-- Node189 -->
<g id="node26" class="node">
<title>Node189</title>
<g id="a_node26"><a xlink:href="class_c_connman.html#ad2f3516addf9e195688437021a8e3182" target="_top" xlink:title="CConnman::BindListenPort">
<polygon fill="#ffffff" stroke="#000000" points="924.5,-114.5 924.5,-133.5 1060.5,-133.5 1060.5,-114.5 924.5,-114.5"/>
<text text-anchor="middle" x="992.5" y="-121.5" font-family="Helvetica,sans-Serif" font-size="10.00" fill="#000000">CConnman::BindListenPort</text>
</a>
</g>
</g>
<!-- Node168&#45;&gt;Node189 -->
<g id="edge29" class="edge">
<title>Node168&#45;&gt;Node189</title>
<path fill="none" stroke="#191970" d="M427.59,-222.885C448.3548,-209.9478 480.1023,-191.757 510,-181 651.0783,-130.241 828.8595,-122.4898 924.3612,-122.4936"/>
<polygon fill="#191970" stroke="#191970" points="425.4404,-220.1037 418.8684,-228.4139 429.1883,-226.0158 425.4404,-220.1037"/>
</g>
<!-- Node192 -->
<g id="node29" class="node">
<title>Node192</title>
<g id="a_node29"><a xlink:href="netbase_8h.html#ac4d702700b01312baccffa6f36703800" target="_top" xlink:title="ConnectSocketDirectly">
<polygon fill="#ffffff" stroke="#000000" points="529,-190.5 529,-209.5 647,-209.5 647,-190.5 529,-190.5"/>
<text text-anchor="middle" x="588" y="-197.5" font-family="Helvetica,sans-Serif" font-size="10.00" fill="#000000">ConnectSocketDirectly</text>
</a>
</g>
</g>
<!-- Node168&#45;&gt;Node192 -->
<g id="edge33" class="edge">
<title>Node168&#45;&gt;Node192</title>
<path fill="none" stroke="#191970" d="M460.9069,-226.319C486.9296,-220.9301 517.4301,-214.6139 542.0282,-209.5201"/>
<polygon fill="#191970" stroke="#191970" points="459.8873,-222.9558 450.8048,-228.411 461.3068,-229.8104 459.8873,-222.9558"/>
</g>
<!-- Node172 -->
<g id="node9" class="node">
<title>Node172</title>
<g id="a_node9"><a xlink:href="net_8h.html#abda4e8f87772f9a9d9d8f52a93791ffc" target="_top" xlink:title="AddLocal">
<polygon fill="#ffffff" stroke="#000000" points="759,-380.5 759,-399.5 816,-399.5 816,-380.5 759,-380.5"/>
<text text-anchor="middle" x="787.5" y="-387.5" font-family="Helvetica,sans-Serif" font-size="10.00" fill="#000000">AddLocal</text>
</a>
</g>
</g>
<!-- Node171&#45;&gt;Node172 -->
<g id="edge8" class="edge">
<title>Node171&#45;&gt;Node172</title>
<path fill="none" stroke="#191970" d="M626.7063,-318.892C639.8022,-321.6986 654.109,-326.1017 666,-333 686.1234,-344.6741 681.7594,-359.5304 702,-371 719.3306,-380.8206 741.3131,-385.5656 758.6485,-387.8581"/>
<polygon fill="#191970" stroke="#191970" points="627.009,-315.3872 616.5325,-316.9662 625.707,-322.2651 627.009,-315.3872"/>
</g>
<!-- Node173 -->
<g id="node10" class="node">
<title>Node173</title>
<g id="a_node10"><a xlink:href="class_c_connman.html#a999ec42f1515f77096556c94c29c6538" target="_top" xlink:title="CConnman::WakeMessageHandler">
<polygon fill="#ffffff" stroke="#000000" points="702,-342.5 702,-361.5 873,-361.5 873,-342.5 702,-342.5"/>
<text text-anchor="middle" x="787.5" y="-349.5" font-family="Helvetica,sans-Serif" font-size="10.00" fill="#000000">CConnman::WakeMessageHandler</text>
</a>
</g>
</g>
<!-- Node171&#45;&gt;Node173 -->
<g id="edge9" class="edge">
<title>Node171&#45;&gt;Node173</title>
<path fill="none" stroke="#191970" d="M626.7447,-321.3799C658.3032,-327.3911 703.0875,-335.9214 737.375,-342.4524"/>
<polygon fill="#191970" stroke="#191970" points="627.0618,-317.8775 616.5835,-319.4445 625.752,-324.7539 627.0618,-317.8775"/>
</g>
<!-- Node176 -->
<g id="node13" class="node">
<title>Node176</title>
<g id="a_node13"><a xlink:href="net_8h.html#a8316da05a5f15022dce5d0c2f82001fc" target="_top" xlink:title="Discover">
<polygon fill="#ffffff" stroke="#000000" points="759.5,-304.5 759.5,-323.5 815.5,-323.5 815.5,-304.5 759.5,-304.5"/>
<text text-anchor="middle" x="787.5" y="-311.5" font-family="Helvetica,sans-Serif" font-size="10.00" fill="#000000">Discover</text>
</a>
</g>
</g>
<!-- Node171&#45;&gt;Node176 -->
<g id="edge12" class="edge">
<title>Node171&#45;&gt;Node176</title>
<path fill="none" stroke="#191970" d="M626.9902,-314C665.8891,-314 724.7018,-314 759.2918,-314"/>
<polygon fill="#191970" stroke="#191970" points="626.5835,-310.5001 616.5835,-314 626.5835,-317.5001 626.5835,-310.5001"/>
</g>
<!-- Node174 -->
<g id="node11" class="node">
<title>Node174</title>
<g id="a_node11"><a xlink:href="class_c_connman.html#a765597cbfe99c083d8fa3d61bb464e34" target="_top" xlink:title="CConnman::ThreadSocketHandler">
<polygon fill="#ffffff" stroke="#000000" points="909,-266.5 909,-285.5 1076,-285.5 1076,-266.5 909,-266.5"/>
<text text-anchor="middle" x="992.5" y="-273.5" font-family="Helvetica,sans-Serif" font-size="10.00" fill="#000000">CConnman::ThreadSocketHandler</text>
</a>
</g>
</g>
<!-- Node173&#45;&gt;Node174 -->
<g id="edge10" class="edge">
<title>Node173&#45;&gt;Node174</title>
<path fill="none" stroke="#191970" d="M849.3293,-340.0131C857.3713,-337.9439 865.4368,-335.6064 873,-333 911.0302,-319.8942 952.9084,-298.0704 975.6021,-285.572"/>
<polygon fill="#191970" stroke="#191970" points="848.4473,-336.6256 839.5669,-342.4039 850.1125,-343.4246 848.4473,-336.6256"/>
</g>
<!-- Node175 -->
<g id="node12" class="node">
<title>Node175</title>
<g id="a_node12"><a xlink:href="class_c_connman.html#aa4709e5604e0f4369dada0a211493565" target="_top" xlink:title="CConnman::Start">
<polygon fill="#ffffff" stroke="#000000" points="1728,-180.5 1728,-199.5 1821,-199.5 1821,-180.5 1728,-180.5"/>
<text text-anchor="middle" x="1774.5" y="-187.5" font-family="Helvetica,sans-Serif" font-size="10.00" fill="#000000">CConnman::Start</text>
</a>
</g>
</g>
<!-- Node174&#45;&gt;Node175 -->
<g id="edge11" class="edge">
<title>Node174&#45;&gt;Node175</title>
<path fill="none" stroke="#191970" d="M1086.4412,-281.5604C1222.5221,-287.0317 1481.2607,-287.6781 1692,-231 1717.1758,-224.229 1743.7382,-209.4586 1759.7149,-199.6206"/>
<polygon fill="#191970" stroke="#191970" points="1086.1966,-278.0471 1076.0584,-281.1239 1085.9025,-285.041 1086.1966,-278.0471"/>
</g>
<!-- Node178 -->
<g id="node15" class="node">
<title>Node178</title>
<g id="a_node15"><a xlink:href="class_tor_controller.html#a98c6b822f4a60da7847a974607b95963" target="_top" xlink:title="TorController::~TorController">
<polygon fill="#ffffff" stroke="#000000" points="717,-76.5 717,-95.5 858,-95.5 858,-76.5 717,-76.5"/>
<text text-anchor="middle" x="787.5" y="-83.5" font-family="Helvetica,sans-Serif" font-size="10.00" fill="#000000">TorController::~TorController</text>
</a>
</g>
</g>
<!-- Node177&#45;&gt;Node178 -->
<g id="edge14" class="edge">
<title>Node177&#45;&gt;Node178</title>
<path fill="none" stroke="#191970" d="M637.207,-86C661.179,-86 690.4441,-86 716.759,-86"/>
<polygon fill="#191970" stroke="#191970" points="636.9392,-82.5001 626.9392,-86 636.9392,-89.5001 636.9392,-82.5001"/>
</g>
<!-- Node179 -->
<g id="node16" class="node">
<title>Node179</title>
<g id="a_node16"><a xlink:href="class_tor_controller.html#a81392f33f0c7e069762668ec3a757075" target="_top" xlink:title="Callback after connection lost or failed connection attempt. ">
<polygon fill="#ffffff" stroke="#000000" points="711.5,-38.5 711.5,-57.5 863.5,-57.5 863.5,-38.5 711.5,-38.5"/>
<text text-anchor="middle" x="787.5" y="-45.5" font-family="Helvetica,sans-Serif" font-size="10.00" fill="#000000">TorController::disconnected_cb</text>
</a>
</g>
</g>
<!-- Node177&#45;&gt;Node179 -->
<g id="edge15" class="edge">
<title>Node177&#45;&gt;Node179</title>
<path fill="none" stroke="#191970" d="M636.9249,-76.681C667.4203,-70.8723 706.5638,-63.4164 737.2966,-57.5626"/>
<polygon fill="#191970" stroke="#191970" points="636.1077,-73.2736 626.9392,-78.583 637.4175,-80.15 636.1077,-73.2736"/>
</g>
<!-- Node180 -->
<g id="node17" class="node">
<title>Node180</title>
<g id="a_node17"><a xlink:href="class_tor_controller.html#ae5d4304836fce79574ec540c5ada8269" target="_top" xlink:title="Reconnect, after getting disconnected. ">
<polygon fill="#ffffff" stroke="#000000" points="929.5,-38.5 929.5,-57.5 1055.5,-57.5 1055.5,-38.5 929.5,-38.5"/>
<text text-anchor="middle" x="992.5" y="-45.5" font-family="Helvetica,sans-Serif" font-size="10.00" fill="#000000">TorController::Reconnect</text>
</a>
</g>
</g>
<!-- Node179&#45;&gt;Node180 -->
<g id="edge16" class="edge">
<title>Node179&#45;&gt;Node180</title>
<path fill="none" stroke="#191970" d="M873.7992,-48C892.4248,-48 911.7826,-48 929.3282,-48"/>
<polygon fill="#191970" stroke="#191970" points="873.5431,-44.5001 863.5431,-48 873.5431,-51.5001 873.5431,-44.5001"/>
</g>
<!-- Node181 -->
<g id="node18" class="node">
<title>Node181</title>
<g id="a_node18"><a xlink:href="class_tor_controller.html#a2fa9614b4fa0e24c57f443b3c56f835c" target="_top" xlink:title="Callback for reconnect timer. ">
<polygon fill="#ffffff" stroke="#000000" points="1134.5,-38.5 1134.5,-57.5 1271.5,-57.5 1271.5,-38.5 1134.5,-38.5"/>
<text text-anchor="middle" x="1203" y="-45.5" font-family="Helvetica,sans-Serif" font-size="10.00" fill="#000000">TorController::reconnect_cb</text>
</a>
</g>
</g>
<!-- Node180&#45;&gt;Node181 -->
<g id="edge17" class="edge">
<title>Node180&#45;&gt;Node181</title>
<path fill="none" stroke="#191970" d="M1065.7301,-48C1088.0138,-48 1112.4139,-48 1134.3816,-48"/>
<polygon fill="#191970" stroke="#191970" points="1065.657,-44.5001 1055.6569,-48 1065.6569,-51.5001 1065.657,-44.5001"/>
</g>
<!-- Node183 -->
<g id="node20" class="node">
<title>Node183</title>
<g id="a_node20"><a xlink:href="class_c_connman.html#a3bd6aed18096f954c24c80b32c876da5" target="_top" xlink:title="CConnman::OpenNetworkConnection">
<polygon fill="#ffffff" stroke="#000000" points="1112,-190.5 1112,-209.5 1294,-209.5 1294,-190.5 1112,-190.5"/>
<text text-anchor="middle" x="1203" y="-197.5" font-family="Helvetica,sans-Serif" font-size="10.00" fill="#000000">CConnman::OpenNetworkConnection</text>
</a>
</g>
</g>
<!-- Node182&#45;&gt;Node183 -->
<g id="edge19" class="edge">
<title>Node182&#45;&gt;Node183</title>
<path fill="none" stroke="#191970" d="M1068.5806,-200C1082.5924,-200 1097.353,-200 1111.7573,-200"/>
<polygon fill="#191970" stroke="#191970" points="1068.526,-196.5001 1058.526,-200 1068.5259,-203.5001 1068.526,-196.5001"/>
</g>
<!-- Node184 -->
<g id="node21" class="node">
<title>Node184</title>
<g id="a_node21"><a xlink:href="class_c_connman.html#a161f1b41271db1a10cec61a825524b5d" target="_top" xlink:title="CConnman::ProcessOneShot">
<polygon fill="#ffffff" stroke="#000000" points="1330,-190.5 1330,-209.5 1476,-209.5 1476,-190.5 1330,-190.5"/>
<text text-anchor="middle" x="1403" y="-197.5" font-family="Helvetica,sans-Serif" font-size="10.00" fill="#000000">CConnman::ProcessOneShot</text>
</a>
</g>
</g>
<!-- Node183&#45;&gt;Node184 -->
<g id="edge20" class="edge">
<title>Node183&#45;&gt;Node184</title>
<path fill="none" stroke="#191970" d="M1304.3291,-200C1312.9475,-200 1321.5529,-200 1329.8889,-200"/>
<polygon fill="#191970" stroke="#191970" points="1304.221,-196.5001 1294.221,-200 1304.221,-203.5001 1304.221,-196.5001"/>
</g>
<!-- Node185 -->
<g id="node22" class="node">
<title>Node185</title>
<g id="a_node22"><a xlink:href="class_c_connman.html#ac4c8cf5142f88565e789f3b173d89b3e" target="_top" xlink:title="CConnman::ThreadOpenConnections">
<polygon fill="#ffffff" stroke="#000000" points="1512,-202.5 1512,-221.5 1692,-221.5 1692,-202.5 1512,-202.5"/>
<text text-anchor="middle" x="1602" y="-209.5" font-family="Helvetica,sans-Serif" font-size="10.00" fill="#000000">CConnman::ThreadOpenConnections</text>
</a>
</g>
</g>
<!-- Node183&#45;&gt;Node185 -->
<g id="edge23" class="edge">
<title>Node183&#45;&gt;Node185</title>
<path fill="none" stroke="#191970" d="M1264.6434,-211.1026C1285.3407,-214.3275 1308.6012,-217.4082 1330,-219 1390.5334,-223.503 1458.8292,-221.7217 1511.8429,-218.8304"/>
<polygon fill="#191970" stroke="#191970" points="1265.1355,-207.6369 1254.7082,-209.5137 1264.03,-214.549 1265.1355,-207.6369"/>
</g>
<!-- Node186 -->
<g id="node23" class="node">
<title>Node186</title>
<g id="a_node23"><a xlink:href="class_c_connman.html#a0b787caf95e52a346a2b31a580d60a62" target="_top" xlink:title="CConnman::ThreadOpenAdded\lConnections">
<polygon fill="#ffffff" stroke="#000000" points="1525.5,-153 1525.5,-183 1678.5,-183 1678.5,-153 1525.5,-153"/>
<text text-anchor="start" x="1533.5" y="-171" font-family="Helvetica,sans-Serif" font-size="10.00" fill="#000000">CConnman::ThreadOpenAdded</text>
<text text-anchor="middle" x="1602" y="-160" font-family="Helvetica,sans-Serif" font-size="10.00" fill="#000000">Connections</text>
</a>
</g>
</g>
<!-- Node183&#45;&gt;Node186 -->
<g id="edge24" class="edge">
<title>Node183&#45;&gt;Node186</title>
<path fill="none" stroke="#191970" d="M1268.5847,-188.8999C1288.2795,-185.915 1309.973,-182.9716 1330,-181 1395.7505,-174.527 1470.7722,-171.2472 1525.3489,-169.6032"/>
<polygon fill="#191970" stroke="#191970" points="1267.8356,-185.474 1258.4872,-190.4596 1268.9043,-192.3919 1267.8356,-185.474"/>
</g>
<!-- Node184&#45;&gt;Node185 -->
<g id="edge21" class="edge">
<title>Node184&#45;&gt;Node185</title>
<path fill="none" stroke="#191970" d="M1486.3577,-205.0266C1494.7192,-205.5308 1503.237,-206.0444 1511.6663,-206.5527"/>
<polygon fill="#191970" stroke="#191970" points="1486.445,-201.5256 1476.2525,-204.4172 1486.0236,-208.5129 1486.445,-201.5256"/>
</g>
<!-- Node185&#45;&gt;Node175 -->
<g id="edge22" class="edge">
<title>Node185&#45;&gt;Node175</title>
<path fill="none" stroke="#191970" d="M1686.846,-201.1791C1700.8791,-199.3893 1714.9617,-197.5933 1727.6075,-195.9805"/>
<polygon fill="#191970" stroke="#191970" points="1686.1346,-197.7414 1676.6577,-202.4784 1687.0202,-204.6851 1686.1346,-197.7414"/>
</g>
<!-- Node186&#45;&gt;Node175 -->
<g id="edge25" class="edge">
<title>Node186&#45;&gt;Node175</title>
<path fill="none" stroke="#191970" d="M1688.9033,-179.0833C1702.3137,-180.7936 1715.7031,-182.5013 1727.7746,-184.0408"/>
<polygon fill="#191970" stroke="#191970" points="1689.0281,-175.571 1678.6656,-177.7776 1688.1424,-182.5147 1689.0281,-175.571"/>
</g>
<!-- Node188&#45;&gt;Node174 -->
<g id="edge28" class="edge">
<title>Node188&#45;&gt;Node174</title>
<path fill="none" stroke="#191970" d="M873.7175,-276C885.398,-276 897.368,-276 908.9997,-276"/>
<polygon fill="#191970" stroke="#191970" points="873.5431,-272.5001 863.5431,-276 873.5431,-279.5001 873.5431,-272.5001"/>
</g>
<!-- Node190 -->
<g id="node27" class="node">
<title>Node190</title>
<g id="a_node27"><a xlink:href="class_c_connman.html#aa680bfe4844faa7eec359d9f2c6cab89" target="_top" xlink:title="CConnman::Bind">
<polygon fill="#ffffff" stroke="#000000" points="1157,-114.5 1157,-133.5 1249,-133.5 1249,-114.5 1157,-114.5"/>
<text text-anchor="middle" x="1203" y="-121.5" font-family="Helvetica,sans-Serif" font-size="10.00" fill="#000000">CConnman::Bind</text>
</a>
</g>
</g>
<!-- Node189&#45;&gt;Node190 -->
<g id="edge30" class="edge">
<title>Node189&#45;&gt;Node190</title>
<path fill="none" stroke="#191970" d="M1070.6644,-124C1099.6432,-124 1131.5613,-124 1156.7896,-124"/>
<polygon fill="#191970" stroke="#191970" points="1070.5527,-120.5001 1060.5526,-124 1070.5526,-127.5001 1070.5527,-120.5001"/>
</g>
<!-- Node191 -->
<g id="node28" class="node">
<title>Node191</title>
<g id="a_node28"><a xlink:href="class_c_connman.html#ada57a401d7b9c6ee0c304ddd195f4d1e" target="_top" xlink:title="CConnman::InitBinds">
<polygon fill="#ffffff" stroke="#000000" points="1348,-114.5 1348,-133.5 1458,-133.5 1458,-114.5 1348,-114.5"/>
<text text-anchor="middle" x="1403" y="-121.5" font-family="Helvetica,sans-Serif" font-size="10.00" fill="#000000">CConnman::InitBinds</text>
</a>
</g>
</g>
<!-- Node190&#45;&gt;Node191 -->
<g id="edge31" class="edge">
<title>Node190&#45;&gt;Node191</title>
<path fill="none" stroke="#191970" d="M1259.4502,-124C1287.1321,-124 1320.3473,-124 1347.8523,-124"/>
<polygon fill="#191970" stroke="#191970" points="1259.1352,-120.5001 1249.1352,-124 1259.1351,-127.5001 1259.1352,-120.5001"/>
</g>
<!-- Node191&#45;&gt;Node175 -->
<g id="edge32" class="edge">
<title>Node191&#45;&gt;Node175</title>
<path fill="none" stroke="#191970" d="M1468.0727,-120.5015C1527.6055,-119.1608 1617.4876,-121.8564 1692,-144 1718.5659,-151.8948 1746.0105,-169.4131 1761.5961,-180.4083"/>
<polygon fill="#191970" stroke="#191970" points="1467.9561,-117.0033 1458.0541,-120.7717 1468.1449,-124.0007 1467.9561,-117.0033"/>
</g>
<!-- Node192&#45;&gt;Node182 -->
<g id="edge34" class="edge">
<title>Node192&#45;&gt;Node182</title>
<path fill="none" stroke="#191970" d="M657.5869,-200C732.9723,-200 852.357,-200 926.3655,-200"/>
<polygon fill="#191970" stroke="#191970" points="657.251,-196.5001 647.251,-200 657.2509,-203.5001 657.251,-196.5001"/>
</g>
<!-- Node193 -->
<g id="node30" class="node">
<title>Node193</title>
<g id="a_node30"><a xlink:href="netbase_8h.html#ab0050e9d599c152605bab7ef97566d9e" target="_top" xlink:title="ConnectThroughProxy">
<polygon fill="#ffffff" stroke="#000000" points="730.5,-152.5 730.5,-171.5 844.5,-171.5 844.5,-152.5 730.5,-152.5"/>
<text text-anchor="middle" x="787.5" y="-159.5" font-family="Helvetica,sans-Serif" font-size="10.00" fill="#000000">ConnectThroughProxy</text>
</a>
</g>
</g>
<!-- Node192&#45;&gt;Node193 -->
<g id="edge35" class="edge">
<title>Node192&#45;&gt;Node193</title>
<path fill="none" stroke="#191970" d="M647.9451,-188.5819C676.49,-183.1448 710.2371,-176.7168 737.3946,-171.5439"/>
<polygon fill="#191970" stroke="#191970" points="647.2532,-185.1507 638.0848,-190.46 648.5631,-192.027 647.2532,-185.1507"/>
</g>
<!-- Node193&#45;&gt;Node182 -->
<g id="edge36" class="edge">
<title>Node193&#45;&gt;Node182</title>
<path fill="none" stroke="#191970" d="M849.0978,-173.4181C878.4296,-178.8552 913.107,-185.2832 941.0133,-190.4561"/>
<polygon fill="#191970" stroke="#191970" points="849.436,-169.9213 838.9655,-171.54 848.1601,-176.804 849.436,-169.9213"/>
</g>
<!-- Node195 -->
<g id="node32" class="node">
<title>Node195</title>
<g id="a_node32"><a xlink:href="class_options_dialog.html#a11e902a52cb7472497d14e70cd9399d9" target="_top" xlink:title="OptionsDialog::setModel">
<polygon fill="#ffffff" stroke="#000000" points="342.5,-92.5 342.5,-111.5 466.5,-111.5 466.5,-92.5 342.5,-92.5"/>
<text text-anchor="middle" x="404.5" y="-99.5" font-family="Helvetica,sans-Serif" font-size="10.00" fill="#000000">OptionsDialog::setModel</text>
</a>
</g>
</g>
<!-- Node194&#45;&gt;Node195 -->
<g id="edge38" class="edge">
<title>Node194&#45;&gt;Node195</title>
<path fill="none" stroke="#191970" d="M309.3037,-102C320.4147,-102 331.6551,-102 342.3277,-102"/>
<polygon fill="#191970" stroke="#191970" points="309.1562,-98.5001 299.1561,-102 309.1561,-105.5001 309.1562,-98.5001"/>
</g>
<!-- Node199 -->
<g id="node36" class="node">
<title>Node199</title>
<g id="a_node36"><a xlink:href="class_options_dialog.html#a361ac4fdb9bafd3cad531e055084dd08" target="_top" xlink:title="OptionsDialog::on_okButton\l_clicked">
<polygon fill="#ffffff" stroke="#000000" points="335,-43 335,-73 474,-73 474,-43 335,-43"/>
<text text-anchor="start" x="343" y="-61" font-family="Helvetica,sans-Serif" font-size="10.00" fill="#000000">OptionsDialog::on_okButton</text>
<text text-anchor="middle" x="404.5" y="-50" font-family="Helvetica,sans-Serif" font-size="10.00" fill="#000000">_clicked</text>
</a>
</g>
</g>
<!-- Node194&#45;&gt;Node199 -->
<g id="edge42" class="edge">
<title>Node194&#45;&gt;Node199</title>
<path fill="none" stroke="#191970" d="M297.2366,-84.5145C312.6167,-80.7127 328.7571,-76.723 343.7122,-73.0262"/>
<polygon fill="#191970" stroke="#191970" points="296.1275,-81.1833 287.2597,-86.9808 297.8074,-87.9787 296.1275,-81.1833"/>
</g>
<!-- Node196 -->
<g id="node33" class="node">
<title>Node196</title>
<g id="a_node33"><a xlink:href="class_raven_g_u_i.html#a18e94f625f9327f3718c02f3a2d4d21c" target="_top" xlink:title="Show configuration dialog. ">
<polygon fill="#ffffff" stroke="#000000" points="521,-.5 521,-19.5 655,-19.5 655,-.5 521,-.5"/>
<text text-anchor="middle" x="588" y="-7.5" font-family="Helvetica,sans-Serif" font-size="10.00" fill="#000000">RavenGUI::optionsClicked</text>
</a>
</g>
</g>
<!-- Node195&#45;&gt;Node196 -->
<g id="edge39" class="edge">
<title>Node195&#45;&gt;Node196</title>
<path fill="none" stroke="#191970" d="M465.4378,-88.2437C468.4348,-86.6802 471.3115,-84.939 474,-83 497.3947,-66.1273 486.372,-45.5445 510,-29 515.4802,-25.1627 521.6475,-22.0965 528.0516,-19.647"/>
<polygon fill="#191970" stroke="#191970" points="463.8365,-85.1262 456.1535,-92.4215 466.709,-91.5097 463.8365,-85.1262"/>
</g>
<!-- Node197 -->
<g id="node34" class="node">
<title>Node197</title>
<g id="a_node34"><a xlink:href="class_raven_g_u_i.html#a6e65b4f2b8a82b4ab99b77fe9d43a500" target="_top" xlink:title="Create the main UI actions. ">
<polygon fill="#ffffff" stroke="#000000" points="723,-.5 723,-19.5 852,-19.5 852,-.5 723,-.5"/>
<text text-anchor="middle" x="787.5" y="-7.5" font-family="Helvetica,sans-Serif" font-size="10.00" fill="#000000">RavenGUI::createActions</text>
</a>
</g>
</g>
<!-- Node196&#45;&gt;Node197 -->
<g id="edge40" class="edge">
<title>Node196&#45;&gt;Node197</title>
<path fill="none" stroke="#191970" d="M665.3865,-10C684.3988,-10 704.554,-10 722.8922,-10"/>
<polygon fill="#191970" stroke="#191970" points="665.2635,-6.5001 655.2635,-10 665.2634,-13.5001 665.2635,-6.5001"/>
</g>
<!-- Node198 -->
<g id="node35" class="node">
<title>Node198</title>
<g id="a_node35"><a xlink:href="class_raven_g_u_i.html#af82cbe028fc29d0ea71074eced806071" target="_top" xlink:title="RavenGUI::RavenGUI">
<polygon fill="#ffffff" stroke="#000000" points="934.5,-.5 934.5,-19.5 1050.5,-19.5 1050.5,-.5 934.5,-.5"/>
<text text-anchor="middle" x="992.5" y="-7.5" font-family="Helvetica,sans-Serif" font-size="10.00" fill="#000000">RavenGUI::RavenGUI</text>
</a>
</g>
</g>
<!-- Node197&#45;&gt;Node198 -->
<g id="edge41" class="edge">
<title>Node197&#45;&gt;Node198</title>
<path fill="none" stroke="#191970" d="M862.1509,-10C885.9949,-10 912.0146,-10 934.4923,-10"/>
<polygon fill="#191970" stroke="#191970" points="862.0819,-6.5001 852.0819,-10 862.0819,-13.5001 862.0819,-6.5001"/>
</g>
</g>
</svg>
