<?xml version="1.0" encoding="UTF-8" standalone="no"?>
<!DOCTYPE svg PUBLIC "-//W3C//DTD SVG 1.1//EN"
 "http://www.w3.org/Graphics/SVG/1.1/DTD/svg11.dtd">
<!-- Generated by graphviz version 2.40.1 (20161225.0304)
 -->
<!-- Title: WalletFrame::encryptWallet Pages: 1 -->
<svg width="876pt" height="109pt"
 viewBox="0.00 0.00 876.00 109.00" xmlns="http://www.w3.org/2000/svg" xmlns:xlink="http://www.w3.org/1999/xlink">
<g id="graph0" class="graph" transform="scale(1 1) rotate(0) translate(4 105)">
<title>WalletFrame::encryptWallet</title>
<polygon fill="#ffffff" stroke="transparent" points="-4,4 -4,-105 872,-105 872,4 -4,4"/>
<!-- Node378 -->
<g id="node1" class="node">
<title>Node378</title>
<polygon fill="#bfbfbf" stroke="#000000" points="0,-62.5 0,-81.5 138,-81.5 138,-62.5 0,-62.5"/>
<text text-anchor="middle" x="69" y="-69.5" font-family="Helvetica,sans-Serif" font-size="10.00" fill="#000000">WalletFrame::encryptWallet</text>
</g>
<!-- Node379 -->
<g id="node2" class="node">
<title>Node379</title>
<g id="a_node2"><a xlink:href="class_wallet_frame.html#a026798332d142b693e4f1820185d3f1c" target="_top" xlink:title="WalletFrame::currentWalletView">
<polygon fill="#ffffff" stroke="#000000" points="174,-81.5 174,-100.5 332,-100.5 332,-81.5 174,-81.5"/>
<text text-anchor="middle" x="253" y="-88.5" font-family="Helvetica,sans-Serif" font-size="10.00" fill="#000000">WalletFrame::currentWalletView</text>
</a>
</g>
</g>
<!-- Node378&#45;&gt;Node379 -->
<g id="edge1" class="edge">
<title>Node378&#45;&gt;Node379</title>
<path fill="none" stroke="#191970" d="M138.0383,-79.129C146.4671,-79.9993 155.1706,-80.8981 163.8404,-81.7933"/>
<polygon fill="#191970" stroke="#191970" points="163.6775,-85.295 173.9841,-82.8408 164.3965,-78.332 163.6775,-85.295"/>
</g>
<!-- Node380 -->
<g id="node3" class="node">
<title>Node380</title>
<g id="a_node3"><a xlink:href="class_wallet_view.html#a164c3de8fc69ef6f39fb7c15e4bda553" target="_top" xlink:title="Encrypt the wallet. ">
<polygon fill="#ffffff" stroke="#000000" points="187,-43.5 187,-62.5 319,-62.5 319,-43.5 187,-43.5"/>
<text text-anchor="middle" x="253" y="-50.5" font-family="Helvetica,sans-Serif" font-size="10.00" fill="#000000">WalletView::encryptWallet</text>
</a>
</g>
</g>
<!-- Node378&#45;&gt;Node380 -->
<g id="edge2" class="edge">
<title>Node378&#45;&gt;Node380</title>
<path fill="none" stroke="#191970" d="M138.0383,-64.871C150.6711,-63.5666 163.9211,-62.1984 176.7498,-60.8737"/>
<polygon fill="#191970" stroke="#191970" points="177.3406,-64.3314 186.9282,-59.8226 176.6215,-57.3684 177.3406,-64.3314"/>
</g>
<!-- Node381 -->
<g id="node4" class="node">
<title>Node381</title>
<g id="a_node4"><a xlink:href="class_ask_passphrase_dialog.html#a35b83e1ef98813b6b88155aab0803ed3" target="_top" xlink:title="AskPassphraseDialog\l::setModel">
<polygon fill="#ffffff" stroke="#000000" points="385.5,-63 385.5,-93 498.5,-93 498.5,-63 385.5,-63"/>
<text text-anchor="start" x="393.5" y="-81" font-family="Helvetica,sans-Serif" font-size="10.00" fill="#000000">AskPassphraseDialog</text>
<text text-anchor="middle" x="442" y="-70" font-family="Helvetica,sans-Serif" font-size="10.00" fill="#000000">::setModel</text>
</a>
</g>
</g>
<!-- Node380&#45;&gt;Node381 -->
<g id="edge3" class="edge">
<title>Node380&#45;&gt;Node381</title>
<path fill="none" stroke="#191970" d="M319.103,-61.7438C337.3358,-64.1555 357.1234,-66.7729 375.385,-69.1885"/>
<polygon fill="#191970" stroke="#191970" points="374.9812,-72.6655 385.3538,-70.5071 375.8991,-65.7259 374.9812,-72.6655"/>
</g>
<!-- Node382 -->
<g id="node5" class="node">
<title>Node382</title>
<g id="a_node5"><a xlink:href="class_wallet_view.html#ad348f2ed9f843ef9125ca416307c7412" target="_top" xlink:title="Re&#45;emit encryption status signal. ">
<polygon fill="#ffffff" stroke="#000000" points="368,-14 368,-44 516,-44 516,-14 368,-14"/>
<text text-anchor="start" x="376" y="-32" font-family="Helvetica,sans-Serif" font-size="10.00" fill="#000000">WalletView::updateEncryption</text>
<text text-anchor="middle" x="442" y="-21" font-family="Helvetica,sans-Serif" font-size="10.00" fill="#000000">Status</text>
</a>
</g>
</g>
<!-- Node380&#45;&gt;Node382 -->
<g id="edge4" class="edge">
<title>Node380&#45;&gt;Node382</title>
<path fill="none" stroke="#191970" d="M319.103,-44.606C331.5343,-43.0274 344.6884,-41.357 357.5888,-39.7189"/>
<polygon fill="#191970" stroke="#191970" points="358.3822,-43.1463 367.8616,-38.4144 357.5003,-36.2021 358.3822,-43.1463"/>
</g>
<!-- Node383 -->
<g id="node6" class="node">
<title>Node383</title>
<g id="a_node6"><a xlink:href="class_wallet_model.html#aa89632d2019414f2ab85674cd4d01398" target="_top" xlink:title="WalletModel::getEncryption\lStatus">
<polygon fill="#ffffff" stroke="#000000" points="552,-14 552,-44 689,-44 689,-14 552,-14"/>
<text text-anchor="start" x="560" y="-32" font-family="Helvetica,sans-Serif" font-size="10.00" fill="#000000">WalletModel::getEncryption</text>
<text text-anchor="middle" x="620.5" y="-21" font-family="Helvetica,sans-Serif" font-size="10.00" fill="#000000">Status</text>
</a>
</g>
</g>
<!-- Node382&#45;&gt;Node383 -->
<g id="edge5" class="edge">
<title>Node382&#45;&gt;Node383</title>
<path fill="none" stroke="#191970" d="M516.1493,-29C524.5254,-29 533.0843,-29 541.5191,-29"/>
<polygon fill="#191970" stroke="#191970" points="541.7257,-32.5001 551.7256,-29 541.7256,-25.5001 541.7257,-32.5001"/>
</g>
<!-- Node384 -->
<g id="node7" class="node">
<title>Node384</title>
<g id="a_node7"><a xlink:href="class_c_crypto_key_store.html#acc8fed44366c98fb481333ca6e867088" target="_top" xlink:title="CCryptoKeyStore::IsCrypted">
<polygon fill="#ffffff" stroke="#000000" points="725,-38.5 725,-57.5 868,-57.5 868,-38.5 725,-38.5"/>
<text text-anchor="middle" x="796.5" y="-45.5" font-family="Helvetica,sans-Serif" font-size="10.00" fill="#000000">CCryptoKeyStore::IsCrypted</text>
</a>
</g>
</g>
<!-- Node383&#45;&gt;Node384 -->
<g id="edge6" class="edge">
<title>Node383&#45;&gt;Node384</title>
<path fill="none" stroke="#191970" d="M689.0502,-36.4003C697.5137,-37.314 706.2299,-38.2549 714.864,-39.187"/>
<polygon fill="#191970" stroke="#191970" points="714.6239,-42.6814 724.9418,-40.275 715.3753,-35.7218 714.6239,-42.6814"/>
</g>
<!-- Node385 -->
<g id="node8" class="node">
<title>Node385</title>
<g id="a_node8"><a xlink:href="class_c_crypto_key_store.html#a52919fa284a3aa10f1b4bd6018b6dbee" target="_top" xlink:title="CCryptoKeyStore::IsLocked">
<polygon fill="#ffffff" stroke="#000000" points="726.5,-.5 726.5,-19.5 866.5,-19.5 866.5,-.5 726.5,-.5"/>
<text text-anchor="middle" x="796.5" y="-7.5" font-family="Helvetica,sans-Serif" font-size="10.00" fill="#000000">CCryptoKeyStore::IsLocked</text>
</a>
</g>
</g>
<!-- Node383&#45;&gt;Node385 -->
<g id="edge7" class="edge">
<title>Node383&#45;&gt;Node385</title>
<path fill="none" stroke="#191970" d="M689.0502,-21.5997C697.9563,-20.6382 707.1423,-19.6466 716.2179,-18.6668"/>
<polygon fill="#191970" stroke="#191970" points="716.8303,-22.1211 726.3969,-17.568 716.079,-15.1616 716.8303,-22.1211"/>
</g>
</g>
</svg>
