<?xml version="1.0" encoding="UTF-8" standalone="no"?>
<!DOCTYPE svg PUBLIC "-//W3C//DTD SVG 1.1//EN"
 "http://www.w3.org/Graphics/SVG/1.1/DTD/svg11.dtd">
<!-- Generated by graphviz version 2.40.1 (20161225.0304)
 -->
<!-- Title: WalletView::updateEncryptionStatus Pages: 1 -->
<svg width="508pt" height="66pt"
 viewBox="0.00 0.00 508.00 66.00" xmlns="http://www.w3.org/2000/svg" xmlns:xlink="http://www.w3.org/1999/xlink">
<g id="graph0" class="graph" transform="scale(1 1) rotate(0) translate(4 62)">
<title>WalletView::updateEncryptionStatus</title>
<polygon fill="#ffffff" stroke="transparent" points="-4,4 -4,-62 504,-62 504,4 -4,4"/>
<!-- Node778 -->
<g id="node1" class="node">
<title>Node778</title>
<polygon fill="#bfbfbf" stroke="#000000" points="0,-14 0,-44 148,-44 148,-14 0,-14"/>
<text text-anchor="start" x="8" y="-32" font-family="Helvetica,sans-Serif" font-size="10.00" fill="#000000">WalletView::updateEncryption</text>
<text text-anchor="middle" x="74" y="-21" font-family="Helvetica,sans-Serif" font-size="10.00" fill="#000000">Status</text>
</g>
<!-- Node779 -->
<g id="node2" class="node">
<title>Node779</title>
<g id="a_node2"><a xlink:href="class_wallet_model.html#aa89632d2019414f2ab85674cd4d01398" target="_top" xlink:title="WalletModel::getEncryption\lStatus">
<polygon fill="#ffffff" stroke="#000000" points="184,-14 184,-44 321,-44 321,-14 184,-14"/>
<text text-anchor="start" x="192" y="-32" font-family="Helvetica,sans-Serif" font-size="10.00" fill="#000000">WalletModel::getEncryption</text>
<text text-anchor="middle" x="252.5" y="-21" font-family="Helvetica,sans-Serif" font-size="10.00" fill="#000000">Status</text>
</a>
</g>
</g>
<!-- Node778&#45;&gt;Node779 -->
<g id="edge1" class="edge">
<title>Node778&#45;&gt;Node779</title>
<path fill="none" stroke="#191970" d="M148.1493,-29C156.5254,-29 165.0843,-29 173.5191,-29"/>
<polygon fill="#191970" stroke="#191970" points="173.7257,-32.5001 183.7256,-29 173.7256,-25.5001 173.7257,-32.5001"/>
</g>
<!-- Node780 -->
<g id="node3" class="node">
<title>Node780</title>
<g id="a_node3"><a xlink:href="class_c_crypto_key_store.html#acc8fed44366c98fb481333ca6e867088" target="_top" xlink:title="CCryptoKeyStore::IsCrypted">
<polygon fill="#ffffff" stroke="#000000" points="357,-38.5 357,-57.5 500,-57.5 500,-38.5 357,-38.5"/>
<text text-anchor="middle" x="428.5" y="-45.5" font-family="Helvetica,sans-Serif" font-size="10.00" fill="#000000">CCryptoKeyStore::IsCrypted</text>
</a>
</g>
</g>
<!-- Node779&#45;&gt;Node780 -->
<g id="edge2" class="edge">
<title>Node779&#45;&gt;Node780</title>
<path fill="none" stroke="#191970" d="M321.0502,-36.4003C329.5137,-37.314 338.2299,-38.2549 346.864,-39.187"/>
<polygon fill="#191970" stroke="#191970" points="346.6239,-42.6814 356.9418,-40.275 347.3753,-35.7218 346.6239,-42.6814"/>
</g>
<!-- Node781 -->
<g id="node4" class="node">
<title>Node781</title>
<g id="a_node4"><a xlink:href="class_c_crypto_key_store.html#a52919fa284a3aa10f1b4bd6018b6dbee" target="_top" xlink:title="CCryptoKeyStore::IsLocked">
<polygon fill="#ffffff" stroke="#000000" points="358.5,-.5 358.5,-19.5 498.5,-19.5 498.5,-.5 358.5,-.5"/>
<text text-anchor="middle" x="428.5" y="-7.5" font-family="Helvetica,sans-Serif" font-size="10.00" fill="#000000">CCryptoKeyStore::IsLocked</text>
</a>
</g>
</g>
<!-- Node779&#45;&gt;Node781 -->
<g id="edge3" class="edge">
<title>Node779&#45;&gt;Node781</title>
<path fill="none" stroke="#191970" d="M321.0502,-21.5997C329.9563,-20.6382 339.1423,-19.6466 348.2179,-18.6668"/>
<polygon fill="#191970" stroke="#191970" points="348.8303,-22.1211 358.3969,-17.568 348.079,-15.1616 348.8303,-22.1211"/>
</g>
</g>
</svg>
