<?xml version="1.0" encoding="UTF-8" standalone="no"?>
<!DOCTYPE svg PUBLIC "-//W3C//DTD SVG 1.1//EN"
 "http://www.w3.org/Graphics/SVG/1.1/DTD/svg11.dtd">
<!-- Generated by graphviz version 2.40.1 (20161225.0304)
 -->
<!-- Title: CAssetsCache::AddNewAsset Pages: 1 -->
<svg width="536pt" height="66pt"
 viewBox="0.00 0.00 536.00 66.00" xmlns="http://www.w3.org/2000/svg" xmlns:xlink="http://www.w3.org/1999/xlink">
<g id="graph0" class="graph" transform="scale(1 1) rotate(0) translate(4 62)">
<title>CAssetsCache::AddNewAsset</title>
<polygon fill="#ffffff" stroke="transparent" points="-4,4 -4,-62 532,-62 532,4 -4,4"/>
<!-- Node47 -->
<g id="node1" class="node">
<title>Node47</title>
<polygon fill="#bfbfbf" stroke="#000000" points="0,-19.5 0,-38.5 152,-38.5 152,-19.5 0,-19.5"/>
<text text-anchor="middle" x="76" y="-26.5" font-family="Helvetica,sans-Serif" font-size="10.00" fill="#000000">CAssetsCache::AddNewAsset</text>
</g>
<!-- Node48 -->
<g id="node2" class="node">
<title>Node48</title>
<g id="a_node2"><a xlink:href="coins_8h.html#a1f92a68675031d50db78224a057be854" target="_top" xlink:title="Utility function to add all of a transaction&#39;s outputs to a cache. ">
<polygon fill="#ffffff" stroke="#000000" points="188,-19.5 188,-38.5 247,-38.5 247,-19.5 188,-19.5"/>
<text text-anchor="middle" x="217.5" y="-26.5" font-family="Helvetica,sans-Serif" font-size="10.00" fill="#000000">AddCoins</text>
</a>
</g>
</g>
<!-- Node47&#45;&gt;Node48 -->
<g id="edge1" class="edge">
<title>Node47&#45;&gt;Node48</title>
<path fill="none" stroke="#191970" d="M162.1671,-29C171.3106,-29 180.0931,-29 187.8626,-29"/>
<polygon fill="#191970" stroke="#191970" points="162.1346,-25.5001 152.1345,-29 162.1345,-32.5001 162.1346,-25.5001"/>
</g>
<!-- Node49 -->
<g id="node3" class="node">
<title>Node49</title>
<g id="a_node3"><a xlink:href="class_c_coins_view_cache.html#a4533d27d1d8d744080545f7cea5b8e7c" target="_top" xlink:title="Get a cursor to iterate over the whole state. ">
<polygon fill="#ffffff" stroke="#000000" points="283,-38.5 283,-57.5 418,-57.5 418,-38.5 283,-38.5"/>
<text text-anchor="middle" x="350.5" y="-45.5" font-family="Helvetica,sans-Serif" font-size="10.00" fill="#000000">CCoinsViewCache::Cursor</text>
</a>
</g>
</g>
<!-- Node48&#45;&gt;Node49 -->
<g id="edge2" class="edge">
<title>Node48&#45;&gt;Node49</title>
<path fill="none" stroke="#191970" d="M256.9513,-34.6359C265.4211,-35.8459 274.5966,-37.1567 283.7778,-38.4683"/>
<polygon fill="#191970" stroke="#191970" points="257.4115,-31.1662 247.017,-33.2167 256.4215,-38.0958 257.4115,-31.1662"/>
</g>
<!-- Node50 -->
<g id="node4" class="node">
<title>Node50</title>
<g id="a_node4"><a xlink:href="validation_8h.html#a91b5ac61688f4e264fa71d1caf138340" target="_top" xlink:title="UpdateCoins">
<polygon fill="#ffffff" stroke="#000000" points="313.5,-.5 313.5,-19.5 387.5,-19.5 387.5,-.5 313.5,-.5"/>
<text text-anchor="middle" x="350.5" y="-7.5" font-family="Helvetica,sans-Serif" font-size="10.00" fill="#000000">UpdateCoins</text>
</a>
</g>
</g>
<!-- Node48&#45;&gt;Node50 -->
<g id="edge3" class="edge">
<title>Node48&#45;&gt;Node50</title>
<path fill="none" stroke="#191970" d="M257.1174,-23.3404C274.9655,-20.7906 295.9201,-17.7971 313.4521,-15.2926"/>
<polygon fill="#191970" stroke="#191970" points="256.4215,-19.9042 247.017,-24.7833 257.4115,-26.8338 256.4215,-19.9042"/>
</g>
<!-- Node51 -->
<g id="node5" class="node">
<title>Node51</title>
<g id="a_node5"><a xlink:href="validation_8h.html#ae9afb0553a9927e26785f4e4806a9892" target="_top" xlink:title="Apply the effects of this transaction on the UTXO set represented by view. ">
<polygon fill="#ffffff" stroke="#000000" points="454,-.5 454,-19.5 528,-19.5 528,-.5 454,-.5"/>
<text text-anchor="middle" x="491" y="-7.5" font-family="Helvetica,sans-Serif" font-size="10.00" fill="#000000">UpdateCoins</text>
</a>
</g>
</g>
<!-- Node50&#45;&gt;Node51 -->
<g id="edge4" class="edge">
<title>Node50&#45;&gt;Node51</title>
<path fill="none" stroke="#191970" d="M397.875,-10C416.0204,-10 436.4514,-10 453.5432,-10"/>
<polygon fill="#191970" stroke="#191970" points="397.7826,-6.5001 387.7825,-10 397.7825,-13.5001 397.7826,-6.5001"/>
</g>
</g>
</svg>
