<?xml version="1.0" encoding="UTF-8" standalone="no"?>
<!DOCTYPE svg PUBLIC "-//W3C//DTD SVG 1.1//EN"
 "http://www.w3.org/Graphics/SVG/1.1/DTD/svg11.dtd">
<!-- Generated by graphviz version 2.40.1 (20161225.0304)
 -->
<!-- Title: OverviewPage::updateAlerts Pages: 1 -->
<svg width="1360pt" height="88pt"
 viewBox="0.00 0.00 1360.00 88.00" xmlns="http://www.w3.org/2000/svg" xmlns:xlink="http://www.w3.org/1999/xlink">
<g id="graph0" class="graph" transform="scale(1 1) rotate(0) translate(4 84)">
<title>OverviewPage::updateAlerts</title>
<polygon fill="#ffffff" stroke="transparent" points="-4,4 -4,-84 1356,-84 1356,4 -4,4"/>
<!-- Node178 -->
<g id="node1" class="node">
<title>Node178</title>
<polygon fill="#bfbfbf" stroke="#000000" points="0,-33 0,-52 141,-52 141,-33 0,-33"/>
<text text-anchor="middle" x="70.5" y="-40" font-family="Helvetica,sans-Serif" font-size="10.00" fill="#000000">OverviewPage::updateAlerts</text>
</g>
<!-- Node179 -->
<g id="node2" class="node">
<title>Node179</title>
<g id="a_node2"><a xlink:href="class_overview_page.html#a5d2610ab2b9c58e3b5f67c05f984e097" target="_top" xlink:title="OverviewPage::setClientModel">
<polygon fill="#ffffff" stroke="#000000" points="177,-33 177,-52 329,-52 329,-33 177,-33"/>
<text text-anchor="middle" x="253" y="-40" font-family="Helvetica,sans-Serif" font-size="10.00" fill="#000000">OverviewPage::setClientModel</text>
</a>
</g>
</g>
<!-- Node178&#45;&gt;Node179 -->
<g id="edge1" class="edge">
<title>Node178&#45;&gt;Node179</title>
<path fill="none" stroke="#191970" d="M151.3369,-42.5C159.8287,-42.5 168.4424,-42.5 176.8787,-42.5"/>
<polygon fill="#191970" stroke="#191970" points="151.0593,-39.0001 141.0593,-42.5 151.0592,-46.0001 151.0593,-39.0001"/>
</g>
<!-- Node180 -->
<g id="node3" class="node">
<title>Node180</title>
<g id="a_node3"><a xlink:href="class_wallet_view.html#a46d9a8d93adfdcc29cae9ff0d44c313e" target="_top" xlink:title="Set the client model. ">
<polygon fill="#ffffff" stroke="#000000" points="365,-33 365,-52 502,-52 502,-33 365,-33"/>
<text text-anchor="middle" x="433.5" y="-40" font-family="Helvetica,sans-Serif" font-size="10.00" fill="#000000">WalletView::setClientModel</text>
</a>
</g>
</g>
<!-- Node179&#45;&gt;Node180 -->
<g id="edge2" class="edge">
<title>Node179&#45;&gt;Node180</title>
<path fill="none" stroke="#191970" d="M339.0849,-42.5C347.6902,-42.5 356.3461,-42.5 364.7387,-42.5"/>
<polygon fill="#191970" stroke="#191970" points="339.0251,-39.0001 329.0251,-42.5 339.0251,-46.0001 339.0251,-39.0001"/>
</g>
<!-- Node181 -->
<g id="node4" class="node">
<title>Node181</title>
<g id="a_node4"><a xlink:href="class_wallet_frame.html#aa199c3f27654199d84c365cf86167d86" target="_top" xlink:title="WalletFrame::addWallet">
<polygon fill="#ffffff" stroke="#000000" points="538,-33 538,-52 660,-52 660,-33 538,-33"/>
<text text-anchor="middle" x="599" y="-40" font-family="Helvetica,sans-Serif" font-size="10.00" fill="#000000">WalletFrame::addWallet</text>
</a>
</g>
</g>
<!-- Node180&#45;&gt;Node181 -->
<g id="edge3" class="edge">
<title>Node180&#45;&gt;Node181</title>
<path fill="none" stroke="#191970" d="M512.2861,-42.5C520.8774,-42.5 529.5258,-42.5 537.8597,-42.5"/>
<polygon fill="#191970" stroke="#191970" points="512.2491,-39.0001 502.2491,-42.5 512.2491,-46.0001 512.2491,-39.0001"/>
</g>
<!-- Node182 -->
<g id="node5" class="node">
<title>Node182</title>
<g id="a_node5"><a xlink:href="class_raven_g_u_i.html#a174a3e75c334c5930d3261a2955c3725" target="_top" xlink:title="Set the client model. ">
<polygon fill="#ffffff" stroke="#000000" points="696,-33 696,-52 830,-52 830,-33 696,-33"/>
<text text-anchor="middle" x="763" y="-40" font-family="Helvetica,sans-Serif" font-size="10.00" fill="#000000">RavenGUI::setClientModel</text>
</a>
</g>
</g>
<!-- Node181&#45;&gt;Node182 -->
<g id="edge4" class="edge">
<title>Node181&#45;&gt;Node182</title>
<path fill="none" stroke="#191970" d="M670.303,-42.5C678.7776,-42.5 687.4074,-42.5 695.8217,-42.5"/>
<polygon fill="#191970" stroke="#191970" points="670.0676,-39.0001 660.0675,-42.5 670.0675,-46.0001 670.0676,-39.0001"/>
</g>
<!-- Node183 -->
<g id="node6" class="node">
<title>Node183</title>
<g id="a_node6"><a xlink:href="class_raven_application.html#a60123f611cc210870fa67974cb2c804c" target="_top" xlink:title="Request core shutdown. ">
<polygon fill="#ffffff" stroke="#000000" points="1221,-49.5 1221,-79.5 1352,-79.5 1352,-49.5 1221,-49.5"/>
<text text-anchor="start" x="1229" y="-67.5" font-family="Helvetica,sans-Serif" font-size="10.00" fill="#000000">RavenApplication::request</text>
<text text-anchor="middle" x="1286.5" y="-56.5" font-family="Helvetica,sans-Serif" font-size="10.00" fill="#000000">Shutdown</text>
</a>
</g>
</g>
<!-- Node182&#45;&gt;Node183 -->
<g id="edge5" class="edge">
<title>Node182&#45;&gt;Node183</title>
<path fill="none" stroke="#191970" d="M840.1333,-45.7415C943.2203,-50.0737 1124.1346,-57.6766 1220.9629,-61.7458"/>
<polygon fill="#191970" stroke="#191970" points="840.238,-42.2429 830.0999,-45.3199 839.944,-49.2367 840.238,-42.2429"/>
</g>
<!-- Node184 -->
<g id="node7" class="node">
<title>Node184</title>
<g id="a_node7"><a xlink:href="class_raven_application.html#a1a3dcf33ba44507984b2a04e7ebf1542" target="_top" xlink:title="RavenApplication::initialize\lResult">
<polygon fill="#ffffff" stroke="#000000" points="866,-5.5 866,-35.5 1000,-35.5 1000,-5.5 866,-5.5"/>
<text text-anchor="start" x="874" y="-23.5" font-family="Helvetica,sans-Serif" font-size="10.00" fill="#000000">RavenApplication::initialize</text>
<text text-anchor="middle" x="933" y="-12.5" font-family="Helvetica,sans-Serif" font-size="10.00" fill="#000000">Result</text>
</a>
</g>
</g>
<!-- Node182&#45;&gt;Node184 -->
<g id="edge6" class="edge">
<title>Node182&#45;&gt;Node184</title>
<path fill="none" stroke="#191970" d="M840.146,-32.5164C848.6879,-31.411 857.3366,-30.2917 865.7428,-29.2039"/>
<polygon fill="#191970" stroke="#191970" points="839.6566,-29.0505 830.1885,-33.805 840.555,-35.9926 839.6566,-29.0505"/>
</g>
<!-- Node185 -->
<g id="node8" class="node">
<title>Node185</title>
<g id="a_node8"><a xlink:href="class_raven_application.html#aecfdce3a245b959def5dd35e5cfb192e" target="_top" xlink:title="RavenApplication::startThread">
<polygon fill="#ffffff" stroke="#000000" points="1036,-11 1036,-30 1185,-30 1185,-11 1036,-11"/>
<text text-anchor="middle" x="1110.5" y="-18" font-family="Helvetica,sans-Serif" font-size="10.00" fill="#000000">RavenApplication::startThread</text>
</a>
</g>
</g>
<!-- Node184&#45;&gt;Node185 -->
<g id="edge7" class="edge">
<title>Node184&#45;&gt;Node185</title>
<path fill="none" stroke="#191970" d="M1010.3486,-20.5C1018.821,-20.5 1027.4344,-20.5 1035.873,-20.5"/>
<polygon fill="#191970" stroke="#191970" points="1010.1052,-17.0001 1000.1051,-20.5 1010.1051,-24.0001 1010.1052,-17.0001"/>
</g>
<!-- Node185&#45;&gt;Node183 -->
<g id="edge9" class="edge">
<title>Node185&#45;&gt;Node183</title>
<path fill="none" stroke="#191970" d="M1158.6046,-32.5261C1179.4811,-37.7453 1204.1576,-43.9144 1226.2385,-49.4346"/>
<polygon fill="#191970" stroke="#191970" points="1159.2397,-29.0773 1148.6894,-30.0473 1157.5419,-35.8683 1159.2397,-29.0773"/>
</g>
<!-- Node186 -->
<g id="node9" class="node">
<title>Node186</title>
<g id="a_node9"><a xlink:href="class_raven_application.html#a63a2032fef875fb81f26c212f69d000d" target="_top" xlink:title="Request core initialization. ">
<polygon fill="#ffffff" stroke="#000000" points="1221,-.5 1221,-30.5 1352,-30.5 1352,-.5 1221,-.5"/>
<text text-anchor="start" x="1229" y="-18.5" font-family="Helvetica,sans-Serif" font-size="10.00" fill="#000000">RavenApplication::request</text>
<text text-anchor="middle" x="1286.5" y="-7.5" font-family="Helvetica,sans-Serif" font-size="10.00" fill="#000000">Initialize</text>
</a>
</g>
</g>
<!-- Node185&#45;&gt;Node186 -->
<g id="edge8" class="edge">
<title>Node185&#45;&gt;Node186</title>
<path fill="none" stroke="#191970" d="M1195.2384,-18.0927C1203.8743,-17.8473 1212.5522,-17.6008 1220.9387,-17.3625"/>
<polygon fill="#191970" stroke="#191970" points="1195.0364,-14.5969 1185.1398,-18.3795 1195.2352,-21.5941 1195.0364,-14.5969"/>
</g>
</g>
</svg>
