<?xml version="1.0" encoding="UTF-8" standalone="no"?>
<!DOCTYPE svg PUBLIC "-//W3C//DTD SVG 1.1//EN"
 "http://www.w3.org/Graphics/SVG/1.1/DTD/svg11.dtd">
<!-- Generated by graphviz version 2.40.1 (20161225.0304)
 -->
<!-- Title: SendCoinsDialog::setupScrollView Pages: 1 -->
<svg width="348pt" height="78pt"
 viewBox="0.00 0.00 348.00 77.50" xmlns="http://www.w3.org/2000/svg" xmlns:xlink="http://www.w3.org/1999/xlink">
<g id="graph0" class="graph" transform="scale(1 1) rotate(0) translate(4 73.5)">
<title>SendCoinsDialog::setupScrollView</title>
<polygon fill="#ffffff" stroke="transparent" points="-4,4 -4,-73.5 344,-73.5 344,4 -4,4"/>
<!-- Node971 -->
<g id="node1" class="node">
<title>Node971</title>
<polygon fill="#bfbfbf" stroke="#000000" points="0,-22.5 0,-41.5 169,-41.5 169,-22.5 0,-22.5"/>
<text text-anchor="middle" x="84.5" y="-29.5" font-family="Helvetica,sans-Serif" font-size="10.00" fill="#000000">SendCoinsDialog::setupScrollView</text>
</g>
<!-- Node972 -->
<g id="node2" class="node">
<title>Node972</title>
<g id="a_node2"><a xlink:href="class_platform_style.html#a4e298def69a98d6a39236f24570878bb" target="_top" xlink:title="PlatformStyle::WidgetBack\lGroundColor">
<polygon fill="#ffffff" stroke="#000000" points="205,-39 205,-69 340,-69 340,-39 205,-39"/>
<text text-anchor="start" x="213" y="-57" font-family="Helvetica,sans-Serif" font-size="10.00" fill="#000000">PlatformStyle::WidgetBack</text>
<text text-anchor="middle" x="272.5" y="-46" font-family="Helvetica,sans-Serif" font-size="10.00" fill="#000000">GroundColor</text>
</a>
</g>
</g>
<!-- Node971&#45;&gt;Node972 -->
<g id="edge1" class="edge">
<title>Node971&#45;&gt;Node972</title>
<path fill="none" stroke="#191970" d="M165.8661,-41.5216C175.413,-42.6388 185.137,-43.7767 194.6344,-44.8881"/>
<polygon fill="#191970" stroke="#191970" points="194.493,-48.3953 204.8321,-46.0814 195.3067,-41.4428 194.493,-48.3953"/>
</g>
<!-- Node973 -->
<g id="node3" class="node">
<title>Node973</title>
<g id="a_node3"><a xlink:href="namespace_g_u_i_util.html#ae5e1dcf10da1e70457dbfd0634bad52a" target="_top" xlink:title="GUIUtil::getShadowEffect">
<polygon fill="#ffffff" stroke="#000000" points="207,-.5 207,-19.5 338,-19.5 338,-.5 207,-.5"/>
<text text-anchor="middle" x="272.5" y="-7.5" font-family="Helvetica,sans-Serif" font-size="10.00" fill="#000000">GUIUtil::getShadowEffect</text>
</a>
</g>
</g>
<!-- Node971&#45;&gt;Node973 -->
<g id="edge2" class="edge">
<title>Node971&#45;&gt;Node973</title>
<path fill="none" stroke="#191970" d="M165.8661,-22.4784C176.1371,-21.2765 186.6131,-20.0506 196.7914,-18.8595"/>
<polygon fill="#191970" stroke="#191970" points="197.3265,-22.3209 206.8519,-17.6822 196.5128,-15.3683 197.3265,-22.3209"/>
</g>
</g>
</svg>
