<?xml version="1.0" encoding="UTF-8" standalone="no"?>
<!DOCTYPE svg PUBLIC "-//W3C//DTD SVG 1.1//EN"
 "http://www.w3.org/Graphics/SVG/1.1/DTD/svg11.dtd">
<!-- Generated by graphviz version 2.40.1 (20161225.0304)
 -->
<!-- Title: SendAssetsEntry::refreshAssetList Pages: 1 -->
<svg width="1549pt" height="91pt"
 viewBox="0.00 0.00 1549.00 91.00" xmlns="http://www.w3.org/2000/svg" xmlns:xlink="http://www.w3.org/1999/xlink">
<g id="graph0" class="graph" transform="scale(1 1) rotate(0) translate(4 87)">
<title>SendAssetsEntry::refreshAssetList</title>
<polygon fill="#ffffff" stroke="transparent" points="-4,4 -4,-87 1545,-87 1545,4 -4,4"/>
<!-- Node448 -->
<g id="node1" class="node">
<title>Node448</title>
<polygon fill="#bfbfbf" stroke="#000000" points="0,-27.5 0,-57.5 129,-57.5 129,-27.5 0,-27.5"/>
<text text-anchor="start" x="8" y="-45.5" font-family="Helvetica,sans-Serif" font-size="10.00" fill="#000000">SendAssetsEntry::refresh</text>
<text text-anchor="middle" x="64.5" y="-34.5" font-family="Helvetica,sans-Serif" font-size="10.00" fill="#000000">AssetList</text>
</g>
<!-- Node449 -->
<g id="node2" class="node">
<title>Node449</title>
<g id="a_node2"><a xlink:href="class_assets_dialog.html#a25978706f64c01f605000eba95660dfd" target="_top" xlink:title="AssetsDialog::processNew\lTransaction">
<polygon fill="#ffffff" stroke="#000000" points="165,-52.5 165,-82.5 301,-82.5 301,-52.5 165,-52.5"/>
<text text-anchor="start" x="173" y="-70.5" font-family="Helvetica,sans-Serif" font-size="10.00" fill="#000000">AssetsDialog::processNew</text>
<text text-anchor="middle" x="233" y="-59.5" font-family="Helvetica,sans-Serif" font-size="10.00" fill="#000000">Transaction</text>
</a>
</g>
</g>
<!-- Node448&#45;&gt;Node449 -->
<g id="edge1" class="edge">
<title>Node448&#45;&gt;Node449</title>
<path fill="none" stroke="#191970" d="M139.1362,-53.5736C147.7014,-54.8444 156.4009,-56.1352 164.8744,-57.3923"/>
<polygon fill="#191970" stroke="#191970" points="139.57,-50.0998 129.1646,-52.0942 138.5426,-57.024 139.57,-50.0998"/>
</g>
<!-- Node458 -->
<g id="node11" class="node">
<title>Node458</title>
<g id="a_node11"><a xlink:href="class_assets_dialog.html#abc657d04389811576c3d3f418f664f21" target="_top" xlink:title="AssetsDialog::handleFirst\lSelection">
<polygon fill="#ffffff" stroke="#000000" points="168.5,-3.5 168.5,-33.5 297.5,-33.5 297.5,-3.5 168.5,-3.5"/>
<text text-anchor="start" x="176.5" y="-21.5" font-family="Helvetica,sans-Serif" font-size="10.00" fill="#000000">AssetsDialog::handleFirst</text>
<text text-anchor="middle" x="233" y="-10.5" font-family="Helvetica,sans-Serif" font-size="10.00" fill="#000000">Selection</text>
</a>
</g>
</g>
<!-- Node448&#45;&gt;Node458 -->
<g id="edge11" class="edge">
<title>Node448&#45;&gt;Node458</title>
<path fill="none" stroke="#191970" d="M139.1761,-31.8636C148.8634,-30.4838 158.7218,-29.0797 168.23,-27.7254"/>
<polygon fill="#191970" stroke="#191970" points="138.5711,-28.4144 129.1646,-33.2896 139.5582,-35.3445 138.5711,-28.4144"/>
</g>
<!-- Node450 -->
<g id="node3" class="node">
<title>Node450</title>
<g id="a_node3"><a xlink:href="class_wallet_view.html#aed3fc203d310243887be68bc58d741ec" target="_top" xlink:title="Show incoming transaction notification for new transactions. ">
<polygon fill="#ffffff" stroke="#000000" points="337,-55 337,-74 515,-74 515,-55 337,-55"/>
<text text-anchor="middle" x="426" y="-62" font-family="Helvetica,sans-Serif" font-size="10.00" fill="#000000">WalletView::processNewTransaction</text>
</a>
</g>
</g>
<!-- Node449&#45;&gt;Node450 -->
<g id="edge2" class="edge">
<title>Node449&#45;&gt;Node450</title>
<path fill="none" stroke="#191970" d="M311.2477,-66.2837C319.7064,-66.1522 328.3593,-66.0177 336.9335,-65.8845"/>
<polygon fill="#191970" stroke="#191970" points="310.9889,-62.7872 301.0446,-66.4423 311.0978,-69.7864 310.9889,-62.7872"/>
</g>
<!-- Node451 -->
<g id="node4" class="node">
<title>Node451</title>
<g id="a_node4"><a xlink:href="class_wallet_view.html#a0a37ff693a4f9c1e5ddc23f9cd3913be" target="_top" xlink:title="Set the wallet model. ">
<polygon fill="#ffffff" stroke="#000000" points="551,-52 551,-71 691,-71 691,-52 551,-52"/>
<text text-anchor="middle" x="621" y="-59" font-family="Helvetica,sans-Serif" font-size="10.00" fill="#000000">WalletView::setWalletModel</text>
</a>
</g>
</g>
<!-- Node450&#45;&gt;Node451 -->
<g id="edge3" class="edge">
<title>Node450&#45;&gt;Node451</title>
<path fill="none" stroke="#191970" d="M525.3179,-62.972C533.9217,-62.8397 542.5066,-62.7076 550.8045,-62.5799"/>
<polygon fill="#191970" stroke="#191970" points="525.1701,-59.4738 515.2252,-63.1273 525.2779,-66.473 525.1701,-59.4738"/>
</g>
<!-- Node452 -->
<g id="node5" class="node">
<title>Node452</title>
<g id="a_node5"><a xlink:href="class_wallet_frame.html#aa199c3f27654199d84c365cf86167d86" target="_top" xlink:title="WalletFrame::addWallet">
<polygon fill="#ffffff" stroke="#000000" points="727,-33 727,-52 849,-52 849,-33 727,-33"/>
<text text-anchor="middle" x="788" y="-40" font-family="Helvetica,sans-Serif" font-size="10.00" fill="#000000">WalletFrame::addWallet</text>
</a>
</g>
</g>
<!-- Node451&#45;&gt;Node452 -->
<g id="edge4" class="edge">
<title>Node451&#45;&gt;Node452</title>
<path fill="none" stroke="#191970" d="M701.3304,-52.3606C709.8773,-51.3882 718.4685,-50.4108 726.7451,-49.4691"/>
<polygon fill="#191970" stroke="#191970" points="700.8792,-48.8893 691.339,-53.4974 701.6706,-55.8444 700.8792,-48.8893"/>
</g>
<!-- Node453 -->
<g id="node6" class="node">
<title>Node453</title>
<g id="a_node6"><a xlink:href="class_raven_g_u_i.html#a174a3e75c334c5930d3261a2955c3725" target="_top" xlink:title="Set the client model. ">
<polygon fill="#ffffff" stroke="#000000" points="885,-33 885,-52 1019,-52 1019,-33 885,-33"/>
<text text-anchor="middle" x="952" y="-40" font-family="Helvetica,sans-Serif" font-size="10.00" fill="#000000">RavenGUI::setClientModel</text>
</a>
</g>
</g>
<!-- Node452&#45;&gt;Node453 -->
<g id="edge5" class="edge">
<title>Node452&#45;&gt;Node453</title>
<path fill="none" stroke="#191970" d="M859.303,-42.5C867.7776,-42.5 876.4074,-42.5 884.8217,-42.5"/>
<polygon fill="#191970" stroke="#191970" points="859.0676,-39.0001 849.0675,-42.5 859.0675,-46.0001 859.0676,-39.0001"/>
</g>
<!-- Node454 -->
<g id="node7" class="node">
<title>Node454</title>
<g id="a_node7"><a xlink:href="class_raven_application.html#a60123f611cc210870fa67974cb2c804c" target="_top" xlink:title="Request core shutdown. ">
<polygon fill="#ffffff" stroke="#000000" points="1410,-49.5 1410,-79.5 1541,-79.5 1541,-49.5 1410,-49.5"/>
<text text-anchor="start" x="1418" y="-67.5" font-family="Helvetica,sans-Serif" font-size="10.00" fill="#000000">RavenApplication::request</text>
<text text-anchor="middle" x="1475.5" y="-56.5" font-family="Helvetica,sans-Serif" font-size="10.00" fill="#000000">Shutdown</text>
</a>
</g>
</g>
<!-- Node453&#45;&gt;Node454 -->
<g id="edge6" class="edge">
<title>Node453&#45;&gt;Node454</title>
<path fill="none" stroke="#191970" d="M1029.1333,-45.7415C1132.2203,-50.0737 1313.1346,-57.6766 1409.9629,-61.7458"/>
<polygon fill="#191970" stroke="#191970" points="1029.238,-42.2429 1019.0999,-45.3199 1028.944,-49.2367 1029.238,-42.2429"/>
</g>
<!-- Node455 -->
<g id="node8" class="node">
<title>Node455</title>
<g id="a_node8"><a xlink:href="class_raven_application.html#a1a3dcf33ba44507984b2a04e7ebf1542" target="_top" xlink:title="RavenApplication::initialize\lResult">
<polygon fill="#ffffff" stroke="#000000" points="1055,-5.5 1055,-35.5 1189,-35.5 1189,-5.5 1055,-5.5"/>
<text text-anchor="start" x="1063" y="-23.5" font-family="Helvetica,sans-Serif" font-size="10.00" fill="#000000">RavenApplication::initialize</text>
<text text-anchor="middle" x="1122" y="-12.5" font-family="Helvetica,sans-Serif" font-size="10.00" fill="#000000">Result</text>
</a>
</g>
</g>
<!-- Node453&#45;&gt;Node455 -->
<g id="edge7" class="edge">
<title>Node453&#45;&gt;Node455</title>
<path fill="none" stroke="#191970" d="M1029.146,-32.5164C1037.6879,-31.411 1046.3366,-30.2917 1054.7428,-29.2039"/>
<polygon fill="#191970" stroke="#191970" points="1028.6566,-29.0505 1019.1885,-33.805 1029.555,-35.9926 1028.6566,-29.0505"/>
</g>
<!-- Node456 -->
<g id="node9" class="node">
<title>Node456</title>
<g id="a_node9"><a xlink:href="class_raven_application.html#aecfdce3a245b959def5dd35e5cfb192e" target="_top" xlink:title="RavenApplication::startThread">
<polygon fill="#ffffff" stroke="#000000" points="1225,-11 1225,-30 1374,-30 1374,-11 1225,-11"/>
<text text-anchor="middle" x="1299.5" y="-18" font-family="Helvetica,sans-Serif" font-size="10.00" fill="#000000">RavenApplication::startThread</text>
</a>
</g>
</g>
<!-- Node455&#45;&gt;Node456 -->
<g id="edge8" class="edge">
<title>Node455&#45;&gt;Node456</title>
<path fill="none" stroke="#191970" d="M1199.3486,-20.5C1207.821,-20.5 1216.4344,-20.5 1224.873,-20.5"/>
<polygon fill="#191970" stroke="#191970" points="1199.1052,-17.0001 1189.1051,-20.5 1199.1051,-24.0001 1199.1052,-17.0001"/>
</g>
<!-- Node456&#45;&gt;Node454 -->
<g id="edge10" class="edge">
<title>Node456&#45;&gt;Node454</title>
<path fill="none" stroke="#191970" d="M1347.6046,-32.5261C1368.4811,-37.7453 1393.1576,-43.9144 1415.2385,-49.4346"/>
<polygon fill="#191970" stroke="#191970" points="1348.2397,-29.0773 1337.6894,-30.0473 1346.5419,-35.8683 1348.2397,-29.0773"/>
</g>
<!-- Node457 -->
<g id="node10" class="node">
<title>Node457</title>
<g id="a_node10"><a xlink:href="class_raven_application.html#a63a2032fef875fb81f26c212f69d000d" target="_top" xlink:title="Request core initialization. ">
<polygon fill="#ffffff" stroke="#000000" points="1410,-.5 1410,-30.5 1541,-30.5 1541,-.5 1410,-.5"/>
<text text-anchor="start" x="1418" y="-18.5" font-family="Helvetica,sans-Serif" font-size="10.00" fill="#000000">RavenApplication::request</text>
<text text-anchor="middle" x="1475.5" y="-7.5" font-family="Helvetica,sans-Serif" font-size="10.00" fill="#000000">Initialize</text>
</a>
</g>
</g>
<!-- Node456&#45;&gt;Node457 -->
<g id="edge9" class="edge">
<title>Node456&#45;&gt;Node457</title>
<path fill="none" stroke="#191970" d="M1384.2384,-18.0927C1392.8743,-17.8473 1401.5522,-17.6008 1409.9387,-17.3625"/>
<polygon fill="#191970" stroke="#191970" points="1384.0364,-14.5969 1374.1398,-18.3795 1384.2352,-21.5941 1384.0364,-14.5969"/>
</g>
<!-- Node459 -->
<g id="node12" class="node">
<title>Node459</title>
<g id="a_node12"><a xlink:href="class_wallet_view.html#ac6e1002ebe7fa3501c6bf8660c7cd637" target="_top" xlink:title="RVN START. ">
<polygon fill="#ffffff" stroke="#000000" points="354,-14 354,-33 498,-33 498,-14 354,-14"/>
<text text-anchor="middle" x="426" y="-21" font-family="Helvetica,sans-Serif" font-size="10.00" fill="#000000">WalletView::gotoAssetsPage</text>
</a>
</g>
</g>
<!-- Node458&#45;&gt;Node459 -->
<g id="edge12" class="edge">
<title>Node458&#45;&gt;Node459</title>
<path fill="none" stroke="#191970" d="M307.8637,-20.4395C322.9842,-20.8312 338.8519,-21.2423 353.8761,-21.6315"/>
<polygon fill="#191970" stroke="#191970" points="307.6219,-16.9321 297.5345,-20.1719 307.4405,-23.9298 307.6219,-16.9321"/>
</g>
<!-- Node460 -->
<g id="node13" class="node">
<title>Node460</title>
<g id="a_node13"><a xlink:href="class_wallet_view.html#a830ad98895b8a6c4d7fbcc6a311d2adb" target="_top" xlink:title="WalletView::setRavenGUI">
<polygon fill="#ffffff" stroke="#000000" points="555,-14 555,-33 687,-33 687,-14 555,-14"/>
<text text-anchor="middle" x="621" y="-21" font-family="Helvetica,sans-Serif" font-size="10.00" fill="#000000">WalletView::setRavenGUI</text>
</a>
</g>
</g>
<!-- Node459&#45;&gt;Node460 -->
<g id="edge13" class="edge">
<title>Node459&#45;&gt;Node460</title>
<path fill="none" stroke="#191970" d="M508.1685,-23.5C523.6985,-23.5 539.7608,-23.5 554.7257,-23.5"/>
<polygon fill="#191970" stroke="#191970" points="508.0568,-20.0001 498.0568,-23.5 508.0567,-27.0001 508.0568,-20.0001"/>
</g>
<!-- Node460&#45;&gt;Node452 -->
<g id="edge14" class="edge">
<title>Node460&#45;&gt;Node452</title>
<path fill="none" stroke="#191970" d="M696.941,-32.14C706.9494,-33.2787 717.1038,-34.434 726.8228,-35.5397"/>
<polygon fill="#191970" stroke="#191970" points="697.3344,-28.6623 687.0028,-31.0093 696.543,-35.6174 697.3344,-28.6623"/>
</g>
</g>
</svg>
