<?xml version="1.0" encoding="UTF-8" standalone="no"?>
<!DOCTYPE svg PUBLIC "-//W3C//DTD SVG 1.1//EN"
 "http://www.w3.org/Graphics/SVG/1.1/DTD/svg11.dtd">
<!-- Generated by graphviz version 2.40.1 (20161225.0304)
 -->
<!-- Title: WalletView::gotoHistoryPage Pages: 1 -->
<svg width="1171pt" height="88pt"
 viewBox="0.00 0.00 1171.00 88.00" xmlns="http://www.w3.org/2000/svg" xmlns:xlink="http://www.w3.org/1999/xlink">
<g id="graph0" class="graph" transform="scale(1 1) rotate(0) translate(4 84)">
<title>WalletView::gotoHistoryPage</title>
<polygon fill="#ffffff" stroke="transparent" points="-4,4 -4,-84 1167,-84 1167,4 -4,4"/>
<!-- Node86 -->
<g id="node1" class="node">
<title>Node86</title>
<polygon fill="#bfbfbf" stroke="#000000" points="0,-33 0,-52 145,-52 145,-33 0,-33"/>
<text text-anchor="middle" x="72.5" y="-40" font-family="Helvetica,sans-Serif" font-size="10.00" fill="#000000">WalletView::gotoHistoryPage</text>
</g>
<!-- Node87 -->
<g id="node2" class="node">
<title>Node87</title>
<g id="a_node2"><a xlink:href="class_wallet_view.html#a830ad98895b8a6c4d7fbcc6a311d2adb" target="_top" xlink:title="WalletView::setRavenGUI">
<polygon fill="#ffffff" stroke="#000000" points="181,-33 181,-52 313,-52 313,-33 181,-33"/>
<text text-anchor="middle" x="247" y="-40" font-family="Helvetica,sans-Serif" font-size="10.00" fill="#000000">WalletView::setRavenGUI</text>
</a>
</g>
</g>
<!-- Node86&#45;&gt;Node87 -->
<g id="edge1" class="edge">
<title>Node86&#45;&gt;Node87</title>
<path fill="none" stroke="#191970" d="M155.2485,-42.5C163.8138,-42.5 172.4371,-42.5 180.787,-42.5"/>
<polygon fill="#191970" stroke="#191970" points="155.2402,-39.0001 145.2401,-42.5 155.2401,-46.0001 155.2402,-39.0001"/>
</g>
<!-- Node88 -->
<g id="node3" class="node">
<title>Node88</title>
<g id="a_node3"><a xlink:href="class_wallet_frame.html#aa199c3f27654199d84c365cf86167d86" target="_top" xlink:title="WalletFrame::addWallet">
<polygon fill="#ffffff" stroke="#000000" points="349,-33 349,-52 471,-52 471,-33 349,-33"/>
<text text-anchor="middle" x="410" y="-40" font-family="Helvetica,sans-Serif" font-size="10.00" fill="#000000">WalletFrame::addWallet</text>
</a>
</g>
</g>
<!-- Node87&#45;&gt;Node88 -->
<g id="edge2" class="edge">
<title>Node87&#45;&gt;Node88</title>
<path fill="none" stroke="#191970" d="M323.5485,-42.5C332.0009,-42.5 340.5245,-42.5 348.754,-42.5"/>
<polygon fill="#191970" stroke="#191970" points="323.2984,-39.0001 313.2983,-42.5 323.2983,-46.0001 323.2984,-39.0001"/>
</g>
<!-- Node89 -->
<g id="node4" class="node">
<title>Node89</title>
<g id="a_node4"><a xlink:href="class_raven_g_u_i.html#a174a3e75c334c5930d3261a2955c3725" target="_top" xlink:title="Set the client model. ">
<polygon fill="#ffffff" stroke="#000000" points="507,-33 507,-52 641,-52 641,-33 507,-33"/>
<text text-anchor="middle" x="574" y="-40" font-family="Helvetica,sans-Serif" font-size="10.00" fill="#000000">RavenGUI::setClientModel</text>
</a>
</g>
</g>
<!-- Node88&#45;&gt;Node89 -->
<g id="edge3" class="edge">
<title>Node88&#45;&gt;Node89</title>
<path fill="none" stroke="#191970" d="M481.303,-42.5C489.7776,-42.5 498.4074,-42.5 506.8217,-42.5"/>
<polygon fill="#191970" stroke="#191970" points="481.0676,-39.0001 471.0675,-42.5 481.0675,-46.0001 481.0676,-39.0001"/>
</g>
<!-- Node90 -->
<g id="node5" class="node">
<title>Node90</title>
<g id="a_node5"><a xlink:href="class_raven_application.html#a60123f611cc210870fa67974cb2c804c" target="_top" xlink:title="Request core shutdown. ">
<polygon fill="#ffffff" stroke="#000000" points="1032,-49.5 1032,-79.5 1163,-79.5 1163,-49.5 1032,-49.5"/>
<text text-anchor="start" x="1040" y="-67.5" font-family="Helvetica,sans-Serif" font-size="10.00" fill="#000000">RavenApplication::request</text>
<text text-anchor="middle" x="1097.5" y="-56.5" font-family="Helvetica,sans-Serif" font-size="10.00" fill="#000000">Shutdown</text>
</a>
</g>
</g>
<!-- Node89&#45;&gt;Node90 -->
<g id="edge4" class="edge">
<title>Node89&#45;&gt;Node90</title>
<path fill="none" stroke="#191970" d="M651.1333,-45.7415C754.2203,-50.0737 935.1346,-57.6766 1031.9629,-61.7458"/>
<polygon fill="#191970" stroke="#191970" points="651.238,-42.2429 641.0999,-45.3199 650.944,-49.2367 651.238,-42.2429"/>
</g>
<!-- Node91 -->
<g id="node6" class="node">
<title>Node91</title>
<g id="a_node6"><a xlink:href="class_raven_application.html#a1a3dcf33ba44507984b2a04e7ebf1542" target="_top" xlink:title="RavenApplication::initialize\lResult">
<polygon fill="#ffffff" stroke="#000000" points="677,-5.5 677,-35.5 811,-35.5 811,-5.5 677,-5.5"/>
<text text-anchor="start" x="685" y="-23.5" font-family="Helvetica,sans-Serif" font-size="10.00" fill="#000000">RavenApplication::initialize</text>
<text text-anchor="middle" x="744" y="-12.5" font-family="Helvetica,sans-Serif" font-size="10.00" fill="#000000">Result</text>
</a>
</g>
</g>
<!-- Node89&#45;&gt;Node91 -->
<g id="edge5" class="edge">
<title>Node89&#45;&gt;Node91</title>
<path fill="none" stroke="#191970" d="M651.146,-32.5164C659.6879,-31.411 668.3366,-30.2917 676.7428,-29.2039"/>
<polygon fill="#191970" stroke="#191970" points="650.6566,-29.0505 641.1885,-33.805 651.555,-35.9926 650.6566,-29.0505"/>
</g>
<!-- Node92 -->
<g id="node7" class="node">
<title>Node92</title>
<g id="a_node7"><a xlink:href="class_raven_application.html#aecfdce3a245b959def5dd35e5cfb192e" target="_top" xlink:title="RavenApplication::startThread">
<polygon fill="#ffffff" stroke="#000000" points="847,-11 847,-30 996,-30 996,-11 847,-11"/>
<text text-anchor="middle" x="921.5" y="-18" font-family="Helvetica,sans-Serif" font-size="10.00" fill="#000000">RavenApplication::startThread</text>
</a>
</g>
</g>
<!-- Node91&#45;&gt;Node92 -->
<g id="edge6" class="edge">
<title>Node91&#45;&gt;Node92</title>
<path fill="none" stroke="#191970" d="M821.3486,-20.5C829.821,-20.5 838.4344,-20.5 846.873,-20.5"/>
<polygon fill="#191970" stroke="#191970" points="821.1052,-17.0001 811.1051,-20.5 821.1051,-24.0001 821.1052,-17.0001"/>
</g>
<!-- Node92&#45;&gt;Node90 -->
<g id="edge8" class="edge">
<title>Node92&#45;&gt;Node90</title>
<path fill="none" stroke="#191970" d="M969.6046,-32.5261C990.4811,-37.7453 1015.1576,-43.9144 1037.2385,-49.4346"/>
<polygon fill="#191970" stroke="#191970" points="970.2397,-29.0773 959.6894,-30.0473 968.5419,-35.8683 970.2397,-29.0773"/>
</g>
<!-- Node93 -->
<g id="node8" class="node">
<title>Node93</title>
<g id="a_node8"><a xlink:href="class_raven_application.html#a63a2032fef875fb81f26c212f69d000d" target="_top" xlink:title="Request core initialization. ">
<polygon fill="#ffffff" stroke="#000000" points="1032,-.5 1032,-30.5 1163,-30.5 1163,-.5 1032,-.5"/>
<text text-anchor="start" x="1040" y="-18.5" font-family="Helvetica,sans-Serif" font-size="10.00" fill="#000000">RavenApplication::request</text>
<text text-anchor="middle" x="1097.5" y="-7.5" font-family="Helvetica,sans-Serif" font-size="10.00" fill="#000000">Initialize</text>
</a>
</g>
</g>
<!-- Node92&#45;&gt;Node93 -->
<g id="edge7" class="edge">
<title>Node92&#45;&gt;Node93</title>
<path fill="none" stroke="#191970" d="M1006.2384,-18.0927C1014.8743,-17.8473 1023.5522,-17.6008 1031.9387,-17.3625"/>
<polygon fill="#191970" stroke="#191970" points="1006.0364,-14.5969 996.1398,-18.3795 1006.2352,-21.5941 1006.0364,-14.5969"/>
</g>
</g>
</svg>
