<?xml version="1.0" encoding="UTF-8" standalone="no"?>
<!DOCTYPE svg PUBLIC "-//W3C//DTD SVG 1.1//EN"
 "http://www.w3.org/Graphics/SVG/1.1/DTD/svg11.dtd">
<!-- Generated by graphviz version 2.40.1 (20161225.0304)
 -->
<!-- Title: org.raven.NativeSecp256k1.verify Pages: 1 -->
<svg width="518pt" height="88pt"
 viewBox="0.00 0.00 518.00 88.00" xmlns="http://www.w3.org/2000/svg" xmlns:xlink="http://www.w3.org/1999/xlink">
<g id="graph0" class="graph" transform="scale(1 1) rotate(0) translate(4 84)">
<title>org.raven.NativeSecp256k1.verify</title>
<polygon fill="#ffffff" stroke="transparent" points="-4,4 -4,-84 514,-84 514,4 -4,4"/>
<!-- Node182 -->
<g id="node1" class="node">
<title>Node182</title>
<polygon fill="#bfbfbf" stroke="#000000" points="0,-30 0,-49 164,-49 164,-30 0,-30"/>
<text text-anchor="middle" x="82" y="-37" font-family="Helvetica,sans-Serif" font-size="10.00" fill="#000000">org.raven.NativeSecp256k1.verify</text>
</g>
<!-- Node183 -->
<g id="node2" class="node">
<title>Node183</title>
<g id="a_node2"><a xlink:href="classorg_1_1raven_1_1_native_secp256k1_test.html#abcd023d79317a4d0af1d346ab6264be3" target="_top" xlink:title="This tests verify() for a valid signature. ">
<polygon fill="#ffffff" stroke="#000000" points="200,-49.5 200,-79.5 337,-79.5 337,-49.5 200,-49.5"/>
<text text-anchor="start" x="208" y="-67.5" font-family="Helvetica,sans-Serif" font-size="10.00" fill="#000000">org.raven.NativeSecp256k1</text>
<text text-anchor="middle" x="268.5" y="-56.5" font-family="Helvetica,sans-Serif" font-size="10.00" fill="#000000">Test.testVerifyPos</text>
</a>
</g>
</g>
<!-- Node182&#45;&gt;Node183 -->
<g id="edge1" class="edge">
<title>Node182&#45;&gt;Node183</title>
<path fill="none" stroke="#191970" d="M163.2086,-50.3859C175.4152,-52.0221 187.9018,-53.6959 199.8126,-55.2926"/>
<polygon fill="#191970" stroke="#191970" points="163.4161,-46.8825 153.0397,-49.0227 162.486,-53.8204 163.4161,-46.8825"/>
</g>
<!-- Node185 -->
<g id="node4" class="node">
<title>Node185</title>
<g id="a_node4"><a xlink:href="classorg_1_1raven_1_1_native_secp256k1_test.html#a7d0c9449a1b5f6af1be061f8997869fc" target="_top" xlink:title="This tests verify() for a non&#45;valid signature. ">
<polygon fill="#ffffff" stroke="#000000" points="200,-.5 200,-30.5 337,-30.5 337,-.5 200,-.5"/>
<text text-anchor="start" x="208" y="-18.5" font-family="Helvetica,sans-Serif" font-size="10.00" fill="#000000">org.raven.NativeSecp256k1</text>
<text text-anchor="middle" x="268.5" y="-7.5" font-family="Helvetica,sans-Serif" font-size="10.00" fill="#000000">Test.testVerifyNeg</text>
</a>
</g>
</g>
<!-- Node182&#45;&gt;Node185 -->
<g id="edge3" class="edge">
<title>Node182&#45;&gt;Node185</title>
<path fill="none" stroke="#191970" d="M166.2189,-28.6622C177.4451,-27.2175 188.8476,-25.7502 199.7672,-24.345"/>
<polygon fill="#191970" stroke="#191970" points="165.4491,-25.2323 155.9776,-29.9801 166.3426,-32.175 165.4491,-25.2323"/>
</g>
<!-- Node184 -->
<g id="node3" class="node">
<title>Node184</title>
<g id="a_node3"><a xlink:href="classorg_1_1raven_1_1_native_secp256k1_test.html#afd1b0d2fe3413a8fcd28b3acb4b91b12" target="_top" xlink:title="org.raven.NativeSecp256k1\lTest.main">
<polygon fill="#ffffff" stroke="#000000" points="373,-24.5 373,-54.5 510,-54.5 510,-24.5 373,-24.5"/>
<text text-anchor="start" x="381" y="-42.5" font-family="Helvetica,sans-Serif" font-size="10.00" fill="#000000">org.raven.NativeSecp256k1</text>
<text text-anchor="middle" x="441.5" y="-31.5" font-family="Helvetica,sans-Serif" font-size="10.00" fill="#000000">Test.main</text>
</a>
</g>
</g>
<!-- Node183&#45;&gt;Node184 -->
<g id="edge2" class="edge">
<title>Node183&#45;&gt;Node184</title>
<path fill="none" stroke="#191970" d="M347.316,-53.1104C355.8439,-51.8781 364.4721,-50.6312 372.8657,-49.4183"/>
<polygon fill="#191970" stroke="#191970" points="346.7679,-49.6532 337.3713,-54.5475 347.7691,-56.5812 346.7679,-49.6532"/>
</g>
<!-- Node185&#45;&gt;Node184 -->
<g id="edge4" class="edge">
<title>Node185&#45;&gt;Node184</title>
<path fill="none" stroke="#191970" d="M347.316,-26.434C355.8439,-27.6171 364.4721,-28.8141 372.8657,-29.9785"/>
<polygon fill="#191970" stroke="#191970" points="347.7574,-22.9618 337.3713,-25.0544 346.7954,-29.8954 347.7574,-22.9618"/>
</g>
</g>
</svg>
