<?xml version="1.0" encoding="UTF-8" standalone="no"?>
<!DOCTYPE svg PUBLIC "-//W3C//DTD SVG 1.1//EN"
 "http://www.w3.org/Graphics/SVG/1.1/DTD/svg11.dtd">
<!-- Generated by graphviz version 2.40.1 (20161225.0304)
 -->
<!-- Title: WalletView::gotoCreateAssetsPage Pages: 1 -->
<svg width="1199pt" height="88pt"
 viewBox="0.00 0.00 1199.00 88.00" xmlns="http://www.w3.org/2000/svg" xmlns:xlink="http://www.w3.org/1999/xlink">
<g id="graph0" class="graph" transform="scale(1 1) rotate(0) translate(4 84)">
<title>WalletView::gotoCreateAssetsPage</title>
<polygon fill="#ffffff" stroke="transparent" points="-4,4 -4,-84 1195,-84 1195,4 -4,4"/>
<!-- Node77 -->
<g id="node1" class="node">
<title>Node77</title>
<polygon fill="#bfbfbf" stroke="#000000" points="0,-33 0,-52 173,-52 173,-33 0,-33"/>
<text text-anchor="middle" x="86.5" y="-40" font-family="Helvetica,sans-Serif" font-size="10.00" fill="#000000">WalletView::gotoCreateAssetsPage</text>
</g>
<!-- Node78 -->
<g id="node2" class="node">
<title>Node78</title>
<g id="a_node2"><a xlink:href="class_wallet_view.html#a830ad98895b8a6c4d7fbcc6a311d2adb" target="_top" xlink:title="WalletView::setRavenGUI">
<polygon fill="#ffffff" stroke="#000000" points="209,-33 209,-52 341,-52 341,-33 209,-33"/>
<text text-anchor="middle" x="275" y="-40" font-family="Helvetica,sans-Serif" font-size="10.00" fill="#000000">WalletView::setRavenGUI</text>
</a>
</g>
</g>
<!-- Node77&#45;&gt;Node78 -->
<g id="edge1" class="edge">
<title>Node77&#45;&gt;Node78</title>
<path fill="none" stroke="#191970" d="M183.1747,-42.5C191.824,-42.5 200.4459,-42.5 208.749,-42.5"/>
<polygon fill="#191970" stroke="#191970" points="183.0263,-39.0001 173.0263,-42.5 183.0262,-46.0001 183.0263,-39.0001"/>
</g>
<!-- Node79 -->
<g id="node3" class="node">
<title>Node79</title>
<g id="a_node3"><a xlink:href="class_wallet_frame.html#aa199c3f27654199d84c365cf86167d86" target="_top" xlink:title="WalletFrame::addWallet">
<polygon fill="#ffffff" stroke="#000000" points="377,-33 377,-52 499,-52 499,-33 377,-33"/>
<text text-anchor="middle" x="438" y="-40" font-family="Helvetica,sans-Serif" font-size="10.00" fill="#000000">WalletFrame::addWallet</text>
</a>
</g>
</g>
<!-- Node78&#45;&gt;Node79 -->
<g id="edge2" class="edge">
<title>Node78&#45;&gt;Node79</title>
<path fill="none" stroke="#191970" d="M351.5485,-42.5C360.0009,-42.5 368.5245,-42.5 376.754,-42.5"/>
<polygon fill="#191970" stroke="#191970" points="351.2984,-39.0001 341.2983,-42.5 351.2983,-46.0001 351.2984,-39.0001"/>
</g>
<!-- Node80 -->
<g id="node4" class="node">
<title>Node80</title>
<g id="a_node4"><a xlink:href="class_raven_g_u_i.html#a174a3e75c334c5930d3261a2955c3725" target="_top" xlink:title="Set the client model. ">
<polygon fill="#ffffff" stroke="#000000" points="535,-33 535,-52 669,-52 669,-33 535,-33"/>
<text text-anchor="middle" x="602" y="-40" font-family="Helvetica,sans-Serif" font-size="10.00" fill="#000000">RavenGUI::setClientModel</text>
</a>
</g>
</g>
<!-- Node79&#45;&gt;Node80 -->
<g id="edge3" class="edge">
<title>Node79&#45;&gt;Node80</title>
<path fill="none" stroke="#191970" d="M509.303,-42.5C517.7776,-42.5 526.4074,-42.5 534.8217,-42.5"/>
<polygon fill="#191970" stroke="#191970" points="509.0676,-39.0001 499.0675,-42.5 509.0675,-46.0001 509.0676,-39.0001"/>
</g>
<!-- Node81 -->
<g id="node5" class="node">
<title>Node81</title>
<g id="a_node5"><a xlink:href="class_raven_application.html#a60123f611cc210870fa67974cb2c804c" target="_top" xlink:title="Request core shutdown. ">
<polygon fill="#ffffff" stroke="#000000" points="1060,-49.5 1060,-79.5 1191,-79.5 1191,-49.5 1060,-49.5"/>
<text text-anchor="start" x="1068" y="-67.5" font-family="Helvetica,sans-Serif" font-size="10.00" fill="#000000">RavenApplication::request</text>
<text text-anchor="middle" x="1125.5" y="-56.5" font-family="Helvetica,sans-Serif" font-size="10.00" fill="#000000">Shutdown</text>
</a>
</g>
</g>
<!-- Node80&#45;&gt;Node81 -->
<g id="edge4" class="edge">
<title>Node80&#45;&gt;Node81</title>
<path fill="none" stroke="#191970" d="M679.1333,-45.7415C782.2203,-50.0737 963.1346,-57.6766 1059.9629,-61.7458"/>
<polygon fill="#191970" stroke="#191970" points="679.238,-42.2429 669.0999,-45.3199 678.944,-49.2367 679.238,-42.2429"/>
</g>
<!-- Node82 -->
<g id="node6" class="node">
<title>Node82</title>
<g id="a_node6"><a xlink:href="class_raven_application.html#a1a3dcf33ba44507984b2a04e7ebf1542" target="_top" xlink:title="RavenApplication::initialize\lResult">
<polygon fill="#ffffff" stroke="#000000" points="705,-5.5 705,-35.5 839,-35.5 839,-5.5 705,-5.5"/>
<text text-anchor="start" x="713" y="-23.5" font-family="Helvetica,sans-Serif" font-size="10.00" fill="#000000">RavenApplication::initialize</text>
<text text-anchor="middle" x="772" y="-12.5" font-family="Helvetica,sans-Serif" font-size="10.00" fill="#000000">Result</text>
</a>
</g>
</g>
<!-- Node80&#45;&gt;Node82 -->
<g id="edge5" class="edge">
<title>Node80&#45;&gt;Node82</title>
<path fill="none" stroke="#191970" d="M679.146,-32.5164C687.6879,-31.411 696.3366,-30.2917 704.7428,-29.2039"/>
<polygon fill="#191970" stroke="#191970" points="678.6566,-29.0505 669.1885,-33.805 679.555,-35.9926 678.6566,-29.0505"/>
</g>
<!-- Node83 -->
<g id="node7" class="node">
<title>Node83</title>
<g id="a_node7"><a xlink:href="class_raven_application.html#aecfdce3a245b959def5dd35e5cfb192e" target="_top" xlink:title="RavenApplication::startThread">
<polygon fill="#ffffff" stroke="#000000" points="875,-11 875,-30 1024,-30 1024,-11 875,-11"/>
<text text-anchor="middle" x="949.5" y="-18" font-family="Helvetica,sans-Serif" font-size="10.00" fill="#000000">RavenApplication::startThread</text>
</a>
</g>
</g>
<!-- Node82&#45;&gt;Node83 -->
<g id="edge6" class="edge">
<title>Node82&#45;&gt;Node83</title>
<path fill="none" stroke="#191970" d="M849.3486,-20.5C857.821,-20.5 866.4344,-20.5 874.873,-20.5"/>
<polygon fill="#191970" stroke="#191970" points="849.1052,-17.0001 839.1051,-20.5 849.1051,-24.0001 849.1052,-17.0001"/>
</g>
<!-- Node83&#45;&gt;Node81 -->
<g id="edge8" class="edge">
<title>Node83&#45;&gt;Node81</title>
<path fill="none" stroke="#191970" d="M997.6046,-32.5261C1018.4811,-37.7453 1043.1576,-43.9144 1065.2385,-49.4346"/>
<polygon fill="#191970" stroke="#191970" points="998.2397,-29.0773 987.6894,-30.0473 996.5419,-35.8683 998.2397,-29.0773"/>
</g>
<!-- Node84 -->
<g id="node8" class="node">
<title>Node84</title>
<g id="a_node8"><a xlink:href="class_raven_application.html#a63a2032fef875fb81f26c212f69d000d" target="_top" xlink:title="Request core initialization. ">
<polygon fill="#ffffff" stroke="#000000" points="1060,-.5 1060,-30.5 1191,-30.5 1191,-.5 1060,-.5"/>
<text text-anchor="start" x="1068" y="-18.5" font-family="Helvetica,sans-Serif" font-size="10.00" fill="#000000">RavenApplication::request</text>
<text text-anchor="middle" x="1125.5" y="-7.5" font-family="Helvetica,sans-Serif" font-size="10.00" fill="#000000">Initialize</text>
</a>
</g>
</g>
<!-- Node83&#45;&gt;Node84 -->
<g id="edge7" class="edge">
<title>Node83&#45;&gt;Node84</title>
<path fill="none" stroke="#191970" d="M1034.2384,-18.0927C1042.8743,-17.8473 1051.5522,-17.6008 1059.9387,-17.3625"/>
<polygon fill="#191970" stroke="#191970" points="1034.0364,-14.5969 1024.1398,-18.3795 1034.2352,-21.5941 1034.0364,-14.5969"/>
</g>
</g>
</svg>
