<?xml version="1.0" encoding="UTF-8" standalone="no"?>
<!DOCTYPE svg PUBLIC "-//W3C//DTD SVG 1.1//EN"
 "http://www.w3.org/Graphics/SVG/1.1/DTD/svg11.dtd">
<!-- Generated by graphviz version 2.40.1 (20161225.0304)
 -->
<!-- Title: CBase58Data::ToString Pages: 1 -->
<svg width="859pt" height="123pt"
 viewBox="0.00 0.00 859.00 123.00" xmlns="http://www.w3.org/2000/svg" xmlns:xlink="http://www.w3.org/1999/xlink">
<g id="graph0" class="graph" transform="scale(1 1) rotate(0) translate(4 119)">
<title>CBase58Data::ToString</title>
<polygon fill="#ffffff" stroke="transparent" points="-4,4 -4,-119 855,-119 855,4 -4,4"/>
<!-- Node121 -->
<g id="node1" class="node">
<title>Node121</title>
<polygon fill="#bfbfbf" stroke="#000000" points="0,-38.5 0,-57.5 121,-57.5 121,-38.5 0,-38.5"/>
<text text-anchor="middle" x="60.5" y="-45.5" font-family="Helvetica,sans-Serif" font-size="10.00" fill="#000000">CBase58Data::ToString</text>
</g>
<!-- Node122 -->
<g id="node2" class="node">
<title>Node122</title>
<g id="a_node2"><a xlink:href="base58_8cpp.html#ace9a5807ee51604f33044339f073ec76" target="_top" xlink:title="Encode a byte vector into a base58&#45;encoded string, including checksum. ">
<polygon fill="#ffffff" stroke="#000000" points="157,-38.5 157,-57.5 268,-57.5 268,-38.5 157,-38.5"/>
<text text-anchor="middle" x="212.5" y="-45.5" font-family="Helvetica,sans-Serif" font-size="10.00" fill="#000000">EncodeBase58Check</text>
</a>
</g>
</g>
<!-- Node121&#45;&gt;Node122 -->
<g id="edge1" class="edge">
<title>Node121&#45;&gt;Node122</title>
<path fill="none" stroke="#191970" d="M121.0112,-48C129.369,-48 137.9878,-48 146.4397,-48"/>
<polygon fill="#191970" stroke="#191970" points="146.6377,-51.5001 156.6376,-48 146.6376,-44.5001 146.6377,-51.5001"/>
</g>
<!-- Node123 -->
<g id="node3" class="node">
<title>Node123</title>
<g id="a_node3"><a xlink:href="hash_8h.html#ab3f6c437460137530d86e09c2c102e99" target="_top" xlink:title="Compute the 256&#45;bit hash of an object. ">
<polygon fill="#ffffff" stroke="#000000" points="325.5,-57.5 325.5,-76.5 365.5,-76.5 365.5,-57.5 325.5,-57.5"/>
<text text-anchor="middle" x="345.5" y="-64.5" font-family="Helvetica,sans-Serif" font-size="10.00" fill="#000000">Hash</text>
</a>
</g>
</g>
<!-- Node122&#45;&gt;Node123 -->
<g id="edge2" class="edge">
<title>Node122&#45;&gt;Node123</title>
<path fill="none" stroke="#191970" d="M268.1333,-55.9476C284.3563,-58.2652 301.4661,-60.7094 315.4587,-62.7084"/>
<polygon fill="#191970" stroke="#191970" points="315.0906,-66.1913 325.4851,-64.1407 316.0806,-59.2616 315.0906,-66.1913"/>
</g>
<!-- Node132 -->
<g id="node12" class="node">
<title>Node132</title>
<g id="a_node12"><a xlink:href="base58_8cpp.html#a8d6f0e9d5df175b4966dcede31dc90ad" target="_top" xlink:title="Why base&#45;58 instead of standard base&#45;64 encoding? ">
<polygon fill="#ffffff" stroke="#000000" points="304,-19.5 304,-38.5 387,-38.5 387,-19.5 304,-19.5"/>
<text text-anchor="middle" x="345.5" y="-26.5" font-family="Helvetica,sans-Serif" font-size="10.00" fill="#000000">EncodeBase58</text>
</a>
</g>
</g>
<!-- Node122&#45;&gt;Node132 -->
<g id="edge12" class="edge">
<title>Node122&#45;&gt;Node132</title>
<path fill="none" stroke="#191970" d="M268.1333,-40.0524C276.6352,-38.8378 285.3806,-37.5885 293.7933,-36.3867"/>
<polygon fill="#191970" stroke="#191970" points="294.4467,-39.8289 303.8512,-34.9498 293.4567,-32.8993 294.4467,-39.8289"/>
</g>
<!-- Node124 -->
<g id="node4" class="node">
<title>Node124</title>
<g id="a_node4"><a xlink:href="class_c_hash256.html#a9cc25033c6435cb28e2e8e377c949a7a" target="_top" xlink:title="CHash256::Write">
<polygon fill="#ffffff" stroke="#000000" points="428.5,-76.5 428.5,-95.5 520.5,-95.5 520.5,-76.5 428.5,-76.5"/>
<text text-anchor="middle" x="474.5" y="-83.5" font-family="Helvetica,sans-Serif" font-size="10.00" fill="#000000">CHash256::Write</text>
</a>
</g>
</g>
<!-- Node123&#45;&gt;Node124 -->
<g id="edge3" class="edge">
<title>Node123&#45;&gt;Node124</title>
<path fill="none" stroke="#191970" d="M365.6563,-69.9688C379.8319,-72.0566 399.5463,-74.9603 418.3072,-77.7235"/>
<polygon fill="#191970" stroke="#191970" points="417.8891,-81.1996 428.2924,-79.1942 418.9092,-74.2744 417.8891,-81.1996"/>
</g>
<!-- Node129 -->
<g id="node9" class="node">
<title>Node129</title>
<g id="a_node9"><a xlink:href="class_c_hash256.html#aa8a70c1b7cf24ce7d00240a1131cf4e7" target="_top" xlink:title="CHash256::Finalize">
<polygon fill="#ffffff" stroke="#000000" points="423,-38.5 423,-57.5 526,-57.5 526,-38.5 423,-38.5"/>
<text text-anchor="middle" x="474.5" y="-45.5" font-family="Helvetica,sans-Serif" font-size="10.00" fill="#000000">CHash256::Finalize</text>
</a>
</g>
</g>
<!-- Node123&#45;&gt;Node129 -->
<g id="edge8" class="edge">
<title>Node123&#45;&gt;Node129</title>
<path fill="none" stroke="#191970" d="M365.6563,-64.0313C378.4512,-62.1467 395.7585,-59.5976 412.8042,-57.087"/>
<polygon fill="#191970" stroke="#191970" points="413.3908,-60.5384 422.7741,-55.6185 412.3708,-53.6131 413.3908,-60.5384"/>
</g>
<!-- Node125 -->
<g id="node5" class="node">
<title>Node125</title>
<g id="a_node5"><a xlink:href="class_c_s_h_a256.html#a9d7de520a562655da85349372820c883" target="_top" xlink:title="CSHA256::Write">
<polygon fill="#ffffff" stroke="#000000" points="567.5,-76.5 567.5,-95.5 657.5,-95.5 657.5,-76.5 567.5,-76.5"/>
<text text-anchor="middle" x="612.5" y="-83.5" font-family="Helvetica,sans-Serif" font-size="10.00" fill="#000000">CSHA256::Write</text>
</a>
</g>
</g>
<!-- Node124&#45;&gt;Node125 -->
<g id="edge4" class="edge">
<title>Node124&#45;&gt;Node125</title>
<path fill="none" stroke="#191970" d="M520.8359,-86C532.5812,-86 545.312,-86 557.4429,-86"/>
<polygon fill="#191970" stroke="#191970" points="557.4569,-89.5001 567.4569,-86 557.4568,-82.5001 557.4569,-89.5001"/>
</g>
<!-- Node126 -->
<g id="node6" class="node">
<title>Node126</title>
<g id="a_node6"><a xlink:href="glibc__compat_8cpp.html#a0f46826ab0466591e136db24394923cf" target="_top" xlink:title="memcpy">
<polygon fill="#ffffff" stroke="#000000" points="699,-76.5 699,-95.5 753,-95.5 753,-76.5 699,-76.5"/>
<text text-anchor="middle" x="726" y="-83.5" font-family="Helvetica,sans-Serif" font-size="10.00" fill="#000000">memcpy</text>
</a>
</g>
</g>
<!-- Node125&#45;&gt;Node126 -->
<g id="edge5" class="edge">
<title>Node125&#45;&gt;Node126</title>
<path fill="none" stroke="#191970" d="M657.6843,-86C668.0536,-86 678.9608,-86 688.9406,-86"/>
<polygon fill="#191970" stroke="#191970" points="688.9435,-89.5001 698.9435,-86 688.9435,-82.5001 688.9435,-89.5001"/>
</g>
<!-- Node127 -->
<g id="node7" class="node">
<title>Node127</title>
<g id="a_node7"><a xlink:href="glibc__compat_8cpp.html#a9778d49e9029dd75bc53ecbbf9f5e9a1" target="_top" xlink:title="memmove">
<polygon fill="#ffffff" stroke="#000000" points="789,-95.5 789,-114.5 851,-114.5 851,-95.5 789,-95.5"/>
<text text-anchor="middle" x="820" y="-102.5" font-family="Helvetica,sans-Serif" font-size="10.00" fill="#000000">memmove</text>
</a>
</g>
</g>
<!-- Node126&#45;&gt;Node127 -->
<g id="edge6" class="edge">
<title>Node126&#45;&gt;Node127</title>
<path fill="none" stroke="#191970" d="M753.1887,-91.4956C761.217,-93.1183 770.1892,-94.9319 778.8881,-96.6901"/>
<polygon fill="#191970" stroke="#191970" points="778.4061,-100.1634 788.9013,-98.7141 779.793,-93.3022 778.4061,-100.1634"/>
</g>
<!-- Node128 -->
<g id="node8" class="node">
<title>Node128</title>
<g id="a_node8"><a xlink:href="glibc__compat_8cpp.html#a424ac71631da5ada2976630ff67051d1" target="_top" xlink:title="__chk_fail">
<polygon fill="#ffffff" stroke="#000000" points="789.5,-57.5 789.5,-76.5 850.5,-76.5 850.5,-57.5 789.5,-57.5"/>
<text text-anchor="middle" x="820" y="-64.5" font-family="Helvetica,sans-Serif" font-size="10.00" fill="#000000">__chk_fail</text>
</a>
</g>
</g>
<!-- Node126&#45;&gt;Node128 -->
<g id="edge7" class="edge">
<title>Node126&#45;&gt;Node128</title>
<path fill="none" stroke="#191970" d="M753.1887,-80.5044C761.383,-78.8481 770.5608,-76.993 779.4275,-75.2008"/>
<polygon fill="#191970" stroke="#191970" points="780.1288,-78.6299 789.2371,-73.218 778.7419,-71.7687 780.1288,-78.6299"/>
</g>
<!-- Node129&#45;&gt;Node125 -->
<g id="edge11" class="edge">
<title>Node129&#45;&gt;Node125</title>
<path fill="none" stroke="#191970" d="M509.3232,-57.589C527.1377,-62.4944 549.0184,-68.5196 568.0389,-73.7571"/>
<polygon fill="#191970" stroke="#191970" points="567.1175,-77.1336 577.6879,-76.4141 568.976,-70.3848 567.1175,-77.1336"/>
</g>
<!-- Node130 -->
<g id="node10" class="node">
<title>Node130</title>
<g id="a_node10"><a xlink:href="class_c_s_h_a256.html#a4259230be0caefa590bc324fc12b9b90" target="_top" xlink:title="CSHA256::Finalize">
<polygon fill="#ffffff" stroke="#000000" points="562,-38.5 562,-57.5 663,-57.5 663,-38.5 562,-38.5"/>
<text text-anchor="middle" x="612.5" y="-45.5" font-family="Helvetica,sans-Serif" font-size="10.00" fill="#000000">CSHA256::Finalize</text>
</a>
</g>
</g>
<!-- Node129&#45;&gt;Node130 -->
<g id="edge9" class="edge">
<title>Node129&#45;&gt;Node130</title>
<path fill="none" stroke="#191970" d="M526.2787,-48C534.5434,-48 543.1602,-48 551.6124,-48"/>
<polygon fill="#191970" stroke="#191970" points="551.8058,-51.5001 561.8058,-48 551.8058,-44.5001 551.8058,-51.5001"/>
</g>
<!-- Node131 -->
<g id="node11" class="node">
<title>Node131</title>
<g id="a_node11"><a xlink:href="class_c_s_h_a256.html#a2122395dd5604990eaa0077b43a0e8d4" target="_top" xlink:title="CSHA256::Reset">
<polygon fill="#ffffff" stroke="#000000" points="566,-.5 566,-19.5 659,-19.5 659,-.5 566,-.5"/>
<text text-anchor="middle" x="612.5" y="-7.5" font-family="Helvetica,sans-Serif" font-size="10.00" fill="#000000">CSHA256::Reset</text>
</a>
</g>
</g>
<!-- Node129&#45;&gt;Node131 -->
<g id="edge10" class="edge">
<title>Node129&#45;&gt;Node131</title>
<path fill="none" stroke="#191970" d="M509.3232,-38.411C527.1377,-33.5056 549.0184,-27.4804 568.0389,-22.2429"/>
<polygon fill="#191970" stroke="#191970" points="568.976,-25.6152 577.6879,-19.5859 567.1175,-18.8664 568.976,-25.6152"/>
</g>
</g>
</svg>
