<?xml version="1.0" encoding="UTF-8" standalone="no"?>
<!DOCTYPE svg PUBLIC "-//W3C//DTD SVG 1.1//EN"
 "http://www.w3.org/Graphics/SVG/1.1/DTD/svg11.dtd">
<!-- Generated by graphviz version 2.40.1 (20161225.0304)
 -->
<!-- Title: ChaCha20::SetKey Pages: 1 -->
<svg width="1006pt" height="127pt"
 viewBox="0.00 0.00 1006.00 126.50" xmlns="http://www.w3.org/2000/svg" xmlns:xlink="http://www.w3.org/1999/xlink">
<g id="graph0" class="graph" transform="scale(1 1) rotate(0) translate(4 122.5)">
<title>ChaCha20::SetKey</title>
<polygon fill="#ffffff" stroke="transparent" points="-4,4 -4,-122.5 1002,-122.5 1002,4 -4,4"/>
<!-- Node20 -->
<g id="node1" class="node">
<title>Node20</title>
<polygon fill="#bfbfbf" stroke="#000000" points="0,-55 0,-74 101,-74 101,-55 0,-55"/>
<text text-anchor="middle" x="50.5" y="-62" font-family="Helvetica,sans-Serif" font-size="10.00" fill="#000000">ChaCha20::SetKey</text>
</g>
<!-- Node21 -->
<g id="node2" class="node">
<title>Node21</title>
<g id="a_node2"><a xlink:href="class_cha_cha20.html#a9c2237a8696089b4f203ef2007309484" target="_top" xlink:title="ChaCha20::ChaCha20">
<polygon fill="#ffffff" stroke="#000000" points="137,-99 137,-118 253,-118 253,-99 137,-99"/>
<text text-anchor="middle" x="195" y="-106" font-family="Helvetica,sans-Serif" font-size="10.00" fill="#000000">ChaCha20::ChaCha20</text>
</a>
</g>
</g>
<!-- Node20&#45;&gt;Node21 -->
<g id="edge1" class="edge">
<title>Node20&#45;&gt;Node21</title>
<path fill="none" stroke="#191970" d="M91.6446,-77.0285C114.5486,-84.0027 142.6072,-92.5465 163.7068,-98.9713"/>
<polygon fill="#191970" stroke="#191970" points="92.4402,-73.6121 81.8543,-74.0473 90.4011,-80.3086 92.4402,-73.6121"/>
</g>
<!-- Node22 -->
<g id="node3" class="node">
<title>Node22</title>
<g id="a_node3"><a xlink:href="class_fast_random_context.html#a7fa6ad2737010ee65ee38c9a0fdcf727" target="_top" xlink:title="FastRandomContext::\lRandomSeed">
<polygon fill="#ffffff" stroke="#000000" points="138.5,-49.5 138.5,-79.5 251.5,-79.5 251.5,-49.5 138.5,-49.5"/>
<text text-anchor="start" x="146.5" y="-67.5" font-family="Helvetica,sans-Serif" font-size="10.00" fill="#000000">FastRandomContext::</text>
<text text-anchor="middle" x="195" y="-56.5" font-family="Helvetica,sans-Serif" font-size="10.00" fill="#000000">RandomSeed</text>
</a>
</g>
</g>
<!-- Node20&#45;&gt;Node22 -->
<g id="edge2" class="edge">
<title>Node20&#45;&gt;Node22</title>
<path fill="none" stroke="#191970" d="M111.0879,-64.5C120.1095,-64.5 129.3803,-64.5 138.3175,-64.5"/>
<polygon fill="#191970" stroke="#191970" points="111.0391,-61.0001 101.0391,-64.5 111.0391,-68.0001 111.0391,-61.0001"/>
</g>
<!-- Node30 -->
<g id="node11" class="node">
<title>Node30</title>
<g id="a_node11"><a xlink:href="class_fast_random_context.html#a3e62f86fd62a8527e171dc27580cb7b2" target="_top" xlink:title="Initialize with explicit seed (only for testing) ">
<polygon fill="#ffffff" stroke="#000000" points="138.5,-.5 138.5,-30.5 251.5,-30.5 251.5,-.5 138.5,-.5"/>
<text text-anchor="start" x="146.5" y="-18.5" font-family="Helvetica,sans-Serif" font-size="10.00" fill="#000000">FastRandomContext::</text>
<text text-anchor="middle" x="195" y="-7.5" font-family="Helvetica,sans-Serif" font-size="10.00" fill="#000000">FastRandomContext</text>
</a>
</g>
</g>
<!-- Node20&#45;&gt;Node30 -->
<g id="edge12" class="edge">
<title>Node20&#45;&gt;Node30</title>
<path fill="none" stroke="#191970" d="M88.2745,-51.6907C107.385,-45.2103 130.699,-37.3045 150.6563,-30.537"/>
<polygon fill="#191970" stroke="#191970" points="87.0504,-48.4099 78.7041,-54.936 89.2984,-55.0391 87.0504,-48.4099"/>
</g>
<!-- Node23 -->
<g id="node4" class="node">
<title>Node23</title>
<g id="a_node4"><a xlink:href="class_fast_random_context.html#afe719582d74b5ce1dd61042ee27fc2c5" target="_top" xlink:title="FastRandomContext::\lFillByteBuffer">
<polygon fill="#ffffff" stroke="#000000" points="289,-49.5 289,-79.5 402,-79.5 402,-49.5 289,-49.5"/>
<text text-anchor="start" x="297" y="-67.5" font-family="Helvetica,sans-Serif" font-size="10.00" fill="#000000">FastRandomContext::</text>
<text text-anchor="middle" x="345.5" y="-56.5" font-family="Helvetica,sans-Serif" font-size="10.00" fill="#000000">FillByteBuffer</text>
</a>
</g>
</g>
<!-- Node22&#45;&gt;Node23 -->
<g id="edge3" class="edge">
<title>Node22&#45;&gt;Node23</title>
<path fill="none" stroke="#191970" d="M262.1389,-64.5C270.9467,-64.5 279.9045,-64.5 288.5219,-64.5"/>
<polygon fill="#191970" stroke="#191970" points="261.8976,-61.0001 251.8976,-64.5 261.8976,-68.0001 261.8976,-61.0001"/>
</g>
<!-- Node24 -->
<g id="node5" class="node">
<title>Node24</title>
<g id="a_node5"><a xlink:href="class_fast_random_context.html#aaa7592f37a6e2b0ea2ce38f0b0ef0474" target="_top" xlink:title="generate a random uint256. ">
<polygon fill="#ffffff" stroke="#000000" points="587,-76.5 587,-106.5 700,-106.5 700,-76.5 587,-76.5"/>
<text text-anchor="start" x="595" y="-94.5" font-family="Helvetica,sans-Serif" font-size="10.00" fill="#000000">FastRandomContext::</text>
<text text-anchor="middle" x="643.5" y="-83.5" font-family="Helvetica,sans-Serif" font-size="10.00" fill="#000000">rand256</text>
</a>
</g>
</g>
<!-- Node23&#45;&gt;Node24 -->
<g id="edge4" class="edge">
<title>Node23&#45;&gt;Node24</title>
<path fill="none" stroke="#191970" d="M412.4838,-70.569C465.0182,-75.3288 537.3111,-81.8789 586.9583,-86.3771"/>
<polygon fill="#191970" stroke="#191970" points="412.528,-67.0588 402.253,-69.642 411.8963,-74.0302 412.528,-67.0588"/>
</g>
<!-- Node26 -->
<g id="node7" class="node">
<title>Node26</title>
<g id="a_node7"><a xlink:href="class_fast_random_context.html#a59cd586d02fb2b0fd4014a437166c62a" target="_top" xlink:title="Generate a random 64&#45;bit integer. ">
<polygon fill="#ffffff" stroke="#000000" points="438,-27.5 438,-57.5 551,-57.5 551,-27.5 438,-27.5"/>
<text text-anchor="start" x="446" y="-45.5" font-family="Helvetica,sans-Serif" font-size="10.00" fill="#000000">FastRandomContext::</text>
<text text-anchor="middle" x="494.5" y="-34.5" font-family="Helvetica,sans-Serif" font-size="10.00" fill="#000000">rand64</text>
</a>
</g>
</g>
<!-- Node23&#45;&gt;Node26 -->
<g id="edge6" class="edge">
<title>Node23&#45;&gt;Node26</title>
<path fill="none" stroke="#191970" d="M412.228,-54.6475C420.8009,-53.3817 429.5125,-52.0955 437.9022,-50.8567"/>
<polygon fill="#191970" stroke="#191970" points="411.637,-51.1968 402.2556,-56.12 412.6596,-58.1217 411.637,-51.1968"/>
</g>
<!-- Node25 -->
<g id="node6" class="node">
<title>Node25</title>
<g id="a_node6"><a xlink:href="class_fast_random_context.html#a8ea3fd2c7b2961aa1ee93ca5dc6ad6cf" target="_top" xlink:title="Generate a random 32&#45;bit integer. ">
<polygon fill="#ffffff" stroke="#000000" points="885,-76.5 885,-106.5 998,-106.5 998,-76.5 885,-76.5"/>
<text text-anchor="start" x="893" y="-94.5" font-family="Helvetica,sans-Serif" font-size="10.00" fill="#000000">FastRandomContext::</text>
<text text-anchor="middle" x="941.5" y="-83.5" font-family="Helvetica,sans-Serif" font-size="10.00" fill="#000000">rand32</text>
</a>
</g>
</g>
<!-- Node24&#45;&gt;Node25 -->
<g id="edge5" class="edge">
<title>Node24&#45;&gt;Node25</title>
<path fill="none" stroke="#191970" d="M710.4838,-91.5C763.0182,-91.5 835.3111,-91.5 884.9583,-91.5"/>
<polygon fill="#191970" stroke="#191970" points="710.253,-88.0001 700.253,-91.5 710.2529,-95.0001 710.253,-88.0001"/>
</g>
<!-- Node27 -->
<g id="node8" class="node">
<title>Node27</title>
<g id="a_node8"><a xlink:href="class_fast_random_context.html#a39c2ce180d58c55e663ec2ba05593a37" target="_top" xlink:title="FastRandomContext::\lFillBitBuffer">
<polygon fill="#ffffff" stroke="#000000" points="587,-27.5 587,-57.5 700,-57.5 700,-27.5 587,-27.5"/>
<text text-anchor="start" x="595" y="-45.5" font-family="Helvetica,sans-Serif" font-size="10.00" fill="#000000">FastRandomContext::</text>
<text text-anchor="middle" x="643.5" y="-34.5" font-family="Helvetica,sans-Serif" font-size="10.00" fill="#000000">FillBitBuffer</text>
</a>
</g>
</g>
<!-- Node26&#45;&gt;Node27 -->
<g id="edge7" class="edge">
<title>Node26&#45;&gt;Node27</title>
<path fill="none" stroke="#191970" d="M561.5076,-42.5C569.9902,-42.5 578.6037,-42.5 586.9022,-42.5"/>
<polygon fill="#191970" stroke="#191970" points="561.2556,-39.0001 551.2556,-42.5 561.2555,-46.0001 561.2556,-39.0001"/>
</g>
<!-- Node28 -->
<g id="node9" class="node">
<title>Node28</title>
<g id="a_node9"><a xlink:href="class_fast_random_context.html#a95c5189461e49a34f9a9c9127f409481" target="_top" xlink:title="Generate a random (bits)&#45;bit integer. ">
<polygon fill="#ffffff" stroke="#000000" points="736,-27.5 736,-57.5 849,-57.5 849,-27.5 736,-27.5"/>
<text text-anchor="start" x="744" y="-45.5" font-family="Helvetica,sans-Serif" font-size="10.00" fill="#000000">FastRandomContext::</text>
<text text-anchor="middle" x="792.5" y="-34.5" font-family="Helvetica,sans-Serif" font-size="10.00" fill="#000000">randbits</text>
</a>
</g>
</g>
<!-- Node26&#45;&gt;Node28 -->
<g id="edge11" class="edge">
<title>Node26&#45;&gt;Node28</title>
<path fill="none" stroke="#191970" d="M550.44,-24.8457C562.3873,-21.792 575.0186,-19.0906 587,-17.5 636.7854,-10.8908 650.2146,-10.8908 700,-17.5 715.3362,-19.5359 731.7372,-23.392 746.4054,-27.477"/>
<polygon fill="#191970" stroke="#191970" points="549.3518,-21.5136 540.5946,-27.477 551.1592,-28.2763 549.3518,-21.5136"/>
</g>
<!-- Node27&#45;&gt;Node28 -->
<g id="edge8" class="edge">
<title>Node27&#45;&gt;Node28</title>
<path fill="none" stroke="#191970" d="M710.5076,-42.5C718.9902,-42.5 727.6037,-42.5 735.9022,-42.5"/>
<polygon fill="#191970" stroke="#191970" points="710.2556,-39.0001 700.2556,-42.5 710.2555,-46.0001 710.2556,-39.0001"/>
</g>
<!-- Node28&#45;&gt;Node25 -->
<g id="edge9" class="edge">
<title>Node28&#45;&gt;Node25</title>
<path fill="none" stroke="#191970" d="M848.0225,-60.7591C863.738,-65.9273 880.6606,-71.4924 895.7309,-76.4484"/>
<polygon fill="#191970" stroke="#191970" points="849.0136,-57.4007 838.4207,-57.6014 846.8268,-64.0503 849.0136,-57.4007"/>
</g>
<!-- Node29 -->
<g id="node10" class="node">
<title>Node29</title>
<g id="a_node10"><a xlink:href="class_fast_random_context.html#a721778ad4418922703ac4b7c14ab4722" target="_top" xlink:title="Generate a random boolean. ">
<polygon fill="#ffffff" stroke="#000000" points="885,-27.5 885,-57.5 998,-57.5 998,-27.5 885,-27.5"/>
<text text-anchor="start" x="893" y="-45.5" font-family="Helvetica,sans-Serif" font-size="10.00" fill="#000000">FastRandomContext::</text>
<text text-anchor="middle" x="941.5" y="-34.5" font-family="Helvetica,sans-Serif" font-size="10.00" fill="#000000">randbool</text>
</a>
</g>
</g>
<!-- Node28&#45;&gt;Node29 -->
<g id="edge10" class="edge">
<title>Node28&#45;&gt;Node29</title>
<path fill="none" stroke="#191970" d="M859.5076,-42.5C867.9902,-42.5 876.6037,-42.5 884.9022,-42.5"/>
<polygon fill="#191970" stroke="#191970" points="859.2556,-39.0001 849.2556,-42.5 859.2555,-46.0001 859.2556,-39.0001"/>
</g>
</g>
</svg>
