<?xml version="1.0" encoding="UTF-8" standalone="no"?>
<!DOCTYPE svg PUBLIC "-//W3C//DTD SVG 1.1//EN"
 "http://www.w3.org/Graphics/SVG/1.1/DTD/svg11.dtd">
<!-- Generated by graphviz version 2.40.1 (20161225.0304)
 -->
<!-- Title: org.raven.NativeSecp256k1.sign Pages: 1 -->
<svg width="512pt" height="88pt"
 viewBox="0.00 0.00 512.00 88.00" xmlns="http://www.w3.org/2000/svg" xmlns:xlink="http://www.w3.org/1999/xlink">
<g id="graph0" class="graph" transform="scale(1 1) rotate(0) translate(4 84)">
<title>org.raven.NativeSecp256k1.sign</title>
<polygon fill="#ffffff" stroke="transparent" points="-4,4 -4,-84 508,-84 508,4 -4,4"/>
<!-- Node174 -->
<g id="node1" class="node">
<title>Node174</title>
<polygon fill="#bfbfbf" stroke="#000000" points="0,-30 0,-49 158,-49 158,-30 0,-30"/>
<text text-anchor="middle" x="79" y="-37" font-family="Helvetica,sans-Serif" font-size="10.00" fill="#000000">org.raven.NativeSecp256k1.sign</text>
</g>
<!-- Node175 -->
<g id="node2" class="node">
<title>Node175</title>
<g id="a_node2"><a xlink:href="classorg_1_1raven_1_1_native_secp256k1_test.html#a477fc718bb6ab26b8236238d794fedcd" target="_top" xlink:title="This tests sign() for a valid secretkey. ">
<polygon fill="#ffffff" stroke="#000000" points="194,-49.5 194,-79.5 331,-79.5 331,-49.5 194,-49.5"/>
<text text-anchor="start" x="202" y="-67.5" font-family="Helvetica,sans-Serif" font-size="10.00" fill="#000000">org.raven.NativeSecp256k1</text>
<text text-anchor="middle" x="262.5" y="-56.5" font-family="Helvetica,sans-Serif" font-size="10.00" fill="#000000">Test.testSignPos</text>
</a>
</g>
</g>
<!-- Node174&#45;&gt;Node175 -->
<g id="edge1" class="edge">
<title>Node174&#45;&gt;Node175</title>
<path fill="none" stroke="#191970" d="M158.9821,-50.3967C170.5542,-51.9733 182.3803,-53.5845 193.7075,-55.1277"/>
<polygon fill="#191970" stroke="#191970" points="159.2779,-46.9048 148.897,-49.0227 158.3329,-53.8407 159.2779,-46.9048"/>
</g>
<!-- Node177 -->
<g id="node4" class="node">
<title>Node177</title>
<g id="a_node4"><a xlink:href="classorg_1_1raven_1_1_native_secp256k1_test.html#a67ab49e96697527d3df523c502973009" target="_top" xlink:title="This tests sign() for a invalid secretkey. ">
<polygon fill="#ffffff" stroke="#000000" points="194,-.5 194,-30.5 331,-30.5 331,-.5 194,-.5"/>
<text text-anchor="start" x="202" y="-18.5" font-family="Helvetica,sans-Serif" font-size="10.00" fill="#000000">org.raven.NativeSecp256k1</text>
<text text-anchor="middle" x="262.5" y="-7.5" font-family="Helvetica,sans-Serif" font-size="10.00" fill="#000000">Test.testSignNeg</text>
</a>
</g>
</g>
<!-- Node174&#45;&gt;Node177 -->
<g id="edge3" class="edge">
<title>Node174&#45;&gt;Node177</title>
<path fill="none" stroke="#191970" d="M161.9809,-28.6469C172.684,-27.2471 183.5477,-25.8262 193.9823,-24.4614"/>
<polygon fill="#191970" stroke="#191970" points="161.2492,-25.2127 151.7876,-29.9801 162.1571,-32.1536 161.2492,-25.2127"/>
</g>
<!-- Node176 -->
<g id="node3" class="node">
<title>Node176</title>
<g id="a_node3"><a xlink:href="classorg_1_1raven_1_1_native_secp256k1_test.html#afd1b0d2fe3413a8fcd28b3acb4b91b12" target="_top" xlink:title="org.raven.NativeSecp256k1\lTest.main">
<polygon fill="#ffffff" stroke="#000000" points="367,-24.5 367,-54.5 504,-54.5 504,-24.5 367,-24.5"/>
<text text-anchor="start" x="375" y="-42.5" font-family="Helvetica,sans-Serif" font-size="10.00" fill="#000000">org.raven.NativeSecp256k1</text>
<text text-anchor="middle" x="435.5" y="-31.5" font-family="Helvetica,sans-Serif" font-size="10.00" fill="#000000">Test.main</text>
</a>
</g>
</g>
<!-- Node175&#45;&gt;Node176 -->
<g id="edge2" class="edge">
<title>Node175&#45;&gt;Node176</title>
<path fill="none" stroke="#191970" d="M341.316,-53.1104C349.8439,-51.8781 358.4721,-50.6312 366.8657,-49.4183"/>
<polygon fill="#191970" stroke="#191970" points="340.7679,-49.6532 331.3713,-54.5475 341.7691,-56.5812 340.7679,-49.6532"/>
</g>
<!-- Node177&#45;&gt;Node176 -->
<g id="edge4" class="edge">
<title>Node177&#45;&gt;Node176</title>
<path fill="none" stroke="#191970" d="M341.316,-26.434C349.8439,-27.6171 358.4721,-28.8141 366.8657,-29.9785"/>
<polygon fill="#191970" stroke="#191970" points="341.7574,-22.9618 331.3713,-25.0544 340.7954,-29.8954 341.7574,-22.9618"/>
</g>
</g>
</svg>
