<?xml version="1.0" encoding="UTF-8" standalone="no"?>
<!DOCTYPE svg PUBLIC "-//W3C//DTD SVG 1.1//EN"
 "http://www.w3.org/Graphics/SVG/1.1/DTD/svg11.dtd">
<!-- Generated by graphviz version 2.40.1 (20161225.0304)
 -->
<!-- Title: OptionsModel::OptionsModel Pages: 1 -->
<svg width="477pt" height="116pt"
 viewBox="0.00 0.00 477.00 115.50" xmlns="http://www.w3.org/2000/svg" xmlns:xlink="http://www.w3.org/1999/xlink">
<g id="graph0" class="graph" transform="scale(1 1) rotate(0) translate(4 111.5)">
<title>OptionsModel::OptionsModel</title>
<polygon fill="#ffffff" stroke="transparent" points="-4,4 -4,-111.5 473,-111.5 473,4 -4,4"/>
<!-- Node0 -->
<g id="node1" class="node">
<title>Node0</title>
<polygon fill="#bfbfbf" stroke="#000000" points="0,-50 0,-69 143,-69 143,-50 0,-50"/>
<text text-anchor="middle" x="71.5" y="-57" font-family="Helvetica,sans-Serif" font-size="10.00" fill="#000000">OptionsModel::OptionsModel</text>
</g>
<!-- Node1 -->
<g id="node2" class="node">
<title>Node1</title>
<g id="a_node2"><a xlink:href="class_options_model.html#a1fee36c382abefc0fb165bed99df7413" target="_top" xlink:title="OptionsModel::Init">
<polygon fill="#ffffff" stroke="#000000" points="179,-50 179,-69 275,-69 275,-50 179,-50"/>
<text text-anchor="middle" x="227" y="-57" font-family="Helvetica,sans-Serif" font-size="10.00" fill="#000000">OptionsModel::Init</text>
</a>
</g>
</g>
<!-- Node0&#45;&gt;Node1 -->
<g id="edge1" class="edge">
<title>Node0&#45;&gt;Node1</title>
<path fill="none" stroke="#191970" d="M143.3327,-59.5C151.7257,-59.5 160.2111,-59.5 168.3948,-59.5"/>
<polygon fill="#191970" stroke="#191970" points="168.5698,-63.0001 178.5698,-59.5 168.5698,-56.0001 168.5698,-63.0001"/>
</g>
<!-- Node2 -->
<g id="node3" class="node">
<title>Node2</title>
<g id="a_node3"><a xlink:href="class_options_model.html#ab952b1946cf3a4c76706ec796a3e629b" target="_top" xlink:title="OptionsModel::Reset">
<polygon fill="#ffffff" stroke="#000000" points="335.5,-88 335.5,-107 444.5,-107 444.5,-88 335.5,-88"/>
<text text-anchor="middle" x="390" y="-95" font-family="Helvetica,sans-Serif" font-size="10.00" fill="#000000">OptionsModel::Reset</text>
</a>
</g>
</g>
<!-- Node1&#45;&gt;Node2 -->
<g id="edge2" class="edge">
<title>Node1&#45;&gt;Node2</title>
<path fill="none" stroke="#191970" d="M268.1318,-69.089C289.7383,-74.1261 316.409,-80.3438 339.2858,-85.6771"/>
<polygon fill="#191970" stroke="#191970" points="338.6305,-89.1181 349.164,-87.9799 340.2198,-82.3009 338.6305,-89.1181"/>
</g>
<!-- Node3 -->
<g id="node4" class="node">
<title>Node3</title>
<g id="a_node4"><a xlink:href="class_options_model.html#ad62c2c0e76000a2a899f051078a31de8" target="_top" xlink:title="OptionsModel::checkAndMigrate">
<polygon fill="#ffffff" stroke="#000000" points="311,-50 311,-69 469,-69 469,-50 311,-50"/>
<text text-anchor="middle" x="390" y="-57" font-family="Helvetica,sans-Serif" font-size="10.00" fill="#000000">OptionsModel::checkAndMigrate</text>
</a>
</g>
</g>
<!-- Node1&#45;&gt;Node3 -->
<g id="edge3" class="edge">
<title>Node1&#45;&gt;Node3</title>
<path fill="none" stroke="#191970" d="M275.0238,-59.5C283.2114,-59.5 291.9446,-59.5 300.8001,-59.5"/>
<polygon fill="#191970" stroke="#191970" points="300.8278,-63.0001 310.8277,-59.5 300.8277,-56.0001 300.8278,-63.0001"/>
</g>
<!-- Node4 -->
<g id="node5" class="node">
<title>Node4</title>
<g id="a_node5"><a xlink:href="class_options_model.html#af25171526a18c4746132ff199e0b1d71" target="_top" xlink:title="OptionsModel::setRestart\lRequired">
<polygon fill="#ffffff" stroke="#000000" points="326,-.5 326,-30.5 454,-30.5 454,-.5 326,-.5"/>
<text text-anchor="start" x="334" y="-18.5" font-family="Helvetica,sans-Serif" font-size="10.00" fill="#000000">OptionsModel::setRestart</text>
<text text-anchor="middle" x="390" y="-7.5" font-family="Helvetica,sans-Serif" font-size="10.00" fill="#000000">Required</text>
</a>
</g>
</g>
<!-- Node1&#45;&gt;Node4 -->
<g id="edge4" class="edge">
<title>Node1&#45;&gt;Node4</title>
<path fill="none" stroke="#191970" d="M262.3686,-49.9527C280.4747,-45.0651 303.1101,-38.9549 324.2708,-33.2429"/>
<polygon fill="#191970" stroke="#191970" points="325.4474,-36.5506 334.1897,-30.5654 323.6231,-29.7925 325.4474,-36.5506"/>
</g>
</g>
</svg>
