<?xml version="1.0" encoding="UTF-8" standalone="no"?>
<!DOCTYPE svg PUBLIC "-//W3C//DTD SVG 1.1//EN"
 "http://www.w3.org/Graphics/SVG/1.1/DTD/svg11.dtd">
<!-- Generated by graphviz version 2.40.1 (20161225.0304)
 -->
<!-- Title: CWalletTx Pages: 1 -->
<svg width="1235pt" height="271pt"
 viewBox="0.00 0.00 1235.00 271.00" xmlns="http://www.w3.org/2000/svg" xmlns:xlink="http://www.w3.org/1999/xlink">
<g id="graph0" class="graph" transform="scale(1 1) rotate(0) translate(4 267)">
<title>CWalletTx</title>
<polygon fill="#ffffff" stroke="transparent" points="-4,4 -4,-267 1231,-267 1231,4 -4,4"/>
<!-- Node2 -->
<g id="node1" class="node">
<title>Node2</title>
<polygon fill="#bfbfbf" stroke="#000000" points="1164,-138.5 1164,-157.5 1227,-157.5 1227,-138.5 1164,-138.5"/>
<text text-anchor="middle" x="1195.5" y="-145.5" font-family="Helvetica,sans-Serif" font-size="10.00" fill="#000000">CWalletTx</text>
</g>
<!-- Node3 -->
<g id="node2" class="node">
<title>Node3</title>
<g id="a_node2"><a xlink:href="class_c_merkle_tx.html" target="_top" xlink:title="RVN END. ">
<polygon fill="#ffffff" stroke="#000000" points="1029,-194.5 1029,-213.5 1094,-213.5 1094,-194.5 1029,-194.5"/>
<text text-anchor="middle" x="1061.5" y="-201.5" font-family="Helvetica,sans-Serif" font-size="10.00" fill="#000000">CMerkleTx</text>
</a>
</g>
</g>
<!-- Node3&#45;&gt;Node2 -->
<g id="edge1" class="edge">
<title>Node3&#45;&gt;Node2</title>
<path fill="none" stroke="#191970" d="M1094.0828,-190.3833C1118.4536,-180.1985 1151.1642,-166.5284 1172.7652,-157.5011"/>
<polygon fill="#191970" stroke="#191970" points="1092.4125,-187.2879 1084.5354,-194.3733 1095.1117,-193.7466 1092.4125,-187.2879"/>
</g>
<!-- Node4 -->
<g id="node3" class="node">
<title>Node4</title>
<g id="a_node3"><a xlink:href="classuint256.html" target="_top" xlink:title="256&#45;bit opaque blob. ">
<polygon fill="#ffffff" stroke="#000000" points="825.5,-239.5 825.5,-258.5 873.5,-258.5 873.5,-239.5 825.5,-239.5"/>
<text text-anchor="middle" x="849.5" y="-246.5" font-family="Helvetica,sans-Serif" font-size="10.00" fill="#000000">uint256</text>
</a>
</g>
</g>
<!-- Node4&#45;&gt;Node3 -->
<g id="edge2" class="edge">
<title>Node4&#45;&gt;Node3</title>
<path fill="none" stroke="#9a32cd" stroke-dasharray="5,2" d="M883.7024,-245.9465C916.7128,-242.4768 967.8889,-235.715 1011,-224 1020.8279,-221.3294 1031.3514,-217.3525 1040.2345,-213.6469"/>
<polygon fill="#9a32cd" stroke="#9a32cd" points="883.2547,-242.4738 873.6563,-246.9594 883.9571,-249.4385 883.2547,-242.4738"/>
<text text-anchor="middle" x="965.5" y="-255" font-family="Helvetica,sans-Serif" font-size="10.00" fill="#000000"> hashBlock</text>
<text text-anchor="middle" x="965.5" y="-244" font-family="Helvetica,sans-Serif" font-size="10.00" fill="#000000">ABANDON_HASH</text>
</g>
<!-- Node5 -->
<g id="node4" class="node">
<title>Node5</title>
<g id="a_node4"><a xlink:href="classbase__blob.html" target="_top" xlink:title="base_blob\&lt; 256 \&gt;">
<polygon fill="#ffffff" stroke="#000000" points="625,-239.5 625,-258.5 720,-258.5 720,-239.5 625,-239.5"/>
<text text-anchor="middle" x="672.5" y="-246.5" font-family="Helvetica,sans-Serif" font-size="10.00" fill="#000000">base_blob&lt; 256 &gt;</text>
</a>
</g>
</g>
<!-- Node5&#45;&gt;Node4 -->
<g id="edge3" class="edge">
<title>Node5&#45;&gt;Node4</title>
<path fill="none" stroke="#191970" d="M730.6232,-249C762.8555,-249 801.206,-249 825.4534,-249"/>
<polygon fill="#191970" stroke="#191970" points="730.3988,-245.5001 720.3987,-249 730.3987,-252.5001 730.3988,-245.5001"/>
</g>
<!-- Node6 -->
<g id="node5" class="node">
<title>Node6</title>
<g id="a_node5"><a xlink:href="class_c_wallet.html" target="_top" xlink:title="A CWallet is an extension of a keystore, which also maintains a set of transactions and balances...">
<polygon fill="#ffffff" stroke="#000000" points="1035.5,-119.5 1035.5,-138.5 1087.5,-138.5 1087.5,-119.5 1035.5,-119.5"/>
<text text-anchor="middle" x="1061.5" y="-126.5" font-family="Helvetica,sans-Serif" font-size="10.00" fill="#000000">CWallet</text>
</a>
</g>
</g>
<!-- Node6&#45;&gt;Node2 -->
<g id="edge4" class="edge">
<title>Node6&#45;&gt;Node2</title>
<path fill="none" stroke="#9a32cd" stroke-dasharray="5,2" d="M1098.158,-132.8364C1113.034,-134.5238 1130.3647,-136.6558 1146,-139 1151.7875,-139.8677 1157.9362,-140.8977 1163.8606,-141.9456"/>
<polygon fill="#9a32cd" stroke="#9a32cd" points="1098.1442,-129.3135 1087.8192,-131.6896 1097.3724,-136.2708 1098.1442,-129.3135"/>
<text text-anchor="middle" x="1129" y="-142" font-family="Helvetica,sans-Serif" font-size="10.00" fill="#000000"> pwallet</text>
</g>
<!-- Node7 -->
<g id="node6" class="node">
<title>Node7</title>
<g id="a_node6"><a xlink:href="class_c_crypto_key_store.html" target="_top" xlink:title="Keystore which keeps the private keys encrypted. ">
<polygon fill="#ffffff" stroke="#000000" points="802.5,-154.5 802.5,-173.5 896.5,-173.5 896.5,-154.5 802.5,-154.5"/>
<text text-anchor="middle" x="849.5" y="-161.5" font-family="Helvetica,sans-Serif" font-size="10.00" fill="#000000">CCryptoKeyStore</text>
</a>
</g>
</g>
<!-- Node7&#45;&gt;Node6 -->
<g id="edge5" class="edge">
<title>Node7&#45;&gt;Node6</title>
<path fill="none" stroke="#191970" d="M906.976,-158.5211C937.9652,-155.0669 976.7667,-149.9348 1011,-143 1019.0252,-141.3743 1027.6493,-139.1613 1035.4593,-136.9749"/>
<polygon fill="#191970" stroke="#191970" points="906.3474,-155.0687 896.784,-159.6284 907.1035,-162.0278 906.3474,-155.0687"/>
</g>
<!-- Node8 -->
<g id="node7" class="node">
<title>Node8</title>
<g id="a_node7"><a xlink:href="class_c_basic_key_store.html" target="_top" xlink:title="Basic key store, that keeps keys in an address&#45;&gt;secret map. ">
<polygon fill="#ffffff" stroke="#000000" points="628,-154.5 628,-173.5 717,-173.5 717,-154.5 628,-154.5"/>
<text text-anchor="middle" x="672.5" y="-161.5" font-family="Helvetica,sans-Serif" font-size="10.00" fill="#000000">CBasicKeyStore</text>
</a>
</g>
</g>
<!-- Node8&#45;&gt;Node7 -->
<g id="edge6" class="edge">
<title>Node8&#45;&gt;Node7</title>
<path fill="none" stroke="#191970" d="M727.2105,-164C751.271,-164 779.2522,-164 802.3724,-164"/>
<polygon fill="#191970" stroke="#191970" points="727.1646,-160.5001 717.1646,-164 727.1645,-167.5001 727.1646,-160.5001"/>
</g>
<!-- Node9 -->
<g id="node8" class="node">
<title>Node9</title>
<g id="a_node8"><a xlink:href="class_c_key_store.html" target="_top" xlink:title="A virtual base class for key stores. ">
<polygon fill="#ffffff" stroke="#000000" points="501,-154.5 501,-173.5 566,-173.5 566,-154.5 501,-154.5"/>
<text text-anchor="middle" x="533.5" y="-161.5" font-family="Helvetica,sans-Serif" font-size="10.00" fill="#000000">CKeyStore</text>
</a>
</g>
</g>
<!-- Node9&#45;&gt;Node8 -->
<g id="edge7" class="edge">
<title>Node9&#45;&gt;Node8</title>
<path fill="none" stroke="#191970" d="M576.4181,-164C592.7092,-164 611.2947,-164 627.7507,-164"/>
<polygon fill="#191970" stroke="#191970" points="576.0894,-160.5001 566.0893,-164 576.0893,-167.5001 576.0894,-160.5001"/>
</g>
<!-- Node10 -->
<g id="node9" class="node">
<title>Node10</title>
<g id="a_node9"><a xlink:href="class_c_critical_section.html" target="_top" xlink:title="Wrapped boost mutex: supports recursive locking, but no waiting TODO: We should move away from using ...">
<polygon fill="#ffffff" stroke="#000000" points="313.5,-154.5 313.5,-173.5 401.5,-173.5 401.5,-154.5 313.5,-154.5"/>
<text text-anchor="middle" x="357.5" y="-161.5" font-family="Helvetica,sans-Serif" font-size="10.00" fill="#000000">CCriticalSection</text>
</a>
</g>
</g>
<!-- Node10&#45;&gt;Node6 -->
<g id="edge13" class="edge">
<title>Node10&#45;&gt;Node6</title>
<path fill="none" stroke="#9a32cd" stroke-dasharray="5,2" d="M388.8181,-177.3698C423.523,-190.9512 481.4724,-210 533.5,-210 533.5,-210 533.5,-210 849.5,-210 924.2556,-210 943.2974,-194.6978 1011,-163 1025.1667,-156.3673 1039.8317,-146.0399 1049.6839,-138.5066"/>
<polygon fill="#9a32cd" stroke="#9a32cd" points="389.8324,-174.0056 379.2482,-173.5312 387.2264,-180.5025 389.8324,-174.0056"/>
<text text-anchor="middle" x="672.5" y="-213" font-family="Helvetica,sans-Serif" font-size="10.00" fill="#000000"> cs_wallet</text>
</g>
<!-- Node10&#45;&gt;Node9 -->
<g id="edge8" class="edge">
<title>Node10&#45;&gt;Node9</title>
<path fill="none" stroke="#9a32cd" stroke-dasharray="5,2" d="M411.9342,-164C441.0192,-164 475.8584,-164 500.7696,-164"/>
<polygon fill="#9a32cd" stroke="#9a32cd" points="411.9123,-160.5001 401.9122,-164 411.9122,-167.5001 411.9123,-160.5001"/>
<text text-anchor="middle" x="453" y="-167" font-family="Helvetica,sans-Serif" font-size="10.00" fill="#000000"> cs_KeyStore</text>
</g>
<!-- Node21 -->
<g id="node20" class="node">
<title>Node21</title>
<g id="a_node20"><a xlink:href="class_c_d_b_env.html" target="_top" xlink:title="CDBEnv">
<polygon fill="#ffffff" stroke="#000000" points="505.5,-116.5 505.5,-135.5 561.5,-135.5 561.5,-116.5 505.5,-116.5"/>
<text text-anchor="middle" x="533.5" y="-123.5" font-family="Helvetica,sans-Serif" font-size="10.00" fill="#000000">CDBEnv</text>
</a>
</g>
</g>
<!-- Node10&#45;&gt;Node21 -->
<g id="edge21" class="edge">
<title>Node10&#45;&gt;Node21</title>
<path fill="none" stroke="#9a32cd" stroke-dasharray="5,2" d="M408.6215,-152.1895C413.4786,-151.0985 418.3308,-150.0205 423,-149 450.9493,-142.8916 482.9597,-136.2697 505.3084,-131.7068"/>
<polygon fill="#9a32cd" stroke="#9a32cd" points="407.6834,-148.8131 398.7018,-154.4329 409.2276,-155.6407 407.6834,-148.8131"/>
<text text-anchor="middle" x="453" y="-152" font-family="Helvetica,sans-Serif" font-size="10.00" fill="#000000"> cs_db</text>
</g>
<!-- Node11 -->
<g id="node10" class="node">
<title>Node11</title>
<polygon fill="#ffffff" stroke="#bfbfbf" points="156,-149 156,-179 273,-179 273,-149 156,-149"/>
<text text-anchor="start" x="164" y="-167" font-family="Helvetica,sans-Serif" font-size="10.00" fill="#000000">AnnotatedMixin&lt; boost</text>
<text text-anchor="middle" x="214.5" y="-156" font-family="Helvetica,sans-Serif" font-size="10.00" fill="#000000">::recursive_mutex &gt;</text>
</g>
<!-- Node11&#45;&gt;Node10 -->
<g id="edge9" class="edge">
<title>Node11&#45;&gt;Node10</title>
<path fill="none" stroke="#191970" d="M283.2288,-164C293.4374,-164 303.7215,-164 313.247,-164"/>
<polygon fill="#191970" stroke="#191970" points="283.0762,-160.5001 273.0762,-164 283.0761,-167.5001 283.0762,-160.5001"/>
</g>
<!-- Node12 -->
<g id="node11" class="node">
<title>Node12</title>
<polygon fill="#ffffff" stroke="#bfbfbf" points="0,-154.5 0,-173.5 119,-173.5 119,-154.5 0,-154.5"/>
<text text-anchor="middle" x="59.5" y="-161.5" font-family="Helvetica,sans-Serif" font-size="10.00" fill="#000000">boost::recursive_mutex</text>
</g>
<!-- Node12&#45;&gt;Node11 -->
<g id="edge10" class="edge">
<title>Node12&#45;&gt;Node11</title>
<path fill="none" stroke="#191970" d="M129.6022,-164C138.3424,-164 147.2093,-164 155.7527,-164"/>
<polygon fill="#191970" stroke="#191970" points="129.4271,-160.5001 119.427,-164 129.427,-167.5001 129.4271,-160.5001"/>
</g>
<!-- Node13 -->
<g id="node12" class="node">
<title>Node13</title>
<g id="a_node12"><a xlink:href="class_c_validation_interface.html" target="_top" xlink:title="CValidationInterface">
<polygon fill="#ffffff" stroke="#000000" points="797,-78.5 797,-97.5 902,-97.5 902,-78.5 797,-78.5"/>
<text text-anchor="middle" x="849.5" y="-85.5" font-family="Helvetica,sans-Serif" font-size="10.00" fill="#000000">CValidationInterface</text>
</a>
</g>
</g>
<!-- Node13&#45;&gt;Node6 -->
<g id="edge11" class="edge">
<title>Node13&#45;&gt;Node6</title>
<path fill="none" stroke="#191970" d="M908.7097,-99.4509C950.3703,-107.5079 1004.0949,-117.8981 1035.4781,-123.9675"/>
<polygon fill="#191970" stroke="#191970" points="909.1526,-95.9718 898.6699,-97.5093 907.8234,-102.8445 909.1526,-95.9718"/>
</g>
<!-- Node14 -->
<g id="node13" class="node">
<title>Node14</title>
<g id="a_node13"><a xlink:href="class_c_fee_rate.html" target="_top" xlink:title="Fee rate in satoshis per kilobyte: CAmount / kB. ">
<polygon fill="#ffffff" stroke="#000000" points="818.5,-38.5 818.5,-57.5 880.5,-57.5 880.5,-38.5 818.5,-38.5"/>
<text text-anchor="middle" x="849.5" y="-45.5" font-family="Helvetica,sans-Serif" font-size="10.00" fill="#000000">CFeeRate</text>
</a>
</g>
</g>
<!-- Node14&#45;&gt;Node6 -->
<g id="edge12" class="edge">
<title>Node14&#45;&gt;Node6</title>
<path fill="none" stroke="#9a32cd" stroke-dasharray="5,2" d="M890.9099,-43.8145C925.1904,-42.271 974.0808,-44.6475 1011,-65 1033.5588,-77.436 1049.5661,-104.5372 1056.9354,-119.166"/>
<polygon fill="#9a32cd" stroke="#9a32cd" points="890.5496,-40.3295 880.7696,-44.4039 890.9558,-47.3177 890.5496,-40.3295"/>
<text text-anchor="middle" x="965.5" y="-90" font-family="Helvetica,sans-Serif" font-size="10.00" fill="#000000"> m_discard_rate</text>
<text text-anchor="middle" x="965.5" y="-79" font-family="Helvetica,sans-Serif" font-size="10.00" fill="#000000">minTxFee</text>
<text text-anchor="middle" x="965.5" y="-68" font-family="Helvetica,sans-Serif" font-size="10.00" fill="#000000">fallbackFee</text>
</g>
<!-- Node15 -->
<g id="node14" class="node">
<title>Node15</title>
<g id="a_node14"><a xlink:href="class_c_h_d_chain.html" target="_top" xlink:title="CHDChain">
<polygon fill="#ffffff" stroke="#000000" points="817,-.5 817,-19.5 882,-19.5 882,-.5 817,-.5"/>
<text text-anchor="middle" x="849.5" y="-7.5" font-family="Helvetica,sans-Serif" font-size="10.00" fill="#000000">CHDChain</text>
</a>
</g>
</g>
<!-- Node15&#45;&gt;Node6 -->
<g id="edge14" class="edge">
<title>Node15&#45;&gt;Node6</title>
<path fill="none" stroke="#9a32cd" stroke-dasharray="5,2" d="M892.4329,-4.5546C927.4195,-2.413 976.5066,-4.8851 1011,-29 1042.5614,-51.0651 1055.5106,-98.8188 1059.7582,-119.3246"/>
<polygon fill="#9a32cd" stroke="#9a32cd" points="891.7632,-1.0955 882.0594,-5.3485 892.2974,-8.0751 891.7632,-1.0955"/>
<text text-anchor="middle" x="965.5" y="-32" font-family="Helvetica,sans-Serif" font-size="10.00" fill="#000000"> hdChain</text>
</g>
<!-- Node16 -->
<g id="node15" class="node">
<title>Node16</title>
<g id="a_node15"><a xlink:href="class_c_key_i_d.html" target="_top" xlink:title="A reference to a CKey: the Hash160 of its serialized public key. ">
<polygon fill="#ffffff" stroke="#000000" points="646.5,-.5 646.5,-19.5 698.5,-19.5 698.5,-.5 646.5,-.5"/>
<text text-anchor="middle" x="672.5" y="-7.5" font-family="Helvetica,sans-Serif" font-size="10.00" fill="#000000">CKeyID</text>
</a>
</g>
</g>
<!-- Node16&#45;&gt;Node15 -->
<g id="edge15" class="edge">
<title>Node16&#45;&gt;Node15</title>
<path fill="none" stroke="#9a32cd" stroke-dasharray="5,2" d="M708.8175,-10C740.5988,-10 786.3467,-10 816.955,-10"/>
<polygon fill="#9a32cd" stroke="#9a32cd" points="708.617,-6.5001 698.617,-10 708.6169,-13.5001 708.617,-6.5001"/>
<text text-anchor="middle" x="760.5" y="-13" font-family="Helvetica,sans-Serif" font-size="10.00" fill="#000000"> seed_id</text>
</g>
<!-- Node17 -->
<g id="node16" class="node">
<title>Node17</title>
<g id="a_node16"><a xlink:href="classuint160.html" target="_top" xlink:title="160&#45;bit opaque blob. ">
<polygon fill="#ffffff" stroke="#000000" points="509.5,-.5 509.5,-19.5 557.5,-19.5 557.5,-.5 509.5,-.5"/>
<text text-anchor="middle" x="533.5" y="-7.5" font-family="Helvetica,sans-Serif" font-size="10.00" fill="#000000">uint160</text>
</a>
</g>
</g>
<!-- Node17&#45;&gt;Node16 -->
<g id="edge16" class="edge">
<title>Node17&#45;&gt;Node16</title>
<path fill="none" stroke="#191970" d="M567.8966,-10C592.1052,-10 624.0192,-10 646.202,-10"/>
<polygon fill="#191970" stroke="#191970" points="567.712,-6.5001 557.712,-10 567.7119,-13.5001 567.712,-6.5001"/>
</g>
<!-- Node18 -->
<g id="node17" class="node">
<title>Node18</title>
<g id="a_node17"><a xlink:href="classbase__blob.html" target="_top" xlink:title="base_blob\&lt; 160 \&gt;">
<polygon fill="#ffffff" stroke="#000000" points="310,-.5 310,-19.5 405,-19.5 405,-.5 310,-.5"/>
<text text-anchor="middle" x="357.5" y="-7.5" font-family="Helvetica,sans-Serif" font-size="10.00" fill="#000000">base_blob&lt; 160 &gt;</text>
</a>
</g>
</g>
<!-- Node18&#45;&gt;Node17 -->
<g id="edge17" class="edge">
<title>Node18&#45;&gt;Node17</title>
<path fill="none" stroke="#191970" d="M415.2321,-10C447.0814,-10 484.9541,-10 509.1045,-10"/>
<polygon fill="#191970" stroke="#191970" points="415.1282,-6.5001 405.1281,-10 415.1281,-13.5001 415.1282,-6.5001"/>
</g>
<!-- Node19 -->
<g id="node18" class="node">
<title>Node19</title>
<g id="a_node18"><a xlink:href="class_c_wallet_d_b.html" target="_top" xlink:title="Access to the wallet database. ">
<polygon fill="#ffffff" stroke="#000000" points="816.5,-116.5 816.5,-135.5 882.5,-135.5 882.5,-116.5 816.5,-116.5"/>
<text text-anchor="middle" x="849.5" y="-123.5" font-family="Helvetica,sans-Serif" font-size="10.00" fill="#000000">CWalletDB</text>
</a>
</g>
</g>
<!-- Node19&#45;&gt;Node6 -->
<g id="edge18" class="edge">
<title>Node19&#45;&gt;Node6</title>
<path fill="none" stroke="#9a32cd" stroke-dasharray="5,2" d="M892.7494,-126.612C935.5509,-127.2177 999.6808,-128.1252 1035.292,-128.6291"/>
<polygon fill="#9a32cd" stroke="#9a32cd" points="892.6736,-123.1107 882.625,-126.4688 892.5744,-130.11 892.6736,-123.1107"/>
<text text-anchor="middle" x="965.5" y="-131" font-family="Helvetica,sans-Serif" font-size="10.00" fill="#000000"> pwalletdbEncryption</text>
</g>
<!-- Node20 -->
<g id="node19" class="node">
<title>Node20</title>
<g id="a_node19"><a xlink:href="class_c_d_b.html" target="_top" xlink:title="RAII class that provides access to a Berkeley database. ">
<polygon fill="#ffffff" stroke="#000000" points="653.5,-116.5 653.5,-135.5 691.5,-135.5 691.5,-116.5 653.5,-116.5"/>
<text text-anchor="middle" x="672.5" y="-123.5" font-family="Helvetica,sans-Serif" font-size="10.00" fill="#000000">CDB</text>
</a>
</g>
</g>
<!-- Node20&#45;&gt;Node19 -->
<g id="edge19" class="edge">
<title>Node20&#45;&gt;Node19</title>
<path fill="none" stroke="#9a32cd" stroke-dasharray="5,2" d="M702.1268,-126C733.7027,-126 783.5774,-126 816.4169,-126"/>
<polygon fill="#9a32cd" stroke="#9a32cd" points="701.7791,-122.5001 691.779,-126 701.779,-129.5001 701.7791,-122.5001"/>
<text text-anchor="middle" x="760.5" y="-129" font-family="Helvetica,sans-Serif" font-size="10.00" fill="#000000"> batch</text>
</g>
<!-- Node21&#45;&gt;Node20 -->
<g id="edge20" class="edge">
<title>Node21&#45;&gt;Node20</title>
<path fill="none" stroke="#9a32cd" stroke-dasharray="5,2" d="M571.725,-126C598.2171,-126 632.3695,-126 653.3368,-126"/>
<polygon fill="#9a32cd" stroke="#9a32cd" points="571.6288,-122.5001 561.6287,-126 571.6287,-129.5001 571.6288,-122.5001"/>
<text text-anchor="middle" x="593.5" y="-129" font-family="Helvetica,sans-Serif" font-size="10.00" fill="#000000"> env</text>
</g>
<!-- Node22 -->
<g id="node21" class="node">
<title>Node22</title>
<g id="a_node21"><a xlink:href="class_c_wallet_d_b_wrapper.html" target="_top" xlink:title="An instance of this class represents one database. ">
<polygon fill="#ffffff" stroke="#000000" points="621,-78.5 621,-97.5 724,-97.5 724,-78.5 621,-78.5"/>
<text text-anchor="middle" x="672.5" y="-85.5" font-family="Helvetica,sans-Serif" font-size="10.00" fill="#000000">CWalletDBWrapper</text>
</a>
</g>
</g>
<!-- Node21&#45;&gt;Node22 -->
<g id="edge23" class="edge">
<title>Node21&#45;&gt;Node22</title>
<path fill="none" stroke="#9a32cd" stroke-dasharray="5,2" d="M571.4781,-114.5665C575.697,-113.3419 579.936,-112.1313 584,-111 600.517,-106.4022 618.8488,-101.5903 634.5246,-97.5632"/>
<polygon fill="#9a32cd" stroke="#9a32cd" points="570.3714,-111.2436 561.7621,-117.4185 572.3431,-117.9602 570.3714,-111.2436"/>
<text text-anchor="middle" x="593.5" y="-114" font-family="Helvetica,sans-Serif" font-size="10.00" fill="#000000"> env</text>
</g>
<!-- Node22&#45;&gt;Node19 -->
<g id="edge22" class="edge">
<title>Node22&#45;&gt;Node19</title>
<path fill="none" stroke="#9a32cd" stroke-dasharray="5,2" d="M727.2093,-99.7455C756.3581,-106.0034 791.2617,-113.4969 816.305,-118.8734"/>
<polygon fill="#9a32cd" stroke="#9a32cd" points="727.6765,-96.2661 717.1646,-97.589 726.2071,-103.1102 727.6765,-96.2661"/>
<text text-anchor="middle" x="760.5" y="-113" font-family="Helvetica,sans-Serif" font-size="10.00" fill="#000000"> m_dbw</text>
</g>
</g>
</svg>
