<?xml version="1.0" encoding="UTF-8" standalone="no"?>
<!DOCTYPE svg PUBLIC "-//W3C//DTD SVG 1.1//EN"
 "http://www.w3.org/Graphics/SVG/1.1/DTD/svg11.dtd">
<!-- Generated by graphviz version 2.40.1 (20161225.0304)
 -->
<!-- Title: uint512::trim256 Pages: 1 -->
<svg width="722pt" height="388pt"
 viewBox="0.00 0.00 722.00 388.32" xmlns="http://www.w3.org/2000/svg" xmlns:xlink="http://www.w3.org/1999/xlink">
<g id="graph0" class="graph" transform="scale(1 1) rotate(0) translate(4 384.3184)">
<title>uint512::trim256</title>
<polygon fill="#ffffff" stroke="transparent" points="-4,4 -4,-384.3184 718,-384.3184 718,4 -4,4"/>
<!-- Node10 -->
<g id="node1" class="node">
<title>Node10</title>
<polygon fill="#bfbfbf" stroke="#000000" points="0,-183.5 0,-202.5 86,-202.5 86,-183.5 0,-183.5"/>
<text text-anchor="middle" x="43" y="-190.5" font-family="Helvetica,sans-Serif" font-size="10.00" fill="#000000">uint512::trim256</text>
</g>
<!-- Node11 -->
<g id="node2" class="node">
<title>Node11</title>
<g id="a_node2"><a xlink:href="hash_8h.html#ae235360a54ec41155191de749170ab61" target="_top" xlink:title="HashX16R">
<polygon fill="#ffffff" stroke="#000000" points="122,-183.5 122,-202.5 187,-202.5 187,-183.5 122,-183.5"/>
<text text-anchor="middle" x="154.5" y="-190.5" font-family="Helvetica,sans-Serif" font-size="10.00" fill="#000000">HashX16R</text>
</a>
</g>
</g>
<!-- Node10&#45;&gt;Node11 -->
<g id="edge1" class="edge">
<title>Node10&#45;&gt;Node11</title>
<path fill="none" stroke="#191970" d="M96.2803,-193C105.0206,-193 113.8421,-193 121.883,-193"/>
<polygon fill="#191970" stroke="#191970" points="96.1088,-189.5001 86.1088,-193 96.1088,-196.5001 96.1088,-189.5001"/>
</g>
<!-- Node12 -->
<g id="node3" class="node">
<title>Node12</title>
<g id="a_node3"><a xlink:href="class_c_block_header.html#af0239f86a13f622a826e9eea66b2d7f3" target="_top" xlink:title="CBlockHeader::GetHash">
<polygon fill="#ffffff" stroke="#000000" points="223,-183.5 223,-202.5 348,-202.5 348,-183.5 223,-183.5"/>
<text text-anchor="middle" x="285.5" y="-190.5" font-family="Helvetica,sans-Serif" font-size="10.00" fill="#000000">CBlockHeader::GetHash</text>
</a>
</g>
</g>
<!-- Node11&#45;&gt;Node12 -->
<g id="edge2" class="edge">
<title>Node11&#45;&gt;Node12</title>
<path fill="none" stroke="#191970" d="M197.2515,-193C205.4365,-193 214.1627,-193 222.8229,-193"/>
<polygon fill="#191970" stroke="#191970" points="197.2189,-189.5001 187.2189,-193 197.2189,-196.5001 197.2189,-189.5001"/>
</g>
<!-- Node13 -->
<g id="node4" class="node">
<title>Node13</title>
<g id="a_node4"><a xlink:href="class_partially_downloaded_block.html#ae31ee4302e77d9757aae8b96df99486a" target="_top" xlink:title="PartiallyDownloadedBlock\l::FillBlock">
<polygon fill="#ffffff" stroke="#000000" points="583,-331 583,-361 714,-361 714,-331 583,-331"/>
<text text-anchor="start" x="591" y="-349" font-family="Helvetica,sans-Serif" font-size="10.00" fill="#000000">PartiallyDownloadedBlock</text>
<text text-anchor="middle" x="648.5" y="-338" font-family="Helvetica,sans-Serif" font-size="10.00" fill="#000000">::FillBlock</text>
</a>
</g>
</g>
<!-- Node12&#45;&gt;Node13 -->
<g id="edge3" class="edge">
<title>Node12&#45;&gt;Node13</title>
<path fill="none" stroke="#191970" d="M290.4644,-212.6654C300.8084,-248.9471 328.4651,-325.5731 384,-357 453.1988,-396.1592 549.663,-377.3688 604.94,-361.0681"/>
<polygon fill="#191970" stroke="#191970" points="293.7851,-211.5368 287.7983,-202.7955 287.0273,-213.3623 293.7851,-211.5368"/>
</g>
<!-- Node14 -->
<g id="node5" class="node">
<title>Node14</title>
<g id="a_node5"><a xlink:href="class_c_disk_block_index.html#acc607a9082c558d7301077631b66122b" target="_top" xlink:title="CDiskBlockIndex::GetBlockHash">
<polygon fill="#ffffff" stroke="#000000" points="384,-328.5 384,-347.5 547,-347.5 547,-328.5 384,-328.5"/>
<text text-anchor="middle" x="465.5" y="-335.5" font-family="Helvetica,sans-Serif" font-size="10.00" fill="#000000">CDiskBlockIndex::GetBlockHash</text>
</a>
</g>
</g>
<!-- Node12&#45;&gt;Node14 -->
<g id="edge4" class="edge">
<title>Node12&#45;&gt;Node14</title>
<path fill="none" stroke="#191970" d="M294.8322,-211.8258C309.6991,-239.7747 341.4784,-291.8551 384,-319 390.1231,-322.9088 396.9633,-326.0156 404.007,-328.4844"/>
<polygon fill="#191970" stroke="#191970" points="297.826,-209.9949 290.1316,-202.7116 291.6047,-213.2035 297.826,-209.9949"/>
</g>
<!-- Node15 -->
<g id="node6" class="node">
<title>Node15</title>
<g id="a_node6"><a xlink:href="class_peer_logic_validation.html#a124965d7310e0df08cc027d4e1cbbe7b" target="_top" xlink:title="Notifies listeners of a block validation result. ">
<polygon fill="#ffffff" stroke="#000000" points="414,-279 414,-309 517,-309 517,-279 414,-279"/>
<text text-anchor="start" x="422" y="-297" font-family="Helvetica,sans-Serif" font-size="10.00" fill="#000000">PeerLogicValidation</text>
<text text-anchor="middle" x="465.5" y="-286" font-family="Helvetica,sans-Serif" font-size="10.00" fill="#000000">::BlockChecked</text>
</a>
</g>
</g>
<!-- Node12&#45;&gt;Node15 -->
<g id="edge5" class="edge">
<title>Node12&#45;&gt;Node15</title>
<path fill="none" stroke="#191970" d="M302.709,-209.431C321.3878,-226.4697 352.7499,-252.8339 384,-269 393.3331,-273.8281 403.7582,-277.9012 413.9517,-281.2665"/>
<polygon fill="#191970" stroke="#191970" points="305.0007,-206.7827 295.2913,-202.5426 300.2373,-211.9121 305.0007,-206.7827"/>
</g>
<!-- Node16 -->
<g id="node7" class="node">
<title>Node16</title>
<g id="a_node7"><a xlink:href="class_c_block.html#a0e8a98f10831c00ae76b3a831c4804e5" target="_top" xlink:title="CBlock::ToString">
<polygon fill="#ffffff" stroke="#000000" points="419.5,-240.5 419.5,-259.5 511.5,-259.5 511.5,-240.5 419.5,-240.5"/>
<text text-anchor="middle" x="465.5" y="-247.5" font-family="Helvetica,sans-Serif" font-size="10.00" fill="#000000">CBlock::ToString</text>
</a>
</g>
</g>
<!-- Node12&#45;&gt;Node16 -->
<g id="edge6" class="edge">
<title>Node12&#45;&gt;Node16</title>
<path fill="none" stroke="#191970" d="M317.2941,-206.562C336.3986,-214.384 361.3252,-224.0202 384,-231 395.3863,-234.5049 407.8402,-237.7139 419.5095,-240.457"/>
<polygon fill="#191970" stroke="#191970" points="318.4553,-203.2547 307.8771,-202.6607 315.7761,-209.7217 318.4553,-203.2547"/>
</g>
<!-- Node17 -->
<g id="node8" class="node">
<title>Node17</title>
<g id="a_node8"><a xlink:href="class_c_block_header.html#afb875dba7ce6e26c01509244e3cd950f" target="_top" xlink:title="CBlockHeader::IsNull">
<polygon fill="#ffffff" stroke="#000000" points="409.5,-202.5 409.5,-221.5 521.5,-221.5 521.5,-202.5 409.5,-202.5"/>
<text text-anchor="middle" x="465.5" y="-209.5" font-family="Helvetica,sans-Serif" font-size="10.00" fill="#000000">CBlockHeader::IsNull</text>
</a>
</g>
</g>
<!-- Node12&#45;&gt;Node17 -->
<g id="edge7" class="edge">
<title>Node12&#45;&gt;Node17</title>
<path fill="none" stroke="#191970" d="M358.6081,-200.717C375.5274,-202.5029 393.2728,-204.376 409.3354,-206.0715"/>
<polygon fill="#191970" stroke="#191970" points="358.5148,-197.1878 348.2026,-199.6186 357.7799,-204.1491 358.5148,-197.1878"/>
</g>
<!-- Node20 -->
<g id="node11" class="node">
<title>Node20</title>
<g id="a_node11"><a xlink:href="mining_8h.html#a4910d289954727eb7c4c24a6b3c50c55" target="_top" xlink:title="Generate blocks (mine) ">
<polygon fill="#ffffff" stroke="#000000" points="423.5,-164.5 423.5,-183.5 507.5,-183.5 507.5,-164.5 423.5,-164.5"/>
<text text-anchor="middle" x="465.5" y="-171.5" font-family="Helvetica,sans-Serif" font-size="10.00" fill="#000000">generateBlocks</text>
</a>
</g>
</g>
<!-- Node12&#45;&gt;Node20 -->
<g id="edge11" class="edge">
<title>Node12&#45;&gt;Node20</title>
<path fill="none" stroke="#191970" d="M358.249,-185.3209C380.3803,-182.9849 403.9575,-180.4962 423.3535,-178.4488"/>
<polygon fill="#191970" stroke="#191970" points="357.7799,-181.8509 348.2026,-186.3814 358.5148,-188.8122 357.7799,-181.8509"/>
</g>
<!-- Node23 -->
<g id="node14" class="node">
<title>Node23</title>
<g id="a_node14"><a xlink:href="mining_8cpp.html#a39d592ef311818f32e6081ec6be2f462" target="_top" xlink:title="getblocktemplate">
<polygon fill="#ffffff" stroke="#000000" points="420,-126.5 420,-145.5 511,-145.5 511,-126.5 420,-126.5"/>
<text text-anchor="middle" x="465.5" y="-133.5" font-family="Helvetica,sans-Serif" font-size="10.00" fill="#000000">getblocktemplate</text>
</a>
</g>
</g>
<!-- Node12&#45;&gt;Node23 -->
<g id="edge14" class="edge">
<title>Node12&#45;&gt;Node23</title>
<path fill="none" stroke="#191970" d="M317.2941,-179.438C336.3986,-171.616 361.3252,-161.9798 384,-155 395.5252,-151.4523 408.1441,-148.2078 419.936,-145.4429"/>
<polygon fill="#191970" stroke="#191970" points="315.7761,-176.2783 307.8771,-183.3393 318.4553,-182.7453 315.7761,-176.2783"/>
</g>
<!-- Node24 -->
<g id="node15" class="node">
<title>Node24</title>
<g id="a_node15"><a xlink:href="classsubmitblock___state_catcher.html#a89abec4d0d8ea6b2cd651439e3a4f45f" target="_top" xlink:title="Notifies listeners of a block validation result. ">
<polygon fill="#ffffff" stroke="#000000" points="399.5,-77 399.5,-107 531.5,-107 531.5,-77 399.5,-77"/>
<text text-anchor="start" x="407.5" y="-95" font-family="Helvetica,sans-Serif" font-size="10.00" fill="#000000">submitblock_StateCatcher</text>
<text text-anchor="middle" x="465.5" y="-84" font-family="Helvetica,sans-Serif" font-size="10.00" fill="#000000">::BlockChecked</text>
</a>
</g>
</g>
<!-- Node12&#45;&gt;Node24 -->
<g id="edge15" class="edge">
<title>Node12&#45;&gt;Node24</title>
<path fill="none" stroke="#191970" d="M302.709,-176.569C321.3878,-159.5303 352.7499,-133.1661 384,-117 391.2299,-113.2599 399.1151,-109.9729 407.0402,-107.117"/>
<polygon fill="#191970" stroke="#191970" points="300.2373,-174.0879 295.2913,-183.4574 305.0007,-179.2173 300.2373,-174.0879"/>
</g>
<!-- Node25 -->
<g id="node16" class="node">
<title>Node25</title>
<g id="a_node16"><a xlink:href="validation_8h.html#aee79e45a0b167f9b312f83a23880cfbc" target="_top" xlink:title="ReadBlockFromDisk">
<polygon fill="#ffffff" stroke="#000000" points="412,-38.5 412,-57.5 519,-57.5 519,-38.5 412,-38.5"/>
<text text-anchor="middle" x="465.5" y="-45.5" font-family="Helvetica,sans-Serif" font-size="10.00" fill="#000000">ReadBlockFromDisk</text>
</a>
</g>
</g>
<!-- Node12&#45;&gt;Node25 -->
<g id="edge16" class="edge">
<title>Node12&#45;&gt;Node25</title>
<path fill="none" stroke="#191970" d="M294.9116,-174.3856C309.8814,-146.739 341.7923,-95.1748 384,-68 392.3298,-62.6369 401.9848,-58.7119 411.6732,-55.8393"/>
<polygon fill="#191970" stroke="#191970" points="291.7284,-172.9192 290.1752,-183.3996 297.925,-176.1753 291.7284,-172.9192"/>
</g>
<!-- Node26 -->
<g id="node17" class="node">
<title>Node26</title>
<g id="a_node17"><a xlink:href="validation_8h.html#a0c24c7dfe29eb0ea62f868e79f818493" target="_top" xlink:title="Ensures we have a genesis block in the block tree, possibly writing one to disk. ">
<polygon fill="#ffffff" stroke="#000000" points="416.5,-.5 416.5,-19.5 514.5,-19.5 514.5,-.5 416.5,-.5"/>
<text text-anchor="middle" x="465.5" y="-7.5" font-family="Helvetica,sans-Serif" font-size="10.00" fill="#000000">LoadGenesisBlock</text>
</a>
</g>
</g>
<!-- Node12&#45;&gt;Node26 -->
<g id="edge17" class="edge">
<title>Node12&#45;&gt;Node26</title>
<path fill="none" stroke="#191970" d="M291.5203,-173.5433C303.3176,-138.7949 332.8846,-66.2286 384,-29 393.3952,-22.1572 404.8774,-17.7357 416.2247,-14.8904"/>
<polygon fill="#191970" stroke="#191970" points="288.0778,-172.8114 288.3096,-183.4037 294.7339,-174.9787 288.0778,-172.8114"/>
</g>
<!-- Node17&#45;&gt;Node13 -->
<g id="edge10" class="edge">
<title>Node17&#45;&gt;Node13</title>
<path fill="none" stroke="#191970" d="M531.1555,-222.3481C536.7789,-224.6814 542.1594,-227.5284 547,-231 571.6545,-248.6819 563.3369,-265.8946 583,-289 596.4822,-304.8425 614.4625,-320.1683 628.1735,-330.9309"/>
<polygon fill="#191970" stroke="#191970" points="532.1094,-218.9719 521.5149,-218.8865 529.7438,-225.56 532.1094,-218.9719"/>
</g>
<!-- Node18 -->
<g id="node9" class="node">
<title>Node18</title>
<g id="a_node9"><a xlink:href="class_partially_downloaded_block.html#a04e1b3207e547c972e002c1ec472da1f" target="_top" xlink:title="PartiallyDownloadedBlock\l::InitData">
<polygon fill="#ffffff" stroke="#000000" points="583,-249 583,-279 714,-279 714,-249 583,-249"/>
<text text-anchor="start" x="591" y="-267" font-family="Helvetica,sans-Serif" font-size="10.00" fill="#000000">PartiallyDownloadedBlock</text>
<text text-anchor="middle" x="648.5" y="-256" font-family="Helvetica,sans-Serif" font-size="10.00" fill="#000000">::InitData</text>
</a>
</g>
</g>
<!-- Node17&#45;&gt;Node18 -->
<g id="edge8" class="edge">
<title>Node17&#45;&gt;Node18</title>
<path fill="none" stroke="#191970" d="M519.5189,-223.9095C528.7226,-226.1337 538.1608,-228.5376 547,-231 566.1885,-236.3455 587.1596,-243.0207 605.0326,-248.9662"/>
<polygon fill="#191970" stroke="#191970" points="520.2013,-220.4743 509.6635,-221.5721 518.5859,-227.2853 520.2013,-220.4743"/>
</g>
<!-- Node19 -->
<g id="node10" class="node">
<title>Node19</title>
<g id="a_node10"><a xlink:href="class_partially_downloaded_block.html#ad8f41f80c9aba45402fc1033a478a97b" target="_top" xlink:title="PartiallyDownloadedBlock\l::IsTxAvailable">
<polygon fill="#ffffff" stroke="#000000" points="583,-200 583,-230 714,-230 714,-200 583,-200"/>
<text text-anchor="start" x="591" y="-218" font-family="Helvetica,sans-Serif" font-size="10.00" fill="#000000">PartiallyDownloadedBlock</text>
<text text-anchor="middle" x="648.5" y="-207" font-family="Helvetica,sans-Serif" font-size="10.00" fill="#000000">::IsTxAvailable</text>
</a>
</g>
</g>
<!-- Node17&#45;&gt;Node19 -->
<g id="edge9" class="edge">
<title>Node17&#45;&gt;Node19</title>
<path fill="none" stroke="#191970" d="M532.0595,-213.0911C548.6582,-213.3632 566.4424,-213.6548 582.99,-213.9261"/>
<polygon fill="#191970" stroke="#191970" points="531.9553,-209.5891 521.8993,-212.9246 531.8405,-216.5881 531.9553,-209.5891"/>
</g>
<!-- Node21 -->
<g id="node12" class="node">
<title>Node21</title>
<g id="a_node12"><a xlink:href="mining_8cpp.html#a16cf276c50111f451fdbd5dfbe3c8a6b" target="_top" xlink:title="generatetoaddress">
<polygon fill="#ffffff" stroke="#000000" points="600,-161.5 600,-180.5 697,-180.5 697,-161.5 600,-161.5"/>
<text text-anchor="middle" x="648.5" y="-168.5" font-family="Helvetica,sans-Serif" font-size="10.00" fill="#000000">generatetoaddress</text>
</a>
</g>
</g>
<!-- Node20&#45;&gt;Node21 -->
<g id="edge12" class="edge">
<title>Node20&#45;&gt;Node21</title>
<path fill="none" stroke="#191970" d="M518.2571,-173.1351C543.9649,-172.7137 574.6771,-172.2102 599.8198,-171.798"/>
<polygon fill="#191970" stroke="#191970" points="517.8851,-169.6407 507.9438,-173.3042 517.9999,-176.6397 517.8851,-169.6407"/>
</g>
<!-- Node22 -->
<g id="node13" class="node">
<title>Node22</title>
<g id="a_node13"><a xlink:href="rpcwallet_8cpp.html#a236a42206aa464fbb10bae6e6243092b" target="_top" xlink:title="generate">
<polygon fill="#ffffff" stroke="#000000" points="621.5,-123.5 621.5,-142.5 675.5,-142.5 675.5,-123.5 621.5,-123.5"/>
<text text-anchor="middle" x="648.5" y="-130.5" font-family="Helvetica,sans-Serif" font-size="10.00" fill="#000000">generate</text>
</a>
</g>
</g>
<!-- Node20&#45;&gt;Node22 -->
<g id="edge13" class="edge">
<title>Node20&#45;&gt;Node22</title>
<path fill="none" stroke="#191970" d="M518.1042,-162.2144C551.8243,-154.6596 594.2039,-145.1647 621.3253,-139.0883"/>
<polygon fill="#191970" stroke="#191970" points="516.9367,-158.8891 507.9438,-164.4907 518.4672,-165.7197 516.9367,-158.8891"/>
</g>
<!-- Node27 -->
<g id="node18" class="node">
<title>Node27</title>
<g id="a_node18"><a xlink:href="init_8cpp.html#a2dd42c68a25e6632cdb9c7b03aed8503" target="_top" xlink:title="ThreadImport">
<polygon fill="#ffffff" stroke="#000000" points="611.5,-.5 611.5,-19.5 685.5,-19.5 685.5,-.5 611.5,-.5"/>
<text text-anchor="middle" x="648.5" y="-7.5" font-family="Helvetica,sans-Serif" font-size="10.00" fill="#000000">ThreadImport</text>
</a>
</g>
</g>
<!-- Node26&#45;&gt;Node27 -->
<g id="edge18" class="edge">
<title>Node26&#45;&gt;Node27</title>
<path fill="none" stroke="#191970" d="M524.7747,-10C553.2029,-10 586.3891,-10 611.2311,-10"/>
<polygon fill="#191970" stroke="#191970" points="524.5407,-6.5001 514.5406,-10 524.5406,-13.5001 524.5407,-6.5001"/>
</g>
</g>
</svg>
