<?xml version="1.0" encoding="UTF-8" standalone="no"?>
<!DOCTYPE svg PUBLIC "-//W3C//DTD SVG 1.1//EN"
 "http://www.w3.org/Graphics/SVG/1.1/DTD/svg11.dtd">
<!-- Generated by graphviz version 2.40.1 (20161225.0304)
 -->
<!-- Title: CSubNet::Match Pages: 1 -->
<svg width="993pt" height="110pt"
 viewBox="0.00 0.00 993.00 109.50" xmlns="http://www.w3.org/2000/svg" xmlns:xlink="http://www.w3.org/1999/xlink">
<g id="graph0" class="graph" transform="scale(1 1) rotate(0) translate(4 105.5)">
<title>CSubNet::Match</title>
<polygon fill="#ffffff" stroke="transparent" points="-4,4 -4,-105.5 989,-105.5 989,4 -4,4"/>
<!-- Node23 -->
<g id="node1" class="node">
<title>Node23</title>
<polygon fill="#bfbfbf" stroke="#000000" points="0,-63 0,-82 90,-82 90,-63 0,-63"/>
<text text-anchor="middle" x="45" y="-70" font-family="Helvetica,sans-Serif" font-size="10.00" fill="#000000">CSubNet::Match</text>
</g>
<!-- Node24 -->
<g id="node2" class="node">
<title>Node24</title>
<g id="a_node2"><a xlink:href="class_c_connman.html#afe1269cf57a859dfc0869c8b5f417ea9" target="_top" xlink:title="CConnman::FindNode">
<polygon fill="#ffffff" stroke="#000000" points="126,-82 126,-101 240,-101 240,-82 126,-82"/>
<text text-anchor="middle" x="183" y="-89" font-family="Helvetica,sans-Serif" font-size="10.00" fill="#000000">CConnman::FindNode</text>
</a>
</g>
</g>
<!-- Node23&#45;&gt;Node24 -->
<g id="edge1" class="edge">
<title>Node23&#45;&gt;Node24</title>
<path fill="none" stroke="#191970" d="M100.2118,-80.1016C108.574,-81.2529 117.2178,-82.443 125.6246,-83.6005"/>
<polygon fill="#191970" stroke="#191970" points="100.5703,-76.618 90.1864,-78.7213 99.6155,-83.5526 100.5703,-76.618"/>
</g>
<!-- Node25 -->
<g id="node3" class="node">
<title>Node25</title>
<g id="a_node3"><a xlink:href="class_c_connman.html#aa014a4c7bbfc843aa4fff786a2aa8c96" target="_top" xlink:title="CConnman::IsBanned">
<polygon fill="#ffffff" stroke="#000000" points="126.5,-44 126.5,-63 239.5,-63 239.5,-44 126.5,-44"/>
<text text-anchor="middle" x="183" y="-51" font-family="Helvetica,sans-Serif" font-size="10.00" fill="#000000">CConnman::IsBanned</text>
</a>
</g>
</g>
<!-- Node23&#45;&gt;Node25 -->
<g id="edge2" class="edge">
<title>Node23&#45;&gt;Node25</title>
<path fill="none" stroke="#191970" d="M100.3535,-64.8789C108.835,-63.7111 117.603,-62.5039 126.117,-61.3317"/>
<polygon fill="#191970" stroke="#191970" points="99.6155,-61.4474 90.1864,-66.2787 100.5703,-68.382 99.6155,-61.4474"/>
</g>
<!-- Node26 -->
<g id="node4" class="node">
<title>Node26</title>
<g id="a_node4"><a xlink:href="class_c_connman.html#a3bd6aed18096f954c24c80b32c876da5" target="_top" xlink:title="CConnman::OpenNetworkConnection">
<polygon fill="#ffffff" stroke="#000000" points="276,-44 276,-63 458,-63 458,-44 276,-44"/>
<text text-anchor="middle" x="367" y="-51" font-family="Helvetica,sans-Serif" font-size="10.00" fill="#000000">CConnman::OpenNetworkConnection</text>
</a>
</g>
</g>
<!-- Node25&#45;&gt;Node26 -->
<g id="edge3" class="edge">
<title>Node25&#45;&gt;Node26</title>
<path fill="none" stroke="#191970" d="M249.8847,-53.5C258.3713,-53.5 267.1668,-53.5 275.9507,-53.5"/>
<polygon fill="#191970" stroke="#191970" points="249.7075,-50.0001 239.7074,-53.5 249.7074,-57.0001 249.7075,-50.0001"/>
</g>
<!-- Node27 -->
<g id="node5" class="node">
<title>Node27</title>
<g id="a_node5"><a xlink:href="class_c_connman.html#a161f1b41271db1a10cec61a825524b5d" target="_top" xlink:title="CConnman::ProcessOneShot">
<polygon fill="#ffffff" stroke="#000000" points="494,-82 494,-101 640,-101 640,-82 494,-82"/>
<text text-anchor="middle" x="567" y="-89" font-family="Helvetica,sans-Serif" font-size="10.00" fill="#000000">CConnman::ProcessOneShot</text>
</a>
</g>
</g>
<!-- Node26&#45;&gt;Node27 -->
<g id="edge4" class="edge">
<title>Node26&#45;&gt;Node27</title>
<path fill="none" stroke="#191970" d="M427.0954,-64.9181C455.7118,-70.3552 489.5434,-76.7832 516.7691,-81.9561"/>
<polygon fill="#191970" stroke="#191970" points="427.6879,-61.4682 417.2103,-63.04 426.3812,-68.3451 427.6879,-61.4682"/>
</g>
<!-- Node28 -->
<g id="node6" class="node">
<title>Node28</title>
<g id="a_node6"><a xlink:href="class_c_connman.html#ac4c8cf5142f88565e789f3b173d89b3e" target="_top" xlink:title="CConnman::ThreadOpenConnections">
<polygon fill="#ffffff" stroke="#000000" points="676,-50 676,-69 856,-69 856,-50 676,-50"/>
<text text-anchor="middle" x="766" y="-57" font-family="Helvetica,sans-Serif" font-size="10.00" fill="#000000">CConnman::ThreadOpenConnections</text>
</a>
</g>
</g>
<!-- Node26&#45;&gt;Node28 -->
<g id="edge7" class="edge">
<title>Node26&#45;&gt;Node28</title>
<path fill="none" stroke="#191970" d="M468.1382,-55.0209C532.0644,-55.9822 613.9619,-57.2137 675.6969,-58.1421"/>
<polygon fill="#191970" stroke="#191970" points="468.0901,-51.5199 458.0385,-54.869 467.9847,-58.5191 468.0901,-51.5199"/>
</g>
<!-- Node30 -->
<g id="node8" class="node">
<title>Node30</title>
<g id="a_node8"><a xlink:href="class_c_connman.html#a0b787caf95e52a346a2b31a580d60a62" target="_top" xlink:title="CConnman::ThreadOpenAdded\lConnections">
<polygon fill="#ffffff" stroke="#000000" points="689.5,-.5 689.5,-30.5 842.5,-30.5 842.5,-.5 689.5,-.5"/>
<text text-anchor="start" x="697.5" y="-18.5" font-family="Helvetica,sans-Serif" font-size="10.00" fill="#000000">CConnman::ThreadOpenAdded</text>
<text text-anchor="middle" x="766" y="-7.5" font-family="Helvetica,sans-Serif" font-size="10.00" fill="#000000">Connections</text>
</a>
</g>
</g>
<!-- Node26&#45;&gt;Node30 -->
<g id="edge8" class="edge">
<title>Node26&#45;&gt;Node30</title>
<path fill="none" stroke="#191970" d="M468.0338,-43.8777C536.8436,-37.3244 626.5121,-28.7846 689.4377,-22.7916"/>
<polygon fill="#191970" stroke="#191970" points="467.6616,-40.3972 458.0385,-44.8297 468.3254,-47.3657 467.6616,-40.3972"/>
</g>
<!-- Node27&#45;&gt;Node28 -->
<g id="edge5" class="edge">
<title>Node27&#45;&gt;Node28</title>
<path fill="none" stroke="#191970" d="M636.1967,-80.3729C659.1807,-76.677 684.5496,-72.5976 706.7166,-69.033"/>
<polygon fill="#191970" stroke="#191970" points="635.4852,-76.9422 626.1678,-81.9856 636.5966,-83.8535 635.4852,-76.9422"/>
</g>
<!-- Node29 -->
<g id="node7" class="node">
<title>Node29</title>
<g id="a_node7"><a xlink:href="class_c_connman.html#aa4709e5604e0f4369dada0a211493565" target="_top" xlink:title="CConnman::Start">
<polygon fill="#ffffff" stroke="#000000" points="892,-28 892,-47 985,-47 985,-28 892,-28"/>
<text text-anchor="middle" x="938.5" y="-35" font-family="Helvetica,sans-Serif" font-size="10.00" fill="#000000">CConnman::Start</text>
</a>
</g>
</g>
<!-- Node28&#45;&gt;Node29 -->
<g id="edge6" class="edge">
<title>Node28&#45;&gt;Node29</title>
<path fill="none" stroke="#191970" d="M850.846,-48.6791C864.8791,-46.8893 878.9617,-45.0933 891.6075,-43.4805"/>
<polygon fill="#191970" stroke="#191970" points="850.1346,-45.2414 840.6577,-49.9784 851.0202,-52.1851 850.1346,-45.2414"/>
</g>
<!-- Node30&#45;&gt;Node29 -->
<g id="edge9" class="edge">
<title>Node30&#45;&gt;Node29</title>
<path fill="none" stroke="#191970" d="M852.9033,-26.5833C866.3137,-28.2936 879.7031,-30.0013 891.7746,-31.5408"/>
<polygon fill="#191970" stroke="#191970" points="853.0281,-23.071 842.6656,-25.2776 852.1424,-30.0147 853.0281,-23.071"/>
</g>
</g>
</svg>
