<?xml version="1.0" encoding="UTF-8" standalone="no"?>
<!DOCTYPE svg PUBLIC "-//W3C//DTD SVG 1.1//EN"
 "http://www.w3.org/Graphics/SVG/1.1/DTD/svg11.dtd">
<!-- Generated by graphviz version 2.40.1 (20161225.0304)
 -->
<!-- Title: CRPCTable::appendCommand Pages: 1 -->
<svg width="537pt" height="322pt"
 viewBox="0.00 0.00 537.00 321.50" xmlns="http://www.w3.org/2000/svg" xmlns:xlink="http://www.w3.org/1999/xlink">
<g id="graph0" class="graph" transform="scale(1 1) rotate(0) translate(4 317.5)">
<title>CRPCTable::appendCommand</title>
<polygon fill="#ffffff" stroke="transparent" points="-4,4 -4,-317.5 533,-317.5 533,4 -4,4"/>
<!-- Node4 -->
<g id="node1" class="node">
<title>Node4</title>
<polygon fill="#bfbfbf" stroke="#000000" points="0,-161 0,-180 152,-180 152,-161 0,-161"/>
<text text-anchor="middle" x="76" y="-168" font-family="Helvetica,sans-Serif" font-size="10.00" fill="#000000">CRPCTable::appendCommand</text>
</g>
<!-- Node5 -->
<g id="node2" class="node">
<title>Node5</title>
<g id="a_node2"><a xlink:href="register_8h.html#ac4c2115f40dd3718bd4de2558966a547" target="_top" xlink:title="Register asset RPC commands. ">
<polygon fill="#ffffff" stroke="#000000" points="211,-294 211,-313 362,-313 362,-294 211,-294"/>
<text text-anchor="middle" x="286.5" y="-301" font-family="Helvetica,sans-Serif" font-size="10.00" fill="#000000">RegisterAssetRPCCommands</text>
</a>
</g>
</g>
<!-- Node4&#45;&gt;Node5 -->
<g id="edge1" class="edge">
<title>Node4&#45;&gt;Node5</title>
<path fill="none" stroke="#191970" d="M88.1451,-188.4742C106.538,-214.1708 144.0145,-260.9029 188,-284.5 195.2131,-288.3696 203.0977,-291.4588 211.1641,-293.9237"/>
<polygon fill="#191970" stroke="#191970" points="90.8506,-186.2353 82.2554,-180.0406 85.1115,-190.2432 90.8506,-186.2353"/>
</g>
<!-- Node6 -->
<g id="node3" class="node">
<title>Node6</title>
<g id="a_node3"><a xlink:href="register_8h.html#a481bc6668e53ca1299d5aa859e7b5b34" target="_top" xlink:title="Register message RPC commands. ">
<polygon fill="#ffffff" stroke="#000000" points="204,-256 204,-275 369,-275 369,-256 204,-256"/>
<text text-anchor="middle" x="286.5" y="-263" font-family="Helvetica,sans-Serif" font-size="10.00" fill="#000000">RegisterMessageRPCCommands</text>
</a>
</g>
</g>
<!-- Node4&#45;&gt;Node6 -->
<g id="edge2" class="edge">
<title>Node4&#45;&gt;Node6</title>
<path fill="none" stroke="#191970" d="M94.7298,-186.774C115.9107,-204.2847 152.138,-231.617 188,-246.5 197.4101,-250.4053 207.6632,-253.5179 217.8824,-255.9962"/>
<polygon fill="#191970" stroke="#191970" points="96.7749,-183.9204 86.8722,-180.1539 92.2646,-189.2738 96.7749,-183.9204"/>
</g>
<!-- Node7 -->
<g id="node4" class="node">
<title>Node7</title>
<g id="a_node4"><a xlink:href="register_8h.html#a5b7bac0667b9df38563ba1d49f3a9abf" target="_top" xlink:title="Register P2P networking RPC commands. ">
<polygon fill="#ffffff" stroke="#000000" points="216,-218 216,-237 357,-237 357,-218 216,-218"/>
<text text-anchor="middle" x="286.5" y="-225" font-family="Helvetica,sans-Serif" font-size="10.00" fill="#000000">RegisterNetRPCCommands</text>
</a>
</g>
</g>
<!-- Node4&#45;&gt;Node7 -->
<g id="edge3" class="edge">
<title>Node4&#45;&gt;Node7</title>
<path fill="none" stroke="#191970" d="M110.5963,-183.6043C132.5422,-191.5748 161.6641,-201.5272 188,-208.5 201.4687,-212.066 216.1385,-215.2587 229.9436,-217.9632"/>
<polygon fill="#191970" stroke="#191970" points="111.6474,-180.2618 101.0538,-180.0995 109.234,-186.8326 111.6474,-180.2618"/>
</g>
<!-- Node8 -->
<g id="node5" class="node">
<title>Node8</title>
<g id="a_node5"><a xlink:href="register_8h.html#ad50a286df6fff3f4b77e1f9c955f4c04" target="_top" xlink:title="Register block chain RPC commands. ">
<polygon fill="#ffffff" stroke="#000000" points="200,-180 200,-199 373,-199 373,-180 200,-180"/>
<text text-anchor="middle" x="286.5" y="-187" font-family="Helvetica,sans-Serif" font-size="10.00" fill="#000000">RegisterBlockchainRPCCommands</text>
</a>
</g>
</g>
<!-- Node4&#45;&gt;Node8 -->
<g id="edge4" class="edge">
<title>Node4&#45;&gt;Node8</title>
<path fill="none" stroke="#191970" d="M162.5216,-178.3095C174.8154,-179.4192 187.4615,-180.5607 199.7595,-181.6707"/>
<polygon fill="#191970" stroke="#191970" points="162.5671,-174.7995 152.293,-177.3863 161.9378,-181.7712 162.5671,-174.7995"/>
</g>
<!-- Node9 -->
<g id="node6" class="node">
<title>Node9</title>
<g id="a_node6"><a xlink:href="register_8h.html#a3c99c0ecc7c5445eeb4594b8dfa280f5" target="_top" xlink:title="Register mining RPC commands. ">
<polygon fill="#ffffff" stroke="#000000" points="209.5,-142 209.5,-161 363.5,-161 363.5,-142 209.5,-142"/>
<text text-anchor="middle" x="286.5" y="-149" font-family="Helvetica,sans-Serif" font-size="10.00" fill="#000000">RegisterMiningRPCCommands</text>
</a>
</g>
</g>
<!-- Node4&#45;&gt;Node9 -->
<g id="edge5" class="edge">
<title>Node4&#45;&gt;Node9</title>
<path fill="none" stroke="#191970" d="M162.4258,-162.6991C177.9926,-161.294 194.1272,-159.8377 209.4073,-158.4585"/>
<polygon fill="#191970" stroke="#191970" points="161.9378,-159.2288 152.293,-163.6137 162.5671,-166.2005 161.9378,-159.2288"/>
</g>
<!-- Node10 -->
<g id="node7" class="node">
<title>Node10</title>
<g id="a_node7"><a xlink:href="register_8h.html#a238de8509eaced9d0e9c2217f0be360a" target="_top" xlink:title="Register miscellaneous RPC commands. ">
<polygon fill="#ffffff" stroke="#000000" points="213.5,-104 213.5,-123 359.5,-123 359.5,-104 213.5,-104"/>
<text text-anchor="middle" x="286.5" y="-111" font-family="Helvetica,sans-Serif" font-size="10.00" fill="#000000">RegisterMiscRPCCommands</text>
</a>
</g>
</g>
<!-- Node4&#45;&gt;Node10 -->
<g id="edge6" class="edge">
<title>Node4&#45;&gt;Node10</title>
<path fill="none" stroke="#191970" d="M110.5963,-157.3957C132.5422,-149.4252 161.6641,-139.4728 188,-132.5 201.4687,-128.934 216.1385,-125.7413 229.9436,-123.0368"/>
<polygon fill="#191970" stroke="#191970" points="109.234,-154.1674 101.0538,-160.9005 111.6474,-160.7382 109.234,-154.1674"/>
</g>
<!-- Node11 -->
<g id="node8" class="node">
<title>Node11</title>
<g id="a_node8"><a xlink:href="register_8h.html#a235fcbaf85d249d082c21a78cec4e9a4" target="_top" xlink:title="Register raw transaction RPC commands. ">
<polygon fill="#ffffff" stroke="#000000" points="188,-66 188,-85 385,-85 385,-66 188,-66"/>
<text text-anchor="middle" x="286.5" y="-73" font-family="Helvetica,sans-Serif" font-size="10.00" fill="#000000">RegisterRawTransactionRPCCommands</text>
</a>
</g>
</g>
<!-- Node4&#45;&gt;Node11 -->
<g id="edge7" class="edge">
<title>Node4&#45;&gt;Node11</title>
<path fill="none" stroke="#191970" d="M94.7298,-154.226C115.9107,-136.7153 152.138,-109.383 188,-94.5 197.4101,-90.5947 207.6632,-87.4821 217.8824,-85.0038"/>
<polygon fill="#191970" stroke="#191970" points="92.2646,-151.7262 86.8722,-160.8461 96.7749,-157.0796 92.2646,-151.7262"/>
</g>
<!-- Node12 -->
<g id="node9" class="node">
<title>Node12</title>
<g id="a_node9"><a xlink:href="rpcwallet_8h.html#a9588923ef8339a1b820fcd61797639d5" target="_top" xlink:title="RegisterWalletRPCCommands">
<polygon fill="#ffffff" stroke="#000000" points="210,-28 210,-47 363,-47 363,-28 210,-28"/>
<text text-anchor="middle" x="286.5" y="-35" font-family="Helvetica,sans-Serif" font-size="10.00" fill="#000000">RegisterWalletRPCCommands</text>
</a>
</g>
</g>
<!-- Node4&#45;&gt;Node12 -->
<g id="edge8" class="edge">
<title>Node4&#45;&gt;Node12</title>
<path fill="none" stroke="#191970" d="M88.1451,-152.5258C106.538,-126.8292 144.0145,-80.0971 188,-56.5 195.2131,-52.6304 203.0977,-49.5412 211.1641,-47.0763"/>
<polygon fill="#191970" stroke="#191970" points="85.1115,-150.7568 82.2554,-160.9594 90.8506,-154.7647 85.1115,-150.7568"/>
</g>
<!-- Node13 -->
<g id="node10" class="node">
<title>Node13</title>
<g id="a_node10"><a xlink:href="wallet_2init_8h.html#a009a40b3964d9eda428fd77fb2c88c5c" target="_top" xlink:title="Register wallet RPCs. ">
<polygon fill="#ffffff" stroke="#000000" points="423.5,-50 423.5,-69 526.5,-69 526.5,-50 423.5,-50"/>
<text text-anchor="middle" x="475" y="-57" font-family="Helvetica,sans-Serif" font-size="10.00" fill="#000000">RegisterWalletRPC</text>
</a>
</g>
</g>
<!-- Node12&#45;&gt;Node13 -->
<g id="edge9" class="edge">
<title>Node12&#45;&gt;Node13</title>
<path fill="none" stroke="#191970" d="M373.2271,-47.622C390.4033,-49.6266 407.9148,-51.6704 423.4604,-53.4848"/>
<polygon fill="#191970" stroke="#191970" points="373.5085,-44.1312 363.1702,-46.4482 372.697,-51.084 373.5085,-44.1312"/>
</g>
<!-- Node14 -->
<g id="node11" class="node">
<title>Node14</title>
<g id="a_node11"><a xlink:href="struct_wallet_testing_setup.html#a0125ada997b4b16803624bfd537d8902" target="_top" xlink:title="WalletTestingSetup\l::WalletTestingSetup">
<polygon fill="#ffffff" stroke="#000000" points="421,-.5 421,-30.5 529,-30.5 529,-.5 421,-.5"/>
<text text-anchor="start" x="429" y="-18.5" font-family="Helvetica,sans-Serif" font-size="10.00" fill="#000000">WalletTestingSetup</text>
<text text-anchor="middle" x="475" y="-7.5" font-family="Helvetica,sans-Serif" font-size="10.00" fill="#000000">::WalletTestingSetup</text>
</a>
</g>
</g>
<!-- Node12&#45;&gt;Node14 -->
<g id="edge10" class="edge">
<title>Node12&#45;&gt;Node14</title>
<path fill="none" stroke="#191970" d="M373.2295,-27.3777C389.4757,-25.4816 406.0217,-23.5505 420.9203,-21.8117"/>
<polygon fill="#191970" stroke="#191970" points="372.697,-23.916 363.1702,-28.5518 373.5085,-30.8688 372.697,-23.916"/>
</g>
</g>
</svg>
