<?xml version="1.0" encoding="UTF-8" standalone="no"?>
<!DOCTYPE svg PUBLIC "-//W3C//DTD SVG 1.1//EN"
 "http://www.w3.org/Graphics/SVG/1.1/DTD/svg11.dtd">
<!-- Generated by graphviz version 2.40.1 (20161225.0304)
 -->
<!-- Title: CWalletDB::WriteMasterKey Pages: 1 -->
<svg width="554pt" height="66pt"
 viewBox="0.00 0.00 554.00 66.00" xmlns="http://www.w3.org/2000/svg" xmlns:xlink="http://www.w3.org/1999/xlink">
<g id="graph0" class="graph" transform="scale(1 1) rotate(0) translate(4 62)">
<title>CWalletDB::WriteMasterKey</title>
<polygon fill="#ffffff" stroke="transparent" points="-4,4 -4,-62 550,-62 550,4 -4,4"/>
<!-- Node348 -->
<g id="node1" class="node">
<title>Node348</title>
<polygon fill="#bfbfbf" stroke="#000000" points="0,-19.5 0,-38.5 143,-38.5 143,-19.5 0,-19.5"/>
<text text-anchor="middle" x="71.5" y="-26.5" font-family="Helvetica,sans-Serif" font-size="10.00" fill="#000000">CWalletDB::WriteMasterKey</text>
</g>
<!-- Node349 -->
<g id="node2" class="node">
<title>Node349</title>
<g id="a_node2"><a xlink:href="group__map_wallet.html#ga4abcec3066e7c462f4564c159fc15031" target="_top" xlink:title="CWallet::ChangeWalletPassphrase">
<polygon fill="#ffffff" stroke="#000000" points="179,-19.5 179,-38.5 350,-38.5 350,-19.5 179,-19.5"/>
<text text-anchor="middle" x="264.5" y="-26.5" font-family="Helvetica,sans-Serif" font-size="10.00" fill="#000000">CWallet::ChangeWalletPassphrase</text>
</a>
</g>
</g>
<!-- Node348&#45;&gt;Node349 -->
<g id="edge1" class="edge">
<title>Node348&#45;&gt;Node349</title>
<path fill="none" stroke="#191970" d="M153.3451,-29C161.8288,-29 170.4672,-29 178.9897,-29"/>
<polygon fill="#191970" stroke="#191970" points="153.0918,-25.5001 143.0918,-29 153.0918,-32.5001 153.0918,-25.5001"/>
</g>
<!-- Node350 -->
<g id="node3" class="node">
<title>Node350</title>
<g id="a_node3"><a xlink:href="class_wallet_model.html#a67ebff3f267b5c9973c0465184c085a4" target="_top" xlink:title="WalletModel::changePassphrase">
<polygon fill="#ffffff" stroke="#000000" points="386,-38.5 386,-57.5 546,-57.5 546,-38.5 386,-38.5"/>
<text text-anchor="middle" x="466" y="-45.5" font-family="Helvetica,sans-Serif" font-size="10.00" fill="#000000">WalletModel::changePassphrase</text>
</a>
</g>
</g>
<!-- Node349&#45;&gt;Node350 -->
<g id="edge2" class="edge">
<title>Node349&#45;&gt;Node350</title>
<path fill="none" stroke="#191970" d="M360.2397,-38.0276C368.784,-38.8332 377.3764,-39.6434 385.7704,-40.4349"/>
<polygon fill="#191970" stroke="#191970" points="360.5308,-34.5396 350.2463,-37.0853 359.8736,-41.5087 360.5308,-34.5396"/>
</g>
<!-- Node351 -->
<g id="node4" class="node">
<title>Node351</title>
<g id="a_node4"><a xlink:href="rpcwallet_8cpp.html#acc41d3c00924c9805c9ff98816f1ea80" target="_top" xlink:title="walletpassphrasechange">
<polygon fill="#ffffff" stroke="#000000" points="404,-.5 404,-19.5 528,-19.5 528,-.5 404,-.5"/>
<text text-anchor="middle" x="466" y="-7.5" font-family="Helvetica,sans-Serif" font-size="10.00" fill="#000000">walletpassphrasechange</text>
</a>
</g>
</g>
<!-- Node349&#45;&gt;Node351 -->
<g id="edge3" class="edge">
<title>Node349&#45;&gt;Node351</title>
<path fill="none" stroke="#191970" d="M360.422,-19.9552C375.1748,-18.5642 390.0659,-17.16 403.8261,-15.8625"/>
<polygon fill="#191970" stroke="#191970" points="359.8736,-16.4913 350.2463,-20.9147 360.5308,-23.4604 359.8736,-16.4913"/>
</g>
</g>
</svg>
