<?xml version="1.0" encoding="UTF-8" standalone="no"?>
<!DOCTYPE svg PUBLIC "-//W3C//DTD SVG 1.1//EN"
 "http://www.w3.org/Graphics/SVG/1.1/DTD/svg11.dtd">
<!-- Generated by graphviz version 2.40.1 (20161225.0304)
 -->
<!-- Title: AssetsDialog::assetControlChangeEdited Pages: 1 -->
<svg width="895pt" height="204pt"
 viewBox="0.00 0.00 895.00 203.50" xmlns="http://www.w3.org/2000/svg" xmlns:xlink="http://www.w3.org/1999/xlink">
<g id="graph0" class="graph" transform="scale(1 1) rotate(0) translate(4 199.5)">
<title>AssetsDialog::assetControlChangeEdited</title>
<polygon fill="#ffffff" stroke="transparent" points="-4,4 -4,-199.5 891,-199.5 891,4 -4,4"/>
<!-- Node701 -->
<g id="node1" class="node">
<title>Node701</title>
<polygon fill="#bfbfbf" stroke="#000000" points="0,-83 0,-113 137,-113 137,-83 0,-83"/>
<text text-anchor="start" x="8" y="-101" font-family="Helvetica,sans-Serif" font-size="10.00" fill="#000000">AssetsDialog::assetControl</text>
<text text-anchor="middle" x="68.5" y="-90" font-family="Helvetica,sans-Serif" font-size="10.00" fill="#000000">ChangeEdited</text>
</g>
<!-- Node702 -->
<g id="node2" class="node">
<title>Node702</title>
<g id="a_node2"><a xlink:href="class_wallet_model.html#a89ed202e2dbc04aaa70d72872b95b351" target="_top" xlink:title="WalletModel::getAddressTable\lModel">
<polygon fill="#ffffff" stroke="#000000" points="173,-165 173,-195 323,-195 323,-165 173,-165"/>
<text text-anchor="start" x="181" y="-183" font-family="Helvetica,sans-Serif" font-size="10.00" fill="#000000">WalletModel::getAddressTable</text>
<text text-anchor="middle" x="248" y="-172" font-family="Helvetica,sans-Serif" font-size="10.00" fill="#000000">Model</text>
</a>
</g>
</g>
<!-- Node701&#45;&gt;Node702 -->
<g id="edge1" class="edge">
<title>Node701&#45;&gt;Node702</title>
<path fill="none" stroke="#191970" d="M97.4756,-113.211C118.2828,-123.9383 147.1085,-138.4028 173,-150 181.3651,-153.7469 190.3476,-157.536 199.0869,-161.1016"/>
<polygon fill="#191970" stroke="#191970" points="197.8505,-164.3768 208.4338,-164.8703 200.4682,-157.8847 197.8505,-164.3768"/>
</g>
<!-- Node703 -->
<g id="node3" class="node">
<title>Node703</title>
<g id="a_node3"><a xlink:href="base58_8cpp.html#a8a781e21ad4ecccd9c97c7d890ef7d6f" target="_top" xlink:title="DecodeDestination">
<polygon fill="#ffffff" stroke="#000000" points="359,-91.5 359,-110.5 459,-110.5 459,-91.5 359,-91.5"/>
<text text-anchor="middle" x="409" y="-98.5" font-family="Helvetica,sans-Serif" font-size="10.00" fill="#000000">DecodeDestination</text>
</a>
</g>
</g>
<!-- Node701&#45;&gt;Node703 -->
<g id="edge2" class="edge">
<title>Node701&#45;&gt;Node703</title>
<path fill="none" stroke="#191970" d="M137.1187,-112.2891C149.0319,-114.2495 161.338,-115.9484 173,-117 239.3973,-122.987 256.6151,-123.1228 323,-117 333.8835,-115.9962 345.4446,-114.2923 356.442,-112.3612"/>
<polygon fill="#191970" stroke="#191970" points="357.1467,-115.7903 366.3477,-110.5374 355.8792,-108.906 357.1467,-115.7903"/>
</g>
<!-- Node710 -->
<g id="node10" class="node">
<title>Node710</title>
<g id="a_node10"><a xlink:href="standard_8cpp.html#adb3a21e4afe9c672720b182ddc7cad7c" target="_top" xlink:title="Check whether a CTxDestination is a CNoDestination. ">
<polygon fill="#ffffff" stroke="#000000" points="200,-88.5 200,-107.5 296,-107.5 296,-88.5 200,-88.5"/>
<text text-anchor="middle" x="248" y="-95.5" font-family="Helvetica,sans-Serif" font-size="10.00" fill="#000000">IsValidDestination</text>
</a>
</g>
</g>
<!-- Node701&#45;&gt;Node710 -->
<g id="edge9" class="edge">
<title>Node701&#45;&gt;Node710</title>
<path fill="none" stroke="#191970" d="M137.1296,-98C154.4234,-98 172.8263,-98 189.5672,-98"/>
<polygon fill="#191970" stroke="#191970" points="189.7512,-101.5001 199.7511,-98 189.7511,-94.5001 189.7512,-101.5001"/>
</g>
<!-- Node711 -->
<g id="node11" class="node">
<title>Node711</title>
<g id="a_node11"><a xlink:href="class_wallet_model.html#a987e456ef99c7c91960c50fd95f4c104" target="_top" xlink:title="WalletModel::IsSpendable">
<polygon fill="#ffffff" stroke="#000000" points="182.5,-.5 182.5,-19.5 313.5,-19.5 313.5,-.5 182.5,-.5"/>
<text text-anchor="middle" x="248" y="-7.5" font-family="Helvetica,sans-Serif" font-size="10.00" fill="#000000">WalletModel::IsSpendable</text>
</a>
</g>
</g>
<!-- Node701&#45;&gt;Node711 -->
<g id="edge10" class="edge">
<title>Node701&#45;&gt;Node711</title>
<path fill="none" stroke="#191970" d="M87.019,-82.9654C107.0817,-67.3742 140.5832,-43.3151 173,-29 178.4314,-26.6015 184.2233,-24.4648 190.0891,-22.5711"/>
<polygon fill="#191970" stroke="#191970" points="191.4041,-25.8309 199.9802,-19.61 189.3965,-19.125 191.4041,-25.8309"/>
</g>
<!-- Node713 -->
<g id="node13" class="node">
<title>Node713</title>
<g id="a_node13"><a xlink:href="class_address_table_model.html#afcdbfc17ac480f5a57382cbcf096ccb3" target="_top" xlink:title="AddressTableModel::\llabelForAddress">
<polygon fill="#ffffff" stroke="#000000" points="193.5,-39 193.5,-69 302.5,-69 302.5,-39 193.5,-39"/>
<text text-anchor="start" x="201.5" y="-57" font-family="Helvetica,sans-Serif" font-size="10.00" fill="#000000">AddressTableModel::</text>
<text text-anchor="middle" x="248" y="-46" font-family="Helvetica,sans-Serif" font-size="10.00" fill="#000000">labelForAddress</text>
</a>
</g>
</g>
<!-- Node701&#45;&gt;Node713 -->
<g id="edge13" class="edge">
<title>Node701&#45;&gt;Node713</title>
<path fill="none" stroke="#191970" d="M129.7717,-82.9808C147.0063,-78.7561 165.8039,-74.1483 183.2353,-69.8755"/>
<polygon fill="#191970" stroke="#191970" points="184.4394,-73.184 193.3186,-67.4038 182.7728,-66.3853 184.4394,-73.184"/>
</g>
<!-- Node704 -->
<g id="node4" class="node">
<title>Node704</title>
<g id="a_node4"><a xlink:href="class_c_raven_address.html#a5e7e76de59b448a766b7e0c7b959280e" target="_top" xlink:title="CRavenAddress::Get">
<polygon fill="#ffffff" stroke="#000000" points="495,-91.5 495,-110.5 605,-110.5 605,-91.5 495,-91.5"/>
<text text-anchor="middle" x="550" y="-98.5" font-family="Helvetica,sans-Serif" font-size="10.00" fill="#000000">CRavenAddress::Get</text>
</a>
</g>
</g>
<!-- Node703&#45;&gt;Node704 -->
<g id="edge3" class="edge">
<title>Node703&#45;&gt;Node704</title>
<path fill="none" stroke="#191970" d="M459.1083,-101C467.4147,-101 476.1342,-101 484.7487,-101"/>
<polygon fill="#191970" stroke="#191970" points="484.782,-104.5001 494.782,-101 484.782,-97.5001 484.782,-104.5001"/>
</g>
<!-- Node705 -->
<g id="node5" class="node">
<title>Node705</title>
<g id="a_node5"><a xlink:href="glibc__compat_8cpp.html#a0f46826ab0466591e136db24394923cf" target="_top" xlink:title="memcpy">
<polygon fill="#ffffff" stroke="#000000" points="688,-129.5 688,-148.5 742,-148.5 742,-129.5 688,-129.5"/>
<text text-anchor="middle" x="715" y="-136.5" font-family="Helvetica,sans-Serif" font-size="10.00" fill="#000000">memcpy</text>
</a>
</g>
</g>
<!-- Node704&#45;&gt;Node705 -->
<g id="edge4" class="edge">
<title>Node704&#45;&gt;Node705</title>
<path fill="none" stroke="#191970" d="M591.6365,-110.589C618.1514,-116.6955 652.2002,-124.537 677.8074,-130.4344"/>
<polygon fill="#191970" stroke="#191970" points="677.3387,-133.918 687.8691,-132.7517 678.9098,-127.0966 677.3387,-133.918"/>
</g>
<!-- Node708 -->
<g id="node8" class="node">
<title>Node708</title>
<g id="a_node8"><a xlink:href="chainparams_8cpp.html#ace5c5b706d71a324a417dd2db394fd4a" target="_top" xlink:title="Return the currently selected parameters. ">
<polygon fill="#ffffff" stroke="#000000" points="690,-91.5 690,-110.5 740,-110.5 740,-91.5 690,-91.5"/>
<text text-anchor="middle" x="715" y="-98.5" font-family="Helvetica,sans-Serif" font-size="10.00" fill="#000000">Params</text>
</a>
</g>
</g>
<!-- Node704&#45;&gt;Node708 -->
<g id="edge7" class="edge">
<title>Node704&#45;&gt;Node708</title>
<path fill="none" stroke="#191970" d="M605.4016,-101C630.0212,-101 658.2626,-101 679.9109,-101"/>
<polygon fill="#191970" stroke="#191970" points="679.9639,-104.5001 689.9639,-101 679.9638,-97.5001 679.9639,-104.5001"/>
</g>
<!-- Node709 -->
<g id="node9" class="node">
<title>Node709</title>
<g id="a_node9"><a xlink:href="class_c_chain_params.html#a103c58eca4a26a71201882b3ed6c4cb4" target="_top" xlink:title="CChainParams::Base58Prefix">
<polygon fill="#ffffff" stroke="#000000" points="641,-53.5 641,-72.5 789,-72.5 789,-53.5 641,-53.5"/>
<text text-anchor="middle" x="715" y="-60.5" font-family="Helvetica,sans-Serif" font-size="10.00" fill="#000000">CChainParams::Base58Prefix</text>
</a>
</g>
</g>
<!-- Node704&#45;&gt;Node709 -->
<g id="edge8" class="edge">
<title>Node704&#45;&gt;Node709</title>
<path fill="none" stroke="#191970" d="M591.6365,-91.411C613.5081,-86.3739 640.506,-80.1562 663.6636,-74.8229"/>
<polygon fill="#191970" stroke="#191970" points="664.7036,-78.1751 673.6629,-72.5201 663.1325,-71.3537 664.7036,-78.1751"/>
</g>
<!-- Node706 -->
<g id="node6" class="node">
<title>Node706</title>
<g id="a_node6"><a xlink:href="glibc__compat_8cpp.html#a9778d49e9029dd75bc53ecbbf9f5e9a1" target="_top" xlink:title="memmove">
<polygon fill="#ffffff" stroke="#000000" points="825,-148.5 825,-167.5 887,-167.5 887,-148.5 825,-148.5"/>
<text text-anchor="middle" x="856" y="-155.5" font-family="Helvetica,sans-Serif" font-size="10.00" fill="#000000">memmove</text>
</a>
</g>
</g>
<!-- Node705&#45;&gt;Node706 -->
<g id="edge5" class="edge">
<title>Node705&#45;&gt;Node706</title>
<path fill="none" stroke="#191970" d="M742.1862,-142.6634C762.8202,-145.4439 791.5364,-149.3134 814.9613,-152.47"/>
<polygon fill="#191970" stroke="#191970" points="814.5918,-155.9517 824.9697,-153.8186 815.5267,-149.0144 814.5918,-155.9517"/>
</g>
<!-- Node707 -->
<g id="node7" class="node">
<title>Node707</title>
<g id="a_node7"><a xlink:href="glibc__compat_8cpp.html#a424ac71631da5ada2976630ff67051d1" target="_top" xlink:title="__chk_fail">
<polygon fill="#ffffff" stroke="#000000" points="825.5,-110.5 825.5,-129.5 886.5,-129.5 886.5,-110.5 825.5,-110.5"/>
<text text-anchor="middle" x="856" y="-117.5" font-family="Helvetica,sans-Serif" font-size="10.00" fill="#000000">__chk_fail</text>
</a>
</g>
</g>
<!-- Node705&#45;&gt;Node707 -->
<g id="edge6" class="edge">
<title>Node705&#45;&gt;Node707</title>
<path fill="none" stroke="#191970" d="M742.1862,-135.3366C762.9597,-132.5374 791.9248,-128.6342 815.4354,-125.4662"/>
<polygon fill="#191970" stroke="#191970" points="816.0272,-128.9181 825.4702,-124.1139 815.0924,-121.9808 816.0272,-128.9181"/>
</g>
<!-- Node712 -->
<g id="node12" class="node">
<title>Node712</title>
<g id="a_node12"><a xlink:href="ismine_8cpp.html#a60a6865dd5664b8e9878a5380ca3e359" target="_top" xlink:title="IsMine">
<polygon fill="#ffffff" stroke="#000000" points="386,-.5 386,-19.5 432,-19.5 432,-.5 386,-.5"/>
<text text-anchor="middle" x="409" y="-7.5" font-family="Helvetica,sans-Serif" font-size="10.00" fill="#000000">IsMine</text>
</a>
</g>
</g>
<!-- Node711&#45;&gt;Node712 -->
<g id="edge11" class="edge">
<title>Node711&#45;&gt;Node712</title>
<path fill="none" stroke="#191970" d="M313.9494,-10C335.1921,-10 357.8331,-10 375.6873,-10"/>
<polygon fill="#191970" stroke="#191970" points="375.8644,-13.5001 385.8644,-10 375.8643,-6.5001 375.8644,-13.5001"/>
</g>
<!-- Node712&#45;&gt;Node712 -->
<g id="edge12" class="edge">
<title>Node712&#45;&gt;Node712</title>
<path fill="none" stroke="#191970" d="M387.4219,-19.7571C376.9245,-28.5653 384.1172,-38 409,-38 424.9406,-38 433.6211,-34.128 435.0416,-29.0292"/>
<polygon fill="#191970" stroke="#191970" points="438.0692,-27.2493 430.5781,-19.7571 431.762,-30.2855 438.0692,-27.2493"/>
</g>
<!-- Node713&#45;&gt;Node703 -->
<g id="edge14" class="edge">
<title>Node713&#45;&gt;Node703</title>
<path fill="none" stroke="#191970" d="M299.3841,-69.0003C321.0535,-75.3262 345.9761,-82.6017 366.5762,-88.6154"/>
<polygon fill="#191970" stroke="#191970" points="365.7285,-92.014 376.3086,-91.4566 367.6901,-85.2944 365.7285,-92.014"/>
</g>
</g>
</svg>
