<?xml version="1.0" encoding="UTF-8" standalone="no"?>
<!DOCTYPE svg PUBLIC "-//W3C//DTD SVG 1.1//EN"
 "http://www.w3.org/Graphics/SVG/1.1/DTD/svg11.dtd">
<!-- Generated by graphviz version 2.40.1 (20161225.0304)
 -->
<!-- Title: ModalOverlay::showHide Pages: 1 -->
<svg width="656pt" height="66pt"
 viewBox="0.00 0.00 656.00 66.00" xmlns="http://www.w3.org/2000/svg" xmlns:xlink="http://www.w3.org/1999/xlink">
<g id="graph0" class="graph" transform="scale(1 1) rotate(0) translate(4 62)">
<title>ModalOverlay::showHide</title>
<polygon fill="#ffffff" stroke="transparent" points="-4,4 -4,-62 652,-62 652,4 -4,4"/>
<!-- Node26 -->
<g id="node1" class="node">
<title>Node26</title>
<polygon fill="#bfbfbf" stroke="#000000" points="0,-19.5 0,-38.5 126,-38.5 126,-19.5 0,-19.5"/>
<text text-anchor="middle" x="63" y="-26.5" font-family="Helvetica,sans-Serif" font-size="10.00" fill="#000000">ModalOverlay::showHide</text>
</g>
<!-- Node27 -->
<g id="node2" class="node">
<title>Node27</title>
<g id="a_node2"><a xlink:href="class_modal_overlay.html#a417f7a13143484ec7813f23a81691a0c" target="_top" xlink:title="ModalOverlay::toggleVisibility">
<polygon fill="#ffffff" stroke="#000000" points="162,-38.5 162,-57.5 308,-57.5 308,-38.5 162,-38.5"/>
<text text-anchor="middle" x="235" y="-45.5" font-family="Helvetica,sans-Serif" font-size="10.00" fill="#000000">ModalOverlay::toggleVisibility</text>
</a>
</g>
</g>
<!-- Node26&#45;&gt;Node27 -->
<g id="edge1" class="edge">
<title>Node26&#45;&gt;Node27</title>
<path fill="none" stroke="#191970" d="M136.2581,-37.0925C144.6972,-38.0247 153.3037,-38.9754 161.7428,-39.9076"/>
<polygon fill="#191970" stroke="#191970" points="136.3936,-33.5862 126.0698,-35.967 135.625,-40.5439 136.3936,-33.5862"/>
</g>
<!-- Node30 -->
<g id="node5" class="node">
<title>Node30</title>
<g id="a_node5"><a xlink:href="class_modal_overlay.html#a8c67e70c73d200b8234da5c7056791ff" target="_top" xlink:title="ModalOverlay::closeClicked">
<polygon fill="#ffffff" stroke="#000000" points="165.5,-.5 165.5,-19.5 304.5,-19.5 304.5,-.5 165.5,-.5"/>
<text text-anchor="middle" x="235" y="-7.5" font-family="Helvetica,sans-Serif" font-size="10.00" fill="#000000">ModalOverlay::closeClicked</text>
</a>
</g>
</g>
<!-- Node26&#45;&gt;Node30 -->
<g id="edge4" class="edge">
<title>Node26&#45;&gt;Node30</title>
<path fill="none" stroke="#191970" d="M136.0558,-20.9299C145.7365,-19.8605 155.6411,-18.7664 165.2638,-17.7034"/>
<polygon fill="#191970" stroke="#191970" points="135.625,-17.4561 126.0698,-22.033 136.3936,-24.4138 135.625,-17.4561"/>
</g>
<!-- Node28 -->
<g id="node3" class="node">
<title>Node28</title>
<g id="a_node3"><a xlink:href="class_raven_g_u_i.html#a2c8ce02f31b360ce8a6b249fa358e82c" target="_top" xlink:title="RavenGUI::showModalOverlay">
<polygon fill="#ffffff" stroke="#000000" points="344,-38.5 344,-57.5 496,-57.5 496,-38.5 344,-38.5"/>
<text text-anchor="middle" x="420" y="-45.5" font-family="Helvetica,sans-Serif" font-size="10.00" fill="#000000">RavenGUI::showModalOverlay</text>
</a>
</g>
</g>
<!-- Node27&#45;&gt;Node28 -->
<g id="edge2" class="edge">
<title>Node27&#45;&gt;Node28</title>
<path fill="none" stroke="#191970" d="M318.3662,-48C326.8264,-48 335.3896,-48 343.7689,-48"/>
<polygon fill="#191970" stroke="#191970" points="318.1169,-44.5001 308.1169,-48 318.1169,-51.5001 318.1169,-44.5001"/>
</g>
<!-- Node29 -->
<g id="node4" class="node">
<title>Node29</title>
<g id="a_node4"><a xlink:href="class_raven_g_u_i.html#af82cbe028fc29d0ea71074eced806071" target="_top" xlink:title="RavenGUI::RavenGUI">
<polygon fill="#ffffff" stroke="#000000" points="532,-38.5 532,-57.5 648,-57.5 648,-38.5 532,-38.5"/>
<text text-anchor="middle" x="590" y="-45.5" font-family="Helvetica,sans-Serif" font-size="10.00" fill="#000000">RavenGUI::RavenGUI</text>
</a>
</g>
</g>
<!-- Node28&#45;&gt;Node29 -->
<g id="edge3" class="edge">
<title>Node28&#45;&gt;Node29</title>
<path fill="none" stroke="#191970" d="M506.23,-48C514.9137,-48 523.5803,-48 531.8672,-48"/>
<polygon fill="#191970" stroke="#191970" points="506.05,-44.5001 496.0499,-48 506.0499,-51.5001 506.05,-44.5001"/>
</g>
<!-- Node31 -->
<g id="node6" class="node">
<title>Node31</title>
<g id="a_node6"><a xlink:href="class_modal_overlay.html#a82cf62a8aa061864f8ab95318fe52ad2" target="_top" xlink:title="ModalOverlay::ModalOverlay">
<polygon fill="#ffffff" stroke="#000000" points="348.5,-.5 348.5,-19.5 491.5,-19.5 491.5,-.5 348.5,-.5"/>
<text text-anchor="middle" x="420" y="-7.5" font-family="Helvetica,sans-Serif" font-size="10.00" fill="#000000">ModalOverlay::ModalOverlay</text>
</a>
</g>
</g>
<!-- Node30&#45;&gt;Node31 -->
<g id="edge5" class="edge">
<title>Node30&#45;&gt;Node31</title>
<path fill="none" stroke="#191970" d="M314.7954,-10C325.9101,-10 337.2743,-10 348.2296,-10"/>
<polygon fill="#191970" stroke="#191970" points="314.677,-6.5001 304.677,-10 314.6769,-13.5001 314.677,-6.5001"/>
</g>
</g>
</svg>
