<?xml version="1.0" encoding="UTF-8" standalone="no"?>
<!DOCTYPE svg PUBLIC "-//W3C//DTD SVG 1.1//EN"
 "http://www.w3.org/Graphics/SVG/1.1/DTD/svg11.dtd">
<!-- Generated by graphviz version 2.40.1 (20161225.0304)
 -->
<!-- Title: TransactionTablePriv::updateWallet Pages: 1 -->
<svg width="654pt" height="66pt"
 viewBox="0.00 0.00 654.00 66.00" xmlns="http://www.w3.org/2000/svg" xmlns:xlink="http://www.w3.org/1999/xlink">
<g id="graph0" class="graph" transform="scale(1 1) rotate(0) translate(4 62)">
<title>TransactionTablePriv::updateWallet</title>
<polygon fill="#ffffff" stroke="transparent" points="-4,4 -4,-62 650,-62 650,4 -4,4"/>
<!-- Node333 -->
<g id="node1" class="node">
<title>Node333</title>
<polygon fill="#bfbfbf" stroke="#000000" points="0,-14 0,-44 109,-44 109,-14 0,-14"/>
<text text-anchor="start" x="8" y="-32" font-family="Helvetica,sans-Serif" font-size="10.00" fill="#000000">TransactionTablePriv</text>
<text text-anchor="middle" x="54.5" y="-21" font-family="Helvetica,sans-Serif" font-size="10.00" fill="#000000">::updateWallet</text>
</g>
<!-- Node334 -->
<g id="node2" class="node">
<title>Node334</title>
<g id="a_node2"><a xlink:href="class_transaction_table_model.html#a8de43b3c7ba0612304906eb5a2f51a06" target="_top" xlink:title="TransactionTableModel\l::updateTransaction">
<polygon fill="#ffffff" stroke="#000000" points="145,-14 145,-44 263,-44 263,-14 145,-14"/>
<text text-anchor="start" x="153" y="-32" font-family="Helvetica,sans-Serif" font-size="10.00" fill="#000000">TransactionTableModel</text>
<text text-anchor="middle" x="204" y="-21" font-family="Helvetica,sans-Serif" font-size="10.00" fill="#000000">::updateTransaction</text>
</a>
</g>
</g>
<!-- Node333&#45;&gt;Node334 -->
<g id="edge1" class="edge">
<title>Node333&#45;&gt;Node334</title>
<path fill="none" stroke="#191970" d="M119.5075,-29C127.9528,-29 136.5669,-29 144.9086,-29"/>
<polygon fill="#191970" stroke="#191970" points="119.3194,-25.5001 109.3194,-29 119.3193,-32.5001 119.3194,-25.5001"/>
</g>
<!-- Node335 -->
<g id="node3" class="node">
<title>Node335</title>
<g id="a_node3"><a xlink:href="class_transaction_view.html#a8dc3e9fc910cec4f6764d84c21941180" target="_top" xlink:title="TransactionView::abandonTx">
<polygon fill="#ffffff" stroke="#000000" points="299,-38.5 299,-57.5 442,-57.5 442,-38.5 299,-38.5"/>
<text text-anchor="middle" x="370.5" y="-45.5" font-family="Helvetica,sans-Serif" font-size="10.00" fill="#000000">TransactionView::abandonTx</text>
</a>
</g>
</g>
<!-- Node334&#45;&gt;Node335 -->
<g id="edge2" class="edge">
<title>Node334&#45;&gt;Node335</title>
<path fill="none" stroke="#191970" d="M273.3679,-36.9159C281.8279,-37.8813 290.4848,-38.8691 298.9756,-39.8381"/>
<polygon fill="#191970" stroke="#191970" points="273.5029,-33.4086 263.1705,-35.7522 272.7091,-40.3635 273.5029,-33.4086"/>
</g>
<!-- Node337 -->
<g id="node5" class="node">
<title>Node337</title>
<g id="a_node5"><a xlink:href="class_transaction_view.html#a6cf5d062668e5e29c6203b6e0dc3836b" target="_top" xlink:title="TransactionView::bumpFee">
<polygon fill="#ffffff" stroke="#000000" points="302.5,-.5 302.5,-19.5 438.5,-19.5 438.5,-.5 302.5,-.5"/>
<text text-anchor="middle" x="370.5" y="-7.5" font-family="Helvetica,sans-Serif" font-size="10.00" fill="#000000">TransactionView::bumpFee</text>
</a>
</g>
</g>
<!-- Node334&#45;&gt;Node337 -->
<g id="edge4" class="edge">
<title>Node334&#45;&gt;Node337</title>
<path fill="none" stroke="#191970" d="M273.143,-21.1098C282.8256,-20.0049 292.7704,-18.87 302.4328,-17.7674"/>
<polygon fill="#191970" stroke="#191970" points="272.7091,-17.6365 263.1705,-22.2478 273.5029,-24.5914 272.7091,-17.6365"/>
</g>
<!-- Node336 -->
<g id="node4" class="node">
<title>Node336</title>
<g id="a_node4"><a xlink:href="class_transaction_view.html#a6bad80e62c684ad1e77250510c9323aa" target="_top" xlink:title="TransactionView::TransactionView">
<polygon fill="#ffffff" stroke="#000000" points="478,-38.5 478,-57.5 646,-57.5 646,-38.5 478,-38.5"/>
<text text-anchor="middle" x="562" y="-45.5" font-family="Helvetica,sans-Serif" font-size="10.00" fill="#000000">TransactionView::TransactionView</text>
</a>
</g>
</g>
<!-- Node335&#45;&gt;Node336 -->
<g id="edge3" class="edge">
<title>Node335&#45;&gt;Node336</title>
<path fill="none" stroke="#191970" d="M452.3242,-48C460.7983,-48 469.4211,-48 477.9193,-48"/>
<polygon fill="#191970" stroke="#191970" points="452.0799,-44.5001 442.0799,-48 452.0798,-51.5001 452.0799,-44.5001"/>
</g>
</g>
</svg>
