<?xml version="1.0" encoding="UTF-8" standalone="no"?>
<!DOCTYPE svg PUBLIC "-//W3C//DTD SVG 1.1//EN"
 "http://www.w3.org/Graphics/SVG/1.1/DTD/svg11.dtd">
<!-- Generated by graphviz version 2.40.1 (20161225.0304)
 -->
<!-- Title: CAccount::SetNull Pages: 1 -->
<svg width="727pt" height="66pt"
 viewBox="0.00 0.00 727.00 66.00" xmlns="http://www.w3.org/2000/svg" xmlns:xlink="http://www.w3.org/1999/xlink">
<g id="graph0" class="graph" transform="scale(1 1) rotate(0) translate(4 62)">
<title>CAccount::SetNull</title>
<polygon fill="#ffffff" stroke="transparent" points="-4,4 -4,-62 723,-62 723,4 -4,4"/>
<!-- Node5 -->
<g id="node1" class="node">
<title>Node5</title>
<polygon fill="#bfbfbf" stroke="#000000" points="0,-19.5 0,-38.5 98,-38.5 98,-19.5 0,-19.5"/>
<text text-anchor="middle" x="49" y="-26.5" font-family="Helvetica,sans-Serif" font-size="10.00" fill="#000000">CAccount::SetNull</text>
</g>
<!-- Node6 -->
<g id="node2" class="node">
<title>Node6</title>
<g id="a_node2"><a xlink:href="class_c_wallet_d_b.html#afa8d9d374072629b360adb49b9bdd584" target="_top" xlink:title="CWalletDB::ReadAccount">
<polygon fill="#ffffff" stroke="#000000" points="134,-19.5 134,-38.5 265,-38.5 265,-19.5 134,-19.5"/>
<text text-anchor="middle" x="199.5" y="-26.5" font-family="Helvetica,sans-Serif" font-size="10.00" fill="#000000">CWalletDB::ReadAccount</text>
</a>
</g>
</g>
<!-- Node5&#45;&gt;Node6 -->
<g id="edge1" class="edge">
<title>Node5&#45;&gt;Node6</title>
<path fill="none" stroke="#191970" d="M108.364,-29C116.7689,-29 125.4507,-29 133.9639,-29"/>
<polygon fill="#191970" stroke="#191970" points="108.2794,-25.5001 98.2793,-29 108.2793,-32.5001 108.2794,-25.5001"/>
</g>
<!-- Node7 -->
<g id="node3" class="node">
<title>Node7</title>
<g id="a_node3"><a xlink:href="group__map_wallet.html#ga5f7245634960710d25795021dee8109d" target="_top" xlink:title="CWallet::GetAccountPubkey">
<polygon fill="#ffffff" stroke="#000000" points="301,-19.5 301,-38.5 444,-38.5 444,-19.5 301,-19.5"/>
<text text-anchor="middle" x="372.5" y="-26.5" font-family="Helvetica,sans-Serif" font-size="10.00" fill="#000000">CWallet::GetAccountPubkey</text>
</a>
</g>
</g>
<!-- Node6&#45;&gt;Node7 -->
<g id="edge2" class="edge">
<title>Node6&#45;&gt;Node7</title>
<path fill="none" stroke="#191970" d="M275.5259,-29C283.9011,-29 292.4093,-29 300.7302,-29"/>
<polygon fill="#191970" stroke="#191970" points="275.3974,-25.5001 265.3974,-29 275.3974,-32.5001 275.3974,-25.5001"/>
</g>
<!-- Node8 -->
<g id="node4" class="node">
<title>Node8</title>
<g id="a_node4"><a xlink:href="rpcwallet_8cpp.html#ab19bc7a532955f6da81600c3e1b0baa3" target="_top" xlink:title="GetAccountAddress">
<polygon fill="#ffffff" stroke="#000000" points="480,-19.5 480,-38.5 584,-38.5 584,-19.5 480,-19.5"/>
<text text-anchor="middle" x="532" y="-26.5" font-family="Helvetica,sans-Serif" font-size="10.00" fill="#000000">GetAccountAddress</text>
</a>
</g>
</g>
<!-- Node7&#45;&gt;Node8 -->
<g id="edge3" class="edge">
<title>Node7&#45;&gt;Node8</title>
<path fill="none" stroke="#191970" d="M454.3968,-29C462.99,-29 471.5499,-29 479.6771,-29"/>
<polygon fill="#191970" stroke="#191970" points="454.3179,-25.5001 444.3178,-29 454.3178,-32.5001 454.3179,-25.5001"/>
</g>
<!-- Node9 -->
<g id="node5" class="node">
<title>Node9</title>
<g id="a_node5"><a xlink:href="rpcwallet_8cpp.html#a333562390545ba33b4dfd2bb0c76cb0e" target="_top" xlink:title="getaccountaddress">
<polygon fill="#ffffff" stroke="#000000" points="620,-38.5 620,-57.5 719,-57.5 719,-38.5 620,-38.5"/>
<text text-anchor="middle" x="669.5" y="-45.5" font-family="Helvetica,sans-Serif" font-size="10.00" fill="#000000">getaccountaddress</text>
</a>
</g>
</g>
<!-- Node8&#45;&gt;Node9 -->
<g id="edge4" class="edge">
<title>Node8&#45;&gt;Node9</title>
<path fill="none" stroke="#191970" d="M594.3631,-37.6174C602.9515,-38.8042 611.6741,-40.0095 619.9884,-41.1584"/>
<polygon fill="#191970" stroke="#191970" points="594.7601,-34.1391 584.3751,-36.2373 593.8019,-41.0732 594.7601,-34.1391"/>
</g>
<!-- Node10 -->
<g id="node6" class="node">
<title>Node10</title>
<g id="a_node6"><a xlink:href="rpcwallet_8cpp.html#afac2373870d7a69caeec7f1d0abd5a06" target="_top" xlink:title="setaccount">
<polygon fill="#ffffff" stroke="#000000" points="637,-.5 637,-19.5 702,-19.5 702,-.5 637,-.5"/>
<text text-anchor="middle" x="669.5" y="-7.5" font-family="Helvetica,sans-Serif" font-size="10.00" fill="#000000">setaccount</text>
</a>
</g>
</g>
<!-- Node8&#45;&gt;Node10 -->
<g id="edge5" class="edge">
<title>Node8&#45;&gt;Node10</title>
<path fill="none" stroke="#191970" d="M594.4067,-20.3765C609.0336,-18.3554 624.0466,-16.2808 636.7673,-14.5231"/>
<polygon fill="#191970" stroke="#191970" points="593.8019,-16.9268 584.3751,-21.7627 594.7601,-23.8609 593.8019,-16.9268"/>
</g>
</g>
</svg>
