<?xml version="1.0" encoding="UTF-8" standalone="no"?>
<!DOCTYPE svg PUBLIC "-//W3C//DTD SVG 1.1//EN"
 "http://www.w3.org/Graphics/SVG/1.1/DTD/svg11.dtd">
<!-- Generated by graphviz version 2.40.1 (20161225.0304)
 -->
<!-- Title: CHDChain::SetNull Pages: 1 -->
<svg width="300pt" height="66pt"
 viewBox="0.00 0.00 300.00 66.00" xmlns="http://www.w3.org/2000/svg" xmlns:xlink="http://www.w3.org/1999/xlink">
<g id="graph0" class="graph" transform="scale(1 1) rotate(0) translate(4 62)">
<title>CHDChain::SetNull</title>
<polygon fill="#ffffff" stroke="transparent" points="-4,4 -4,-62 296,-62 296,4 -4,4"/>
<!-- Node8 -->
<g id="node1" class="node">
<title>Node8</title>
<polygon fill="#bfbfbf" stroke="#000000" points="0,-19.5 0,-38.5 103,-38.5 103,-19.5 0,-19.5"/>
<text text-anchor="middle" x="51.5" y="-26.5" font-family="Helvetica,sans-Serif" font-size="10.00" fill="#000000">CHDChain::SetNull</text>
</g>
<!-- Node9 -->
<g id="node2" class="node">
<title>Node9</title>
<g id="a_node2"><a xlink:href="class_c_h_d_chain.html#a5915ed9a3be42532f3ab0df94313cf81" target="_top" xlink:title="CHDChain::CHDChain">
<polygon fill="#ffffff" stroke="#000000" points="156,-38.5 156,-57.5 275,-57.5 275,-38.5 156,-38.5"/>
<text text-anchor="middle" x="215.5" y="-45.5" font-family="Helvetica,sans-Serif" font-size="10.00" fill="#000000">CHDChain::CHDChain</text>
</a>
</g>
</g>
<!-- Node8&#45;&gt;Node9 -->
<g id="edge1" class="edge">
<title>Node8&#45;&gt;Node9</title>
<path fill="none" stroke="#191970" d="M113.3745,-36.1684C127.321,-37.7841 142.0954,-39.4958 155.9444,-41.1003"/>
<polygon fill="#191970" stroke="#191970" points="113.727,-32.6859 103.3906,-35.0117 112.9214,-39.6394 113.727,-32.6859"/>
</g>
<!-- Node10 -->
<g id="node3" class="node">
<title>Node10</title>
<g id="a_node3"><a xlink:href="class_c_key_metadata.html#aa8b0f7b007fdc16d2ebf97c893a6760b" target="_top" xlink:title="CKeyMetadata::CKeyMetadata">
<polygon fill="#ffffff" stroke="#000000" points="139,-.5 139,-19.5 292,-19.5 292,-.5 139,-.5"/>
<text text-anchor="middle" x="215.5" y="-7.5" font-family="Helvetica,sans-Serif" font-size="10.00" fill="#000000">CKeyMetadata::CKeyMetadata</text>
</a>
</g>
</g>
<!-- Node8&#45;&gt;Node10 -->
<g id="edge2" class="edge">
<title>Node8&#45;&gt;Node10</title>
<path fill="none" stroke="#191970" d="M113.3516,-21.8343C121.6578,-20.872 130.2581,-19.8756 138.7819,-18.8881"/>
<polygon fill="#191970" stroke="#191970" points="112.9214,-18.3606 103.3906,-22.9883 113.727,-25.3141 112.9214,-18.3606"/>
</g>
</g>
</svg>
