<?xml version="1.0" encoding="UTF-8" standalone="no"?>
<!DOCTYPE svg PUBLIC "-//W3C//DTD SVG 1.1//EN"
 "http://www.w3.org/Graphics/SVG/1.1/DTD/svg11.dtd">
<!-- Generated by graphviz version 2.40.1 (20161225.0304)
 -->
<!-- Title: WalletModel::getImmatureBalance Pages: 1 -->
<svg width="1364pt" height="254pt"
 viewBox="0.00 0.00 1364.00 253.50" xmlns="http://www.w3.org/2000/svg" xmlns:xlink="http://www.w3.org/1999/xlink">
<g id="graph0" class="graph" transform="scale(1 1) rotate(0) translate(4 249.5)">
<title>WalletModel::getImmatureBalance</title>
<polygon fill="#ffffff" stroke="transparent" points="-4,4 -4,-249.5 1360,-249.5 1360,4 -4,4"/>
<!-- Node311 -->
<g id="node1" class="node">
<title>Node311</title>
<polygon fill="#bfbfbf" stroke="#000000" points="0,-110.5 0,-140.5 131,-140.5 131,-110.5 0,-110.5"/>
<text text-anchor="start" x="8" y="-128.5" font-family="Helvetica,sans-Serif" font-size="10.00" fill="#000000">WalletModel::getImmature</text>
<text text-anchor="middle" x="65.5" y="-117.5" font-family="Helvetica,sans-Serif" font-size="10.00" fill="#000000">Balance</text>
</g>
<!-- Node312 -->
<g id="node2" class="node">
<title>Node312</title>
<g id="a_node2"><a xlink:href="class_assets_dialog.html#a7724156dfba2b1a62c13c1b708e37b0a" target="_top" xlink:title="AssetsDialog::setModel">
<polygon fill="#ffffff" stroke="#000000" points="183.5,-226 183.5,-245 304.5,-245 304.5,-226 183.5,-226"/>
<text text-anchor="middle" x="244" y="-233" font-family="Helvetica,sans-Serif" font-size="10.00" fill="#000000">AssetsDialog::setModel</text>
</a>
</g>
</g>
<!-- Node311&#45;&gt;Node312 -->
<g id="edge1" class="edge">
<title>Node311&#45;&gt;Node312</title>
<path fill="none" stroke="#191970" d="M84.8293,-148.3049C103.7098,-169.1257 134.3081,-199.2129 167,-216.5 174.3032,-220.3619 182.4128,-223.4572 190.5495,-225.9331"/>
<polygon fill="#191970" stroke="#191970" points="87.2075,-145.7118 77.9524,-140.555 81.9716,-150.3578 87.2075,-145.7118"/>
</g>
<!-- Node320 -->
<g id="node10" class="node">
<title>Node320</title>
<g id="a_node10"><a xlink:href="class_create_asset_dialog.html#affceaf7b5ffeeda6f20ecb354ff4e7f8" target="_top" xlink:title="CreateAssetDialog::\lsetModel">
<polygon fill="#ffffff" stroke="#000000" points="191.5,-176.5 191.5,-206.5 296.5,-206.5 296.5,-176.5 191.5,-176.5"/>
<text text-anchor="start" x="199.5" y="-194.5" font-family="Helvetica,sans-Serif" font-size="10.00" fill="#000000">CreateAssetDialog::</text>
<text text-anchor="middle" x="244" y="-183.5" font-family="Helvetica,sans-Serif" font-size="10.00" fill="#000000">setModel</text>
</a>
</g>
</g>
<!-- Node311&#45;&gt;Node320 -->
<g id="edge10" class="edge">
<title>Node311&#45;&gt;Node320</title>
<path fill="none" stroke="#191970" d="M110.3971,-144.4225C127.9486,-151.6125 148.3143,-159.7021 167,-166.5 176.2457,-169.8636 186.1922,-173.2569 195.7651,-176.4123"/>
<polygon fill="#191970" stroke="#191970" points="111.5435,-141.1094 100.9643,-140.5345 108.8759,-147.5812 111.5435,-141.1094"/>
</g>
<!-- Node321 -->
<g id="node11" class="node">
<title>Node321</title>
<g id="a_node11"><a xlink:href="class_overview_page.html#a2ed52a3a87e9c74fee38fa873c9bc71f" target="_top" xlink:title="OverviewPage::setWalletModel">
<polygon fill="#ffffff" stroke="#000000" points="167,-138 167,-157 321,-157 321,-138 167,-138"/>
<text text-anchor="middle" x="244" y="-145" font-family="Helvetica,sans-Serif" font-size="10.00" fill="#000000">OverviewPage::setWalletModel</text>
</a>
</g>
</g>
<!-- Node311&#45;&gt;Node321 -->
<g id="edge12" class="edge">
<title>Node311&#45;&gt;Node321</title>
<path fill="none" stroke="#191970" d="M141.1366,-134.8222C149.6789,-135.875 158.3916,-136.9488 166.9516,-138.0038"/>
<polygon fill="#191970" stroke="#191970" points="141.5594,-131.3479 131.2064,-133.5983 140.7031,-138.2953 141.5594,-131.3479"/>
</g>
<!-- Node322 -->
<g id="node12" class="node">
<title>Node322</title>
<g id="a_node12"><a xlink:href="class_reissue_asset_dialog.html#aedb26df763c8cda11fea5a0c07ca70a0" target="_top" xlink:title="ReissueAssetDialog\l::setModel">
<polygon fill="#ffffff" stroke="#000000" points="191,-88.5 191,-118.5 297,-118.5 297,-88.5 191,-88.5"/>
<text text-anchor="start" x="199" y="-106.5" font-family="Helvetica,sans-Serif" font-size="10.00" fill="#000000">ReissueAssetDialog</text>
<text text-anchor="middle" x="244" y="-95.5" font-family="Helvetica,sans-Serif" font-size="10.00" fill="#000000">::setModel</text>
</a>
</g>
</g>
<!-- Node311&#45;&gt;Node322 -->
<g id="edge14" class="edge">
<title>Node311&#45;&gt;Node322</title>
<path fill="none" stroke="#191970" d="M141.4796,-116.1356C158.1443,-114.0817 175.4405,-111.9499 190.9736,-110.0355"/>
<polygon fill="#191970" stroke="#191970" points="140.7031,-112.7047 131.2064,-117.4017 141.5594,-119.6521 140.7031,-112.7047"/>
</g>
<!-- Node323 -->
<g id="node13" class="node">
<title>Node323</title>
<g id="a_node13"><a xlink:href="class_send_coins_dialog.html#a73a6c1b1850a334ee652ac167713a2aa" target="_top" xlink:title="SendCoinsDialog::setModel">
<polygon fill="#ffffff" stroke="#000000" points="175,-50 175,-69 313,-69 313,-50 175,-50"/>
<text text-anchor="middle" x="244" y="-57" font-family="Helvetica,sans-Serif" font-size="10.00" fill="#000000">SendCoinsDialog::setModel</text>
</a>
</g>
</g>
<!-- Node311&#45;&gt;Node323 -->
<g id="edge16" class="edge">
<title>Node311&#45;&gt;Node323</title>
<path fill="none" stroke="#191970" d="M104.2162,-106.0653C122.882,-97.1866 145.7784,-87.0025 167,-79.5 178.1988,-75.5409 190.5631,-71.9847 202.0461,-69.0075"/>
<polygon fill="#191970" stroke="#191970" points="102.6364,-102.9414 95.1462,-110.4345 105.6743,-109.2478 102.6364,-102.9414"/>
</g>
<!-- Node324 -->
<g id="node14" class="node">
<title>Node324</title>
<g id="a_node14"><a xlink:href="class_wallet_model.html#adcc4eb8cd71cb4de223621866bb7fb7d" target="_top" xlink:title="WalletModel::checkBalance\lChanged">
<polygon fill="#ffffff" stroke="#000000" points="175,-.5 175,-30.5 313,-30.5 313,-.5 175,-.5"/>
<text text-anchor="start" x="183" y="-18.5" font-family="Helvetica,sans-Serif" font-size="10.00" fill="#000000">WalletModel::checkBalance</text>
<text text-anchor="middle" x="244" y="-7.5" font-family="Helvetica,sans-Serif" font-size="10.00" fill="#000000">Changed</text>
</a>
</g>
</g>
<!-- Node311&#45;&gt;Node324 -->
<g id="edge18" class="edge">
<title>Node311&#45;&gt;Node324</title>
<path fill="none" stroke="#191970" d="M87.0698,-103.1315C106.444,-84.1576 136.4652,-57.4018 167,-40.5 173.7633,-36.7563 181.1746,-33.4673 188.6433,-30.6104"/>
<polygon fill="#191970" stroke="#191970" points="84.5542,-100.6971 79.9409,-110.2348 89.4951,-105.6558 84.5542,-100.6971"/>
</g>
<!-- Node313 -->
<g id="node3" class="node">
<title>Node313</title>
<g id="a_node3"><a xlink:href="class_wallet_view.html#a0a37ff693a4f9c1e5ddc23f9cd3913be" target="_top" xlink:title="Set the wallet model. ">
<polygon fill="#ffffff" stroke="#000000" points="357,-138 357,-157 497,-157 497,-138 357,-138"/>
<text text-anchor="middle" x="427" y="-145" font-family="Helvetica,sans-Serif" font-size="10.00" fill="#000000">WalletView::setWalletModel</text>
</a>
</g>
</g>
<!-- Node312&#45;&gt;Node313 -->
<g id="edge2" class="edge">
<title>Node312&#45;&gt;Node313</title>
<path fill="none" stroke="#191970" d="M303,-223.1184C309.1755,-221.1808 315.2807,-218.9823 321,-216.5 357.8615,-200.5017 396.1887,-172.1168 415.0499,-157.2295"/>
<polygon fill="#191970" stroke="#191970" points="301.9036,-219.7923 293.2831,-225.9517 303.8631,-226.5125 301.9036,-219.7923"/>
</g>
<!-- Node314 -->
<g id="node4" class="node">
<title>Node314</title>
<g id="a_node4"><a xlink:href="class_wallet_frame.html#aa199c3f27654199d84c365cf86167d86" target="_top" xlink:title="WalletFrame::addWallet">
<polygon fill="#ffffff" stroke="#000000" points="537.5,-138 537.5,-157 659.5,-157 659.5,-138 537.5,-138"/>
<text text-anchor="middle" x="598.5" y="-145" font-family="Helvetica,sans-Serif" font-size="10.00" fill="#000000">WalletFrame::addWallet</text>
</a>
</g>
</g>
<!-- Node313&#45;&gt;Node314 -->
<g id="edge3" class="edge">
<title>Node313&#45;&gt;Node314</title>
<path fill="none" stroke="#191970" d="M507.3167,-147.5C517.4377,-147.5 527.66,-147.5 537.4167,-147.5"/>
<polygon fill="#191970" stroke="#191970" points="507.2505,-144.0001 497.2504,-147.5 507.2504,-151.0001 507.2505,-144.0001"/>
</g>
<!-- Node315 -->
<g id="node5" class="node">
<title>Node315</title>
<g id="a_node5"><a xlink:href="class_raven_g_u_i.html#a174a3e75c334c5930d3261a2955c3725" target="_top" xlink:title="Set the client model. ">
<polygon fill="#ffffff" stroke="#000000" points="700,-138 700,-157 834,-157 834,-138 700,-138"/>
<text text-anchor="middle" x="767" y="-145" font-family="Helvetica,sans-Serif" font-size="10.00" fill="#000000">RavenGUI::setClientModel</text>
</a>
</g>
</g>
<!-- Node314&#45;&gt;Node315 -->
<g id="edge4" class="edge">
<title>Node314&#45;&gt;Node315</title>
<path fill="none" stroke="#191970" d="M669.9861,-147.5C679.8575,-147.5 689.9683,-147.5 699.7593,-147.5"/>
<polygon fill="#191970" stroke="#191970" points="669.8091,-144.0001 659.809,-147.5 669.809,-151.0001 669.8091,-144.0001"/>
</g>
<!-- Node316 -->
<g id="node6" class="node">
<title>Node316</title>
<g id="a_node6"><a xlink:href="class_raven_application.html#a60123f611cc210870fa67974cb2c804c" target="_top" xlink:title="Request core shutdown. ">
<polygon fill="#ffffff" stroke="#000000" points="1225,-154.5 1225,-184.5 1356,-184.5 1356,-154.5 1225,-154.5"/>
<text text-anchor="start" x="1233" y="-172.5" font-family="Helvetica,sans-Serif" font-size="10.00" fill="#000000">RavenApplication::request</text>
<text text-anchor="middle" x="1290.5" y="-161.5" font-family="Helvetica,sans-Serif" font-size="10.00" fill="#000000">Shutdown</text>
</a>
</g>
</g>
<!-- Node315&#45;&gt;Node316 -->
<g id="edge5" class="edge">
<title>Node315&#45;&gt;Node316</title>
<path fill="none" stroke="#191970" d="M844.1333,-150.7415C947.2203,-155.0737 1128.1346,-162.6766 1224.9629,-166.7458"/>
<polygon fill="#191970" stroke="#191970" points="844.238,-147.2429 834.0999,-150.3199 843.944,-154.2367 844.238,-147.2429"/>
</g>
<!-- Node317 -->
<g id="node7" class="node">
<title>Node317</title>
<g id="a_node7"><a xlink:href="class_raven_application.html#a1a3dcf33ba44507984b2a04e7ebf1542" target="_top" xlink:title="RavenApplication::initialize\lResult">
<polygon fill="#ffffff" stroke="#000000" points="870,-110.5 870,-140.5 1004,-140.5 1004,-110.5 870,-110.5"/>
<text text-anchor="start" x="878" y="-128.5" font-family="Helvetica,sans-Serif" font-size="10.00" fill="#000000">RavenApplication::initialize</text>
<text text-anchor="middle" x="937" y="-117.5" font-family="Helvetica,sans-Serif" font-size="10.00" fill="#000000">Result</text>
</a>
</g>
</g>
<!-- Node315&#45;&gt;Node317 -->
<g id="edge6" class="edge">
<title>Node315&#45;&gt;Node317</title>
<path fill="none" stroke="#191970" d="M844.146,-137.5164C852.6879,-136.411 861.3366,-135.2917 869.7428,-134.2039"/>
<polygon fill="#191970" stroke="#191970" points="843.6566,-134.0505 834.1885,-138.805 844.555,-140.9926 843.6566,-134.0505"/>
</g>
<!-- Node318 -->
<g id="node8" class="node">
<title>Node318</title>
<g id="a_node8"><a xlink:href="class_raven_application.html#aecfdce3a245b959def5dd35e5cfb192e" target="_top" xlink:title="RavenApplication::startThread">
<polygon fill="#ffffff" stroke="#000000" points="1040,-116 1040,-135 1189,-135 1189,-116 1040,-116"/>
<text text-anchor="middle" x="1114.5" y="-123" font-family="Helvetica,sans-Serif" font-size="10.00" fill="#000000">RavenApplication::startThread</text>
</a>
</g>
</g>
<!-- Node317&#45;&gt;Node318 -->
<g id="edge7" class="edge">
<title>Node317&#45;&gt;Node318</title>
<path fill="none" stroke="#191970" d="M1014.3486,-125.5C1022.821,-125.5 1031.4344,-125.5 1039.873,-125.5"/>
<polygon fill="#191970" stroke="#191970" points="1014.1052,-122.0001 1004.1051,-125.5 1014.1051,-129.0001 1014.1052,-122.0001"/>
</g>
<!-- Node318&#45;&gt;Node316 -->
<g id="edge9" class="edge">
<title>Node318&#45;&gt;Node316</title>
<path fill="none" stroke="#191970" d="M1162.6046,-137.5261C1183.4811,-142.7453 1208.1576,-148.9144 1230.2385,-154.4346"/>
<polygon fill="#191970" stroke="#191970" points="1163.2397,-134.0773 1152.6894,-135.0473 1161.5419,-140.8683 1163.2397,-134.0773"/>
</g>
<!-- Node319 -->
<g id="node9" class="node">
<title>Node319</title>
<g id="a_node9"><a xlink:href="class_raven_application.html#a63a2032fef875fb81f26c212f69d000d" target="_top" xlink:title="Request core initialization. ">
<polygon fill="#ffffff" stroke="#000000" points="1225,-105.5 1225,-135.5 1356,-135.5 1356,-105.5 1225,-105.5"/>
<text text-anchor="start" x="1233" y="-123.5" font-family="Helvetica,sans-Serif" font-size="10.00" fill="#000000">RavenApplication::request</text>
<text text-anchor="middle" x="1290.5" y="-112.5" font-family="Helvetica,sans-Serif" font-size="10.00" fill="#000000">Initialize</text>
</a>
</g>
</g>
<!-- Node318&#45;&gt;Node319 -->
<g id="edge8" class="edge">
<title>Node318&#45;&gt;Node319</title>
<path fill="none" stroke="#191970" d="M1199.2384,-123.0927C1207.8743,-122.8473 1216.5522,-122.6008 1224.9387,-122.3625"/>
<polygon fill="#191970" stroke="#191970" points="1199.0364,-119.5969 1189.1398,-123.3795 1199.2352,-126.5941 1199.0364,-119.5969"/>
</g>
<!-- Node320&#45;&gt;Node313 -->
<g id="edge11" class="edge">
<title>Node320&#45;&gt;Node313</title>
<path fill="none" stroke="#191970" d="M306.9437,-176.366C333.5832,-169.9609 363.8119,-162.6928 387.2723,-157.052"/>
<polygon fill="#191970" stroke="#191970" points="305.8359,-173.0325 296.9312,-178.7734 307.4723,-179.8386 305.8359,-173.0325"/>
</g>
<!-- Node321&#45;&gt;Node313 -->
<g id="edge13" class="edge">
<title>Node321&#45;&gt;Node313</title>
<path fill="none" stroke="#191970" d="M331.194,-147.5C339.8472,-147.5 348.5519,-147.5 356.9975,-147.5"/>
<polygon fill="#191970" stroke="#191970" points="331.0781,-144.0001 321.0781,-147.5 331.0781,-151.0001 331.0781,-144.0001"/>
</g>
<!-- Node322&#45;&gt;Node313 -->
<g id="edge15" class="edge">
<title>Node322&#45;&gt;Node313</title>
<path fill="none" stroke="#191970" d="M307.4254,-118.7498C334.0269,-125.1458 364.1338,-132.3846 387.4827,-137.9986"/>
<polygon fill="#191970" stroke="#191970" points="307.9643,-115.2797 297.4231,-116.3449 306.3278,-122.0857 307.9643,-115.2797"/>
</g>
<!-- Node323&#45;&gt;Node313 -->
<g id="edge17" class="edge">
<title>Node323&#45;&gt;Node313</title>
<path fill="none" stroke="#191970" d="M300.1213,-71.8457C307.2675,-74.0642 314.388,-76.6085 321,-79.5 357.6589,-95.5315 396.0732,-123.391 415.0005,-137.9761"/>
<polygon fill="#191970" stroke="#191970" points="300.9857,-68.4522 290.4062,-69.0206 299.0311,-75.1738 300.9857,-68.4522"/>
</g>
<!-- Node325 -->
<g id="node15" class="node">
<title>Node325</title>
<g id="a_node15"><a xlink:href="class_wallet_model.html#a51469b2d95cfd4bc0a14ee456fca7b95" target="_top" xlink:title="WalletModel::pollBalance\lChanged">
<polygon fill="#ffffff" stroke="#000000" points="363.5,-.5 363.5,-30.5 490.5,-30.5 490.5,-.5 363.5,-.5"/>
<text text-anchor="start" x="371.5" y="-18.5" font-family="Helvetica,sans-Serif" font-size="10.00" fill="#000000">WalletModel::pollBalance</text>
<text text-anchor="middle" x="427" y="-7.5" font-family="Helvetica,sans-Serif" font-size="10.00" fill="#000000">Changed</text>
</a>
</g>
</g>
<!-- Node324&#45;&gt;Node325 -->
<g id="edge19" class="edge">
<title>Node324&#45;&gt;Node325</title>
<path fill="none" stroke="#191970" d="M323.3461,-15.5C336.7502,-15.5 350.5086,-15.5 363.4429,-15.5"/>
<polygon fill="#191970" stroke="#191970" points="323.1845,-12.0001 313.1845,-15.5 323.1844,-19.0001 323.1845,-12.0001"/>
</g>
<!-- Node326 -->
<g id="node16" class="node">
<title>Node326</title>
<g id="a_node16"><a xlink:href="class_wallet_model.html#a36282857c97bcaad796a2b5c7398245c" target="_top" xlink:title="WalletModel::WalletModel">
<polygon fill="#ffffff" stroke="#000000" points="533,-6 533,-25 664,-25 664,-6 533,-6"/>
<text text-anchor="middle" x="598.5" y="-13" font-family="Helvetica,sans-Serif" font-size="10.00" fill="#000000">WalletModel::WalletModel</text>
</a>
</g>
</g>
<!-- Node325&#45;&gt;Node326 -->
<g id="edge20" class="edge">
<title>Node325&#45;&gt;Node326</title>
<path fill="none" stroke="#191970" d="M500.9432,-15.5C511.5612,-15.5 522.4255,-15.5 532.8679,-15.5"/>
<polygon fill="#191970" stroke="#191970" points="500.8603,-12.0001 490.8603,-15.5 500.8602,-19.0001 500.8603,-12.0001"/>
</g>
</g>
</svg>
