<?xml version="1.0" encoding="UTF-8" standalone="no"?>
<!DOCTYPE svg PUBLIC "-//W3C//DTD SVG 1.1//EN"
 "http://www.w3.org/Graphics/SVG/1.1/DTD/svg11.dtd">
<!-- Generated by graphviz version 2.40.1 (20161225.0304)
 -->
<!-- Title: ClientModel::getTotalBytesRecv Pages: 1 -->
<svg width="1040pt" height="214pt"
 viewBox="0.00 0.00 1040.00 213.50" xmlns="http://www.w3.org/2000/svg" xmlns:xlink="http://www.w3.org/1999/xlink">
<g id="graph0" class="graph" transform="scale(1 1) rotate(0) translate(4 209.5)">
<title>ClientModel::getTotalBytesRecv</title>
<polygon fill="#ffffff" stroke="transparent" points="-4,4 -4,-209.5 1036,-209.5 1036,4 -4,4"/>
<!-- Node184 -->
<g id="node1" class="node">
<title>Node184</title>
<polygon fill="#bfbfbf" stroke="#000000" points="0,-104 0,-123 158,-123 158,-104 0,-104"/>
<text text-anchor="middle" x="79" y="-111" font-family="Helvetica,sans-Serif" font-size="10.00" fill="#000000">ClientModel::getTotalBytesRecv</text>
</g>
<!-- Node185 -->
<g id="node2" class="node">
<title>Node185</title>
<g id="a_node2"><a xlink:href="class_client_model.html#a82d434ebd032c00736e043ce2d36ac5e" target="_top" xlink:title="ClientModel::updateTimer">
<polygon fill="#ffffff" stroke="#000000" points="203,-186 203,-205 331,-205 331,-186 203,-186"/>
<text text-anchor="middle" x="267" y="-193" font-family="Helvetica,sans-Serif" font-size="10.00" fill="#000000">ClientModel::updateTimer</text>
</a>
</g>
</g>
<!-- Node184&#45;&gt;Node185 -->
<g id="edge1" class="edge">
<title>Node184&#45;&gt;Node185</title>
<path fill="none" stroke="#191970" d="M102.2492,-128.4746C124.9064,-142.5197 160.7123,-163.2855 194,-176.5 203.2506,-180.1723 213.4425,-183.3387 223.2015,-185.976"/>
<polygon fill="#191970" stroke="#191970" points="104.0039,-125.4437 93.674,-123.0894 100.2811,-131.3717 104.0039,-125.4437"/>
</g>
<!-- Node187 -->
<g id="node4" class="node">
<title>Node187</title>
<g id="a_node4"><a xlink:href="class_r_p_c_console.html#a355349a33664a07628e9ca22a60f5fa7" target="_top" xlink:title="RPCConsole::setClientModel">
<polygon fill="#ffffff" stroke="#000000" points="194,-148 194,-167 340,-167 340,-148 194,-148"/>
<text text-anchor="middle" x="267" y="-155" font-family="Helvetica,sans-Serif" font-size="10.00" fill="#000000">RPCConsole::setClientModel</text>
</a>
</g>
</g>
<!-- Node184&#45;&gt;Node187 -->
<g id="edge3" class="edge">
<title>Node184&#45;&gt;Node187</title>
<path fill="none" stroke="#191970" d="M129.7448,-125.3764C160.0289,-132.4642 197.9732,-141.3448 226.2864,-147.9713"/>
<polygon fill="#191970" stroke="#191970" points="130.3277,-121.9184 119.7932,-123.0473 128.7325,-128.7342 130.3277,-121.9184"/>
</g>
<!-- Node193 -->
<g id="node10" class="node">
<title>Node193</title>
<g id="a_node10"><a xlink:href="class_traffic_graph_widget.html#a8f627aaf6171695d94a0e83b239fe1ac" target="_top" xlink:title="TrafficGraphWidget\l::setClientModel">
<polygon fill="#ffffff" stroke="#000000" points="216.5,-98.5 216.5,-128.5 317.5,-128.5 317.5,-98.5 216.5,-98.5"/>
<text text-anchor="start" x="224.5" y="-116.5" font-family="Helvetica,sans-Serif" font-size="10.00" fill="#000000">TrafficGraphWidget</text>
<text text-anchor="middle" x="267" y="-105.5" font-family="Helvetica,sans-Serif" font-size="10.00" fill="#000000">::setClientModel</text>
</a>
</g>
</g>
<!-- Node184&#45;&gt;Node193 -->
<g id="edge10" class="edge">
<title>Node184&#45;&gt;Node193</title>
<path fill="none" stroke="#191970" d="M168.3862,-113.5C184.8398,-113.5 201.4824,-113.5 216.2909,-113.5"/>
<polygon fill="#191970" stroke="#191970" points="168.1841,-110.0001 158.184,-113.5 168.184,-117.0001 168.1841,-110.0001"/>
</g>
<!-- Node194 -->
<g id="node11" class="node">
<title>Node194</title>
<g id="a_node11"><a xlink:href="class_traffic_graph_widget.html#a5a1ae0d0a8cc43c67386de4aa1111340" target="_top" xlink:title="TrafficGraphWidget\l::updateRates">
<polygon fill="#ffffff" stroke="#000000" points="216.5,-49.5 216.5,-79.5 317.5,-79.5 317.5,-49.5 216.5,-49.5"/>
<text text-anchor="start" x="224.5" y="-67.5" font-family="Helvetica,sans-Serif" font-size="10.00" fill="#000000">TrafficGraphWidget</text>
<text text-anchor="middle" x="267" y="-56.5" font-family="Helvetica,sans-Serif" font-size="10.00" fill="#000000">::updateRates</text>
</a>
</g>
</g>
<!-- Node184&#45;&gt;Node194 -->
<g id="edge11" class="edge">
<title>Node184&#45;&gt;Node194</title>
<path fill="none" stroke="#191970" d="M125.4773,-101.3862C153.0071,-94.2109 187.9162,-85.1123 216.1748,-77.747"/>
<polygon fill="#191970" stroke="#191970" points="124.4885,-98.0269 115.6946,-103.936 126.2541,-104.8006 124.4885,-98.0269"/>
</g>
<!-- Node196 -->
<g id="node13" class="node">
<title>Node196</title>
<g id="a_node13"><a xlink:href="class_traffic_graph_widget.html#a71c23db2649ab8781fa9a294e540b7ee" target="_top" xlink:title="TrafficGraphWidget\l::clear">
<polygon fill="#ffffff" stroke="#000000" points="216.5,-.5 216.5,-30.5 317.5,-30.5 317.5,-.5 216.5,-.5"/>
<text text-anchor="start" x="224.5" y="-18.5" font-family="Helvetica,sans-Serif" font-size="10.00" fill="#000000">TrafficGraphWidget</text>
<text text-anchor="middle" x="267" y="-7.5" font-family="Helvetica,sans-Serif" font-size="10.00" fill="#000000">::clear</text>
</a>
</g>
</g>
<!-- Node184&#45;&gt;Node196 -->
<g id="edge13" class="edge">
<title>Node184&#45;&gt;Node196</title>
<path fill="none" stroke="#191970" d="M99.541,-97.9848C121.8497,-81.6962 158.9965,-56.1807 194,-39.5 201.1056,-36.1139 208.8134,-33.0138 216.4685,-30.2477"/>
<polygon fill="#191970" stroke="#191970" points="97.443,-95.1831 91.481,-103.9413 101.6034,-100.8126 97.443,-95.1831"/>
</g>
<!-- Node186 -->
<g id="node3" class="node">
<title>Node186</title>
<g id="a_node3"><a xlink:href="class_client_model.html#aec1d32d5dc8c094eba66036a19a22854" target="_top" xlink:title="ClientModel::ClientModel">
<polygon fill="#ffffff" stroke="#000000" points="380,-186 380,-205 506,-205 506,-186 380,-186"/>
<text text-anchor="middle" x="443" y="-193" font-family="Helvetica,sans-Serif" font-size="10.00" fill="#000000">ClientModel::ClientModel</text>
</a>
</g>
</g>
<!-- Node185&#45;&gt;Node186 -->
<g id="edge2" class="edge">
<title>Node185&#45;&gt;Node186</title>
<path fill="none" stroke="#191970" d="M341.2434,-195.5C354.1032,-195.5 367.3648,-195.5 379.893,-195.5"/>
<polygon fill="#191970" stroke="#191970" points="341.0379,-192.0001 331.0379,-195.5 341.0379,-199.0001 341.0379,-192.0001"/>
</g>
<!-- Node188 -->
<g id="node5" class="node">
<title>Node188</title>
<g id="a_node5"><a xlink:href="class_raven_g_u_i.html#a174a3e75c334c5930d3261a2955c3725" target="_top" xlink:title="Set the client model. ">
<polygon fill="#ffffff" stroke="#000000" points="376,-148 376,-167 510,-167 510,-148 376,-148"/>
<text text-anchor="middle" x="443" y="-155" font-family="Helvetica,sans-Serif" font-size="10.00" fill="#000000">RavenGUI::setClientModel</text>
</a>
</g>
</g>
<!-- Node187&#45;&gt;Node188 -->
<g id="edge4" class="edge">
<title>Node187&#45;&gt;Node188</title>
<path fill="none" stroke="#191970" d="M350.1395,-157.5C358.7235,-157.5 367.3692,-157.5 375.7488,-157.5"/>
<polygon fill="#191970" stroke="#191970" points="350.1109,-154.0001 340.1108,-157.5 350.1108,-161.0001 350.1109,-154.0001"/>
</g>
<!-- Node189 -->
<g id="node6" class="node">
<title>Node189</title>
<g id="a_node6"><a xlink:href="class_raven_application.html#a60123f611cc210870fa67974cb2c804c" target="_top" xlink:title="Request core shutdown. ">
<polygon fill="#ffffff" stroke="#000000" points="901,-164.5 901,-194.5 1032,-194.5 1032,-164.5 901,-164.5"/>
<text text-anchor="start" x="909" y="-182.5" font-family="Helvetica,sans-Serif" font-size="10.00" fill="#000000">RavenApplication::request</text>
<text text-anchor="middle" x="966.5" y="-171.5" font-family="Helvetica,sans-Serif" font-size="10.00" fill="#000000">Shutdown</text>
</a>
</g>
</g>
<!-- Node188&#45;&gt;Node189 -->
<g id="edge5" class="edge">
<title>Node188&#45;&gt;Node189</title>
<path fill="none" stroke="#191970" d="M520.1333,-160.7415C623.2203,-165.0737 804.1346,-172.6766 900.9629,-176.7458"/>
<polygon fill="#191970" stroke="#191970" points="520.238,-157.2429 510.0999,-160.3199 519.944,-164.2367 520.238,-157.2429"/>
</g>
<!-- Node190 -->
<g id="node7" class="node">
<title>Node190</title>
<g id="a_node7"><a xlink:href="class_raven_application.html#a1a3dcf33ba44507984b2a04e7ebf1542" target="_top" xlink:title="RavenApplication::initialize\lResult">
<polygon fill="#ffffff" stroke="#000000" points="546,-120.5 546,-150.5 680,-150.5 680,-120.5 546,-120.5"/>
<text text-anchor="start" x="554" y="-138.5" font-family="Helvetica,sans-Serif" font-size="10.00" fill="#000000">RavenApplication::initialize</text>
<text text-anchor="middle" x="613" y="-127.5" font-family="Helvetica,sans-Serif" font-size="10.00" fill="#000000">Result</text>
</a>
</g>
</g>
<!-- Node188&#45;&gt;Node190 -->
<g id="edge6" class="edge">
<title>Node188&#45;&gt;Node190</title>
<path fill="none" stroke="#191970" d="M520.146,-147.5164C528.6879,-146.411 537.3366,-145.2917 545.7428,-144.2039"/>
<polygon fill="#191970" stroke="#191970" points="519.6566,-144.0505 510.1885,-148.805 520.555,-150.9926 519.6566,-144.0505"/>
</g>
<!-- Node191 -->
<g id="node8" class="node">
<title>Node191</title>
<g id="a_node8"><a xlink:href="class_raven_application.html#aecfdce3a245b959def5dd35e5cfb192e" target="_top" xlink:title="RavenApplication::startThread">
<polygon fill="#ffffff" stroke="#000000" points="716,-126 716,-145 865,-145 865,-126 716,-126"/>
<text text-anchor="middle" x="790.5" y="-133" font-family="Helvetica,sans-Serif" font-size="10.00" fill="#000000">RavenApplication::startThread</text>
</a>
</g>
</g>
<!-- Node190&#45;&gt;Node191 -->
<g id="edge7" class="edge">
<title>Node190&#45;&gt;Node191</title>
<path fill="none" stroke="#191970" d="M690.3486,-135.5C698.821,-135.5 707.4344,-135.5 715.873,-135.5"/>
<polygon fill="#191970" stroke="#191970" points="690.1052,-132.0001 680.1051,-135.5 690.1051,-139.0001 690.1052,-132.0001"/>
</g>
<!-- Node191&#45;&gt;Node189 -->
<g id="edge9" class="edge">
<title>Node191&#45;&gt;Node189</title>
<path fill="none" stroke="#191970" d="M838.6046,-147.5261C859.4811,-152.7453 884.1576,-158.9144 906.2385,-164.4346"/>
<polygon fill="#191970" stroke="#191970" points="839.2397,-144.0773 828.6894,-145.0473 837.5419,-150.8683 839.2397,-144.0773"/>
</g>
<!-- Node192 -->
<g id="node9" class="node">
<title>Node192</title>
<g id="a_node9"><a xlink:href="class_raven_application.html#a63a2032fef875fb81f26c212f69d000d" target="_top" xlink:title="Request core initialization. ">
<polygon fill="#ffffff" stroke="#000000" points="901,-115.5 901,-145.5 1032,-145.5 1032,-115.5 901,-115.5"/>
<text text-anchor="start" x="909" y="-133.5" font-family="Helvetica,sans-Serif" font-size="10.00" fill="#000000">RavenApplication::request</text>
<text text-anchor="middle" x="966.5" y="-122.5" font-family="Helvetica,sans-Serif" font-size="10.00" fill="#000000">Initialize</text>
</a>
</g>
</g>
<!-- Node191&#45;&gt;Node192 -->
<g id="edge8" class="edge">
<title>Node191&#45;&gt;Node192</title>
<path fill="none" stroke="#191970" d="M875.2384,-133.0927C883.8743,-132.8473 892.5522,-132.6008 900.9387,-132.3625"/>
<polygon fill="#191970" stroke="#191970" points="875.0364,-129.5969 865.1398,-133.3795 875.2352,-136.5941 875.0364,-129.5969"/>
</g>
<!-- Node195 -->
<g id="node12" class="node">
<title>Node195</title>
<g id="a_node12"><a xlink:href="class_traffic_graph_widget.html#a99f4f3f14bab99bef8918cb4f5f69aa6" target="_top" xlink:title="TrafficGraphWidget\l::TrafficGraphWidget">
<polygon fill="#ffffff" stroke="#000000" points="389.5,-49.5 389.5,-79.5 496.5,-79.5 496.5,-49.5 389.5,-49.5"/>
<text text-anchor="start" x="397.5" y="-67.5" font-family="Helvetica,sans-Serif" font-size="10.00" fill="#000000">TrafficGraphWidget</text>
<text text-anchor="middle" x="443" y="-56.5" font-family="Helvetica,sans-Serif" font-size="10.00" fill="#000000">::TrafficGraphWidget</text>
</a>
</g>
</g>
<!-- Node194&#45;&gt;Node195 -->
<g id="edge12" class="edge">
<title>Node194&#45;&gt;Node195</title>
<path fill="none" stroke="#191970" d="M328.1332,-64.5C348.0925,-64.5 370.0914,-64.5 389.4493,-64.5"/>
<polygon fill="#191970" stroke="#191970" points="327.9065,-61.0001 317.9065,-64.5 327.9065,-68.0001 327.9065,-61.0001"/>
</g>
<!-- Node197 -->
<g id="node14" class="node">
<title>Node197</title>
<g id="a_node14"><a xlink:href="class_traffic_graph_widget.html#aa08cb5ae735e58a79bdff42b933ec4c4" target="_top" xlink:title="TrafficGraphWidget\l::setGraphRangeMins">
<polygon fill="#ffffff" stroke="#000000" points="387,-.5 387,-30.5 499,-30.5 499,-.5 387,-.5"/>
<text text-anchor="start" x="395" y="-18.5" font-family="Helvetica,sans-Serif" font-size="10.00" fill="#000000">TrafficGraphWidget</text>
<text text-anchor="middle" x="443" y="-7.5" font-family="Helvetica,sans-Serif" font-size="10.00" fill="#000000">::setGraphRangeMins</text>
</a>
</g>
</g>
<!-- Node196&#45;&gt;Node197 -->
<g id="edge14" class="edge">
<title>Node196&#45;&gt;Node197</title>
<path fill="none" stroke="#191970" d="M328.0201,-15.5C347.1613,-15.5 368.1878,-15.5 386.9667,-15.5"/>
<polygon fill="#191970" stroke="#191970" points="327.9065,-12.0001 317.9065,-15.5 327.9065,-19.0001 327.9065,-12.0001"/>
</g>
</g>
</svg>
