<?xml version="1.0" encoding="UTF-8" standalone="no"?>
<!DOCTYPE svg PUBLIC "-//W3C//DTD SVG 1.1//EN"
 "http://www.w3.org/Graphics/SVG/1.1/DTD/svg11.dtd">
<!-- Generated by graphviz version 2.40.1 (20161225.0304)
 -->
<!-- Title: CreateAssetDialog::onAddressNameChanged Pages: 1 -->
<svg width="939pt" height="1171pt"
 viewBox="0.00 0.00 939.00 1170.50" xmlns="http://www.w3.org/2000/svg" xmlns:xlink="http://www.w3.org/1999/xlink">
<g id="graph0" class="graph" transform="scale(1 1) rotate(0) translate(4 1166.5)">
<title>CreateAssetDialog::onAddressNameChanged</title>
<polygon fill="#ffffff" stroke="transparent" points="-4,4 -4,-1166.5 935,-1166.5 935,4 -4,4"/>
<!-- Node888 -->
<g id="node1" class="node">
<title>Node888</title>
<polygon fill="#bfbfbf" stroke="#000000" points="0,-251.5 0,-281.5 128,-281.5 128,-251.5 0,-251.5"/>
<text text-anchor="start" x="8" y="-269.5" font-family="Helvetica,sans-Serif" font-size="10.00" fill="#000000">CreateAssetDialog::</text>
<text text-anchor="middle" x="64" y="-258.5" font-family="Helvetica,sans-Serif" font-size="10.00" fill="#000000">onAddressNameChanged</text>
</g>
<!-- Node889 -->
<g id="node2" class="node">
<title>Node889</title>
<g id="a_node2"><a xlink:href="class_create_asset_dialog.html#ab2f436e4d04c3e1ddbf743fc3eafa958" target="_top" xlink:title="CreateAssetDialog::\lCheckFormState">
<polygon fill="#ffffff" stroke="#000000" points="164,-251.5 164,-281.5 269,-281.5 269,-251.5 164,-251.5"/>
<text text-anchor="start" x="172" y="-269.5" font-family="Helvetica,sans-Serif" font-size="10.00" fill="#000000">CreateAssetDialog::</text>
<text text-anchor="middle" x="216.5" y="-258.5" font-family="Helvetica,sans-Serif" font-size="10.00" fill="#000000">CheckFormState</text>
</a>
</g>
</g>
<!-- Node888&#45;&gt;Node889 -->
<g id="edge1" class="edge">
<title>Node888&#45;&gt;Node889</title>
<path fill="none" stroke="#191970" d="M128.2317,-266.5C136.6809,-266.5 145.332,-266.5 153.7559,-266.5"/>
<polygon fill="#191970" stroke="#191970" points="153.8897,-270.0001 163.8897,-266.5 153.8897,-263.0001 153.8897,-270.0001"/>
</g>
<!-- Node890 -->
<g id="node3" class="node">
<title>Node890</title>
<g id="a_node3"><a xlink:href="class_create_asset_dialog.html#ac86e59d06648856407d3dff4922c9086" target="_top" xlink:title="CreateAssetDialog::\ldisableCreateButton">
<polygon fill="#ffffff" stroke="#000000" points="466.5,-793.5 466.5,-823.5 571.5,-823.5 571.5,-793.5 466.5,-793.5"/>
<text text-anchor="start" x="474.5" y="-811.5" font-family="Helvetica,sans-Serif" font-size="10.00" fill="#000000">CreateAssetDialog::</text>
<text text-anchor="middle" x="519" y="-800.5" font-family="Helvetica,sans-Serif" font-size="10.00" fill="#000000">disableCreateButton</text>
</a>
</g>
</g>
<!-- Node889&#45;&gt;Node890 -->
<g id="edge2" class="edge">
<title>Node889&#45;&gt;Node890</title>
<path fill="none" stroke="#191970" d="M217.1448,-281.5524C219.9714,-333.7021 234.5224,-510.1404 305,-632.5 353.7947,-717.2149 382.6117,-730.3384 464,-784.5 466.1249,-785.9141 468.3469,-787.2773 470.6278,-788.5865"/>
<polygon fill="#191970" stroke="#191970" points="469.1626,-791.7711 479.6375,-793.3612 472.4405,-785.5859 469.1626,-791.7711"/>
</g>
<!-- Node891 -->
<g id="node4" class="node">
<title>Node891</title>
<g id="a_node4"><a xlink:href="class_create_asset_dialog.html#a0a9efcbea039147ee3d5a13f205f3636" target="_top" xlink:title="CreateAssetDialog::\lhideMessage">
<polygon fill="#ffffff" stroke="#000000" points="466.5,-744.5 466.5,-774.5 571.5,-774.5 571.5,-744.5 466.5,-744.5"/>
<text text-anchor="start" x="474.5" y="-762.5" font-family="Helvetica,sans-Serif" font-size="10.00" fill="#000000">CreateAssetDialog::</text>
<text text-anchor="middle" x="519" y="-751.5" font-family="Helvetica,sans-Serif" font-size="10.00" fill="#000000">hideMessage</text>
</a>
</g>
</g>
<!-- Node889&#45;&gt;Node891 -->
<g id="edge3" class="edge">
<title>Node889&#45;&gt;Node891</title>
<path fill="none" stroke="#191970" d="M219.558,-281.7751C228.4102,-323.9521 256.5573,-444.8307 305,-534.5 358.9745,-634.4088 374.4916,-664.6196 464,-734.5 466.2477,-736.2548 468.6384,-737.9189 471.1162,-739.4917"/>
<polygon fill="#191970" stroke="#191970" points="469.3828,-742.5323 479.7958,-744.4867 472.8744,-736.4652 469.3828,-742.5323"/>
</g>
<!-- Node892 -->
<g id="node5" class="node">
<title>Node892</title>
<g id="a_node5"><a xlink:href="base58_8cpp.html#a8a781e21ad4ecccd9c97c7d890ef7d6f" target="_top" xlink:title="DecodeDestination">
<polygon fill="#ffffff" stroke="#000000" points="316.5,-301 316.5,-320 416.5,-320 416.5,-301 316.5,-301"/>
<text text-anchor="middle" x="366.5" y="-308" font-family="Helvetica,sans-Serif" font-size="10.00" fill="#000000">DecodeDestination</text>
</a>
</g>
</g>
<!-- Node889&#45;&gt;Node892 -->
<g id="edge4" class="edge">
<title>Node889&#45;&gt;Node892</title>
<path fill="none" stroke="#191970" d="M267.702,-281.5192C286.0062,-286.8885 306.4202,-292.8766 323.9188,-298.0095"/>
<polygon fill="#191970" stroke="#191970" points="323.2659,-301.4654 333.8468,-300.9217 325.2362,-294.7484 323.2659,-301.4654"/>
</g>
<!-- Node899 -->
<g id="node10" class="node">
<title>Node899</title>
<g id="a_node10"><a xlink:href="class_create_asset_dialog.html#a5f1cb5ddd6d4f4628e55be71a02c608d" target="_top" xlink:title="CreateAssetDialog::\lGetAssetName">
<polygon fill="#ffffff" stroke="#000000" points="314,-251.5 314,-281.5 419,-281.5 419,-251.5 314,-251.5"/>
<text text-anchor="start" x="322" y="-269.5" font-family="Helvetica,sans-Serif" font-size="10.00" fill="#000000">CreateAssetDialog::</text>
<text text-anchor="middle" x="366.5" y="-258.5" font-family="Helvetica,sans-Serif" font-size="10.00" fill="#000000">GetAssetName</text>
</a>
</g>
</g>
<!-- Node889&#45;&gt;Node899 -->
<g id="edge9" class="edge">
<title>Node889&#45;&gt;Node899</title>
<path fill="none" stroke="#191970" d="M269.3844,-266.5C280.4273,-266.5 292.1727,-266.5 303.5393,-266.5"/>
<polygon fill="#191970" stroke="#191970" points="303.8406,-270.0001 313.8405,-266.5 303.8405,-263.0001 303.8406,-270.0001"/>
</g>
<!-- Node900 -->
<g id="node11" class="node">
<title>Node900</title>
<g id="a_node11"><a xlink:href="assettypes_8cpp.html#a4e30ad1d1a0e7f52fc2f8f1bf11e0f22" target="_top" xlink:title="IntFromAssetType">
<polygon fill="#ffffff" stroke="#000000" points="470,-203 470,-222 568,-222 568,-203 470,-203"/>
<text text-anchor="middle" x="519" y="-210" font-family="Helvetica,sans-Serif" font-size="10.00" fill="#000000">IntFromAssetType</text>
</a>
</g>
</g>
<!-- Node889&#45;&gt;Node900 -->
<g id="edge40" class="edge">
<title>Node889&#45;&gt;Node900</title>
<path fill="none" stroke="#191970" d="M267.7157,-251.4405C279.8677,-248.1933 292.8354,-244.9918 305,-242.5 356.8884,-231.871 416.6312,-223.8413 459.7838,-218.7767"/>
<polygon fill="#191970" stroke="#191970" points="460.2976,-222.2407 469.8298,-217.616 459.4941,-215.287 460.2976,-222.2407"/>
</g>
<!-- Node901 -->
<g id="node12" class="node">
<title>Node901</title>
<g id="a_node12"><a xlink:href="util_8h.html#a96c5fc7111f69f7dcaba992d95d13e03" target="_top" xlink:title="error">
<polygon fill="#ffffff" stroke="#000000" points="501,-706 501,-725 537,-725 537,-706 501,-706"/>
<text text-anchor="middle" x="519" y="-713" font-family="Helvetica,sans-Serif" font-size="10.00" fill="#000000">error</text>
</a>
</g>
</g>
<!-- Node889&#45;&gt;Node901 -->
<g id="edge11" class="edge">
<title>Node889&#45;&gt;Node901</title>
<path fill="none" stroke="#191970" d="M223.2425,-281.5353C237.0393,-311.7833 270.1427,-381.7746 305,-436.5 371.5786,-541.0274 467.1418,-655.2284 503.8485,-698.0246"/>
<polygon fill="#191970" stroke="#191970" points="501.3903,-700.5336 510.5683,-705.8265 506.6942,-695.9654 501.3903,-700.5336"/>
</g>
<!-- Node931 -->
<g id="node36" class="node">
<title>Node931</title>
<g id="a_node36"><a xlink:href="assets_2assets_8cpp.html#a825ae021aa75698b44ac054638bc1033" target="_top" xlink:title="Given a type, and an asset name, return if that name is valid based on the type. ">
<polygon fill="#ffffff" stroke="#000000" points="305,-175 305,-194 428,-194 428,-175 305,-175"/>
<text text-anchor="middle" x="366.5" y="-182" font-family="Helvetica,sans-Serif" font-size="10.00" fill="#000000">IsTypeCheckNameValid</text>
</a>
</g>
</g>
<!-- Node889&#45;&gt;Node931 -->
<g id="edge38" class="edge">
<title>Node889&#45;&gt;Node931</title>
<path fill="none" stroke="#191970" d="M236.8575,-251.3986C254.3345,-238.8712 280.5092,-221.1291 305,-208.5 312.5318,-204.6161 320.843,-200.9737 328.8552,-197.7573"/>
<polygon fill="#191970" stroke="#191970" points="330.3465,-200.9331 338.4074,-194.0576 327.8183,-194.4056 330.3465,-200.9331"/>
</g>
<!-- Node932 -->
<g id="node37" class="node">
<title>Node932</title>
<g id="a_node37"><a xlink:href="assettypes_8cpp.html#a466a3d882e7ea5bf23e7ecee445b2d3d" target="_top" xlink:title="AssetTypeFromInt">
<polygon fill="#ffffff" stroke="#000000" points="317.5,-137 317.5,-156 415.5,-156 415.5,-137 317.5,-137"/>
<text text-anchor="middle" x="366.5" y="-144" font-family="Helvetica,sans-Serif" font-size="10.00" fill="#000000">AssetTypeFromInt</text>
</a>
</g>
</g>
<!-- Node889&#45;&gt;Node932 -->
<g id="edge39" class="edge">
<title>Node889&#45;&gt;Node932</title>
<path fill="none" stroke="#191970" d="M225.7215,-251.486C240.0161,-229.4452 269.5981,-188.4649 305,-165.5 308.1378,-163.4646 311.5063,-161.6366 314.9915,-159.9966"/>
<polygon fill="#191970" stroke="#191970" points="316.5208,-163.1513 324.4117,-156.0813 313.8342,-156.6874 316.5208,-163.1513"/>
</g>
<!-- Node933 -->
<g id="node38" class="node">
<title>Node933</title>
<g id="a_node38"><a xlink:href="class_create_asset_dialog.html#a1d58463ebfa5875e617cd3faedf862ac" target="_top" xlink:title="CreateAssetDialog::\lshowMessage">
<polygon fill="#ffffff" stroke="#000000" points="466.5,-304.5 466.5,-334.5 571.5,-334.5 571.5,-304.5 466.5,-304.5"/>
<text text-anchor="start" x="474.5" y="-322.5" font-family="Helvetica,sans-Serif" font-size="10.00" fill="#000000">CreateAssetDialog::</text>
<text text-anchor="middle" x="519" y="-311.5" font-family="Helvetica,sans-Serif" font-size="10.00" fill="#000000">showMessage</text>
</a>
</g>
</g>
<!-- Node889&#45;&gt;Node933 -->
<g id="edge41" class="edge">
<title>Node889&#45;&gt;Node933</title>
<path fill="none" stroke="#191970" d="M231.4593,-281.697C247.8454,-297.1598 275.7172,-320.1418 305,-329.5 354.1375,-345.2034 412.8464,-340.9558 456.3322,-333.7661"/>
<polygon fill="#191970" stroke="#191970" points="456.9572,-337.21 466.2053,-332.0405 455.752,-330.3145 456.9572,-337.21"/>
</g>
<!-- Node934 -->
<g id="node39" class="node">
<title>Node934</title>
<g id="a_node39"><a xlink:href="standard_8cpp.html#adb3a21e4afe9c672720b182ddc7cad7c" target="_top" xlink:title="Check whether a CTxDestination is a CNoDestination. ">
<polygon fill="#ffffff" stroke="#000000" points="318.5,-99 318.5,-118 414.5,-118 414.5,-99 318.5,-99"/>
<text text-anchor="middle" x="366.5" y="-106" font-family="Helvetica,sans-Serif" font-size="10.00" fill="#000000">IsValidDestination</text>
</a>
</g>
</g>
<!-- Node889&#45;&gt;Node934 -->
<g id="edge42" class="edge">
<title>Node889&#45;&gt;Node934</title>
<path fill="none" stroke="#191970" d="M221.9659,-251.4737C233.0935,-222.9878 261.1035,-160.9908 305,-127.5 307.4529,-125.6285 310.0921,-123.9397 312.8489,-122.416"/>
<polygon fill="#191970" stroke="#191970" points="314.4343,-125.5378 321.9693,-118.0896 311.4342,-119.2132 314.4343,-125.5378"/>
</g>
<!-- Node935 -->
<g id="node40" class="node">
<title>Node935</title>
<g id="a_node40"><a xlink:href="class_create_asset_dialog.html#a5906e5b70ee2ad507cd8cb4b269423ac" target="_top" xlink:title="CreateAssetDialog::\lcheckIPFSHash">
<polygon fill="#ffffff" stroke="#000000" points="314,-396.5 314,-426.5 419,-426.5 419,-396.5 314,-396.5"/>
<text text-anchor="start" x="322" y="-414.5" font-family="Helvetica,sans-Serif" font-size="10.00" fill="#000000">CreateAssetDialog::</text>
<text text-anchor="middle" x="366.5" y="-403.5" font-family="Helvetica,sans-Serif" font-size="10.00" fill="#000000">checkIPFSHash</text>
</a>
</g>
</g>
<!-- Node889&#45;&gt;Node935 -->
<g id="edge43" class="edge">
<title>Node889&#45;&gt;Node935</title>
<path fill="none" stroke="#191970" d="M229.3225,-281.8061C245.967,-301.3365 276.2898,-335.7863 305,-362.5 315.2521,-372.0392 327.1625,-381.801 337.7563,-390.0755"/>
<polygon fill="#191970" stroke="#191970" points="335.8554,-393.0293 345.9131,-396.36 340.1276,-387.4842 335.8554,-393.0293"/>
</g>
<!-- Node950 -->
<g id="node49" class="node">
<title>Node950</title>
<g id="a_node49"><a xlink:href="class_create_asset_dialog.html#ac6a9d6930c37240f740ae857ee25d468" target="_top" xlink:title="CreateAssetDialog::\lshowValidMessage">
<polygon fill="#ffffff" stroke="#000000" points="314,-49.5 314,-79.5 419,-79.5 419,-49.5 314,-49.5"/>
<text text-anchor="start" x="322" y="-67.5" font-family="Helvetica,sans-Serif" font-size="10.00" fill="#000000">CreateAssetDialog::</text>
<text text-anchor="middle" x="366.5" y="-56.5" font-family="Helvetica,sans-Serif" font-size="10.00" fill="#000000">showValidMessage</text>
</a>
</g>
</g>
<!-- Node889&#45;&gt;Node950 -->
<g id="edge57" class="edge">
<title>Node889&#45;&gt;Node950</title>
<path fill="none" stroke="#191970" d="M220.1118,-251.4956C228.919,-217.9491 254.566,-136.1671 305,-89.5 306.684,-87.9418 308.4779,-86.4747 310.3546,-85.0941"/>
<polygon fill="#191970" stroke="#191970" points="312.4669,-87.8987 319.0276,-79.5795 308.7109,-81.9916 312.4669,-87.8987"/>
</g>
<!-- Node951 -->
<g id="node50" class="node">
<title>Node951</title>
<g id="a_node50"><a xlink:href="class_create_asset_dialog.html#aba88fc0d76cbce3aaaf6eae4f132cb3e" target="_top" xlink:title="CreateAssetDialog::\lenableCreateButton">
<polygon fill="#ffffff" stroke="#000000" points="314,-.5 314,-30.5 419,-30.5 419,-.5 314,-.5"/>
<text text-anchor="start" x="322" y="-18.5" font-family="Helvetica,sans-Serif" font-size="10.00" fill="#000000">CreateAssetDialog::</text>
<text text-anchor="middle" x="366.5" y="-7.5" font-family="Helvetica,sans-Serif" font-size="10.00" fill="#000000">enableCreateButton</text>
</a>
</g>
</g>
<!-- Node889&#45;&gt;Node951 -->
<g id="edge58" class="edge">
<title>Node889&#45;&gt;Node951</title>
<path fill="none" stroke="#191970" d="M218.2204,-251.2498C223.5345,-211.091 243.2463,-101.2739 305,-39.5 306.0635,-38.4361 307.1797,-37.4183 308.3402,-36.4445"/>
<polygon fill="#191970" stroke="#191970" points="310.411,-39.2668 316.5575,-30.6371 306.371,-33.5503 310.411,-39.2668"/>
</g>
<!-- Node893 -->
<g id="node6" class="node">
<title>Node893</title>
<g id="a_node6"><a xlink:href="class_c_raven_address.html#a5e7e76de59b448a766b7e0c7b959280e" target="_top" xlink:title="CRavenAddress::Get">
<polygon fill="#ffffff" stroke="#000000" points="464,-241 464,-260 574,-260 574,-241 464,-241"/>
<text text-anchor="middle" x="519" y="-248" font-family="Helvetica,sans-Serif" font-size="10.00" fill="#000000">CRavenAddress::Get</text>
</a>
</g>
</g>
<!-- Node892&#45;&gt;Node893 -->
<g id="edge5" class="edge">
<title>Node892&#45;&gt;Node893</title>
<path fill="none" stroke="#191970" d="M399.9491,-300.9884C409.1204,-298.1583 419.0106,-294.8988 428,-291.5 449.3341,-283.4338 472.7868,-272.8234 490.5395,-264.4175"/>
<polygon fill="#191970" stroke="#191970" points="492.255,-267.4768 499.7661,-260.0045 489.2346,-261.1619 492.255,-267.4768"/>
</g>
<!-- Node894 -->
<g id="node7" class="node">
<title>Node894</title>
<g id="a_node7"><a xlink:href="glibc__compat_8cpp.html#a0f46826ab0466591e136db24394923cf" target="_top" xlink:title="memcpy">
<polygon fill="#ffffff" stroke="#ff0000" points="657,-231 657,-250 711,-250 711,-231 657,-231"/>
<text text-anchor="middle" x="684" y="-238" font-family="Helvetica,sans-Serif" font-size="10.00" fill="#000000">memcpy</text>
</a>
</g>
</g>
<!-- Node893&#45;&gt;Node894 -->
<g id="edge6" class="edge">
<title>Node893&#45;&gt;Node894</title>
<path fill="none" stroke="#191970" d="M574.4016,-247.1423C598.1084,-245.7056 625.1734,-244.0652 646.4763,-242.7742"/>
<polygon fill="#191970" stroke="#191970" points="646.9663,-246.251 656.7363,-242.1523 646.5428,-239.2638 646.9663,-246.251"/>
</g>
<!-- Node897 -->
<g id="node8" class="node">
<title>Node897</title>
<g id="a_node8"><a xlink:href="chainparams_8cpp.html#ace5c5b706d71a324a417dd2db394fd4a" target="_top" xlink:title="Return the currently selected parameters. ">
<polygon fill="#ffffff" stroke="#000000" points="659,-193 659,-212 709,-212 709,-193 659,-193"/>
<text text-anchor="middle" x="684" y="-200" font-family="Helvetica,sans-Serif" font-size="10.00" fill="#000000">Params</text>
</a>
</g>
</g>
<!-- Node893&#45;&gt;Node897 -->
<g id="edge7" class="edge">
<title>Node893&#45;&gt;Node897</title>
<path fill="none" stroke="#191970" d="M547.5618,-240.9357C565.4277,-235.0682 588.9644,-227.547 610,-221.5 622.6481,-217.8641 636.6078,-214.1925 648.9626,-211.0591"/>
<polygon fill="#191970" stroke="#191970" points="650.0514,-214.3945 658.899,-208.5661 648.3479,-207.6049 650.0514,-214.3945"/>
</g>
<!-- Node898 -->
<g id="node9" class="node">
<title>Node898</title>
<g id="a_node9"><a xlink:href="class_c_chain_params.html#a103c58eca4a26a71201882b3ed6c4cb4" target="_top" xlink:title="CChainParams::Base58Prefix">
<polygon fill="#ffffff" stroke="#000000" points="610,-155 610,-174 758,-174 758,-155 610,-155"/>
<text text-anchor="middle" x="684" y="-162" font-family="Helvetica,sans-Serif" font-size="10.00" fill="#000000">CChainParams::Base58Prefix</text>
</a>
</g>
</g>
<!-- Node893&#45;&gt;Node898 -->
<g id="edge8" class="edge">
<title>Node893&#45;&gt;Node898</title>
<path fill="none" stroke="#191970" d="M556.59,-240.8962C562.7258,-238.4008 568.7755,-235.3089 574,-231.5 595.5481,-215.7904 587.8314,-198.321 610,-183.5 613.1047,-181.4243 616.4216,-179.5754 619.8665,-177.9285"/>
<polygon fill="#191970" stroke="#191970" points="621.3449,-181.1041 629.2264,-174.0237 618.6497,-174.6438 621.3449,-181.1041"/>
</g>
<!-- Node899&#45;&gt;Node900 -->
<g id="edge10" class="edge">
<title>Node899&#45;&gt;Node900</title>
<path fill="none" stroke="#191970" d="M408.2132,-251.4016C425.4641,-245.1899 445.6796,-237.9524 464,-231.5 469.677,-229.5006 475.6905,-227.4027 481.5764,-225.3605"/>
<polygon fill="#191970" stroke="#191970" points="482.9736,-228.5808 491.2796,-222.0034 480.6848,-221.9655 482.9736,-228.5808"/>
</g>
<!-- Node902 -->
<g id="node13" class="node">
<title>Node902</title>
<g id="a_node13"><a xlink:href="util_8h.html#afd4c3002b2797c0560adddb6af3ca1da" target="_top" xlink:title="Send a string to the log output. ">
<polygon fill="#ffffff" stroke="#000000" points="651.5,-801 651.5,-820 716.5,-820 716.5,-801 651.5,-801"/>
<text text-anchor="middle" x="684" y="-808" font-family="Helvetica,sans-Serif" font-size="10.00" fill="#000000">LogPrintStr</text>
</a>
</g>
</g>
<!-- Node901&#45;&gt;Node902 -->
<g id="edge12" class="edge">
<title>Node901&#45;&gt;Node902</title>
<path fill="none" stroke="#191970" d="M537.0643,-718.9422C548.5749,-721.8445 563.2839,-726.9381 574,-735.5 597.116,-753.9691 586.0119,-774.1786 610,-791.5 619.1388,-798.099 630.3651,-802.4105 641.2858,-805.2261"/>
<polygon fill="#191970" stroke="#191970" points="640.64,-808.6678 651.1604,-807.414 642.1543,-801.8335 640.64,-808.6678"/>
</g>
<!-- Node903 -->
<g id="node14" class="node">
<title>Node903</title>
<g id="a_node14"><a xlink:href="namespacetinyformat.html#a05144619d8b16e2b31b2594ca9c6bf1d" target="_top" xlink:title="Format list of arguments to the stream according to given format string. ">
<polygon fill="#ffffff" stroke="#000000" points="637,-763 637,-782 731,-782 731,-763 637,-763"/>
<text text-anchor="middle" x="684" y="-770" font-family="Helvetica,sans-Serif" font-size="10.00" fill="#000000">tinyformat::format</text>
</a>
</g>
</g>
<!-- Node901&#45;&gt;Node903 -->
<g id="edge13" class="edge">
<title>Node901&#45;&gt;Node903</title>
<path fill="none" stroke="#191970" d="M537.0375,-721.4727C547.8729,-725.205 561.8664,-730.281 574,-735.5 590.4329,-742.5683 593.2424,-747.2404 610,-753.5 616.5117,-755.9324 623.4584,-758.1651 630.3892,-760.178"/>
<polygon fill="#191970" stroke="#191970" points="629.9087,-763.6763 640.4798,-762.9674 631.7739,-756.9294 629.9087,-763.6763"/>
</g>
<!-- Node912 -->
<g id="node17" class="node">
<title>Node912</title>
<g id="a_node17"><a xlink:href="util_8h.html#aaada8c5faa502eb0c33fc01294955db8" target="_top" xlink:title="PrintExceptionContinue">
<polygon fill="#ffffff" stroke="#000000" points="624.5,-725 624.5,-744 743.5,-744 743.5,-725 624.5,-725"/>
<text text-anchor="middle" x="684" y="-732" font-family="Helvetica,sans-Serif" font-size="10.00" fill="#000000">PrintExceptionContinue</text>
</a>
</g>
</g>
<!-- Node901&#45;&gt;Node912 -->
<g id="edge16" class="edge">
<title>Node901&#45;&gt;Node912</title>
<path fill="none" stroke="#191970" d="M537.2883,-717.6059C555.8957,-719.7486 585.9082,-723.2046 613.9549,-726.4342"/>
<polygon fill="#191970" stroke="#191970" points="613.8395,-729.944 624.1742,-727.611 614.6403,-722.9899 613.8395,-729.944"/>
</g>
<!-- Node913 -->
<g id="node18" class="node">
<title>Node913</title>
<g id="a_node18"><a xlink:href="util_8h.html#af0e69a29ba128b74030ad8a213f2037a" target="_top" xlink:title="FileCommit">
<polygon fill="#ffffff" stroke="#000000" points="650.5,-687 650.5,-706 717.5,-706 717.5,-687 650.5,-687"/>
<text text-anchor="middle" x="684" y="-694" font-family="Helvetica,sans-Serif" font-size="10.00" fill="#000000">FileCommit</text>
</a>
</g>
</g>
<!-- Node901&#45;&gt;Node913 -->
<g id="edge17" class="edge">
<title>Node901&#45;&gt;Node913</title>
<path fill="none" stroke="#191970" d="M537.2883,-713.3941C562.0012,-710.5483 606.8314,-705.3861 640.4557,-701.5142"/>
<polygon fill="#191970" stroke="#191970" points="640.9625,-704.9791 650.4964,-700.358 640.1616,-698.025 640.9625,-704.9791"/>
</g>
<!-- Node914 -->
<g id="node19" class="node">
<title>Node914</title>
<g id="a_node19"><a xlink:href="util_8h.html#acb8d6b822bc1bfa609bf43bbac1a0d44" target="_top" xlink:title="TruncateFile">
<polygon fill="#ffffff" stroke="#000000" points="648.5,-649 648.5,-668 719.5,-668 719.5,-649 648.5,-649"/>
<text text-anchor="middle" x="684" y="-656" font-family="Helvetica,sans-Serif" font-size="10.00" fill="#000000">TruncateFile</text>
</a>
</g>
</g>
<!-- Node901&#45;&gt;Node914 -->
<g id="edge18" class="edge">
<title>Node901&#45;&gt;Node914</title>
<path fill="none" stroke="#191970" d="M537.1771,-706.994C555.3367,-698.7155 584.1896,-686.1522 610,-677.5 619.1472,-674.4337 629.0701,-671.576 638.5896,-669.0559"/>
<polygon fill="#191970" stroke="#191970" points="639.5,-672.4358 648.3144,-666.5574 637.758,-665.656 639.5,-672.4358"/>
</g>
<!-- Node915 -->
<g id="node20" class="node">
<title>Node915</title>
<g id="a_node20"><a xlink:href="util_8h.html#a756a5c49a4bb607d16d9842f8f3ede4f" target="_top" xlink:title="this function tries to raise the file descriptor limit to the requested number. ">
<polygon fill="#ffffff" stroke="#000000" points="622,-611 622,-630 746,-630 746,-611 622,-611"/>
<text text-anchor="middle" x="684" y="-618" font-family="Helvetica,sans-Serif" font-size="10.00" fill="#000000">RaiseFileDescriptorLimit</text>
</a>
</g>
</g>
<!-- Node901&#45;&gt;Node915 -->
<g id="edge19" class="edge">
<title>Node901&#45;&gt;Node915</title>
<path fill="none" stroke="#191970" d="M527.5614,-705.9975C542.6276,-689.8632 575.5615,-657.1487 610,-639.5 614.5317,-637.1776 619.3684,-635.1245 624.3167,-633.3122"/>
<polygon fill="#191970" stroke="#191970" points="625.5365,-636.595 633.9194,-630.116 623.3258,-629.9533 625.5365,-636.595"/>
</g>
<!-- Node916 -->
<g id="node21" class="node">
<title>Node916</title>
<g id="a_node21"><a xlink:href="util_8h.html#a91c763bffc49cf7ed8d45cc44870e55c" target="_top" xlink:title="this function tries to make a particular range of a file allocated (corresponding to disk space) it i...">
<polygon fill="#ffffff" stroke="#000000" points="636,-573 636,-592 732,-592 732,-573 636,-573"/>
<text text-anchor="middle" x="684" y="-580" font-family="Helvetica,sans-Serif" font-size="10.00" fill="#000000">AllocateFileRange</text>
</a>
</g>
</g>
<!-- Node901&#45;&gt;Node916 -->
<g id="edge20" class="edge">
<title>Node901&#45;&gt;Node916</title>
<path fill="none" stroke="#191970" d="M523.8783,-705.8037C535.5375,-683.658 567.2626,-629.1489 610,-601.5 614.9941,-598.2691 620.5092,-595.5871 626.2095,-593.3609"/>
<polygon fill="#191970" stroke="#191970" points="627.5966,-596.5853 635.9185,-590.0281 625.3238,-589.9645 627.5966,-596.5853"/>
</g>
<!-- Node917 -->
<g id="node22" class="node">
<title>Node917</title>
<g id="a_node22"><a xlink:href="util_8h.html#a579657da2b55b131ecd453bf1b0d2314" target="_top" xlink:title="RenameOver">
<polygon fill="#ffffff" stroke="#000000" points="647,-535 647,-554 721,-554 721,-535 647,-535"/>
<text text-anchor="middle" x="684" y="-542" font-family="Helvetica,sans-Serif" font-size="10.00" fill="#000000">RenameOver</text>
</a>
</g>
</g>
<!-- Node901&#45;&gt;Node917 -->
<g id="edge21" class="edge">
<title>Node901&#45;&gt;Node917</title>
<path fill="none" stroke="#191970" d="M521.8671,-705.8998C530.4335,-678.932 558.4916,-601.9574 610,-563.5 617.8882,-557.6105 627.4224,-553.5389 636.9852,-550.7262"/>
<polygon fill="#191970" stroke="#191970" points="638.0527,-554.0666 646.8932,-548.2274 636.3408,-547.2792 638.0527,-554.0666"/>
</g>
<!-- Node918 -->
<g id="node23" class="node">
<title>Node918</title>
<g id="a_node23"><a xlink:href="util_8h.html#a9042a919d837da9d97311a0c460c597c" target="_top" xlink:title="Ignores exceptions thrown by Boost&#39;s create_directories if the requested directory exists...">
<polygon fill="#ffffff" stroke="#000000" points="630.5,-497 630.5,-516 737.5,-516 737.5,-497 630.5,-497"/>
<text text-anchor="middle" x="684" y="-504" font-family="Helvetica,sans-Serif" font-size="10.00" fill="#000000">TryCreateDirectories</text>
</a>
</g>
</g>
<!-- Node901&#45;&gt;Node918 -->
<g id="edge22" class="edge">
<title>Node901&#45;&gt;Node918</title>
<path fill="none" stroke="#191970" d="M520.661,-705.8476C526.5658,-674.5729 549.5224,-575.184 610,-525.5 613.3437,-522.7531 617.037,-520.3977 620.9365,-518.3787"/>
<polygon fill="#191970" stroke="#191970" points="622.5908,-521.475 630.3421,-514.2522 619.7784,-515.0648 622.5908,-521.475"/>
</g>
<!-- Node919 -->
<g id="node24" class="node">
<title>Node919</title>
<g id="a_node24"><a xlink:href="util_8h.html#a15cb85964fe08c264605537f44570d3c" target="_top" xlink:title="GetDefaultDataDir">
<polygon fill="#ffffff" stroke="#000000" points="635,-1143 635,-1162 733,-1162 733,-1143 635,-1143"/>
<text text-anchor="middle" x="684" y="-1150" font-family="Helvetica,sans-Serif" font-size="10.00" fill="#000000">GetDefaultDataDir</text>
</a>
</g>
</g>
<!-- Node901&#45;&gt;Node919 -->
<g id="edge23" class="edge">
<title>Node901&#45;&gt;Node919</title>
<path fill="none" stroke="#191970" d="M537.0341,-717.1097C549.4633,-719.2342 565.2605,-724.1485 574,-735.5 628.1753,-805.8666 552.462,-1065.8554 610,-1133.5 614.2298,-1138.4727 619.5685,-1142.2357 625.4333,-1145.0702"/>
<polygon fill="#191970" stroke="#191970" points="624.4106,-1148.428 634.9989,-1148.8007 626.954,-1141.9064 624.4106,-1148.428"/>
</g>
<!-- Node920 -->
<g id="node25" class="node">
<title>Node920</title>
<g id="a_node25"><a xlink:href="util_8h.html#abb63dfb710832aefb746933af05198d4" target="_top" xlink:title="GetDataDir">
<polygon fill="#ffffff" stroke="#000000" points="651,-1105 651,-1124 717,-1124 717,-1105 651,-1105"/>
<text text-anchor="middle" x="684" y="-1112" font-family="Helvetica,sans-Serif" font-size="10.00" fill="#000000">GetDataDir</text>
</a>
</g>
</g>
<!-- Node901&#45;&gt;Node920 -->
<g id="edge24" class="edge">
<title>Node901&#45;&gt;Node920</title>
<path fill="none" stroke="#191970" d="M537.0017,-717.1348C549.4151,-719.2714 565.2069,-724.19 574,-735.5 672.6955,-862.4456 505.239,-973.5117 610,-1095.5 617.7531,-1104.528 629.1609,-1109.5617 640.7094,-1112.292"/>
<polygon fill="#191970" stroke="#191970" points="640.3391,-1115.7823 650.806,-1114.1408 641.6,-1108.8968 640.3391,-1115.7823"/>
</g>
<!-- Node921 -->
<g id="node26" class="node">
<title>Node921</title>
<g id="a_node26"><a xlink:href="util_8h.html#abfb50dfe077aced7591f2aba601f605d" target="_top" xlink:title="ClearDatadirCache">
<polygon fill="#ffffff" stroke="#000000" points="634,-1067 634,-1086 734,-1086 734,-1067 634,-1067"/>
<text text-anchor="middle" x="684" y="-1074" font-family="Helvetica,sans-Serif" font-size="10.00" fill="#000000">ClearDatadirCache</text>
</a>
</g>
</g>
<!-- Node901&#45;&gt;Node921 -->
<g id="edge25" class="edge">
<title>Node901&#45;&gt;Node921</title>
<path fill="none" stroke="#191970" d="M537.226,-717.2122C549.5795,-719.3879 565.2038,-724.3213 574,-735.5 663.0487,-848.6685 515.5454,-948.8026 610,-1057.5 614.0129,-1062.118 618.9821,-1065.6888 624.4326,-1068.4396"/>
<polygon fill="#191970" stroke="#191970" points="623.3949,-1071.7964 633.976,-1072.3354 626.0405,-1065.3156 623.3949,-1071.7964"/>
</g>
<!-- Node922 -->
<g id="node27" class="node">
<title>Node922</title>
<g id="a_node27"><a xlink:href="util_8h.html#aa634f312705d4811dfa2a5392bddf6cf" target="_top" xlink:title="GetConfigFile">
<polygon fill="#ffffff" stroke="#000000" points="645.5,-991 645.5,-1010 722.5,-1010 722.5,-991 645.5,-991"/>
<text text-anchor="middle" x="684" y="-998" font-family="Helvetica,sans-Serif" font-size="10.00" fill="#000000">GetConfigFile</text>
</a>
</g>
</g>
<!-- Node901&#45;&gt;Node922 -->
<g id="edge26" class="edge">
<title>Node901&#45;&gt;Node922</title>
<path fill="none" stroke="#191970" d="M537.1098,-717.3052C549.4086,-719.5247 565.0153,-724.4723 574,-735.5 643.7949,-821.1647 536.1158,-899.3361 610,-981.5 616.7182,-988.9711 625.9397,-993.6843 635.5949,-996.6177"/>
<polygon fill="#191970" stroke="#191970" points="634.7729,-1000.0198 645.318,-998.9941 636.4348,-993.2199 634.7729,-1000.0198"/>
</g>
<!-- Node924 -->
<g id="node29" class="node">
<title>Node924</title>
<g id="a_node29"><a xlink:href="util_8h.html#aa0172eabeecce5061826cb19990fbde2" target="_top" xlink:title="GetPidFile">
<polygon fill="#ffffff" stroke="#000000" points="653,-1029 653,-1048 715,-1048 715,-1029 653,-1029"/>
<text text-anchor="middle" x="684" y="-1036" font-family="Helvetica,sans-Serif" font-size="10.00" fill="#000000">GetPidFile</text>
</a>
</g>
</g>
<!-- Node901&#45;&gt;Node924 -->
<g id="edge28" class="edge">
<title>Node901&#45;&gt;Node924</title>
<path fill="none" stroke="#191970" d="M537.1754,-717.2523C549.505,-719.4469 565.1217,-724.3865 574,-735.5 653.4134,-834.9061 525.8396,-924.0795 610,-1019.5 618.2939,-1028.9036 630.5528,-1033.9531 642.7175,-1036.5819"/>
<polygon fill="#191970" stroke="#191970" points="642.3859,-1040.0748 652.8247,-1038.2633 643.5346,-1033.1697 642.3859,-1040.0748"/>
</g>
<!-- Node926 -->
<g id="node31" class="node">
<title>Node926</title>
<g id="a_node31"><a xlink:href="util_8h.html#a1c0f9b041628dcb399a023bc9913f41d" target="_top" xlink:title="CreatePidFile">
<polygon fill="#ffffff" stroke="#000000" points="646,-915 646,-934 722,-934 722,-915 646,-915"/>
<text text-anchor="middle" x="684" y="-922" font-family="Helvetica,sans-Serif" font-size="10.00" fill="#000000">CreatePidFile</text>
</a>
</g>
</g>
<!-- Node901&#45;&gt;Node926 -->
<g id="edge31" class="edge">
<title>Node901&#45;&gt;Node926</title>
<path fill="none" stroke="#191970" d="M537.1593,-717.5337C549.3182,-719.8591 564.737,-724.8392 574,-735.5 624.6547,-793.7988 556.5662,-849.7374 610,-905.5 616.9515,-912.7545 626.2683,-917.3793 635.9419,-920.2956"/>
<polygon fill="#191970" stroke="#191970" points="635.1145,-923.6963 645.6601,-922.6765 636.7802,-916.8974 635.1145,-923.6963"/>
</g>
<!-- Node928 -->
<g id="node33" class="node">
<title>Node928</title>
<g id="a_node33"><a xlink:href="util_8h.html#a1e755e72104d3ca393efc1cc3f41952a" target="_top" xlink:title="OpenDebugLog">
<polygon fill="#ffffff" stroke="#000000" points="642,-877 642,-896 726,-896 726,-877 642,-877"/>
<text text-anchor="middle" x="684" y="-884" font-family="Helvetica,sans-Serif" font-size="10.00" fill="#000000">OpenDebugLog</text>
</a>
</g>
</g>
<!-- Node901&#45;&gt;Node928 -->
<g id="edge33" class="edge">
<title>Node901&#45;&gt;Node928</title>
<path fill="none" stroke="#191970" d="M537.2305,-717.7558C549.2625,-720.1791 564.5029,-725.185 574,-735.5 615.1885,-780.2357 566.6816,-824.8233 610,-867.5 616.1122,-873.5216 623.8603,-877.7132 632.0274,-880.6152"/>
<polygon fill="#191970" stroke="#191970" points="631.1535,-884.0063 641.7344,-883.4618 633.1234,-877.2891 631.1535,-884.0063"/>
</g>
<!-- Node929 -->
<g id="node34" class="node">
<title>Node929</title>
<g id="a_node34"><a xlink:href="util_8h.html#a37fca7e305fe0caa306b23fdb37f88e2" target="_top" xlink:title="ShrinkDebugFile">
<polygon fill="#ffffff" stroke="#000000" points="639.5,-953 639.5,-972 728.5,-972 728.5,-953 639.5,-953"/>
<text text-anchor="middle" x="684" y="-960" font-family="Helvetica,sans-Serif" font-size="10.00" fill="#000000">ShrinkDebugFile</text>
</a>
</g>
</g>
<!-- Node901&#45;&gt;Node929 -->
<g id="edge34" class="edge">
<title>Node901&#45;&gt;Node929</title>
<path fill="none" stroke="#191970" d="M537.0218,-717.3779C549.279,-719.6317 564.8723,-724.5904 574,-735.5 634.2028,-807.4555 546.3642,-874.5619 610,-943.5 615.3769,-949.325 622.2765,-953.4657 629.6948,-956.3911"/>
<polygon fill="#191970" stroke="#191970" points="628.7015,-959.7482 639.293,-959.482 630.8472,-953.0852 628.7015,-959.7482"/>
</g>
<!-- Node930 -->
<g id="node35" class="node">
<title>Node930</title>
<g id="a_node35"><a xlink:href="util_8h.html#aa803aa631ab8b4bd79fa9d7b2172bf9a" target="_top" xlink:title="runCommand">
<polygon fill="#ffffff" stroke="#000000" points="646.5,-839 646.5,-858 721.5,-858 721.5,-839 646.5,-839"/>
<text text-anchor="middle" x="684" y="-846" font-family="Helvetica,sans-Serif" font-size="10.00" fill="#000000">runCommand</text>
</a>
</g>
</g>
<!-- Node901&#45;&gt;Node930 -->
<g id="edge37" class="edge">
<title>Node901&#45;&gt;Node930</title>
<path fill="none" stroke="#191970" d="M537.1701,-718.121C549.0205,-720.6995 564.0741,-725.7412 574,-735.5 605.9011,-766.8641 576.6093,-799.7268 610,-829.5 617.4211,-836.1171 626.841,-840.4881 636.4529,-843.361"/>
<polygon fill="#191970" stroke="#191970" points="635.9147,-846.8335 646.4632,-845.844 637.6,-840.0394 635.9147,-846.8335"/>
</g>
<!-- Node904 -->
<g id="node15" class="node">
<title>Node904</title>
<g id="a_node15"><a xlink:href="namespacetinyformat.html#a86ed74eb3ed66a662e96220d877da964" target="_top" xlink:title="Format list of arguments to the stream according to the given format string. ">
<polygon fill="#ffffff" stroke="#ff0000" points="813,-744 813,-763 912,-763 912,-744 813,-744"/>
<text text-anchor="middle" x="862.5" y="-751" font-family="Helvetica,sans-Serif" font-size="10.00" fill="#000000">tinyformat::vformat</text>
</a>
</g>
</g>
<!-- Node903&#45;&gt;Node904 -->
<g id="edge14" class="edge">
<title>Node903&#45;&gt;Node904</title>
<path fill="none" stroke="#191970" d="M731.3661,-767.4582C753.2288,-765.1311 779.4281,-762.3424 802.6413,-759.8715"/>
<polygon fill="#191970" stroke="#191970" points="803.1535,-763.3369 812.7268,-758.798 802.4125,-756.3762 803.1535,-763.3369"/>
</g>
<!-- Node911 -->
<g id="node16" class="node">
<title>Node911</title>
<g id="a_node16"><a xlink:href="namespacetinyformat.html#a37afaa5249c69dacd619269358f06f69" target="_top" xlink:title="Make type&#45;agnostic format list from list of template arguments. ">
<polygon fill="#ffffff" stroke="#000000" points="794,-782 794,-801 931,-801 931,-782 794,-782"/>
<text text-anchor="middle" x="862.5" y="-789" font-family="Helvetica,sans-Serif" font-size="10.00" fill="#000000">tinyformat::makeFormatList</text>
</a>
</g>
</g>
<!-- Node903&#45;&gt;Node911 -->
<g id="edge15" class="edge">
<title>Node903&#45;&gt;Node911</title>
<path fill="none" stroke="#191970" d="M731.3661,-777.5418C747.3388,-779.2419 765.6262,-781.1885 783.3728,-783.0775"/>
<polygon fill="#191970" stroke="#191970" points="783.4233,-786.6026 793.7376,-784.1808 784.1642,-779.6419 783.4233,-786.6026"/>
</g>
<!-- Node923 -->
<g id="node28" class="node">
<title>Node923</title>
<g id="a_node28"><a xlink:href="util_8cpp.html#a7ebe0bd091f7334aaead43904601e008" target="_top" xlink:title="GetDataDir">
<polygon fill="#ffffff" stroke="#000000" points="829.5,-991 829.5,-1010 895.5,-1010 895.5,-991 829.5,-991"/>
<text text-anchor="middle" x="862.5" y="-998" font-family="Helvetica,sans-Serif" font-size="10.00" fill="#000000">GetDataDir</text>
</a>
</g>
</g>
<!-- Node922&#45;&gt;Node923 -->
<g id="edge27" class="edge">
<title>Node922&#45;&gt;Node923</title>
<path fill="none" stroke="#191970" d="M722.7318,-1000.5C751.0413,-1000.5 789.4619,-1000.5 818.8568,-1000.5"/>
<polygon fill="#191970" stroke="#191970" points="819.2427,-1004.0001 829.2427,-1000.5 819.2427,-997.0001 819.2427,-1004.0001"/>
</g>
<!-- Node924&#45;&gt;Node923 -->
<g id="edge30" class="edge">
<title>Node924&#45;&gt;Node923</title>
<path fill="none" stroke="#191970" d="M715.0923,-1031.8809C743.9343,-1025.7409 787.1285,-1016.5455 819.3133,-1009.6938"/>
<polygon fill="#191970" stroke="#191970" points="820.2918,-1013.064 829.3438,-1007.5585 818.8342,-1006.2174 820.2918,-1013.064"/>
</g>
<!-- Node925 -->
<g id="node30" class="node">
<title>Node925</title>
<g id="a_node30"><a xlink:href="class_args_manager.html#adb5d644d273b3a259f792affcdca8283" target="_top" xlink:title="Return string argument or default value. ">
<polygon fill="#ffffff" stroke="#000000" points="807,-1029 807,-1048 918,-1048 918,-1029 807,-1029"/>
<text text-anchor="middle" x="862.5" y="-1036" font-family="Helvetica,sans-Serif" font-size="10.00" fill="#000000">ArgsManager::GetArg</text>
</a>
</g>
</g>
<!-- Node924&#45;&gt;Node925 -->
<g id="edge29" class="edge">
<title>Node924&#45;&gt;Node925</title>
<path fill="none" stroke="#191970" d="M715.0923,-1038.5C737.5994,-1038.5 768.8463,-1038.5 796.7812,-1038.5"/>
<polygon fill="#191970" stroke="#191970" points="796.9008,-1042.0001 806.9008,-1038.5 796.9007,-1035.0001 796.9008,-1042.0001"/>
</g>
<!-- Node927 -->
<g id="node32" class="node">
<title>Node927</title>
<g id="a_node32"><a xlink:href="namespacefsbridge.html#a19c84cec4ae9accfbc88a83e48f7ee92" target="_top" xlink:title="fsbridge::fopen">
<polygon fill="#ffffff" stroke="#000000" points="822,-934 822,-953 903,-953 903,-934 822,-934"/>
<text text-anchor="middle" x="862.5" y="-941" font-family="Helvetica,sans-Serif" font-size="10.00" fill="#000000">fsbridge::fopen</text>
</a>
</g>
</g>
<!-- Node926&#45;&gt;Node927 -->
<g id="edge32" class="edge">
<title>Node926&#45;&gt;Node927</title>
<path fill="none" stroke="#191970" d="M722.2927,-928.576C748.3861,-931.3534 783.2185,-935.0611 811.6365,-938.086"/>
<polygon fill="#191970" stroke="#191970" points="811.4736,-941.5883 821.788,-939.1665 812.2146,-934.6276 811.4736,-941.5883"/>
</g>
<!-- Node929&#45;&gt;Node923 -->
<g id="edge35" class="edge">
<title>Node929&#45;&gt;Node923</title>
<path fill="none" stroke="#191970" d="M728.5826,-971.991C756.3268,-977.8973 791.8299,-985.4554 819.3089,-991.3053"/>
<polygon fill="#191970" stroke="#191970" points="818.9051,-994.7977 829.4148,-993.4566 820.3627,-987.9511 818.9051,-994.7977"/>
</g>
<!-- Node929&#45;&gt;Node927 -->
<g id="edge36" class="edge">
<title>Node929&#45;&gt;Node927</title>
<path fill="none" stroke="#191970" d="M728.5826,-957.7545C753.8344,-955.0666 785.5136,-951.6946 811.7203,-948.9051"/>
<polygon fill="#191970" stroke="#191970" points="812.2661,-952.3669 821.8395,-947.828 811.5251,-945.4062 812.2661,-952.3669"/>
</g>
<!-- Node935&#45;&gt;Node890 -->
<g id="edge55" class="edge">
<title>Node935&#45;&gt;Node890</title>
<path fill="none" stroke="#191970" d="M368.6474,-426.5027C377.8522,-489.0007 415.7124,-728.0367 464,-784.5 464.7279,-785.3511 465.4917,-786.1731 466.287,-786.9669"/>
<polygon fill="#191970" stroke="#191970" points="464.2109,-789.7897 474.1808,-793.3746 468.6226,-784.3548 464.2109,-789.7897"/>
</g>
<!-- Node935&#45;&gt;Node891 -->
<g id="edge56" class="edge">
<title>Node935&#45;&gt;Node891</title>
<path fill="none" stroke="#191970" d="M369.375,-426.7659C380.4402,-484.1648 421.7714,-686.2226 464,-734.5 465.1632,-735.8298 466.4114,-737.0928 467.7284,-738.2921"/>
<polygon fill="#191970" stroke="#191970" points="465.8248,-741.2408 475.9107,-744.4849 470.0493,-735.6592 465.8248,-741.2408"/>
</g>
<!-- Node935&#45;&gt;Node901 -->
<g id="edge44" class="edge">
<title>Node935&#45;&gt;Node901</title>
<path fill="none" stroke="#191970" d="M374.0625,-426.5754C399.4664,-477.2166 481.7092,-641.1629 509.6276,-696.8167"/>
<polygon fill="#191970" stroke="#191970" points="506.5701,-698.5275 514.1824,-705.8965 512.8269,-695.3887 506.5701,-698.5275"/>
</g>
<!-- Node935&#45;&gt;Node933 -->
<g id="edge54" class="edge">
<title>Node935&#45;&gt;Node933</title>
<path fill="none" stroke="#191970" d="M386.3709,-396.3073C405.616,-381.9692 435.9267,-360.3637 464,-344.5 467.2503,-342.6633 470.66,-340.8541 474.122,-339.1002"/>
<polygon fill="#191970" stroke="#191970" points="475.8815,-342.1361 483.3344,-334.6058 472.8122,-335.8449 475.8815,-342.1361"/>
</g>
<!-- Node936 -->
<g id="node41" class="node">
<title>Node936</title>
<g id="a_node41"><a xlink:href="assets_2assets_8cpp.html#aa2cbb008291be23f6ef30d12b7515496" target="_top" xlink:title="Check the Encoded hash and make sure it is either an IPFS hash or a OIP hash. ">
<polygon fill="#ffffff" stroke="#000000" points="477.5,-402 477.5,-421 560.5,-421 560.5,-402 477.5,-402"/>
<text text-anchor="middle" x="519" y="-409" font-family="Helvetica,sans-Serif" font-size="10.00" fill="#000000">CheckEncoded</text>
</a>
</g>
</g>
<!-- Node935&#45;&gt;Node936 -->
<g id="edge45" class="edge">
<title>Node935&#45;&gt;Node936</title>
<path fill="none" stroke="#191970" d="M419.4091,-411.5C434.7864,-411.5 451.5653,-411.5 466.8929,-411.5"/>
<polygon fill="#191970" stroke="#191970" points="467.2374,-415.0001 477.2373,-411.5 467.2373,-408.0001 467.2374,-415.0001"/>
</g>
<!-- Node947 -->
<g id="node46" class="node">
<title>Node947</title>
<g id="a_node46"><a xlink:href="assets_2assets_8cpp.html#a1611a2894597c6bb14f06c563368d666" target="_top" xlink:title="Decode and Encode IPFS hashes, or OIP hashes. ">
<polygon fill="#ffffff" stroke="#000000" points="470.5,-354 470.5,-373 567.5,-373 567.5,-354 470.5,-354"/>
<text text-anchor="middle" x="519" y="-361" font-family="Helvetica,sans-Serif" font-size="10.00" fill="#000000">DecodeAssetData</text>
</a>
</g>
</g>
<!-- Node935&#45;&gt;Node947 -->
<g id="edge50" class="edge">
<title>Node935&#45;&gt;Node947</title>
<path fill="none" stroke="#191970" d="M414.3335,-396.4442C435.1072,-389.9056 459.1646,-382.3335 478.9732,-376.0986"/>
<polygon fill="#191970" stroke="#191970" points="480.1251,-379.4054 488.613,-373.0644 478.0235,-372.7283 480.1251,-379.4054"/>
</g>
<!-- Node937 -->
<g id="node42" class="node">
<title>Node937</title>
<g id="a_node42"><a xlink:href="assets_2assets_8cpp.html#ab1ad26491b92ed7cd206887146119fab" target="_top" xlink:title="EncodeAssetData">
<polygon fill="#ffffff" stroke="#ff0000" points="636,-459 636,-478 732,-478 732,-459 636,-459"/>
<text text-anchor="middle" x="684" y="-466" font-family="Helvetica,sans-Serif" font-size="10.00" fill="#000000">EncodeAssetData</text>
</a>
</g>
</g>
<!-- Node936&#45;&gt;Node937 -->
<g id="edge46" class="edge">
<title>Node936&#45;&gt;Node937</title>
<path fill="none" stroke="#191970" d="M539.6365,-421.1236C557.8713,-429.3831 585.3259,-441.2287 610,-449.5 617.3394,-451.9603 625.1781,-454.2863 632.9072,-456.4113"/>
<polygon fill="#191970" stroke="#191970" points="632.029,-459.7994 642.5929,-458.9906 633.8303,-453.0351 632.029,-459.7994"/>
</g>
<!-- Node941 -->
<g id="node43" class="node">
<title>Node941</title>
<g id="a_node43"><a xlink:href="validation_8cpp.html#a149d069990401daec0d9fef9f81c1c74" target="_top" xlink:title="AreMessagingDeployed">
<polygon fill="#ffffff" stroke="#000000" points="624,-421 624,-440 744,-440 744,-421 624,-421"/>
<text text-anchor="middle" x="684" y="-428" font-family="Helvetica,sans-Serif" font-size="10.00" fill="#000000">AreMessagingDeployed</text>
</a>
</g>
</g>
<!-- Node936&#45;&gt;Node941 -->
<g id="edge47" class="edge">
<title>Node936&#45;&gt;Node941</title>
<path fill="none" stroke="#191970" d="M560.6365,-416.2945C576.8273,-418.1589 595.8274,-420.3468 613.9992,-422.4393"/>
<polygon fill="#191970" stroke="#191970" points="613.6516,-425.9223 623.9864,-423.5893 614.4524,-418.9683 613.6516,-425.9223"/>
</g>
<!-- Node942 -->
<g id="node44" class="node">
<title>Node942</title>
<g id="a_node44"><a xlink:href="utilstrencodings_8cpp.html#a9f23401f4b871ed693f7a96a9ba40c58" target="_top" xlink:title="IsHex">
<polygon fill="#ffffff" stroke="#ff0000" points="662.5,-345 662.5,-364 705.5,-364 705.5,-345 662.5,-345"/>
<text text-anchor="middle" x="684" y="-352" font-family="Helvetica,sans-Serif" font-size="10.00" fill="#000000">IsHex</text>
</a>
</g>
</g>
<!-- Node936&#45;&gt;Node942 -->
<g id="edge48" class="edge">
<title>Node936&#45;&gt;Node942</title>
<path fill="none" stroke="#191970" d="M539.6365,-401.8764C557.8713,-393.6169 585.3259,-381.7713 610,-373.5 623.6942,-368.9094 639.1272,-364.7865 652.3421,-361.5639"/>
<polygon fill="#191970" stroke="#191970" points="653.4668,-364.8943 662.3891,-359.1808 651.8512,-358.0833 653.4668,-364.8943"/>
</g>
<!-- Node944 -->
<g id="node45" class="node">
<title>Node944</title>
<g id="a_node45"><a xlink:href="util_8h.html#aad133bb6103b53cebf03fd01e2f11ba1" target="_top" xlink:title="Translation function: Call Translate signal on UI interface, which returns a boost::optional result...">
<polygon fill="#ffffff" stroke="#ff0000" points="669.5,-383 669.5,-402 698.5,-402 698.5,-383 669.5,-383"/>
<text text-anchor="middle" x="684" y="-390" font-family="Helvetica,sans-Serif" font-size="10.00" fill="#000000">_</text>
</a>
</g>
</g>
<!-- Node936&#45;&gt;Node944 -->
<g id="edge49" class="edge">
<title>Node936&#45;&gt;Node944</title>
<path fill="none" stroke="#191970" d="M560.6365,-406.7055C591.7115,-403.1272 633.1347,-398.3572 659.189,-395.357"/>
<polygon fill="#191970" stroke="#191970" points="659.8053,-398.8093 669.3392,-394.1882 659.0045,-391.8552 659.8053,-398.8093"/>
</g>
<!-- Node947&#45;&gt;Node942 -->
<g id="edge52" class="edge">
<title>Node947&#45;&gt;Node942</title>
<path fill="none" stroke="#191970" d="M567.613,-360.8484C594.8166,-359.3645 627.97,-357.5562 651.9236,-356.2496"/>
<polygon fill="#191970" stroke="#191970" points="652.4331,-359.7271 662.2276,-355.6876 652.0518,-352.7375 652.4331,-359.7271"/>
</g>
<!-- Node948 -->
<g id="node47" class="node">
<title>Node948</title>
<g id="a_node47"><a xlink:href="base58_8cpp.html#a0f74d1d6e7e982cad4b0e538acea4538" target="_top" xlink:title="Decode a base58&#45;encoded string (psz) into a byte vector (vchRet). ">
<polygon fill="#ffffff" stroke="#000000" points="642.5,-269 642.5,-288 725.5,-288 725.5,-269 642.5,-269"/>
<text text-anchor="middle" x="684" y="-276" font-family="Helvetica,sans-Serif" font-size="10.00" fill="#000000">DecodeBase58</text>
</a>
</g>
</g>
<!-- Node947&#45;&gt;Node948 -->
<g id="edge51" class="edge">
<title>Node947&#45;&gt;Node948</title>
<path fill="none" stroke="#191970" d="M556.2697,-353.9678C562.5074,-351.4571 568.6744,-348.3415 574,-344.5 595.3401,-329.107 588.052,-312.0131 610,-297.5 616.8432,-292.975 624.6993,-289.5274 632.6794,-286.9007"/>
<polygon fill="#191970" stroke="#191970" points="633.7803,-290.2259 642.4153,-284.0868 631.8366,-283.5012 633.7803,-290.2259"/>
</g>
<!-- Node949 -->
<g id="node48" class="node">
<title>Node949</title>
<g id="a_node48"><a xlink:href="utilstrencodings_8cpp.html#a5a787187ddd5c52baae692350ec5a2cb" target="_top" xlink:title="ParseHex">
<polygon fill="#ffffff" stroke="#ff0000" points="654,-307 654,-326 714,-326 714,-307 654,-307"/>
<text text-anchor="middle" x="684" y="-314" font-family="Helvetica,sans-Serif" font-size="10.00" fill="#000000">ParseHex</text>
</a>
</g>
</g>
<!-- Node947&#45;&gt;Node949 -->
<g id="edge53" class="edge">
<title>Node947&#45;&gt;Node949</title>
<path fill="none" stroke="#191970" d="M548.8145,-353.9378C566.531,-348.353 589.4776,-341.2885 610,-335.5 620.9467,-332.4124 632.8627,-329.2615 643.8704,-326.4361"/>
<polygon fill="#191970" stroke="#191970" points="644.8414,-329.8007 653.6703,-323.944 643.1162,-323.0166 644.8414,-329.8007"/>
</g>
</g>
</svg>
