<?xml version="1.0" encoding="UTF-8" standalone="no"?>
<!DOCTYPE svg PUBLIC "-//W3C//DTD SVG 1.1//EN"
 "http://www.w3.org/Graphics/SVG/1.1/DTD/svg11.dtd">
<!-- Generated by graphviz version 2.40.1 (20161225.0304)
 -->
<!-- Title: AssetTableModel::formatTooltip Pages: 1 -->
<svg width="1000pt" height="39pt"
 viewBox="0.00 0.00 1000.00 39.00" xmlns="http://www.w3.org/2000/svg" xmlns:xlink="http://www.w3.org/1999/xlink">
<g id="graph0" class="graph" transform="scale(1 1) rotate(0) translate(4 35)">
<title>AssetTableModel::formatTooltip</title>
<polygon fill="#ffffff" stroke="transparent" points="-4,4 -4,-35 996,-35 996,4 -4,4"/>
<!-- Node59 -->
<g id="node1" class="node">
<title>Node59</title>
<polygon fill="#bfbfbf" stroke="#000000" points="0,-6 0,-25 155,-25 155,-6 0,-6"/>
<text text-anchor="middle" x="77.5" y="-13" font-family="Helvetica,sans-Serif" font-size="10.00" fill="#000000">AssetTableModel::formatTooltip</text>
</g>
<!-- Node60 -->
<g id="node2" class="node">
<title>Node60</title>
<g id="a_node2"><a xlink:href="class_asset_table_model.html#a621ceb15d7b6b5e58bde0a48d84773de" target="_top" xlink:title="AssetTableModel::data">
<polygon fill="#ffffff" stroke="#000000" points="191,-6 191,-25 308,-25 308,-6 191,-6"/>
<text text-anchor="middle" x="249.5" y="-13" font-family="Helvetica,sans-Serif" font-size="10.00" fill="#000000">AssetTableModel::data</text>
</a>
</g>
</g>
<!-- Node59&#45;&gt;Node60 -->
<g id="edge1" class="edge">
<title>Node59&#45;&gt;Node60</title>
<path fill="none" stroke="#191970" d="M165.3683,-15.5C174.0409,-15.5 182.688,-15.5 190.9569,-15.5"/>
<polygon fill="#191970" stroke="#191970" points="165.1971,-12.0001 155.1971,-15.5 165.197,-19.0001 165.1971,-12.0001"/>
</g>
<!-- Node61 -->
<g id="node3" class="node">
<title>Node61</title>
<g id="a_node3"><a xlink:href="class_asset_table_model.html#a0ec1917b6388d10629b123d7e0dcf021" target="_top" xlink:title="AssetTableModel::index">
<polygon fill="#ffffff" stroke="#000000" points="344,-6 344,-25 466,-25 466,-6 344,-6"/>
<text text-anchor="middle" x="405" y="-13" font-family="Helvetica,sans-Serif" font-size="10.00" fill="#000000">AssetTableModel::index</text>
</a>
</g>
</g>
<!-- Node60&#45;&gt;Node61 -->
<g id="edge2" class="edge">
<title>Node60&#45;&gt;Node61</title>
<path fill="none" stroke="#191970" d="M318.4801,-15.5C326.9148,-15.5 335.4889,-15.5 343.7986,-15.5"/>
<polygon fill="#191970" stroke="#191970" points="318.2879,-12.0001 308.2879,-15.5 318.2878,-19.0001 318.2879,-12.0001"/>
</g>
<!-- Node62 -->
<g id="node4" class="node">
<title>Node62</title>
<g id="a_node4"><a xlink:href="class_asset_table_model.html#a5b3e5bc2d8312e6ac6f62e84a8b5e404" target="_top" xlink:title="AssetTableModel::checkBalance\lChanged">
<polygon fill="#ffffff" stroke="#000000" points="502,-.5 502,-30.5 662,-30.5 662,-.5 502,-.5"/>
<text text-anchor="start" x="510" y="-18.5" font-family="Helvetica,sans-Serif" font-size="10.00" fill="#000000">AssetTableModel::checkBalance</text>
<text text-anchor="middle" x="582" y="-7.5" font-family="Helvetica,sans-Serif" font-size="10.00" fill="#000000">Changed</text>
</a>
</g>
</g>
<!-- Node61&#45;&gt;Node62 -->
<g id="edge3" class="edge">
<title>Node61&#45;&gt;Node62</title>
<path fill="none" stroke="#191970" d="M476.5142,-15.5C484.9019,-15.5 493.501,-15.5 501.9949,-15.5"/>
<polygon fill="#191970" stroke="#191970" points="476.4093,-12.0001 466.4093,-15.5 476.4092,-19.0001 476.4093,-12.0001"/>
</g>
<!-- Node63 -->
<g id="node5" class="node">
<title>Node63</title>
<g id="a_node5"><a xlink:href="class_wallet_model.html#a51469b2d95cfd4bc0a14ee456fca7b95" target="_top" xlink:title="WalletModel::pollBalance\lChanged">
<polygon fill="#ffffff" stroke="#000000" points="698,-.5 698,-30.5 825,-30.5 825,-.5 698,-.5"/>
<text text-anchor="start" x="706" y="-18.5" font-family="Helvetica,sans-Serif" font-size="10.00" fill="#000000">WalletModel::pollBalance</text>
<text text-anchor="middle" x="761.5" y="-7.5" font-family="Helvetica,sans-Serif" font-size="10.00" fill="#000000">Changed</text>
</a>
</g>
</g>
<!-- Node62&#45;&gt;Node63 -->
<g id="edge4" class="edge">
<title>Node62&#45;&gt;Node63</title>
<path fill="none" stroke="#191970" d="M672.1711,-15.5C680.8172,-15.5 689.4581,-15.5 697.7728,-15.5"/>
<polygon fill="#191970" stroke="#191970" points="672.0382,-12.0001 662.0382,-15.5 672.0381,-19.0001 672.0382,-12.0001"/>
</g>
<!-- Node64 -->
<g id="node6" class="node">
<title>Node64</title>
<g id="a_node6"><a xlink:href="class_wallet_model.html#a36282857c97bcaad796a2b5c7398245c" target="_top" xlink:title="WalletModel::WalletModel">
<polygon fill="#ffffff" stroke="#000000" points="861,-6 861,-25 992,-25 992,-6 861,-6"/>
<text text-anchor="middle" x="926.5" y="-13" font-family="Helvetica,sans-Serif" font-size="10.00" fill="#000000">WalletModel::WalletModel</text>
</a>
</g>
</g>
<!-- Node63&#45;&gt;Node64 -->
<g id="edge5" class="edge">
<title>Node63&#45;&gt;Node64</title>
<path fill="none" stroke="#191970" d="M835.5464,-15.5C844.021,-15.5 852.6159,-15.5 860.9682,-15.5"/>
<polygon fill="#191970" stroke="#191970" points="835.2933,-12.0001 825.2933,-15.5 835.2933,-19.0001 835.2933,-12.0001"/>
</g>
</g>
</svg>
