<?xml version="1.0" encoding="UTF-8" standalone="no"?>
<!DOCTYPE svg PUBLIC "-//W3C//DTD SVG 1.1//EN"
 "http://www.w3.org/Graphics/SVG/1.1/DTD/svg11.dtd">
<!-- Generated by graphviz version 2.40.1 (20161225.0304)
 -->
<!-- Title: GetinfoRequestHandler::PrepareRequest Pages: 1 -->
<svg width="426pt" height="53pt"
 viewBox="0.00 0.00 426.00 52.50" xmlns="http://www.w3.org/2000/svg" xmlns:xlink="http://www.w3.org/1999/xlink">
<g id="graph0" class="graph" transform="scale(1 1) rotate(0) translate(4 48.5)">
<title>GetinfoRequestHandler::PrepareRequest</title>
<polygon fill="#ffffff" stroke="transparent" points="-4,4 -4,-48.5 422,-48.5 422,4 -4,4"/>
<!-- Node0 -->
<g id="node1" class="node">
<title>Node0</title>
<polygon fill="#bfbfbf" stroke="#000000" points="0,-14 0,-44 119,-44 119,-14 0,-14"/>
<text text-anchor="start" x="8" y="-32" font-family="Helvetica,sans-Serif" font-size="10.00" fill="#000000">GetinfoRequestHandler</text>
<text text-anchor="middle" x="59.5" y="-21" font-family="Helvetica,sans-Serif" font-size="10.00" fill="#000000">::PrepareRequest</text>
</g>
<!-- Node1 -->
<g id="node2" class="node">
<title>Node1</title>
<g id="a_node2"><a xlink:href="class_uni_value.html#a944cd1b59b040cd24c9f46b55a68d49a" target="_top" xlink:title="UniValue::push_back">
<polygon fill="#ffffff" stroke="#000000" points="308,-19.5 308,-38.5 418,-38.5 418,-19.5 308,-19.5"/>
<text text-anchor="middle" x="363" y="-26.5" font-family="Helvetica,sans-Serif" font-size="10.00" fill="#000000">UniValue::push_back</text>
</a>
</g>
</g>
<!-- Node0&#45;&gt;Node1 -->
<g id="edge1" class="edge">
<title>Node0&#45;&gt;Node1</title>
<path fill="none" stroke="#191970" d="M119.0997,-29C170.4845,-29 244.5565,-29 297.5697,-29"/>
<polygon fill="#191970" stroke="#191970" points="297.8787,-32.5001 307.8786,-29 297.8786,-25.5001 297.8787,-32.5001"/>
</g>
<!-- Node2 -->
<g id="node3" class="node">
<title>Node2</title>
<g id="a_node3"><a xlink:href="rpc_2protocol_8cpp.html#a3adfee54547442fb913d3bd8269a0a49" target="_top" xlink:title="JSON&#45;RPC protocol. ">
<polygon fill="#ffffff" stroke="#000000" points="155,-.5 155,-19.5 272,-19.5 272,-.5 155,-.5"/>
<text text-anchor="middle" x="213.5" y="-7.5" font-family="Helvetica,sans-Serif" font-size="10.00" fill="#000000">JSONRPCRequestObj</text>
</a>
</g>
</g>
<!-- Node0&#45;&gt;Node2 -->
<g id="edge2" class="edge">
<title>Node0&#45;&gt;Node2</title>
<path fill="none" stroke="#191970" d="M119.0404,-21.6541C127.4965,-20.6108 136.2491,-19.531 144.8605,-18.4685"/>
<polygon fill="#191970" stroke="#191970" points="145.3824,-21.9308 154.8785,-17.2325 144.5252,-14.9834 145.3824,-21.9308"/>
</g>
<!-- Node2&#45;&gt;Node1 -->
<g id="edge3" class="edge">
<title>Node2&#45;&gt;Node1</title>
<path fill="none" stroke="#191970" d="M272.1573,-17.4548C280.6239,-18.5308 289.3797,-19.6436 297.9618,-20.7343"/>
<polygon fill="#191970" stroke="#191970" points="297.5674,-24.2122 307.9289,-22.001 298.4499,-17.2681 297.5674,-24.2122"/>
</g>
</g>
</svg>
