<?xml version="1.0" encoding="UTF-8" standalone="no"?>
<!DOCTYPE svg PUBLIC "-//W3C//DTD SVG 1.1//EN"
 "http://www.w3.org/Graphics/SVG/1.1/DTD/svg11.dtd">
<!-- Generated by graphviz version 2.40.1 (20161225.0304)
 -->
<!-- Title: SendCoinsDialog::setAddress Pages: 1 -->
<svg width="2035pt" height="386pt"
 viewBox="0.00 0.00 2035.00 386.00" xmlns="http://www.w3.org/2000/svg" xmlns:xlink="http://www.w3.org/1999/xlink">
<g id="graph0" class="graph" transform="scale(1 1) rotate(0) translate(4 382)">
<title>SendCoinsDialog::setAddress</title>
<polygon fill="#ffffff" stroke="transparent" points="-4,4 -4,-382 2031,-382 2031,4 -4,4"/>
<!-- Node750 -->
<g id="node1" class="node">
<title>Node750</title>
<polygon fill="#bfbfbf" stroke="#000000" points="0,-206.5 0,-225.5 148,-225.5 148,-206.5 0,-206.5"/>
<text text-anchor="middle" x="74" y="-213.5" font-family="Helvetica,sans-Serif" font-size="10.00" fill="#000000">SendCoinsDialog::setAddress</text>
</g>
<!-- Node751 -->
<g id="node2" class="node">
<title>Node751</title>
<g id="a_node2"><a xlink:href="class_send_coins_entry.html#a1dcce9480364868dfd0bb8782e039e57" target="_top" xlink:title="Return whether the entry is still empty and unedited. ">
<polygon fill="#ffffff" stroke="#000000" points="193,-244.5 193,-263.5 318,-263.5 318,-244.5 193,-244.5"/>
<text text-anchor="middle" x="255.5" y="-251.5" font-family="Helvetica,sans-Serif" font-size="10.00" fill="#000000">SendCoinsEntry::isClear</text>
</a>
</g>
</g>
<!-- Node750&#45;&gt;Node751 -->
<g id="edge1" class="edge">
<title>Node750&#45;&gt;Node751</title>
<path fill="none" stroke="#191970" d="M119.8001,-225.589C144.1826,-230.6939 174.3567,-237.0113 200.0557,-242.3918"/>
<polygon fill="#191970" stroke="#191970" points="199.5242,-245.8564 210.0292,-244.4799 200.9587,-239.0049 199.5242,-245.8564"/>
</g>
<!-- Node752 -->
<g id="node3" class="node">
<title>Node752</title>
<g id="a_node3"><a xlink:href="class_send_coins_dialog.html#a3d680a76b967641115c6ff2fa83fb62a" target="_top" xlink:title="SendCoinsDialog::addEntry">
<polygon fill="#ffffff" stroke="#000000" points="187,-206.5 187,-225.5 324,-225.5 324,-206.5 187,-206.5"/>
<text text-anchor="middle" x="255.5" y="-213.5" font-family="Helvetica,sans-Serif" font-size="10.00" fill="#000000">SendCoinsDialog::addEntry</text>
</a>
</g>
</g>
<!-- Node750&#45;&gt;Node752 -->
<g id="edge2" class="edge">
<title>Node750&#45;&gt;Node752</title>
<path fill="none" stroke="#191970" d="M148.0848,-216C157.5147,-216 167.1932,-216 176.694,-216"/>
<polygon fill="#191970" stroke="#191970" points="176.9135,-219.5001 186.9135,-216 176.9134,-212.5001 176.9135,-219.5001"/>
</g>
<!-- Node789 -->
<g id="node40" class="node">
<title>Node789</title>
<g id="a_node40"><a xlink:href="class_send_coins_entry.html#a19aa4ce19ff25687203ac0790c241fee" target="_top" xlink:title="SendCoinsEntry::setAddress">
<polygon fill="#ffffff" stroke="#000000" points="184,-168.5 184,-187.5 327,-187.5 327,-168.5 184,-168.5"/>
<text text-anchor="middle" x="255.5" y="-175.5" font-family="Helvetica,sans-Serif" font-size="10.00" fill="#000000">SendCoinsEntry::setAddress</text>
</a>
</g>
</g>
<!-- Node750&#45;&gt;Node789 -->
<g id="edge53" class="edge">
<title>Node750&#45;&gt;Node789</title>
<path fill="none" stroke="#191970" d="M119.8001,-206.411C144.1826,-201.3061 174.3567,-194.9887 200.0557,-189.6082"/>
<polygon fill="#191970" stroke="#191970" points="200.9587,-192.9951 210.0292,-187.5201 199.5242,-186.1436 200.9587,-192.9951"/>
</g>
<!-- Node753 -->
<g id="node4" class="node">
<title>Node753</title>
<g id="a_node4"><a xlink:href="class_send_coins_entry.html#a831f8f9a63acd77b7d66d5393e12310b" target="_top" xlink:title="SendCoinsEntry::setModel">
<polygon fill="#ffffff" stroke="#000000" points="373,-291.5 373,-310.5 507,-310.5 507,-291.5 373,-291.5"/>
<text text-anchor="middle" x="440" y="-298.5" font-family="Helvetica,sans-Serif" font-size="10.00" fill="#000000">SendCoinsEntry::setModel</text>
</a>
</g>
</g>
<!-- Node752&#45;&gt;Node753 -->
<g id="edge3" class="edge">
<title>Node752&#45;&gt;Node753</title>
<path fill="none" stroke="#191970" d="M304.4155,-225.6089C312.2192,-228.0903 320.0148,-231.1763 327,-235 346.0393,-245.422 344.7666,-256.2248 363,-268 374.9753,-275.7337 389.0681,-282.3828 401.9015,-287.6443"/>
<polygon fill="#191970" stroke="#191970" points="400.8269,-290.9827 411.4139,-291.3922 403.393,-284.47 400.8269,-290.9827"/>
</g>
<!-- Node757 -->
<g id="node8" class="node">
<title>Node757</title>
<g id="a_node8"><a xlink:href="class_send_coins_entry.html#abff66fcd456c82144e7a2c410f5082ac" target="_top" xlink:title="SendCoinsEntry::clear">
<polygon fill="#ffffff" stroke="#000000" points="570,-358.5 570,-377.5 685,-377.5 685,-358.5 570,-358.5"/>
<text text-anchor="middle" x="627.5" y="-365.5" font-family="Helvetica,sans-Serif" font-size="10.00" fill="#000000">SendCoinsEntry::clear</text>
</a>
</g>
</g>
<!-- Node752&#45;&gt;Node757 -->
<g id="edge50" class="edge">
<title>Node752&#45;&gt;Node757</title>
<path fill="none" stroke="#191970" d="M311.8974,-225.5608C317.3719,-228.0319 322.5385,-231.1267 327,-235 357.98,-261.8961 330.9665,-294.3677 363,-320 418.4316,-364.3549 501.3775,-372.9458 559.5675,-372.6142"/>
<polygon fill="#191970" stroke="#191970" points="559.8226,-376.1109 569.7699,-372.4638 559.7193,-369.1116 559.8226,-376.1109"/>
</g>
<!-- Node758 -->
<g id="node9" class="node">
<title>Node758</title>
<g id="a_node9"><a xlink:href="class_send_coins_dialog.html#aabd82a79bd2358493f36425f1d62136b" target="_top" xlink:title="SendCoinsDialog::removeEntry">
<polygon fill="#ffffff" stroke="#000000" points="363,-168.5 363,-187.5 517,-187.5 517,-168.5 363,-168.5"/>
<text text-anchor="middle" x="440" y="-175.5" font-family="Helvetica,sans-Serif" font-size="10.00" fill="#000000">SendCoinsDialog::removeEntry</text>
</a>
</g>
</g>
<!-- Node752&#45;&gt;Node758 -->
<g id="edge10" class="edge">
<title>Node752&#45;&gt;Node758</title>
<path fill="none" stroke="#191970" d="M279.2424,-206.4076C298.1387,-201.0582 325.8208,-194.6773 352.908,-189.197"/>
<polygon fill="#191970" stroke="#191970" points="353.7174,-192.6047 362.8432,-187.2223 352.3527,-185.739 353.7174,-192.6047"/>
</g>
<!-- Node759 -->
<g id="node10" class="node">
<title>Node759</title>
<g id="a_node10"><a xlink:href="class_send_coins_dialog.html#a3b834c739f7d02d8086a2bf58525c5f0" target="_top" xlink:title="SendCoinsDialog::updateTabs\lAndLabels">
<polygon fill="#ffffff" stroke="#000000" points="553,-179 553,-209 702,-209 702,-179 553,-179"/>
<text text-anchor="start" x="561" y="-197" font-family="Helvetica,sans-Serif" font-size="10.00" fill="#000000">SendCoinsDialog::updateTabs</text>
<text text-anchor="middle" x="627.5" y="-186" font-family="Helvetica,sans-Serif" font-size="10.00" fill="#000000">AndLabels</text>
</a>
</g>
</g>
<!-- Node752&#45;&gt;Node759 -->
<g id="edge52" class="edge">
<title>Node752&#45;&gt;Node759</title>
<path fill="none" stroke="#191970" d="M324.1641,-211.9392C385.8668,-208.2901 476.6873,-202.919 542.8627,-199.0054"/>
<polygon fill="#191970" stroke="#191970" points="543.076,-202.499 552.8519,-198.4147 542.6627,-195.5112 543.076,-202.499"/>
</g>
<!-- Node762 -->
<g id="node13" class="node">
<title>Node762</title>
<g id="a_node13"><a xlink:href="class_send_coins_dialog.html#ae4f429aabcaf309aa314b90049be2a74" target="_top" xlink:title="SendCoinsDialog::coinControl\lUpdateLabels">
<polygon fill="#ffffff" stroke="#000000" points="751,-222 751,-252 899,-252 899,-222 751,-222"/>
<text text-anchor="start" x="759" y="-240" font-family="Helvetica,sans-Serif" font-size="10.00" fill="#000000">SendCoinsDialog::coinControl</text>
<text text-anchor="middle" x="825" y="-229" font-family="Helvetica,sans-Serif" font-size="10.00" fill="#000000">UpdateLabels</text>
</a>
</g>
</g>
<!-- Node752&#45;&gt;Node762 -->
<g id="edge49" class="edge">
<title>Node752&#45;&gt;Node762</title>
<path fill="none" stroke="#191970" d="M324.0294,-218.5542C336.9741,-219.0354 350.4022,-219.5338 363,-220 495.0061,-224.8846 648.2301,-230.5149 740.831,-233.9133"/>
<polygon fill="#191970" stroke="#191970" points="740.8635,-237.4167 750.9851,-234.2859 741.1202,-230.4215 740.8635,-237.4167"/>
</g>
<!-- Node788 -->
<g id="node39" class="node">
<title>Node788</title>
<g id="a_node39"><a xlink:href="class_send_coins_entry.html#a0dcb8720f234165b37f8b45b035320cc" target="_top" xlink:title="SendCoinsEntry::setFocus">
<polygon fill="#ffffff" stroke="#000000" points="373,-130.5 373,-149.5 507,-149.5 507,-130.5 373,-130.5"/>
<text text-anchor="middle" x="440" y="-137.5" font-family="Helvetica,sans-Serif" font-size="10.00" fill="#000000">SendCoinsEntry::setFocus</text>
</a>
</g>
</g>
<!-- Node752&#45;&gt;Node788 -->
<g id="edge51" class="edge">
<title>Node752&#45;&gt;Node788</title>
<path fill="none" stroke="#191970" d="M305.7832,-206.4386C313.1753,-203.9662 320.4851,-200.8706 327,-197 347.0009,-185.1173 342.8941,-170.7041 363,-159 366.8525,-156.7574 370.9621,-154.7781 375.2021,-153.0314"/>
<polygon fill="#191970" stroke="#191970" points="376.4611,-156.2977 384.6435,-149.5673 374.0499,-149.7261 376.4611,-156.2977"/>
</g>
<!-- Node754 -->
<g id="node5" class="node">
<title>Node754</title>
<g id="a_node5"><a xlink:href="class_wallet_model.html#a96d53e56b3f8f07537ea2523f7a7d300" target="_top" xlink:title="WalletModel::getOptionsModel">
<polygon fill="#ffffff" stroke="#000000" points="948,-304.5 948,-323.5 1098,-323.5 1098,-304.5 948,-304.5"/>
<text text-anchor="middle" x="1023" y="-311.5" font-family="Helvetica,sans-Serif" font-size="10.00" fill="#000000">WalletModel::getOptionsModel</text>
</a>
</g>
</g>
<!-- Node753&#45;&gt;Node754 -->
<g id="edge4" class="edge">
<title>Node753&#45;&gt;Node754</title>
<path fill="none" stroke="#191970" d="M507.0398,-302.1717C559.9752,-303.1229 635.708,-304.5414 702,-306 781.8832,-307.7577 872.941,-310.0549 937.6187,-311.7366"/>
<polygon fill="#191970" stroke="#191970" points="937.679,-315.2393 947.7668,-312.001 937.8614,-308.2416 937.679,-315.2393"/>
</g>
<!-- Node755 -->
<g id="node6" class="node">
<title>Node755</title>
<g id="a_node6"><a xlink:href="class_send_coins_entry.html#a6ff4bd5b370545bcfd6214e866ee33f3" target="_top" xlink:title="SendCoinsEntry::updateDisplayUnit">
<polygon fill="#ffffff" stroke="#000000" points="738,-323.5 738,-342.5 912,-342.5 912,-323.5 738,-323.5"/>
<text text-anchor="middle" x="825" y="-330.5" font-family="Helvetica,sans-Serif" font-size="10.00" fill="#000000">SendCoinsEntry::updateDisplayUnit</text>
</a>
</g>
</g>
<!-- Node753&#45;&gt;Node755 -->
<g id="edge5" class="edge">
<title>Node753&#45;&gt;Node755</title>
<path fill="none" stroke="#191970" d="M507.0619,-306.574C568.0481,-311.643 658.786,-319.1848 727.7343,-324.9156"/>
<polygon fill="#191970" stroke="#191970" points="727.4872,-328.407 737.7428,-325.7475 728.0671,-321.4311 727.4872,-328.407"/>
</g>
<!-- Node753&#45;&gt;Node757 -->
<g id="edge8" class="edge">
<title>Node753&#45;&gt;Node757</title>
<path fill="none" stroke="#191970" d="M464.1134,-310.5925C486.901,-319.5583 522.1036,-333.1531 553,-344 563.8962,-347.8254 575.7682,-351.7558 586.7673,-355.3"/>
<polygon fill="#191970" stroke="#191970" points="585.9792,-358.7225 596.5701,-358.4322 588.1098,-352.0546 585.9792,-358.7225"/>
</g>
<!-- Node755&#45;&gt;Node754 -->
<g id="edge6" class="edge">
<title>Node755&#45;&gt;Node754</title>
<path fill="none" stroke="#191970" d="M912.1338,-324.6387C920.7096,-323.8157 929.4058,-322.9813 937.9602,-322.1604"/>
<polygon fill="#191970" stroke="#191970" points="938.3015,-325.6438 947.9214,-321.2045 937.6328,-318.6758 938.3015,-325.6438"/>
</g>
<!-- Node756 -->
<g id="node7" class="node">
<title>Node756</title>
<g id="a_node7"><a xlink:href="class_options_model.html#a00a1f0842f764f64086e7d5d42bbce63" target="_top" xlink:title="OptionsModel::getDisplayUnit">
<polygon fill="#ffffff" stroke="#000000" points="949.5,-342.5 949.5,-361.5 1096.5,-361.5 1096.5,-342.5 949.5,-342.5"/>
<text text-anchor="middle" x="1023" y="-349.5" font-family="Helvetica,sans-Serif" font-size="10.00" fill="#000000">OptionsModel::getDisplayUnit</text>
</a>
</g>
</g>
<!-- Node755&#45;&gt;Node756 -->
<g id="edge7" class="edge">
<title>Node755&#45;&gt;Node756</title>
<path fill="none" stroke="#191970" d="M912.1338,-341.3613C921.1797,-342.2294 930.3597,-343.1103 939.3657,-343.9745"/>
<polygon fill="#191970" stroke="#191970" points="939.155,-347.4703 949.4436,-344.9416 939.8237,-340.5023 939.155,-347.4703"/>
</g>
<!-- Node757&#45;&gt;Node755 -->
<g id="edge9" class="edge">
<title>Node757&#45;&gt;Node755</title>
<path fill="none" stroke="#191970" d="M681.2069,-358.4823C705.9127,-354.1041 735.4057,-348.8775 761.2324,-344.3006"/>
<polygon fill="#191970" stroke="#191970" points="762.068,-347.7071 771.3038,-342.5158 760.8465,-340.8145 762.068,-347.7071"/>
</g>
<!-- Node758&#45;&gt;Node752 -->
<g id="edge11" class="edge">
<title>Node758&#45;&gt;Node752</title>
<path fill="none" stroke="#191970" d="M416.3164,-187.5757C395.4565,-193.4844 363.8575,-200.6549 334.1753,-206.4805"/>
<polygon fill="#191970" stroke="#191970" points="333.3589,-203.0733 324.201,-208.4008 334.6824,-209.9471 333.3589,-203.0733"/>
</g>
<!-- Node758&#45;&gt;Node759 -->
<g id="edge12" class="edge">
<title>Node758&#45;&gt;Node759</title>
<path fill="none" stroke="#191970" d="M517.0751,-184.5771C525.5691,-185.3019 534.2518,-186.0428 542.832,-186.775"/>
<polygon fill="#191970" stroke="#191970" points="542.5786,-190.266 552.84,-187.629 543.1738,-183.2913 542.5786,-190.266"/>
</g>
<!-- Node760 -->
<g id="node11" class="node">
<title>Node760</title>
<g id="a_node11"><a xlink:href="class_send_coins_dialog.html#a689658987f2af0896f25bf37bb945d91" target="_top" xlink:title="Set up the tab chain manually, as Qt messes up the tab chain by default in some cases (issue https://...">
<polygon fill="#ffffff" stroke="#000000" points="755.5,-121 755.5,-151 894.5,-151 894.5,-121 755.5,-121"/>
<text text-anchor="start" x="763.5" y="-139" font-family="Helvetica,sans-Serif" font-size="10.00" fill="#000000">SendCoinsDialog::setupTab</text>
<text text-anchor="middle" x="825" y="-128" font-family="Helvetica,sans-Serif" font-size="10.00" fill="#000000">Chain</text>
</a>
</g>
</g>
<!-- Node759&#45;&gt;Node760 -->
<g id="edge13" class="edge">
<title>Node759&#45;&gt;Node760</title>
<path fill="none" stroke="#191970" d="M678.618,-178.9881C704.677,-171.3354 736.5552,-161.9737 763.9024,-153.9426"/>
<polygon fill="#191970" stroke="#191970" points="765.1448,-157.2256 773.7534,-151.0496 763.1724,-150.5092 765.1448,-157.2256"/>
</g>
<!-- Node759&#45;&gt;Node762 -->
<g id="edge15" class="edge">
<title>Node759&#45;&gt;Node762</title>
<path fill="none" stroke="#191970" d="M696.5759,-209.0393C712.5123,-212.509 729.5854,-216.2262 745.9113,-219.7807"/>
<polygon fill="#191970" stroke="#191970" points="745.4474,-223.2616 755.9631,-221.9692 746.9366,-216.4218 745.4474,-223.2616"/>
</g>
<!-- Node761 -->
<g id="node12" class="node">
<title>Node761</title>
<g id="a_node12"><a xlink:href="class_send_coins_entry.html#aa431a0bf53174b3a012fe224e472bc13" target="_top" xlink:title="Set up the tab chain manually, as Qt messes up the tab chain by default in some cases (issue https://...">
<polygon fill="#ffffff" stroke="#000000" points="956,-99 956,-129 1090,-129 1090,-99 956,-99"/>
<text text-anchor="start" x="964" y="-117" font-family="Helvetica,sans-Serif" font-size="10.00" fill="#000000">SendCoinsEntry::setupTab</text>
<text text-anchor="middle" x="1023" y="-106" font-family="Helvetica,sans-Serif" font-size="10.00" fill="#000000">Chain</text>
</a>
</g>
</g>
<!-- Node760&#45;&gt;Node761 -->
<g id="edge14" class="edge">
<title>Node760&#45;&gt;Node761</title>
<path fill="none" stroke="#191970" d="M894.529,-128.2746C911.0466,-126.4393 928.7686,-124.4702 945.6129,-122.5986"/>
<polygon fill="#191970" stroke="#191970" points="946.4166,-126.0309 955.9689,-121.4479 945.6436,-119.0737 946.4166,-126.0309"/>
</g>
<!-- Node762&#45;&gt;Node754 -->
<g id="edge16" class="edge">
<title>Node762&#45;&gt;Node754</title>
<path fill="none" stroke="#191970" d="M857.2296,-252.1813C873.6295,-259.9081 893.8783,-269.4512 912,-278 928.003,-285.5493 931.3463,-289.0218 948,-295 954.8663,-297.4648 962.195,-299.739 969.4808,-301.7925"/>
<polygon fill="#191970" stroke="#191970" points="968.7754,-305.2272 979.3419,-304.453 970.5988,-298.4689 968.7754,-305.2272"/>
</g>
<!-- Node763 -->
<g id="node14" class="node">
<title>Node763</title>
<g id="a_node14"><a xlink:href="class_send_coins_dialog.html#a91c32dd9656813960ca6d076adedd1e0" target="_top" xlink:title="SendCoinsDialog::updateCoin\lControlState">
<polygon fill="#ffffff" stroke="#000000" points="949,-255 949,-285 1097,-285 1097,-255 949,-255"/>
<text text-anchor="start" x="957" y="-273" font-family="Helvetica,sans-Serif" font-size="10.00" fill="#000000">SendCoinsDialog::updateCoin</text>
<text text-anchor="middle" x="1023" y="-262" font-family="Helvetica,sans-Serif" font-size="10.00" fill="#000000">ControlState</text>
</a>
</g>
</g>
<!-- Node762&#45;&gt;Node763 -->
<g id="edge17" class="edge">
<title>Node762&#45;&gt;Node763</title>
<path fill="none" stroke="#191970" d="M899.0095,-249.3349C911.9639,-251.494 925.5293,-253.7549 938.7367,-255.9561"/>
<polygon fill="#191970" stroke="#191970" points="938.3112,-259.4334 948.7506,-257.6251 939.4621,-252.5287 938.3112,-259.4334"/>
</g>
<!-- Node765 -->
<g id="node16" class="node">
<title>Node765</title>
<g id="a_node16"><a xlink:href="class_send_coins_entry.html#af36fb0ed9e2e07079c1a982b31e793c8" target="_top" xlink:title="SendCoinsEntry::getValue">
<polygon fill="#ffffff" stroke="#000000" points="957,-216.5 957,-235.5 1089,-235.5 1089,-216.5 957,-216.5"/>
<text text-anchor="middle" x="1023" y="-223.5" font-family="Helvetica,sans-Serif" font-size="10.00" fill="#000000">SendCoinsEntry::getValue</text>
</a>
</g>
</g>
<!-- Node762&#45;&gt;Node765 -->
<g id="edge19" class="edge">
<title>Node762&#45;&gt;Node765</title>
<path fill="none" stroke="#191970" d="M899.0095,-232.8884C914.5976,-232.0224 931.0701,-231.1072 946.7393,-230.2367"/>
<polygon fill="#191970" stroke="#191970" points="947.1123,-233.7215 956.9028,-229.6721 946.724,-226.7323 947.1123,-233.7215"/>
</g>
<!-- Node767 -->
<g id="node18" class="node">
<title>Node767</title>
<g id="a_node18"><a xlink:href="class_coin_control_dialog.html#a4fc60e89b097952ff22dc0f9c58c87d9" target="_top" xlink:title="CoinControlDialog::\lupdateLabels">
<polygon fill="#ffffff" stroke="#000000" points="972,-148 972,-178 1074,-178 1074,-148 972,-148"/>
<text text-anchor="start" x="980" y="-166" font-family="Helvetica,sans-Serif" font-size="10.00" fill="#000000">CoinControlDialog::</text>
<text text-anchor="middle" x="1023" y="-155" font-family="Helvetica,sans-Serif" font-size="10.00" fill="#000000">updateLabels</text>
</a>
</g>
</g>
<!-- Node762&#45;&gt;Node767 -->
<g id="edge21" class="edge">
<title>Node762&#45;&gt;Node767</title>
<path fill="none" stroke="#191970" d="M865.546,-221.8464C896.7474,-210.1853 940.0174,-194.0137 973.303,-181.5736"/>
<polygon fill="#191970" stroke="#191970" points="974.7051,-184.7861 982.847,-178.0067 972.2545,-178.2291 974.7051,-184.7861"/>
</g>
<!-- Node764 -->
<g id="node15" class="node">
<title>Node764</title>
<g id="a_node15"><a xlink:href="policy_2fees_8cpp.html#a71cff9731ecdee1cef8bfc2c12dc3842" target="_top" xlink:title="getConfTargetForIndex">
<polygon fill="#ffffff" stroke="#000000" points="1143.5,-279.5 1143.5,-298.5 1260.5,-298.5 1260.5,-279.5 1143.5,-279.5"/>
<text text-anchor="middle" x="1202" y="-286.5" font-family="Helvetica,sans-Serif" font-size="10.00" fill="#000000">getConfTargetForIndex</text>
</a>
</g>
</g>
<!-- Node763&#45;&gt;Node764 -->
<g id="edge18" class="edge">
<title>Node763&#45;&gt;Node764</title>
<path fill="none" stroke="#191970" d="M1097.0983,-277.8652C1109.0005,-279.1285 1121.2774,-280.4317 1133.0526,-281.6816"/>
<polygon fill="#191970" stroke="#191970" points="1132.9357,-285.1887 1143.2493,-282.7639 1133.6746,-278.2278 1132.9357,-285.1887"/>
</g>
<!-- Node766 -->
<g id="node17" class="node">
<title>Node766</title>
<g id="a_node17"><a xlink:href="class_payment_request_plus.html#aa3d8c57af7c7bc4ffbc31da32e5a40a6" target="_top" xlink:title="PaymentRequestPlus\l::IsInitialized">
<polygon fill="#ffffff" stroke="#000000" points="1146,-230 1146,-260 1258,-260 1258,-230 1146,-230"/>
<text text-anchor="start" x="1154" y="-248" font-family="Helvetica,sans-Serif" font-size="10.00" fill="#000000">PaymentRequestPlus</text>
<text text-anchor="middle" x="1202" y="-237" font-family="Helvetica,sans-Serif" font-size="10.00" fill="#000000">::IsInitialized</text>
</a>
</g>
</g>
<!-- Node765&#45;&gt;Node766 -->
<g id="edge20" class="edge">
<title>Node765&#45;&gt;Node766</title>
<path fill="none" stroke="#191970" d="M1089.1444,-233.0209C1104.276,-234.6271 1120.3652,-236.3349 1135.5112,-237.9425"/>
<polygon fill="#191970" stroke="#191970" points="1135.5092,-241.4619 1145.8228,-239.0371 1136.2481,-234.501 1135.5092,-241.4619"/>
</g>
<!-- Node768 -->
<g id="node19" class="node">
<title>Node768</title>
<g id="a_node19"><a xlink:href="policy_8cpp.html#ab18c1023518f2920e34e05ca324d0ebb" target="_top" xlink:title="IsDust">
<polygon fill="#ffffff" stroke="#000000" points="1179,-153.5 1179,-172.5 1225,-172.5 1225,-153.5 1179,-153.5"/>
<text text-anchor="middle" x="1202" y="-160.5" font-family="Helvetica,sans-Serif" font-size="10.00" fill="#000000">IsDust</text>
</a>
</g>
</g>
<!-- Node767&#45;&gt;Node768 -->
<g id="edge22" class="edge">
<title>Node767&#45;&gt;Node768</title>
<path fill="none" stroke="#191970" d="M1074.2942,-163C1104.621,-163 1142.1527,-163 1168.6582,-163"/>
<polygon fill="#191970" stroke="#191970" points="1168.9382,-166.5001 1178.9382,-163 1168.9382,-159.5001 1168.9382,-166.5001"/>
</g>
<!-- Node783 -->
<g id="node34" class="node">
<title>Node783</title>
<g id="a_node34"><a xlink:href="class_c_coin_control.html#ad2022117a10ff787973af3d7aa62df6f" target="_top" xlink:title="CCoinControl::ListSelected">
<polygon fill="#ffffff" stroke="#000000" points="1134,-115.5 1134,-134.5 1270,-134.5 1270,-115.5 1134,-115.5"/>
<text text-anchor="middle" x="1202" y="-122.5" font-family="Helvetica,sans-Serif" font-size="10.00" fill="#000000">CCoinControl::ListSelected</text>
</a>
</g>
</g>
<!-- Node767&#45;&gt;Node783 -->
<g id="edge44" class="edge">
<title>Node767&#45;&gt;Node783</title>
<path fill="none" stroke="#191970" d="M1074.2942,-152.1107C1097.0621,-147.2773 1123.8909,-141.5818 1147.0662,-136.6619"/>
<polygon fill="#191970" stroke="#191970" points="1148.0346,-140.0344 1157.0897,-134.534 1146.5809,-133.187 1148.0346,-140.0344"/>
</g>
<!-- Node784 -->
<g id="node35" class="node">
<title>Node784</title>
<g id="a_node35"><a xlink:href="class_wallet_model.html#a5237ea4d9724807a05e2944e5ce6f181" target="_top" xlink:title="WalletModel::getOutputs">
<polygon fill="#ffffff" stroke="#000000" points="1139.5,-77.5 1139.5,-96.5 1264.5,-96.5 1264.5,-77.5 1139.5,-77.5"/>
<text text-anchor="middle" x="1202" y="-84.5" font-family="Helvetica,sans-Serif" font-size="10.00" fill="#000000">WalletModel::getOutputs</text>
</a>
</g>
</g>
<!-- Node767&#45;&gt;Node784 -->
<g id="edge45" class="edge">
<title>Node767&#45;&gt;Node784</title>
<path fill="none" stroke="#191970" d="M1074.2414,-149.0268C1082.4353,-145.9217 1090.633,-142.2592 1098,-138 1116.5328,-127.2853 1115.2088,-116.2548 1134,-106 1138.1526,-103.7338 1142.5986,-101.7191 1147.1552,-99.9315"/>
<polygon fill="#191970" stroke="#191970" points="1148.3541,-103.22 1156.6049,-96.5735 1146.0102,-96.6241 1148.3541,-103.22"/>
</g>
<!-- Node785 -->
<g id="node36" class="node">
<title>Node785</title>
<g id="a_node36"><a xlink:href="class_wallet_model.html#acb24dd4388e6daef526667fb365a57b1" target="_top" xlink:title="WalletModel::isSpent">
<polygon fill="#ffffff" stroke="#000000" points="1147,-39.5 1147,-58.5 1257,-58.5 1257,-39.5 1147,-39.5"/>
<text text-anchor="middle" x="1202" y="-46.5" font-family="Helvetica,sans-Serif" font-size="10.00" fill="#000000">WalletModel::isSpent</text>
</a>
</g>
</g>
<!-- Node767&#45;&gt;Node785 -->
<g id="edge46" class="edge">
<title>Node767&#45;&gt;Node785</title>
<path fill="none" stroke="#191970" d="M1074.2509,-151.8719C1082.8069,-148.4139 1091.123,-143.8962 1098,-138 1124.5588,-115.2288 1106.8881,-90.1099 1134,-68 1136.078,-66.3054 1138.2974,-64.7616 1140.6188,-63.3554"/>
<polygon fill="#191970" stroke="#191970" points="1142.6699,-66.2388 1149.9953,-58.5844 1139.4955,-60 1142.6699,-66.2388"/>
</g>
<!-- Node787 -->
<g id="node38" class="node">
<title>Node787</title>
<g id="a_node38"><a xlink:href="class_c_coin_control.html#a7f9b8135840df5907bc49a4c5cb19ba4" target="_top" xlink:title="CCoinControl::UnSelect">
<polygon fill="#ffffff" stroke="#000000" points="1141,-191.5 1141,-210.5 1263,-210.5 1263,-191.5 1141,-191.5"/>
<text text-anchor="middle" x="1202" y="-198.5" font-family="Helvetica,sans-Serif" font-size="10.00" fill="#000000">CCoinControl::UnSelect</text>
</a>
</g>
</g>
<!-- Node767&#45;&gt;Node787 -->
<g id="edge48" class="edge">
<title>Node767&#45;&gt;Node787</title>
<path fill="none" stroke="#191970" d="M1074.2942,-173.8893C1097.0621,-178.7227 1123.8909,-184.4182 1147.0662,-189.3381"/>
<polygon fill="#191970" stroke="#191970" points="1146.5809,-192.813 1157.0897,-191.466 1148.0346,-185.9656 1146.5809,-192.813"/>
</g>
<!-- Node769 -->
<g id="node20" class="node">
<title>Node769</title>
<g id="a_node20"><a xlink:href="class_c_script.html#ab23f32dfecc865f0d64467a4d8a5e1fc" target="_top" xlink:title="CScript::IsAssetScript">
<polygon fill="#ffffff" stroke="#000000" points="1306,-181.5 1306,-200.5 1421,-200.5 1421,-181.5 1306,-181.5"/>
<text text-anchor="middle" x="1363.5" y="-188.5" font-family="Helvetica,sans-Serif" font-size="10.00" fill="#000000">CScript::IsAssetScript</text>
</a>
</g>
</g>
<!-- Node768&#45;&gt;Node769 -->
<g id="edge23" class="edge">
<title>Node768&#45;&gt;Node769</title>
<path fill="none" stroke="#191970" d="M1225.139,-167.0117C1244.3115,-170.3357 1272.5252,-175.2273 1298.4825,-179.7276"/>
<polygon fill="#191970" stroke="#191970" points="1298.2229,-183.2347 1308.6738,-181.4945 1299.4187,-176.3376 1298.2229,-183.2347"/>
</g>
<!-- Node772 -->
<g id="node23" class="node">
<title>Node772</title>
<g id="a_node23"><a xlink:href="policy_8cpp.html#a7b1001b4a41a02d9469e3b6985587300" target="_top" xlink:title="GetDustThreshold">
<polygon fill="#ffffff" stroke="#000000" points="1315.5,-133.5 1315.5,-152.5 1411.5,-152.5 1411.5,-133.5 1315.5,-133.5"/>
<text text-anchor="middle" x="1363.5" y="-140.5" font-family="Helvetica,sans-Serif" font-size="10.00" fill="#000000">GetDustThreshold</text>
</a>
</g>
</g>
<!-- Node768&#45;&gt;Node772 -->
<g id="edge26" class="edge">
<title>Node768&#45;&gt;Node772</title>
<path fill="none" stroke="#191970" d="M1225.139,-160.1345C1246.0348,-157.5468 1277.67,-153.6291 1305.4189,-150.1927"/>
<polygon fill="#191970" stroke="#191970" points="1305.9453,-153.6543 1315.4393,-148.9518 1305.0849,-146.7074 1305.9453,-153.6543"/>
</g>
<!-- Node770 -->
<g id="node21" class="node">
<title>Node770</title>
<g id="a_node21"><a xlink:href="classprevector.html#a626f7d206dbc24e5610631809762758b" target="_top" xlink:title="prevector::size">
<polygon fill="#ffffff" stroke="#000000" points="1790.5,-123.5 1790.5,-142.5 1871.5,-142.5 1871.5,-123.5 1790.5,-123.5"/>
<text text-anchor="middle" x="1831" y="-130.5" font-family="Helvetica,sans-Serif" font-size="10.00" fill="#000000">prevector::size</text>
</a>
</g>
</g>
<!-- Node769&#45;&gt;Node770 -->
<g id="edge24" class="edge">
<title>Node769&#45;&gt;Node770</title>
<path fill="none" stroke="#191970" d="M1421.3134,-191.6804C1496.9086,-191.3902 1633.0073,-186.8044 1746,-161 1762.8984,-157.1409 1781.2111,-151.3277 1796.4962,-145.9965"/>
<polygon fill="#191970" stroke="#191970" points="1797.8139,-149.2426 1806.0582,-142.5881 1795.4636,-142.6489 1797.8139,-149.2426"/>
</g>
<!-- Node771 -->
<g id="node22" class="node">
<title>Node771</title>
<g id="a_node22"><a xlink:href="classprevector.html#a933e204a7e29c6bbc85479d023c00ff8" target="_top" xlink:title="prevector::is_direct">
<polygon fill="#ffffff" stroke="#000000" points="1921.5,-107.5 1921.5,-126.5 2021.5,-126.5 2021.5,-107.5 1921.5,-107.5"/>
<text text-anchor="middle" x="1971.5" y="-114.5" font-family="Helvetica,sans-Serif" font-size="10.00" fill="#000000">prevector::is_direct</text>
</a>
</g>
</g>
<!-- Node770&#45;&gt;Node771 -->
<g id="edge25" class="edge">
<title>Node770&#45;&gt;Node771</title>
<path fill="none" stroke="#191970" d="M1871.6384,-128.3721C1884.0383,-126.9601 1897.9448,-125.3764 1911.3501,-123.8498"/>
<polygon fill="#191970" stroke="#191970" points="1911.9306,-127.3064 1921.4704,-122.6973 1911.1385,-120.3514 1911.9306,-127.3064"/>
</g>
<!-- Node773 -->
<g id="node24" class="node">
<title>Node773</title>
<g id="a_node24"><a xlink:href="class_c_script.html#a11c26ad1d03fa2d60a733337c21b6719" target="_top" xlink:title="Returns whether the script is guaranteed to fail at execution, regardless of the initial stack...">
<polygon fill="#ffffff" stroke="#000000" points="1465,-152.5 1465,-171.5 1586,-171.5 1586,-152.5 1465,-152.5"/>
<text text-anchor="middle" x="1525.5" y="-159.5" font-family="Helvetica,sans-Serif" font-size="10.00" fill="#000000">CScript::IsUnspendable</text>
</a>
</g>
</g>
<!-- Node772&#45;&gt;Node773 -->
<g id="edge27" class="edge">
<title>Node772&#45;&gt;Node773</title>
<path fill="none" stroke="#191970" d="M1411.6667,-148.6492C1425.2314,-150.2401 1440.2748,-152.0045 1454.8624,-153.7153"/>
<polygon fill="#191970" stroke="#191970" points="1454.5252,-157.1997 1464.8649,-154.8885 1455.3407,-150.2474 1454.5252,-157.1997"/>
</g>
<!-- Node779 -->
<g id="node30" class="node">
<title>Node779</title>
<g id="a_node30"><a xlink:href="serialize_8h.html#aeb209536f7b746673a9c3fba8651b0e5" target="_top" xlink:title="GetSerializeSize">
<polygon fill="#ffffff" stroke="#000000" points="1481,-114.5 1481,-133.5 1570,-133.5 1570,-114.5 1481,-114.5"/>
<text text-anchor="middle" x="1525.5" y="-121.5" font-family="Helvetica,sans-Serif" font-size="10.00" fill="#000000">GetSerializeSize</text>
</a>
</g>
</g>
<!-- Node772&#45;&gt;Node779 -->
<g id="edge35" class="edge">
<title>Node772&#45;&gt;Node779</title>
<path fill="none" stroke="#191970" d="M1411.6667,-137.3508C1430.2456,-135.1718 1451.5986,-132.6674 1470.7549,-130.4207"/>
<polygon fill="#191970" stroke="#191970" points="1471.3175,-133.8788 1480.8417,-129.2377 1470.502,-126.9265 1471.3175,-133.8788"/>
</g>
<!-- Node780 -->
<g id="node31" class="node">
<title>Node780</title>
<g id="a_node31"><a xlink:href="class_c_script.html#ae6f2ab1af6361c5772f62b28b19f5eae" target="_top" xlink:title="CScript::IsWitnessProgram">
<polygon fill="#ffffff" stroke="#000000" points="1457,-76.5 1457,-95.5 1594,-95.5 1594,-76.5 1457,-76.5"/>
<text text-anchor="middle" x="1525.5" y="-83.5" font-family="Helvetica,sans-Serif" font-size="10.00" fill="#000000">CScript::IsWitnessProgram</text>
</a>
</g>
</g>
<!-- Node772&#45;&gt;Node780 -->
<g id="edge36" class="edge">
<title>Node772&#45;&gt;Node780</title>
<path fill="none" stroke="#191970" d="M1385.1451,-133.3714C1403.925,-125.2189 1431.9548,-113.531 1457,-105 1463.8268,-102.6746 1471.1063,-100.4208 1478.276,-98.3271"/>
<polygon fill="#191970" stroke="#191970" points="1479.2718,-101.6828 1487.9321,-95.5796 1477.356,-94.95 1479.2718,-101.6828"/>
</g>
<!-- Node773&#45;&gt;Node770 -->
<g id="edge28" class="edge">
<title>Node773&#45;&gt;Node770</title>
<path fill="none" stroke="#191970" d="M1586.2222,-156.2359C1642.9929,-150.8468 1726.8021,-142.8911 1780.1407,-137.8279"/>
<polygon fill="#191970" stroke="#191970" points="1780.7606,-141.2849 1790.3851,-136.8554 1780.0991,-134.3162 1780.7606,-141.2849"/>
</g>
<!-- Node774 -->
<g id="node25" class="node">
<title>Node774</title>
<g id="a_node25"><a xlink:href="classprevector.html#aa9210cbe708412a70868d6e0bca844c9" target="_top" xlink:title="prevector::begin">
<polygon fill="#ffffff" stroke="#000000" points="1645,-38.5 1645,-57.5 1731,-57.5 1731,-38.5 1645,-38.5"/>
<text text-anchor="middle" x="1688" y="-45.5" font-family="Helvetica,sans-Serif" font-size="10.00" fill="#000000">prevector::begin</text>
</a>
</g>
</g>
<!-- Node773&#45;&gt;Node774 -->
<g id="edge29" class="edge">
<title>Node773&#45;&gt;Node774</title>
<path fill="none" stroke="#191970" d="M1578.3559,-152.4586C1584.0074,-149.9925 1589.3728,-146.8934 1594,-143 1622.5986,-118.9364 1601.9624,-91.715 1630,-67 1631.9126,-65.314 1633.9782,-63.7771 1636.1509,-62.3762"/>
<polygon fill="#191970" stroke="#191970" points="1637.8282,-65.4482 1644.9663,-57.6188 1634.5038,-59.288 1637.8282,-65.4482"/>
</g>
<!-- Node775 -->
<g id="node26" class="node">
<title>Node775</title>
<g id="a_node26"><a xlink:href="classprevector_1_1iterator.html#ae9dd2b5e8d96f866e4b05d6b7535f285" target="_top" xlink:title="prevector::iterator\l::iterator">
<polygon fill="#ffffff" stroke="#000000" points="1784.5,-74 1784.5,-104 1877.5,-104 1877.5,-74 1784.5,-74"/>
<text text-anchor="start" x="1792.5" y="-92" font-family="Helvetica,sans-Serif" font-size="10.00" fill="#000000">prevector::iterator</text>
<text text-anchor="middle" x="1831" y="-81" font-family="Helvetica,sans-Serif" font-size="10.00" fill="#000000">::iterator</text>
</a>
</g>
</g>
<!-- Node774&#45;&gt;Node775 -->
<g id="edge30" class="edge">
<title>Node774&#45;&gt;Node775</title>
<path fill="none" stroke="#191970" d="M1721.1665,-57.5093C1737.1123,-62.0811 1756.6695,-67.6885 1774.8398,-72.8981"/>
<polygon fill="#191970" stroke="#191970" points="1773.8958,-76.2684 1784.4732,-75.6601 1775.8251,-69.5395 1773.8958,-76.2684"/>
</g>
<!-- Node776 -->
<g id="node27" class="node">
<title>Node776</title>
<g id="a_node27"><a xlink:href="classprevector.html#a59f1d7bcbc751cfa0faddd7ffa184846" target="_top" xlink:title="prevector::item_ptr">
<polygon fill="#ffffff" stroke="#000000" points="1782,-35.5 1782,-54.5 1880,-54.5 1880,-35.5 1782,-35.5"/>
<text text-anchor="middle" x="1831" y="-42.5" font-family="Helvetica,sans-Serif" font-size="10.00" fill="#000000">prevector::item_ptr</text>
</a>
</g>
</g>
<!-- Node774&#45;&gt;Node776 -->
<g id="edge31" class="edge">
<title>Node774&#45;&gt;Node776</title>
<path fill="none" stroke="#191970" d="M1731.2928,-47.0918C1744.0011,-46.8252 1758.1252,-46.5288 1771.6515,-46.2451"/>
<polygon fill="#191970" stroke="#191970" points="1771.921,-49.7403 1781.8454,-46.0312 1771.7741,-42.7418 1771.921,-49.7403"/>
</g>
<!-- Node776&#45;&gt;Node771 -->
<g id="edge32" class="edge">
<title>Node776&#45;&gt;Node771</title>
<path fill="none" stroke="#191970" d="M1857.7671,-54.5165C1865.0747,-57.3467 1872.9258,-60.6049 1880,-64 1903.8186,-75.4311 1929.7739,-90.7594 1947.9362,-101.9906"/>
<polygon fill="#191970" stroke="#191970" points="1946.3355,-105.1175 1956.6709,-107.448 1950.0447,-99.181 1946.3355,-105.1175"/>
</g>
<!-- Node777 -->
<g id="node28" class="node">
<title>Node777</title>
<g id="a_node28"><a xlink:href="classprevector.html#a20150a43dd87c33f0e855a55bd3418e8" target="_top" xlink:title="prevector::direct_ptr">
<polygon fill="#ffffff" stroke="#000000" points="1919.5,-54.5 1919.5,-73.5 2023.5,-73.5 2023.5,-54.5 1919.5,-54.5"/>
<text text-anchor="middle" x="1971.5" y="-61.5" font-family="Helvetica,sans-Serif" font-size="10.00" fill="#000000">prevector::direct_ptr</text>
</a>
</g>
</g>
<!-- Node776&#45;&gt;Node777 -->
<g id="edge33" class="edge">
<title>Node776&#45;&gt;Node777</title>
<path fill="none" stroke="#191970" d="M1880.1401,-51.6453C1889.5371,-52.9161 1899.4897,-54.262 1909.2347,-55.5798"/>
<polygon fill="#191970" stroke="#191970" points="1908.904,-59.0668 1919.2828,-56.9386 1909.8421,-52.13 1908.904,-59.0668"/>
</g>
<!-- Node778 -->
<g id="node29" class="node">
<title>Node778</title>
<g id="a_node29"><a xlink:href="classprevector.html#ae3343cc65be9fd678b4a6f8305624de6" target="_top" xlink:title="prevector::indirect_ptr">
<polygon fill="#ffffff" stroke="#000000" points="1916,-16.5 1916,-35.5 2027,-35.5 2027,-16.5 1916,-16.5"/>
<text text-anchor="middle" x="1971.5" y="-23.5" font-family="Helvetica,sans-Serif" font-size="10.00" fill="#000000">prevector::indirect_ptr</text>
</a>
</g>
</g>
<!-- Node776&#45;&gt;Node778 -->
<g id="edge34" class="edge">
<title>Node776&#45;&gt;Node778</title>
<path fill="none" stroke="#191970" d="M1880.1401,-38.3547C1888.4441,-37.2318 1897.182,-36.0501 1905.827,-34.881"/>
<polygon fill="#191970" stroke="#191970" points="1906.4606,-38.3273 1915.9013,-33.5187 1905.5225,-31.3905 1906.4606,-38.3273"/>
</g>
<!-- Node780&#45;&gt;Node770 -->
<g id="edge37" class="edge">
<title>Node780&#45;&gt;Node770</title>
<path fill="none" stroke="#191970" d="M1575.3929,-95.5063C1592.6615,-98.6809 1612.1573,-102.1364 1630,-105 1680.991,-113.1836 1739.4854,-121.1752 1780.174,-126.5119"/>
<polygon fill="#191970" stroke="#191970" points="1779.7506,-129.9862 1790.1195,-127.8099 1780.6566,-123.0451 1779.7506,-129.9862"/>
</g>
<!-- Node780&#45;&gt;Node774 -->
<g id="edge39" class="edge">
<title>Node780&#45;&gt;Node774</title>
<path fill="none" stroke="#191970" d="M1566.5056,-76.411C1588.0458,-71.3739 1614.6347,-65.1562 1637.4414,-59.8229"/>
<polygon fill="#191970" stroke="#191970" points="1638.3489,-63.2052 1647.2893,-57.5201 1636.755,-56.3891 1638.3489,-63.2052"/>
</g>
<!-- Node781 -->
<g id="node32" class="node">
<title>Node781</title>
<g id="a_node32"><a xlink:href="class_c_script.html#a7f975fca06b3e9a17da8ba23c7647e2e" target="_top" xlink:title="Encode/decode small integers: ">
<polygon fill="#ffffff" stroke="#000000" points="1630,-.5 1630,-19.5 1746,-19.5 1746,-.5 1630,-.5"/>
<text text-anchor="middle" x="1688" y="-7.5" font-family="Helvetica,sans-Serif" font-size="10.00" fill="#000000">CScript::DecodeOP_N</text>
</a>
</g>
</g>
<!-- Node780&#45;&gt;Node781 -->
<g id="edge38" class="edge">
<title>Node780&#45;&gt;Node781</title>
<path fill="none" stroke="#191970" d="M1540.9823,-76.3831C1560.9967,-64.2282 1597.1823,-43.184 1630,-29 1635.0456,-26.8193 1640.4279,-24.7422 1645.8033,-22.8162"/>
<polygon fill="#191970" stroke="#191970" points="1647.0753,-26.0801 1655.3973,-19.5231 1644.8026,-19.4593 1647.0753,-26.0801"/>
</g>
<!-- Node782 -->
<g id="node33" class="node">
<title>Node782</title>
<g id="a_node33"><a xlink:href="classprevector.html#aab7f6e13a3cac85cc340fc6b90c5365c" target="_top" xlink:title="prevector::end">
<polygon fill="#ffffff" stroke="#000000" points="1648.5,-76.5 1648.5,-95.5 1727.5,-95.5 1727.5,-76.5 1648.5,-76.5"/>
<text text-anchor="middle" x="1688" y="-83.5" font-family="Helvetica,sans-Serif" font-size="10.00" fill="#000000">prevector::end</text>
</a>
</g>
</g>
<!-- Node780&#45;&gt;Node782 -->
<g id="edge40" class="edge">
<title>Node780&#45;&gt;Node782</title>
<path fill="none" stroke="#191970" d="M1594.4146,-86C1609.0282,-86 1624.1868,-86 1637.9398,-86"/>
<polygon fill="#191970" stroke="#191970" points="1638.1505,-89.5001 1648.1505,-86 1638.1505,-82.5001 1638.1505,-89.5001"/>
</g>
<!-- Node782&#45;&gt;Node770 -->
<g id="edge43" class="edge">
<title>Node782&#45;&gt;Node770</title>
<path fill="none" stroke="#191970" d="M1716.9382,-95.5112C1738.504,-102.5992 1768.192,-112.3568 1791.8737,-120.1403"/>
<polygon fill="#191970" stroke="#191970" points="1791.0211,-123.5442 1801.614,-123.3417 1793.2069,-116.8942 1791.0211,-123.5442"/>
</g>
<!-- Node782&#45;&gt;Node775 -->
<g id="edge41" class="edge">
<title>Node782&#45;&gt;Node775</title>
<path fill="none" stroke="#191970" d="M1727.8335,-86.8357C1742.2054,-87.1372 1758.7164,-87.4836 1774.2553,-87.8096"/>
<polygon fill="#191970" stroke="#191970" points="1774.2227,-91.3095 1784.294,-88.0202 1774.3696,-84.3111 1774.2227,-91.3095"/>
</g>
<!-- Node782&#45;&gt;Node776 -->
<g id="edge42" class="edge">
<title>Node782&#45;&gt;Node776</title>
<path fill="none" stroke="#191970" d="M1721.1665,-76.4907C1740.9676,-70.8135 1766.3375,-63.5396 1787.7051,-57.4132"/>
<polygon fill="#191970" stroke="#191970" points="1788.87,-60.7203 1797.518,-54.5997 1786.9406,-53.9914 1788.87,-60.7203"/>
</g>
<!-- Node786 -->
<g id="node37" class="node">
<title>Node786</title>
<g id="a_node37"><a xlink:href="group__map_wallet.html#ga6adcf1c224ed3c3fe4b0b19f6fca75d8" target="_top" xlink:title="Outpoint is spent if any non&#45;conflicted transaction spends it: ">
<polygon fill="#ffffff" stroke="#000000" points="1317.5,-39.5 1317.5,-58.5 1409.5,-58.5 1409.5,-39.5 1317.5,-39.5"/>
<text text-anchor="middle" x="1363.5" y="-46.5" font-family="Helvetica,sans-Serif" font-size="10.00" fill="#000000">CWallet::IsSpent</text>
</a>
</g>
</g>
<!-- Node785&#45;&gt;Node786 -->
<g id="edge47" class="edge">
<title>Node785&#45;&gt;Node786</title>
<path fill="none" stroke="#191970" d="M1257.1274,-49C1273.2434,-49 1290.8785,-49 1307.0738,-49"/>
<polygon fill="#191970" stroke="#191970" points="1307.4781,-52.5001 1317.4781,-49 1307.478,-45.5001 1307.4781,-52.5001"/>
</g>
</g>
</svg>
