<?xml version="1.0" encoding="UTF-8" standalone="no"?>
<!DOCTYPE svg PUBLIC "-//W3C//DTD SVG 1.1//EN"
 "http://www.w3.org/Graphics/SVG/1.1/DTD/svg11.dtd">
<!-- Generated by graphviz version 2.40.1 (20161225.0304)
 -->
<!-- Title: CMerkleTx::GetDepthInMainChain Pages: 1 -->
<svg width="1507pt" height="821pt"
 viewBox="0.00 0.00 1507.00 820.50" xmlns="http://www.w3.org/2000/svg" xmlns:xlink="http://www.w3.org/1999/xlink">
<g id="graph0" class="graph" transform="scale(1 1) rotate(0) translate(4 816.5)">
<title>CMerkleTx::GetDepthInMainChain</title>
<polygon fill="#ffffff" stroke="transparent" points="-4,4 -4,-816.5 1503,-816.5 1503,4 -4,4"/>
<!-- Node40 -->
<g id="node1" class="node">
<title>Node40</title>
<polygon fill="#bfbfbf" stroke="#000000" points="0,-280 0,-310 142,-310 142,-280 0,-280"/>
<text text-anchor="start" x="8" y="-298" font-family="Helvetica,sans-Serif" font-size="10.00" fill="#000000">CMerkleTx::GetDepthInMain</text>
<text text-anchor="middle" x="71" y="-287" font-family="Helvetica,sans-Serif" font-size="10.00" fill="#000000">Chain</text>
</g>
<!-- Node41 -->
<g id="node2" class="node">
<title>Node41</title>
<g id="a_node2"><a xlink:href="class_transaction_record.html#a9b643dd885a790ae511705a1446556be" target="_top" xlink:title="Update status from core wallet tx. ">
<polygon fill="#ffffff" stroke="#000000" points="217.5,-518 217.5,-548 322.5,-548 322.5,-518 217.5,-518"/>
<text text-anchor="start" x="225.5" y="-536" font-family="Helvetica,sans-Serif" font-size="10.00" fill="#000000">TransactionRecord::</text>
<text text-anchor="middle" x="270" y="-525" font-family="Helvetica,sans-Serif" font-size="10.00" fill="#000000">updateStatus</text>
</a>
</g>
</g>
<!-- Node40&#45;&gt;Node41 -->
<g id="edge1" class="edge">
<title>Node40&#45;&gt;Node41</title>
<path fill="none" stroke="#191970" d="M76.3208,-319.9242C87.2285,-364.7919 116.4606,-459.1167 178,-509 189.1561,-518.043 203.355,-523.7115 217.24,-527.2546"/>
<polygon fill="#191970" stroke="#191970" points="79.7184,-319.082 74.0435,-310.1352 72.9005,-320.6682 79.7184,-319.082"/>
</g>
<!-- Node59 -->
<g id="node16" class="node">
<title>Node59</title>
<g id="a_node16"><a xlink:href="class_c_fee_bumper.html#aa35e522f4d08f765930432ed62a2dc20" target="_top" xlink:title="CFeeBumper::precondition\lChecks">
<polygon fill="#ffffff" stroke="#000000" points="203.5,-381 203.5,-411 336.5,-411 336.5,-381 203.5,-381"/>
<text text-anchor="start" x="211.5" y="-399" font-family="Helvetica,sans-Serif" font-size="10.00" fill="#000000">CFeeBumper::precondition</text>
<text text-anchor="middle" x="270" y="-388" font-family="Helvetica,sans-Serif" font-size="10.00" fill="#000000">Checks</text>
</a>
</g>
</g>
<!-- Node40&#45;&gt;Node59 -->
<g id="edge15" class="edge">
<title>Node40&#45;&gt;Node59</title>
<path fill="none" stroke="#191970" d="M96.0237,-316.6696C116.751,-333.6199 147.6281,-356.6472 178,-371 185.9312,-374.7481 194.5218,-378.0157 203.1586,-380.8413"/>
<polygon fill="#191970" stroke="#191970" points="98.2584,-313.9759 88.3309,-310.2752 93.7838,-319.359 98.2584,-313.9759"/>
</g>
<!-- Node62 -->
<g id="node19" class="node">
<title>Node62</title>
<g id="a_node19"><a xlink:href="rpcwallet_8cpp.html#a7050d2b7e907f8148f13878e8dcea550" target="_top" xlink:title="WalletTxToJSON">
<polygon fill="#ffffff" stroke="#000000" points="223,-342.5 223,-361.5 317,-361.5 317,-342.5 223,-342.5"/>
<text text-anchor="middle" x="270" y="-349.5" font-family="Helvetica,sans-Serif" font-size="10.00" fill="#000000">WalletTxToJSON</text>
</a>
</g>
</g>
<!-- Node40&#45;&gt;Node62 -->
<g id="edge18" class="edge">
<title>Node40&#45;&gt;Node62</title>
<path fill="none" stroke="#191970" d="M118.7989,-313.5602C137.1338,-320.2595 158.3659,-327.5142 178,-333 192.4511,-337.0376 208.3973,-340.6271 222.8976,-343.569"/>
<polygon fill="#191970" stroke="#191970" points="119.8132,-310.2037 109.22,-310.0155 117.3837,-316.7686 119.8132,-310.2037"/>
</g>
<!-- Node63 -->
<g id="node20" class="node">
<title>Node63</title>
<g id="a_node20"><a xlink:href="rpcwallet_8cpp.html#a797ec5ebe2780073014606ef9f78cd4b" target="_top" xlink:title="getreceivedbyaddress">
<polygon fill="#ffffff" stroke="#000000" points="214,-304.5 214,-323.5 326,-323.5 326,-304.5 214,-304.5"/>
<text text-anchor="middle" x="270" y="-311.5" font-family="Helvetica,sans-Serif" font-size="10.00" fill="#000000">getreceivedbyaddress</text>
</a>
</g>
</g>
<!-- Node40&#45;&gt;Node63 -->
<g id="edge19" class="edge">
<title>Node40&#45;&gt;Node63</title>
<path fill="none" stroke="#191970" d="M152.0584,-302.7392C172.7601,-304.7158 194.5656,-306.7977 213.7191,-308.6264"/>
<polygon fill="#191970" stroke="#191970" points="152.2882,-299.2454 142.0008,-301.779 151.6228,-306.2137 152.2882,-299.2454"/>
</g>
<!-- Node64 -->
<g id="node21" class="node">
<title>Node64</title>
<g id="a_node21"><a xlink:href="rpcwallet_8cpp.html#ab00d84bc574f3a4707fc11d30269a8e1" target="_top" xlink:title="getreceivedbyaccount">
<polygon fill="#ffffff" stroke="#000000" points="214,-266.5 214,-285.5 326,-285.5 326,-266.5 214,-266.5"/>
<text text-anchor="middle" x="270" y="-273.5" font-family="Helvetica,sans-Serif" font-size="10.00" fill="#000000">getreceivedbyaccount</text>
</a>
</g>
</g>
<!-- Node40&#45;&gt;Node64 -->
<g id="edge20" class="edge">
<title>Node40&#45;&gt;Node64</title>
<path fill="none" stroke="#191970" d="M152.0584,-287.2608C172.7601,-285.2842 194.5656,-283.2023 213.7191,-281.3736"/>
<polygon fill="#191970" stroke="#191970" points="151.6228,-283.7863 142.0008,-288.221 152.2882,-290.7546 151.6228,-283.7863"/>
</g>
<!-- Node65 -->
<g id="node22" class="node">
<title>Node65</title>
<g id="a_node22"><a xlink:href="rpcwallet_8cpp.html#ae5af8884ac356c023c84fca170e79ad6" target="_top" xlink:title="ListReceived">
<polygon fill="#ffffff" stroke="#000000" points="233,-228.5 233,-247.5 307,-247.5 307,-228.5 233,-228.5"/>
<text text-anchor="middle" x="270" y="-235.5" font-family="Helvetica,sans-Serif" font-size="10.00" fill="#000000">ListReceived</text>
</a>
</g>
</g>
<!-- Node40&#45;&gt;Node65 -->
<g id="edge21" class="edge">
<title>Node40&#45;&gt;Node65</title>
<path fill="none" stroke="#191970" d="M118.7989,-276.4398C137.1338,-269.7405 158.3659,-262.4858 178,-257 195.7497,-252.0407 215.755,-247.7576 232.5662,-244.52"/>
<polygon fill="#191970" stroke="#191970" points="117.3837,-273.2314 109.22,-279.9845 119.8132,-279.7963 117.3837,-273.2314"/>
</g>
<!-- Node68 -->
<g id="node25" class="node">
<title>Node68</title>
<g id="a_node25"><a xlink:href="rpcwallet_8cpp.html#a9e5eb84bdfa03fa36ac4f51ff52b74ae" target="_top" xlink:title="listaccounts">
<polygon fill="#ffffff" stroke="#000000" points="235.5,-190.5 235.5,-209.5 304.5,-209.5 304.5,-190.5 235.5,-190.5"/>
<text text-anchor="middle" x="270" y="-197.5" font-family="Helvetica,sans-Serif" font-size="10.00" fill="#000000">listaccounts</text>
</a>
</g>
</g>
<!-- Node40&#45;&gt;Node68 -->
<g id="edge24" class="edge">
<title>Node40&#45;&gt;Node68</title>
<path fill="none" stroke="#191970" d="M95.0572,-273.4384C115.6499,-256.1364 146.8312,-232.5701 178,-219 196.0938,-211.1224 217.6364,-206.447 235.3255,-203.7065"/>
<polygon fill="#191970" stroke="#191970" points="92.7608,-270.7968 87.4411,-279.9593 97.3135,-276.1141 92.7608,-270.7968"/>
</g>
<!-- Node69 -->
<g id="node26" class="node">
<title>Node69</title>
<g id="a_node26"><a xlink:href="rpcwallet_8cpp.html#aec8812106a8f22a37c1b81b202e8c897" target="_top" xlink:title="listsinceblock">
<polygon fill="#ffffff" stroke="#000000" points="232,-152.5 232,-171.5 308,-171.5 308,-152.5 232,-152.5"/>
<text text-anchor="middle" x="270" y="-159.5" font-family="Helvetica,sans-Serif" font-size="10.00" fill="#000000">listsinceblock</text>
</a>
</g>
</g>
<!-- Node40&#45;&gt;Node69 -->
<g id="edge25" class="edge">
<title>Node40&#45;&gt;Node69</title>
<path fill="none" stroke="#191970" d="M86.4271,-271.3255C104.9198,-244.9643 138.4203,-203.158 178,-181 194.3656,-171.838 214.5931,-167.0733 231.9103,-164.6041"/>
<polygon fill="#191970" stroke="#191970" points="83.5075,-269.3945 80.744,-279.6226 89.2826,-273.3503 83.5075,-269.3945"/>
</g>
<!-- Node70 -->
<g id="node27" class="node">
<title>Node70</title>
<g id="a_node27"><a xlink:href="group__map_wallet.html#gac4430bbdacf1a1b11f2f7010eef016c9" target="_top" xlink:title="Return whether transaction can be abandoned. ">
<polygon fill="#ffffff" stroke="#000000" points="200.5,-469 200.5,-499 339.5,-499 339.5,-469 200.5,-469"/>
<text text-anchor="start" x="208.5" y="-487" font-family="Helvetica,sans-Serif" font-size="10.00" fill="#000000">CWallet::TransactionCanBe</text>
<text text-anchor="middle" x="270" y="-476" font-family="Helvetica,sans-Serif" font-size="10.00" fill="#000000">Abandoned</text>
</a>
</g>
</g>
<!-- Node40&#45;&gt;Node70 -->
<g id="edge26" class="edge">
<title>Node40&#45;&gt;Node70</title>
<path fill="none" stroke="#191970" d="M80.3625,-319.6682C95.3631,-355.8162 128.2482,-422.7998 178,-459 184.6918,-463.869 192.2791,-467.7898 200.1569,-470.9469"/>
<polygon fill="#191970" stroke="#191970" points="83.5889,-318.3102 76.6067,-310.3415 77.0956,-320.9251 83.5889,-318.3102"/>
</g>
<!-- Node72 -->
<g id="node29" class="node">
<title>Node72</title>
<g id="a_node29"><a xlink:href="group__map_wallet.html#ga9a4633bfb89da7a4afa04356a74b7970" target="_top" xlink:title="CWallet::AbandonTransaction">
<polygon fill="#ffffff" stroke="#000000" points="196.5,-430.5 196.5,-449.5 343.5,-449.5 343.5,-430.5 196.5,-430.5"/>
<text text-anchor="middle" x="270" y="-437.5" font-family="Helvetica,sans-Serif" font-size="10.00" fill="#000000">CWallet::AbandonTransaction</text>
</a>
</g>
</g>
<!-- Node40&#45;&gt;Node72 -->
<g id="edge29" class="edge">
<title>Node40&#45;&gt;Node72</title>
<path fill="none" stroke="#191970" d="M84.4568,-318.9441C102.0525,-347.9111 135.6783,-395.9058 178,-421 184.4532,-424.8263 191.5577,-427.891 198.8711,-430.3443"/>
<polygon fill="#191970" stroke="#191970" points="87.4226,-317.0832 79.3165,-310.261 81.3989,-320.6492 87.4226,-317.0832"/>
</g>
<!-- Node76 -->
<g id="node33" class="node">
<title>Node76</title>
<g id="a_node33"><a xlink:href="group__map_wallet.html#ga009ea6afd94f2c5d560ae063883628b5" target="_top" xlink:title="CWallet::MarkConflicted">
<polygon fill="#ffffff" stroke="#000000" points="208,-114.5 208,-133.5 332,-133.5 332,-114.5 208,-114.5"/>
<text text-anchor="middle" x="270" y="-121.5" font-family="Helvetica,sans-Serif" font-size="10.00" fill="#000000">CWallet::MarkConflicted</text>
</a>
</g>
</g>
<!-- Node40&#45;&gt;Node76 -->
<g id="edge34" class="edge">
<title>Node40&#45;&gt;Node76</title>
<path fill="none" stroke="#191970" d="M81.267,-270.2667C96.8556,-235.9537 129.8624,-174.5756 178,-143 186.8642,-137.1856 197.1582,-133.0989 207.5843,-130.2374"/>
<polygon fill="#191970" stroke="#191970" points="77.9917,-269.0199 77.162,-279.5822 84.3973,-271.8427 77.9917,-269.0199"/>
</g>
<!-- Node77 -->
<g id="node34" class="node">
<title>Node77</title>
<g id="a_node34"><a xlink:href="group__map_wallet.html#ga796c23450c8482e10e0c75ae5c1fa8ed" target="_top" xlink:title="CWallet::ReacceptWalletTransactions">
<polygon fill="#ffffff" stroke="#000000" points="178,-76.5 178,-95.5 362,-95.5 362,-76.5 178,-76.5"/>
<text text-anchor="middle" x="270" y="-83.5" font-family="Helvetica,sans-Serif" font-size="10.00" fill="#000000">CWallet::ReacceptWalletTransactions</text>
</a>
</g>
</g>
<!-- Node40&#45;&gt;Node77 -->
<g id="edge35" class="edge">
<title>Node40&#45;&gt;Node77</title>
<path fill="none" stroke="#191970" d="M77.7208,-269.9618C90.1724,-228.6633 120.9083,-146.6949 178,-105 183.2683,-101.1525 189.1364,-98.0434 195.2882,-95.536"/>
<polygon fill="#191970" stroke="#191970" points="74.3006,-269.1898 74.8795,-279.7688 81.0241,-271.1378 74.3006,-269.1898"/>
</g>
<!-- Node79 -->
<g id="node36" class="node">
<title>Node79</title>
<g id="a_node36"><a xlink:href="group___actions.html#ga6e6e1497535d499242c2f2a76d1cbe63" target="_top" xlink:title="CWallet::GetUnconfirmedBalance">
<polygon fill="#ffffff" stroke="#000000" points="398,-658.5 398,-677.5 562,-677.5 562,-658.5 398,-658.5"/>
<text text-anchor="middle" x="480" y="-665.5" font-family="Helvetica,sans-Serif" font-size="10.00" fill="#000000">CWallet::GetUnconfirmedBalance</text>
</a>
</g>
</g>
<!-- Node40&#45;&gt;Node79 -->
<g id="edge37" class="edge">
<title>Node40&#45;&gt;Node79</title>
<path fill="none" stroke="#191970" d="M72.0888,-320.1524C76.026,-378.3584 94.194,-523.0687 178,-598 237.9823,-651.6304 330.9005,-666.4948 397.8303,-669.5807"/>
<polygon fill="#191970" stroke="#191970" points="75.5739,-319.7947 71.4911,-310.0182 68.586,-320.2069 75.5739,-319.7947"/>
</g>
<!-- Node88 -->
<g id="node45" class="node">
<title>Node88</title>
<g id="a_node45"><a xlink:href="group___actions.html#gab0c110f14f0429f9de594b2293837621" target="_top" xlink:title="CWallet::GetUnconfirmedWatch\lOnlyBalance">
<polygon fill="#ffffff" stroke="#000000" points="401,-588 401,-618 559,-618 559,-588 401,-588"/>
<text text-anchor="start" x="409" y="-606" font-family="Helvetica,sans-Serif" font-size="10.00" fill="#000000">CWallet::GetUnconfirmedWatch</text>
<text text-anchor="middle" x="480" y="-595" font-family="Helvetica,sans-Serif" font-size="10.00" fill="#000000">OnlyBalance</text>
</a>
</g>
</g>
<!-- Node40&#45;&gt;Node88 -->
<g id="edge52" class="edge">
<title>Node40&#45;&gt;Node88</title>
<path fill="none" stroke="#191970" d="M73.184,-320.2011C79.251,-373.5071 101.3164,-497.7248 178,-558 240.8266,-607.3832 334.383,-614.2105 400.6917,-611.4771"/>
<polygon fill="#191970" stroke="#191970" points="76.6634,-319.8207 72.1452,-310.2375 69.7011,-320.5466 76.6634,-319.8207"/>
</g>
<!-- Node90 -->
<g id="node47" class="node">
<title>Node90</title>
<g id="a_node47"><a xlink:href="group___actions.html#gabc196bc3ad4c11a5f643c0fcd77b68a4" target="_top" xlink:title="CWallet::GetLegacyBalance">
<polygon fill="#ffffff" stroke="#000000" points="200,-38.5 200,-57.5 340,-57.5 340,-38.5 200,-38.5"/>
<text text-anchor="middle" x="270" y="-45.5" font-family="Helvetica,sans-Serif" font-size="10.00" fill="#000000">CWallet::GetLegacyBalance</text>
</a>
</g>
</g>
<!-- Node40&#45;&gt;Node90 -->
<g id="edge60" class="edge">
<title>Node40&#45;&gt;Node90</title>
<path fill="none" stroke="#191970" d="M75.217,-269.8439C84.5802,-222.2787 111.7505,-119.2534 178,-67 184.4027,-61.9499 191.8139,-58.1478 199.5954,-55.2987"/>
<polygon fill="#191970" stroke="#191970" points="71.7344,-269.4274 73.343,-279.8994 78.6159,-270.7099 71.7344,-269.4274"/>
</g>
<!-- Node92 -->
<g id="node49" class="node">
<title>Node92</title>
<g id="a_node49"><a xlink:href="group___actions.html#gadf2b4ac337ddb271555985cec82e43e6" target="_top" xlink:title="CWallet::GetAddressBalances">
<polygon fill="#ffffff" stroke="#000000" points="195,-.5 195,-19.5 345,-19.5 345,-.5 195,-.5"/>
<text text-anchor="middle" x="270" y="-7.5" font-family="Helvetica,sans-Serif" font-size="10.00" fill="#000000">CWallet::GetAddressBalances</text>
</a>
</g>
</g>
<!-- Node40&#45;&gt;Node92 -->
<g id="edge62" class="edge">
<title>Node40&#45;&gt;Node92</title>
<path fill="none" stroke="#191970" d="M73.3541,-269.8497C79.7503,-216.5902 102.4159,-92.1489 178,-29 183.0064,-24.8173 188.6943,-21.4778 194.7287,-18.8202"/>
<polygon fill="#191970" stroke="#191970" points="69.8741,-269.4759 72.2518,-279.8005 76.8316,-270.2467 69.8741,-269.4759"/>
</g>
<!-- Node42 -->
<g id="node3" class="node">
<title>Node42</title>
<g id="a_node3"><a xlink:href="class_transaction_table_priv.html#ac692aa6aa7820e80accc971c70e0fae5" target="_top" xlink:title="TransactionTablePriv\l::index">
<polygon fill="#ffffff" stroke="#000000" points="425.5,-518 425.5,-548 534.5,-548 534.5,-518 425.5,-518"/>
<text text-anchor="start" x="433.5" y="-536" font-family="Helvetica,sans-Serif" font-size="10.00" fill="#000000">TransactionTablePriv</text>
<text text-anchor="middle" x="480" y="-525" font-family="Helvetica,sans-Serif" font-size="10.00" fill="#000000">::index</text>
</a>
</g>
</g>
<!-- Node41&#45;&gt;Node42 -->
<g id="edge2" class="edge">
<title>Node41&#45;&gt;Node42</title>
<path fill="none" stroke="#191970" d="M332.8982,-533C362.35,-533 397.0984,-533 425.4256,-533"/>
<polygon fill="#191970" stroke="#191970" points="332.7208,-529.5001 322.7208,-533 332.7208,-536.5001 332.7208,-529.5001"/>
</g>
<!-- Node43 -->
<g id="node4" class="node">
<title>Node43</title>
<g id="a_node4"><a xlink:href="class_transaction_table_model.html#af3a9a49314f80268a77a704f7f028905" target="_top" xlink:title="TransactionTableModel\l::index">
<polygon fill="#ffffff" stroke="#000000" points="626,-516 626,-546 744,-546 744,-516 626,-516"/>
<text text-anchor="start" x="634" y="-534" font-family="Helvetica,sans-Serif" font-size="10.00" fill="#000000">TransactionTableModel</text>
<text text-anchor="middle" x="685" y="-523" font-family="Helvetica,sans-Serif" font-size="10.00" fill="#000000">::index</text>
</a>
</g>
</g>
<!-- Node42&#45;&gt;Node43 -->
<g id="edge3" class="edge">
<title>Node42&#45;&gt;Node43</title>
<path fill="none" stroke="#191970" d="M544.7856,-532.3679C570.7396,-532.1147 600.4426,-531.825 625.8092,-531.5775"/>
<polygon fill="#191970" stroke="#191970" points="544.6323,-528.8692 534.6669,-532.4667 544.7006,-535.8688 544.6323,-528.8692"/>
</g>
<!-- Node57 -->
<g id="node14" class="node">
<title>Node57</title>
<g id="a_node14"><a xlink:href="class_transaction_view.html#abe5793b86a4ea6f80a6d822ee878e646" target="_top" xlink:title="TransactionView::contextualMenu">
<polygon fill="#ffffff" stroke="#000000" points="603,-474.5 603,-493.5 767,-493.5 767,-474.5 603,-474.5"/>
<text text-anchor="middle" x="685" y="-481.5" font-family="Helvetica,sans-Serif" font-size="10.00" fill="#000000">TransactionView::contextualMenu</text>
</a>
</g>
</g>
<!-- Node42&#45;&gt;Node57 -->
<g id="edge13" class="edge">
<title>Node42&#45;&gt;Node57</title>
<path fill="none" stroke="#191970" d="M544.6722,-517.5418C577.5969,-509.672 616.5786,-500.3544 645.0906,-493.5393"/>
<polygon fill="#191970" stroke="#191970" points="543.5793,-514.2043 534.6669,-519.9333 545.2067,-521.0125 543.5793,-514.2043"/>
</g>
<!-- Node44 -->
<g id="node5" class="node">
<title>Node44</title>
<g id="a_node5"><a xlink:href="class_transaction_table_model.html#a5899d9eda6465bfb16d2846b6459567e" target="_top" xlink:title="TransactionTableModel\l::updateConfirmations">
<polygon fill="#ffffff" stroke="#000000" points="838,-480 838,-510 956,-510 956,-480 838,-480"/>
<text text-anchor="start" x="846" y="-498" font-family="Helvetica,sans-Serif" font-size="10.00" fill="#000000">TransactionTableModel</text>
<text text-anchor="middle" x="897" y="-487" font-family="Helvetica,sans-Serif" font-size="10.00" fill="#000000">::updateConfirmations</text>
</a>
</g>
</g>
<!-- Node43&#45;&gt;Node44 -->
<g id="edge4" class="edge">
<title>Node43&#45;&gt;Node44</title>
<path fill="none" stroke="#191970" d="M754.2182,-519.246C781.25,-514.6557 811.9248,-509.4467 837.8956,-505.0366"/>
<polygon fill="#191970" stroke="#191970" points="753.3267,-515.8472 744.0538,-520.972 754.4987,-522.7484 753.3267,-515.8472"/>
</g>
<!-- Node47 -->
<g id="node8" class="node">
<title>Node47</title>
<g id="a_node8"><a xlink:href="class_transaction_table_model.html#a8b73ff7d72ec2dd69790bc61bbe8575e" target="_top" xlink:title="TransactionTableModel\l::updateDisplayUnit">
<polygon fill="#ffffff" stroke="#000000" points="838,-431 838,-461 956,-461 956,-431 838,-431"/>
<text text-anchor="start" x="846" y="-449" font-family="Helvetica,sans-Serif" font-size="10.00" fill="#000000">TransactionTableModel</text>
<text text-anchor="middle" x="897" y="-438" font-family="Helvetica,sans-Serif" font-size="10.00" fill="#000000">::updateDisplayUnit</text>
</a>
</g>
</g>
<!-- Node43&#45;&gt;Node47 -->
<g id="edge7" class="edge">
<title>Node43&#45;&gt;Node47</title>
<path fill="none" stroke="#191970" d="M753.1569,-512.1331C759.6869,-509.4216 766.0756,-506.3843 772,-503 790.5882,-492.3816 789.2158,-481.2677 808,-471 817.1538,-465.9964 827.3969,-461.9219 837.586,-458.6274"/>
<polygon fill="#191970" stroke="#191970" points="751.5799,-508.9909 743.5264,-515.875 754.1151,-515.5156 751.5799,-508.9909"/>
</g>
<!-- Node49 -->
<g id="node10" class="node">
<title>Node49</title>
<g id="a_node10"><a xlink:href="class_wallet_view.html#aed3fc203d310243887be68bc58d741ec" target="_top" xlink:title="Show incoming transaction notification for new transactions. ">
<polygon fill="#ffffff" stroke="#000000" points="808,-529.5 808,-548.5 986,-548.5 986,-529.5 808,-529.5"/>
<text text-anchor="middle" x="897" y="-536.5" font-family="Helvetica,sans-Serif" font-size="10.00" fill="#000000">WalletView::processNewTransaction</text>
</a>
</g>
</g>
<!-- Node43&#45;&gt;Node49 -->
<g id="edge9" class="edge">
<title>Node43&#45;&gt;Node49</title>
<path fill="none" stroke="#191970" d="M754.447,-533.6206C771.4663,-534.2629 789.9181,-534.9592 807.7241,-535.6311"/>
<polygon fill="#191970" stroke="#191970" points="754.1787,-530.1081 744.0538,-533.2284 753.9147,-537.1031 754.1787,-530.1081"/>
</g>
<!-- Node45 -->
<g id="node6" class="node">
<title>Node45</title>
<g id="a_node6"><a xlink:href="class_wallet_model.html#a51469b2d95cfd4bc0a14ee456fca7b95" target="_top" xlink:title="WalletModel::pollBalance\lChanged">
<polygon fill="#ffffff" stroke="#000000" points="1028.5,-524 1028.5,-554 1155.5,-554 1155.5,-524 1028.5,-524"/>
<text text-anchor="start" x="1036.5" y="-542" font-family="Helvetica,sans-Serif" font-size="10.00" fill="#000000">WalletModel::pollBalance</text>
<text text-anchor="middle" x="1092" y="-531" font-family="Helvetica,sans-Serif" font-size="10.00" fill="#000000">Changed</text>
</a>
</g>
</g>
<!-- Node44&#45;&gt;Node45 -->
<g id="edge5" class="edge">
<title>Node44&#45;&gt;Node45</title>
<path fill="none" stroke="#191970" d="M965.8648,-510.5387C986.2222,-515.1322 1008.4071,-520.138 1028.4153,-524.6527"/>
<polygon fill="#191970" stroke="#191970" points="966.5608,-507.1078 956.0356,-508.3209 965.02,-513.9362 966.5608,-507.1078"/>
</g>
<!-- Node46 -->
<g id="node7" class="node">
<title>Node46</title>
<g id="a_node7"><a xlink:href="class_wallet_model.html#a36282857c97bcaad796a2b5c7398245c" target="_top" xlink:title="WalletModel::WalletModel">
<polygon fill="#ffffff" stroke="#000000" points="1198,-529.5 1198,-548.5 1329,-548.5 1329,-529.5 1198,-529.5"/>
<text text-anchor="middle" x="1263.5" y="-536.5" font-family="Helvetica,sans-Serif" font-size="10.00" fill="#000000">WalletModel::WalletModel</text>
</a>
</g>
</g>
<!-- Node45&#45;&gt;Node46 -->
<g id="edge6" class="edge">
<title>Node45&#45;&gt;Node46</title>
<path fill="none" stroke="#191970" d="M1165.9432,-539C1176.5612,-539 1187.4255,-539 1197.8679,-539"/>
<polygon fill="#191970" stroke="#191970" points="1165.8603,-535.5001 1155.8603,-539 1165.8602,-542.5001 1165.8603,-535.5001"/>
</g>
<!-- Node48 -->
<g id="node9" class="node">
<title>Node48</title>
<g id="a_node9"><a xlink:href="class_transaction_table_model.html#ac5cc82df37f09b4aed2d20628a77e756" target="_top" xlink:title="TransactionTableModel\l::TransactionTableModel">
<polygon fill="#ffffff" stroke="#000000" points="1030,-431 1030,-461 1154,-461 1154,-431 1030,-431"/>
<text text-anchor="start" x="1038" y="-449" font-family="Helvetica,sans-Serif" font-size="10.00" fill="#000000">TransactionTableModel</text>
<text text-anchor="middle" x="1092" y="-438" font-family="Helvetica,sans-Serif" font-size="10.00" fill="#000000">::TransactionTableModel</text>
</a>
</g>
</g>
<!-- Node47&#45;&gt;Node48 -->
<g id="edge8" class="edge">
<title>Node47&#45;&gt;Node48</title>
<path fill="none" stroke="#191970" d="M966.0609,-446C986.8293,-446 1009.4843,-446 1029.7814,-446"/>
<polygon fill="#191970" stroke="#191970" points="966.0356,-442.5001 956.0356,-446 966.0356,-449.5001 966.0356,-442.5001"/>
</g>
<!-- Node50 -->
<g id="node11" class="node">
<title>Node50</title>
<g id="a_node11"><a xlink:href="class_wallet_view.html#a0a37ff693a4f9c1e5ddc23f9cd3913be" target="_top" xlink:title="Set the wallet model. ">
<polygon fill="#ffffff" stroke="#000000" points="1022,-677.5 1022,-696.5 1162,-696.5 1162,-677.5 1022,-677.5"/>
<text text-anchor="middle" x="1092" y="-684.5" font-family="Helvetica,sans-Serif" font-size="10.00" fill="#000000">WalletView::setWalletModel</text>
</a>
</g>
</g>
<!-- Node49&#45;&gt;Node50 -->
<g id="edge10" class="edge">
<title>Node49&#45;&gt;Node50</title>
<path fill="none" stroke="#191970" d="M972.1194,-552.0002C976.9632,-554.0087 981.6398,-556.3262 986,-559 1036.4226,-589.9208 1074.0628,-653.4001 1087.0589,-677.4654"/>
<polygon fill="#191970" stroke="#191970" points="973.2312,-548.6798 962.6378,-548.5061 970.8107,-555.248 973.2312,-548.6798"/>
</g>
<!-- Node51 -->
<g id="node12" class="node">
<title>Node51</title>
<g id="a_node12"><a xlink:href="class_wallet_frame.html#aa199c3f27654199d84c365cf86167d86" target="_top" xlink:title="WalletFrame::addWallet">
<polygon fill="#ffffff" stroke="#000000" points="1202.5,-677.5 1202.5,-696.5 1324.5,-696.5 1324.5,-677.5 1202.5,-677.5"/>
<text text-anchor="middle" x="1263.5" y="-684.5" font-family="Helvetica,sans-Serif" font-size="10.00" fill="#000000">WalletFrame::addWallet</text>
</a>
</g>
</g>
<!-- Node50&#45;&gt;Node51 -->
<g id="edge11" class="edge">
<title>Node50&#45;&gt;Node51</title>
<path fill="none" stroke="#191970" d="M1172.3167,-687C1182.4377,-687 1192.66,-687 1202.4167,-687"/>
<polygon fill="#191970" stroke="#191970" points="1172.2505,-683.5001 1162.2504,-687 1172.2504,-690.5001 1172.2505,-683.5001"/>
</g>
<!-- Node52 -->
<g id="node13" class="node">
<title>Node52</title>
<g id="a_node13"><a xlink:href="class_raven_g_u_i.html#a174a3e75c334c5930d3261a2955c3725" target="_top" xlink:title="Set the client model. ">
<polygon fill="#ffffff" stroke="#ff0000" points="1365,-677.5 1365,-696.5 1499,-696.5 1499,-677.5 1365,-677.5"/>
<text text-anchor="middle" x="1432" y="-684.5" font-family="Helvetica,sans-Serif" font-size="10.00" fill="#000000">RavenGUI::setClientModel</text>
</a>
</g>
</g>
<!-- Node51&#45;&gt;Node52 -->
<g id="edge12" class="edge">
<title>Node51&#45;&gt;Node52</title>
<path fill="none" stroke="#191970" d="M1334.9861,-687C1344.8575,-687 1354.9683,-687 1364.7593,-687"/>
<polygon fill="#191970" stroke="#191970" points="1334.8091,-683.5001 1324.809,-687 1334.809,-690.5001 1334.8091,-683.5001"/>
</g>
<!-- Node58 -->
<g id="node15" class="node">
<title>Node58</title>
<g id="a_node15"><a xlink:href="class_transaction_view.html#a6bad80e62c684ad1e77250510c9323aa" target="_top" xlink:title="TransactionView::TransactionView">
<polygon fill="#ffffff" stroke="#000000" points="813,-392.5 813,-411.5 981,-411.5 981,-392.5 813,-392.5"/>
<text text-anchor="middle" x="897" y="-399.5" font-family="Helvetica,sans-Serif" font-size="10.00" fill="#000000">TransactionView::TransactionView</text>
</a>
</g>
</g>
<!-- Node57&#45;&gt;Node58 -->
<g id="edge14" class="edge">
<title>Node57&#45;&gt;Node58</title>
<path fill="none" stroke="#191970" d="M709.626,-469.3068C733.9019,-455.3785 772.4244,-434.7436 808,-422 819.6291,-417.8343 832.4339,-414.3504 844.6185,-411.5196"/>
<polygon fill="#191970" stroke="#191970" points="707.6388,-466.4135 700.752,-474.4647 711.1565,-472.4655 707.6388,-466.4135"/>
</g>
<!-- Node60 -->
<g id="node17" class="node">
<title>Node60</title>
<g id="a_node17"><a xlink:href="class_c_fee_bumper.html#a79933391dc45130c9a026ad35ed91b85" target="_top" xlink:title="CFeeBumper::CFeeBumper">
<polygon fill="#ffffff" stroke="#000000" points="411,-316.5 411,-335.5 549,-335.5 549,-316.5 411,-316.5"/>
<text text-anchor="middle" x="480" y="-323.5" font-family="Helvetica,sans-Serif" font-size="10.00" fill="#000000">CFeeBumper::CFeeBumper</text>
</a>
</g>
</g>
<!-- Node59&#45;&gt;Node60 -->
<g id="edge16" class="edge">
<title>Node59&#45;&gt;Node60</title>
<path fill="none" stroke="#191970" d="M346.5271,-377.5184C351.8446,-375.5314 357.0523,-373.3621 362,-371 379.8109,-362.497 380.0322,-353.1663 398,-345 406.5144,-341.1303 415.8965,-338.0079 425.1805,-335.5011"/>
<polygon fill="#191970" stroke="#191970" points="345.1507,-374.2919 336.8694,-380.9003 347.4642,-380.8986 345.1507,-374.2919"/>
</g>
<!-- Node61 -->
<g id="node18" class="node">
<title>Node61</title>
<g id="a_node18"><a xlink:href="class_c_fee_bumper.html#a073cc20ae7290e5a5dfbec5a544d06c9" target="_top" xlink:title="CFeeBumper::commit">
<polygon fill="#ffffff" stroke="#000000" points="423.5,-354.5 423.5,-373.5 536.5,-373.5 536.5,-354.5 423.5,-354.5"/>
<text text-anchor="middle" x="480" y="-361.5" font-family="Helvetica,sans-Serif" font-size="10.00" fill="#000000">CFeeBumper::commit</text>
</a>
</g>
</g>
<!-- Node59&#45;&gt;Node61 -->
<g id="edge17" class="edge">
<title>Node59&#45;&gt;Node61</title>
<path fill="none" stroke="#191970" d="M346.6858,-384.3145C372.0303,-380.4525 399.7535,-376.228 423.3223,-372.6366"/>
<polygon fill="#191970" stroke="#191970" points="346.0925,-380.8645 336.7339,-385.831 347.147,-387.7846 346.0925,-380.8645"/>
</g>
<!-- Node66 -->
<g id="node23" class="node">
<title>Node66</title>
<g id="a_node23"><a xlink:href="rpcwallet_8cpp.html#a279aef587f3fe58d806fb6f47f38075d" target="_top" xlink:title="listreceivedbyaddress">
<polygon fill="#ffffff" stroke="#000000" points="424.5,-209.5 424.5,-228.5 535.5,-228.5 535.5,-209.5 424.5,-209.5"/>
<text text-anchor="middle" x="480" y="-216.5" font-family="Helvetica,sans-Serif" font-size="10.00" fill="#000000">listreceivedbyaddress</text>
</a>
</g>
</g>
<!-- Node65&#45;&gt;Node66 -->
<g id="edge22" class="edge">
<title>Node65&#45;&gt;Node66</title>
<path fill="none" stroke="#191970" d="M317.406,-233.7109C349.1413,-230.8396 391.0403,-227.0487 424.3569,-224.0344"/>
<polygon fill="#191970" stroke="#191970" points="316.7043,-230.26 307.0604,-234.6469 317.3351,-237.2315 316.7043,-230.26"/>
</g>
<!-- Node67 -->
<g id="node24" class="node">
<title>Node67</title>
<g id="a_node24"><a xlink:href="rpcwallet_8cpp.html#afa06defbf39714d57ae870e371d5240e" target="_top" xlink:title="listreceivedbyaccount">
<polygon fill="#ffffff" stroke="#000000" points="424.5,-247.5 424.5,-266.5 535.5,-266.5 535.5,-247.5 424.5,-247.5"/>
<text text-anchor="middle" x="480" y="-254.5" font-family="Helvetica,sans-Serif" font-size="10.00" fill="#000000">listreceivedbyaccount</text>
</a>
</g>
</g>
<!-- Node65&#45;&gt;Node67 -->
<g id="edge23" class="edge">
<title>Node65&#45;&gt;Node67</title>
<path fill="none" stroke="#191970" d="M317.406,-242.2891C349.1413,-245.1604 391.0403,-248.9513 424.3569,-251.9656"/>
<polygon fill="#191970" stroke="#191970" points="317.3351,-238.7685 307.0604,-241.3531 316.7043,-245.74 317.3351,-238.7685"/>
</g>
<!-- Node71 -->
<g id="node28" class="node">
<title>Node71</title>
<g id="a_node28"><a xlink:href="class_wallet_model.html#a3ab3560ca1dc6f4dbc580fd8838c3e10" target="_top" xlink:title="WalletModel::transaction\lCanBeAbandoned">
<polygon fill="#ffffff" stroke="#000000" points="417.5,-469 417.5,-499 542.5,-499 542.5,-469 417.5,-469"/>
<text text-anchor="start" x="425.5" y="-487" font-family="Helvetica,sans-Serif" font-size="10.00" fill="#000000">WalletModel::transaction</text>
<text text-anchor="middle" x="480" y="-476" font-family="Helvetica,sans-Serif" font-size="10.00" fill="#000000">CanBeAbandoned</text>
</a>
</g>
</g>
<!-- Node70&#45;&gt;Node71 -->
<g id="edge27" class="edge">
<title>Node70&#45;&gt;Node71</title>
<path fill="none" stroke="#191970" d="M349.7705,-484C372.112,-484 396.0732,-484 417.2742,-484"/>
<polygon fill="#191970" stroke="#191970" points="349.6353,-480.5001 339.6353,-484 349.6352,-487.5001 349.6353,-480.5001"/>
</g>
<!-- Node71&#45;&gt;Node57 -->
<g id="edge28" class="edge">
<title>Node71&#45;&gt;Node57</title>
<path fill="none" stroke="#191970" d="M553.03,-484C569.131,-484 586.2923,-484 602.7307,-484"/>
<polygon fill="#191970" stroke="#191970" points="552.6207,-480.5001 542.6207,-484 552.6206,-487.5001 552.6207,-480.5001"/>
</g>
<!-- Node73 -->
<g id="node30" class="node">
<title>Node73</title>
<g id="a_node30"><a xlink:href="class_wallet_model.html#aa05a3b7df11ede4f82538049a638a636" target="_top" xlink:title="WalletModel::abandonTransaction">
<polygon fill="#ffffff" stroke="#000000" points="398,-392.5 398,-411.5 562,-411.5 562,-392.5 398,-392.5"/>
<text text-anchor="middle" x="480" y="-399.5" font-family="Helvetica,sans-Serif" font-size="10.00" fill="#000000">WalletModel::abandonTransaction</text>
</a>
</g>
</g>
<!-- Node72&#45;&gt;Node73 -->
<g id="edge30" class="edge">
<title>Node72&#45;&gt;Node73</title>
<path fill="none" stroke="#191970" d="M332.7068,-428.653C362.837,-423.2009 398.5458,-416.7393 427.2575,-411.5439"/>
<polygon fill="#191970" stroke="#191970" points="331.9378,-425.2353 322.7208,-430.46 333.1842,-432.1234 331.9378,-425.2353"/>
</g>
<!-- Node75 -->
<g id="node32" class="node">
<title>Node75</title>
<g id="a_node32"><a xlink:href="rpcwallet_8cpp.html#a73a22f105401f2ef12bdd66d8995e9cf" target="_top" xlink:title="abandontransaction">
<polygon fill="#ffffff" stroke="#000000" points="429.5,-430.5 429.5,-449.5 530.5,-449.5 530.5,-430.5 429.5,-430.5"/>
<text text-anchor="middle" x="480" y="-437.5" font-family="Helvetica,sans-Serif" font-size="10.00" fill="#000000">abandontransaction</text>
</a>
</g>
</g>
<!-- Node72&#45;&gt;Node75 -->
<g id="edge33" class="edge">
<title>Node72&#45;&gt;Node75</title>
<path fill="none" stroke="#191970" d="M353.7949,-440C379.3053,-440 406.5582,-440 429.1863,-440"/>
<polygon fill="#191970" stroke="#191970" points="353.7429,-436.5001 343.7429,-440 353.7428,-443.5001 353.7429,-436.5001"/>
</g>
<!-- Node74 -->
<g id="node31" class="node">
<title>Node74</title>
<g id="a_node31"><a xlink:href="class_transaction_view.html#a8dc3e9fc910cec4f6764d84c21941180" target="_top" xlink:title="TransactionView::abandonTx">
<polygon fill="#ffffff" stroke="#000000" points="613.5,-392.5 613.5,-411.5 756.5,-411.5 756.5,-392.5 613.5,-392.5"/>
<text text-anchor="middle" x="685" y="-399.5" font-family="Helvetica,sans-Serif" font-size="10.00" fill="#000000">TransactionView::abandonTx</text>
</a>
</g>
</g>
<!-- Node73&#45;&gt;Node74 -->
<g id="edge31" class="edge">
<title>Node73&#45;&gt;Node74</title>
<path fill="none" stroke="#191970" d="M572.5968,-402C586.2742,-402 600.1891,-402 613.3549,-402"/>
<polygon fill="#191970" stroke="#191970" points="572.2002,-398.5001 562.2001,-402 572.2001,-405.5001 572.2002,-398.5001"/>
</g>
<!-- Node74&#45;&gt;Node58 -->
<g id="edge32" class="edge">
<title>Node74&#45;&gt;Node58</title>
<path fill="none" stroke="#191970" d="M767.0489,-402C782.0703,-402 797.7688,-402 812.8504,-402"/>
<polygon fill="#191970" stroke="#191970" points="766.7736,-398.5001 756.7735,-402 766.7735,-405.5001 766.7736,-398.5001"/>
</g>
<!-- Node78 -->
<g id="node35" class="node">
<title>Node78</title>
<g id="a_node35"><a xlink:href="wallet__tests_8cpp.html#af0e3c9469f1d8f368d3d5f38e5580367" target="_top" xlink:title="importmulti">
<polygon fill="#ffffff" stroke="#000000" points="447.5,-76.5 447.5,-95.5 512.5,-95.5 512.5,-76.5 447.5,-76.5"/>
<text text-anchor="middle" x="480" y="-83.5" font-family="Helvetica,sans-Serif" font-size="10.00" fill="#000000">importmulti</text>
</a>
</g>
</g>
<!-- Node77&#45;&gt;Node78 -->
<g id="edge36" class="edge">
<title>Node77&#45;&gt;Node78</title>
<path fill="none" stroke="#191970" d="M372.1283,-86C399.3923,-86 426.9146,-86 447.3352,-86"/>
<polygon fill="#191970" stroke="#191970" points="372.1091,-82.5001 362.1091,-86 372.109,-89.5001 372.1091,-82.5001"/>
</g>
<!-- Node80 -->
<g id="node37" class="node">
<title>Node80</title>
<g id="a_node37"><a xlink:href="class_wallet_model.html#a5028f20a33e0d17942abeea537916736" target="_top" xlink:title="WalletModel::getUnconfirmed\lBalance">
<polygon fill="#ffffff" stroke="#000000" points="612,-697 612,-727 758,-727 758,-697 612,-697"/>
<text text-anchor="start" x="620" y="-715" font-family="Helvetica,sans-Serif" font-size="10.00" fill="#000000">WalletModel::getUnconfirmed</text>
<text text-anchor="middle" x="685" y="-704" font-family="Helvetica,sans-Serif" font-size="10.00" fill="#000000">Balance</text>
</a>
</g>
</g>
<!-- Node79&#45;&gt;Node80 -->
<g id="edge38" class="edge">
<title>Node79&#45;&gt;Node80</title>
<path fill="none" stroke="#191970" d="M534.3799,-679.6718C559.0393,-684.9645 588.5052,-691.2889 614.8091,-696.9346"/>
<polygon fill="#191970" stroke="#191970" points="534.9938,-676.2239 524.4819,-677.5473 533.5248,-683.068 534.9938,-676.2239"/>
</g>
<!-- Node87 -->
<g id="node44" class="node">
<title>Node87</title>
<g id="a_node44"><a xlink:href="rpcwallet_8cpp.html#adfb2aa1ee59448398e15c4435b6b27eb" target="_top" xlink:title="getunconfirmedbalance">
<polygon fill="#ffffff" stroke="#000000" points="626.5,-658.5 626.5,-677.5 743.5,-677.5 743.5,-658.5 626.5,-658.5"/>
<text text-anchor="middle" x="685" y="-665.5" font-family="Helvetica,sans-Serif" font-size="10.00" fill="#000000">getunconfirmedbalance</text>
</a>
</g>
</g>
<!-- Node79&#45;&gt;Node87 -->
<g id="edge51" class="edge">
<title>Node79&#45;&gt;Node87</title>
<path fill="none" stroke="#191970" d="M572.3533,-668C590.7378,-668 609.562,-668 626.4289,-668"/>
<polygon fill="#191970" stroke="#191970" points="572.2002,-664.5001 562.2001,-668 572.2001,-671.5001 572.2002,-664.5001"/>
</g>
<!-- Node81 -->
<g id="node38" class="node">
<title>Node81</title>
<g id="a_node38"><a xlink:href="class_assets_dialog.html#a7724156dfba2b1a62c13c1b708e37b0a" target="_top" xlink:title="AssetsDialog::setModel">
<polygon fill="#ffffff" stroke="#000000" points="836.5,-617.5 836.5,-636.5 957.5,-636.5 957.5,-617.5 836.5,-617.5"/>
<text text-anchor="middle" x="897" y="-624.5" font-family="Helvetica,sans-Serif" font-size="10.00" fill="#000000">AssetsDialog::setModel</text>
</a>
</g>
</g>
<!-- Node80&#45;&gt;Node81 -->
<g id="edge39" class="edge">
<title>Node80&#45;&gt;Node81</title>
<path fill="none" stroke="#191970" d="M761.4999,-692.8405C765.1382,-691.059 768.6611,-689.1168 772,-687 792.4807,-674.0157 787.0806,-658.265 808,-646 816.5867,-640.9656 826.3372,-637.2584 836.1586,-634.5301"/>
<polygon fill="#191970" stroke="#191970" points="759.9756,-689.6877 752.257,-696.9455 762.8169,-696.0852 759.9756,-689.6877"/>
</g>
<!-- Node82 -->
<g id="node39" class="node">
<title>Node82</title>
<g id="a_node39"><a xlink:href="class_create_asset_dialog.html#affceaf7b5ffeeda6f20ecb354ff4e7f8" target="_top" xlink:title="CreateAssetDialog::\lsetModel">
<polygon fill="#ffffff" stroke="#000000" points="844.5,-782 844.5,-812 949.5,-812 949.5,-782 844.5,-782"/>
<text text-anchor="start" x="852.5" y="-800" font-family="Helvetica,sans-Serif" font-size="10.00" fill="#000000">CreateAssetDialog::</text>
<text text-anchor="middle" x="897" y="-789" font-family="Helvetica,sans-Serif" font-size="10.00" fill="#000000">setModel</text>
</a>
</g>
</g>
<!-- Node80&#45;&gt;Node82 -->
<g id="edge41" class="edge">
<title>Node80&#45;&gt;Node82</title>
<path fill="none" stroke="#191970" d="M721.3326,-731.8716C745.4247,-744.5075 778.009,-760.5795 808,-772 819.549,-776.3978 832.2024,-780.4118 844.2509,-783.875"/>
<polygon fill="#191970" stroke="#191970" points="722.6883,-728.629 712.2133,-727.0402 719.4112,-734.8146 722.6883,-728.629"/>
</g>
<!-- Node83 -->
<g id="node40" class="node">
<title>Node83</title>
<g id="a_node40"><a xlink:href="class_overview_page.html#a2ed52a3a87e9c74fee38fa873c9bc71f" target="_top" xlink:title="OverviewPage::setWalletModel">
<polygon fill="#ffffff" stroke="#000000" points="820,-743.5 820,-762.5 974,-762.5 974,-743.5 820,-743.5"/>
<text text-anchor="middle" x="897" y="-750.5" font-family="Helvetica,sans-Serif" font-size="10.00" fill="#000000">OverviewPage::setWalletModel</text>
</a>
</g>
</g>
<!-- Node80&#45;&gt;Node83 -->
<g id="edge43" class="edge">
<title>Node80&#45;&gt;Node83</title>
<path fill="none" stroke="#191970" d="M768.0766,-728.0667C795.027,-733.2788 824.0538,-738.8925 847.7284,-743.4711"/>
<polygon fill="#191970" stroke="#191970" points="768.7379,-724.6298 758.2552,-726.1673 767.4087,-731.5025 768.7379,-724.6298"/>
</g>
<!-- Node84 -->
<g id="node41" class="node">
<title>Node84</title>
<g id="a_node41"><a xlink:href="class_reissue_asset_dialog.html#aedb26df763c8cda11fea5a0c07ca70a0" target="_top" xlink:title="ReissueAssetDialog\l::setModel">
<polygon fill="#ffffff" stroke="#000000" points="844,-694 844,-724 950,-724 950,-694 844,-694"/>
<text text-anchor="start" x="852" y="-712" font-family="Helvetica,sans-Serif" font-size="10.00" fill="#000000">ReissueAssetDialog</text>
<text text-anchor="middle" x="897" y="-701" font-family="Helvetica,sans-Serif" font-size="10.00" fill="#000000">::setModel</text>
</a>
</g>
</g>
<!-- Node80&#45;&gt;Node84 -->
<g id="edge45" class="edge">
<title>Node80&#45;&gt;Node84</title>
<path fill="none" stroke="#191970" d="M768.269,-710.8217C793.6945,-710.4619 820.9509,-710.0762 843.8075,-709.7527"/>
<polygon fill="#191970" stroke="#191970" points="768.2047,-707.3221 758.2552,-710.9634 768.3038,-714.3214 768.2047,-707.3221"/>
</g>
<!-- Node85 -->
<g id="node42" class="node">
<title>Node85</title>
<g id="a_node42"><a xlink:href="class_send_coins_dialog.html#a73a6c1b1850a334ee652ac167713a2aa" target="_top" xlink:title="SendCoinsDialog::setModel">
<polygon fill="#ffffff" stroke="#000000" points="828,-655.5 828,-674.5 966,-674.5 966,-655.5 828,-655.5"/>
<text text-anchor="middle" x="897" y="-662.5" font-family="Helvetica,sans-Serif" font-size="10.00" fill="#000000">SendCoinsDialog::setModel</text>
</a>
</g>
</g>
<!-- Node80&#45;&gt;Node85 -->
<g id="edge47" class="edge">
<title>Node80&#45;&gt;Node85</title>
<path fill="none" stroke="#191970" d="M762.5397,-694.8096C793.387,-687.9708 827.7073,-680.3621 853.953,-674.5434"/>
<polygon fill="#191970" stroke="#191970" points="761.6664,-691.4181 752.661,-696.9997 763.1815,-698.2522 761.6664,-691.4181"/>
</g>
<!-- Node86 -->
<g id="node43" class="node">
<title>Node86</title>
<g id="a_node43"><a xlink:href="class_wallet_model.html#adcc4eb8cd71cb4de223621866bb7fb7d" target="_top" xlink:title="WalletModel::checkBalance\lChanged">
<polygon fill="#ffffff" stroke="#000000" points="828,-568 828,-598 966,-598 966,-568 828,-568"/>
<text text-anchor="start" x="836" y="-586" font-family="Helvetica,sans-Serif" font-size="10.00" fill="#000000">WalletModel::checkBalance</text>
<text text-anchor="middle" x="897" y="-575" font-family="Helvetica,sans-Serif" font-size="10.00" fill="#000000">Changed</text>
</a>
</g>
</g>
<!-- Node80&#45;&gt;Node86 -->
<g id="edge49" class="edge">
<title>Node80&#45;&gt;Node86</title>
<path fill="none" stroke="#191970" d="M765.7566,-691.7776C767.9325,-690.2959 770.0212,-688.706 772,-687 801.2231,-661.8048 778.7018,-633.1078 808,-608 813.8496,-602.9871 820.6345,-598.9751 827.7983,-595.7649"/>
<polygon fill="#191970" stroke="#191970" points="763.8021,-688.8672 756.9788,-696.9723 767.3673,-694.8913 763.8021,-688.8672"/>
</g>
<!-- Node81&#45;&gt;Node50 -->
<g id="edge40" class="edge">
<title>Node81&#45;&gt;Node50</title>
<path fill="none" stroke="#191970" d="M958.5972,-638.8165C967.842,-640.9741 977.2157,-643.3816 986,-646 1015.8766,-654.9057 1049.2518,-668.4362 1070.4265,-677.4903"/>
<polygon fill="#191970" stroke="#191970" points="959.1749,-635.359 948.6501,-636.5752 957.6362,-642.1878 959.1749,-635.359"/>
</g>
<!-- Node82&#45;&gt;Node50 -->
<g id="edge42" class="edge">
<title>Node82&#45;&gt;Node50</title>
<path fill="none" stroke="#191970" d="M959.2093,-783.0057C968.4269,-779.9456 977.631,-776.3025 986,-772 1026.0694,-751.4002 1065.3533,-714.2234 1082.7189,-696.6726"/>
<polygon fill="#191970" stroke="#191970" points="958.1409,-779.6725 949.6331,-785.9867 960.2215,-786.3562 958.1409,-779.6725"/>
</g>
<!-- Node83&#45;&gt;Node50 -->
<g id="edge44" class="edge">
<title>Node83&#45;&gt;Node50</title>
<path fill="none" stroke="#191970" d="M960.3977,-741.1565C969.0757,-739.0451 977.811,-736.6579 986,-734 1017.7847,-723.6838 1052.9185,-706.9843 1073.6936,-696.5175"/>
<polygon fill="#191970" stroke="#191970" points="959.6032,-737.7478 950.6564,-743.4228 961.1894,-744.5657 959.6032,-737.7478"/>
</g>
<!-- Node84&#45;&gt;Node50 -->
<g id="edge46" class="edge">
<title>Node84&#45;&gt;Node50</title>
<path fill="none" stroke="#191970" d="M960.1069,-701.8803C979.7953,-699.659 1001.6298,-697.1956 1021.7749,-694.9228"/>
<polygon fill="#191970" stroke="#191970" points="959.5716,-698.4183 950.027,-703.0175 960.3564,-705.3742 959.5716,-698.4183"/>
</g>
<!-- Node85&#45;&gt;Node50 -->
<g id="edge48" class="edge">
<title>Node85&#45;&gt;Node50</title>
<path fill="none" stroke="#191970" d="M976.3253,-673.9495C991.3696,-675.6468 1007.0124,-677.4117 1021.7518,-679.0746"/>
<polygon fill="#191970" stroke="#191970" points="976.3535,-670.4306 966.0241,-672.7873 975.5687,-677.3865 976.3535,-670.4306"/>
</g>
<!-- Node86&#45;&gt;Node45 -->
<g id="edge50" class="edge">
<title>Node86&#45;&gt;Node45</title>
<path fill="none" stroke="#191970" d="M973.5279,-565.7322C991.6847,-561.6352 1010.8601,-557.3085 1028.3711,-553.3573"/>
<polygon fill="#191970" stroke="#191970" points="972.5469,-562.3654 963.5625,-567.9808 974.0877,-569.1938 972.5469,-562.3654"/>
</g>
<!-- Node89 -->
<g id="node46" class="node">
<title>Node89</title>
<g id="a_node46"><a xlink:href="class_wallet_model.html#a691b35afd9aff056e1398fd057691ff1" target="_top" xlink:title="WalletModel::getWatchUnconfirmed\lBalance">
<polygon fill="#ffffff" stroke="#000000" points="598,-609 598,-639 772,-639 772,-609 598,-609"/>
<text text-anchor="start" x="606" y="-627" font-family="Helvetica,sans-Serif" font-size="10.00" fill="#000000">WalletModel::getWatchUnconfirmed</text>
<text text-anchor="middle" x="685" y="-616" font-family="Helvetica,sans-Serif" font-size="10.00" fill="#000000">Balance</text>
</a>
</g>
</g>
<!-- Node88&#45;&gt;Node89 -->
<g id="edge53" class="edge">
<title>Node88&#45;&gt;Node89</title>
<path fill="none" stroke="#191970" d="M569.4038,-612.1584C578.8219,-613.1232 588.39,-614.1034 597.7829,-615.0656"/>
<polygon fill="#191970" stroke="#191970" points="569.563,-608.6565 559.2584,-611.1191 568.8496,-615.6201 569.563,-608.6565"/>
</g>
<!-- Node89&#45;&gt;Node81 -->
<g id="edge54" class="edge">
<title>Node89&#45;&gt;Node81</title>
<path fill="none" stroke="#191970" d="M782.3287,-625.3773C800.7479,-625.6379 819.5186,-625.9036 836.3962,-626.1424"/>
<polygon fill="#191970" stroke="#191970" points="782.1948,-621.8751 772.1463,-625.2332 782.0957,-628.8744 782.1948,-621.8751"/>
</g>
<!-- Node89&#45;&gt;Node82 -->
<g id="edge55" class="edge">
<title>Node89&#45;&gt;Node82</title>
<path fill="none" stroke="#191970" d="M767.3894,-644.8809C768.9971,-646.1736 770.5379,-647.5451 772,-649 812.3756,-689.1778 767.5045,-731.9431 808,-772 817.8128,-781.7066 831.0767,-787.7129 844.3654,-791.4096"/>
<polygon fill="#191970" stroke="#191970" points="769.0816,-641.7984 758.849,-639.0516 765.1353,-647.58 769.0816,-641.7984"/>
</g>
<!-- Node89&#45;&gt;Node83 -->
<g id="edge56" class="edge">
<title>Node89&#45;&gt;Node83</title>
<path fill="none" stroke="#191970" d="M766.4356,-644.5878C768.3714,-645.9648 770.2319,-647.4335 772,-649 802.7083,-676.2059 776.3651,-707.8773 808,-734 812.6295,-737.8228 817.8456,-740.9294 823.3722,-743.4481"/>
<polygon fill="#191970" stroke="#191970" points="767.8722,-641.3631 757.5178,-639.1187 764.2126,-647.3303 767.8722,-641.3631"/>
</g>
<!-- Node89&#45;&gt;Node84 -->
<g id="edge57" class="edge">
<title>Node89&#45;&gt;Node84</title>
<path fill="none" stroke="#191970" d="M759.9021,-642.8497C764.0849,-644.7211 768.1489,-646.7665 772,-649 791.3037,-660.1957 788.663,-672.862 808,-684 818.9868,-690.3283 831.6682,-695.1316 843.952,-698.7485"/>
<polygon fill="#191970" stroke="#191970" points="761.172,-639.5876 750.5922,-639.025 758.512,-646.0625 761.172,-639.5876"/>
</g>
<!-- Node89&#45;&gt;Node85 -->
<g id="edge58" class="edge">
<title>Node89&#45;&gt;Node85</title>
<path fill="none" stroke="#191970" d="M772.8136,-640.9828C798.3455,-645.9206 825.3284,-651.139 847.5964,-655.4455"/>
<polygon fill="#191970" stroke="#191970" points="773.2199,-637.4966 762.7372,-639.0341 771.8907,-644.3693 773.2199,-637.4966"/>
</g>
<!-- Node89&#45;&gt;Node86 -->
<g id="edge59" class="edge">
<title>Node89&#45;&gt;Node86</title>
<path fill="none" stroke="#191970" d="M772.5595,-607.0663C790.9388,-603.5118 810.0813,-599.8098 827.6841,-596.4054"/>
<polygon fill="#191970" stroke="#191970" points="771.8907,-603.6307 762.7372,-608.9659 773.2199,-610.5034 771.8907,-603.6307"/>
</g>
<!-- Node91 -->
<g id="node48" class="node">
<title>Node91</title>
<g id="a_node48"><a xlink:href="rpcwallet_8cpp.html#ae659cb0ab5177ea79df6670bd61afd23" target="_top" xlink:title="getbalance">
<polygon fill="#ffffff" stroke="#000000" points="448,-38.5 448,-57.5 512,-57.5 512,-38.5 448,-38.5"/>
<text text-anchor="middle" x="480" y="-45.5" font-family="Helvetica,sans-Serif" font-size="10.00" fill="#000000">getbalance</text>
</a>
</g>
</g>
<!-- Node90&#45;&gt;Node91 -->
<g id="edge61" class="edge">
<title>Node90&#45;&gt;Node91</title>
<path fill="none" stroke="#191970" d="M350.5958,-48C384.4571,-48 421.9031,-48 447.7637,-48"/>
<polygon fill="#191970" stroke="#191970" points="350.219,-44.5001 340.2189,-48 350.2189,-51.5001 350.219,-44.5001"/>
</g>
<!-- Node93 -->
<g id="node50" class="node">
<title>Node93</title>
<g id="a_node50"><a xlink:href="rpcwallet_8cpp.html#a09b34863635404e5c98685d81dd0050a" target="_top" xlink:title="listaddressgroupings">
<polygon fill="#ffffff" stroke="#000000" points="427,-.5 427,-19.5 533,-19.5 533,-.5 427,-.5"/>
<text text-anchor="middle" x="480" y="-7.5" font-family="Helvetica,sans-Serif" font-size="10.00" fill="#000000">listaddressgroupings</text>
</a>
</g>
</g>
<!-- Node92&#45;&gt;Node93 -->
<g id="edge63" class="edge">
<title>Node92&#45;&gt;Node93</title>
<path fill="none" stroke="#191970" d="M355.4465,-10C379.5442,-10 405.0663,-10 426.691,-10"/>
<polygon fill="#191970" stroke="#191970" points="355.2217,-6.5001 345.2217,-10 355.2216,-13.5001 355.2217,-6.5001"/>
</g>
</g>
</svg>
