<?xml version="1.0" encoding="UTF-8" standalone="no"?>
<!DOCTYPE svg PUBLIC "-//W3C//DTD SVG 1.1//EN"
 "http://www.w3.org/Graphics/SVG/1.1/DTD/svg11.dtd">
<!-- Generated by graphviz version 2.40.1 (20161225.0304)
 -->
<!-- Title: CreateAssetDialog::UpdateAssetNameToUpper Pages: 1 -->
<svg width="427pt" height="39pt"
 viewBox="0.00 0.00 427.00 39.00" xmlns="http://www.w3.org/2000/svg" xmlns:xlink="http://www.w3.org/1999/xlink">
<g id="graph0" class="graph" transform="scale(1 1) rotate(0) translate(4 35)">
<title>CreateAssetDialog::UpdateAssetNameToUpper</title>
<polygon fill="#ffffff" stroke="transparent" points="-4,4 -4,-35 423,-35 423,4 -4,4"/>
<!-- Node1612 -->
<g id="node1" class="node">
<title>Node1612</title>
<polygon fill="#bfbfbf" stroke="#000000" points="0,-.5 0,-30.5 137,-30.5 137,-.5 0,-.5"/>
<text text-anchor="start" x="8" y="-18.5" font-family="Helvetica,sans-Serif" font-size="10.00" fill="#000000">CreateAssetDialog::</text>
<text text-anchor="middle" x="68.5" y="-7.5" font-family="Helvetica,sans-Serif" font-size="10.00" fill="#000000">UpdateAssetNameToUpper</text>
</g>
<!-- Node1613 -->
<g id="node2" class="node">
<title>Node1613</title>
<g id="a_node2"><a xlink:href="class_create_asset_dialog.html#afe8c4424e900a322a391a036185052cc" target="_top" xlink:title="CreateAssetDialog::\lonNameChanged">
<polygon fill="#ffffff" stroke="#000000" points="173,-.5 173,-30.5 278,-30.5 278,-.5 173,-.5"/>
<text text-anchor="start" x="181" y="-18.5" font-family="Helvetica,sans-Serif" font-size="10.00" fill="#000000">CreateAssetDialog::</text>
<text text-anchor="middle" x="225.5" y="-7.5" font-family="Helvetica,sans-Serif" font-size="10.00" fill="#000000">onNameChanged</text>
</a>
</g>
</g>
<!-- Node1612&#45;&gt;Node1613 -->
<g id="edge1" class="edge">
<title>Node1612&#45;&gt;Node1613</title>
<path fill="none" stroke="#191970" d="M147.4191,-15.5C156.0042,-15.5 164.5826,-15.5 172.7435,-15.5"/>
<polygon fill="#191970" stroke="#191970" points="147.3625,-12.0001 137.3625,-15.5 147.3625,-19.0001 147.3625,-12.0001"/>
</g>
<!-- Node1614 -->
<g id="node3" class="node">
<title>Node1614</title>
<g id="a_node3"><a xlink:href="class_create_asset_dialog.html#a9700ac1a4c4659f6716fbdeff8260ff5" target="_top" xlink:title="CreateAssetDialog::\lCreateAssetDialog">
<polygon fill="#ffffff" stroke="#000000" points="314,-.5 314,-30.5 419,-30.5 419,-.5 314,-.5"/>
<text text-anchor="start" x="322" y="-18.5" font-family="Helvetica,sans-Serif" font-size="10.00" fill="#000000">CreateAssetDialog::</text>
<text text-anchor="middle" x="366.5" y="-7.5" font-family="Helvetica,sans-Serif" font-size="10.00" fill="#000000">CreateAssetDialog</text>
</a>
</g>
</g>
<!-- Node1613&#45;&gt;Node1614 -->
<g id="edge2" class="edge">
<title>Node1613&#45;&gt;Node1614</title>
<path fill="none" stroke="#191970" d="M288.0504,-15.5C296.6995,-15.5 305.5102,-15.5 313.953,-15.5"/>
<polygon fill="#191970" stroke="#191970" points="288.0032,-12.0001 278.0032,-15.5 288.0032,-19.0001 288.0032,-12.0001"/>
</g>
</g>
</svg>
