<?xml version="1.0" encoding="UTF-8" standalone="no"?>
<!DOCTYPE svg PUBLIC "-//W3C//DTD SVG 1.1//EN"
 "http://www.w3.org/Graphics/SVG/1.1/DTD/svg11.dtd">
<!-- Generated by graphviz version 2.40.1 (20161225.0304)
 -->
<!-- Title: AssetTablePriv::size Pages: 1 -->
<svg width="641pt" height="78pt"
 viewBox="0.00 0.00 641.00 77.50" xmlns="http://www.w3.org/2000/svg" xmlns:xlink="http://www.w3.org/1999/xlink">
<g id="graph0" class="graph" transform="scale(1 1) rotate(0) translate(4 73.5)">
<title>AssetTablePriv::size</title>
<polygon fill="#ffffff" stroke="transparent" points="-4,4 -4,-73.5 637,-73.5 637,4 -4,4"/>
<!-- Node19 -->
<g id="node1" class="node">
<title>Node19</title>
<polygon fill="#bfbfbf" stroke="#000000" points="0,-22.5 0,-41.5 107,-41.5 107,-22.5 0,-22.5"/>
<text text-anchor="middle" x="53.5" y="-29.5" font-family="Helvetica,sans-Serif" font-size="10.00" fill="#000000">AssetTablePriv::size</text>
</g>
<!-- Node20 -->
<g id="node2" class="node">
<title>Node20</title>
<g id="a_node2"><a xlink:href="class_asset_table_model.html#a5b3e5bc2d8312e6ac6f62e84a8b5e404" target="_top" xlink:title="AssetTableModel::checkBalance\lChanged">
<polygon fill="#ffffff" stroke="#000000" points="143,-39 143,-69 303,-69 303,-39 143,-39"/>
<text text-anchor="start" x="151" y="-57" font-family="Helvetica,sans-Serif" font-size="10.00" fill="#000000">AssetTableModel::checkBalance</text>
<text text-anchor="middle" x="223" y="-46" font-family="Helvetica,sans-Serif" font-size="10.00" fill="#000000">Changed</text>
</a>
</g>
</g>
<!-- Node19&#45;&gt;Node20 -->
<g id="edge1" class="edge">
<title>Node19&#45;&gt;Node20</title>
<path fill="none" stroke="#191970" d="M117.1642,-40.2632C125.5283,-41.3488 134.185,-42.4724 142.7794,-43.5879"/>
<polygon fill="#191970" stroke="#191970" points="117.4982,-36.7773 107.1309,-38.9609 116.5971,-43.719 117.4982,-36.7773"/>
</g>
<!-- Node23 -->
<g id="node5" class="node">
<title>Node23</title>
<g id="a_node5"><a xlink:href="class_asset_table_model.html#ae9f3685efa3917e022796656669d26db" target="_top" xlink:title="AssetTableModel::rowCount">
<polygon fill="#ffffff" stroke="#000000" points="153,-.5 153,-19.5 293,-19.5 293,-.5 153,-.5"/>
<text text-anchor="middle" x="223" y="-7.5" font-family="Helvetica,sans-Serif" font-size="10.00" fill="#000000">AssetTableModel::rowCount</text>
</a>
</g>
</g>
<!-- Node19&#45;&gt;Node23 -->
<g id="edge4" class="edge">
<title>Node19&#45;&gt;Node23</title>
<path fill="none" stroke="#191970" d="M117.2137,-23.7304C128.8812,-22.216 141.1166,-20.6279 152.9568,-19.0912"/>
<polygon fill="#191970" stroke="#191970" points="116.5971,-20.281 107.1309,-25.0391 117.4982,-27.2227 116.5971,-20.281"/>
</g>
<!-- Node21 -->
<g id="node3" class="node">
<title>Node21</title>
<g id="a_node3"><a xlink:href="class_wallet_model.html#a51469b2d95cfd4bc0a14ee456fca7b95" target="_top" xlink:title="WalletModel::pollBalance\lChanged">
<polygon fill="#ffffff" stroke="#000000" points="339,-39 339,-69 466,-69 466,-39 339,-39"/>
<text text-anchor="start" x="347" y="-57" font-family="Helvetica,sans-Serif" font-size="10.00" fill="#000000">WalletModel::pollBalance</text>
<text text-anchor="middle" x="402.5" y="-46" font-family="Helvetica,sans-Serif" font-size="10.00" fill="#000000">Changed</text>
</a>
</g>
</g>
<!-- Node20&#45;&gt;Node21 -->
<g id="edge2" class="edge">
<title>Node20&#45;&gt;Node21</title>
<path fill="none" stroke="#191970" d="M313.1711,-54C321.8172,-54 330.4581,-54 338.7728,-54"/>
<polygon fill="#191970" stroke="#191970" points="313.0382,-50.5001 303.0382,-54 313.0381,-57.5001 313.0382,-50.5001"/>
</g>
<!-- Node22 -->
<g id="node4" class="node">
<title>Node22</title>
<g id="a_node4"><a xlink:href="class_wallet_model.html#a36282857c97bcaad796a2b5c7398245c" target="_top" xlink:title="WalletModel::WalletModel">
<polygon fill="#ffffff" stroke="#000000" points="502,-44.5 502,-63.5 633,-63.5 633,-44.5 502,-44.5"/>
<text text-anchor="middle" x="567.5" y="-51.5" font-family="Helvetica,sans-Serif" font-size="10.00" fill="#000000">WalletModel::WalletModel</text>
</a>
</g>
</g>
<!-- Node21&#45;&gt;Node22 -->
<g id="edge3" class="edge">
<title>Node21&#45;&gt;Node22</title>
<path fill="none" stroke="#191970" d="M476.5464,-54C485.021,-54 493.6159,-54 501.9682,-54"/>
<polygon fill="#191970" stroke="#191970" points="476.2933,-50.5001 466.2933,-54 476.2933,-57.5001 476.2933,-50.5001"/>
</g>
</g>
</svg>
