<?xml version="1.0" encoding="UTF-8" standalone="no"?>
<!DOCTYPE svg PUBLIC "-//W3C//DTD SVG 1.1//EN"
 "http://www.w3.org/Graphics/SVG/1.1/DTD/svg11.dtd">
<!-- Generated by graphviz version 2.40.1 (20161225.0304)
 -->
<!-- Title: ReissueAssetDialog::coinControlClipboardLowOutput Pages: 1 -->
<svg width="317pt" height="39pt"
 viewBox="0.00 0.00 317.00 39.00" xmlns="http://www.w3.org/2000/svg" xmlns:xlink="http://www.w3.org/1999/xlink">
<g id="graph0" class="graph" transform="scale(1 1) rotate(0) translate(4 35)">
<title>ReissueAssetDialog::coinControlClipboardLowOutput</title>
<polygon fill="#ffffff" stroke="transparent" points="-4,4 -4,-35 313,-35 313,4 -4,4"/>
<!-- Node566 -->
<g id="node1" class="node">
<title>Node566</title>
<polygon fill="#bfbfbf" stroke="#000000" points="0,-.5 0,-30.5 161,-30.5 161,-.5 0,-.5"/>
<text text-anchor="start" x="8" y="-18.5" font-family="Helvetica,sans-Serif" font-size="10.00" fill="#000000">ReissueAssetDialog</text>
<text text-anchor="middle" x="80.5" y="-7.5" font-family="Helvetica,sans-Serif" font-size="10.00" fill="#000000">::coinControlClipboardLowOutput</text>
</g>
<!-- Node567 -->
<g id="node2" class="node">
<title>Node567</title>
<g id="a_node2"><a xlink:href="class_reissue_asset_dialog.html#aee7cca850e09ac4cbedb7175feea7038" target="_top" xlink:title="ReissueAssetDialog\l::ReissueAssetDialog">
<polygon fill="#ffffff" stroke="#000000" points="197,-.5 197,-30.5 309,-30.5 309,-.5 197,-.5"/>
<text text-anchor="start" x="205" y="-18.5" font-family="Helvetica,sans-Serif" font-size="10.00" fill="#000000">ReissueAssetDialog</text>
<text text-anchor="middle" x="253" y="-7.5" font-family="Helvetica,sans-Serif" font-size="10.00" fill="#000000">::ReissueAssetDialog</text>
</a>
</g>
</g>
<!-- Node566&#45;&gt;Node567 -->
<g id="edge1" class="edge">
<title>Node566&#45;&gt;Node567</title>
<path fill="none" stroke="#191970" d="M171.4177,-15.5C180.1197,-15.5 188.7582,-15.5 196.9774,-15.5"/>
<polygon fill="#191970" stroke="#191970" points="171.1944,-12.0001 161.1943,-15.5 171.1943,-19.0001 171.1944,-12.0001"/>
</g>
</g>
</svg>
