<?xml version="1.0" encoding="UTF-8" standalone="no"?>
<!DOCTYPE svg PUBLIC "-//W3C//DTD SVG 1.1//EN"
 "http://www.w3.org/Graphics/SVG/1.1/DTD/svg11.dtd">
<!-- Generated by graphviz version 2.40.1 (20161225.0304)
 -->
<!-- Title: CoinControlDialog::sortView Pages: 1 -->
<svg width="762pt" height="238pt"
 viewBox="0.00 0.00 762.00 238.45" xmlns="http://www.w3.org/2000/svg" xmlns:xlink="http://www.w3.org/1999/xlink">
<g id="graph0" class="graph" transform="scale(1 1) rotate(0) translate(4 234.4535)">
<title>CoinControlDialog::sortView</title>
<polygon fill="#ffffff" stroke="transparent" points="-4,4 -4,-234.4535 758,-234.4535 758,4 -4,4"/>
<!-- Node471 -->
<g id="node1" class="node">
<title>Node471</title>
<polygon fill="#bfbfbf" stroke="#000000" points="0,-185.5 0,-215.5 102,-215.5 102,-185.5 0,-185.5"/>
<text text-anchor="start" x="8" y="-203.5" font-family="Helvetica,sans-Serif" font-size="10.00" fill="#000000">CoinControlDialog::</text>
<text text-anchor="middle" x="51" y="-192.5" font-family="Helvetica,sans-Serif" font-size="10.00" fill="#000000">sortView</text>
</g>
<!-- Node472 -->
<g id="node2" class="node">
<title>Node472</title>
<g id="a_node2"><a xlink:href="class_coin_control_dialog.html#a3cec3ece6aa5eec3e7829e042356a659" target="_top" xlink:title="CoinControlDialog::\lCoinControlDialog">
<polygon fill="#ffffff" stroke="#000000" points="447,-169.5 447,-199.5 549,-199.5 549,-169.5 447,-169.5"/>
<text text-anchor="start" x="455" y="-187.5" font-family="Helvetica,sans-Serif" font-size="10.00" fill="#000000">CoinControlDialog::</text>
<text text-anchor="middle" x="498" y="-176.5" font-family="Helvetica,sans-Serif" font-size="10.00" fill="#000000">CoinControlDialog</text>
</a>
</g>
</g>
<!-- Node471&#45;&gt;Node472 -->
<g id="edge1" class="edge">
<title>Node471&#45;&gt;Node472</title>
<path fill="none" stroke="#191970" d="M104.2312,-218.3344C115.2724,-221.3131 126.9195,-223.9395 138,-225.5 247.785,-240.9609 377.0412,-215.6989 446.9196,-198.459"/>
<polygon fill="#191970" stroke="#191970" points="104.8705,-214.8779 94.2952,-215.5203 102.9629,-221.613 104.8705,-214.8779"/>
</g>
<!-- Node473 -->
<g id="node3" class="node">
<title>Node473</title>
<g id="a_node3"><a xlink:href="class_coin_control_dialog.html#a00055d2685a3625cb1fc5f84e8cb0a05" target="_top" xlink:title="CoinControlDialog::\lheaderSectionClicked">
<polygon fill="#ffffff" stroke="#000000" points="138,-185.5 138,-215.5 250,-215.5 250,-185.5 138,-185.5"/>
<text text-anchor="start" x="146" y="-203.5" font-family="Helvetica,sans-Serif" font-size="10.00" fill="#000000">CoinControlDialog::</text>
<text text-anchor="middle" x="194" y="-192.5" font-family="Helvetica,sans-Serif" font-size="10.00" fill="#000000">headerSectionClicked</text>
</a>
</g>
</g>
<!-- Node471&#45;&gt;Node473 -->
<g id="edge2" class="edge">
<title>Node471&#45;&gt;Node473</title>
<path fill="none" stroke="#191970" d="M112.3901,-200.5C120.8305,-200.5 129.4626,-200.5 137.8033,-200.5"/>
<polygon fill="#191970" stroke="#191970" points="112.2224,-197.0001 102.2224,-200.5 112.2223,-204.0001 112.2224,-197.0001"/>
</g>
<!-- Node474 -->
<g id="node4" class="node">
<title>Node474</title>
<g id="a_node4"><a xlink:href="class_coin_control_dialog.html#aadea33050e5c1efd5eae8d2fcfa721f9" target="_top" xlink:title="CoinControlDialog::\lupdateView">
<polygon fill="#ffffff" stroke="#000000" points="143,-117.5 143,-147.5 245,-147.5 245,-117.5 143,-117.5"/>
<text text-anchor="start" x="151" y="-135.5" font-family="Helvetica,sans-Serif" font-size="10.00" fill="#000000">CoinControlDialog::</text>
<text text-anchor="middle" x="194" y="-124.5" font-family="Helvetica,sans-Serif" font-size="10.00" fill="#000000">updateView</text>
</a>
</g>
</g>
<!-- Node471&#45;&gt;Node474 -->
<g id="edge4" class="edge">
<title>Node471&#45;&gt;Node474</title>
<path fill="none" stroke="#191970" d="M91.99,-181.0082C114.3606,-170.3705 141.6357,-157.4005 162.3524,-147.5492"/>
<polygon fill="#191970" stroke="#191970" points="90.2642,-177.9533 82.7363,-185.4086 93.2704,-184.2749 90.2642,-177.9533"/>
</g>
<!-- Node473&#45;&gt;Node472 -->
<g id="edge3" class="edge">
<title>Node473&#45;&gt;Node472</title>
<path fill="none" stroke="#191970" d="M260.297,-197.0107C316.3437,-194.0609 395.4831,-189.8956 446.7689,-187.1964"/>
<polygon fill="#191970" stroke="#191970" points="259.9147,-193.5259 250.1126,-197.5467 260.2827,-200.5162 259.9147,-193.5259"/>
</g>
<!-- Node475 -->
<g id="node5" class="node">
<title>Node475</title>
<g id="a_node5"><a xlink:href="class_coin_control_dialog.html#a4c34a48574814089c54f763a22f5317a" target="_top" xlink:title="CoinControlDialog::\lsetModel">
<polygon fill="#ffffff" stroke="#000000" points="286,-49.5 286,-79.5 388,-79.5 388,-49.5 286,-49.5"/>
<text text-anchor="start" x="294" y="-67.5" font-family="Helvetica,sans-Serif" font-size="10.00" fill="#000000">CoinControlDialog::</text>
<text text-anchor="middle" x="337" y="-56.5" font-family="Helvetica,sans-Serif" font-size="10.00" fill="#000000">setModel</text>
</a>
</g>
</g>
<!-- Node474&#45;&gt;Node475 -->
<g id="edge5" class="edge">
<title>Node474&#45;&gt;Node475</title>
<path fill="none" stroke="#191970" d="M234.99,-113.0082C257.3606,-102.3705 284.6357,-89.4005 305.3524,-79.5492"/>
<polygon fill="#191970" stroke="#191970" points="233.2642,-109.9533 225.7363,-117.4086 236.2704,-116.2749 233.2642,-109.9533"/>
</g>
<!-- Node482 -->
<g id="node12" class="node">
<title>Node482</title>
<g id="a_node12"><a xlink:href="class_coin_control_dialog.html#a1990d478f3ffba666c358a4f1bd395ec" target="_top" xlink:title="CoinControlDialog::\lradioTreeMode">
<polygon fill="#ffffff" stroke="#000000" points="286,-147.5 286,-177.5 388,-177.5 388,-147.5 286,-147.5"/>
<text text-anchor="start" x="294" y="-165.5" font-family="Helvetica,sans-Serif" font-size="10.00" fill="#000000">CoinControlDialog::</text>
<text text-anchor="middle" x="337" y="-154.5" font-family="Helvetica,sans-Serif" font-size="10.00" fill="#000000">radioTreeMode</text>
</a>
</g>
</g>
<!-- Node474&#45;&gt;Node482 -->
<g id="edge12" class="edge">
<title>Node474&#45;&gt;Node482</title>
<path fill="none" stroke="#191970" d="M255.2356,-145.3466C265.3735,-147.4735 275.7926,-149.6593 285.6546,-151.7282"/>
<polygon fill="#191970" stroke="#191970" points="255.728,-141.8738 245.2224,-143.246 254.2907,-148.7247 255.728,-141.8738"/>
</g>
<!-- Node483 -->
<g id="node13" class="node">
<title>Node483</title>
<g id="a_node13"><a xlink:href="class_coin_control_dialog.html#a775c6d290cb63667a434b09072094533" target="_top" xlink:title="CoinControlDialog::\lradioListMode">
<polygon fill="#ffffff" stroke="#000000" points="286,-98.5 286,-128.5 388,-128.5 388,-98.5 286,-98.5"/>
<text text-anchor="start" x="294" y="-116.5" font-family="Helvetica,sans-Serif" font-size="10.00" fill="#000000">CoinControlDialog::</text>
<text text-anchor="middle" x="337" y="-105.5" font-family="Helvetica,sans-Serif" font-size="10.00" fill="#000000">radioListMode</text>
</a>
</g>
</g>
<!-- Node474&#45;&gt;Node483 -->
<g id="edge14" class="edge">
<title>Node474&#45;&gt;Node483</title>
<path fill="none" stroke="#191970" d="M255.2356,-124.3638C265.3735,-123.0168 275.7926,-121.6325 285.6546,-120.3221"/>
<polygon fill="#191970" stroke="#191970" points="254.6742,-120.9075 245.2224,-125.6942 255.5963,-127.8466 254.6742,-120.9075"/>
</g>
<!-- Node476 -->
<g id="node6" class="node">
<title>Node476</title>
<g id="a_node6"><a xlink:href="class_create_asset_dialog.html#a48181a6ef7b33bc3cbe27313f7e2a16a" target="_top" xlink:title="CreateAssetDialog::\lcoinControlButtonClicked">
<polygon fill="#ffffff" stroke="#000000" points="434,-98.5 434,-128.5 562,-128.5 562,-98.5 434,-98.5"/>
<text text-anchor="start" x="442" y="-116.5" font-family="Helvetica,sans-Serif" font-size="10.00" fill="#000000">CreateAssetDialog::</text>
<text text-anchor="middle" x="498" y="-105.5" font-family="Helvetica,sans-Serif" font-size="10.00" fill="#000000">coinControlButtonClicked</text>
</a>
</g>
</g>
<!-- Node475&#45;&gt;Node476 -->
<g id="edge6" class="edge">
<title>Node475&#45;&gt;Node476</title>
<path fill="none" stroke="#191970" d="M396.5139,-82.6129C413.6301,-87.8222 432.1072,-93.4457 448.5448,-98.4484"/>
<polygon fill="#191970" stroke="#191970" points="397.2049,-79.1648 386.619,-79.6014 395.1667,-85.8615 397.2049,-79.1648"/>
</g>
<!-- Node478 -->
<g id="node8" class="node">
<title>Node478</title>
<g id="a_node8"><a xlink:href="class_reissue_asset_dialog.html#aa6ab6d2f84e4c3c305da572e856a1462" target="_top" xlink:title="ReissueAssetDialog\l::coinControlButtonClicked">
<polygon fill="#ffffff" stroke="#000000" points="431,-49.5 431,-79.5 565,-79.5 565,-49.5 431,-49.5"/>
<text text-anchor="start" x="439" y="-67.5" font-family="Helvetica,sans-Serif" font-size="10.00" fill="#000000">ReissueAssetDialog</text>
<text text-anchor="middle" x="498" y="-56.5" font-family="Helvetica,sans-Serif" font-size="10.00" fill="#000000">::coinControlButtonClicked</text>
</a>
</g>
</g>
<!-- Node475&#45;&gt;Node478 -->
<g id="edge8" class="edge">
<title>Node475&#45;&gt;Node478</title>
<path fill="none" stroke="#191970" d="M398.4099,-64.5C409.045,-64.5 420.1518,-64.5 430.9283,-64.5"/>
<polygon fill="#191970" stroke="#191970" points="398.3841,-61.0001 388.3841,-64.5 398.384,-68.0001 398.3841,-61.0001"/>
</g>
<!-- Node480 -->
<g id="node10" class="node">
<title>Node480</title>
<g id="a_node10"><a xlink:href="class_send_coins_dialog.html#a59d757d9e4bea5b380eb480fd79cfb49" target="_top" xlink:title="SendCoinsDialog::coinControl\lButtonClicked">
<polygon fill="#ffffff" stroke="#000000" points="424,-.5 424,-30.5 572,-30.5 572,-.5 424,-.5"/>
<text text-anchor="start" x="432" y="-18.5" font-family="Helvetica,sans-Serif" font-size="10.00" fill="#000000">SendCoinsDialog::coinControl</text>
<text text-anchor="middle" x="498" y="-7.5" font-family="Helvetica,sans-Serif" font-size="10.00" fill="#000000">ButtonClicked</text>
</a>
</g>
</g>
<!-- Node475&#45;&gt;Node480 -->
<g id="edge10" class="edge">
<title>Node475&#45;&gt;Node480</title>
<path fill="none" stroke="#191970" d="M396.5139,-46.3871C413.6301,-41.1778 432.1072,-35.5543 448.5448,-30.5516"/>
<polygon fill="#191970" stroke="#191970" points="395.1667,-43.1385 386.619,-49.3986 397.2049,-49.8352 395.1667,-43.1385"/>
</g>
<!-- Node477 -->
<g id="node7" class="node">
<title>Node477</title>
<g id="a_node7"><a xlink:href="class_create_asset_dialog.html#a9700ac1a4c4659f6716fbdeff8260ff5" target="_top" xlink:title="CreateAssetDialog::\lCreateAssetDialog">
<polygon fill="#ffffff" stroke="#000000" points="628.5,-98.5 628.5,-128.5 733.5,-128.5 733.5,-98.5 628.5,-98.5"/>
<text text-anchor="start" x="636.5" y="-116.5" font-family="Helvetica,sans-Serif" font-size="10.00" fill="#000000">CreateAssetDialog::</text>
<text text-anchor="middle" x="681" y="-105.5" font-family="Helvetica,sans-Serif" font-size="10.00" fill="#000000">CreateAssetDialog</text>
</a>
</g>
</g>
<!-- Node476&#45;&gt;Node477 -->
<g id="edge7" class="edge">
<title>Node476&#45;&gt;Node477</title>
<path fill="none" stroke="#191970" d="M572.035,-113.5C590.8585,-113.5 610.7063,-113.5 628.23,-113.5"/>
<polygon fill="#191970" stroke="#191970" points="572.0046,-110.0001 562.0045,-113.5 572.0045,-117.0001 572.0046,-110.0001"/>
</g>
<!-- Node479 -->
<g id="node9" class="node">
<title>Node479</title>
<g id="a_node9"><a xlink:href="class_reissue_asset_dialog.html#aee7cca850e09ac4cbedb7175feea7038" target="_top" xlink:title="ReissueAssetDialog\l::ReissueAssetDialog">
<polygon fill="#ffffff" stroke="#000000" points="625,-49.5 625,-79.5 737,-79.5 737,-49.5 625,-49.5"/>
<text text-anchor="start" x="633" y="-67.5" font-family="Helvetica,sans-Serif" font-size="10.00" fill="#000000">ReissueAssetDialog</text>
<text text-anchor="middle" x="681" y="-56.5" font-family="Helvetica,sans-Serif" font-size="10.00" fill="#000000">::ReissueAssetDialog</text>
</a>
</g>
</g>
<!-- Node478&#45;&gt;Node479 -->
<g id="edge9" class="edge">
<title>Node478&#45;&gt;Node479</title>
<path fill="none" stroke="#191970" d="M575.3246,-64.5C591.9049,-64.5 609.1217,-64.5 624.7256,-64.5"/>
<polygon fill="#191970" stroke="#191970" points="575.1034,-61.0001 565.1033,-64.5 575.1033,-68.0001 575.1034,-61.0001"/>
</g>
<!-- Node481 -->
<g id="node11" class="node">
<title>Node481</title>
<g id="a_node11"><a xlink:href="class_send_coins_dialog.html#affacd36b4df87a68e2fe706ef388c0a6" target="_top" xlink:title="SendCoinsDialog::SendCoins\lDialog">
<polygon fill="#ffffff" stroke="#000000" points="608,-.5 608,-30.5 754,-30.5 754,-.5 608,-.5"/>
<text text-anchor="start" x="616" y="-18.5" font-family="Helvetica,sans-Serif" font-size="10.00" fill="#000000">SendCoinsDialog::SendCoins</text>
<text text-anchor="middle" x="681" y="-7.5" font-family="Helvetica,sans-Serif" font-size="10.00" fill="#000000">Dialog</text>
</a>
</g>
</g>
<!-- Node480&#45;&gt;Node481 -->
<g id="edge11" class="edge">
<title>Node480&#45;&gt;Node481</title>
<path fill="none" stroke="#191970" d="M582.1935,-15.5C590.7819,-15.5 599.4568,-15.5 607.9129,-15.5"/>
<polygon fill="#191970" stroke="#191970" points="582.1693,-12.0001 572.1693,-15.5 582.1693,-19.0001 582.1693,-12.0001"/>
</g>
<!-- Node482&#45;&gt;Node472 -->
<g id="edge13" class="edge">
<title>Node482&#45;&gt;Node472</title>
<path fill="none" stroke="#191970" d="M398.6606,-170.9257C414.5694,-173.0995 431.5183,-175.4155 446.8279,-177.5075"/>
<polygon fill="#191970" stroke="#191970" points="398.7659,-167.4076 388.3841,-169.5214 397.8181,-174.3432 398.7659,-167.4076"/>
</g>
<!-- Node483&#45;&gt;Node472 -->
<g id="edge15" class="edge">
<title>Node483&#45;&gt;Node472</title>
<path fill="none" stroke="#191970" d="M380.4686,-132.6694C406.6777,-144.2274 439.583,-158.7384 463.9053,-169.4644"/>
<polygon fill="#191970" stroke="#191970" points="381.706,-129.3899 371.144,-128.5573 378.8815,-135.7948 381.706,-129.3899"/>
</g>
</g>
</svg>
