<?xml version="1.0" encoding="UTF-8" standalone="no"?>
<!DOCTYPE svg PUBLIC "-//W3C//DTD SVG 1.1//EN"
 "http://www.w3.org/Graphics/SVG/1.1/DTD/svg11.dtd">
<!-- Generated by graphviz version 2.40.1 (20161225.0304)
 -->
<!-- Title: CTxMemPool::removeConflicts Pages: 1 -->
<svg width="788pt" height="180pt"
 viewBox="0.00 0.00 788.00 180.00" xmlns="http://www.w3.org/2000/svg" xmlns:xlink="http://www.w3.org/1999/xlink">
<g id="graph0" class="graph" transform="scale(1 1) rotate(0) translate(4 176)">
<title>CTxMemPool::removeConflicts</title>
<polygon fill="#ffffff" stroke="transparent" points="-4,4 -4,-176 784,-176 784,4 -4,4"/>
<!-- Node297 -->
<g id="node1" class="node">
<title>Node297</title>
<polygon fill="#bfbfbf" stroke="#000000" points="0,-76.5 0,-95.5 154,-95.5 154,-76.5 0,-76.5"/>
<text text-anchor="middle" x="77" y="-83.5" font-family="Helvetica,sans-Serif" font-size="10.00" fill="#000000">CTxMemPool::removeConflicts</text>
</g>
<!-- Node298 -->
<g id="node2" class="node">
<title>Node298</title>
<g id="a_node2"><a xlink:href="classindirectmap.html#a75843c1fb116ef691d369b6a53b52c19" target="_top" xlink:title="indirectmap::find">
<polygon fill="#ffffff" stroke="#000000" points="432.5,-152.5 432.5,-171.5 521.5,-171.5 521.5,-152.5 432.5,-152.5"/>
<text text-anchor="middle" x="477" y="-159.5" font-family="Helvetica,sans-Serif" font-size="10.00" fill="#000000">indirectmap::find</text>
</a>
</g>
</g>
<!-- Node297&#45;&gt;Node298 -->
<g id="edge1" class="edge">
<title>Node297&#45;&gt;Node298</title>
<path fill="none" stroke="#191970" d="M100.3947,-95.6499C122.9633,-104.5796 158.2769,-117.5631 190,-125 269.5953,-143.6596 363.9662,-153.5472 422.1663,-158.2752"/>
<polygon fill="#191970" stroke="#191970" points="422.0027,-161.7731 432.2474,-159.0718 422.5542,-154.7949 422.0027,-161.7731"/>
</g>
<!-- Node299 -->
<g id="node3" class="node">
<title>Node299</title>
<g id="a_node3"><a xlink:href="classindirectmap.html#acd46b7ca9e1569854a40327744dde108" target="_top" xlink:title="indirectmap::end">
<polygon fill="#ffffff" stroke="#000000" points="432.5,-114.5 432.5,-133.5 521.5,-133.5 521.5,-114.5 432.5,-114.5"/>
<text text-anchor="middle" x="477" y="-121.5" font-family="Helvetica,sans-Serif" font-size="10.00" fill="#000000">indirectmap::end</text>
</a>
</g>
</g>
<!-- Node297&#45;&gt;Node299 -->
<g id="edge2" class="edge">
<title>Node297&#45;&gt;Node299</title>
<path fill="none" stroke="#191970" d="M126.9101,-95.5022C146.5154,-98.9432 169.2531,-102.5753 190,-105 270.4764,-114.4055 364.2335,-119.521 422.1066,-122.0063"/>
<polygon fill="#191970" stroke="#191970" points="421.9946,-125.5046 432.1322,-122.4258 422.2873,-118.5107 421.9946,-125.5046"/>
</g>
<!-- Node300 -->
<g id="node4" class="node">
<title>Node300</title>
<g id="a_node4"><a xlink:href="class_c_tx_mem_pool.html#a11dea05121ab8321e1d1f1a21ec5c9ac" target="_top" xlink:title="CTxMemPool::ClearPrioritisation">
<polygon fill="#ffffff" stroke="#000000" points="190,-.5 190,-19.5 350,-19.5 350,-.5 190,-.5"/>
<text text-anchor="middle" x="270" y="-7.5" font-family="Helvetica,sans-Serif" font-size="10.00" fill="#000000">CTxMemPool::ClearPrioritisation</text>
</a>
</g>
</g>
<!-- Node297&#45;&gt;Node300 -->
<g id="edge3" class="edge">
<title>Node297&#45;&gt;Node300</title>
<path fill="none" stroke="#191970" d="M95.8472,-76.3379C118.0031,-65.2133 156.0627,-46.8272 190,-34 201.0154,-29.8365 213.0927,-25.8994 224.4497,-22.464"/>
<polygon fill="#191970" stroke="#191970" points="225.6028,-25.7729 234.1999,-19.581 223.6179,-19.0602 225.6028,-25.7729"/>
</g>
<!-- Node301 -->
<g id="node5" class="node">
<title>Node301</title>
<g id="a_node5"><a xlink:href="class_c_transaction.html#a7efd1379de830341417c0bfa23a149aa" target="_top" xlink:title="CTransaction::GetHash">
<polygon fill="#ffffff" stroke="#000000" points="417,-.5 417,-19.5 537,-19.5 537,-.5 417,-.5"/>
<text text-anchor="middle" x="477" y="-7.5" font-family="Helvetica,sans-Serif" font-size="10.00" fill="#000000">CTransaction::GetHash</text>
</a>
</g>
</g>
<!-- Node297&#45;&gt;Node301 -->
<g id="edge4" class="edge">
<title>Node297&#45;&gt;Node301</title>
<path fill="none" stroke="#191970" d="M127.2553,-76.4515C200.8527,-62.468 337.7513,-36.4572 416.6806,-21.4607"/>
<polygon fill="#191970" stroke="#191970" points="417.7794,-24.8146 426.9503,-19.5094 416.4727,-17.9376 417.7794,-24.8146"/>
</g>
<!-- Node302 -->
<g id="node6" class="node">
<title>Node302</title>
<g id="a_node6"><a xlink:href="class_c_tx_mem_pool.html#a1bdc49203ca7654d8508c356bcbca47e" target="_top" xlink:title="CTxMemPool::removeRecursive">
<polygon fill="#ffffff" stroke="#000000" points="190.5,-76.5 190.5,-95.5 349.5,-95.5 349.5,-76.5 190.5,-76.5"/>
<text text-anchor="middle" x="270" y="-83.5" font-family="Helvetica,sans-Serif" font-size="10.00" fill="#000000">CTxMemPool::removeRecursive</text>
</a>
</g>
</g>
<!-- Node297&#45;&gt;Node302 -->
<g id="edge5" class="edge">
<title>Node297&#45;&gt;Node302</title>
<path fill="none" stroke="#191970" d="M154.1108,-86C162.7139,-86 171.5315,-86 180.2745,-86"/>
<polygon fill="#191970" stroke="#191970" points="180.4866,-89.5001 190.4865,-86 180.4865,-82.5001 180.4866,-89.5001"/>
</g>
<!-- Node302&#45;&gt;Node298 -->
<g id="edge7" class="edge">
<title>Node302&#45;&gt;Node298</title>
<path fill="none" stroke="#191970" d="M286.3379,-95.6723C308.295,-108.2815 348.8671,-130.2279 386,-143 397.5655,-146.978 410.258,-150.2659 422.3967,-152.9235"/>
<polygon fill="#191970" stroke="#191970" points="421.9229,-156.3998 432.426,-155.009 423.348,-149.5464 421.9229,-156.3998"/>
</g>
<!-- Node302&#45;&gt;Node299 -->
<g id="edge8" class="edge">
<title>Node302&#45;&gt;Node299</title>
<path fill="none" stroke="#191970" d="M321.9677,-95.54C352.5253,-101.1496 391.129,-108.2362 422.1702,-113.9346"/>
<polygon fill="#191970" stroke="#191970" points="421.917,-117.4466 432.3847,-115.8097 423.181,-110.5616 421.917,-117.4466"/>
</g>
<!-- Node302&#45;&gt;Node301 -->
<g id="edge6" class="edge">
<title>Node302&#45;&gt;Node301</title>
<path fill="none" stroke="#191970" d="M314.6371,-76.4557C326.5716,-72.8905 339.1576,-68.1606 350,-62 368.8716,-51.2773 366.6868,-38.9052 386,-29 392.5162,-25.658 399.5813,-22.9039 406.7961,-20.6341"/>
<polygon fill="#191970" stroke="#191970" points="408.0233,-23.9242 416.6896,-17.8296 406.1141,-17.1896 408.0233,-23.9242"/>
</g>
<!-- Node303 -->
<g id="node7" class="node">
<title>Node303</title>
<g id="a_node7"><a xlink:href="class_c_tx_mem_pool.html#aea6c845956f051442dac0a13975b2192" target="_top" xlink:title="Populate setDescendants with all in&#45;mempool descendants of hash. ">
<polygon fill="#ffffff" stroke="#000000" points="386,-38.5 386,-57.5 568,-57.5 568,-38.5 386,-38.5"/>
<text text-anchor="middle" x="477" y="-45.5" font-family="Helvetica,sans-Serif" font-size="10.00" fill="#000000">CTxMemPool::CalculateDescendants</text>
</a>
</g>
</g>
<!-- Node302&#45;&gt;Node303 -->
<g id="edge9" class="edge">
<title>Node302&#45;&gt;Node303</title>
<path fill="none" stroke="#191970" d="M321.9677,-76.46C350.2658,-71.2652 385.464,-64.8037 415.1665,-59.3511"/>
<polygon fill="#191970" stroke="#191970" points="415.8073,-62.792 425.011,-57.5439 414.5433,-55.9071 415.8073,-62.792"/>
</g>
<!-- Node305 -->
<g id="node9" class="node">
<title>Node305</title>
<g id="a_node9"><a xlink:href="class_c_tx_mem_pool.html#ac9a9fc881945bbcec1b174f5dd62df08" target="_top" xlink:title="Remove a set of transactions from the mempool. ">
<polygon fill="#ffffff" stroke="#000000" points="402,-76.5 402,-95.5 552,-95.5 552,-76.5 402,-76.5"/>
<text text-anchor="middle" x="477" y="-83.5" font-family="Helvetica,sans-Serif" font-size="10.00" fill="#000000">CTxMemPool::RemoveStaged</text>
</a>
</g>
</g>
<!-- Node302&#45;&gt;Node305 -->
<g id="edge11" class="edge">
<title>Node302&#45;&gt;Node305</title>
<path fill="none" stroke="#191970" d="M349.7355,-86C363.4826,-86 377.821,-86 391.7079,-86"/>
<polygon fill="#191970" stroke="#191970" points="391.7251,-89.5001 401.725,-86 391.725,-82.5001 391.7251,-89.5001"/>
</g>
<!-- Node304 -->
<g id="node8" class="node">
<title>Node304</title>
<g id="a_node8"><a xlink:href="class_c_tx_mem_pool.html#a0f163f91b8590b86acd43b26438d7ee1" target="_top" xlink:title="CTxMemPool::GetMemPoolChildren">
<polygon fill="#ffffff" stroke="#000000" points="604,-38.5 604,-57.5 780,-57.5 780,-38.5 604,-38.5"/>
<text text-anchor="middle" x="692" y="-45.5" font-family="Helvetica,sans-Serif" font-size="10.00" fill="#000000">CTxMemPool::GetMemPoolChildren</text>
</a>
</g>
</g>
<!-- Node303&#45;&gt;Node304 -->
<g id="edge10" class="edge">
<title>Node303&#45;&gt;Node304</title>
<path fill="none" stroke="#191970" d="M568.1794,-48C576.5601,-48 585.0764,-48 593.5179,-48"/>
<polygon fill="#191970" stroke="#191970" points="593.7637,-51.5001 603.7636,-48 593.7636,-44.5001 593.7637,-51.5001"/>
</g>
</g>
</svg>
