<?xml version="1.0" encoding="UTF-8" standalone="no"?>
<!DOCTYPE svg PUBLIC "-//W3C//DTD SVG 1.1//EN"
 "http://www.w3.org/Graphics/SVG/1.1/DTD/svg11.dtd">
<!-- Generated by graphviz version 2.40.1 (20161225.0304)
 -->
<!-- Title: ClientModel::updateTimer Pages: 1 -->
<svg width="532pt" height="154pt"
 viewBox="0.00 0.00 532.00 154.00" xmlns="http://www.w3.org/2000/svg" xmlns:xlink="http://www.w3.org/1999/xlink">
<g id="graph0" class="graph" transform="scale(1 1) rotate(0) translate(4 150)">
<title>ClientModel::updateTimer</title>
<polygon fill="#ffffff" stroke="transparent" points="-4,4 -4,-150 528,-150 528,4 -4,4"/>
<!-- Node283 -->
<g id="node1" class="node">
<title>Node283</title>
<polygon fill="#bfbfbf" stroke="#000000" points="0,-60.5 0,-79.5 128,-79.5 128,-60.5 0,-60.5"/>
<text text-anchor="middle" x="64" y="-67.5" font-family="Helvetica,sans-Serif" font-size="10.00" fill="#000000">ClientModel::updateTimer</text>
</g>
<!-- Node284 -->
<g id="node2" class="node">
<title>Node284</title>
<g id="a_node2"><a xlink:href="class_client_model.html#ada13acede28507233a9a0811e23c6306" target="_top" xlink:title="Return number of transactions in the mempool. ">
<polygon fill="#ffffff" stroke="#000000" points="174,-126.5 174,-145.5 321,-145.5 321,-126.5 174,-126.5"/>
<text text-anchor="middle" x="247.5" y="-133.5" font-family="Helvetica,sans-Serif" font-size="10.00" fill="#000000">ClientModel::getMempoolSize</text>
</a>
</g>
</g>
<!-- Node283&#45;&gt;Node284 -->
<g id="edge1" class="edge">
<title>Node283&#45;&gt;Node284</title>
<path fill="none" stroke="#191970" d="M81.9872,-79.5822C101.6725,-89.7559 134.3827,-105.7521 164,-116 172.5865,-118.971 181.8179,-121.6611 190.9002,-124.0355"/>
<polygon fill="#191970" stroke="#191970" points="190.108,-127.4452 200.6594,-126.4865 191.8132,-120.656 190.108,-127.4452"/>
</g>
<!-- Node286 -->
<g id="node4" class="node">
<title>Node286</title>
<g id="a_node4"><a xlink:href="class_client_model.html#a78a52f9c35aee3326f1ed9e399f37d35" target="_top" xlink:title="Return the dynamic memory usage of the mempool. ">
<polygon fill="#ffffff" stroke="#000000" points="164,-77 164,-107 331,-107 331,-77 164,-77"/>
<text text-anchor="start" x="172" y="-95" font-family="Helvetica,sans-Serif" font-size="10.00" fill="#000000">ClientModel::getMempoolDynamic</text>
<text text-anchor="middle" x="247.5" y="-84" font-family="Helvetica,sans-Serif" font-size="10.00" fill="#000000">Usage</text>
</a>
</g>
</g>
<!-- Node283&#45;&gt;Node286 -->
<g id="edge3" class="edge">
<title>Node283&#45;&gt;Node286</title>
<path fill="none" stroke="#191970" d="M128.1794,-77.6945C136.4249,-78.6831 144.998,-79.7109 153.5962,-80.7418"/>
<polygon fill="#191970" stroke="#191970" points="153.3378,-84.2358 163.6833,-81.9511 154.1711,-77.2856 153.3378,-84.2358"/>
</g>
<!-- Node288 -->
<g id="node6" class="node">
<title>Node288</title>
<g id="a_node6"><a xlink:href="class_client_model.html#a3ecd021e48073debd6dfeb90fdb3e7bd" target="_top" xlink:title="ClientModel::getTotalBytesRecv">
<polygon fill="#ffffff" stroke="#000000" points="168.5,-38.5 168.5,-57.5 326.5,-57.5 326.5,-38.5 168.5,-38.5"/>
<text text-anchor="middle" x="247.5" y="-45.5" font-family="Helvetica,sans-Serif" font-size="10.00" fill="#000000">ClientModel::getTotalBytesRecv</text>
</a>
</g>
</g>
<!-- Node283&#45;&gt;Node288 -->
<g id="edge5" class="edge">
<title>Node283&#45;&gt;Node288</title>
<path fill="none" stroke="#191970" d="M128.1794,-62.3055C137.8686,-61.1438 148.0101,-59.9279 158.1133,-58.7167"/>
<polygon fill="#191970" stroke="#191970" points="158.6734,-62.1747 168.1856,-57.5091 157.8401,-55.2244 158.6734,-62.1747"/>
</g>
<!-- Node289 -->
<g id="node7" class="node">
<title>Node289</title>
<g id="a_node7"><a xlink:href="class_client_model.html#a53cd536b119e49b0fab9c95d13a247ed" target="_top" xlink:title="ClientModel::getTotalBytesSent">
<polygon fill="#ffffff" stroke="#000000" points="170,-.5 170,-19.5 325,-19.5 325,-.5 170,-.5"/>
<text text-anchor="middle" x="247.5" y="-7.5" font-family="Helvetica,sans-Serif" font-size="10.00" fill="#000000">ClientModel::getTotalBytesSent</text>
</a>
</g>
</g>
<!-- Node283&#45;&gt;Node289 -->
<g id="edge6" class="edge">
<title>Node283&#45;&gt;Node289</title>
<path fill="none" stroke="#191970" d="M84.6973,-60.3344C104.6653,-51.2935 135.9132,-37.8861 164,-29 172.1504,-26.4214 180.852,-24.0426 189.446,-21.9039"/>
<polygon fill="#191970" stroke="#191970" points="190.5376,-25.2415 199.4457,-19.5061 188.9053,-18.4345 190.5376,-25.2415"/>
</g>
<!-- Node285 -->
<g id="node3" class="node">
<title>Node285</title>
<g id="a_node3"><a xlink:href="class_c_tx_mem_pool.html#a867f7b452141770f3b2e8697fb3513d8" target="_top" xlink:title="CTxMemPool::size">
<polygon fill="#ffffff" stroke="#000000" points="395,-126.5 395,-145.5 496,-145.5 496,-126.5 395,-126.5"/>
<text text-anchor="middle" x="445.5" y="-133.5" font-family="Helvetica,sans-Serif" font-size="10.00" fill="#000000">CTxMemPool::size</text>
</a>
</g>
</g>
<!-- Node284&#45;&gt;Node285 -->
<g id="edge2" class="edge">
<title>Node284&#45;&gt;Node285</title>
<path fill="none" stroke="#191970" d="M321.2279,-136C342.1072,-136 364.5937,-136 384.623,-136"/>
<polygon fill="#191970" stroke="#191970" points="384.8515,-139.5001 394.8515,-136 384.8514,-132.5001 384.8515,-139.5001"/>
</g>
<!-- Node287 -->
<g id="node5" class="node">
<title>Node287</title>
<g id="a_node5"><a xlink:href="class_c_tx_mem_pool.html#a4fcf05ad5f15a565c4b43c4b9f29906e" target="_top" xlink:title="CTxMemPool::DynamicMemory\lUsage">
<polygon fill="#ffffff" stroke="#000000" points="367,-77 367,-107 524,-107 524,-77 367,-77"/>
<text text-anchor="start" x="375" y="-95" font-family="Helvetica,sans-Serif" font-size="10.00" fill="#000000">CTxMemPool::DynamicMemory</text>
<text text-anchor="middle" x="445.5" y="-84" font-family="Helvetica,sans-Serif" font-size="10.00" fill="#000000">Usage</text>
</a>
</g>
</g>
<!-- Node286&#45;&gt;Node287 -->
<g id="edge4" class="edge">
<title>Node286&#45;&gt;Node287</title>
<path fill="none" stroke="#191970" d="M331.1828,-92C339.5868,-92 348.1417,-92 356.5973,-92"/>
<polygon fill="#191970" stroke="#191970" points="356.8452,-95.5001 366.8452,-92 356.8452,-88.5001 356.8452,-95.5001"/>
</g>
</g>
</svg>
