<?xml version="1.0" encoding="UTF-8" standalone="no"?>
<!DOCTYPE svg PUBLIC "-//W3C//DTD SVG 1.1//EN"
 "http://www.w3.org/Graphics/SVG/1.1/DTD/svg11.dtd">
<!-- Generated by graphviz version 2.40.1 (20161225.0304)
 -->
<!-- Title: ClientModel::updateAlert Pages: 1 -->
<svg width="709pt" height="85pt"
 viewBox="0.00 0.00 709.00 85.00" xmlns="http://www.w3.org/2000/svg" xmlns:xlink="http://www.w3.org/1999/xlink">
<g id="graph0" class="graph" transform="scale(1 1) rotate(0) translate(4 81)">
<title>ClientModel::updateAlert</title>
<polygon fill="#ffffff" stroke="transparent" points="-4,4 -4,-81 705,-81 705,4 -4,4"/>
<!-- Node268 -->
<g id="node1" class="node">
<title>Node268</title>
<polygon fill="#bfbfbf" stroke="#000000" points="0,-19.5 0,-38.5 124,-38.5 124,-19.5 0,-19.5"/>
<text text-anchor="middle" x="62" y="-26.5" font-family="Helvetica,sans-Serif" font-size="10.00" fill="#000000">ClientModel::updateAlert</text>
</g>
<!-- Node269 -->
<g id="node2" class="node">
<title>Node269</title>
<g id="a_node2"><a xlink:href="class_client_model.html#a16718fa6c90ac5bce0ce1dcbfb3ec95c" target="_top" xlink:title="Return warnings to be displayed in status bar. ">
<polygon fill="#ffffff" stroke="#000000" points="160,-14 160,-44 291,-44 291,-14 160,-14"/>
<text text-anchor="start" x="168" y="-32" font-family="Helvetica,sans-Serif" font-size="10.00" fill="#000000">ClientModel::getStatusBar</text>
<text text-anchor="middle" x="225.5" y="-21" font-family="Helvetica,sans-Serif" font-size="10.00" fill="#000000">Warnings</text>
</a>
</g>
</g>
<!-- Node268&#45;&gt;Node269 -->
<g id="edge1" class="edge">
<title>Node268&#45;&gt;Node269</title>
<path fill="none" stroke="#191970" d="M124.2788,-29C132.5551,-29 141.1142,-29 149.5892,-29"/>
<polygon fill="#191970" stroke="#191970" points="149.8604,-32.5001 159.8604,-29 149.8604,-25.5001 149.8604,-32.5001"/>
</g>
<!-- Node270 -->
<g id="node3" class="node">
<title>Node270</title>
<g id="a_node3"><a xlink:href="warnings_8cpp.html#a6918ffd0d632afc0c0495696bc99aa00" target="_top" xlink:title="Format a string that describes several potential problems detected by the core. ">
<polygon fill="#ffffff" stroke="#000000" points="327,-19.5 327,-38.5 401,-38.5 401,-19.5 327,-19.5"/>
<text text-anchor="middle" x="364" y="-26.5" font-family="Helvetica,sans-Serif" font-size="10.00" fill="#000000">GetWarnings</text>
</a>
</g>
</g>
<!-- Node269&#45;&gt;Node270 -->
<g id="edge2" class="edge">
<title>Node269&#45;&gt;Node270</title>
<path fill="none" stroke="#191970" d="M291.0996,-29C299.752,-29 308.4805,-29 316.743,-29"/>
<polygon fill="#191970" stroke="#191970" points="316.9187,-32.5001 326.9187,-29 316.9186,-25.5001 316.9187,-32.5001"/>
</g>
<!-- Node271 -->
<g id="node4" class="node">
<title>Node271</title>
<g id="a_node4"><a xlink:href="util_8h.html#aad133bb6103b53cebf03fd01e2f11ba1" target="_top" xlink:title="Translation function: Call Translate signal on UI interface, which returns a boost::optional result...">
<polygon fill="#ffffff" stroke="#000000" points="488,-38.5 488,-57.5 517,-57.5 517,-38.5 488,-38.5"/>
<text text-anchor="middle" x="502.5" y="-45.5" font-family="Helvetica,sans-Serif" font-size="10.00" fill="#000000">_</text>
</a>
</g>
</g>
<!-- Node270&#45;&gt;Node271 -->
<g id="edge3" class="edge">
<title>Node270&#45;&gt;Node271</title>
<path fill="none" stroke="#191970" d="M401.1155,-34.0917C425.4067,-37.424 456.476,-41.6862 477.7807,-44.6089"/>
<polygon fill="#191970" stroke="#191970" points="477.561,-48.1115 487.9439,-46.0031 478.5124,-41.1764 477.561,-48.1115"/>
</g>
<!-- Node274 -->
<g id="node7" class="node">
<title>Node274</title>
<g id="a_node7"><a xlink:href="class_args_manager.html#af81c6e2a9dcd6b12557a2387fd67b2a6" target="_top" xlink:title="Return boolean argument or default value. ">
<polygon fill="#ffffff" stroke="#000000" points="437,-.5 437,-19.5 568,-19.5 568,-.5 437,-.5"/>
<text text-anchor="middle" x="502.5" y="-7.5" font-family="Helvetica,sans-Serif" font-size="10.00" fill="#000000">ArgsManager::GetBoolArg</text>
</a>
</g>
</g>
<!-- Node270&#45;&gt;Node274 -->
<g id="edge6" class="edge">
<title>Node270&#45;&gt;Node274</title>
<path fill="none" stroke="#191970" d="M401.1155,-23.9083C409.1495,-22.8062 417.925,-21.6023 426.8435,-20.3789"/>
<polygon fill="#191970" stroke="#191970" points="427.51,-23.8203 436.9415,-18.9936 426.5586,-16.8853 427.51,-23.8203"/>
</g>
<!-- Node272 -->
<g id="node5" class="node">
<title>Node272</title>
<g id="a_node5"><a xlink:href="util_8h.html#a9ed616020f4ef9b1a261b222bbec78e2" target="_top" xlink:title="SetupEnvironment">
<polygon fill="#ffffff" stroke="#000000" points="604,-57.5 604,-76.5 701,-76.5 701,-57.5 604,-57.5"/>
<text text-anchor="middle" x="652.5" y="-64.5" font-family="Helvetica,sans-Serif" font-size="10.00" fill="#000000">SetupEnvironment</text>
</a>
</g>
</g>
<!-- Node271&#45;&gt;Node272 -->
<g id="edge4" class="edge">
<title>Node271&#45;&gt;Node272</title>
<path fill="none" stroke="#191970" d="M517.1557,-49.8564C534.8827,-52.1018 565.8132,-56.0197 593.6344,-59.5437"/>
<polygon fill="#191970" stroke="#191970" points="593.3529,-63.0359 603.7135,-60.8204 594.2326,-56.0914 593.3529,-63.0359"/>
</g>
<!-- Node273 -->
<g id="node6" class="node">
<title>Node273</title>
<g id="a_node6"><a xlink:href="util_8h.html#a66791919e137c59061e988d2d87ee9a1" target="_top" xlink:title="SetupNetworking">
<polygon fill="#ffffff" stroke="#000000" points="606.5,-19.5 606.5,-38.5 698.5,-38.5 698.5,-19.5 606.5,-19.5"/>
<text text-anchor="middle" x="652.5" y="-26.5" font-family="Helvetica,sans-Serif" font-size="10.00" fill="#000000">SetupNetworking</text>
</a>
</g>
</g>
<!-- Node271&#45;&gt;Node273 -->
<g id="edge5" class="edge">
<title>Node271&#45;&gt;Node273</title>
<path fill="none" stroke="#191970" d="M517.1557,-46.1436C535.408,-43.8317 567.6577,-39.7467 596.0988,-36.1441"/>
<polygon fill="#191970" stroke="#191970" points="596.8909,-39.5719 606.3718,-34.8429 596.0112,-32.6274 596.8909,-39.5719"/>
</g>
</g>
</svg>
