<?xml version="1.0" encoding="UTF-8" standalone="no"?>
<!DOCTYPE svg PUBLIC "-//W3C//DTD SVG 1.1//EN"
 "http://www.w3.org/Graphics/SVG/1.1/DTD/svg11.dtd">
<!-- Generated by graphviz version 2.40.1 (20161225.0304)
 -->
<!-- Title: TransactionTableModel::processingQueuedTransactions Pages: 1 -->
<svg width="1408pt" height="88pt"
 viewBox="0.00 0.00 1408.00 88.00" xmlns="http://www.w3.org/2000/svg" xmlns:xlink="http://www.w3.org/1999/xlink">
<g id="graph0" class="graph" transform="scale(1 1) rotate(0) translate(4 84)">
<title>TransactionTableModel::processingQueuedTransactions</title>
<polygon fill="#ffffff" stroke="transparent" points="-4,4 -4,-84 1404,-84 1404,4 -4,4"/>
<!-- Node423 -->
<g id="node1" class="node">
<title>Node423</title>
<polygon fill="#bfbfbf" stroke="#000000" points="0,-27.5 0,-57.5 160,-57.5 160,-27.5 0,-27.5"/>
<text text-anchor="start" x="8" y="-45.5" font-family="Helvetica,sans-Serif" font-size="10.00" fill="#000000">TransactionTableModel</text>
<text text-anchor="middle" x="80" y="-34.5" font-family="Helvetica,sans-Serif" font-size="10.00" fill="#000000">::processingQueuedTransactions</text>
</g>
<!-- Node424 -->
<g id="node2" class="node">
<title>Node424</title>
<g id="a_node2"><a xlink:href="class_wallet_view.html#aed3fc203d310243887be68bc58d741ec" target="_top" xlink:title="Show incoming transaction notification for new transactions. ">
<polygon fill="#ffffff" stroke="#000000" points="196,-33 196,-52 374,-52 374,-33 196,-33"/>
<text text-anchor="middle" x="285" y="-40" font-family="Helvetica,sans-Serif" font-size="10.00" fill="#000000">WalletView::processNewTransaction</text>
</a>
</g>
</g>
<!-- Node423&#45;&gt;Node424 -->
<g id="edge1" class="edge">
<title>Node423&#45;&gt;Node424</title>
<path fill="none" stroke="#191970" d="M170.3534,-42.5C178.7853,-42.5 187.3285,-42.5 195.7502,-42.5"/>
<polygon fill="#191970" stroke="#191970" points="170.1392,-39.0001 160.1391,-42.5 170.1391,-46.0001 170.1392,-39.0001"/>
</g>
<!-- Node425 -->
<g id="node3" class="node">
<title>Node425</title>
<g id="a_node3"><a xlink:href="class_wallet_view.html#a0a37ff693a4f9c1e5ddc23f9cd3913be" target="_top" xlink:title="Set the wallet model. ">
<polygon fill="#ffffff" stroke="#000000" points="410,-33 410,-52 550,-52 550,-33 410,-33"/>
<text text-anchor="middle" x="480" y="-40" font-family="Helvetica,sans-Serif" font-size="10.00" fill="#000000">WalletView::setWalletModel</text>
</a>
</g>
</g>
<!-- Node424&#45;&gt;Node425 -->
<g id="edge2" class="edge">
<title>Node424&#45;&gt;Node425</title>
<path fill="none" stroke="#191970" d="M384.3179,-42.5C392.9217,-42.5 401.5066,-42.5 409.8045,-42.5"/>
<polygon fill="#191970" stroke="#191970" points="384.2252,-39.0001 374.2252,-42.5 384.2251,-46.0001 384.2252,-39.0001"/>
</g>
<!-- Node426 -->
<g id="node4" class="node">
<title>Node426</title>
<g id="a_node4"><a xlink:href="class_wallet_frame.html#aa199c3f27654199d84c365cf86167d86" target="_top" xlink:title="WalletFrame::addWallet">
<polygon fill="#ffffff" stroke="#000000" points="586,-33 586,-52 708,-52 708,-33 586,-33"/>
<text text-anchor="middle" x="647" y="-40" font-family="Helvetica,sans-Serif" font-size="10.00" fill="#000000">WalletFrame::addWallet</text>
</a>
</g>
</g>
<!-- Node425&#45;&gt;Node426 -->
<g id="edge3" class="edge">
<title>Node425&#45;&gt;Node426</title>
<path fill="none" stroke="#191970" d="M560.6091,-42.5C569.064,-42.5 577.5584,-42.5 585.7451,-42.5"/>
<polygon fill="#191970" stroke="#191970" points="560.3391,-39.0001 550.339,-42.5 560.339,-46.0001 560.3391,-39.0001"/>
</g>
<!-- Node427 -->
<g id="node5" class="node">
<title>Node427</title>
<g id="a_node5"><a xlink:href="class_raven_g_u_i.html#a174a3e75c334c5930d3261a2955c3725" target="_top" xlink:title="Set the client model. ">
<polygon fill="#ffffff" stroke="#000000" points="744,-33 744,-52 878,-52 878,-33 744,-33"/>
<text text-anchor="middle" x="811" y="-40" font-family="Helvetica,sans-Serif" font-size="10.00" fill="#000000">RavenGUI::setClientModel</text>
</a>
</g>
</g>
<!-- Node426&#45;&gt;Node427 -->
<g id="edge4" class="edge">
<title>Node426&#45;&gt;Node427</title>
<path fill="none" stroke="#191970" d="M718.303,-42.5C726.7776,-42.5 735.4074,-42.5 743.8217,-42.5"/>
<polygon fill="#191970" stroke="#191970" points="718.0676,-39.0001 708.0675,-42.5 718.0675,-46.0001 718.0676,-39.0001"/>
</g>
<!-- Node428 -->
<g id="node6" class="node">
<title>Node428</title>
<g id="a_node6"><a xlink:href="class_raven_application.html#a60123f611cc210870fa67974cb2c804c" target="_top" xlink:title="Request core shutdown. ">
<polygon fill="#ffffff" stroke="#000000" points="1269,-49.5 1269,-79.5 1400,-79.5 1400,-49.5 1269,-49.5"/>
<text text-anchor="start" x="1277" y="-67.5" font-family="Helvetica,sans-Serif" font-size="10.00" fill="#000000">RavenApplication::request</text>
<text text-anchor="middle" x="1334.5" y="-56.5" font-family="Helvetica,sans-Serif" font-size="10.00" fill="#000000">Shutdown</text>
</a>
</g>
</g>
<!-- Node427&#45;&gt;Node428 -->
<g id="edge5" class="edge">
<title>Node427&#45;&gt;Node428</title>
<path fill="none" stroke="#191970" d="M888.1333,-45.7415C991.2203,-50.0737 1172.1346,-57.6766 1268.9629,-61.7458"/>
<polygon fill="#191970" stroke="#191970" points="888.238,-42.2429 878.0999,-45.3199 887.944,-49.2367 888.238,-42.2429"/>
</g>
<!-- Node429 -->
<g id="node7" class="node">
<title>Node429</title>
<g id="a_node7"><a xlink:href="class_raven_application.html#a1a3dcf33ba44507984b2a04e7ebf1542" target="_top" xlink:title="RavenApplication::initialize\lResult">
<polygon fill="#ffffff" stroke="#000000" points="914,-5.5 914,-35.5 1048,-35.5 1048,-5.5 914,-5.5"/>
<text text-anchor="start" x="922" y="-23.5" font-family="Helvetica,sans-Serif" font-size="10.00" fill="#000000">RavenApplication::initialize</text>
<text text-anchor="middle" x="981" y="-12.5" font-family="Helvetica,sans-Serif" font-size="10.00" fill="#000000">Result</text>
</a>
</g>
</g>
<!-- Node427&#45;&gt;Node429 -->
<g id="edge6" class="edge">
<title>Node427&#45;&gt;Node429</title>
<path fill="none" stroke="#191970" d="M888.146,-32.5164C896.6879,-31.411 905.3366,-30.2917 913.7428,-29.2039"/>
<polygon fill="#191970" stroke="#191970" points="887.6566,-29.0505 878.1885,-33.805 888.555,-35.9926 887.6566,-29.0505"/>
</g>
<!-- Node430 -->
<g id="node8" class="node">
<title>Node430</title>
<g id="a_node8"><a xlink:href="class_raven_application.html#aecfdce3a245b959def5dd35e5cfb192e" target="_top" xlink:title="RavenApplication::startThread">
<polygon fill="#ffffff" stroke="#000000" points="1084,-11 1084,-30 1233,-30 1233,-11 1084,-11"/>
<text text-anchor="middle" x="1158.5" y="-18" font-family="Helvetica,sans-Serif" font-size="10.00" fill="#000000">RavenApplication::startThread</text>
</a>
</g>
</g>
<!-- Node429&#45;&gt;Node430 -->
<g id="edge7" class="edge">
<title>Node429&#45;&gt;Node430</title>
<path fill="none" stroke="#191970" d="M1058.3486,-20.5C1066.821,-20.5 1075.4344,-20.5 1083.873,-20.5"/>
<polygon fill="#191970" stroke="#191970" points="1058.1052,-17.0001 1048.1051,-20.5 1058.1051,-24.0001 1058.1052,-17.0001"/>
</g>
<!-- Node430&#45;&gt;Node428 -->
<g id="edge9" class="edge">
<title>Node430&#45;&gt;Node428</title>
<path fill="none" stroke="#191970" d="M1206.6046,-32.5261C1227.4811,-37.7453 1252.1576,-43.9144 1274.2385,-49.4346"/>
<polygon fill="#191970" stroke="#191970" points="1207.2397,-29.0773 1196.6894,-30.0473 1205.5419,-35.8683 1207.2397,-29.0773"/>
</g>
<!-- Node431 -->
<g id="node9" class="node">
<title>Node431</title>
<g id="a_node9"><a xlink:href="class_raven_application.html#a63a2032fef875fb81f26c212f69d000d" target="_top" xlink:title="Request core initialization. ">
<polygon fill="#ffffff" stroke="#000000" points="1269,-.5 1269,-30.5 1400,-30.5 1400,-.5 1269,-.5"/>
<text text-anchor="start" x="1277" y="-18.5" font-family="Helvetica,sans-Serif" font-size="10.00" fill="#000000">RavenApplication::request</text>
<text text-anchor="middle" x="1334.5" y="-7.5" font-family="Helvetica,sans-Serif" font-size="10.00" fill="#000000">Initialize</text>
</a>
</g>
</g>
<!-- Node430&#45;&gt;Node431 -->
<g id="edge8" class="edge">
<title>Node430&#45;&gt;Node431</title>
<path fill="none" stroke="#191970" d="M1243.2384,-18.0927C1251.8743,-17.8473 1260.5522,-17.6008 1268.9387,-17.3625"/>
<polygon fill="#191970" stroke="#191970" points="1243.0364,-14.5969 1233.1398,-18.3795 1243.2352,-21.5941 1243.0364,-14.5969"/>
</g>
</g>
</svg>
