<?xml version="1.0" encoding="UTF-8" standalone="no"?>
<!DOCTYPE svg PUBLIC "-//W3C//DTD SVG 1.1//EN"
 "http://www.w3.org/Graphics/SVG/1.1/DTD/svg11.dtd">
<!-- Generated by graphviz version 2.40.1 (20161225.0304)
 -->
<!-- Title: CreateAssetDialog::setupCoinControlFrame Pages: 1 -->
<svg width="299pt" height="154pt"
 viewBox="0.00 0.00 299.00 153.50" xmlns="http://www.w3.org/2000/svg" xmlns:xlink="http://www.w3.org/1999/xlink">
<g id="graph0" class="graph" transform="scale(1 1) rotate(0) translate(4 149.5)">
<title>CreateAssetDialog::setupCoinControlFrame</title>
<polygon fill="#ffffff" stroke="transparent" points="-4,4 -4,-149.5 295,-149.5 295,4 -4,4"/>
<!-- Node1402 -->
<g id="node1" class="node">
<title>Node1402</title>
<polygon fill="#bfbfbf" stroke="#000000" points="0,-52 0,-82 120,-82 120,-52 0,-52"/>
<text text-anchor="start" x="8" y="-70" font-family="Helvetica,sans-Serif" font-size="10.00" fill="#000000">CreateAssetDialog::</text>
<text text-anchor="middle" x="60" y="-59" font-family="Helvetica,sans-Serif" font-size="10.00" fill="#000000">setupCoinControlFrame</text>
</g>
<!-- Node1403 -->
<g id="node2" class="node">
<title>Node1403</title>
<g id="a_node2"><a xlink:href="class_platform_style.html#a4e298def69a98d6a39236f24570878bb" target="_top" xlink:title="PlatformStyle::WidgetBack\lGroundColor">
<polygon fill="#ffffff" stroke="#000000" points="156,-115 156,-145 291,-145 291,-115 156,-115"/>
<text text-anchor="start" x="164" y="-133" font-family="Helvetica,sans-Serif" font-size="10.00" fill="#000000">PlatformStyle::WidgetBack</text>
<text text-anchor="middle" x="223.5" y="-122" font-family="Helvetica,sans-Serif" font-size="10.00" fill="#000000">GroundColor</text>
</a>
</g>
</g>
<!-- Node1402&#45;&gt;Node1403 -->
<g id="edge1" class="edge">
<title>Node1402&#45;&gt;Node1403</title>
<path fill="none" stroke="#191970" d="M97.7686,-82.1741C115.4227,-89.2093 136.7503,-97.6264 156,-105 161.4575,-107.0905 167.1736,-109.2515 172.8717,-111.3874"/>
<polygon fill="#191970" stroke="#191970" points="171.8029,-114.7243 182.3955,-114.9417 174.2504,-108.1661 171.8029,-114.7243"/>
</g>
<!-- Node1404 -->
<g id="node3" class="node">
<title>Node1404</title>
<g id="a_node3"><a xlink:href="namespace_g_u_i_util.html#ae5e1dcf10da1e70457dbfd0634bad52a" target="_top" xlink:title="GUIUtil::getShadowEffect">
<polygon fill="#ffffff" stroke="#000000" points="158,-76.5 158,-95.5 289,-95.5 289,-76.5 158,-76.5"/>
<text text-anchor="middle" x="223.5" y="-83.5" font-family="Helvetica,sans-Serif" font-size="10.00" fill="#000000">GUIUtil::getShadowEffect</text>
</a>
</g>
</g>
<!-- Node1402&#45;&gt;Node1404 -->
<g id="edge2" class="edge">
<title>Node1402&#45;&gt;Node1404</title>
<path fill="none" stroke="#191970" d="M120.4168,-74.0209C129.3685,-75.0612 138.6872,-76.1441 147.901,-77.2148"/>
<polygon fill="#191970" stroke="#191970" points="147.4984,-80.6915 157.8356,-78.3693 148.3065,-73.7383 147.4984,-80.6915"/>
</g>
<!-- Node1405 -->
<g id="node4" class="node">
<title>Node1405</title>
<g id="a_node4"><a xlink:href="namespace_g_u_i_util.html#af80f82d36992cfa279ea6bdc7e2079d4" target="_top" xlink:title="GUIUtil::getTopLabelFont">
<polygon fill="#ffffff" stroke="#000000" points="159.5,-38.5 159.5,-57.5 287.5,-57.5 287.5,-38.5 159.5,-38.5"/>
<text text-anchor="middle" x="223.5" y="-45.5" font-family="Helvetica,sans-Serif" font-size="10.00" fill="#000000">GUIUtil::getTopLabelFont</text>
</a>
</g>
</g>
<!-- Node1402&#45;&gt;Node1405 -->
<g id="edge3" class="edge">
<title>Node1402&#45;&gt;Node1405</title>
<path fill="none" stroke="#191970" d="M120.4168,-59.9791C129.8689,-58.8807 139.73,-57.7347 149.4449,-56.6058"/>
<polygon fill="#191970" stroke="#191970" points="149.9635,-60.0692 159.4926,-55.4382 149.1554,-53.116 149.9635,-60.0692"/>
</g>
<!-- Node1406 -->
<g id="node5" class="node">
<title>Node1406</title>
<g id="a_node5"><a xlink:href="namespace_g_u_i_util.html#a8be38945b1ea26b68f766eabac8c4a2a" target="_top" xlink:title="GUIUtil::getSubLabelFont">
<polygon fill="#ffffff" stroke="#000000" points="159,-.5 159,-19.5 288,-19.5 288,-.5 159,-.5"/>
<text text-anchor="middle" x="223.5" y="-7.5" font-family="Helvetica,sans-Serif" font-size="10.00" fill="#000000">GUIUtil::getSubLabelFont</text>
</a>
</g>
</g>
<!-- Node1402&#45;&gt;Node1406 -->
<g id="edge4" class="edge">
<title>Node1402&#45;&gt;Node1406</title>
<path fill="none" stroke="#191970" d="M95.6906,-51.8625C113.6258,-44.5149 135.7904,-35.8241 156,-29 162.8197,-26.6972 170.0898,-24.4446 177.2385,-22.3419"/>
<polygon fill="#191970" stroke="#191970" points="178.2139,-25.7033 186.8577,-19.5768 176.28,-18.9758 178.2139,-25.7033"/>
</g>
</g>
</svg>
