<?xml version="1.0" encoding="UTF-8" standalone="no"?>
<!DOCTYPE svg PUBLIC "-//W3C//DTD SVG 1.1//EN"
 "http://www.w3.org/Graphics/SVG/1.1/DTD/svg11.dtd">
<!-- Generated by graphviz version 2.40.1 (20161225.0304)
 -->
<!-- Title: RavenUnits::parse Pages: 1 -->
<svg width="440pt" height="104pt"
 viewBox="0.00 0.00 440.00 104.00" xmlns="http://www.w3.org/2000/svg" xmlns:xlink="http://www.w3.org/1999/xlink">
<g id="graph0" class="graph" transform="scale(1 1) rotate(0) translate(4 100)">
<title>RavenUnits::parse</title>
<polygon fill="#ffffff" stroke="transparent" points="-4,4 -4,-100 436,-100 436,4 -4,4"/>
<!-- Node723 -->
<g id="node1" class="node">
<title>Node723</title>
<polygon fill="#bfbfbf" stroke="#000000" points="0,-38.5 0,-57.5 98,-57.5 98,-38.5 0,-38.5"/>
<text text-anchor="middle" x="49" y="-45.5" font-family="Helvetica,sans-Serif" font-size="10.00" fill="#000000">RavenUnits::parse</text>
</g>
<!-- Node724 -->
<g id="node2" class="node">
<title>Node724</title>
<g id="a_node2"><a xlink:href="class_raven_units.html#a559a7cae18b466371401f02d6407c9c5" target="_top" xlink:title="Is unit ID valid? ">
<polygon fill="#ffffff" stroke="#000000" points="156.5,-76.5 156.5,-95.5 251.5,-95.5 251.5,-76.5 156.5,-76.5"/>
<text text-anchor="middle" x="204" y="-83.5" font-family="Helvetica,sans-Serif" font-size="10.00" fill="#000000">RavenUnits::valid</text>
</a>
</g>
</g>
<!-- Node723&#45;&gt;Node724 -->
<g id="edge1" class="edge">
<title>Node723&#45;&gt;Node724</title>
<path fill="none" stroke="#191970" d="M88.113,-57.589C108.4748,-62.5809 133.5663,-68.7324 155.1887,-74.0334"/>
<polygon fill="#191970" stroke="#191970" points="154.6224,-77.4981 165.1682,-76.4799 156.2892,-70.6994 154.6224,-77.4981"/>
</g>
<!-- Node725 -->
<g id="node3" class="node">
<title>Node725</title>
<g id="a_node3"><a xlink:href="class_raven_units.html#ab3396a763c2ca8042f331f32904b0580" target="_top" xlink:title="Number of decimals left. ">
<polygon fill="#ffffff" stroke="#000000" points="147.5,-38.5 147.5,-57.5 260.5,-57.5 260.5,-38.5 147.5,-38.5"/>
<text text-anchor="middle" x="204" y="-45.5" font-family="Helvetica,sans-Serif" font-size="10.00" fill="#000000">RavenUnits::decimals</text>
</a>
</g>
</g>
<!-- Node723&#45;&gt;Node725 -->
<g id="edge2" class="edge">
<title>Node723&#45;&gt;Node725</title>
<path fill="none" stroke="#191970" d="M98.043,-48C110.5527,-48 124.2111,-48 137.436,-48"/>
<polygon fill="#191970" stroke="#191970" points="137.4384,-51.5001 147.4384,-48 137.4383,-44.5001 137.4384,-51.5001"/>
</g>
<!-- Node726 -->
<g id="node4" class="node">
<title>Node726</title>
<g id="a_node4"><a xlink:href="class_raven_units.html#a21db9aa82ae32bd1a7155d30d8840307" target="_top" xlink:title="RavenUnits::removeSpaces">
<polygon fill="#ffffff" stroke="#000000" points="134,-.5 134,-19.5 274,-19.5 274,-.5 134,-.5"/>
<text text-anchor="middle" x="204" y="-7.5" font-family="Helvetica,sans-Serif" font-size="10.00" fill="#000000">RavenUnits::removeSpaces</text>
</a>
</g>
</g>
<!-- Node723&#45;&gt;Node726 -->
<g id="edge3" class="edge">
<title>Node723&#45;&gt;Node726</title>
<path fill="none" stroke="#191970" d="M88.113,-38.411C108.4748,-33.4191 133.5663,-27.2676 155.1887,-21.9666"/>
<polygon fill="#191970" stroke="#191970" points="156.2892,-25.3006 165.1682,-19.5201 154.6224,-18.5019 156.2892,-25.3006"/>
</g>
<!-- Node727 -->
<g id="node5" class="node">
<title>Node727</title>
<g id="a_node5"><a xlink:href="class_raven_units.html#afcf268875a556bcacdf6a8b6fb5a4149" target="_top" xlink:title="Return maximum number of base units (Satoshis) ">
<polygon fill="#ffffff" stroke="#000000" points="310,-.5 310,-19.5 432,-19.5 432,-.5 310,-.5"/>
<text text-anchor="middle" x="371" y="-7.5" font-family="Helvetica,sans-Serif" font-size="10.00" fill="#000000">RavenUnits::maxMoney</text>
</a>
</g>
</g>
<!-- Node726&#45;&gt;Node727 -->
<g id="edge4" class="edge">
<title>Node726&#45;&gt;Node727</title>
<path fill="none" stroke="#191970" d="M274.339,-10C282.7043,-10 291.2504,-10 299.6299,-10"/>
<polygon fill="#191970" stroke="#191970" points="299.7452,-13.5001 309.7451,-10 299.7451,-6.5001 299.7452,-13.5001"/>
</g>
</g>
</svg>
