<?xml version="1.0" encoding="UTF-8" standalone="no"?>
<!DOCTYPE svg PUBLIC "-//W3C//DTD SVG 1.1//EN"
 "http://www.w3.org/Graphics/SVG/1.1/DTD/svg11.dtd">
<!-- Generated by graphviz version 2.40.1 (20161225.0304)
 -->
<!-- Title: CoinControlDialog::showMenu Pages: 1 -->
<svg width="436pt" height="66pt"
 viewBox="0.00 0.00 436.00 66.00" xmlns="http://www.w3.org/2000/svg" xmlns:xlink="http://www.w3.org/1999/xlink">
<g id="graph0" class="graph" transform="scale(1 1) rotate(0) translate(4 62)">
<title>CoinControlDialog::showMenu</title>
<polygon fill="#ffffff" stroke="transparent" points="-4,4 -4,-62 432,-62 432,4 -4,4"/>
<!-- Node463 -->
<g id="node1" class="node">
<title>Node463</title>
<polygon fill="#bfbfbf" stroke="#000000" points="0,-14 0,-44 102,-44 102,-14 0,-14"/>
<text text-anchor="start" x="8" y="-32" font-family="Helvetica,sans-Serif" font-size="10.00" fill="#000000">CoinControlDialog::</text>
<text text-anchor="middle" x="51" y="-21" font-family="Helvetica,sans-Serif" font-size="10.00" fill="#000000">showMenu</text>
</g>
<!-- Node464 -->
<g id="node2" class="node">
<title>Node464</title>
<g id="a_node2"><a xlink:href="class_wallet_model.html#abeea7ae42ec38ace2786b2e3d340f5a2" target="_top" xlink:title="RVN END. ">
<polygon fill="#ffffff" stroke="#000000" points="138,-38.5 138,-57.5 274,-57.5 274,-38.5 138,-38.5"/>
<text text-anchor="middle" x="206" y="-45.5" font-family="Helvetica,sans-Serif" font-size="10.00" fill="#000000">WalletModel::isLockedCoin</text>
</a>
</g>
</g>
<!-- Node463&#45;&gt;Node464 -->
<g id="edge1" class="edge">
<title>Node463&#45;&gt;Node464</title>
<path fill="none" stroke="#191970" d="M102.1824,-35.274C110.3583,-36.2762 118.9776,-37.3327 127.6117,-38.3911"/>
<polygon fill="#191970" stroke="#191970" points="127.3768,-41.8884 137.7284,-39.6312 128.2285,-34.9404 127.3768,-41.8884"/>
</g>
<!-- Node466 -->
<g id="node4" class="node">
<title>Node466</title>
<g id="a_node4"><a xlink:href="uint256_8h.html#a52e679560cc1ebf68f878ed69e38f259" target="_top" xlink:title="uint256S">
<polygon fill="#ffffff" stroke="#000000" points="178.5,-.5 178.5,-19.5 233.5,-19.5 233.5,-.5 178.5,-.5"/>
<text text-anchor="middle" x="206" y="-7.5" font-family="Helvetica,sans-Serif" font-size="10.00" fill="#000000">uint256S</text>
</a>
</g>
</g>
<!-- Node463&#45;&gt;Node466 -->
<g id="edge3" class="edge">
<title>Node463&#45;&gt;Node466</title>
<path fill="none" stroke="#191970" d="M102.1824,-22.726C123.7093,-20.0873 148.3102,-17.0717 168.1597,-14.6385"/>
<polygon fill="#191970" stroke="#191970" points="168.8563,-18.0794 178.3561,-13.3886 168.0045,-11.1314 168.8563,-18.0794"/>
</g>
<!-- Node465 -->
<g id="node3" class="node">
<title>Node465</title>
<g id="a_node3"><a xlink:href="group___actions.html#ga58abc6e61537f10bfb9429587ed29074" target="_top" xlink:title="CWallet::IsLockedCoin">
<polygon fill="#ffffff" stroke="#000000" points="310,-38.5 310,-57.5 428,-57.5 428,-38.5 310,-38.5"/>
<text text-anchor="middle" x="369" y="-45.5" font-family="Helvetica,sans-Serif" font-size="10.00" fill="#000000">CWallet::IsLockedCoin</text>
</a>
</g>
</g>
<!-- Node464&#45;&gt;Node465 -->
<g id="edge2" class="edge">
<title>Node464&#45;&gt;Node465</title>
<path fill="none" stroke="#191970" d="M274.1822,-48C282.6171,-48 291.2476,-48 299.6991,-48"/>
<polygon fill="#191970" stroke="#191970" points="299.894,-51.5001 309.894,-48 299.8939,-44.5001 299.894,-51.5001"/>
</g>
<!-- Node467 -->
<g id="node5" class="node">
<title>Node467</title>
<g id="a_node5"><a xlink:href="classbase__blob.html#a5ec1f681a2830f4e180fe664c0eb4dd0" target="_top" xlink:title="base_blob::SetHex">
<polygon fill="#ffffff" stroke="#000000" points="319,-.5 319,-19.5 419,-19.5 419,-.5 319,-.5"/>
<text text-anchor="middle" x="369" y="-7.5" font-family="Helvetica,sans-Serif" font-size="10.00" fill="#000000">base_blob::SetHex</text>
</a>
</g>
</g>
<!-- Node466&#45;&gt;Node467 -->
<g id="edge4" class="edge">
<title>Node466&#45;&gt;Node467</title>
<path fill="none" stroke="#191970" d="M233.6507,-10C254.1782,-10 282.9551,-10 308.6992,-10"/>
<polygon fill="#191970" stroke="#191970" points="308.7646,-13.5001 318.7646,-10 308.7646,-6.5001 308.7646,-13.5001"/>
</g>
</g>
</svg>
