<?xml version="1.0" encoding="UTF-8" standalone="no"?>
<!DOCTYPE svg PUBLIC "-//W3C//DTD SVG 1.1//EN"
 "http://www.w3.org/Graphics/SVG/1.1/DTD/svg11.dtd">
<!-- Generated by graphviz version 2.40.1 (20161225.0304)
 -->
<!-- Title: Coin::IsSpent Pages: 1 -->
<svg width="467pt" height="360pt"
 viewBox="0.00 0.00 467.00 359.50" xmlns="http://www.w3.org/2000/svg" xmlns:xlink="http://www.w3.org/1999/xlink">
<g id="graph0" class="graph" transform="scale(1 1) rotate(0) translate(4 355.5)">
<title>Coin::IsSpent</title>
<polygon fill="#ffffff" stroke="transparent" points="-4,4 -4,-355.5 463,-355.5 463,4 -4,4"/>
<!-- Node41 -->
<g id="node1" class="node">
<title>Node41</title>
<polygon fill="#bfbfbf" stroke="#000000" points="0,-152.5 0,-171.5 77,-171.5 77,-152.5 0,-152.5"/>
<text text-anchor="middle" x="38.5" y="-159.5" font-family="Helvetica,sans-Serif" font-size="10.00" fill="#000000">Coin::IsSpent</text>
</g>
<!-- Node42 -->
<g id="node2" class="node">
<title>Node42</title>
<g id="a_node2"><a xlink:href="class_c_coins_view_cache.html#aaeb452bec99d4fa667fec4c0df25dedf" target="_top" xlink:title="Retrieve the Coin (unspent transaction output) for a given outpoint. ">
<polygon fill="#ffffff" stroke="#000000" points="119.5,-304.5 119.5,-323.5 261.5,-323.5 261.5,-304.5 119.5,-304.5"/>
<text text-anchor="middle" x="190.5" y="-311.5" font-family="Helvetica,sans-Serif" font-size="10.00" fill="#000000">CCoinsViewCache::GetCoin</text>
</a>
</g>
</g>
<!-- Node41&#45;&gt;Node42 -->
<g id="edge1" class="edge">
<title>Node41&#45;&gt;Node42</title>
<path fill="none" stroke="#191970" d="M44.0001,-181.712C53.2343,-211.0523 74.71,-265.8732 113,-295 118.0719,-298.8581 123.8233,-301.9432 129.8464,-304.4085"/>
<polygon fill="#191970" stroke="#191970" points="47.2625,-180.4043 41.0508,-171.8214 40.5544,-182.4046 47.2625,-180.4043"/>
</g>
<!-- Node45 -->
<g id="node5" class="node">
<title>Node45</title>
<g id="a_node5"><a xlink:href="class_coin.html#a5a59da03966db508b1d4f99e5fe62610" target="_top" xlink:title="Coin::Serialize">
<polygon fill="#ffffff" stroke="#000000" points="150.5,-266.5 150.5,-285.5 230.5,-285.5 230.5,-266.5 150.5,-266.5"/>
<text text-anchor="middle" x="190.5" y="-273.5" font-family="Helvetica,sans-Serif" font-size="10.00" fill="#000000">Coin::Serialize</text>
</a>
</g>
</g>
<!-- Node41&#45;&gt;Node45 -->
<g id="edge4" class="edge">
<title>Node41&#45;&gt;Node45</title>
<path fill="none" stroke="#191970" d="M47.9446,-180.4309C60.0405,-202.1391 83.0668,-237.6831 113,-257 124.058,-264.1361 137.5814,-268.5924 150.2177,-271.375"/>
<polygon fill="#191970" stroke="#191970" points="50.9844,-178.6936 43.1706,-171.5385 44.817,-182.0046 50.9844,-178.6936"/>
</g>
<!-- Node46 -->
<g id="node6" class="node">
<title>Node46</title>
<g id="a_node6"><a xlink:href="tx__verify_8h.html#a312fadbeec896d49437733e986f3df04" target="_top" xlink:title="Count ECDSA signature operations in pay&#45;to&#45;script&#45;hash inputs. ">
<polygon fill="#ffffff" stroke="#000000" points="134.5,-228.5 134.5,-247.5 246.5,-247.5 246.5,-228.5 134.5,-228.5"/>
<text text-anchor="middle" x="190.5" y="-235.5" font-family="Helvetica,sans-Serif" font-size="10.00" fill="#000000">GetP2SHSigOpCount</text>
</a>
</g>
</g>
<!-- Node41&#45;&gt;Node46 -->
<g id="edge5" class="edge">
<title>Node41&#45;&gt;Node46</title>
<path fill="none" stroke="#191970" d="M55.7384,-178.543C70.0137,-191.3685 91.3916,-208.6482 113,-219 120.9959,-222.8305 129.8376,-225.9333 138.6025,-228.4328"/>
<polygon fill="#191970" stroke="#191970" points="57.9288,-175.8017 48.206,-171.5923 53.1816,-180.9461 57.9288,-175.8017"/>
</g>
<!-- Node47 -->
<g id="node7" class="node">
<title>Node47</title>
<g id="a_node7"><a xlink:href="rawtransaction_8cpp.html#ac8f41750e8ba0b272a35eef9bd8c33c0" target="_top" xlink:title="gettxoutproof">
<polygon fill="#ffffff" stroke="#000000" points="153.5,-190.5 153.5,-209.5 227.5,-209.5 227.5,-190.5 153.5,-190.5"/>
<text text-anchor="middle" x="190.5" y="-197.5" font-family="Helvetica,sans-Serif" font-size="10.00" fill="#000000">gettxoutproof</text>
</a>
</g>
</g>
<!-- Node41&#45;&gt;Node47 -->
<g id="edge6" class="edge">
<title>Node41&#45;&gt;Node47</title>
<path fill="none" stroke="#191970" d="M85.3658,-174.023C94.5257,-176.353 104.061,-178.7644 113,-181 126.1706,-184.2939 140.6147,-187.8502 153.4273,-190.9854"/>
<polygon fill="#191970" stroke="#191970" points="86.1742,-170.6173 75.6195,-171.539 84.4453,-177.4004 86.1742,-170.6173"/>
</g>
<!-- Node48 -->
<g id="node8" class="node">
<title>Node48</title>
<g id="a_node8"><a xlink:href="rawtransaction_8cpp.html#a266f1646e146bdb9faca1a701de9a9f2" target="_top" xlink:title="combinerawtransaction">
<polygon fill="#ffffff" stroke="#000000" points="132,-152.5 132,-171.5 249,-171.5 249,-152.5 132,-152.5"/>
<text text-anchor="middle" x="190.5" y="-159.5" font-family="Helvetica,sans-Serif" font-size="10.00" fill="#000000">combinerawtransaction</text>
</a>
</g>
</g>
<!-- Node41&#45;&gt;Node48 -->
<g id="edge7" class="edge">
<title>Node41&#45;&gt;Node48</title>
<path fill="none" stroke="#191970" d="M87.2623,-162C101.4121,-162 117.0136,-162 131.709,-162"/>
<polygon fill="#191970" stroke="#191970" points="87.2493,-158.5001 77.2493,-162 87.2493,-165.5001 87.2493,-158.5001"/>
</g>
<!-- Node49 -->
<g id="node9" class="node">
<title>Node49</title>
<g id="a_node9"><a xlink:href="rawtransaction_8cpp.html#a5b2abfea4548c97e780cfae39f9ac11b" target="_top" xlink:title="signrawtransaction">
<polygon fill="#ffffff" stroke="#000000" points="141.5,-114.5 141.5,-133.5 239.5,-133.5 239.5,-114.5 141.5,-114.5"/>
<text text-anchor="middle" x="190.5" y="-121.5" font-family="Helvetica,sans-Serif" font-size="10.00" fill="#000000">signrawtransaction</text>
</a>
</g>
</g>
<!-- Node41&#45;&gt;Node49 -->
<g id="edge8" class="edge">
<title>Node41&#45;&gt;Node49</title>
<path fill="none" stroke="#191970" d="M85.3658,-149.977C94.5257,-147.647 104.061,-145.2356 113,-143 125.3642,-139.9078 138.8508,-136.5843 151.0563,-133.595"/>
<polygon fill="#191970" stroke="#191970" points="84.4453,-146.5996 75.6195,-152.461 86.1742,-153.3827 84.4453,-146.5996"/>
</g>
<!-- Node50 -->
<g id="node10" class="node">
<title>Node50</title>
<g id="a_node10"><a xlink:href="class_c_tx_mem_pool.html#acf12e024f4d6d5c0437227bc419c28fb" target="_top" xlink:title="CTxMemPool::removeForReorg">
<polygon fill="#ffffff" stroke="#000000" points="113,-76.5 113,-95.5 268,-95.5 268,-76.5 113,-76.5"/>
<text text-anchor="middle" x="190.5" y="-83.5" font-family="Helvetica,sans-Serif" font-size="10.00" fill="#000000">CTxMemPool::removeForReorg</text>
</a>
</g>
</g>
<!-- Node41&#45;&gt;Node50 -->
<g id="edge9" class="edge">
<title>Node41&#45;&gt;Node50</title>
<path fill="none" stroke="#191970" d="M55.7384,-145.457C70.0137,-132.6315 91.3916,-115.3518 113,-105 120.9959,-101.1695 129.8376,-98.0667 138.6025,-95.5672"/>
<polygon fill="#191970" stroke="#191970" points="53.1816,-143.0539 48.206,-152.4077 57.9288,-148.1983 53.1816,-143.0539"/>
</g>
<!-- Node52 -->
<g id="node12" class="node">
<title>Node52</title>
<g id="a_node12"><a xlink:href="validation_8cpp.html#adb3030dc3fb35c34bb10776e7d391d1a" target="_top" xlink:title="Check whether all inputs of this transaction are valid (no double spends, scripts &amp; sigs...">
<polygon fill="#ffffff" stroke="#000000" points="154.5,-38.5 154.5,-57.5 226.5,-57.5 226.5,-38.5 154.5,-38.5"/>
<text text-anchor="middle" x="190.5" y="-45.5" font-family="Helvetica,sans-Serif" font-size="10.00" fill="#000000">CheckInputs</text>
</a>
</g>
</g>
<!-- Node41&#45;&gt;Node52 -->
<g id="edge11" class="edge">
<title>Node41&#45;&gt;Node52</title>
<path fill="none" stroke="#191970" d="M47.9446,-143.5691C60.0405,-121.8609 83.0668,-86.3169 113,-67 125.222,-59.1127 140.4558,-54.4992 154.1747,-51.8007"/>
<polygon fill="#191970" stroke="#191970" points="44.817,-141.9954 43.1706,-152.4615 50.9844,-145.3064 44.817,-141.9954"/>
</g>
<!-- Node53 -->
<g id="node13" class="node">
<title>Node53</title>
<g id="a_node13"><a xlink:href="validation_8cpp.html#a4eb74c7b0135bd677315175c4056f890" target="_top" xlink:title="Restore the UTXO in a Coin at a given COutPoint. ">
<polygon fill="#ffffff" stroke="#000000" points="148.5,-.5 148.5,-19.5 232.5,-19.5 232.5,-.5 148.5,-.5"/>
<text text-anchor="middle" x="190.5" y="-7.5" font-family="Helvetica,sans-Serif" font-size="10.00" fill="#000000">ApplyTxInUndo</text>
</a>
</g>
</g>
<!-- Node41&#45;&gt;Node53 -->
<g id="edge12" class="edge">
<title>Node41&#45;&gt;Node53</title>
<path fill="none" stroke="#191970" d="M44.0001,-142.288C53.2343,-112.9477 74.71,-58.1268 113,-29 123.1438,-21.2838 136.0058,-16.6597 148.3224,-13.9019"/>
<polygon fill="#191970" stroke="#191970" points="40.5544,-141.5954 41.0508,-152.1786 47.2625,-143.5957 40.5544,-141.5954"/>
</g>
<!-- Node43 -->
<g id="node3" class="node">
<title>Node43</title>
<g id="a_node3"><a xlink:href="class_transaction_desc.html#a1de402b439b16ee501487b6cadb979ce" target="_top" xlink:title="TransactionDesc::CreateDebug\lString">
<polygon fill="#ffffff" stroke="#000000" points="304,-321 304,-351 459,-351 459,-321 304,-321"/>
<text text-anchor="start" x="312" y="-339" font-family="Helvetica,sans-Serif" font-size="10.00" fill="#000000">TransactionDesc::CreateDebug</text>
<text text-anchor="middle" x="381.5" y="-328" font-family="Helvetica,sans-Serif" font-size="10.00" fill="#000000">String</text>
</a>
</g>
</g>
<!-- Node42&#45;&gt;Node43 -->
<g id="edge2" class="edge">
<title>Node42&#45;&gt;Node43</title>
<path fill="none" stroke="#191970" d="M271.7493,-323.3586C282.4089,-324.5864 293.3108,-325.8421 303.9077,-327.0627"/>
<polygon fill="#191970" stroke="#191970" points="271.9562,-319.8593 261.6214,-322.192 271.1551,-326.8134 271.9562,-319.8593"/>
</g>
<!-- Node44 -->
<g id="node4" class="node">
<title>Node44</title>
<g id="a_node4"><a xlink:href="blockchain_8cpp.html#a0d3ec9ae23b08828dd7ca646766ca637" target="_top" xlink:title="gettxout">
<polygon fill="#ffffff" stroke="#000000" points="355.5,-282.5 355.5,-301.5 407.5,-301.5 407.5,-282.5 355.5,-282.5"/>
<text text-anchor="middle" x="381.5" y="-289.5" font-family="Helvetica,sans-Serif" font-size="10.00" fill="#000000">gettxout</text>
</a>
</g>
</g>
<!-- Node42&#45;&gt;Node44 -->
<g id="edge3" class="edge">
<title>Node42&#45;&gt;Node44</title>
<path fill="none" stroke="#191970" d="M271.6833,-304.649C301.6221,-301.2006 333.4817,-297.5309 355.1303,-295.0373"/>
<polygon fill="#191970" stroke="#191970" points="271.1551,-301.1866 261.6214,-305.808 271.9562,-308.1407 271.1551,-301.1866"/>
</g>
<!-- Node51 -->
<g id="node11" class="node">
<title>Node51</title>
<g id="a_node11"><a xlink:href="validation_8cpp.html#aaa1204b724d7b62f09ef22df4c6a592d" target="_top" xlink:title="UpdateMempoolForReorg">
<polygon fill="#ffffff" stroke="#000000" points="317.5,-76.5 317.5,-95.5 445.5,-95.5 445.5,-76.5 317.5,-76.5"/>
<text text-anchor="middle" x="381.5" y="-83.5" font-family="Helvetica,sans-Serif" font-size="10.00" fill="#000000">UpdateMempoolForReorg</text>
</a>
</g>
</g>
<!-- Node50&#45;&gt;Node51 -->
<g id="edge10" class="edge">
<title>Node50&#45;&gt;Node51</title>
<path fill="none" stroke="#191970" d="M278.2032,-86C291.374,-86 304.744,-86 317.3019,-86"/>
<polygon fill="#191970" stroke="#191970" points="278.187,-82.5001 268.187,-86 278.187,-89.5001 278.187,-82.5001"/>
</g>
</g>
</svg>
