<?xml version="1.0" encoding="UTF-8" standalone="no"?>
<!DOCTYPE svg PUBLIC "-//W3C//DTD SVG 1.1//EN"
 "http://www.w3.org/Graphics/SVG/1.1/DTD/svg11.dtd">
<!-- Generated by graphviz version 2.40.1 (20161225.0304)
 -->
<!-- Title: CService::ToString Pages: 1 -->
<svg width="1417pt" height="370pt"
 viewBox="0.00 0.00 1417.00 370.00" xmlns="http://www.w3.org/2000/svg" xmlns:xlink="http://www.w3.org/1999/xlink">
<g id="graph0" class="graph" transform="scale(1 1) rotate(0) translate(4 366)">
<title>CService::ToString</title>
<polygon fill="#ffffff" stroke="transparent" points="-4,4 -4,-366 1413,-366 1413,4 -4,4"/>
<!-- Node101 -->
<g id="node1" class="node">
<title>Node101</title>
<polygon fill="#bfbfbf" stroke="#000000" points="0,-190.5 0,-209.5 100,-209.5 100,-190.5 0,-190.5"/>
<text text-anchor="middle" x="50" y="-197.5" font-family="Helvetica,sans-Serif" font-size="10.00" fill="#000000">CService::ToString</text>
</g>
<!-- Node102 -->
<g id="node2" class="node">
<title>Node102</title>
<g id="a_node2"><a xlink:href="class_c_addr_man.html#a33ec6a4584cf4b17af821e6e35216459" target="_top" xlink:title="Mark an entry &quot;good&quot;, possibly moving it from &quot;new&quot; to &quot;tried&quot;. ">
<polygon fill="#ffffff" stroke="#000000" points="146,-342.5 146,-361.5 244,-361.5 244,-342.5 146,-342.5"/>
<text text-anchor="middle" x="195" y="-349.5" font-family="Helvetica,sans-Serif" font-size="10.00" fill="#000000">CAddrMan::Good_</text>
</a>
</g>
</g>
<!-- Node101&#45;&gt;Node102 -->
<g id="edge1" class="edge">
<title>Node101&#45;&gt;Node102</title>
<path fill="none" stroke="#191970" d="M57.3334,-219.0065C69.4043,-247.8266 96.1611,-302.451 136,-333 141.0383,-336.8634 146.8881,-339.9553 152.9077,-342.4259"/>
<polygon fill="#191970" stroke="#191970" points="60.5441,-217.6099 53.5537,-209.6484 54.0535,-220.2315 60.5441,-217.6099"/>
</g>
<!-- Node103 -->
<g id="node3" class="node">
<title>Node103</title>
<g id="a_node3"><a xlink:href="net_8h.html#a0cde2b3256757536c42c0bd3037847d1" target="_top" xlink:title="AdvertiseLocal">
<polygon fill="#ffffff" stroke="#000000" points="154.5,-304.5 154.5,-323.5 235.5,-323.5 235.5,-304.5 154.5,-304.5"/>
<text text-anchor="middle" x="195" y="-311.5" font-family="Helvetica,sans-Serif" font-size="10.00" fill="#000000">AdvertiseLocal</text>
</a>
</g>
</g>
<!-- Node101&#45;&gt;Node103 -->
<g id="edge2" class="edge">
<title>Node101&#45;&gt;Node103</title>
<path fill="none" stroke="#191970" d="M61.8742,-218.0661C76.7724,-239.3804 104.2523,-274.502 136,-295 141.8763,-298.7941 148.5722,-301.8864 155.2926,-304.3886"/>
<polygon fill="#191970" stroke="#191970" points="64.634,-215.9004 56.1138,-209.603 58.8472,-219.8392 64.634,-215.9004"/>
</g>
<!-- Node104 -->
<g id="node4" class="node">
<title>Node104</title>
<g id="a_node4"><a xlink:href="net_8h.html#a337d6af198a6b0d75f830e56da9b91e9" target="_top" xlink:title="AddLocal">
<polygon fill="#ffffff" stroke="#000000" points="166.5,-266.5 166.5,-285.5 223.5,-285.5 223.5,-266.5 166.5,-266.5"/>
<text text-anchor="middle" x="195" y="-273.5" font-family="Helvetica,sans-Serif" font-size="10.00" fill="#000000">AddLocal</text>
</a>
</g>
</g>
<!-- Node101&#45;&gt;Node104 -->
<g id="edge3" class="edge">
<title>Node101&#45;&gt;Node104</title>
<path fill="none" stroke="#191970" d="M72.8896,-215.1988C89.9022,-226.1563 113.8948,-240.9077 136,-252 146.5754,-257.3067 158.6176,-262.3701 169.0529,-266.4665"/>
<polygon fill="#191970" stroke="#191970" points="74.5026,-212.0725 64.2126,-209.5489 70.683,-217.9385 74.5026,-212.0725"/>
</g>
<!-- Node110 -->
<g id="node10" class="node">
<title>Node110</title>
<g id="a_node10"><a xlink:href="net_8h.html#a040c40f60af5f50a128fc1aac4cb5ebd" target="_top" xlink:title="RemoveLocal">
<polygon fill="#ffffff" stroke="#000000" points="156.5,-190.5 156.5,-209.5 233.5,-209.5 233.5,-190.5 156.5,-190.5"/>
<text text-anchor="middle" x="195" y="-197.5" font-family="Helvetica,sans-Serif" font-size="10.00" fill="#000000">RemoveLocal</text>
</a>
</g>
</g>
<!-- Node101&#45;&gt;Node110 -->
<g id="edge9" class="edge">
<title>Node101&#45;&gt;Node110</title>
<path fill="none" stroke="#191970" d="M110.3556,-200C125.8612,-200 142.1296,-200 156.2141,-200"/>
<polygon fill="#191970" stroke="#191970" points="110.3071,-196.5001 100.307,-200 110.307,-203.5001 110.3071,-196.5001"/>
</g>
<!-- Node115 -->
<g id="node15" class="node">
<title>Node115</title>
<g id="a_node15"><a xlink:href="class_c_connman.html#ac810542ffa683d5dde5e5524b5ce2e4e" target="_top" xlink:title="CConnman::ConnectNode">
<polygon fill="#ffffff" stroke="#000000" points="514.5,-38.5 514.5,-57.5 646.5,-57.5 646.5,-38.5 514.5,-38.5"/>
<text text-anchor="middle" x="580.5" y="-45.5" font-family="Helvetica,sans-Serif" font-size="10.00" fill="#000000">CConnman::ConnectNode</text>
</a>
</g>
</g>
<!-- Node101&#45;&gt;Node115 -->
<g id="edge14" class="edge">
<title>Node101&#45;&gt;Node115</title>
<path fill="none" stroke="#191970" d="M57.077,-180.6468C68.8082,-151.3674 95.1219,-96.1439 136,-67 263.8302,24.1361 468.8702,-17.4653 547.9417,-38.4792"/>
<polygon fill="#191970" stroke="#191970" points="53.7397,-179.5739 53.4148,-190.1637 60.2727,-182.0879 53.7397,-179.5739"/>
</g>
<!-- Node120 -->
<g id="node20" class="node">
<title>Node120</title>
<g id="a_node20"><a xlink:href="class_c_node.html#a331888bc15bb49775451d951735e4b6a" target="_top" xlink:title="May not be called more than once. ">
<polygon fill="#ffffff" stroke="#000000" points="139,-152.5 139,-171.5 251,-171.5 251,-152.5 139,-152.5"/>
<text text-anchor="middle" x="195" y="-159.5" font-family="Helvetica,sans-Serif" font-size="10.00" fill="#000000">CNode::SetAddrLocal</text>
</a>
</g>
</g>
<!-- Node101&#45;&gt;Node120 -->
<g id="edge22" class="edge">
<title>Node101&#45;&gt;Node120</title>
<path fill="none" stroke="#191970" d="M96.4928,-187.8157C116.6237,-182.54 139.8383,-176.4562 158.6735,-171.5201"/>
<polygon fill="#191970" stroke="#191970" points="95.3757,-184.4902 86.5896,-190.411 97.1503,-191.2615 95.3757,-184.4902"/>
</g>
<!-- Node121 -->
<g id="node21" class="node">
<title>Node121</title>
<g id="a_node21"><a xlink:href="class_c_connman.html#afe88b51d85f5b77fd38cd0be1d177891" target="_top" xlink:title="CConnman::AcceptConnection">
<polygon fill="#ffffff" stroke="#000000" points="299.5,-228.5 299.5,-247.5 451.5,-247.5 451.5,-228.5 299.5,-228.5"/>
<text text-anchor="middle" x="375.5" y="-235.5" font-family="Helvetica,sans-Serif" font-size="10.00" fill="#000000">CConnman::AcceptConnection</text>
</a>
</g>
</g>
<!-- Node101&#45;&gt;Node121 -->
<g id="edge23" class="edge">
<title>Node101&#45;&gt;Node121</title>
<path fill="none" stroke="#191970" d="M97.9813,-211.8299C110.3091,-214.5302 123.5946,-217.1467 136,-219 190.3504,-227.1199 252.1928,-231.9144 299.4203,-234.6557"/>
<polygon fill="#191970" stroke="#191970" points="98.4163,-208.3403 87.8916,-209.5569 96.8779,-215.1691 98.4163,-208.3403"/>
</g>
<!-- Node122 -->
<g id="node22" class="node">
<title>Node122</title>
<g id="a_node22"><a xlink:href="class_c_connman.html#ad2f3516addf9e195688437021a8e3182" target="_top" xlink:title="CConnman::BindListenPort">
<polygon fill="#ffffff" stroke="#000000" points="512.5,-114.5 512.5,-133.5 648.5,-133.5 648.5,-114.5 512.5,-114.5"/>
<text text-anchor="middle" x="580.5" y="-121.5" font-family="Helvetica,sans-Serif" font-size="10.00" fill="#000000">CConnman::BindListenPort</text>
</a>
</g>
</g>
<!-- Node101&#45;&gt;Node122 -->
<g id="edge25" class="edge">
<title>Node101&#45;&gt;Node122</title>
<path fill="none" stroke="#191970" d="M68.0878,-183.7012C84.4978,-170.0325 110.0315,-151.4336 136,-143 263.8266,-101.4868 423.2369,-107.6281 512.244,-115.8216"/>
<polygon fill="#191970" stroke="#191970" points="65.6884,-181.1483 60.3841,-190.3198 70.25,-186.4579 65.6884,-181.1483"/>
</g>
<!-- Node125 -->
<g id="node25" class="node">
<title>Node125</title>
<g id="a_node25"><a xlink:href="netbase_8h.html#ac4d702700b01312baccffa6f36703800" target="_top" xlink:title="ConnectSocketDirectly">
<polygon fill="#ffffff" stroke="#000000" points="136,-76.5 136,-95.5 254,-95.5 254,-76.5 136,-76.5"/>
<text text-anchor="middle" x="195" y="-83.5" font-family="Helvetica,sans-Serif" font-size="10.00" fill="#000000">ConnectSocketDirectly</text>
</a>
</g>
</g>
<!-- Node101&#45;&gt;Node125 -->
<g id="edge29" class="edge">
<title>Node101&#45;&gt;Node125</title>
<path fill="none" stroke="#191970" d="M63.2743,-182.1104C78.8164,-162.2197 106.2455,-130.2354 136,-110 144.6867,-104.0924 155.0512,-99.2643 164.6519,-95.528"/>
<polygon fill="#191970" stroke="#191970" points="60.2967,-180.2425 57.0041,-190.3127 65.8579,-184.4937 60.2967,-180.2425"/>
</g>
<!-- Node105 -->
<g id="node5" class="node">
<title>Node105</title>
<g id="a_node5"><a xlink:href="net_8h.html#abda4e8f87772f9a9d9d8f52a93791ffc" target="_top" xlink:title="AddLocal">
<polygon fill="#ffffff" stroke="#000000" points="347,-304.5 347,-323.5 404,-323.5 404,-304.5 347,-304.5"/>
<text text-anchor="middle" x="375.5" y="-311.5" font-family="Helvetica,sans-Serif" font-size="10.00" fill="#000000">AddLocal</text>
</a>
</g>
</g>
<!-- Node104&#45;&gt;Node105 -->
<g id="edge4" class="edge">
<title>Node104&#45;&gt;Node105</title>
<path fill="none" stroke="#191970" d="M233.6216,-284.1309C267.5443,-291.2725 316.1306,-301.5012 346.7348,-307.9442"/>
<polygon fill="#191970" stroke="#191970" points="234.1073,-280.6565 223.6008,-282.0212 232.6652,-287.5063 234.1073,-280.6565"/>
</g>
<!-- Node106 -->
<g id="node6" class="node">
<title>Node106</title>
<g id="a_node6"><a xlink:href="class_c_connman.html#a999ec42f1515f77096556c94c29c6538" target="_top" xlink:title="CConnman::WakeMessageHandler">
<polygon fill="#ffffff" stroke="#000000" points="290,-266.5 290,-285.5 461,-285.5 461,-266.5 290,-266.5"/>
<text text-anchor="middle" x="375.5" y="-273.5" font-family="Helvetica,sans-Serif" font-size="10.00" fill="#000000">CConnman::WakeMessageHandler</text>
</a>
</g>
</g>
<!-- Node104&#45;&gt;Node106 -->
<g id="edge5" class="edge">
<title>Node104&#45;&gt;Node106</title>
<path fill="none" stroke="#191970" d="M233.8677,-276C250.2965,-276 270.1318,-276 289.6885,-276"/>
<polygon fill="#191970" stroke="#191970" points="233.6008,-272.5001 223.6008,-276 233.6007,-279.5001 233.6008,-272.5001"/>
</g>
<!-- Node109 -->
<g id="node9" class="node">
<title>Node109</title>
<g id="a_node9"><a xlink:href="net_8h.html#a8316da05a5f15022dce5d0c2f82001fc" target="_top" xlink:title="Discover">
<polygon fill="#ffffff" stroke="#000000" points="347.5,-342.5 347.5,-361.5 403.5,-361.5 403.5,-342.5 347.5,-342.5"/>
<text text-anchor="middle" x="375.5" y="-349.5" font-family="Helvetica,sans-Serif" font-size="10.00" fill="#000000">Discover</text>
</a>
</g>
</g>
<!-- Node104&#45;&gt;Node109 -->
<g id="edge8" class="edge">
<title>Node104&#45;&gt;Node109</title>
<path fill="none" stroke="#191970" d="M233.2584,-285.2208C240.4434,-287.7988 247.677,-291.0183 254,-295 273.6864,-307.3968 269.7594,-321.5304 290,-333 307.5952,-342.9705 329.9854,-347.7094 347.4392,-349.9614"/>
<polygon fill="#191970" stroke="#191970" points="234.1726,-281.8381 223.5808,-282.0919 232.0191,-288.4986 234.1726,-281.8381"/>
</g>
<!-- Node107 -->
<g id="node7" class="node">
<title>Node107</title>
<g id="a_node7"><a xlink:href="class_c_connman.html#a765597cbfe99c083d8fa3d61bb464e34" target="_top" xlink:title="CConnman::ThreadSocketHandler">
<polygon fill="#ffffff" stroke="#000000" points="497,-228.5 497,-247.5 664,-247.5 664,-228.5 497,-228.5"/>
<text text-anchor="middle" x="580.5" y="-235.5" font-family="Helvetica,sans-Serif" font-size="10.00" fill="#000000">CConnman::ThreadSocketHandler</text>
</a>
</g>
</g>
<!-- Node106&#45;&gt;Node107 -->
<g id="edge6" class="edge">
<title>Node106&#45;&gt;Node107</title>
<path fill="none" stroke="#191970" d="M437.0978,-264.5819C466.4296,-259.1448 501.107,-252.7168 529.0133,-247.5439"/>
<polygon fill="#191970" stroke="#191970" points="436.1601,-261.196 426.9655,-266.46 437.436,-268.0787 436.1601,-261.196"/>
</g>
<!-- Node108 -->
<g id="node8" class="node">
<title>Node108</title>
<g id="a_node8"><a xlink:href="class_c_connman.html#aa4709e5604e0f4369dada0a211493565" target="_top" xlink:title="CConnman::Start">
<polygon fill="#ffffff" stroke="#000000" points="1316,-98.5 1316,-117.5 1409,-117.5 1409,-98.5 1316,-98.5"/>
<text text-anchor="middle" x="1362.5" y="-105.5" font-family="Helvetica,sans-Serif" font-size="10.00" fill="#000000">CConnman::Start</text>
</a>
</g>
</g>
<!-- Node107&#45;&gt;Node108 -->
<g id="edge7" class="edge">
<title>Node107&#45;&gt;Node108</title>
<path fill="none" stroke="#191970" d="M674.2903,-227.2884C809.1343,-211.0672 1065.1991,-177.1959 1280,-131 1297.2987,-127.2797 1316.3416,-122.0483 1331.7692,-117.5145"/>
<polygon fill="#191970" stroke="#191970" points="673.5141,-223.8563 664.001,-228.5202 674.3462,-230.8066 673.5141,-223.8563"/>
</g>
<!-- Node111 -->
<g id="node11" class="node">
<title>Node111</title>
<g id="a_node11"><a xlink:href="class_tor_controller.html#a98c6b822f4a60da7847a974607b95963" target="_top" xlink:title="TorController::~TorController">
<polygon fill="#ffffff" stroke="#000000" points="305,-190.5 305,-209.5 446,-209.5 446,-190.5 305,-190.5"/>
<text text-anchor="middle" x="375.5" y="-197.5" font-family="Helvetica,sans-Serif" font-size="10.00" fill="#000000">TorController::~TorController</text>
</a>
</g>
</g>
<!-- Node110&#45;&gt;Node111 -->
<g id="edge10" class="edge">
<title>Node110&#45;&gt;Node111</title>
<path fill="none" stroke="#191970" d="M243.8038,-200C262.568,-200 284.3855,-200 304.801,-200"/>
<polygon fill="#191970" stroke="#191970" points="243.7218,-196.5001 233.7218,-200 243.7217,-203.5001 243.7218,-196.5001"/>
</g>
<!-- Node112 -->
<g id="node12" class="node">
<title>Node112</title>
<g id="a_node12"><a xlink:href="class_tor_controller.html#a81392f33f0c7e069762668ec3a757075" target="_top" xlink:title="Callback after connection lost or failed connection attempt. ">
<polygon fill="#ffffff" stroke="#000000" points="299.5,-152.5 299.5,-171.5 451.5,-171.5 451.5,-152.5 299.5,-152.5"/>
<text text-anchor="middle" x="375.5" y="-159.5" font-family="Helvetica,sans-Serif" font-size="10.00" fill="#000000">TorController::disconnected_cb</text>
</a>
</g>
</g>
<!-- Node110&#45;&gt;Node112 -->
<g id="edge11" class="edge">
<title>Node110&#45;&gt;Node112</title>
<path fill="none" stroke="#191970" d="M243.6957,-189.7483C270.5963,-184.085 303.7979,-177.0952 330.1479,-171.5478"/>
<polygon fill="#191970" stroke="#191970" points="242.7862,-186.3629 233.7218,-191.848 244.2283,-193.2128 242.7862,-186.3629"/>
</g>
<!-- Node113 -->
<g id="node13" class="node">
<title>Node113</title>
<g id="a_node13"><a xlink:href="class_tor_controller.html#ae5d4304836fce79574ec540c5ada8269" target="_top" xlink:title="Reconnect, after getting disconnected. ">
<polygon fill="#ffffff" stroke="#000000" points="517.5,-152.5 517.5,-171.5 643.5,-171.5 643.5,-152.5 517.5,-152.5"/>
<text text-anchor="middle" x="580.5" y="-159.5" font-family="Helvetica,sans-Serif" font-size="10.00" fill="#000000">TorController::Reconnect</text>
</a>
</g>
</g>
<!-- Node112&#45;&gt;Node113 -->
<g id="edge12" class="edge">
<title>Node112&#45;&gt;Node113</title>
<path fill="none" stroke="#191970" d="M461.7992,-162C480.4248,-162 499.7826,-162 517.3282,-162"/>
<polygon fill="#191970" stroke="#191970" points="461.5431,-158.5001 451.5431,-162 461.5431,-165.5001 461.5431,-158.5001"/>
</g>
<!-- Node114 -->
<g id="node14" class="node">
<title>Node114</title>
<g id="a_node14"><a xlink:href="class_tor_controller.html#a2fa9614b4fa0e24c57f443b3c56f835c" target="_top" xlink:title="Callback for reconnect timer. ">
<polygon fill="#ffffff" stroke="#000000" points="722.5,-152.5 722.5,-171.5 859.5,-171.5 859.5,-152.5 722.5,-152.5"/>
<text text-anchor="middle" x="791" y="-159.5" font-family="Helvetica,sans-Serif" font-size="10.00" fill="#000000">TorController::reconnect_cb</text>
</a>
</g>
</g>
<!-- Node113&#45;&gt;Node114 -->
<g id="edge13" class="edge">
<title>Node113&#45;&gt;Node114</title>
<path fill="none" stroke="#191970" d="M653.7301,-162C676.0138,-162 700.4139,-162 722.3816,-162"/>
<polygon fill="#191970" stroke="#191970" points="653.657,-158.5001 643.6569,-162 653.6569,-165.5001 653.657,-158.5001"/>
</g>
<!-- Node116 -->
<g id="node16" class="node">
<title>Node116</title>
<g id="a_node16"><a xlink:href="class_c_connman.html#a3bd6aed18096f954c24c80b32c876da5" target="_top" xlink:title="CConnman::OpenNetworkConnection">
<polygon fill="#ffffff" stroke="#000000" points="700,-38.5 700,-57.5 882,-57.5 882,-38.5 700,-38.5"/>
<text text-anchor="middle" x="791" y="-45.5" font-family="Helvetica,sans-Serif" font-size="10.00" fill="#000000">CConnman::OpenNetworkConnection</text>
</a>
</g>
</g>
<!-- Node115&#45;&gt;Node116 -->
<g id="edge15" class="edge">
<title>Node115&#45;&gt;Node116</title>
<path fill="none" stroke="#191970" d="M656.5806,-48C670.5924,-48 685.353,-48 699.7573,-48"/>
<polygon fill="#191970" stroke="#191970" points="656.526,-44.5001 646.526,-48 656.5259,-51.5001 656.526,-44.5001"/>
</g>
<!-- Node117 -->
<g id="node17" class="node">
<title>Node117</title>
<g id="a_node17"><a xlink:href="class_c_connman.html#a161f1b41271db1a10cec61a825524b5d" target="_top" xlink:title="CConnman::ProcessOneShot">
<polygon fill="#ffffff" stroke="#000000" points="918,-.5 918,-19.5 1064,-19.5 1064,-.5 918,-.5"/>
<text text-anchor="middle" x="991" y="-7.5" font-family="Helvetica,sans-Serif" font-size="10.00" fill="#000000">CConnman::ProcessOneShot</text>
</a>
</g>
</g>
<!-- Node116&#45;&gt;Node117 -->
<g id="edge16" class="edge">
<title>Node116&#45;&gt;Node117</title>
<path fill="none" stroke="#191970" d="M851.0954,-36.5819C879.7118,-31.1448 913.5434,-24.7168 940.7691,-19.5439"/>
<polygon fill="#191970" stroke="#191970" points="850.3812,-33.1549 841.2103,-38.46 851.6879,-40.0318 850.3812,-33.1549"/>
</g>
<!-- Node118 -->
<g id="node18" class="node">
<title>Node118</title>
<g id="a_node18"><a xlink:href="class_c_connman.html#ac4c8cf5142f88565e789f3b173d89b3e" target="_top" xlink:title="CConnman::ThreadOpenConnections">
<polygon fill="#ffffff" stroke="#000000" points="1100,-32.5 1100,-51.5 1280,-51.5 1280,-32.5 1100,-32.5"/>
<text text-anchor="middle" x="1190" y="-39.5" font-family="Helvetica,sans-Serif" font-size="10.00" fill="#000000">CConnman::ThreadOpenConnections</text>
</a>
</g>
</g>
<!-- Node116&#45;&gt;Node118 -->
<g id="edge19" class="edge">
<title>Node116&#45;&gt;Node118</title>
<path fill="none" stroke="#191970" d="M892.1382,-46.4791C956.0644,-45.5178 1037.9619,-44.2863 1099.6969,-43.3579"/>
<polygon fill="#191970" stroke="#191970" points="891.9847,-42.9809 882.0385,-46.631 892.0901,-49.9801 891.9847,-42.9809"/>
</g>
<!-- Node119 -->
<g id="node19" class="node">
<title>Node119</title>
<g id="a_node19"><a xlink:href="class_c_connman.html#a0b787caf95e52a346a2b31a580d60a62" target="_top" xlink:title="CConnman::ThreadOpenAdded\lConnections">
<polygon fill="#ffffff" stroke="#000000" points="1113.5,-71 1113.5,-101 1266.5,-101 1266.5,-71 1113.5,-71"/>
<text text-anchor="start" x="1121.5" y="-89" font-family="Helvetica,sans-Serif" font-size="10.00" fill="#000000">CConnman::ThreadOpenAdded</text>
<text text-anchor="middle" x="1190" y="-78" font-family="Helvetica,sans-Serif" font-size="10.00" fill="#000000">Connections</text>
</a>
</g>
</g>
<!-- Node116&#45;&gt;Node119 -->
<g id="edge20" class="edge">
<title>Node116&#45;&gt;Node119</title>
<path fill="none" stroke="#191970" d="M892.0338,-57.6223C960.8436,-64.1756 1050.5121,-72.7154 1113.4377,-78.7084"/>
<polygon fill="#191970" stroke="#191970" points="892.3254,-54.1343 882.0385,-56.6703 891.6616,-61.1028 892.3254,-54.1343"/>
</g>
<!-- Node117&#45;&gt;Node118 -->
<g id="edge17" class="edge">
<title>Node117&#45;&gt;Node118</title>
<path fill="none" stroke="#191970" d="M1060.1967,-21.1271C1083.1807,-24.823 1108.5496,-28.9024 1130.7166,-32.467"/>
<polygon fill="#191970" stroke="#191970" points="1060.5966,-17.6465 1050.1678,-19.5144 1059.4852,-24.5578 1060.5966,-17.6465"/>
</g>
<!-- Node118&#45;&gt;Node108 -->
<g id="edge18" class="edge">
<title>Node118&#45;&gt;Node108</title>
<path fill="none" stroke="#191970" d="M1258.1818,-54.0391C1265.6412,-56.0496 1273.0452,-58.3587 1280,-61 1305.7352,-70.7735 1333.002,-87.7966 1348.8506,-98.4517"/>
<polygon fill="#191970" stroke="#191970" points="1258.9293,-50.6181 1248.3769,-51.5654 1257.2169,-57.4054 1258.9293,-50.6181"/>
</g>
<!-- Node119&#45;&gt;Node108 -->
<g id="edge21" class="edge">
<title>Node119&#45;&gt;Node108</title>
<path fill="none" stroke="#191970" d="M1276.9033,-97.0833C1290.3137,-98.7936 1303.7031,-100.5013 1315.7746,-102.0408"/>
<polygon fill="#191970" stroke="#191970" points="1277.0281,-93.571 1266.6656,-95.7776 1276.1424,-100.5147 1277.0281,-93.571"/>
</g>
<!-- Node121&#45;&gt;Node107 -->
<g id="edge24" class="edge">
<title>Node121&#45;&gt;Node107</title>
<path fill="none" stroke="#191970" d="M461.7175,-238C473.398,-238 485.368,-238 496.9997,-238"/>
<polygon fill="#191970" stroke="#191970" points="461.5431,-234.5001 451.5431,-238 461.5431,-241.5001 461.5431,-234.5001"/>
</g>
<!-- Node123 -->
<g id="node23" class="node">
<title>Node123</title>
<g id="a_node23"><a xlink:href="class_c_connman.html#aa680bfe4844faa7eec359d9f2c6cab89" target="_top" xlink:title="CConnman::Bind">
<polygon fill="#ffffff" stroke="#000000" points="745,-114.5 745,-133.5 837,-133.5 837,-114.5 745,-114.5"/>
<text text-anchor="middle" x="791" y="-121.5" font-family="Helvetica,sans-Serif" font-size="10.00" fill="#000000">CConnman::Bind</text>
</a>
</g>
</g>
<!-- Node122&#45;&gt;Node123 -->
<g id="edge26" class="edge">
<title>Node122&#45;&gt;Node123</title>
<path fill="none" stroke="#191970" d="M658.6644,-124C687.6432,-124 719.5613,-124 744.7896,-124"/>
<polygon fill="#191970" stroke="#191970" points="658.5527,-120.5001 648.5526,-124 658.5526,-127.5001 658.5527,-120.5001"/>
</g>
<!-- Node124 -->
<g id="node24" class="node">
<title>Node124</title>
<g id="a_node24"><a xlink:href="class_c_connman.html#ada57a401d7b9c6ee0c304ddd195f4d1e" target="_top" xlink:title="CConnman::InitBinds">
<polygon fill="#ffffff" stroke="#000000" points="936,-117.5 936,-136.5 1046,-136.5 1046,-117.5 936,-117.5"/>
<text text-anchor="middle" x="991" y="-124.5" font-family="Helvetica,sans-Serif" font-size="10.00" fill="#000000">CConnman::InitBinds</text>
</a>
</g>
</g>
<!-- Node123&#45;&gt;Node124 -->
<g id="edge27" class="edge">
<title>Node123&#45;&gt;Node124</title>
<path fill="none" stroke="#191970" d="M847.4502,-124.8468C875.1321,-125.262 908.3473,-125.7602 935.8523,-126.1728"/>
<polygon fill="#191970" stroke="#191970" points="847.1866,-121.3425 837.1352,-124.692 847.0815,-128.3417 847.1866,-121.3425"/>
</g>
<!-- Node124&#45;&gt;Node108 -->
<g id="edge28" class="edge">
<title>Node124&#45;&gt;Node108</title>
<path fill="none" stroke="#191970" d="M1056.3974,-123.6553C1130.7493,-119.8527 1250.2791,-113.7394 1315.8064,-110.3881"/>
<polygon fill="#191970" stroke="#191970" points="1056.0243,-120.1697 1046.2162,-124.176 1056.3819,-127.1606 1056.0243,-120.1697"/>
</g>
<!-- Node125&#45;&gt;Node115 -->
<g id="edge30" class="edge">
<title>Node125&#45;&gt;Node115</title>
<path fill="none" stroke="#191970" d="M264.1437,-82.7016C317.9219,-79.74 394.3482,-74.6646 461,-67 482.7044,-64.5041 506.4961,-60.9004 527.0972,-57.5009"/>
<polygon fill="#191970" stroke="#191970" points="263.8331,-79.2131 254.0367,-83.248 264.2111,-86.2029 263.8331,-79.2131"/>
</g>
<!-- Node126 -->
<g id="node26" class="node">
<title>Node126</title>
<g id="a_node26"><a xlink:href="netbase_8h.html#ab0050e9d599c152605bab7ef97566d9e" target="_top" xlink:title="ConnectThroughProxy">
<polygon fill="#ffffff" stroke="#000000" points="318.5,-38.5 318.5,-57.5 432.5,-57.5 432.5,-38.5 318.5,-38.5"/>
<text text-anchor="middle" x="375.5" y="-45.5" font-family="Helvetica,sans-Serif" font-size="10.00" fill="#000000">ConnectThroughProxy</text>
</a>
</g>
</g>
<!-- Node125&#45;&gt;Node126 -->
<g id="edge31" class="edge">
<title>Node125&#45;&gt;Node126</title>
<path fill="none" stroke="#191970" d="M250.4847,-74.319C276.082,-68.9301 306.0838,-62.6139 330.2798,-57.5201"/>
<polygon fill="#191970" stroke="#191970" points="249.6122,-70.9259 240.5478,-76.411 251.0543,-77.7757 249.6122,-70.9259"/>
</g>
<!-- Node126&#45;&gt;Node115 -->
<g id="edge32" class="edge">
<title>Node126&#45;&gt;Node115</title>
<path fill="none" stroke="#191970" d="M442.6221,-48C465.6296,-48 491.3476,-48 514.2829,-48"/>
<polygon fill="#191970" stroke="#191970" points="442.604,-44.5001 432.6039,-48 442.6039,-51.5001 442.604,-44.5001"/>
</g>
</g>
</svg>
