<?xml version="1.0" encoding="UTF-8" standalone="no"?>
<!DOCTYPE svg PUBLIC "-//W3C//DTD SVG 1.1//EN"
 "http://www.w3.org/Graphics/SVG/1.1/DTD/svg11.dtd">
<!-- Generated by graphviz version 2.40.1 (20161225.0304)
 -->
<!-- Title: ReceiveRequestDialog::on_btnCopyURI_clicked Pages: 1 -->
<svg width="602pt" height="142pt"
 viewBox="0.00 0.00 602.00 142.00" xmlns="http://www.w3.org/2000/svg" xmlns:xlink="http://www.w3.org/1999/xlink">
<g id="graph0" class="graph" transform="scale(1 1) rotate(0) translate(4 138)">
<title>ReceiveRequestDialog::on_btnCopyURI_clicked</title>
<polygon fill="#ffffff" stroke="transparent" points="-4,4 -4,-138 598,-138 598,4 -4,4"/>
<!-- Node8 -->
<g id="node1" class="node">
<title>Node8</title>
<polygon fill="#bfbfbf" stroke="#000000" points="0,-71 0,-101 129,-101 129,-71 0,-71"/>
<text text-anchor="start" x="8" y="-89" font-family="Helvetica,sans-Serif" font-size="10.00" fill="#000000">ReceiveRequestDialog</text>
<text text-anchor="middle" x="64.5" y="-78" font-family="Helvetica,sans-Serif" font-size="10.00" fill="#000000">::on_btnCopyURI_clicked</text>
</g>
<!-- Node9 -->
<g id="node2" class="node">
<title>Node9</title>
<g id="a_node2"><a xlink:href="namespace_g_u_i_util.html#aef655b19f129179ca32f11a4d0da1a07" target="_top" xlink:title="GUIUtil::setClipboard">
<polygon fill="#ffffff" stroke="#000000" points="175,-95.5 175,-114.5 285,-114.5 285,-95.5 175,-95.5"/>
<text text-anchor="middle" x="230" y="-102.5" font-family="Helvetica,sans-Serif" font-size="10.00" fill="#000000">GUIUtil::setClipboard</text>
</a>
</g>
</g>
<!-- Node8&#45;&gt;Node9 -->
<g id="edge1" class="edge">
<title>Node8&#45;&gt;Node9</title>
<path fill="none" stroke="#191970" d="M129.435,-93.4548C141.0618,-94.7896 153.1812,-96.1809 164.815,-97.5165"/>
<polygon fill="#191970" stroke="#191970" points="164.5551,-101.0096 174.8891,-98.6731 165.3536,-94.0553 164.5551,-101.0096"/>
</g>
<!-- Node10 -->
<g id="node3" class="node">
<title>Node10</title>
<g id="a_node3"><a xlink:href="namespace_g_u_i_util.html#a516c89e2e347c7fd513a3af5ba13578a" target="_top" xlink:title="GUIUtil::formatRavenURI">
<polygon fill="#ffffff" stroke="#000000" points="165,-57.5 165,-76.5 295,-76.5 295,-57.5 165,-57.5"/>
<text text-anchor="middle" x="230" y="-64.5" font-family="Helvetica,sans-Serif" font-size="10.00" fill="#000000">GUIUtil::formatRavenURI</text>
</a>
</g>
</g>
<!-- Node8&#45;&gt;Node10 -->
<g id="edge2" class="edge">
<title>Node8&#45;&gt;Node10</title>
<path fill="none" stroke="#191970" d="M129.435,-78.5452C137.8314,-77.5813 146.4847,-76.5879 155.0266,-75.6072"/>
<polygon fill="#191970" stroke="#191970" points="155.4451,-79.0823 164.9806,-74.4645 154.6467,-72.1279 155.4451,-79.0823"/>
</g>
<!-- Node11 -->
<g id="node4" class="node">
<title>Node11</title>
<g id="a_node4"><a xlink:href="class_raven_units.html#ad41cc41215cd361cdc458aec1cd05786" target="_top" xlink:title="Format as string. ">
<polygon fill="#ffffff" stroke="#000000" points="331,-57.5 331,-76.5 433,-76.5 433,-57.5 331,-57.5"/>
<text text-anchor="middle" x="382" y="-64.5" font-family="Helvetica,sans-Serif" font-size="10.00" fill="#000000">RavenUnits::format</text>
</a>
</g>
</g>
<!-- Node10&#45;&gt;Node11 -->
<g id="edge3" class="edge">
<title>Node10&#45;&gt;Node11</title>
<path fill="none" stroke="#191970" d="M295.3438,-67C303.8101,-67 312.4563,-67 320.851,-67"/>
<polygon fill="#191970" stroke="#191970" points="320.9369,-70.5001 330.9369,-67 320.9369,-63.5001 320.9369,-70.5001"/>
</g>
<!-- Node12 -->
<g id="node5" class="node">
<title>Node12</title>
<g id="a_node5"><a xlink:href="class_raven_units.html#a559a7cae18b466371401f02d6407c9c5" target="_top" xlink:title="Is unit ID valid? ">
<polygon fill="#ffffff" stroke="#000000" points="484,-114.5 484,-133.5 579,-133.5 579,-114.5 484,-114.5"/>
<text text-anchor="middle" x="531.5" y="-121.5" font-family="Helvetica,sans-Serif" font-size="10.00" fill="#000000">RavenUnits::valid</text>
</a>
</g>
</g>
<!-- Node11&#45;&gt;Node12 -->
<g id="edge4" class="edge">
<title>Node11&#45;&gt;Node12</title>
<path fill="none" stroke="#191970" d="M402.1175,-76.5862C419.5776,-84.7122 445.6506,-96.385 469,-105 475.0049,-107.2156 481.3998,-109.3777 487.7208,-111.4023"/>
<polygon fill="#191970" stroke="#191970" points="486.9379,-114.8242 497.5264,-114.4584 489.0208,-108.1413 486.9379,-114.8242"/>
</g>
<!-- Node13 -->
<g id="node6" class="node">
<title>Node13</title>
<g id="a_node6"><a xlink:href="class_raven_units.html#aea6fad621ac4f75381406d5ca415f78e" target="_top" xlink:title="Number of Satoshis (1e&#45;8) per unit for assets. ">
<polygon fill="#ffffff" stroke="#000000" points="469,-76.5 469,-95.5 594,-95.5 594,-76.5 469,-76.5"/>
<text text-anchor="middle" x="531.5" y="-83.5" font-family="Helvetica,sans-Serif" font-size="10.00" fill="#000000">RavenUnits::factorAsset</text>
</a>
</g>
</g>
<!-- Node11&#45;&gt;Node13 -->
<g id="edge5" class="edge">
<title>Node11&#45;&gt;Node13</title>
<path fill="none" stroke="#191970" d="M433.0313,-73.4856C441.2997,-74.5364 450.0002,-75.6422 458.6662,-76.7435"/>
<polygon fill="#191970" stroke="#191970" points="458.4342,-80.2421 468.7957,-78.0309 459.3168,-73.298 458.4342,-80.2421"/>
</g>
<!-- Node14 -->
<g id="node7" class="node">
<title>Node14</title>
<g id="a_node7"><a xlink:href="class_raven_units.html#a56c9ff217422454061562a0612bf61ec" target="_top" xlink:title="Number of Satoshis (1e&#45;8) per unit. ">
<polygon fill="#ffffff" stroke="#000000" points="482,-38.5 482,-57.5 581,-57.5 581,-38.5 482,-38.5"/>
<text text-anchor="middle" x="531.5" y="-45.5" font-family="Helvetica,sans-Serif" font-size="10.00" fill="#000000">RavenUnits::factor</text>
</a>
</g>
</g>
<!-- Node11&#45;&gt;Node14 -->
<g id="edge6" class="edge">
<title>Node11&#45;&gt;Node14</title>
<path fill="none" stroke="#191970" d="M433.0313,-60.5144C445.5126,-58.9282 458.9782,-57.2168 471.8241,-55.5842"/>
<polygon fill="#191970" stroke="#191970" points="472.4839,-59.0286 481.9628,-54.2957 471.6013,-52.0845 472.4839,-59.0286"/>
</g>
<!-- Node15 -->
<g id="node8" class="node">
<title>Node15</title>
<g id="a_node8"><a xlink:href="class_raven_units.html#ab3396a763c2ca8042f331f32904b0580" target="_top" xlink:title="Number of decimals left. ">
<polygon fill="#ffffff" stroke="#000000" points="475,-.5 475,-19.5 588,-19.5 588,-.5 475,-.5"/>
<text text-anchor="middle" x="531.5" y="-7.5" font-family="Helvetica,sans-Serif" font-size="10.00" fill="#000000">RavenUnits::decimals</text>
</a>
</g>
</g>
<!-- Node11&#45;&gt;Node15 -->
<g id="edge7" class="edge">
<title>Node11&#45;&gt;Node15</title>
<path fill="none" stroke="#191970" d="M402.1175,-57.4138C419.5776,-49.2878 445.6506,-37.615 469,-29 475.0049,-26.7844 481.3998,-24.6223 487.7208,-22.5977"/>
<polygon fill="#191970" stroke="#191970" points="489.0208,-25.8587 497.5264,-19.5416 486.9379,-19.1758 489.0208,-25.8587"/>
</g>
</g>
</svg>
