<?xml version="1.0" encoding="UTF-8" standalone="no"?>
<!DOCTYPE svg PUBLIC "-//W3C//DTD SVG 1.1//EN"
 "http://www.w3.org/Graphics/SVG/1.1/DTD/svg11.dtd">
<!-- Generated by graphviz version 2.40.1 (20161225.0304)
 -->
<!-- Title: CNetAddr::ToStringIP Pages: 1 -->
<svg width="1892pt" height="676pt"
 viewBox="0.00 0.00 1892.00 675.81" xmlns="http://www.w3.org/2000/svg" xmlns:xlink="http://www.w3.org/1999/xlink">
<g id="graph0" class="graph" transform="scale(1 1) rotate(0) translate(4 671.8066)">
<title>CNetAddr::ToStringIP</title>
<polygon fill="#ffffff" stroke="transparent" points="-4,4 -4,-671.8066 1888,-671.8066 1888,4 -4,4"/>
<!-- Node742 -->
<g id="node1" class="node">
<title>Node742</title>
<polygon fill="#bfbfbf" stroke="#000000" points="0,-236 0,-255 113,-255 113,-236 0,-236"/>
<text text-anchor="middle" x="56.5" y="-243" font-family="Helvetica,sans-Serif" font-size="10.00" fill="#000000">CNetAddr::ToStringIP</text>
</g>
<!-- Node743 -->
<g id="node2" class="node">
<title>Node743</title>
<g id="a_node2"><a xlink:href="class_c_connman.html#ac810542ffa683d5dde5e5524b5ce2e4e" target="_top" xlink:title="CConnman::ConnectNode">
<polygon fill="#ffffff" stroke="#000000" points="951.5,-578 951.5,-597 1083.5,-597 1083.5,-578 951.5,-578"/>
<text text-anchor="middle" x="1017.5" y="-585" font-family="Helvetica,sans-Serif" font-size="10.00" fill="#000000">CConnman::ConnectNode</text>
</a>
</g>
</g>
<!-- Node742&#45;&gt;Node743 -->
<g id="edge1" class="edge">
<title>Node742&#45;&gt;Node743</title>
<path fill="none" stroke="#191970" d="M62.4095,-264.5597C89.0717,-346.3531 206.2953,-663.5 421,-663.5 421,-663.5 421,-663.5 613,-663.5 739.8661,-663.5 775.4207,-680.2007 898,-647.5 938.5989,-636.6694 981.5257,-611.1603 1003.1934,-597.1432"/>
<polygon fill="#191970" stroke="#191970" points="65.7387,-263.4793 59.3653,-255.0159 59.0697,-265.6066 65.7387,-263.4793"/>
</g>
<!-- Node749 -->
<g id="node8" class="node">
<title>Node749</title>
<g id="a_node8"><a xlink:href="class_c_net_addr.html#a474ea3874554fe3b79f607fdef97c243" target="_top" xlink:title="CNetAddr::ToString">
<polygon fill="#ffffff" stroke="#000000" points="176.5,-236 176.5,-255 279.5,-255 279.5,-236 176.5,-236"/>
<text text-anchor="middle" x="228" y="-243" font-family="Helvetica,sans-Serif" font-size="10.00" fill="#000000">CNetAddr::ToString</text>
</a>
</g>
</g>
<!-- Node742&#45;&gt;Node749 -->
<g id="edge9" class="edge">
<title>Node742&#45;&gt;Node749</title>
<path fill="none" stroke="#191970" d="M123.3445,-245.5C140.952,-245.5 159.6787,-245.5 176.3509,-245.5"/>
<polygon fill="#191970" stroke="#191970" points="123.1308,-242.0001 113.1308,-245.5 123.1308,-249.0001 123.1308,-242.0001"/>
</g>
<!-- Node755 -->
<g id="node14" class="node">
<title>Node755</title>
<g id="a_node14"><a xlink:href="class_c_service.html#a224204c838b12eeb49ca7eabe6f75004" target="_top" xlink:title="CService::ToStringIPPort">
<polygon fill="#ffffff" stroke="#000000" points="164,-274 164,-293 292,-293 292,-274 164,-274"/>
<text text-anchor="middle" x="228" y="-281" font-family="Helvetica,sans-Serif" font-size="10.00" fill="#000000">CService::ToStringIPPort</text>
</a>
</g>
</g>
<!-- Node742&#45;&gt;Node755 -->
<g id="edge16" class="edge">
<title>Node742&#45;&gt;Node755</title>
<path fill="none" stroke="#191970" d="M109.5412,-257.2526C133.7913,-262.6258 162.1467,-268.9086 185.0345,-273.9799"/>
<polygon fill="#191970" stroke="#191970" points="110.2971,-253.8352 99.7767,-255.089 108.7827,-260.6695 110.2971,-253.8352"/>
</g>
<!-- Node773 -->
<g id="node32" class="node">
<title>Node773</title>
<g id="a_node32"><a xlink:href="class_options_dialog.html#a44ffc21aae73b251333b75907aa8ff8c" target="_top" xlink:title="OptionsDialog::updateDefault\lProxyNets">
<polygon fill="#ffffff" stroke="#000000" points="155.5,-148.5 155.5,-178.5 300.5,-178.5 300.5,-148.5 155.5,-148.5"/>
<text text-anchor="start" x="163.5" y="-166.5" font-family="Helvetica,sans-Serif" font-size="10.00" fill="#000000">OptionsDialog::updateDefault</text>
<text text-anchor="middle" x="228" y="-155.5" font-family="Helvetica,sans-Serif" font-size="10.00" fill="#000000">ProxyNets</text>
</a>
</g>
</g>
<!-- Node742&#45;&gt;Node773 -->
<g id="edge42" class="edge">
<title>Node742&#45;&gt;Node773</title>
<path fill="none" stroke="#191970" d="M85.8545,-231.4646C116.6606,-216.7352 164.9148,-193.6632 196.5021,-178.5602"/>
<polygon fill="#191970" stroke="#191970" points="84.0209,-228.4618 76.5089,-235.9331 87.0405,-234.777 84.0209,-228.4618"/>
</g>
<!-- Node779 -->
<g id="node38" class="node">
<title>Node779</title>
<g id="a_node38"><a xlink:href="class_options_model.html#a0fa582a801df3753c2c50840c40bb350" target="_top" xlink:title="OptionsModel::getProxySettings">
<polygon fill="#ffffff" stroke="#000000" points="149,-72 149,-91 307,-91 307,-72 149,-72"/>
<text text-anchor="middle" x="228" y="-79" font-family="Helvetica,sans-Serif" font-size="10.00" fill="#000000">OptionsModel::getProxySettings</text>
</a>
</g>
</g>
<!-- Node742&#45;&gt;Node779 -->
<g id="edge48" class="edge">
<title>Node742&#45;&gt;Node779</title>
<path fill="none" stroke="#191970" d="M70.0349,-227.6991C87.1685,-205.7353 118.1808,-167.8278 149,-139.5 169.6695,-120.5015 196.5129,-101.8988 212.9852,-91.0741"/>
<polygon fill="#191970" stroke="#191970" points="67.1196,-225.748 63.7802,-235.8028 72.661,-230.025 67.1196,-225.748"/>
</g>
<!-- Node744 -->
<g id="node3" class="node">
<title>Node744</title>
<g id="a_node3"><a xlink:href="class_c_connman.html#a3bd6aed18096f954c24c80b32c876da5" target="_top" xlink:title="CConnman::OpenNetworkConnection">
<polygon fill="#ffffff" stroke="#000000" points="1137,-505 1137,-524 1319,-524 1319,-505 1137,-505"/>
<text text-anchor="middle" x="1228" y="-512" font-family="Helvetica,sans-Serif" font-size="10.00" fill="#000000">CConnman::OpenNetworkConnection</text>
</a>
</g>
</g>
<!-- Node743&#45;&gt;Node744 -->
<g id="edge2" class="edge">
<title>Node743&#45;&gt;Node744</title>
<path fill="none" stroke="#191970" d="M1054.5424,-574.654C1096.2699,-560.1831 1163.1225,-536.9991 1200.474,-524.0458"/>
<polygon fill="#191970" stroke="#191970" points="1053.3204,-571.3732 1045.0192,-577.9565 1055.614,-577.9868 1053.3204,-571.3732"/>
</g>
<!-- Node745 -->
<g id="node4" class="node">
<title>Node745</title>
<g id="a_node4"><a xlink:href="class_c_connman.html#a161f1b41271db1a10cec61a825524b5d" target="_top" xlink:title="CConnman::ProcessOneShot">
<polygon fill="#ffffff" stroke="#000000" points="1355,-473 1355,-492 1501,-492 1501,-473 1355,-473"/>
<text text-anchor="middle" x="1428" y="-480" font-family="Helvetica,sans-Serif" font-size="10.00" fill="#000000">CConnman::ProcessOneShot</text>
</a>
</g>
</g>
<!-- Node744&#45;&gt;Node745 -->
<g id="edge3" class="edge">
<title>Node744&#45;&gt;Node745</title>
<path fill="none" stroke="#191970" d="M1297.5444,-503.3729C1320.6439,-499.677 1346.1403,-495.5976 1368.4187,-492.033"/>
<polygon fill="#191970" stroke="#191970" points="1296.7865,-499.9496 1287.4651,-504.9856 1297.8925,-506.8616 1296.7865,-499.9496"/>
</g>
<!-- Node746 -->
<g id="node5" class="node">
<title>Node746</title>
<g id="a_node5"><a xlink:href="class_c_connman.html#ac4c8cf5142f88565e789f3b173d89b3e" target="_top" xlink:title="CConnman::ThreadOpenConnections">
<polygon fill="#ffffff" stroke="#000000" points="1537,-476 1537,-495 1717,-495 1717,-476 1537,-476"/>
<text text-anchor="middle" x="1627" y="-483" font-family="Helvetica,sans-Serif" font-size="10.00" fill="#000000">CConnman::ThreadOpenConnections</text>
</a>
</g>
</g>
<!-- Node744&#45;&gt;Node746 -->
<g id="edge6" class="edge">
<title>Node744&#45;&gt;Node746</title>
<path fill="none" stroke="#191970" d="M1329.2528,-511.5777C1380.745,-509.6099 1444.2756,-506.4444 1501,-501.5 1520.1116,-499.8341 1540.7855,-497.4526 1559.7526,-495.0343"/>
<polygon fill="#191970" stroke="#191970" points="1328.9831,-508.0853 1319.1205,-511.9555 1329.244,-515.0804 1328.9831,-508.0853"/>
</g>
<!-- Node748 -->
<g id="node7" class="node">
<title>Node748</title>
<g id="a_node7"><a xlink:href="class_c_connman.html#a0b787caf95e52a346a2b31a580d60a62" target="_top" xlink:title="CConnman::ThreadOpenAdded\lConnections">
<polygon fill="#ffffff" stroke="#000000" points="1550.5,-426.5 1550.5,-456.5 1703.5,-456.5 1703.5,-426.5 1550.5,-426.5"/>
<text text-anchor="start" x="1558.5" y="-444.5" font-family="Helvetica,sans-Serif" font-size="10.00" fill="#000000">CConnman::ThreadOpenAdded</text>
<text text-anchor="middle" x="1627" y="-433.5" font-family="Helvetica,sans-Serif" font-size="10.00" fill="#000000">Connections</text>
</a>
</g>
</g>
<!-- Node744&#45;&gt;Node748 -->
<g id="edge7" class="edge">
<title>Node744&#45;&gt;Node748</title>
<path fill="none" stroke="#191970" d="M1294.3169,-502.1245C1302.8311,-499.4842 1311.2664,-496.3091 1319,-492.5 1337.4312,-483.4218 1335.9155,-471.1096 1355,-463.5 1417.4901,-438.5832 1494.3437,-434.5395 1550.3995,-435.8792"/>
<polygon fill="#191970" stroke="#191970" points="1293.3502,-498.7606 1284.7038,-504.8836 1295.2813,-505.489 1293.3502,-498.7606"/>
</g>
<!-- Node745&#45;&gt;Node746 -->
<g id="edge4" class="edge">
<title>Node745&#45;&gt;Node746</title>
<path fill="none" stroke="#191970" d="M1511.3577,-483.7566C1519.7192,-483.8827 1528.237,-484.0111 1536.6663,-484.1382"/>
<polygon fill="#191970" stroke="#191970" points="1511.3041,-480.2555 1501.2525,-483.6043 1511.1985,-487.2547 1511.3041,-480.2555"/>
</g>
<!-- Node747 -->
<g id="node6" class="node">
<title>Node747</title>
<g id="a_node6"><a xlink:href="class_c_connman.html#aa4709e5604e0f4369dada0a211493565" target="_top" xlink:title="CConnman::Start">
<polygon fill="#ffffff" stroke="#000000" points="1772,-410 1772,-429 1865,-429 1865,-410 1772,-410"/>
<text text-anchor="middle" x="1818.5" y="-417" font-family="Helvetica,sans-Serif" font-size="10.00" fill="#000000">CConnman::Start</text>
</a>
</g>
</g>
<!-- Node746&#45;&gt;Node747 -->
<g id="edge5" class="edge">
<title>Node746&#45;&gt;Node747</title>
<path fill="none" stroke="#191970" d="M1691.7828,-473.6635C1700.3438,-471.5645 1708.9398,-469.1787 1717,-466.5 1747.5905,-456.3336 1781.1868,-439.5896 1801.0283,-429.073"/>
<polygon fill="#191970" stroke="#191970" points="1690.7265,-470.3159 1681.783,-475.9961 1692.3167,-477.1329 1690.7265,-470.3159"/>
</g>
<!-- Node748&#45;&gt;Node747 -->
<g id="edge8" class="edge">
<title>Node748&#45;&gt;Node747</title>
<path fill="none" stroke="#191970" d="M1713.6203,-431.5488C1733.6899,-429.2432 1754.2994,-426.8755 1771.8786,-424.856"/>
<polygon fill="#191970" stroke="#191970" points="1713.0466,-428.0916 1703.5115,-432.7102 1713.8456,-435.0459 1713.0466,-428.0916"/>
</g>
<!-- Node750 -->
<g id="node9" class="node">
<title>Node750</title>
<g id="a_node9"><a xlink:href="class_c_addr_man.html#a03fcc7109b5f014760dc50a81f68c5ec" target="_top" xlink:title="Add a single address. ">
<polygon fill="#ffffff" stroke="#000000" points="378,-274 378,-293 464,-293 464,-274 378,-274"/>
<text text-anchor="middle" x="421" y="-281" font-family="Helvetica,sans-Serif" font-size="10.00" fill="#000000">CAddrMan::Add</text>
</a>
</g>
</g>
<!-- Node749&#45;&gt;Node750 -->
<g id="edge10" class="edge">
<title>Node749&#45;&gt;Node750</title>
<path fill="none" stroke="#191970" d="M286.8345,-257.084C316.1937,-262.8646 351.0703,-269.7315 377.9048,-275.0149"/>
<polygon fill="#191970" stroke="#191970" points="287.1898,-253.5868 276.702,-255.089 285.8375,-260.455 287.1898,-253.5868"/>
</g>
<!-- Node752 -->
<g id="node11" class="node">
<title>Node752</title>
<g id="a_node11"><a xlink:href="class_c_connman.html#a999ec42f1515f77096556c94c29c6538" target="_top" xlink:title="CConnman::WakeMessageHandler">
<polygon fill="#ffffff" stroke="#000000" points="727,-236 727,-255 898,-255 898,-236 727,-236"/>
<text text-anchor="middle" x="812.5" y="-243" font-family="Helvetica,sans-Serif" font-size="10.00" fill="#000000">CConnman::WakeMessageHandler</text>
</a>
</g>
</g>
<!-- Node749&#45;&gt;Node752 -->
<g id="edge12" class="edge">
<title>Node749&#45;&gt;Node752</title>
<path fill="none" stroke="#191970" d="M289.6338,-236.6015C306.8662,-234.4939 325.6305,-232.5534 343,-231.5 497.383,-222.1373 536.5877,-222.6332 691,-231.5 707.5348,-232.4495 725.273,-234.1201 741.9464,-235.9842"/>
<polygon fill="#191970" stroke="#191970" points="289.17,-233.1321 279.6867,-237.8563 290.0462,-240.0771 289.17,-233.1321"/>
</g>
<!-- Node754 -->
<g id="node13" class="node">
<title>Node754</title>
<g id="a_node13"><a xlink:href="net_8h.html#a8316da05a5f15022dce5d0c2f82001fc" target="_top" xlink:title="Discover">
<polygon fill="#ffffff" stroke="#000000" points="784.5,-274 784.5,-293 840.5,-293 840.5,-274 784.5,-274"/>
<text text-anchor="middle" x="812.5" y="-281" font-family="Helvetica,sans-Serif" font-size="10.00" fill="#000000">Discover</text>
</a>
</g>
</g>
<!-- Node749&#45;&gt;Node754 -->
<g id="edge15" class="edge">
<title>Node749&#45;&gt;Node754</title>
<path fill="none" stroke="#191970" d="M289.693,-245.7973C378.5833,-246.7324 547.7544,-250.407 691,-264.5 723.0838,-267.6565 759.5905,-273.6997 784.14,-278.126"/>
<polygon fill="#191970" stroke="#191970" points="289.5521,-242.2958 279.5186,-245.6986 289.4841,-249.2955 289.5521,-242.2958"/>
</g>
<!-- Node751 -->
<g id="node10" class="node">
<title>Node751</title>
<g id="a_node10"><a xlink:href="class_c_connman.html#a47d9024273a8c421fa7de641c30e9081" target="_top" xlink:title="CConnman::AddNewAddresses">
<polygon fill="#ffffff" stroke="#000000" points="535,-274 535,-293 691,-293 691,-274 535,-274"/>
<text text-anchor="middle" x="613" y="-281" font-family="Helvetica,sans-Serif" font-size="10.00" fill="#000000">CConnman::AddNewAddresses</text>
</a>
</g>
</g>
<!-- Node750&#45;&gt;Node751 -->
<g id="edge11" class="edge">
<title>Node750&#45;&gt;Node751</title>
<path fill="none" stroke="#191970" d="M474.2154,-283.5C492.9965,-283.5 514.5243,-283.5 534.9311,-283.5"/>
<polygon fill="#191970" stroke="#191970" points="474.0886,-280.0001 464.0885,-283.5 474.0885,-287.0001 474.0886,-280.0001"/>
</g>
<!-- Node753 -->
<g id="node12" class="node">
<title>Node753</title>
<g id="a_node12"><a xlink:href="class_c_connman.html#a765597cbfe99c083d8fa3d61bb464e34" target="_top" xlink:title="CConnman::ThreadSocketHandler">
<polygon fill="#ffffff" stroke="#000000" points="934,-350 934,-369 1101,-369 1101,-350 934,-350"/>
<text text-anchor="middle" x="1017.5" y="-357" font-family="Helvetica,sans-Serif" font-size="10.00" fill="#000000">CConnman::ThreadSocketHandler</text>
</a>
</g>
</g>
<!-- Node752&#45;&gt;Node753 -->
<g id="edge13" class="edge">
<title>Node752&#45;&gt;Node753</title>
<path fill="none" stroke="#191970" d="M881.6533,-257.9857C887.2936,-259.8669 892.8128,-262.0251 898,-264.5 944.8841,-286.869 990.0256,-330.6727 1008.6103,-349.977"/>
<polygon fill="#191970" stroke="#191970" points="882.6702,-254.6367 872.0844,-255.0744 880.6326,-261.3337 882.6702,-254.6367"/>
</g>
<!-- Node753&#45;&gt;Node747 -->
<g id="edge14" class="edge">
<title>Node753&#45;&gt;Node747</title>
<path fill="none" stroke="#191970" d="M1111.4475,-359.604C1246.2214,-360.9447 1501.9118,-367.9304 1717,-399.5 1736.1916,-402.3168 1757.2551,-406.3166 1775.1954,-409.9997"/>
<polygon fill="#191970" stroke="#191970" points="1111.1946,-356.1016 1101.1631,-359.5103 1111.1308,-363.1013 1111.1946,-356.1016"/>
</g>
<!-- Node755&#45;&gt;Node750 -->
<g id="edge17" class="edge">
<title>Node755&#45;&gt;Node750</title>
<path fill="none" stroke="#191970" d="M302.3264,-283.5C327.9263,-283.5 355.7272,-283.5 377.9816,-283.5"/>
<polygon fill="#191970" stroke="#191970" points="302.2662,-280.0001 292.2662,-283.5 302.2662,-287.0001 302.2662,-280.0001"/>
</g>
<!-- Node756 -->
<g id="node15" class="node">
<title>Node756</title>
<g id="a_node15"><a xlink:href="class_c_service.html#a225473158bc07c87a6a862160d73cfea" target="_top" xlink:title="CService::ToString">
<polygon fill="#ffffff" stroke="#000000" points="371,-445 371,-464 471,-464 471,-445 371,-445"/>
<text text-anchor="middle" x="421" y="-452" font-family="Helvetica,sans-Serif" font-size="10.00" fill="#000000">CService::ToString</text>
</a>
</g>
</g>
<!-- Node755&#45;&gt;Node756 -->
<g id="edge18" class="edge">
<title>Node755&#45;&gt;Node756</title>
<path fill="none" stroke="#191970" d="M246.5759,-299.9584C286.3364,-335.1867 378.6293,-416.9591 410.1904,-444.9226"/>
<polygon fill="#191970" stroke="#191970" points="248.7354,-297.1956 238.9295,-293.1837 244.0932,-302.435 248.7354,-297.1956"/>
</g>
<!-- Node756&#45;&gt;Node743 -->
<g id="edge30" class="edge">
<title>Node756&#45;&gt;Node743</title>
<path fill="none" stroke="#191970" d="M428.3675,-473.355C442.8432,-507.4181 478.5834,-578.2917 535,-606.5 691.8996,-684.9498 914.6704,-622.4584 990.8016,-597.0181"/>
<polygon fill="#191970" stroke="#191970" points="431.5871,-471.9812 424.5584,-464.0535 425.1092,-474.634 431.5871,-471.9812"/>
</g>
<!-- Node757 -->
<g id="node16" class="node">
<title>Node757</title>
<g id="a_node16"><a xlink:href="class_c_addr_man.html#a33ec6a4584cf4b17af821e6e35216459" target="_top" xlink:title="Mark an entry &quot;good&quot;, possibly moving it from &quot;new&quot; to &quot;tried&quot;. ">
<polygon fill="#ffffff" stroke="#000000" points="564,-502 564,-521 662,-521 662,-502 564,-502"/>
<text text-anchor="middle" x="613" y="-509" font-family="Helvetica,sans-Serif" font-size="10.00" fill="#000000">CAddrMan::Good_</text>
</a>
</g>
</g>
<!-- Node756&#45;&gt;Node757 -->
<g id="edge19" class="edge">
<title>Node756&#45;&gt;Node757</title>
<path fill="none" stroke="#191970" d="M457.2399,-467.4333C479.5257,-475.1732 508.7484,-484.9415 535,-492.5 546.6524,-495.855 559.3933,-499.1241 571.1371,-501.9781"/>
<polygon fill="#191970" stroke="#191970" points="458.119,-464.0329 447.5242,-464.0351 455.8079,-470.6404 458.119,-464.0329"/>
</g>
<!-- Node758 -->
<g id="node17" class="node">
<title>Node758</title>
<g id="a_node17"><a xlink:href="net_8h.html#a0cde2b3256757536c42c0bd3037847d1" target="_top" xlink:title="AdvertiseLocal">
<polygon fill="#ffffff" stroke="#000000" points="572.5,-464 572.5,-483 653.5,-483 653.5,-464 572.5,-464"/>
<text text-anchor="middle" x="613" y="-471" font-family="Helvetica,sans-Serif" font-size="10.00" fill="#000000">AdvertiseLocal</text>
</a>
</g>
</g>
<!-- Node756&#45;&gt;Node758 -->
<g id="edge20" class="edge">
<title>Node756&#45;&gt;Node758</title>
<path fill="none" stroke="#191970" d="M481.6555,-460.5024C511.1948,-463.4255 545.9233,-466.8622 572.2487,-469.4673"/>
<polygon fill="#191970" stroke="#191970" points="481.7418,-456.9939 471.4457,-459.492 481.0524,-463.9599 481.7418,-456.9939"/>
</g>
<!-- Node759 -->
<g id="node18" class="node">
<title>Node759</title>
<g id="a_node18"><a xlink:href="net_8h.html#a337d6af198a6b0d75f830e56da9b91e9" target="_top" xlink:title="AddLocal">
<polygon fill="#ffffff" stroke="#000000" points="584.5,-312 584.5,-331 641.5,-331 641.5,-312 584.5,-312"/>
<text text-anchor="middle" x="613" y="-319" font-family="Helvetica,sans-Serif" font-size="10.00" fill="#000000">AddLocal</text>
</a>
</g>
</g>
<!-- Node756&#45;&gt;Node759 -->
<g id="edge21" class="edge">
<title>Node756&#45;&gt;Node759</title>
<path fill="none" stroke="#191970" d="M434.8481,-436.8703C454.6028,-412.8611 493.1448,-370.0653 535,-345.5 550.1517,-336.6073 568.9255,-330.6985 584.2576,-326.9694"/>
<polygon fill="#191970" stroke="#191970" points="432.0069,-434.8178 428.4487,-444.7973 437.4536,-439.2149 432.0069,-434.8178"/>
</g>
<!-- Node761 -->
<g id="node20" class="node">
<title>Node761</title>
<g id="a_node20"><a xlink:href="net_8h.html#a040c40f60af5f50a128fc1aac4cb5ebd" target="_top" xlink:title="RemoveLocal">
<polygon fill="#ffffff" stroke="#000000" points="574.5,-540 574.5,-559 651.5,-559 651.5,-540 574.5,-540"/>
<text text-anchor="middle" x="613" y="-547" font-family="Helvetica,sans-Serif" font-size="10.00" fill="#000000">RemoveLocal</text>
</a>
</g>
</g>
<!-- Node756&#45;&gt;Node761 -->
<g id="edge25" class="edge">
<title>Node756&#45;&gt;Node761</title>
<path fill="none" stroke="#191970" d="M440.3154,-470.4777C462.052,-487.6889 499.0407,-514.7224 535,-530.5 547.3802,-535.932 561.577,-539.9754 574.4364,-542.9026"/>
<polygon fill="#191970" stroke="#191970" points="442.4888,-467.7342 432.5036,-464.1922 438.1007,-473.188 442.4888,-467.7342"/>
</g>
<!-- Node766 -->
<g id="node25" class="node">
<title>Node766</title>
<g id="a_node25"><a xlink:href="class_c_node.html#a331888bc15bb49775451d951735e4b6a" target="_top" xlink:title="May not be called more than once. ">
<polygon fill="#ffffff" stroke="#000000" points="557,-426 557,-445 669,-445 669,-426 557,-426"/>
<text text-anchor="middle" x="613" y="-433" font-family="Helvetica,sans-Serif" font-size="10.00" fill="#000000">CNode::SetAddrLocal</text>
</a>
</g>
</g>
<!-- Node756&#45;&gt;Node766 -->
<g id="edge31" class="edge">
<title>Node756&#45;&gt;Node766</title>
<path fill="none" stroke="#191970" d="M481.5338,-448.5097C505.6178,-446.1264 533.1671,-443.4001 556.8041,-441.0611"/>
<polygon fill="#191970" stroke="#191970" points="481.0524,-445.0401 471.4457,-449.508 481.7418,-452.0061 481.0524,-445.0401"/>
</g>
<!-- Node767 -->
<g id="node26" class="node">
<title>Node767</title>
<g id="a_node26"><a xlink:href="class_c_connman.html#afe88b51d85f5b77fd38cd0be1d177891" target="_top" xlink:title="CConnman::AcceptConnection">
<polygon fill="#ffffff" stroke="#000000" points="736.5,-350 736.5,-369 888.5,-369 888.5,-350 736.5,-350"/>
<text text-anchor="middle" x="812.5" y="-357" font-family="Helvetica,sans-Serif" font-size="10.00" fill="#000000">CConnman::AcceptConnection</text>
</a>
</g>
</g>
<!-- Node756&#45;&gt;Node767 -->
<g id="edge32" class="edge">
<title>Node756&#45;&gt;Node767</title>
<path fill="none" stroke="#191970" d="M438.8415,-438.2122C460.0149,-419.9951 497.231,-391.3601 535,-378.5 600.3691,-356.2422 679.2961,-352.922 736.2374,-354.3276"/>
<polygon fill="#191970" stroke="#191970" points="436.4883,-435.6208 431.2939,-444.8549 441.113,-440.8755 436.4883,-435.6208"/>
</g>
<!-- Node768 -->
<g id="node27" class="node">
<title>Node768</title>
<g id="a_node27"><a xlink:href="class_c_connman.html#ad2f3516addf9e195688437021a8e3182" target="_top" xlink:title="CConnman::BindListenPort">
<polygon fill="#ffffff" stroke="#000000" points="545,-388 545,-407 681,-407 681,-388 545,-388"/>
<text text-anchor="middle" x="613" y="-395" font-family="Helvetica,sans-Serif" font-size="10.00" fill="#000000">CConnman::BindListenPort</text>
</a>
</g>
</g>
<!-- Node756&#45;&gt;Node768 -->
<g id="edge34" class="edge">
<title>Node756&#45;&gt;Node768</title>
<path fill="none" stroke="#191970" d="M457.2399,-441.5667C479.5257,-433.8268 508.7484,-424.0585 535,-416.5 546.6524,-413.145 559.3933,-409.8759 571.1371,-407.0219"/>
<polygon fill="#191970" stroke="#191970" points="455.8079,-438.3596 447.5242,-444.9649 458.119,-444.9671 455.8079,-438.3596"/>
</g>
<!-- Node771 -->
<g id="node30" class="node">
<title>Node771</title>
<g id="a_node30"><a xlink:href="netbase_8h.html#ac4d702700b01312baccffa6f36703800" target="_top" xlink:title="ConnectSocketDirectly">
<polygon fill="#ffffff" stroke="#000000" points="554,-578 554,-597 672,-597 672,-578 554,-578"/>
<text text-anchor="middle" x="613" y="-585" font-family="Helvetica,sans-Serif" font-size="10.00" fill="#000000">ConnectSocketDirectly</text>
</a>
</g>
</g>
<!-- Node756&#45;&gt;Node771 -->
<g id="edge38" class="edge">
<title>Node756&#45;&gt;Node771</title>
<path fill="none" stroke="#191970" d="M433.8782,-472.5657C452.9861,-497.9864 491.3235,-543.9448 535,-568.5 541.9251,-572.3933 549.6332,-575.4948 557.4324,-577.9641"/>
<polygon fill="#191970" stroke="#191970" points="436.477,-470.1917 427.7342,-464.2071 430.8368,-474.3375 436.477,-470.1917"/>
</g>
<!-- Node759&#45;&gt;Node752 -->
<g id="edge23" class="edge">
<title>Node759&#45;&gt;Node752</title>
<path fill="none" stroke="#191970" d="M651.7063,-316.608C664.8022,-313.8014 679.109,-309.3983 691,-302.5 711.1234,-290.8259 706.7594,-275.9696 727,-264.5 733.8793,-260.6018 741.4916,-257.5033 749.2553,-255.0404"/>
<polygon fill="#191970" stroke="#191970" points="650.707,-313.2349 641.5325,-318.5338 652.009,-320.1128 650.707,-313.2349"/>
</g>
<!-- Node759&#45;&gt;Node754 -->
<g id="edge24" class="edge">
<title>Node759&#45;&gt;Node754</title>
<path fill="none" stroke="#191970" d="M651.4926,-314.1681C690.386,-306.7598 749.554,-295.4897 784.2918,-288.873"/>
<polygon fill="#191970" stroke="#191970" points="650.752,-310.7461 641.5835,-316.0555 652.0618,-317.6225 650.752,-310.7461"/>
</g>
<!-- Node760 -->
<g id="node19" class="node">
<title>Node760</title>
<g id="a_node19"><a xlink:href="net_8h.html#abda4e8f87772f9a9d9d8f52a93791ffc" target="_top" xlink:title="AddLocal">
<polygon fill="#ffffff" stroke="#000000" points="784,-312 784,-331 841,-331 841,-312 784,-312"/>
<text text-anchor="middle" x="812.5" y="-319" font-family="Helvetica,sans-Serif" font-size="10.00" fill="#000000">AddLocal</text>
</a>
</g>
</g>
<!-- Node759&#45;&gt;Node760 -->
<g id="edge22" class="edge">
<title>Node759&#45;&gt;Node760</title>
<path fill="none" stroke="#191970" d="M651.9591,-321.5C690.7372,-321.5 749.3282,-321.5 783.9695,-321.5"/>
<polygon fill="#191970" stroke="#191970" points="651.5835,-318.0001 641.5835,-321.5 651.5835,-325.0001 651.5835,-318.0001"/>
</g>
<!-- Node762 -->
<g id="node21" class="node">
<title>Node762</title>
<g id="a_node21"><a xlink:href="class_tor_controller.html#a98c6b822f4a60da7847a974607b95963" target="_top" xlink:title="TorController::~TorController">
<polygon fill="#ffffff" stroke="#000000" points="742,-502 742,-521 883,-521 883,-502 742,-502"/>
<text text-anchor="middle" x="812.5" y="-509" font-family="Helvetica,sans-Serif" font-size="10.00" fill="#000000">TorController::~TorController</text>
</a>
</g>
</g>
<!-- Node761&#45;&gt;Node762 -->
<g id="edge26" class="edge">
<title>Node761&#45;&gt;Node762</title>
<path fill="none" stroke="#191970" d="M661.9249,-540.181C692.4203,-534.3723 731.5638,-526.9164 762.2966,-521.0626"/>
<polygon fill="#191970" stroke="#191970" points="661.1077,-536.7736 651.9392,-542.083 662.4175,-543.65 661.1077,-536.7736"/>
</g>
<!-- Node763 -->
<g id="node22" class="node">
<title>Node763</title>
<g id="a_node22"><a xlink:href="class_tor_controller.html#a81392f33f0c7e069762668ec3a757075" target="_top" xlink:title="Callback after connection lost or failed connection attempt. ">
<polygon fill="#ffffff" stroke="#000000" points="736.5,-464 736.5,-483 888.5,-483 888.5,-464 736.5,-464"/>
<text text-anchor="middle" x="812.5" y="-471" font-family="Helvetica,sans-Serif" font-size="10.00" fill="#000000">TorController::disconnected_cb</text>
</a>
</g>
</g>
<!-- Node761&#45;&gt;Node763 -->
<g id="edge27" class="edge">
<title>Node761&#45;&gt;Node763</title>
<path fill="none" stroke="#191970" d="M661.5857,-542.2203C671.7281,-539.4719 682.0485,-535.693 691,-530.5 711.1234,-518.8259 706.7594,-503.9696 727,-492.5 733.8793,-488.6018 741.4916,-485.5033 749.2553,-483.0404"/>
<polygon fill="#191970" stroke="#191970" points="660.4601,-538.8914 651.5601,-544.6393 662.1021,-545.6961 660.4601,-538.8914"/>
</g>
<!-- Node764 -->
<g id="node23" class="node">
<title>Node764</title>
<g id="a_node23"><a xlink:href="class_tor_controller.html#ae5d4304836fce79574ec540c5ada8269" target="_top" xlink:title="Reconnect, after getting disconnected. ">
<polygon fill="#ffffff" stroke="#000000" points="954.5,-464 954.5,-483 1080.5,-483 1080.5,-464 954.5,-464"/>
<text text-anchor="middle" x="1017.5" y="-471" font-family="Helvetica,sans-Serif" font-size="10.00" fill="#000000">TorController::Reconnect</text>
</a>
</g>
</g>
<!-- Node763&#45;&gt;Node764 -->
<g id="edge28" class="edge">
<title>Node763&#45;&gt;Node764</title>
<path fill="none" stroke="#191970" d="M898.7992,-473.5C917.4248,-473.5 936.7826,-473.5 954.3282,-473.5"/>
<polygon fill="#191970" stroke="#191970" points="898.5431,-470.0001 888.5431,-473.5 898.5431,-477.0001 898.5431,-470.0001"/>
</g>
<!-- Node765 -->
<g id="node24" class="node">
<title>Node765</title>
<g id="a_node24"><a xlink:href="class_tor_controller.html#a2fa9614b4fa0e24c57f443b3c56f835c" target="_top" xlink:title="Callback for reconnect timer. ">
<polygon fill="#ffffff" stroke="#000000" points="1159.5,-464 1159.5,-483 1296.5,-483 1296.5,-464 1159.5,-464"/>
<text text-anchor="middle" x="1228" y="-471" font-family="Helvetica,sans-Serif" font-size="10.00" fill="#000000">TorController::reconnect_cb</text>
</a>
</g>
</g>
<!-- Node764&#45;&gt;Node765 -->
<g id="edge29" class="edge">
<title>Node764&#45;&gt;Node765</title>
<path fill="none" stroke="#191970" d="M1090.7301,-473.5C1113.0138,-473.5 1137.4139,-473.5 1159.3816,-473.5"/>
<polygon fill="#191970" stroke="#191970" points="1090.657,-470.0001 1080.6569,-473.5 1090.6569,-477.0001 1090.657,-470.0001"/>
</g>
<!-- Node767&#45;&gt;Node753 -->
<g id="edge33" class="edge">
<title>Node767&#45;&gt;Node753</title>
<path fill="none" stroke="#191970" d="M898.7175,-359.5C910.398,-359.5 922.368,-359.5 933.9997,-359.5"/>
<polygon fill="#191970" stroke="#191970" points="898.5431,-356.0001 888.5431,-359.5 898.5431,-363.0001 898.5431,-356.0001"/>
</g>
<!-- Node769 -->
<g id="node28" class="node">
<title>Node769</title>
<g id="a_node28"><a xlink:href="class_c_connman.html#aa680bfe4844faa7eec359d9f2c6cab89" target="_top" xlink:title="CConnman::Bind">
<polygon fill="#ffffff" stroke="#000000" points="766.5,-388 766.5,-407 858.5,-407 858.5,-388 766.5,-388"/>
<text text-anchor="middle" x="812.5" y="-395" font-family="Helvetica,sans-Serif" font-size="10.00" fill="#000000">CConnman::Bind</text>
</a>
</g>
</g>
<!-- Node768&#45;&gt;Node769 -->
<g id="edge35" class="edge">
<title>Node768&#45;&gt;Node769</title>
<path fill="none" stroke="#191970" d="M691.1174,-397.5C716.5795,-397.5 744.0172,-397.5 766.3538,-397.5"/>
<polygon fill="#191970" stroke="#191970" points="691.0986,-394.0001 681.0986,-397.5 691.0986,-401.0001 691.0986,-394.0001"/>
</g>
<!-- Node770 -->
<g id="node29" class="node">
<title>Node770</title>
<g id="a_node29"><a xlink:href="class_c_connman.html#ada57a401d7b9c6ee0c304ddd195f4d1e" target="_top" xlink:title="CConnman::InitBinds">
<polygon fill="#ffffff" stroke="#000000" points="1373,-388 1373,-407 1483,-407 1483,-388 1373,-388"/>
<text text-anchor="middle" x="1428" y="-395" font-family="Helvetica,sans-Serif" font-size="10.00" fill="#000000">CConnman::InitBinds</text>
</a>
</g>
</g>
<!-- Node769&#45;&gt;Node770 -->
<g id="edge36" class="edge">
<title>Node769&#45;&gt;Node770</title>
<path fill="none" stroke="#191970" d="M868.7198,-397.5C986.1741,-397.5 1256.3231,-397.5 1372.8466,-397.5"/>
<polygon fill="#191970" stroke="#191970" points="868.5109,-394.0001 858.5108,-397.5 868.5108,-401.0001 868.5109,-394.0001"/>
</g>
<!-- Node770&#45;&gt;Node747 -->
<g id="edge37" class="edge">
<title>Node770&#45;&gt;Node747</title>
<path fill="none" stroke="#191970" d="M1493.413,-401.1852C1572.2169,-405.6249 1702.6288,-412.972 1771.9001,-416.8747"/>
<polygon fill="#191970" stroke="#191970" points="1493.302,-397.6735 1483.1209,-400.6054 1492.9081,-404.6624 1493.302,-397.6735"/>
</g>
<!-- Node771&#45;&gt;Node743 -->
<g id="edge39" class="edge">
<title>Node771&#45;&gt;Node743</title>
<path fill="none" stroke="#191970" d="M669.3045,-576.2229C687.6237,-573.0623 708.1035,-570.0639 727,-568.5 802.741,-562.2315 822.2361,-562.5145 898,-568.5 921.4549,-570.353 947.2598,-574.2213 968.8691,-577.9869"/>
<polygon fill="#191970" stroke="#191970" points="668.6068,-572.792 659.3733,-577.9874 669.8314,-579.684 668.6068,-572.792"/>
</g>
<!-- Node772 -->
<g id="node31" class="node">
<title>Node772</title>
<g id="a_node31"><a xlink:href="netbase_8h.html#ab0050e9d599c152605bab7ef97566d9e" target="_top" xlink:title="ConnectThroughProxy">
<polygon fill="#ffffff" stroke="#000000" points="755.5,-578 755.5,-597 869.5,-597 869.5,-578 755.5,-578"/>
<text text-anchor="middle" x="812.5" y="-585" font-family="Helvetica,sans-Serif" font-size="10.00" fill="#000000">ConnectThroughProxy</text>
</a>
</g>
</g>
<!-- Node771&#45;&gt;Node772 -->
<g id="edge40" class="edge">
<title>Node771&#45;&gt;Node772</title>
<path fill="none" stroke="#191970" d="M682.1092,-587.5C706.0018,-587.5 732.4919,-587.5 755.3203,-587.5"/>
<polygon fill="#191970" stroke="#191970" points="682.0469,-584.0001 672.0468,-587.5 682.0468,-591.0001 682.0469,-584.0001"/>
</g>
<!-- Node772&#45;&gt;Node743 -->
<g id="edge41" class="edge">
<title>Node772&#45;&gt;Node743</title>
<path fill="none" stroke="#191970" d="M879.6221,-587.5C902.6296,-587.5 928.3476,-587.5 951.2829,-587.5"/>
<polygon fill="#191970" stroke="#191970" points="879.604,-584.0001 869.6039,-587.5 879.6039,-591.0001 879.604,-584.0001"/>
</g>
<!-- Node774 -->
<g id="node33" class="node">
<title>Node774</title>
<g id="a_node33"><a xlink:href="class_options_dialog.html#a11e902a52cb7472497d14e70cd9399d9" target="_top" xlink:title="OptionsDialog::setModel">
<polygon fill="#ffffff" stroke="#000000" points="359,-110 359,-129 483,-129 483,-110 359,-110"/>
<text text-anchor="middle" x="421" y="-117" font-family="Helvetica,sans-Serif" font-size="10.00" fill="#000000">OptionsDialog::setModel</text>
</a>
</g>
</g>
<!-- Node773&#45;&gt;Node774 -->
<g id="edge43" class="edge">
<title>Node773&#45;&gt;Node774</title>
<path fill="none" stroke="#191970" d="M303.9663,-146.1813C329.6091,-140.3352 357.2802,-134.0268 379.2751,-129.0124"/>
<polygon fill="#191970" stroke="#191970" points="302.8517,-142.8455 293.8798,-148.4808 304.4077,-149.6704 302.8517,-142.8455"/>
</g>
<!-- Node778 -->
<g id="node37" class="node">
<title>Node778</title>
<g id="a_node37"><a xlink:href="class_options_dialog.html#a361ac4fdb9bafd3cad531e055084dd08" target="_top" xlink:title="OptionsDialog::on_okButton\l_clicked">
<polygon fill="#ffffff" stroke="#000000" points="351.5,-148.5 351.5,-178.5 490.5,-178.5 490.5,-148.5 351.5,-148.5"/>
<text text-anchor="start" x="359.5" y="-166.5" font-family="Helvetica,sans-Serif" font-size="10.00" fill="#000000">OptionsDialog::on_okButton</text>
<text text-anchor="middle" x="421" y="-155.5" font-family="Helvetica,sans-Serif" font-size="10.00" fill="#000000">_clicked</text>
</a>
</g>
</g>
<!-- Node773&#45;&gt;Node778 -->
<g id="edge47" class="edge">
<title>Node773&#45;&gt;Node778</title>
<path fill="none" stroke="#191970" d="M310.8885,-163.5C324.3401,-163.5 338.1518,-163.5 351.2496,-163.5"/>
<polygon fill="#191970" stroke="#191970" points="310.69,-160.0001 300.69,-163.5 310.69,-167.0001 310.69,-160.0001"/>
</g>
<!-- Node775 -->
<g id="node34" class="node">
<title>Node775</title>
<g id="a_node34"><a xlink:href="class_raven_g_u_i.html#a18e94f625f9327f3718c02f3a2d4d21c" target="_top" xlink:title="Show configuration dialog. ">
<polygon fill="#ffffff" stroke="#000000" points="546,-110 546,-129 680,-129 680,-110 546,-110"/>
<text text-anchor="middle" x="613" y="-117" font-family="Helvetica,sans-Serif" font-size="10.00" fill="#000000">RavenGUI::optionsClicked</text>
</a>
</g>
</g>
<!-- Node774&#45;&gt;Node775 -->
<g id="edge44" class="edge">
<title>Node774&#45;&gt;Node775</title>
<path fill="none" stroke="#191970" d="M493.1045,-119.5C510.3923,-119.5 528.7842,-119.5 545.8377,-119.5"/>
<polygon fill="#191970" stroke="#191970" points="493.0718,-116.0001 483.0717,-119.5 493.0717,-123.0001 493.0718,-116.0001"/>
</g>
<!-- Node776 -->
<g id="node35" class="node">
<title>Node776</title>
<g id="a_node35"><a xlink:href="class_raven_g_u_i.html#a6e65b4f2b8a82b4ab99b77fe9d43a500" target="_top" xlink:title="Create the main UI actions. ">
<polygon fill="#ffffff" stroke="#000000" points="748,-110 748,-129 877,-129 877,-110 748,-110"/>
<text text-anchor="middle" x="812.5" y="-117" font-family="Helvetica,sans-Serif" font-size="10.00" fill="#000000">RavenGUI::createActions</text>
</a>
</g>
</g>
<!-- Node775&#45;&gt;Node776 -->
<g id="edge45" class="edge">
<title>Node775&#45;&gt;Node776</title>
<path fill="none" stroke="#191970" d="M690.3865,-119.5C709.3988,-119.5 729.554,-119.5 747.8922,-119.5"/>
<polygon fill="#191970" stroke="#191970" points="690.2635,-116.0001 680.2635,-119.5 690.2634,-123.0001 690.2635,-116.0001"/>
</g>
<!-- Node777 -->
<g id="node36" class="node">
<title>Node777</title>
<g id="a_node36"><a xlink:href="class_raven_g_u_i.html#af82cbe028fc29d0ea71074eced806071" target="_top" xlink:title="RavenGUI::RavenGUI">
<polygon fill="#ffffff" stroke="#000000" points="959.5,-110 959.5,-129 1075.5,-129 1075.5,-110 959.5,-110"/>
<text text-anchor="middle" x="1017.5" y="-117" font-family="Helvetica,sans-Serif" font-size="10.00" fill="#000000">RavenGUI::RavenGUI</text>
</a>
</g>
</g>
<!-- Node776&#45;&gt;Node777 -->
<g id="edge46" class="edge">
<title>Node776&#45;&gt;Node777</title>
<path fill="none" stroke="#191970" d="M887.1509,-119.5C910.9949,-119.5 937.0146,-119.5 959.4923,-119.5"/>
<polygon fill="#191970" stroke="#191970" points="887.0819,-116.0001 877.0819,-119.5 887.0819,-123.0001 887.0819,-116.0001"/>
</g>
<!-- Node780 -->
<g id="node39" class="node">
<title>Node780</title>
<g id="a_node39"><a xlink:href="class_options_model.html#ad1d75a279030057c8bcbdfad5051b870" target="_top" xlink:title="OptionsModel::getThirdParty\lTxUrls">
<polygon fill="#ffffff" stroke="#000000" points="350.5,-22.5 350.5,-52.5 491.5,-52.5 491.5,-22.5 350.5,-22.5"/>
<text text-anchor="start" x="358.5" y="-40.5" font-family="Helvetica,sans-Serif" font-size="10.00" fill="#000000">OptionsModel::getThirdParty</text>
<text text-anchor="middle" x="421" y="-29.5" font-family="Helvetica,sans-Serif" font-size="10.00" fill="#000000">TxUrls</text>
</a>
</g>
</g>
<!-- Node779&#45;&gt;Node780 -->
<g id="edge49" class="edge">
<title>Node779&#45;&gt;Node780</title>
<path fill="none" stroke="#191970" d="M279.8169,-69.6868C302.9055,-64.4231 330.3738,-58.1609 354.9178,-52.5654"/>
<polygon fill="#191970" stroke="#191970" points="278.85,-66.3174 269.8781,-71.9527 280.406,-73.1423 278.85,-66.3174"/>
</g>
<!-- Node789 -->
<g id="node48" class="node">
<title>Node789</title>
<g id="a_node48"><a xlink:href="class_payment_server.html#a2f94f2c3e12d03199870e17008535302" target="_top" xlink:title="PaymentServer::initNetManager">
<polygon fill="#ffffff" stroke="#000000" points="343,-72 343,-91 499,-91 499,-72 343,-72"/>
<text text-anchor="middle" x="421" y="-79" font-family="Helvetica,sans-Serif" font-size="10.00" fill="#000000">PaymentServer::initNetManager</text>
</a>
</g>
</g>
<!-- Node779&#45;&gt;Node789 -->
<g id="edge59" class="edge">
<title>Node779&#45;&gt;Node789</title>
<path fill="none" stroke="#191970" d="M317.3304,-81.5C325.7971,-81.5 334.3377,-81.5 342.6897,-81.5"/>
<polygon fill="#191970" stroke="#191970" points="317.0574,-78.0001 307.0574,-81.5 317.0573,-85.0001 317.0574,-78.0001"/>
</g>
<!-- Node781 -->
<g id="node40" class="node">
<title>Node781</title>
<g id="a_node40"><a xlink:href="class_transaction_view.html#a4920c2cd57d72eb50248948fa160c83c" target="_top" xlink:title="TransactionView::setModel">
<polygon fill="#ffffff" stroke="#000000" points="545.5,-28 545.5,-47 680.5,-47 680.5,-28 545.5,-28"/>
<text text-anchor="middle" x="613" y="-35" font-family="Helvetica,sans-Serif" font-size="10.00" fill="#000000">TransactionView::setModel</text>
</a>
</g>
</g>
<!-- Node780&#45;&gt;Node781 -->
<g id="edge50" class="edge">
<title>Node780&#45;&gt;Node781</title>
<path fill="none" stroke="#191970" d="M502.0703,-37.5C516.4835,-37.5 531.357,-37.5 545.3481,-37.5"/>
<polygon fill="#191970" stroke="#191970" points="501.6758,-34.0001 491.6757,-37.5 501.6757,-41.0001 501.6758,-34.0001"/>
</g>
<!-- Node782 -->
<g id="node41" class="node">
<title>Node782</title>
<g id="a_node41"><a xlink:href="class_wallet_view.html#a0a37ff693a4f9c1e5ddc23f9cd3913be" target="_top" xlink:title="Set the wallet model. ">
<polygon fill="#ffffff" stroke="#000000" points="742.5,-28 742.5,-47 882.5,-47 882.5,-28 742.5,-28"/>
<text text-anchor="middle" x="812.5" y="-35" font-family="Helvetica,sans-Serif" font-size="10.00" fill="#000000">WalletView::setWalletModel</text>
</a>
</g>
</g>
<!-- Node781&#45;&gt;Node782 -->
<g id="edge51" class="edge">
<title>Node781&#45;&gt;Node782</title>
<path fill="none" stroke="#191970" d="M690.9511,-37.5C707.882,-37.5 725.694,-37.5 742.3041,-37.5"/>
<polygon fill="#191970" stroke="#191970" points="690.5416,-34.0001 680.5416,-37.5 690.5416,-41.0001 690.5416,-34.0001"/>
</g>
<!-- Node783 -->
<g id="node42" class="node">
<title>Node783</title>
<g id="a_node42"><a xlink:href="class_wallet_frame.html#aa199c3f27654199d84c365cf86167d86" target="_top" xlink:title="WalletFrame::addWallet">
<polygon fill="#ffffff" stroke="#000000" points="956.5,-28 956.5,-47 1078.5,-47 1078.5,-28 956.5,-28"/>
<text text-anchor="middle" x="1017.5" y="-35" font-family="Helvetica,sans-Serif" font-size="10.00" fill="#000000">WalletFrame::addWallet</text>
</a>
</g>
</g>
<!-- Node782&#45;&gt;Node783 -->
<g id="edge52" class="edge">
<title>Node782&#45;&gt;Node783</title>
<path fill="none" stroke="#191970" d="M892.973,-37.5C914.0186,-37.5 936.3646,-37.5 956.2308,-37.5"/>
<polygon fill="#191970" stroke="#191970" points="892.7626,-34.0001 882.7626,-37.5 892.7625,-41.0001 892.7626,-34.0001"/>
</g>
<!-- Node784 -->
<g id="node43" class="node">
<title>Node784</title>
<g id="a_node43"><a xlink:href="class_raven_g_u_i.html#a174a3e75c334c5930d3261a2955c3725" target="_top" xlink:title="Set the client model. ">
<polygon fill="#ffffff" stroke="#000000" points="1161,-28 1161,-47 1295,-47 1295,-28 1161,-28"/>
<text text-anchor="middle" x="1228" y="-35" font-family="Helvetica,sans-Serif" font-size="10.00" fill="#000000">RavenGUI::setClientModel</text>
</a>
</g>
</g>
<!-- Node783&#45;&gt;Node784 -->
<g id="edge53" class="edge">
<title>Node783&#45;&gt;Node784</title>
<path fill="none" stroke="#191970" d="M1088.8169,-37.5C1112.0823,-37.5 1137.8249,-37.5 1160.7793,-37.5"/>
<polygon fill="#191970" stroke="#191970" points="1088.6681,-34.0001 1078.6681,-37.5 1088.668,-41.0001 1088.6681,-34.0001"/>
</g>
<!-- Node785 -->
<g id="node44" class="node">
<title>Node785</title>
<g id="a_node44"><a xlink:href="class_raven_application.html#a60123f611cc210870fa67974cb2c804c" target="_top" xlink:title="Request core shutdown. ">
<polygon fill="#ffffff" stroke="#000000" points="1753,-.5 1753,-30.5 1884,-30.5 1884,-.5 1753,-.5"/>
<text text-anchor="start" x="1761" y="-18.5" font-family="Helvetica,sans-Serif" font-size="10.00" fill="#000000">RavenApplication::request</text>
<text text-anchor="middle" x="1818.5" y="-7.5" font-family="Helvetica,sans-Serif" font-size="10.00" fill="#000000">Shutdown</text>
</a>
</g>
</g>
<!-- Node784&#45;&gt;Node785 -->
<g id="edge54" class="edge">
<title>Node784&#45;&gt;Node785</title>
<path fill="none" stroke="#191970" d="M1305.4858,-34.6131C1422.671,-30.2472 1642.9267,-22.0413 1752.7541,-17.9495"/>
<polygon fill="#191970" stroke="#191970" points="1305.0257,-31.1278 1295.163,-34.9977 1305.2864,-38.1229 1305.0257,-31.1278"/>
</g>
<!-- Node786 -->
<g id="node45" class="node">
<title>Node786</title>
<g id="a_node45"><a xlink:href="class_raven_application.html#a1a3dcf33ba44507984b2a04e7ebf1542" target="_top" xlink:title="RavenApplication::initialize\lResult">
<polygon fill="#ffffff" stroke="#000000" points="1361,-44.5 1361,-74.5 1495,-74.5 1495,-44.5 1361,-44.5"/>
<text text-anchor="start" x="1369" y="-62.5" font-family="Helvetica,sans-Serif" font-size="10.00" fill="#000000">RavenApplication::initialize</text>
<text text-anchor="middle" x="1428" y="-51.5" font-family="Helvetica,sans-Serif" font-size="10.00" fill="#000000">Result</text>
</a>
</g>
</g>
<!-- Node784&#45;&gt;Node786 -->
<g id="edge55" class="edge">
<title>Node784&#45;&gt;Node786</title>
<path fill="none" stroke="#191970" d="M1305.1917,-45.9911C1323.49,-48.0039 1342.8644,-50.1351 1360.6833,-52.0952"/>
<polygon fill="#191970" stroke="#191970" points="1305.4762,-42.5014 1295.1535,-44.8869 1304.7108,-49.4594 1305.4762,-42.5014"/>
</g>
<!-- Node787 -->
<g id="node46" class="node">
<title>Node787</title>
<g id="a_node46"><a xlink:href="class_raven_application.html#aecfdce3a245b959def5dd35e5cfb192e" target="_top" xlink:title="RavenApplication::startThread">
<polygon fill="#ffffff" stroke="#000000" points="1552.5,-50 1552.5,-69 1701.5,-69 1701.5,-50 1552.5,-50"/>
<text text-anchor="middle" x="1627" y="-57" font-family="Helvetica,sans-Serif" font-size="10.00" fill="#000000">RavenApplication::startThread</text>
</a>
</g>
</g>
<!-- Node786&#45;&gt;Node787 -->
<g id="edge56" class="edge">
<title>Node786&#45;&gt;Node787</title>
<path fill="none" stroke="#191970" d="M1505.1531,-59.5C1520.652,-59.5 1536.9137,-59.5 1552.3264,-59.5"/>
<polygon fill="#191970" stroke="#191970" points="1505.0949,-56.0001 1495.0949,-59.5 1505.0949,-63.0001 1505.0949,-56.0001"/>
</g>
<!-- Node787&#45;&gt;Node785 -->
<g id="edge58" class="edge">
<title>Node787&#45;&gt;Node785</title>
<path fill="none" stroke="#191970" d="M1678.4141,-47.6868C1701.3234,-42.4231 1728.5782,-36.1609 1752.9314,-30.5654"/>
<polygon fill="#191970" stroke="#191970" points="1677.5149,-44.3022 1668.5526,-49.9527 1679.0825,-51.1244 1677.5149,-44.3022"/>
</g>
<!-- Node788 -->
<g id="node47" class="node">
<title>Node788</title>
<g id="a_node47"><a xlink:href="class_raven_application.html#a63a2032fef875fb81f26c212f69d000d" target="_top" xlink:title="Request core initialization. ">
<polygon fill="#ffffff" stroke="#000000" points="1753,-49.5 1753,-79.5 1884,-79.5 1884,-49.5 1753,-49.5"/>
<text text-anchor="start" x="1761" y="-67.5" font-family="Helvetica,sans-Serif" font-size="10.00" fill="#000000">RavenApplication::request</text>
<text text-anchor="middle" x="1818.5" y="-56.5" font-family="Helvetica,sans-Serif" font-size="10.00" fill="#000000">Initialize</text>
</a>
</g>
</g>
<!-- Node787&#45;&gt;Node788 -->
<g id="edge57" class="edge">
<title>Node787&#45;&gt;Node788</title>
<path fill="none" stroke="#191970" d="M1711.9865,-61.719C1725.686,-62.0767 1739.6833,-62.4421 1752.8373,-62.7856"/>
<polygon fill="#191970" stroke="#191970" points="1711.6752,-58.2097 1701.5872,-61.4474 1711.4925,-65.2074 1711.6752,-58.2097"/>
</g>
<!-- Node790 -->
<g id="node49" class="node">
<title>Node790</title>
<g id="a_node49"><a xlink:href="class_payment_server.html#abb6c65fabbf97ba95381997ca9cd6993" target="_top" xlink:title="PaymentServer::uiReady">
<polygon fill="#ffffff" stroke="#000000" points="550,-72 550,-91 676,-91 676,-72 550,-72"/>
<text text-anchor="middle" x="613" y="-79" font-family="Helvetica,sans-Serif" font-size="10.00" fill="#000000">PaymentServer::uiReady</text>
</a>
</g>
</g>
<!-- Node789&#45;&gt;Node790 -->
<g id="edge60" class="edge">
<title>Node789&#45;&gt;Node790</title>
<path fill="none" stroke="#191970" d="M509.4829,-81.5C523.1449,-81.5 537.0112,-81.5 549.9658,-81.5"/>
<polygon fill="#191970" stroke="#191970" points="509.0938,-78.0001 499.0938,-81.5 509.0937,-85.0001 509.0938,-78.0001"/>
</g>
</g>
</svg>
