<?xml version="1.0" encoding="UTF-8" standalone="no"?>
<!DOCTYPE svg PUBLIC "-//W3C//DTD SVG 1.1//EN"
 "http://www.w3.org/Graphics/SVG/1.1/DTD/svg11.dtd">
<!-- Generated by graphviz version 2.40.1 (20161225.0304)
 -->
<!-- Title: ReissueAssetDialog::coinControlButtonClicked Pages: 1 -->
<svg width="290pt" height="39pt"
 viewBox="0.00 0.00 290.00 39.00" xmlns="http://www.w3.org/2000/svg" xmlns:xlink="http://www.w3.org/1999/xlink">
<g id="graph0" class="graph" transform="scale(1 1) rotate(0) translate(4 35)">
<title>ReissueAssetDialog::coinControlButtonClicked</title>
<polygon fill="#ffffff" stroke="transparent" points="-4,4 -4,-35 286,-35 286,4 -4,4"/>
<!-- Node510 -->
<g id="node1" class="node">
<title>Node510</title>
<polygon fill="#bfbfbf" stroke="#000000" points="0,-.5 0,-30.5 134,-30.5 134,-.5 0,-.5"/>
<text text-anchor="start" x="8" y="-18.5" font-family="Helvetica,sans-Serif" font-size="10.00" fill="#000000">ReissueAssetDialog</text>
<text text-anchor="middle" x="67" y="-7.5" font-family="Helvetica,sans-Serif" font-size="10.00" fill="#000000">::coinControlButtonClicked</text>
</g>
<!-- Node511 -->
<g id="node2" class="node">
<title>Node511</title>
<g id="a_node2"><a xlink:href="class_reissue_asset_dialog.html#aee7cca850e09ac4cbedb7175feea7038" target="_top" xlink:title="ReissueAssetDialog\l::ReissueAssetDialog">
<polygon fill="#ffffff" stroke="#000000" points="170,-.5 170,-30.5 282,-30.5 282,-.5 170,-.5"/>
<text text-anchor="start" x="178" y="-18.5" font-family="Helvetica,sans-Serif" font-size="10.00" fill="#000000">ReissueAssetDialog</text>
<text text-anchor="middle" x="226" y="-7.5" font-family="Helvetica,sans-Serif" font-size="10.00" fill="#000000">::ReissueAssetDialog</text>
</a>
</g>
</g>
<!-- Node510&#45;&gt;Node511 -->
<g id="edge1" class="edge">
<title>Node510&#45;&gt;Node511</title>
<path fill="none" stroke="#191970" d="M144.4911,-15.5C153.0943,-15.5 161.7289,-15.5 169.9915,-15.5"/>
<polygon fill="#191970" stroke="#191970" points="144.4303,-12.0001 134.4303,-15.5 144.4303,-19.0001 144.4303,-12.0001"/>
</g>
</g>
</svg>
