<?xml version="1.0" encoding="UTF-8" standalone="no"?>
<!DOCTYPE svg PUBLIC "-//W3C//DTD SVG 1.1//EN"
 "http://www.w3.org/Graphics/SVG/1.1/DTD/svg11.dtd">
<!-- Generated by graphviz version 2.40.1 (20161225.0304)
 -->
<!-- Title: CAssetsDB::EraseAssetData Pages: 1 -->
<svg width="580pt" height="28pt"
 viewBox="0.00 0.00 580.00 28.00" xmlns="http://www.w3.org/2000/svg" xmlns:xlink="http://www.w3.org/1999/xlink">
<g id="graph0" class="graph" transform="scale(1 1) rotate(0) translate(4 24)">
<title>CAssetsDB::EraseAssetData</title>
<polygon fill="#ffffff" stroke="transparent" points="-4,4 -4,-24 576,-24 576,4 -4,4"/>
<!-- Node26 -->
<g id="node1" class="node">
<title>Node26</title>
<polygon fill="#bfbfbf" stroke="#000000" points="0,-.5 0,-19.5 147,-19.5 147,-.5 0,-.5"/>
<text text-anchor="middle" x="73.5" y="-7.5" font-family="Helvetica,sans-Serif" font-size="10.00" fill="#000000">CAssetsDB::EraseAssetData</text>
</g>
<!-- Node27 -->
<g id="node2" class="node">
<title>Node27</title>
<g id="a_node2"><a xlink:href="class_c_d_b_wrapper.html#a583311ba1b0eb24d07511aad3325d61f" target="_top" xlink:title="CDBWrapper::Erase">
<polygon fill="#ffffff" stroke="#000000" points="183,-.5 183,-19.5 290,-19.5 290,-.5 183,-.5"/>
<text text-anchor="middle" x="236.5" y="-7.5" font-family="Helvetica,sans-Serif" font-size="10.00" fill="#000000">CDBWrapper::Erase</text>
</a>
</g>
</g>
<!-- Node26&#45;&gt;Node27 -->
<g id="edge1" class="edge">
<title>Node26&#45;&gt;Node27</title>
<path fill="none" stroke="#191970" d="M147.3693,-10C155.873,-10 164.4885,-10 172.841,-10"/>
<polygon fill="#191970" stroke="#191970" points="172.8737,-13.5001 182.8737,-10 172.8737,-6.5001 172.8737,-13.5001"/>
</g>
<!-- Node28 -->
<g id="node3" class="node">
<title>Node28</title>
<g id="a_node3"><a xlink:href="class_c_d_b_batch.html#a0b9ed3a5fa7fb461cd668c5a5c7ccd42" target="_top" xlink:title="CDBBatch::Erase">
<polygon fill="#ffffff" stroke="#000000" points="326,-.5 326,-19.5 421,-19.5 421,-.5 326,-.5"/>
<text text-anchor="middle" x="373.5" y="-7.5" font-family="Helvetica,sans-Serif" font-size="10.00" fill="#000000">CDBBatch::Erase</text>
</a>
</g>
</g>
<!-- Node27&#45;&gt;Node28 -->
<g id="edge2" class="edge">
<title>Node27&#45;&gt;Node28</title>
<path fill="none" stroke="#191970" d="M290.2528,-10C298.5667,-10 307.1849,-10 315.5855,-10"/>
<polygon fill="#191970" stroke="#191970" points="315.6893,-13.5001 325.6892,-10 315.6892,-6.5001 315.6893,-13.5001"/>
</g>
<!-- Node29 -->
<g id="node4" class="node">
<title>Node29</title>
<g id="a_node4"><a xlink:href="class_c_data_stream.html#a5542e71bd7af2ab7cd7be0f381d39cb5" target="_top" xlink:title="CDataStream::reserve">
<polygon fill="#ffffff" stroke="#000000" points="457,-.5 457,-19.5 572,-19.5 572,-.5 457,-.5"/>
<text text-anchor="middle" x="514.5" y="-7.5" font-family="Helvetica,sans-Serif" font-size="10.00" fill="#000000">CDataStream::reserve</text>
</a>
</g>
</g>
<!-- Node28&#45;&gt;Node29 -->
<g id="edge3" class="edge">
<title>Node28&#45;&gt;Node29</title>
<path fill="none" stroke="#191970" d="M421.2362,-10C429.3016,-10 437.8123,-10 446.2792,-10"/>
<polygon fill="#191970" stroke="#191970" points="446.5523,-13.5001 456.5522,-10 446.5522,-6.5001 446.5523,-13.5001"/>
</g>
</g>
</svg>
