<?xml version="1.0" encoding="UTF-8" standalone="no"?>
<!DOCTYPE svg PUBLIC "-//W3C//DTD SVG 1.1//EN"
 "http://www.w3.org/Graphics/SVG/1.1/DTD/svg11.dtd">
<!-- Generated by graphviz version 2.40.1 (20161225.0304)
 -->
<!-- Title: CSHA256::Finalize Pages: 1 -->
<svg width="1042pt" height="943pt"
 viewBox="0.00 0.00 1042.00 942.50" xmlns="http://www.w3.org/2000/svg" xmlns:xlink="http://www.w3.org/1999/xlink">
<g id="graph0" class="graph" transform="scale(1 1) rotate(0) translate(4 938.5)">
<title>CSHA256::Finalize</title>
<polygon fill="#ffffff" stroke="transparent" points="-4,4 -4,-938.5 1038,-938.5 1038,4 -4,4"/>
<!-- Node3 -->
<g id="node1" class="node">
<title>Node3</title>
<polygon fill="#bfbfbf" stroke="#000000" points="0,-152.5 0,-171.5 101,-171.5 101,-152.5 0,-152.5"/>
<text text-anchor="middle" x="50.5" y="-159.5" font-family="Helvetica,sans-Serif" font-size="10.00" fill="#000000">CSHA256::Finalize</text>
</g>
<!-- Node4 -->
<g id="node2" class="node">
<title>Node4</title>
<g id="a_node2"><a xlink:href="class_c_h_m_a_c___s_h_a256.html#a63236821773ad9edb3fba4623eef39b2" target="_top" xlink:title="CHMAC_SHA256::CHMAC\l_SHA256">
<polygon fill="#ffffff" stroke="#000000" points="137,-229 137,-259 277,-259 277,-229 137,-229"/>
<text text-anchor="start" x="145" y="-247" font-family="Helvetica,sans-Serif" font-size="10.00" fill="#000000">CHMAC_SHA256::CHMAC</text>
<text text-anchor="middle" x="207" y="-236" font-family="Helvetica,sans-Serif" font-size="10.00" fill="#000000">_SHA256</text>
</a>
</g>
</g>
<!-- Node3&#45;&gt;Node4 -->
<g id="edge1" class="edge">
<title>Node3&#45;&gt;Node4</title>
<path fill="none" stroke="#191970" d="M71.214,-177.7003C88.225,-190.0794 113.2925,-207.1703 137,-219 144.2745,-222.6299 152.208,-225.9872 160.0355,-228.9864"/>
<polygon fill="#191970" stroke="#191970" points="73.2258,-174.835 63.1026,-171.7091 69.0669,-180.4656 73.2258,-174.835"/>
</g>
<!-- Node5 -->
<g id="node3" class="node">
<title>Node5</title>
<g id="a_node3"><a xlink:href="class_c_h_m_a_c___s_h_a256.html#a1cc600fd485b79dc52e11b12635c6dbe" target="_top" xlink:title="CHMAC_SHA256::Finalize">
<polygon fill="#ffffff" stroke="#000000" points="139,-190.5 139,-209.5 275,-209.5 275,-190.5 139,-190.5"/>
<text text-anchor="middle" x="207" y="-197.5" font-family="Helvetica,sans-Serif" font-size="10.00" fill="#000000">CHMAC_SHA256::Finalize</text>
</a>
</g>
</g>
<!-- Node3&#45;&gt;Node5 -->
<g id="edge2" class="edge">
<title>Node3&#45;&gt;Node5</title>
<path fill="none" stroke="#191970" d="M99.7892,-173.968C121.7203,-179.2931 147.1849,-185.4762 167.7924,-190.4799"/>
<polygon fill="#191970" stroke="#191970" points="100.5351,-170.5475 89.9916,-171.589 98.8833,-177.3498 100.5351,-170.5475"/>
</g>
<!-- Node7 -->
<g id="node5" class="node">
<title>Node7</title>
<g id="a_node5"><a xlink:href="class_c_hash256.html#aa8a70c1b7cf24ce7d00240a1131cf4e7" target="_top" xlink:title="CHash256::Finalize">
<polygon fill="#ffffff" stroke="#000000" points="324,-152.5 324,-171.5 427,-171.5 427,-152.5 324,-152.5"/>
<text text-anchor="middle" x="375.5" y="-159.5" font-family="Helvetica,sans-Serif" font-size="10.00" fill="#000000">CHash256::Finalize</text>
</a>
</g>
</g>
<!-- Node3&#45;&gt;Node7 -->
<g id="edge4" class="edge">
<title>Node3&#45;&gt;Node7</title>
<path fill="none" stroke="#191970" d="M111.5726,-162C172.7975,-162 266.0296,-162 323.7333,-162"/>
<polygon fill="#191970" stroke="#191970" points="111.2813,-158.5001 101.2813,-162 111.2812,-165.5001 111.2813,-158.5001"/>
</g>
<!-- Node215 -->
<g id="node39" class="node">
<title>Node215</title>
<g id="a_node39"><a xlink:href="class_c_hash160.html#a9bb08e1772002ae1a5d85017ba7952ee" target="_top" xlink:title="CHash160::Finalize">
<polygon fill="#ffffff" stroke="#000000" points="155.5,-114.5 155.5,-133.5 258.5,-133.5 258.5,-114.5 155.5,-114.5"/>
<text text-anchor="middle" x="207" y="-121.5" font-family="Helvetica,sans-Serif" font-size="10.00" fill="#000000">CHash160::Finalize</text>
</a>
</g>
</g>
<!-- Node3&#45;&gt;Node215 -->
<g id="edge39" class="edge">
<title>Node3&#45;&gt;Node215</title>
<path fill="none" stroke="#191970" d="M99.7892,-150.032C121.7203,-144.7069 147.1849,-138.5238 167.7924,-133.5201"/>
<polygon fill="#191970" stroke="#191970" points="98.8833,-146.6502 89.9916,-152.411 100.5351,-153.4525 98.8833,-146.6502"/>
</g>
<!-- Node267 -->
<g id="node50" class="node">
<title>Node267</title>
<g id="a_node50"><a xlink:href="validation_8cpp.html#adb3030dc3fb35c34bb10776e7d391d1a" target="_top" xlink:title="Check whether all inputs of this transaction are valid (no double spends, scripts &amp; sigs...">
<polygon fill="#ffffff" stroke="#000000" points="171,-76.5 171,-95.5 243,-95.5 243,-76.5 171,-76.5"/>
<text text-anchor="middle" x="207" y="-83.5" font-family="Helvetica,sans-Serif" font-size="10.00" fill="#000000">CheckInputs</text>
</a>
</g>
</g>
<!-- Node3&#45;&gt;Node267 -->
<g id="edge54" class="edge">
<title>Node3&#45;&gt;Node267</title>
<path fill="none" stroke="#191970" d="M70.3925,-146.2327C87.2707,-133.5276 112.5702,-116.0226 137,-105 147.6748,-100.1836 159.8318,-96.3592 170.9853,-93.4415"/>
<polygon fill="#191970" stroke="#191970" points="68.1854,-143.5146 62.3831,-152.3794 72.4471,-149.0678 68.1854,-143.5146"/>
</g>
<!-- Node6 -->
<g id="node4" class="node">
<title>Node6</title>
<g id="a_node4"><a xlink:href="class_c_h_m_a_c___s_h_a256.html#a24ac9cf00e60d8028ab79df4aed984ff" target="_top" xlink:title="CHMAC_SHA256::Write">
<polygon fill="#ffffff" stroke="#000000" points="313,-190.5 313,-209.5 438,-209.5 438,-190.5 313,-190.5"/>
<text text-anchor="middle" x="375.5" y="-197.5" font-family="Helvetica,sans-Serif" font-size="10.00" fill="#000000">CHMAC_SHA256::Write</text>
</a>
</g>
</g>
<!-- Node5&#45;&gt;Node6 -->
<g id="edge3" class="edge">
<title>Node5&#45;&gt;Node6</title>
<path fill="none" stroke="#191970" d="M285.1043,-200C294.4269,-200 303.8504,-200 312.9149,-200"/>
<polygon fill="#191970" stroke="#191970" points="285.0497,-196.5001 275.0497,-200 285.0497,-203.5001 285.0497,-196.5001"/>
</g>
<!-- Node8 -->
<g id="node6" class="node">
<title>Node8</title>
<g id="a_node6"><a xlink:href="hash_8h.html#ab3f6c437460137530d86e09c2c102e99" target="_top" xlink:title="Compute the 256&#45;bit hash of an object. ">
<polygon fill="#ffffff" stroke="#000000" points="528,-622.5 528,-641.5 568,-641.5 568,-622.5 528,-622.5"/>
<text text-anchor="middle" x="548" y="-629.5" font-family="Helvetica,sans-Serif" font-size="10.00" fill="#000000">Hash</text>
</a>
</g>
</g>
<!-- Node7&#45;&gt;Node8 -->
<g id="edge5" class="edge">
<title>Node7&#45;&gt;Node8</title>
<path fill="none" stroke="#191970" d="M433.5798,-176.9645C435.1461,-178.2052 436.6266,-179.5477 438,-181 454.1276,-198.0552 532.0202,-557.666 545.8864,-622.1459"/>
<polygon fill="#191970" stroke="#191970" points="435.4426,-174.0013 425.1306,-171.5698 431.6755,-179.9013 435.4426,-174.0013"/>
</g>
<!-- Node208 -->
<g id="node31" class="node">
<title>Node208</title>
<g id="a_node31"><a xlink:href="class_c_hash_writer.html#ae94a937211502eabf19477630090093a" target="_top" xlink:title="CHashWriter::GetHash">
<polygon fill="#ffffff" stroke="#000000" points="488.5,-152.5 488.5,-171.5 607.5,-171.5 607.5,-152.5 488.5,-152.5"/>
<text text-anchor="middle" x="548" y="-159.5" font-family="Helvetica,sans-Serif" font-size="10.00" fill="#000000">CHashWriter::GetHash</text>
</a>
</g>
</g>
<!-- Node7&#45;&gt;Node208 -->
<g id="edge31" class="edge">
<title>Node7&#45;&gt;Node208</title>
<path fill="none" stroke="#191970" d="M437.4015,-162C454.0081,-162 471.9264,-162 488.4051,-162"/>
<polygon fill="#191970" stroke="#191970" points="437.2557,-158.5001 427.2557,-162 437.2557,-165.5001 437.2557,-158.5001"/>
</g>
<!-- Node9 -->
<g id="node7" class="node">
<title>Node9</title>
<g id="a_node7"><a xlink:href="struct_c_asset_cache_qualifier_address.html#a42a04e8d4b29f97d31230e9dbaa1640f" target="_top" xlink:title="CAssetCacheQualifierAddress\l::GetHash">
<polygon fill="#ffffff" stroke="#000000" points="669,-904 669,-934 819,-934 819,-904 669,-904"/>
<text text-anchor="start" x="677" y="-922" font-family="Helvetica,sans-Serif" font-size="10.00" fill="#000000">CAssetCacheQualifierAddress</text>
<text text-anchor="middle" x="744" y="-911" font-family="Helvetica,sans-Serif" font-size="10.00" fill="#000000">::GetHash</text>
</a>
</g>
</g>
<!-- Node8&#45;&gt;Node9 -->
<g id="edge6" class="edge">
<title>Node8&#45;&gt;Node9</title>
<path fill="none" stroke="#191970" d="M550.3906,-651.7762C557.3714,-700.6735 582.2709,-828.1234 658,-895 661.8343,-898.386 666.109,-901.2979 670.6471,-903.8016"/>
<polygon fill="#191970" stroke="#191970" points="553.8256,-651.0548 549.0402,-641.6023 546.8865,-651.976 553.8256,-651.0548"/>
</g>
<!-- Node23 -->
<g id="node9" class="node">
<title>Node23</title>
<g id="a_node9"><a xlink:href="struct_c_asset_cache_restricted_address.html#a2262710323cfeca3eb84254f4124bade" target="_top" xlink:title="CAssetCacheRestrictedAddress\l::GetHash">
<polygon fill="#ffffff" stroke="#000000" points="664.5,-855 664.5,-885 823.5,-885 823.5,-855 664.5,-855"/>
<text text-anchor="start" x="672.5" y="-873" font-family="Helvetica,sans-Serif" font-size="10.00" fill="#000000">CAssetCacheRestrictedAddress</text>
<text text-anchor="middle" x="744" y="-862" font-family="Helvetica,sans-Serif" font-size="10.00" fill="#000000">::GetHash</text>
</a>
</g>
</g>
<!-- Node8&#45;&gt;Node23 -->
<g id="edge8" class="edge">
<title>Node8&#45;&gt;Node23</title>
<path fill="none" stroke="#191970" d="M552.4642,-651.7474C563.0638,-694.0166 593.8069,-793.6558 658,-846 662.2047,-849.4286 666.8672,-852.3683 671.7837,-854.8887"/>
<polygon fill="#191970" stroke="#191970" points="555.83,-650.7736 550.0956,-641.8647 549.0227,-652.4051 555.83,-650.7736"/>
</g>
<!-- Node28 -->
<g id="node11" class="node">
<title>Node28</title>
<g id="a_node11"><a xlink:href="struct_c_asset_cache_root_qualifier_checker.html#a482febad043621b881cb7c8dab3aa182" target="_top" xlink:title="CAssetCacheRootQualifier\lChecker::GetHash">
<polygon fill="#ffffff" stroke="#000000" points="676.5,-806 676.5,-836 811.5,-836 811.5,-806 676.5,-806"/>
<text text-anchor="start" x="684.5" y="-824" font-family="Helvetica,sans-Serif" font-size="10.00" fill="#000000">CAssetCacheRootQualifier</text>
<text text-anchor="middle" x="744" y="-813" font-family="Helvetica,sans-Serif" font-size="10.00" fill="#000000">Checker::GetHash</text>
</a>
</g>
</g>
<!-- Node8&#45;&gt;Node28 -->
<g id="edge10" class="edge">
<title>Node8&#45;&gt;Node28</title>
<path fill="none" stroke="#191970" d="M555.608,-651.2443C570.181,-685.599 605.3348,-757.4846 658,-796 663.5222,-800.0385 669.6867,-803.4274 676.1095,-806.2705"/>
<polygon fill="#191970" stroke="#191970" points="558.7912,-649.7821 551.7495,-641.8659 552.3176,-652.4455 558.7912,-649.7821"/>
</g>
<!-- Node29 -->
<g id="node12" class="node">
<title>Node29</title>
<g id="a_node12"><a xlink:href="base58_8h.html#ace9a5807ee51604f33044339f073ec76" target="_top" xlink:title="Encode a byte vector into a base58&#45;encoded string, including checksum. ">
<polygon fill="#ffffff" stroke="#000000" points="688.5,-767.5 688.5,-786.5 799.5,-786.5 799.5,-767.5 688.5,-767.5"/>
<text text-anchor="middle" x="744" y="-774.5" font-family="Helvetica,sans-Serif" font-size="10.00" fill="#000000">EncodeBase58Check</text>
</a>
</g>
</g>
<!-- Node8&#45;&gt;Node29 -->
<g id="edge11" class="edge">
<title>Node8&#45;&gt;Node29</title>
<path fill="none" stroke="#191970" d="M558.7278,-650.5177C575.9284,-678.4525 612.4213,-730.9713 658,-758 667.2064,-763.4595 677.8081,-767.3539 688.3537,-770.1309"/>
<polygon fill="#191970" stroke="#191970" points="561.6105,-648.5193 553.465,-641.7442 555.6076,-652.1201 561.6105,-648.5193"/>
</g>
<!-- Node172 -->
<g id="node14" class="node">
<title>Node172</title>
<g id="a_node14"><a xlink:href="base58_8h.html#ae2dc7ad63e243509e0871ec4a5890678" target="_top" xlink:title="Decode a base58&#45;encoded string (psz) that includes a checksum into a byte vector (vchRet), return true if decoding is successful. ">
<polygon fill="#ffffff" stroke="#000000" points="688,-729.5 688,-748.5 800,-748.5 800,-729.5 688,-729.5"/>
<text text-anchor="middle" x="744" y="-736.5" font-family="Helvetica,sans-Serif" font-size="10.00" fill="#000000">DecodeBase58Check</text>
</a>
</g>
</g>
<!-- Node8&#45;&gt;Node172 -->
<g id="edge13" class="edge">
<title>Node8&#45;&gt;Node172</title>
<path fill="none" stroke="#191970" d="M564.0672,-648.9125C584.1291,-668.9937 620.4083,-702.0221 658,-720 667.2422,-724.42 677.5374,-727.8278 687.7013,-730.4505"/>
<polygon fill="#191970" stroke="#191970" points="566.4675,-646.3611 556.9701,-641.6654 561.4663,-651.2589 566.4675,-646.3611"/>
</g>
<!-- Node184 -->
<g id="node17" class="node">
<title>Node184</title>
<g id="a_node17"><a xlink:href="merkle_8h.html#ae1d841c761af779931b3e9c26751cf14" target="_top" xlink:title="ComputeMerkleRootFromBranch">
<polygon fill="#ffffff" stroke="#000000" points="664,-691.5 664,-710.5 824,-710.5 824,-691.5 664,-691.5"/>
<text text-anchor="middle" x="744" y="-698.5" font-family="Helvetica,sans-Serif" font-size="10.00" fill="#000000">ComputeMerkleRootFromBranch</text>
</a>
</g>
</g>
<!-- Node8&#45;&gt;Node184 -->
<g id="edge16" class="edge">
<title>Node8&#45;&gt;Node184</title>
<path fill="none" stroke="#191970" d="M574.8388,-646.1181C596.727,-657.1586 628.7055,-672.226 658,-682 669.0235,-685.6779 681.0813,-688.8467 692.5879,-691.4844"/>
<polygon fill="#191970" stroke="#191970" points="576.3232,-642.9461 565.826,-641.5114 573.1374,-649.1792 576.3232,-642.9461"/>
</g>
<!-- Node185 -->
<g id="node18" class="node">
<title>Node185</title>
<g id="a_node18"><a xlink:href="class_c_partial_merkle_tree.html#a69e7771f95c498f6a340dcc227abcde4" target="_top" xlink:title="calculate the hash of a node in the merkle tree (at leaf level: the txid&#39;s themselves) ...">
<polygon fill="#ffffff" stroke="#000000" points="693.5,-642 693.5,-672 794.5,-672 794.5,-642 693.5,-642"/>
<text text-anchor="start" x="701.5" y="-660" font-family="Helvetica,sans-Serif" font-size="10.00" fill="#000000">CPartialMerkleTree</text>
<text text-anchor="middle" x="744" y="-649" font-family="Helvetica,sans-Serif" font-size="10.00" fill="#000000">::CalcHash</text>
</a>
</g>
</g>
<!-- Node8&#45;&gt;Node185 -->
<g id="edge17" class="edge">
<title>Node8&#45;&gt;Node185</title>
<path fill="none" stroke="#191970" d="M578.3038,-635.8653C608.9305,-639.7717 656.8066,-645.8784 693.2364,-650.525"/>
<polygon fill="#191970" stroke="#191970" points="578.5997,-632.3748 568.2372,-634.5813 577.714,-639.3185 578.5997,-632.3748"/>
</g>
<!-- Node188 -->
<g id="node20" class="node">
<title>Node188</title>
<g id="a_node20"><a xlink:href="class_c_partial_merkle_tree.html#ae91d33a101afde8870f56b2cd5526441" target="_top" xlink:title="recursive function that traverses tree nodes, consuming the bits and hashes produced by TraverseAndBu...">
<polygon fill="#ffffff" stroke="#000000" points="689,-593 689,-623 799,-623 799,-593 689,-593"/>
<text text-anchor="start" x="697" y="-611" font-family="Helvetica,sans-Serif" font-size="10.00" fill="#000000">CPartialMerkleTree</text>
<text text-anchor="middle" x="744" y="-600" font-family="Helvetica,sans-Serif" font-size="10.00" fill="#000000">::TraverseAndExtract</text>
</a>
</g>
</g>
<!-- Node8&#45;&gt;Node188 -->
<g id="edge19" class="edge">
<title>Node8&#45;&gt;Node188</title>
<path fill="none" stroke="#191970" d="M578.2917,-628.2908C607.6585,-624.6949 652.8929,-619.156 688.6855,-614.7732"/>
<polygon fill="#191970" stroke="#191970" points="577.7377,-624.8324 568.2372,-629.522 578.5885,-631.7805 577.7377,-624.8324"/>
</g>
<!-- Node189 -->
<g id="node21" class="node">
<title>Node189</title>
<g id="a_node21"><a xlink:href="class_c_connman.html#adc69330bc472e50487030c031d5063db" target="_top" xlink:title="CConnman::PushMessage">
<polygon fill="#ffffff" stroke="#000000" points="677,-554.5 677,-573.5 811,-573.5 811,-554.5 677,-554.5"/>
<text text-anchor="middle" x="744" y="-561.5" font-family="Helvetica,sans-Serif" font-size="10.00" fill="#000000">CConnman::PushMessage</text>
</a>
</g>
</g>
<!-- Node8&#45;&gt;Node189 -->
<g id="edge21" class="edge">
<title>Node8&#45;&gt;Node189</title>
<path fill="none" stroke="#191970" d="M576.1129,-618.0266C598.0131,-607.5625 629.3998,-593.4771 658,-584 670.0773,-579.998 683.3633,-576.4887 695.8048,-573.5733"/>
<polygon fill="#191970" stroke="#191970" points="574.5324,-614.9031 567.0534,-622.4075 577.5798,-621.205 574.5324,-614.9031"/>
</g>
<!-- Node190 -->
<g id="node22" class="node">
<title>Node190</title>
<g id="a_node22"><a xlink:href="class_c_net_addr.html#a8fae7d32e83e9fbb9ce0216f896133c9" target="_top" xlink:title="CNetAddr::GetHash">
<polygon fill="#ffffff" stroke="#000000" points="691.5,-516.5 691.5,-535.5 796.5,-535.5 796.5,-516.5 691.5,-516.5"/>
<text text-anchor="middle" x="744" y="-523.5" font-family="Helvetica,sans-Serif" font-size="10.00" fill="#000000">CNetAddr::GetHash</text>
</a>
</g>
</g>
<!-- Node8&#45;&gt;Node190 -->
<g id="edge22" class="edge">
<title>Node8&#45;&gt;Node190</title>
<path fill="none" stroke="#191970" d="M564.1063,-615.2866C584.207,-595.4404 620.5247,-562.7942 658,-545 668.3594,-540.0811 680.0303,-536.4136 691.3551,-533.6864"/>
<polygon fill="#191970" stroke="#191970" points="561.5569,-612.8867 556.9941,-622.4487 566.5239,-617.8192 561.5569,-612.8867"/>
</g>
<!-- Node202 -->
<g id="node26" class="node">
<title>Node202</title>
<g id="a_node26"><a xlink:href="class_c_pub_key.html#ab1aaa3f6085a3e9bc034d3e1269d870d" target="_top" xlink:title="Get the 256&#45;bit hash of this public key. ">
<polygon fill="#ffffff" stroke="#000000" points="692,-478.5 692,-497.5 796,-497.5 796,-478.5 692,-478.5"/>
<text text-anchor="middle" x="744" y="-485.5" font-family="Helvetica,sans-Serif" font-size="10.00" fill="#000000">CPubKey::GetHash</text>
</a>
</g>
</g>
<!-- Node8&#45;&gt;Node202 -->
<g id="edge26" class="edge">
<title>Node8&#45;&gt;Node202</title>
<path fill="none" stroke="#191970" d="M558.7654,-613.6301C576.0157,-585.9181 612.5732,-533.8175 658,-507 668.2705,-500.9369 680.2662,-496.8046 691.9823,-493.9894"/>
<polygon fill="#191970" stroke="#191970" points="555.6798,-611.9684 553.4861,-622.3336 561.6648,-615.5988 555.6798,-611.9684"/>
</g>
<!-- Node203 -->
<g id="node27" class="node">
<title>Node203</title>
<g id="a_node27"><a xlink:href="class_c_wallet_d_b.html#a7ebef5e0c7f604aa2159ba96d527e3a2" target="_top" xlink:title="CWalletDB::WriteKey">
<polygon fill="#ffffff" stroke="#000000" points="687.5,-440.5 687.5,-459.5 800.5,-459.5 800.5,-440.5 687.5,-440.5"/>
<text text-anchor="middle" x="744" y="-447.5" font-family="Helvetica,sans-Serif" font-size="10.00" fill="#000000">CWalletDB::WriteKey</text>
</a>
</g>
</g>
<!-- Node8&#45;&gt;Node203 -->
<g id="edge27" class="edge">
<title>Node8&#45;&gt;Node203</title>
<path fill="none" stroke="#191970" d="M555.1971,-613.0225C569.3088,-578.5243 604.0214,-505.7148 658,-469 666.7238,-463.0663 676.9926,-458.951 687.3397,-456.1048"/>
<polygon fill="#191970" stroke="#191970" points="551.9049,-611.8301 551.4805,-622.4165 558.414,-614.4054 551.9049,-611.8301"/>
</g>
<!-- Node206 -->
<g id="node29" class="node">
<title>Node206</title>
<g id="a_node29"><a xlink:href="walletdb_8cpp.html#aebac4c34dd06c6ce4249ed71914401fb" target="_top" xlink:title="ReadKeyValue">
<polygon fill="#ffffff" stroke="#000000" points="703,-364.5 703,-383.5 785,-383.5 785,-364.5 703,-364.5"/>
<text text-anchor="middle" x="744" y="-371.5" font-family="Helvetica,sans-Serif" font-size="10.00" fill="#000000">ReadKeyValue</text>
</a>
</g>
</g>
<!-- Node8&#45;&gt;Node206 -->
<g id="edge29" class="edge">
<title>Node8&#45;&gt;Node206</title>
<path fill="none" stroke="#191970" d="M554.8881,-612.7522C569.2786,-574.5738 605.5993,-488.031 658,-431 677.1482,-410.1598 705.4195,-393.3318 724.2586,-383.5018"/>
<polygon fill="#191970" stroke="#191970" points="551.5901,-611.5799 551.4157,-622.1733 558.1582,-614.0008 551.5901,-611.5799"/>
</g>
<!-- Node10 -->
<g id="node8" class="node">
<title>Node10</title>
<g id="a_node8"><a xlink:href="class_c_assets_cache.html#aca574b6303dcc473b92373f54d4798ff" target="_top" xlink:title="Return true if the address has the given qualifier assigned to it. ">
<polygon fill="#ffffff" stroke="#ff0000" points="866,-904 866,-934 1034,-934 1034,-904 866,-904"/>
<text text-anchor="start" x="874" y="-922" font-family="Helvetica,sans-Serif" font-size="10.00" fill="#000000">CAssetsCache::CheckForAddress</text>
<text text-anchor="middle" x="950" y="-911" font-family="Helvetica,sans-Serif" font-size="10.00" fill="#000000">Qualifier</text>
</a>
</g>
</g>
<!-- Node9&#45;&gt;Node10 -->
<g id="edge7" class="edge">
<title>Node9&#45;&gt;Node10</title>
<path fill="none" stroke="#191970" d="M829.3108,-919C841.4058,-919 853.8362,-919 865.9078,-919"/>
<polygon fill="#191970" stroke="#191970" points="829.2452,-915.5001 819.2452,-919 829.2451,-922.5001 829.2452,-915.5001"/>
</g>
<!-- Node24 -->
<g id="node10" class="node">
<title>Node24</title>
<g id="a_node10"><a xlink:href="class_c_assets_cache.html#a47bf79cae996da8e22ae785cddb09288" target="_top" xlink:title="Return true if the address is marked as frozen. ">
<polygon fill="#ffffff" stroke="#ff0000" points="866,-855 866,-885 1034,-885 1034,-855 866,-855"/>
<text text-anchor="start" x="874" y="-873" font-family="Helvetica,sans-Serif" font-size="10.00" fill="#000000">CAssetsCache::CheckForAddress</text>
<text text-anchor="middle" x="950" y="-862" font-family="Helvetica,sans-Serif" font-size="10.00" fill="#000000">Restriction</text>
</a>
</g>
</g>
<!-- Node23&#45;&gt;Node24 -->
<g id="edge9" class="edge">
<title>Node23&#45;&gt;Node24</title>
<path fill="none" stroke="#191970" d="M833.7698,-870C844.407,-870 855.2357,-870 865.7917,-870"/>
<polygon fill="#191970" stroke="#191970" points="833.645,-866.5001 823.645,-870 833.6449,-873.5001 833.645,-866.5001"/>
</g>
<!-- Node30 -->
<g id="node13" class="node">
<title>Node30</title>
<g id="a_node13"><a xlink:href="class_c_base58_data.html#a7dc91af403ca02694b3247b15604e220" target="_top" xlink:title="CBase58Data::ToString">
<polygon fill="#ffffff" stroke="#ff0000" points="889.5,-767.5 889.5,-786.5 1010.5,-786.5 1010.5,-767.5 889.5,-767.5"/>
<text text-anchor="middle" x="950" y="-774.5" font-family="Helvetica,sans-Serif" font-size="10.00" fill="#000000">CBase58Data::ToString</text>
</a>
</g>
</g>
<!-- Node29&#45;&gt;Node30 -->
<g id="edge12" class="edge">
<title>Node29&#45;&gt;Node30</title>
<path fill="none" stroke="#191970" d="M810.0248,-777C835.4147,-777 864.2608,-777 889.1423,-777"/>
<polygon fill="#191970" stroke="#191970" points="809.7466,-773.5001 799.7466,-777 809.7465,-780.5001 809.7466,-773.5001"/>
</g>
<!-- Node173 -->
<g id="node15" class="node">
<title>Node173</title>
<g id="a_node15"><a xlink:href="base58_8h.html#a96597527b13547236b99430e6ac195b3" target="_top" xlink:title="Decode a base58&#45;encoded string (str) that includes a checksum into a byte vector (vchRet), return true if decoding is successful. ">
<polygon fill="#ffffff" stroke="#000000" points="894,-729.5 894,-748.5 1006,-748.5 1006,-729.5 894,-729.5"/>
<text text-anchor="middle" x="950" y="-736.5" font-family="Helvetica,sans-Serif" font-size="10.00" fill="#000000">DecodeBase58Check</text>
</a>
</g>
</g>
<!-- Node172&#45;&gt;Node173 -->
<g id="edge14" class="edge">
<title>Node172&#45;&gt;Node173</title>
<path fill="none" stroke="#191970" d="M810.1663,-739C837.1907,-739 868.1112,-739 893.9929,-739"/>
<polygon fill="#191970" stroke="#191970" points="810.0183,-735.5001 800.0183,-739 810.0183,-742.5001 810.0183,-735.5001"/>
</g>
<!-- Node174 -->
<g id="node16" class="node">
<title>Node174</title>
<g id="a_node16"><a xlink:href="class_c_base58_data.html#a250fa3bc97d03c7d87de5485c8b49b57" target="_top" xlink:title="CBase58Data::SetString">
<polygon fill="#ffffff" stroke="#ff0000" points="887.5,-691.5 887.5,-710.5 1012.5,-710.5 1012.5,-691.5 887.5,-691.5"/>
<text text-anchor="middle" x="950" y="-698.5" font-family="Helvetica,sans-Serif" font-size="10.00" fill="#000000">CBase58Data::SetString</text>
</a>
</g>
</g>
<!-- Node172&#45;&gt;Node174 -->
<g id="edge15" class="edge">
<title>Node172&#45;&gt;Node174</title>
<path fill="none" stroke="#191970" d="M805.8982,-727.5819C835.3731,-722.1448 870.2197,-715.7168 898.2621,-710.5439"/>
<polygon fill="#191970" stroke="#191970" points="804.9157,-724.204 795.7166,-729.46 806.1856,-731.0878 804.9157,-724.204"/>
</g>
<!-- Node186 -->
<g id="node19" class="node">
<title>Node186</title>
<g id="a_node19"><a xlink:href="class_c_partial_merkle_tree.html#afe616f62948526024ae4fc6655f3abcf" target="_top" xlink:title="helper function to efficiently calculate the number of nodes at given height in the merkle tree ...">
<polygon fill="#ffffff" stroke="#ff0000" points="899.5,-618 899.5,-648 1000.5,-648 1000.5,-618 899.5,-618"/>
<text text-anchor="start" x="907.5" y="-636" font-family="Helvetica,sans-Serif" font-size="10.00" fill="#000000">CPartialMerkleTree</text>
<text text-anchor="middle" x="950" y="-625" font-family="Helvetica,sans-Serif" font-size="10.00" fill="#000000">::CalcTreeWidth</text>
</a>
</g>
</g>
<!-- Node185&#45;&gt;Node186 -->
<g id="edge18" class="edge">
<title>Node185&#45;&gt;Node186</title>
<path fill="none" stroke="#191970" d="M804.6102,-649.9386C834.675,-646.4359 870.5766,-642.2532 899.1814,-638.9206"/>
<polygon fill="#191970" stroke="#191970" points="804.1849,-646.4644 794.6571,-651.0982 804.995,-653.4174 804.1849,-646.4644"/>
</g>
<!-- Node188&#45;&gt;Node186 -->
<g id="edge20" class="edge">
<title>Node188&#45;&gt;Node186</title>
<path fill="none" stroke="#191970" d="M809.2772,-615.922C838.3561,-619.451 872.0893,-623.5448 899.2377,-626.8395"/>
<polygon fill="#191970" stroke="#191970" points="809.5531,-612.4299 799.2042,-614.6995 808.7097,-619.3789 809.5531,-612.4299"/>
</g>
<!-- Node191 -->
<g id="node23" class="node">
<title>Node191</title>
<g id="a_node23"><a xlink:href="class_c_addr_info.html#a11e2712f11c0d92c75976e90f2c5003e" target="_top" xlink:title="Calculate in which &quot;tried&quot; bucket this entry belongs. ">
<polygon fill="#ffffff" stroke="#ff0000" points="882.5,-554.5 882.5,-573.5 1017.5,-573.5 1017.5,-554.5 882.5,-554.5"/>
<text text-anchor="middle" x="950" y="-561.5" font-family="Helvetica,sans-Serif" font-size="10.00" fill="#000000">CAddrInfo::GetTriedBucket</text>
</a>
</g>
</g>
<!-- Node190&#45;&gt;Node191 -->
<g id="edge23" class="edge">
<title>Node190&#45;&gt;Node191</title>
<path fill="none" stroke="#191970" d="M805.8982,-537.4181C835.3731,-542.8552 870.2197,-549.2832 898.2621,-554.4561"/>
<polygon fill="#191970" stroke="#191970" points="806.1856,-533.9122 795.7166,-535.54 804.9157,-540.796 806.1856,-533.9122"/>
</g>
<!-- Node197 -->
<g id="node24" class="node">
<title>Node197</title>
<g id="a_node24"><a xlink:href="class_c_addr_info.html#ae4459cd7719834bbcf77874757c6875e" target="_top" xlink:title="Calculate in which &quot;new&quot; bucket this entry belongs, given a certain source. ">
<polygon fill="#ffffff" stroke="#ff0000" points="883,-516.5 883,-535.5 1017,-535.5 1017,-516.5 883,-516.5"/>
<text text-anchor="middle" x="950" y="-523.5" font-family="Helvetica,sans-Serif" font-size="10.00" fill="#000000">CAddrInfo::GetNewBucket</text>
</a>
</g>
</g>
<!-- Node190&#45;&gt;Node197 -->
<g id="edge24" class="edge">
<title>Node190&#45;&gt;Node197</title>
<path fill="none" stroke="#191970" d="M806.6026,-526C830.6841,-526 858.2664,-526 882.7662,-526"/>
<polygon fill="#191970" stroke="#191970" points="806.5155,-522.5001 796.5155,-526 806.5155,-529.5001 806.5155,-522.5001"/>
</g>
<!-- Node200 -->
<g id="node25" class="node">
<title>Node200</title>
<g id="a_node25"><a xlink:href="class_c_addr_info.html#a3a133ffb3fbf67cbeb5f4bc683fa9126" target="_top" xlink:title="Calculate in which position of a bucket to store this entry. ">
<polygon fill="#ffffff" stroke="#ff0000" points="875.5,-478.5 875.5,-497.5 1024.5,-497.5 1024.5,-478.5 875.5,-478.5"/>
<text text-anchor="middle" x="950" y="-485.5" font-family="Helvetica,sans-Serif" font-size="10.00" fill="#000000">CAddrInfo::GetBucketPosition</text>
</a>
</g>
</g>
<!-- Node190&#45;&gt;Node200 -->
<g id="edge25" class="edge">
<title>Node190&#45;&gt;Node200</title>
<path fill="none" stroke="#191970" d="M805.8982,-514.5819C835.3731,-509.1448 870.2197,-502.7168 898.2621,-497.5439"/>
<polygon fill="#191970" stroke="#191970" points="804.9157,-511.204 795.7166,-516.46 806.1856,-518.0878 804.9157,-511.204"/>
</g>
<!-- Node204 -->
<g id="node28" class="node">
<title>Node204</title>
<g id="a_node28"><a xlink:href="group__map_wallet.html#gacc1f62c9141576557cb98551cf78dc67" target="_top" xlink:title="CWallet::AddKeyPubKeyWithDB">
<polygon fill="#ffffff" stroke="#ff0000" points="869.5,-424.5 869.5,-443.5 1030.5,-443.5 1030.5,-424.5 869.5,-424.5"/>
<text text-anchor="middle" x="950" y="-431.5" font-family="Helvetica,sans-Serif" font-size="10.00" fill="#000000">CWallet::AddKeyPubKeyWithDB</text>
</a>
</g>
</g>
<!-- Node203&#45;&gt;Node204 -->
<g id="edge28" class="edge">
<title>Node203&#45;&gt;Node204</title>
<path fill="none" stroke="#191970" d="M810.7257,-444.8174C829.3895,-443.3678 849.8751,-441.7767 869.2565,-440.2713"/>
<polygon fill="#191970" stroke="#191970" points="810.2618,-441.3428 800.5629,-445.6068 810.8039,-448.3218 810.2618,-441.3428"/>
</g>
<!-- Node207 -->
<g id="node30" class="node">
<title>Node207</title>
<g id="a_node30"><a xlink:href="class_c_wallet_d_b.html#a5b0ec9c8643c62d62ebffd55cf5b09c8" target="_top" xlink:title="CWalletDB::RecoverKeysOnly\lFilter">
<polygon fill="#ffffff" stroke="#000000" points="874,-359 874,-389 1026,-389 1026,-359 874,-359"/>
<text text-anchor="start" x="882" y="-377" font-family="Helvetica,sans-Serif" font-size="10.00" fill="#000000">CWalletDB::RecoverKeysOnly</text>
<text text-anchor="middle" x="950" y="-366" font-family="Helvetica,sans-Serif" font-size="10.00" fill="#000000">Filter</text>
</a>
</g>
</g>
<!-- Node206&#45;&gt;Node207 -->
<g id="edge30" class="edge">
<title>Node206&#45;&gt;Node207</title>
<path fill="none" stroke="#191970" d="M795.3713,-374C819.083,-374 847.7184,-374 873.8693,-374"/>
<polygon fill="#191970" stroke="#191970" points="795.1921,-370.5001 785.1921,-374 795.192,-377.5001 795.1921,-370.5001"/>
</g>
<!-- Node209 -->
<g id="node32" class="node">
<title>Node209</title>
<g id="a_node32"><a xlink:href="class_sign_verify_message_dialog.html#ae37dec200b27f23c409221511447ae1e" target="_top" xlink:title="SignVerifyMessageDialog\l::on_verifyMessageButton\l_VM_clicked">
<polygon fill="#ffffff" stroke="#000000" points="678.5,-190.5 678.5,-231.5 809.5,-231.5 809.5,-190.5 678.5,-190.5"/>
<text text-anchor="start" x="686.5" y="-219.5" font-family="Helvetica,sans-Serif" font-size="10.00" fill="#000000">SignVerifyMessageDialog</text>
<text text-anchor="start" x="686.5" y="-208.5" font-family="Helvetica,sans-Serif" font-size="10.00" fill="#000000">::on_verifyMessageButton</text>
<text text-anchor="middle" x="744" y="-197.5" font-family="Helvetica,sans-Serif" font-size="10.00" fill="#000000">_VM_clicked</text>
</a>
</g>
</g>
<!-- Node208&#45;&gt;Node209 -->
<g id="edge32" class="edge">
<title>Node208&#45;&gt;Node209</title>
<path fill="none" stroke="#191970" d="M596.1467,-174.0367C620.9349,-180.2337 651.523,-187.8808 678.4336,-194.6084"/>
<polygon fill="#191970" stroke="#191970" points="596.8064,-170.5939 586.2561,-171.564 595.1086,-177.3849 596.8064,-170.5939"/>
</g>
<!-- Node210 -->
<g id="node33" class="node">
<title>Node210</title>
<g id="a_node33"><a xlink:href="misc_8cpp.html#a0b6a5eab4e4ad2898bdc4dfb0be1da73" target="_top" xlink:title="verifymessage">
<polygon fill="#ffffff" stroke="#000000" points="704,-152.5 704,-171.5 784,-171.5 784,-152.5 704,-152.5"/>
<text text-anchor="middle" x="744" y="-159.5" font-family="Helvetica,sans-Serif" font-size="10.00" fill="#000000">verifymessage</text>
</a>
</g>
</g>
<!-- Node208&#45;&gt;Node210 -->
<g id="edge33" class="edge">
<title>Node208&#45;&gt;Node210</title>
<path fill="none" stroke="#191970" d="M617.663,-162C646.5762,-162 679.0897,-162 703.8917,-162"/>
<polygon fill="#191970" stroke="#191970" points="617.6048,-158.5001 607.6048,-162 617.6047,-165.5001 617.6048,-158.5001"/>
</g>
<!-- Node177 -->
<g id="node34" class="node">
<title>Node177</title>
<g id="a_node34"><a xlink:href="misc_8cpp.html#a7cc5c728930b938ed47704a71c0d0b02" target="_top" xlink:title="signmessagewithprivkey">
<polygon fill="#ffffff" stroke="#000000" points="682,-114.5 682,-133.5 806,-133.5 806,-114.5 682,-114.5"/>
<text text-anchor="middle" x="744" y="-121.5" font-family="Helvetica,sans-Serif" font-size="10.00" fill="#000000">signmessagewithprivkey</text>
</a>
</g>
</g>
<!-- Node208&#45;&gt;Node177 -->
<g id="edge34" class="edge">
<title>Node208&#45;&gt;Node177</title>
<path fill="none" stroke="#191970" d="M607.2612,-150.5106C635.227,-145.0886 668.2091,-138.6942 694.7737,-133.5439"/>
<polygon fill="#191970" stroke="#191970" points="606.3571,-147.1206 597.2061,-152.46 607.6895,-153.9927 606.3571,-147.1206"/>
</g>
<!-- Node211 -->
<g id="node35" class="node">
<title>Node211</title>
<g id="a_node35"><a xlink:href="interpreter_8h.html#a749017a9362e0080519b52d70368b0e2" target="_top" xlink:title="SignatureHash">
<polygon fill="#ffffff" stroke="#000000" points="703.5,-76.5 703.5,-95.5 784.5,-95.5 784.5,-76.5 703.5,-76.5"/>
<text text-anchor="middle" x="744" y="-83.5" font-family="Helvetica,sans-Serif" font-size="10.00" fill="#000000">SignatureHash</text>
</a>
</g>
</g>
<!-- Node208&#45;&gt;Node211 -->
<g id="edge35" class="edge">
<title>Node208&#45;&gt;Node211</title>
<path fill="none" stroke="#191970" d="M609.8396,-149.0027C614.0683,-147.2462 618.1668,-145.2556 622,-143 642.0507,-131.2015 637.7523,-116.4571 658,-105 671.7071,-97.2439 688.306,-92.6533 703.2507,-89.9365"/>
<polygon fill="#191970" stroke="#191970" points="608.5907,-145.7328 600.4269,-152.4857 611.02,-152.2978 608.5907,-145.7328"/>
</g>
<!-- Node214 -->
<g id="node38" class="node">
<title>Node214</title>
<g id="a_node38"><a xlink:href="rpcwallet_8cpp.html#a8b18eac056b0261feaa2381f30b3e9d8" target="_top" xlink:title="signmessage">
<polygon fill="#ffffff" stroke="#000000" points="707,-38.5 707,-57.5 781,-57.5 781,-38.5 707,-38.5"/>
<text text-anchor="middle" x="744" y="-45.5" font-family="Helvetica,sans-Serif" font-size="10.00" fill="#000000">signmessage</text>
</a>
</g>
</g>
<!-- Node208&#45;&gt;Node214 -->
<g id="edge38" class="edge">
<title>Node208&#45;&gt;Node214</title>
<path fill="none" stroke="#191970" d="M615.4561,-147.6606C617.7485,-146.2481 619.941,-144.6989 622,-143 650.8288,-119.2126 628.7723,-90.2955 658,-67 671.7508,-56.0401 690.502,-51.0929 706.9861,-48.9679"/>
<polygon fill="#191970" stroke="#191970" points="613.4607,-144.7525 606.1903,-152.4591 616.6797,-150.9684 613.4607,-144.7525"/>
</g>
<!-- Node212 -->
<g id="node36" class="node">
<title>Node212</title>
<g id="a_node36"><a xlink:href="class_transaction_signature_checker.html#a6b890d261f895567a9ecfd28a1be0314" target="_top" xlink:title="TransactionSignatureChecker\l::CheckSig">
<polygon fill="#ffffff" stroke="#000000" points="877,-95 877,-125 1023,-125 1023,-95 877,-95"/>
<text text-anchor="start" x="885" y="-113" font-family="Helvetica,sans-Serif" font-size="10.00" fill="#000000">TransactionSignatureChecker</text>
<text text-anchor="middle" x="950" y="-102" font-family="Helvetica,sans-Serif" font-size="10.00" fill="#000000">::CheckSig</text>
</a>
</g>
</g>
<!-- Node211&#45;&gt;Node212 -->
<g id="edge36" class="edge">
<title>Node211&#45;&gt;Node212</title>
<path fill="none" stroke="#191970" d="M794.9296,-91.9335C819.6332,-94.8116 849.7592,-98.3215 876.8646,-101.4794"/>
<polygon fill="#191970" stroke="#191970" points="795.0368,-88.4224 784.699,-90.7416 794.2267,-95.3754 795.0368,-88.4224"/>
</g>
<!-- Node213 -->
<g id="node37" class="node">
<title>Node213</title>
<g id="a_node37"><a xlink:href="class_transaction_signature_creator.html#a9cb1b4bd531ab19a1257abd9b639b7c8" target="_top" xlink:title="Create a singular (non&#45;script) signature. ">
<polygon fill="#ffffff" stroke="#000000" points="879.5,-46 879.5,-76 1020.5,-76 1020.5,-46 879.5,-46"/>
<text text-anchor="start" x="887.5" y="-64" font-family="Helvetica,sans-Serif" font-size="10.00" fill="#000000">TransactionSignatureCreator</text>
<text text-anchor="middle" x="950" y="-53" font-family="Helvetica,sans-Serif" font-size="10.00" fill="#000000">::CreateSig</text>
</a>
</g>
</g>
<!-- Node211&#45;&gt;Node213 -->
<g id="edge37" class="edge">
<title>Node211&#45;&gt;Node213</title>
<path fill="none" stroke="#191970" d="M794.8735,-79.826C820.3436,-76.735 851.5883,-72.9432 879.3452,-69.5746"/>
<polygon fill="#191970" stroke="#191970" points="794.2044,-76.3815 784.699,-81.0608 795.0478,-83.3305 794.2044,-76.3815"/>
</g>
<!-- Node216 -->
<g id="node40" class="node">
<title>Node216</title>
<g id="a_node40"><a xlink:href="hash_8h.html#a4490f70ddae16e9e48460a0416a48a6b" target="_top" xlink:title="Compute the 160&#45;bit hash an object. ">
<polygon fill="#ffffff" stroke="#000000" points="347.5,-114.5 347.5,-133.5 403.5,-133.5 403.5,-114.5 347.5,-114.5"/>
<text text-anchor="middle" x="375.5" y="-121.5" font-family="Helvetica,sans-Serif" font-size="10.00" fill="#000000">Hash160</text>
</a>
</g>
</g>
<!-- Node215&#45;&gt;Node216 -->
<g id="edge40" class="edge">
<title>Node215&#45;&gt;Node216</title>
<path fill="none" stroke="#191970" d="M269.0647,-124C295.9885,-124 326.1668,-124 347.4939,-124"/>
<polygon fill="#191970" stroke="#191970" points="268.9305,-120.5001 258.9305,-124 268.9304,-127.5001 268.9305,-120.5001"/>
</g>
<!-- Node265 -->
<g id="node48" class="node">
<title>Node265</title>
<g id="a_node48"><a xlink:href="standard_8h.html#a9230738c0c1cfbe24edfd385e502ad83" target="_top" xlink:title="Generate a pay&#45;to&#45;witness script for the given redeem script. ">
<polygon fill="#ffffff" stroke="#000000" points="321.5,-38.5 321.5,-57.5 429.5,-57.5 429.5,-38.5 321.5,-38.5"/>
<text text-anchor="middle" x="375.5" y="-45.5" font-family="Helvetica,sans-Serif" font-size="10.00" fill="#000000">GetScriptForWitness</text>
</a>
</g>
</g>
<!-- Node215&#45;&gt;Node265 -->
<g id="edge52" class="edge">
<title>Node215&#45;&gt;Node265</title>
<path fill="none" stroke="#191970" d="M258.7891,-111.581C265.0073,-109.6114 271.2027,-107.4157 277,-105 308.9157,-91.7007 343.2257,-69.9479 361.7424,-57.5139"/>
<polygon fill="#191970" stroke="#191970" points="257.6326,-108.2735 249.0526,-114.4891 259.636,-114.9807 257.6326,-108.2735"/>
</g>
<!-- Node217 -->
<g id="node41" class="node">
<title>Node217</title>
<g id="a_node41"><a xlink:href="hash_8h.html#a78eccd4352c5377b614ad3f5a1b5b223" target="_top" xlink:title="Compute the 160&#45;bit hash of a vector. ">
<polygon fill="#ffffff" stroke="#000000" points="520,-114.5 520,-133.5 576,-133.5 576,-114.5 520,-114.5"/>
<text text-anchor="middle" x="548" y="-121.5" font-family="Helvetica,sans-Serif" font-size="10.00" fill="#000000">Hash160</text>
</a>
</g>
</g>
<!-- Node216&#45;&gt;Node217 -->
<g id="edge41" class="edge">
<title>Node216&#45;&gt;Node217</title>
<path fill="none" stroke="#191970" d="M413.9521,-124C446.0651,-124 491.0979,-124 519.913,-124"/>
<polygon fill="#191970" stroke="#191970" points="413.5991,-120.5001 403.599,-124 413.599,-127.5001 413.5991,-120.5001"/>
</g>
<!-- Node218 -->
<g id="node42" class="node">
<title>Node218</title>
<g id="a_node42"><a xlink:href="class_c_pub_key.html#a2675f7e6f72eff68e7a5227289feb021" target="_top" xlink:title="Get the KeyID of this public key (hash of its serialization) ">
<polygon fill="#ffffff" stroke="#ff0000" points="502.5,-269.5 502.5,-288.5 593.5,-288.5 593.5,-269.5 502.5,-269.5"/>
<text text-anchor="middle" x="548" y="-276.5" font-family="Helvetica,sans-Serif" font-size="10.00" fill="#000000">CPubKey::GetID</text>
</a>
</g>
</g>
<!-- Node216&#45;&gt;Node218 -->
<g id="edge42" class="edge">
<title>Node216&#45;&gt;Node218</title>
<path fill="none" stroke="#191970" d="M413.3766,-131.5779C421.9196,-134.3298 430.6315,-138.0353 438,-143 451.3477,-151.9934 518.0253,-239.3591 540.5514,-269.1253"/>
<polygon fill="#191970" stroke="#191970" points="414.0925,-128.1426 403.516,-128.767 412.1734,-134.8744 414.0925,-128.1426"/>
</g>
<!-- Node263 -->
<g id="node46" class="node">
<title>Node263</title>
<g id="a_node46"><a xlink:href="class_c_tx_mem_pool.html#a2c4f1513000ff34c3fe341e6674b2bd9" target="_top" xlink:title="CTxMemPool::addSpentIndex">
<polygon fill="#ffffff" stroke="#000000" points="474,-76.5 474,-95.5 622,-95.5 622,-76.5 474,-76.5"/>
<text text-anchor="middle" x="548" y="-83.5" font-family="Helvetica,sans-Serif" font-size="10.00" fill="#000000">CTxMemPool::addSpentIndex</text>
</a>
</g>
</g>
<!-- Node216&#45;&gt;Node263 -->
<g id="edge50" class="edge">
<title>Node216&#45;&gt;Node263</title>
<path fill="none" stroke="#191970" d="M413.4384,-115.6426C440.3933,-109.7047 476.6409,-101.7197 504.724,-95.5333"/>
<polygon fill="#191970" stroke="#191970" points="412.6119,-112.2406 403.599,-117.8101 414.1179,-119.0767 412.6119,-112.2406"/>
</g>
<!-- Node264 -->
<g id="node47" class="node">
<title>Node264</title>
<g id="a_node47"><a xlink:href="group__map_wallet.html#ga15df27607f4dde9f262e0f030c9414b5" target="_top" xlink:title="Support for BIP 0013 : see https://github.com/raven/bips/blob/master/bip&#45;0013.mediawiki. ">
<polygon fill="#ffffff" stroke="#ff0000" points="494,-38.5 494,-57.5 602,-57.5 602,-38.5 494,-38.5"/>
<text text-anchor="middle" x="548" y="-45.5" font-family="Helvetica,sans-Serif" font-size="10.00" fill="#000000">CWallet::AddCScript</text>
</a>
</g>
</g>
<!-- Node216&#45;&gt;Node264 -->
<g id="edge51" class="edge">
<title>Node216&#45;&gt;Node264</title>
<path fill="none" stroke="#191970" d="M397.6521,-108.8137C417.0472,-96.1069 446.3697,-78.2918 474,-67 483.0859,-63.2868 493.1022,-60.1328 502.7519,-57.5248"/>
<polygon fill="#191970" stroke="#191970" points="395.615,-105.9652 389.2304,-114.4203 399.4941,-111.7921 395.615,-105.9652"/>
</g>
<!-- Node218&#45;&gt;Node204 -->
<g id="edge48" class="edge">
<title>Node218&#45;&gt;Node204</title>
<path fill="none" stroke="#191970" d="M559.694,-297.2731C577.4674,-323.3412 613.9165,-370.5307 658,-393 693.8601,-411.2778 795.8408,-422.5709 869.1814,-428.5636"/>
<polygon fill="#191970" stroke="#191970" points="562.4569,-295.1067 554.0113,-288.7096 556.6243,-298.9772 562.4569,-295.1067"/>
</g>
<!-- Node218&#45;&gt;Node206 -->
<g id="edge49" class="edge">
<title>Node218&#45;&gt;Node206</title>
<path fill="none" stroke="#191970" d="M566.4186,-295.1077C587.2417,-312.4718 622.8401,-339.6759 658,-355 672.0171,-361.1092 688.2059,-365.3448 702.7309,-368.2383"/>
<polygon fill="#191970" stroke="#191970" points="568.581,-292.3523 558.6929,-288.5476 564.0502,-297.6882 568.581,-292.3523"/>
</g>
<!-- Node218&#45;&gt;Node209 -->
<g id="edge46" class="edge">
<title>Node218&#45;&gt;Node209</title>
<path fill="none" stroke="#191970" d="M585.467,-266.0013C613.4898,-256.2791 652.3673,-242.7909 684.6086,-231.6052"/>
<polygon fill="#191970" stroke="#191970" points="583.9667,-262.817 575.6663,-269.4015 586.2611,-269.4303 583.9667,-262.817"/>
</g>
<!-- Node218&#45;&gt;Node210 -->
<g id="edge47" class="edge">
<title>Node218&#45;&gt;Node210</title>
<path fill="none" stroke="#191970" d="M562.2037,-261.7741C581.5103,-239.5504 618.2188,-201.338 658,-181 672.023,-173.8308 688.6836,-169.3549 703.5893,-166.5655"/>
<polygon fill="#191970" stroke="#191970" points="559.4983,-259.5528 555.6862,-269.4381 564.8308,-264.0876 559.4983,-259.5528"/>
</g>
<!-- Node137 -->
<g id="node43" class="node">
<title>Node137</title>
<g id="a_node43"><a xlink:href="rpc_2assets_8cpp.html#a27b33a27533950c7953c056f0a1d9852" target="_top" xlink:title="issueunique">
<polygon fill="#ffffff" stroke="#000000" points="710,-326.5 710,-345.5 778,-345.5 778,-326.5 710,-326.5"/>
<text text-anchor="middle" x="744" y="-333.5" font-family="Helvetica,sans-Serif" font-size="10.00" fill="#000000">issueunique</text>
</a>
</g>
</g>
<!-- Node218&#45;&gt;Node137 -->
<g id="edge43" class="edge">
<title>Node218&#45;&gt;Node137</title>
<path fill="none" stroke="#191970" d="M582.7393,-292.1516C604.2253,-299.9972 632.4841,-309.7999 658,-317 674.9233,-321.7754 693.9967,-326.0946 709.8733,-329.4037"/>
<polygon fill="#191970" stroke="#191970" points="583.6718,-288.7651 573.0784,-288.5894 581.2501,-295.3329 583.6718,-288.7651"/>
</g>
<!-- Node219 -->
<g id="node44" class="node">
<title>Node219</title>
<g id="a_node44"><a xlink:href="class_c_basic_key_store.html#a62dbf1659066ca8d3da145843ba44815" target="_top" xlink:title="Add a key to the store. ">
<polygon fill="#ffffff" stroke="#ff0000" points="662,-288.5 662,-307.5 826,-307.5 826,-288.5 662,-288.5"/>
<text text-anchor="middle" x="744" y="-295.5" font-family="Helvetica,sans-Serif" font-size="10.00" fill="#000000">CBasicKeyStore::AddKeyPubKey</text>
</a>
</g>
</g>
<!-- Node218&#45;&gt;Node219 -->
<g id="edge44" class="edge">
<title>Node218&#45;&gt;Node219</title>
<path fill="none" stroke="#191970" d="M603.9838,-284.427C622.0012,-286.1736 642.356,-288.1468 661.8511,-290.0366"/>
<polygon fill="#191970" stroke="#191970" points="604.2444,-280.9359 593.9533,-283.4547 603.5689,-287.9033 604.2444,-280.9359"/>
</g>
<!-- Node222 -->
<g id="node45" class="node">
<title>Node222</title>
<g id="a_node45"><a xlink:href="class_payment_server.html#a4bde538eb8942bfd41f2872234df0d6b" target="_top" xlink:title="PaymentServer::fetchPaymentACK">
<polygon fill="#ffffff" stroke="#000000" points="658,-250.5 658,-269.5 830,-269.5 830,-250.5 658,-250.5"/>
<text text-anchor="middle" x="744" y="-257.5" font-family="Helvetica,sans-Serif" font-size="10.00" fill="#000000">PaymentServer::fetchPaymentACK</text>
</a>
</g>
</g>
<!-- Node218&#45;&gt;Node222 -->
<g id="edge45" class="edge">
<title>Node218&#45;&gt;Node222</title>
<path fill="none" stroke="#191970" d="M604.1201,-273.5598C620.9045,-271.9327 639.7078,-270.11 657.9502,-268.3416"/>
<polygon fill="#191970" stroke="#191970" points="603.5689,-270.0967 593.9533,-274.5453 604.2444,-277.0641 603.5689,-270.0967"/>
</g>
<!-- Node266 -->
<g id="node49" class="node">
<title>Node266</title>
<g id="a_node49"><a xlink:href="class_witnessifier.html#a5d25a6af669cf09c4f776d7cfee7f17b" target="_top" xlink:title="Witnessifier::operator()">
<polygon fill="#ffffff" stroke="#000000" points="490,-.5 490,-19.5 606,-19.5 606,-.5 490,-.5"/>
<text text-anchor="middle" x="548" y="-7.5" font-family="Helvetica,sans-Serif" font-size="10.00" fill="#000000">Witnessifier::operator()</text>
</a>
</g>
</g>
<!-- Node265&#45;&gt;Node266 -->
<g id="edge53" class="edge">
<title>Node265&#45;&gt;Node266</title>
<path fill="none" stroke="#191970" d="M428.8505,-36.2474C453.242,-30.8742 481.7627,-24.5914 504.784,-19.5201"/>
<polygon fill="#191970" stroke="#191970" points="428.0419,-32.8416 419.029,-38.411 429.5479,-39.6776 428.0419,-32.8416"/>
</g>
</g>
</svg>
