<?xml version="1.0" encoding="UTF-8" standalone="no"?>
<!DOCTYPE svg PUBLIC "-//W3C//DTD SVG 1.1//EN"
 "http://www.w3.org/Graphics/SVG/1.1/DTD/svg11.dtd">
<!-- Generated by graphviz version 2.40.1 (20161225.0304)
 -->
<!-- Title: RavenUnits::formatWithCustomName Pages: 1 -->
<svg width="490pt" height="142pt"
 viewBox="0.00 0.00 490.00 142.00" xmlns="http://www.w3.org/2000/svg" xmlns:xlink="http://www.w3.org/1999/xlink">
<g id="graph0" class="graph" transform="scale(1 1) rotate(0) translate(4 138)">
<title>RavenUnits::formatWithCustomName</title>
<polygon fill="#ffffff" stroke="transparent" points="-4,4 -4,-138 486,-138 486,4 -4,4"/>
<!-- Node532 -->
<g id="node1" class="node">
<title>Node532</title>
<polygon fill="#bfbfbf" stroke="#000000" points="0,-95.5 0,-114.5 183,-114.5 183,-95.5 0,-95.5"/>
<text text-anchor="middle" x="91.5" y="-102.5" font-family="Helvetica,sans-Serif" font-size="10.00" fill="#000000">RavenUnits::formatWithCustomName</text>
</g>
<!-- Node533 -->
<g id="node2" class="node">
<title>Node533</title>
<g id="a_node2"><a xlink:href="class_raven_units.html#ad41cc41215cd361cdc458aec1cd05786" target="_top" xlink:title="Format as string. ">
<polygon fill="#ffffff" stroke="#000000" points="219,-76.5 219,-95.5 321,-95.5 321,-76.5 219,-76.5"/>
<text text-anchor="middle" x="270" y="-83.5" font-family="Helvetica,sans-Serif" font-size="10.00" fill="#000000">RavenUnits::format</text>
</a>
</g>
</g>
<!-- Node532&#45;&gt;Node533 -->
<g id="edge1" class="edge">
<title>Node532&#45;&gt;Node533</title>
<path fill="none" stroke="#191970" d="M181.0115,-95.4722C190.2648,-94.4872 199.5143,-93.5027 208.3623,-92.5609"/>
<polygon fill="#191970" stroke="#191970" points="208.9673,-96.0163 218.5407,-91.4775 208.2264,-89.0557 208.9673,-96.0163"/>
</g>
<!-- Node535 -->
<g id="node4" class="node">
<title>Node535</title>
<g id="a_node4"><a xlink:href="class_raven_units.html#aea6fad621ac4f75381406d5ca415f78e" target="_top" xlink:title="Number of Satoshis (1e&#45;8) per unit for assets. ">
<polygon fill="#ffffff" stroke="#000000" points="357,-114.5 357,-133.5 482,-133.5 482,-114.5 357,-114.5"/>
<text text-anchor="middle" x="419.5" y="-121.5" font-family="Helvetica,sans-Serif" font-size="10.00" fill="#000000">RavenUnits::factorAsset</text>
</a>
</g>
</g>
<!-- Node532&#45;&gt;Node535 -->
<g id="edge6" class="edge">
<title>Node532&#45;&gt;Node535</title>
<path fill="none" stroke="#191970" d="M183.3024,-110.3178C234.9672,-113.3106 298.5754,-116.9952 346.7622,-119.7865"/>
<polygon fill="#191970" stroke="#191970" points="346.6151,-123.2838 356.8008,-120.368 347.02,-116.2955 346.6151,-123.2838"/>
</g>
<!-- Node534 -->
<g id="node3" class="node">
<title>Node534</title>
<g id="a_node3"><a xlink:href="class_raven_units.html#a559a7cae18b466371401f02d6407c9c5" target="_top" xlink:title="Is unit ID valid? ">
<polygon fill="#ffffff" stroke="#000000" points="372,-76.5 372,-95.5 467,-95.5 467,-76.5 372,-76.5"/>
<text text-anchor="middle" x="419.5" y="-83.5" font-family="Helvetica,sans-Serif" font-size="10.00" fill="#000000">RavenUnits::valid</text>
</a>
</g>
</g>
<!-- Node533&#45;&gt;Node534 -->
<g id="edge2" class="edge">
<title>Node533&#45;&gt;Node534</title>
<path fill="none" stroke="#191970" d="M321.0313,-86C334.108,-86 348.2652,-86 361.6582,-86"/>
<polygon fill="#191970" stroke="#191970" points="361.7204,-89.5001 371.7203,-86 361.7203,-82.5001 361.7204,-89.5001"/>
</g>
<!-- Node533&#45;&gt;Node535 -->
<g id="edge3" class="edge">
<title>Node533&#45;&gt;Node535</title>
<path fill="none" stroke="#191970" d="M307.7252,-95.589C327.2756,-100.5583 351.3466,-106.6767 372.1374,-111.9613"/>
<polygon fill="#191970" stroke="#191970" points="371.4921,-115.4085 382.0461,-114.4799 373.2165,-108.6243 371.4921,-115.4085"/>
</g>
<!-- Node536 -->
<g id="node5" class="node">
<title>Node536</title>
<g id="a_node5"><a xlink:href="class_raven_units.html#a56c9ff217422454061562a0612bf61ec" target="_top" xlink:title="Number of Satoshis (1e&#45;8) per unit. ">
<polygon fill="#ffffff" stroke="#000000" points="370,-38.5 370,-57.5 469,-57.5 469,-38.5 370,-38.5"/>
<text text-anchor="middle" x="419.5" y="-45.5" font-family="Helvetica,sans-Serif" font-size="10.00" fill="#000000">RavenUnits::factor</text>
</a>
</g>
</g>
<!-- Node533&#45;&gt;Node536 -->
<g id="edge4" class="edge">
<title>Node533&#45;&gt;Node536</title>
<path fill="none" stroke="#191970" d="M307.7252,-76.411C327.2756,-71.4417 351.3466,-65.3233 372.1374,-60.0387"/>
<polygon fill="#191970" stroke="#191970" points="373.2165,-63.3757 382.0461,-57.5201 371.4921,-56.5915 373.2165,-63.3757"/>
</g>
<!-- Node537 -->
<g id="node6" class="node">
<title>Node537</title>
<g id="a_node6"><a xlink:href="class_raven_units.html#ab3396a763c2ca8042f331f32904b0580" target="_top" xlink:title="Number of decimals left. ">
<polygon fill="#ffffff" stroke="#000000" points="363,-.5 363,-19.5 476,-19.5 476,-.5 363,-.5"/>
<text text-anchor="middle" x="419.5" y="-7.5" font-family="Helvetica,sans-Serif" font-size="10.00" fill="#000000">RavenUnits::decimals</text>
</a>
</g>
</g>
<!-- Node533&#45;&gt;Node537 -->
<g id="edge5" class="edge">
<title>Node533&#45;&gt;Node537</title>
<path fill="none" stroke="#191970" d="M282.3004,-76.2998C298.5763,-63.8615 328.5406,-42.3135 357,-29 361.7575,-26.7744 366.8391,-24.7323 371.9719,-22.88"/>
<polygon fill="#191970" stroke="#191970" points="373.4769,-26.0662 381.8338,-19.5538 371.2397,-19.4333 373.4769,-26.0662"/>
</g>
</g>
</svg>
