<?xml version="1.0" encoding="UTF-8" standalone="no"?>
<!DOCTYPE svg PUBLIC "-//W3C//DTD SVG 1.1//EN"
 "http://www.w3.org/Graphics/SVG/1.1/DTD/svg11.dtd">
<!-- Generated by graphviz version 2.40.1 (20161225.0304)
 -->
<!-- Title: org.raven.NativeSecp256k1.secp256k1_ec_pubkey_parse Pages: 1 -->
<svg width="763pt" height="39pt"
 viewBox="0.00 0.00 763.00 39.00" xmlns="http://www.w3.org/2000/svg" xmlns:xlink="http://www.w3.org/1999/xlink">
<g id="graph0" class="graph" transform="scale(1 1) rotate(0) translate(4 35)">
<title>org.raven.NativeSecp256k1.secp256k1_ec_pubkey_parse</title>
<polygon fill="#ffffff" stroke="transparent" points="-4,4 -4,-35 759,-35 759,4 -4,4"/>
<!-- Node107 -->
<g id="node1" class="node">
<title>Node107</title>
<polygon fill="#bfbfbf" stroke="#000000" points="0,-.5 0,-30.5 188,-30.5 188,-.5 0,-.5"/>
<text text-anchor="start" x="8" y="-18.5" font-family="Helvetica,sans-Serif" font-size="10.00" fill="#000000">org.raven.NativeSecp256k1.secp256k1</text>
<text text-anchor="middle" x="94" y="-7.5" font-family="Helvetica,sans-Serif" font-size="10.00" fill="#000000">_ec_pubkey_parse</text>
</g>
<!-- Node108 -->
<g id="node2" class="node">
<title>Node108</title>
<g id="a_node2"><a xlink:href="classorg_1_1raven_1_1_native_secp256k1.html#ab9c66fef67799f869f65d296e61adb0e" target="_top" xlink:title="libsecp256k1 randomize &#45; updates the context randomization ">
<polygon fill="#ffffff" stroke="#000000" points="224,-6 224,-25 409,-25 409,-6 224,-6"/>
<text text-anchor="middle" x="316.5" y="-13" font-family="Helvetica,sans-Serif" font-size="10.00" fill="#000000">org.raven.NativeSecp256k1.randomize</text>
</a>
</g>
</g>
<!-- Node107&#45;&gt;Node108 -->
<g id="edge1" class="edge">
<title>Node107&#45;&gt;Node108</title>
<path fill="none" stroke="#191970" d="M198.0958,-15.5C206.697,-15.5 215.3554,-15.5 223.8643,-15.5"/>
<polygon fill="#191970" stroke="#191970" points="198.0376,-12.0001 188.0375,-15.5 198.0375,-19.0001 198.0376,-12.0001"/>
</g>
<!-- Node109 -->
<g id="node3" class="node">
<title>Node109</title>
<g id="a_node3"><a xlink:href="classorg_1_1raven_1_1_native_secp256k1_test.html#a3906d7d680a506cc1b73a76d967208d5" target="_top" xlink:title="This tests seed randomization. ">
<polygon fill="#ffffff" stroke="#000000" points="445,-.5 445,-30.5 582,-30.5 582,-.5 445,-.5"/>
<text text-anchor="start" x="453" y="-18.5" font-family="Helvetica,sans-Serif" font-size="10.00" fill="#000000">org.raven.NativeSecp256k1</text>
<text text-anchor="middle" x="513.5" y="-7.5" font-family="Helvetica,sans-Serif" font-size="10.00" fill="#000000">Test.testRandomize</text>
</a>
</g>
</g>
<!-- Node108&#45;&gt;Node109 -->
<g id="edge2" class="edge">
<title>Node108&#45;&gt;Node109</title>
<path fill="none" stroke="#191970" d="M419.3471,-15.5C427.9602,-15.5 436.5289,-15.5 444.7891,-15.5"/>
<polygon fill="#191970" stroke="#191970" points="419.2315,-12.0001 409.2315,-15.5 419.2314,-19.0001 419.2315,-12.0001"/>
</g>
<!-- Node110 -->
<g id="node4" class="node">
<title>Node110</title>
<g id="a_node4"><a xlink:href="classorg_1_1raven_1_1_native_secp256k1_test.html#afd1b0d2fe3413a8fcd28b3acb4b91b12" target="_top" xlink:title="org.raven.NativeSecp256k1\lTest.main">
<polygon fill="#ffffff" stroke="#000000" points="618,-.5 618,-30.5 755,-30.5 755,-.5 618,-.5"/>
<text text-anchor="start" x="626" y="-18.5" font-family="Helvetica,sans-Serif" font-size="10.00" fill="#000000">org.raven.NativeSecp256k1</text>
<text text-anchor="middle" x="686.5" y="-7.5" font-family="Helvetica,sans-Serif" font-size="10.00" fill="#000000">Test.main</text>
</a>
</g>
</g>
<!-- Node109&#45;&gt;Node110 -->
<g id="edge3" class="edge">
<title>Node109&#45;&gt;Node110</title>
<path fill="none" stroke="#191970" d="M592.5941,-15.5C601.0314,-15.5 609.5633,-15.5 617.8657,-15.5"/>
<polygon fill="#191970" stroke="#191970" points="592.3713,-12.0001 582.3713,-15.5 592.3712,-19.0001 592.3713,-12.0001"/>
</g>
</g>
</svg>
