<?xml version="1.0" encoding="UTF-8" standalone="no"?>
<!DOCTYPE svg PUBLIC "-//W3C//DTD SVG 1.1//EN"
 "http://www.w3.org/Graphics/SVG/1.1/DTD/svg11.dtd">
<!-- Generated by graphviz version 2.40.1 (20161225.0304)
 -->
<!-- Title: ReissueAssetDialog::updateMinFeeLabel Pages: 1 -->
<svg width="1425pt" height="88pt"
 viewBox="0.00 0.00 1425.00 88.00" xmlns="http://www.w3.org/2000/svg" xmlns:xlink="http://www.w3.org/1999/xlink">
<g id="graph0" class="graph" transform="scale(1 1) rotate(0) translate(4 84)">
<title>ReissueAssetDialog::updateMinFeeLabel</title>
<polygon fill="#ffffff" stroke="transparent" points="-4,4 -4,-84 1421,-84 1421,4 -4,4"/>
<!-- Node1711 -->
<g id="node1" class="node">
<title>Node1711</title>
<polygon fill="#bfbfbf" stroke="#000000" points="0,-27.5 0,-57.5 107,-57.5 107,-27.5 0,-27.5"/>
<text text-anchor="start" x="8" y="-45.5" font-family="Helvetica,sans-Serif" font-size="10.00" fill="#000000">ReissueAssetDialog</text>
<text text-anchor="middle" x="53.5" y="-34.5" font-family="Helvetica,sans-Serif" font-size="10.00" fill="#000000">::updateMinFeeLabel</text>
</g>
<!-- Node1712 -->
<g id="node2" class="node">
<title>Node1712</title>
<g id="a_node2"><a xlink:href="class_reissue_asset_dialog.html#ad6175c9716f2861e9d499033c6759e51" target="_top" xlink:title="ReissueAssetDialog\l::updateDisplayUnit">
<polygon fill="#ffffff" stroke="#000000" points="143,-27.5 143,-57.5 249,-57.5 249,-27.5 143,-27.5"/>
<text text-anchor="start" x="151" y="-45.5" font-family="Helvetica,sans-Serif" font-size="10.00" fill="#000000">ReissueAssetDialog</text>
<text text-anchor="middle" x="196" y="-34.5" font-family="Helvetica,sans-Serif" font-size="10.00" fill="#000000">::updateDisplayUnit</text>
</a>
</g>
</g>
<!-- Node1711&#45;&gt;Node1712 -->
<g id="edge1" class="edge">
<title>Node1711&#45;&gt;Node1712</title>
<path fill="none" stroke="#191970" d="M117.6217,-42.5C126.1059,-42.5 134.7263,-42.5 142.9952,-42.5"/>
<polygon fill="#191970" stroke="#191970" points="117.3732,-39.0001 107.3731,-42.5 117.3731,-46.0001 117.3732,-39.0001"/>
</g>
<!-- Node1713 -->
<g id="node3" class="node">
<title>Node1713</title>
<g id="a_node3"><a xlink:href="class_reissue_asset_dialog.html#aedb26df763c8cda11fea5a0c07ca70a0" target="_top" xlink:title="ReissueAssetDialog\l::setModel">
<polygon fill="#ffffff" stroke="#000000" points="285,-27.5 285,-57.5 391,-57.5 391,-27.5 285,-27.5"/>
<text text-anchor="start" x="293" y="-45.5" font-family="Helvetica,sans-Serif" font-size="10.00" fill="#000000">ReissueAssetDialog</text>
<text text-anchor="middle" x="338" y="-34.5" font-family="Helvetica,sans-Serif" font-size="10.00" fill="#000000">::setModel</text>
</a>
</g>
</g>
<!-- Node1712&#45;&gt;Node1713 -->
<g id="edge2" class="edge">
<title>Node1712&#45;&gt;Node1713</title>
<path fill="none" stroke="#191970" d="M259.5173,-42.5C267.9959,-42.5 276.6185,-42.5 284.8941,-42.5"/>
<polygon fill="#191970" stroke="#191970" points="259.2796,-39.0001 249.2796,-42.5 259.2795,-46.0001 259.2796,-39.0001"/>
</g>
<!-- Node1714 -->
<g id="node4" class="node">
<title>Node1714</title>
<g id="a_node4"><a xlink:href="class_wallet_view.html#a0a37ff693a4f9c1e5ddc23f9cd3913be" target="_top" xlink:title="Set the wallet model. ">
<polygon fill="#ffffff" stroke="#000000" points="427,-33 427,-52 567,-52 567,-33 427,-33"/>
<text text-anchor="middle" x="497" y="-40" font-family="Helvetica,sans-Serif" font-size="10.00" fill="#000000">WalletView::setWalletModel</text>
</a>
</g>
</g>
<!-- Node1713&#45;&gt;Node1714 -->
<g id="edge3" class="edge">
<title>Node1713&#45;&gt;Node1714</title>
<path fill="none" stroke="#191970" d="M401.4194,-42.5C409.7658,-42.5 418.3591,-42.5 426.8101,-42.5"/>
<polygon fill="#191970" stroke="#191970" points="401.3871,-39.0001 391.387,-42.5 401.387,-46.0001 401.3871,-39.0001"/>
</g>
<!-- Node1715 -->
<g id="node5" class="node">
<title>Node1715</title>
<g id="a_node5"><a xlink:href="class_wallet_frame.html#aa199c3f27654199d84c365cf86167d86" target="_top" xlink:title="WalletFrame::addWallet">
<polygon fill="#ffffff" stroke="#000000" points="603,-33 603,-52 725,-52 725,-33 603,-33"/>
<text text-anchor="middle" x="664" y="-40" font-family="Helvetica,sans-Serif" font-size="10.00" fill="#000000">WalletFrame::addWallet</text>
</a>
</g>
</g>
<!-- Node1714&#45;&gt;Node1715 -->
<g id="edge4" class="edge">
<title>Node1714&#45;&gt;Node1715</title>
<path fill="none" stroke="#191970" d="M577.6091,-42.5C586.064,-42.5 594.5584,-42.5 602.7451,-42.5"/>
<polygon fill="#191970" stroke="#191970" points="577.3391,-39.0001 567.339,-42.5 577.339,-46.0001 577.3391,-39.0001"/>
</g>
<!-- Node1716 -->
<g id="node6" class="node">
<title>Node1716</title>
<g id="a_node6"><a xlink:href="class_raven_g_u_i.html#a174a3e75c334c5930d3261a2955c3725" target="_top" xlink:title="Set the client model. ">
<polygon fill="#ffffff" stroke="#000000" points="761,-33 761,-52 895,-52 895,-33 761,-33"/>
<text text-anchor="middle" x="828" y="-40" font-family="Helvetica,sans-Serif" font-size="10.00" fill="#000000">RavenGUI::setClientModel</text>
</a>
</g>
</g>
<!-- Node1715&#45;&gt;Node1716 -->
<g id="edge5" class="edge">
<title>Node1715&#45;&gt;Node1716</title>
<path fill="none" stroke="#191970" d="M735.303,-42.5C743.7776,-42.5 752.4074,-42.5 760.8217,-42.5"/>
<polygon fill="#191970" stroke="#191970" points="735.0676,-39.0001 725.0675,-42.5 735.0675,-46.0001 735.0676,-39.0001"/>
</g>
<!-- Node1717 -->
<g id="node7" class="node">
<title>Node1717</title>
<g id="a_node7"><a xlink:href="class_raven_application.html#a60123f611cc210870fa67974cb2c804c" target="_top" xlink:title="Request core shutdown. ">
<polygon fill="#ffffff" stroke="#000000" points="1286,-49.5 1286,-79.5 1417,-79.5 1417,-49.5 1286,-49.5"/>
<text text-anchor="start" x="1294" y="-67.5" font-family="Helvetica,sans-Serif" font-size="10.00" fill="#000000">RavenApplication::request</text>
<text text-anchor="middle" x="1351.5" y="-56.5" font-family="Helvetica,sans-Serif" font-size="10.00" fill="#000000">Shutdown</text>
</a>
</g>
</g>
<!-- Node1716&#45;&gt;Node1717 -->
<g id="edge6" class="edge">
<title>Node1716&#45;&gt;Node1717</title>
<path fill="none" stroke="#191970" d="M905.1333,-45.7415C1008.2203,-50.0737 1189.1346,-57.6766 1285.9629,-61.7458"/>
<polygon fill="#191970" stroke="#191970" points="905.238,-42.2429 895.0999,-45.3199 904.944,-49.2367 905.238,-42.2429"/>
</g>
<!-- Node1718 -->
<g id="node8" class="node">
<title>Node1718</title>
<g id="a_node8"><a xlink:href="class_raven_application.html#a1a3dcf33ba44507984b2a04e7ebf1542" target="_top" xlink:title="RavenApplication::initialize\lResult">
<polygon fill="#ffffff" stroke="#000000" points="931,-5.5 931,-35.5 1065,-35.5 1065,-5.5 931,-5.5"/>
<text text-anchor="start" x="939" y="-23.5" font-family="Helvetica,sans-Serif" font-size="10.00" fill="#000000">RavenApplication::initialize</text>
<text text-anchor="middle" x="998" y="-12.5" font-family="Helvetica,sans-Serif" font-size="10.00" fill="#000000">Result</text>
</a>
</g>
</g>
<!-- Node1716&#45;&gt;Node1718 -->
<g id="edge7" class="edge">
<title>Node1716&#45;&gt;Node1718</title>
<path fill="none" stroke="#191970" d="M905.146,-32.5164C913.6879,-31.411 922.3366,-30.2917 930.7428,-29.2039"/>
<polygon fill="#191970" stroke="#191970" points="904.6566,-29.0505 895.1885,-33.805 905.555,-35.9926 904.6566,-29.0505"/>
</g>
<!-- Node1719 -->
<g id="node9" class="node">
<title>Node1719</title>
<g id="a_node9"><a xlink:href="class_raven_application.html#aecfdce3a245b959def5dd35e5cfb192e" target="_top" xlink:title="RavenApplication::startThread">
<polygon fill="#ffffff" stroke="#000000" points="1101,-11 1101,-30 1250,-30 1250,-11 1101,-11"/>
<text text-anchor="middle" x="1175.5" y="-18" font-family="Helvetica,sans-Serif" font-size="10.00" fill="#000000">RavenApplication::startThread</text>
</a>
</g>
</g>
<!-- Node1718&#45;&gt;Node1719 -->
<g id="edge8" class="edge">
<title>Node1718&#45;&gt;Node1719</title>
<path fill="none" stroke="#191970" d="M1075.3486,-20.5C1083.821,-20.5 1092.4344,-20.5 1100.873,-20.5"/>
<polygon fill="#191970" stroke="#191970" points="1075.1052,-17.0001 1065.1051,-20.5 1075.1051,-24.0001 1075.1052,-17.0001"/>
</g>
<!-- Node1719&#45;&gt;Node1717 -->
<g id="edge10" class="edge">
<title>Node1719&#45;&gt;Node1717</title>
<path fill="none" stroke="#191970" d="M1223.6046,-32.5261C1244.4811,-37.7453 1269.1576,-43.9144 1291.2385,-49.4346"/>
<polygon fill="#191970" stroke="#191970" points="1224.2397,-29.0773 1213.6894,-30.0473 1222.5419,-35.8683 1224.2397,-29.0773"/>
</g>
<!-- Node1720 -->
<g id="node10" class="node">
<title>Node1720</title>
<g id="a_node10"><a xlink:href="class_raven_application.html#a63a2032fef875fb81f26c212f69d000d" target="_top" xlink:title="Request core initialization. ">
<polygon fill="#ffffff" stroke="#000000" points="1286,-.5 1286,-30.5 1417,-30.5 1417,-.5 1286,-.5"/>
<text text-anchor="start" x="1294" y="-18.5" font-family="Helvetica,sans-Serif" font-size="10.00" fill="#000000">RavenApplication::request</text>
<text text-anchor="middle" x="1351.5" y="-7.5" font-family="Helvetica,sans-Serif" font-size="10.00" fill="#000000">Initialize</text>
</a>
</g>
</g>
<!-- Node1719&#45;&gt;Node1720 -->
<g id="edge9" class="edge">
<title>Node1719&#45;&gt;Node1720</title>
<path fill="none" stroke="#191970" d="M1260.2384,-18.0927C1268.8743,-17.8473 1277.5522,-17.6008 1285.9387,-17.3625"/>
<polygon fill="#191970" stroke="#191970" points="1260.0364,-14.5969 1250.1398,-18.3795 1260.2352,-21.5941 1260.0364,-14.5969"/>
</g>
</g>
</svg>
