<?xml version="1.0" encoding="UTF-8" standalone="no"?>
<!DOCTYPE svg PUBLIC "-//W3C//DTD SVG 1.1//EN"
 "http://www.w3.org/Graphics/SVG/1.1/DTD/svg11.dtd">
<!-- Generated by graphviz version 2.40.1 (20161225.0304)
 -->
<!-- Title: OptionsDialog::updateDefaultProxyNets Pages: 1 -->
<svg width="815pt" height="78pt"
 viewBox="0.00 0.00 815.00 77.50" xmlns="http://www.w3.org/2000/svg" xmlns:xlink="http://www.w3.org/1999/xlink">
<g id="graph0" class="graph" transform="scale(1 1) rotate(0) translate(4 73.5)">
<title>OptionsDialog::updateDefaultProxyNets</title>
<polygon fill="#ffffff" stroke="transparent" points="-4,4 -4,-73.5 811,-73.5 811,4 -4,4"/>
<!-- Node82 -->
<g id="node1" class="node">
<title>Node82</title>
<polygon fill="#bfbfbf" stroke="#000000" points="0,-22.5 0,-52.5 145,-52.5 145,-22.5 0,-22.5"/>
<text text-anchor="start" x="8" y="-40.5" font-family="Helvetica,sans-Serif" font-size="10.00" fill="#000000">OptionsDialog::updateDefault</text>
<text text-anchor="middle" x="72.5" y="-29.5" font-family="Helvetica,sans-Serif" font-size="10.00" fill="#000000">ProxyNets</text>
</g>
<!-- Node83 -->
<g id="node2" class="node">
<title>Node83</title>
<g id="a_node2"><a xlink:href="class_options_dialog.html#a11e902a52cb7472497d14e70cd9399d9" target="_top" xlink:title="OptionsDialog::setModel">
<polygon fill="#ffffff" stroke="#000000" points="188.5,-50 188.5,-69 312.5,-69 312.5,-50 188.5,-50"/>
<text text-anchor="middle" x="250.5" y="-57" font-family="Helvetica,sans-Serif" font-size="10.00" fill="#000000">OptionsDialog::setModel</text>
</a>
</g>
</g>
<!-- Node82&#45;&gt;Node83 -->
<g id="edge1" class="edge">
<title>Node82&#45;&gt;Node83</title>
<path fill="none" stroke="#191970" d="M155.3037,-47.7342C166.4147,-49.1074 177.6551,-50.4967 188.3277,-51.8158"/>
<polygon fill="#191970" stroke="#191970" points="155.51,-44.2331 145.1561,-46.48 154.6513,-51.1803 155.51,-44.2331"/>
</g>
<!-- Node87 -->
<g id="node6" class="node">
<title>Node87</title>
<g id="a_node6"><a xlink:href="class_options_dialog.html#a361ac4fdb9bafd3cad531e055084dd08" target="_top" xlink:title="OptionsDialog::on_okButton\l_clicked">
<polygon fill="#ffffff" stroke="#000000" points="181,-.5 181,-30.5 320,-30.5 320,-.5 181,-.5"/>
<text text-anchor="start" x="189" y="-18.5" font-family="Helvetica,sans-Serif" font-size="10.00" fill="#000000">OptionsDialog::on_okButton</text>
<text text-anchor="middle" x="250.5" y="-7.5" font-family="Helvetica,sans-Serif" font-size="10.00" fill="#000000">_clicked</text>
</a>
</g>
</g>
<!-- Node82&#45;&gt;Node87 -->
<g id="edge5" class="edge">
<title>Node82&#45;&gt;Node87</title>
<path fill="none" stroke="#191970" d="M155.2079,-27.2777C163.8179,-26.2135 172.5068,-25.1396 180.9502,-24.096"/>
<polygon fill="#191970" stroke="#191970" points="154.6513,-23.8197 145.1561,-28.52 155.51,-30.7669 154.6513,-23.8197"/>
</g>
<!-- Node84 -->
<g id="node3" class="node">
<title>Node84</title>
<g id="a_node3"><a xlink:href="class_raven_g_u_i.html#a18e94f625f9327f3718c02f3a2d4d21c" target="_top" xlink:title="Show configuration dialog. ">
<polygon fill="#ffffff" stroke="#000000" points="356,-50 356,-69 490,-69 490,-50 356,-50"/>
<text text-anchor="middle" x="423" y="-57" font-family="Helvetica,sans-Serif" font-size="10.00" fill="#000000">RavenGUI::optionsClicked</text>
</a>
</g>
</g>
<!-- Node83&#45;&gt;Node84 -->
<g id="edge2" class="edge">
<title>Node83&#45;&gt;Node84</title>
<path fill="none" stroke="#191970" d="M323.081,-59.5C333.948,-59.5 345.1121,-59.5 355.8594,-59.5"/>
<polygon fill="#191970" stroke="#191970" points="322.7765,-56.0001 312.7765,-59.5 322.7764,-63.0001 322.7765,-56.0001"/>
</g>
<!-- Node85 -->
<g id="node4" class="node">
<title>Node85</title>
<g id="a_node4"><a xlink:href="class_raven_g_u_i.html#a6e65b4f2b8a82b4ab99b77fe9d43a500" target="_top" xlink:title="Create the main UI actions. ">
<polygon fill="#ffffff" stroke="#000000" points="526,-50 526,-69 655,-69 655,-50 526,-50"/>
<text text-anchor="middle" x="590.5" y="-57" font-family="Helvetica,sans-Serif" font-size="10.00" fill="#000000">RavenGUI::createActions</text>
</a>
</g>
</g>
<!-- Node84&#45;&gt;Node85 -->
<g id="edge3" class="edge">
<title>Node84&#45;&gt;Node85</title>
<path fill="none" stroke="#191970" d="M500.4352,-59.5C508.9107,-59.5 517.4729,-59.5 525.772,-59.5"/>
<polygon fill="#191970" stroke="#191970" points="500.1636,-56.0001 490.1635,-59.5 500.1635,-63.0001 500.1636,-56.0001"/>
</g>
<!-- Node86 -->
<g id="node5" class="node">
<title>Node86</title>
<g id="a_node5"><a xlink:href="class_raven_g_u_i.html#af82cbe028fc29d0ea71074eced806071" target="_top" xlink:title="RavenGUI::RavenGUI">
<polygon fill="#ffffff" stroke="#000000" points="691,-50 691,-69 807,-69 807,-50 691,-50"/>
<text text-anchor="middle" x="749" y="-57" font-family="Helvetica,sans-Serif" font-size="10.00" fill="#000000">RavenGUI::RavenGUI</text>
</a>
</g>
</g>
<!-- Node85&#45;&gt;Node86 -->
<g id="edge4" class="edge">
<title>Node85&#45;&gt;Node86</title>
<path fill="none" stroke="#191970" d="M665.6646,-59.5C674.1053,-59.5 682.608,-59.5 690.7883,-59.5"/>
<polygon fill="#191970" stroke="#191970" points="665.4254,-56.0001 655.4253,-59.5 665.4253,-63.0001 665.4254,-56.0001"/>
</g>
</g>
</svg>
