<?xml version="1.0" encoding="UTF-8" standalone="no"?>
<!DOCTYPE svg PUBLIC "-//W3C//DTD SVG 1.1//EN"
 "http://www.w3.org/Graphics/SVG/1.1/DTD/svg11.dtd">
<!-- Generated by graphviz version 2.40.1 (20161225.0304)
 -->
<!-- Title: CWallet::CreateWalletFromFile Pages: 1 -->
<svg width="589pt" height="256pt"
 viewBox="0.00 0.00 589.00 256.00" xmlns="http://www.w3.org/2000/svg" xmlns:xlink="http://www.w3.org/1999/xlink">
<g id="graph0" class="graph" transform="scale(1 1) rotate(0) translate(4 252)">
<title>CWallet::CreateWalletFromFile</title>
<polygon fill="#ffffff" stroke="transparent" points="-4,4 -4,-252 585,-252 585,4 -4,4"/>
<!-- Node45 -->
<g id="node1" class="node">
<title>Node45</title>
<polygon fill="#bfbfbf" stroke="#000000" points="0,-114.5 0,-133.5 153,-133.5 153,-114.5 0,-114.5"/>
<text text-anchor="middle" x="76.5" y="-121.5" font-family="Helvetica,sans-Serif" font-size="10.00" fill="#000000">CWallet::CreateWalletFromFile</text>
</g>
<!-- Node46 -->
<g id="node2" class="node">
<title>Node46</title>
<g id="a_node2"><a xlink:href="class_args_manager.html#af81c6e2a9dcd6b12557a2387fd67b2a6" target="_top" xlink:title="Return boolean argument or default value. ">
<polygon fill="#ffffff" stroke="#000000" points="189,-228.5 189,-247.5 320,-247.5 320,-228.5 189,-228.5"/>
<text text-anchor="middle" x="254.5" y="-235.5" font-family="Helvetica,sans-Serif" font-size="10.00" fill="#000000">ArgsManager::GetBoolArg</text>
</a>
</g>
</g>
<!-- Node45&#45;&gt;Node46 -->
<g id="edge1" class="edge">
<title>Node45&#45;&gt;Node46</title>
<path fill="none" stroke="#191970" d="M85.1339,-133.6017C102.7851,-152.6617 145.059,-195.461 189,-219 193.214,-221.2574 197.728,-223.2754 202.3425,-225.0732"/>
<polygon fill="#191970" stroke="#191970" points="201.2972,-228.4161 211.8919,-228.4608 203.6375,-221.8188 201.2972,-228.4161"/>
</g>
<!-- Node47 -->
<g id="node3" class="node">
<title>Node47</title>
<g id="a_node3"><a xlink:href="util_8h.html#aad133bb6103b53cebf03fd01e2f11ba1" target="_top" xlink:title="Translation function: Call Translate signal on UI interface, which returns a boost::optional result...">
<polygon fill="#ffffff" stroke="#000000" points="240,-190.5 240,-209.5 269,-209.5 269,-190.5 240,-190.5"/>
<text text-anchor="middle" x="254.5" y="-197.5" font-family="Helvetica,sans-Serif" font-size="10.00" fill="#000000">_</text>
</a>
</g>
</g>
<!-- Node45&#45;&gt;Node47 -->
<g id="edge2" class="edge">
<title>Node45&#45;&gt;Node47</title>
<path fill="none" stroke="#191970" d="M93.1968,-133.7075C114.7743,-145.9581 153.7627,-167.1033 189,-181 202.3381,-186.2602 217.7134,-190.7953 230.2142,-194.1142"/>
<polygon fill="#191970" stroke="#191970" points="229.375,-197.5122 239.931,-196.6054 231.1135,-190.7315 229.375,-197.5122"/>
</g>
<!-- Node50 -->
<g id="node6" class="node">
<title>Node50</title>
<g id="a_node6"><a xlink:href="ui__interface_8cpp.html#a36f8e669221ac80facf023671576ee82" target="_top" xlink:title="Show error message. ">
<polygon fill="#ffffff" stroke="#000000" points="229,-152.5 229,-171.5 280,-171.5 280,-152.5 229,-152.5"/>
<text text-anchor="middle" x="254.5" y="-159.5" font-family="Helvetica,sans-Serif" font-size="10.00" fill="#000000">InitError</text>
</a>
</g>
</g>
<!-- Node45&#45;&gt;Node50 -->
<g id="edge5" class="edge">
<title>Node45&#45;&gt;Node50</title>
<path fill="none" stroke="#191970" d="M121.4169,-133.589C151.6864,-140.051 191.0575,-148.4561 219.1066,-154.4441"/>
<polygon fill="#191970" stroke="#191970" points="218.38,-157.8678 228.8904,-156.5328 219.8415,-151.022 218.38,-157.8678"/>
</g>
<!-- Node51 -->
<g id="node7" class="node">
<title>Node51</title>
<g id="a_node7"><a xlink:href="utiltime_8cpp.html#a139d0fe6387b9e230a9b8bb12d9b43b9" target="_top" xlink:title="GetTimeMillis">
<polygon fill="#ffffff" stroke="#000000" points="216,-114.5 216,-133.5 293,-133.5 293,-114.5 216,-114.5"/>
<text text-anchor="middle" x="254.5" y="-121.5" font-family="Helvetica,sans-Serif" font-size="10.00" fill="#000000">GetTimeMillis</text>
</a>
</g>
</g>
<!-- Node45&#45;&gt;Node51 -->
<g id="edge6" class="edge">
<title>Node45&#45;&gt;Node51</title>
<path fill="none" stroke="#191970" d="M153.021,-124C170.799,-124 189.2546,-124 205.4744,-124"/>
<polygon fill="#191970" stroke="#191970" points="205.7807,-127.5001 215.7806,-124 205.7806,-120.5001 205.7807,-127.5001"/>
</g>
<!-- Node52 -->
<g id="node8" class="node">
<title>Node52</title>
<g id="a_node8"><a xlink:href="group___actions.html#ga5d7b244b8ed0cbe24233ee0b6ca3cae0" target="_top" xlink:title="CWallet::LoadWallet">
<polygon fill="#ffffff" stroke="#000000" points="201,-76.5 201,-95.5 308,-95.5 308,-76.5 201,-76.5"/>
<text text-anchor="middle" x="254.5" y="-83.5" font-family="Helvetica,sans-Serif" font-size="10.00" fill="#000000">CWallet::LoadWallet</text>
</a>
</g>
</g>
<!-- Node45&#45;&gt;Node52 -->
<g id="edge7" class="edge">
<title>Node45&#45;&gt;Node52</title>
<path fill="none" stroke="#191970" d="M121.4169,-114.411C145.3292,-109.3061 174.9214,-102.9887 200.1249,-97.6082"/>
<polygon fill="#191970" stroke="#191970" points="200.8572,-101.0308 209.9061,-95.5201 199.3957,-94.185 200.8572,-101.0308"/>
</g>
<!-- Node55 -->
<g id="node11" class="node">
<title>Node55</title>
<g id="a_node11"><a xlink:href="ui__interface_8cpp.html#a8a850858f643481684bf1ed56ed74541" target="_top" xlink:title="Show warning message. ">
<polygon fill="#ffffff" stroke="#000000" points="221.5,-38.5 221.5,-57.5 287.5,-57.5 287.5,-38.5 221.5,-38.5"/>
<text text-anchor="middle" x="254.5" y="-45.5" font-family="Helvetica,sans-Serif" font-size="10.00" fill="#000000">InitWarning</text>
</a>
</g>
</g>
<!-- Node45&#45;&gt;Node55 -->
<g id="edge10" class="edge">
<title>Node45&#45;&gt;Node55</title>
<path fill="none" stroke="#191970" d="M93.1968,-114.2925C114.7743,-102.0419 153.7627,-80.8967 189,-67 196.1991,-64.1609 203.9917,-61.5329 211.6055,-59.1935"/>
<polygon fill="#191970" stroke="#191970" points="212.8454,-62.4769 221.4466,-56.2907 210.865,-55.7629 212.8454,-62.4769"/>
</g>
<!-- Node56 -->
<g id="node12" class="node">
<title>Node56</title>
<g id="a_node12"><a xlink:href="class_args_manager.html#adb5d644d273b3a259f792affcdca8283" target="_top" xlink:title="Return string argument or default value. ">
<polygon fill="#ffffff" stroke="#000000" points="199,-.5 199,-19.5 310,-19.5 310,-.5 199,-.5"/>
<text text-anchor="middle" x="254.5" y="-7.5" font-family="Helvetica,sans-Serif" font-size="10.00" fill="#000000">ArgsManager::GetArg</text>
</a>
</g>
</g>
<!-- Node45&#45;&gt;Node56 -->
<g id="edge11" class="edge">
<title>Node45&#45;&gt;Node56</title>
<path fill="none" stroke="#191970" d="M85.1339,-114.3983C102.7851,-95.3383 145.059,-52.539 189,-29 193.214,-26.7426 197.728,-24.7246 202.3425,-22.9268"/>
<polygon fill="#191970" stroke="#191970" points="203.6375,-26.1812 211.8919,-19.5392 201.2972,-19.5839 203.6375,-26.1812"/>
</g>
<!-- Node48 -->
<g id="node4" class="node">
<title>Node48</title>
<g id="a_node4"><a xlink:href="util_8h.html#a9ed616020f4ef9b1a261b222bbec78e2" target="_top" xlink:title="SetupEnvironment">
<polygon fill="#ffffff" stroke="#000000" points="368,-209.5 368,-228.5 465,-228.5 465,-209.5 368,-209.5"/>
<text text-anchor="middle" x="416.5" y="-216.5" font-family="Helvetica,sans-Serif" font-size="10.00" fill="#000000">SetupEnvironment</text>
</a>
</g>
</g>
<!-- Node47&#45;&gt;Node48 -->
<g id="edge3" class="edge">
<title>Node47&#45;&gt;Node48</title>
<path fill="none" stroke="#191970" d="M269.1621,-201.7196C289.0514,-204.0523 325.7524,-208.3568 357.5475,-212.0858"/>
<polygon fill="#191970" stroke="#191970" points="357.331,-215.5843 367.6707,-213.2731 358.1465,-208.632 357.331,-215.5843"/>
</g>
<!-- Node49 -->
<g id="node5" class="node">
<title>Node49</title>
<g id="a_node5"><a xlink:href="util_8h.html#a66791919e137c59061e988d2d87ee9a1" target="_top" xlink:title="SetupNetworking">
<polygon fill="#ffffff" stroke="#000000" points="370.5,-171.5 370.5,-190.5 462.5,-190.5 462.5,-171.5 370.5,-171.5"/>
<text text-anchor="middle" x="416.5" y="-178.5" font-family="Helvetica,sans-Serif" font-size="10.00" fill="#000000">SetupNetworking</text>
</a>
</g>
</g>
<!-- Node47&#45;&gt;Node49 -->
<g id="edge4" class="edge">
<title>Node47&#45;&gt;Node49</title>
<path fill="none" stroke="#191970" d="M269.1621,-198.2804C289.5434,-195.89 327.5782,-191.4291 359.8975,-187.6386"/>
<polygon fill="#191970" stroke="#191970" points="360.6361,-191.076 370.1603,-186.4349 359.8207,-184.1237 360.6361,-191.076"/>
</g>
<!-- Node53 -->
<g id="node9" class="node">
<title>Node53</title>
<g id="a_node9"><a xlink:href="class_c_wallet_d_b.html#a14f26e53502d1a60dd2b034f830acf03" target="_top" xlink:title="CWalletDB::LoadWallet">
<polygon fill="#ffffff" stroke="#000000" points="356,-76.5 356,-95.5 477,-95.5 477,-76.5 356,-76.5"/>
<text text-anchor="middle" x="416.5" y="-83.5" font-family="Helvetica,sans-Serif" font-size="10.00" fill="#000000">CWalletDB::LoadWallet</text>
</a>
</g>
</g>
<!-- Node52&#45;&gt;Node53 -->
<g id="edge8" class="edge">
<title>Node52&#45;&gt;Node53</title>
<path fill="none" stroke="#191970" d="M308.4437,-86C320.3085,-86 333.0485,-86 345.4707,-86"/>
<polygon fill="#191970" stroke="#191970" points="345.8046,-89.5001 355.8045,-86 345.8045,-82.5001 345.8046,-89.5001"/>
</g>
<!-- Node54 -->
<g id="node10" class="node">
<title>Node54</title>
<g id="a_node10"><a xlink:href="class_c_d_b.html#adfd2c079df629d5f7cac0ca923ffd698" target="_top" xlink:title="CDB::Read">
<polygon fill="#ffffff" stroke="#000000" points="513,-76.5 513,-95.5 581,-95.5 581,-76.5 513,-76.5"/>
<text text-anchor="middle" x="547" y="-83.5" font-family="Helvetica,sans-Serif" font-size="10.00" fill="#000000">CDB::Read</text>
</a>
</g>
</g>
<!-- Node53&#45;&gt;Node54 -->
<g id="edge9" class="edge">
<title>Node53&#45;&gt;Node54</title>
<path fill="none" stroke="#191970" d="M477.1655,-86C485.7768,-86 494.4952,-86 502.7166,-86"/>
<polygon fill="#191970" stroke="#191970" points="502.8193,-89.5001 512.8192,-86 502.8192,-82.5001 502.8193,-89.5001"/>
</g>
</g>
</svg>
