<?xml version="1.0" encoding="UTF-8" standalone="no"?>
<!DOCTYPE svg PUBLIC "-//W3C//DTD SVG 1.1//EN"
 "http://www.w3.org/Graphics/SVG/1.1/DTD/svg11.dtd">
<!-- Generated by graphviz version 2.40.1 (20161225.0304)
 -->
<!-- Title: CBase58Data::SetString Pages: 1 -->
<svg width="1025pt" height="180pt"
 viewBox="0.00 0.00 1025.00 180.00" xmlns="http://www.w3.org/2000/svg" xmlns:xlink="http://www.w3.org/1999/xlink">
<g id="graph0" class="graph" transform="scale(1 1) rotate(0) translate(4 176)">
<title>CBase58Data::SetString</title>
<polygon fill="#ffffff" stroke="transparent" points="-4,4 -4,-176 1021,-176 1021,4 -4,4"/>
<!-- Node106 -->
<g id="node1" class="node">
<title>Node106</title>
<polygon fill="#bfbfbf" stroke="#000000" points="0,-38.5 0,-57.5 125,-57.5 125,-38.5 0,-38.5"/>
<text text-anchor="middle" x="62.5" y="-45.5" font-family="Helvetica,sans-Serif" font-size="10.00" fill="#000000">CBase58Data::SetString</text>
</g>
<!-- Node107 -->
<g id="node2" class="node">
<title>Node107</title>
<g id="a_node2"><a xlink:href="class_c_base58_data.html#a250fa3bc97d03c7d87de5485c8b49b57" target="_top" xlink:title="CBase58Data::SetString">
<polygon fill="#ffffff" stroke="#000000" points="161,-38.5 161,-57.5 286,-57.5 286,-38.5 161,-38.5"/>
<text text-anchor="middle" x="223.5" y="-45.5" font-family="Helvetica,sans-Serif" font-size="10.00" fill="#000000">CBase58Data::SetString</text>
</a>
</g>
</g>
<!-- Node106&#45;&gt;Node107 -->
<g id="edge1" class="edge">
<title>Node106&#45;&gt;Node107</title>
<path fill="none" stroke="#191970" d="M125.2078,-48C133.6481,-48 142.3631,-48 150.9559,-48"/>
<polygon fill="#191970" stroke="#191970" points="150.9634,-51.5001 160.9633,-48 150.9633,-44.5001 150.9634,-51.5001"/>
</g>
<!-- Node108 -->
<g id="node3" class="node">
<title>Node108</title>
<g id="a_node3"><a xlink:href="base58_8cpp.html#ae2dc7ad63e243509e0871ec4a5890678" target="_top" xlink:title="Decode a base58&#45;encoded string (psz) that includes a checksum into a byte vector (vchRet), return true if decoding is successful. ">
<polygon fill="#ffffff" stroke="#000000" points="322,-114.5 322,-133.5 434,-133.5 434,-114.5 322,-114.5"/>
<text text-anchor="middle" x="378" y="-121.5" font-family="Helvetica,sans-Serif" font-size="10.00" fill="#000000">DecodeBase58Check</text>
</a>
</g>
</g>
<!-- Node107&#45;&gt;Node108 -->
<g id="edge2" class="edge">
<title>Node107&#45;&gt;Node108</title>
<path fill="none" stroke="#191970" d="M243.0675,-57.6255C270.0002,-70.8739 318.6659,-94.813 349.603,-110.0313"/>
<polygon fill="#191970" stroke="#191970" points="348.0733,-113.1793 358.5913,-114.4527 351.1631,-106.8981 348.0733,-113.1793"/>
</g>
<!-- Node113 -->
<g id="node8" class="node">
<title>Node113</title>
<g id="a_node8"><a xlink:href="glibc__compat_8cpp.html#a0f46826ab0466591e136db24394923cf" target="_top" xlink:title="memcpy">
<polygon fill="#ffffff" stroke="#000000" points="865,-95.5 865,-114.5 919,-114.5 919,-95.5 865,-95.5"/>
<text text-anchor="middle" x="892" y="-102.5" font-family="Helvetica,sans-Serif" font-size="10.00" fill="#000000">memcpy</text>
</a>
</g>
</g>
<!-- Node107&#45;&gt;Node113 -->
<g id="edge14" class="edge">
<title>Node107&#45;&gt;Node113</title>
<path fill="none" stroke="#191970" d="M286.1414,-48C344.4812,-48 433.875,-48 511.5,-48 511.5,-48 511.5,-48 640.5,-48 724.7023,-48 749.1148,-40.3846 829,-67 844.2576,-72.0834 859.7461,-81.3583 871.5478,-89.4721"/>
<polygon fill="#191970" stroke="#191970" points="869.6181,-92.395 879.7891,-95.3619 873.6882,-86.6998 869.6181,-92.395"/>
</g>
<!-- Node119 -->
<g id="node14" class="node">
<title>Node119</title>
<g id="a_node14"><a xlink:href="cleanse_8cpp.html#a5a4afb85dd16ecc1f6019c782db78663" target="_top" xlink:title="memory_cleanse">
<polygon fill="#ffffff" stroke="#000000" points="332.5,-.5 332.5,-19.5 423.5,-19.5 423.5,-.5 332.5,-.5"/>
<text text-anchor="middle" x="378" y="-7.5" font-family="Helvetica,sans-Serif" font-size="10.00" fill="#000000">memory_cleanse</text>
</a>
</g>
</g>
<!-- Node107&#45;&gt;Node119 -->
<g id="edge15" class="edge">
<title>Node107&#45;&gt;Node119</title>
<path fill="none" stroke="#191970" d="M262.4869,-38.411C282.783,-33.4191 307.7935,-27.2676 329.3462,-21.9666"/>
<polygon fill="#191970" stroke="#191970" points="330.4188,-25.3072 339.2935,-19.5201 328.7469,-18.5098 330.4188,-25.3072"/>
</g>
<!-- Node109 -->
<g id="node4" class="node">
<title>Node109</title>
<g id="a_node4"><a xlink:href="base58_8cpp.html#a0f74d1d6e7e982cad4b0e538acea4538" target="_top" xlink:title="Decode a base58&#45;encoded string (psz) into a byte vector (vchRet). ">
<polygon fill="#ffffff" stroke="#000000" points="470,-152.5 470,-171.5 553,-171.5 553,-152.5 470,-152.5"/>
<text text-anchor="middle" x="511.5" y="-159.5" font-family="Helvetica,sans-Serif" font-size="10.00" fill="#000000">DecodeBase58</text>
</a>
</g>
</g>
<!-- Node108&#45;&gt;Node109 -->
<g id="edge3" class="edge">
<title>Node108&#45;&gt;Node109</title>
<path fill="none" stroke="#191970" d="M411.6877,-133.589C428.7632,-138.4494 449.7004,-144.4091 467.9816,-149.6127"/>
<polygon fill="#191970" stroke="#191970" points="467.2469,-153.0426 477.8231,-152.4141 469.1634,-146.31 467.2469,-153.0426"/>
</g>
<!-- Node110 -->
<g id="node5" class="node">
<title>Node110</title>
<g id="a_node5"><a xlink:href="hash_8h.html#ab3f6c437460137530d86e09c2c102e99" target="_top" xlink:title="Compute the 256&#45;bit hash of an object. ">
<polygon fill="#ffffff" stroke="#000000" points="491.5,-114.5 491.5,-133.5 531.5,-133.5 531.5,-114.5 491.5,-114.5"/>
<text text-anchor="middle" x="511.5" y="-121.5" font-family="Helvetica,sans-Serif" font-size="10.00" fill="#000000">Hash</text>
</a>
</g>
</g>
<!-- Node108&#45;&gt;Node110 -->
<g id="edge4" class="edge">
<title>Node108&#45;&gt;Node110</title>
<path fill="none" stroke="#191970" d="M434.2291,-124C450.1978,-124 466.9906,-124 480.8269,-124"/>
<polygon fill="#191970" stroke="#191970" points="481.2175,-127.5001 491.2174,-124 481.2174,-120.5001 481.2175,-127.5001"/>
</g>
<!-- Node111 -->
<g id="node6" class="node">
<title>Node111</title>
<g id="a_node6"><a xlink:href="class_c_hash256.html#a9cc25033c6435cb28e2e8e377c949a7a" target="_top" xlink:title="CHash256::Write">
<polygon fill="#ffffff" stroke="#000000" points="594.5,-152.5 594.5,-171.5 686.5,-171.5 686.5,-152.5 594.5,-152.5"/>
<text text-anchor="middle" x="640.5" y="-159.5" font-family="Helvetica,sans-Serif" font-size="10.00" fill="#000000">CHash256::Write</text>
</a>
</g>
</g>
<!-- Node110&#45;&gt;Node111 -->
<g id="edge5" class="edge">
<title>Node110&#45;&gt;Node111</title>
<path fill="none" stroke="#191970" d="M531.6563,-129.9375C549.4337,-135.1743 575.9219,-142.977 598.3164,-149.5738"/>
<polygon fill="#191970" stroke="#191970" points="597.3664,-152.9426 607.9479,-152.411 599.3444,-146.2279 597.3664,-152.9426"/>
</g>
<!-- Node116 -->
<g id="node11" class="node">
<title>Node116</title>
<g id="a_node11"><a xlink:href="class_c_hash256.html#aa8a70c1b7cf24ce7d00240a1131cf4e7" target="_top" xlink:title="CHash256::Finalize">
<polygon fill="#ffffff" stroke="#000000" points="589,-114.5 589,-133.5 692,-133.5 692,-114.5 589,-114.5"/>
<text text-anchor="middle" x="640.5" y="-121.5" font-family="Helvetica,sans-Serif" font-size="10.00" fill="#000000">CHash256::Finalize</text>
</a>
</g>
</g>
<!-- Node110&#45;&gt;Node116 -->
<g id="edge10" class="edge">
<title>Node110&#45;&gt;Node116</title>
<path fill="none" stroke="#191970" d="M531.6563,-124C544.3317,-124 561.4354,-124 578.3262,-124"/>
<polygon fill="#191970" stroke="#191970" points="578.7741,-127.5001 588.7741,-124 578.774,-120.5001 578.7741,-127.5001"/>
</g>
<!-- Node112 -->
<g id="node7" class="node">
<title>Node112</title>
<g id="a_node7"><a xlink:href="class_c_s_h_a256.html#a9d7de520a562655da85349372820c883" target="_top" xlink:title="CSHA256::Write">
<polygon fill="#ffffff" stroke="#000000" points="733.5,-152.5 733.5,-171.5 823.5,-171.5 823.5,-152.5 733.5,-152.5"/>
<text text-anchor="middle" x="778.5" y="-159.5" font-family="Helvetica,sans-Serif" font-size="10.00" fill="#000000">CSHA256::Write</text>
</a>
</g>
</g>
<!-- Node111&#45;&gt;Node112 -->
<g id="edge6" class="edge">
<title>Node111&#45;&gt;Node112</title>
<path fill="none" stroke="#191970" d="M686.8359,-162C698.5812,-162 711.312,-162 723.4429,-162"/>
<polygon fill="#191970" stroke="#191970" points="723.4569,-165.5001 733.4569,-162 723.4568,-158.5001 723.4569,-165.5001"/>
</g>
<!-- Node112&#45;&gt;Node113 -->
<g id="edge7" class="edge">
<title>Node112&#45;&gt;Node113</title>
<path fill="none" stroke="#191970" d="M806.6676,-152.442C814.0481,-149.6571 821.9192,-146.4318 829,-143 842.7859,-136.3185 857.4826,-127.5567 869.2107,-120.1305"/>
<polygon fill="#191970" stroke="#191970" points="871.3965,-122.8857 877.9059,-114.5264 867.6043,-117.0019 871.3965,-122.8857"/>
</g>
<!-- Node114 -->
<g id="node9" class="node">
<title>Node114</title>
<g id="a_node9"><a xlink:href="glibc__compat_8cpp.html#a9778d49e9029dd75bc53ecbbf9f5e9a1" target="_top" xlink:title="memmove">
<polygon fill="#ffffff" stroke="#000000" points="955,-114.5 955,-133.5 1017,-133.5 1017,-114.5 955,-114.5"/>
<text text-anchor="middle" x="986" y="-121.5" font-family="Helvetica,sans-Serif" font-size="10.00" fill="#000000">memmove</text>
</a>
</g>
</g>
<!-- Node113&#45;&gt;Node114 -->
<g id="edge8" class="edge">
<title>Node113&#45;&gt;Node114</title>
<path fill="none" stroke="#191970" d="M919.1887,-110.4956C927.217,-112.1183 936.1892,-113.9319 944.8881,-115.6901"/>
<polygon fill="#191970" stroke="#191970" points="944.4061,-119.1634 954.9013,-117.7141 945.793,-112.3022 944.4061,-119.1634"/>
</g>
<!-- Node115 -->
<g id="node10" class="node">
<title>Node115</title>
<g id="a_node10"><a xlink:href="glibc__compat_8cpp.html#a424ac71631da5ada2976630ff67051d1" target="_top" xlink:title="__chk_fail">
<polygon fill="#ffffff" stroke="#000000" points="955.5,-76.5 955.5,-95.5 1016.5,-95.5 1016.5,-76.5 955.5,-76.5"/>
<text text-anchor="middle" x="986" y="-83.5" font-family="Helvetica,sans-Serif" font-size="10.00" fill="#000000">__chk_fail</text>
</a>
</g>
</g>
<!-- Node113&#45;&gt;Node115 -->
<g id="edge9" class="edge">
<title>Node113&#45;&gt;Node115</title>
<path fill="none" stroke="#191970" d="M919.1887,-99.5044C927.383,-97.8481 936.5608,-95.993 945.4275,-94.2008"/>
<polygon fill="#191970" stroke="#191970" points="946.1288,-97.6299 955.2371,-92.218 944.7419,-90.7687 946.1288,-97.6299"/>
</g>
<!-- Node116&#45;&gt;Node112 -->
<g id="edge13" class="edge">
<title>Node116&#45;&gt;Node112</title>
<path fill="none" stroke="#191970" d="M675.3232,-133.589C693.1377,-138.4944 715.0184,-144.5196 734.0389,-149.7571"/>
<polygon fill="#191970" stroke="#191970" points="733.1175,-153.1336 743.6879,-152.4141 734.976,-146.3848 733.1175,-153.1336"/>
</g>
<!-- Node117 -->
<g id="node12" class="node">
<title>Node117</title>
<g id="a_node12"><a xlink:href="class_c_s_h_a256.html#a4259230be0caefa590bc324fc12b9b90" target="_top" xlink:title="CSHA256::Finalize">
<polygon fill="#ffffff" stroke="#000000" points="728,-114.5 728,-133.5 829,-133.5 829,-114.5 728,-114.5"/>
<text text-anchor="middle" x="778.5" y="-121.5" font-family="Helvetica,sans-Serif" font-size="10.00" fill="#000000">CSHA256::Finalize</text>
</a>
</g>
</g>
<!-- Node116&#45;&gt;Node117 -->
<g id="edge11" class="edge">
<title>Node116&#45;&gt;Node117</title>
<path fill="none" stroke="#191970" d="M692.2787,-124C700.5434,-124 709.1602,-124 717.6124,-124"/>
<polygon fill="#191970" stroke="#191970" points="717.8058,-127.5001 727.8058,-124 717.8058,-120.5001 717.8058,-127.5001"/>
</g>
<!-- Node118 -->
<g id="node13" class="node">
<title>Node118</title>
<g id="a_node13"><a xlink:href="class_c_s_h_a256.html#a2122395dd5604990eaa0077b43a0e8d4" target="_top" xlink:title="CSHA256::Reset">
<polygon fill="#ffffff" stroke="#000000" points="732,-76.5 732,-95.5 825,-95.5 825,-76.5 732,-76.5"/>
<text text-anchor="middle" x="778.5" y="-83.5" font-family="Helvetica,sans-Serif" font-size="10.00" fill="#000000">CSHA256::Reset</text>
</a>
</g>
</g>
<!-- Node116&#45;&gt;Node118 -->
<g id="edge12" class="edge">
<title>Node116&#45;&gt;Node118</title>
<path fill="none" stroke="#191970" d="M675.3232,-114.411C693.1377,-109.5056 715.0184,-103.4804 734.0389,-98.2429"/>
<polygon fill="#191970" stroke="#191970" points="734.976,-101.6152 743.6879,-95.5859 733.1175,-94.8664 734.976,-101.6152"/>
</g>
</g>
</svg>
