<?xml version="1.0" encoding="UTF-8" standalone="no"?>
<!DOCTYPE svg PUBLIC "-//W3C//DTD SVG 1.1//EN"
 "http://www.w3.org/Graphics/SVG/1.1/DTD/svg11.dtd">
<!-- Generated by graphviz version 2.40.1 (20161225.0304)
 -->
<!-- Title: CMessageChannelDB::ReadMyMessageChannel Pages: 1 -->
<svg width="734pt" height="85pt"
 viewBox="0.00 0.00 734.00 85.00" xmlns="http://www.w3.org/2000/svg" xmlns:xlink="http://www.w3.org/1999/xlink">
<g id="graph0" class="graph" transform="scale(1 1) rotate(0) translate(4 81)">
<title>CMessageChannelDB::ReadMyMessageChannel</title>
<polygon fill="#ffffff" stroke="transparent" points="-4,4 -4,-81 730,-81 730,4 -4,4"/>
<!-- Node66 -->
<g id="node1" class="node">
<title>Node66</title>
<polygon fill="#bfbfbf" stroke="#000000" points="0,-33 0,-63 129,-63 129,-33 0,-33"/>
<text text-anchor="start" x="8" y="-51" font-family="Helvetica,sans-Serif" font-size="10.00" fill="#000000">CMessageChannelDB::</text>
<text text-anchor="middle" x="64.5" y="-40" font-family="Helvetica,sans-Serif" font-size="10.00" fill="#000000">ReadMyMessageChannel</text>
</g>
<!-- Node67 -->
<g id="node2" class="node">
<title>Node67</title>
<g id="a_node2"><a xlink:href="messages_8h.html#a27c2172658a0b240d76947771c7137b1" target="_top" xlink:title="IsChannelSubscribed">
<polygon fill="#ffffff" stroke="#000000" points="165,-38.5 165,-57.5 275,-57.5 275,-38.5 165,-38.5"/>
<text text-anchor="middle" x="220" y="-45.5" font-family="Helvetica,sans-Serif" font-size="10.00" fill="#000000">IsChannelSubscribed</text>
</a>
</g>
</g>
<!-- Node66&#45;&gt;Node67 -->
<g id="edge1" class="edge">
<title>Node66&#45;&gt;Node67</title>
<path fill="none" stroke="#191970" d="M139.1669,-48C147.7881,-48 156.4599,-48 164.7575,-48"/>
<polygon fill="#191970" stroke="#191970" points="139.0951,-44.5001 129.0951,-48 139.0951,-51.5001 139.0951,-44.5001"/>
</g>
<!-- Node68 -->
<g id="node3" class="node">
<title>Node68</title>
<g id="a_node3"><a xlink:href="messages_8h.html#ae821d3c2bf631ca5117e60323dc00865" target="_top" xlink:title="ScanForMessageChannels">
<polygon fill="#ffffff" stroke="#000000" points="311,-57.5 311,-76.5 445,-76.5 445,-57.5 311,-57.5"/>
<text text-anchor="middle" x="378" y="-64.5" font-family="Helvetica,sans-Serif" font-size="10.00" fill="#000000">ScanForMessageChannels</text>
</a>
</g>
</g>
<!-- Node67&#45;&gt;Node68 -->
<g id="edge2" class="edge">
<title>Node67&#45;&gt;Node68</title>
<path fill="none" stroke="#191970" d="M285.374,-55.8614C293.773,-56.8714 302.3838,-57.9069 310.8112,-58.9203"/>
<polygon fill="#191970" stroke="#191970" points="285.6071,-52.3643 275.2607,-54.6453 284.7713,-59.3143 285.6071,-52.3643"/>
</g>
<!-- Node69 -->
<g id="node4" class="node">
<title>Node69</title>
<g id="a_node4"><a xlink:href="coins_8h.html#a1f92a68675031d50db78224a057be854" target="_top" xlink:title="Utility function to add all of a transaction&#39;s outputs to a cache. ">
<polygon fill="#ffffff" stroke="#000000" points="348.5,-19.5 348.5,-38.5 407.5,-38.5 407.5,-19.5 348.5,-19.5"/>
<text text-anchor="middle" x="378" y="-26.5" font-family="Helvetica,sans-Serif" font-size="10.00" fill="#000000">AddCoins</text>
</a>
</g>
</g>
<!-- Node67&#45;&gt;Node69 -->
<g id="edge3" class="edge">
<title>Node67&#45;&gt;Node69</title>
<path fill="none" stroke="#191970" d="M285.2001,-40.1595C307.1118,-37.5245 330.4852,-34.7138 348.293,-32.5724"/>
<polygon fill="#191970" stroke="#191970" points="284.7713,-36.6857 275.2607,-41.3547 285.6071,-43.6357 284.7713,-36.6857"/>
</g>
<!-- Node70 -->
<g id="node5" class="node">
<title>Node70</title>
<g id="a_node5"><a xlink:href="class_c_coins_view_cache.html#a4533d27d1d8d744080545f7cea5b8e7c" target="_top" xlink:title="Get a cursor to iterate over the whole state. ">
<polygon fill="#ffffff" stroke="#000000" points="481,-38.5 481,-57.5 616,-57.5 616,-38.5 481,-38.5"/>
<text text-anchor="middle" x="548.5" y="-45.5" font-family="Helvetica,sans-Serif" font-size="10.00" fill="#000000">CCoinsViewCache::Cursor</text>
</a>
</g>
</g>
<!-- Node69&#45;&gt;Node70 -->
<g id="edge4" class="edge">
<title>Node69&#45;&gt;Node70</title>
<path fill="none" stroke="#191970" d="M417.6848,-33.4223C436.502,-35.5193 459.5137,-38.0836 480.9608,-40.4736"/>
<polygon fill="#191970" stroke="#191970" points="418.025,-29.9387 407.6988,-32.3095 417.2497,-36.8956 418.025,-29.9387"/>
</g>
<!-- Node71 -->
<g id="node6" class="node">
<title>Node71</title>
<g id="a_node6"><a xlink:href="validation_8h.html#a91b5ac61688f4e264fa71d1caf138340" target="_top" xlink:title="UpdateCoins">
<polygon fill="#ffffff" stroke="#000000" points="511.5,-.5 511.5,-19.5 585.5,-19.5 585.5,-.5 511.5,-.5"/>
<text text-anchor="middle" x="548.5" y="-7.5" font-family="Helvetica,sans-Serif" font-size="10.00" fill="#000000">UpdateCoins</text>
</a>
</g>
</g>
<!-- Node69&#45;&gt;Node71 -->
<g id="edge5" class="edge">
<title>Node69&#45;&gt;Node71</title>
<path fill="none" stroke="#191970" d="M417.6552,-24.5809C445.9435,-21.4286 483.7223,-17.2186 511.4121,-14.133"/>
<polygon fill="#191970" stroke="#191970" points="417.2497,-21.1044 407.6988,-25.6905 418.025,-28.0613 417.2497,-21.1044"/>
</g>
<!-- Node72 -->
<g id="node7" class="node">
<title>Node72</title>
<g id="a_node7"><a xlink:href="validation_8h.html#ae9afb0553a9927e26785f4e4806a9892" target="_top" xlink:title="Apply the effects of this transaction on the UTXO set represented by view. ">
<polygon fill="#ffffff" stroke="#000000" points="652,-.5 652,-19.5 726,-19.5 726,-.5 652,-.5"/>
<text text-anchor="middle" x="689" y="-7.5" font-family="Helvetica,sans-Serif" font-size="10.00" fill="#000000">UpdateCoins</text>
</a>
</g>
</g>
<!-- Node71&#45;&gt;Node72 -->
<g id="edge6" class="edge">
<title>Node71&#45;&gt;Node72</title>
<path fill="none" stroke="#191970" d="M595.875,-10C614.0204,-10 634.4514,-10 651.5432,-10"/>
<polygon fill="#191970" stroke="#191970" points="595.7826,-6.5001 585.7825,-10 595.7825,-13.5001 595.7826,-6.5001"/>
</g>
</g>
</svg>
