<?xml version="1.0" encoding="UTF-8" standalone="no"?>
<!DOCTYPE svg PUBLIC "-//W3C//DTD SVG 1.1//EN"
 "http://www.w3.org/Graphics/SVG/1.1/DTD/svg11.dtd">
<!-- Generated by graphviz version 2.40.1 (20161225.0304)
 -->
<!-- Title: TransactionDesc::TransactionDesc Pages: 1 -->
<svg width="848pt" height="180pt"
 viewBox="0.00 0.00 848.00 180.00" xmlns="http://www.w3.org/2000/svg" xmlns:xlink="http://www.w3.org/1999/xlink">
<g id="graph0" class="graph" transform="scale(1 1) rotate(0) translate(4 176)">
<title>TransactionDesc::TransactionDesc</title>
<polygon fill="#ffffff" stroke="transparent" points="-4,4 -4,-176 844,-176 844,4 -4,4"/>
<!-- Node0 -->
<g id="node1" class="node">
<title>Node0</title>
<polygon fill="#bfbfbf" stroke="#000000" points="0,-76.5 0,-95.5 171,-95.5 171,-76.5 0,-76.5"/>
<text text-anchor="middle" x="85.5" y="-83.5" font-family="Helvetica,sans-Serif" font-size="10.00" fill="#000000">TransactionDesc::TransactionDesc</text>
</g>
<!-- Node1 -->
<g id="node2" class="node">
<title>Node1</title>
<g id="a_node2"><a xlink:href="class_transaction_desc.html#afcd4db6bf3a341cafe06a57ec31b7531" target="_top" xlink:title="TransactionDesc::FormatTx\lStatus">
<polygon fill="#ffffff" stroke="#000000" points="207,-71 207,-101 346,-101 346,-71 207,-71"/>
<text text-anchor="start" x="215" y="-89" font-family="Helvetica,sans-Serif" font-size="10.00" fill="#000000">TransactionDesc::FormatTx</text>
<text text-anchor="middle" x="276.5" y="-78" font-family="Helvetica,sans-Serif" font-size="10.00" fill="#000000">Status</text>
</a>
</g>
</g>
<!-- Node0&#45;&gt;Node1 -->
<g id="edge1" class="edge">
<title>Node0&#45;&gt;Node1</title>
<path fill="none" stroke="#191970" d="M171.2228,-86C179.6833,-86 188.2473,-86 196.6454,-86"/>
<polygon fill="#191970" stroke="#191970" points="196.7888,-89.5001 206.7888,-86 196.7888,-82.5001 196.7888,-89.5001"/>
</g>
<!-- Node2 -->
<g id="node3" class="node">
<title>Node2</title>
<g id="a_node3"><a xlink:href="validation_8cpp.html#a7e254ea66e047c3d3ed0bedc5997fc4f" target="_top" xlink:title="Transaction validation functions. ">
<polygon fill="#ffffff" stroke="#000000" points="382,-76.5 382,-95.5 459,-95.5 459,-76.5 382,-76.5"/>
<text text-anchor="middle" x="420.5" y="-83.5" font-family="Helvetica,sans-Serif" font-size="10.00" fill="#000000">CheckFinalTx</text>
</a>
</g>
</g>
<!-- Node1&#45;&gt;Node2 -->
<g id="edge2" class="edge">
<title>Node1&#45;&gt;Node2</title>
<path fill="none" stroke="#191970" d="M346.3909,-86C354.9563,-86 363.5616,-86 371.7212,-86"/>
<polygon fill="#191970" stroke="#191970" points="371.782,-89.5001 381.7819,-86 371.7819,-82.5001 371.782,-89.5001"/>
</g>
<!-- Node3 -->
<g id="node4" class="node">
<title>Node3</title>
<g id="a_node4"><a xlink:href="class_c_chain.html#ad4758bc8872ce065a9579f77c3171d40" target="_top" xlink:title="Return the maximal height in the chain. ">
<polygon fill="#ffffff" stroke="#000000" points="537,-152.5 537,-171.5 621,-171.5 621,-152.5 537,-152.5"/>
<text text-anchor="middle" x="579" y="-159.5" font-family="Helvetica,sans-Serif" font-size="10.00" fill="#000000">CChain::Height</text>
</a>
</g>
</g>
<!-- Node2&#45;&gt;Node3 -->
<g id="edge3" class="edge">
<title>Node2&#45;&gt;Node3</title>
<path fill="none" stroke="#191970" d="M430.1737,-95.6605C443.5624,-108.4644 469.0405,-130.8494 495,-143 504.9532,-147.6587 516.1154,-151.2085 526.9718,-153.9021"/>
<polygon fill="#191970" stroke="#191970" points="526.2852,-157.3353 536.8126,-156.1424 527.839,-150.5099 526.2852,-157.3353"/>
</g>
<!-- Node4 -->
<g id="node5" class="node">
<title>Node4</title>
<g id="a_node5"><a xlink:href="class_c_chain.html#a578545bde95163bee37b1be28e7b2755" target="_top" xlink:title="Returns the index entry for the tip of this chain, or nullptr if none. ">
<polygon fill="#ffffff" stroke="#000000" points="544.5,-114.5 544.5,-133.5 613.5,-133.5 613.5,-114.5 544.5,-114.5"/>
<text text-anchor="middle" x="579" y="-121.5" font-family="Helvetica,sans-Serif" font-size="10.00" fill="#000000">CChain::Tip</text>
</a>
</g>
</g>
<!-- Node2&#45;&gt;Node4 -->
<g id="edge4" class="edge">
<title>Node2&#45;&gt;Node4</title>
<path fill="none" stroke="#191970" d="M457.207,-95.5732C469.2331,-98.653 482.6711,-102.0341 495,-105 507.7324,-108.063 521.585,-111.2541 534.301,-114.1271"/>
<polygon fill="#191970" stroke="#191970" points="533.688,-117.5766 544.2122,-116.3546 535.223,-110.747 533.688,-117.5766"/>
</g>
<!-- Node5 -->
<g id="node6" class="node">
<title>Node5</title>
<g id="a_node6"><a xlink:href="class_c_block_index.html#aa9bd0ab02cf8b9c866618cee3a5a0583" target="_top" xlink:title="CBlockIndex::GetMedianTimePast">
<polygon fill="#ffffff" stroke="#000000" points="495,-76.5 495,-95.5 663,-95.5 663,-76.5 495,-76.5"/>
<text text-anchor="middle" x="579" y="-83.5" font-family="Helvetica,sans-Serif" font-size="10.00" fill="#000000">CBlockIndex::GetMedianTimePast</text>
</a>
</g>
</g>
<!-- Node2&#45;&gt;Node5 -->
<g id="edge5" class="edge">
<title>Node2&#45;&gt;Node5</title>
<path fill="none" stroke="#191970" d="M459.2735,-86C467.1974,-86 475.8594,-86 484.7841,-86"/>
<polygon fill="#191970" stroke="#191970" points="484.9468,-89.5001 494.9467,-86 484.9467,-82.5001 484.9468,-89.5001"/>
</g>
<!-- Node7 -->
<g id="node8" class="node">
<title>Node7</title>
<g id="a_node8"><a xlink:href="timedata_8cpp.html#a09f81b9c7650f898cf3cf305b87547e6" target="_top" xlink:title="GetAdjustedTime">
<polygon fill="#ffffff" stroke="#000000" points="533,-38.5 533,-57.5 625,-57.5 625,-38.5 533,-38.5"/>
<text text-anchor="middle" x="579" y="-45.5" font-family="Helvetica,sans-Serif" font-size="10.00" fill="#000000">GetAdjustedTime</text>
</a>
</g>
</g>
<!-- Node2&#45;&gt;Node7 -->
<g id="edge7" class="edge">
<title>Node2&#45;&gt;Node7</title>
<path fill="none" stroke="#191970" d="M457.207,-76.4268C469.2331,-73.347 482.6711,-69.9659 495,-67 504.9215,-64.6132 515.5233,-62.1486 525.7374,-59.8174"/>
<polygon fill="#191970" stroke="#191970" points="526.8049,-63.1642 535.7827,-57.5384 525.2561,-56.3377 526.8049,-63.1642"/>
</g>
<!-- Node10 -->
<g id="node11" class="node">
<title>Node10</title>
<g id="a_node11"><a xlink:href="tx__verify_8cpp.html#adc332cd7ac94e639bb4239618341be19" target="_top" xlink:title="Check if transaction is final and can be included in a block with the specified height and time...">
<polygon fill="#ffffff" stroke="#000000" points="550.5,-.5 550.5,-19.5 607.5,-19.5 607.5,-.5 550.5,-.5"/>
<text text-anchor="middle" x="579" y="-7.5" font-family="Helvetica,sans-Serif" font-size="10.00" fill="#000000">IsFinalTx</text>
</a>
</g>
</g>
<!-- Node2&#45;&gt;Node10 -->
<g id="edge10" class="edge">
<title>Node2&#45;&gt;Node10</title>
<path fill="none" stroke="#191970" d="M430.1737,-76.3395C443.5624,-63.5356 469.0405,-41.1506 495,-29 509.057,-22.4205 525.5254,-18.0528 540.1383,-15.185"/>
<polygon fill="#191970" stroke="#191970" points="541.1622,-18.5575 550.3899,-13.3517 539.9299,-11.6668 541.1622,-18.5575"/>
</g>
<!-- Node6 -->
<g id="node7" class="node">
<title>Node6</title>
<g id="a_node7"><a xlink:href="class_c_block_index.html#a9fe0d4463c07c466f66252e8eec25f5c" target="_top" xlink:title="CBlockIndex::GetBlockTime">
<polygon fill="#ffffff" stroke="#000000" points="699,-76.5 699,-95.5 840,-95.5 840,-76.5 699,-76.5"/>
<text text-anchor="middle" x="769.5" y="-83.5" font-family="Helvetica,sans-Serif" font-size="10.00" fill="#000000">CBlockIndex::GetBlockTime</text>
</a>
</g>
</g>
<!-- Node5&#45;&gt;Node6 -->
<g id="edge6" class="edge">
<title>Node5&#45;&gt;Node6</title>
<path fill="none" stroke="#191970" d="M663.1106,-86C671.6139,-86 680.2373,-86 688.7046,-86"/>
<polygon fill="#191970" stroke="#191970" points="688.9371,-89.5001 698.937,-86 688.937,-82.5001 688.9371,-89.5001"/>
</g>
<!-- Node8 -->
<g id="node9" class="node">
<title>Node8</title>
<g id="a_node9"><a xlink:href="utiltime_8cpp.html#a46fac5fba8ba905b5f9acb364f5d8c6f" target="_top" xlink:title="GetTimeMicros() and GetTimeMillis() both return the system time, but in different units...">
<polygon fill="#ffffff" stroke="#000000" points="742.5,-38.5 742.5,-57.5 796.5,-57.5 796.5,-38.5 742.5,-38.5"/>
<text text-anchor="middle" x="769.5" y="-45.5" font-family="Helvetica,sans-Serif" font-size="10.00" fill="#000000">GetTime</text>
</a>
</g>
</g>
<!-- Node7&#45;&gt;Node8 -->
<g id="edge8" class="edge">
<title>Node7&#45;&gt;Node8</title>
<path fill="none" stroke="#191970" d="M625.1147,-48C657.9157,-48 701.4221,-48 732.0745,-48"/>
<polygon fill="#191970" stroke="#191970" points="732.342,-51.5001 742.342,-48 732.342,-44.5001 732.342,-51.5001"/>
</g>
<!-- Node9 -->
<g id="node10" class="node">
<title>Node9</title>
<g id="a_node10"><a xlink:href="timedata_8cpp.html#a50ca5344c75631267633f15cfe5e983e" target="_top" xlink:title="&quot;Never go to sea with two chronometers; take one or three.&quot; Our three time sources are: ...">
<polygon fill="#ffffff" stroke="#000000" points="729,-.5 729,-19.5 810,-19.5 810,-.5 729,-.5"/>
<text text-anchor="middle" x="769.5" y="-7.5" font-family="Helvetica,sans-Serif" font-size="10.00" fill="#000000">GetTimeOffset</text>
</a>
</g>
</g>
<!-- Node7&#45;&gt;Node9 -->
<g id="edge9" class="edge">
<title>Node7&#45;&gt;Node9</title>
<path fill="none" stroke="#191970" d="M625.1147,-38.8013C653.4832,-33.1425 689.8591,-25.8864 719.0018,-20.0731"/>
<polygon fill="#191970" stroke="#191970" points="719.8612,-23.4707 728.9833,-18.0821 718.4918,-16.606 719.8612,-23.4707"/>
</g>
</g>
</svg>
