<?xml version="1.0" encoding="UTF-8" standalone="no"?>
<!DOCTYPE svg PUBLIC "-//W3C//DTD SVG 1.1//EN"
 "http://www.w3.org/Graphics/SVG/1.1/DTD/svg11.dtd">
<!-- Generated by graphviz version 2.40.1 (20161225.0304)
 -->
<!-- Title: PlatformStyle::TextColor Pages: 1 -->
<svg width="1950pt" height="302pt"
 viewBox="0.00 0.00 1950.00 302.00" xmlns="http://www.w3.org/2000/svg" xmlns:xlink="http://www.w3.org/1999/xlink">
<g id="graph0" class="graph" transform="scale(1 1) rotate(0) translate(4 298)">
<title>PlatformStyle::TextColor</title>
<polygon fill="#ffffff" stroke="transparent" points="-4,4 -4,-298 1946,-298 1946,4 -4,4"/>
<!-- Node221 -->
<g id="node1" class="node">
<title>Node221</title>
<polygon fill="#bfbfbf" stroke="#000000" points="0,-110 0,-129 125,-129 125,-110 0,-110"/>
<text text-anchor="middle" x="62.5" y="-117" font-family="Helvetica,sans-Serif" font-size="10.00" fill="#000000">PlatformStyle::TextColor</text>
</g>
<!-- Node222 -->
<g id="node2" class="node">
<title>Node222</title>
<g id="a_node2"><a xlink:href="class_tx_view_delegate.html#aeb314283e3a3fae5099d95c7b3309d57" target="_top" xlink:title="TxViewDelegate::paint">
<polygon fill="#ffffff" stroke="#000000" points="174.5,-186 174.5,-205 290.5,-205 290.5,-186 174.5,-186"/>
<text text-anchor="middle" x="232.5" y="-193" font-family="Helvetica,sans-Serif" font-size="10.00" fill="#000000">TxViewDelegate::paint</text>
</a>
</g>
</g>
<!-- Node221&#45;&gt;Node222 -->
<g id="edge1" class="edge">
<title>Node221&#45;&gt;Node222</title>
<path fill="none" stroke="#191970" d="M87.7136,-134.2667C107.2923,-145.3727 135.3379,-160.505 161,-171.5 173.6374,-176.9145 187.9365,-181.9249 200.4083,-185.9518"/>
<polygon fill="#191970" stroke="#191970" points="89.2462,-131.1109 78.8299,-129.1738 85.7647,-137.1838 89.2462,-131.1109"/>
</g>
<!-- Node223 -->
<g id="node3" class="node">
<title>Node223</title>
<g id="a_node3"><a xlink:href="class_platform_style.html#ac3c91893b60a84a98155b7b9603918bd" target="_top" xlink:title="Colorize an icon (given filename) with the text color. ">
<polygon fill="#ffffff" stroke="#000000" points="161,-110 161,-129 304,-129 304,-110 161,-110"/>
<text text-anchor="middle" x="232.5" y="-117" font-family="Helvetica,sans-Serif" font-size="10.00" fill="#000000">PlatformStyle::TextColorIcon</text>
</a>
</g>
</g>
<!-- Node221&#45;&gt;Node223 -->
<g id="edge2" class="edge">
<title>Node221&#45;&gt;Node223</title>
<path fill="none" stroke="#191970" d="M135.4498,-119.5C143.8389,-119.5 152.3878,-119.5 160.7608,-119.5"/>
<polygon fill="#191970" stroke="#191970" points="135.3188,-116.0001 125.3187,-119.5 135.3187,-123.0001 135.3188,-116.0001"/>
</g>
<!-- Node224 -->
<g id="node4" class="node">
<title>Node224</title>
<g id="a_node4"><a xlink:href="class_platform_style.html#a67b6942f6dcf2ca765f8af2d6f377ce8" target="_top" xlink:title="PlatformStyle::getUseExtra\lSpacing">
<polygon fill="#ffffff" stroke="#000000" points="346,-175.5 346,-205.5 483,-205.5 483,-175.5 346,-175.5"/>
<text text-anchor="start" x="354" y="-193.5" font-family="Helvetica,sans-Serif" font-size="10.00" fill="#000000">PlatformStyle::getUseExtra</text>
<text text-anchor="middle" x="414.5" y="-182.5" font-family="Helvetica,sans-Serif" font-size="10.00" fill="#000000">Spacing</text>
</a>
</g>
</g>
<!-- Node221&#45;&gt;Node224 -->
<g id="edge26" class="edge">
<title>Node221&#45;&gt;Node224</title>
<path fill="none" stroke="#191970" d="M119.5753,-131.0123C181.3801,-143.4787 279.949,-163.3604 345.9162,-176.6663"/>
<polygon fill="#191970" stroke="#191970" points="120.1017,-127.5481 109.607,-129.0017 118.7176,-134.4099 120.1017,-127.5481"/>
</g>
<!-- Node229 -->
<g id="node9" class="node">
<title>Node229</title>
<g id="a_node9"><a xlink:href="class_raven_g_u_i.html#af82cbe028fc29d0ea71074eced806071" target="_top" xlink:title="RavenGUI::RavenGUI">
<polygon fill="#ffffff" stroke="#000000" points="551,-50 551,-69 667,-69 667,-50 551,-50"/>
<text text-anchor="middle" x="609" y="-57" font-family="Helvetica,sans-Serif" font-size="10.00" fill="#000000">RavenGUI::RavenGUI</text>
</a>
</g>
</g>
<!-- Node221&#45;&gt;Node229 -->
<g id="edge27" class="edge">
<title>Node221&#45;&gt;Node229</title>
<path fill="none" stroke="#191970" d="M118.3968,-108.0309C132.284,-105.3712 147.1567,-102.6832 161,-100.5 299.8687,-78.5989 464.9376,-67.2265 550.7082,-62.4043"/>
<polygon fill="#191970" stroke="#191970" points="117.6372,-104.613 108.4877,-109.955 118.9715,-111.4846 117.6372,-104.613"/>
</g>
<!-- Node245 -->
<g id="node25" class="node">
<title>Node245</title>
<g id="a_node25"><a xlink:href="class_unit_display_status_bar_control.html#aeb1291e39e016cb77c340db456bef03f" target="_top" xlink:title="Creates context menu, its actions, and wires up all the relevant signals for mouse events...">
<polygon fill="#ffffff" stroke="#000000" points="161,-.5 161,-30.5 304,-30.5 304,-.5 161,-.5"/>
<text text-anchor="start" x="169" y="-18.5" font-family="Helvetica,sans-Serif" font-size="10.00" fill="#000000">UnitDisplayStatusBarControl</text>
<text text-anchor="middle" x="232.5" y="-7.5" font-family="Helvetica,sans-Serif" font-size="10.00" fill="#000000">::createContextMenu</text>
</a>
</g>
</g>
<!-- Node221&#45;&gt;Node245 -->
<g id="edge28" class="edge">
<title>Node221&#45;&gt;Node245</title>
<path fill="none" stroke="#191970" d="M81.0419,-103.3544C100.1503,-87.2638 131.2626,-62.5578 161,-45.5 170.5751,-40.0076 181.352,-34.9558 191.5785,-30.6258"/>
<polygon fill="#191970" stroke="#191970" points="78.7287,-100.7271 73.3907,-109.879 83.2708,-106.0534 78.7287,-100.7271"/>
</g>
<!-- Node223&#45;&gt;Node224 -->
<g id="edge3" class="edge">
<title>Node223&#45;&gt;Node224</title>
<path fill="none" stroke="#191970" d="M276.1946,-132.2744C285.5402,-135.5271 295.2333,-139.3064 304,-143.5 321.1279,-151.6933 322.8225,-158.4113 340,-166.5 346.8845,-169.7418 354.322,-172.7138 361.7411,-175.3789"/>
<polygon fill="#191970" stroke="#191970" points="277.2285,-128.9297 266.6347,-129.0801 275.01,-135.5689 277.2285,-128.9297"/>
</g>
<!-- Node228 -->
<g id="node8" class="node">
<title>Node228</title>
<g id="a_node8"><a xlink:href="class_raven_g_u_i.html#a6e65b4f2b8a82b4ab99b77fe9d43a500" target="_top" xlink:title="Create the main UI actions. ">
<polygon fill="#ffffff" stroke="#000000" points="350,-88 350,-107 479,-107 479,-88 350,-88"/>
<text text-anchor="middle" x="414.5" y="-95" font-family="Helvetica,sans-Serif" font-size="10.00" fill="#000000">RavenGUI::createActions</text>
</a>
</g>
</g>
<!-- Node223&#45;&gt;Node228 -->
<g id="edge7" class="edge">
<title>Node223&#45;&gt;Node228</title>
<path fill="none" stroke="#191970" d="M314.181,-109.6265C326.1822,-108.1758 338.402,-106.6987 349.9934,-105.2975"/>
<polygon fill="#191970" stroke="#191970" points="313.6776,-106.1617 304.17,-110.8366 314.5177,-113.1112 313.6776,-106.1617"/>
</g>
<!-- Node230 -->
<g id="node10" class="node">
<title>Node230</title>
<g id="a_node10"><a xlink:href="class_transaction_table_model.html#a02173c31b6014bff182e320217e30e10" target="_top" xlink:title="TransactionTableModel\l::data">
<polygon fill="#ffffff" stroke="#000000" points="355.5,-126.5 355.5,-156.5 473.5,-156.5 473.5,-126.5 355.5,-126.5"/>
<text text-anchor="start" x="363.5" y="-144.5" font-family="Helvetica,sans-Serif" font-size="10.00" fill="#000000">TransactionTableModel</text>
<text text-anchor="middle" x="414.5" y="-133.5" font-family="Helvetica,sans-Serif" font-size="10.00" fill="#000000">::data</text>
</a>
</g>
</g>
<!-- Node223&#45;&gt;Node230 -->
<g id="edge9" class="edge">
<title>Node223&#45;&gt;Node230</title>
<path fill="none" stroke="#191970" d="M314.1668,-129.3718C327.9917,-131.043 342.107,-132.7492 355.2182,-134.3341"/>
<polygon fill="#191970" stroke="#191970" points="314.5177,-125.8888 304.17,-128.1634 313.6776,-132.8383 314.5177,-125.8888"/>
</g>
<!-- Node225 -->
<g id="node5" class="node">
<title>Node225</title>
<g id="a_node5"><a xlink:href="class_send_assets_entry.html#adceb9d1df4a80a3c8948ffc1352e4f02" target="_top" xlink:title="SendAssetsEntry::SendAssets\lEntry">
<polygon fill="#ffffff" stroke="#000000" points="533,-263.5 533,-293.5 685,-293.5 685,-263.5 533,-263.5"/>
<text text-anchor="start" x="541" y="-281.5" font-family="Helvetica,sans-Serif" font-size="10.00" fill="#000000">SendAssetsEntry::SendAssets</text>
<text text-anchor="middle" x="609" y="-270.5" font-family="Helvetica,sans-Serif" font-size="10.00" fill="#000000">Entry</text>
</a>
</g>
</g>
<!-- Node224&#45;&gt;Node225 -->
<g id="edge4" class="edge">
<title>Node224&#45;&gt;Node225</title>
<path fill="none" stroke="#191970" d="M445.3456,-211.138C466.9358,-224.8798 496.8432,-242.5411 525,-254.5 532.678,-257.761 540.9341,-260.7286 549.1655,-263.3783"/>
<polygon fill="#191970" stroke="#191970" points="447.2228,-208.1839 436.9217,-205.7064 443.4295,-214.067 447.2228,-208.1839"/>
</g>
<!-- Node226 -->
<g id="node6" class="node">
<title>Node226</title>
<g id="a_node6"><a xlink:href="class_send_coins_entry.html#a6eae20cd564011773931fc724f4d787c" target="_top" xlink:title="SendCoinsEntry::SendCoins\lEntry">
<polygon fill="#ffffff" stroke="#000000" points="538,-214.5 538,-244.5 680,-244.5 680,-214.5 538,-214.5"/>
<text text-anchor="start" x="546" y="-232.5" font-family="Helvetica,sans-Serif" font-size="10.00" fill="#000000">SendCoinsEntry::SendCoins</text>
<text text-anchor="middle" x="609" y="-221.5" font-family="Helvetica,sans-Serif" font-size="10.00" fill="#000000">Entry</text>
</a>
</g>
</g>
<!-- Node224&#45;&gt;Node226 -->
<g id="edge5" class="edge">
<title>Node224&#45;&gt;Node226</title>
<path fill="none" stroke="#191970" d="M493.1694,-206.2743C507.9144,-209.2309 523.2512,-212.3062 537.7552,-215.2144"/>
<polygon fill="#191970" stroke="#191970" points="493.5664,-202.7843 483.0734,-204.2499 492.1901,-209.6477 493.5664,-202.7843"/>
</g>
<!-- Node227 -->
<g id="node7" class="node">
<title>Node227</title>
<g id="a_node7"><a xlink:href="class_transaction_view.html#a6bad80e62c684ad1e77250510c9323aa" target="_top" xlink:title="TransactionView::TransactionView">
<polygon fill="#ffffff" stroke="#000000" points="525,-176 525,-195 693,-195 693,-176 525,-176"/>
<text text-anchor="middle" x="609" y="-183" font-family="Helvetica,sans-Serif" font-size="10.00" fill="#000000">TransactionView::TransactionView</text>
</a>
</g>
</g>
<!-- Node224&#45;&gt;Node227 -->
<g id="edge6" class="edge">
<title>Node224&#45;&gt;Node227</title>
<path fill="none" stroke="#191970" d="M493.2954,-188.4744C503.6319,-188.2087 514.2571,-187.9356 524.6805,-187.6676"/>
<polygon fill="#191970" stroke="#191970" points="492.9801,-184.9813 483.0734,-188.7372 493.1601,-191.979 492.9801,-184.9813"/>
</g>
<!-- Node228&#45;&gt;Node229 -->
<g id="edge8" class="edge">
<title>Node228&#45;&gt;Node229</title>
<path fill="none" stroke="#191970" d="M473.3076,-86.0106C501.0594,-80.5886 533.7891,-74.1942 560.1504,-69.0439"/>
<polygon fill="#191970" stroke="#191970" points="472.4728,-82.6074 463.3295,-87.96 473.8151,-89.4775 472.4728,-82.6074"/>
</g>
<!-- Node231 -->
<g id="node11" class="node">
<title>Node231</title>
<g id="a_node11"><a xlink:href="class_transaction_table_model.html#af3a9a49314f80268a77a704f7f028905" target="_top" xlink:title="TransactionTableModel\l::index">
<polygon fill="#ffffff" stroke="#000000" points="550,-126.5 550,-156.5 668,-156.5 668,-126.5 550,-126.5"/>
<text text-anchor="start" x="558" y="-144.5" font-family="Helvetica,sans-Serif" font-size="10.00" fill="#000000">TransactionTableModel</text>
<text text-anchor="middle" x="609" y="-133.5" font-family="Helvetica,sans-Serif" font-size="10.00" fill="#000000">::index</text>
</a>
</g>
</g>
<!-- Node230&#45;&gt;Node231 -->
<g id="edge10" class="edge">
<title>Node230&#45;&gt;Node231</title>
<path fill="none" stroke="#191970" d="M483.7398,-141.5C505.3385,-141.5 528.9525,-141.5 549.7977,-141.5"/>
<polygon fill="#191970" stroke="#191970" points="483.6486,-138.0001 473.6486,-141.5 483.6486,-145.0001 483.6486,-138.0001"/>
</g>
<!-- Node237 -->
<g id="node17" class="node">
<title>Node237</title>
<g id="a_node17"><a xlink:href="class_wallet_view.html#aed3fc203d310243887be68bc58d741ec" target="_top" xlink:title="Show incoming transaction notification for new transactions. ">
<polygon fill="#ffffff" stroke="#000000" points="729,-88 729,-107 907,-107 907,-88 729,-88"/>
<text text-anchor="middle" x="818" y="-95" font-family="Helvetica,sans-Serif" font-size="10.00" fill="#000000">WalletView::processNewTransaction</text>
</a>
</g>
</g>
<!-- Node230&#45;&gt;Node237 -->
<g id="edge25" class="edge">
<title>Node230&#45;&gt;Node237</title>
<path fill="none" stroke="#191970" d="M483.4189,-124.9123C497.1302,-122.0709 511.4712,-119.4205 525,-117.5 593.0223,-107.8439 670.6144,-102.8118 728.8555,-100.2113"/>
<polygon fill="#191970" stroke="#191970" points="482.6201,-121.5038 473.5669,-127.0074 484.0762,-128.3507 482.6201,-121.5038"/>
</g>
<!-- Node232 -->
<g id="node12" class="node">
<title>Node232</title>
<g id="a_node12"><a xlink:href="class_transaction_table_model.html#a5899d9eda6465bfb16d2846b6459567e" target="_top" xlink:title="TransactionTableModel\l::updateConfirmations">
<polygon fill="#ffffff" stroke="#000000" points="759,-126.5 759,-156.5 877,-156.5 877,-126.5 759,-126.5"/>
<text text-anchor="start" x="767" y="-144.5" font-family="Helvetica,sans-Serif" font-size="10.00" fill="#000000">TransactionTableModel</text>
<text text-anchor="middle" x="818" y="-133.5" font-family="Helvetica,sans-Serif" font-size="10.00" fill="#000000">::updateConfirmations</text>
</a>
</g>
</g>
<!-- Node231&#45;&gt;Node232 -->
<g id="edge11" class="edge">
<title>Node231&#45;&gt;Node232</title>
<path fill="none" stroke="#191970" d="M678.2365,-141.5C704.2931,-141.5 733.6632,-141.5 758.7307,-141.5"/>
<polygon fill="#191970" stroke="#191970" points="678.053,-138.0001 668.053,-141.5 678.0529,-145.0001 678.053,-138.0001"/>
</g>
<!-- Node235 -->
<g id="node15" class="node">
<title>Node235</title>
<g id="a_node15"><a xlink:href="class_transaction_table_model.html#a8b73ff7d72ec2dd69790bc61bbe8575e" target="_top" xlink:title="TransactionTableModel\l::updateDisplayUnit">
<polygon fill="#ffffff" stroke="#000000" points="759,-175.5 759,-205.5 877,-205.5 877,-175.5 759,-175.5"/>
<text text-anchor="start" x="767" y="-193.5" font-family="Helvetica,sans-Serif" font-size="10.00" fill="#000000">TransactionTableModel</text>
<text text-anchor="middle" x="818" y="-182.5" font-family="Helvetica,sans-Serif" font-size="10.00" fill="#000000">::updateDisplayUnit</text>
</a>
</g>
</g>
<!-- Node231&#45;&gt;Node235 -->
<g id="edge14" class="edge">
<title>Node231&#45;&gt;Node235</title>
<path fill="none" stroke="#191970" d="M677.8908,-157.6514C704.0331,-163.7805 733.5523,-170.7013 758.7307,-176.6043"/>
<polygon fill="#191970" stroke="#191970" points="678.5879,-154.22 668.053,-155.345 676.99,-161.0352 678.5879,-154.22"/>
</g>
<!-- Node231&#45;&gt;Node237 -->
<g id="edge16" class="edge">
<title>Node231&#45;&gt;Node237</title>
<path fill="none" stroke="#191970" d="M677.979,-126.9781C709.1192,-120.4223 745.0358,-112.8609 772.6959,-107.0377"/>
<polygon fill="#191970" stroke="#191970" points="677.1174,-123.5827 668.053,-129.0678 678.5595,-130.4325 677.1174,-123.5827"/>
</g>
<!-- Node233 -->
<g id="node13" class="node">
<title>Node233</title>
<g id="a_node13"><a xlink:href="class_wallet_model.html#a51469b2d95cfd4bc0a14ee456fca7b95" target="_top" xlink:title="WalletModel::pollBalance\lChanged">
<polygon fill="#ffffff" stroke="#000000" points="949.5,-126.5 949.5,-156.5 1076.5,-156.5 1076.5,-126.5 949.5,-126.5"/>
<text text-anchor="start" x="957.5" y="-144.5" font-family="Helvetica,sans-Serif" font-size="10.00" fill="#000000">WalletModel::pollBalance</text>
<text text-anchor="middle" x="1013" y="-133.5" font-family="Helvetica,sans-Serif" font-size="10.00" fill="#000000">Changed</text>
</a>
</g>
</g>
<!-- Node232&#45;&gt;Node233 -->
<g id="edge12" class="edge">
<title>Node232&#45;&gt;Node233</title>
<path fill="none" stroke="#191970" d="M887.1426,-141.5C907.4238,-141.5 929.4981,-141.5 949.4153,-141.5"/>
<polygon fill="#191970" stroke="#191970" points="887.0356,-138.0001 877.0356,-141.5 887.0356,-145.0001 887.0356,-138.0001"/>
</g>
<!-- Node234 -->
<g id="node14" class="node">
<title>Node234</title>
<g id="a_node14"><a xlink:href="class_wallet_model.html#a36282857c97bcaad796a2b5c7398245c" target="_top" xlink:title="WalletModel::WalletModel">
<polygon fill="#ffffff" stroke="#000000" points="1119,-132 1119,-151 1250,-151 1250,-132 1119,-132"/>
<text text-anchor="middle" x="1184.5" y="-139" font-family="Helvetica,sans-Serif" font-size="10.00" fill="#000000">WalletModel::WalletModel</text>
</a>
</g>
</g>
<!-- Node233&#45;&gt;Node234 -->
<g id="edge13" class="edge">
<title>Node233&#45;&gt;Node234</title>
<path fill="none" stroke="#191970" d="M1086.9432,-141.5C1097.5612,-141.5 1108.4255,-141.5 1118.8679,-141.5"/>
<polygon fill="#191970" stroke="#191970" points="1086.8603,-138.0001 1076.8603,-141.5 1086.8602,-145.0001 1086.8603,-138.0001"/>
</g>
<!-- Node236 -->
<g id="node16" class="node">
<title>Node236</title>
<g id="a_node16"><a xlink:href="class_transaction_table_model.html#ac5cc82df37f09b4aed2d20628a77e756" target="_top" xlink:title="TransactionTableModel\l::TransactionTableModel">
<polygon fill="#ffffff" stroke="#000000" points="951,-175.5 951,-205.5 1075,-205.5 1075,-175.5 951,-175.5"/>
<text text-anchor="start" x="959" y="-193.5" font-family="Helvetica,sans-Serif" font-size="10.00" fill="#000000">TransactionTableModel</text>
<text text-anchor="middle" x="1013" y="-182.5" font-family="Helvetica,sans-Serif" font-size="10.00" fill="#000000">::TransactionTableModel</text>
</a>
</g>
</g>
<!-- Node235&#45;&gt;Node236 -->
<g id="edge15" class="edge">
<title>Node235&#45;&gt;Node236</title>
<path fill="none" stroke="#191970" d="M887.0609,-190.5C907.8293,-190.5 930.4843,-190.5 950.7814,-190.5"/>
<polygon fill="#191970" stroke="#191970" points="887.0356,-187.0001 877.0356,-190.5 887.0356,-194.0001 887.0356,-187.0001"/>
</g>
<!-- Node238 -->
<g id="node18" class="node">
<title>Node238</title>
<g id="a_node18"><a xlink:href="class_wallet_view.html#a0a37ff693a4f9c1e5ddc23f9cd3913be" target="_top" xlink:title="Set the wallet model. ">
<polygon fill="#ffffff" stroke="#000000" points="943,-88 943,-107 1083,-107 1083,-88 943,-88"/>
<text text-anchor="middle" x="1013" y="-95" font-family="Helvetica,sans-Serif" font-size="10.00" fill="#000000">WalletView::setWalletModel</text>
</a>
</g>
</g>
<!-- Node237&#45;&gt;Node238 -->
<g id="edge17" class="edge">
<title>Node237&#45;&gt;Node238</title>
<path fill="none" stroke="#191970" d="M917.3179,-97.5C925.9217,-97.5 934.5066,-97.5 942.8045,-97.5"/>
<polygon fill="#191970" stroke="#191970" points="917.2252,-94.0001 907.2252,-97.5 917.2251,-101.0001 917.2252,-94.0001"/>
</g>
<!-- Node239 -->
<g id="node19" class="node">
<title>Node239</title>
<g id="a_node19"><a xlink:href="class_wallet_frame.html#aa199c3f27654199d84c365cf86167d86" target="_top" xlink:title="WalletFrame::addWallet">
<polygon fill="#ffffff" stroke="#000000" points="1123.5,-88 1123.5,-107 1245.5,-107 1245.5,-88 1123.5,-88"/>
<text text-anchor="middle" x="1184.5" y="-95" font-family="Helvetica,sans-Serif" font-size="10.00" fill="#000000">WalletFrame::addWallet</text>
</a>
</g>
</g>
<!-- Node238&#45;&gt;Node239 -->
<g id="edge18" class="edge">
<title>Node238&#45;&gt;Node239</title>
<path fill="none" stroke="#191970" d="M1093.3167,-97.5C1103.4377,-97.5 1113.66,-97.5 1123.4167,-97.5"/>
<polygon fill="#191970" stroke="#191970" points="1093.2505,-94.0001 1083.2504,-97.5 1093.2504,-101.0001 1093.2505,-94.0001"/>
</g>
<!-- Node240 -->
<g id="node20" class="node">
<title>Node240</title>
<g id="a_node20"><a xlink:href="class_raven_g_u_i.html#a174a3e75c334c5930d3261a2955c3725" target="_top" xlink:title="Set the client model. ">
<polygon fill="#ffffff" stroke="#000000" points="1286,-88 1286,-107 1420,-107 1420,-88 1286,-88"/>
<text text-anchor="middle" x="1353" y="-95" font-family="Helvetica,sans-Serif" font-size="10.00" fill="#000000">RavenGUI::setClientModel</text>
</a>
</g>
</g>
<!-- Node239&#45;&gt;Node240 -->
<g id="edge19" class="edge">
<title>Node239&#45;&gt;Node240</title>
<path fill="none" stroke="#191970" d="M1255.9861,-97.5C1265.8575,-97.5 1275.9683,-97.5 1285.7593,-97.5"/>
<polygon fill="#191970" stroke="#191970" points="1255.8091,-94.0001 1245.809,-97.5 1255.809,-101.0001 1255.8091,-94.0001"/>
</g>
<!-- Node241 -->
<g id="node21" class="node">
<title>Node241</title>
<g id="a_node21"><a xlink:href="class_raven_application.html#a60123f611cc210870fa67974cb2c804c" target="_top" xlink:title="Request core shutdown. ">
<polygon fill="#ffffff" stroke="#000000" points="1811,-104.5 1811,-134.5 1942,-134.5 1942,-104.5 1811,-104.5"/>
<text text-anchor="start" x="1819" y="-122.5" font-family="Helvetica,sans-Serif" font-size="10.00" fill="#000000">RavenApplication::request</text>
<text text-anchor="middle" x="1876.5" y="-111.5" font-family="Helvetica,sans-Serif" font-size="10.00" fill="#000000">Shutdown</text>
</a>
</g>
</g>
<!-- Node240&#45;&gt;Node241 -->
<g id="edge20" class="edge">
<title>Node240&#45;&gt;Node241</title>
<path fill="none" stroke="#191970" d="M1430.1333,-100.7415C1533.2203,-105.0737 1714.1346,-112.6766 1810.9629,-116.7458"/>
<polygon fill="#191970" stroke="#191970" points="1430.238,-97.2429 1420.0999,-100.3199 1429.944,-104.2367 1430.238,-97.2429"/>
</g>
<!-- Node242 -->
<g id="node22" class="node">
<title>Node242</title>
<g id="a_node22"><a xlink:href="class_raven_application.html#a1a3dcf33ba44507984b2a04e7ebf1542" target="_top" xlink:title="RavenApplication::initialize\lResult">
<polygon fill="#ffffff" stroke="#000000" points="1456,-60.5 1456,-90.5 1590,-90.5 1590,-60.5 1456,-60.5"/>
<text text-anchor="start" x="1464" y="-78.5" font-family="Helvetica,sans-Serif" font-size="10.00" fill="#000000">RavenApplication::initialize</text>
<text text-anchor="middle" x="1523" y="-67.5" font-family="Helvetica,sans-Serif" font-size="10.00" fill="#000000">Result</text>
</a>
</g>
</g>
<!-- Node240&#45;&gt;Node242 -->
<g id="edge21" class="edge">
<title>Node240&#45;&gt;Node242</title>
<path fill="none" stroke="#191970" d="M1430.146,-87.5164C1438.6879,-86.411 1447.3366,-85.2917 1455.7428,-84.2039"/>
<polygon fill="#191970" stroke="#191970" points="1429.6566,-84.0505 1420.1885,-88.805 1430.555,-90.9926 1429.6566,-84.0505"/>
</g>
<!-- Node243 -->
<g id="node23" class="node">
<title>Node243</title>
<g id="a_node23"><a xlink:href="class_raven_application.html#aecfdce3a245b959def5dd35e5cfb192e" target="_top" xlink:title="RavenApplication::startThread">
<polygon fill="#ffffff" stroke="#000000" points="1626,-66 1626,-85 1775,-85 1775,-66 1626,-66"/>
<text text-anchor="middle" x="1700.5" y="-73" font-family="Helvetica,sans-Serif" font-size="10.00" fill="#000000">RavenApplication::startThread</text>
</a>
</g>
</g>
<!-- Node242&#45;&gt;Node243 -->
<g id="edge22" class="edge">
<title>Node242&#45;&gt;Node243</title>
<path fill="none" stroke="#191970" d="M1600.3486,-75.5C1608.821,-75.5 1617.4344,-75.5 1625.873,-75.5"/>
<polygon fill="#191970" stroke="#191970" points="1600.1052,-72.0001 1590.1051,-75.5 1600.1051,-79.0001 1600.1052,-72.0001"/>
</g>
<!-- Node243&#45;&gt;Node241 -->
<g id="edge24" class="edge">
<title>Node243&#45;&gt;Node241</title>
<path fill="none" stroke="#191970" d="M1748.6046,-87.5261C1769.4811,-92.7453 1794.1576,-98.9144 1816.2385,-104.4346"/>
<polygon fill="#191970" stroke="#191970" points="1749.2397,-84.0773 1738.6894,-85.0473 1747.5419,-90.8683 1749.2397,-84.0773"/>
</g>
<!-- Node244 -->
<g id="node24" class="node">
<title>Node244</title>
<g id="a_node24"><a xlink:href="class_raven_application.html#a63a2032fef875fb81f26c212f69d000d" target="_top" xlink:title="Request core initialization. ">
<polygon fill="#ffffff" stroke="#000000" points="1811,-55.5 1811,-85.5 1942,-85.5 1942,-55.5 1811,-55.5"/>
<text text-anchor="start" x="1819" y="-73.5" font-family="Helvetica,sans-Serif" font-size="10.00" fill="#000000">RavenApplication::request</text>
<text text-anchor="middle" x="1876.5" y="-62.5" font-family="Helvetica,sans-Serif" font-size="10.00" fill="#000000">Initialize</text>
</a>
</g>
</g>
<!-- Node243&#45;&gt;Node244 -->
<g id="edge23" class="edge">
<title>Node243&#45;&gt;Node244</title>
<path fill="none" stroke="#191970" d="M1785.2384,-73.0927C1793.8743,-72.8473 1802.5522,-72.6008 1810.9387,-72.3625"/>
<polygon fill="#191970" stroke="#191970" points="1785.0364,-69.5969 1775.1398,-73.3795 1785.2352,-76.5941 1785.0364,-69.5969"/>
</g>
<!-- Node246 -->
<g id="node26" class="node">
<title>Node246</title>
<g id="a_node26"><a xlink:href="class_unit_display_status_bar_control.html#a7db4ef1ea7a6a457d7981ee1719b62c1" target="_top" xlink:title="UnitDisplayStatusBarControl\l::UnitDisplayStatusBarControl">
<polygon fill="#ffffff" stroke="#000000" points="340,-.5 340,-30.5 489,-30.5 489,-.5 340,-.5"/>
<text text-anchor="start" x="348" y="-18.5" font-family="Helvetica,sans-Serif" font-size="10.00" fill="#000000">UnitDisplayStatusBarControl</text>
<text text-anchor="middle" x="414.5" y="-7.5" font-family="Helvetica,sans-Serif" font-size="10.00" fill="#000000">::UnitDisplayStatusBarControl</text>
</a>
</g>
</g>
<!-- Node245&#45;&gt;Node246 -->
<g id="edge29" class="edge">
<title>Node245&#45;&gt;Node246</title>
<path fill="none" stroke="#191970" d="M314.4416,-15.5C322.922,-15.5 331.5085,-15.5 339.9023,-15.5"/>
<polygon fill="#191970" stroke="#191970" points="314.17,-12.0001 304.17,-15.5 314.1699,-19.0001 314.17,-12.0001"/>
</g>
</g>
</svg>
