<?xml version="1.0" encoding="UTF-8" standalone="no"?>
<!DOCTYPE svg PUBLIC "-//W3C//DTD SVG 1.1//EN"
 "http://www.w3.org/Graphics/SVG/1.1/DTD/svg11.dtd">
<!-- Generated by graphviz version 2.40.1 (20161225.0304)
 -->
<!-- Title: org.raven.Secp256k1Context.secp256k1_init_context Pages: 1 -->
<svg width="975pt" height="715pt"
 viewBox="0.00 0.00 975.00 715.00" xmlns="http://www.w3.org/2000/svg" xmlns:xlink="http://www.w3.org/1999/xlink">
<g id="graph0" class="graph" transform="scale(1 1) rotate(0) translate(4 711)">
<title>org.raven.Secp256k1Context.secp256k1_init_context</title>
<polygon fill="#ffffff" stroke="transparent" points="-4,4 -4,-711 971,-711 971,4 -4,4"/>
<!-- Node34 -->
<g id="node1" class="node">
<title>Node34</title>
<polygon fill="#bfbfbf" stroke="#000000" points="0,-269.5 0,-299.5 194,-299.5 194,-269.5 0,-269.5"/>
<text text-anchor="start" x="8" y="-287.5" font-family="Helvetica,sans-Serif" font-size="10.00" fill="#000000">org.raven.Secp256k1Context.secp256k1</text>
<text text-anchor="middle" x="97" y="-276.5" font-family="Helvetica,sans-Serif" font-size="10.00" fill="#000000">_init_context</text>
</g>
<!-- Node35 -->
<g id="node2" class="node">
<title>Node35</title>
<g id="a_node2"><a xlink:href="classorg_1_1raven_1_1_secp256k1_context.html#abbf0f91315a2a9733772b3694640a4f7" target="_top" xlink:title="org.raven.Secp256k1Context.get\lContext">
<polygon fill="#ffffff" stroke="#000000" points="230,-269.5 230,-299.5 390,-299.5 390,-269.5 230,-269.5"/>
<text text-anchor="start" x="238" y="-287.5" font-family="Helvetica,sans-Serif" font-size="10.00" fill="#000000">org.raven.Secp256k1Context.get</text>
<text text-anchor="middle" x="310" y="-276.5" font-family="Helvetica,sans-Serif" font-size="10.00" fill="#000000">Context</text>
</a>
</g>
</g>
<!-- Node34&#45;&gt;Node35 -->
<g id="edge1" class="edge">
<title>Node34&#45;&gt;Node35</title>
<path fill="none" stroke="#191970" d="M204.2652,-284.5C212.8905,-284.5 221.5091,-284.5 229.8947,-284.5"/>
<polygon fill="#191970" stroke="#191970" points="204.1504,-281.0001 194.1504,-284.5 204.1503,-288.0001 204.1504,-281.0001"/>
</g>
<!-- Node36 -->
<g id="node3" class="node">
<title>Node36</title>
<g id="a_node3"><a xlink:href="classorg_1_1raven_1_1_native_secp256k1.html#ae84f6bcdca09ce3b38b21a57f0e665f9" target="_top" xlink:title="Verifies the given secp256k1 signature in native code. ">
<polygon fill="#ffffff" stroke="#000000" points="436.5,-633 436.5,-652 600.5,-652 600.5,-633 436.5,-633"/>
<text text-anchor="middle" x="518.5" y="-640" font-family="Helvetica,sans-Serif" font-size="10.00" fill="#000000">org.raven.NativeSecp256k1.verify</text>
</a>
</g>
</g>
<!-- Node35&#45;&gt;Node36 -->
<g id="edge2" class="edge">
<title>Node35&#45;&gt;Node36</title>
<path fill="none" stroke="#191970" d="M316.1496,-309.5498C329.6283,-360.9171 365.4934,-480.3373 426,-563.5 447.8676,-593.5557 483.3879,-619.6246 503.4527,-632.9826"/>
<polygon fill="#191970" stroke="#191970" points="319.4875,-308.4757 313.6124,-299.659 312.707,-310.2151 319.4875,-308.4757"/>
</g>
<!-- Node40 -->
<g id="node7" class="node">
<title>Node40</title>
<g id="a_node7"><a xlink:href="classorg_1_1raven_1_1_native_secp256k1.html#ab0fe0b8861fda95301e6d994acf2103b" target="_top" xlink:title="libsecp256k1 Create an ECDSA signature. ">
<polygon fill="#ffffff" stroke="#000000" points="439.5,-535 439.5,-554 597.5,-554 597.5,-535 439.5,-535"/>
<text text-anchor="middle" x="518.5" y="-542" font-family="Helvetica,sans-Serif" font-size="10.00" fill="#000000">org.raven.NativeSecp256k1.sign</text>
</a>
</g>
</g>
<!-- Node35&#45;&gt;Node40 -->
<g id="edge7" class="edge">
<title>Node35&#45;&gt;Node40</title>
<path fill="none" stroke="#191970" d="M321.6568,-308.9239C340.3041,-346.4619 379.5135,-419.4457 426,-471.5 449.574,-497.8976 483.5292,-521.9548 503.069,-534.7796"/>
<polygon fill="#191970" stroke="#191970" points="324.7041,-307.1886 317.1598,-299.7499 318.4187,-310.2697 324.7041,-307.1886"/>
</g>
<!-- Node43 -->
<g id="node10" class="node">
<title>Node43</title>
<g id="a_node10"><a xlink:href="classorg_1_1raven_1_1_native_secp256k1.html#a7290b6079e722df8adf8059d1fa4e7ce" target="_top" xlink:title="libsecp256k1 Seckey Verify &#45; returns 1 if valid, 0 if invalid ">
<polygon fill="#ffffff" stroke="#000000" points="440.5,-431.5 440.5,-461.5 596.5,-461.5 596.5,-431.5 440.5,-431.5"/>
<text text-anchor="start" x="448.5" y="-449.5" font-family="Helvetica,sans-Serif" font-size="10.00" fill="#000000">org.raven.NativeSecp256k1.sec</text>
<text text-anchor="middle" x="518.5" y="-438.5" font-family="Helvetica,sans-Serif" font-size="10.00" fill="#000000">KeyVerify</text>
</a>
</g>
</g>
<!-- Node35&#45;&gt;Node43 -->
<g id="edge12" class="edge">
<title>Node35&#45;&gt;Node43</title>
<path fill="none" stroke="#191970" d="M323.6081,-308.4766C342.5191,-339.5761 379.7016,-393.2904 426,-422.5 431.4723,-425.9525 437.4241,-428.91 443.5822,-431.4434"/>
<polygon fill="#191970" stroke="#191970" points="326.4529,-306.4125 318.3359,-299.6033 320.435,-309.9881 326.4529,-306.4125"/>
</g>
<!-- Node46 -->
<g id="node13" class="node">
<title>Node46</title>
<g id="a_node13"><a xlink:href="classorg_1_1raven_1_1_native_secp256k1.html#af7c2a188914e9d9353e990e2a4e4f686" target="_top" xlink:title="libsecp256k1 Compute Pubkey &#45; computes public key from secret key ">
<polygon fill="#ffffff" stroke="#000000" points="429.5,-382.5 429.5,-412.5 607.5,-412.5 607.5,-382.5 429.5,-382.5"/>
<text text-anchor="start" x="437.5" y="-400.5" font-family="Helvetica,sans-Serif" font-size="10.00" fill="#000000">org.raven.NativeSecp256k1.compute</text>
<text text-anchor="middle" x="518.5" y="-389.5" font-family="Helvetica,sans-Serif" font-size="10.00" fill="#000000">Pubkey</text>
</a>
</g>
</g>
<!-- Node35&#45;&gt;Node46 -->
<g id="edge17" class="edge">
<title>Node35&#45;&gt;Node46</title>
<path fill="none" stroke="#191970" d="M333.5112,-306.7318C355.7386,-326.6237 390.8377,-355.2328 426,-372.5 433.7646,-376.313 442.1914,-379.6084 450.6909,-382.4393"/>
<polygon fill="#191970" stroke="#191970" points="335.681,-303.9742 325.9283,-299.8348 330.971,-309.1526 335.681,-303.9742"/>
</g>
<!-- Node49 -->
<g id="node16" class="node">
<title>Node49</title>
<g id="a_node16"><a xlink:href="classorg_1_1raven_1_1_native_secp256k1.html#a944032858502abed11cbe6e1353742a6" target="_top" xlink:title="libsecp256k1 Cleanup &#45; This destroys the secp256k1 context object This should be called at the end of...">
<polygon fill="#ffffff" stroke="#000000" points="431.5,-344 431.5,-363 605.5,-363 605.5,-344 431.5,-344"/>
<text text-anchor="middle" x="518.5" y="-351" font-family="Helvetica,sans-Serif" font-size="10.00" fill="#000000">org.raven.NativeSecp256k1.cleanup</text>
</a>
</g>
</g>
<!-- Node35&#45;&gt;Node49 -->
<g id="edge22" class="edge">
<title>Node35&#45;&gt;Node49</title>
<path fill="none" stroke="#191970" d="M349.4305,-303.8859C371.5248,-314.136 399.8247,-326.2657 426,-334.5 437.7291,-338.1897 450.525,-341.3483 462.7559,-343.9702"/>
<polygon fill="#191970" stroke="#191970" points="350.9047,-300.7115 340.3657,-299.6249 347.9268,-307.0465 350.9047,-300.7115"/>
</g>
<!-- Node50 -->
<g id="node17" class="node">
<title>Node50</title>
<g id="a_node17"><a xlink:href="classorg_1_1raven_1_1_native_secp256k1.html#a6d7d01cc1bd0cf48f93b3d5261e6e2f2" target="_top" xlink:title="org.raven.NativeSecp256k1.clone\lContext">
<polygon fill="#ffffff" stroke="#000000" points="436.5,-294.5 436.5,-324.5 600.5,-324.5 600.5,-294.5 436.5,-294.5"/>
<text text-anchor="start" x="444.5" y="-312.5" font-family="Helvetica,sans-Serif" font-size="10.00" fill="#000000">org.raven.NativeSecp256k1.clone</text>
<text text-anchor="middle" x="518.5" y="-301.5" font-family="Helvetica,sans-Serif" font-size="10.00" fill="#000000">Context</text>
</a>
</g>
</g>
<!-- Node35&#45;&gt;Node50 -->
<g id="edge24" class="edge">
<title>Node35&#45;&gt;Node50</title>
<path fill="none" stroke="#191970" d="M400.0527,-295.2977C412.0913,-296.7412 424.3874,-298.2155 436.2824,-299.6418"/>
<polygon fill="#191970" stroke="#191970" points="400.3608,-291.8096 390.0152,-294.0942 399.5274,-298.7599 400.3608,-291.8096"/>
</g>
<!-- Node51 -->
<g id="node18" class="node">
<title>Node51</title>
<g id="a_node18"><a xlink:href="classorg_1_1raven_1_1_native_secp256k1.html#adb35ac10d96e7097b424e99ee8b49fd1" target="_top" xlink:title="libsecp256k1 PrivKey Tweak&#45;Mul &#45; Tweak privkey by multiplying to it ">
<polygon fill="#ffffff" stroke="#000000" points="440.5,-245.5 440.5,-275.5 596.5,-275.5 596.5,-245.5 440.5,-245.5"/>
<text text-anchor="start" x="448.5" y="-263.5" font-family="Helvetica,sans-Serif" font-size="10.00" fill="#000000">org.raven.NativeSecp256k1.priv</text>
<text text-anchor="middle" x="518.5" y="-252.5" font-family="Helvetica,sans-Serif" font-size="10.00" fill="#000000">KeyTweakMul</text>
</a>
</g>
</g>
<!-- Node35&#45;&gt;Node51 -->
<g id="edge25" class="edge">
<title>Node35&#45;&gt;Node51</title>
<path fill="none" stroke="#191970" d="M400.184,-274.1191C413.5818,-272.5769 427.2953,-270.9984 440.4175,-269.4879"/>
<polygon fill="#191970" stroke="#191970" points="399.5494,-270.669 390.0152,-275.2896 400.3499,-277.623 399.5494,-270.669"/>
</g>
<!-- Node53 -->
<g id="node20" class="node">
<title>Node53</title>
<g id="a_node20"><a xlink:href="classorg_1_1raven_1_1_native_secp256k1.html#af67cc01d932bb877324f9dd9c14f9489" target="_top" xlink:title="libsecp256k1 PrivKey Tweak&#45;Add &#45; Tweak privkey by adding to it ">
<polygon fill="#ffffff" stroke="#000000" points="440.5,-196.5 440.5,-226.5 596.5,-226.5 596.5,-196.5 440.5,-196.5"/>
<text text-anchor="start" x="448.5" y="-214.5" font-family="Helvetica,sans-Serif" font-size="10.00" fill="#000000">org.raven.NativeSecp256k1.priv</text>
<text text-anchor="middle" x="518.5" y="-203.5" font-family="Helvetica,sans-Serif" font-size="10.00" fill="#000000">KeyTweakAdd</text>
</a>
</g>
</g>
<!-- Node35&#45;&gt;Node53 -->
<g id="edge28" class="edge">
<title>Node35&#45;&gt;Node53</title>
<path fill="none" stroke="#191970" d="M352.3535,-265.4393C374.1109,-256.0419 401.1981,-244.9441 426,-236.5 436.3934,-232.9615 447.5759,-229.5858 458.4498,-226.5242"/>
<polygon fill="#191970" stroke="#191970" points="350.8381,-262.2817 343.0691,-269.4854 353.6347,-268.6988 350.8381,-262.2817"/>
</g>
<!-- Node55 -->
<g id="node22" class="node">
<title>Node55</title>
<g id="a_node22"><a xlink:href="classorg_1_1raven_1_1_native_secp256k1.html#a99b14229b4bfd9e8c2edbc22e839d76c" target="_top" xlink:title="libsecp256k1 PubKey Tweak&#45;Add &#45; Tweak pubkey by adding to it ">
<polygon fill="#ffffff" stroke="#000000" points="440.5,-147.5 440.5,-177.5 596.5,-177.5 596.5,-147.5 440.5,-147.5"/>
<text text-anchor="start" x="448.5" y="-165.5" font-family="Helvetica,sans-Serif" font-size="10.00" fill="#000000">org.raven.NativeSecp256k1.pub</text>
<text text-anchor="middle" x="518.5" y="-154.5" font-family="Helvetica,sans-Serif" font-size="10.00" fill="#000000">KeyTweakAdd</text>
</a>
</g>
</g>
<!-- Node35&#45;&gt;Node55 -->
<g id="edge31" class="edge">
<title>Node35&#45;&gt;Node55</title>
<path fill="none" stroke="#191970" d="M330.9377,-262.0445C352.6934,-239.9933 388.719,-206.9183 426,-187.5 433.3769,-183.6576 441.4008,-180.3625 449.5376,-177.5475"/>
<polygon fill="#191970" stroke="#191970" points="328.308,-259.7287 323.8589,-269.3441 333.3332,-264.6019 328.308,-259.7287"/>
</g>
<!-- Node57 -->
<g id="node24" class="node">
<title>Node57</title>
<g id="a_node24"><a xlink:href="classorg_1_1raven_1_1_native_secp256k1.html#ab56b5eeebb37ee6756744fd71425db77" target="_top" xlink:title="libsecp256k1 PubKey Tweak&#45;Mul &#45; Tweak pubkey by multiplying to it ">
<polygon fill="#ffffff" stroke="#000000" points="440.5,-98.5 440.5,-128.5 596.5,-128.5 596.5,-98.5 440.5,-98.5"/>
<text text-anchor="start" x="448.5" y="-116.5" font-family="Helvetica,sans-Serif" font-size="10.00" fill="#000000">org.raven.NativeSecp256k1.pub</text>
<text text-anchor="middle" x="518.5" y="-105.5" font-family="Helvetica,sans-Serif" font-size="10.00" fill="#000000">KeyTweakMul</text>
</a>
</g>
</g>
<!-- Node35&#45;&gt;Node57 -->
<g id="edge34" class="edge">
<title>Node35&#45;&gt;Node57</title>
<path fill="none" stroke="#191970" d="M322.495,-260.63C340.7962,-228.039 377.9925,-170.0687 426,-138.5 431.8377,-134.6612 438.2497,-131.4091 444.8904,-128.6546"/>
<polygon fill="#191970" stroke="#191970" points="319.3759,-259.0389 317.6355,-269.4898 325.5133,-262.4052 319.3759,-259.0389"/>
</g>
<!-- Node59 -->
<g id="node26" class="node">
<title>Node59</title>
<g id="a_node26"><a xlink:href="classorg_1_1raven_1_1_native_secp256k1.html#a0e200627f9fc86a02b998bcd4e8569bb" target="_top" xlink:title="libsecp256k1 create ECDH secret &#45; constant time ECDH calculation ">
<polygon fill="#ffffff" stroke="#000000" points="435,-49.5 435,-79.5 602,-79.5 602,-49.5 435,-49.5"/>
<text text-anchor="start" x="443" y="-67.5" font-family="Helvetica,sans-Serif" font-size="10.00" fill="#000000">org.raven.NativeSecp256k1.create</text>
<text text-anchor="middle" x="518.5" y="-56.5" font-family="Helvetica,sans-Serif" font-size="10.00" fill="#000000">ECDHSecret</text>
</a>
</g>
</g>
<!-- Node35&#45;&gt;Node59 -->
<g id="edge37" class="edge">
<title>Node35&#45;&gt;Node59</title>
<path fill="none" stroke="#191970" d="M317.8095,-259.7435C332.2465,-218.088 367.1283,-134.1672 426,-89.5 431.0359,-85.6791 436.615,-82.4417 442.4649,-79.6988"/>
<polygon fill="#191970" stroke="#191970" points="314.4412,-258.7797 314.5775,-269.3737 321.0774,-261.007 314.4412,-258.7797"/>
</g>
<!-- Node61 -->
<g id="node28" class="node">
<title>Node61</title>
<g id="a_node28"><a xlink:href="classorg_1_1raven_1_1_native_secp256k1.html#ab9c66fef67799f869f65d296e61adb0e" target="_top" xlink:title="libsecp256k1 randomize &#45; updates the context randomization ">
<polygon fill="#ffffff" stroke="#000000" points="426,-9 426,-28 611,-28 611,-9 426,-9"/>
<text text-anchor="middle" x="518.5" y="-16" font-family="Helvetica,sans-Serif" font-size="10.00" fill="#000000">org.raven.NativeSecp256k1.randomize</text>
</a>
</g>
</g>
<!-- Node35&#45;&gt;Node61 -->
<g id="edge40" class="edge">
<title>Node35&#45;&gt;Node61</title>
<path fill="none" stroke="#191970" d="M314.3975,-259.3145C324.5221,-209.219 354.3419,-96.9652 426,-39.5 431.9096,-34.7609 438.682,-31.0468 445.8164,-28.1425"/>
<polygon fill="#191970" stroke="#191970" points="310.9303,-258.8105 312.4782,-269.2917 317.8043,-260.133 310.9303,-258.8105"/>
</g>
<!-- Node37 -->
<g id="node4" class="node">
<title>Node37</title>
<g id="a_node4"><a xlink:href="classorg_1_1raven_1_1_native_secp256k1_test.html#abcd023d79317a4d0af1d346ab6264be3" target="_top" xlink:title="This tests verify() for a valid signature. ">
<polygon fill="#ffffff" stroke="#000000" points="652,-676.5 652,-706.5 789,-706.5 789,-676.5 652,-676.5"/>
<text text-anchor="start" x="660" y="-694.5" font-family="Helvetica,sans-Serif" font-size="10.00" fill="#000000">org.raven.NativeSecp256k1</text>
<text text-anchor="middle" x="720.5" y="-683.5" font-family="Helvetica,sans-Serif" font-size="10.00" fill="#000000">Test.testVerifyPos</text>
</a>
</g>
</g>
<!-- Node36&#45;&gt;Node37 -->
<g id="edge3" class="edge">
<title>Node36&#45;&gt;Node37</title>
<path fill="none" stroke="#191970" d="M567.6676,-654.4268C595.021,-661.062 629.3323,-669.3851 658.5109,-676.463"/>
<polygon fill="#191970" stroke="#191970" points="568.4704,-651.0201 557.9272,-652.064 566.8202,-657.8228 568.4704,-651.0201"/>
</g>
<!-- Node39 -->
<g id="node6" class="node">
<title>Node39</title>
<g id="a_node6"><a xlink:href="classorg_1_1raven_1_1_native_secp256k1_test.html#a7d0c9449a1b5f6af1be061f8997869fc" target="_top" xlink:title="This tests verify() for a non&#45;valid signature. ">
<polygon fill="#ffffff" stroke="#000000" points="652,-627.5 652,-657.5 789,-657.5 789,-627.5 652,-627.5"/>
<text text-anchor="start" x="660" y="-645.5" font-family="Helvetica,sans-Serif" font-size="10.00" fill="#000000">org.raven.NativeSecp256k1</text>
<text text-anchor="middle" x="720.5" y="-634.5" font-family="Helvetica,sans-Serif" font-size="10.00" fill="#000000">Test.testVerifyNeg</text>
</a>
</g>
</g>
<!-- Node36&#45;&gt;Node39 -->
<g id="edge5" class="edge">
<title>Node36&#45;&gt;Node39</title>
<path fill="none" stroke="#191970" d="M610.715,-642.5C624.5972,-642.5 638.7025,-642.5 651.9711,-642.5"/>
<polygon fill="#191970" stroke="#191970" points="610.6612,-639.0001 600.6611,-642.5 610.6611,-646.0001 610.6612,-639.0001"/>
</g>
<!-- Node38 -->
<g id="node5" class="node">
<title>Node38</title>
<g id="a_node5"><a xlink:href="classorg_1_1raven_1_1_native_secp256k1_test.html#afd1b0d2fe3413a8fcd28b3acb4b91b12" target="_top" xlink:title="org.raven.NativeSecp256k1\lTest.main">
<polygon fill="#ffffff" stroke="#000000" points="830,-333.5 830,-363.5 967,-363.5 967,-333.5 830,-333.5"/>
<text text-anchor="start" x="838" y="-351.5" font-family="Helvetica,sans-Serif" font-size="10.00" fill="#000000">org.raven.NativeSecp256k1</text>
<text text-anchor="middle" x="898.5" y="-340.5" font-family="Helvetica,sans-Serif" font-size="10.00" fill="#000000">Test.main</text>
</a>
</g>
</g>
<!-- Node37&#45;&gt;Node38 -->
<g id="edge4" class="edge">
<title>Node37&#45;&gt;Node38</title>
<path fill="none" stroke="#191970" d="M790.6571,-670.5617C791.8153,-669.5872 792.9317,-668.5673 794,-667.5 839.145,-622.3981 883.5256,-421.01 895.4114,-363.7384"/>
<polygon fill="#191970" stroke="#191970" points="788.6116,-667.7215 782.474,-676.3575 792.6575,-673.4339 788.6116,-667.7215"/>
</g>
<!-- Node39&#45;&gt;Node38 -->
<g id="edge6" class="edge">
<title>Node39&#45;&gt;Node38</title>
<path fill="none" stroke="#191970" d="M790.4825,-621.5626C791.6987,-620.5878 792.8735,-619.5677 794,-618.5 871.1602,-545.3734 892.1528,-408.7859 897.1194,-363.51"/>
<polygon fill="#191970" stroke="#191970" points="788.24,-618.8542 781.9232,-627.3599 792.1656,-624.6499 788.24,-618.8542"/>
</g>
<!-- Node41 -->
<g id="node8" class="node">
<title>Node41</title>
<g id="a_node8"><a xlink:href="classorg_1_1raven_1_1_native_secp256k1_test.html#a477fc718bb6ab26b8236238d794fedcd" target="_top" xlink:title="This tests sign() for a valid secretkey. ">
<polygon fill="#ffffff" stroke="#000000" points="652,-578.5 652,-608.5 789,-608.5 789,-578.5 652,-578.5"/>
<text text-anchor="start" x="660" y="-596.5" font-family="Helvetica,sans-Serif" font-size="10.00" fill="#000000">org.raven.NativeSecp256k1</text>
<text text-anchor="middle" x="720.5" y="-585.5" font-family="Helvetica,sans-Serif" font-size="10.00" fill="#000000">Test.testSignPos</text>
</a>
</g>
</g>
<!-- Node40&#45;&gt;Node41 -->
<g id="edge8" class="edge">
<title>Node40&#45;&gt;Node41</title>
<path fill="none" stroke="#191970" d="M567.6676,-556.4268C595.021,-563.062 629.3323,-571.3851 658.5109,-578.463"/>
<polygon fill="#191970" stroke="#191970" points="568.4704,-553.0201 557.9272,-554.064 566.8202,-559.8228 568.4704,-553.0201"/>
</g>
<!-- Node42 -->
<g id="node9" class="node">
<title>Node42</title>
<g id="a_node9"><a xlink:href="classorg_1_1raven_1_1_native_secp256k1_test.html#a67ab49e96697527d3df523c502973009" target="_top" xlink:title="This tests sign() for a invalid secretkey. ">
<polygon fill="#ffffff" stroke="#000000" points="652,-529.5 652,-559.5 789,-559.5 789,-529.5 652,-529.5"/>
<text text-anchor="start" x="660" y="-547.5" font-family="Helvetica,sans-Serif" font-size="10.00" fill="#000000">org.raven.NativeSecp256k1</text>
<text text-anchor="middle" x="720.5" y="-536.5" font-family="Helvetica,sans-Serif" font-size="10.00" fill="#000000">Test.testSignNeg</text>
</a>
</g>
</g>
<!-- Node40&#45;&gt;Node42 -->
<g id="edge10" class="edge">
<title>Node40&#45;&gt;Node42</title>
<path fill="none" stroke="#191970" d="M607.9132,-544.5C622.6849,-544.5 637.7916,-544.5 651.9469,-544.5"/>
<polygon fill="#191970" stroke="#191970" points="607.756,-541.0001 597.756,-544.5 607.7559,-548.0001 607.756,-541.0001"/>
</g>
<!-- Node41&#45;&gt;Node38 -->
<g id="edge9" class="edge">
<title>Node41&#45;&gt;Node38</title>
<path fill="none" stroke="#191970" d="M789.7791,-572.8959C791.2396,-571.8208 792.6499,-570.6898 794,-569.5 859.7525,-511.5556 887.4226,-403.2939 895.6649,-363.5935"/>
<polygon fill="#191970" stroke="#191970" points="787.5345,-570.1731 780.9359,-578.4623 791.2634,-576.0972 787.5345,-570.1731"/>
</g>
<!-- Node42&#45;&gt;Node38 -->
<g id="edge11" class="edge">
<title>Node42&#45;&gt;Node38</title>
<path fill="none" stroke="#191970" d="M788.5123,-524.4335C790.4125,-523.1985 792.2478,-521.8888 794,-520.5 848.6273,-477.2011 881.5761,-396.9314 893.459,-363.6089"/>
<polygon fill="#191970" stroke="#191970" points="786.7787,-521.393 779.8215,-529.3835 790.2431,-527.4755 786.7787,-521.393"/>
</g>
<!-- Node44 -->
<g id="node11" class="node">
<title>Node44</title>
<g id="a_node11"><a xlink:href="classorg_1_1raven_1_1_native_secp256k1_test.html#ae662bbf684ab59c8fd85a8bf28336714" target="_top" xlink:title="This tests secret key verify() for a valid secretkey. ">
<polygon fill="#ffffff" stroke="#000000" points="652,-480.5 652,-510.5 789,-510.5 789,-480.5 652,-480.5"/>
<text text-anchor="start" x="660" y="-498.5" font-family="Helvetica,sans-Serif" font-size="10.00" fill="#000000">org.raven.NativeSecp256k1</text>
<text text-anchor="middle" x="720.5" y="-487.5" font-family="Helvetica,sans-Serif" font-size="10.00" fill="#000000">Test.testSecKeyVerifyPos</text>
</a>
</g>
</g>
<!-- Node43&#45;&gt;Node44 -->
<g id="edge13" class="edge">
<title>Node43&#45;&gt;Node44</title>
<path fill="none" stroke="#191970" d="M590.2464,-463.9038C612.5922,-469.3243 637.0287,-475.252 658.6378,-480.4938"/>
<polygon fill="#191970" stroke="#191970" points="591.0227,-460.4907 580.4794,-461.5346 589.3725,-467.2934 591.0227,-460.4907"/>
</g>
<!-- Node45 -->
<g id="node12" class="node">
<title>Node45</title>
<g id="a_node12"><a xlink:href="classorg_1_1raven_1_1_native_secp256k1_test.html#ab2cbdf11846f95dafda9f3a996e28fd4" target="_top" xlink:title="This tests secret key verify() for a invalid secretkey. ">
<polygon fill="#ffffff" stroke="#000000" points="652,-431.5 652,-461.5 789,-461.5 789,-431.5 652,-431.5"/>
<text text-anchor="start" x="660" y="-449.5" font-family="Helvetica,sans-Serif" font-size="10.00" fill="#000000">org.raven.NativeSecp256k1</text>
<text text-anchor="middle" x="720.5" y="-438.5" font-family="Helvetica,sans-Serif" font-size="10.00" fill="#000000">Test.testSecKeyVerifyNeg</text>
</a>
</g>
</g>
<!-- Node43&#45;&gt;Node45 -->
<g id="edge15" class="edge">
<title>Node43&#45;&gt;Node45</title>
<path fill="none" stroke="#191970" d="M606.934,-446.5C621.9743,-446.5 637.3923,-446.5 651.8257,-446.5"/>
<polygon fill="#191970" stroke="#191970" points="606.5985,-443.0001 596.5985,-446.5 606.5984,-450.0001 606.5985,-443.0001"/>
</g>
<!-- Node44&#45;&gt;Node38 -->
<g id="edge14" class="edge">
<title>Node44&#45;&gt;Node38</title>
<path fill="none" stroke="#191970" d="M786.4769,-476.0401C789.0767,-474.6244 791.5966,-473.1129 794,-471.5 837.7411,-442.1446 873.595,-389.5702 889.5562,-363.7113"/>
<polygon fill="#191970" stroke="#191970" points="784.8252,-472.9517 777.383,-480.4926 787.9034,-479.2386 784.8252,-472.9517"/>
</g>
<!-- Node45&#45;&gt;Node38 -->
<g id="edge16" class="edge">
<title>Node45&#45;&gt;Node38</title>
<path fill="none" stroke="#191970" d="M782.436,-427.7925C786.4028,-426.1307 790.2897,-424.3656 794,-422.5 826.7711,-406.0225 860.7096,-380.0444 880.6969,-363.6577"/>
<polygon fill="#191970" stroke="#191970" points="781.1003,-424.5569 773.0811,-431.481 783.668,-431.069 781.1003,-424.5569"/>
</g>
<!-- Node47 -->
<g id="node14" class="node">
<title>Node47</title>
<g id="a_node14"><a xlink:href="classorg_1_1raven_1_1_native_secp256k1_test.html#a57a09a234df180682a80a62fc013e2f8" target="_top" xlink:title="This tests public key create() for a valid secretkey. ">
<polygon fill="#ffffff" stroke="#000000" points="652,-382.5 652,-412.5 789,-412.5 789,-382.5 652,-382.5"/>
<text text-anchor="start" x="660" y="-400.5" font-family="Helvetica,sans-Serif" font-size="10.00" fill="#000000">org.raven.NativeSecp256k1</text>
<text text-anchor="middle" x="720.5" y="-389.5" font-family="Helvetica,sans-Serif" font-size="10.00" fill="#000000">Test.testPubKeyCreatePos</text>
</a>
</g>
</g>
<!-- Node46&#45;&gt;Node47 -->
<g id="edge18" class="edge">
<title>Node46&#45;&gt;Node47</title>
<path fill="none" stroke="#191970" d="M617.7829,-397.5C629.2959,-397.5 640.8386,-397.5 651.8125,-397.5"/>
<polygon fill="#191970" stroke="#191970" points="617.6882,-394.0001 607.6881,-397.5 617.6881,-401.0001 617.6882,-394.0001"/>
</g>
<!-- Node48 -->
<g id="node15" class="node">
<title>Node48</title>
<g id="a_node15"><a xlink:href="classorg_1_1raven_1_1_native_secp256k1_test.html#ab3ed9fd6a1e0731806bd705cddabba74" target="_top" xlink:title="This tests public key create() for a invalid secretkey. ">
<polygon fill="#ffffff" stroke="#000000" points="652,-333.5 652,-363.5 789,-363.5 789,-333.5 652,-333.5"/>
<text text-anchor="start" x="660" y="-351.5" font-family="Helvetica,sans-Serif" font-size="10.00" fill="#000000">org.raven.NativeSecp256k1</text>
<text text-anchor="middle" x="720.5" y="-340.5" font-family="Helvetica,sans-Serif" font-size="10.00" fill="#000000">Test.testPubKeyCreateNeg</text>
</a>
</g>
</g>
<!-- Node46&#45;&gt;Node48 -->
<g id="edge20" class="edge">
<title>Node46&#45;&gt;Node48</title>
<path fill="none" stroke="#191970" d="M590.2464,-380.0962C612.5922,-374.6757 637.0287,-368.748 658.6378,-363.5062"/>
<polygon fill="#191970" stroke="#191970" points="589.3725,-376.7066 580.4794,-382.4654 591.0227,-383.5093 589.3725,-376.7066"/>
</g>
<!-- Node47&#45;&gt;Node38 -->
<g id="edge19" class="edge">
<title>Node47&#45;&gt;Node38</title>
<path fill="none" stroke="#191970" d="M785.2384,-379.6788C804.4571,-374.3882 825.3099,-368.6478 843.8228,-363.5516"/>
<polygon fill="#191970" stroke="#191970" points="784.0707,-376.3699 775.3583,-382.3986 785.9286,-383.1189 784.0707,-376.3699"/>
</g>
<!-- Node48&#45;&gt;Node38 -->
<g id="edge21" class="edge">
<title>Node48&#45;&gt;Node38</title>
<path fill="none" stroke="#191970" d="M799.2301,-348.5C809.4772,-348.5 819.9084,-348.5 829.9705,-348.5"/>
<polygon fill="#191970" stroke="#191970" points="799.0649,-345.0001 789.0648,-348.5 799.0648,-352.0001 799.0649,-345.0001"/>
</g>
<!-- Node49&#45;&gt;Node38 -->
<g id="edge23" class="edge">
<title>Node49&#45;&gt;Node38</title>
<path fill="none" stroke="#191970" d="M578.0419,-341.8953C589.0309,-339.5763 600.3845,-337.0614 611,-334.5 627.1425,-330.6049 630.5463,-326.7428 647,-324.5 711.7347,-315.6761 729.0824,-317.1411 794,-324.5 810.2767,-326.3451 827.7113,-329.7576 843.5844,-333.4419"/>
<polygon fill="#191970" stroke="#191970" points="577.1623,-338.5032 568.0842,-343.9657 578.5873,-345.3567 577.1623,-338.5032"/>
</g>
<!-- Node52 -->
<g id="node19" class="node">
<title>Node52</title>
<g id="a_node19"><a xlink:href="classorg_1_1raven_1_1_native_secp256k1_test.html#adf3e18eb08301022ec597a939cfc31ab" target="_top" xlink:title="This tests private key tweak&#45;mul. ">
<polygon fill="#ffffff" stroke="#000000" points="647.5,-245.5 647.5,-275.5 793.5,-275.5 793.5,-245.5 647.5,-245.5"/>
<text text-anchor="start" x="655.5" y="-263.5" font-family="Helvetica,sans-Serif" font-size="10.00" fill="#000000">org.raven.NativeSecp256k1</text>
<text text-anchor="middle" x="720.5" y="-252.5" font-family="Helvetica,sans-Serif" font-size="10.00" fill="#000000">Test.testPrivKeyTweakMul_1</text>
</a>
</g>
</g>
<!-- Node51&#45;&gt;Node52 -->
<g id="edge26" class="edge">
<title>Node51&#45;&gt;Node52</title>
<path fill="none" stroke="#191970" d="M606.8387,-260.5C620.3292,-260.5 634.1258,-260.5 647.2453,-260.5"/>
<polygon fill="#191970" stroke="#191970" points="606.5985,-257.0001 596.5985,-260.5 606.5984,-264.0001 606.5985,-257.0001"/>
</g>
<!-- Node52&#45;&gt;Node38 -->
<g id="edge27" class="edge">
<title>Node52&#45;&gt;Node38</title>
<path fill="none" stroke="#191970" d="M769.1184,-279.3872C777.4925,-282.9118 786.0541,-286.69 794,-290.5 821.6905,-303.7774 852.2907,-321.0881 873.1814,-333.3308"/>
<polygon fill="#191970" stroke="#191970" points="770.3647,-276.1151 759.7862,-275.5273 767.6892,-282.5837 770.3647,-276.1151"/>
</g>
<!-- Node54 -->
<g id="node21" class="node">
<title>Node54</title>
<g id="a_node21"><a xlink:href="classorg_1_1raven_1_1_native_secp256k1_test.html#a7b0440972bc603388017f22a9aa87079" target="_top" xlink:title="This tests private key tweak&#45;add. ">
<polygon fill="#ffffff" stroke="#000000" points="647,-196.5 647,-226.5 794,-226.5 794,-196.5 647,-196.5"/>
<text text-anchor="start" x="655" y="-214.5" font-family="Helvetica,sans-Serif" font-size="10.00" fill="#000000">org.raven.NativeSecp256k1</text>
<text text-anchor="middle" x="720.5" y="-203.5" font-family="Helvetica,sans-Serif" font-size="10.00" fill="#000000">Test.testPrivKeyTweakAdd_1</text>
</a>
</g>
</g>
<!-- Node53&#45;&gt;Node54 -->
<g id="edge29" class="edge">
<title>Node53&#45;&gt;Node54</title>
<path fill="none" stroke="#191970" d="M606.77,-211.5C620.1695,-211.5 633.8727,-211.5 646.9159,-211.5"/>
<polygon fill="#191970" stroke="#191970" points="606.5985,-208.0001 596.5985,-211.5 606.5984,-215.0001 606.5985,-208.0001"/>
</g>
<!-- Node54&#45;&gt;Node38 -->
<g id="edge30" class="edge">
<title>Node54&#45;&gt;Node38</title>
<path fill="none" stroke="#191970" d="M784.152,-230.8629C787.5654,-232.602 790.8732,-234.4784 794,-236.5 835.092,-263.0679 871.0991,-309.3038 888.1027,-333.21"/>
<polygon fill="#191970" stroke="#191970" points="785.4656,-227.614 774.9218,-226.5752 782.5164,-233.9625 785.4656,-227.614"/>
</g>
<!-- Node56 -->
<g id="node23" class="node">
<title>Node56</title>
<g id="a_node23"><a xlink:href="classorg_1_1raven_1_1_native_secp256k1_test.html#ade957b19e51fc045b70bce106276889a" target="_top" xlink:title="This tests private key tweak&#45;add uncompressed. ">
<polygon fill="#ffffff" stroke="#000000" points="647,-147.5 647,-177.5 794,-177.5 794,-147.5 647,-147.5"/>
<text text-anchor="start" x="655" y="-165.5" font-family="Helvetica,sans-Serif" font-size="10.00" fill="#000000">org.raven.NativeSecp256k1</text>
<text text-anchor="middle" x="720.5" y="-154.5" font-family="Helvetica,sans-Serif" font-size="10.00" fill="#000000">Test.testPrivKeyTweakAdd_2</text>
</a>
</g>
</g>
<!-- Node55&#45;&gt;Node56 -->
<g id="edge32" class="edge">
<title>Node55&#45;&gt;Node56</title>
<path fill="none" stroke="#191970" d="M606.77,-162.5C620.1695,-162.5 633.8727,-162.5 646.9159,-162.5"/>
<polygon fill="#191970" stroke="#191970" points="606.5985,-159.0001 596.5985,-162.5 606.5984,-166.0001 606.5985,-159.0001"/>
</g>
<!-- Node56&#45;&gt;Node38 -->
<g id="edge33" class="edge">
<title>Node56&#45;&gt;Node38</title>
<path fill="none" stroke="#191970" d="M786.3303,-182.2484C789.0068,-183.8678 791.5787,-185.6151 794,-187.5 845.801,-227.825 879.7597,-301.428 892.661,-333.2125"/>
<polygon fill="#191970" stroke="#191970" points="787.9485,-179.1448 777.4821,-177.5005 784.6387,-185.3129 787.9485,-179.1448"/>
</g>
<!-- Node58 -->
<g id="node25" class="node">
<title>Node58</title>
<g id="a_node25"><a xlink:href="classorg_1_1raven_1_1_native_secp256k1_test.html#a2890257017b1ab0b4db04a36fa92c7d7" target="_top" xlink:title="This tests private key tweak&#45;mul uncompressed. ">
<polygon fill="#ffffff" stroke="#000000" points="647.5,-98.5 647.5,-128.5 793.5,-128.5 793.5,-98.5 647.5,-98.5"/>
<text text-anchor="start" x="655.5" y="-116.5" font-family="Helvetica,sans-Serif" font-size="10.00" fill="#000000">org.raven.NativeSecp256k1</text>
<text text-anchor="middle" x="720.5" y="-105.5" font-family="Helvetica,sans-Serif" font-size="10.00" fill="#000000">Test.testPrivKeyTweakMul_2</text>
</a>
</g>
</g>
<!-- Node57&#45;&gt;Node58 -->
<g id="edge35" class="edge">
<title>Node57&#45;&gt;Node58</title>
<path fill="none" stroke="#191970" d="M606.8387,-113.5C620.3292,-113.5 634.1258,-113.5 647.2453,-113.5"/>
<polygon fill="#191970" stroke="#191970" points="606.5985,-110.0001 596.5985,-113.5 606.5984,-117.0001 606.5985,-110.0001"/>
</g>
<!-- Node58&#45;&gt;Node38 -->
<g id="edge36" class="edge">
<title>Node58&#45;&gt;Node38</title>
<path fill="none" stroke="#191970" d="M787.8041,-133.7153C789.9716,-135.1998 792.0467,-136.7922 794,-138.5 856.847,-193.4499 886.0513,-295.0567 895.1931,-333.3598"/>
<polygon fill="#191970" stroke="#191970" points="789.4312,-130.6108 779.0472,-128.5072 785.8529,-136.6271 789.4312,-130.6108"/>
</g>
<!-- Node60 -->
<g id="node27" class="node">
<title>Node60</title>
<g id="a_node27"><a xlink:href="classorg_1_1raven_1_1_native_secp256k1_test.html#a431729ae23ae2e23909a5f1f24a09a93" target="_top" xlink:title="org.raven.NativeSecp256k1\lTest.testCreateECDHSecret">
<polygon fill="#ffffff" stroke="#000000" points="649,-49.5 649,-79.5 792,-79.5 792,-49.5 649,-49.5"/>
<text text-anchor="start" x="657" y="-67.5" font-family="Helvetica,sans-Serif" font-size="10.00" fill="#000000">org.raven.NativeSecp256k1</text>
<text text-anchor="middle" x="720.5" y="-56.5" font-family="Helvetica,sans-Serif" font-size="10.00" fill="#000000">Test.testCreateECDHSecret</text>
</a>
</g>
</g>
<!-- Node59&#45;&gt;Node60 -->
<g id="edge38" class="edge">
<title>Node59&#45;&gt;Node60</title>
<path fill="none" stroke="#191970" d="M612.37,-64.5C624.6316,-64.5 637.0341,-64.5 648.8498,-64.5"/>
<polygon fill="#191970" stroke="#191970" points="612.1193,-61.0001 602.1193,-64.5 612.1192,-68.0001 612.1193,-61.0001"/>
</g>
<!-- Node60&#45;&gt;Node38 -->
<g id="edge39" class="edge">
<title>Node60&#45;&gt;Node38</title>
<path fill="none" stroke="#191970" d="M788.6976,-85.0516C790.5547,-86.439 792.3292,-87.9197 794,-89.5 867.9749,-159.4695 890.9041,-288.9296 896.7558,-333.1952"/>
<polygon fill="#191970" stroke="#191970" points="790.4024,-81.9874 780.0924,-79.5472 786.6304,-87.8842 790.4024,-81.9874"/>
</g>
<!-- Node62 -->
<g id="node29" class="node">
<title>Node62</title>
<g id="a_node29"><a xlink:href="classorg_1_1raven_1_1_native_secp256k1_test.html#a3906d7d680a506cc1b73a76d967208d5" target="_top" xlink:title="This tests seed randomization. ">
<polygon fill="#ffffff" stroke="#000000" points="652,-.5 652,-30.5 789,-30.5 789,-.5 652,-.5"/>
<text text-anchor="start" x="660" y="-18.5" font-family="Helvetica,sans-Serif" font-size="10.00" fill="#000000">org.raven.NativeSecp256k1</text>
<text text-anchor="middle" x="720.5" y="-7.5" font-family="Helvetica,sans-Serif" font-size="10.00" fill="#000000">Test.testRandomize</text>
</a>
</g>
</g>
<!-- Node61&#45;&gt;Node62 -->
<g id="edge41" class="edge">
<title>Node61&#45;&gt;Node62</title>
<path fill="none" stroke="#191970" d="M621.5134,-16.9701C631.8102,-16.8172 642.0791,-16.6647 651.8918,-16.5189"/>
<polygon fill="#191970" stroke="#191970" points="621.17,-13.4747 611.2231,-17.1229 621.274,-20.4739 621.17,-13.4747"/>
</g>
<!-- Node62&#45;&gt;Node38 -->
<g id="edge42" class="edge">
<title>Node62&#45;&gt;Node38</title>
<path fill="none" stroke="#191970" d="M790.6432,-36.4523C791.8056,-37.4226 792.9266,-38.4378 794,-39.5 880.1425,-124.7429 895.2892,-283.3969 897.9406,-333.1608"/>
<polygon fill="#191970" stroke="#191970" points="792.6304,-33.571 782.4379,-30.6787 788.6021,-39.2958 792.6304,-33.571"/>
</g>
</g>
</svg>
