<?xml version="1.0" encoding="UTF-8" standalone="no"?>
<!DOCTYPE svg PUBLIC "-//W3C//DTD SVG 1.1//EN"
 "http://www.w3.org/Graphics/SVG/1.1/DTD/svg11.dtd">
<!-- Generated by graphviz version 2.40.1 (20161225.0304)
 -->
<!-- Title: CBlockHeader::GetHash Pages: 1 -->
<svg width="660pt" height="1358pt"
 viewBox="0.00 0.00 660.00 1358.00" xmlns="http://www.w3.org/2000/svg" xmlns:xlink="http://www.w3.org/1999/xlink">
<g id="graph0" class="graph" transform="scale(1 1) rotate(0) translate(4 1354)">
<title>CBlockHeader::GetHash</title>
<polygon fill="#ffffff" stroke="transparent" points="-4,4 -4,-1354 656,-1354 656,4 -4,4"/>
<!-- Node7 -->
<g id="node1" class="node">
<title>Node7</title>
<polygon fill="#bfbfbf" stroke="#000000" points="0,-665.5 0,-684.5 125,-684.5 125,-665.5 0,-665.5"/>
<text text-anchor="middle" x="62.5" y="-672.5" font-family="Helvetica,sans-Serif" font-size="10.00" fill="#000000">CBlockHeader::GetHash</text>
</g>
<!-- Node8 -->
<g id="node2" class="node">
<title>Node8</title>
<g id="a_node2"><a xlink:href="hash_8h.html#ae235360a54ec41155191de749170ab61" target="_top" xlink:title="HashX16R">
<polygon fill="#ffffff" stroke="#000000" points="161,-665.5 161,-684.5 226,-684.5 226,-665.5 161,-665.5"/>
<text text-anchor="middle" x="193.5" y="-672.5" font-family="Helvetica,sans-Serif" font-size="10.00" fill="#000000">HashX16R</text>
</a>
</g>
</g>
<!-- Node7&#45;&gt;Node8 -->
<g id="edge1" class="edge">
<title>Node7&#45;&gt;Node8</title>
<path fill="none" stroke="#191970" d="M125.3141,-675C133.9942,-675 142.7373,-675 150.9322,-675"/>
<polygon fill="#191970" stroke="#191970" points="150.9734,-678.5001 160.9733,-675 150.9733,-671.5001 150.9734,-678.5001"/>
</g>
<!-- Node9 -->
<g id="node3" class="node">
<title>Node9</title>
<g id="a_node3"><a xlink:href="hash_8h.html#a11b13e0d71722496589d1bdc9970b5b5" target="_top" xlink:title="GetHashSelection">
<polygon fill="#ffffff" stroke="#000000" points="276,-1330.5 276,-1349.5 372,-1349.5 372,-1330.5 276,-1330.5"/>
<text text-anchor="middle" x="324" y="-1337.5" font-family="Helvetica,sans-Serif" font-size="10.00" fill="#000000">GetHashSelection</text>
</a>
</g>
</g>
<!-- Node8&#45;&gt;Node9 -->
<g id="edge2" class="edge">
<title>Node8&#45;&gt;Node9</title>
<path fill="none" stroke="#191970" d="M193.8934,-684.778C197.0754,-761.8281 219.5782,-1269.5521 262,-1321 263.513,-1322.8349 265.1985,-1324.4964 267.0177,-1326.0005"/>
<polygon fill="#191970" stroke="#191970" points="265.4328,-1329.1438 275.73,-1331.6378 269.2356,-1323.2668 265.4328,-1329.1438"/>
</g>
<!-- Node11 -->
<g id="node5" class="node">
<title>Node11</title>
<g id="a_node5"><a xlink:href="groestl_8c.html#aae8e752e52ba49c4b4d3201138db4e21" target="_top" xlink:title="Initialize a Groestl&#45;512 context. ">
<polygon fill="#ffffff" stroke="#000000" points="273.5,-1292.5 273.5,-1311.5 374.5,-1311.5 374.5,-1292.5 273.5,-1292.5"/>
<text text-anchor="middle" x="324" y="-1299.5" font-family="Helvetica,sans-Serif" font-size="10.00" fill="#000000">sph_groestl512_init</text>
</a>
</g>
</g>
<!-- Node8&#45;&gt;Node11 -->
<g id="edge4" class="edge">
<title>Node8&#45;&gt;Node11</title>
<path fill="none" stroke="#191970" d="M193.956,-684.67C197.5306,-758.7542 221.9714,-1234.777 262,-1283 263.0112,-1284.2182 264.0983,-1285.3598 265.2501,-1286.4297"/>
<polygon fill="#191970" stroke="#191970" points="263.5097,-1289.4898 273.6682,-1292.4993 267.6037,-1283.8118 263.5097,-1289.4898"/>
</g>
<!-- Node12 -->
<g id="node6" class="node">
<title>Node12</title>
<g id="a_node6"><a xlink:href="groestl_8c.html#a6234cab162aecb29f261f0131f1aaf0b" target="_top" xlink:title="Process some data bytes. ">
<polygon fill="#ffffff" stroke="#000000" points="282.5,-1254.5 282.5,-1273.5 365.5,-1273.5 365.5,-1254.5 282.5,-1254.5"/>
<text text-anchor="middle" x="324" y="-1261.5" font-family="Helvetica,sans-Serif" font-size="10.00" fill="#000000">sph_groestl512</text>
</a>
</g>
</g>
<!-- Node8&#45;&gt;Node12 -->
<g id="edge5" class="edge">
<title>Node8&#45;&gt;Node12</title>
<path fill="none" stroke="#191970" d="M194.0232,-684.5141C198.0021,-755.4248 224.3533,-1199.9869 262,-1245 265.1305,-1248.7431 268.9783,-1251.7633 273.2107,-1254.1982"/>
<polygon fill="#191970" stroke="#191970" points="271.7865,-1257.3957 282.3319,-1258.418 274.7257,-1251.0426 271.7865,-1257.3957"/>
</g>
<!-- Node13 -->
<g id="node7" class="node">
<title>Node13</title>
<g id="a_node7"><a xlink:href="groestl_8c.html#a4e6cdfd9e3ceefe1421d858aba818106" target="_top" xlink:title="Terminate the current Groestl&#45;512 computation and output the result into the provided buffer...">
<polygon fill="#ffffff" stroke="#000000" points="268.5,-1216.5 268.5,-1235.5 379.5,-1235.5 379.5,-1216.5 268.5,-1216.5"/>
<text text-anchor="middle" x="324" y="-1223.5" font-family="Helvetica,sans-Serif" font-size="10.00" fill="#000000">sph_groestl512_close</text>
</a>
</g>
</g>
<!-- Node8&#45;&gt;Node13 -->
<g id="edge6" class="edge">
<title>Node8&#45;&gt;Node13</title>
<path fill="none" stroke="#191970" d="M194.1235,-684.7439C198.61,-753.5977 226.7988,-1165.2706 262,-1207 263.0208,-1208.2101 264.1165,-1209.3446 265.2759,-1210.4081"/>
<polygon fill="#191970" stroke="#191970" points="263.5591,-1213.483 273.731,-1216.4467 267.6274,-1207.7866 263.5591,-1213.483"/>
</g>
<!-- Node14 -->
<g id="node8" class="node">
<title>Node14</title>
<g id="a_node8"><a xlink:href="jh_8c.html#a88105066d99c97dcf65545f5c1d4bfe3" target="_top" xlink:title="Initialize a JH&#45;512 context. ">
<polygon fill="#ffffff" stroke="#000000" points="284.5,-1178.5 284.5,-1197.5 363.5,-1197.5 363.5,-1178.5 284.5,-1178.5"/>
<text text-anchor="middle" x="324" y="-1185.5" font-family="Helvetica,sans-Serif" font-size="10.00" fill="#000000">sph_jh512_init</text>
</a>
</g>
</g>
<!-- Node8&#45;&gt;Node14 -->
<g id="edge7" class="edge">
<title>Node8&#45;&gt;Node14</title>
<path fill="none" stroke="#191970" d="M194.2348,-684.8857C199.2502,-751.2568 229.2226,-1130.5253 262,-1169 265.6048,-1173.2313 270.1254,-1176.5372 275.0744,-1179.1173"/>
<polygon fill="#191970" stroke="#191970" points="273.7658,-1182.3638 284.3402,-1183.0206 276.4834,-1175.9129 273.7658,-1182.3638"/>
</g>
<!-- Node15 -->
<g id="node9" class="node">
<title>Node15</title>
<g id="a_node9"><a xlink:href="jh_8c.html#a13f33e8600ec764f8b1f34c73da667c9" target="_top" xlink:title="Process some data bytes. ">
<polygon fill="#ffffff" stroke="#000000" points="293.5,-1140.5 293.5,-1159.5 354.5,-1159.5 354.5,-1140.5 293.5,-1140.5"/>
<text text-anchor="middle" x="324" y="-1147.5" font-family="Helvetica,sans-Serif" font-size="10.00" fill="#000000">sph_jh512</text>
</a>
</g>
</g>
<!-- Node8&#45;&gt;Node15 -->
<g id="edge8" class="edge">
<title>Node8&#45;&gt;Node15</title>
<path fill="none" stroke="#191970" d="M193.6,-684.8014C194.4057,-744.6688 201.5097,-1060.8041 262,-1131 267.652,-1137.5588 275.5035,-1141.8916 283.723,-1144.744"/>
<polygon fill="#191970" stroke="#191970" points="282.8581,-1148.1363 293.4312,-1147.457 284.7422,-1141.3946 282.8581,-1148.1363"/>
</g>
<!-- Node16 -->
<g id="node10" class="node">
<title>Node16</title>
<g id="a_node10"><a xlink:href="jh_8c.html#ad2d77c0326724c0a85719348bec9a672" target="_top" xlink:title="Terminate the current JH&#45;512 computation and output the result into the provided buffer. ">
<polygon fill="#ffffff" stroke="#000000" points="279.5,-1102.5 279.5,-1121.5 368.5,-1121.5 368.5,-1102.5 279.5,-1102.5"/>
<text text-anchor="middle" x="324" y="-1109.5" font-family="Helvetica,sans-Serif" font-size="10.00" fill="#000000">sph_jh512_close</text>
</a>
</g>
</g>
<!-- Node8&#45;&gt;Node16 -->
<g id="edge9" class="edge">
<title>Node8&#45;&gt;Node16</title>
<path fill="none" stroke="#191970" d="M193.7441,-684.7159C195.3599,-741.4094 206.2478,-1029.1676 262,-1093 264.4786,-1095.8379 267.3689,-1098.2585 270.5208,-1100.3224"/>
<polygon fill="#191970" stroke="#191970" points="268.8945,-1103.4216 279.372,-1104.9942 272.1621,-1097.231 268.8945,-1103.4216"/>
</g>
<!-- Node17 -->
<g id="node11" class="node">
<title>Node17</title>
<g id="a_node11"><a xlink:href="keccak_8c.html#a84f1e9fe46fe6ce80c6b8dced5892c9a" target="_top" xlink:title="Initialize a Keccak&#45;512 context. ">
<polygon fill="#ffffff" stroke="#000000" points="272.5,-1064.5 272.5,-1083.5 375.5,-1083.5 375.5,-1064.5 272.5,-1064.5"/>
<text text-anchor="middle" x="324" y="-1071.5" font-family="Helvetica,sans-Serif" font-size="10.00" fill="#000000">sph_keccak512_init</text>
</a>
</g>
</g>
<!-- Node8&#45;&gt;Node17 -->
<g id="edge10" class="edge">
<title>Node8&#45;&gt;Node17</title>
<path fill="none" stroke="#191970" d="M193.9086,-684.5232C196.3763,-737.6891 210.9383,-997.4684 262,-1055 263.1817,-1056.3314 264.4539,-1057.5708 265.801,-1058.7245"/>
<polygon fill="#191970" stroke="#191970" points="263.9851,-1061.722 274.2257,-1064.4389 267.9145,-1055.9289 263.9851,-1061.722"/>
</g>
<!-- Node18 -->
<g id="node12" class="node">
<title>Node18</title>
<g id="a_node12"><a xlink:href="keccak_8c.html#a008a64465822dbd2900686f161feb31b" target="_top" xlink:title="Process some data bytes. ">
<polygon fill="#ffffff" stroke="#000000" points="281.5,-1026.5 281.5,-1045.5 366.5,-1045.5 366.5,-1026.5 281.5,-1026.5"/>
<text text-anchor="middle" x="324" y="-1033.5" font-family="Helvetica,sans-Serif" font-size="10.00" fill="#000000">sph_keccak512</text>
</a>
</g>
</g>
<!-- Node8&#45;&gt;Node18 -->
<g id="edge11" class="edge">
<title>Node8&#45;&gt;Node18</title>
<path fill="none" stroke="#191970" d="M194.1167,-684.542C197.5324,-734.5246 215.6798,-965.8157 262,-1017 264.9319,-1020.2398 268.4,-1022.934 272.1741,-1025.1735"/>
<polygon fill="#191970" stroke="#191970" points="270.8983,-1028.4434 281.428,-1029.6166 273.9282,-1022.1331 270.8983,-1028.4434"/>
</g>
<!-- Node19 -->
<g id="node13" class="node">
<title>Node19</title>
<g id="a_node13"><a xlink:href="keccak_8c.html#abb8c404657c19eec855f28750b70a3c0" target="_top" xlink:title="Terminate the current Keccak&#45;512 computation and output the result into the provided buffer...">
<polygon fill="#ffffff" stroke="#000000" points="267.5,-988.5 267.5,-1007.5 380.5,-1007.5 380.5,-988.5 267.5,-988.5"/>
<text text-anchor="middle" x="324" y="-995.5" font-family="Helvetica,sans-Serif" font-size="10.00" fill="#000000">sph_keccak512_close</text>
</a>
</g>
</g>
<!-- Node8&#45;&gt;Node19 -->
<g id="edge12" class="edge">
<title>Node8&#45;&gt;Node19</title>
<path fill="none" stroke="#191970" d="M194.3894,-684.6988C198.8732,-731.5672 220.4392,-934.166 262,-979 263.2365,-980.3339 264.5639,-981.5751 265.9658,-982.73"/>
<polygon fill="#191970" stroke="#191970" points="264.4113,-985.8957 274.6948,-988.4453 268.2457,-980.0393 264.4113,-985.8957"/>
</g>
<!-- Node21 -->
<g id="node15" class="node">
<title>Node21</title>
<g id="a_node15"><a xlink:href="luffa_8c.html#ac3dafb6e61b453015ce1d8aeedad99bc" target="_top" xlink:title="Initialize a Luffa&#45;512 context. ">
<polygon fill="#ffffff" stroke="#000000" points="279,-.5 279,-19.5 369,-19.5 369,-.5 279,-.5"/>
<text text-anchor="middle" x="324" y="-7.5" font-family="Helvetica,sans-Serif" font-size="10.00" fill="#000000">sph_luffa512_init</text>
</a>
</g>
</g>
<!-- Node8&#45;&gt;Node21 -->
<g id="edge14" class="edge">
<title>Node8&#45;&gt;Node21</title>
<path fill="none" stroke="#191970" d="M193.8934,-665.222C197.0754,-588.1719 219.5782,-80.4479 262,-29 264.2896,-26.2232 266.9743,-23.8436 269.9196,-21.8054"/>
<polygon fill="#191970" stroke="#191970" points="271.7255,-24.8066 278.7986,-16.9185 268.3502,-18.6741 271.7255,-24.8066"/>
</g>
<!-- Node25 -->
<g id="node19" class="node">
<title>Node25</title>
<g id="a_node19"><a xlink:href="luffa_8c.html#a283df58d0ff588f049437ba196d55baf" target="_top" xlink:title="Process some data bytes. ">
<polygon fill="#ffffff" stroke="#000000" points="288,-912.5 288,-931.5 360,-931.5 360,-912.5 288,-912.5"/>
<text text-anchor="middle" x="324" y="-919.5" font-family="Helvetica,sans-Serif" font-size="10.00" fill="#000000">sph_luffa512</text>
</a>
</g>
</g>
<!-- Node8&#45;&gt;Node25 -->
<g id="edge18" class="edge">
<title>Node8&#45;&gt;Node25</title>
<path fill="none" stroke="#191970" d="M195.1382,-684.5382C202.0189,-723.5643 229.7219,-870.5437 262,-903 266.5846,-907.6099 272.2558,-911.1068 278.2902,-913.7583"/>
<polygon fill="#191970" stroke="#191970" points="277.3735,-917.1489 287.9676,-917.2675 279.7598,-910.5681 277.3735,-917.1489"/>
</g>
<!-- Node26 -->
<g id="node20" class="node">
<title>Node26</title>
<g id="a_node20"><a xlink:href="luffa_8c.html#a8f6bedbac9188807f44a00ae283ded14" target="_top" xlink:title="Terminate the current Luffa&#45;512 computation and output the result into the provided buffer...">
<polygon fill="#ffffff" stroke="#000000" points="273.5,-950.5 273.5,-969.5 374.5,-969.5 374.5,-950.5 273.5,-950.5"/>
<text text-anchor="middle" x="324" y="-957.5" font-family="Helvetica,sans-Serif" font-size="10.00" fill="#000000">sph_luffa512_close</text>
</a>
</g>
</g>
<!-- Node8&#45;&gt;Node26 -->
<g id="edge19" class="edge">
<title>Node8&#45;&gt;Node26</title>
<path fill="none" stroke="#191970" d="M194.7136,-684.6197C200.3295,-727.6906 225.0991,-902.3876 262,-941 263.4001,-942.465 264.9098,-943.8179 266.5068,-945.0673"/>
<polygon fill="#191970" stroke="#191970" points="264.7891,-948.1218 275.1158,-950.4905 268.5202,-942.199 264.7891,-948.1218"/>
</g>
<!-- Node28 -->
<g id="node22" class="node">
<title>Node28</title>
<g id="a_node22"><a xlink:href="cubehash_8c.html#a5f59b7878edb26c01da43141f158b6eb" target="_top" xlink:title="Initialize a CubeHash&#45;512 context. ">
<polygon fill="#ffffff" stroke="#000000" points="267.5,-836.5 267.5,-855.5 380.5,-855.5 380.5,-836.5 267.5,-836.5"/>
<text text-anchor="middle" x="324" y="-843.5" font-family="Helvetica,sans-Serif" font-size="10.00" fill="#000000">sph_cubehash512_init</text>
</a>
</g>
</g>
<!-- Node8&#45;&gt;Node28 -->
<g id="edge21" class="edge">
<title>Node8&#45;&gt;Node28</title>
<path fill="none" stroke="#191970" d="M195.0577,-684.8291C199.8413,-711.729 216.832,-787.194 262,-827 263.9215,-828.6934 265.9911,-830.2359 268.1673,-831.6408"/>
<polygon fill="#191970" stroke="#191970" points="266.5392,-834.7393 277.0019,-836.4069 269.8628,-828.5786 266.5392,-834.7393"/>
</g>
<!-- Node29 -->
<g id="node23" class="node">
<title>Node29</title>
<g id="a_node23"><a xlink:href="cubehash_8c.html#ad63e5eeb1d5d272d84be5272d281e44e" target="_top" xlink:title="Process some data bytes. ">
<polygon fill="#ffffff" stroke="#000000" points="276.5,-798.5 276.5,-817.5 371.5,-817.5 371.5,-798.5 276.5,-798.5"/>
<text text-anchor="middle" x="324" y="-805.5" font-family="Helvetica,sans-Serif" font-size="10.00" fill="#000000">sph_cubehash512</text>
</a>
</g>
</g>
<!-- Node8&#45;&gt;Node29 -->
<g id="edge22" class="edge">
<title>Node8&#45;&gt;Node29</title>
<path fill="none" stroke="#191970" d="M196.5639,-684.5667C204.0612,-706.4398 225.4373,-760.415 262,-789 264.3282,-790.8202 266.8307,-792.4668 269.4475,-793.9564"/>
<polygon fill="#191970" stroke="#191970" points="268.1715,-797.2274 278.6968,-798.4398 271.2249,-790.9284 268.1715,-797.2274"/>
</g>
<!-- Node30 -->
<g id="node24" class="node">
<title>Node30</title>
<g id="a_node24"><a xlink:href="cubehash_8c.html#a8450930057421f35b61795e8101e44d1" target="_top" xlink:title="Terminate the current CubeHash&#45;512 computation and output the result into the provided buffer...">
<polygon fill="#ffffff" stroke="#000000" points="262,-874.5 262,-893.5 386,-893.5 386,-874.5 262,-874.5"/>
<text text-anchor="middle" x="324" y="-881.5" font-family="Helvetica,sans-Serif" font-size="10.00" fill="#000000">sph_cubehash512_close</text>
</a>
</g>
</g>
<!-- Node8&#45;&gt;Node30 -->
<g id="edge23" class="edge">
<title>Node8&#45;&gt;Node30</title>
<path fill="none" stroke="#191970" d="M194.0712,-684.9209C196.4113,-716.1629 207.9191,-813.4885 262,-865 263.6559,-866.5772 265.4393,-868.0237 267.3196,-869.3504"/>
<polygon fill="#191970" stroke="#191970" points="265.6822,-872.4467 276.0893,-874.4329 269.1923,-866.3903 265.6822,-872.4467"/>
</g>
<!-- Node32 -->
<g id="node26" class="node">
<title>Node32</title>
<g id="a_node26"><a xlink:href="shavite_8c.html#aa2c7b79f7fda3cde0d0086b13304645b" target="_top" xlink:title="Initialize a SHAvite&#45;512 context. ">
<polygon fill="#ffffff" stroke="#000000" points="272.5,-722.5 272.5,-741.5 375.5,-741.5 375.5,-722.5 272.5,-722.5"/>
<text text-anchor="middle" x="324" y="-729.5" font-family="Helvetica,sans-Serif" font-size="10.00" fill="#000000">sph_shavite512_init</text>
</a>
</g>
</g>
<!-- Node8&#45;&gt;Node32 -->
<g id="edge25" class="edge">
<title>Node8&#45;&gt;Node32</title>
<path fill="none" stroke="#191970" d="M208.5437,-684.5514C222.123,-692.8768 242.8506,-704.8604 262,-713 267.1804,-715.202 272.7024,-717.2686 278.2348,-719.1688"/>
<polygon fill="#191970" stroke="#191970" points="277.5404,-722.6239 288.133,-722.4025 279.7143,-715.97 277.5404,-722.6239"/>
</g>
<!-- Node33 -->
<g id="node27" class="node">
<title>Node33</title>
<g id="a_node27"><a xlink:href="shavite_8c.html#a17ebbdb9a0c3d75d0ff0440f05129b7e" target="_top" xlink:title="Process some data bytes. ">
<polygon fill="#ffffff" stroke="#000000" points="281.5,-684.5 281.5,-703.5 366.5,-703.5 366.5,-684.5 281.5,-684.5"/>
<text text-anchor="middle" x="324" y="-691.5" font-family="Helvetica,sans-Serif" font-size="10.00" fill="#000000">sph_shavite512</text>
</a>
</g>
</g>
<!-- Node8&#45;&gt;Node33 -->
<g id="edge26" class="edge">
<title>Node8&#45;&gt;Node33</title>
<path fill="none" stroke="#191970" d="M226.094,-679.7455C239.8423,-681.7472 256.1966,-684.1282 271.5638,-686.3656"/>
<polygon fill="#191970" stroke="#191970" points="271.0825,-689.8324 281.4824,-687.8097 272.091,-682.9054 271.0825,-689.8324"/>
</g>
<!-- Node34 -->
<g id="node28" class="node">
<title>Node34</title>
<g id="a_node28"><a xlink:href="shavite_8c.html#ade0688e75cf0cf367af9b510d8618a75" target="_top" xlink:title="Terminate the current SHAvite&#45;512 computation and output the result into the provided buffer...">
<polygon fill="#ffffff" stroke="#000000" points="267.5,-646.5 267.5,-665.5 380.5,-665.5 380.5,-646.5 267.5,-646.5"/>
<text text-anchor="middle" x="324" y="-653.5" font-family="Helvetica,sans-Serif" font-size="10.00" fill="#000000">sph_shavite512_close</text>
</a>
</g>
</g>
<!-- Node8&#45;&gt;Node34 -->
<g id="edge27" class="edge">
<title>Node8&#45;&gt;Node34</title>
<path fill="none" stroke="#191970" d="M226.094,-670.2545C235.6889,-668.8576 246.5531,-667.2758 257.4652,-665.6871"/>
<polygon fill="#191970" stroke="#191970" points="258.0736,-669.1355 267.465,-664.2312 257.065,-662.2085 258.0736,-669.1355"/>
</g>
<!-- Node35 -->
<g id="node29" class="node">
<title>Node35</title>
<g id="a_node29"><a xlink:href="simd_8c.html#a77710618946f707ff6d97661d220aefb" target="_top" xlink:title="Initialize an SIMD&#45;512 context. ">
<polygon fill="#ffffff" stroke="#000000" points="278,-608.5 278,-627.5 370,-627.5 370,-608.5 278,-608.5"/>
<text text-anchor="middle" x="324" y="-615.5" font-family="Helvetica,sans-Serif" font-size="10.00" fill="#000000">sph_simd512_init</text>
</a>
</g>
</g>
<!-- Node8&#45;&gt;Node35 -->
<g id="edge28" class="edge">
<title>Node8&#45;&gt;Node35</title>
<path fill="none" stroke="#191970" d="M208.5437,-665.4486C222.123,-657.1232 242.8506,-645.1396 262,-637 267.1804,-634.798 272.7024,-632.7314 278.2348,-630.8312"/>
<polygon fill="#191970" stroke="#191970" points="279.7143,-634.03 288.133,-627.5975 277.5404,-627.3761 279.7143,-634.03"/>
</g>
<!-- Node36 -->
<g id="node30" class="node">
<title>Node36</title>
<g id="a_node30"><a xlink:href="simd_8c.html#a36b145a2e11afe26421e76885a1bd4ac" target="_top" xlink:title="Process some data bytes. ">
<polygon fill="#ffffff" stroke="#000000" points="287,-570.5 287,-589.5 361,-589.5 361,-570.5 287,-570.5"/>
<text text-anchor="middle" x="324" y="-577.5" font-family="Helvetica,sans-Serif" font-size="10.00" fill="#000000">sph_simd512</text>
</a>
</g>
</g>
<!-- Node8&#45;&gt;Node36 -->
<g id="edge29" class="edge">
<title>Node8&#45;&gt;Node36</title>
<path fill="none" stroke="#191970" d="M199.6412,-665.3029C210.3486,-649.1744 233.9867,-616.8495 262,-599 266.6879,-596.013 271.8738,-593.4714 277.1912,-591.3145"/>
<polygon fill="#191970" stroke="#191970" points="278.6093,-594.5237 286.8256,-587.8346 276.2312,-587.94 278.6093,-594.5237"/>
</g>
<!-- Node37 -->
<g id="node31" class="node">
<title>Node37</title>
<g id="a_node31"><a xlink:href="simd_8c.html#aa78bffcf6682d82c71564f11967898a5" target="_top" xlink:title="Terminate the current SIMD&#45;512 computation and output the result into the provided buffer...">
<polygon fill="#ffffff" stroke="#000000" points="272.5,-760.5 272.5,-779.5 375.5,-779.5 375.5,-760.5 272.5,-760.5"/>
<text text-anchor="middle" x="324" y="-767.5" font-family="Helvetica,sans-Serif" font-size="10.00" fill="#000000">sph_simd512_close</text>
</a>
</g>
</g>
<!-- Node8&#45;&gt;Node37 -->
<g id="edge30" class="edge">
<title>Node8&#45;&gt;Node37</title>
<path fill="none" stroke="#191970" d="M199.6412,-684.6971C210.3486,-700.8256 233.9867,-733.1505 262,-751 265.1777,-753.0247 268.5842,-754.8448 272.1054,-756.4791"/>
<polygon fill="#191970" stroke="#191970" points="271.0357,-759.8234 281.6156,-760.3844 273.6947,-753.3481 271.0357,-759.8234"/>
</g>
<!-- Node39 -->
<g id="node33" class="node">
<title>Node39</title>
<g id="a_node33"><a xlink:href="echo_8c.html#acf769c25dbacfe1ed188b80b24392a20" target="_top" xlink:title="Initialize an ECHO&#45;512 context. ">
<polygon fill="#ffffff" stroke="#000000" points="278,-494.5 278,-513.5 370,-513.5 370,-494.5 278,-494.5"/>
<text text-anchor="middle" x="324" y="-501.5" font-family="Helvetica,sans-Serif" font-size="10.00" fill="#000000">sph_echo512_init</text>
</a>
</g>
</g>
<!-- Node8&#45;&gt;Node39 -->
<g id="edge32" class="edge">
<title>Node8&#45;&gt;Node39</title>
<path fill="none" stroke="#191970" d="M195.0577,-665.1709C199.8413,-638.271 216.832,-562.806 262,-523 264.1775,-521.081 266.5453,-519.3558 269.0428,-517.8048"/>
<polygon fill="#191970" stroke="#191970" points="270.6896,-520.8935 277.9469,-513.1745 267.46,-514.683 270.6896,-520.8935"/>
</g>
<!-- Node40 -->
<g id="node34" class="node">
<title>Node40</title>
<g id="a_node34"><a xlink:href="echo_8c.html#a41854b5910e1f10be467d9e3203ce9c1" target="_top" xlink:title="Process some data bytes. ">
<polygon fill="#ffffff" stroke="#000000" points="287,-456.5 287,-475.5 361,-475.5 361,-456.5 287,-456.5"/>
<text text-anchor="middle" x="324" y="-463.5" font-family="Helvetica,sans-Serif" font-size="10.00" fill="#000000">sph_echo512</text>
</a>
</g>
</g>
<!-- Node8&#45;&gt;Node40 -->
<g id="edge33" class="edge">
<title>Node8&#45;&gt;Node40</title>
<path fill="none" stroke="#191970" d="M194.0712,-665.0791C196.4113,-633.8371 207.9191,-536.5115 262,-485 266.3867,-480.8217 271.6688,-477.5604 277.2759,-475.0153"/>
<polygon fill="#191970" stroke="#191970" points="278.8006,-478.1808 286.9185,-471.3727 276.3269,-471.6325 278.8006,-478.1808"/>
</g>
<!-- Node41 -->
<g id="node35" class="node">
<title>Node41</title>
<g id="a_node35"><a xlink:href="echo_8c.html#a8dbdbbc5895338333994cb4dd963739e" target="_top" xlink:title="Terminate the current ECHO&#45;512 computation and output the result into the provided buffer...">
<polygon fill="#ffffff" stroke="#000000" points="272.5,-418.5 272.5,-437.5 375.5,-437.5 375.5,-418.5 272.5,-418.5"/>
<text text-anchor="middle" x="324" y="-425.5" font-family="Helvetica,sans-Serif" font-size="10.00" fill="#000000">sph_echo512_close</text>
</a>
</g>
</g>
<!-- Node8&#45;&gt;Node41 -->
<g id="edge34" class="edge">
<title>Node8&#45;&gt;Node41</title>
<path fill="none" stroke="#191970" d="M195.1382,-665.4618C202.0189,-626.4357 229.7219,-479.4563 262,-447 263.4587,-445.5332 265.0275,-444.1791 266.6829,-442.9291"/>
<polygon fill="#191970" stroke="#191970" points="268.8597,-445.7011 275.5748,-437.5061 265.2149,-439.7248 268.8597,-445.7011"/>
</g>
<!-- Node42 -->
<g id="node36" class="node">
<title>Node42</title>
<g id="a_node36"><a xlink:href="sph__hamsi_8c.html#a944219639062ac292f6289983111818f" target="_top" xlink:title="Initialize a Hamsi&#45;512 context. ">
<polygon fill="#ffffff" stroke="#000000" points="275,-380.5 275,-399.5 373,-399.5 373,-380.5 275,-380.5"/>
<text text-anchor="middle" x="324" y="-387.5" font-family="Helvetica,sans-Serif" font-size="10.00" fill="#000000">sph_hamsi512_init</text>
</a>
</g>
</g>
<!-- Node8&#45;&gt;Node42 -->
<g id="edge35" class="edge">
<title>Node8&#45;&gt;Node42</title>
<path fill="none" stroke="#191970" d="M194.7136,-665.3803C200.3295,-622.3094 225.0991,-447.6124 262,-409 263.4001,-407.535 264.9098,-406.1821 266.5068,-404.9327"/>
<polygon fill="#191970" stroke="#191970" points="268.5202,-407.801 275.1158,-399.5095 264.7891,-401.8782 268.5202,-407.801"/>
</g>
<!-- Node43 -->
<g id="node37" class="node">
<title>Node43</title>
<g id="a_node37"><a xlink:href="sph__hamsi_8c.html#a25781ec63c4c66ea13f349c8f1179101" target="_top" xlink:title="Process some data bytes. ">
<polygon fill="#ffffff" stroke="#000000" points="284,-342.5 284,-361.5 364,-361.5 364,-342.5 284,-342.5"/>
<text text-anchor="middle" x="324" y="-349.5" font-family="Helvetica,sans-Serif" font-size="10.00" fill="#000000">sph_hamsi512</text>
</a>
</g>
</g>
<!-- Node8&#45;&gt;Node43 -->
<g id="edge36" class="edge">
<title>Node8&#45;&gt;Node43</title>
<path fill="none" stroke="#191970" d="M194.3894,-665.3012C198.8732,-618.4328 220.4392,-415.834 262,-371 265.5445,-367.1763 269.8357,-364.1143 274.4874,-361.6634"/>
<polygon fill="#191970" stroke="#191970" points="275.975,-364.8336 283.7756,-357.6641 273.2067,-358.4043 275.975,-364.8336"/>
</g>
<!-- Node44 -->
<g id="node38" class="node">
<title>Node44</title>
<g id="a_node38"><a xlink:href="sph__hamsi_8c.html#aa8a3ba0d049862aa412d546807227c3d" target="_top" xlink:title="Terminate the current Hamsi&#45;512 computation and output the result into the provided buffer...">
<polygon fill="#ffffff" stroke="#000000" points="270,-304.5 270,-323.5 378,-323.5 378,-304.5 270,-304.5"/>
<text text-anchor="middle" x="324" y="-311.5" font-family="Helvetica,sans-Serif" font-size="10.00" fill="#000000">sph_hamsi512_close</text>
</a>
</g>
</g>
<!-- Node8&#45;&gt;Node44 -->
<g id="edge37" class="edge">
<title>Node8&#45;&gt;Node44</title>
<path fill="none" stroke="#191970" d="M194.1167,-665.458C197.5324,-615.4754 215.6798,-384.1843 262,-333 263.1945,-331.6801 264.478,-330.4507 265.8349,-329.3058"/>
<polygon fill="#191970" stroke="#191970" points="267.9448,-332.105 274.301,-323.6286 264.0461,-326.2912 267.9448,-332.105"/>
</g>
<!-- Node45 -->
<g id="node39" class="node">
<title>Node45</title>
<g id="a_node39"><a xlink:href="sph__fugue_8c.html#a0d32c7e06d12c554635df7d2c5f4f10d" target="_top" xlink:title="sph_fugue512_init">
<polygon fill="#ffffff" stroke="#000000" points="276.5,-266.5 276.5,-285.5 371.5,-285.5 371.5,-266.5 276.5,-266.5"/>
<text text-anchor="middle" x="324" y="-273.5" font-family="Helvetica,sans-Serif" font-size="10.00" fill="#000000">sph_fugue512_init</text>
</a>
</g>
</g>
<!-- Node8&#45;&gt;Node45 -->
<g id="edge38" class="edge">
<title>Node8&#45;&gt;Node45</title>
<path fill="none" stroke="#191970" d="M193.9086,-665.4768C196.3763,-612.3109 210.9383,-352.5316 262,-295 263.7328,-293.0476 265.6604,-291.293 267.7332,-289.7165"/>
<polygon fill="#191970" stroke="#191970" points="269.621,-292.6648 276.3435,-284.4759 265.9816,-286.6853 269.621,-292.6648"/>
</g>
<!-- Node46 -->
<g id="node40" class="node">
<title>Node46</title>
<g id="a_node40"><a xlink:href="sph__fugue_8c.html#a086be8cea9dcc673c0732ba0d6474e09" target="_top" xlink:title="sph_fugue512">
<polygon fill="#ffffff" stroke="#000000" points="285.5,-228.5 285.5,-247.5 362.5,-247.5 362.5,-228.5 285.5,-228.5"/>
<text text-anchor="middle" x="324" y="-235.5" font-family="Helvetica,sans-Serif" font-size="10.00" fill="#000000">sph_fugue512</text>
</a>
</g>
</g>
<!-- Node8&#45;&gt;Node46 -->
<g id="edge39" class="edge">
<title>Node8&#45;&gt;Node46</title>
<path fill="none" stroke="#191970" d="M193.7441,-665.2841C195.3599,-608.5906 206.2478,-320.8324 262,-257 265.8904,-252.5458 270.7948,-249.1196 276.1332,-246.487"/>
<polygon fill="#191970" stroke="#191970" points="277.4438,-249.7324 285.4249,-242.7644 274.8405,-243.2345 277.4438,-249.7324"/>
</g>
<!-- Node47 -->
<g id="node41" class="node">
<title>Node47</title>
<g id="a_node41"><a xlink:href="sph__fugue_8c.html#a111107ff11db33c70fadb8adf32418c4" target="_top" xlink:title="sph_fugue512_close">
<polygon fill="#ffffff" stroke="#000000" points="271,-190.5 271,-209.5 377,-209.5 377,-190.5 271,-190.5"/>
<text text-anchor="middle" x="324" y="-197.5" font-family="Helvetica,sans-Serif" font-size="10.00" fill="#000000">sph_fugue512_close</text>
</a>
</g>
</g>
<!-- Node8&#45;&gt;Node47 -->
<g id="edge40" class="edge">
<title>Node8&#45;&gt;Node47</title>
<path fill="none" stroke="#191970" d="M193.6,-665.1986C194.4057,-605.3312 201.5097,-289.1959 262,-219 263.0335,-217.8007 264.1405,-216.6758 265.3099,-215.6208"/>
<polygon fill="#191970" stroke="#191970" points="267.6585,-218.2473 273.8137,-209.6238 263.6243,-212.5268 267.6585,-218.2473"/>
</g>
<!-- Node48 -->
<g id="node42" class="node">
<title>Node48</title>
<g id="a_node42"><a xlink:href="sph__shabal_8c.html#a4753c4c0b11ec86ab2f690d2069307fc" target="_top" xlink:title="Initialize a Shabal&#45;512 context. ">
<polygon fill="#ffffff" stroke="#000000" points="274,-152.5 274,-171.5 374,-171.5 374,-152.5 274,-152.5"/>
<text text-anchor="middle" x="324" y="-159.5" font-family="Helvetica,sans-Serif" font-size="10.00" fill="#000000">sph_shabal512_init</text>
</a>
</g>
</g>
<!-- Node8&#45;&gt;Node48 -->
<g id="edge41" class="edge">
<title>Node8&#45;&gt;Node48</title>
<path fill="none" stroke="#191970" d="M194.2348,-665.1143C199.2502,-598.7432 229.2226,-219.4747 262,-181 263.0267,-179.7949 264.1276,-178.6648 265.2916,-177.6052"/>
<polygon fill="#191970" stroke="#191970" points="267.6419,-180.229 273.7693,-171.5858 263.5893,-174.5214 267.6419,-180.229"/>
</g>
<!-- Node49 -->
<g id="node43" class="node">
<title>Node49</title>
<g id="a_node43"><a xlink:href="sph__shabal_8c.html#a87fcddc3e75f86e3a867a88f89e715a3" target="_top" xlink:title="Process some data bytes. ">
<polygon fill="#ffffff" stroke="#000000" points="283,-114.5 283,-133.5 365,-133.5 365,-114.5 283,-114.5"/>
<text text-anchor="middle" x="324" y="-121.5" font-family="Helvetica,sans-Serif" font-size="10.00" fill="#000000">sph_shabal512</text>
</a>
</g>
</g>
<!-- Node8&#45;&gt;Node49 -->
<g id="edge42" class="edge">
<title>Node8&#45;&gt;Node49</title>
<path fill="none" stroke="#191970" d="M194.1235,-665.2561C198.61,-596.4023 226.7988,-184.7294 262,-143 265.1894,-139.2191 269.1104,-136.1763 273.4178,-133.7297"/>
<polygon fill="#191970" stroke="#191970" points="275.046,-136.834 282.6916,-129.4995 272.1409,-130.4653 275.046,-136.834"/>
</g>
<!-- Node50 -->
<g id="node44" class="node">
<title>Node50</title>
<g id="a_node44"><a xlink:href="sph__shabal_8c.html#aea62f0484af908e431613cd40eed05ad" target="_top" xlink:title="Terminate the current Shabal&#45;512 computation and output the result into the provided buffer...">
<polygon fill="#ffffff" stroke="#000000" points="269,-76.5 269,-95.5 379,-95.5 379,-76.5 269,-76.5"/>
<text text-anchor="middle" x="324" y="-83.5" font-family="Helvetica,sans-Serif" font-size="10.00" fill="#000000">sph_shabal512_close</text>
</a>
</g>
</g>
<!-- Node8&#45;&gt;Node50 -->
<g id="edge43" class="edge">
<title>Node8&#45;&gt;Node50</title>
<path fill="none" stroke="#191970" d="M194.0232,-665.4859C198.0021,-594.5752 224.3533,-150.0131 262,-105 263.0157,-103.7856 264.1068,-102.6473 265.2622,-101.5803"/>
<polygon fill="#191970" stroke="#191970" points="267.6148,-104.2 273.6976,-95.5252 263.5328,-98.5133 267.6148,-104.2"/>
</g>
<!-- Node51 -->
<g id="node45" class="node">
<title>Node51</title>
<g id="a_node45"><a xlink:href="sph__whirlpool_8c.html#a67b7a02583e8a878f83c8a485c350719" target="_top" xlink:title="sph_whirlpool_init">
<polygon fill="#ffffff" stroke="#000000" points="277,-38.5 277,-57.5 371,-57.5 371,-38.5 277,-38.5"/>
<text text-anchor="middle" x="324" y="-45.5" font-family="Helvetica,sans-Serif" font-size="10.00" fill="#000000">sph_whirlpool_init</text>
</a>
</g>
</g>
<!-- Node8&#45;&gt;Node51 -->
<g id="edge44" class="edge">
<title>Node8&#45;&gt;Node51</title>
<path fill="none" stroke="#191970" d="M193.956,-665.33C197.5306,-591.2458 221.9714,-115.223 262,-67 263.8875,-64.7261 266.0398,-62.7187 268.3828,-60.9472"/>
<polygon fill="#191970" stroke="#191970" points="270.2039,-63.9362 276.9755,-55.7878 266.6005,-57.9349 270.2039,-63.9362"/>
</g>
<!-- Node52 -->
<g id="node46" class="node">
<title>Node52</title>
<g id="a_node46"><a xlink:href="classuint512.html#a90ae45972cae81e4e2d941ebe927b65c" target="_top" xlink:title="uint512::trim256">
<polygon fill="#ffffff" stroke="#000000" points="281,-532.5 281,-551.5 367,-551.5 367,-532.5 281,-532.5"/>
<text text-anchor="middle" x="324" y="-539.5" font-family="Helvetica,sans-Serif" font-size="10.00" fill="#000000">uint512::trim256</text>
</a>
</g>
</g>
<!-- Node8&#45;&gt;Node52 -->
<g id="edge45" class="edge">
<title>Node8&#45;&gt;Node52</title>
<path fill="none" stroke="#191970" d="M196.5639,-665.4333C204.0612,-643.5602 225.4373,-589.585 262,-561 264.9684,-558.6793 268.2204,-556.6406 271.631,-554.8499"/>
<polygon fill="#191970" stroke="#191970" points="273.2568,-557.9566 280.944,-550.6656 270.3879,-551.5714 273.2568,-557.9566"/>
</g>
<!-- Node10 -->
<g id="node4" class="node">
<title>Node10</title>
<g id="a_node4"><a xlink:href="classuint256.html#a679709bc6e2e2074001d6d9876b4af99" target="_top" xlink:title="uint256::GetNibble">
<polygon fill="#ffffff" stroke="#000000" points="439,-1330.5 439,-1349.5 537,-1349.5 537,-1330.5 439,-1330.5"/>
<text text-anchor="middle" x="488" y="-1337.5" font-family="Helvetica,sans-Serif" font-size="10.00" fill="#000000">uint256::GetNibble</text>
</a>
</g>
</g>
<!-- Node9&#45;&gt;Node10 -->
<g id="edge3" class="edge">
<title>Node9&#45;&gt;Node10</title>
<path fill="none" stroke="#191970" d="M372.3184,-1340C390.0165,-1340 410.2482,-1340 428.7909,-1340"/>
<polygon fill="#191970" stroke="#191970" points="428.8918,-1343.5001 438.8918,-1340 428.8918,-1336.5001 428.8918,-1343.5001"/>
</g>
<!-- Node20 -->
<g id="node14" class="node">
<title>Node20</title>
<g id="a_node14"><a xlink:href="keccak_8c.html#a9b1cadf5ab3346f0b056aa4b6871708b" target="_top" xlink:title="Add a few additional bits (0 to 7) to the current computation, then terminate it and output the resul...">
<polygon fill="#ffffff" stroke="#000000" points="427,-988 427,-1018 549,-1018 549,-988 427,-988"/>
<text text-anchor="start" x="435" y="-1006" font-family="Helvetica,sans-Serif" font-size="10.00" fill="#000000">sph_keccak512_addbits</text>
<text text-anchor="middle" x="488" y="-995" font-family="Helvetica,sans-Serif" font-size="10.00" fill="#000000">_and_close</text>
</a>
</g>
</g>
<!-- Node19&#45;&gt;Node20 -->
<g id="edge13" class="edge">
<title>Node19&#45;&gt;Node20</title>
<path fill="none" stroke="#191970" d="M380.899,-999.7347C392.3476,-1000.0838 404.5186,-1000.4548 416.3941,-1000.8169"/>
<polygon fill="#191970" stroke="#191970" points="416.6263,-1004.3255 426.7284,-1001.132 416.8397,-997.3288 416.6263,-1004.3255"/>
</g>
<!-- Node22 -->
<g id="node16" class="node">
<title>Node22</title>
<g id="a_node16"><a xlink:href="glibc__compat_8cpp.html#a0f46826ab0466591e136db24394923cf" target="_top" xlink:title="memcpy">
<polygon fill="#ffffff" stroke="#000000" points="461,-266.5 461,-285.5 515,-285.5 515,-266.5 461,-266.5"/>
<text text-anchor="middle" x="488" y="-273.5" font-family="Helvetica,sans-Serif" font-size="10.00" fill="#000000">memcpy</text>
</a>
</g>
</g>
<!-- Node21&#45;&gt;Node22 -->
<g id="edge15" class="edge">
<title>Node21&#45;&gt;Node22</title>
<path fill="none" stroke="#191970" d="M369.2274,-18.6297C375.3468,-21.227 381.1705,-24.6055 386,-29 455.4255,-92.1716 478.8237,-209.7656 485.5839,-256.3053"/>
<polygon fill="#191970" stroke="#191970" points="482.1265,-256.8561 486.9333,-266.2977 489.0635,-255.9193 482.1265,-256.8561"/>
</g>
<!-- Node23 -->
<g id="node17" class="node">
<title>Node23</title>
<g id="a_node17"><a xlink:href="glibc__compat_8cpp.html#a9778d49e9029dd75bc53ecbbf9f5e9a1" target="_top" xlink:title="memmove">
<polygon fill="#ffffff" stroke="#000000" points="590,-285.5 590,-304.5 652,-304.5 652,-285.5 590,-285.5"/>
<text text-anchor="middle" x="621" y="-292.5" font-family="Helvetica,sans-Serif" font-size="10.00" fill="#000000">memmove</text>
</a>
</g>
</g>
<!-- Node22&#45;&gt;Node23 -->
<g id="edge16" class="edge">
<title>Node22&#45;&gt;Node23</title>
<path fill="none" stroke="#191970" d="M515.2355,-279.8908C533.7837,-282.5405 558.6813,-286.0973 579.6603,-289.0943"/>
<polygon fill="#191970" stroke="#191970" points="579.2048,-292.5647 589.5993,-290.5142 580.1948,-285.6351 579.2048,-292.5647"/>
</g>
<!-- Node24 -->
<g id="node18" class="node">
<title>Node24</title>
<g id="a_node18"><a xlink:href="glibc__compat_8cpp.html#a424ac71631da5ada2976630ff67051d1" target="_top" xlink:title="__chk_fail">
<polygon fill="#ffffff" stroke="#000000" points="590.5,-247.5 590.5,-266.5 651.5,-266.5 651.5,-247.5 590.5,-247.5"/>
<text text-anchor="middle" x="621" y="-254.5" font-family="Helvetica,sans-Serif" font-size="10.00" fill="#000000">__chk_fail</text>
</a>
</g>
</g>
<!-- Node22&#45;&gt;Node24 -->
<g id="edge17" class="edge">
<title>Node22&#45;&gt;Node24</title>
<path fill="none" stroke="#191970" d="M515.2355,-272.1092C533.9143,-269.4408 559.0323,-265.8525 580.1029,-262.8424"/>
<polygon fill="#191970" stroke="#191970" points="580.6711,-266.2969 590.0756,-261.4178 579.6811,-259.3672 580.6711,-266.2969"/>
</g>
<!-- Node27 -->
<g id="node21" class="node">
<title>Node27</title>
<g id="a_node21"><a xlink:href="luffa_8c.html#ae90ba5d9f84893d81432ad353930bd2f" target="_top" xlink:title="Add a few additional bits (0 to 7) to the current computation, then terminate it and output the resul...">
<polygon fill="#ffffff" stroke="#000000" points="433.5,-939 433.5,-969 542.5,-969 542.5,-939 433.5,-939"/>
<text text-anchor="start" x="441.5" y="-957" font-family="Helvetica,sans-Serif" font-size="10.00" fill="#000000">sph_luffa512_addbits</text>
<text text-anchor="middle" x="488" y="-946" font-family="Helvetica,sans-Serif" font-size="10.00" fill="#000000">_and_close</text>
</a>
</g>
</g>
<!-- Node26&#45;&gt;Node27 -->
<g id="edge20" class="edge">
<title>Node26&#45;&gt;Node27</title>
<path fill="none" stroke="#191970" d="M374.5436,-958.1508C389.83,-957.5916 406.8355,-956.9694 422.931,-956.3806"/>
<polygon fill="#191970" stroke="#191970" points="423.4841,-959.8628 433.3494,-955.9994 423.2281,-952.8675 423.4841,-959.8628"/>
</g>
<!-- Node31 -->
<g id="node25" class="node">
<title>Node31</title>
<g id="a_node25"><a xlink:href="cubehash_8c.html#aecc593c4125e80af4b82bb1b43495448" target="_top" xlink:title="Add a few additional bits (0 to 7) to the current computation, then terminate it and output the resul...">
<polygon fill="#ffffff" stroke="#000000" points="422,-869 422,-899 554,-899 554,-869 422,-869"/>
<text text-anchor="start" x="430" y="-887" font-family="Helvetica,sans-Serif" font-size="10.00" fill="#000000">sph_cubehash512_addbits</text>
<text text-anchor="middle" x="488" y="-876" font-family="Helvetica,sans-Serif" font-size="10.00" fill="#000000">_and_close</text>
</a>
</g>
</g>
<!-- Node30&#45;&gt;Node31 -->
<g id="edge24" class="edge">
<title>Node30&#45;&gt;Node31</title>
<path fill="none" stroke="#191970" d="M386.0014,-884C394.4116,-884 403.1207,-884 411.7447,-884"/>
<polygon fill="#191970" stroke="#191970" points="411.8064,-887.5001 421.8064,-884 411.8064,-880.5001 411.8064,-887.5001"/>
</g>
<!-- Node38 -->
<g id="node32" class="node">
<title>Node38</title>
<g id="a_node32"><a xlink:href="simd_8c.html#ae5bfea91cae0a59cb44915da184e635b" target="_top" xlink:title="Add a few additional bits (0 to 7) to the current computation, then terminate it and output the resul...">
<polygon fill="#ffffff" stroke="#000000" points="432.5,-755 432.5,-785 543.5,-785 543.5,-755 432.5,-755"/>
<text text-anchor="start" x="440.5" y="-773" font-family="Helvetica,sans-Serif" font-size="10.00" fill="#000000">sph_simd512_addbits</text>
<text text-anchor="middle" x="488" y="-762" font-family="Helvetica,sans-Serif" font-size="10.00" fill="#000000">_and_close</text>
</a>
</g>
</g>
<!-- Node37&#45;&gt;Node38 -->
<g id="edge31" class="edge">
<title>Node37&#45;&gt;Node38</title>
<path fill="none" stroke="#191970" d="M375.8906,-770C390.6707,-770 406.9662,-770 422.4463,-770"/>
<polygon fill="#191970" stroke="#191970" points="422.4771,-773.5001 432.4771,-770 422.477,-766.5001 422.4771,-773.5001"/>
</g>
<!-- Node52&#45;&gt;Node22 -->
<g id="edge46" class="edge">
<title>Node52&#45;&gt;Node22</title>
<path fill="none" stroke="#191970" d="M367.0001,-534.277C373.9266,-531.5737 380.5876,-527.9249 386,-523 455.4255,-459.8284 478.8237,-342.2344 485.5839,-295.6947"/>
<polygon fill="#191970" stroke="#191970" points="489.0635,-296.0807 486.9333,-285.7023 482.1265,-295.1439 489.0635,-296.0807"/>
</g>
</g>
</svg>
