<?xml version="1.0" encoding="UTF-8" standalone="no"?>
<!DOCTYPE svg PUBLIC "-//W3C//DTD SVG 1.1//EN"
 "http://www.w3.org/Graphics/SVG/1.1/DTD/svg11.dtd">
<!-- Generated by graphviz version 2.40.1 (20161225.0304)
 -->
<!-- Title: CAssetsDB::ReadAssetData Pages: 1 -->
<svg width="1107pt" height="356pt"
 viewBox="0.00 0.00 1107.00 355.50" xmlns="http://www.w3.org/2000/svg" xmlns:xlink="http://www.w3.org/1999/xlink">
<g id="graph0" class="graph" transform="scale(1 1) rotate(0) translate(4 351.5)">
<title>CAssetsDB::ReadAssetData</title>
<polygon fill="#ffffff" stroke="transparent" points="-4,4 -4,-351.5 1103,-351.5 1103,4 -4,4"/>
<!-- Node63 -->
<g id="node1" class="node">
<title>Node63</title>
<polygon fill="#bfbfbf" stroke="#000000" points="0,-177.5 0,-196.5 145,-196.5 145,-177.5 0,-177.5"/>
<text text-anchor="middle" x="72.5" y="-184.5" font-family="Helvetica,sans-Serif" font-size="10.00" fill="#000000">CAssetsDB::ReadAssetData</text>
</g>
<!-- Node64 -->
<g id="node2" class="node">
<title>Node64</title>
<g id="a_node2"><a xlink:href="class_c_assets_cache.html#a14f851cfa27dac74476f86c99c1b03f2" target="_top" xlink:title="Returns true if an asset with this name already exists. ">
<polygon fill="#ffffff" stroke="#000000" points="182.5,-197 182.5,-227 331.5,-227 331.5,-197 182.5,-197"/>
<text text-anchor="start" x="190.5" y="-215" font-family="Helvetica,sans-Serif" font-size="10.00" fill="#000000">CAssetsCache::CheckIfAsset</text>
<text text-anchor="middle" x="257" y="-204" font-family="Helvetica,sans-Serif" font-size="10.00" fill="#000000">Exists</text>
</a>
</g>
</g>
<!-- Node63&#45;&gt;Node64 -->
<g id="edge1" class="edge">
<title>Node63&#45;&gt;Node64</title>
<path fill="none" stroke="#191970" d="M152.8839,-197.8921C162.6626,-199.2172 172.6221,-200.5667 182.3131,-201.8798"/>
<polygon fill="#191970" stroke="#191970" points="153.1573,-194.3973 142.7779,-196.5227 152.2173,-201.3339 153.1573,-194.3973"/>
</g>
<!-- Node79 -->
<g id="node17" class="node">
<title>Node79</title>
<g id="a_node17"><a xlink:href="class_c_assets_cache.html#a6b24b3a0e6c057eac636755c7fe8bed1" target="_top" xlink:title="CAssetsCache::GetAssetMeta\lDataIfExists">
<polygon fill="#ffffff" stroke="#000000" points="181,-148 181,-178 333,-178 333,-148 181,-148"/>
<text text-anchor="start" x="189" y="-166" font-family="Helvetica,sans-Serif" font-size="10.00" fill="#000000">CAssetsCache::GetAssetMeta</text>
<text text-anchor="middle" x="257" y="-155" font-family="Helvetica,sans-Serif" font-size="10.00" fill="#000000">DataIfExists</text>
</a>
</g>
</g>
<!-- Node63&#45;&gt;Node79 -->
<g id="edge23" class="edge">
<title>Node63&#45;&gt;Node79</title>
<path fill="none" stroke="#191970" d="M155.1109,-176.2539C163.6511,-175.1429 172.3028,-174.0175 180.7687,-172.9163"/>
<polygon fill="#191970" stroke="#191970" points="154.6194,-172.7882 145.1544,-177.549 155.5224,-179.7297 154.6194,-172.7882"/>
</g>
<!-- Node65 -->
<g id="node3" class="node">
<title>Node65</title>
<g id="a_node3"><a xlink:href="class_c_null_asset_tx_data.html#a2b7cb3bb2fa0eb7a91bc2d1ff6576dd3" target="_top" xlink:title="CNullAssetTxData::IsValid">
<polygon fill="#ffffff" stroke="#000000" points="376,-240.5 376,-259.5 511,-259.5 511,-240.5 376,-240.5"/>
<text text-anchor="middle" x="443.5" y="-247.5" font-family="Helvetica,sans-Serif" font-size="10.00" fill="#000000">CNullAssetTxData::IsValid</text>
</a>
</g>
</g>
<!-- Node64&#45;&gt;Node65 -->
<g id="edge2" class="edge">
<title>Node64&#45;&gt;Node65</title>
<path fill="none" stroke="#191970" d="M340.7247,-229.0592C360.0056,-232.9877 379.8354,-237.0281 396.8705,-240.4991"/>
<polygon fill="#191970" stroke="#191970" points="341.2072,-225.5857 330.7097,-227.0186 339.8096,-232.4447 341.2072,-225.5857"/>
</g>
<!-- Node66 -->
<g id="node4" class="node">
<title>Node66</title>
<g id="a_node4"><a xlink:href="assets_8h.html#a92ccc0f4b0b9b6cf54306673d504fad4" target="_top" xlink:title="ContextualCheckVerifierString">
<polygon fill="#ffffff" stroke="#000000" points="369,-202.5 369,-221.5 518,-221.5 518,-202.5 369,-202.5"/>
<text text-anchor="middle" x="443.5" y="-209.5" font-family="Helvetica,sans-Serif" font-size="10.00" fill="#000000">ContextualCheckVerifierString</text>
</a>
</g>
</g>
<!-- Node64&#45;&gt;Node66 -->
<g id="edge3" class="edge">
<title>Node64&#45;&gt;Node66</title>
<path fill="none" stroke="#191970" d="M341.6675,-212C350.7179,-212 359.8771,-212 368.8002,-212"/>
<polygon fill="#191970" stroke="#191970" points="341.5138,-208.5001 331.5138,-212 341.5137,-215.5001 341.5138,-208.5001"/>
</g>
<!-- Node75 -->
<g id="node13" class="node">
<title>Node75</title>
<g id="a_node13"><a xlink:href="assets_8h.html#af894efb762726583de09a23045325595" target="_top" xlink:title="ContextualCheckNewAsset">
<polygon fill="#ffffff" stroke="#000000" points="374.5,-57.5 374.5,-76.5 512.5,-76.5 512.5,-57.5 374.5,-57.5"/>
<text text-anchor="middle" x="443.5" y="-64.5" font-family="Helvetica,sans-Serif" font-size="10.00" fill="#000000">ContextualCheckNewAsset</text>
</a>
</g>
</g>
<!-- Node64&#45;&gt;Node75 -->
<g id="edge16" class="edge">
<title>Node64&#45;&gt;Node75</title>
<path fill="none" stroke="#191970" d="M324.8757,-192.6628C327.6798,-191.2115 330.4016,-189.6593 333,-188 381.4333,-157.0717 422.2323,-99.6152 437.2893,-76.7518"/>
<polygon fill="#191970" stroke="#191970" points="323.2643,-189.5525 315.6909,-196.9616 326.2317,-195.8925 323.2643,-189.5525"/>
</g>
<!-- Node67 -->
<g id="node5" class="node">
<title>Node67</title>
<g id="a_node5"><a xlink:href="class_c_asset_transfer.html#a4521bc6493a97fb673728357c6adc248" target="_top" xlink:title="CAssetTransfer::Contextual\lCheckAgainstVerifyString">
<polygon fill="#ffffff" stroke="#000000" points="563.5,-317 563.5,-347 702.5,-347 702.5,-317 563.5,-317"/>
<text text-anchor="start" x="571.5" y="-335" font-family="Helvetica,sans-Serif" font-size="10.00" fill="#000000">CAssetTransfer::Contextual</text>
<text text-anchor="middle" x="633" y="-324" font-family="Helvetica,sans-Serif" font-size="10.00" fill="#000000">CheckAgainstVerifyString</text>
</a>
</g>
</g>
<!-- Node66&#45;&gt;Node67 -->
<g id="edge4" class="edge">
<title>Node66&#45;&gt;Node67</title>
<path fill="none" stroke="#191970" d="M511.3525,-226.3876C513.6768,-227.7868 515.9038,-229.32 518,-231 545.6078,-253.1261 527.6883,-278.3474 554,-302 560.7645,-308.0809 568.8862,-312.976 577.3109,-316.903"/>
<polygon fill="#191970" stroke="#191970" points="512.4772,-223.0334 501.9759,-221.6283 509.3089,-229.2754 512.4772,-223.0334"/>
</g>
<!-- Node69 -->
<g id="node7" class="node">
<title>Node69</title>
<g id="a_node7"><a xlink:href="class_c_assets_cache.html#a117ef717832c597298ad096e2dbc3299" target="_top" xlink:title="CAssetsCache::CacheToString">
<polygon fill="#ffffff" stroke="#000000" points="944,-161.5 944,-180.5 1099,-180.5 1099,-161.5 944,-161.5"/>
<text text-anchor="middle" x="1021.5" y="-168.5" font-family="Helvetica,sans-Serif" font-size="10.00" fill="#000000">CAssetsCache::CacheToString</text>
</a>
</g>
</g>
<!-- Node66&#45;&gt;Node69 -->
<g id="edge15" class="edge">
<title>Node66&#45;&gt;Node69</title>
<path fill="none" stroke="#191970" d="M498.3811,-224.2725C505.0734,-226.2723 511.7497,-228.5151 518,-231 535.0085,-237.762 536.5131,-245.5943 554,-251 704.5094,-297.5264 760.3479,-323.9238 908,-269 956.5565,-250.9379 998.2067,-201.7389 1014.3468,-180.7254"/>
<polygon fill="#191970" stroke="#191970" points="499.187,-220.8633 488.6123,-221.5167 497.2864,-227.6004 499.187,-220.8633"/>
</g>
<!-- Node70 -->
<g id="node8" class="node">
<title>Node70</title>
<g id="a_node8"><a xlink:href="assets_8h.html#a308b81e915e5e2f01178335ddda43fa5" target="_top" xlink:title="Create a reissue asset transaction. ">
<polygon fill="#ffffff" stroke="#000000" points="749,-240.5 749,-259.5 907,-259.5 907,-240.5 749,-240.5"/>
<text text-anchor="middle" x="828" y="-247.5" font-family="Helvetica,sans-Serif" font-size="10.00" fill="#000000">CreateReissueAssetTransaction</text>
</a>
</g>
</g>
<!-- Node66&#45;&gt;Node70 -->
<g id="edge7" class="edge">
<title>Node66&#45;&gt;Node70</title>
<path fill="none" stroke="#191970" d="M502.6699,-223.3088C519.2308,-226.1644 537.2753,-228.9875 554,-231 619.4505,-238.8758 694.1193,-243.7863 748.9618,-246.6374"/>
<polygon fill="#191970" stroke="#191970" points="503.0303,-219.8185 492.5752,-221.5335 501.8178,-226.7127 503.0303,-219.8185"/>
</g>
<!-- Node71 -->
<g id="node9" class="node">
<title>Node71</title>
<g id="a_node9"><a xlink:href="assets_8h.html#a3b8277e86d0dac08410f6a4c59cb13e7" target="_top" xlink:title="Create a transfer asset transaction. ">
<polygon fill="#ffffff" stroke="#000000" points="554,-202.5 554,-221.5 712,-221.5 712,-202.5 554,-202.5"/>
<text text-anchor="middle" x="633" y="-209.5" font-family="Helvetica,sans-Serif" font-size="10.00" fill="#000000">CreateTransferAssetTransaction</text>
</a>
</g>
</g>
<!-- Node66&#45;&gt;Node71 -->
<g id="edge9" class="edge">
<title>Node66&#45;&gt;Node71</title>
<path fill="none" stroke="#191970" d="M528.362,-212C536.8141,-212 545.3722,-212 553.7635,-212"/>
<polygon fill="#191970" stroke="#191970" points="528.1234,-208.5001 518.1234,-212 528.1234,-215.5001 528.1234,-208.5001"/>
</g>
<!-- Node73 -->
<g id="node11" class="node">
<title>Node73</title>
<g id="a_node11"><a xlink:href="assets_8h.html#aebcf42b5074b6ac822367822ce49f414" target="_top" xlink:title="ContextualCheckVerifierAsset\lTxOut">
<polygon fill="#ffffff" stroke="#000000" points="753.5,-115 753.5,-145 902.5,-145 902.5,-115 753.5,-115"/>
<text text-anchor="start" x="761.5" y="-133" font-family="Helvetica,sans-Serif" font-size="10.00" fill="#000000">ContextualCheckVerifierAsset</text>
<text text-anchor="middle" x="828" y="-122" font-family="Helvetica,sans-Serif" font-size="10.00" fill="#000000">TxOut</text>
</a>
</g>
</g>
<!-- Node66&#45;&gt;Node73 -->
<g id="edge12" class="edge">
<title>Node66&#45;&gt;Node73</title>
<path fill="none" stroke="#191970" d="M498.7411,-200.3248C553.0317,-188.8383 638.2344,-170.7787 712,-155 727.0084,-151.7896 743.1056,-148.3306 758.3866,-145.0394"/>
<polygon fill="#191970" stroke="#191970" points="497.6999,-196.9676 488.6407,-202.4614 499.1486,-203.816 497.6999,-196.9676"/>
</g>
<!-- Node74 -->
<g id="node12" class="node">
<title>Node74</title>
<g id="a_node12"><a xlink:href="rpc_2assets_8cpp.html#a119170068bd1d77d5fae7f22910ccc17" target="_top" xlink:title="isvalidverifierstring">
<polygon fill="#ffffff" stroke="#000000" points="584,-126.5 584,-145.5 682,-145.5 682,-126.5 584,-126.5"/>
<text text-anchor="middle" x="633" y="-133.5" font-family="Helvetica,sans-Serif" font-size="10.00" fill="#000000">isvalidverifierstring</text>
</a>
</g>
</g>
<!-- Node66&#45;&gt;Node74 -->
<g id="edge14" class="edge">
<title>Node66&#45;&gt;Node74</title>
<path fill="none" stroke="#191970" d="M471.0152,-197.6853C493.0823,-186.5405 525.0427,-171.1446 554,-160 568.0466,-154.594 583.8606,-149.5851 597.6291,-145.5571"/>
<polygon fill="#191970" stroke="#191970" points="469.2304,-194.6665 461.9104,-202.3261 472.4093,-200.9031 469.2304,-194.6665"/>
</g>
<!-- Node68 -->
<g id="node6" class="node">
<title>Node68</title>
<g id="a_node6"><a xlink:href="assets_8h.html#ab47103ea6eb52475e02fb83b89bc43d0" target="_top" xlink:title="ContextualCheckTransferAsset">
<polygon fill="#ffffff" stroke="#000000" points="751,-319.5 751,-338.5 905,-338.5 905,-319.5 751,-319.5"/>
<text text-anchor="middle" x="828" y="-326.5" font-family="Helvetica,sans-Serif" font-size="10.00" fill="#000000">ContextualCheckTransferAsset</text>
</a>
</g>
</g>
<!-- Node67&#45;&gt;Node68 -->
<g id="edge5" class="edge">
<title>Node67&#45;&gt;Node68</title>
<path fill="none" stroke="#191970" d="M712.5942,-330.7755C725.2212,-330.5812 738.263,-330.3806 750.8329,-330.1872"/>
<polygon fill="#191970" stroke="#191970" points="712.5186,-327.2761 702.5736,-330.9296 712.6263,-334.2753 712.5186,-327.2761"/>
</g>
<!-- Node68&#45;&gt;Node69 -->
<g id="edge6" class="edge">
<title>Node68&#45;&gt;Node69</title>
<path fill="none" stroke="#191970" d="M879.3159,-316.2028C889.291,-312.4911 899.3302,-307.8197 908,-302 958.9694,-267.7865 1000.7799,-204.9145 1015.6625,-180.7844"/>
<polygon fill="#191970" stroke="#191970" points="878.1339,-312.9081 869.8185,-319.4735 880.4132,-319.5266 878.1339,-312.9081"/>
</g>
<!-- Node70&#45;&gt;Node69 -->
<g id="edge8" class="edge">
<title>Node70&#45;&gt;Node69</title>
<path fill="none" stroke="#191970" d="M873.9338,-237.591C885.1944,-234.1746 897.1312,-230.2324 908,-226 942.8909,-212.413 981.8114,-192.4374 1003.8105,-180.6702"/>
<polygon fill="#191970" stroke="#191970" points="872.8534,-234.2606 864.2559,-240.4521 874.8379,-240.9734 872.8534,-234.2606"/>
</g>
<!-- Node71&#45;&gt;Node69 -->
<g id="edge10" class="edge">
<title>Node71&#45;&gt;Node69</title>
<path fill="none" stroke="#191970" d="M722.3046,-208.601C776.2385,-205.8604 846.2586,-201.0857 908,-193 931.5835,-189.9115 957.6532,-184.9684 978.8543,-180.5494"/>
<polygon fill="#191970" stroke="#191970" points="721.8987,-205.1166 712.0836,-209.1058 722.2441,-212.1081 721.8987,-205.1166"/>
</g>
<!-- Node72 -->
<g id="node10" class="node">
<title>Node72</title>
<g id="a_node10"><a xlink:href="rpc_2messages_8cpp.html#afbf85f977e967b7e42be145fb402b9fd" target="_top" xlink:title="sendmessage">
<polygon fill="#ffffff" stroke="#000000" points="789.5,-164.5 789.5,-183.5 866.5,-183.5 866.5,-164.5 789.5,-164.5"/>
<text text-anchor="middle" x="828" y="-171.5" font-family="Helvetica,sans-Serif" font-size="10.00" fill="#000000">sendmessage</text>
</a>
</g>
</g>
<!-- Node71&#45;&gt;Node72 -->
<g id="edge11" class="edge">
<title>Node71&#45;&gt;Node72</title>
<path fill="none" stroke="#191970" d="M691.9741,-200.5076C723.5953,-194.3455 761.6591,-186.928 789.4702,-181.5084"/>
<polygon fill="#191970" stroke="#191970" points="691.1009,-197.1118 681.955,-202.46 692.4399,-203.9826 691.1009,-197.1118"/>
</g>
<!-- Node73&#45;&gt;Node69 -->
<g id="edge13" class="edge">
<title>Node73&#45;&gt;Node69</title>
<path fill="none" stroke="#191970" d="M908.7696,-147.114C931.89,-152.0129 956.2626,-157.1771 976.4076,-161.4455"/>
<polygon fill="#191970" stroke="#191970" points="909.4618,-143.683 898.9535,-145.0341 908.0108,-150.531 909.4618,-143.683"/>
</g>
<!-- Node75&#45;&gt;Node69 -->
<g id="edge22" class="edge">
<title>Node75&#45;&gt;Node69</title>
<path fill="none" stroke="#191970" d="M522.5832,-69.505C635.8359,-73.7955 838.2484,-84.2757 908,-106 947.8916,-118.4243 989.0733,-146.5678 1009.0825,-161.4157"/>
<polygon fill="#191970" stroke="#191970" points="522.7018,-66.0071 512.5787,-69.1333 522.4418,-73.0023 522.7018,-66.0071"/>
</g>
<!-- Node76 -->
<g id="node14" class="node">
<title>Node76</title>
<g id="a_node14"><a xlink:href="assets_8h.html#a6aac199c739cdffa605b3ade39208bab" target="_top" xlink:title="CreateAssetTransaction">
<polygon fill="#ffffff" stroke="#000000" points="572,-38.5 572,-57.5 694,-57.5 694,-38.5 572,-38.5"/>
<text text-anchor="middle" x="633" y="-45.5" font-family="Helvetica,sans-Serif" font-size="10.00" fill="#000000">CreateAssetTransaction</text>
</a>
</g>
</g>
<!-- Node75&#45;&gt;Node76 -->
<g id="edge17" class="edge">
<title>Node75&#45;&gt;Node76</title>
<path fill="none" stroke="#191970" d="M522.8127,-59.0478C539.1852,-57.4062 556.1897,-55.7013 571.7993,-54.1362"/>
<polygon fill="#191970" stroke="#191970" points="522.3191,-55.5796 512.7182,-60.0599 523.0176,-62.5447 522.3191,-55.5796"/>
</g>
<!-- Node77 -->
<g id="node15" class="node">
<title>Node77</title>
<g id="a_node15"><a xlink:href="assets_8h.html#a3d93a173bcd387795f14fb76e9c534e6" target="_top" xlink:title="ContextualCheckUniqueAsset">
<polygon fill="#ffffff" stroke="#000000" points="558.5,-.5 558.5,-19.5 707.5,-19.5 707.5,-.5 558.5,-.5"/>
<text text-anchor="middle" x="633" y="-7.5" font-family="Helvetica,sans-Serif" font-size="10.00" fill="#000000">ContextualCheckUniqueAsset</text>
</a>
</g>
</g>
<!-- Node75&#45;&gt;Node77 -->
<g id="edge18" class="edge">
<title>Node75&#45;&gt;Node77</title>
<path fill="none" stroke="#191970" d="M478.5861,-53.9773C500.1727,-46.2049 528.4968,-36.4337 554,-29 565.6468,-25.6052 578.3839,-22.347 590.1643,-19.5168"/>
<polygon fill="#191970" stroke="#191970" points="477.3825,-50.6907 469.1764,-57.3922 479.7705,-57.2708 477.3825,-50.6907"/>
</g>
<!-- Node77&#45;&gt;Node69 -->
<g id="edge21" class="edge">
<title>Node77&#45;&gt;Node69</title>
<path fill="none" stroke="#191970" d="M700.5365,-21.2991C769.7932,-33.579 872.2763,-53.8757 908,-72 953.9367,-95.3058 996.3862,-141.3682 1013.5128,-161.3621"/>
<polygon fill="#191970" stroke="#191970" points="701.0264,-17.8317 690.5713,-19.5467 699.814,-24.7259 701.0264,-17.8317"/>
</g>
<!-- Node78 -->
<g id="node16" class="node">
<title>Node78</title>
<g id="a_node16"><a xlink:href="assets_8h.html#aed0cb4b141b8e7da4be0c7df228ab73f" target="_top" xlink:title="ContextualCheckUniqueAssetTx">
<polygon fill="#ffffff" stroke="#000000" points="748,-.5 748,-19.5 908,-19.5 908,-.5 748,-.5"/>
<text text-anchor="middle" x="828" y="-7.5" font-family="Helvetica,sans-Serif" font-size="10.00" fill="#000000">ContextualCheckUniqueAssetTx</text>
</a>
</g>
</g>
<!-- Node77&#45;&gt;Node78 -->
<g id="edge19" class="edge">
<title>Node77&#45;&gt;Node78</title>
<path fill="none" stroke="#191970" d="M717.5699,-10C727.6631,-10 737.9445,-10 747.9711,-10"/>
<polygon fill="#191970" stroke="#191970" points="717.5559,-6.5001 707.5558,-10 717.5558,-13.5001 717.5559,-6.5001"/>
</g>
<!-- Node78&#45;&gt;Node69 -->
<g id="edge20" class="edge">
<title>Node78&#45;&gt;Node69</title>
<path fill="none" stroke="#191970" d="M886.0244,-22.9323C893.7443,-25.915 901.297,-29.5585 908,-34 961.0395,-69.1451 1002.2123,-136.4391 1016.2721,-161.3851"/>
<polygon fill="#191970" stroke="#191970" points="887.1656,-19.6236 876.5708,-19.6125 884.8462,-26.2282 887.1656,-19.6236"/>
</g>
</g>
</svg>
