<?xml version="1.0" encoding="UTF-8" standalone="no"?>
<!DOCTYPE svg PUBLIC "-//W3C//DTD SVG 1.1//EN"
 "http://www.w3.org/Graphics/SVG/1.1/DTD/svg11.dtd">
<!-- Generated by graphviz version 2.40.1 (20161225.0304)
 -->
<!-- Title: MacDockIconHandler::setMainWindow Pages: 1 -->
<svg width="1311pt" height="127pt"
 viewBox="0.00 0.00 1311.00 127.00" xmlns="http://www.w3.org/2000/svg" xmlns:xlink="http://www.w3.org/1999/xlink">
<g id="graph0" class="graph" transform="scale(1 1) rotate(0) translate(4 123)">
<title>MacDockIconHandler::setMainWindow</title>
<polygon fill="#ffffff" stroke="transparent" points="-4,4 -4,-123 1307,-123 1307,4 -4,4"/>
<!-- Node75 -->
<g id="node1" class="node">
<title>Node75</title>
<polygon fill="#bfbfbf" stroke="#000000" points="0,-44.5 0,-74.5 111,-74.5 111,-44.5 0,-44.5"/>
<text text-anchor="start" x="8" y="-62.5" font-family="Helvetica,sans-Serif" font-size="10.00" fill="#000000">MacDockIconHandler</text>
<text text-anchor="middle" x="55.5" y="-51.5" font-family="Helvetica,sans-Serif" font-size="10.00" fill="#000000">::setMainWindow</text>
</g>
<!-- Node76 -->
<g id="node2" class="node">
<title>Node76</title>
<g id="a_node2"><a xlink:href="class_mac_dock_icon_handler.html#ab44913b8dabec96186b74bc6f6896c46" target="_top" xlink:title="MacDockIconHandler\l::MacDockIconHandler">
<polygon fill="#ffffff" stroke="#000000" points="150,-88.5 150,-118.5 267,-118.5 267,-88.5 150,-88.5"/>
<text text-anchor="start" x="158" y="-106.5" font-family="Helvetica,sans-Serif" font-size="10.00" fill="#000000">MacDockIconHandler</text>
<text text-anchor="middle" x="208.5" y="-95.5" font-family="Helvetica,sans-Serif" font-size="10.00" fill="#000000">::MacDockIconHandler</text>
</a>
</g>
</g>
<!-- Node75&#45;&gt;Node76 -->
<g id="edge1" class="edge">
<title>Node75&#45;&gt;Node76</title>
<path fill="none" stroke="#191970" d="M117.4364,-77.3118C130.3136,-81.015 143.7624,-84.8827 156.2498,-88.4738"/>
<polygon fill="#191970" stroke="#191970" points="118.3038,-73.9194 107.726,-74.5192 116.3691,-80.6468 118.3038,-73.9194"/>
</g>
<!-- Node79 -->
<g id="node5" class="node">
<title>Node79</title>
<g id="a_node5"><a xlink:href="class_raven_g_u_i.html#a992e4d8e9a7a80cd6e8d4b6fb272ffd2" target="_top" xlink:title="Create system tray menu (or setup the dock menu) ">
<polygon fill="#ffffff" stroke="#000000" points="453,-53 453,-72 611,-72 611,-53 453,-53"/>
<text text-anchor="middle" x="532" y="-60" font-family="Helvetica,sans-Serif" font-size="10.00" fill="#000000">RavenGUI::createTrayIconMenu</text>
</a>
</g>
</g>
<!-- Node75&#45;&gt;Node79 -->
<g id="edge12" class="edge">
<title>Node75&#45;&gt;Node79</title>
<path fill="none" stroke="#191970" d="M121.3164,-59.9144C207.8735,-60.4593 359.824,-61.416 452.6438,-62.0004"/>
<polygon fill="#191970" stroke="#191970" points="121.115,-56.4131 111.0932,-59.85 121.0709,-63.413 121.115,-56.4131"/>
</g>
<!-- Node85 -->
<g id="node11" class="node">
<title>Node85</title>
<g id="a_node11"><a xlink:href="class_mac_dock_icon_handler.html#a1253fb7e351af70d8fcf863a8833066c" target="_top" xlink:title="MacDockIconHandler\l::~MacDockIconHandler">
<polygon fill="#ffffff" stroke="#000000" points="147,-.5 147,-30.5 270,-30.5 270,-.5 147,-.5"/>
<text text-anchor="start" x="155" y="-18.5" font-family="Helvetica,sans-Serif" font-size="10.00" fill="#000000">MacDockIconHandler</text>
<text text-anchor="middle" x="208.5" y="-7.5" font-family="Helvetica,sans-Serif" font-size="10.00" fill="#000000">::~MacDockIconHandler</text>
</a>
</g>
</g>
<!-- Node75&#45;&gt;Node85 -->
<g id="edge11" class="edge">
<title>Node75&#45;&gt;Node85</title>
<path fill="none" stroke="#191970" d="M117.4364,-41.6882C130.3136,-37.985 143.7624,-34.1173 156.2498,-30.5262"/>
<polygon fill="#191970" stroke="#191970" points="116.3691,-38.3532 107.726,-44.4808 118.3038,-45.0806 116.3691,-38.3532"/>
</g>
<!-- Node77 -->
<g id="node3" class="node">
<title>Node77</title>
<g id="a_node3"><a xlink:href="class_mac_dock_icon_handler.html#afd3ef7126d0b6ef02eaf85e5455fe6f4" target="_top" xlink:title="MacDockIconHandler\l::instance">
<polygon fill="#ffffff" stroke="#000000" points="306,-88.5 306,-118.5 417,-118.5 417,-88.5 306,-88.5"/>
<text text-anchor="start" x="314" y="-106.5" font-family="Helvetica,sans-Serif" font-size="10.00" fill="#000000">MacDockIconHandler</text>
<text text-anchor="middle" x="361.5" y="-95.5" font-family="Helvetica,sans-Serif" font-size="10.00" fill="#000000">::instance</text>
</a>
</g>
</g>
<!-- Node76&#45;&gt;Node77 -->
<g id="edge2" class="edge">
<title>Node76&#45;&gt;Node77</title>
<path fill="none" stroke="#191970" d="M277.4751,-103.5C287.0125,-103.5 296.7075,-103.5 305.9592,-103.5"/>
<polygon fill="#191970" stroke="#191970" points="277.2163,-100.0001 267.2162,-103.5 277.2162,-107.0001 277.2163,-100.0001"/>
</g>
<!-- Node78 -->
<g id="node4" class="node">
<title>Node78</title>
<g id="a_node4"><a xlink:href="class_raven_g_u_i.html#af82cbe028fc29d0ea71074eced806071" target="_top" xlink:title="RavenGUI::RavenGUI">
<polygon fill="#ffffff" stroke="#000000" points="474,-94 474,-113 590,-113 590,-94 474,-94"/>
<text text-anchor="middle" x="532" y="-101" font-family="Helvetica,sans-Serif" font-size="10.00" fill="#000000">RavenGUI::RavenGUI</text>
</a>
</g>
</g>
<!-- Node77&#45;&gt;Node78 -->
<g id="edge3" class="edge">
<title>Node77&#45;&gt;Node78</title>
<path fill="none" stroke="#191970" d="M427.7322,-103.5C442.9954,-103.5 459.1155,-103.5 473.9977,-103.5"/>
<polygon fill="#191970" stroke="#191970" points="427.3281,-100.0001 417.3281,-103.5 427.328,-107.0001 427.3281,-100.0001"/>
</g>
<!-- Node77&#45;&gt;Node79 -->
<g id="edge4" class="edge">
<title>Node77&#45;&gt;Node79</title>
<path fill="none" stroke="#191970" d="M427.2522,-87.6886C449.1789,-82.4159 472.924,-76.7059 492.2539,-72.0577"/>
<polygon fill="#191970" stroke="#191970" points="426.2326,-84.334 417.3281,-90.0751 427.8693,-91.1399 426.2326,-84.334"/>
</g>
<!-- Node80 -->
<g id="node6" class="node">
<title>Node80</title>
<g id="a_node6"><a xlink:href="class_raven_g_u_i.html#a174a3e75c334c5930d3261a2955c3725" target="_top" xlink:title="Set the client model. ">
<polygon fill="#ffffff" stroke="#000000" points="647,-53 647,-72 781,-72 781,-53 647,-53"/>
<text text-anchor="middle" x="714" y="-60" font-family="Helvetica,sans-Serif" font-size="10.00" fill="#000000">RavenGUI::setClientModel</text>
</a>
</g>
</g>
<!-- Node79&#45;&gt;Node80 -->
<g id="edge5" class="edge">
<title>Node79&#45;&gt;Node80</title>
<path fill="none" stroke="#191970" d="M621.118,-62.5C629.7327,-62.5 638.37,-62.5 646.7208,-62.5"/>
<polygon fill="#191970" stroke="#191970" points="621.0339,-59.0001 611.0338,-62.5 621.0338,-66.0001 621.0339,-59.0001"/>
</g>
<!-- Node81 -->
<g id="node7" class="node">
<title>Node81</title>
<g id="a_node7"><a xlink:href="class_raven_application.html#a60123f611cc210870fa67974cb2c804c" target="_top" xlink:title="Request core shutdown. ">
<polygon fill="#ffffff" stroke="#000000" points="1172,-69.5 1172,-99.5 1303,-99.5 1303,-69.5 1172,-69.5"/>
<text text-anchor="start" x="1180" y="-87.5" font-family="Helvetica,sans-Serif" font-size="10.00" fill="#000000">RavenApplication::request</text>
<text text-anchor="middle" x="1237.5" y="-76.5" font-family="Helvetica,sans-Serif" font-size="10.00" fill="#000000">Shutdown</text>
</a>
</g>
</g>
<!-- Node80&#45;&gt;Node81 -->
<g id="edge6" class="edge">
<title>Node80&#45;&gt;Node81</title>
<path fill="none" stroke="#191970" d="M791.1333,-65.7415C894.2203,-70.0737 1075.1346,-77.6766 1171.9629,-81.7458"/>
<polygon fill="#191970" stroke="#191970" points="791.238,-62.2429 781.0999,-65.3199 790.944,-69.2367 791.238,-62.2429"/>
</g>
<!-- Node82 -->
<g id="node8" class="node">
<title>Node82</title>
<g id="a_node8"><a xlink:href="class_raven_application.html#a1a3dcf33ba44507984b2a04e7ebf1542" target="_top" xlink:title="RavenApplication::initialize\lResult">
<polygon fill="#ffffff" stroke="#000000" points="817,-25.5 817,-55.5 951,-55.5 951,-25.5 817,-25.5"/>
<text text-anchor="start" x="825" y="-43.5" font-family="Helvetica,sans-Serif" font-size="10.00" fill="#000000">RavenApplication::initialize</text>
<text text-anchor="middle" x="884" y="-32.5" font-family="Helvetica,sans-Serif" font-size="10.00" fill="#000000">Result</text>
</a>
</g>
</g>
<!-- Node80&#45;&gt;Node82 -->
<g id="edge7" class="edge">
<title>Node80&#45;&gt;Node82</title>
<path fill="none" stroke="#191970" d="M791.146,-52.5164C799.6879,-51.411 808.3366,-50.2917 816.7428,-49.2039"/>
<polygon fill="#191970" stroke="#191970" points="790.6566,-49.0505 781.1885,-53.805 791.555,-55.9926 790.6566,-49.0505"/>
</g>
<!-- Node83 -->
<g id="node9" class="node">
<title>Node83</title>
<g id="a_node9"><a xlink:href="class_raven_application.html#aecfdce3a245b959def5dd35e5cfb192e" target="_top" xlink:title="RavenApplication::startThread">
<polygon fill="#ffffff" stroke="#000000" points="987,-31 987,-50 1136,-50 1136,-31 987,-31"/>
<text text-anchor="middle" x="1061.5" y="-38" font-family="Helvetica,sans-Serif" font-size="10.00" fill="#000000">RavenApplication::startThread</text>
</a>
</g>
</g>
<!-- Node82&#45;&gt;Node83 -->
<g id="edge8" class="edge">
<title>Node82&#45;&gt;Node83</title>
<path fill="none" stroke="#191970" d="M961.3486,-40.5C969.821,-40.5 978.4344,-40.5 986.873,-40.5"/>
<polygon fill="#191970" stroke="#191970" points="961.1052,-37.0001 951.1051,-40.5 961.1051,-44.0001 961.1052,-37.0001"/>
</g>
<!-- Node83&#45;&gt;Node81 -->
<g id="edge10" class="edge">
<title>Node83&#45;&gt;Node81</title>
<path fill="none" stroke="#191970" d="M1109.6046,-52.5261C1130.4811,-57.7453 1155.1576,-63.9144 1177.2385,-69.4346"/>
<polygon fill="#191970" stroke="#191970" points="1110.2397,-49.0773 1099.6894,-50.0473 1108.5419,-55.8683 1110.2397,-49.0773"/>
</g>
<!-- Node84 -->
<g id="node10" class="node">
<title>Node84</title>
<g id="a_node10"><a xlink:href="class_raven_application.html#a63a2032fef875fb81f26c212f69d000d" target="_top" xlink:title="Request core initialization. ">
<polygon fill="#ffffff" stroke="#000000" points="1172,-20.5 1172,-50.5 1303,-50.5 1303,-20.5 1172,-20.5"/>
<text text-anchor="start" x="1180" y="-38.5" font-family="Helvetica,sans-Serif" font-size="10.00" fill="#000000">RavenApplication::request</text>
<text text-anchor="middle" x="1237.5" y="-27.5" font-family="Helvetica,sans-Serif" font-size="10.00" fill="#000000">Initialize</text>
</a>
</g>
</g>
<!-- Node83&#45;&gt;Node84 -->
<g id="edge9" class="edge">
<title>Node83&#45;&gt;Node84</title>
<path fill="none" stroke="#191970" d="M1146.2384,-38.0927C1154.8743,-37.8473 1163.5522,-37.6008 1171.9387,-37.3625"/>
<polygon fill="#191970" stroke="#191970" points="1146.0364,-34.5969 1136.1398,-38.3795 1146.2352,-41.5941 1146.0364,-34.5969"/>
</g>
</g>
</svg>
