<?xml version="1.0" encoding="UTF-8" standalone="no"?>
<!DOCTYPE svg PUBLIC "-//W3C//DTD SVG 1.1//EN"
 "http://www.w3.org/Graphics/SVG/1.1/DTD/svg11.dtd">
<!-- Generated by graphviz version 2.40.1 (20161225.0304)
 -->
<!-- Title: ReissueAssetDialog::coinControlClipboardQuantity Pages: 1 -->
<svg width="306pt" height="39pt"
 viewBox="0.00 0.00 306.00 39.00" xmlns="http://www.w3.org/2000/svg" xmlns:xlink="http://www.w3.org/1999/xlink">
<g id="graph0" class="graph" transform="scale(1 1) rotate(0) translate(4 35)">
<title>ReissueAssetDialog::coinControlClipboardQuantity</title>
<polygon fill="#ffffff" stroke="transparent" points="-4,4 -4,-35 302,-35 302,4 -4,4"/>
<!-- Node570 -->
<g id="node1" class="node">
<title>Node570</title>
<polygon fill="#bfbfbf" stroke="#000000" points="0,-.5 0,-30.5 150,-30.5 150,-.5 0,-.5"/>
<text text-anchor="start" x="8" y="-18.5" font-family="Helvetica,sans-Serif" font-size="10.00" fill="#000000">ReissueAssetDialog</text>
<text text-anchor="middle" x="75" y="-7.5" font-family="Helvetica,sans-Serif" font-size="10.00" fill="#000000">::coinControlClipboardQuantity</text>
</g>
<!-- Node571 -->
<g id="node2" class="node">
<title>Node571</title>
<g id="a_node2"><a xlink:href="class_reissue_asset_dialog.html#aee7cca850e09ac4cbedb7175feea7038" target="_top" xlink:title="ReissueAssetDialog\l::ReissueAssetDialog">
<polygon fill="#ffffff" stroke="#000000" points="186,-.5 186,-30.5 298,-30.5 298,-.5 186,-.5"/>
<text text-anchor="start" x="194" y="-18.5" font-family="Helvetica,sans-Serif" font-size="10.00" fill="#000000">ReissueAssetDialog</text>
<text text-anchor="middle" x="242" y="-7.5" font-family="Helvetica,sans-Serif" font-size="10.00" fill="#000000">::ReissueAssetDialog</text>
</a>
</g>
</g>
<!-- Node570&#45;&gt;Node571 -->
<g id="edge1" class="edge">
<title>Node570&#45;&gt;Node571</title>
<path fill="none" stroke="#191970" d="M160.3077,-15.5C168.931,-15.5 177.5286,-15.5 185.7324,-15.5"/>
<polygon fill="#191970" stroke="#191970" points="160.1949,-12.0001 150.1948,-15.5 160.1948,-19.0001 160.1949,-12.0001"/>
</g>
</g>
</svg>
