<?xml version="1.0" encoding="UTF-8" standalone="no"?>
<!DOCTYPE svg PUBLIC "-//W3C//DTD SVG 1.1//EN"
 "http://www.w3.org/Graphics/SVG/1.1/DTD/svg11.dtd">
<!-- Generated by graphviz version 2.40.1 (20161225.0304)
 -->
<!-- Title: RavenGUI::showModalOverlay Pages: 1 -->
<svg width="504pt" height="66pt"
 viewBox="0.00 0.00 504.00 66.00" xmlns="http://www.w3.org/2000/svg" xmlns:xlink="http://www.w3.org/1999/xlink">
<g id="graph0" class="graph" transform="scale(1 1) rotate(0) translate(4 62)">
<title>RavenGUI::showModalOverlay</title>
<polygon fill="#ffffff" stroke="transparent" points="-4,4 -4,-62 500,-62 500,4 -4,4"/>
<!-- Node859 -->
<g id="node1" class="node">
<title>Node859</title>
<polygon fill="#bfbfbf" stroke="#000000" points="0,-19.5 0,-38.5 152,-38.5 152,-19.5 0,-19.5"/>
<text text-anchor="middle" x="76" y="-26.5" font-family="Helvetica,sans-Serif" font-size="10.00" fill="#000000">RavenGUI::showModalOverlay</text>
</g>
<!-- Node860 -->
<g id="node2" class="node">
<title>Node860</title>
<g id="a_node2"><a xlink:href="class_modal_overlay.html#a98ae2c2df14fa371e5f444099f6ad75e" target="_top" xlink:title="ModalOverlay::isLayerVisible">
<polygon fill="#ffffff" stroke="#000000" points="189.5,-38.5 189.5,-57.5 332.5,-57.5 332.5,-38.5 189.5,-38.5"/>
<text text-anchor="middle" x="261" y="-45.5" font-family="Helvetica,sans-Serif" font-size="10.00" fill="#000000">ModalOverlay::isLayerVisible</text>
</a>
</g>
</g>
<!-- Node859&#45;&gt;Node860 -->
<g id="edge1" class="edge">
<title>Node859&#45;&gt;Node860</title>
<path fill="none" stroke="#191970" d="M152.0475,-36.8103C161.0261,-37.7324 170.2185,-38.6765 179.2713,-39.6062"/>
<polygon fill="#191970" stroke="#191970" points="179.1089,-43.1079 189.4142,-40.6479 179.8241,-36.1445 179.1089,-43.1079"/>
</g>
<!-- Node861 -->
<g id="node3" class="node">
<title>Node861</title>
<g id="a_node3"><a xlink:href="class_modal_overlay.html#a417f7a13143484ec7813f23a81691a0c" target="_top" xlink:title="ModalOverlay::toggleVisibility">
<polygon fill="#ffffff" stroke="#000000" points="188,-.5 188,-19.5 334,-19.5 334,-.5 188,-.5"/>
<text text-anchor="middle" x="261" y="-7.5" font-family="Helvetica,sans-Serif" font-size="10.00" fill="#000000">ModalOverlay::toggleVisibility</text>
</a>
</g>
</g>
<!-- Node859&#45;&gt;Node861 -->
<g id="edge2" class="edge">
<title>Node859&#45;&gt;Node861</title>
<path fill="none" stroke="#191970" d="M152.0475,-21.1897C160.5714,-20.3143 169.288,-19.4191 177.895,-18.5351"/>
<polygon fill="#191970" stroke="#191970" points="178.3402,-22.0079 187.9303,-17.5045 177.625,-15.0445 178.3402,-22.0079"/>
</g>
<!-- Node862 -->
<g id="node4" class="node">
<title>Node862</title>
<g id="a_node4"><a xlink:href="class_modal_overlay.html#a0144e7dbb1a7701743d7b3393e52f12c" target="_top" xlink:title="ModalOverlay::showHide">
<polygon fill="#ffffff" stroke="#000000" points="370,-.5 370,-19.5 496,-19.5 496,-.5 370,-.5"/>
<text text-anchor="middle" x="433" y="-7.5" font-family="Helvetica,sans-Serif" font-size="10.00" fill="#000000">ModalOverlay::showHide</text>
</a>
</g>
</g>
<!-- Node861&#45;&gt;Node862 -->
<g id="edge3" class="edge">
<title>Node861&#45;&gt;Node862</title>
<path fill="none" stroke="#191970" d="M334.4424,-10C342.8162,-10 351.3524,-10 359.7241,-10"/>
<polygon fill="#191970" stroke="#191970" points="359.8321,-13.5001 369.8321,-10 359.8321,-6.5001 359.8321,-13.5001"/>
</g>
</g>
</svg>
