<?xml version="1.0" encoding="UTF-8" standalone="no"?>
<!DOCTYPE svg PUBLIC "-//W3C//DTD SVG 1.1//EN"
 "http://www.w3.org/Graphics/SVG/1.1/DTD/svg11.dtd">
<!-- Generated by graphviz version 2.40.1 (20161225.0304)
 -->
<!-- Title: WalletModel::requestUnlock Pages: 1 -->
<svg width="500pt" height="66pt"
 viewBox="0.00 0.00 500.00 66.00" xmlns="http://www.w3.org/2000/svg" xmlns:xlink="http://www.w3.org/1999/xlink">
<g id="graph0" class="graph" transform="scale(1 1) rotate(0) translate(4 62)">
<title>WalletModel::requestUnlock</title>
<polygon fill="#ffffff" stroke="transparent" points="-4,4 -4,-62 496,-62 496,4 -4,4"/>
<!-- Node1268 -->
<g id="node1" class="node">
<title>Node1268</title>
<polygon fill="#bfbfbf" stroke="#000000" points="0,-19.5 0,-38.5 140,-38.5 140,-19.5 0,-19.5"/>
<text text-anchor="middle" x="70" y="-26.5" font-family="Helvetica,sans-Serif" font-size="10.00" fill="#000000">WalletModel::requestUnlock</text>
</g>
<!-- Node1269 -->
<g id="node2" class="node">
<title>Node1269</title>
<g id="a_node2"><a xlink:href="class_wallet_model.html#aa89632d2019414f2ab85674cd4d01398" target="_top" xlink:title="WalletModel::getEncryption\lStatus">
<polygon fill="#ffffff" stroke="#000000" points="176,-14 176,-44 313,-44 313,-14 176,-14"/>
<text text-anchor="start" x="184" y="-32" font-family="Helvetica,sans-Serif" font-size="10.00" fill="#000000">WalletModel::getEncryption</text>
<text text-anchor="middle" x="244.5" y="-21" font-family="Helvetica,sans-Serif" font-size="10.00" fill="#000000">Status</text>
</a>
</g>
</g>
<!-- Node1268&#45;&gt;Node1269 -->
<g id="edge1" class="edge">
<title>Node1268&#45;&gt;Node1269</title>
<path fill="none" stroke="#191970" d="M140.2215,-29C148.5704,-29 157.1356,-29 165.5953,-29"/>
<polygon fill="#191970" stroke="#191970" points="165.8402,-32.5001 175.8402,-29 165.8402,-25.5001 165.8402,-32.5001"/>
</g>
<!-- Node1270 -->
<g id="node3" class="node">
<title>Node1270</title>
<g id="a_node3"><a xlink:href="class_c_crypto_key_store.html#acc8fed44366c98fb481333ca6e867088" target="_top" xlink:title="CCryptoKeyStore::IsCrypted">
<polygon fill="#ffffff" stroke="#000000" points="349,-38.5 349,-57.5 492,-57.5 492,-38.5 349,-38.5"/>
<text text-anchor="middle" x="420.5" y="-45.5" font-family="Helvetica,sans-Serif" font-size="10.00" fill="#000000">CCryptoKeyStore::IsCrypted</text>
</a>
</g>
</g>
<!-- Node1269&#45;&gt;Node1270 -->
<g id="edge2" class="edge">
<title>Node1269&#45;&gt;Node1270</title>
<path fill="none" stroke="#191970" d="M313.0502,-36.4003C321.5137,-37.314 330.2299,-38.2549 338.864,-39.187"/>
<polygon fill="#191970" stroke="#191970" points="338.6239,-42.6814 348.9418,-40.275 339.3753,-35.7218 338.6239,-42.6814"/>
</g>
<!-- Node1271 -->
<g id="node4" class="node">
<title>Node1271</title>
<g id="a_node4"><a xlink:href="class_c_crypto_key_store.html#a52919fa284a3aa10f1b4bd6018b6dbee" target="_top" xlink:title="CCryptoKeyStore::IsLocked">
<polygon fill="#ffffff" stroke="#000000" points="350.5,-.5 350.5,-19.5 490.5,-19.5 490.5,-.5 350.5,-.5"/>
<text text-anchor="middle" x="420.5" y="-7.5" font-family="Helvetica,sans-Serif" font-size="10.00" fill="#000000">CCryptoKeyStore::IsLocked</text>
</a>
</g>
</g>
<!-- Node1269&#45;&gt;Node1271 -->
<g id="edge3" class="edge">
<title>Node1269&#45;&gt;Node1271</title>
<path fill="none" stroke="#191970" d="M313.0502,-21.5997C321.9563,-20.6382 331.1423,-19.6466 340.2179,-18.6668"/>
<polygon fill="#191970" stroke="#191970" points="340.8303,-22.1211 350.3969,-17.568 340.079,-15.1616 340.8303,-22.1211"/>
</g>
</g>
</svg>
