<?xml version="1.0" encoding="UTF-8" standalone="no"?>
<!DOCTYPE svg PUBLIC "-//W3C//DTD SVG 1.1//EN"
 "http://www.w3.org/Graphics/SVG/1.1/DTD/svg11.dtd">
<!-- Generated by graphviz version 2.40.1 (20161225.0304)
 -->
<!-- Title: CWalletDBWrapper::Flush Pages: 1 -->
<svg width="627pt" height="66pt"
 viewBox="0.00 0.00 627.00 66.00" xmlns="http://www.w3.org/2000/svg" xmlns:xlink="http://www.w3.org/1999/xlink">
<g id="graph0" class="graph" transform="scale(1 1) rotate(0) translate(4 62)">
<title>CWalletDBWrapper::Flush</title>
<polygon fill="#ffffff" stroke="transparent" points="-4,4 -4,-62 623,-62 623,4 -4,4"/>
<!-- Node15 -->
<g id="node1" class="node">
<title>Node15</title>
<polygon fill="#bfbfbf" stroke="#000000" points="0,-19.5 0,-38.5 133,-38.5 133,-19.5 0,-19.5"/>
<text text-anchor="middle" x="66.5" y="-26.5" font-family="Helvetica,sans-Serif" font-size="10.00" fill="#000000">CWalletDBWrapper::Flush</text>
</g>
<!-- Node16 -->
<g id="node2" class="node">
<title>Node16</title>
<g id="a_node2"><a xlink:href="class_c_d_b_env.html#a09c5850b88919553a8db416ce288ff1a" target="_top" xlink:title="CDBEnv::Flush">
<polygon fill="#ffffff" stroke="#000000" points="169,-19.5 169,-38.5 255,-38.5 255,-19.5 169,-19.5"/>
<text text-anchor="middle" x="212" y="-26.5" font-family="Helvetica,sans-Serif" font-size="10.00" fill="#000000">CDBEnv::Flush</text>
</a>
</g>
</g>
<!-- Node15&#45;&gt;Node16 -->
<g id="edge1" class="edge">
<title>Node15&#45;&gt;Node16</title>
<path fill="none" stroke="#191970" d="M133.2882,-29C141.7977,-29 150.4167,-29 158.6753,-29"/>
<polygon fill="#191970" stroke="#191970" points="158.9082,-32.5001 168.9081,-29 158.9081,-25.5001 158.9082,-32.5001"/>
</g>
<!-- Node17 -->
<g id="node3" class="node">
<title>Node17</title>
<g id="a_node3"><a xlink:href="utiltime_8cpp.html#a139d0fe6387b9e230a9b8bb12d9b43b9" target="_top" xlink:title="GetTimeMillis">
<polygon fill="#ffffff" stroke="#000000" points="291,-38.5 291,-57.5 368,-57.5 368,-38.5 291,-38.5"/>
<text text-anchor="middle" x="329.5" y="-45.5" font-family="Helvetica,sans-Serif" font-size="10.00" fill="#000000">GetTimeMillis</text>
</a>
</g>
</g>
<!-- Node16&#45;&gt;Node17 -->
<g id="edge2" class="edge">
<title>Node16&#45;&gt;Node17</title>
<path fill="none" stroke="#191970" d="M255.0855,-35.967C263.3739,-37.3073 272.1111,-38.7201 280.5688,-40.0877"/>
<polygon fill="#191970" stroke="#191970" points="280.2674,-43.5844 290.6979,-41.7256 281.3849,-36.6741 280.2674,-43.5844"/>
</g>
<!-- Node18 -->
<g id="node4" class="node">
<title>Node18</title>
<g id="a_node4"><a xlink:href="class_c_d_b.html#af8bbf106662d67cdfdd6d58c429bc54b" target="_top" xlink:title="CDB::Close">
<polygon fill="#ffffff" stroke="#000000" points="294.5,-.5 294.5,-19.5 364.5,-19.5 364.5,-.5 294.5,-.5"/>
<text text-anchor="middle" x="329.5" y="-7.5" font-family="Helvetica,sans-Serif" font-size="10.00" fill="#000000">CDB::Close</text>
</a>
</g>
</g>
<!-- Node16&#45;&gt;Node18 -->
<g id="edge3" class="edge">
<title>Node16&#45;&gt;Node18</title>
<path fill="none" stroke="#191970" d="M255.0855,-22.033C264.6091,-20.493 274.7253,-18.8572 284.3292,-17.3042"/>
<polygon fill="#191970" stroke="#191970" points="285.1842,-20.7115 294.4972,-15.66 284.0667,-13.8013 285.1842,-20.7115"/>
</g>
<!-- Node19 -->
<g id="node5" class="node">
<title>Node19</title>
<g id="a_node5"><a xlink:href="class_c_d_b.html#ab4a0447a8d19b4871b9fcc40edee9480" target="_top" xlink:title="CDB::Flush">
<polygon fill="#ffffff" stroke="#000000" points="404,-.5 404,-19.5 472,-19.5 472,-.5 404,-.5"/>
<text text-anchor="middle" x="438" y="-7.5" font-family="Helvetica,sans-Serif" font-size="10.00" fill="#000000">CDB::Flush</text>
</a>
</g>
</g>
<!-- Node18&#45;&gt;Node19 -->
<g id="edge4" class="edge">
<title>Node18&#45;&gt;Node19</title>
<path fill="none" stroke="#191970" d="M364.7268,-10C373.906,-10 383.9171,-10 393.5075,-10"/>
<polygon fill="#191970" stroke="#191970" points="393.6897,-13.5001 403.6897,-10 393.6897,-6.5001 393.6897,-13.5001"/>
</g>
<!-- Node20 -->
<g id="node6" class="node">
<title>Node20</title>
<g id="a_node6"><a xlink:href="class_args_manager.html#adb5d644d273b3a259f792affcdca8283" target="_top" xlink:title="Return string argument or default value. ">
<polygon fill="#ffffff" stroke="#000000" points="508,-.5 508,-19.5 619,-19.5 619,-.5 508,-.5"/>
<text text-anchor="middle" x="563.5" y="-7.5" font-family="Helvetica,sans-Serif" font-size="10.00" fill="#000000">ArgsManager::GetArg</text>
</a>
</g>
</g>
<!-- Node19&#45;&gt;Node20 -->
<g id="edge5" class="edge">
<title>Node19&#45;&gt;Node20</title>
<path fill="none" stroke="#191970" d="M472.2934,-10C480.3084,-10 489.1092,-10 497.9839,-10"/>
<polygon fill="#191970" stroke="#191970" points="497.9972,-13.5001 507.9972,-10 497.9972,-6.5001 497.9972,-13.5001"/>
</g>
</g>
</svg>
