<?xml version="1.0" encoding="UTF-8" standalone="no"?>
<!DOCTYPE svg PUBLIC "-//W3C//DTD SVG 1.1//EN"
 "http://www.w3.org/Graphics/SVG/1.1/DTD/svg11.dtd">
<!-- Generated by graphviz version 2.40.1 (20161225.0304)
 -->
<!-- Title: CBlockTreeDB::WriteTimestampIndex Pages: 1 -->
<svg width="449pt" height="39pt"
 viewBox="0.00 0.00 449.00 39.00" xmlns="http://www.w3.org/2000/svg" xmlns:xlink="http://www.w3.org/1999/xlink">
<g id="graph0" class="graph" transform="scale(1 1) rotate(0) translate(4 35)">
<title>CBlockTreeDB::WriteTimestampIndex</title>
<polygon fill="#ffffff" stroke="transparent" points="-4,4 -4,-35 445,-35 445,4 -4,4"/>
<!-- Node99 -->
<g id="node1" class="node">
<title>Node99</title>
<polygon fill="#bfbfbf" stroke="#000000" points="0,-.5 0,-30.5 161,-30.5 161,-.5 0,-.5"/>
<text text-anchor="start" x="8" y="-18.5" font-family="Helvetica,sans-Serif" font-size="10.00" fill="#000000">CBlockTreeDB::WriteTimestamp</text>
<text text-anchor="middle" x="80.5" y="-7.5" font-family="Helvetica,sans-Serif" font-size="10.00" fill="#000000">Index</text>
</g>
<!-- Node100 -->
<g id="node2" class="node">
<title>Node100</title>
<g id="a_node2"><a xlink:href="class_c_d_b_batch.html#a91b5d889a8d7e56c4f0bbf446e246111" target="_top" xlink:title="CDBBatch::Write">
<polygon fill="#ffffff" stroke="#000000" points="197,-6 197,-25 290,-25 290,-6 197,-6"/>
<text text-anchor="middle" x="243.5" y="-13" font-family="Helvetica,sans-Serif" font-size="10.00" fill="#000000">CDBBatch::Write</text>
</a>
</g>
</g>
<!-- Node99&#45;&gt;Node100 -->
<g id="edge1" class="edge">
<title>Node99&#45;&gt;Node100</title>
<path fill="none" stroke="#191970" d="M161.0449,-15.5C169.617,-15.5 178.2032,-15.5 186.4241,-15.5"/>
<polygon fill="#191970" stroke="#191970" points="186.6133,-19.0001 196.6133,-15.5 186.6133,-12.0001 186.6133,-19.0001"/>
</g>
<!-- Node101 -->
<g id="node3" class="node">
<title>Node101</title>
<g id="a_node3"><a xlink:href="class_c_data_stream.html#a5542e71bd7af2ab7cd7be0f381d39cb5" target="_top" xlink:title="CDataStream::reserve">
<polygon fill="#ffffff" stroke="#000000" points="326,-6 326,-25 441,-25 441,-6 326,-6"/>
<text text-anchor="middle" x="383.5" y="-13" font-family="Helvetica,sans-Serif" font-size="10.00" fill="#000000">CDataStream::reserve</text>
</a>
</g>
</g>
<!-- Node100&#45;&gt;Node101 -->
<g id="edge2" class="edge">
<title>Node100&#45;&gt;Node101</title>
<path fill="none" stroke="#191970" d="M290.118,-15.5C298.3507,-15.5 307.0709,-15.5 315.7451,-15.5"/>
<polygon fill="#191970" stroke="#191970" points="315.8748,-19.0001 325.8748,-15.5 315.8747,-12.0001 315.8748,-19.0001"/>
</g>
</g>
</svg>
