<?xml version="1.0" encoding="UTF-8" standalone="no"?>
<!DOCTYPE svg PUBLIC "-//W3C//DTD SVG 1.1//EN"
 "http://www.w3.org/Graphics/SVG/1.1/DTD/svg11.dtd">
<!-- Generated by graphviz version 2.40.1 (20161225.0304)
 -->
<!-- Title: ReceiveCoinsDialog::on_receiveButton_clicked Pages: 1 -->
<svg width="1496pt" height="428pt"
 viewBox="0.00 0.00 1496.00 428.40" xmlns="http://www.w3.org/2000/svg" xmlns:xlink="http://www.w3.org/1999/xlink">
<g id="graph0" class="graph" transform="scale(1 1) rotate(0) translate(4 424.3976)">
<title>ReceiveCoinsDialog::on_receiveButton_clicked</title>
<polygon fill="#ffffff" stroke="transparent" points="-4,4 -4,-424.3976 1492,-424.3976 1492,4 -4,4"/>
<!-- Node162 -->
<g id="node1" class="node">
<title>Node162</title>
<polygon fill="#bfbfbf" stroke="#000000" points="0,-188 0,-218 134,-218 134,-188 0,-188"/>
<text text-anchor="start" x="8" y="-206" font-family="Helvetica,sans-Serif" font-size="10.00" fill="#000000">ReceiveCoinsDialog</text>
<text text-anchor="middle" x="67" y="-195" font-family="Helvetica,sans-Serif" font-size="10.00" fill="#000000">::on_receiveButton_clicked</text>
</g>
<!-- Node163 -->
<g id="node2" class="node">
<title>Node163</title>
<g id="a_node2"><a xlink:href="class_wallet_model.html#a96d53e56b3f8f07537ea2523f7a7d300" target="_top" xlink:title="WalletModel::getOptionsModel">
<polygon fill="#ffffff" stroke="#000000" points="556,-376.5 556,-395.5 706,-395.5 706,-376.5 556,-376.5"/>
<text text-anchor="middle" x="631" y="-383.5" font-family="Helvetica,sans-Serif" font-size="10.00" fill="#000000">WalletModel::getOptionsModel</text>
</a>
</g>
</g>
<!-- Node162&#45;&gt;Node163 -->
<g id="edge1" class="edge">
<title>Node162&#45;&gt;Node163</title>
<path fill="none" stroke="#191970" d="M71.0224,-218.0492C81.0665,-252.2676 110.801,-335.5987 170,-370 303.3738,-447.5053 497.0363,-417.4338 584.7502,-397.7942"/>
<polygon fill="#191970" stroke="#191970" points="585.6978,-401.1678 594.6604,-395.5178 584.1307,-394.3455 585.6978,-401.1678"/>
</g>
<!-- Node164 -->
<g id="node3" class="node">
<title>Node164</title>
<g id="a_node3"><a xlink:href="class_wallet_model.html#a89ed202e2dbc04aaa70d72872b95b351" target="_top" xlink:title="WalletModel::getAddressTable\lModel">
<polygon fill="#ffffff" stroke="#000000" points="177,-281 177,-311 327,-311 327,-281 177,-281"/>
<text text-anchor="start" x="185" y="-299" font-family="Helvetica,sans-Serif" font-size="10.00" fill="#000000">WalletModel::getAddressTable</text>
<text text-anchor="middle" x="252" y="-288" font-family="Helvetica,sans-Serif" font-size="10.00" fill="#000000">Model</text>
</a>
</g>
</g>
<!-- Node162&#45;&gt;Node164 -->
<g id="edge2" class="edge">
<title>Node162&#45;&gt;Node164</title>
<path fill="none" stroke="#191970" d="M85.6878,-218.1021C105.5588,-233.5204 138.4157,-257.2276 170,-272 174.117,-273.9256 178.4231,-275.734 182.8142,-277.4258"/>
<polygon fill="#191970" stroke="#191970" points="181.9281,-280.8273 192.5223,-280.9431 184.3126,-274.2459 181.9281,-280.8273"/>
</g>
<!-- Node165 -->
<g id="node4" class="node">
<title>Node165</title>
<g id="a_node4"><a xlink:href="class_wallet_model.html#ab13ca64220a1652d63e1e042d3be578f" target="_top" xlink:title="WalletModel::getRecentRequests\lTableModel">
<polygon fill="#ffffff" stroke="#000000" points="170,-232 170,-262 334,-262 334,-232 170,-232"/>
<text text-anchor="start" x="178" y="-250" font-family="Helvetica,sans-Serif" font-size="10.00" fill="#000000">WalletModel::getRecentRequests</text>
<text text-anchor="middle" x="252" y="-239" font-family="Helvetica,sans-Serif" font-size="10.00" fill="#000000">TableModel</text>
</a>
</g>
</g>
<!-- Node162&#45;&gt;Node165 -->
<g id="edge3" class="edge">
<title>Node162&#45;&gt;Node165</title>
<path fill="none" stroke="#191970" d="M130.1491,-218.0192C145.8387,-221.7508 162.7852,-225.7814 178.908,-229.616"/>
<polygon fill="#191970" stroke="#191970" points="178.2831,-233.0649 188.8216,-231.9738 179.9029,-226.2549 178.2831,-233.0649"/>
</g>
<!-- Node166 -->
<g id="node5" class="node">
<title>Node166</title>
<g id="a_node5"><a xlink:href="class_address_book_page.html#a1282cda9cb0300ee04c472ec4c9949f3" target="_top" xlink:title="AddressBookPage::setModel">
<polygon fill="#ffffff" stroke="#000000" points="180.5,-117.5 180.5,-136.5 323.5,-136.5 323.5,-117.5 180.5,-117.5"/>
<text text-anchor="middle" x="252" y="-124.5" font-family="Helvetica,sans-Serif" font-size="10.00" fill="#000000">AddressBookPage::setModel</text>
</a>
</g>
</g>
<!-- Node162&#45;&gt;Node166 -->
<g id="edge4" class="edge">
<title>Node162&#45;&gt;Node166</title>
<path fill="none" stroke="#191970" d="M93.4883,-187.9338C113.9348,-176.7242 143.171,-161.5956 170,-151 180.8841,-146.7016 192.8472,-142.7732 204.1907,-139.395"/>
<polygon fill="#191970" stroke="#191970" points="205.3219,-142.7114 213.957,-136.5725 203.3784,-135.9866 205.3219,-142.7114"/>
</g>
<!-- Node178 -->
<g id="node17" class="node">
<title>Node178</title>
<g id="a_node17"><a xlink:href="class_address_book_page.html#a4f6d802c63539ac335b138cca0b913d2" target="_top" xlink:title="AddressBookPage::getReturn\lValue">
<polygon fill="#ffffff" stroke="#000000" points="179,-68 179,-98 325,-98 325,-68 179,-68"/>
<text text-anchor="start" x="187" y="-86" font-family="Helvetica,sans-Serif" font-size="10.00" fill="#000000">AddressBookPage::getReturn</text>
<text text-anchor="middle" x="252" y="-75" font-family="Helvetica,sans-Serif" font-size="10.00" fill="#000000">Value</text>
</a>
</g>
</g>
<!-- Node162&#45;&gt;Node178 -->
<g id="edge16" class="edge">
<title>Node162&#45;&gt;Node178</title>
<path fill="none" stroke="#191970" d="M79.3963,-187.9135C97.3109,-167.0505 132.4324,-129.5333 170,-108 173.7042,-105.8768 177.608,-103.9155 181.62,-102.1065"/>
<polygon fill="#191970" stroke="#191970" points="183.2406,-105.2234 191.135,-98.1573 180.5572,-98.7581 183.2406,-105.2234"/>
</g>
<!-- Node179 -->
<g id="node18" class="node">
<title>Node179</title>
<g id="a_node18"><a xlink:href="class_address_table_model.html#afcdbfc17ac480f5a57382cbcf096ccb3" target="_top" xlink:title="AddressTableModel::\llabelForAddress">
<polygon fill="#ffffff" stroke="#000000" points="390.5,-144 390.5,-174 499.5,-174 499.5,-144 390.5,-144"/>
<text text-anchor="start" x="398.5" y="-162" font-family="Helvetica,sans-Serif" font-size="10.00" fill="#000000">AddressTableModel::</text>
<text text-anchor="middle" x="445" y="-151" font-family="Helvetica,sans-Serif" font-size="10.00" fill="#000000">labelForAddress</text>
</a>
</g>
</g>
<!-- Node162&#45;&gt;Node179 -->
<g id="edge17" class="edge">
<title>Node162&#45;&gt;Node179</title>
<path fill="none" stroke="#191970" d="M134.0076,-193.6309C145.986,-192.0306 158.3569,-190.4261 170,-189 241.9152,-180.1915 324.5713,-171.3465 380.335,-165.5669"/>
<polygon fill="#191970" stroke="#191970" points="380.8385,-169.0336 390.4257,-164.5242 380.1188,-162.0707 380.8385,-169.0336"/>
</g>
<!-- Node185 -->
<g id="node24" class="node">
<title>Node185</title>
<g id="a_node24"><a xlink:href="class_address_table_model.html#aa72edd2a093a6e9318639d69d3a23488" target="_top" xlink:title="AddressTableModel::\laddRow">
<polygon fill="#ffffff" stroke="#000000" points="576.5,-188 576.5,-218 685.5,-218 685.5,-188 576.5,-188"/>
<text text-anchor="start" x="584.5" y="-206" font-family="Helvetica,sans-Serif" font-size="10.00" fill="#000000">AddressTableModel::</text>
<text text-anchor="middle" x="631" y="-195" font-family="Helvetica,sans-Serif" font-size="10.00" fill="#000000">addRow</text>
</a>
</g>
</g>
<!-- Node162&#45;&gt;Node185 -->
<g id="edge25" class="edge">
<title>Node162&#45;&gt;Node185</title>
<path fill="none" stroke="#191970" d="M134.192,-203C243.5576,-203 458.6541,-203 566.3536,-203"/>
<polygon fill="#191970" stroke="#191970" points="566.4337,-206.5001 576.4337,-203 566.4336,-199.5001 566.4337,-206.5001"/>
</g>
<!-- Node188 -->
<g id="node27" class="node">
<title>Node188</title>
<g id="a_node27"><a xlink:href="class_receive_coins_dialog.html#aaea0511f0ab43f1d2b23f8684d1edfc3" target="_top" xlink:title="ReceiveCoinsDialog\l::clear">
<polygon fill="#ffffff" stroke="#000000" points="199,-330 199,-360 305,-360 305,-330 199,-330"/>
<text text-anchor="start" x="207" y="-348" font-family="Helvetica,sans-Serif" font-size="10.00" fill="#000000">ReceiveCoinsDialog</text>
<text text-anchor="middle" x="252" y="-337" font-family="Helvetica,sans-Serif" font-size="10.00" fill="#000000">::clear</text>
</a>
</g>
</g>
<!-- Node162&#45;&gt;Node188 -->
<g id="edge30" class="edge">
<title>Node162&#45;&gt;Node188</title>
<path fill="none" stroke="#191970" d="M76.0778,-218.1254C91.9474,-243.2691 127.1602,-293.6045 170,-321 175.8773,-324.7585 182.3627,-327.946 189.0345,-330.6455"/>
<polygon fill="#191970" stroke="#191970" points="188.2998,-334.104 198.8935,-334.2611 190.71,-327.5319 188.2998,-334.104"/>
</g>
<!-- Node191 -->
<g id="node30" class="node">
<title>Node191</title>
<g id="a_node30"><a xlink:href="class_recent_requests_table_model.html#ae9866ffd5aed0f041437996410928edd" target="_top" xlink:title="RecentRequestsTableModel\l::addNewRequest">
<polygon fill="#ffffff" stroke="#000000" points="182,-19 182,-49 322,-49 322,-19 182,-19"/>
<text text-anchor="start" x="190" y="-37" font-family="Helvetica,sans-Serif" font-size="10.00" fill="#000000">RecentRequestsTableModel</text>
<text text-anchor="middle" x="252" y="-26" font-family="Helvetica,sans-Serif" font-size="10.00" fill="#000000">::addNewRequest</text>
</a>
</g>
</g>
<!-- Node162&#45;&gt;Node191 -->
<g id="edge34" class="edge">
<title>Node162&#45;&gt;Node191</title>
<path fill="none" stroke="#191970" d="M73.6125,-187.7204C87.2159,-158.105 121.2087,-92.755 170,-58 172.1143,-56.494 174.3227,-55.0817 176.6025,-53.7573"/>
<polygon fill="#191970" stroke="#191970" points="178.4124,-56.7622 185.7015,-49.0732 175.2085,-50.5384 178.4124,-56.7622"/>
</g>
<!-- Node167 -->
<g id="node6" class="node">
<title>Node167</title>
<g id="a_node6"><a xlink:href="class_address_book_page.html#a9df2b5984c8b4ab2c4b5eade1aab8f3e" target="_top" xlink:title="Set button states based on selected tab and selection. ">
<polygon fill="#ffffff" stroke="#000000" points="373.5,-95 373.5,-125 516.5,-125 516.5,-95 373.5,-95"/>
<text text-anchor="start" x="381.5" y="-113" font-family="Helvetica,sans-Serif" font-size="10.00" fill="#000000">AddressBookPage::selection</text>
<text text-anchor="middle" x="445" y="-102" font-family="Helvetica,sans-Serif" font-size="10.00" fill="#000000">Changed</text>
</a>
</g>
</g>
<!-- Node166&#45;&gt;Node167 -->
<g id="edge5" class="edge">
<title>Node166&#45;&gt;Node167</title>
<path fill="none" stroke="#191970" d="M323.5918,-120.694C336.5003,-119.557 350.047,-118.3637 363.219,-117.2035"/>
<polygon fill="#191970" stroke="#191970" points="363.5477,-120.6882 373.202,-116.3242 362.9334,-113.7152 363.5477,-120.6882"/>
</g>
<!-- Node168 -->
<g id="node7" class="node">
<title>Node168</title>
<g id="a_node7"><a xlink:href="class_address_book_page.html#ab62ba5d31e2d64c4d901da58d6b32a59" target="_top" xlink:title="New entry/entries were added to address table. ">
<polygon fill="#ffffff" stroke="#000000" points="370,-46 370,-76 520,-76 520,-46 370,-46"/>
<text text-anchor="start" x="378" y="-64" font-family="Helvetica,sans-Serif" font-size="10.00" fill="#000000">AddressBookPage::selectNew</text>
<text text-anchor="middle" x="445" y="-53" font-family="Helvetica,sans-Serif" font-size="10.00" fill="#000000">Address</text>
</a>
</g>
</g>
<!-- Node166&#45;&gt;Node168 -->
<g id="edge6" class="edge">
<title>Node166&#45;&gt;Node168</title>
<path fill="none" stroke="#191970" d="M301.7901,-117.4694C312.6113,-114.6809 323.8515,-111.2178 334,-107 351.3152,-99.8036 352.949,-92.8019 370,-85 374.0966,-83.1255 378.3813,-81.336 382.7378,-79.6405"/>
<polygon fill="#191970" stroke="#191970" points="384.1823,-82.8379 392.3443,-76.0827 381.7512,-76.2736 384.1823,-82.8379"/>
</g>
<!-- Node169 -->
<g id="node8" class="node">
<title>Node169</title>
<g id="a_node8"><a xlink:href="class_address_table_model.html#a74e9123471948255f87271c823c82854" target="_top" xlink:title="AddressTableModel::\lindex">
<polygon fill="#ffffff" stroke="#000000" points="576.5,-52 576.5,-82 685.5,-82 685.5,-52 576.5,-52"/>
<text text-anchor="start" x="584.5" y="-70" font-family="Helvetica,sans-Serif" font-size="10.00" fill="#000000">AddressTableModel::</text>
<text text-anchor="middle" x="631" y="-59" font-family="Helvetica,sans-Serif" font-size="10.00" fill="#000000">index</text>
</a>
</g>
</g>
<!-- Node168&#45;&gt;Node169 -->
<g id="edge7" class="edge">
<title>Node168&#45;&gt;Node169</title>
<path fill="none" stroke="#191970" d="M520.1172,-63.4231C535.4361,-63.9173 551.4278,-64.4332 566.3439,-64.9143"/>
<polygon fill="#191970" stroke="#191970" points="566.3694,-68.4169 576.4771,-65.2412 566.5951,-61.4205 566.3694,-68.4169"/>
</g>
<!-- Node170 -->
<g id="node9" class="node">
<title>Node170</title>
<g id="a_node9"><a xlink:href="class_address_table_model.html#a79b07007c147962c0119310ebd4931c1" target="_top" xlink:title="AddressTableModel::data">
<polygon fill="#ffffff" stroke="#000000" points="744.5,-106.5 744.5,-125.5 872.5,-125.5 872.5,-106.5 744.5,-106.5"/>
<text text-anchor="middle" x="808.5" y="-113.5" font-family="Helvetica,sans-Serif" font-size="10.00" fill="#000000">AddressTableModel::data</text>
</a>
</g>
</g>
<!-- Node169&#45;&gt;Node170 -->
<g id="edge8" class="edge">
<title>Node169&#45;&gt;Node170</title>
<path fill="none" stroke="#191970" d="M685.7042,-82.1014C710.928,-89.0646 740.4763,-97.2216 764.2661,-103.7889"/>
<polygon fill="#191970" stroke="#191970" points="763.5089,-107.2108 774.0797,-106.4981 765.3717,-100.4632 763.5089,-107.2108"/>
</g>
<!-- Node177 -->
<g id="node16" class="node">
<title>Node177</title>
<g id="a_node16"><a xlink:href="class_address_table_priv.html#af311eb7d0189a74a508d7ad0f563f307" target="_top" xlink:title="AddressTablePriv::index">
<polygon fill="#ffffff" stroke="#000000" points="747,-57.5 747,-76.5 870,-76.5 870,-57.5 747,-57.5"/>
<text text-anchor="middle" x="808.5" y="-64.5" font-family="Helvetica,sans-Serif" font-size="10.00" fill="#000000">AddressTablePriv::index</text>
</a>
</g>
</g>
<!-- Node169&#45;&gt;Node177 -->
<g id="edge15" class="edge">
<title>Node169&#45;&gt;Node177</title>
<path fill="none" stroke="#191970" d="M685.7042,-67C701.7317,-67 719.5052,-67 736.4379,-67"/>
<polygon fill="#191970" stroke="#191970" points="736.8492,-70.5001 746.8492,-67 736.8492,-63.5001 736.8492,-70.5001"/>
</g>
<!-- Node171 -->
<g id="node10" class="node">
<title>Node171</title>
<g id="a_node10"><a xlink:href="namespace_g_u_i_util.html#af6b9624383a5313a5d856c59913b599b" target="_top" xlink:title="GUIUtil::fixedPitchFont">
<polygon fill="#ffffff" stroke="#000000" points="924.5,-142.5 924.5,-161.5 1043.5,-161.5 1043.5,-142.5 924.5,-142.5"/>
<text text-anchor="middle" x="984" y="-149.5" font-family="Helvetica,sans-Serif" font-size="10.00" fill="#000000">GUIUtil::fixedPitchFont</text>
</a>
</g>
</g>
<!-- Node170&#45;&gt;Node171 -->
<g id="edge9" class="edge">
<title>Node170&#45;&gt;Node171</title>
<path fill="none" stroke="#191970" d="M855.07,-125.5528C877.3726,-130.1277 904.265,-135.6441 927.7058,-140.4525"/>
<polygon fill="#191970" stroke="#191970" points="927.0178,-143.8841 937.5171,-142.4651 928.4244,-137.0269 927.0178,-143.8841"/>
</g>
<!-- Node172 -->
<g id="node11" class="node">
<title>Node172</title>
<g id="a_node11"><a xlink:href="class_c_chain_params.html#a103c58eca4a26a71201882b3ed6c4cb4" target="_top" xlink:title="CChainParams::Base58Prefix">
<polygon fill="#ffffff" stroke="#000000" points="1093,-114.5 1093,-133.5 1241,-133.5 1241,-114.5 1093,-114.5"/>
<text text-anchor="middle" x="1167" y="-121.5" font-family="Helvetica,sans-Serif" font-size="10.00" fill="#000000">CChainParams::Base58Prefix</text>
</a>
</g>
</g>
<!-- Node171&#45;&gt;Node172 -->
<g id="edge10" class="edge">
<title>Node171&#45;&gt;Node172</title>
<path fill="none" stroke="#191970" d="M1043.6678,-142.8705C1059.9064,-140.3859 1077.6731,-137.6675 1094.5371,-135.0872"/>
<polygon fill="#191970" stroke="#191970" points="1095.5434,-138.4741 1104.8989,-133.5018 1094.4846,-131.5546 1095.5434,-138.4741"/>
</g>
<!-- Node173 -->
<g id="node12" class="node">
<title>Node173</title>
<g id="a_node12"><a xlink:href="base58_8cpp.html#a8d6f0e9d5df175b4966dcede31dc90ad" target="_top" xlink:title="Why base&#45;58 instead of standard base&#45;64 encoding? ">
<polygon fill="#ffffff" stroke="#000000" points="1125.5,-152.5 1125.5,-171.5 1208.5,-171.5 1208.5,-152.5 1125.5,-152.5"/>
<text text-anchor="middle" x="1167" y="-159.5" font-family="Helvetica,sans-Serif" font-size="10.00" fill="#000000">EncodeBase58</text>
</a>
</g>
</g>
<!-- Node171&#45;&gt;Node173 -->
<g id="edge11" class="edge">
<title>Node171&#45;&gt;Node173</title>
<path fill="none" stroke="#191970" d="M1043.6678,-155.2605C1066.7187,-156.5201 1092.8487,-157.948 1115.1049,-159.1642"/>
<polygon fill="#191970" stroke="#191970" points="1115.1839,-162.6737 1125.36,-159.7246 1115.5659,-155.6841 1115.1839,-162.6737"/>
</g>
<!-- Node174 -->
<g id="node13" class="node">
<title>Node174</title>
<g id="a_node13"><a xlink:href="base58_8cpp.html#a32169f8eb6ebcce6412b675f9d23d878" target="_top" xlink:title="IsValidDestinationString">
<polygon fill="#ffffff" stroke="#000000" points="1106,-190.5 1106,-209.5 1228,-209.5 1228,-190.5 1106,-190.5"/>
<text text-anchor="middle" x="1167" y="-197.5" font-family="Helvetica,sans-Serif" font-size="10.00" fill="#000000">IsValidDestinationString</text>
</a>
</g>
</g>
<!-- Node171&#45;&gt;Node174 -->
<g id="edge12" class="edge">
<title>Node171&#45;&gt;Node174</title>
<path fill="none" stroke="#191970" d="M1019.817,-161.6133C1041.074,-167.2977 1068.5605,-174.6115 1093,-181 1101.6711,-183.2666 1110.9202,-185.6604 1119.8381,-187.9563"/>
<polygon fill="#191970" stroke="#191970" points="1119.1611,-191.396 1129.7175,-190.4949 1120.9032,-184.6162 1119.1611,-191.396"/>
</g>
<!-- Node175 -->
<g id="node14" class="node">
<title>Node175</title>
<g id="a_node14"><a xlink:href="class_c_raven_address.html#a3c442b9abc0cbfb0518e9b0c4744427c" target="_top" xlink:title="CRavenAddress::IsValid">
<polygon fill="#ffffff" stroke="#000000" points="1277,-152.5 1277,-171.5 1402,-171.5 1402,-152.5 1277,-152.5"/>
<text text-anchor="middle" x="1339.5" y="-159.5" font-family="Helvetica,sans-Serif" font-size="10.00" fill="#000000">CRavenAddress::IsValid</text>
</a>
</g>
</g>
<!-- Node174&#45;&gt;Node175 -->
<g id="edge13" class="edge">
<title>Node174&#45;&gt;Node175</title>
<path fill="none" stroke="#191970" d="M1210.529,-190.411C1233.5999,-185.3287 1262.1266,-179.0446 1286.4805,-173.6797"/>
<polygon fill="#191970" stroke="#191970" points="1287.2711,-177.0895 1296.284,-171.5201 1285.7651,-170.2534 1287.2711,-177.0895"/>
</g>
<!-- Node176 -->
<g id="node15" class="node">
<title>Node176</title>
<g id="a_node15"><a xlink:href="chainparams_8cpp.html#ace5c5b706d71a324a417dd2db394fd4a" target="_top" xlink:title="Return the currently selected parameters. ">
<polygon fill="#ffffff" stroke="#000000" points="1438,-114.5 1438,-133.5 1488,-133.5 1488,-114.5 1438,-114.5"/>
<text text-anchor="middle" x="1463" y="-121.5" font-family="Helvetica,sans-Serif" font-size="10.00" fill="#000000">Params</text>
</a>
</g>
</g>
<!-- Node175&#45;&gt;Node176 -->
<g id="edge14" class="edge">
<title>Node175&#45;&gt;Node176</title>
<path fill="none" stroke="#191970" d="M1370.6643,-152.411C1388.1488,-147.0311 1410.0103,-140.3045 1428.0719,-134.7471"/>
<polygon fill="#191970" stroke="#191970" points="1429.1348,-138.0821 1437.6632,-131.7959 1427.0761,-131.3916 1429.1348,-138.0821"/>
</g>
<!-- Node180 -->
<g id="node19" class="node">
<title>Node180</title>
<g id="a_node19"><a xlink:href="base58_8cpp.html#a8a781e21ad4ecccd9c97c7d890ef7d6f" target="_top" xlink:title="DecodeDestination">
<polygon fill="#ffffff" stroke="#000000" points="758.5,-149.5 758.5,-168.5 858.5,-168.5 858.5,-149.5 758.5,-149.5"/>
<text text-anchor="middle" x="808.5" y="-156.5" font-family="Helvetica,sans-Serif" font-size="10.00" fill="#000000">DecodeDestination</text>
</a>
</g>
</g>
<!-- Node179&#45;&gt;Node180 -->
<g id="edge18" class="edge">
<title>Node179&#45;&gt;Node180</title>
<path fill="none" stroke="#191970" d="M499.8132,-159C566.5009,-159 678.7284,-159 747.9212,-159"/>
<polygon fill="#191970" stroke="#191970" points="748.225,-162.5001 758.225,-159 748.2249,-155.5001 748.225,-162.5001"/>
</g>
<!-- Node181 -->
<g id="node20" class="node">
<title>Node181</title>
<g id="a_node20"><a xlink:href="class_c_raven_address.html#a5e7e76de59b448a766b7e0c7b959280e" target="_top" xlink:title="CRavenAddress::Get">
<polygon fill="#ffffff" stroke="#000000" points="929,-95.5 929,-114.5 1039,-114.5 1039,-95.5 929,-95.5"/>
<text text-anchor="middle" x="984" y="-102.5" font-family="Helvetica,sans-Serif" font-size="10.00" fill="#000000">CRavenAddress::Get</text>
</a>
</g>
</g>
<!-- Node180&#45;&gt;Node181 -->
<g id="edge19" class="edge">
<title>Node180&#45;&gt;Node181</title>
<path fill="none" stroke="#191970" d="M839.4719,-149.4702C868.3299,-140.5908 911.5453,-127.2938 943.2034,-117.5528"/>
<polygon fill="#191970" stroke="#191970" points="944.5146,-120.8114 953.0431,-114.5252 942.4559,-114.1209 944.5146,-120.8114"/>
</g>
<!-- Node181&#45;&gt;Node172 -->
<g id="edge24" class="edge">
<title>Node181&#45;&gt;Node172</title>
<path fill="none" stroke="#191970" d="M1039.4027,-110.7522C1053.0785,-112.1721 1068.0355,-113.725 1082.7415,-115.2519"/>
<polygon fill="#191970" stroke="#191970" points="1082.5557,-118.7513 1092.8637,-116.3028 1083.2786,-111.7887 1082.5557,-118.7513"/>
</g>
<!-- Node181&#45;&gt;Node176 -->
<g id="edge23" class="edge">
<title>Node181&#45;&gt;Node176</title>
<path fill="none" stroke="#191970" d="M1039.1752,-103.6403C1091.2374,-102.6794 1171.4592,-102.0296 1241,-105 1307.0514,-107.8214 1383.8558,-115.344 1427.6162,-120.0331"/>
<polygon fill="#191970" stroke="#191970" points="1427.4231,-123.5326 1437.7422,-121.131 1428.1777,-116.5734 1427.4231,-123.5326"/>
</g>
<!-- Node182 -->
<g id="node21" class="node">
<title>Node182</title>
<g id="a_node21"><a xlink:href="glibc__compat_8cpp.html#a0f46826ab0466591e136db24394923cf" target="_top" xlink:title="memcpy">
<polygon fill="#ffffff" stroke="#000000" points="1140,-38.5 1140,-57.5 1194,-57.5 1194,-38.5 1140,-38.5"/>
<text text-anchor="middle" x="1167" y="-45.5" font-family="Helvetica,sans-Serif" font-size="10.00" fill="#000000">memcpy</text>
</a>
</g>
</g>
<!-- Node181&#45;&gt;Node182 -->
<g id="edge20" class="edge">
<title>Node181&#45;&gt;Node182</title>
<path fill="none" stroke="#191970" d="M1014.6301,-95.4595C1046.4871,-85.5368 1096.3604,-70.0025 1130.3029,-59.4303"/>
<polygon fill="#191970" stroke="#191970" points="1131.3494,-62.7702 1139.8561,-56.4546 1129.2677,-56.0869 1131.3494,-62.7702"/>
</g>
<!-- Node183 -->
<g id="node22" class="node">
<title>Node183</title>
<g id="a_node22"><a xlink:href="glibc__compat_8cpp.html#a9778d49e9029dd75bc53ecbbf9f5e9a1" target="_top" xlink:title="memmove">
<polygon fill="#ffffff" stroke="#000000" points="1308.5,-.5 1308.5,-19.5 1370.5,-19.5 1370.5,-.5 1308.5,-.5"/>
<text text-anchor="middle" x="1339.5" y="-7.5" font-family="Helvetica,sans-Serif" font-size="10.00" fill="#000000">memmove</text>
</a>
</g>
</g>
<!-- Node182&#45;&gt;Node183 -->
<g id="edge21" class="edge">
<title>Node182&#45;&gt;Node183</title>
<path fill="none" stroke="#191970" d="M1194.3331,-41.9788C1222.2789,-35.8226 1266.0317,-26.1843 1298.2032,-19.0973"/>
<polygon fill="#191970" stroke="#191970" points="1299.194,-22.463 1308.2069,-16.8936 1297.688,-15.6269 1299.194,-22.463"/>
</g>
<!-- Node184 -->
<g id="node23" class="node">
<title>Node184</title>
<g id="a_node23"><a xlink:href="glibc__compat_8cpp.html#a424ac71631da5ada2976630ff67051d1" target="_top" xlink:title="__chk_fail">
<polygon fill="#ffffff" stroke="#000000" points="1309,-38.5 1309,-57.5 1370,-57.5 1370,-38.5 1309,-38.5"/>
<text text-anchor="middle" x="1339.5" y="-45.5" font-family="Helvetica,sans-Serif" font-size="10.00" fill="#000000">__chk_fail</text>
</a>
</g>
</g>
<!-- Node182&#45;&gt;Node184 -->
<g id="edge22" class="edge">
<title>Node182&#45;&gt;Node184</title>
<path fill="none" stroke="#191970" d="M1194.3331,-48C1222.4504,-48 1266.5691,-48 1298.794,-48"/>
<polygon fill="#191970" stroke="#191970" points="1298.8034,-51.5001 1308.8034,-48 1298.8033,-44.5001 1298.8034,-51.5001"/>
</g>
<!-- Node185&#45;&gt;Node180 -->
<g id="edge28" class="edge">
<title>Node185&#45;&gt;Node180</title>
<path fill="none" stroke="#191970" d="M685.7042,-189.4395C709.4844,-183.5447 737.1083,-176.6971 760.1268,-170.9911"/>
<polygon fill="#191970" stroke="#191970" points="761.1518,-174.343 770.0159,-168.5397 759.4675,-167.5487 761.1518,-174.343"/>
</g>
<!-- Node186 -->
<g id="node25" class="node">
<title>Node186</title>
<g id="a_node25"><a xlink:href="class_wallet_model.html#a04604615253aeaae1253b1412a70a1f7" target="_top" xlink:title="WalletModel::validateAddress">
<polygon fill="#ffffff" stroke="#000000" points="911,-190.5 911,-209.5 1057,-209.5 1057,-190.5 911,-190.5"/>
<text text-anchor="middle" x="984" y="-197.5" font-family="Helvetica,sans-Serif" font-size="10.00" fill="#000000">WalletModel::validateAddress</text>
</a>
</g>
</g>
<!-- Node185&#45;&gt;Node186 -->
<g id="edge26" class="edge">
<title>Node185&#45;&gt;Node186</title>
<path fill="none" stroke="#191970" d="M685.7689,-202.5345C743.239,-202.0461 834.281,-201.2724 900.6694,-200.7082"/>
<polygon fill="#191970" stroke="#191970" points="900.7209,-204.208 910.6908,-200.623 900.6613,-197.2082 900.7209,-204.208"/>
</g>
<!-- Node187 -->
<g id="node26" class="node">
<title>Node187</title>
<g id="a_node26"><a xlink:href="group___actions.html#gac452f46eafeb2b4adfe86f7208048032" target="_top" xlink:title="CWallet::GetKeyFromPool">
<polygon fill="#ffffff" stroke="#000000" points="742,-228.5 742,-247.5 875,-247.5 875,-228.5 742,-228.5"/>
<text text-anchor="middle" x="808.5" y="-235.5" font-family="Helvetica,sans-Serif" font-size="10.00" fill="#000000">CWallet::GetKeyFromPool</text>
</a>
</g>
</g>
<!-- Node185&#45;&gt;Node187 -->
<g id="edge29" class="edge">
<title>Node185&#45;&gt;Node187</title>
<path fill="none" stroke="#191970" d="M685.7042,-213.7867C706.1882,-217.8258 729.5242,-222.4273 750.312,-226.5263"/>
<polygon fill="#191970" stroke="#191970" points="749.8003,-229.9927 760.2885,-228.4935 751.1546,-223.125 749.8003,-229.9927"/>
</g>
<!-- Node186&#45;&gt;Node174 -->
<g id="edge27" class="edge">
<title>Node186&#45;&gt;Node174</title>
<path fill="none" stroke="#191970" d="M1057.1154,-200C1069.8414,-200 1083.0624,-200 1095.7378,-200"/>
<polygon fill="#191970" stroke="#191970" points="1095.7665,-203.5001 1105.7665,-200 1095.7664,-196.5001 1095.7665,-203.5001"/>
</g>
<!-- Node189 -->
<g id="node28" class="node">
<title>Node189</title>
<g id="a_node28"><a xlink:href="class_receive_coins_dialog.html#a19eca7743c5326eee821bb8c0af234bb" target="_top" xlink:title="ReceiveCoinsDialog\l::updateDisplayUnit">
<polygon fill="#ffffff" stroke="#000000" points="392,-330 392,-360 498,-360 498,-330 392,-330"/>
<text text-anchor="start" x="400" y="-348" font-family="Helvetica,sans-Serif" font-size="10.00" fill="#000000">ReceiveCoinsDialog</text>
<text text-anchor="middle" x="445" y="-337" font-family="Helvetica,sans-Serif" font-size="10.00" fill="#000000">::updateDisplayUnit</text>
</a>
</g>
</g>
<!-- Node188&#45;&gt;Node189 -->
<g id="edge31" class="edge">
<title>Node188&#45;&gt;Node189</title>
<path fill="none" stroke="#191970" d="M305.249,-345C328.9807,-345 357.1125,-345 381.8932,-345"/>
<polygon fill="#191970" stroke="#191970" points="381.9248,-348.5001 391.9248,-345 381.9247,-341.5001 381.9248,-348.5001"/>
</g>
<!-- Node189&#45;&gt;Node163 -->
<g id="edge32" class="edge">
<title>Node189&#45;&gt;Node163</title>
<path fill="none" stroke="#191970" d="M498.3001,-356.749C523.2084,-362.2395 552.7941,-368.7611 577.7021,-374.2515"/>
<polygon fill="#191970" stroke="#191970" points="577.1876,-377.7221 587.7066,-376.4568 578.6945,-370.8862 577.1876,-377.7221"/>
</g>
<!-- Node190 -->
<g id="node29" class="node">
<title>Node190</title>
<g id="a_node29"><a xlink:href="class_options_model.html#a00a1f0842f764f64086e7d5d42bbce63" target="_top" xlink:title="OptionsModel::getDisplayUnit">
<polygon fill="#ffffff" stroke="#000000" points="557.5,-335.5 557.5,-354.5 704.5,-354.5 704.5,-335.5 557.5,-335.5"/>
<text text-anchor="middle" x="631" y="-342.5" font-family="Helvetica,sans-Serif" font-size="10.00" fill="#000000">OptionsModel::getDisplayUnit</text>
</a>
</g>
</g>
<!-- Node189&#45;&gt;Node190 -->
<g id="edge33" class="edge">
<title>Node189&#45;&gt;Node190</title>
<path fill="none" stroke="#191970" d="M498.3001,-345C513.5017,-345 530.4455,-345 547.0049,-345"/>
<polygon fill="#191970" stroke="#191970" points="547.2469,-348.5001 557.2468,-345 547.2468,-341.5001 547.2469,-348.5001"/>
</g>
</g>
</svg>
