<?xml version="1.0" encoding="UTF-8" standalone="no"?>
<!DOCTYPE svg PUBLIC "-//W3C//DTD SVG 1.1//EN"
 "http://www.w3.org/Graphics/SVG/1.1/DTD/svg11.dtd">
<!-- Generated by graphviz version 2.40.1 (20161225.0304)
 -->
<!-- Title: ReissueAssetDialog::coinControlUpdateLabels Pages: 1 -->
<svg width="1494pt" height="132pt"
 viewBox="0.00 0.00 1494.00 132.00" xmlns="http://www.w3.org/2000/svg" xmlns:xlink="http://www.w3.org/1999/xlink">
<g id="graph0" class="graph" transform="scale(1 1) rotate(0) translate(4 128)">
<title>ReissueAssetDialog::coinControlUpdateLabels</title>
<polygon fill="#ffffff" stroke="transparent" points="-4,4 -4,-128 1490,-128 1490,4 -4,4"/>
<!-- Node635 -->
<g id="node1" class="node">
<title>Node635</title>
<polygon fill="#bfbfbf" stroke="#000000" points="0,-49.5 0,-79.5 132,-79.5 132,-49.5 0,-49.5"/>
<text text-anchor="start" x="8" y="-67.5" font-family="Helvetica,sans-Serif" font-size="10.00" fill="#000000">ReissueAssetDialog</text>
<text text-anchor="middle" x="66" y="-56.5" font-family="Helvetica,sans-Serif" font-size="10.00" fill="#000000">::coinControlUpdateLabels</text>
</g>
<!-- Node636 -->
<g id="node2" class="node">
<title>Node636</title>
<g id="a_node2"><a xlink:href="class_reissue_asset_dialog.html#aedb26df763c8cda11fea5a0c07ca70a0" target="_top" xlink:title="ReissueAssetDialog\l::setModel">
<polygon fill="#ffffff" stroke="#000000" points="351,-71.5 351,-101.5 457,-101.5 457,-71.5 351,-71.5"/>
<text text-anchor="start" x="359" y="-89.5" font-family="Helvetica,sans-Serif" font-size="10.00" fill="#000000">ReissueAssetDialog</text>
<text text-anchor="middle" x="404" y="-78.5" font-family="Helvetica,sans-Serif" font-size="10.00" fill="#000000">::setModel</text>
</a>
</g>
</g>
<!-- Node635&#45;&gt;Node636 -->
<g id="edge1" class="edge">
<title>Node635&#45;&gt;Node636</title>
<path fill="none" stroke="#191970" d="M126.9891,-81.9743C140.3897,-85.1029 154.5855,-87.88 168,-89.5 230.4438,-97.0408 302.8532,-94.46 350.8268,-91.1844"/>
<polygon fill="#191970" stroke="#191970" points="127.4665,-78.4885 116.9227,-79.5267 125.8127,-85.2903 127.4665,-78.4885"/>
</g>
<!-- Node644 -->
<g id="node10" class="node">
<title>Node644</title>
<g id="a_node10"><a xlink:href="class_reissue_asset_dialog.html#a21293778ca6b28a5860897fa3df4aa50" target="_top" xlink:title="ReissueAssetDialog\l::coinControlFeatureChanged">
<polygon fill="#ffffff" stroke="#000000" points="168,-49.5 168,-79.5 312,-79.5 312,-49.5 168,-49.5"/>
<text text-anchor="start" x="176" y="-67.5" font-family="Helvetica,sans-Serif" font-size="10.00" fill="#000000">ReissueAssetDialog</text>
<text text-anchor="middle" x="240" y="-56.5" font-family="Helvetica,sans-Serif" font-size="10.00" fill="#000000">::coinControlFeatureChanged</text>
</a>
</g>
</g>
<!-- Node635&#45;&gt;Node644 -->
<g id="edge10" class="edge">
<title>Node635&#45;&gt;Node644</title>
<path fill="none" stroke="#191970" d="M142.4653,-64.5C150.889,-64.5 159.4464,-64.5 167.8153,-64.5"/>
<polygon fill="#191970" stroke="#191970" points="142.2783,-61.0001 132.2783,-64.5 142.2783,-68.0001 142.2783,-61.0001"/>
</g>
<!-- Node645 -->
<g id="node11" class="node">
<title>Node645</title>
<g id="a_node11"><a xlink:href="class_reissue_asset_dialog.html#aa6ab6d2f84e4c3c305da572e856a1462" target="_top" xlink:title="ReissueAssetDialog\l::coinControlButtonClicked">
<polygon fill="#ffffff" stroke="#000000" points="173,-.5 173,-30.5 307,-30.5 307,-.5 173,-.5"/>
<text text-anchor="start" x="181" y="-18.5" font-family="Helvetica,sans-Serif" font-size="10.00" fill="#000000">ReissueAssetDialog</text>
<text text-anchor="middle" x="240" y="-7.5" font-family="Helvetica,sans-Serif" font-size="10.00" fill="#000000">::coinControlButtonClicked</text>
</a>
</g>
</g>
<!-- Node635&#45;&gt;Node645 -->
<g id="edge12" class="edge">
<title>Node635&#45;&gt;Node645</title>
<path fill="none" stroke="#191970" d="M129.2836,-46.6788C148.0704,-41.3882 168.4546,-35.6478 186.5515,-30.5516"/>
<polygon fill="#191970" stroke="#191970" points="128.3024,-43.3189 119.6255,-49.3986 130.1999,-50.0568 128.3024,-43.3189"/>
</g>
<!-- Node637 -->
<g id="node3" class="node">
<title>Node637</title>
<g id="a_node3"><a xlink:href="class_wallet_view.html#a0a37ff693a4f9c1e5ddc23f9cd3913be" target="_top" xlink:title="Set the wallet model. ">
<polygon fill="#ffffff" stroke="#000000" points="496,-77 496,-96 636,-96 636,-77 496,-77"/>
<text text-anchor="middle" x="566" y="-84" font-family="Helvetica,sans-Serif" font-size="10.00" fill="#000000">WalletView::setWalletModel</text>
</a>
</g>
</g>
<!-- Node636&#45;&gt;Node637 -->
<g id="edge2" class="edge">
<title>Node636&#45;&gt;Node637</title>
<path fill="none" stroke="#191970" d="M467.0825,-86.5C476.4789,-86.5 486.214,-86.5 495.7469,-86.5"/>
<polygon fill="#191970" stroke="#191970" points="467.0449,-83.0001 457.0449,-86.5 467.0448,-90.0001 467.0449,-83.0001"/>
</g>
<!-- Node638 -->
<g id="node4" class="node">
<title>Node638</title>
<g id="a_node4"><a xlink:href="class_wallet_frame.html#aa199c3f27654199d84c365cf86167d86" target="_top" xlink:title="WalletFrame::addWallet">
<polygon fill="#ffffff" stroke="#000000" points="672,-77 672,-96 794,-96 794,-77 672,-77"/>
<text text-anchor="middle" x="733" y="-84" font-family="Helvetica,sans-Serif" font-size="10.00" fill="#000000">WalletFrame::addWallet</text>
</a>
</g>
</g>
<!-- Node637&#45;&gt;Node638 -->
<g id="edge3" class="edge">
<title>Node637&#45;&gt;Node638</title>
<path fill="none" stroke="#191970" d="M646.6091,-86.5C655.064,-86.5 663.5584,-86.5 671.7451,-86.5"/>
<polygon fill="#191970" stroke="#191970" points="646.3391,-83.0001 636.339,-86.5 646.339,-90.0001 646.3391,-83.0001"/>
</g>
<!-- Node639 -->
<g id="node5" class="node">
<title>Node639</title>
<g id="a_node5"><a xlink:href="class_raven_g_u_i.html#a174a3e75c334c5930d3261a2955c3725" target="_top" xlink:title="Set the client model. ">
<polygon fill="#ffffff" stroke="#000000" points="830,-77 830,-96 964,-96 964,-77 830,-77"/>
<text text-anchor="middle" x="897" y="-84" font-family="Helvetica,sans-Serif" font-size="10.00" fill="#000000">RavenGUI::setClientModel</text>
</a>
</g>
</g>
<!-- Node638&#45;&gt;Node639 -->
<g id="edge4" class="edge">
<title>Node638&#45;&gt;Node639</title>
<path fill="none" stroke="#191970" d="M804.303,-86.5C812.7776,-86.5 821.4074,-86.5 829.8217,-86.5"/>
<polygon fill="#191970" stroke="#191970" points="804.0676,-83.0001 794.0675,-86.5 804.0675,-90.0001 804.0676,-83.0001"/>
</g>
<!-- Node640 -->
<g id="node6" class="node">
<title>Node640</title>
<g id="a_node6"><a xlink:href="class_raven_application.html#a60123f611cc210870fa67974cb2c804c" target="_top" xlink:title="Request core shutdown. ">
<polygon fill="#ffffff" stroke="#000000" points="1355,-93.5 1355,-123.5 1486,-123.5 1486,-93.5 1355,-93.5"/>
<text text-anchor="start" x="1363" y="-111.5" font-family="Helvetica,sans-Serif" font-size="10.00" fill="#000000">RavenApplication::request</text>
<text text-anchor="middle" x="1420.5" y="-100.5" font-family="Helvetica,sans-Serif" font-size="10.00" fill="#000000">Shutdown</text>
</a>
</g>
</g>
<!-- Node639&#45;&gt;Node640 -->
<g id="edge5" class="edge">
<title>Node639&#45;&gt;Node640</title>
<path fill="none" stroke="#191970" d="M974.1333,-89.7415C1077.2203,-94.0737 1258.1346,-101.6766 1354.9629,-105.7458"/>
<polygon fill="#191970" stroke="#191970" points="974.238,-86.2429 964.0999,-89.3199 973.944,-93.2367 974.238,-86.2429"/>
</g>
<!-- Node641 -->
<g id="node7" class="node">
<title>Node641</title>
<g id="a_node7"><a xlink:href="class_raven_application.html#a1a3dcf33ba44507984b2a04e7ebf1542" target="_top" xlink:title="RavenApplication::initialize\lResult">
<polygon fill="#ffffff" stroke="#000000" points="1000,-49.5 1000,-79.5 1134,-79.5 1134,-49.5 1000,-49.5"/>
<text text-anchor="start" x="1008" y="-67.5" font-family="Helvetica,sans-Serif" font-size="10.00" fill="#000000">RavenApplication::initialize</text>
<text text-anchor="middle" x="1067" y="-56.5" font-family="Helvetica,sans-Serif" font-size="10.00" fill="#000000">Result</text>
</a>
</g>
</g>
<!-- Node639&#45;&gt;Node641 -->
<g id="edge6" class="edge">
<title>Node639&#45;&gt;Node641</title>
<path fill="none" stroke="#191970" d="M974.146,-76.5164C982.6879,-75.411 991.3366,-74.2917 999.7428,-73.2039"/>
<polygon fill="#191970" stroke="#191970" points="973.6566,-73.0505 964.1885,-77.805 974.555,-79.9926 973.6566,-73.0505"/>
</g>
<!-- Node642 -->
<g id="node8" class="node">
<title>Node642</title>
<g id="a_node8"><a xlink:href="class_raven_application.html#aecfdce3a245b959def5dd35e5cfb192e" target="_top" xlink:title="RavenApplication::startThread">
<polygon fill="#ffffff" stroke="#000000" points="1170,-55 1170,-74 1319,-74 1319,-55 1170,-55"/>
<text text-anchor="middle" x="1244.5" y="-62" font-family="Helvetica,sans-Serif" font-size="10.00" fill="#000000">RavenApplication::startThread</text>
</a>
</g>
</g>
<!-- Node641&#45;&gt;Node642 -->
<g id="edge7" class="edge">
<title>Node641&#45;&gt;Node642</title>
<path fill="none" stroke="#191970" d="M1144.3486,-64.5C1152.821,-64.5 1161.4344,-64.5 1169.873,-64.5"/>
<polygon fill="#191970" stroke="#191970" points="1144.1052,-61.0001 1134.1051,-64.5 1144.1051,-68.0001 1144.1052,-61.0001"/>
</g>
<!-- Node642&#45;&gt;Node640 -->
<g id="edge9" class="edge">
<title>Node642&#45;&gt;Node640</title>
<path fill="none" stroke="#191970" d="M1292.6046,-76.5261C1313.4811,-81.7453 1338.1576,-87.9144 1360.2385,-93.4346"/>
<polygon fill="#191970" stroke="#191970" points="1293.2397,-73.0773 1282.6894,-74.0473 1291.5419,-79.8683 1293.2397,-73.0773"/>
</g>
<!-- Node643 -->
<g id="node9" class="node">
<title>Node643</title>
<g id="a_node9"><a xlink:href="class_raven_application.html#a63a2032fef875fb81f26c212f69d000d" target="_top" xlink:title="Request core initialization. ">
<polygon fill="#ffffff" stroke="#000000" points="1355,-44.5 1355,-74.5 1486,-74.5 1486,-44.5 1355,-44.5"/>
<text text-anchor="start" x="1363" y="-62.5" font-family="Helvetica,sans-Serif" font-size="10.00" fill="#000000">RavenApplication::request</text>
<text text-anchor="middle" x="1420.5" y="-51.5" font-family="Helvetica,sans-Serif" font-size="10.00" fill="#000000">Initialize</text>
</a>
</g>
</g>
<!-- Node642&#45;&gt;Node643 -->
<g id="edge8" class="edge">
<title>Node642&#45;&gt;Node643</title>
<path fill="none" stroke="#191970" d="M1329.2384,-62.0927C1337.8743,-61.8473 1346.5522,-61.6008 1354.9387,-61.3625"/>
<polygon fill="#191970" stroke="#191970" points="1329.0364,-58.5969 1319.1398,-62.3795 1329.2352,-65.5941 1329.0364,-58.5969"/>
</g>
<!-- Node644&#45;&gt;Node636 -->
<g id="edge11" class="edge">
<title>Node644&#45;&gt;Node636</title>
<path fill="none" stroke="#191970" d="M322.4067,-75.5546C332.0181,-76.8439 341.6219,-78.1322 350.6902,-79.3487"/>
<polygon fill="#191970" stroke="#191970" points="322.7868,-72.0743 312.4102,-74.2136 321.856,-79.0121 322.7868,-72.0743"/>
</g>
<!-- Node646 -->
<g id="node12" class="node">
<title>Node646</title>
<g id="a_node12"><a xlink:href="class_reissue_asset_dialog.html#aee7cca850e09ac4cbedb7175feea7038" target="_top" xlink:title="ReissueAssetDialog\l::ReissueAssetDialog">
<polygon fill="#ffffff" stroke="#000000" points="348,-.5 348,-30.5 460,-30.5 460,-.5 348,-.5"/>
<text text-anchor="start" x="356" y="-18.5" font-family="Helvetica,sans-Serif" font-size="10.00" fill="#000000">ReissueAssetDialog</text>
<text text-anchor="middle" x="404" y="-7.5" font-family="Helvetica,sans-Serif" font-size="10.00" fill="#000000">::ReissueAssetDialog</text>
</a>
</g>
</g>
<!-- Node645&#45;&gt;Node646 -->
<g id="edge13" class="edge">
<title>Node645&#45;&gt;Node646</title>
<path fill="none" stroke="#191970" d="M317.4093,-15.5C327.6966,-15.5 338.0806,-15.5 347.9109,-15.5"/>
<polygon fill="#191970" stroke="#191970" points="317.1783,-12.0001 307.1783,-15.5 317.1782,-19.0001 317.1783,-12.0001"/>
</g>
</g>
</svg>
