<?xml version="1.0" encoding="UTF-8" standalone="no"?>
<!DOCTYPE svg PUBLIC "-//W3C//DTD SVG 1.1//EN"
 "http://www.w3.org/Graphics/SVG/1.1/DTD/svg11.dtd">
<!-- Generated by graphviz version 2.40.1 (20161225.0304)
 -->
<!-- Title: RavenGUI::toggleNetworkActive Pages: 1 -->
<svg width="356pt" height="66pt"
 viewBox="0.00 0.00 356.00 66.00" xmlns="http://www.w3.org/2000/svg" xmlns:xlink="http://www.w3.org/1999/xlink">
<g id="graph0" class="graph" transform="scale(1 1) rotate(0) translate(4 62)">
<title>RavenGUI::toggleNetworkActive</title>
<polygon fill="#ffffff" stroke="transparent" points="-4,4 -4,-62 352,-62 352,4 -4,4"/>
<!-- Node912 -->
<g id="node1" class="node">
<title>Node912</title>
<polygon fill="#bfbfbf" stroke="#000000" points="0,-19.5 0,-38.5 160,-38.5 160,-19.5 0,-19.5"/>
<text text-anchor="middle" x="80" y="-26.5" font-family="Helvetica,sans-Serif" font-size="10.00" fill="#000000">RavenGUI::toggleNetworkActive</text>
</g>
<!-- Node913 -->
<g id="node2" class="node">
<title>Node913</title>
<g id="a_node2"><a xlink:href="class_client_model.html#a0cc703b3856000cdfb42c73cc98110ad" target="_top" xlink:title="Toggle network activity state in core. ">
<polygon fill="#ffffff" stroke="#000000" points="196,-38.5 196,-57.5 348,-57.5 348,-38.5 196,-38.5"/>
<text text-anchor="middle" x="272" y="-45.5" font-family="Helvetica,sans-Serif" font-size="10.00" fill="#000000">ClientModel::setNetworkActive</text>
</a>
</g>
</g>
<!-- Node912&#45;&gt;Node913 -->
<g id="edge1" class="edge">
<title>Node912&#45;&gt;Node913</title>
<path fill="none" stroke="#191970" d="M160.035,-36.9201C168.54,-37.7618 177.2169,-38.6204 185.7887,-39.4687"/>
<polygon fill="#191970" stroke="#191970" points="185.4902,-42.9561 195.7863,-40.458 186.1796,-35.9902 185.4902,-42.9561"/>
</g>
<!-- Node914 -->
<g id="node3" class="node">
<title>Node914</title>
<g id="a_node3"><a xlink:href="class_client_model.html#aa8f8839642703f13b476d09b7a616bd7" target="_top" xlink:title="Return true if network activity in core is enabled. ">
<polygon fill="#ffffff" stroke="#000000" points="196,-.5 196,-19.5 348,-19.5 348,-.5 196,-.5"/>
<text text-anchor="middle" x="272" y="-7.5" font-family="Helvetica,sans-Serif" font-size="10.00" fill="#000000">ClientModel::getNetworkActive</text>
</a>
</g>
</g>
<!-- Node912&#45;&gt;Node914 -->
<g id="edge2" class="edge">
<title>Node912&#45;&gt;Node914</title>
<path fill="none" stroke="#191970" d="M160.035,-21.0799C168.54,-20.2382 177.2169,-19.3796 185.7887,-18.5313"/>
<polygon fill="#191970" stroke="#191970" points="186.1796,-22.0098 195.7863,-17.542 185.4902,-15.0439 186.1796,-22.0098"/>
</g>
</g>
</svg>
