<?xml version="1.0" encoding="UTF-8" standalone="no"?>
<!DOCTYPE svg PUBLIC "-//W3C//DTD SVG 1.1//EN"
 "http://www.w3.org/Graphics/SVG/1.1/DTD/svg11.dtd">
<!-- Generated by graphviz version 2.40.1 (20161225.0304)
 -->
<!-- Title: HelpMessageDialog::HelpMessageDialog Pages: 1 -->
<svg width="744pt" height="332pt"
 viewBox="0.00 0.00 744.00 332.00" xmlns="http://www.w3.org/2000/svg" xmlns:xlink="http://www.w3.org/1999/xlink">
<g id="graph0" class="graph" transform="scale(1 1) rotate(0) translate(4 328)">
<title>HelpMessageDialog::HelpMessageDialog</title>
<polygon fill="#ffffff" stroke="transparent" points="-4,4 -4,-328 740,-328 740,4 -4,4"/>
<!-- Node0 -->
<g id="node1" class="node">
<title>Node0</title>
<polygon fill="#bfbfbf" stroke="#000000" points="0,-90 0,-120 110,-120 110,-90 0,-90"/>
<text text-anchor="start" x="8" y="-108" font-family="Helvetica,sans-Serif" font-size="10.00" fill="#000000">HelpMessageDialog::</text>
<text text-anchor="middle" x="55" y="-97" font-family="Helvetica,sans-Serif" font-size="10.00" fill="#000000">HelpMessageDialog</text>
</g>
<!-- Node1 -->
<g id="node2" class="node">
<title>Node1</title>
<g id="a_node2"><a xlink:href="clientversion_8cpp.html#ac3e3098552063f228d9deac38a8b9848" target="_top" xlink:title="FormatFullVersion">
<polygon fill="#ffffff" stroke="#000000" points="146,-285.5 146,-304.5 242,-304.5 242,-285.5 146,-285.5"/>
<text text-anchor="middle" x="194" y="-292.5" font-family="Helvetica,sans-Serif" font-size="10.00" fill="#000000">FormatFullVersion</text>
</a>
</g>
</g>
<!-- Node0&#45;&gt;Node1 -->
<g id="edge1" class="edge">
<title>Node0&#45;&gt;Node1</title>
<path fill="none" stroke="#191970" d="M61.9153,-120.4279C75.3365,-149.3078 107.048,-212.6157 146,-257 153.1806,-265.182 162.2988,-272.8996 170.6547,-279.2147"/>
<polygon fill="#191970" stroke="#191970" points="168.8236,-282.2103 178.9735,-285.2487 172.9337,-276.544 168.8236,-282.2103"/>
</g>
<!-- Node3 -->
<g id="node4" class="node">
<title>Node3</title>
<g id="a_node4"><a xlink:href="init_8cpp.html#ac9e2081343d328ca68b7c4c4793442d2" target="_top" xlink:title="Returns licensing information (for &#45;version) ">
<polygon fill="#ffffff" stroke="#000000" points="160.5,-228.5 160.5,-247.5 227.5,-247.5 227.5,-228.5 160.5,-228.5"/>
<text text-anchor="middle" x="194" y="-235.5" font-family="Helvetica,sans-Serif" font-size="10.00" fill="#000000">LicenseInfo</text>
</a>
</g>
</g>
<!-- Node0&#45;&gt;Node3 -->
<g id="edge3" class="edge">
<title>Node0&#45;&gt;Node3</title>
<path fill="none" stroke="#191970" d="M70.9451,-120.2568C97.166,-145.3459 149.1926,-195.1267 176.4352,-221.1934"/>
<polygon fill="#191970" stroke="#191970" points="174.0846,-223.7884 183.7296,-228.1729 178.924,-218.7306 174.0846,-223.7884"/>
</g>
<!-- Node8 -->
<g id="node9" class="node">
<title>Node8</title>
<g id="a_node9"><a xlink:href="init_8cpp.html#a514083d1b88bf8cf314f27ee3dc966c1" target="_top" xlink:title="Help for options shared between UI and daemon (for &#45;help) ">
<polygon fill="#ffffff" stroke="#000000" points="155.5,-114.5 155.5,-133.5 232.5,-133.5 232.5,-114.5 155.5,-114.5"/>
<text text-anchor="middle" x="194" y="-121.5" font-family="Helvetica,sans-Serif" font-size="10.00" fill="#000000">HelpMessage</text>
</a>
</g>
</g>
<!-- Node0&#45;&gt;Node8 -->
<g id="edge9" class="edge">
<title>Node0&#45;&gt;Node8</title>
<path fill="none" stroke="#191970" d="M110.3359,-112.5639C121.8128,-114.1327 133.8278,-115.775 145.0563,-117.3098"/>
<polygon fill="#191970" stroke="#191970" points="144.727,-120.7973 155.1089,-118.684 145.6751,-113.8618 144.727,-120.7973"/>
</g>
<!-- Node12 -->
<g id="node13" class="node">
<title>Node12</title>
<g id="a_node13"><a xlink:href="class_args_manager.html#af81c6e2a9dcd6b12557a2387fd67b2a6" target="_top" xlink:title="Return boolean argument or default value. ">
<polygon fill="#ffffff" stroke="#000000" points="278,-76.5 278,-95.5 409,-95.5 409,-76.5 278,-76.5"/>
<text text-anchor="middle" x="343.5" y="-83.5" font-family="Helvetica,sans-Serif" font-size="10.00" fill="#000000">ArgsManager::GetBoolArg</text>
</a>
</g>
</g>
<!-- Node0&#45;&gt;Node12 -->
<g id="edge17" class="edge">
<title>Node0&#45;&gt;Node12</title>
<path fill="none" stroke="#191970" d="M110.2843,-101.3591C154.9806,-98.4155 218.373,-94.2406 267.7865,-90.9863"/>
<polygon fill="#191970" stroke="#191970" points="268.0412,-94.4772 277.7896,-90.3275 267.5812,-87.4924 268.0412,-94.4772"/>
</g>
<!-- Node13 -->
<g id="node14" class="node">
<title>Node13</title>
<g id="a_node14"><a xlink:href="util_8cpp.html#aae6ceac1cd94a0e700783c733e60e970" target="_top" xlink:title="Format a string to be used as group of options in help messages. ">
<polygon fill="#ffffff" stroke="#000000" points="292,-38.5 292,-57.5 395,-57.5 395,-38.5 292,-38.5"/>
<text text-anchor="middle" x="343.5" y="-45.5" font-family="Helvetica,sans-Serif" font-size="10.00" fill="#000000">HelpMessageGroup</text>
</a>
</g>
</g>
<!-- Node0&#45;&gt;Node13 -->
<g id="edge18" class="edge">
<title>Node0&#45;&gt;Node13</title>
<path fill="none" stroke="#191970" d="M110.2843,-94.0773C160.4425,-84.1673 234.1453,-69.6056 285.2158,-59.5154"/>
<polygon fill="#191970" stroke="#191970" points="285.9825,-62.9317 295.1144,-57.5597 284.6256,-56.0644 285.9825,-62.9317"/>
</g>
<!-- Node14 -->
<g id="node15" class="node">
<title>Node14</title>
<g id="a_node15"><a xlink:href="util_8cpp.html#aec85bcd561766ad0362a8fc5cd4a8542" target="_top" xlink:title="Format a string to be used as option description in help messages. ">
<polygon fill="#ffffff" stroke="#000000" points="297.5,-.5 297.5,-19.5 389.5,-19.5 389.5,-.5 297.5,-.5"/>
<text text-anchor="middle" x="343.5" y="-7.5" font-family="Helvetica,sans-Serif" font-size="10.00" fill="#000000">HelpMessageOpt</text>
</a>
</g>
</g>
<!-- Node0&#45;&gt;Node14 -->
<g id="edge19" class="edge">
<title>Node0&#45;&gt;Node14</title>
<path fill="none" stroke="#191970" d="M85.2577,-89.9309C102.7331,-81.5933 125.2908,-71.4447 146,-64 194.415,-46.5954 251.2146,-31.6101 291.4425,-21.8719"/>
<polygon fill="#191970" stroke="#191970" points="292.3884,-25.2444 301.2978,-19.5108 290.7575,-18.437 292.3884,-25.2444"/>
</g>
<!-- Node2 -->
<g id="node3" class="node">
<title>Node2</title>
<g id="a_node3"><a xlink:href="clientversion_8cpp.html#aff087070aeaa72e85b2d1a6192af8af5" target="_top" xlink:title="CLIENT_BUILD">
<polygon fill="#ffffff" stroke="#000000" points="299.5,-304.5 299.5,-323.5 387.5,-323.5 387.5,-304.5 299.5,-304.5"/>
<text text-anchor="middle" x="343.5" y="-311.5" font-family="Helvetica,sans-Serif" font-size="10.00" fill="#000000">CLIENT_BUILD</text>
</a>
</g>
</g>
<!-- Node1&#45;&gt;Node2 -->
<g id="edge2" class="edge">
<title>Node1&#45;&gt;Node2</title>
<path fill="none" stroke="#191970" d="M242.1257,-301.1163C257.1801,-303.0296 273.8919,-305.1535 289.3328,-307.1159"/>
<polygon fill="#191970" stroke="#191970" points="288.9046,-310.5895 299.2661,-308.3783 289.7872,-303.6454 288.9046,-310.5895"/>
</g>
<!-- Node4 -->
<g id="node5" class="node">
<title>Node4</title>
<g id="a_node5"><a xlink:href="util_8cpp.html#a37261527315b7039a9b6d9916d1a6003" target="_top" xlink:title="CopyrightHolders">
<polygon fill="#ffffff" stroke="#000000" points="297.5,-266.5 297.5,-285.5 389.5,-285.5 389.5,-266.5 297.5,-266.5"/>
<text text-anchor="middle" x="343.5" y="-273.5" font-family="Helvetica,sans-Serif" font-size="10.00" fill="#000000">CopyrightHolders</text>
</a>
</g>
</g>
<!-- Node3&#45;&gt;Node4 -->
<g id="edge4" class="edge">
<title>Node3&#45;&gt;Node4</title>
<path fill="none" stroke="#191970" d="M227.5507,-246.5279C247.7823,-251.6704 273.8696,-258.3013 296.1746,-263.9708"/>
<polygon fill="#191970" stroke="#191970" points="295.5681,-267.4279 306.1221,-266.4993 297.2925,-260.6436 295.5681,-267.4279"/>
</g>
<!-- Node5 -->
<g id="node6" class="node">
<title>Node5</title>
<g id="a_node6"><a xlink:href="util_8h.html#aad133bb6103b53cebf03fd01e2f11ba1" target="_top" xlink:title="Translation function: Call Translate signal on UI interface, which returns a boost::optional result...">
<polygon fill="#ffffff" stroke="#000000" points="509.5,-228.5 509.5,-247.5 538.5,-247.5 538.5,-228.5 509.5,-228.5"/>
<text text-anchor="middle" x="524" y="-235.5" font-family="Helvetica,sans-Serif" font-size="10.00" fill="#000000">_</text>
</a>
</g>
</g>
<!-- Node3&#45;&gt;Node5 -->
<g id="edge8" class="edge">
<title>Node3&#45;&gt;Node5</title>
<path fill="none" stroke="#191970" d="M227.765,-238C294.2783,-238 440.8587,-238 499.2694,-238"/>
<polygon fill="#191970" stroke="#191970" points="499.4192,-241.5001 509.4192,-238 499.4192,-234.5001 499.4192,-241.5001"/>
</g>
<!-- Node4&#45;&gt;Node5 -->
<g id="edge5" class="edge">
<title>Node4&#45;&gt;Node5</title>
<path fill="none" stroke="#191970" d="M389.0478,-266.411C424.0529,-259.0415 471.0616,-249.1449 499.3557,-243.1883"/>
<polygon fill="#191970" stroke="#191970" points="500.1549,-246.5968 509.2193,-241.1117 498.7128,-239.747 500.1549,-246.5968"/>
</g>
<!-- Node6 -->
<g id="node7" class="node">
<title>Node6</title>
<g id="a_node7"><a xlink:href="util_8h.html#a9ed616020f4ef9b1a261b222bbec78e2" target="_top" xlink:title="SetupEnvironment">
<polygon fill="#ffffff" stroke="#000000" points="639,-247.5 639,-266.5 736,-266.5 736,-247.5 639,-247.5"/>
<text text-anchor="middle" x="687.5" y="-254.5" font-family="Helvetica,sans-Serif" font-size="10.00" fill="#000000">SetupEnvironment</text>
</a>
</g>
</g>
<!-- Node5&#45;&gt;Node6 -->
<g id="edge6" class="edge">
<title>Node5&#45;&gt;Node6</title>
<path fill="none" stroke="#191970" d="M538.5095,-239.6861C558.6081,-242.0217 596.1047,-246.3791 628.4513,-250.1381"/>
<polygon fill="#191970" stroke="#191970" points="628.4067,-253.6564 638.7439,-251.3342 629.2148,-246.7031 628.4067,-253.6564"/>
</g>
<!-- Node7 -->
<g id="node8" class="node">
<title>Node7</title>
<g id="a_node8"><a xlink:href="util_8h.html#a66791919e137c59061e988d2d87ee9a1" target="_top" xlink:title="SetupNetworking">
<polygon fill="#ffffff" stroke="#000000" points="641.5,-209.5 641.5,-228.5 733.5,-228.5 733.5,-209.5 641.5,-209.5"/>
<text text-anchor="middle" x="687.5" y="-216.5" font-family="Helvetica,sans-Serif" font-size="10.00" fill="#000000">SetupNetworking</text>
</a>
</g>
</g>
<!-- Node5&#45;&gt;Node7 -->
<g id="edge7" class="edge">
<title>Node5&#45;&gt;Node7</title>
<path fill="none" stroke="#191970" d="M538.5095,-236.3139C559.1909,-233.9105 598.2939,-229.3665 631.2516,-225.5365"/>
<polygon fill="#191970" stroke="#191970" points="631.7262,-229.005 641.2553,-224.374 630.9181,-222.0518 631.7262,-229.005"/>
</g>
<!-- Node8&#45;&gt;Node5 -->
<g id="edge15" class="edge">
<title>Node8&#45;&gt;Node5</title>
<path fill="none" stroke="#191970" d="M205.1553,-133.5817C220.5324,-146.2965 249.5768,-168.5806 278,-181 354.637,-214.4861 453.6631,-229.7179 499.1517,-235.306"/>
<polygon fill="#191970" stroke="#191970" points="498.9287,-238.8038 509.2692,-236.4964 499.7467,-231.8518 498.9287,-238.8038"/>
</g>
<!-- Node9 -->
<g id="node10" class="node">
<title>Node9</title>
<g id="a_node10"><a xlink:href="chainparamsbase_8cpp.html#a976659dcbae70425b86d6506194b00e5" target="_top" xlink:title="Creates and returns a std::unique_ptr&lt;CBaseChainParams&gt; of the chosen chain. ">
<polygon fill="#ffffff" stroke="#000000" points="279.5,-152.5 279.5,-171.5 407.5,-171.5 407.5,-152.5 279.5,-152.5"/>
<text text-anchor="middle" x="343.5" y="-159.5" font-family="Helvetica,sans-Serif" font-size="10.00" fill="#000000">CreateBaseChainParams</text>
</a>
</g>
</g>
<!-- Node8&#45;&gt;Node9 -->
<g id="edge10" class="edge">
<title>Node8&#45;&gt;Node9</title>
<path fill="none" stroke="#191970" d="M231.7252,-133.589C251.2756,-138.5583 275.3466,-144.6767 296.1374,-149.9613"/>
<polygon fill="#191970" stroke="#191970" points="295.4921,-153.4085 306.0461,-152.4799 297.2165,-146.6243 295.4921,-153.4085"/>
</g>
<!-- Node11 -->
<g id="node12" class="node">
<title>Node11</title>
<g id="a_node12"><a xlink:href="chainparams_8cpp.html#ad829da8984d3486108858bf24e145464" target="_top" xlink:title="Creates and returns a std::unique_ptr&lt;CChainParams&gt; of the chosen chain. ">
<polygon fill="#ffffff" stroke="#000000" points="291,-114.5 291,-133.5 396,-133.5 396,-114.5 291,-114.5"/>
<text text-anchor="middle" x="343.5" y="-121.5" font-family="Helvetica,sans-Serif" font-size="10.00" fill="#000000">CreateChainParams</text>
</a>
</g>
</g>
<!-- Node8&#45;&gt;Node11 -->
<g id="edge12" class="edge">
<title>Node8&#45;&gt;Node11</title>
<path fill="none" stroke="#191970" d="M232.8891,-124C247.367,-124 264.1971,-124 280.2951,-124"/>
<polygon fill="#191970" stroke="#191970" points="280.7361,-127.5001 290.736,-124 280.736,-120.5001 280.7361,-127.5001"/>
</g>
<!-- Node8&#45;&gt;Node12 -->
<g id="edge13" class="edge">
<title>Node8&#45;&gt;Node12</title>
<path fill="none" stroke="#191970" d="M231.7252,-114.411C251.2756,-109.4417 275.3466,-103.3233 296.1374,-98.0387"/>
<polygon fill="#191970" stroke="#191970" points="297.2165,-101.3757 306.0461,-95.5201 295.4921,-94.5915 297.2165,-101.3757"/>
</g>
<!-- Node8&#45;&gt;Node13 -->
<g id="edge14" class="edge">
<title>Node8&#45;&gt;Node13</title>
<path fill="none" stroke="#191970" d="M205.5232,-114.4311C221.0825,-101.9362 250.0862,-80.1162 278,-67 282.9563,-64.6711 288.2596,-62.5636 293.6228,-60.6735"/>
<polygon fill="#191970" stroke="#191970" points="294.8687,-63.9483 303.2792,-57.5051 292.6864,-57.2972 294.8687,-63.9483"/>
</g>
<!-- Node8&#45;&gt;Node14 -->
<g id="edge16" class="edge">
<title>Node8&#45;&gt;Node14</title>
<path fill="none" stroke="#191970" d="M199.8573,-114.3013C211.9774,-95.0669 241.7308,-51.9695 278,-29 281.3369,-26.8867 284.9165,-25.0015 288.6186,-23.3209"/>
<polygon fill="#191970" stroke="#191970" points="290.0303,-26.5258 298.0057,-19.5513 287.4217,-20.03 290.0303,-26.5258"/>
</g>
<!-- Node10 -->
<g id="node11" class="node">
<title>Node10</title>
<g id="a_node11"><a xlink:href="class_c_base_main_params.html#a547dabd3f634a23b8cd5478242e101e1" target="_top" xlink:title="CBaseMainParams::CBaseMain\lParams">
<polygon fill="#ffffff" stroke="#000000" points="445,-147 445,-177 603,-177 603,-147 445,-147"/>
<text text-anchor="start" x="453" y="-165" font-family="Helvetica,sans-Serif" font-size="10.00" fill="#000000">CBaseMainParams::CBaseMain</text>
<text text-anchor="middle" x="524" y="-154" font-family="Helvetica,sans-Serif" font-size="10.00" fill="#000000">Params</text>
</a>
</g>
</g>
<!-- Node9&#45;&gt;Node10 -->
<g id="edge11" class="edge">
<title>Node9&#45;&gt;Node10</title>
<path fill="none" stroke="#191970" d="M407.6458,-162C416.4069,-162 425.527,-162 434.6352,-162"/>
<polygon fill="#191970" stroke="#191970" points="434.8937,-165.5001 444.8937,-162 434.8936,-158.5001 434.8937,-165.5001"/>
</g>
</g>
</svg>
