<?xml version="1.0" encoding="UTF-8" standalone="no"?>
<!DOCTYPE svg PUBLIC "-//W3C//DTD SVG 1.1//EN"
 "http://www.w3.org/Graphics/SVG/1.1/DTD/svg11.dtd">
<!-- Generated by graphviz version 2.40.1 (20161225.0304)
 -->
<!-- Title: SignVerifyMessageDialog::setModel Pages: 1 -->
<svg width="1066pt" height="66pt"
 viewBox="0.00 0.00 1066.00 66.00" xmlns="http://www.w3.org/2000/svg" xmlns:xlink="http://www.w3.org/1999/xlink">
<g id="graph0" class="graph" transform="scale(1 1) rotate(0) translate(4 62)">
<title>SignVerifyMessageDialog::setModel</title>
<polygon fill="#ffffff" stroke="transparent" points="-4,4 -4,-62 1062,-62 1062,4 -4,4"/>
<!-- Node119 -->
<g id="node1" class="node">
<title>Node119</title>
<polygon fill="#bfbfbf" stroke="#000000" points="0,-14 0,-44 129,-44 129,-14 0,-14"/>
<text text-anchor="start" x="8" y="-32" font-family="Helvetica,sans-Serif" font-size="10.00" fill="#000000">SignVerifyMessageDialog</text>
<text text-anchor="middle" x="64.5" y="-21" font-family="Helvetica,sans-Serif" font-size="10.00" fill="#000000">::setModel</text>
</g>
<!-- Node120 -->
<g id="node2" class="node">
<title>Node120</title>
<g id="a_node2"><a xlink:href="class_wallet_view.html#a6443ddcb872a1743a61102a3dcd2d560" target="_top" xlink:title="Show Sign/Verify Message dialog and switch to sign message tab. ">
<polygon fill="#ffffff" stroke="#000000" points="168,-38.5 168,-57.5 335,-57.5 335,-38.5 168,-38.5"/>
<text text-anchor="middle" x="251.5" y="-45.5" font-family="Helvetica,sans-Serif" font-size="10.00" fill="#000000">WalletView::gotoSignMessageTab</text>
</a>
</g>
</g>
<!-- Node119&#45;&gt;Node120 -->
<g id="edge1" class="edge">
<title>Node119&#45;&gt;Node120</title>
<path fill="none" stroke="#191970" d="M139.1851,-36.5883C148.5768,-37.5426 158.2328,-38.5237 167.7524,-39.4909"/>
<polygon fill="#191970" stroke="#191970" points="139.4192,-33.0942 129.1166,-35.5653 138.7116,-40.0583 139.4192,-33.0942"/>
</g>
<!-- Node125 -->
<g id="node7" class="node">
<title>Node125</title>
<g id="a_node7"><a xlink:href="class_wallet_view.html#a0a23aaaf87d3aec5ae8b1b8320d66796" target="_top" xlink:title="Show Sign/Verify Message dialog and switch to verify message tab. ">
<polygon fill="#ffffff" stroke="#000000" points="165,-.5 165,-19.5 338,-19.5 338,-.5 165,-.5"/>
<text text-anchor="middle" x="251.5" y="-7.5" font-family="Helvetica,sans-Serif" font-size="10.00" fill="#000000">WalletView::gotoVerifyMessageTab</text>
</a>
</g>
</g>
<!-- Node119&#45;&gt;Node125 -->
<g id="edge6" class="edge">
<title>Node119&#45;&gt;Node125</title>
<path fill="none" stroke="#191970" d="M139.2384,-21.4063C147.6379,-20.5528 156.248,-19.678 164.7824,-18.8109"/>
<polygon fill="#191970" stroke="#191970" points="138.7116,-17.9417 129.1166,-22.4347 139.4192,-24.9058 138.7116,-17.9417"/>
</g>
<!-- Node121 -->
<g id="node3" class="node">
<title>Node121</title>
<g id="a_node3"><a xlink:href="class_wallet_frame.html#a386b4f2e20af7d13a688662cd3f9e1fc" target="_top" xlink:title="Show Sign/Verify Message dialog and switch to sign message tab. ">
<polygon fill="#ffffff" stroke="#000000" points="377,-38.5 377,-57.5 550,-57.5 550,-38.5 377,-38.5"/>
<text text-anchor="middle" x="463.5" y="-45.5" font-family="Helvetica,sans-Serif" font-size="10.00" fill="#000000">WalletFrame::gotoSignMessageTab</text>
</a>
</g>
</g>
<!-- Node120&#45;&gt;Node121 -->
<g id="edge2" class="edge">
<title>Node120&#45;&gt;Node121</title>
<path fill="none" stroke="#191970" d="M345.6123,-48C356.0031,-48 366.5482,-48 376.8415,-48"/>
<polygon fill="#191970" stroke="#191970" points="345.288,-44.5001 335.288,-48 345.288,-51.5001 345.288,-44.5001"/>
</g>
<!-- Node122 -->
<g id="node4" class="node">
<title>Node122</title>
<g id="a_node4"><a xlink:href="class_raven_g_u_i.html#ae7206842e6ed9672aad4da7dc841f5f1" target="_top" xlink:title="Show help message dialog. ">
<polygon fill="#ffffff" stroke="#000000" points="589,-14 589,-44 741,-44 741,-14 589,-14"/>
<text text-anchor="start" x="597" y="-32" font-family="Helvetica,sans-Serif" font-size="10.00" fill="#000000">RavenGUI::showHelpMessage</text>
<text text-anchor="middle" x="665" y="-21" font-family="Helvetica,sans-Serif" font-size="10.00" fill="#000000">Clicked</text>
</a>
</g>
</g>
<!-- Node121&#45;&gt;Node122 -->
<g id="edge3" class="edge">
<title>Node121&#45;&gt;Node122</title>
<path fill="none" stroke="#191970" d="M560.1541,-38.8862C569.8111,-37.9756 579.5184,-37.0603 588.9202,-36.1738"/>
<polygon fill="#191970" stroke="#191970" points="559.7508,-35.4086 550.1235,-39.832 560.408,-42.3777 559.7508,-35.4086"/>
</g>
<!-- Node123 -->
<g id="node5" class="node">
<title>Node123</title>
<g id="a_node5"><a xlink:href="class_raven_g_u_i.html#a6e65b4f2b8a82b4ab99b77fe9d43a500" target="_top" xlink:title="Create the main UI actions. ">
<polygon fill="#ffffff" stroke="#000000" points="777,-19.5 777,-38.5 906,-38.5 906,-19.5 777,-19.5"/>
<text text-anchor="middle" x="841.5" y="-26.5" font-family="Helvetica,sans-Serif" font-size="10.00" fill="#000000">RavenGUI::createActions</text>
</a>
</g>
</g>
<!-- Node122&#45;&gt;Node123 -->
<g id="edge4" class="edge">
<title>Node122&#45;&gt;Node123</title>
<path fill="none" stroke="#191970" d="M751.2606,-29C759.9152,-29 768.5953,-29 776.9677,-29"/>
<polygon fill="#191970" stroke="#191970" points="751.1326,-25.5001 741.1325,-29 751.1325,-32.5001 751.1326,-25.5001"/>
</g>
<!-- Node124 -->
<g id="node6" class="node">
<title>Node124</title>
<g id="a_node6"><a xlink:href="class_raven_g_u_i.html#af82cbe028fc29d0ea71074eced806071" target="_top" xlink:title="RavenGUI::RavenGUI">
<polygon fill="#ffffff" stroke="#000000" points="942,-19.5 942,-38.5 1058,-38.5 1058,-19.5 942,-19.5"/>
<text text-anchor="middle" x="1000" y="-26.5" font-family="Helvetica,sans-Serif" font-size="10.00" fill="#000000">RavenGUI::RavenGUI</text>
</a>
</g>
</g>
<!-- Node123&#45;&gt;Node124 -->
<g id="edge5" class="edge">
<title>Node123&#45;&gt;Node124</title>
<path fill="none" stroke="#191970" d="M916.6646,-29C925.1053,-29 933.608,-29 941.7883,-29"/>
<polygon fill="#191970" stroke="#191970" points="916.4254,-25.5001 906.4253,-29 916.4253,-32.5001 916.4254,-25.5001"/>
</g>
<!-- Node126 -->
<g id="node8" class="node">
<title>Node126</title>
<g id="a_node8"><a xlink:href="class_wallet_frame.html#af5cce5026575d013cb9d6933ebe7aa98" target="_top" xlink:title="Show Sign/Verify Message dialog and switch to verify message tab. ">
<polygon fill="#ffffff" stroke="#000000" points="374,-.5 374,-19.5 553,-19.5 553,-.5 374,-.5"/>
<text text-anchor="middle" x="463.5" y="-7.5" font-family="Helvetica,sans-Serif" font-size="10.00" fill="#000000">WalletFrame::gotoVerifyMessageTab</text>
</a>
</g>
</g>
<!-- Node125&#45;&gt;Node126 -->
<g id="edge7" class="edge">
<title>Node125&#45;&gt;Node126</title>
<path fill="none" stroke="#191970" d="M348.0498,-10C356.6257,-10 365.2847,-10 373.8,-10"/>
<polygon fill="#191970" stroke="#191970" points="348.0343,-6.5001 338.0343,-10 348.0343,-13.5001 348.0343,-6.5001"/>
</g>
<!-- Node126&#45;&gt;Node122 -->
<g id="edge8" class="edge">
<title>Node126&#45;&gt;Node122</title>
<path fill="none" stroke="#191970" d="M563.1999,-19.401C571.8595,-20.2175 580.5295,-21.035 588.9539,-21.8294"/>
<polygon fill="#191970" stroke="#191970" points="563.3387,-15.8986 553.0543,-18.4443 562.6815,-22.8677 563.3387,-15.8986"/>
</g>
</g>
</svg>
