<?xml version="1.0" encoding="UTF-8" standalone="no"?>
<!DOCTYPE svg PUBLIC "-//W3C//DTD SVG 1.1//EN"
 "http://www.w3.org/Graphics/SVG/1.1/DTD/svg11.dtd">
<!-- Generated by graphviz version 2.40.1 (20161225.0304)
 -->
<!-- Title: AssetTableModel::formatAssetQuantity Pages: 1 -->
<svg width="1188pt" height="39pt"
 viewBox="0.00 0.00 1188.00 39.00" xmlns="http://www.w3.org/2000/svg" xmlns:xlink="http://www.w3.org/1999/xlink">
<g id="graph0" class="graph" transform="scale(1 1) rotate(0) translate(4 35)">
<title>AssetTableModel::formatAssetQuantity</title>
<polygon fill="#ffffff" stroke="transparent" points="-4,4 -4,-35 1184,-35 1184,4 -4,4"/>
<!-- Node48 -->
<g id="node1" class="node">
<title>Node48</title>
<polygon fill="#bfbfbf" stroke="#000000" points="0,-.5 0,-30.5 152,-30.5 152,-.5 0,-.5"/>
<text text-anchor="start" x="8" y="-18.5" font-family="Helvetica,sans-Serif" font-size="10.00" fill="#000000">AssetTableModel::formatAsset</text>
<text text-anchor="middle" x="76" y="-7.5" font-family="Helvetica,sans-Serif" font-size="10.00" fill="#000000">Quantity</text>
</g>
<!-- Node49 -->
<g id="node2" class="node">
<title>Node49</title>
<g id="a_node2"><a xlink:href="class_asset_table_model.html#aa8feb62df9c6d5207bdb9bded4d6261f" target="_top" xlink:title="AssetTableModel::formatTooltip">
<polygon fill="#ffffff" stroke="#000000" points="188,-6 188,-25 343,-25 343,-6 188,-6"/>
<text text-anchor="middle" x="265.5" y="-13" font-family="Helvetica,sans-Serif" font-size="10.00" fill="#000000">AssetTableModel::formatTooltip</text>
</a>
</g>
</g>
<!-- Node48&#45;&gt;Node49 -->
<g id="edge1" class="edge">
<title>Node48&#45;&gt;Node49</title>
<path fill="none" stroke="#191970" d="M162.5053,-15.5C170.9573,-15.5 179.4974,-15.5 187.8539,-15.5"/>
<polygon fill="#191970" stroke="#191970" points="162.2578,-12.0001 152.2578,-15.5 162.2577,-19.0001 162.2578,-12.0001"/>
</g>
<!-- Node50 -->
<g id="node3" class="node">
<title>Node50</title>
<g id="a_node3"><a xlink:href="class_asset_table_model.html#a621ceb15d7b6b5e58bde0a48d84773de" target="_top" xlink:title="AssetTableModel::data">
<polygon fill="#ffffff" stroke="#000000" points="379,-6 379,-25 496,-25 496,-6 379,-6"/>
<text text-anchor="middle" x="437.5" y="-13" font-family="Helvetica,sans-Serif" font-size="10.00" fill="#000000">AssetTableModel::data</text>
</a>
</g>
</g>
<!-- Node49&#45;&gt;Node50 -->
<g id="edge2" class="edge">
<title>Node49&#45;&gt;Node50</title>
<path fill="none" stroke="#191970" d="M353.3683,-15.5C362.0409,-15.5 370.688,-15.5 378.9569,-15.5"/>
<polygon fill="#191970" stroke="#191970" points="353.1971,-12.0001 343.1971,-15.5 353.197,-19.0001 353.1971,-12.0001"/>
</g>
<!-- Node51 -->
<g id="node4" class="node">
<title>Node51</title>
<g id="a_node4"><a xlink:href="class_asset_table_model.html#a0ec1917b6388d10629b123d7e0dcf021" target="_top" xlink:title="AssetTableModel::index">
<polygon fill="#ffffff" stroke="#000000" points="532,-6 532,-25 654,-25 654,-6 532,-6"/>
<text text-anchor="middle" x="593" y="-13" font-family="Helvetica,sans-Serif" font-size="10.00" fill="#000000">AssetTableModel::index</text>
</a>
</g>
</g>
<!-- Node50&#45;&gt;Node51 -->
<g id="edge3" class="edge">
<title>Node50&#45;&gt;Node51</title>
<path fill="none" stroke="#191970" d="M506.4801,-15.5C514.9148,-15.5 523.4889,-15.5 531.7986,-15.5"/>
<polygon fill="#191970" stroke="#191970" points="506.2879,-12.0001 496.2879,-15.5 506.2878,-19.0001 506.2879,-12.0001"/>
</g>
<!-- Node52 -->
<g id="node5" class="node">
<title>Node52</title>
<g id="a_node5"><a xlink:href="class_asset_table_model.html#a5b3e5bc2d8312e6ac6f62e84a8b5e404" target="_top" xlink:title="AssetTableModel::checkBalance\lChanged">
<polygon fill="#ffffff" stroke="#000000" points="690,-.5 690,-30.5 850,-30.5 850,-.5 690,-.5"/>
<text text-anchor="start" x="698" y="-18.5" font-family="Helvetica,sans-Serif" font-size="10.00" fill="#000000">AssetTableModel::checkBalance</text>
<text text-anchor="middle" x="770" y="-7.5" font-family="Helvetica,sans-Serif" font-size="10.00" fill="#000000">Changed</text>
</a>
</g>
</g>
<!-- Node51&#45;&gt;Node52 -->
<g id="edge4" class="edge">
<title>Node51&#45;&gt;Node52</title>
<path fill="none" stroke="#191970" d="M664.5142,-15.5C672.9019,-15.5 681.501,-15.5 689.9949,-15.5"/>
<polygon fill="#191970" stroke="#191970" points="664.4093,-12.0001 654.4093,-15.5 664.4092,-19.0001 664.4093,-12.0001"/>
</g>
<!-- Node53 -->
<g id="node6" class="node">
<title>Node53</title>
<g id="a_node6"><a xlink:href="class_wallet_model.html#a51469b2d95cfd4bc0a14ee456fca7b95" target="_top" xlink:title="WalletModel::pollBalance\lChanged">
<polygon fill="#ffffff" stroke="#000000" points="886,-.5 886,-30.5 1013,-30.5 1013,-.5 886,-.5"/>
<text text-anchor="start" x="894" y="-18.5" font-family="Helvetica,sans-Serif" font-size="10.00" fill="#000000">WalletModel::pollBalance</text>
<text text-anchor="middle" x="949.5" y="-7.5" font-family="Helvetica,sans-Serif" font-size="10.00" fill="#000000">Changed</text>
</a>
</g>
</g>
<!-- Node52&#45;&gt;Node53 -->
<g id="edge5" class="edge">
<title>Node52&#45;&gt;Node53</title>
<path fill="none" stroke="#191970" d="M860.1711,-15.5C868.8172,-15.5 877.4581,-15.5 885.7728,-15.5"/>
<polygon fill="#191970" stroke="#191970" points="860.0382,-12.0001 850.0382,-15.5 860.0381,-19.0001 860.0382,-12.0001"/>
</g>
<!-- Node54 -->
<g id="node7" class="node">
<title>Node54</title>
<g id="a_node7"><a xlink:href="class_wallet_model.html#a36282857c97bcaad796a2b5c7398245c" target="_top" xlink:title="WalletModel::WalletModel">
<polygon fill="#ffffff" stroke="#000000" points="1049,-6 1049,-25 1180,-25 1180,-6 1049,-6"/>
<text text-anchor="middle" x="1114.5" y="-13" font-family="Helvetica,sans-Serif" font-size="10.00" fill="#000000">WalletModel::WalletModel</text>
</a>
</g>
</g>
<!-- Node53&#45;&gt;Node54 -->
<g id="edge6" class="edge">
<title>Node53&#45;&gt;Node54</title>
<path fill="none" stroke="#191970" d="M1023.5464,-15.5C1032.021,-15.5 1040.6159,-15.5 1048.9682,-15.5"/>
<polygon fill="#191970" stroke="#191970" points="1023.2933,-12.0001 1013.2933,-15.5 1023.2933,-19.0001 1023.2933,-12.0001"/>
</g>
</g>
</svg>
