<?xml version="1.0" encoding="UTF-8" standalone="no"?>
<!DOCTYPE svg PUBLIC "-//W3C//DTD SVG 1.1//EN"
 "http://www.w3.org/Graphics/SVG/1.1/DTD/svg11.dtd">
<!-- Generated by graphviz version 2.40.1 (20161225.0304)
 -->
<!-- Title: CompareTxMemPoolEntryByAncestorFee::operator() Pages: 1 -->
<svg width="389pt" height="165pt"
 viewBox="0.00 0.00 389.00 164.50" xmlns="http://www.w3.org/2000/svg" xmlns:xlink="http://www.w3.org/1999/xlink">
<g id="graph0" class="graph" transform="scale(1 1) rotate(0) translate(4 160.5)">
<title>CompareTxMemPoolEntryByAncestorFee::operator()</title>
<polygon fill="#ffffff" stroke="transparent" points="-4,4 -4,-160.5 385,-160.5 385,4 -4,4"/>
<!-- Node0 -->
<g id="node1" class="node">
<title>Node0</title>
<polygon fill="#bfbfbf" stroke="#000000" points="0,-55 0,-85 183,-85 183,-55 0,-55"/>
<text text-anchor="start" x="8" y="-73" font-family="Helvetica,sans-Serif" font-size="10.00" fill="#000000">CompareTxMemPoolEntryByAncestor</text>
<text text-anchor="middle" x="91.5" y="-62" font-family="Helvetica,sans-Serif" font-size="10.00" fill="#000000">Fee::operator()</text>
</g>
<!-- Node1 -->
<g id="node2" class="node">
<title>Node1</title>
<g id="a_node2"><a xlink:href="class_c_tx_mem_pool_entry.html#acca3e79bb27b5eba0ba5e2b83c064fd0" target="_top" xlink:title="CTxMemPoolEntry::GetModFees\lWithAncestors">
<polygon fill="#ffffff" stroke="#000000" points="219,-126 219,-156 381,-156 381,-126 219,-126"/>
<text text-anchor="start" x="227" y="-144" font-family="Helvetica,sans-Serif" font-size="10.00" fill="#000000">CTxMemPoolEntry::GetModFees</text>
<text text-anchor="middle" x="300" y="-133" font-family="Helvetica,sans-Serif" font-size="10.00" fill="#000000">WithAncestors</text>
</a>
</g>
</g>
<!-- Node0&#45;&gt;Node1 -->
<g id="edge1" class="edge">
<title>Node0&#45;&gt;Node1</title>
<path fill="none" stroke="#191970" d="M130.3297,-85.0609C155.4713,-94.6269 188.9983,-107.0373 219,-117 224.9375,-118.9717 231.1452,-120.9526 237.3683,-122.885"/>
<polygon fill="#191970" stroke="#191970" points="236.5367,-126.2907 247.1233,-125.8733 238.587,-119.5978 236.5367,-126.2907"/>
</g>
<!-- Node2 -->
<g id="node3" class="node">
<title>Node2</title>
<g id="a_node3"><a xlink:href="class_c_tx_mem_pool_entry.html#a9c1cc3ffddb0b48294309715121455dc" target="_top" xlink:title="CTxMemPoolEntry::GetSize\lWithAncestors">
<polygon fill="#ffffff" stroke="#000000" points="229.5,-77 229.5,-107 370.5,-107 370.5,-77 229.5,-77"/>
<text text-anchor="start" x="237.5" y="-95" font-family="Helvetica,sans-Serif" font-size="10.00" fill="#000000">CTxMemPoolEntry::GetSize</text>
<text text-anchor="middle" x="300" y="-84" font-family="Helvetica,sans-Serif" font-size="10.00" fill="#000000">WithAncestors</text>
</a>
</g>
</g>
<!-- Node0&#45;&gt;Node2 -->
<g id="edge2" class="edge">
<title>Node0&#45;&gt;Node2</title>
<path fill="none" stroke="#191970" d="M183.2545,-79.6815C195.1692,-80.9387 207.3048,-82.2192 219.0266,-83.456"/>
<polygon fill="#191970" stroke="#191970" points="218.8931,-86.9613 229.2052,-84.53 219.6277,-79.9999 218.8931,-86.9613"/>
</g>
<!-- Node3 -->
<g id="node4" class="node">
<title>Node3</title>
<g id="a_node4"><a xlink:href="class_c_tx_mem_pool_entry.html#a2deed4202061edf8b040a3f554417c20" target="_top" xlink:title="CTxMemPoolEntry::GetTx">
<polygon fill="#ffffff" stroke="#000000" points="233.5,-38.5 233.5,-57.5 366.5,-57.5 366.5,-38.5 233.5,-38.5"/>
<text text-anchor="middle" x="300" y="-45.5" font-family="Helvetica,sans-Serif" font-size="10.00" fill="#000000">CTxMemPoolEntry::GetTx</text>
</a>
</g>
</g>
<!-- Node0&#45;&gt;Node3 -->
<g id="edge3" class="edge">
<title>Node0&#45;&gt;Node3</title>
<path fill="none" stroke="#191970" d="M183.2545,-60.3185C196.5306,-58.9176 210.081,-57.4879 223.0276,-56.1218"/>
<polygon fill="#191970" stroke="#191970" points="223.6868,-59.5717 233.2643,-55.0417 222.9522,-52.6104 223.6868,-59.5717"/>
</g>
<!-- Node4 -->
<g id="node5" class="node">
<title>Node4</title>
<g id="a_node5"><a xlink:href="class_c_transaction.html#a7efd1379de830341417c0bfa23a149aa" target="_top" xlink:title="CTransaction::GetHash">
<polygon fill="#ffffff" stroke="#000000" points="240,-.5 240,-19.5 360,-19.5 360,-.5 240,-.5"/>
<text text-anchor="middle" x="300" y="-7.5" font-family="Helvetica,sans-Serif" font-size="10.00" fill="#000000">CTransaction::GetHash</text>
</a>
</g>
</g>
<!-- Node0&#45;&gt;Node4 -->
<g id="edge4" class="edge">
<title>Node0&#45;&gt;Node4</title>
<path fill="none" stroke="#191970" d="M135.1973,-54.9841C159.691,-46.8109 190.8822,-36.805 219,-29 227.8923,-26.5317 237.3912,-24.112 246.6401,-21.8703"/>
<polygon fill="#191970" stroke="#191970" points="247.6201,-25.2349 256.5375,-19.514 245.9988,-18.4253 247.6201,-25.2349"/>
</g>
</g>
</svg>
