<?xml version="1.0" encoding="UTF-8" standalone="no"?>
<!DOCTYPE svg PUBLIC "-//W3C//DTD SVG 1.1//EN"
 "http://www.w3.org/Graphics/SVG/1.1/DTD/svg11.dtd">
<!-- Generated by graphviz version 2.40.1 (20161225.0304)
 -->
<!-- Title: CAddrInfo::GetTriedBucket Pages: 1 -->
<svg width="435pt" height="142pt"
 viewBox="0.00 0.00 435.00 142.00" xmlns="http://www.w3.org/2000/svg" xmlns:xlink="http://www.w3.org/1999/xlink">
<g id="graph0" class="graph" transform="scale(1 1) rotate(0) translate(4 138)">
<title>CAddrInfo::GetTriedBucket</title>
<polygon fill="#ffffff" stroke="transparent" points="-4,4 -4,-138 431,-138 431,4 -4,4"/>
<!-- Node112 -->
<g id="node1" class="node">
<title>Node112</title>
<polygon fill="#bfbfbf" stroke="#000000" points="0,-57.5 0,-76.5 135,-76.5 135,-57.5 0,-57.5"/>
<text text-anchor="middle" x="67.5" y="-64.5" font-family="Helvetica,sans-Serif" font-size="10.00" fill="#000000">CAddrInfo::GetTriedBucket</text>
</g>
<!-- Node113 -->
<g id="node2" class="node">
<title>Node113</title>
<g id="a_node2"><a xlink:href="class_c_addr_man.html#a98e8383efb48b7c2932795438f35a10a" target="_top" xlink:title="Move an entry from the &quot;new&quot; table(s) to the &quot;tried&quot; table. ">
<polygon fill="#ffffff" stroke="#000000" points="172.5,-114.5 172.5,-133.5 287.5,-133.5 287.5,-114.5 172.5,-114.5"/>
<text text-anchor="middle" x="230" y="-121.5" font-family="Helvetica,sans-Serif" font-size="10.00" fill="#000000">CAddrMan::MakeTried</text>
</a>
</g>
</g>
<!-- Node112&#45;&gt;Node113 -->
<g id="edge1" class="edge">
<title>Node112&#45;&gt;Node113</title>
<path fill="none" stroke="#191970" d="M104.3574,-79.9285C134.2572,-90.4164 175.7305,-104.9639 202.7124,-114.4284"/>
<polygon fill="#191970" stroke="#191970" points="105.2937,-76.5478 94.6988,-76.5405 102.9767,-83.1533 105.2937,-76.5478"/>
</g>
<!-- Node114 -->
<g id="node3" class="node">
<title>Node114</title>
<g id="a_node3"><a xlink:href="class_c_addr_man.html#a27e51ef4fe86db1ff5a5e45caefc1ef4" target="_top" xlink:title="Select an address to connect to, if newOnly is set to true, only the new table is selected from...">
<polygon fill="#ffffff" stroke="#000000" points="325,-76.5 325,-95.5 427,-95.5 427,-76.5 325,-76.5"/>
<text text-anchor="middle" x="376" y="-83.5" font-family="Helvetica,sans-Serif" font-size="10.00" fill="#000000">CAddrMan::Select_</text>
</a>
</g>
</g>
<!-- Node112&#45;&gt;Node114 -->
<g id="edge2" class="edge">
<title>Node112&#45;&gt;Node114</title>
<path fill="none" stroke="#191970" d="M145.4715,-71.8021C201.6512,-75.2621 275.8716,-79.8333 324.7247,-82.842"/>
<polygon fill="#191970" stroke="#191970" points="145.3979,-68.2911 135.2016,-71.1696 144.9675,-75.2778 145.3979,-68.2911"/>
</g>
<!-- Node115 -->
<g id="node4" class="node">
<title>Node115</title>
<g id="a_node4"><a xlink:href="class_c_addr_info.html#ae14c3a91bb669e5580be1d3767264187" target="_top" xlink:title="CAddrInfo::CAddrInfo">
<polygon fill="#ffffff" stroke="#000000" points="174.5,-38.5 174.5,-57.5 285.5,-57.5 285.5,-38.5 174.5,-38.5"/>
<text text-anchor="middle" x="230" y="-45.5" font-family="Helvetica,sans-Serif" font-size="10.00" fill="#000000">CAddrInfo::CAddrInfo</text>
</a>
</g>
</g>
<!-- Node112&#45;&gt;Node115 -->
<g id="edge3" class="edge">
<title>Node112&#45;&gt;Node115</title>
<path fill="none" stroke="#191970" d="M145.193,-57.9159C155.0187,-56.767 164.9139,-55.6101 174.3023,-54.5123"/>
<polygon fill="#191970" stroke="#191970" points="144.5288,-54.4696 135.0029,-59.1074 145.3417,-61.4223 144.5288,-54.4696"/>
</g>
<!-- Node117 -->
<g id="node6" class="node">
<title>Node117</title>
<g id="a_node6"><a xlink:href="class_c_addr_man.html#a94c76a39ab311deb9e7b810e01b664ce" target="_top" xlink:title="CAddrMan::Unserialize">
<polygon fill="#ffffff" stroke="#000000" points="171,-.5 171,-19.5 289,-19.5 289,-.5 171,-.5"/>
<text text-anchor="middle" x="230" y="-7.5" font-family="Helvetica,sans-Serif" font-size="10.00" fill="#000000">CAddrMan::Unserialize</text>
</a>
</g>
</g>
<!-- Node112&#45;&gt;Node117 -->
<g id="edge6" class="edge">
<title>Node112&#45;&gt;Node117</title>
<path fill="none" stroke="#191970" d="M102.5324,-53.739C122.5213,-46.2728 148.0861,-36.8924 171,-29 180.2588,-25.811 190.3903,-22.4883 199.6041,-19.53"/>
<polygon fill="#191970" stroke="#191970" points="101.0535,-50.5555 92.9182,-57.3428 103.5105,-57.1101 101.0535,-50.5555"/>
</g>
<!-- Node115&#45;&gt;Node114 -->
<g id="edge5" class="edge">
<title>Node115&#45;&gt;Node114</title>
<path fill="none" stroke="#191970" d="M276.536,-60.1121C296.8696,-65.4044 320.3713,-71.5213 339.423,-76.4799"/>
<polygon fill="#191970" stroke="#191970" points="277.4012,-56.7207 266.842,-57.589 275.6379,-63.4951 277.4012,-56.7207"/>
</g>
<!-- Node116 -->
<g id="node5" class="node">
<title>Node116</title>
<g id="a_node5"><a xlink:href="class_c_addr_man.html#af5d1e15be40f1d6bfa3e614730e46a04" target="_top" xlink:title="find an entry, creating it if necessary. ">
<polygon fill="#ffffff" stroke="#000000" points="327,-38.5 327,-57.5 425,-57.5 425,-38.5 327,-38.5"/>
<text text-anchor="middle" x="376" y="-45.5" font-family="Helvetica,sans-Serif" font-size="10.00" fill="#000000">CAddrMan::Create</text>
</a>
</g>
</g>
<!-- Node115&#45;&gt;Node116 -->
<g id="edge4" class="edge">
<title>Node115&#45;&gt;Node116</title>
<path fill="none" stroke="#191970" d="M295.8939,-48C306.2709,-48 316.8413,-48 326.7555,-48"/>
<polygon fill="#191970" stroke="#191970" points="295.6129,-44.5001 285.6128,-48 295.6128,-51.5001 295.6129,-44.5001"/>
</g>
</g>
</svg>
