<?xml version="1.0" encoding="UTF-8" standalone="no"?>
<!DOCTYPE svg PUBLIC "-//W3C//DTD SVG 1.1//EN"
 "http://www.w3.org/Graphics/SVG/1.1/DTD/svg11.dtd">
<!-- Generated by graphviz version 2.40.1 (20161225.0304)
 -->
<!-- Title: CTxMemPool::addUnchecked Pages: 1 -->
<svg width="716pt" height="555pt"
 viewBox="0.00 0.00 716.00 555.14" xmlns="http://www.w3.org/2000/svg" xmlns:xlink="http://www.w3.org/1999/xlink">
<g id="graph0" class="graph" transform="scale(1 1) rotate(0) translate(4 551.1429)">
<title>CTxMemPool::addUnchecked</title>
<polygon fill="#ffffff" stroke="transparent" points="-4,4 -4,-551.1429 712,-551.1429 712,4 -4,4"/>
<!-- Node66 -->
<g id="node1" class="node">
<title>Node66</title>
<polygon fill="#bfbfbf" stroke="#000000" points="0,-363.6429 0,-382.6429 148,-382.6429 148,-363.6429 0,-363.6429"/>
<text text-anchor="middle" x="74" y="-370.6429" font-family="Helvetica,sans-Serif" font-size="10.00" fill="#000000">CTxMemPool::addUnchecked</text>
</g>
<!-- Node67 -->
<g id="node2" class="node">
<title>Node67</title>
<g id="a_node2"><a xlink:href="class_c_tx_mem_pool_entry.html#aa7671b0dd01918bcb042f743e6c5ee9c" target="_top" xlink:title="CTxMemPoolEntry::GetSharedTx">
<polygon fill="#ffffff" stroke="#000000" points="186.5,-527.6429 186.5,-546.6429 350.5,-546.6429 350.5,-527.6429 186.5,-527.6429"/>
<text text-anchor="middle" x="268.5" y="-534.6429" font-family="Helvetica,sans-Serif" font-size="10.00" fill="#000000">CTxMemPoolEntry::GetSharedTx</text>
</a>
</g>
</g>
<!-- Node66&#45;&gt;Node67 -->
<g id="edge1" class="edge">
<title>Node66&#45;&gt;Node67</title>
<path fill="none" stroke="#191970" d="M78.3211,-382.775C90.653,-409.0895 128.7204,-482.5943 184,-518.1429 187.3199,-520.2778 190.8473,-522.1747 194.505,-523.8598"/>
<polygon fill="#191970" stroke="#191970" points="193.2379,-527.1228 203.8207,-527.6277 195.8627,-520.6335 193.2379,-527.1228"/>
</g>
<!-- Node68 -->
<g id="node3" class="node">
<title>Node68</title>
<g id="a_node3"><a xlink:href="class_c_tx_mem_pool_entry.html#ab5b85d9bd797a134072fe8706d6d7e7e" target="_top" xlink:title="CTxMemPoolEntry::Dynamic\lMemoryUsage">
<polygon fill="#ffffff" stroke="#000000" points="196,-478.1429 196,-508.1429 341,-508.1429 341,-478.1429 196,-478.1429"/>
<text text-anchor="start" x="204" y="-496.1429" font-family="Helvetica,sans-Serif" font-size="10.00" fill="#000000">CTxMemPoolEntry::Dynamic</text>
<text text-anchor="middle" x="268.5" y="-485.1429" font-family="Helvetica,sans-Serif" font-size="10.00" fill="#000000">MemoryUsage</text>
</a>
</g>
</g>
<!-- Node66&#45;&gt;Node68 -->
<g id="edge2" class="edge">
<title>Node66&#45;&gt;Node68</title>
<path fill="none" stroke="#191970" d="M82.4051,-382.7359C99.5976,-401.7802 140.8185,-444.5525 184,-468.1429 188.1452,-470.4075 192.5197,-472.4895 197.0078,-474.4"/>
<polygon fill="#191970" stroke="#191970" points="195.7561,-477.6687 206.3428,-478.0842 198.326,-471.1574 195.7561,-477.6687"/>
</g>
<!-- Node69 -->
<g id="node4" class="node">
<title>Node69</title>
<g id="a_node4"><a xlink:href="classindirectmap.html#a2f62ca5a298d68c4e479d0f59afc4981" target="_top" xlink:title="indirectmap::insert">
<polygon fill="#ffffff" stroke="#000000" points="220,-439.6429 220,-458.6429 317,-458.6429 317,-439.6429 220,-439.6429"/>
<text text-anchor="middle" x="268.5" y="-446.6429" font-family="Helvetica,sans-Serif" font-size="10.00" fill="#000000">indirectmap::insert</text>
</a>
</g>
</g>
<!-- Node66&#45;&gt;Node69 -->
<g id="edge3" class="edge">
<title>Node66&#45;&gt;Node69</title>
<path fill="none" stroke="#191970" d="M89.4475,-382.7786C110.2187,-395.3475 148.6368,-417.2492 184,-430.1429 192.2111,-433.1368 201.0497,-435.7506 209.8076,-438.0027"/>
<polygon fill="#191970" stroke="#191970" points="209.0792,-441.4275 219.6234,-440.3925 210.7352,-434.6262 209.0792,-441.4275"/>
</g>
<!-- Node70 -->
<g id="node5" class="node">
<title>Node70</title>
<g id="a_node5"><a xlink:href="class_c_tx_mem_pool.html#ae6cc140209f782be93c522048595b797" target="_top" xlink:title="CTxMemPool::UpdateParent">
<polygon fill="#ffffff" stroke="#000000" points="197,-401.6429 197,-420.6429 340,-420.6429 340,-401.6429 197,-401.6429"/>
<text text-anchor="middle" x="268.5" y="-408.6429" font-family="Helvetica,sans-Serif" font-size="10.00" fill="#000000">CTxMemPool::UpdateParent</text>
</a>
</g>
</g>
<!-- Node66&#45;&gt;Node70 -->
<g id="edge4" class="edge">
<title>Node66&#45;&gt;Node70</title>
<path fill="none" stroke="#191970" d="M122.8295,-382.6829C149.1876,-387.8325 181.9169,-394.2269 209.6712,-399.6494"/>
<polygon fill="#191970" stroke="#191970" points="209.1648,-403.1166 219.6504,-401.599 210.5071,-396.2464 209.1648,-403.1166"/>
</g>
<!-- Node71 -->
<g id="node6" class="node">
<title>Node71</title>
<g id="a_node6"><a xlink:href="class_c_tx_mem_pool.html#a1e5540275b4a83746d491a5741ec85be" target="_top" xlink:title="Update ancestors of hash to add/remove it as a descendant transaction. ">
<polygon fill="#ffffff" stroke="#000000" points="184,-363.6429 184,-382.6429 353,-382.6429 353,-363.6429 184,-363.6429"/>
<text text-anchor="middle" x="268.5" y="-370.6429" font-family="Helvetica,sans-Serif" font-size="10.00" fill="#000000">CTxMemPool::UpdateAncestorsOf</text>
</a>
</g>
</g>
<!-- Node66&#45;&gt;Node71 -->
<g id="edge5" class="edge">
<title>Node66&#45;&gt;Node71</title>
<path fill="none" stroke="#191970" d="M148.087,-373.1429C156.4975,-373.1429 165.1535,-373.1429 173.7829,-373.1429"/>
<polygon fill="#191970" stroke="#191970" points="173.8845,-376.643 183.8845,-373.1429 173.8845,-369.643 173.8845,-376.643"/>
</g>
<!-- Node72 -->
<g id="node7" class="node">
<title>Node72</title>
<g id="a_node7"><a xlink:href="class_c_tx_mem_pool.html#af0a20022563759ecfcadadf429a2836d" target="_top" xlink:title="Set ancestor state for an entry. ">
<polygon fill="#ffffff" stroke="#000000" points="192.5,-314.1429 192.5,-344.1429 344.5,-344.1429 344.5,-314.1429 192.5,-314.1429"/>
<text text-anchor="start" x="200.5" y="-332.1429" font-family="Helvetica,sans-Serif" font-size="10.00" fill="#000000">CTxMemPool::UpdateEntryFor</text>
<text text-anchor="middle" x="268.5" y="-321.1429" font-family="Helvetica,sans-Serif" font-size="10.00" fill="#000000">Ancestors</text>
</a>
</g>
</g>
<!-- Node66&#45;&gt;Node72 -->
<g id="edge6" class="edge">
<title>Node66&#45;&gt;Node72</title>
<path fill="none" stroke="#191970" d="M116.2036,-363.5956C138.3953,-358.5754 166.2891,-352.2652 192.121,-346.4215"/>
<polygon fill="#191970" stroke="#191970" points="192.923,-349.8286 201.9042,-344.2083 191.3784,-343.0011 192.923,-349.8286"/>
</g>
<!-- Node73 -->
<g id="node8" class="node">
<title>Node73</title>
<g id="a_node8"><a xlink:href="class_c_tx_mem_pool_entry.html#a89325fcaa8efbd1d6fe68c39d7d676b0" target="_top" xlink:title="CTxMemPoolEntry::GetTxSize">
<polygon fill="#ffffff" stroke="#000000" points="389,-345.6429 389,-364.6429 541,-364.6429 541,-345.6429 389,-345.6429"/>
<text text-anchor="middle" x="465" y="-352.6429" font-family="Helvetica,sans-Serif" font-size="10.00" fill="#000000">CTxMemPoolEntry::GetTxSize</text>
</a>
</g>
</g>
<!-- Node66&#45;&gt;Node73 -->
<g id="edge7" class="edge">
<title>Node66&#45;&gt;Node73</title>
<path fill="none" stroke="#191970" d="M84.864,-363.4868C103.5352,-347.6125 143.6141,-316.6181 184,-305.1429 256.2512,-284.6137 282.5842,-279.003 353,-305.1429 372.7947,-312.4912 370.2514,-326.4312 389,-336.1429 393.5626,-338.5064 398.4339,-340.5861 403.4233,-342.4142"/>
<polygon fill="#191970" stroke="#191970" points="402.5203,-345.8022 413.1137,-345.6285 404.7241,-339.1581 402.5203,-345.8022"/>
</g>
<!-- Node75 -->
<g id="node10" class="node">
<title>Node75</title>
<g id="a_node10"><a xlink:href="class_c_block_policy_estimator.html#af34606ec5f6af217e23b47b8c3b2e361" target="_top" xlink:title="Process a transaction accepted to the mempool. ">
<polygon fill="#ffffff" stroke="#000000" points="209.5,-226.1429 209.5,-256.1429 327.5,-256.1429 327.5,-226.1429 209.5,-226.1429"/>
<text text-anchor="start" x="217.5" y="-244.1429" font-family="Helvetica,sans-Serif" font-size="10.00" fill="#000000">CBlockPolicyEstimator</text>
<text text-anchor="middle" x="268.5" y="-233.1429" font-family="Helvetica,sans-Serif" font-size="10.00" fill="#000000">::processTransaction</text>
</a>
</g>
</g>
<!-- Node66&#45;&gt;Node75 -->
<g id="edge9" class="edge">
<title>Node66&#45;&gt;Node75</title>
<path fill="none" stroke="#191970" d="M81.8414,-363.621C98.6302,-343.7934 140.1107,-297.7155 184,-271.1429 190.9112,-266.9586 198.493,-263.2379 206.1895,-259.9647"/>
<polygon fill="#191970" stroke="#191970" points="207.6177,-263.163 215.5971,-256.1931 205.0128,-256.6657 207.6177,-263.163"/>
</g>
<!-- Node82 -->
<g id="node17" class="node">
<title>Node82</title>
<g id="a_node17"><a xlink:href="class_c_transaction.html#a90a97d323a355ffd2a53b5913d3af6c9" target="_top" xlink:title="CTransaction::GetWitnessHash">
<polygon fill="#ffffff" stroke="#000000" points="190.5,-49.6429 190.5,-68.6429 346.5,-68.6429 346.5,-49.6429 190.5,-49.6429"/>
<text text-anchor="middle" x="268.5" y="-56.6429" font-family="Helvetica,sans-Serif" font-size="10.00" fill="#000000">CTransaction::GetWitnessHash</text>
</a>
</g>
</g>
<!-- Node66&#45;&gt;Node82 -->
<g id="edge17" class="edge">
<title>Node66&#45;&gt;Node82</title>
<path fill="none" stroke="#191970" d="M80.0343,-363.4012C107.4882,-319.0797 220.8242,-136.1105 257.2039,-77.3793"/>
<polygon fill="#191970" stroke="#191970" points="260.2456,-79.1153 262.5361,-68.771 254.2947,-75.4292 260.2456,-79.1153"/>
</g>
<!-- Node74 -->
<g id="node9" class="node">
<title>Node74</title>
<g id="a_node9"><a xlink:href="policy_8cpp.html#a657a593ec90452062582ccf893a8488d" target="_top" xlink:title="Compute the virtual transaction size (weight reinterpreted as bytes). ">
<polygon fill="#ffffff" stroke="#000000" points="577,-345.6429 577,-364.6429 708,-364.6429 708,-345.6429 577,-345.6429"/>
<text text-anchor="middle" x="642.5" y="-352.6429" font-family="Helvetica,sans-Serif" font-size="10.00" fill="#000000">GetVirtualTransactionSize</text>
</a>
</g>
</g>
<!-- Node73&#45;&gt;Node74 -->
<g id="edge8" class="edge">
<title>Node73&#45;&gt;Node74</title>
<path fill="none" stroke="#191970" d="M541.0484,-355.1429C549.5441,-355.1429 558.1984,-355.1429 566.6911,-355.1429"/>
<polygon fill="#191970" stroke="#191970" points="566.9488,-358.643 576.9487,-355.1429 566.9487,-351.643 566.9488,-358.643"/>
</g>
<!-- Node75&#45;&gt;Node73 -->
<g id="edge15" class="edge">
<title>Node75&#45;&gt;Node73</title>
<path fill="none" stroke="#191970" d="M327.8467,-255.965C336.8843,-259.9251 345.6371,-264.9024 353,-271.1429 378.1924,-292.495 362.8104,-316.0264 389,-336.1429 391.4555,-338.029 394.0753,-339.7299 396.8107,-341.2636"/>
<polygon fill="#191970" stroke="#191970" points="395.351,-344.4452 405.881,-345.615 398.3788,-338.1339 395.351,-344.4452"/>
</g>
<!-- Node76 -->
<g id="node11" class="node">
<title>Node76</title>
<g id="a_node11"><a xlink:href="class_c_tx_mem_pool_entry.html#a319f8093929fc5b6c3c66ba53ac172b5" target="_top" xlink:title="CTxMemPoolEntry::GetHeight">
<polygon fill="#ffffff" stroke="#000000" points="390,-307.6429 390,-326.6429 540,-326.6429 540,-307.6429 390,-307.6429"/>
<text text-anchor="middle" x="465" y="-314.6429" font-family="Helvetica,sans-Serif" font-size="10.00" fill="#000000">CTxMemPoolEntry::GetHeight</text>
</a>
</g>
</g>
<!-- Node75&#45;&gt;Node76 -->
<g id="edge10" class="edge">
<title>Node75&#45;&gt;Node76</title>
<path fill="none" stroke="#191970" d="M318.7271,-256.1606C330.2753,-260.3765 342.2996,-265.4035 353,-271.1429 370.6247,-280.5964 370.9412,-289.5475 389,-298.1429 393.9889,-300.5175 399.3084,-302.6169 404.7278,-304.4687"/>
<polygon fill="#191970" stroke="#191970" points="403.9519,-307.8932 414.5409,-307.5404 406.043,-301.2129 403.9519,-307.8932"/>
</g>
<!-- Node77 -->
<g id="node12" class="node">
<title>Node77</title>
<g id="a_node12"><a xlink:href="class_c_tx_mem_pool_entry.html#a2deed4202061edf8b040a3f554417c20" target="_top" xlink:title="CTxMemPoolEntry::GetTx">
<polygon fill="#ffffff" stroke="#000000" points="398.5,-269.6429 398.5,-288.6429 531.5,-288.6429 531.5,-269.6429 398.5,-269.6429"/>
<text text-anchor="middle" x="465" y="-276.6429" font-family="Helvetica,sans-Serif" font-size="10.00" fill="#000000">CTxMemPoolEntry::GetTx</text>
</a>
</g>
</g>
<!-- Node75&#45;&gt;Node77 -->
<g id="edge11" class="edge">
<title>Node75&#45;&gt;Node77</title>
<path fill="none" stroke="#191970" d="M327.723,-252.5957C352.4536,-257.3782 381.1235,-262.9225 405.8467,-267.7036"/>
<polygon fill="#191970" stroke="#191970" points="405.3376,-271.1699 415.8203,-269.6323 406.6667,-264.2973 405.3376,-271.1699"/>
</g>
<!-- Node78 -->
<g id="node13" class="node">
<title>Node78</title>
<g id="a_node13"><a xlink:href="class_c_transaction.html#a7efd1379de830341417c0bfa23a149aa" target="_top" xlink:title="CTransaction::GetHash">
<polygon fill="#ffffff" stroke="#000000" points="405,-231.6429 405,-250.6429 525,-250.6429 525,-231.6429 405,-231.6429"/>
<text text-anchor="middle" x="465" y="-238.6429" font-family="Helvetica,sans-Serif" font-size="10.00" fill="#000000">CTransaction::GetHash</text>
</a>
</g>
</g>
<!-- Node75&#45;&gt;Node78 -->
<g id="edge12" class="edge">
<title>Node75&#45;&gt;Node78</title>
<path fill="none" stroke="#191970" d="M327.723,-241.1429C348.7947,-241.1429 372.7262,-241.1429 394.6395,-241.1429"/>
<polygon fill="#191970" stroke="#191970" points="394.8797,-244.643 404.8796,-241.1429 394.8796,-237.643 394.8797,-244.643"/>
</g>
<!-- Node79 -->
<g id="node14" class="node">
<title>Node79</title>
<g id="a_node14"><a xlink:href="classbase__blob.html#a7a0d25782830d8b087c4da839f3ccdeb" target="_top" xlink:title="base_blob::ToString">
<polygon fill="#ffffff" stroke="#000000" points="413,-193.6429 413,-212.6429 517,-212.6429 517,-193.6429 413,-193.6429"/>
<text text-anchor="middle" x="465" y="-200.6429" font-family="Helvetica,sans-Serif" font-size="10.00" fill="#000000">base_blob::ToString</text>
</a>
</g>
</g>
<!-- Node75&#45;&gt;Node79 -->
<g id="edge13" class="edge">
<title>Node75&#45;&gt;Node79</title>
<path fill="none" stroke="#191970" d="M327.723,-229.6901C352.4536,-224.9076 381.1235,-219.3633 405.8467,-214.5822"/>
<polygon fill="#191970" stroke="#191970" points="406.6667,-217.9886 415.8203,-212.6535 405.3376,-211.1159 406.6667,-217.9886"/>
</g>
<!-- Node80 -->
<g id="node15" class="node">
<title>Node80</title>
<g id="a_node15"><a xlink:href="class_c_tx_mem_pool_entry.html#adf67bc503adf4ce7ff8d98769e56fecb" target="_top" xlink:title="CTxMemPoolEntry::GetFee">
<polygon fill="#ffffff" stroke="#000000" points="396,-155.6429 396,-174.6429 534,-174.6429 534,-155.6429 396,-155.6429"/>
<text text-anchor="middle" x="465" y="-162.6429" font-family="Helvetica,sans-Serif" font-size="10.00" fill="#000000">CTxMemPoolEntry::GetFee</text>
</a>
</g>
</g>
<!-- Node75&#45;&gt;Node80 -->
<g id="edge14" class="edge">
<title>Node75&#45;&gt;Node80</title>
<path fill="none" stroke="#191970" d="M296.5574,-225.9299C320.5607,-213.3916 356.313,-195.8311 389,-184.1429 396.0345,-181.6275 403.5493,-179.3169 411.0144,-177.2388"/>
<polygon fill="#191970" stroke="#191970" points="411.9931,-180.6002 420.7548,-174.6434 410.1907,-173.8362 411.9931,-180.6002"/>
</g>
<!-- Node81 -->
<g id="node16" class="node">
<title>Node81</title>
<g id="a_node16"><a xlink:href="class_tx_confirm_stats.html#ae0b014c40cdf3c2207f2677774000261" target="_top" xlink:title="Record a new transaction entering the mempool. ">
<polygon fill="#ffffff" stroke="#000000" points="403.5,-117.6429 403.5,-136.6429 526.5,-136.6429 526.5,-117.6429 403.5,-117.6429"/>
<text text-anchor="middle" x="465" y="-124.6429" font-family="Helvetica,sans-Serif" font-size="10.00" fill="#000000">TxConfirmStats::NewTx</text>
</a>
</g>
</g>
<!-- Node75&#45;&gt;Node81 -->
<g id="edge16" class="edge">
<title>Node75&#45;&gt;Node81</title>
<path fill="none" stroke="#191970" d="M283.3877,-225.8784C304.8037,-204.8038 346.4328,-167.0369 389,-146.1429 393.8836,-143.7458 399.0966,-141.6339 404.4167,-139.7767"/>
<polygon fill="#191970" stroke="#191970" points="405.5964,-143.0742 414.0608,-136.702 403.4701,-136.405 405.5964,-143.0742"/>
</g>
<!-- Node83 -->
<g id="node18" class="node">
<title>Node83</title>
<g id="a_node18"><a xlink:href="struct_c_mutable_transaction.html#a3d1d6bdf1c3865faf69e7255d1ad7071" target="_top" xlink:title="CMutableTransaction\l::HasWitness">
<polygon fill="#ffffff" stroke="#000000" points="410,-68.1429 410,-98.1429 520,-98.1429 520,-68.1429 410,-68.1429"/>
<text text-anchor="start" x="418" y="-86.1429" font-family="Helvetica,sans-Serif" font-size="10.00" fill="#000000">CMutableTransaction</text>
<text text-anchor="middle" x="465" y="-75.1429" font-family="Helvetica,sans-Serif" font-size="10.00" fill="#000000">::HasWitness</text>
</a>
</g>
</g>
<!-- Node82&#45;&gt;Node83 -->
<g id="edge18" class="edge">
<title>Node82&#45;&gt;Node83</title>
<path fill="none" stroke="#191970" d="M346.4442,-68.6628C364.0137,-70.8087 382.4891,-73.0653 399.4882,-75.1415"/>
<polygon fill="#191970" stroke="#191970" points="399.5099,-78.6701 409.8605,-76.4083 400.3586,-71.7217 399.5099,-78.6701"/>
</g>
<!-- Node84 -->
<g id="node19" class="node">
<title>Node84</title>
<g id="a_node19"><a xlink:href="struct_c_mutable_transaction.html#a52799a4ca4831f56532c1c0bcb110721" target="_top" xlink:title="Compute the hash of this CMutableTransaction. ">
<polygon fill="#ffffff" stroke="#000000" points="410,-19.1429 410,-49.1429 520,-49.1429 520,-19.1429 410,-19.1429"/>
<text text-anchor="start" x="418" y="-37.1429" font-family="Helvetica,sans-Serif" font-size="10.00" fill="#000000">CMutableTransaction</text>
<text text-anchor="middle" x="465" y="-26.1429" font-family="Helvetica,sans-Serif" font-size="10.00" fill="#000000">::GetHash</text>
</a>
</g>
</g>
<!-- Node82&#45;&gt;Node84 -->
<g id="edge19" class="edge">
<title>Node82&#45;&gt;Node84</title>
<path fill="none" stroke="#191970" d="M343.3488,-49.6202C361.9308,-47.2561 381.6986,-44.7411 399.7778,-42.4409"/>
<polygon fill="#191970" stroke="#191970" points="400.4384,-45.8852 409.9167,-41.151 399.5549,-38.9411 400.4384,-45.8852"/>
</g>
<!-- Node85 -->
<g id="node20" class="node">
<title>Node85</title>
<g id="a_node20"><a xlink:href="hash_8h.html#a6de694e43f17c62025c6883965b65e63" target="_top" xlink:title="Compute the 256&#45;bit hash of an object&#39;s serialization. ">
<polygon fill="#ffffff" stroke="#000000" points="604,-2.6429 604,-21.6429 681,-21.6429 681,-2.6429 604,-2.6429"/>
<text text-anchor="middle" x="642.5" y="-9.6429" font-family="Helvetica,sans-Serif" font-size="10.00" fill="#000000">SerializeHash</text>
</a>
</g>
</g>
<!-- Node82&#45;&gt;Node85 -->
<g id="edge21" class="edge">
<title>Node82&#45;&gt;Node85</title>
<path fill="none" stroke="#191970" d="M285.3818,-49.6197C308.0911,-37.4089 350.1272,-16.8877 389,-9.1429 459.0645,4.8163 542.1926,-.1323 593.6507,-5.6236"/>
<polygon fill="#191970" stroke="#191970" points="593.4936,-9.1277 603.8205,-6.7602 594.2712,-2.171 593.4936,-9.1277"/>
</g>
<!-- Node84&#45;&gt;Node85 -->
<g id="edge20" class="edge">
<title>Node84&#45;&gt;Node85</title>
<path fill="none" stroke="#191970" d="M520.1891,-27.3026C543.7525,-24.3821 571.0175,-21.0027 593.8172,-18.1769"/>
<polygon fill="#191970" stroke="#191970" points="594.4557,-21.6246 603.9493,-16.9211 593.5946,-14.6777 594.4557,-21.6246"/>
</g>
</g>
</svg>
