<?xml version="1.0" encoding="UTF-8" standalone="no"?>
<!DOCTYPE svg PUBLIC "-//W3C//DTD SVG 1.1//EN"
 "http://www.w3.org/Graphics/SVG/1.1/DTD/svg11.dtd">
<!-- Generated by graphviz version 2.40.1 (20161225.0304)
 -->
<!-- Title: CNetAddr::GetGroup Pages: 1 -->
<svg width="601pt" height="218pt"
 viewBox="0.00 0.00 601.00 218.00" xmlns="http://www.w3.org/2000/svg" xmlns:xlink="http://www.w3.org/1999/xlink">
<g id="graph0" class="graph" transform="scale(1 1) rotate(0) translate(4 214)">
<title>CNetAddr::GetGroup</title>
<polygon fill="#ffffff" stroke="transparent" points="-4,4 -4,-214 597,-214 597,4 -4,4"/>
<!-- Node65 -->
<g id="node1" class="node">
<title>Node65</title>
<polygon fill="#bfbfbf" stroke="#000000" points="0,-57.5 0,-76.5 108,-76.5 108,-57.5 0,-57.5"/>
<text text-anchor="middle" x="54" y="-64.5" font-family="Helvetica,sans-Serif" font-size="10.00" fill="#000000">CNetAddr::GetGroup</text>
</g>
<!-- Node66 -->
<g id="node2" class="node">
<title>Node66</title>
<g id="a_node2"><a xlink:href="class_c_addr_info.html#a11e2712f11c0d92c75976e90f2c5003e" target="_top" xlink:title="Calculate in which &quot;tried&quot; bucket this entry belongs. ">
<polygon fill="#ffffff" stroke="#000000" points="147,-114.5 147,-133.5 282,-133.5 282,-114.5 147,-114.5"/>
<text text-anchor="middle" x="214.5" y="-121.5" font-family="Helvetica,sans-Serif" font-size="10.00" fill="#000000">CAddrInfo::GetTriedBucket</text>
</a>
</g>
</g>
<!-- Node65&#45;&gt;Node66 -->
<g id="edge1" class="edge">
<title>Node65&#45;&gt;Node66</title>
<path fill="none" stroke="#191970" d="M90.4038,-79.9285C119.9356,-90.4164 160.8985,-104.9639 187.5483,-114.4284"/>
<polygon fill="#191970" stroke="#191970" points="91.4588,-76.589 80.8641,-76.5405 89.1161,-83.1854 91.4588,-76.589"/>
</g>
<!-- Node72 -->
<g id="node8" class="node">
<title>Node72</title>
<g id="a_node8"><a xlink:href="class_c_addr_info.html#ae4459cd7719834bbcf77874757c6875e" target="_top" xlink:title="Calculate in which &quot;new&quot; bucket this entry belongs, given a certain source. ">
<polygon fill="#ffffff" stroke="#000000" points="147.5,-57.5 147.5,-76.5 281.5,-76.5 281.5,-57.5 147.5,-57.5"/>
<text text-anchor="middle" x="214.5" y="-64.5" font-family="Helvetica,sans-Serif" font-size="10.00" fill="#000000">CAddrInfo::GetNewBucket</text>
</a>
</g>
</g>
<!-- Node65&#45;&gt;Node72 -->
<g id="edge8" class="edge">
<title>Node65&#45;&gt;Node72</title>
<path fill="none" stroke="#191970" d="M118.5126,-67C128.0248,-67 137.8441,-67 147.4071,-67"/>
<polygon fill="#191970" stroke="#191970" points="118.338,-63.5001 108.338,-67 118.3379,-70.5001 118.338,-63.5001"/>
</g>
<!-- Node75 -->
<g id="node11" class="node">
<title>Node75</title>
<g id="a_node11"><a xlink:href="class_c_connman.html#aaddc98400cec25d36460a45bf6fbaabf" target="_top" xlink:title="CConnman::CalculateKeyed\lNetGroup">
<polygon fill="#ffffff" stroke="#000000" points="144,-8 144,-38 285,-38 285,-8 144,-8"/>
<text text-anchor="start" x="152" y="-26" font-family="Helvetica,sans-Serif" font-size="10.00" fill="#000000">CConnman::CalculateKeyed</text>
<text text-anchor="middle" x="214.5" y="-15" font-family="Helvetica,sans-Serif" font-size="10.00" fill="#000000">NetGroup</text>
</a>
</g>
</g>
<!-- Node65&#45;&gt;Node75 -->
<g id="edge12" class="edge">
<title>Node65&#45;&gt;Node75</title>
<path fill="none" stroke="#191970" d="M98.6488,-54.7598C117.5194,-49.5866 139.6839,-43.5103 159.5457,-38.0654"/>
<polygon fill="#191970" stroke="#191970" points="97.5449,-51.4332 88.8261,-57.4527 99.3957,-58.1842 97.5449,-51.4332"/>
</g>
<!-- Node67 -->
<g id="node3" class="node">
<title>Node67</title>
<g id="a_node3"><a xlink:href="class_c_addr_man.html#a98e8383efb48b7c2932795438f35a10a" target="_top" xlink:title="Move an entry from the &quot;new&quot; table(s) to the &quot;tried&quot; table. ">
<polygon fill="#ffffff" stroke="#000000" points="330.5,-190.5 330.5,-209.5 445.5,-209.5 445.5,-190.5 330.5,-190.5"/>
<text text-anchor="middle" x="388" y="-197.5" font-family="Helvetica,sans-Serif" font-size="10.00" fill="#000000">CAddrMan::MakeTried</text>
</a>
</g>
</g>
<!-- Node66&#45;&gt;Node67 -->
<g id="edge2" class="edge">
<title>Node66&#45;&gt;Node67</title>
<path fill="none" stroke="#191970" d="M241.7783,-138.3527C263.0694,-149.3015 293.5437,-164.421 321,-176 333.2955,-181.1853 347.1412,-186.267 359.0408,-190.4096"/>
<polygon fill="#191970" stroke="#191970" points="243.1753,-135.1347 232.686,-133.6434 239.9559,-141.3505 243.1753,-135.1347"/>
</g>
<!-- Node68 -->
<g id="node4" class="node">
<title>Node68</title>
<g id="a_node4"><a xlink:href="class_c_addr_man.html#a27e51ef4fe86db1ff5a5e45caefc1ef4" target="_top" xlink:title="Select an address to connect to, if newOnly is set to true, only the new table is selected from...">
<polygon fill="#ffffff" stroke="#000000" points="491,-133.5 491,-152.5 593,-152.5 593,-133.5 491,-133.5"/>
<text text-anchor="middle" x="542" y="-140.5" font-family="Helvetica,sans-Serif" font-size="10.00" fill="#000000">CAddrMan::Select_</text>
</a>
</g>
</g>
<!-- Node66&#45;&gt;Node68 -->
<g id="edge3" class="edge">
<title>Node66&#45;&gt;Node68</title>
<path fill="none" stroke="#191970" d="M268.0219,-135.4516C284.8897,-138.5473 303.648,-141.4643 321,-143 379.0924,-148.1414 446.1112,-147.1774 490.9765,-145.5456"/>
<polygon fill="#191970" stroke="#191970" points="268.2701,-131.9364 257.793,-133.5117 266.9657,-138.8138 268.2701,-131.9364"/>
</g>
<!-- Node69 -->
<g id="node5" class="node">
<title>Node69</title>
<g id="a_node5"><a xlink:href="class_c_addr_info.html#ae14c3a91bb669e5580be1d3767264187" target="_top" xlink:title="CAddrInfo::CAddrInfo">
<polygon fill="#ffffff" stroke="#000000" points="332.5,-76.5 332.5,-95.5 443.5,-95.5 443.5,-76.5 332.5,-76.5"/>
<text text-anchor="middle" x="388" y="-83.5" font-family="Helvetica,sans-Serif" font-size="10.00" fill="#000000">CAddrInfo::CAddrInfo</text>
</a>
</g>
</g>
<!-- Node66&#45;&gt;Node69 -->
<g id="edge4" class="edge">
<title>Node66&#45;&gt;Node69</title>
<path fill="none" stroke="#191970" d="M268.1598,-112.2474C292.6927,-106.8742 321.3787,-100.5914 344.5335,-95.5201"/>
<polygon fill="#191970" stroke="#191970" points="267.301,-108.8525 258.2814,-114.411 268.7987,-115.6904 267.301,-108.8525"/>
</g>
<!-- Node71 -->
<g id="node7" class="node">
<title>Node71</title>
<g id="a_node7"><a xlink:href="class_c_addr_man.html#a94c76a39ab311deb9e7b810e01b664ce" target="_top" xlink:title="CAddrMan::Unserialize">
<polygon fill="#ffffff" stroke="#000000" points="329,-114.5 329,-133.5 447,-133.5 447,-114.5 329,-114.5"/>
<text text-anchor="middle" x="388" y="-121.5" font-family="Helvetica,sans-Serif" font-size="10.00" fill="#000000">CAddrMan::Unserialize</text>
</a>
</g>
</g>
<!-- Node66&#45;&gt;Node71 -->
<g id="edge7" class="edge">
<title>Node66&#45;&gt;Node71</title>
<path fill="none" stroke="#191970" d="M292.2921,-124C304.5471,-124 317.0431,-124 328.7878,-124"/>
<polygon fill="#191970" stroke="#191970" points="292.0765,-120.5001 282.0764,-124 292.0764,-127.5001 292.0765,-120.5001"/>
</g>
<!-- Node69&#45;&gt;Node68 -->
<g id="edge6" class="edge">
<title>Node69&#45;&gt;Node68</title>
<path fill="none" stroke="#191970" d="M434.956,-98.4406C441.7286,-100.488 448.5763,-102.6983 455,-105 478.5844,-113.4508 504.8333,-125.2627 522.2681,-133.4652"/>
<polygon fill="#191970" stroke="#191970" points="435.726,-95.0192 425.1453,-95.566 433.7577,-101.7367 435.726,-95.0192"/>
</g>
<!-- Node70 -->
<g id="node6" class="node">
<title>Node70</title>
<g id="a_node6"><a xlink:href="class_c_addr_man.html#af5d1e15be40f1d6bfa3e614730e46a04" target="_top" xlink:title="find an entry, creating it if necessary. ">
<polygon fill="#ffffff" stroke="#000000" points="493,-76.5 493,-95.5 591,-95.5 591,-76.5 493,-76.5"/>
<text text-anchor="middle" x="542" y="-83.5" font-family="Helvetica,sans-Serif" font-size="10.00" fill="#000000">CAddrMan::Create</text>
</a>
</g>
</g>
<!-- Node69&#45;&gt;Node70 -->
<g id="edge5" class="edge">
<title>Node69&#45;&gt;Node70</title>
<path fill="none" stroke="#191970" d="M453.9446,-86C466.9989,-86 480.4862,-86 492.8633,-86"/>
<polygon fill="#191970" stroke="#191970" points="453.5976,-82.5001 443.5975,-86 453.5975,-89.5001 453.5976,-82.5001"/>
</g>
<!-- Node72&#45;&gt;Node69 -->
<g id="edge10" class="edge">
<title>Node72&#45;&gt;Node69</title>
<path fill="none" stroke="#191970" d="M291.9124,-75.4774C305.5333,-76.9691 319.4648,-78.4947 332.3428,-79.905"/>
<polygon fill="#191970" stroke="#191970" points="291.9012,-71.9554 281.5796,-74.3459 291.1392,-78.9138 291.9012,-71.9554"/>
</g>
<!-- Node73 -->
<g id="node9" class="node">
<title>Node73</title>
<g id="a_node9"><a xlink:href="class_c_addr_man.html#a9dd6df8b1904548a86054d19d4a90724" target="_top" xlink:title="Add an entry to the &quot;new&quot; table. ">
<polygon fill="#ffffff" stroke="#000000" points="342,-38.5 342,-57.5 434,-57.5 434,-38.5 342,-38.5"/>
<text text-anchor="middle" x="388" y="-45.5" font-family="Helvetica,sans-Serif" font-size="10.00" fill="#000000">CAddrMan::Add_</text>
</a>
</g>
</g>
<!-- Node72&#45;&gt;Node73 -->
<g id="edge9" class="edge">
<title>Node72&#45;&gt;Node73</title>
<path fill="none" stroke="#191970" d="M291.5824,-58.5587C308.706,-56.6835 326.3384,-54.7526 341.766,-53.0631"/>
<polygon fill="#191970" stroke="#191970" points="291.1392,-55.0862 281.5796,-59.6541 291.9012,-62.0446 291.1392,-55.0862"/>
</g>
<!-- Node74 -->
<g id="node10" class="node">
<title>Node74</title>
<g id="a_node10"><a xlink:href="class_c_addr_info.html#a04ac79764971242edce1e82aefb2aea0" target="_top" xlink:title="Calculate in which &quot;new&quot; bucket this entry belongs, using its default source. ">
<polygon fill="#ffffff" stroke="#000000" points="321,-.5 321,-19.5 455,-19.5 455,-.5 321,-.5"/>
<text text-anchor="middle" x="388" y="-7.5" font-family="Helvetica,sans-Serif" font-size="10.00" fill="#000000">CAddrInfo::GetNewBucket</text>
</a>
</g>
</g>
<!-- Node72&#45;&gt;Node74 -->
<g id="edge11" class="edge">
<title>Node72&#45;&gt;Node74</title>
<path fill="none" stroke="#191970" d="M262.7586,-54.6122C270.2814,-52.3085 277.9072,-49.7513 285,-47 301.6777,-40.5306 304.3219,-35.4686 321,-29 330.1307,-25.4587 340.1909,-22.2562 349.6784,-19.5327"/>
<polygon fill="#191970" stroke="#191970" points="261.5869,-51.3085 252.9819,-57.4896 263.5633,-58.0238 261.5869,-51.3085"/>
</g>
</g>
</svg>
