<?xml version="1.0" encoding="UTF-8" standalone="no"?>
<!DOCTYPE svg PUBLIC "-//W3C//DTD SVG 1.1//EN"
 "http://www.w3.org/Graphics/SVG/1.1/DTD/svg11.dtd">
<!-- Generated by graphviz version 2.40.1 (20161225.0304)
 -->
<!-- Title: ClientModel::getMempoolDynamicUsage Pages: 1 -->
<svg width="501pt" height="39pt"
 viewBox="0.00 0.00 501.00 39.00" xmlns="http://www.w3.org/2000/svg" xmlns:xlink="http://www.w3.org/1999/xlink">
<g id="graph0" class="graph" transform="scale(1 1) rotate(0) translate(4 35)">
<title>ClientModel::getMempoolDynamicUsage</title>
<polygon fill="#ffffff" stroke="transparent" points="-4,4 -4,-35 497,-35 497,4 -4,4"/>
<!-- Node101 -->
<g id="node1" class="node">
<title>Node101</title>
<polygon fill="#bfbfbf" stroke="#000000" points="0,-.5 0,-30.5 167,-30.5 167,-.5 0,-.5"/>
<text text-anchor="start" x="8" y="-18.5" font-family="Helvetica,sans-Serif" font-size="10.00" fill="#000000">ClientModel::getMempoolDynamic</text>
<text text-anchor="middle" x="83.5" y="-7.5" font-family="Helvetica,sans-Serif" font-size="10.00" fill="#000000">Usage</text>
</g>
<!-- Node102 -->
<g id="node2" class="node">
<title>Node102</title>
<g id="a_node2"><a xlink:href="class_client_model.html#a82d434ebd032c00736e043ce2d36ac5e" target="_top" xlink:title="ClientModel::updateTimer">
<polygon fill="#ffffff" stroke="#000000" points="203,-6 203,-25 331,-25 331,-6 203,-6"/>
<text text-anchor="middle" x="267" y="-13" font-family="Helvetica,sans-Serif" font-size="10.00" fill="#000000">ClientModel::updateTimer</text>
</a>
</g>
</g>
<!-- Node101&#45;&gt;Node102 -->
<g id="edge1" class="edge">
<title>Node101&#45;&gt;Node102</title>
<path fill="none" stroke="#191970" d="M177.3496,-15.5C186.0056,-15.5 194.6366,-15.5 202.9343,-15.5"/>
<polygon fill="#191970" stroke="#191970" points="177.1953,-12.0001 167.1953,-15.5 177.1952,-19.0001 177.1953,-12.0001"/>
</g>
<!-- Node103 -->
<g id="node3" class="node">
<title>Node103</title>
<g id="a_node3"><a xlink:href="class_client_model.html#aec1d32d5dc8c094eba66036a19a22854" target="_top" xlink:title="ClientModel::ClientModel">
<polygon fill="#ffffff" stroke="#000000" points="367,-6 367,-25 493,-25 493,-6 367,-6"/>
<text text-anchor="middle" x="430" y="-13" font-family="Helvetica,sans-Serif" font-size="10.00" fill="#000000">ClientModel::ClientModel</text>
</a>
</g>
</g>
<!-- Node102&#45;&gt;Node103 -->
<g id="edge2" class="edge">
<title>Node102&#45;&gt;Node103</title>
<path fill="none" stroke="#191970" d="M341.6288,-15.5C350.0569,-15.5 358.5836,-15.5 366.8451,-15.5"/>
<polygon fill="#191970" stroke="#191970" points="341.422,-12.0001 331.4219,-15.5 341.4219,-19.0001 341.422,-12.0001"/>
</g>
</g>
</svg>
