<?xml version="1.0" encoding="UTF-8" standalone="no"?>
<!DOCTYPE svg PUBLIC "-//W3C//DTD SVG 1.1//EN"
 "http://www.w3.org/Graphics/SVG/1.1/DTD/svg11.dtd">
<!-- Generated by graphviz version 2.40.1 (20161225.0304)
 -->
<!-- Title: RecentRequestsTableModel::getAmountTitle Pages: 1 -->
<svg width="334pt" height="104pt"
 viewBox="0.00 0.00 334.00 104.00" xmlns="http://www.w3.org/2000/svg" xmlns:xlink="http://www.w3.org/1999/xlink">
<g id="graph0" class="graph" transform="scale(1 1) rotate(0) translate(4 100)">
<title>RecentRequestsTableModel::getAmountTitle</title>
<polygon fill="#ffffff" stroke="transparent" points="-4,4 -4,-100 330,-100 330,4 -4,4"/>
<!-- Node57 -->
<g id="node1" class="node">
<title>Node57</title>
<polygon fill="#bfbfbf" stroke="#000000" points="0,-33 0,-63 140,-63 140,-33 0,-33"/>
<text text-anchor="start" x="8" y="-51" font-family="Helvetica,sans-Serif" font-size="10.00" fill="#000000">RecentRequestsTableModel</text>
<text text-anchor="middle" x="70" y="-40" font-family="Helvetica,sans-Serif" font-size="10.00" fill="#000000">::getAmountTitle</text>
</g>
<!-- Node58 -->
<g id="node2" class="node">
<title>Node58</title>
<g id="a_node2"><a xlink:href="class_wallet_model.html#a96d53e56b3f8f07537ea2523f7a7d300" target="_top" xlink:title="WalletModel::getOptionsModel">
<polygon fill="#ffffff" stroke="#000000" points="176,-76.5 176,-95.5 326,-95.5 326,-76.5 176,-76.5"/>
<text text-anchor="middle" x="251" y="-83.5" font-family="Helvetica,sans-Serif" font-size="10.00" fill="#000000">WalletModel::getOptionsModel</text>
</a>
</g>
</g>
<!-- Node57&#45;&gt;Node58 -->
<g id="edge1" class="edge">
<title>Node57&#45;&gt;Node58</title>
<path fill="none" stroke="#191970" d="M140.2384,-62.7462C158.5964,-66.6003 178.1269,-70.7007 195.5936,-74.3677"/>
<polygon fill="#191970" stroke="#191970" points="195.109,-77.8422 205.6148,-76.4716 196.5474,-70.9916 195.109,-77.8422"/>
</g>
<!-- Node59 -->
<g id="node3" class="node">
<title>Node59</title>
<g id="a_node3"><a xlink:href="class_raven_units.html#a357d3a6cb01154a8da132d435c7fd436" target="_top" xlink:title="Short name. ">
<polygon fill="#ffffff" stroke="#000000" points="202,-38.5 202,-57.5 300,-57.5 300,-38.5 202,-38.5"/>
<text text-anchor="middle" x="251" y="-45.5" font-family="Helvetica,sans-Serif" font-size="10.00" fill="#000000">RavenUnits::name</text>
</a>
</g>
</g>
<!-- Node57&#45;&gt;Node59 -->
<g id="edge2" class="edge">
<title>Node57&#45;&gt;Node59</title>
<path fill="none" stroke="#191970" d="M140.2384,-48C157.2727,-48 175.3166,-48 191.7845,-48"/>
<polygon fill="#191970" stroke="#191970" points="191.8113,-51.5001 201.8113,-48 191.8113,-44.5001 191.8113,-51.5001"/>
</g>
<!-- Node60 -->
<g id="node4" class="node">
<title>Node60</title>
<g id="a_node4"><a xlink:href="class_options_model.html#a00a1f0842f764f64086e7d5d42bbce63" target="_top" xlink:title="OptionsModel::getDisplayUnit">
<polygon fill="#ffffff" stroke="#000000" points="177.5,-.5 177.5,-19.5 324.5,-19.5 324.5,-.5 177.5,-.5"/>
<text text-anchor="middle" x="251" y="-7.5" font-family="Helvetica,sans-Serif" font-size="10.00" fill="#000000">OptionsModel::getDisplayUnit</text>
</a>
</g>
</g>
<!-- Node57&#45;&gt;Node60 -->
<g id="edge3" class="edge">
<title>Node57&#45;&gt;Node60</title>
<path fill="none" stroke="#191970" d="M140.2384,-33.2538C158.5964,-29.3997 178.1269,-25.2993 195.5936,-21.6323"/>
<polygon fill="#191970" stroke="#191970" points="196.5474,-25.0084 205.6148,-19.5284 195.109,-18.1578 196.5474,-25.0084"/>
</g>
</g>
</svg>
