<?xml version="1.0" encoding="UTF-8" standalone="no"?>
<!DOCTYPE svg PUBLIC "-//W3C//DTD SVG 1.1//EN"
 "http://www.w3.org/Graphics/SVG/1.1/DTD/svg11.dtd">
<!-- Generated by graphviz version 2.40.1 (20161225.0304)
 -->
<!-- Title: ArgsManager::GetArgs Pages: 1 -->
<svg width="469pt" height="104pt"
 viewBox="0.00 0.00 469.00 104.00" xmlns="http://www.w3.org/2000/svg" xmlns:xlink="http://www.w3.org/1999/xlink">
<g id="graph0" class="graph" transform="scale(1 1) rotate(0) translate(4 100)">
<title>ArgsManager::GetArgs</title>
<polygon fill="#ffffff" stroke="transparent" points="-4,4 -4,-100 465,-100 465,4 -4,4"/>
<!-- Node384 -->
<g id="node1" class="node">
<title>Node384</title>
<polygon fill="#bfbfbf" stroke="#000000" points="0,-38.5 0,-57.5 116,-57.5 116,-38.5 0,-38.5"/>
<text text-anchor="middle" x="58" y="-45.5" font-family="Helvetica,sans-Serif" font-size="10.00" fill="#000000">ArgsManager::GetArgs</text>
</g>
<!-- Node385 -->
<g id="node2" class="node">
<title>Node385</title>
<g id="a_node2"><a xlink:href="wallet_2init_8h.html#a98c52e19a11481baa524af582b460273" target="_top" xlink:title="Wallets parameter interaction. ">
<polygon fill="#ffffff" stroke="#000000" points="174.5,-76.5 174.5,-95.5 309.5,-95.5 309.5,-76.5 174.5,-76.5"/>
<text text-anchor="middle" x="242" y="-83.5" font-family="Helvetica,sans-Serif" font-size="10.00" fill="#000000">WalletParameterInteraction</text>
</a>
</g>
</g>
<!-- Node384&#45;&gt;Node385 -->
<g id="edge1" class="edge">
<title>Node384&#45;&gt;Node385</title>
<path fill="none" stroke="#191970" d="M114.5606,-59.681C140.6542,-65.0699 171.2378,-71.3861 195.9029,-76.4799"/>
<polygon fill="#191970" stroke="#191970" points="114.9322,-56.184 104.431,-57.589 113.5164,-63.0393 114.9322,-56.184"/>
</g>
<!-- Node386 -->
<g id="node3" class="node">
<title>Node386</title>
<g id="a_node3"><a xlink:href="class_c_connman.html#ac4c8cf5142f88565e789f3b173d89b3e" target="_top" xlink:title="CConnman::ThreadOpenConnections">
<polygon fill="#ffffff" stroke="#000000" points="152,-38.5 152,-57.5 332,-57.5 332,-38.5 152,-38.5"/>
<text text-anchor="middle" x="242" y="-45.5" font-family="Helvetica,sans-Serif" font-size="10.00" fill="#000000">CConnman::ThreadOpenConnections</text>
</a>
</g>
</g>
<!-- Node384&#45;&gt;Node386 -->
<g id="edge2" class="edge">
<title>Node384&#45;&gt;Node386</title>
<path fill="none" stroke="#191970" d="M126.2595,-48C134.6219,-48 143.2653,-48 151.8866,-48"/>
<polygon fill="#191970" stroke="#191970" points="126.2188,-44.5001 116.2188,-48 126.2187,-51.5001 126.2188,-44.5001"/>
</g>
<!-- Node388 -->
<g id="node5" class="node">
<title>Node388</title>
<g id="a_node5"><a xlink:href="server_8h.html#a009fe8e9bab18fcd23b9c273157d182f" target="_top" xlink:title="IsDeprecatedRPCEnabled">
<polygon fill="#ffffff" stroke="#000000" points="176,-.5 176,-19.5 308,-19.5 308,-.5 176,-.5"/>
<text text-anchor="middle" x="242" y="-7.5" font-family="Helvetica,sans-Serif" font-size="10.00" fill="#000000">IsDeprecatedRPCEnabled</text>
</a>
</g>
</g>
<!-- Node384&#45;&gt;Node388 -->
<g id="edge4" class="edge">
<title>Node384&#45;&gt;Node388</title>
<path fill="none" stroke="#191970" d="M114.5606,-36.319C140.6542,-30.9301 171.2378,-24.6139 195.9029,-19.5201"/>
<polygon fill="#191970" stroke="#191970" points="113.5164,-32.9607 104.431,-38.411 114.9322,-39.816 113.5164,-32.9607"/>
</g>
<!-- Node387 -->
<g id="node4" class="node">
<title>Node387</title>
<g id="a_node4"><a xlink:href="class_c_connman.html#aa4709e5604e0f4369dada0a211493565" target="_top" xlink:title="CConnman::Start">
<polygon fill="#ffffff" stroke="#000000" points="368,-38.5 368,-57.5 461,-57.5 461,-38.5 368,-38.5"/>
<text text-anchor="middle" x="414.5" y="-45.5" font-family="Helvetica,sans-Serif" font-size="10.00" fill="#000000">CConnman::Start</text>
</a>
</g>
</g>
<!-- Node386&#45;&gt;Node387 -->
<g id="edge3" class="edge">
<title>Node386&#45;&gt;Node387</title>
<path fill="none" stroke="#191970" d="M342.1804,-48C351.1043,-48 359.8239,-48 367.9433,-48"/>
<polygon fill="#191970" stroke="#191970" points="342.0392,-44.5001 332.0392,-48 342.0392,-51.5001 342.0392,-44.5001"/>
</g>
<!-- Node389 -->
<g id="node6" class="node">
<title>Node389</title>
<g id="a_node6"><a xlink:href="mining_8cpp.html#a9337f53fdcee55966dff25f5935d9126" target="_top" xlink:title="estimatefee">
<polygon fill="#ffffff" stroke="#000000" points="380.5,-.5 380.5,-19.5 448.5,-19.5 448.5,-.5 380.5,-.5"/>
<text text-anchor="middle" x="414.5" y="-7.5" font-family="Helvetica,sans-Serif" font-size="10.00" fill="#000000">estimatefee</text>
</a>
</g>
</g>
<!-- Node388&#45;&gt;Node389 -->
<g id="edge5" class="edge">
<title>Node388&#45;&gt;Node389</title>
<path fill="none" stroke="#191970" d="M318.3603,-10C339.9242,-10 362.3238,-10 380.0713,-10"/>
<polygon fill="#191970" stroke="#191970" points="318.1997,-6.5001 308.1997,-10 318.1996,-13.5001 318.1997,-6.5001"/>
</g>
</g>
</svg>
