<?xml version="1.0" encoding="UTF-8" standalone="no"?>
<!DOCTYPE svg PUBLIC "-//W3C//DTD SVG 1.1//EN"
 "http://www.w3.org/Graphics/SVG/1.1/DTD/svg11.dtd">
<!-- Generated by graphviz version 2.40.1 (20161225.0304)
 -->
<!-- Title: AmountSpinBox::validate Pages: 1 -->
<svg width="782pt" height="123pt"
 viewBox="0.00 0.00 782.00 123.00" xmlns="http://www.w3.org/2000/svg" xmlns:xlink="http://www.w3.org/1999/xlink">
<g id="graph0" class="graph" transform="scale(1 1) rotate(0) translate(4 119)">
<title>AmountSpinBox::validate</title>
<polygon fill="#ffffff" stroke="transparent" points="-4,4 -4,-119 778,-119 778,4 -4,4"/>
<!-- Node124 -->
<g id="node1" class="node">
<title>Node124</title>
<polygon fill="#bfbfbf" stroke="#000000" points="0,-76.5 0,-95.5 127,-95.5 127,-76.5 0,-76.5"/>
<text text-anchor="middle" x="63.5" y="-83.5" font-family="Helvetica,sans-Serif" font-size="10.00" fill="#000000">AmountSpinBox::validate</text>
</g>
<!-- Node125 -->
<g id="node2" class="node">
<title>Node125</title>
<g id="a_node2"><a xlink:href="class_amount_spin_box.html#a487085fe9dc6d6aaa1d2e2a55852f587" target="_top" xlink:title="Parse a string into a number of base monetary units and return validity. ">
<polygon fill="#ffffff" stroke="#000000" points="163,-76.5 163,-95.5 280,-95.5 280,-76.5 163,-76.5"/>
<text text-anchor="middle" x="221.5" y="-83.5" font-family="Helvetica,sans-Serif" font-size="10.00" fill="#000000">AmountSpinBox::parse</text>
</a>
</g>
</g>
<!-- Node124&#45;&gt;Node125 -->
<g id="edge1" class="edge">
<title>Node124&#45;&gt;Node125</title>
<path fill="none" stroke="#191970" d="M127.3092,-86C135.651,-86 144.2276,-86 152.6479,-86"/>
<polygon fill="#191970" stroke="#191970" points="152.8149,-89.5001 162.8149,-86 152.8148,-82.5001 152.8149,-89.5001"/>
</g>
<!-- Node126 -->
<g id="node3" class="node">
<title>Node126</title>
<g id="a_node3"><a xlink:href="class_raven_units.html#af5e74a09a2c73d1dc08b571ee312f631" target="_top" xlink:title="RavenUnits::assetParse">
<polygon fill="#ffffff" stroke="#000000" points="316,-76.5 316,-95.5 440,-95.5 440,-76.5 316,-76.5"/>
<text text-anchor="middle" x="378" y="-83.5" font-family="Helvetica,sans-Serif" font-size="10.00" fill="#000000">RavenUnits::assetParse</text>
</a>
</g>
</g>
<!-- Node125&#45;&gt;Node126 -->
<g id="edge2" class="edge">
<title>Node125&#45;&gt;Node126</title>
<path fill="none" stroke="#191970" d="M280.2201,-86C288.4828,-86 297.0559,-86 305.5378,-86"/>
<polygon fill="#191970" stroke="#191970" points="305.8116,-89.5001 315.8116,-86 305.8116,-82.5001 305.8116,-89.5001"/>
</g>
<!-- Node128 -->
<g id="node5" class="node">
<title>Node128</title>
<g id="a_node5"><a xlink:href="class_raven_units.html#afcf268875a556bcacdf6a8b6fb5a4149" target="_top" xlink:title="Return maximum number of base units (Satoshis) ">
<polygon fill="#ffffff" stroke="#000000" points="652,-95.5 652,-114.5 774,-114.5 774,-95.5 652,-95.5"/>
<text text-anchor="middle" x="713" y="-102.5" font-family="Helvetica,sans-Serif" font-size="10.00" fill="#000000">RavenUnits::maxMoney</text>
</a>
</g>
</g>
<!-- Node125&#45;&gt;Node128 -->
<g id="edge10" class="edge">
<title>Node125&#45;&gt;Node128</title>
<path fill="none" stroke="#191970" d="M259.8598,-95.5099C276.9302,-99.2749 297.3494,-103.1437 316,-105 429.3892,-116.286 561.8994,-112.9948 641.5424,-109.2475"/>
<polygon fill="#191970" stroke="#191970" points="642.1256,-112.7234 651.9436,-108.7413 641.7853,-105.7316 642.1256,-112.7234"/>
</g>
<!-- Node130 -->
<g id="node7" class="node">
<title>Node130</title>
<g id="a_node7"><a xlink:href="class_raven_units.html#affaad322be327986fd98a14404c7d81e" target="_top" xlink:title="Parse string to coin amount. ">
<polygon fill="#ffffff" stroke="#000000" points="329,-38.5 329,-57.5 427,-57.5 427,-38.5 329,-38.5"/>
<text text-anchor="middle" x="378" y="-45.5" font-family="Helvetica,sans-Serif" font-size="10.00" fill="#000000">RavenUnits::parse</text>
</a>
</g>
</g>
<!-- Node125&#45;&gt;Node130 -->
<g id="edge6" class="edge">
<title>Node125&#45;&gt;Node130</title>
<path fill="none" stroke="#191970" d="M260.9916,-76.411C281.6434,-71.3965 307.114,-65.2119 329.0125,-59.8947"/>
<polygon fill="#191970" stroke="#191970" points="329.9007,-63.2809 338.7924,-57.5201 328.2489,-56.4785 329.9007,-63.2809"/>
</g>
<!-- Node127 -->
<g id="node4" class="node">
<title>Node127</title>
<g id="a_node4"><a xlink:href="class_raven_units.html#a21db9aa82ae32bd1a7155d30d8840307" target="_top" xlink:title="RavenUnits::removeSpaces">
<polygon fill="#ffffff" stroke="#000000" points="476,-76.5 476,-95.5 616,-95.5 616,-76.5 476,-76.5"/>
<text text-anchor="middle" x="546" y="-83.5" font-family="Helvetica,sans-Serif" font-size="10.00" fill="#000000">RavenUnits::removeSpaces</text>
</a>
</g>
</g>
<!-- Node126&#45;&gt;Node127 -->
<g id="edge3" class="edge">
<title>Node126&#45;&gt;Node127</title>
<path fill="none" stroke="#191970" d="M440.0797,-86C448.4774,-86 457.1895,-86 465.8469,-86"/>
<polygon fill="#191970" stroke="#191970" points="465.9628,-89.5001 475.9627,-86 465.9627,-82.5001 465.9628,-89.5001"/>
</g>
<!-- Node129 -->
<g id="node6" class="node">
<title>Node129</title>
<g id="a_node6"><a xlink:href="class_raven_units.html#ab3396a763c2ca8042f331f32904b0580" target="_top" xlink:title="Number of decimals left. ">
<polygon fill="#ffffff" stroke="#000000" points="489.5,-38.5 489.5,-57.5 602.5,-57.5 602.5,-38.5 489.5,-38.5"/>
<text text-anchor="middle" x="546" y="-45.5" font-family="Helvetica,sans-Serif" font-size="10.00" fill="#000000">RavenUnits::decimals</text>
</a>
</g>
</g>
<!-- Node126&#45;&gt;Node129 -->
<g id="edge5" class="edge">
<title>Node126&#45;&gt;Node129</title>
<path fill="none" stroke="#191970" d="M420.3935,-76.411C442.7626,-71.3513 470.3982,-65.1004 494.0472,-59.7512"/>
<polygon fill="#191970" stroke="#191970" points="494.9299,-63.1401 503.9114,-57.5201 493.3856,-56.3125 494.9299,-63.1401"/>
</g>
<!-- Node127&#45;&gt;Node128 -->
<g id="edge4" class="edge">
<title>Node127&#45;&gt;Node128</title>
<path fill="none" stroke="#191970" d="M616.339,-94.0026C624.7043,-94.9544 633.2504,-95.9267 641.6299,-96.88"/>
<polygon fill="#191970" stroke="#191970" points="641.4136,-100.3779 651.7451,-98.0309 642.2049,-93.4228 641.4136,-100.3779"/>
</g>
<!-- Node130&#45;&gt;Node127 -->
<g id="edge9" class="edge">
<title>Node130&#45;&gt;Node127</title>
<path fill="none" stroke="#191970" d="M420.3935,-57.589C442.7626,-62.6487 470.3982,-68.8996 494.0472,-74.2488"/>
<polygon fill="#191970" stroke="#191970" points="493.3856,-77.6875 503.9114,-76.4799 494.9299,-70.8599 493.3856,-77.6875"/>
</g>
<!-- Node130&#45;&gt;Node129 -->
<g id="edge8" class="edge">
<title>Node130&#45;&gt;Node129</title>
<path fill="none" stroke="#191970" d="M427.0442,-48C443.3983,-48 461.904,-48 479.3632,-48"/>
<polygon fill="#191970" stroke="#191970" points="479.4979,-51.5001 489.4979,-48 479.4978,-44.5001 479.4979,-51.5001"/>
</g>
<!-- Node131 -->
<g id="node8" class="node">
<title>Node131</title>
<g id="a_node8"><a xlink:href="class_raven_units.html#a559a7cae18b466371401f02d6407c9c5" target="_top" xlink:title="Is unit ID valid? ">
<polygon fill="#ffffff" stroke="#000000" points="498.5,-.5 498.5,-19.5 593.5,-19.5 593.5,-.5 498.5,-.5"/>
<text text-anchor="middle" x="546" y="-7.5" font-family="Helvetica,sans-Serif" font-size="10.00" fill="#000000">RavenUnits::valid</text>
</a>
</g>
</g>
<!-- Node130&#45;&gt;Node131 -->
<g id="edge7" class="edge">
<title>Node130&#45;&gt;Node131</title>
<path fill="none" stroke="#191970" d="M420.3935,-38.411C442.7626,-33.3513 470.3982,-27.1004 494.0472,-21.7512"/>
<polygon fill="#191970" stroke="#191970" points="494.9299,-25.1401 503.9114,-19.5201 493.3856,-18.3125 494.9299,-25.1401"/>
</g>
</g>
</svg>
