<?xml version="1.0" encoding="UTF-8" standalone="no"?>
<!DOCTYPE svg PUBLIC "-//W3C//DTD SVG 1.1//EN"
 "http://www.w3.org/Graphics/SVG/1.1/DTD/svg11.dtd">
<!-- Generated by graphviz version 2.40.1 (20161225.0304)
 -->
<!-- Title: CreateAssetDialog::selectTypeName Pages: 1 -->
<svg width="254pt" height="88pt"
 viewBox="0.00 0.00 254.00 88.00" xmlns="http://www.w3.org/2000/svg" xmlns:xlink="http://www.w3.org/1999/xlink">
<g id="graph0" class="graph" transform="scale(1 1) rotate(0) translate(4 84)">
<title>CreateAssetDialog::selectTypeName</title>
<polygon fill="#ffffff" stroke="transparent" points="-4,4 -4,-84 250,-84 250,4 -4,4"/>
<!-- Node1229 -->
<g id="node1" class="node">
<title>Node1229</title>
<polygon fill="#bfbfbf" stroke="#000000" points="0,-24.5 0,-54.5 105,-54.5 105,-24.5 0,-24.5"/>
<text text-anchor="start" x="8" y="-42.5" font-family="Helvetica,sans-Serif" font-size="10.00" fill="#000000">CreateAssetDialog::</text>
<text text-anchor="middle" x="52.5" y="-31.5" font-family="Helvetica,sans-Serif" font-size="10.00" fill="#000000">selectTypeName</text>
</g>
<!-- Node1230 -->
<g id="node2" class="node">
<title>Node1230</title>
<g id="a_node2"><a xlink:href="class_create_asset_dialog.html#a9900289907248e0b67e838f4a2db2f6e" target="_top" xlink:title="CreateAssetDialog::\lfocusSubAsset">
<polygon fill="#ffffff" stroke="#000000" points="141,-49.5 141,-79.5 246,-79.5 246,-49.5 141,-49.5"/>
<text text-anchor="start" x="149" y="-67.5" font-family="Helvetica,sans-Serif" font-size="10.00" fill="#000000">CreateAssetDialog::</text>
<text text-anchor="middle" x="193.5" y="-56.5" font-family="Helvetica,sans-Serif" font-size="10.00" fill="#000000">focusSubAsset</text>
</a>
</g>
</g>
<!-- Node1229&#45;&gt;Node1230 -->
<g id="edge1" class="edge">
<title>Node1229&#45;&gt;Node1230</title>
<path fill="none" stroke="#191970" d="M115.0504,-50.5905C123.6995,-52.124 132.5102,-53.6862 140.953,-55.1831"/>
<polygon fill="#191970" stroke="#191970" points="115.4607,-47.1087 105.0032,-48.8091 114.2386,-54.0012 115.4607,-47.1087"/>
</g>
<!-- Node1231 -->
<g id="node3" class="node">
<title>Node1231</title>
<g id="a_node3"><a xlink:href="class_create_asset_dialog.html#abbaaae0c6a41b5888e86f17c2e1e4ac2" target="_top" xlink:title="CreateAssetDialog::\lfocusUniqueAsset">
<polygon fill="#ffffff" stroke="#000000" points="141,-.5 141,-30.5 246,-30.5 246,-.5 141,-.5"/>
<text text-anchor="start" x="149" y="-18.5" font-family="Helvetica,sans-Serif" font-size="10.00" fill="#000000">CreateAssetDialog::</text>
<text text-anchor="middle" x="193.5" y="-7.5" font-family="Helvetica,sans-Serif" font-size="10.00" fill="#000000">focusUniqueAsset</text>
</a>
</g>
</g>
<!-- Node1229&#45;&gt;Node1231 -->
<g id="edge2" class="edge">
<title>Node1229&#45;&gt;Node1231</title>
<path fill="none" stroke="#191970" d="M115.0504,-28.8531C123.6995,-27.3809 132.5102,-25.8812 140.953,-24.4442"/>
<polygon fill="#191970" stroke="#191970" points="114.2741,-25.4348 105.0032,-30.5633 115.4487,-32.3356 114.2741,-25.4348"/>
</g>
</g>
</svg>
