<?xml version="1.0" encoding="UTF-8" standalone="no"?>
<!DOCTYPE svg PUBLIC "-//W3C//DTD SVG 1.1//EN"
 "http://www.w3.org/Graphics/SVG/1.1/DTD/svg11.dtd">
<!-- Generated by graphviz version 2.40.1 (20161225.0304)
 -->
<!-- Title: GetMaxBlockSerializedSize Pages: 1 -->
<svg width="434pt" height="78pt"
 viewBox="0.00 0.00 434.00 77.50" xmlns="http://www.w3.org/2000/svg" xmlns:xlink="http://www.w3.org/1999/xlink">
<g id="graph0" class="graph" transform="scale(1 1) rotate(0) translate(4 73.5)">
<title>GetMaxBlockSerializedSize</title>
<polygon fill="#ffffff" stroke="transparent" points="-4,4 -4,-73.5 430,-73.5 430,4 -4,4"/>
<!-- Node1 -->
<g id="node1" class="node">
<title>Node1</title>
<polygon fill="#bfbfbf" stroke="#000000" points="0,-22.5 0,-41.5 138,-41.5 138,-22.5 0,-22.5"/>
<text text-anchor="middle" x="69" y="-29.5" font-family="Helvetica,sans-Serif" font-size="10.00" fill="#000000">GetMaxBlockSerializedSize</text>
</g>
<!-- Node2 -->
<g id="node2" class="node">
<title>Node2</title>
<g id="a_node2"><a xlink:href="class_c_connman.html#aa12d154df14eef07418a36362d1cb8d7" target="_top" xlink:title="check if the outbound target is reached ">
<polygon fill="#ffffff" stroke="#000000" points="174,-39 174,-69 316,-69 316,-39 174,-39"/>
<text text-anchor="start" x="182" y="-57" font-family="Helvetica,sans-Serif" font-size="10.00" fill="#000000">CConnman::OutboundTarget</text>
<text text-anchor="middle" x="245" y="-46" font-family="Helvetica,sans-Serif" font-size="10.00" fill="#000000">Reached</text>
</a>
</g>
</g>
<!-- Node1&#45;&gt;Node2 -->
<g id="edge1" class="edge">
<title>Node1&#45;&gt;Node2</title>
<path fill="none" stroke="#191970" d="M148.0603,-41.8825C156.6454,-42.9557 165.3452,-44.0432 173.8283,-45.1035"/>
<polygon fill="#191970" stroke="#191970" points="148.4116,-38.3993 138.0547,-40.6318 147.5433,-45.3452 148.4116,-38.3993"/>
</g>
<!-- Node3 -->
<g id="node3" class="node">
<title>Node3</title>
<g id="a_node3"><a xlink:href="validation_8h.html#adb7b04c54228efef3b7bbafd0830839e" target="_top" xlink:title="Import blocks from an external file. ">
<polygon fill="#ffffff" stroke="#000000" points="188,-.5 188,-19.5 302,-19.5 302,-.5 188,-.5"/>
<text text-anchor="middle" x="245" y="-7.5" font-family="Helvetica,sans-Serif" font-size="10.00" fill="#000000">LoadExternalBlockFile</text>
</a>
</g>
</g>
<!-- Node1&#45;&gt;Node3 -->
<g id="edge2" class="edge">
<title>Node1&#45;&gt;Node3</title>
<path fill="none" stroke="#191970" d="M148.1843,-22.102C161.5271,-20.4341 175.1431,-18.7321 187.7885,-17.1514"/>
<polygon fill="#191970" stroke="#191970" points="147.5433,-18.6548 138.0547,-23.3682 148.4116,-25.6007 147.5433,-18.6548"/>
</g>
<!-- Node4 -->
<g id="node4" class="node">
<title>Node4</title>
<g id="a_node4"><a xlink:href="init_8cpp.html#a2dd42c68a25e6632cdb9c7b03aed8503" target="_top" xlink:title="ThreadImport">
<polygon fill="#ffffff" stroke="#000000" points="352,-.5 352,-19.5 426,-19.5 426,-.5 352,-.5"/>
<text text-anchor="middle" x="389" y="-7.5" font-family="Helvetica,sans-Serif" font-size="10.00" fill="#000000">ThreadImport</text>
</a>
</g>
</g>
<!-- Node3&#45;&gt;Node4 -->
<g id="edge3" class="edge">
<title>Node3&#45;&gt;Node4</title>
<path fill="none" stroke="#191970" d="M312.5623,-10C326.0419,-10 339.7297,-10 351.7262,-10"/>
<polygon fill="#191970" stroke="#191970" points="312.3264,-6.5001 302.3264,-10 312.3263,-13.5001 312.3264,-6.5001"/>
</g>
</g>
</svg>
