<?xml version="1.0" encoding="UTF-8" standalone="no"?>
<!DOCTYPE svg PUBLIC "-//W3C//DTD SVG 1.1//EN"
 "http://www.w3.org/Graphics/SVG/1.1/DTD/svg11.dtd">
<!-- Generated by graphviz version 2.40.1 (20161225.0304)
 -->
<!-- Title: FormatScript Pages: 1 -->
<svg width="487pt" height="205pt"
 viewBox="0.00 0.00 487.00 205.00" xmlns="http://www.w3.org/2000/svg" xmlns:xlink="http://www.w3.org/1999/xlink">
<g id="graph0" class="graph" transform="scale(1 1) rotate(0) translate(4 201)">
<title>FormatScript</title>
<polygon fill="#ffffff" stroke="transparent" points="-4,4 -4,-201 483,-201 483,4 -4,4"/>
<!-- Node22 -->
<g id="node1" class="node">
<title>Node22</title>
<polygon fill="#bfbfbf" stroke="#000000" points="0,-76.5 0,-95.5 73,-95.5 73,-76.5 0,-76.5"/>
<text text-anchor="middle" x="36.5" y="-83.5" font-family="Helvetica,sans-Serif" font-size="10.00" fill="#000000">FormatScript</text>
</g>
<!-- Node23 -->
<g id="node2" class="node">
<title>Node23</title>
<g id="a_node2"><a xlink:href="classprevector.html#aa9210cbe708412a70868d6e0bca844c9" target="_top" xlink:title="prevector::begin">
<polygon fill="#ffffff" stroke="#000000" points="110.5,-152.5 110.5,-171.5 196.5,-171.5 196.5,-152.5 110.5,-152.5"/>
<text text-anchor="middle" x="153.5" y="-159.5" font-family="Helvetica,sans-Serif" font-size="10.00" fill="#000000">prevector::begin</text>
</a>
</g>
</g>
<!-- Node22&#45;&gt;Node23 -->
<g id="edge1" class="edge">
<title>Node22&#45;&gt;Node23</title>
<path fill="none" stroke="#191970" d="M47.1422,-95.8492C60.7242,-108.0567 85.3076,-128.9617 109,-143 112.0557,-144.8106 115.3159,-146.5413 118.6297,-148.1693"/>
<polygon fill="#191970" stroke="#191970" points="117.4372,-151.4731 127.9854,-152.4659 120.3586,-145.1118 117.4372,-151.4731"/>
</g>
<!-- Node29 -->
<g id="node8" class="node">
<title>Node29</title>
<g id="a_node8"><a xlink:href="classprevector.html#aab7f6e13a3cac85cc340fc6b90c5365c" target="_top" xlink:title="prevector::end">
<polygon fill="#ffffff" stroke="#000000" points="114,-114.5 114,-133.5 193,-133.5 193,-114.5 114,-114.5"/>
<text text-anchor="middle" x="153.5" y="-121.5" font-family="Helvetica,sans-Serif" font-size="10.00" fill="#000000">prevector::end</text>
</a>
</g>
</g>
<!-- Node22&#45;&gt;Node29 -->
<g id="edge7" class="edge">
<title>Node22&#45;&gt;Node29</title>
<path fill="none" stroke="#191970" d="M66.024,-95.589C80.7119,-100.3594 98.6601,-106.1888 114.4678,-111.3229"/>
<polygon fill="#191970" stroke="#191970" points="113.3933,-114.6538 123.9854,-114.4141 115.5556,-107.9961 113.3933,-114.6538"/>
</g>
<!-- Node31 -->
<g id="node10" class="node">
<title>Node31</title>
<g id="a_node10"><a xlink:href="class_c_script.html#aac2dbe75742054049b0c6de0e9473ef0" target="_top" xlink:title="CScript::GetOp2">
<polygon fill="#ffffff" stroke="#000000" points="109,-76.5 109,-95.5 198,-95.5 198,-76.5 109,-76.5"/>
<text text-anchor="middle" x="153.5" y="-83.5" font-family="Helvetica,sans-Serif" font-size="10.00" fill="#000000">CScript::GetOp2</text>
</a>
</g>
</g>
<!-- Node22&#45;&gt;Node31 -->
<g id="edge12" class="edge">
<title>Node22&#45;&gt;Node31</title>
<path fill="none" stroke="#191970" d="M73.1985,-86C81.2907,-86 90.0324,-86 98.6671,-86"/>
<polygon fill="#191970" stroke="#191970" points="98.7091,-89.5001 108.7091,-86 98.709,-82.5001 98.7091,-89.5001"/>
</g>
<!-- Node32 -->
<g id="node11" class="node">
<title>Node32</title>
<g id="a_node11"><a xlink:href="script_8cpp.html#a573587022d52d3542eb6fbf5a1190489" target="_top" xlink:title="GetOpName">
<polygon fill="#ffffff" stroke="#000000" points="118,-38.5 118,-57.5 189,-57.5 189,-38.5 118,-38.5"/>
<text text-anchor="middle" x="153.5" y="-45.5" font-family="Helvetica,sans-Serif" font-size="10.00" fill="#000000">GetOpName</text>
</a>
</g>
</g>
<!-- Node22&#45;&gt;Node32 -->
<g id="edge13" class="edge">
<title>Node22&#45;&gt;Node32</title>
<path fill="none" stroke="#191970" d="M66.024,-76.411C80.7119,-71.6406 98.6601,-65.8112 114.4678,-60.6771"/>
<polygon fill="#191970" stroke="#191970" points="115.5556,-64.0039 123.9854,-57.5859 113.3933,-57.3462 115.5556,-64.0039"/>
</g>
<!-- Node33 -->
<g id="node12" class="node">
<title>Node33</title>
<g id="a_node12"><a xlink:href="utilstrencodings_8h.html#ace13a819ca4e98c22847d26b3b357e75" target="_top" xlink:title="HexStr">
<polygon fill="#ffffff" stroke="#000000" points="130,-.5 130,-19.5 177,-19.5 177,-.5 130,-.5"/>
<text text-anchor="middle" x="153.5" y="-7.5" font-family="Helvetica,sans-Serif" font-size="10.00" fill="#000000">HexStr</text>
</a>
</g>
</g>
<!-- Node22&#45;&gt;Node33 -->
<g id="edge14" class="edge">
<title>Node22&#45;&gt;Node33</title>
<path fill="none" stroke="#191970" d="M47.1422,-76.1508C60.7242,-63.9433 85.3076,-43.0383 109,-29 112.6587,-26.8321 116.6106,-24.7787 120.5966,-22.8791"/>
<polygon fill="#191970" stroke="#191970" points="122.1388,-26.0235 129.8375,-18.7447 119.2801,-19.6339 122.1388,-26.0235"/>
</g>
<!-- Node24 -->
<g id="node3" class="node">
<title>Node24</title>
<g id="a_node3"><a xlink:href="classprevector_1_1iterator.html#ae9dd2b5e8d96f866e4b05d6b7535f285" target="_top" xlink:title="prevector::iterator\l::iterator">
<polygon fill="#ffffff" stroke="#000000" points="236.5,-109 236.5,-139 329.5,-139 329.5,-109 236.5,-109"/>
<text text-anchor="start" x="244.5" y="-127" font-family="Helvetica,sans-Serif" font-size="10.00" fill="#000000">prevector::iterator</text>
<text text-anchor="middle" x="283" y="-116" font-family="Helvetica,sans-Serif" font-size="10.00" fill="#000000">::iterator</text>
</a>
</g>
</g>
<!-- Node23&#45;&gt;Node24 -->
<g id="edge2" class="edge">
<title>Node23&#45;&gt;Node24</title>
<path fill="none" stroke="#191970" d="M186.1783,-152.411C198.3577,-148.8371 212.5624,-144.6689 226.279,-140.644"/>
<polygon fill="#191970" stroke="#191970" points="227.5346,-143.9232 236.1446,-137.7491 225.5636,-137.2064 227.5346,-143.9232"/>
</g>
<!-- Node25 -->
<g id="node4" class="node">
<title>Node25</title>
<g id="a_node4"><a xlink:href="classprevector.html#a59f1d7bcbc751cfa0faddd7ffa184846" target="_top" xlink:title="prevector::item_ptr">
<polygon fill="#ffffff" stroke="#000000" points="234,-158.5 234,-177.5 332,-177.5 332,-158.5 234,-158.5"/>
<text text-anchor="middle" x="283" y="-165.5" font-family="Helvetica,sans-Serif" font-size="10.00" fill="#000000">prevector::item_ptr</text>
</a>
</g>
</g>
<!-- Node23&#45;&gt;Node25 -->
<g id="edge3" class="edge">
<title>Node23&#45;&gt;Node25</title>
<path fill="none" stroke="#191970" d="M196.6216,-163.9979C205.2819,-164.3992 214.5254,-164.8274 223.6262,-165.2491"/>
<polygon fill="#191970" stroke="#191970" points="223.6508,-168.7539 233.8021,-165.7206 223.9748,-161.7614 223.6508,-168.7539"/>
</g>
<!-- Node26 -->
<g id="node5" class="node">
<title>Node26</title>
<g id="a_node5"><a xlink:href="classprevector.html#a933e204a7e29c6bbc85479d023c00ff8" target="_top" xlink:title="prevector::is_direct">
<polygon fill="#ffffff" stroke="#000000" points="373.5,-95.5 373.5,-114.5 473.5,-114.5 473.5,-95.5 373.5,-95.5"/>
<text text-anchor="middle" x="423.5" y="-102.5" font-family="Helvetica,sans-Serif" font-size="10.00" fill="#000000">prevector::is_direct</text>
</a>
</g>
</g>
<!-- Node25&#45;&gt;Node26 -->
<g id="edge4" class="edge">
<title>Node25&#45;&gt;Node26</title>
<path fill="none" stroke="#191970" d="M307.3312,-158.4946C315.2523,-155.2871 324.0498,-151.6037 332,-148 348.2928,-140.6146 351.8416,-137.675 368,-130 375.8723,-126.2608 384.4321,-122.3363 392.4196,-118.7339"/>
<polygon fill="#191970" stroke="#191970" points="394.0993,-121.8167 401.794,-114.5337 391.237,-115.4285 394.0993,-121.8167"/>
</g>
<!-- Node27 -->
<g id="node6" class="node">
<title>Node27</title>
<g id="a_node6"><a xlink:href="classprevector.html#a20150a43dd87c33f0e855a55bd3418e8" target="_top" xlink:title="prevector::direct_ptr">
<polygon fill="#ffffff" stroke="#000000" points="371.5,-139.5 371.5,-158.5 475.5,-158.5 475.5,-139.5 371.5,-139.5"/>
<text text-anchor="middle" x="423.5" y="-146.5" font-family="Helvetica,sans-Serif" font-size="10.00" fill="#000000">prevector::direct_ptr</text>
</a>
</g>
</g>
<!-- Node25&#45;&gt;Node27 -->
<g id="edge5" class="edge">
<title>Node25&#45;&gt;Node27</title>
<path fill="none" stroke="#191970" d="M332.1401,-161.3547C341.5371,-160.0839 351.4897,-158.738 361.2347,-157.4202"/>
<polygon fill="#191970" stroke="#191970" points="361.8421,-160.87 371.2828,-156.0614 360.904,-153.9332 361.8421,-160.87"/>
</g>
<!-- Node28 -->
<g id="node7" class="node">
<title>Node28</title>
<g id="a_node7"><a xlink:href="classprevector.html#ae3343cc65be9fd678b4a6f8305624de6" target="_top" xlink:title="prevector::indirect_ptr">
<polygon fill="#ffffff" stroke="#000000" points="368,-177.5 368,-196.5 479,-196.5 479,-177.5 368,-177.5"/>
<text text-anchor="middle" x="423.5" y="-184.5" font-family="Helvetica,sans-Serif" font-size="10.00" fill="#000000">prevector::indirect_ptr</text>
</a>
</g>
</g>
<!-- Node25&#45;&gt;Node28 -->
<g id="edge6" class="edge">
<title>Node25&#45;&gt;Node28</title>
<path fill="none" stroke="#191970" d="M332.1401,-174.6453C340.4441,-175.7682 349.182,-176.9499 357.827,-178.119"/>
<polygon fill="#191970" stroke="#191970" points="357.5225,-181.6095 367.9013,-179.4813 358.4606,-174.6727 357.5225,-181.6095"/>
</g>
<!-- Node29&#45;&gt;Node24 -->
<g id="edge8" class="edge">
<title>Node29&#45;&gt;Node24</title>
<path fill="none" stroke="#191970" d="M193.0579,-124C203.5365,-124 215.0579,-124 226.255,-124"/>
<polygon fill="#191970" stroke="#191970" points="226.4077,-127.5001 236.4076,-124 226.4076,-120.5001 226.4077,-127.5001"/>
</g>
<!-- Node29&#45;&gt;Node25 -->
<g id="edge9" class="edge">
<title>Node29&#45;&gt;Node25</title>
<path fill="none" stroke="#191970" d="M181.5996,-133.5473C200.2665,-139.8898 224.993,-148.2911 245.3554,-155.2096"/>
<polygon fill="#191970" stroke="#191970" points="244.3609,-158.5681 254.9553,-158.4713 246.6129,-151.9402 244.3609,-158.5681"/>
</g>
<!-- Node30 -->
<g id="node9" class="node">
<title>Node30</title>
<g id="a_node9"><a xlink:href="classprevector.html#a626f7d206dbc24e5610631809762758b" target="_top" xlink:title="prevector::size">
<polygon fill="#ffffff" stroke="#000000" points="242.5,-70.5 242.5,-89.5 323.5,-89.5 323.5,-70.5 242.5,-70.5"/>
<text text-anchor="middle" x="283" y="-77.5" font-family="Helvetica,sans-Serif" font-size="10.00" fill="#000000">prevector::size</text>
</a>
</g>
</g>
<!-- Node29&#45;&gt;Node30 -->
<g id="edge10" class="edge">
<title>Node29&#45;&gt;Node30</title>
<path fill="none" stroke="#191970" d="M181.5996,-114.4527C200.2665,-108.1102 224.993,-99.7089 245.3554,-92.7904"/>
<polygon fill="#191970" stroke="#191970" points="246.6129,-96.0598 254.9553,-89.5287 244.3609,-89.4319 246.6129,-96.0598"/>
</g>
<!-- Node30&#45;&gt;Node26 -->
<g id="edge11" class="edge">
<title>Node30&#45;&gt;Node26</title>
<path fill="none" stroke="#191970" d="M323.6384,-87.231C336.0383,-89.4374 349.9448,-91.9119 363.3501,-94.2972"/>
<polygon fill="#191970" stroke="#191970" points="363.0118,-97.7919 373.4704,-96.0979 364.2382,-90.9001 363.0118,-97.7919"/>
</g>
</g>
</svg>
