<?xml version="1.0" encoding="UTF-8" standalone="no"?>
<!DOCTYPE svg PUBLIC "-//W3C//DTD SVG 1.1//EN"
 "http://www.w3.org/Graphics/SVG/1.1/DTD/svg11.dtd">
<!-- Generated by graphviz version 2.40.1 (20161225.0304)
 -->
<!-- Title: CWallet::GetCredit Pages: 1 -->
<svg width="218pt" height="84pt"
 viewBox="0.00 0.00 218.00 84.00" xmlns="http://www.w3.org/2000/svg" xmlns:xlink="http://www.w3.org/1999/xlink">
<g id="graph0" class="graph" transform="scale(1 1) rotate(0) translate(4 80)">
<title>CWallet::GetCredit</title>
<polygon fill="#ffffff" stroke="transparent" points="-4,4 -4,-80 214,-80 214,4 -4,4"/>
<!-- Node604 -->
<g id="node1" class="node">
<title>Node604</title>
<polygon fill="#bfbfbf" stroke="#000000" points="0,-28.5 0,-47.5 100,-47.5 100,-28.5 0,-28.5"/>
<text text-anchor="middle" x="50" y="-35.5" font-family="Helvetica,sans-Serif" font-size="10.00" fill="#000000">CWallet::GetCredit</text>
</g>
<!-- Node605 -->
<g id="node2" class="node">
<title>Node605</title>
<g id="a_node2"><a xlink:href="amount_8h.html#a12db56a9a1c931941f0943ecbb278aae" target="_top" xlink:title="MoneyRange">
<polygon fill="#ffffff" stroke="#000000" points="136,-56.5 136,-75.5 210,-75.5 210,-56.5 136,-56.5"/>
<text text-anchor="middle" x="173" y="-63.5" font-family="Helvetica,sans-Serif" font-size="10.00" fill="#000000">MoneyRange</text>
</a>
</g>
</g>
<!-- Node604&#45;&gt;Node605 -->
<g id="edge1" class="edge">
<title>Node604&#45;&gt;Node605</title>
<path fill="none" stroke="#191970" d="M91.9856,-47.5577C102.8553,-50.0321 114.6324,-52.7131 125.7517,-55.2443"/>
<polygon fill="#191970" stroke="#191970" points="125.206,-58.7095 135.7334,-57.5166 126.7598,-51.8841 125.206,-58.7095"/>
</g>
<!-- Node606 -->
<g id="node3" class="node">
<title>Node606</title>
<g id="a_node3"><a xlink:href="ismine_8cpp.html#a60a6865dd5664b8e9878a5380ca3e359" target="_top" xlink:title="IsMine">
<polygon fill="#ffffff" stroke="#000000" points="150,-.5 150,-19.5 196,-19.5 196,-.5 150,-.5"/>
<text text-anchor="middle" x="173" y="-7.5" font-family="Helvetica,sans-Serif" font-size="10.00" fill="#000000">IsMine</text>
</a>
</g>
</g>
<!-- Node604&#45;&gt;Node606 -->
<g id="edge2" class="edge">
<title>Node604&#45;&gt;Node606</title>
<path fill="none" stroke="#191970" d="M91.9856,-28.4423C107.554,-24.8983 124.9837,-20.9305 139.6762,-17.5859"/>
<polygon fill="#191970" stroke="#191970" points="140.8515,-20.908 149.8251,-15.2756 139.2977,-14.0826 140.8515,-20.908"/>
</g>
<!-- Node606&#45;&gt;Node606 -->
<g id="edge3" class="edge">
<title>Node606&#45;&gt;Node606</title>
<path fill="none" stroke="#191970" d="M154.1963,-19.7571C145.0485,-28.5653 151.3164,-38 173,-38 186.8911,-38 194.4555,-34.128 195.6934,-29.0292"/>
<polygon fill="#191970" stroke="#191970" points="198.8997,-27.6246 191.8037,-19.7571 192.4447,-30.3325 198.8997,-27.6246"/>
</g>
</g>
</svg>
