<?xml version="1.0" encoding="UTF-8" standalone="no"?>
<!DOCTYPE svg PUBLIC "-//W3C//DTD SVG 1.1//EN"
 "http://www.w3.org/Graphics/SVG/1.1/DTD/svg11.dtd">
<!-- Generated by graphviz version 2.40.1 (20161225.0304)
 -->
<!-- Title: CWallet::IsHDEnabled Pages: 1 -->
<svg width="1308pt" height="88pt"
 viewBox="0.00 0.00 1308.00 88.00" xmlns="http://www.w3.org/2000/svg" xmlns:xlink="http://www.w3.org/1999/xlink">
<g id="graph0" class="graph" transform="scale(1 1) rotate(0) translate(4 84)">
<title>CWallet::IsHDEnabled</title>
<polygon fill="#ffffff" stroke="transparent" points="-4,4 -4,-84 1304,-84 1304,4 -4,4"/>
<!-- Node922 -->
<g id="node1" class="node">
<title>Node922</title>
<polygon fill="#bfbfbf" stroke="#000000" points="0,-33 0,-52 116,-52 116,-33 0,-33"/>
<text text-anchor="middle" x="58" y="-40" font-family="Helvetica,sans-Serif" font-size="10.00" fill="#000000">CWallet::IsHDEnabled</text>
</g>
<!-- Node923 -->
<g id="node2" class="node">
<title>Node923</title>
<g id="a_node2"><a xlink:href="class_wallet_model.html#a253afef5b3b76de34e72bbfa084e8c3a" target="_top" xlink:title="WalletModel::hdEnabled">
<polygon fill="#ffffff" stroke="#000000" points="152,-33 152,-52 274,-52 274,-33 152,-33"/>
<text text-anchor="middle" x="213" y="-40" font-family="Helvetica,sans-Serif" font-size="10.00" fill="#000000">WalletModel::hdEnabled</text>
</a>
</g>
</g>
<!-- Node922&#45;&gt;Node923 -->
<g id="edge1" class="edge">
<title>Node922&#45;&gt;Node923</title>
<path fill="none" stroke="#191970" d="M126.4174,-42.5C134.9118,-42.5 143.5538,-42.5 151.9276,-42.5"/>
<polygon fill="#191970" stroke="#191970" points="126.1573,-39.0001 116.1573,-42.5 126.1572,-46.0001 126.1573,-39.0001"/>
</g>
<!-- Node924 -->
<g id="node3" class="node">
<title>Node924</title>
<g id="a_node3"><a xlink:href="class_wallet_view.html#a0a37ff693a4f9c1e5ddc23f9cd3913be" target="_top" xlink:title="Set the wallet model. ">
<polygon fill="#ffffff" stroke="#000000" points="310,-33 310,-52 450,-52 450,-33 310,-33"/>
<text text-anchor="middle" x="380" y="-40" font-family="Helvetica,sans-Serif" font-size="10.00" fill="#000000">WalletView::setWalletModel</text>
</a>
</g>
</g>
<!-- Node923&#45;&gt;Node924 -->
<g id="edge2" class="edge">
<title>Node923&#45;&gt;Node924</title>
<path fill="none" stroke="#191970" d="M284.3764,-42.5C292.7766,-42.5 301.3441,-42.5 309.729,-42.5"/>
<polygon fill="#191970" stroke="#191970" points="284.2364,-39.0001 274.2364,-42.5 284.2363,-46.0001 284.2364,-39.0001"/>
</g>
<!-- Node925 -->
<g id="node4" class="node">
<title>Node925</title>
<g id="a_node4"><a xlink:href="class_wallet_frame.html#aa199c3f27654199d84c365cf86167d86" target="_top" xlink:title="WalletFrame::addWallet">
<polygon fill="#ffffff" stroke="#000000" points="486,-33 486,-52 608,-52 608,-33 486,-33"/>
<text text-anchor="middle" x="547" y="-40" font-family="Helvetica,sans-Serif" font-size="10.00" fill="#000000">WalletFrame::addWallet</text>
</a>
</g>
</g>
<!-- Node924&#45;&gt;Node925 -->
<g id="edge3" class="edge">
<title>Node924&#45;&gt;Node925</title>
<path fill="none" stroke="#191970" d="M460.6091,-42.5C469.064,-42.5 477.5584,-42.5 485.7451,-42.5"/>
<polygon fill="#191970" stroke="#191970" points="460.3391,-39.0001 450.339,-42.5 460.339,-46.0001 460.3391,-39.0001"/>
</g>
<!-- Node926 -->
<g id="node5" class="node">
<title>Node926</title>
<g id="a_node5"><a xlink:href="class_raven_g_u_i.html#a174a3e75c334c5930d3261a2955c3725" target="_top" xlink:title="Set the client model. ">
<polygon fill="#ffffff" stroke="#000000" points="644,-33 644,-52 778,-52 778,-33 644,-33"/>
<text text-anchor="middle" x="711" y="-40" font-family="Helvetica,sans-Serif" font-size="10.00" fill="#000000">RavenGUI::setClientModel</text>
</a>
</g>
</g>
<!-- Node925&#45;&gt;Node926 -->
<g id="edge4" class="edge">
<title>Node925&#45;&gt;Node926</title>
<path fill="none" stroke="#191970" d="M618.303,-42.5C626.7776,-42.5 635.4074,-42.5 643.8217,-42.5"/>
<polygon fill="#191970" stroke="#191970" points="618.0676,-39.0001 608.0675,-42.5 618.0675,-46.0001 618.0676,-39.0001"/>
</g>
<!-- Node927 -->
<g id="node6" class="node">
<title>Node927</title>
<g id="a_node6"><a xlink:href="class_raven_application.html#a60123f611cc210870fa67974cb2c804c" target="_top" xlink:title="Request core shutdown. ">
<polygon fill="#ffffff" stroke="#000000" points="1169,-49.5 1169,-79.5 1300,-79.5 1300,-49.5 1169,-49.5"/>
<text text-anchor="start" x="1177" y="-67.5" font-family="Helvetica,sans-Serif" font-size="10.00" fill="#000000">RavenApplication::request</text>
<text text-anchor="middle" x="1234.5" y="-56.5" font-family="Helvetica,sans-Serif" font-size="10.00" fill="#000000">Shutdown</text>
</a>
</g>
</g>
<!-- Node926&#45;&gt;Node927 -->
<g id="edge5" class="edge">
<title>Node926&#45;&gt;Node927</title>
<path fill="none" stroke="#191970" d="M788.1333,-45.7415C891.2203,-50.0737 1072.1346,-57.6766 1168.9629,-61.7458"/>
<polygon fill="#191970" stroke="#191970" points="788.238,-42.2429 778.0999,-45.3199 787.944,-49.2367 788.238,-42.2429"/>
</g>
<!-- Node928 -->
<g id="node7" class="node">
<title>Node928</title>
<g id="a_node7"><a xlink:href="class_raven_application.html#a1a3dcf33ba44507984b2a04e7ebf1542" target="_top" xlink:title="RavenApplication::initialize\lResult">
<polygon fill="#ffffff" stroke="#000000" points="814,-5.5 814,-35.5 948,-35.5 948,-5.5 814,-5.5"/>
<text text-anchor="start" x="822" y="-23.5" font-family="Helvetica,sans-Serif" font-size="10.00" fill="#000000">RavenApplication::initialize</text>
<text text-anchor="middle" x="881" y="-12.5" font-family="Helvetica,sans-Serif" font-size="10.00" fill="#000000">Result</text>
</a>
</g>
</g>
<!-- Node926&#45;&gt;Node928 -->
<g id="edge6" class="edge">
<title>Node926&#45;&gt;Node928</title>
<path fill="none" stroke="#191970" d="M788.146,-32.5164C796.6879,-31.411 805.3366,-30.2917 813.7428,-29.2039"/>
<polygon fill="#191970" stroke="#191970" points="787.6566,-29.0505 778.1885,-33.805 788.555,-35.9926 787.6566,-29.0505"/>
</g>
<!-- Node929 -->
<g id="node8" class="node">
<title>Node929</title>
<g id="a_node8"><a xlink:href="class_raven_application.html#aecfdce3a245b959def5dd35e5cfb192e" target="_top" xlink:title="RavenApplication::startThread">
<polygon fill="#ffffff" stroke="#000000" points="984,-11 984,-30 1133,-30 1133,-11 984,-11"/>
<text text-anchor="middle" x="1058.5" y="-18" font-family="Helvetica,sans-Serif" font-size="10.00" fill="#000000">RavenApplication::startThread</text>
</a>
</g>
</g>
<!-- Node928&#45;&gt;Node929 -->
<g id="edge7" class="edge">
<title>Node928&#45;&gt;Node929</title>
<path fill="none" stroke="#191970" d="M958.3486,-20.5C966.821,-20.5 975.4344,-20.5 983.873,-20.5"/>
<polygon fill="#191970" stroke="#191970" points="958.1052,-17.0001 948.1051,-20.5 958.1051,-24.0001 958.1052,-17.0001"/>
</g>
<!-- Node929&#45;&gt;Node927 -->
<g id="edge9" class="edge">
<title>Node929&#45;&gt;Node927</title>
<path fill="none" stroke="#191970" d="M1106.6046,-32.5261C1127.4811,-37.7453 1152.1576,-43.9144 1174.2385,-49.4346"/>
<polygon fill="#191970" stroke="#191970" points="1107.2397,-29.0773 1096.6894,-30.0473 1105.5419,-35.8683 1107.2397,-29.0773"/>
</g>
<!-- Node930 -->
<g id="node9" class="node">
<title>Node930</title>
<g id="a_node9"><a xlink:href="class_raven_application.html#a63a2032fef875fb81f26c212f69d000d" target="_top" xlink:title="Request core initialization. ">
<polygon fill="#ffffff" stroke="#000000" points="1169,-.5 1169,-30.5 1300,-30.5 1300,-.5 1169,-.5"/>
<text text-anchor="start" x="1177" y="-18.5" font-family="Helvetica,sans-Serif" font-size="10.00" fill="#000000">RavenApplication::request</text>
<text text-anchor="middle" x="1234.5" y="-7.5" font-family="Helvetica,sans-Serif" font-size="10.00" fill="#000000">Initialize</text>
</a>
</g>
</g>
<!-- Node929&#45;&gt;Node930 -->
<g id="edge8" class="edge">
<title>Node929&#45;&gt;Node930</title>
<path fill="none" stroke="#191970" d="M1143.2384,-18.0927C1151.8743,-17.8473 1160.5522,-17.6008 1168.9387,-17.3625"/>
<polygon fill="#191970" stroke="#191970" points="1143.0364,-14.5969 1133.1398,-18.3795 1143.2352,-21.5941 1143.0364,-14.5969"/>
</g>
</g>
</svg>
