<?xml version="1.0" encoding="UTF-8" standalone="no"?>
<!DOCTYPE svg PUBLIC "-//W3C//DTD SVG 1.1//EN"
 "http://www.w3.org/Graphics/SVG/1.1/DTD/svg11.dtd">
<!-- Generated by graphviz version 2.40.1 (20161225.0304)
 -->
<!-- Title: CWallet::ChangeWalletPassphrase Pages: 1 -->
<svg width="375pt" height="66pt"
 viewBox="0.00 0.00 375.00 66.00" xmlns="http://www.w3.org/2000/svg" xmlns:xlink="http://www.w3.org/1999/xlink">
<g id="graph0" class="graph" transform="scale(1 1) rotate(0) translate(4 62)">
<title>CWallet::ChangeWalletPassphrase</title>
<polygon fill="#ffffff" stroke="transparent" points="-4,4 -4,-62 371,-62 371,4 -4,4"/>
<!-- Node238 -->
<g id="node1" class="node">
<title>Node238</title>
<polygon fill="#bfbfbf" stroke="#000000" points="0,-19.5 0,-38.5 171,-38.5 171,-19.5 0,-19.5"/>
<text text-anchor="middle" x="85.5" y="-26.5" font-family="Helvetica,sans-Serif" font-size="10.00" fill="#000000">CWallet::ChangeWalletPassphrase</text>
</g>
<!-- Node239 -->
<g id="node2" class="node">
<title>Node239</title>
<g id="a_node2"><a xlink:href="class_wallet_model.html#a67ebff3f267b5c9973c0465184c085a4" target="_top" xlink:title="WalletModel::changePassphrase">
<polygon fill="#ffffff" stroke="#000000" points="207,-38.5 207,-57.5 367,-57.5 367,-38.5 207,-38.5"/>
<text text-anchor="middle" x="287" y="-45.5" font-family="Helvetica,sans-Serif" font-size="10.00" fill="#000000">WalletModel::changePassphrase</text>
</a>
</g>
</g>
<!-- Node238&#45;&gt;Node239 -->
<g id="edge1" class="edge">
<title>Node238&#45;&gt;Node239</title>
<path fill="none" stroke="#191970" d="M181.2397,-38.0276C189.784,-38.8332 198.3764,-39.6434 206.7704,-40.4349"/>
<polygon fill="#191970" stroke="#191970" points="181.5308,-34.5396 171.2463,-37.0853 180.8736,-41.5087 181.5308,-34.5396"/>
</g>
<!-- Node240 -->
<g id="node3" class="node">
<title>Node240</title>
<g id="a_node3"><a xlink:href="rpcwallet_8cpp.html#acc41d3c00924c9805c9ff98816f1ea80" target="_top" xlink:title="walletpassphrasechange">
<polygon fill="#ffffff" stroke="#000000" points="225,-.5 225,-19.5 349,-19.5 349,-.5 225,-.5"/>
<text text-anchor="middle" x="287" y="-7.5" font-family="Helvetica,sans-Serif" font-size="10.00" fill="#000000">walletpassphrasechange</text>
</a>
</g>
</g>
<!-- Node238&#45;&gt;Node240 -->
<g id="edge2" class="edge">
<title>Node238&#45;&gt;Node240</title>
<path fill="none" stroke="#191970" d="M181.422,-19.9552C196.1748,-18.5642 211.0659,-17.16 224.8261,-15.8625"/>
<polygon fill="#191970" stroke="#191970" points="180.8736,-16.4913 171.2463,-20.9147 181.5308,-23.4604 180.8736,-16.4913"/>
</g>
</g>
</svg>
