<?xml version="1.0" encoding="UTF-8" standalone="no"?>
<!DOCTYPE svg PUBLIC "-//W3C//DTD SVG 1.1//EN"
 "http://www.w3.org/Graphics/SVG/1.1/DTD/svg11.dtd">
<!-- Generated by graphviz version 2.40.1 (20161225.0304)
 -->
<!-- Title: CWallet::AddWatchOnly Pages: 1 -->
<svg width="606pt" height="142pt"
 viewBox="0.00 0.00 606.00 142.00" xmlns="http://www.w3.org/2000/svg" xmlns:xlink="http://www.w3.org/1999/xlink">
<g id="graph0" class="graph" transform="scale(1 1) rotate(0) translate(4 138)">
<title>CWallet::AddWatchOnly</title>
<polygon fill="#ffffff" stroke="transparent" points="-4,4 -4,-138 602,-138 602,4 -4,4"/>
<!-- Node212 -->
<g id="node1" class="node">
<title>Node212</title>
<polygon fill="#bfbfbf" stroke="#000000" points="0,-38.5 0,-57.5 124,-57.5 124,-38.5 0,-38.5"/>
<text text-anchor="middle" x="62" y="-45.5" font-family="Helvetica,sans-Serif" font-size="10.00" fill="#000000">CWallet::AddWatchOnly</text>
</g>
<!-- Node213 -->
<g id="node2" class="node">
<title>Node213</title>
<g id="a_node2"><a xlink:href="rpcdump_8cpp.html#ab05aad539141493439212c3052c1bcc2" target="_top" xlink:title="ImportScript">
<polygon fill="#ffffff" stroke="#000000" points="165,-76.5 165,-95.5 235,-95.5 235,-76.5 165,-76.5"/>
<text text-anchor="middle" x="200" y="-83.5" font-family="Helvetica,sans-Serif" font-size="10.00" fill="#000000">ImportScript</text>
</a>
</g>
</g>
<!-- Node212&#45;&gt;Node213 -->
<g id="edge1" class="edge">
<title>Node212&#45;&gt;Node213</title>
<path fill="none" stroke="#191970" d="M106.473,-60.2462C125.4946,-65.484 147.3751,-71.5091 165.1879,-76.4141"/>
<polygon fill="#191970" stroke="#191970" points="107.3936,-56.8695 96.8232,-57.589 105.5352,-63.6183 107.3936,-56.8695"/>
</g>
<!-- Node219 -->
<g id="node8" class="node">
<title>Node219</title>
<g id="a_node8"><a xlink:href="rpcdump_8cpp.html#a0ccf80d09e7c16fb3035c4b81bf4a4d8" target="_top" xlink:title="ProcessImport">
<polygon fill="#ffffff" stroke="#000000" points="160,-19.5 160,-38.5 240,-38.5 240,-19.5 160,-19.5"/>
<text text-anchor="middle" x="200" y="-26.5" font-family="Helvetica,sans-Serif" font-size="10.00" fill="#000000">ProcessImport</text>
</a>
</g>
</g>
<!-- Node212&#45;&gt;Node219 -->
<g id="edge12" class="edge">
<title>Node212&#45;&gt;Node219</title>
<path fill="none" stroke="#191970" d="M134.1467,-38.0668C143.014,-36.8459 151.8119,-35.6346 159.9529,-34.5137"/>
<polygon fill="#191970" stroke="#191970" points="133.5662,-34.6136 124.1371,-39.4449 134.521,-41.5482 133.5662,-34.6136"/>
</g>
<!-- Node214 -->
<g id="node3" class="node">
<title>Node214</title>
<g id="a_node3"><a xlink:href="rpcdump_8cpp.html#a8a2b851d3a0b2951b027e64cf5856e03" target="_top" xlink:title="ImportAddress">
<polygon fill="#ffffff" stroke="#000000" points="276,-76.5 276,-95.5 356,-95.5 356,-76.5 276,-76.5"/>
<text text-anchor="middle" x="316" y="-83.5" font-family="Helvetica,sans-Serif" font-size="10.00" fill="#000000">ImportAddress</text>
</a>
</g>
</g>
<!-- Node213&#45;&gt;Node214 -->
<g id="edge2" class="edge">
<title>Node213&#45;&gt;Node214</title>
<path fill="none" stroke="#191970" d="M245.3207,-79.3955C255.3467,-79.162 265.9041,-79.2095 275.7137,-79.538"/>
<polygon fill="#191970" stroke="#191970" points="244.9946,-75.9044 235.1186,-79.7404 245.2312,-82.9004 244.9946,-75.9044"/>
</g>
<!-- Node217 -->
<g id="node6" class="node">
<title>Node217</title>
<g id="a_node6"><a xlink:href="rpcwallet_8cpp.html#aba44e0021b6111a1f0a8c54bbff34130" target="_top" xlink:title="importaddress">
<polygon fill="#ffffff" stroke="#000000" points="392,-38.5 392,-57.5 470,-57.5 470,-38.5 392,-38.5"/>
<text text-anchor="middle" x="431" y="-45.5" font-family="Helvetica,sans-Serif" font-size="10.00" fill="#000000">importaddress</text>
</a>
</g>
</g>
<!-- Node213&#45;&gt;Node217 -->
<g id="edge10" class="edge">
<title>Node213&#45;&gt;Node217</title>
<path fill="none" stroke="#191970" d="M243.9832,-74.0293C254.4243,-71.4589 265.5623,-68.9368 276,-67 315.1845,-59.7288 360.4757,-54.5433 391.9403,-51.4457"/>
<polygon fill="#191970" stroke="#191970" points="243.0711,-70.6497 234.232,-76.491 244.7845,-77.4368 243.0711,-70.6497"/>
</g>
<!-- Node218 -->
<g id="node7" class="node">
<title>Node218</title>
<g id="a_node7"><a xlink:href="rpcwallet_8cpp.html#a1e79cb342ad4f0bf7b02a2b1e18af7ff" target="_top" xlink:title="importpubkey">
<polygon fill="#ffffff" stroke="#000000" points="393.5,-114.5 393.5,-133.5 468.5,-133.5 468.5,-114.5 393.5,-114.5"/>
<text text-anchor="middle" x="431" y="-121.5" font-family="Helvetica,sans-Serif" font-size="10.00" fill="#000000">importpubkey</text>
</a>
</g>
</g>
<!-- Node213&#45;&gt;Node218 -->
<g id="edge11" class="edge">
<title>Node213&#45;&gt;Node218</title>
<path fill="none" stroke="#191970" d="M243.9832,-97.9707C254.4243,-100.5411 265.5623,-103.0632 276,-105 315.7176,-112.3701 361.7093,-117.5974 393.2169,-120.6795"/>
<polygon fill="#191970" stroke="#191970" points="244.7845,-94.5632 234.232,-95.509 243.0711,-101.3503 244.7845,-94.5632"/>
</g>
<!-- Node214&#45;&gt;Node213 -->
<g id="edge5" class="edge">
<title>Node214&#45;&gt;Node213</title>
<path fill="none" stroke="#191970" d="M265.5952,-92.6983C255.3199,-92.8389 244.721,-92.6927 235.1186,-92.2596"/>
<polygon fill="#191970" stroke="#191970" points="265.7982,-96.1946 275.7137,-92.462 265.6347,-89.1965 265.7982,-96.1946"/>
</g>
<!-- Node215 -->
<g id="node4" class="node">
<title>Node215</title>
<g id="a_node4"><a xlink:href="rpcwallet_8cpp.html#a9df6d8c784683e22309cb2627d21b1f2" target="_top" xlink:title="abortrescan">
<polygon fill="#ffffff" stroke="#000000" points="397,-76.5 397,-95.5 465,-95.5 465,-76.5 397,-76.5"/>
<text text-anchor="middle" x="431" y="-83.5" font-family="Helvetica,sans-Serif" font-size="10.00" fill="#000000">abortrescan</text>
</a>
</g>
</g>
<!-- Node214&#45;&gt;Node215 -->
<g id="edge3" class="edge">
<title>Node214&#45;&gt;Node215</title>
<path fill="none" stroke="#191970" d="M366.3335,-86C376.5982,-86 387.1724,-86 396.7201,-86"/>
<polygon fill="#191970" stroke="#191970" points="366.2215,-82.5001 356.2214,-86 366.2214,-89.5001 366.2215,-82.5001"/>
</g>
<!-- Node214&#45;&gt;Node217 -->
<g id="edge6" class="edge">
<title>Node214&#45;&gt;Node217</title>
<path fill="none" stroke="#191970" d="M354.8153,-73.1741C370.2459,-68.0753 387.6907,-62.3109 401.9899,-57.5859"/>
<polygon fill="#191970" stroke="#191970" points="353.4163,-69.9502 345.0194,-76.411 355.6126,-76.5967 353.4163,-69.9502"/>
</g>
<!-- Node214&#45;&gt;Node218 -->
<g id="edge8" class="edge">
<title>Node214&#45;&gt;Node218</title>
<path fill="none" stroke="#191970" d="M354.8153,-98.8259C370.2459,-103.9247 387.6907,-109.6891 401.9899,-114.4141"/>
<polygon fill="#191970" stroke="#191970" points="355.6126,-95.4033 345.0194,-95.589 353.4163,-102.0498 355.6126,-95.4033"/>
</g>
<!-- Node216 -->
<g id="node5" class="node">
<title>Node216</title>
<g id="a_node5"><a xlink:href="rpcwallet_8cpp.html#a151535abf7394b299deb8d0a333de70b" target="_top" xlink:title="rescanblockchain">
<polygon fill="#ffffff" stroke="#000000" points="506,-76.5 506,-95.5 598,-95.5 598,-76.5 506,-76.5"/>
<text text-anchor="middle" x="552" y="-83.5" font-family="Helvetica,sans-Serif" font-size="10.00" fill="#000000">rescanblockchain</text>
</a>
</g>
</g>
<!-- Node215&#45;&gt;Node216 -->
<g id="edge4" class="edge">
<title>Node215&#45;&gt;Node216</title>
<path fill="none" stroke="#191970" d="M475.0885,-86C485.0121,-86 495.5731,-86 505.5886,-86"/>
<polygon fill="#191970" stroke="#191970" points="475.0273,-82.5001 465.0272,-86 475.0272,-89.5001 475.0273,-82.5001"/>
</g>
<!-- Node217&#45;&gt;Node216 -->
<g id="edge7" class="edge">
<title>Node217&#45;&gt;Node216</title>
<path fill="none" stroke="#191970" d="M471.3771,-60.6804C487.7262,-65.8148 506.2878,-71.6441 521.4764,-76.4141"/>
<polygon fill="#191970" stroke="#191970" points="472.1227,-57.2461 461.5334,-57.589 470.0253,-63.9245 472.1227,-57.2461"/>
</g>
<!-- Node218&#45;&gt;Node216 -->
<g id="edge9" class="edge">
<title>Node218&#45;&gt;Node216</title>
<path fill="none" stroke="#191970" d="M471.3771,-111.3196C487.7262,-106.1852 506.2878,-100.3559 521.4764,-95.5859"/>
<polygon fill="#191970" stroke="#191970" points="470.0253,-108.0755 461.5334,-114.411 472.1227,-114.7539 470.0253,-108.0755"/>
</g>
<!-- Node220 -->
<g id="node9" class="node">
<title>Node220</title>
<g id="a_node9"><a xlink:href="wallet__tests_8cpp.html#af0e3c9469f1d8f368d3d5f38e5580367" target="_top" xlink:title="importmulti">
<polygon fill="#ffffff" stroke="#000000" points="283.5,-.5 283.5,-19.5 348.5,-19.5 348.5,-.5 283.5,-.5"/>
<text text-anchor="middle" x="316" y="-7.5" font-family="Helvetica,sans-Serif" font-size="10.00" fill="#000000">importmulti</text>
</a>
</g>
</g>
<!-- Node219&#45;&gt;Node220 -->
<g id="edge13" class="edge">
<title>Node219&#45;&gt;Node220</title>
<path fill="none" stroke="#191970" d="M250.3911,-20.7463C261.6103,-18.9087 273.2161,-17.0077 283.4899,-15.3249"/>
<polygon fill="#191970" stroke="#191970" points="249.5484,-17.3376 240.2456,-22.408 250.6799,-24.2455 249.5484,-17.3376"/>
</g>
</g>
</svg>
