<?xml version="1.0" encoding="UTF-8" standalone="no"?>
<!DOCTYPE svg PUBLIC "-//W3C//DTD SVG 1.1//EN"
 "http://www.w3.org/Graphics/SVG/1.1/DTD/svg11.dtd">
<!-- Generated by graphviz version 2.40.1 (20161225.0304)
 -->
<!-- Title: CWallet::GetUnconfirmedBalance Pages: 1 -->
<svg width="1579pt" height="254pt"
 viewBox="0.00 0.00 1579.00 253.50" xmlns="http://www.w3.org/2000/svg" xmlns:xlink="http://www.w3.org/1999/xlink">
<g id="graph0" class="graph" transform="scale(1 1) rotate(0) translate(4 249.5)">
<title>CWallet::GetUnconfirmedBalance</title>
<polygon fill="#ffffff" stroke="transparent" points="-4,4 -4,-249.5 1575,-249.5 1575,4 -4,4"/>
<!-- Node560 -->
<g id="node1" class="node">
<title>Node560</title>
<polygon fill="#bfbfbf" stroke="#000000" points="0,-94 0,-113 164,-113 164,-94 0,-94"/>
<text text-anchor="middle" x="82" y="-101" font-family="Helvetica,sans-Serif" font-size="10.00" fill="#000000">CWallet::GetUnconfirmedBalance</text>
</g>
<!-- Node561 -->
<g id="node2" class="node">
<title>Node561</title>
<g id="a_node2"><a xlink:href="class_wallet_model.html#a5028f20a33e0d17942abeea537916736" target="_top" xlink:title="WalletModel::getUnconfirmed\lBalance">
<polygon fill="#ffffff" stroke="#000000" points="200,-110.5 200,-140.5 346,-140.5 346,-110.5 200,-110.5"/>
<text text-anchor="start" x="208" y="-128.5" font-family="Helvetica,sans-Serif" font-size="10.00" fill="#000000">WalletModel::getUnconfirmed</text>
<text text-anchor="middle" x="273" y="-117.5" font-family="Helvetica,sans-Serif" font-size="10.00" fill="#000000">Balance</text>
</a>
</g>
</g>
<!-- Node560&#45;&gt;Node561 -->
<g id="edge1" class="edge">
<title>Node560&#45;&gt;Node561</title>
<path fill="none" stroke="#191970" d="M174.2268,-114.123C182.8735,-115.1189 191.5561,-116.119 199.9906,-117.0905"/>
<polygon fill="#191970" stroke="#191970" points="174.4445,-110.625 164.1097,-112.9577 173.6435,-117.579 174.4445,-110.625"/>
</g>
<!-- Node577 -->
<g id="node18" class="node">
<title>Node577</title>
<g id="a_node18"><a xlink:href="rpcwallet_8cpp.html#adfb2aa1ee59448398e15c4435b6b27eb" target="_top" xlink:title="getunconfirmedbalance">
<polygon fill="#ffffff" stroke="#000000" points="214.5,-72 214.5,-91 331.5,-91 331.5,-72 214.5,-72"/>
<text text-anchor="middle" x="273" y="-79" font-family="Helvetica,sans-Serif" font-size="10.00" fill="#000000">getunconfirmedbalance</text>
</a>
</g>
</g>
<!-- Node560&#45;&gt;Node577 -->
<g id="edge22" class="edge">
<title>Node560&#45;&gt;Node577</title>
<path fill="none" stroke="#191970" d="M174.0523,-92.8971C187.7521,-91.3191 201.5466,-89.7302 214.3062,-88.2605"/>
<polygon fill="#191970" stroke="#191970" points="173.6435,-89.421 164.1097,-94.0423 174.4445,-96.375 173.6435,-89.421"/>
</g>
<!-- Node562 -->
<g id="node3" class="node">
<title>Node562</title>
<g id="a_node3"><a xlink:href="class_assets_dialog.html#a7724156dfba2b1a62c13c1b708e37b0a" target="_top" xlink:title="AssetsDialog::setModel">
<polygon fill="#ffffff" stroke="#000000" points="398.5,-226 398.5,-245 519.5,-245 519.5,-226 398.5,-226"/>
<text text-anchor="middle" x="459" y="-233" font-family="Helvetica,sans-Serif" font-size="10.00" fill="#000000">AssetsDialog::setModel</text>
</a>
</g>
</g>
<!-- Node561&#45;&gt;Node562 -->
<g id="edge2" class="edge">
<title>Node561&#45;&gt;Node562</title>
<path fill="none" stroke="#191970" d="M293.8243,-147.9767C314.3201,-168.7689 347.4835,-199.0197 382,-216.5 389.6158,-220.3569 398.0592,-223.4601 406.4825,-225.9483"/>
<polygon fill="#191970" stroke="#191970" points="296.0799,-145.2743 286.613,-140.5174 291.0472,-150.1397 296.0799,-145.2743"/>
</g>
<!-- Node570 -->
<g id="node11" class="node">
<title>Node570</title>
<g id="a_node11"><a xlink:href="class_create_asset_dialog.html#affceaf7b5ffeeda6f20ecb354ff4e7f8" target="_top" xlink:title="CreateAssetDialog::\lsetModel">
<polygon fill="#ffffff" stroke="#000000" points="406.5,-176.5 406.5,-206.5 511.5,-206.5 511.5,-176.5 406.5,-176.5"/>
<text text-anchor="start" x="414.5" y="-194.5" font-family="Helvetica,sans-Serif" font-size="10.00" fill="#000000">CreateAssetDialog::</text>
<text text-anchor="middle" x="459" y="-183.5" font-family="Helvetica,sans-Serif" font-size="10.00" fill="#000000">setModel</text>
</a>
</g>
</g>
<!-- Node561&#45;&gt;Node570 -->
<g id="edge11" class="edge">
<title>Node561&#45;&gt;Node570</title>
<path fill="none" stroke="#191970" d="M321.2583,-144.1952C340.1348,-151.3653 362.0133,-159.5006 382,-166.5 391.4182,-169.7983 401.5351,-173.1901 411.2386,-176.3697"/>
<polygon fill="#191970" stroke="#191970" points="322.2775,-140.8381 311.6867,-140.5449 319.7831,-147.3786 322.2775,-140.8381"/>
</g>
<!-- Node571 -->
<g id="node12" class="node">
<title>Node571</title>
<g id="a_node12"><a xlink:href="class_overview_page.html#a2ed52a3a87e9c74fee38fa873c9bc71f" target="_top" xlink:title="OverviewPage::setWalletModel">
<polygon fill="#ffffff" stroke="#000000" points="382,-138 382,-157 536,-157 536,-138 382,-138"/>
<text text-anchor="middle" x="459" y="-145" font-family="Helvetica,sans-Serif" font-size="10.00" fill="#000000">OverviewPage::setWalletModel</text>
</a>
</g>
</g>
<!-- Node561&#45;&gt;Node571 -->
<g id="edge13" class="edge">
<title>Node561&#45;&gt;Node571</title>
<path fill="none" stroke="#191970" d="M356.1954,-135.3403C364.7301,-136.3498 373.3762,-137.3724 381.8418,-138.3738"/>
<polygon fill="#191970" stroke="#191970" points="356.587,-131.8623 346.2451,-134.1634 355.7648,-138.8139 356.587,-131.8623"/>
</g>
<!-- Node572 -->
<g id="node13" class="node">
<title>Node572</title>
<g id="a_node13"><a xlink:href="class_reissue_asset_dialog.html#aedb26df763c8cda11fea5a0c07ca70a0" target="_top" xlink:title="ReissueAssetDialog\l::setModel">
<polygon fill="#ffffff" stroke="#000000" points="406,-88.5 406,-118.5 512,-118.5 512,-88.5 406,-88.5"/>
<text text-anchor="start" x="414" y="-106.5" font-family="Helvetica,sans-Serif" font-size="10.00" fill="#000000">ReissueAssetDialog</text>
<text text-anchor="middle" x="459" y="-95.5" font-family="Helvetica,sans-Serif" font-size="10.00" fill="#000000">::setModel</text>
</a>
</g>
</g>
<!-- Node561&#45;&gt;Node572 -->
<g id="edge15" class="edge">
<title>Node561&#45;&gt;Node572</title>
<path fill="none" stroke="#191970" d="M356.6118,-115.6104C373.3783,-113.6273 390.5561,-111.5955 405.9352,-109.7765"/>
<polygon fill="#191970" stroke="#191970" points="355.7648,-112.1861 346.2451,-116.8366 356.587,-119.1377 355.7648,-112.1861"/>
</g>
<!-- Node573 -->
<g id="node14" class="node">
<title>Node573</title>
<g id="a_node14"><a xlink:href="class_send_coins_dialog.html#a73a6c1b1850a334ee652ac167713a2aa" target="_top" xlink:title="SendCoinsDialog::setModel">
<polygon fill="#ffffff" stroke="#000000" points="390,-50 390,-69 528,-69 528,-50 390,-50"/>
<text text-anchor="middle" x="459" y="-57" font-family="Helvetica,sans-Serif" font-size="10.00" fill="#000000">SendCoinsDialog::setModel</text>
</a>
</g>
</g>
<!-- Node561&#45;&gt;Node573 -->
<g id="edge17" class="edge">
<title>Node561&#45;&gt;Node573</title>
<path fill="none" stroke="#191970" d="M330.803,-106.9008C335.9948,-104.8717 341.1271,-102.729 346,-100.5 362.8446,-92.7949 364.8754,-86.5612 382,-79.5 391.9596,-75.3932 402.9983,-71.9324 413.534,-69.105"/>
<polygon fill="#191970" stroke="#191970" points="329.5641,-103.6274 321.437,-110.4245 332.029,-110.1791 329.5641,-103.6274"/>
</g>
<!-- Node574 -->
<g id="node15" class="node">
<title>Node574</title>
<g id="a_node15"><a xlink:href="class_wallet_model.html#adcc4eb8cd71cb4de223621866bb7fb7d" target="_top" xlink:title="WalletModel::checkBalance\lChanged">
<polygon fill="#ffffff" stroke="#000000" points="390,-.5 390,-30.5 528,-30.5 528,-.5 390,-.5"/>
<text text-anchor="start" x="398" y="-18.5" font-family="Helvetica,sans-Serif" font-size="10.00" fill="#000000">WalletModel::checkBalance</text>
<text text-anchor="middle" x="459" y="-7.5" font-family="Helvetica,sans-Serif" font-size="10.00" fill="#000000">Changed</text>
</a>
</g>
</g>
<!-- Node561&#45;&gt;Node574 -->
<g id="edge19" class="edge">
<title>Node561&#45;&gt;Node574</title>
<path fill="none" stroke="#191970" d="M338.8834,-105.5728C341.3689,-104.0047 343.7542,-102.3167 346,-100.5 370.1781,-80.9416 357.6661,-59.8642 382,-40.5 386.839,-36.6493 392.2893,-33.3837 397.9977,-30.6159"/>
<polygon fill="#191970" stroke="#191970" points="337.1426,-102.536 330.1043,-110.4552 340.5449,-108.6536 337.1426,-102.536"/>
</g>
<!-- Node563 -->
<g id="node4" class="node">
<title>Node563</title>
<g id="a_node4"><a xlink:href="class_wallet_view.html#a0a37ff693a4f9c1e5ddc23f9cd3913be" target="_top" xlink:title="Set the wallet model. ">
<polygon fill="#ffffff" stroke="#000000" points="572,-138 572,-157 712,-157 712,-138 572,-138"/>
<text text-anchor="middle" x="642" y="-145" font-family="Helvetica,sans-Serif" font-size="10.00" fill="#000000">WalletView::setWalletModel</text>
</a>
</g>
</g>
<!-- Node562&#45;&gt;Node563 -->
<g id="edge3" class="edge">
<title>Node562&#45;&gt;Node563</title>
<path fill="none" stroke="#191970" d="M518,-223.1184C524.1755,-221.1808 530.2807,-218.9823 536,-216.5 572.8615,-200.5017 611.1887,-172.1168 630.0499,-157.2295"/>
<polygon fill="#191970" stroke="#191970" points="516.9036,-219.7923 508.2831,-225.9517 518.8631,-226.5125 516.9036,-219.7923"/>
</g>
<!-- Node564 -->
<g id="node5" class="node">
<title>Node564</title>
<g id="a_node5"><a xlink:href="class_wallet_frame.html#aa199c3f27654199d84c365cf86167d86" target="_top" xlink:title="WalletFrame::addWallet">
<polygon fill="#ffffff" stroke="#000000" points="752.5,-138 752.5,-157 874.5,-157 874.5,-138 752.5,-138"/>
<text text-anchor="middle" x="813.5" y="-145" font-family="Helvetica,sans-Serif" font-size="10.00" fill="#000000">WalletFrame::addWallet</text>
</a>
</g>
</g>
<!-- Node563&#45;&gt;Node564 -->
<g id="edge4" class="edge">
<title>Node563&#45;&gt;Node564</title>
<path fill="none" stroke="#191970" d="M722.3167,-147.5C732.4377,-147.5 742.66,-147.5 752.4167,-147.5"/>
<polygon fill="#191970" stroke="#191970" points="722.2505,-144.0001 712.2504,-147.5 722.2504,-151.0001 722.2505,-144.0001"/>
</g>
<!-- Node565 -->
<g id="node6" class="node">
<title>Node565</title>
<g id="a_node6"><a xlink:href="class_raven_g_u_i.html#a174a3e75c334c5930d3261a2955c3725" target="_top" xlink:title="Set the client model. ">
<polygon fill="#ffffff" stroke="#000000" points="915,-138 915,-157 1049,-157 1049,-138 915,-138"/>
<text text-anchor="middle" x="982" y="-145" font-family="Helvetica,sans-Serif" font-size="10.00" fill="#000000">RavenGUI::setClientModel</text>
</a>
</g>
</g>
<!-- Node564&#45;&gt;Node565 -->
<g id="edge5" class="edge">
<title>Node564&#45;&gt;Node565</title>
<path fill="none" stroke="#191970" d="M884.9861,-147.5C894.8575,-147.5 904.9683,-147.5 914.7593,-147.5"/>
<polygon fill="#191970" stroke="#191970" points="884.8091,-144.0001 874.809,-147.5 884.809,-151.0001 884.8091,-144.0001"/>
</g>
<!-- Node566 -->
<g id="node7" class="node">
<title>Node566</title>
<g id="a_node7"><a xlink:href="class_raven_application.html#a60123f611cc210870fa67974cb2c804c" target="_top" xlink:title="Request core shutdown. ">
<polygon fill="#ffffff" stroke="#000000" points="1440,-154.5 1440,-184.5 1571,-184.5 1571,-154.5 1440,-154.5"/>
<text text-anchor="start" x="1448" y="-172.5" font-family="Helvetica,sans-Serif" font-size="10.00" fill="#000000">RavenApplication::request</text>
<text text-anchor="middle" x="1505.5" y="-161.5" font-family="Helvetica,sans-Serif" font-size="10.00" fill="#000000">Shutdown</text>
</a>
</g>
</g>
<!-- Node565&#45;&gt;Node566 -->
<g id="edge6" class="edge">
<title>Node565&#45;&gt;Node566</title>
<path fill="none" stroke="#191970" d="M1059.1333,-150.7415C1162.2203,-155.0737 1343.1346,-162.6766 1439.9629,-166.7458"/>
<polygon fill="#191970" stroke="#191970" points="1059.238,-147.2429 1049.0999,-150.3199 1058.944,-154.2367 1059.238,-147.2429"/>
</g>
<!-- Node567 -->
<g id="node8" class="node">
<title>Node567</title>
<g id="a_node8"><a xlink:href="class_raven_application.html#a1a3dcf33ba44507984b2a04e7ebf1542" target="_top" xlink:title="RavenApplication::initialize\lResult">
<polygon fill="#ffffff" stroke="#000000" points="1085,-110.5 1085,-140.5 1219,-140.5 1219,-110.5 1085,-110.5"/>
<text text-anchor="start" x="1093" y="-128.5" font-family="Helvetica,sans-Serif" font-size="10.00" fill="#000000">RavenApplication::initialize</text>
<text text-anchor="middle" x="1152" y="-117.5" font-family="Helvetica,sans-Serif" font-size="10.00" fill="#000000">Result</text>
</a>
</g>
</g>
<!-- Node565&#45;&gt;Node567 -->
<g id="edge7" class="edge">
<title>Node565&#45;&gt;Node567</title>
<path fill="none" stroke="#191970" d="M1059.146,-137.5164C1067.6879,-136.411 1076.3366,-135.2917 1084.7428,-134.2039"/>
<polygon fill="#191970" stroke="#191970" points="1058.6566,-134.0505 1049.1885,-138.805 1059.555,-140.9926 1058.6566,-134.0505"/>
</g>
<!-- Node568 -->
<g id="node9" class="node">
<title>Node568</title>
<g id="a_node9"><a xlink:href="class_raven_application.html#aecfdce3a245b959def5dd35e5cfb192e" target="_top" xlink:title="RavenApplication::startThread">
<polygon fill="#ffffff" stroke="#000000" points="1255,-116 1255,-135 1404,-135 1404,-116 1255,-116"/>
<text text-anchor="middle" x="1329.5" y="-123" font-family="Helvetica,sans-Serif" font-size="10.00" fill="#000000">RavenApplication::startThread</text>
</a>
</g>
</g>
<!-- Node567&#45;&gt;Node568 -->
<g id="edge8" class="edge">
<title>Node567&#45;&gt;Node568</title>
<path fill="none" stroke="#191970" d="M1229.3486,-125.5C1237.821,-125.5 1246.4344,-125.5 1254.873,-125.5"/>
<polygon fill="#191970" stroke="#191970" points="1229.1052,-122.0001 1219.1051,-125.5 1229.1051,-129.0001 1229.1052,-122.0001"/>
</g>
<!-- Node568&#45;&gt;Node566 -->
<g id="edge10" class="edge">
<title>Node568&#45;&gt;Node566</title>
<path fill="none" stroke="#191970" d="M1377.6046,-137.5261C1398.4811,-142.7453 1423.1576,-148.9144 1445.2385,-154.4346"/>
<polygon fill="#191970" stroke="#191970" points="1378.2397,-134.0773 1367.6894,-135.0473 1376.5419,-140.8683 1378.2397,-134.0773"/>
</g>
<!-- Node569 -->
<g id="node10" class="node">
<title>Node569</title>
<g id="a_node10"><a xlink:href="class_raven_application.html#a63a2032fef875fb81f26c212f69d000d" target="_top" xlink:title="Request core initialization. ">
<polygon fill="#ffffff" stroke="#000000" points="1440,-105.5 1440,-135.5 1571,-135.5 1571,-105.5 1440,-105.5"/>
<text text-anchor="start" x="1448" y="-123.5" font-family="Helvetica,sans-Serif" font-size="10.00" fill="#000000">RavenApplication::request</text>
<text text-anchor="middle" x="1505.5" y="-112.5" font-family="Helvetica,sans-Serif" font-size="10.00" fill="#000000">Initialize</text>
</a>
</g>
</g>
<!-- Node568&#45;&gt;Node569 -->
<g id="edge9" class="edge">
<title>Node568&#45;&gt;Node569</title>
<path fill="none" stroke="#191970" d="M1414.2384,-123.0927C1422.8743,-122.8473 1431.5522,-122.6008 1439.9387,-122.3625"/>
<polygon fill="#191970" stroke="#191970" points="1414.0364,-119.5969 1404.1398,-123.3795 1414.2352,-126.5941 1414.0364,-119.5969"/>
</g>
<!-- Node570&#45;&gt;Node563 -->
<g id="edge12" class="edge">
<title>Node570&#45;&gt;Node563</title>
<path fill="none" stroke="#191970" d="M521.9437,-176.366C548.5832,-169.9609 578.8119,-162.6928 602.2723,-157.052"/>
<polygon fill="#191970" stroke="#191970" points="520.8359,-173.0325 511.9312,-178.7734 522.4723,-179.8386 520.8359,-173.0325"/>
</g>
<!-- Node571&#45;&gt;Node563 -->
<g id="edge14" class="edge">
<title>Node571&#45;&gt;Node563</title>
<path fill="none" stroke="#191970" d="M546.194,-147.5C554.8472,-147.5 563.5519,-147.5 571.9975,-147.5"/>
<polygon fill="#191970" stroke="#191970" points="546.0781,-144.0001 536.0781,-147.5 546.0781,-151.0001 546.0781,-144.0001"/>
</g>
<!-- Node572&#45;&gt;Node563 -->
<g id="edge16" class="edge">
<title>Node572&#45;&gt;Node563</title>
<path fill="none" stroke="#191970" d="M522.4254,-118.7498C549.0269,-125.1458 579.1338,-132.3846 602.4827,-137.9986"/>
<polygon fill="#191970" stroke="#191970" points="522.9643,-115.2797 512.4231,-116.3449 521.3278,-122.0857 522.9643,-115.2797"/>
</g>
<!-- Node573&#45;&gt;Node563 -->
<g id="edge18" class="edge">
<title>Node573&#45;&gt;Node563</title>
<path fill="none" stroke="#191970" d="M515.1213,-71.8457C522.2675,-74.0642 529.388,-76.6085 536,-79.5 572.6589,-95.5315 611.0732,-123.391 630.0005,-137.9761"/>
<polygon fill="#191970" stroke="#191970" points="515.9857,-68.4522 505.4062,-69.0206 514.0311,-75.1738 515.9857,-68.4522"/>
</g>
<!-- Node575 -->
<g id="node16" class="node">
<title>Node575</title>
<g id="a_node16"><a xlink:href="class_wallet_model.html#a51469b2d95cfd4bc0a14ee456fca7b95" target="_top" xlink:title="WalletModel::pollBalance\lChanged">
<polygon fill="#ffffff" stroke="#000000" points="578.5,-.5 578.5,-30.5 705.5,-30.5 705.5,-.5 578.5,-.5"/>
<text text-anchor="start" x="586.5" y="-18.5" font-family="Helvetica,sans-Serif" font-size="10.00" fill="#000000">WalletModel::pollBalance</text>
<text text-anchor="middle" x="642" y="-7.5" font-family="Helvetica,sans-Serif" font-size="10.00" fill="#000000">Changed</text>
</a>
</g>
</g>
<!-- Node574&#45;&gt;Node575 -->
<g id="edge20" class="edge">
<title>Node574&#45;&gt;Node575</title>
<path fill="none" stroke="#191970" d="M538.3461,-15.5C551.7502,-15.5 565.5086,-15.5 578.4429,-15.5"/>
<polygon fill="#191970" stroke="#191970" points="538.1845,-12.0001 528.1845,-15.5 538.1844,-19.0001 538.1845,-12.0001"/>
</g>
<!-- Node576 -->
<g id="node17" class="node">
<title>Node576</title>
<g id="a_node17"><a xlink:href="class_wallet_model.html#a36282857c97bcaad796a2b5c7398245c" target="_top" xlink:title="WalletModel::WalletModel">
<polygon fill="#ffffff" stroke="#000000" points="748,-6 748,-25 879,-25 879,-6 748,-6"/>
<text text-anchor="middle" x="813.5" y="-13" font-family="Helvetica,sans-Serif" font-size="10.00" fill="#000000">WalletModel::WalletModel</text>
</a>
</g>
</g>
<!-- Node575&#45;&gt;Node576 -->
<g id="edge21" class="edge">
<title>Node575&#45;&gt;Node576</title>
<path fill="none" stroke="#191970" d="M715.9432,-15.5C726.5612,-15.5 737.4255,-15.5 747.8679,-15.5"/>
<polygon fill="#191970" stroke="#191970" points="715.8603,-12.0001 705.8603,-15.5 715.8602,-19.0001 715.8603,-12.0001"/>
</g>
</g>
</svg>
