<?xml version="1.0" encoding="UTF-8" standalone="no"?>
<!DOCTYPE svg PUBLIC "-//W3C//DTD SVG 1.1//EN"
 "http://www.w3.org/Graphics/SVG/1.1/DTD/svg11.dtd">
<!-- Generated by graphviz version 2.40.1 (20161225.0304)
 -->
<!-- Title: CWallet::AddCryptedKey Pages: 1 -->
<svg width="1121pt" height="151pt"
 viewBox="0.00 0.00 1121.00 151.00" xmlns="http://www.w3.org/2000/svg" xmlns:xlink="http://www.w3.org/1999/xlink">
<g id="graph0" class="graph" transform="scale(1 1) rotate(0) translate(4 147)">
<title>CWallet::AddCryptedKey</title>
<polygon fill="#ffffff" stroke="transparent" points="-4,4 -4,-147 1117,-147 1117,4 -4,4"/>
<!-- Node23 -->
<g id="node1" class="node">
<title>Node23</title>
<polygon fill="#bfbfbf" stroke="#000000" points="0,-57.5 0,-76.5 127,-76.5 127,-57.5 0,-57.5"/>
<text text-anchor="middle" x="63.5" y="-64.5" font-family="Helvetica,sans-Serif" font-size="10.00" fill="#000000">CWallet::AddCryptedKey</text>
</g>
<!-- Node24 -->
<g id="node2" class="node">
<title>Node24</title>
<g id="a_node2"><a xlink:href="class_c_crypto_key_store.html#a9f4d2df95008205b2b9784c5f0e8e12b" target="_top" xlink:title="CCryptoKeyStore::AddCryptedKey">
<polygon fill="#ffffff" stroke="#000000" points="163,-95.5 163,-114.5 332,-114.5 332,-95.5 163,-95.5"/>
<text text-anchor="middle" x="247.5" y="-102.5" font-family="Helvetica,sans-Serif" font-size="10.00" fill="#000000">CCryptoKeyStore::AddCryptedKey</text>
</a>
</g>
</g>
<!-- Node23&#45;&gt;Node24 -->
<g id="edge1" class="edge">
<title>Node23&#45;&gt;Node24</title>
<path fill="none" stroke="#191970" d="M109.931,-76.589C134.6493,-81.6939 165.239,-88.0113 191.292,-93.3918"/>
<polygon fill="#191970" stroke="#191970" points="190.9017,-96.885 201.4029,-95.4799 192.3175,-90.0297 190.9017,-96.885"/>
</g>
<!-- Node25 -->
<g id="node3" class="node">
<title>Node25</title>
<g id="a_node3"><a xlink:href="class_c_pub_key.html#a2675f7e6f72eff68e7a5227289feb021" target="_top" xlink:title="Get the KeyID of this public key (hash of its serialization) ">
<polygon fill="#ffffff" stroke="#000000" points="376.5,-85.5 376.5,-104.5 467.5,-104.5 467.5,-85.5 376.5,-85.5"/>
<text text-anchor="middle" x="422" y="-92.5" font-family="Helvetica,sans-Serif" font-size="10.00" fill="#000000">CPubKey::GetID</text>
</a>
</g>
</g>
<!-- Node23&#45;&gt;Node25 -->
<g id="edge16" class="edge">
<title>Node23&#45;&gt;Node25</title>
<path fill="none" stroke="#191970" d="M127.013,-70.9731C181.4447,-74.5029 261.9245,-80.0181 332,-86 343.0207,-86.9408 354.7902,-88.0452 366.0623,-89.152"/>
<polygon fill="#191970" stroke="#191970" points="365.9411,-92.6571 376.2385,-90.1645 366.6342,-85.6915 365.9411,-92.6571"/>
</g>
<!-- Node38 -->
<g id="node16" class="node">
<title>Node38</title>
<g id="a_node16"><a xlink:href="class_c_wallet_d_b.html#a914fb53d1731daf9b486f164dd325210" target="_top" xlink:title="CWalletDB::WriteCryptedKey">
<polygon fill="#ffffff" stroke="#000000" points="174,-19.5 174,-38.5 321,-38.5 321,-19.5 174,-19.5"/>
<text text-anchor="middle" x="247.5" y="-26.5" font-family="Helvetica,sans-Serif" font-size="10.00" fill="#000000">CWalletDB::WriteCryptedKey</text>
</a>
</g>
</g>
<!-- Node23&#45;&gt;Node38 -->
<g id="edge17" class="edge">
<title>Node23&#45;&gt;Node38</title>
<path fill="none" stroke="#191970" d="M109.931,-57.411C134.6493,-52.3061 165.239,-45.9887 191.292,-40.6082"/>
<polygon fill="#191970" stroke="#191970" points="192.3175,-43.9703 201.4029,-38.5201 190.9017,-37.115 192.3175,-43.9703"/>
</g>
<!-- Node24&#45;&gt;Node25 -->
<g id="edge2" class="edge">
<title>Node24&#45;&gt;Node25</title>
<path fill="none" stroke="#191970" d="M332.1942,-100.1465C343.7759,-99.4828 355.4178,-98.8156 366.3025,-98.1918"/>
<polygon fill="#191970" stroke="#191970" points="366.6964,-101.6751 376.4797,-97.6086 366.2958,-94.6866 366.6964,-101.6751"/>
</g>
<!-- Node26 -->
<g id="node4" class="node">
<title>Node26</title>
<g id="a_node4"><a xlink:href="class_c_key_i_d.html#a01dbd3c37820a2ffe89d106c6a7cf53d" target="_top" xlink:title="CKeyID::CKeyID">
<polygon fill="#ffffff" stroke="#000000" points="525,-123.5 525,-142.5 618,-142.5 618,-123.5 525,-123.5"/>
<text text-anchor="middle" x="571.5" y="-130.5" font-family="Helvetica,sans-Serif" font-size="10.00" fill="#000000">CKeyID::CKeyID</text>
</a>
</g>
</g>
<!-- Node25&#45;&gt;Node26 -->
<g id="edge3" class="edge">
<title>Node25&#45;&gt;Node26</title>
<path fill="none" stroke="#191970" d="M459.7252,-104.589C479.2756,-109.5583 503.3466,-115.6767 524.1374,-120.9613"/>
<polygon fill="#191970" stroke="#191970" points="523.4921,-124.4085 534.0461,-123.4799 525.2165,-117.6243 523.4921,-124.4085"/>
</g>
<!-- Node27 -->
<g id="node5" class="node">
<title>Node27</title>
<g id="a_node5"><a xlink:href="hash_8h.html#a4490f70ddae16e9e48460a0416a48a6b" target="_top" xlink:title="Compute the 160&#45;bit hash an object. ">
<polygon fill="#ffffff" stroke="#000000" points="543.5,-85.5 543.5,-104.5 599.5,-104.5 599.5,-85.5 543.5,-85.5"/>
<text text-anchor="middle" x="571.5" y="-92.5" font-family="Helvetica,sans-Serif" font-size="10.00" fill="#000000">Hash160</text>
</a>
</g>
</g>
<!-- Node25&#45;&gt;Node27 -->
<g id="edge4" class="edge">
<title>Node25&#45;&gt;Node27</title>
<path fill="none" stroke="#191970" d="M467.6673,-95C488.7268,-95 513.435,-95 533.4644,-95"/>
<polygon fill="#191970" stroke="#191970" points="533.468,-98.5001 543.4679,-95 533.4679,-91.5001 533.468,-98.5001"/>
</g>
<!-- Node37 -->
<g id="node15" class="node">
<title>Node37</title>
<g id="a_node15"><a xlink:href="classbase__blob.html#a00e7426a5d1ada51c635debf85f5a810" target="_top" xlink:title="base_blob\&lt; 160 \&gt;::size">
<polygon fill="#ffffff" stroke="#000000" points="512,-47.5 512,-66.5 631,-66.5 631,-47.5 512,-47.5"/>
<text text-anchor="middle" x="571.5" y="-54.5" font-family="Helvetica,sans-Serif" font-size="10.00" fill="#000000">base_blob&lt; 160 &gt;::size</text>
</a>
</g>
</g>
<!-- Node25&#45;&gt;Node37 -->
<g id="edge15" class="edge">
<title>Node25&#45;&gt;Node37</title>
<path fill="none" stroke="#191970" d="M459.7252,-85.411C479.2756,-80.4417 503.3466,-74.3233 524.1374,-69.0387"/>
<polygon fill="#191970" stroke="#191970" points="525.2165,-72.3757 534.0461,-66.5201 523.4921,-65.5915 525.2165,-72.3757"/>
</g>
<!-- Node28 -->
<g id="node6" class="node">
<title>Node28</title>
<g id="a_node6"><a xlink:href="class_c_hash160.html#af56cdd9443013eb68b246aa8450217f2" target="_top" xlink:title="CHash160::Write">
<polygon fill="#ffffff" stroke="#000000" points="672.5,-104.5 672.5,-123.5 764.5,-123.5 764.5,-104.5 672.5,-104.5"/>
<text text-anchor="middle" x="718.5" y="-111.5" font-family="Helvetica,sans-Serif" font-size="10.00" fill="#000000">CHash160::Write</text>
</a>
</g>
</g>
<!-- Node27&#45;&gt;Node28 -->
<g id="edge5" class="edge">
<title>Node27&#45;&gt;Node28</title>
<path fill="none" stroke="#191970" d="M599.8431,-98.6634C617.561,-100.9535 640.9949,-103.9823 662.3547,-106.7431"/>
<polygon fill="#191970" stroke="#191970" points="661.9499,-110.2198 672.316,-108.0306 662.8472,-103.2776 661.9499,-110.2198"/>
</g>
<!-- Node33 -->
<g id="node11" class="node">
<title>Node33</title>
<g id="a_node11"><a xlink:href="class_c_hash160.html#a9bb08e1772002ae1a5d85017ba7952ee" target="_top" xlink:title="CHash160::Finalize">
<polygon fill="#ffffff" stroke="#000000" points="667,-47.5 667,-66.5 770,-66.5 770,-47.5 667,-47.5"/>
<text text-anchor="middle" x="718.5" y="-54.5" font-family="Helvetica,sans-Serif" font-size="10.00" fill="#000000">CHash160::Finalize</text>
</a>
</g>
</g>
<!-- Node27&#45;&gt;Node33 -->
<g id="edge10" class="edge">
<title>Node27&#45;&gt;Node33</title>
<path fill="none" stroke="#191970" d="M599.8431,-87.6732C620.2106,-82.4081 648.1314,-75.1905 671.7721,-69.0793"/>
<polygon fill="#191970" stroke="#191970" points="672.8015,-72.4283 681.6073,-66.5369 671.0495,-65.6511 672.8015,-72.4283"/>
</g>
<!-- Node29 -->
<g id="node7" class="node">
<title>Node29</title>
<g id="a_node7"><a xlink:href="class_c_s_h_a256.html#a9d7de520a562655da85349372820c883" target="_top" xlink:title="CSHA256::Write">
<polygon fill="#ffffff" stroke="#000000" points="820.5,-114.5 820.5,-133.5 910.5,-133.5 910.5,-114.5 820.5,-114.5"/>
<text text-anchor="middle" x="865.5" y="-121.5" font-family="Helvetica,sans-Serif" font-size="10.00" fill="#000000">CSHA256::Write</text>
</a>
</g>
</g>
<!-- Node28&#45;&gt;Node29 -->
<g id="edge6" class="edge">
<title>Node28&#45;&gt;Node29</title>
<path fill="none" stroke="#191970" d="M764.6084,-117.1366C779.0434,-118.1186 795.1233,-119.2125 810.1281,-120.2332"/>
<polygon fill="#191970" stroke="#191970" points="810.0963,-123.739 820.3108,-120.9259 810.5715,-116.7552 810.0963,-123.739"/>
</g>
<!-- Node30 -->
<g id="node8" class="node">
<title>Node30</title>
<g id="a_node8"><a xlink:href="glibc__compat_8cpp.html#a0f46826ab0466591e136db24394923cf" target="_top" xlink:title="memcpy">
<polygon fill="#ffffff" stroke="#000000" points="961,-76.5 961,-95.5 1015,-95.5 1015,-76.5 961,-76.5"/>
<text text-anchor="middle" x="988" y="-83.5" font-family="Helvetica,sans-Serif" font-size="10.00" fill="#000000">memcpy</text>
</a>
</g>
</g>
<!-- Node29&#45;&gt;Node30 -->
<g id="edge7" class="edge">
<title>Node29&#45;&gt;Node30</title>
<path fill="none" stroke="#191970" d="M896.4119,-114.411C913.0018,-109.2647 933.5644,-102.8861 951.0003,-97.4775"/>
<polygon fill="#191970" stroke="#191970" points="952.3373,-100.7273 960.8513,-94.4216 950.2633,-94.0416 952.3373,-100.7273"/>
</g>
<!-- Node31 -->
<g id="node9" class="node">
<title>Node31</title>
<g id="a_node9"><a xlink:href="glibc__compat_8cpp.html#a9778d49e9029dd75bc53ecbbf9f5e9a1" target="_top" xlink:title="memmove">
<polygon fill="#ffffff" stroke="#000000" points="1051,-95.5 1051,-114.5 1113,-114.5 1113,-95.5 1051,-95.5"/>
<text text-anchor="middle" x="1082" y="-102.5" font-family="Helvetica,sans-Serif" font-size="10.00" fill="#000000">memmove</text>
</a>
</g>
</g>
<!-- Node30&#45;&gt;Node31 -->
<g id="edge8" class="edge">
<title>Node30&#45;&gt;Node31</title>
<path fill="none" stroke="#191970" d="M1015.1887,-91.4956C1023.217,-93.1183 1032.1892,-94.9319 1040.8881,-96.6901"/>
<polygon fill="#191970" stroke="#191970" points="1040.4061,-100.1634 1050.9013,-98.7141 1041.793,-93.3022 1040.4061,-100.1634"/>
</g>
<!-- Node32 -->
<g id="node10" class="node">
<title>Node32</title>
<g id="a_node10"><a xlink:href="glibc__compat_8cpp.html#a424ac71631da5ada2976630ff67051d1" target="_top" xlink:title="__chk_fail">
<polygon fill="#ffffff" stroke="#000000" points="1051.5,-57.5 1051.5,-76.5 1112.5,-76.5 1112.5,-57.5 1051.5,-57.5"/>
<text text-anchor="middle" x="1082" y="-64.5" font-family="Helvetica,sans-Serif" font-size="10.00" fill="#000000">__chk_fail</text>
</a>
</g>
</g>
<!-- Node30&#45;&gt;Node32 -->
<g id="edge9" class="edge">
<title>Node30&#45;&gt;Node32</title>
<path fill="none" stroke="#191970" d="M1015.1887,-80.5044C1023.383,-78.8481 1032.5608,-76.993 1041.4275,-75.2008"/>
<polygon fill="#191970" stroke="#191970" points="1042.1288,-78.6299 1051.2371,-73.218 1040.7419,-71.7687 1042.1288,-78.6299"/>
</g>
<!-- Node34 -->
<g id="node12" class="node">
<title>Node34</title>
<g id="a_node12"><a xlink:href="class_c_s_h_a256.html#a4259230be0caefa590bc324fc12b9b90" target="_top" xlink:title="CSHA256::Finalize">
<polygon fill="#ffffff" stroke="#000000" points="815,-76.5 815,-95.5 916,-95.5 916,-76.5 815,-76.5"/>
<text text-anchor="middle" x="865.5" y="-83.5" font-family="Helvetica,sans-Serif" font-size="10.00" fill="#000000">CSHA256::Finalize</text>
</a>
</g>
</g>
<!-- Node33&#45;&gt;Node34 -->
<g id="edge11" class="edge">
<title>Node33&#45;&gt;Node34</title>
<path fill="none" stroke="#191970" d="M767.0407,-66.5761C779.8359,-69.1003 793.7762,-71.8504 807.0346,-74.466"/>
<polygon fill="#191970" stroke="#191970" points="806.5219,-77.9323 817.0103,-76.434 807.8768,-71.0646 806.5219,-77.9323"/>
</g>
<!-- Node35 -->
<g id="node13" class="node">
<title>Node35</title>
<g id="a_node13"><a xlink:href="class_c_r_i_p_e_m_d160.html#a221143b9d94af623d07c4f4ba1bf6007" target="_top" xlink:title="CRIPEMD160::Write">
<polygon fill="#ffffff" stroke="#000000" points="811,-38.5 811,-57.5 920,-57.5 920,-38.5 811,-38.5"/>
<text text-anchor="middle" x="865.5" y="-45.5" font-family="Helvetica,sans-Serif" font-size="10.00" fill="#000000">CRIPEMD160::Write</text>
</a>
</g>
</g>
<!-- Node33&#45;&gt;Node35 -->
<g id="edge12" class="edge">
<title>Node33&#45;&gt;Node35</title>
<path fill="none" stroke="#191970" d="M770.3267,-53.8269C780.184,-53.2234 790.6124,-52.585 800.8112,-51.9605"/>
<polygon fill="#191970" stroke="#191970" points="801.1364,-55.4473 810.9038,-51.3426 800.7086,-48.4604 801.1364,-55.4473"/>
</g>
<!-- Node36 -->
<g id="node14" class="node">
<title>Node36</title>
<g id="a_node14"><a xlink:href="class_c_r_i_p_e_m_d160.html#a2a11566fbf9d1339b819833313fc4e51" target="_top" xlink:title="CRIPEMD160::Finalize">
<polygon fill="#ffffff" stroke="#000000" points="806,-.5 806,-19.5 925,-19.5 925,-.5 806,-.5"/>
<text text-anchor="middle" x="865.5" y="-7.5" font-family="Helvetica,sans-Serif" font-size="10.00" fill="#000000">CRIPEMD160::Finalize</text>
</a>
</g>
</g>
<!-- Node33&#45;&gt;Node36 -->
<g id="edge14" class="edge">
<title>Node33&#45;&gt;Node36</title>
<path fill="none" stroke="#191970" d="M748.4663,-47.4058C765.3617,-41.9977 786.8575,-35.1192 806,-29 812.4539,-26.9369 819.302,-24.749 825.9673,-22.6202"/>
<polygon fill="#191970" stroke="#191970" points="827.0736,-25.9411 835.5349,-19.5648 824.9441,-19.2729 827.0736,-25.9411"/>
</g>
<!-- Node35&#45;&gt;Node30 -->
<g id="edge13" class="edge">
<title>Node35&#45;&gt;Node30</title>
<path fill="none" stroke="#191970" d="M896.4119,-57.589C913.0018,-62.7353 933.5644,-69.1139 951.0003,-74.5225"/>
<polygon fill="#191970" stroke="#191970" points="950.2633,-77.9584 960.8513,-77.5784 952.3373,-71.2727 950.2633,-77.9584"/>
</g>
<!-- Node39 -->
<g id="node17" class="node">
<title>Node39</title>
<g id="a_node17"><a xlink:href="class_c_wallet_d_b.html#a33ec32231db801e91a98afb26acf3e6a" target="_top" xlink:title="CWalletDB::WriteIC">
<polygon fill="#ffffff" stroke="#000000" points="369,-38.5 369,-57.5 475,-57.5 475,-38.5 369,-38.5"/>
<text text-anchor="middle" x="422" y="-45.5" font-family="Helvetica,sans-Serif" font-size="10.00" fill="#000000">CWalletDB::WriteIC</text>
</a>
</g>
</g>
<!-- Node38&#45;&gt;Node39 -->
<g id="edge18" class="edge">
<title>Node38&#45;&gt;Node39</title>
<path fill="none" stroke="#191970" d="M321.2508,-37.0302C333.75,-38.3911 346.6281,-39.7933 358.8251,-41.1214"/>
<polygon fill="#191970" stroke="#191970" points="358.567,-44.6139 368.8872,-42.2169 359.3248,-37.655 358.567,-44.6139"/>
</g>
<!-- Node40 -->
<g id="node18" class="node">
<title>Node40</title>
<g id="a_node18"><a xlink:href="class_c_wallet_d_b.html#a15d5972c3688ef35f875bafcbb4dff32" target="_top" xlink:title="CWalletDB::EraseIC">
<polygon fill="#ffffff" stroke="#000000" points="368,-.5 368,-19.5 476,-19.5 476,-.5 368,-.5"/>
<text text-anchor="middle" x="422" y="-7.5" font-family="Helvetica,sans-Serif" font-size="10.00" fill="#000000">CWalletDB::EraseIC</text>
</a>
</g>
</g>
<!-- Node38&#45;&gt;Node40 -->
<g id="edge19" class="edge">
<title>Node38&#45;&gt;Node40</title>
<path fill="none" stroke="#191970" d="M321.2508,-20.9698C333.3373,-19.6538 345.7779,-18.2993 357.6145,-17.0105"/>
<polygon fill="#191970" stroke="#191970" points="358.2745,-20.4594 367.8368,-15.8974 357.5167,-13.5005 358.2745,-20.4594"/>
</g>
</g>
</svg>
