<?xml version="1.0" encoding="UTF-8" standalone="no"?>
<!DOCTYPE svg PUBLIC "-//W3C//DTD SVG 1.1//EN"
 "http://www.w3.org/Graphics/SVG/1.1/DTD/svg11.dtd">
<!-- Generated by graphviz version 2.40.1 (20161225.0304)
 -->
<!-- Title: src/qt/guiutil.cpp Pages: 1 -->
<svg width="3097pt" height="207pt"
 viewBox="0.00 0.00 3097.00 207.00" xmlns="http://www.w3.org/2000/svg" xmlns:xlink="http://www.w3.org/1999/xlink">
<g id="graph0" class="graph" transform="scale(1 1) rotate(0) translate(4 203)">
<title>src/qt/guiutil.cpp</title>
<polygon fill="#ffffff" stroke="transparent" points="-4,4 -4,-203 3093,-203 3093,4 -4,4"/>
<!-- Node0 -->
<g id="node1" class="node">
<title>Node0</title>
<polygon fill="#bfbfbf" stroke="#000000" points="1509,-179.5 1509,-198.5 1598,-198.5 1598,-179.5 1509,-179.5"/>
<text text-anchor="middle" x="1553.5" y="-186.5" font-family="Helvetica,sans-Serif" font-size="10.00" fill="#000000">src/qt/guiutil.cpp</text>
</g>
<!-- Node1 -->
<g id="node2" class="node">
<title>Node1</title>
<g id="a_node2"><a xlink:href="guiutil_8h.html" target="_top" xlink:title="guiutil.h">
<polygon fill="#ffffff" stroke="#000000" points="230.5,-62 230.5,-81 280.5,-81 280.5,-62 230.5,-62"/>
<text text-anchor="middle" x="255.5" y="-69" font-family="Helvetica,sans-Serif" font-size="10.00" fill="#000000">guiutil.h</text>
</a>
</g>
</g>
<!-- Node0&#45;&gt;Node1 -->
<g id="edge1" class="edge">
<title>Node0&#45;&gt;Node1</title>
<path fill="none" stroke="#191970" d="M1508.6788,-188.679C1289.6427,-186.9456 340.2639,-177.4618 288.5,-143 271.0429,-131.3779 262.658,-108.0116 258.741,-91.1485"/>
<polygon fill="#191970" stroke="#191970" points="262.1449,-90.3203 256.7617,-81.195 255.2794,-91.6856 262.1449,-90.3203"/>
</g>
<!-- Node4 -->
<g id="node4" class="node">
<title>Node4</title>
<g id="a_node4"><a xlink:href="fs_8h.html" target="_top" xlink:title="fs.h">
<polygon fill="#ffffff" stroke="#ff0000" points="0,-.5 0,-19.5 33,-19.5 33,-.5 0,-.5"/>
<text text-anchor="middle" x="16.5" y="-7.5" font-family="Helvetica,sans-Serif" font-size="10.00" fill="#000000">fs.h</text>
</a>
</g>
</g>
<!-- Node0&#45;&gt;Node4 -->
<g id="edge30" class="edge">
<title>Node0&#45;&gt;Node4</title>
<path fill="none" stroke="#191970" d="M1508.6593,-188.5817C1295.5253,-186.4336 390.1626,-175.4564 268.5,-143 176.0995,-118.35 79.5503,-55.0872 37.8081,-25.5839"/>
<polygon fill="#191970" stroke="#191970" points="39.6983,-22.6328 29.528,-19.6633 35.6267,-28.3269 39.6983,-22.6328"/>
</g>
<!-- Node18 -->
<g id="node13" class="node">
<title>Node18</title>
<g id="a_node13"><a xlink:href="ravenaddressvalidator_8h.html" target="_top" xlink:title="ravenaddressvalidator.h">
<polygon fill="#ffffff" stroke="#000000" points="297.5,-123.5 297.5,-142.5 417.5,-142.5 417.5,-123.5 297.5,-123.5"/>
<text text-anchor="middle" x="357.5" y="-130.5" font-family="Helvetica,sans-Serif" font-size="10.00" fill="#000000">ravenaddressvalidator.h</text>
</a>
</g>
</g>
<!-- Node0&#45;&gt;Node18 -->
<g id="edge12" class="edge">
<title>Node0&#45;&gt;Node18</title>
<path fill="none" stroke="#191970" d="M1508.9644,-187.7149C1361.9245,-183.3388 878.5776,-167.8925 479.5,-143 462.8134,-141.9592 444.861,-140.6137 427.9967,-139.249"/>
<polygon fill="#191970" stroke="#191970" points="427.9111,-135.7303 417.658,-138.3994 427.3377,-142.7067 427.9111,-135.7303"/>
</g>
<!-- Node20 -->
<g id="node15" class="node">
<title>Node20</title>
<g id="a_node15"><a xlink:href="ravenunits_8h.html" target="_top" xlink:title="ravenunits.h">
<polygon fill="#ffffff" stroke="#000000" points="1033.5,-62 1033.5,-81 1103.5,-81 1103.5,-62 1033.5,-62"/>
<text text-anchor="middle" x="1068.5" y="-69" font-family="Helvetica,sans-Serif" font-size="10.00" fill="#000000">ravenunits.h</text>
</a>
</g>
</g>
<!-- Node0&#45;&gt;Node20 -->
<g id="edge14" class="edge">
<title>Node0&#45;&gt;Node20</title>
<path fill="none" stroke="#191970" d="M1508.775,-187.7568C1356.9196,-183.3211 869.2084,-167.2339 846.5,-143 805.8902,-99.6621 779.1,-153.6369 1023.5,-87 1026.5119,-86.1788 1029.6149,-85.2624 1032.7166,-84.2967"/>
<polygon fill="#191970" stroke="#191970" points="1034.0855,-87.5317 1042.5056,-81.1011 1031.9131,-80.8773 1034.0855,-87.5317"/>
</g>
<!-- Node22 -->
<g id="node17" class="node">
<title>Node22</title>
<g id="a_node17"><a xlink:href="qvalidatedlineedit_8h.html" target="_top" xlink:title="qvalidatedlineedit.h">
<polygon fill="#ffffff" stroke="#000000" points="488.5,-123.5 488.5,-142.5 588.5,-142.5 588.5,-123.5 488.5,-123.5"/>
<text text-anchor="middle" x="538.5" y="-130.5" font-family="Helvetica,sans-Serif" font-size="10.00" fill="#000000">qvalidatedlineedit.h</text>
</a>
</g>
</g>
<!-- Node0&#45;&gt;Node22 -->
<g id="edge18" class="edge">
<title>Node0&#45;&gt;Node22</title>
<path fill="none" stroke="#191970" d="M1508.6759,-187.7402C1374.8064,-183.7694 966.2738,-170.1385 628.5,-143 618.9629,-142.2337 608.8739,-141.2666 599.0344,-140.2375"/>
<polygon fill="#191970" stroke="#191970" points="599.2213,-136.7375 588.9045,-139.1484 598.473,-143.6974 599.2213,-136.7375"/>
</g>
<!-- Node23 -->
<g id="node18" class="node">
<title>Node23</title>
<polygon fill="#ffffff" stroke="#bfbfbf" points="379,-62 379,-81 438,-81 438,-62 379,-62"/>
<text text-anchor="middle" x="408.5" y="-69" font-family="Helvetica,sans-Serif" font-size="10.00" fill="#000000">QLineEdit</text>
</g>
<!-- Node0&#45;&gt;Node23 -->
<g id="edge53" class="edge">
<title>Node0&#45;&gt;Node23</title>
<path fill="none" stroke="#191970" d="M1508.846,-187.9049C1353.5892,-183.9035 837.8742,-168.9358 674.5,-143 668.8053,-142.096 520.6224,-101.947 447.9485,-82.2178"/>
<polygon fill="#191970" stroke="#191970" points="448.7854,-78.8183 438.2177,-79.5756 446.9511,-85.5738 448.7854,-78.8183"/>
</g>
<!-- Node24 -->
<g id="node19" class="node">
<title>Node24</title>
<g id="a_node19"><a xlink:href="walletmodel_8h.html" target="_top" xlink:title="walletmodel.h">
<polygon fill="#ffffff" stroke="#000000" points="684,-123.5 684,-142.5 761,-142.5 761,-123.5 684,-123.5"/>
<text text-anchor="middle" x="722.5" y="-130.5" font-family="Helvetica,sans-Serif" font-size="10.00" fill="#000000">walletmodel.h</text>
</a>
</g>
</g>
<!-- Node0&#45;&gt;Node24 -->
<g id="edge20" class="edge">
<title>Node0&#45;&gt;Node24</title>
<path fill="none" stroke="#191970" d="M1508.5888,-188.3435C1388.9586,-186.1632 1052.8024,-177.2171 775.5,-143 774.0479,-142.8208 772.5757,-142.6263 771.0911,-142.4189"/>
<polygon fill="#191970" stroke="#191970" points="771.6151,-138.9584 761.198,-140.8908 770.5465,-145.8764 771.6151,-138.9584"/>
</g>
<!-- Node43 -->
<g id="node25" class="node">
<title>Node43</title>
<g id="a_node25"><a xlink:href="transaction_8h.html" target="_top" xlink:title="primitives/transaction.h">
<polygon fill="#ffffff" stroke="#ff0000" points="855.5,-123.5 855.5,-142.5 973.5,-142.5 973.5,-123.5 855.5,-123.5"/>
<text text-anchor="middle" x="914.5" y="-130.5" font-family="Helvetica,sans-Serif" font-size="10.00" fill="#000000">primitives/transaction.h</text>
</a>
</g>
</g>
<!-- Node0&#45;&gt;Node43 -->
<g id="edge31" class="edge">
<title>Node0&#45;&gt;Node43</title>
<path fill="none" stroke="#191970" d="M1508.9813,-186.4116C1414.3303,-180.693 1185.9074,-165.7505 984.01,-143.109"/>
<polygon fill="#191970" stroke="#191970" points="984.1381,-139.6013 973.8082,-141.9558 983.3517,-146.557 984.1381,-139.6013"/>
</g>
<!-- Node44 -->
<g id="node26" class="node">
<title>Node44</title>
<g id="a_node26"><a xlink:href="script_8h.html" target="_top" xlink:title="script/script.h">
<polygon fill="#ffffff" stroke="#ff0000" points="1197.5,-62 1197.5,-81 1273.5,-81 1273.5,-62 1197.5,-62"/>
<text text-anchor="middle" x="1235.5" y="-69" font-family="Helvetica,sans-Serif" font-size="10.00" fill="#000000">script/script.h</text>
</a>
</g>
</g>
<!-- Node0&#45;&gt;Node44 -->
<g id="edge40" class="edge">
<title>Node0&#45;&gt;Node44</title>
<path fill="none" stroke="#191970" d="M1508.9626,-187.9932C1396.8619,-185.0009 1109.9219,-174.3265 1081.5,-143 1075.5272,-136.4168 1076.3061,-130.2136 1081.5,-123 1094.1422,-105.4419 1146.9866,-90.4248 1187.2796,-81.2136"/>
<polygon fill="#191970" stroke="#191970" points="1188.2214,-84.5897 1197.2211,-78.9989 1186.6993,-77.7572 1188.2214,-84.5897"/>
</g>
<!-- Node113 -->
<g id="node27" class="node">
<title>Node113</title>
<polygon fill="#ffffff" stroke="#bfbfbf" points="991.5,-123.5 991.5,-142.5 1029.5,-142.5 1029.5,-123.5 991.5,-123.5"/>
<text text-anchor="middle" x="1010.5" y="-130.5" font-family="Helvetica,sans-Serif" font-size="10.00" fill="#000000">init.h</text>
</g>
<!-- Node0&#45;&gt;Node113 -->
<g id="edge36" class="edge">
<title>Node0&#45;&gt;Node113</title>
<path fill="none" stroke="#191970" d="M1508.7287,-188.0267C1419.4454,-185.4142 1213.2322,-176.0115 1043.5,-143 1042.2109,-142.7493 1040.9004,-142.4681 1039.5816,-142.1635"/>
<polygon fill="#191970" stroke="#191970" points="1040.0922,-138.6776 1029.5284,-139.4877 1038.2917,-145.4421 1040.0922,-138.6776"/>
</g>
<!-- Node114 -->
<g id="node28" class="node">
<title>Node114</title>
<g id="a_node28"><a xlink:href="policy_8h.html" target="_top" xlink:title="policy/policy.h">
<polygon fill="#ffffff" stroke="#ff0000" points="3010,-123.5 3010,-142.5 3089,-142.5 3089,-123.5 3010,-123.5"/>
<text text-anchor="middle" x="3049.5" y="-130.5" font-family="Helvetica,sans-Serif" font-size="10.00" fill="#000000">policy/policy.h</text>
</a>
</g>
</g>
<!-- Node0&#45;&gt;Node114 -->
<g id="edge37" class="edge">
<title>Node0&#45;&gt;Node114</title>
<path fill="none" stroke="#191970" d="M1598.2383,-188.6C1808.2996,-186.5673 2698.7196,-176.1905 2999.7189,-142.8454"/>
<polygon fill="#191970" stroke="#191970" points="3000.207,-146.3125 3009.7452,-141.7003 2999.4126,-139.3577 3000.207,-146.3125"/>
</g>
<!-- Node104 -->
<g id="node29" class="node">
<title>Node104</title>
<g id="a_node29"><a xlink:href="standard_8h.html" target="_top" xlink:title="script/standard.h">
<polygon fill="#ffffff" stroke="#ff0000" points="2148,-62 2148,-81 2237,-81 2237,-62 2148,-62"/>
<text text-anchor="middle" x="2192.5" y="-69" font-family="Helvetica,sans-Serif" font-size="10.00" fill="#000000">script/standard.h</text>
</a>
</g>
</g>
<!-- Node0&#45;&gt;Node104 -->
<g id="edge41" class="edge">
<title>Node0&#45;&gt;Node104</title>
<path fill="none" stroke="#191970" d="M1508.9757,-187.6446C1402.6062,-183.9491 1140.5919,-171.9687 1114.5,-143 1108.5511,-136.3952 1108.3664,-129.4336 1114.5,-123 1150.1174,-85.6404 1923.3687,-74.4374 2137.7968,-72.0436"/>
<polygon fill="#191970" stroke="#191970" points="2137.9156,-75.5426 2147.8766,-71.933 2137.8388,-68.543 2137.9156,-75.5426"/>
</g>
<!-- Node117 -->
<g id="node30" class="node">
<title>Node117</title>
<polygon fill="#ffffff" stroke="#bfbfbf" points="1124,-123.5 1124,-142.5 1183,-142.5 1183,-123.5 1124,-123.5"/>
<text text-anchor="middle" x="1153.5" y="-130.5" font-family="Helvetica,sans-Serif" font-size="10.00" fill="#000000">protocol.h</text>
</g>
<!-- Node0&#45;&gt;Node117 -->
<g id="edge39" class="edge">
<title>Node0&#45;&gt;Node117</title>
<path fill="none" stroke="#191970" d="M1508.7579,-185.103C1442.1295,-178.9053 1312.7664,-165.3567 1193.2771,-142.939"/>
<polygon fill="#191970" stroke="#191970" points="1193.7026,-139.4573 1183.2247,-141.0273 1192.3947,-146.334 1193.7026,-139.4573"/>
</g>
<!-- Node118 -->
<g id="node31" class="node">
<title>Node118</title>
<polygon fill="#ffffff" stroke="#bfbfbf" points="1201.5,-123.5 1201.5,-142.5 1239.5,-142.5 1239.5,-123.5 1201.5,-123.5"/>
<text text-anchor="middle" x="1220.5" y="-130.5" font-family="Helvetica,sans-Serif" font-size="10.00" fill="#000000">util.h</text>
</g>
<!-- Node0&#45;&gt;Node118 -->
<g id="edge42" class="edge">
<title>Node0&#45;&gt;Node118</title>
<path fill="none" stroke="#191970" d="M1508.7718,-184.9883C1450.8403,-179.1946 1346.7195,-166.7494 1249.6074,-142.8821"/>
<polygon fill="#191970" stroke="#191970" points="1250.1797,-139.4173 1239.6289,-140.3824 1248.4786,-146.2075 1250.1797,-139.4173"/>
</g>
<!-- Node119 -->
<g id="node32" class="node">
<title>Node119</title>
<polygon fill="#ffffff" stroke="#bfbfbf" points="1258,-123.5 1258,-142.5 1379,-142.5 1379,-123.5 1258,-123.5"/>
<text text-anchor="middle" x="1318.5" y="-130.5" font-family="Helvetica,sans-Serif" font-size="10.00" fill="#000000">boost/scoped_array.hpp</text>
</g>
<!-- Node0&#45;&gt;Node119 -->
<g id="edge43" class="edge">
<title>Node0&#45;&gt;Node119</title>
<path fill="none" stroke="#191970" d="M1513.3691,-179.4369C1473.2351,-169.8731 1411.4225,-155.1432 1368.2067,-144.845"/>
<polygon fill="#191970" stroke="#191970" points="1369.0044,-141.4372 1358.4654,-142.5237 1367.3817,-148.2465 1369.0044,-141.4372"/>
</g>
<!-- Node120 -->
<g id="node33" class="node">
<title>Node120</title>
<polygon fill="#ffffff" stroke="#bfbfbf" points="1397.5,-123.5 1397.5,-142.5 1499.5,-142.5 1499.5,-123.5 1397.5,-123.5"/>
<text text-anchor="middle" x="1448.5" y="-130.5" font-family="Helvetica,sans-Serif" font-size="10.00" fill="#000000">QAbstractItemView</text>
</g>
<!-- Node0&#45;&gt;Node120 -->
<g id="edge44" class="edge">
<title>Node0&#45;&gt;Node120</title>
<path fill="none" stroke="#191970" d="M1535.2104,-179.2455C1518.7238,-170.4527 1494.2648,-157.4079 1475.5235,-147.4125"/>
<polygon fill="#191970" stroke="#191970" points="1477.0506,-144.2604 1466.58,-142.6427 1473.7565,-150.4368 1477.0506,-144.2604"/>
</g>
<!-- Node121 -->
<g id="node34" class="node">
<title>Node121</title>
<polygon fill="#ffffff" stroke="#bfbfbf" points="1517.5,-123.5 1517.5,-142.5 1589.5,-142.5 1589.5,-123.5 1517.5,-123.5"/>
<text text-anchor="middle" x="1553.5" y="-130.5" font-family="Helvetica,sans-Serif" font-size="10.00" fill="#000000">QApplication</text>
</g>
<!-- Node0&#45;&gt;Node121 -->
<g id="edge45" class="edge">
<title>Node0&#45;&gt;Node121</title>
<path fill="none" stroke="#191970" d="M1553.5,-179.2455C1553.5,-171.9382 1553.5,-161.6944 1553.5,-152.7046"/>
<polygon fill="#191970" stroke="#191970" points="1557.0001,-152.6426 1553.5,-142.6427 1550.0001,-152.6427 1557.0001,-152.6426"/>
</g>
<!-- Node122 -->
<g id="node35" class="node">
<title>Node122</title>
<polygon fill="#ffffff" stroke="#bfbfbf" points="1608,-123.5 1608,-142.5 1673,-142.5 1673,-123.5 1608,-123.5"/>
<text text-anchor="middle" x="1640.5" y="-130.5" font-family="Helvetica,sans-Serif" font-size="10.00" fill="#000000">QClipboard</text>
</g>
<!-- Node0&#45;&gt;Node122 -->
<g id="edge46" class="edge">
<title>Node0&#45;&gt;Node122</title>
<path fill="none" stroke="#191970" d="M1568.6542,-179.2455C1582.0027,-170.6534 1601.6586,-158.0014 1617.0383,-148.1018"/>
<polygon fill="#191970" stroke="#191970" points="1619.0051,-150.9982 1625.5194,-142.6427 1615.2164,-145.1121 1619.0051,-150.9982"/>
</g>
<!-- Node123 -->
<g id="node36" class="node">
<title>Node123</title>
<polygon fill="#ffffff" stroke="#bfbfbf" points="1691,-123.5 1691,-142.5 1758,-142.5 1758,-123.5 1691,-123.5"/>
<text text-anchor="middle" x="1724.5" y="-130.5" font-family="Helvetica,sans-Serif" font-size="10.00" fill="#000000">QDateTime</text>
</g>
<!-- Node0&#45;&gt;Node123 -->
<g id="edge47" class="edge">
<title>Node0&#45;&gt;Node123</title>
<path fill="none" stroke="#191970" d="M1582.8959,-179.3733C1611.3307,-170.0613 1654.5877,-155.8953 1685.8081,-145.671"/>
<polygon fill="#191970" stroke="#191970" points="1687.0736,-148.9396 1695.4876,-142.5011 1684.895,-142.2872 1687.0736,-148.9396"/>
</g>
<!-- Node124 -->
<g id="node37" class="node">
<title>Node124</title>
<polygon fill="#ffffff" stroke="#bfbfbf" points="1776,-123.5 1776,-142.5 1875,-142.5 1875,-123.5 1776,-123.5"/>
<text text-anchor="middle" x="1825.5" y="-130.5" font-family="Helvetica,sans-Serif" font-size="10.00" fill="#000000">QDesktopServices</text>
</g>
<!-- Node0&#45;&gt;Node124 -->
<g id="edge48" class="edge">
<title>Node0&#45;&gt;Node124</title>
<path fill="none" stroke="#191970" d="M1598.1107,-179.8154C1644.8792,-170.1866 1718.4842,-155.0327 1769.2161,-144.5879"/>
<polygon fill="#191970" stroke="#191970" points="1769.954,-148.0094 1779.0428,-142.5647 1768.5424,-141.1532 1769.954,-148.0094"/>
</g>
<!-- Node125 -->
<g id="node38" class="node">
<title>Node125</title>
<polygon fill="#ffffff" stroke="#bfbfbf" points="1893.5,-123.5 1893.5,-142.5 1985.5,-142.5 1985.5,-123.5 1893.5,-123.5"/>
<text text-anchor="middle" x="1939.5" y="-130.5" font-family="Helvetica,sans-Serif" font-size="10.00" fill="#000000">QDesktopWidget</text>
</g>
<!-- Node0&#45;&gt;Node125 -->
<g id="edge49" class="edge">
<title>Node0&#45;&gt;Node125</title>
<path fill="none" stroke="#191970" d="M1598.0248,-183.4125C1659.7356,-175.5362 1774.9958,-160.3493 1883.1991,-143.1583"/>
<polygon fill="#191970" stroke="#191970" points="1883.9881,-146.5767 1893.3105,-141.5426 1882.8835,-139.6644 1883.9881,-146.5767"/>
</g>
<!-- Node126 -->
<g id="node39" class="node">
<title>Node126</title>
<polygon fill="#ffffff" stroke="#bfbfbf" points="2004,-123.5 2004,-142.5 2097,-142.5 2097,-123.5 2004,-123.5"/>
<text text-anchor="middle" x="2050.5" y="-130.5" font-family="Helvetica,sans-Serif" font-size="10.00" fill="#000000">QDoubleValidator</text>
</g>
<!-- Node0&#45;&gt;Node126 -->
<g id="edge50" class="edge">
<title>Node0&#45;&gt;Node126</title>
<path fill="none" stroke="#191970" d="M1598.074,-185.4307C1676.1015,-178.9473 1842.7022,-164.0597 1993.857,-142.9994"/>
<polygon fill="#191970" stroke="#191970" points="1994.3744,-146.4612 2003.7898,-141.6033 1993.4,-139.5293 1994.3744,-146.4612"/>
</g>
<!-- Node127 -->
<g id="node40" class="node">
<title>Node127</title>
<polygon fill="#ffffff" stroke="#bfbfbf" points="2115.5,-123.5 2115.5,-142.5 2183.5,-142.5 2183.5,-123.5 2115.5,-123.5"/>
<text text-anchor="middle" x="2149.5" y="-130.5" font-family="Helvetica,sans-Serif" font-size="10.00" fill="#000000">QFileDialog</text>
</g>
<!-- Node0&#45;&gt;Node127 -->
<g id="edge51" class="edge">
<title>Node0&#45;&gt;Node127</title>
<path fill="none" stroke="#191970" d="M1598.204,-187.4872C1690.991,-183.8725 1911.3103,-172.8252 2105.2302,-142.9947"/>
<polygon fill="#191970" stroke="#191970" points="2105.979,-146.4203 2115.3205,-141.4216 2104.9007,-139.5038 2105.979,-146.4203"/>
</g>
<!-- Node128 -->
<g id="node41" class="node">
<title>Node128</title>
<polygon fill="#ffffff" stroke="#bfbfbf" points="2201.5,-123.5 2201.5,-142.5 2245.5,-142.5 2245.5,-123.5 2201.5,-123.5"/>
<text text-anchor="middle" x="2223.5" y="-130.5" font-family="Helvetica,sans-Serif" font-size="10.00" fill="#000000">QFont</text>
</g>
<!-- Node0&#45;&gt;Node128 -->
<g id="edge52" class="edge">
<title>Node0&#45;&gt;Node128</title>
<path fill="none" stroke="#191970" d="M1598.2184,-187.1792C1720.5408,-181.9824 2059.7378,-166.0701 2191.1092,-142.7703"/>
<polygon fill="#191970" stroke="#191970" points="2192.1306,-146.14 2201.3166,-140.8611 2190.8436,-139.2593 2192.1306,-146.14"/>
</g>
<!-- Node129 -->
<g id="node42" class="node">
<title>Node129</title>
<polygon fill="#ffffff" stroke="#bfbfbf" points="2263.5,-123.5 2263.5,-142.5 2323.5,-142.5 2323.5,-123.5 2263.5,-123.5"/>
<text text-anchor="middle" x="2293.5" y="-130.5" font-family="Helvetica,sans-Serif" font-size="10.00" fill="#000000">QSettings</text>
</g>
<!-- Node0&#45;&gt;Node129 -->
<g id="edge54" class="edge">
<title>Node0&#45;&gt;Node129</title>
<path fill="none" stroke="#191970" d="M1598.1354,-187.156C1728.615,-181.598 2108.7458,-164.1706 2253.3821,-142.8524"/>
<polygon fill="#191970" stroke="#191970" points="2254.0323,-146.2936 2263.3823,-141.3109 2252.9658,-139.3753 2254.0323,-146.2936"/>
</g>
<!-- Node130 -->
<g id="node43" class="node">
<title>Node130</title>
<polygon fill="#ffffff" stroke="#bfbfbf" points="2342,-123.5 2342,-142.5 2431,-142.5 2431,-123.5 2342,-123.5"/>
<text text-anchor="middle" x="2386.5" y="-130.5" font-family="Helvetica,sans-Serif" font-size="10.00" fill="#000000">QTextDocument</text>
</g>
<!-- Node0&#45;&gt;Node130 -->
<g id="edge55" class="edge">
<title>Node0&#45;&gt;Node130</title>
<path fill="none" stroke="#191970" d="M1598.0285,-188.303C1716.0166,-186.0438 2046.5782,-177.0371 2331.6553,-142.9474"/>
<polygon fill="#191970" stroke="#191970" points="2332.269,-146.3988 2341.7768,-141.7241 2331.4291,-139.4494 2332.269,-146.3988"/>
</g>
<!-- Node131 -->
<g id="node44" class="node">
<title>Node131</title>
<polygon fill="#ffffff" stroke="#bfbfbf" points="2449.5,-123.5 2449.5,-142.5 2503.5,-142.5 2503.5,-123.5 2449.5,-123.5"/>
<text text-anchor="middle" x="2476.5" y="-130.5" font-family="Helvetica,sans-Serif" font-size="10.00" fill="#000000">QThread</text>
</g>
<!-- Node0&#45;&gt;Node131 -->
<g id="edge56" class="edge">
<title>Node0&#45;&gt;Node131</title>
<path fill="none" stroke="#191970" d="M1598.0267,-187.9812C1751.1661,-184.2798 2256.3306,-170.3812 2439.1045,-142.848"/>
<polygon fill="#191970" stroke="#191970" points="2439.7863,-146.2839 2449.1206,-141.2718 2438.698,-139.369 2439.7863,-146.2839"/>
</g>
<!-- Node132 -->
<g id="node45" class="node">
<title>Node132</title>
<polygon fill="#ffffff" stroke="#bfbfbf" points="2522,-123.5 2522,-142.5 2601,-142.5 2601,-123.5 2522,-123.5"/>
<text text-anchor="middle" x="2561.5" y="-130.5" font-family="Helvetica,sans-Serif" font-size="10.00" fill="#000000">QMouseEvent</text>
</g>
<!-- Node0&#45;&gt;Node132 -->
<g id="edge57" class="edge">
<title>Node0&#45;&gt;Node132</title>
<path fill="none" stroke="#191970" d="M1598.1358,-187.7692C1759.4436,-183.1817 2312.6602,-166.2038 2511.6826,-142.8688"/>
<polygon fill="#191970" stroke="#191970" points="2512.2343,-146.3275 2521.7386,-141.6458 2511.3892,-139.3787 2512.2343,-146.3275"/>
</g>
<!-- Node133 -->
<g id="node46" class="node">
<title>Node133</title>
<polygon fill="#ffffff" stroke="#bfbfbf" points="2619,-123.5 2619,-142.5 2674,-142.5 2674,-123.5 2619,-123.5"/>
<text text-anchor="middle" x="2646.5" y="-130.5" font-family="Helvetica,sans-Serif" font-size="10.00" fill="#000000">QPainter</text>
</g>
<!-- Node0&#45;&gt;Node133 -->
<g id="edge58" class="edge">
<title>Node0&#45;&gt;Node133</title>
<path fill="none" stroke="#191970" d="M1598.1917,-188.408C1770.2973,-185.9218 2391.0116,-175.002 2608.6732,-142.9299"/>
<polygon fill="#191970" stroke="#191970" points="2609.3766,-146.363 2618.7299,-141.3866 2608.3147,-139.444 2609.3766,-146.363"/>
</g>
<!-- Node134 -->
<g id="node47" class="node">
<title>Node134</title>
<polygon fill="#ffffff" stroke="#bfbfbf" points="2692,-123.5 2692,-142.5 2729,-142.5 2729,-123.5 2692,-123.5"/>
<text text-anchor="middle" x="2710.5" y="-130.5" font-family="Helvetica,sans-Serif" font-size="10.00" fill="#000000">QUrl</text>
</g>
<!-- Node0&#45;&gt;Node134 -->
<g id="edge59" class="edge">
<title>Node0&#45;&gt;Node134</title>
<path fill="none" stroke="#191970" d="M1598.3116,-188.0059C1789.8979,-183.6463 2536.6448,-165.5023 2681.7417,-142.5691"/>
<polygon fill="#191970" stroke="#191970" points="2682.6072,-145.97 2691.8365,-140.7671 2681.377,-139.0789 2682.6072,-145.97"/>
</g>
<!-- Node135 -->
<g id="node48" class="node">
<title>Node135</title>
<polygon fill="#ffffff" stroke="#bfbfbf" points="2747.5,-123.5 2747.5,-142.5 2893.5,-142.5 2893.5,-123.5 2747.5,-123.5"/>
<text text-anchor="middle" x="2820.5" y="-130.5" font-family="Helvetica,sans-Serif" font-size="10.00" fill="#000000">QGraphicsDropShadowEffect</text>
</g>
<!-- Node0&#45;&gt;Node135 -->
<g id="edge60" class="edge">
<title>Node0&#45;&gt;Node135</title>
<path fill="none" stroke="#191970" d="M1598.2384,-188.5932C1753.9206,-186.8965 2286.5565,-178.7383 2736.9237,-143.0625"/>
<polygon fill="#191970" stroke="#191970" points="2737.5229,-146.5259 2747.2128,-142.2415 2736.966,-139.5481 2737.5229,-146.5259"/>
</g>
<!-- Node136 -->
<g id="node49" class="node">
<title>Node136</title>
<g id="a_node49"><a xlink:href="guiconstants_8h.html" target="_top" xlink:title="guiconstants.h">
<polygon fill="#ffffff" stroke="#000000" points="2911.5,-123.5 2911.5,-142.5 2991.5,-142.5 2991.5,-123.5 2911.5,-123.5"/>
<text text-anchor="middle" x="2951.5" y="-130.5" font-family="Helvetica,sans-Serif" font-size="10.00" fill="#000000">guiconstants.h</text>
</a>
</g>
</g>
<!-- Node0&#45;&gt;Node136 -->
<g id="edge61" class="edge">
<title>Node0&#45;&gt;Node136</title>
<path fill="none" stroke="#191970" d="M1598.2217,-188.4808C1799.2222,-185.9951 2621.0155,-174.1658 2901.3349,-142.9035"/>
<polygon fill="#191970" stroke="#191970" points="2901.9432,-146.3567 2911.4771,-141.7356 2901.1423,-139.4027 2901.9432,-146.3567"/>
</g>
<!-- Node137 -->
<g id="node50" class="node">
<title>Node137</title>
<g id="a_node50"><a xlink:href="platformstyle_8h.html" target="_top" xlink:title="platformstyle.h">
<polygon fill="#ffffff" stroke="#ff0000" points="934,-62 934,-81 1015,-81 1015,-62 934,-62"/>
<text text-anchor="middle" x="974.5" y="-69" font-family="Helvetica,sans-Serif" font-size="10.00" fill="#000000">platformstyle.h</text>
</a>
</g>
</g>
<!-- Node0&#45;&gt;Node137 -->
<g id="edge62" class="edge">
<title>Node0&#45;&gt;Node137</title>
<path fill="none" stroke="#191970" d="M1508.7857,-187.8799C1352.7141,-183.756 840.2973,-168.3289 816.5,-143 810.4135,-136.5218 811.2786,-130.1937 816.5,-123 818.3058,-120.512 887.7835,-98.4963 933.9962,-84.0664"/>
<polygon fill="#191970" stroke="#191970" points="935.2521,-87.3411 943.7571,-81.0233 933.1686,-80.6584 935.2521,-87.3411"/>
</g>
<!-- Node2 -->
<g id="node3" class="node">
<title>Node2</title>
<g id="a_node3"><a xlink:href="amount_8h.html" target="_top" xlink:title="amount.h">
<polygon fill="#ffffff" stroke="#ff0000" points="1138,-.5 1138,-19.5 1195,-19.5 1195,-.5 1138,-.5"/>
<text text-anchor="middle" x="1166.5" y="-7.5" font-family="Helvetica,sans-Serif" font-size="10.00" fill="#000000">amount.h</text>
</a>
</g>
</g>
<!-- Node1&#45;&gt;Node2 -->
<g id="edge2" class="edge">
<title>Node1&#45;&gt;Node2</title>
<path fill="none" stroke="#191970" d="M273.0369,-61.955C278.1962,-59.5784 283.9486,-57.331 289.5,-56 649.2567,30.2516 757.5638,-73.9501 1127.6802,-19.7707"/>
<polygon fill="#191970" stroke="#191970" points="1128.2141,-23.2299 1137.5878,-18.2918 1127.1806,-16.3065 1128.2141,-23.2299"/>
</g>
<!-- Node1&#45;&gt;Node4 -->
<g id="edge3" class="edge">
<title>Node1&#45;&gt;Node4</title>
<path fill="none" stroke="#191970" d="M230.2905,-66.5144C191.8537,-58.6762 116.1985,-42.3202 43.0104,-19.8431"/>
<polygon fill="#191970" stroke="#191970" points="43.7594,-16.4106 33.1709,-16.7788 41.6779,-23.094 43.7594,-16.4106"/>
</g>
<!-- Node10 -->
<g id="node5" class="node">
<title>Node10</title>
<polygon fill="#ffffff" stroke="#bfbfbf" points="51.5,-.5 51.5,-19.5 101.5,-19.5 101.5,-.5 51.5,-.5"/>
<text text-anchor="middle" x="76.5" y="-7.5" font-family="Helvetica,sans-Serif" font-size="10.00" fill="#000000">QEvent</text>
</g>
<!-- Node1&#45;&gt;Node10 -->
<g id="edge4" class="edge">
<title>Node1&#45;&gt;Node10</title>
<path fill="none" stroke="#191970" d="M230.2333,-62.819C199.1833,-52.151 146.3332,-33.993 111.416,-21.9963"/>
<polygon fill="#191970" stroke="#191970" points="112.2328,-18.5762 101.6381,-18.6368 109.9582,-25.1963 112.2328,-18.5762"/>
</g>
<!-- Node11 -->
<g id="node6" class="node">
<title>Node11</title>
<polygon fill="#ffffff" stroke="#bfbfbf" points="120,-.5 120,-19.5 197,-19.5 197,-.5 120,-.5"/>
<text text-anchor="middle" x="158.5" y="-7.5" font-family="Helvetica,sans-Serif" font-size="10.00" fill="#000000">QHeaderView</text>
</g>
<!-- Node1&#45;&gt;Node11 -->
<g id="edge5" class="edge">
<title>Node1&#45;&gt;Node11</title>
<path fill="none" stroke="#191970" d="M240.3438,-61.8906C224.8257,-52.0519 200.4807,-36.6167 182.3716,-25.1351"/>
<polygon fill="#191970" stroke="#191970" points="183.8696,-21.9407 173.5498,-19.5419 180.1213,-27.8526 183.8696,-21.9407"/>
</g>
<!-- Node12 -->
<g id="node7" class="node">
<title>Node12</title>
<polygon fill="#ffffff" stroke="#bfbfbf" points="215,-.5 215,-19.5 296,-19.5 296,-.5 215,-.5"/>
<text text-anchor="middle" x="255.5" y="-7.5" font-family="Helvetica,sans-Serif" font-size="10.00" fill="#000000">QMessageBox</text>
</g>
<!-- Node1&#45;&gt;Node12 -->
<g id="edge6" class="edge">
<title>Node1&#45;&gt;Node12</title>
<path fill="none" stroke="#191970" d="M255.5,-61.8906C255.5,-53.3657 255.5,-40.6392 255.5,-29.9235"/>
<polygon fill="#191970" stroke="#191970" points="259.0001,-29.7448 255.5,-19.7449 252.0001,-29.7449 259.0001,-29.7448"/>
</g>
<!-- Node13 -->
<g id="node8" class="node">
<title>Node13</title>
<polygon fill="#ffffff" stroke="#bfbfbf" points="564,-.5 564,-19.5 617,-19.5 617,-.5 564,-.5"/>
<text text-anchor="middle" x="590.5" y="-7.5" font-family="Helvetica,sans-Serif" font-size="10.00" fill="#000000">QObject</text>
</g>
<!-- Node1&#45;&gt;Node13 -->
<g id="edge7" class="edge">
<title>Node1&#45;&gt;Node13</title>
<path fill="none" stroke="#191970" d="M273.8309,-61.9605C278.8049,-59.7021 284.265,-57.5132 289.5,-56 400.563,-23.8975 436.14,-42.8551 553.7455,-19.8737"/>
<polygon fill="#191970" stroke="#191970" points="554.7511,-23.2415 563.862,-17.834 553.3675,-16.3796 554.7511,-23.2415"/>
</g>
<!-- Node14 -->
<g id="node9" class="node">
<title>Node14</title>
<polygon fill="#ffffff" stroke="#bfbfbf" points="314.5,-.5 314.5,-19.5 392.5,-19.5 392.5,-.5 314.5,-.5"/>
<text text-anchor="middle" x="353.5" y="-7.5" font-family="Helvetica,sans-Serif" font-size="10.00" fill="#000000">QProgressBar</text>
</g>
<!-- Node1&#45;&gt;Node14 -->
<g id="edge8" class="edge">
<title>Node1&#45;&gt;Node14</title>
<path fill="none" stroke="#191970" d="M270.8125,-61.8906C286.5624,-52.0067 311.3123,-36.4749 329.6337,-24.9773"/>
<polygon fill="#191970" stroke="#191970" points="331.6852,-27.8221 338.295,-19.5419 327.9643,-21.8929 331.6852,-27.8221"/>
</g>
<!-- Node15 -->
<g id="node10" class="node">
<title>Node15</title>
<polygon fill="#ffffff" stroke="#bfbfbf" points="891.5,-.5 891.5,-19.5 941.5,-19.5 941.5,-.5 891.5,-.5"/>
<text text-anchor="middle" x="916.5" y="-7.5" font-family="Helvetica,sans-Serif" font-size="10.00" fill="#000000">QString</text>
</g>
<!-- Node1&#45;&gt;Node15 -->
<g id="edge9" class="edge">
<title>Node1&#45;&gt;Node15</title>
<path fill="none" stroke="#191970" d="M273.4165,-61.9019C278.4846,-59.5859 284.0951,-57.3829 289.5,-56 402.9342,-26.9769 766.6369,-14.2915 881.4349,-10.9446"/>
<polygon fill="#191970" stroke="#191970" points="881.5477,-14.4429 891.4434,-10.6583 881.3474,-7.4458 881.5477,-14.4429"/>
</g>
<!-- Node16 -->
<g id="node11" class="node">
<title>Node16</title>
<polygon fill="#ffffff" stroke="#bfbfbf" points="410.5,-.5 410.5,-19.5 480.5,-19.5 480.5,-.5 410.5,-.5"/>
<text text-anchor="middle" x="445.5" y="-7.5" font-family="Helvetica,sans-Serif" font-size="10.00" fill="#000000">QTableView</text>
</g>
<!-- Node1&#45;&gt;Node16 -->
<g id="edge10" class="edge">
<title>Node1&#45;&gt;Node16</title>
<path fill="none" stroke="#191970" d="M275.4388,-61.8442C280.0079,-59.7906 284.881,-57.7241 289.5,-56 326.2601,-42.2791 369.0776,-29.9002 400.545,-21.4492"/>
<polygon fill="#191970" stroke="#191970" points="401.5748,-24.7971 410.3408,-18.8467 399.7773,-18.0318 401.5748,-24.7971"/>
</g>
<!-- Node17 -->
<g id="node12" class="node">
<title>Node17</title>
<polygon fill="#ffffff" stroke="#bfbfbf" points="499,-.5 499,-19.5 546,-19.5 546,-.5 499,-.5"/>
<text text-anchor="middle" x="522.5" y="-7.5" font-family="Helvetica,sans-Serif" font-size="10.00" fill="#000000">QLabel</text>
</g>
<!-- Node1&#45;&gt;Node17 -->
<g id="edge11" class="edge">
<title>Node1&#45;&gt;Node17</title>
<path fill="none" stroke="#191970" d="M274.2327,-61.9513C279.1096,-59.7474 284.4227,-57.5868 289.5,-56 372.6747,-30.0052 399.7881,-40.3313 488.8134,-19.9013"/>
<polygon fill="#191970" stroke="#191970" points="489.87,-23.2481 498.7972,-17.5423 488.2603,-16.4357 489.87,-23.2481"/>
</g>
<!-- Node19 -->
<g id="node14" class="node">
<title>Node19</title>
<polygon fill="#ffffff" stroke="#bfbfbf" points="298.5,-62 298.5,-81 360.5,-81 360.5,-62 298.5,-62"/>
<text text-anchor="middle" x="329.5" y="-69" font-family="Helvetica,sans-Serif" font-size="10.00" fill="#000000">QValidator</text>
</g>
<!-- Node18&#45;&gt;Node19 -->
<g id="edge13" class="edge">
<title>Node18&#45;&gt;Node19</title>
<path fill="none" stroke="#191970" d="M353.125,-123.3906C349.1212,-114.5965 343.0817,-101.3312 338.1115,-90.4145"/>
<polygon fill="#191970" stroke="#191970" points="341.2657,-88.8957 333.9367,-81.2449 334.8949,-91.7963 341.2657,-88.8957"/>
</g>
<!-- Node20&#45;&gt;Node2 -->
<g id="edge15" class="edge">
<title>Node20&#45;&gt;Node2</title>
<path fill="none" stroke="#191970" d="M1083.8125,-61.8906C1099.5624,-52.0067 1124.3123,-36.4749 1142.6337,-24.9773"/>
<polygon fill="#191970" stroke="#191970" points="1144.6852,-27.8221 1151.295,-19.5419 1140.9643,-21.8929 1144.6852,-27.8221"/>
</g>
<!-- Node20&#45;&gt;Node15 -->
<g id="edge17" class="edge">
<title>Node20&#45;&gt;Node15</title>
<path fill="none" stroke="#191970" d="M1044.75,-61.8906C1019.2061,-51.5554 978.3991,-35.0447 949.689,-23.4284"/>
<polygon fill="#191970" stroke="#191970" points="950.666,-20.0481 940.0832,-19.5419 948.0404,-26.5371 950.666,-20.0481"/>
</g>
<!-- Node21 -->
<g id="node16" class="node">
<title>Node21</title>
<polygon fill="#ffffff" stroke="#bfbfbf" points="1017,-.5 1017,-19.5 1120,-19.5 1120,-.5 1017,-.5"/>
<text text-anchor="middle" x="1068.5" y="-7.5" font-family="Helvetica,sans-Serif" font-size="10.00" fill="#000000">QAbstractListModel</text>
</g>
<!-- Node20&#45;&gt;Node21 -->
<g id="edge16" class="edge">
<title>Node20&#45;&gt;Node21</title>
<path fill="none" stroke="#191970" d="M1068.5,-61.8906C1068.5,-53.3657 1068.5,-40.6392 1068.5,-29.9235"/>
<polygon fill="#191970" stroke="#191970" points="1072.0001,-29.7448 1068.5,-19.7449 1065.0001,-29.7449 1072.0001,-29.7448"/>
</g>
<!-- Node22&#45;&gt;Node23 -->
<g id="edge19" class="edge">
<title>Node22&#45;&gt;Node23</title>
<path fill="none" stroke="#191970" d="M518.1875,-123.3906C496.6269,-113.1908 462.3522,-96.9763 437.8556,-85.3875"/>
<polygon fill="#191970" stroke="#191970" points="439.2061,-82.1545 428.6699,-81.0419 436.2126,-88.4822 439.2061,-82.1545"/>
</g>
<!-- Node24&#45;&gt;Node13 -->
<g id="edge29" class="edge">
<title>Node24&#45;&gt;Node13</title>
<path fill="none" stroke="#191970" d="M683.8507,-126.809C618.3105,-116.1284 491.8079,-94.6499 485.5,-87 476.7348,-76.3699 477.9616,-67.5326 485.5,-56 493.5251,-43.7227 527.1182,-30.3336 554.176,-21.183"/>
<polygon fill="#191970" stroke="#191970" points="555.3883,-24.4687 563.7895,-18.0135 553.1964,-17.8207 555.3883,-24.4687"/>
</g>
<!-- Node25 -->
<g id="node20" class="node">
<title>Node25</title>
<g id="a_node20"><a xlink:href="paymentrequestplus_8h.html" target="_top" xlink:title="paymentrequestplus.h">
<polygon fill="#ffffff" stroke="#ff0000" points="803,-62 803,-81 916,-81 916,-62 803,-62"/>
<text text-anchor="middle" x="859.5" y="-69" font-family="Helvetica,sans-Serif" font-size="10.00" fill="#000000">paymentrequestplus.h</text>
</a>
</g>
</g>
<!-- Node24&#45;&gt;Node25 -->
<g id="edge21" class="edge">
<title>Node24&#45;&gt;Node25</title>
<path fill="none" stroke="#191970" d="M743.9063,-123.3906C766.7283,-113.1457 803.0679,-96.8326 828.9057,-85.2339"/>
<polygon fill="#191970" stroke="#191970" points="830.5545,-88.3303 838.2441,-81.0419 827.6877,-81.9443 830.5545,-88.3303"/>
</g>
<!-- Node112 -->
<g id="node21" class="node">
<title>Node112</title>
<g id="a_node21"><a xlink:href="walletmodeltransaction_8h.html" target="_top" xlink:title="walletmodeltransaction.h">
<polygon fill="#ffffff" stroke="#000000" points="660,-62 660,-81 785,-81 785,-62 660,-62"/>
<text text-anchor="middle" x="722.5" y="-69" font-family="Helvetica,sans-Serif" font-size="10.00" fill="#000000">walletmodeltransaction.h</text>
</a>
</g>
</g>
<!-- Node24&#45;&gt;Node112 -->
<g id="edge23" class="edge">
<title>Node24&#45;&gt;Node112</title>
<path fill="none" stroke="#191970" d="M717.4375,-123.3906C715.7741,-114.8657 715.3404,-102.1392 716.1365,-91.4235"/>
<polygon fill="#191970" stroke="#191970" points="719.6414,-91.6023 717.4112,-81.2449 712.6956,-90.7324 719.6414,-91.6023"/>
</g>
<!-- Node99 -->
<g id="node22" class="node">
<title>Node99</title>
<g id="a_node22"><a xlink:href="secure_8h.html" target="_top" xlink:title="support/allocators\l/secure.h">
<polygon fill="#ffffff" stroke="#ff0000" points="494.5,-56.5 494.5,-86.5 588.5,-86.5 588.5,-56.5 494.5,-56.5"/>
<text text-anchor="start" x="502.5" y="-74.5" font-family="Helvetica,sans-Serif" font-size="10.00" fill="#000000">support/allocators</text>
<text text-anchor="middle" x="541.5" y="-63.5" font-family="Helvetica,sans-Serif" font-size="10.00" fill="#000000">/secure.h</text>
</a>
</g>
</g>
<!-- Node24&#45;&gt;Node99 -->
<g id="edge26" class="edge">
<title>Node24&#45;&gt;Node99</title>
<path fill="none" stroke="#191970" d="M694.2188,-123.3906C667.9081,-114.4508 627.9988,-100.8905 595.5761,-89.8739"/>
<polygon fill="#191970" stroke="#191970" points="596.372,-86.4479 585.7776,-86.5446 594.1199,-93.0757 596.372,-86.4479"/>
</g>
<!-- Node41 -->
<g id="node23" class="node">
<title>Node41</title>
<polygon fill="#ffffff" stroke="#bfbfbf" points="607,-62 607,-81 642,-81 642,-62 607,-62"/>
<text text-anchor="middle" x="624.5" y="-69" font-family="Helvetica,sans-Serif" font-size="10.00" fill="#000000">map</text>
</g>
<!-- Node24&#45;&gt;Node41 -->
<g id="edge27" class="edge">
<title>Node24&#45;&gt;Node41</title>
<path fill="none" stroke="#191970" d="M707.1875,-123.3906C691.4376,-113.5067 666.6877,-97.9749 648.3663,-86.4773"/>
<polygon fill="#191970" stroke="#191970" points="650.0357,-83.3929 639.705,-81.0419 646.3148,-89.3221 650.0357,-83.3929"/>
</g>
<!-- Node31 -->
<g id="node24" class="node">
<title>Node31</title>
<polygon fill="#ffffff" stroke="#bfbfbf" points="1213.5,-.5 1213.5,-19.5 1257.5,-19.5 1257.5,-.5 1213.5,-.5"/>
<text text-anchor="middle" x="1235.5" y="-7.5" font-family="Helvetica,sans-Serif" font-size="10.00" fill="#000000">vector</text>
</g>
<!-- Node24&#45;&gt;Node31 -->
<g id="edge28" class="edge">
<title>Node24&#45;&gt;Node31</title>
<path fill="none" stroke="#191970" d="M761.19,-129.4104C853.1967,-120.7352 1079.8215,-98.4996 1112.5,-87 1152.5382,-72.9105 1193.1498,-44.0164 1216.2391,-25.9062"/>
<polygon fill="#191970" stroke="#191970" points="1218.5682,-28.5252 1224.1927,-19.5466 1214.1966,-23.058 1218.5682,-28.5252"/>
</g>
<!-- Node25&#45;&gt;Node15 -->
<g id="edge22" class="edge">
<title>Node25&#45;&gt;Node15</title>
<path fill="none" stroke="#191970" d="M868.4063,-61.8906C876.9728,-52.6478 890.1169,-38.466 900.5003,-27.2628"/>
<polygon fill="#191970" stroke="#191970" points="903.2375,-29.4584 907.4682,-19.7449 898.1035,-24.7 903.2375,-29.4584"/>
</g>
<!-- Node112&#45;&gt;Node13 -->
<g id="edge25" class="edge">
<title>Node112&#45;&gt;Node13</title>
<path fill="none" stroke="#191970" d="M701.875,-61.8906C679.9827,-51.6908 645.1807,-35.4763 620.3073,-23.8875"/>
<polygon fill="#191970" stroke="#191970" points="621.5228,-20.5926 610.9802,-19.5419 618.5665,-26.9377 621.5228,-20.5926"/>
</g>
<!-- Node112&#45;&gt;Node24 -->
<g id="edge24" class="edge">
<title>Node112&#45;&gt;Node24</title>
<path fill="none" stroke="#191970" d="M727.5888,-81.2449C729.2392,-89.814 729.6598,-102.5519 728.8508,-113.2462"/>
<polygon fill="#191970" stroke="#191970" points="725.3503,-113.0293 727.5625,-123.3906 732.2945,-113.9113 725.3503,-113.0293"/>
</g>
<!-- Node43&#45;&gt;Node2 -->
<g id="edge32" class="edge">
<title>Node43&#45;&gt;Node2</title>
<path fill="none" stroke="#191970" d="M973.5104,-124.0699C1023.3353,-115.6729 1090.0501,-102.1533 1112.5,-87 1133.8816,-72.5678 1149.4393,-46.6215 1158.2177,-28.8701"/>
<polygon fill="#191970" stroke="#191970" points="1161.5274,-30.0551 1162.5957,-19.5143 1155.1872,-27.0882 1161.5274,-30.0551"/>
</g>
<!-- Node43&#45;&gt;Node44 -->
<g id="edge33" class="edge">
<title>Node43&#45;&gt;Node44</title>
<path fill="none" stroke="#191970" d="M973.6722,-123.7347C1040.3894,-113.1369 1144.6298,-96.0819 1183.5,-87 1187.5764,-86.0476 1191.8044,-84.9588 1196.0086,-83.8096"/>
<polygon fill="#191970" stroke="#191970" points="1197.032,-87.1574 1205.6925,-81.0545 1195.1164,-80.4246 1197.032,-87.1574"/>
</g>
<!-- Node44&#45;&gt;Node2 -->
<g id="edge34" class="edge">
<title>Node44&#45;&gt;Node2</title>
<path fill="none" stroke="#191970" d="M1224.7188,-61.8906C1214.1474,-52.4683 1197.8175,-37.9134 1185.1397,-26.6137"/>
<polygon fill="#191970" stroke="#191970" points="1187.2272,-23.7858 1177.4333,-19.7449 1182.5696,-29.0114 1187.2272,-23.7858"/>
</g>
<!-- Node44&#45;&gt;Node31 -->
<g id="edge35" class="edge">
<title>Node44&#45;&gt;Node31</title>
<path fill="none" stroke="#191970" d="M1235.5,-61.8906C1235.5,-53.3657 1235.5,-40.6392 1235.5,-29.9235"/>
<polygon fill="#191970" stroke="#191970" points="1239.0001,-29.7448 1235.5,-19.7449 1232.0001,-29.7449 1239.0001,-29.7448"/>
</g>
<!-- Node114&#45;&gt;Node104 -->
<g id="edge38" class="edge">
<title>Node114&#45;&gt;Node104</title>
<path fill="none" stroke="#191970" d="M3009.9988,-124.4524C3006.7941,-123.9074 3003.5982,-123.4129 3000.5,-123 2719.012,-85.4875 2378.5904,-75.1088 2247.563,-72.3999"/>
<polygon fill="#191970" stroke="#191970" points="2247.452,-68.8971 2237.3839,-72.1964 2247.3119,-75.8957 2247.452,-68.8971"/>
</g>
<!-- Node137&#45;&gt;Node15 -->
<g id="edge63" class="edge">
<title>Node137&#45;&gt;Node15</title>
<path fill="none" stroke="#191970" d="M965.4375,-61.8906C956.7207,-52.6478 943.346,-38.466 932.7804,-27.2628"/>
<polygon fill="#191970" stroke="#191970" points="935.0976,-24.6186 925.6903,-19.7449 930.005,-29.4213 935.0976,-24.6186"/>
</g>
</g>
</svg>
