<?xml version="1.0" encoding="UTF-8" standalone="no"?>
<!DOCTYPE svg PUBLIC "-//W3C//DTD SVG 1.1//EN"
 "http://www.w3.org/Graphics/SVG/1.1/DTD/svg11.dtd">
<!-- Generated by graphviz version 2.40.1 (20161225.0304)
 -->
<!-- Title: Graphical Class Hierarchy Pages: 1 -->
<svg width="504pt" height="215pt"
 viewBox="0.00 0.00 504.00 214.50" xmlns="http://www.w3.org/2000/svg" xmlns:xlink="http://www.w3.org/1999/xlink">
<g id="graph0" class="graph" transform="scale(1 1) rotate(0) translate(4 210.5)">
<title>Graphical Class Hierarchy</title>
<polygon fill="#ffffff" stroke="transparent" points="-4,4 -4,-210.5 500,-210.5 500,4 -4,4"/>
<!-- Node0 -->
<g id="node1" class="node">
<title>Node0</title>
<g id="a_node1"><a xlink:href="class_c_z_m_q_abstract_notifier.html" target="_top" xlink:title="CZMQAbstractNotifier">
<polygon fill="#ffffff" stroke="#000000" points="0,-94 0,-113 114,-113 114,-94 0,-94"/>
<text text-anchor="middle" x="57" y="-101" font-family="Helvetica,sans-Serif" font-size="10.00" fill="#000000">CZMQAbstractNotifier</text>
</a>
</g>
</g>
<!-- Node1 -->
<g id="node2" class="node">
<title>Node1</title>
<g id="a_node2"><a xlink:href="class_c_z_m_q_abstract_publish_notifier.html" target="_top" xlink:title="CZMQAbstractPublishNotifier">
<polygon fill="#ffffff" stroke="#000000" points="150,-94 150,-113 296,-113 296,-94 150,-94"/>
<text text-anchor="middle" x="223" y="-101" font-family="Helvetica,sans-Serif" font-size="10.00" fill="#000000">CZMQAbstractPublishNotifier</text>
</a>
</g>
</g>
<!-- Node0&#45;&gt;Node1 -->
<g id="edge1" class="edge">
<title>Node0&#45;&gt;Node1</title>
<path fill="none" stroke="#191970" d="M124.2923,-103.5C132.7371,-103.5 141.4071,-103.5 149.9352,-103.5"/>
<polygon fill="#191970" stroke="#191970" points="124.1278,-100.0001 114.1278,-103.5 124.1277,-107.0001 124.1278,-100.0001"/>
</g>
<!-- Node2 -->
<g id="node3" class="node">
<title>Node2</title>
<g id="a_node3"><a xlink:href="class_c_z_m_q_publish_hash_block_notifier.html" target="_top" xlink:title="CZMQPublishHashBlockNotifier">
<polygon fill="#ffffff" stroke="#000000" points="335,-187 335,-206 493,-206 493,-187 335,-187"/>
<text text-anchor="middle" x="414" y="-194" font-family="Helvetica,sans-Serif" font-size="10.00" fill="#000000">CZMQPublishHashBlockNotifier</text>
</a>
</g>
</g>
<!-- Node1&#45;&gt;Node2 -->
<g id="edge2" class="edge">
<title>Node1&#45;&gt;Node2</title>
<path fill="none" stroke="#191970" d="M241.9961,-119.6432C262.7858,-136.4994 297.7384,-162.525 332,-177.5 340.7036,-181.3041 350.2738,-184.4014 359.7094,-186.9055"/>
<polygon fill="#191970" stroke="#191970" points="244.1894,-116.9153 234.2484,-113.251 239.7346,-122.3148 244.1894,-116.9153"/>
</g>
<!-- Node3 -->
<g id="node4" class="node">
<title>Node3</title>
<g id="a_node4"><a xlink:href="class_c_z_m_q_publish_hash_transaction_notifier.html" target="_top" xlink:title="CZMQPublishHashTransaction\lNotifier">
<polygon fill="#ffffff" stroke="#000000" points="338,-137.5 338,-167.5 490,-167.5 490,-137.5 338,-137.5"/>
<text text-anchor="start" x="346" y="-155.5" font-family="Helvetica,sans-Serif" font-size="10.00" fill="#000000">CZMQPublishHashTransaction</text>
<text text-anchor="middle" x="414" y="-144.5" font-family="Helvetica,sans-Serif" font-size="10.00" fill="#000000">Notifier</text>
</a>
</g>
</g>
<!-- Node1&#45;&gt;Node3 -->
<g id="edge3" class="edge">
<title>Node1&#45;&gt;Node3</title>
<path fill="none" stroke="#191970" d="M270.1723,-115.6018C295.9228,-122.208 328.0389,-130.4471 355.3865,-137.463"/>
<polygon fill="#191970" stroke="#191970" points="270.8362,-112.1588 260.2801,-113.064 269.0967,-118.9393 270.8362,-112.1588"/>
</g>
<!-- Node4 -->
<g id="node5" class="node">
<title>Node4</title>
<g id="a_node5"><a xlink:href="class_c_z_m_q_publish_new_asset_message_notifier.html" target="_top" xlink:title="CZMQPublishNewAssetMessage\lNotifier">
<polygon fill="#ffffff" stroke="#000000" points="332,-88.5 332,-118.5 496,-118.5 496,-88.5 332,-88.5"/>
<text text-anchor="start" x="340" y="-106.5" font-family="Helvetica,sans-Serif" font-size="10.00" fill="#000000">CZMQPublishNewAssetMessage</text>
<text text-anchor="middle" x="414" y="-95.5" font-family="Helvetica,sans-Serif" font-size="10.00" fill="#000000">Notifier</text>
</a>
</g>
</g>
<!-- Node1&#45;&gt;Node4 -->
<g id="edge4" class="edge">
<title>Node1&#45;&gt;Node4</title>
<path fill="none" stroke="#191970" d="M306.2648,-103.5C314.7263,-103.5 323.318,-103.5 331.7685,-103.5"/>
<polygon fill="#191970" stroke="#191970" points="306.0265,-100.0001 296.0265,-103.5 306.0264,-107.0001 306.0265,-100.0001"/>
</g>
<!-- Node5 -->
<g id="node6" class="node">
<title>Node5</title>
<g id="a_node6"><a xlink:href="class_c_z_m_q_publish_raw_block_notifier.html" target="_top" xlink:title="CZMQPublishRawBlockNotifier">
<polygon fill="#ffffff" stroke="#000000" points="336.5,-50 336.5,-69 491.5,-69 491.5,-50 336.5,-50"/>
<text text-anchor="middle" x="414" y="-57" font-family="Helvetica,sans-Serif" font-size="10.00" fill="#000000">CZMQPublishRawBlockNotifier</text>
</a>
</g>
</g>
<!-- Node1&#45;&gt;Node5 -->
<g id="edge5" class="edge">
<title>Node1&#45;&gt;Node5</title>
<path fill="none" stroke="#191970" d="M274.5546,-91.6236C305.3219,-84.5358 343.8717,-75.6552 372.6367,-69.0287"/>
<polygon fill="#191970" stroke="#191970" points="273.4032,-88.297 264.4442,-93.9527 274.9747,-95.1184 273.4032,-88.297"/>
</g>
<!-- Node6 -->
<g id="node7" class="node">
<title>Node6</title>
<g id="a_node7"><a xlink:href="class_c_z_m_q_publish_raw_transaction_notifier.html" target="_top" xlink:title="CZMQPublishRawTransaction\lNotifier">
<polygon fill="#ffffff" stroke="#000000" points="339.5,-.5 339.5,-30.5 488.5,-30.5 488.5,-.5 339.5,-.5"/>
<text text-anchor="start" x="347.5" y="-18.5" font-family="Helvetica,sans-Serif" font-size="10.00" fill="#000000">CZMQPublishRawTransaction</text>
<text text-anchor="middle" x="414" y="-7.5" font-family="Helvetica,sans-Serif" font-size="10.00" fill="#000000">Notifier</text>
</a>
</g>
</g>
<!-- Node1&#45;&gt;Node6 -->
<g id="edge6" class="edge">
<title>Node1&#45;&gt;Node6</title>
<path fill="none" stroke="#191970" d="M245.6911,-88.3259C267.2014,-74.4471 300.779,-54.0696 332,-40.5 340.3262,-36.8812 349.3403,-33.5675 358.2416,-30.619"/>
<polygon fill="#191970" stroke="#191970" points="243.7116,-85.4384 237.2533,-93.8373 247.5396,-91.299 243.7116,-85.4384"/>
</g>
</g>
</svg>
