<?xml version="1.0" encoding="UTF-8" standalone="no"?>
<!DOCTYPE svg PUBLIC "-//W3C//DTD SVG 1.1//EN"
 "http://www.w3.org/Graphics/SVG/1.1/DTD/svg11.dtd">
<!-- Generated by graphviz version 2.40.1 (20161225.0304)
 -->
<!-- Title: Graphical Class Hierarchy Pages: 1 -->
<svg width="254pt" height="104pt"
 viewBox="0.00 0.00 254.00 104.00" xmlns="http://www.w3.org/2000/svg" xmlns:xlink="http://www.w3.org/1999/xlink">
<g id="graph0" class="graph" transform="scale(1 1) rotate(0) translate(4 100)">
<title>Graphical Class Hierarchy</title>
<polygon fill="#ffffff" stroke="transparent" points="-4,4 -4,-100 250,-100 250,4 -4,4"/>
<!-- Node132 -->
<g id="node1" class="node">
<title>Node132</title>
<polygon fill="#ffffff" stroke="#bfbfbf" points="0,-38.5 0,-57.5 62,-57.5 62,-38.5 0,-38.5"/>
<text text-anchor="middle" x="31" y="-45.5" font-family="Helvetica,sans-Serif" font-size="10.00" fill="#000000">QValidator</text>
</g>
<!-- Node0 -->
<g id="node2" class="node">
<title>Node0</title>
<g id="a_node2"><a xlink:href="class_proxy_address_validator.html" target="_top" xlink:title="Proxy address widget validator, checks for a valid proxy address. ">
<polygon fill="#ffffff" stroke="#000000" points="114,-76.5 114,-95.5 230,-95.5 230,-76.5 114,-76.5"/>
<text text-anchor="middle" x="172" y="-83.5" font-family="Helvetica,sans-Serif" font-size="10.00" fill="#000000">ProxyAddressValidator</text>
</a>
</g>
</g>
<!-- Node132&#45;&gt;Node0 -->
<g id="edge1" class="edge">
<title>Node132&#45;&gt;Node0</title>
<path fill="none" stroke="#191970" d="M72.1017,-59.8309C80.6506,-62.2424 89.6106,-64.7338 98,-67 109.6525,-70.1476 122.3713,-73.4583 133.926,-76.4184"/>
<polygon fill="#191970" stroke="#191970" points="72.8894,-56.4163 62.3138,-57.055 70.9794,-63.1507 72.8894,-56.4163"/>
</g>
<!-- Node134 -->
<g id="node3" class="node">
<title>Node134</title>
<g id="a_node3"><a xlink:href="class_raven_address_check_validator.html" target="_top" xlink:title="Raven address widget validator, checks for a valid raven address. ">
<polygon fill="#ffffff" stroke="#000000" points="98,-38.5 98,-57.5 246,-57.5 246,-38.5 98,-38.5"/>
<text text-anchor="middle" x="172" y="-45.5" font-family="Helvetica,sans-Serif" font-size="10.00" fill="#000000">RavenAddressCheckValidator</text>
</a>
</g>
</g>
<!-- Node132&#45;&gt;Node134 -->
<g id="edge2" class="edge">
<title>Node132&#45;&gt;Node134</title>
<path fill="none" stroke="#191970" d="M72.448,-48C80.4741,-48 89.1091,-48 97.8192,-48"/>
<polygon fill="#191970" stroke="#191970" points="72.2925,-44.5001 62.2925,-48 72.2924,-51.5001 72.2925,-44.5001"/>
</g>
<!-- Node135 -->
<g id="node4" class="node">
<title>Node135</title>
<g id="a_node4"><a xlink:href="class_raven_address_entry_validator.html" target="_top" xlink:title="Base58 entry widget validator, checks for valid characters and removes some whitespace. ">
<polygon fill="#ffffff" stroke="#000000" points="100.5,-.5 100.5,-19.5 243.5,-19.5 243.5,-.5 100.5,-.5"/>
<text text-anchor="middle" x="172" y="-7.5" font-family="Helvetica,sans-Serif" font-size="10.00" fill="#000000">RavenAddressEntryValidator</text>
</a>
</g>
</g>
<!-- Node132&#45;&gt;Node135 -->
<g id="edge3" class="edge">
<title>Node132&#45;&gt;Node135</title>
<path fill="none" stroke="#191970" d="M72.1017,-36.1691C80.6506,-33.7576 89.6106,-31.2662 98,-29 109.6525,-25.8524 122.3713,-22.5417 133.926,-19.5816"/>
<polygon fill="#191970" stroke="#191970" points="70.9794,-32.8493 62.3138,-38.945 72.8894,-39.5837 70.9794,-32.8493"/>
</g>
</g>
</svg>
