<?xml version="1.0" encoding="UTF-8" standalone="no"?>
<!DOCTYPE svg PUBLIC "-//W3C//DTD SVG 1.1//EN"
 "http://www.w3.org/Graphics/SVG/1.1/DTD/svg11.dtd">
<!-- Generated by graphviz version 2.40.1 (20161225.0304)
 -->
<!-- Title: fDumpMempoolLater Pages: 1 -->
<svg width="605pt" height="85pt"
 viewBox="0.00 0.00 605.00 85.00" xmlns="http://www.w3.org/2000/svg" xmlns:xlink="http://www.w3.org/1999/xlink">
<g id="graph0" class="graph" transform="scale(1 1) rotate(0) translate(4 81)">
<title>fDumpMempoolLater</title>
<polygon fill="#ffffff" stroke="transparent" points="-4,4 -4,-81 601,-81 601,4 -4,4"/>
<!-- Node97 -->
<g id="node1" class="node">
<title>Node97</title>
<polygon fill="#bfbfbf" stroke="#000000" points="0,-19.5 0,-38.5 107,-38.5 107,-19.5 0,-19.5"/>
<text text-anchor="middle" x="53.5" y="-26.5" font-family="Helvetica,sans-Serif" font-size="10.00" fill="#000000">fDumpMempoolLater</text>
</g>
<!-- Node98 -->
<g id="node2" class="node">
<title>Node98</title>
<g id="a_node2"><a xlink:href="init_8h.html#a5cb3db83cb0ba2e421f651a1ee1f2cfe" target="_top" xlink:title="Preparing steps before shutting down or restarting the wallet. ">
<polygon fill="#ffffff" stroke="#000000" points="143,-19.5 143,-38.5 237,-38.5 237,-19.5 143,-19.5"/>
<text text-anchor="middle" x="190" y="-26.5" font-family="Helvetica,sans-Serif" font-size="10.00" fill="#000000">PrepareShutdown</text>
</a>
</g>
</g>
<!-- Node97&#45;&gt;Node98 -->
<g id="edge1" class="edge">
<title>Node97&#45;&gt;Node98</title>
<path fill="none" stroke="#191970" d="M117.1263,-29C125.7715,-29 134.5162,-29 142.8019,-29"/>
<polygon fill="#191970" stroke="#191970" points="117.0567,-25.5001 107.0566,-29 117.0566,-32.5001 117.0567,-25.5001"/>
</g>
<!-- Node99 -->
<g id="node3" class="node">
<title>Node99</title>
<g id="a_node3"><a xlink:href="init_8h.html#ac5f038c2b480cf9ef5e19e3eba8dbaf9" target="_top" xlink:title="Shutdown is split into 2 parts: Part 1: shut down everything but the main wallet instance (done in Pr...">
<polygon fill="#ffffff" stroke="#000000" points="293,-38.5 293,-57.5 353,-57.5 353,-38.5 293,-38.5"/>
<text text-anchor="middle" x="323" y="-45.5" font-family="Helvetica,sans-Serif" font-size="10.00" fill="#000000">Shutdown</text>
</a>
</g>
</g>
<!-- Node98&#45;&gt;Node99 -->
<g id="edge2" class="edge">
<title>Node98&#45;&gt;Node99</title>
<path fill="none" stroke="#191970" d="M247.4204,-37.2029C263.0807,-39.4401 279.4256,-41.7751 292.893,-43.699"/>
<polygon fill="#191970" stroke="#191970" points="247.6598,-33.7017 237.2653,-35.7522 246.6698,-40.6313 247.6598,-33.7017"/>
</g>
<!-- Node103 -->
<g id="node7" class="node">
<title>Node103</title>
<g id="a_node7"><a xlink:href="class_raven_core.html#ab35cedbe16324f62d058e964b03cac69" target="_top" xlink:title="RavenCore::restart">
<polygon fill="#ffffff" stroke="#000000" points="273,-.5 273,-19.5 373,-19.5 373,-.5 273,-.5"/>
<text text-anchor="middle" x="323" y="-7.5" font-family="Helvetica,sans-Serif" font-size="10.00" fill="#000000">RavenCore::restart</text>
</a>
</g>
</g>
<!-- Node98&#45;&gt;Node103 -->
<g id="edge6" class="edge">
<title>Node98&#45;&gt;Node103</title>
<path fill="none" stroke="#191970" d="M247.4096,-20.7986C255.8373,-19.5947 264.4636,-18.3623 272.7332,-17.181"/>
<polygon fill="#191970" stroke="#191970" points="246.6698,-17.3687 237.2653,-22.2478 247.6598,-24.2983 246.6698,-17.3687"/>
</g>
<!-- Node100 -->
<g id="node4" class="node">
<title>Node100</title>
<g id="a_node4"><a xlink:href="class_raven_core.html#a0b62b17932fa72d2ac40d4d81b2a432d" target="_top" xlink:title="RavenCore::shutdown">
<polygon fill="#ffffff" stroke="#000000" points="409,-57.5 409,-76.5 523,-76.5 523,-57.5 409,-57.5"/>
<text text-anchor="middle" x="466" y="-64.5" font-family="Helvetica,sans-Serif" font-size="10.00" fill="#000000">RavenCore::shutdown</text>
</a>
</g>
</g>
<!-- Node99&#45;&gt;Node100 -->
<g id="edge3" class="edge">
<title>Node99&#45;&gt;Node100</title>
<path fill="none" stroke="#191970" d="M363.6475,-53.4007C377.7082,-55.2689 393.7384,-57.3988 408.8725,-59.4096"/>
<polygon fill="#191970" stroke="#191970" points="363.7005,-49.8771 353.3266,-52.0294 362.7785,-56.8161 363.7005,-49.8771"/>
</g>
<!-- Node101 -->
<g id="node5" class="node">
<title>Node101</title>
<g id="a_node5"><a xlink:href="ravend_8cpp.html#ac59316b767e6984e1285f0531275286b" target="_top" xlink:title="AppInit">
<polygon fill="#ffffff" stroke="#000000" points="442.5,-19.5 442.5,-38.5 489.5,-38.5 489.5,-19.5 442.5,-19.5"/>
<text text-anchor="middle" x="466" y="-26.5" font-family="Helvetica,sans-Serif" font-size="10.00" fill="#000000">AppInit</text>
</a>
</g>
</g>
<!-- Node99&#45;&gt;Node101 -->
<g id="edge4" class="edge">
<title>Node99&#45;&gt;Node101</title>
<path fill="none" stroke="#191970" d="M363.4377,-42.6272C388.9077,-39.243 420.9055,-34.9916 442.3263,-32.1455"/>
<polygon fill="#191970" stroke="#191970" points="362.7785,-39.1839 353.3266,-43.9706 363.7005,-46.1229 362.7785,-39.1839"/>
</g>
<!-- Node102 -->
<g id="node6" class="node">
<title>Node102</title>
<g id="a_node6"><a xlink:href="ravend_8cpp.html#a0ddf1224851353fc92bfbff6f499fa97" target="_top" xlink:title="main">
<polygon fill="#ffffff" stroke="#000000" points="559,-19.5 559,-38.5 597,-38.5 597,-19.5 559,-19.5"/>
<text text-anchor="middle" x="578" y="-26.5" font-family="Helvetica,sans-Serif" font-size="10.00" fill="#000000">main</text>
</a>
</g>
</g>
<!-- Node101&#45;&gt;Node102 -->
<g id="edge5" class="edge">
<title>Node101&#45;&gt;Node102</title>
<path fill="none" stroke="#191970" d="M499.9552,-29C519.2177,-29 542.6211,-29 558.7465,-29"/>
<polygon fill="#191970" stroke="#191970" points="499.7524,-25.5001 489.7523,-29 499.7523,-32.5001 499.7524,-25.5001"/>
</g>
</g>
</svg>
