<?xml version="1.0" encoding="UTF-8" standalone="no"?>
<!DOCTYPE svg PUBLIC "-//W3C//DTD SVG 1.1//EN"
 "http://www.w3.org/Graphics/SVG/1.1/DTD/svg11.dtd">
<!-- Generated by graphviz version 2.40.1 (20161225.0304)
 -->
<!-- Title: Shutdown Pages: 1 -->
<svg width="937pt" height="806pt"
 viewBox="0.00 0.00 937.00 806.11" xmlns="http://www.w3.org/2000/svg" xmlns:xlink="http://www.w3.org/1999/xlink">
<g id="graph0" class="graph" transform="scale(1 1) rotate(0) translate(4 802.1131)">
<title>Shutdown</title>
<polygon fill="#ffffff" stroke="transparent" points="-4,4 -4,-802.1131 933,-802.1131 933,4 -4,4"/>
<!-- Node168 -->
<g id="node1" class="node">
<title>Node168</title>
<polygon fill="#bfbfbf" stroke="#000000" points="0,-519.6131 0,-538.6131 60,-538.6131 60,-519.6131 0,-519.6131"/>
<text text-anchor="middle" x="30" y="-526.6131" font-family="Helvetica,sans-Serif" font-size="10.00" fill="#000000">Shutdown</text>
</g>
<!-- Node169 -->
<g id="node2" class="node">
<title>Node169</title>
<g id="a_node2"><a xlink:href="init_8cpp.html#affc6ebc50ac5f7be29759e70b65742d0" target="_top" xlink:title="fRequestRestart">
<polygon fill="#ffffff" stroke="#000000" points="98.5,-576.6131 98.5,-595.6131 187.5,-595.6131 187.5,-576.6131 98.5,-576.6131"/>
<text text-anchor="middle" x="143" y="-583.6131" font-family="Helvetica,sans-Serif" font-size="10.00" fill="#000000">fRequestRestart</text>
</a>
</g>
</g>
<!-- Node168&#45;&gt;Node169 -->
<g id="edge1" class="edge">
<title>Node168&#45;&gt;Node169</title>
<path fill="none" stroke="#191970" d="M45.1427,-538.6346C58.314,-546.7202 78.0512,-558.37 96,-567.1131 99.8276,-568.9776 103.887,-570.8159 107.9537,-572.5713"/>
<polygon fill="#191970" stroke="#191970" points="106.7741,-575.8715 117.3509,-576.4902 109.4685,-569.4108 106.7741,-575.8715"/>
</g>
<!-- Node170 -->
<g id="node3" class="node">
<title>Node170</title>
<g id="a_node3"><a xlink:href="init_8cpp.html#a5cb3db83cb0ba2e421f651a1ee1f2cfe" target="_top" xlink:title="Preparing steps before shutting down or restarting the wallet. ">
<polygon fill="#ffffff" stroke="#000000" points="96,-538.6131 96,-557.6131 190,-557.6131 190,-538.6131 96,-538.6131"/>
<text text-anchor="middle" x="143" y="-545.6131" font-family="Helvetica,sans-Serif" font-size="10.00" fill="#000000">PrepareShutdown</text>
</a>
</g>
</g>
<!-- Node168&#45;&gt;Node170 -->
<g id="edge2" class="edge">
<title>Node168&#45;&gt;Node170</title>
<path fill="none" stroke="#191970" d="M60.2819,-534.2048C68.1668,-535.5305 76.9269,-537.0035 85.7125,-538.4807"/>
<polygon fill="#191970" stroke="#191970" points="85.1552,-541.936 95.5971,-540.1427 86.3159,-535.0329 85.1552,-541.936"/>
</g>
<!-- Node203 -->
<g id="node36" class="node">
<title>Node203</title>
<g id="a_node36"><a xlink:href="torcontrol_8cpp.html#af056d7647453338e57eca61f23aebb14" target="_top" xlink:title="StopTorControl">
<polygon fill="#ffffff" stroke="#000000" points="101.5,-500.6131 101.5,-519.6131 184.5,-519.6131 184.5,-500.6131 101.5,-500.6131"/>
<text text-anchor="middle" x="143" y="-507.6131" font-family="Helvetica,sans-Serif" font-size="10.00" fill="#000000">StopTorControl</text>
</a>
</g>
</g>
<!-- Node168&#45;&gt;Node203 -->
<g id="edge57" class="edge">
<title>Node168&#45;&gt;Node203</title>
<path fill="none" stroke="#191970" d="M60.2819,-524.0215C69.794,-522.4221 80.5799,-520.6085 91.1476,-518.8317"/>
<polygon fill="#191970" stroke="#191970" points="91.8826,-522.2573 101.1638,-517.1475 90.7219,-515.3542 91.8826,-522.2573"/>
</g>
<!-- Node204 -->
<g id="node37" class="node">
<title>Node204</title>
<g id="a_node37"><a xlink:href="wallet_2init_8cpp.html#a250ffe3979a862f0eec003d739e0a9d7" target="_top" xlink:title="Close all wallets. ">
<polygon fill="#ffffff" stroke="#000000" points="105.5,-462.6131 105.5,-481.6131 180.5,-481.6131 180.5,-462.6131 105.5,-462.6131"/>
<text text-anchor="middle" x="143" y="-469.6131" font-family="Helvetica,sans-Serif" font-size="10.00" fill="#000000">CloseWallets</text>
</a>
</g>
</g>
<!-- Node168&#45;&gt;Node204 -->
<g id="edge58" class="edge">
<title>Node168&#45;&gt;Node204</title>
<path fill="none" stroke="#191970" d="M45.1427,-519.5916C58.314,-511.506 78.0512,-499.8562 96,-491.1131 99.8276,-489.2486 103.887,-487.4103 107.9537,-485.6549"/>
<polygon fill="#191970" stroke="#191970" points="109.4685,-488.8154 117.3509,-481.736 106.7741,-482.3547 109.4685,-488.8154"/>
</g>
<!-- Node171 -->
<g id="node4" class="node">
<title>Node171</title>
<g id="a_node4"><a xlink:href="util_8cpp.html#a85fc1244e0bd3c91ee7a1c05ed10ebbb" target="_top" xlink:title="RenameThread">
<polygon fill="#ffffff" stroke="#000000" points="262.5,-778.6131 262.5,-797.6131 345.5,-797.6131 345.5,-778.6131 262.5,-778.6131"/>
<text text-anchor="middle" x="304" y="-785.6131" font-family="Helvetica,sans-Serif" font-size="10.00" fill="#000000">RenameThread</text>
</a>
</g>
</g>
<!-- Node170&#45;&gt;Node171 -->
<g id="edge3" class="edge">
<title>Node170&#45;&gt;Node171</title>
<path fill="none" stroke="#191970" d="M178.5517,-557.7745C182.8996,-560.223 186.8951,-563.2853 190,-567.1131 247.4472,-637.9359 163.5658,-702.6449 226,-769.1131 233.0136,-776.5799 242.4295,-781.3253 252.2902,-784.2965"/>
<polygon fill="#191970" stroke="#191970" points="251.6829,-787.7507 262.2266,-786.7114 253.336,-780.9487 251.6829,-787.7507"/>
</g>
<!-- Node172 -->
<g id="node5" class="node">
<title>Node172</title>
<g id="a_node5"><a xlink:href="class_c_tx_mem_pool.html#a3039b67e5eebaa3ff830261c192816f2" target="_top" xlink:title="CTxMemPool::AddTransactions\lUpdated">
<polygon fill="#ffffff" stroke="#000000" points="226,-729.1131 226,-759.1131 382,-759.1131 382,-729.1131 226,-729.1131"/>
<text text-anchor="start" x="234" y="-747.1131" font-family="Helvetica,sans-Serif" font-size="10.00" fill="#000000">CTxMemPool::AddTransactions</text>
<text text-anchor="middle" x="304" y="-736.1131" font-family="Helvetica,sans-Serif" font-size="10.00" fill="#000000">Updated</text>
</a>
</g>
</g>
<!-- Node170&#45;&gt;Node172 -->
<g id="edge4" class="edge">
<title>Node170&#45;&gt;Node172</title>
<path fill="none" stroke="#191970" d="M177.8869,-557.6794C182.4428,-560.1474 186.6741,-563.2405 190,-567.1131 235.2317,-619.7804 178.851,-668.1551 226,-719.1131 227.2283,-720.4407 228.5271,-721.698 229.8864,-722.8889"/>
<polygon fill="#191970" stroke="#191970" points="228.1227,-725.9349 238.2622,-729.0077 232.252,-720.2826 228.1227,-725.9349"/>
</g>
<!-- Node173 -->
<g id="node6" class="node">
<title>Node173</title>
<g id="a_node6"><a xlink:href="httprpc_8cpp.html#a468267ed2746bd43035a0e294ec5ebd3" target="_top" xlink:title="Stop HTTP RPC subsystem. ">
<polygon fill="#ffffff" stroke="#000000" points="261.5,-690.6131 261.5,-709.6131 346.5,-709.6131 346.5,-690.6131 261.5,-690.6131"/>
<text text-anchor="middle" x="304" y="-697.6131" font-family="Helvetica,sans-Serif" font-size="10.00" fill="#000000">StopHTTPRPC</text>
</a>
</g>
</g>
<!-- Node170&#45;&gt;Node173 -->
<g id="edge5" class="edge">
<title>Node170&#45;&gt;Node173</title>
<path fill="none" stroke="#191970" d="M177.1604,-557.6528C181.9286,-560.1323 186.4149,-563.2358 190,-567.1131 226.0716,-606.1253 187.1931,-644.8208 226,-681.1131 233.1019,-687.7548 242.1259,-692.1876 251.4969,-695.1222"/>
<polygon fill="#191970" stroke="#191970" points="250.7638,-698.5478 261.322,-697.6677 252.5195,-691.7715 250.7638,-698.5478"/>
</g>
<!-- Node176 -->
<g id="node9" class="node">
<title>Node176</title>
<g id="a_node9"><a xlink:href="httprpc_8h.html#a85472e8d58ccbe1aaf2c239ae0d7d185" target="_top" xlink:title="Stop HTTP REST subsystem. ">
<polygon fill="#ffffff" stroke="#000000" points="272,-652.6131 272,-671.6131 336,-671.6131 336,-652.6131 272,-652.6131"/>
<text text-anchor="middle" x="304" y="-659.6131" font-family="Helvetica,sans-Serif" font-size="10.00" fill="#000000">StopREST</text>
</a>
</g>
</g>
<!-- Node170&#45;&gt;Node176 -->
<g id="edge8" class="edge">
<title>Node170&#45;&gt;Node176</title>
<path fill="none" stroke="#191970" d="M175.7422,-557.6215C180.9167,-560.1275 185.9028,-563.2477 190,-567.1131 217.1864,-592.7615 197.0244,-619.5048 226,-643.1131 236.1459,-651.3797 249.3427,-656.1382 261.9874,-658.85"/>
<polygon fill="#191970" stroke="#191970" points="261.4836,-662.3152 271.941,-660.6139 262.7051,-655.4226 261.4836,-662.3152"/>
</g>
<!-- Node177 -->
<g id="node10" class="node">
<title>Node177</title>
<g id="a_node10"><a xlink:href="server_8cpp.html#a5757a50329a35771e60c8afb470e53be" target="_top" xlink:title="StopRPC">
<polygon fill="#ffffff" stroke="#000000" points="274.5,-614.6131 274.5,-633.6131 333.5,-633.6131 333.5,-614.6131 274.5,-614.6131"/>
<text text-anchor="middle" x="304" y="-621.6131" font-family="Helvetica,sans-Serif" font-size="10.00" fill="#000000">StopRPC</text>
</a>
</g>
</g>
<!-- Node170&#45;&gt;Node177 -->
<g id="edge9" class="edge">
<title>Node170&#45;&gt;Node177</title>
<path fill="none" stroke="#191970" d="M172.3287,-557.706C178.4208,-560.3097 184.6184,-563.4448 190,-567.1131 209.2234,-580.2164 205.8766,-593.439 226,-605.1131 237.6056,-611.8458 251.5125,-616.2017 264.3488,-619.0163"/>
<polygon fill="#191970" stroke="#191970" points="263.8653,-622.4877 274.3493,-620.9591 265.2003,-615.6162 263.8653,-622.4877"/>
</g>
<!-- Node178 -->
<g id="node11" class="node">
<title>Node178</title>
<g id="a_node11"><a xlink:href="httpserver_8cpp.html#ad95d08d62c15b43d52fdba7b7ecaa0aa" target="_top" xlink:title="Stop HTTP server. ">
<polygon fill="#ffffff" stroke="#000000" points="258,-576.6131 258,-595.6131 350,-595.6131 350,-576.6131 258,-576.6131"/>
<text text-anchor="middle" x="304" y="-583.6131" font-family="Helvetica,sans-Serif" font-size="10.00" fill="#000000">StopHTTPServer</text>
</a>
</g>
</g>
<!-- Node170&#45;&gt;Node178 -->
<g id="edge10" class="edge">
<title>Node170&#45;&gt;Node178</title>
<path fill="none" stroke="#191970" d="M183.6271,-557.7021C204.9685,-562.7392 231.3119,-568.9569 253.9081,-574.2902"/>
<polygon fill="#191970" stroke="#191970" points="253.1284,-577.7023 263.665,-576.5931 254.7365,-570.8895 253.1284,-577.7023"/>
</g>
<!-- Node180 -->
<g id="node13" class="node">
<title>Node180</title>
<g id="a_node13"><a xlink:href="wallet_2init_8cpp.html#ab651022e0148647d3690f30652801c00" target="_top" xlink:title="Flush all wallets in preparation for shutdown. ">
<polygon fill="#ffffff" stroke="#000000" points="267,-538.6131 267,-557.6131 341,-557.6131 341,-538.6131 267,-538.6131"/>
<text text-anchor="middle" x="304" y="-545.6131" font-family="Helvetica,sans-Serif" font-size="10.00" fill="#000000">FlushWallets</text>
</a>
</g>
</g>
<!-- Node170&#45;&gt;Node180 -->
<g id="edge12" class="edge">
<title>Node170&#45;&gt;Node180</title>
<path fill="none" stroke="#191970" d="M190.0007,-548.1131C211.0581,-548.1131 235.8377,-548.1131 256.9061,-548.1131"/>
<polygon fill="#191970" stroke="#191970" points="256.9181,-551.6132 266.9181,-548.1131 256.918,-544.6132 256.9181,-551.6132"/>
</g>
<!-- Node181 -->
<g id="node14" class="node">
<title>Node181</title>
<g id="a_node14"><a xlink:href="miner_8cpp.html#a6056a8d27289e4cdcc73bd3b693fd3f8" target="_top" xlink:title="GenerateRavens">
<polygon fill="#ffffff" stroke="#000000" points="259,-500.6131 259,-519.6131 349,-519.6131 349,-500.6131 259,-500.6131"/>
<text text-anchor="middle" x="304" y="-507.6131" font-family="Helvetica,sans-Serif" font-size="10.00" fill="#000000">GenerateRavens</text>
</a>
</g>
</g>
<!-- Node170&#45;&gt;Node181 -->
<g id="edge13" class="edge">
<title>Node170&#45;&gt;Node181</title>
<path fill="none" stroke="#191970" d="M183.6271,-538.5241C204.9685,-533.487 231.3119,-527.2693 253.9081,-521.9361"/>
<polygon fill="#191970" stroke="#191970" points="254.7365,-525.3368 263.665,-519.6332 253.1284,-518.524 254.7365,-525.3368"/>
</g>
<!-- Node184 -->
<g id="node17" class="node">
<title>Node184</title>
<g id="a_node17"><a xlink:href="chainparams_8cpp.html#ace5c5b706d71a324a417dd2db394fd4a" target="_top" xlink:title="Return the currently selected parameters. ">
<polygon fill="#ffffff" stroke="#000000" points="279,-462.6131 279,-481.6131 329,-481.6131 329,-462.6131 279,-462.6131"/>
<text text-anchor="middle" x="304" y="-469.6131" font-family="Helvetica,sans-Serif" font-size="10.00" fill="#000000">Params</text>
</a>
</g>
</g>
<!-- Node170&#45;&gt;Node184 -->
<g id="edge16" class="edge">
<title>Node170&#45;&gt;Node184</title>
<path fill="none" stroke="#191970" d="M172.3287,-538.5203C178.4208,-535.9166 184.6184,-532.7814 190,-529.1131 209.2234,-516.0098 205.8766,-502.7872 226,-491.1131 238.8734,-483.645 254.5782,-479.1012 268.5126,-476.3417"/>
<polygon fill="#191970" stroke="#191970" points="269.4954,-479.7233 278.747,-474.5603 268.2949,-472.827 269.4954,-479.7233"/>
</g>
<!-- Node185 -->
<g id="node18" class="node">
<title>Node185</title>
<g id="a_node18"><a xlink:href="net_8cpp.html#a93e4e6fbe288b6e882e697918695f88e" target="_top" xlink:title="MapPort">
<polygon fill="#ffffff" stroke="#000000" points="277.5,-424.6131 277.5,-443.6131 330.5,-443.6131 330.5,-424.6131 277.5,-424.6131"/>
<text text-anchor="middle" x="304" y="-431.6131" font-family="Helvetica,sans-Serif" font-size="10.00" fill="#000000">MapPort</text>
</a>
</g>
</g>
<!-- Node170&#45;&gt;Node185 -->
<g id="edge17" class="edge">
<title>Node170&#45;&gt;Node185</title>
<path fill="none" stroke="#191970" d="M175.7422,-538.6047C180.9167,-536.0987 185.9028,-532.9785 190,-529.1131 217.1864,-503.4648 197.0244,-476.7214 226,-453.1131 237.5641,-443.6911 253.0916,-438.8263 267.2476,-436.3551"/>
<polygon fill="#191970" stroke="#191970" points="267.8227,-439.8087 277.2366,-434.9477 266.8461,-432.8772 267.8227,-439.8087"/>
</g>
<!-- Node186 -->
<g id="node19" class="node">
<title>Node186</title>
<g id="a_node19"><a xlink:href="validationinterface_8cpp.html#a5e1776de1f87b4d045e9e2a198236b63" target="_top" xlink:title="Unregister a wallet from core. ">
<polygon fill="#ffffff" stroke="#000000" points="232.5,-348.6131 232.5,-367.6131 375.5,-367.6131 375.5,-348.6131 232.5,-348.6131"/>
<text text-anchor="middle" x="304" y="-355.6131" font-family="Helvetica,sans-Serif" font-size="10.00" fill="#000000">UnregisterValidationInterface</text>
</a>
</g>
</g>
<!-- Node170&#45;&gt;Node186 -->
<g id="edge18" class="edge">
<title>Node170&#45;&gt;Node186</title>
<path fill="none" stroke="#191970" d="M177.1604,-538.5734C181.9286,-536.094 186.4149,-532.9904 190,-529.1131 226.0716,-490.1009 195.007,-458.2703 226,-415.1131 238.8773,-397.1816 259.1328,-382.6209 275.775,-372.7051"/>
<polygon fill="#191970" stroke="#191970" points="277.6277,-375.6777 284.5792,-367.6823 274.1589,-369.5976 277.6277,-375.6777"/>
</g>
<!-- Node201 -->
<g id="node34" class="node">
<title>Node201</title>
<g id="a_node34"><a xlink:href="init_8cpp.html#a568c420fe988e9585d2e96158a71e42e" target="_top" xlink:title="fDumpMempoolLater">
<polygon fill="#ffffff" stroke="#000000" points="250.5,-310.6131 250.5,-329.6131 357.5,-329.6131 357.5,-310.6131 250.5,-310.6131"/>
<text text-anchor="middle" x="304" y="-317.6131" font-family="Helvetica,sans-Serif" font-size="10.00" fill="#000000">fDumpMempoolLater</text>
</a>
</g>
</g>
<!-- Node170&#45;&gt;Node201 -->
<g id="edge55" class="edge">
<title>Node170&#45;&gt;Node201</title>
<path fill="none" stroke="#191970" d="M178.5136,-538.4207C182.8671,-535.9767 186.8743,-532.9239 190,-529.1131 244.5053,-462.6599 166.817,-401.4367 226,-339.1131 230.1809,-334.7104 235.1975,-331.2558 240.6443,-328.5543"/>
<polygon fill="#191970" stroke="#191970" points="242.2047,-331.698 250.1455,-324.6843 239.564,-325.2152 242.2047,-331.698"/>
</g>
<!-- Node202 -->
<g id="node35" class="node">
<title>Node202</title>
<g id="a_node35"><a xlink:href="class_args_manager.html#adb5d644d273b3a259f792affcdca8283" target="_top" xlink:title="Return string argument or default value. ">
<polygon fill="#ffffff" stroke="#000000" points="248.5,-272.6131 248.5,-291.6131 359.5,-291.6131 359.5,-272.6131 248.5,-272.6131"/>
<text text-anchor="middle" x="304" y="-279.6131" font-family="Helvetica,sans-Serif" font-size="10.00" fill="#000000">ArgsManager::GetArg</text>
</a>
</g>
</g>
<!-- Node170&#45;&gt;Node202 -->
<g id="edge56" class="edge">
<title>Node170&#45;&gt;Node202</title>
<path fill="none" stroke="#191970" d="M178.6212,-538.5076C182.959,-536.0508 186.9331,-532.9714 190,-529.1131 253.8359,-448.8048 156.5058,-376.5783 226,-301.1131 229.7766,-297.0121 234.2773,-293.7287 239.1836,-291.1077"/>
<polygon fill="#191970" stroke="#191970" points="240.6327,-294.294 248.3843,-287.0715 237.8206,-287.8837 240.6327,-294.294"/>
</g>
<!-- Node174 -->
<g id="node7" class="node">
<title>Node174</title>
<g id="a_node7"><a xlink:href="httpserver_8cpp.html#a42d2567faa003c410a310a9c4e36ebdc" target="_top" xlink:title="Unregister handler for prefix. ">
<polygon fill="#ffffff" stroke="#000000" points="421,-709.6131 421,-728.6131 543,-728.6131 543,-709.6131 421,-709.6131"/>
<text text-anchor="middle" x="482" y="-716.6131" font-family="Helvetica,sans-Serif" font-size="10.00" fill="#000000">UnregisterHTTPHandler</text>
</a>
</g>
</g>
<!-- Node173&#45;&gt;Node174 -->
<g id="edge6" class="edge">
<title>Node173&#45;&gt;Node174</title>
<path fill="none" stroke="#191970" d="M346.6354,-704.6641C365.8139,-706.7112 388.9776,-709.1838 410.6798,-711.5003"/>
<polygon fill="#191970" stroke="#191970" points="410.5442,-715.0056 420.8593,-712.5869 411.2873,-708.0452 410.5442,-715.0056"/>
</g>
<!-- Node175 -->
<g id="node8" class="node">
<title>Node175</title>
<g id="a_node8"><a xlink:href="server_8cpp.html#a3697278ca4b56a674559305f1d11ad70" target="_top" xlink:title="Unset factory function for timers. ">
<polygon fill="#ffffff" stroke="#000000" points="418,-671.6131 418,-690.6131 546,-690.6131 546,-671.6131 418,-671.6131"/>
<text text-anchor="middle" x="482" y="-678.6131" font-family="Helvetica,sans-Serif" font-size="10.00" fill="#000000">RPCUnsetTimerInterface</text>
</a>
</g>
</g>
<!-- Node173&#45;&gt;Node175 -->
<g id="edge7" class="edge">
<title>Node173&#45;&gt;Node175</title>
<path fill="none" stroke="#191970" d="M346.6354,-695.5621C364.9317,-693.6092 386.8548,-691.2691 407.676,-689.0466"/>
<polygon fill="#191970" stroke="#191970" points="408.216,-692.5089 417.788,-687.9672 407.473,-685.5484 408.216,-692.5089"/>
</g>
<!-- Node179 -->
<g id="node12" class="node">
<title>Node179</title>
<g id="a_node12"><a xlink:href="class_work_queue.html#a43e680b6dc9137cc8fbc29dae3347ad5" target="_top" xlink:title="Wait for worker threads to exit. ">
<polygon fill="#ffffff" stroke="#000000" points="426,-595.6131 426,-614.6131 538,-614.6131 538,-595.6131 426,-595.6131"/>
<text text-anchor="middle" x="482" y="-602.6131" font-family="Helvetica,sans-Serif" font-size="10.00" fill="#000000">WorkQueue::WaitExit</text>
</a>
</g>
</g>
<!-- Node178&#45;&gt;Node179 -->
<g id="edge11" class="edge">
<title>Node178&#45;&gt;Node179</title>
<path fill="none" stroke="#191970" d="M350.3027,-591.0555C370.2221,-593.1818 393.8811,-595.7072 415.6135,-598.0269"/>
<polygon fill="#191970" stroke="#191970" points="415.4563,-601.5299 425.7713,-599.1112 416.1993,-594.5695 415.4563,-601.5299"/>
</g>
<!-- Node182 -->
<g id="node15" class="node">
<title>Node182</title>
<g id="a_node15"><a xlink:href="util_8cpp.html#ae39f49506868759c202b588f7ae2c2d7" target="_top" xlink:title="Return the number of physical cores available on the current system. ">
<polygon fill="#ffffff" stroke="#000000" points="442,-557.6131 442,-576.6131 522,-576.6131 522,-557.6131 442,-557.6131"/>
<text text-anchor="middle" x="482" y="-564.6131" font-family="Helvetica,sans-Serif" font-size="10.00" fill="#000000">GetNumCores</text>
</a>
</g>
</g>
<!-- Node181&#45;&gt;Node182 -->
<g id="edge14" class="edge">
<title>Node181&#45;&gt;Node182</title>
<path fill="none" stroke="#191970" d="M349.1249,-519.103C360.0466,-521.8241 371.5736,-525.1614 382,-529.1131 398.9174,-535.5249 401.247,-541.2833 418,-548.1131 423.5693,-550.3836 429.5104,-552.5143 435.4437,-554.4685"/>
<polygon fill="#191970" stroke="#191970" points="434.7652,-557.9241 445.3546,-557.5844 436.8647,-551.2463 434.7652,-557.9241"/>
</g>
<!-- Node183 -->
<g id="node16" class="node">
<title>Node183</title>
<g id="a_node16"><a xlink:href="utiltime_8cpp.html#a0c5a06b50cd805b1923552114494c029" target="_top" xlink:title="GetTimeMicros">
<polygon fill="#ffffff" stroke="#000000" points="440.5,-519.6131 440.5,-538.6131 523.5,-538.6131 523.5,-519.6131 440.5,-519.6131"/>
<text text-anchor="middle" x="482" y="-526.6131" font-family="Helvetica,sans-Serif" font-size="10.00" fill="#000000">GetTimeMicros</text>
</a>
</g>
</g>
<!-- Node181&#45;&gt;Node183 -->
<g id="edge15" class="edge">
<title>Node181&#45;&gt;Node183</title>
<path fill="none" stroke="#191970" d="M349.3775,-514.9568C374.0014,-517.5852 404.544,-520.8453 430.1099,-523.5743"/>
<polygon fill="#191970" stroke="#191970" points="430.0502,-527.0877 440.3652,-524.669 430.7932,-520.1273 430.0502,-527.0877"/>
</g>
<!-- Node187 -->
<g id="node20" class="node">
<title>Node187</title>
<g id="a_node20"><a xlink:href="class_c_validation_interface.html#aeb34ef6814685cabc29062ed7be25441" target="_top" xlink:title="Notifies listeners of a block validation result. ">
<polygon fill="#ffffff" stroke="#000000" points="800.5,-234.1131 800.5,-264.1131 905.5,-264.1131 905.5,-234.1131 800.5,-234.1131"/>
<text text-anchor="start" x="808.5" y="-252.1131" font-family="Helvetica,sans-Serif" font-size="10.00" fill="#000000">CValidationInterface</text>
<text text-anchor="middle" x="853" y="-241.1131" font-family="Helvetica,sans-Serif" font-size="10.00" fill="#000000">::BlockChecked</text>
</a>
</g>
</g>
<!-- Node186&#45;&gt;Node187 -->
<g id="edge19" class="edge">
<title>Node186&#45;&gt;Node187</title>
<path fill="none" stroke="#191970" d="M366.6369,-348.5827C372.1871,-346.0924 377.4255,-342.9851 382,-339.1131 413.0025,-312.8715 387.6821,-282.1427 418,-255.1131 474.7827,-204.4891 506.7274,-217.1178 582,-206.1131 651.9234,-195.8905 672.2237,-189.8772 741,-206.1131 758.41,-210.2231 760.4596,-217.3001 777,-224.1131 782.4302,-226.3498 788.1399,-228.5297 793.8885,-230.6104"/>
<polygon fill="#191970" stroke="#191970" points="792.9626,-233.9949 803.5575,-234.0111 795.2852,-227.3914 792.9626,-233.9949"/>
</g>
<!-- Node188 -->
<g id="node21" class="node">
<title>Node188</title>
<g id="a_node21"><a xlink:href="class_c_validation_interface.html#a3473492a52200fb5678c0db596a5093a" target="_top" xlink:title="Tells listeners to broadcast their data. ">
<polygon fill="#ffffff" stroke="#000000" points="783,-185.1131 783,-215.1131 923,-215.1131 923,-185.1131 783,-185.1131"/>
<text text-anchor="start" x="791" y="-203.1131" font-family="Helvetica,sans-Serif" font-size="10.00" fill="#000000">CValidationInterface</text>
<text text-anchor="middle" x="853" y="-192.1131" font-family="Helvetica,sans-Serif" font-size="10.00" fill="#000000">::ResendWalletTransactions</text>
</a>
</g>
</g>
<!-- Node186&#45;&gt;Node188 -->
<g id="edge20" class="edge">
<title>Node186&#45;&gt;Node188</title>
<path fill="none" stroke="#191970" d="M368.7232,-348.4729C373.5852,-345.9806 378.1043,-342.9039 382,-339.1131 425.5819,-296.7057 371.4074,-246.1888 418,-207.1131 526.9126,-115.7719 710.7793,-154.9443 800.5378,-182.1028"/>
<polygon fill="#191970" stroke="#191970" points="799.6389,-185.4883 810.2266,-185.0989 801.707,-178.8007 799.6389,-185.4883"/>
</g>
<!-- Node189 -->
<g id="node22" class="node">
<title>Node189</title>
<g id="a_node22"><a xlink:href="class_c_validation_interface.html#a981f5160a2370db0cd616c00d8bd5270" target="_top" xlink:title="Notifies listeners about an inventory item being seen on the network. ">
<polygon fill="#ffffff" stroke="#000000" points="800.5,-136.1131 800.5,-166.1131 905.5,-166.1131 905.5,-136.1131 800.5,-136.1131"/>
<text text-anchor="start" x="808.5" y="-154.1131" font-family="Helvetica,sans-Serif" font-size="10.00" fill="#000000">CValidationInterface</text>
<text text-anchor="middle" x="853" y="-143.1131" font-family="Helvetica,sans-Serif" font-size="10.00" fill="#000000">::Inventory</text>
</a>
</g>
</g>
<!-- Node186&#45;&gt;Node189 -->
<g id="edge21" class="edge">
<title>Node186&#45;&gt;Node189</title>
<path fill="none" stroke="#191970" d="M369.4122,-348.5921C374.0637,-346.0667 378.3492,-342.9501 382,-339.1131 440.6417,-277.4797 353.2642,-206.311 418,-151.1131 472.2791,-104.8313 683.3171,-126.8536 790.2085,-141.576"/>
<polygon fill="#191970" stroke="#191970" points="789.8306,-145.0572 800.2189,-142.9755 790.7998,-138.1246 789.8306,-145.0572"/>
</g>
<!-- Node190 -->
<g id="node23" class="node">
<title>Node190</title>
<g id="a_node23"><a xlink:href="class_c_validation_interface.html#a8684492d9878120ce8c6c760a790f9ea" target="_top" xlink:title="Notifies listeners of the new active block chain on&#45;disk. ">
<polygon fill="#ffffff" stroke="#000000" points="800.5,-87.1131 800.5,-117.1131 905.5,-117.1131 905.5,-87.1131 800.5,-87.1131"/>
<text text-anchor="start" x="808.5" y="-105.1131" font-family="Helvetica,sans-Serif" font-size="10.00" fill="#000000">CValidationInterface</text>
<text text-anchor="middle" x="853" y="-94.1131" font-family="Helvetica,sans-Serif" font-size="10.00" fill="#000000">::SetBestChain</text>
</a>
</g>
</g>
<!-- Node186&#45;&gt;Node190 -->
<g id="edge22" class="edge">
<title>Node186&#45;&gt;Node190</title>
<path fill="none" stroke="#191970" d="M369.8871,-348.4933C374.3733,-345.9815 378.4947,-342.8955 382,-339.1131 449.0482,-266.7646 344.143,-185.496 418,-120.1131 523.1154,-27.0584 704.678,-59.5545 796.4301,-84.4046"/>
<polygon fill="#191970" stroke="#191970" points="795.5223,-87.7849 806.0939,-87.0841 797.3927,-81.0394 795.5223,-87.7849"/>
</g>
<!-- Node191 -->
<g id="node24" class="node">
<title>Node191</title>
<g id="a_node24"><a xlink:href="class_c_validation_interface.html#a686fb053045c28ffe2d69a2ee85eea29" target="_top" xlink:title="Notifies listeners of a transaction having been added to mempool. ">
<polygon fill="#ffffff" stroke="#000000" points="777,-38.1131 777,-68.1131 929,-68.1131 929,-38.1131 777,-38.1131"/>
<text text-anchor="start" x="785" y="-56.1131" font-family="Helvetica,sans-Serif" font-size="10.00" fill="#000000">CValidationInterface</text>
<text text-anchor="middle" x="853" y="-45.1131" font-family="Helvetica,sans-Serif" font-size="10.00" fill="#000000">::TransactionAddedToMempool</text>
</a>
</g>
</g>
<!-- Node186&#45;&gt;Node191 -->
<g id="edge23" class="edge">
<title>Node186&#45;&gt;Node191</title>
<path fill="none" stroke="#191970" d="M370.3922,-348.4179C374.7059,-345.9146 378.6536,-342.8518 382,-339.1131 465.3859,-245.9531 325.6304,-144.3738 418,-60.1131 523.9567,36.5418 712.0502,-6.3351 802.1416,-34.9305"/>
<polygon fill="#191970" stroke="#191970" points="801.2588,-38.3236 811.8508,-38.0781 803.4176,-31.6647 801.2588,-38.3236"/>
</g>
<!-- Node192 -->
<g id="node25" class="node">
<title>Node192</title>
<g id="a_node25"><a xlink:href="class_c_validation_interface.html#a5c8ac00b2b08a57c28e8bbc991f34ed4" target="_top" xlink:title="Notifies listeners of a block being connected. ">
<polygon fill="#ffffff" stroke="#000000" points="800.5,-479.1131 800.5,-509.1131 905.5,-509.1131 905.5,-479.1131 800.5,-479.1131"/>
<text text-anchor="start" x="808.5" y="-497.1131" font-family="Helvetica,sans-Serif" font-size="10.00" fill="#000000">CValidationInterface</text>
<text text-anchor="middle" x="853" y="-486.1131" font-family="Helvetica,sans-Serif" font-size="10.00" fill="#000000">::BlockConnected</text>
</a>
</g>
</g>
<!-- Node186&#45;&gt;Node192 -->
<g id="edge24" class="edge">
<title>Node186&#45;&gt;Node192</title>
<path fill="none" stroke="#191970" d="M320.4129,-367.7606C342.0589,-380.0735 381.6669,-401.2013 418,-413.1131 546.7154,-455.3123 704.4952,-477.8079 790.2326,-487.7224"/>
<polygon fill="#191970" stroke="#191970" points="789.9931,-491.2176 800.3244,-488.8696 790.7838,-484.2624 789.9931,-491.2176"/>
</g>
<!-- Node193 -->
<g id="node26" class="node">
<title>Node193</title>
<g id="a_node26"><a xlink:href="class_c_validation_interface.html#a914de3420613e1a2281180f856dca88e" target="_top" xlink:title="Notifies listeners of a block being disconnected. ">
<polygon fill="#ffffff" stroke="#000000" points="799.5,-430.1131 799.5,-460.1131 906.5,-460.1131 906.5,-430.1131 799.5,-430.1131"/>
<text text-anchor="start" x="807.5" y="-448.1131" font-family="Helvetica,sans-Serif" font-size="10.00" fill="#000000">CValidationInterface</text>
<text text-anchor="middle" x="853" y="-437.1131" font-family="Helvetica,sans-Serif" font-size="10.00" fill="#000000">::BlockDisconnected</text>
</a>
</g>
</g>
<!-- Node186&#45;&gt;Node193 -->
<g id="edge25" class="edge">
<title>Node186&#45;&gt;Node193</title>
<path fill="none" stroke="#191970" d="M334.6935,-367.6929C357.486,-374.5039 389.4373,-383.4191 418,-389.1131 548.7785,-415.1838 704.2043,-431.7923 789.3505,-439.6838"/>
<polygon fill="#191970" stroke="#191970" points="789.1017,-443.1756 799.3795,-440.603 789.7407,-436.2048 789.1017,-443.1756"/>
</g>
<!-- Node194 -->
<g id="node27" class="node">
<title>Node194</title>
<g id="a_node27"><a xlink:href="class_c_validation_interface.html#a794911828f9350d82bc1941ba82e7463" target="_top" xlink:title="Notifies listeners of updated block chain tip. ">
<polygon fill="#ffffff" stroke="#000000" points="800.5,-381.1131 800.5,-411.1131 905.5,-411.1131 905.5,-381.1131 800.5,-381.1131"/>
<text text-anchor="start" x="808.5" y="-399.1131" font-family="Helvetica,sans-Serif" font-size="10.00" fill="#000000">CValidationInterface</text>
<text text-anchor="middle" x="853" y="-388.1131" font-family="Helvetica,sans-Serif" font-size="10.00" fill="#000000">::UpdatedBlockTip</text>
</a>
</g>
</g>
<!-- Node186&#45;&gt;Node194 -->
<g id="edge26" class="edge">
<title>Node186&#45;&gt;Node194</title>
<path fill="none" stroke="#191970" d="M375.6974,-366.9106C389.7113,-368.4544 404.3054,-369.9397 418,-371.1131 550.2225,-382.4426 705.5074,-389.9846 790.1525,-393.6097"/>
<polygon fill="#191970" stroke="#191970" points="790.2291,-397.116 800.3684,-394.0428 790.5257,-390.1222 790.2291,-397.116"/>
</g>
<!-- Node195 -->
<g id="node28" class="node">
<title>Node195</title>
<g id="a_node28"><a xlink:href="class_c_validation_interface.html#a07bcbde7de90f5cfbc76f185465d4281" target="_top" xlink:title="Notifies listeners that a block which builds directly on our current tip has been received and connec...">
<polygon fill="#ffffff" stroke="#000000" points="797.5,-332.1131 797.5,-362.1131 908.5,-362.1131 908.5,-332.1131 797.5,-332.1131"/>
<text text-anchor="start" x="805.5" y="-350.1131" font-family="Helvetica,sans-Serif" font-size="10.00" fill="#000000">CValidationInterface</text>
<text text-anchor="middle" x="853" y="-339.1131" font-family="Helvetica,sans-Serif" font-size="10.00" fill="#000000">::NewPoWValidBlock</text>
</a>
</g>
</g>
<!-- Node186&#45;&gt;Node195 -->
<g id="edge27" class="edge">
<title>Node186&#45;&gt;Node195</title>
<path fill="none" stroke="#191970" d="M375.5526,-358.2172C462.119,-358.1299 612.2735,-357.2957 741,-353.1131 755.9432,-352.6276 771.9978,-351.8936 787.1528,-351.1038"/>
<polygon fill="#191970" stroke="#191970" points="787.678,-354.5808 797.4763,-350.5505 787.3033,-347.5908 787.678,-354.5808"/>
</g>
<!-- Node196 -->
<g id="node29" class="node">
<title>Node196</title>
<g id="a_node29"><a xlink:href="class_c_validation_interface.html#a39109ad09e27c52f733bb7b5bdae6766" target="_top" xlink:title="CValidationInterface\l::BlockFound">
<polygon fill="#ffffff" stroke="#000000" points="800.5,-283.1131 800.5,-313.1131 905.5,-313.1131 905.5,-283.1131 800.5,-283.1131"/>
<text text-anchor="start" x="808.5" y="-301.1131" font-family="Helvetica,sans-Serif" font-size="10.00" fill="#000000">CValidationInterface</text>
<text text-anchor="middle" x="853" y="-290.1131" font-family="Helvetica,sans-Serif" font-size="10.00" fill="#000000">::BlockFound</text>
</a>
</g>
</g>
<!-- Node186&#45;&gt;Node196 -->
<g id="edge28" class="edge">
<title>Node186&#45;&gt;Node196</title>
<path fill="none" stroke="#191970" d="M375.7997,-354.2374C462.6079,-349.0063 612.9991,-338.1968 741,-320.1131 757.1675,-317.829 774.5306,-314.7361 790.6446,-311.5916"/>
<polygon fill="#191970" stroke="#191970" points="791.3687,-315.0162 800.4946,-309.6339 790.0041,-308.1505 791.3687,-315.0162"/>
</g>
<!-- Node197 -->
<g id="node30" class="node">
<title>Node197</title>
<g id="a_node30"><a xlink:href="class_c_validation_interface.html#a4ab4636bdcf502afaa3c2756dcf2b567" target="_top" xlink:title="CValidationInterface\l::NewAssetMessage">
<polygon fill="#ffffff" stroke="#000000" points="428,-264.1131 428,-294.1131 536,-294.1131 536,-264.1131 428,-264.1131"/>
<text text-anchor="start" x="436" y="-282.1131" font-family="Helvetica,sans-Serif" font-size="10.00" fill="#000000">CValidationInterface</text>
<text text-anchor="middle" x="482" y="-271.1131" font-family="Helvetica,sans-Serif" font-size="10.00" fill="#000000">::NewAssetMessage</text>
</a>
</g>
</g>
<!-- Node186&#45;&gt;Node197 -->
<g id="edge29" class="edge">
<title>Node186&#45;&gt;Node197</title>
<path fill="none" stroke="#191970" d="M352.9875,-348.5765C362.7701,-346.0079 372.8461,-342.8724 382,-339.1131 407.1738,-328.7748 433.4806,-312.7519 452.7906,-299.8639"/>
<polygon fill="#191970" stroke="#191970" points="454.8337,-302.7073 461.1413,-294.1947 450.9018,-296.9159 454.8337,-302.7073"/>
</g>
<!-- Node198 -->
<g id="node31" class="node">
<title>Node198</title>
<g id="a_node31"><a xlink:href="validationinterface_8h.html#ade8ef59282b5f7521ecfd870a8e3b137" target="_top" xlink:title="Register a wallet to receive updates from core. ">
<polygon fill="#ffffff" stroke="#000000" points="594.5,-291.6131 594.5,-310.6131 728.5,-310.6131 728.5,-291.6131 594.5,-291.6131"/>
<text text-anchor="middle" x="661.5" y="-298.6131" font-family="Helvetica,sans-Serif" font-size="10.00" fill="#000000">RegisterValidationInterface</text>
</a>
</g>
</g>
<!-- Node197&#45;&gt;Node198 -->
<g id="edge30" class="edge">
<title>Node197&#45;&gt;Node198</title>
<path fill="none" stroke="#191970" d="M536.343,-279.5139C562.4363,-281.9515 593.2849,-285.8564 617.8264,-289.873"/>
<polygon fill="#191970" stroke="#191970" points="617.4794,-293.3643 627.9258,-291.5972 618.6575,-286.4641 617.4794,-293.3643"/>
</g>
<!-- Node199 -->
<g id="node32" class="node">
<title>Node199</title>
<g id="a_node32"><a xlink:href="validationinterface_8h.html#a5e1776de1f87b4d045e9e2a198236b63" target="_top" xlink:title="Unregister a wallet from core. ">
<polygon fill="#ffffff" stroke="#000000" points="590,-253.6131 590,-272.6131 733,-272.6131 733,-253.6131 590,-253.6131"/>
<text text-anchor="middle" x="661.5" y="-260.6131" font-family="Helvetica,sans-Serif" font-size="10.00" fill="#000000">UnregisterValidationInterface</text>
</a>
</g>
</g>
<!-- Node197&#45;&gt;Node199 -->
<g id="edge42" class="edge">
<title>Node197&#45;&gt;Node199</title>
<path fill="none" stroke="#191970" d="M536.343,-268.0095C550.0088,-266.3931 564.9789,-264.9031 579.6641,-263.6811"/>
<polygon fill="#191970" stroke="#191970" points="580.074,-267.1596 589.7658,-262.8796 579.5203,-260.1816 580.074,-267.1596"/>
</g>
<!-- Node200 -->
<g id="node33" class="node">
<title>Node200</title>
<g id="a_node33"><a xlink:href="validationinterface_8h.html#a8fe3fbf8c47cc0419fd7b9a14e8b140d" target="_top" xlink:title="Unregister all wallets from core. ">
<polygon fill="#ffffff" stroke="#000000" points="582,-215.6131 582,-234.6131 741,-234.6131 741,-215.6131 582,-215.6131"/>
<text text-anchor="middle" x="661.5" y="-222.6131" font-family="Helvetica,sans-Serif" font-size="10.00" fill="#000000">UnregisterAllValidationInterfaces</text>
</a>
</g>
</g>
<!-- Node197&#45;&gt;Node200 -->
<g id="edge54" class="edge">
<title>Node197&#45;&gt;Node200</title>
<path fill="none" stroke="#191970" d="M522.0807,-264.0332C540.2362,-257.4753 562.0572,-249.9696 582,-244.1131 590.4088,-241.6437 599.3872,-239.2601 608.171,-237.0644"/>
<polygon fill="#191970" stroke="#191970" points="609.0817,-240.4449 617.9648,-234.6708 607.4198,-233.6451 609.0817,-240.4449"/>
</g>
<!-- Node198&#45;&gt;Node187 -->
<g id="edge38" class="edge">
<title>Node198&#45;&gt;Node187</title>
<path fill="none" stroke="#191970" d="M703.2752,-291.5596C715.4695,-288.6547 728.7965,-285.3669 741,-282.1131 758.3556,-277.4857 777.1149,-272.108 794.2269,-267.0539"/>
<polygon fill="#191970" stroke="#191970" points="795.4998,-270.327 804.0887,-264.1236 793.506,-263.6169 795.4998,-270.327"/>
</g>
<!-- Node198&#45;&gt;Node188 -->
<g id="edge37" class="edge">
<title>Node198&#45;&gt;Node188</title>
<path fill="none" stroke="#191970" d="M723.0987,-291.5594C729.4635,-289.0904 735.5757,-285.9941 741,-282.1131 765.3681,-264.6783 753.3781,-243.5463 777,-225.1131 779.3099,-223.3106 781.7551,-221.6355 784.2976,-220.0788"/>
<polygon fill="#191970" stroke="#191970" points="786.1312,-223.0663 793.2621,-215.2305 782.8011,-216.9092 786.1312,-223.0663"/>
</g>
<!-- Node198&#45;&gt;Node189 -->
<g id="edge36" class="edge">
<title>Node198&#45;&gt;Node189</title>
<path fill="none" stroke="#191970" d="M726.8346,-291.538C731.9882,-289.0388 736.8098,-285.9423 741,-282.1131 778.0385,-248.2652 741.1912,-210.2594 777,-175.1131 781.0734,-171.1151 785.8074,-167.7823 790.8832,-165.0043"/>
<polygon fill="#191970" stroke="#191970" points="792.7522,-167.9936 800.3201,-160.579 789.7802,-161.6558 792.7522,-167.9936"/>
</g>
<!-- Node198&#45;&gt;Node190 -->
<g id="edge35" class="edge">
<title>Node198&#45;&gt;Node190</title>
<path fill="none" stroke="#191970" d="M728.0021,-291.5723C732.7795,-289.0512 737.2018,-285.941 741,-282.1131 791.1181,-231.6028 728.7137,-178.3773 777,-126.1131 781.0302,-121.7509 785.8454,-118.1768 791.0691,-115.2491"/>
<polygon fill="#191970" stroke="#191970" points="792.6579,-118.3692 800.1793,-110.9074 789.6463,-112.0501 792.6579,-118.3692"/>
</g>
<!-- Node198&#45;&gt;Node191 -->
<g id="edge32" class="edge">
<title>Node198&#45;&gt;Node191</title>
<path fill="none" stroke="#191970" d="M728.5981,-291.5841C733.1829,-289.0523 737.4018,-285.9369 741,-282.1131 804.3942,-214.7454 716.0467,-146.6971 777,-77.1131 777.7522,-76.2544 778.5348,-75.4262 779.3451,-74.6273"/>
<polygon fill="#191970" stroke="#191970" points="781.7262,-77.2034 787.3121,-68.2007 777.3312,-71.755 781.7262,-77.2034"/>
</g>
<!-- Node198&#45;&gt;Node192 -->
<g id="edge33" class="edge">
<title>Node198&#45;&gt;Node192</title>
<path fill="none" stroke="#191970" d="M665.3707,-310.8C677.3695,-339.5921 716.7914,-425.4181 777,-470.1131 781.3746,-473.3605 786.2014,-476.1768 791.2379,-478.6176"/>
<polygon fill="#191970" stroke="#191970" points="789.9101,-481.8566 800.4776,-482.6178 792.6912,-475.4328 789.9101,-481.8566"/>
</g>
<!-- Node198&#45;&gt;Node193 -->
<g id="edge34" class="edge">
<title>Node198&#45;&gt;Node193</title>
<path fill="none" stroke="#191970" d="M668.1237,-310.7689C684.1471,-333.4101 727.3636,-390.3251 777,-421.1131 781.0493,-423.6248 785.3845,-425.895 789.8553,-427.9433"/>
<polygon fill="#191970" stroke="#191970" points="788.5987,-431.2115 799.1748,-431.8422 791.3004,-424.7539 788.5987,-431.2115"/>
</g>
<!-- Node198&#45;&gt;Node194 -->
<g id="edge31" class="edge">
<title>Node198&#45;&gt;Node194</title>
<path fill="none" stroke="#191970" d="M674.7616,-310.7742C695.6349,-325.6242 737.8207,-354.2145 777,-372.1131 781.4089,-374.1273 786.0343,-376.0396 790.7344,-377.8402"/>
<polygon fill="#191970" stroke="#191970" points="789.8474,-381.2421 800.4414,-381.3763 792.2434,-374.6649 789.8474,-381.2421"/>
</g>
<!-- Node198&#45;&gt;Node195 -->
<g id="edge39" class="edge">
<title>Node198&#45;&gt;Node195</title>
<path fill="none" stroke="#191970" d="M701.1789,-310.6443C726.0707,-316.6236 758.7686,-324.4779 787.4423,-331.3656"/>
<polygon fill="#191970" stroke="#191970" points="786.8563,-334.8243 797.3973,-333.7568 788.4914,-328.0179 786.8563,-334.8243"/>
</g>
<!-- Node198&#45;&gt;Node196 -->
<g id="edge40" class="edge">
<title>Node198&#45;&gt;Node196</title>
<path fill="none" stroke="#191970" d="M728.7465,-300.0596C748.7532,-299.7462 770.5867,-299.4042 790.2921,-299.0955"/>
<polygon fill="#191970" stroke="#191970" points="790.4379,-302.5937 800.3819,-298.9374 790.3282,-295.5946 790.4379,-302.5937"/>
</g>
<!-- Node198&#45;&gt;Node197 -->
<g id="edge41" class="edge">
<title>Node198&#45;&gt;Node197</title>
<path fill="none" stroke="#191970" d="M594.3307,-299.4371C578.6382,-297.7881 561.9607,-295.7268 546.3921,-293.5098"/>
<polygon fill="#191970" stroke="#191970" points="546.7457,-290.0242 536.343,-292.0332 545.7279,-296.9499 546.7457,-290.0242"/>
</g>
<!-- Node199&#45;&gt;Node187 -->
<g id="edge43" class="edge">
<title>Node199&#45;&gt;Node187</title>
<path fill="none" stroke="#191970" d="M733.0799,-257.8801C751.8164,-256.5104 771.8741,-255.044 790.1196,-253.7101"/>
<polygon fill="#191970" stroke="#191970" points="790.6201,-257.183 800.3383,-252.9631 790.1097,-250.2016 790.6201,-257.183"/>
</g>
<!-- Node199&#45;&gt;Node188 -->
<g id="edge44" class="edge">
<title>Node199&#45;&gt;Node188</title>
<path fill="none" stroke="#191970" d="M710.0104,-253.5689C720.3836,-250.9621 731.1724,-247.8135 741,-244.1131 757.9313,-237.7381 760.3485,-232.1868 777,-225.1131 782.3234,-222.8517 787.9259,-220.6645 793.5757,-218.5872"/>
<polygon fill="#191970" stroke="#191970" points="794.8405,-221.8522 803.0877,-215.2013 792.4931,-215.2575 794.8405,-221.8522"/>
</g>
<!-- Node199&#45;&gt;Node189 -->
<g id="edge45" class="edge">
<title>Node199&#45;&gt;Node189</title>
<path fill="none" stroke="#191970" d="M724.6312,-253.503C730.4961,-251.0333 736.076,-247.9525 741,-244.1131 768.2778,-222.8442 750.4975,-197.3406 777,-175.1131 781.2407,-171.5565 786.0116,-168.5254 791.0435,-165.9424"/>
<polygon fill="#191970" stroke="#191970" points="792.6455,-169.0595 800.3248,-161.7603 789.7697,-162.6775 792.6455,-169.0595"/>
</g>
<!-- Node199&#45;&gt;Node190 -->
<g id="edge46" class="edge">
<title>Node199&#45;&gt;Node190</title>
<path fill="none" stroke="#191970" d="M727.3358,-253.4738C732.3195,-250.9814 736.9681,-247.9043 741,-244.1131 780.9454,-206.5527 738.4185,-165.0732 777,-126.1131 781.0162,-122.0576 785.7113,-118.6858 790.7623,-115.8829"/>
<polygon fill="#191970" stroke="#191970" points="792.6299,-118.8711 800.1688,-111.4269 789.6331,-112.545 792.6299,-118.8711"/>
</g>
<!-- Node199&#45;&gt;Node191 -->
<g id="edge47" class="edge">
<title>Node199&#45;&gt;Node191</title>
<path fill="none" stroke="#191970" d="M728.438,-253.4306C733.0582,-250.9326 737.3288,-247.867 741,-244.1131 794.0874,-189.8299 725.8807,-133.2536 777,-77.1131 777.7686,-76.2691 778.5665,-75.4545 779.3912,-74.6684"/>
<polygon fill="#191970" stroke="#191970" points="781.7561,-77.2615 787.4612,-68.3339 777.434,-71.7552 781.7561,-77.2615"/>
</g>
<!-- Node199&#45;&gt;Node192 -->
<g id="edge48" class="edge">
<title>Node199&#45;&gt;Node192</title>
<path fill="none" stroke="#191970" d="M728.5338,-272.703C733.1329,-275.2214 737.3725,-278.3171 741,-282.1131 799.7754,-343.6191 720.4537,-406.5518 777,-470.1131 781.0064,-474.6165 785.85,-478.2823 791.1298,-481.265"/>
<polygon fill="#191970" stroke="#191970" points="789.824,-484.5199 800.3565,-485.6672 792.8383,-478.2021 789.824,-484.5199"/>
</g>
<!-- Node199&#45;&gt;Node193 -->
<g id="edge49" class="edge">
<title>Node199&#45;&gt;Node193</title>
<path fill="none" stroke="#191970" d="M727.892,-272.7647C732.6933,-275.2618 737.1512,-278.3361 741,-282.1131 786.5477,-326.811 733.0741,-374.8205 777,-421.1131 780.8096,-425.128 785.2842,-428.4742 790.123,-431.2626"/>
<polygon fill="#191970" stroke="#191970" points="788.6424,-434.4348 799.161,-435.7033 791.7293,-428.1521 788.6424,-434.4348"/>
</g>
<!-- Node199&#45;&gt;Node194 -->
<g id="edge50" class="edge">
<title>Node199&#45;&gt;Node194</title>
<path fill="none" stroke="#191970" d="M726.2187,-272.7594C731.5651,-275.2375 736.597,-278.3098 741,-282.1131 773.6026,-310.2747 745.4217,-342.8077 777,-372.1131 781.1203,-375.9368 785.8467,-379.1514 790.8833,-381.8537"/>
<polygon fill="#191970" stroke="#191970" points="789.6756,-385.1518 800.2199,-386.1859 792.6219,-378.802 789.6756,-385.1518"/>
</g>
<!-- Node199&#45;&gt;Node195 -->
<g id="edge51" class="edge">
<title>Node199&#45;&gt;Node195</title>
<path fill="none" stroke="#191970" d="M720.037,-272.6833C727.3766,-275.1414 734.5584,-278.2307 741,-282.1131 761.769,-294.631 756.6903,-309.8631 777,-323.1131 780.52,-325.4096 784.2747,-327.499 788.1588,-329.3981"/>
<polygon fill="#191970" stroke="#191970" points="786.846,-332.6445 797.4069,-333.492 789.6795,-326.2436 786.846,-332.6445"/>
</g>
<!-- Node199&#45;&gt;Node196 -->
<g id="edge52" class="edge">
<title>Node199&#45;&gt;Node196</title>
<path fill="none" stroke="#191970" d="M713.5753,-272.6308C737.2298,-276.9541 765.4104,-282.1046 790.225,-286.6399"/>
<polygon fill="#191970" stroke="#191970" points="789.8031,-290.1207 800.2694,-288.4757 791.0617,-283.2347 789.8031,-290.1207"/>
</g>
<!-- Node199&#45;&gt;Node197 -->
<g id="edge53" class="edge">
<title>Node199&#45;&gt;Node197</title>
<path fill="none" stroke="#191970" d="M619.8856,-272.6225C598.1343,-275.5136 571.0261,-278.1663 546.6159,-279.8625"/>
<polygon fill="#191970" stroke="#191970" points="546.0955,-276.3888 536.343,-280.5288 546.5486,-283.3741 546.0955,-276.3888"/>
</g>
</g>
</svg>
