<?xml version="1.0" encoding="UTF-8" standalone="no"?>
<!DOCTYPE svg PUBLIC "-//W3C//DTD SVG 1.1//EN"
 "http://www.w3.org/Graphics/SVG/1.1/DTD/svg11.dtd">
<!-- Generated by graphviz version 2.40.1 (20161225.0304)
 -->
<!-- Title: AppInitLockDataDirectory Pages: 1 -->
<svg width="376pt" height="66pt"
 viewBox="0.00 0.00 376.00 66.00" xmlns="http://www.w3.org/2000/svg" xmlns:xlink="http://www.w3.org/1999/xlink">
<g id="graph0" class="graph" transform="scale(1 1) rotate(0) translate(4 62)">
<title>AppInitLockDataDirectory</title>
<polygon fill="#ffffff" stroke="transparent" points="-4,4 -4,-62 372,-62 372,4 -4,4"/>
<!-- Node9 -->
<g id="node1" class="node">
<title>Node9</title>
<polygon fill="#bfbfbf" stroke="#000000" points="0,-19.5 0,-38.5 129,-38.5 129,-19.5 0,-19.5"/>
<text text-anchor="middle" x="64.5" y="-26.5" font-family="Helvetica,sans-Serif" font-size="10.00" fill="#000000">AppInitLockDataDirectory</text>
</g>
<!-- Node10 -->
<g id="node2" class="node">
<title>Node10</title>
<g id="a_node2"><a xlink:href="class_raven_core.html#a7fb311e7bfbf3d59765c63d074e63c96" target="_top" xlink:title="Basic initialization, before starting initialization/shutdown thread. ">
<polygon fill="#ffffff" stroke="#000000" points="165,-38.5 165,-57.5 294,-57.5 294,-38.5 165,-38.5"/>
<text text-anchor="middle" x="229.5" y="-45.5" font-family="Helvetica,sans-Serif" font-size="10.00" fill="#000000">RavenCore::baseInitialize</text>
</a>
</g>
</g>
<!-- Node9&#45;&gt;Node10 -->
<g id="edge1" class="edge">
<title>Node9&#45;&gt;Node10</title>
<path fill="none" stroke="#191970" d="M139.2388,-37.6063C147.8208,-38.5945 156.5158,-39.5958 164.9479,-40.5667"/>
<polygon fill="#191970" stroke="#191970" points="139.5736,-34.1218 129.2388,-36.4548 138.7727,-41.0758 139.5736,-34.1218"/>
</g>
<!-- Node11 -->
<g id="node3" class="node">
<title>Node11</title>
<g id="a_node3"><a xlink:href="ravend_8cpp.html#ac59316b767e6984e1285f0531275286b" target="_top" xlink:title="AppInit">
<polygon fill="#ffffff" stroke="#000000" points="206,-.5 206,-19.5 253,-19.5 253,-.5 206,-.5"/>
<text text-anchor="middle" x="229.5" y="-7.5" font-family="Helvetica,sans-Serif" font-size="10.00" fill="#000000">AppInit</text>
</a>
</g>
</g>
<!-- Node9&#45;&gt;Node11 -->
<g id="edge2" class="edge">
<title>Node9&#45;&gt;Node11</title>
<path fill="none" stroke="#191970" d="M139.4283,-20.3719C163.382,-17.6136 188.1943,-14.7564 205.6962,-12.741"/>
<polygon fill="#191970" stroke="#191970" points="138.7727,-16.9242 129.2388,-21.5452 139.5736,-23.8782 138.7727,-16.9242"/>
</g>
<!-- Node12 -->
<g id="node4" class="node">
<title>Node12</title>
<g id="a_node4"><a xlink:href="ravend_8cpp.html#a0ddf1224851353fc92bfbff6f499fa97" target="_top" xlink:title="main">
<polygon fill="#ffffff" stroke="#000000" points="330,-.5 330,-19.5 368,-19.5 368,-.5 330,-.5"/>
<text text-anchor="middle" x="349" y="-7.5" font-family="Helvetica,sans-Serif" font-size="10.00" fill="#000000">main</text>
</a>
</g>
</g>
<!-- Node11&#45;&gt;Node12 -->
<g id="edge3" class="edge">
<title>Node11&#45;&gt;Node12</title>
<path fill="none" stroke="#191970" d="M263.1606,-10C284.6878,-10 311.8373,-10 329.7733,-10"/>
<polygon fill="#191970" stroke="#191970" points="263.1094,-6.5001 253.1094,-10 263.1093,-13.5001 263.1094,-6.5001"/>
</g>
</g>
</svg>
