<?xml version="1.0" encoding="UTF-8" standalone="no"?>
<!DOCTYPE svg PUBLIC "-//W3C//DTD SVG 1.1//EN"
 "http://www.w3.org/Graphics/SVG/1.1/DTD/svg11.dtd">
<!-- Generated by graphviz version 2.40.1 (20161225.0304)
 -->
<!-- Title: setupDockClickHandler Pages: 1 -->
<svg width="1314pt" height="99pt"
 viewBox="0.00 0.00 1314.00 98.50" xmlns="http://www.w3.org/2000/svg" xmlns:xlink="http://www.w3.org/1999/xlink">
<g id="graph0" class="graph" transform="scale(1 1) rotate(0) translate(4 94.5)">
<title>setupDockClickHandler</title>
<polygon fill="#ffffff" stroke="transparent" points="-4,4 -4,-94.5 1310,-94.5 1310,4 -4,4"/>
<!-- Node27 -->
<g id="node1" class="node">
<title>Node27</title>
<polygon fill="#bfbfbf" stroke="#000000" points="0,-52 0,-71 120,-71 120,-52 0,-52"/>
<text text-anchor="middle" x="60" y="-59" font-family="Helvetica,sans-Serif" font-size="10.00" fill="#000000">setupDockClickHandler</text>
</g>
<!-- Node28 -->
<g id="node2" class="node">
<title>Node28</title>
<g id="a_node2"><a xlink:href="class_mac_dock_icon_handler.html#ab44913b8dabec96186b74bc6f6896c46" target="_top" xlink:title="MacDockIconHandler\l::MacDockIconHandler">
<polygon fill="#ffffff" stroke="#000000" points="156,-46.5 156,-76.5 273,-76.5 273,-46.5 156,-46.5"/>
<text text-anchor="start" x="164" y="-64.5" font-family="Helvetica,sans-Serif" font-size="10.00" fill="#000000">MacDockIconHandler</text>
<text text-anchor="middle" x="214.5" y="-53.5" font-family="Helvetica,sans-Serif" font-size="10.00" fill="#000000">::MacDockIconHandler</text>
</a>
</g>
</g>
<!-- Node27&#45;&gt;Node28 -->
<g id="edge1" class="edge">
<title>Node27&#45;&gt;Node28</title>
<path fill="none" stroke="#191970" d="M130.4258,-61.5C138.8962,-61.5 147.4769,-61.5 155.7562,-61.5"/>
<polygon fill="#191970" stroke="#191970" points="130.1762,-58.0001 120.1761,-61.5 130.1761,-65.0001 130.1762,-58.0001"/>
</g>
<!-- Node29 -->
<g id="node3" class="node">
<title>Node29</title>
<g id="a_node3"><a xlink:href="class_mac_dock_icon_handler.html#afd3ef7126d0b6ef02eaf85e5455fe6f4" target="_top" xlink:title="MacDockIconHandler\l::instance">
<polygon fill="#ffffff" stroke="#000000" points="309,-46.5 309,-76.5 420,-76.5 420,-46.5 309,-46.5"/>
<text text-anchor="start" x="317" y="-64.5" font-family="Helvetica,sans-Serif" font-size="10.00" fill="#000000">MacDockIconHandler</text>
<text text-anchor="middle" x="364.5" y="-53.5" font-family="Helvetica,sans-Serif" font-size="10.00" fill="#000000">::instance</text>
</a>
</g>
</g>
<!-- Node28&#45;&gt;Node29 -->
<g id="edge2" class="edge">
<title>Node28&#45;&gt;Node29</title>
<path fill="none" stroke="#191970" d="M283.5684,-61.5C292.0075,-61.5 300.5474,-61.5 308.7571,-61.5"/>
<polygon fill="#191970" stroke="#191970" points="283.3535,-58.0001 273.3535,-61.5 283.3534,-65.0001 283.3535,-58.0001"/>
</g>
<!-- Node30 -->
<g id="node4" class="node">
<title>Node30</title>
<g id="a_node4"><a xlink:href="class_raven_g_u_i.html#af82cbe028fc29d0ea71074eced806071" target="_top" xlink:title="RavenGUI::RavenGUI">
<polygon fill="#ffffff" stroke="#000000" points="477,-71 477,-90 593,-90 593,-71 477,-71"/>
<text text-anchor="middle" x="535" y="-78" font-family="Helvetica,sans-Serif" font-size="10.00" fill="#000000">RavenGUI::RavenGUI</text>
</a>
</g>
</g>
<!-- Node29&#45;&gt;Node30 -->
<g id="edge3" class="edge">
<title>Node29&#45;&gt;Node30</title>
<path fill="none" stroke="#191970" d="M430.2922,-68.8317C445.6852,-70.547 461.9724,-72.362 476.9977,-74.0364"/>
<polygon fill="#191970" stroke="#191970" points="430.6542,-65.3504 420.3281,-67.7213 429.8789,-72.3074 430.6542,-65.3504"/>
</g>
<!-- Node31 -->
<g id="node5" class="node">
<title>Node31</title>
<g id="a_node5"><a xlink:href="class_raven_g_u_i.html#a992e4d8e9a7a80cd6e8d4b6fb272ffd2" target="_top" xlink:title="Create system tray menu (or setup the dock menu) ">
<polygon fill="#ffffff" stroke="#000000" points="456,-33 456,-52 614,-52 614,-33 456,-33"/>
<text text-anchor="middle" x="535" y="-40" font-family="Helvetica,sans-Serif" font-size="10.00" fill="#000000">RavenGUI::createTrayIconMenu</text>
</a>
</g>
</g>
<!-- Node29&#45;&gt;Node31 -->
<g id="edge4" class="edge">
<title>Node29&#45;&gt;Node31</title>
<path fill="none" stroke="#191970" d="M430.358,-54.161C438.7062,-53.2307 447.3164,-52.2712 455.8449,-51.3208"/>
<polygon fill="#191970" stroke="#191970" points="429.8789,-50.6926 420.3281,-55.2787 430.6542,-57.6496 429.8789,-50.6926"/>
</g>
<!-- Node32 -->
<g id="node6" class="node">
<title>Node32</title>
<g id="a_node6"><a xlink:href="class_raven_g_u_i.html#a174a3e75c334c5930d3261a2955c3725" target="_top" xlink:title="Set the client model. ">
<polygon fill="#ffffff" stroke="#000000" points="650,-33 650,-52 784,-52 784,-33 650,-33"/>
<text text-anchor="middle" x="717" y="-40" font-family="Helvetica,sans-Serif" font-size="10.00" fill="#000000">RavenGUI::setClientModel</text>
</a>
</g>
</g>
<!-- Node31&#45;&gt;Node32 -->
<g id="edge5" class="edge">
<title>Node31&#45;&gt;Node32</title>
<path fill="none" stroke="#191970" d="M624.118,-42.5C632.7327,-42.5 641.37,-42.5 649.7208,-42.5"/>
<polygon fill="#191970" stroke="#191970" points="624.0339,-39.0001 614.0338,-42.5 624.0338,-46.0001 624.0339,-39.0001"/>
</g>
<!-- Node33 -->
<g id="node7" class="node">
<title>Node33</title>
<g id="a_node7"><a xlink:href="class_raven_application.html#a60123f611cc210870fa67974cb2c804c" target="_top" xlink:title="Request core shutdown. ">
<polygon fill="#ffffff" stroke="#000000" points="1175,-49.5 1175,-79.5 1306,-79.5 1306,-49.5 1175,-49.5"/>
<text text-anchor="start" x="1183" y="-67.5" font-family="Helvetica,sans-Serif" font-size="10.00" fill="#000000">RavenApplication::request</text>
<text text-anchor="middle" x="1240.5" y="-56.5" font-family="Helvetica,sans-Serif" font-size="10.00" fill="#000000">Shutdown</text>
</a>
</g>
</g>
<!-- Node32&#45;&gt;Node33 -->
<g id="edge6" class="edge">
<title>Node32&#45;&gt;Node33</title>
<path fill="none" stroke="#191970" d="M794.1333,-45.7415C897.2203,-50.0737 1078.1346,-57.6766 1174.9629,-61.7458"/>
<polygon fill="#191970" stroke="#191970" points="794.238,-42.2429 784.0999,-45.3199 793.944,-49.2367 794.238,-42.2429"/>
</g>
<!-- Node34 -->
<g id="node8" class="node">
<title>Node34</title>
<g id="a_node8"><a xlink:href="class_raven_application.html#a1a3dcf33ba44507984b2a04e7ebf1542" target="_top" xlink:title="RavenApplication::initialize\lResult">
<polygon fill="#ffffff" stroke="#000000" points="820,-5.5 820,-35.5 954,-35.5 954,-5.5 820,-5.5"/>
<text text-anchor="start" x="828" y="-23.5" font-family="Helvetica,sans-Serif" font-size="10.00" fill="#000000">RavenApplication::initialize</text>
<text text-anchor="middle" x="887" y="-12.5" font-family="Helvetica,sans-Serif" font-size="10.00" fill="#000000">Result</text>
</a>
</g>
</g>
<!-- Node32&#45;&gt;Node34 -->
<g id="edge7" class="edge">
<title>Node32&#45;&gt;Node34</title>
<path fill="none" stroke="#191970" d="M794.146,-32.5164C802.6879,-31.411 811.3366,-30.2917 819.7428,-29.2039"/>
<polygon fill="#191970" stroke="#191970" points="793.6566,-29.0505 784.1885,-33.805 794.555,-35.9926 793.6566,-29.0505"/>
</g>
<!-- Node35 -->
<g id="node9" class="node">
<title>Node35</title>
<g id="a_node9"><a xlink:href="class_raven_application.html#aecfdce3a245b959def5dd35e5cfb192e" target="_top" xlink:title="RavenApplication::startThread">
<polygon fill="#ffffff" stroke="#000000" points="990,-11 990,-30 1139,-30 1139,-11 990,-11"/>
<text text-anchor="middle" x="1064.5" y="-18" font-family="Helvetica,sans-Serif" font-size="10.00" fill="#000000">RavenApplication::startThread</text>
</a>
</g>
</g>
<!-- Node34&#45;&gt;Node35 -->
<g id="edge8" class="edge">
<title>Node34&#45;&gt;Node35</title>
<path fill="none" stroke="#191970" d="M964.3486,-20.5C972.821,-20.5 981.4344,-20.5 989.873,-20.5"/>
<polygon fill="#191970" stroke="#191970" points="964.1052,-17.0001 954.1051,-20.5 964.1051,-24.0001 964.1052,-17.0001"/>
</g>
<!-- Node35&#45;&gt;Node33 -->
<g id="edge10" class="edge">
<title>Node35&#45;&gt;Node33</title>
<path fill="none" stroke="#191970" d="M1112.6046,-32.5261C1133.4811,-37.7453 1158.1576,-43.9144 1180.2385,-49.4346"/>
<polygon fill="#191970" stroke="#191970" points="1113.2397,-29.0773 1102.6894,-30.0473 1111.5419,-35.8683 1113.2397,-29.0773"/>
</g>
<!-- Node36 -->
<g id="node10" class="node">
<title>Node36</title>
<g id="a_node10"><a xlink:href="class_raven_application.html#a63a2032fef875fb81f26c212f69d000d" target="_top" xlink:title="Request core initialization. ">
<polygon fill="#ffffff" stroke="#000000" points="1175,-.5 1175,-30.5 1306,-30.5 1306,-.5 1175,-.5"/>
<text text-anchor="start" x="1183" y="-18.5" font-family="Helvetica,sans-Serif" font-size="10.00" fill="#000000">RavenApplication::request</text>
<text text-anchor="middle" x="1240.5" y="-7.5" font-family="Helvetica,sans-Serif" font-size="10.00" fill="#000000">Initialize</text>
</a>
</g>
</g>
<!-- Node35&#45;&gt;Node36 -->
<g id="edge9" class="edge">
<title>Node35&#45;&gt;Node36</title>
<path fill="none" stroke="#191970" d="M1149.2384,-18.0927C1157.8743,-17.8473 1166.5522,-17.6008 1174.9387,-17.3625"/>
<polygon fill="#191970" stroke="#191970" points="1149.0364,-14.5969 1139.1398,-18.3795 1149.2352,-21.5941 1149.0364,-14.5969"/>
</g>
</g>
</svg>
