<?xml version="1.0" encoding="UTF-8" standalone="no"?>
<!DOCTYPE svg PUBLIC "-//W3C//DTD SVG 1.1//EN"
 "http://www.w3.org/Graphics/SVG/1.1/DTD/svg11.dtd">
<!-- Generated by graphviz version 2.40.1 (20161225.0304)
 -->
<!-- Title: src/consensus/merkle.cpp Pages: 1 -->
<svg width="1304pt" height="476pt"
 viewBox="0.00 0.00 1303.50 476.00" xmlns="http://www.w3.org/2000/svg" xmlns:xlink="http://www.w3.org/1999/xlink">
<g id="graph0" class="graph" transform="scale(1 1) rotate(0) translate(4 472)">
<title>src/consensus/merkle.cpp</title>
<polygon fill="#ffffff" stroke="transparent" points="-4,4 -4,-472 1299.5,-472 1299.5,4 -4,4"/>
<!-- Node0 -->
<g id="node1" class="node">
<title>Node0</title>
<polygon fill="#bfbfbf" stroke="#000000" points="38.5,-448.5 38.5,-467.5 169.5,-467.5 169.5,-448.5 38.5,-448.5"/>
<text text-anchor="middle" x="104" y="-455.5" font-family="Helvetica,sans-Serif" font-size="10.00" fill="#000000">src/consensus/merkle.cpp</text>
</g>
<!-- Node1 -->
<g id="node2" class="node">
<title>Node1</title>
<g id="a_node2"><a xlink:href="merkle_8h.html" target="_top" xlink:title="merkle.h">
<polygon fill="#ffffff" stroke="#000000" points="205,-392.5 205,-411.5 259,-411.5 259,-392.5 205,-392.5"/>
<text text-anchor="middle" x="232" y="-399.5" font-family="Helvetica,sans-Serif" font-size="10.00" fill="#000000">merkle.h</text>
</a>
</g>
</g>
<!-- Node0&#45;&gt;Node1 -->
<g id="edge1" class="edge">
<title>Node0&#45;&gt;Node1</title>
<path fill="none" stroke="#191970" d="M126.004,-448.3733C146.6435,-439.3435 177.7158,-425.7494 200.8889,-415.6111"/>
<polygon fill="#191970" stroke="#191970" points="202.5245,-418.7159 210.2831,-411.5011 199.7187,-412.3028 202.5245,-418.7159"/>
</g>
<!-- Node30 -->
<g id="node31" class="node">
<title>Node30</title>
<polygon fill="#ffffff" stroke="#bfbfbf" points="81,-392.5 81,-411.5 127,-411.5 127,-392.5 81,-392.5"/>
<text text-anchor="middle" x="104" y="-399.5" font-family="Helvetica,sans-Serif" font-size="10.00" fill="#000000">hash.h</text>
</g>
<!-- Node0&#45;&gt;Node30 -->
<g id="edge61" class="edge">
<title>Node0&#45;&gt;Node30</title>
<path fill="none" stroke="#191970" d="M104,-448.2455C104,-440.9382 104,-430.6944 104,-421.7046"/>
<polygon fill="#191970" stroke="#191970" points="107.5001,-421.6426 104,-411.6427 100.5001,-421.6427 107.5001,-421.6426"/>
</g>
<!-- Node31 -->
<g id="node32" class="node">
<title>Node31</title>
<g id="a_node32"><a xlink:href="utilstrencodings_8h.html" target="_top" xlink:title="utilstrencodings.h">
<polygon fill="#ffffff" stroke="#000000" points="66.5,-168.5 66.5,-187.5 159.5,-187.5 159.5,-168.5 66.5,-168.5"/>
<text text-anchor="middle" x="113" y="-175.5" font-family="Helvetica,sans-Serif" font-size="10.00" fill="#000000">utilstrencodings.h</text>
</a>
</g>
</g>
<!-- Node0&#45;&gt;Node31 -->
<g id="edge62" class="edge">
<title>Node0&#45;&gt;Node31</title>
<path fill="none" stroke="#191970" d="M93.396,-448.3425C74.7393,-430.2361 38,-389.1076 38,-346 38,-346 38,-346 38,-290 38,-250.4003 70.7701,-214.2155 92.9876,-194.2336"/>
<polygon fill="#191970" stroke="#191970" points="95.3467,-196.8206 100.6153,-187.6286 90.7644,-191.5288 95.3467,-196.8206"/>
</g>
<!-- Node2 -->
<g id="node3" class="node">
<title>Node2</title>
<polygon fill="#ffffff" stroke="#bfbfbf" points="396.5,-.5 396.5,-19.5 445.5,-19.5 445.5,-.5 396.5,-.5"/>
<text text-anchor="middle" x="421" y="-7.5" font-family="Helvetica,sans-Serif" font-size="10.00" fill="#000000">stdint.h</text>
</g>
<!-- Node1&#45;&gt;Node2 -->
<g id="edge2" class="edge">
<title>Node1&#45;&gt;Node2</title>
<path fill="none" stroke="#191970" d="M204.9326,-396.024C143.7336,-380.748 0,-334.2043 0,-234 0,-234 0,-234 0,-122 0,-42.287 285.4324,-17.9108 386.2474,-11.7871"/>
<polygon fill="#191970" stroke="#191970" points="386.4573,-15.2809 396.2363,-11.2039 386.0492,-8.2928 386.4573,-15.2809"/>
</g>
<!-- Node3 -->
<g id="node4" class="node">
<title>Node3</title>
<polygon fill="#ffffff" stroke="#bfbfbf" points="135,-112.5 135,-131.5 179,-131.5 179,-112.5 135,-112.5"/>
<text text-anchor="middle" x="157" y="-119.5" font-family="Helvetica,sans-Serif" font-size="10.00" fill="#000000">vector</text>
</g>
<!-- Node1&#45;&gt;Node3 -->
<g id="edge3" class="edge">
<title>Node1&#45;&gt;Node3</title>
<path fill="none" stroke="#191970" d="M225.3173,-392.3152C213.0085,-373.5029 188,-330.3199 188,-290 188,-290 188,-290 188,-234 188,-200.3636 174.8523,-163.0368 165.6816,-141.0922"/>
<polygon fill="#191970" stroke="#191970" points="168.7693,-139.4156 161.5742,-131.6387 162.3491,-142.2051 168.7693,-139.4156"/>
</g>
<!-- Node4 -->
<g id="node5" class="node">
<title>Node4</title>
<g id="a_node5"><a xlink:href="transaction_8h.html" target="_top" xlink:title="primitives/transaction.h">
<polygon fill="#ffffff" stroke="#000000" points="597,-280.5 597,-299.5 715,-299.5 715,-280.5 597,-280.5"/>
<text text-anchor="middle" x="656" y="-287.5" font-family="Helvetica,sans-Serif" font-size="10.00" fill="#000000">primitives/transaction.h</text>
</a>
</g>
</g>
<!-- Node1&#45;&gt;Node4 -->
<g id="edge4" class="edge">
<title>Node1&#45;&gt;Node4</title>
<path fill="none" stroke="#191970" d="M259.3186,-399.1908C307.5925,-393.7939 410.8315,-380.3032 495,-356 542.8701,-342.1778 595.8881,-318.7695 627.5493,-303.8652"/>
<polygon fill="#191970" stroke="#191970" points="629.1324,-306.9881 636.6603,-299.5328 626.1262,-300.6664 629.1324,-306.9881"/>
</g>
<!-- Node27 -->
<g id="node28" class="node">
<title>Node27</title>
<g id="a_node28"><a xlink:href="uint256_8h.html" target="_top" xlink:title="uint256.h">
<polygon fill="#ffffff" stroke="#000000" points="323,-224.5 323,-243.5 379,-243.5 379,-224.5 323,-224.5"/>
<text text-anchor="middle" x="351" y="-231.5" font-family="Helvetica,sans-Serif" font-size="10.00" fill="#000000">uint256.h</text>
</a>
</g>
</g>
<!-- Node1&#45;&gt;Node27 -->
<g id="edge60" class="edge">
<title>Node1&#45;&gt;Node27</title>
<path fill="none" stroke="#191970" d="M238.7389,-392.4862C257.8758,-365.4695 312.7921,-287.9405 338.0303,-252.3102"/>
<polygon fill="#191970" stroke="#191970" points="341.1145,-254.0112 344.0386,-243.8279 335.4023,-249.9651 341.1145,-254.0112"/>
</g>
<!-- Node29 -->
<g id="node30" class="node">
<title>Node29</title>
<g id="a_node30"><a xlink:href="block_8h.html" target="_top" xlink:title="primitives/block.h">
<polygon fill="#ffffff" stroke="#000000" points="393.5,-336.5 393.5,-355.5 486.5,-355.5 486.5,-336.5 393.5,-336.5"/>
<text text-anchor="middle" x="440" y="-343.5" font-family="Helvetica,sans-Serif" font-size="10.00" fill="#000000">primitives/block.h</text>
</a>
</g>
</g>
<!-- Node1&#45;&gt;Node29 -->
<g id="edge56" class="edge">
<title>Node1&#45;&gt;Node29</title>
<path fill="none" stroke="#191970" d="M259.1924,-394.679C293.5774,-385.4215 353.2716,-369.3499 394.6151,-358.219"/>
<polygon fill="#191970" stroke="#191970" points="395.6967,-361.5525 404.443,-355.573 393.8769,-354.7932 395.6967,-361.5525"/>
</g>
<!-- Node4&#45;&gt;Node2 -->
<g id="edge5" class="edge">
<title>Node4&#45;&gt;Node2</title>
<path fill="none" stroke="#191970" d="M715.0252,-284.2356C857.7733,-269.5024 1210,-228.0751 1210,-178 1210,-178 1210,-178 1210,-122 1210,-82.6547 1186.3917,-73.1894 1151,-56 1088.0938,-25.447 592.929,-13.4148 455.9886,-10.6522"/>
<polygon fill="#191970" stroke="#191970" points="455.7342,-7.1465 445.6669,-10.4479 455.5957,-14.1452 455.7342,-7.1465"/>
</g>
<!-- Node5 -->
<g id="node6" class="node">
<title>Node5</title>
<g id="a_node6"><a xlink:href="amount_8h.html" target="_top" xlink:title="amount.h">
<polygon fill="#ffffff" stroke="#000000" points="1238.5,-168.5 1238.5,-187.5 1295.5,-187.5 1295.5,-168.5 1238.5,-168.5"/>
<text text-anchor="middle" x="1267" y="-175.5" font-family="Helvetica,sans-Serif" font-size="10.00" fill="#000000">amount.h</text>
</a>
</g>
</g>
<!-- Node4&#45;&gt;Node5 -->
<g id="edge6" class="edge">
<title>Node4&#45;&gt;Node5</title>
<path fill="none" stroke="#191970" d="M715.173,-288.1441C851.835,-283.4416 1181.0462,-269.5778 1224,-244 1241.5665,-233.5396 1253.2805,-212.7881 1259.9867,-197.3326"/>
<polygon fill="#191970" stroke="#191970" points="1263.3867,-198.2555 1263.8398,-187.6703 1256.8846,-195.6626 1263.3867,-198.2555"/>
</g>
<!-- Node6 -->
<g id="node7" class="node">
<title>Node6</title>
<g id="a_node7"><a xlink:href="script_8h.html" target="_top" xlink:title="script/script.h">
<polygon fill="#ffffff" stroke="#000000" points="684,-224.5 684,-243.5 760,-243.5 760,-224.5 684,-224.5"/>
<text text-anchor="middle" x="722" y="-231.5" font-family="Helvetica,sans-Serif" font-size="10.00" fill="#000000">script/script.h</text>
</a>
</g>
</g>
<!-- Node4&#45;&gt;Node6 -->
<g id="edge8" class="edge">
<title>Node4&#45;&gt;Node6</title>
<path fill="none" stroke="#191970" d="M667.4963,-280.2455C677.2442,-271.9746 691.4259,-259.9416 702.8798,-250.2232"/>
<polygon fill="#191970" stroke="#191970" points="705.2747,-252.7813 710.6354,-243.6427 700.7459,-247.4437 705.2747,-252.7813"/>
</g>
<!-- Node16 -->
<g id="node17" class="node">
<title>Node16</title>
<g id="a_node17"><a xlink:href="serialize_8h.html" target="_top" xlink:title="serialize.h">
<polygon fill="#ffffff" stroke="#000000" points="658.5,-168.5 658.5,-187.5 719.5,-187.5 719.5,-168.5 658.5,-168.5"/>
<text text-anchor="middle" x="689" y="-175.5" font-family="Helvetica,sans-Serif" font-size="10.00" fill="#000000">serialize.h</text>
</a>
</g>
</g>
<!-- Node4&#45;&gt;Node16 -->
<g id="edge47" class="edge">
<title>Node4&#45;&gt;Node16</title>
<path fill="none" stroke="#191970" d="M658.7863,-280.1465C662.449,-267.2346 669.1096,-243.8935 675,-224 677.6037,-215.2065 680.5509,-205.489 683.0674,-197.2598"/>
<polygon fill="#191970" stroke="#191970" points="686.474,-198.089 686.0622,-187.5021 679.782,-196.0351 686.474,-198.089"/>
</g>
<!-- Node4&#45;&gt;Node27 -->
<g id="edge48" class="edge">
<title>Node4&#45;&gt;Node27</title>
<path fill="none" stroke="#191970" d="M603.9152,-280.4369C542.8569,-269.2262 443.1381,-250.9172 388.952,-240.9682"/>
<polygon fill="#191970" stroke="#191970" points="389.5328,-237.5164 379.0651,-239.1529 388.2686,-244.4014 389.5328,-237.5164"/>
</g>
<!-- Node5&#45;&gt;Node2 -->
<g id="edge7" class="edge">
<title>Node5&#45;&gt;Node2</title>
<path fill="none" stroke="#191970" d="M1266.9312,-168.3512C1266.1828,-144.6543 1260.6213,-83.5276 1224,-56 1192.8657,-32.5968 605.8984,-15.0425 455.7465,-10.9221"/>
<polygon fill="#191970" stroke="#191970" points="455.7957,-7.4223 445.7041,-10.6488 455.6051,-14.4197 455.7957,-7.4223"/>
</g>
<!-- Node6&#45;&gt;Node2 -->
<g id="edge43" class="edge">
<title>Node6&#45;&gt;Node2</title>
<path fill="none" stroke="#191970" d="M760.3076,-231.9863C841.8561,-227.2496 1029.9136,-213.8069 1088,-188 1122.8472,-172.5179 1137.1102,-166.6632 1153,-132 1164.3625,-107.2129 1134.8574,-58.12 1132,-56 1104.5583,-35.6401 594.654,-16.1522 455.711,-11.2031"/>
<polygon fill="#191970" stroke="#191970" points="455.7397,-7.7021 445.6222,-10.8462 455.4921,-14.6977 455.7397,-7.7021"/>
</g>
<!-- Node6&#45;&gt;Node3 -->
<g id="edge46" class="edge">
<title>Node6&#45;&gt;Node3</title>
<path fill="none" stroke="#191970" d="M683.7327,-231.6402C631.363,-227.4554 535.0765,-216.3202 458,-188 441.544,-181.9536 440.5189,-173.8722 424,-168 327.0531,-133.5372 293.3118,-154.9726 189.1915,-131.9341"/>
<polygon fill="#191970" stroke="#191970" points="189.7603,-128.4737 179.2302,-129.6434 188.1914,-135.2956 189.7603,-128.4737"/>
</g>
<!-- Node6&#45;&gt;Node5 -->
<g id="edge38" class="edge">
<title>Node6&#45;&gt;Node5</title>
<path fill="none" stroke="#191970" d="M760.2269,-230.5236C839.6146,-223.2349 1028.1094,-205.5702 1186,-188 1199.6676,-186.4791 1214.6141,-184.674 1227.9054,-183.0189"/>
<polygon fill="#191970" stroke="#191970" points="1228.6679,-186.4508 1238.1539,-181.732 1227.7957,-179.5053 1228.6679,-186.4508"/>
</g>
<!-- Node7 -->
<g id="node8" class="node">
<title>Node7</title>
<g id="a_node8"><a xlink:href="common_8h.html" target="_top" xlink:title="crypto/common.h">
<polygon fill="#ffffff" stroke="#000000" points="510,-168.5 510,-187.5 602,-187.5 602,-168.5 510,-168.5"/>
<text text-anchor="middle" x="556" y="-175.5" font-family="Helvetica,sans-Serif" font-size="10.00" fill="#000000">crypto/common.h</text>
</a>
</g>
</g>
<!-- Node6&#45;&gt;Node7 -->
<g id="edge9" class="edge">
<title>Node6&#45;&gt;Node7</title>
<path fill="none" stroke="#191970" d="M693.4636,-224.3733C665.9798,-215.1016 624.2314,-201.0178 593.9548,-190.804"/>
<polygon fill="#191970" stroke="#191970" points="594.7582,-187.3813 584.164,-187.5011 592.5206,-194.0141 594.7582,-187.3813"/>
</g>
<!-- Node8 -->
<g id="node9" class="node">
<title>Node8</title>
<polygon fill="#ffffff" stroke="#bfbfbf" points="449.5,-56.5 449.5,-75.5 498.5,-75.5 498.5,-56.5 449.5,-56.5"/>
<text text-anchor="middle" x="474" y="-63.5" font-family="Helvetica,sans-Serif" font-size="10.00" fill="#000000">string.h</text>
</g>
<!-- Node6&#45;&gt;Node8 -->
<g id="edge44" class="edge">
<title>Node6&#45;&gt;Node8</title>
<path fill="none" stroke="#191970" d="M706.7494,-224.298C681.1134,-208.0976 630.2949,-176.4768 611,-168 560.0212,-145.6034 529.5904,-172.1401 491,-132 479.2375,-119.7651 475.3191,-100.5207 474.1475,-85.9627"/>
<polygon fill="#191970" stroke="#191970" points="477.6425,-85.7723 473.7024,-75.9374 470.6494,-86.0828 477.6425,-85.7723"/>
</g>
<!-- Node11 -->
<g id="node12" class="node">
<title>Node11</title>
<g id="a_node12"><a xlink:href="prevector_8h.html" target="_top" xlink:title="prevector.h">
<polygon fill="#ffffff" stroke="#000000" points="1078.5,-112.5 1078.5,-131.5 1143.5,-131.5 1143.5,-112.5 1078.5,-112.5"/>
<text text-anchor="middle" x="1111" y="-119.5" font-family="Helvetica,sans-Serif" font-size="10.00" fill="#000000">prevector.h</text>
</a>
</g>
</g>
<!-- Node6&#45;&gt;Node11 -->
<g id="edge16" class="edge">
<title>Node6&#45;&gt;Node11</title>
<path fill="none" stroke="#191970" d="M760.0722,-232.6537C838.1848,-229.2911 1013.4721,-218.4834 1064,-188 1082.1798,-177.0321 1095.2605,-156.0541 1102.9352,-140.6827"/>
<polygon fill="#191970" stroke="#191970" points="1106.1387,-142.0945 1107.1971,-131.5526 1099.7957,-139.1335 1106.1387,-142.0945"/>
</g>
<!-- Node12 -->
<g id="node13" class="node">
<title>Node12</title>
<polygon fill="#ffffff" stroke="#bfbfbf" points="842,-56.5 842,-75.5 894,-75.5 894,-56.5 842,-56.5"/>
<text text-anchor="middle" x="868" y="-63.5" font-family="Helvetica,sans-Serif" font-size="10.00" fill="#000000">assert.h</text>
</g>
<!-- Node6&#45;&gt;Node12 -->
<g id="edge39" class="edge">
<title>Node6&#45;&gt;Node12</title>
<path fill="none" stroke="#191970" d="M760.1499,-230.9165C823.9578,-225.1792 948.983,-211.2867 986,-188 1011.8893,-171.7135 1016.6658,-161.127 1026,-132 1028.7127,-123.5352 1031.3351,-119.1098 1026,-112 1025.527,-111.3696 950.5627,-89.7314 904.0753,-76.3606"/>
<polygon fill="#191970" stroke="#191970" points="904.9207,-72.9619 894.3429,-73.5624 902.9864,-79.6894 904.9207,-72.9619"/>
</g>
<!-- Node6&#45;&gt;Node16 -->
<g id="edge23" class="edge">
<title>Node6&#45;&gt;Node16</title>
<path fill="none" stroke="#191970" d="M716.2518,-224.2455C711.7565,-216.617 705.3752,-205.7881 699.9175,-196.5267"/>
<polygon fill="#191970" stroke="#191970" points="702.7747,-194.4811 694.6823,-187.6427 696.7439,-198.035 702.7747,-194.4811"/>
</g>
<!-- Node19 -->
<g id="node20" class="node">
<title>Node19</title>
<polygon fill="#ffffff" stroke="#bfbfbf" points="944,-112.5 944,-131.5 984,-131.5 984,-112.5 944,-112.5"/>
<text text-anchor="middle" x="964" y="-119.5" font-family="Helvetica,sans-Serif" font-size="10.00" fill="#000000">limits</text>
</g>
<!-- Node6&#45;&gt;Node19 -->
<g id="edge41" class="edge">
<title>Node6&#45;&gt;Node19</title>
<path fill="none" stroke="#191970" d="M760.2269,-232.6251C822.8333,-229.481 942.8999,-219.4097 969,-188 979.6374,-175.1986 976.637,-155.7549 972.0259,-141.2833"/>
<polygon fill="#191970" stroke="#191970" points="975.2764,-139.981 968.5556,-131.7906 968.7019,-142.3844 975.2764,-139.981"/>
</g>
<!-- Node23 -->
<g id="node24" class="node">
<title>Node23</title>
<polygon fill="#ffffff" stroke="#bfbfbf" points="197.5,-112.5 197.5,-131.5 238.5,-131.5 238.5,-112.5 197.5,-112.5"/>
<text text-anchor="middle" x="218" y="-119.5" font-family="Helvetica,sans-Serif" font-size="10.00" fill="#000000">string</text>
</g>
<!-- Node6&#45;&gt;Node23 -->
<g id="edge45" class="edge">
<title>Node6&#45;&gt;Node23</title>
<path fill="none" stroke="#191970" d="M683.7636,-228.7785C639.1397,-222.0616 563.4916,-208.7288 501,-188 480.9947,-181.3641 478.107,-174.3212 458,-168 369.7528,-140.257 343.1515,-152.7349 253,-132 251.5373,-131.6636 250.0448,-131.3035 248.5405,-130.9271"/>
<polygon fill="#191970" stroke="#191970" points="249.1997,-127.4805 238.6353,-128.2826 247.394,-134.2437 249.1997,-127.4805"/>
</g>
<!-- Node25 -->
<g id="node26" class="node">
<title>Node25</title>
<polygon fill="#ffffff" stroke="#bfbfbf" points="914.5,-168.5 914.5,-187.5 959.5,-187.5 959.5,-168.5 914.5,-168.5"/>
<text text-anchor="middle" x="937" y="-175.5" font-family="Helvetica,sans-Serif" font-size="10.00" fill="#000000">climits</text>
</g>
<!-- Node6&#45;&gt;Node25 -->
<g id="edge40" class="edge">
<title>Node6&#45;&gt;Node25</title>
<path fill="none" stroke="#191970" d="M759.5354,-224.4284C795.5808,-215.2063 851.5528,-200.8065 900,-188 901.4475,-187.6174 902.9263,-187.2248 904.4198,-186.8269"/>
<polygon fill="#191970" stroke="#191970" points="905.5601,-190.1448 914.3124,-184.1743 903.7471,-183.3837 905.5601,-190.1448"/>
</g>
<!-- Node26 -->
<g id="node27" class="node">
<title>Node26</title>
<polygon fill="#ffffff" stroke="#bfbfbf" points="356.5,-168.5 356.5,-187.5 415.5,-187.5 415.5,-168.5 356.5,-168.5"/>
<text text-anchor="middle" x="386" y="-175.5" font-family="Helvetica,sans-Serif" font-size="10.00" fill="#000000">stdexcept</text>
</g>
<!-- Node6&#45;&gt;Node26 -->
<g id="edge42" class="edge">
<title>Node6&#45;&gt;Node26</title>
<path fill="none" stroke="#191970" d="M683.5933,-228.7892C627.6255,-221.0058 520.4634,-205.3851 430,-188 428.5576,-187.7228 427.0904,-187.4326 425.6099,-187.1327"/>
<polygon fill="#191970" stroke="#191970" points="426.2729,-183.6956 415.765,-185.0496 424.8238,-190.5439 426.2729,-183.6956"/>
</g>
<!-- Node7&#45;&gt;Node2 -->
<g id="edge10" class="edge">
<title>Node7&#45;&gt;Node2</title>
<path fill="none" stroke="#191970" d="M509.9778,-170.525C433.3807,-158.0343 287.8818,-134.0747 286,-132 263.2757,-106.946 262.1928,-83.4185 282,-56 294.3813,-38.8609 349.3697,-24.5717 386.3609,-16.6661"/>
<polygon fill="#191970" stroke="#191970" points="387.1875,-20.0692 396.2667,-14.6086 385.7639,-13.2155 387.1875,-20.0692"/>
</g>
<!-- Node7&#45;&gt;Node8 -->
<g id="edge11" class="edge">
<title>Node7&#45;&gt;Node8</title>
<path fill="none" stroke="#191970" d="M518.3629,-168.4397C487.2157,-159.6768 446.581,-145.9756 437,-132 425.9699,-115.9108 440.1866,-96.2792 454.0714,-82.6288"/>
<polygon fill="#191970" stroke="#191970" points="456.5935,-85.0645 461.5886,-75.7211 451.8571,-79.9102 456.5935,-85.0645"/>
</g>
<!-- Node9 -->
<g id="node10" class="node">
<title>Node9</title>
<g id="a_node10"><a xlink:href="endian_8h.html" target="_top" xlink:title="compat/endian.h">
<polygon fill="#ffffff" stroke="#000000" points="295.5,-112.5 295.5,-131.5 384.5,-131.5 384.5,-112.5 295.5,-112.5"/>
<text text-anchor="middle" x="340" y="-119.5" font-family="Helvetica,sans-Serif" font-size="10.00" fill="#000000">compat/endian.h</text>
</a>
</g>
</g>
<!-- Node7&#45;&gt;Node9 -->
<g id="edge12" class="edge">
<title>Node7&#45;&gt;Node9</title>
<path fill="none" stroke="#191970" d="M518.8683,-168.3733C482.1733,-158.8598 425.9361,-144.2797 386.3349,-134.0127"/>
<polygon fill="#191970" stroke="#191970" points="387.2056,-130.6228 376.6472,-131.5011 385.4488,-137.3988 387.2056,-130.6228"/>
</g>
<!-- Node9&#45;&gt;Node2 -->
<g id="edge15" class="edge">
<title>Node9&#45;&gt;Node2</title>
<path fill="none" stroke="#191970" d="M358.9018,-112.3967C372.7584,-104.4315 391.0007,-91.8593 402,-76 411.5443,-62.2386 416.3349,-43.7107 418.7151,-29.7889"/>
<polygon fill="#191970" stroke="#191970" points="422.1938,-30.1866 420.152,-19.7904 415.265,-29.1908 422.1938,-30.1866"/>
</g>
<!-- Node10 -->
<g id="node11" class="node">
<title>Node10</title>
<g id="a_node11"><a xlink:href="byteswap_8h.html" target="_top" xlink:title="compat/byteswap.h">
<polygon fill="#ffffff" stroke="#000000" points="291,-56.5 291,-75.5 393,-75.5 393,-56.5 291,-56.5"/>
<text text-anchor="middle" x="342" y="-63.5" font-family="Helvetica,sans-Serif" font-size="10.00" fill="#000000">compat/byteswap.h</text>
</a>
</g>
</g>
<!-- Node9&#45;&gt;Node10 -->
<g id="edge13" class="edge">
<title>Node9&#45;&gt;Node10</title>
<path fill="none" stroke="#191970" d="M340.3484,-112.2455C340.6093,-104.9382 340.9752,-94.6944 341.2963,-85.7046"/>
<polygon fill="#191970" stroke="#191970" points="344.7964,-85.7613 341.6556,-75.6427 337.8008,-85.5113 344.7964,-85.7613"/>
</g>
<!-- Node10&#45;&gt;Node2 -->
<g id="edge14" class="edge">
<title>Node10&#45;&gt;Node2</title>
<path fill="none" stroke="#191970" d="M355.7607,-56.2455C367.6552,-47.814 385.065,-35.4729 398.9085,-25.6598"/>
<polygon fill="#191970" stroke="#191970" points="401.2628,-28.2811 407.3969,-19.6427 397.2146,-22.5704 401.2628,-28.2811"/>
</g>
<!-- Node11&#45;&gt;Node2 -->
<g id="edge19" class="edge">
<title>Node11&#45;&gt;Node2</title>
<path fill="none" stroke="#191970" d="M1115.3881,-112.4676C1121.2318,-98.1772 1129.2763,-71.2539 1115,-56 1092.2548,-31.6973 593.6978,-15.1297 455.9712,-11.005"/>
<polygon fill="#191970" stroke="#191970" points="455.6916,-7.4953 445.5923,-10.6974 455.4841,-14.4922 455.6916,-7.4953"/>
</g>
<!-- Node11&#45;&gt;Node8 -->
<g id="edge20" class="edge">
<title>Node11&#45;&gt;Node8</title>
<path fill="none" stroke="#191970" d="M1078.0935,-119.1071C969.1296,-109.5279 620.6634,-78.8935 508.8725,-69.0657"/>
<polygon fill="#191970" stroke="#191970" points="509.0769,-65.5703 498.8088,-68.181 508.4639,-72.5434 509.0769,-65.5703"/>
</g>
<!-- Node11&#45;&gt;Node12 -->
<g id="edge17" class="edge">
<title>Node11&#45;&gt;Node12</title>
<path fill="none" stroke="#191970" d="M1078.3166,-115.0255C1032.1015,-105.1233 949.0557,-87.1736 904.1029,-76.15"/>
<polygon fill="#191970" stroke="#191970" points="904.8772,-72.7359 894.327,-73.707 903.1801,-79.5271 904.8772,-72.7359"/>
</g>
<!-- Node13 -->
<g id="node14" class="node">
<title>Node13</title>
<polygon fill="#ffffff" stroke="#bfbfbf" points="992,-56.5 992,-75.5 1040,-75.5 1040,-56.5 992,-56.5"/>
<text text-anchor="middle" x="1016" y="-63.5" font-family="Helvetica,sans-Serif" font-size="10.00" fill="#000000">stdlib.h</text>
</g>
<!-- Node11&#45;&gt;Node13 -->
<g id="edge18" class="edge">
<title>Node11&#45;&gt;Node13</title>
<path fill="none" stroke="#191970" d="M1094.4523,-112.2455C1079.7401,-103.5731 1058.0112,-90.7645 1041.1495,-80.825"/>
<polygon fill="#191970" stroke="#191970" points="1042.7502,-77.7057 1032.3581,-75.6427 1039.1954,-83.736 1042.7502,-77.7057"/>
</g>
<!-- Node14 -->
<g id="node15" class="node">
<title>Node14</title>
<polygon fill="#ffffff" stroke="#bfbfbf" points="1058.5,-56.5 1058.5,-75.5 1105.5,-75.5 1105.5,-56.5 1058.5,-56.5"/>
<text text-anchor="middle" x="1082" y="-63.5" font-family="Helvetica,sans-Serif" font-size="10.00" fill="#000000">iterator</text>
</g>
<!-- Node11&#45;&gt;Node14 -->
<g id="edge21" class="edge">
<title>Node11&#45;&gt;Node14</title>
<path fill="none" stroke="#191970" d="M1105.9486,-112.2455C1101.9981,-104.617 1096.3903,-93.7881 1091.5942,-84.5267"/>
<polygon fill="#191970" stroke="#191970" points="1094.7001,-82.9131 1086.9935,-75.6427 1088.4841,-86.1321 1094.7001,-82.9131"/>
</g>
<!-- Node15 -->
<g id="node16" class="node">
<title>Node15</title>
<polygon fill="#ffffff" stroke="#bfbfbf" points="912,-56.5 912,-75.5 974,-75.5 974,-56.5 912,-56.5"/>
<text text-anchor="middle" x="943" y="-63.5" font-family="Helvetica,sans-Serif" font-size="10.00" fill="#000000">type_traits</text>
</g>
<!-- Node11&#45;&gt;Node15 -->
<g id="edge22" class="edge">
<title>Node11&#45;&gt;Node15</title>
<path fill="none" stroke="#191970" d="M1082.1198,-112.3733C1054.1839,-103.0613 1011.6858,-88.8953 981.0131,-78.671"/>
<polygon fill="#191970" stroke="#191970" points="982.097,-75.3431 971.5034,-75.5011 979.8834,-81.9839 982.097,-75.3431"/>
</g>
<!-- Node16&#45;&gt;Node2 -->
<g id="edge32" class="edge">
<title>Node16&#45;&gt;Node2</title>
<path fill="none" stroke="#191970" d="M658.4373,-171.081C621.7723,-162.2914 563.0968,-146.5163 546,-132 517.0592,-107.4274 533.6159,-83.0735 507,-56 492.6118,-41.3644 472.5688,-30.2757 455.4516,-22.6562"/>
<polygon fill="#191970" stroke="#191970" points="456.35,-19.2363 445.7762,-18.5702 453.6268,-25.6849 456.35,-19.2363"/>
</g>
<!-- Node16&#45;&gt;Node3 -->
<g id="edge36" class="edge">
<title>Node16&#45;&gt;Node3</title>
<path fill="none" stroke="#191970" d="M658.2871,-173.7556C643.9377,-171.8513 626.6119,-169.6643 611,-168 426.5898,-148.3406 374.7387,-168.4896 189.0015,-131.7915"/>
<polygon fill="#191970" stroke="#191970" points="189.6833,-128.3587 179.1905,-129.8253 188.3077,-135.2222 189.6833,-128.3587"/>
</g>
<!-- Node16&#45;&gt;Node8 -->
<g id="edge34" class="edge">
<title>Node16&#45;&gt;Node8</title>
<path fill="none" stroke="#191970" d="M658.4273,-170.6502C609.6006,-158.8215 518.8774,-136.4344 513,-132 497.4401,-120.2602 486.9194,-100.3523 480.7647,-85.4641"/>
<polygon fill="#191970" stroke="#191970" points="483.8755,-83.7981 477.0451,-75.699 477.334,-86.2899 483.8755,-83.7981"/>
</g>
<!-- Node16&#45;&gt;Node9 -->
<g id="edge24" class="edge">
<title>Node16&#45;&gt;Node9</title>
<path fill="none" stroke="#191970" d="M658.3345,-173.0795C599.2382,-163.597 468.8708,-142.6784 394.6025,-130.7614"/>
<polygon fill="#191970" stroke="#191970" points="394.9367,-127.2704 384.5084,-129.1418 393.8276,-134.182 394.9367,-127.2704"/>
</g>
<!-- Node16&#45;&gt;Node11 -->
<g id="edge37" class="edge">
<title>Node16&#45;&gt;Node11</title>
<path fill="none" stroke="#191970" d="M719.6891,-173.9275C793.8838,-164.0818 983.1297,-138.9686 1068.3107,-127.6649"/>
<polygon fill="#191970" stroke="#191970" points="1068.9575,-131.1099 1078.4101,-126.3247 1068.0366,-124.1707 1068.9575,-131.1099"/>
</g>
<!-- Node16&#45;&gt;Node12 -->
<g id="edge26" class="edge">
<title>Node16&#45;&gt;Node12</title>
<path fill="none" stroke="#191970" d="M719.7877,-175.7965C772.1734,-171.3369 875.1172,-159.251 897,-132 908.6603,-117.4793 896.9685,-97.5413 885.1315,-83.3891"/>
<polygon fill="#191970" stroke="#191970" points="887.6081,-80.9086 878.3208,-75.8098 882.4014,-85.5873 887.6081,-80.9086"/>
</g>
<!-- Node17 -->
<g id="node18" class="node">
<title>Node17</title>
<polygon fill="#ffffff" stroke="#bfbfbf" points="555,-112.5 555,-131.5 611,-131.5 611,-112.5 555,-112.5"/>
<text text-anchor="middle" x="583" y="-119.5" font-family="Helvetica,sans-Serif" font-size="10.00" fill="#000000">algorithm</text>
</g>
<!-- Node16&#45;&gt;Node17 -->
<g id="edge25" class="edge">
<title>Node16&#45;&gt;Node17</title>
<path fill="none" stroke="#191970" d="M670.5362,-168.2455C653.8926,-159.4527 629.2007,-146.4079 610.2808,-136.4125"/>
<polygon fill="#191970" stroke="#191970" points="611.7291,-133.2193 601.2522,-131.6427 608.4592,-139.4086 611.7291,-133.2193"/>
</g>
<!-- Node18 -->
<g id="node19" class="node">
<title>Node18</title>
<polygon fill="#ffffff" stroke="#bfbfbf" points="629.5,-112.5 629.5,-131.5 658.5,-131.5 658.5,-112.5 629.5,-112.5"/>
<text text-anchor="middle" x="644" y="-119.5" font-family="Helvetica,sans-Serif" font-size="10.00" fill="#000000">ios</text>
</g>
<!-- Node16&#45;&gt;Node18 -->
<g id="edge27" class="edge">
<title>Node16&#45;&gt;Node18</title>
<path fill="none" stroke="#191970" d="M681.1616,-168.2455C674.838,-160.3761 665.7776,-149.101 658.1864,-139.6542"/>
<polygon fill="#191970" stroke="#191970" points="660.7408,-137.2454 651.7486,-131.6427 655.2842,-141.6302 660.7408,-137.2454"/>
</g>
<!-- Node16&#45;&gt;Node19 -->
<g id="edge28" class="edge">
<title>Node16&#45;&gt;Node19</title>
<path fill="none" stroke="#191970" d="M719.6397,-173.1361C765.6173,-165.6159 855.063,-150.1262 930,-132 931.2783,-131.6908 932.5802,-131.3635 933.8927,-131.0233"/>
<polygon fill="#191970" stroke="#191970" points="935.2423,-134.2819 943.9515,-128.2487 933.3808,-127.5339 935.2423,-134.2819"/>
</g>
<!-- Node20 -->
<g id="node21" class="node">
<title>Node20</title>
<polygon fill="#ffffff" stroke="#bfbfbf" points="676.5,-112.5 676.5,-131.5 711.5,-131.5 711.5,-112.5 676.5,-112.5"/>
<text text-anchor="middle" x="694" y="-119.5" font-family="Helvetica,sans-Serif" font-size="10.00" fill="#000000">map</text>
</g>
<!-- Node16&#45;&gt;Node20 -->
<g id="edge29" class="edge">
<title>Node16&#45;&gt;Node20</title>
<path fill="none" stroke="#191970" d="M689.8709,-168.2455C690.5234,-160.9382 691.438,-150.6944 692.2407,-141.7046"/>
<polygon fill="#191970" stroke="#191970" points="695.7358,-141.9143 693.139,-131.6427 688.7635,-141.2918 695.7358,-141.9143"/>
</g>
<!-- Node21 -->
<g id="node22" class="node">
<title>Node21</title>
<polygon fill="#ffffff" stroke="#bfbfbf" points="730,-112.5 730,-131.5 782,-131.5 782,-112.5 730,-112.5"/>
<text text-anchor="middle" x="756" y="-119.5" font-family="Helvetica,sans-Serif" font-size="10.00" fill="#000000">memory</text>
</g>
<!-- Node16&#45;&gt;Node21 -->
<g id="edge30" class="edge">
<title>Node16&#45;&gt;Node21</title>
<path fill="none" stroke="#191970" d="M700.6705,-168.2455C710.5661,-159.9746 724.9627,-147.9416 736.5901,-138.2232"/>
<polygon fill="#191970" stroke="#191970" points="739.035,-140.7413 744.4632,-131.6427 734.5458,-135.3703 739.035,-140.7413"/>
</g>
<!-- Node22 -->
<g id="node23" class="node">
<title>Node22</title>
<polygon fill="#ffffff" stroke="#bfbfbf" points="800,-112.5 800,-131.5 830,-131.5 830,-112.5 800,-112.5"/>
<text text-anchor="middle" x="815" y="-119.5" font-family="Helvetica,sans-Serif" font-size="10.00" fill="#000000">set</text>
</g>
<!-- Node16&#45;&gt;Node22 -->
<g id="edge31" class="edge">
<title>Node16&#45;&gt;Node22</title>
<path fill="none" stroke="#191970" d="M710.6602,-168.3733C732.9473,-158.4679 767.5925,-143.07 790.7751,-132.7666"/>
<polygon fill="#191970" stroke="#191970" points="792.2227,-135.9534 799.9393,-128.6936 789.3797,-129.5567 792.2227,-135.9534"/>
</g>
<!-- Node16&#45;&gt;Node23 -->
<g id="edge33" class="edge">
<title>Node16&#45;&gt;Node23</title>
<path fill="none" stroke="#191970" d="M658.2667,-173.936C643.913,-172.0698 626.5895,-169.8626 611,-168 466.6984,-150.7591 430.1359,-150.5751 286,-132 273.7678,-130.4236 260.3282,-128.49 248.6502,-126.7446"/>
<polygon fill="#191970" stroke="#191970" points="248.9169,-123.2453 238.5059,-125.2103 247.87,-130.1665 248.9169,-123.2453"/>
</g>
<!-- Node24 -->
<g id="node25" class="node">
<title>Node24</title>
<polygon fill="#ffffff" stroke="#bfbfbf" points="848,-112.5 848,-131.5 888,-131.5 888,-112.5 848,-112.5"/>
<text text-anchor="middle" x="868" y="-119.5" font-family="Helvetica,sans-Serif" font-size="10.00" fill="#000000">utility</text>
</g>
<!-- Node16&#45;&gt;Node24 -->
<g id="edge35" class="edge">
<title>Node16&#45;&gt;Node24</title>
<path fill="none" stroke="#191970" d="M719.5495,-168.968C747.9708,-160.4913 791.7183,-147.2564 838.1237,-132.2162"/>
<polygon fill="#191970" stroke="#191970" points="839.3231,-135.5066 847.7485,-129.0829 837.1562,-128.8504 839.3231,-135.5066"/>
</g>
<!-- Node27&#45;&gt;Node2 -->
<g id="edge52" class="edge">
<title>Node27&#45;&gt;Node2</title>
<path fill="none" stroke="#191970" d="M322.9505,-231.6681C252.8213,-225.5554 74.2354,-208.1418 57,-188 51.2208,-181.2463 53.5984,-176.2123 57,-168 85.9279,-98.162 116.188,-87.2902 185,-56 252.122,-25.4783 338.9757,-15.1759 386.3743,-11.7216"/>
<polygon fill="#191970" stroke="#191970" points="386.6817,-15.209 396.4259,-11.0496 386.2147,-8.2246 386.6817,-15.209"/>
</g>
<!-- Node27&#45;&gt;Node3 -->
<g id="edge54" class="edge">
<title>Node27&#45;&gt;Node3</title>
<path fill="none" stroke="#191970" d="M330.1956,-224.4076C311.3217,-215.5158 282.8795,-201.64 259,-188 230.7615,-171.87 199.5383,-151.2287 179.169,-137.3612"/>
<polygon fill="#191970" stroke="#191970" points="181.1122,-134.4498 170.8841,-131.6863 177.1564,-140.225 181.1122,-134.4498"/>
</g>
<!-- Node27&#45;&gt;Node7 -->
<g id="edge55" class="edge">
<title>Node27&#45;&gt;Node7</title>
<path fill="none" stroke="#191970" d="M379.0745,-226.3309C413.1419,-217.0247 471.0074,-201.2175 511.2474,-190.2251"/>
<polygon fill="#191970" stroke="#191970" points="512.3488,-193.5526 521.073,-187.541 510.5041,-186.8 512.3488,-193.5526"/>
</g>
<!-- Node27&#45;&gt;Node12 -->
<g id="edge49" class="edge">
<title>Node27&#45;&gt;Node12</title>
<path fill="none" stroke="#191970" d="M379.0738,-231.723C497.6875,-221.8175 953.4834,-180.7781 993,-132 998.5954,-125.0932 998.0855,-119.2904 993,-112 987.6417,-104.3185 939.004,-87.9368 904.011,-76.943"/>
<polygon fill="#191970" stroke="#191970" points="904.6903,-73.4889 894.1019,-73.8584 902.6097,-80.1725 904.6903,-73.4889"/>
</g>
<!-- Node27&#45;&gt;Node23 -->
<g id="edge53" class="edge">
<title>Node27&#45;&gt;Node23</title>
<path fill="none" stroke="#191970" d="M334.9758,-224.4256C320.7793,-215.6534 299.7645,-201.9465 283,-188 264.7756,-172.839 245.9877,-153.2551 233.3276,-139.3685"/>
<polygon fill="#191970" stroke="#191970" points="235.5854,-136.6448 226.2966,-131.5488 230.3801,-141.3251 235.5854,-136.6448"/>
</g>
<!-- Node27&#45;&gt;Node26 -->
<g id="edge51" class="edge">
<title>Node27&#45;&gt;Node26</title>
<path fill="none" stroke="#191970" d="M357.0965,-224.2455C361.9145,-216.5367 368.7751,-205.5598 374.6032,-196.2348"/>
<polygon fill="#191970" stroke="#191970" points="377.6413,-197.9777 379.9733,-187.6427 371.7053,-194.2677 377.6413,-197.9777"/>
</g>
<!-- Node28 -->
<g id="node29" class="node">
<title>Node28</title>
<polygon fill="#ffffff" stroke="#bfbfbf" points="292,-168.5 292,-187.5 338,-187.5 338,-168.5 292,-168.5"/>
<text text-anchor="middle" x="315" y="-175.5" font-family="Helvetica,sans-Serif" font-size="10.00" fill="#000000">cstring</text>
</g>
<!-- Node27&#45;&gt;Node28 -->
<g id="edge50" class="edge">
<title>Node27&#45;&gt;Node28</title>
<path fill="none" stroke="#191970" d="M344.7293,-224.2455C339.7736,-216.5367 332.717,-205.5598 326.7224,-196.2348"/>
<polygon fill="#191970" stroke="#191970" points="329.5506,-194.1618 321.1989,-187.6427 323.6624,-197.9471 329.5506,-194.1618"/>
</g>
<!-- Node29&#45;&gt;Node4 -->
<g id="edge57" class="edge">
<title>Node29&#45;&gt;Node4</title>
<path fill="none" stroke="#191970" d="M477.1317,-336.3733C513.8267,-326.8598 570.0639,-312.2797 609.6651,-302.0127"/>
<polygon fill="#191970" stroke="#191970" points="610.5512,-305.3988 619.3528,-299.5011 608.7944,-298.6228 610.5512,-305.3988"/>
</g>
<!-- Node29&#45;&gt;Node16 -->
<g id="edge58" class="edge">
<title>Node29&#45;&gt;Node16</title>
<path fill="none" stroke="#191970" d="M454.1008,-336.4862C495.3481,-308.6567 616.0339,-227.2301 666.4554,-193.2108"/>
<polygon fill="#191970" stroke="#191970" points="668.4132,-196.1121 674.7453,-187.6177 664.498,-190.3093 668.4132,-196.1121"/>
</g>
<!-- Node29&#45;&gt;Node27 -->
<g id="edge59" class="edge">
<title>Node29&#45;&gt;Node27</title>
<path fill="none" stroke="#191970" d="M432.4119,-336.4509C417.4364,-317.6054 383.8862,-275.3849 364.8601,-251.4419"/>
<polygon fill="#191970" stroke="#191970" points="367.5305,-249.1765 358.5689,-243.5249 362.0501,-253.5315 367.5305,-249.1765"/>
</g>
<!-- Node31&#45;&gt;Node2 -->
<g id="edge63" class="edge">
<title>Node31&#45;&gt;Node2</title>
<path fill="none" stroke="#191970" d="M112.1984,-168.2727C111.5818,-154.2172 112.5412,-128.1479 126,-112 160.0736,-71.1184 315.5211,-32.9247 386.035,-17.3604"/>
<polygon fill="#191970" stroke="#191970" points="387.1703,-20.6952 396.195,-15.1451 385.6789,-13.8559 387.1703,-20.6952"/>
</g>
<!-- Node31&#45;&gt;Node3 -->
<g id="edge65" class="edge">
<title>Node31&#45;&gt;Node3</title>
<path fill="none" stroke="#191970" d="M120.6642,-168.2455C126.8473,-160.3761 135.7063,-149.101 143.1289,-139.6542"/>
<polygon fill="#191970" stroke="#191970" points="145.9975,-141.6683 149.4236,-131.6427 140.4932,-137.3435 145.9975,-141.6683"/>
</g>
<!-- Node31&#45;&gt;Node23 -->
<g id="edge64" class="edge">
<title>Node31&#45;&gt;Node23</title>
<path fill="none" stroke="#191970" d="M131.2896,-168.2455C147.7762,-159.4527 172.2352,-146.4079 190.9765,-136.4125"/>
<polygon fill="#191970" stroke="#191970" points="192.7435,-139.4368 199.92,-131.6427 189.4494,-133.2604 192.7435,-139.4368"/>
</g>
</g>
</svg>
