<?xml version="1.0" encoding="UTF-8" standalone="no"?>
<!DOCTYPE svg PUBLIC "-//W3C//DTD SVG 1.1//EN"
 "http://www.w3.org/Graphics/SVG/1.1/DTD/svg11.dtd">
<!-- Generated by graphviz version 2.40.1 (20161225.0304)
 -->
<!-- Title: src/consensus/merkle.h Pages: 1 -->
<svg width="470pt" height="84pt"
 viewBox="0.00 0.00 470.00 84.00" xmlns="http://www.w3.org/2000/svg" xmlns:xlink="http://www.w3.org/1999/xlink">
<g id="graph0" class="graph" transform="scale(1 1) rotate(0) translate(4 80)">
<title>src/consensus/merkle.h</title>
<polygon fill="#ffffff" stroke="transparent" points="-4,4 -4,-80 466,-80 466,4 -4,4"/>
<!-- Node29 -->
<g id="node1" class="node">
<title>Node29</title>
<polygon fill="#bfbfbf" stroke="#000000" points="191,-56.5 191,-75.5 312,-75.5 312,-56.5 191,-56.5"/>
<text text-anchor="middle" x="251.5" y="-63.5" font-family="Helvetica,sans-Serif" font-size="10.00" fill="#000000">src/consensus/merkle.h</text>
</g>
<!-- Node30 -->
<g id="node2" class="node">
<title>Node30</title>
<g id="a_node2"><a xlink:href="chainparams_8cpp.html" target="_top" xlink:title="src/chainparams.cpp">
<polygon fill="#ffffff" stroke="#000000" points="0,-.5 0,-19.5 107,-19.5 107,-.5 0,-.5"/>
<text text-anchor="middle" x="53.5" y="-7.5" font-family="Helvetica,sans-Serif" font-size="10.00" fill="#000000">src/chainparams.cpp</text>
</a>
</g>
</g>
<!-- Node29&#45;&gt;Node30 -->
<g id="edge1" class="edge">
<title>Node29&#45;&gt;Node30</title>
<path fill="none" stroke="#191970" d="M207.6155,-53.5882C171.2377,-43.2996 120.2879,-28.8895 87.0933,-19.5011"/>
<polygon fill="#191970" stroke="#191970" points="206.8875,-57.0195 217.4626,-56.3733 208.7926,-50.2838 206.8875,-57.0195"/>
</g>
<!-- Node31 -->
<g id="node3" class="node">
<title>Node31</title>
<g id="a_node3"><a xlink:href="merkle_8cpp.html" target="_top" xlink:title="src/consensus/merkle.cpp">
<polygon fill="#ffffff" stroke="#000000" points="125,-.5 125,-19.5 256,-19.5 256,-.5 125,-.5"/>
<text text-anchor="middle" x="190.5" y="-7.5" font-family="Helvetica,sans-Serif" font-size="10.00" fill="#000000">src/consensus/merkle.cpp</text>
</a>
</g>
</g>
<!-- Node29&#45;&gt;Node31 -->
<g id="edge2" class="edge">
<title>Node29&#45;&gt;Node31</title>
<path fill="none" stroke="#191970" d="M233.3751,-49.3607C222.822,-39.6727 209.8888,-27.7995 201.0036,-19.6427"/>
<polygon fill="#191970" stroke="#191970" points="231.1411,-52.0611 240.8746,-56.2455 235.875,-46.9045 231.1411,-52.0611"/>
</g>
<!-- Node32 -->
<g id="node4" class="node">
<title>Node32</title>
<g id="a_node4"><a xlink:href="miner_8cpp.html" target="_top" xlink:title="src/miner.cpp">
<polygon fill="#ffffff" stroke="#000000" points="274.5,-.5 274.5,-19.5 350.5,-19.5 350.5,-.5 274.5,-.5"/>
<text text-anchor="middle" x="312.5" y="-7.5" font-family="Helvetica,sans-Serif" font-size="10.00" fill="#000000">src/miner.cpp</text>
</a>
</g>
</g>
<!-- Node29&#45;&gt;Node32 -->
<g id="edge3" class="edge">
<title>Node29&#45;&gt;Node32</title>
<path fill="none" stroke="#191970" d="M269.6249,-49.3607C280.178,-39.6727 293.1112,-27.7995 301.9964,-19.6427"/>
<polygon fill="#191970" stroke="#191970" points="267.125,-46.9045 262.1254,-56.2455 271.8589,-52.0611 267.125,-46.9045"/>
</g>
<!-- Node33 -->
<g id="node5" class="node">
<title>Node33</title>
<g id="a_node5"><a xlink:href="validation_8cpp.html" target="_top" xlink:title="src/validation.cpp">
<polygon fill="#ffffff" stroke="#000000" points="369,-.5 369,-19.5 462,-19.5 462,-.5 369,-.5"/>
<text text-anchor="middle" x="415.5" y="-7.5" font-family="Helvetica,sans-Serif" font-size="10.00" fill="#000000">src/validation.cpp</text>
</a>
</g>
</g>
<!-- Node29&#45;&gt;Node33 -->
<g id="edge4" class="edge">
<title>Node29&#45;&gt;Node33</title>
<path fill="none" stroke="#191970" d="M289.4044,-53.057C319.4184,-42.8084 360.6507,-28.729 387.6753,-19.5011"/>
<polygon fill="#191970" stroke="#191970" points="288.0251,-49.8295 279.6926,-56.3733 290.2871,-56.454 288.0251,-49.8295"/>
</g>
</g>
</svg>
