<?xml version="1.0" encoding="UTF-8" standalone="no"?>
<!DOCTYPE svg PUBLIC "-//W3C//DTD SVG 1.1//EN"
 "http://www.w3.org/Graphics/SVG/1.1/DTD/svg11.dtd">
<!-- Generated by graphviz version 2.40.1 (20161225.0304)
 -->
<!-- Title: getspentinfo Pages: 1 -->
<svg width="1323pt" height="674pt"
 viewBox="0.00 0.00 1323.00 674.00" xmlns="http://www.w3.org/2000/svg" xmlns:xlink="http://www.w3.org/1999/xlink">
<g id="graph0" class="graph" transform="scale(1 1) rotate(0) translate(4 670)">
<title>getspentinfo</title>
<polygon fill="#ffffff" stroke="transparent" points="-4,4 -4,-670 1319,-670 1319,4 -4,4"/>
<!-- Node391 -->
<g id="node1" class="node">
<title>Node391</title>
<polygon fill="#bfbfbf" stroke="#000000" points="0,-247.5 0,-266.5 70,-266.5 70,-247.5 0,-247.5"/>
<text text-anchor="middle" x="35" y="-254.5" font-family="Helvetica,sans-Serif" font-size="10.00" fill="#000000">getspentinfo</text>
</g>
<!-- Node392 -->
<g id="node2" class="node">
<title>Node392</title>
<g id="a_node2"><a xlink:href="class_uni_value.html#a5a7394aeb8d5584db7a90c2c041726b1" target="_top" xlink:title="UniValue::size">
<polygon fill="#ffffff" stroke="#000000" points="113,-437.5 113,-456.5 193,-456.5 193,-437.5 113,-437.5"/>
<text text-anchor="middle" x="153" y="-444.5" font-family="Helvetica,sans-Serif" font-size="10.00" fill="#000000">UniValue::size</text>
</a>
</g>
</g>
<!-- Node391&#45;&gt;Node392 -->
<g id="edge1" class="edge">
<title>Node391&#45;&gt;Node392</title>
<path fill="none" stroke="#191970" d="M36.7784,-266.8908C42.2555,-294.7805 61.2773,-375.1299 106,-423 109.3423,-426.5776 113.3372,-429.7073 117.5666,-432.4203"/>
<polygon fill="#191970" stroke="#191970" points="116.0117,-435.5614 126.4434,-437.4137 119.4437,-429.4604 116.0117,-435.5614"/>
</g>
<!-- Node393 -->
<g id="node3" class="node">
<title>Node393</title>
<g id="a_node3"><a xlink:href="class_uni_value.html#af1a6df88c2bee59a863dd6f8d12e9be5" target="_top" xlink:title="UniValue::isObject">
<polygon fill="#ffffff" stroke="#000000" points="267.5,-399.5 267.5,-418.5 365.5,-418.5 365.5,-399.5 267.5,-399.5"/>
<text text-anchor="middle" x="316.5" y="-406.5" font-family="Helvetica,sans-Serif" font-size="10.00" fill="#000000">UniValue::isObject</text>
</a>
</g>
</g>
<!-- Node391&#45;&gt;Node393 -->
<g id="edge2" class="edge">
<title>Node391&#45;&gt;Node393</title>
<path fill="none" stroke="#191970" d="M37.1732,-266.7707C43.2117,-291.3901 62.6819,-356.0624 106,-385 150.2649,-414.5701 211.7578,-418.3765 256.8521,-416.0989"/>
<polygon fill="#191970" stroke="#191970" points="257.3113,-419.5772 267.0755,-415.4652 256.8781,-412.5907 257.3113,-419.5772"/>
</g>
<!-- Node394 -->
<g id="node4" class="node">
<title>Node394</title>
<g id="a_node4"><a xlink:href="class_uni_value.html#a944cd1b59b040cd24c9f46b55a68d49a" target="_top" xlink:title="UniValue::push_back">
<polygon fill="#ffffff" stroke="#000000" points="433,-361.5 433,-380.5 543,-380.5 543,-361.5 433,-361.5"/>
<text text-anchor="middle" x="488" y="-368.5" font-family="Helvetica,sans-Serif" font-size="10.00" fill="#000000">UniValue::push_back</text>
</a>
</g>
</g>
<!-- Node391&#45;&gt;Node394 -->
<g id="edge56" class="edge">
<title>Node391&#45;&gt;Node394</title>
<path fill="none" stroke="#191970" d="M43.1135,-266.7142C55.3057,-280.6652 79.7382,-306.2087 106,-320 207.0521,-373.0671 343.0549,-378.056 422.556,-375.4781"/>
<polygon fill="#191970" stroke="#191970" points="423.0529,-378.962 432.9143,-375.0888 422.7899,-371.967 423.0529,-378.962"/>
</g>
<!-- Node395 -->
<g id="node5" class="node">
<title>Node395</title>
<g id="a_node5"><a xlink:href="server_8cpp.html#a26bafe3d526ee8cbc84b3c0b0dc3a43b" target="_top" xlink:title="HelpExampleCli">
<polygon fill="#ffffff" stroke="#000000" points="109.5,-209.5 109.5,-228.5 196.5,-228.5 196.5,-209.5 109.5,-209.5"/>
<text text-anchor="middle" x="153" y="-216.5" font-family="Helvetica,sans-Serif" font-size="10.00" fill="#000000">HelpExampleCli</text>
</a>
</g>
</g>
<!-- Node391&#45;&gt;Node395 -->
<g id="edge4" class="edge">
<title>Node391&#45;&gt;Node395</title>
<path fill="none" stroke="#191970" d="M64.7764,-247.411C79.5898,-242.6406 97.6914,-236.8112 113.6342,-231.6771"/>
<polygon fill="#191970" stroke="#191970" points="114.7874,-234.9828 123.2331,-228.5859 112.6416,-228.3198 114.7874,-234.9828"/>
</g>
<!-- Node396 -->
<g id="node6" class="node">
<title>Node396</title>
<g id="a_node6"><a xlink:href="server_8cpp.html#a9ef4f8fb114508ceb861a0e8c3e0d26e" target="_top" xlink:title="HelpExampleRpc">
<polygon fill="#ffffff" stroke="#000000" points="106.5,-171.5 106.5,-190.5 199.5,-190.5 199.5,-171.5 106.5,-171.5"/>
<text text-anchor="middle" x="153" y="-178.5" font-family="Helvetica,sans-Serif" font-size="10.00" fill="#000000">HelpExampleRpc</text>
</a>
</g>
</g>
<!-- Node391&#45;&gt;Node396 -->
<g id="edge5" class="edge">
<title>Node391&#45;&gt;Node396</title>
<path fill="none" stroke="#191970" d="M44.884,-247.484C57.9998,-235.2449 82.2733,-213.9119 106,-200 109.2268,-198.108 112.6775,-196.3206 116.189,-194.6551"/>
<polygon fill="#191970" stroke="#191970" points="117.7758,-197.7806 125.5135,-190.5434 114.9514,-191.3757 117.7758,-197.7806"/>
</g>
<!-- Node397 -->
<g id="node7" class="node">
<title>Node397</title>
<g id="a_node7"><a xlink:href="univalue_8h.html#a33625d562f1ef5f44ceb171d5c8f2a85" target="_top" xlink:title="find_value">
<polygon fill="#ffffff" stroke="#000000" points="122.5,-133.5 122.5,-152.5 183.5,-152.5 183.5,-133.5 122.5,-133.5"/>
<text text-anchor="middle" x="153" y="-140.5" font-family="Helvetica,sans-Serif" font-size="10.00" fill="#000000">find_value</text>
</a>
</g>
</g>
<!-- Node391&#45;&gt;Node397 -->
<g id="edge6" class="edge">
<title>Node391&#45;&gt;Node397</title>
<path fill="none" stroke="#191970" d="M39.9088,-247.2729C49.9005,-228.367 74.3599,-186.3829 106,-162 108.2875,-160.2372 110.7607,-158.6141 113.3345,-157.124"/>
<polygon fill="#191970" stroke="#191970" points="115.0085,-160.1995 122.3488,-152.5595 111.8462,-153.9545 115.0085,-160.1995"/>
</g>
<!-- Node398 -->
<g id="node8" class="node">
<title>Node398</title>
<g id="a_node8"><a xlink:href="class_uni_value.html#a49a6ac464f3c2d918e7379d3203c7337" target="_top" xlink:title="UniValue::get_obj">
<polygon fill="#ffffff" stroke="#000000" points="106,-95.5 106,-114.5 200,-114.5 200,-95.5 106,-95.5"/>
<text text-anchor="middle" x="153" y="-102.5" font-family="Helvetica,sans-Serif" font-size="10.00" fill="#000000">UniValue::get_obj</text>
</a>
</g>
</g>
<!-- Node391&#45;&gt;Node398 -->
<g id="edge7" class="edge">
<title>Node391&#45;&gt;Node398</title>
<path fill="none" stroke="#191970" d="M37.6834,-247.1856C44.7834,-222.9594 66.2931,-159.6998 106,-124 107.7017,-122.4701 109.5425,-121.0549 111.4766,-119.747"/>
<polygon fill="#191970" stroke="#191970" points="113.4426,-122.6557 120.4122,-114.6761 109.9876,-116.5677 113.4426,-122.6557"/>
</g>
<!-- Node399 -->
<g id="node9" class="node">
<title>Node399</title>
<g id="a_node9"><a xlink:href="class_uni_value.html#a8abe13a4663ccfda54ae2440ed445c5a" target="_top" xlink:title="UniValue::isStr">
<polygon fill="#ffffff" stroke="#000000" points="275,-285.5 275,-304.5 358,-304.5 358,-285.5 275,-285.5"/>
<text text-anchor="middle" x="316.5" y="-292.5" font-family="Helvetica,sans-Serif" font-size="10.00" fill="#000000">UniValue::isStr</text>
</a>
</g>
</g>
<!-- Node391&#45;&gt;Node399 -->
<g id="edge8" class="edge">
<title>Node391&#45;&gt;Node399</title>
<path fill="none" stroke="#191970" d="M66.1965,-266.5879C78.4937,-270.0401 92.8083,-273.6574 106,-276 159.5693,-285.5128 221.7005,-290.38 264.5047,-292.7917"/>
<polygon fill="#191970" stroke="#191970" points="264.5092,-296.2969 274.6828,-293.3394 264.8854,-289.307 264.5092,-296.2969"/>
</g>
<!-- Node400 -->
<g id="node10" class="node">
<title>Node400</title>
<g id="a_node10"><a xlink:href="rpc_2protocol_8cpp.html#a40b75d3d265c4a2e1d5fe3e129743884" target="_top" xlink:title="JSONRPCError">
<polygon fill="#ffffff" stroke="#000000" points="273.5,-323.5 273.5,-342.5 359.5,-342.5 359.5,-323.5 273.5,-323.5"/>
<text text-anchor="middle" x="316.5" y="-330.5" font-family="Helvetica,sans-Serif" font-size="10.00" fill="#000000">JSONRPCError</text>
</a>
</g>
</g>
<!-- Node391&#45;&gt;Node400 -->
<g id="edge9" class="edge">
<title>Node391&#45;&gt;Node400</title>
<path fill="none" stroke="#191970" d="M49.6085,-266.5826C63.5431,-275.2871 85.4024,-287.8293 106,-295 157.7871,-313.0287 219.8663,-322.9021 263.1347,-328.0299"/>
<polygon fill="#191970" stroke="#191970" points="262.8312,-331.5179 273.1634,-329.1735 263.6243,-324.563 262.8312,-331.5179"/>
</g>
<!-- Node431 -->
<g id="node41" class="node">
<title>Node431</title>
<g id="a_node41"><a xlink:href="server_8cpp.html#adb231eaeb57d26011655ee8aaa5315e2" target="_top" xlink:title="Utilities: convert hex&#45;encoded Values (throws error if not hex). ">
<polygon fill="#ffffff" stroke="#000000" points="117,-247.5 117,-266.5 189,-266.5 189,-247.5 117,-247.5"/>
<text text-anchor="middle" x="153" y="-254.5" font-family="Helvetica,sans-Serif" font-size="10.00" fill="#000000">ParseHashV</text>
</a>
</g>
</g>
<!-- Node391&#45;&gt;Node431 -->
<g id="edge44" class="edge">
<title>Node391&#45;&gt;Node431</title>
<path fill="none" stroke="#191970" d="M70.0844,-257C81.4339,-257 94.2048,-257 106.261,-257"/>
<polygon fill="#191970" stroke="#191970" points="106.6182,-260.5001 116.6182,-257 106.6181,-253.5001 106.6182,-260.5001"/>
</g>
<!-- Node437 -->
<g id="node47" class="node">
<title>Node437</title>
<g id="a_node47"><a xlink:href="validation_8cpp.html#ae88ea23b2e483753f7e055283007dd77" target="_top" xlink:title="GetSpentIndex">
<polygon fill="#ffffff" stroke="#000000" points="112,-57.5 112,-76.5 194,-76.5 194,-57.5 112,-57.5"/>
<text text-anchor="middle" x="153" y="-64.5" font-family="Helvetica,sans-Serif" font-size="10.00" fill="#000000">GetSpentIndex</text>
</a>
</g>
</g>
<!-- Node391&#45;&gt;Node437 -->
<g id="edge52" class="edge">
<title>Node391&#45;&gt;Node437</title>
<path fill="none" stroke="#191970" d="M36.3437,-247.4312C40.8274,-218.9482 57.8158,-133.7345 106,-86 107.4537,-84.5599 109.031,-83.2246 110.6975,-81.987"/>
<polygon fill="#191970" stroke="#191970" points="112.8779,-84.7581 119.6137,-76.5801 109.2482,-78.7727 112.8779,-84.7581"/>
</g>
<!-- Node393&#45;&gt;Node394 -->
<g id="edge3" class="edge">
<title>Node393&#45;&gt;Node394</title>
<path fill="none" stroke="#191970" d="M359.7767,-399.411C382.6119,-394.3513 410.8232,-388.1004 434.9648,-382.7512"/>
<polygon fill="#191970" stroke="#191970" points="436.0285,-386.1005 445.0345,-380.5201 434.5141,-379.2663 436.0285,-386.1005"/>
</g>
<!-- Node400&#45;&gt;Node394 -->
<g id="edge43" class="edge">
<title>Node400&#45;&gt;Node394</title>
<path fill="none" stroke="#191970" d="M359.7767,-342.589C382.6119,-347.6487 410.8232,-353.8996 434.9648,-359.2488"/>
<polygon fill="#191970" stroke="#191970" points="434.5141,-362.7337 445.0345,-361.4799 436.0285,-355.8995 434.5141,-362.7337"/>
</g>
<!-- Node401 -->
<g id="node11" class="node">
<title>Node401</title>
<g id="a_node11"><a xlink:href="util_8h.html#a96c5fc7111f69f7dcaba992d95d13e03" target="_top" xlink:title="error">
<polygon fill="#ffffff" stroke="#000000" points="470,-323.5 470,-342.5 506,-342.5 506,-323.5 470,-323.5"/>
<text text-anchor="middle" x="488" y="-330.5" font-family="Helvetica,sans-Serif" font-size="10.00" fill="#000000">error</text>
</a>
</g>
</g>
<!-- Node400&#45;&gt;Node401 -->
<g id="edge10" class="edge">
<title>Node400&#45;&gt;Node401</title>
<path fill="none" stroke="#191970" d="M359.7767,-333C391.1378,-333 432.6392,-333 459.8124,-333"/>
<polygon fill="#191970" stroke="#191970" points="459.819,-336.5001 469.819,-333 459.819,-329.5001 459.819,-336.5001"/>
</g>
<!-- Node402 -->
<g id="node12" class="node">
<title>Node402</title>
<g id="a_node12"><a xlink:href="util_8h.html#afd4c3002b2797c0560adddb6af3ca1da" target="_top" xlink:title="Send a string to the log output. ">
<polygon fill="#ffffff" stroke="#000000" points="608.5,-646.5 608.5,-665.5 673.5,-665.5 673.5,-646.5 608.5,-646.5"/>
<text text-anchor="middle" x="641" y="-653.5" font-family="Helvetica,sans-Serif" font-size="10.00" fill="#000000">LogPrintStr</text>
</a>
</g>
</g>
<!-- Node401&#45;&gt;Node402 -->
<g id="edge11" class="edge">
<title>Node401&#45;&gt;Node402</title>
<path fill="none" stroke="#191970" d="M506.1533,-334.4044C518.4725,-336.3667 534.0858,-341.0196 543,-352 623.4698,-451.1214 496.7955,-539.3124 579,-637 584.1477,-643.1172 591.2105,-647.3027 598.7297,-650.1574"/>
<polygon fill="#191970" stroke="#191970" points="597.8022,-653.5336 608.3885,-653.1068 599.8467,-646.8388 597.8022,-653.5336"/>
</g>
<!-- Node403 -->
<g id="node13" class="node">
<title>Node403</title>
<g id="a_node13"><a xlink:href="namespacetinyformat.html#a05144619d8b16e2b31b2594ca9c6bf1d" target="_top" xlink:title="Format list of arguments to the stream according to given format string. ">
<polygon fill="#ffffff" stroke="#000000" points="594,-608.5 594,-627.5 688,-627.5 688,-608.5 594,-608.5"/>
<text text-anchor="middle" x="641" y="-615.5" font-family="Helvetica,sans-Serif" font-size="10.00" fill="#000000">tinyformat::format</text>
</a>
</g>
</g>
<!-- Node401&#45;&gt;Node403 -->
<g id="edge12" class="edge">
<title>Node401&#45;&gt;Node403</title>
<path fill="none" stroke="#191970" d="M506.089,-334.4571C518.378,-336.4442 533.9815,-341.1052 543,-352 613.7402,-437.4575 506.7645,-514.8027 579,-599 580.7639,-601.056 582.744,-602.8933 584.884,-604.535"/>
<polygon fill="#191970" stroke="#191970" points="583.4459,-607.756 593.8121,-609.9453 587.0737,-601.7694 583.4459,-607.756"/>
</g>
<!-- Node412 -->
<g id="node22" class="node">
<title>Node412</title>
<g id="a_node22"><a xlink:href="util_8h.html#aaada8c5faa502eb0c33fc01294955db8" target="_top" xlink:title="PrintExceptionContinue">
<polygon fill="#ffffff" stroke="#000000" points="581.5,-570.5 581.5,-589.5 700.5,-589.5 700.5,-570.5 581.5,-570.5"/>
<text text-anchor="middle" x="641" y="-577.5" font-family="Helvetica,sans-Serif" font-size="10.00" fill="#000000">PrintExceptionContinue</text>
</a>
</g>
</g>
<!-- Node401&#45;&gt;Node412 -->
<g id="edge21" class="edge">
<title>Node401&#45;&gt;Node412</title>
<path fill="none" stroke="#191970" d="M506.0028,-334.5295C518.2511,-336.5506 533.8414,-341.2226 543,-352 604.0368,-423.8252 516.7067,-490.2618 579,-561 580.1765,-562.336 581.4442,-563.5794 582.7873,-564.7366"/>
<polygon fill="#191970" stroke="#191970" points="580.9605,-567.7271 591.1953,-570.4658 584.9022,-561.9424 580.9605,-567.7271"/>
</g>
<!-- Node413 -->
<g id="node23" class="node">
<title>Node413</title>
<g id="a_node23"><a xlink:href="util_8h.html#af0e69a29ba128b74030ad8a213f2037a" target="_top" xlink:title="FileCommit">
<polygon fill="#ffffff" stroke="#000000" points="607.5,-532.5 607.5,-551.5 674.5,-551.5 674.5,-532.5 607.5,-532.5"/>
<text text-anchor="middle" x="641" y="-539.5" font-family="Helvetica,sans-Serif" font-size="10.00" fill="#000000">FileCommit</text>
</a>
</g>
</g>
<!-- Node401&#45;&gt;Node413 -->
<g id="edge22" class="edge">
<title>Node401&#45;&gt;Node413</title>
<path fill="none" stroke="#191970" d="M506.1429,-334.6795C518.2943,-336.7728 533.7109,-341.4693 543,-352 594.3771,-410.2442 526.6042,-465.6704 579,-523 584.0649,-528.5418 590.6983,-532.4857 597.7393,-535.2881"/>
<polygon fill="#191970" stroke="#191970" points="596.8923,-538.6927 607.4842,-538.4449 599.0496,-532.0334 596.8923,-538.6927"/>
</g>
<!-- Node414 -->
<g id="node24" class="node">
<title>Node414</title>
<g id="a_node24"><a xlink:href="util_8h.html#acb8d6b822bc1bfa609bf43bbac1a0d44" target="_top" xlink:title="TruncateFile">
<polygon fill="#ffffff" stroke="#000000" points="605.5,-494.5 605.5,-513.5 676.5,-513.5 676.5,-494.5 605.5,-494.5"/>
<text text-anchor="middle" x="641" y="-501.5" font-family="Helvetica,sans-Serif" font-size="10.00" fill="#000000">TruncateFile</text>
</a>
</g>
</g>
<!-- Node401&#45;&gt;Node414 -->
<g id="edge23" class="edge">
<title>Node401&#45;&gt;Node414</title>
<path fill="none" stroke="#191970" d="M506.2187,-334.8948C518.2454,-337.0862 533.4843,-341.8114 543,-352 584.7988,-396.7547 536.4189,-440.989 579,-485 583.7335,-489.8925 589.6901,-493.5338 596.0278,-496.242"/>
<polygon fill="#191970" stroke="#191970" points="594.8931,-499.553 605.4879,-499.5792 597.2218,-492.9518 594.8931,-499.553"/>
</g>
<!-- Node415 -->
<g id="node25" class="node">
<title>Node415</title>
<g id="a_node25"><a xlink:href="util_8h.html#a756a5c49a4bb607d16d9842f8f3ede4f" target="_top" xlink:title="this function tries to raise the file descriptor limit to the requested number. ">
<polygon fill="#ffffff" stroke="#000000" points="579,-456.5 579,-475.5 703,-475.5 703,-456.5 579,-456.5"/>
<text text-anchor="middle" x="641" y="-463.5" font-family="Helvetica,sans-Serif" font-size="10.00" fill="#000000">RaiseFileDescriptorLimit</text>
</a>
</g>
</g>
<!-- Node401&#45;&gt;Node415 -->
<g id="edge24" class="edge">
<title>Node401&#45;&gt;Node415</title>
<path fill="none" stroke="#191970" d="M506.1672,-335.2503C518.0164,-337.5959 533.0697,-342.3595 543,-352 575.3965,-383.4513 546.0542,-416.1247 579,-447 580.6686,-448.5637 582.4627,-449.9989 584.3519,-451.3161"/>
<polygon fill="#191970" stroke="#191970" points="582.7353,-454.4237 593.1501,-456.3685 586.2212,-448.3534 582.7353,-454.4237"/>
</g>
<!-- Node416 -->
<g id="node26" class="node">
<title>Node416</title>
<g id="a_node26"><a xlink:href="util_8h.html#a91c763bffc49cf7ed8d45cc44870e55c" target="_top" xlink:title="this function tries to make a particular range of a file allocated (corresponding to disk space) it i...">
<polygon fill="#ffffff" stroke="#000000" points="593,-418.5 593,-437.5 689,-437.5 689,-418.5 593,-418.5"/>
<text text-anchor="middle" x="641" y="-425.5" font-family="Helvetica,sans-Serif" font-size="10.00" fill="#000000">AllocateFileRange</text>
</a>
</g>
</g>
<!-- Node401&#45;&gt;Node416 -->
<g id="edge25" class="edge">
<title>Node401&#45;&gt;Node416</title>
<path fill="none" stroke="#191970" d="M506.0822,-336.045C517.6001,-338.7098 532.3106,-343.5304 543,-352 566.4847,-370.6077 555.191,-390.8091 579,-409 581.4699,-410.8871 584.1281,-412.5881 586.9054,-414.1213"/>
<polygon fill="#191970" stroke="#191970" points="585.5596,-417.3564 596.0959,-418.4688 588.553,-411.0287 585.5596,-417.3564"/>
</g>
<!-- Node417 -->
<g id="node27" class="node">
<title>Node417</title>
<g id="a_node27"><a xlink:href="util_8h.html#a579657da2b55b131ecd453bf1b0d2314" target="_top" xlink:title="RenameOver">
<polygon fill="#ffffff" stroke="#000000" points="604,-380.5 604,-399.5 678,-399.5 678,-380.5 604,-380.5"/>
<text text-anchor="middle" x="641" y="-387.5" font-family="Helvetica,sans-Serif" font-size="10.00" fill="#000000">RenameOver</text>
</a>
</g>
</g>
<!-- Node401&#45;&gt;Node417 -->
<g id="edge26" class="edge">
<title>Node401&#45;&gt;Node417</title>
<path fill="none" stroke="#191970" d="M506.0988,-338.4806C516.9561,-341.9577 530.9508,-346.7756 543,-352 559.5986,-359.1969 562.2771,-364.0968 579,-371 584.4665,-373.2566 590.3002,-375.3871 596.1202,-377.3483"/>
<polygon fill="#191970" stroke="#191970" points="595.2431,-380.7429 605.8347,-380.4813 597.3917,-374.0807 595.2431,-380.7429"/>
</g>
<!-- Node418 -->
<g id="node28" class="node">
<title>Node418</title>
<g id="a_node28"><a xlink:href="util_8h.html#a9042a919d837da9d97311a0c460c597c" target="_top" xlink:title="Ignores exceptions thrown by Boost&#39;s create_directories if the requested directory exists...">
<polygon fill="#ffffff" stroke="#000000" points="587.5,-342.5 587.5,-361.5 694.5,-361.5 694.5,-342.5 587.5,-342.5"/>
<text text-anchor="middle" x="641" y="-349.5" font-family="Helvetica,sans-Serif" font-size="10.00" fill="#000000">TryCreateDirectories</text>
</a>
</g>
</g>
<!-- Node401&#45;&gt;Node418 -->
<g id="edge27" class="edge">
<title>Node401&#45;&gt;Node418</title>
<path fill="none" stroke="#191970" d="M506.1519,-335.2542C523.7618,-337.441 551.5274,-340.889 577.2986,-344.0894"/>
<polygon fill="#191970" stroke="#191970" points="577.0725,-347.5881 587.4276,-345.3472 577.9352,-340.6414 577.0725,-347.5881"/>
</g>
<!-- Node419 -->
<g id="node29" class="node">
<title>Node419</title>
<g id="a_node29"><a xlink:href="util_8h.html#a15cb85964fe08c264605537f44570d3c" target="_top" xlink:title="GetDefaultDataDir">
<polygon fill="#ffffff" stroke="#000000" points="592,-304.5 592,-323.5 690,-323.5 690,-304.5 592,-304.5"/>
<text text-anchor="middle" x="641" y="-311.5" font-family="Helvetica,sans-Serif" font-size="10.00" fill="#000000">GetDefaultDataDir</text>
</a>
</g>
</g>
<!-- Node401&#45;&gt;Node419 -->
<g id="edge28" class="edge">
<title>Node401&#45;&gt;Node419</title>
<path fill="none" stroke="#191970" d="M506.1519,-330.7458C524.7522,-328.436 554.6826,-324.7191 581.6256,-321.3733"/>
<polygon fill="#191970" stroke="#191970" points="582.2833,-324.8186 591.7757,-320.1128 581.4205,-317.872 582.2833,-324.8186"/>
</g>
<!-- Node420 -->
<g id="node30" class="node">
<title>Node420</title>
<g id="a_node30"><a xlink:href="util_8h.html#abb63dfb710832aefb746933af05198d4" target="_top" xlink:title="GetDataDir">
<polygon fill="#ffffff" stroke="#000000" points="608,-266.5 608,-285.5 674,-285.5 674,-266.5 608,-266.5"/>
<text text-anchor="middle" x="641" y="-273.5" font-family="Helvetica,sans-Serif" font-size="10.00" fill="#000000">GetDataDir</text>
</a>
</g>
</g>
<!-- Node401&#45;&gt;Node420 -->
<g id="edge29" class="edge">
<title>Node401&#45;&gt;Node420</title>
<path fill="none" stroke="#191970" d="M506.2658,-324.7489C524.4928,-316.664 553.3956,-304.244 579,-295 585.1152,-292.7922 591.6264,-290.6137 598.0439,-288.5635"/>
<polygon fill="#191970" stroke="#191970" points="599.4781,-291.7824 607.981,-285.4616 597.3923,-285.1004 599.4781,-291.7824"/>
</g>
<!-- Node421 -->
<g id="node31" class="node">
<title>Node421</title>
<g id="a_node31"><a xlink:href="util_8h.html#abfb50dfe077aced7591f2aba601f605d" target="_top" xlink:title="ClearDatadirCache">
<polygon fill="#ffffff" stroke="#000000" points="591,-228.5 591,-247.5 691,-247.5 691,-228.5 591,-228.5"/>
<text text-anchor="middle" x="641" y="-235.5" font-family="Helvetica,sans-Serif" font-size="10.00" fill="#000000">ClearDatadirCache</text>
</a>
</g>
</g>
<!-- Node401&#45;&gt;Node421 -->
<g id="edge30" class="edge">
<title>Node401&#45;&gt;Node421</title>
<path fill="none" stroke="#191970" d="M496.8934,-323.4095C512.2007,-307.4381 545.1578,-275.3386 579,-257 583.0057,-254.8294 587.2942,-252.8702 591.6762,-251.11"/>
<polygon fill="#191970" stroke="#191970" points="593.1582,-254.2946 601.3446,-247.5691 590.7509,-247.7215 593.1582,-254.2946"/>
</g>
<!-- Node422 -->
<g id="node32" class="node">
<title>Node422</title>
<g id="a_node32"><a xlink:href="util_8h.html#aa634f312705d4811dfa2a5392bddf6cf" target="_top" xlink:title="GetConfigFile">
<polygon fill="#ffffff" stroke="#000000" points="602.5,-152.5 602.5,-171.5 679.5,-171.5 679.5,-152.5 602.5,-152.5"/>
<text text-anchor="middle" x="641" y="-159.5" font-family="Helvetica,sans-Serif" font-size="10.00" fill="#000000">GetConfigFile</text>
</a>
</g>
</g>
<!-- Node401&#45;&gt;Node422 -->
<g id="edge31" class="edge">
<title>Node401&#45;&gt;Node422</title>
<path fill="none" stroke="#191970" d="M499.977,-323.1993C512.2174,-312.6442 531.0745,-294.8166 543,-276 567.1708,-237.8622 546.0542,-211.8753 579,-181 583.0559,-177.199 587.8537,-174.1574 592.9562,-171.7237"/>
<polygon fill="#191970" stroke="#191970" points="594.3837,-174.9225 602.3755,-167.9667 591.7904,-168.4206 594.3837,-174.9225"/>
</g>
<!-- Node424 -->
<g id="node34" class="node">
<title>Node424</title>
<g id="a_node34"><a xlink:href="util_8h.html#aa0172eabeecce5061826cb19990fbde2" target="_top" xlink:title="GetPidFile">
<polygon fill="#ffffff" stroke="#000000" points="610,-190.5 610,-209.5 672,-209.5 672,-190.5 610,-190.5"/>
<text text-anchor="middle" x="641" y="-197.5" font-family="Helvetica,sans-Serif" font-size="10.00" fill="#000000">GetPidFile</text>
</a>
</g>
</g>
<!-- Node401&#45;&gt;Node424 -->
<g id="edge33" class="edge">
<title>Node401&#45;&gt;Node424</title>
<path fill="none" stroke="#191970" d="M498.3879,-323.4769C509.9645,-312.5931 528.9064,-293.9573 543,-276 561.499,-252.4296 555.191,-237.1909 579,-219 585.29,-214.1942 592.8019,-210.595 600.39,-207.9022"/>
<polygon fill="#191970" stroke="#191970" points="601.4309,-211.2439 609.9561,-204.9533 599.3687,-204.5545 601.4309,-211.2439"/>
</g>
<!-- Node426 -->
<g id="node36" class="node">
<title>Node426</title>
<g id="a_node36"><a xlink:href="util_8h.html#a1c0f9b041628dcb399a023bc9913f41d" target="_top" xlink:title="CreatePidFile">
<polygon fill="#ffffff" stroke="#000000" points="603,-76.5 603,-95.5 679,-95.5 679,-76.5 603,-76.5"/>
<text text-anchor="middle" x="641" y="-83.5" font-family="Helvetica,sans-Serif" font-size="10.00" fill="#000000">CreatePidFile</text>
</a>
</g>
</g>
<!-- Node401&#45;&gt;Node426 -->
<g id="edge36" class="edge">
<title>Node401&#45;&gt;Node426</title>
<path fill="none" stroke="#191970" d="M501.0542,-323.1657C513.7856,-312.8449 532.6933,-295.4391 543,-276 579.3815,-207.3823 526.6042,-162.3296 579,-105 583.0384,-100.5813 588.0739,-97.1785 593.5181,-94.5602"/>
<polygon fill="#191970" stroke="#191970" points="594.9324,-97.7652 602.9624,-90.8536 592.3749,-91.2491 594.9324,-97.7652"/>
</g>
<!-- Node428 -->
<g id="node38" class="node">
<title>Node428</title>
<g id="a_node38"><a xlink:href="util_8h.html#a1e755e72104d3ca393efc1cc3f41952a" target="_top" xlink:title="OpenDebugLog">
<polygon fill="#ffffff" stroke="#000000" points="599,-38.5 599,-57.5 683,-57.5 683,-38.5 599,-38.5"/>
<text text-anchor="middle" x="641" y="-45.5" font-family="Helvetica,sans-Serif" font-size="10.00" fill="#000000">OpenDebugLog</text>
</a>
</g>
</g>
<!-- Node401&#45;&gt;Node428 -->
<g id="edge38" class="edge">
<title>Node401&#45;&gt;Node428</title>
<path fill="none" stroke="#191970" d="M501.2063,-323.2446C514.056,-312.9851 533.0539,-295.626 543,-276 585.6085,-191.9235 516.7067,-137.7382 579,-67 582.054,-63.532 585.7226,-60.6876 589.7302,-58.3561"/>
<polygon fill="#191970" stroke="#191970" points="591.3767,-61.4495 598.938,-54.028 588.399,-55.1145 591.3767,-61.4495"/>
</g>
<!-- Node429 -->
<g id="node39" class="node">
<title>Node429</title>
<g id="a_node39"><a xlink:href="util_8h.html#a37fca7e305fe0caa306b23fdb37f88e2" target="_top" xlink:title="ShrinkDebugFile">
<polygon fill="#ffffff" stroke="#000000" points="596.5,-114.5 596.5,-133.5 685.5,-133.5 685.5,-114.5 596.5,-114.5"/>
<text text-anchor="middle" x="641" y="-121.5" font-family="Helvetica,sans-Serif" font-size="10.00" fill="#000000">ShrinkDebugFile</text>
</a>
</g>
</g>
<!-- Node401&#45;&gt;Node429 -->
<g id="edge39" class="edge">
<title>Node401&#45;&gt;Node429</title>
<path fill="none" stroke="#191970" d="M500.3552,-323.4262C512.9039,-313.0561 532.0093,-295.3775 543,-276 573.2122,-222.7333 536.4189,-187.011 579,-143 581.4622,-140.4551 584.2552,-138.2488 587.2607,-136.3362"/>
<polygon fill="#191970" stroke="#191970" points="588.9399,-139.408 596.1949,-131.6868 585.7084,-133.1985 588.9399,-139.408"/>
</g>
<!-- Node430 -->
<g id="node40" class="node">
<title>Node430</title>
<g id="a_node40"><a xlink:href="util_8h.html#aa803aa631ab8b4bd79fa9d7b2172bf9a" target="_top" xlink:title="runCommand">
<polygon fill="#ffffff" stroke="#000000" points="603.5,-.5 603.5,-19.5 678.5,-19.5 678.5,-.5 603.5,-.5"/>
<text text-anchor="middle" x="641" y="-7.5" font-family="Helvetica,sans-Serif" font-size="10.00" fill="#000000">runCommand</text>
</a>
</g>
</g>
<!-- Node401&#45;&gt;Node430 -->
<g id="edge42" class="edge">
<title>Node401&#45;&gt;Node430</title>
<path fill="none" stroke="#191970" d="M501.3137,-323.2981C514.2469,-313.0803 533.3083,-295.7529 543,-276 591.8661,-176.4045 506.7645,-113.1973 579,-29 582.9917,-24.3473 588.0904,-20.8143 593.6446,-18.1352"/>
<polygon fill="#191970" stroke="#191970" points="595.2505,-21.2663 603.3069,-14.3855 592.718,-14.7405 595.2505,-21.2663"/>
</g>
<!-- Node404 -->
<g id="node14" class="node">
<title>Node404</title>
<g id="a_node14"><a xlink:href="namespacetinyformat.html#a86ed74eb3ed66a662e96220d877da964" target="_top" xlink:title="Format list of arguments to the stream according to the given format string. ">
<polygon fill="#ffffff" stroke="#000000" points="758,-589.5 758,-608.5 857,-608.5 857,-589.5 758,-589.5"/>
<text text-anchor="middle" x="807.5" y="-596.5" font-family="Helvetica,sans-Serif" font-size="10.00" fill="#000000">tinyformat::vformat</text>
</a>
</g>
</g>
<!-- Node403&#45;&gt;Node404 -->
<g id="edge13" class="edge">
<title>Node403&#45;&gt;Node404</title>
<path fill="none" stroke="#191970" d="M688.2669,-612.6062C706.7697,-610.4948 728.209,-608.0482 747.7631,-605.8168"/>
<polygon fill="#191970" stroke="#191970" points="748.2525,-609.2838 757.7912,-604.6725 747.4588,-602.3289 748.2525,-609.2838"/>
</g>
<!-- Node411 -->
<g id="node21" class="node">
<title>Node411</title>
<g id="a_node21"><a xlink:href="namespacetinyformat.html#a37afaa5249c69dacd619269358f06f69" target="_top" xlink:title="Make type&#45;agnostic format list from list of template arguments. ">
<polygon fill="#ffffff" stroke="#000000" points="739,-627.5 739,-646.5 876,-646.5 876,-627.5 739,-627.5"/>
<text text-anchor="middle" x="807.5" y="-634.5" font-family="Helvetica,sans-Serif" font-size="10.00" fill="#000000">tinyformat::makeFormatList</text>
</a>
</g>
</g>
<!-- Node403&#45;&gt;Node411 -->
<g id="edge20" class="edge">
<title>Node403&#45;&gt;Node411</title>
<path fill="none" stroke="#191970" d="M688.2669,-623.3938C700.9546,-624.8417 715.0231,-626.4471 728.9177,-628.0327"/>
<polygon fill="#191970" stroke="#191970" points="728.6498,-631.5247 738.9822,-629.1811 729.4435,-624.5698 728.6498,-631.5247"/>
</g>
<!-- Node405 -->
<g id="node15" class="node">
<title>Node405</title>
<g id="a_node15"><a xlink:href="namespacetinyformat_1_1detail.html#a079a316938c0e8693efbeb0183b1390d" target="_top" xlink:title="tinyformat::detail\l::formatImpl">
<polygon fill="#ffffff" stroke="#000000" points="912,-584 912,-614 1001,-614 1001,-584 912,-584"/>
<text text-anchor="start" x="920" y="-602" font-family="Helvetica,sans-Serif" font-size="10.00" fill="#000000">tinyformat::detail</text>
<text text-anchor="middle" x="956.5" y="-591" font-family="Helvetica,sans-Serif" font-size="10.00" fill="#000000">::formatImpl</text>
</a>
</g>
</g>
<!-- Node404&#45;&gt;Node405 -->
<g id="edge14" class="edge">
<title>Node404&#45;&gt;Node405</title>
<path fill="none" stroke="#191970" d="M857.1148,-599C871.2842,-599 886.8105,-599 901.2923,-599"/>
<polygon fill="#191970" stroke="#191970" points="901.6183,-602.5001 911.6183,-599 901.6183,-595.5001 901.6183,-602.5001"/>
</g>
<!-- Node406 -->
<g id="node16" class="node">
<title>Node406</title>
<g id="a_node16"><a xlink:href="namespacetinyformat_1_1detail.html#ad3d636b9f85202b515c8940b7fcb62a6" target="_top" xlink:title="tinyformat::detail\l::printFormatStringLiteral">
<polygon fill="#ffffff" stroke="#000000" points="1039.5,-633 1039.5,-663 1163.5,-663 1163.5,-633 1039.5,-633"/>
<text text-anchor="start" x="1047.5" y="-651" font-family="Helvetica,sans-Serif" font-size="10.00" fill="#000000">tinyformat::detail</text>
<text text-anchor="middle" x="1101.5" y="-640" font-family="Helvetica,sans-Serif" font-size="10.00" fill="#000000">::printFormatStringLiteral</text>
</a>
</g>
</g>
<!-- Node405&#45;&gt;Node406 -->
<g id="edge15" class="edge">
<title>Node405&#45;&gt;Node406</title>
<path fill="none" stroke="#191970" d="M1001.1879,-614.1014C1015.659,-618.9917 1031.8725,-624.4707 1046.9752,-629.5744"/>
<polygon fill="#191970" stroke="#191970" points="1046.1158,-632.9783 1056.71,-632.8641 1048.3569,-626.3468 1046.1158,-632.9783"/>
</g>
<!-- Node407 -->
<g id="node17" class="node">
<title>Node407</title>
<g id="a_node17"><a xlink:href="namespacetinyformat_1_1detail.html#a681e8ceb825485cc5e3b057c11e4b1b5" target="_top" xlink:title="tinyformat::detail\l::streamStateFromFormat">
<polygon fill="#ffffff" stroke="#000000" points="1037,-584 1037,-614 1166,-614 1166,-584 1037,-584"/>
<text text-anchor="start" x="1045" y="-602" font-family="Helvetica,sans-Serif" font-size="10.00" fill="#000000">tinyformat::detail</text>
<text text-anchor="middle" x="1101.5" y="-591" font-family="Helvetica,sans-Serif" font-size="10.00" fill="#000000">::streamStateFromFormat</text>
</a>
</g>
</g>
<!-- Node405&#45;&gt;Node407 -->
<g id="edge16" class="edge">
<title>Node405&#45;&gt;Node407</title>
<path fill="none" stroke="#191970" d="M1001.1879,-599C1009.3219,-599 1018.0064,-599 1026.7346,-599"/>
<polygon fill="#191970" stroke="#191970" points="1026.9707,-602.5001 1036.9707,-599 1026.9706,-595.5001 1026.9707,-602.5001"/>
</g>
<!-- Node410 -->
<g id="node20" class="node">
<title>Node410</title>
<g id="a_node20"><a xlink:href="classtinyformat_1_1detail_1_1_format_arg.html#acbf435711bbe4a4da7fc81758d7108a9" target="_top" xlink:title="tinyformat::detail\l::FormatArg::format">
<polygon fill="#ffffff" stroke="#000000" points="1050.5,-535 1050.5,-565 1152.5,-565 1152.5,-535 1050.5,-535"/>
<text text-anchor="start" x="1058.5" y="-553" font-family="Helvetica,sans-Serif" font-size="10.00" fill="#000000">tinyformat::detail</text>
<text text-anchor="middle" x="1101.5" y="-542" font-family="Helvetica,sans-Serif" font-size="10.00" fill="#000000">::FormatArg::format</text>
</a>
</g>
</g>
<!-- Node405&#45;&gt;Node410 -->
<g id="edge19" class="edge">
<title>Node405&#45;&gt;Node410</title>
<path fill="none" stroke="#191970" d="M1001.1879,-583.8986C1015.659,-579.0083 1031.8725,-573.5293 1046.9752,-568.4256"/>
<polygon fill="#191970" stroke="#191970" points="1048.3569,-571.6532 1056.71,-565.1359 1046.1158,-565.0217 1048.3569,-571.6532"/>
</g>
<!-- Node408 -->
<g id="node18" class="node">
<title>Node408</title>
<g id="a_node18"><a xlink:href="namespacetinyformat_1_1detail.html#a67285e0adb9f4164f9fc30a3eb11c771" target="_top" xlink:title="tinyformat::detail\l::parseIntAndAdvance">
<polygon fill="#ffffff" stroke="#000000" points="1202,-608 1202,-638 1315,-638 1315,-608 1202,-608"/>
<text text-anchor="start" x="1210" y="-626" font-family="Helvetica,sans-Serif" font-size="10.00" fill="#000000">tinyformat::detail</text>
<text text-anchor="middle" x="1258.5" y="-615" font-family="Helvetica,sans-Serif" font-size="10.00" fill="#000000">::parseIntAndAdvance</text>
</a>
</g>
</g>
<!-- Node407&#45;&gt;Node408 -->
<g id="edge17" class="edge">
<title>Node407&#45;&gt;Node408</title>
<path fill="none" stroke="#191970" d="M1166.2643,-608.9003C1174.7639,-610.1996 1183.4852,-611.5328 1192.0128,-612.8363"/>
<polygon fill="#191970" stroke="#191970" points="1191.4954,-616.2978 1201.9095,-614.3492 1192.5533,-609.3782 1191.4954,-616.2978"/>
</g>
<!-- Node409 -->
<g id="node19" class="node">
<title>Node409</title>
<g id="a_node19"><a xlink:href="classtinyformat_1_1detail_1_1_format_arg.html#a91b69f66ce9dc8ca2914dce8985d7a1a" target="_top" xlink:title="tinyformat::detail\l::FormatArg::toInt">
<polygon fill="#ffffff" stroke="#000000" points="1211.5,-559 1211.5,-589 1305.5,-589 1305.5,-559 1211.5,-559"/>
<text text-anchor="start" x="1219.5" y="-577" font-family="Helvetica,sans-Serif" font-size="10.00" fill="#000000">tinyformat::detail</text>
<text text-anchor="middle" x="1258.5" y="-566" font-family="Helvetica,sans-Serif" font-size="10.00" fill="#000000">::FormatArg::toInt</text>
</a>
</g>
</g>
<!-- Node407&#45;&gt;Node409 -->
<g id="edge18" class="edge">
<title>Node407&#45;&gt;Node409</title>
<path fill="none" stroke="#191970" d="M1166.2643,-588.6872C1177.7757,-586.8542 1189.6938,-584.9564 1200.9865,-583.1582"/>
<polygon fill="#191970" stroke="#191970" points="1201.8268,-586.5686 1211.152,-581.5395 1200.726,-579.6557 1201.8268,-586.5686"/>
</g>
<!-- Node423 -->
<g id="node33" class="node">
<title>Node423</title>
<g id="a_node33"><a xlink:href="util_8cpp.html#a7ebe0bd091f7334aaead43904601e008" target="_top" xlink:title="GetDataDir">
<polygon fill="#ffffff" stroke="#000000" points="774.5,-152.5 774.5,-171.5 840.5,-171.5 840.5,-152.5 774.5,-152.5"/>
<text text-anchor="middle" x="807.5" y="-159.5" font-family="Helvetica,sans-Serif" font-size="10.00" fill="#000000">GetDataDir</text>
</a>
</g>
</g>
<!-- Node422&#45;&gt;Node423 -->
<g id="edge32" class="edge">
<title>Node422&#45;&gt;Node423</title>
<path fill="none" stroke="#191970" d="M679.6169,-162C704.9746,-162 738.1762,-162 764.3939,-162"/>
<polygon fill="#191970" stroke="#191970" points="764.4308,-165.5001 774.4308,-162 764.4308,-158.5001 764.4308,-165.5001"/>
</g>
<!-- Node424&#45;&gt;Node423 -->
<g id="edge35" class="edge">
<title>Node424&#45;&gt;Node423</title>
<path fill="none" stroke="#191970" d="M672.3174,-192.8525C698.3555,-186.9098 735.6789,-178.3916 764.5137,-171.8107"/>
<polygon fill="#191970" stroke="#191970" points="765.3559,-175.2085 774.3265,-169.5711 763.7983,-168.384 765.3559,-175.2085"/>
</g>
<!-- Node425 -->
<g id="node35" class="node">
<title>Node425</title>
<g id="a_node35"><a xlink:href="class_args_manager.html#adb5d644d273b3a259f792affcdca8283" target="_top" xlink:title="Return string argument or default value. ">
<polygon fill="#ffffff" stroke="#000000" points="752,-190.5 752,-209.5 863,-209.5 863,-190.5 752,-190.5"/>
<text text-anchor="middle" x="807.5" y="-197.5" font-family="Helvetica,sans-Serif" font-size="10.00" fill="#000000">ArgsManager::GetArg</text>
</a>
</g>
</g>
<!-- Node424&#45;&gt;Node425 -->
<g id="edge34" class="edge">
<title>Node424&#45;&gt;Node425</title>
<path fill="none" stroke="#191970" d="M672.3174,-200C691.8523,-200 717.7394,-200 741.6282,-200"/>
<polygon fill="#191970" stroke="#191970" points="741.7197,-203.5001 751.7197,-200 741.7196,-196.5001 741.7197,-203.5001"/>
</g>
<!-- Node427 -->
<g id="node37" class="node">
<title>Node427</title>
<g id="a_node37"><a xlink:href="namespacefsbridge.html#a19c84cec4ae9accfbc88a83e48f7ee92" target="_top" xlink:title="fsbridge::fopen">
<polygon fill="#ffffff" stroke="#000000" points="767,-95.5 767,-114.5 848,-114.5 848,-95.5 767,-95.5"/>
<text text-anchor="middle" x="807.5" y="-102.5" font-family="Helvetica,sans-Serif" font-size="10.00" fill="#000000">fsbridge::fopen</text>
</a>
</g>
</g>
<!-- Node426&#45;&gt;Node427 -->
<g id="edge37" class="edge">
<title>Node426&#45;&gt;Node427</title>
<path fill="none" stroke="#191970" d="M679.1985,-90.359C702.2349,-92.9878 731.8575,-96.3681 756.8339,-99.2183"/>
<polygon fill="#191970" stroke="#191970" points="756.5312,-102.7064 766.8635,-100.3628 757.3249,-95.7515 756.5312,-102.7064"/>
</g>
<!-- Node429&#45;&gt;Node423 -->
<g id="edge40" class="edge">
<title>Node429&#45;&gt;Node423</title>
<path fill="none" stroke="#191970" d="M683.015,-133.589C707.9082,-139.2703 739.3821,-146.4536 764.4539,-152.1757"/>
<polygon fill="#191970" stroke="#191970" points="763.8902,-155.6369 774.4183,-154.4498 765.4478,-148.8124 763.8902,-155.6369"/>
</g>
<!-- Node429&#45;&gt;Node427 -->
<g id="edge41" class="edge">
<title>Node429&#45;&gt;Node427</title>
<path fill="none" stroke="#191970" d="M685.6189,-118.9083C707.5047,-116.4109 733.9673,-113.3911 756.6351,-110.8044"/>
<polygon fill="#191970" stroke="#191970" points="757.2142,-114.2611 766.7529,-109.6498 756.4205,-107.3063 757.2142,-114.2611"/>
</g>
<!-- Node431&#45;&gt;Node399 -->
<g id="edge45" class="edge">
<title>Node431&#45;&gt;Node399</title>
<path fill="none" stroke="#191970" d="M189.2859,-265.4334C211.694,-270.6414 240.7843,-277.4025 265.4903,-283.1445"/>
<polygon fill="#191970" stroke="#191970" points="264.8907,-286.5984 275.4234,-285.4532 266.4754,-279.7801 264.8907,-286.5984"/>
</g>
<!-- Node431&#45;&gt;Node400 -->
<g id="edge50" class="edge">
<title>Node431&#45;&gt;Node400</title>
<path fill="none" stroke="#191970" d="M164.0087,-266.5714C179.187,-279.2745 207.868,-301.5455 236,-314 244.6733,-317.8398 254.2302,-320.963 263.6373,-323.4838"/>
<polygon fill="#191970" stroke="#191970" points="262.7938,-326.8806 273.3429,-325.8975 264.4832,-320.0875 262.7938,-326.8806"/>
</g>
<!-- Node432 -->
<g id="node42" class="node">
<title>Node432</title>
<g id="a_node42"><a xlink:href="class_uni_value.html#a087ea6ccec615333371fa1aaf83ab7df" target="_top" xlink:title="UniValue::get_str">
<polygon fill="#ffffff" stroke="#000000" points="270.5,-247.5 270.5,-266.5 362.5,-266.5 362.5,-247.5 270.5,-247.5"/>
<text text-anchor="middle" x="316.5" y="-254.5" font-family="Helvetica,sans-Serif" font-size="10.00" fill="#000000">UniValue::get_str</text>
</a>
</g>
</g>
<!-- Node431&#45;&gt;Node432 -->
<g id="edge46" class="edge">
<title>Node431&#45;&gt;Node432</title>
<path fill="none" stroke="#191970" d="M189.2859,-257C210.1017,-257 236.6836,-257 260.1609,-257"/>
<polygon fill="#191970" stroke="#191970" points="260.3508,-260.5001 270.3508,-257 260.3507,-253.5001 260.3508,-260.5001"/>
</g>
<!-- Node434 -->
<g id="node44" class="node">
<title>Node434</title>
<g id="a_node44"><a xlink:href="utilstrencodings_8cpp.html#a9f23401f4b871ed693f7a96a9ba40c58" target="_top" xlink:title="IsHex">
<polygon fill="#ffffff" stroke="#000000" points="295,-209.5 295,-228.5 338,-228.5 338,-209.5 295,-209.5"/>
<text text-anchor="middle" x="316.5" y="-216.5" font-family="Helvetica,sans-Serif" font-size="10.00" fill="#000000">IsHex</text>
</a>
</g>
</g>
<!-- Node431&#45;&gt;Node434 -->
<g id="edge48" class="edge">
<title>Node431&#45;&gt;Node434</title>
<path fill="none" stroke="#191970" d="M189.2859,-248.5666C217.983,-241.8969 257.6394,-232.6801 285.0112,-226.3185"/>
<polygon fill="#191970" stroke="#191970" points="285.9037,-229.7044 294.8518,-224.0314 284.319,-222.8862 285.9037,-229.7044"/>
</g>
<!-- Node436 -->
<g id="node46" class="node">
<title>Node436</title>
<g id="a_node46"><a xlink:href="classbase__blob.html#a5ec1f681a2830f4e180fe664c0eb4dd0" target="_top" xlink:title="base_blob::SetHex">
<polygon fill="#ffffff" stroke="#000000" points="266.5,-171.5 266.5,-190.5 366.5,-190.5 366.5,-171.5 266.5,-171.5"/>
<text text-anchor="middle" x="316.5" y="-178.5" font-family="Helvetica,sans-Serif" font-size="10.00" fill="#000000">base_blob::SetHex</text>
</a>
</g>
</g>
<!-- Node431&#45;&gt;Node436 -->
<g id="edge51" class="edge">
<title>Node431&#45;&gt;Node436</title>
<path fill="none" stroke="#191970" d="M182.3287,-247.4072C188.4208,-244.8034 194.6184,-241.6683 200,-238 219.2234,-224.8967 215.835,-211.602 236,-200 242.3322,-196.3567 249.3269,-193.4111 256.4706,-191.0298"/>
<polygon fill="#191970" stroke="#191970" points="257.6687,-194.3251 266.2562,-188.1198 255.6734,-187.6155 257.6687,-194.3251"/>
</g>
<!-- Node433 -->
<g id="node43" class="node">
<title>Node433</title>
<g id="a_node43"><a xlink:href="class_uni_value.html#a4c9a5fa9114affbf31f6e346c032be12" target="_top" xlink:title="UniValue::getValStr">
<polygon fill="#ffffff" stroke="#000000" points="436.5,-247.5 436.5,-266.5 539.5,-266.5 539.5,-247.5 436.5,-247.5"/>
<text text-anchor="middle" x="488" y="-254.5" font-family="Helvetica,sans-Serif" font-size="10.00" fill="#000000">UniValue::getValStr</text>
</a>
</g>
</g>
<!-- Node432&#45;&gt;Node433 -->
<g id="edge47" class="edge">
<title>Node432&#45;&gt;Node433</title>
<path fill="none" stroke="#191970" d="M362.9104,-257C382.4326,-257 405.4281,-257 426.3425,-257"/>
<polygon fill="#191970" stroke="#191970" points="426.4181,-260.5001 436.4181,-257 426.4181,-253.5001 426.4181,-260.5001"/>
</g>
<!-- Node435 -->
<g id="node45" class="node">
<title>Node435</title>
<g id="a_node45"><a xlink:href="utilstrencodings_8cpp.html#aa59e8a8c5a39cb5041f93bb95dd02119" target="_top" xlink:title="HexDigit">
<polygon fill="#ffffff" stroke="#000000" points="460.5,-209.5 460.5,-228.5 515.5,-228.5 515.5,-209.5 460.5,-209.5"/>
<text text-anchor="middle" x="488" y="-216.5" font-family="Helvetica,sans-Serif" font-size="10.00" fill="#000000">HexDigit</text>
</a>
</g>
</g>
<!-- Node434&#45;&gt;Node435 -->
<g id="edge49" class="edge">
<title>Node434&#45;&gt;Node435</title>
<path fill="none" stroke="#191970" d="M338.2206,-219C366.3196,-219 415.7301,-219 450.082,-219"/>
<polygon fill="#191970" stroke="#191970" points="450.2192,-222.5001 460.2192,-219 450.2191,-215.5001 450.2192,-222.5001"/>
</g>
<!-- Node438 -->
<g id="node48" class="node">
<title>Node438</title>
<g id="a_node48"><a xlink:href="class_c_tx_mem_pool.html#ad5ae2f4442200f4d80e7b3aa61ec0435" target="_top" xlink:title="CTxMemPool::getSpentIndex">
<polygon fill="#ffffff" stroke="#000000" points="243.5,-38.5 243.5,-57.5 389.5,-57.5 389.5,-38.5 243.5,-38.5"/>
<text text-anchor="middle" x="316.5" y="-45.5" font-family="Helvetica,sans-Serif" font-size="10.00" fill="#000000">CTxMemPool::getSpentIndex</text>
</a>
</g>
</g>
<!-- Node437&#45;&gt;Node438 -->
<g id="edge53" class="edge">
<title>Node437&#45;&gt;Node438</title>
<path fill="none" stroke="#191970" d="M194.258,-62.2055C206.1688,-60.8214 219.6138,-59.2589 233.1183,-57.6896"/>
<polygon fill="#191970" stroke="#191970" points="233.9032,-61.122 243.4323,-56.491 233.0951,-54.1688 233.9032,-61.122"/>
</g>
<!-- Node439 -->
<g id="node49" class="node">
<title>Node439</title>
<g id="a_node49"><a xlink:href="class_c_block_tree_d_b.html#acca1254c911a40dafe2c977058cdf852" target="_top" xlink:title="CBlockTreeDB::ReadSpentIndex">
<polygon fill="#ffffff" stroke="#000000" points="236,-76.5 236,-95.5 397,-95.5 397,-76.5 236,-76.5"/>
<text text-anchor="middle" x="316.5" y="-83.5" font-family="Helvetica,sans-Serif" font-size="10.00" fill="#000000">CBlockTreeDB::ReadSpentIndex</text>
</a>
</g>
</g>
<!-- Node437&#45;&gt;Node439 -->
<g id="edge54" class="edge">
<title>Node437&#45;&gt;Node439</title>
<path fill="none" stroke="#191970" d="M194.258,-71.7945C203.9634,-72.9224 214.6875,-74.1686 225.6324,-75.4405"/>
<polygon fill="#191970" stroke="#191970" points="225.3858,-78.9353 235.723,-76.6131 226.1938,-71.9821 225.3858,-78.9353"/>
</g>
<!-- Node440 -->
<g id="node50" class="node">
<title>Node440</title>
<g id="a_node50"><a xlink:href="class_c_d_b_wrapper.html#a38084dd7b2870e6ac3082e7521d88a29" target="_top" xlink:title="CDBWrapper::Read">
<polygon fill="#ffffff" stroke="#000000" points="436,-76.5 436,-95.5 540,-95.5 540,-76.5 436,-76.5"/>
<text text-anchor="middle" x="488" y="-83.5" font-family="Helvetica,sans-Serif" font-size="10.00" fill="#000000">CDBWrapper::Read</text>
</a>
</g>
</g>
<!-- Node439&#45;&gt;Node440 -->
<g id="edge55" class="edge">
<title>Node439&#45;&gt;Node440</title>
<path fill="none" stroke="#191970" d="M397.2281,-86C406.6965,-86 416.2469,-86 425.4153,-86"/>
<polygon fill="#191970" stroke="#191970" points="425.5797,-89.5001 435.5796,-86 425.5796,-82.5001 425.5797,-89.5001"/>
</g>
</g>
</svg>
