<?xml version="1.0" encoding="UTF-8" standalone="no"?>
<!DOCTYPE svg PUBLIC "-//W3C//DTD SVG 1.1//EN"
 "http://www.w3.org/Graphics/SVG/1.1/DTD/svg11.dtd">
<!-- Generated by graphviz version 2.40.1 (20161225.0304)
 -->
<!-- Title: MapPort Pages: 1 -->
<svg width="695pt" height="161pt"
 viewBox="0.00 0.00 695.00 161.00" xmlns="http://www.w3.org/2000/svg" xmlns:xlink="http://www.w3.org/1999/xlink">
<g id="graph0" class="graph" transform="scale(1 1) rotate(0) translate(4 157)">
<title>MapPort</title>
<polygon fill="#ffffff" stroke="transparent" points="-4,4 -4,-157 691,-157 691,4 -4,4"/>
<!-- Node242 -->
<g id="node1" class="node">
<title>Node242</title>
<polygon fill="#bfbfbf" stroke="#000000" points="0,-38.5 0,-57.5 53,-57.5 53,-38.5 0,-38.5"/>
<text text-anchor="middle" x="26.5" y="-45.5" font-family="Helvetica,sans-Serif" font-size="10.00" fill="#000000">MapPort</text>
</g>
<!-- Node243 -->
<g id="node2" class="node">
<title>Node243</title>
<g id="a_node2"><a xlink:href="init_8h.html#a5cb3db83cb0ba2e421f651a1ee1f2cfe" target="_top" xlink:title="Preparing steps before shutting down or restarting the wallet. ">
<polygon fill="#ffffff" stroke="#000000" points="127.5,-76.5 127.5,-95.5 221.5,-95.5 221.5,-76.5 127.5,-76.5"/>
<text text-anchor="middle" x="174.5" y="-83.5" font-family="Helvetica,sans-Serif" font-size="10.00" fill="#000000">PrepareShutdown</text>
</a>
</g>
</g>
<!-- Node242&#45;&gt;Node243 -->
<g id="edge1" class="edge">
<title>Node242&#45;&gt;Node243</title>
<path fill="none" stroke="#191970" d="M62.844,-59.5608C71.388,-62.136 80.4854,-64.7632 89,-67 101.795,-70.3612 115.7681,-73.6323 128.6408,-76.4862"/>
<polygon fill="#191970" stroke="#191970" points="63.723,-56.1696 53.1365,-56.588 61.6733,-62.8628 63.723,-56.1696"/>
</g>
<!-- Node249 -->
<g id="node8" class="node">
<title>Node249</title>
<g id="a_node8"><a xlink:href="class_c_connman.html#a999ec42f1515f77096556c94c29c6538" target="_top" xlink:title="CConnman::WakeMessageHandler">
<polygon fill="#ffffff" stroke="#000000" points="89,-38.5 89,-57.5 260,-57.5 260,-38.5 89,-38.5"/>
<text text-anchor="middle" x="174.5" y="-45.5" font-family="Helvetica,sans-Serif" font-size="10.00" fill="#000000">CConnman::WakeMessageHandler</text>
</a>
</g>
</g>
<!-- Node242&#45;&gt;Node249 -->
<g id="edge7" class="edge">
<title>Node242&#45;&gt;Node249</title>
<path fill="none" stroke="#191970" d="M63.5526,-48C71.4495,-48 80.1016,-48 88.9804,-48"/>
<polygon fill="#191970" stroke="#191970" points="63.3017,-44.5001 53.3017,-48 63.3016,-51.5001 63.3017,-44.5001"/>
</g>
<!-- Node252 -->
<g id="node11" class="node">
<title>Node252</title>
<g id="a_node11"><a xlink:href="class_options_model.html#a3102b457f4d46efac8ecb03b3d536b62" target="_top" xlink:title="OptionsModel::setData">
<polygon fill="#ffffff" stroke="#000000" points="116,-.5 116,-19.5 233,-19.5 233,-.5 116,-.5"/>
<text text-anchor="middle" x="174.5" y="-7.5" font-family="Helvetica,sans-Serif" font-size="10.00" fill="#000000">OptionsModel::setData</text>
</a>
</g>
</g>
<!-- Node242&#45;&gt;Node252 -->
<g id="edge10" class="edge">
<title>Node242&#45;&gt;Node252</title>
<path fill="none" stroke="#191970" d="M62.844,-36.4392C71.388,-33.864 80.4854,-31.2368 89,-29 101.795,-25.6388 115.7681,-22.3677 128.6408,-19.5138"/>
<polygon fill="#191970" stroke="#191970" points="61.6733,-33.1372 53.1365,-39.412 63.723,-39.8304 61.6733,-33.1372"/>
</g>
<!-- Node244 -->
<g id="node3" class="node">
<title>Node244</title>
<g id="a_node3"><a xlink:href="init_8h.html#ac5f038c2b480cf9ef5e19e3eba8dbaf9" target="_top" xlink:title="Shutdown is split into 2 parts: Part 1: shut down everything but the main wallet instance (done in Pr...">
<polygon fill="#ffffff" stroke="#000000" points="349.5,-114.5 349.5,-133.5 409.5,-133.5 409.5,-114.5 349.5,-114.5"/>
<text text-anchor="middle" x="379.5" y="-121.5" font-family="Helvetica,sans-Serif" font-size="10.00" fill="#000000">Shutdown</text>
</a>
</g>
</g>
<!-- Node243&#45;&gt;Node244 -->
<g id="edge2" class="edge">
<title>Node243&#45;&gt;Node244</title>
<path fill="none" stroke="#191970" d="M231.4824,-96.5626C269.6202,-103.632 318.3081,-112.6571 349.2068,-118.3847"/>
<polygon fill="#191970" stroke="#191970" points="232.0016,-93.0993 221.5311,-94.718 230.7257,-99.982 232.0016,-93.0993"/>
</g>
<!-- Node248 -->
<g id="node7" class="node">
<title>Node248</title>
<g id="a_node7"><a xlink:href="class_raven_core.html#ab35cedbe16324f62d058e964b03cac69" target="_top" xlink:title="RavenCore::restart">
<polygon fill="#ffffff" stroke="#000000" points="329.5,-76.5 329.5,-95.5 429.5,-95.5 429.5,-76.5 329.5,-76.5"/>
<text text-anchor="middle" x="379.5" y="-83.5" font-family="Helvetica,sans-Serif" font-size="10.00" fill="#000000">RavenCore::restart</text>
</a>
</g>
</g>
<!-- Node243&#45;&gt;Node248 -->
<g id="edge6" class="edge">
<title>Node243&#45;&gt;Node248</title>
<path fill="none" stroke="#191970" d="M231.6672,-86C262.3877,-86 299.9117,-86 329.4671,-86"/>
<polygon fill="#191970" stroke="#191970" points="231.5312,-82.5001 221.5311,-86 231.5311,-89.5001 231.5312,-82.5001"/>
</g>
<!-- Node245 -->
<g id="node4" class="node">
<title>Node245</title>
<g id="a_node4"><a xlink:href="class_raven_core.html#a0b62b17932fa72d2ac40d4d81b2a432d" target="_top" xlink:title="RavenCore::shutdown">
<polygon fill="#ffffff" stroke="#000000" points="499,-133.5 499,-152.5 613,-152.5 613,-133.5 499,-133.5"/>
<text text-anchor="middle" x="556" y="-140.5" font-family="Helvetica,sans-Serif" font-size="10.00" fill="#000000">RavenCore::shutdown</text>
</a>
</g>
</g>
<!-- Node244&#45;&gt;Node245 -->
<g id="edge3" class="edge">
<title>Node244&#45;&gt;Node245</title>
<path fill="none" stroke="#191970" d="M419.7889,-128.337C443.2329,-130.8608 473.1627,-134.0827 498.9925,-136.8632"/>
<polygon fill="#191970" stroke="#191970" points="420.1586,-124.8567 409.8414,-127.2662 419.4094,-131.8165 420.1586,-124.8567"/>
</g>
<!-- Node246 -->
<g id="node5" class="node">
<title>Node246</title>
<g id="a_node5"><a xlink:href="ravend_8cpp.html#ac59316b767e6984e1285f0531275286b" target="_top" xlink:title="AppInit">
<polygon fill="#ffffff" stroke="#000000" points="532.5,-95.5 532.5,-114.5 579.5,-114.5 579.5,-95.5 532.5,-95.5"/>
<text text-anchor="middle" x="556" y="-102.5" font-family="Helvetica,sans-Serif" font-size="10.00" fill="#000000">AppInit</text>
</a>
</g>
</g>
<!-- Node244&#45;&gt;Node246 -->
<g id="edge4" class="edge">
<title>Node244&#45;&gt;Node246</title>
<path fill="none" stroke="#191970" d="M420.1251,-119.6268C454.8344,-115.8903 503.5758,-110.6434 532.2652,-107.555"/>
<polygon fill="#191970" stroke="#191970" points="419.4094,-116.1835 409.8414,-120.7338 420.1586,-123.1433 419.4094,-116.1835"/>
</g>
<!-- Node247 -->
<g id="node6" class="node">
<title>Node247</title>
<g id="a_node6"><a xlink:href="ravend_8cpp.html#a0ddf1224851353fc92bfbff6f499fa97" target="_top" xlink:title="main">
<polygon fill="#ffffff" stroke="#000000" points="649,-95.5 649,-114.5 687,-114.5 687,-95.5 649,-95.5"/>
<text text-anchor="middle" x="668" y="-102.5" font-family="Helvetica,sans-Serif" font-size="10.00" fill="#000000">main</text>
</a>
</g>
</g>
<!-- Node246&#45;&gt;Node247 -->
<g id="edge5" class="edge">
<title>Node246&#45;&gt;Node247</title>
<path fill="none" stroke="#191970" d="M589.9552,-105C609.2177,-105 632.6211,-105 648.7465,-105"/>
<polygon fill="#191970" stroke="#191970" points="589.7524,-101.5001 579.7523,-105 589.7523,-108.5001 589.7524,-101.5001"/>
</g>
<!-- Node250 -->
<g id="node9" class="node">
<title>Node250</title>
<g id="a_node9"><a xlink:href="class_c_connman.html#a765597cbfe99c083d8fa3d61bb464e34" target="_top" xlink:title="CConnman::ThreadSocketHandler">
<polygon fill="#ffffff" stroke="#000000" points="296,-38.5 296,-57.5 463,-57.5 463,-38.5 296,-38.5"/>
<text text-anchor="middle" x="379.5" y="-45.5" font-family="Helvetica,sans-Serif" font-size="10.00" fill="#000000">CConnman::ThreadSocketHandler</text>
</a>
</g>
</g>
<!-- Node249&#45;&gt;Node250 -->
<g id="edge8" class="edge">
<title>Node249&#45;&gt;Node250</title>
<path fill="none" stroke="#191970" d="M270.4913,-48C278.9235,-48 287.4146,-48 295.7352,-48"/>
<polygon fill="#191970" stroke="#191970" points="270.2507,-44.5001 260.2507,-48 270.2506,-51.5001 270.2507,-44.5001"/>
</g>
<!-- Node251 -->
<g id="node10" class="node">
<title>Node251</title>
<g id="a_node10"><a xlink:href="class_c_connman.html#aa4709e5604e0f4369dada0a211493565" target="_top" xlink:title="CConnman::Start">
<polygon fill="#ffffff" stroke="#000000" points="509.5,-38.5 509.5,-57.5 602.5,-57.5 602.5,-38.5 509.5,-38.5"/>
<text text-anchor="middle" x="556" y="-45.5" font-family="Helvetica,sans-Serif" font-size="10.00" fill="#000000">CConnman::Start</text>
</a>
</g>
</g>
<!-- Node250&#45;&gt;Node251 -->
<g id="edge9" class="edge">
<title>Node250&#45;&gt;Node251</title>
<path fill="none" stroke="#191970" d="M473.142,-48C485.6513,-48 498.0155,-48 509.2243,-48"/>
<polygon fill="#191970" stroke="#191970" points="473.0981,-44.5001 463.0981,-48 473.0981,-51.5001 473.0981,-44.5001"/>
</g>
</g>
</svg>
