<?xml version="1.0" encoding="UTF-8" standalone="no"?>
<!DOCTYPE svg PUBLIC "-//W3C//DTD SVG 1.1//EN"
 "http://www.w3.org/Graphics/SVG/1.1/DTD/svg11.dtd">
<!-- Generated by graphviz version 2.40.1 (20161225.0304)
 -->
<!-- Title: src/net.h Pages: 1 -->
<svg width="2320pt" height="364pt"
 viewBox="0.00 0.00 2320.00 364.00" xmlns="http://www.w3.org/2000/svg" xmlns:xlink="http://www.w3.org/1999/xlink">
<g id="graph0" class="graph" transform="scale(1 1) rotate(0) translate(4 360)">
<title>src/net.h</title>
<polygon fill="#ffffff" stroke="transparent" points="-4,4 -4,-360 2316,-360 2316,4 -4,4"/>
<!-- Node0 -->
<g id="node1" class="node">
<title>Node0</title>
<polygon fill="#bfbfbf" stroke="#000000" points="1280.5,-336.5 1280.5,-355.5 1335.5,-355.5 1335.5,-336.5 1280.5,-336.5"/>
<text text-anchor="middle" x="1308" y="-343.5" font-family="Helvetica,sans-Serif" font-size="10.00" fill="#000000">src/net.h</text>
</g>
<!-- Node1 -->
<g id="node2" class="node">
<title>Node1</title>
<g id="a_node2"><a xlink:href="addrdb_8h.html" target="_top" xlink:title="addrdb.h">
<polygon fill="#ffffff" stroke="#000000" points="613,-168.5 613,-187.5 667,-187.5 667,-168.5 613,-168.5"/>
<text text-anchor="middle" x="640" y="-175.5" font-family="Helvetica,sans-Serif" font-size="10.00" fill="#000000">addrdb.h</text>
</a>
</g>
</g>
<!-- Node0&#45;&gt;Node1 -->
<g id="edge1" class="edge">
<title>Node0&#45;&gt;Node1</title>
<path fill="none" stroke="#191970" d="M1280.3021,-345.3673C1169.2201,-342.6281 759.6515,-330.5238 711,-300 673.6146,-276.5445 653.6919,-225.7127 645.1642,-197.6307"/>
<polygon fill="#191970" stroke="#191970" points="648.4607,-196.427 642.3564,-187.7674 641.7282,-198.3436 648.4607,-196.427"/>
</g>
<!-- Node17 -->
<g id="node7" class="node">
<title>Node17</title>
<polygon fill="#ffffff" stroke="#bfbfbf" points="977,-56.5 977,-75.5 1029,-75.5 1029,-56.5 977,-56.5"/>
<text text-anchor="middle" x="1003" y="-63.5" font-family="Helvetica,sans-Serif" font-size="10.00" fill="#000000">memory</text>
</g>
<!-- Node0&#45;&gt;Node17 -->
<g id="edge111" class="edge">
<title>Node0&#45;&gt;Node17</title>
<path fill="none" stroke="#191970" d="M1326.2716,-336.4625C1386.5563,-303.8568 1571.0688,-194.2968 1495,-112 1462.0472,-76.3493 1122.2873,-84.1674 1039.5203,-75.5097"/>
<polygon fill="#191970" stroke="#191970" points="1039.6224,-71.9912 1029.2407,-74.1057 1038.675,-78.9269 1039.6224,-71.9912"/>
</g>
<!-- Node11 -->
<g id="node9" class="node">
<title>Node11</title>
<polygon fill="#ffffff" stroke="#bfbfbf" points="867.5,-.5 867.5,-19.5 916.5,-19.5 916.5,-.5 867.5,-.5"/>
<text text-anchor="middle" x="892" y="-7.5" font-family="Helvetica,sans-Serif" font-size="10.00" fill="#000000">stdint.h</text>
</g>
<!-- Node0&#45;&gt;Node11 -->
<g id="edge109" class="edge">
<title>Node0&#45;&gt;Node11</title>
<path fill="none" stroke="#191970" d="M1335.8225,-344.4653C1464.5364,-337.0035 1996,-302.0719 1996,-234 1996,-234 1996,-234 1996,-178 1996,-147.4754 1992.0766,-132.1562 2015,-112 2095.6318,-41.1014 2324.6252,-133.1958 2250,-56 2226.2924,-31.4758 1136.3414,-13.7089 926.6816,-10.5151"/>
<polygon fill="#191970" stroke="#191970" points="926.606,-7.0137 916.5541,-10.3618 926.4999,-14.0129 926.606,-7.0137"/>
</g>
<!-- Node26 -->
<g id="node12" class="node">
<title>Node26</title>
<g id="a_node12"><a xlink:href="addrman_8h.html" target="_top" xlink:title="addrman.h">
<polygon fill="#ffffff" stroke="#000000" points="720,-280.5 720,-299.5 782,-299.5 782,-280.5 720,-280.5"/>
<text text-anchor="middle" x="751" y="-287.5" font-family="Helvetica,sans-Serif" font-size="10.00" fill="#000000">addrman.h</text>
</a>
</g>
</g>
<!-- Node0&#45;&gt;Node26 -->
<g id="edge15" class="edge">
<title>Node0&#45;&gt;Node26</title>
<path fill="none" stroke="#191970" d="M1280.29,-344.082C1205.0079,-338.7292 990.4484,-322.5295 813,-300 806.2416,-299.1419 799.0887,-298.107 792.1366,-297.0326"/>
<polygon fill="#191970" stroke="#191970" points="792.5895,-293.5607 782.1638,-295.4464 791.4899,-300.4738 792.5895,-293.5607"/>
</g>
<!-- Node27 -->
<g id="node13" class="node">
<title>Node27</title>
<g id="a_node13"><a xlink:href="netaddress_8h.html" target="_top" xlink:title="netaddress.h">
<polygon fill="#ffffff" stroke="#000000" points="1102.5,-168.5 1102.5,-187.5 1175.5,-187.5 1175.5,-168.5 1102.5,-168.5"/>
<text text-anchor="middle" x="1139" y="-175.5" font-family="Helvetica,sans-Serif" font-size="10.00" fill="#000000">netaddress.h</text>
</a>
</g>
</g>
<!-- Node0&#45;&gt;Node27 -->
<g id="edge87" class="edge">
<title>Node0&#45;&gt;Node27</title>
<path fill="none" stroke="#191970" d="M1280.4522,-342.6459C1232.7798,-335.0978 1137.1088,-311.7673 1107,-244 1099.5498,-227.2315 1110.6247,-208.4298 1121.7308,-195.1964"/>
<polygon fill="#191970" stroke="#191970" points="1124.3626,-197.5043 1128.4846,-187.7442 1119.1758,-192.8036 1124.3626,-197.5043"/>
</g>
<!-- Node28 -->
<g id="node14" class="node">
<title>Node28</title>
<g id="a_node14"><a xlink:href="compat_8h.html" target="_top" xlink:title="compat.h">
<polygon fill="#ffffff" stroke="#000000" points="1568.5,-112.5 1568.5,-131.5 1625.5,-131.5 1625.5,-112.5 1568.5,-112.5"/>
<text text-anchor="middle" x="1597" y="-119.5" font-family="Helvetica,sans-Serif" font-size="10.00" fill="#000000">compat.h</text>
</a>
</g>
</g>
<!-- Node0&#45;&gt;Node28 -->
<g id="edge71" class="edge">
<title>Node0&#45;&gt;Node28</title>
<path fill="none" stroke="#191970" d="M1335.8448,-345.1883C1397.0873,-342.7925 1540.6124,-333.6372 1573,-300 1614.553,-256.8437 1607.2535,-178.2086 1601.024,-141.6546"/>
<polygon fill="#191970" stroke="#191970" points="1604.4508,-140.9379 1599.1803,-131.7471 1597.5689,-142.2186 1604.4508,-140.9379"/>
</g>
<!-- Node37 -->
<g id="node23" class="node">
<title>Node37</title>
<polygon fill="#ffffff" stroke="#bfbfbf" points="2137,-56.5 2137,-75.5 2199,-75.5 2199,-56.5 2137,-56.5"/>
<text text-anchor="middle" x="2168" y="-63.5" font-family="Helvetica,sans-Serif" font-size="10.00" fill="#000000">arpa/inet.h</text>
</g>
<!-- Node0&#45;&gt;Node37 -->
<g id="edge113" class="edge">
<title>Node0&#45;&gt;Node37</title>
<path fill="none" stroke="#191970" d="M1335.8867,-343.8985C1455.6118,-334.5111 1920,-294.2181 1920,-234 1920,-234 1920,-234 1920,-178 1920,-137.7538 1947.266,-132.3299 1982,-112 2006.3389,-97.7544 2080.0334,-82.1998 2127.0259,-73.3196"/>
<polygon fill="#191970" stroke="#191970" points="2127.7204,-76.7505 2136.9089,-71.4758 2126.4366,-69.8692 2127.7204,-76.7505"/>
</g>
<!-- Node43 -->
<g id="node29" class="node">
<title>Node43</title>
<g id="a_node29"><a xlink:href="protocol_8h.html" target="_top" xlink:title="protocol.h">
<polygon fill="#ffffff" stroke="#000000" points="1116.5,-224.5 1116.5,-243.5 1175.5,-243.5 1175.5,-224.5 1116.5,-224.5"/>
<text text-anchor="middle" x="1146" y="-231.5" font-family="Helvetica,sans-Serif" font-size="10.00" fill="#000000">protocol.h</text>
</a>
</g>
</g>
<!-- Node0&#45;&gt;Node43 -->
<g id="edge92" class="edge">
<title>Node0&#45;&gt;Node43</title>
<path fill="none" stroke="#191970" d="M1280.2869,-340.266C1254.7011,-333.8743 1216.7306,-321.4947 1190,-300 1174.3046,-287.379 1162.1821,-267.6379 1154.6727,-253.0312"/>
<polygon fill="#191970" stroke="#191970" points="1157.7469,-251.3497 1150.2237,-243.8898 1151.4528,-254.4131 1157.7469,-251.3497"/>
</g>
<!-- Node44 -->
<g id="node30" class="node">
<title>Node44</title>
<g id="a_node30"><a xlink:href="uint256_8h.html" target="_top" xlink:title="uint256.h">
<polygon fill="#ffffff" stroke="#ff0000" points="1202,-112.5 1202,-131.5 1258,-131.5 1258,-112.5 1202,-112.5"/>
<text text-anchor="middle" x="1230" y="-119.5" font-family="Helvetica,sans-Serif" font-size="10.00" fill="#000000">uint256.h</text>
</a>
</g>
</g>
<!-- Node0&#45;&gt;Node44 -->
<g id="edge102" class="edge">
<title>Node0&#45;&gt;Node44</title>
<path fill="none" stroke="#191970" d="M1304.6484,-336.375C1292.7975,-302.3415 1252.7252,-187.262 1236.7021,-141.247"/>
<polygon fill="#191970" stroke="#191970" points="1239.933,-139.882 1233.3391,-131.5891 1233.3223,-142.184 1239.933,-139.882"/>
</g>
<!-- Node49 -->
<g id="node32" class="node">
<title>Node49</title>
<g id="a_node32"><a xlink:href="random_8h.html" target="_top" xlink:title="random.h">
<polygon fill="#ffffff" stroke="#ff0000" points="1308.5,-224.5 1308.5,-243.5 1365.5,-243.5 1365.5,-224.5 1308.5,-224.5"/>
<text text-anchor="middle" x="1337" y="-231.5" font-family="Helvetica,sans-Serif" font-size="10.00" fill="#000000">random.h</text>
</a>
</g>
</g>
<!-- Node0&#45;&gt;Node49 -->
<g id="edge93" class="edge">
<title>Node0&#45;&gt;Node49</title>
<path fill="none" stroke="#191970" d="M1310.4725,-336.4509C1315.2238,-318.1013 1325.7131,-277.5908 1331.9847,-253.3693"/>
<polygon fill="#191970" stroke="#191970" points="1335.4153,-254.083 1334.5337,-243.5249 1328.6388,-252.3283 1335.4153,-254.083"/>
</g>
<!-- Node51 -->
<g id="node33" class="node">
<title>Node51</title>
<g id="a_node33"><a xlink:href="sync_8h.html" target="_top" xlink:title="sync.h">
<polygon fill="#ffffff" stroke="#ff0000" points="754,-112.5 754,-131.5 800,-131.5 800,-112.5 754,-112.5"/>
<text text-anchor="middle" x="777" y="-119.5" font-family="Helvetica,sans-Serif" font-size="10.00" fill="#000000">sync.h</text>
</a>
</g>
</g>
<!-- Node0&#45;&gt;Node51 -->
<g id="edge101" class="edge">
<title>Node0&#45;&gt;Node51</title>
<path fill="none" stroke="#191970" d="M1280.1253,-343.8612C1232.9756,-339.596 1134.9982,-327.9209 1057,-300 960.3516,-265.4029 939.4766,-246.3231 855,-188 833.0759,-172.8635 810.0301,-152.7713 794.7245,-138.7478"/>
<polygon fill="#191970" stroke="#191970" points="796.7859,-135.8859 787.0741,-131.6513 792.0254,-141.018 796.7859,-135.8859"/>
</g>
<!-- Node63 -->
<g id="node36" class="node">
<title>Node63</title>
<polygon fill="#ffffff" stroke="#bfbfbf" points="2024,-112.5 2024,-131.5 2070,-131.5 2070,-112.5 2024,-112.5"/>
<text text-anchor="middle" x="2047" y="-119.5" font-family="Helvetica,sans-Serif" font-size="10.00" fill="#000000">atomic</text>
</g>
<!-- Node0&#45;&gt;Node63 -->
<g id="edge107" class="edge">
<title>Node0&#45;&gt;Node63</title>
<path fill="none" stroke="#191970" d="M1335.6704,-345.1174C1462.6041,-340.9512 1984.1052,-322.5126 2010,-300 2055.98,-260.0256 2053.6562,-179.1314 2049.7312,-141.7546"/>
<polygon fill="#191970" stroke="#191970" points="2053.1844,-141.155 2048.5134,-131.6455 2046.2346,-141.9923 2053.1844,-141.155"/>
</g>
<!-- Node66 -->
<g id="node37" class="node">
<title>Node66</title>
<g id="a_node37"><a xlink:href="amount_8h.html" target="_top" xlink:title="amount.h">
<polygon fill="#ffffff" stroke="#000000" points="1126.5,-112.5 1126.5,-131.5 1183.5,-131.5 1183.5,-112.5 1126.5,-112.5"/>
<text text-anchor="middle" x="1155" y="-119.5" font-family="Helvetica,sans-Serif" font-size="10.00" fill="#000000">amount.h</text>
</a>
</g>
</g>
<!-- Node0&#45;&gt;Node66 -->
<g id="edge66" class="edge">
<title>Node0&#45;&gt;Node66</title>
<path fill="none" stroke="#191970" d="M1301.4258,-336.375C1277.9835,-302.0543 1198.2457,-185.3139 1167.3609,-140.097"/>
<polygon fill="#191970" stroke="#191970" points="1170.0802,-137.8727 1161.5497,-131.5891 1164.2998,-141.8208 1170.0802,-137.8727"/>
</g>
<!-- Node67 -->
<g id="node38" class="node">
<title>Node67</title>
<g id="a_node38"><a xlink:href="bloom_8h.html" target="_top" xlink:title="bloom.h">
<polygon fill="#ffffff" stroke="#000000" points="893.5,-168.5 893.5,-187.5 944.5,-187.5 944.5,-168.5 893.5,-168.5"/>
<text text-anchor="middle" x="919" y="-175.5" font-family="Helvetica,sans-Serif" font-size="10.00" fill="#000000">bloom.h</text>
</a>
</g>
</g>
<!-- Node0&#45;&gt;Node67 -->
<g id="edge68" class="edge">
<title>Node0&#45;&gt;Node67</title>
<path fill="none" stroke="#191970" d="M1280.462,-343.3537C1239.3276,-338.662 1160.0374,-326.7382 1098,-300 1033.9156,-272.3795 968.6899,-220.704 937.6454,-194.3557"/>
<polygon fill="#191970" stroke="#191970" points="939.6909,-191.4987 929.825,-187.6367 935.1292,-196.8082 939.6909,-191.4987"/>
</g>
<!-- Node68 -->
<g id="node39" class="node">
<title>Node68</title>
<g id="a_node39"><a xlink:href="hash_8h.html" target="_top" xlink:title="hash.h">
<polygon fill="#ffffff" stroke="#ff0000" points="1399,-168.5 1399,-187.5 1445,-187.5 1445,-168.5 1399,-168.5"/>
<text text-anchor="middle" x="1422" y="-175.5" font-family="Helvetica,sans-Serif" font-size="10.00" fill="#000000">hash.h</text>
</a>
</g>
</g>
<!-- Node0&#45;&gt;Node68 -->
<g id="edge72" class="edge">
<title>Node0&#45;&gt;Node68</title>
<path fill="none" stroke="#191970" d="M1314.4558,-336.4862C1332.7886,-309.4695 1385.3975,-231.9405 1409.5753,-196.3102"/>
<polygon fill="#191970" stroke="#191970" points="1412.6122,-198.0679 1415.3311,-187.8279 1406.8199,-194.1374 1412.6122,-198.0679"/>
</g>
<!-- Node90 -->
<g id="node44" class="node">
<title>Node90</title>
<g id="a_node44"><a xlink:href="limitedmap_8h.html" target="_top" xlink:title="limitedmap.h">
<polygon fill="#ffffff" stroke="#ff0000" points="0,-224.5 0,-243.5 72,-243.5 72,-224.5 0,-224.5"/>
<text text-anchor="middle" x="36" y="-231.5" font-family="Helvetica,sans-Serif" font-size="10.00" fill="#000000">limitedmap.h</text>
</a>
</g>
</g>
<!-- Node0&#45;&gt;Node90 -->
<g id="edge85" class="edge">
<title>Node0&#45;&gt;Node90</title>
<path fill="none" stroke="#191970" d="M1280.3543,-345.9101C1112.7465,-345.2353 236.1327,-339.8127 124,-300 95.5429,-289.8963 68.6663,-267.0937 52.2747,-251.1346"/>
<polygon fill="#191970" stroke="#191970" points="54.6445,-248.554 45.1093,-243.9355 49.6831,-253.4922 54.6445,-248.554"/>
</g>
<!-- Node91 -->
<g id="node45" class="node">
<title>Node91</title>
<g id="a_node45"><a xlink:href="feerate_8h.html" target="_top" xlink:title="policy/feerate.h">
<polygon fill="#ffffff" stroke="#000000" points="962.5,-168.5 962.5,-187.5 1045.5,-187.5 1045.5,-168.5 962.5,-168.5"/>
<text text-anchor="middle" x="1004" y="-175.5" font-family="Helvetica,sans-Serif" font-size="10.00" fill="#000000">policy/feerate.h</text>
</a>
</g>
</g>
<!-- Node0&#45;&gt;Node91 -->
<g id="edge88" class="edge">
<title>Node0&#45;&gt;Node91</title>
<path fill="none" stroke="#191970" d="M1280.4487,-343.3041C1244.0094,-338.7847 1178.7189,-327.3206 1130,-300 1081.5629,-272.8374 1038.1895,-222.4555 1017.2495,-195.7253"/>
<polygon fill="#191970" stroke="#191970" points="1019.9013,-193.432 1011.0332,-187.6347 1014.3505,-197.6968 1019.9013,-193.432"/>
</g>
<!-- Node92 -->
<g id="node46" class="node">
<title>Node92</title>
<g id="a_node46"><a xlink:href="streams_8h.html" target="_top" xlink:title="streams.h">
<polygon fill="#ffffff" stroke="#ff0000" points="204,-168.5 204,-187.5 264,-187.5 264,-168.5 204,-168.5"/>
<text text-anchor="middle" x="234" y="-175.5" font-family="Helvetica,sans-Serif" font-size="10.00" fill="#000000">streams.h</text>
</a>
</g>
</g>
<!-- Node0&#45;&gt;Node92 -->
<g id="edge94" class="edge">
<title>Node0&#45;&gt;Node92</title>
<path fill="none" stroke="#191970" d="M1280.4906,-344.7312C1125.5353,-337.3936 365.4597,-298.804 278,-244 260.5542,-233.0681 248.4789,-212.3958 241.4512,-197.0878"/>
<polygon fill="#191970" stroke="#191970" points="244.5222,-195.3657 237.3883,-187.5326 238.0804,-198.1048 244.5222,-195.3657"/>
</g>
<!-- Node95 -->
<g id="node47" class="node">
<title>Node95</title>
<g id="a_node47"><a xlink:href="threadinterrupt_8h.html" target="_top" xlink:title="threadinterrupt.h">
<polygon fill="#ffffff" stroke="#ff0000" points="2062.5,-168.5 2062.5,-187.5 2149.5,-187.5 2149.5,-168.5 2062.5,-168.5"/>
<text text-anchor="middle" x="2106" y="-175.5" font-family="Helvetica,sans-Serif" font-size="10.00" fill="#000000">threadinterrupt.h</text>
</a>
</g>
</g>
<!-- Node0&#45;&gt;Node95 -->
<g id="edge103" class="edge">
<title>Node0&#45;&gt;Node95</title>
<path fill="none" stroke="#191970" d="M1335.7289,-345.0622C1466.6622,-340.5347 2017.9431,-320.3234 2048,-300 2082.8336,-276.4468 2097.3246,-226.0412 2102.881,-197.9505"/>
<polygon fill="#191970" stroke="#191970" points="2106.392,-198.1977 2104.6987,-187.7391 2099.5003,-196.9709 2106.392,-198.1977"/>
</g>
<!-- Node96 -->
<g id="node48" class="node">
<title>Node96</title>
<polygon fill="#ffffff" stroke="#bfbfbf" points="2152.5,-112.5 2152.5,-131.5 2247.5,-131.5 2247.5,-112.5 2152.5,-112.5"/>
<text text-anchor="middle" x="2200" y="-119.5" font-family="Helvetica,sans-Serif" font-size="10.00" fill="#000000">condition_variable</text>
</g>
<!-- Node0&#45;&gt;Node96 -->
<g id="edge112" class="edge">
<title>Node0&#45;&gt;Node96</title>
<path fill="none" stroke="#191970" d="M1335.5562,-345.6791C1464.615,-343.9976 2005.8108,-334.9021 2072,-300 2137.8599,-265.2716 2177.8053,-179.6902 2192.9865,-141.2454"/>
<polygon fill="#191970" stroke="#191970" points="2196.3209,-142.3242 2196.6127,-131.7334 2189.7801,-139.8307 2196.3209,-142.3242"/>
</g>
<!-- Node98 -->
<g id="node49" class="node">
<title>Node98</title>
<polygon fill="#ffffff" stroke="#bfbfbf" points="2206.5,-280.5 2206.5,-299.5 2249.5,-299.5 2249.5,-280.5 2206.5,-280.5"/>
<text text-anchor="middle" x="2228" y="-287.5" font-family="Helvetica,sans-Serif" font-size="10.00" fill="#000000">deque</text>
</g>
<!-- Node0&#45;&gt;Node98 -->
<g id="edge108" class="edge">
<title>Node0&#45;&gt;Node98</title>
<path fill="none" stroke="#191970" d="M1335.8051,-345.3728C1466.5733,-342.2977 2021.1694,-327.8259 2192,-300 2193.4805,-299.7588 2194.9873,-299.4797 2196.5036,-299.1713"/>
<polygon fill="#191970" stroke="#191970" points="2197.5474,-302.5209 2206.4689,-296.8062 2195.9309,-295.71 2197.5474,-302.5209"/>
</g>
<!-- Node99 -->
<g id="node50" class="node">
<title>Node99</title>
<polygon fill="#ffffff" stroke="#bfbfbf" points="2268,-280.5 2268,-299.5 2312,-299.5 2312,-280.5 2268,-280.5"/>
<text text-anchor="middle" x="2290" y="-287.5" font-family="Helvetica,sans-Serif" font-size="10.00" fill="#000000">thread</text>
</g>
<!-- Node0&#45;&gt;Node99 -->
<g id="edge110" class="edge">
<title>Node0&#45;&gt;Node99</title>
<path fill="none" stroke="#191970" d="M1335.6378,-345.6448C1469.8369,-343.7728 2054.9477,-333.8848 2257.8819,-299.6791"/>
<polygon fill="#191970" stroke="#191970" points="2258.5882,-303.1087 2267.8288,-297.9259 2257.373,-296.2149 2258.5882,-303.1087"/>
</g>
<!-- Node2 -->
<g id="node3" class="node">
<title>Node2</title>
<g id="a_node3"><a xlink:href="fs_8h.html" target="_top" xlink:title="fs.h">
<polygon fill="#ffffff" stroke="#ff0000" points="626.5,-112.5 626.5,-131.5 659.5,-131.5 659.5,-112.5 626.5,-112.5"/>
<text text-anchor="middle" x="643" y="-119.5" font-family="Helvetica,sans-Serif" font-size="10.00" fill="#000000">fs.h</text>
</a>
</g>
</g>
<!-- Node1&#45;&gt;Node2 -->
<g id="edge2" class="edge">
<title>Node1&#45;&gt;Node2</title>
<path fill="none" stroke="#191970" d="M640.5226,-168.2455C640.914,-160.9382 641.4628,-150.6944 641.9444,-141.7046"/>
<polygon fill="#191970" stroke="#191970" points="645.4434,-141.8156 642.4834,-131.6427 638.4534,-141.4411 645.4434,-141.8156"/>
</g>
<!-- Node4 -->
<g id="node4" class="node">
<title>Node4</title>
<polygon fill="#ffffff" stroke="#bfbfbf" points="619.5,-56.5 619.5,-75.5 660.5,-75.5 660.5,-56.5 619.5,-56.5"/>
<text text-anchor="middle" x="640" y="-63.5" font-family="Helvetica,sans-Serif" font-size="10.00" fill="#000000">string</text>
</g>
<!-- Node1&#45;&gt;Node4 -->
<g id="edge13" class="edge">
<title>Node1&#45;&gt;Node4</title>
<path fill="none" stroke="#191970" d="M633.4603,-168.2849C627.8406,-159.3105 620.1592,-145.3824 617,-132 613.0966,-115.4648 620.3432,-97.2738 627.7108,-84.1846"/>
<polygon fill="#191970" stroke="#191970" points="630.6988,-86.0071 632.9392,-75.6519 624.7302,-82.3498 630.6988,-86.0071"/>
</g>
<!-- Node8 -->
<g id="node5" class="node">
<title>Node8</title>
<g id="a_node5"><a xlink:href="serialize_8h.html" target="_top" xlink:title="serialize.h">
<polygon fill="#ffffff" stroke="#ff0000" points="970.5,-112.5 970.5,-131.5 1031.5,-131.5 1031.5,-112.5 970.5,-112.5"/>
<text text-anchor="middle" x="1001" y="-119.5" font-family="Helvetica,sans-Serif" font-size="10.00" fill="#000000">serialize.h</text>
</a>
</g>
</g>
<!-- Node1&#45;&gt;Node8 -->
<g id="edge4" class="edge">
<title>Node1&#45;&gt;Node8</title>
<path fill="none" stroke="#191970" d="M667.0341,-170.0834C670.0455,-169.3231 673.0791,-168.6097 676,-168 777.2475,-146.8666 898.2933,-132.5774 960.1711,-126.0504"/>
<polygon fill="#191970" stroke="#191970" points="960.7171,-129.5126 970.3009,-124.9958 959.9922,-122.5502 960.7171,-129.5126"/>
</g>
<!-- Node16 -->
<g id="node6" class="node">
<title>Node16</title>
<polygon fill="#ffffff" stroke="#bfbfbf" points="208.5,-56.5 208.5,-75.5 243.5,-75.5 243.5,-56.5 208.5,-56.5"/>
<text text-anchor="middle" x="226" y="-63.5" font-family="Helvetica,sans-Serif" font-size="10.00" fill="#000000">map</text>
</g>
<!-- Node1&#45;&gt;Node16 -->
<g id="edge14" class="edge">
<title>Node1&#45;&gt;Node16</title>
<path fill="none" stroke="#191970" d="M612.9505,-174.8328C566.64,-169.0112 469.4713,-155.0491 390,-132 340.3134,-117.5894 284.9562,-93.5415 252.9377,-78.7954"/>
<polygon fill="#191970" stroke="#191970" points="254.3257,-75.581 243.7823,-74.5387 251.3745,-81.9285 254.3257,-75.581"/>
</g>
<!-- Node2&#45;&gt;Node4 -->
<g id="edge3" class="edge">
<title>Node2&#45;&gt;Node4</title>
<path fill="none" stroke="#191970" d="M642.4774,-112.2455C642.086,-104.9382 641.5372,-94.6944 641.0556,-85.7046"/>
<polygon fill="#191970" stroke="#191970" points="644.5466,-85.4411 640.5166,-75.6427 637.5566,-85.8156 644.5466,-85.4411"/>
</g>
<!-- Node8&#45;&gt;Node4 -->
<g id="edge9" class="edge">
<title>Node8&#45;&gt;Node4</title>
<path fill="none" stroke="#191970" d="M970.079,-119.6114C912.7762,-114.7777 786.183,-102.1928 670.5909,-75.7389"/>
<polygon fill="#191970" stroke="#191970" points="671.0474,-72.2515 660.5139,-73.3903 669.4585,-79.0688 671.0474,-72.2515"/>
</g>
<!-- Node8&#45;&gt;Node16 -->
<g id="edge5" class="edge">
<title>Node8&#45;&gt;Node16</title>
<path fill="none" stroke="#191970" d="M970.1457,-120.4025C839.6165,-113.599 336.2799,-86.8908 266,-76 261.9768,-75.3766 257.7669,-74.5365 253.6519,-73.607"/>
<polygon fill="#191970" stroke="#191970" points="254.3245,-70.1683 243.7785,-71.1841 252.6562,-76.9665 254.3245,-70.1683"/>
</g>
<!-- Node8&#45;&gt;Node17 -->
<g id="edge6" class="edge">
<title>Node8&#45;&gt;Node17</title>
<path fill="none" stroke="#191970" d="M1001.3484,-112.2455C1001.6093,-104.9382 1001.9752,-94.6944 1002.2963,-85.7046"/>
<polygon fill="#191970" stroke="#191970" points="1005.7964,-85.7613 1002.6556,-75.6427 998.8008,-85.5113 1005.7964,-85.7613"/>
</g>
<!-- Node18 -->
<g id="node8" class="node">
<title>Node18</title>
<polygon fill="#ffffff" stroke="#bfbfbf" points="275,-56.5 275,-75.5 305,-75.5 305,-56.5 275,-56.5"/>
<text text-anchor="middle" x="290" y="-63.5" font-family="Helvetica,sans-Serif" font-size="10.00" fill="#000000">set</text>
</g>
<!-- Node8&#45;&gt;Node18 -->
<g id="edge7" class="edge">
<title>Node8&#45;&gt;Node18</title>
<path fill="none" stroke="#191970" d="M970.4492,-119.5938C851.9837,-110.2631 424.1474,-76.5658 315.3202,-67.9943"/>
<polygon fill="#191970" stroke="#191970" points="315.5059,-64.4982 305.2619,-67.2021 314.9562,-71.4765 315.5059,-64.4982"/>
</g>
<!-- Node8&#45;&gt;Node11 -->
<g id="edge8" class="edge">
<title>Node8&#45;&gt;Node11</title>
<path fill="none" stroke="#191970" d="M970.0389,-115.0025C965.3399,-113.9745 960.5447,-112.9446 956,-112 914.7805,-103.4328 796.7922,-108.475 770,-76 742.7023,-42.9122 812.457,-23.9163 857.4218,-15.4211"/>
<polygon fill="#191970" stroke="#191970" points="858.1967,-18.838 867.4205,-13.6253 856.9592,-11.9482 858.1967,-18.838"/>
</g>
<!-- Node21 -->
<g id="node10" class="node">
<title>Node21</title>
<polygon fill="#ffffff" stroke="#bfbfbf" points="679,-56.5 679,-75.5 723,-75.5 723,-56.5 679,-56.5"/>
<text text-anchor="middle" x="701" y="-63.5" font-family="Helvetica,sans-Serif" font-size="10.00" fill="#000000">vector</text>
</g>
<!-- Node8&#45;&gt;Node21 -->
<g id="edge10" class="edge">
<title>Node8&#45;&gt;Node21</title>
<path fill="none" stroke="#191970" d="M970.062,-114.8871C965.3598,-113.875 960.5576,-112.8803 956,-112 859.1504,-93.2938 833.3277,-97.2311 737,-76 735.7529,-75.7251 734.4847,-75.4334 733.206,-75.129"/>
<polygon fill="#191970" stroke="#191970" points="733.9298,-71.7016 723.3747,-72.6181 732.1975,-78.4839 733.9298,-71.7016"/>
</g>
<!-- Node22 -->
<g id="node11" class="node">
<title>Node22</title>
<g id="a_node11"><a xlink:href="prevector_8h.html" target="_top" xlink:title="prevector.h">
<polygon fill="#ffffff" stroke="#ff0000" points="779.5,-56.5 779.5,-75.5 844.5,-75.5 844.5,-56.5 779.5,-56.5"/>
<text text-anchor="middle" x="812" y="-63.5" font-family="Helvetica,sans-Serif" font-size="10.00" fill="#000000">prevector.h</text>
</a>
</g>
</g>
<!-- Node8&#45;&gt;Node22 -->
<g id="edge11" class="edge">
<title>Node8&#45;&gt;Node22</title>
<path fill="none" stroke="#191970" d="M970.2132,-112.878C938.7012,-103.5411 889.4965,-88.9619 854.33,-78.5422"/>
<polygon fill="#191970" stroke="#191970" points="854.9391,-75.0724 844.3568,-75.5872 852.9505,-81.784 854.9391,-75.0724"/>
</g>
<!-- Node22&#45;&gt;Node11 -->
<g id="edge12" class="edge">
<title>Node22&#45;&gt;Node11</title>
<path fill="none" stroke="#191970" d="M825.9349,-56.2455C838.0947,-47.7337 855.9464,-35.2375 870.0285,-25.3801"/>
<polygon fill="#191970" stroke="#191970" points="872.0395,-28.2447 878.2248,-19.6427 868.0253,-22.51 872.0395,-28.2447"/>
</g>
<!-- Node26&#45;&gt;Node16 -->
<g id="edge62" class="edge">
<title>Node26&#45;&gt;Node16</title>
<path fill="none" stroke="#191970" d="M719.8608,-289.2825C612.8355,-286.0998 262.9268,-269.5218 195,-188 169.9568,-157.9446 195.0968,-110.2664 212.4817,-84.3088"/>
<polygon fill="#191970" stroke="#191970" points="215.5681,-86.0025 218.4285,-75.8011 209.8307,-81.9922 215.5681,-86.0025"/>
</g>
<!-- Node26&#45;&gt;Node18 -->
<g id="edge63" class="edge">
<title>Node26&#45;&gt;Node18</title>
<path fill="none" stroke="#191970" d="M726.5135,-280.4865C703.8642,-271.5377 669.3671,-257.528 640,-244 515.3291,-186.5702 370.2528,-109.365 313.9951,-79.0199"/>
<polygon fill="#191970" stroke="#191970" points="315.6058,-75.912 305.1442,-74.2368 312.2777,-82.0703 315.6058,-75.912"/>
</g>
<!-- Node26&#45;&gt;Node11 -->
<g id="edge64" class="edge">
<title>Node26&#45;&gt;Node11</title>
<path fill="none" stroke="#191970" d="M719.8386,-288.4882C624.5439,-283.6547 338.0446,-267.5048 248,-244 178.3131,-225.8093 100,-250.0219 100,-178 100,-178 100,-178 100,-122 100,-74.1711 140.281,-72.9652 185,-56 248.1944,-32.0257 724.0505,-15.3096 857.3737,-11.0612"/>
<polygon fill="#191970" stroke="#191970" points="857.5522,-14.5575 867.4368,-10.7436 857.3313,-7.5609 857.5522,-14.5575"/>
</g>
<!-- Node26&#45;&gt;Node21 -->
<g id="edge65" class="edge">
<title>Node26&#45;&gt;Node21</title>
<path fill="none" stroke="#191970" d="M759.5907,-280.3391C783.4969,-252.241 846.637,-168.9392 809,-112 792.3077,-86.7469 758.6274,-75.3124 733.2921,-70.1624"/>
<polygon fill="#191970" stroke="#191970" points="733.824,-66.7019 723.3616,-68.3719 732.5818,-73.5909 733.824,-66.7019"/>
</g>
<!-- Node26&#45;&gt;Node27 -->
<g id="edge16" class="edge">
<title>Node26&#45;&gt;Node27</title>
<path fill="none" stroke="#191970" d="M782.0958,-281.0239C851.1622,-261.0872 1017.4444,-213.0882 1096.2263,-190.3471"/>
<polygon fill="#191970" stroke="#191970" points="1097.2031,-193.7081 1105.8401,-187.5719 1095.2617,-186.9827 1097.2031,-193.7081"/>
</g>
<!-- Node26&#45;&gt;Node43 -->
<g id="edge36" class="edge">
<title>Node26&#45;&gt;Node43</title>
<path fill="none" stroke="#191970" d="M782.3252,-285.559C853.575,-275.4577 1027.667,-250.7763 1106.2995,-239.6284"/>
<polygon fill="#191970" stroke="#191970" points="1106.886,-243.0804 1116.2956,-238.2113 1105.9033,-236.1497 1106.886,-243.0804"/>
</g>
<!-- Node26&#45;&gt;Node49 -->
<g id="edge46" class="edge">
<title>Node26&#45;&gt;Node49</title>
<path fill="none" stroke="#191970" d="M782.0922,-287.0287C881.131,-277.5643 1189.0925,-248.1345 1298.1976,-237.7081"/>
<polygon fill="#191970" stroke="#191970" points="1298.7988,-241.1667 1308.4205,-236.7311 1298.1328,-234.1984 1298.7988,-241.1667"/>
</g>
<!-- Node26&#45;&gt;Node51 -->
<g id="edge49" class="edge">
<title>Node26&#45;&gt;Node51</title>
<path fill="none" stroke="#191970" d="M752.4724,-280.4862C756.5824,-253.9293 768.2459,-178.5651 773.8791,-142.1655"/>
<polygon fill="#191970" stroke="#191970" points="777.4083,-142.2456 775.479,-131.8279 770.4907,-141.1749 777.4083,-142.2456"/>
</g>
<!-- Node56 -->
<g id="node34" class="node">
<title>Node56</title>
<g id="a_node34"><a xlink:href="timedata_8h.html" target="_top" xlink:title="timedata.h">
<polygon fill="#ffffff" stroke="#ff0000" points="432,-112.5 432,-131.5 494,-131.5 494,-112.5 432,-112.5"/>
<text text-anchor="middle" x="463" y="-119.5" font-family="Helvetica,sans-Serif" font-size="10.00" fill="#000000">timedata.h</text>
</a>
</g>
</g>
<!-- Node26&#45;&gt;Node56 -->
<g id="edge50" class="edge">
<title>Node26&#45;&gt;Node56</title>
<path fill="none" stroke="#191970" d="M734.6907,-280.4862C686.7854,-252.5415 546.2369,-170.5549 488.3554,-136.7906"/>
<polygon fill="#191970" stroke="#191970" points="489.8888,-133.6332 479.4874,-131.6177 486.3616,-139.6796 489.8888,-133.6332"/>
</g>
<!-- Node57 -->
<g id="node35" class="node">
<title>Node57</title>
<g id="a_node35"><a xlink:href="util_8h.html" target="_top" xlink:title="util.h">
<polygon fill="#ffffff" stroke="#ff0000" points="685,-168.5 685,-187.5 723,-187.5 723,-168.5 685,-168.5"/>
<text text-anchor="middle" x="704" y="-175.5" font-family="Helvetica,sans-Serif" font-size="10.00" fill="#000000">util.h</text>
</a>
</g>
</g>
<!-- Node26&#45;&gt;Node57 -->
<g id="edge53" class="edge">
<title>Node26&#45;&gt;Node57</title>
<path fill="none" stroke="#191970" d="M746.9928,-280.4509C739.2578,-262.0186 722.1392,-221.2254 711.9913,-197.043"/>
<polygon fill="#191970" stroke="#191970" points="715.094,-195.3915 707.9971,-187.5249 708.6393,-198.1002 715.094,-195.3915"/>
</g>
<!-- Node27&#45;&gt;Node4 -->
<g id="edge34" class="edge">
<title>Node27&#45;&gt;Node4</title>
<path fill="none" stroke="#191970" d="M1125.2824,-168.3119C1100.3572,-150.79 1049.3394,-115.3299 1040,-112 887.4148,-57.5959 833.7131,-108.2794 670.6891,-75.6541"/>
<polygon fill="#191970" stroke="#191970" points="671.3176,-72.21 660.8149,-73.6037 669.8944,-79.0638 671.3176,-72.21"/>
</g>
<!-- Node27&#45;&gt;Node8 -->
<g id="edge32" class="edge">
<title>Node27&#45;&gt;Node8</title>
<path fill="none" stroke="#191970" d="M1115.277,-168.3733C1092.8263,-159.2629 1058.9261,-145.5062 1033.8745,-135.3404"/>
<polygon fill="#191970" stroke="#191970" points="1034.9957,-132.0182 1024.4135,-131.5011 1032.3635,-138.5045 1034.9957,-132.0182"/>
</g>
<!-- Node27&#45;&gt;Node11 -->
<g id="edge33" class="edge">
<title>Node27&#45;&gt;Node11</title>
<path fill="none" stroke="#191970" d="M1175.5915,-176.4007C1274.904,-171.7746 1547.8168,-157.0866 1634,-132 1652.7034,-126.5557 1654.3022,-117.4633 1673,-112 1754.7197,-88.1223 2110.9959,-117.3818 2052,-56 2031.9854,-35.1759 1117.2539,-14.7527 926.5941,-10.7177"/>
<polygon fill="#191970" stroke="#191970" points="926.6395,-7.218 916.5679,-10.5065 926.492,-14.2164 926.6395,-7.218"/>
</g>
<!-- Node27&#45;&gt;Node21 -->
<g id="edge35" class="edge">
<title>Node27&#45;&gt;Node21</title>
<path fill="none" stroke="#191970" d="M1132.7737,-168.3634C1122.5275,-153.4174 1100.5748,-125.0163 1074,-112 951.814,-52.1537 904.8912,-93.7586 770,-76 757.9636,-74.4154 744.7674,-72.5375 733.1677,-70.8393"/>
<polygon fill="#191970" stroke="#191970" points="733.4469,-67.3427 723.0428,-69.3439 732.424,-74.2675 733.4469,-67.3427"/>
</g>
<!-- Node27&#45;&gt;Node28 -->
<g id="edge17" class="edge">
<title>Node27&#45;&gt;Node28</title>
<path fill="none" stroke="#191970" d="M1175.7059,-173.5119C1260.8663,-163.0993 1471.2388,-137.3769 1558.3089,-126.7308"/>
<polygon fill="#191970" stroke="#191970" points="1558.798,-130.1971 1568.2993,-125.5093 1557.9484,-123.2489 1558.798,-130.1971"/>
</g>
<!-- Node29 -->
<g id="node15" class="node">
<title>Node29</title>
<polygon fill="#ffffff" stroke="#bfbfbf" points="1315,-56.5 1315,-75.5 1377,-75.5 1377,-56.5 1315,-56.5"/>
<text text-anchor="middle" x="1346" y="-63.5" font-family="Helvetica,sans-Serif" font-size="10.00" fill="#000000">sys/fcntl.h</text>
</g>
<!-- Node28&#45;&gt;Node29 -->
<g id="edge18" class="edge">
<title>Node28&#45;&gt;Node29</title>
<path fill="none" stroke="#191970" d="M1568.3347,-115.2605C1563.5511,-114.1568 1558.6377,-113.0361 1554,-112 1482.5321,-96.0338 1462.0442,-93.4585 1387.3132,-76.2517"/>
<polygon fill="#191970" stroke="#191970" points="1387.9503,-72.8067 1377.4186,-73.9614 1386.3717,-79.6264 1387.9503,-72.8067"/>
</g>
<!-- Node30 -->
<g id="node16" class="node">
<title>Node30</title>
<polygon fill="#ffffff" stroke="#bfbfbf" points="1395.5,-56.5 1395.5,-75.5 1466.5,-75.5 1466.5,-56.5 1395.5,-56.5"/>
<text text-anchor="middle" x="1431" y="-63.5" font-family="Helvetica,sans-Serif" font-size="10.00" fill="#000000">sys/mman.h</text>
</g>
<!-- Node28&#45;&gt;Node30 -->
<g id="edge19" class="edge">
<title>Node28&#45;&gt;Node30</title>
<path fill="none" stroke="#191970" d="M1568.4636,-112.3733C1540.9798,-103.1016 1499.2314,-89.0178 1468.9548,-78.804"/>
<polygon fill="#191970" stroke="#191970" points="1469.7582,-75.3813 1459.164,-75.5011 1467.5206,-82.0141 1469.7582,-75.3813"/>
</g>
<!-- Node31 -->
<g id="node17" class="node">
<title>Node31</title>
<polygon fill="#ffffff" stroke="#bfbfbf" points="1485,-56.5 1485,-75.5 1555,-75.5 1555,-56.5 1485,-56.5"/>
<text text-anchor="middle" x="1520" y="-63.5" font-family="Helvetica,sans-Serif" font-size="10.00" fill="#000000">sys/select.h</text>
</g>
<!-- Node28&#45;&gt;Node31 -->
<g id="edge20" class="edge">
<title>Node28&#45;&gt;Node31</title>
<path fill="none" stroke="#191970" d="M1583.5876,-112.2455C1571.9943,-103.814 1555.0252,-91.4729 1541.5322,-81.6598"/>
<polygon fill="#191970" stroke="#191970" points="1543.4047,-78.6938 1533.2587,-75.6427 1539.2874,-84.355 1543.4047,-78.6938"/>
</g>
<!-- Node32 -->
<g id="node18" class="node">
<title>Node32</title>
<polygon fill="#ffffff" stroke="#bfbfbf" points="1573.5,-56.5 1573.5,-75.5 1646.5,-75.5 1646.5,-56.5 1573.5,-56.5"/>
<text text-anchor="middle" x="1610" y="-63.5" font-family="Helvetica,sans-Serif" font-size="10.00" fill="#000000">sys/socket.h</text>
</g>
<!-- Node28&#45;&gt;Node32 -->
<g id="edge21" class="edge">
<title>Node28&#45;&gt;Node32</title>
<path fill="none" stroke="#191970" d="M1599.2644,-112.2455C1600.9794,-104.8579 1603.3912,-94.4689 1605.4944,-85.4087"/>
<polygon fill="#191970" stroke="#191970" points="1608.9095,-86.1751 1607.7615,-75.6427 1602.0908,-84.5922 1608.9095,-86.1751"/>
</g>
<!-- Node33 -->
<g id="node19" class="node">
<title>Node33</title>
<polygon fill="#ffffff" stroke="#bfbfbf" points="1665,-56.5 1665,-75.5 1733,-75.5 1733,-56.5 1665,-56.5"/>
<text text-anchor="middle" x="1699" y="-63.5" font-family="Helvetica,sans-Serif" font-size="10.00" fill="#000000">sys/types.h</text>
</g>
<!-- Node28&#45;&gt;Node33 -->
<g id="edge22" class="edge">
<title>Node28&#45;&gt;Node33</title>
<path fill="none" stroke="#191970" d="M1614.767,-112.2455C1630.7095,-103.4928 1654.3259,-90.527 1672.4989,-80.5496"/>
<polygon fill="#191970" stroke="#191970" points="1674.3552,-83.5233 1681.4366,-75.6427 1670.9863,-77.3873 1674.3552,-83.5233"/>
</g>
<!-- Node34 -->
<g id="node20" class="node">
<title>Node34</title>
<polygon fill="#ffffff" stroke="#bfbfbf" points="1751.5,-56.5 1751.5,-75.5 1798.5,-75.5 1798.5,-56.5 1751.5,-56.5"/>
<text text-anchor="middle" x="1775" y="-63.5" font-family="Helvetica,sans-Serif" font-size="10.00" fill="#000000">net/if.h</text>
</g>
<!-- Node28&#45;&gt;Node34 -->
<g id="edge23" class="edge">
<title>Node28&#45;&gt;Node34</title>
<path fill="none" stroke="#191970" d="M1625.5988,-113.0026C1657.2155,-103.0558 1708.0875,-87.0511 1741.5331,-76.5289"/>
<polygon fill="#191970" stroke="#191970" points="1742.824,-79.792 1751.3127,-73.4522 1740.7232,-73.1146 1742.824,-79.792"/>
</g>
<!-- Node35 -->
<g id="node21" class="node">
<title>Node35</title>
<polygon fill="#ffffff" stroke="#bfbfbf" points="1816.5,-56.5 1816.5,-75.5 1881.5,-75.5 1881.5,-56.5 1816.5,-56.5"/>
<text text-anchor="middle" x="1849" y="-63.5" font-family="Helvetica,sans-Serif" font-size="10.00" fill="#000000">netinet/in.h</text>
</g>
<!-- Node28&#45;&gt;Node35 -->
<g id="edge24" class="edge">
<title>Node28&#45;&gt;Node35</title>
<path fill="none" stroke="#191970" d="M1625.6663,-115.2654C1630.4499,-114.1612 1635.363,-113.0389 1640,-112 1711.0515,-96.081 1731.3132,-93.0314 1806.4998,-76.0751"/>
<polygon fill="#191970" stroke="#191970" points="1807.4763,-79.4427 1816.4567,-73.8211 1805.9307,-72.6155 1807.4763,-79.4427"/>
</g>
<!-- Node36 -->
<g id="node22" class="node">
<title>Node36</title>
<polygon fill="#ffffff" stroke="#bfbfbf" points="1899.5,-56.5 1899.5,-75.5 1970.5,-75.5 1970.5,-56.5 1899.5,-56.5"/>
<text text-anchor="middle" x="1935" y="-63.5" font-family="Helvetica,sans-Serif" font-size="10.00" fill="#000000">netinet/tcp.h</text>
</g>
<!-- Node28&#45;&gt;Node36 -->
<g id="edge25" class="edge">
<title>Node28&#45;&gt;Node36</title>
<path fill="none" stroke="#191970" d="M1625.6087,-114.9853C1630.3991,-113.9147 1635.3295,-112.8763 1640,-112 1747.6273,-91.8056 1778.4524,-96.2263 1889.1447,-76.2357"/>
<polygon fill="#191970" stroke="#191970" points="1889.8253,-79.6694 1899.0308,-74.4244 1888.5637,-72.784 1889.8253,-79.6694"/>
</g>
<!-- Node28&#45;&gt;Node37 -->
<g id="edge26" class="edge">
<title>Node28&#45;&gt;Node37</title>
<path fill="none" stroke="#191970" d="M1625.8396,-117.9419C1640.0279,-116.0126 1657.3943,-113.7512 1673,-112 1760.7046,-102.1584 2024.1899,-78.6839 2126.6282,-69.6394"/>
<polygon fill="#191970" stroke="#191970" points="2127.2302,-73.1 2136.8839,-68.7346 2126.6149,-66.1271 2127.2302,-73.1"/>
</g>
<!-- Node38 -->
<g id="node24" class="node">
<title>Node38</title>
<polygon fill="#ffffff" stroke="#bfbfbf" points="1989,-56.5 1989,-75.5 2043,-75.5 2043,-56.5 1989,-56.5"/>
<text text-anchor="middle" x="2016" y="-63.5" font-family="Helvetica,sans-Serif" font-size="10.00" fill="#000000">ifaddrs.h</text>
</g>
<!-- Node28&#45;&gt;Node38 -->
<g id="edge27" class="edge">
<title>Node28&#45;&gt;Node38</title>
<path fill="none" stroke="#191970" d="M1625.5822,-114.8363C1630.3758,-113.7837 1635.3141,-112.7899 1640,-112 1786.6227,-87.2849 1828.9207,-103.692 1978.9466,-75.9148"/>
<polygon fill="#191970" stroke="#191970" points="1979.809,-79.3139 1988.9866,-74.0203 1978.511,-72.4353 1979.809,-79.3139"/>
</g>
<!-- Node39 -->
<g id="node25" class="node">
<title>Node39</title>
<polygon fill="#ffffff" stroke="#bfbfbf" points="1047,-56.5 1047,-75.5 1095,-75.5 1095,-56.5 1047,-56.5"/>
<text text-anchor="middle" x="1071" y="-63.5" font-family="Helvetica,sans-Serif" font-size="10.00" fill="#000000">limits.h</text>
</g>
<!-- Node28&#45;&gt;Node39 -->
<g id="edge28" class="edge">
<title>Node28&#45;&gt;Node39</title>
<path fill="none" stroke="#191970" d="M1568.4346,-114.7327C1563.639,-113.6925 1558.6956,-112.7297 1554,-112 1358.9351,-81.6876 1302.9368,-112.2889 1104.8499,-75.7721"/>
<polygon fill="#191970" stroke="#191970" points="1105.4762,-72.3286 1095.0021,-73.9234 1104.1846,-79.2084 1105.4762,-72.3286"/>
</g>
<!-- Node40 -->
<g id="node26" class="node">
<title>Node40</title>
<polygon fill="#ffffff" stroke="#bfbfbf" points="1113.5,-56.5 1113.5,-75.5 1162.5,-75.5 1162.5,-56.5 1113.5,-56.5"/>
<text text-anchor="middle" x="1138" y="-63.5" font-family="Helvetica,sans-Serif" font-size="10.00" fill="#000000">netdb.h</text>
</g>
<!-- Node28&#45;&gt;Node40 -->
<g id="edge29" class="edge">
<title>Node28&#45;&gt;Node40</title>
<path fill="none" stroke="#191970" d="M1568.4257,-114.7888C1563.6311,-113.7419 1558.6904,-112.7623 1554,-112 1388.4552,-85.0962 1340.5804,-108.0473 1172.649,-76.0048"/>
<polygon fill="#191970" stroke="#191970" points="1173.2159,-72.5496 1162.7316,-74.0758 1171.8793,-79.4208 1173.2159,-72.5496"/>
</g>
<!-- Node41 -->
<g id="node27" class="node">
<title>Node41</title>
<polygon fill="#ffffff" stroke="#bfbfbf" points="1180.5,-56.5 1180.5,-75.5 1231.5,-75.5 1231.5,-56.5 1180.5,-56.5"/>
<text text-anchor="middle" x="1206" y="-63.5" font-family="Helvetica,sans-Serif" font-size="10.00" fill="#000000">unistd.h</text>
</g>
<!-- Node28&#45;&gt;Node41 -->
<g id="edge30" class="edge">
<title>Node28&#45;&gt;Node41</title>
<path fill="none" stroke="#191970" d="M1568.4118,-114.8713C1563.6189,-113.8144 1558.6824,-112.8102 1554,-112 1418.8308,-88.613 1379.4996,-103.199 1241.6031,-76.0404"/>
<polygon fill="#191970" stroke="#191970" points="1241.995,-72.5493 1231.5016,-74.0117 1240.6167,-79.4122 1241.995,-72.5493"/>
</g>
<!-- Node42 -->
<g id="node28" class="node">
<title>Node42</title>
<polygon fill="#ffffff" stroke="#bfbfbf" points="1249.5,-56.5 1249.5,-75.5 1296.5,-75.5 1296.5,-56.5 1249.5,-56.5"/>
<text text-anchor="middle" x="1273" y="-63.5" font-family="Helvetica,sans-Serif" font-size="10.00" fill="#000000">errno.h</text>
</g>
<!-- Node28&#45;&gt;Node42 -->
<g id="edge31" class="edge">
<title>Node28&#45;&gt;Node42</title>
<path fill="none" stroke="#191970" d="M1568.39,-114.9922C1563.5997,-113.9208 1558.6697,-112.8803 1554,-112 1447.65,-91.9517 1416.4664,-99.7406 1306.4998,-75.8146"/>
<polygon fill="#191970" stroke="#191970" points="1307.2003,-72.385 1296.6801,-73.6403 1305.6869,-79.2195 1307.2003,-72.385"/>
</g>
<!-- Node43&#45;&gt;Node4 -->
<g id="edge45" class="edge">
<title>Node43&#45;&gt;Node4</title>
<path fill="none" stroke="#191970" d="M1116.1755,-231.0672C1056.3684,-224.8156 924.0828,-209.0161 884,-188 841.9709,-165.9635 850.1187,-135.6919 809,-112 756.2976,-81.6338 733.3776,-92.8927 670.2173,-75.8067"/>
<polygon fill="#191970" stroke="#191970" points="671.1742,-72.4401 660.5982,-73.0718 669.2598,-79.1733 671.1742,-72.4401"/>
</g>
<!-- Node43&#45;&gt;Node8 -->
<g id="edge38" class="edge">
<title>Node43&#45;&gt;Node8</title>
<path fill="none" stroke="#191970" d="M1133.6374,-224.4509C1108.704,-205.1921 1052.1667,-161.5218 1021.5764,-137.8935"/>
<polygon fill="#191970" stroke="#191970" points="1023.3849,-134.8679 1013.3313,-131.5249 1019.1059,-140.4078 1023.3849,-134.8679"/>
</g>
<!-- Node43&#45;&gt;Node11 -->
<g id="edge44" class="edge">
<title>Node43&#45;&gt;Node11</title>
<path fill="none" stroke="#191970" d="M1175.7215,-231.6761C1231.1603,-226.8776 1353.8011,-214.0707 1454,-188 1478.3656,-181.6603 1482.4907,-173.7596 1507,-168 1661.812,-131.6197 1706.3018,-159.1285 1863,-132 1899.5376,-125.6744 1907.5778,-118.9594 1944,-112 2061.8126,-89.4889 2291.3187,-142.2819 2208,-56 2185.0856,-32.2707 1133.1957,-13.9292 926.8939,-10.5568"/>
<polygon fill="#191970" stroke="#191970" points="926.6985,-7.0533 916.6429,-10.3902 926.5846,-14.0524 926.6985,-7.0533"/>
</g>
<!-- Node43&#45;&gt;Node27 -->
<g id="edge37" class="edge">
<title>Node43&#45;&gt;Node27</title>
<path fill="none" stroke="#191970" d="M1144.7807,-224.2455C1143.8673,-216.9382 1142.5868,-206.6944 1141.4631,-197.7046"/>
<polygon fill="#191970" stroke="#191970" points="1144.9187,-197.1313 1140.2053,-187.6427 1137.9728,-197.9996 1144.9187,-197.1313"/>
</g>
<!-- Node43&#45;&gt;Node44 -->
<g id="edge39" class="edge">
<title>Node43&#45;&gt;Node44</title>
<path fill="none" stroke="#191970" d="M1154.3909,-224.3172C1162.2533,-215.1351 1174.2261,-200.8685 1184,-188 1196.0802,-172.095 1209.0178,-153.3651 1218.0856,-139.929"/>
<polygon fill="#191970" stroke="#191970" points="1221.0262,-141.828 1223.6869,-131.5726 1215.2117,-137.9304 1221.0262,-141.828"/>
</g>
<!-- Node48 -->
<g id="node31" class="node">
<title>Node48</title>
<g id="a_node31"><a xlink:href="version_8h.html" target="_top" xlink:title="version.h">
<polygon fill="#ffffff" stroke="#000000" points="1276,-112.5 1276,-131.5 1332,-131.5 1332,-112.5 1276,-112.5"/>
<text text-anchor="middle" x="1304" y="-119.5" font-family="Helvetica,sans-Serif" font-size="10.00" fill="#000000">version.h</text>
</a>
</g>
</g>
<!-- Node43&#45;&gt;Node48 -->
<g id="edge43" class="edge">
<title>Node43&#45;&gt;Node48</title>
<path fill="none" stroke="#191970" d="M1159.471,-224.4509C1186.7563,-205.1094 1248.7754,-161.1465 1282.0064,-137.5904"/>
<polygon fill="#191970" stroke="#191970" points="1284.429,-140.1633 1290.5631,-131.5249 1280.3808,-134.4526 1284.429,-140.1633"/>
</g>
<!-- Node44&#45;&gt;Node4 -->
<g id="edge41" class="edge">
<title>Node44&#45;&gt;Node4</title>
<path fill="none" stroke="#191970" d="M1201.9058,-113.9758C1198.5864,-113.2155 1195.231,-112.5317 1192,-112 965.7841,-74.7758 899.9871,-119.8189 670.7778,-75.6407"/>
<polygon fill="#191970" stroke="#191970" points="671.286,-72.1737 660.799,-73.6813 669.9372,-79.0426 671.286,-72.1737"/>
</g>
<!-- Node44&#45;&gt;Node11 -->
<g id="edge40" class="edge">
<title>Node44&#45;&gt;Node11</title>
<path fill="none" stroke="#191970" d="M1201.8648,-114.2001C1198.5527,-113.3995 1195.2103,-112.6449 1192,-112 1078.9217,-89.2841 1032.3345,-137.8766 935,-76 917.7461,-65.0315 905.9796,-44.3654 899.1756,-29.0688"/>
<polygon fill="#191970" stroke="#191970" points="902.2905,-27.4405 895.2515,-19.5219 895.8161,-30.1017 902.2905,-27.4405"/>
</g>
<!-- Node44&#45;&gt;Node21 -->
<g id="edge42" class="edge">
<title>Node44&#45;&gt;Node21</title>
<path fill="none" stroke="#191970" d="M1201.897,-114.0278C1198.5792,-113.2581 1195.2266,-112.5579 1192,-112 1006.5155,-79.9287 957.0039,-97.5086 770,-76 757.9393,-74.6128 744.7378,-72.7776 733.1407,-71.0584"/>
<polygon fill="#191970" stroke="#191970" points="733.4309,-67.5626 723.02,-69.5283 732.3845,-74.4839 733.4309,-67.5626"/>
</g>
<!-- Node49&#45;&gt;Node11 -->
<g id="edge48" class="edge">
<title>Node49&#45;&gt;Node11</title>
<path fill="none" stroke="#191970" d="M1365.624,-230.2535C1450.4737,-218.8733 1707.7656,-182.3813 1917,-132 1946.3856,-124.9243 1952.5137,-118.6437 1982,-112 2091.811,-87.2579 2307.2142,-136.9515 2229,-56 2205.6898,-31.874 1134.8425,-13.8191 926.8061,-10.5359"/>
<polygon fill="#191970" stroke="#191970" points="926.801,-7.0355 916.7473,-10.3781 926.6911,-14.0346 926.801,-7.0355"/>
</g>
<!-- Node49&#45;&gt;Node44 -->
<g id="edge47" class="edge">
<title>Node49&#45;&gt;Node44</title>
<path fill="none" stroke="#191970" d="M1332.1398,-224.2547C1325.0351,-210.6346 1310.8146,-185.6022 1294,-168 1282.6675,-156.1367 1267.9116,-145.2955 1255.4247,-137.1213"/>
<polygon fill="#191970" stroke="#191970" points="1257.1349,-134.0614 1246.8148,-131.6641 1253.3874,-139.9738 1257.1349,-134.0614"/>
</g>
<!-- Node56&#45;&gt;Node11 -->
<g id="edge51" class="edge">
<title>Node56&#45;&gt;Node11</title>
<path fill="none" stroke="#191970" d="M475.8808,-112.316C496.2038,-97.5709 537.4744,-69.7553 577,-56 628.2619,-38.1603 786.2958,-20.6166 857.0824,-13.4165"/>
<polygon fill="#191970" stroke="#191970" points="857.6689,-16.8752 867.2678,-12.3907 856.9674,-9.9104 857.6689,-16.8752"/>
</g>
<!-- Node56&#45;&gt;Node21 -->
<g id="edge52" class="edge">
<title>Node56&#45;&gt;Node21</title>
<path fill="none" stroke="#191970" d="M494.2568,-115.8643C534.7918,-107.7147 607.5795,-92.4241 669,-76 669.0984,-75.9737 669.197,-75.9473 669.2956,-75.9207"/>
<polygon fill="#191970" stroke="#191970" points="670.0387,-79.3487 678.6895,-73.232 668.1125,-72.6189 670.0387,-79.3487"/>
</g>
<!-- Node57&#45;&gt;Node2 -->
<g id="edge55" class="edge">
<title>Node57&#45;&gt;Node2</title>
<path fill="none" stroke="#191970" d="M693.3746,-168.2455C684.4527,-160.0549 671.512,-148.1749 660.9808,-138.5069"/>
<polygon fill="#191970" stroke="#191970" points="663.2371,-135.8271 653.5036,-131.6427 658.5032,-140.9837 663.2371,-135.8271"/>
</g>
<!-- Node57&#45;&gt;Node4 -->
<g id="edge60" class="edge">
<title>Node57&#45;&gt;Node4</title>
<path fill="none" stroke="#191970" d="M698.7773,-168.0789C691.8989,-155.094 679.3448,-131.6739 668,-112 662.7065,-102.8201 656.6116,-92.7518 651.4627,-84.3812"/>
<polygon fill="#191970" stroke="#191970" points="654.3838,-82.4504 646.1444,-75.7898 648.4319,-86.1348 654.3838,-82.4504"/>
</g>
<!-- Node57&#45;&gt;Node16 -->
<g id="edge58" class="edge">
<title>Node57&#45;&gt;Node16</title>
<path fill="none" stroke="#191970" d="M684.8765,-170.5959C681.9332,-169.624 678.9065,-168.718 676,-168 565.7375,-140.7616 532.2867,-162.9219 423,-132 401.5489,-125.9306 397.9193,-119.7053 377,-112 334.6735,-96.4096 284.3542,-81.8514 253.8167,-73.4428"/>
<polygon fill="#191970" stroke="#191970" points="254.4544,-69.9889 243.8858,-70.7334 252.612,-76.7421 254.4544,-69.9889"/>
</g>
<!-- Node57&#45;&gt;Node11 -->
<g id="edge59" class="edge">
<title>Node57&#45;&gt;Node11</title>
<path fill="none" stroke="#191970" d="M684.7432,-170.2975C661.7527,-160.6996 625.3497,-144.0905 617,-132 597.7242,-104.0884 588.0298,-81.8443 610,-56 625.8531,-37.3514 784.8807,-20.1157 856.8936,-13.1989"/>
<polygon fill="#191970" stroke="#191970" points="857.6394,-16.644 867.2648,-12.2165 856.9792,-9.6752 857.6394,-16.644"/>
</g>
<!-- Node57&#45;&gt;Node21 -->
<g id="edge61" class="edge">
<title>Node57&#45;&gt;Node21</title>
<path fill="none" stroke="#191970" d="M703.7442,-168.4509C703.2549,-150.184 702.1774,-109.9553 701.5276,-85.6976"/>
<polygon fill="#191970" stroke="#191970" points="705.0217,-85.4276 701.2551,-75.5249 698.0242,-85.6151 705.0217,-85.4276"/>
</g>
<!-- Node57&#45;&gt;Node28 -->
<g id="edge54" class="edge">
<title>Node57&#45;&gt;Node28</title>
<path fill="none" stroke="#191970" d="M723.1794,-176.8355C807.9899,-171.6808 1157.8316,-150.3597 1445,-132 1483.4819,-129.5397 1527.4373,-126.638 1558.1476,-124.5958"/>
<polygon fill="#191970" stroke="#191970" points="1558.6817,-128.0681 1568.4271,-123.9114 1558.2166,-121.0835 1558.6817,-128.0681"/>
</g>
<!-- Node57&#45;&gt;Node51 -->
<g id="edge56" class="edge">
<title>Node57&#45;&gt;Node51</title>
<path fill="none" stroke="#191970" d="M716.7156,-168.2455C727.602,-159.8943 743.4883,-147.7076 756.22,-137.9408"/>
<polygon fill="#191970" stroke="#191970" points="758.6261,-140.5063 764.4301,-131.6427 754.3654,-134.9523 758.6261,-140.5063"/>
</g>
<!-- Node57&#45;&gt;Node63 -->
<g id="edge57" class="edge">
<title>Node57&#45;&gt;Node63</title>
<path fill="none" stroke="#191970" d="M723.1744,-176.8164C756.0687,-174.8125 825.3783,-170.706 884,-168 1318.9421,-147.9232 1428.0459,-151.815 1863,-132 1915.6478,-129.6016 1976.732,-126.1489 2013.5932,-123.992"/>
<polygon fill="#191970" stroke="#191970" points="2013.9925,-127.4747 2023.7697,-123.3935 2013.5814,-120.4868 2013.9925,-127.4747"/>
</g>
<!-- Node66&#45;&gt;Node11 -->
<g id="edge67" class="edge">
<title>Node66&#45;&gt;Node11</title>
<path fill="none" stroke="#191970" d="M1126.373,-115.0795C1121.5848,-113.9976 1116.6599,-112.931 1112,-112 1064.496,-102.5089 929.6735,-111.7653 897,-76 885.8829,-63.8309 885.654,-44.5786 887.602,-30.0009"/>
<polygon fill="#191970" stroke="#191970" points="891.0829,-30.4149 889.3717,-19.9592 884.1891,-29.1999 891.0829,-30.4149"/>
</g>
<!-- Node67&#45;&gt;Node8 -->
<g id="edge69" class="edge">
<title>Node67&#45;&gt;Node8</title>
<path fill="none" stroke="#191970" d="M933.2833,-168.2455C945.747,-159.7337 964.0451,-147.2375 978.4792,-137.3801"/>
<polygon fill="#191970" stroke="#191970" points="980.5962,-140.1726 986.8804,-131.6427 976.6485,-134.392 980.5962,-140.1726"/>
</g>
<!-- Node67&#45;&gt;Node21 -->
<g id="edge70" class="edge">
<title>Node67&#45;&gt;Node21</title>
<path fill="none" stroke="#191970" d="M922.2534,-168.2145C926.2765,-154.0867 931.1067,-127.9281 918,-112 912.0992,-104.829 791.8606,-82.3431 732.9611,-71.6967"/>
<polygon fill="#191970" stroke="#191970" points="733.5152,-68.2403 723.0532,-69.913 732.2748,-75.1295 733.5152,-68.2403"/>
</g>
<!-- Node68&#45;&gt;Node8 -->
<g id="edge81" class="edge">
<title>Node68&#45;&gt;Node8</title>
<path fill="none" stroke="#191970" d="M1398.7655,-174.9094C1330.2712,-165.7985 1128.5217,-138.9625 1041.6007,-127.4006"/>
<polygon fill="#191970" stroke="#191970" points="1041.9607,-123.9177 1031.5865,-126.0685 1041.0377,-130.8566 1041.9607,-123.9177"/>
</g>
<!-- Node68&#45;&gt;Node21 -->
<g id="edge84" class="edge">
<title>Node68&#45;&gt;Node21</title>
<path fill="none" stroke="#191970" d="M1430.851,-168.194C1442.5517,-154.0404 1460.0274,-127.8502 1445,-112 1393.3252,-57.4958 844.7418,-83.3938 770,-76 757.9187,-74.8049 744.7128,-73.0112 733.1179,-71.2715"/>
<polygon fill="#191970" stroke="#191970" points="733.4182,-67.7765 723.0009,-69.7077 732.3488,-74.6943 733.4182,-67.7765"/>
</g>
<!-- Node68&#45;&gt;Node22 -->
<g id="edge80" class="edge">
<title>Node68&#45;&gt;Node22</title>
<path fill="none" stroke="#191970" d="M1440.2751,-168.3569C1462.8097,-155.2797 1496.0456,-131.335 1478,-112 1475.3272,-109.1363 1001.6807,-78.2703 854.8723,-68.7679"/>
<polygon fill="#191970" stroke="#191970" points="855.083,-65.2743 844.8779,-68.1214 854.6311,-72.2597 855.083,-65.2743"/>
</g>
<!-- Node68&#45;&gt;Node44 -->
<g id="edge82" class="edge">
<title>Node68&#45;&gt;Node44</title>
<path fill="none" stroke="#191970" d="M1398.8403,-171.2451C1366.4292,-161.7918 1307.146,-144.5009 1268.1578,-133.1294"/>
<polygon fill="#191970" stroke="#191970" points="1268.8055,-129.6725 1258.2255,-130.2324 1266.8455,-136.3925 1268.8055,-129.6725"/>
</g>
<!-- Node68&#45;&gt;Node48 -->
<g id="edge83" class="edge">
<title>Node68&#45;&gt;Node48</title>
<path fill="none" stroke="#191970" d="M1401.7151,-168.3733C1382.8579,-159.4241 1354.554,-145.9917 1333.2545,-135.8835"/>
<polygon fill="#191970" stroke="#191970" points="1334.5551,-132.6266 1324.0202,-131.5011 1331.5539,-138.9506 1334.5551,-132.6266"/>
</g>
<!-- Node60 -->
<g id="node40" class="node">
<title>Node60</title>
<polygon fill="#ffffff" stroke="#bfbfbf" points="1682,-112.5 1682,-131.5 1736,-131.5 1736,-112.5 1682,-112.5"/>
<text text-anchor="middle" x="1709" y="-119.5" font-family="Helvetica,sans-Serif" font-size="10.00" fill="#000000">iostream</text>
</g>
<!-- Node68&#45;&gt;Node60 -->
<g id="edge73" class="edge">
<title>Node68&#45;&gt;Node60</title>
<path fill="none" stroke="#191970" d="M1445.3995,-172.8737C1452.9251,-171.2646 1461.3057,-169.5141 1469,-168 1557.1887,-150.6456 1580.0777,-150.6573 1668,-132 1669.2498,-131.7348 1670.5195,-131.4593 1671.8007,-131.1762"/>
<polygon fill="#191970" stroke="#191970" points="1672.7434,-134.5509 1681.7053,-128.8999 1671.1754,-127.7287 1672.7434,-134.5509"/>
</g>
<!-- Node69 -->
<g id="node41" class="node">
<title>Node69</title>
<polygon fill="#ffffff" stroke="#bfbfbf" points="2088,-112.5 2088,-131.5 2134,-131.5 2134,-112.5 2088,-112.5"/>
<text text-anchor="middle" x="2111" y="-119.5" font-family="Helvetica,sans-Serif" font-size="10.00" fill="#000000">chrono</text>
</g>
<!-- Node68&#45;&gt;Node69 -->
<g id="edge74" class="edge">
<title>Node68&#45;&gt;Node69</title>
<path fill="none" stroke="#191970" d="M1445.007,-177.109C1543.9709,-173.1685 1934.5219,-156.4871 2077.8553,-131.7517"/>
<polygon fill="#191970" stroke="#191970" points="2078.5268,-135.1871 2087.7407,-129.9569 2077.2763,-128.2997 2078.5268,-135.1871"/>
</g>
<!-- Node70 -->
<g id="node42" class="node">
<title>Node70</title>
<g id="a_node42"><a xlink:href="ripemd160_8h.html" target="_top" xlink:title="crypto/ripemd160.h">
<polygon fill="#ffffff" stroke="#ff0000" points="1754,-112.5 1754,-131.5 1854,-131.5 1854,-112.5 1754,-112.5"/>
<text text-anchor="middle" x="1804" y="-119.5" font-family="Helvetica,sans-Serif" font-size="10.00" fill="#000000">crypto/ripemd160.h</text>
</a>
</g>
</g>
<!-- Node68&#45;&gt;Node70 -->
<g id="edge75" class="edge">
<title>Node68&#45;&gt;Node70</title>
<path fill="none" stroke="#191970" d="M1445.3575,-172.6454C1452.8808,-171.0242 1461.2708,-169.3242 1469,-168 1587.7144,-147.662 1620.9252,-150.186 1743.6387,-132.1523"/>
<polygon fill="#191970" stroke="#191970" points="1744.4319,-135.5729 1753.8088,-130.6411 1743.403,-128.649 1744.4319,-135.5729"/>
</g>
<!-- Node71 -->
<g id="node43" class="node">
<title>Node71</title>
<g id="a_node43"><a xlink:href="sha256_8h.html" target="_top" xlink:title="crypto/sha256.h">
<polygon fill="#ffffff" stroke="#ff0000" points="1350,-112.5 1350,-131.5 1436,-131.5 1436,-112.5 1350,-112.5"/>
<text text-anchor="middle" x="1393" y="-119.5" font-family="Helvetica,sans-Serif" font-size="10.00" fill="#000000">crypto/sha256.h</text>
</a>
</g>
</g>
<!-- Node68&#45;&gt;Node71 -->
<g id="edge77" class="edge">
<title>Node68&#45;&gt;Node71</title>
<path fill="none" stroke="#191970" d="M1416.9486,-168.2455C1412.9981,-160.617 1407.3903,-149.7881 1402.5942,-140.5267"/>
<polygon fill="#191970" stroke="#191970" points="1405.7001,-138.9131 1397.9935,-131.6427 1399.4841,-142.1321 1405.7001,-138.9131"/>
</g>
<!-- Node70&#45;&gt;Node11 -->
<g id="edge76" class="edge">
<title>Node70&#45;&gt;Node11</title>
<path fill="none" stroke="#191970" d="M1854.0333,-114.016C1934.5586,-101.1383 2084.0648,-77.1008 2085,-76 2090.7553,-69.2259 2091.1631,-62.4053 2085,-56 2064.3831,-34.5728 1121.6453,-14.5889 926.951,-10.6862"/>
<polygon fill="#191970" stroke="#191970" points="926.7899,-7.1824 916.722,-10.4822 926.6502,-14.181 926.7899,-7.1824"/>
</g>
<!-- Node71&#45;&gt;Node4 -->
<g id="edge79" class="edge">
<title>Node71&#45;&gt;Node4</title>
<path fill="none" stroke="#191970" d="M1349.9413,-113.2506C1346.9226,-112.7817 1343.92,-112.3574 1341,-112 1047.8904,-76.1234 965.257,-130.4747 670.9032,-75.6347"/>
<polygon fill="#191970" stroke="#191970" points="671.2669,-72.1415 660.7908,-73.7235 669.9669,-79.0197 671.2669,-72.1415"/>
</g>
<!-- Node71&#45;&gt;Node11 -->
<g id="edge78" class="edge">
<title>Node71&#45;&gt;Node11</title>
<path fill="none" stroke="#191970" d="M1349.9223,-113.3933C1346.9081,-112.8905 1343.9118,-112.4195 1341,-112 1176.1543,-88.2478 1121.0318,-141.7232 968,-76 943.0714,-65.2938 920.4275,-43.2998 906.4653,-27.6464"/>
<polygon fill="#191970" stroke="#191970" points="908.817,-25.0132 899.6424,-19.7143 903.5101,-29.578 908.817,-25.0132"/>
</g>
<!-- Node90&#45;&gt;Node16 -->
<g id="edge86" class="edge">
<title>Node90&#45;&gt;Node16</title>
<path fill="none" stroke="#191970" d="M45.0435,-224.3282C65.1599,-203.0252 115.5091,-150.8604 162,-112 175.0102,-101.1251 190.4215,-89.9997 202.8606,-81.4146"/>
<polygon fill="#191970" stroke="#191970" points="205.0236,-84.1761 211.3161,-75.6522 201.0815,-78.3916 205.0236,-84.1761"/>
</g>
<!-- Node91&#45;&gt;Node4 -->
<g id="edge91" class="edge">
<title>Node91&#45;&gt;Node4</title>
<path fill="none" stroke="#191970" d="M983.9695,-168.4616C953.7847,-154.4065 894.5687,-128.0658 842,-112 770.3728,-90.1097 747.2808,-95.8419 670.6904,-75.9045"/>
<polygon fill="#191970" stroke="#191970" points="671.1259,-72.3983 660.5616,-73.2013 669.3209,-79.1616 671.1259,-72.3983"/>
</g>
<!-- Node91&#45;&gt;Node8 -->
<g id="edge90" class="edge">
<title>Node91&#45;&gt;Node8</title>
<path fill="none" stroke="#191970" d="M1003.4774,-168.2455C1003.086,-160.9382 1002.5372,-150.6944 1002.0556,-141.7046"/>
<polygon fill="#191970" stroke="#191970" points="1005.5466,-141.4411 1001.5166,-131.6427 998.5566,-141.8156 1005.5466,-141.4411"/>
</g>
<!-- Node91&#45;&gt;Node66 -->
<g id="edge89" class="edge">
<title>Node91&#45;&gt;Node66</title>
<path fill="none" stroke="#191970" d="M1029.9578,-168.3733C1054.7407,-159.1822 1092.2746,-145.2624 1119.754,-135.0713"/>
<polygon fill="#191970" stroke="#191970" points="1121.2219,-138.26 1129.3809,-131.5011 1118.7879,-131.6968 1121.2219,-138.26"/>
</g>
<!-- Node92&#45;&gt;Node4 -->
<g id="edge99" class="edge">
<title>Node92&#45;&gt;Node4</title>
<path fill="none" stroke="#191970" d="M258.1509,-168.4538C293.7861,-154.6241 362.7471,-128.8331 423,-112 488.6502,-93.659 567.2537,-78.6902 609.515,-71.1983"/>
<polygon fill="#191970" stroke="#191970" points="610.201,-74.6315 619.4463,-69.4571 608.9921,-67.7366 610.201,-74.6315"/>
</g>
<!-- Node92&#45;&gt;Node8 -->
<g id="edge95" class="edge">
<title>Node92&#45;&gt;Node8</title>
<path fill="none" stroke="#191970" d="M264.0673,-175.8047C383.3785,-167.0936 823.5892,-134.9531 960.2549,-124.9749"/>
<polygon fill="#191970" stroke="#191970" points="960.5885,-128.4599 970.3071,-124.2409 960.0787,-121.4785 960.5885,-128.4599"/>
</g>
<!-- Node92&#45;&gt;Node16 -->
<g id="edge96" class="edge">
<title>Node92&#45;&gt;Node16</title>
<path fill="none" stroke="#191970" d="M233.3179,-168.4509C232.0131,-150.184 229.1397,-109.9553 227.407,-85.6976"/>
<polygon fill="#191970" stroke="#191970" points="230.884,-85.2501 226.6803,-75.5249 223.9018,-85.7489 230.884,-85.2501"/>
</g>
<!-- Node92&#45;&gt;Node18 -->
<g id="edge97" class="edge">
<title>Node92&#45;&gt;Node18</title>
<path fill="none" stroke="#191970" d="M238.7745,-168.4509C248.032,-149.936 268.5705,-108.8591 280.6407,-84.7187"/>
<polygon fill="#191970" stroke="#191970" points="283.8959,-86.0344 285.2376,-75.5249 277.6349,-82.9039 283.8959,-86.0344"/>
</g>
<!-- Node92&#45;&gt;Node11 -->
<g id="edge98" class="edge">
<title>Node92&#45;&gt;Node11</title>
<path fill="none" stroke="#191970" d="M225.9253,-168.3432C207.961,-145.6702 168.5864,-88.4993 199,-56 221.7114,-31.7311 719.5508,-15.1391 857.0792,-11.0069"/>
<polygon fill="#191970" stroke="#191970" points="857.5516,-14.4945 867.4431,-10.6987 857.3435,-7.4976 857.5516,-14.4945"/>
</g>
<!-- Node92&#45;&gt;Node21 -->
<g id="edge100" class="edge">
<title>Node92&#45;&gt;Node21</title>
<path fill="none" stroke="#191970" d="M264.1648,-174.3682C314.2489,-167.9988 417.5181,-153.4231 503,-132 562.6889,-117.041 630.3188,-92.8844 669.0869,-78.3161"/>
<polygon fill="#191970" stroke="#191970" points="670.649,-81.4673 678.7623,-74.6537 668.1708,-74.9206 670.649,-81.4673"/>
</g>
<!-- Node95&#45;&gt;Node63 -->
<g id="edge104" class="edge">
<title>Node95&#45;&gt;Node63</title>
<path fill="none" stroke="#191970" d="M2095.723,-168.2455C2087.1782,-160.1352 2074.8222,-148.4075 2064.6915,-138.7919"/>
<polygon fill="#191970" stroke="#191970" points="2066.8218,-135.9884 2057.1592,-131.6427 2062.0028,-141.0655 2066.8218,-135.9884"/>
</g>
<!-- Node95&#45;&gt;Node69 -->
<g id="edge105" class="edge">
<title>Node95&#45;&gt;Node69</title>
<path fill="none" stroke="#191970" d="M2106.8709,-168.2455C2107.5234,-160.9382 2108.438,-150.6944 2109.2407,-141.7046"/>
<polygon fill="#191970" stroke="#191970" points="2112.7358,-141.9143 2110.139,-131.6427 2105.7635,-141.2918 2112.7358,-141.9143"/>
</g>
<!-- Node95&#45;&gt;Node96 -->
<g id="edge106" class="edge">
<title>Node95&#45;&gt;Node96</title>
<path fill="none" stroke="#191970" d="M2122.3736,-168.2455C2136.9308,-159.5731 2158.431,-146.7645 2175.1152,-136.825"/>
<polygon fill="#191970" stroke="#191970" points="2177.0144,-139.7676 2183.8141,-131.6427 2173.4317,-133.7539 2177.0144,-139.7676"/>
</g>
</g>
</svg>
