<?xml version="1.0" encoding="UTF-8" standalone="no"?>
<!DOCTYPE svg PUBLIC "-//W3C//DTD SVG 1.1//EN"
 "http://www.w3.org/Graphics/SVG/1.1/DTD/svg11.dtd">
<!-- Generated by graphviz version 2.40.1 (20161225.0304)
 -->
<!-- Title: LookupNumeric Pages: 1 -->
<svg width="602pt" height="154pt"
 viewBox="0.00 0.00 602.00 154.00" xmlns="http://www.w3.org/2000/svg" xmlns:xlink="http://www.w3.org/1999/xlink">
<g id="graph0" class="graph" transform="scale(1 1) rotate(0) translate(4 150)">
<title>LookupNumeric</title>
<polygon fill="#ffffff" stroke="transparent" points="-4,4 -4,-150 598,-150 598,4 -4,4"/>
<!-- Node235 -->
<g id="node1" class="node">
<title>Node235</title>
<polygon fill="#bfbfbf" stroke="#000000" points="0,-66.5 0,-85.5 85,-85.5 85,-66.5 0,-66.5"/>
<text text-anchor="middle" x="42.5" y="-73.5" font-family="Helvetica,sans-Serif" font-size="10.00" fill="#000000">LookupNumeric</text>
</g>
<!-- Node236 -->
<g id="node2" class="node">
<title>Node236</title>
<g id="a_node2"><a xlink:href="class_h_t_t_p_request.html#a73ba24bc6528fd1aa5024c10330bfdfb" target="_top" xlink:title="Get CService (address:ip) for the origin of the http request. ">
<polygon fill="#ffffff" stroke="#000000" points="137.5,-126.5 137.5,-145.5 259.5,-145.5 259.5,-126.5 137.5,-126.5"/>
<text text-anchor="middle" x="198.5" y="-133.5" font-family="Helvetica,sans-Serif" font-size="10.00" fill="#000000">HTTPRequest::GetPeer</text>
</a>
</g>
</g>
<!-- Node235&#45;&gt;Node236 -->
<g id="edge1" class="edge">
<title>Node235&#45;&gt;Node236</title>
<path fill="none" stroke="#191970" d="M66.946,-90.7235C82.0895,-99.344 102.1781,-109.8967 121,-117 130.7208,-120.6686 141.3976,-123.8184 151.6361,-126.4385"/>
<polygon fill="#191970" stroke="#191970" points="68.6174,-87.6468 58.2116,-85.6539 65.1034,-93.7009 68.6174,-87.6468"/>
</g>
<!-- Node237 -->
<g id="node3" class="node">
<title>Node237</title>
<g id="a_node3"><a xlink:href="class_c_connman.html#ad86a46ddbc6c99900d58ab89b65eaece" target="_top" xlink:title="CConnman::GetAddedNodeInfo">
<polygon fill="#ffffff" stroke="#000000" points="121,-88.5 121,-107.5 276,-107.5 276,-88.5 121,-88.5"/>
<text text-anchor="middle" x="198.5" y="-95.5" font-family="Helvetica,sans-Serif" font-size="10.00" fill="#000000">CConnman::GetAddedNodeInfo</text>
</a>
</g>
</g>
<!-- Node235&#45;&gt;Node237 -->
<g id="edge2" class="edge">
<title>Node235&#45;&gt;Node237</title>
<path fill="none" stroke="#191970" d="M95.3789,-83.4573C106.8242,-85.0714 119.0775,-86.7994 130.9976,-88.4804"/>
<polygon fill="#191970" stroke="#191970" points="95.5185,-79.9424 85.1277,-82.0116 94.5409,-86.8738 95.5185,-79.9424"/>
</g>
<!-- Node240 -->
<g id="node6" class="node">
<title>Node240</title>
<g id="a_node6"><a xlink:href="class_proxy_address_validator.html#a8d97c3857f7dfcd118fb1b1634b38369" target="_top" xlink:title="ProxyAddressValidator\l::validate">
<polygon fill="#ffffff" stroke="#000000" points="140.5,-39 140.5,-69 256.5,-69 256.5,-39 140.5,-39"/>
<text text-anchor="start" x="148.5" y="-57" font-family="Helvetica,sans-Serif" font-size="10.00" fill="#000000">ProxyAddressValidator</text>
<text text-anchor="middle" x="198.5" y="-46" font-family="Helvetica,sans-Serif" font-size="10.00" fill="#000000">::validate</text>
</a>
</g>
</g>
<!-- Node235&#45;&gt;Node240 -->
<g id="edge5" class="edge">
<title>Node235&#45;&gt;Node240</title>
<path fill="none" stroke="#191970" d="M95.4124,-68.538C109.8955,-66.4955 125.6701,-64.2709 140.4252,-62.19"/>
<polygon fill="#191970" stroke="#191970" points="94.5409,-65.1262 85.1277,-69.9884 95.5185,-72.0576 94.5409,-65.1262"/>
</g>
<!-- Node241 -->
<g id="node7" class="node">
<title>Node241</title>
<g id="a_node7"><a xlink:href="class_tor_controller.html#ae36bc33cb3088384517c68f71e9944ce" target="_top" xlink:title="Callback for AUTHENTICATE result. ">
<polygon fill="#ffffff" stroke="#000000" points="142,-.5 142,-19.5 255,-19.5 255,-.5 142,-.5"/>
<text text-anchor="middle" x="198.5" y="-7.5" font-family="Helvetica,sans-Serif" font-size="10.00" fill="#000000">TorController::auth_cb</text>
</a>
</g>
</g>
<!-- Node235&#45;&gt;Node241 -->
<g id="edge6" class="edge">
<title>Node235&#45;&gt;Node241</title>
<path fill="none" stroke="#191970" d="M64.7696,-60.6939C80.0306,-50.7812 101.0477,-38.2319 121,-30 131.0194,-25.8662 142.1278,-22.3948 152.7316,-19.5658"/>
<polygon fill="#191970" stroke="#191970" points="62.4709,-58.0186 56.0723,-66.463 66.3404,-63.852 62.4709,-58.0186"/>
</g>
<!-- Node238 -->
<g id="node4" class="node">
<title>Node238</title>
<g id="a_node4"><a xlink:href="class_c_connman.html#a0b787caf95e52a346a2b31a580d60a62" target="_top" xlink:title="CConnman::ThreadOpenAdded\lConnections">
<polygon fill="#ffffff" stroke="#000000" points="312,-83 312,-113 465,-113 465,-83 312,-83"/>
<text text-anchor="start" x="320" y="-101" font-family="Helvetica,sans-Serif" font-size="10.00" fill="#000000">CConnman::ThreadOpenAdded</text>
<text text-anchor="middle" x="388.5" y="-90" font-family="Helvetica,sans-Serif" font-size="10.00" fill="#000000">Connections</text>
</a>
</g>
</g>
<!-- Node237&#45;&gt;Node238 -->
<g id="edge3" class="edge">
<title>Node237&#45;&gt;Node238</title>
<path fill="none" stroke="#191970" d="M286.0821,-98C294.6706,-98 303.3404,-98 311.8086,-98"/>
<polygon fill="#191970" stroke="#191970" points="286.0543,-94.5001 276.0543,-98 286.0543,-101.5001 286.0543,-94.5001"/>
</g>
<!-- Node239 -->
<g id="node5" class="node">
<title>Node239</title>
<g id="a_node5"><a xlink:href="class_c_connman.html#aa4709e5604e0f4369dada0a211493565" target="_top" xlink:title="CConnman::Start">
<polygon fill="#ffffff" stroke="#000000" points="501,-88.5 501,-107.5 594,-107.5 594,-88.5 501,-88.5"/>
<text text-anchor="middle" x="547.5" y="-95.5" font-family="Helvetica,sans-Serif" font-size="10.00" fill="#000000">CConnman::Start</text>
</a>
</g>
</g>
<!-- Node238&#45;&gt;Node239 -->
<g id="edge4" class="edge">
<title>Node238&#45;&gt;Node239</title>
<path fill="none" stroke="#191970" d="M475.2337,-98C484.0914,-98 492.8282,-98 500.9996,-98"/>
<polygon fill="#191970" stroke="#191970" points="475.2056,-94.5001 465.2056,-98 475.2056,-101.5001 475.2056,-94.5001"/>
</g>
</g>
</svg>
