<?xml version="1.0" encoding="UTF-8" standalone="no"?>
<!DOCTYPE svg PUBLIC "-//W3C//DTD SVG 1.1//EN"
 "http://www.w3.org/Graphics/SVG/1.1/DTD/svg11.dtd">
<!-- Generated by graphviz version 2.40.1 (20161225.0304)
 -->
<!-- Title: ConnectThroughProxy Pages: 1 -->
<svg width="1079pt" height="902pt"
 viewBox="0.00 0.00 1079.00 902.00" xmlns="http://www.w3.org/2000/svg" xmlns:xlink="http://www.w3.org/1999/xlink">
<g id="graph0" class="graph" transform="scale(1 1) rotate(0) translate(4 898)">
<title>ConnectThroughProxy</title>
<polygon fill="#ffffff" stroke="transparent" points="-4,4 -4,-898 1075,-898 1075,4 -4,4"/>
<!-- Node76 -->
<g id="node1" class="node">
<title>Node76</title>
<polygon fill="#bfbfbf" stroke="#000000" points="0,-418.5 0,-437.5 114,-437.5 114,-418.5 0,-418.5"/>
<text text-anchor="middle" x="57" y="-425.5" font-family="Helvetica,sans-Serif" font-size="10.00" fill="#000000">ConnectThroughProxy</text>
</g>
<!-- Node77 -->
<g id="node2" class="node">
<title>Node77</title>
<g id="a_node2"><a xlink:href="netbase_8cpp.html#ac4d702700b01312baccffa6f36703800" target="_top" xlink:title="ConnectSocketDirectly">
<polygon fill="#ffffff" stroke="#000000" points="150,-418.5 150,-437.5 268,-437.5 268,-418.5 150,-418.5"/>
<text text-anchor="middle" x="209" y="-425.5" font-family="Helvetica,sans-Serif" font-size="10.00" fill="#000000">ConnectSocketDirectly</text>
</a>
</g>
</g>
<!-- Node76&#45;&gt;Node77 -->
<g id="edge1" class="edge">
<title>Node76&#45;&gt;Node77</title>
<path fill="none" stroke="#191970" d="M114.0316,-428C122.4477,-428 131.1953,-428 139.8246,-428"/>
<polygon fill="#191970" stroke="#191970" points="139.8733,-431.5001 149.8733,-428 139.8733,-424.5001 139.8733,-431.5001"/>
</g>
<!-- Node78 -->
<g id="node3" class="node">
<title>Node78</title>
<g id="a_node3"><a xlink:href="class_c_service.html#ac4c6d655fab3af40937f0b0c65581745" target="_top" xlink:title="CService::GetSockAddr">
<polygon fill="#ffffff" stroke="#000000" points="304,-788.5 304,-807.5 426,-807.5 426,-788.5 304,-788.5"/>
<text text-anchor="middle" x="365" y="-795.5" font-family="Helvetica,sans-Serif" font-size="10.00" fill="#000000">CService::GetSockAddr</text>
</a>
</g>
</g>
<!-- Node77&#45;&gt;Node78 -->
<g id="edge2" class="edge">
<title>Node77&#45;&gt;Node78</title>
<path fill="none" stroke="#191970" d="M213.013,-437.5179C233.7008,-486.5853 328.4348,-711.2747 356.8929,-778.7717"/>
<polygon fill="#191970" stroke="#191970" points="353.7596,-780.3492 360.8698,-788.2039 360.2097,-777.6296 353.7596,-780.3492"/>
</g>
<!-- Node88 -->
<g id="node13" class="node">
<title>Node88</title>
<g id="a_node13"><a xlink:href="class_c_service.html#a225473158bc07c87a6a862160d73cfea" target="_top" xlink:title="CService::ToString">
<polygon fill="#ffffff" stroke="#000000" points="315,-589.5 315,-608.5 415,-608.5 415,-589.5 315,-589.5"/>
<text text-anchor="middle" x="365" y="-596.5" font-family="Helvetica,sans-Serif" font-size="10.00" fill="#000000">CService::ToString</text>
</a>
</g>
</g>
<!-- Node77&#45;&gt;Node88 -->
<g id="edge15" class="edge">
<title>Node77&#45;&gt;Node88</title>
<path fill="none" stroke="#191970" d="M217.8342,-437.6837C243.254,-465.5477 316.831,-546.1993 349.2939,-581.7837"/>
<polygon fill="#191970" stroke="#191970" points="346.9373,-584.3937 356.2627,-589.4226 352.1087,-579.676 346.9373,-584.3937"/>
</g>
<!-- Node93 -->
<g id="node18" class="node">
<title>Node93</title>
<g id="a_node18"><a xlink:href="netbase_8cpp.html#a600e28434d4419692376525c2653d495" target="_top" xlink:title="Set the TCP_NODELAY flag on a socket. ">
<polygon fill="#ffffff" stroke="#000000" points="314.5,-475.5 314.5,-494.5 415.5,-494.5 415.5,-475.5 314.5,-475.5"/>
<text text-anchor="middle" x="365" y="-482.5" font-family="Helvetica,sans-Serif" font-size="10.00" fill="#000000">SetSocketNoDelay</text>
</a>
</g>
</g>
<!-- Node77&#45;&gt;Node93 -->
<g id="edge25" class="edge">
<title>Node77&#45;&gt;Node93</title>
<path fill="none" stroke="#191970" d="M231.4598,-437.5635C250.5909,-445.5696 278.8909,-457.0833 304,-466 310.0364,-468.1436 316.4535,-470.287 322.7725,-472.3212"/>
<polygon fill="#191970" stroke="#191970" points="321.9627,-475.7358 332.5526,-475.4121 324.0722,-469.0612 321.9627,-475.7358"/>
</g>
<!-- Node94 -->
<g id="node19" class="node">
<title>Node94</title>
<g id="a_node19"><a xlink:href="netbase_8cpp.html#ade3b7e8272b95fc577fa0387b863725a" target="_top" xlink:title="Disable or enable blocking&#45;mode for a socket. ">
<polygon fill="#ffffff" stroke="#000000" points="306,-437.5 306,-456.5 424,-456.5 424,-437.5 306,-437.5"/>
<text text-anchor="middle" x="365" y="-444.5" font-family="Helvetica,sans-Serif" font-size="10.00" fill="#000000">SetSocketNonBlocking</text>
</a>
</g>
</g>
<!-- Node77&#45;&gt;Node94 -->
<g id="edge26" class="edge">
<title>Node77&#45;&gt;Node94</title>
<path fill="none" stroke="#191970" d="M268.4219,-435.2373C277.3055,-436.3193 286.5304,-437.4428 295.5984,-438.5472"/>
<polygon fill="#191970" stroke="#191970" points="295.3934,-442.0481 305.7433,-439.7828 296.2398,-435.0994 295.3934,-442.0481"/>
</g>
<!-- Node95 -->
<g id="node20" class="node">
<title>Node95</title>
<g id="a_node20"><a xlink:href="netbase_8cpp.html#aeb0961aecb19bbca063c3514b25b20c9" target="_top" xlink:title="Close socket and set hSocket to INVALID_SOCKET. ">
<polygon fill="#ffffff" stroke="#000000" points="328.5,-399.5 328.5,-418.5 401.5,-418.5 401.5,-399.5 328.5,-399.5"/>
<text text-anchor="middle" x="365" y="-406.5" font-family="Helvetica,sans-Serif" font-size="10.00" fill="#000000">CloseSocket</text>
</a>
</g>
</g>
<!-- Node77&#45;&gt;Node95 -->
<g id="edge27" class="edge">
<title>Node77&#45;&gt;Node95</title>
<path fill="none" stroke="#191970" d="M268.4219,-420.7627C284.95,-418.7497 302.6597,-416.5927 318.3419,-414.6827"/>
<polygon fill="#191970" stroke="#191970" points="318.8183,-418.1507 328.3217,-413.4672 317.9719,-411.202 318.8183,-418.1507"/>
</g>
<!-- Node96 -->
<g id="node21" class="node">
<title>Node96</title>
<g id="a_node21"><a xlink:href="util_8h.html#a96c5fc7111f69f7dcaba992d95d13e03" target="_top" xlink:title="error">
<polygon fill="#ffffff" stroke="#000000" points="347,-361.5 347,-380.5 383,-380.5 383,-361.5 347,-361.5"/>
<text text-anchor="middle" x="365" y="-368.5" font-family="Helvetica,sans-Serif" font-size="10.00" fill="#000000">error</text>
</a>
</g>
</g>
<!-- Node77&#45;&gt;Node96 -->
<g id="edge28" class="edge">
<title>Node77&#45;&gt;Node96</title>
<path fill="none" stroke="#191970" d="M231.4598,-418.4365C250.5909,-410.4304 278.8909,-398.9167 304,-390 314.74,-386.186 326.6855,-382.3728 337.1386,-379.1742"/>
<polygon fill="#191970" stroke="#191970" points="338.4301,-382.4405 346.9943,-376.2032 336.4097,-375.7384 338.4301,-382.4405"/>
</g>
<!-- Node126 -->
<g id="node49" class="node">
<title>Node126</title>
<g id="a_node49"><a xlink:href="netbase_8cpp.html#a8ddb7d8d6e5b5cfabfdeea132f556977" target="_top" xlink:title="Return readable error string for a network error code. ">
<polygon fill="#ffffff" stroke="#000000" points="315,-323.5 315,-342.5 415,-342.5 415,-323.5 315,-323.5"/>
<text text-anchor="middle" x="365" y="-330.5" font-family="Helvetica,sans-Serif" font-size="10.00" fill="#000000">NetworkErrorString</text>
</a>
</g>
</g>
<!-- Node77&#45;&gt;Node126 -->
<g id="edge59" class="edge">
<title>Node77&#45;&gt;Node126</title>
<path fill="none" stroke="#191970" d="M218.3823,-418.4513C234.5068,-402.5416 269.1198,-370.5307 304,-352 308.1876,-349.7753 312.6777,-347.7637 317.2524,-345.9562"/>
<polygon fill="#191970" stroke="#191970" points="318.4863,-349.2318 326.6919,-342.5296 316.0977,-342.652 318.4863,-349.2318"/>
</g>
<!-- Node127 -->
<g id="node50" class="node">
<title>Node127</title>
<g id="a_node50"><a xlink:href="netbase_8cpp.html#a0813a315d41aebd2edea6c4298b90a37" target="_top" xlink:title="Convert milliseconds to a struct timeval for e.g. ">
<polygon fill="#ffffff" stroke="#000000" points="322.5,-285.5 322.5,-304.5 407.5,-304.5 407.5,-285.5 322.5,-285.5"/>
<text text-anchor="middle" x="365" y="-292.5" font-family="Helvetica,sans-Serif" font-size="10.00" fill="#000000">MillisToTimeval</text>
</a>
</g>
</g>
<!-- Node77&#45;&gt;Node127 -->
<g id="edge60" class="edge">
<title>Node77&#45;&gt;Node127</title>
<path fill="none" stroke="#191970" d="M214.3084,-418.4586C226.9339,-396.6387 260.9423,-342.7675 304,-314 306.9485,-312.0301 310.1118,-310.2559 313.3904,-308.6592"/>
<polygon fill="#191970" stroke="#191970" points="315.0331,-311.7634 322.8524,-304.6144 312.2816,-305.3268 315.0331,-311.7634"/>
</g>
<!-- Node79 -->
<g id="node4" class="node">
<title>Node79</title>
<g id="a_node4"><a xlink:href="class_c_net_addr.html#a7021b79e9a33c342b68db09dbb6c2293" target="_top" xlink:title="CNetAddr::IsIPv4">
<polygon fill="#ffffff" stroke="#000000" points="647,-798.5 647,-817.5 742,-817.5 742,-798.5 647,-798.5"/>
<text text-anchor="middle" x="694.5" y="-805.5" font-family="Helvetica,sans-Serif" font-size="10.00" fill="#000000">CNetAddr::IsIPv4</text>
</a>
</g>
</g>
<!-- Node78&#45;&gt;Node79 -->
<g id="edge3" class="edge">
<title>Node78&#45;&gt;Node79</title>
<path fill="none" stroke="#191970" d="M426.2042,-799.8575C486.4246,-801.6851 577.6852,-804.4548 636.7009,-806.2459"/>
<polygon fill="#191970" stroke="#191970" points="636.867,-809.7524 646.9686,-806.5575 637.0794,-802.7556 636.867,-809.7524"/>
</g>
<!-- Node80 -->
<g id="node5" class="node">
<title>Node80</title>
<g id="a_node5"><a xlink:href="class_c_net_addr.html#a4f73432c55d4acb6b9e4c54833eefea6" target="_top" xlink:title="CNetAddr::GetInAddr">
<polygon fill="#ffffff" stroke="#000000" points="471,-826.5 471,-845.5 581,-845.5 581,-826.5 471,-826.5"/>
<text text-anchor="middle" x="526" y="-833.5" font-family="Helvetica,sans-Serif" font-size="10.00" fill="#000000">CNetAddr::GetInAddr</text>
</a>
</g>
</g>
<!-- Node78&#45;&gt;Node80 -->
<g id="edge4" class="edge">
<title>Node78&#45;&gt;Node80</title>
<path fill="none" stroke="#191970" d="M405.6271,-807.589C426.9685,-812.6261 453.3119,-818.8438 475.9081,-824.1771"/>
<polygon fill="#191970" stroke="#191970" points="475.1284,-827.5891 485.665,-826.4799 476.7365,-820.7763 475.1284,-827.5891"/>
</g>
<!-- Node84 -->
<g id="node9" class="node">
<title>Node84</title>
<g id="a_node9"><a xlink:href="class_c_net_addr.html#aad5f7a372c56ccf4d773f728b6b46e18" target="_top" xlink:title="CNetAddr::IsIPv6">
<polygon fill="#ffffff" stroke="#000000" points="478.5,-750.5 478.5,-769.5 573.5,-769.5 573.5,-750.5 478.5,-750.5"/>
<text text-anchor="middle" x="526" y="-757.5" font-family="Helvetica,sans-Serif" font-size="10.00" fill="#000000">CNetAddr::IsIPv6</text>
</a>
</g>
</g>
<!-- Node78&#45;&gt;Node84 -->
<g id="edge9" class="edge">
<title>Node78&#45;&gt;Node84</title>
<path fill="none" stroke="#191970" d="M405.6271,-788.411C426.9685,-783.3739 453.3119,-777.1562 475.9081,-771.8229"/>
<polygon fill="#191970" stroke="#191970" points="476.7365,-775.2237 485.665,-769.5201 475.1284,-768.4109 476.7365,-775.2237"/>
</g>
<!-- Node87 -->
<g id="node12" class="node">
<title>Node87</title>
<g id="a_node12"><a xlink:href="class_c_net_addr.html#a3616012f94b27148e5b8e27d943d4884" target="_top" xlink:title="CNetAddr::GetIn6Addr">
<polygon fill="#ffffff" stroke="#000000" points="468,-864.5 468,-883.5 584,-883.5 584,-864.5 468,-864.5"/>
<text text-anchor="middle" x="526" y="-871.5" font-family="Helvetica,sans-Serif" font-size="10.00" fill="#000000">CNetAddr::GetIn6Addr</text>
</a>
</g>
</g>
<!-- Node78&#45;&gt;Node87 -->
<g id="edge13" class="edge">
<title>Node78&#45;&gt;Node87</title>
<path fill="none" stroke="#191970" d="M378.8866,-807.6289C397.2196,-819.99 430.8291,-841.4547 462,-855 467.3117,-857.3082 472.9882,-859.4392 478.6847,-861.3743"/>
<polygon fill="#191970" stroke="#191970" points="477.6381,-864.7142 488.2295,-864.4425 479.7804,-858.05 477.6381,-864.7142"/>
</g>
<!-- Node80&#45;&gt;Node79 -->
<g id="edge5" class="edge">
<title>Node80&#45;&gt;Node79</title>
<path fill="none" stroke="#191970" d="M581.1732,-826.8318C598.9876,-823.8715 618.7789,-820.5827 636.7728,-817.5927"/>
<polygon fill="#191970" stroke="#191970" points="637.5537,-821.011 646.8446,-815.919 636.4061,-814.1057 637.5537,-821.011"/>
</g>
<!-- Node81 -->
<g id="node6" class="node">
<title>Node81</title>
<g id="a_node6"><a xlink:href="glibc__compat_8cpp.html#a0f46826ab0466591e136db24394923cf" target="_top" xlink:title="memcpy">
<polygon fill="#ffffff" stroke="#000000" points="667.5,-855.5 667.5,-874.5 721.5,-874.5 721.5,-855.5 667.5,-855.5"/>
<text text-anchor="middle" x="694.5" y="-862.5" font-family="Helvetica,sans-Serif" font-size="10.00" fill="#000000">memcpy</text>
</a>
</g>
</g>
<!-- Node80&#45;&gt;Node81 -->
<g id="edge6" class="edge">
<title>Node80&#45;&gt;Node81</title>
<path fill="none" stroke="#191970" d="M581.1732,-845.4957C606.0305,-849.7738 634.7368,-854.7144 657.0382,-858.5526"/>
<polygon fill="#191970" stroke="#191970" points="656.6625,-862.0393 667.1113,-860.2862 657.8498,-855.1407 656.6625,-862.0393"/>
</g>
<!-- Node82 -->
<g id="node7" class="node">
<title>Node82</title>
<g id="a_node7"><a xlink:href="glibc__compat_8cpp.html#a9778d49e9029dd75bc53ecbbf9f5e9a1" target="_top" xlink:title="memmove">
<polygon fill="#ffffff" stroke="#000000" points="821.5,-874.5 821.5,-893.5 883.5,-893.5 883.5,-874.5 821.5,-874.5"/>
<text text-anchor="middle" x="852.5" y="-881.5" font-family="Helvetica,sans-Serif" font-size="10.00" fill="#000000">memmove</text>
</a>
</g>
</g>
<!-- Node81&#45;&gt;Node82 -->
<g id="edge7" class="edge">
<title>Node81&#45;&gt;Node82</title>
<path fill="none" stroke="#191970" d="M721.6612,-868.2662C746.3357,-871.2334 783.0898,-875.6532 811.3664,-879.0535"/>
<polygon fill="#191970" stroke="#191970" points="811.016,-882.5366 821.3624,-880.2556 811.8518,-875.5866 811.016,-882.5366"/>
</g>
<!-- Node83 -->
<g id="node8" class="node">
<title>Node83</title>
<g id="a_node8"><a xlink:href="glibc__compat_8cpp.html#a424ac71631da5ada2976630ff67051d1" target="_top" xlink:title="__chk_fail">
<polygon fill="#ffffff" stroke="#000000" points="822,-836.5 822,-855.5 883,-855.5 883,-836.5 822,-836.5"/>
<text text-anchor="middle" x="852.5" y="-843.5" font-family="Helvetica,sans-Serif" font-size="10.00" fill="#000000">__chk_fail</text>
</a>
</g>
</g>
<!-- Node81&#45;&gt;Node83 -->
<g id="edge8" class="edge">
<title>Node81&#45;&gt;Node83</title>
<path fill="none" stroke="#191970" d="M721.6612,-861.7338C746.4928,-858.7477 783.5585,-854.2904 811.9056,-850.8816"/>
<polygon fill="#191970" stroke="#191970" points="812.4055,-854.3468 821.916,-849.6778 811.5697,-847.3969 812.4055,-854.3468"/>
</g>
<!-- Node84&#45;&gt;Node79 -->
<g id="edge10" class="edge">
<title>Node84&#45;&gt;Node79</title>
<path fill="none" stroke="#191970" d="M559.6935,-769.5982C585.9823,-777.0869 622.6924,-787.5444 651.1671,-795.6559"/>
<polygon fill="#191970" stroke="#191970" points="650.2886,-799.0448 660.8649,-798.4185 652.2064,-792.3127 650.2886,-799.0448"/>
</g>
<!-- Node85 -->
<g id="node10" class="node">
<title>Node85</title>
<g id="a_node10"><a xlink:href="class_c_net_addr.html#a4db37b4997ff3b8c57959f2aa915a9a3" target="_top" xlink:title="CNetAddr::IsTor">
<polygon fill="#ffffff" stroke="#000000" points="808,-722.5 808,-741.5 897,-741.5 897,-722.5 808,-722.5"/>
<text text-anchor="middle" x="852.5" y="-729.5" font-family="Helvetica,sans-Serif" font-size="10.00" fill="#000000">CNetAddr::IsTor</text>
</a>
</g>
</g>
<!-- Node84&#45;&gt;Node85 -->
<g id="edge11" class="edge">
<title>Node84&#45;&gt;Node85</title>
<path fill="none" stroke="#191970" d="M573.7759,-758.5271C621.7202,-756.732 697.6346,-753.0265 763,-746 774.3686,-744.7779 786.4985,-743.1208 798.0403,-741.3743"/>
<polygon fill="#191970" stroke="#191970" points="798.6547,-744.8209 807.9978,-739.8252 797.5786,-737.9041 798.6547,-744.8209"/>
</g>
<!-- Node86 -->
<g id="node11" class="node">
<title>Node86</title>
<g id="a_node11"><a xlink:href="class_c_net_addr.html#ab0848a1ba29b6f72fcc3b6ba8d7c8fbb" target="_top" xlink:title="CNetAddr::IsInternal">
<polygon fill="#ffffff" stroke="#000000" points="799,-646.5 799,-665.5 906,-665.5 906,-646.5 799,-646.5"/>
<text text-anchor="middle" x="852.5" y="-653.5" font-family="Helvetica,sans-Serif" font-size="10.00" fill="#000000">CNetAddr::IsInternal</text>
</a>
</g>
</g>
<!-- Node84&#45;&gt;Node86 -->
<g id="edge12" class="edge">
<title>Node84&#45;&gt;Node86</title>
<path fill="none" stroke="#191970" d="M540.543,-750.4264C553.895,-741.3842 573.9771,-727.1362 590,-713 607.4454,-697.6087 605.0319,-685.0784 626,-675 676.8617,-650.553 741.5795,-647.4901 788.801,-649.549"/>
<polygon fill="#191970" stroke="#191970" points="788.7312,-653.05 798.9007,-650.0785 789.0977,-646.0596 788.7312,-653.05"/>
</g>
<!-- Node87&#45;&gt;Node81 -->
<g id="edge14" class="edge">
<title>Node87&#45;&gt;Node81</title>
<path fill="none" stroke="#191970" d="M584.4602,-870.8775C608.5293,-869.5919 635.7062,-868.1403 657.0297,-867.0014"/>
<polygon fill="#191970" stroke="#191970" points="657.494,-870.4817 667.293,-866.4532 657.1205,-863.4916 657.494,-870.4817"/>
</g>
<!-- Node89 -->
<g id="node14" class="node">
<title>Node89</title>
<g id="a_node14"><a xlink:href="class_c_service.html#a224204c838b12eeb49ca7eabe6f75004" target="_top" xlink:title="CService::ToStringIPPort">
<polygon fill="#ffffff" stroke="#000000" points="462,-684.5 462,-703.5 590,-703.5 590,-684.5 462,-684.5"/>
<text text-anchor="middle" x="526" y="-691.5" font-family="Helvetica,sans-Serif" font-size="10.00" fill="#000000">CService::ToStringIPPort</text>
</a>
</g>
</g>
<!-- Node88&#45;&gt;Node89 -->
<g id="edge16" class="edge">
<title>Node88&#45;&gt;Node89</title>
<path fill="none" stroke="#191970" d="M374.5943,-608.5874C391.0797,-624.5541 426.4521,-656.647 462,-675 466.3416,-677.2415 470.9888,-679.26 475.7232,-681.0682"/>
<polygon fill="#191970" stroke="#191970" points="474.899,-684.4879 485.4938,-684.4883 477.2117,-677.8809 474.899,-684.4879"/>
</g>
<!-- Node89&#45;&gt;Node79 -->
<g id="edge17" class="edge">
<title>Node89&#45;&gt;Node79</title>
<path fill="none" stroke="#191970" d="M540.0764,-703.5235C569.1195,-723.1729 635.9289,-768.3733 671.3979,-792.3701"/>
<polygon fill="#191970" stroke="#191970" points="669.8627,-795.5572 680.1065,-798.262 673.7852,-789.7594 669.8627,-795.5572"/>
</g>
<!-- Node89&#45;&gt;Node85 -->
<g id="edge18" class="edge">
<title>Node89&#45;&gt;Node85</title>
<path fill="none" stroke="#191970" d="M570.639,-703.5105C587.8723,-706.9112 607.7905,-710.5132 626,-713 684.3402,-720.9672 751.6215,-726.1018 797.6005,-728.999"/>
<polygon fill="#191970" stroke="#191970" points="797.4578,-732.4968 807.6541,-729.6182 797.8882,-725.51 797.4578,-732.4968"/>
</g>
<!-- Node89&#45;&gt;Node86 -->
<g id="edge19" class="edge">
<title>Node89&#45;&gt;Node86</title>
<path fill="none" stroke="#191970" d="M568.0939,-684.4803C575.6386,-681.9517 583.2427,-678.8266 590,-675 608.8869,-664.3044 605.7714,-649.8686 626,-642 687.9163,-617.9156 766.539,-631.6343 812.9946,-643.8042"/>
<polygon fill="#191970" stroke="#191970" points="812.1135,-647.1917 822.6818,-646.4426 813.953,-640.4377 812.1135,-647.1917"/>
</g>
<!-- Node90 -->
<g id="node15" class="node">
<title>Node90</title>
<g id="a_node15"><a xlink:href="class_c_net_addr.html#a0c8d9b5ed3824546ff4dccca3b28b073" target="_top" xlink:title="CNetAddr::ToStringIP">
<polygon fill="#ffffff" stroke="#000000" points="638,-684.5 638,-703.5 751,-703.5 751,-684.5 638,-684.5"/>
<text text-anchor="middle" x="694.5" y="-691.5" font-family="Helvetica,sans-Serif" font-size="10.00" fill="#000000">CNetAddr::ToStringIP</text>
</a>
</g>
</g>
<!-- Node89&#45;&gt;Node90 -->
<g id="edge20" class="edge">
<title>Node89&#45;&gt;Node90</title>
<path fill="none" stroke="#191970" d="M590.1833,-694C602.4627,-694 615.346,-694 627.7051,-694"/>
<polygon fill="#191970" stroke="#191970" points="627.9388,-697.5001 637.9388,-694 627.9387,-690.5001 627.9388,-697.5001"/>
</g>
<!-- Node92 -->
<g id="node17" class="node">
<title>Node92</title>
<g id="a_node17"><a xlink:href="class_c_service.html#a95d6f24b6a613fca24734ba4e38ef3dc" target="_top" xlink:title="CService::ToStringPort">
<polygon fill="#ffffff" stroke="#000000" points="635.5,-570.5 635.5,-589.5 753.5,-589.5 753.5,-570.5 635.5,-570.5"/>
<text text-anchor="middle" x="694.5" y="-577.5" font-family="Helvetica,sans-Serif" font-size="10.00" fill="#000000">CService::ToStringPort</text>
</a>
</g>
</g>
<!-- Node89&#45;&gt;Node92 -->
<g id="edge24" class="edge">
<title>Node89&#45;&gt;Node92</title>
<path fill="none" stroke="#191970" d="M574.3328,-684.3865C579.9822,-681.9356 585.3712,-678.8599 590,-675 617.1725,-652.3415 599.3839,-627.3096 626,-604 630.728,-599.8594 636.2138,-596.4211 641.9826,-593.5688"/>
<polygon fill="#191970" stroke="#191970" points="643.4398,-596.7518 651.2126,-589.5522 640.6466,-590.3332 643.4398,-596.7518"/>
</g>
<!-- Node90&#45;&gt;Node85 -->
<g id="edge21" class="edge">
<title>Node90&#45;&gt;Node85</title>
<path fill="none" stroke="#191970" d="M734.3701,-703.589C755.2199,-708.6035 780.9346,-714.7881 803.0429,-720.1053"/>
<polygon fill="#191970" stroke="#191970" points="802.3754,-723.5445 812.9166,-722.4799 804.0123,-716.7385 802.3754,-723.5445"/>
</g>
<!-- Node90&#45;&gt;Node86 -->
<g id="edge23" class="edge">
<title>Node90&#45;&gt;Node86</title>
<path fill="none" stroke="#191970" d="M734.3701,-684.411C755.2199,-679.3965 780.9346,-673.2119 803.0429,-667.8947"/>
<polygon fill="#191970" stroke="#191970" points="804.0123,-671.2615 812.9166,-665.5201 802.3754,-664.4555 804.0123,-671.2615"/>
</g>
<!-- Node91 -->
<g id="node16" class="node">
<title>Node91</title>
<g id="a_node16"><a xlink:href="utilstrencodings_8cpp.html#aed1944a78afffe9d5f3129e656dc8aa6" target="_top" xlink:title="EncodeBase32">
<polygon fill="#ffffff" stroke="#000000" points="811,-684.5 811,-703.5 894,-703.5 894,-684.5 811,-684.5"/>
<text text-anchor="middle" x="852.5" y="-691.5" font-family="Helvetica,sans-Serif" font-size="10.00" fill="#000000">EncodeBase32</text>
</a>
</g>
</g>
<!-- Node90&#45;&gt;Node91 -->
<g id="edge22" class="edge">
<title>Node90&#45;&gt;Node91</title>
<path fill="none" stroke="#191970" d="M751.0954,-694C767.2207,-694 784.7038,-694 800.5387,-694"/>
<polygon fill="#191970" stroke="#191970" points="800.6757,-697.5001 810.6756,-694 800.6756,-690.5001 800.6757,-697.5001"/>
</g>
<!-- Node97 -->
<g id="node22" class="node">
<title>Node97</title>
<g id="a_node22"><a xlink:href="util_8h.html#afd4c3002b2797c0560adddb6af3ca1da" target="_top" xlink:title="Send a string to the log output. ">
<polygon fill="#ffffff" stroke="#000000" points="493.5,-266.5 493.5,-285.5 558.5,-285.5 558.5,-266.5 493.5,-266.5"/>
<text text-anchor="middle" x="526" y="-273.5" font-family="Helvetica,sans-Serif" font-size="10.00" fill="#000000">LogPrintStr</text>
</a>
</g>
</g>
<!-- Node96&#45;&gt;Node97 -->
<g id="edge29" class="edge">
<title>Node96&#45;&gt;Node97</title>
<path fill="none" stroke="#191970" d="M383.0833,-368.7583C396.1043,-366.388 413.5061,-361.5912 426,-352 449.7672,-333.7546 438.1114,-313.0862 462,-295 468.3674,-290.1792 475.9439,-286.577 483.6172,-283.8867"/>
<polygon fill="#191970" stroke="#191970" points="484.7539,-287.1994 493.3047,-280.9436 482.7191,-280.5016 484.7539,-287.1994"/>
</g>
<!-- Node98 -->
<g id="node23" class="node">
<title>Node98</title>
<g id="a_node23"><a xlink:href="namespacetinyformat.html#a05144619d8b16e2b31b2594ca9c6bf1d" target="_top" xlink:title="Format list of arguments to the stream according to given format string. ">
<polygon fill="#ffffff" stroke="#000000" points="479,-494.5 479,-513.5 573,-513.5 573,-494.5 479,-494.5"/>
<text text-anchor="middle" x="526" y="-501.5" font-family="Helvetica,sans-Serif" font-size="10.00" fill="#000000">tinyformat::format</text>
</a>
</g>
</g>
<!-- Node96&#45;&gt;Node98 -->
<g id="edge30" class="edge">
<title>Node96&#45;&gt;Node98</title>
<path fill="none" stroke="#191970" d="M383.1331,-372.441C396.5233,-374.408 414.3704,-379.0511 426,-390 458.875,-420.9508 428.919,-454.2695 462,-485 464.4202,-487.2482 467.0947,-489.2313 469.9369,-490.9805"/>
<polygon fill="#191970" stroke="#191970" points="468.3836,-494.1172 478.8801,-495.5574 471.5727,-487.8859 468.3836,-494.1172"/>
</g>
<!-- Node107 -->
<g id="node30" class="node">
<title>Node107</title>
<g id="a_node30"><a xlink:href="util_8h.html#aaada8c5faa502eb0c33fc01294955db8" target="_top" xlink:title="PrintExceptionContinue">
<polygon fill="#ffffff" stroke="#000000" points="466.5,-190.5 466.5,-209.5 585.5,-209.5 585.5,-190.5 466.5,-190.5"/>
<text text-anchor="middle" x="526" y="-197.5" font-family="Helvetica,sans-Serif" font-size="10.00" fill="#000000">PrintExceptionContinue</text>
</a>
</g>
</g>
<!-- Node96&#45;&gt;Node107 -->
<g id="edge37" class="edge">
<title>Node96&#45;&gt;Node107</title>
<path fill="none" stroke="#191970" d="M383.1669,-369.9153C396.7551,-368.1415 414.8431,-363.5846 426,-352 468.4801,-307.8915 419.2261,-262.8237 462,-219 463.4269,-217.5381 464.9606,-216.1875 466.5798,-214.9397"/>
<polygon fill="#191970" stroke="#191970" points="468.648,-217.775 475.2879,-209.5189 464.9487,-211.8323 468.648,-217.775"/>
</g>
<!-- Node108 -->
<g id="node31" class="node">
<title>Node108</title>
<g id="a_node31"><a xlink:href="util_8h.html#af0e69a29ba128b74030ad8a213f2037a" target="_top" xlink:title="FileCommit">
<polygon fill="#ffffff" stroke="#000000" points="492.5,-152.5 492.5,-171.5 559.5,-171.5 559.5,-152.5 492.5,-152.5"/>
<text text-anchor="middle" x="526" y="-159.5" font-family="Helvetica,sans-Serif" font-size="10.00" fill="#000000">FileCommit</text>
</a>
</g>
</g>
<!-- Node96&#45;&gt;Node108 -->
<g id="edge38" class="edge">
<title>Node96&#45;&gt;Node108</title>
<path fill="none" stroke="#191970" d="M383.0726,-370.1258C396.794,-368.4744 415.1022,-363.9791 426,-352 478.2642,-294.5504 409.3531,-238.0991 462,-181 467.5856,-174.942 475.0048,-170.7834 482.8082,-167.9365"/>
<polygon fill="#191970" stroke="#191970" points="483.8345,-171.2828 492.42,-165.0748 481.837,-164.5739 483.8345,-171.2828"/>
</g>
<!-- Node109 -->
<g id="node32" class="node">
<title>Node109</title>
<g id="a_node32"><a xlink:href="util_8h.html#acb8d6b822bc1bfa609bf43bbac1a0d44" target="_top" xlink:title="TruncateFile">
<polygon fill="#ffffff" stroke="#000000" points="490.5,-114.5 490.5,-133.5 561.5,-133.5 561.5,-114.5 490.5,-114.5"/>
<text text-anchor="middle" x="526" y="-121.5" font-family="Helvetica,sans-Serif" font-size="10.00" fill="#000000">TruncateFile</text>
</a>
</g>
</g>
<!-- Node96&#45;&gt;Node109 -->
<g id="edge39" class="edge">
<title>Node96&#45;&gt;Node109</title>
<path fill="none" stroke="#191970" d="M383.1961,-370.2361C396.9857,-368.6455 415.3251,-364.1782 426,-352 488.1309,-281.1192 399.3968,-213.4641 462,-143 466.9749,-137.4004 473.5165,-133.4172 480.5169,-130.591"/>
<polygon fill="#191970" stroke="#191970" points="481.8258,-133.8455 490.2431,-127.4113 479.6505,-127.192 481.8258,-133.8455"/>
</g>
<!-- Node110 -->
<g id="node33" class="node">
<title>Node110</title>
<g id="a_node33"><a xlink:href="util_8h.html#a756a5c49a4bb607d16d9842f8f3ede4f" target="_top" xlink:title="this function tries to raise the file descriptor limit to the requested number. ">
<polygon fill="#ffffff" stroke="#000000" points="464,-76.5 464,-95.5 588,-95.5 588,-76.5 464,-76.5"/>
<text text-anchor="middle" x="526" y="-83.5" font-family="Helvetica,sans-Serif" font-size="10.00" fill="#000000">RaiseFileDescriptorLimit</text>
</a>
</g>
</g>
<!-- Node96&#45;&gt;Node110 -->
<g id="edge40" class="edge">
<title>Node96&#45;&gt;Node110</title>
<path fill="none" stroke="#191970" d="M383,-370.3434C396.8698,-368.8237 415.4114,-364.3995 426,-352 498.0423,-267.6373 389.3956,-188.8795 462,-105 463.043,-103.795 464.1586,-102.6647 465.336,-101.6044"/>
<polygon fill="#191970" stroke="#191970" points="467.7314,-104.1981 473.8887,-95.576 463.6986,-98.4765 467.7314,-104.1981"/>
</g>
<!-- Node111 -->
<g id="node34" class="node">
<title>Node111</title>
<g id="a_node34"><a xlink:href="util_8h.html#a91c763bffc49cf7ed8d45cc44870e55c" target="_top" xlink:title="this function tries to make a particular range of a file allocated (corresponding to disk space) it i...">
<polygon fill="#ffffff" stroke="#000000" points="478,-38.5 478,-57.5 574,-57.5 574,-38.5 478,-38.5"/>
<text text-anchor="middle" x="526" y="-45.5" font-family="Helvetica,sans-Serif" font-size="10.00" fill="#000000">AllocateFileRange</text>
</a>
</g>
</g>
<!-- Node96&#45;&gt;Node111 -->
<g id="edge41" class="edge">
<title>Node96&#45;&gt;Node111</title>
<path fill="none" stroke="#191970" d="M383.0646,-370.398C396.9709,-368.9093 415.5301,-364.4999 426,-352 507.9803,-254.1242 379.3676,-164.3259 462,-67 464.0043,-64.6393 466.2874,-62.5644 468.7693,-60.7413"/>
<polygon fill="#191970" stroke="#191970" points="470.9669,-63.5126 477.8569,-55.4641 467.4516,-57.4592 470.9669,-63.5126"/>
</g>
<!-- Node112 -->
<g id="node35" class="node">
<title>Node112</title>
<g id="a_node35"><a xlink:href="util_8h.html#a579657da2b55b131ecd453bf1b0d2314" target="_top" xlink:title="RenameOver">
<polygon fill="#ffffff" stroke="#000000" points="489,-.5 489,-19.5 563,-19.5 563,-.5 489,-.5"/>
<text text-anchor="middle" x="526" y="-7.5" font-family="Helvetica,sans-Serif" font-size="10.00" fill="#000000">RenameOver</text>
</a>
</g>
</g>
<!-- Node96&#45;&gt;Node112 -->
<g id="edge42" class="edge">
<title>Node96&#45;&gt;Node112</title>
<path fill="none" stroke="#191970" d="M383.1146,-370.4396C397.0491,-368.9743 415.622,-364.5763 426,-352 517.9355,-240.5905 369.3222,-139.7927 462,-29 466.5468,-23.5645 472.5723,-19.6416 479.1109,-16.8188"/>
<polygon fill="#191970" stroke="#191970" points="480.6358,-19.995 488.9453,-13.4221 478.3505,-13.3785 480.6358,-19.995"/>
</g>
<!-- Node113 -->
<g id="node36" class="node">
<title>Node113</title>
<g id="a_node36"><a xlink:href="util_8h.html#a9042a919d837da9d97311a0c460c597c" target="_top" xlink:title="Ignores exceptions thrown by Boost&#39;s create_directories if the requested directory exists...">
<polygon fill="#ffffff" stroke="#000000" points="472.5,-646.5 472.5,-665.5 579.5,-665.5 579.5,-646.5 472.5,-646.5"/>
<text text-anchor="middle" x="526" y="-653.5" font-family="Helvetica,sans-Serif" font-size="10.00" fill="#000000">TryCreateDirectories</text>
</a>
</g>
</g>
<!-- Node96&#45;&gt;Node113 -->
<g id="edge43" class="edge">
<title>Node96&#45;&gt;Node113</title>
<path fill="none" stroke="#191970" d="M383,-371.6566C396.8698,-373.1763 415.4114,-377.6005 426,-390 498.0423,-474.3627 389.3956,-553.1205 462,-637 463.043,-638.205 464.1586,-639.3353 465.336,-640.3956"/>
<polygon fill="#191970" stroke="#191970" points="463.6986,-643.5235 473.8887,-646.424 467.7314,-637.8019 463.6986,-643.5235"/>
</g>
<!-- Node114 -->
<g id="node37" class="node">
<title>Node114</title>
<g id="a_node37"><a xlink:href="util_8h.html#a15cb85964fe08c264605537f44570d3c" target="_top" xlink:title="GetDefaultDataDir">
<polygon fill="#ffffff" stroke="#000000" points="477,-608.5 477,-627.5 575,-627.5 575,-608.5 477,-608.5"/>
<text text-anchor="middle" x="526" y="-615.5" font-family="Helvetica,sans-Serif" font-size="10.00" fill="#000000">GetDefaultDataDir</text>
</a>
</g>
</g>
<!-- Node96&#45;&gt;Node114 -->
<g id="edge44" class="edge">
<title>Node96&#45;&gt;Node114</title>
<path fill="none" stroke="#191970" d="M383.1961,-371.7639C396.9857,-373.3545 415.3251,-377.8218 426,-390 488.1309,-460.8808 399.3968,-528.5359 462,-599 463.785,-601.0091 465.7717,-602.8102 467.9089,-604.4244"/>
<polygon fill="#191970" stroke="#191970" points="466.4172,-607.6115 476.7901,-609.7688 470.0265,-601.6138 466.4172,-607.6115"/>
</g>
<!-- Node115 -->
<g id="node38" class="node">
<title>Node115</title>
<g id="a_node38"><a xlink:href="util_8h.html#abb63dfb710832aefb746933af05198d4" target="_top" xlink:title="GetDataDir">
<polygon fill="#ffffff" stroke="#000000" points="493,-570.5 493,-589.5 559,-589.5 559,-570.5 493,-570.5"/>
<text text-anchor="middle" x="526" y="-577.5" font-family="Helvetica,sans-Serif" font-size="10.00" fill="#000000">GetDataDir</text>
</a>
</g>
</g>
<!-- Node96&#45;&gt;Node115 -->
<g id="edge45" class="edge">
<title>Node96&#45;&gt;Node115</title>
<path fill="none" stroke="#191970" d="M383.0726,-371.8742C396.794,-373.5256 415.1022,-378.0209 426,-390 478.2642,-447.4496 409.3531,-503.9009 462,-561 467.6415,-567.1186 475.1533,-571.2996 483.0424,-574.1486"/>
<polygon fill="#191970" stroke="#191970" points="482.171,-577.5404 492.7522,-577.0038 484.1458,-570.8247 482.171,-577.5404"/>
</g>
<!-- Node116 -->
<g id="node39" class="node">
<title>Node116</title>
<g id="a_node39"><a xlink:href="util_8h.html#abfb50dfe077aced7591f2aba601f605d" target="_top" xlink:title="ClearDatadirCache">
<polygon fill="#ffffff" stroke="#000000" points="476,-532.5 476,-551.5 576,-551.5 576,-532.5 476,-532.5"/>
<text text-anchor="middle" x="526" y="-539.5" font-family="Helvetica,sans-Serif" font-size="10.00" fill="#000000">ClearDatadirCache</text>
</a>
</g>
</g>
<!-- Node96&#45;&gt;Node116 -->
<g id="edge46" class="edge">
<title>Node96&#45;&gt;Node116</title>
<path fill="none" stroke="#191970" d="M383.1669,-372.0847C396.7551,-373.8585 414.8431,-378.4154 426,-390 468.4801,-434.1085 419.2261,-479.1763 462,-523 463.6116,-524.6511 465.3595,-526.1603 467.2127,-527.5397"/>
<polygon fill="#191970" stroke="#191970" points="465.5475,-530.6227 475.9175,-532.7937 469.1648,-524.6297 465.5475,-530.6227"/>
</g>
<!-- Node117 -->
<g id="node40" class="node">
<title>Node117</title>
<g id="a_node40"><a xlink:href="util_8h.html#aa634f312705d4811dfa2a5392bddf6cf" target="_top" xlink:title="GetConfigFile">
<polygon fill="#ffffff" stroke="#000000" points="487.5,-418.5 487.5,-437.5 564.5,-437.5 564.5,-418.5 487.5,-418.5"/>
<text text-anchor="middle" x="526" y="-425.5" font-family="Helvetica,sans-Serif" font-size="10.00" fill="#000000">GetConfigFile</text>
</a>
</g>
</g>
<!-- Node96&#45;&gt;Node117 -->
<g id="edge47" class="edge">
<title>Node96&#45;&gt;Node117</title>
<path fill="none" stroke="#191970" d="M383.1917,-375.7201C395.4837,-379.1379 411.9669,-384.1694 426,-390 442.707,-396.9416 445.247,-402.1702 462,-409 467.5693,-411.2705 473.5104,-413.4011 479.4437,-415.3554"/>
<polygon fill="#191970" stroke="#191970" points="478.7652,-418.8109 489.3546,-418.4713 480.8647,-412.1332 478.7652,-418.8109"/>
</g>
<!-- Node119 -->
<g id="node42" class="node">
<title>Node119</title>
<g id="a_node42"><a xlink:href="util_8h.html#aa0172eabeecce5061826cb19990fbde2" target="_top" xlink:title="GetPidFile">
<polygon fill="#ffffff" stroke="#000000" points="495,-456.5 495,-475.5 557,-475.5 557,-456.5 495,-456.5"/>
<text text-anchor="middle" x="526" y="-463.5" font-family="Helvetica,sans-Serif" font-size="10.00" fill="#000000">GetPidFile</text>
</a>
</g>
</g>
<!-- Node96&#45;&gt;Node119 -->
<g id="edge49" class="edge">
<title>Node96&#45;&gt;Node119</title>
<path fill="none" stroke="#191970" d="M383.0833,-373.2417C396.1043,-375.612 413.5061,-380.4088 426,-390 449.7672,-408.2454 438.1114,-428.9138 462,-447 468.841,-452.1794 477.0776,-455.9521 485.3304,-458.6986"/>
<polygon fill="#191970" stroke="#191970" points="484.365,-462.0627 494.9434,-461.4741 486.3068,-455.3374 484.365,-462.0627"/>
</g>
<!-- Node121 -->
<g id="node44" class="node">
<title>Node121</title>
<g id="a_node44"><a xlink:href="util_8h.html#a1c0f9b041628dcb399a023bc9913f41d" target="_top" xlink:title="CreatePidFile">
<polygon fill="#ffffff" stroke="#000000" points="488,-228.5 488,-247.5 564,-247.5 564,-228.5 488,-228.5"/>
<text text-anchor="middle" x="526" y="-235.5" font-family="Helvetica,sans-Serif" font-size="10.00" fill="#000000">CreatePidFile</text>
</a>
</g>
</g>
<!-- Node96&#45;&gt;Node121 -->
<g id="edge52" class="edge">
<title>Node96&#45;&gt;Node121</title>
<path fill="none" stroke="#191970" d="M383.1331,-369.559C396.5233,-367.592 414.3704,-362.9489 426,-352 458.875,-321.0492 428.919,-287.7305 462,-257 466.6811,-252.6515 472.3138,-249.2948 478.2711,-246.7043"/>
<polygon fill="#191970" stroke="#191970" points="479.6104,-249.9415 487.8099,-243.2319 477.2159,-243.3638 479.6104,-249.9415"/>
</g>
<!-- Node123 -->
<g id="node46" class="node">
<title>Node123</title>
<g id="a_node46"><a xlink:href="util_8h.html#a1e755e72104d3ca393efc1cc3f41952a" target="_top" xlink:title="OpenDebugLog">
<polygon fill="#ffffff" stroke="#000000" points="484,-342.5 484,-361.5 568,-361.5 568,-342.5 484,-342.5"/>
<text text-anchor="middle" x="526" y="-349.5" font-family="Helvetica,sans-Serif" font-size="10.00" fill="#000000">OpenDebugLog</text>
</a>
</g>
</g>
<!-- Node96&#45;&gt;Node123 -->
<g id="edge54" class="edge">
<title>Node96&#45;&gt;Node123</title>
<path fill="none" stroke="#191970" d="M383.1558,-368.8574C404.9519,-366.2852 442.4597,-361.8588 473.5722,-358.1871"/>
<polygon fill="#191970" stroke="#191970" points="474.3254,-361.6226 483.8462,-356.9747 473.5049,-354.6709 474.3254,-361.6226"/>
</g>
<!-- Node124 -->
<g id="node47" class="node">
<title>Node124</title>
<g id="a_node47"><a xlink:href="util_8h.html#a37fca7e305fe0caa306b23fdb37f88e2" target="_top" xlink:title="ShrinkDebugFile">
<polygon fill="#ffffff" stroke="#000000" points="481.5,-380.5 481.5,-399.5 570.5,-399.5 570.5,-380.5 481.5,-380.5"/>
<text text-anchor="middle" x="526" y="-387.5" font-family="Helvetica,sans-Serif" font-size="10.00" fill="#000000">ShrinkDebugFile</text>
</a>
</g>
</g>
<!-- Node96&#45;&gt;Node124 -->
<g id="edge55" class="edge">
<title>Node96&#45;&gt;Node124</title>
<path fill="none" stroke="#191970" d="M383.1558,-373.1426C404.4347,-375.6538 440.6886,-379.9322 471.3469,-383.5503"/>
<polygon fill="#191970" stroke="#191970" points="471.1585,-387.0522 481.4998,-384.7484 471.979,-380.1005 471.1585,-387.0522"/>
</g>
<!-- Node125 -->
<g id="node48" class="node">
<title>Node125</title>
<g id="a_node48"><a xlink:href="util_8h.html#aa803aa631ab8b4bd79fa9d7b2172bf9a" target="_top" xlink:title="runCommand">
<polygon fill="#ffffff" stroke="#000000" points="488.5,-304.5 488.5,-323.5 563.5,-323.5 563.5,-304.5 488.5,-304.5"/>
<text text-anchor="middle" x="526" y="-311.5" font-family="Helvetica,sans-Serif" font-size="10.00" fill="#000000">runCommand</text>
</a>
</g>
</g>
<!-- Node96&#45;&gt;Node125 -->
<g id="edge58" class="edge">
<title>Node96&#45;&gt;Node125</title>
<path fill="none" stroke="#191970" d="M383.1917,-366.2799C395.4837,-362.8621 411.9669,-357.8306 426,-352 442.707,-345.0584 445.247,-339.8298 462,-333 467.5693,-330.7295 473.5104,-328.5989 479.4437,-326.6446"/>
<polygon fill="#191970" stroke="#191970" points="480.8647,-329.8668 489.3546,-323.5287 478.7652,-323.1891 480.8647,-329.8668"/>
</g>
<!-- Node99 -->
<g id="node24" class="node">
<title>Node99</title>
<g id="a_node24"><a xlink:href="namespacetinyformat.html#a86ed74eb3ed66a662e96220d877da964" target="_top" xlink:title="Format list of arguments to the stream according to the given format string. ">
<polygon fill="#ffffff" stroke="#000000" points="645,-494.5 645,-513.5 744,-513.5 744,-494.5 645,-494.5"/>
<text text-anchor="middle" x="694.5" y="-501.5" font-family="Helvetica,sans-Serif" font-size="10.00" fill="#000000">tinyformat::vformat</text>
</a>
</g>
</g>
<!-- Node98&#45;&gt;Node99 -->
<g id="edge31" class="edge">
<title>Node98&#45;&gt;Node99</title>
<path fill="none" stroke="#191970" d="M573.3851,-504C592.4542,-504 614.662,-504 634.8148,-504"/>
<polygon fill="#191970" stroke="#191970" points="634.8283,-507.5001 644.8283,-504 634.8282,-500.5001 634.8283,-507.5001"/>
</g>
<!-- Node106 -->
<g id="node29" class="node">
<title>Node106</title>
<g id="a_node29"><a xlink:href="namespacetinyformat.html#a37afaa5249c69dacd619269358f06f69" target="_top" xlink:title="Make type&#45;agnostic format list from list of template arguments. ">
<polygon fill="#ffffff" stroke="#000000" points="626,-532.5 626,-551.5 763,-551.5 763,-532.5 626,-532.5"/>
<text text-anchor="middle" x="694.5" y="-539.5" font-family="Helvetica,sans-Serif" font-size="10.00" fill="#000000">tinyformat::makeFormatList</text>
</a>
</g>
</g>
<!-- Node98&#45;&gt;Node106 -->
<g id="edge36" class="edge">
<title>Node98&#45;&gt;Node106</title>
<path fill="none" stroke="#191970" d="M568.5197,-513.589C590.9554,-518.6487 618.6732,-524.8996 642.3925,-530.2488"/>
<polygon fill="#191970" stroke="#191970" points="641.7611,-533.6942 652.2861,-532.4799 643.3011,-526.8657 641.7611,-533.6942"/>
</g>
<!-- Node100 -->
<g id="node25" class="node">
<title>Node100</title>
<g id="a_node25"><a xlink:href="namespacetinyformat_1_1detail.html#a079a316938c0e8693efbeb0183b1390d" target="_top" xlink:title="tinyformat::detail\l::formatImpl">
<polygon fill="#ffffff" stroke="#000000" points="808,-489 808,-519 897,-519 897,-489 808,-489"/>
<text text-anchor="start" x="816" y="-507" font-family="Helvetica,sans-Serif" font-size="10.00" fill="#000000">tinyformat::detail</text>
<text text-anchor="middle" x="852.5" y="-496" font-family="Helvetica,sans-Serif" font-size="10.00" fill="#000000">::formatImpl</text>
</a>
</g>
</g>
<!-- Node99&#45;&gt;Node100 -->
<g id="edge32" class="edge">
<title>Node99&#45;&gt;Node100</title>
<path fill="none" stroke="#191970" d="M744.0587,-504C761.1562,-504 780.4007,-504 797.8798,-504"/>
<polygon fill="#191970" stroke="#191970" points="797.9378,-507.5001 807.9378,-504 797.9377,-500.5001 797.9378,-507.5001"/>
</g>
<!-- Node101 -->
<g id="node26" class="node">
<title>Node101</title>
<g id="a_node26"><a xlink:href="namespacetinyformat_1_1detail.html#ad3d636b9f85202b515c8940b7fcb62a6" target="_top" xlink:title="tinyformat::detail\l::printFormatStringLiteral">
<polygon fill="#ffffff" stroke="#000000" points="944.5,-538 944.5,-568 1068.5,-568 1068.5,-538 944.5,-538"/>
<text text-anchor="start" x="952.5" y="-556" font-family="Helvetica,sans-Serif" font-size="10.00" fill="#000000">tinyformat::detail</text>
<text text-anchor="middle" x="1006.5" y="-545" font-family="Helvetica,sans-Serif" font-size="10.00" fill="#000000">::printFormatStringLiteral</text>
</a>
</g>
</g>
<!-- Node100&#45;&gt;Node101 -->
<g id="edge33" class="edge">
<title>Node100&#45;&gt;Node101</title>
<path fill="none" stroke="#191970" d="M897.0432,-518.1728C913.3057,-523.3473 931.9325,-529.274 949.1537,-534.7534"/>
<polygon fill="#191970" stroke="#191970" points="948.5118,-538.2221 959.1023,-537.9189 950.6343,-531.5516 948.5118,-538.2221"/>
</g>
<!-- Node102 -->
<g id="node27" class="node">
<title>Node102</title>
<g id="a_node27"><a xlink:href="namespacetinyformat_1_1detail.html#a681e8ceb825485cc5e3b057c11e4b1b5" target="_top" xlink:title="tinyformat::detail\l::streamStateFromFormat">
<polygon fill="#ffffff" stroke="#ff0000" points="942,-489 942,-519 1071,-519 1071,-489 942,-489"/>
<text text-anchor="start" x="950" y="-507" font-family="Helvetica,sans-Serif" font-size="10.00" fill="#000000">tinyformat::detail</text>
<text text-anchor="middle" x="1006.5" y="-496" font-family="Helvetica,sans-Serif" font-size="10.00" fill="#000000">::streamStateFromFormat</text>
</a>
</g>
</g>
<!-- Node100&#45;&gt;Node102 -->
<g id="edge34" class="edge">
<title>Node100&#45;&gt;Node102</title>
<path fill="none" stroke="#191970" d="M897.0432,-504C907.83,-504 919.6571,-504 931.4242,-504"/>
<polygon fill="#191970" stroke="#191970" points="931.7219,-507.5001 941.7219,-504 931.7218,-500.5001 931.7219,-507.5001"/>
</g>
<!-- Node105 -->
<g id="node28" class="node">
<title>Node105</title>
<g id="a_node28"><a xlink:href="classtinyformat_1_1detail_1_1_format_arg.html#acbf435711bbe4a4da7fc81758d7108a9" target="_top" xlink:title="tinyformat::detail\l::FormatArg::format">
<polygon fill="#ffffff" stroke="#000000" points="955.5,-440 955.5,-470 1057.5,-470 1057.5,-440 955.5,-440"/>
<text text-anchor="start" x="963.5" y="-458" font-family="Helvetica,sans-Serif" font-size="10.00" fill="#000000">tinyformat::detail</text>
<text text-anchor="middle" x="1006.5" y="-447" font-family="Helvetica,sans-Serif" font-size="10.00" fill="#000000">::FormatArg::format</text>
</a>
</g>
</g>
<!-- Node100&#45;&gt;Node105 -->
<g id="edge35" class="edge">
<title>Node100&#45;&gt;Node105</title>
<path fill="none" stroke="#191970" d="M897.0432,-489.8272C913.3057,-484.6527 931.9325,-478.726 949.1537,-473.2466"/>
<polygon fill="#191970" stroke="#191970" points="950.6343,-476.4484 959.1023,-470.0811 948.5118,-469.7779 950.6343,-476.4484"/>
</g>
<!-- Node118 -->
<g id="node41" class="node">
<title>Node118</title>
<g id="a_node41"><a xlink:href="util_8cpp.html#a7ebe0bd091f7334aaead43904601e008" target="_top" xlink:title="GetDataDir">
<polygon fill="#ffffff" stroke="#000000" points="661.5,-418.5 661.5,-437.5 727.5,-437.5 727.5,-418.5 661.5,-418.5"/>
<text text-anchor="middle" x="694.5" y="-425.5" font-family="Helvetica,sans-Serif" font-size="10.00" fill="#000000">GetDataDir</text>
</a>
</g>
</g>
<!-- Node117&#45;&gt;Node118 -->
<g id="edge48" class="edge">
<title>Node117&#45;&gt;Node118</title>
<path fill="none" stroke="#191970" d="M564.6573,-428C590.4758,-428 624.4691,-428 651.1973,-428"/>
<polygon fill="#191970" stroke="#191970" points="651.4211,-431.5001 661.4211,-428 651.421,-424.5001 651.4211,-431.5001"/>
</g>
<!-- Node119&#45;&gt;Node118 -->
<g id="edge51" class="edge">
<title>Node119&#45;&gt;Node118</title>
<path fill="none" stroke="#191970" d="M557.2987,-458.9415C583.7759,-452.9704 621.9869,-444.3531 651.3634,-437.7281"/>
<polygon fill="#191970" stroke="#191970" points="652.367,-441.0898 661.352,-435.4755 650.827,-434.2613 652.367,-441.0898"/>
</g>
<!-- Node120 -->
<g id="node43" class="node">
<title>Node120</title>
<g id="a_node43"><a xlink:href="class_args_manager.html#adb5d644d273b3a259f792affcdca8283" target="_top" xlink:title="Return string argument or default value. ">
<polygon fill="#ffffff" stroke="#000000" points="639,-456.5 639,-475.5 750,-475.5 750,-456.5 639,-456.5"/>
<text text-anchor="middle" x="694.5" y="-463.5" font-family="Helvetica,sans-Serif" font-size="10.00" fill="#000000">ArgsManager::GetArg</text>
</a>
</g>
</g>
<!-- Node119&#45;&gt;Node120 -->
<g id="edge50" class="edge">
<title>Node119&#45;&gt;Node120</title>
<path fill="none" stroke="#191970" d="M557.2987,-466C577.3744,-466 604.1959,-466 628.7973,-466"/>
<polygon fill="#191970" stroke="#191970" points="628.816,-469.5001 638.816,-466 628.816,-462.5001 628.816,-469.5001"/>
</g>
<!-- Node122 -->
<g id="node45" class="node">
<title>Node122</title>
<g id="a_node45"><a xlink:href="namespacefsbridge.html#a19c84cec4ae9accfbc88a83e48f7ee92" target="_top" xlink:title="fsbridge::fopen">
<polygon fill="#ffffff" stroke="#000000" points="654,-304.5 654,-323.5 735,-323.5 735,-304.5 654,-304.5"/>
<text text-anchor="middle" x="694.5" y="-311.5" font-family="Helvetica,sans-Serif" font-size="10.00" fill="#000000">fsbridge::fopen</text>
</a>
</g>
</g>
<!-- Node121&#45;&gt;Node122 -->
<g id="edge53" class="edge">
<title>Node121&#45;&gt;Node122</title>
<path fill="none" stroke="#191970" d="M563.0156,-247.5464C571.9772,-250.2506 581.438,-253.4408 590,-257 618.7939,-268.9696 649.9491,-286.6315 670.6787,-299.1171"/>
<polygon fill="#191970" stroke="#191970" points="669.0637,-302.2316 679.4236,-304.4504 672.7085,-296.2554 669.0637,-302.2316"/>
</g>
<!-- Node124&#45;&gt;Node118 -->
<g id="edge56" class="edge">
<title>Node124&#45;&gt;Node118</title>
<path fill="none" stroke="#191970" d="M568.5197,-399.589C593.9099,-405.315 626.065,-412.5666 651.534,-418.3103"/>
<polygon fill="#191970" stroke="#191970" points="650.7665,-421.7251 661.2915,-420.5109 652.3065,-414.8966 650.7665,-421.7251"/>
</g>
<!-- Node124&#45;&gt;Node122 -->
<g id="edge57" class="edge">
<title>Node124&#45;&gt;Node122</title>
<path fill="none" stroke="#191970" d="M563.0156,-380.4536C571.9772,-377.7494 581.438,-374.5592 590,-371 618.7939,-359.0304 649.9491,-341.3685 670.6787,-328.8829"/>
<polygon fill="#191970" stroke="#191970" points="672.7085,-331.7446 679.4236,-323.5496 669.0637,-325.7684 672.7085,-331.7446"/>
</g>
</g>
</svg>
