<?xml version="1.0" encoding="UTF-8" standalone="no"?>
<!DOCTYPE svg PUBLIC "-//W3C//DTD SVG 1.1//EN"
 "http://www.w3.org/Graphics/SVG/1.1/DTD/svg11.dtd">
<!-- Generated by graphviz version 2.40.1 (20161225.0304)
 -->
<!-- Title: src/qt/platformstyle.cpp Pages: 1 -->
<svg width="572pt" height="140pt"
 viewBox="0.00 0.00 572.00 140.00" xmlns="http://www.w3.org/2000/svg" xmlns:xlink="http://www.w3.org/1999/xlink">
<g id="graph0" class="graph" transform="scale(1 1) rotate(0) translate(4 136)">
<title>src/qt/platformstyle.cpp</title>
<polygon fill="#ffffff" stroke="transparent" points="-4,4 -4,-136 568,-136 568,4 -4,4"/>
<!-- Node0 -->
<g id="node1" class="node">
<title>Node0</title>
<polygon fill="#bfbfbf" stroke="#000000" points="214,-112.5 214,-131.5 333,-131.5 333,-112.5 214,-112.5"/>
<text text-anchor="middle" x="273.5" y="-119.5" font-family="Helvetica,sans-Serif" font-size="10.00" fill="#000000">src/qt/platformstyle.cpp</text>
</g>
<!-- Node1 -->
<g id="node2" class="node">
<title>Node1</title>
<g id="a_node2"><a xlink:href="platformstyle_8h.html" target="_top" xlink:title="platformstyle.h">
<polygon fill="#ffffff" stroke="#000000" points="49,-56.5 49,-75.5 130,-75.5 130,-56.5 49,-56.5"/>
<text text-anchor="middle" x="89.5" y="-63.5" font-family="Helvetica,sans-Serif" font-size="10.00" fill="#000000">platformstyle.h</text>
</a>
</g>
</g>
<!-- Node0&#45;&gt;Node1 -->
<g id="edge1" class="edge">
<title>Node0&#45;&gt;Node1</title>
<path fill="none" stroke="#191970" d="M241.8693,-112.3733C211.1404,-103.021 164.324,-88.7725 130.6978,-78.5385"/>
<polygon fill="#191970" stroke="#191970" points="131.3038,-75.0644 120.718,-75.5011 129.2656,-81.7612 131.3038,-75.0644"/>
</g>
<!-- Node2 -->
<g id="node3" class="node">
<title>Node2</title>
<polygon fill="#ffffff" stroke="#bfbfbf" points="0,-.5 0,-19.5 43,-19.5 43,-.5 0,-.5"/>
<text text-anchor="middle" x="21.5" y="-7.5" font-family="Helvetica,sans-Serif" font-size="10.00" fill="#000000">QIcon</text>
</g>
<!-- Node0&#45;&gt;Node2 -->
<g id="edge8" class="edge">
<title>Node0&#45;&gt;Node2</title>
<path fill="none" stroke="#191970" d="M213.9485,-117.2515C153.4848,-111.237 65.3302,-98.7957 40.5,-76 27.7612,-64.305 23.3581,-44.6781 21.9344,-29.8602"/>
<polygon fill="#191970" stroke="#191970" points="25.4168,-29.4553 21.3377,-19.6772 18.4287,-29.8648 25.4168,-29.4553"/>
</g>
<!-- Node3 -->
<g id="node4" class="node">
<title>Node3</title>
<polygon fill="#ffffff" stroke="#bfbfbf" points="130,-.5 130,-19.5 187,-19.5 187,-.5 130,-.5"/>
<text text-anchor="middle" x="158.5" y="-7.5" font-family="Helvetica,sans-Serif" font-size="10.00" fill="#000000">QPixmap</text>
</g>
<!-- Node0&#45;&gt;Node3 -->
<g id="edge11" class="edge">
<title>Node0&#45;&gt;Node3</title>
<path fill="none" stroke="#191970" d="M236.4849,-112.3809C216.4036,-105.3805 192.6587,-93.9195 177.5,-76 166.5624,-63.0704 161.9129,-44.172 159.9409,-29.9078"/>
<polygon fill="#191970" stroke="#191970" points="163.3905,-29.2437 158.8644,-19.6644 156.4288,-29.9754 163.3905,-29.2437"/>
</g>
<!-- Node5 -->
<g id="node6" class="node">
<title>Node5</title>
<g id="a_node6"><a xlink:href="guiconstants_8h.html" target="_top" xlink:title="guiconstants.h">
<polygon fill="#ffffff" stroke="#000000" points="186.5,-56.5 186.5,-75.5 266.5,-75.5 266.5,-56.5 186.5,-56.5"/>
<text text-anchor="middle" x="226.5" y="-63.5" font-family="Helvetica,sans-Serif" font-size="10.00" fill="#000000">guiconstants.h</text>
</a>
</g>
</g>
<!-- Node0&#45;&gt;Node5 -->
<g id="edge5" class="edge">
<title>Node0&#45;&gt;Node5</title>
<path fill="none" stroke="#191970" d="M265.3132,-112.2455C258.6411,-104.2958 249.0521,-92.8706 241.0747,-83.3656"/>
<polygon fill="#191970" stroke="#191970" points="243.7026,-81.0524 234.593,-75.6427 238.3408,-85.5525 243.7026,-81.0524"/>
</g>
<!-- Node6 -->
<g id="node7" class="node">
<title>Node6</title>
<polygon fill="#ffffff" stroke="#bfbfbf" points="284.5,-56.5 284.5,-75.5 356.5,-75.5 356.5,-56.5 284.5,-56.5"/>
<text text-anchor="middle" x="320.5" y="-63.5" font-family="Helvetica,sans-Serif" font-size="10.00" fill="#000000">QApplication</text>
</g>
<!-- Node0&#45;&gt;Node6 -->
<g id="edge6" class="edge">
<title>Node0&#45;&gt;Node6</title>
<path fill="none" stroke="#191970" d="M281.6868,-112.2455C288.3589,-104.2958 297.9479,-92.8706 305.9253,-83.3656"/>
<polygon fill="#191970" stroke="#191970" points="308.6592,-85.5525 312.407,-75.6427 303.2974,-81.0524 308.6592,-85.5525"/>
</g>
<!-- Node7 -->
<g id="node8" class="node">
<title>Node7</title>
<polygon fill="#ffffff" stroke="#bfbfbf" points="375,-56.5 375,-75.5 422,-75.5 422,-56.5 375,-56.5"/>
<text text-anchor="middle" x="398.5" y="-63.5" font-family="Helvetica,sans-Serif" font-size="10.00" fill="#000000">QColor</text>
</g>
<!-- Node0&#45;&gt;Node7 -->
<g id="edge7" class="edge">
<title>Node0&#45;&gt;Node7</title>
<path fill="none" stroke="#191970" d="M294.9883,-112.3733C315.144,-103.3435 345.488,-89.7494 368.118,-79.6111"/>
<polygon fill="#191970" stroke="#191970" points="369.5971,-82.7838 377.2921,-75.5011 366.7351,-76.3955 369.5971,-82.7838"/>
</g>
<!-- Node8 -->
<g id="node9" class="node">
<title>Node8</title>
<polygon fill="#ffffff" stroke="#bfbfbf" points="440,-56.5 440,-75.5 491,-75.5 491,-56.5 440,-56.5"/>
<text text-anchor="middle" x="465.5" y="-63.5" font-family="Helvetica,sans-Serif" font-size="10.00" fill="#000000">QImage</text>
</g>
<!-- Node0&#45;&gt;Node8 -->
<g id="edge9" class="edge">
<title>Node0&#45;&gt;Node8</title>
<path fill="none" stroke="#191970" d="M306.4927,-112.4231C336.464,-103.7169 382.1525,-90.4294 430.2375,-76.3649"/>
<polygon fill="#191970" stroke="#191970" points="431.2678,-79.7102 439.8825,-73.5427 429.302,-72.9919 431.2678,-79.7102"/>
</g>
<!-- Node9 -->
<g id="node10" class="node">
<title>Node9</title>
<polygon fill="#ffffff" stroke="#bfbfbf" points="509,-56.5 509,-75.5 564,-75.5 564,-56.5 509,-56.5"/>
<text text-anchor="middle" x="536.5" y="-63.5" font-family="Helvetica,sans-Serif" font-size="10.00" fill="#000000">QPalette</text>
</g>
<!-- Node0&#45;&gt;Node9 -->
<g id="edge10" class="edge">
<title>Node0&#45;&gt;Node9</title>
<path fill="none" stroke="#191970" d="M326.0254,-112.4522C369.9296,-104.2236 434.3933,-91.5686 498.7373,-76.3175"/>
<polygon fill="#191970" stroke="#191970" points="499.7312,-79.6786 508.6428,-73.9485 498.103,-72.8706 499.7312,-79.6786"/>
</g>
<!-- Node1&#45;&gt;Node2 -->
<g id="edge2" class="edge">
<title>Node1&#45;&gt;Node2</title>
<path fill="none" stroke="#191970" d="M77.6553,-56.2455C67.612,-47.9746 53.0005,-35.9416 41.1996,-26.2232"/>
<polygon fill="#191970" stroke="#191970" points="43.1533,-23.298 33.209,-19.6427 38.7033,-28.7015 43.1533,-23.298"/>
</g>
<!-- Node1&#45;&gt;Node3 -->
<g id="edge3" class="edge">
<title>Node1&#45;&gt;Node3</title>
<path fill="none" stroke="#191970" d="M101.5189,-56.2455C111.7098,-47.9746 126.5362,-35.9416 138.5107,-26.2232"/>
<polygon fill="#191970" stroke="#191970" points="141.0598,-28.662 146.6188,-19.6427 136.6486,-23.2268 141.0598,-28.662"/>
</g>
<!-- Node4 -->
<g id="node5" class="node">
<title>Node4</title>
<polygon fill="#ffffff" stroke="#bfbfbf" points="61.5,-.5 61.5,-19.5 111.5,-19.5 111.5,-.5 61.5,-.5"/>
<text text-anchor="middle" x="86.5" y="-7.5" font-family="Helvetica,sans-Serif" font-size="10.00" fill="#000000">QString</text>
</g>
<!-- Node1&#45;&gt;Node4 -->
<g id="edge4" class="edge">
<title>Node1&#45;&gt;Node4</title>
<path fill="none" stroke="#191970" d="M88.9774,-56.2455C88.586,-48.9382 88.0372,-38.6944 87.5556,-29.7046"/>
<polygon fill="#191970" stroke="#191970" points="91.0466,-29.4411 87.0166,-19.6427 84.0566,-29.8156 91.0466,-29.4411"/>
</g>
</g>
</svg>
