<?xml version="1.0" encoding="UTF-8" standalone="no"?>
<!DOCTYPE svg PUBLIC "-//W3C//DTD SVG 1.1//EN"
 "http://www.w3.org/Graphics/SVG/1.1/DTD/svg11.dtd">
<!-- Generated by graphviz version 2.40.1 (20161225.0304)
 -->
<!-- Title: FeeModeFromString Pages: 1 -->
<svg width="241pt" height="66pt"
 viewBox="0.00 0.00 241.00 66.00" xmlns="http://www.w3.org/2000/svg" xmlns:xlink="http://www.w3.org/1999/xlink">
<g id="graph0" class="graph" transform="scale(1 1) rotate(0) translate(4 62)">
<title>FeeModeFromString</title>
<polygon fill="#ffffff" stroke="transparent" points="-4,4 -4,-62 237,-62 237,4 -4,4"/>
<!-- Node1 -->
<g id="node1" class="node">
<title>Node1</title>
<polygon fill="#bfbfbf" stroke="#000000" points="0,-19.5 0,-38.5 105,-38.5 105,-19.5 0,-19.5"/>
<text text-anchor="middle" x="52.5" y="-26.5" font-family="Helvetica,sans-Serif" font-size="10.00" fill="#000000">FeeModeFromString</text>
</g>
<!-- Node2 -->
<g id="node2" class="node">
<title>Node2</title>
<g id="a_node2"><a xlink:href="mining_8cpp.html#a4d52dab422bb2e483cc73845003dc19b" target="_top" xlink:title="estimatesmartfee">
<polygon fill="#ffffff" stroke="#000000" points="141,-38.5 141,-57.5 233,-57.5 233,-38.5 141,-38.5"/>
<text text-anchor="middle" x="187" y="-45.5" font-family="Helvetica,sans-Serif" font-size="10.00" fill="#000000">estimatesmartfee</text>
</a>
</g>
</g>
<!-- Node1&#45;&gt;Node2 -->
<g id="edge1" class="edge">
<title>Node1&#45;&gt;Node2</title>
<path fill="none" stroke="#191970" d="M115.3206,-37.8743C123.948,-39.093 132.673,-40.3256 140.9244,-41.4912"/>
<polygon fill="#191970" stroke="#191970" points="115.6632,-34.388 105.2719,-36.4548 114.684,-41.3192 115.6632,-34.388"/>
</g>
<!-- Node3 -->
<g id="node3" class="node">
<title>Node3</title>
<g id="a_node3"><a xlink:href="rpcwallet_8cpp.html#aa4b8de6450478126d6c82d06a8df097c" target="_top" xlink:title="sendmany">
<polygon fill="#ffffff" stroke="#000000" points="156,-.5 156,-19.5 218,-19.5 218,-.5 156,-.5"/>
<text text-anchor="middle" x="187" y="-7.5" font-family="Helvetica,sans-Serif" font-size="10.00" fill="#000000">sendmany</text>
</a>
</g>
</g>
<!-- Node1&#45;&gt;Node3 -->
<g id="edge2" class="edge">
<title>Node1&#45;&gt;Node3</title>
<path fill="none" stroke="#191970" d="M115.391,-20.1158C129.3972,-18.1372 143.6567,-16.1228 155.7255,-14.418"/>
<polygon fill="#191970" stroke="#191970" points="114.684,-16.6808 105.2719,-21.5452 115.6632,-23.612 114.684,-16.6808"/>
</g>
</g>
</svg>
