<?xml version="1.0" encoding="UTF-8" standalone="no"?>
<!DOCTYPE svg PUBLIC "-//W3C//DTD SVG 1.1//EN"
 "http://www.w3.org/Graphics/SVG/1.1/DTD/svg11.dtd">
<!-- Generated by graphviz version 2.40.1 (20161225.0304)
 -->
<!-- Title: src/protocol.h Pages: 1 -->
<svg width="2356pt" height="308pt"
 viewBox="0.00 0.00 2355.91 308.00" xmlns="http://www.w3.org/2000/svg" xmlns:xlink="http://www.w3.org/1999/xlink">
<g id="graph0" class="graph" transform="scale(1 1) rotate(0) translate(4 304)">
<title>src/protocol.h</title>
<polygon fill="#ffffff" stroke="transparent" points="-4,4 -4,-304 2351.9103,-304 2351.9103,4 -4,4"/>
<!-- Node0 -->
<g id="node1" class="node">
<title>Node0</title>
<polygon fill="#bfbfbf" stroke="#000000" points="1868.4103,-280.5 1868.4103,-299.5 1944.4103,-299.5 1944.4103,-280.5 1868.4103,-280.5"/>
<text text-anchor="middle" x="1906.4103" y="-287.5" font-family="Helvetica,sans-Serif" font-size="10.00" fill="#000000">src/protocol.h</text>
</g>
<!-- Node1 -->
<g id="node2" class="node">
<title>Node1</title>
<g id="a_node2"><a xlink:href="netaddress_8h.html" target="_top" xlink:title="netaddress.h">
<polygon fill="#ffffff" stroke="#000000" points="1650.9103,-224.5 1650.9103,-243.5 1723.9103,-243.5 1723.9103,-224.5 1650.9103,-224.5"/>
<text text-anchor="middle" x="1687.4103" y="-231.5" font-family="Helvetica,sans-Serif" font-size="10.00" fill="#000000">netaddress.h</text>
</a>
</g>
</g>
<!-- Node0&#45;&gt;Node1 -->
<g id="edge1" class="edge">
<title>Node0&#45;&gt;Node1</title>
<path fill="none" stroke="#191970" d="M1868.7629,-280.3733C1831.4455,-270.8309 1774.1943,-256.1913 1734.0242,-245.9195"/>
<polygon fill="#191970" stroke="#191970" points="1734.7574,-242.4945 1724.202,-243.4079 1733.0232,-249.2763 1734.7574,-242.4945"/>
</g>
<!-- Node17 -->
<g id="node18" class="node">
<title>Node17</title>
<g id="a_node18"><a xlink:href="serialize_8h.html" target="_top" xlink:title="serialize.h">
<polygon fill="#ffffff" stroke="#000000" points="1630.9103,-168.5 1630.9103,-187.5 1691.9103,-187.5 1691.9103,-168.5 1630.9103,-168.5"/>
<text text-anchor="middle" x="1661.4103" y="-175.5" font-family="Helvetica,sans-Serif" font-size="10.00" fill="#000000">serialize.h</text>
</a>
</g>
</g>
<!-- Node0&#45;&gt;Node17 -->
<g id="edge44" class="edge">
<title>Node0&#45;&gt;Node17</title>
<path fill="none" stroke="#191970" d="M1885.5218,-280.4509C1842.1274,-260.6135 1742.0762,-214.8758 1691.6402,-191.8194"/>
<polygon fill="#191970" stroke="#191970" points="1692.796,-188.4994 1682.246,-187.5249 1689.8856,-194.8657 1692.796,-188.4994"/>
</g>
<!-- Node20 -->
<g id="node21" class="node">
<title>Node20</title>
<polygon fill="#ffffff" stroke="#bfbfbf" points="1818.9103,-.5 1818.9103,-19.5 1867.9103,-19.5 1867.9103,-.5 1818.9103,-.5"/>
<text text-anchor="middle" x="1843.4103" y="-7.5" font-family="Helvetica,sans-Serif" font-size="10.00" fill="#000000">stdint.h</text>
</g>
<!-- Node0&#45;&gt;Node20 -->
<g id="edge57" class="edge">
<title>Node0&#45;&gt;Node20</title>
<path fill="none" stroke="#191970" d="M1868.1673,-289.7246C1605.2296,-287.588 75.4103,-271.1543 75.4103,-178 75.4103,-178 75.4103,-178 75.4103,-122 75.4103,-110.1319 -209.0613,-132.5199 332.4103,-56 482.7917,-34.7484 1596.5846,-14.3196 1808.6059,-10.6005"/>
<polygon fill="#191970" stroke="#191970" points="1808.9002,-14.096 1818.8375,-10.4217 1808.7779,-7.0971 1808.9002,-14.096"/>
</g>
<!-- Node28 -->
<g id="node29" class="node">
<title>Node28</title>
<polygon fill="#ffffff" stroke="#bfbfbf" points="1905.9103,-112.5 1905.9103,-131.5 1946.9103,-131.5 1946.9103,-112.5 1905.9103,-112.5"/>
<text text-anchor="middle" x="1926.4103" y="-119.5" font-family="Helvetica,sans-Serif" font-size="10.00" fill="#000000">string</text>
</g>
<!-- Node0&#45;&gt;Node28 -->
<g id="edge58" class="edge">
<title>Node0&#45;&gt;Node28</title>
<path fill="none" stroke="#191970" d="M1907.5429,-280.4862C1910.7045,-253.9293 1919.6764,-178.5651 1924.0097,-142.1655"/>
<polygon fill="#191970" stroke="#191970" points="1927.5336,-142.1715 1925.2403,-131.8279 1920.5827,-141.344 1927.5336,-142.1715"/>
</g>
<!-- Node36 -->
<g id="node37" class="node">
<title>Node36</title>
<g id="a_node37"><a xlink:href="uint256_8h.html" target="_top" xlink:title="uint256.h">
<polygon fill="#ffffff" stroke="#000000" points="2020.4103,-224.5 2020.4103,-243.5 2076.4103,-243.5 2076.4103,-224.5 2020.4103,-224.5"/>
<text text-anchor="middle" x="2048.4103" y="-231.5" font-family="Helvetica,sans-Serif" font-size="10.00" fill="#000000">uint256.h</text>
</a>
</g>
</g>
<!-- Node0&#45;&gt;Node36 -->
<g id="edge45" class="edge">
<title>Node0&#45;&gt;Node36</title>
<path fill="none" stroke="#191970" d="M1930.821,-280.3733C1954.0246,-271.2226 1989.1142,-257.3844 2014.9246,-247.2057"/>
<polygon fill="#191970" stroke="#191970" points="2016.2995,-250.4258 2024.3182,-243.5011 2013.7314,-243.9139 2016.2995,-250.4258"/>
</g>
<!-- Node40 -->
<g id="node41" class="node">
<title>Node40</title>
<g id="a_node41"><a xlink:href="version_8h.html" target="_top" xlink:title="version.h">
<polygon fill="#ffffff" stroke="#000000" points="2094.4103,-224.5 2094.4103,-243.5 2150.4103,-243.5 2150.4103,-224.5 2094.4103,-224.5"/>
<text text-anchor="middle" x="2122.4103" y="-231.5" font-family="Helvetica,sans-Serif" font-size="10.00" fill="#000000">version.h</text>
</a>
</g>
</g>
<!-- Node0&#45;&gt;Node40 -->
<g id="edge56" class="edge">
<title>Node0&#45;&gt;Node40</title>
<path fill="none" stroke="#191970" d="M1944.1603,-280.4438C1978.3577,-271.7547 2030.3871,-258.4547 2084.3926,-244.2479"/>
<polygon fill="#191970" stroke="#191970" points="2085.3602,-247.6125 2094.1383,-241.6799 2083.5765,-240.8435 2085.3602,-247.6125"/>
</g>
<!-- Node2 -->
<g id="node3" class="node">
<title>Node2</title>
<g id="a_node3"><a xlink:href="compat_8h.html" target="_top" xlink:title="compat.h">
<polygon fill="#ffffff" stroke="#000000" points="707.9103,-168.5 707.9103,-187.5 764.9103,-187.5 764.9103,-168.5 707.9103,-168.5"/>
<text text-anchor="middle" x="736.4103" y="-175.5" font-family="Helvetica,sans-Serif" font-size="10.00" fill="#000000">compat.h</text>
</a>
</g>
</g>
<!-- Node1&#45;&gt;Node2 -->
<g id="edge2" class="edge">
<title>Node1&#45;&gt;Node2</title>
<path fill="none" stroke="#191970" d="M1650.7127,-231.839C1500.2048,-222.9763 930.8661,-189.4506 775.6821,-180.3125"/>
<polygon fill="#191970" stroke="#191970" points="775.4245,-176.7914 765.236,-179.6974 775.013,-183.7793 775.4245,-176.7914"/>
</g>
<!-- Node1&#45;&gt;Node17 -->
<g id="edge17" class="edge">
<title>Node1&#45;&gt;Node17</title>
<path fill="none" stroke="#191970" d="M1682.8815,-224.2455C1679.377,-216.6973 1674.4177,-206.0158 1670.1481,-196.8197"/>
<polygon fill="#191970" stroke="#191970" points="1673.273,-195.2389 1665.8873,-187.6427 1666.9239,-198.1867 1673.273,-195.2389"/>
</g>
<!-- Node1&#45;&gt;Node20 -->
<g id="edge41" class="edge">
<title>Node1&#45;&gt;Node20</title>
<path fill="none" stroke="#191970" d="M1650.5484,-232.9791C1520.2933,-229.2239 1069.5668,-214.9742 698.4103,-188 445.2648,-169.6024 -41.6407,-296.736 132.4103,-112 192.074,-48.6736 1571.1072,-15.9159 1808.7073,-10.7331"/>
<polygon fill="#191970" stroke="#191970" points="1808.9228,-14.2294 1818.8447,-10.5137 1808.7713,-7.231 1808.9228,-14.2294"/>
</g>
<!-- Node1&#45;&gt;Node28 -->
<g id="edge42" class="edge">
<title>Node1&#45;&gt;Node28</title>
<path fill="none" stroke="#191970" d="M1709.604,-224.3317C1730.5264,-215.1598 1762.716,-200.9001 1790.4103,-188 1827.8651,-170.5534 1870.6882,-149.6037 1898.1108,-136.0582"/>
<polygon fill="#191970" stroke="#191970" points="1899.7234,-139.1654 1907.1342,-131.5937 1896.6191,-132.8913 1899.7234,-139.1654"/>
</g>
<!-- Node31 -->
<g id="node32" class="node">
<title>Node31</title>
<polygon fill="#ffffff" stroke="#bfbfbf" points="1843.4103,-112.5 1843.4103,-131.5 1887.4103,-131.5 1887.4103,-112.5 1843.4103,-112.5"/>
<text text-anchor="middle" x="1865.4103" y="-119.5" font-family="Helvetica,sans-Serif" font-size="10.00" fill="#000000">vector</text>
</g>
<!-- Node1&#45;&gt;Node31 -->
<g id="edge43" class="edge">
<title>Node1&#45;&gt;Node31</title>
<path fill="none" stroke="#191970" d="M1702.5865,-224.4509C1733.5884,-204.9441 1804.3925,-160.3932 1841.5856,-136.9909"/>
<polygon fill="#191970" stroke="#191970" points="1843.6726,-139.8129 1850.2726,-131.5249 1839.9447,-133.8882 1843.6726,-139.8129"/>
</g>
<!-- Node3 -->
<g id="node4" class="node">
<title>Node3</title>
<polygon fill="#ffffff" stroke="#bfbfbf" points="276.4103,-112.5 276.4103,-131.5 338.4103,-131.5 338.4103,-112.5 276.4103,-112.5"/>
<text text-anchor="middle" x="307.4103" y="-119.5" font-family="Helvetica,sans-Serif" font-size="10.00" fill="#000000">sys/fcntl.h</text>
</g>
<!-- Node2&#45;&gt;Node3 -->
<g id="edge3" class="edge">
<title>Node2&#45;&gt;Node3</title>
<path fill="none" stroke="#191970" d="M707.4301,-175.8426C644.0758,-170.856 488.3827,-157.1319 348.7921,-132.0654"/>
<polygon fill="#191970" stroke="#191970" points="349.2361,-128.5888 338.7709,-130.241 347.9823,-135.4756 349.2361,-128.5888"/>
</g>
<!-- Node4 -->
<g id="node5" class="node">
<title>Node4</title>
<polygon fill="#ffffff" stroke="#bfbfbf" points="356.9103,-112.5 356.9103,-131.5 427.9103,-131.5 427.9103,-112.5 356.9103,-112.5"/>
<text text-anchor="middle" x="392.4103" y="-119.5" font-family="Helvetica,sans-Serif" font-size="10.00" fill="#000000">sys/mman.h</text>
</g>
<!-- Node2&#45;&gt;Node4 -->
<g id="edge4" class="edge">
<title>Node2&#45;&gt;Node4</title>
<path fill="none" stroke="#191970" d="M707.8577,-174.2469C656.1476,-167.3124 543.3602,-151.5581 438.0653,-132.0235"/>
<polygon fill="#191970" stroke="#191970" points="438.701,-128.5818 428.2279,-130.1831 437.4137,-135.4624 438.701,-128.5818"/>
</g>
<!-- Node5 -->
<g id="node6" class="node">
<title>Node5</title>
<polygon fill="#ffffff" stroke="#bfbfbf" points="446.4103,-112.5 446.4103,-131.5 516.4103,-131.5 516.4103,-112.5 446.4103,-112.5"/>
<text text-anchor="middle" x="481.4103" y="-119.5" font-family="Helvetica,sans-Serif" font-size="10.00" fill="#000000">sys/select.h</text>
</g>
<!-- Node2&#45;&gt;Node5 -->
<g id="edge5" class="edge">
<title>Node2&#45;&gt;Node5</title>
<path fill="none" stroke="#191970" d="M707.7247,-171.8302C668.9401,-163.47 597.3581,-147.9762 526.4639,-132.2212"/>
<polygon fill="#191970" stroke="#191970" points="526.99,-128.7527 516.4685,-129.9971 525.4695,-135.5856 526.99,-128.7527"/>
</g>
<!-- Node6 -->
<g id="node7" class="node">
<title>Node6</title>
<polygon fill="#ffffff" stroke="#bfbfbf" points="534.9103,-112.5 534.9103,-131.5 607.9103,-131.5 607.9103,-112.5 534.9103,-112.5"/>
<text text-anchor="middle" x="571.4103" y="-119.5" font-family="Helvetica,sans-Serif" font-size="10.00" fill="#000000">sys/socket.h</text>
</g>
<!-- Node2&#45;&gt;Node6 -->
<g id="edge6" class="edge">
<title>Node2&#45;&gt;Node6</title>
<path fill="none" stroke="#191970" d="M708.0458,-168.3733C680.7276,-159.1016 639.2307,-145.0178 609.1365,-134.804"/>
<polygon fill="#191970" stroke="#191970" points="609.9991,-131.4008 599.4047,-131.5011 607.7493,-138.0294 609.9991,-131.4008"/>
</g>
<!-- Node7 -->
<g id="node8" class="node">
<title>Node7</title>
<polygon fill="#ffffff" stroke="#bfbfbf" points="626.4103,-112.5 626.4103,-131.5 694.4103,-131.5 694.4103,-112.5 626.4103,-112.5"/>
<text text-anchor="middle" x="660.4103" y="-119.5" font-family="Helvetica,sans-Serif" font-size="10.00" fill="#000000">sys/types.h</text>
</g>
<!-- Node2&#45;&gt;Node7 -->
<g id="edge7" class="edge">
<title>Node2&#45;&gt;Node7</title>
<path fill="none" stroke="#191970" d="M723.1721,-168.2455C711.7294,-159.814 694.9807,-147.4729 681.6629,-137.6598"/>
<polygon fill="#191970" stroke="#191970" points="683.6236,-134.757 673.4968,-131.6427 679.4712,-140.3924 683.6236,-134.757"/>
</g>
<!-- Node8 -->
<g id="node9" class="node">
<title>Node8</title>
<polygon fill="#ffffff" stroke="#bfbfbf" points="712.9103,-112.5 712.9103,-131.5 759.9103,-131.5 759.9103,-112.5 712.9103,-112.5"/>
<text text-anchor="middle" x="736.4103" y="-119.5" font-family="Helvetica,sans-Serif" font-size="10.00" fill="#000000">net/if.h</text>
</g>
<!-- Node2&#45;&gt;Node8 -->
<g id="edge8" class="edge">
<title>Node2&#45;&gt;Node8</title>
<path fill="none" stroke="#191970" d="M736.4103,-168.2455C736.4103,-160.9382 736.4103,-150.6944 736.4103,-141.7046"/>
<polygon fill="#191970" stroke="#191970" points="739.9104,-141.6426 736.4103,-131.6427 732.9104,-141.6427 739.9104,-141.6426"/>
</g>
<!-- Node9 -->
<g id="node10" class="node">
<title>Node9</title>
<polygon fill="#ffffff" stroke="#bfbfbf" points="777.9103,-112.5 777.9103,-131.5 842.9103,-131.5 842.9103,-112.5 777.9103,-112.5"/>
<text text-anchor="middle" x="810.4103" y="-119.5" font-family="Helvetica,sans-Serif" font-size="10.00" fill="#000000">netinet/in.h</text>
</g>
<!-- Node2&#45;&gt;Node9 -->
<g id="edge9" class="edge">
<title>Node2&#45;&gt;Node9</title>
<path fill="none" stroke="#191970" d="M749.3002,-168.2455C760.3357,-159.8943 776.4395,-147.7076 789.3457,-137.9408"/>
<polygon fill="#191970" stroke="#191970" points="791.8062,-140.4681 797.6682,-131.6427 787.5821,-134.8862 791.8062,-140.4681"/>
</g>
<!-- Node10 -->
<g id="node11" class="node">
<title>Node10</title>
<polygon fill="#ffffff" stroke="#bfbfbf" points="860.9103,-112.5 860.9103,-131.5 931.9103,-131.5 931.9103,-112.5 860.9103,-112.5"/>
<text text-anchor="middle" x="896.4103" y="-119.5" font-family="Helvetica,sans-Serif" font-size="10.00" fill="#000000">netinet/tcp.h</text>
</g>
<!-- Node2&#45;&gt;Node10 -->
<g id="edge10" class="edge">
<title>Node2&#45;&gt;Node10</title>
<path fill="none" stroke="#191970" d="M763.9153,-168.3733C790.2905,-159.1419 830.2955,-145.1402 859.4461,-134.9375"/>
<polygon fill="#191970" stroke="#191970" points="860.9819,-138.1082 869.2643,-131.5011 858.6694,-131.5012 860.9819,-138.1082"/>
</g>
<!-- Node11 -->
<g id="node12" class="node">
<title>Node11</title>
<polygon fill="#ffffff" stroke="#bfbfbf" points="950.4103,-112.5 950.4103,-131.5 1012.4103,-131.5 1012.4103,-112.5 950.4103,-112.5"/>
<text text-anchor="middle" x="981.4103" y="-119.5" font-family="Helvetica,sans-Serif" font-size="10.00" fill="#000000">arpa/inet.h</text>
</g>
<!-- Node2&#45;&gt;Node11 -->
<g id="edge11" class="edge">
<title>Node2&#45;&gt;Node11</title>
<path fill="none" stroke="#191970" d="M765.1629,-171.6824C802.8399,-163.3678 871.2246,-148.1535 939.9465,-132.0774"/>
<polygon fill="#191970" stroke="#191970" points="941.1478,-135.3907 950.0846,-129.7 939.5496,-128.5756 941.1478,-135.3907"/>
</g>
<!-- Node12 -->
<g id="node13" class="node">
<title>Node12</title>
<polygon fill="#ffffff" stroke="#bfbfbf" points="1030.4103,-112.5 1030.4103,-131.5 1084.4103,-131.5 1084.4103,-112.5 1030.4103,-112.5"/>
<text text-anchor="middle" x="1057.4103" y="-119.5" font-family="Helvetica,sans-Serif" font-size="10.00" fill="#000000">ifaddrs.h</text>
</g>
<!-- Node2&#45;&gt;Node12 -->
<g id="edge12" class="edge">
<title>Node2&#45;&gt;Node12</title>
<path fill="none" stroke="#191970" d="M764.923,-174.4642C814.7937,-168.0512 921.234,-153.3499 1020.4761,-132.013"/>
<polygon fill="#191970" stroke="#191970" points="1021.3379,-135.4074 1030.364,-129.8594 1019.8482,-128.5678 1021.3379,-135.4074"/>
</g>
<!-- Node13 -->
<g id="node14" class="node">
<title>Node13</title>
<polygon fill="#ffffff" stroke="#bfbfbf" points="1102.4103,-112.5 1102.4103,-131.5 1150.4103,-131.5 1150.4103,-112.5 1102.4103,-112.5"/>
<text text-anchor="middle" x="1126.4103" y="-119.5" font-family="Helvetica,sans-Serif" font-size="10.00" fill="#000000">limits.h</text>
</g>
<!-- Node2&#45;&gt;Node13 -->
<g id="edge13" class="edge">
<title>Node2&#45;&gt;Node13</title>
<path fill="none" stroke="#191970" d="M764.9119,-175.9446C824.2289,-171.3233 965.3245,-158.5433 1092.4731,-131.8967"/>
<polygon fill="#191970" stroke="#191970" points="1093.3294,-135.2929 1102.3805,-129.7857 1091.8706,-128.4466 1093.3294,-135.2929"/>
</g>
<!-- Node14 -->
<g id="node15" class="node">
<title>Node14</title>
<polygon fill="#ffffff" stroke="#bfbfbf" points="1168.9103,-112.5 1168.9103,-131.5 1217.9103,-131.5 1217.9103,-112.5 1168.9103,-112.5"/>
<text text-anchor="middle" x="1193.4103" y="-119.5" font-family="Helvetica,sans-Serif" font-size="10.00" fill="#000000">netdb.h</text>
</g>
<!-- Node2&#45;&gt;Node14 -->
<g id="edge14" class="edge">
<title>Node2&#45;&gt;Node14</title>
<path fill="none" stroke="#191970" d="M765.1462,-176.6389C832.3916,-173.0806 1005.2605,-161.7701 1158.5853,-131.8328"/>
<polygon fill="#191970" stroke="#191970" points="1159.5279,-135.2141 1168.655,-129.8338 1158.1649,-128.348 1159.5279,-135.2141"/>
</g>
<!-- Node15 -->
<g id="node16" class="node">
<title>Node15</title>
<polygon fill="#ffffff" stroke="#bfbfbf" points="141.9103,-112.5 141.9103,-131.5 192.9103,-131.5 192.9103,-112.5 141.9103,-112.5"/>
<text text-anchor="middle" x="167.4103" y="-119.5" font-family="Helvetica,sans-Serif" font-size="10.00" fill="#000000">unistd.h</text>
</g>
<!-- Node2&#45;&gt;Node15 -->
<g id="edge15" class="edge">
<title>Node2&#45;&gt;Node15</title>
<path fill="none" stroke="#191970" d="M707.7186,-177.5475C628.5188,-175.8744 400.1862,-168.1895 203.2165,-132.041"/>
<polygon fill="#191970" stroke="#191970" points="203.7408,-128.5785 193.2686,-130.1858 202.4574,-135.4599 203.7408,-128.5785"/>
</g>
<!-- Node16 -->
<g id="node17" class="node">
<title>Node16</title>
<polygon fill="#ffffff" stroke="#bfbfbf" points="210.9103,-112.5 210.9103,-131.5 257.9103,-131.5 257.9103,-112.5 210.9103,-112.5"/>
<text text-anchor="middle" x="234.4103" y="-119.5" font-family="Helvetica,sans-Serif" font-size="10.00" fill="#000000">errno.h</text>
</g>
<!-- Node2&#45;&gt;Node16 -->
<g id="edge16" class="edge">
<title>Node2&#45;&gt;Node16</title>
<path fill="none" stroke="#191970" d="M707.8423,-177.149C635.5977,-174.5855 439.7687,-165.0749 268.0351,-131.7431"/>
<polygon fill="#191970" stroke="#191970" points="268.5505,-128.2774 258.062,-129.7749 267.1951,-135.145 268.5505,-128.2774"/>
</g>
<!-- Node18 -->
<g id="node19" class="node">
<title>Node18</title>
<g id="a_node19"><a xlink:href="endian_8h.html" target="_top" xlink:title="compat/endian.h">
<polygon fill="#ffffff" stroke="#000000" points="1964.9103,-112.5 1964.9103,-131.5 2053.9103,-131.5 2053.9103,-112.5 1964.9103,-112.5"/>
<text text-anchor="middle" x="2009.4103" y="-119.5" font-family="Helvetica,sans-Serif" font-size="10.00" fill="#000000">compat/endian.h</text>
</a>
</g>
</g>
<!-- Node17&#45;&gt;Node18 -->
<g id="edge18" class="edge">
<title>Node17&#45;&gt;Node18</title>
<path fill="none" stroke="#191970" d="M1692.0397,-173.5518C1743.961,-165.9407 1852.8088,-149.6794 1954.7386,-132.25"/>
<polygon fill="#191970" stroke="#191970" points="1955.6328,-135.6478 1964.8959,-130.5052 1954.4477,-128.7488 1955.6328,-135.6478"/>
</g>
<!-- Node17&#45;&gt;Node20 -->
<g id="edge29" class="edge">
<title>Node17&#45;&gt;Node20</title>
<path fill="none" stroke="#191970" d="M1692.0769,-175.0289C1722.2568,-170.5618 1767.8514,-159.4574 1796.4103,-132 1825.3307,-104.195 1836.7207,-56.6282 1841.0011,-29.8424"/>
<polygon fill="#191970" stroke="#191970" points="1844.4931,-30.1454 1842.4307,-19.7532 1837.5623,-29.1633 1844.4931,-30.1454"/>
</g>
<!-- Node21 -->
<g id="node22" class="node">
<title>Node21</title>
<polygon fill="#ffffff" stroke="#bfbfbf" points="1395.4103,-112.5 1395.4103,-131.5 1451.4103,-131.5 1451.4103,-112.5 1395.4103,-112.5"/>
<text text-anchor="middle" x="1423.4103" y="-119.5" font-family="Helvetica,sans-Serif" font-size="10.00" fill="#000000">algorithm</text>
</g>
<!-- Node17&#45;&gt;Node21 -->
<g id="edge22" class="edge">
<title>Node17&#45;&gt;Node21</title>
<path fill="none" stroke="#191970" d="M1630.6742,-171.3563C1593.0961,-163.1487 1527.3262,-148.5099 1461.7553,-132.2703"/>
<polygon fill="#191970" stroke="#191970" points="1462.2119,-128.7772 1451.6625,-129.7573 1460.5206,-135.5698 1462.2119,-128.7772"/>
</g>
<!-- Node22 -->
<g id="node23" class="node">
<title>Node22</title>
<polygon fill="#ffffff" stroke="#bfbfbf" points="1355.4103,-56.5 1355.4103,-75.5 1407.4103,-75.5 1407.4103,-56.5 1355.4103,-56.5"/>
<text text-anchor="middle" x="1381.4103" y="-63.5" font-family="Helvetica,sans-Serif" font-size="10.00" fill="#000000">assert.h</text>
</g>
<!-- Node17&#45;&gt;Node22 -->
<g id="edge23" class="edge">
<title>Node17&#45;&gt;Node22</title>
<path fill="none" stroke="#191970" d="M1630.8616,-175.2547C1561.07,-168.6749 1394.6767,-151.1239 1378.4103,-132 1367.6462,-119.3449 1370.023,-99.882 1374.1165,-85.3661"/>
<polygon fill="#191970" stroke="#191970" points="1377.4505,-86.4314 1377.2372,-75.8387 1370.7982,-84.2524 1377.4505,-86.4314"/>
</g>
<!-- Node23 -->
<g id="node24" class="node">
<title>Node23</title>
<polygon fill="#ffffff" stroke="#bfbfbf" points="1469.9103,-112.5 1469.9103,-131.5 1498.9103,-131.5 1498.9103,-112.5 1469.9103,-112.5"/>
<text text-anchor="middle" x="1484.4103" y="-119.5" font-family="Helvetica,sans-Serif" font-size="10.00" fill="#000000">ios</text>
</g>
<!-- Node17&#45;&gt;Node23 -->
<g id="edge24" class="edge">
<title>Node17&#45;&gt;Node23</title>
<path fill="none" stroke="#191970" d="M1630.6294,-169.7494C1599.5169,-161.1761 1550.1982,-146.9431 1508.4103,-132 1508.3147,-131.9658 1508.2189,-131.9314 1508.1229,-131.8969"/>
<polygon fill="#191970" stroke="#191970" points="1509.6292,-128.7271 1499.0401,-128.3759 1507.099,-135.2538 1509.6292,-128.7271"/>
</g>
<!-- Node24 -->
<g id="node25" class="node">
<title>Node24</title>
<polygon fill="#ffffff" stroke="#bfbfbf" points="1517.4103,-112.5 1517.4103,-131.5 1557.4103,-131.5 1557.4103,-112.5 1517.4103,-112.5"/>
<text text-anchor="middle" x="1537.4103" y="-119.5" font-family="Helvetica,sans-Serif" font-size="10.00" fill="#000000">limits</text>
</g>
<!-- Node17&#45;&gt;Node24 -->
<g id="edge25" class="edge">
<title>Node17&#45;&gt;Node24</title>
<path fill="none" stroke="#191970" d="M1640.094,-168.3733C1619.9475,-159.2748 1589.5399,-145.5424 1567.0385,-135.3805"/>
<polygon fill="#191970" stroke="#191970" points="1568.1817,-132.0564 1557.6274,-131.1303 1565.3006,-138.436 1568.1817,-132.0564"/>
</g>
<!-- Node25 -->
<g id="node26" class="node">
<title>Node25</title>
<polygon fill="#ffffff" stroke="#bfbfbf" points="1575.9103,-112.5 1575.9103,-131.5 1610.9103,-131.5 1610.9103,-112.5 1575.9103,-112.5"/>
<text text-anchor="middle" x="1593.4103" y="-119.5" font-family="Helvetica,sans-Serif" font-size="10.00" fill="#000000">map</text>
</g>
<!-- Node17&#45;&gt;Node25 -->
<g id="edge26" class="edge">
<title>Node17&#45;&gt;Node25</title>
<path fill="none" stroke="#191970" d="M1649.5656,-168.2455C1639.5224,-159.9746 1624.9109,-147.9416 1613.11,-138.2232"/>
<polygon fill="#191970" stroke="#191970" points="1615.0636,-135.298 1605.1193,-131.6427 1610.6136,-140.7015 1615.0636,-135.298"/>
</g>
<!-- Node26 -->
<g id="node27" class="node">
<title>Node26</title>
<polygon fill="#ffffff" stroke="#bfbfbf" points="1629.4103,-112.5 1629.4103,-131.5 1681.4103,-131.5 1681.4103,-112.5 1629.4103,-112.5"/>
<text text-anchor="middle" x="1655.4103" y="-119.5" font-family="Helvetica,sans-Serif" font-size="10.00" fill="#000000">memory</text>
</g>
<!-- Node17&#45;&gt;Node26 -->
<g id="edge27" class="edge">
<title>Node17&#45;&gt;Node26</title>
<path fill="none" stroke="#191970" d="M1660.3652,-168.2455C1659.5823,-160.9382 1658.4847,-150.6944 1657.5215,-141.7046"/>
<polygon fill="#191970" stroke="#191970" points="1660.989,-141.2129 1656.4435,-131.6427 1654.0288,-141.9587 1660.989,-141.2129"/>
</g>
<!-- Node27 -->
<g id="node28" class="node">
<title>Node27</title>
<polygon fill="#ffffff" stroke="#bfbfbf" points="1699.4103,-112.5 1699.4103,-131.5 1729.4103,-131.5 1729.4103,-112.5 1699.4103,-112.5"/>
<text text-anchor="middle" x="1714.4103" y="-119.5" font-family="Helvetica,sans-Serif" font-size="10.00" fill="#000000">set</text>
</g>
<!-- Node17&#45;&gt;Node27 -->
<g id="edge28" class="edge">
<title>Node17&#45;&gt;Node27</title>
<path fill="none" stroke="#191970" d="M1670.6422,-168.2455C1678.2421,-160.2155 1689.1981,-148.6394 1698.2471,-139.0781"/>
<polygon fill="#191970" stroke="#191970" points="1700.9524,-141.3115 1705.2842,-131.6427 1695.8683,-136.4998 1700.9524,-141.3115"/>
</g>
<!-- Node17&#45;&gt;Node28 -->
<g id="edge30" class="edge">
<title>Node17&#45;&gt;Node28</title>
<path fill="none" stroke="#191970" d="M1692.1146,-173.2838C1735.4123,-166.3541 1816.998,-152.276 1895.7698,-131.8878"/>
<polygon fill="#191970" stroke="#191970" points="1897.076,-135.1635 1905.8584,-129.2373 1895.2972,-128.3933 1897.076,-135.1635"/>
</g>
<!-- Node29 -->
<g id="node30" class="node">
<title>Node29</title>
<polygon fill="#ffffff" stroke="#bfbfbf" points="1425.9103,-56.5 1425.9103,-75.5 1474.9103,-75.5 1474.9103,-56.5 1425.9103,-56.5"/>
<text text-anchor="middle" x="1450.4103" y="-63.5" font-family="Helvetica,sans-Serif" font-size="10.00" fill="#000000">string.h</text>
</g>
<!-- Node17&#45;&gt;Node29 -->
<g id="edge31" class="edge">
<title>Node17&#45;&gt;Node29</title>
<path fill="none" stroke="#191970" d="M1630.7056,-175.0879C1562.2939,-168.2904 1402.1079,-150.5414 1386.4103,-132 1370.6594,-113.3956 1396.4809,-93.499 1419.8775,-80.4736"/>
<polygon fill="#191970" stroke="#191970" points="1421.7597,-83.4376 1428.9637,-75.6688 1418.4874,-77.2495 1421.7597,-83.4376"/>
</g>
<!-- Node30 -->
<g id="node31" class="node">
<title>Node30</title>
<polygon fill="#ffffff" stroke="#bfbfbf" points="1747.4103,-112.5 1747.4103,-131.5 1787.4103,-131.5 1787.4103,-112.5 1747.4103,-112.5"/>
<text text-anchor="middle" x="1767.4103" y="-119.5" font-family="Helvetica,sans-Serif" font-size="10.00" fill="#000000">utility</text>
</g>
<!-- Node17&#45;&gt;Node30 -->
<g id="edge32" class="edge">
<title>Node17&#45;&gt;Node30</title>
<path fill="none" stroke="#191970" d="M1679.8741,-168.2455C1696.5178,-159.4527 1721.2096,-146.4079 1740.1295,-136.4125"/>
<polygon fill="#191970" stroke="#191970" points="1741.9511,-139.4086 1749.1581,-131.6427 1738.6812,-133.2193 1741.9511,-139.4086"/>
</g>
<!-- Node17&#45;&gt;Node31 -->
<g id="edge33" class="edge">
<title>Node17&#45;&gt;Node31</title>
<path fill="none" stroke="#191970" d="M1692.0758,-169.64C1725.7618,-160.4479 1781.4555,-145.2256 1829.4103,-132 1830.6766,-131.6508 1831.9678,-131.2942 1833.2721,-130.9337"/>
<polygon fill="#191970" stroke="#191970" points="1834.6266,-134.1903 1843.3292,-128.1475 1832.7577,-127.4444 1834.6266,-134.1903"/>
</g>
<!-- Node32 -->
<g id="node33" class="node">
<title>Node32</title>
<g id="a_node33"><a xlink:href="prevector_8h.html" target="_top" xlink:title="prevector.h">
<polygon fill="#ffffff" stroke="#000000" points="1235.9103,-112.5 1235.9103,-131.5 1300.9103,-131.5 1300.9103,-112.5 1235.9103,-112.5"/>
<text text-anchor="middle" x="1268.4103" y="-119.5" font-family="Helvetica,sans-Serif" font-size="10.00" fill="#000000">prevector.h</text>
</a>
</g>
</g>
<!-- Node17&#45;&gt;Node32 -->
<g id="edge34" class="edge">
<title>Node17&#45;&gt;Node32</title>
<path fill="none" stroke="#191970" d="M1630.7419,-174.7308C1570.2247,-168.1015 1431.2577,-151.9941 1315.4103,-132 1313.946,-131.7473 1312.4579,-131.4813 1310.9564,-131.2051"/>
<polygon fill="#191970" stroke="#191970" points="1311.4467,-127.7351 1300.9632,-129.2674 1310.1141,-134.6071 1311.4467,-127.7351"/>
</g>
<!-- Node19 -->
<g id="node20" class="node">
<title>Node19</title>
<g id="a_node20"><a xlink:href="byteswap_8h.html" target="_top" xlink:title="compat/byteswap.h">
<polygon fill="#ffffff" stroke="#000000" points="1934.4103,-56.5 1934.4103,-75.5 2036.4103,-75.5 2036.4103,-56.5 1934.4103,-56.5"/>
<text text-anchor="middle" x="1985.4103" y="-63.5" font-family="Helvetica,sans-Serif" font-size="10.00" fill="#000000">compat/byteswap.h</text>
</a>
</g>
</g>
<!-- Node18&#45;&gt;Node19 -->
<g id="edge19" class="edge">
<title>Node18&#45;&gt;Node19</title>
<path fill="none" stroke="#191970" d="M2005.2299,-112.2455C2002.0293,-104.7776 1997.5143,-94.2427 1993.6019,-85.1137"/>
<polygon fill="#191970" stroke="#191970" points="1996.6992,-83.4554 1989.5429,-75.6427 1990.2652,-86.2129 1996.6992,-83.4554"/>
</g>
<!-- Node18&#45;&gt;Node20 -->
<g id="edge21" class="edge">
<title>Node18&#45;&gt;Node20</title>
<path fill="none" stroke="#191970" d="M1989.4864,-112.348C1972.0936,-103.6303 1946.4195,-90.0474 1925.4103,-76 1902.3832,-60.6034 1877.8769,-40.3009 1861.7161,-26.2999"/>
<polygon fill="#191970" stroke="#191970" points="1863.9071,-23.5663 1854.0778,-19.6121 1859.2958,-28.8328 1863.9071,-23.5663"/>
</g>
<!-- Node19&#45;&gt;Node20 -->
<g id="edge20" class="edge">
<title>Node19&#45;&gt;Node20</title>
<path fill="none" stroke="#191970" d="M1960.9997,-56.3733C1937.7961,-47.2226 1902.7065,-33.3844 1876.8961,-23.2057"/>
<polygon fill="#191970" stroke="#191970" points="1878.0893,-19.9139 1867.5025,-19.5011 1875.5211,-26.4258 1878.0893,-19.9139"/>
</g>
<!-- Node32&#45;&gt;Node20 -->
<g id="edge37" class="edge">
<title>Node32&#45;&gt;Node20</title>
<path fill="none" stroke="#191970" d="M1276.3072,-112.2713C1289.1855,-97.1992 1316.3127,-68.6285 1346.4103,-56 1430.1555,-20.8618 1709.9638,-12.426 1808.6176,-10.5226"/>
<polygon fill="#191970" stroke="#191970" points="1808.7273,-14.0212 1818.6619,-10.3395 1808.5997,-7.0224 1808.7273,-14.0212"/>
</g>
<!-- Node32&#45;&gt;Node22 -->
<g id="edge35" class="edge">
<title>Node32&#45;&gt;Node22</title>
<path fill="none" stroke="#191970" d="M1287.8357,-112.3733C1305.8125,-103.4644 1332.7544,-90.1127 1353.1194,-80.0203"/>
<polygon fill="#191970" stroke="#191970" points="1354.8325,-83.0776 1362.2384,-75.5011 1351.7242,-76.8055 1354.8325,-83.0776"/>
</g>
<!-- Node32&#45;&gt;Node29 -->
<g id="edge38" class="edge">
<title>Node32&#45;&gt;Node29</title>
<path fill="none" stroke="#191970" d="M1299.6973,-112.3733C1332.0263,-102.4259 1382.3578,-86.9393 1415.8441,-76.6358"/>
<polygon fill="#191970" stroke="#191970" points="1417.1286,-79.9025 1425.6571,-73.6164 1415.0699,-73.2121 1417.1286,-79.9025"/>
</g>
<!-- Node33 -->
<g id="node34" class="node">
<title>Node33</title>
<polygon fill="#ffffff" stroke="#bfbfbf" points="1105.4103,-56.5 1105.4103,-75.5 1153.4103,-75.5 1153.4103,-56.5 1105.4103,-56.5"/>
<text text-anchor="middle" x="1129.4103" y="-63.5" font-family="Helvetica,sans-Serif" font-size="10.00" fill="#000000">stdlib.h</text>
</g>
<!-- Node32&#45;&gt;Node33 -->
<g id="edge36" class="edge">
<title>Node32&#45;&gt;Node33</title>
<path fill="none" stroke="#191970" d="M1244.5154,-112.3733C1221.9021,-103.2629 1187.7562,-89.5062 1162.5231,-79.3404"/>
<polygon fill="#191970" stroke="#191970" points="1163.577,-75.9917 1152.9935,-75.5011 1160.9611,-82.4845 1163.577,-75.9917"/>
</g>
<!-- Node34 -->
<g id="node35" class="node">
<title>Node34</title>
<polygon fill="#ffffff" stroke="#bfbfbf" points="1171.9103,-56.5 1171.9103,-75.5 1218.9103,-75.5 1218.9103,-56.5 1171.9103,-56.5"/>
<text text-anchor="middle" x="1195.4103" y="-63.5" font-family="Helvetica,sans-Serif" font-size="10.00" fill="#000000">iterator</text>
</g>
<!-- Node32&#45;&gt;Node34 -->
<g id="edge39" class="edge">
<title>Node32&#45;&gt;Node34</title>
<path fill="none" stroke="#191970" d="M1255.6947,-112.2455C1244.8083,-103.8943 1228.9221,-91.7076 1216.1903,-81.9408"/>
<polygon fill="#191970" stroke="#191970" points="1218.0449,-78.9523 1207.9803,-75.6427 1213.7843,-84.5063 1218.0449,-78.9523"/>
</g>
<!-- Node35 -->
<g id="node36" class="node">
<title>Node35</title>
<polygon fill="#ffffff" stroke="#bfbfbf" points="1237.4103,-56.5 1237.4103,-75.5 1299.4103,-75.5 1299.4103,-56.5 1237.4103,-56.5"/>
<text text-anchor="middle" x="1268.4103" y="-63.5" font-family="Helvetica,sans-Serif" font-size="10.00" fill="#000000">type_traits</text>
</g>
<!-- Node32&#45;&gt;Node35 -->
<g id="edge40" class="edge">
<title>Node32&#45;&gt;Node35</title>
<path fill="none" stroke="#191970" d="M1268.4103,-112.2455C1268.4103,-104.9382 1268.4103,-94.6944 1268.4103,-85.7046"/>
<polygon fill="#191970" stroke="#191970" points="1271.9104,-85.6426 1268.4103,-75.6427 1264.9104,-85.6427 1271.9104,-85.6426"/>
</g>
<!-- Node36&#45;&gt;Node20 -->
<g id="edge49" class="edge">
<title>Node36&#45;&gt;Node20</title>
<path fill="none" stroke="#191970" d="M2051.379,-224.4788C2057.4025,-203.8961 2069.9542,-153.7435 2063.4103,-112 2059.3615,-86.1724 2064.6835,-73.6636 2045.4103,-56 2021.2743,-33.8795 1929.312,-19.9575 1878.1967,-13.7602"/>
<polygon fill="#191970" stroke="#191970" points="1878.2888,-10.247 1867.9484,-12.5548 1877.4711,-17.199 1878.2888,-10.247"/>
</g>
<!-- Node36&#45;&gt;Node22 -->
<g id="edge46" class="edge">
<title>Node36&#45;&gt;Node22</title>
<path fill="none" stroke="#191970" d="M2076.5636,-225.836C2112.6698,-215.0861 2171.3817,-196.5503 2177.4103,-188 2182.5326,-180.7353 2182.1101,-175.5448 2177.4103,-168 2147.5641,-120.0858 2118.019,-126.299 2063.4103,-112 1788.0676,-39.9031 1702.4115,-121.8903 1417.8468,-75.864"/>
<polygon fill="#191970" stroke="#191970" points="1418.0771,-72.3545 1407.6394,-74.1723 1416.9325,-79.2603 1418.0771,-72.3545"/>
</g>
<!-- Node36&#45;&gt;Node28 -->
<g id="edge50" class="edge">
<title>Node36&#45;&gt;Node28</title>
<path fill="none" stroke="#191970" d="M2038.0087,-224.4509C2017.2104,-205.3574 1970.2756,-162.2697 1944.3905,-138.5063"/>
<polygon fill="#191970" stroke="#191970" points="1946.5192,-135.7093 1936.7857,-131.5249 1941.7853,-140.8659 1946.5192,-135.7093"/>
</g>
<!-- Node36&#45;&gt;Node31 -->
<g id="edge51" class="edge">
<title>Node36&#45;&gt;Node31</title>
<path fill="none" stroke="#191970" d="M2032.8079,-224.4509C2000.9351,-204.9441 1928.1421,-160.3932 1889.9043,-136.9909"/>
<polygon fill="#191970" stroke="#191970" points="1891.3298,-133.7598 1880.9733,-131.5249 1887.6756,-139.7304 1891.3298,-133.7598"/>
</g>
<!-- Node37 -->
<g id="node38" class="node">
<title>Node37</title>
<polygon fill="#ffffff" stroke="#bfbfbf" points="2224.4103,-168.5 2224.4103,-187.5 2270.4103,-187.5 2270.4103,-168.5 2224.4103,-168.5"/>
<text text-anchor="middle" x="2247.4103" y="-175.5" font-family="Helvetica,sans-Serif" font-size="10.00" fill="#000000">cstring</text>
</g>
<!-- Node36&#45;&gt;Node37 -->
<g id="edge47" class="edge">
<title>Node36&#45;&gt;Node37</title>
<path fill="none" stroke="#191970" d="M2076.5001,-226.0953C2112.7909,-215.8829 2175.869,-198.1322 2214.4062,-187.2876"/>
<polygon fill="#191970" stroke="#191970" points="2215.4349,-190.6341 2224.1128,-184.5561 2213.5386,-183.8959 2215.4349,-190.6341"/>
</g>
<!-- Node38 -->
<g id="node39" class="node">
<title>Node38</title>
<polygon fill="#ffffff" stroke="#bfbfbf" points="2288.9103,-168.5 2288.9103,-187.5 2347.9103,-187.5 2347.9103,-168.5 2288.9103,-168.5"/>
<text text-anchor="middle" x="2318.4103" y="-175.5" font-family="Helvetica,sans-Serif" font-size="10.00" fill="#000000">stdexcept</text>
</g>
<!-- Node36&#45;&gt;Node38 -->
<g id="edge48" class="edge">
<title>Node36&#45;&gt;Node38</title>
<path fill="none" stroke="#191970" d="M2076.6336,-226.1211C2079.589,-225.3712 2082.5555,-224.6496 2085.4103,-224 2167.8294,-205.2471 2192.0437,-206.7594 2278.6411,-188.0437"/>
<polygon fill="#191970" stroke="#191970" points="2279.6299,-191.4102 2288.6494,-185.8515 2278.1321,-184.5723 2279.6299,-191.4102"/>
</g>
<!-- Node39 -->
<g id="node40" class="node">
<title>Node39</title>
<g id="a_node40"><a xlink:href="common_8h.html" target="_top" xlink:title="crypto/common.h">
<polygon fill="#ffffff" stroke="#000000" points="2076.4103,-168.5 2076.4103,-187.5 2168.4103,-187.5 2168.4103,-168.5 2076.4103,-168.5"/>
<text text-anchor="middle" x="2122.4103" y="-175.5" font-family="Helvetica,sans-Serif" font-size="10.00" fill="#000000">crypto/common.h</text>
</a>
</g>
</g>
<!-- Node36&#45;&gt;Node39 -->
<g id="edge52" class="edge">
<title>Node36&#45;&gt;Node39</title>
<path fill="none" stroke="#191970" d="M2061.3002,-224.2455C2072.3357,-215.8943 2088.4395,-203.7076 2101.3457,-193.9408"/>
<polygon fill="#191970" stroke="#191970" points="2103.8062,-196.4681 2109.6682,-187.6427 2099.5821,-190.8862 2103.8062,-196.4681"/>
</g>
<!-- Node39&#45;&gt;Node18 -->
<g id="edge55" class="edge">
<title>Node39&#45;&gt;Node18</title>
<path fill="none" stroke="#191970" d="M2102.9849,-168.3733C2085.0082,-159.4644 2058.0662,-146.1127 2037.7013,-136.0203"/>
<polygon fill="#191970" stroke="#191970" points="2039.0965,-132.8055 2028.5822,-131.5011 2035.9882,-139.0776 2039.0965,-132.8055"/>
</g>
<!-- Node39&#45;&gt;Node20 -->
<g id="edge53" class="edge">
<title>Node39&#45;&gt;Node20</title>
<path fill="none" stroke="#191970" d="M2123.5855,-168.4143C2125.823,-145.3897 2127.9608,-86.6142 2096.4103,-56 2065.8199,-26.3174 1940.1001,-15.3223 1878.187,-11.6512"/>
<polygon fill="#191970" stroke="#191970" points="1878.2937,-8.1518 1868.1131,-11.0854 1877.9011,-15.1408 1878.2937,-8.1518"/>
</g>
<!-- Node39&#45;&gt;Node29 -->
<g id="edge54" class="edge">
<title>Node39&#45;&gt;Node29</title>
<path fill="none" stroke="#191970" d="M2117.0534,-168.2425C2108.1567,-153.1309 2088.7737,-124.5069 2063.4103,-112 2011.4947,-86.3999 1607.3137,-71.153 1485.2215,-67.0974"/>
<polygon fill="#191970" stroke="#191970" points="1485.0645,-63.5904 1474.9552,-66.7608 1484.8351,-70.5867 1485.0645,-63.5904"/>
</g>
</g>
</svg>
