<?xml version="1.0" encoding="UTF-8" standalone="no"?>
<!DOCTYPE svg PUBLIC "-//W3C//DTD SVG 1.1//EN"
 "http://www.w3.org/Graphics/SVG/1.1/DTD/svg11.dtd">
<!-- Generated by graphviz version 2.40.1 (20161225.0304)
 -->
<!-- Title: src/qt/ravenamountfield.cpp Pages: 1 -->
<svg width="1290pt" height="196pt"
 viewBox="0.00 0.00 1290.00 196.00" xmlns="http://www.w3.org/2000/svg" xmlns:xlink="http://www.w3.org/1999/xlink">
<g id="graph0" class="graph" transform="scale(1 1) rotate(0) translate(4 192)">
<title>src/qt/ravenamountfield.cpp</title>
<polygon fill="#ffffff" stroke="transparent" points="-4,4 -4,-192 1286,-192 1286,4 -4,4"/>
<!-- Node0 -->
<g id="node1" class="node">
<title>Node0</title>
<polygon fill="#bfbfbf" stroke="#000000" points="631,-168.5 631,-187.5 768,-187.5 768,-168.5 631,-168.5"/>
<text text-anchor="middle" x="699.5" y="-175.5" font-family="Helvetica,sans-Serif" font-size="10.00" fill="#000000">src/qt/ravenamountfield.cpp</text>
</g>
<!-- Node1 -->
<g id="node2" class="node">
<title>Node1</title>
<g id="a_node2"><a xlink:href="ravenamountfield_8h.html" target="_top" xlink:title="ravenamountfield.h">
<polygon fill="#ffffff" stroke="#000000" points="202,-112.5 202,-131.5 301,-131.5 301,-112.5 202,-112.5"/>
<text text-anchor="middle" x="251.5" y="-119.5" font-family="Helvetica,sans-Serif" font-size="10.00" fill="#000000">ravenamountfield.h</text>
</a>
</g>
</g>
<!-- Node0&#45;&gt;Node1 -->
<g id="edge1" class="edge">
<title>Node0&#45;&gt;Node1</title>
<path fill="none" stroke="#191970" d="M630.6665,-171.0032C554.7631,-163.0344 428.7933,-149.0636 311.0553,-132.1705"/>
<polygon fill="#191970" stroke="#191970" points="311.5441,-128.7048 301.1464,-130.7389 310.5431,-135.6329 311.5441,-128.7048"/>
</g>
<!-- Node5 -->
<g id="node6" class="node">
<title>Node5</title>
<g id="a_node6"><a xlink:href="ravenunits_8h.html" target="_top" xlink:title="ravenunits.h">
<polygon fill="#ffffff" stroke="#000000" points="113.5,-112.5 113.5,-131.5 183.5,-131.5 183.5,-112.5 113.5,-112.5"/>
<text text-anchor="middle" x="148.5" y="-119.5" font-family="Helvetica,sans-Serif" font-size="10.00" fill="#000000">ravenunits.h</text>
</a>
</g>
</g>
<!-- Node0&#45;&gt;Node5 -->
<g id="edge5" class="edge">
<title>Node0&#45;&gt;Node5</title>
<path fill="none" stroke="#191970" d="M630.6681,-174.6636C534.8272,-169.3728 355.6442,-157.1444 194.0866,-132.077"/>
<polygon fill="#191970" stroke="#191970" points="194.3852,-128.581 183.963,-130.4855 193.2981,-135.4961 194.3852,-128.581"/>
</g>
<!-- Node8 -->
<g id="node9" class="node">
<title>Node8</title>
<g id="a_node9"><a xlink:href="guiconstants_8h.html" target="_top" xlink:title="guiconstants.h">
<polygon fill="#ffffff" stroke="#000000" points="418.5,-112.5 418.5,-131.5 498.5,-131.5 498.5,-112.5 418.5,-112.5"/>
<text text-anchor="middle" x="458.5" y="-119.5" font-family="Helvetica,sans-Serif" font-size="10.00" fill="#000000">guiconstants.h</text>
</a>
</g>
</g>
<!-- Node0&#45;&gt;Node8 -->
<g id="edge9" class="edge">
<title>Node0&#45;&gt;Node8</title>
<path fill="none" stroke="#191970" d="M658.3445,-168.4369C616.9364,-158.8151 553.0258,-143.9645 508.6721,-133.6583"/>
<polygon fill="#191970" stroke="#191970" points="509.2159,-130.1914 498.6832,-131.3372 507.6315,-137.0098 509.2159,-130.1914"/>
</g>
<!-- Node9 -->
<g id="node10" class="node">
<title>Node9</title>
<g id="a_node10"><a xlink:href="qvaluecombobox_8h.html" target="_top" xlink:title="qvaluecombobox.h">
<polygon fill="#ffffff" stroke="#000000" points="516.5,-112.5 516.5,-131.5 614.5,-131.5 614.5,-112.5 516.5,-112.5"/>
<text text-anchor="middle" x="565.5" y="-119.5" font-family="Helvetica,sans-Serif" font-size="10.00" fill="#000000">qvaluecombobox.h</text>
</a>
</g>
</g>
<!-- Node0&#45;&gt;Node9 -->
<g id="edge10" class="edge">
<title>Node0&#45;&gt;Node9</title>
<path fill="none" stroke="#191970" d="M676.4646,-168.3733C654.7612,-159.3032 622.0382,-145.6279 597.745,-135.4755"/>
<polygon fill="#191970" stroke="#191970" points="598.8111,-132.1278 588.2348,-131.5011 596.1119,-138.5865 598.8111,-132.1278"/>
</g>
<!-- Node12 -->
<g id="node13" class="node">
<title>Node12</title>
<g id="a_node13"><a xlink:href="platformstyle_8h.html" target="_top" xlink:title="platformstyle.h">
<polygon fill="#ffffff" stroke="#000000" points="319,-112.5 319,-131.5 400,-131.5 400,-112.5 319,-112.5"/>
<text text-anchor="middle" x="359.5" y="-119.5" font-family="Helvetica,sans-Serif" font-size="10.00" fill="#000000">platformstyle.h</text>
</a>
</g>
</g>
<!-- Node0&#45;&gt;Node12 -->
<g id="edge13" class="edge">
<title>Node0&#45;&gt;Node12</title>
<path fill="none" stroke="#191970" d="M634.5869,-168.4646C577.9729,-159.9744 493.3891,-146.8723 410.0275,-132.0382"/>
<polygon fill="#191970" stroke="#191970" points="410.5933,-128.5839 400.1332,-130.2682 409.3606,-135.4746 410.5933,-128.5839"/>
</g>
<!-- Node15 -->
<g id="node16" class="node">
<title>Node15</title>
<polygon fill="#ffffff" stroke="#bfbfbf" points="633,-112.5 633,-131.5 686,-131.5 686,-112.5 633,-112.5"/>
<text text-anchor="middle" x="659.5" y="-119.5" font-family="Helvetica,sans-Serif" font-size="10.00" fill="#000000">QDebug</text>
</g>
<!-- Node0&#45;&gt;Node15 -->
<g id="edge17" class="edge">
<title>Node0&#45;&gt;Node15</title>
<path fill="none" stroke="#191970" d="M692.5325,-168.2455C686.9689,-160.4564 679.022,-149.3308 672.3171,-139.9439"/>
<polygon fill="#191970" stroke="#191970" points="675.0481,-137.7457 666.3876,-131.6427 669.352,-141.8144 675.0481,-137.7457"/>
</g>
<!-- Node16 -->
<g id="node17" class="node">
<title>Node16</title>
<polygon fill="#ffffff" stroke="#bfbfbf" points="704.5,-112.5 704.5,-131.5 776.5,-131.5 776.5,-112.5 704.5,-112.5"/>
<text text-anchor="middle" x="740.5" y="-119.5" font-family="Helvetica,sans-Serif" font-size="10.00" fill="#000000">QApplication</text>
</g>
<!-- Node0&#45;&gt;Node16 -->
<g id="edge18" class="edge">
<title>Node0&#45;&gt;Node16</title>
<path fill="none" stroke="#191970" d="M706.6417,-168.2455C712.3444,-160.4564 720.49,-149.3308 727.3625,-139.9439"/>
<polygon fill="#191970" stroke="#191970" points="730.3568,-141.7789 733.4402,-131.6427 724.7087,-137.6437 730.3568,-141.7789"/>
</g>
<!-- Node17 -->
<g id="node18" class="node">
<title>Node17</title>
<polygon fill="#ffffff" stroke="#bfbfbf" points="794.5,-112.5 794.5,-131.5 892.5,-131.5 892.5,-112.5 794.5,-112.5"/>
<text text-anchor="middle" x="843.5" y="-119.5" font-family="Helvetica,sans-Serif" font-size="10.00" fill="#000000">QAbstractSpinBox</text>
</g>
<!-- Node0&#45;&gt;Node17 -->
<g id="edge19" class="edge">
<title>Node0&#45;&gt;Node17</title>
<path fill="none" stroke="#191970" d="M724.2545,-168.3733C747.7849,-159.2226 783.3687,-145.3844 809.5426,-135.2057"/>
<polygon fill="#191970" stroke="#191970" points="811.0171,-138.3877 819.0685,-131.5011 808.4799,-131.8636 811.0171,-138.3877"/>
</g>
<!-- Node18 -->
<g id="node19" class="node">
<title>Node18</title>
<polygon fill="#ffffff" stroke="#bfbfbf" points="910.5,-112.5 910.5,-131.5 988.5,-131.5 988.5,-112.5 910.5,-112.5"/>
<text text-anchor="middle" x="949.5" y="-119.5" font-family="Helvetica,sans-Serif" font-size="10.00" fill="#000000">QHBoxLayout</text>
</g>
<!-- Node0&#45;&gt;Node18 -->
<g id="edge20" class="edge">
<title>Node0&#45;&gt;Node18</title>
<path fill="none" stroke="#191970" d="M742.1925,-168.4369C786.1073,-158.6 854.4205,-143.2978 900.5095,-132.9739"/>
<polygon fill="#191970" stroke="#191970" points="901.2844,-136.3871 910.2775,-130.7858 899.7543,-129.5564 901.2844,-136.3871"/>
</g>
<!-- Node19 -->
<g id="node20" class="node">
<title>Node19</title>
<polygon fill="#ffffff" stroke="#bfbfbf" points="1007,-112.5 1007,-131.5 1074,-131.5 1074,-112.5 1007,-112.5"/>
<text text-anchor="middle" x="1040.5" y="-119.5" font-family="Helvetica,sans-Serif" font-size="10.00" fill="#000000">QKeyEvent</text>
</g>
<!-- Node0&#45;&gt;Node19 -->
<g id="edge21" class="edge">
<title>Node0&#45;&gt;Node19</title>
<path fill="none" stroke="#191970" d="M768.1048,-168.9066C826.362,-160.8424 912.3897,-148.1307 996.7406,-132.0303"/>
<polygon fill="#191970" stroke="#191970" points="997.5929,-135.4305 1006.7502,-130.102 996.2687,-128.5569 997.5929,-135.4305"/>
</g>
<!-- Node20 -->
<g id="node21" class="node">
<title>Node20</title>
<polygon fill="#ffffff" stroke="#bfbfbf" points="1092,-112.5 1092,-131.5 1151,-131.5 1151,-112.5 1092,-112.5"/>
<text text-anchor="middle" x="1121.5" y="-119.5" font-family="Helvetica,sans-Serif" font-size="10.00" fill="#000000">QLineEdit</text>
</g>
<!-- Node0&#45;&gt;Node20 -->
<g id="edge22" class="edge">
<title>Node0&#45;&gt;Node20</title>
<path fill="none" stroke="#191970" d="M768.2637,-172.6461C843.2577,-166.1589 966.9264,-153.5685 1081.7062,-132.1486"/>
<polygon fill="#191970" stroke="#191970" points="1082.5438,-135.5523 1091.7182,-130.2531 1081.2416,-128.6744 1082.5438,-135.5523"/>
</g>
<!-- Node21 -->
<g id="node22" class="node">
<title>Node21</title>
<polygon fill="#ffffff" stroke="#bfbfbf" points="1169,-112.5 1169,-131.5 1282,-131.5 1282,-112.5 1169,-112.5"/>
<text text-anchor="middle" x="1225.5" y="-119.5" font-family="Helvetica,sans-Serif" font-size="10.00" fill="#000000">ravenamountfield.moc</text>
</g>
<!-- Node0&#45;&gt;Node21 -->
<g id="edge23" class="edge">
<title>Node0&#45;&gt;Node21</title>
<path fill="none" stroke="#191970" d="M768.3598,-172.2803C856.5576,-164.6966 1014.3695,-150.2615 1158.8664,-132.1577"/>
<polygon fill="#191970" stroke="#191970" points="1159.3214,-135.6281 1168.8047,-130.904 1158.4452,-128.6832 1159.3214,-135.6281"/>
</g>
<!-- Node2 -->
<g id="node3" class="node">
<title>Node2</title>
<g id="a_node3"><a xlink:href="amount_8h.html" target="_top" xlink:title="amount.h">
<polygon fill="#ffffff" stroke="#000000" points="121,-56.5 121,-75.5 178,-75.5 178,-56.5 121,-56.5"/>
<text text-anchor="middle" x="149.5" y="-63.5" font-family="Helvetica,sans-Serif" font-size="10.00" fill="#000000">amount.h</text>
</a>
</g>
</g>
<!-- Node1&#45;&gt;Node2 -->
<g id="edge2" class="edge">
<title>Node1&#45;&gt;Node2</title>
<path fill="none" stroke="#191970" d="M233.733,-112.2455C217.7905,-103.4928 194.1741,-90.527 176.0011,-80.5496"/>
<polygon fill="#191970" stroke="#191970" points="177.5137,-77.3873 167.0634,-75.6427 174.1448,-83.5233 177.5137,-77.3873"/>
</g>
<!-- Node4 -->
<g id="node5" class="node">
<title>Node4</title>
<polygon fill="#ffffff" stroke="#bfbfbf" points="265,-56.5 265,-75.5 320,-75.5 320,-56.5 265,-56.5"/>
<text text-anchor="middle" x="292.5" y="-63.5" font-family="Helvetica,sans-Serif" font-size="10.00" fill="#000000">QWidget</text>
</g>
<!-- Node1&#45;&gt;Node4 -->
<g id="edge4" class="edge">
<title>Node1&#45;&gt;Node4</title>
<path fill="none" stroke="#191970" d="M258.6417,-112.2455C264.3444,-104.4564 272.49,-93.3308 279.3625,-83.9439"/>
<polygon fill="#191970" stroke="#191970" points="282.3568,-85.7789 285.4402,-75.6427 276.7087,-81.6437 282.3568,-85.7789"/>
</g>
<!-- Node3 -->
<g id="node4" class="node">
<title>Node3</title>
<polygon fill="#ffffff" stroke="#bfbfbf" points="125,-.5 125,-19.5 174,-19.5 174,-.5 125,-.5"/>
<text text-anchor="middle" x="149.5" y="-7.5" font-family="Helvetica,sans-Serif" font-size="10.00" fill="#000000">stdint.h</text>
</g>
<!-- Node2&#45;&gt;Node3 -->
<g id="edge3" class="edge">
<title>Node2&#45;&gt;Node3</title>
<path fill="none" stroke="#191970" d="M149.5,-56.2455C149.5,-48.9382 149.5,-38.6944 149.5,-29.7046"/>
<polygon fill="#191970" stroke="#191970" points="153.0001,-29.6426 149.5,-19.6427 146.0001,-29.6427 153.0001,-29.6426"/>
</g>
<!-- Node5&#45;&gt;Node2 -->
<g id="edge6" class="edge">
<title>Node5&#45;&gt;Node2</title>
<path fill="none" stroke="#191970" d="M148.6742,-112.2455C148.8047,-104.9382 148.9876,-94.6944 149.1481,-85.7046"/>
<polygon fill="#191970" stroke="#191970" points="152.6486,-85.7036 149.3278,-75.6427 145.6497,-85.5786 152.6486,-85.7036"/>
</g>
<!-- Node6 -->
<g id="node7" class="node">
<title>Node6</title>
<polygon fill="#ffffff" stroke="#bfbfbf" points="0,-56.5 0,-75.5 103,-75.5 103,-56.5 0,-56.5"/>
<text text-anchor="middle" x="51.5" y="-63.5" font-family="Helvetica,sans-Serif" font-size="10.00" fill="#000000">QAbstractListModel</text>
</g>
<!-- Node5&#45;&gt;Node6 -->
<g id="edge7" class="edge">
<title>Node5&#45;&gt;Node6</title>
<path fill="none" stroke="#191970" d="M131.6039,-112.2455C116.582,-103.5731 94.3957,-90.7645 77.179,-80.825"/>
<polygon fill="#191970" stroke="#191970" points="78.6128,-77.6114 68.2025,-75.6427 75.1129,-83.6737 78.6128,-77.6114"/>
</g>
<!-- Node7 -->
<g id="node8" class="node">
<title>Node7</title>
<polygon fill="#ffffff" stroke="#bfbfbf" points="196.5,-56.5 196.5,-75.5 246.5,-75.5 246.5,-56.5 196.5,-56.5"/>
<text text-anchor="middle" x="221.5" y="-63.5" font-family="Helvetica,sans-Serif" font-size="10.00" fill="#000000">QString</text>
</g>
<!-- Node5&#45;&gt;Node7 -->
<g id="edge8" class="edge">
<title>Node5&#45;&gt;Node7</title>
<path fill="none" stroke="#191970" d="M161.2156,-112.2455C172.102,-103.8943 187.9883,-91.7076 200.72,-81.9408"/>
<polygon fill="#191970" stroke="#191970" points="203.1261,-84.5063 208.9301,-75.6427 198.8654,-78.9523 203.1261,-84.5063"/>
</g>
<!-- Node10 -->
<g id="node11" class="node">
<title>Node10</title>
<polygon fill="#ffffff" stroke="#bfbfbf" points="502,-56.5 502,-75.5 575,-75.5 575,-56.5 502,-56.5"/>
<text text-anchor="middle" x="538.5" y="-63.5" font-family="Helvetica,sans-Serif" font-size="10.00" fill="#000000">QComboBox</text>
</g>
<!-- Node9&#45;&gt;Node10 -->
<g id="edge11" class="edge">
<title>Node9&#45;&gt;Node10</title>
<path fill="none" stroke="#191970" d="M560.797,-112.2455C557.1576,-104.6973 552.0076,-94.0158 547.5738,-84.8197"/>
<polygon fill="#191970" stroke="#191970" points="550.6449,-83.1303 543.1491,-75.6427 544.3395,-86.1704 550.6449,-83.1303"/>
</g>
<!-- Node11 -->
<g id="node12" class="node">
<title>Node11</title>
<polygon fill="#ffffff" stroke="#bfbfbf" points="593,-56.5 593,-75.5 648,-75.5 648,-56.5 593,-56.5"/>
<text text-anchor="middle" x="620.5" y="-63.5" font-family="Helvetica,sans-Serif" font-size="10.00" fill="#000000">QVariant</text>
</g>
<!-- Node9&#45;&gt;Node11 -->
<g id="edge12" class="edge">
<title>Node9&#45;&gt;Node11</title>
<path fill="none" stroke="#191970" d="M575.0803,-112.2455C583.0458,-104.1352 594.5641,-92.4075 604.0079,-82.7919"/>
<polygon fill="#191970" stroke="#191970" points="606.5195,-85.2297 611.0295,-75.6427 601.5253,-80.3247 606.5195,-85.2297"/>
</g>
<!-- Node12&#45;&gt;Node7 -->
<g id="edge16" class="edge">
<title>Node12&#45;&gt;Node7</title>
<path fill="none" stroke="#191970" d="M335.777,-112.3733C313.3263,-103.2629 279.4261,-89.5062 254.3745,-79.3404"/>
<polygon fill="#191970" stroke="#191970" points="255.4957,-76.0182 244.9135,-75.5011 252.8635,-82.5045 255.4957,-76.0182"/>
</g>
<!-- Node13 -->
<g id="node14" class="node">
<title>Node13</title>
<polygon fill="#ffffff" stroke="#bfbfbf" points="338,-56.5 338,-75.5 381,-75.5 381,-56.5 338,-56.5"/>
<text text-anchor="middle" x="359.5" y="-63.5" font-family="Helvetica,sans-Serif" font-size="10.00" fill="#000000">QIcon</text>
</g>
<!-- Node12&#45;&gt;Node13 -->
<g id="edge14" class="edge">
<title>Node12&#45;&gt;Node13</title>
<path fill="none" stroke="#191970" d="M359.5,-112.2455C359.5,-104.9382 359.5,-94.6944 359.5,-85.7046"/>
<polygon fill="#191970" stroke="#191970" points="363.0001,-85.6426 359.5,-75.6427 356.0001,-85.6427 363.0001,-85.6426"/>
</g>
<!-- Node14 -->
<g id="node15" class="node">
<title>Node14</title>
<polygon fill="#ffffff" stroke="#bfbfbf" points="399,-56.5 399,-75.5 456,-75.5 456,-56.5 399,-56.5"/>
<text text-anchor="middle" x="427.5" y="-63.5" font-family="Helvetica,sans-Serif" font-size="10.00" fill="#000000">QPixmap</text>
</g>
<!-- Node12&#45;&gt;Node14 -->
<g id="edge15" class="edge">
<title>Node12&#45;&gt;Node14</title>
<path fill="none" stroke="#191970" d="M371.3447,-112.2455C381.388,-103.9746 395.9995,-91.9416 407.8004,-82.2232"/>
<polygon fill="#191970" stroke="#191970" points="410.2967,-84.7015 415.791,-75.6427 405.8467,-79.298 410.2967,-84.7015"/>
</g>
</g>
</svg>
