<?xml version="1.0" encoding="UTF-8" standalone="no"?>
<!DOCTYPE svg PUBLIC "-//W3C//DTD SVG 1.1//EN"
 "http://www.w3.org/Graphics/SVG/1.1/DTD/svg11.dtd">
<!-- Generated by graphviz version 2.40.1 (20161225.0304)
 -->
<!-- Title: src/qt/receivecoinsdialog.cpp Pages: 1 -->
<svg width="1978pt" height="263pt"
 viewBox="0.00 0.00 1977.50 263.00" xmlns="http://www.w3.org/2000/svg" xmlns:xlink="http://www.w3.org/1999/xlink">
<g id="graph0" class="graph" transform="scale(1 1) rotate(0) translate(4 259)">
<title>src/qt/receivecoinsdialog.cpp</title>
<polygon fill="#ffffff" stroke="transparent" points="-4,4 -4,-259 1973.5,-259 1973.5,4 -4,4"/>
<!-- Node0 -->
<g id="node1" class="node">
<title>Node0</title>
<polygon fill="#bfbfbf" stroke="#000000" points="996,-235.5 996,-254.5 1139,-254.5 1139,-235.5 996,-235.5"/>
<text text-anchor="middle" x="1067.5" y="-242.5" font-family="Helvetica,sans-Serif" font-size="10.00" fill="#000000">src/qt/receivecoinsdialog.cpp</text>
</g>
<!-- Node1 -->
<g id="node2" class="node">
<title>Node1</title>
<g id="a_node2"><a xlink:href="receivecoinsdialog_8h.html" target="_top" xlink:title="receivecoinsdialog.h">
<polygon fill="#ffffff" stroke="#000000" points="1134,-179.5 1134,-198.5 1239,-198.5 1239,-179.5 1134,-179.5"/>
<text text-anchor="middle" x="1186.5" y="-186.5" font-family="Helvetica,sans-Serif" font-size="10.00" fill="#000000">receivecoinsdialog.h</text>
</a>
</g>
</g>
<!-- Node0&#45;&gt;Node1 -->
<g id="edge1" class="edge">
<title>Node0&#45;&gt;Node1</title>
<path fill="none" stroke="#191970" d="M1087.9568,-235.3733C1106.9738,-226.4241 1135.5175,-212.9917 1156.9976,-202.8835"/>
<polygon fill="#191970" stroke="#191970" points="1158.7522,-205.926 1166.3101,-198.5011 1155.7716,-199.5923 1158.7522,-205.926"/>
</g>
<!-- Node2 -->
<g id="node3" class="node">
<title>Node2</title>
<g id="a_node3"><a xlink:href="guiutil_8h.html" target="_top" xlink:title="guiutil.h">
<polygon fill="#ffffff" stroke="#000000" points="1057.5,-123.5 1057.5,-142.5 1107.5,-142.5 1107.5,-123.5 1057.5,-123.5"/>
<text text-anchor="middle" x="1082.5" y="-130.5" font-family="Helvetica,sans-Serif" font-size="10.00" fill="#000000">guiutil.h</text>
</a>
</g>
</g>
<!-- Node0&#45;&gt;Node2 -->
<g id="edge33" class="edge">
<title>Node0&#45;&gt;Node2</title>
<path fill="none" stroke="#191970" d="M1068.7789,-235.4509C1071.2254,-217.184 1076.6131,-176.9553 1079.8619,-152.6976"/>
<polygon fill="#191970" stroke="#191970" points="1083.3659,-152.901 1081.2243,-142.5249 1076.4278,-151.9718 1083.3659,-152.901"/>
</g>
<!-- Node13 -->
<g id="node11" class="node">
<title>Node13</title>
<polygon fill="#ffffff" stroke="#bfbfbf" points="885,-62 885,-81 966,-81 966,-62 885,-62"/>
<text text-anchor="middle" x="925.5" y="-69" font-family="Helvetica,sans-Serif" font-size="10.00" fill="#000000">QMessageBox</text>
</g>
<!-- Node0&#45;&gt;Node13 -->
<g id="edge67" class="edge">
<title>Node0&#45;&gt;Node13</title>
<path fill="none" stroke="#191970" d="M1064.983,-235.3801C1058.7974,-213.2719 1041.0161,-158.0547 1009.5,-123 995.122,-107.0076 974.6076,-94.3024 957.4514,-85.5127"/>
<polygon fill="#191970" stroke="#191970" points="958.8454,-82.2981 948.3259,-81.0363 955.7625,-88.5827 958.8454,-82.2981"/>
</g>
<!-- Node20 -->
<g id="node18" class="node">
<title>Node20</title>
<polygon fill="#ffffff" stroke="#bfbfbf" points="1125.5,-123.5 1125.5,-142.5 1209.5,-142.5 1209.5,-123.5 1125.5,-123.5"/>
<text text-anchor="middle" x="1167.5" y="-130.5" font-family="Helvetica,sans-Serif" font-size="10.00" fill="#000000">QItemSelection</text>
</g>
<!-- Node0&#45;&gt;Node20 -->
<g id="edge66" class="edge">
<title>Node0&#45;&gt;Node20</title>
<path fill="none" stroke="#191970" d="M1076.0892,-235.1085C1087.3603,-222.1556 1107.7905,-198.7701 1125.5,-179 1134.03,-169.4774 1143.6384,-158.9402 1151.5102,-150.3561"/>
<polygon fill="#191970" stroke="#191970" points="1154.2447,-152.553 1158.4334,-142.8213 1149.0902,-147.8169 1154.2447,-152.553"/>
</g>
<!-- Node25 -->
<g id="node23" class="node">
<title>Node25</title>
<polygon fill="#ffffff" stroke="#bfbfbf" points="1257.5,-179.5 1257.5,-198.5 1375.5,-198.5 1375.5,-179.5 1257.5,-179.5"/>
<text text-anchor="middle" x="1316.5" y="-186.5" font-family="Helvetica,sans-Serif" font-size="10.00" fill="#000000">ui_receivecoinsdialog.h</text>
</g>
<!-- Node0&#45;&gt;Node25 -->
<g id="edge23" class="edge">
<title>Node0&#45;&gt;Node25</title>
<path fill="none" stroke="#191970" d="M1110.0217,-235.4369C1152.6361,-225.8529 1218.3176,-211.0812 1264.121,-200.78"/>
<polygon fill="#191970" stroke="#191970" points="1265.1654,-204.1326 1274.1537,-198.5237 1263.6294,-197.3032 1265.1654,-204.1326"/>
</g>
<!-- Node26 -->
<g id="node24" class="node">
<title>Node26</title>
<g id="a_node24"><a xlink:href="addressbookpage_8h.html" target="_top" xlink:title="addressbookpage.h">
<polygon fill="#ffffff" stroke="#000000" points="620,-179.5 620,-198.5 721,-198.5 721,-179.5 620,-179.5"/>
<text text-anchor="middle" x="670.5" y="-186.5" font-family="Helvetica,sans-Serif" font-size="10.00" fill="#000000">addressbookpage.h</text>
</a>
</g>
</g>
<!-- Node0&#45;&gt;Node26 -->
<g id="edge24" class="edge">
<title>Node0&#45;&gt;Node26</title>
<path fill="none" stroke="#191970" d="M995.86,-235.9394C929.6498,-227.4081 828.2702,-213.9476 731.0169,-199.1971"/>
<polygon fill="#191970" stroke="#191970" points="731.4261,-195.7192 721.013,-197.673 730.3717,-202.6393 731.4261,-195.7192"/>
</g>
<!-- Node27 -->
<g id="node25" class="node">
<title>Node27</title>
<g id="a_node25"><a xlink:href="addresstablemodel_8h.html" target="_top" xlink:title="addresstablemodel.h">
<polygon fill="#ffffff" stroke="#000000" points="894,-179.5 894,-198.5 1001,-198.5 1001,-179.5 894,-179.5"/>
<text text-anchor="middle" x="947.5" y="-186.5" font-family="Helvetica,sans-Serif" font-size="10.00" fill="#000000">addresstablemodel.h</text>
</a>
</g>
</g>
<!-- Node0&#45;&gt;Node27 -->
<g id="edge26" class="edge">
<title>Node0&#45;&gt;Node27</title>
<path fill="none" stroke="#191970" d="M1046.8713,-235.3733C1027.6081,-226.3838 998.6514,-212.8706 976.9581,-202.7471"/>
<polygon fill="#191970" stroke="#191970" points="978.4015,-199.5584 967.8595,-198.5011 975.4413,-205.9017 978.4015,-199.5584"/>
</g>
<!-- Node30 -->
<g id="node28" class="node">
<title>Node30</title>
<g id="a_node28"><a xlink:href="ravenunits_8h.html" target="_top" xlink:title="ravenunits.h">
<polygon fill="#ffffff" stroke="#000000" points="111.5,-123.5 111.5,-142.5 181.5,-142.5 181.5,-123.5 111.5,-123.5"/>
<text text-anchor="middle" x="146.5" y="-130.5" font-family="Helvetica,sans-Serif" font-size="10.00" fill="#000000">ravenunits.h</text>
</a>
</g>
</g>
<!-- Node0&#45;&gt;Node30 -->
<g id="edge29" class="edge">
<title>Node0&#45;&gt;Node30</title>
<path fill="none" stroke="#191970" d="M995.9802,-242.5689C813.841,-236.1347 342.0195,-217.8579 273.5,-199 234.1995,-188.1837 193.1178,-164.1288 168.675,-148.243"/>
<polygon fill="#191970" stroke="#191970" points="170.4292,-145.2067 160.1602,-142.5993 166.5618,-151.0414 170.4292,-145.2067"/>
</g>
<!-- Node32 -->
<g id="node30" class="node">
<title>Node32</title>
<g id="a_node30"><a xlink:href="optionsmodel_8h.html" target="_top" xlink:title="optionsmodel.h">
<polygon fill="#ffffff" stroke="#000000" points="10,-123.5 10,-142.5 93,-142.5 93,-123.5 10,-123.5"/>
<text text-anchor="middle" x="51.5" y="-130.5" font-family="Helvetica,sans-Serif" font-size="10.00" fill="#000000">optionsmodel.h</text>
</a>
</g>
</g>
<!-- Node0&#45;&gt;Node32 -->
<g id="edge34" class="edge">
<title>Node0&#45;&gt;Node32</title>
<path fill="none" stroke="#191970" d="M995.8247,-244.0731C819.0405,-241.3122 365.8601,-231.2183 218.5,-199 167.4391,-187.8362 111.6316,-162.9873 79.1949,-147.1664"/>
<polygon fill="#191970" stroke="#191970" points="80.4247,-143.8699 69.9098,-142.5715 77.32,-150.1437 80.4247,-143.8699"/>
</g>
<!-- Node33 -->
<g id="node31" class="node">
<title>Node33</title>
<g id="a_node31"><a xlink:href="platformstyle_8h.html" target="_top" xlink:title="platformstyle.h">
<polygon fill="#ffffff" stroke="#000000" points="283,-179.5 283,-198.5 364,-198.5 364,-179.5 283,-179.5"/>
<text text-anchor="middle" x="323.5" y="-186.5" font-family="Helvetica,sans-Serif" font-size="10.00" fill="#000000">platformstyle.h</text>
</a>
</g>
</g>
<!-- Node0&#45;&gt;Node33 -->
<g id="edge37" class="edge">
<title>Node0&#45;&gt;Node33</title>
<path fill="none" stroke="#191970" d="M995.6533,-239.8732C879.8323,-231.5666 644.6741,-214.5276 445.5,-199 422.088,-197.1748 396.1569,-195.0621 374.2434,-193.2502"/>
<polygon fill="#191970" stroke="#191970" points="374.4152,-189.7525 364.1602,-192.4143 373.8368,-196.7286 374.4152,-189.7525"/>
</g>
<!-- Node36 -->
<g id="node34" class="node">
<title>Node36</title>
<g id="a_node34"><a xlink:href="receiverequestdialog_8h.html" target="_top" xlink:title="receiverequestdialog.h">
<polygon fill="#ffffff" stroke="#000000" points="487.5,-179.5 487.5,-198.5 601.5,-198.5 601.5,-179.5 487.5,-179.5"/>
<text text-anchor="middle" x="544.5" y="-186.5" font-family="Helvetica,sans-Serif" font-size="10.00" fill="#000000">receiverequestdialog.h</text>
</a>
</g>
</g>
<!-- Node0&#45;&gt;Node36 -->
<g id="edge41" class="edge">
<title>Node0&#45;&gt;Node36</title>
<path fill="none" stroke="#191970" d="M995.7398,-238.8961C907.747,-231.1601 753.8081,-216.8142 611.908,-199.127"/>
<polygon fill="#191970" stroke="#191970" points="612.0711,-195.6201 601.7131,-197.8478 611.1995,-202.5656 612.0711,-195.6201"/>
</g>
<!-- Node37 -->
<g id="node35" class="node">
<title>Node37</title>
<g id="a_node35"><a xlink:href="walletmodel_8h.html" target="_top" xlink:title="walletmodel.h">
<polygon fill="#ffffff" stroke="#000000" points="448,-123.5 448,-142.5 525,-142.5 525,-123.5 448,-123.5"/>
<text text-anchor="middle" x="486.5" y="-130.5" font-family="Helvetica,sans-Serif" font-size="10.00" fill="#000000">walletmodel.h</text>
</a>
</g>
</g>
<!-- Node0&#45;&gt;Node37 -->
<g id="edge62" class="edge">
<title>Node0&#45;&gt;Node37</title>
<path fill="none" stroke="#191970" d="M995.7681,-241.9726C842.5611,-235.1588 495.8353,-217.742 478.5,-199 467.0378,-186.6077 471.283,-166.8341 477.0297,-152.1574"/>
<polygon fill="#191970" stroke="#191970" points="480.2508,-153.5271 481.0734,-142.9642 473.8432,-150.7086 480.2508,-153.5271"/>
</g>
<!-- Node128 -->
<g id="node43" class="node">
<title>Node128</title>
<g id="a_node43"><a xlink:href="recentrequeststablemodel_8h.html" target="_top" xlink:title="recentrequeststablemodel.h">
<polygon fill="#ffffff" stroke="#000000" points="739,-179.5 739,-198.5 876,-198.5 876,-179.5 739,-179.5"/>
<text text-anchor="middle" x="807.5" y="-186.5" font-family="Helvetica,sans-Serif" font-size="10.00" fill="#000000">recentrequeststablemodel.h</text>
</a>
</g>
</g>
<!-- Node0&#45;&gt;Node128 -->
<g id="edge57" class="edge">
<title>Node0&#45;&gt;Node128</title>
<path fill="none" stroke="#191970" d="M1023.0998,-235.4369C978.4159,-225.8127 909.443,-210.957 861.5912,-200.6504"/>
<polygon fill="#191970" stroke="#191970" points="862.2298,-197.2078 851.717,-198.5237 860.7559,-204.0508 862.2298,-197.2078"/>
</g>
<!-- Node130 -->
<g id="node45" class="node">
<title>Node130</title>
<g id="a_node45"><a xlink:href="guiconstants_8h.html" target="_top" xlink:title="guiconstants.h">
<polygon fill="#ffffff" stroke="#000000" points="1393.5,-179.5 1393.5,-198.5 1473.5,-198.5 1473.5,-179.5 1393.5,-179.5"/>
<text text-anchor="middle" x="1433.5" y="-186.5" font-family="Helvetica,sans-Serif" font-size="10.00" fill="#000000">guiconstants.h</text>
</a>
</g>
</g>
<!-- Node0&#45;&gt;Node130 -->
<g id="edge63" class="edge">
<title>Node0&#45;&gt;Node130</title>
<path fill="none" stroke="#191970" d="M1139.1335,-235.7956C1201.1791,-227.5506 1293.5739,-214.622 1383.3415,-199.1265"/>
<polygon fill="#191970" stroke="#191970" points="1384.1716,-202.5348 1393.4241,-197.3732 1382.9723,-195.6383 1384.1716,-202.5348"/>
</g>
<!-- Node131 -->
<g id="node46" class="node">
<title>Node131</title>
<polygon fill="#ffffff" stroke="#bfbfbf" points="1491.5,-179.5 1491.5,-198.5 1543.5,-198.5 1543.5,-179.5 1491.5,-179.5"/>
<text text-anchor="middle" x="1517.5" y="-186.5" font-family="Helvetica,sans-Serif" font-size="10.00" fill="#000000">QAction</text>
</g>
<!-- Node0&#45;&gt;Node131 -->
<g id="edge64" class="edge">
<title>Node0&#45;&gt;Node131</title>
<path fill="none" stroke="#191970" d="M1139.2856,-240.7159C1220.273,-235.059 1355.9752,-223.1016 1481.1009,-198.9991"/>
<polygon fill="#191970" stroke="#191970" points="1482.1006,-202.3699 1491.242,-197.0141 1480.7559,-195.5003 1482.1006,-202.3699"/>
</g>
<!-- Node132 -->
<g id="node47" class="node">
<title>Node132</title>
<polygon fill="#ffffff" stroke="#bfbfbf" points="1562,-179.5 1562,-198.5 1615,-198.5 1615,-179.5 1562,-179.5"/>
<text text-anchor="middle" x="1588.5" y="-186.5" font-family="Helvetica,sans-Serif" font-size="10.00" fill="#000000">QCursor</text>
</g>
<!-- Node0&#45;&gt;Node132 -->
<g id="edge65" class="edge">
<title>Node0&#45;&gt;Node132</title>
<path fill="none" stroke="#191970" d="M1139.132,-242.1577C1232.2055,-237.5856 1399.7653,-226.3577 1551.8891,-198.7957"/>
<polygon fill="#191970" stroke="#191970" points="1552.6843,-202.2082 1561.8859,-196.9565 1551.4177,-195.3237 1552.6843,-202.2082"/>
</g>
<!-- Node133 -->
<g id="node48" class="node">
<title>Node133</title>
<polygon fill="#ffffff" stroke="#bfbfbf" points="1633.5,-179.5 1633.5,-198.5 1697.5,-198.5 1697.5,-179.5 1633.5,-179.5"/>
<text text-anchor="middle" x="1665.5" y="-186.5" font-family="Helvetica,sans-Serif" font-size="10.00" fill="#000000">QScrollBar</text>
</g>
<!-- Node0&#45;&gt;Node133 -->
<g id="edge68" class="edge">
<title>Node0&#45;&gt;Node133</title>
<path fill="none" stroke="#191970" d="M1139.1546,-242.6746C1243.6998,-238.4868 1444.2088,-227.4523 1623.4949,-198.9336"/>
<polygon fill="#191970" stroke="#191970" points="1624.0532,-202.3889 1633.3686,-197.3416 1622.9389,-195.4781 1624.0532,-202.3889"/>
</g>
<!-- Node134 -->
<g id="node49" class="node">
<title>Node134</title>
<polygon fill="#ffffff" stroke="#bfbfbf" points="1716,-179.5 1716,-198.5 1805,-198.5 1805,-179.5 1716,-179.5"/>
<text text-anchor="middle" x="1760.5" y="-186.5" font-family="Helvetica,sans-Serif" font-size="10.00" fill="#000000">QTextDocument</text>
</g>
<!-- Node0&#45;&gt;Node134 -->
<g id="edge69" class="edge">
<title>Node0&#45;&gt;Node134</title>
<path fill="none" stroke="#191970" d="M1139.1531,-242.4434C1255.764,-237.7093 1493.9838,-225.6521 1705.7097,-198.9614"/>
<polygon fill="#191970" stroke="#191970" points="1706.2939,-202.4154 1715.7712,-197.6793 1705.409,-195.4715 1706.2939,-202.4154"/>
</g>
<!-- Node135 -->
<g id="node50" class="node">
<title>Node135</title>
<polygon fill="#ffffff" stroke="#bfbfbf" points="1823.5,-179.5 1823.5,-198.5 1969.5,-198.5 1969.5,-179.5 1823.5,-179.5"/>
<text text-anchor="middle" x="1896.5" y="-186.5" font-family="Helvetica,sans-Serif" font-size="10.00" fill="#000000">QGraphicsDropShadowEffect</text>
</g>
<!-- Node0&#45;&gt;Node135 -->
<g id="edge70" class="edge">
<title>Node0&#45;&gt;Node135</title>
<path fill="none" stroke="#191970" d="M1139.1979,-242.0145C1270.653,-236.2274 1559.3001,-222.0675 1813.0545,-199.0846"/>
<polygon fill="#191970" stroke="#191970" points="1813.5649,-202.5527 1823.2057,-198.1588 1812.9291,-195.5816 1813.5649,-202.5527"/>
</g>
<!-- Node1&#45;&gt;Node2 -->
<g id="edge2" class="edge">
<title>Node1&#45;&gt;Node2</title>
<path fill="none" stroke="#191970" d="M1168.3846,-179.2455C1152.055,-170.4527 1127.829,-157.4079 1109.2661,-147.4125"/>
<polygon fill="#191970" stroke="#191970" points="1110.8719,-144.3021 1100.4078,-142.6427 1107.5532,-150.4654 1110.8719,-144.3021"/>
</g>
<!-- Node12 -->
<g id="node10" class="node">
<title>Node12</title>
<polygon fill="#ffffff" stroke="#bfbfbf" points="1364,-62 1364,-81 1441,-81 1441,-62 1364,-62"/>
<text text-anchor="middle" x="1402.5" y="-69" font-family="Helvetica,sans-Serif" font-size="10.00" fill="#000000">QHeaderView</text>
</g>
<!-- Node1&#45;&gt;Node12 -->
<g id="edge17" class="edge">
<title>Node1&#45;&gt;Node12</title>
<path fill="none" stroke="#191970" d="M1238.0808,-179.436C1281.1945,-170.6708 1338.5789,-156.968 1357.5,-143 1375.3106,-129.8517 1387.7622,-107.3525 1394.9827,-91.0997"/>
<polygon fill="#191970" stroke="#191970" points="1398.3736,-92.06 1398.9759,-81.4823 1391.9087,-89.3757 1398.3736,-92.06"/>
</g>
<!-- Node19 -->
<g id="node17" class="node">
<title>Node19</title>
<polygon fill="#ffffff" stroke="#bfbfbf" points="651.5,-123.5 651.5,-142.5 703.5,-142.5 703.5,-123.5 651.5,-123.5"/>
<text text-anchor="middle" x="677.5" y="-130.5" font-family="Helvetica,sans-Serif" font-size="10.00" fill="#000000">QDialog</text>
</g>
<!-- Node1&#45;&gt;Node19 -->
<g id="edge16" class="edge">
<title>Node1&#45;&gt;Node19</title>
<path fill="none" stroke="#191970" d="M1133.7107,-185.0931C1031.3928,-177.3278 808.507,-159.4232 713.6027,-142.8582"/>
<polygon fill="#191970" stroke="#191970" points="714.2174,-139.4127 703.7504,-141.0534 712.956,-146.2981 714.2174,-139.4127"/>
</g>
<!-- Node1&#45;&gt;Node20 -->
<g id="edge18" class="edge">
<title>Node1&#45;&gt;Node20</title>
<path fill="none" stroke="#191970" d="M1183.1905,-179.2455C1180.6567,-171.7776 1177.0823,-161.2427 1173.985,-152.1137"/>
<polygon fill="#191970" stroke="#191970" points="1177.2991,-150.9879 1170.7716,-142.6427 1170.6702,-153.237 1177.2991,-150.9879"/>
</g>
<!-- Node21 -->
<g id="node19" class="node">
<title>Node21</title>
<polygon fill="#ffffff" stroke="#bfbfbf" points="1405,-123.5 1405,-142.5 1472,-142.5 1472,-123.5 1405,-123.5"/>
<text text-anchor="middle" x="1438.5" y="-130.5" font-family="Helvetica,sans-Serif" font-size="10.00" fill="#000000">QKeyEvent</text>
</g>
<!-- Node1&#45;&gt;Node21 -->
<g id="edge19" class="edge">
<title>Node1&#45;&gt;Node21</title>
<path fill="none" stroke="#191970" d="M1229.534,-179.4369C1275.6677,-169.1849 1348.514,-152.9969 1394.8745,-142.6946"/>
<polygon fill="#191970" stroke="#191970" points="1395.9132,-146.0492 1404.9158,-140.4632 1394.3946,-139.2159 1395.9132,-146.0492"/>
</g>
<!-- Node22 -->
<g id="node20" class="node">
<title>Node22</title>
<polygon fill="#ffffff" stroke="#bfbfbf" points="1490.5,-123.5 1490.5,-142.5 1538.5,-142.5 1538.5,-123.5 1490.5,-123.5"/>
<text text-anchor="middle" x="1514.5" y="-130.5" font-family="Helvetica,sans-Serif" font-size="10.00" fill="#000000">QMenu</text>
</g>
<!-- Node1&#45;&gt;Node22 -->
<g id="edge20" class="edge">
<title>Node1&#45;&gt;Node22</title>
<path fill="none" stroke="#191970" d="M1239.2614,-180.4657C1242.387,-179.9677 1245.4845,-179.4761 1248.5,-179 1348.8687,-163.1521 1377.6037,-166.0525 1480.5878,-142.9549"/>
<polygon fill="#191970" stroke="#191970" points="1481.4778,-146.342 1490.4544,-140.7143 1479.9276,-139.5158 1481.4778,-146.342"/>
</g>
<!-- Node23 -->
<g id="node21" class="node">
<title>Node23</title>
<polygon fill="#ffffff" stroke="#bfbfbf" points="1228,-123.5 1228,-142.5 1275,-142.5 1275,-123.5 1228,-123.5"/>
<text text-anchor="middle" x="1251.5" y="-130.5" font-family="Helvetica,sans-Serif" font-size="10.00" fill="#000000">QPoint</text>
</g>
<!-- Node1&#45;&gt;Node23 -->
<g id="edge21" class="edge">
<title>Node1&#45;&gt;Node23</title>
<path fill="none" stroke="#191970" d="M1197.8221,-179.2455C1207.4223,-170.9746 1221.3892,-158.9416 1232.6695,-149.2232"/>
<polygon fill="#191970" stroke="#191970" points="1235.016,-151.8214 1240.3076,-142.6427 1230.447,-146.5182 1235.016,-151.8214"/>
</g>
<!-- Node24 -->
<g id="node22" class="node">
<title>Node24</title>
<polygon fill="#ffffff" stroke="#bfbfbf" points="1293,-123.5 1293,-142.5 1348,-142.5 1348,-123.5 1293,-123.5"/>
<text text-anchor="middle" x="1320.5" y="-130.5" font-family="Helvetica,sans-Serif" font-size="10.00" fill="#000000">QVariant</text>
</g>
<!-- Node1&#45;&gt;Node24 -->
<g id="edge22" class="edge">
<title>Node1&#45;&gt;Node24</title>
<path fill="none" stroke="#191970" d="M1209.5354,-179.3733C1231.2388,-170.3032 1263.9618,-156.6279 1288.255,-146.4755"/>
<polygon fill="#191970" stroke="#191970" points="1289.8881,-149.5865 1297.7652,-142.5011 1287.1889,-143.1278 1289.8881,-149.5865"/>
</g>
<!-- Node3 -->
<g id="node4" class="node">
<title>Node3</title>
<g id="a_node4"><a xlink:href="amount_8h.html" target="_top" xlink:title="amount.h">
<polygon fill="#ffffff" stroke="#000000" points="121,-62 121,-81 178,-81 178,-62 121,-62"/>
<text text-anchor="middle" x="149.5" y="-69" font-family="Helvetica,sans-Serif" font-size="10.00" fill="#000000">amount.h</text>
</a>
</g>
</g>
<!-- Node2&#45;&gt;Node3 -->
<g id="edge3" class="edge">
<title>Node2&#45;&gt;Node3</title>
<path fill="none" stroke="#191970" d="M1057.2247,-128.9829C1043.1995,-126.8937 1025.4218,-124.475 1009.5,-123 681.626,-92.6263 597.4882,-116.1138 269.5,-87 242.1597,-84.5731 211.4669,-80.5857 187.9665,-77.2629"/>
<polygon fill="#191970" stroke="#191970" points="188.436,-73.7945 178.0403,-75.8387 187.4418,-80.7236 188.436,-73.7945"/>
</g>
<!-- Node5 -->
<g id="node6" class="node">
<title>Node5</title>
<g id="a_node6"><a xlink:href="fs_8h.html" target="_top" xlink:title="fs.h">
<polygon fill="#ffffff" stroke="#ff0000" points="1313,-62 1313,-81 1346,-81 1346,-62 1313,-62"/>
<text text-anchor="middle" x="1329.5" y="-69" font-family="Helvetica,sans-Serif" font-size="10.00" fill="#000000">fs.h</text>
</a>
</g>
</g>
<!-- Node2&#45;&gt;Node5 -->
<g id="edge5" class="edge">
<title>Node2&#45;&gt;Node5</title>
<path fill="none" stroke="#191970" d="M1107.6783,-125.3025C1110.6409,-124.4836 1113.63,-123.6966 1116.5,-123 1198.749,-103.0362 1224.4048,-117.1231 1303.5,-87 1304.3809,-86.6645 1305.266,-86.2999 1306.1504,-85.912"/>
<polygon fill="#191970" stroke="#191970" points="1308.113,-88.8367 1315.3751,-81.1223 1304.8872,-82.6242 1308.113,-88.8367"/>
</g>
<!-- Node11 -->
<g id="node9" class="node">
<title>Node11</title>
<polygon fill="#ffffff" stroke="#bfbfbf" points="1060.5,-62 1060.5,-81 1110.5,-81 1110.5,-62 1060.5,-62"/>
<text text-anchor="middle" x="1085.5" y="-69" font-family="Helvetica,sans-Serif" font-size="10.00" fill="#000000">QEvent</text>
</g>
<!-- Node2&#45;&gt;Node11 -->
<g id="edge8" class="edge">
<title>Node2&#45;&gt;Node11</title>
<path fill="none" stroke="#191970" d="M1082.9688,-123.3906C1083.3846,-114.8657 1084.0054,-102.1392 1084.5281,-91.4235"/>
<polygon fill="#191970" stroke="#191970" points="1088.0332,-91.4035 1085.0246,-81.2449 1081.0415,-91.0624 1088.0332,-91.4035"/>
</g>
<!-- Node2&#45;&gt;Node12 -->
<g id="edge9" class="edge">
<title>Node2&#45;&gt;Node12</title>
<path fill="none" stroke="#191970" d="M1107.6515,-125.1866C1110.6189,-124.3885 1113.6164,-123.6381 1116.5,-123 1221.3832,-99.7907 1251.0078,-111.9107 1355.5,-87 1358.9476,-86.1781 1362.5044,-85.2186 1366.0458,-84.1873"/>
<polygon fill="#191970" stroke="#191970" points="1367.3626,-87.4436 1375.8817,-81.1448 1365.294,-80.7563 1367.3626,-87.4436"/>
</g>
<!-- Node2&#45;&gt;Node13 -->
<g id="edge10" class="edge">
<title>Node2&#45;&gt;Node13</title>
<path fill="none" stroke="#191970" d="M1057.9688,-123.3906C1031.4693,-113.0103 989.0669,-96.4004 959.393,-84.7766"/>
<polygon fill="#191970" stroke="#191970" points="960.4467,-81.4304 949.859,-81.0419 957.8935,-87.9482 960.4467,-81.4304"/>
</g>
<!-- Node14 -->
<g id="node12" class="node">
<title>Node14</title>
<polygon fill="#ffffff" stroke="#bfbfbf" points="547,-.5 547,-19.5 600,-19.5 600,-.5 547,-.5"/>
<text text-anchor="middle" x="573.5" y="-7.5" font-family="Helvetica,sans-Serif" font-size="10.00" fill="#000000">QObject</text>
</g>
<!-- Node2&#45;&gt;Node14 -->
<g id="edge11" class="edge">
<title>Node2&#45;&gt;Node14</title>
<path fill="none" stroke="#191970" d="M1076.5892,-123.3739C1065.5759,-106.4023 1040.1385,-71.4908 1008.5,-56 938.6278,-21.7892 701.9605,-12.8739 610.2411,-10.6776"/>
<polygon fill="#191970" stroke="#191970" points="610.1241,-7.1742 600.0475,-10.4472 609.9658,-14.1724 610.1241,-7.1742"/>
</g>
<!-- Node15 -->
<g id="node13" class="node">
<title>Node15</title>
<polygon fill="#ffffff" stroke="#bfbfbf" points="1128.5,-62 1128.5,-81 1206.5,-81 1206.5,-62 1128.5,-62"/>
<text text-anchor="middle" x="1167.5" y="-69" font-family="Helvetica,sans-Serif" font-size="10.00" fill="#000000">QProgressBar</text>
</g>
<!-- Node2&#45;&gt;Node15 -->
<g id="edge12" class="edge">
<title>Node2&#45;&gt;Node15</title>
<path fill="none" stroke="#191970" d="M1095.7813,-123.3906C1109.2548,-113.6421 1130.322,-98.3994 1146.1435,-86.9521"/>
<polygon fill="#191970" stroke="#191970" points="1148.2619,-89.7394 1154.312,-81.0419 1144.1586,-84.0682 1148.2619,-89.7394"/>
</g>
<!-- Node16 -->
<g id="node14" class="node">
<title>Node16</title>
<polygon fill="#ffffff" stroke="#bfbfbf" points="267.5,-.5 267.5,-19.5 317.5,-19.5 317.5,-.5 267.5,-.5"/>
<text text-anchor="middle" x="292.5" y="-7.5" font-family="Helvetica,sans-Serif" font-size="10.00" fill="#000000">QString</text>
</g>
<!-- Node2&#45;&gt;Node16 -->
<g id="edge13" class="edge">
<title>Node2&#45;&gt;Node16</title>
<path fill="none" stroke="#191970" d="M1065.1654,-123.4344C1049.7842,-114.6681 1026.9568,-100.9647 1008.5,-87 992.1925,-74.6615 993.3086,-64.0257 974.5,-56 944.5113,-43.2037 463.2702,-18.4711 327.76,-11.7319"/>
<polygon fill="#191970" stroke="#191970" points="327.6882,-8.2241 317.5271,-11.2245 327.3415,-15.2155 327.6882,-8.2241"/>
</g>
<!-- Node17 -->
<g id="node15" class="node">
<title>Node17</title>
<polygon fill="#ffffff" stroke="#bfbfbf" points="1224.5,-62 1224.5,-81 1294.5,-81 1294.5,-62 1224.5,-62"/>
<text text-anchor="middle" x="1259.5" y="-69" font-family="Helvetica,sans-Serif" font-size="10.00" fill="#000000">QTableView</text>
</g>
<!-- Node2&#45;&gt;Node17 -->
<g id="edge14" class="edge">
<title>Node2&#45;&gt;Node17</title>
<path fill="none" stroke="#191970" d="M1107.5179,-124.3949C1134.2617,-115.1849 1177.9002,-100.1248 1215.5,-87 1217.9087,-86.1592 1220.3907,-85.2907 1222.8917,-84.4139"/>
<polygon fill="#191970" stroke="#191970" points="1224.2413,-87.6496 1232.5161,-81.0331 1221.9213,-81.0452 1224.2413,-87.6496"/>
</g>
<!-- Node18 -->
<g id="node16" class="node">
<title>Node18</title>
<polygon fill="#ffffff" stroke="#bfbfbf" points="820,-62 820,-81 867,-81 867,-62 820,-62"/>
<text text-anchor="middle" x="843.5" y="-69" font-family="Helvetica,sans-Serif" font-size="10.00" fill="#000000">QLabel</text>
</g>
<!-- Node2&#45;&gt;Node18 -->
<g id="edge15" class="edge">
<title>Node2&#45;&gt;Node18</title>
<path fill="none" stroke="#191970" d="M1057.4483,-129.3634C1017.9937,-123.2097 939.3016,-109.2013 875.5,-87 873.8967,-86.4421 872.2686,-85.8252 870.6396,-85.1684"/>
<polygon fill="#191970" stroke="#191970" points="872.0253,-81.9543 861.4646,-81.1037 869.1899,-88.3543 872.0253,-81.9543"/>
</g>
<!-- Node4 -->
<g id="node5" class="node">
<title>Node4</title>
<polygon fill="#ffffff" stroke="#bfbfbf" points="125,-.5 125,-19.5 174,-19.5 174,-.5 125,-.5"/>
<text text-anchor="middle" x="149.5" y="-7.5" font-family="Helvetica,sans-Serif" font-size="10.00" fill="#000000">stdint.h</text>
</g>
<!-- Node3&#45;&gt;Node4 -->
<g id="edge4" class="edge">
<title>Node3&#45;&gt;Node4</title>
<path fill="none" stroke="#191970" d="M149.5,-61.8906C149.5,-53.3657 149.5,-40.6392 149.5,-29.9235"/>
<polygon fill="#191970" stroke="#191970" points="153.0001,-29.7448 149.5,-19.7449 146.0001,-29.7449 153.0001,-29.7448"/>
</g>
<!-- Node6 -->
<g id="node7" class="node">
<title>Node6</title>
<polygon fill="#ffffff" stroke="#bfbfbf" points="1306.5,-.5 1306.5,-19.5 1352.5,-19.5 1352.5,-.5 1306.5,-.5"/>
<text text-anchor="middle" x="1329.5" y="-7.5" font-family="Helvetica,sans-Serif" font-size="10.00" fill="#000000">stdio.h</text>
</g>
<!-- Node5&#45;&gt;Node6 -->
<g id="edge6" class="edge">
<title>Node5&#45;&gt;Node6</title>
<path fill="none" stroke="#191970" d="M1329.5,-61.8906C1329.5,-53.3657 1329.5,-40.6392 1329.5,-29.9235"/>
<polygon fill="#191970" stroke="#191970" points="1333.0001,-29.7448 1329.5,-19.7449 1326.0001,-29.7449 1333.0001,-29.7448"/>
</g>
<!-- Node7 -->
<g id="node8" class="node">
<title>Node7</title>
<polygon fill="#ffffff" stroke="#bfbfbf" points="990,-.5 990,-19.5 1031,-19.5 1031,-.5 990,-.5"/>
<text text-anchor="middle" x="1010.5" y="-7.5" font-family="Helvetica,sans-Serif" font-size="10.00" fill="#000000">string</text>
</g>
<!-- Node5&#45;&gt;Node7 -->
<g id="edge7" class="edge">
<title>Node5&#45;&gt;Node7</title>
<path fill="none" stroke="#191970" d="M1315.6834,-61.9424C1311.8782,-59.6842 1307.6517,-57.4998 1303.5,-56 1211.7892,-22.8701 1095.4271,-13.5833 1041.0715,-10.9934"/>
<polygon fill="#191970" stroke="#191970" points="1041.1949,-7.4956 1031.0528,-10.5597 1040.892,-14.489 1041.1949,-7.4956"/>
</g>
<!-- Node26&#45;&gt;Node19 -->
<g id="edge25" class="edge">
<title>Node26&#45;&gt;Node19</title>
<path fill="none" stroke="#191970" d="M671.7193,-179.2455C672.6327,-171.9382 673.9132,-161.6944 675.0369,-152.7046"/>
<polygon fill="#191970" stroke="#191970" points="678.5272,-152.9996 676.2947,-142.6427 671.5813,-152.1313 678.5272,-152.9996"/>
</g>
<!-- Node28 -->
<g id="node26" class="node">
<title>Node28</title>
<polygon fill="#ffffff" stroke="#bfbfbf" points="890,-123.5 890,-142.5 1001,-142.5 1001,-123.5 890,-123.5"/>
<text text-anchor="middle" x="945.5" y="-130.5" font-family="Helvetica,sans-Serif" font-size="10.00" fill="#000000">QAbstractTableModel</text>
</g>
<!-- Node27&#45;&gt;Node28 -->
<g id="edge27" class="edge">
<title>Node27&#45;&gt;Node28</title>
<path fill="none" stroke="#191970" d="M947.1516,-179.2455C946.8907,-171.9382 946.5248,-161.6944 946.2037,-152.7046"/>
<polygon fill="#191970" stroke="#191970" points="949.6992,-152.5113 945.8444,-142.6427 942.7036,-152.7613 949.6992,-152.5113"/>
</g>
<!-- Node29 -->
<g id="node27" class="node">
<title>Node29</title>
<polygon fill="#ffffff" stroke="#bfbfbf" points="807,-123.5 807,-142.5 872,-142.5 872,-123.5 807,-123.5"/>
<text text-anchor="middle" x="839.5" y="-130.5" font-family="Helvetica,sans-Serif" font-size="10.00" fill="#000000">QStringList</text>
</g>
<!-- Node27&#45;&gt;Node29 -->
<g id="edge28" class="edge">
<title>Node27&#45;&gt;Node29</title>
<path fill="none" stroke="#191970" d="M928.6878,-179.2455C911.6527,-170.4125 886.3425,-157.2887 867.0319,-147.2758"/>
<polygon fill="#191970" stroke="#191970" points="868.5853,-144.1388 858.0966,-142.6427 865.363,-150.353 868.5853,-144.1388"/>
</g>
<!-- Node30&#45;&gt;Node3 -->
<g id="edge30" class="edge">
<title>Node30&#45;&gt;Node3</title>
<path fill="none" stroke="#191970" d="M146.9688,-123.3906C147.3846,-114.8657 148.0054,-102.1392 148.5281,-91.4235"/>
<polygon fill="#191970" stroke="#191970" points="152.0332,-91.4035 149.0246,-81.2449 145.0415,-91.0624 152.0332,-91.4035"/>
</g>
<!-- Node30&#45;&gt;Node16 -->
<g id="edge32" class="edge">
<title>Node30&#45;&gt;Node16</title>
<path fill="none" stroke="#191970" d="M157.5236,-123.445C174.4306,-108.8185 207.8202,-80.0437 236.5,-56 248.3684,-46.0502 261.7706,-35.0335 272.4876,-26.2763"/>
<polygon fill="#191970" stroke="#191970" points="274.8892,-28.8341 280.4262,-19.8013 270.4648,-23.4097 274.8892,-28.8341"/>
</g>
<!-- Node31 -->
<g id="node29" class="node">
<title>Node31</title>
<polygon fill="#ffffff" stroke="#bfbfbf" points="0,-62 0,-81 103,-81 103,-62 0,-62"/>
<text text-anchor="middle" x="51.5" y="-69" font-family="Helvetica,sans-Serif" font-size="10.00" fill="#000000">QAbstractListModel</text>
</g>
<!-- Node30&#45;&gt;Node31 -->
<g id="edge31" class="edge">
<title>Node30&#45;&gt;Node31</title>
<path fill="none" stroke="#191970" d="M131.6563,-123.3906C116.4582,-113.5519 92.6152,-98.1167 74.8794,-86.6351"/>
<polygon fill="#191970" stroke="#191970" points="76.5361,-83.5382 66.2395,-81.0419 72.732,-89.4144 76.5361,-83.5382"/>
</g>
<!-- Node32&#45;&gt;Node3 -->
<g id="edge35" class="edge">
<title>Node32&#45;&gt;Node3</title>
<path fill="none" stroke="#191970" d="M66.8125,-123.3906C82.5624,-113.5067 107.3123,-97.9749 125.6337,-86.4773"/>
<polygon fill="#191970" stroke="#191970" points="127.6852,-89.3221 134.295,-81.0419 123.9643,-83.3929 127.6852,-89.3221"/>
</g>
<!-- Node32&#45;&gt;Node31 -->
<g id="edge36" class="edge">
<title>Node32&#45;&gt;Node31</title>
<path fill="none" stroke="#191970" d="M51.5,-123.3906C51.5,-114.8657 51.5,-102.1392 51.5,-91.4235"/>
<polygon fill="#191970" stroke="#191970" points="55.0001,-91.2448 51.5,-81.2449 48.0001,-91.2449 55.0001,-91.2448"/>
</g>
<!-- Node33&#45;&gt;Node16 -->
<g id="edge40" class="edge">
<title>Node33&#45;&gt;Node16</title>
<path fill="none" stroke="#191970" d="M326.9105,-179.3323C331.0552,-165.8044 336.3553,-140.8808 326.5,-123 312.0368,-96.759 283.9632,-113.241 269.5,-87 259.1414,-68.2062 269.5333,-44.1994 279.48,-28.0284"/>
<polygon fill="#191970" stroke="#191970" points="282.5178,-29.7803 285.1248,-19.5112 276.6829,-25.9132 282.5178,-29.7803"/>
</g>
<!-- Node34 -->
<g id="node32" class="node">
<title>Node34</title>
<polygon fill="#ffffff" stroke="#bfbfbf" points="200,-123.5 200,-142.5 243,-142.5 243,-123.5 200,-123.5"/>
<text text-anchor="middle" x="221.5" y="-130.5" font-family="Helvetica,sans-Serif" font-size="10.00" fill="#000000">QIcon</text>
</g>
<!-- Node33&#45;&gt;Node34 -->
<g id="edge38" class="edge">
<title>Node33&#45;&gt;Node34</title>
<path fill="none" stroke="#191970" d="M305.733,-179.2455C289.7905,-170.4928 266.1741,-157.527 248.0011,-147.5496"/>
<polygon fill="#191970" stroke="#191970" points="249.5137,-144.3873 239.0634,-142.6427 246.1448,-150.5233 249.5137,-144.3873"/>
</g>
<!-- Node35 -->
<g id="node33" class="node">
<title>Node35</title>
<polygon fill="#ffffff" stroke="#bfbfbf" points="261,-123.5 261,-142.5 318,-142.5 318,-123.5 261,-123.5"/>
<text text-anchor="middle" x="289.5" y="-130.5" font-family="Helvetica,sans-Serif" font-size="10.00" fill="#000000">QPixmap</text>
</g>
<!-- Node33&#45;&gt;Node35 -->
<g id="edge39" class="edge">
<title>Node33&#45;&gt;Node35</title>
<path fill="none" stroke="#191970" d="M317.5777,-179.2455C312.8973,-171.5367 306.2327,-160.5598 300.5711,-151.2348"/>
<polygon fill="#191970" stroke="#191970" points="303.5361,-149.3741 295.3545,-142.6427 297.5525,-153.007 303.5361,-149.3741"/>
</g>
<!-- Node36&#45;&gt;Node18 -->
<g id="edge55" class="edge">
<title>Node36&#45;&gt;Node18</title>
<path fill="none" stroke="#191970" d="M545.6797,-179.1248C548.0006,-164.3865 554.602,-136.8863 572.5,-123 657.0243,-57.4212 708.1284,-118.0645 810.5,-87 812.3625,-86.4348 814.2537,-85.7818 816.1398,-85.0701"/>
<polygon fill="#191970" stroke="#191970" points="817.5293,-88.2827 825.3718,-81.1591 814.7987,-81.8372 817.5293,-88.2827"/>
</g>
<!-- Node36&#45;&gt;Node19 -->
<g id="edge53" class="edge">
<title>Node36&#45;&gt;Node19</title>
<path fill="none" stroke="#191970" d="M567.3635,-179.3733C588.905,-170.3032 621.3838,-156.6279 645.4956,-146.4755"/>
<polygon fill="#191970" stroke="#191970" points="647.0767,-149.6075 654.9348,-142.5011 644.3603,-143.156 647.0767,-149.6075"/>
</g>
<!-- Node36&#45;&gt;Node37 -->
<g id="edge42" class="edge">
<title>Node36&#45;&gt;Node37</title>
<path fill="none" stroke="#191970" d="M534.3972,-179.2455C525.9972,-171.1352 513.8506,-159.4075 503.8916,-149.7919"/>
<polygon fill="#191970" stroke="#191970" points="506.1122,-147.0707 496.4871,-142.6427 501.25,-152.1066 506.1122,-147.0707"/>
</g>
<!-- Node126 -->
<g id="node41" class="node">
<title>Node126</title>
<polygon fill="#ffffff" stroke="#bfbfbf" points="582,-123.5 582,-142.5 633,-142.5 633,-123.5 582,-123.5"/>
<text text-anchor="middle" x="607.5" y="-130.5" font-family="Helvetica,sans-Serif" font-size="10.00" fill="#000000">QImage</text>
</g>
<!-- Node36&#45;&gt;Node126 -->
<g id="edge54" class="edge">
<title>Node36&#45;&gt;Node126</title>
<path fill="none" stroke="#191970" d="M555.4738,-179.2455C564.6882,-171.0549 578.0532,-159.1749 588.9297,-149.5069"/>
<polygon fill="#191970" stroke="#191970" points="591.5032,-151.9023 596.652,-142.6427 586.8526,-146.6704 591.5032,-151.9023"/>
</g>
<!-- Node127 -->
<g id="node42" class="node">
<title>Node127</title>
<polygon fill="#ffffff" stroke="#bfbfbf" points="375,-123.5 375,-142.5 430,-142.5 430,-123.5 375,-123.5"/>
<text text-anchor="middle" x="402.5" y="-130.5" font-family="Helvetica,sans-Serif" font-size="10.00" fill="#000000">QPainter</text>
</g>
<!-- Node36&#45;&gt;Node127 -->
<g id="edge56" class="edge">
<title>Node36&#45;&gt;Node127</title>
<path fill="none" stroke="#191970" d="M520.0893,-179.3733C496.8858,-170.2226 461.7962,-156.3844 435.9858,-146.2057"/>
<polygon fill="#191970" stroke="#191970" points="437.1789,-142.9139 426.5921,-142.5011 434.6108,-149.4258 437.1789,-142.9139"/>
</g>
<!-- Node37&#45;&gt;Node14 -->
<g id="edge52" class="edge">
<title>Node37&#45;&gt;Node14</title>
<path fill="none" stroke="#191970" d="M486.0475,-123.0706C485.8228,-107.4335 487.4055,-76.7202 501.5,-56 510.9444,-42.1159 526.1151,-31.516 540.101,-24.0107"/>
<polygon fill="#191970" stroke="#191970" points="541.6796,-27.1346 549.0485,-19.5221 538.5408,-20.8777 541.6796,-27.1346"/>
</g>
<!-- Node38 -->
<g id="node36" class="node">
<title>Node38</title>
<g id="a_node36"><a xlink:href="paymentrequestplus_8h.html" target="_top" xlink:title="paymentrequestplus.h">
<polygon fill="#ffffff" stroke="#ff0000" points="279,-62 279,-81 392,-81 392,-62 279,-62"/>
<text text-anchor="middle" x="335.5" y="-69" font-family="Helvetica,sans-Serif" font-size="10.00" fill="#000000">paymentrequestplus.h</text>
</a>
</g>
</g>
<!-- Node37&#45;&gt;Node38 -->
<g id="edge43" class="edge">
<title>Node37&#45;&gt;Node38</title>
<path fill="none" stroke="#191970" d="M462.9063,-123.3906C437.5304,-113.0554 396.9919,-96.5447 368.4707,-84.9284"/>
<polygon fill="#191970" stroke="#191970" points="369.5096,-81.5725 358.9281,-81.0419 366.8692,-88.0554 369.5096,-81.5725"/>
</g>
<!-- Node125 -->
<g id="node37" class="node">
<title>Node125</title>
<g id="a_node37"><a xlink:href="walletmodeltransaction_8h.html" target="_top" xlink:title="walletmodeltransaction.h">
<polygon fill="#ffffff" stroke="#000000" points="511,-62 511,-81 636,-81 636,-62 511,-62"/>
<text text-anchor="middle" x="573.5" y="-69" font-family="Helvetica,sans-Serif" font-size="10.00" fill="#000000">walletmodeltransaction.h</text>
</a>
</g>
</g>
<!-- Node37&#45;&gt;Node125 -->
<g id="edge45" class="edge">
<title>Node37&#45;&gt;Node125</title>
<path fill="none" stroke="#191970" d="M495.0313,-123.3906C507.0297,-113.5519 528.5831,-98.1167 546.1816,-86.6351"/>
<polygon fill="#191970" stroke="#191970" points="548.4028,-89.3698 554.9524,-81.0419 544.639,-83.4677 548.4028,-89.3698"/>
</g>
<!-- Node112 -->
<g id="node38" class="node">
<title>Node112</title>
<g id="a_node38"><a xlink:href="secure_8h.html" target="_top" xlink:title="support/allocators\l/secure.h">
<polygon fill="#ffffff" stroke="#ff0000" points="707.5,-56.5 707.5,-86.5 801.5,-86.5 801.5,-56.5 707.5,-56.5"/>
<text text-anchor="start" x="715.5" y="-74.5" font-family="Helvetica,sans-Serif" font-size="10.00" fill="#000000">support/allocators</text>
<text text-anchor="middle" x="754.5" y="-63.5" font-family="Helvetica,sans-Serif" font-size="10.00" fill="#000000">/secure.h</text>
</a>
</g>
</g>
<!-- Node37&#45;&gt;Node112 -->
<g id="edge48" class="edge">
<title>Node37&#45;&gt;Node112</title>
<path fill="none" stroke="#191970" d="M525.1381,-125.1917C567.5532,-116.477 637.594,-101.6651 697.5,-87 697.5996,-86.9756 697.6993,-86.9512 697.7991,-86.9267"/>
<polygon fill="#191970" stroke="#191970" points="698.428,-90.3777 707.2706,-84.5417 696.7186,-83.5896 698.428,-90.3777"/>
</g>
<!-- Node54 -->
<g id="node39" class="node">
<title>Node54</title>
<polygon fill="#ffffff" stroke="#bfbfbf" points="654,-62 654,-81 689,-81 689,-62 654,-62"/>
<text text-anchor="middle" x="671.5" y="-69" font-family="Helvetica,sans-Serif" font-size="10.00" fill="#000000">map</text>
</g>
<!-- Node37&#45;&gt;Node54 -->
<g id="edge50" class="edge">
<title>Node37&#45;&gt;Node54</title>
<path fill="none" stroke="#191970" d="M525.0507,-124.4999C557.5986,-116.6854 605.0659,-103.7759 644.5,-87 645.4947,-86.5768 646.4988,-86.1252 647.5048,-85.6521"/>
<polygon fill="#191970" stroke="#191970" points="649.1601,-88.7362 656.4042,-81.0048 645.9199,-82.5312 649.1601,-88.7362"/>
</g>
<!-- Node44 -->
<g id="node40" class="node">
<title>Node44</title>
<polygon fill="#ffffff" stroke="#bfbfbf" points="410.5,-62 410.5,-81 454.5,-81 454.5,-62 410.5,-62"/>
<text text-anchor="middle" x="432.5" y="-69" font-family="Helvetica,sans-Serif" font-size="10.00" fill="#000000">vector</text>
</g>
<!-- Node37&#45;&gt;Node44 -->
<g id="edge51" class="edge">
<title>Node37&#45;&gt;Node44</title>
<path fill="none" stroke="#191970" d="M478.0625,-123.3906C469.9469,-114.1478 457.4945,-99.966 447.6576,-88.7628"/>
<polygon fill="#191970" stroke="#191970" points="450.2846,-86.45 441.0565,-81.2449 445.0245,-91.0686 450.2846,-86.45"/>
</g>
<!-- Node38&#45;&gt;Node16 -->
<g id="edge44" class="edge">
<title>Node38&#45;&gt;Node16</title>
<path fill="none" stroke="#191970" d="M328.7813,-61.8906C322.507,-52.917 312.9777,-39.2879 305.2596,-28.2491"/>
<polygon fill="#191970" stroke="#191970" points="307.9121,-25.9348 299.3135,-19.7449 302.1753,-29.9459 307.9121,-25.9348"/>
</g>
<!-- Node125&#45;&gt;Node14 -->
<g id="edge47" class="edge">
<title>Node125&#45;&gt;Node14</title>
<path fill="none" stroke="#191970" d="M573.5,-61.8906C573.5,-53.3657 573.5,-40.6392 573.5,-29.9235"/>
<polygon fill="#191970" stroke="#191970" points="577.0001,-29.7448 573.5,-19.7449 570.0001,-29.7449 577.0001,-29.7448"/>
</g>
<!-- Node125&#45;&gt;Node37 -->
<g id="edge46" class="edge">
<title>Node125&#45;&gt;Node37</title>
<path fill="none" stroke="#191970" d="M564.8034,-81.2449C552.7883,-91.0768 531.391,-106.3968 513.8854,-117.8212"/>
<polygon fill="#191970" stroke="#191970" points="511.704,-115.0613 505.1563,-123.3906 515.4691,-120.9625 511.704,-115.0613"/>
</g>
<!-- Node112&#45;&gt;Node7 -->
<g id="edge49" class="edge">
<title>Node112&#45;&gt;Node7</title>
<path fill="none" stroke="#191970" d="M801.5139,-58.3259C804.5511,-57.5247 807.5663,-56.743 810.5,-56 870.2952,-40.8561 940.6843,-25.157 979.9911,-16.5797"/>
<polygon fill="#191970" stroke="#191970" points="980.9588,-19.9512 989.9866,-14.406 979.4712,-13.1111 980.9588,-19.9512"/>
</g>
<!-- Node128&#45;&gt;Node28 -->
<g id="edge59" class="edge">
<title>Node128&#45;&gt;Node28</title>
<path fill="none" stroke="#191970" d="M831.223,-179.3733C853.6737,-170.2629 887.5739,-156.5062 912.6255,-146.3404"/>
<polygon fill="#191970" stroke="#191970" points="914.1365,-149.5045 922.0865,-142.5011 911.5043,-143.0182 914.1365,-149.5045"/>
</g>
<!-- Node128&#45;&gt;Node29 -->
<g id="edge60" class="edge">
<title>Node128&#45;&gt;Node29</title>
<path fill="none" stroke="#191970" d="M813.074,-179.2455C817.4331,-171.617 823.6211,-160.7881 828.9133,-151.5267"/>
<polygon fill="#191970" stroke="#191970" points="832.0673,-153.0616 833.9899,-142.6427 825.9896,-149.5886 832.0673,-153.0616"/>
</g>
<!-- Node128&#45;&gt;Node37 -->
<g id="edge58" class="edge">
<title>Node128&#45;&gt;Node37</title>
<path fill="none" stroke="#191970" d="M752.6829,-179.4369C691.7017,-168.7984 594.0798,-151.7678 535.5387,-141.555"/>
<polygon fill="#191970" stroke="#191970" points="535.8858,-138.0628 525.433,-139.7921 534.6827,-144.9587 535.8858,-138.0628"/>
</g>
<!-- Node129 -->
<g id="node44" class="node">
<title>Node129</title>
<polygon fill="#ffffff" stroke="#bfbfbf" points="722,-123.5 722,-142.5 789,-142.5 789,-123.5 722,-123.5"/>
<text text-anchor="middle" x="755.5" y="-130.5" font-family="Helvetica,sans-Serif" font-size="10.00" fill="#000000">QDateTime</text>
</g>
<!-- Node128&#45;&gt;Node129 -->
<g id="edge61" class="edge">
<title>Node128&#45;&gt;Node129</title>
<path fill="none" stroke="#191970" d="M798.4423,-179.2455C790.9858,-171.2155 780.2366,-159.6394 771.3583,-150.0781"/>
<polygon fill="#191970" stroke="#191970" points="773.8232,-147.589 764.4539,-142.6427 768.6937,-152.3522 773.8232,-147.589"/>
</g>
</g>
</svg>
