<?xml version="1.0" encoding="UTF-8" standalone="no"?>
<!DOCTYPE svg PUBLIC "-//W3C//DTD SVG 1.1//EN"
 "http://www.w3.org/Graphics/SVG/1.1/DTD/svg11.dtd">
<!-- Generated by graphviz version 2.40.1 (20161225.0304)
 -->
<!-- Title: src/qt/reissueassetdialog.h Pages: 1 -->
<svg width="416pt" height="84pt"
 viewBox="0.00 0.00 415.50 84.00" xmlns="http://www.w3.org/2000/svg" xmlns:xlink="http://www.w3.org/1999/xlink">
<g id="graph0" class="graph" transform="scale(1 1) rotate(0) translate(4 80)">
<title>src/qt/reissueassetdialog.h</title>
<polygon fill="#ffffff" stroke="transparent" points="-4,4 -4,-80 411.5,-80 411.5,4 -4,4"/>
<!-- Node96 -->
<g id="node1" class="node">
<title>Node96</title>
<polygon fill="#bfbfbf" stroke="#000000" points="141,-56.5 141,-75.5 275,-75.5 275,-56.5 141,-56.5"/>
<text text-anchor="middle" x="208" y="-63.5" font-family="Helvetica,sans-Serif" font-size="10.00" fill="#000000">src/qt/reissueassetdialog.h</text>
</g>
<!-- Node97 -->
<g id="node2" class="node">
<title>Node97</title>
<g id="a_node2"><a xlink:href="assetsdialog_8cpp.html" target="_top" xlink:title="src/qt/assetsdialog.cpp">
<polygon fill="#ffffff" stroke="#000000" points="0,-.5 0,-19.5 118,-19.5 118,-.5 0,-.5"/>
<text text-anchor="middle" x="59" y="-7.5" font-family="Helvetica,sans-Serif" font-size="10.00" fill="#000000">src/qt/assetsdialog.cpp</text>
</a>
</g>
</g>
<!-- Node96&#45;&gt;Node97 -->
<g id="edge1" class="edge">
<title>Node96&#45;&gt;Node97</title>
<path fill="none" stroke="#191970" d="M172.8488,-52.7888C145.6432,-42.5639 108.6191,-28.6488 84.2798,-19.5011"/>
<polygon fill="#191970" stroke="#191970" points="171.7939,-56.1313 182.386,-56.3733 174.2566,-49.5788 171.7939,-56.1313"/>
</g>
<!-- Node98 -->
<g id="node3" class="node">
<title>Node98</title>
<g id="a_node3"><a xlink:href="reissueassetdialog_8cpp.html" target="_top" xlink:title="src/qt/reissueassetdialog.cpp">
<polygon fill="#ffffff" stroke="#000000" points="136,-.5 136,-19.5 280,-19.5 280,-.5 136,-.5"/>
<text text-anchor="middle" x="208" y="-7.5" font-family="Helvetica,sans-Serif" font-size="10.00" fill="#000000">src/qt/reissueassetdialog.cpp</text>
</a>
</g>
</g>
<!-- Node96&#45;&gt;Node98 -->
<g id="edge2" class="edge">
<title>Node96&#45;&gt;Node98</title>
<path fill="none" stroke="#191970" d="M208,-46.1575C208,-37.155 208,-26.9199 208,-19.6427"/>
<polygon fill="#191970" stroke="#191970" points="204.5001,-46.2455 208,-56.2455 211.5001,-46.2456 204.5001,-46.2455"/>
</g>
<!-- Node99 -->
<g id="node4" class="node">
<title>Node99</title>
<g id="a_node4"><a xlink:href="walletview_8cpp.html" target="_top" xlink:title="src/qt/walletview.cpp">
<polygon fill="#ffffff" stroke="#000000" points="298.5,-.5 298.5,-19.5 407.5,-19.5 407.5,-.5 298.5,-.5"/>
<text text-anchor="middle" x="353" y="-7.5" font-family="Helvetica,sans-Serif" font-size="10.00" fill="#000000">src/qt/walletview.cpp</text>
</a>
</g>
</g>
<!-- Node96&#45;&gt;Node99 -->
<g id="edge3" class="edge">
<title>Node96&#45;&gt;Node99</title>
<path fill="none" stroke="#191970" d="M242.5565,-52.6541C268.9986,-42.4419 304.8169,-28.6086 328.3989,-19.5011"/>
<polygon fill="#191970" stroke="#191970" points="240.9939,-49.5055 232.9264,-56.3733 243.5158,-56.0354 240.9939,-49.5055"/>
</g>
</g>
</svg>
