<?xml version="1.0" encoding="UTF-8" standalone="no"?>
<!DOCTYPE svg PUBLIC "-//W3C//DTD SVG 1.1//EN"
 "http://www.w3.org/Graphics/SVG/1.1/DTD/svg11.dtd">
<!-- Generated by graphviz version 2.40.1 (20161225.0304)
 -->
<!-- Title: InterruptREST Pages: 1 -->
<svg width="559pt" height="185pt"
 viewBox="0.00 0.00 559.00 185.34" xmlns="http://www.w3.org/2000/svg" xmlns:xlink="http://www.w3.org/1999/xlink">
<g id="graph0" class="graph" transform="scale(1 1) rotate(0) translate(4 181.336)">
<title>InterruptREST</title>
<polygon fill="#ffffff" stroke="transparent" points="-4,4 -4,-181.336 555,-181.336 555,4 -4,4"/>
<!-- Node7 -->
<g id="node1" class="node">
<title>Node7</title>
<polygon fill="#bfbfbf" stroke="#000000" points="0,-62.836 0,-81.836 80,-81.836 80,-62.836 0,-62.836"/>
<text text-anchor="middle" x="40" y="-69.836" font-family="Helvetica,sans-Serif" font-size="10.00" fill="#000000">InterruptREST</text>
</g>
<!-- Node8 -->
<g id="node2" class="node">
<title>Node8</title>
<g id="a_node2"><a xlink:href="init_8h.html#ae516465349aa26318144d70d08185b65" target="_top" xlink:title="Interrupt threads. ">
<polygon fill="#ffffff" stroke="#000000" points="116,-62.836 116,-81.836 169,-81.836 169,-62.836 116,-62.836"/>
<text text-anchor="middle" x="142.5" y="-69.836" font-family="Helvetica,sans-Serif" font-size="10.00" fill="#000000">Interrupt</text>
</a>
</g>
</g>
<!-- Node7&#45;&gt;Node8 -->
<g id="edge1" class="edge">
<title>Node7&#45;&gt;Node8</title>
<path fill="none" stroke="#191970" d="M90.4822,-72.336C99.2921,-72.336 108.1323,-72.336 115.961,-72.336"/>
<polygon fill="#191970" stroke="#191970" points="90.2166,-68.8361 80.2165,-72.336 90.2165,-75.8361 90.2166,-68.8361"/>
</g>
<!-- Node9 -->
<g id="node3" class="node">
<title>Node9</title>
<g id="a_node3"><a xlink:href="class_c_connman.html#a81d92308d700e305feae00a93567577d" target="_top" xlink:title="CConnman::Init">
<polygon fill="#ffffff" stroke="#000000" points="219,-138.836 219,-157.836 305,-157.836 305,-138.836 219,-138.836"/>
<text text-anchor="middle" x="262" y="-145.836" font-family="Helvetica,sans-Serif" font-size="10.00" fill="#000000">CConnman::Init</text>
</a>
</g>
</g>
<!-- Node8&#45;&gt;Node9 -->
<g id="edge2" class="edge">
<title>Node8&#45;&gt;Node9</title>
<path fill="none" stroke="#191970" d="M157.7604,-89.7074C169.5724,-102.2304 186.9206,-118.7289 205,-129.336 211.3879,-133.0837 218.6169,-136.2141 225.7291,-138.7813"/>
<polygon fill="#191970" stroke="#191970" points="160.1797,-87.1668 150.8457,-82.1541 155.0165,-91.8934 160.1797,-87.1668"/>
</g>
<!-- Node12 -->
<g id="node6" class="node">
<title>Node12</title>
<g id="a_node6"><a xlink:href="class_raven_core.html#ab35cedbe16324f62d058e964b03cac69" target="_top" xlink:title="RavenCore::restart">
<polygon fill="#ffffff" stroke="#000000" points="212,-100.836 212,-119.836 312,-119.836 312,-100.836 212,-100.836"/>
<text text-anchor="middle" x="262" y="-107.836" font-family="Helvetica,sans-Serif" font-size="10.00" fill="#000000">RavenCore::restart</text>
</a>
</g>
</g>
<!-- Node8&#45;&gt;Node12 -->
<g id="edge5" class="edge">
<title>Node8&#45;&gt;Node12</title>
<path fill="none" stroke="#191970" d="M178.6134,-83.8197C195.5893,-89.2179 215.6,-95.5812 231.7631,-100.7209"/>
<polygon fill="#191970" stroke="#191970" points="179.6114,-80.4645 169.0209,-80.7694 177.49,-87.1353 179.6114,-80.4645"/>
</g>
<!-- Node13 -->
<g id="node7" class="node">
<title>Node13</title>
<g id="a_node7"><a xlink:href="class_raven_core.html#a0b62b17932fa72d2ac40d4d81b2a432d" target="_top" xlink:title="RavenCore::shutdown">
<polygon fill="#ffffff" stroke="#000000" points="205,-62.836 205,-81.836 319,-81.836 319,-62.836 205,-62.836"/>
<text text-anchor="middle" x="262" y="-69.836" font-family="Helvetica,sans-Serif" font-size="10.00" fill="#000000">RavenCore::shutdown</text>
</a>
</g>
</g>
<!-- Node8&#45;&gt;Node13 -->
<g id="edge6" class="edge">
<title>Node8&#45;&gt;Node13</title>
<path fill="none" stroke="#191970" d="M179.2069,-72.336C187.2937,-72.336 196.0455,-72.336 204.7274,-72.336"/>
<polygon fill="#191970" stroke="#191970" points="179.021,-68.8361 169.0209,-72.336 179.0209,-75.8361 179.021,-68.8361"/>
</g>
<!-- Node14 -->
<g id="node8" class="node">
<title>Node14</title>
<g id="a_node8"><a xlink:href="ravend_8cpp.html#a6435fba5a749975164947d0d771223ab" target="_top" xlink:title="WaitForShutdown">
<polygon fill="#ffffff" stroke="#000000" points="214.5,-24.836 214.5,-43.836 309.5,-43.836 309.5,-24.836 214.5,-24.836"/>
<text text-anchor="middle" x="262" y="-31.836" font-family="Helvetica,sans-Serif" font-size="10.00" fill="#000000">WaitForShutdown</text>
</a>
</g>
</g>
<!-- Node8&#45;&gt;Node14 -->
<g id="edge7" class="edge">
<title>Node8&#45;&gt;Node14</title>
<path fill="none" stroke="#191970" d="M178.6134,-60.8522C195.5893,-55.454 215.6,-49.0908 231.7631,-43.9511"/>
<polygon fill="#191970" stroke="#191970" points="177.49,-57.5367 169.0209,-63.9026 179.6114,-64.2075 177.49,-57.5367"/>
</g>
<!-- Node15 -->
<g id="node9" class="node">
<title>Node15</title>
<g id="a_node9"><a xlink:href="ravend_8cpp.html#ac59316b767e6984e1285f0531275286b" target="_top" xlink:title="AppInit">
<polygon fill="#ffffff" stroke="#000000" points="392.5,-5.836 392.5,-24.836 439.5,-24.836 439.5,-5.836 392.5,-5.836"/>
<text text-anchor="middle" x="416" y="-12.836" font-family="Helvetica,sans-Serif" font-size="10.00" fill="#000000">AppInit</text>
</a>
</g>
</g>
<!-- Node8&#45;&gt;Node15 -->
<g id="edge10" class="edge">
<title>Node8&#45;&gt;Node15</title>
<path fill="none" stroke="#191970" d="M155.7438,-54.5595C167.0935,-40.9307 184.781,-23.1713 205,-15.336 268.8734,9.4163 352.0181,-1.993 392.1981,-9.9414"/>
<polygon fill="#191970" stroke="#191970" points="152.7032,-52.7612 149.2376,-62.7732 158.1904,-57.1076 152.7032,-52.7612"/>
</g>
<!-- Node10 -->
<g id="node4" class="node">
<title>Node10</title>
<g id="a_node4"><a xlink:href="class_c_connman.html#aec90325a2ae9f38f9d88b567deeac2e4" target="_top" xlink:title="CConnman::CConnman">
<polygon fill="#ffffff" stroke="#000000" points="355,-157.836 355,-176.836 477,-176.836 477,-157.836 355,-157.836"/>
<text text-anchor="middle" x="416" y="-164.836" font-family="Helvetica,sans-Serif" font-size="10.00" fill="#000000">CConnman::CConnman</text>
</a>
</g>
</g>
<!-- Node9&#45;&gt;Node10 -->
<g id="edge3" class="edge">
<title>Node9&#45;&gt;Node10</title>
<path fill="none" stroke="#191970" d="M315.3148,-154.9138C328.0889,-156.4898 341.8265,-158.1847 354.9217,-159.8004"/>
<polygon fill="#191970" stroke="#191970" points="315.6608,-151.43 305.3074,-153.6791 314.8036,-158.3773 315.6608,-151.43"/>
</g>
<!-- Node11 -->
<g id="node5" class="node">
<title>Node11</title>
<g id="a_node5"><a xlink:href="class_c_connman.html#aa4709e5604e0f4369dada0a211493565" target="_top" xlink:title="CConnman::Start">
<polygon fill="#ffffff" stroke="#000000" points="369.5,-119.836 369.5,-138.836 462.5,-138.836 462.5,-119.836 369.5,-119.836"/>
<text text-anchor="middle" x="416" y="-126.836" font-family="Helvetica,sans-Serif" font-size="10.00" fill="#000000">CConnman::Start</text>
</a>
</g>
</g>
<!-- Node9&#45;&gt;Node11 -->
<g id="edge4" class="edge">
<title>Node9&#45;&gt;Node11</title>
<path fill="none" stroke="#191970" d="M315.3872,-141.7493C332.9146,-139.5868 352.2493,-137.2013 369.2462,-135.1043"/>
<polygon fill="#191970" stroke="#191970" points="314.8036,-138.2946 305.3074,-142.9929 315.6608,-145.242 314.8036,-138.2946"/>
</g>
<!-- Node14&#45;&gt;Node15 -->
<g id="edge8" class="edge">
<title>Node14&#45;&gt;Node15</title>
<path fill="none" stroke="#191970" d="M320.049,-27.1741C345.1122,-24.0819 373.0316,-20.6373 392.2618,-18.2647"/>
<polygon fill="#191970" stroke="#191970" points="319.3785,-23.7302 309.8824,-28.4284 320.2357,-30.6775 319.3785,-23.7302"/>
</g>
<!-- Node16 -->
<g id="node10" class="node">
<title>Node16</title>
<g id="a_node10"><a xlink:href="ravend_8cpp.html#a0ddf1224851353fc92bfbff6f499fa97" target="_top" xlink:title="main">
<polygon fill="#ffffff" stroke="#000000" points="513,-5.836 513,-24.836 551,-24.836 551,-5.836 513,-5.836"/>
<text text-anchor="middle" x="532" y="-12.836" font-family="Helvetica,sans-Serif" font-size="10.00" fill="#000000">main</text>
</a>
</g>
</g>
<!-- Node15&#45;&gt;Node16 -->
<g id="edge9" class="edge">
<title>Node15&#45;&gt;Node16</title>
<path fill="none" stroke="#191970" d="M449.9601,-15.336C470.4585,-15.336 495.8244,-15.336 512.8785,-15.336"/>
<polygon fill="#191970" stroke="#191970" points="449.7543,-11.8361 439.7542,-15.336 449.7542,-18.8361 449.7543,-11.8361"/>
</g>
</g>
</svg>
