<?xml version="1.0" encoding="UTF-8" standalone="no"?>
<!DOCTYPE svg PUBLIC "-//W3C//DTD SVG 1.1//EN"
 "http://www.w3.org/Graphics/SVG/1.1/DTD/svg11.dtd">
<!-- Generated by graphviz version 2.40.1 (20161225.0304)
 -->
<!-- Title: src/rpc/messages.cpp Pages: 1 -->
<svg width="2531pt" height="431pt"
 viewBox="0.00 0.00 2531.00 431.00" xmlns="http://www.w3.org/2000/svg" xmlns:xlink="http://www.w3.org/1999/xlink">
<g id="graph0" class="graph" transform="scale(1 1) rotate(0) translate(4 427)">
<title>src/rpc/messages.cpp</title>
<polygon fill="#ffffff" stroke="transparent" points="-4,4 -4,-427 2527,-427 2527,4 -4,4"/>
<!-- Node0 -->
<g id="node1" class="node">
<title>Node0</title>
<polygon fill="#bfbfbf" stroke="#000000" points="1305.5,-403.5 1305.5,-422.5 1418.5,-422.5 1418.5,-403.5 1305.5,-403.5"/>
<text text-anchor="middle" x="1362" y="-410.5" font-family="Helvetica,sans-Serif" font-size="10.00" fill="#000000">src/rpc/messages.cpp</text>
</g>
<!-- Node1 -->
<g id="node2" class="node">
<title>Node1</title>
<g id="a_node2"><a xlink:href="assets_8h.html" target="_top" xlink:title="assets/assets.h">
<polygon fill="#ffffff" stroke="#000000" points="634,-235.5 634,-254.5 720,-254.5 720,-235.5 634,-235.5"/>
<text text-anchor="middle" x="677" y="-242.5" font-family="Helvetica,sans-Serif" font-size="10.00" fill="#000000">assets/assets.h</text>
</a>
</g>
</g>
<!-- Node0&#45;&gt;Node1 -->
<g id="edge1" class="edge">
<title>Node0&#45;&gt;Node1</title>
<path fill="none" stroke="#191970" d="M1305.3249,-412.0875C1159.671,-409.2907 780.4135,-398.9867 734,-367 699.4859,-343.214 685.3575,-292.9018 679.9895,-264.8878"/>
<polygon fill="#191970" stroke="#191970" points="683.383,-263.9687 678.2393,-254.7063 676.4841,-265.1547 683.383,-263.9687"/>
</g>
<!-- Node2 -->
<g id="node3" class="node">
<title>Node2</title>
<g id="a_node3"><a xlink:href="amount_8h.html" target="_top" xlink:title="amount.h">
<polygon fill="#ffffff" stroke="#000000" points="1274.5,-112.5 1274.5,-131.5 1331.5,-131.5 1331.5,-112.5 1274.5,-112.5"/>
<text text-anchor="middle" x="1303" y="-119.5" font-family="Helvetica,sans-Serif" font-size="10.00" fill="#000000">amount.h</text>
</a>
</g>
</g>
<!-- Node0&#45;&gt;Node2 -->
<g id="edge48" class="edge">
<title>Node0&#45;&gt;Node2</title>
<path fill="none" stroke="#191970" d="M1418.5689,-412.401C1550.3034,-410.4197 1868.8416,-402.0198 1901,-367 1954.2242,-309.0399 2057.9359,-366.3712 1795,-235 1668.9465,-172.0197 1609.8404,-253.7493 1480,-199 1459.9165,-190.5315 1461.1074,-178.4867 1442,-168 1432.9484,-163.0322 1379.3932,-145.8402 1341.4727,-133.9424"/>
<polygon fill="#191970" stroke="#191970" points="1342.3131,-130.538 1331.7242,-130.892 1340.2227,-137.2186 1342.3131,-130.538"/>
</g>
<!-- Node4 -->
<g id="node5" class="node">
<title>Node4</title>
<g id="a_node5"><a xlink:href="tinyformat_8h.html" target="_top" xlink:title="tinyformat.h">
<polygon fill="#ffffff" stroke="#000000" points="684,-174 684,-193 752,-193 752,-174 684,-174"/>
<text text-anchor="middle" x="718" y="-181" font-family="Helvetica,sans-Serif" font-size="10.00" fill="#000000">tinyformat.h</text>
</a>
</g>
</g>
<!-- Node0&#45;&gt;Node4 -->
<g id="edge47" class="edge">
<title>Node0&#45;&gt;Node4</title>
<path fill="none" stroke="#191970" d="M1305.3105,-410.1602C1206.0371,-404.6375 1004.9991,-390.852 939,-367 854.2561,-336.3736 835.0878,-317.3144 770,-255 753.2899,-239.0019 738.2315,-217.058 728.672,-201.7147"/>
<polygon fill="#191970" stroke="#191970" points="731.6424,-199.8629 723.4649,-193.1265 725.6566,-203.4922 731.6424,-199.8629"/>
</g>
<!-- Node31 -->
<g id="node18" class="node">
<title>Node31</title>
<polygon fill="#ffffff" stroke="#bfbfbf" points="96.5,-.5 96.5,-19.5 131.5,-19.5 131.5,-.5 96.5,-.5"/>
<text text-anchor="middle" x="114" y="-7.5" font-family="Helvetica,sans-Serif" font-size="10.00" fill="#000000">map</text>
</g>
<!-- Node0&#45;&gt;Node31 -->
<g id="edge46" class="edge">
<title>Node0&#45;&gt;Node31</title>
<path fill="none" stroke="#191970" d="M1305.247,-411.4412C1121.0762,-406.2201 541.2455,-388.4627 355,-367 195.5737,-348.6279 0,-461.4814 0,-301 0,-301 0,-301 0,-122 0,-73.5153 53.1201,-39.0353 86.839,-22.0326"/>
<polygon fill="#191970" stroke="#191970" points="88.7087,-25.0163 96.1875,-17.5117 85.6611,-18.7145 88.7087,-25.0163"/>
</g>
<!-- Node40 -->
<g id="node19" class="node">
<title>Node40</title>
<g id="a_node19"><a xlink:href="assetdb_8h.html" target="_top" xlink:title="assets/assetdb.h">
<polygon fill="#ffffff" stroke="#000000" points="371,-174 371,-193 463,-193 463,-174 371,-174"/>
<text text-anchor="middle" x="417" y="-181" font-family="Helvetica,sans-Serif" font-size="10.00" fill="#000000">assets/assetdb.h</text>
</a>
</g>
</g>
<!-- Node0&#45;&gt;Node40 -->
<g id="edge27" class="edge">
<title>Node0&#45;&gt;Node40</title>
<path fill="none" stroke="#191970" d="M1305.4007,-412.3294C1160.2671,-410.1289 777.7341,-401.165 656,-367 554.6455,-338.5546 464.9546,-241.4432 431.2183,-201.1952"/>
<polygon fill="#191970" stroke="#191970" points="433.7747,-198.7939 424.7133,-193.3037 428.3732,-203.2463 433.7747,-198.7939"/>
</g>
<!-- Node80 -->
<g id="node23" class="node">
<title>Node80</title>
<g id="a_node23"><a xlink:href="messages_8h.html" target="_top" xlink:title="assets/messages.h">
<polygon fill="#ffffff" stroke="#000000" points="1502,-112.5 1502,-131.5 1604,-131.5 1604,-112.5 1502,-112.5"/>
<text text-anchor="middle" x="1553" y="-119.5" font-family="Helvetica,sans-Serif" font-size="10.00" fill="#000000">assets/messages.h</text>
</a>
</g>
</g>
<!-- Node0&#45;&gt;Node80 -->
<g id="edge41" class="edge">
<title>Node0&#45;&gt;Node80</title>
<path fill="none" stroke="#191970" d="M1366.3243,-403.3292C1380.4515,-372.9425 1428.4313,-278.8098 1499,-235 1568.6839,-191.7395 1627.9664,-262.402 1680,-199 1705.2976,-168.1753 1653.6815,-146.4925 1608.8481,-134.1557"/>
<polygon fill="#191970" stroke="#191970" points="1609.6836,-130.7564 1599.1217,-131.591 1607.8989,-137.5251 1609.6836,-130.7564"/>
</g>
<!-- Node81 -->
<g id="node24" class="node">
<title>Node81</title>
<g id="a_node24"><a xlink:href="messagedb_8h.html" target="_top" xlink:title="assets/messagedb.h">
<polygon fill="#ffffff" stroke="#000000" points="558.5,-291.5 558.5,-310.5 665.5,-310.5 665.5,-291.5 558.5,-291.5"/>
<text text-anchor="middle" x="612" y="-298.5" font-family="Helvetica,sans-Serif" font-size="10.00" fill="#000000">assets/messagedb.h</text>
</a>
</g>
</g>
<!-- Node0&#45;&gt;Node81 -->
<g id="edge44" class="edge">
<title>Node0&#45;&gt;Node81</title>
<path fill="none" stroke="#191970" d="M1305.4732,-411.1243C1154.1116,-405.8207 747.2695,-389.6194 691,-367 665.0177,-356.5556 641.2461,-334.1716 626.7124,-318.3762"/>
<polygon fill="#191970" stroke="#191970" points="629.251,-315.9639 619.9915,-310.8149 624.0191,-320.6144 629.251,-315.9639"/>
</g>
<!-- Node82 -->
<g id="node25" class="node">
<title>Node82</title>
<g id="a_node25"><a xlink:href="base58_8h.html" target="_top" xlink:title="base58.h">
<polygon fill="#ffffff" stroke="#ff0000" points="2160,-235.5 2160,-254.5 2216,-254.5 2216,-235.5 2160,-235.5"/>
<text text-anchor="middle" x="2188" y="-242.5" font-family="Helvetica,sans-Serif" font-size="10.00" fill="#000000">base58.h</text>
</a>
</g>
</g>
<!-- Node0&#45;&gt;Node82 -->
<g id="edge49" class="edge">
<title>Node0&#45;&gt;Node82</title>
<path fill="none" stroke="#191970" d="M1418.8089,-412.3476C1553.1735,-410.2456 1887.1608,-401.5949 1993,-367 2064.4302,-343.6521 2136.2151,-288.706 2169.2352,-261.2331"/>
<polygon fill="#191970" stroke="#191970" points="2171.7469,-263.6932 2177.1308,-254.5683 2167.2316,-258.3441 2171.7469,-263.6932"/>
</g>
<!-- Node116 -->
<g id="node30" class="node">
<title>Node116</title>
<g id="a_node30"><a xlink:href="chain_8h.html" target="_top" xlink:title="chain.h">
<polygon fill="#ffffff" stroke="#ff0000" points="1508,-235.5 1508,-254.5 1556,-254.5 1556,-235.5 1508,-235.5"/>
<text text-anchor="middle" x="1532" y="-242.5" font-family="Helvetica,sans-Serif" font-size="10.00" fill="#000000">chain.h</text>
</a>
</g>
</g>
<!-- Node0&#45;&gt;Node116 -->
<g id="edge63" class="edge">
<title>Node0&#45;&gt;Node116</title>
<path fill="none" stroke="#191970" d="M1373.3847,-403.3759C1384.0747,-394.2352 1400.4119,-379.9967 1414,-367 1451.7162,-330.9253 1493.7272,-286.3697 1516.0363,-262.3366"/>
<polygon fill="#191970" stroke="#191970" points="1518.8436,-264.4561 1523.0663,-254.7392 1513.7057,-259.7019 1518.8436,-264.4561"/>
</g>
<!-- Node119 -->
<g id="node31" class="node">
<title>Node119</title>
<g id="a_node31"><a xlink:href="consensus_2validation_8h.html" target="_top" xlink:title="consensus/validation.h">
<polygon fill="#ffffff" stroke="#ff0000" points="135,-291.5 135,-310.5 251,-310.5 251,-291.5 135,-291.5"/>
<text text-anchor="middle" x="193" y="-298.5" font-family="Helvetica,sans-Serif" font-size="10.00" fill="#000000">consensus/validation.h</text>
</a>
</g>
</g>
<!-- Node0&#45;&gt;Node119 -->
<g id="edge66" class="edge">
<title>Node0&#45;&gt;Node119</title>
<path fill="none" stroke="#191970" d="M1305.2872,-411.6113C1133.0622,-407.1606 617.796,-392.0595 452,-367 372.8053,-355.03 282.6596,-329.197 232.3334,-313.637"/>
<polygon fill="#191970" stroke="#191970" points="233.1042,-310.2112 222.5156,-310.5752 231.0201,-316.8938 233.1042,-310.2112"/>
</g>
<!-- Node121 -->
<g id="node32" class="node">
<title>Node121</title>
<g id="a_node32"><a xlink:href="core__io_8h.html" target="_top" xlink:title="core_io.h">
<polygon fill="#ffffff" stroke="#ff0000" points="1306,-174 1306,-193 1362,-193 1362,-174 1306,-174"/>
<text text-anchor="middle" x="1334" y="-181" font-family="Helvetica,sans-Serif" font-size="10.00" fill="#000000">core_io.h</text>
</a>
</g>
</g>
<!-- Node0&#45;&gt;Node121 -->
<g id="edge68" class="edge">
<title>Node0&#45;&gt;Node121</title>
<path fill="none" stroke="#191970" d="M1313.4958,-403.4978C1277.2621,-395.2991 1232.1528,-382.3698 1221,-367 1215.7795,-359.8056 1218.353,-355.4856 1221,-347 1226.113,-330.609 1291.5864,-240.8667 1320.4675,-201.7448"/>
<polygon fill="#191970" stroke="#191970" points="1323.5251,-203.4966 1326.658,-193.3756 1317.8973,-199.3338 1323.5251,-203.4966"/>
</g>
<!-- Node122 -->
<g id="node33" class="node">
<title>Node122</title>
<g id="a_node33"><a xlink:href="httpserver_8h.html" target="_top" xlink:title="httpserver.h">
<polygon fill="#ffffff" stroke="#ff0000" points="1496,-56.5 1496,-75.5 1564,-75.5 1564,-56.5 1496,-56.5"/>
<text text-anchor="middle" x="1530" y="-63.5" font-family="Helvetica,sans-Serif" font-size="10.00" fill="#000000">httpserver.h</text>
</a>
</g>
</g>
<!-- Node0&#45;&gt;Node122 -->
<g id="edge71" class="edge">
<title>Node0&#45;&gt;Node122</title>
<path fill="none" stroke="#191970" d="M1364.0495,-403.2967C1367.0233,-390.1512 1373.1623,-366.1294 1382,-347 1408.4354,-289.7802 1414.9989,-267.5088 1469,-235 1524.0421,-201.8644 1569.6321,-249.7718 1609,-199 1661.9508,-130.7107 1532.6356,-185.8011 1493,-132 1481.3641,-116.2055 1495.8964,-96.3777 1510.0252,-82.5978"/>
<polygon fill="#191970" stroke="#191970" points="1512.6357,-84.9539 1517.6643,-75.6285 1507.9178,-79.7826 1512.6357,-84.9539"/>
</g>
<!-- Node124 -->
<g id="node34" class="node">
<title>Node124</title>
<polygon fill="#ffffff" stroke="#bfbfbf" points="1230,-347.5 1230,-366.5 1296,-366.5 1296,-347.5 1230,-347.5"/>
<text text-anchor="middle" x="1263" y="-354.5" font-family="Helvetica,sans-Serif" font-size="10.00" fill="#000000">validation.h</text>
</g>
<!-- Node0&#45;&gt;Node124 -->
<g id="edge74" class="edge">
<title>Node0&#45;&gt;Node124</title>
<path fill="none" stroke="#191970" d="M1344.7555,-403.2455C1329.4239,-394.5731 1306.7801,-381.7645 1289.2084,-371.825"/>
<polygon fill="#191970" stroke="#191970" points="1290.4741,-368.5198 1280.0469,-366.6427 1287.0276,-374.6126 1290.4741,-368.5198"/>
</g>
<!-- Node125 -->
<g id="node35" class="node">
<title>Node125</title>
<g id="a_node35"><a xlink:href="net_8h.html" target="_top" xlink:title="net.h">
<polygon fill="#ffffff" stroke="#ff0000" points="1986,-235.5 1986,-254.5 2024,-254.5 2024,-235.5 1986,-235.5"/>
<text text-anchor="middle" x="2005" y="-242.5" font-family="Helvetica,sans-Serif" font-size="10.00" fill="#000000">net.h</text>
</a>
</g>
</g>
<!-- Node0&#45;&gt;Node125 -->
<g id="edge75" class="edge">
<title>Node0&#45;&gt;Node125</title>
<path fill="none" stroke="#191970" d="M1418.6768,-412.399C1561.8902,-410.3701 1929.9266,-401.7917 1972,-367 2002.3177,-341.9294 2006.3552,-292.132 2006.0529,-264.5419"/>
<polygon fill="#191970" stroke="#191970" points="2009.5506,-264.4105 2005.7382,-254.5254 2002.554,-264.6304 2009.5506,-264.4105"/>
</g>
<!-- Node133 -->
<g id="node36" class="node">
<title>Node133</title>
<g id="a_node36"><a xlink:href="feerate_8h.html" target="_top" xlink:title="policy/feerate.h">
<polygon fill="#ffffff" stroke="#000000" points="1090.5,-174 1090.5,-193 1173.5,-193 1173.5,-174 1090.5,-174"/>
<text text-anchor="middle" x="1132" y="-181" font-family="Helvetica,sans-Serif" font-size="10.00" fill="#000000">policy/feerate.h</text>
</a>
</g>
</g>
<!-- Node0&#45;&gt;Node133 -->
<g id="edge83" class="edge">
<title>Node0&#45;&gt;Node133</title>
<path fill="none" stroke="#191970" d="M1305.4979,-403.8086C1259.1561,-395.3861 1198.0479,-381.9776 1178,-367 1126.7523,-328.7134 1126.8587,-242.464 1129.8409,-203.3981"/>
<polygon fill="#191970" stroke="#191970" points="1133.3391,-203.5766 1130.7615,-193.3001 1126.368,-202.941 1133.3391,-203.5766"/>
</g>
<!-- Node138 -->
<g id="node37" class="node">
<title>Node138</title>
<g id="a_node37"><a xlink:href="policy_2fees_8h.html" target="_top" xlink:title="policy/fees.h">
<polygon fill="#ffffff" stroke="#ff0000" points="814,-235.5 814,-254.5 886,-254.5 886,-235.5 814,-235.5"/>
<text text-anchor="middle" x="850" y="-242.5" font-family="Helvetica,sans-Serif" font-size="10.00" fill="#000000">policy/fees.h</text>
</a>
</g>
</g>
<!-- Node0&#45;&gt;Node138 -->
<g id="edge84" class="edge">
<title>Node0&#45;&gt;Node138</title>
<path fill="none" stroke="#191970" d="M1305.4676,-410.7767C1212.3349,-406.3751 1031.2512,-394.4888 974,-367 924.1021,-343.0418 882.0931,-290.855 862.2534,-263.1401"/>
<polygon fill="#191970" stroke="#191970" points="864.9919,-260.9485 856.3956,-254.7554 859.2536,-264.9575 864.9919,-260.9485"/>
</g>
<!-- Node140 -->
<g id="node38" class="node">
<title>Node140</title>
<g id="a_node38"><a xlink:href="policy_8h.html" target="_top" xlink:title="policy/policy.h">
<polygon fill="#ffffff" stroke="#ff0000" points="980.5,-235.5 980.5,-254.5 1059.5,-254.5 1059.5,-235.5 980.5,-235.5"/>
<text text-anchor="middle" x="1020" y="-242.5" font-family="Helvetica,sans-Serif" font-size="10.00" fill="#000000">policy/policy.h</text>
</a>
</g>
</g>
<!-- Node0&#45;&gt;Node140 -->
<g id="edge90" class="edge">
<title>Node0&#45;&gt;Node140</title>
<path fill="none" stroke="#191970" d="M1305.3727,-410.1237C1205.7661,-404.4807 1007.7276,-390.4256 987,-367 960.7269,-337.3072 987.9841,-288.7494 1006.2933,-262.7512"/>
<polygon fill="#191970" stroke="#191970" points="1009.2053,-264.6988 1012.294,-254.5641 1003.5594,-260.5607 1009.2053,-264.6988"/>
</g>
<!-- Node141 -->
<g id="node39" class="node">
<title>Node141</title>
<g id="a_node39"><a xlink:href="rbf_8h.html" target="_top" xlink:title="policy/rbf.h">
<polygon fill="#ffffff" stroke="#ff0000" points="1466.5,-347.5 1466.5,-366.5 1531.5,-366.5 1531.5,-347.5 1466.5,-347.5"/>
<text text-anchor="middle" x="1499" y="-354.5" font-family="Helvetica,sans-Serif" font-size="10.00" fill="#000000">policy/rbf.h</text>
</a>
</g>
</g>
<!-- Node0&#45;&gt;Node141 -->
<g id="edge94" class="edge">
<title>Node0&#45;&gt;Node141</title>
<path fill="none" stroke="#191970" d="M1385.5511,-403.3733C1407.8391,-394.2629 1441.4937,-380.5062 1466.3637,-370.3404"/>
<polygon fill="#191970" stroke="#191970" points="1467.8239,-373.5247 1475.7562,-366.5011 1465.1753,-367.0451 1467.8239,-373.5247"/>
</g>
<!-- Node155 -->
<g id="node40" class="node">
<title>Node155</title>
<g id="a_node40"><a xlink:href="mining_8h.html" target="_top" xlink:title="rpc/mining.h">
<polygon fill="#ffffff" stroke="#ff0000" points="1550,-347.5 1550,-366.5 1620,-366.5 1620,-347.5 1550,-347.5"/>
<text text-anchor="middle" x="1585" y="-354.5" font-family="Helvetica,sans-Serif" font-size="10.00" fill="#000000">rpc/mining.h</text>
</a>
</g>
</g>
<!-- Node0&#45;&gt;Node155 -->
<g id="edge95" class="edge">
<title>Node0&#45;&gt;Node155</title>
<path fill="none" stroke="#191970" d="M1400.0817,-403.4369C1438.8103,-393.7113 1498.8124,-378.6435 1539.8969,-368.3264"/>
<polygon fill="#191970" stroke="#191970" points="1540.8047,-371.7071 1549.651,-365.8769 1539.0997,-364.9179 1540.8047,-371.7071"/>
</g>
<!-- Node157 -->
<g id="node41" class="node">
<title>Node157</title>
<g id="a_node41"><a xlink:href="safemode_8h.html" target="_top" xlink:title="rpc/safemode.h">
<polygon fill="#ffffff" stroke="#000000" points="1638,-347.5 1638,-366.5 1722,-366.5 1722,-347.5 1638,-347.5"/>
<text text-anchor="middle" x="1680" y="-354.5" font-family="Helvetica,sans-Serif" font-size="10.00" fill="#000000">rpc/safemode.h</text>
</a>
</g>
</g>
<!-- Node0&#45;&gt;Node157 -->
<g id="edge96" class="edge">
<title>Node0&#45;&gt;Node157</title>
<path fill="none" stroke="#191970" d="M1418.5813,-403.6401C1470.454,-394.9711 1549.6632,-381.5133 1627.9519,-367.1627"/>
<polygon fill="#191970" stroke="#191970" points="1628.7878,-370.5677 1637.9898,-365.3168 1627.5217,-363.6832 1628.7878,-370.5677"/>
</g>
<!-- Node158 -->
<g id="node42" class="node">
<title>Node158</title>
<g id="a_node42"><a xlink:href="server_8h.html" target="_top" xlink:title="rpc/server.h">
<polygon fill="#ffffff" stroke="#ff0000" points="1532,-174 1532,-193 1600,-193 1600,-174 1532,-174"/>
<text text-anchor="middle" x="1566" y="-181" font-family="Helvetica,sans-Serif" font-size="10.00" fill="#000000">rpc/server.h</text>
</a>
</g>
</g>
<!-- Node0&#45;&gt;Node158 -->
<g id="edge97" class="edge">
<title>Node0&#45;&gt;Node158</title>
<path fill="none" stroke="#191970" d="M1418.8854,-409.9874C1517.273,-404.1907 1710.7018,-389.9857 1731,-367 1759.8855,-334.29 1638.3152,-237.44 1587.4515,-199.2433"/>
<polygon fill="#191970" stroke="#191970" points="1589.4867,-196.395 1579.3767,-193.2268 1585.3043,-202.0082 1589.4867,-196.395"/>
</g>
<!-- Node160 -->
<g id="node43" class="node">
<title>Node160</title>
<g id="a_node43"><a xlink:href="sign_8h.html" target="_top" xlink:title="script/sign.h">
<polygon fill="#ffffff" stroke="#ff0000" points="1344,-235.5 1344,-254.5 1414,-254.5 1414,-235.5 1344,-235.5"/>
<text text-anchor="middle" x="1379" y="-242.5" font-family="Helvetica,sans-Serif" font-size="10.00" fill="#000000">script/sign.h</text>
</a>
</g>
</g>
<!-- Node0&#45;&gt;Node160 -->
<g id="edge104" class="edge">
<title>Node0&#45;&gt;Node160</title>
<path fill="none" stroke="#191970" d="M1358.1376,-403.3228C1354.6962,-394.1446 1349.9167,-379.8807 1348,-367 1343.0285,-333.5901 1338.1309,-323.3039 1348,-291 1351.1409,-280.7192 1357.4366,-270.6582 1363.5388,-262.5799"/>
<polygon fill="#191970" stroke="#191970" points="1366.363,-264.6535 1369.9259,-254.6757 1360.9184,-260.2539 1366.363,-264.6535"/>
</g>
<!-- Node130 -->
<g id="node44" class="node">
<title>Node130</title>
<g id="a_node44"><a xlink:href="timedata_8h.html" target="_top" xlink:title="timedata.h">
<polygon fill="#ffffff" stroke="#ff0000" points="1658,-56.5 1658,-75.5 1720,-75.5 1720,-56.5 1658,-56.5"/>
<text text-anchor="middle" x="1689" y="-63.5" font-family="Helvetica,sans-Serif" font-size="10.00" fill="#000000">timedata.h</text>
</a>
</g>
</g>
<!-- Node0&#45;&gt;Node130 -->
<g id="edge105" class="edge">
<title>Node0&#45;&gt;Node130</title>
<path fill="none" stroke="#191970" d="M1418.5778,-410.7408C1527.7005,-405.8271 1758.7636,-392.5072 1784,-367 1865.2307,-284.8975 1748.3115,-133.9579 1704.4579,-83.1813"/>
<polygon fill="#191970" stroke="#191970" points="1707.0862,-80.87 1697.86,-75.6615 1701.8244,-85.4867 1707.0862,-80.87"/>
</g>
<!-- Node161 -->
<g id="node45" class="node">
<title>Node161</title>
<polygon fill="#ffffff" stroke="#bfbfbf" points="1854,-347.5 1854,-366.5 1892,-366.5 1892,-347.5 1854,-347.5"/>
<text text-anchor="middle" x="1873" y="-354.5" font-family="Helvetica,sans-Serif" font-size="10.00" fill="#000000">util.h</text>
</g>
<!-- Node0&#45;&gt;Node161 -->
<g id="edge108" class="edge">
<title>Node0&#45;&gt;Node161</title>
<path fill="none" stroke="#191970" d="M1418.8184,-411.1723C1508.9059,-407.4614 1689.7145,-396.6964 1840,-367 1841.2884,-366.7454 1842.5982,-366.461 1843.9165,-366.1538"/>
<polygon fill="#191970" stroke="#191970" points="1845.2104,-369.431 1853.9677,-363.4678 1843.4031,-362.6683 1845.2104,-369.431"/>
</g>
<!-- Node162 -->
<g id="node46" class="node">
<title>Node162</title>
<g id="a_node46"><a xlink:href="utilmoneystr_8h.html" target="_top" xlink:title="utilmoneystr.h">
<polygon fill="#ffffff" stroke="#000000" points="1881,-174 1881,-193 1959,-193 1959,-174 1881,-174"/>
<text text-anchor="middle" x="1920" y="-181" font-family="Helvetica,sans-Serif" font-size="10.00" fill="#000000">utilmoneystr.h</text>
</a>
</g>
</g>
<!-- Node0&#45;&gt;Node162 -->
<g id="edge109" class="edge">
<title>Node0&#45;&gt;Node162</title>
<path fill="none" stroke="#191970" d="M1418.74,-410.4962C1559.8717,-403.995 1916.6762,-385.7729 1934,-367 1976.1862,-321.285 1946.1071,-238.9681 1929.2817,-202.1645"/>
<polygon fill="#191970" stroke="#191970" points="1932.4094,-200.5916 1924.9586,-193.0592 1926.086,-203.5939 1932.4094,-200.5916"/>
</g>
<!-- Node163 -->
<g id="node47" class="node">
<title>Node163</title>
<g id="a_node47"><a xlink:href="coincontrol_8h.html" target="_top" xlink:title="wallet/coincontrol.h">
<polygon fill="#ffffff" stroke="#ff0000" points="996.5,-347.5 996.5,-366.5 1097.5,-366.5 1097.5,-347.5 996.5,-347.5"/>
<text text-anchor="middle" x="1047" y="-354.5" font-family="Helvetica,sans-Serif" font-size="10.00" fill="#000000">wallet/coincontrol.h</text>
</a>
</g>
</g>
<!-- Node0&#45;&gt;Node163 -->
<g id="edge113" class="edge">
<title>Node0&#45;&gt;Node163</title>
<path fill="none" stroke="#191970" d="M1308.2075,-403.4369C1252.5932,-393.5499 1165.9232,-378.1419 1107.8436,-367.8166"/>
<polygon fill="#191970" stroke="#191970" points="1108.1624,-364.3185 1097.7041,-366.0141 1106.9371,-371.2105 1108.1624,-364.3185"/>
</g>
<!-- Node164 -->
<g id="node48" class="node">
<title>Node164</title>
<g id="a_node48"><a xlink:href="wallet_8h.html" target="_top" xlink:title="wallet/wallet.h">
<polygon fill="#ffffff" stroke="#ff0000" points="1154.5,-291.5 1154.5,-310.5 1233.5,-310.5 1233.5,-291.5 1154.5,-291.5"/>
<text text-anchor="middle" x="1194" y="-298.5" font-family="Helvetica,sans-Serif" font-size="10.00" fill="#000000">wallet/wallet.h</text>
</a>
</g>
</g>
<!-- Node0&#45;&gt;Node164 -->
<g id="edge135" class="edge">
<title>Node0&#45;&gt;Node164</title>
<path fill="none" stroke="#191970" d="M1305.4605,-405.566C1260.3436,-398.3373 1202.3925,-385.6918 1188,-367 1177.8328,-353.7957 1181.0915,-334.405 1185.8382,-320.0554"/>
<polygon fill="#191970" stroke="#191970" points="1189.1283,-321.2499 1189.3868,-310.6582 1182.5797,-318.7769 1189.1283,-321.2499"/>
</g>
<!-- Node171 -->
<g id="node49" class="node">
<title>Node171</title>
<g id="a_node49"><a xlink:href="walletdb_8h.html" target="_top" xlink:title="wallet/walletdb.h">
<polygon fill="#ffffff" stroke="#ff0000" points="1697.5,-235.5 1697.5,-254.5 1786.5,-254.5 1786.5,-235.5 1697.5,-235.5"/>
<text text-anchor="middle" x="1742" y="-242.5" font-family="Helvetica,sans-Serif" font-size="10.00" fill="#000000">wallet/walletdb.h</text>
</a>
</g>
</g>
<!-- Node0&#45;&gt;Node171 -->
<g id="edge136" class="edge">
<title>Node0&#45;&gt;Node171</title>
<path fill="none" stroke="#191970" d="M1418.5465,-410.6283C1523.8454,-405.6283 1741.4074,-392.3253 1764,-367 1789.7757,-338.1066 1768.4581,-289.5712 1753.5078,-263.2706"/>
<polygon fill="#191970" stroke="#191970" points="1756.5082,-261.4685 1748.3869,-254.6645 1750.4926,-265.048 1756.5082,-261.4685"/>
</g>
<!-- Node176 -->
<g id="node50" class="node">
<title>Node176</title>
<g id="a_node50"><a xlink:href="feebumper_8h.html" target="_top" xlink:title="wallet/feebumper.h">
<polygon fill="#ffffff" stroke="#ff0000" points="2062.5,-347.5 2062.5,-366.5 2161.5,-366.5 2161.5,-347.5 2062.5,-347.5"/>
<text text-anchor="middle" x="2112" y="-354.5" font-family="Helvetica,sans-Serif" font-size="10.00" fill="#000000">wallet/feebumper.h</text>
</a>
</g>
</g>
<!-- Node0&#45;&gt;Node176 -->
<g id="edge134" class="edge">
<title>Node0&#45;&gt;Node176</title>
<path fill="none" stroke="#191970" d="M1418.6179,-410.8919C1536.1769,-406.1434 1815.1878,-392.9431 2048,-367 2049.4669,-366.8365 2050.9517,-366.6635 2052.4486,-366.4824"/>
<polygon fill="#191970" stroke="#191970" points="2052.9777,-369.9432 2062.4436,-365.1842 2052.076,-363.0015 2052.9777,-369.9432"/>
</g>
<!-- Node1&#45;&gt;Node2 -->
<g id="edge2" class="edge">
<title>Node1&#45;&gt;Node2</title>
<path fill="none" stroke="#191970" d="M720.0787,-241.6338C773.1967,-236.5508 865.6891,-224.6398 941,-199 969.0409,-189.4534 971.8565,-177.2398 1000,-168 1091.611,-137.9233 1205.3576,-127.3776 1263.9931,-123.783"/>
<polygon fill="#191970" stroke="#191970" points="1264.5006,-127.2596 1274.2825,-123.1895 1264.0975,-120.2712 1264.5006,-127.2596"/>
</g>
<!-- Node1&#45;&gt;Node4 -->
<g id="edge4" class="edge">
<title>Node1&#45;&gt;Node4</title>
<path fill="none" stroke="#191970" d="M683.4063,-235.3906C689.3886,-226.417 698.4747,-212.7879 705.8339,-201.7491"/>
<polygon fill="#191970" stroke="#191970" points="708.8686,-203.5068 711.5034,-193.2449 703.0442,-199.6239 708.8686,-203.5068"/>
</g>
<!-- Node10 -->
<g id="node11" class="node">
<title>Node10</title>
<g id="a_node11"><a xlink:href="assettypes_8h.html" target="_top" xlink:title="assettypes.h">
<polygon fill="#ffffff" stroke="#ff0000" points="808.5,-174 808.5,-193 881.5,-193 881.5,-174 808.5,-174"/>
<text text-anchor="middle" x="845" y="-181" font-family="Helvetica,sans-Serif" font-size="10.00" fill="#000000">assettypes.h</text>
</a>
</g>
</g>
<!-- Node1&#45;&gt;Node10 -->
<g id="edge10" class="edge">
<title>Node1&#45;&gt;Node10</title>
<path fill="none" stroke="#191970" d="M703.25,-235.3906C731.7293,-224.9652 777.3743,-208.2559 809.1457,-196.6252"/>
<polygon fill="#191970" stroke="#191970" points="810.7469,-199.7663 818.9343,-193.0419 808.3406,-193.1929 810.7469,-199.7663"/>
</g>
<!-- Node11 -->
<g id="node12" class="node">
<title>Node11</title>
<polygon fill="#ffffff" stroke="#bfbfbf" points="1025.5,-.5 1025.5,-19.5 1066.5,-19.5 1066.5,-.5 1025.5,-.5"/>
<text text-anchor="middle" x="1046" y="-7.5" font-family="Helvetica,sans-Serif" font-size="10.00" fill="#000000">string</text>
</g>
<!-- Node1&#45;&gt;Node11 -->
<g id="edge22" class="edge">
<title>Node1&#45;&gt;Node11</title>
<path fill="none" stroke="#191970" d="M633.9229,-241.8058C551.8329,-235.2797 379.5536,-219.3032 362,-199 323.8186,-154.838 342.7255,-106.1255 417,-56 466.8913,-22.3299 895.1256,-12.5634 1014.9567,-10.4779"/>
<polygon fill="#191970" stroke="#191970" points="1015.3173,-13.9724 1025.2569,-10.3045 1015.1994,-6.9734 1015.3173,-13.9724"/>
</g>
<!-- Node12 -->
<g id="node13" class="node">
<title>Node12</title>
<polygon fill="#ffffff" stroke="#bfbfbf" points="1036.5,-112.5 1036.5,-131.5 1065.5,-131.5 1065.5,-112.5 1036.5,-112.5"/>
<text text-anchor="middle" x="1051" y="-119.5" font-family="Helvetica,sans-Serif" font-size="10.00" fill="#000000">list</text>
</g>
<!-- Node1&#45;&gt;Node12 -->
<g id="edge26" class="edge">
<title>Node1&#45;&gt;Node12</title>
<path fill="none" stroke="#191970" d="M720.2311,-238.7057C763.8396,-231.6539 832.7236,-218.5802 890,-199 940.7931,-181.6361 996.5752,-152.5084 1027.3302,-135.4921"/>
<polygon fill="#191970" stroke="#191970" points="1029.3771,-138.3576 1036.3982,-130.4232 1025.9616,-132.2475 1029.3771,-138.3576"/>
</g>
<!-- Node13 -->
<g id="node14" class="node">
<title>Node13</title>
<polygon fill="#ffffff" stroke="#bfbfbf" points="534.5,-112.5 534.5,-131.5 617.5,-131.5 617.5,-112.5 534.5,-112.5"/>
<text text-anchor="middle" x="576" y="-119.5" font-family="Helvetica,sans-Serif" font-size="10.00" fill="#000000">unordered_map</text>
</g>
<!-- Node1&#45;&gt;Node13 -->
<g id="edge25" class="edge">
<title>Node1&#45;&gt;Node13</title>
<path fill="none" stroke="#191970" d="M669.0747,-235.3484C652.1118,-214.6906 612.0777,-165.9362 590.4555,-139.6042"/>
<polygon fill="#191970" stroke="#191970" points="592.9395,-137.114 583.8885,-131.6068 587.5296,-141.5563 592.9395,-137.114"/>
</g>
<!-- Node33 -->
<g id="node17" class="node">
<title>Node33</title>
<polygon fill="#ffffff" stroke="#bfbfbf" points="213,-.5 213,-19.5 243,-19.5 243,-.5 213,-.5"/>
<text text-anchor="middle" x="228" y="-7.5" font-family="Helvetica,sans-Serif" font-size="10.00" fill="#000000">set</text>
</g>
<!-- Node1&#45;&gt;Node33 -->
<g id="edge23" class="edge">
<title>Node1&#45;&gt;Node33</title>
<path fill="none" stroke="#191970" d="M633.9629,-243.6807C554.4397,-240.5106 388.2775,-230.2455 341,-199 278.321,-157.5757 245.2827,-68.3709 233.3144,-29.1569"/>
<polygon fill="#191970" stroke="#191970" points="236.6574,-28.1184 230.4903,-19.5034 229.939,-30.0839 236.6574,-28.1184"/>
</g>
<!-- Node1&#45;&gt;Node31 -->
<g id="edge24" class="edge">
<title>Node1&#45;&gt;Node31</title>
<path fill="none" stroke="#191970" d="M633.97,-243.3808C563.679,-239.923 420.3003,-229.4583 303,-199 226.3919,-179.1079 199.5359,-181.7778 138,-132 114.6151,-113.0834 108.8341,-104.7515 100,-76 95.2224,-60.4506 99.7483,-42.3489 104.8897,-29.04"/>
<polygon fill="#191970" stroke="#191970" points="108.2423,-30.1035 108.9791,-19.5343 101.8121,-27.3372 108.2423,-30.1035"/>
</g>
<!-- Node3 -->
<g id="node4" class="node">
<title>Node3</title>
<polygon fill="#ffffff" stroke="#bfbfbf" points="1664.5,-.5 1664.5,-19.5 1713.5,-19.5 1713.5,-.5 1664.5,-.5"/>
<text text-anchor="middle" x="1689" y="-7.5" font-family="Helvetica,sans-Serif" font-size="10.00" fill="#000000">stdint.h</text>
</g>
<!-- Node2&#45;&gt;Node3 -->
<g id="edge3" class="edge">
<title>Node2&#45;&gt;Node3</title>
<path fill="none" stroke="#191970" d="M1331.7127,-113.737C1360.4587,-105.2076 1405.7898,-91.0562 1444,-76 1463.6097,-68.2731 1467.0576,-62.8225 1487,-56 1544.2895,-36.4007 1613.5843,-22.6862 1654.3209,-15.5924"/>
<polygon fill="#191970" stroke="#191970" points="1655.0152,-19.0246 1664.2832,-13.8908 1653.8366,-12.1245 1655.0152,-19.0246"/>
</g>
<!-- Node5 -->
<g id="node6" class="node">
<title>Node5</title>
<polygon fill="#ffffff" stroke="#bfbfbf" points="1258,-.5 1258,-19.5 1314,-19.5 1314,-.5 1258,-.5"/>
<text text-anchor="middle" x="1286" y="-7.5" font-family="Helvetica,sans-Serif" font-size="10.00" fill="#000000">algorithm</text>
</g>
<!-- Node4&#45;&gt;Node5 -->
<g id="edge5" class="edge">
<title>Node4&#45;&gt;Node5</title>
<path fill="none" stroke="#191970" d="M731.5723,-173.9401C753.8295,-158.6872 799.9279,-128.8519 843,-112 986.7249,-55.7676 1169.3672,-25.9267 1247.6063,-14.9696"/>
<polygon fill="#191970" stroke="#191970" points="1248.5088,-18.3785 1257.9384,-13.5481 1247.5546,-11.4438 1248.5088,-18.3785"/>
</g>
<!-- Node6 -->
<g id="node7" class="node">
<title>Node6</title>
<polygon fill="#ffffff" stroke="#bfbfbf" points="708.5,-112.5 708.5,-131.5 757.5,-131.5 757.5,-112.5 708.5,-112.5"/>
<text text-anchor="middle" x="733" y="-119.5" font-family="Helvetica,sans-Serif" font-size="10.00" fill="#000000">cassert</text>
</g>
<!-- Node4&#45;&gt;Node6 -->
<g id="edge6" class="edge">
<title>Node4&#45;&gt;Node6</title>
<path fill="none" stroke="#191970" d="M720.3438,-173.8906C722.4449,-165.276 725.5925,-152.3708 728.223,-141.5858"/>
<polygon fill="#191970" stroke="#191970" points="731.6539,-142.2894 730.6232,-131.7449 724.8532,-140.6307 731.6539,-142.2894"/>
</g>
<!-- Node7 -->
<g id="node8" class="node">
<title>Node7</title>
<polygon fill="#ffffff" stroke="#bfbfbf" points="636,-112.5 636,-131.5 690,-131.5 690,-112.5 636,-112.5"/>
<text text-anchor="middle" x="663" y="-119.5" font-family="Helvetica,sans-Serif" font-size="10.00" fill="#000000">iostream</text>
</g>
<!-- Node4&#45;&gt;Node7 -->
<g id="edge7" class="edge">
<title>Node4&#45;&gt;Node7</title>
<path fill="none" stroke="#191970" d="M709.4063,-173.8906C701.1403,-164.6478 688.4574,-150.466 678.4383,-139.2628"/>
<polygon fill="#191970" stroke="#191970" points="680.99,-136.8657 671.7149,-131.7449 675.7722,-141.5321 680.99,-136.8657"/>
</g>
<!-- Node8 -->
<g id="node9" class="node">
<title>Node8</title>
<polygon fill="#ffffff" stroke="#bfbfbf" points="852,-112.5 852,-131.5 904,-131.5 904,-112.5 852,-112.5"/>
<text text-anchor="middle" x="878" y="-119.5" font-family="Helvetica,sans-Serif" font-size="10.00" fill="#000000">sstream</text>
</g>
<!-- Node4&#45;&gt;Node8 -->
<g id="edge8" class="edge">
<title>Node4&#45;&gt;Node8</title>
<path fill="none" stroke="#191970" d="M743,-173.8906C770.0058,-163.5103 813.2185,-146.9004 843.4594,-135.2766"/>
<polygon fill="#191970" stroke="#191970" points="845.0971,-138.3968 853.1756,-131.5419 842.5856,-131.8628 845.0971,-138.3968"/>
</g>
<!-- Node9 -->
<g id="node10" class="node">
<title>Node9</title>
<polygon fill="#ffffff" stroke="#bfbfbf" points="2204.5,-.5 2204.5,-19.5 2263.5,-19.5 2263.5,-.5 2204.5,-.5"/>
<text text-anchor="middle" x="2234" y="-7.5" font-family="Helvetica,sans-Serif" font-size="10.00" fill="#000000">stdexcept</text>
</g>
<!-- Node4&#45;&gt;Node9 -->
<g id="edge9" class="edge">
<title>Node4&#45;&gt;Node9</title>
<path fill="none" stroke="#191970" d="M752.1188,-175.8335C766.5145,-172.8957 783.4998,-169.8161 799,-168 1158.671,-125.8586 1255.1143,-187.2901 1613,-132 1741.7075,-112.1159 1768.331,-81.722 1896,-56 2002.9623,-34.4499 2131.0362,-20.0925 2194.4307,-13.7369"/>
<polygon fill="#191970" stroke="#191970" points="2194.7954,-17.218 2204.4021,-12.7499 2194.1059,-10.252 2194.7954,-17.218"/>
</g>
<!-- Node10&#45;&gt;Node2 -->
<g id="edge15" class="edge">
<title>Node10&#45;&gt;Node2</title>
<path fill="none" stroke="#191970" d="M881.7059,-178.5712C966.8663,-167.1359 1177.2388,-138.8871 1264.3089,-127.1954"/>
<polygon fill="#191970" stroke="#191970" points="1264.854,-130.6537 1274.2993,-125.8539 1263.9224,-123.716 1264.854,-130.6537"/>
</g>
<!-- Node10&#45;&gt;Node8 -->
<g id="edge12" class="edge">
<title>Node10&#45;&gt;Node8</title>
<path fill="none" stroke="#191970" d="M850.1563,-173.8906C854.9232,-165.0068 862.1385,-151.5601 868.0297,-140.5811"/>
<polygon fill="#191970" stroke="#191970" points="871.1269,-142.2114 872.7711,-131.7449 864.9588,-138.9016 871.1269,-142.2114"/>
</g>
<!-- Node10&#45;&gt;Node11 -->
<g id="edge11" class="edge">
<title>Node10&#45;&gt;Node11</title>
<path fill="none" stroke="#191970" d="M861.344,-173.844C876.1458,-164.5114 897.886,-149.2761 913,-132 938.5537,-102.7908 927.9822,-82.8547 956,-56 973.0447,-39.6629 997.0334,-27.792 1015.9587,-20.2055"/>
<polygon fill="#191970" stroke="#191970" points="1017.2362,-23.4642 1025.3303,-16.6278 1014.7396,-16.9246 1017.2362,-23.4642"/>
</g>
<!-- Node10&#45;&gt;Node12 -->
<g id="edge13" class="edge">
<title>Node10&#45;&gt;Node12</title>
<path fill="none" stroke="#191970" d="M877.1875,-173.8906C918.3845,-161.5915 988.8751,-140.547 1026.1708,-129.4126"/>
<polygon fill="#191970" stroke="#191970" points="1027.6041,-132.6374 1036.185,-126.4229 1025.6016,-125.9299 1027.6041,-132.6374"/>
</g>
<!-- Node10&#45;&gt;Node13 -->
<g id="edge14" class="edge">
<title>Node10&#45;&gt;Node13</title>
<path fill="none" stroke="#191970" d="M808.4415,-175.1418C761.7475,-164.4664 680.6559,-145.9269 627.6626,-133.8113"/>
<polygon fill="#191970" stroke="#191970" points="628.3119,-130.3695 617.7833,-131.5527 626.7517,-137.1935 628.3119,-130.3695"/>
</g>
<!-- Node14 -->
<g id="node15" class="node">
<title>Node14</title>
<g id="a_node15"><a xlink:href="standard_8h.html" target="_top" xlink:title="script/standard.h">
<polygon fill="#ffffff" stroke="#ff0000" points="1888.5,-112.5 1888.5,-131.5 1977.5,-131.5 1977.5,-112.5 1888.5,-112.5"/>
<text text-anchor="middle" x="1933" y="-119.5" font-family="Helvetica,sans-Serif" font-size="10.00" fill="#000000">script/standard.h</text>
</a>
</g>
</g>
<!-- Node10&#45;&gt;Node14 -->
<g id="edge16" class="edge">
<title>Node10&#45;&gt;Node14</title>
<path fill="none" stroke="#191970" d="M881.7821,-180.9511C928.2015,-177.765 1010.502,-172.2181 1081,-168 1381.8363,-150.0003 1742.6215,-131.5572 1878.065,-124.7438"/>
<polygon fill="#191970" stroke="#191970" points="1878.3752,-128.2327 1888.1869,-124.2352 1878.0238,-121.2416 1878.3752,-128.2327"/>
</g>
<!-- Node14&#45;&gt;Node3 -->
<g id="edge21" class="edge">
<title>Node14&#45;&gt;Node3</title>
<path fill="none" stroke="#191970" d="M1912.1967,-112.4509C1868.9794,-92.6135 1769.3366,-46.8758 1719.1065,-23.8194"/>
<polygon fill="#191970" stroke="#191970" points="1720.2991,-20.5157 1709.7506,-19.5249 1717.3788,-26.8775 1720.2991,-20.5157"/>
</g>
<!-- Node37 -->
<g id="node16" class="node">
<title>Node37</title>
<g id="a_node16"><a xlink:href="uint256_8h.html" target="_top" xlink:title="uint256.h">
<polygon fill="#ffffff" stroke="#ff0000" points="1905,-56.5 1905,-75.5 1961,-75.5 1961,-56.5 1905,-56.5"/>
<text text-anchor="middle" x="1933" y="-63.5" font-family="Helvetica,sans-Serif" font-size="10.00" fill="#000000">uint256.h</text>
</a>
</g>
</g>
<!-- Node14&#45;&gt;Node37 -->
<g id="edge17" class="edge">
<title>Node14&#45;&gt;Node37</title>
<path fill="none" stroke="#191970" d="M1933,-112.2455C1933,-104.9382 1933,-94.6944 1933,-85.7046"/>
<polygon fill="#191970" stroke="#191970" points="1936.5001,-85.6426 1933,-75.6427 1929.5001,-85.6427 1936.5001,-85.6426"/>
</g>
<!-- Node37&#45;&gt;Node3 -->
<g id="edge19" class="edge">
<title>Node37&#45;&gt;Node3</title>
<path fill="none" stroke="#191970" d="M1904.5326,-59.4665C1859.5591,-49.1447 1772.2061,-29.0965 1723.6544,-17.9535"/>
<polygon fill="#191970" stroke="#191970" points="1724.1553,-14.4775 1713.6257,-15.6518 1722.5894,-21.3001 1724.1553,-14.4775"/>
</g>
<!-- Node37&#45;&gt;Node9 -->
<g id="edge18" class="edge">
<title>Node37&#45;&gt;Node9</title>
<path fill="none" stroke="#191970" d="M1961.0471,-60.7819C2014.7145,-50.7973 2132.0908,-28.9599 2193.979,-17.4458"/>
<polygon fill="#191970" stroke="#191970" points="2194.9486,-20.8255 2204.1397,-15.5554 2193.6682,-13.9436 2194.9486,-20.8255"/>
</g>
<!-- Node37&#45;&gt;Node11 -->
<g id="edge20" class="edge">
<title>Node37&#45;&gt;Node11</title>
<path fill="none" stroke="#191970" d="M1904.9889,-64.2315C1773.1008,-55.9049 1214.6655,-20.6486 1076.8445,-11.9473"/>
<polygon fill="#191970" stroke="#191970" points="1076.7904,-8.437 1066.5897,-11.2999 1076.3493,-15.4231 1076.7904,-8.437"/>
</g>
<!-- Node40&#45;&gt;Node11 -->
<g id="edge36" class="edge">
<title>Node40&#45;&gt;Node11</title>
<path fill="none" stroke="#191970" d="M410.1162,-173.9941C400.9246,-160.0529 386.8084,-133.3968 396,-112 410.2697,-78.782 421.9667,-70.6923 455,-56 506.4115,-33.1337 901.2905,-15.7653 1015.2835,-11.189"/>
<polygon fill="#191970" stroke="#191970" points="1015.5641,-14.6807 1025.4172,-10.7863 1015.2861,-7.6863 1015.5641,-14.6807"/>
</g>
<!-- Node40&#45;&gt;Node31 -->
<g id="edge37" class="edge">
<title>Node40&#45;&gt;Node31</title>
<path fill="none" stroke="#191970" d="M400.2778,-173.9248C349.9928,-145.1312 199.9167,-59.1965 139.5583,-24.6349"/>
<polygon fill="#191970" stroke="#191970" points="141.0877,-21.4775 130.6705,-19.5457 137.6093,-27.5521 141.0877,-21.4775"/>
</g>
<!-- Node41 -->
<g id="node20" class="node">
<title>Node41</title>
<g id="a_node20"><a xlink:href="fs_8h.html" target="_top" xlink:title="fs.h">
<polygon fill="#ffffff" stroke="#ff0000" points="464.5,-56.5 464.5,-75.5 497.5,-75.5 497.5,-56.5 464.5,-56.5"/>
<text text-anchor="middle" x="481" y="-63.5" font-family="Helvetica,sans-Serif" font-size="10.00" fill="#000000">fs.h</text>
</a>
</g>
</g>
<!-- Node40&#45;&gt;Node41 -->
<g id="edge28" class="edge">
<title>Node40&#45;&gt;Node41</title>
<path fill="none" stroke="#191970" d="M411.2796,-173.5591C403.7722,-159.076 392.7919,-131.7516 404,-112 414.7286,-93.0934 436.6539,-81.1279 454.3739,-74.1556"/>
<polygon fill="#191970" stroke="#191970" points="455.9838,-77.2958 464.2048,-70.6127 453.6105,-70.7104 455.9838,-77.2958"/>
</g>
<!-- Node28 -->
<g id="node21" class="node">
<title>Node28</title>
<g id="a_node21"><a xlink:href="serialize_8h.html" target="_top" xlink:title="serialize.h">
<polygon fill="#ffffff" stroke="#ff0000" points="1150.5,-56.5 1150.5,-75.5 1211.5,-75.5 1211.5,-56.5 1150.5,-56.5"/>
<text text-anchor="middle" x="1181" y="-63.5" font-family="Helvetica,sans-Serif" font-size="10.00" fill="#000000">serialize.h</text>
</a>
</g>
</g>
<!-- Node40&#45;&gt;Node28 -->
<g id="edge30" class="edge">
<title>Node40&#45;&gt;Node28</title>
<path fill="none" stroke="#191970" d="M416.4865,-173.7668C416.2464,-157.9876 418.3563,-127.0733 437,-112 464.5178,-89.752 988.2448,-71.9383 1140.075,-67.2252"/>
<polygon fill="#191970" stroke="#191970" points="1140.4646,-70.715 1150.3521,-66.9087 1140.249,-63.7183 1140.4646,-70.715"/>
</g>
<!-- Node46 -->
<g id="node22" class="node">
<title>Node46</title>
<g id="a_node22"><a xlink:href="dbwrapper_8h.html" target="_top" xlink:title="dbwrapper.h">
<polygon fill="#ffffff" stroke="#ff0000" points="446,-112.5 446,-131.5 516,-131.5 516,-112.5 446,-112.5"/>
<text text-anchor="middle" x="481" y="-119.5" font-family="Helvetica,sans-Serif" font-size="10.00" fill="#000000">dbwrapper.h</text>
</a>
</g>
</g>
<!-- Node40&#45;&gt;Node46 -->
<g id="edge38" class="edge">
<title>Node40&#45;&gt;Node46</title>
<path fill="none" stroke="#191970" d="M427,-173.8906C436.7119,-164.5581 451.6639,-150.1902 463.3741,-138.9374"/>
<polygon fill="#191970" stroke="#191970" points="466.0736,-141.1974 470.859,-131.7449 461.2234,-136.15 466.0736,-141.1974"/>
</g>
<!-- Node41&#45;&gt;Node11 -->
<g id="edge29" class="edge">
<title>Node41&#45;&gt;Node11</title>
<path fill="none" stroke="#191970" d="M497.6034,-64.3544C576.2078,-56.5635 911.4376,-23.3372 1015.238,-13.049"/>
<polygon fill="#191970" stroke="#191970" points="1015.7611,-16.5144 1025.3671,-12.045 1015.0706,-9.5485 1015.7611,-16.5144"/>
</g>
<!-- Node28&#45;&gt;Node3 -->
<g id="edge34" class="edge">
<title>Node28&#45;&gt;Node3</title>
<path fill="none" stroke="#191970" d="M1211.6337,-62.6231C1300.864,-52.7867 1560.1949,-24.199 1654.3367,-13.8212"/>
<polygon fill="#191970" stroke="#191970" points="1654.9097,-17.2793 1664.466,-12.7045 1654.1426,-10.3214 1654.9097,-17.2793"/>
</g>
<!-- Node28&#45;&gt;Node5 -->
<g id="edge31" class="edge">
<title>Node28&#45;&gt;Node5</title>
<path fill="none" stroke="#191970" d="M1199.2896,-56.2455C1215.7762,-47.4527 1240.2352,-34.4079 1258.9765,-24.4125"/>
<polygon fill="#191970" stroke="#191970" points="1260.7435,-27.4368 1267.92,-19.6427 1257.4494,-21.2604 1260.7435,-27.4368"/>
</g>
<!-- Node28&#45;&gt;Node11 -->
<g id="edge35" class="edge">
<title>Node28&#45;&gt;Node11</title>
<path fill="none" stroke="#191970" d="M1157.7927,-56.3733C1135.1646,-46.9868 1100.6466,-32.6682 1075.9564,-22.4263"/>
<polygon fill="#191970" stroke="#191970" points="1077.2722,-19.183 1066.6943,-18.5843 1074.59,-25.6488 1077.2722,-19.183"/>
</g>
<!-- Node28&#45;&gt;Node33 -->
<g id="edge33" class="edge">
<title>Node28&#45;&gt;Node33</title>
<path fill="none" stroke="#191970" d="M1150.3059,-61.8038C1134.6736,-59.7935 1115.3518,-57.5023 1098,-56 764.6905,-27.1422 357.8673,-13.8113 253.3944,-10.7195"/>
<polygon fill="#191970" stroke="#191970" points="253.2946,-7.2152 243.1968,-10.4221 253.0904,-14.2123 253.2946,-7.2152"/>
</g>
<!-- Node28&#45;&gt;Node31 -->
<g id="edge32" class="edge">
<title>Node28&#45;&gt;Node31</title>
<path fill="none" stroke="#191970" d="M1150.3136,-61.7114C1134.6833,-59.6775 1115.3609,-57.3932 1098,-56 701.6189,-24.1916 600.524,-49.9754 204,-20 183.0003,-18.4125 159.3346,-15.7483 141.543,-13.5688"/>
<polygon fill="#191970" stroke="#191970" points="141.913,-10.0879 131.5562,-12.321 141.045,-17.0339 141.913,-10.0879"/>
</g>
<!-- Node46&#45;&gt;Node41 -->
<g id="edge39" class="edge">
<title>Node46&#45;&gt;Node41</title>
<path fill="none" stroke="#191970" d="M481,-112.2455C481,-104.9382 481,-94.6944 481,-85.7046"/>
<polygon fill="#191970" stroke="#191970" points="484.5001,-85.6426 481,-75.6427 477.5001,-85.6427 484.5001,-85.6426"/>
</g>
<!-- Node46&#45;&gt;Node28 -->
<g id="edge40" class="edge">
<title>Node46&#45;&gt;Node28</title>
<path fill="none" stroke="#191970" d="M516.4533,-113.4512C519.3349,-112.9065 522.2102,-112.4123 525,-112 756.2131,-77.8257 1037.1401,-68.8919 1140.4104,-66.6841"/>
<polygon fill="#191970" stroke="#191970" points="1140.4862,-70.1834 1150.4125,-66.4796 1140.3431,-63.1848 1140.4862,-70.1834"/>
</g>
<!-- Node80&#45;&gt;Node37 -->
<g id="edge42" class="edge">
<title>Node80&#45;&gt;Node37</title>
<path fill="none" stroke="#191970" d="M1604.2485,-114.4476C1681.5186,-103.0604 1826.1084,-81.7524 1894.8345,-71.6244"/>
<polygon fill="#191970" stroke="#191970" points="1895.4166,-75.0765 1904.7995,-70.1559 1894.396,-68.1513 1895.4166,-75.0765"/>
</g>
<!-- Node80&#45;&gt;Node28 -->
<g id="edge43" class="edge">
<title>Node80&#45;&gt;Node28</title>
<path fill="none" stroke="#191970" d="M1501.6656,-114.2722C1426.9699,-103.0277 1289.8223,-82.3819 1221.6659,-72.1218"/>
<polygon fill="#191970" stroke="#191970" points="1222.1424,-68.6541 1211.7328,-70.6264 1221.1003,-75.5761 1222.1424,-68.6541"/>
</g>
<!-- Node81&#45;&gt;Node46 -->
<g id="edge45" class="edge">
<title>Node81&#45;&gt;Node46</title>
<path fill="none" stroke="#191970" d="M604.9569,-291.3762C583.988,-262.7241 521.7233,-177.6448 494.2631,-140.1229"/>
<polygon fill="#191970" stroke="#191970" points="496.8082,-137.6741 488.078,-131.6714 491.1594,-141.8082 496.8082,-137.6741"/>
</g>
<!-- Node82&#45;&gt;Node11 -->
<g id="edge62" class="edge">
<title>Node82&#45;&gt;Node11</title>
<path fill="none" stroke="#191970" d="M2159.9512,-237.3583C2129.7643,-228.8988 2080.4954,-214.4088 2039,-199 2006.7214,-187.0137 2000.4152,-179.6119 1968,-168 1946.5267,-160.3078 1595.4341,-60.1213 1573,-56 1476.5749,-38.2863 1174.4487,-18.1247 1076.7834,-11.9181"/>
<polygon fill="#191970" stroke="#191970" points="1076.8842,-8.4176 1066.6833,-11.2798 1076.4426,-15.4037 1076.8842,-8.4176"/>
</g>
<!-- Node82&#45;&gt;Node14 -->
<g id="edge60" class="edge">
<title>Node82&#45;&gt;Node14</title>
<path fill="none" stroke="#191970" d="M2170.3052,-235.3617C2142.5927,-220.3794 2087.1376,-190.8512 2039,-168 2014.7504,-156.4885 1986.8911,-144.4435 1965.8208,-135.5677"/>
<polygon fill="#191970" stroke="#191970" points="1966.9378,-132.2409 1956.3621,-131.6038 1964.2322,-138.6969 1966.9378,-132.2409"/>
</g>
<!-- Node83 -->
<g id="node26" class="node">
<title>Node83</title>
<g id="a_node26"><a xlink:href="chainparams_8h.html" target="_top" xlink:title="chainparams.h">
<polygon fill="#ffffff" stroke="#ff0000" points="2303,-174 2303,-193 2383,-193 2383,-174 2303,-174"/>
<text text-anchor="middle" x="2343" y="-181" font-family="Helvetica,sans-Serif" font-size="10.00" fill="#000000">chainparams.h</text>
</a>
</g>
</g>
<!-- Node82&#45;&gt;Node83 -->
<g id="edge50" class="edge">
<title>Node82&#45;&gt;Node83</title>
<path fill="none" stroke="#191970" d="M2212.2188,-235.3906C2238.3806,-225.0103 2280.2429,-208.4004 2309.5388,-196.7766"/>
<polygon fill="#191970" stroke="#191970" points="2310.9471,-199.9833 2318.9513,-193.0419 2308.3654,-193.4767 2310.9471,-199.9833"/>
</g>
<!-- Node89 -->
<g id="node27" class="node">
<title>Node89</title>
<g id="a_node27"><a xlink:href="key_8h.html" target="_top" xlink:title="key.h">
<polygon fill="#ffffff" stroke="#ff0000" points="2167.5,-174 2167.5,-193 2208.5,-193 2208.5,-174 2167.5,-174"/>
<text text-anchor="middle" x="2188" y="-181" font-family="Helvetica,sans-Serif" font-size="10.00" fill="#000000">key.h</text>
</a>
</g>
</g>
<!-- Node82&#45;&gt;Node89 -->
<g id="edge51" class="edge">
<title>Node82&#45;&gt;Node89</title>
<path fill="none" stroke="#191970" d="M2188,-235.3906C2188,-226.8657 2188,-214.1392 2188,-203.4235"/>
<polygon fill="#191970" stroke="#191970" points="2191.5001,-203.2448 2188,-193.2449 2184.5001,-203.2449 2191.5001,-203.2448"/>
</g>
<!-- Node90 -->
<g id="node28" class="node">
<title>Node90</title>
<g id="a_node28"><a xlink:href="pubkey_8h.html" target="_top" xlink:title="pubkey.h">
<polygon fill="#ffffff" stroke="#ff0000" points="2224,-112.5 2224,-131.5 2280,-131.5 2280,-112.5 2224,-112.5"/>
<text text-anchor="middle" x="2252" y="-119.5" font-family="Helvetica,sans-Serif" font-size="10.00" fill="#000000">pubkey.h</text>
</a>
</g>
</g>
<!-- Node82&#45;&gt;Node90 -->
<g id="edge59" class="edge">
<title>Node82&#45;&gt;Node90</title>
<path fill="none" stroke="#191970" d="M2194.9112,-235.4119C2201.321,-226.2966 2210.9103,-212.0752 2218,-199 2228.3004,-180.0035 2238.0456,-157.261 2244.4402,-141.4386"/>
<polygon fill="#191970" stroke="#191970" points="2247.861,-142.3072 2248.2975,-131.7213 2241.3549,-139.7245 2247.861,-142.3072"/>
</g>
<!-- Node49 -->
<g id="node29" class="node">
<title>Node49</title>
<g id="a_node29"><a xlink:href="zeroafterfree_8h.html" target="_top" xlink:title="support/allocators\l/zeroafterfree.h">
<polygon fill="#ffffff" stroke="#ff0000" points="2401,-168.5 2401,-198.5 2495,-198.5 2495,-168.5 2401,-168.5"/>
<text text-anchor="start" x="2409" y="-186.5" font-family="Helvetica,sans-Serif" font-size="10.00" fill="#000000">support/allocators</text>
<text text-anchor="middle" x="2448" y="-175.5" font-family="Helvetica,sans-Serif" font-size="10.00" fill="#000000">/zeroafterfree.h</text>
</a>
</g>
</g>
<!-- Node82&#45;&gt;Node49 -->
<g id="edge61" class="edge">
<title>Node82&#45;&gt;Node49</title>
<path fill="none" stroke="#191970" d="M2216.15,-239.1019C2253.7458,-231.1274 2322.6431,-216.1751 2390.9239,-199.2064"/>
<polygon fill="#191970" stroke="#191970" points="2392.1379,-202.5107 2400.9898,-196.6888 2390.4394,-195.7199 2392.1379,-202.5107"/>
</g>
<!-- Node89&#45;&gt;Node9 -->
<g id="edge58" class="edge">
<title>Node89&#45;&gt;Node9</title>
<path fill="none" stroke="#191970" d="M2208.6189,-179.629C2232.7175,-173.8806 2271.5212,-160.5324 2289,-132 2310.6987,-96.5791 2275.2623,-51.1276 2251.9129,-26.9329"/>
<polygon fill="#191970" stroke="#191970" points="2254.1069,-24.1775 2244.5578,-19.5878 2249.1605,-29.1306 2254.1069,-24.1775"/>
</g>
<!-- Node89&#45;&gt;Node37 -->
<g id="edge57" class="edge">
<title>Node89&#45;&gt;Node37</title>
<path fill="none" stroke="#191970" d="M2183.5437,-173.9123C2175.7894,-158.3423 2158.2892,-127.722 2134,-112 2107.4314,-94.8026 2021.675,-79.4167 1971.1674,-71.5442"/>
<polygon fill="#191970" stroke="#191970" points="1971.676,-68.0813 1961.2612,-70.0259 1970.6155,-75.0005 1971.676,-68.0813"/>
</g>
<!-- Node89&#45;&gt;Node28 -->
<g id="edge56" class="edge">
<title>Node89&#45;&gt;Node28</title>
<path fill="none" stroke="#191970" d="M2167.4353,-173.9649C2131.6594,-157.8873 2055.2518,-125.7917 1987,-112 1911.7856,-96.8013 1375.4341,-73.9437 1221.9421,-67.653"/>
<polygon fill="#191970" stroke="#191970" points="1221.6985,-64.1402 1211.5639,-67.229 1221.4127,-71.1344 1221.6985,-64.1402"/>
</g>
<!-- Node89&#45;&gt;Node90 -->
<g id="edge52" class="edge">
<title>Node89&#45;&gt;Node90</title>
<path fill="none" stroke="#191970" d="M2198,-173.8906C2207.7119,-164.5581 2222.6639,-150.1902 2234.3741,-138.9374"/>
<polygon fill="#191970" stroke="#191970" points="2237.0736,-141.1974 2241.859,-131.7449 2232.2234,-136.15 2237.0736,-141.1974"/>
</g>
<!-- Node90&#45;&gt;Node9 -->
<g id="edge55" class="edge">
<title>Node90&#45;&gt;Node9</title>
<path fill="none" stroke="#191970" d="M2250.4653,-112.4509C2247.5296,-94.184 2241.0642,-53.9553 2237.1657,-29.6976"/>
<polygon fill="#191970" stroke="#191970" points="2240.5733,-28.8428 2235.5308,-19.5249 2233.662,-29.9536 2240.5733,-28.8428"/>
</g>
<!-- Node90&#45;&gt;Node37 -->
<g id="edge54" class="edge">
<title>Node90&#45;&gt;Node37</title>
<path fill="none" stroke="#191970" d="M2223.9705,-117.0795C2166.7955,-107.0425 2036.6346,-84.1929 1971.5496,-72.7673"/>
<polygon fill="#191970" stroke="#191970" points="1971.7632,-69.2514 1961.3086,-70.9695 1970.5528,-76.1459 1971.7632,-69.2514"/>
</g>
<!-- Node90&#45;&gt;Node28 -->
<g id="edge53" class="edge">
<title>Node90&#45;&gt;Node28</title>
<path fill="none" stroke="#191970" d="M2223.8882,-119.3286C2199.9946,-117.1274 2164.7714,-114.0458 2134,-112 1781.1803,-88.5427 1354.1199,-72.2207 1221.9573,-67.4448"/>
<polygon fill="#191970" stroke="#191970" points="1221.9954,-63.944 1211.8761,-67.0822 1221.7438,-70.9394 1221.9954,-63.944"/>
</g>
<!-- Node116&#45;&gt;Node4 -->
<g id="edge64" class="edge">
<title>Node116&#45;&gt;Node4</title>
<path fill="none" stroke="#191970" d="M1507.7759,-242.5407C1485.7002,-240.3559 1452.1834,-237.1799 1423,-235 1145.9773,-214.3075 1074.6838,-233.1792 799,-199 787.0213,-197.5149 774.1478,-195.327 762.2679,-193.0602"/>
<polygon fill="#191970" stroke="#191970" points="762.6191,-189.5622 752.1312,-191.0635 761.2663,-196.4302 762.6191,-189.5622"/>
</g>
<!-- Node116&#45;&gt;Node37 -->
<g id="edge65" class="edge">
<title>Node116&#45;&gt;Node37</title>
<path fill="none" stroke="#191970" d="M1556.302,-243.1899C1645.7198,-236.4331 1952.0971,-212.3892 1968,-199 1998.2762,-173.5094 2003.5929,-147.9318 1987,-112 1981.1741,-99.384 1969.9931,-88.9528 1959.3095,-81.2314"/>
<polygon fill="#191970" stroke="#191970" points="1961.2142,-78.2946 1950.9599,-75.6299 1957.3144,-84.1076 1961.2142,-78.2946"/>
</g>
<!-- Node119&#45;&gt;Node11 -->
<g id="edge67" class="edge">
<title>Node119&#45;&gt;Node11</title>
<path fill="none" stroke="#191970" d="M197.0527,-291.3925C213.7271,-253.2414 281.1854,-111.8126 387,-56 443.0048,-26.4599 892.7755,-13.654 1015.2829,-10.6933"/>
<polygon fill="#191970" stroke="#191970" points="1015.5468,-14.1881 1025.4609,-10.4519 1015.3807,-7.1901 1015.5468,-14.1881"/>
</g>
<!-- Node121&#45;&gt;Node2 -->
<g id="edge69" class="edge">
<title>Node121&#45;&gt;Node2</title>
<path fill="none" stroke="#191970" d="M1329.1563,-173.8906C1324.7234,-165.0965 1318.0369,-151.8312 1312.5341,-140.9145"/>
<polygon fill="#191970" stroke="#191970" points="1315.5386,-139.0992 1307.912,-131.7449 1309.2878,-142.25 1315.5386,-139.0992"/>
</g>
<!-- Node121&#45;&gt;Node11 -->
<g id="edge70" class="edge">
<title>Node121&#45;&gt;Node11</title>
<path fill="none" stroke="#191970" d="M1317.4861,-173.8236C1302.5153,-164.4771 1280.4873,-149.2326 1265,-132 1238.7606,-102.8035 1251.3135,-79.6729 1220,-56 1197.5493,-39.0273 1120.5326,-23.1632 1076.8631,-15.2521"/>
<polygon fill="#191970" stroke="#191970" points="1077.2488,-11.7659 1066.7905,-13.4613 1076.0234,-18.6578 1077.2488,-11.7659"/>
</g>
<!-- Node122&#45;&gt;Node3 -->
<g id="edge73" class="edge">
<title>Node122&#45;&gt;Node3</title>
<path fill="none" stroke="#191970" d="M1557.3331,-56.3733C1584.2583,-46.8902 1625.4769,-32.3729 1654.6124,-22.1114"/>
<polygon fill="#191970" stroke="#191970" points="1656.1015,-25.2977 1664.3708,-18.6744 1653.776,-18.6952 1656.1015,-25.2977"/>
</g>
<!-- Node122&#45;&gt;Node11 -->
<g id="edge72" class="edge">
<title>Node122&#45;&gt;Node11</title>
<path fill="none" stroke="#191970" d="M1495.9661,-62.0622C1405.9984,-51.6527 1162.8931,-23.5248 1076.7641,-13.5595"/>
<polygon fill="#191970" stroke="#191970" points="1076.9346,-10.0559 1066.5986,-12.3833 1076.13,-17.0096 1076.9346,-10.0559"/>
</g>
<!-- Node125&#45;&gt;Node2 -->
<g id="edge76" class="edge">
<title>Node125&#45;&gt;Node2</title>
<path fill="none" stroke="#191970" d="M1985.7927,-243.7639C1901.5473,-238.2616 1566.9599,-215.5412 1523,-199 1500.9496,-190.7029 1501.3212,-178.0233 1480,-168 1467.4592,-162.1045 1389.7055,-142.8567 1341.5166,-131.21"/>
<polygon fill="#191970" stroke="#191970" points="1342.2583,-127.7886 1331.7165,-128.8476 1340.6178,-134.5937 1342.2583,-127.7886"/>
</g>
<!-- Node125&#45;&gt;Node3 -->
<g id="edge82" class="edge">
<title>Node125&#45;&gt;Node3</title>
<path fill="none" stroke="#191970" d="M2024.0069,-243.4146C2098.8189,-236.4837 2365.2285,-204.9189 2289,-112 2252.6153,-67.6488 1846.1724,-25.1415 1723.7126,-13.267"/>
<polygon fill="#191970" stroke="#191970" points="1724.0343,-9.7819 1713.7449,-12.3075 1723.3635,-16.7496 1724.0343,-9.7819"/>
</g>
<!-- Node125&#45;&gt;Node37 -->
<g id="edge81" class="edge">
<title>Node125&#45;&gt;Node37</title>
<path fill="none" stroke="#191970" d="M2009.7925,-235.454C2020.6469,-212.3604 2044.3415,-152.4047 2020,-112 2009.2382,-94.1363 1988.96,-82.8498 1970.687,-75.9296"/>
<polygon fill="#191970" stroke="#191970" points="1971.6907,-72.5733 1961.0959,-72.6087 1969.4004,-79.1881 1971.6907,-72.5733"/>
</g>
<!-- Node125&#45;&gt;Node133 -->
<g id="edge77" class="edge">
<title>Node125&#45;&gt;Node133</title>
<path fill="none" stroke="#191970" d="M1985.8366,-243.958C1903.3301,-239.4288 1570.2055,-220.7032 1297,-199 1259.0848,-195.9881 1216.3299,-191.9537 1183.8436,-188.7559"/>
<polygon fill="#191970" stroke="#191970" points="1183.9723,-185.2516 1173.6761,-187.7494 1183.2826,-192.2176 1183.9723,-185.2516"/>
</g>
<!-- Node133&#45;&gt;Node2 -->
<g id="edge78" class="edge">
<title>Node133&#45;&gt;Node2</title>
<path fill="none" stroke="#191970" d="M1158.7188,-173.8906C1187.8321,-163.42 1234.5692,-146.6111 1266.9247,-134.9745"/>
<polygon fill="#191970" stroke="#191970" points="1268.2435,-138.2197 1276.4689,-131.5419 1265.8744,-131.6328 1268.2435,-138.2197"/>
</g>
<!-- Node133&#45;&gt;Node11 -->
<g id="edge80" class="edge">
<title>Node133&#45;&gt;Node11</title>
<path fill="none" stroke="#191970" d="M1127.2538,-173.9248C1113.5422,-146.2625 1073.6892,-65.8614 1055.3883,-28.9403"/>
<polygon fill="#191970" stroke="#191970" points="1058.4147,-27.1648 1050.8376,-19.7595 1052.1429,-30.2737 1058.4147,-27.1648"/>
</g>
<!-- Node133&#45;&gt;Node28 -->
<g id="edge79" class="edge">
<title>Node133&#45;&gt;Node28</title>
<path fill="none" stroke="#191970" d="M1134.734,-173.5828C1138.7248,-159.5882 1146.6918,-133.3676 1156,-112 1160.0702,-102.6566 1165.3708,-92.6735 1170.0433,-84.4034"/>
<polygon fill="#191970" stroke="#191970" points="1173.1455,-86.0305 1175.1284,-75.6228 1167.088,-82.5223 1173.1455,-86.0305"/>
</g>
<!-- Node138&#45;&gt;Node2 -->
<g id="edge85" class="edge">
<title>Node138&#45;&gt;Node2</title>
<path fill="none" stroke="#191970" d="M883.5728,-235.4142C914.1118,-226.5268 960.3368,-212.6539 1000,-199 1036.4473,-186.4532 1044.0076,-178.8345 1081,-168 1144.1209,-149.5128 1219.4275,-135.5609 1264.1168,-128.1005"/>
<polygon fill="#191970" stroke="#191970" points="1264.9537,-131.5099 1274.2525,-126.4324 1263.8169,-124.6028 1264.9537,-131.5099"/>
</g>
<!-- Node138&#45;&gt;Node11 -->
<g id="edge89" class="edge">
<title>Node138&#45;&gt;Node11</title>
<path fill="none" stroke="#191970" d="M833.2627,-235.2988C821.2416,-227.2823 805.977,-214.6887 799,-199 781.3929,-159.4081 810.4541,-140.6058 843,-112 895.6844,-65.6937 973.1342,-34.5006 1015.5174,-19.7693"/>
<polygon fill="#191970" stroke="#191970" points="1016.9099,-22.9928 1025.2525,-16.4619 1014.6581,-16.3648 1016.9099,-22.9928"/>
</g>
<!-- Node138&#45;&gt;Node37 -->
<g id="edge87" class="edge">
<title>Node138&#45;&gt;Node37</title>
<path fill="none" stroke="#191970" d="M886.2501,-241.7556C910.278,-239.6664 942.5073,-236.9809 971,-235 1112.6614,-225.1512 1478.4991,-254.9862 1609,-199 1627.4931,-191.0663 1624.6379,-178.1732 1642,-168 1687.843,-141.1387 1705.758,-149.2875 1756,-132 1806.1732,-114.7362 1863.6241,-92.9324 1899.1142,-79.2224"/>
<polygon fill="#191970" stroke="#191970" points="1900.4565,-82.4559 1908.5176,-75.5806 1897.9285,-75.9284 1900.4565,-82.4559"/>
</g>
<!-- Node138&#45;&gt;Node31 -->
<g id="edge88" class="edge">
<title>Node138&#45;&gt;Node31</title>
<path fill="none" stroke="#191970" d="M813.8264,-241.8475C702.6143,-232.1225 372.5837,-203.0027 362,-199 260.3671,-160.5632 165.6464,-66.2093 129.4794,-27.2543"/>
<polygon fill="#191970" stroke="#191970" points="132.0057,-24.8306 122.6691,-19.8226 126.8449,-29.5599 132.0057,-24.8306"/>
</g>
<!-- Node138&#45;&gt;Node133 -->
<g id="edge86" class="edge">
<title>Node138&#45;&gt;Node133</title>
<path fill="none" stroke="#191970" d="M886.0019,-237.1485C935.3078,-226.3956 1024.1321,-207.0244 1080.4753,-194.7368"/>
<polygon fill="#191970" stroke="#191970" points="1081.2326,-198.154 1090.2572,-192.6035 1079.741,-191.3147 1081.2326,-198.154"/>
</g>
<!-- Node140&#45;&gt;Node11 -->
<g id="edge93" class="edge">
<title>Node140&#45;&gt;Node11</title>
<path fill="none" stroke="#191970" d="M1020.0743,-235.2837C1020.3382,-213.2671 1021.5387,-157.9209 1027,-112 1030.4282,-83.1742 1037.0697,-50.2193 1041.5203,-29.7574"/>
<polygon fill="#191970" stroke="#191970" points="1044.9847,-30.3012 1043.7331,-19.7806 1038.1508,-28.7854 1044.9847,-30.3012"/>
</g>
<!-- Node140&#45;&gt;Node14 -->
<g id="edge92" class="edge">
<title>Node140&#45;&gt;Node14</title>
<path fill="none" stroke="#191970" d="M1059.5999,-244.6019C1158.5233,-243.0606 1424.1523,-235.5542 1642,-199 1733.9438,-183.5721 1839.0576,-152.254 1894.3367,-134.6843"/>
<polygon fill="#191970" stroke="#191970" points="1895.6073,-137.9526 1904.0642,-131.5705 1893.4732,-131.2858 1895.6073,-137.9526"/>
</g>
<!-- Node140&#45;&gt;Node133 -->
<g id="edge91" class="edge">
<title>Node140&#45;&gt;Node133</title>
<path fill="none" stroke="#191970" d="M1037.5,-235.3906C1055.7465,-225.3713 1084.5624,-209.5483 1105.5806,-198.0071"/>
<polygon fill="#191970" stroke="#191970" points="1107.542,-200.923 1114.6229,-193.0419 1104.1728,-194.7872 1107.542,-200.923"/>
</g>
<!-- Node158&#45;&gt;Node2 -->
<g id="edge98" class="edge">
<title>Node158&#45;&gt;Node2</title>
<path fill="none" stroke="#191970" d="M1538.2283,-173.9804C1531.6371,-171.8748 1524.6021,-169.7516 1518,-168 1442.5107,-147.972 1422.2624,-148.8465 1346,-132 1344.55,-131.6797 1343.0731,-131.3506 1341.5818,-131.0158"/>
<polygon fill="#191970" stroke="#191970" points="1342.1883,-127.5645 1331.661,-128.7585 1340.6353,-134.39 1342.1883,-127.5645"/>
</g>
<!-- Node158&#45;&gt;Node3 -->
<g id="edge102" class="edge">
<title>Node158&#45;&gt;Node3</title>
<path fill="none" stroke="#191970" d="M1542.7,-173.9532C1515.5322,-161.3643 1476.3361,-137.7721 1493,-112 1514.1703,-79.2583 1538.2393,-93.6604 1573,-76 1605.1358,-59.6733 1641.051,-38.8172 1664.2853,-24.9656"/>
<polygon fill="#191970" stroke="#191970" points="1666.3448,-27.8118 1673.1236,-19.6694 1662.7467,-21.8073 1666.3448,-27.8118"/>
</g>
<!-- Node158&#45;&gt;Node11 -->
<g id="edge103" class="edge">
<title>Node158&#45;&gt;Node11</title>
<path fill="none" stroke="#191970" d="M1537.6758,-173.9145C1508.5057,-163.9157 1461.8153,-147.557 1422,-132 1341.4977,-100.5453 1325.1645,-82.8145 1243,-56 1185.3487,-37.1854 1115.8456,-22.8243 1076.706,-15.4684"/>
<polygon fill="#191970" stroke="#191970" points="1077.2088,-12.0021 1066.7388,-13.6238 1075.9349,-18.8852 1077.2088,-12.0021"/>
</g>
<!-- Node158&#45;&gt;Node12 -->
<g id="edge100" class="edge">
<title>Node158&#45;&gt;Node12</title>
<path fill="none" stroke="#191970" d="M1531.8106,-179.4172C1434.845,-167.8378 1159.6697,-134.9771 1075.6599,-124.9448"/>
<polygon fill="#191970" stroke="#191970" points="1075.8783,-121.4461 1065.5338,-123.7356 1075.0482,-128.3967 1075.8783,-121.4461"/>
</g>
<!-- Node158&#45;&gt;Node37 -->
<g id="edge99" class="edge">
<title>Node158&#45;&gt;Node37</title>
<path fill="none" stroke="#191970" d="M1591.5911,-173.9556C1630.0704,-159.7355 1705.2297,-132.4684 1770,-112 1812.5597,-98.5505 1861.9576,-84.8775 1895.1204,-75.9748"/>
<polygon fill="#191970" stroke="#191970" points="1896.1082,-79.3337 1904.8656,-73.3706 1894.3009,-72.571 1896.1082,-79.3337"/>
</g>
<!-- Node158&#45;&gt;Node31 -->
<g id="edge101" class="edge">
<title>Node158&#45;&gt;Node31</title>
<path fill="none" stroke="#191970" d="M1536.1994,-173.9819C1529.5692,-171.9425 1522.561,-169.8473 1516,-168 1453.329,-150.3548 1434.2185,-156.7536 1374,-132 1357.7849,-125.3346 1356.7158,-117.2858 1340,-112 1219.2574,-73.8192 330.0556,-32.1047 204,-20 183.0368,-17.987 159.3694,-15.3425 141.5679,-13.2787"/>
<polygon fill="#191970" stroke="#191970" points="141.9132,-9.7953 131.5743,-12.1097 141.0999,-16.7479 141.9132,-9.7953"/>
</g>
<!-- Node130&#45;&gt;Node3 -->
<g id="edge107" class="edge">
<title>Node130&#45;&gt;Node3</title>
<path fill="none" stroke="#191970" d="M1689,-56.2455C1689,-48.9382 1689,-38.6944 1689,-29.7046"/>
<polygon fill="#191970" stroke="#191970" points="1692.5001,-29.6426 1689,-19.6427 1685.5001,-29.6427 1692.5001,-29.6426"/>
</g>
<!-- Node130&#45;&gt;Node5 -->
<g id="edge106" class="edge">
<title>Node130&#45;&gt;Node5</title>
<path fill="none" stroke="#191970" d="M1657.7126,-61.6524C1584.7049,-51.5074 1403.2943,-26.299 1324.052,-15.2876"/>
<polygon fill="#191970" stroke="#191970" points="1324.402,-11.8027 1314.0154,-13.893 1323.4385,-18.7361 1324.402,-11.8027"/>
</g>
<!-- Node162&#45;&gt;Node2 -->
<g id="edge112" class="edge">
<title>Node162&#45;&gt;Node2</title>
<path fill="none" stroke="#191970" d="M1880.9358,-179.6062C1769.8182,-168.5305 1452.8553,-136.9369 1341.9182,-125.8792"/>
<polygon fill="#191970" stroke="#191970" points="1342.1372,-122.3838 1331.8393,-124.8746 1341.4429,-129.3493 1342.1372,-122.3838"/>
</g>
<!-- Node162&#45;&gt;Node3 -->
<g id="edge110" class="edge">
<title>Node162&#45;&gt;Node3</title>
<path fill="none" stroke="#191970" d="M1940.9124,-173.9632C1956.7924,-165.4557 1977.4694,-151.3465 1987,-132 1997.9476,-109.777 1976.786,-61.9417 1970,-56 1933.9023,-24.3932 1790.9833,-14.2706 1723.995,-11.2237"/>
<polygon fill="#191970" stroke="#191970" points="1724.0641,-7.7235 1713.9237,-10.7932 1723.7651,-14.7171 1724.0641,-7.7235"/>
</g>
<!-- Node162&#45;&gt;Node11 -->
<g id="edge111" class="edge">
<title>Node162&#45;&gt;Node11</title>
<path fill="none" stroke="#191970" d="M1886.8858,-173.9435C1835.5803,-159.3452 1733.6494,-131.1703 1646,-112 1429.5199,-64.6523 1165.0474,-26.4254 1076.5071,-14.1524"/>
<polygon fill="#191970" stroke="#191970" points="1076.9812,-10.6848 1066.5968,-12.7855 1076.0247,-17.6191 1076.9812,-10.6848"/>
</g>
<!-- Node163&#45;&gt;Node133 -->
<g id="edge114" class="edge">
<title>Node163&#45;&gt;Node133</title>
<path fill="none" stroke="#191970" d="M1051.691,-347.4248C1065.2431,-319.7625 1104.6327,-239.3614 1122.7209,-202.4403"/>
<polygon fill="#191970" stroke="#191970" points="1125.9622,-203.7796 1127.2187,-193.2595 1119.676,-200.6999 1125.9622,-203.7796"/>
</g>
<!-- Node163&#45;&gt;Node138 -->
<g id="edge115" class="edge">
<title>Node163&#45;&gt;Node138</title>
<path fill="none" stroke="#191970" d="M1030.2039,-347.4509C995.6747,-327.8201 916.533,-282.8259 875.5875,-259.5472"/>
<polygon fill="#191970" stroke="#191970" points="877.1767,-256.4247 866.7536,-254.5249 873.717,-262.51 877.1767,-256.4247"/>
</g>
<!-- Node163&#45;&gt;Node164 -->
<g id="edge116" class="edge">
<title>Node163&#45;&gt;Node164</title>
<path fill="none" stroke="#191970" d="M1072.2702,-347.3733C1096.3966,-338.1822 1132.9362,-324.2624 1159.6877,-314.0713"/>
<polygon fill="#191970" stroke="#191970" points="1160.9607,-317.3318 1169.0596,-310.5011 1158.4687,-310.7904 1160.9607,-317.3318"/>
</g>
<!-- Node164&#45;&gt;Node2 -->
<g id="edge117" class="edge">
<title>Node164&#45;&gt;Node2</title>
<path fill="none" stroke="#191970" d="M1216.4127,-291.4857C1260.0564,-272.4502 1353.698,-228.9399 1371,-199 1377.8937,-187.0709 1377.4601,-180.1694 1371,-168 1363.6154,-154.0889 1349.9364,-143.6166 1336.7728,-136.2062"/>
<polygon fill="#191970" stroke="#191970" points="1338.3134,-133.0625 1327.8255,-131.5605 1335.0876,-139.275 1338.3134,-133.0625"/>
</g>
<!-- Node164&#45;&gt;Node3 -->
<g id="edge132" class="edge">
<title>Node164&#45;&gt;Node3</title>
<path fill="none" stroke="#191970" d="M1198.7708,-291.243C1203.2103,-282.0084 1209.8908,-267.7064 1215,-255 1240.1181,-192.5323 1216.6087,-158.8126 1265,-112 1321.2694,-57.5662 1563.3402,-24.5133 1654.287,-13.8212"/>
<polygon fill="#191970" stroke="#191970" points="1654.8265,-17.2822 1664.3581,-12.6563 1654.0222,-10.3285 1654.8265,-17.2822"/>
</g>
<!-- Node164&#45;&gt;Node4 -->
<g id="edge119" class="edge">
<title>Node164&#45;&gt;Node4</title>
<path fill="none" stroke="#191970" d="M1154.3155,-299.136C1068.283,-294.6409 867.3277,-281.5585 805,-255 776.0963,-242.6838 749.1973,-217.6548 733.176,-200.7272"/>
<polygon fill="#191970" stroke="#191970" points="735.5665,-198.1558 726.2238,-193.1593 730.4115,-202.8914 735.5665,-198.1558"/>
</g>
<!-- Node164&#45;&gt;Node5 -->
<g id="edge128" class="edge">
<title>Node164&#45;&gt;Node5</title>
<path fill="none" stroke="#191970" d="M1194.9524,-291.2982C1197.9426,-262.9708 1208.3849,-178.1992 1232,-112 1242.9924,-81.1855 1261.9303,-48.1843 1274.2063,-28.3216"/>
<polygon fill="#191970" stroke="#191970" points="1277.2718,-30.0216 1279.6336,-19.6933 1271.3465,-26.2945 1277.2718,-30.0216"/>
</g>
<!-- Node164&#45;&gt;Node9 -->
<g id="edge131" class="edge">
<title>Node164&#45;&gt;Node9</title>
<path fill="none" stroke="#191970" d="M1233.5578,-300.0483C1397.944,-295.9678 2027.6934,-279.0586 2225,-255 2360.202,-238.5141 2523,-319.7034 2523,-183.5 2523,-183.5 2523,-183.5 2523,-122 2523,-69.1507 2352.8482,-31.4635 2273.6621,-16.786"/>
<polygon fill="#191970" stroke="#191970" points="2274.0351,-13.2965 2263.5699,-14.9489 2272.7814,-20.1833 2274.0351,-13.2965"/>
</g>
<!-- Node164&#45;&gt;Node10 -->
<g id="edge127" class="edge">
<title>Node164&#45;&gt;Node10</title>
<path fill="none" stroke="#191970" d="M1154.4118,-296.2163C1092.5635,-288.3538 976.1451,-271.8798 938,-255 908.2307,-241.8266 879.3795,-217.2287 861.9058,-200.6088"/>
<polygon fill="#191970" stroke="#191970" points="863.8894,-197.6542 854.2876,-193.1758 859.0009,-202.6645 863.8894,-197.6542"/>
</g>
<!-- Node164&#45;&gt;Node11 -->
<g id="edge133" class="edge">
<title>Node164&#45;&gt;Node11</title>
<path fill="none" stroke="#191970" d="M1154.0917,-298.6462C1096.2817,-294.3093 993.6599,-282.8112 971,-255 913.6945,-184.6671 995.2989,-70.8994 1030.8521,-27.5437"/>
<polygon fill="#191970" stroke="#191970" points="1033.748,-29.537 1037.4841,-19.6228 1028.3808,-25.0433 1033.748,-29.537"/>
</g>
<!-- Node164&#45;&gt;Node33 -->
<g id="edge130" class="edge">
<title>Node164&#45;&gt;Node33</title>
<path fill="none" stroke="#191970" d="M1154.4883,-298.6965C991.1157,-288.8757 373.6126,-248.7245 303,-199 246.3981,-159.1416 232.5035,-69.4432 229.1002,-29.6516"/>
<polygon fill="#191970" stroke="#191970" points="232.5878,-29.3514 228.3798,-19.6281 225.6058,-29.8533 232.5878,-29.3514"/>
</g>
<!-- Node164&#45;&gt;Node31 -->
<g id="edge129" class="edge">
<title>Node164&#45;&gt;Node31</title>
<path fill="none" stroke="#191970" d="M1154.3265,-299.8022C1020.6091,-295.5686 587.1477,-280.1954 450,-255 293.5926,-226.2664 222.871,-247.9137 114,-132 90.0879,-106.541 86.8877,-90.196 94,-56 95.9414,-46.6655 99.8804,-36.9017 103.7531,-28.783"/>
<polygon fill="#191970" stroke="#191970" points="106.8903,-30.3353 108.3055,-19.8354 100.6514,-27.161 106.8903,-30.3353"/>
</g>
<!-- Node164&#45;&gt;Node133 -->
<g id="edge118" class="edge">
<title>Node164&#45;&gt;Node133</title>
<path fill="none" stroke="#191970" d="M1188.9263,-291.3845C1178.6626,-271.9331 1155.2771,-227.6138 1141.8916,-202.2462"/>
<polygon fill="#191970" stroke="#191970" points="1144.9061,-200.4593 1137.1438,-193.2484 1138.7151,-203.7261 1144.9061,-200.4593"/>
</g>
<!-- Node164&#45;&gt;Node160 -->
<g id="edge120" class="edge">
<title>Node164&#45;&gt;Node160</title>
<path fill="none" stroke="#191970" d="M1225.8026,-291.3733C1256.8317,-281.9807 1304.1754,-267.6496 1338.0147,-257.4064"/>
<polygon fill="#191970" stroke="#191970" points="1339.0553,-260.7483 1347.6124,-254.5011 1337.0272,-254.0485 1339.0553,-260.7483"/>
</g>
<!-- Node164&#45;&gt;Node171 -->
<g id="edge121" class="edge">
<title>Node164&#45;&gt;Node171</title>
<path fill="none" stroke="#191970" d="M1233.8522,-296.9275C1330.3661,-287.0648 1576.7994,-261.8818 1687.1362,-250.6065"/>
<polygon fill="#191970" stroke="#191970" points="1687.7872,-254.0583 1697.3795,-249.5598 1687.0755,-247.0946 1687.7872,-254.0583"/>
</g>
<!-- Node171&#45;&gt;Node2 -->
<g id="edge122" class="edge">
<title>Node171&#45;&gt;Node2</title>
<path fill="none" stroke="#191970" d="M1697.3329,-240.2036C1627.52,-232.3233 1495.9813,-215.8251 1452,-199 1428.2807,-189.9261 1426.2818,-180.1844 1404,-168 1381.9175,-155.9246 1356.0741,-144.1957 1336.0572,-135.6037"/>
<polygon fill="#191970" stroke="#191970" points="1337.3135,-132.3347 1326.7408,-131.65 1334.5789,-138.7785 1337.3135,-132.3347"/>
</g>
<!-- Node171&#45;&gt;Node3 -->
<g id="edge125" class="edge">
<title>Node171&#45;&gt;Node3</title>
<path fill="none" stroke="#191970" d="M1786.5805,-243.0512C1851.2402,-239.237 1966.3558,-228.4051 1994,-199 2020.5967,-170.7092 2006.419,-150.5775 2002,-112 1999.0922,-86.6153 2007.74,-73.3681 1989,-56 1951.0457,-20.8243 1794.729,-12.5468 1724.0208,-10.5991"/>
<polygon fill="#191970" stroke="#191970" points="1723.9196,-7.0956 1713.8359,-10.3465 1723.7459,-14.0935 1723.9196,-7.0956"/>
</g>
<!-- Node171&#45;&gt;Node11 -->
<g id="edge126" class="edge">
<title>Node171&#45;&gt;Node11</title>
<path fill="none" stroke="#191970" d="M1741.3822,-235.3276C1739.8956,-219.4987 1734.8706,-187.8417 1718,-168 1694.8249,-140.7436 1677.3241,-149.2859 1646,-132 1630.9846,-123.7139 1629.1642,-117.7307 1613,-112 1502.2177,-72.7241 1465.8744,-100.8834 1351,-76 1320.6282,-69.421 1314.1817,-63.4021 1284,-56 1210.2133,-37.9037 1122.1391,-22.4547 1076.6212,-14.9184"/>
<polygon fill="#191970" stroke="#191970" points="1076.9585,-11.427 1066.5236,-13.2611 1075.8247,-18.3346 1076.9585,-11.427"/>
</g>
<!-- Node171&#45;&gt;Node12 -->
<g id="edge124" class="edge">
<title>Node171&#45;&gt;Node12</title>
<path fill="none" stroke="#191970" d="M1697.3378,-243.3416C1616.6506,-239.6925 1441.5349,-228.7769 1297,-199 1253.2374,-189.9841 1128.0694,-148.1832 1075.1203,-130.2295"/>
<polygon fill="#191970" stroke="#191970" points="1076.1334,-126.8773 1065.539,-126.9735 1073.881,-133.505 1076.1334,-126.8773"/>
</g>
<!-- Node171&#45;&gt;Node89 -->
<g id="edge123" class="edge">
<title>Node171&#45;&gt;Node89</title>
<path fill="none" stroke="#191970" d="M1786.5508,-241.7389C1878.1469,-234.7523 2084.7309,-217.4668 2153,-199 2155.1891,-198.4078 2157.4166,-197.6981 2159.6332,-196.9127"/>
<polygon fill="#191970" stroke="#191970" points="2161.1443,-200.078 2169.1295,-193.1147 2158.5448,-193.5785 2161.1443,-200.078"/>
</g>
</g>
</svg>
