<?xml version="1.0" encoding="UTF-8" standalone="no"?>
<!DOCTYPE svg PUBLIC "-//W3C//DTD SVG 1.1//EN"
 "http://www.w3.org/Graphics/SVG/1.1/DTD/svg11.dtd">
<!-- Generated by graphviz version 2.40.1 (20161225.0304)
 -->
<!-- Title: checkaddressrestriction Pages: 1 -->
<svg width="884pt" height="895pt"
 viewBox="0.00 0.00 884.00 895.00" xmlns="http://www.w3.org/2000/svg" xmlns:xlink="http://www.w3.org/1999/xlink">
<g id="graph0" class="graph" transform="scale(1 1) rotate(0) translate(4 891)">
<title>checkaddressrestriction</title>
<polygon fill="#ffffff" stroke="transparent" points="-4,4 -4,-891 880,-891 880,4 -4,4"/>
<!-- Node192 -->
<g id="node1" class="node">
<title>Node192</title>
<polygon fill="#bfbfbf" stroke="#000000" points="0,-373.5 0,-392.5 120,-392.5 120,-373.5 0,-373.5"/>
<text text-anchor="middle" x="60" y="-380.5" font-family="Helvetica,sans-Serif" font-size="10.00" fill="#000000">checkaddressrestriction</text>
</g>
<!-- Node193 -->
<g id="node2" class="node">
<title>Node193</title>
<g id="a_node2"><a xlink:href="validation_8cpp.html#ad82587b49fc0765c8c7255c3bad6bd16" target="_top" xlink:title="AreRestrictedAssetsDeployed">
<polygon fill="#ffffff" stroke="#000000" points="365,-544.5 365,-563.5 514,-563.5 514,-544.5 365,-544.5"/>
<text text-anchor="middle" x="439.5" y="-551.5" font-family="Helvetica,sans-Serif" font-size="10.00" fill="#000000">AreRestrictedAssetsDeployed</text>
</a>
</g>
</g>
<!-- Node192&#45;&gt;Node193 -->
<g id="edge1" class="edge">
<title>Node192&#45;&gt;Node193</title>
<path fill="none" stroke="#191970" d="M62.7304,-392.7106C71.1634,-420.6635 99.6883,-501.4591 156,-535 224.1074,-575.5668 318.4241,-572.6895 379.2057,-564.9259"/>
<polygon fill="#191970" stroke="#191970" points="379.97,-568.3542 389.4063,-563.5369 379.0255,-561.4182 379.97,-568.3542"/>
</g>
<!-- Node194 -->
<g id="node3" class="node">
<title>Node194</title>
<g id="a_node3"><a xlink:href="class_uni_value.html#a5a7394aeb8d5584db7a90c2c041726b1" target="_top" xlink:title="UniValue::size">
<polygon fill="#ffffff" stroke="#000000" points="200,-468.5 200,-487.5 280,-487.5 280,-468.5 200,-468.5"/>
<text text-anchor="middle" x="240" y="-475.5" font-family="Helvetica,sans-Serif" font-size="10.00" fill="#000000">UniValue::size</text>
</a>
</g>
</g>
<!-- Node192&#45;&gt;Node194 -->
<g id="edge2" class="edge">
<title>Node192&#45;&gt;Node194</title>
<path fill="none" stroke="#191970" d="M69.0904,-392.5889C85.0731,-408.8538 119.9463,-441.7597 156,-459 166.5371,-464.0387 178.4651,-467.7715 189.9539,-470.5262"/>
<polygon fill="#191970" stroke="#191970" points="189.3737,-473.982 199.8911,-472.7034 190.872,-467.1442 189.3737,-473.982"/>
</g>
<!-- Node195 -->
<g id="node4" class="node">
<title>Node195</title>
<g id="a_node4"><a xlink:href="rpc_2assets_8cpp.html#ad466b6c98e6b988560e602c272c101f7" target="_top" xlink:title="RestrictedActivationWarning">
<polygon fill="#ffffff" stroke="#000000" points="169.5,-506.5 169.5,-525.5 310.5,-525.5 310.5,-506.5 169.5,-506.5"/>
<text text-anchor="middle" x="240" y="-513.5" font-family="Helvetica,sans-Serif" font-size="10.00" fill="#000000">RestrictedActivationWarning</text>
</a>
</g>
</g>
<!-- Node192&#45;&gt;Node195 -->
<g id="edge3" class="edge">
<title>Node192&#45;&gt;Node195</title>
<path fill="none" stroke="#191970" d="M65.2374,-392.7812C77.7287,-415.1053 111.5721,-469.9638 156,-497 159.5923,-499.1861 163.4092,-501.1211 167.3579,-502.8339"/>
<polygon fill="#191970" stroke="#191970" points="166.1769,-506.1295 176.7672,-506.4407 168.6824,-499.5933 166.1769,-506.1295"/>
</g>
<!-- Node196 -->
<g id="node5" class="node">
<title>Node196</title>
<g id="a_node5"><a xlink:href="server_8cpp.html#a26bafe3d526ee8cbc84b3c0b0dc3a43b" target="_top" xlink:title="HelpExampleCli">
<polygon fill="#ffffff" stroke="#000000" points="196.5,-430.5 196.5,-449.5 283.5,-449.5 283.5,-430.5 196.5,-430.5"/>
<text text-anchor="middle" x="240" y="-437.5" font-family="Helvetica,sans-Serif" font-size="10.00" fill="#000000">HelpExampleCli</text>
</a>
</g>
</g>
<!-- Node192&#45;&gt;Node196 -->
<g id="edge5" class="edge">
<title>Node192&#45;&gt;Node196</title>
<path fill="none" stroke="#191970" d="M81.3912,-392.5725C100.6244,-400.9117 129.7972,-412.9038 156,-421 165.7498,-424.0125 176.2713,-426.7692 186.4602,-429.1923"/>
<polygon fill="#191970" stroke="#191970" points="185.9671,-432.6703 196.4973,-431.5014 187.5366,-425.8485 185.9671,-432.6703"/>
</g>
<!-- Node197 -->
<g id="node6" class="node">
<title>Node197</title>
<g id="a_node6"><a xlink:href="server_8cpp.html#a9ef4f8fb114508ceb861a0e8c3e0d26e" target="_top" xlink:title="HelpExampleRpc">
<polygon fill="#ffffff" stroke="#000000" points="193.5,-392.5 193.5,-411.5 286.5,-411.5 286.5,-392.5 193.5,-392.5"/>
<text text-anchor="middle" x="240" y="-399.5" font-family="Helvetica,sans-Serif" font-size="10.00" fill="#000000">HelpExampleRpc</text>
</a>
</g>
</g>
<!-- Node192&#45;&gt;Node197 -->
<g id="edge6" class="edge">
<title>Node192&#45;&gt;Node197</title>
<path fill="none" stroke="#191970" d="M120.1876,-389.3531C140.4659,-391.4936 163.0205,-393.8744 183.0419,-395.9878"/>
<polygon fill="#191970" stroke="#191970" points="182.9432,-399.4967 193.2553,-397.0658 183.678,-392.5354 182.9432,-399.4967"/>
</g>
<!-- Node198 -->
<g id="node7" class="node">
<title>Node198</title>
<g id="a_node7"><a xlink:href="rpc_2protocol_8cpp.html#a40b75d3d265c4a2e1d5fe3e129743884" target="_top" xlink:title="JSONRPCError">
<polygon fill="#ffffff" stroke="#000000" points="197,-354.5 197,-373.5 283,-373.5 283,-354.5 197,-354.5"/>
<text text-anchor="middle" x="240" y="-361.5" font-family="Helvetica,sans-Serif" font-size="10.00" fill="#000000">JSONRPCError</text>
</a>
</g>
</g>
<!-- Node192&#45;&gt;Node198 -->
<g id="edge7" class="edge">
<title>Node192&#45;&gt;Node198</title>
<path fill="none" stroke="#191970" d="M120.1876,-376.6469C141.7937,-374.3662 165.984,-371.8128 186.9409,-369.6007"/>
<polygon fill="#191970" stroke="#191970" points="187.3663,-373.0753 196.9436,-368.5448 186.6314,-366.114 187.3663,-373.0753"/>
</g>
<!-- Node230 -->
<g id="node33" class="node">
<title>Node230</title>
<g id="a_node33"><a xlink:href="class_uni_value.html#a087ea6ccec615333371fa1aaf83ab7df" target="_top" xlink:title="UniValue::get_str">
<polygon fill="#ffffff" stroke="#000000" points="194,-316.5 194,-335.5 286,-335.5 286,-316.5 194,-316.5"/>
<text text-anchor="middle" x="240" y="-323.5" font-family="Helvetica,sans-Serif" font-size="10.00" fill="#000000">UniValue::get_str</text>
</a>
</g>
</g>
<!-- Node192&#45;&gt;Node230 -->
<g id="edge36" class="edge">
<title>Node192&#45;&gt;Node230</title>
<path fill="none" stroke="#191970" d="M81.3912,-373.4275C100.6244,-365.0883 129.7972,-353.0962 156,-345 165.0121,-342.2154 174.6835,-339.6494 184.1422,-337.3634"/>
<polygon fill="#191970" stroke="#191970" points="184.9451,-340.7701 193.8855,-335.085 183.3512,-333.954 184.9451,-340.7701"/>
</g>
<!-- Node232 -->
<g id="node35" class="node">
<title>Node232</title>
<g id="a_node35"><a xlink:href="base58_8cpp.html#a8a781e21ad4ecccd9c97c7d890ef7d6f" target="_top" xlink:title="DecodeDestination">
<polygon fill="#ffffff" stroke="#000000" points="190,-278.5 190,-297.5 290,-297.5 290,-278.5 190,-278.5"/>
<text text-anchor="middle" x="240" y="-285.5" font-family="Helvetica,sans-Serif" font-size="10.00" fill="#000000">DecodeDestination</text>
</a>
</g>
</g>
<!-- Node192&#45;&gt;Node232 -->
<g id="edge38" class="edge">
<title>Node192&#45;&gt;Node232</title>
<path fill="none" stroke="#191970" d="M69.0904,-373.4111C85.0731,-357.1462 119.9463,-324.2403 156,-307 163.5622,-303.3839 171.8408,-300.4404 180.1592,-298.0483"/>
<polygon fill="#191970" stroke="#191970" points="181.1211,-301.4144 189.9022,-295.4862 179.3409,-294.6446 181.1211,-301.4144"/>
</g>
<!-- Node239 -->
<g id="node42" class="node">
<title>Node239</title>
<g id="a_node42"><a xlink:href="standard_8cpp.html#adb3a21e4afe9c672720b182ddc7cad7c" target="_top" xlink:title="Check whether a CTxDestination is a CNoDestination. ">
<polygon fill="#ffffff" stroke="#000000" points="192,-240.5 192,-259.5 288,-259.5 288,-240.5 192,-240.5"/>
<text text-anchor="middle" x="240" y="-247.5" font-family="Helvetica,sans-Serif" font-size="10.00" fill="#000000">IsValidDestination</text>
</a>
</g>
</g>
<!-- Node192&#45;&gt;Node239 -->
<g id="edge45" class="edge">
<title>Node192&#45;&gt;Node239</title>
<path fill="none" stroke="#191970" d="M65.2374,-373.2188C77.7287,-350.8947 111.5721,-296.0362 156,-269 163.8791,-264.2052 172.8385,-260.618 181.9,-257.9347"/>
<polygon fill="#191970" stroke="#191970" points="182.9382,-261.281 191.7265,-255.3636 181.1662,-254.509 182.9382,-261.281"/>
</g>
<!-- Node240 -->
<g id="node43" class="node">
<title>Node240</title>
<g id="a_node43"><a xlink:href="class_c_assets_cache.html#a47bf79cae996da8e22ae785cddb09288" target="_top" xlink:title="Return true if the address is marked as frozen. ">
<polygon fill="#ffffff" stroke="#000000" points="156,-92 156,-122 324,-122 324,-92 156,-92"/>
<text text-anchor="start" x="164" y="-110" font-family="Helvetica,sans-Serif" font-size="10.00" fill="#000000">CAssetsCache::CheckForAddress</text>
<text text-anchor="middle" x="240" y="-99" font-family="Helvetica,sans-Serif" font-size="10.00" fill="#000000">Restriction</text>
</a>
</g>
</g>
<!-- Node192&#45;&gt;Node240 -->
<g id="edge46" class="edge">
<title>Node192&#45;&gt;Node240</title>
<path fill="none" stroke="#191970" d="M65.9588,-373.3284C80.8774,-349.1668 121.1406,-284.2808 156,-231 179.0757,-195.73 206.6062,-155.4109 223.6987,-130.577"/>
<polygon fill="#191970" stroke="#191970" points="226.7025,-132.3862 229.4961,-122.1663 220.9391,-128.4135 226.7025,-132.3862"/>
</g>
<!-- Node195&#45;&gt;Node193 -->
<g id="edge4" class="edge">
<title>Node195&#45;&gt;Node193</title>
<path fill="none" stroke="#191970" d="M290.0848,-525.54C317.239,-530.7122 350.9857,-537.1401 379.5332,-542.5778"/>
<polygon fill="#191970" stroke="#191970" points="378.9163,-546.0231 389.3946,-544.4561 380.2262,-539.1467 378.9163,-546.0231"/>
</g>
<!-- Node199 -->
<g id="node8" class="node">
<title>Node199</title>
<g id="a_node8"><a xlink:href="util_8h.html#a96c5fc7111f69f7dcaba992d95d13e03" target="_top" xlink:title="error">
<polygon fill="#ffffff" stroke="#000000" points="421.5,-506.5 421.5,-525.5 457.5,-525.5 457.5,-506.5 421.5,-506.5"/>
<text text-anchor="middle" x="439.5" y="-513.5" font-family="Helvetica,sans-Serif" font-size="10.00" fill="#000000">error</text>
</a>
</g>
</g>
<!-- Node198&#45;&gt;Node199 -->
<g id="edge8" class="edge">
<title>Node198&#45;&gt;Node199</title>
<path fill="none" stroke="#191970" d="M283.4183,-368.4404C297.0999,-371.212 311.8102,-375.7084 324,-383 372.5734,-412.0553 411.2822,-468.6144 429.0018,-497.7225"/>
<polygon fill="#191970" stroke="#191970" points="426.0758,-499.6501 434.1903,-506.4622 432.0949,-496.0766 426.0758,-499.6501"/>
</g>
<!-- Node229 -->
<g id="node32" class="node">
<title>Node229</title>
<g id="a_node32"><a xlink:href="class_uni_value.html#a944cd1b59b040cd24c9f46b55a68d49a" target="_top" xlink:title="UniValue::push_back">
<polygon fill="#ffffff" stroke="#000000" points="384.5,-354.5 384.5,-373.5 494.5,-373.5 494.5,-354.5 384.5,-354.5"/>
<text text-anchor="middle" x="439.5" y="-361.5" font-family="Helvetica,sans-Serif" font-size="10.00" fill="#000000">UniValue::push_back</text>
</a>
</g>
</g>
<!-- Node198&#45;&gt;Node229 -->
<g id="edge35" class="edge">
<title>Node198&#45;&gt;Node229</title>
<path fill="none" stroke="#191970" d="M283.2885,-364C309.7367,-364 344.081,-364 373.8292,-364"/>
<polygon fill="#191970" stroke="#191970" points="374.1393,-367.5001 384.1393,-364 374.1392,-360.5001 374.1393,-367.5001"/>
</g>
<!-- Node200 -->
<g id="node9" class="node">
<title>Node200</title>
<g id="a_node9"><a xlink:href="util_8h.html#afd4c3002b2797c0560adddb6af3ca1da" target="_top" xlink:title="Send a string to the log output. ">
<polygon fill="#ffffff" stroke="#000000" points="596.5,-677.5 596.5,-696.5 661.5,-696.5 661.5,-677.5 596.5,-677.5"/>
<text text-anchor="middle" x="629" y="-684.5" font-family="Helvetica,sans-Serif" font-size="10.00" fill="#000000">LogPrintStr</text>
</a>
</g>
</g>
<!-- Node199&#45;&gt;Node200 -->
<g id="edge9" class="edge">
<title>Node199&#45;&gt;Node200</title>
<path fill="none" stroke="#191970" d="M457.7811,-515.34C475.7263,-515.7173 502.7079,-519.1855 519,-535 562.9413,-577.6531 511.4172,-624.9807 555,-668 563.3963,-676.2877 574.8912,-681.1101 586.3178,-683.8746"/>
<polygon fill="#191970" stroke="#191970" points="585.7779,-687.3351 596.2623,-685.8096 587.115,-680.4639 585.7779,-687.3351"/>
</g>
<!-- Node201 -->
<g id="node10" class="node">
<title>Node201</title>
<g id="a_node10"><a xlink:href="namespacetinyformat.html#a05144619d8b16e2b31b2594ca9c6bf1d" target="_top" xlink:title="Format list of arguments to the stream according to given format string. ">
<polygon fill="#ffffff" stroke="#000000" points="582,-221.5 582,-240.5 676,-240.5 676,-221.5 582,-221.5"/>
<text text-anchor="middle" x="629" y="-228.5" font-family="Helvetica,sans-Serif" font-size="10.00" fill="#000000">tinyformat::format</text>
</a>
</g>
</g>
<!-- Node199&#45;&gt;Node201 -->
<g id="edge10" class="edge">
<title>Node199&#45;&gt;Node201</title>
<path fill="none" stroke="#191970" d="M446.4569,-506.4839C461.6438,-485.3096 498.0769,-432.2746 519,-383 542.9347,-326.6329 511.4172,-293.0193 555,-250 559.8836,-245.1795 565.8156,-241.5314 572.1726,-238.7787"/>
<polygon fill="#191970" stroke="#191970" points="573.4874,-242.0254 581.718,-235.354 571.1235,-235.4367 573.4874,-242.0254"/>
</g>
<!-- Node210 -->
<g id="node13" class="node">
<title>Node210</title>
<g id="a_node13"><a xlink:href="util_8h.html#aaada8c5faa502eb0c33fc01294955db8" target="_top" xlink:title="PrintExceptionContinue">
<polygon fill="#ffffff" stroke="#000000" points="569.5,-601.5 569.5,-620.5 688.5,-620.5 688.5,-601.5 569.5,-601.5"/>
<text text-anchor="middle" x="629" y="-608.5" font-family="Helvetica,sans-Serif" font-size="10.00" fill="#000000">PrintExceptionContinue</text>
</a>
</g>
</g>
<!-- Node199&#45;&gt;Node210 -->
<g id="edge13" class="edge">
<title>Node199&#45;&gt;Node210</title>
<path fill="none" stroke="#191970" d="M457.5146,-516.4856C474.7558,-517.7737 500.7652,-521.9534 519,-535 543.3681,-552.4348 530.7786,-574.3619 555,-592 557.6806,-593.952 560.5433,-595.7039 563.5271,-597.2763"/>
<polygon fill="#191970" stroke="#191970" points="562.2277,-600.5301 572.7803,-601.475 565.1202,-594.1556 562.2277,-600.5301"/>
</g>
<!-- Node211 -->
<g id="node14" class="node">
<title>Node211</title>
<g id="a_node14"><a xlink:href="util_8h.html#af0e69a29ba128b74030ad8a213f2037a" target="_top" xlink:title="FileCommit">
<polygon fill="#ffffff" stroke="#000000" points="595.5,-563.5 595.5,-582.5 662.5,-582.5 662.5,-563.5 595.5,-563.5"/>
<text text-anchor="middle" x="629" y="-570.5" font-family="Helvetica,sans-Serif" font-size="10.00" fill="#000000">FileCommit</text>
</a>
</g>
</g>
<!-- Node199&#45;&gt;Node211 -->
<g id="edge14" class="edge">
<title>Node199&#45;&gt;Node211</title>
<path fill="none" stroke="#191970" d="M457.5648,-518.9777C473.933,-521.9878 498.5479,-527.2993 519,-535 535.9313,-541.3751 538.1227,-547.4835 555,-554 564.6514,-557.7265 575.2913,-560.946 585.4212,-563.6216"/>
<polygon fill="#191970" stroke="#191970" points="584.7739,-567.0677 595.3257,-566.1144 586.4824,-560.2794 584.7739,-567.0677"/>
</g>
<!-- Node212 -->
<g id="node15" class="node">
<title>Node212</title>
<g id="a_node15"><a xlink:href="util_8h.html#acb8d6b822bc1bfa609bf43bbac1a0d44" target="_top" xlink:title="TruncateFile">
<polygon fill="#ffffff" stroke="#000000" points="593.5,-525.5 593.5,-544.5 664.5,-544.5 664.5,-525.5 593.5,-525.5"/>
<text text-anchor="middle" x="629" y="-532.5" font-family="Helvetica,sans-Serif" font-size="10.00" fill="#000000">TruncateFile</text>
</a>
</g>
</g>
<!-- Node199&#45;&gt;Node212 -->
<g id="edge15" class="edge">
<title>Node199&#45;&gt;Node212</title>
<path fill="none" stroke="#191970" d="M457.6701,-517.8218C486.3037,-520.6927 542.8067,-526.3579 583.0941,-530.3973"/>
<polygon fill="#191970" stroke="#191970" points="582.918,-533.8971 593.2173,-531.4123 583.6164,-526.932 582.918,-533.8971"/>
</g>
<!-- Node213 -->
<g id="node16" class="node">
<title>Node213</title>
<g id="a_node16"><a xlink:href="util_8h.html#a756a5c49a4bb607d16d9842f8f3ede4f" target="_top" xlink:title="this function tries to raise the file descriptor limit to the requested number. ">
<polygon fill="#ffffff" stroke="#000000" points="567,-487.5 567,-506.5 691,-506.5 691,-487.5 567,-487.5"/>
<text text-anchor="middle" x="629" y="-494.5" font-family="Helvetica,sans-Serif" font-size="10.00" fill="#000000">RaiseFileDescriptorLimit</text>
</a>
</g>
</g>
<!-- Node199&#45;&gt;Node213 -->
<g id="edge16" class="edge">
<title>Node199&#45;&gt;Node213</title>
<path fill="none" stroke="#191970" d="M457.6701,-514.1782C480.448,-511.8944 520.8621,-507.8423 556.7198,-504.2471"/>
<polygon fill="#191970" stroke="#191970" points="557.0934,-507.7273 566.6943,-503.247 556.395,-500.7622 557.0934,-507.7273"/>
</g>
<!-- Node214 -->
<g id="node17" class="node">
<title>Node214</title>
<g id="a_node17"><a xlink:href="util_8h.html#a91c763bffc49cf7ed8d45cc44870e55c" target="_top" xlink:title="this function tries to make a particular range of a file allocated (corresponding to disk space) it i...">
<polygon fill="#ffffff" stroke="#000000" points="581,-449.5 581,-468.5 677,-468.5 677,-449.5 581,-449.5"/>
<text text-anchor="middle" x="629" y="-456.5" font-family="Helvetica,sans-Serif" font-size="10.00" fill="#000000">AllocateFileRange</text>
</a>
</g>
</g>
<!-- Node199&#45;&gt;Node214 -->
<g id="edge17" class="edge">
<title>Node199&#45;&gt;Node214</title>
<path fill="none" stroke="#191970" d="M457.7857,-509.566C480.4593,-501.685 520.3547,-488.1347 555,-478 563.052,-475.6446 571.6424,-473.2932 580.0137,-471.0877"/>
<polygon fill="#191970" stroke="#191970" points="580.8952,-474.4749 589.6947,-468.5741 579.136,-467.6996 580.8952,-474.4749"/>
</g>
<!-- Node215 -->
<g id="node18" class="node">
<title>Node215</title>
<g id="a_node18"><a xlink:href="util_8h.html#a579657da2b55b131ecd453bf1b0d2314" target="_top" xlink:title="RenameOver">
<polygon fill="#ffffff" stroke="#000000" points="592,-411.5 592,-430.5 666,-430.5 666,-411.5 592,-411.5"/>
<text text-anchor="middle" x="629" y="-418.5" font-family="Helvetica,sans-Serif" font-size="10.00" fill="#000000">RenameOver</text>
</a>
</g>
</g>
<!-- Node199&#45;&gt;Node215 -->
<g id="edge18" class="edge">
<title>Node199&#45;&gt;Node215</title>
<path fill="none" stroke="#191970" d="M451.2033,-506.3718C471.2442,-490.345 513.9532,-458.166 555,-440 563.462,-436.255 572.8077,-433.1401 581.9269,-430.59"/>
<polygon fill="#191970" stroke="#191970" points="582.8905,-433.9558 591.6809,-428.0414 581.1209,-427.1831 582.8905,-433.9558"/>
</g>
<!-- Node216 -->
<g id="node19" class="node">
<title>Node216</title>
<g id="a_node19"><a xlink:href="util_8h.html#a9042a919d837da9d97311a0c460c597c" target="_top" xlink:title="Ignores exceptions thrown by Boost&#39;s create_directories if the requested directory exists...">
<polygon fill="#ffffff" stroke="#000000" points="575.5,-373.5 575.5,-392.5 682.5,-392.5 682.5,-373.5 575.5,-373.5"/>
<text text-anchor="middle" x="629" y="-380.5" font-family="Helvetica,sans-Serif" font-size="10.00" fill="#000000">TryCreateDirectories</text>
</a>
</g>
</g>
<!-- Node199&#45;&gt;Node216 -->
<g id="edge19" class="edge">
<title>Node199&#45;&gt;Node216</title>
<path fill="none" stroke="#191970" d="M446.3786,-506.3381C462.6216,-484.2647 505.7175,-429.8972 555,-402 558.9372,-399.7713 563.1389,-397.7992 567.4648,-396.0548"/>
<polygon fill="#191970" stroke="#191970" points="568.8584,-399.273 577.0787,-392.5889 566.4843,-392.6879 568.8584,-399.273"/>
</g>
<!-- Node217 -->
<g id="node20" class="node">
<title>Node217</title>
<g id="a_node20"><a xlink:href="util_8h.html#a15cb85964fe08c264605537f44570d3c" target="_top" xlink:title="GetDefaultDataDir">
<polygon fill="#ffffff" stroke="#000000" points="580,-335.5 580,-354.5 678,-354.5 678,-335.5 580,-335.5"/>
<text text-anchor="middle" x="629" y="-342.5" font-family="Helvetica,sans-Serif" font-size="10.00" fill="#000000">GetDefaultDataDir</text>
</a>
</g>
</g>
<!-- Node199&#45;&gt;Node217 -->
<g id="edge20" class="edge">
<title>Node199&#45;&gt;Node217</title>
<path fill="none" stroke="#191970" d="M443.9147,-506.3857C456.8283,-479.3807 497.2944,-402.3177 555,-364 559.6271,-360.9275 564.7204,-358.3518 570.0036,-356.1926"/>
<polygon fill="#191970" stroke="#191970" points="571.4222,-359.4024 579.6588,-352.7384 569.0643,-352.8115 571.4222,-359.4024"/>
</g>
<!-- Node218 -->
<g id="node21" class="node">
<title>Node218</title>
<g id="a_node21"><a xlink:href="util_8h.html#abb63dfb710832aefb746933af05198d4" target="_top" xlink:title="GetDataDir">
<polygon fill="#ffffff" stroke="#000000" points="596,-297.5 596,-316.5 662,-316.5 662,-297.5 596,-297.5"/>
<text text-anchor="middle" x="629" y="-304.5" font-family="Helvetica,sans-Serif" font-size="10.00" fill="#000000">GetDataDir</text>
</a>
</g>
</g>
<!-- Node199&#45;&gt;Node218 -->
<g id="edge21" class="edge">
<title>Node199&#45;&gt;Node218</title>
<path fill="none" stroke="#191970" d="M445.1463,-506.4947C467.7519,-468.4667 550.7167,-329.1755 555,-326 563.9736,-319.3472 575.0517,-315.0153 585.8786,-312.1974"/>
<polygon fill="#191970" stroke="#191970" points="586.6844,-315.6037 595.6833,-310.0119 585.1614,-308.7714 586.6844,-315.6037"/>
</g>
<!-- Node219 -->
<g id="node22" class="node">
<title>Node219</title>
<g id="a_node22"><a xlink:href="util_8h.html#abfb50dfe077aced7591f2aba601f605d" target="_top" xlink:title="ClearDatadirCache">
<polygon fill="#ffffff" stroke="#000000" points="579,-259.5 579,-278.5 679,-278.5 679,-259.5 579,-259.5"/>
<text text-anchor="middle" x="629" y="-266.5" font-family="Helvetica,sans-Serif" font-size="10.00" fill="#000000">ClearDatadirCache</text>
</a>
</g>
</g>
<!-- Node199&#45;&gt;Node219 -->
<g id="edge22" class="edge">
<title>Node199&#45;&gt;Node219</title>
<path fill="none" stroke="#191970" d="M446.1021,-506.3229C460.5814,-484.8275 495.6913,-431.192 519,-383 538.6597,-342.3526 521.3522,-318.1089 555,-288 559.2009,-284.241 564.0464,-281.2064 569.2069,-278.7593"/>
<polygon fill="#191970" stroke="#191970" points="570.765,-281.9064 578.7645,-274.9595 568.1789,-275.4016 570.765,-281.9064"/>
</g>
<!-- Node220 -->
<g id="node23" class="node">
<title>Node220</title>
<g id="a_node23"><a xlink:href="util_8h.html#aa634f312705d4811dfa2a5392bddf6cf" target="_top" xlink:title="GetConfigFile">
<polygon fill="#ffffff" stroke="#000000" points="590.5,-829.5 590.5,-848.5 667.5,-848.5 667.5,-829.5 590.5,-829.5"/>
<text text-anchor="middle" x="629" y="-836.5" font-family="Helvetica,sans-Serif" font-size="10.00" fill="#000000">GetConfigFile</text>
</a>
</g>
</g>
<!-- Node199&#45;&gt;Node220 -->
<g id="edge23" class="edge">
<title>Node199&#45;&gt;Node220</title>
<path fill="none" stroke="#191970" d="M457.5772,-514.8805C475.8939,-514.8214 503.6534,-517.8833 519,-535 604.2295,-630.0599 470.5689,-724.2303 555,-820 561.6444,-827.5367 570.8358,-832.2768 580.4852,-835.2154"/>
<polygon fill="#191970" stroke="#191970" points="579.6649,-838.6179 590.2098,-837.5904 581.3257,-831.8177 579.6649,-838.6179"/>
</g>
<!-- Node222 -->
<g id="node25" class="node">
<title>Node222</title>
<g id="a_node25"><a xlink:href="util_8h.html#aa0172eabeecce5061826cb19990fbde2" target="_top" xlink:title="GetPidFile">
<polygon fill="#ffffff" stroke="#000000" points="598,-867.5 598,-886.5 660,-886.5 660,-867.5 598,-867.5"/>
<text text-anchor="middle" x="629" y="-874.5" font-family="Helvetica,sans-Serif" font-size="10.00" fill="#000000">GetPidFile</text>
</a>
</g>
</g>
<!-- Node199&#45;&gt;Node222 -->
<g id="edge25" class="edge">
<title>Node199&#45;&gt;Node222</title>
<path fill="none" stroke="#191970" d="M457.6281,-514.8352C475.9863,-514.7391 503.7792,-517.7714 519,-535 614.6348,-643.2506 460.2743,-748.953 555,-858 563.2227,-867.4659 575.463,-872.5317 587.6326,-875.1563"/>
<polygon fill="#191970" stroke="#191970" points="587.3115,-878.6507 597.7487,-876.8298 588.454,-871.7445 587.3115,-878.6507"/>
</g>
<!-- Node224 -->
<g id="node27" class="node">
<title>Node224</title>
<g id="a_node27"><a xlink:href="util_8h.html#a1c0f9b041628dcb399a023bc9913f41d" target="_top" xlink:title="CreatePidFile">
<polygon fill="#ffffff" stroke="#000000" points="591,-639.5 591,-658.5 667,-658.5 667,-639.5 591,-639.5"/>
<text text-anchor="middle" x="629" y="-646.5" font-family="Helvetica,sans-Serif" font-size="10.00" fill="#000000">CreatePidFile</text>
</a>
</g>
</g>
<!-- Node199&#45;&gt;Node224 -->
<g id="edge28" class="edge">
<title>Node199&#45;&gt;Node224</title>
<path fill="none" stroke="#191970" d="M457.7958,-515.6967C475.4952,-516.3756 502.0603,-520.0953 519,-535 552.8985,-564.8263 521.3522,-599.8911 555,-630 562.2627,-636.4989 571.4524,-640.8323 580.8647,-643.7081"/>
<polygon fill="#191970" stroke="#191970" points="580.128,-647.1321 590.6824,-646.2069 581.8547,-640.3484 580.128,-647.1321"/>
</g>
<!-- Node226 -->
<g id="node29" class="node">
<title>Node226</title>
<g id="a_node29"><a xlink:href="util_8h.html#a1e755e72104d3ca393efc1cc3f41952a" target="_top" xlink:title="OpenDebugLog">
<polygon fill="#ffffff" stroke="#000000" points="587,-753.5 587,-772.5 671,-772.5 671,-753.5 587,-753.5"/>
<text text-anchor="middle" x="629" y="-760.5" font-family="Helvetica,sans-Serif" font-size="10.00" fill="#000000">OpenDebugLog</text>
</a>
</g>
</g>
<!-- Node199&#45;&gt;Node226 -->
<g id="edge30" class="edge">
<title>Node199&#45;&gt;Node226</title>
<path fill="none" stroke="#191970" d="M457.7612,-515.0231C475.9555,-515.1171 503.3699,-518.3359 519,-535 583.4825,-603.7485 491.095,-674.7144 555,-744 561.0111,-750.5172 568.9283,-754.9264 577.3463,-757.8841"/>
<polygon fill="#191970" stroke="#191970" points="576.4114,-761.257 586.9884,-760.6417 578.3362,-754.5269 576.4114,-761.257"/>
</g>
<!-- Node227 -->
<g id="node30" class="node">
<title>Node227</title>
<g id="a_node30"><a xlink:href="util_8h.html#a37fca7e305fe0caa306b23fdb37f88e2" target="_top" xlink:title="ShrinkDebugFile">
<polygon fill="#ffffff" stroke="#000000" points="584.5,-791.5 584.5,-810.5 673.5,-810.5 673.5,-791.5 584.5,-791.5"/>
<text text-anchor="middle" x="629" y="-798.5" font-family="Helvetica,sans-Serif" font-size="10.00" fill="#000000">ShrinkDebugFile</text>
</a>
</g>
</g>
<!-- Node199&#45;&gt;Node227 -->
<g id="edge31" class="edge">
<title>Node199&#45;&gt;Node227</title>
<path fill="none" stroke="#191970" d="M457.5115,-514.9401C475.7745,-514.9295 503.4908,-518.0305 519,-535 593.8421,-616.8891 480.8457,-699.4876 555,-782 560.2988,-787.8961 567.1568,-792.0747 574.5571,-795.0165"/>
<polygon fill="#191970" stroke="#191970" points="573.5525,-798.37 584.1443,-798.1174 575.7067,-791.7098 573.5525,-798.37"/>
</g>
<!-- Node228 -->
<g id="node31" class="node">
<title>Node228</title>
<g id="a_node31"><a xlink:href="util_8h.html#aa803aa631ab8b4bd79fa9d7b2172bf9a" target="_top" xlink:title="runCommand">
<polygon fill="#ffffff" stroke="#000000" points="591.5,-715.5 591.5,-734.5 666.5,-734.5 666.5,-715.5 591.5,-715.5"/>
<text text-anchor="middle" x="629" y="-722.5" font-family="Helvetica,sans-Serif" font-size="10.00" fill="#000000">runCommand</text>
</a>
</g>
</g>
<!-- Node199&#45;&gt;Node228 -->
<g id="edge34" class="edge">
<title>Node199&#45;&gt;Node228</title>
<path fill="none" stroke="#191970" d="M457.6352,-515.1435C475.7291,-515.3334 503.065,-518.6272 519,-535 573.169,-590.6571 501.2985,-649.8916 555,-706 562.0848,-713.4023 571.6321,-718.0673 581.5106,-720.973"/>
<polygon fill="#191970" stroke="#191970" points="580.8822,-724.4211 591.4205,-723.3284 582.5009,-717.6108 580.8822,-724.4211"/>
</g>
<!-- Node202 -->
<g id="node11" class="node">
<title>Node202</title>
<g id="a_node11"><a xlink:href="namespacetinyformat.html#a86ed74eb3ed66a662e96220d877da964" target="_top" xlink:title="Format list of arguments to the stream according to the given format string. ">
<polygon fill="#ffffff" stroke="#ff0000" points="758,-240.5 758,-259.5 857,-259.5 857,-240.5 758,-240.5"/>
<text text-anchor="middle" x="807.5" y="-247.5" font-family="Helvetica,sans-Serif" font-size="10.00" fill="#000000">tinyformat::vformat</text>
</a>
</g>
</g>
<!-- Node201&#45;&gt;Node202 -->
<g id="edge11" class="edge">
<title>Node201&#45;&gt;Node202</title>
<path fill="none" stroke="#191970" d="M676.3661,-236.0418C698.2288,-238.3689 724.4281,-241.1576 747.6413,-243.6285"/>
<polygon fill="#191970" stroke="#191970" points="747.4125,-247.1238 757.7268,-244.702 748.1535,-240.1631 747.4125,-247.1238"/>
</g>
<!-- Node209 -->
<g id="node12" class="node">
<title>Node209</title>
<g id="a_node12"><a xlink:href="namespacetinyformat.html#a37afaa5249c69dacd619269358f06f69" target="_top" xlink:title="Make type&#45;agnostic format list from list of template arguments. ">
<polygon fill="#ffffff" stroke="#000000" points="739,-202.5 739,-221.5 876,-221.5 876,-202.5 739,-202.5"/>
<text text-anchor="middle" x="807.5" y="-209.5" font-family="Helvetica,sans-Serif" font-size="10.00" fill="#000000">tinyformat::makeFormatList</text>
</a>
</g>
</g>
<!-- Node201&#45;&gt;Node209 -->
<g id="edge12" class="edge">
<title>Node201&#45;&gt;Node209</title>
<path fill="none" stroke="#191970" d="M676.3661,-225.9582C692.3388,-224.2581 710.6262,-222.3115 728.3728,-220.4225"/>
<polygon fill="#191970" stroke="#191970" points="729.1642,-223.8581 738.7376,-219.3192 728.4233,-216.8974 729.1642,-223.8581"/>
</g>
<!-- Node221 -->
<g id="node24" class="node">
<title>Node221</title>
<g id="a_node24"><a xlink:href="util_8cpp.html#a7ebe0bd091f7334aaead43904601e008" target="_top" xlink:title="GetDataDir">
<polygon fill="#ffffff" stroke="#000000" points="774.5,-829.5 774.5,-848.5 840.5,-848.5 840.5,-829.5 774.5,-829.5"/>
<text text-anchor="middle" x="807.5" y="-836.5" font-family="Helvetica,sans-Serif" font-size="10.00" fill="#000000">GetDataDir</text>
</a>
</g>
</g>
<!-- Node220&#45;&gt;Node221 -->
<g id="edge24" class="edge">
<title>Node220&#45;&gt;Node221</title>
<path fill="none" stroke="#191970" d="M667.7318,-839C696.0413,-839 734.4619,-839 763.8568,-839"/>
<polygon fill="#191970" stroke="#191970" points="764.2427,-842.5001 774.2427,-839 764.2427,-835.5001 764.2427,-842.5001"/>
</g>
<!-- Node222&#45;&gt;Node221 -->
<g id="edge27" class="edge">
<title>Node222&#45;&gt;Node221</title>
<path fill="none" stroke="#191970" d="M660.0923,-870.3809C688.9343,-864.2409 732.1285,-855.0455 764.3133,-848.1938"/>
<polygon fill="#191970" stroke="#191970" points="765.2918,-851.564 774.3438,-846.0585 763.8342,-844.7174 765.2918,-851.564"/>
</g>
<!-- Node223 -->
<g id="node26" class="node">
<title>Node223</title>
<g id="a_node26"><a xlink:href="class_args_manager.html#adb5d644d273b3a259f792affcdca8283" target="_top" xlink:title="Return string argument or default value. ">
<polygon fill="#ffffff" stroke="#000000" points="752,-867.5 752,-886.5 863,-886.5 863,-867.5 752,-867.5"/>
<text text-anchor="middle" x="807.5" y="-874.5" font-family="Helvetica,sans-Serif" font-size="10.00" fill="#000000">ArgsManager::GetArg</text>
</a>
</g>
</g>
<!-- Node222&#45;&gt;Node223 -->
<g id="edge26" class="edge">
<title>Node222&#45;&gt;Node223</title>
<path fill="none" stroke="#191970" d="M660.0923,-877C682.5994,-877 713.8463,-877 741.7812,-877"/>
<polygon fill="#191970" stroke="#191970" points="741.9008,-880.5001 751.9008,-877 741.9007,-873.5001 741.9008,-880.5001"/>
</g>
<!-- Node225 -->
<g id="node28" class="node">
<title>Node225</title>
<g id="a_node28"><a xlink:href="namespacefsbridge.html#a19c84cec4ae9accfbc88a83e48f7ee92" target="_top" xlink:title="fsbridge::fopen">
<polygon fill="#ffffff" stroke="#000000" points="767,-715.5 767,-734.5 848,-734.5 848,-715.5 767,-715.5"/>
<text text-anchor="middle" x="807.5" y="-722.5" font-family="Helvetica,sans-Serif" font-size="10.00" fill="#000000">fsbridge::fopen</text>
</a>
</g>
</g>
<!-- Node224&#45;&gt;Node225 -->
<g id="edge29" class="edge">
<title>Node224&#45;&gt;Node225</title>
<path fill="none" stroke="#191970" d="M667.2196,-656.8945C678.8964,-659.8146 691.6467,-663.5266 703,-668 732.1786,-679.4968 763.4858,-697.3937 784.1442,-710.0624"/>
<polygon fill="#191970" stroke="#191970" points="782.5009,-713.1622 792.8406,-715.4736 786.1991,-707.2188 782.5009,-713.1622"/>
</g>
<!-- Node227&#45;&gt;Node221 -->
<g id="edge32" class="edge">
<title>Node227&#45;&gt;Node221</title>
<path fill="none" stroke="#191970" d="M673.5826,-810.491C701.3268,-816.3973 736.8299,-823.9554 764.3089,-829.8053"/>
<polygon fill="#191970" stroke="#191970" points="763.9051,-833.2977 774.4148,-831.9566 765.3627,-826.4511 763.9051,-833.2977"/>
</g>
<!-- Node227&#45;&gt;Node225 -->
<g id="edge33" class="edge">
<title>Node227&#45;&gt;Node225</title>
<path fill="none" stroke="#191970" d="M673.787,-791.4058C683.5608,-788.7876 693.7446,-785.6468 703,-782 732.1786,-770.5032 763.4858,-752.6063 784.1442,-739.9376"/>
<polygon fill="#191970" stroke="#191970" points="786.1991,-742.7812 792.8406,-734.5264 782.5009,-736.8378 786.1991,-742.7812"/>
</g>
<!-- Node231 -->
<g id="node34" class="node">
<title>Node231</title>
<g id="a_node34"><a xlink:href="class_uni_value.html#a4c9a5fa9114affbf31f6e346c032be12" target="_top" xlink:title="UniValue::getValStr">
<polygon fill="#ffffff" stroke="#000000" points="388,-316.5 388,-335.5 491,-335.5 491,-316.5 388,-316.5"/>
<text text-anchor="middle" x="439.5" y="-323.5" font-family="Helvetica,sans-Serif" font-size="10.00" fill="#000000">UniValue::getValStr</text>
</a>
</g>
</g>
<!-- Node230&#45;&gt;Node231 -->
<g id="edge37" class="edge">
<title>Node230&#45;&gt;Node231</title>
<path fill="none" stroke="#191970" d="M286.2708,-326C313.4538,-326 348.1596,-326 377.6655,-326"/>
<polygon fill="#191970" stroke="#191970" points="377.8644,-329.5001 387.8643,-326 377.8643,-322.5001 377.8644,-329.5001"/>
</g>
<!-- Node233 -->
<g id="node36" class="node">
<title>Node233</title>
<g id="a_node36"><a xlink:href="class_c_raven_address.html#a5e7e76de59b448a766b7e0c7b959280e" target="_top" xlink:title="CRavenAddress::Get">
<polygon fill="#ffffff" stroke="#000000" points="384.5,-170.5 384.5,-189.5 494.5,-189.5 494.5,-170.5 384.5,-170.5"/>
<text text-anchor="middle" x="439.5" y="-177.5" font-family="Helvetica,sans-Serif" font-size="10.00" fill="#000000">CRavenAddress::Get</text>
</a>
</g>
</g>
<!-- Node232&#45;&gt;Node233 -->
<g id="edge39" class="edge">
<title>Node232&#45;&gt;Node233</title>
<path fill="none" stroke="#191970" d="M290.0503,-280.4136C301.5252,-277.6642 313.4459,-273.9621 324,-269 363.2057,-250.5672 401.6096,-217.0054 422.7629,-196.7797"/>
<polygon fill="#191970" stroke="#191970" points="425.269,-199.2246 429.9912,-189.7403 420.3852,-194.2098 425.269,-199.2246"/>
</g>
<!-- Node234 -->
<g id="node37" class="node">
<title>Node234</title>
<g id="a_node37"><a xlink:href="glibc__compat_8cpp.html#a0f46826ab0466591e136db24394923cf" target="_top" xlink:title="memcpy">
<polygon fill="#ffffff" stroke="#000000" points="602,-107.5 602,-126.5 656,-126.5 656,-107.5 602,-107.5"/>
<text text-anchor="middle" x="629" y="-114.5" font-family="Helvetica,sans-Serif" font-size="10.00" fill="#000000">memcpy</text>
</a>
</g>
</g>
<!-- Node233&#45;&gt;Node234 -->
<g id="edge40" class="edge">
<title>Node233&#45;&gt;Node234</title>
<path fill="none" stroke="#191970" d="M462.241,-170.4642C485.3424,-160.985 522.2795,-146.3967 555,-136 566.8303,-132.241 579.9005,-128.6912 591.723,-125.6999"/>
<polygon fill="#191970" stroke="#191970" points="592.8624,-129.0236 601.7288,-123.2239 591.1808,-122.2286 592.8624,-129.0236"/>
</g>
<!-- Node237 -->
<g id="node40" class="node">
<title>Node237</title>
<g id="a_node40"><a xlink:href="chainparams_8cpp.html#ace5c5b706d71a324a417dd2db394fd4a" target="_top" xlink:title="Return the currently selected parameters. ">
<polygon fill="#ffffff" stroke="#000000" points="604,-183.5 604,-202.5 654,-202.5 654,-183.5 604,-183.5"/>
<text text-anchor="middle" x="629" y="-190.5" font-family="Helvetica,sans-Serif" font-size="10.00" fill="#000000">Params</text>
</a>
</g>
</g>
<!-- Node233&#45;&gt;Node237 -->
<g id="edge43" class="edge">
<title>Node233&#45;&gt;Node237</title>
<path fill="none" stroke="#191970" d="M494.5658,-183.7776C526.5424,-185.9712 565.8793,-188.6698 593.7187,-190.5796"/>
<polygon fill="#191970" stroke="#191970" points="593.57,-194.0776 603.7861,-191.2703 594.0492,-187.094 593.57,-194.0776"/>
</g>
<!-- Node238 -->
<g id="node41" class="node">
<title>Node238</title>
<g id="a_node41"><a xlink:href="class_c_chain_params.html#a103c58eca4a26a71201882b3ed6c4cb4" target="_top" xlink:title="CChainParams::Base58Prefix">
<polygon fill="#ffffff" stroke="#000000" points="555,-145.5 555,-164.5 703,-164.5 703,-145.5 555,-145.5"/>
<text text-anchor="middle" x="629" y="-152.5" font-family="Helvetica,sans-Serif" font-size="10.00" fill="#000000">CChainParams::Base58Prefix</text>
</a>
</g>
</g>
<!-- Node233&#45;&gt;Node238 -->
<g id="edge44" class="edge">
<title>Node233&#45;&gt;Node238</title>
<path fill="none" stroke="#191970" d="M494.5658,-172.7354C510.826,-170.5902 528.9894,-168.194 546.5765,-165.8738"/>
<polygon fill="#191970" stroke="#191970" points="547.3898,-169.2969 556.8461,-164.519 546.4742,-162.3571 547.3898,-169.2969"/>
</g>
<!-- Node235 -->
<g id="node38" class="node">
<title>Node235</title>
<g id="a_node38"><a xlink:href="glibc__compat_8cpp.html#a9778d49e9029dd75bc53ecbbf9f5e9a1" target="_top" xlink:title="memmove">
<polygon fill="#ffffff" stroke="#000000" points="776.5,-95.5 776.5,-114.5 838.5,-114.5 838.5,-95.5 776.5,-95.5"/>
<text text-anchor="middle" x="807.5" y="-102.5" font-family="Helvetica,sans-Serif" font-size="10.00" fill="#000000">memmove</text>
</a>
</g>
</g>
<!-- Node234&#45;&gt;Node235 -->
<g id="edge41" class="edge">
<title>Node234&#45;&gt;Node235</title>
<path fill="none" stroke="#191970" d="M656.1103,-115.1775C685.3659,-113.2107 732.3059,-110.0551 766.1665,-107.7787"/>
<polygon fill="#191970" stroke="#191970" points="766.4783,-111.2658 776.221,-107.1028 766.0087,-104.2815 766.4783,-111.2658"/>
</g>
<!-- Node236 -->
<g id="node39" class="node">
<title>Node236</title>
<g id="a_node39"><a xlink:href="glibc__compat_8cpp.html#a424ac71631da5ada2976630ff67051d1" target="_top" xlink:title="__chk_fail">
<polygon fill="#ffffff" stroke="#000000" points="777,-133.5 777,-152.5 838,-152.5 838,-133.5 777,-133.5"/>
<text text-anchor="middle" x="807.5" y="-140.5" font-family="Helvetica,sans-Serif" font-size="10.00" fill="#000000">__chk_fail</text>
</a>
</g>
</g>
<!-- Node234&#45;&gt;Node236 -->
<g id="edge42" class="edge">
<title>Node234&#45;&gt;Node236</title>
<path fill="none" stroke="#191970" d="M656.1103,-120.9488C685.5427,-125.2359 732.8738,-132.1301 766.7788,-137.0686"/>
<polygon fill="#191970" stroke="#191970" points="766.4353,-140.5554 776.8354,-138.5334 767.4443,-133.6285 766.4353,-140.5554"/>
</g>
<!-- Node241 -->
<g id="node44" class="node">
<title>Node241</title>
<g id="a_node44"><a xlink:href="struct_c_asset_cache_restricted_address.html#a2262710323cfeca3eb84254f4124bade" target="_top" xlink:title="CAssetCacheRestrictedAddress\l::GetHash">
<polygon fill="#ffffff" stroke="#000000" points="360,-21 360,-51 519,-51 519,-21 360,-21"/>
<text text-anchor="start" x="368" y="-39" font-family="Helvetica,sans-Serif" font-size="10.00" fill="#000000">CAssetCacheRestrictedAddress</text>
<text text-anchor="middle" x="439.5" y="-28" font-family="Helvetica,sans-Serif" font-size="10.00" fill="#000000">::GetHash</text>
</a>
</g>
</g>
<!-- Node240&#45;&gt;Node241 -->
<g id="edge47" class="edge">
<title>Node240&#45;&gt;Node241</title>
<path fill="none" stroke="#191970" d="M277.6138,-91.9001C301.1542,-82.6199 332.1895,-70.6928 360,-61 366.5174,-58.7285 373.3663,-56.4355 380.197,-54.2078"/>
<polygon fill="#191970" stroke="#191970" points="381.7059,-57.3989 390.1508,-51.0009 379.5592,-50.7362 381.7059,-57.3989"/>
</g>
<!-- Node248 -->
<g id="node48" class="node">
<title>Node248</title>
<g id="a_node48"><a xlink:href="classbase__blob.html#ad7263503f949fb3c6c520ebb1f28e378" target="_top" xlink:title="base_blob::GetHex">
<polygon fill="#ffffff" stroke="#000000" points="389,-119.5 389,-138.5 490,-138.5 490,-119.5 389,-119.5"/>
<text text-anchor="middle" x="439.5" y="-126.5" font-family="Helvetica,sans-Serif" font-size="10.00" fill="#000000">base_blob::GetHex</text>
</a>
</g>
</g>
<!-- Node240&#45;&gt;Node248 -->
<g id="edge51" class="edge">
<title>Node240&#45;&gt;Node248</title>
<path fill="none" stroke="#191970" d="M324.0278,-116.2662C342.4544,-118.2982 361.6152,-120.4112 378.9093,-122.3183"/>
<polygon fill="#191970" stroke="#191970" points="378.5331,-125.798 388.8565,-123.4152 379.3004,-118.8401 378.5331,-125.798"/>
</g>
<!-- Node249 -->
<g id="node49" class="node">
<title>Node249</title>
<g id="a_node49"><a xlink:href="class_c_restricted_d_b.html#ae34dd38eefab6aebc5b3c0c5abedbebb" target="_top" xlink:title="CRestrictedDB::ReadRestricted\lAddress">
<polygon fill="#ffffff" stroke="#000000" points="360.5,-70 360.5,-100 518.5,-100 518.5,-70 360.5,-70"/>
<text text-anchor="start" x="368.5" y="-88" font-family="Helvetica,sans-Serif" font-size="10.00" fill="#000000">CRestrictedDB::ReadRestricted</text>
<text text-anchor="middle" x="439.5" y="-77" font-family="Helvetica,sans-Serif" font-size="10.00" fill="#000000">Address</text>
</a>
</g>
</g>
<!-- Node240&#45;&gt;Node249 -->
<g id="edge52" class="edge">
<title>Node240&#45;&gt;Node249</title>
<path fill="none" stroke="#191970" d="M324.0278,-97.7338C332.6766,-96.78 341.4872,-95.8084 350.1906,-94.8487"/>
<polygon fill="#191970" stroke="#191970" points="350.7862,-98.3043 360.3423,-93.7292 350.0189,-91.3465 350.7862,-98.3043"/>
</g>
<!-- Node242 -->
<g id="node45" class="node">
<title>Node242</title>
<g id="a_node45"><a xlink:href="hash_8h.html#ab3f6c437460137530d86e09c2c102e99" target="_top" xlink:title="Compute the 256&#45;bit hash of an object. ">
<polygon fill="#ffffff" stroke="#000000" points="609,-26.5 609,-45.5 649,-45.5 649,-26.5 609,-26.5"/>
<text text-anchor="middle" x="629" y="-33.5" font-family="Helvetica,sans-Serif" font-size="10.00" fill="#000000">Hash</text>
</a>
</g>
</g>
<!-- Node241&#45;&gt;Node242 -->
<g id="edge48" class="edge">
<title>Node241&#45;&gt;Node242</title>
<path fill="none" stroke="#191970" d="M519.0414,-36C547.1152,-36 577.018,-36 598.5422,-36"/>
<polygon fill="#191970" stroke="#191970" points="598.6851,-39.5001 608.6851,-36 598.685,-32.5001 598.6851,-39.5001"/>
</g>
<!-- Node243 -->
<g id="node46" class="node">
<title>Node243</title>
<g id="a_node46"><a xlink:href="class_c_hash256.html#a9cc25033c6435cb28e2e8e377c949a7a" target="_top" xlink:title="CHash256::Write">
<polygon fill="#ffffff" stroke="#ff0000" points="761.5,-.5 761.5,-19.5 853.5,-19.5 853.5,-.5 761.5,-.5"/>
<text text-anchor="middle" x="807.5" y="-7.5" font-family="Helvetica,sans-Serif" font-size="10.00" fill="#000000">CHash256::Write</text>
</a>
</g>
</g>
<!-- Node242&#45;&gt;Node243 -->
<g id="edge49" class="edge">
<title>Node242&#45;&gt;Node243</title>
<path fill="none" stroke="#191970" d="M649.1292,-33.068C673.6927,-29.4901 716.2544,-23.2907 751.0727,-18.2191"/>
<polygon fill="#191970" stroke="#191970" points="751.7415,-21.6587 761.1326,-16.7538 750.7325,-14.7318 751.7415,-21.6587"/>
</g>
<!-- Node245 -->
<g id="node47" class="node">
<title>Node245</title>
<g id="a_node47"><a xlink:href="class_c_hash256.html#aa8a70c1b7cf24ce7d00240a1131cf4e7" target="_top" xlink:title="CHash256::Finalize">
<polygon fill="#ffffff" stroke="#ff0000" points="756,-38.5 756,-57.5 859,-57.5 859,-38.5 756,-38.5"/>
<text text-anchor="middle" x="807.5" y="-45.5" font-family="Helvetica,sans-Serif" font-size="10.00" fill="#000000">CHash256::Finalize</text>
</a>
</g>
</g>
<!-- Node242&#45;&gt;Node245 -->
<g id="edge50" class="edge">
<title>Node242&#45;&gt;Node245</title>
<path fill="none" stroke="#191970" d="M649.1292,-37.3532C672.4305,-38.9197 711.9278,-41.575 745.6474,-43.8418"/>
<polygon fill="#191970" stroke="#191970" points="745.69,-47.3525 755.9022,-44.5312 746.1595,-40.3683 745.69,-47.3525"/>
</g>
<!-- Node250 -->
<g id="node50" class="node">
<title>Node250</title>
<g id="a_node50"><a xlink:href="class_c_d_b_wrapper.html#a38084dd7b2870e6ac3082e7521d88a29" target="_top" xlink:title="CDBWrapper::Read">
<polygon fill="#ffffff" stroke="#000000" points="577,-69.5 577,-88.5 681,-88.5 681,-69.5 577,-69.5"/>
<text text-anchor="middle" x="629" y="-76.5" font-family="Helvetica,sans-Serif" font-size="10.00" fill="#000000">CDBWrapper::Read</text>
</a>
</g>
</g>
<!-- Node249&#45;&gt;Node250 -->
<g id="edge53" class="edge">
<title>Node249&#45;&gt;Node250</title>
<path fill="none" stroke="#191970" d="M518.7671,-82.4902C534.6713,-81.9867 551.1736,-81.4642 566.4159,-80.9816"/>
<polygon fill="#191970" stroke="#191970" points="566.8599,-84.4693 576.7441,-80.6545 566.6383,-77.4729 566.8599,-84.4693"/>
</g>
</g>
</svg>
