<?xml version="1.0" encoding="UTF-8" standalone="no"?>
<!DOCTYPE svg PUBLIC "-//W3C//DTD SVG 1.1//EN"
 "http://www.w3.org/Graphics/SVG/1.1/DTD/svg11.dtd">
<!-- Generated by graphviz version 2.40.1 (20161225.0304)
 -->
<!-- Title: setban Pages: 1 -->
<svg width="1110pt" height="750pt"
 viewBox="0.00 0.00 1110.00 750.00" xmlns="http://www.w3.org/2000/svg" xmlns:xlink="http://www.w3.org/1999/xlink">
<g id="graph0" class="graph" transform="scale(1 1) rotate(0) translate(4 746)">
<title>setban</title>
<polygon fill="#ffffff" stroke="transparent" points="-4,4 -4,-746 1106,-746 1106,4 -4,4"/>
<!-- Node356 -->
<g id="node1" class="node">
<title>Node356</title>
<polygon fill="#bfbfbf" stroke="#000000" points="0,-209.5 0,-228.5 46,-228.5 46,-209.5 0,-209.5"/>
<text text-anchor="middle" x="23" y="-216.5" font-family="Helvetica,sans-Serif" font-size="10.00" fill="#000000">setban</text>
</g>
<!-- Node357 -->
<g id="node2" class="node">
<title>Node357</title>
<g id="a_node2"><a xlink:href="class_uni_value.html#a3661be0f5580daceb23e5338e3a0df22" target="_top" xlink:title="UniValue::isNull">
<polygon fill="#ffffff" stroke="#000000" points="89.5,-418.5 89.5,-437.5 176.5,-437.5 176.5,-418.5 89.5,-418.5"/>
<text text-anchor="middle" x="133" y="-425.5" font-family="Helvetica,sans-Serif" font-size="10.00" fill="#000000">UniValue::isNull</text>
</a>
</g>
</g>
<!-- Node356&#45;&gt;Node357 -->
<g id="edge1" class="edge">
<title>Node356&#45;&gt;Node357</title>
<path fill="none" stroke="#191970" d="M24.8039,-228.5085C31.5349,-263.1002 56.1279,-381.6497 82,-409 83.3879,-410.4672 84.8996,-411.8219 86.5047,-413.0725"/>
<polygon fill="#191970" stroke="#191970" points="84.8357,-416.157 95.1685,-418.499 88.5515,-410.2246 84.8357,-416.157"/>
</g>
<!-- Node358 -->
<g id="node3" class="node">
<title>Node358</title>
<g id="a_node3"><a xlink:href="class_uni_value.html#a087ea6ccec615333371fa1aaf83ab7df" target="_top" xlink:title="UniValue::get_str">
<polygon fill="#ffffff" stroke="#000000" points="87,-228.5 87,-247.5 179,-247.5 179,-228.5 87,-228.5"/>
<text text-anchor="middle" x="133" y="-235.5" font-family="Helvetica,sans-Serif" font-size="10.00" fill="#000000">UniValue::get_str</text>
</a>
</g>
</g>
<!-- Node356&#45;&gt;Node358 -->
<g id="edge2" class="edge">
<title>Node356&#45;&gt;Node358</title>
<path fill="none" stroke="#191970" d="M46.0596,-222.983C55.1275,-224.5493 65.9681,-226.4218 76.868,-228.3045"/>
<polygon fill="#191970" stroke="#191970" points="76.3958,-231.7747 86.8456,-230.0279 77.5873,-224.8768 76.3958,-231.7747"/>
</g>
<!-- Node360 -->
<g id="node5" class="node">
<title>Node360</title>
<g id="a_node5"><a xlink:href="class_uni_value.html#a5a7394aeb8d5584db7a90c2c041726b1" target="_top" xlink:title="UniValue::size">
<polygon fill="#ffffff" stroke="#000000" points="93,-342.5 93,-361.5 173,-361.5 173,-342.5 93,-342.5"/>
<text text-anchor="middle" x="133" y="-349.5" font-family="Helvetica,sans-Serif" font-size="10.00" fill="#000000">UniValue::size</text>
</a>
</g>
</g>
<!-- Node356&#45;&gt;Node360 -->
<g id="edge4" class="edge">
<title>Node356&#45;&gt;Node360</title>
<path fill="none" stroke="#191970" d="M25.4451,-228.7361C31.3928,-250.4903 48.6366,-303.4466 82,-333 83.9185,-334.6994 86.003,-336.252 88.1968,-337.6698"/>
<polygon fill="#191970" stroke="#191970" points="86.6223,-340.7975 97.0802,-342.4957 89.9638,-334.6466 86.6223,-340.7975"/>
</g>
<!-- Node361 -->
<g id="node6" class="node">
<title>Node361</title>
<g id="a_node6"><a xlink:href="server_8cpp.html#a26bafe3d526ee8cbc84b3c0b0dc3a43b" target="_top" xlink:title="HelpExampleCli">
<polygon fill="#ffffff" stroke="#000000" points="89.5,-304.5 89.5,-323.5 176.5,-323.5 176.5,-304.5 89.5,-304.5"/>
<text text-anchor="middle" x="133" y="-311.5" font-family="Helvetica,sans-Serif" font-size="10.00" fill="#000000">HelpExampleCli</text>
</a>
</g>
</g>
<!-- Node356&#45;&gt;Node361 -->
<g id="edge5" class="edge">
<title>Node356&#45;&gt;Node361</title>
<path fill="none" stroke="#191970" d="M28.0619,-228.5566C36.9491,-244.478 56.8277,-276.5057 82,-295 84.508,-296.8427 87.2149,-298.5257 90.028,-300.0596"/>
<polygon fill="#191970" stroke="#191970" points="88.7283,-303.3174 99.2608,-304.4644 91.7424,-296.9996 88.7283,-303.3174"/>
</g>
<!-- Node362 -->
<g id="node7" class="node">
<title>Node362</title>
<g id="a_node7"><a xlink:href="server_8cpp.html#a9ef4f8fb114508ceb861a0e8c3e0d26e" target="_top" xlink:title="HelpExampleRpc">
<polygon fill="#ffffff" stroke="#000000" points="86.5,-266.5 86.5,-285.5 179.5,-285.5 179.5,-266.5 86.5,-266.5"/>
<text text-anchor="middle" x="133" y="-273.5" font-family="Helvetica,sans-Serif" font-size="10.00" fill="#000000">HelpExampleRpc</text>
</a>
</g>
</g>
<!-- Node356&#45;&gt;Node362 -->
<g id="edge6" class="edge">
<title>Node356&#45;&gt;Node362</title>
<path fill="none" stroke="#191970" d="M36.1023,-228.612C47.7469,-236.8641 65.4421,-248.7053 82,-257 86.0048,-259.0062 90.2753,-260.921 94.5758,-262.7093"/>
<polygon fill="#191970" stroke="#191970" points="93.3598,-265.9921 103.9464,-266.4088 95.9303,-259.4811 93.3598,-265.9921"/>
</g>
<!-- Node363 -->
<g id="node8" class="node">
<title>Node363</title>
<g id="a_node8"><a xlink:href="rpc_2protocol_8cpp.html#a40b75d3d265c4a2e1d5fe3e129743884" target="_top" xlink:title="JSONRPCError">
<polygon fill="#ffffff" stroke="#000000" points="90,-380.5 90,-399.5 176,-399.5 176,-380.5 90,-380.5"/>
<text text-anchor="middle" x="133" y="-387.5" font-family="Helvetica,sans-Serif" font-size="10.00" fill="#000000">JSONRPCError</text>
</a>
</g>
</g>
<!-- Node356&#45;&gt;Node363 -->
<g id="edge7" class="edge">
<title>Node356&#45;&gt;Node363</title>
<path fill="none" stroke="#191970" d="M24.0239,-228.6663C27.3321,-255.1505 40.0835,-329.6512 82,-371 83.463,-372.4432 85.0456,-373.7784 86.7168,-375.0134"/>
<polygon fill="#191970" stroke="#191970" points="85.2943,-378.2417 95.6689,-380.3907 88.8988,-372.2411 85.2943,-378.2417"/>
</g>
<!-- Node395 -->
<g id="node40" class="node">
<title>Node395</title>
<g id="a_node40"><a xlink:href="netbase_8cpp.html#a3cdc8ba9f8d72752ff5cdd1e7407cdef" target="_top" xlink:title="LookupHost">
<polygon fill="#ffffff" stroke="#000000" points="240.5,-152.5 240.5,-171.5 309.5,-171.5 309.5,-152.5 240.5,-152.5"/>
<text text-anchor="middle" x="275" y="-159.5" font-family="Helvetica,sans-Serif" font-size="10.00" fill="#000000">LookupHost</text>
</a>
</g>
</g>
<!-- Node356&#45;&gt;Node395 -->
<g id="edge42" class="edge">
<title>Node356&#45;&gt;Node395</title>
<path fill="none" stroke="#191970" d="M34.3266,-209.3411C45.6073,-200.3228 63.8208,-187.3318 82,-181 130.7427,-164.0228 190.3177,-160.5652 230.2724,-160.5232"/>
<polygon fill="#191970" stroke="#191970" points="230.4704,-164.0244 240.492,-160.5866 230.5139,-157.0246 230.4704,-164.0244"/>
</g>
<!-- Node396 -->
<g id="node41" class="node">
<title>Node396</title>
<g id="a_node41"><a xlink:href="netbase_8cpp.html#a4f8635acde45a6be14713608d40935f8" target="_top" xlink:title="LookupSubNet">
<polygon fill="#ffffff" stroke="#000000" points="92.5,-114.5 92.5,-133.5 173.5,-133.5 173.5,-114.5 92.5,-114.5"/>
<text text-anchor="middle" x="133" y="-121.5" font-family="Helvetica,sans-Serif" font-size="10.00" fill="#000000">LookupSubNet</text>
</a>
</g>
</g>
<!-- Node356&#45;&gt;Node396 -->
<g id="edge43" class="edge">
<title>Node356&#45;&gt;Node396</title>
<path fill="none" stroke="#191970" d="M29.1572,-209.1072C38.8437,-194.2068 58.9326,-165.8527 82,-148 86.8088,-144.2783 92.2881,-140.9492 97.829,-138.0415"/>
<polygon fill="#191970" stroke="#191970" points="99.629,-141.0587 107.1045,-133.5509 96.5787,-134.7583 99.629,-141.0587"/>
</g>
<!-- Node398 -->
<g id="node43" class="node">
<title>Node398</title>
<g id="a_node43"><a xlink:href="class_c_sub_net.html#abe05f70043af710ac075a4dd77757394" target="_top" xlink:title="CSubNet::IsValid">
<polygon fill="#ffffff" stroke="#000000" points="228.5,-38.5 228.5,-57.5 321.5,-57.5 321.5,-38.5 228.5,-38.5"/>
<text text-anchor="middle" x="275" y="-45.5" font-family="Helvetica,sans-Serif" font-size="10.00" fill="#000000">CSubNet::IsValid</text>
</a>
</g>
</g>
<!-- Node356&#45;&gt;Node398 -->
<g id="edge48" class="edge">
<title>Node356&#45;&gt;Node398</title>
<path fill="none" stroke="#191970" d="M23.4709,-209.1283C25.3729,-181.4462 34.8784,-102.7726 82,-67 120.5238,-37.7545 176.5864,-35.3484 218.3731,-38.8689"/>
<polygon fill="#191970" stroke="#191970" points="218.1073,-42.3596 228.4003,-39.8489 218.7882,-35.3927 218.1073,-42.3596"/>
</g>
<!-- Node400 -->
<g id="node45" class="node">
<title>Node400</title>
<g id="a_node45"><a xlink:href="class_c_net_addr.html#a6fe20b8da9701ca5dc2af078e2e8ac25" target="_top" xlink:title="CNetAddr::IsValid">
<polygon fill="#ffffff" stroke="#000000" points="85,-76.5 85,-95.5 181,-95.5 181,-76.5 85,-76.5"/>
<text text-anchor="middle" x="133" y="-83.5" font-family="Helvetica,sans-Serif" font-size="10.00" fill="#000000">CNetAddr::IsValid</text>
</a>
</g>
</g>
<!-- Node356&#45;&gt;Node400 -->
<g id="edge49" class="edge">
<title>Node356&#45;&gt;Node400</title>
<path fill="none" stroke="#191970" d="M25.4451,-209.2639C31.3928,-187.5097 48.6366,-134.5534 82,-105 83.9185,-103.3006 86.003,-101.748 88.1968,-100.3302"/>
<polygon fill="#191970" stroke="#191970" points="89.9638,-103.3534 97.0802,-95.5043 86.6223,-97.2025 89.9638,-103.3534"/>
</g>
<!-- Node401 -->
<g id="node46" class="node">
<title>Node401</title>
<g id="a_node46"><a xlink:href="class_uni_value.html#a34bd3bc2de335486d2060ff907b317d0" target="_top" xlink:title="UniValue::get_int64">
<polygon fill="#ffffff" stroke="#000000" points="82,-190.5 82,-209.5 184,-209.5 184,-190.5 82,-190.5"/>
<text text-anchor="middle" x="133" y="-197.5" font-family="Helvetica,sans-Serif" font-size="10.00" fill="#000000">UniValue::get_int64</text>
</a>
</g>
</g>
<!-- Node356&#45;&gt;Node401 -->
<g id="edge50" class="edge">
<title>Node356&#45;&gt;Node401</title>
<path fill="none" stroke="#191970" d="M46.0596,-215.017C53.7396,-213.6904 62.6911,-212.1443 71.8733,-210.5583"/>
<polygon fill="#191970" stroke="#191970" points="72.6198,-213.9812 81.8782,-208.8301 71.4283,-207.0834 72.6198,-213.9812"/>
</g>
<!-- Node403 -->
<g id="node48" class="node">
<title>Node403</title>
<g id="a_node48"><a xlink:href="class_uni_value.html#a1491167609f899d0c7773749b5047969" target="_top" xlink:title="UniValue::isTrue">
<polygon fill="#ffffff" stroke="#000000" points="88.5,-.5 88.5,-19.5 177.5,-19.5 177.5,-.5 88.5,-.5"/>
<text text-anchor="middle" x="133" y="-7.5" font-family="Helvetica,sans-Serif" font-size="10.00" fill="#000000">UniValue::isTrue</text>
</a>
</g>
</g>
<!-- Node356&#45;&gt;Node403 -->
<g id="edge53" class="edge">
<title>Node356&#45;&gt;Node403</title>
<path fill="none" stroke="#191970" d="M23.454,-209.2458C25.3419,-179.344 34.8831,-87.7386 82,-34 85.2176,-30.3303 89.1172,-27.1795 93.311,-24.4847"/>
<polygon fill="#191970" stroke="#191970" points="95.1447,-27.4704 102.2082,-19.5737 91.762,-21.342 95.1447,-27.4704"/>
</g>
<!-- Node359 -->
<g id="node4" class="node">
<title>Node359</title>
<g id="a_node4"><a xlink:href="class_uni_value.html#a4c9a5fa9114affbf31f6e346c032be12" target="_top" xlink:title="UniValue::getValStr">
<polygon fill="#ffffff" stroke="#000000" points="223.5,-228.5 223.5,-247.5 326.5,-247.5 326.5,-228.5 223.5,-228.5"/>
<text text-anchor="middle" x="275" y="-235.5" font-family="Helvetica,sans-Serif" font-size="10.00" fill="#000000">UniValue::getValStr</text>
</a>
</g>
</g>
<!-- Node358&#45;&gt;Node359 -->
<g id="edge3" class="edge">
<title>Node358&#45;&gt;Node359</title>
<path fill="none" stroke="#191970" d="M179.1033,-238C189.8917,-238 201.5582,-238 212.9155,-238"/>
<polygon fill="#191970" stroke="#191970" points="213.2247,-241.5001 223.2247,-238 213.2246,-234.5001 213.2247,-241.5001"/>
</g>
<!-- Node364 -->
<g id="node9" class="node">
<title>Node364</title>
<g id="a_node9"><a xlink:href="util_8h.html#a96c5fc7111f69f7dcaba992d95d13e03" target="_top" xlink:title="error">
<polygon fill="#ffffff" stroke="#000000" points="257,-399.5 257,-418.5 293,-418.5 293,-399.5 257,-399.5"/>
<text text-anchor="middle" x="275" y="-406.5" font-family="Helvetica,sans-Serif" font-size="10.00" fill="#000000">error</text>
</a>
</g>
</g>
<!-- Node363&#45;&gt;Node364 -->
<g id="edge8" class="edge">
<title>Node363&#45;&gt;Node364</title>
<path fill="none" stroke="#191970" d="M176.3763,-395.8039C199.1912,-398.8566 226.5148,-402.5125 246.6104,-405.2014"/>
<polygon fill="#191970" stroke="#191970" points="246.301,-408.6911 256.6768,-406.5483 247.2294,-401.7529 246.301,-408.6911"/>
</g>
<!-- Node394 -->
<g id="node39" class="node">
<title>Node394</title>
<g id="a_node39"><a xlink:href="class_uni_value.html#a944cd1b59b040cd24c9f46b55a68d49a" target="_top" xlink:title="UniValue::push_back">
<polygon fill="#ffffff" stroke="#000000" points="220,-361.5 220,-380.5 330,-380.5 330,-361.5 220,-361.5"/>
<text text-anchor="middle" x="275" y="-368.5" font-family="Helvetica,sans-Serif" font-size="10.00" fill="#000000">UniValue::push_back</text>
</a>
</g>
</g>
<!-- Node363&#45;&gt;Node394 -->
<g id="edge41" class="edge">
<title>Node363&#45;&gt;Node394</title>
<path fill="none" stroke="#191970" d="M176.3763,-384.1961C186.8671,-382.7924 198.3113,-381.2612 209.5677,-379.755"/>
<polygon fill="#191970" stroke="#191970" points="210.3721,-383.1787 219.8196,-378.3833 209.4437,-376.2405 210.3721,-383.1787"/>
</g>
<!-- Node365 -->
<g id="node10" class="node">
<title>Node365</title>
<g id="a_node10"><a xlink:href="util_8h.html#afd4c3002b2797c0560adddb6af3ca1da" target="_top" xlink:title="Send a string to the log output. ">
<polygon fill="#ffffff" stroke="#000000" points="395.5,-722.5 395.5,-741.5 460.5,-741.5 460.5,-722.5 395.5,-722.5"/>
<text text-anchor="middle" x="428" y="-729.5" font-family="Helvetica,sans-Serif" font-size="10.00" fill="#000000">LogPrintStr</text>
</a>
</g>
</g>
<!-- Node364&#45;&gt;Node365 -->
<g id="edge9" class="edge">
<title>Node364&#45;&gt;Node365</title>
<path fill="none" stroke="#191970" d="M276.6485,-418.7265C284.7949,-465.7245 322.1236,-668.837 366,-713 371.346,-718.3809 378.1724,-722.2455 385.3299,-725.0192"/>
<polygon fill="#191970" stroke="#191970" points="384.5964,-728.459 395.1872,-728.1654 386.7249,-721.7905 384.5964,-728.459"/>
</g>
<!-- Node366 -->
<g id="node11" class="node">
<title>Node366</title>
<g id="a_node11"><a xlink:href="namespacetinyformat.html#a05144619d8b16e2b31b2594ca9c6bf1d" target="_top" xlink:title="Format list of arguments to the stream according to given format string. ">
<polygon fill="#ffffff" stroke="#000000" points="381,-684.5 381,-703.5 475,-703.5 475,-684.5 381,-684.5"/>
<text text-anchor="middle" x="428" y="-691.5" font-family="Helvetica,sans-Serif" font-size="10.00" fill="#000000">tinyformat::format</text>
</a>
</g>
</g>
<!-- Node364&#45;&gt;Node366 -->
<g id="edge10" class="edge">
<title>Node364&#45;&gt;Node366</title>
<path fill="none" stroke="#191970" d="M275.304,-418.608C277.0447,-456.8955 288.6822,-600.137 366,-675 367.8754,-676.8159 369.9197,-678.4586 372.087,-679.9448"/>
<polygon fill="#191970" stroke="#191970" points="370.5266,-683.0828 380.9582,-684.9355 373.9588,-676.9819 370.5266,-683.0828"/>
</g>
<!-- Node375 -->
<g id="node20" class="node">
<title>Node375</title>
<g id="a_node20"><a xlink:href="util_8h.html#aaada8c5faa502eb0c33fc01294955db8" target="_top" xlink:title="PrintExceptionContinue">
<polygon fill="#ffffff" stroke="#000000" points="368.5,-646.5 368.5,-665.5 487.5,-665.5 487.5,-646.5 368.5,-646.5"/>
<text text-anchor="middle" x="428" y="-653.5" font-family="Helvetica,sans-Serif" font-size="10.00" fill="#000000">PrintExceptionContinue</text>
</a>
</g>
</g>
<!-- Node364&#45;&gt;Node375 -->
<g id="edge19" class="edge">
<title>Node364&#45;&gt;Node375</title>
<path fill="none" stroke="#191970" d="M275.9555,-418.9005C279.8854,-454.0891 297.9658,-574.352 366,-637 367.7159,-638.58 369.5601,-640.0287 371.5007,-641.3571"/>
<polygon fill="#191970" stroke="#191970" points="370.0966,-644.5833 380.5268,-646.4438 373.5333,-638.485 370.0966,-644.5833"/>
</g>
<!-- Node376 -->
<g id="node21" class="node">
<title>Node376</title>
<g id="a_node21"><a xlink:href="util_8h.html#af0e69a29ba128b74030ad8a213f2037a" target="_top" xlink:title="FileCommit">
<polygon fill="#ffffff" stroke="#000000" points="394.5,-608.5 394.5,-627.5 461.5,-627.5 461.5,-608.5 394.5,-608.5"/>
<text text-anchor="middle" x="428" y="-615.5" font-family="Helvetica,sans-Serif" font-size="10.00" fill="#000000">FileCommit</text>
</a>
</g>
</g>
<!-- Node364&#45;&gt;Node376 -->
<g id="edge20" class="edge">
<title>Node364&#45;&gt;Node376</title>
<path fill="none" stroke="#191970" d="M276.7546,-418.541C282.9462,-449.4746 306.682,-547.9372 366,-599 371.3312,-603.5893 377.7536,-607.0702 384.4169,-609.7104"/>
<polygon fill="#191970" stroke="#191970" points="383.6588,-613.1477 394.2527,-613.0082 385.8841,-606.5108 383.6588,-613.1477"/>
</g>
<!-- Node377 -->
<g id="node22" class="node">
<title>Node377</title>
<g id="a_node22"><a xlink:href="util_8h.html#acb8d6b822bc1bfa609bf43bbac1a0d44" target="_top" xlink:title="TruncateFile">
<polygon fill="#ffffff" stroke="#000000" points="392.5,-570.5 392.5,-589.5 463.5,-589.5 463.5,-570.5 392.5,-570.5"/>
<text text-anchor="middle" x="428" y="-577.5" font-family="Helvetica,sans-Serif" font-size="10.00" fill="#000000">TruncateFile</text>
</a>
</g>
</g>
<!-- Node364&#45;&gt;Node377 -->
<g id="edge21" class="edge">
<title>Node364&#45;&gt;Node377</title>
<path fill="none" stroke="#191970" d="M278.0858,-418.8673C287.038,-445.8651 315.6325,-521.5569 366,-561 371.0024,-564.9174 376.8125,-568.031 382.831,-570.5048"/>
<polygon fill="#191970" stroke="#191970" points="381.7793,-573.8454 392.3741,-573.8891 384.1191,-567.2479 381.7793,-573.8454"/>
</g>
<!-- Node378 -->
<g id="node23" class="node">
<title>Node378</title>
<g id="a_node23"><a xlink:href="util_8h.html#a756a5c49a4bb607d16d9842f8f3ede4f" target="_top" xlink:title="this function tries to raise the file descriptor limit to the requested number. ">
<polygon fill="#ffffff" stroke="#000000" points="366,-532.5 366,-551.5 490,-551.5 490,-532.5 366,-532.5"/>
<text text-anchor="middle" x="428" y="-539.5" font-family="Helvetica,sans-Serif" font-size="10.00" fill="#000000">RaiseFileDescriptorLimit</text>
</a>
</g>
</g>
<!-- Node364&#45;&gt;Node378 -->
<g id="edge22" class="edge">
<title>Node364&#45;&gt;Node378</title>
<path fill="none" stroke="#191970" d="M279.9679,-418.5611C291.8158,-440.4225 323.9103,-494.3748 366,-523 368.928,-524.9913 372.0724,-526.7802 375.3359,-528.3862"/>
<polygon fill="#191970" stroke="#191970" points="374.1983,-531.7069 384.7674,-532.4446 376.9652,-525.2769 374.1983,-531.7069"/>
</g>
<!-- Node379 -->
<g id="node24" class="node">
<title>Node379</title>
<g id="a_node24"><a xlink:href="util_8h.html#a91c763bffc49cf7ed8d45cc44870e55c" target="_top" xlink:title="this function tries to make a particular range of a file allocated (corresponding to disk space) it i...">
<polygon fill="#ffffff" stroke="#000000" points="380,-494.5 380,-513.5 476,-513.5 476,-494.5 380,-494.5"/>
<text text-anchor="middle" x="428" y="-501.5" font-family="Helvetica,sans-Serif" font-size="10.00" fill="#000000">AllocateFileRange</text>
</a>
</g>
</g>
<!-- Node364&#45;&gt;Node379 -->
<g id="edge23" class="edge">
<title>Node364&#45;&gt;Node379</title>
<path fill="none" stroke="#191970" d="M283.8934,-418.5905C299.2007,-434.5619 332.1578,-466.6614 366,-485 370.0057,-487.1706 374.2942,-489.1298 378.6762,-490.89"/>
<polygon fill="#191970" stroke="#191970" points="377.7509,-494.2785 388.3446,-494.4309 380.1582,-487.7054 377.7509,-494.2785"/>
</g>
<!-- Node380 -->
<g id="node25" class="node">
<title>Node380</title>
<g id="a_node25"><a xlink:href="util_8h.html#a579657da2b55b131ecd453bf1b0d2314" target="_top" xlink:title="RenameOver">
<polygon fill="#ffffff" stroke="#000000" points="391,-456.5 391,-475.5 465,-475.5 465,-456.5 391,-456.5"/>
<text text-anchor="middle" x="428" y="-463.5" font-family="Helvetica,sans-Serif" font-size="10.00" fill="#000000">RenameOver</text>
</a>
</g>
</g>
<!-- Node364&#45;&gt;Node380 -->
<g id="edge24" class="edge">
<title>Node364&#45;&gt;Node380</title>
<path fill="none" stroke="#191970" d="M293.2658,-417.2511C311.4928,-425.336 340.3956,-437.756 366,-447 372.0457,-449.1827 378.4785,-451.3368 384.8251,-453.3666"/>
<polygon fill="#191970" stroke="#191970" points="384.0706,-456.7977 394.6594,-456.4401 386.1587,-450.1164 384.0706,-456.7977"/>
</g>
<!-- Node381 -->
<g id="node26" class="node">
<title>Node381</title>
<g id="a_node26"><a xlink:href="util_8h.html#a9042a919d837da9d97311a0c460c597c" target="_top" xlink:title="Ignores exceptions thrown by Boost&#39;s create_directories if the requested directory exists...">
<polygon fill="#ffffff" stroke="#000000" points="374.5,-418.5 374.5,-437.5 481.5,-437.5 481.5,-418.5 374.5,-418.5"/>
<text text-anchor="middle" x="428" y="-425.5" font-family="Helvetica,sans-Serif" font-size="10.00" fill="#000000">TryCreateDirectories</text>
</a>
</g>
</g>
<!-- Node364&#45;&gt;Node381 -->
<g id="edge25" class="edge">
<title>Node364&#45;&gt;Node381</title>
<path fill="none" stroke="#191970" d="M293.1519,-411.2542C310.7618,-413.441 338.5274,-416.889 364.2986,-420.0894"/>
<polygon fill="#191970" stroke="#191970" points="364.0725,-423.5881 374.4276,-421.3472 364.9352,-416.6414 364.0725,-423.5881"/>
</g>
<!-- Node382 -->
<g id="node27" class="node">
<title>Node382</title>
<g id="a_node27"><a xlink:href="util_8h.html#a15cb85964fe08c264605537f44570d3c" target="_top" xlink:title="GetDefaultDataDir">
<polygon fill="#ffffff" stroke="#000000" points="379,-380.5 379,-399.5 477,-399.5 477,-380.5 379,-380.5"/>
<text text-anchor="middle" x="428" y="-387.5" font-family="Helvetica,sans-Serif" font-size="10.00" fill="#000000">GetDefaultDataDir</text>
</a>
</g>
</g>
<!-- Node364&#45;&gt;Node382 -->
<g id="edge26" class="edge">
<title>Node364&#45;&gt;Node382</title>
<path fill="none" stroke="#191970" d="M293.1519,-406.7458C311.7522,-404.436 341.6826,-400.7191 368.6256,-397.3733"/>
<polygon fill="#191970" stroke="#191970" points="369.2833,-400.8186 378.7757,-396.1128 368.4205,-393.872 369.2833,-400.8186"/>
</g>
<!-- Node383 -->
<g id="node28" class="node">
<title>Node383</title>
<g id="a_node28"><a xlink:href="util_8h.html#abb63dfb710832aefb746933af05198d4" target="_top" xlink:title="GetDataDir">
<polygon fill="#ffffff" stroke="#000000" points="395,-342.5 395,-361.5 461,-361.5 461,-342.5 395,-342.5"/>
<text text-anchor="middle" x="428" y="-349.5" font-family="Helvetica,sans-Serif" font-size="10.00" fill="#000000">GetDataDir</text>
</a>
</g>
</g>
<!-- Node364&#45;&gt;Node383 -->
<g id="edge27" class="edge">
<title>Node364&#45;&gt;Node383</title>
<path fill="none" stroke="#191970" d="M293.0988,-403.5194C303.9561,-400.0423 317.9508,-395.2244 330,-390 346.5986,-382.8031 349.2771,-377.9032 366,-371 372.0096,-368.5192 378.4629,-366.1908 384.854,-364.0723"/>
<polygon fill="#191970" stroke="#191970" points="386.3005,-367.2853 394.7731,-360.9242 384.1829,-360.6133 386.3005,-367.2853"/>
</g>
<!-- Node384 -->
<g id="node29" class="node">
<title>Node384</title>
<g id="a_node29"><a xlink:href="util_8h.html#abfb50dfe077aced7591f2aba601f605d" target="_top" xlink:title="ClearDatadirCache">
<polygon fill="#ffffff" stroke="#000000" points="378,-304.5 378,-323.5 478,-323.5 478,-304.5 378,-304.5"/>
<text text-anchor="middle" x="428" y="-311.5" font-family="Helvetica,sans-Serif" font-size="10.00" fill="#000000">ClearDatadirCache</text>
</a>
</g>
</g>
<!-- Node364&#45;&gt;Node384 -->
<g id="edge28" class="edge">
<title>Node364&#45;&gt;Node384</title>
<path fill="none" stroke="#191970" d="M293.0822,-405.955C304.6001,-403.2902 319.3106,-398.4696 330,-390 353.4847,-371.3923 342.191,-351.1909 366,-333 368.4699,-331.1129 371.1281,-329.4119 373.9054,-327.8787"/>
<polygon fill="#191970" stroke="#191970" points="375.553,-330.9713 383.0959,-323.5312 372.5596,-324.6436 375.553,-330.9713"/>
</g>
<!-- Node385 -->
<g id="node30" class="node">
<title>Node385</title>
<g id="a_node30"><a xlink:href="util_8h.html#aa634f312705d4811dfa2a5392bddf6cf" target="_top" xlink:title="GetConfigFile">
<polygon fill="#ffffff" stroke="#000000" points="389.5,-228.5 389.5,-247.5 466.5,-247.5 466.5,-228.5 389.5,-228.5"/>
<text text-anchor="middle" x="428" y="-235.5" font-family="Helvetica,sans-Serif" font-size="10.00" fill="#000000">GetConfigFile</text>
</a>
</g>
</g>
<!-- Node364&#45;&gt;Node385 -->
<g id="edge29" class="edge">
<title>Node364&#45;&gt;Node385</title>
<path fill="none" stroke="#191970" d="M293.2187,-407.1052C305.2454,-404.9138 320.4843,-400.1886 330,-390 371.7988,-345.2453 323.4189,-301.011 366,-257 369.914,-252.9545 374.6643,-249.7645 379.7747,-247.2501"/>
<polygon fill="#191970" stroke="#191970" points="381.3009,-250.4084 389.2599,-243.4151 378.677,-243.9188 381.3009,-250.4084"/>
</g>
<!-- Node387 -->
<g id="node32" class="node">
<title>Node387</title>
<g id="a_node32"><a xlink:href="util_8h.html#aa0172eabeecce5061826cb19990fbde2" target="_top" xlink:title="GetPidFile">
<polygon fill="#ffffff" stroke="#000000" points="397,-266.5 397,-285.5 459,-285.5 459,-266.5 397,-266.5"/>
<text text-anchor="middle" x="428" y="-273.5" font-family="Helvetica,sans-Serif" font-size="10.00" fill="#000000">GetPidFile</text>
</a>
</g>
</g>
<!-- Node364&#45;&gt;Node387 -->
<g id="edge31" class="edge">
<title>Node364&#45;&gt;Node387</title>
<path fill="none" stroke="#191970" d="M293.1672,-406.7497C305.0164,-404.4041 320.0697,-399.6405 330,-390 362.3965,-358.5487 333.0542,-325.8753 366,-295 371.8914,-289.4789 379.3478,-285.5601 387.0301,-282.7791"/>
<polygon fill="#191970" stroke="#191970" points="388.2223,-286.0751 396.7809,-279.8301 386.1959,-279.3749 388.2223,-286.0751"/>
</g>
<!-- Node389 -->
<g id="node34" class="node">
<title>Node389</title>
<g id="a_node34"><a xlink:href="util_8h.html#a1c0f9b041628dcb399a023bc9913f41d" target="_top" xlink:title="CreatePidFile">
<polygon fill="#ffffff" stroke="#000000" points="390,-114.5 390,-133.5 466,-133.5 466,-114.5 390,-114.5"/>
<text text-anchor="middle" x="428" y="-121.5" font-family="Helvetica,sans-Serif" font-size="10.00" fill="#000000">CreatePidFile</text>
</a>
</g>
</g>
<!-- Node364&#45;&gt;Node389 -->
<g id="edge34" class="edge">
<title>Node364&#45;&gt;Node389</title>
<path fill="none" stroke="#191970" d="M293.089,-407.5429C305.378,-405.5558 320.9815,-400.8948 330,-390 400.7402,-304.5425 293.7645,-227.1973 366,-143 369.9447,-138.4021 374.9706,-134.8976 380.4488,-132.2301"/>
<polygon fill="#191970" stroke="#191970" points="381.9554,-135.3987 389.9841,-128.4857 379.3968,-128.8831 381.9554,-135.3987"/>
</g>
<!-- Node391 -->
<g id="node36" class="node">
<title>Node391</title>
<g id="a_node36"><a xlink:href="util_8h.html#a1e755e72104d3ca393efc1cc3f41952a" target="_top" xlink:title="OpenDebugLog">
<polygon fill="#ffffff" stroke="#000000" points="386,-152.5 386,-171.5 470,-171.5 470,-152.5 386,-152.5"/>
<text text-anchor="middle" x="428" y="-159.5" font-family="Helvetica,sans-Serif" font-size="10.00" fill="#000000">OpenDebugLog</text>
</a>
</g>
</g>
<!-- Node364&#45;&gt;Node391 -->
<g id="edge36" class="edge">
<title>Node364&#45;&gt;Node391</title>
<path fill="none" stroke="#191970" d="M293.0028,-407.4705C305.2511,-405.4494 320.8414,-400.7774 330,-390 391.0368,-318.1748 303.7067,-251.7382 366,-181 369.054,-177.532 372.7226,-174.6876 376.7302,-172.3561"/>
<polygon fill="#191970" stroke="#191970" points="378.3767,-175.4495 385.938,-168.028 375.399,-169.1145 378.3767,-175.4495"/>
</g>
<!-- Node392 -->
<g id="node37" class="node">
<title>Node392</title>
<g id="a_node37"><a xlink:href="util_8h.html#a37fca7e305fe0caa306b23fdb37f88e2" target="_top" xlink:title="ShrinkDebugFile">
<polygon fill="#ffffff" stroke="#000000" points="383.5,-190.5 383.5,-209.5 472.5,-209.5 472.5,-190.5 383.5,-190.5"/>
<text text-anchor="middle" x="428" y="-197.5" font-family="Helvetica,sans-Serif" font-size="10.00" fill="#000000">ShrinkDebugFile</text>
</a>
</g>
</g>
<!-- Node364&#45;&gt;Node392 -->
<g id="edge37" class="edge">
<title>Node364&#45;&gt;Node392</title>
<path fill="none" stroke="#191970" d="M293.1429,-407.3205C305.2943,-405.2272 320.7109,-400.5307 330,-390 381.3771,-331.7558 313.6042,-276.3296 366,-219 368.428,-216.3434 371.2165,-214.0539 374.2375,-212.0814"/>
<polygon fill="#191970" stroke="#191970" points="376.0502,-215.0824 383.261,-207.3199 372.7833,-208.8914 376.0502,-215.0824"/>
</g>
<!-- Node393 -->
<g id="node38" class="node">
<title>Node393</title>
<g id="a_node38"><a xlink:href="util_8h.html#aa803aa631ab8b4bd79fa9d7b2172bf9a" target="_top" xlink:title="runCommand">
<polygon fill="#ffffff" stroke="#000000" points="390.5,-76.5 390.5,-95.5 465.5,-95.5 465.5,-76.5 390.5,-76.5"/>
<text text-anchor="middle" x="428" y="-83.5" font-family="Helvetica,sans-Serif" font-size="10.00" fill="#000000">runCommand</text>
</a>
</g>
</g>
<!-- Node364&#45;&gt;Node393 -->
<g id="edge40" class="edge">
<title>Node364&#45;&gt;Node393</title>
<path fill="none" stroke="#191970" d="M293.1533,-407.5956C305.4725,-405.6333 321.0858,-400.9804 330,-390 410.4698,-290.8786 283.7955,-202.6876 366,-105 369.9471,-100.3095 375.0202,-96.7547 380.5617,-94.0648"/>
<polygon fill="#191970" stroke="#191970" points="382.1653,-97.1964 390.2138,-90.3064 379.6253,-90.6735 382.1653,-97.1964"/>
</g>
<!-- Node367 -->
<g id="node12" class="node">
<title>Node367</title>
<g id="a_node12"><a xlink:href="namespacetinyformat.html#a86ed74eb3ed66a662e96220d877da964" target="_top" xlink:title="Format list of arguments to the stream according to the given format string. ">
<polygon fill="#ffffff" stroke="#000000" points="545,-665.5 545,-684.5 644,-684.5 644,-665.5 545,-665.5"/>
<text text-anchor="middle" x="594.5" y="-672.5" font-family="Helvetica,sans-Serif" font-size="10.00" fill="#000000">tinyformat::vformat</text>
</a>
</g>
</g>
<!-- Node366&#45;&gt;Node367 -->
<g id="edge11" class="edge">
<title>Node366&#45;&gt;Node367</title>
<path fill="none" stroke="#191970" d="M475.2669,-688.6062C493.7697,-686.4948 515.209,-684.0482 534.7631,-681.8168"/>
<polygon fill="#191970" stroke="#191970" points="535.2525,-685.2838 544.7912,-680.6725 534.4588,-678.3289 535.2525,-685.2838"/>
</g>
<!-- Node374 -->
<g id="node19" class="node">
<title>Node374</title>
<g id="a_node19"><a xlink:href="namespacetinyformat.html#a37afaa5249c69dacd619269358f06f69" target="_top" xlink:title="Make type&#45;agnostic format list from list of template arguments. ">
<polygon fill="#ffffff" stroke="#000000" points="526,-703.5 526,-722.5 663,-722.5 663,-703.5 526,-703.5"/>
<text text-anchor="middle" x="594.5" y="-710.5" font-family="Helvetica,sans-Serif" font-size="10.00" fill="#000000">tinyformat::makeFormatList</text>
</a>
</g>
</g>
<!-- Node366&#45;&gt;Node374 -->
<g id="edge18" class="edge">
<title>Node366&#45;&gt;Node374</title>
<path fill="none" stroke="#191970" d="M475.2669,-699.3938C487.9546,-700.8417 502.0231,-702.4471 515.9177,-704.0327"/>
<polygon fill="#191970" stroke="#191970" points="515.6498,-707.5247 525.9822,-705.1811 516.4435,-700.5698 515.6498,-707.5247"/>
</g>
<!-- Node368 -->
<g id="node13" class="node">
<title>Node368</title>
<g id="a_node13"><a xlink:href="namespacetinyformat_1_1detail.html#a079a316938c0e8693efbeb0183b1390d" target="_top" xlink:title="tinyformat::detail\l::formatImpl">
<polygon fill="#ffffff" stroke="#000000" points="699,-660 699,-690 788,-690 788,-660 699,-660"/>
<text text-anchor="start" x="707" y="-678" font-family="Helvetica,sans-Serif" font-size="10.00" fill="#000000">tinyformat::detail</text>
<text text-anchor="middle" x="743.5" y="-667" font-family="Helvetica,sans-Serif" font-size="10.00" fill="#000000">::formatImpl</text>
</a>
</g>
</g>
<!-- Node367&#45;&gt;Node368 -->
<g id="edge12" class="edge">
<title>Node367&#45;&gt;Node368</title>
<path fill="none" stroke="#191970" d="M644.1148,-675C658.2842,-675 673.8105,-675 688.2923,-675"/>
<polygon fill="#191970" stroke="#191970" points="688.6183,-678.5001 698.6183,-675 688.6183,-671.5001 688.6183,-678.5001"/>
</g>
<!-- Node369 -->
<g id="node14" class="node">
<title>Node369</title>
<g id="a_node14"><a xlink:href="namespacetinyformat_1_1detail.html#ad3d636b9f85202b515c8940b7fcb62a6" target="_top" xlink:title="tinyformat::detail\l::printFormatStringLiteral">
<polygon fill="#ffffff" stroke="#000000" points="826.5,-709 826.5,-739 950.5,-739 950.5,-709 826.5,-709"/>
<text text-anchor="start" x="834.5" y="-727" font-family="Helvetica,sans-Serif" font-size="10.00" fill="#000000">tinyformat::detail</text>
<text text-anchor="middle" x="888.5" y="-716" font-family="Helvetica,sans-Serif" font-size="10.00" fill="#000000">::printFormatStringLiteral</text>
</a>
</g>
</g>
<!-- Node368&#45;&gt;Node369 -->
<g id="edge13" class="edge">
<title>Node368&#45;&gt;Node369</title>
<path fill="none" stroke="#191970" d="M788.1879,-690.1014C802.659,-694.9917 818.8725,-700.4707 833.9752,-705.5744"/>
<polygon fill="#191970" stroke="#191970" points="833.1158,-708.9783 843.71,-708.8641 835.3569,-702.3468 833.1158,-708.9783"/>
</g>
<!-- Node370 -->
<g id="node15" class="node">
<title>Node370</title>
<g id="a_node15"><a xlink:href="namespacetinyformat_1_1detail.html#a681e8ceb825485cc5e3b057c11e4b1b5" target="_top" xlink:title="tinyformat::detail\l::streamStateFromFormat">
<polygon fill="#ffffff" stroke="#000000" points="824,-660 824,-690 953,-690 953,-660 824,-660"/>
<text text-anchor="start" x="832" y="-678" font-family="Helvetica,sans-Serif" font-size="10.00" fill="#000000">tinyformat::detail</text>
<text text-anchor="middle" x="888.5" y="-667" font-family="Helvetica,sans-Serif" font-size="10.00" fill="#000000">::streamStateFromFormat</text>
</a>
</g>
</g>
<!-- Node368&#45;&gt;Node370 -->
<g id="edge14" class="edge">
<title>Node368&#45;&gt;Node370</title>
<path fill="none" stroke="#191970" d="M788.1879,-675C796.3219,-675 805.0064,-675 813.7346,-675"/>
<polygon fill="#191970" stroke="#191970" points="813.9707,-678.5001 823.9707,-675 813.9706,-671.5001 813.9707,-678.5001"/>
</g>
<!-- Node373 -->
<g id="node18" class="node">
<title>Node373</title>
<g id="a_node18"><a xlink:href="classtinyformat_1_1detail_1_1_format_arg.html#acbf435711bbe4a4da7fc81758d7108a9" target="_top" xlink:title="tinyformat::detail\l::FormatArg::format">
<polygon fill="#ffffff" stroke="#000000" points="837.5,-611 837.5,-641 939.5,-641 939.5,-611 837.5,-611"/>
<text text-anchor="start" x="845.5" y="-629" font-family="Helvetica,sans-Serif" font-size="10.00" fill="#000000">tinyformat::detail</text>
<text text-anchor="middle" x="888.5" y="-618" font-family="Helvetica,sans-Serif" font-size="10.00" fill="#000000">::FormatArg::format</text>
</a>
</g>
</g>
<!-- Node368&#45;&gt;Node373 -->
<g id="edge17" class="edge">
<title>Node368&#45;&gt;Node373</title>
<path fill="none" stroke="#191970" d="M788.1879,-659.8986C802.659,-655.0083 818.8725,-649.5293 833.9752,-644.4256"/>
<polygon fill="#191970" stroke="#191970" points="835.3569,-647.6532 843.71,-641.1359 833.1158,-641.0217 835.3569,-647.6532"/>
</g>
<!-- Node371 -->
<g id="node16" class="node">
<title>Node371</title>
<g id="a_node16"><a xlink:href="namespacetinyformat_1_1detail.html#a67285e0adb9f4164f9fc30a3eb11c771" target="_top" xlink:title="tinyformat::detail\l::parseIntAndAdvance">
<polygon fill="#ffffff" stroke="#000000" points="989,-684 989,-714 1102,-714 1102,-684 989,-684"/>
<text text-anchor="start" x="997" y="-702" font-family="Helvetica,sans-Serif" font-size="10.00" fill="#000000">tinyformat::detail</text>
<text text-anchor="middle" x="1045.5" y="-691" font-family="Helvetica,sans-Serif" font-size="10.00" fill="#000000">::parseIntAndAdvance</text>
</a>
</g>
</g>
<!-- Node370&#45;&gt;Node371 -->
<g id="edge15" class="edge">
<title>Node370&#45;&gt;Node371</title>
<path fill="none" stroke="#191970" d="M953.2643,-684.9003C961.7639,-686.1996 970.4852,-687.5328 979.0128,-688.8363"/>
<polygon fill="#191970" stroke="#191970" points="978.4954,-692.2978 988.9095,-690.3492 979.5533,-685.3782 978.4954,-692.2978"/>
</g>
<!-- Node372 -->
<g id="node17" class="node">
<title>Node372</title>
<g id="a_node17"><a xlink:href="classtinyformat_1_1detail_1_1_format_arg.html#a91b69f66ce9dc8ca2914dce8985d7a1a" target="_top" xlink:title="tinyformat::detail\l::FormatArg::toInt">
<polygon fill="#ffffff" stroke="#000000" points="998.5,-635 998.5,-665 1092.5,-665 1092.5,-635 998.5,-635"/>
<text text-anchor="start" x="1006.5" y="-653" font-family="Helvetica,sans-Serif" font-size="10.00" fill="#000000">tinyformat::detail</text>
<text text-anchor="middle" x="1045.5" y="-642" font-family="Helvetica,sans-Serif" font-size="10.00" fill="#000000">::FormatArg::toInt</text>
</a>
</g>
</g>
<!-- Node370&#45;&gt;Node372 -->
<g id="edge16" class="edge">
<title>Node370&#45;&gt;Node372</title>
<path fill="none" stroke="#191970" d="M953.2643,-664.6872C964.7757,-662.8542 976.6938,-660.9564 987.9865,-659.1582"/>
<polygon fill="#191970" stroke="#191970" points="988.8268,-662.5686 998.152,-657.5395 987.726,-655.6557 988.8268,-662.5686"/>
</g>
<!-- Node386 -->
<g id="node31" class="node">
<title>Node386</title>
<g id="a_node31"><a xlink:href="util_8cpp.html#a7ebe0bd091f7334aaead43904601e008" target="_top" xlink:title="GetDataDir">
<polygon fill="#ffffff" stroke="#000000" points="561.5,-228.5 561.5,-247.5 627.5,-247.5 627.5,-228.5 561.5,-228.5"/>
<text text-anchor="middle" x="594.5" y="-235.5" font-family="Helvetica,sans-Serif" font-size="10.00" fill="#000000">GetDataDir</text>
</a>
</g>
</g>
<!-- Node385&#45;&gt;Node386 -->
<g id="edge30" class="edge">
<title>Node385&#45;&gt;Node386</title>
<path fill="none" stroke="#191970" d="M466.6169,-238C491.9746,-238 525.1762,-238 551.3939,-238"/>
<polygon fill="#191970" stroke="#191970" points="551.4308,-241.5001 561.4308,-238 551.4308,-234.5001 551.4308,-241.5001"/>
</g>
<!-- Node387&#45;&gt;Node386 -->
<g id="edge33" class="edge">
<title>Node387&#45;&gt;Node386</title>
<path fill="none" stroke="#191970" d="M459.3174,-268.8525C485.3555,-262.9098 522.6789,-254.3916 551.5137,-247.8107"/>
<polygon fill="#191970" stroke="#191970" points="552.3559,-251.2085 561.3265,-245.5711 550.7983,-244.384 552.3559,-251.2085"/>
</g>
<!-- Node388 -->
<g id="node33" class="node">
<title>Node388</title>
<g id="a_node33"><a xlink:href="class_args_manager.html#adb5d644d273b3a259f792affcdca8283" target="_top" xlink:title="Return string argument or default value. ">
<polygon fill="#ffffff" stroke="#000000" points="539,-266.5 539,-285.5 650,-285.5 650,-266.5 539,-266.5"/>
<text text-anchor="middle" x="594.5" y="-273.5" font-family="Helvetica,sans-Serif" font-size="10.00" fill="#000000">ArgsManager::GetArg</text>
</a>
</g>
</g>
<!-- Node387&#45;&gt;Node388 -->
<g id="edge32" class="edge">
<title>Node387&#45;&gt;Node388</title>
<path fill="none" stroke="#191970" d="M459.3174,-276C478.8523,-276 504.7394,-276 528.6282,-276"/>
<polygon fill="#191970" stroke="#191970" points="528.7197,-279.5001 538.7197,-276 528.7196,-272.5001 528.7197,-279.5001"/>
</g>
<!-- Node390 -->
<g id="node35" class="node">
<title>Node390</title>
<g id="a_node35"><a xlink:href="namespacefsbridge.html#a19c84cec4ae9accfbc88a83e48f7ee92" target="_top" xlink:title="fsbridge::fopen">
<polygon fill="#ffffff" stroke="#000000" points="554,-152.5 554,-171.5 635,-171.5 635,-152.5 554,-152.5"/>
<text text-anchor="middle" x="594.5" y="-159.5" font-family="Helvetica,sans-Serif" font-size="10.00" fill="#000000">fsbridge::fopen</text>
</a>
</g>
</g>
<!-- Node389&#45;&gt;Node390 -->
<g id="edge35" class="edge">
<title>Node389&#45;&gt;Node390</title>
<path fill="none" stroke="#191970" d="M466.1985,-132.718C489.2349,-137.9755 518.8575,-144.7362 543.8339,-150.4366"/>
<polygon fill="#191970" stroke="#191970" points="543.3354,-153.9127 553.8635,-152.7256 544.893,-147.0882 543.3354,-153.9127"/>
</g>
<!-- Node392&#45;&gt;Node386 -->
<g id="edge38" class="edge">
<title>Node392&#45;&gt;Node386</title>
<path fill="none" stroke="#191970" d="M470.015,-209.589C494.9082,-215.2703 526.3821,-222.4536 551.4539,-228.1757"/>
<polygon fill="#191970" stroke="#191970" points="550.8902,-231.6369 561.4183,-230.4498 552.4478,-224.8124 550.8902,-231.6369"/>
</g>
<!-- Node392&#45;&gt;Node390 -->
<g id="edge39" class="edge">
<title>Node392&#45;&gt;Node390</title>
<path fill="none" stroke="#191970" d="M470.015,-190.411C492.5216,-185.2744 520.4076,-178.91 544.0776,-173.5078"/>
<polygon fill="#191970" stroke="#191970" points="544.9654,-176.8953 553.9359,-171.2579 543.4078,-170.0708 544.9654,-176.8953"/>
</g>
<!-- Node396&#45;&gt;Node395 -->
<g id="edge44" class="edge">
<title>Node396&#45;&gt;Node395</title>
<path fill="none" stroke="#191970" d="M168.8326,-133.589C187.5287,-138.5922 210.5773,-144.7601 230.4164,-150.0692"/>
<polygon fill="#191970" stroke="#191970" points="229.5957,-153.4727 240.1606,-152.6768 231.4053,-146.7106 229.5957,-153.4727"/>
</g>
<!-- Node397 -->
<g id="node42" class="node">
<title>Node397</title>
<g id="a_node42"><a xlink:href="utilstrencodings_8cpp.html#a880a215d9e931432b095084c756a49bb" target="_top" xlink:title="Convert string to signed 32&#45;bit integer with strict parse error feedback. ">
<polygon fill="#ffffff" stroke="#000000" points="243,-114.5 243,-133.5 307,-133.5 307,-114.5 243,-114.5"/>
<text text-anchor="middle" x="275" y="-121.5" font-family="Helvetica,sans-Serif" font-size="10.00" fill="#000000">ParseInt32</text>
</a>
</g>
</g>
<!-- Node396&#45;&gt;Node397 -->
<g id="edge45" class="edge">
<title>Node396&#45;&gt;Node397</title>
<path fill="none" stroke="#191970" d="M173.6915,-124C192.2235,-124 214.1469,-124 232.8513,-124"/>
<polygon fill="#191970" stroke="#191970" points="232.8695,-127.5001 242.8695,-124 232.8695,-120.5001 232.8695,-127.5001"/>
</g>
<!-- Node396&#45;&gt;Node398 -->
<g id="edge46" class="edge">
<title>Node396&#45;&gt;Node398</title>
<path fill="none" stroke="#191970" d="M165.3738,-114.4812C171.8101,-111.8992 178.3264,-108.7539 184,-105 203.402,-92.1627 200.4453,-79.6035 220,-67 223.1126,-64.9938 226.4615,-63.1726 229.9152,-61.5245"/>
<polygon fill="#191970" stroke="#191970" points="231.3874,-64.7017 239.2118,-57.5582 228.6404,-58.2632 231.3874,-64.7017"/>
</g>
<!-- Node399 -->
<g id="node44" class="node">
<title>Node399</title>
<g id="a_node44"><a xlink:href="netbase_8cpp.html#a8ddb7d8d6e5b5cfabfdeea132f556977" target="_top" xlink:title="Return readable error string for a network error code. ">
<polygon fill="#ffffff" stroke="#000000" points="225,-76.5 225,-95.5 325,-95.5 325,-76.5 225,-76.5"/>
<text text-anchor="middle" x="275" y="-83.5" font-family="Helvetica,sans-Serif" font-size="10.00" fill="#000000">NetworkErrorString</text>
</a>
</g>
</g>
<!-- Node396&#45;&gt;Node399 -->
<g id="edge47" class="edge">
<title>Node396&#45;&gt;Node399</title>
<path fill="none" stroke="#191970" d="M168.8326,-114.411C187.1634,-109.5056 209.6784,-103.4804 229.2501,-98.2429"/>
<polygon fill="#191970" stroke="#191970" points="230.4236,-101.5521 239.1789,-95.5859 228.614,-94.7901 230.4236,-101.5521"/>
</g>
<!-- Node401&#45;&gt;Node359 -->
<g id="edge52" class="edge">
<title>Node401&#45;&gt;Node359</title>
<path fill="none" stroke="#191970" d="M168.8326,-209.589C187.1634,-214.4944 209.6784,-220.5196 229.2501,-225.7571"/>
<polygon fill="#191970" stroke="#191970" points="228.614,-229.2099 239.1789,-228.4141 230.4236,-222.4479 228.614,-229.2099"/>
</g>
<!-- Node402 -->
<g id="node47" class="node">
<title>Node402</title>
<g id="a_node47"><a xlink:href="utilstrencodings_8cpp.html#acb4637787cab6998d4a403d0dcdf51e6" target="_top" xlink:title="Convert string to signed 64&#45;bit integer with strict parse error feedback. ">
<polygon fill="#ffffff" stroke="#000000" points="243,-190.5 243,-209.5 307,-209.5 307,-190.5 243,-190.5"/>
<text text-anchor="middle" x="275" y="-197.5" font-family="Helvetica,sans-Serif" font-size="10.00" fill="#000000">ParseInt64</text>
</a>
</g>
</g>
<!-- Node401&#45;&gt;Node402 -->
<g id="edge51" class="edge">
<title>Node401&#45;&gt;Node402</title>
<path fill="none" stroke="#191970" d="M184.2653,-200C200.1437,-200 217.4526,-200 232.6552,-200"/>
<polygon fill="#191970" stroke="#191970" points="232.8002,-203.5001 242.8002,-200 232.8002,-196.5001 232.8002,-203.5001"/>
</g>
</g>
</svg>
