<?xml version="1.0" encoding="UTF-8" standalone="no"?>
<!DOCTYPE svg PUBLIC "-//W3C//DTD SVG 1.1//EN"
 "http://www.w3.org/Graphics/SVG/1.1/DTD/svg11.dtd">
<!-- Generated by graphviz version 2.40.1 (20161225.0304)
 -->
<!-- Title: REINDEX Pages: 1 -->
<svg width="620pt" height="104pt"
 viewBox="0.00 0.00 620.00 104.00" xmlns="http://www.w3.org/2000/svg" xmlns:xlink="http://www.w3.org/1999/xlink">
<g id="graph0" class="graph" transform="scale(1 1) rotate(0) translate(4 100)">
<title>REINDEX</title>
<polygon fill="#ffffff" stroke="transparent" points="-4,4 -4,-100 616,-100 616,4 -4,4"/>
<!-- Node7 -->
<g id="node1" class="node">
<title>Node7</title>
<polygon fill="#bfbfbf" stroke="#000000" points="0,-57.5 0,-76.5 62,-76.5 62,-57.5 0,-57.5"/>
<text text-anchor="middle" x="31" y="-64.5" font-family="Helvetica,sans-Serif" font-size="10.00" fill="#000000">REINDEX</text>
</g>
<!-- Node8 -->
<g id="node2" class="node">
<title>Node8</title>
<g id="a_node2"><a xlink:href="class_r_p_c_console.html#ac0e0d64fc96a4621dcb8006eafbb3bc5" target="_top" xlink:title="Restart wallet with &quot;&#45;reindex&quot;. ">
<polygon fill="#ffffff" stroke="#000000" points="294,-76.5 294,-95.5 436,-95.5 436,-76.5 294,-76.5"/>
<text text-anchor="middle" x="365" y="-83.5" font-family="Helvetica,sans-Serif" font-size="10.00" fill="#000000">RPCConsole::walletReindex</text>
</a>
</g>
</g>
<!-- Node7&#45;&gt;Node8 -->
<g id="edge1" class="edge">
<title>Node7&#45;&gt;Node8</title>
<path fill="none" stroke="#191970" d="M72.2361,-69.3458C127.461,-72.4873 226.2876,-78.1092 293.7039,-81.9442"/>
<polygon fill="#191970" stroke="#191970" points="72.3047,-65.8441 62.122,-68.7704 71.907,-72.8328 72.3047,-65.8441"/>
</g>
<!-- Node10 -->
<g id="node4" class="node">
<title>Node10</title>
<g id="a_node4"><a xlink:href="class_r_p_c_console.html#a317ca97b14efb6af2c2e22d5a60e8872" target="_top" xlink:title="Build parameter list for restart. ">
<polygon fill="#ffffff" stroke="#000000" points="98,-38.5 98,-57.5 256,-57.5 256,-38.5 98,-38.5"/>
<text text-anchor="middle" x="177" y="-45.5" font-family="Helvetica,sans-Serif" font-size="10.00" fill="#000000">RPCConsole::buildParameterlist</text>
</a>
</g>
</g>
<!-- Node7&#45;&gt;Node10 -->
<g id="edge3" class="edge">
<title>Node7&#45;&gt;Node10</title>
<path fill="none" stroke="#191970" d="M72.5222,-61.5964C82.3012,-60.3238 93.0122,-58.9299 103.731,-57.535"/>
<polygon fill="#191970" stroke="#191970" points="71.7853,-58.1627 62.3207,-62.924 72.6887,-65.1042 71.7853,-58.1627"/>
</g>
<!-- Node9 -->
<g id="node3" class="node">
<title>Node9</title>
<g id="a_node3"><a xlink:href="class_r_p_c_console.html#a91ee472a4d664623e69aa3dfd2f5f3ad" target="_top" xlink:title="RPCConsole::RPCConsole">
<polygon fill="#ffffff" stroke="#000000" points="474,-38.5 474,-57.5 612,-57.5 612,-38.5 474,-38.5"/>
<text text-anchor="middle" x="543" y="-45.5" font-family="Helvetica,sans-Serif" font-size="10.00" fill="#000000">RPCConsole::RPCConsole</text>
</a>
</g>
</g>
<!-- Node8&#45;&gt;Node9 -->
<g id="edge2" class="edge">
<title>Node8&#45;&gt;Node9</title>
<path fill="none" stroke="#191970" d="M419.7162,-74.319C444.959,-68.9301 474.5452,-62.6139 498.4061,-57.5201"/>
<polygon fill="#191970" stroke="#191970" points="418.9658,-70.9003 409.9169,-76.411 420.4273,-77.746 418.9658,-70.9003"/>
</g>
<!-- Node10&#45;&gt;Node8 -->
<g id="edge8" class="edge">
<title>Node10&#45;&gt;Node8</title>
<path fill="none" stroke="#191970" d="M234.4365,-59.6095C261.1744,-65.014 292.5879,-71.3635 317.9008,-76.4799"/>
<polygon fill="#191970" stroke="#191970" points="234.9356,-56.1397 224.4403,-57.589 233.5487,-63.0009 234.9356,-56.1397"/>
</g>
<!-- Node11 -->
<g id="node5" class="node">
<title>Node11</title>
<g id="a_node5"><a xlink:href="class_r_p_c_console.html#a87bca6ab058743cda3d716543071ce03" target="_top" xlink:title="Wallet repair options. ">
<polygon fill="#ffffff" stroke="#000000" points="295,-38.5 295,-57.5 435,-57.5 435,-38.5 295,-38.5"/>
<text text-anchor="middle" x="365" y="-45.5" font-family="Helvetica,sans-Serif" font-size="10.00" fill="#000000">RPCConsole::walletRescan</text>
</a>
</g>
</g>
<!-- Node10&#45;&gt;Node11 -->
<g id="edge4" class="edge">
<title>Node10&#45;&gt;Node11</title>
<path fill="none" stroke="#191970" d="M266.4813,-48C276.0105,-48 285.6017,-48 294.8621,-48"/>
<polygon fill="#191970" stroke="#191970" points="266.1841,-44.5001 256.184,-48 266.184,-51.5001 266.1841,-44.5001"/>
</g>
<!-- Node12 -->
<g id="node6" class="node">
<title>Node12</title>
<g id="a_node6"><a xlink:href="class_r_p_c_console.html#ab99e8a7e0a6164126aa18c59827722d5" target="_top" xlink:title="Restart wallet with &quot;&#45;zapwallettxes=1&quot;. ">
<polygon fill="#ffffff" stroke="#000000" points="292,-.5 292,-19.5 438,-19.5 438,-.5 292,-.5"/>
<text text-anchor="middle" x="365" y="-7.5" font-family="Helvetica,sans-Serif" font-size="10.00" fill="#000000">RPCConsole::walletZaptxes1</text>
</a>
</g>
</g>
<!-- Node10&#45;&gt;Node12 -->
<g id="edge6" class="edge">
<title>Node10&#45;&gt;Node12</title>
<path fill="none" stroke="#191970" d="M234.4365,-36.3905C261.1744,-30.986 292.5879,-24.6365 317.9008,-19.5201"/>
<polygon fill="#191970" stroke="#191970" points="233.5487,-32.9991 224.4403,-38.411 234.9356,-39.8603 233.5487,-32.9991"/>
</g>
<!-- Node11&#45;&gt;Node9 -->
<g id="edge5" class="edge">
<title>Node11&#45;&gt;Node9</title>
<path fill="none" stroke="#191970" d="M445.3446,-48C454.8579,-48 464.5044,-48 473.8436,-48"/>
<polygon fill="#191970" stroke="#191970" points="445.0948,-44.5001 435.0948,-48 445.0948,-51.5001 445.0948,-44.5001"/>
</g>
<!-- Node12&#45;&gt;Node9 -->
<g id="edge7" class="edge">
<title>Node12&#45;&gt;Node9</title>
<path fill="none" stroke="#191970" d="M419.7162,-21.681C444.959,-27.0699 474.5452,-33.3861 498.4061,-38.4799"/>
<polygon fill="#191970" stroke="#191970" points="420.4273,-18.254 409.9169,-19.589 418.9658,-25.0997 420.4273,-18.254"/>
</g>
</g>
</svg>
