<?xml version="1.0" encoding="UTF-8" standalone="no"?>
<!DOCTYPE svg PUBLIC "-//W3C//DTD SVG 1.1//EN"
 "http://www.w3.org/Graphics/SVG/1.1/DTD/svg11.dtd">
<!-- Generated by graphviz version 2.40.1 (20161225.0304)
 -->
<!-- Title: ImportAddress Pages: 1 -->
<svg width="970pt" height="1012pt"
 viewBox="0.00 0.00 970.00 1011.85" xmlns="http://www.w3.org/2000/svg" xmlns:xlink="http://www.w3.org/1999/xlink">
<g id="graph0" class="graph" transform="scale(1 1) rotate(0) translate(4 1007.8485)">
<title>ImportAddress</title>
<polygon fill="#ffffff" stroke="transparent" points="-4,4 -4,-1007.8485 966,-1007.8485 966,4 -4,4"/>
<!-- Node309 -->
<g id="node1" class="node">
<title>Node309</title>
<polygon fill="#bfbfbf" stroke="#000000" points="0,-627.5 0,-646.5 80,-646.5 80,-627.5 0,-627.5"/>
<text text-anchor="middle" x="40" y="-634.5" font-family="Helvetica,sans-Serif" font-size="10.00" fill="#000000">ImportAddress</text>
</g>
<!-- Node310 -->
<g id="node2" class="node">
<title>Node310</title>
<g id="a_node2"><a xlink:href="standard_8cpp.html#ae40f28d3b46c21033f6ee1f1200d0321" target="_top" xlink:title="Generate a Raven scriptPubKey for the given CTxDestination. ">
<polygon fill="#ffffff" stroke="#000000" points="116,-665.5 116,-684.5 238,-684.5 238,-665.5 116,-665.5"/>
<text text-anchor="middle" x="177" y="-672.5" font-family="Helvetica,sans-Serif" font-size="10.00" fill="#000000">GetScriptForDestination</text>
</a>
</g>
</g>
<!-- Node309&#45;&gt;Node310 -->
<g id="edge1" class="edge">
<title>Node309&#45;&gt;Node310</title>
<path fill="none" stroke="#191970" d="M74.5709,-646.589C92.1752,-651.4719 113.7793,-657.4643 132.601,-662.685"/>
<polygon fill="#191970" stroke="#191970" points="131.8685,-666.1138 142.4402,-665.4141 133.7395,-659.3685 131.8685,-666.1138"/>
</g>
<!-- Node311 -->
<g id="node3" class="node">
<title>Node311</title>
<g id="a_node3"><a xlink:href="rpcdump_8cpp.html#ab05aad539141493439212c3052c1bcc2" target="_top" xlink:title="ImportScript">
<polygon fill="#ffffff" stroke="#000000" points="142,-627.5 142,-646.5 212,-646.5 212,-627.5 142,-627.5"/>
<text text-anchor="middle" x="177" y="-634.5" font-family="Helvetica,sans-Serif" font-size="10.00" fill="#000000">ImportScript</text>
</a>
</g>
</g>
<!-- Node309&#45;&gt;Node311 -->
<g id="edge2" class="edge">
<title>Node309&#45;&gt;Node311</title>
<path fill="none" stroke="#191970" d="M80.3635,-630.7839C96.4428,-630.1387 115.0256,-630.0783 131.5741,-630.6026"/>
<polygon fill="#191970" stroke="#191970" points="131.4418,-634.1 141.5744,-631.0046 131.723,-627.1056 131.4418,-634.1"/>
</g>
<!-- Node392 -->
<g id="node49" class="node">
<title>Node392</title>
<g id="a_node49"><a xlink:href="group___actions.html#ga53e5528d7005608594e73f500bc5bb8f" target="_top" xlink:title="CWallet::SetAddressBook">
<polygon fill="#ffffff" stroke="#000000" points="292,-494.5 292,-513.5 423,-513.5 423,-494.5 292,-494.5"/>
<text text-anchor="middle" x="357.5" y="-501.5" font-family="Helvetica,sans-Serif" font-size="10.00" fill="#000000">CWallet::SetAddressBook</text>
</a>
</g>
</g>
<!-- Node309&#45;&gt;Node392 -->
<g id="edge59" class="edge">
<title>Node309&#45;&gt;Node392</title>
<path fill="none" stroke="#191970" d="M78.5868,-627.4668C132.468,-613.9175 225.1262,-589.6632 238,-580 261.9634,-562.0129 249.5376,-540.3022 274,-523 276.731,-521.0684 279.627,-519.3295 282.6378,-517.7644"/>
<polygon fill="#191970" stroke="#191970" points="284.279,-520.8641 291.9648,-513.5717 281.4089,-514.4795 284.279,-520.8641"/>
</g>
<!-- Node393 -->
<g id="node50" class="node">
<title>Node393</title>
<g id="a_node50"><a xlink:href="standard_8cpp.html#adb3a21e4afe9c672720b182ddc7cad7c" target="_top" xlink:title="Check whether a CTxDestination is a CNoDestination. ">
<polygon fill="#ffffff" stroke="#000000" points="129,-551.5 129,-570.5 225,-570.5 225,-551.5 129,-551.5"/>
<text text-anchor="middle" x="177" y="-558.5" font-family="Helvetica,sans-Serif" font-size="10.00" fill="#000000">IsValidDestination</text>
</a>
</g>
</g>
<!-- Node309&#45;&gt;Node393 -->
<g id="edge58" class="edge">
<title>Node309&#45;&gt;Node393</title>
<path fill="none" stroke="#191970" d="M52.0955,-627.4496C66.6534,-616.2632 92.1282,-597.6547 116,-585 123.3629,-581.0968 131.5047,-577.4629 139.3772,-574.2636"/>
<polygon fill="#191970" stroke="#191970" points="140.7378,-577.4897 148.7761,-570.5878 138.1881,-570.9705 140.7378,-577.4897"/>
</g>
<!-- Node311&#45;&gt;Node309 -->
<g id="edge39" class="edge">
<title>Node311&#45;&gt;Node309</title>
<path fill="none" stroke="#191970" d="M141.5744,-642.9954C126.0658,-643.7624 107.5811,-643.9447 90.6581,-643.5422"/>
<polygon fill="#191970" stroke="#191970" points="90.4694,-640.0346 80.3635,-643.2161 90.2476,-647.0311 90.4694,-640.0346"/>
</g>
<!-- Node312 -->
<g id="node4" class="node">
<title>Node312</title>
<g id="a_node4"><a xlink:href="ismine_8cpp.html#a60a6865dd5664b8e9878a5380ca3e359" target="_top" xlink:title="IsMine">
<polygon fill="#ffffff" stroke="#000000" points="334.5,-722.5 334.5,-741.5 380.5,-741.5 380.5,-722.5 334.5,-722.5"/>
<text text-anchor="middle" x="357.5" y="-729.5" font-family="Helvetica,sans-Serif" font-size="10.00" fill="#000000">IsMine</text>
</a>
</g>
</g>
<!-- Node311&#45;&gt;Node312 -->
<g id="edge3" class="edge">
<title>Node311&#45;&gt;Node312</title>
<path fill="none" stroke="#191970" d="M212.1204,-643.6352C221.1243,-646.4481 230.4017,-650.418 238,-656 260.6532,-672.642 251.1646,-691.609 274,-708 288.6756,-718.534 307.8952,-724.4645 324.1952,-727.7933"/>
<polygon fill="#191970" stroke="#191970" points="323.9466,-731.3046 334.4079,-729.6273 325.184,-724.4148 323.9466,-731.3046"/>
</g>
<!-- Node313 -->
<g id="node5" class="node">
<title>Node313</title>
<g id="a_node5"><a xlink:href="rpc_2protocol_8cpp.html#a40b75d3d265c4a2e1d5fe3e129743884" target="_top" xlink:title="JSONRPCError">
<polygon fill="#ffffff" stroke="#000000" points="314.5,-570.5 314.5,-589.5 400.5,-589.5 400.5,-570.5 314.5,-570.5"/>
<text text-anchor="middle" x="357.5" y="-577.5" font-family="Helvetica,sans-Serif" font-size="10.00" fill="#000000">JSONRPCError</text>
</a>
</g>
</g>
<!-- Node311&#45;&gt;Node313 -->
<g id="edge5" class="edge">
<title>Node311&#45;&gt;Node313</title>
<path fill="none" stroke="#191970" d="M201.3689,-627.4021C229.4935,-616.3325 272.1525,-599.5686 274,-599 283.6979,-596.0154 294.1597,-593.2718 304.2889,-590.8527"/>
<polygon fill="#191970" stroke="#191970" points="305.3124,-594.2085 314.2665,-588.545 303.735,-587.3885 305.3124,-594.2085"/>
</g>
<!-- Node345 -->
<g id="node26" class="node">
<title>Node345</title>
<g id="a_node26"><a xlink:href="group__map_wallet.html#ga26fd9a9f48230daf346500d2afb6115e" target="_top" xlink:title="CWallet::MarkDirty">
<polygon fill="#ffffff" stroke="#000000" points="307,-646.5 307,-665.5 408,-665.5 408,-646.5 307,-646.5"/>
<text text-anchor="middle" x="357.5" y="-653.5" font-family="Helvetica,sans-Serif" font-size="10.00" fill="#000000">CWallet::MarkDirty</text>
</a>
</g>
</g>
<!-- Node311&#45;&gt;Node345 -->
<g id="edge26" class="edge">
<title>Node311&#45;&gt;Node345</title>
<path fill="none" stroke="#191970" d="M212.2307,-640.7085C236.2621,-643.2381 268.7096,-646.6536 296.8429,-649.615"/>
<polygon fill="#191970" stroke="#191970" points="296.6776,-653.1169 306.9891,-650.6831 297.4105,-646.1554 296.6776,-653.1169"/>
</g>
<!-- Node346 -->
<g id="node27" class="node">
<title>Node346</title>
<g id="a_node27"><a xlink:href="class_c_basic_key_store.html#aefbc267bb1305990d70969a7e64a1cdf" target="_top" xlink:title="CBasicKeyStore::HaveWatchOnly">
<polygon fill="#ffffff" stroke="#000000" points="274,-608.5 274,-627.5 441,-627.5 441,-608.5 274,-608.5"/>
<text text-anchor="middle" x="357.5" y="-615.5" font-family="Helvetica,sans-Serif" font-size="10.00" fill="#000000">CBasicKeyStore::HaveWatchOnly</text>
</a>
</g>
</g>
<!-- Node311&#45;&gt;Node346 -->
<g id="edge27" class="edge">
<title>Node311&#45;&gt;Node346</title>
<path fill="none" stroke="#191970" d="M212.2307,-633.2915C227.1199,-631.7242 245.2397,-629.8169 263.5626,-627.8882"/>
<polygon fill="#191970" stroke="#191970" points="264.1649,-631.3442 273.7436,-626.8165 263.4321,-624.3826 264.1649,-631.3442"/>
</g>
<!-- Node347 -->
<g id="node28" class="node">
<title>Node347</title>
<g id="a_node28"><a xlink:href="group__map_wallet.html#ga2d402c76bf62238a13c8b04ab1a72e66" target="_top" xlink:title="Private version of AddWatchOnly method which does not accept a timestamp, and which will reset the wa...">
<polygon fill="#ffffff" stroke="#000000" points="295.5,-869.5 295.5,-888.5 419.5,-888.5 419.5,-869.5 295.5,-869.5"/>
<text text-anchor="middle" x="357.5" y="-876.5" font-family="Helvetica,sans-Serif" font-size="10.00" fill="#000000">CWallet::AddWatchOnly</text>
</a>
</g>
</g>
<!-- Node311&#45;&gt;Node347 -->
<g id="edge28" class="edge">
<title>Node311&#45;&gt;Node347</title>
<path fill="none" stroke="#191970" d="M212.151,-641.3445C221.6888,-644.1297 231.2362,-648.6577 238,-656 287.6791,-709.9276 234.0605,-755.5099 274,-817 287.3777,-837.5961 310.1123,-853.8088 328.4839,-864.4816"/>
<polygon fill="#191970" stroke="#191970" points="326.9146,-867.6136 337.3559,-869.4112 330.3145,-861.4947 326.9146,-867.6136"/>
</g>
<!-- Node349 -->
<g id="node30" class="node">
<title>Node349</title>
<g id="a_node30"><a xlink:href="class_c_basic_key_store.html#ad7d3983c6d1f1396896d4304b6437028" target="_top" xlink:title="CBasicKeyStore::HaveCScript">
<polygon fill="#ffffff" stroke="#000000" points="281.5,-532.5 281.5,-551.5 433.5,-551.5 433.5,-532.5 281.5,-532.5"/>
<text text-anchor="middle" x="357.5" y="-539.5" font-family="Helvetica,sans-Serif" font-size="10.00" fill="#000000">CBasicKeyStore::HaveCScript</text>
</a>
</g>
</g>
<!-- Node311&#45;&gt;Node349 -->
<g id="edge30" class="edge">
<title>Node311&#45;&gt;Node349</title>
<path fill="none" stroke="#191970" d="M211.5071,-627.4705C220.7088,-623.8901 230.2397,-619.1487 238,-613 260.0317,-595.5436 250.7135,-576.7436 274,-561 276.9213,-559.025 280.018,-557.2528 283.2327,-555.6629"/>
<polygon fill="#191970" stroke="#191970" points="284.7563,-558.8176 292.5564,-551.6476 281.9875,-552.3884 284.7563,-558.8176"/>
</g>
<!-- Node350 -->
<g id="node31" class="node">
<title>Node350</title>
<g id="a_node31"><a xlink:href="group__map_wallet.html#ga15df27607f4dde9f262e0f030c9414b5" target="_top" xlink:title="Support for BIP 0013 : see https://github.com/raven/bips/blob/master/bip&#45;0013.mediawiki. ">
<polygon fill="#ffffff" stroke="#000000" points="503.5,-684.5 503.5,-703.5 611.5,-703.5 611.5,-684.5 503.5,-684.5"/>
<text text-anchor="middle" x="557.5" y="-691.5" font-family="Helvetica,sans-Serif" font-size="10.00" fill="#000000">CWallet::AddCScript</text>
</a>
</g>
</g>
<!-- Node311&#45;&gt;Node350 -->
<g id="edge31" class="edge">
<title>Node311&#45;&gt;Node350</title>
<path fill="none" stroke="#191970" d="M211.5927,-646.564C220.3235,-649.3066 229.6006,-652.5102 238,-656 254.707,-662.9416 256.5944,-670.0651 274,-675 347.0878,-695.7219 434.8367,-698.3882 493.1572,-697.2234"/>
<polygon fill="#191970" stroke="#191970" points="493.4226,-700.7181 503.3343,-696.9752 493.2519,-693.7201 493.4226,-700.7181"/>
</g>
<!-- Node366 -->
<g id="node39" class="node">
<title>Node366</title>
<g id="a_node39"><a xlink:href="standard_8cpp.html#a951f7e601746ae076afdf3169ecca2fc" target="_top" xlink:title="Parse a standard scriptPubKey for the destination address. ">
<polygon fill="#ffffff" stroke="#000000" points="308.5,-788.5 308.5,-807.5 406.5,-807.5 406.5,-788.5 308.5,-788.5"/>
<text text-anchor="middle" x="357.5" y="-795.5" font-family="Helvetica,sans-Serif" font-size="10.00" fill="#000000">ExtractDestination</text>
</a>
</g>
</g>
<!-- Node311&#45;&gt;Node366 -->
<g id="edge40" class="edge">
<title>Node311&#45;&gt;Node366</title>
<path fill="none" stroke="#191970" d="M212.0676,-641.8245C221.4904,-644.6256 230.9969,-649.0421 238,-656 275.3914,-693.1504 237.2138,-731.2502 274,-769 280.836,-776.0151 289.454,-781.3348 298.5403,-785.3685"/>
<polygon fill="#191970" stroke="#191970" points="297.5361,-788.7341 308.1237,-789.1237 300.0899,-782.2165 297.5361,-788.7341"/>
</g>
<!-- Node311&#45;&gt;Node392 -->
<g id="edge57" class="edge">
<title>Node311&#45;&gt;Node392</title>
<path fill="none" stroke="#191970" d="M212.1563,-628.6814C221.4712,-625.1041 230.8984,-620.0615 238,-613 268.5493,-582.6233 241.245,-550.9841 274,-523 276.6811,-520.7094 279.5821,-518.6802 282.6393,-516.8836"/>
<polygon fill="#191970" stroke="#191970" points="284.2254,-520.0038 291.6158,-512.4123 281.1043,-513.7381 284.2254,-520.0038"/>
</g>
<!-- Node312&#45;&gt;Node312 -->
<g id="edge4" class="edge">
<title>Node312&#45;&gt;Node312</title>
<path fill="none" stroke="#191970" d="M334.4287,-739.1718C314.6533,-748.6068 322.3438,-760 357.5,-760 385.5151,-760 396.0892,-752.7652 389.2222,-745.0517"/>
<polygon fill="#191970" stroke="#191970" points="390.8092,-741.8985 380.5713,-739.1718 386.8743,-747.6878 390.8092,-741.8985"/>
</g>
<!-- Node314 -->
<g id="node6" class="node">
<title>Node314</title>
<g id="a_node6"><a xlink:href="util_8h.html#a96c5fc7111f69f7dcaba992d95d13e03" target="_top" xlink:title="error">
<polygon fill="#ffffff" stroke="#000000" points="539.5,-361.5 539.5,-380.5 575.5,-380.5 575.5,-361.5 539.5,-361.5"/>
<text text-anchor="middle" x="557.5" y="-368.5" font-family="Helvetica,sans-Serif" font-size="10.00" fill="#000000">error</text>
</a>
</g>
</g>
<!-- Node313&#45;&gt;Node314 -->
<g id="edge6" class="edge">
<title>Node313&#45;&gt;Node314</title>
<path fill="none" stroke="#191970" d="M400.5594,-576.8438C414.4558,-574.169 429.2819,-569.4055 441,-561 502.5015,-516.8846 538.0347,-429.2553 551.3769,-390.3666"/>
<polygon fill="#191970" stroke="#191970" points="554.7346,-391.3604 554.5547,-380.7671 548.0893,-389.1605 554.7346,-391.3604"/>
</g>
<!-- Node344 -->
<g id="node25" class="node">
<title>Node344</title>
<g id="a_node25"><a xlink:href="class_uni_value.html#a944cd1b59b040cd24c9f46b55a68d49a" target="_top" xlink:title="UniValue::push_back">
<polygon fill="#ffffff" stroke="#000000" points="502.5,-323.5 502.5,-342.5 612.5,-342.5 612.5,-323.5 502.5,-323.5"/>
<text text-anchor="middle" x="557.5" y="-330.5" font-family="Helvetica,sans-Serif" font-size="10.00" fill="#000000">UniValue::push_back</text>
</a>
</g>
</g>
<!-- Node313&#45;&gt;Node344 -->
<g id="edge25" class="edge">
<title>Node313&#45;&gt;Node344</title>
<path fill="none" stroke="#191970" d="M400.9014,-579.5221C415.4916,-577.152 430.6682,-571.8962 441,-561 505.8547,-492.6026 412.421,-420.6578 477,-352 481.4549,-347.2637 486.8525,-343.6084 492.7198,-340.8"/>
<polygon fill="#191970" stroke="#191970" points="494.2323,-343.9662 502.2585,-337.0501 491.6712,-337.4515 494.2323,-343.9662"/>
</g>
<!-- Node315 -->
<g id="node7" class="node">
<title>Node315</title>
<g id="a_node7"><a xlink:href="util_8h.html#afd4c3002b2797c0560adddb6af3ca1da" target="_top" xlink:title="Send a string to the log output. ">
<polygon fill="#ffffff" stroke="#000000" points="714.5,-266.5 714.5,-285.5 779.5,-285.5 779.5,-266.5 714.5,-266.5"/>
<text text-anchor="middle" x="747" y="-273.5" font-family="Helvetica,sans-Serif" font-size="10.00" fill="#000000">LogPrintStr</text>
</a>
</g>
</g>
<!-- Node314&#45;&gt;Node315 -->
<g id="edge7" class="edge">
<title>Node314&#45;&gt;Node315</title>
<path fill="none" stroke="#191970" d="M575.7385,-370.5713C593.1945,-369.3253 619.5296,-365.1759 638,-352 662.3926,-334.5995 649.8077,-312.678 674,-295 682.8142,-288.5593 693.6283,-284.2984 704.2055,-281.4808"/>
<polygon fill="#191970" stroke="#191970" points="705.2314,-284.8367 714.2008,-279.1975 703.6724,-278.0125 705.2314,-284.8367"/>
</g>
<!-- Node316 -->
<g id="node8" class="node">
<title>Node316</title>
<g id="a_node8"><a xlink:href="namespacetinyformat.html#a05144619d8b16e2b31b2594ca9c6bf1d" target="_top" xlink:title="Format list of arguments to the stream according to given format string. ">
<polygon fill="#ffffff" stroke="#ff0000" points="700,-228.5 700,-247.5 794,-247.5 794,-228.5 700,-228.5"/>
<text text-anchor="middle" x="747" y="-235.5" font-family="Helvetica,sans-Serif" font-size="10.00" fill="#000000">tinyformat::format</text>
</a>
</g>
</g>
<!-- Node314&#45;&gt;Node316 -->
<g id="edge8" class="edge">
<title>Node314&#45;&gt;Node316</title>
<path fill="none" stroke="#191970" d="M575.6847,-371.3808C593.6018,-370.7864 620.7295,-367.1527 638,-352 671.9404,-322.2214 640.4019,-287.1643 674,-257 678.7323,-252.7514 684.2961,-249.4309 690.2056,-246.8394"/>
<polygon fill="#191970" stroke="#191970" points="691.5337,-250.0802 699.7068,-243.3384 689.1134,-243.5119 691.5337,-250.0802"/>
</g>
<!-- Node325 -->
<g id="node9" class="node">
<title>Node325</title>
<g id="a_node9"><a xlink:href="util_8h.html#aaada8c5faa502eb0c33fc01294955db8" target="_top" xlink:title="PrintExceptionContinue">
<polygon fill="#ffffff" stroke="#000000" points="687.5,-190.5 687.5,-209.5 806.5,-209.5 806.5,-190.5 687.5,-190.5"/>
<text text-anchor="middle" x="747" y="-197.5" font-family="Helvetica,sans-Serif" font-size="10.00" fill="#000000">PrintExceptionContinue</text>
</a>
</g>
</g>
<!-- Node314&#45;&gt;Node325 -->
<g id="edge9" class="edge">
<title>Node314&#45;&gt;Node325</title>
<path fill="none" stroke="#191970" d="M575.6666,-371.7353C593.8314,-371.4489 621.3884,-368.0794 638,-352 682.0012,-309.4087 630.4881,-262.0911 674,-219 675.4655,-217.5486 677.0271,-216.2039 678.6672,-214.9583"/>
<polygon fill="#191970" stroke="#191970" points="680.7864,-217.7626 687.4429,-209.5199 677.099,-211.8125 680.7864,-217.7626"/>
</g>
<!-- Node326 -->
<g id="node10" class="node">
<title>Node326</title>
<g id="a_node10"><a xlink:href="util_8h.html#af0e69a29ba128b74030ad8a213f2037a" target="_top" xlink:title="FileCommit">
<polygon fill="#ffffff" stroke="#000000" points="713.5,-152.5 713.5,-171.5 780.5,-171.5 780.5,-152.5 713.5,-152.5"/>
<text text-anchor="middle" x="747" y="-159.5" font-family="Helvetica,sans-Serif" font-size="10.00" fill="#000000">FileCommit</text>
</a>
</g>
</g>
<!-- Node314&#45;&gt;Node326 -->
<g id="edge10" class="edge">
<title>Node314&#45;&gt;Node326</title>
<path fill="none" stroke="#191970" d="M575.518,-371.9298C593.8313,-371.8343 621.7517,-368.6477 638,-352 692.2472,-296.4191 620.3911,-237.1969 674,-181 681.7513,-172.8745 692.5003,-168.0607 703.3692,-165.2517"/>
<polygon fill="#191970" stroke="#191970" points="704.2177,-168.6503 713.3019,-163.198 702.8004,-161.7953 704.2177,-168.6503"/>
</g>
<!-- Node327 -->
<g id="node11" class="node">
<title>Node327</title>
<g id="a_node11"><a xlink:href="util_8h.html#acb8d6b822bc1bfa609bf43bbac1a0d44" target="_top" xlink:title="TruncateFile">
<polygon fill="#ffffff" stroke="#000000" points="711.5,-114.5 711.5,-133.5 782.5,-133.5 782.5,-114.5 711.5,-114.5"/>
<text text-anchor="middle" x="747" y="-121.5" font-family="Helvetica,sans-Serif" font-size="10.00" fill="#000000">TruncateFile</text>
</a>
</g>
</g>
<!-- Node314&#45;&gt;Node327 -->
<g id="edge11" class="edge">
<title>Node314&#45;&gt;Node327</title>
<path fill="none" stroke="#191970" d="M575.6434,-372.05C594.059,-372.0525 622.0618,-368.9448 638,-352 702.579,-283.3422 610.2093,-212.3909 674,-143 681.1866,-135.1825 691.1444,-130.411 701.3968,-127.5404"/>
<polygon fill="#191970" stroke="#191970" points="702.2446,-130.9372 711.2359,-125.3331 700.7123,-124.107 702.2446,-130.9372"/>
</g>
<!-- Node328 -->
<g id="node12" class="node">
<title>Node328</title>
<g id="a_node12"><a xlink:href="util_8h.html#a756a5c49a4bb607d16d9842f8f3ede4f" target="_top" xlink:title="this function tries to raise the file descriptor limit to the requested number. ">
<polygon fill="#ffffff" stroke="#000000" points="685,-76.5 685,-95.5 809,-95.5 809,-76.5 685,-76.5"/>
<text text-anchor="middle" x="747" y="-83.5" font-family="Helvetica,sans-Serif" font-size="10.00" fill="#000000">RaiseFileDescriptorLimit</text>
</a>
</g>
</g>
<!-- Node314&#45;&gt;Node328 -->
<g id="edge12" class="edge">
<title>Node314&#45;&gt;Node328</title>
<path fill="none" stroke="#191970" d="M575.7325,-372.1327C594.2208,-372.2027 622.2821,-369.1494 638,-352 712.9571,-270.2162 599.9818,-187.6345 674,-105 675.0649,-103.8111 676.1939,-102.6924 677.3784,-101.6398"/>
<polygon fill="#191970" stroke="#191970" points="679.7641,-104.2397 685.9119,-95.6109 675.725,-98.5226 679.7641,-104.2397"/>
</g>
<!-- Node329 -->
<g id="node13" class="node">
<title>Node329</title>
<g id="a_node13"><a xlink:href="util_8h.html#a91c763bffc49cf7ed8d45cc44870e55c" target="_top" xlink:title="this function tries to make a particular range of a file allocated (corresponding to disk space) it i...">
<polygon fill="#ffffff" stroke="#000000" points="699,-38.5 699,-57.5 795,-57.5 795,-38.5 699,-38.5"/>
<text text-anchor="middle" x="747" y="-45.5" font-family="Helvetica,sans-Serif" font-size="10.00" fill="#000000">AllocateFileRange</text>
</a>
</g>
</g>
<!-- Node314&#45;&gt;Node329 -->
<g id="edge13" class="edge">
<title>Node314&#45;&gt;Node329</title>
<path fill="none" stroke="#191970" d="M575.799,-372.1931C594.3415,-372.3122 622.4464,-369.2986 638,-352 723.363,-257.06 589.7268,-162.9087 674,-67 678.2546,-62.158 683.5715,-58.4756 689.3851,-55.6858"/>
<polygon fill="#191970" stroke="#191970" points="690.8015,-58.8902 698.8483,-51.9982 688.2599,-52.368 690.8015,-58.8902"/>
</g>
<!-- Node330 -->
<g id="node14" class="node">
<title>Node330</title>
<g id="a_node14"><a xlink:href="util_8h.html#a579657da2b55b131ecd453bf1b0d2314" target="_top" xlink:title="RenameOver">
<polygon fill="#ffffff" stroke="#000000" points="710,-.5 710,-19.5 784,-19.5 784,-.5 710,-.5"/>
<text text-anchor="middle" x="747" y="-7.5" font-family="Helvetica,sans-Serif" font-size="10.00" fill="#000000">RenameOver</text>
</a>
</g>
</g>
<!-- Node314&#45;&gt;Node330 -->
<g id="edge14" class="edge">
<title>Node314&#45;&gt;Node330</title>
<path fill="none" stroke="#191970" d="M575.5073,-372.2357C594.087,-372.4318 622.4784,-369.5195 638,-352 733.7868,-243.8839 579.4542,-138.203 674,-29 680.6861,-21.2774 690.0747,-16.4969 699.8984,-13.5826"/>
<polygon fill="#191970" stroke="#191970" points="700.854,-16.9534 709.7831,-11.2505 699.2465,-10.1404 700.854,-16.9534"/>
</g>
<!-- Node331 -->
<g id="node15" class="node">
<title>Node331</title>
<g id="a_node15"><a xlink:href="util_8h.html#a9042a919d837da9d97311a0c460c597c" target="_top" xlink:title="Ignores exceptions thrown by Boost&#39;s create_directories if the requested directory exists...">
<polygon fill="#ffffff" stroke="#000000" points="693.5,-646.5 693.5,-665.5 800.5,-665.5 800.5,-646.5 693.5,-646.5"/>
<text text-anchor="middle" x="747" y="-653.5" font-family="Helvetica,sans-Serif" font-size="10.00" fill="#000000">TryCreateDirectories</text>
</a>
</g>
</g>
<!-- Node314&#45;&gt;Node331 -->
<g id="edge15" class="edge">
<title>Node314&#45;&gt;Node331</title>
<path fill="none" stroke="#191970" d="M558.6842,-380.5016C564.0005,-418.989 589.2371,-564.6863 674,-637 677.0511,-639.603 680.4169,-641.8551 683.9785,-643.8031"/>
<polygon fill="#191970" stroke="#191970" points="682.6208,-647.0312 693.167,-648.0452 685.555,-640.6758 682.6208,-647.0312"/>
</g>
<!-- Node332 -->
<g id="node16" class="node">
<title>Node332</title>
<g id="a_node16"><a xlink:href="util_8h.html#a15cb85964fe08c264605537f44570d3c" target="_top" xlink:title="GetDefaultDataDir">
<polygon fill="#ffffff" stroke="#000000" points="698,-608.5 698,-627.5 796,-627.5 796,-608.5 698,-608.5"/>
<text text-anchor="middle" x="747" y="-615.5" font-family="Helvetica,sans-Serif" font-size="10.00" fill="#000000">GetDefaultDataDir</text>
</a>
</g>
</g>
<!-- Node314&#45;&gt;Node332 -->
<g id="edge16" class="edge">
<title>Node314&#45;&gt;Node332</title>
<path fill="none" stroke="#191970" d="M559.444,-380.5693C567.0867,-415.6524 598.4386,-538.3301 674,-599 678.3399,-602.4846 683.2508,-605.3359 688.4235,-607.6681"/>
<polygon fill="#191970" stroke="#191970" points="687.3603,-611.009 697.9503,-611.3301 689.8719,-604.4751 687.3603,-611.009"/>
</g>
<!-- Node333 -->
<g id="node17" class="node">
<title>Node333</title>
<g id="a_node17"><a xlink:href="util_8h.html#abb63dfb710832aefb746933af05198d4" target="_top" xlink:title="GetDataDir">
<polygon fill="#ffffff" stroke="#000000" points="714,-570.5 714,-589.5 780,-589.5 780,-570.5 714,-570.5"/>
<text text-anchor="middle" x="747" y="-577.5" font-family="Helvetica,sans-Serif" font-size="10.00" fill="#000000">GetDataDir</text>
</a>
</g>
</g>
<!-- Node314&#45;&gt;Node333 -->
<g id="edge17" class="edge">
<title>Node314&#45;&gt;Node333</title>
<path fill="none" stroke="#191970" d="M560.5061,-380.6837C570.7606,-412.0542 607.4698,-511.7036 674,-561 682.6915,-567.44 693.3742,-571.7023 703.8583,-574.5216"/>
<polygon fill="#191970" stroke="#191970" points="703.2473,-577.9724 713.7778,-576.8066 704.8187,-571.1511 703.2473,-577.9724"/>
</g>
<!-- Node334 -->
<g id="node18" class="node">
<title>Node334</title>
<g id="a_node18"><a xlink:href="util_8h.html#abfb50dfe077aced7591f2aba601f605d" target="_top" xlink:title="ClearDatadirCache">
<polygon fill="#ffffff" stroke="#000000" points="697,-532.5 697,-551.5 797,-551.5 797,-532.5 697,-532.5"/>
<text text-anchor="middle" x="747" y="-539.5" font-family="Helvetica,sans-Serif" font-size="10.00" fill="#000000">ClearDatadirCache</text>
</a>
</g>
</g>
<!-- Node314&#45;&gt;Node334 -->
<g id="edge18" class="edge">
<title>Node314&#45;&gt;Node334</title>
<path fill="none" stroke="#191970" d="M561.9832,-380.6045C575.0883,-407.5837 616.0945,-484.5854 674,-523 678.0821,-525.7081 682.5298,-528.0304 687.1492,-530.0219"/>
<polygon fill="#191970" stroke="#191970" points="686.2181,-533.4112 696.81,-533.6626 688.6867,-526.8609 686.2181,-533.4112"/>
</g>
<!-- Node335 -->
<g id="node19" class="node">
<title>Node335</title>
<g id="a_node19"><a xlink:href="util_8h.html#aa634f312705d4811dfa2a5392bddf6cf" target="_top" xlink:title="GetConfigFile">
<polygon fill="#ffffff" stroke="#ff0000" points="708.5,-494.5 708.5,-513.5 785.5,-513.5 785.5,-494.5 708.5,-494.5"/>
<text text-anchor="middle" x="747" y="-501.5" font-family="Helvetica,sans-Serif" font-size="10.00" fill="#000000">GetConfigFile</text>
</a>
</g>
</g>
<!-- Node314&#45;&gt;Node335 -->
<g id="edge19" class="edge">
<title>Node314&#45;&gt;Node335</title>
<path fill="none" stroke="#191970" d="M564.4653,-380.6484C580.906,-402.6934 624.4867,-457.0053 674,-485 681.5382,-489.2621 690.0526,-492.59 698.5361,-495.182"/>
<polygon fill="#191970" stroke="#191970" points="697.8502,-498.6233 708.4203,-497.8987 699.7054,-491.8736 697.8502,-498.6233"/>
</g>
<!-- Node337 -->
<g id="node20" class="node">
<title>Node337</title>
<g id="a_node20"><a xlink:href="util_8h.html#aa0172eabeecce5061826cb19990fbde2" target="_top" xlink:title="GetPidFile">
<polygon fill="#ffffff" stroke="#ff0000" points="716,-456.5 716,-475.5 778,-475.5 778,-456.5 716,-456.5"/>
<text text-anchor="middle" x="747" y="-463.5" font-family="Helvetica,sans-Serif" font-size="10.00" fill="#000000">GetPidFile</text>
</a>
</g>
</g>
<!-- Node314&#45;&gt;Node337 -->
<g id="edge20" class="edge">
<title>Node314&#45;&gt;Node337</title>
<path fill="none" stroke="#191970" d="M569.3267,-380.6072C589.5735,-396.603 632.6989,-428.7376 674,-447 683.9841,-451.4147 695.2063,-454.969 705.8017,-457.755"/>
<polygon fill="#191970" stroke="#191970" points="705.1604,-461.2016 715.7072,-460.1938 706.8339,-454.4045 705.1604,-461.2016"/>
</g>
<!-- Node339 -->
<g id="node21" class="node">
<title>Node339</title>
<g id="a_node21"><a xlink:href="util_8h.html#a1c0f9b041628dcb399a023bc9913f41d" target="_top" xlink:title="CreatePidFile">
<polygon fill="#ffffff" stroke="#ff0000" points="709,-418.5 709,-437.5 785,-437.5 785,-418.5 709,-418.5"/>
<text text-anchor="middle" x="747" y="-425.5" font-family="Helvetica,sans-Serif" font-size="10.00" fill="#000000">CreatePidFile</text>
</a>
</g>
</g>
<!-- Node314&#45;&gt;Node339 -->
<g id="edge21" class="edge">
<title>Node314&#45;&gt;Node339</title>
<path fill="none" stroke="#191970" d="M575.5553,-377.2664C598.3649,-385.0955 638.8836,-398.7132 674,-409 682.1297,-411.3815 690.812,-413.7726 699.2485,-416.0164"/>
<polygon fill="#191970" stroke="#191970" points="698.4305,-419.4202 708.9914,-418.5733 700.2074,-412.6494 698.4305,-419.4202"/>
</g>
<!-- Node341 -->
<g id="node22" class="node">
<title>Node341</title>
<g id="a_node22"><a xlink:href="util_8h.html#a1e755e72104d3ca393efc1cc3f41952a" target="_top" xlink:title="OpenDebugLog">
<polygon fill="#ffffff" stroke="#000000" points="705,-380.5 705,-399.5 789,-399.5 789,-380.5 705,-380.5"/>
<text text-anchor="middle" x="747" y="-387.5" font-family="Helvetica,sans-Serif" font-size="10.00" fill="#000000">OpenDebugLog</text>
</a>
</g>
</g>
<!-- Node314&#45;&gt;Node341 -->
<g id="edge22" class="edge">
<title>Node314&#45;&gt;Node341</title>
<path fill="none" stroke="#191970" d="M575.6701,-372.8218C602.855,-375.5475 655.1605,-380.7918 694.8602,-384.7723"/>
<polygon fill="#191970" stroke="#191970" points="694.6169,-388.2653 704.9162,-385.7805 695.3153,-381.3003 694.6169,-388.2653"/>
</g>
<!-- Node342 -->
<g id="node23" class="node">
<title>Node342</title>
<g id="a_node23"><a xlink:href="util_8h.html#a37fca7e305fe0caa306b23fdb37f88e2" target="_top" xlink:title="ShrinkDebugFile">
<polygon fill="#ffffff" stroke="#ff0000" points="702.5,-342.5 702.5,-361.5 791.5,-361.5 791.5,-342.5 702.5,-342.5"/>
<text text-anchor="middle" x="747" y="-349.5" font-family="Helvetica,sans-Serif" font-size="10.00" fill="#000000">ShrinkDebugFile</text>
</a>
</g>
</g>
<!-- Node314&#45;&gt;Node342 -->
<g id="edge23" class="edge">
<title>Node314&#45;&gt;Node342</title>
<path fill="none" stroke="#191970" d="M575.6701,-369.1782C602.2584,-366.5123 652.877,-361.4371 692.229,-357.4916"/>
<polygon fill="#191970" stroke="#191970" points="692.6253,-360.9695 702.2262,-356.4892 691.9269,-354.0044 692.6253,-360.9695"/>
</g>
<!-- Node343 -->
<g id="node24" class="node">
<title>Node343</title>
<g id="a_node24"><a xlink:href="util_8h.html#aa803aa631ab8b4bd79fa9d7b2172bf9a" target="_top" xlink:title="runCommand">
<polygon fill="#ffffff" stroke="#000000" points="709.5,-304.5 709.5,-323.5 784.5,-323.5 784.5,-304.5 709.5,-304.5"/>
<text text-anchor="middle" x="747" y="-311.5" font-family="Helvetica,sans-Serif" font-size="10.00" fill="#000000">runCommand</text>
</a>
</g>
</g>
<!-- Node314&#45;&gt;Node343 -->
<g id="edge24" class="edge">
<title>Node314&#45;&gt;Node343</title>
<path fill="none" stroke="#191970" d="M575.7934,-368.0521C592.3684,-365.0621 617.2936,-359.7633 638,-352 654.9402,-345.6487 657.1334,-339.5443 674,-333 682.0732,-329.8675 690.8463,-327.0857 699.4191,-324.6822"/>
<polygon fill="#191970" stroke="#191970" points="700.577,-327.9958 709.3368,-322.0363 698.7725,-321.2324 700.577,-327.9958"/>
</g>
<!-- Node348 -->
<g id="node29" class="node">
<title>Node348</title>
<g id="a_node29"><a xlink:href="class_c_basic_key_store.html#af5641504058ae079925af7d00e513a77" target="_top" xlink:title="Support for Watch&#45;only addresses. ">
<polygon fill="#ffffff" stroke="#000000" points="477,-912.5 477,-931.5 638,-931.5 638,-912.5 477,-912.5"/>
<text text-anchor="middle" x="557.5" y="-919.5" font-family="Helvetica,sans-Serif" font-size="10.00" fill="#000000">CBasicKeyStore::AddWatchOnly</text>
</a>
</g>
</g>
<!-- Node347&#45;&gt;Node348 -->
<g id="edge29" class="edge">
<title>Node347&#45;&gt;Node348</title>
<path fill="none" stroke="#191970" d="M401.8865,-888.5431C431.7932,-894.973 471.4306,-903.4951 503.2159,-910.3289"/>
<polygon fill="#191970" stroke="#191970" points="502.7253,-913.8033 513.2376,-912.4836 504.1967,-906.9597 502.7253,-913.8033"/>
</g>
<!-- Node351 -->
<g id="node32" class="node">
<title>Node351</title>
<g id="a_node32"><a xlink:href="class_c_basic_key_store.html#a45baa35575b5818f6782266e0f4731e6" target="_top" xlink:title="Support for BIP 0013 : see https://github.com/raven/bips/blob/master/bip&#45;0013.mediawiki. ">
<polygon fill="#ffffff" stroke="#000000" points="674,-760.5 674,-779.5 820,-779.5 820,-760.5 674,-760.5"/>
<text text-anchor="middle" x="747" y="-767.5" font-family="Helvetica,sans-Serif" font-size="10.00" fill="#000000">CBasicKeyStore::AddCScript</text>
</a>
</g>
</g>
<!-- Node350&#45;&gt;Node351 -->
<g id="edge32" class="edge">
<title>Node350&#45;&gt;Node351</title>
<path fill="none" stroke="#191970" d="M611.5558,-702.174C620.7381,-704.8293 629.9097,-708.3452 638,-713 658.165,-724.602 653.9688,-739.1684 674,-751 677.6787,-753.1729 681.6054,-755.1005 685.6572,-756.8101"/>
<polygon fill="#191970" stroke="#191970" points="684.6879,-760.1845 695.2802,-760.4163 687.1444,-753.6297 684.6879,-760.1845"/>
</g>
<!-- Node354 -->
<g id="node34" class="node">
<title>Node354</title>
<g id="a_node34"><a xlink:href="class_c_wallet_d_b.html#a8c69e48e2305775898658e0a4f4616c9" target="_top" xlink:title="CWalletDB::WriteCScript">
<polygon fill="#ffffff" stroke="#000000" points="683,-684.5 683,-703.5 811,-703.5 811,-684.5 683,-684.5"/>
<text text-anchor="middle" x="747" y="-691.5" font-family="Helvetica,sans-Serif" font-size="10.00" fill="#000000">CWalletDB::WriteCScript</text>
</a>
</g>
</g>
<!-- Node350&#45;&gt;Node354 -->
<g id="edge34" class="edge">
<title>Node350&#45;&gt;Node354</title>
<path fill="none" stroke="#191970" d="M611.5495,-694C630.5473,-694 652.2404,-694 672.6149,-694"/>
<polygon fill="#191970" stroke="#191970" points="672.8094,-697.5001 682.8094,-694 672.8093,-690.5001 672.8094,-697.5001"/>
</g>
<!-- Node356 -->
<g id="node36" class="node">
<title>Node356</title>
<g id="a_node36"><a xlink:href="hash_8h.html#a4490f70ddae16e9e48460a0416a48a6b" target="_top" xlink:title="Compute the 160&#45;bit hash an object. ">
<polygon fill="#ffffff" stroke="#000000" points="719,-722.5 719,-741.5 775,-741.5 775,-722.5 719,-722.5"/>
<text text-anchor="middle" x="747" y="-729.5" font-family="Helvetica,sans-Serif" font-size="10.00" fill="#000000">Hash160</text>
</a>
</g>
</g>
<!-- Node350&#45;&gt;Node356 -->
<g id="edge36" class="edge">
<title>Node350&#45;&gt;Node356</title>
<path fill="none" stroke="#191970" d="M605.3189,-703.589C637.3911,-710.0204 679.0611,-718.3764 708.8941,-724.3587"/>
<polygon fill="#191970" stroke="#191970" points="708.4245,-727.8342 718.9175,-726.3687 709.8009,-720.9708 708.4245,-727.8342"/>
</g>
<!-- Node352 -->
<g id="node33" class="node">
<title>Node352</title>
<g id="a_node33"><a xlink:href="classprevector.html#a626f7d206dbc24e5610631809762758b" target="_top" xlink:title="prevector::size">
<polygon fill="#ffffff" stroke="#ff0000" points="868.5,-874.5 868.5,-893.5 949.5,-893.5 949.5,-874.5 868.5,-874.5"/>
<text text-anchor="middle" x="909" y="-881.5" font-family="Helvetica,sans-Serif" font-size="10.00" fill="#000000">prevector::size</text>
</a>
</g>
</g>
<!-- Node351&#45;&gt;Node352 -->
<g id="edge33" class="edge">
<title>Node351&#45;&gt;Node352</title>
<path fill="none" stroke="#191970" d="M798.7392,-779.551C806.1531,-782.0211 813.4708,-785.1189 820,-789 853.1475,-808.7037 881.6453,-844.3438 896.9666,-865.9241"/>
<polygon fill="#191970" stroke="#191970" points="894.1374,-867.9865 902.7012,-874.2245 899.8966,-864.0076 894.1374,-867.9865"/>
</g>
<!-- Node355 -->
<g id="node35" class="node">
<title>Node355</title>
<g id="a_node35"><a xlink:href="class_c_wallet_d_b.html#a33ec32231db801e91a98afb26acf3e6a" target="_top" xlink:title="CWalletDB::WriteIC">
<polygon fill="#ffffff" stroke="#000000" points="856,-684.5 856,-703.5 962,-703.5 962,-684.5 856,-684.5"/>
<text text-anchor="middle" x="909" y="-691.5" font-family="Helvetica,sans-Serif" font-size="10.00" fill="#000000">CWalletDB::WriteIC</text>
</a>
</g>
</g>
<!-- Node354&#45;&gt;Node355 -->
<g id="edge35" class="edge">
<title>Node354&#45;&gt;Node355</title>
<path fill="none" stroke="#191970" d="M811.0267,-694C822.4024,-694 834.2458,-694 845.6039,-694"/>
<polygon fill="#191970" stroke="#191970" points="845.8711,-697.5001 855.871,-694 845.871,-690.5001 845.8711,-697.5001"/>
</g>
<!-- Node357 -->
<g id="node37" class="node">
<title>Node357</title>
<g id="a_node37"><a xlink:href="class_c_hash160.html#af56cdd9443013eb68b246aa8450217f2" target="_top" xlink:title="CHash160::Write">
<polygon fill="#ffffff" stroke="#ff0000" points="863,-760.5 863,-779.5 955,-779.5 955,-760.5 863,-760.5"/>
<text text-anchor="middle" x="909" y="-767.5" font-family="Helvetica,sans-Serif" font-size="10.00" fill="#000000">CHash160::Write</text>
</a>
</g>
</g>
<!-- Node356&#45;&gt;Node357 -->
<g id="edge37" class="edge">
<title>Node356&#45;&gt;Node357</title>
<path fill="none" stroke="#191970" d="M775.2182,-738.6191C798.1477,-743.9976 831.072,-751.7206 858.5198,-758.159"/>
<polygon fill="#191970" stroke="#191970" points="857.8207,-761.5899 868.3558,-760.4662 859.4194,-754.7749 857.8207,-761.5899"/>
</g>
<!-- Node362 -->
<g id="node38" class="node">
<title>Node362</title>
<g id="a_node38"><a xlink:href="class_c_hash160.html#a9bb08e1772002ae1a5d85017ba7952ee" target="_top" xlink:title="CHash160::Finalize">
<polygon fill="#ffffff" stroke="#ff0000" points="857.5,-722.5 857.5,-741.5 960.5,-741.5 960.5,-722.5 857.5,-722.5"/>
<text text-anchor="middle" x="909" y="-729.5" font-family="Helvetica,sans-Serif" font-size="10.00" fill="#000000">CHash160::Finalize</text>
</a>
</g>
</g>
<!-- Node356&#45;&gt;Node362 -->
<g id="edge38" class="edge">
<title>Node356&#45;&gt;Node362</title>
<path fill="none" stroke="#191970" d="M775.2182,-732C795.0573,-732 822.3787,-732 847.1614,-732"/>
<polygon fill="#191970" stroke="#191970" points="847.2341,-735.5001 857.2341,-732 847.234,-728.5001 847.2341,-735.5001"/>
</g>
<!-- Node367 -->
<g id="node40" class="node">
<title>Node367</title>
<g id="a_node40"><a xlink:href="standard_8cpp.html#a81899059ee66f695aaf96a07d5e2ebdc" target="_top" xlink:title="Parse a scriptPubKey and identify script type for standard scripts. ">
<polygon fill="#ffffff" stroke="#ff0000" points="535.5,-874.5 535.5,-893.5 579.5,-893.5 579.5,-874.5 535.5,-874.5"/>
<text text-anchor="middle" x="557.5" y="-881.5" font-family="Helvetica,sans-Serif" font-size="10.00" fill="#000000">Solver</text>
</a>
</g>
</g>
<!-- Node366&#45;&gt;Node367 -->
<g id="edge41" class="edge">
<title>Node366&#45;&gt;Node367</title>
<path fill="none" stroke="#191970" d="M371.5712,-807.6204C393.2809,-822.0538 436.6628,-849.2901 477,-865 492.5467,-871.0549 510.5634,-875.5274 525.6055,-878.6067"/>
<polygon fill="#191970" stroke="#191970" points="524.9942,-882.0532 535.4772,-880.5182 526.325,-875.1809 524.9942,-882.0532"/>
</g>
<!-- Node386 -->
<g id="node45" class="node">
<title>Node386</title>
<g id="a_node45"><a xlink:href="classuint160.html#a66918f25b891415f2a9bbbb1dfdbedbd" target="_top" xlink:title="uint160::uint160">
<polygon fill="#ffffff" stroke="#000000" points="704,-798.5 704,-817.5 790,-817.5 790,-798.5 704,-798.5"/>
<text text-anchor="middle" x="747" y="-805.5" font-family="Helvetica,sans-Serif" font-size="10.00" fill="#000000">uint160::uint160</text>
</a>
</g>
</g>
<!-- Node366&#45;&gt;Node386 -->
<g id="edge55" class="edge">
<title>Node366&#45;&gt;Node386</title>
<path fill="none" stroke="#191970" d="M406.8304,-799.2665C480.2442,-801.1513 617.711,-804.6806 693.4793,-806.6259"/>
<polygon fill="#191970" stroke="#191970" points="693.6614,-810.1316 703.748,-806.8895 693.8411,-803.134 693.6614,-810.1316"/>
</g>
<!-- Node387 -->
<g id="node46" class="node">
<title>Node387</title>
<g id="a_node46"><a xlink:href="class_c_pub_key.html#a4fa94293cf8577fd039b9a133f6c7f30" target="_top" xlink:title="CPubKey::IsValid">
<polygon fill="#ffffff" stroke="#ff0000" points="510,-760.5 510,-779.5 605,-779.5 605,-760.5 510,-760.5"/>
<text text-anchor="middle" x="557.5" y="-767.5" font-family="Helvetica,sans-Serif" font-size="10.00" fill="#000000">CPubKey::IsValid</text>
</a>
</g>
</g>
<!-- Node366&#45;&gt;Node387 -->
<g id="edge52" class="edge">
<title>Node366&#45;&gt;Node387</title>
<path fill="none" stroke="#191970" d="M406.6817,-791.1146C434.8233,-787.1747 470.2779,-782.2111 499.7396,-778.0865"/>
<polygon fill="#191970" stroke="#191970" points="500.4707,-781.5183 509.8888,-776.6656 499.5001,-774.5859 500.4707,-781.5183"/>
</g>
<!-- Node389 -->
<g id="node47" class="node">
<title>Node389</title>
<g id="a_node47"><a xlink:href="class_c_pub_key.html#a2675f7e6f72eff68e7a5227289feb021" target="_top" xlink:title="Get the KeyID of this public key (hash of its serialization) ">
<polygon fill="#ffffff" stroke="#ff0000" points="512,-722.5 512,-741.5 603,-741.5 603,-722.5 512,-722.5"/>
<text text-anchor="middle" x="557.5" y="-729.5" font-family="Helvetica,sans-Serif" font-size="10.00" fill="#000000">CPubKey::GetID</text>
</a>
</g>
</g>
<!-- Node366&#45;&gt;Node389 -->
<g id="edge53" class="edge">
<title>Node366&#45;&gt;Node389</title>
<path fill="none" stroke="#191970" d="M388.0032,-788.4591C403.9758,-783.1999 423.7483,-776.2728 441,-769 457.4837,-762.051 460.182,-757.0955 477,-751 484.9568,-748.1161 493.5166,-745.5531 501.9801,-743.316"/>
<polygon fill="#191970" stroke="#191970" points="502.9845,-746.6725 511.8294,-740.8399 501.2778,-739.8837 502.9845,-746.6725"/>
</g>
<!-- Node391 -->
<g id="node48" class="node">
<title>Node391</title>
<g id="a_node48"><a xlink:href="class_c_script_i_d.html#a116da5a7e94e2abb66011c33705d58e7" target="_top" xlink:title="CScriptID::CScriptID">
<polygon fill="#ffffff" stroke="#000000" points="502.5,-836.5 502.5,-855.5 612.5,-855.5 612.5,-836.5 502.5,-836.5"/>
<text text-anchor="middle" x="557.5" y="-843.5" font-family="Helvetica,sans-Serif" font-size="10.00" fill="#000000">CScriptID::CScriptID</text>
</a>
</g>
</g>
<!-- Node366&#45;&gt;Node391 -->
<g id="edge56" class="edge">
<title>Node366&#45;&gt;Node391</title>
<path fill="none" stroke="#191970" d="M397.4923,-807.5982C429.2406,-815.2177 473.7944,-825.9107 507.8283,-834.0788"/>
<polygon fill="#191970" stroke="#191970" points="507.0363,-837.488 517.577,-836.4185 508.67,-830.6813 507.0363,-837.488"/>
</g>
<!-- Node367&#45;&gt;Node352 -->
<g id="edge50" class="edge">
<title>Node367&#45;&gt;Node352</title>
<path fill="none" stroke="#191970" d="M579.7026,-888.7196C603.0468,-893.4228 640.9099,-900.3194 674,-903 738.677,-908.2395 755.4696,-909.8113 820,-903 834.0232,-901.5198 849.086,-898.7624 862.7591,-895.7981"/>
<polygon fill="#191970" stroke="#191970" points="863.9196,-899.1243 872.9038,-893.5088 862.3786,-892.2961 863.9196,-899.1243"/>
</g>
<!-- Node368 -->
<g id="node41" class="node">
<title>Node368</title>
<g id="a_node41"><a xlink:href="class_c_script.html#a0c3729c606d318923dc06f95d85a0971" target="_top" xlink:title="CScript::IsPayToScriptHash">
<polygon fill="#ffffff" stroke="#000000" points="676.5,-874.5 676.5,-893.5 817.5,-893.5 817.5,-874.5 676.5,-874.5"/>
<text text-anchor="middle" x="747" y="-881.5" font-family="Helvetica,sans-Serif" font-size="10.00" fill="#000000">CScript::IsPayToScriptHash</text>
</a>
</g>
</g>
<!-- Node367&#45;&gt;Node368 -->
<g id="edge42" class="edge">
<title>Node367&#45;&gt;Node368</title>
<path fill="none" stroke="#191970" d="M579.6089,-884C600.9287,-884 634.5114,-884 666.0187,-884"/>
<polygon fill="#191970" stroke="#191970" points="666.1572,-887.5001 676.1572,-884 666.1571,-880.5001 666.1572,-887.5001"/>
</g>
<!-- Node369 -->
<g id="node42" class="node">
<title>Node369</title>
<g id="a_node42"><a xlink:href="classprevector.html#aa9210cbe708412a70868d6e0bca844c9" target="_top" xlink:title="prevector::begin">
<polygon fill="#ffffff" stroke="#ff0000" points="866,-969.5 866,-988.5 952,-988.5 952,-969.5 866,-969.5"/>
<text text-anchor="middle" x="909" y="-976.5" font-family="Helvetica,sans-Serif" font-size="10.00" fill="#000000">prevector::begin</text>
</a>
</g>
</g>
<!-- Node367&#45;&gt;Node369 -->
<g id="edge44" class="edge">
<title>Node367&#45;&gt;Node369</title>
<path fill="none" stroke="#191970" d="M579.5705,-884.1555C597.1526,-885.3729 621.4761,-889.635 638,-903 667.0599,-926.5045 642.4172,-959.0134 674,-979 733.3459,-1016.556 819.1369,-1003.6048 868.9748,-991.0899"/>
<polygon fill="#191970" stroke="#191970" points="869.9591,-994.4502 878.7429,-988.5262 868.182,-987.6795 869.9591,-994.4502"/>
</g>
<!-- Node374 -->
<g id="node43" class="node">
<title>Node374</title>
<g id="a_node43"><a xlink:href="class_c_script.html#ab23f32dfecc865f0d64467a4d8a5e1fc" target="_top" xlink:title="CScript::IsAssetScript">
<polygon fill="#ffffff" stroke="#000000" points="689.5,-836.5 689.5,-855.5 804.5,-855.5 804.5,-836.5 689.5,-836.5"/>
<text text-anchor="middle" x="747" y="-843.5" font-family="Helvetica,sans-Serif" font-size="10.00" fill="#000000">CScript::IsAssetScript</text>
</a>
</g>
</g>
<!-- Node367&#45;&gt;Node374 -->
<g id="edge45" class="edge">
<title>Node367&#45;&gt;Node374</title>
<path fill="none" stroke="#191970" d="M579.6089,-879.5665C606.2924,-874.2158 652.1852,-865.013 689.1763,-857.5952"/>
<polygon fill="#191970" stroke="#191970" points="690.2337,-860.953 699.3503,-855.5551 688.8573,-854.0896 690.2337,-860.953"/>
</g>
<!-- Node375 -->
<g id="node44" class="node">
<title>Node375</title>
<g id="a_node44"><a xlink:href="class_c_script.html#ae6f2ab1af6361c5772f62b28b19f5eae" target="_top" xlink:title="CScript::IsWitnessProgram">
<polygon fill="#ffffff" stroke="#ff0000" points="678.5,-950.5 678.5,-969.5 815.5,-969.5 815.5,-950.5 678.5,-950.5"/>
<text text-anchor="middle" x="747" y="-957.5" font-family="Helvetica,sans-Serif" font-size="10.00" fill="#000000">CScript::IsWitnessProgram</text>
</a>
</g>
</g>
<!-- Node367&#45;&gt;Node375 -->
<g id="edge47" class="edge">
<title>Node367&#45;&gt;Node375</title>
<path fill="none" stroke="#191970" d="M579.7484,-886.1728C596.5384,-888.5232 619.7247,-893.3257 638,-903 657.183,-913.1549 655.2704,-925.0313 674,-936 681.4469,-940.3612 689.7914,-944.0507 698.1044,-947.1296"/>
<polygon fill="#191970" stroke="#191970" points="697.1983,-950.5193 707.793,-950.4671 699.4782,-943.901 697.1983,-950.5193"/>
</g>
<!-- Node367&#45;&gt;Node386 -->
<g id="edge51" class="edge">
<title>Node367&#45;&gt;Node386</title>
<path fill="none" stroke="#191970" d="M579.5996,-882.238C596.5237,-880.1002 619.9524,-875.3838 638,-865 658.165,-853.398 653.9688,-838.8316 674,-827 680.2017,-823.3369 687.1081,-820.3708 694.1302,-817.9713"/>
<polygon fill="#191970" stroke="#191970" points="695.1828,-821.3095 703.7221,-815.0382 693.1357,-814.6155 695.1828,-821.3095"/>
</g>
<!-- Node368&#45;&gt;Node352 -->
<g id="edge43" class="edge">
<title>Node368&#45;&gt;Node352</title>
<path fill="none" stroke="#191970" d="M817.5843,-884C831.3093,-884 845.44,-884 858.3646,-884"/>
<polygon fill="#191970" stroke="#191970" points="858.4407,-887.5001 868.4406,-884 858.4406,-880.5001 858.4407,-887.5001"/>
</g>
<!-- Node374&#45;&gt;Node352 -->
<g id="edge46" class="edge">
<title>Node374&#45;&gt;Node352</title>
<path fill="none" stroke="#191970" d="M787.8794,-855.589C809.3534,-860.6261 835.8605,-866.8438 858.597,-872.1771"/>
<polygon fill="#191970" stroke="#191970" points="857.8795,-875.6037 868.4145,-874.4799 859.4781,-868.7887 857.8795,-875.6037"/>
</g>
<!-- Node375&#45;&gt;Node352 -->
<g id="edge48" class="edge">
<title>Node375&#45;&gt;Node352</title>
<path fill="none" stroke="#191970" d="M780.9984,-950.4611C793.4836,-946.5337 807.5927,-941.5885 820,-936 843.482,-925.4232 868.689,-910.3047 886.2607,-899.0935"/>
<polygon fill="#191970" stroke="#191970" points="888.2086,-902.0019 894.7039,-893.6316 884.4065,-896.1244 888.2086,-902.0019"/>
</g>
<!-- Node375&#45;&gt;Node369 -->
<g id="edge49" class="edge">
<title>Node375&#45;&gt;Node369</title>
<path fill="none" stroke="#191970" d="M815.7026,-968.0577C829.0396,-969.6219 842.832,-971.2396 855.5878,-972.7356"/>
<polygon fill="#191970" stroke="#191970" points="855.2274,-976.2172 865.567,-973.906 856.0428,-969.2649 855.2274,-976.2172"/>
</g>
<!-- Node389&#45;&gt;Node356 -->
<g id="edge54" class="edge">
<title>Node389&#45;&gt;Node356</title>
<path fill="none" stroke="#191970" d="M603.3727,-732C635.6096,-732 678.2413,-732 708.6667,-732"/>
<polygon fill="#191970" stroke="#191970" points="708.8825,-735.5001 718.8824,-732 708.8824,-728.5001 708.8825,-735.5001"/>
</g>
</g>
</svg>
