<?xml version="1.0" encoding="UTF-8" standalone="no"?>
<!DOCTYPE svg PUBLIC "-//W3C//DTD SVG 1.1//EN"
 "http://www.w3.org/Graphics/SVG/1.1/DTD/svg11.dtd">
<!-- Generated by graphviz version 2.40.1 (20161225.0304)
 -->
<!-- Title: ScriptNewAsset Pages: 1 -->
<svg width="500pt" height="28pt"
 viewBox="0.00 0.00 500.00 28.00" xmlns="http://www.w3.org/2000/svg" xmlns:xlink="http://www.w3.org/1999/xlink">
<g id="graph0" class="graph" transform="scale(1 1) rotate(0) translate(4 24)">
<title>ScriptNewAsset</title>
<polygon fill="#ffffff" stroke="transparent" points="-4,4 -4,-24 496,-24 496,4 -4,4"/>
<!-- Node67 -->
<g id="node1" class="node">
<title>Node67</title>
<polygon fill="#bfbfbf" stroke="#000000" points="0,-.5 0,-19.5 88,-19.5 88,-.5 0,-.5"/>
<text text-anchor="middle" x="44" y="-7.5" font-family="Helvetica,sans-Serif" font-size="10.00" fill="#000000">ScriptNewAsset</text>
</g>
<!-- Node68 -->
<g id="node2" class="node">
<title>Node68</title>
<g id="a_node2"><a xlink:href="class_c_script.html#ab23f32dfecc865f0d64467a4d8a5e1fc" target="_top" xlink:title="CScript::IsAssetScript">
<polygon fill="#ffffff" stroke="#000000" points="124,-.5 124,-19.5 239,-19.5 239,-.5 124,-.5"/>
<text text-anchor="middle" x="181.5" y="-7.5" font-family="Helvetica,sans-Serif" font-size="10.00" fill="#000000">CScript::IsAssetScript</text>
</a>
</g>
</g>
<!-- Node67&#45;&gt;Node68 -->
<g id="edge1" class="edge">
<title>Node67&#45;&gt;Node68</title>
<path fill="none" stroke="#191970" d="M88.2627,-10C96.3882,-10 105.0386,-10 113.6697,-10"/>
<polygon fill="#191970" stroke="#191970" points="113.7604,-13.5001 123.7604,-10 113.7603,-6.5001 113.7604,-13.5001"/>
</g>
<!-- Node69 -->
<g id="node3" class="node">
<title>Node69</title>
<g id="a_node3"><a xlink:href="classprevector.html#a626f7d206dbc24e5610631809762758b" target="_top" xlink:title="prevector::size">
<polygon fill="#ffffff" stroke="#000000" points="275,-.5 275,-19.5 356,-19.5 356,-.5 275,-.5"/>
<text text-anchor="middle" x="315.5" y="-7.5" font-family="Helvetica,sans-Serif" font-size="10.00" fill="#000000">prevector::size</text>
</a>
</g>
</g>
<!-- Node68&#45;&gt;Node69 -->
<g id="edge2" class="edge">
<title>Node68&#45;&gt;Node69</title>
<path fill="none" stroke="#191970" d="M239.1057,-10C247.6789,-10 256.4613,-10 264.8766,-10"/>
<polygon fill="#191970" stroke="#191970" points="264.9206,-13.5001 274.9206,-10 264.9205,-6.5001 264.9206,-13.5001"/>
</g>
<!-- Node70 -->
<g id="node4" class="node">
<title>Node70</title>
<g id="a_node4"><a xlink:href="classprevector.html#a933e204a7e29c6bbc85479d023c00ff8" target="_top" xlink:title="prevector::is_direct">
<polygon fill="#ffffff" stroke="#000000" points="392,-.5 392,-19.5 492,-19.5 492,-.5 392,-.5"/>
<text text-anchor="middle" x="442" y="-7.5" font-family="Helvetica,sans-Serif" font-size="10.00" fill="#000000">prevector::is_direct</text>
</a>
</g>
</g>
<!-- Node69&#45;&gt;Node70 -->
<g id="edge3" class="edge">
<title>Node69&#45;&gt;Node70</title>
<path fill="none" stroke="#191970" d="M356.2217,-10C364.3201,-10 372.9853,-10 381.5806,-10"/>
<polygon fill="#191970" stroke="#191970" points="381.6006,-13.5001 391.6006,-10 381.6006,-6.5001 381.6006,-13.5001"/>
</g>
</g>
</svg>
