<?xml version="1.0" encoding="UTF-8" standalone="no"?>
<!DOCTYPE svg PUBLIC "-//W3C//DTD SVG 1.1//EN"
 "http://www.w3.org/Graphics/SVG/1.1/DTD/svg11.dtd">
<!-- Generated by graphviz version 2.40.1 (20161225.0304)
 -->
<!-- Title: ReadCompactSize Pages: 1 -->
<svg width="373pt" height="237pt"
 viewBox="0.00 0.00 373.00 237.00" xmlns="http://www.w3.org/2000/svg" xmlns:xlink="http://www.w3.org/1999/xlink">
<g id="graph0" class="graph" transform="scale(1 1) rotate(0) translate(4 233)">
<title>ReadCompactSize</title>
<polygon fill="#ffffff" stroke="transparent" points="-4,4 -4,-233 369,-233 369,4 -4,4"/>
<!-- Node111 -->
<g id="node1" class="node">
<title>Node111</title>
<polygon fill="#bfbfbf" stroke="#000000" points="0,-114.5 0,-133.5 99,-133.5 99,-114.5 0,-114.5"/>
<text text-anchor="middle" x="49.5" y="-121.5" font-family="Helvetica,sans-Serif" font-size="10.00" fill="#000000">ReadCompactSize</text>
</g>
<!-- Node112 -->
<g id="node2" class="node">
<title>Node112</title>
<g id="a_node2"><a xlink:href="struct_c_ext_key.html#aff923572d1c4e4708790cb0ecc922a24" target="_top" xlink:title="CExtKey::Unserialize">
<polygon fill="#ffffff" stroke="#000000" points="143.5,-209.5 143.5,-228.5 254.5,-228.5 254.5,-209.5 143.5,-209.5"/>
<text text-anchor="middle" x="199" y="-216.5" font-family="Helvetica,sans-Serif" font-size="10.00" fill="#000000">CExtKey::Unserialize</text>
</a>
</g>
</g>
<!-- Node111&#45;&gt;Node112 -->
<g id="edge1" class="edge">
<title>Node111&#45;&gt;Node112</title>
<path fill="none" stroke="#191970" d="M64.6279,-141.3042C80.5418,-158.5006 107.1083,-184.4858 135,-200 141.7864,-203.7748 149.4043,-206.8752 156.9537,-209.3956"/>
<polygon fill="#191970" stroke="#191970" points="67.0142,-138.7247 57.7122,-133.6528 61.8211,-143.4185 67.0142,-138.7247"/>
</g>
<!-- Node113 -->
<g id="node3" class="node">
<title>Node113</title>
<g id="a_node3"><a xlink:href="class_c_pub_key.html#aaba2bb7f0275eccf826cba3c414be8fd" target="_top" xlink:title="CPubKey::Unserialize">
<polygon fill="#ffffff" stroke="#000000" points="142.5,-171.5 142.5,-190.5 255.5,-190.5 255.5,-171.5 142.5,-171.5"/>
<text text-anchor="middle" x="199" y="-178.5" font-family="Helvetica,sans-Serif" font-size="10.00" fill="#000000">CPubKey::Unserialize</text>
</a>
</g>
</g>
<!-- Node111&#45;&gt;Node113 -->
<g id="edge2" class="edge">
<title>Node111&#45;&gt;Node113</title>
<path fill="none" stroke="#191970" d="M78.3082,-137.9241C94.7099,-145.5668 115.7632,-154.9037 135,-162 144.243,-165.4097 154.4037,-168.6498 163.8538,-171.457"/>
<polygon fill="#191970" stroke="#191970" points="79.7756,-134.7464 69.2376,-133.6497 76.7916,-141.0786 79.7756,-134.7464"/>
</g>
<!-- Node114 -->
<g id="node4" class="node">
<title>Node114</title>
<g id="a_node4"><a xlink:href="struct_c_ext_pub_key.html#aa09888682af50a5f475d09ac539fb230" target="_top" xlink:title="CExtPubKey::Unserialize">
<polygon fill="#ffffff" stroke="#000000" points="135,-133.5 135,-152.5 263,-152.5 263,-133.5 135,-133.5"/>
<text text-anchor="middle" x="199" y="-140.5" font-family="Helvetica,sans-Serif" font-size="10.00" fill="#000000">CExtPubKey::Unserialize</text>
</a>
</g>
</g>
<!-- Node111&#45;&gt;Node114 -->
<g id="edge3" class="edge">
<title>Node111&#45;&gt;Node114</title>
<path fill="none" stroke="#191970" d="M109.3406,-131.6052C117.7177,-132.6698 126.3553,-133.7676 134.8089,-134.8419"/>
<polygon fill="#191970" stroke="#191970" points="109.6428,-128.1155 99.2813,-130.3267 108.7602,-135.0596 109.6428,-128.1155"/>
</g>
<!-- Node115 -->
<g id="node5" class="node">
<title>Node115</title>
<g id="a_node5"><a xlink:href="class_limited_string.html#adf059434ff46c3a16b736717dffaa8ac" target="_top" xlink:title="LimitedString::Unserialize">
<polygon fill="#ffffff" stroke="#000000" points="135,-95.5 135,-114.5 263,-114.5 263,-95.5 135,-95.5"/>
<text text-anchor="middle" x="199" y="-102.5" font-family="Helvetica,sans-Serif" font-size="10.00" fill="#000000">LimitedString::Unserialize</text>
</a>
</g>
</g>
<!-- Node111&#45;&gt;Node115 -->
<g id="edge4" class="edge">
<title>Node111&#45;&gt;Node115</title>
<path fill="none" stroke="#191970" d="M109.3406,-116.3948C117.7177,-115.3302 126.3553,-114.2324 134.8089,-113.1581"/>
<polygon fill="#191970" stroke="#191970" points="108.7602,-112.9404 99.2813,-117.6733 109.6428,-119.8845 108.7602,-112.9404"/>
</g>
<!-- Node116 -->
<g id="node6" class="node">
<title>Node116</title>
<g id="a_node6"><a xlink:href="serialize_8h.html#a4198901100f91eebcd3bcfc33d2366c0" target="_top" xlink:title="Unserialize">
<polygon fill="#ffffff" stroke="#000000" points="166.5,-57.5 166.5,-76.5 231.5,-76.5 231.5,-57.5 166.5,-57.5"/>
<text text-anchor="middle" x="199" y="-64.5" font-family="Helvetica,sans-Serif" font-size="10.00" fill="#000000">Unserialize</text>
</a>
</g>
</g>
<!-- Node111&#45;&gt;Node116 -->
<g id="edge5" class="edge">
<title>Node111&#45;&gt;Node116</title>
<path fill="none" stroke="#191970" d="M78.3082,-110.0759C94.7099,-102.4332 115.7632,-93.0963 135,-86 145.0042,-82.3095 156.0835,-78.8177 166.1731,-75.8584"/>
<polygon fill="#191970" stroke="#191970" points="76.7916,-106.9214 69.2376,-114.3503 79.7756,-113.2536 76.7916,-106.9214"/>
</g>
<!-- Node117 -->
<g id="node7" class="node">
<title>Node117</title>
<g id="a_node7"><a xlink:href="serialize_8h.html#a7946ec004b1e1c7eb150c17d00800ca3" target="_top" xlink:title="Unserialize_impl">
<polygon fill="#ffffff" stroke="#000000" points="154.5,-19.5 154.5,-38.5 243.5,-38.5 243.5,-19.5 154.5,-19.5"/>
<text text-anchor="middle" x="199" y="-26.5" font-family="Helvetica,sans-Serif" font-size="10.00" fill="#000000">Unserialize_impl</text>
</a>
</g>
</g>
<!-- Node111&#45;&gt;Node117 -->
<g id="edge6" class="edge">
<title>Node111&#45;&gt;Node117</title>
<path fill="none" stroke="#191970" d="M64.6279,-106.6958C80.5418,-89.4994 107.1083,-63.5142 135,-48 141.7864,-44.2252 149.4043,-41.1248 156.9537,-38.6044"/>
<polygon fill="#191970" stroke="#191970" points="61.8211,-104.5815 57.7122,-114.3472 67.0142,-109.2753 61.8211,-104.5815"/>
</g>
<!-- Node118 -->
<g id="node8" class="node">
<title>Node118</title>
<g id="a_node8"><a xlink:href="serialize_8h.html#a5748d9d17982b234b10a4b9e6f8e9f53" target="_top" xlink:title="WrapVarInt">
<polygon fill="#ffffff" stroke="#000000" points="299,-38.5 299,-57.5 365,-57.5 365,-38.5 299,-38.5"/>
<text text-anchor="middle" x="332" y="-45.5" font-family="Helvetica,sans-Serif" font-size="10.00" fill="#000000">WrapVarInt</text>
</a>
</g>
</g>
<!-- Node117&#45;&gt;Node118 -->
<g id="edge7" class="edge">
<title>Node117&#45;&gt;Node118</title>
<path fill="none" stroke="#191970" d="M253.9719,-36.8531C269.1191,-39.017 285.0895,-41.2985 298.6088,-43.2298"/>
<polygon fill="#191970" stroke="#191970" points="254.0516,-33.3291 243.6571,-35.3796 253.0616,-40.2587 254.0516,-33.3291"/>
</g>
<!-- Node119 -->
<g id="node9" class="node">
<title>Node119</title>
<g id="a_node9"><a xlink:href="serialize_8h.html#a37f7fcf5a434c7fffed8f1ef83fef39f" target="_top" xlink:title="Unserialize">
<polygon fill="#ffffff" stroke="#000000" points="299.5,-.5 299.5,-19.5 364.5,-19.5 364.5,-.5 299.5,-.5"/>
<text text-anchor="middle" x="332" y="-7.5" font-family="Helvetica,sans-Serif" font-size="10.00" fill="#000000">Unserialize</text>
</a>
</g>
</g>
<!-- Node117&#45;&gt;Node119 -->
<g id="edge8" class="edge">
<title>Node117&#45;&gt;Node119</title>
<path fill="none" stroke="#191970" d="M253.7039,-21.1852C269.2437,-18.9652 285.6714,-16.6184 299.4446,-14.6508"/>
<polygon fill="#191970" stroke="#191970" points="253.0616,-17.7413 243.6571,-22.6204 254.0516,-24.6709 253.0616,-17.7413"/>
</g>
</g>
</svg>
