<?xml version="1.0" encoding="UTF-8" standalone="no"?>
<!DOCTYPE svg PUBLIC "-//W3C//DTD SVG 1.1//EN"
 "http://www.w3.org/Graphics/SVG/1.1/DTD/svg11.dtd">
<!-- Generated by graphviz version 2.40.1 (20161225.0304)
 -->
<!-- Title: WrapVarInt Pages: 1 -->
<svg width="937pt" height="522pt"
 viewBox="0.00 0.00 937.00 522.00" xmlns="http://www.w3.org/2000/svg" xmlns:xlink="http://www.w3.org/1999/xlink">
<g id="graph0" class="graph" transform="scale(1 1) rotate(0) translate(4 518)">
<title>WrapVarInt</title>
<polygon fill="#ffffff" stroke="transparent" points="-4,4 -4,-518 933,-518 933,4 -4,4"/>
<!-- Node724 -->
<g id="node1" class="node">
<title>Node724</title>
<polygon fill="#bfbfbf" stroke="#000000" points="0,-209.5 0,-228.5 66,-228.5 66,-209.5 0,-209.5"/>
<text text-anchor="middle" x="33" y="-216.5" font-family="Helvetica,sans-Serif" font-size="10.00" fill="#000000">WrapVarInt</text>
</g>
<!-- Node725 -->
<g id="node2" class="node">
<title>Node725</title>
<g id="a_node2"><a xlink:href="serialize_8h.html#a4d807cadf9c9de8c09c7f87412daf808" target="_top" xlink:title="Serialize">
<polygon fill="#ffffff" stroke="#000000" points="119.5,-266.5 119.5,-285.5 173.5,-285.5 173.5,-266.5 119.5,-266.5"/>
<text text-anchor="middle" x="146.5" y="-273.5" font-family="Helvetica,sans-Serif" font-size="10.00" fill="#000000">Serialize</text>
</a>
</g>
</g>
<!-- Node724&#45;&gt;Node725 -->
<g id="edge1" class="edge">
<title>Node724&#45;&gt;Node725</title>
<path fill="none" stroke="#191970" d="M51.9973,-228.5405C70.1662,-237.665 97.7835,-251.5344 118.4782,-261.9274"/>
<polygon fill="#191970" stroke="#191970" points="116.9335,-265.0682 127.4407,-266.4284 120.0751,-258.8127 116.9335,-265.0682"/>
</g>
<!-- Node727 -->
<g id="node4" class="node">
<title>Node727</title>
<g id="a_node4"><a xlink:href="serialize_8h.html#a831d6932e65a64840bb55376f08fe0a6" target="_top" xlink:title="Unserialize">
<polygon fill="#ffffff" stroke="#000000" points="114,-133.5 114,-152.5 179,-152.5 179,-133.5 114,-133.5"/>
<text text-anchor="middle" x="146.5" y="-140.5" font-family="Helvetica,sans-Serif" font-size="10.00" fill="#000000">Unserialize</text>
</a>
</g>
</g>
<!-- Node724&#45;&gt;Node727 -->
<g id="edge3" class="edge">
<title>Node724&#45;&gt;Node727</title>
<path fill="none" stroke="#191970" d="M43.0389,-209.1063C55.8728,-196.8528 79.1741,-175.9003 102,-162 104.9596,-160.1977 108.1208,-158.4829 111.3418,-156.8742"/>
<polygon fill="#191970" stroke="#191970" points="112.8663,-160.0253 120.4599,-152.6369 109.9163,-153.6772 112.8663,-160.0253"/>
</g>
<!-- Node729 -->
<g id="node6" class="node">
<title>Node729</title>
<g id="a_node6"><a xlink:href="serialize_8h.html#a5f8f6e82f0b5e6bd182441352f5153cd" target="_top" xlink:title="prevector prevectors of unsigned char are a special case and are intended to be serialized as a singl...">
<polygon fill="#ffffff" stroke="#000000" points="368,-304.5 368,-323.5 445,-323.5 445,-304.5 368,-304.5"/>
<text text-anchor="middle" x="406.5" y="-311.5" font-family="Helvetica,sans-Serif" font-size="10.00" fill="#000000">Serialize_impl</text>
</a>
</g>
</g>
<!-- Node724&#45;&gt;Node729 -->
<g id="edge5" class="edge">
<title>Node724&#45;&gt;Node729</title>
<path fill="none" stroke="#191970" d="M66.3588,-218.1823C122.1155,-217.9256 236.8988,-222.1794 326,-257 349.9546,-266.3614 373.5089,-284.3571 388.8879,-297.634"/>
<polygon fill="#191970" stroke="#191970" points="386.7427,-300.4101 396.5413,-304.4398 391.3944,-295.1792 386.7427,-300.4101"/>
</g>
<!-- Node740 -->
<g id="node17" class="node">
<title>Node740</title>
<g id="a_node17"><a xlink:href="serialize_8h.html#a7946ec004b1e1c7eb150c17d00800ca3" target="_top" xlink:title="Unserialize_impl">
<polygon fill="#ffffff" stroke="#000000" points="102,-171.5 102,-190.5 191,-190.5 191,-171.5 102,-171.5"/>
<text text-anchor="middle" x="146.5" y="-178.5" font-family="Helvetica,sans-Serif" font-size="10.00" fill="#000000">Unserialize_impl</text>
</a>
</g>
</g>
<!-- Node724&#45;&gt;Node740 -->
<g id="edge19" class="edge">
<title>Node724&#45;&gt;Node740</title>
<path fill="none" stroke="#191970" d="M61.6408,-209.411C75.7549,-204.6856 92.9724,-198.9211 108.2009,-193.8226"/>
<polygon fill="#191970" stroke="#191970" points="109.4969,-197.0797 117.8683,-190.5859 107.2745,-190.4419 109.4969,-197.0797"/>
</g>
<!-- Node726 -->
<g id="node3" class="node">
<title>Node726</title>
<g id="a_node3"><a xlink:href="serialize_8h.html#ab121fe5d3f3371e3c57b45235a8d7802" target="_top" xlink:title="ser_writedata8">
<polygon fill="#ffffff" stroke="#000000" points="236.5,-266.5 236.5,-285.5 316.5,-285.5 316.5,-266.5 236.5,-266.5"/>
<text text-anchor="middle" x="276.5" y="-273.5" font-family="Helvetica,sans-Serif" font-size="10.00" fill="#000000">ser_writedata8</text>
</a>
</g>
</g>
<!-- Node725&#45;&gt;Node726 -->
<g id="edge2" class="edge">
<title>Node725&#45;&gt;Node726</title>
<path fill="none" stroke="#191970" d="M173.7523,-276C189.0094,-276 208.5128,-276 226.4193,-276"/>
<polygon fill="#191970" stroke="#191970" points="226.4488,-279.5001 236.4488,-276 226.4488,-272.5001 226.4488,-279.5001"/>
</g>
<!-- Node728 -->
<g id="node5" class="node">
<title>Node728</title>
<g id="a_node5"><a xlink:href="serialize_8h.html#a1d1f53d2d72386236484546b49409188" target="_top" xlink:title="ser_readdata8">
<polygon fill="#ffffff" stroke="#000000" points="367.5,-114.5 367.5,-133.5 445.5,-133.5 445.5,-114.5 367.5,-114.5"/>
<text text-anchor="middle" x="406.5" y="-121.5" font-family="Helvetica,sans-Serif" font-size="10.00" fill="#000000">ser_readdata8</text>
</a>
</g>
</g>
<!-- Node727&#45;&gt;Node728 -->
<g id="edge4" class="edge">
<title>Node727&#45;&gt;Node728</title>
<path fill="none" stroke="#191970" d="M179.1659,-140.6129C224.0461,-137.3332 305.1407,-131.407 357.3613,-127.5909"/>
<polygon fill="#191970" stroke="#191970" points="357.6829,-131.0768 367.4012,-126.8572 357.1726,-124.0954 357.6829,-131.0768"/>
</g>
<!-- Node730 -->
<g id="node7" class="node">
<title>Node730</title>
<g id="a_node7"><a xlink:href="serialize_8h.html#aff862d80e345fc18ed8a3e0b3a0ce528" target="_top" xlink:title="WriteCompactSize">
<polygon fill="#ffffff" stroke="#000000" points="506,-456.5 506,-475.5 605,-475.5 605,-456.5 506,-456.5"/>
<text text-anchor="middle" x="555.5" y="-463.5" font-family="Helvetica,sans-Serif" font-size="10.00" fill="#000000">WriteCompactSize</text>
</a>
</g>
</g>
<!-- Node729&#45;&gt;Node730 -->
<g id="edge6" class="edge">
<title>Node729&#45;&gt;Node730</title>
<path fill="none" stroke="#191970" d="M409.5614,-323.7532C417.8097,-348.3975 442.9037,-413.5791 487,-447 489.9784,-449.2573 493.2105,-451.2465 496.5948,-452.9993"/>
<polygon fill="#191970" stroke="#191970" points="495.2791,-456.2446 505.8386,-457.109 498.1229,-449.8483 495.2791,-456.2446"/>
</g>
<!-- Node733 -->
<g id="node10" class="node">
<title>Node733</title>
<g id="a_node10"><a xlink:href="classprevector.html#a626f7d206dbc24e5610631809762758b" target="_top" xlink:title="prevector::size">
<polygon fill="#ffffff" stroke="#000000" points="680.5,-266.5 680.5,-285.5 761.5,-285.5 761.5,-266.5 680.5,-266.5"/>
<text text-anchor="middle" x="721" y="-273.5" font-family="Helvetica,sans-Serif" font-size="10.00" fill="#000000">prevector::size</text>
</a>
</g>
</g>
<!-- Node729&#45;&gt;Node733 -->
<g id="edge10" class="edge">
<title>Node729&#45;&gt;Node733</title>
<path fill="none" stroke="#191970" d="M441.9367,-304.4183C455.8878,-300.9669 472.1064,-297.3486 487,-295 549.64,-285.1224 622.5713,-280.2332 670.1482,-277.9173"/>
<polygon fill="#191970" stroke="#191970" points="670.3716,-281.4108 680.1974,-277.4482 670.0451,-274.4184 670.3716,-281.4108"/>
</g>
<!-- Node735 -->
<g id="node12" class="node">
<title>Node735</title>
<g id="a_node12"><a xlink:href="classprevector.html#a0057a2d5ac2bbff636af5fbd87ae5235" target="_top" xlink:title="prevector::empty">
<polygon fill="#ffffff" stroke="#000000" points="510.5,-304.5 510.5,-323.5 600.5,-323.5 600.5,-304.5 510.5,-304.5"/>
<text text-anchor="middle" x="555.5" y="-311.5" font-family="Helvetica,sans-Serif" font-size="10.00" fill="#000000">prevector::empty</text>
</a>
</g>
</g>
<!-- Node729&#45;&gt;Node735 -->
<g id="edge12" class="edge">
<title>Node729&#45;&gt;Node735</title>
<path fill="none" stroke="#191970" d="M445.259,-314C461.9873,-314 481.8664,-314 500.1067,-314"/>
<polygon fill="#191970" stroke="#191970" points="500.3299,-317.5001 510.3298,-314 500.3298,-310.5001 500.3299,-317.5001"/>
</g>
<!-- Node736 -->
<g id="node13" class="node">
<title>Node736</title>
<g id="a_node13"><a xlink:href="classprevector.html#a9fbdc01ee822a8e4fc6a83e7899975f4" target="_top" xlink:title="prevector::data">
<polygon fill="#ffffff" stroke="#000000" points="514.5,-418.5 514.5,-437.5 596.5,-437.5 596.5,-418.5 514.5,-418.5"/>
<text text-anchor="middle" x="555.5" y="-425.5" font-family="Helvetica,sans-Serif" font-size="10.00" fill="#000000">prevector::data</text>
</a>
</g>
</g>
<!-- Node729&#45;&gt;Node736 -->
<g id="edge14" class="edge">
<title>Node729&#45;&gt;Node736</title>
<path fill="none" stroke="#191970" d="M412.6141,-323.5852C424.6881,-341.7832 453.359,-381.5227 487,-404 493.2669,-408.1873 500.3447,-411.728 507.5124,-414.6958"/>
<polygon fill="#191970" stroke="#191970" points="506.6832,-418.1243 517.2746,-418.3945 509.1633,-411.5784 506.6832,-418.1243"/>
</g>
<!-- Node731 -->
<g id="node8" class="node">
<title>Node731</title>
<g id="a_node8"><a xlink:href="class_c_size_computer.html#a8f51357462d7960b27155d4f58558177" target="_top" xlink:title="Pretend _nSize bytes are written, without specifying them. ">
<polygon fill="#ffffff" stroke="#000000" points="664.5,-494.5 664.5,-513.5 777.5,-513.5 777.5,-494.5 664.5,-494.5"/>
<text text-anchor="middle" x="721" y="-501.5" font-family="Helvetica,sans-Serif" font-size="10.00" fill="#000000">CSizeComputer::seek</text>
</a>
</g>
</g>
<!-- Node730&#45;&gt;Node731 -->
<g id="edge7" class="edge">
<title>Node730&#45;&gt;Node731</title>
<path fill="none" stroke="#191970" d="M597.2626,-475.589C619.2005,-480.6261 646.2803,-486.8438 669.508,-492.1771"/>
<polygon fill="#191970" stroke="#191970" points="669.008,-495.6533 679.5377,-494.4799 670.5746,-488.8308 669.008,-495.6533"/>
</g>
<!-- Node732 -->
<g id="node9" class="node">
<title>Node732</title>
<g id="a_node9"><a xlink:href="serialize_8h.html#a404beecbf8d7aec8d2cdac3cbb71e808" target="_top" xlink:title="Compact Size size &lt; 253 – 1 byte size &lt;= USHRT_MAX – 3 bytes (253 + 2 bytes) size &lt;= UINT_MAX – 5 ...">
<polygon fill="#ffffff" stroke="#000000" points="660,-456.5 660,-475.5 782,-475.5 782,-456.5 660,-456.5"/>
<text text-anchor="middle" x="721" y="-463.5" font-family="Helvetica,sans-Serif" font-size="10.00" fill="#000000">GetSizeOfCompactSize</text>
</a>
</g>
</g>
<!-- Node730&#45;&gt;Node732 -->
<g id="edge8" class="edge">
<title>Node730&#45;&gt;Node732</title>
<path fill="none" stroke="#191970" d="M605.1555,-459.7547C619.1577,-459.3046 634.6736,-459.1556 649.6784,-459.3075"/>
<polygon fill="#191970" stroke="#191970" points="649.9086,-462.8113 659.9597,-459.4609 650.0131,-455.8121 649.9086,-462.8113"/>
</g>
<!-- Node732&#45;&gt;Node730 -->
<g id="edge9" class="edge">
<title>Node732&#45;&gt;Node730</title>
<path fill="none" stroke="#191970" d="M659.9597,-472.5391C645.4397,-472.8273 629.96,-472.8201 615.4875,-472.5177"/>
<polygon fill="#191970" stroke="#191970" points="615.2443,-469.0102 605.1555,-472.2453 615.0597,-476.0077 615.2443,-469.0102"/>
</g>
<!-- Node734 -->
<g id="node11" class="node">
<title>Node734</title>
<g id="a_node11"><a xlink:href="classprevector.html#a933e204a7e29c6bbc85479d023c00ff8" target="_top" xlink:title="prevector::is_direct">
<polygon fill="#ffffff" stroke="#000000" points="823.5,-209.5 823.5,-228.5 923.5,-228.5 923.5,-209.5 823.5,-209.5"/>
<text text-anchor="middle" x="873.5" y="-216.5" font-family="Helvetica,sans-Serif" font-size="10.00" fill="#000000">prevector::is_direct</text>
</a>
</g>
</g>
<!-- Node733&#45;&gt;Node734 -->
<g id="edge11" class="edge">
<title>Node733&#45;&gt;Node734</title>
<path fill="none" stroke="#191970" d="M746.5251,-266.4595C771.7067,-257.0473 810.3966,-242.5862 838.4514,-232.1001"/>
<polygon fill="#191970" stroke="#191970" points="839.75,-235.3513 847.8917,-228.5716 837.2992,-228.7944 839.75,-235.3513"/>
</g>
<!-- Node735&#45;&gt;Node733 -->
<g id="edge13" class="edge">
<title>Node735&#45;&gt;Node733</title>
<path fill="none" stroke="#191970" d="M597.2626,-304.411C619.5503,-299.2936 647.145,-292.9576 670.616,-287.5685"/>
<polygon fill="#191970" stroke="#191970" points="671.4318,-290.9724 680.395,-285.3232 669.8653,-284.1499 671.4318,-290.9724"/>
</g>
<!-- Node737 -->
<g id="node14" class="node">
<title>Node737</title>
<g id="a_node14"><a xlink:href="classprevector.html#a59f1d7bcbc751cfa0faddd7ffa184846" target="_top" xlink:title="prevector::item_ptr">
<polygon fill="#ffffff" stroke="#000000" points="672,-354.5 672,-373.5 770,-373.5 770,-354.5 672,-354.5"/>
<text text-anchor="middle" x="721" y="-361.5" font-family="Helvetica,sans-Serif" font-size="10.00" fill="#000000">prevector::item_ptr</text>
</a>
</g>
</g>
<!-- Node736&#45;&gt;Node737 -->
<g id="edge15" class="edge">
<title>Node736&#45;&gt;Node737</title>
<path fill="none" stroke="#191970" d="M583.9534,-418.4169C596.3153,-414.1541 610.9295,-408.9805 624,-404 646.0329,-395.6044 670.5832,-385.4728 689.4726,-377.507"/>
<polygon fill="#191970" stroke="#191970" points="690.9485,-380.683 698.7912,-373.5595 688.218,-374.2374 690.9485,-380.683"/>
</g>
<!-- Node737&#45;&gt;Node734 -->
<g id="edge16" class="edge">
<title>Node737&#45;&gt;Node734</title>
<path fill="none" stroke="#191970" d="M766.4983,-354.4493C772.1007,-351.9875 777.4471,-348.892 782,-345 809.4975,-321.494 796.5914,-301.1602 818,-272 828.1515,-258.1728 842.1301,-244.8481 853.5186,-235.0179"/>
<polygon fill="#191970" stroke="#191970" points="855.8512,-237.6295 861.2616,-228.5203 851.3515,-232.2673 855.8512,-237.6295"/>
</g>
<!-- Node738 -->
<g id="node15" class="node">
<title>Node738</title>
<g id="a_node15"><a xlink:href="classprevector.html#a20150a43dd87c33f0e855a55bd3418e8" target="_top" xlink:title="prevector::direct_ptr">
<polygon fill="#ffffff" stroke="#000000" points="821.5,-336.5 821.5,-355.5 925.5,-355.5 925.5,-336.5 821.5,-336.5"/>
<text text-anchor="middle" x="873.5" y="-343.5" font-family="Helvetica,sans-Serif" font-size="10.00" fill="#000000">prevector::direct_ptr</text>
</a>
</g>
</g>
<!-- Node737&#45;&gt;Node738 -->
<g id="edge17" class="edge">
<title>Node737&#45;&gt;Node738</title>
<path fill="none" stroke="#191970" d="M770.0914,-358.2056C783.1358,-356.6659 797.4,-354.9823 811.0534,-353.3708"/>
<polygon fill="#191970" stroke="#191970" points="811.824,-356.8042 821.3448,-352.156 811.0034,-349.8524 811.824,-356.8042"/>
</g>
<!-- Node739 -->
<g id="node16" class="node">
<title>Node739</title>
<g id="a_node16"><a xlink:href="classprevector.html#ae3343cc65be9fd678b4a6f8305624de6" target="_top" xlink:title="prevector::indirect_ptr">
<polygon fill="#ffffff" stroke="#000000" points="818,-281.5 818,-300.5 929,-300.5 929,-281.5 818,-281.5"/>
<text text-anchor="middle" x="873.5" y="-288.5" font-family="Helvetica,sans-Serif" font-size="10.00" fill="#000000">prevector::indirect_ptr</text>
</a>
</g>
</g>
<!-- Node737&#45;&gt;Node739 -->
<g id="edge18" class="edge">
<title>Node737&#45;&gt;Node739</title>
<path fill="none" stroke="#191970" d="M756.6709,-354.4076C765.1148,-351.7232 773.9901,-348.5535 782,-345 806.5521,-334.1077 832.778,-318.135 850.8296,-306.3857"/>
<polygon fill="#191970" stroke="#191970" points="853.0579,-309.1085 859.4722,-300.6759 849.1993,-303.268 853.0579,-309.1085"/>
</g>
<!-- Node741 -->
<g id="node18" class="node">
<title>Node741</title>
<g id="a_node18"><a xlink:href="classprevector.html#a412f07b8bf5485dabe2fe9d6d5dfe763" target="_top" xlink:title="prevector::clear">
<polygon fill="#ffffff" stroke="#000000" points="234.5,-190.5 234.5,-209.5 318.5,-209.5 318.5,-190.5 234.5,-190.5"/>
<text text-anchor="middle" x="276.5" y="-197.5" font-family="Helvetica,sans-Serif" font-size="10.00" fill="#000000">prevector::clear</text>
</a>
</g>
</g>
<!-- Node740&#45;&gt;Node741 -->
<g id="edge20" class="edge">
<title>Node740&#45;&gt;Node741</title>
<path fill="none" stroke="#191970" d="M191.2386,-187.5387C201.9227,-189.1002 213.4183,-190.7804 224.4018,-192.3856"/>
<polygon fill="#191970" stroke="#191970" points="223.9057,-195.8502 234.3068,-193.8333 224.9181,-188.9238 223.9057,-195.8502"/>
</g>
<!-- Node742 -->
<g id="node19" class="node">
<title>Node742</title>
<g id="a_node19"><a xlink:href="classprevector.html#ad2d97a45e0d2872260e868a540d31860" target="_top" xlink:title="prevector::resize">
<polygon fill="#ffffff" stroke="#000000" points="362,-190.5 362,-209.5 451,-209.5 451,-190.5 362,-190.5"/>
<text text-anchor="middle" x="406.5" y="-197.5" font-family="Helvetica,sans-Serif" font-size="10.00" fill="#000000">prevector::resize</text>
</a>
</g>
</g>
<!-- Node740&#45;&gt;Node742 -->
<g id="edge47" class="edge">
<title>Node740&#45;&gt;Node742</title>
<path fill="none" stroke="#191970" d="M191.295,-178.1357C227.7089,-176.4946 280.3426,-175.6849 326,-181 338.4805,-182.4529 351.8338,-185.1323 364.0052,-188.03"/>
<polygon fill="#191970" stroke="#191970" points="363.357,-191.4753 373.9062,-190.4933 365.0471,-184.6824 363.357,-191.4753"/>
</g>
<!-- Node751 -->
<g id="node28" class="node">
<title>Node751</title>
<g id="a_node28"><a xlink:href="serialize_8h.html#ae3fd928949b7361accfec79c314aa90f" target="_top" xlink:title="ReadCompactSize">
<polygon fill="#ffffff" stroke="#000000" points="227,-76.5 227,-95.5 326,-95.5 326,-76.5 227,-76.5"/>
<text text-anchor="middle" x="276.5" y="-83.5" font-family="Helvetica,sans-Serif" font-size="10.00" fill="#000000">ReadCompactSize</text>
</a>
</g>
</g>
<!-- Node740&#45;&gt;Node751 -->
<g id="edge39" class="edge">
<title>Node740&#45;&gt;Node751</title>
<path fill="none" stroke="#191970" d="M173.098,-171.3057C179.1735,-168.6432 185.4663,-165.5087 191,-162 217.8103,-145.0006 244.4737,-119.6002 260.7213,-102.9172"/>
<polygon fill="#191970" stroke="#191970" points="263.4312,-105.1476 267.8157,-95.5026 258.3734,-100.3083 263.4312,-105.1476"/>
</g>
<!-- Node741&#45;&gt;Node742 -->
<g id="edge21" class="edge">
<title>Node741&#45;&gt;Node742</title>
<path fill="none" stroke="#191970" d="M318.7073,-200C329.2651,-200 340.7416,-200 351.8089,-200"/>
<polygon fill="#191970" stroke="#191970" points="351.8197,-203.5001 361.8196,-200 351.8196,-196.5001 351.8197,-203.5001"/>
</g>
<!-- Node742&#45;&gt;Node733 -->
<g id="edge22" class="edge">
<title>Node742&#45;&gt;Node733</title>
<path fill="none" stroke="#191970" d="M451.0498,-195.7531C496.5174,-193.2426 568.143,-194.4206 624,-219 643.8667,-227.7422 641.5918,-240.5001 660,-252 666.4366,-256.021 673.6591,-259.5757 680.8214,-262.6342"/>
<polygon fill="#191970" stroke="#191970" points="679.8866,-266.0299 690.4713,-266.4945 682.4866,-259.5306 679.8866,-266.0299"/>
</g>
<!-- Node742&#45;&gt;Node737 -->
<g id="edge24" class="edge">
<title>Node742&#45;&gt;Node737</title>
<path fill="none" stroke="#191970" d="M411.029,-209.6648C427.9509,-245.7707 486.526,-370.6992 487,-371 547.7139,-409.5234 636.2675,-391.4583 685.1857,-376.6205"/>
<polygon fill="#191970" stroke="#191970" points="686.5148,-379.8713 694.9985,-373.5248 684.4088,-373.1957 686.5148,-379.8713"/>
</g>
<!-- Node743 -->
<g id="node20" class="node">
<title>Node743</title>
<g id="a_node20"><a xlink:href="classprevector.html#a780af143deebcaaecb164fa1a2d98156" target="_top" xlink:title="prevector::erase">
<polygon fill="#ffffff" stroke="#000000" points="512,-228.5 512,-247.5 599,-247.5 599,-228.5 512,-228.5"/>
<text text-anchor="middle" x="555.5" y="-235.5" font-family="Helvetica,sans-Serif" font-size="10.00" fill="#000000">prevector::erase</text>
</a>
</g>
</g>
<!-- Node742&#45;&gt;Node743 -->
<g id="edge23" class="edge">
<title>Node742&#45;&gt;Node743</title>
<path fill="none" stroke="#191970" d="M444.099,-209.589C463.584,-214.5583 487.5745,-220.6767 508.2958,-225.9613"/>
<polygon fill="#191970" stroke="#191970" points="507.6166,-229.4001 518.1714,-228.4799 509.3465,-222.6172 507.6166,-229.4001"/>
</g>
<!-- Node744 -->
<g id="node21" class="node">
<title>Node744</title>
<g id="a_node21"><a xlink:href="classprevector.html#aab7f6e13a3cac85cc340fc6b90c5365c" target="_top" xlink:title="prevector::end">
<polygon fill="#ffffff" stroke="#000000" points="516,-342.5 516,-361.5 595,-361.5 595,-342.5 516,-342.5"/>
<text text-anchor="middle" x="555.5" y="-349.5" font-family="Helvetica,sans-Serif" font-size="10.00" fill="#000000">prevector::end</text>
</a>
</g>
</g>
<!-- Node742&#45;&gt;Node744 -->
<g id="edge25" class="edge">
<title>Node742&#45;&gt;Node744</title>
<path fill="none" stroke="#191970" d="M409.5614,-209.7532C417.8097,-234.3975 442.9037,-299.5791 487,-333 492.6171,-337.2572 499.137,-340.5606 505.8774,-343.1238"/>
<polygon fill="#191970" stroke="#191970" points="505.2386,-346.597 515.8311,-346.3744 507.4117,-339.9429 505.2386,-346.597"/>
</g>
<!-- Node746 -->
<g id="node23" class="node">
<title>Node746</title>
<g id="a_node23"><a xlink:href="classprevector.html#a833f4c9e5c4804fb8ac57b708657af24" target="_top" xlink:title="prevector::capacity">
<polygon fill="#ffffff" stroke="#000000" points="671,-114.5 671,-133.5 771,-133.5 771,-114.5 671,-114.5"/>
<text text-anchor="middle" x="721" y="-121.5" font-family="Helvetica,sans-Serif" font-size="10.00" fill="#000000">prevector::capacity</text>
</a>
</g>
</g>
<!-- Node742&#45;&gt;Node746 -->
<g id="edge29" class="edge">
<title>Node742&#45;&gt;Node746</title>
<path fill="none" stroke="#191970" d="M416.3869,-190.2494C430.6239,-176.9015 458.3516,-153.4112 487,-143 543.5066,-122.4649 612.5849,-119.2864 660.9865,-120.2805"/>
<polygon fill="#191970" stroke="#191970" points="660.898,-123.7792 670.989,-120.5512 661.0874,-116.7818 660.898,-123.7792"/>
</g>
<!-- Node747 -->
<g id="node24" class="node">
<title>Node747</title>
<g id="a_node24"><a xlink:href="classprevector.html#a0e673654d3b7d8d6f79534e17f68741a" target="_top" xlink:title="prevector::change_capacity">
<polygon fill="#ffffff" stroke="#000000" points="487,-152.5 487,-171.5 624,-171.5 624,-152.5 487,-152.5"/>
<text text-anchor="middle" x="555.5" y="-159.5" font-family="Helvetica,sans-Serif" font-size="10.00" fill="#000000">prevector::change_capacity</text>
</a>
</g>
</g>
<!-- Node742&#45;&gt;Node747 -->
<g id="edge31" class="edge">
<title>Node742&#45;&gt;Node747</title>
<path fill="none" stroke="#191970" d="M444.099,-190.411C463.584,-185.4417 487.5745,-179.3233 508.2958,-174.0387"/>
<polygon fill="#191970" stroke="#191970" points="509.3465,-177.3828 518.1714,-171.5201 507.6166,-170.5999 509.3465,-177.3828"/>
</g>
<!-- Node744&#45;&gt;Node733 -->
<g id="edge28" class="edge">
<title>Node744&#45;&gt;Node733</title>
<path fill="none" stroke="#191970" d="M595.3512,-344.7481C605.1362,-341.9612 615.2933,-338.1581 624,-333 643.7398,-321.3056 640.5359,-308.1478 660,-296 664.0419,-293.4774 668.4349,-291.2396 672.9491,-289.2618"/>
<polygon fill="#191970" stroke="#191970" points="674.2994,-292.4916 682.3115,-285.5594 671.7251,-285.9821 674.2994,-292.4916"/>
</g>
<!-- Node744&#45;&gt;Node737 -->
<g id="edge27" class="edge">
<title>Node744&#45;&gt;Node737</title>
<path fill="none" stroke="#191970" d="M595.1414,-354.8743C615.1269,-356.3234 639.767,-358.11 661.9318,-359.7171"/>
<polygon fill="#191970" stroke="#191970" points="661.6889,-363.2086 671.9158,-360.441 662.1952,-356.2269 661.6889,-363.2086"/>
</g>
<!-- Node745 -->
<g id="node22" class="node">
<title>Node745</title>
<g id="a_node22"><a xlink:href="classprevector_1_1iterator.html#ae9dd2b5e8d96f866e4b05d6b7535f285" target="_top" xlink:title="prevector::iterator\l::iterator">
<polygon fill="#ffffff" stroke="#000000" points="674.5,-305 674.5,-335 767.5,-335 767.5,-305 674.5,-305"/>
<text text-anchor="start" x="682.5" y="-323" font-family="Helvetica,sans-Serif" font-size="10.00" fill="#000000">prevector::iterator</text>
<text text-anchor="middle" x="721" y="-312" font-family="Helvetica,sans-Serif" font-size="10.00" fill="#000000">::iterator</text>
</a>
</g>
</g>
<!-- Node744&#45;&gt;Node745 -->
<g id="edge26" class="edge">
<title>Node744&#45;&gt;Node745</title>
<path fill="none" stroke="#191970" d="M595.1414,-344.3352C615.8834,-340.3247 641.6389,-335.3447 664.4375,-330.9365"/>
<polygon fill="#191970" stroke="#191970" points="665.1851,-334.3569 674.3388,-329.0221 663.8562,-327.4842 665.1851,-334.3569"/>
</g>
<!-- Node746&#45;&gt;Node734 -->
<g id="edge30" class="edge">
<title>Node746&#45;&gt;Node734</title>
<path fill="none" stroke="#191970" d="M750.3295,-133.6042C760.6375,-137.4778 772.109,-142.3712 782,-148 809.4826,-163.6398 837.73,-186.8585 855.431,-202.4421"/>
<polygon fill="#191970" stroke="#191970" points="853.4369,-205.3542 863.2238,-209.4122 858.1036,-200.1367 853.4369,-205.3542"/>
</g>
<!-- Node747&#45;&gt;Node733 -->
<g id="edge38" class="edge">
<title>Node747&#45;&gt;Node733</title>
<path fill="none" stroke="#191970" d="M598.2905,-171.5783C607.4618,-175.0436 616.6053,-179.7179 624,-186 649.4647,-207.6332 634.9492,-229.8889 660,-252 664.5368,-256.0044 669.8205,-259.3807 675.3452,-262.217"/>
<polygon fill="#191970" stroke="#191970" points="674.2282,-265.5535 684.781,-266.4963 677.1194,-259.1785 674.2282,-265.5535"/>
</g>
<!-- Node747&#45;&gt;Node734 -->
<g id="edge32" class="edge">
<title>Node747&#45;&gt;Node734</title>
<path fill="none" stroke="#191970" d="M624.0979,-164.9712C669.3845,-167.9806 729.7799,-174.0013 782,-186 802.4993,-190.7102 824.7113,-198.6488 842.1166,-205.5593"/>
<polygon fill="#191970" stroke="#191970" points="841.1779,-208.9557 851.7599,-209.4772 843.8127,-202.4705 841.1779,-208.9557"/>
</g>
<!-- Node747&#45;&gt;Node738 -->
<g id="edge34" class="edge">
<title>Node747&#45;&gt;Node738</title>
<path fill="none" stroke="#191970" d="M584.0388,-171.5436C596.6849,-176.3022 611.4967,-182.6223 624,-190 641.6949,-200.441 641.8722,-209.33 660,-219 710.1081,-245.7294 736.3814,-223.1735 782,-257 804.8734,-273.9608 797.652,-290.0796 818,-310 826.2716,-318.0978 836.6328,-325.3995 846.1561,-331.2767"/>
<polygon fill="#191970" stroke="#191970" points="844.5429,-334.3886 854.9344,-336.4546 848.0994,-328.3593 844.5429,-334.3886"/>
</g>
<!-- Node747&#45;&gt;Node739 -->
<g id="edge33" class="edge">
<title>Node747&#45;&gt;Node739</title>
<path fill="none" stroke="#191970" d="M597.6128,-171.5887C653.6678,-184.683 749.5049,-208.3186 782,-224 809.734,-237.3838 837.7338,-259.423 855.3222,-274.5455"/>
<polygon fill="#191970" stroke="#191970" points="853.2479,-277.3817 863.0734,-281.3455 857.8642,-272.1196 853.2479,-277.3817"/>
</g>
<!-- Node748 -->
<g id="node25" class="node">
<title>Node748</title>
<g id="a_node25"><a xlink:href="glibc__compat_8cpp.html#a0f46826ab0466591e136db24394923cf" target="_top" xlink:title="memcpy">
<polygon fill="#ffffff" stroke="#000000" points="694,-76.5 694,-95.5 748,-95.5 748,-76.5 694,-76.5"/>
<text text-anchor="middle" x="721" y="-83.5" font-family="Helvetica,sans-Serif" font-size="10.00" fill="#000000">memcpy</text>
</a>
</g>
</g>
<!-- Node747&#45;&gt;Node748 -->
<g id="edge35" class="edge">
<title>Node747&#45;&gt;Node748</title>
<path fill="none" stroke="#191970" d="M570.9499,-152.3073C590.93,-140.0724 627.0795,-118.9437 660,-105 667.697,-101.7399 676.1484,-98.7527 684.243,-96.1603"/>
<polygon fill="#191970" stroke="#191970" points="685.3352,-99.4862 693.8651,-93.202 683.2781,-92.7953 685.3352,-99.4862"/>
</g>
<!-- Node749 -->
<g id="node26" class="node">
<title>Node749</title>
<g id="a_node26"><a xlink:href="glibc__compat_8cpp.html#a9778d49e9029dd75bc53ecbbf9f5e9a1" target="_top" xlink:title="memmove">
<polygon fill="#ffffff" stroke="#000000" points="842.5,-76.5 842.5,-95.5 904.5,-95.5 904.5,-76.5 842.5,-76.5"/>
<text text-anchor="middle" x="873.5" y="-83.5" font-family="Helvetica,sans-Serif" font-size="10.00" fill="#000000">memmove</text>
</a>
</g>
</g>
<!-- Node748&#45;&gt;Node749 -->
<g id="edge36" class="edge">
<title>Node748&#45;&gt;Node749</title>
<path fill="none" stroke="#191970" d="M748.2639,-86C771.5589,-86 805.4321,-86 832.0781,-86"/>
<polygon fill="#191970" stroke="#191970" points="832.2656,-89.5001 842.2656,-86 832.2656,-82.5001 832.2656,-89.5001"/>
</g>
<!-- Node750 -->
<g id="node27" class="node">
<title>Node750</title>
<g id="a_node27"><a xlink:href="glibc__compat_8cpp.html#a424ac71631da5ada2976630ff67051d1" target="_top" xlink:title="__chk_fail">
<polygon fill="#ffffff" stroke="#000000" points="843,-114.5 843,-133.5 904,-133.5 904,-114.5 843,-114.5"/>
<text text-anchor="middle" x="873.5" y="-121.5" font-family="Helvetica,sans-Serif" font-size="10.00" fill="#000000">__chk_fail</text>
</a>
</g>
</g>
<!-- Node748&#45;&gt;Node750 -->
<g id="edge37" class="edge">
<title>Node748&#45;&gt;Node750</title>
<path fill="none" stroke="#191970" d="M748.2639,-92.7936C771.8139,-98.6618 806.1749,-107.2239 832.9505,-113.8959"/>
<polygon fill="#191970" stroke="#191970" points="832.2532,-117.3291 842.8027,-116.3508 833.9457,-110.5368 832.2532,-117.3291"/>
</g>
<!-- Node751&#45;&gt;Node728 -->
<g id="edge40" class="edge">
<title>Node751&#45;&gt;Node728</title>
<path fill="none" stroke="#191970" d="M309.3045,-95.589C325.7783,-100.4044 345.9434,-106.2988 363.6273,-111.468"/>
<polygon fill="#191970" stroke="#191970" points="363.1256,-114.9677 373.706,-114.4141 365.0897,-108.2489 363.1256,-114.9677"/>
</g>
<!-- Node752 -->
<g id="node29" class="node">
<title>Node752</title>
<g id="a_node29"><a xlink:href="serialize_8h.html#a9d79b9c324578a126d1a393047cec9a4" target="_top" xlink:title="ser_readdata16">
<polygon fill="#ffffff" stroke="#000000" points="365,-38.5 365,-57.5 448,-57.5 448,-38.5 365,-38.5"/>
<text text-anchor="middle" x="406.5" y="-45.5" font-family="Helvetica,sans-Serif" font-size="10.00" fill="#000000">ser_readdata16</text>
</a>
</g>
</g>
<!-- Node751&#45;&gt;Node752 -->
<g id="edge41" class="edge">
<title>Node751&#45;&gt;Node752</title>
<path fill="none" stroke="#191970" d="M309.3045,-76.411C325.7783,-71.5956 345.9434,-65.7012 363.6273,-60.532"/>
<polygon fill="#191970" stroke="#191970" points="365.0897,-63.7511 373.706,-57.5859 363.1256,-57.0323 365.0897,-63.7511"/>
</g>
<!-- Node754 -->
<g id="node31" class="node">
<title>Node754</title>
<g id="a_node31"><a xlink:href="serialize_8h.html#ac0bbdc7ba802bbaafbf0cf7774b291d6" target="_top" xlink:title="ser_readdata32">
<polygon fill="#ffffff" stroke="#000000" points="365,-.5 365,-19.5 448,-19.5 448,-.5 365,-.5"/>
<text text-anchor="middle" x="406.5" y="-7.5" font-family="Helvetica,sans-Serif" font-size="10.00" fill="#000000">ser_readdata32</text>
</a>
</g>
</g>
<!-- Node751&#45;&gt;Node754 -->
<g id="edge43" class="edge">
<title>Node751&#45;&gt;Node754</title>
<path fill="none" stroke="#191970" d="M289.3574,-76.3313C305.6915,-64.31 335.0096,-43.597 362,-29 365.2974,-27.2167 368.7973,-25.4778 372.3291,-23.822"/>
<polygon fill="#191970" stroke="#191970" points="373.9354,-26.9377 381.6348,-19.6596 371.0772,-20.5478 373.9354,-26.9377"/>
</g>
<!-- Node756 -->
<g id="node33" class="node">
<title>Node756</title>
<g id="a_node33"><a xlink:href="serialize_8h.html#aa69ce8c2279c2779e04d7b24babe10fc" target="_top" xlink:title="ser_readdata64">
<polygon fill="#ffffff" stroke="#000000" points="365,-76.5 365,-95.5 448,-95.5 448,-76.5 365,-76.5"/>
<text text-anchor="middle" x="406.5" y="-83.5" font-family="Helvetica,sans-Serif" font-size="10.00" fill="#000000">ser_readdata64</text>
</a>
</g>
</g>
<!-- Node751&#45;&gt;Node756 -->
<g id="edge45" class="edge">
<title>Node751&#45;&gt;Node756</title>
<path fill="none" stroke="#191970" d="M326.0183,-86C335.3978,-86 345.2341,-86 354.6824,-86"/>
<polygon fill="#191970" stroke="#191970" points="354.7426,-89.5001 364.7426,-86 354.7426,-82.5001 354.7426,-89.5001"/>
</g>
<!-- Node753 -->
<g id="node30" class="node">
<title>Node753</title>
<g id="a_node30"><a xlink:href="endian_8h.html#a43af2810e0abe8dcaefe0920e64a99f4" target="_top" xlink:title="le16toh">
<polygon fill="#ffffff" stroke="#000000" points="531.5,-38.5 531.5,-57.5 579.5,-57.5 579.5,-38.5 531.5,-38.5"/>
<text text-anchor="middle" x="555.5" y="-45.5" font-family="Helvetica,sans-Serif" font-size="10.00" fill="#000000">le16toh</text>
</a>
</g>
</g>
<!-- Node752&#45;&gt;Node753 -->
<g id="edge42" class="edge">
<title>Node752&#45;&gt;Node753</title>
<path fill="none" stroke="#191970" d="M448.0048,-48C471.0928,-48 499.479,-48 521.2826,-48"/>
<polygon fill="#191970" stroke="#191970" points="521.4054,-51.5001 531.4053,-48 521.4053,-44.5001 521.4054,-51.5001"/>
</g>
<!-- Node755 -->
<g id="node32" class="node">
<title>Node755</title>
<g id="a_node32"><a xlink:href="endian_8h.html#a3b4e83868bbf53b2572b736fc146a319" target="_top" xlink:title="le32toh">
<polygon fill="#ffffff" stroke="#000000" points="531.5,-.5 531.5,-19.5 579.5,-19.5 579.5,-.5 531.5,-.5"/>
<text text-anchor="middle" x="555.5" y="-7.5" font-family="Helvetica,sans-Serif" font-size="10.00" fill="#000000">le32toh</text>
</a>
</g>
</g>
<!-- Node754&#45;&gt;Node755 -->
<g id="edge44" class="edge">
<title>Node754&#45;&gt;Node755</title>
<path fill="none" stroke="#191970" d="M448.0048,-10C471.0928,-10 499.479,-10 521.2826,-10"/>
<polygon fill="#191970" stroke="#191970" points="521.4054,-13.5001 531.4053,-10 521.4053,-6.5001 521.4054,-13.5001"/>
</g>
<!-- Node757 -->
<g id="node34" class="node">
<title>Node757</title>
<g id="a_node34"><a xlink:href="endian_8h.html#afc03933561fbd136419c5e9649f975df" target="_top" xlink:title="le64toh">
<polygon fill="#ffffff" stroke="#000000" points="531.5,-76.5 531.5,-95.5 579.5,-95.5 579.5,-76.5 531.5,-76.5"/>
<text text-anchor="middle" x="555.5" y="-83.5" font-family="Helvetica,sans-Serif" font-size="10.00" fill="#000000">le64toh</text>
</a>
</g>
</g>
<!-- Node756&#45;&gt;Node757 -->
<g id="edge46" class="edge">
<title>Node756&#45;&gt;Node757</title>
<path fill="none" stroke="#191970" d="M448.0048,-86C471.0928,-86 499.479,-86 521.2826,-86"/>
<polygon fill="#191970" stroke="#191970" points="521.4054,-89.5001 531.4053,-86 521.4053,-82.5001 521.4054,-89.5001"/>
</g>
</g>
</svg>
