<?xml version="1.0" encoding="UTF-8" standalone="no"?>
<!DOCTYPE svg PUBLIC "-//W3C//DTD SVG 1.1//EN"
 "http://www.w3.org/Graphics/SVG/1.1/DTD/svg11.dtd">
<!-- Generated by graphviz version 2.40.1 (20161225.0304)
 -->
<!-- Title: ParseHexO Pages: 1 -->
<svg width="1225pt" height="674pt"
 viewBox="0.00 0.00 1225.00 674.00" xmlns="http://www.w3.org/2000/svg" xmlns:xlink="http://www.w3.org/1999/xlink">
<g id="graph0" class="graph" transform="scale(1 1) rotate(0) translate(4 670)">
<title>ParseHexO</title>
<polygon fill="#ffffff" stroke="transparent" points="-4,4 -4,-670 1221,-670 1221,4 -4,4"/>
<!-- Node603 -->
<g id="node1" class="node">
<title>Node603</title>
<polygon fill="#bfbfbf" stroke="#000000" points="0,-370.5 0,-389.5 68,-389.5 68,-370.5 0,-370.5"/>
<text text-anchor="middle" x="34" y="-377.5" font-family="Helvetica,sans-Serif" font-size="10.00" fill="#000000">ParseHexO</text>
</g>
<!-- Node604 -->
<g id="node2" class="node">
<title>Node604</title>
<g id="a_node2"><a xlink:href="server_8cpp.html#a250d292e8ce3793abe154667a8297d08" target="_top" xlink:title="ParseHexV">
<polygon fill="#ffffff" stroke="#000000" points="104,-389.5 104,-408.5 171,-408.5 171,-389.5 104,-389.5"/>
<text text-anchor="middle" x="137.5" y="-396.5" font-family="Helvetica,sans-Serif" font-size="10.00" fill="#000000">ParseHexV</text>
</a>
</g>
</g>
<!-- Node603&#45;&gt;Node604 -->
<g id="edge1" class="edge">
<title>Node603&#45;&gt;Node604</title>
<path fill="none" stroke="#191970" d="M68.1766,-386.274C76.3869,-387.7812 85.2668,-389.4113 93.8427,-390.9856"/>
<polygon fill="#191970" stroke="#191970" points="93.2444,-394.4342 103.7121,-392.7974 94.5084,-387.5492 93.2444,-394.4342"/>
</g>
<!-- Node643 -->
<g id="node41" class="node">
<title>Node643</title>
<g id="a_node41"><a xlink:href="univalue_8h.html#a33625d562f1ef5f44ceb171d5c8f2a85" target="_top" xlink:title="find_value">
<polygon fill="#ffffff" stroke="#000000" points="107,-351.5 107,-370.5 168,-370.5 168,-351.5 107,-351.5"/>
<text text-anchor="middle" x="137.5" y="-358.5" font-family="Helvetica,sans-Serif" font-size="10.00" fill="#000000">find_value</text>
</a>
</g>
</g>
<!-- Node603&#45;&gt;Node643 -->
<g id="edge44" class="edge">
<title>Node603&#45;&gt;Node643</title>
<path fill="none" stroke="#191970" d="M68.1766,-373.726C77.3437,-372.0432 87.3456,-370.2071 96.8271,-368.4665"/>
<polygon fill="#191970" stroke="#191970" points="97.6434,-371.8753 106.847,-366.6271 96.3794,-364.9903 97.6434,-371.8753"/>
</g>
<!-- Node605 -->
<g id="node3" class="node">
<title>Node605</title>
<g id="a_node3"><a xlink:href="class_uni_value.html#a8abe13a4663ccfda54ae2440ed445c5a" target="_top" xlink:title="UniValue::isStr">
<polygon fill="#ffffff" stroke="#000000" points="211.5,-465.5 211.5,-484.5 294.5,-484.5 294.5,-465.5 211.5,-465.5"/>
<text text-anchor="middle" x="253" y="-472.5" font-family="Helvetica,sans-Serif" font-size="10.00" fill="#000000">UniValue::isStr</text>
</a>
</g>
</g>
<!-- Node604&#45;&gt;Node605 -->
<g id="edge2" class="edge">
<title>Node604&#45;&gt;Node605</title>
<path fill="none" stroke="#191970" d="M147.1526,-408.5062C159.9669,-420.7346 183.7012,-442.0561 207,-456 210.151,-457.8858 213.5236,-459.6692 216.9574,-461.3321"/>
<polygon fill="#191970" stroke="#191970" points="215.5241,-464.5251 226.0794,-465.4402 218.3986,-458.1425 215.5241,-464.5251"/>
</g>
<!-- Node606 -->
<g id="node4" class="node">
<title>Node606</title>
<g id="a_node4"><a xlink:href="class_uni_value.html#a087ea6ccec615333371fa1aaf83ab7df" target="_top" xlink:title="UniValue::get_str">
<polygon fill="#ffffff" stroke="#000000" points="207,-427.5 207,-446.5 299,-446.5 299,-427.5 207,-427.5"/>
<text text-anchor="middle" x="253" y="-434.5" font-family="Helvetica,sans-Serif" font-size="10.00" fill="#000000">UniValue::get_str</text>
</a>
</g>
</g>
<!-- Node604&#45;&gt;Node606 -->
<g id="edge3" class="edge">
<title>Node604&#45;&gt;Node606</title>
<path fill="none" stroke="#191970" d="M166.6455,-408.589C181.0083,-413.3144 198.5292,-419.0789 214.026,-424.1774"/>
<polygon fill="#191970" stroke="#191970" points="213.2708,-427.6134 223.8638,-427.4141 215.4586,-420.9641 213.2708,-427.6134"/>
</g>
<!-- Node608 -->
<g id="node6" class="node">
<title>Node608</title>
<g id="a_node6"><a xlink:href="utilstrencodings_8cpp.html#a9f23401f4b871ed693f7a96a9ba40c58" target="_top" xlink:title="IsHex">
<polygon fill="#ffffff" stroke="#000000" points="231.5,-351.5 231.5,-370.5 274.5,-370.5 274.5,-351.5 231.5,-351.5"/>
<text text-anchor="middle" x="253" y="-358.5" font-family="Helvetica,sans-Serif" font-size="10.00" fill="#000000">IsHex</text>
</a>
</g>
</g>
<!-- Node604&#45;&gt;Node608 -->
<g id="edge5" class="edge">
<title>Node604&#45;&gt;Node608</title>
<path fill="none" stroke="#191970" d="M166.6455,-389.411C183.4047,-383.8971 204.4638,-376.9686 221.5897,-371.3341"/>
<polygon fill="#191970" stroke="#191970" points="222.7513,-374.6366 231.1565,-368.1866 220.5636,-367.9872 222.7513,-374.6366"/>
</g>
<!-- Node610 -->
<g id="node8" class="node">
<title>Node610</title>
<g id="a_node8"><a xlink:href="rpc_2protocol_8cpp.html#a40b75d3d265c4a2e1d5fe3e129743884" target="_top" xlink:title="JSONRPCError">
<polygon fill="#ffffff" stroke="#000000" points="210,-313.5 210,-332.5 296,-332.5 296,-313.5 210,-313.5"/>
<text text-anchor="middle" x="253" y="-320.5" font-family="Helvetica,sans-Serif" font-size="10.00" fill="#000000">JSONRPCError</text>
</a>
</g>
</g>
<!-- Node604&#45;&gt;Node610 -->
<g id="edge7" class="edge">
<title>Node604&#45;&gt;Node610</title>
<path fill="none" stroke="#191970" d="M156.5573,-389.483C161.4504,-386.6978 166.5774,-383.462 171,-380 189.3191,-365.6596 187.8261,-355.1756 207,-342 209.5525,-340.246 212.2921,-338.6107 215.1162,-337.0952"/>
<polygon fill="#191970" stroke="#191970" points="216.8139,-340.1623 224.2993,-332.6643 213.7719,-333.8578 216.8139,-340.1623"/>
</g>
<!-- Node642 -->
<g id="node40" class="node">
<title>Node642</title>
<g id="a_node40"><a xlink:href="utilstrencodings_8cpp.html#a5a787187ddd5c52baae692350ec5a2cb" target="_top" xlink:title="ParseHex">
<polygon fill="#ffffff" stroke="#000000" points="223,-389.5 223,-408.5 283,-408.5 283,-389.5 223,-389.5"/>
<text text-anchor="middle" x="253" y="-396.5" font-family="Helvetica,sans-Serif" font-size="10.00" fill="#000000">ParseHex</text>
</a>
</g>
</g>
<!-- Node604&#45;&gt;Node642 -->
<g id="edge42" class="edge">
<title>Node604&#45;&gt;Node642</title>
<path fill="none" stroke="#191970" d="M171.2179,-399C184.2706,-399 199.3168,-399 212.9166,-399"/>
<polygon fill="#191970" stroke="#191970" points="212.9776,-402.5001 222.9776,-399 212.9776,-395.5001 212.9776,-402.5001"/>
</g>
<!-- Node607 -->
<g id="node5" class="node">
<title>Node607</title>
<g id="a_node5"><a xlink:href="class_uni_value.html#a4c9a5fa9114affbf31f6e346c032be12" target="_top" xlink:title="UniValue::getValStr">
<polygon fill="#ffffff" stroke="#000000" points="338.5,-427.5 338.5,-446.5 441.5,-446.5 441.5,-427.5 338.5,-427.5"/>
<text text-anchor="middle" x="390" y="-434.5" font-family="Helvetica,sans-Serif" font-size="10.00" fill="#000000">UniValue::getValStr</text>
</a>
</g>
</g>
<!-- Node606&#45;&gt;Node607 -->
<g id="edge4" class="edge">
<title>Node606&#45;&gt;Node607</title>
<path fill="none" stroke="#191970" d="M299.0001,-437C308.3465,-437 318.3215,-437 328.1144,-437"/>
<polygon fill="#191970" stroke="#191970" points="328.2199,-440.5001 338.2199,-437 328.2199,-433.5001 328.2199,-440.5001"/>
</g>
<!-- Node609 -->
<g id="node7" class="node">
<title>Node609</title>
<g id="a_node7"><a xlink:href="utilstrencodings_8cpp.html#aa59e8a8c5a39cb5041f93bb95dd02119" target="_top" xlink:title="HexDigit">
<polygon fill="#ffffff" stroke="#000000" points="362.5,-380.5 362.5,-399.5 417.5,-399.5 417.5,-380.5 362.5,-380.5"/>
<text text-anchor="middle" x="390" y="-387.5" font-family="Helvetica,sans-Serif" font-size="10.00" fill="#000000">HexDigit</text>
</a>
</g>
</g>
<!-- Node608&#45;&gt;Node609 -->
<g id="edge6" class="edge">
<title>Node608&#45;&gt;Node609</title>
<path fill="none" stroke="#191970" d="M274.7081,-365.5951C295.5304,-370.0028 327.4024,-376.7494 352.3624,-382.0329"/>
<polygon fill="#191970" stroke="#191970" points="351.7306,-385.4767 362.2386,-384.1235 353.1802,-378.6284 351.7306,-385.4767"/>
</g>
<!-- Node611 -->
<g id="node9" class="node">
<title>Node611</title>
<g id="a_node9"><a xlink:href="util_8h.html#a96c5fc7111f69f7dcaba992d95d13e03" target="_top" xlink:title="error">
<polygon fill="#ffffff" stroke="#000000" points="372,-323.5 372,-342.5 408,-342.5 408,-323.5 372,-323.5"/>
<text text-anchor="middle" x="390" y="-330.5" font-family="Helvetica,sans-Serif" font-size="10.00" fill="#000000">error</text>
</a>
</g>
</g>
<!-- Node610&#45;&gt;Node611 -->
<g id="edge8" class="edge">
<title>Node610&#45;&gt;Node611</title>
<path fill="none" stroke="#191970" d="M296.3477,-326.1641C317.6789,-327.7211 342.789,-329.5539 361.6362,-330.9297"/>
<polygon fill="#191970" stroke="#191970" points="361.4374,-334.4244 371.6657,-331.6617 361.9471,-327.4429 361.4374,-334.4244"/>
</g>
<!-- Node641 -->
<g id="node39" class="node">
<title>Node641</title>
<g id="a_node39"><a xlink:href="class_uni_value.html#a944cd1b59b040cd24c9f46b55a68d49a" target="_top" xlink:title="UniValue::push_back">
<polygon fill="#ffffff" stroke="#000000" points="335,-285.5 335,-304.5 445,-304.5 445,-285.5 335,-285.5"/>
<text text-anchor="middle" x="390" y="-292.5" font-family="Helvetica,sans-Serif" font-size="10.00" fill="#000000">UniValue::push_back</text>
</a>
</g>
</g>
<!-- Node610&#45;&gt;Node641 -->
<g id="edge41" class="edge">
<title>Node610&#45;&gt;Node641</title>
<path fill="none" stroke="#191970" d="M296.3477,-314.1406C307.984,-311.7624 320.7448,-309.1543 333.0001,-306.6496"/>
<polygon fill="#191970" stroke="#191970" points="334.0432,-310.0089 343.1398,-304.5773 332.6415,-303.1506 334.0432,-310.0089"/>
</g>
<!-- Node612 -->
<g id="node10" class="node">
<title>Node612</title>
<g id="a_node10"><a xlink:href="util_8h.html#afd4c3002b2797c0560adddb6af3ca1da" target="_top" xlink:title="Send a string to the log output. ">
<polygon fill="#ffffff" stroke="#000000" points="510.5,-646.5 510.5,-665.5 575.5,-665.5 575.5,-646.5 510.5,-646.5"/>
<text text-anchor="middle" x="543" y="-653.5" font-family="Helvetica,sans-Serif" font-size="10.00" fill="#000000">LogPrintStr</text>
</a>
</g>
</g>
<!-- Node611&#45;&gt;Node612 -->
<g id="edge9" class="edge">
<title>Node611&#45;&gt;Node612</title>
<path fill="none" stroke="#191970" d="M408.1437,-340.6714C420.6259,-346.9409 436.4415,-357.052 445,-371 507.3931,-472.6838 403.7826,-546.0606 481,-637 486.1747,-643.0943 493.2496,-647.2696 500.7722,-650.1215"/>
<polygon fill="#191970" stroke="#191970" points="499.8446,-653.4977 510.4308,-653.071 501.8891,-646.8029 499.8446,-653.4977"/>
</g>
<!-- Node613 -->
<g id="node11" class="node">
<title>Node613</title>
<g id="a_node11"><a xlink:href="namespacetinyformat.html#a05144619d8b16e2b31b2594ca9c6bf1d" target="_top" xlink:title="Format list of arguments to the stream according to given format string. ">
<polygon fill="#ffffff" stroke="#000000" points="496,-608.5 496,-627.5 590,-627.5 590,-608.5 496,-608.5"/>
<text text-anchor="middle" x="543" y="-615.5" font-family="Helvetica,sans-Serif" font-size="10.00" fill="#000000">tinyformat::format</text>
</a>
</g>
</g>
<!-- Node611&#45;&gt;Node613 -->
<g id="edge10" class="edge">
<title>Node611&#45;&gt;Node613</title>
<path fill="none" stroke="#191970" d="M408.0508,-340.7291C420.488,-347.0265 436.288,-357.1473 445,-371 499.6153,-457.8424 413.7398,-521.5371 481,-599 482.7761,-601.0455 484.766,-602.8743 486.914,-604.5091"/>
<polygon fill="#191970" stroke="#191970" points="485.4917,-607.7384 495.8635,-609.9009 489.1041,-601.7424 485.4917,-607.7384"/>
</g>
<!-- Node622 -->
<g id="node20" class="node">
<title>Node622</title>
<g id="a_node20"><a xlink:href="util_8h.html#aaada8c5faa502eb0c33fc01294955db8" target="_top" xlink:title="PrintExceptionContinue">
<polygon fill="#ffffff" stroke="#000000" points="483.5,-570.5 483.5,-589.5 602.5,-589.5 602.5,-570.5 483.5,-570.5"/>
<text text-anchor="middle" x="543" y="-577.5" font-family="Helvetica,sans-Serif" font-size="10.00" fill="#000000">PrintExceptionContinue</text>
</a>
</g>
</g>
<!-- Node611&#45;&gt;Node622 -->
<g id="edge19" class="edge">
<title>Node611&#45;&gt;Node622</title>
<path fill="none" stroke="#191970" d="M408.1867,-340.9463C420.5217,-347.2919 436.14,-357.3797 445,-371 491.8653,-443.0452 423.6627,-496.9742 481,-561 482.1876,-562.3261 483.465,-563.5609 484.8167,-564.7106"/>
<polygon fill="#191970" stroke="#191970" points="483.0133,-567.716 493.2605,-570.4079 486.9285,-561.9133 483.0133,-567.716"/>
</g>
<!-- Node623 -->
<g id="node21" class="node">
<title>Node623</title>
<g id="a_node21"><a xlink:href="util_8h.html#af0e69a29ba128b74030ad8a213f2037a" target="_top" xlink:title="FileCommit">
<polygon fill="#ffffff" stroke="#000000" points="509.5,-532.5 509.5,-551.5 576.5,-551.5 576.5,-532.5 509.5,-532.5"/>
<text text-anchor="middle" x="543" y="-539.5" font-family="Helvetica,sans-Serif" font-size="10.00" fill="#000000">FileCommit</text>
</a>
</g>
</g>
<!-- Node611&#45;&gt;Node623 -->
<g id="edge20" class="edge">
<title>Node611&#45;&gt;Node623</title>
<path fill="none" stroke="#191970" d="M408.261,-341.2099C420.4665,-347.6215 435.8993,-357.6797 445,-371 484.1643,-428.3229 433.5257,-472.3448 481,-523 486.081,-528.4215 492.6631,-532.3104 499.6345,-535.0966"/>
<polygon fill="#191970" stroke="#191970" points="498.6854,-538.4685 509.278,-538.2528 500.8628,-531.8158 498.6854,-538.4685"/>
</g>
<!-- Node624 -->
<g id="node22" class="node">
<title>Node624</title>
<g id="a_node22"><a xlink:href="util_8h.html#acb8d6b822bc1bfa609bf43bbac1a0d44" target="_top" xlink:title="TruncateFile">
<polygon fill="#ffffff" stroke="#000000" points="507.5,-494.5 507.5,-513.5 578.5,-513.5 578.5,-494.5 507.5,-494.5"/>
<text text-anchor="middle" x="543" y="-501.5" font-family="Helvetica,sans-Serif" font-size="10.00" fill="#000000">TruncateFile</text>
</a>
</g>
</g>
<!-- Node611&#45;&gt;Node624 -->
<g id="edge21" class="edge">
<title>Node611&#45;&gt;Node624</title>
<path fill="none" stroke="#191970" d="M408.2198,-341.5656C420.247,-348.0798 435.4861,-358.1156 445,-371 476.5617,-413.7431 443.2697,-447.5896 481,-485 485.6692,-489.6297 491.4351,-493.1358 497.5543,-495.7901"/>
<polygon fill="#191970" stroke="#191970" points="496.7593,-499.223 507.3539,-499.299 499.1191,-492.6327 496.7593,-499.223"/>
</g>
<!-- Node625 -->
<g id="node23" class="node">
<title>Node625</title>
<g id="a_node23"><a xlink:href="util_8h.html#a756a5c49a4bb607d16d9842f8f3ede4f" target="_top" xlink:title="this function tries to raise the file descriptor limit to the requested number. ">
<polygon fill="#ffffff" stroke="#000000" points="481,-456.5 481,-475.5 605,-475.5 605,-456.5 481,-456.5"/>
<text text-anchor="middle" x="543" y="-463.5" font-family="Helvetica,sans-Serif" font-size="10.00" fill="#000000">RaiseFileDescriptorLimit</text>
</a>
</g>
</g>
<!-- Node611&#45;&gt;Node625 -->
<g id="edge22" class="edge">
<title>Node611&#45;&gt;Node625</title>
<path fill="none" stroke="#191970" d="M408.1884,-342.292C419.8962,-348.9985 434.7799,-358.9713 445,-371 469.2003,-399.483 452.7264,-422.5554 481,-447 482.9747,-448.7073 485.1004,-450.2612 487.3334,-451.6755"/>
<polygon fill="#191970" stroke="#191970" points="485.9109,-454.8825 496.3865,-456.4674 489.1857,-448.6958 485.9109,-454.8825"/>
</g>
<!-- Node626 -->
<g id="node24" class="node">
<title>Node626</title>
<g id="a_node24"><a xlink:href="util_8h.html#a91c763bffc49cf7ed8d45cc44870e55c" target="_top" xlink:title="this function tries to make a particular range of a file allocated (corresponding to disk space) it i...">
<polygon fill="#ffffff" stroke="#000000" points="495,-418.5 495,-437.5 591,-437.5 591,-418.5 495,-418.5"/>
<text text-anchor="middle" x="543" y="-425.5" font-family="Helvetica,sans-Serif" font-size="10.00" fill="#000000">AllocateFileRange</text>
</a>
</g>
</g>
<!-- Node611&#45;&gt;Node626 -->
<g id="edge23" class="edge">
<title>Node611&#45;&gt;Node626</title>
<path fill="none" stroke="#191970" d="M405.5614,-342.5155C416.9322,-349.7572 432.4858,-360.2761 445,-371 462.6655,-386.1382 461.2262,-396.7431 481,-409 484.4014,-411.1084 488.0536,-412.9976 491.8214,-414.6878"/>
<polygon fill="#191970" stroke="#191970" points="490.7631,-418.0339 501.3481,-418.491 493.3585,-411.5328 490.7631,-418.0339"/>
</g>
<!-- Node627 -->
<g id="node25" class="node">
<title>Node627</title>
<g id="a_node25"><a xlink:href="util_8h.html#a579657da2b55b131ecd453bf1b0d2314" target="_top" xlink:title="RenameOver">
<polygon fill="#ffffff" stroke="#000000" points="506,-380.5 506,-399.5 580,-399.5 580,-380.5 506,-380.5"/>
<text text-anchor="middle" x="543" y="-387.5" font-family="Helvetica,sans-Serif" font-size="10.00" fill="#000000">RenameOver</text>
</a>
</g>
</g>
<!-- Node611&#45;&gt;Node627 -->
<g id="edge24" class="edge">
<title>Node611&#45;&gt;Node627</title>
<path fill="none" stroke="#191970" d="M408.2658,-341.2511C426.4928,-349.336 455.3956,-361.756 481,-371 487.0457,-373.1827 493.4785,-375.3368 499.8251,-377.3666"/>
<polygon fill="#191970" stroke="#191970" points="499.0706,-380.7977 509.6594,-380.4401 501.1587,-374.1164 499.0706,-380.7977"/>
</g>
<!-- Node628 -->
<g id="node26" class="node">
<title>Node628</title>
<g id="a_node26"><a xlink:href="util_8h.html#a9042a919d837da9d97311a0c460c597c" target="_top" xlink:title="Ignores exceptions thrown by Boost&#39;s create_directories if the requested directory exists...">
<polygon fill="#ffffff" stroke="#000000" points="489.5,-342.5 489.5,-361.5 596.5,-361.5 596.5,-342.5 489.5,-342.5"/>
<text text-anchor="middle" x="543" y="-349.5" font-family="Helvetica,sans-Serif" font-size="10.00" fill="#000000">TryCreateDirectories</text>
</a>
</g>
</g>
<!-- Node611&#45;&gt;Node628 -->
<g id="edge25" class="edge">
<title>Node611&#45;&gt;Node628</title>
<path fill="none" stroke="#191970" d="M408.1519,-335.2542C425.7618,-337.441 453.5274,-340.889 479.2986,-344.0894"/>
<polygon fill="#191970" stroke="#191970" points="479.0725,-347.5881 489.4276,-345.3472 479.9352,-340.6414 479.0725,-347.5881"/>
</g>
<!-- Node629 -->
<g id="node27" class="node">
<title>Node629</title>
<g id="a_node27"><a xlink:href="util_8h.html#a15cb85964fe08c264605537f44570d3c" target="_top" xlink:title="GetDefaultDataDir">
<polygon fill="#ffffff" stroke="#000000" points="494,-304.5 494,-323.5 592,-323.5 592,-304.5 494,-304.5"/>
<text text-anchor="middle" x="543" y="-311.5" font-family="Helvetica,sans-Serif" font-size="10.00" fill="#000000">GetDefaultDataDir</text>
</a>
</g>
</g>
<!-- Node611&#45;&gt;Node629 -->
<g id="edge26" class="edge">
<title>Node611&#45;&gt;Node629</title>
<path fill="none" stroke="#191970" d="M408.1519,-330.7458C426.7522,-328.436 456.6826,-324.7191 483.6256,-321.3733"/>
<polygon fill="#191970" stroke="#191970" points="484.2833,-324.8186 493.7757,-320.1128 483.4205,-317.872 484.2833,-324.8186"/>
</g>
<!-- Node630 -->
<g id="node28" class="node">
<title>Node630</title>
<g id="a_node28"><a xlink:href="util_8h.html#abb63dfb710832aefb746933af05198d4" target="_top" xlink:title="GetDataDir">
<polygon fill="#ffffff" stroke="#000000" points="510,-266.5 510,-285.5 576,-285.5 576,-266.5 510,-266.5"/>
<text text-anchor="middle" x="543" y="-273.5" font-family="Helvetica,sans-Serif" font-size="10.00" fill="#000000">GetDataDir</text>
</a>
</g>
</g>
<!-- Node611&#45;&gt;Node630 -->
<g id="edge27" class="edge">
<title>Node611&#45;&gt;Node630</title>
<path fill="none" stroke="#191970" d="M408.0988,-327.5194C418.9561,-324.0423 432.9508,-319.2244 445,-314 461.5986,-306.8031 464.2771,-301.9032 481,-295 487.0096,-292.5192 493.4629,-290.1908 499.854,-288.0723"/>
<polygon fill="#191970" stroke="#191970" points="501.3005,-291.2853 509.7731,-284.9242 499.1829,-284.6133 501.3005,-291.2853"/>
</g>
<!-- Node631 -->
<g id="node29" class="node">
<title>Node631</title>
<g id="a_node29"><a xlink:href="util_8h.html#abfb50dfe077aced7591f2aba601f605d" target="_top" xlink:title="ClearDatadirCache">
<polygon fill="#ffffff" stroke="#000000" points="493,-228.5 493,-247.5 593,-247.5 593,-228.5 493,-228.5"/>
<text text-anchor="middle" x="543" y="-235.5" font-family="Helvetica,sans-Serif" font-size="10.00" fill="#000000">ClearDatadirCache</text>
</a>
</g>
</g>
<!-- Node611&#45;&gt;Node631 -->
<g id="edge28" class="edge">
<title>Node611&#45;&gt;Node631</title>
<path fill="none" stroke="#191970" d="M408.0822,-329.955C419.6001,-327.2902 434.3106,-322.4696 445,-314 468.4847,-295.3923 457.191,-275.1909 481,-257 483.4699,-255.1129 486.1281,-253.4119 488.9054,-251.8787"/>
<polygon fill="#191970" stroke="#191970" points="490.553,-254.9713 498.0959,-247.5312 487.5596,-248.6436 490.553,-254.9713"/>
</g>
<!-- Node632 -->
<g id="node30" class="node">
<title>Node632</title>
<g id="a_node30"><a xlink:href="util_8h.html#aa634f312705d4811dfa2a5392bddf6cf" target="_top" xlink:title="GetConfigFile">
<polygon fill="#ffffff" stroke="#000000" points="504.5,-152.5 504.5,-171.5 581.5,-171.5 581.5,-152.5 504.5,-152.5"/>
<text text-anchor="middle" x="543" y="-159.5" font-family="Helvetica,sans-Serif" font-size="10.00" fill="#000000">GetConfigFile</text>
</a>
</g>
</g>
<!-- Node611&#45;&gt;Node632 -->
<g id="edge29" class="edge">
<title>Node611&#45;&gt;Node632</title>
<path fill="none" stroke="#191970" d="M408.2187,-331.1052C420.2454,-328.9138 435.4843,-324.1886 445,-314 486.7988,-269.2453 438.4189,-225.011 481,-181 484.914,-176.9545 489.6643,-173.7645 494.7747,-171.2501"/>
<polygon fill="#191970" stroke="#191970" points="496.3009,-174.4084 504.2599,-167.4151 493.677,-167.9188 496.3009,-174.4084"/>
</g>
<!-- Node634 -->
<g id="node32" class="node">
<title>Node634</title>
<g id="a_node32"><a xlink:href="util_8h.html#aa0172eabeecce5061826cb19990fbde2" target="_top" xlink:title="GetPidFile">
<polygon fill="#ffffff" stroke="#000000" points="512,-190.5 512,-209.5 574,-209.5 574,-190.5 512,-190.5"/>
<text text-anchor="middle" x="543" y="-197.5" font-family="Helvetica,sans-Serif" font-size="10.00" fill="#000000">GetPidFile</text>
</a>
</g>
</g>
<!-- Node611&#45;&gt;Node634 -->
<g id="edge31" class="edge">
<title>Node611&#45;&gt;Node634</title>
<path fill="none" stroke="#191970" d="M408.1672,-330.7497C420.0164,-328.4041 435.0697,-323.6405 445,-314 477.3965,-282.5487 448.0542,-249.8753 481,-219 486.8914,-213.4789 494.3478,-209.5601 502.0301,-206.7791"/>
<polygon fill="#191970" stroke="#191970" points="503.2223,-210.0751 511.7809,-203.8301 501.1959,-203.3749 503.2223,-210.0751"/>
</g>
<!-- Node636 -->
<g id="node34" class="node">
<title>Node636</title>
<g id="a_node34"><a xlink:href="util_8h.html#a1c0f9b041628dcb399a023bc9913f41d" target="_top" xlink:title="CreatePidFile">
<polygon fill="#ffffff" stroke="#000000" points="505,-38.5 505,-57.5 581,-57.5 581,-38.5 505,-38.5"/>
<text text-anchor="middle" x="543" y="-45.5" font-family="Helvetica,sans-Serif" font-size="10.00" fill="#000000">CreatePidFile</text>
</a>
</g>
</g>
<!-- Node611&#45;&gt;Node636 -->
<g id="edge34" class="edge">
<title>Node611&#45;&gt;Node636</title>
<path fill="none" stroke="#191970" d="M408.089,-331.5429C420.378,-329.5558 435.9815,-324.8948 445,-314 515.7402,-228.5425 408.7645,-151.1973 481,-67 484.9447,-62.4021 489.9706,-58.8976 495.4488,-56.2301"/>
<polygon fill="#191970" stroke="#191970" points="496.9554,-59.3987 504.9841,-52.4857 494.3968,-52.8831 496.9554,-59.3987"/>
</g>
<!-- Node638 -->
<g id="node36" class="node">
<title>Node638</title>
<g id="a_node36"><a xlink:href="util_8h.html#a1e755e72104d3ca393efc1cc3f41952a" target="_top" xlink:title="OpenDebugLog">
<polygon fill="#ffffff" stroke="#000000" points="501,-76.5 501,-95.5 585,-95.5 585,-76.5 501,-76.5"/>
<text text-anchor="middle" x="543" y="-83.5" font-family="Helvetica,sans-Serif" font-size="10.00" fill="#000000">OpenDebugLog</text>
</a>
</g>
</g>
<!-- Node611&#45;&gt;Node638 -->
<g id="edge36" class="edge">
<title>Node611&#45;&gt;Node638</title>
<path fill="none" stroke="#191970" d="M408.0028,-331.4705C420.2511,-329.4494 435.8414,-324.7774 445,-314 506.0368,-242.1748 418.7067,-175.7382 481,-105 484.054,-101.532 487.7226,-98.6876 491.7302,-96.3561"/>
<polygon fill="#191970" stroke="#191970" points="493.3767,-99.4495 500.938,-92.028 490.399,-93.1145 493.3767,-99.4495"/>
</g>
<!-- Node639 -->
<g id="node37" class="node">
<title>Node639</title>
<g id="a_node37"><a xlink:href="util_8h.html#a37fca7e305fe0caa306b23fdb37f88e2" target="_top" xlink:title="ShrinkDebugFile">
<polygon fill="#ffffff" stroke="#000000" points="498.5,-114.5 498.5,-133.5 587.5,-133.5 587.5,-114.5 498.5,-114.5"/>
<text text-anchor="middle" x="543" y="-121.5" font-family="Helvetica,sans-Serif" font-size="10.00" fill="#000000">ShrinkDebugFile</text>
</a>
</g>
</g>
<!-- Node611&#45;&gt;Node639 -->
<g id="edge37" class="edge">
<title>Node611&#45;&gt;Node639</title>
<path fill="none" stroke="#191970" d="M408.1429,-331.3205C420.2943,-329.2272 435.7109,-324.5307 445,-314 496.3771,-255.7558 428.6042,-200.3296 481,-143 483.428,-140.3434 486.2165,-138.0539 489.2375,-136.0814"/>
<polygon fill="#191970" stroke="#191970" points="491.0502,-139.0824 498.261,-131.3199 487.7833,-132.8914 491.0502,-139.0824"/>
</g>
<!-- Node640 -->
<g id="node38" class="node">
<title>Node640</title>
<g id="a_node38"><a xlink:href="util_8h.html#aa803aa631ab8b4bd79fa9d7b2172bf9a" target="_top" xlink:title="runCommand">
<polygon fill="#ffffff" stroke="#000000" points="505.5,-.5 505.5,-19.5 580.5,-19.5 580.5,-.5 505.5,-.5"/>
<text text-anchor="middle" x="543" y="-7.5" font-family="Helvetica,sans-Serif" font-size="10.00" fill="#000000">runCommand</text>
</a>
</g>
</g>
<!-- Node611&#45;&gt;Node640 -->
<g id="edge40" class="edge">
<title>Node611&#45;&gt;Node640</title>
<path fill="none" stroke="#191970" d="M408.1533,-331.5956C420.4725,-329.6333 436.0858,-324.9804 445,-314 525.4698,-214.8786 398.7955,-126.6876 481,-29 484.9471,-24.3095 490.0202,-20.7547 495.5617,-18.0648"/>
<polygon fill="#191970" stroke="#191970" points="497.1653,-21.1964 505.2138,-14.3064 494.6253,-14.6735 497.1653,-21.1964"/>
</g>
<!-- Node614 -->
<g id="node12" class="node">
<title>Node614</title>
<g id="a_node12"><a xlink:href="namespacetinyformat.html#a86ed74eb3ed66a662e96220d877da964" target="_top" xlink:title="Format list of arguments to the stream according to the given format string. ">
<polygon fill="#ffffff" stroke="#000000" points="660,-589.5 660,-608.5 759,-608.5 759,-589.5 660,-589.5"/>
<text text-anchor="middle" x="709.5" y="-596.5" font-family="Helvetica,sans-Serif" font-size="10.00" fill="#000000">tinyformat::vformat</text>
</a>
</g>
</g>
<!-- Node613&#45;&gt;Node614 -->
<g id="edge11" class="edge">
<title>Node613&#45;&gt;Node614</title>
<path fill="none" stroke="#191970" d="M590.2669,-612.6062C608.7697,-610.4948 630.209,-608.0482 649.7631,-605.8168"/>
<polygon fill="#191970" stroke="#191970" points="650.2525,-609.2838 659.7912,-604.6725 649.4588,-602.3289 650.2525,-609.2838"/>
</g>
<!-- Node621 -->
<g id="node19" class="node">
<title>Node621</title>
<g id="a_node19"><a xlink:href="namespacetinyformat.html#a37afaa5249c69dacd619269358f06f69" target="_top" xlink:title="Make type&#45;agnostic format list from list of template arguments. ">
<polygon fill="#ffffff" stroke="#000000" points="641,-627.5 641,-646.5 778,-646.5 778,-627.5 641,-627.5"/>
<text text-anchor="middle" x="709.5" y="-634.5" font-family="Helvetica,sans-Serif" font-size="10.00" fill="#000000">tinyformat::makeFormatList</text>
</a>
</g>
</g>
<!-- Node613&#45;&gt;Node621 -->
<g id="edge18" class="edge">
<title>Node613&#45;&gt;Node621</title>
<path fill="none" stroke="#191970" d="M590.2669,-623.3938C602.9546,-624.8417 617.0231,-626.4471 630.9177,-628.0327"/>
<polygon fill="#191970" stroke="#191970" points="630.6498,-631.5247 640.9822,-629.1811 631.4435,-624.5698 630.6498,-631.5247"/>
</g>
<!-- Node615 -->
<g id="node13" class="node">
<title>Node615</title>
<g id="a_node13"><a xlink:href="namespacetinyformat_1_1detail.html#a079a316938c0e8693efbeb0183b1390d" target="_top" xlink:title="tinyformat::detail\l::formatImpl">
<polygon fill="#ffffff" stroke="#000000" points="814,-584 814,-614 903,-614 903,-584 814,-584"/>
<text text-anchor="start" x="822" y="-602" font-family="Helvetica,sans-Serif" font-size="10.00" fill="#000000">tinyformat::detail</text>
<text text-anchor="middle" x="858.5" y="-591" font-family="Helvetica,sans-Serif" font-size="10.00" fill="#000000">::formatImpl</text>
</a>
</g>
</g>
<!-- Node614&#45;&gt;Node615 -->
<g id="edge12" class="edge">
<title>Node614&#45;&gt;Node615</title>
<path fill="none" stroke="#191970" d="M759.1148,-599C773.2842,-599 788.8105,-599 803.2923,-599"/>
<polygon fill="#191970" stroke="#191970" points="803.6183,-602.5001 813.6183,-599 803.6183,-595.5001 803.6183,-602.5001"/>
</g>
<!-- Node616 -->
<g id="node14" class="node">
<title>Node616</title>
<g id="a_node14"><a xlink:href="namespacetinyformat_1_1detail.html#ad3d636b9f85202b515c8940b7fcb62a6" target="_top" xlink:title="tinyformat::detail\l::printFormatStringLiteral">
<polygon fill="#ffffff" stroke="#000000" points="941.5,-633 941.5,-663 1065.5,-663 1065.5,-633 941.5,-633"/>
<text text-anchor="start" x="949.5" y="-651" font-family="Helvetica,sans-Serif" font-size="10.00" fill="#000000">tinyformat::detail</text>
<text text-anchor="middle" x="1003.5" y="-640" font-family="Helvetica,sans-Serif" font-size="10.00" fill="#000000">::printFormatStringLiteral</text>
</a>
</g>
</g>
<!-- Node615&#45;&gt;Node616 -->
<g id="edge13" class="edge">
<title>Node615&#45;&gt;Node616</title>
<path fill="none" stroke="#191970" d="M903.1879,-614.1014C917.659,-618.9917 933.8725,-624.4707 948.9752,-629.5744"/>
<polygon fill="#191970" stroke="#191970" points="948.1158,-632.9783 958.71,-632.8641 950.3569,-626.3468 948.1158,-632.9783"/>
</g>
<!-- Node617 -->
<g id="node15" class="node">
<title>Node617</title>
<g id="a_node15"><a xlink:href="namespacetinyformat_1_1detail.html#a681e8ceb825485cc5e3b057c11e4b1b5" target="_top" xlink:title="tinyformat::detail\l::streamStateFromFormat">
<polygon fill="#ffffff" stroke="#000000" points="939,-584 939,-614 1068,-614 1068,-584 939,-584"/>
<text text-anchor="start" x="947" y="-602" font-family="Helvetica,sans-Serif" font-size="10.00" fill="#000000">tinyformat::detail</text>
<text text-anchor="middle" x="1003.5" y="-591" font-family="Helvetica,sans-Serif" font-size="10.00" fill="#000000">::streamStateFromFormat</text>
</a>
</g>
</g>
<!-- Node615&#45;&gt;Node617 -->
<g id="edge14" class="edge">
<title>Node615&#45;&gt;Node617</title>
<path fill="none" stroke="#191970" d="M903.1879,-599C911.3219,-599 920.0064,-599 928.7346,-599"/>
<polygon fill="#191970" stroke="#191970" points="928.9707,-602.5001 938.9707,-599 928.9706,-595.5001 928.9707,-602.5001"/>
</g>
<!-- Node620 -->
<g id="node18" class="node">
<title>Node620</title>
<g id="a_node18"><a xlink:href="classtinyformat_1_1detail_1_1_format_arg.html#acbf435711bbe4a4da7fc81758d7108a9" target="_top" xlink:title="tinyformat::detail\l::FormatArg::format">
<polygon fill="#ffffff" stroke="#000000" points="952.5,-535 952.5,-565 1054.5,-565 1054.5,-535 952.5,-535"/>
<text text-anchor="start" x="960.5" y="-553" font-family="Helvetica,sans-Serif" font-size="10.00" fill="#000000">tinyformat::detail</text>
<text text-anchor="middle" x="1003.5" y="-542" font-family="Helvetica,sans-Serif" font-size="10.00" fill="#000000">::FormatArg::format</text>
</a>
</g>
</g>
<!-- Node615&#45;&gt;Node620 -->
<g id="edge17" class="edge">
<title>Node615&#45;&gt;Node620</title>
<path fill="none" stroke="#191970" d="M903.1879,-583.8986C917.659,-579.0083 933.8725,-573.5293 948.9752,-568.4256"/>
<polygon fill="#191970" stroke="#191970" points="950.3569,-571.6532 958.71,-565.1359 948.1158,-565.0217 950.3569,-571.6532"/>
</g>
<!-- Node618 -->
<g id="node16" class="node">
<title>Node618</title>
<g id="a_node16"><a xlink:href="namespacetinyformat_1_1detail.html#a67285e0adb9f4164f9fc30a3eb11c771" target="_top" xlink:title="tinyformat::detail\l::parseIntAndAdvance">
<polygon fill="#ffffff" stroke="#000000" points="1104,-608 1104,-638 1217,-638 1217,-608 1104,-608"/>
<text text-anchor="start" x="1112" y="-626" font-family="Helvetica,sans-Serif" font-size="10.00" fill="#000000">tinyformat::detail</text>
<text text-anchor="middle" x="1160.5" y="-615" font-family="Helvetica,sans-Serif" font-size="10.00" fill="#000000">::parseIntAndAdvance</text>
</a>
</g>
</g>
<!-- Node617&#45;&gt;Node618 -->
<g id="edge15" class="edge">
<title>Node617&#45;&gt;Node618</title>
<path fill="none" stroke="#191970" d="M1068.2643,-608.9003C1076.7639,-610.1996 1085.4852,-611.5328 1094.0128,-612.8363"/>
<polygon fill="#191970" stroke="#191970" points="1093.4954,-616.2978 1103.9095,-614.3492 1094.5533,-609.3782 1093.4954,-616.2978"/>
</g>
<!-- Node619 -->
<g id="node17" class="node">
<title>Node619</title>
<g id="a_node17"><a xlink:href="classtinyformat_1_1detail_1_1_format_arg.html#a91b69f66ce9dc8ca2914dce8985d7a1a" target="_top" xlink:title="tinyformat::detail\l::FormatArg::toInt">
<polygon fill="#ffffff" stroke="#000000" points="1113.5,-559 1113.5,-589 1207.5,-589 1207.5,-559 1113.5,-559"/>
<text text-anchor="start" x="1121.5" y="-577" font-family="Helvetica,sans-Serif" font-size="10.00" fill="#000000">tinyformat::detail</text>
<text text-anchor="middle" x="1160.5" y="-566" font-family="Helvetica,sans-Serif" font-size="10.00" fill="#000000">::FormatArg::toInt</text>
</a>
</g>
</g>
<!-- Node617&#45;&gt;Node619 -->
<g id="edge16" class="edge">
<title>Node617&#45;&gt;Node619</title>
<path fill="none" stroke="#191970" d="M1068.2643,-588.6872C1079.7757,-586.8542 1091.6938,-584.9564 1102.9865,-583.1582"/>
<polygon fill="#191970" stroke="#191970" points="1103.8268,-586.5686 1113.152,-581.5395 1102.726,-579.6557 1103.8268,-586.5686"/>
</g>
<!-- Node633 -->
<g id="node31" class="node">
<title>Node633</title>
<g id="a_node31"><a xlink:href="util_8cpp.html#a7ebe0bd091f7334aaead43904601e008" target="_top" xlink:title="GetDataDir">
<polygon fill="#ffffff" stroke="#000000" points="676.5,-152.5 676.5,-171.5 742.5,-171.5 742.5,-152.5 676.5,-152.5"/>
<text text-anchor="middle" x="709.5" y="-159.5" font-family="Helvetica,sans-Serif" font-size="10.00" fill="#000000">GetDataDir</text>
</a>
</g>
</g>
<!-- Node632&#45;&gt;Node633 -->
<g id="edge30" class="edge">
<title>Node632&#45;&gt;Node633</title>
<path fill="none" stroke="#191970" d="M581.6169,-162C606.9746,-162 640.1762,-162 666.3939,-162"/>
<polygon fill="#191970" stroke="#191970" points="666.4308,-165.5001 676.4308,-162 666.4308,-158.5001 666.4308,-165.5001"/>
</g>
<!-- Node634&#45;&gt;Node633 -->
<g id="edge33" class="edge">
<title>Node634&#45;&gt;Node633</title>
<path fill="none" stroke="#191970" d="M574.3174,-192.8525C600.3555,-186.9098 637.6789,-178.3916 666.5137,-171.8107"/>
<polygon fill="#191970" stroke="#191970" points="667.3559,-175.2085 676.3265,-169.5711 665.7983,-168.384 667.3559,-175.2085"/>
</g>
<!-- Node635 -->
<g id="node33" class="node">
<title>Node635</title>
<g id="a_node33"><a xlink:href="class_args_manager.html#adb5d644d273b3a259f792affcdca8283" target="_top" xlink:title="Return string argument or default value. ">
<polygon fill="#ffffff" stroke="#000000" points="654,-190.5 654,-209.5 765,-209.5 765,-190.5 654,-190.5"/>
<text text-anchor="middle" x="709.5" y="-197.5" font-family="Helvetica,sans-Serif" font-size="10.00" fill="#000000">ArgsManager::GetArg</text>
</a>
</g>
</g>
<!-- Node634&#45;&gt;Node635 -->
<g id="edge32" class="edge">
<title>Node634&#45;&gt;Node635</title>
<path fill="none" stroke="#191970" d="M574.3174,-200C593.8523,-200 619.7394,-200 643.6282,-200"/>
<polygon fill="#191970" stroke="#191970" points="643.7197,-203.5001 653.7197,-200 643.7196,-196.5001 643.7197,-203.5001"/>
</g>
<!-- Node637 -->
<g id="node35" class="node">
<title>Node637</title>
<g id="a_node35"><a xlink:href="namespacefsbridge.html#a19c84cec4ae9accfbc88a83e48f7ee92" target="_top" xlink:title="fsbridge::fopen">
<polygon fill="#ffffff" stroke="#000000" points="669,-76.5 669,-95.5 750,-95.5 750,-76.5 669,-76.5"/>
<text text-anchor="middle" x="709.5" y="-83.5" font-family="Helvetica,sans-Serif" font-size="10.00" fill="#000000">fsbridge::fopen</text>
</a>
</g>
</g>
<!-- Node636&#45;&gt;Node637 -->
<g id="edge35" class="edge">
<title>Node636&#45;&gt;Node637</title>
<path fill="none" stroke="#191970" d="M581.1985,-56.718C604.2349,-61.9755 633.8575,-68.7362 658.8339,-74.4366"/>
<polygon fill="#191970" stroke="#191970" points="658.3354,-77.9127 668.8635,-76.7256 659.893,-71.0882 658.3354,-77.9127"/>
</g>
<!-- Node639&#45;&gt;Node633 -->
<g id="edge38" class="edge">
<title>Node639&#45;&gt;Node633</title>
<path fill="none" stroke="#191970" d="M585.015,-133.589C609.9082,-139.2703 641.3821,-146.4536 666.4539,-152.1757"/>
<polygon fill="#191970" stroke="#191970" points="665.8902,-155.6369 676.4183,-154.4498 667.4478,-148.8124 665.8902,-155.6369"/>
</g>
<!-- Node639&#45;&gt;Node637 -->
<g id="edge39" class="edge">
<title>Node639&#45;&gt;Node637</title>
<path fill="none" stroke="#191970" d="M585.015,-114.411C607.5216,-109.2744 635.4076,-102.91 659.0776,-97.5078"/>
<polygon fill="#191970" stroke="#191970" points="659.9654,-100.8953 668.9359,-95.2579 658.4078,-94.0708 659.9654,-100.8953"/>
</g>
<!-- Node642&#45;&gt;Node609 -->
<g id="edge43" class="edge">
<title>Node642&#45;&gt;Node609</title>
<path fill="none" stroke="#191970" d="M283.0652,-397.0249C303.3721,-395.6909 330.3419,-393.9191 352.1157,-392.4888"/>
<polygon fill="#191970" stroke="#191970" points="352.5862,-395.9655 362.3353,-391.8174 352.1273,-388.9805 352.5862,-395.9655"/>
</g>
</g>
</svg>
