<?xml version="1.0" encoding="UTF-8" standalone="no"?>
<!DOCTYPE svg PUBLIC "-//W3C//DTD SVG 1.1//EN"
 "http://www.w3.org/Graphics/SVG/1.1/DTD/svg11.dtd">
<!-- Generated by graphviz version 2.40.1 (20161225.0304)
 -->
<!-- Title: RPCTypeCheck Pages: 1 -->
<svg width="327pt" height="446pt"
 viewBox="0.00 0.00 327.00 446.00" xmlns="http://www.w3.org/2000/svg" xmlns:xlink="http://www.w3.org/1999/xlink">
<g id="graph0" class="graph" transform="scale(1 1) rotate(0) translate(4 442)">
<title>RPCTypeCheck</title>
<polygon fill="#ffffff" stroke="transparent" points="-4,4 -4,-442 323,-442 323,4 -4,4"/>
<!-- Node781 -->
<g id="node1" class="node">
<title>Node781</title>
<polygon fill="#bfbfbf" stroke="#000000" points="0,-209.5 0,-228.5 89,-228.5 89,-209.5 0,-209.5"/>
<text text-anchor="middle" x="44.5" y="-216.5" font-family="Helvetica,sans-Serif" font-size="10.00" fill="#000000">RPCTypeCheck</text>
</g>
<!-- Node782 -->
<g id="node2" class="node">
<title>Node782</title>
<g id="a_node2"><a xlink:href="mining_8cpp.html#a9337f53fdcee55966dff25f5935d9126" target="_top" xlink:title="estimatefee">
<polygon fill="#ffffff" stroke="#000000" points="188,-418.5 188,-437.5 256,-437.5 256,-418.5 188,-418.5"/>
<text text-anchor="middle" x="222" y="-425.5" font-family="Helvetica,sans-Serif" font-size="10.00" fill="#000000">estimatefee</text>
</a>
</g>
</g>
<!-- Node781&#45;&gt;Node782 -->
<g id="edge1" class="edge">
<title>Node781&#45;&gt;Node782</title>
<path fill="none" stroke="#191970" d="M46.8139,-238.8605C52.4849,-277.9832 70.8196,-365.0308 125,-409 142.4553,-423.1655 167.4462,-427.8088 187.6898,-428.9659"/>
<polygon fill="#191970" stroke="#191970" points="50.2598,-238.2199 45.4824,-228.7634 43.3199,-239.1351 50.2598,-238.2199"/>
</g>
<!-- Node783 -->
<g id="node3" class="node">
<title>Node783</title>
<g id="a_node3"><a xlink:href="mining_8cpp.html#a4d52dab422bb2e483cc73845003dc19b" target="_top" xlink:title="estimatesmartfee">
<polygon fill="#ffffff" stroke="#000000" points="176,-380.5 176,-399.5 268,-399.5 268,-380.5 176,-380.5"/>
<text text-anchor="middle" x="222" y="-387.5" font-family="Helvetica,sans-Serif" font-size="10.00" fill="#000000">estimatesmartfee</text>
</a>
</g>
</g>
<!-- Node781&#45;&gt;Node783 -->
<g id="edge2" class="edge">
<title>Node781&#45;&gt;Node783</title>
<path fill="none" stroke="#191970" d="M49.0121,-238.5123C57.6928,-271.4082 79.978,-337.578 125,-371 139.4676,-381.74 158.3854,-386.8662 175.6689,-389.1769"/>
<polygon fill="#191970" stroke="#191970" points="52.3884,-237.5858 46.5766,-228.7273 45.5956,-239.2766 52.3884,-237.5858"/>
</g>
<!-- Node784 -->
<g id="node4" class="node">
<title>Node784</title>
<g id="a_node4"><a xlink:href="mining_8cpp.html#af9521f9858269fec01965f9bb1563dcc" target="_top" xlink:title="estimaterawfee">
<polygon fill="#ffffff" stroke="#000000" points="180.5,-342.5 180.5,-361.5 263.5,-361.5 263.5,-342.5 180.5,-342.5"/>
<text text-anchor="middle" x="222" y="-349.5" font-family="Helvetica,sans-Serif" font-size="10.00" fill="#000000">estimaterawfee</text>
</a>
</g>
</g>
<!-- Node781&#45;&gt;Node784 -->
<g id="edge3" class="edge">
<title>Node781&#45;&gt;Node784</title>
<path fill="none" stroke="#191970" d="M52.3754,-237.9724C64.1511,-263.8379 88.8946,-309.6178 125,-333 141.2761,-343.5406 162.0829,-348.4778 180.2494,-350.7046"/>
<polygon fill="#191970" stroke="#191970" points="55.46,-236.29 48.2509,-228.5261 49.0449,-239.0911 55.46,-236.29"/>
</g>
<!-- Node785 -->
<g id="node5" class="node">
<title>Node785</title>
<g id="a_node5"><a xlink:href="misc_8cpp.html#a79ad4fea3fd47edbddef7bf1ed9a4980" target="_top" xlink:title="setmocktime">
<polygon fill="#ffffff" stroke="#000000" points="185.5,-304.5 185.5,-323.5 258.5,-323.5 258.5,-304.5 185.5,-304.5"/>
<text text-anchor="middle" x="222" y="-311.5" font-family="Helvetica,sans-Serif" font-size="10.00" fill="#000000">setmocktime</text>
</a>
</g>
</g>
<!-- Node781&#45;&gt;Node785 -->
<g id="edge4" class="edge">
<title>Node781&#45;&gt;Node785</title>
<path fill="none" stroke="#191970" d="M58.0084,-236.5984C72.5639,-254.2512 97.3858,-280.7974 125,-295 143.6175,-304.5754 166.52,-309.3393 185.3952,-311.7031"/>
<polygon fill="#191970" stroke="#191970" points="60.701,-234.3614 51.7205,-228.74 55.2353,-238.7348 60.701,-234.3614"/>
</g>
<!-- Node786 -->
<g id="node6" class="node">
<title>Node786</title>
<g id="a_node6"><a xlink:href="rawtransaction_8cpp.html#ab02feb76c01de90cbcc78c56499217a2" target="_top" xlink:title="createrawtransaction">
<polygon fill="#ffffff" stroke="#000000" points="168.5,-266.5 168.5,-285.5 275.5,-285.5 275.5,-266.5 168.5,-266.5"/>
<text text-anchor="middle" x="222" y="-273.5" font-family="Helvetica,sans-Serif" font-size="10.00" fill="#000000">createrawtransaction</text>
</a>
</g>
</g>
<!-- Node781&#45;&gt;Node786 -->
<g id="edge5" class="edge">
<title>Node781&#45;&gt;Node786</title>
<path fill="none" stroke="#191970" d="M70.5241,-233.305C85.9672,-241.2759 106.1525,-250.812 125,-257 138.7769,-261.5233 154.0272,-265.1305 168.2772,-267.9337"/>
<polygon fill="#191970" stroke="#191970" points="72.0541,-230.155 61.5757,-228.5881 68.7899,-236.3474 72.0541,-230.155"/>
</g>
<!-- Node787 -->
<g id="node7" class="node">
<title>Node787</title>
<g id="a_node7"><a xlink:href="rawtransaction_8cpp.html#ab773499ce99f3e46fcf1cde4c80ec41a" target="_top" xlink:title="decoderawtransaction">
<polygon fill="#ffffff" stroke="#000000" points="166,-228.5 166,-247.5 278,-247.5 278,-228.5 166,-228.5"/>
<text text-anchor="middle" x="222" y="-235.5" font-family="Helvetica,sans-Serif" font-size="10.00" fill="#000000">decoderawtransaction</text>
</a>
</g>
</g>
<!-- Node781&#45;&gt;Node787 -->
<g id="edge6" class="edge">
<title>Node781&#45;&gt;Node787</title>
<path fill="none" stroke="#191970" d="M99.3753,-224.874C120.4615,-227.1311 144.5493,-229.7095 165.7617,-231.9801"/>
<polygon fill="#191970" stroke="#191970" points="99.6065,-221.3788 89.2907,-223.7945 98.8614,-228.3391 99.6065,-221.3788"/>
</g>
<!-- Node788 -->
<g id="node8" class="node">
<title>Node788</title>
<g id="a_node8"><a xlink:href="rawtransaction_8cpp.html#ac7e0210645b016dfbaec68de41c11dba" target="_top" xlink:title="decodescript">
<polygon fill="#ffffff" stroke="#000000" points="186,-190.5 186,-209.5 258,-209.5 258,-190.5 186,-190.5"/>
<text text-anchor="middle" x="222" y="-197.5" font-family="Helvetica,sans-Serif" font-size="10.00" fill="#000000">decodescript</text>
</a>
</g>
</g>
<!-- Node781&#45;&gt;Node788 -->
<g id="edge7" class="edge">
<title>Node781&#45;&gt;Node788</title>
<path fill="none" stroke="#191970" d="M99.3905,-213.1244C127.5306,-210.1122 161.0131,-206.5282 185.873,-203.8671"/>
<polygon fill="#191970" stroke="#191970" points="98.8614,-209.6609 89.2907,-214.2055 99.6065,-216.6212 98.8614,-209.6609"/>
</g>
<!-- Node789 -->
<g id="node9" class="node">
<title>Node789</title>
<g id="a_node9"><a xlink:href="rawtransaction_8cpp.html#a5b2abfea4548c97e780cfae39f9ac11b" target="_top" xlink:title="signrawtransaction">
<polygon fill="#ffffff" stroke="#000000" points="173,-152.5 173,-171.5 271,-171.5 271,-152.5 173,-152.5"/>
<text text-anchor="middle" x="222" y="-159.5" font-family="Helvetica,sans-Serif" font-size="10.00" fill="#000000">signrawtransaction</text>
</a>
</g>
</g>
<!-- Node781&#45;&gt;Node789 -->
<g id="edge8" class="edge">
<title>Node781&#45;&gt;Node789</title>
<path fill="none" stroke="#191970" d="M70.5241,-204.695C85.9672,-196.7241 106.1525,-187.188 125,-181 140.1628,-176.0217 157.1102,-172.153 172.5446,-169.2447"/>
<polygon fill="#191970" stroke="#191970" points="68.7899,-201.6526 61.5757,-209.4119 72.0541,-207.845 68.7899,-201.6526"/>
</g>
<!-- Node790 -->
<g id="node10" class="node">
<title>Node790</title>
<g id="a_node10"><a xlink:href="rawtransaction_8cpp.html#ac1efc1ea6e9d4df3422fb74e78da8306" target="_top" xlink:title="sendrawtransaction">
<polygon fill="#ffffff" stroke="#000000" points="171.5,-114.5 171.5,-133.5 272.5,-133.5 272.5,-114.5 171.5,-114.5"/>
<text text-anchor="middle" x="222" y="-121.5" font-family="Helvetica,sans-Serif" font-size="10.00" fill="#000000">sendrawtransaction</text>
</a>
</g>
</g>
<!-- Node781&#45;&gt;Node790 -->
<g id="edge9" class="edge">
<title>Node781&#45;&gt;Node790</title>
<path fill="none" stroke="#191970" d="M58.0084,-201.4016C72.5639,-183.7488 97.3858,-157.2026 125,-143 139.192,-135.7007 155.874,-131.1974 171.364,-128.4218"/>
<polygon fill="#191970" stroke="#191970" points="55.2353,-199.2652 51.7205,-209.26 60.701,-203.6386 55.2353,-199.2652"/>
</g>
<!-- Node791 -->
<g id="node11" class="node">
<title>Node791</title>
<g id="a_node11"><a xlink:href="class_j_s_o_n_r_p_c_request.html#ab85e24fdbc2b66aa374c9a27cdeba644" target="_top" xlink:title="JSONRPCRequest::JSONRPCRequest">
<polygon fill="#ffffff" stroke="#000000" points="125,-76.5 125,-95.5 319,-95.5 319,-76.5 125,-76.5"/>
<text text-anchor="middle" x="222" y="-83.5" font-family="Helvetica,sans-Serif" font-size="10.00" fill="#000000">JSONRPCRequest::JSONRPCRequest</text>
</a>
</g>
</g>
<!-- Node781&#45;&gt;Node791 -->
<g id="edge10" class="edge">
<title>Node781&#45;&gt;Node791</title>
<path fill="none" stroke="#191970" d="M52.3754,-200.0276C64.1511,-174.1621 88.8946,-128.3822 125,-105 130.9055,-101.1755 137.4074,-98.0887 144.1633,-95.6014"/>
<polygon fill="#191970" stroke="#191970" points="49.0449,-198.9089 48.2509,-209.4739 55.46,-201.71 49.0449,-198.9089"/>
</g>
<!-- Node792 -->
<g id="node12" class="node">
<title>Node792</title>
<g id="a_node12"><a xlink:href="wallet__tests_8cpp.html#af0e3c9469f1d8f368d3d5f38e5580367" target="_top" xlink:title="importmulti">
<polygon fill="#ffffff" stroke="#000000" points="189.5,-38.5 189.5,-57.5 254.5,-57.5 254.5,-38.5 189.5,-38.5"/>
<text text-anchor="middle" x="222" y="-45.5" font-family="Helvetica,sans-Serif" font-size="10.00" fill="#000000">importmulti</text>
</a>
</g>
</g>
<!-- Node781&#45;&gt;Node792 -->
<g id="edge11" class="edge">
<title>Node781&#45;&gt;Node792</title>
<path fill="none" stroke="#191970" d="M49.0121,-199.4877C57.6928,-166.5918 79.978,-100.422 125,-67 143.4634,-53.2937 169.1747,-48.7304 189.4874,-47.4939"/>
<polygon fill="#191970" stroke="#191970" points="45.5956,-198.7234 46.5766,-209.2727 52.3884,-200.4142 45.5956,-198.7234"/>
</g>
<!-- Node793 -->
<g id="node13" class="node">
<title>Node793</title>
<g id="a_node13"><a xlink:href="rpcwallet_8cpp.html#a668cb8e0a50148f57d5cd6095fa8a735" target="_top" xlink:title="fundrawtransaction">
<polygon fill="#ffffff" stroke="#000000" points="172.5,-.5 172.5,-19.5 271.5,-19.5 271.5,-.5 172.5,-.5"/>
<text text-anchor="middle" x="222" y="-7.5" font-family="Helvetica,sans-Serif" font-size="10.00" fill="#000000">fundrawtransaction</text>
</a>
</g>
</g>
<!-- Node781&#45;&gt;Node793 -->
<g id="edge12" class="edge">
<title>Node781&#45;&gt;Node793</title>
<path fill="none" stroke="#191970" d="M46.8139,-199.1395C52.4849,-160.0168 70.8196,-72.9692 125,-29 138.258,-18.2407 155.8634,-12.9748 172.4339,-10.5574"/>
<polygon fill="#191970" stroke="#191970" points="43.3199,-198.8649 45.4824,-209.2366 50.2598,-199.7801 43.3199,-198.8649"/>
</g>
</g>
</svg>
