<?xml version="1.0" encoding="UTF-8" standalone="no"?>
<!DOCTYPE svg PUBLIC "-//W3C//DTD SVG 1.1//EN"
 "http://www.w3.org/Graphics/SVG/1.1/DTD/svg11.dtd">
<!-- Generated by graphviz version 2.40.1 (20161225.0304)
 -->
<!-- Title: ParseHashO Pages: 1 -->
<svg width="1243pt" height="674pt"
 viewBox="0.00 0.00 1243.00 674.00" xmlns="http://www.w3.org/2000/svg" xmlns:xlink="http://www.w3.org/1999/xlink">
<g id="graph0" class="graph" transform="scale(1 1) rotate(0) translate(4 670)">
<title>ParseHashO</title>
<polygon fill="#ffffff" stroke="transparent" points="-4,4 -4,-670 1239,-670 1239,4 -4,4"/>
<!-- Node511 -->
<g id="node1" class="node">
<title>Node511</title>
<polygon fill="#bfbfbf" stroke="#000000" points="0,-342.5 0,-361.5 73,-361.5 73,-342.5 0,-342.5"/>
<text text-anchor="middle" x="36.5" y="-349.5" font-family="Helvetica,sans-Serif" font-size="10.00" fill="#000000">ParseHashO</text>
</g>
<!-- Node512 -->
<g id="node2" class="node">
<title>Node512</title>
<g id="a_node2"><a xlink:href="server_8cpp.html#adb231eaeb57d26011655ee8aaa5315e2" target="_top" xlink:title="Utilities: convert hex&#45;encoded Values (throws error if not hex). ">
<polygon fill="#ffffff" stroke="#000000" points="109,-361.5 109,-380.5 181,-380.5 181,-361.5 109,-361.5"/>
<text text-anchor="middle" x="145" y="-368.5" font-family="Helvetica,sans-Serif" font-size="10.00" fill="#000000">ParseHashV</text>
</a>
</g>
</g>
<!-- Node511&#45;&gt;Node512 -->
<g id="edge1" class="edge">
<title>Node511&#45;&gt;Node512</title>
<path fill="none" stroke="#191970" d="M73.2332,-358.4325C81.452,-359.8718 90.2717,-361.4162 98.8181,-362.9129"/>
<polygon fill="#191970" stroke="#191970" points="98.2192,-366.3612 108.6731,-364.6386 99.4267,-359.4661 98.2192,-366.3612"/>
</g>
<!-- Node551 -->
<g id="node41" class="node">
<title>Node551</title>
<g id="a_node41"><a xlink:href="univalue_8h.html#a33625d562f1ef5f44ceb171d5c8f2a85" target="_top" xlink:title="find_value">
<polygon fill="#ffffff" stroke="#000000" points="114.5,-323.5 114.5,-342.5 175.5,-342.5 175.5,-323.5 114.5,-323.5"/>
<text text-anchor="middle" x="145" y="-330.5" font-family="Helvetica,sans-Serif" font-size="10.00" fill="#000000">find_value</text>
</a>
</g>
</g>
<!-- Node511&#45;&gt;Node551 -->
<g id="edge43" class="edge">
<title>Node511&#45;&gt;Node551</title>
<path fill="none" stroke="#191970" d="M73.2332,-345.5675C83.2848,-343.8073 94.2352,-341.8897 104.4853,-340.0947"/>
<polygon fill="#191970" stroke="#191970" points="105.1964,-343.5236 114.4428,-338.351 103.9889,-336.6285 105.1964,-343.5236"/>
</g>
<!-- Node513 -->
<g id="node3" class="node">
<title>Node513</title>
<g id="a_node3"><a xlink:href="class_uni_value.html#a8abe13a4663ccfda54ae2440ed445c5a" target="_top" xlink:title="UniValue::isStr">
<polygon fill="#ffffff" stroke="#000000" points="225.5,-437.5 225.5,-456.5 308.5,-456.5 308.5,-437.5 225.5,-437.5"/>
<text text-anchor="middle" x="267" y="-444.5" font-family="Helvetica,sans-Serif" font-size="10.00" fill="#000000">UniValue::isStr</text>
</a>
</g>
</g>
<!-- Node512&#45;&gt;Node513 -->
<g id="edge2" class="edge">
<title>Node512&#45;&gt;Node513</title>
<path fill="none" stroke="#191970" d="M155.004,-380.5822C168.2837,-392.8928 192.8765,-414.3031 217,-428 220.4446,-429.9558 224.1295,-431.7873 227.879,-433.4817"/>
<polygon fill="#191970" stroke="#191970" points="226.6566,-436.7644 237.2322,-437.4037 229.3636,-430.3089 226.6566,-436.7644"/>
</g>
<!-- Node514 -->
<g id="node4" class="node">
<title>Node514</title>
<g id="a_node4"><a xlink:href="class_uni_value.html#a087ea6ccec615333371fa1aaf83ab7df" target="_top" xlink:title="UniValue::get_str">
<polygon fill="#ffffff" stroke="#000000" points="221,-399.5 221,-418.5 313,-418.5 313,-399.5 221,-399.5"/>
<text text-anchor="middle" x="267" y="-406.5" font-family="Helvetica,sans-Serif" font-size="10.00" fill="#000000">UniValue::get_str</text>
</a>
</g>
</g>
<!-- Node512&#45;&gt;Node514 -->
<g id="edge3" class="edge">
<title>Node512&#45;&gt;Node514</title>
<path fill="none" stroke="#191970" d="M175.7858,-380.589C191.1013,-385.3594 209.8166,-391.1888 226.2998,-396.3229"/>
<polygon fill="#191970" stroke="#191970" points="225.6356,-399.7818 236.2241,-399.4141 227.7174,-393.0985 225.6356,-399.7818"/>
</g>
<!-- Node516 -->
<g id="node6" class="node">
<title>Node516</title>
<g id="a_node6"><a xlink:href="utilstrencodings_8cpp.html#a9f23401f4b871ed693f7a96a9ba40c58" target="_top" xlink:title="IsHex">
<polygon fill="#ffffff" stroke="#000000" points="245.5,-361.5 245.5,-380.5 288.5,-380.5 288.5,-361.5 245.5,-361.5"/>
<text text-anchor="middle" x="267" y="-368.5" font-family="Helvetica,sans-Serif" font-size="10.00" fill="#000000">IsHex</text>
</a>
</g>
</g>
<!-- Node512&#45;&gt;Node516 -->
<g id="edge5" class="edge">
<title>Node512&#45;&gt;Node516</title>
<path fill="none" stroke="#191970" d="M181.2737,-371C198.3286,-371 218.4875,-371 234.9707,-371"/>
<polygon fill="#191970" stroke="#191970" points="235.2021,-374.5001 245.202,-371 235.202,-367.5001 235.2021,-374.5001"/>
</g>
<!-- Node518 -->
<g id="node8" class="node">
<title>Node518</title>
<g id="a_node8"><a xlink:href="rpc_2protocol_8cpp.html#a40b75d3d265c4a2e1d5fe3e129743884" target="_top" xlink:title="JSONRPCError">
<polygon fill="#ffffff" stroke="#000000" points="224,-323.5 224,-342.5 310,-342.5 310,-323.5 224,-323.5"/>
<text text-anchor="middle" x="267" y="-330.5" font-family="Helvetica,sans-Serif" font-size="10.00" fill="#000000">JSONRPCError</text>
</a>
</g>
</g>
<!-- Node512&#45;&gt;Node518 -->
<g id="edge7" class="edge">
<title>Node512&#45;&gt;Node518</title>
<path fill="none" stroke="#191970" d="M175.7858,-361.411C191.1013,-356.6406 209.8166,-350.8112 226.2998,-345.6771"/>
<polygon fill="#191970" stroke="#191970" points="227.7174,-348.9015 236.2241,-342.5859 225.6356,-342.2182 227.7174,-348.9015"/>
</g>
<!-- Node550 -->
<g id="node40" class="node">
<title>Node550</title>
<g id="a_node40"><a xlink:href="classbase__blob.html#a5ec1f681a2830f4e180fe664c0eb4dd0" target="_top" xlink:title="base_blob::SetHex">
<polygon fill="#ffffff" stroke="#000000" points="217,-285.5 217,-304.5 317,-304.5 317,-285.5 217,-285.5"/>
<text text-anchor="middle" x="267" y="-292.5" font-family="Helvetica,sans-Serif" font-size="10.00" fill="#000000">base_blob::SetHex</text>
</a>
</g>
</g>
<!-- Node512&#45;&gt;Node550 -->
<g id="edge42" class="edge">
<title>Node512&#45;&gt;Node550</title>
<path fill="none" stroke="#191970" d="M165.887,-361.4536C171.0305,-358.7107 176.3833,-355.5025 181,-352 199.5342,-337.9388 197.64,-326.9005 217,-314 219.8689,-312.0883 222.9572,-310.3315 226.141,-308.7249"/>
<polygon fill="#191970" stroke="#191970" points="227.5999,-311.9064 235.2635,-304.5907 224.7104,-305.5306 227.5999,-311.9064"/>
</g>
<!-- Node515 -->
<g id="node5" class="node">
<title>Node515</title>
<g id="a_node5"><a xlink:href="class_uni_value.html#a4c9a5fa9114affbf31f6e346c032be12" target="_top" xlink:title="UniValue::getValStr">
<polygon fill="#ffffff" stroke="#000000" points="356.5,-399.5 356.5,-418.5 459.5,-418.5 459.5,-399.5 356.5,-399.5"/>
<text text-anchor="middle" x="408" y="-406.5" font-family="Helvetica,sans-Serif" font-size="10.00" fill="#000000">UniValue::getValStr</text>
</a>
</g>
</g>
<!-- Node514&#45;&gt;Node515 -->
<g id="edge4" class="edge">
<title>Node514&#45;&gt;Node515</title>
<path fill="none" stroke="#191970" d="M313.1687,-409C323.7452,-409 335.1545,-409 346.2685,-409"/>
<polygon fill="#191970" stroke="#191970" points="346.3599,-412.5001 356.3599,-409 346.3599,-405.5001 346.3599,-412.5001"/>
</g>
<!-- Node517 -->
<g id="node7" class="node">
<title>Node517</title>
<g id="a_node7"><a xlink:href="utilstrencodings_8cpp.html#aa59e8a8c5a39cb5041f93bb95dd02119" target="_top" xlink:title="HexDigit">
<polygon fill="#ffffff" stroke="#000000" points="380.5,-361.5 380.5,-380.5 435.5,-380.5 435.5,-361.5 380.5,-361.5"/>
<text text-anchor="middle" x="408" y="-368.5" font-family="Helvetica,sans-Serif" font-size="10.00" fill="#000000">HexDigit</text>
</a>
</g>
</g>
<!-- Node516&#45;&gt;Node517 -->
<g id="edge6" class="edge">
<title>Node516&#45;&gt;Node517</title>
<path fill="none" stroke="#191970" d="M288.7222,-371C310.3807,-371 344.0861,-371 370.15,-371"/>
<polygon fill="#191970" stroke="#191970" points="370.4365,-374.5001 380.4365,-371 370.4364,-367.5001 370.4365,-374.5001"/>
</g>
<!-- Node519 -->
<g id="node9" class="node">
<title>Node519</title>
<g id="a_node9"><a xlink:href="util_8h.html#a96c5fc7111f69f7dcaba992d95d13e03" target="_top" xlink:title="error">
<polygon fill="#ffffff" stroke="#000000" points="390,-323.5 390,-342.5 426,-342.5 426,-323.5 390,-323.5"/>
<text text-anchor="middle" x="408" y="-330.5" font-family="Helvetica,sans-Serif" font-size="10.00" fill="#000000">error</text>
</a>
</g>
</g>
<!-- Node518&#45;&gt;Node519 -->
<g id="edge8" class="edge">
<title>Node518&#45;&gt;Node519</title>
<path fill="none" stroke="#191970" d="M310.0708,-333C332.6207,-333 359.6062,-333 379.534,-333"/>
<polygon fill="#191970" stroke="#191970" points="379.8059,-336.5001 389.8059,-333 379.8059,-329.5001 379.8059,-336.5001"/>
</g>
<!-- Node549 -->
<g id="node39" class="node">
<title>Node549</title>
<g id="a_node39"><a xlink:href="class_uni_value.html#a944cd1b59b040cd24c9f46b55a68d49a" target="_top" xlink:title="UniValue::push_back">
<polygon fill="#ffffff" stroke="#000000" points="353,-285.5 353,-304.5 463,-304.5 463,-285.5 353,-285.5"/>
<text text-anchor="middle" x="408" y="-292.5" font-family="Helvetica,sans-Serif" font-size="10.00" fill="#000000">UniValue::push_back</text>
</a>
</g>
</g>
<!-- Node518&#45;&gt;Node549 -->
<g id="edge41" class="edge">
<title>Node518&#45;&gt;Node549</title>
<path fill="none" stroke="#191970" d="M302.5803,-323.411C320.782,-318.5056 343.1384,-312.4804 362.5723,-307.2429"/>
<polygon fill="#191970" stroke="#191970" points="363.6864,-310.5676 372.4311,-304.5859 361.8648,-303.8088 363.6864,-310.5676"/>
</g>
<!-- Node520 -->
<g id="node10" class="node">
<title>Node520</title>
<g id="a_node10"><a xlink:href="util_8h.html#afd4c3002b2797c0560adddb6af3ca1da" target="_top" xlink:title="Send a string to the log output. ">
<polygon fill="#ffffff" stroke="#000000" points="528.5,-646.5 528.5,-665.5 593.5,-665.5 593.5,-646.5 528.5,-646.5"/>
<text text-anchor="middle" x="561" y="-653.5" font-family="Helvetica,sans-Serif" font-size="10.00" fill="#000000">LogPrintStr</text>
</a>
</g>
</g>
<!-- Node519&#45;&gt;Node520 -->
<g id="edge9" class="edge">
<title>Node519&#45;&gt;Node520</title>
<path fill="none" stroke="#191970" d="M426.1533,-334.4044C438.4725,-336.3667 454.0858,-341.0196 463,-352 543.4698,-451.1214 416.7955,-539.3124 499,-637 504.1477,-643.1172 511.2105,-647.3027 518.7297,-650.1574"/>
<polygon fill="#191970" stroke="#191970" points="517.8022,-653.5336 528.3885,-653.1068 519.8467,-646.8388 517.8022,-653.5336"/>
</g>
<!-- Node521 -->
<g id="node11" class="node">
<title>Node521</title>
<g id="a_node11"><a xlink:href="namespacetinyformat.html#a05144619d8b16e2b31b2594ca9c6bf1d" target="_top" xlink:title="Format list of arguments to the stream according to given format string. ">
<polygon fill="#ffffff" stroke="#000000" points="514,-608.5 514,-627.5 608,-627.5 608,-608.5 514,-608.5"/>
<text text-anchor="middle" x="561" y="-615.5" font-family="Helvetica,sans-Serif" font-size="10.00" fill="#000000">tinyformat::format</text>
</a>
</g>
</g>
<!-- Node519&#45;&gt;Node521 -->
<g id="edge10" class="edge">
<title>Node519&#45;&gt;Node521</title>
<path fill="none" stroke="#191970" d="M426.089,-334.4571C438.378,-336.4442 453.9815,-341.1052 463,-352 533.7402,-437.4575 426.7645,-514.8027 499,-599 500.7639,-601.056 502.744,-602.8933 504.884,-604.535"/>
<polygon fill="#191970" stroke="#191970" points="503.4459,-607.756 513.8121,-609.9453 507.0737,-601.7694 503.4459,-607.756"/>
</g>
<!-- Node530 -->
<g id="node20" class="node">
<title>Node530</title>
<g id="a_node20"><a xlink:href="util_8h.html#aaada8c5faa502eb0c33fc01294955db8" target="_top" xlink:title="PrintExceptionContinue">
<polygon fill="#ffffff" stroke="#000000" points="501.5,-570.5 501.5,-589.5 620.5,-589.5 620.5,-570.5 501.5,-570.5"/>
<text text-anchor="middle" x="561" y="-577.5" font-family="Helvetica,sans-Serif" font-size="10.00" fill="#000000">PrintExceptionContinue</text>
</a>
</g>
</g>
<!-- Node519&#45;&gt;Node530 -->
<g id="edge19" class="edge">
<title>Node519&#45;&gt;Node530</title>
<path fill="none" stroke="#191970" d="M426.0028,-334.5295C438.2511,-336.5506 453.8414,-341.2226 463,-352 524.0368,-423.8252 436.7067,-490.2618 499,-561 500.1765,-562.336 501.4442,-563.5794 502.7873,-564.7366"/>
<polygon fill="#191970" stroke="#191970" points="500.9605,-567.7271 511.1953,-570.4658 504.9022,-561.9424 500.9605,-567.7271"/>
</g>
<!-- Node531 -->
<g id="node21" class="node">
<title>Node531</title>
<g id="a_node21"><a xlink:href="util_8h.html#af0e69a29ba128b74030ad8a213f2037a" target="_top" xlink:title="FileCommit">
<polygon fill="#ffffff" stroke="#000000" points="527.5,-532.5 527.5,-551.5 594.5,-551.5 594.5,-532.5 527.5,-532.5"/>
<text text-anchor="middle" x="561" y="-539.5" font-family="Helvetica,sans-Serif" font-size="10.00" fill="#000000">FileCommit</text>
</a>
</g>
</g>
<!-- Node519&#45;&gt;Node531 -->
<g id="edge20" class="edge">
<title>Node519&#45;&gt;Node531</title>
<path fill="none" stroke="#191970" d="M426.1429,-334.6795C438.2943,-336.7728 453.7109,-341.4693 463,-352 514.3771,-410.2442 446.6042,-465.6704 499,-523 504.0649,-528.5418 510.6983,-532.4857 517.7393,-535.2881"/>
<polygon fill="#191970" stroke="#191970" points="516.8923,-538.6927 527.4842,-538.4449 519.0496,-532.0334 516.8923,-538.6927"/>
</g>
<!-- Node532 -->
<g id="node22" class="node">
<title>Node532</title>
<g id="a_node22"><a xlink:href="util_8h.html#acb8d6b822bc1bfa609bf43bbac1a0d44" target="_top" xlink:title="TruncateFile">
<polygon fill="#ffffff" stroke="#000000" points="525.5,-494.5 525.5,-513.5 596.5,-513.5 596.5,-494.5 525.5,-494.5"/>
<text text-anchor="middle" x="561" y="-501.5" font-family="Helvetica,sans-Serif" font-size="10.00" fill="#000000">TruncateFile</text>
</a>
</g>
</g>
<!-- Node519&#45;&gt;Node532 -->
<g id="edge21" class="edge">
<title>Node519&#45;&gt;Node532</title>
<path fill="none" stroke="#191970" d="M426.2187,-334.8948C438.2454,-337.0862 453.4843,-341.8114 463,-352 504.7988,-396.7547 456.4189,-440.989 499,-485 503.7335,-489.8925 509.6901,-493.5338 516.0278,-496.242"/>
<polygon fill="#191970" stroke="#191970" points="514.8931,-499.553 525.4879,-499.5792 517.2218,-492.9518 514.8931,-499.553"/>
</g>
<!-- Node533 -->
<g id="node23" class="node">
<title>Node533</title>
<g id="a_node23"><a xlink:href="util_8h.html#a756a5c49a4bb607d16d9842f8f3ede4f" target="_top" xlink:title="this function tries to raise the file descriptor limit to the requested number. ">
<polygon fill="#ffffff" stroke="#000000" points="499,-456.5 499,-475.5 623,-475.5 623,-456.5 499,-456.5"/>
<text text-anchor="middle" x="561" y="-463.5" font-family="Helvetica,sans-Serif" font-size="10.00" fill="#000000">RaiseFileDescriptorLimit</text>
</a>
</g>
</g>
<!-- Node519&#45;&gt;Node533 -->
<g id="edge22" class="edge">
<title>Node519&#45;&gt;Node533</title>
<path fill="none" stroke="#191970" d="M426.1672,-335.2503C438.0164,-337.5959 453.0697,-342.3595 463,-352 495.3965,-383.4513 466.0542,-416.1247 499,-447 500.6686,-448.5637 502.4627,-449.9989 504.3519,-451.3161"/>
<polygon fill="#191970" stroke="#191970" points="502.7353,-454.4237 513.1501,-456.3685 506.2212,-448.3534 502.7353,-454.4237"/>
</g>
<!-- Node534 -->
<g id="node24" class="node">
<title>Node534</title>
<g id="a_node24"><a xlink:href="util_8h.html#a91c763bffc49cf7ed8d45cc44870e55c" target="_top" xlink:title="this function tries to make a particular range of a file allocated (corresponding to disk space) it i...">
<polygon fill="#ffffff" stroke="#000000" points="513,-418.5 513,-437.5 609,-437.5 609,-418.5 513,-418.5"/>
<text text-anchor="middle" x="561" y="-425.5" font-family="Helvetica,sans-Serif" font-size="10.00" fill="#000000">AllocateFileRange</text>
</a>
</g>
</g>
<!-- Node519&#45;&gt;Node534 -->
<g id="edge23" class="edge">
<title>Node519&#45;&gt;Node534</title>
<path fill="none" stroke="#191970" d="M426.0822,-336.045C437.6001,-338.7098 452.3106,-343.5304 463,-352 486.4847,-370.6077 475.191,-390.8091 499,-409 501.4699,-410.8871 504.1281,-412.5881 506.9054,-414.1213"/>
<polygon fill="#191970" stroke="#191970" points="505.5596,-417.3564 516.0959,-418.4688 508.553,-411.0287 505.5596,-417.3564"/>
</g>
<!-- Node535 -->
<g id="node25" class="node">
<title>Node535</title>
<g id="a_node25"><a xlink:href="util_8h.html#a579657da2b55b131ecd453bf1b0d2314" target="_top" xlink:title="RenameOver">
<polygon fill="#ffffff" stroke="#000000" points="524,-380.5 524,-399.5 598,-399.5 598,-380.5 524,-380.5"/>
<text text-anchor="middle" x="561" y="-387.5" font-family="Helvetica,sans-Serif" font-size="10.00" fill="#000000">RenameOver</text>
</a>
</g>
</g>
<!-- Node519&#45;&gt;Node535 -->
<g id="edge24" class="edge">
<title>Node519&#45;&gt;Node535</title>
<path fill="none" stroke="#191970" d="M426.0988,-338.4806C436.9561,-341.9577 450.9508,-346.7756 463,-352 479.5986,-359.1969 482.2771,-364.0968 499,-371 504.4665,-373.2566 510.3002,-375.3871 516.1202,-377.3483"/>
<polygon fill="#191970" stroke="#191970" points="515.2431,-380.7429 525.8347,-380.4813 517.3917,-374.0807 515.2431,-380.7429"/>
</g>
<!-- Node536 -->
<g id="node26" class="node">
<title>Node536</title>
<g id="a_node26"><a xlink:href="util_8h.html#a9042a919d837da9d97311a0c460c597c" target="_top" xlink:title="Ignores exceptions thrown by Boost&#39;s create_directories if the requested directory exists...">
<polygon fill="#ffffff" stroke="#000000" points="507.5,-342.5 507.5,-361.5 614.5,-361.5 614.5,-342.5 507.5,-342.5"/>
<text text-anchor="middle" x="561" y="-349.5" font-family="Helvetica,sans-Serif" font-size="10.00" fill="#000000">TryCreateDirectories</text>
</a>
</g>
</g>
<!-- Node519&#45;&gt;Node536 -->
<g id="edge25" class="edge">
<title>Node519&#45;&gt;Node536</title>
<path fill="none" stroke="#191970" d="M426.1519,-335.2542C443.7618,-337.441 471.5274,-340.889 497.2986,-344.0894"/>
<polygon fill="#191970" stroke="#191970" points="497.0725,-347.5881 507.4276,-345.3472 497.9352,-340.6414 497.0725,-347.5881"/>
</g>
<!-- Node537 -->
<g id="node27" class="node">
<title>Node537</title>
<g id="a_node27"><a xlink:href="util_8h.html#a15cb85964fe08c264605537f44570d3c" target="_top" xlink:title="GetDefaultDataDir">
<polygon fill="#ffffff" stroke="#000000" points="512,-304.5 512,-323.5 610,-323.5 610,-304.5 512,-304.5"/>
<text text-anchor="middle" x="561" y="-311.5" font-family="Helvetica,sans-Serif" font-size="10.00" fill="#000000">GetDefaultDataDir</text>
</a>
</g>
</g>
<!-- Node519&#45;&gt;Node537 -->
<g id="edge26" class="edge">
<title>Node519&#45;&gt;Node537</title>
<path fill="none" stroke="#191970" d="M426.1519,-330.7458C444.7522,-328.436 474.6826,-324.7191 501.6256,-321.3733"/>
<polygon fill="#191970" stroke="#191970" points="502.2833,-324.8186 511.7757,-320.1128 501.4205,-317.872 502.2833,-324.8186"/>
</g>
<!-- Node538 -->
<g id="node28" class="node">
<title>Node538</title>
<g id="a_node28"><a xlink:href="util_8h.html#abb63dfb710832aefb746933af05198d4" target="_top" xlink:title="GetDataDir">
<polygon fill="#ffffff" stroke="#000000" points="528,-266.5 528,-285.5 594,-285.5 594,-266.5 528,-266.5"/>
<text text-anchor="middle" x="561" y="-273.5" font-family="Helvetica,sans-Serif" font-size="10.00" fill="#000000">GetDataDir</text>
</a>
</g>
</g>
<!-- Node519&#45;&gt;Node538 -->
<g id="edge27" class="edge">
<title>Node519&#45;&gt;Node538</title>
<path fill="none" stroke="#191970" d="M426.0988,-327.5194C436.9561,-324.0423 450.9508,-319.2244 463,-314 479.5986,-306.8031 482.2771,-301.9032 499,-295 505.0096,-292.5192 511.4629,-290.1908 517.854,-288.0723"/>
<polygon fill="#191970" stroke="#191970" points="519.3005,-291.2853 527.7731,-284.9242 517.1829,-284.6133 519.3005,-291.2853"/>
</g>
<!-- Node539 -->
<g id="node29" class="node">
<title>Node539</title>
<g id="a_node29"><a xlink:href="util_8h.html#abfb50dfe077aced7591f2aba601f605d" target="_top" xlink:title="ClearDatadirCache">
<polygon fill="#ffffff" stroke="#000000" points="511,-228.5 511,-247.5 611,-247.5 611,-228.5 511,-228.5"/>
<text text-anchor="middle" x="561" y="-235.5" font-family="Helvetica,sans-Serif" font-size="10.00" fill="#000000">ClearDatadirCache</text>
</a>
</g>
</g>
<!-- Node519&#45;&gt;Node539 -->
<g id="edge28" class="edge">
<title>Node519&#45;&gt;Node539</title>
<path fill="none" stroke="#191970" d="M426.0822,-329.955C437.6001,-327.2902 452.3106,-322.4696 463,-314 486.4847,-295.3923 475.191,-275.1909 499,-257 501.4699,-255.1129 504.1281,-253.4119 506.9054,-251.8787"/>
<polygon fill="#191970" stroke="#191970" points="508.553,-254.9713 516.0959,-247.5312 505.5596,-248.6436 508.553,-254.9713"/>
</g>
<!-- Node540 -->
<g id="node30" class="node">
<title>Node540</title>
<g id="a_node30"><a xlink:href="util_8h.html#aa634f312705d4811dfa2a5392bddf6cf" target="_top" xlink:title="GetConfigFile">
<polygon fill="#ffffff" stroke="#000000" points="522.5,-152.5 522.5,-171.5 599.5,-171.5 599.5,-152.5 522.5,-152.5"/>
<text text-anchor="middle" x="561" y="-159.5" font-family="Helvetica,sans-Serif" font-size="10.00" fill="#000000">GetConfigFile</text>
</a>
</g>
</g>
<!-- Node519&#45;&gt;Node540 -->
<g id="edge29" class="edge">
<title>Node519&#45;&gt;Node540</title>
<path fill="none" stroke="#191970" d="M426.2187,-331.1052C438.2454,-328.9138 453.4843,-324.1886 463,-314 504.7988,-269.2453 456.4189,-225.011 499,-181 502.914,-176.9545 507.6643,-173.7645 512.7747,-171.2501"/>
<polygon fill="#191970" stroke="#191970" points="514.3009,-174.4084 522.2599,-167.4151 511.677,-167.9188 514.3009,-174.4084"/>
</g>
<!-- Node542 -->
<g id="node32" class="node">
<title>Node542</title>
<g id="a_node32"><a xlink:href="util_8h.html#aa0172eabeecce5061826cb19990fbde2" target="_top" xlink:title="GetPidFile">
<polygon fill="#ffffff" stroke="#000000" points="530,-190.5 530,-209.5 592,-209.5 592,-190.5 530,-190.5"/>
<text text-anchor="middle" x="561" y="-197.5" font-family="Helvetica,sans-Serif" font-size="10.00" fill="#000000">GetPidFile</text>
</a>
</g>
</g>
<!-- Node519&#45;&gt;Node542 -->
<g id="edge31" class="edge">
<title>Node519&#45;&gt;Node542</title>
<path fill="none" stroke="#191970" d="M426.1672,-330.7497C438.0164,-328.4041 453.0697,-323.6405 463,-314 495.3965,-282.5487 466.0542,-249.8753 499,-219 504.8914,-213.4789 512.3478,-209.5601 520.0301,-206.7791"/>
<polygon fill="#191970" stroke="#191970" points="521.2223,-210.0751 529.7809,-203.8301 519.1959,-203.3749 521.2223,-210.0751"/>
</g>
<!-- Node544 -->
<g id="node34" class="node">
<title>Node544</title>
<g id="a_node34"><a xlink:href="util_8h.html#a1c0f9b041628dcb399a023bc9913f41d" target="_top" xlink:title="CreatePidFile">
<polygon fill="#ffffff" stroke="#000000" points="523,-38.5 523,-57.5 599,-57.5 599,-38.5 523,-38.5"/>
<text text-anchor="middle" x="561" y="-45.5" font-family="Helvetica,sans-Serif" font-size="10.00" fill="#000000">CreatePidFile</text>
</a>
</g>
</g>
<!-- Node519&#45;&gt;Node544 -->
<g id="edge34" class="edge">
<title>Node519&#45;&gt;Node544</title>
<path fill="none" stroke="#191970" d="M426.089,-331.5429C438.378,-329.5558 453.9815,-324.8948 463,-314 533.7402,-228.5425 426.7645,-151.1973 499,-67 502.9447,-62.4021 507.9706,-58.8976 513.4488,-56.2301"/>
<polygon fill="#191970" stroke="#191970" points="514.9554,-59.3987 522.9841,-52.4857 512.3968,-52.8831 514.9554,-59.3987"/>
</g>
<!-- Node546 -->
<g id="node36" class="node">
<title>Node546</title>
<g id="a_node36"><a xlink:href="util_8h.html#a1e755e72104d3ca393efc1cc3f41952a" target="_top" xlink:title="OpenDebugLog">
<polygon fill="#ffffff" stroke="#000000" points="519,-76.5 519,-95.5 603,-95.5 603,-76.5 519,-76.5"/>
<text text-anchor="middle" x="561" y="-83.5" font-family="Helvetica,sans-Serif" font-size="10.00" fill="#000000">OpenDebugLog</text>
</a>
</g>
</g>
<!-- Node519&#45;&gt;Node546 -->
<g id="edge36" class="edge">
<title>Node519&#45;&gt;Node546</title>
<path fill="none" stroke="#191970" d="M426.0028,-331.4705C438.2511,-329.4494 453.8414,-324.7774 463,-314 524.0368,-242.1748 436.7067,-175.7382 499,-105 502.054,-101.532 505.7226,-98.6876 509.7302,-96.3561"/>
<polygon fill="#191970" stroke="#191970" points="511.3767,-99.4495 518.938,-92.028 508.399,-93.1145 511.3767,-99.4495"/>
</g>
<!-- Node547 -->
<g id="node37" class="node">
<title>Node547</title>
<g id="a_node37"><a xlink:href="util_8h.html#a37fca7e305fe0caa306b23fdb37f88e2" target="_top" xlink:title="ShrinkDebugFile">
<polygon fill="#ffffff" stroke="#000000" points="516.5,-114.5 516.5,-133.5 605.5,-133.5 605.5,-114.5 516.5,-114.5"/>
<text text-anchor="middle" x="561" y="-121.5" font-family="Helvetica,sans-Serif" font-size="10.00" fill="#000000">ShrinkDebugFile</text>
</a>
</g>
</g>
<!-- Node519&#45;&gt;Node547 -->
<g id="edge37" class="edge">
<title>Node519&#45;&gt;Node547</title>
<path fill="none" stroke="#191970" d="M426.1429,-331.3205C438.2943,-329.2272 453.7109,-324.5307 463,-314 514.3771,-255.7558 446.6042,-200.3296 499,-143 501.428,-140.3434 504.2165,-138.0539 507.2375,-136.0814"/>
<polygon fill="#191970" stroke="#191970" points="509.0502,-139.0824 516.261,-131.3199 505.7833,-132.8914 509.0502,-139.0824"/>
</g>
<!-- Node548 -->
<g id="node38" class="node">
<title>Node548</title>
<g id="a_node38"><a xlink:href="util_8h.html#aa803aa631ab8b4bd79fa9d7b2172bf9a" target="_top" xlink:title="runCommand">
<polygon fill="#ffffff" stroke="#000000" points="523.5,-.5 523.5,-19.5 598.5,-19.5 598.5,-.5 523.5,-.5"/>
<text text-anchor="middle" x="561" y="-7.5" font-family="Helvetica,sans-Serif" font-size="10.00" fill="#000000">runCommand</text>
</a>
</g>
</g>
<!-- Node519&#45;&gt;Node548 -->
<g id="edge40" class="edge">
<title>Node519&#45;&gt;Node548</title>
<path fill="none" stroke="#191970" d="M426.1533,-331.5956C438.4725,-329.6333 454.0858,-324.9804 463,-314 543.4698,-214.8786 416.7955,-126.6876 499,-29 502.9471,-24.3095 508.0202,-20.7547 513.5617,-18.0648"/>
<polygon fill="#191970" stroke="#191970" points="515.1653,-21.1964 523.2138,-14.3064 512.6253,-14.6735 515.1653,-21.1964"/>
</g>
<!-- Node522 -->
<g id="node12" class="node">
<title>Node522</title>
<g id="a_node12"><a xlink:href="namespacetinyformat.html#a86ed74eb3ed66a662e96220d877da964" target="_top" xlink:title="Format list of arguments to the stream according to the given format string. ">
<polygon fill="#ffffff" stroke="#000000" points="678,-589.5 678,-608.5 777,-608.5 777,-589.5 678,-589.5"/>
<text text-anchor="middle" x="727.5" y="-596.5" font-family="Helvetica,sans-Serif" font-size="10.00" fill="#000000">tinyformat::vformat</text>
</a>
</g>
</g>
<!-- Node521&#45;&gt;Node522 -->
<g id="edge11" class="edge">
<title>Node521&#45;&gt;Node522</title>
<path fill="none" stroke="#191970" d="M608.2669,-612.6062C626.7697,-610.4948 648.209,-608.0482 667.7631,-605.8168"/>
<polygon fill="#191970" stroke="#191970" points="668.2525,-609.2838 677.7912,-604.6725 667.4588,-602.3289 668.2525,-609.2838"/>
</g>
<!-- Node529 -->
<g id="node19" class="node">
<title>Node529</title>
<g id="a_node19"><a xlink:href="namespacetinyformat.html#a37afaa5249c69dacd619269358f06f69" target="_top" xlink:title="Make type&#45;agnostic format list from list of template arguments. ">
<polygon fill="#ffffff" stroke="#000000" points="659,-627.5 659,-646.5 796,-646.5 796,-627.5 659,-627.5"/>
<text text-anchor="middle" x="727.5" y="-634.5" font-family="Helvetica,sans-Serif" font-size="10.00" fill="#000000">tinyformat::makeFormatList</text>
</a>
</g>
</g>
<!-- Node521&#45;&gt;Node529 -->
<g id="edge18" class="edge">
<title>Node521&#45;&gt;Node529</title>
<path fill="none" stroke="#191970" d="M608.2669,-623.3938C620.9546,-624.8417 635.0231,-626.4471 648.9177,-628.0327"/>
<polygon fill="#191970" stroke="#191970" points="648.6498,-631.5247 658.9822,-629.1811 649.4435,-624.5698 648.6498,-631.5247"/>
</g>
<!-- Node523 -->
<g id="node13" class="node">
<title>Node523</title>
<g id="a_node13"><a xlink:href="namespacetinyformat_1_1detail.html#a079a316938c0e8693efbeb0183b1390d" target="_top" xlink:title="tinyformat::detail\l::formatImpl">
<polygon fill="#ffffff" stroke="#000000" points="832,-584 832,-614 921,-614 921,-584 832,-584"/>
<text text-anchor="start" x="840" y="-602" font-family="Helvetica,sans-Serif" font-size="10.00" fill="#000000">tinyformat::detail</text>
<text text-anchor="middle" x="876.5" y="-591" font-family="Helvetica,sans-Serif" font-size="10.00" fill="#000000">::formatImpl</text>
</a>
</g>
</g>
<!-- Node522&#45;&gt;Node523 -->
<g id="edge12" class="edge">
<title>Node522&#45;&gt;Node523</title>
<path fill="none" stroke="#191970" d="M777.1148,-599C791.2842,-599 806.8105,-599 821.2923,-599"/>
<polygon fill="#191970" stroke="#191970" points="821.6183,-602.5001 831.6183,-599 821.6183,-595.5001 821.6183,-602.5001"/>
</g>
<!-- Node524 -->
<g id="node14" class="node">
<title>Node524</title>
<g id="a_node14"><a xlink:href="namespacetinyformat_1_1detail.html#ad3d636b9f85202b515c8940b7fcb62a6" target="_top" xlink:title="tinyformat::detail\l::printFormatStringLiteral">
<polygon fill="#ffffff" stroke="#000000" points="959.5,-633 959.5,-663 1083.5,-663 1083.5,-633 959.5,-633"/>
<text text-anchor="start" x="967.5" y="-651" font-family="Helvetica,sans-Serif" font-size="10.00" fill="#000000">tinyformat::detail</text>
<text text-anchor="middle" x="1021.5" y="-640" font-family="Helvetica,sans-Serif" font-size="10.00" fill="#000000">::printFormatStringLiteral</text>
</a>
</g>
</g>
<!-- Node523&#45;&gt;Node524 -->
<g id="edge13" class="edge">
<title>Node523&#45;&gt;Node524</title>
<path fill="none" stroke="#191970" d="M921.1879,-614.1014C935.659,-618.9917 951.8725,-624.4707 966.9752,-629.5744"/>
<polygon fill="#191970" stroke="#191970" points="966.1158,-632.9783 976.71,-632.8641 968.3569,-626.3468 966.1158,-632.9783"/>
</g>
<!-- Node525 -->
<g id="node15" class="node">
<title>Node525</title>
<g id="a_node15"><a xlink:href="namespacetinyformat_1_1detail.html#a681e8ceb825485cc5e3b057c11e4b1b5" target="_top" xlink:title="tinyformat::detail\l::streamStateFromFormat">
<polygon fill="#ffffff" stroke="#000000" points="957,-584 957,-614 1086,-614 1086,-584 957,-584"/>
<text text-anchor="start" x="965" y="-602" font-family="Helvetica,sans-Serif" font-size="10.00" fill="#000000">tinyformat::detail</text>
<text text-anchor="middle" x="1021.5" y="-591" font-family="Helvetica,sans-Serif" font-size="10.00" fill="#000000">::streamStateFromFormat</text>
</a>
</g>
</g>
<!-- Node523&#45;&gt;Node525 -->
<g id="edge14" class="edge">
<title>Node523&#45;&gt;Node525</title>
<path fill="none" stroke="#191970" d="M921.1879,-599C929.3219,-599 938.0064,-599 946.7346,-599"/>
<polygon fill="#191970" stroke="#191970" points="946.9707,-602.5001 956.9707,-599 946.9706,-595.5001 946.9707,-602.5001"/>
</g>
<!-- Node528 -->
<g id="node18" class="node">
<title>Node528</title>
<g id="a_node18"><a xlink:href="classtinyformat_1_1detail_1_1_format_arg.html#acbf435711bbe4a4da7fc81758d7108a9" target="_top" xlink:title="tinyformat::detail\l::FormatArg::format">
<polygon fill="#ffffff" stroke="#000000" points="970.5,-535 970.5,-565 1072.5,-565 1072.5,-535 970.5,-535"/>
<text text-anchor="start" x="978.5" y="-553" font-family="Helvetica,sans-Serif" font-size="10.00" fill="#000000">tinyformat::detail</text>
<text text-anchor="middle" x="1021.5" y="-542" font-family="Helvetica,sans-Serif" font-size="10.00" fill="#000000">::FormatArg::format</text>
</a>
</g>
</g>
<!-- Node523&#45;&gt;Node528 -->
<g id="edge17" class="edge">
<title>Node523&#45;&gt;Node528</title>
<path fill="none" stroke="#191970" d="M921.1879,-583.8986C935.659,-579.0083 951.8725,-573.5293 966.9752,-568.4256"/>
<polygon fill="#191970" stroke="#191970" points="968.3569,-571.6532 976.71,-565.1359 966.1158,-565.0217 968.3569,-571.6532"/>
</g>
<!-- Node526 -->
<g id="node16" class="node">
<title>Node526</title>
<g id="a_node16"><a xlink:href="namespacetinyformat_1_1detail.html#a67285e0adb9f4164f9fc30a3eb11c771" target="_top" xlink:title="tinyformat::detail\l::parseIntAndAdvance">
<polygon fill="#ffffff" stroke="#000000" points="1122,-608 1122,-638 1235,-638 1235,-608 1122,-608"/>
<text text-anchor="start" x="1130" y="-626" font-family="Helvetica,sans-Serif" font-size="10.00" fill="#000000">tinyformat::detail</text>
<text text-anchor="middle" x="1178.5" y="-615" font-family="Helvetica,sans-Serif" font-size="10.00" fill="#000000">::parseIntAndAdvance</text>
</a>
</g>
</g>
<!-- Node525&#45;&gt;Node526 -->
<g id="edge15" class="edge">
<title>Node525&#45;&gt;Node526</title>
<path fill="none" stroke="#191970" d="M1086.2643,-608.9003C1094.7639,-610.1996 1103.4852,-611.5328 1112.0128,-612.8363"/>
<polygon fill="#191970" stroke="#191970" points="1111.4954,-616.2978 1121.9095,-614.3492 1112.5533,-609.3782 1111.4954,-616.2978"/>
</g>
<!-- Node527 -->
<g id="node17" class="node">
<title>Node527</title>
<g id="a_node17"><a xlink:href="classtinyformat_1_1detail_1_1_format_arg.html#a91b69f66ce9dc8ca2914dce8985d7a1a" target="_top" xlink:title="tinyformat::detail\l::FormatArg::toInt">
<polygon fill="#ffffff" stroke="#000000" points="1131.5,-559 1131.5,-589 1225.5,-589 1225.5,-559 1131.5,-559"/>
<text text-anchor="start" x="1139.5" y="-577" font-family="Helvetica,sans-Serif" font-size="10.00" fill="#000000">tinyformat::detail</text>
<text text-anchor="middle" x="1178.5" y="-566" font-family="Helvetica,sans-Serif" font-size="10.00" fill="#000000">::FormatArg::toInt</text>
</a>
</g>
</g>
<!-- Node525&#45;&gt;Node527 -->
<g id="edge16" class="edge">
<title>Node525&#45;&gt;Node527</title>
<path fill="none" stroke="#191970" d="M1086.2643,-588.6872C1097.7757,-586.8542 1109.6938,-584.9564 1120.9865,-583.1582"/>
<polygon fill="#191970" stroke="#191970" points="1121.8268,-586.5686 1131.152,-581.5395 1120.726,-579.6557 1121.8268,-586.5686"/>
</g>
<!-- Node541 -->
<g id="node31" class="node">
<title>Node541</title>
<g id="a_node31"><a xlink:href="util_8cpp.html#a7ebe0bd091f7334aaead43904601e008" target="_top" xlink:title="GetDataDir">
<polygon fill="#ffffff" stroke="#000000" points="694.5,-152.5 694.5,-171.5 760.5,-171.5 760.5,-152.5 694.5,-152.5"/>
<text text-anchor="middle" x="727.5" y="-159.5" font-family="Helvetica,sans-Serif" font-size="10.00" fill="#000000">GetDataDir</text>
</a>
</g>
</g>
<!-- Node540&#45;&gt;Node541 -->
<g id="edge30" class="edge">
<title>Node540&#45;&gt;Node541</title>
<path fill="none" stroke="#191970" d="M599.6169,-162C624.9746,-162 658.1762,-162 684.3939,-162"/>
<polygon fill="#191970" stroke="#191970" points="684.4308,-165.5001 694.4308,-162 684.4308,-158.5001 684.4308,-165.5001"/>
</g>
<!-- Node542&#45;&gt;Node541 -->
<g id="edge33" class="edge">
<title>Node542&#45;&gt;Node541</title>
<path fill="none" stroke="#191970" d="M592.3174,-192.8525C618.3555,-186.9098 655.6789,-178.3916 684.5137,-171.8107"/>
<polygon fill="#191970" stroke="#191970" points="685.3559,-175.2085 694.3265,-169.5711 683.7983,-168.384 685.3559,-175.2085"/>
</g>
<!-- Node543 -->
<g id="node33" class="node">
<title>Node543</title>
<g id="a_node33"><a xlink:href="class_args_manager.html#adb5d644d273b3a259f792affcdca8283" target="_top" xlink:title="Return string argument or default value. ">
<polygon fill="#ffffff" stroke="#000000" points="672,-190.5 672,-209.5 783,-209.5 783,-190.5 672,-190.5"/>
<text text-anchor="middle" x="727.5" y="-197.5" font-family="Helvetica,sans-Serif" font-size="10.00" fill="#000000">ArgsManager::GetArg</text>
</a>
</g>
</g>
<!-- Node542&#45;&gt;Node543 -->
<g id="edge32" class="edge">
<title>Node542&#45;&gt;Node543</title>
<path fill="none" stroke="#191970" d="M592.3174,-200C611.8523,-200 637.7394,-200 661.6282,-200"/>
<polygon fill="#191970" stroke="#191970" points="661.7197,-203.5001 671.7197,-200 661.7196,-196.5001 661.7197,-203.5001"/>
</g>
<!-- Node545 -->
<g id="node35" class="node">
<title>Node545</title>
<g id="a_node35"><a xlink:href="namespacefsbridge.html#a19c84cec4ae9accfbc88a83e48f7ee92" target="_top" xlink:title="fsbridge::fopen">
<polygon fill="#ffffff" stroke="#000000" points="687,-76.5 687,-95.5 768,-95.5 768,-76.5 687,-76.5"/>
<text text-anchor="middle" x="727.5" y="-83.5" font-family="Helvetica,sans-Serif" font-size="10.00" fill="#000000">fsbridge::fopen</text>
</a>
</g>
</g>
<!-- Node544&#45;&gt;Node545 -->
<g id="edge35" class="edge">
<title>Node544&#45;&gt;Node545</title>
<path fill="none" stroke="#191970" d="M599.1985,-56.718C622.2349,-61.9755 651.8575,-68.7362 676.8339,-74.4366"/>
<polygon fill="#191970" stroke="#191970" points="676.3354,-77.9127 686.8635,-76.7256 677.893,-71.0882 676.3354,-77.9127"/>
</g>
<!-- Node547&#45;&gt;Node541 -->
<g id="edge38" class="edge">
<title>Node547&#45;&gt;Node541</title>
<path fill="none" stroke="#191970" d="M603.015,-133.589C627.9082,-139.2703 659.3821,-146.4536 684.4539,-152.1757"/>
<polygon fill="#191970" stroke="#191970" points="683.8902,-155.6369 694.4183,-154.4498 685.4478,-148.8124 683.8902,-155.6369"/>
</g>
<!-- Node547&#45;&gt;Node545 -->
<g id="edge39" class="edge">
<title>Node547&#45;&gt;Node545</title>
<path fill="none" stroke="#191970" d="M603.015,-114.411C625.5216,-109.2744 653.4076,-102.91 677.0776,-97.5078"/>
<polygon fill="#191970" stroke="#191970" points="677.9654,-100.8953 686.9359,-95.2579 676.4078,-94.0708 677.9654,-100.8953"/>
</g>
</g>
</svg>
