<?xml version="1.0" encoding="UTF-8" standalone="no"?>
<!DOCTYPE svg PUBLIC "-//W3C//DTD SVG 1.1//EN"
 "http://www.w3.org/Graphics/SVG/1.1/DTD/svg11.dtd">
<!-- Generated by graphviz version 2.40.1 (20161225.0304)
 -->
<!-- Title: sph_cubehash512_addbits_and_close Pages: 1 -->
<svg width="928pt" height="388pt"
 viewBox="0.00 0.00 928.00 388.32" xmlns="http://www.w3.org/2000/svg" xmlns:xlink="http://www.w3.org/1999/xlink">
<g id="graph0" class="graph" transform="scale(1 1) rotate(0) translate(4 384.3184)">
<title>sph_cubehash512_addbits_and_close</title>
<polygon fill="#ffffff" stroke="transparent" points="-4,4 -4,-384.3184 924,-384.3184 924,4 -4,4"/>
<!-- Node50 -->
<g id="node1" class="node">
<title>Node50</title>
<polygon fill="#bfbfbf" stroke="#000000" points="0,-178 0,-208 132,-208 132,-178 0,-178"/>
<text text-anchor="start" x="8" y="-196" font-family="Helvetica,sans-Serif" font-size="10.00" fill="#000000">sph_cubehash512_addbits</text>
<text text-anchor="middle" x="66" y="-185" font-family="Helvetica,sans-Serif" font-size="10.00" fill="#000000">_and_close</text>
</g>
<!-- Node51 -->
<g id="node2" class="node">
<title>Node51</title>
<g id="a_node2"><a xlink:href="sph__cubehash_8h.html#a8450930057421f35b61795e8101e44d1" target="_top" xlink:title="Terminate the current CubeHash&#45;512 computation and output the result into the provided buffer...">
<polygon fill="#ffffff" stroke="#000000" points="168,-183.5 168,-202.5 292,-202.5 292,-183.5 168,-183.5"/>
<text text-anchor="middle" x="230" y="-190.5" font-family="Helvetica,sans-Serif" font-size="10.00" fill="#000000">sph_cubehash512_close</text>
</a>
</g>
</g>
<!-- Node50&#45;&gt;Node51 -->
<g id="edge1" class="edge">
<title>Node50&#45;&gt;Node51</title>
<path fill="none" stroke="#191970" d="M142.4963,-193C150.9628,-193 159.5079,-193 167.7684,-193"/>
<polygon fill="#191970" stroke="#191970" points="142.2324,-189.5001 132.2324,-193 142.2323,-196.5001 142.2324,-189.5001"/>
</g>
<!-- Node52 -->
<g id="node3" class="node">
<title>Node52</title>
<g id="a_node3"><a xlink:href="hash_8h.html#ae235360a54ec41155191de749170ab61" target="_top" xlink:title="HashX16R">
<polygon fill="#ffffff" stroke="#000000" points="328,-183.5 328,-202.5 393,-202.5 393,-183.5 328,-183.5"/>
<text text-anchor="middle" x="360.5" y="-190.5" font-family="Helvetica,sans-Serif" font-size="10.00" fill="#000000">HashX16R</text>
</a>
</g>
</g>
<!-- Node51&#45;&gt;Node52 -->
<g id="edge2" class="edge">
<title>Node51&#45;&gt;Node52</title>
<path fill="none" stroke="#191970" d="M302.3131,-193C311.242,-193 319.9925,-193 327.885,-193"/>
<polygon fill="#191970" stroke="#191970" points="302.1924,-189.5001 292.1924,-193 302.1924,-196.5001 302.1924,-189.5001"/>
</g>
<!-- Node53 -->
<g id="node4" class="node">
<title>Node53</title>
<g id="a_node4"><a xlink:href="class_c_block_header.html#af0239f86a13f622a826e9eea66b2d7f3" target="_top" xlink:title="CBlockHeader::GetHash">
<polygon fill="#ffffff" stroke="#000000" points="429,-183.5 429,-202.5 554,-202.5 554,-183.5 429,-183.5"/>
<text text-anchor="middle" x="491.5" y="-190.5" font-family="Helvetica,sans-Serif" font-size="10.00" fill="#000000">CBlockHeader::GetHash</text>
</a>
</g>
</g>
<!-- Node52&#45;&gt;Node53 -->
<g id="edge3" class="edge">
<title>Node52&#45;&gt;Node53</title>
<path fill="none" stroke="#191970" d="M403.2515,-193C411.4365,-193 420.1627,-193 428.8229,-193"/>
<polygon fill="#191970" stroke="#191970" points="403.2189,-189.5001 393.2189,-193 403.2189,-196.5001 403.2189,-189.5001"/>
</g>
<!-- Node54 -->
<g id="node5" class="node">
<title>Node54</title>
<g id="a_node5"><a xlink:href="class_partially_downloaded_block.html#ae31ee4302e77d9757aae8b96df99486a" target="_top" xlink:title="PartiallyDownloadedBlock\l::FillBlock">
<polygon fill="#ffffff" stroke="#000000" points="789,-331 789,-361 920,-361 920,-331 789,-331"/>
<text text-anchor="start" x="797" y="-349" font-family="Helvetica,sans-Serif" font-size="10.00" fill="#000000">PartiallyDownloadedBlock</text>
<text text-anchor="middle" x="854.5" y="-338" font-family="Helvetica,sans-Serif" font-size="10.00" fill="#000000">::FillBlock</text>
</a>
</g>
</g>
<!-- Node53&#45;&gt;Node54 -->
<g id="edge4" class="edge">
<title>Node53&#45;&gt;Node54</title>
<path fill="none" stroke="#191970" d="M496.4644,-212.6654C506.8084,-248.9471 534.4651,-325.5731 590,-357 659.1988,-396.1592 755.663,-377.3688 810.94,-361.0681"/>
<polygon fill="#191970" stroke="#191970" points="499.7851,-211.5368 493.7983,-202.7955 493.0273,-213.3623 499.7851,-211.5368"/>
</g>
<!-- Node55 -->
<g id="node6" class="node">
<title>Node55</title>
<g id="a_node6"><a xlink:href="class_c_disk_block_index.html#acc607a9082c558d7301077631b66122b" target="_top" xlink:title="CDiskBlockIndex::GetBlockHash">
<polygon fill="#ffffff" stroke="#000000" points="590,-328.5 590,-347.5 753,-347.5 753,-328.5 590,-328.5"/>
<text text-anchor="middle" x="671.5" y="-335.5" font-family="Helvetica,sans-Serif" font-size="10.00" fill="#000000">CDiskBlockIndex::GetBlockHash</text>
</a>
</g>
</g>
<!-- Node53&#45;&gt;Node55 -->
<g id="edge5" class="edge">
<title>Node53&#45;&gt;Node55</title>
<path fill="none" stroke="#191970" d="M500.8322,-211.8258C515.6991,-239.7747 547.4784,-291.8551 590,-319 596.1231,-322.9088 602.9633,-326.0156 610.007,-328.4844"/>
<polygon fill="#191970" stroke="#191970" points="503.826,-209.9949 496.1316,-202.7116 497.6047,-213.2035 503.826,-209.9949"/>
</g>
<!-- Node56 -->
<g id="node7" class="node">
<title>Node56</title>
<g id="a_node7"><a xlink:href="class_peer_logic_validation.html#a124965d7310e0df08cc027d4e1cbbe7b" target="_top" xlink:title="Notifies listeners of a block validation result. ">
<polygon fill="#ffffff" stroke="#000000" points="620,-279 620,-309 723,-309 723,-279 620,-279"/>
<text text-anchor="start" x="628" y="-297" font-family="Helvetica,sans-Serif" font-size="10.00" fill="#000000">PeerLogicValidation</text>
<text text-anchor="middle" x="671.5" y="-286" font-family="Helvetica,sans-Serif" font-size="10.00" fill="#000000">::BlockChecked</text>
</a>
</g>
</g>
<!-- Node53&#45;&gt;Node56 -->
<g id="edge6" class="edge">
<title>Node53&#45;&gt;Node56</title>
<path fill="none" stroke="#191970" d="M508.709,-209.431C527.3878,-226.4697 558.7499,-252.8339 590,-269 599.3331,-273.8281 609.7582,-277.9012 619.9517,-281.2665"/>
<polygon fill="#191970" stroke="#191970" points="511.0007,-206.7827 501.2913,-202.5426 506.2373,-211.9121 511.0007,-206.7827"/>
</g>
<!-- Node57 -->
<g id="node8" class="node">
<title>Node57</title>
<g id="a_node8"><a xlink:href="class_c_block.html#a0e8a98f10831c00ae76b3a831c4804e5" target="_top" xlink:title="CBlock::ToString">
<polygon fill="#ffffff" stroke="#000000" points="625.5,-240.5 625.5,-259.5 717.5,-259.5 717.5,-240.5 625.5,-240.5"/>
<text text-anchor="middle" x="671.5" y="-247.5" font-family="Helvetica,sans-Serif" font-size="10.00" fill="#000000">CBlock::ToString</text>
</a>
</g>
</g>
<!-- Node53&#45;&gt;Node57 -->
<g id="edge7" class="edge">
<title>Node53&#45;&gt;Node57</title>
<path fill="none" stroke="#191970" d="M523.2941,-206.562C542.3986,-214.384 567.3252,-224.0202 590,-231 601.3863,-234.5049 613.8402,-237.7139 625.5095,-240.457"/>
<polygon fill="#191970" stroke="#191970" points="524.4553,-203.2547 513.8771,-202.6607 521.7761,-209.7217 524.4553,-203.2547"/>
</g>
<!-- Node58 -->
<g id="node9" class="node">
<title>Node58</title>
<g id="a_node9"><a xlink:href="class_c_block_header.html#afb875dba7ce6e26c01509244e3cd950f" target="_top" xlink:title="CBlockHeader::IsNull">
<polygon fill="#ffffff" stroke="#000000" points="615.5,-202.5 615.5,-221.5 727.5,-221.5 727.5,-202.5 615.5,-202.5"/>
<text text-anchor="middle" x="671.5" y="-209.5" font-family="Helvetica,sans-Serif" font-size="10.00" fill="#000000">CBlockHeader::IsNull</text>
</a>
</g>
</g>
<!-- Node53&#45;&gt;Node58 -->
<g id="edge8" class="edge">
<title>Node53&#45;&gt;Node58</title>
<path fill="none" stroke="#191970" d="M564.6081,-200.717C581.5274,-202.5029 599.2728,-204.376 615.3354,-206.0715"/>
<polygon fill="#191970" stroke="#191970" points="564.5148,-197.1878 554.2026,-199.6186 563.7799,-204.1491 564.5148,-197.1878"/>
</g>
<!-- Node61 -->
<g id="node12" class="node">
<title>Node61</title>
<g id="a_node12"><a xlink:href="mining_8h.html#a4910d289954727eb7c4c24a6b3c50c55" target="_top" xlink:title="Generate blocks (mine) ">
<polygon fill="#ffffff" stroke="#000000" points="629.5,-164.5 629.5,-183.5 713.5,-183.5 713.5,-164.5 629.5,-164.5"/>
<text text-anchor="middle" x="671.5" y="-171.5" font-family="Helvetica,sans-Serif" font-size="10.00" fill="#000000">generateBlocks</text>
</a>
</g>
</g>
<!-- Node53&#45;&gt;Node61 -->
<g id="edge12" class="edge">
<title>Node53&#45;&gt;Node61</title>
<path fill="none" stroke="#191970" d="M564.249,-185.3209C586.3803,-182.9849 609.9575,-180.4962 629.3535,-178.4488"/>
<polygon fill="#191970" stroke="#191970" points="563.7799,-181.8509 554.2026,-186.3814 564.5148,-188.8122 563.7799,-181.8509"/>
</g>
<!-- Node64 -->
<g id="node15" class="node">
<title>Node64</title>
<g id="a_node15"><a xlink:href="mining_8cpp.html#a39d592ef311818f32e6081ec6be2f462" target="_top" xlink:title="getblocktemplate">
<polygon fill="#ffffff" stroke="#000000" points="626,-126.5 626,-145.5 717,-145.5 717,-126.5 626,-126.5"/>
<text text-anchor="middle" x="671.5" y="-133.5" font-family="Helvetica,sans-Serif" font-size="10.00" fill="#000000">getblocktemplate</text>
</a>
</g>
</g>
<!-- Node53&#45;&gt;Node64 -->
<g id="edge15" class="edge">
<title>Node53&#45;&gt;Node64</title>
<path fill="none" stroke="#191970" d="M523.2941,-179.438C542.3986,-171.616 567.3252,-161.9798 590,-155 601.5252,-151.4523 614.1441,-148.2078 625.936,-145.4429"/>
<polygon fill="#191970" stroke="#191970" points="521.7761,-176.2783 513.8771,-183.3393 524.4553,-182.7453 521.7761,-176.2783"/>
</g>
<!-- Node65 -->
<g id="node16" class="node">
<title>Node65</title>
<g id="a_node16"><a xlink:href="classsubmitblock___state_catcher.html#a89abec4d0d8ea6b2cd651439e3a4f45f" target="_top" xlink:title="Notifies listeners of a block validation result. ">
<polygon fill="#ffffff" stroke="#000000" points="605.5,-77 605.5,-107 737.5,-107 737.5,-77 605.5,-77"/>
<text text-anchor="start" x="613.5" y="-95" font-family="Helvetica,sans-Serif" font-size="10.00" fill="#000000">submitblock_StateCatcher</text>
<text text-anchor="middle" x="671.5" y="-84" font-family="Helvetica,sans-Serif" font-size="10.00" fill="#000000">::BlockChecked</text>
</a>
</g>
</g>
<!-- Node53&#45;&gt;Node65 -->
<g id="edge16" class="edge">
<title>Node53&#45;&gt;Node65</title>
<path fill="none" stroke="#191970" d="M508.709,-176.569C527.3878,-159.5303 558.7499,-133.1661 590,-117 597.2299,-113.2599 605.1151,-109.9729 613.0402,-107.117"/>
<polygon fill="#191970" stroke="#191970" points="506.2373,-174.0879 501.2913,-183.4574 511.0007,-179.2173 506.2373,-174.0879"/>
</g>
<!-- Node66 -->
<g id="node17" class="node">
<title>Node66</title>
<g id="a_node17"><a xlink:href="validation_8h.html#aee79e45a0b167f9b312f83a23880cfbc" target="_top" xlink:title="ReadBlockFromDisk">
<polygon fill="#ffffff" stroke="#000000" points="618,-38.5 618,-57.5 725,-57.5 725,-38.5 618,-38.5"/>
<text text-anchor="middle" x="671.5" y="-45.5" font-family="Helvetica,sans-Serif" font-size="10.00" fill="#000000">ReadBlockFromDisk</text>
</a>
</g>
</g>
<!-- Node53&#45;&gt;Node66 -->
<g id="edge17" class="edge">
<title>Node53&#45;&gt;Node66</title>
<path fill="none" stroke="#191970" d="M500.9116,-174.3856C515.8814,-146.739 547.7923,-95.1748 590,-68 598.3298,-62.6369 607.9848,-58.7119 617.6732,-55.8393"/>
<polygon fill="#191970" stroke="#191970" points="497.7284,-172.9192 496.1752,-183.3996 503.925,-176.1753 497.7284,-172.9192"/>
</g>
<!-- Node67 -->
<g id="node18" class="node">
<title>Node67</title>
<g id="a_node18"><a xlink:href="validation_8h.html#a0c24c7dfe29eb0ea62f868e79f818493" target="_top" xlink:title="Ensures we have a genesis block in the block tree, possibly writing one to disk. ">
<polygon fill="#ffffff" stroke="#000000" points="622.5,-.5 622.5,-19.5 720.5,-19.5 720.5,-.5 622.5,-.5"/>
<text text-anchor="middle" x="671.5" y="-7.5" font-family="Helvetica,sans-Serif" font-size="10.00" fill="#000000">LoadGenesisBlock</text>
</a>
</g>
</g>
<!-- Node53&#45;&gt;Node67 -->
<g id="edge18" class="edge">
<title>Node53&#45;&gt;Node67</title>
<path fill="none" stroke="#191970" d="M497.5203,-173.5433C509.3176,-138.7949 538.8846,-66.2286 590,-29 599.3952,-22.1572 610.8774,-17.7357 622.2247,-14.8904"/>
<polygon fill="#191970" stroke="#191970" points="494.0778,-172.8114 494.3096,-183.4037 500.7339,-174.9787 494.0778,-172.8114"/>
</g>
<!-- Node58&#45;&gt;Node54 -->
<g id="edge11" class="edge">
<title>Node58&#45;&gt;Node54</title>
<path fill="none" stroke="#191970" d="M737.1555,-222.3481C742.7789,-224.6814 748.1594,-227.5284 753,-231 777.6545,-248.6819 769.3369,-265.8946 789,-289 802.4822,-304.8425 820.4625,-320.1683 834.1735,-330.9309"/>
<polygon fill="#191970" stroke="#191970" points="738.1094,-218.9719 727.5149,-218.8865 735.7438,-225.56 738.1094,-218.9719"/>
</g>
<!-- Node59 -->
<g id="node10" class="node">
<title>Node59</title>
<g id="a_node10"><a xlink:href="class_partially_downloaded_block.html#a04e1b3207e547c972e002c1ec472da1f" target="_top" xlink:title="PartiallyDownloadedBlock\l::InitData">
<polygon fill="#ffffff" stroke="#000000" points="789,-249 789,-279 920,-279 920,-249 789,-249"/>
<text text-anchor="start" x="797" y="-267" font-family="Helvetica,sans-Serif" font-size="10.00" fill="#000000">PartiallyDownloadedBlock</text>
<text text-anchor="middle" x="854.5" y="-256" font-family="Helvetica,sans-Serif" font-size="10.00" fill="#000000">::InitData</text>
</a>
</g>
</g>
<!-- Node58&#45;&gt;Node59 -->
<g id="edge9" class="edge">
<title>Node58&#45;&gt;Node59</title>
<path fill="none" stroke="#191970" d="M725.5189,-223.9095C734.7226,-226.1337 744.1608,-228.5376 753,-231 772.1885,-236.3455 793.1596,-243.0207 811.0326,-248.9662"/>
<polygon fill="#191970" stroke="#191970" points="726.2013,-220.4743 715.6635,-221.5721 724.5859,-227.2853 726.2013,-220.4743"/>
</g>
<!-- Node60 -->
<g id="node11" class="node">
<title>Node60</title>
<g id="a_node11"><a xlink:href="class_partially_downloaded_block.html#ad8f41f80c9aba45402fc1033a478a97b" target="_top" xlink:title="PartiallyDownloadedBlock\l::IsTxAvailable">
<polygon fill="#ffffff" stroke="#000000" points="789,-200 789,-230 920,-230 920,-200 789,-200"/>
<text text-anchor="start" x="797" y="-218" font-family="Helvetica,sans-Serif" font-size="10.00" fill="#000000">PartiallyDownloadedBlock</text>
<text text-anchor="middle" x="854.5" y="-207" font-family="Helvetica,sans-Serif" font-size="10.00" fill="#000000">::IsTxAvailable</text>
</a>
</g>
</g>
<!-- Node58&#45;&gt;Node60 -->
<g id="edge10" class="edge">
<title>Node58&#45;&gt;Node60</title>
<path fill="none" stroke="#191970" d="M738.0595,-213.0911C754.6582,-213.3632 772.4424,-213.6548 788.99,-213.9261"/>
<polygon fill="#191970" stroke="#191970" points="737.9553,-209.5891 727.8993,-212.9246 737.8405,-216.5881 737.9553,-209.5891"/>
</g>
<!-- Node62 -->
<g id="node13" class="node">
<title>Node62</title>
<g id="a_node13"><a xlink:href="mining_8cpp.html#a16cf276c50111f451fdbd5dfbe3c8a6b" target="_top" xlink:title="generatetoaddress">
<polygon fill="#ffffff" stroke="#000000" points="806,-161.5 806,-180.5 903,-180.5 903,-161.5 806,-161.5"/>
<text text-anchor="middle" x="854.5" y="-168.5" font-family="Helvetica,sans-Serif" font-size="10.00" fill="#000000">generatetoaddress</text>
</a>
</g>
</g>
<!-- Node61&#45;&gt;Node62 -->
<g id="edge13" class="edge">
<title>Node61&#45;&gt;Node62</title>
<path fill="none" stroke="#191970" d="M724.2571,-173.1351C749.9649,-172.7137 780.6771,-172.2102 805.8198,-171.798"/>
<polygon fill="#191970" stroke="#191970" points="723.8851,-169.6407 713.9438,-173.3042 723.9999,-176.6397 723.8851,-169.6407"/>
</g>
<!-- Node63 -->
<g id="node14" class="node">
<title>Node63</title>
<g id="a_node14"><a xlink:href="rpcwallet_8cpp.html#a236a42206aa464fbb10bae6e6243092b" target="_top" xlink:title="generate">
<polygon fill="#ffffff" stroke="#000000" points="827.5,-123.5 827.5,-142.5 881.5,-142.5 881.5,-123.5 827.5,-123.5"/>
<text text-anchor="middle" x="854.5" y="-130.5" font-family="Helvetica,sans-Serif" font-size="10.00" fill="#000000">generate</text>
</a>
</g>
</g>
<!-- Node61&#45;&gt;Node63 -->
<g id="edge14" class="edge">
<title>Node61&#45;&gt;Node63</title>
<path fill="none" stroke="#191970" d="M724.1042,-162.2144C757.8243,-154.6596 800.2039,-145.1647 827.3253,-139.0883"/>
<polygon fill="#191970" stroke="#191970" points="722.9367,-158.8891 713.9438,-164.4907 724.4672,-165.7197 722.9367,-158.8891"/>
</g>
<!-- Node68 -->
<g id="node19" class="node">
<title>Node68</title>
<g id="a_node19"><a xlink:href="init_8cpp.html#a2dd42c68a25e6632cdb9c7b03aed8503" target="_top" xlink:title="ThreadImport">
<polygon fill="#ffffff" stroke="#000000" points="817.5,-.5 817.5,-19.5 891.5,-19.5 891.5,-.5 817.5,-.5"/>
<text text-anchor="middle" x="854.5" y="-7.5" font-family="Helvetica,sans-Serif" font-size="10.00" fill="#000000">ThreadImport</text>
</a>
</g>
</g>
<!-- Node67&#45;&gt;Node68 -->
<g id="edge19" class="edge">
<title>Node67&#45;&gt;Node68</title>
<path fill="none" stroke="#191970" d="M730.7747,-10C759.2029,-10 792.3891,-10 817.2311,-10"/>
<polygon fill="#191970" stroke="#191970" points="730.5407,-6.5001 720.5406,-10 730.5406,-13.5001 730.5407,-6.5001"/>
</g>
</g>
</svg>
