<?xml version="1.0" encoding="UTF-8" standalone="no"?>
<!DOCTYPE svg PUBLIC "-//W3C//DTD SVG 1.1//EN"
 "http://www.w3.org/Graphics/SVG/1.1/DTD/svg11.dtd">
<!-- Generated by graphviz version 2.40.1 (20161225.0304)
 -->
<!-- Title: src/script/standard.h Pages: 1 -->
<svg width="1405pt" height="420pt"
 viewBox="0.00 0.00 1405.35 420.00" xmlns="http://www.w3.org/2000/svg" xmlns:xlink="http://www.w3.org/1999/xlink">
<g id="graph0" class="graph" transform="scale(1 1) rotate(0) translate(4 416)">
<title>src/script/standard.h</title>
<polygon fill="#ffffff" stroke="transparent" points="-4,4 -4,-416 1401.3485,-416 1401.3485,4 -4,4"/>
<!-- Node0 -->
<g id="node1" class="node">
<title>Node0</title>
<polygon fill="#bfbfbf" stroke="#000000" points="1129.3485,-392.5 1129.3485,-411.5 1235.3485,-411.5 1235.3485,-392.5 1129.3485,-392.5"/>
<text text-anchor="middle" x="1182.3485" y="-399.5" font-family="Helvetica,sans-Serif" font-size="10.00" fill="#000000">src/script/standard.h</text>
</g>
<!-- Node1 -->
<g id="node2" class="node">
<title>Node1</title>
<g id="a_node2"><a xlink:href="interpreter_8h.html" target="_top" xlink:title="script/interpreter.h">
<polygon fill="#ffffff" stroke="#000000" points="1096.8485,-336.5 1096.8485,-355.5 1191.8485,-355.5 1191.8485,-336.5 1096.8485,-336.5"/>
<text text-anchor="middle" x="1144.3485" y="-343.5" font-family="Helvetica,sans-Serif" font-size="10.00" fill="#000000">script/interpreter.h</text>
</a>
</g>
</g>
<!-- Node0&#45;&gt;Node1 -->
<g id="edge1" class="edge">
<title>Node0&#45;&gt;Node1</title>
<path fill="none" stroke="#191970" d="M1175.7294,-392.2455C1170.4439,-384.4564 1162.8943,-373.3308 1156.5247,-363.9439"/>
<polygon fill="#191970" stroke="#191970" points="1159.4029,-361.9522 1150.8917,-355.6427 1153.6106,-365.8827 1159.4029,-361.9522"/>
</g>
<!-- Node4 -->
<g id="node5" class="node">
<title>Node4</title>
<polygon fill="#ffffff" stroke="#bfbfbf" points="992.8485,-.5 992.8485,-19.5 1041.8485,-19.5 1041.8485,-.5 992.8485,-.5"/>
<text text-anchor="middle" x="1017.3485" y="-7.5" font-family="Helvetica,sans-Serif" font-size="10.00" fill="#000000">stdint.h</text>
</g>
<!-- Node0&#45;&gt;Node4 -->
<g id="edge60" class="edge">
<title>Node0&#45;&gt;Node4</title>
<path fill="none" stroke="#191970" d="M1199.3326,-392.368C1226.6579,-375.4638 1277.3485,-337.6798 1277.3485,-290 1277.3485,-290 1277.3485,-290 1277.3485,-122 1277.3485,-84.3794 1256.2936,-75.8699 1224.3485,-56 1195.9071,-38.3095 1103.3149,-22.527 1052.1376,-14.878"/>
<polygon fill="#191970" stroke="#191970" points="1052.5873,-11.4065 1042.1845,-13.4149 1051.5692,-18.3321 1052.5873,-11.4065"/>
</g>
<!-- Node28 -->
<g id="node29" class="node">
<title>Node28</title>
<g id="a_node29"><a xlink:href="uint256_8h.html" target="_top" xlink:title="uint256.h">
<polygon fill="#ffffff" stroke="#000000" points="259.3485,-224.5 259.3485,-243.5 315.3485,-243.5 315.3485,-224.5 259.3485,-224.5"/>
<text text-anchor="middle" x="287.3485" y="-231.5" font-family="Helvetica,sans-Serif" font-size="10.00" fill="#000000">uint256.h</text>
</a>
</g>
</g>
<!-- Node0&#45;&gt;Node28 -->
<g id="edge58" class="edge">
<title>Node0&#45;&gt;Node28</title>
<path fill="none" stroke="#191970" d="M1131.665,-392.4862C969.8641,-362.1147 467.9849,-267.9072 325.4499,-241.152"/>
<polygon fill="#191970" stroke="#191970" points="325.9093,-237.6772 315.4352,-239.2721 324.6178,-244.557 325.9093,-237.6772"/>
</g>
<!-- Node30 -->
<g id="node31" class="node">
<title>Node30</title>
<polygon fill="#ffffff" stroke="#bfbfbf" points="1305.3485,-336.5 1305.3485,-355.5 1397.3485,-355.5 1397.3485,-336.5 1305.3485,-336.5"/>
<text text-anchor="middle" x="1351.3485" y="-343.5" font-family="Helvetica,sans-Serif" font-size="10.00" fill="#000000">boost/variant.hpp</text>
</g>
<!-- Node0&#45;&gt;Node30 -->
<g id="edge59" class="edge">
<title>Node0&#45;&gt;Node30</title>
<path fill="none" stroke="#191970" d="M1211.4006,-392.3733C1239.5027,-383.0613 1282.2538,-368.8953 1313.1091,-358.671"/>
<polygon fill="#191970" stroke="#191970" points="1314.2839,-361.969 1322.6754,-355.5011 1312.0821,-355.3243 1314.2839,-361.969"/>
</g>
<!-- Node2 -->
<g id="node3" class="node">
<title>Node2</title>
<g id="a_node3"><a xlink:href="script__error_8h.html" target="_top" xlink:title="script_error.h">
<polygon fill="#ffffff" stroke="#000000" points="936.3485,-280.5 936.3485,-299.5 1010.3485,-299.5 1010.3485,-280.5 936.3485,-280.5"/>
<text text-anchor="middle" x="973.3485" y="-287.5" font-family="Helvetica,sans-Serif" font-size="10.00" fill="#000000">script_error.h</text>
</a>
</g>
</g>
<!-- Node1&#45;&gt;Node2 -->
<g id="edge2" class="edge">
<title>Node1&#45;&gt;Node2</title>
<path fill="none" stroke="#191970" d="M1114.9525,-336.3733C1086.5178,-327.0613 1043.2608,-312.8953 1012.0403,-302.671"/>
<polygon fill="#191970" stroke="#191970" points="1012.9535,-299.2872 1002.3608,-299.5011 1010.7749,-305.9396 1012.9535,-299.2872"/>
</g>
<!-- Node3 -->
<g id="node4" class="node">
<title>Node3</title>
<g id="a_node4"><a xlink:href="transaction_8h.html" target="_top" xlink:title="primitives/transaction.h">
<polygon fill="#ffffff" stroke="#000000" points="1028.3485,-280.5 1028.3485,-299.5 1146.3485,-299.5 1146.3485,-280.5 1028.3485,-280.5"/>
<text text-anchor="middle" x="1087.3485" y="-287.5" font-family="Helvetica,sans-Serif" font-size="10.00" fill="#000000">primitives/transaction.h</text>
</a>
</g>
</g>
<!-- Node1&#45;&gt;Node3 -->
<g id="edge3" class="edge">
<title>Node1&#45;&gt;Node3</title>
<path fill="none" stroke="#191970" d="M1134.4198,-336.2455C1126.1647,-328.1352 1114.2275,-316.4075 1104.4402,-306.7919"/>
<polygon fill="#191970" stroke="#191970" points="1106.7496,-304.1542 1097.1633,-299.6427 1101.8438,-309.1476 1106.7496,-304.1542"/>
</g>
<!-- Node1&#45;&gt;Node4 -->
<g id="edge56" class="edge">
<title>Node1&#45;&gt;Node4</title>
<path fill="none" stroke="#191970" d="M1161.3326,-336.368C1188.6579,-319.4638 1239.3485,-281.6798 1239.3485,-234 1239.3485,-234 1239.3485,-234 1239.3485,-122 1239.3485,-39.1597 1114.6055,-17.5808 1052.1351,-11.9681"/>
<polygon fill="#191970" stroke="#191970" points="1052.204,-8.4624 1041.9546,-11.1456 1051.6402,-15.4396 1052.204,-8.4624"/>
</g>
<!-- Node23 -->
<g id="node24" class="node">
<title>Node23</title>
<polygon fill="#ffffff" stroke="#bfbfbf" points="18.8485,-112.5 18.8485,-131.5 59.8485,-131.5 59.8485,-112.5 18.8485,-112.5"/>
<text text-anchor="middle" x="39.3485" y="-119.5" font-family="Helvetica,sans-Serif" font-size="10.00" fill="#000000">string</text>
</g>
<!-- Node1&#45;&gt;Node23 -->
<g id="edge57" class="edge">
<title>Node1&#45;&gt;Node23</title>
<path fill="none" stroke="#191970" d="M1096.4955,-342.9869C962.1543,-334.0036 570.4438,-304.2099 250.3485,-244 154.5741,-225.9848 97.8117,-265.2101 38.3485,-188 28.3189,-174.9771 29.8424,-155.8277 33.1213,-141.5057"/>
<polygon fill="#191970" stroke="#191970" points="36.5476,-142.2449 35.8086,-131.6759 29.7954,-140.3989 36.5476,-142.2449"/>
</g>
<!-- Node25 -->
<g id="node26" class="node">
<title>Node25</title>
<polygon fill="#ffffff" stroke="#bfbfbf" points="983.3485,-112.5 983.3485,-131.5 1027.3485,-131.5 1027.3485,-112.5 983.3485,-112.5"/>
<text text-anchor="middle" x="1005.3485" y="-119.5" font-family="Helvetica,sans-Serif" font-size="10.00" fill="#000000">vector</text>
</g>
<!-- Node1&#45;&gt;Node25 -->
<g id="edge55" class="edge">
<title>Node1&#45;&gt;Node25</title>
<path fill="none" stroke="#191970" d="M1151.2391,-336.3226C1170.8731,-307.4643 1223.1362,-220.7428 1182.3485,-168 1164.7796,-145.2816 1083.6503,-131.7004 1037.567,-125.6876"/>
<polygon fill="#191970" stroke="#191970" points="1037.8411,-122.1946 1027.4826,-124.4195 1036.9677,-129.1399 1037.8411,-122.1946"/>
</g>
<!-- Node3&#45;&gt;Node4 -->
<g id="edge4" class="edge">
<title>Node3&#45;&gt;Node4</title>
<path fill="none" stroke="#191970" d="M1087.0877,-280.2645C1085.921,-247.4742 1079.6889,-138.4982 1047.3485,-56 1043.413,-45.961 1037.0999,-35.8144 1031.2778,-27.6145"/>
<polygon fill="#191970" stroke="#191970" points="1034.0708,-25.505 1025.2888,-19.5781 1028.4579,-29.6879 1034.0708,-25.505"/>
</g>
<!-- Node5 -->
<g id="node6" class="node">
<title>Node5</title>
<g id="a_node6"><a xlink:href="amount_8h.html" target="_top" xlink:title="amount.h">
<polygon fill="#ffffff" stroke="#000000" points="1115.8485,-168.5 1115.8485,-187.5 1172.8485,-187.5 1172.8485,-168.5 1115.8485,-168.5"/>
<text text-anchor="middle" x="1144.3485" y="-175.5" font-family="Helvetica,sans-Serif" font-size="10.00" fill="#000000">amount.h</text>
</a>
</g>
</g>
<!-- Node3&#45;&gt;Node5 -->
<g id="edge5" class="edge">
<title>Node3&#45;&gt;Node5</title>
<path fill="none" stroke="#191970" d="M1092.2083,-280.4509C1101.631,-261.936 1122.5363,-220.8591 1134.822,-196.7187"/>
<polygon fill="#191970" stroke="#191970" points="1138.0845,-198.0246 1139.501,-187.5249 1131.846,-194.8496 1138.0845,-198.0246"/>
</g>
<!-- Node6 -->
<g id="node7" class="node">
<title>Node6</title>
<g id="a_node7"><a xlink:href="script_8h.html" target="_top" xlink:title="script/script.h">
<polygon fill="#ffffff" stroke="#000000" points="833.3485,-224.5 833.3485,-243.5 909.3485,-243.5 909.3485,-224.5 833.3485,-224.5"/>
<text text-anchor="middle" x="871.3485" y="-231.5" font-family="Helvetica,sans-Serif" font-size="10.00" fill="#000000">script/script.h</text>
</a>
</g>
</g>
<!-- Node3&#45;&gt;Node6 -->
<g id="edge7" class="edge">
<title>Node3&#45;&gt;Node6</title>
<path fill="none" stroke="#191970" d="M1050.2167,-280.3733C1013.5218,-270.8598 957.2846,-256.2797 917.6833,-246.0127"/>
<polygon fill="#191970" stroke="#191970" points="918.554,-242.6228 907.9957,-243.5011 916.7972,-249.3988 918.554,-242.6228"/>
</g>
<!-- Node16 -->
<g id="node17" class="node">
<title>Node16</title>
<g id="a_node17"><a xlink:href="serialize_8h.html" target="_top" xlink:title="serialize.h">
<polygon fill="#ffffff" stroke="#000000" points="565.8485,-168.5 565.8485,-187.5 626.8485,-187.5 626.8485,-168.5 565.8485,-168.5"/>
<text text-anchor="middle" x="596.3485" y="-175.5" font-family="Helvetica,sans-Serif" font-size="10.00" fill="#000000">serialize.h</text>
</a>
</g>
</g>
<!-- Node3&#45;&gt;Node16 -->
<g id="edge46" class="edge">
<title>Node3&#45;&gt;Node16</title>
<path fill="none" stroke="#191970" d="M1028.6382,-280.4951C963.3907,-269.7963 862.2255,-252.7673 824.3485,-244 757.165,-228.4492 680.3896,-205.0269 635.2704,-190.669"/>
<polygon fill="#191970" stroke="#191970" points="636.1853,-187.287 625.5943,-187.5742 634.0528,-193.9543 636.1853,-187.287"/>
</g>
<!-- Node3&#45;&gt;Node28 -->
<g id="edge47" class="edge">
<title>Node3&#45;&gt;Node28</title>
<path fill="none" stroke="#191970" d="M1028.047,-280.9824C1025.1085,-280.6287 1022.1967,-280.2984 1019.3485,-280 754.9259,-252.2974 434.8914,-239.1837 325.8614,-235.2895"/>
<polygon fill="#191970" stroke="#191970" points="325.7982,-231.7852 315.6812,-234.931 325.5518,-238.7809 325.7982,-231.7852"/>
</g>
<!-- Node5&#45;&gt;Node4 -->
<g id="edge6" class="edge">
<title>Node5&#45;&gt;Node4</title>
<path fill="none" stroke="#191970" d="M1143.9103,-168.252C1142.4196,-145.8744 1135.8849,-90.1296 1107.3485,-56 1092.9709,-38.8044 1070.5343,-27.3164 1051.6606,-20.1213"/>
<polygon fill="#191970" stroke="#191970" points="1052.7718,-16.8018 1042.1771,-16.7426 1050.4224,-23.3958 1052.7718,-16.8018"/>
</g>
<!-- Node6&#45;&gt;Node4 -->
<g id="edge42" class="edge">
<title>Node6&#45;&gt;Node4</title>
<path fill="none" stroke="#191970" d="M909.3865,-229.7626C939.9076,-224.5689 982.1663,-213.1122 1010.3485,-188 1055.1113,-148.1133 1036.0925,-66.5595 1024.2229,-29.3196"/>
<polygon fill="#191970" stroke="#191970" points="1027.4843,-28.0369 1020.9851,-19.6696 1020.8479,-30.2636 1027.4843,-28.0369"/>
</g>
<!-- Node6&#45;&gt;Node5 -->
<g id="edge37" class="edge">
<title>Node6&#45;&gt;Node5</title>
<path fill="none" stroke="#191970" d="M909.5954,-226.1545C961.4606,-215.5155 1053.5855,-196.618 1105.6719,-185.9336"/>
<polygon fill="#191970" stroke="#191970" points="1106.4389,-189.3493 1115.5316,-183.9112 1105.0322,-182.4921 1106.4389,-189.3493"/>
</g>
<!-- Node7 -->
<g id="node8" class="node">
<title>Node7</title>
<g id="a_node8"><a xlink:href="common_8h.html" target="_top" xlink:title="crypto/common.h">
<polygon fill="#ffffff" stroke="#000000" points="241.3485,-168.5 241.3485,-187.5 333.3485,-187.5 333.3485,-168.5 241.3485,-168.5"/>
<text text-anchor="middle" x="287.3485" y="-175.5" font-family="Helvetica,sans-Serif" font-size="10.00" fill="#000000">crypto/common.h</text>
</a>
</g>
</g>
<!-- Node6&#45;&gt;Node7 -->
<g id="edge8" class="edge">
<title>Node6&#45;&gt;Node7</title>
<path fill="none" stroke="#191970" d="M833.1062,-231.6637C746.4425,-226.146 528.5366,-211.0167 347.3485,-188 346.0815,-187.8391 344.8003,-187.671 343.5092,-187.4969"/>
<polygon fill="#191970" stroke="#191970" points="343.8786,-184.0141 333.4831,-186.0599 342.8854,-190.9433 343.8786,-184.0141"/>
</g>
<!-- Node8 -->
<g id="node9" class="node">
<title>Node8</title>
<polygon fill="#ffffff" stroke="#bfbfbf" points="318.8485,-56.5 318.8485,-75.5 367.8485,-75.5 367.8485,-56.5 318.8485,-56.5"/>
<text text-anchor="middle" x="343.3485" y="-63.5" font-family="Helvetica,sans-Serif" font-size="10.00" fill="#000000">string.h</text>
</g>
<!-- Node6&#45;&gt;Node8 -->
<g id="edge43" class="edge">
<title>Node6&#45;&gt;Node8</title>
<path fill="none" stroke="#191970" d="M833.1562,-232.5641C723.3077,-227.5575 410.4249,-206.8609 348.3485,-132 337.8273,-119.3121 337.5265,-100.1223 339.2961,-85.7"/>
<polygon fill="#191970" stroke="#191970" points="342.7573,-86.221 340.9179,-75.787 335.8492,-85.0907 342.7573,-86.221"/>
</g>
<!-- Node11 -->
<g id="node12" class="node">
<title>Node11</title>
<g id="a_node12"><a xlink:href="prevector_8h.html" target="_top" xlink:title="prevector.h">
<polygon fill="#ffffff" stroke="#000000" points="899.8485,-112.5 899.8485,-131.5 964.8485,-131.5 964.8485,-112.5 899.8485,-112.5"/>
<text text-anchor="middle" x="932.3485" y="-119.5" font-family="Helvetica,sans-Serif" font-size="10.00" fill="#000000">prevector.h</text>
</a>
</g>
</g>
<!-- Node6&#45;&gt;Node11 -->
<g id="edge15" class="edge">
<title>Node6&#45;&gt;Node11</title>
<path fill="none" stroke="#191970" d="M876.5493,-224.4509C886.6783,-205.8533 909.2056,-164.4919 922.329,-140.3964"/>
<polygon fill="#191970" stroke="#191970" points="925.4514,-141.9809 927.1608,-131.5249 919.304,-138.6328 925.4514,-141.9809"/>
</g>
<!-- Node12 -->
<g id="node13" class="node">
<title>Node12</title>
<polygon fill="#ffffff" stroke="#bfbfbf" points="725.3485,-56.5 725.3485,-75.5 777.3485,-75.5 777.3485,-56.5 725.3485,-56.5"/>
<text text-anchor="middle" x="751.3485" y="-63.5" font-family="Helvetica,sans-Serif" font-size="10.00" fill="#000000">assert.h</text>
</g>
<!-- Node6&#45;&gt;Node12 -->
<g id="edge38" class="edge">
<title>Node6&#45;&gt;Node12</title>
<path fill="none" stroke="#191970" d="M872.1806,-224.2757C873.5612,-201.948 873.92,-146.3009 847.3485,-112 839.3408,-101.663 810.8545,-88.699 786.9753,-79.1705"/>
<polygon fill="#191970" stroke="#191970" points="788.0213,-75.8216 777.4332,-75.4436 785.4746,-82.3419 788.0213,-75.8216"/>
</g>
<!-- Node6&#45;&gt;Node16 -->
<g id="edge22" class="edge">
<title>Node6&#45;&gt;Node16</title>
<path fill="none" stroke="#191970" d="M833.1109,-226.2134C781.503,-215.7042 689.9481,-197.0603 637.0858,-186.2956"/>
<polygon fill="#191970" stroke="#191970" points="637.5498,-182.8183 627.0525,-184.2525 636.153,-189.6776 637.5498,-182.8183"/>
</g>
<!-- Node19 -->
<g id="node20" class="node">
<title>Node19</title>
<polygon fill="#ffffff" stroke="#bfbfbf" points="765.3485,-112.5 765.3485,-131.5 805.3485,-131.5 805.3485,-112.5 765.3485,-112.5"/>
<text text-anchor="middle" x="785.3485" y="-119.5" font-family="Helvetica,sans-Serif" font-size="10.00" fill="#000000">limits</text>
</g>
<!-- Node6&#45;&gt;Node19 -->
<g id="edge40" class="edge">
<title>Node6&#45;&gt;Node19</title>
<path fill="none" stroke="#191970" d="M864.0162,-224.4509C849.6089,-205.688 817.4102,-163.7548 798.984,-139.758"/>
<polygon fill="#191970" stroke="#191970" points="801.5285,-137.3248 792.6622,-131.5249 795.9765,-141.588 801.5285,-137.3248"/>
</g>
<!-- Node6&#45;&gt;Node23 -->
<g id="edge44" class="edge">
<title>Node6&#45;&gt;Node23</title>
<path fill="none" stroke="#191970" d="M832.9747,-233.2444C713.0339,-230.5683 346.4204,-219.9215 232.3485,-188 213.5895,-182.7505 211.4236,-175.2626 193.3485,-168 181.7721,-163.3486 111.2102,-142.7458 69.7282,-130.7492"/>
<polygon fill="#191970" stroke="#191970" points="70.4406,-127.312 59.862,-127.8996 68.4981,-134.0371 70.4406,-127.312"/>
</g>
<!-- Node6&#45;&gt;Node25 -->
<g id="edge45" class="edge">
<title>Node6&#45;&gt;Node25</title>
<path fill="none" stroke="#191970" d="M909.4316,-229.3237C936.5412,-223.9543 971.693,-212.4737 992.3485,-188 1003.0468,-175.3241 1005.8756,-156.3979 1006.274,-142.0587"/>
<polygon fill="#191970" stroke="#191970" points="1009.771,-141.7157 1006.1764,-131.7494 1002.7713,-141.7821 1009.771,-141.7157"/>
</g>
<!-- Node26 -->
<g id="node27" class="node">
<title>Node26</title>
<polygon fill="#ffffff" stroke="#bfbfbf" points="937.8485,-168.5 937.8485,-187.5 982.8485,-187.5 982.8485,-168.5 937.8485,-168.5"/>
<text text-anchor="middle" x="960.3485" y="-175.5" font-family="Helvetica,sans-Serif" font-size="10.00" fill="#000000">climits</text>
</g>
<!-- Node6&#45;&gt;Node26 -->
<g id="edge39" class="edge">
<title>Node6&#45;&gt;Node26</title>
<path fill="none" stroke="#191970" d="M886.8511,-224.2455C900.5064,-215.6534 920.6142,-203.0014 936.3474,-193.1018"/>
<polygon fill="#191970" stroke="#191970" points="938.4235,-195.9307 945.0235,-187.6427 934.6956,-190.006 938.4235,-195.9307"/>
</g>
<!-- Node27 -->
<g id="node28" class="node">
<title>Node27</title>
<polygon fill="#ffffff" stroke="#bfbfbf" points="125.8485,-168.5 125.8485,-187.5 184.8485,-187.5 184.8485,-168.5 125.8485,-168.5"/>
<text text-anchor="middle" x="155.3485" y="-175.5" font-family="Helvetica,sans-Serif" font-size="10.00" fill="#000000">stdexcept</text>
</g>
<!-- Node6&#45;&gt;Node27 -->
<g id="edge41" class="edge">
<title>Node6&#45;&gt;Node27</title>
<path fill="none" stroke="#191970" d="M833.2367,-233.4576C730.399,-231.5489 438.8414,-223.1948 199.3485,-188 197.8953,-187.7864 196.4189,-187.5505 194.9305,-187.2967"/>
<polygon fill="#191970" stroke="#191970" points="195.5322,-183.8484 185.0527,-185.4078 194.2174,-190.7238 195.5322,-183.8484"/>
</g>
<!-- Node7&#45;&gt;Node4 -->
<g id="edge9" class="edge">
<title>Node7&#45;&gt;Node4</title>
<path fill="none" stroke="#191970" d="M241.1081,-169.2232C190.5804,-159.1664 115.6574,-142.6994 107.3485,-132 88.4328,-107.6424 117.4416,-67.7225 135.3485,-56 171.3638,-32.423 823.0272,-14.81 982.3991,-10.8428"/>
<polygon fill="#191970" stroke="#191970" points="982.6812,-14.337 992.5917,-10.591 982.5083,-7.3391 982.6812,-14.337"/>
</g>
<!-- Node7&#45;&gt;Node8 -->
<g id="edge10" class="edge">
<title>Node7&#45;&gt;Node8</title>
<path fill="none" stroke="#191970" d="M286.7708,-168.4745C286.363,-155.1155 287.1024,-130.3912 296.3485,-112 302.2189,-100.3232 312.2365,-89.8916 321.5189,-81.9264"/>
<polygon fill="#191970" stroke="#191970" points="323.7822,-84.5975 329.3641,-75.5922 319.3848,-79.1511 323.7822,-84.5975"/>
</g>
<!-- Node9 -->
<g id="node10" class="node">
<title>Node9</title>
<g id="a_node10"><a xlink:href="endian_8h.html" target="_top" xlink:title="compat/endian.h">
<polygon fill="#ffffff" stroke="#000000" points="116.8485,-112.5 116.8485,-131.5 205.8485,-131.5 205.8485,-112.5 116.8485,-112.5"/>
<text text-anchor="middle" x="161.3485" y="-119.5" font-family="Helvetica,sans-Serif" font-size="10.00" fill="#000000">compat/endian.h</text>
</a>
</g>
</g>
<!-- Node7&#45;&gt;Node9 -->
<g id="edge11" class="edge">
<title>Node7&#45;&gt;Node9</title>
<path fill="none" stroke="#191970" d="M265.6883,-168.3733C245.3713,-159.3435 214.7845,-145.7494 191.9735,-135.6111"/>
<polygon fill="#191970" stroke="#191970" points="193.2856,-132.3642 182.726,-131.5011 190.4426,-138.7609 193.2856,-132.3642"/>
</g>
<!-- Node9&#45;&gt;Node4 -->
<g id="edge14" class="edge">
<title>Node9&#45;&gt;Node4</title>
<path fill="none" stroke="#191970" d="M154.0934,-112.0741C144.5864,-97.7712 130.7426,-71.3967 145.3485,-56 174.6392,-25.1234 823.6804,-13.0187 982.5101,-10.5131"/>
<polygon fill="#191970" stroke="#191970" points="982.7241,-14.0103 992.6685,-10.3555 982.6154,-7.0111 982.7241,-14.0103"/>
</g>
<!-- Node10 -->
<g id="node11" class="node">
<title>Node10</title>
<g id="a_node11"><a xlink:href="byteswap_8h.html" target="_top" xlink:title="compat/byteswap.h">
<polygon fill="#ffffff" stroke="#000000" points="154.3485,-56.5 154.3485,-75.5 256.3485,-75.5 256.3485,-56.5 154.3485,-56.5"/>
<text text-anchor="middle" x="205.3485" y="-63.5" font-family="Helvetica,sans-Serif" font-size="10.00" fill="#000000">compat/byteswap.h</text>
</a>
</g>
</g>
<!-- Node9&#45;&gt;Node10 -->
<g id="edge12" class="edge">
<title>Node9&#45;&gt;Node10</title>
<path fill="none" stroke="#191970" d="M169.0127,-112.2455C175.1958,-104.3761 184.0548,-93.101 191.4773,-83.6542"/>
<polygon fill="#191970" stroke="#191970" points="194.3459,-85.6683 197.7721,-75.6427 188.8417,-81.3435 194.3459,-85.6683"/>
</g>
<!-- Node10&#45;&gt;Node4 -->
<g id="edge13" class="edge">
<title>Node10&#45;&gt;Node4</title>
<path fill="none" stroke="#191970" d="M256.3856,-57.6985C261.0989,-57.0678 265.8076,-56.4881 270.3485,-56 543.8784,-26.5991 875.9292,-14.3655 982.5956,-11.0135"/>
<polygon fill="#191970" stroke="#191970" points="982.8892,-14.5062 992.7764,-10.6992 982.6732,-7.5095 982.8892,-14.5062"/>
</g>
<!-- Node11&#45;&gt;Node4 -->
<g id="edge18" class="edge">
<title>Node11&#45;&gt;Node4</title>
<path fill="none" stroke="#191970" d="M953.089,-112.3529C967.7612,-104.5169 986.8055,-92.1277 998.3485,-76 1008.0956,-62.3815 1012.8665,-43.8397 1015.1875,-29.8762"/>
<polygon fill="#191970" stroke="#191970" points="1018.6725,-30.2254 1016.572,-19.8408 1011.7381,-29.2687 1018.6725,-30.2254"/>
</g>
<!-- Node11&#45;&gt;Node8 -->
<g id="edge19" class="edge">
<title>Node11&#45;&gt;Node8</title>
<path fill="none" stroke="#191970" d="M899.8423,-118.9094C797.602,-109.1888 483.1422,-79.2911 377.9978,-69.2943"/>
<polygon fill="#191970" stroke="#191970" points="378.2089,-65.7987 367.9225,-68.3364 377.5463,-72.7673 378.2089,-65.7987"/>
</g>
<!-- Node11&#45;&gt;Node12 -->
<g id="edge16" class="edge">
<title>Node11&#45;&gt;Node12</title>
<path fill="none" stroke="#191970" d="M901.2335,-112.3733C869.54,-102.5676 820.4496,-87.3793 787.158,-77.0792"/>
<polygon fill="#191970" stroke="#191970" points="787.9579,-73.663 777.3701,-74.0509 785.8888,-80.3503 787.9579,-73.663"/>
</g>
<!-- Node13 -->
<g id="node14" class="node">
<title>Node13</title>
<polygon fill="#ffffff" stroke="#bfbfbf" points="875.3485,-56.5 875.3485,-75.5 923.3485,-75.5 923.3485,-56.5 875.3485,-56.5"/>
<text text-anchor="middle" x="899.3485" y="-63.5" font-family="Helvetica,sans-Serif" font-size="10.00" fill="#000000">stdlib.h</text>
</g>
<!-- Node11&#45;&gt;Node13 -->
<g id="edge17" class="edge">
<title>Node11&#45;&gt;Node13</title>
<path fill="none" stroke="#191970" d="M926.6003,-112.2455C922.1049,-104.617 915.7236,-93.7881 910.266,-84.5267"/>
<polygon fill="#191970" stroke="#191970" points="913.1231,-82.4811 905.0308,-75.6427 907.0923,-86.035 913.1231,-82.4811"/>
</g>
<!-- Node14 -->
<g id="node15" class="node">
<title>Node14</title>
<polygon fill="#ffffff" stroke="#bfbfbf" points="941.8485,-56.5 941.8485,-75.5 988.8485,-75.5 988.8485,-56.5 941.8485,-56.5"/>
<text text-anchor="middle" x="965.3485" y="-63.5" font-family="Helvetica,sans-Serif" font-size="10.00" fill="#000000">iterator</text>
</g>
<!-- Node11&#45;&gt;Node14 -->
<g id="edge20" class="edge">
<title>Node11&#45;&gt;Node14</title>
<path fill="none" stroke="#191970" d="M938.0966,-112.2455C942.592,-104.617 948.9733,-93.7881 954.4309,-84.5267"/>
<polygon fill="#191970" stroke="#191970" points="957.6046,-86.035 959.6662,-75.6427 951.5738,-82.4811 957.6046,-86.035"/>
</g>
<!-- Node15 -->
<g id="node16" class="node">
<title>Node15</title>
<polygon fill="#ffffff" stroke="#bfbfbf" points="795.3485,-56.5 795.3485,-75.5 857.3485,-75.5 857.3485,-56.5 795.3485,-56.5"/>
<text text-anchor="middle" x="826.3485" y="-63.5" font-family="Helvetica,sans-Serif" font-size="10.00" fill="#000000">type_traits</text>
</g>
<!-- Node11&#45;&gt;Node15 -->
<g id="edge21" class="edge">
<title>Node11&#45;&gt;Node15</title>
<path fill="none" stroke="#191970" d="M913.8847,-112.2455C897.241,-103.4527 872.5492,-90.4079 853.6293,-80.4125"/>
<polygon fill="#191970" stroke="#191970" points="855.0776,-77.2193 844.6007,-75.6427 851.8077,-83.4086 855.0776,-77.2193"/>
</g>
<!-- Node16&#45;&gt;Node4 -->
<g id="edge31" class="edge">
<title>Node16&#45;&gt;Node4</title>
<path fill="none" stroke="#191970" d="M565.6209,-175.7431C476.8554,-168.184 231.2324,-139.3561 309.3485,-56 332.6156,-31.1721 843.3171,-14.9303 982.5562,-10.9525"/>
<polygon fill="#191970" stroke="#191970" points="982.77,-14.4479 992.6671,-10.6666 982.5721,-7.4507 982.77,-14.4479"/>
</g>
<!-- Node16&#45;&gt;Node8 -->
<g id="edge33" class="edge">
<title>Node16&#45;&gt;Node8</title>
<path fill="none" stroke="#191970" d="M565.6697,-175.5318C510.327,-170.4958 396.7906,-157.313 367.3485,-132 353.94,-120.472 348.0212,-100.8229 345.4093,-85.9543"/>
<polygon fill="#191970" stroke="#191970" points="348.8316,-85.1523 343.9874,-75.7298 341.8983,-86.1166 348.8316,-85.1523"/>
</g>
<!-- Node16&#45;&gt;Node9 -->
<g id="edge23" class="edge">
<title>Node16&#45;&gt;Node9</title>
<path fill="none" stroke="#191970" d="M565.579,-174.7226C501.3204,-167.7709 348.223,-150.6488 220.3485,-132 219.0474,-131.8103 217.7307,-131.6148 216.4032,-131.4147"/>
<polygon fill="#191970" stroke="#191970" points="216.512,-127.8895 206.0921,-129.8067 215.4333,-134.8059 216.512,-127.8895"/>
</g>
<!-- Node16&#45;&gt;Node11 -->
<g id="edge36" class="edge">
<title>Node16&#45;&gt;Node11</title>
<path fill="none" stroke="#191970" d="M627.057,-172.8819C687.1531,-162.8659 820.4257,-140.6538 889.2917,-129.1761"/>
<polygon fill="#191970" stroke="#191970" points="890.081,-132.5929 899.3695,-127.4965 888.9302,-125.6882 890.081,-132.5929"/>
</g>
<!-- Node16&#45;&gt;Node12 -->
<g id="edge25" class="edge">
<title>Node16&#45;&gt;Node12</title>
<path fill="none" stroke="#191970" d="M626.9517,-172.9741C653.8234,-167.1735 692.5459,-155.2711 718.3485,-132 732.1278,-119.5726 740.8787,-100.0797 745.8802,-85.4948"/>
<polygon fill="#191970" stroke="#191970" points="749.2322,-86.5024 748.8776,-75.9135 742.5515,-84.4123 749.2322,-86.5024"/>
</g>
<!-- Node17 -->
<g id="node18" class="node">
<title>Node17</title>
<polygon fill="#ffffff" stroke="#bfbfbf" points="482.3485,-112.5 482.3485,-131.5 538.3485,-131.5 538.3485,-112.5 482.3485,-112.5"/>
<text text-anchor="middle" x="510.3485" y="-119.5" font-family="Helvetica,sans-Serif" font-size="10.00" fill="#000000">algorithm</text>
</g>
<!-- Node16&#45;&gt;Node17 -->
<g id="edge24" class="edge">
<title>Node16&#45;&gt;Node17</title>
<path fill="none" stroke="#191970" d="M581.3684,-168.2455C568.1734,-159.6534 548.7434,-147.0014 533.5405,-137.1018"/>
<polygon fill="#191970" stroke="#191970" points="535.4467,-134.1665 525.1569,-131.6427 531.627,-140.0325 535.4467,-134.1665"/>
</g>
<!-- Node18 -->
<g id="node19" class="node">
<title>Node18</title>
<polygon fill="#ffffff" stroke="#bfbfbf" points="556.8485,-112.5 556.8485,-131.5 585.8485,-131.5 585.8485,-112.5 556.8485,-112.5"/>
<text text-anchor="middle" x="571.3485" y="-119.5" font-family="Helvetica,sans-Serif" font-size="10.00" fill="#000000">ios</text>
</g>
<!-- Node16&#45;&gt;Node18 -->
<g id="edge26" class="edge">
<title>Node16&#45;&gt;Node18</title>
<path fill="none" stroke="#191970" d="M591.9938,-168.2455C588.6241,-160.6973 583.8555,-150.0158 579.7501,-140.8197"/>
<polygon fill="#191970" stroke="#191970" points="582.9258,-139.3473 575.6532,-131.6427 576.5338,-142.2009 582.9258,-139.3473"/>
</g>
<!-- Node16&#45;&gt;Node19 -->
<g id="edge27" class="edge">
<title>Node16&#45;&gt;Node19</title>
<path fill="none" stroke="#191970" d="M627.1352,-168.878C662.6458,-158.3563 720.6238,-141.1777 755.6622,-130.7959"/>
<polygon fill="#191970" stroke="#191970" points="756.7305,-134.1299 765.3241,-127.9331 754.7418,-127.4183 756.7305,-134.1299"/>
</g>
<!-- Node20 -->
<g id="node21" class="node">
<title>Node20</title>
<polygon fill="#ffffff" stroke="#bfbfbf" points="603.8485,-112.5 603.8485,-131.5 638.8485,-131.5 638.8485,-112.5 603.8485,-112.5"/>
<text text-anchor="middle" x="621.3485" y="-119.5" font-family="Helvetica,sans-Serif" font-size="10.00" fill="#000000">map</text>
</g>
<!-- Node16&#45;&gt;Node20 -->
<g id="edge28" class="edge">
<title>Node16&#45;&gt;Node20</title>
<path fill="none" stroke="#191970" d="M600.7031,-168.2455C604.0729,-160.6973 608.8414,-150.0158 612.9468,-140.8197"/>
<polygon fill="#191970" stroke="#191970" points="616.1631,-142.2009 617.0437,-131.6427 609.7711,-139.3473 616.1631,-142.2009"/>
</g>
<!-- Node21 -->
<g id="node22" class="node">
<title>Node21</title>
<polygon fill="#ffffff" stroke="#bfbfbf" points="657.3485,-112.5 657.3485,-131.5 709.3485,-131.5 709.3485,-112.5 657.3485,-112.5"/>
<text text-anchor="middle" x="683.3485" y="-119.5" font-family="Helvetica,sans-Serif" font-size="10.00" fill="#000000">memory</text>
</g>
<!-- Node16&#45;&gt;Node21 -->
<g id="edge29" class="edge">
<title>Node16&#45;&gt;Node21</title>
<path fill="none" stroke="#191970" d="M611.5027,-168.2455C624.8512,-159.6534 644.5071,-147.0014 659.8867,-137.1018"/>
<polygon fill="#191970" stroke="#191970" points="661.8536,-139.9982 668.3679,-131.6427 658.0648,-134.1121 661.8536,-139.9982"/>
</g>
<!-- Node22 -->
<g id="node23" class="node">
<title>Node22</title>
<polygon fill="#ffffff" stroke="#bfbfbf" points="376.3485,-112.5 376.3485,-131.5 406.3485,-131.5 406.3485,-112.5 376.3485,-112.5"/>
<text text-anchor="middle" x="391.3485" y="-119.5" font-family="Helvetica,sans-Serif" font-size="10.00" fill="#000000">set</text>
</g>
<!-- Node16&#45;&gt;Node22 -->
<g id="edge30" class="edge">
<title>Node16&#45;&gt;Node22</title>
<path fill="none" stroke="#191970" d="M565.5314,-171.6081C531.1083,-164.1563 473.6449,-150.7873 416.0696,-131.894"/>
<polygon fill="#191970" stroke="#191970" points="417.0505,-128.5317 406.4568,-128.6873 414.8354,-135.172 417.0505,-128.5317"/>
</g>
<!-- Node16&#45;&gt;Node23 -->
<g id="edge32" class="edge">
<title>Node16&#45;&gt;Node23</title>
<path fill="none" stroke="#191970" d="M565.6778,-175.6747C488.5387,-169.7048 280.2633,-152.8329 107.3485,-132 95.1943,-130.5357 81.8607,-128.6389 70.245,-126.8916"/>
<polygon fill="#191970" stroke="#191970" points="70.558,-123.3988 60.1435,-125.3456 69.4989,-130.3183 70.558,-123.3988"/>
</g>
<!-- Node24 -->
<g id="node25" class="node">
<title>Node24</title>
<polygon fill="#ffffff" stroke="#bfbfbf" points="424.3485,-112.5 424.3485,-131.5 464.3485,-131.5 464.3485,-112.5 424.3485,-112.5"/>
<text text-anchor="middle" x="444.3485" y="-119.5" font-family="Helvetica,sans-Serif" font-size="10.00" fill="#000000">utility</text>
</g>
<!-- Node16&#45;&gt;Node24 -->
<g id="edge34" class="edge">
<title>Node16&#45;&gt;Node24</title>
<path fill="none" stroke="#191970" d="M570.2187,-168.3733C543.6086,-158.5695 502.3945,-143.3854 474.4373,-133.0854"/>
<polygon fill="#191970" stroke="#191970" points="475.3821,-129.7035 464.7887,-129.5306 472.9621,-136.2719 475.3821,-129.7035"/>
</g>
<!-- Node16&#45;&gt;Node25 -->
<g id="edge35" class="edge">
<title>Node16&#45;&gt;Node25</title>
<path fill="none" stroke="#191970" d="M627.0594,-176.2556C690.2947,-172.24 839.6277,-160.5737 973.1446,-131.9101"/>
<polygon fill="#191970" stroke="#191970" points="974.1151,-135.2807 983.1371,-129.7261 972.6204,-128.4421 974.1151,-135.2807"/>
</g>
<!-- Node28&#45;&gt;Node4 -->
<g id="edge51" class="edge">
<title>Node28&#45;&gt;Node4</title>
<path fill="none" stroke="#191970" d="M259.3301,-232.8773C178.2231,-228.4856 -47.4862,-207.5921 9.3485,-112 35.9773,-67.212 62.1914,-70.1185 112.3485,-56 197.1059,-32.142 825.7489,-14.8325 982.1794,-10.8641"/>
<polygon fill="#191970" stroke="#191970" points="982.7037,-14.3521 992.6124,-10.6016 982.5275,-7.3544 982.7037,-14.3521"/>
</g>
<!-- Node28&#45;&gt;Node7 -->
<g id="edge54" class="edge">
<title>Node28&#45;&gt;Node7</title>
<path fill="none" stroke="#191970" d="M287.3485,-224.2455C287.3485,-216.9382 287.3485,-206.6944 287.3485,-197.7046"/>
<polygon fill="#191970" stroke="#191970" points="290.8486,-197.6426 287.3485,-187.6427 283.8486,-197.6427 290.8486,-197.6426"/>
</g>
<!-- Node28&#45;&gt;Node12 -->
<g id="edge48" class="edge">
<title>Node28&#45;&gt;Node12</title>
<path fill="none" stroke="#191970" d="M315.4535,-233.3172C415.9084,-230.2042 754.3963,-213.7104 814.3485,-132 828.5143,-112.693 803.9812,-93.1734 781.5141,-80.4248"/>
<polygon fill="#191970" stroke="#191970" points="782.918,-77.2061 772.452,-75.5593 779.6067,-83.3734 782.918,-77.2061"/>
</g>
<!-- Node28&#45;&gt;Node23 -->
<g id="edge52" class="edge">
<title>Node28&#45;&gt;Node23</title>
<path fill="none" stroke="#191970" d="M258.9946,-232.3187C202.989,-228.4007 81.1005,-216.7181 52.3485,-188 40.3648,-176.0305 37.7869,-156.4401 37.8037,-141.7054"/>
<polygon fill="#191970" stroke="#191970" points="41.3057,-141.7232 38.2095,-131.5909 34.3114,-141.4425 41.3057,-141.7232"/>
</g>
<!-- Node28&#45;&gt;Node25 -->
<g id="edge53" class="edge">
<title>Node28&#45;&gt;Node25</title>
<path fill="none" stroke="#191970" d="M315.4104,-233.0433C390.1326,-230.1283 599.9268,-219.5411 771.3485,-188 844.9086,-174.4651 928.7469,-148.0461 973.3915,-133.0639"/>
<polygon fill="#191970" stroke="#191970" points="974.7372,-136.3035 983.0874,-129.7824 972.4932,-129.6729 974.7372,-136.3035"/>
</g>
<!-- Node28&#45;&gt;Node27 -->
<g id="edge50" class="edge">
<title>Node28&#45;&gt;Node27</title>
<path fill="none" stroke="#191970" d="M264.6569,-224.3733C243.2774,-215.3032 211.0428,-201.6279 187.1122,-191.4755"/>
<polygon fill="#191970" stroke="#191970" points="188.3167,-188.1846 177.744,-187.5011 185.5828,-194.6287 188.3167,-188.1846"/>
</g>
<!-- Node29 -->
<g id="node30" class="node">
<title>Node29</title>
<polygon fill="#ffffff" stroke="#bfbfbf" points="61.3485,-168.5 61.3485,-187.5 107.3485,-187.5 107.3485,-168.5 61.3485,-168.5"/>
<text text-anchor="middle" x="84.3485" y="-175.5" font-family="Helvetica,sans-Serif" font-size="10.00" fill="#000000">cstring</text>
</g>
<!-- Node28&#45;&gt;Node29 -->
<g id="edge49" class="edge">
<title>Node28&#45;&gt;Node29</title>
<path fill="none" stroke="#191970" d="M259.1114,-226.7746C226.9867,-218.4737 172.738,-204.2126 117.0605,-188.1295"/>
<polygon fill="#191970" stroke="#191970" points="117.9665,-184.748 107.3871,-185.3207 116.0145,-191.4704 117.9665,-184.748"/>
</g>
</g>
</svg>
