<?xml version="1.0" encoding="UTF-8" standalone="no"?>
<!DOCTYPE svg PUBLIC "-//W3C//DTD SVG 1.1//EN"
 "http://www.w3.org/Graphics/SVG/1.1/DTD/svg11.dtd">
<!-- Generated by graphviz version 2.40.1 (20161225.0304)
 -->
<!-- Title: CAddressIndexIteratorHeightKey::Serialize Pages: 1 -->
<svg width="538pt" height="151pt"
 viewBox="0.00 0.00 538.00 151.00" xmlns="http://www.w3.org/2000/svg" xmlns:xlink="http://www.w3.org/1999/xlink">
<g id="graph0" class="graph" transform="scale(1 1) rotate(0) translate(4 147)">
<title>CAddressIndexIteratorHeightKey::Serialize</title>
<polygon fill="#ffffff" stroke="transparent" points="-4,4 -4,-147 534,-147 534,4 -4,4"/>
<!-- Node10 -->
<g id="node1" class="node">
<title>Node10</title>
<polygon fill="#bfbfbf" stroke="#000000" points="0,-55 0,-85 143,-85 143,-55 0,-55"/>
<text text-anchor="start" x="8" y="-73" font-family="Helvetica,sans-Serif" font-size="10.00" fill="#000000">CAddressIndexIteratorHeight</text>
<text text-anchor="middle" x="71.5" y="-62" font-family="Helvetica,sans-Serif" font-size="10.00" fill="#000000">Key::Serialize</text>
</g>
<!-- Node11 -->
<g id="node2" class="node">
<title>Node11</title>
<g id="a_node2"><a xlink:href="serialize_8h.html#ab121fe5d3f3371e3c57b45235a8d7802" target="_top" xlink:title="ser_writedata8">
<polygon fill="#ffffff" stroke="#000000" points="341,-123.5 341,-142.5 421,-142.5 421,-123.5 341,-123.5"/>
<text text-anchor="middle" x="381" y="-130.5" font-family="Helvetica,sans-Serif" font-size="10.00" fill="#000000">ser_writedata8</text>
</a>
</g>
</g>
<!-- Node10&#45;&gt;Node11 -->
<g id="edge1" class="edge">
<title>Node10&#45;&gt;Node11</title>
<path fill="none" stroke="#191970" d="M98.8872,-85.0215C120.0916,-95.8887 150.5489,-109.8683 179,-117 229.6468,-129.6954 289.466,-133.0481 330.7974,-133.624"/>
<polygon fill="#191970" stroke="#191970" points="330.8592,-137.1246 340.8902,-133.7146 330.9221,-130.1249 330.8592,-137.1246"/>
</g>
<!-- Node12 -->
<g id="node3" class="node">
<title>Node12</title>
<g id="a_node3"><a xlink:href="classbase__blob.html#ac40941ee75ce89b3269557fa5ea6b4be" target="_top" xlink:title="base_blob::Serialize">
<polygon fill="#ffffff" stroke="#000000" points="329,-41.5 329,-60.5 433,-60.5 433,-41.5 329,-41.5"/>
<text text-anchor="middle" x="381" y="-48.5" font-family="Helvetica,sans-Serif" font-size="10.00" fill="#000000">base_blob::Serialize</text>
</a>
</g>
</g>
<!-- Node10&#45;&gt;Node12 -->
<g id="edge2" class="edge">
<title>Node10&#45;&gt;Node12</title>
<path fill="none" stroke="#191970" d="M143.2834,-65.5933C196.4097,-62.3319 268.0576,-57.9335 318.7656,-54.8205"/>
<polygon fill="#191970" stroke="#191970" points="319.1682,-58.3025 328.9349,-54.1962 318.7392,-51.3157 319.1682,-58.3025"/>
</g>
<!-- Node13 -->
<g id="node4" class="node">
<title>Node13</title>
<g id="a_node4"><a xlink:href="struct_c_address_unspent_key.html#ae1c4de8cfdcd76047b6552d11f9ae496" target="_top" xlink:title="CAddressUnspentKey\l::Serialize">
<polygon fill="#ffffff" stroke="#000000" points="179,-77 179,-107 293,-107 293,-77 179,-77"/>
<text text-anchor="start" x="187" y="-95" font-family="Helvetica,sans-Serif" font-size="10.00" fill="#000000">CAddressUnspentKey</text>
<text text-anchor="middle" x="236" y="-84" font-family="Helvetica,sans-Serif" font-size="10.00" fill="#000000">::Serialize</text>
</a>
</g>
</g>
<!-- Node10&#45;&gt;Node13 -->
<g id="edge3" class="edge">
<title>Node10&#45;&gt;Node13</title>
<path fill="none" stroke="#191970" d="M143.1736,-79.5855C151.6679,-80.7215 160.3154,-81.878 168.7453,-83.0054"/>
<polygon fill="#191970" stroke="#191970" points="168.5194,-86.5063 178.8951,-84.3629 169.4473,-79.5681 168.5194,-86.5063"/>
</g>
<!-- Node16 -->
<g id="node7" class="node">
<title>Node16</title>
<g id="a_node7"><a xlink:href="serialize_8h.html#a274e67f1285e8b58be54bbf1671151ce" target="_top" xlink:title="ser_writedata32be">
<polygon fill="#ffffff" stroke="#000000" points="188,-.5 188,-19.5 284,-19.5 284,-.5 188,-.5"/>
<text text-anchor="middle" x="236" y="-7.5" font-family="Helvetica,sans-Serif" font-size="10.00" fill="#000000">ser_writedata32be</text>
</a>
</g>
</g>
<!-- Node10&#45;&gt;Node16 -->
<g id="edge8" class="edge">
<title>Node10&#45;&gt;Node16</title>
<path fill="none" stroke="#191970" d="M113.0103,-54.8595C139.8984,-45.0522 174.5577,-32.4106 200.2267,-23.048"/>
<polygon fill="#191970" stroke="#191970" points="201.7392,-26.222 209.9345,-19.5072 199.3406,-19.6457 201.7392,-26.222"/>
</g>
<!-- Node13&#45;&gt;Node11 -->
<g id="edge4" class="edge">
<title>Node13&#45;&gt;Node11</title>
<path fill="none" stroke="#191970" d="M289.1693,-107.0341C305.0819,-111.5335 322.3348,-116.4119 337.5445,-120.7126"/>
<polygon fill="#191970" stroke="#191970" points="336.6347,-124.0925 347.2098,-123.4455 338.5394,-117.3566 336.6347,-124.0925"/>
</g>
<!-- Node13&#45;&gt;Node12 -->
<g id="edge5" class="edge">
<title>Node13&#45;&gt;Node12</title>
<path fill="none" stroke="#191970" d="M289.1693,-76.9659C305.0819,-72.4665 322.3348,-67.5881 337.5445,-63.2874"/>
<polygon fill="#191970" stroke="#191970" points="338.5394,-66.6434 347.2098,-60.5545 336.6347,-59.9075 338.5394,-66.6434"/>
</g>
<!-- Node14 -->
<g id="node5" class="node">
<title>Node14</title>
<g id="a_node5"><a xlink:href="serialize_8h.html#a34e95dfa98a60736b9ed06a8c8241b3d" target="_top" xlink:title="ser_writedata32">
<polygon fill="#ffffff" stroke="#000000" points="338,-82.5 338,-101.5 424,-101.5 424,-82.5 338,-82.5"/>
<text text-anchor="middle" x="381" y="-89.5" font-family="Helvetica,sans-Serif" font-size="10.00" fill="#000000">ser_writedata32</text>
</a>
</g>
</g>
<!-- Node13&#45;&gt;Node14 -->
<g id="edge6" class="edge">
<title>Node13&#45;&gt;Node14</title>
<path fill="none" stroke="#191970" d="M293.3078,-92C304.702,-92 316.6202,-92 327.8674,-92"/>
<polygon fill="#191970" stroke="#191970" points="327.9736,-95.5001 337.9736,-92 327.9735,-88.5001 327.9736,-95.5001"/>
</g>
<!-- Node15 -->
<g id="node6" class="node">
<title>Node15</title>
<g id="a_node6"><a xlink:href="endian_8h.html#abab10181b2a9a38233ca246e1a653b5e" target="_top" xlink:title="htole32">
<polygon fill="#ffffff" stroke="#000000" points="475.5,-82.5 475.5,-101.5 523.5,-101.5 523.5,-82.5 475.5,-82.5"/>
<text text-anchor="middle" x="499.5" y="-89.5" font-family="Helvetica,sans-Serif" font-size="10.00" fill="#000000">htole32</text>
</a>
</g>
</g>
<!-- Node14&#45;&gt;Node15 -->
<g id="edge7" class="edge">
<title>Node14&#45;&gt;Node15</title>
<path fill="none" stroke="#191970" d="M424.1164,-92C437.5584,-92 452.1997,-92 464.9729,-92"/>
<polygon fill="#191970" stroke="#191970" points="465.1958,-95.5001 475.1957,-92 465.1957,-88.5001 465.1958,-95.5001"/>
</g>
<!-- Node17 -->
<g id="node8" class="node">
<title>Node17</title>
<g id="a_node8"><a xlink:href="endian_8h.html#a3ca91566984b6dca7a0f6fc2694a203c" target="_top" xlink:title="htobe32">
<polygon fill="#ffffff" stroke="#000000" points="355.5,-.5 355.5,-19.5 406.5,-19.5 406.5,-.5 355.5,-.5"/>
<text text-anchor="middle" x="381" y="-7.5" font-family="Helvetica,sans-Serif" font-size="10.00" fill="#000000">htobe32</text>
</a>
</g>
</g>
<!-- Node16&#45;&gt;Node17 -->
<g id="edge9" class="edge">
<title>Node16&#45;&gt;Node17</title>
<path fill="none" stroke="#191970" d="M284.2829,-10C304.2095,-10 326.8937,-10 345.2828,-10"/>
<polygon fill="#191970" stroke="#191970" points="345.2857,-13.5001 355.2857,-10 345.2857,-6.5001 345.2857,-13.5001"/>
</g>
<!-- Node18 -->
<g id="node9" class="node">
<title>Node18</title>
<g id="a_node9"><a xlink:href="byteswap_8h.html#acdd5094f58e4c6e2b0176654b7f20e1c" target="_top" xlink:title="bswap_32">
<polygon fill="#ffffff" stroke="#000000" points="469,-.5 469,-19.5 530,-19.5 530,-.5 469,-.5"/>
<text text-anchor="middle" x="499.5" y="-7.5" font-family="Helvetica,sans-Serif" font-size="10.00" fill="#000000">bswap_32</text>
</a>
</g>
</g>
<!-- Node17&#45;&gt;Node18 -->
<g id="edge10" class="edge">
<title>Node17&#45;&gt;Node18</title>
<path fill="none" stroke="#191970" d="M406.7127,-10C421.82,-10 441.2646,-10 458.4478,-10"/>
<polygon fill="#191970" stroke="#191970" points="458.7955,-13.5001 468.7955,-10 458.7954,-6.5001 458.7955,-13.5001"/>
</g>
</g>
</svg>
