<?xml version="1.0" encoding="UTF-8" standalone="no"?>
<!DOCTYPE svg PUBLIC "-//W3C//DTD SVG 1.1//EN"
 "http://www.w3.org/Graphics/SVG/1.1/DTD/svg11.dtd">
<!-- Generated by graphviz version 2.40.1 (20161225.0304)
 -->
<!-- Title: CAssetCacheRestrictedAddress::GetHash Pages: 1 -->
<svg width="707pt" height="123pt"
 viewBox="0.00 0.00 707.00 123.00" xmlns="http://www.w3.org/2000/svg" xmlns:xlink="http://www.w3.org/1999/xlink">
<g id="graph0" class="graph" transform="scale(1 1) rotate(0) translate(4 119)">
<title>CAssetCacheRestrictedAddress::GetHash</title>
<polygon fill="#ffffff" stroke="transparent" points="-4,4 -4,-119 703,-119 703,4 -4,4"/>
<!-- Node2 -->
<g id="node1" class="node">
<title>Node2</title>
<polygon fill="#bfbfbf" stroke="#000000" points="0,-52 0,-82 159,-82 159,-52 0,-52"/>
<text text-anchor="start" x="8" y="-70" font-family="Helvetica,sans-Serif" font-size="10.00" fill="#000000">CAssetCacheRestrictedAddress</text>
<text text-anchor="middle" x="79.5" y="-59" font-family="Helvetica,sans-Serif" font-size="10.00" fill="#000000">::GetHash</text>
</g>
<!-- Node3 -->
<g id="node2" class="node">
<title>Node3</title>
<g id="a_node2"><a xlink:href="hash_8h.html#ab3f6c437460137530d86e09c2c102e99" target="_top" xlink:title="Compute the 256&#45;bit hash of an object. ">
<polygon fill="#ffffff" stroke="#000000" points="195,-57.5 195,-76.5 235,-76.5 235,-57.5 195,-57.5"/>
<text text-anchor="middle" x="215" y="-64.5" font-family="Helvetica,sans-Serif" font-size="10.00" fill="#000000">Hash</text>
</a>
</g>
</g>
<!-- Node2&#45;&gt;Node3 -->
<g id="edge1" class="edge">
<title>Node2&#45;&gt;Node3</title>
<path fill="none" stroke="#191970" d="M159.1047,-67C168.2137,-67 177.0277,-67 184.86,-67"/>
<polygon fill="#191970" stroke="#191970" points="184.8675,-70.5001 194.8674,-67 184.8674,-63.5001 184.8675,-70.5001"/>
</g>
<!-- Node4 -->
<g id="node3" class="node">
<title>Node4</title>
<g id="a_node3"><a xlink:href="class_c_hash256.html#a9cc25033c6435cb28e2e8e377c949a7a" target="_top" xlink:title="CHash256::Write">
<polygon fill="#ffffff" stroke="#000000" points="276.5,-76.5 276.5,-95.5 368.5,-95.5 368.5,-76.5 276.5,-76.5"/>
<text text-anchor="middle" x="322.5" y="-83.5" font-family="Helvetica,sans-Serif" font-size="10.00" fill="#000000">CHash256::Write</text>
</a>
</g>
</g>
<!-- Node3&#45;&gt;Node4 -->
<g id="edge2" class="edge">
<title>Node3&#45;&gt;Node4</title>
<path fill="none" stroke="#191970" d="M235.2199,-70.5738C244.0674,-72.1375 254.933,-74.0579 265.9557,-76.0061"/>
<polygon fill="#191970" stroke="#191970" points="265.6128,-79.4997 276.0693,-77.7937 266.8312,-72.6065 265.6128,-79.4997"/>
</g>
<!-- Node9 -->
<g id="node8" class="node">
<title>Node9</title>
<g id="a_node8"><a xlink:href="class_c_hash256.html#aa8a70c1b7cf24ce7d00240a1131cf4e7" target="_top" xlink:title="CHash256::Finalize">
<polygon fill="#ffffff" stroke="#000000" points="271,-38.5 271,-57.5 374,-57.5 374,-38.5 271,-38.5"/>
<text text-anchor="middle" x="322.5" y="-45.5" font-family="Helvetica,sans-Serif" font-size="10.00" fill="#000000">CHash256::Finalize</text>
</a>
</g>
</g>
<!-- Node3&#45;&gt;Node9 -->
<g id="edge7" class="edge">
<title>Node3&#45;&gt;Node9</title>
<path fill="none" stroke="#191970" d="M235.2199,-63.4262C242.6343,-62.1158 251.466,-60.5548 260.6197,-58.937"/>
<polygon fill="#191970" stroke="#191970" points="261.3888,-62.3554 270.627,-57.1682 260.1704,-55.4622 261.3888,-62.3554"/>
</g>
<!-- Node5 -->
<g id="node4" class="node">
<title>Node5</title>
<g id="a_node4"><a xlink:href="class_c_s_h_a256.html#a9d7de520a562655da85349372820c883" target="_top" xlink:title="CSHA256::Write">
<polygon fill="#ffffff" stroke="#000000" points="415.5,-76.5 415.5,-95.5 505.5,-95.5 505.5,-76.5 415.5,-76.5"/>
<text text-anchor="middle" x="460.5" y="-83.5" font-family="Helvetica,sans-Serif" font-size="10.00" fill="#000000">CSHA256::Write</text>
</a>
</g>
</g>
<!-- Node4&#45;&gt;Node5 -->
<g id="edge3" class="edge">
<title>Node4&#45;&gt;Node5</title>
<path fill="none" stroke="#191970" d="M368.8359,-86C380.5812,-86 393.312,-86 405.4429,-86"/>
<polygon fill="#191970" stroke="#191970" points="405.4569,-89.5001 415.4569,-86 405.4568,-82.5001 405.4569,-89.5001"/>
</g>
<!-- Node6 -->
<g id="node5" class="node">
<title>Node6</title>
<g id="a_node5"><a xlink:href="glibc__compat_8cpp.html#a0f46826ab0466591e136db24394923cf" target="_top" xlink:title="memcpy">
<polygon fill="#ffffff" stroke="#000000" points="547,-76.5 547,-95.5 601,-95.5 601,-76.5 547,-76.5"/>
<text text-anchor="middle" x="574" y="-83.5" font-family="Helvetica,sans-Serif" font-size="10.00" fill="#000000">memcpy</text>
</a>
</g>
</g>
<!-- Node5&#45;&gt;Node6 -->
<g id="edge4" class="edge">
<title>Node5&#45;&gt;Node6</title>
<path fill="none" stroke="#191970" d="M505.6843,-86C516.0536,-86 526.9608,-86 536.9406,-86"/>
<polygon fill="#191970" stroke="#191970" points="536.9435,-89.5001 546.9435,-86 536.9435,-82.5001 536.9435,-89.5001"/>
</g>
<!-- Node7 -->
<g id="node6" class="node">
<title>Node7</title>
<g id="a_node6"><a xlink:href="glibc__compat_8cpp.html#a9778d49e9029dd75bc53ecbbf9f5e9a1" target="_top" xlink:title="memmove">
<polygon fill="#ffffff" stroke="#000000" points="637,-95.5 637,-114.5 699,-114.5 699,-95.5 637,-95.5"/>
<text text-anchor="middle" x="668" y="-102.5" font-family="Helvetica,sans-Serif" font-size="10.00" fill="#000000">memmove</text>
</a>
</g>
</g>
<!-- Node6&#45;&gt;Node7 -->
<g id="edge5" class="edge">
<title>Node6&#45;&gt;Node7</title>
<path fill="none" stroke="#191970" d="M601.1887,-91.4956C609.217,-93.1183 618.1892,-94.9319 626.8881,-96.6901"/>
<polygon fill="#191970" stroke="#191970" points="626.4061,-100.1634 636.9013,-98.7141 627.793,-93.3022 626.4061,-100.1634"/>
</g>
<!-- Node8 -->
<g id="node7" class="node">
<title>Node8</title>
<g id="a_node7"><a xlink:href="glibc__compat_8cpp.html#a424ac71631da5ada2976630ff67051d1" target="_top" xlink:title="__chk_fail">
<polygon fill="#ffffff" stroke="#000000" points="637.5,-57.5 637.5,-76.5 698.5,-76.5 698.5,-57.5 637.5,-57.5"/>
<text text-anchor="middle" x="668" y="-64.5" font-family="Helvetica,sans-Serif" font-size="10.00" fill="#000000">__chk_fail</text>
</a>
</g>
</g>
<!-- Node6&#45;&gt;Node8 -->
<g id="edge6" class="edge">
<title>Node6&#45;&gt;Node8</title>
<path fill="none" stroke="#191970" d="M601.1887,-80.5044C609.383,-78.8481 618.5608,-76.993 627.4275,-75.2008"/>
<polygon fill="#191970" stroke="#191970" points="628.1288,-78.6299 637.2371,-73.218 626.7419,-71.7687 628.1288,-78.6299"/>
</g>
<!-- Node9&#45;&gt;Node5 -->
<g id="edge10" class="edge">
<title>Node9&#45;&gt;Node5</title>
<path fill="none" stroke="#191970" d="M357.3232,-57.589C375.1377,-62.4944 397.0184,-68.5196 416.0389,-73.7571"/>
<polygon fill="#191970" stroke="#191970" points="415.1175,-77.1336 425.6879,-76.4141 416.976,-70.3848 415.1175,-77.1336"/>
</g>
<!-- Node10 -->
<g id="node9" class="node">
<title>Node10</title>
<g id="a_node9"><a xlink:href="class_c_s_h_a256.html#a4259230be0caefa590bc324fc12b9b90" target="_top" xlink:title="CSHA256::Finalize">
<polygon fill="#ffffff" stroke="#000000" points="410,-38.5 410,-57.5 511,-57.5 511,-38.5 410,-38.5"/>
<text text-anchor="middle" x="460.5" y="-45.5" font-family="Helvetica,sans-Serif" font-size="10.00" fill="#000000">CSHA256::Finalize</text>
</a>
</g>
</g>
<!-- Node9&#45;&gt;Node10 -->
<g id="edge8" class="edge">
<title>Node9&#45;&gt;Node10</title>
<path fill="none" stroke="#191970" d="M374.2787,-48C382.5434,-48 391.1602,-48 399.6124,-48"/>
<polygon fill="#191970" stroke="#191970" points="399.8058,-51.5001 409.8058,-48 399.8058,-44.5001 399.8058,-51.5001"/>
</g>
<!-- Node11 -->
<g id="node10" class="node">
<title>Node11</title>
<g id="a_node10"><a xlink:href="class_c_s_h_a256.html#a2122395dd5604990eaa0077b43a0e8d4" target="_top" xlink:title="CSHA256::Reset">
<polygon fill="#ffffff" stroke="#000000" points="414,-.5 414,-19.5 507,-19.5 507,-.5 414,-.5"/>
<text text-anchor="middle" x="460.5" y="-7.5" font-family="Helvetica,sans-Serif" font-size="10.00" fill="#000000">CSHA256::Reset</text>
</a>
</g>
</g>
<!-- Node9&#45;&gt;Node11 -->
<g id="edge9" class="edge">
<title>Node9&#45;&gt;Node11</title>
<path fill="none" stroke="#191970" d="M357.3232,-38.411C375.1377,-33.5056 397.0184,-27.4804 416.0389,-22.2429"/>
<polygon fill="#191970" stroke="#191970" points="416.976,-25.6152 425.6879,-19.5859 415.1175,-18.8664 416.976,-25.6152"/>
</g>
</g>
</svg>
