<?xml version="1.0" encoding="UTF-8" standalone="no"?>
<!DOCTYPE svg PUBLIC "-//W3C//DTD SVG 1.1//EN"
 "http://www.w3.org/Graphics/SVG/1.1/DTD/svg11.dtd">
<!-- Generated by graphviz version 2.40.1 (20161225.0304)
 -->
<!-- Title: CAssetCacheNewTransfer::CAssetCacheNewTransfer Pages: 1 -->
<svg width="1396pt" height="786pt"
 viewBox="0.00 0.00 1396.00 785.50" xmlns="http://www.w3.org/2000/svg" xmlns:xlink="http://www.w3.org/1999/xlink">
<g id="graph0" class="graph" transform="scale(1 1) rotate(0) translate(4 781.5)">
<title>CAssetCacheNewTransfer::CAssetCacheNewTransfer</title>
<polygon fill="#ffffff" stroke="transparent" points="-4,4 -4,-781.5 1392,-781.5 1392,4 -4,4"/>
<!-- Node0 -->
<g id="node1" class="node">
<title>Node0</title>
<polygon fill="#bfbfbf" stroke="#000000" points="0,-275 0,-305 140,-305 140,-275 0,-275"/>
<text text-anchor="start" x="8" y="-293" font-family="Helvetica,sans-Serif" font-size="10.00" fill="#000000">CAssetCacheNewTransfer</text>
<text text-anchor="middle" x="70" y="-282" font-family="Helvetica,sans-Serif" font-size="10.00" fill="#000000">::CAssetCacheNewTransfer</text>
</g>
<!-- Node1 -->
<g id="node2" class="node">
<title>Node1</title>
<g id="a_node2"><a xlink:href="rpc_2assets_8cpp.html#ad4e434d502a68b796fa86a9ed50c5862" target="_top" xlink:title="transfer">
<polygon fill="#ffffff" stroke="#000000" points="176,-280.5 176,-299.5 226,-299.5 226,-280.5 176,-280.5"/>
<text text-anchor="middle" x="201" y="-287.5" font-family="Helvetica,sans-Serif" font-size="10.00" fill="#000000">transfer</text>
</a>
</g>
</g>
<!-- Node0&#45;&gt;Node1 -->
<g id="edge1" class="edge">
<title>Node0&#45;&gt;Node1</title>
<path fill="none" stroke="#191970" d="M140.1021,-290C148.9846,-290 157.7537,-290 165.7516,-290"/>
<polygon fill="#191970" stroke="#191970" points="165.7662,-293.5001 175.7661,-290 165.7661,-286.5001 165.7662,-293.5001"/>
</g>
<!-- Node2 -->
<g id="node3" class="node">
<title>Node2</title>
<g id="a_node3"><a xlink:href="validation_8cpp.html#a0e99fa19d4750df87e0a17fbed8b0ce8" target="_top" xlink:title="RVN START. ">
<polygon fill="#ffffff" stroke="#000000" points="476,-432.5 476,-451.5 580,-451.5 580,-432.5 476,-432.5"/>
<text text-anchor="middle" x="528" y="-439.5" font-family="Helvetica,sans-Serif" font-size="10.00" fill="#000000">AreAssetsDeployed</text>
</a>
</g>
</g>
<!-- Node1&#45;&gt;Node2 -->
<g id="edge2" class="edge">
<title>Node1&#45;&gt;Node2</title>
<path fill="none" stroke="#191970" d="M204.2766,-299.6058C211.437,-319.0625 230.414,-363.1329 262,-385 270.5474,-390.9174 393.1964,-415.6642 468.9295,-430.5362"/>
<polygon fill="#191970" stroke="#191970" points="468.3454,-433.9883 478.8319,-432.4771 469.6919,-427.119 468.3454,-433.9883"/>
</g>
<!-- Node3 -->
<g id="node4" class="node">
<title>Node3</title>
<g id="a_node4"><a xlink:href="class_uni_value.html#a5a7394aeb8d5584db7a90c2c041726b1" target="_top" xlink:title="UniValue::size">
<polygon fill="#ffffff" stroke="#000000" points="302,-432.5 302,-451.5 382,-451.5 382,-432.5 302,-432.5"/>
<text text-anchor="middle" x="342" y="-439.5" font-family="Helvetica,sans-Serif" font-size="10.00" fill="#000000">UniValue::size</text>
</a>
</g>
</g>
<!-- Node1&#45;&gt;Node3 -->
<g id="edge3" class="edge">
<title>Node1&#45;&gt;Node3</title>
<path fill="none" stroke="#191970" d="M202.8091,-299.6523C207.7766,-323.4398 223.8762,-385.3132 262,-418 270.5125,-425.2984 281.1817,-430.3775 291.928,-433.9121"/>
<polygon fill="#191970" stroke="#191970" points="291.1811,-437.3392 301.7591,-436.7432 293.1183,-430.6125 291.1811,-437.3392"/>
</g>
<!-- Node4 -->
<g id="node5" class="node">
<title>Node4</title>
<g id="a_node5"><a xlink:href="rpc_2assets_8cpp.html#a41e81a808809b12fd795b404d39ac60a" target="_top" xlink:title="AssetActivationWarning">
<polygon fill="#ffffff" stroke="#000000" points="281,-470.5 281,-489.5 403,-489.5 403,-470.5 281,-470.5"/>
<text text-anchor="middle" x="342" y="-477.5" font-family="Helvetica,sans-Serif" font-size="10.00" fill="#000000">AssetActivationWarning</text>
</a>
</g>
</g>
<!-- Node1&#45;&gt;Node4 -->
<g id="edge4" class="edge">
<title>Node1&#45;&gt;Node4</title>
<path fill="none" stroke="#191970" d="M201.4006,-299.8794C203.1476,-329.2296 212.4701,-416.6158 262,-461 264.8804,-463.5812 268.0472,-465.8288 271.4075,-467.7845"/>
<polygon fill="#191970" stroke="#191970" points="270.1679,-471.0739 280.6905,-472.3086 273.2345,-464.7814 270.1679,-471.0739"/>
</g>
<!-- Node5 -->
<g id="node6" class="node">
<title>Node5</title>
<g id="a_node6"><a xlink:href="server_8cpp.html#a26bafe3d526ee8cbc84b3c0b0dc3a43b" target="_top" xlink:title="HelpExampleCli">
<polygon fill="#ffffff" stroke="#000000" points="298.5,-356.5 298.5,-375.5 385.5,-375.5 385.5,-356.5 298.5,-356.5"/>
<text text-anchor="middle" x="342" y="-363.5" font-family="Helvetica,sans-Serif" font-size="10.00" fill="#000000">HelpExampleCli</text>
</a>
</g>
</g>
<!-- Node1&#45;&gt;Node5 -->
<g id="edge6" class="edge">
<title>Node1&#45;&gt;Node5</title>
<path fill="none" stroke="#191970" d="M208.562,-299.6875C219.118,-312.5221 239.5201,-334.9417 262,-347 270.1296,-351.3608 279.2529,-354.7307 288.35,-357.3321"/>
<polygon fill="#191970" stroke="#191970" points="287.6056,-360.7546 298.1629,-359.8638 289.3543,-353.9765 287.6056,-360.7546"/>
</g>
<!-- Node6 -->
<g id="node7" class="node">
<title>Node6</title>
<g id="a_node7"><a xlink:href="rpcwallet_8cpp.html#a1de07aa72f31cf1b1a3ea94307b7b566" target="_top" xlink:title="Figures out what wallet, if any, to use for a JSONRPCRequest. ">
<polygon fill="#ffffff" stroke="#000000" points="262,-318.5 262,-337.5 422,-337.5 422,-318.5 262,-318.5"/>
<text text-anchor="middle" x="342" y="-325.5" font-family="Helvetica,sans-Serif" font-size="10.00" fill="#000000">GetWalletForJSONRPCRequest</text>
</a>
</g>
</g>
<!-- Node1&#45;&gt;Node6 -->
<g id="edge7" class="edge">
<title>Node1&#45;&gt;Node6</title>
<path fill="none" stroke="#191970" d="M226.208,-296.7936C245.8229,-302.0799 273.5495,-309.5523 296.9534,-315.8598"/>
<polygon fill="#191970" stroke="#191970" points="296.1164,-319.259 306.6827,-318.4819 297.938,-312.5002 296.1164,-319.259"/>
</g>
<!-- Node7 -->
<g id="node8" class="node">
<title>Node7</title>
<g id="a_node8"><a xlink:href="rpcwallet_8cpp.html#ae44c9e4546fdf6e182276fada0126649" target="_top" xlink:title="EnsureWalletIsAvailable">
<polygon fill="#ffffff" stroke="#000000" points="280.5,-242.5 280.5,-261.5 403.5,-261.5 403.5,-242.5 280.5,-242.5"/>
<text text-anchor="middle" x="342" y="-249.5" font-family="Helvetica,sans-Serif" font-size="10.00" fill="#000000">EnsureWalletIsAvailable</text>
</a>
</g>
</g>
<!-- Node1&#45;&gt;Node7 -->
<g id="edge8" class="edge">
<title>Node1&#45;&gt;Node7</title>
<path fill="none" stroke="#191970" d="M226.208,-283.2064C245.8229,-277.9201 273.5495,-270.4477 296.9534,-264.1402"/>
<polygon fill="#191970" stroke="#191970" points="297.938,-267.4998 306.6827,-261.5181 296.1164,-260.741 297.938,-267.4998"/>
</g>
<!-- Node8 -->
<g id="node9" class="node">
<title>Node8</title>
<g id="a_node9"><a xlink:href="rpc_2protocol_8cpp.html#a40b75d3d265c4a2e1d5fe3e129743884" target="_top" xlink:title="JSONRPCError">
<polygon fill="#ffffff" stroke="#000000" points="485,-271.5 485,-290.5 571,-290.5 571,-271.5 485,-271.5"/>
<text text-anchor="middle" x="528" y="-278.5" font-family="Helvetica,sans-Serif" font-size="10.00" fill="#000000">JSONRPCError</text>
</a>
</g>
</g>
<!-- Node1&#45;&gt;Node8 -->
<g id="edge56" class="edge">
<title>Node1&#45;&gt;Node8</title>
<path fill="none" stroke="#191970" d="M226.1162,-289.3087C279.0708,-287.8513 403.1647,-284.4358 474.6749,-282.4677"/>
<polygon fill="#191970" stroke="#191970" points="474.9294,-285.9621 484.8293,-282.1882 474.7368,-278.9647 474.9294,-285.9621"/>
</g>
<!-- Node40 -->
<g id="node39" class="node">
<title>Node40</title>
<g id="a_node39"><a xlink:href="safemode_8cpp.html#aa7985a8405eaf7b4b8e269dc39be5e30" target="_top" xlink:title="ObserveSafeMode">
<polygon fill="#ffffff" stroke="#000000" points="293,-166.5 293,-185.5 391,-185.5 391,-166.5 293,-166.5"/>
<text text-anchor="middle" x="342" y="-173.5" font-family="Helvetica,sans-Serif" font-size="10.00" fill="#000000">ObserveSafeMode</text>
</a>
</g>
</g>
<!-- Node1&#45;&gt;Node40 -->
<g id="edge42" class="edge">
<title>Node1&#45;&gt;Node40</title>
<path fill="none" stroke="#191970" d="M204.3167,-280.4515C211.5511,-261.1003 230.6574,-217.2146 262,-195 268.3874,-190.4728 275.7097,-187.0134 283.2731,-184.3719"/>
<polygon fill="#191970" stroke="#191970" points="284.3755,-187.6951 292.9303,-181.4448 282.345,-180.9961 284.3755,-187.6951"/>
</g>
<!-- Node46 -->
<g id="node45" class="node">
<title>Node46</title>
<g id="a_node45"><a xlink:href="rpcwallet_8cpp.html#a4eb48c19268ebfbfc0e9b6d7904e877f" target="_top" xlink:title="EnsureWalletIsUnlocked">
<polygon fill="#ffffff" stroke="#000000" points="279.5,-204.5 279.5,-223.5 404.5,-223.5 404.5,-204.5 279.5,-204.5"/>
<text text-anchor="middle" x="342" y="-211.5" font-family="Helvetica,sans-Serif" font-size="10.00" fill="#000000">EnsureWalletIsUnlocked</text>
</a>
</g>
</g>
<!-- Node1&#45;&gt;Node46 -->
<g id="edge49" class="edge">
<title>Node1&#45;&gt;Node46</title>
<path fill="none" stroke="#191970" d="M208.562,-280.3125C219.118,-267.4779 239.5201,-245.0583 262,-233 266.2574,-230.7163 270.7874,-228.7043 275.4434,-226.9322"/>
<polygon fill="#191970" stroke="#191970" points="276.8,-230.1674 285.1305,-223.6212 274.536,-223.5436 276.8,-230.1674"/>
</g>
<!-- Node48 -->
<g id="node47" class="node">
<title>Node48</title>
<g id="a_node47"><a xlink:href="class_uni_value.html#a087ea6ccec615333371fa1aaf83ab7df" target="_top" xlink:title="UniValue::get_str">
<polygon fill="#ffffff" stroke="#000000" points="296,-128.5 296,-147.5 388,-147.5 388,-128.5 296,-128.5"/>
<text text-anchor="middle" x="342" y="-135.5" font-family="Helvetica,sans-Serif" font-size="10.00" fill="#000000">UniValue::get_str</text>
</a>
</g>
</g>
<!-- Node1&#45;&gt;Node48 -->
<g id="edge52" class="edge">
<title>Node1&#45;&gt;Node48</title>
<path fill="none" stroke="#191970" d="M202.5044,-280.1999C206.8412,-255.4455 221.7364,-190.0269 262,-157 268.9767,-151.2773 277.3855,-147.2222 286.0938,-144.3602"/>
<polygon fill="#191970" stroke="#191970" points="287.2943,-147.6593 295.9928,-141.6105 285.4208,-140.9147 287.2943,-147.6593"/>
</g>
<!-- Node50 -->
<g id="node49" class="node">
<title>Node50</title>
<g id="a_node49"><a xlink:href="assets_2assets_8cpp.html#a48456563eb2897bdd74fc743f7fef2cf" target="_top" xlink:title="Check if an asset is a qualifier asset or sub qualifier. ">
<polygon fill="#ffffff" stroke="#000000" points="282.5,-90.5 282.5,-109.5 401.5,-109.5 401.5,-90.5 282.5,-90.5"/>
<text text-anchor="middle" x="342" y="-97.5" font-family="Helvetica,sans-Serif" font-size="10.00" fill="#000000">IsAssetNameAQualifier</text>
</a>
</g>
</g>
<!-- Node1&#45;&gt;Node50 -->
<g id="edge54" class="edge">
<title>Node1&#45;&gt;Node50</title>
<path fill="none" stroke="#191970" d="M201.4006,-280.1206C203.1476,-250.7704 212.4701,-163.3842 262,-119 265.3804,-115.9708 269.1552,-113.401 273.1744,-111.2231"/>
<polygon fill="#191970" stroke="#191970" points="274.6613,-114.3919 282.305,-107.0555 271.7546,-108.0239 274.6613,-114.3919"/>
</g>
<!-- Node4&#45;&gt;Node2 -->
<g id="edge5" class="edge">
<title>Node4&#45;&gt;Node2</title>
<path fill="none" stroke="#191970" d="M388.9357,-470.411C414.0332,-465.2835 445.1186,-458.9328 471.5304,-453.5368"/>
<polygon fill="#191970" stroke="#191970" points="472.3048,-456.951 481.4019,-451.5201 470.9036,-450.0926 472.3048,-456.951"/>
</g>
<!-- Node7&#45;&gt;Node8 -->
<g id="edge9" class="edge">
<title>Node7&#45;&gt;Node8</title>
<path fill="none" stroke="#191970" d="M403.161,-261.5359C426.2996,-265.1435 452.4287,-269.2174 474.7802,-272.7023"/>
<polygon fill="#191970" stroke="#191970" points="474.3399,-276.1758 484.7597,-274.2582 475.4183,-269.2594 474.3399,-276.1758"/>
</g>
<!-- Node9 -->
<g id="node10" class="node">
<title>Node9</title>
<g id="a_node10"><a xlink:href="util_8h.html#a96c5fc7111f69f7dcaba992d95d13e03" target="_top" xlink:title="error">
<polygon fill="#ffffff" stroke="#000000" points="681.5,-380.5 681.5,-399.5 717.5,-399.5 717.5,-380.5 681.5,-380.5"/>
<text text-anchor="middle" x="699.5" y="-387.5" font-family="Helvetica,sans-Serif" font-size="10.00" fill="#000000">error</text>
</a>
</g>
</g>
<!-- Node8&#45;&gt;Node9 -->
<g id="edge10" class="edge">
<title>Node8&#45;&gt;Node9</title>
<path fill="none" stroke="#191970" d="M543.2195,-290.673C573.0196,-309.613 639.2832,-351.7281 675.2108,-374.5626"/>
<polygon fill="#191970" stroke="#191970" points="673.751,-377.7818 684.0681,-380.192 677.5058,-371.8741 673.751,-377.7818"/>
</g>
<!-- Node39 -->
<g id="node38" class="node">
<title>Node39</title>
<g id="a_node38"><a xlink:href="class_uni_value.html#a944cd1b59b040cd24c9f46b55a68d49a" target="_top" xlink:title="UniValue::push_back">
<polygon fill="#ffffff" stroke="#000000" points="644.5,-271.5 644.5,-290.5 754.5,-290.5 754.5,-271.5 644.5,-271.5"/>
<text text-anchor="middle" x="699.5" y="-278.5" font-family="Helvetica,sans-Serif" font-size="10.00" fill="#000000">UniValue::push_back</text>
</a>
</g>
</g>
<!-- Node8&#45;&gt;Node39 -->
<g id="edge41" class="edge">
<title>Node8&#45;&gt;Node39</title>
<path fill="none" stroke="#191970" d="M571.2767,-281C590.2931,-281 613.0378,-281 634.0557,-281"/>
<polygon fill="#191970" stroke="#191970" points="634.211,-284.5001 644.211,-281 634.211,-277.5001 634.211,-284.5001"/>
</g>
<!-- Node10 -->
<g id="node11" class="node">
<title>Node10</title>
<g id="a_node11"><a xlink:href="util_8h.html#afd4c3002b2797c0560adddb6af3ca1da" target="_top" xlink:title="Send a string to the log output. ">
<polygon fill="#ffffff" stroke="#000000" points="830.5,-646.5 830.5,-665.5 895.5,-665.5 895.5,-646.5 830.5,-646.5"/>
<text text-anchor="middle" x="863" y="-653.5" font-family="Helvetica,sans-Serif" font-size="10.00" fill="#000000">LogPrintStr</text>
</a>
</g>
</g>
<!-- Node9&#45;&gt;Node10 -->
<g id="edge11" class="edge">
<title>Node9&#45;&gt;Node10</title>
<path fill="none" stroke="#191970" d="M700.5455,-399.7012C705.0292,-436.4679 725.9629,-568.6035 801,-637 806.5486,-642.0575 813.4136,-645.7694 820.5328,-648.4936"/>
<polygon fill="#191970" stroke="#191970" points="819.7071,-651.9044 830.2984,-651.6297 821.8475,-645.2396 819.7071,-651.9044"/>
</g>
<!-- Node11 -->
<g id="node12" class="node">
<title>Node11</title>
<g id="a_node12"><a xlink:href="namespacetinyformat.html#a05144619d8b16e2b31b2594ca9c6bf1d" target="_top" xlink:title="Format list of arguments to the stream according to given format string. ">
<polygon fill="#ffffff" stroke="#000000" points="816,-722.5 816,-741.5 910,-741.5 910,-722.5 816,-722.5"/>
<text text-anchor="middle" x="863" y="-729.5" font-family="Helvetica,sans-Serif" font-size="10.00" fill="#000000">tinyformat::format</text>
</a>
</g>
</g>
<!-- Node9&#45;&gt;Node11 -->
<g id="edge12" class="edge">
<title>Node9&#45;&gt;Node11</title>
<path fill="none" stroke="#191970" d="M701.2899,-399.6861C710.4676,-448.3847 753.6579,-665.9931 801,-713 802.8524,-714.8393 804.8779,-716.5013 807.0299,-718.003"/>
<polygon fill="#191970" stroke="#191970" points="805.4383,-721.1244 815.8591,-723.0365 808.9052,-715.0432 805.4383,-721.1244"/>
</g>
<!-- Node20 -->
<g id="node19" class="node">
<title>Node20</title>
<g id="a_node19"><a xlink:href="util_8h.html#aaada8c5faa502eb0c33fc01294955db8" target="_top" xlink:title="PrintExceptionContinue">
<polygon fill="#ffffff" stroke="#000000" points="803.5,-570.5 803.5,-589.5 922.5,-589.5 922.5,-570.5 803.5,-570.5"/>
<text text-anchor="middle" x="863" y="-577.5" font-family="Helvetica,sans-Serif" font-size="10.00" fill="#000000">PrintExceptionContinue</text>
</a>
</g>
</g>
<!-- Node9&#45;&gt;Node20 -->
<g id="edge19" class="edge">
<title>Node9&#45;&gt;Node20</title>
<path fill="none" stroke="#191970" d="M702.4977,-399.8204C711.9146,-429.0059 743.7334,-515.9795 801,-561 803.3232,-562.8264 805.8219,-564.4781 808.4356,-565.9716"/>
<polygon fill="#191970" stroke="#191970" points="807.1537,-569.24 817.6776,-570.4643 810.2142,-562.9444 807.1537,-569.24"/>
</g>
<!-- Node21 -->
<g id="node20" class="node">
<title>Node21</title>
<g id="a_node20"><a xlink:href="util_8h.html#af0e69a29ba128b74030ad8a213f2037a" target="_top" xlink:title="FileCommit">
<polygon fill="#ffffff" stroke="#000000" points="829.5,-532.5 829.5,-551.5 896.5,-551.5 896.5,-532.5 829.5,-532.5"/>
<text text-anchor="middle" x="863" y="-539.5" font-family="Helvetica,sans-Serif" font-size="10.00" fill="#000000">FileCommit</text>
</a>
</g>
</g>
<!-- Node9&#45;&gt;Node21 -->
<g id="edge20" class="edge">
<title>Node9&#45;&gt;Node21</title>
<path fill="none" stroke="#191970" d="M704.1615,-399.6818C716.4419,-424.1586 752.1312,-488.9794 801,-523 806.6491,-526.9327 813.1363,-530.0707 819.7391,-532.5692"/>
<polygon fill="#191970" stroke="#191970" points="818.8179,-535.9513 829.4115,-535.7903 821.0297,-529.3099 818.8179,-535.9513"/>
</g>
<!-- Node22 -->
<g id="node21" class="node">
<title>Node22</title>
<g id="a_node21"><a xlink:href="util_8h.html#acb8d6b822bc1bfa609bf43bbac1a0d44" target="_top" xlink:title="TruncateFile">
<polygon fill="#ffffff" stroke="#000000" points="827.5,-494.5 827.5,-513.5 898.5,-513.5 898.5,-494.5 827.5,-494.5"/>
<text text-anchor="middle" x="863" y="-501.5" font-family="Helvetica,sans-Serif" font-size="10.00" fill="#000000">TruncateFile</text>
</a>
</g>
</g>
<!-- Node9&#45;&gt;Node22 -->
<g id="edge21" class="edge">
<title>Node9&#45;&gt;Node22</title>
<path fill="none" stroke="#191970" d="M707.1048,-399.5941C722.6978,-418.6406 760.27,-461.4166 801,-485 806.1804,-487.9995 811.8835,-490.5727 817.6687,-492.7672"/>
<polygon fill="#191970" stroke="#191970" points="816.8099,-496.1729 827.4046,-496.1114 819.084,-489.5525 816.8099,-496.1729"/>
</g>
<!-- Node23 -->
<g id="node22" class="node">
<title>Node23</title>
<g id="a_node22"><a xlink:href="util_8h.html#a756a5c49a4bb607d16d9842f8f3ede4f" target="_top" xlink:title="this function tries to raise the file descriptor limit to the requested number. ">
<polygon fill="#ffffff" stroke="#000000" points="801,-456.5 801,-475.5 925,-475.5 925,-456.5 801,-456.5"/>
<text text-anchor="middle" x="863" y="-463.5" font-family="Helvetica,sans-Serif" font-size="10.00" fill="#000000">RaiseFileDescriptorLimit</text>
</a>
</g>
</g>
<!-- Node9&#45;&gt;Node23 -->
<g id="edge22" class="edge">
<title>Node9&#45;&gt;Node23</title>
<path fill="none" stroke="#191970" d="M714.12,-399.538C733.3999,-411.8008 768.6728,-433.1595 801,-447 806.1747,-449.2155 811.6931,-451.2903 817.2236,-453.195"/>
<polygon fill="#191970" stroke="#191970" points="816.5273,-456.6497 827.1199,-456.4331 818.7042,-449.9968 816.5273,-456.6497"/>
</g>
<!-- Node24 -->
<g id="node23" class="node">
<title>Node24</title>
<g id="a_node23"><a xlink:href="util_8h.html#a91c763bffc49cf7ed8d45cc44870e55c" target="_top" xlink:title="this function tries to make a particular range of a file allocated (corresponding to disk space) it i...">
<polygon fill="#ffffff" stroke="#000000" points="815,-418.5 815,-437.5 911,-437.5 911,-418.5 815,-418.5"/>
<text text-anchor="middle" x="863" y="-425.5" font-family="Helvetica,sans-Serif" font-size="10.00" fill="#000000">AllocateFileRange</text>
</a>
</g>
</g>
<!-- Node9&#45;&gt;Node24 -->
<g id="edge23" class="edge">
<title>Node9&#45;&gt;Node24</title>
<path fill="none" stroke="#191970" d="M717.6221,-394.2119C740.2042,-399.4603 779.7382,-408.6486 811.884,-416.1198"/>
<polygon fill="#191970" stroke="#191970" points="811.4977,-419.6233 822.0305,-418.478 813.0825,-412.805 811.4977,-419.6233"/>
</g>
<!-- Node25 -->
<g id="node24" class="node">
<title>Node25</title>
<g id="a_node24"><a xlink:href="util_8h.html#a579657da2b55b131ecd453bf1b0d2314" target="_top" xlink:title="RenameOver">
<polygon fill="#ffffff" stroke="#000000" points="826,-380.5 826,-399.5 900,-399.5 900,-380.5 826,-380.5"/>
<text text-anchor="middle" x="863" y="-387.5" font-family="Helvetica,sans-Serif" font-size="10.00" fill="#000000">RenameOver</text>
</a>
</g>
</g>
<!-- Node9&#45;&gt;Node25 -->
<g id="edge24" class="edge">
<title>Node9&#45;&gt;Node25</title>
<path fill="none" stroke="#191970" d="M717.6221,-390C741.1044,-390 782.9173,-390 815.6919,-390"/>
<polygon fill="#191970" stroke="#191970" points="815.9808,-393.5001 825.9807,-390 815.9807,-386.5001 815.9808,-393.5001"/>
</g>
<!-- Node26 -->
<g id="node25" class="node">
<title>Node26</title>
<g id="a_node25"><a xlink:href="util_8h.html#a9042a919d837da9d97311a0c460c597c" target="_top" xlink:title="Ignores exceptions thrown by Boost&#39;s create_directories if the requested directory exists...">
<polygon fill="#ffffff" stroke="#000000" points="809.5,-342.5 809.5,-361.5 916.5,-361.5 916.5,-342.5 809.5,-342.5"/>
<text text-anchor="middle" x="863" y="-349.5" font-family="Helvetica,sans-Serif" font-size="10.00" fill="#000000">TryCreateDirectories</text>
</a>
</g>
</g>
<!-- Node9&#45;&gt;Node26 -->
<g id="edge25" class="edge">
<title>Node9&#45;&gt;Node26</title>
<path fill="none" stroke="#191970" d="M717.6221,-385.7881C740.2042,-380.5397 779.7382,-371.3514 811.884,-363.8802"/>
<polygon fill="#191970" stroke="#191970" points="813.0825,-367.195 822.0305,-361.522 811.4977,-360.3767 813.0825,-367.195"/>
</g>
<!-- Node27 -->
<g id="node26" class="node">
<title>Node27</title>
<g id="a_node26"><a xlink:href="util_8h.html#a15cb85964fe08c264605537f44570d3c" target="_top" xlink:title="GetDefaultDataDir">
<polygon fill="#ffffff" stroke="#000000" points="814,-304.5 814,-323.5 912,-323.5 912,-304.5 814,-304.5"/>
<text text-anchor="middle" x="863" y="-311.5" font-family="Helvetica,sans-Serif" font-size="10.00" fill="#000000">GetDefaultDataDir</text>
</a>
</g>
</g>
<!-- Node9&#45;&gt;Node27 -->
<g id="edge26" class="edge">
<title>Node9&#45;&gt;Node27</title>
<path fill="none" stroke="#191970" d="M714.12,-380.462C733.3999,-368.1992 768.6728,-346.8405 801,-333 806.1747,-330.7845 811.6931,-328.7097 817.2236,-326.805"/>
<polygon fill="#191970" stroke="#191970" points="818.7042,-330.0032 827.1199,-323.5669 816.5273,-323.3503 818.7042,-330.0032"/>
</g>
<!-- Node28 -->
<g id="node27" class="node">
<title>Node28</title>
<g id="a_node27"><a xlink:href="util_8h.html#abb63dfb710832aefb746933af05198d4" target="_top" xlink:title="GetDataDir">
<polygon fill="#ffffff" stroke="#000000" points="830,-266.5 830,-285.5 896,-285.5 896,-266.5 830,-266.5"/>
<text text-anchor="middle" x="863" y="-273.5" font-family="Helvetica,sans-Serif" font-size="10.00" fill="#000000">GetDataDir</text>
</a>
</g>
</g>
<!-- Node9&#45;&gt;Node28 -->
<g id="edge27" class="edge">
<title>Node9&#45;&gt;Node28</title>
<path fill="none" stroke="#191970" d="M707.1048,-380.4059C722.6978,-361.3594 760.27,-318.5834 801,-295 806.9567,-291.551 813.6046,-288.6656 820.2738,-286.2715"/>
<polygon fill="#191970" stroke="#191970" points="821.5593,-289.5338 829.9821,-283.1068 819.3897,-282.8785 821.5593,-289.5338"/>
</g>
<!-- Node29 -->
<g id="node28" class="node">
<title>Node29</title>
<g id="a_node28"><a xlink:href="util_8h.html#abfb50dfe077aced7591f2aba601f605d" target="_top" xlink:title="ClearDatadirCache">
<polygon fill="#ffffff" stroke="#000000" points="813,-228.5 813,-247.5 913,-247.5 913,-228.5 813,-228.5"/>
<text text-anchor="middle" x="863" y="-235.5" font-family="Helvetica,sans-Serif" font-size="10.00" fill="#000000">ClearDatadirCache</text>
</a>
</g>
</g>
<!-- Node9&#45;&gt;Node29 -->
<g id="edge28" class="edge">
<title>Node9&#45;&gt;Node29</title>
<path fill="none" stroke="#191970" d="M706.3448,-380.3432C727.0491,-351.2337 788.3656,-265.7956 801,-257 803.8585,-255.01 806.9315,-253.2236 810.1256,-251.6204"/>
<polygon fill="#191970" stroke="#191970" points="811.6142,-254.7895 819.3697,-247.5713 808.8056,-248.3776 811.6142,-254.7895"/>
</g>
<!-- Node30 -->
<g id="node29" class="node">
<title>Node30</title>
<g id="a_node29"><a xlink:href="util_8h.html#aa634f312705d4811dfa2a5392bddf6cf" target="_top" xlink:title="GetConfigFile">
<polygon fill="#ffffff" stroke="#000000" points="824.5,-152.5 824.5,-171.5 901.5,-171.5 901.5,-152.5 824.5,-152.5"/>
<text text-anchor="middle" x="863" y="-159.5" font-family="Helvetica,sans-Serif" font-size="10.00" fill="#000000">GetConfigFile</text>
</a>
</g>
</g>
<!-- Node9&#45;&gt;Node30 -->
<g id="edge29" class="edge">
<title>Node9&#45;&gt;Node30</title>
<path fill="none" stroke="#191970" d="M708.3721,-380.2026C722.2571,-364.4035 749.1681,-331.8388 765,-300 789.6025,-250.5232 761.9984,-220.1422 801,-181 804.9731,-177.0126 809.7594,-173.8579 814.8895,-171.3629"/>
<polygon fill="#191970" stroke="#191970" points="816.4181,-174.5208 824.3939,-167.5467 813.8099,-168.0248 816.4181,-174.5208"/>
</g>
<!-- Node32 -->
<g id="node31" class="node">
<title>Node32</title>
<g id="a_node31"><a xlink:href="util_8h.html#aa0172eabeecce5061826cb19990fbde2" target="_top" xlink:title="GetPidFile">
<polygon fill="#ffffff" stroke="#000000" points="832,-114.5 832,-133.5 894,-133.5 894,-114.5 832,-114.5"/>
<text text-anchor="middle" x="863" y="-121.5" font-family="Helvetica,sans-Serif" font-size="10.00" fill="#000000">GetPidFile</text>
</a>
</g>
</g>
<!-- Node9&#45;&gt;Node32 -->
<g id="edge31" class="edge">
<title>Node9&#45;&gt;Node32</title>
<path fill="none" stroke="#191970" d="M708.6325,-380.3266C722.8744,-364.6974 750.2654,-332.3613 765,-300 794.6651,-234.847 752.2329,-195.4091 801,-143 806.6703,-136.9062 814.2371,-132.7475 822.1318,-129.9144"/>
<polygon fill="#191970" stroke="#191970" points="823.2069,-133.2466 831.8188,-127.0752 821.238,-126.5292 823.2069,-133.2466"/>
</g>
<!-- Node34 -->
<g id="node33" class="node">
<title>Node34</title>
<g id="a_node33"><a xlink:href="util_8h.html#a1c0f9b041628dcb399a023bc9913f41d" target="_top" xlink:title="CreatePidFile">
<polygon fill="#ffffff" stroke="#000000" points="825,-608.5 825,-627.5 901,-627.5 901,-608.5 825,-608.5"/>
<text text-anchor="middle" x="863" y="-615.5" font-family="Helvetica,sans-Serif" font-size="10.00" fill="#000000">CreatePidFile</text>
</a>
</g>
</g>
<!-- Node9&#45;&gt;Node34 -->
<g id="edge34" class="edge">
<title>Node9&#45;&gt;Node34</title>
<path fill="none" stroke="#191970" d="M701.312,-399.5629C708.0574,-432.5027 734.8133,-542.3368 801,-599 805.2226,-602.615 810.1227,-605.5423 815.2819,-607.9128"/>
<polygon fill="#191970" stroke="#191970" points="814.1696,-611.2356 824.7579,-611.6064 816.7118,-604.7136 814.1696,-611.2356"/>
</g>
<!-- Node36 -->
<g id="node35" class="node">
<title>Node36</title>
<g id="a_node35"><a xlink:href="util_8h.html#a1e755e72104d3ca393efc1cc3f41952a" target="_top" xlink:title="OpenDebugLog">
<polygon fill="#ffffff" stroke="#000000" points="821,-76.5 821,-95.5 905,-95.5 905,-76.5 821,-76.5"/>
<text text-anchor="middle" x="863" y="-83.5" font-family="Helvetica,sans-Serif" font-size="10.00" fill="#000000">OpenDebugLog</text>
</a>
</g>
</g>
<!-- Node9&#45;&gt;Node36 -->
<g id="edge36" class="edge">
<title>Node9&#45;&gt;Node36</title>
<path fill="none" stroke="#191970" d="M708.7978,-380.3997C723.2662,-364.8707 750.962,-332.6695 765,-300 799.7936,-219.0277 742.3597,-170.7908 801,-105 804.0747,-101.5503 807.7574,-98.7185 811.774,-96.3949"/>
<polygon fill="#191970" stroke="#191970" points="813.4219,-99.4881 820.9941,-92.0778 810.4535,-93.1486 813.4219,-99.4881"/>
</g>
<!-- Node37 -->
<g id="node36" class="node">
<title>Node37</title>
<g id="a_node36"><a xlink:href="util_8h.html#a37fca7e305fe0caa306b23fdb37f88e2" target="_top" xlink:title="ShrinkDebugFile">
<polygon fill="#ffffff" stroke="#000000" points="818.5,-190.5 818.5,-209.5 907.5,-209.5 907.5,-190.5 818.5,-190.5"/>
<text text-anchor="middle" x="863" y="-197.5" font-family="Helvetica,sans-Serif" font-size="10.00" fill="#000000">ShrinkDebugFile</text>
</a>
</g>
</g>
<!-- Node9&#45;&gt;Node37 -->
<g id="edge37" class="edge">
<title>Node9&#45;&gt;Node37</title>
<path fill="none" stroke="#191970" d="M707.4819,-380.4746C720.5932,-364.5331 747.0254,-331.1273 765,-300 784.7003,-265.8841 771.5117,-245.1236 801,-219 803.4859,-216.7977 806.2222,-214.8507 809.1181,-213.1294"/>
<polygon fill="#191970" stroke="#191970" points="810.8008,-216.2015 818.1942,-208.6128 807.6822,-209.9346 810.8008,-216.2015"/>
</g>
<!-- Node38 -->
<g id="node37" class="node">
<title>Node38</title>
<g id="a_node37"><a xlink:href="util_8h.html#aa803aa631ab8b4bd79fa9d7b2172bf9a" target="_top" xlink:title="runCommand">
<polygon fill="#ffffff" stroke="#000000" points="825.5,-684.5 825.5,-703.5 900.5,-703.5 900.5,-684.5 825.5,-684.5"/>
<text text-anchor="middle" x="863" y="-691.5" font-family="Helvetica,sans-Serif" font-size="10.00" fill="#000000">runCommand</text>
</a>
</g>
</g>
<!-- Node9&#45;&gt;Node38 -->
<g id="edge40" class="edge">
<title>Node9&#45;&gt;Node38</title>
<path fill="none" stroke="#191970" d="M699.952,-399.7524C702.3505,-439.9693 716.915,-594.5976 801,-675 805.2744,-679.0872 810.4052,-682.297 815.8609,-684.8174"/>
<polygon fill="#191970" stroke="#191970" points="814.666,-688.1078 825.2556,-688.4415 817.1854,-681.5769 814.666,-688.1078"/>
</g>
<!-- Node12 -->
<g id="node13" class="node">
<title>Node12</title>
<g id="a_node13"><a xlink:href="namespacetinyformat.html#a86ed74eb3ed66a662e96220d877da964" target="_top" xlink:title="Format list of arguments to the stream according to the given format string. ">
<polygon fill="#ffffff" stroke="#000000" points="980,-703.5 980,-722.5 1079,-722.5 1079,-703.5 980,-703.5"/>
<text text-anchor="middle" x="1029.5" y="-710.5" font-family="Helvetica,sans-Serif" font-size="10.00" fill="#000000">tinyformat::vformat</text>
</a>
</g>
</g>
<!-- Node11&#45;&gt;Node12 -->
<g id="edge13" class="edge">
<title>Node11&#45;&gt;Node12</title>
<path fill="none" stroke="#191970" d="M910.2669,-726.6062C928.7697,-724.4948 950.209,-722.0482 969.7631,-719.8168"/>
<polygon fill="#191970" stroke="#191970" points="970.2525,-723.2838 979.7912,-718.6725 969.4588,-716.3289 970.2525,-723.2838"/>
</g>
<!-- Node19 -->
<g id="node18" class="node">
<title>Node19</title>
<g id="a_node18"><a xlink:href="namespacetinyformat.html#a37afaa5249c69dacd619269358f06f69" target="_top" xlink:title="Make type&#45;agnostic format list from list of template arguments. ">
<polygon fill="#ffffff" stroke="#000000" points="961,-741.5 961,-760.5 1098,-760.5 1098,-741.5 961,-741.5"/>
<text text-anchor="middle" x="1029.5" y="-748.5" font-family="Helvetica,sans-Serif" font-size="10.00" fill="#000000">tinyformat::makeFormatList</text>
</a>
</g>
</g>
<!-- Node11&#45;&gt;Node19 -->
<g id="edge18" class="edge">
<title>Node11&#45;&gt;Node19</title>
<path fill="none" stroke="#191970" d="M910.2669,-737.3938C922.9546,-738.8417 937.0231,-740.4471 950.9177,-742.0327"/>
<polygon fill="#191970" stroke="#191970" points="950.6498,-745.5247 960.9822,-743.1811 951.4435,-738.5698 950.6498,-745.5247"/>
</g>
<!-- Node13 -->
<g id="node14" class="node">
<title>Node13</title>
<g id="a_node14"><a xlink:href="namespacetinyformat_1_1detail.html#a079a316938c0e8693efbeb0183b1390d" target="_top" xlink:title="tinyformat::detail\l::formatImpl">
<polygon fill="#ffffff" stroke="#000000" points="1134,-698 1134,-728 1223,-728 1223,-698 1134,-698"/>
<text text-anchor="start" x="1142" y="-716" font-family="Helvetica,sans-Serif" font-size="10.00" fill="#000000">tinyformat::detail</text>
<text text-anchor="middle" x="1178.5" y="-705" font-family="Helvetica,sans-Serif" font-size="10.00" fill="#000000">::formatImpl</text>
</a>
</g>
</g>
<!-- Node12&#45;&gt;Node13 -->
<g id="edge14" class="edge">
<title>Node12&#45;&gt;Node13</title>
<path fill="none" stroke="#191970" d="M1079.1148,-713C1093.2842,-713 1108.8105,-713 1123.2923,-713"/>
<polygon fill="#191970" stroke="#191970" points="1123.6183,-716.5001 1133.6183,-713 1123.6183,-709.5001 1123.6183,-716.5001"/>
</g>
<!-- Node14 -->
<g id="node15" class="node">
<title>Node14</title>
<g id="a_node15"><a xlink:href="namespacetinyformat_1_1detail.html#ad3d636b9f85202b515c8940b7fcb62a6" target="_top" xlink:title="tinyformat::detail\l::printFormatStringLiteral">
<polygon fill="#ffffff" stroke="#000000" points="1261.5,-747 1261.5,-777 1385.5,-777 1385.5,-747 1261.5,-747"/>
<text text-anchor="start" x="1269.5" y="-765" font-family="Helvetica,sans-Serif" font-size="10.00" fill="#000000">tinyformat::detail</text>
<text text-anchor="middle" x="1323.5" y="-754" font-family="Helvetica,sans-Serif" font-size="10.00" fill="#000000">::printFormatStringLiteral</text>
</a>
</g>
</g>
<!-- Node13&#45;&gt;Node14 -->
<g id="edge15" class="edge">
<title>Node13&#45;&gt;Node14</title>
<path fill="none" stroke="#191970" d="M1223.1879,-728.1014C1237.659,-732.9917 1253.8725,-738.4707 1268.9752,-743.5744"/>
<polygon fill="#191970" stroke="#191970" points="1268.1158,-746.9783 1278.71,-746.8641 1270.3569,-740.3468 1268.1158,-746.9783"/>
</g>
<!-- Node15 -->
<g id="node16" class="node">
<title>Node15</title>
<g id="a_node16"><a xlink:href="namespacetinyformat_1_1detail.html#a681e8ceb825485cc5e3b057c11e4b1b5" target="_top" xlink:title="tinyformat::detail\l::streamStateFromFormat">
<polygon fill="#ffffff" stroke="#ff0000" points="1259,-698 1259,-728 1388,-728 1388,-698 1259,-698"/>
<text text-anchor="start" x="1267" y="-716" font-family="Helvetica,sans-Serif" font-size="10.00" fill="#000000">tinyformat::detail</text>
<text text-anchor="middle" x="1323.5" y="-705" font-family="Helvetica,sans-Serif" font-size="10.00" fill="#000000">::streamStateFromFormat</text>
</a>
</g>
</g>
<!-- Node13&#45;&gt;Node15 -->
<g id="edge16" class="edge">
<title>Node13&#45;&gt;Node15</title>
<path fill="none" stroke="#191970" d="M1223.1879,-713C1231.3219,-713 1240.0064,-713 1248.7346,-713"/>
<polygon fill="#191970" stroke="#191970" points="1248.9707,-716.5001 1258.9707,-713 1248.9706,-709.5001 1248.9707,-716.5001"/>
</g>
<!-- Node18 -->
<g id="node17" class="node">
<title>Node18</title>
<g id="a_node17"><a xlink:href="classtinyformat_1_1detail_1_1_format_arg.html#acbf435711bbe4a4da7fc81758d7108a9" target="_top" xlink:title="tinyformat::detail\l::FormatArg::format">
<polygon fill="#ffffff" stroke="#000000" points="1272.5,-649 1272.5,-679 1374.5,-679 1374.5,-649 1272.5,-649"/>
<text text-anchor="start" x="1280.5" y="-667" font-family="Helvetica,sans-Serif" font-size="10.00" fill="#000000">tinyformat::detail</text>
<text text-anchor="middle" x="1323.5" y="-656" font-family="Helvetica,sans-Serif" font-size="10.00" fill="#000000">::FormatArg::format</text>
</a>
</g>
</g>
<!-- Node13&#45;&gt;Node18 -->
<g id="edge17" class="edge">
<title>Node13&#45;&gt;Node18</title>
<path fill="none" stroke="#191970" d="M1223.1879,-697.8986C1237.659,-693.0083 1253.8725,-687.5293 1268.9752,-682.4256"/>
<polygon fill="#191970" stroke="#191970" points="1270.3569,-685.6532 1278.71,-679.1359 1268.1158,-679.0217 1270.3569,-685.6532"/>
</g>
<!-- Node31 -->
<g id="node30" class="node">
<title>Node31</title>
<g id="a_node30"><a xlink:href="util_8cpp.html#a7ebe0bd091f7334aaead43904601e008" target="_top" xlink:title="GetDataDir">
<polygon fill="#ffffff" stroke="#000000" points="996.5,-152.5 996.5,-171.5 1062.5,-171.5 1062.5,-152.5 996.5,-152.5"/>
<text text-anchor="middle" x="1029.5" y="-159.5" font-family="Helvetica,sans-Serif" font-size="10.00" fill="#000000">GetDataDir</text>
</a>
</g>
</g>
<!-- Node30&#45;&gt;Node31 -->
<g id="edge30" class="edge">
<title>Node30&#45;&gt;Node31</title>
<path fill="none" stroke="#191970" d="M901.6169,-162C926.9746,-162 960.1762,-162 986.3939,-162"/>
<polygon fill="#191970" stroke="#191970" points="986.4308,-165.5001 996.4308,-162 986.4308,-158.5001 986.4308,-165.5001"/>
</g>
<!-- Node32&#45;&gt;Node31 -->
<g id="edge33" class="edge">
<title>Node32&#45;&gt;Node31</title>
<path fill="none" stroke="#191970" d="M894.3174,-131.1475C920.3555,-137.0902 957.6789,-145.6084 986.5137,-152.1893"/>
<polygon fill="#191970" stroke="#191970" points="985.7983,-155.616 996.3265,-154.4289 987.3559,-148.7915 985.7983,-155.616"/>
</g>
<!-- Node33 -->
<g id="node32" class="node">
<title>Node33</title>
<g id="a_node32"><a xlink:href="class_args_manager.html#adb5d644d273b3a259f792affcdca8283" target="_top" xlink:title="Return string argument or default value. ">
<polygon fill="#ffffff" stroke="#000000" points="974,-114.5 974,-133.5 1085,-133.5 1085,-114.5 974,-114.5"/>
<text text-anchor="middle" x="1029.5" y="-121.5" font-family="Helvetica,sans-Serif" font-size="10.00" fill="#000000">ArgsManager::GetArg</text>
</a>
</g>
</g>
<!-- Node32&#45;&gt;Node33 -->
<g id="edge32" class="edge">
<title>Node32&#45;&gt;Node33</title>
<path fill="none" stroke="#191970" d="M894.3174,-124C913.8523,-124 939.7394,-124 963.6282,-124"/>
<polygon fill="#191970" stroke="#191970" points="963.7197,-127.5001 973.7197,-124 963.7196,-120.5001 963.7197,-127.5001"/>
</g>
<!-- Node35 -->
<g id="node34" class="node">
<title>Node35</title>
<g id="a_node34"><a xlink:href="namespacefsbridge.html#a19c84cec4ae9accfbc88a83e48f7ee92" target="_top" xlink:title="fsbridge::fopen">
<polygon fill="#ffffff" stroke="#000000" points="989,-399.5 989,-418.5 1070,-418.5 1070,-399.5 989,-399.5"/>
<text text-anchor="middle" x="1029.5" y="-406.5" font-family="Helvetica,sans-Serif" font-size="10.00" fill="#000000">fsbridge::fopen</text>
</a>
</g>
</g>
<!-- Node34&#45;&gt;Node35 -->
<g id="edge35" class="edge">
<title>Node34&#45;&gt;Node35</title>
<path fill="none" stroke="#191970" d="M901.0348,-611.3579C909.5534,-608.568 918.0993,-604.6107 925,-599 981.8924,-552.7426 1012.7052,-466.8886 1024.1897,-428.4679"/>
<polygon fill="#191970" stroke="#191970" points="1027.6386,-429.1378 1027.0321,-418.5603 1020.91,-427.2073 1027.6386,-429.1378"/>
</g>
<!-- Node37&#45;&gt;Node31 -->
<g id="edge38" class="edge">
<title>Node37&#45;&gt;Node31</title>
<path fill="none" stroke="#191970" d="M905.015,-190.411C929.9082,-184.7297 961.3821,-177.5464 986.4539,-171.8243"/>
<polygon fill="#191970" stroke="#191970" points="987.4478,-175.1876 996.4183,-169.5502 985.8902,-168.3631 987.4478,-175.1876"/>
</g>
<!-- Node37&#45;&gt;Node35 -->
<g id="edge39" class="edge">
<title>Node37&#45;&gt;Node35</title>
<path fill="none" stroke="#191970" d="M907.8025,-209.1236C913.9805,-211.6527 919.9337,-214.8807 925,-219 981.8924,-265.2574 1012.7052,-351.1114 1024.1897,-389.5321"/>
<polygon fill="#191970" stroke="#191970" points="1020.91,-390.7927 1027.0321,-399.4397 1027.6386,-388.8622 1020.91,-390.7927"/>
</g>
<!-- Node41 -->
<g id="node40" class="node">
<title>Node41</title>
<g id="a_node40"><a xlink:href="warnings_8cpp.html#a6918ffd0d632afc0c0495696bc99aa00" target="_top" xlink:title="Format a string that describes several potential problems detected by the core. ">
<polygon fill="#ffffff" stroke="#000000" points="491,-147.5 491,-166.5 565,-166.5 565,-147.5 491,-147.5"/>
<text text-anchor="middle" x="528" y="-154.5" font-family="Helvetica,sans-Serif" font-size="10.00" fill="#000000">GetWarnings</text>
</a>
</g>
</g>
<!-- Node40&#45;&gt;Node41 -->
<g id="edge43" class="edge">
<title>Node40&#45;&gt;Node41</title>
<path fill="none" stroke="#191970" d="M391.3563,-170.9582C419.0316,-168.1312 453.3755,-164.6229 480.7085,-161.8308"/>
<polygon fill="#191970" stroke="#191970" points="481.2199,-165.2969 490.8124,-160.7987 480.5085,-158.3332 481.2199,-165.2969"/>
</g>
<!-- Node45 -->
<g id="node44" class="node">
<title>Node45</title>
<g id="a_node44"><a xlink:href="class_args_manager.html#af81c6e2a9dcd6b12557a2387fd67b2a6" target="_top" xlink:title="Return boolean argument or default value. ">
<polygon fill="#ffffff" stroke="#000000" points="634,-166.5 634,-185.5 765,-185.5 765,-166.5 634,-166.5"/>
<text text-anchor="middle" x="699.5" y="-173.5" font-family="Helvetica,sans-Serif" font-size="10.00" fill="#000000">ArgsManager::GetBoolArg</text>
</a>
</g>
</g>
<!-- Node40&#45;&gt;Node45 -->
<g id="edge48" class="edge">
<title>Node40&#45;&gt;Node45</title>
<path fill="none" stroke="#191970" d="M391.3335,-176C451.3982,-176 553.4832,-176 623.5868,-176"/>
<polygon fill="#191970" stroke="#191970" points="623.6891,-179.5001 633.6891,-176 623.689,-172.5001 623.6891,-179.5001"/>
</g>
<!-- Node42 -->
<g id="node41" class="node">
<title>Node42</title>
<g id="a_node41"><a xlink:href="util_8h.html#aad133bb6103b53cebf03fd01e2f11ba1" target="_top" xlink:title="Translation function: Call Translate signal on UI interface, which returns a boost::optional result...">
<polygon fill="#ffffff" stroke="#000000" points="685,-38.5 685,-57.5 714,-57.5 714,-38.5 685,-38.5"/>
<text text-anchor="middle" x="699.5" y="-45.5" font-family="Helvetica,sans-Serif" font-size="10.00" fill="#000000">_</text>
</a>
</g>
</g>
<!-- Node41&#45;&gt;Node42 -->
<g id="edge44" class="edge">
<title>Node41&#45;&gt;Node42</title>
<path fill="none" stroke="#191970" d="M565.1877,-150.2825C576.158,-147.4208 587.9175,-143.4458 598,-138 633.1501,-119.0146 666.2825,-85.6741 684.6383,-65.3379"/>
<polygon fill="#191970" stroke="#191970" points="687.35,-67.5549 691.3505,-57.7444 682.1052,-62.9189 687.35,-67.5549"/>
</g>
<!-- Node41&#45;&gt;Node45 -->
<g id="edge47" class="edge">
<title>Node41&#45;&gt;Node45</title>
<path fill="none" stroke="#191970" d="M565.2129,-161.1227C582.4053,-163.0274 603.479,-165.3621 623.7907,-167.6124"/>
<polygon fill="#191970" stroke="#191970" points="623.6734,-171.1207 633.998,-168.7432 624.4442,-164.1633 623.6734,-171.1207"/>
</g>
<!-- Node43 -->
<g id="node42" class="node">
<title>Node43</title>
<g id="a_node42"><a xlink:href="util_8h.html#a9ed616020f4ef9b1a261b222bbec78e2" target="_top" xlink:title="SetupEnvironment">
<polygon fill="#ffffff" stroke="#000000" points="814.5,-38.5 814.5,-57.5 911.5,-57.5 911.5,-38.5 814.5,-38.5"/>
<text text-anchor="middle" x="863" y="-45.5" font-family="Helvetica,sans-Serif" font-size="10.00" fill="#000000">SetupEnvironment</text>
</a>
</g>
</g>
<!-- Node42&#45;&gt;Node43 -->
<g id="edge45" class="edge">
<title>Node42&#45;&gt;Node43</title>
<path fill="none" stroke="#191970" d="M714.0095,-48C734.1081,-48 771.6047,-48 803.9513,-48"/>
<polygon fill="#191970" stroke="#191970" points="804.2439,-51.5001 814.2439,-48 804.2438,-44.5001 804.2439,-51.5001"/>
</g>
<!-- Node44 -->
<g id="node43" class="node">
<title>Node44</title>
<g id="a_node43"><a xlink:href="util_8h.html#a66791919e137c59061e988d2d87ee9a1" target="_top" xlink:title="SetupNetworking">
<polygon fill="#ffffff" stroke="#000000" points="817,-.5 817,-19.5 909,-19.5 909,-.5 817,-.5"/>
<text text-anchor="middle" x="863" y="-7.5" font-family="Helvetica,sans-Serif" font-size="10.00" fill="#000000">SetupNetworking</text>
</a>
</g>
</g>
<!-- Node42&#45;&gt;Node44 -->
<g id="edge46" class="edge">
<title>Node42&#45;&gt;Node44</title>
<path fill="none" stroke="#191970" d="M714.0095,-44.6278C735.847,-39.5524 778.2233,-29.7035 812.2168,-21.8028"/>
<polygon fill="#191970" stroke="#191970" points="813.0627,-25.1996 822.0107,-19.5266 811.478,-18.3813 813.0627,-25.1996"/>
</g>
<!-- Node46&#45;&gt;Node8 -->
<g id="edge51" class="edge">
<title>Node46&#45;&gt;Node8</title>
<path fill="none" stroke="#191970" d="M390.8166,-223.5214C401.2549,-226.1296 412.1113,-229.2846 422,-233 438.9358,-239.3631 441.6253,-244.3073 458,-252 469.627,-257.4623 482.5696,-262.9772 494.1322,-267.7098"/>
<polygon fill="#191970" stroke="#191970" points="492.8782,-270.978 503.461,-271.4828 495.5028,-264.4886 492.8782,-270.978"/>
</g>
<!-- Node47 -->
<g id="node46" class="node">
<title>Node47</title>
<g id="a_node46"><a xlink:href="class_c_crypto_key_store.html#a52919fa284a3aa10f1b4bd6018b6dbee" target="_top" xlink:title="CCryptoKeyStore::IsLocked">
<polygon fill="#ffffff" stroke="#000000" points="458,-223.5 458,-242.5 598,-242.5 598,-223.5 458,-223.5"/>
<text text-anchor="middle" x="528" y="-230.5" font-family="Helvetica,sans-Serif" font-size="10.00" fill="#000000">CCryptoKeyStore::IsLocked</text>
</a>
</g>
</g>
<!-- Node46&#45;&gt;Node47 -->
<g id="edge50" class="edge">
<title>Node46&#45;&gt;Node47</title>
<path fill="none" stroke="#191970" d="M404.7118,-220.406C418.4601,-221.8104 433.1997,-223.3161 447.5346,-224.7804"/>
<polygon fill="#191970" stroke="#191970" points="447.5773,-228.3029 457.8812,-225.8373 448.2887,-221.3391 447.5773,-228.3029"/>
</g>
<!-- Node49 -->
<g id="node48" class="node">
<title>Node49</title>
<g id="a_node48"><a xlink:href="class_uni_value.html#a4c9a5fa9114affbf31f6e346c032be12" target="_top" xlink:title="UniValue::getValStr">
<polygon fill="#ffffff" stroke="#000000" points="476.5,-109.5 476.5,-128.5 579.5,-128.5 579.5,-109.5 476.5,-109.5"/>
<text text-anchor="middle" x="528" y="-116.5" font-family="Helvetica,sans-Serif" font-size="10.00" fill="#000000">UniValue::getValStr</text>
</a>
</g>
</g>
<!-- Node48&#45;&gt;Node49 -->
<g id="edge53" class="edge">
<title>Node48&#45;&gt;Node49</title>
<path fill="none" stroke="#191970" d="M388.4559,-133.2545C411.9096,-130.8587 440.6845,-127.9193 465.9993,-125.3334"/>
<polygon fill="#191970" stroke="#191970" points="466.6502,-128.7852 476.2427,-124.287 465.9388,-121.8215 466.6502,-128.7852"/>
</g>
<!-- Node51 -->
<g id="node50" class="node">
<title>Node51</title>
<g id="a_node50"><a xlink:href="assets_2assets_8cpp.html#aa44077cc80b096517e8e63d9abf9bcfa" target="_top" xlink:title="IsAssetNameValid">
<polygon fill="#ffffff" stroke="#000000" points="479,-71.5 479,-90.5 577,-90.5 577,-71.5 479,-71.5"/>
<text text-anchor="middle" x="528" y="-78.5" font-family="Helvetica,sans-Serif" font-size="10.00" fill="#000000">IsAssetNameValid</text>
</a>
</g>
</g>
<!-- Node50&#45;&gt;Node51 -->
<g id="edge55" class="edge">
<title>Node50&#45;&gt;Node51</title>
<path fill="none" stroke="#191970" d="M401.619,-93.9099C423.1758,-91.7078 447.4914,-89.224 468.9952,-87.0274"/>
<polygon fill="#191970" stroke="#191970" points="469.3857,-90.5058 478.9782,-86.0076 468.6743,-83.542 469.3857,-90.5058"/>
</g>
</g>
</svg>
