<?xml version="1.0" encoding="UTF-8" standalone="no"?>
<!DOCTYPE svg PUBLIC "-//W3C//DTD SVG 1.1//EN"
 "http://www.w3.org/Graphics/SVG/1.1/DTD/svg11.dtd">
<!-- Generated by graphviz version 2.40.1 (20161225.0304)
 -->
<!-- Title: CAddressIndexIteratorAssetKey::CAddressIndexIteratorAssetKey Pages: 1 -->
<svg width="474pt" height="39pt"
 viewBox="0.00 0.00 474.00 39.00" xmlns="http://www.w3.org/2000/svg" xmlns:xlink="http://www.w3.org/1999/xlink">
<g id="graph0" class="graph" transform="scale(1 1) rotate(0) translate(4 35)">
<title>CAddressIndexIteratorAssetKey::CAddressIndexIteratorAssetKey</title>
<polygon fill="#ffffff" stroke="transparent" points="-4,4 -4,-35 470,-35 470,4 -4,4"/>
<!-- Node4 -->
<g id="node1" class="node">
<title>Node4</title>
<polygon fill="#bfbfbf" stroke="#000000" points="0,-.5 0,-30.5 181,-30.5 181,-.5 0,-.5"/>
<text text-anchor="start" x="8" y="-18.5" font-family="Helvetica,sans-Serif" font-size="10.00" fill="#000000">CAddressIndexIteratorAsset</text>
<text text-anchor="middle" x="90.5" y="-7.5" font-family="Helvetica,sans-Serif" font-size="10.00" fill="#000000">Key::CAddressIndexIteratorAssetKey</text>
</g>
<!-- Node5 -->
<g id="node2" class="node">
<title>Node5</title>
<g id="a_node2"><a xlink:href="struct_c_address_unspent_key.html#a0960f9a707b13deb87151cfdbcaaf9f0" target="_top" xlink:title="CAddressUnspentKey\l::SetNull">
<polygon fill="#ffffff" stroke="#000000" points="217,-.5 217,-30.5 331,-30.5 331,-.5 217,-.5"/>
<text text-anchor="start" x="225" y="-18.5" font-family="Helvetica,sans-Serif" font-size="10.00" fill="#000000">CAddressUnspentKey</text>
<text text-anchor="middle" x="274" y="-7.5" font-family="Helvetica,sans-Serif" font-size="10.00" fill="#000000">::SetNull</text>
</a>
</g>
</g>
<!-- Node4&#45;&gt;Node5 -->
<g id="edge1" class="edge">
<title>Node4&#45;&gt;Node5</title>
<path fill="none" stroke="#191970" d="M181.1748,-15.5C189.8409,-15.5 198.5199,-15.5 206.9022,-15.5"/>
<polygon fill="#191970" stroke="#191970" points="206.9591,-19.0001 216.959,-15.5 206.959,-12.0001 206.9591,-19.0001"/>
</g>
<!-- Node6 -->
<g id="node3" class="node">
<title>Node6</title>
<g id="a_node3"><a xlink:href="classbase__blob.html#aa340be5328d911272eded433d03f30a3" target="_top" xlink:title="base_blob::SetNull">
<polygon fill="#ffffff" stroke="#000000" points="367,-6 367,-25 466,-25 466,-6 367,-6"/>
<text text-anchor="middle" x="416.5" y="-13" font-family="Helvetica,sans-Serif" font-size="10.00" fill="#000000">base_blob::SetNull</text>
</a>
</g>
</g>
<!-- Node5&#45;&gt;Node6 -->
<g id="edge2" class="edge">
<title>Node5&#45;&gt;Node6</title>
<path fill="none" stroke="#191970" d="M331.1391,-15.5C339.5065,-15.5 348.1443,-15.5 356.5657,-15.5"/>
<polygon fill="#191970" stroke="#191970" points="356.698,-19.0001 366.6979,-15.5 356.6979,-12.0001 356.698,-19.0001"/>
</g>
</g>
</svg>
