<?xml version="1.0" encoding="UTF-8" standalone="no"?>
<!DOCTYPE svg PUBLIC "-//W3C//DTD SVG 1.1//EN"
 "http://www.w3.org/Graphics/SVG/1.1/DTD/svg11.dtd">
<!-- Generated by graphviz version 2.40.1 (20161225.0304)
 -->
<!-- Title: src/qt/transactionview.h Pages: 1 -->
<svg width="875pt" height="207pt"
 viewBox="0.00 0.00 875.00 207.00" xmlns="http://www.w3.org/2000/svg" xmlns:xlink="http://www.w3.org/1999/xlink">
<g id="graph0" class="graph" transform="scale(1 1) rotate(0) translate(4 203)">
<title>src/qt/transactionview.h</title>
<polygon fill="#ffffff" stroke="transparent" points="-4,4 -4,-203 871,-203 871,4 -4,4"/>
<!-- Node0 -->
<g id="node1" class="node">
<title>Node0</title>
<polygon fill="#bfbfbf" stroke="#000000" points="490,-179.5 490,-198.5 611,-198.5 611,-179.5 490,-179.5"/>
<text text-anchor="middle" x="550.5" y="-186.5" font-family="Helvetica,sans-Serif" font-size="10.00" fill="#000000">src/qt/transactionview.h</text>
</g>
<!-- Node1 -->
<g id="node2" class="node">
<title>Node1</title>
<g id="a_node2"><a xlink:href="guiutil_8h.html" target="_top" xlink:title="guiutil.h">
<polygon fill="#ffffff" stroke="#000000" points="454.5,-123.5 454.5,-142.5 504.5,-142.5 504.5,-123.5 454.5,-123.5"/>
<text text-anchor="middle" x="479.5" y="-130.5" font-family="Helvetica,sans-Serif" font-size="10.00" fill="#000000">guiutil.h</text>
</a>
</g>
</g>
<!-- Node0&#45;&gt;Node1 -->
<g id="edge1" class="edge">
<title>Node0&#45;&gt;Node1</title>
<path fill="none" stroke="#191970" d="M538.1327,-179.2455C527.5446,-170.8943 512.0936,-158.7076 499.7107,-148.9408"/>
<polygon fill="#191970" stroke="#191970" points="501.7447,-146.0875 491.7255,-142.6427 497.4097,-151.5837 501.7447,-146.0875"/>
</g>
<!-- Node18 -->
<g id="node19" class="node">
<title>Node18</title>
<polygon fill="#ffffff" stroke="#bfbfbf" points="523,-123.5 523,-142.5 578,-142.5 578,-123.5 523,-123.5"/>
<text text-anchor="middle" x="550.5" y="-130.5" font-family="Helvetica,sans-Serif" font-size="10.00" fill="#000000">QWidget</text>
</g>
<!-- Node0&#45;&gt;Node18 -->
<g id="edge18" class="edge">
<title>Node0&#45;&gt;Node18</title>
<path fill="none" stroke="#191970" d="M550.5,-179.2455C550.5,-171.9382 550.5,-161.6944 550.5,-152.7046"/>
<polygon fill="#191970" stroke="#191970" points="554.0001,-152.6426 550.5,-142.6427 547.0001,-152.6427 554.0001,-152.6426"/>
</g>
<!-- Node19 -->
<g id="node20" class="node">
<title>Node19</title>
<polygon fill="#ffffff" stroke="#bfbfbf" points="596,-123.5 596,-142.5 663,-142.5 663,-123.5 596,-123.5"/>
<text text-anchor="middle" x="629.5" y="-130.5" font-family="Helvetica,sans-Serif" font-size="10.00" fill="#000000">QKeyEvent</text>
</g>
<!-- Node0&#45;&gt;Node19 -->
<g id="edge19" class="edge">
<title>Node0&#45;&gt;Node19</title>
<path fill="none" stroke="#191970" d="M564.2607,-179.2455C576.1552,-170.814 593.565,-158.4729 607.4085,-148.6598"/>
<polygon fill="#191970" stroke="#191970" points="609.7628,-151.2811 615.8969,-142.6427 605.7146,-145.5704 609.7628,-151.2811"/>
</g>
<!-- Node2 -->
<g id="node3" class="node">
<title>Node2</title>
<g id="a_node3"><a xlink:href="amount_8h.html" target="_top" xlink:title="amount.h">
<polygon fill="#ffffff" stroke="#000000" points="75,-67.5 75,-86.5 132,-86.5 132,-67.5 75,-67.5"/>
<text text-anchor="middle" x="103.5" y="-74.5" font-family="Helvetica,sans-Serif" font-size="10.00" fill="#000000">amount.h</text>
</a>
</g>
</g>
<!-- Node1&#45;&gt;Node2 -->
<g id="edge2" class="edge">
<title>Node1&#45;&gt;Node2</title>
<path fill="none" stroke="#191970" d="M454.2457,-129.2387C389.9267,-119.6593 219.5883,-94.2897 142.443,-82.8"/>
<polygon fill="#191970" stroke="#191970" points="142.6032,-79.2854 132.1967,-81.274 141.572,-86.209 142.6032,-79.2854"/>
</g>
<!-- Node4 -->
<g id="node5" class="node">
<title>Node4</title>
<g id="a_node5"><a xlink:href="fs_8h.html" target="_top" xlink:title="fs.h">
<polygon fill="#ffffff" stroke="#000000" points="182,-67.5 182,-86.5 215,-86.5 215,-67.5 182,-67.5"/>
<text text-anchor="middle" x="198.5" y="-74.5" font-family="Helvetica,sans-Serif" font-size="10.00" fill="#000000">fs.h</text>
</a>
</g>
</g>
<!-- Node1&#45;&gt;Node4 -->
<g id="edge4" class="edge">
<title>Node1&#45;&gt;Node4</title>
<path fill="none" stroke="#191970" d="M454.1701,-130.0419C409.5614,-124.4908 314.0551,-111.079 224.8503,-86.6427"/>
<polygon fill="#191970" stroke="#191970" points="225.6999,-83.2461 215.127,-83.9274 223.8171,-89.9881 225.6999,-83.2461"/>
</g>
<!-- Node10 -->
<g id="node11" class="node">
<title>Node10</title>
<polygon fill="#ffffff" stroke="#bfbfbf" points="233.5,-67.5 233.5,-86.5 283.5,-86.5 283.5,-67.5 233.5,-67.5"/>
<text text-anchor="middle" x="258.5" y="-74.5" font-family="Helvetica,sans-Serif" font-size="10.00" fill="#000000">QEvent</text>
</g>
<!-- Node1&#45;&gt;Node10 -->
<g id="edge10" class="edge">
<title>Node1&#45;&gt;Node10</title>
<path fill="none" stroke="#191970" d="M454.4567,-127.1079C418.6686,-118.6195 350.8758,-102.2861 293.5,-87 293.4008,-86.9736 293.3014,-86.9471 293.2019,-86.9205"/>
<polygon fill="#191970" stroke="#191970" points="294.2746,-83.5855 283.7052,-84.3182 292.4246,-90.3366 294.2746,-83.5855"/>
</g>
<!-- Node11 -->
<g id="node12" class="node">
<title>Node11</title>
<polygon fill="#ffffff" stroke="#bfbfbf" points="302,-67.5 302,-86.5 379,-86.5 379,-67.5 302,-67.5"/>
<text text-anchor="middle" x="340.5" y="-74.5" font-family="Helvetica,sans-Serif" font-size="10.00" fill="#000000">QHeaderView</text>
</g>
<!-- Node1&#45;&gt;Node11 -->
<g id="edge11" class="edge">
<title>Node1&#45;&gt;Node11</title>
<path fill="none" stroke="#191970" d="M455.605,-123.3733C432.9918,-114.2629 398.8458,-100.5062 373.6127,-90.3404"/>
<polygon fill="#191970" stroke="#191970" points="374.6666,-86.9917 364.0831,-86.5011 372.0507,-93.4845 374.6666,-86.9917"/>
</g>
<!-- Node12 -->
<g id="node13" class="node">
<title>Node12</title>
<polygon fill="#ffffff" stroke="#bfbfbf" points="397,-67.5 397,-86.5 478,-86.5 478,-67.5 397,-67.5"/>
<text text-anchor="middle" x="437.5" y="-74.5" font-family="Helvetica,sans-Serif" font-size="10.00" fill="#000000">QMessageBox</text>
</g>
<!-- Node1&#45;&gt;Node12 -->
<g id="edge12" class="edge">
<title>Node1&#45;&gt;Node12</title>
<path fill="none" stroke="#191970" d="M472.1842,-123.2455C466.2821,-115.3761 457.8258,-104.101 450.7406,-94.6542"/>
<polygon fill="#191970" stroke="#191970" points="453.5321,-92.5427 444.732,-86.6427 447.932,-96.7427 453.5321,-92.5427"/>
</g>
<!-- Node13 -->
<g id="node14" class="node">
<title>Node13</title>
<polygon fill="#ffffff" stroke="#bfbfbf" points="496,-67.5 496,-86.5 549,-86.5 549,-67.5 496,-67.5"/>
<text text-anchor="middle" x="522.5" y="-74.5" font-family="Helvetica,sans-Serif" font-size="10.00" fill="#000000">QObject</text>
</g>
<!-- Node1&#45;&gt;Node13 -->
<g id="edge13" class="edge">
<title>Node1&#45;&gt;Node13</title>
<path fill="none" stroke="#191970" d="M486.99,-123.2455C493.0326,-115.3761 501.6903,-104.101 508.9441,-94.6542"/>
<polygon fill="#191970" stroke="#191970" points="511.7815,-96.7058 515.0958,-86.6427 506.2295,-92.4426 511.7815,-96.7058"/>
</g>
<!-- Node14 -->
<g id="node15" class="node">
<title>Node14</title>
<polygon fill="#ffffff" stroke="#bfbfbf" points="567.5,-67.5 567.5,-86.5 645.5,-86.5 645.5,-67.5 567.5,-67.5"/>
<text text-anchor="middle" x="606.5" y="-74.5" font-family="Helvetica,sans-Serif" font-size="10.00" fill="#000000">QProgressBar</text>
</g>
<!-- Node1&#45;&gt;Node14 -->
<g id="edge14" class="edge">
<title>Node1&#45;&gt;Node14</title>
<path fill="none" stroke="#191970" d="M501.3321,-123.3733C521.8103,-114.3435 552.6399,-100.7494 575.6319,-90.6111"/>
<polygon fill="#191970" stroke="#191970" points="577.215,-93.7383 584.9528,-86.5011 574.3907,-87.3333 577.215,-93.7383"/>
</g>
<!-- Node15 -->
<g id="node16" class="node">
<title>Node15</title>
<polygon fill="#ffffff" stroke="#bfbfbf" points="663.5,-67.5 663.5,-86.5 713.5,-86.5 713.5,-67.5 663.5,-67.5"/>
<text text-anchor="middle" x="688.5" y="-74.5" font-family="Helvetica,sans-Serif" font-size="10.00" fill="#000000">QString</text>
</g>
<!-- Node1&#45;&gt;Node15 -->
<g id="edge15" class="edge">
<title>Node1&#45;&gt;Node15</title>
<path fill="none" stroke="#191970" d="M504.7127,-125.7098C508.0014,-124.7843 511.3285,-123.8607 514.5,-123 573.4763,-106.9952 590.8841,-104.3075 653.2972,-87.2652"/>
<polygon fill="#191970" stroke="#191970" points="654.5611,-90.5477 663.2765,-84.5234 652.7066,-83.7978 654.5611,-90.5477"/>
</g>
<!-- Node16 -->
<g id="node17" class="node">
<title>Node16</title>
<polygon fill="#ffffff" stroke="#bfbfbf" points="731.5,-67.5 731.5,-86.5 801.5,-86.5 801.5,-67.5 731.5,-67.5"/>
<text text-anchor="middle" x="766.5" y="-74.5" font-family="Helvetica,sans-Serif" font-size="10.00" fill="#000000">QTableView</text>
</g>
<!-- Node1&#45;&gt;Node16 -->
<g id="edge16" class="edge">
<title>Node1&#45;&gt;Node16</title>
<path fill="none" stroke="#191970" d="M504.6517,-125.4659C507.9504,-124.5803 511.2966,-123.7326 514.5,-123 602.9207,-102.7776 628.7999,-105.2087 721.661,-87.0768"/>
<polygon fill="#191970" stroke="#191970" points="722.3412,-90.5102 731.4708,-85.1342 720.9814,-83.6435 722.3412,-90.5102"/>
</g>
<!-- Node17 -->
<g id="node18" class="node">
<title>Node17</title>
<polygon fill="#ffffff" stroke="#bfbfbf" points="820,-67.5 820,-86.5 867,-86.5 867,-67.5 820,-67.5"/>
<text text-anchor="middle" x="843.5" y="-74.5" font-family="Helvetica,sans-Serif" font-size="10.00" fill="#000000">QLabel</text>
</g>
<!-- Node1&#45;&gt;Node17 -->
<g id="edge17" class="edge">
<title>Node1&#45;&gt;Node17</title>
<path fill="none" stroke="#191970" d="M504.6185,-125.3118C507.9226,-124.4514 511.2791,-123.6518 514.5,-123 641.2209,-97.3568 678.9869,-113.4856 809.8334,-86.7931"/>
<polygon fill="#191970" stroke="#191970" points="810.7597,-90.1753 819.8345,-84.7073 809.3305,-83.3227 810.7597,-90.1753"/>
</g>
<!-- Node3 -->
<g id="node4" class="node">
<title>Node3</title>
<polygon fill="#ffffff" stroke="#bfbfbf" points="0,-6 0,-25 49,-25 49,-6 0,-6"/>
<text text-anchor="middle" x="24.5" y="-13" font-family="Helvetica,sans-Serif" font-size="10.00" fill="#000000">stdint.h</text>
</g>
<!-- Node2&#45;&gt;Node3 -->
<g id="edge3" class="edge">
<title>Node2&#45;&gt;Node3</title>
<path fill="none" stroke="#191970" d="M91.1563,-67.3906C78.7497,-57.7324 59.4157,-42.6812 44.7587,-31.271"/>
<polygon fill="#191970" stroke="#191970" points="46.7979,-28.423 36.7571,-25.0419 42.4979,-33.9466 46.7979,-28.423"/>
</g>
<!-- Node5 -->
<g id="node6" class="node">
<title>Node5</title>
<polygon fill="#ffffff" stroke="#bfbfbf" points="67.5,-6 67.5,-25 113.5,-25 113.5,-6 67.5,-6"/>
<text text-anchor="middle" x="90.5" y="-13" font-family="Helvetica,sans-Serif" font-size="10.00" fill="#000000">stdio.h</text>
</g>
<!-- Node4&#45;&gt;Node5 -->
<g id="edge5" class="edge">
<title>Node4&#45;&gt;Node5</title>
<path fill="none" stroke="#191970" d="M181.625,-67.3906C164.0302,-57.3713 136.2434,-41.5483 115.9759,-30.0071"/>
<polygon fill="#191970" stroke="#191970" points="117.6783,-26.9489 107.2565,-25.0419 114.2144,-33.0318 117.6783,-26.9489"/>
</g>
<!-- Node6 -->
<g id="node7" class="node">
<title>Node6</title>
<polygon fill="#ffffff" stroke="#bfbfbf" points="132,-6 132,-25 173,-25 173,-6 132,-6"/>
<text text-anchor="middle" x="152.5" y="-13" font-family="Helvetica,sans-Serif" font-size="10.00" fill="#000000">string</text>
</g>
<!-- Node4&#45;&gt;Node6 -->
<g id="edge6" class="edge">
<title>Node4&#45;&gt;Node6</title>
<path fill="none" stroke="#191970" d="M191.3125,-67.3906C184.5334,-58.3273 174.2022,-44.5149 165.9027,-33.4188"/>
<polygon fill="#191970" stroke="#191970" points="168.5812,-31.1563 159.7888,-25.2449 162.9757,-35.349 168.5812,-31.1563"/>
</g>
<!-- Node7 -->
<g id="node8" class="node">
<title>Node7</title>
<polygon fill="#ffffff" stroke="#bfbfbf" points="191,-6 191,-25 298,-25 298,-6 191,-6"/>
<text text-anchor="middle" x="244.5" y="-13" font-family="Helvetica,sans-Serif" font-size="10.00" fill="#000000">boost/filesystem.hpp</text>
</g>
<!-- Node4&#45;&gt;Node7 -->
<g id="edge7" class="edge">
<title>Node4&#45;&gt;Node7</title>
<path fill="none" stroke="#191970" d="M205.6875,-67.3906C212.4666,-58.3273 222.7978,-44.5149 231.0973,-33.4188"/>
<polygon fill="#191970" stroke="#191970" points="234.0243,-35.349 237.2112,-25.2449 228.4188,-31.1563 234.0243,-35.349"/>
</g>
<!-- Node8 -->
<g id="node9" class="node">
<title>Node8</title>
<polygon fill="#ffffff" stroke="#bfbfbf" points="316,-6 316,-25 459,-25 459,-6 316,-6"/>
<text text-anchor="middle" x="387.5" y="-13" font-family="Helvetica,sans-Serif" font-size="10.00" fill="#000000">boost/filesystem/fstream.hpp</text>
</g>
<!-- Node4&#45;&gt;Node8 -->
<g id="edge8" class="edge">
<title>Node4&#45;&gt;Node8</title>
<path fill="none" stroke="#191970" d="M215.2279,-70.3934C218.2997,-69.2295 221.4872,-68.0542 224.5,-67 265.2444,-52.7429 312.3092,-38.0614 345.3588,-28.0404"/>
<polygon fill="#191970" stroke="#191970" points="346.582,-31.3272 355.1432,-25.0856 344.5583,-24.6261 346.582,-31.3272"/>
</g>
<!-- Node9 -->
<g id="node10" class="node">
<title>Node9</title>
<polygon fill="#ffffff" stroke="#bfbfbf" points="477.5,-.5 477.5,-30.5 599.5,-30.5 599.5,-.5 477.5,-.5"/>
<text text-anchor="start" x="485.5" y="-18.5" font-family="Helvetica,sans-Serif" font-size="10.00" fill="#000000">boost/filesystem/detail</text>
<text text-anchor="middle" x="538.5" y="-7.5" font-family="Helvetica,sans-Serif" font-size="10.00" fill="#000000">/utf8_codecvt_facet.hpp</text>
</g>
<!-- Node4&#45;&gt;Node9 -->
<g id="edge9" class="edge">
<title>Node4&#45;&gt;Node9</title>
<path fill="none" stroke="#191970" d="M215.1049,-69.9912C218.1892,-68.8682 221.4128,-67.8108 224.5,-67 327.4168,-39.9711 358.863,-50.21 467.4245,-31.0959"/>
<polygon fill="#191970" stroke="#191970" points="468.2495,-34.5037 477.4689,-29.2832 467.0062,-27.6149 468.2495,-34.5037"/>
</g>
</g>
</svg>
