<?xml version="1.0" encoding="UTF-8" standalone="no"?>
<!DOCTYPE svg PUBLIC "-//W3C//DTD SVG 1.1//EN"
 "http://www.w3.org/Graphics/SVG/1.1/DTD/svg11.dtd">
<!-- Generated by graphviz version 2.40.1 (20161225.0304)
 -->
<!-- Title: DateTimeStrFormat Pages: 1 -->
<svg width="568pt" height="230pt"
 viewBox="0.00 0.00 568.00 230.00" xmlns="http://www.w3.org/2000/svg" xmlns:xlink="http://www.w3.org/1999/xlink">
<g id="graph0" class="graph" transform="scale(1 1) rotate(0) translate(4 226)">
<title>DateTimeStrFormat</title>
<polygon fill="#ffffff" stroke="transparent" points="-4,4 -4,-226 564,-226 564,4 -4,4"/>
<!-- Node1 -->
<g id="node1" class="node">
<title>Node1</title>
<polygon fill="#bfbfbf" stroke="#000000" points="0,-98.5 0,-117.5 103,-117.5 103,-98.5 0,-98.5"/>
<text text-anchor="middle" x="51.5" y="-105.5" font-family="Helvetica,sans-Serif" font-size="10.00" fill="#000000">DateTimeStrFormat</text>
</g>
<!-- Node2 -->
<g id="node2" class="node">
<title>Node2</title>
<g id="a_node2"><a xlink:href="init_8h.html#a267bb31fa79be7173fe5d2d8ce471145" target="_top" xlink:title="Raven core main initialization. ">
<polygon fill="#ffffff" stroke="#000000" points="178.5,-164.5 178.5,-183.5 246.5,-183.5 246.5,-164.5 178.5,-164.5"/>
<text text-anchor="middle" x="212.5" y="-171.5" font-family="Helvetica,sans-Serif" font-size="10.00" fill="#000000">AppInitMain</text>
</a>
</g>
</g>
<!-- Node1&#45;&gt;Node2 -->
<g id="edge1" class="edge">
<title>Node1&#45;&gt;Node2</title>
<path fill="none" stroke="#191970" d="M84.4859,-121.5222C115.7158,-134.3245 161.8042,-153.2179 189.3222,-164.4985"/>
<polygon fill="#191970" stroke="#191970" points="85.4911,-118.1516 74.9108,-117.597 82.8359,-124.6285 85.4911,-118.1516"/>
</g>
<!-- Node6 -->
<g id="node6" class="node">
<title>Node6</title>
<g id="a_node6"><a xlink:href="class_payment_server.html#a30e543bb181bb74366741459599d2118" target="_top" xlink:title="PaymentServer::verifyExpired">
<polygon fill="#ffffff" stroke="#000000" points="139,-98.5 139,-117.5 286,-117.5 286,-98.5 139,-98.5"/>
<text text-anchor="middle" x="212.5" y="-105.5" font-family="Helvetica,sans-Serif" font-size="10.00" fill="#000000">PaymentServer::verifyExpired</text>
</a>
</g>
</g>
<!-- Node1&#45;&gt;Node6 -->
<g id="edge5" class="edge">
<title>Node1&#45;&gt;Node6</title>
<path fill="none" stroke="#191970" d="M113.5992,-108C121.8454,-108 130.3637,-108 138.7825,-108"/>
<polygon fill="#191970" stroke="#191970" points="113.3277,-104.5001 103.3276,-108 113.3276,-111.5001 113.3277,-104.5001"/>
</g>
<!-- Node9 -->
<g id="node9" class="node">
<title>Node9</title>
<g id="a_node9"><a xlink:href="class_c_block_file_info.html#a2754dd93534e2fda8674ffc5d007611e" target="_top" xlink:title="CBlockFileInfo::ToString">
<polygon fill="#ffffff" stroke="#000000" points="150.5,-38.5 150.5,-57.5 274.5,-57.5 274.5,-38.5 150.5,-38.5"/>
<text text-anchor="middle" x="212.5" y="-45.5" font-family="Helvetica,sans-Serif" font-size="10.00" fill="#000000">CBlockFileInfo::ToString</text>
</a>
</g>
</g>
<!-- Node1&#45;&gt;Node9 -->
<g id="edge8" class="edge">
<title>Node1&#45;&gt;Node9</title>
<path fill="none" stroke="#191970" d="M86.7346,-94.8691C116.9531,-83.6075 159.7798,-67.6473 186.8424,-57.5618"/>
<polygon fill="#191970" stroke="#191970" points="85.1591,-91.721 77.0109,-98.4928 87.6036,-98.2803 85.1591,-91.721"/>
</g>
<!-- Node3 -->
<g id="node3" class="node">
<title>Node3</title>
<g id="a_node3"><a xlink:href="class_raven_core.html#ad8824da7414b72f26061a1e914d66b59" target="_top" xlink:title="RavenCore::initialize">
<polygon fill="#ffffff" stroke="#000000" points="350.5,-202.5 350.5,-221.5 457.5,-221.5 457.5,-202.5 350.5,-202.5"/>
<text text-anchor="middle" x="404" y="-209.5" font-family="Helvetica,sans-Serif" font-size="10.00" fill="#000000">RavenCore::initialize</text>
</a>
</g>
</g>
<!-- Node2&#45;&gt;Node3 -->
<g id="edge2" class="edge">
<title>Node2&#45;&gt;Node3</title>
<path fill="none" stroke="#191970" d="M256.8202,-182.7946C286.5193,-188.6879 325.6052,-196.4438 356.0336,-202.4819"/>
<polygon fill="#191970" stroke="#191970" points="257.2264,-179.307 246.7364,-180.7936 255.8639,-186.1732 257.2264,-179.307"/>
</g>
<!-- Node4 -->
<g id="node4" class="node">
<title>Node4</title>
<g id="a_node4"><a xlink:href="ravend_8cpp.html#ac59316b767e6984e1285f0531275286b" target="_top" xlink:title="AppInit">
<polygon fill="#ffffff" stroke="#000000" points="380.5,-164.5 380.5,-183.5 427.5,-183.5 427.5,-164.5 380.5,-164.5"/>
<text text-anchor="middle" x="404" y="-171.5" font-family="Helvetica,sans-Serif" font-size="10.00" fill="#000000">AppInit</text>
</a>
</g>
</g>
<!-- Node2&#45;&gt;Node4 -->
<g id="edge3" class="edge">
<title>Node2&#45;&gt;Node4</title>
<path fill="none" stroke="#191970" d="M257.1437,-174C295.6215,-174 349.6746,-174 380.3293,-174"/>
<polygon fill="#191970" stroke="#191970" points="256.7364,-170.5001 246.7364,-174 256.7363,-177.5001 256.7364,-170.5001"/>
</g>
<!-- Node5 -->
<g id="node5" class="node">
<title>Node5</title>
<g id="a_node5"><a xlink:href="ravend_8cpp.html#a0ddf1224851353fc92bfbff6f499fa97" target="_top" xlink:title="main">
<polygon fill="#ffffff" stroke="#000000" points="522,-164.5 522,-183.5 560,-183.5 560,-164.5 522,-164.5"/>
<text text-anchor="middle" x="541" y="-171.5" font-family="Helvetica,sans-Serif" font-size="10.00" fill="#000000">main</text>
</a>
</g>
</g>
<!-- Node4&#45;&gt;Node5 -->
<g id="edge4" class="edge">
<title>Node4&#45;&gt;Node5</title>
<path fill="none" stroke="#191970" d="M437.8755,-174C464.2849,-174 500.0102,-174 521.7319,-174"/>
<polygon fill="#191970" stroke="#191970" points="437.5512,-170.5001 427.5511,-174 437.5511,-177.5001 437.5512,-170.5001"/>
</g>
<!-- Node7 -->
<g id="node7" class="node">
<title>Node7</title>
<g id="a_node7"><a xlink:href="class_payment_server.html#a19092e1d4d7c6eee3ec9d4390d11a092" target="_top" xlink:title="PaymentServer::processPayment\lRequest">
<polygon fill="#ffffff" stroke="#000000" points="322,-115 322,-145 486,-145 486,-115 322,-115"/>
<text text-anchor="start" x="330" y="-133" font-family="Helvetica,sans-Serif" font-size="10.00" fill="#000000">PaymentServer::processPayment</text>
<text text-anchor="middle" x="404" y="-122" font-family="Helvetica,sans-Serif" font-size="10.00" fill="#000000">Request</text>
</a>
</g>
</g>
<!-- Node6&#45;&gt;Node7 -->
<g id="edge6" class="edge">
<title>Node6&#45;&gt;Node7</title>
<path fill="none" stroke="#191970" d="M296.226,-117.6187C304.7765,-118.601 313.4569,-119.5982 321.9887,-120.5783"/>
<polygon fill="#191970" stroke="#191970" points="296.5991,-114.1386 286.265,-116.4743 295.8001,-121.0928 296.5991,-114.1386"/>
</g>
<!-- Node8 -->
<g id="node8" class="node">
<title>Node8</title>
<g id="a_node8"><a xlink:href="class_wallet_model.html#a53443aca544c824550f21e5f87e4ec39" target="_top" xlink:title="WalletModel::sendCoins">
<polygon fill="#ffffff" stroke="#000000" points="342.5,-76.5 342.5,-95.5 465.5,-95.5 465.5,-76.5 342.5,-76.5"/>
<text text-anchor="middle" x="404" y="-83.5" font-family="Helvetica,sans-Serif" font-size="10.00" fill="#000000">WalletModel::sendCoins</text>
</a>
</g>
</g>
<!-- Node6&#45;&gt;Node8 -->
<g id="edge7" class="edge">
<title>Node6&#45;&gt;Node8</title>
<path fill="none" stroke="#191970" d="M296.3567,-98.3663C311.8322,-96.5885 327.7288,-94.7622 342.3954,-93.0773"/>
<polygon fill="#191970" stroke="#191970" points="295.8001,-94.9072 286.265,-99.5257 296.5991,-101.8614 295.8001,-94.9072"/>
</g>
<!-- Node10 -->
<g id="node10" class="node">
<title>Node10</title>
<g id="a_node10"><a xlink:href="class_c_block_file_info.html#a4d08bfcfc45a16b40266255f8597c949" target="_top" xlink:title="CBlockFileInfo::CBlockFileInfo">
<polygon fill="#ffffff" stroke="#000000" points="328,-38.5 328,-57.5 480,-57.5 480,-38.5 328,-38.5"/>
<text text-anchor="middle" x="404" y="-45.5" font-family="Helvetica,sans-Serif" font-size="10.00" fill="#000000">CBlockFileInfo::CBlockFileInfo</text>
</a>
</g>
</g>
<!-- Node9&#45;&gt;Node10 -->
<g id="edge9" class="edge">
<title>Node9&#45;&gt;Node10</title>
<path fill="none" stroke="#191970" d="M284.7579,-48C298.8061,-48 313.5734,-48 327.7456,-48"/>
<polygon fill="#191970" stroke="#191970" points="284.6746,-44.5001 274.6746,-48 284.6745,-51.5001 284.6746,-44.5001"/>
</g>
<!-- Node11 -->
<g id="node11" class="node">
<title>Node11</title>
<g id="a_node11"><a xlink:href="class_c_disk_block_index.html#a347eafa0667f8641f73062b48c217d61" target="_top" xlink:title="CDiskBlockIndex::ToString">
<polygon fill="#ffffff" stroke="#000000" points="336,-.5 336,-19.5 472,-19.5 472,-.5 336,-.5"/>
<text text-anchor="middle" x="404" y="-7.5" font-family="Helvetica,sans-Serif" font-size="10.00" fill="#000000">CDiskBlockIndex::ToString</text>
</a>
</g>
</g>
<!-- Node9&#45;&gt;Node11 -->
<g id="edge10" class="edge">
<title>Node9&#45;&gt;Node11</title>
<path fill="none" stroke="#191970" d="M270.6461,-36.4619C297.9595,-31.042 330.1263,-24.659 356.024,-19.5201"/>
<polygon fill="#191970" stroke="#191970" points="269.951,-33.0315 260.8235,-38.411 271.3136,-39.8976 269.951,-33.0315"/>
</g>
</g>
</svg>
