<?xml version="1.0" encoding="UTF-8" standalone="no"?>
<!DOCTYPE svg PUBLIC "-//W3C//DTD SVG 1.1//EN"
 "http://www.w3.org/Graphics/SVG/1.1/DTD/svg11.dtd">
<!-- Generated by graphviz version 2.40.1 (20161225.0304)
 -->
<!-- Title: ParseInt32 Pages: 1 -->
<svg width="804pt" height="1399pt"
 viewBox="0.00 0.00 804.00 1399.00" xmlns="http://www.w3.org/2000/svg" xmlns:xlink="http://www.w3.org/1999/xlink">
<g id="graph0" class="graph" transform="scale(1 1) rotate(0) translate(4 1395)">
<title>ParseInt32</title>
<polygon fill="#ffffff" stroke="transparent" points="-4,4 -4,-1395 800,-1395 800,4 -4,4"/>
<!-- Node297 -->
<g id="node1" class="node">
<title>Node297</title>
<polygon fill="#bfbfbf" stroke="#000000" points="0,-684.5 0,-703.5 64,-703.5 64,-684.5 0,-684.5"/>
<text text-anchor="middle" x="32" y="-691.5" font-family="Helvetica,sans-Serif" font-size="10.00" fill="#000000">ParseInt32</text>
</g>
<!-- Node298 -->
<g id="node2" class="node">
<title>Node298</title>
<g id="a_node2"><a xlink:href="netbase_8h.html#a6d574b098285e2a657806e06c51e864d" target="_top" xlink:title="LookupSubNet">
<polygon fill="#ffffff" stroke="#000000" points="105.5,-1333.5 105.5,-1352.5 186.5,-1352.5 186.5,-1333.5 105.5,-1333.5"/>
<text text-anchor="middle" x="146" y="-1340.5" font-family="Helvetica,sans-Serif" font-size="10.00" fill="#000000">LookupSubNet</text>
</a>
</g>
</g>
<!-- Node297&#45;&gt;Node298 -->
<g id="edge1" class="edge">
<title>Node297&#45;&gt;Node298</title>
<path fill="none" stroke="#191970" d="M35.4428,-713.6C52.9398,-813.2098 131.6677,-1261.4066 144.2902,-1333.2662"/>
<polygon fill="#191970" stroke="#191970" points="38.8774,-712.9217 33.7,-703.678 31.9829,-714.1328 38.8774,-712.9217"/>
</g>
<!-- Node307 -->
<g id="node6" class="node">
<title>Node307</title>
<g id="a_node6"><a xlink:href="class_uni_value.html#af45edc6e67eaa6d1f271ce18e435a376" target="_top" xlink:title="UniValue::get_int">
<polygon fill="#ffffff" stroke="#000000" points="100,-684.5 100,-703.5 192,-703.5 192,-684.5 100,-684.5"/>
<text text-anchor="middle" x="146" y="-691.5" font-family="Helvetica,sans-Serif" font-size="10.00" fill="#000000">UniValue::get_int</text>
</a>
</g>
</g>
<!-- Node297&#45;&gt;Node307 -->
<g id="edge5" class="edge">
<title>Node297&#45;&gt;Node307</title>
<path fill="none" stroke="#191970" d="M74.2674,-694C82.5613,-694 91.302,-694 99.7192,-694"/>
<polygon fill="#191970" stroke="#191970" points="74.0588,-690.5001 64.0587,-694 74.0587,-697.5001 74.0588,-690.5001"/>
</g>
<!-- Node348 -->
<g id="node47" class="node">
<title>Node348</title>
<g id="a_node47"><a xlink:href="utilstrencodings_8h.html#a1b1ce2ba1ffe40785e65ec3ad5a20e79" target="_top" xlink:title="SplitHostPort">
<polygon fill="#ffffff" stroke="#000000" points="108.5,-38.5 108.5,-57.5 183.5,-57.5 183.5,-38.5 108.5,-38.5"/>
<text text-anchor="middle" x="146" y="-45.5" font-family="Helvetica,sans-Serif" font-size="10.00" fill="#000000">SplitHostPort</text>
</a>
</g>
</g>
<!-- Node297&#45;&gt;Node348 -->
<g id="edge47" class="edge">
<title>Node297&#45;&gt;Node348</title>
<path fill="none" stroke="#191970" d="M35.4428,-674.4906C52.9398,-575.3413 131.6677,-129.2163 144.2902,-57.6889"/>
<polygon fill="#191970" stroke="#191970" points="31.9912,-673.9106 33.7,-684.3667 38.8847,-675.1272 31.9912,-673.9106"/>
</g>
<!-- Node299 -->
<g id="node3" class="node">
<title>Node299</title>
<g id="a_node3"><a xlink:href="rpc_2net_8cpp.html#a11539def027cdd45ee718684c2e00ca6" target="_top" xlink:title="setban">
<polygon fill="#ffffff" stroke="#000000" points="289,-1371.5 289,-1390.5 335,-1390.5 335,-1371.5 289,-1371.5"/>
<text text-anchor="middle" x="312" y="-1378.5" font-family="Helvetica,sans-Serif" font-size="10.00" fill="#000000">setban</text>
</a>
</g>
</g>
<!-- Node298&#45;&gt;Node299 -->
<g id="edge2" class="edge">
<title>Node298&#45;&gt;Node299</title>
<path fill="none" stroke="#191970" d="M196.6288,-1354.7748C207.0037,-1357.1754 217.8529,-1359.6768 228,-1362 248.5502,-1366.7049 271.9453,-1371.9909 288.8174,-1375.7906"/>
<polygon fill="#191970" stroke="#191970" points="197.3975,-1351.3603 186.8656,-1352.5132 195.8177,-1358.1797 197.3975,-1351.3603"/>
</g>
<!-- Node300 -->
<g id="node4" class="node">
<title>Node300</title>
<g id="a_node4"><a xlink:href="class_r_p_c_console.html#a9a974887c33bf1d4b25eb6aeea002941" target="_top" xlink:title="Unban a selected node on the Bans tab. ">
<polygon fill="#ffffff" stroke="#000000" points="228,-1333.5 228,-1352.5 396,-1352.5 396,-1333.5 228,-1333.5"/>
<text text-anchor="middle" x="312" y="-1340.5" font-family="Helvetica,sans-Serif" font-size="10.00" fill="#000000">RPCConsole::unbanSelectedNode</text>
</a>
</g>
</g>
<!-- Node298&#45;&gt;Node300 -->
<g id="edge3" class="edge">
<title>Node298&#45;&gt;Node300</title>
<path fill="none" stroke="#191970" d="M196.6575,-1343C206.5833,-1343 217.2407,-1343 227.9219,-1343"/>
<polygon fill="#191970" stroke="#191970" points="196.6082,-1339.5001 186.6082,-1343 196.6081,-1346.5001 196.6082,-1339.5001"/>
</g>
<!-- Node301 -->
<g id="node5" class="node">
<title>Node301</title>
<g id="a_node5"><a xlink:href="class_r_p_c_console.html#a355349a33664a07628e9ca22a60f5fa7" target="_top" xlink:title="RPCConsole::setClientModel">
<polygon fill="#ffffff" stroke="#ff0000" points="432,-1334.5 432,-1353.5 578,-1353.5 578,-1334.5 432,-1334.5"/>
<text text-anchor="middle" x="505" y="-1341.5" font-family="Helvetica,sans-Serif" font-size="10.00" fill="#000000">RPCConsole::setClientModel</text>
</a>
</g>
</g>
<!-- Node300&#45;&gt;Node301 -->
<g id="edge4" class="edge">
<title>Node300&#45;&gt;Node301</title>
<path fill="none" stroke="#191970" d="M406.1633,-1343.4879C414.767,-1343.5325 423.3954,-1343.5772 431.7748,-1343.6206"/>
<polygon fill="#191970" stroke="#191970" points="406.1092,-1339.9877 396.0912,-1343.4357 406.0729,-1346.9876 406.1092,-1339.9877"/>
</g>
<!-- Node308 -->
<g id="node7" class="node">
<title>Node308</title>
<g id="a_node7"><a xlink:href="rpc_2protocol_8h.html#ab86b6a5bfbfcf85b519c5222df9133d8" target="_top" xlink:title="Parse JSON&#45;RPC batch reply into a vector. ">
<polygon fill="#ffffff" stroke="#000000" points="236,-1292.5 236,-1311.5 388,-1311.5 388,-1292.5 236,-1292.5"/>
<text text-anchor="middle" x="312" y="-1299.5" font-family="Helvetica,sans-Serif" font-size="10.00" fill="#000000">JSONRPCProcessBatchReply</text>
</a>
</g>
</g>
<!-- Node307&#45;&gt;Node308 -->
<g id="edge6" class="edge">
<title>Node307&#45;&gt;Node308</title>
<path fill="none" stroke="#191970" d="M147.4366,-713.9068C154.6822,-811.8891 188.4308,-1239.9541 228,-1283 231.4403,-1286.7426 235.4485,-1289.8262 239.813,-1292.3599"/>
<polygon fill="#191970" stroke="#191970" points="150.9224,-713.583 146.7019,-703.8651 143.941,-714.0939 150.9224,-713.583"/>
</g>
<!-- Node310 -->
<g id="node9" class="node">
<title>Node310</title>
<g id="a_node9"><a xlink:href="class_r_p_c_executor.html#a26e314b5c74eef7a5d310578e1cdb1eb" target="_top" xlink:title="RPCExecutor::request">
<polygon fill="#ffffff" stroke="#000000" points="254,-1254.5 254,-1273.5 370,-1273.5 370,-1254.5 254,-1254.5"/>
<text text-anchor="middle" x="312" y="-1261.5" font-family="Helvetica,sans-Serif" font-size="10.00" fill="#000000">RPCExecutor::request</text>
</a>
</g>
</g>
<!-- Node307&#45;&gt;Node310 -->
<g id="edge8" class="edge">
<title>Node307&#45;&gt;Node310</title>
<path fill="none" stroke="#191970" d="M147.6257,-713.7845C155.5097,-807.6288 190.8989,-1205.018 228,-1245 234.9158,-1252.4528 244.0843,-1257.2868 253.8208,-1260.3675"/>
<polygon fill="#191970" stroke="#191970" points="151.1017,-713.3495 146.7846,-703.6741 144.1258,-713.9299 151.1017,-713.3495"/>
</g>
<!-- Node311 -->
<g id="node10" class="node">
<title>Node311</title>
<g id="a_node10"><a xlink:href="blockchain_8cpp.html#af2fb128b20c6f51ce3b9d328971dd6f1" target="_top" xlink:title="waitfornewblock">
<polygon fill="#ffffff" stroke="#000000" points="268.5,-1216.5 268.5,-1235.5 355.5,-1235.5 355.5,-1216.5 268.5,-1216.5"/>
<text text-anchor="middle" x="312" y="-1223.5" font-family="Helvetica,sans-Serif" font-size="10.00" fill="#000000">waitfornewblock</text>
</a>
</g>
</g>
<!-- Node307&#45;&gt;Node311 -->
<g id="edge9" class="edge">
<title>Node307&#45;&gt;Node311</title>
<path fill="none" stroke="#191970" d="M146.3123,-713.994C148.0643,-799.5417 159.2729,-1133.7315 228,-1207 238.3314,-1218.0141 253.5857,-1223.2948 268.2703,-1225.6518"/>
<polygon fill="#191970" stroke="#191970" points="149.8086,-713.757 146.126,-703.8228 142.8098,-713.8852 149.8086,-713.757"/>
</g>
<!-- Node312 -->
<g id="node11" class="node">
<title>Node312</title>
<g id="a_node11"><a xlink:href="blockchain_8cpp.html#a976988fa56a69baa2a3dd3dc8569b4bd" target="_top" xlink:title="waitforblock">
<polygon fill="#ffffff" stroke="#000000" points="277.5,-1178.5 277.5,-1197.5 346.5,-1197.5 346.5,-1178.5 277.5,-1178.5"/>
<text text-anchor="middle" x="312" y="-1185.5" font-family="Helvetica,sans-Serif" font-size="10.00" fill="#000000">waitforblock</text>
</a>
</g>
</g>
<!-- Node307&#45;&gt;Node312 -->
<g id="edge10" class="edge">
<title>Node307&#45;&gt;Node312</title>
<path fill="none" stroke="#191970" d="M146.6032,-714.3092C149.4592,-796.3249 164.2816,-1101.9126 228,-1169 240.562,-1182.2262 260.2283,-1187.1613 277.3745,-1188.704"/>
<polygon fill="#191970" stroke="#191970" points="150.0875,-713.7667 146.2643,-703.8857 143.0912,-713.9942 150.0875,-713.7667"/>
</g>
<!-- Node313 -->
<g id="node12" class="node">
<title>Node313</title>
<g id="a_node12"><a xlink:href="blockchain_8cpp.html#a9b977f0eb943d34da8f7ae26e1e3056e" target="_top" xlink:title="waitforblockheight">
<polygon fill="#ffffff" stroke="#000000" points="264.5,-1140.5 264.5,-1159.5 359.5,-1159.5 359.5,-1140.5 264.5,-1140.5"/>
<text text-anchor="middle" x="312" y="-1147.5" font-family="Helvetica,sans-Serif" font-size="10.00" fill="#000000">waitforblockheight</text>
</a>
</g>
</g>
<!-- Node307&#45;&gt;Node313 -->
<g id="edge11" class="edge">
<title>Node307&#45;&gt;Node313</title>
<path fill="none" stroke="#191970" d="M146.9282,-714.1628C150.9155,-791.7761 169.1532,-1069.9369 228,-1131 237.4415,-1140.7971 250.7848,-1146.0299 264.0629,-1148.7053"/>
<polygon fill="#191970" stroke="#191970" points="150.4083,-713.6688 146.4233,-703.852 143.4167,-714.0112 150.4083,-713.6688"/>
</g>
<!-- Node314 -->
<g id="node13" class="node">
<title>Node314</title>
<g id="a_node13"><a xlink:href="blockchain_8cpp.html#aa2fcd870e6744e4074e671efa1ae8c1f" target="_top" xlink:title="getblockhashes">
<polygon fill="#ffffff" stroke="#000000" points="269.5,-1102.5 269.5,-1121.5 354.5,-1121.5 354.5,-1102.5 269.5,-1102.5"/>
<text text-anchor="middle" x="312" y="-1109.5" font-family="Helvetica,sans-Serif" font-size="10.00" fill="#000000">getblockhashes</text>
</a>
</g>
</g>
<!-- Node307&#45;&gt;Node314 -->
<g id="edge12" class="edge">
<title>Node307&#45;&gt;Node314</title>
<path fill="none" stroke="#191970" d="M147.2939,-713.8046C152.453,-786.5842 173.9557,-1037.8773 228,-1093 238.7816,-1103.9967 254.4853,-1109.2202 269.4051,-1111.536"/>
<polygon fill="#191970" stroke="#191970" points="150.7781,-713.4518 146.6038,-703.714 143.7944,-713.9295 150.7781,-713.4518"/>
</g>
<!-- Node315 -->
<g id="node14" class="node">
<title>Node315</title>
<g id="a_node14"><a xlink:href="blockchain_8cpp.html#a5a5c513f66f688445d8f24ae430ca37d" target="_top" xlink:title="getblockhash">
<polygon fill="#ffffff" stroke="#000000" points="275,-1064.5 275,-1083.5 349,-1083.5 349,-1064.5 275,-1064.5"/>
<text text-anchor="middle" x="312" y="-1071.5" font-family="Helvetica,sans-Serif" font-size="10.00" fill="#000000">getblockhash</text>
</a>
</g>
</g>
<!-- Node307&#45;&gt;Node315 -->
<g id="edge13" class="edge">
<title>Node307&#45;&gt;Node315</title>
<path fill="none" stroke="#191970" d="M147.7834,-714.0893C154.2772,-782.66 178.8953,-1005.9399 228,-1055 240.1639,-1067.1528 258.3503,-1072.2212 274.6937,-1074.1177"/>
<polygon fill="#191970" stroke="#191970" points="151.2388,-713.4428 146.8371,-703.8056 144.2683,-714.0843 151.2388,-713.4428"/>
</g>
<!-- Node316 -->
<g id="node15" class="node">
<title>Node316</title>
<g id="a_node15"><a xlink:href="blockchain_8cpp.html#ab9010ee629e52acfb5050466c4091f85" target="_top" xlink:title="getblock">
<polygon fill="#ffffff" stroke="#000000" points="285.5,-1026.5 285.5,-1045.5 338.5,-1045.5 338.5,-1026.5 285.5,-1026.5"/>
<text text-anchor="middle" x="312" y="-1033.5" font-family="Helvetica,sans-Serif" font-size="10.00" fill="#000000">getblock</text>
</a>
</g>
</g>
<!-- Node307&#45;&gt;Node316 -->
<g id="edge14" class="edge">
<title>Node307&#45;&gt;Node316</title>
<path fill="none" stroke="#191970" d="M148.3497,-714.0092C156.2266,-777.6689 183.7198,-973.8637 228,-1017 242.9939,-1031.6065 266.7103,-1035.9195 285.1247,-1036.8292"/>
<polygon fill="#191970" stroke="#191970" points="151.7823,-713.2395 147.1076,-703.7317 144.8328,-714.0795 151.7823,-713.2395"/>
</g>
<!-- Node317 -->
<g id="node16" class="node">
<title>Node317</title>
<g id="a_node16"><a xlink:href="blockchain_8cpp.html#a3a25d2a53b7e3c3f1912974b292bd578" target="_top" xlink:title="pruneblockchain">
<polygon fill="#ffffff" stroke="#000000" points="268.5,-988.5 268.5,-1007.5 355.5,-1007.5 355.5,-988.5 268.5,-988.5"/>
<text text-anchor="middle" x="312" y="-995.5" font-family="Helvetica,sans-Serif" font-size="10.00" fill="#000000">pruneblockchain</text>
</a>
</g>
</g>
<!-- Node307&#45;&gt;Node317 -->
<g id="edge15" class="edge">
<title>Node307&#45;&gt;Node317</title>
<path fill="none" stroke="#191970" d="M149.0571,-713.9185C158.4252,-772.3815 188.5109,-941.7263 228,-979 238.7643,-989.1604 253.7655,-994.3039 268.1166,-996.7912"/>
<polygon fill="#191970" stroke="#191970" points="152.4733,-713.1116 147.4631,-703.7763 145.5582,-714.1985 152.4733,-713.1116"/>
</g>
<!-- Node318 -->
<g id="node17" class="node">
<title>Node318</title>
<g id="a_node17"><a xlink:href="blockchain_8cpp.html#a0d3ec9ae23b08828dd7ca646766ca637" target="_top" xlink:title="gettxout">
<polygon fill="#ffffff" stroke="#000000" points="286,-950.5 286,-969.5 338,-969.5 338,-950.5 286,-950.5"/>
<text text-anchor="middle" x="312" y="-957.5" font-family="Helvetica,sans-Serif" font-size="10.00" fill="#000000">gettxout</text>
</a>
</g>
</g>
<!-- Node307&#45;&gt;Node318 -->
<g id="edge16" class="edge">
<title>Node307&#45;&gt;Node318</title>
<path fill="none" stroke="#191970" d="M149.9339,-713.6517C160.887,-766.4433 193.2245,-909.4786 228,-941 243.6201,-955.1584 267.5159,-959.4843 285.8327,-960.5137"/>
<polygon fill="#191970" stroke="#191970" points="153.305,-712.6662 147.8757,-703.5683 146.4464,-714.0662 153.305,-712.6662"/>
</g>
<!-- Node319 -->
<g id="node18" class="node">
<title>Node319</title>
<g id="a_node18"><a xlink:href="blockchain_8cpp.html#a729dbf457368699c46c2b7a47d0a0799" target="_top" xlink:title="getchaintxstats">
<polygon fill="#ffffff" stroke="#000000" points="270.5,-912.5 270.5,-931.5 353.5,-931.5 353.5,-912.5 270.5,-912.5"/>
<text text-anchor="middle" x="312" y="-919.5" font-family="Helvetica,sans-Serif" font-size="10.00" fill="#000000">getchaintxstats</text>
</a>
</g>
</g>
<!-- Node307&#45;&gt;Node319 -->
<g id="edge17" class="edge">
<title>Node307&#45;&gt;Node319</title>
<path fill="none" stroke="#191970" d="M147.715,-713.6681C152.444,-755.3274 169.4984,-852.749 228,-903 239.6822,-913.0347 255.5619,-918.0703 270.3702,-920.5051"/>
<polygon fill="#191970" stroke="#191970" points="151.1947,-713.2905 146.7026,-703.6951 144.2305,-713.9975 151.1947,-713.2905"/>
</g>
<!-- Node320 -->
<g id="node19" class="node">
<title>Node320</title>
<g id="a_node19"><a xlink:href="mining_8h.html#aeae629d66e8abfac91fb0b43f5f1962e" target="_top" xlink:title="Check bounds on a command line confirm target. ">
<polygon fill="#ffffff" stroke="#000000" points="260,-874.5 260,-893.5 364,-893.5 364,-874.5 260,-874.5"/>
<text text-anchor="middle" x="312" y="-881.5" font-family="Helvetica,sans-Serif" font-size="10.00" fill="#000000">ParseConfirmTarget</text>
</a>
</g>
</g>
<!-- Node307&#45;&gt;Node320 -->
<g id="edge18" class="edge">
<title>Node307&#45;&gt;Node320</title>
<path fill="none" stroke="#191970" d="M150.1357,-713.3954C158.5539,-748.0893 181.0005,-820.8018 228,-860 237.0852,-867.5771 248.4321,-872.765 259.8192,-876.3161"/>
<polygon fill="#191970" stroke="#191970" points="153.5268,-712.5236 147.8822,-703.5577 146.7035,-714.0867 153.5268,-712.5236"/>
</g>
<!-- Node323 -->
<g id="node22" class="node">
<title>Node323</title>
<g id="a_node22"><a xlink:href="rpcwallet_8cpp.html#aa4b8de6450478126d6c82d06a8df097c" target="_top" xlink:title="sendmany">
<polygon fill="#ffffff" stroke="#000000" points="474,-836.5 474,-855.5 536,-855.5 536,-836.5 474,-836.5"/>
<text text-anchor="middle" x="505" y="-843.5" font-family="Helvetica,sans-Serif" font-size="10.00" fill="#000000">sendmany</text>
</a>
</g>
</g>
<!-- Node307&#45;&gt;Node323 -->
<g id="edge35" class="edge">
<title>Node307&#45;&gt;Node323</title>
<path fill="none" stroke="#191970" d="M151.6141,-713.3427C161.5148,-743.5513 185.1938,-801.1428 228,-827 305.7751,-873.9802 419.1978,-862.0761 473.6035,-852.5324"/>
<polygon fill="#191970" stroke="#191970" points="154.8856,-712.0757 148.5799,-703.5617 148.1999,-714.1497 154.8856,-712.0757"/>
</g>
<!-- Node324 -->
<g id="node23" class="node">
<title>Node324</title>
<g id="a_node23"><a xlink:href="mining_8cpp.html#a6f67f7971af006b31c86a032b63812a4" target="_top" xlink:title="getnetworkhashps">
<polygon fill="#ffffff" stroke="#000000" points="264,-798.5 264,-817.5 360,-817.5 360,-798.5 264,-798.5"/>
<text text-anchor="middle" x="312" y="-805.5" font-family="Helvetica,sans-Serif" font-size="10.00" fill="#000000">getnetworkhashps</text>
</a>
</g>
</g>
<!-- Node307&#45;&gt;Node324 -->
<g id="edge22" class="edge">
<title>Node307&#45;&gt;Node324</title>
<path fill="none" stroke="#191970" d="M156.6158,-712.2251C170.2806,-733.992 196.1057,-769.8564 228,-789 238.7686,-795.4635 251.5143,-799.731 263.7801,-802.5477"/>
<polygon fill="#191970" stroke="#191970" points="159.5516,-710.3166 151.3679,-703.5877 153.5693,-713.9514 159.5516,-710.3166"/>
</g>
<!-- Node325 -->
<g id="node24" class="node">
<title>Node325</title>
<g id="a_node24"><a xlink:href="mining_8cpp.html#a16cf276c50111f451fdbd5dfbe3c8a6b" target="_top" xlink:title="generatetoaddress">
<polygon fill="#ffffff" stroke="#000000" points="263.5,-760.5 263.5,-779.5 360.5,-779.5 360.5,-760.5 263.5,-760.5"/>
<text text-anchor="middle" x="312" y="-767.5" font-family="Helvetica,sans-Serif" font-size="10.00" fill="#000000">generatetoaddress</text>
</a>
</g>
</g>
<!-- Node307&#45;&gt;Node325 -->
<g id="edge23" class="edge">
<title>Node307&#45;&gt;Node325</title>
<path fill="none" stroke="#191970" d="M164.7705,-710.2211C180.6198,-723.1029 204.4385,-740.6206 228,-751 239.0832,-755.8824 251.5622,-759.5773 263.4443,-762.3474"/>
<polygon fill="#191970" stroke="#191970" points="166.762,-707.3249 156.8375,-703.6162 162.2831,-712.7045 166.762,-707.3249"/>
</g>
<!-- Node326 -->
<g id="node25" class="node">
<title>Node326</title>
<g id="a_node25"><a xlink:href="mining_8cpp.html#a9337f53fdcee55966dff25f5935d9126" target="_top" xlink:title="estimatefee">
<polygon fill="#ffffff" stroke="#000000" points="278,-722.5 278,-741.5 346,-741.5 346,-722.5 278,-722.5"/>
<text text-anchor="middle" x="312" y="-729.5" font-family="Helvetica,sans-Serif" font-size="10.00" fill="#000000">estimatefee</text>
</a>
</g>
</g>
<!-- Node307&#45;&gt;Node326 -->
<g id="edge24" class="edge">
<title>Node307&#45;&gt;Node326</title>
<path fill="none" stroke="#191970" d="M196.6288,-705.7748C207.0037,-708.1754 217.8529,-710.6768 228,-713 244.3236,-716.7372 262.4422,-720.8411 277.6607,-724.2755"/>
<polygon fill="#191970" stroke="#191970" points="197.3975,-702.3603 186.8656,-703.5132 195.8177,-709.1797 197.3975,-702.3603"/>
</g>
<!-- Node327 -->
<g id="node26" class="node">
<title>Node327</title>
<g id="a_node26"><a xlink:href="rpcwallet_8cpp.html#a1690e528ea9f2db9375e34d0eb55e1b5" target="_top" xlink:title="Used by addmultisigaddress / createmultisig: ">
<polygon fill="#ffffff" stroke="#000000" points="239,-684.5 239,-703.5 385,-703.5 385,-684.5 239,-684.5"/>
<text text-anchor="middle" x="312" y="-691.5" font-family="Helvetica,sans-Serif" font-size="10.00" fill="#000000">_createmultisig_redeemScript</text>
</a>
</g>
</g>
<!-- Node307&#45;&gt;Node327 -->
<g id="edge25" class="edge">
<title>Node307&#45;&gt;Node327</title>
<path fill="none" stroke="#191970" d="M202.347,-694C214.1132,-694 226.679,-694 238.9503,-694"/>
<polygon fill="#191970" stroke="#191970" points="202.2403,-690.5001 192.2403,-694 202.2402,-697.5001 202.2403,-690.5001"/>
</g>
<!-- Node330 -->
<g id="node29" class="node">
<title>Node330</title>
<g id="a_node29"><a xlink:href="misc_8cpp.html#af86900c2cc61f530ad429da2a2250112" target="_top" xlink:title="getaddresstxids">
<polygon fill="#ffffff" stroke="#000000" points="269,-646.5 269,-665.5 355,-665.5 355,-646.5 269,-646.5"/>
<text text-anchor="middle" x="312" y="-653.5" font-family="Helvetica,sans-Serif" font-size="10.00" fill="#000000">getaddresstxids</text>
</a>
</g>
</g>
<!-- Node307&#45;&gt;Node330 -->
<g id="edge28" class="edge">
<title>Node307&#45;&gt;Node330</title>
<path fill="none" stroke="#191970" d="M196.6288,-682.2252C207.0037,-679.8246 217.8529,-677.3232 228,-675 241.5544,-671.8968 256.3465,-668.5407 269.6881,-665.5251"/>
<polygon fill="#191970" stroke="#191970" points="195.8177,-678.8203 186.8656,-684.4868 197.3975,-685.6397 195.8177,-678.8203"/>
</g>
<!-- Node331 -->
<g id="node30" class="node">
<title>Node331</title>
<g id="a_node30"><a xlink:href="rawtransaction_8cpp.html#a62dc16375e4d300e642339f1605da3c9" target="_top" xlink:title="getrawtransaction">
<polygon fill="#ffffff" stroke="#000000" points="265,-608.5 265,-627.5 359,-627.5 359,-608.5 265,-608.5"/>
<text text-anchor="middle" x="312" y="-615.5" font-family="Helvetica,sans-Serif" font-size="10.00" fill="#000000">getrawtransaction</text>
</a>
</g>
</g>
<!-- Node307&#45;&gt;Node331 -->
<g id="edge29" class="edge">
<title>Node307&#45;&gt;Node331</title>
<path fill="none" stroke="#191970" d="M164.7705,-677.7789C180.6198,-664.8971 204.4385,-647.3794 228,-637 239.4936,-631.9368 252.4885,-628.1506 264.762,-625.3486"/>
<polygon fill="#191970" stroke="#191970" points="162.2831,-675.2955 156.8375,-684.3838 166.762,-680.6751 162.2831,-675.2955"/>
</g>
<!-- Node332 -->
<g id="node31" class="node">
<title>Node332</title>
<g id="a_node31"><a xlink:href="rawtransaction_8cpp.html#ab02feb76c01de90cbcc78c56499217a2" target="_top" xlink:title="createrawtransaction">
<polygon fill="#ffffff" stroke="#000000" points="258.5,-570.5 258.5,-589.5 365.5,-589.5 365.5,-570.5 258.5,-570.5"/>
<text text-anchor="middle" x="312" y="-577.5" font-family="Helvetica,sans-Serif" font-size="10.00" fill="#000000">createrawtransaction</text>
</a>
</g>
</g>
<!-- Node307&#45;&gt;Node332 -->
<g id="edge30" class="edge">
<title>Node307&#45;&gt;Node332</title>
<path fill="none" stroke="#191970" d="M156.6158,-675.7749C170.2806,-654.008 196.1057,-618.1436 228,-599 237.102,-593.5368 247.6165,-589.6425 258.0599,-586.8671"/>
<polygon fill="#191970" stroke="#191970" points="153.5693,-674.0486 151.3679,-684.4123 159.5516,-677.6834 153.5693,-674.0486"/>
</g>
<!-- Node333 -->
<g id="node32" class="node">
<title>Node333</title>
<g id="a_node32"><a xlink:href="rawtransaction_8cpp.html#a5b2abfea4548c97e780cfae39f9ac11b" target="_top" xlink:title="signrawtransaction">
<polygon fill="#ffffff" stroke="#000000" points="263,-532.5 263,-551.5 361,-551.5 361,-532.5 263,-532.5"/>
<text text-anchor="middle" x="312" y="-539.5" font-family="Helvetica,sans-Serif" font-size="10.00" fill="#000000">signrawtransaction</text>
</a>
</g>
</g>
<!-- Node307&#45;&gt;Node333 -->
<g id="edge31" class="edge">
<title>Node307&#45;&gt;Node333</title>
<path fill="none" stroke="#191970" d="M152.2655,-674.9882C162.9368,-645.7062 187.5057,-589.9321 228,-561 238.0975,-553.7856 250.4773,-549.252 262.598,-546.4193"/>
<polygon fill="#191970" stroke="#191970" points="148.9439,-673.884 148.9589,-684.4789 155.5542,-676.1871 148.9439,-673.884"/>
</g>
<!-- Node334 -->
<g id="node33" class="node">
<title>Node334</title>
<g id="a_node33"><a xlink:href="rpcwallet_8cpp.html#a797ec5ebe2780073014606ef9f78cd4b" target="_top" xlink:title="getreceivedbyaddress">
<polygon fill="#ffffff" stroke="#000000" points="256,-494.5 256,-513.5 368,-513.5 368,-494.5 256,-494.5"/>
<text text-anchor="middle" x="312" y="-501.5" font-family="Helvetica,sans-Serif" font-size="10.00" fill="#000000">getreceivedbyaddress</text>
</a>
</g>
</g>
<!-- Node307&#45;&gt;Node334 -->
<g id="edge32" class="edge">
<title>Node307&#45;&gt;Node334</title>
<path fill="none" stroke="#191970" d="M149.6288,-674.2753C157.3176,-638.3311 178.7519,-562.2622 228,-523 236.0669,-516.5688 245.8875,-512.2242 255.9306,-509.3085"/>
<polygon fill="#191970" stroke="#191970" points="146.1254,-673.946 147.5975,-684.438 152.9897,-675.318 146.1254,-673.946"/>
</g>
<!-- Node335 -->
<g id="node34" class="node">
<title>Node335</title>
<g id="a_node34"><a xlink:href="rpcwallet_8cpp.html#ab00d84bc574f3a4707fc11d30269a8e1" target="_top" xlink:title="getreceivedbyaccount">
<polygon fill="#ffffff" stroke="#000000" points="256,-456.5 256,-475.5 368,-475.5 368,-456.5 256,-456.5"/>
<text text-anchor="middle" x="312" y="-463.5" font-family="Helvetica,sans-Serif" font-size="10.00" fill="#000000">getreceivedbyaccount</text>
</a>
</g>
</g>
<!-- Node307&#45;&gt;Node335 -->
<g id="edge33" class="edge">
<title>Node307&#45;&gt;Node335</title>
<path fill="none" stroke="#191970" d="M147.715,-674.3319C152.444,-632.6726 169.4984,-535.251 228,-485 235.9394,-478.1803 245.8174,-473.6696 255.9803,-470.7149"/>
<polygon fill="#191970" stroke="#191970" points="144.2305,-674.0025 146.7026,-684.3049 151.1947,-674.7095 144.2305,-674.0025"/>
</g>
<!-- Node336 -->
<g id="node35" class="node">
<title>Node336</title>
<g id="a_node35"><a xlink:href="rpcwallet_8cpp.html#ae659cb0ab5177ea79df6670bd61afd23" target="_top" xlink:title="getbalance">
<polygon fill="#ffffff" stroke="#000000" points="280,-418.5 280,-437.5 344,-437.5 344,-418.5 280,-418.5"/>
<text text-anchor="middle" x="312" y="-425.5" font-family="Helvetica,sans-Serif" font-size="10.00" fill="#000000">getbalance</text>
</a>
</g>
</g>
<!-- Node307&#45;&gt;Node336 -->
<g id="edge34" class="edge">
<title>Node307&#45;&gt;Node336</title>
<path fill="none" stroke="#191970" d="M149.9339,-674.3483C160.887,-621.5567 193.2245,-478.5214 228,-447 241.9584,-434.3478 262.5253,-429.5474 279.8142,-427.9346"/>
<polygon fill="#191970" stroke="#191970" points="146.4464,-673.9338 147.8757,-684.4317 153.305,-675.3338 146.4464,-673.9338"/>
</g>
<!-- Node337 -->
<g id="node36" class="node">
<title>Node337</title>
<g id="a_node36"><a xlink:href="rpcwallet_8cpp.html#ae5af8884ac356c023c84fca170e79ad6" target="_top" xlink:title="ListReceived">
<polygon fill="#ffffff" stroke="#000000" points="275,-380.5 275,-399.5 349,-399.5 349,-380.5 275,-380.5"/>
<text text-anchor="middle" x="312" y="-387.5" font-family="Helvetica,sans-Serif" font-size="10.00" fill="#000000">ListReceived</text>
</a>
</g>
</g>
<!-- Node307&#45;&gt;Node337 -->
<g id="edge36" class="edge">
<title>Node307&#45;&gt;Node337</title>
<path fill="none" stroke="#191970" d="M149.0571,-674.0815C158.4252,-615.6185 188.5109,-446.2737 228,-409 240.3953,-397.3001 258.4085,-392.2527 274.5781,-390.253"/>
<polygon fill="#191970" stroke="#191970" points="145.5582,-673.8015 147.4631,-684.2237 152.4733,-674.8884 145.5582,-673.8015"/>
</g>
<!-- Node340 -->
<g id="node39" class="node">
<title>Node340</title>
<g id="a_node39"><a xlink:href="rpcwallet_8cpp.html#a74b85c92ee6a84277c73b74f2e212bff" target="_top" xlink:title="listtransactions">
<polygon fill="#ffffff" stroke="#000000" points="270.5,-342.5 270.5,-361.5 353.5,-361.5 353.5,-342.5 270.5,-342.5"/>
<text text-anchor="middle" x="312" y="-349.5" font-family="Helvetica,sans-Serif" font-size="10.00" fill="#000000">listtransactions</text>
</a>
</g>
</g>
<!-- Node307&#45;&gt;Node340 -->
<g id="edge39" class="edge">
<title>Node307&#45;&gt;Node340</title>
<path fill="none" stroke="#191970" d="M148.3497,-673.9908C156.2266,-610.3311 183.7198,-414.1363 228,-371 239.1383,-360.1494 255.09,-354.9792 270.106,-352.6648"/>
<polygon fill="#191970" stroke="#191970" points="144.8328,-673.9205 147.1076,-684.2683 151.7823,-674.7605 144.8328,-673.9205"/>
</g>
<!-- Node341 -->
<g id="node40" class="node">
<title>Node341</title>
<g id="a_node40"><a xlink:href="rpcwallet_8cpp.html#a9e5eb84bdfa03fa36ac4f51ff52b74ae" target="_top" xlink:title="listaccounts">
<polygon fill="#ffffff" stroke="#000000" points="277.5,-304.5 277.5,-323.5 346.5,-323.5 346.5,-304.5 277.5,-304.5"/>
<text text-anchor="middle" x="312" y="-311.5" font-family="Helvetica,sans-Serif" font-size="10.00" fill="#000000">listaccounts</text>
</a>
</g>
</g>
<!-- Node307&#45;&gt;Node341 -->
<g id="edge40" class="edge">
<title>Node307&#45;&gt;Node341</title>
<path fill="none" stroke="#191970" d="M147.7834,-673.9107C154.2772,-605.34 178.8953,-382.0601 228,-333 240.7985,-320.2131 260.2644,-315.2692 277.2356,-313.6108"/>
<polygon fill="#191970" stroke="#191970" points="144.2683,-673.9157 146.8371,-684.1944 151.2388,-674.5572 144.2683,-673.9157"/>
</g>
<!-- Node342 -->
<g id="node41" class="node">
<title>Node342</title>
<g id="a_node41"><a xlink:href="rpcwallet_8cpp.html#aec8812106a8f22a37c1b81b202e8c897" target="_top" xlink:title="listsinceblock">
<polygon fill="#ffffff" stroke="#000000" points="274,-266.5 274,-285.5 350,-285.5 350,-266.5 274,-266.5"/>
<text text-anchor="middle" x="312" y="-273.5" font-family="Helvetica,sans-Serif" font-size="10.00" fill="#000000">listsinceblock</text>
</a>
</g>
</g>
<!-- Node307&#45;&gt;Node342 -->
<g id="edge41" class="edge">
<title>Node307&#45;&gt;Node342</title>
<path fill="none" stroke="#191970" d="M147.2939,-674.1954C152.453,-601.4158 173.9557,-350.1227 228,-295 239.8283,-282.9357 257.581,-277.8199 273.7232,-275.8691"/>
<polygon fill="#191970" stroke="#191970" points="143.7944,-674.0705 146.6038,-684.286 150.7781,-674.5482 143.7944,-674.0705"/>
</g>
<!-- Node343 -->
<g id="node42" class="node">
<title>Node343</title>
<g id="a_node42"><a xlink:href="rpcwallet_8cpp.html#a76414f3eca368ded50b1fe631a75c892" target="_top" xlink:title="keypoolrefill">
<polygon fill="#ffffff" stroke="#000000" points="278,-228.5 278,-247.5 346,-247.5 346,-228.5 278,-228.5"/>
<text text-anchor="middle" x="312" y="-235.5" font-family="Helvetica,sans-Serif" font-size="10.00" fill="#000000">keypoolrefill</text>
</a>
</g>
</g>
<!-- Node307&#45;&gt;Node343 -->
<g id="edge42" class="edge">
<title>Node307&#45;&gt;Node343</title>
<path fill="none" stroke="#191970" d="M146.9282,-673.8372C150.9155,-596.2239 169.1532,-318.0631 228,-257 240.7616,-243.7578 260.6515,-238.8543 277.8739,-237.3336"/>
<polygon fill="#191970" stroke="#191970" points="143.4167,-673.9888 146.4233,-684.148 150.4083,-674.3312 143.4167,-673.9888"/>
</g>
<!-- Node344 -->
<g id="node43" class="node">
<title>Node344</title>
<g id="a_node43"><a xlink:href="rpcwallet_8cpp.html#a25481caed2b80d0fef3416fb464d8818" target="_top" xlink:title="lockunspent">
<polygon fill="#ffffff" stroke="#000000" points="277.5,-190.5 277.5,-209.5 346.5,-209.5 346.5,-190.5 277.5,-190.5"/>
<text text-anchor="middle" x="312" y="-197.5" font-family="Helvetica,sans-Serif" font-size="10.00" fill="#000000">lockunspent</text>
</a>
</g>
</g>
<!-- Node307&#45;&gt;Node344 -->
<g id="edge43" class="edge">
<title>Node307&#45;&gt;Node344</title>
<path fill="none" stroke="#191970" d="M146.6032,-673.6908C149.4592,-591.6751 164.2816,-286.0874 228,-219 240.562,-205.7738 260.2283,-200.8387 277.3745,-199.296"/>
<polygon fill="#191970" stroke="#191970" points="143.0912,-674.0058 146.2643,-684.1143 150.0875,-674.2333 143.0912,-674.0058"/>
</g>
<!-- Node345 -->
<g id="node44" class="node">
<title>Node345</title>
<g id="a_node44"><a xlink:href="rpcwallet_8cpp.html#aed7407e5f2cafe50b500b799e8adf10e" target="_top" xlink:title="listunspent">
<polygon fill="#ffffff" stroke="#000000" points="280,-152.5 280,-171.5 344,-171.5 344,-152.5 280,-152.5"/>
<text text-anchor="middle" x="312" y="-159.5" font-family="Helvetica,sans-Serif" font-size="10.00" fill="#000000">listunspent</text>
</a>
</g>
</g>
<!-- Node307&#45;&gt;Node345 -->
<g id="edge44" class="edge">
<title>Node307&#45;&gt;Node345</title>
<path fill="none" stroke="#191970" d="M146.3123,-674.006C148.0643,-588.4583 159.2729,-254.2685 228,-181 241.0933,-167.0416 262.0933,-162.2916 279.8199,-161.0312"/>
<polygon fill="#191970" stroke="#191970" points="142.8098,-674.1148 146.126,-684.1772 149.8086,-674.243 142.8098,-674.1148"/>
</g>
<!-- Node346 -->
<g id="node45" class="node">
<title>Node346</title>
<g id="a_node45"><a xlink:href="rpcwallet_8cpp.html#a236a42206aa464fbb10bae6e6243092b" target="_top" xlink:title="generate">
<polygon fill="#ffffff" stroke="#000000" points="285,-114.5 285,-133.5 339,-133.5 339,-114.5 285,-114.5"/>
<text text-anchor="middle" x="312" y="-121.5" font-family="Helvetica,sans-Serif" font-size="10.00" fill="#000000">generate</text>
</a>
</g>
</g>
<!-- Node307&#45;&gt;Node346 -->
<g id="edge45" class="edge">
<title>Node307&#45;&gt;Node346</title>
<path fill="none" stroke="#191970" d="M147.6257,-674.2155C155.5097,-580.3712 190.8989,-182.982 228,-143 242.2383,-127.6561 266.0256,-123.4122 284.6593,-122.7166"/>
<polygon fill="#191970" stroke="#191970" points="144.1258,-674.0701 146.7846,-684.3259 151.1017,-674.6505 144.1258,-674.0701"/>
</g>
<!-- Node347 -->
<g id="node46" class="node">
<title>Node347</title>
<g id="a_node46"><a xlink:href="rpcwallet_8cpp.html#a151535abf7394b299deb8d0a333de70b" target="_top" xlink:title="rescanblockchain">
<polygon fill="#ffffff" stroke="#000000" points="266,-76.5 266,-95.5 358,-95.5 358,-76.5 266,-76.5"/>
<text text-anchor="middle" x="312" y="-83.5" font-family="Helvetica,sans-Serif" font-size="10.00" fill="#000000">rescanblockchain</text>
</a>
</g>
</g>
<!-- Node307&#45;&gt;Node347 -->
<g id="edge46" class="edge">
<title>Node307&#45;&gt;Node347</title>
<path fill="none" stroke="#191970" d="M147.4366,-674.0932C154.6822,-576.1109 188.4308,-148.0459 228,-105 237.7138,-94.4326 251.9548,-89.1189 265.9615,-86.6047"/>
<polygon fill="#191970" stroke="#191970" points="143.941,-673.9061 146.7019,-684.1349 150.9224,-674.417 143.941,-673.9061"/>
</g>
<!-- Node309 -->
<g id="node8" class="node">
<title>Node309</title>
<g id="a_node8"><a xlink:href="class_getinfo_request_handler.html#abc5063d93d13b72549c56082aaf607a5" target="_top" xlink:title="Collect values from the batch and form a simulated getinfo reply. ">
<polygon fill="#ffffff" stroke="#000000" points="445.5,-1285 445.5,-1315 564.5,-1315 564.5,-1285 445.5,-1285"/>
<text text-anchor="start" x="453.5" y="-1303" font-family="Helvetica,sans-Serif" font-size="10.00" fill="#000000">GetinfoRequestHandler</text>
<text text-anchor="middle" x="505" y="-1292" font-family="Helvetica,sans-Serif" font-size="10.00" fill="#000000">::ProcessReply</text>
</a>
</g>
</g>
<!-- Node308&#45;&gt;Node309 -->
<g id="edge7" class="edge">
<title>Node308&#45;&gt;Node309</title>
<path fill="none" stroke="#191970" d="M398.3842,-1301.1048C414.293,-1300.94 430.5726,-1300.7713 445.4679,-1300.6169"/>
<polygon fill="#191970" stroke="#191970" points="397.9648,-1297.6089 388.0017,-1301.2124 398.0374,-1304.6085 397.9648,-1297.6089"/>
</g>
<!-- Node321 -->
<g id="node20" class="node">
<title>Node321</title>
<g id="a_node20"><a xlink:href="mining_8cpp.html#a4d52dab422bb2e483cc73845003dc19b" target="_top" xlink:title="estimatesmartfee">
<polygon fill="#ffffff" stroke="#000000" points="459,-912.5 459,-931.5 551,-931.5 551,-912.5 459,-912.5"/>
<text text-anchor="middle" x="505" y="-919.5" font-family="Helvetica,sans-Serif" font-size="10.00" fill="#000000">estimatesmartfee</text>
</a>
</g>
</g>
<!-- Node320&#45;&gt;Node321 -->
<g id="edge19" class="edge">
<title>Node320&#45;&gt;Node321</title>
<path fill="none" stroke="#191970" d="M370.8717,-895.5913C399.1643,-901.1619 432.5737,-907.7399 458.9709,-912.9373"/>
<polygon fill="#191970" stroke="#191970" points="371.1898,-892.0868 360.702,-893.589 369.8375,-898.955 371.1898,-892.0868"/>
</g>
<!-- Node322 -->
<g id="node21" class="node">
<title>Node322</title>
<g id="a_node21"><a xlink:href="mining_8cpp.html#af9521f9858269fec01965f9bb1563dcc" target="_top" xlink:title="estimaterawfee">
<polygon fill="#ffffff" stroke="#000000" points="463.5,-874.5 463.5,-893.5 546.5,-893.5 546.5,-874.5 463.5,-874.5"/>
<text text-anchor="middle" x="505" y="-881.5" font-family="Helvetica,sans-Serif" font-size="10.00" fill="#000000">estimaterawfee</text>
</a>
</g>
</g>
<!-- Node320&#45;&gt;Node322 -->
<g id="edge20" class="edge">
<title>Node320&#45;&gt;Node322</title>
<path fill="none" stroke="#191970" d="M374.3248,-884C403.4914,-884 437.4411,-884 463.4253,-884"/>
<polygon fill="#191970" stroke="#191970" points="374.2286,-880.5001 364.2286,-884 374.2285,-887.5001 374.2286,-880.5001"/>
</g>
<!-- Node320&#45;&gt;Node323 -->
<g id="edge21" class="edge">
<title>Node320&#45;&gt;Node323</title>
<path fill="none" stroke="#191970" d="M370.5327,-872.4754C404.5365,-865.7804 446.0229,-857.6121 473.8438,-852.1344"/>
<polygon fill="#191970" stroke="#191970" points="369.8375,-869.045 360.702,-874.411 371.1898,-875.9132 369.8375,-869.045"/>
</g>
<!-- Node328 -->
<g id="node27" class="node">
<title>Node328</title>
<g id="a_node27"><a xlink:href="misc_8cpp.html#a06cf46754b31a639f71af1530ce32a0a" target="_top" xlink:title="createmultisig">
<polygon fill="#ffffff" stroke="#000000" points="466.5,-703.5 466.5,-722.5 543.5,-722.5 543.5,-703.5 466.5,-703.5"/>
<text text-anchor="middle" x="505" y="-710.5" font-family="Helvetica,sans-Serif" font-size="10.00" fill="#000000">createmultisig</text>
</a>
</g>
</g>
<!-- Node327&#45;&gt;Node328 -->
<g id="edge26" class="edge">
<title>Node327&#45;&gt;Node328</title>
<path fill="none" stroke="#191970" d="M395.3752,-702.2079C420.0988,-704.6418 445.9935,-707.1911 466.4043,-709.2004"/>
<polygon fill="#191970" stroke="#191970" points="395.535,-698.7068 385.2402,-701.2102 394.8492,-705.6731 395.535,-698.7068"/>
</g>
<!-- Node329 -->
<g id="node28" class="node">
<title>Node329</title>
<g id="a_node28"><a xlink:href="rpcwallet_8cpp.html#a35279acfa0bfaf424d5137da424eb8db" target="_top" xlink:title="addmultisigaddress">
<polygon fill="#ffffff" stroke="#000000" points="454.5,-665.5 454.5,-684.5 555.5,-684.5 555.5,-665.5 454.5,-665.5"/>
<text text-anchor="middle" x="505" y="-672.5" font-family="Helvetica,sans-Serif" font-size="10.00" fill="#000000">addmultisigaddress</text>
</a>
</g>
</g>
<!-- Node327&#45;&gt;Node329 -->
<g id="edge27" class="edge">
<title>Node327&#45;&gt;Node329</title>
<path fill="none" stroke="#191970" d="M395.3281,-685.7967C415.396,-683.8211 436.2383,-681.7693 454.2955,-679.9916"/>
<polygon fill="#191970" stroke="#191970" points="394.8492,-682.3269 385.2402,-686.7898 395.535,-689.2932 394.8492,-682.3269"/>
</g>
<!-- Node338 -->
<g id="node37" class="node">
<title>Node338</title>
<g id="a_node37"><a xlink:href="rpcwallet_8cpp.html#a279aef587f3fe58d806fb6f47f38075d" target="_top" xlink:title="listreceivedbyaddress">
<polygon fill="#ffffff" stroke="#000000" points="449.5,-399.5 449.5,-418.5 560.5,-418.5 560.5,-399.5 449.5,-399.5"/>
<text text-anchor="middle" x="505" y="-406.5" font-family="Helvetica,sans-Serif" font-size="10.00" fill="#000000">listreceivedbyaddress</text>
</a>
</g>
</g>
<!-- Node337&#45;&gt;Node338 -->
<g id="edge37" class="edge">
<title>Node337&#45;&gt;Node338</title>
<path fill="none" stroke="#191970" d="M359.2566,-394.6522C386.4445,-397.3287 420.7564,-400.7066 449.2574,-403.5124"/>
<polygon fill="#191970" stroke="#191970" points="359.5072,-391.16 349.2123,-393.6634 358.8213,-398.1264 359.5072,-391.16"/>
</g>
<!-- Node339 -->
<g id="node38" class="node">
<title>Node339</title>
<g id="a_node38"><a xlink:href="rpcwallet_8cpp.html#afa06defbf39714d57ae870e371d5240e" target="_top" xlink:title="listreceivedbyaccount">
<polygon fill="#ffffff" stroke="#000000" points="449.5,-361.5 449.5,-380.5 560.5,-380.5 560.5,-361.5 449.5,-361.5"/>
<text text-anchor="middle" x="505" y="-368.5" font-family="Helvetica,sans-Serif" font-size="10.00" fill="#000000">listreceivedbyaccount</text>
</a>
</g>
</g>
<!-- Node337&#45;&gt;Node339 -->
<g id="edge38" class="edge">
<title>Node337&#45;&gt;Node339</title>
<path fill="none" stroke="#191970" d="M359.2566,-385.3478C386.4445,-382.6713 420.7564,-379.2934 449.2574,-376.4876"/>
<polygon fill="#191970" stroke="#191970" points="358.8213,-381.8736 349.2123,-386.3366 359.5072,-388.84 358.8213,-381.8736"/>
</g>
<!-- Node349 -->
<g id="node48" class="node">
<title>Node349</title>
<g id="a_node48"><a xlink:href="class_c_connman.html#ac810542ffa683d5dde5e5524b5ce2e4e" target="_top" xlink:title="CConnman::ConnectNode">
<polygon fill="#ffffff" stroke="#000000" points="439,-19.5 439,-38.5 571,-38.5 571,-19.5 439,-19.5"/>
<text text-anchor="middle" x="505" y="-26.5" font-family="Helvetica,sans-Serif" font-size="10.00" fill="#000000">CConnman::ConnectNode</text>
</a>
</g>
</g>
<!-- Node348&#45;&gt;Node349 -->
<g id="edge48" class="edge">
<title>Node348&#45;&gt;Node349</title>
<path fill="none" stroke="#191970" d="M193.8025,-45.4701C256.8206,-42.1348 367.9893,-36.2513 438.9914,-32.4935"/>
<polygon fill="#191970" stroke="#191970" points="193.5418,-41.9789 183.7408,-46.0026 193.9118,-48.9691 193.5418,-41.9789"/>
</g>
<!-- Node355 -->
<g id="node50" class="node">
<title>Node355</title>
<g id="a_node50"><a xlink:href="netbase_8h.html#a56a2f4bcb9fb77b5efe358f804f642cc" target="_top" xlink:title="Lookup">
<polygon fill="#ffffff" stroke="#ff0000" points="288,-.5 288,-19.5 336,-19.5 336,-.5 288,-.5"/>
<text text-anchor="middle" x="312" y="-7.5" font-family="Helvetica,sans-Serif" font-size="10.00" fill="#000000">Lookup</text>
</a>
</g>
</g>
<!-- Node348&#45;&gt;Node355 -->
<g id="edge50" class="edge">
<title>Node348&#45;&gt;Node355</title>
<path fill="none" stroke="#191970" d="M193.7708,-37.0645C224.5526,-30.0181 263.272,-21.1546 287.8372,-15.5312"/>
<polygon fill="#191970" stroke="#191970" points="192.6348,-33.7339 183.668,-39.3772 194.1969,-40.5575 192.6348,-33.7339"/>
</g>
<!-- Node350 -->
<g id="node49" class="node">
<title>Node350</title>
<g id="a_node49"><a xlink:href="class_c_connman.html#a3bd6aed18096f954c24c80b32c876da5" target="_top" xlink:title="CConnman::OpenNetworkConnection">
<polygon fill="#ffffff" stroke="#ff0000" points="614,-19.5 614,-38.5 796,-38.5 796,-19.5 614,-19.5"/>
<text text-anchor="middle" x="705" y="-26.5" font-family="Helvetica,sans-Serif" font-size="10.00" fill="#000000">CConnman::OpenNetworkConnection</text>
</a>
</g>
</g>
<!-- Node349&#45;&gt;Node350 -->
<g id="edge49" class="edge">
<title>Node349&#45;&gt;Node350</title>
<path fill="none" stroke="#191970" d="M581.1136,-29C591.759,-29 602.788,-29 613.6786,-29"/>
<polygon fill="#191970" stroke="#191970" points="581.0418,-25.5001 571.0418,-29 581.0417,-32.5001 581.0418,-25.5001"/>
</g>
<!-- Node355&#45;&gt;Node349 -->
<g id="edge51" class="edge">
<title>Node355&#45;&gt;Node349</title>
<path fill="none" stroke="#191970" d="M346.3467,-13.3813C371.9122,-15.8981 407.608,-19.4122 438.6679,-22.4699"/>
<polygon fill="#191970" stroke="#191970" points="346.3482,-9.8646 336.0534,-12.3679 345.6623,-16.8309 346.3482,-9.8646"/>
</g>
</g>
</svg>
