<?xml version="1.0" encoding="UTF-8" standalone="no"?>
<!DOCTYPE svg PUBLIC "-//W3C//DTD SVG 1.1//EN"
 "http://www.w3.org/Graphics/SVG/1.1/DTD/svg11.dtd">
<!-- Generated by graphviz version 2.40.1 (20161225.0304)
 -->
<!-- Title: ParseDouble Pages: 1 -->
<svg width="351pt" height="66pt"
 viewBox="0.00 0.00 351.00 66.00" xmlns="http://www.w3.org/2000/svg" xmlns:xlink="http://www.w3.org/1999/xlink">
<g id="graph0" class="graph" transform="scale(1 1) rotate(0) translate(4 62)">
<title>ParseDouble</title>
<polygon fill="#ffffff" stroke="transparent" points="-4,4 -4,-62 347,-62 347,4 -4,4"/>
<!-- Node292 -->
<g id="node1" class="node">
<title>Node292</title>
<polygon fill="#bfbfbf" stroke="#000000" points="0,-19.5 0,-38.5 73,-38.5 73,-19.5 0,-19.5"/>
<text text-anchor="middle" x="36.5" y="-26.5" font-family="Helvetica,sans-Serif" font-size="10.00" fill="#000000">ParseDouble</text>
</g>
<!-- Node293 -->
<g id="node2" class="node">
<title>Node293</title>
<g id="a_node2"><a xlink:href="class_uni_value.html#ae767e3e162b24c182aab4706f63a45f1" target="_top" xlink:title="UniValue::get_real">
<polygon fill="#ffffff" stroke="#000000" points="109,-19.5 109,-38.5 206,-38.5 206,-19.5 109,-19.5"/>
<text text-anchor="middle" x="157.5" y="-26.5" font-family="Helvetica,sans-Serif" font-size="10.00" fill="#000000">UniValue::get_real</text>
</a>
</g>
</g>
<!-- Node292&#45;&gt;Node293 -->
<g id="edge1" class="edge">
<title>Node292&#45;&gt;Node293</title>
<path fill="none" stroke="#191970" d="M83.1865,-29C91.6218,-29 100.4356,-29 108.9234,-29"/>
<polygon fill="#191970" stroke="#191970" points="83.1324,-25.5001 73.1324,-29 83.1323,-32.5001 83.1324,-25.5001"/>
</g>
<!-- Node294 -->
<g id="node3" class="node">
<title>Node294</title>
<g id="a_node3"><a xlink:href="mining_8cpp.html#a617a6a3bdefa5ef27a13d8e138e8c292" target="_top" xlink:title="prioritisetransaction">
<polygon fill="#ffffff" stroke="#000000" points="242,-38.5 242,-57.5 343,-57.5 343,-38.5 242,-38.5"/>
<text text-anchor="middle" x="292.5" y="-45.5" font-family="Helvetica,sans-Serif" font-size="10.00" fill="#000000">prioritisetransaction</text>
</a>
</g>
</g>
<!-- Node293&#45;&gt;Node294 -->
<g id="edge2" class="edge">
<title>Node293&#45;&gt;Node294</title>
<path fill="none" stroke="#191970" d="M216.3548,-37.2833C224.7517,-38.465 233.33,-39.6724 241.5585,-40.8305"/>
<polygon fill="#191970" stroke="#191970" points="216.6283,-33.7873 206.2381,-35.8594 215.6527,-40.719 216.6283,-33.7873"/>
</g>
<!-- Node295 -->
<g id="node4" class="node">
<title>Node295</title>
<g id="a_node4"><a xlink:href="mining_8cpp.html#af9521f9858269fec01965f9bb1563dcc" target="_top" xlink:title="estimaterawfee">
<polygon fill="#ffffff" stroke="#000000" points="251,-.5 251,-19.5 334,-19.5 334,-.5 251,-.5"/>
<text text-anchor="middle" x="292.5" y="-7.5" font-family="Helvetica,sans-Serif" font-size="10.00" fill="#000000">estimaterawfee</text>
</a>
</g>
</g>
<!-- Node293&#45;&gt;Node295 -->
<g id="edge3" class="edge">
<title>Node293&#45;&gt;Node295</title>
<path fill="none" stroke="#191970" d="M216.3584,-20.7162C228.0177,-19.0753 240.0268,-17.3851 250.9631,-15.8459"/>
<polygon fill="#191970" stroke="#191970" points="215.6527,-17.281 206.2381,-22.1406 216.6283,-24.2127 215.6527,-17.281"/>
</g>
</g>
</svg>
