<?xml version="1.0" encoding="UTF-8" standalone="no"?>
<!DOCTYPE svg PUBLIC "-//W3C//DTD SVG 1.1//EN"
 "http://www.w3.org/Graphics/SVG/1.1/DTD/svg11.dtd">
<!-- Generated by graphviz version 2.40.1 (20161225.0304)
 -->
<!-- Title: error Pages: 1 -->
<svg width="816pt" height="674pt"
 viewBox="0.00 0.00 816.00 674.00" xmlns="http://www.w3.org/2000/svg" xmlns:xlink="http://www.w3.org/1999/xlink">
<g id="graph0" class="graph" transform="scale(1 1) rotate(0) translate(4 670)">
<title>error</title>
<polygon fill="#ffffff" stroke="transparent" points="-4,4 -4,-670 812,-670 812,4 -4,4"/>
<!-- Node1150 -->
<g id="node1" class="node">
<title>Node1150</title>
<polygon fill="#bfbfbf" stroke="#000000" points="0,-323.5 0,-342.5 36,-342.5 36,-323.5 0,-323.5"/>
<text text-anchor="middle" x="18" y="-330.5" font-family="Helvetica,sans-Serif" font-size="10.00" fill="#000000">error</text>
</g>
<!-- Node1151 -->
<g id="node2" class="node">
<title>Node1151</title>
<g id="a_node2"><a xlink:href="util_8h.html#afd4c3002b2797c0560adddb6af3ca1da" target="_top" xlink:title="Send a string to the log output. ">
<polygon fill="#ffffff" stroke="#000000" points="101.5,-646.5 101.5,-665.5 166.5,-665.5 166.5,-646.5 101.5,-646.5"/>
<text text-anchor="middle" x="134" y="-653.5" font-family="Helvetica,sans-Serif" font-size="10.00" fill="#000000">LogPrintStr</text>
</a>
</g>
</g>
<!-- Node1150&#45;&gt;Node1151 -->
<g id="edge1" class="edge">
<title>Node1150&#45;&gt;Node1151</title>
<path fill="none" stroke="#191970" d="M18.3968,-342.6774C20.5045,-389.4454 31.8497,-591.6461 72,-637 77.2469,-642.927 84.2888,-647.0315 91.7437,-649.8675"/>
<polygon fill="#191970" stroke="#191970" points="90.7158,-653.2131 101.3035,-652.8231 92.7835,-646.5254 90.7158,-653.2131"/>
</g>
<!-- Node1152 -->
<g id="node3" class="node">
<title>Node1152</title>
<g id="a_node3"><a xlink:href="namespacetinyformat.html#a05144619d8b16e2b31b2594ca9c6bf1d" target="_top" xlink:title="Format list of arguments to the stream according to given format string. ">
<polygon fill="#ffffff" stroke="#000000" points="87,-608.5 87,-627.5 181,-627.5 181,-608.5 87,-608.5"/>
<text text-anchor="middle" x="134" y="-615.5" font-family="Helvetica,sans-Serif" font-size="10.00" fill="#000000">tinyformat::format</text>
</a>
</g>
</g>
<!-- Node1150&#45;&gt;Node1152 -->
<g id="edge2" class="edge">
<title>Node1150&#45;&gt;Node1152</title>
<path fill="none" stroke="#191970" d="M18.6579,-342.5975C21.7901,-385.5723 36.5356,-559.9141 72,-599 73.7872,-600.9697 75.7726,-602.7377 77.9043,-604.3244"/>
<polygon fill="#191970" stroke="#191970" points="76.3601,-607.4784 86.7425,-609.5891 79.9424,-601.4645 76.3601,-607.4784"/>
</g>
<!-- Node1161 -->
<g id="node12" class="node">
<title>Node1161</title>
<g id="a_node12"><a xlink:href="util_8h.html#aaada8c5faa502eb0c33fc01294955db8" target="_top" xlink:title="PrintExceptionContinue">
<polygon fill="#ffffff" stroke="#000000" points="74.5,-570.5 74.5,-589.5 193.5,-589.5 193.5,-570.5 74.5,-570.5"/>
<text text-anchor="middle" x="134" y="-577.5" font-family="Helvetica,sans-Serif" font-size="10.00" fill="#000000">PrintExceptionContinue</text>
</a>
</g>
</g>
<!-- Node1150&#45;&gt;Node1161 -->
<g id="edge11" class="edge">
<title>Node1150&#45;&gt;Node1161</title>
<path fill="none" stroke="#191970" d="M18.9993,-342.5155C23.2704,-381.4524 41.1927,-528.1285 72,-561 73.2438,-562.3271 74.5775,-563.5624 75.9849,-564.7122"/>
<polygon fill="#191970" stroke="#191970" points="74.4461,-567.8866 84.7371,-570.4059 78.2633,-562.0189 74.4461,-567.8866"/>
</g>
<!-- Node1162 -->
<g id="node13" class="node">
<title>Node1162</title>
<g id="a_node13"><a xlink:href="util_8h.html#af0e69a29ba128b74030ad8a213f2037a" target="_top" xlink:title="FileCommit">
<polygon fill="#ffffff" stroke="#000000" points="100.5,-532.5 100.5,-551.5 167.5,-551.5 167.5,-532.5 100.5,-532.5"/>
<text text-anchor="middle" x="134" y="-539.5" font-family="Helvetica,sans-Serif" font-size="10.00" fill="#000000">FileCommit</text>
</a>
</g>
</g>
<!-- Node1150&#45;&gt;Node1162 -->
<g id="edge12" class="edge">
<title>Node1150&#45;&gt;Node1162</title>
<path fill="none" stroke="#191970" d="M19.4871,-342.5515C25.0755,-377.2934 45.8409,-496.3002 72,-523 77.2,-528.3075 83.8397,-532.1411 90.8311,-534.9082"/>
<polygon fill="#191970" stroke="#191970" points="89.8883,-538.2821 100.4808,-538.0585 92.0608,-531.6278 89.8883,-538.2821"/>
</g>
<!-- Node1163 -->
<g id="node14" class="node">
<title>Node1163</title>
<g id="a_node14"><a xlink:href="util_8h.html#acb8d6b822bc1bfa609bf43bbac1a0d44" target="_top" xlink:title="TruncateFile">
<polygon fill="#ffffff" stroke="#000000" points="98.5,-494.5 98.5,-513.5 169.5,-513.5 169.5,-494.5 98.5,-494.5"/>
<text text-anchor="middle" x="134" y="-501.5" font-family="Helvetica,sans-Serif" font-size="10.00" fill="#000000">TruncateFile</text>
</a>
</g>
</g>
<!-- Node1150&#45;&gt;Node1163 -->
<g id="edge13" class="edge">
<title>Node1150&#45;&gt;Node1163</title>
<path fill="none" stroke="#191970" d="M18.5448,-342.7798C20.5698,-369.5539 29.9152,-444.727 72,-485 76.6972,-489.495 82.4303,-492.9289 88.4929,-495.5517"/>
<polygon fill="#191970" stroke="#191970" points="87.595,-498.9482 98.1895,-499.0414 89.9655,-492.3618 87.595,-498.9482"/>
</g>
<!-- Node1164 -->
<g id="node15" class="node">
<title>Node1164</title>
<g id="a_node15"><a xlink:href="util_8h.html#a756a5c49a4bb607d16d9842f8f3ede4f" target="_top" xlink:title="this function tries to raise the file descriptor limit to the requested number. ">
<polygon fill="#ffffff" stroke="#000000" points="72,-456.5 72,-475.5 196,-475.5 196,-456.5 72,-456.5"/>
<text text-anchor="middle" x="134" y="-463.5" font-family="Helvetica,sans-Serif" font-size="10.00" fill="#000000">RaiseFileDescriptorLimit</text>
</a>
</g>
</g>
<!-- Node1150&#45;&gt;Node1164 -->
<g id="edge14" class="edge">
<title>Node1150&#45;&gt;Node1164</title>
<path fill="none" stroke="#191970" d="M19.7956,-342.5384C24.4025,-364.352 38.7012,-418.2107 72,-447 73.9747,-448.7073 76.1004,-450.2612 78.3334,-451.6755"/>
<polygon fill="#191970" stroke="#191970" points="76.9109,-454.8825 87.3865,-456.4674 80.1857,-448.6958 76.9109,-454.8825"/>
</g>
<!-- Node1165 -->
<g id="node16" class="node">
<title>Node1165</title>
<g id="a_node16"><a xlink:href="util_8h.html#a91c763bffc49cf7ed8d45cc44870e55c" target="_top" xlink:title="this function tries to make a particular range of a file allocated (corresponding to disk space) it i...">
<polygon fill="#ffffff" stroke="#000000" points="86,-418.5 86,-437.5 182,-437.5 182,-418.5 86,-418.5"/>
<text text-anchor="middle" x="134" y="-425.5" font-family="Helvetica,sans-Serif" font-size="10.00" fill="#000000">AllocateFileRange</text>
</a>
</g>
</g>
<!-- Node1150&#45;&gt;Node1165 -->
<g id="edge15" class="edge">
<title>Node1150&#45;&gt;Node1165</title>
<path fill="none" stroke="#191970" d="M22.3053,-342.7266C29.9566,-358.8983 47.4576,-391.2855 72,-409 74.6929,-410.9437 77.5885,-412.6918 80.6042,-414.2634"/>
<polygon fill="#191970" stroke="#191970" points="79.3748,-417.5484 89.9297,-418.4686 82.2524,-411.1672 79.3748,-417.5484"/>
</g>
<!-- Node1166 -->
<g id="node17" class="node">
<title>Node1166</title>
<g id="a_node17"><a xlink:href="util_8h.html#a579657da2b55b131ecd453bf1b0d2314" target="_top" xlink:title="RenameOver">
<polygon fill="#ffffff" stroke="#000000" points="97,-380.5 97,-399.5 171,-399.5 171,-380.5 97,-380.5"/>
<text text-anchor="middle" x="134" y="-387.5" font-family="Helvetica,sans-Serif" font-size="10.00" fill="#000000">RenameOver</text>
</a>
</g>
</g>
<!-- Node1150&#45;&gt;Node1166 -->
<g id="edge16" class="edge">
<title>Node1150&#45;&gt;Node1166</title>
<path fill="none" stroke="#191970" d="M29.3352,-342.5935C39.8237,-351.0627 56.1444,-363.2372 72,-371 76.866,-373.3824 82.0936,-375.5405 87.3748,-377.4744"/>
<polygon fill="#191970" stroke="#191970" points="86.2779,-380.7982 96.8724,-380.7135 88.5375,-374.1729 86.2779,-380.7982"/>
</g>
<!-- Node1167 -->
<g id="node18" class="node">
<title>Node1167</title>
<g id="a_node18"><a xlink:href="util_8h.html#a9042a919d837da9d97311a0c460c597c" target="_top" xlink:title="Ignores exceptions thrown by Boost&#39;s create_directories if the requested directory exists...">
<polygon fill="#ffffff" stroke="#000000" points="80.5,-342.5 80.5,-361.5 187.5,-361.5 187.5,-342.5 80.5,-342.5"/>
<text text-anchor="middle" x="134" y="-349.5" font-family="Helvetica,sans-Serif" font-size="10.00" fill="#000000">TryCreateDirectories</text>
</a>
</g>
</g>
<!-- Node1150&#45;&gt;Node1167 -->
<g id="edge17" class="edge">
<title>Node1150&#45;&gt;Node1167</title>
<path fill="none" stroke="#191970" d="M36.125,-335.9688C45.5776,-337.517 57.7689,-339.5139 70.3184,-341.5694"/>
<polygon fill="#191970" stroke="#191970" points="69.9799,-345.0605 80.4142,-343.223 71.1114,-338.1526 69.9799,-345.0605"/>
</g>
<!-- Node1168 -->
<g id="node19" class="node">
<title>Node1168</title>
<g id="a_node19"><a xlink:href="util_8h.html#a15cb85964fe08c264605537f44570d3c" target="_top" xlink:title="GetDefaultDataDir">
<polygon fill="#ffffff" stroke="#000000" points="85,-304.5 85,-323.5 183,-323.5 183,-304.5 85,-304.5"/>
<text text-anchor="middle" x="134" y="-311.5" font-family="Helvetica,sans-Serif" font-size="10.00" fill="#000000">GetDefaultDataDir</text>
</a>
</g>
</g>
<!-- Node1150&#45;&gt;Node1168 -->
<g id="edge18" class="edge">
<title>Node1150&#45;&gt;Node1168</title>
<path fill="none" stroke="#191970" d="M36.125,-330.0313C46.6877,-328.3012 60.6702,-326.0109 74.7509,-323.7046"/>
<polygon fill="#191970" stroke="#191970" points="75.671,-327.1006 84.9737,-322.0302 74.5394,-320.1927 75.671,-327.1006"/>
</g>
<!-- Node1169 -->
<g id="node20" class="node">
<title>Node1169</title>
<g id="a_node20"><a xlink:href="util_8h.html#abb63dfb710832aefb746933af05198d4" target="_top" xlink:title="GetDataDir">
<polygon fill="#ffffff" stroke="#000000" points="101,-266.5 101,-285.5 167,-285.5 167,-266.5 101,-266.5"/>
<text text-anchor="middle" x="134" y="-273.5" font-family="Helvetica,sans-Serif" font-size="10.00" fill="#000000">GetDataDir</text>
</a>
</g>
</g>
<!-- Node1150&#45;&gt;Node1169 -->
<g id="edge19" class="edge">
<title>Node1150&#45;&gt;Node1169</title>
<path fill="none" stroke="#191970" d="M29.3352,-323.4065C39.8237,-314.9373 56.1444,-302.7628 72,-295 78.0462,-292.0398 84.6505,-289.4259 91.2225,-287.158"/>
<polygon fill="#191970" stroke="#191970" points="92.3158,-290.483 100.759,-284.0827 90.1674,-283.8208 92.3158,-290.483"/>
</g>
<!-- Node1170 -->
<g id="node21" class="node">
<title>Node1170</title>
<g id="a_node21"><a xlink:href="util_8h.html#abfb50dfe077aced7591f2aba601f605d" target="_top" xlink:title="ClearDatadirCache">
<polygon fill="#ffffff" stroke="#000000" points="84,-228.5 84,-247.5 184,-247.5 184,-228.5 84,-228.5"/>
<text text-anchor="middle" x="134" y="-235.5" font-family="Helvetica,sans-Serif" font-size="10.00" fill="#000000">ClearDatadirCache</text>
</a>
</g>
</g>
<!-- Node1150&#45;&gt;Node1170 -->
<g id="edge20" class="edge">
<title>Node1150&#45;&gt;Node1170</title>
<path fill="none" stroke="#191970" d="M22.3053,-323.2734C29.9566,-307.1017 47.4576,-274.7145 72,-257 74.6929,-255.0563 77.5885,-253.3082 80.6042,-251.7366"/>
<polygon fill="#191970" stroke="#191970" points="82.2524,-254.8328 89.9297,-247.5314 79.3748,-248.4516 82.2524,-254.8328"/>
</g>
<!-- Node1171 -->
<g id="node22" class="node">
<title>Node1171</title>
<g id="a_node22"><a xlink:href="util_8h.html#aa634f312705d4811dfa2a5392bddf6cf" target="_top" xlink:title="GetConfigFile">
<polygon fill="#ffffff" stroke="#000000" points="95.5,-152.5 95.5,-171.5 172.5,-171.5 172.5,-152.5 95.5,-152.5"/>
<text text-anchor="middle" x="134" y="-159.5" font-family="Helvetica,sans-Serif" font-size="10.00" fill="#000000">GetConfigFile</text>
</a>
</g>
</g>
<!-- Node1150&#45;&gt;Node1171 -->
<g id="edge21" class="edge">
<title>Node1150&#45;&gt;Node1171</title>
<path fill="none" stroke="#191970" d="M18.5448,-323.2202C20.5698,-296.4461 29.9152,-221.273 72,-181 76.016,-177.1569 80.7893,-174.0894 85.8782,-171.6413"/>
<polygon fill="#191970" stroke="#191970" points="87.3048,-174.8403 95.284,-167.8701 84.6997,-168.3431 87.3048,-174.8403"/>
</g>
<!-- Node1173 -->
<g id="node24" class="node">
<title>Node1173</title>
<g id="a_node24"><a xlink:href="util_8h.html#aa0172eabeecce5061826cb19990fbde2" target="_top" xlink:title="GetPidFile">
<polygon fill="#ffffff" stroke="#000000" points="103,-190.5 103,-209.5 165,-209.5 165,-190.5 103,-190.5"/>
<text text-anchor="middle" x="134" y="-197.5" font-family="Helvetica,sans-Serif" font-size="10.00" fill="#000000">GetPidFile</text>
</a>
</g>
</g>
<!-- Node1150&#45;&gt;Node1173 -->
<g id="edge23" class="edge">
<title>Node1150&#45;&gt;Node1173</title>
<path fill="none" stroke="#191970" d="M19.7956,-323.4616C24.4025,-301.648 38.7012,-247.7893 72,-219 78.0479,-213.7711 85.5115,-209.9812 93.14,-207.2342"/>
<polygon fill="#191970" stroke="#191970" points="94.2564,-210.5528 102.7966,-204.2826 92.2103,-203.8585 94.2564,-210.5528"/>
</g>
<!-- Node1175 -->
<g id="node26" class="node">
<title>Node1175</title>
<g id="a_node26"><a xlink:href="util_8h.html#a1c0f9b041628dcb399a023bc9913f41d" target="_top" xlink:title="CreatePidFile">
<polygon fill="#ffffff" stroke="#000000" points="96,-38.5 96,-57.5 172,-57.5 172,-38.5 96,-38.5"/>
<text text-anchor="middle" x="134" y="-45.5" font-family="Helvetica,sans-Serif" font-size="10.00" fill="#000000">CreatePidFile</text>
</a>
</g>
</g>
<!-- Node1150&#45;&gt;Node1175 -->
<g id="edge26" class="edge">
<title>Node1150&#45;&gt;Node1175</title>
<path fill="none" stroke="#191970" d="M18.6579,-323.4025C21.7901,-280.4277 36.5356,-106.0859 72,-67 76.0224,-62.5668 81.0486,-59.1555 86.4881,-56.5329"/>
<polygon fill="#191970" stroke="#191970" points="87.9016,-59.738 95.9282,-52.8225 85.341,-53.2232 87.9016,-59.738"/>
</g>
<!-- Node1177 -->
<g id="node28" class="node">
<title>Node1177</title>
<g id="a_node28"><a xlink:href="util_8h.html#a1e755e72104d3ca393efc1cc3f41952a" target="_top" xlink:title="OpenDebugLog">
<polygon fill="#ffffff" stroke="#000000" points="92,-76.5 92,-95.5 176,-95.5 176,-76.5 92,-76.5"/>
<text text-anchor="middle" x="134" y="-83.5" font-family="Helvetica,sans-Serif" font-size="10.00" fill="#000000">OpenDebugLog</text>
</a>
</g>
</g>
<!-- Node1150&#45;&gt;Node1177 -->
<g id="edge28" class="edge">
<title>Node1150&#45;&gt;Node1177</title>
<path fill="none" stroke="#191970" d="M18.9993,-323.4845C23.2704,-284.5476 41.1927,-137.8715 72,-105 75.1155,-101.6758 78.7953,-98.9277 82.7833,-96.6568"/>
<polygon fill="#191970" stroke="#191970" points="84.3181,-99.803 91.9061,-92.4089 81.3633,-93.4572 84.3181,-99.803"/>
</g>
<!-- Node1178 -->
<g id="node29" class="node">
<title>Node1178</title>
<g id="a_node29"><a xlink:href="util_8h.html#a37fca7e305fe0caa306b23fdb37f88e2" target="_top" xlink:title="ShrinkDebugFile">
<polygon fill="#ffffff" stroke="#000000" points="89.5,-114.5 89.5,-133.5 178.5,-133.5 178.5,-114.5 89.5,-114.5"/>
<text text-anchor="middle" x="134" y="-121.5" font-family="Helvetica,sans-Serif" font-size="10.00" fill="#000000">ShrinkDebugFile</text>
</a>
</g>
</g>
<!-- Node1150&#45;&gt;Node1178 -->
<g id="edge29" class="edge">
<title>Node1150&#45;&gt;Node1178</title>
<path fill="none" stroke="#191970" d="M19.4871,-323.4485C25.0755,-288.7066 45.8409,-169.6998 72,-143 74.4781,-140.4707 77.2832,-138.276 80.2975,-136.3721"/>
<polygon fill="#191970" stroke="#191970" points="81.9765,-139.4442 89.2487,-131.7392 78.7589,-133.2274 81.9765,-139.4442"/>
</g>
<!-- Node1179 -->
<g id="node30" class="node">
<title>Node1179</title>
<g id="a_node30"><a xlink:href="util_8h.html#aa803aa631ab8b4bd79fa9d7b2172bf9a" target="_top" xlink:title="runCommand">
<polygon fill="#ffffff" stroke="#000000" points="96.5,-.5 96.5,-19.5 171.5,-19.5 171.5,-.5 96.5,-.5"/>
<text text-anchor="middle" x="134" y="-7.5" font-family="Helvetica,sans-Serif" font-size="10.00" fill="#000000">runCommand</text>
</a>
</g>
</g>
<!-- Node1150&#45;&gt;Node1179 -->
<g id="edge32" class="edge">
<title>Node1150&#45;&gt;Node1179</title>
<path fill="none" stroke="#191970" d="M18.3968,-323.3226C20.5045,-276.5546 31.8497,-74.3539 72,-29 76.0635,-24.4099 81.2034,-20.9128 86.7781,-18.2515"/>
<polygon fill="#191970" stroke="#191970" points="88.3877,-21.382 96.4569,-14.5163 85.8674,-14.8514 88.3877,-21.382"/>
</g>
<!-- Node1153 -->
<g id="node4" class="node">
<title>Node1153</title>
<g id="a_node4"><a xlink:href="namespacetinyformat.html#a86ed74eb3ed66a662e96220d877da964" target="_top" xlink:title="Format list of arguments to the stream according to the given format string. ">
<polygon fill="#ffffff" stroke="#000000" points="251,-589.5 251,-608.5 350,-608.5 350,-589.5 251,-589.5"/>
<text text-anchor="middle" x="300.5" y="-596.5" font-family="Helvetica,sans-Serif" font-size="10.00" fill="#000000">tinyformat::vformat</text>
</a>
</g>
</g>
<!-- Node1152&#45;&gt;Node1153 -->
<g id="edge3" class="edge">
<title>Node1152&#45;&gt;Node1153</title>
<path fill="none" stroke="#191970" d="M181.2669,-612.6062C199.7697,-610.4948 221.209,-608.0482 240.7631,-605.8168"/>
<polygon fill="#191970" stroke="#191970" points="241.2525,-609.2838 250.7912,-604.6725 240.4588,-602.3289 241.2525,-609.2838"/>
</g>
<!-- Node1160 -->
<g id="node11" class="node">
<title>Node1160</title>
<g id="a_node11"><a xlink:href="namespacetinyformat.html#a37afaa5249c69dacd619269358f06f69" target="_top" xlink:title="Make type&#45;agnostic format list from list of template arguments. ">
<polygon fill="#ffffff" stroke="#000000" points="232,-627.5 232,-646.5 369,-646.5 369,-627.5 232,-627.5"/>
<text text-anchor="middle" x="300.5" y="-634.5" font-family="Helvetica,sans-Serif" font-size="10.00" fill="#000000">tinyformat::makeFormatList</text>
</a>
</g>
</g>
<!-- Node1152&#45;&gt;Node1160 -->
<g id="edge10" class="edge">
<title>Node1152&#45;&gt;Node1160</title>
<path fill="none" stroke="#191970" d="M181.2669,-623.3938C193.9546,-624.8417 208.0231,-626.4471 221.9177,-628.0327"/>
<polygon fill="#191970" stroke="#191970" points="221.6498,-631.5247 231.9822,-629.1811 222.4435,-624.5698 221.6498,-631.5247"/>
</g>
<!-- Node1154 -->
<g id="node5" class="node">
<title>Node1154</title>
<g id="a_node5"><a xlink:href="namespacetinyformat_1_1detail.html#a079a316938c0e8693efbeb0183b1390d" target="_top" xlink:title="tinyformat::detail\l::formatImpl">
<polygon fill="#ffffff" stroke="#000000" points="405,-584 405,-614 494,-614 494,-584 405,-584"/>
<text text-anchor="start" x="413" y="-602" font-family="Helvetica,sans-Serif" font-size="10.00" fill="#000000">tinyformat::detail</text>
<text text-anchor="middle" x="449.5" y="-591" font-family="Helvetica,sans-Serif" font-size="10.00" fill="#000000">::formatImpl</text>
</a>
</g>
</g>
<!-- Node1153&#45;&gt;Node1154 -->
<g id="edge4" class="edge">
<title>Node1153&#45;&gt;Node1154</title>
<path fill="none" stroke="#191970" d="M350.1148,-599C364.2842,-599 379.8105,-599 394.2923,-599"/>
<polygon fill="#191970" stroke="#191970" points="394.6183,-602.5001 404.6183,-599 394.6183,-595.5001 394.6183,-602.5001"/>
</g>
<!-- Node1155 -->
<g id="node6" class="node">
<title>Node1155</title>
<g id="a_node6"><a xlink:href="namespacetinyformat_1_1detail.html#ad3d636b9f85202b515c8940b7fcb62a6" target="_top" xlink:title="tinyformat::detail\l::printFormatStringLiteral">
<polygon fill="#ffffff" stroke="#000000" points="532.5,-633 532.5,-663 656.5,-663 656.5,-633 532.5,-633"/>
<text text-anchor="start" x="540.5" y="-651" font-family="Helvetica,sans-Serif" font-size="10.00" fill="#000000">tinyformat::detail</text>
<text text-anchor="middle" x="594.5" y="-640" font-family="Helvetica,sans-Serif" font-size="10.00" fill="#000000">::printFormatStringLiteral</text>
</a>
</g>
</g>
<!-- Node1154&#45;&gt;Node1155 -->
<g id="edge5" class="edge">
<title>Node1154&#45;&gt;Node1155</title>
<path fill="none" stroke="#191970" d="M494.1879,-614.1014C508.659,-618.9917 524.8725,-624.4707 539.9752,-629.5744"/>
<polygon fill="#191970" stroke="#191970" points="539.1158,-632.9783 549.71,-632.8641 541.3569,-626.3468 539.1158,-632.9783"/>
</g>
<!-- Node1156 -->
<g id="node7" class="node">
<title>Node1156</title>
<g id="a_node7"><a xlink:href="namespacetinyformat_1_1detail.html#a681e8ceb825485cc5e3b057c11e4b1b5" target="_top" xlink:title="tinyformat::detail\l::streamStateFromFormat">
<polygon fill="#ffffff" stroke="#000000" points="530,-584 530,-614 659,-614 659,-584 530,-584"/>
<text text-anchor="start" x="538" y="-602" font-family="Helvetica,sans-Serif" font-size="10.00" fill="#000000">tinyformat::detail</text>
<text text-anchor="middle" x="594.5" y="-591" font-family="Helvetica,sans-Serif" font-size="10.00" fill="#000000">::streamStateFromFormat</text>
</a>
</g>
</g>
<!-- Node1154&#45;&gt;Node1156 -->
<g id="edge6" class="edge">
<title>Node1154&#45;&gt;Node1156</title>
<path fill="none" stroke="#191970" d="M494.1879,-599C502.3219,-599 511.0064,-599 519.7346,-599"/>
<polygon fill="#191970" stroke="#191970" points="519.9707,-602.5001 529.9707,-599 519.9706,-595.5001 519.9707,-602.5001"/>
</g>
<!-- Node1159 -->
<g id="node10" class="node">
<title>Node1159</title>
<g id="a_node10"><a xlink:href="classtinyformat_1_1detail_1_1_format_arg.html#acbf435711bbe4a4da7fc81758d7108a9" target="_top" xlink:title="tinyformat::detail\l::FormatArg::format">
<polygon fill="#ffffff" stroke="#000000" points="543.5,-535 543.5,-565 645.5,-565 645.5,-535 543.5,-535"/>
<text text-anchor="start" x="551.5" y="-553" font-family="Helvetica,sans-Serif" font-size="10.00" fill="#000000">tinyformat::detail</text>
<text text-anchor="middle" x="594.5" y="-542" font-family="Helvetica,sans-Serif" font-size="10.00" fill="#000000">::FormatArg::format</text>
</a>
</g>
</g>
<!-- Node1154&#45;&gt;Node1159 -->
<g id="edge9" class="edge">
<title>Node1154&#45;&gt;Node1159</title>
<path fill="none" stroke="#191970" d="M494.1879,-583.8986C508.659,-579.0083 524.8725,-573.5293 539.9752,-568.4256"/>
<polygon fill="#191970" stroke="#191970" points="541.3569,-571.6532 549.71,-565.1359 539.1158,-565.0217 541.3569,-571.6532"/>
</g>
<!-- Node1157 -->
<g id="node8" class="node">
<title>Node1157</title>
<g id="a_node8"><a xlink:href="namespacetinyformat_1_1detail.html#a67285e0adb9f4164f9fc30a3eb11c771" target="_top" xlink:title="tinyformat::detail\l::parseIntAndAdvance">
<polygon fill="#ffffff" stroke="#000000" points="695,-608 695,-638 808,-638 808,-608 695,-608"/>
<text text-anchor="start" x="703" y="-626" font-family="Helvetica,sans-Serif" font-size="10.00" fill="#000000">tinyformat::detail</text>
<text text-anchor="middle" x="751.5" y="-615" font-family="Helvetica,sans-Serif" font-size="10.00" fill="#000000">::parseIntAndAdvance</text>
</a>
</g>
</g>
<!-- Node1156&#45;&gt;Node1157 -->
<g id="edge7" class="edge">
<title>Node1156&#45;&gt;Node1157</title>
<path fill="none" stroke="#191970" d="M659.2643,-608.9003C667.7639,-610.1996 676.4852,-611.5328 685.0128,-612.8363"/>
<polygon fill="#191970" stroke="#191970" points="684.4954,-616.2978 694.9095,-614.3492 685.5533,-609.3782 684.4954,-616.2978"/>
</g>
<!-- Node1158 -->
<g id="node9" class="node">
<title>Node1158</title>
<g id="a_node9"><a xlink:href="classtinyformat_1_1detail_1_1_format_arg.html#a91b69f66ce9dc8ca2914dce8985d7a1a" target="_top" xlink:title="tinyformat::detail\l::FormatArg::toInt">
<polygon fill="#ffffff" stroke="#000000" points="704.5,-559 704.5,-589 798.5,-589 798.5,-559 704.5,-559"/>
<text text-anchor="start" x="712.5" y="-577" font-family="Helvetica,sans-Serif" font-size="10.00" fill="#000000">tinyformat::detail</text>
<text text-anchor="middle" x="751.5" y="-566" font-family="Helvetica,sans-Serif" font-size="10.00" fill="#000000">::FormatArg::toInt</text>
</a>
</g>
</g>
<!-- Node1156&#45;&gt;Node1158 -->
<g id="edge8" class="edge">
<title>Node1156&#45;&gt;Node1158</title>
<path fill="none" stroke="#191970" d="M659.2643,-588.6872C670.7757,-586.8542 682.6938,-584.9564 693.9865,-583.1582"/>
<polygon fill="#191970" stroke="#191970" points="694.8268,-586.5686 704.152,-581.5395 693.726,-579.6557 694.8268,-586.5686"/>
</g>
<!-- Node1172 -->
<g id="node23" class="node">
<title>Node1172</title>
<g id="a_node23"><a xlink:href="util_8cpp.html#a7ebe0bd091f7334aaead43904601e008" target="_top" xlink:title="GetDataDir">
<polygon fill="#ffffff" stroke="#000000" points="267.5,-152.5 267.5,-171.5 333.5,-171.5 333.5,-152.5 267.5,-152.5"/>
<text text-anchor="middle" x="300.5" y="-159.5" font-family="Helvetica,sans-Serif" font-size="10.00" fill="#000000">GetDataDir</text>
</a>
</g>
</g>
<!-- Node1171&#45;&gt;Node1172 -->
<g id="edge22" class="edge">
<title>Node1171&#45;&gt;Node1172</title>
<path fill="none" stroke="#191970" d="M172.6169,-162C197.9746,-162 231.1762,-162 257.3939,-162"/>
<polygon fill="#191970" stroke="#191970" points="257.4308,-165.5001 267.4308,-162 257.4308,-158.5001 257.4308,-165.5001"/>
</g>
<!-- Node1173&#45;&gt;Node1172 -->
<g id="edge25" class="edge">
<title>Node1173&#45;&gt;Node1172</title>
<path fill="none" stroke="#191970" d="M165.3174,-192.8525C191.3555,-186.9098 228.6789,-178.3916 257.5137,-171.8107"/>
<polygon fill="#191970" stroke="#191970" points="258.3559,-175.2085 267.3265,-169.5711 256.7983,-168.384 258.3559,-175.2085"/>
</g>
<!-- Node1174 -->
<g id="node25" class="node">
<title>Node1174</title>
<g id="a_node25"><a xlink:href="class_args_manager.html#adb5d644d273b3a259f792affcdca8283" target="_top" xlink:title="Return string argument or default value. ">
<polygon fill="#ffffff" stroke="#000000" points="245,-190.5 245,-209.5 356,-209.5 356,-190.5 245,-190.5"/>
<text text-anchor="middle" x="300.5" y="-197.5" font-family="Helvetica,sans-Serif" font-size="10.00" fill="#000000">ArgsManager::GetArg</text>
</a>
</g>
</g>
<!-- Node1173&#45;&gt;Node1174 -->
<g id="edge24" class="edge">
<title>Node1173&#45;&gt;Node1174</title>
<path fill="none" stroke="#191970" d="M165.3174,-200C184.8523,-200 210.7394,-200 234.6282,-200"/>
<polygon fill="#191970" stroke="#191970" points="234.7197,-203.5001 244.7197,-200 234.7196,-196.5001 234.7197,-203.5001"/>
</g>
<!-- Node1176 -->
<g id="node27" class="node">
<title>Node1176</title>
<g id="a_node27"><a xlink:href="namespacefsbridge.html#a19c84cec4ae9accfbc88a83e48f7ee92" target="_top" xlink:title="fsbridge::fopen">
<polygon fill="#ffffff" stroke="#000000" points="260,-76.5 260,-95.5 341,-95.5 341,-76.5 260,-76.5"/>
<text text-anchor="middle" x="300.5" y="-83.5" font-family="Helvetica,sans-Serif" font-size="10.00" fill="#000000">fsbridge::fopen</text>
</a>
</g>
</g>
<!-- Node1175&#45;&gt;Node1176 -->
<g id="edge27" class="edge">
<title>Node1175&#45;&gt;Node1176</title>
<path fill="none" stroke="#191970" d="M172.1985,-56.718C195.2349,-61.9755 224.8575,-68.7362 249.8339,-74.4366"/>
<polygon fill="#191970" stroke="#191970" points="249.3354,-77.9127 259.8635,-76.7256 250.893,-71.0882 249.3354,-77.9127"/>
</g>
<!-- Node1178&#45;&gt;Node1172 -->
<g id="edge30" class="edge">
<title>Node1178&#45;&gt;Node1172</title>
<path fill="none" stroke="#191970" d="M176.015,-133.589C200.9082,-139.2703 232.3821,-146.4536 257.4539,-152.1757"/>
<polygon fill="#191970" stroke="#191970" points="256.8902,-155.6369 267.4183,-154.4498 258.4478,-148.8124 256.8902,-155.6369"/>
</g>
<!-- Node1178&#45;&gt;Node1176 -->
<g id="edge31" class="edge">
<title>Node1178&#45;&gt;Node1176</title>
<path fill="none" stroke="#191970" d="M176.015,-114.411C198.5216,-109.2744 226.4076,-102.91 250.0776,-97.5078"/>
<polygon fill="#191970" stroke="#191970" points="250.9654,-100.8953 259.9359,-95.2579 249.4078,-94.0708 250.9654,-100.8953"/>
</g>
</g>
</svg>
