<?xml version="1.0" encoding="UTF-8" standalone="no"?>
<!DOCTYPE svg PUBLIC "-//W3C//DTD SVG 1.1//EN"
 "http://www.w3.org/Graphics/SVG/1.1/DTD/svg11.dtd">
<!-- Generated by graphviz version 2.40.1 (20161225.0304)
 -->
<!-- Title: UnregisterValidationInterface Pages: 1 -->
<svg width="984pt" height="214pt"
 viewBox="0.00 0.00 984.00 213.50" xmlns="http://www.w3.org/2000/svg" xmlns:xlink="http://www.w3.org/1999/xlink">
<g id="graph0" class="graph" transform="scale(1 1) rotate(0) translate(4 209.5)">
<title>UnregisterValidationInterface</title>
<polygon fill="#ffffff" stroke="transparent" points="-4,4 -4,-209.5 980,-209.5 980,4 -4,4"/>
<!-- Node63 -->
<g id="node1" class="node">
<title>Node63</title>
<polygon fill="#bfbfbf" stroke="#000000" points="0,-52 0,-71 143,-71 143,-52 0,-52"/>
<text text-anchor="middle" x="71.5" y="-59" font-family="Helvetica,sans-Serif" font-size="10.00" fill="#000000">UnregisterValidationInterface</text>
</g>
<!-- Node64 -->
<g id="node2" class="node">
<title>Node64</title>
<g id="a_node2"><a xlink:href="init_8h.html#a5cb3db83cb0ba2e421f651a1ee1f2cfe" target="_top" xlink:title="Preparing steps before shutting down or restarting the wallet. ">
<polygon fill="#ffffff" stroke="#000000" points="512,-148 512,-167 606,-167 606,-148 512,-148"/>
<text text-anchor="middle" x="559" y="-155" font-family="Helvetica,sans-Serif" font-size="10.00" fill="#000000">PrepareShutdown</text>
</a>
</g>
</g>
<!-- Node63&#45;&gt;Node64 -->
<g id="edge1" class="edge">
<title>Node63&#45;&gt;Node64</title>
<path fill="none" stroke="#191970" d="M98.7478,-75.5353C120.0854,-85.9999 150.7793,-99.9124 179,-108.5 295.138,-143.841 438.8096,-153.6959 511.735,-156.4416"/>
<polygon fill="#191970" stroke="#191970" points="100.1565,-72.3269 89.6449,-71.0014 97.0356,-78.5927 100.1565,-72.3269"/>
</g>
<!-- Node70 -->
<g id="node8" class="node">
<title>Node70</title>
<g id="a_node8"><a xlink:href="mining_8cpp.html#ade0e9e6230c6a02802d6c9d33c1e69c4" target="_top" xlink:title="submitblock">
<polygon fill="#ffffff" stroke="#000000" points="524.5,-60 524.5,-79 593.5,-79 593.5,-60 524.5,-60"/>
<text text-anchor="middle" x="559" y="-67" font-family="Helvetica,sans-Serif" font-size="10.00" fill="#000000">submitblock</text>
</a>
</g>
</g>
<!-- Node63&#45;&gt;Node70 -->
<g id="edge7" class="edge">
<title>Node63&#45;&gt;Node70</title>
<path fill="none" stroke="#191970" d="M153.68,-57.7003C233.5375,-54.7574 358.1958,-52.1466 466,-58.5 485.314,-59.6383 506.7674,-62.0952 524.1979,-64.3988"/>
<polygon fill="#191970" stroke="#191970" points="153.0602,-54.2212 143.2002,-58.0979 153.3257,-61.2161 153.0602,-54.2212"/>
</g>
<!-- Node71 -->
<g id="node9" class="node">
<title>Node71</title>
<g id="a_node9"><a xlink:href="class_c_validation_interface.html#a4ab4636bdcf502afaa3c2756dcf2b567" target="_top" xlink:title="CValidationInterface\l::NewAssetMessage">
<polygon fill="#ffffff" stroke="#000000" points="179,-68.5 179,-98.5 287,-98.5 287,-68.5 179,-68.5"/>
<text text-anchor="start" x="187" y="-86.5" font-family="Helvetica,sans-Serif" font-size="10.00" fill="#000000">CValidationInterface</text>
<text text-anchor="middle" x="233" y="-75.5" font-family="Helvetica,sans-Serif" font-size="10.00" fill="#000000">::NewAssetMessage</text>
</a>
</g>
</g>
<!-- Node63&#45;&gt;Node71 -->
<g id="edge8" class="edge">
<title>Node63&#45;&gt;Node71</title>
<path fill="none" stroke="#191970" d="M151.3665,-72.3797C160.5807,-73.6348 169.8101,-74.8921 178.575,-76.0861"/>
<polygon fill="#191970" stroke="#191970" points="151.7779,-68.9034 141.397,-71.0216 150.833,-75.8394 151.7779,-68.9034"/>
</g>
<!-- Node75 -->
<g id="node13" class="node">
<title>Node75</title>
<g id="a_node13"><a xlink:href="struct_wallet_testing_setup.html#a33e783ffa83796a3611f0b0d9796e0ad" target="_top" xlink:title="WalletTestingSetup\l::~WalletTestingSetup">
<polygon fill="#ffffff" stroke="#000000" points="502,-.5 502,-30.5 616,-30.5 616,-.5 502,-.5"/>
<text text-anchor="start" x="510" y="-18.5" font-family="Helvetica,sans-Serif" font-size="10.00" fill="#000000">WalletTestingSetup</text>
<text text-anchor="middle" x="559" y="-7.5" font-family="Helvetica,sans-Serif" font-size="10.00" fill="#000000">::~WalletTestingSetup</text>
</a>
</g>
</g>
<!-- Node63&#45;&gt;Node75 -->
<g id="edge18" class="edge">
<title>Node63&#45;&gt;Node75</title>
<path fill="none" stroke="#191970" d="M153.4131,-53.7708C252.2413,-44.4454 415.8213,-29.0102 501.9364,-20.8845"/>
<polygon fill="#191970" stroke="#191970" points="152.7973,-50.3132 143.1704,-54.7373 153.455,-57.2823 152.7973,-50.3132"/>
</g>
<!-- Node65 -->
<g id="node3" class="node">
<title>Node65</title>
<g id="a_node3"><a xlink:href="init_8h.html#ac5f038c2b480cf9ef5e19e3eba8dbaf9" target="_top" xlink:title="Shutdown is split into 2 parts: Part 1: shut down everything but the main wallet instance (done in Pr...">
<polygon fill="#ffffff" stroke="#000000" points="672,-167 672,-186 732,-186 732,-167 672,-167"/>
<text text-anchor="middle" x="702" y="-174" font-family="Helvetica,sans-Serif" font-size="10.00" fill="#000000">Shutdown</text>
</a>
</g>
</g>
<!-- Node64&#45;&gt;Node65 -->
<g id="edge2" class="edge">
<title>Node64&#45;&gt;Node65</title>
<path fill="none" stroke="#191970" d="M616.3114,-165.1148C635.3405,-167.6431 655.7665,-170.3571 671.9013,-172.5009"/>
<polygon fill="#191970" stroke="#191970" points="616.5938,-161.6216 606.2199,-163.774 615.6717,-168.5607 616.5938,-161.6216"/>
</g>
<!-- Node69 -->
<g id="node7" class="node">
<title>Node69</title>
<g id="a_node7"><a xlink:href="class_raven_core.html#ab35cedbe16324f62d058e964b03cac69" target="_top" xlink:title="RavenCore::restart">
<polygon fill="#ffffff" stroke="#000000" points="652,-129 652,-148 752,-148 752,-129 652,-129"/>
<text text-anchor="middle" x="702" y="-136" font-family="Helvetica,sans-Serif" font-size="10.00" fill="#000000">RavenCore::restart</text>
</a>
</g>
</g>
<!-- Node64&#45;&gt;Node69 -->
<g id="edge6" class="edge">
<title>Node64&#45;&gt;Node69</title>
<path fill="none" stroke="#191970" d="M616.3767,-149.8765C628.128,-148.3152 640.4094,-146.6834 651.882,-145.159"/>
<polygon fill="#191970" stroke="#191970" points="615.6717,-146.4393 606.2199,-151.226 616.5938,-153.3784 615.6717,-146.4393"/>
</g>
<!-- Node66 -->
<g id="node4" class="node">
<title>Node66</title>
<g id="a_node4"><a xlink:href="class_raven_core.html#a0b62b17932fa72d2ac40d4d81b2a432d" target="_top" xlink:title="RavenCore::shutdown">
<polygon fill="#ffffff" stroke="#000000" points="788,-186 788,-205 902,-205 902,-186 788,-186"/>
<text text-anchor="middle" x="845" y="-193" font-family="Helvetica,sans-Serif" font-size="10.00" fill="#000000">RavenCore::shutdown</text>
</a>
</g>
</g>
<!-- Node65&#45;&gt;Node66 -->
<g id="edge3" class="edge">
<title>Node65&#45;&gt;Node66</title>
<path fill="none" stroke="#191970" d="M742.6475,-181.9007C756.7082,-183.7689 772.7384,-185.8988 787.8725,-187.9096"/>
<polygon fill="#191970" stroke="#191970" points="742.7005,-178.3771 732.3266,-180.5294 741.7785,-185.3161 742.7005,-178.3771"/>
</g>
<!-- Node67 -->
<g id="node5" class="node">
<title>Node67</title>
<g id="a_node5"><a xlink:href="ravend_8cpp.html#ac59316b767e6984e1285f0531275286b" target="_top" xlink:title="AppInit">
<polygon fill="#ffffff" stroke="#000000" points="821.5,-148 821.5,-167 868.5,-167 868.5,-148 821.5,-148"/>
<text text-anchor="middle" x="845" y="-155" font-family="Helvetica,sans-Serif" font-size="10.00" fill="#000000">AppInit</text>
</a>
</g>
</g>
<!-- Node65&#45;&gt;Node67 -->
<g id="edge4" class="edge">
<title>Node65&#45;&gt;Node67</title>
<path fill="none" stroke="#191970" d="M742.4377,-171.1272C767.9077,-167.743 799.9055,-163.4916 821.3263,-160.6455"/>
<polygon fill="#191970" stroke="#191970" points="741.7785,-167.6839 732.3266,-172.4706 742.7005,-174.6229 741.7785,-167.6839"/>
</g>
<!-- Node68 -->
<g id="node6" class="node">
<title>Node68</title>
<g id="a_node6"><a xlink:href="ravend_8cpp.html#a0ddf1224851353fc92bfbff6f499fa97" target="_top" xlink:title="main">
<polygon fill="#ffffff" stroke="#000000" points="938,-148 938,-167 976,-167 976,-148 938,-148"/>
<text text-anchor="middle" x="957" y="-155" font-family="Helvetica,sans-Serif" font-size="10.00" fill="#000000">main</text>
</a>
</g>
</g>
<!-- Node67&#45;&gt;Node68 -->
<g id="edge5" class="edge">
<title>Node67&#45;&gt;Node68</title>
<path fill="none" stroke="#191970" d="M878.9552,-157.5C898.2177,-157.5 921.6211,-157.5 937.7465,-157.5"/>
<polygon fill="#191970" stroke="#191970" points="878.7524,-154.0001 868.7523,-157.5 878.7523,-161.0001 878.7524,-154.0001"/>
</g>
<!-- Node72 -->
<g id="node10" class="node">
<title>Node72</title>
<g id="a_node10"><a xlink:href="validationinterface_8h.html#ade8ef59282b5f7521ecfd870a8e3b137" target="_top" xlink:title="Register a wallet to receive updates from core. ">
<polygon fill="#ffffff" stroke="#000000" points="327.5,-106 327.5,-125 461.5,-125 461.5,-106 327.5,-106"/>
<text text-anchor="middle" x="394.5" y="-113" font-family="Helvetica,sans-Serif" font-size="10.00" fill="#000000">RegisterValidationInterface</text>
</a>
</g>
</g>
<!-- Node71&#45;&gt;Node72 -->
<g id="edge9" class="edge">
<title>Node71&#45;&gt;Node72</title>
<path fill="none" stroke="#191970" d="M297.1105,-89.582C323.2746,-94.3552 351.8751,-100.5932 371.2697,-105.9892"/>
<polygon fill="#191970" stroke="#191970" points="297.684,-86.1292 287.2264,-87.8292 296.4616,-93.0217 297.684,-86.1292"/>
</g>
<!-- Node74 -->
<g id="node12" class="node">
<title>Node74</title>
<g id="a_node12"><a xlink:href="validationinterface_8h.html#a5e1776de1f87b4d045e9e2a198236b63" target="_top" xlink:title="Unregister a wallet from core. ">
<polygon fill="#ffffff" stroke="#000000" points="323,-68 323,-87 466,-87 466,-68 323,-68"/>
<text text-anchor="middle" x="394.5" y="-75" font-family="Helvetica,sans-Serif" font-size="10.00" fill="#000000">UnregisterValidationInterface</text>
</a>
</g>
</g>
<!-- Node71&#45;&gt;Node74 -->
<g id="edge13" class="edge">
<title>Node71&#45;&gt;Node74</title>
<path fill="none" stroke="#191970" d="M297.3344,-74.4854C305.7433,-74.0428 314.4001,-73.6922 322.919,-73.4482"/>
<polygon fill="#191970" stroke="#191970" points="297.0076,-70.9984 287.2264,-75.07 297.4119,-77.9867 297.0076,-70.9984"/>
</g>
<!-- Node72&#45;&gt;Node70 -->
<g id="edge10" class="edge">
<title>Node72&#45;&gt;Node70</title>
<path fill="none" stroke="#191970" d="M440.6486,-103.4022C449.0912,-101.142 457.8172,-98.7747 466,-96.5 486.2478,-90.8713 508.8953,-84.3021 526.7716,-79.0528"/>
<polygon fill="#191970" stroke="#191970" points="439.6795,-100.0382 430.9174,-105.9944 441.4814,-106.8024 439.6795,-100.0382"/>
</g>
<!-- Node72&#45;&gt;Node71 -->
<g id="edge11" class="edge">
<title>Node72&#45;&gt;Node71</title>
<path fill="none" stroke="#191970" d="M317.576,-107.0014C304.012,-104.3616 290.3038,-101.4388 277.9868,-98.5372"/>
<polygon fill="#191970" stroke="#191970" points="316.9276,-110.4407 327.4052,-108.8691 318.2344,-103.5638 316.9276,-110.4407"/>
</g>
<!-- Node73 -->
<g id="node11" class="node">
<title>Node73</title>
<g id="a_node11"><a xlink:href="struct_wallet_testing_setup.html#a0125ada997b4b16803624bfd537d8902" target="_top" xlink:title="WalletTestingSetup\l::WalletTestingSetup">
<polygon fill="#ffffff" stroke="#000000" points="505,-98.5 505,-128.5 613,-128.5 613,-98.5 505,-98.5"/>
<text text-anchor="start" x="513" y="-116.5" font-family="Helvetica,sans-Serif" font-size="10.00" fill="#000000">WalletTestingSetup</text>
<text text-anchor="middle" x="559" y="-105.5" font-family="Helvetica,sans-Serif" font-size="10.00" fill="#000000">::WalletTestingSetup</text>
</a>
</g>
</g>
<!-- Node72&#45;&gt;Node73 -->
<g id="edge12" class="edge">
<title>Node72&#45;&gt;Node73</title>
<path fill="none" stroke="#191970" d="M472.0062,-114.5577C483.0897,-114.4229 494.2884,-114.2868 504.7938,-114.159"/>
<polygon fill="#191970" stroke="#191970" points="471.8398,-111.0593 461.8831,-114.6808 471.9249,-118.0588 471.8398,-111.0593"/>
</g>
<!-- Node74&#45;&gt;Node64 -->
<g id="edge14" class="edge">
<title>Node74&#45;&gt;Node64</title>
<path fill="none" stroke="#191970" d="M455.2334,-90.795C458.9852,-92.4771 462.6099,-94.3701 466,-96.5 486.8177,-109.5793 481.5978,-124.7816 502,-138.5 507.7131,-142.3415 514.2691,-145.4651 520.8535,-147.9856"/>
<polygon fill="#191970" stroke="#191970" points="456.2934,-87.4506 445.7068,-87.0333 453.7224,-93.9614 456.2934,-87.4506"/>
</g>
<!-- Node74&#45;&gt;Node70 -->
<g id="edge15" class="edge">
<title>Node74&#45;&gt;Node70</title>
<path fill="none" stroke="#191970" d="M476.5817,-73.5082C493.3398,-72.6932 510.1072,-71.8778 524.1012,-71.1972"/>
<polygon fill="#191970" stroke="#191970" points="475.9917,-70.0326 466.1736,-74.0144 476.3318,-77.0244 475.9917,-70.0326"/>
</g>
<!-- Node74&#45;&gt;Node71 -->
<g id="edge16" class="edge">
<title>Node74&#45;&gt;Node71</title>
<path fill="none" stroke="#191970" d="M312.7678,-87.286C304.106,-87.6 295.4593,-87.8099 287.2264,-87.9008"/>
<polygon fill="#191970" stroke="#191970" points="313.0705,-90.7767 322.919,-86.8705 312.7842,-83.7825 313.0705,-90.7767"/>
</g>
<!-- Node74&#45;&gt;Node75 -->
<g id="edge17" class="edge">
<title>Node74&#45;&gt;Node75</title>
<path fill="none" stroke="#191970" d="M429.3695,-64.3577C455.5699,-54.4828 491.504,-40.9392 518.8944,-30.6158"/>
<polygon fill="#191970" stroke="#191970" points="427.9657,-61.1464 419.8426,-67.9484 430.4345,-67.6966 427.9657,-61.1464"/>
</g>
</g>
</svg>
