<?xml version="1.0" encoding="UTF-8" standalone="no"?>
<!DOCTYPE svg PUBLIC "-//W3C//DTD SVG 1.1//EN"
 "http://www.w3.org/Graphics/SVG/1.1/DTD/svg11.dtd">
<!-- Generated by graphviz version 2.40.1 (20161225.0304)
 -->
<!-- Title: scanhash_whirlpool Pages: 1 -->
<svg width="432pt" height="85pt"
 viewBox="0.00 0.00 432.00 85.00" xmlns="http://www.w3.org/2000/svg" xmlns:xlink="http://www.w3.org/1999/xlink">
<g id="graph0" class="graph" transform="scale(1 1) rotate(0) translate(4 81)">
<title>scanhash_whirlpool</title>
<polygon fill="#ffffff" stroke="transparent" points="-4,4 -4,-81 428,-81 428,4 -4,4"/>
<!-- Node12 -->
<g id="node1" class="node">
<title>Node12</title>
<polygon fill="#bfbfbf" stroke="#000000" points="0,-19.5 0,-38.5 102,-38.5 102,-19.5 0,-19.5"/>
<text text-anchor="middle" x="51" y="-26.5" font-family="Helvetica,sans-Serif" font-size="10.00" fill="#000000">scanhash_whirlpool</text>
</g>
<!-- Node13 -->
<g id="node2" class="node">
<title>Node13</title>
<g id="a_node2"><a xlink:href="whirlpool_8c.html#a28a05c382e229d506228b4809cdec913" target="_top" xlink:title="whirlpool_midstate">
<polygon fill="#ffffff" stroke="#000000" points="138,-38.5 138,-57.5 236,-57.5 236,-38.5 138,-38.5"/>
<text text-anchor="middle" x="187" y="-45.5" font-family="Helvetica,sans-Serif" font-size="10.00" fill="#000000">whirlpool_midstate</text>
</a>
</g>
</g>
<!-- Node12&#45;&gt;Node13 -->
<g id="edge1" class="edge">
<title>Node12&#45;&gt;Node13</title>
<path fill="none" stroke="#191970" d="M102.0283,-36.129C110.4794,-37.3096 119.3041,-38.5425 127.9336,-39.7481"/>
<polygon fill="#191970" stroke="#191970" points="127.5518,-43.2286 137.9399,-41.146 128.5204,-36.296 127.5518,-43.2286"/>
</g>
<!-- Node17 -->
<g id="node6" class="node">
<title>Node17</title>
<g id="a_node6"><a xlink:href="whirlpool_8c.html#afdbee1deeffbba886df796e7d81c6d8c" target="_top" xlink:title="whirlpool_hash">
<polygon fill="#ffffff" stroke="#000000" points="146.5,-.5 146.5,-19.5 227.5,-19.5 227.5,-.5 146.5,-.5"/>
<text text-anchor="middle" x="187" y="-7.5" font-family="Helvetica,sans-Serif" font-size="10.00" fill="#000000">whirlpool_hash</text>
</a>
</g>
</g>
<!-- Node12&#45;&gt;Node17 -->
<g id="edge5" class="edge">
<title>Node12&#45;&gt;Node17</title>
<path fill="none" stroke="#191970" d="M102.0283,-21.871C113.2234,-20.307 125.0742,-18.6514 136.258,-17.089"/>
<polygon fill="#191970" stroke="#191970" points="136.884,-20.5356 146.3035,-15.6855 135.9154,-13.6029 136.884,-20.5356"/>
</g>
<!-- Node14 -->
<g id="node3" class="node">
<title>Node14</title>
<g id="a_node3"><a xlink:href="glibc__compat_8cpp.html#a0f46826ab0466591e136db24394923cf" target="_top" xlink:title="memcpy">
<polygon fill="#ffffff" stroke="#000000" points="272,-38.5 272,-57.5 326,-57.5 326,-38.5 272,-38.5"/>
<text text-anchor="middle" x="299" y="-45.5" font-family="Helvetica,sans-Serif" font-size="10.00" fill="#000000">memcpy</text>
</a>
</g>
</g>
<!-- Node13&#45;&gt;Node14 -->
<g id="edge2" class="edge">
<title>Node13&#45;&gt;Node14</title>
<path fill="none" stroke="#191970" d="M236.1248,-48C244.7207,-48 253.5361,-48 261.7441,-48"/>
<polygon fill="#191970" stroke="#191970" points="261.7539,-51.5001 271.7539,-48 261.7538,-44.5001 261.7539,-51.5001"/>
</g>
<!-- Node15 -->
<g id="node4" class="node">
<title>Node15</title>
<g id="a_node4"><a xlink:href="glibc__compat_8cpp.html#a9778d49e9029dd75bc53ecbbf9f5e9a1" target="_top" xlink:title="memmove">
<polygon fill="#ffffff" stroke="#000000" points="362,-57.5 362,-76.5 424,-76.5 424,-57.5 362,-57.5"/>
<text text-anchor="middle" x="393" y="-64.5" font-family="Helvetica,sans-Serif" font-size="10.00" fill="#000000">memmove</text>
</a>
</g>
</g>
<!-- Node14&#45;&gt;Node15 -->
<g id="edge3" class="edge">
<title>Node14&#45;&gt;Node15</title>
<path fill="none" stroke="#191970" d="M326.1887,-53.4956C334.217,-55.1183 343.1892,-56.9319 351.8881,-58.6901"/>
<polygon fill="#191970" stroke="#191970" points="351.4061,-62.1634 361.9013,-60.7141 352.793,-55.3022 351.4061,-62.1634"/>
</g>
<!-- Node16 -->
<g id="node5" class="node">
<title>Node16</title>
<g id="a_node5"><a xlink:href="glibc__compat_8cpp.html#a424ac71631da5ada2976630ff67051d1" target="_top" xlink:title="__chk_fail">
<polygon fill="#ffffff" stroke="#000000" points="362.5,-19.5 362.5,-38.5 423.5,-38.5 423.5,-19.5 362.5,-19.5"/>
<text text-anchor="middle" x="393" y="-26.5" font-family="Helvetica,sans-Serif" font-size="10.00" fill="#000000">__chk_fail</text>
</a>
</g>
</g>
<!-- Node14&#45;&gt;Node16 -->
<g id="edge4" class="edge">
<title>Node14&#45;&gt;Node16</title>
<path fill="none" stroke="#191970" d="M326.1887,-42.5044C334.383,-40.8481 343.5608,-38.993 352.4275,-37.2008"/>
<polygon fill="#191970" stroke="#191970" points="353.1288,-40.6299 362.2371,-35.218 351.7419,-33.7687 353.1288,-40.6299"/>
</g>
</g>
</svg>
